<svg xmlns="http://www.w3.org/2000/svg" width="1140" height="730" viewBox="0 0 1140 730"><defs><style>.a{fill:#dbebd8;}.b,.c,.d,.e,.f{fill:none;stroke:#000;stroke-miterlimit:10;stroke-width:2px;}.b,.c,.d,.f{stroke-linecap:round;}.c{stroke-dasharray:7 8.054;}.d{stroke-dasharray:7 8.045;}.f{stroke-dasharray:6 8.054;}</style></defs><path class="a" d="M1131.231,365.238c-15.815-128.564,24.546-287.506-143.519-342.2-80.157-26.088-172-5.19-363.346-5.19-198.78,0-363.534-19.85-451.548,6.806C-49.4,91.952,12.8,282.6,12.8,419.4c0,98.373,51.3,209.854,175,259.153,116.445,46.409,309.474,36.5,415.262,36.5C821.217,715.051,1176.777,735.49,1131.231,365.238Z"/><line class="b" x1="380.968" y1="275.383" x2="384.968" y2="275.37"/><line class="c" x1="384.968" y1="275.37" x2="459.716" y2="275.174"/><line class="b" x1="811.804" y1="273.941" x2="815.804" y2="273.928"/><line class="b" x1="815.977" y1="273.928" x2="1017.879" y2="273.928"/><line class="b" x1="548.053" y1="393.328" x2="155.808" y2="393.718"/><line class="b" x1="449.679" y1="330.769" x2="387.578" y2="330.769"/><polygon points="447.344 322.791 461.161 330.769 447.344 338.747 447.344 322.791"/><line class="b" x1="810.351" y1="330.769" x2="748.251" y2="330.769"/><polygon points="750.585 322.791 736.769 330.769 750.585 338.747 750.585 322.791"/><line class="b" x1="156.879" y1="275.185" x2="382.914" y2="275.376"/><line class="b" x1="734.507" y1="657.481" x2="796.607" y2="657.481"/><polygon points="794.273 649.503 808.089 657.481 794.273 665.459 794.273 649.503"/><line class="b" x1="392.165" y1="657.481" x2="454.266" y2="657.481"/><polygon points="394.5 649.503 380.683 657.481 394.5 665.459 394.5 649.503"/><line class="b" x1="1014.467" y1="392.943" x2="634.48" y2="393.333"/><line class="b" x1="548.053" y1="393.329" x2="557.765" y2="393.329"/><line class="d" x1="557.765" y1="393.329" x2="638.763" y2="393.328"/><path d="M692.579,499.482a10.578,10.578,0,0,1-4.213-2.044,3.908,3.908,0,0,1-1.318-3,4.129,4.129,0,0,1,1.611-3.334,6.4,6.4,0,0,1,4.19-1.318,6.988,6.988,0,0,1,3.134.68,5.154,5.154,0,0,1,2.133,1.875,4.794,4.794,0,0,1,.756,2.613H696.61a3.12,3.12,0,0,0-.984-2.44,4,4,0,0,0-2.777-.888,4.1,4.1,0,0,0-2.6.734,2.447,2.447,0,0,0-.932,2.036,2.2,2.2,0,0,0,.885,1.768,8.686,8.686,0,0,0,3.012,1.32,13.987,13.987,0,0,1,3.328,1.32,5.05,5.05,0,0,1,1.781,1.681,4.292,4.292,0,0,1,.58,2.262,3.986,3.986,0,0,1-1.617,3.322,6.894,6.894,0,0,1-4.324,1.248,8,8,0,0,1-3.281-.674,5.521,5.521,0,0,1-2.35-1.845,4.5,4.5,0,0,1-.826-2.66h2.262a2.938,2.938,0,0,0,1.142,2.443,4.809,4.809,0,0,0,3.053.9,4.425,4.425,0,0,0,2.73-.726,2.362,2.362,0,0,0,.95-1.981,2.316,2.316,0,0,0-.879-1.939A10.154,10.154,0,0,0,692.579,499.482Z"/><path d="M709.278,505.834a4.6,4.6,0,0,1-3.715,1.488,3.941,3.941,0,0,1-3.087-1.177,5.1,5.1,0,0,1-1.073-3.487v-8.25h2.168V502.6q0,2.881,2.344,2.882a3.246,3.246,0,0,0,3.305-1.851v-9.223h2.168v12.68h-2.063Z"/><path d="M725.392,500.889a7.593,7.593,0,0,1-1.325,4.664,4.244,4.244,0,0,1-3.586,1.769,4.646,4.646,0,0,1-3.632-1.465v6.106h-2.168V494.408h1.98l.106,1.406a4.466,4.466,0,0,1,3.679-1.64,4.325,4.325,0,0,1,3.616,1.722,7.683,7.683,0,0,1,1.33,4.793Zm-2.168-.246a5.6,5.6,0,0,0-.914-3.387,2.946,2.946,0,0,0-2.508-1.242,3.186,3.186,0,0,0-2.953,1.746v6.058a3.191,3.191,0,0,0,2.976,1.735,2.931,2.931,0,0,0,2.479-1.237A6.114,6.114,0,0,0,723.224,500.643Z"/><path d="M733.407,507.322a5.538,5.538,0,0,1-4.2-1.693A6.286,6.286,0,0,1,727.6,501.1v-.4a7.613,7.613,0,0,1,.72-3.369,5.626,5.626,0,0,1,2.016-2.32,5.065,5.065,0,0,1,2.807-.838,4.748,4.748,0,0,1,3.843,1.629,7.046,7.046,0,0,1,1.372,4.664v.9h-8.59a4.5,4.5,0,0,0,1.095,3.029,3.444,3.444,0,0,0,2.666,1.155,3.784,3.784,0,0,0,1.946-.469,4.9,4.9,0,0,0,1.394-1.242l1.324,1.031A5.323,5.323,0,0,1,733.407,507.322Zm-.269-11.367a2.889,2.889,0,0,0-2.2.955,4.643,4.643,0,0,0-1.1,2.678h6.352v-.164a4.135,4.135,0,0,0-.891-2.561A2.723,2.723,0,0,0,733.138,495.955Z"/><path d="M746.989,496.354a6.451,6.451,0,0,0-1.066-.083,2.858,2.858,0,0,0-2.895,1.817v9H740.86v-12.68h2.11l.035,1.465a3.375,3.375,0,0,1,3.023-1.7,2.218,2.218,0,0,1,.961.164Z"/><path d="M752.509,491.338v3.07h2.367v1.676h-2.367v7.873a1.761,1.761,0,0,0,.316,1.145,1.336,1.336,0,0,0,1.078.38,5.231,5.231,0,0,0,1.032-.14v1.748a6.335,6.335,0,0,1-1.664.232,2.7,2.7,0,0,1-2.192-.879,3.777,3.777,0,0,1-.738-2.5v-7.863h-2.309v-1.676h2.309v-3.07Z"/><path d="M763.536,496.354a6.451,6.451,0,0,0-1.066-.083,2.858,2.858,0,0,0-2.895,1.817v9h-2.168v-12.68h2.11l.035,1.465a3.375,3.375,0,0,1,3.023-1.7,2.221,2.221,0,0,1,.961.164Z"/><path d="M764.72,500.631a7.5,7.5,0,0,1,.732-3.352,5.463,5.463,0,0,1,2.039-2.3,5.551,5.551,0,0,1,2.983-.808,5.344,5.344,0,0,1,4.189,1.793,6.9,6.9,0,0,1,1.6,4.769v.153a7.565,7.565,0,0,1-.709,3.322,5.39,5.39,0,0,1-2.028,2.291,5.611,5.611,0,0,1-3.029.82,5.333,5.333,0,0,1-4.178-1.793,6.864,6.864,0,0,1-1.6-4.746Zm2.179.258a5.424,5.424,0,0,0,.979,3.386,3.315,3.315,0,0,0,5.244-.017,5.927,5.927,0,0,0,.973-3.627,5.409,5.409,0,0,0-.991-3.381,3.148,3.148,0,0,0-2.63-1.3,3.113,3.113,0,0,0-2.59,1.277A5.892,5.892,0,0,0,766.9,500.889Z"/><path d="M786.81,505.834a4.606,4.606,0,0,1-3.715,1.488,3.941,3.941,0,0,1-3.088-1.177,5.1,5.1,0,0,1-1.072-3.487v-8.25H781.1V502.6q0,2.881,2.343,2.882a3.245,3.245,0,0,0,3.3-1.851v-9.223h2.168v12.68h-2.063Z"/><path d="M791.7,500.643a7.452,7.452,0,0,1,1.371-4.717,4.728,4.728,0,0,1,7.254-.112l.106-1.406h1.98v12.375a5.156,5.156,0,0,1-1.459,3.879,5.384,5.384,0,0,1-3.92,1.418,6.513,6.513,0,0,1-2.683-.586,4.62,4.62,0,0,1-2-1.605l1.125-1.3a4.241,4.241,0,0,0,3.41,1.723,3.321,3.321,0,0,0,2.467-.891,3.4,3.4,0,0,0,.885-2.508v-1.09a4.457,4.457,0,0,1-3.551,1.5,4.33,4.33,0,0,1-3.6-1.793A7.833,7.833,0,0,1,791.7,500.643Zm2.18.246a5.687,5.687,0,0,0,.879,3.369,2.856,2.856,0,0,0,2.461,1.224,3.177,3.177,0,0,0,3.012-1.863V497.83a3.214,3.214,0,0,0-2.989-1.816,2.881,2.881,0,0,0-2.472,1.23A6.19,6.19,0,0,0,793.876,500.889Z"/><path d="M807.845,495.943a4.611,4.611,0,0,1,3.75-1.769q4.018,0,4.054,4.535v8.379h-2.168V498.7a2.909,2.909,0,0,0-.627-2.027,2.509,2.509,0,0,0-1.916-.656,3.127,3.127,0,0,0-1.851.562,3.819,3.819,0,0,0-1.242,1.477v9.035h-2.168v-18h2.168Z"/><path d="M192.658,102.716a7.545,7.545,0,0,1-2.541,5.42,8.928,8.928,0,0,1-6.043,1.977,8.024,8.024,0,0,1-6.452-2.761,11.325,11.325,0,0,1-2.351-7.581v-1.3a12.793,12.793,0,0,1,1.083-5.42,8.123,8.123,0,0,1,3.1-3.6,9.679,9.679,0,0,1,10.627.725,8.113,8.113,0,0,1,2.608,5.552h-4.395a4.454,4.454,0,0,0-1.149-3,4.263,4.263,0,0,0-3.011-.93,3.733,3.733,0,0,0-3.288,1.574,8.82,8.82,0,0,0-1.121,4.886v1.611a9.45,9.45,0,0,0,1.047,5.054,3.666,3.666,0,0,0,3.3,1.6,4.339,4.339,0,0,0,3.04-.93,4.2,4.2,0,0,0,1.15-2.878Z"/><path d="M194.606,101.749a9.392,9.392,0,0,1,.909-4.2,6.644,6.644,0,0,1,2.615-2.857,7.635,7.635,0,0,1,3.962-1.01,7.216,7.216,0,0,1,5.237,1.963,7.873,7.873,0,0,1,2.263,5.332l.029,1.084a8.287,8.287,0,0,1-2.036,5.852,7.893,7.893,0,0,1-10.935.007,8.432,8.432,0,0,1-2.044-5.977Zm4.234.3a5.924,5.924,0,0,0,.849,3.455,3.052,3.052,0,0,0,4.834.015,6.473,6.473,0,0,0,.865-3.777,5.857,5.857,0,0,0-.865-3.433,2.808,2.808,0,0,0-2.431-1.218,2.765,2.765,0,0,0-2.4,1.21A6.6,6.6,0,0,0,198.84,102.049Z"/><path d="M216.125,93.971l.132,1.831a5.533,5.533,0,0,1,4.555-2.124,4.6,4.6,0,0,1,3.75,1.479,6.9,6.9,0,0,1,1.26,4.424V109.82h-4.233V99.684A2.744,2.744,0,0,0,221,97.728a2.624,2.624,0,0,0-1.948-.608,2.912,2.912,0,0,0-2.681,1.524V109.82h-4.233V93.971Z"/><path d="M237.614,105.44a1.365,1.365,0,0,0-.768-1.223,8.728,8.728,0,0,0-2.469-.8q-5.655-1.186-5.654-4.8a4.357,4.357,0,0,1,1.751-3.523,7.061,7.061,0,0,1,4.577-1.413,7.6,7.6,0,0,1,4.827,1.421,4.477,4.477,0,0,1,1.809,3.691h-4.234a2.046,2.046,0,0,0-.586-1.5,2.477,2.477,0,0,0-1.831-.594,2.527,2.527,0,0,0-1.655.484,1.524,1.524,0,0,0-.586,1.23,1.3,1.3,0,0,0,.667,1.135,6.823,6.823,0,0,0,2.248.748,18.207,18.207,0,0,1,2.666.71q3.354,1.23,3.354,4.263a4.135,4.135,0,0,1-1.86,3.508,8.022,8.022,0,0,1-4.805,1.34,8.392,8.392,0,0,1-3.537-.71,5.934,5.934,0,0,1-2.424-1.948,4.53,4.53,0,0,1-.879-2.674h4.013a2.214,2.214,0,0,0,.835,1.729,3.315,3.315,0,0,0,2.08.6,3.064,3.064,0,0,0,1.839-.461A1.437,1.437,0,0,0,237.614,105.44Z"/><path d="M249.523,90.074v3.9h2.71v3.1h-2.71v7.91a1.893,1.893,0,0,0,.337,1.26,1.693,1.693,0,0,0,1.289.381,6.706,6.706,0,0,0,1.246-.1v3.208a8.72,8.72,0,0,1-2.564.381q-4.453,0-4.541-4.5v-8.54h-2.314v-3.1h2.314v-3.9Z"/><path d="M263.5,97.94a11.516,11.516,0,0,0-1.523-.117q-2.4,0-3.15,1.626V109.82h-4.233V93.971h4l.117,1.889a3.922,3.922,0,0,1,3.53-2.182,4.441,4.441,0,0,1,1.319.19Z"/><path d="M275.026,108.209a5.307,5.307,0,0,1-4.336,1.9,5,5,0,0,1-3.888-1.465,6.247,6.247,0,0,1-1.37-4.292V93.971h4.233v10.251q0,2.478,2.256,2.478a3.056,3.056,0,0,0,2.959-1.5V93.971h4.248V109.82h-3.984Z"/><path d="M288.913,106.7a2.779,2.779,0,0,0,1.9-.644,2.255,2.255,0,0,0,.762-1.714h3.97a5.431,5.431,0,0,1-.879,2.951,5.8,5.8,0,0,1-2.365,2.081,7.41,7.41,0,0,1-3.319.739,6.883,6.883,0,0,1-5.361-2.16,8.551,8.551,0,0,1-1.963-5.97v-.278a8.457,8.457,0,0,1,1.948-5.845,6.8,6.8,0,0,1,5.347-2.182,6.67,6.67,0,0,1,4.769,1.692,5.992,5.992,0,0,1,1.823,4.5h-3.97a2.9,2.9,0,0,0-.762-2.01,2.831,2.831,0,0,0-4.167.3,6.249,6.249,0,0,0-.754,3.5v.44a6.325,6.325,0,0,0,.747,3.521A2.58,2.58,0,0,0,288.913,106.7Z"/><path d="M303.034,90.074v3.9h2.71v3.1h-2.71v7.91a1.887,1.887,0,0,0,.337,1.26,1.692,1.692,0,0,0,1.289.381,6.687,6.687,0,0,0,1.245-.1v3.208a8.708,8.708,0,0,1-2.563.381q-4.453,0-4.541-4.5v-8.54h-2.315v-3.1H298.8v-3.9Z"/><path d="M308.073,89.869a2.083,2.083,0,0,1,.638-1.567,2.746,2.746,0,0,1,3.464,0,2.238,2.238,0,0,1-.007,3.149,2.716,2.716,0,0,1-3.442,0A2.077,2.077,0,0,1,308.073,89.869Zm4.5,19.951h-4.248V93.971h4.248Z"/><path d="M321.989,104.649l2.945-10.678h4.423l-5.346,15.849h-4.043l-5.347-15.849h4.424Z"/><path d="M338.322,110.113a7.783,7.783,0,0,1-5.676-2.138,7.608,7.608,0,0,1-2.19-5.7v-.41a9.577,9.577,0,0,1,.923-4.27,6.771,6.771,0,0,1,2.615-2.9,7.335,7.335,0,0,1,3.86-1.018,6.577,6.577,0,0,1,5.12,2.051,8.332,8.332,0,0,1,1.867,5.815v1.728H334.748a3.936,3.936,0,0,0,1.238,2.491,3.742,3.742,0,0,0,2.615.937,4.571,4.571,0,0,0,3.823-1.772l2.08,2.329a6.36,6.36,0,0,1-2.578,2.1A8.457,8.457,0,0,1,338.322,110.113Zm-.483-13.022a2.643,2.643,0,0,0-2.043.853,4.415,4.415,0,0,0-1,2.443h5.889v-.339a3.155,3.155,0,0,0-.762-2.185A2.729,2.729,0,0,0,337.839,97.091Z"/><path d="M359.665,109.82h-4.394V88.492h4.394Z"/><path d="M367.355,93.971l.132,1.831a5.535,5.535,0,0,1,4.556-2.124,4.6,4.6,0,0,1,3.75,1.479,6.909,6.909,0,0,1,1.26,4.424V109.82h-4.234V99.684a2.744,2.744,0,0,0-.586-1.956,2.623,2.623,0,0,0-1.948-.608,2.913,2.913,0,0,0-2.681,1.524V109.82h-4.233V93.971Z"/><path d="M385.329,90.074v3.9h2.71v3.1h-2.71v7.91a1.887,1.887,0,0,0,.337,1.26,1.692,1.692,0,0,0,1.289.381,6.687,6.687,0,0,0,1.245-.1v3.208a8.708,8.708,0,0,1-2.563.381q-4.454,0-4.541-4.5v-8.54h-2.315v-3.1H381.1v-3.9Z"/><path d="M397.692,110.113a7.781,7.781,0,0,1-5.675-2.138,7.6,7.6,0,0,1-2.191-5.7v-.41a9.577,9.577,0,0,1,.923-4.27,6.771,6.771,0,0,1,2.615-2.9,7.335,7.335,0,0,1,3.86-1.018,6.576,6.576,0,0,1,5.12,2.051,8.332,8.332,0,0,1,1.867,5.815v1.728H394.118a3.936,3.936,0,0,0,1.238,2.491,3.742,3.742,0,0,0,2.615.937,4.57,4.57,0,0,0,3.823-1.772l2.08,2.329a6.36,6.36,0,0,1-2.578,2.1A8.457,8.457,0,0,1,397.692,110.113Zm-.483-13.022a2.643,2.643,0,0,0-2.043.853,4.43,4.43,0,0,0-1,2.443h5.889v-.339a3.155,3.155,0,0,0-.762-2.185A2.729,2.729,0,0,0,397.209,97.091Z"/><path d="M415.52,97.94A11.53,11.53,0,0,0,414,97.823q-2.4,0-3.149,1.626V109.82h-4.234V93.971h4l.117,1.889a3.923,3.923,0,0,1,3.531-2.182,4.43,4.43,0,0,1,1.318.19Z"/><path d="M419.006,109.82V97.076h-2.359v-3.1h2.359V92.623a5.473,5.473,0,0,1,1.531-4.138,5.925,5.925,0,0,1,4.284-1.472,9.862,9.862,0,0,1,2.154.293l-.044,3.281a5.4,5.4,0,0,0-1.289-.132q-2.388,0-2.388,2.241v1.275H426.4v3.1h-3.149V109.82Z"/><path d="M435.544,110.113a7.783,7.783,0,0,1-5.676-2.138,7.6,7.6,0,0,1-2.19-5.7v-.41a9.564,9.564,0,0,1,.923-4.27,6.771,6.771,0,0,1,2.615-2.9,7.334,7.334,0,0,1,3.859-1.018,6.576,6.576,0,0,1,5.12,2.051,8.332,8.332,0,0,1,1.867,5.815v1.728H431.97a3.932,3.932,0,0,0,1.238,2.491,3.74,3.74,0,0,0,2.614.937,4.572,4.572,0,0,0,3.824-1.772l2.08,2.329a6.363,6.363,0,0,1-2.579,2.1A8.456,8.456,0,0,1,435.544,110.113Zm-.483-13.022a2.643,2.643,0,0,0-2.043.853,4.415,4.415,0,0,0-1,2.443H437.9v-.339a3.15,3.15,0,0,0-.761-2.185A2.73,2.73,0,0,0,435.061,97.091Z"/><path d="M453.371,97.94a11.516,11.516,0,0,0-1.523-.117q-2.4,0-3.15,1.626V109.82h-4.233V93.971h4l.117,1.889a3.922,3.922,0,0,1,3.53-2.182,4.437,4.437,0,0,1,1.319.19Z"/><path d="M462.424,110.113a7.783,7.783,0,0,1-5.676-2.138,7.6,7.6,0,0,1-2.19-5.7v-.41a9.577,9.577,0,0,1,.922-4.27,6.78,6.78,0,0,1,2.616-2.9,7.334,7.334,0,0,1,3.859-1.018,6.576,6.576,0,0,1,5.12,2.051,8.332,8.332,0,0,1,1.867,5.815v1.728H458.85a3.927,3.927,0,0,0,1.238,2.491,3.738,3.738,0,0,0,2.614.937,4.57,4.57,0,0,0,3.823-1.772l2.08,2.329a6.354,6.354,0,0,1-2.578,2.1A8.456,8.456,0,0,1,462.424,110.113Zm-.484-13.022a2.646,2.646,0,0,0-2.043.853,4.422,4.422,0,0,0-1,2.443h5.888v-.339a3.15,3.15,0,0,0-.761-2.185A2.731,2.731,0,0,0,461.94,97.091Z"/><path d="M475.241,93.971l.132,1.831a5.534,5.534,0,0,1,4.556-2.124,4.6,4.6,0,0,1,3.75,1.479,6.9,6.9,0,0,1,1.259,4.424V109.82h-4.233V99.684a2.744,2.744,0,0,0-.586-1.956,2.623,2.623,0,0,0-1.948-.608,2.912,2.912,0,0,0-2.681,1.524V109.82h-4.233V93.971Z"/><path d="M494.738,106.7a2.781,2.781,0,0,0,1.9-.644,2.257,2.257,0,0,0,.761-1.714h3.97a5.431,5.431,0,0,1-.879,2.951,5.8,5.8,0,0,1-2.365,2.081,7.409,7.409,0,0,1-3.318.739,6.883,6.883,0,0,1-5.362-2.16,8.556,8.556,0,0,1-1.963-5.97v-.278a8.453,8.453,0,0,1,1.949-5.845,6.8,6.8,0,0,1,5.346-2.182,6.669,6.669,0,0,1,4.769,1.692,5.992,5.992,0,0,1,1.823,4.5H497.4a2.908,2.908,0,0,0-.761-2.01,2.831,2.831,0,0,0-4.167.3,6.248,6.248,0,0,0-.755,3.5v.44a6.325,6.325,0,0,0,.747,3.521A2.581,2.581,0,0,0,494.738,106.7Z"/><path d="M511.086,110.113a7.783,7.783,0,0,1-5.676-2.138,7.6,7.6,0,0,1-2.19-5.7v-.41a9.564,9.564,0,0,1,.923-4.27,6.771,6.771,0,0,1,2.615-2.9,7.334,7.334,0,0,1,3.859-1.018,6.576,6.576,0,0,1,5.12,2.051,8.332,8.332,0,0,1,1.867,5.815v1.728H507.512a3.932,3.932,0,0,0,1.238,2.491,3.74,3.74,0,0,0,2.614.937,4.572,4.572,0,0,0,3.824-1.772l2.08,2.329a6.363,6.363,0,0,1-2.579,2.1A8.456,8.456,0,0,1,511.086,110.113ZM510.6,97.091a2.643,2.643,0,0,0-2.043.853,4.415,4.415,0,0,0-1,2.443h5.888v-.339a3.15,3.15,0,0,0-.761-2.185A2.73,2.73,0,0,0,510.6,97.091Z"/><path d="M545.114,109.82H540.72v-9.14h-8.57v9.14h-4.394V88.492h4.394v8.643h8.57V88.492h4.394Z"/><path d="M557.858,109.82a4.682,4.682,0,0,1-.424-1.421,5.123,5.123,0,0,1-4,1.714,5.63,5.63,0,0,1-3.86-1.347,4.338,4.338,0,0,1-1.531-3.4,4.479,4.479,0,0,1,1.868-3.867,9.212,9.212,0,0,1,5.4-1.362h1.948v-.909a2.609,2.609,0,0,0-.564-1.757,2.217,2.217,0,0,0-1.78-.66,2.522,2.522,0,0,0-1.677.513,1.743,1.743,0,0,0-.608,1.406H548.4a4.252,4.252,0,0,1,.849-2.548,5.62,5.62,0,0,1,2.4-1.839,8.767,8.767,0,0,1,3.487-.666,6.914,6.914,0,0,1,4.651,1.472,5.148,5.148,0,0,1,1.721,4.138v6.87a7.58,7.58,0,0,0,.63,3.413v.249Zm-3.5-2.944a3.639,3.639,0,0,0,1.729-.418,2.74,2.74,0,0,0,1.172-1.12v-2.725h-1.582q-3.179,0-3.384,2.2l-.015.249a1.7,1.7,0,0,0,.557,1.3A2.161,2.161,0,0,0,554.357,106.876Z"/><path d="M579.025,102.042a9.5,9.5,0,0,1-1.662,5.867,5.332,5.332,0,0,1-4.49,2.2,4.936,4.936,0,0,1-3.882-1.67v7.471h-4.233V93.971h3.926l.146,1.552a4.976,4.976,0,0,1,4.014-1.845,5.364,5.364,0,0,1,4.555,2.168,9.761,9.761,0,0,1,1.626,5.976Zm-4.233-.308a6.244,6.244,0,0,0-.783-3.413,2.556,2.556,0,0,0-2.279-1.2,2.772,2.772,0,0,0-2.739,1.524v6.489a2.82,2.82,0,0,0,2.769,1.567Q574.791,106.7,574.792,101.734Z"/><path d="M595.915,102.042a9.511,9.511,0,0,1-1.662,5.867,5.333,5.333,0,0,1-4.49,2.2,4.935,4.935,0,0,1-3.882-1.67v7.471h-4.234V93.971h3.926l.147,1.552a4.975,4.975,0,0,1,4.013-1.845,5.365,5.365,0,0,1,4.556,2.168,9.761,9.761,0,0,1,1.626,5.976Zm-4.233-.308a6.235,6.235,0,0,0-.784-3.413,2.554,2.554,0,0,0-2.278-1.2,2.772,2.772,0,0,0-2.739,1.524v6.489a2.818,2.818,0,0,0,2.768,1.567Q591.682,106.7,591.682,101.734Z"/><path d="M605.833,110.113a7.784,7.784,0,0,1-5.677-2.138,7.6,7.6,0,0,1-2.19-5.7v-.41a9.564,9.564,0,0,1,.923-4.27,6.771,6.771,0,0,1,2.615-2.9,7.335,7.335,0,0,1,3.86-1.018,6.575,6.575,0,0,1,5.119,2.051,8.332,8.332,0,0,1,1.868,5.815v1.728H602.258a3.936,3.936,0,0,0,1.238,2.491,3.742,3.742,0,0,0,2.614.937,4.574,4.574,0,0,0,3.825-1.772l2.08,2.329a6.36,6.36,0,0,1-2.578,2.1A8.461,8.461,0,0,1,605.833,110.113Zm-.484-13.022a2.643,2.643,0,0,0-2.043.853,4.415,4.415,0,0,0-1,2.443h5.888v-.339a3.15,3.15,0,0,0-.761-2.185A2.73,2.73,0,0,0,605.349,97.091Z"/><path d="M618.65,93.971l.132,1.831a5.535,5.535,0,0,1,4.556-2.124,4.6,4.6,0,0,1,3.75,1.479,6.909,6.909,0,0,1,1.26,4.424V109.82h-4.234V99.684a2.744,2.744,0,0,0-.586-1.956,2.623,2.623,0,0,0-1.948-.608,2.913,2.913,0,0,0-2.681,1.524V109.82h-4.233V93.971Z"/><path d="M640.139,105.44a1.366,1.366,0,0,0-.769-1.223,8.74,8.74,0,0,0-2.469-.8q-5.654-1.186-5.654-4.8A4.356,4.356,0,0,1,633,95.091a7.064,7.064,0,0,1,4.578-1.413A7.593,7.593,0,0,1,642.4,95.1a4.477,4.477,0,0,1,1.81,3.691h-4.233a2.05,2.05,0,0,0-.586-1.5,2.478,2.478,0,0,0-1.831-.594,2.532,2.532,0,0,0-1.656.484,1.527,1.527,0,0,0-.586,1.23,1.3,1.3,0,0,0,.666,1.135,6.848,6.848,0,0,0,2.249.748,18.172,18.172,0,0,1,2.666.71q3.356,1.23,3.355,4.263a4.135,4.135,0,0,1-1.86,3.508,8.024,8.024,0,0,1-4.8,1.34,8.393,8.393,0,0,1-3.538-.71,5.934,5.934,0,0,1-2.424-1.948,4.53,4.53,0,0,1-.879-2.674h4.014a2.21,2.21,0,0,0,.835,1.729,3.313,3.313,0,0,0,2.08.6,3.068,3.068,0,0,0,1.839-.461A1.439,1.439,0,0,0,640.139,105.44Z"/><path d="M671.341,103.668l2.871-15.176h4.38L673.86,109.82h-4.423l-3.472-14.267-3.472,14.267h-4.424l-4.731-21.328h4.38l2.886,15.147,3.515-15.147h3.721Z"/><path d="M684.816,95.7a5.287,5.287,0,0,1,4.234-2.021q5.156,0,5.229,5.991V109.82h-4.233V99.786a2.943,2.943,0,0,0-.586-2.014,2.511,2.511,0,0,0-1.948-.652,2.882,2.882,0,0,0-2.7,1.436V109.82h-4.233V87.32h4.233Z"/><path d="M704.768,110.113a7.784,7.784,0,0,1-5.677-2.138,7.6,7.6,0,0,1-2.19-5.7v-.41a9.577,9.577,0,0,1,.923-4.27,6.782,6.782,0,0,1,2.614-2.9,7.344,7.344,0,0,1,3.861-1.018,6.577,6.577,0,0,1,5.12,2.051,8.336,8.336,0,0,1,1.867,5.815v1.728H701.193a3.936,3.936,0,0,0,1.238,2.491,3.742,3.742,0,0,0,2.615.937,4.57,4.57,0,0,0,3.823-1.772l2.08,2.329a6.36,6.36,0,0,1-2.578,2.1A8.456,8.456,0,0,1,704.768,110.113Zm-.484-13.022a2.643,2.643,0,0,0-2.043.853,4.422,4.422,0,0,0-1,2.443h5.889v-.339a3.15,3.15,0,0,0-.762-2.185A2.728,2.728,0,0,0,704.284,97.091Z"/><path d="M717.586,93.971l.132,1.831a5.533,5.533,0,0,1,4.555-2.124,4.6,4.6,0,0,1,3.75,1.479,6.9,6.9,0,0,1,1.26,4.424V109.82H723.05V99.684a2.749,2.749,0,0,0-.586-1.956,2.624,2.624,0,0,0-1.948-.608,2.912,2.912,0,0,0-2.681,1.524V109.82H713.6V93.971Z"/><path d="M753.415,92.052h-6.533V109.82h-4.395V92.052h-6.445v-3.56h17.373Z"/><path d="M768.737,104.063l2.08-10.092H774.9l-4.043,15.849h-3.545l-3-9.975-3,9.975H757.78l-4.043-15.849h4.087l2.066,10.078,2.9-10.078h3.062Z"/><path d="M776.341,101.749a9.4,9.4,0,0,1,.908-4.2,6.644,6.644,0,0,1,2.615-2.857,7.633,7.633,0,0,1,3.962-1.01,7.216,7.216,0,0,1,5.237,1.963,7.878,7.878,0,0,1,2.263,5.332l.029,1.084a8.283,8.283,0,0,1-2.036,5.852,7.893,7.893,0,0,1-10.935.007,8.432,8.432,0,0,1-2.043-5.977Zm4.233.3a5.916,5.916,0,0,0,.85,3.455,3.052,3.052,0,0,0,4.834.015,6.481,6.481,0,0,0,.864-3.777,5.865,5.865,0,0,0-.864-3.433,2.809,2.809,0,0,0-2.432-1.218,2.762,2.762,0,0,0-2.4,1.21A6.586,6.586,0,0,0,780.574,102.049Z"/><path d="M816.888,92.052h-6.534V109.82H805.96V92.052h-6.445v-3.56h17.373Z"/><path d="M827.068,97.94a11.516,11.516,0,0,0-1.523-.117q-2.4,0-3.149,1.626V109.82h-4.234V93.971h4l.117,1.889a3.923,3.923,0,0,1,3.531-2.182,4.435,4.435,0,0,1,1.318.19Z"/><path d="M827.917,101.749a9.4,9.4,0,0,1,.908-4.2,6.65,6.65,0,0,1,2.615-2.857,7.633,7.633,0,0,1,3.962-1.01,7.22,7.22,0,0,1,5.238,1.963,7.882,7.882,0,0,1,2.262,5.332l.03,1.084a8.287,8.287,0,0,1-2.036,5.852,7.894,7.894,0,0,1-10.936.007,8.436,8.436,0,0,1-2.043-5.977Zm4.233.3A5.923,5.923,0,0,0,833,105.5a3.052,3.052,0,0,0,4.834.015,6.481,6.481,0,0,0,.864-3.777,5.865,5.865,0,0,0-.864-3.433,2.809,2.809,0,0,0-2.432-1.218A2.762,2.762,0,0,0,833,98.3,6.594,6.594,0,0,0,832.15,102.049Z"/><path d="M855.031,108.209a5.307,5.307,0,0,1-4.336,1.9,5.006,5.006,0,0,1-3.889-1.465,6.252,6.252,0,0,1-1.369-4.292V93.971h4.233v10.251q0,2.478,2.256,2.478a3.056,3.056,0,0,0,2.959-1.5V93.971h4.248V109.82h-3.985Z"/><path d="M861.711,101.778a9.3,9.3,0,0,1,1.735-5.874,5.627,5.627,0,0,1,4.681-2.226,4.932,4.932,0,0,1,4.058,1.787l.175-1.494H876.2v15.322a6.762,6.762,0,0,1-.945,3.618,6.061,6.061,0,0,1-2.658,2.344,9.352,9.352,0,0,1-4.014.806,8.685,8.685,0,0,1-3.4-.7,6.023,6.023,0,0,1-2.5-1.8l1.875-2.578a4.957,4.957,0,0,0,3.838,1.773,3.632,3.632,0,0,0,2.622-.9,3.38,3.38,0,0,0,.937-2.556v-.85a4.894,4.894,0,0,1-3.852,1.655,5.607,5.607,0,0,1-4.622-2.234,9.283,9.283,0,0,1-1.765-5.925Zm4.233.315a5.777,5.777,0,0,0,.865,3.382,2.748,2.748,0,0,0,2.373,1.225,2.938,2.938,0,0,0,2.768-1.452V98.573a2.931,2.931,0,0,0-2.739-1.453,2.769,2.769,0,0,0-2.4,1.247A6.522,6.522,0,0,0,865.944,102.093Z"/><path d="M883.582,95.7a5.285,5.285,0,0,1,4.233-2.021q5.157,0,5.23,5.991V109.82h-4.233V99.786a2.948,2.948,0,0,0-.586-2.014,2.512,2.512,0,0,0-1.949-.652,2.882,2.882,0,0,0-2.7,1.436V109.82h-4.233V87.32h4.233Z"/><path d="M904.822,105.44a1.367,1.367,0,0,0-.768-1.223,8.74,8.74,0,0,0-2.469-.8q-5.655-1.186-5.654-4.8a4.356,4.356,0,0,1,1.75-3.523,7.064,7.064,0,0,1,4.578-1.413,7.593,7.593,0,0,1,4.826,1.421,4.477,4.477,0,0,1,1.81,3.691h-4.234a2.046,2.046,0,0,0-.586-1.5,2.477,2.477,0,0,0-1.831-.594,2.527,2.527,0,0,0-1.655.484,1.524,1.524,0,0,0-.586,1.23,1.3,1.3,0,0,0,.666,1.135,6.83,6.83,0,0,0,2.249.748,18.207,18.207,0,0,1,2.666.71q3.354,1.23,3.354,4.263a4.135,4.135,0,0,1-1.86,3.508,8.022,8.022,0,0,1-4.8,1.34,8.4,8.4,0,0,1-3.538-.71,5.931,5.931,0,0,1-2.423-1.948,4.53,4.53,0,0,1-.879-2.674h4.013a2.214,2.214,0,0,0,.835,1.729,3.315,3.315,0,0,0,2.08.6,3.066,3.066,0,0,0,1.839-.461A1.439,1.439,0,0,0,904.822,105.44Z"/><path d="M925.153,88.492l5.479,15.469,5.449-15.469h5.772V109.82h-4.41v-5.83l.44-10.063-5.757,15.893h-3.018l-5.742-15.879.44,10.049v5.83h-4.4V88.492Z"/><path d="M952.707,110.113a7.786,7.786,0,0,1-5.677-2.138,7.6,7.6,0,0,1-2.189-5.7v-.41a9.564,9.564,0,0,1,.923-4.27,6.775,6.775,0,0,1,2.614-2.9,7.34,7.34,0,0,1,3.86-1.018,6.577,6.577,0,0,1,5.12,2.051,8.332,8.332,0,0,1,1.868,5.815v1.728H949.133a3.94,3.94,0,0,0,1.237,2.491,3.746,3.746,0,0,0,2.615.937,4.572,4.572,0,0,0,3.824-1.772l2.08,2.329a6.36,6.36,0,0,1-2.578,2.1A8.461,8.461,0,0,1,952.707,110.113Zm-.483-13.022a2.641,2.641,0,0,0-2.043.853,4.408,4.408,0,0,0-1,2.443h5.888v-.339a3.15,3.15,0,0,0-.761-2.185A2.73,2.73,0,0,0,952.224,97.091Z"/><path d="M968.924,110.113a7.786,7.786,0,0,1-5.677-2.138,7.6,7.6,0,0,1-2.189-5.7v-.41a9.577,9.577,0,0,1,.922-4.27,6.784,6.784,0,0,1,2.615-2.9,7.34,7.34,0,0,1,3.86-1.018,6.577,6.577,0,0,1,5.12,2.051,8.336,8.336,0,0,1,1.867,5.815v1.728H965.35a3.931,3.931,0,0,0,1.237,2.491,3.742,3.742,0,0,0,2.615.937,4.57,4.57,0,0,0,3.823-1.772l2.08,2.329a6.354,6.354,0,0,1-2.578,2.1A8.456,8.456,0,0,1,968.924,110.113Zm-.484-13.022a2.644,2.644,0,0,0-2.043.853,4.415,4.415,0,0,0-1,2.443h5.888v-.339a3.15,3.15,0,0,0-.761-2.185A2.731,2.731,0,0,0,968.44,97.091Z"/><path d="M982.912,90.074v3.9h2.71v3.1h-2.71v7.91a1.887,1.887,0,0,0,.337,1.26,1.692,1.692,0,0,0,1.289.381,6.687,6.687,0,0,0,1.245-.1v3.208a8.708,8.708,0,0,1-2.563.381q-4.454,0-4.541-4.5v-8.54h-2.315v-3.1h2.315v-3.9Z"/><line class="e" x1="614.262" y1="511.638" x2="679.275" y2="498.847"/><path d="M156.859,252.155V235.092h5.579a6.471,6.471,0,0,1,4.177,1.149,4.137,4.137,0,0,1,1.4,3.4,3.465,3.465,0,0,1-.68,2.115,4.4,4.4,0,0,1-1.852,1.424,3.957,3.957,0,0,1,2.186,1.471,4.223,4.223,0,0,1,.8,2.584,4.561,4.561,0,0,1-1.489,3.609,6.154,6.154,0,0,1-4.207,1.313Zm2.25-9.785h3.4a3.564,3.564,0,0,0,2.361-.74,2.48,2.48,0,0,0,.885-2.008,2.443,2.443,0,0,0-.82-2.05,4.033,4.033,0,0,0-2.5-.64h-3.329Zm0,1.8v6.141h3.715a3.579,3.579,0,0,0,2.479-.815,2.86,2.86,0,0,0,.908-2.244q0-3.081-3.352-3.082Z"/><path d="M176.723,252.389a5.54,5.54,0,0,1-4.2-1.693,6.286,6.286,0,0,1-1.617-4.529v-.4a7.6,7.6,0,0,1,.721-3.369,5.616,5.616,0,0,1,2.015-2.32,5.067,5.067,0,0,1,2.807-.838,4.748,4.748,0,0,1,3.844,1.629,7.052,7.052,0,0,1,1.371,4.664v.9h-8.59a4.505,4.505,0,0,0,1.1,3.029,3.443,3.443,0,0,0,2.666,1.155,3.781,3.781,0,0,0,1.945-.469,4.917,4.917,0,0,0,1.4-1.242l1.324,1.031A5.324,5.324,0,0,1,176.723,252.389Zm-.27-11.367a2.891,2.891,0,0,0-2.2.955,4.643,4.643,0,0,0-1.1,2.678H179.5v-.164a4.123,4.123,0,0,0-.891-2.561A2.723,2.723,0,0,0,176.453,241.022Z"/><path d="M185.242,252.155v-11h-2v-1.676h2v-1.3a4.315,4.315,0,0,1,1.09-3.152,4.118,4.118,0,0,1,3.082-1.113,5.761,5.761,0,0,1,1.488.2l-.117,1.748a6.254,6.254,0,0,0-1.172-.105,2.117,2.117,0,0,0-1.629.617,2.505,2.505,0,0,0-.574,1.769v1.34h2.707v1.676H187.41v11Z"/><path d="M191.934,245.7a7.5,7.5,0,0,1,.732-3.352,5.463,5.463,0,0,1,2.039-2.3,5.551,5.551,0,0,1,2.983-.808,5.344,5.344,0,0,1,4.189,1.793,6.9,6.9,0,0,1,1.6,4.769v.153a7.565,7.565,0,0,1-.709,3.322,5.39,5.39,0,0,1-2.028,2.291,5.611,5.611,0,0,1-3.029.82,5.333,5.333,0,0,1-4.178-1.793,6.864,6.864,0,0,1-1.6-4.746Zm2.179.258a5.418,5.418,0,0,0,.979,3.386,3.315,3.315,0,0,0,5.244-.017,5.938,5.938,0,0,0,.973-3.627,5.409,5.409,0,0,0-.991-3.381,3.148,3.148,0,0,0-2.63-1.3,3.113,3.113,0,0,0-2.59,1.277A5.886,5.886,0,0,0,194.113,245.956Z"/><path d="M212.324,241.42a6.565,6.565,0,0,0-1.066-.082,2.858,2.858,0,0,0-2.9,1.817v9H206.2v-12.68h2.11l.035,1.465a3.375,3.375,0,0,1,3.023-1.7,2.206,2.206,0,0,1,.961.164Z"/><path d="M219.355,252.389a5.54,5.54,0,0,1-4.195-1.693,6.286,6.286,0,0,1-1.617-4.529v-.4a7.6,7.6,0,0,1,.721-3.369,5.616,5.616,0,0,1,2.015-2.32,5.067,5.067,0,0,1,2.807-.838,4.75,4.75,0,0,1,3.844,1.629,7.052,7.052,0,0,1,1.371,4.664v.9h-8.59a4.5,4.5,0,0,0,1.1,3.029,3.443,3.443,0,0,0,2.666,1.155,3.781,3.781,0,0,0,1.945-.469,4.9,4.9,0,0,0,1.394-1.242l1.325,1.031A5.326,5.326,0,0,1,219.355,252.389Zm-.269-11.367a2.891,2.891,0,0,0-2.2.955,4.643,4.643,0,0,0-1.1,2.678h6.352v-.164a4.135,4.135,0,0,0-.891-2.561A2.723,2.723,0,0,0,219.086,241.022Z"/><path d="M232.762,236.112a1.293,1.293,0,0,1,.322-.891,1.21,1.21,0,0,1,.955-.363,1.23,1.23,0,0,1,.961.363,1.279,1.279,0,0,1,.328.891,1.239,1.239,0,0,1-.328.879,1.253,1.253,0,0,1-.961.351,1.233,1.233,0,0,1-.955-.351A1.253,1.253,0,0,1,232.762,236.112Zm2.343,16.043h-2.167v-12.68h2.167Z"/><path d="M240.625,239.475l.07,1.594a4.621,4.621,0,0,1,3.8-1.828q4.02,0,4.055,4.535v8.379h-2.168v-8.391a2.919,2.919,0,0,0-.627-2.027,2.511,2.511,0,0,0-1.916-.656,3.132,3.132,0,0,0-1.852.562,3.819,3.819,0,0,0-1.242,1.477v9.035h-2.168v-12.68Z"/><path d="M254.758,236.405v3.07h2.367v1.676h-2.367v7.873a1.758,1.758,0,0,0,.316,1.144,1.333,1.333,0,0,0,1.078.381,5.308,5.308,0,0,0,1.032-.14v1.747a6.3,6.3,0,0,1-1.664.233,2.7,2.7,0,0,1-2.192-.879,3.777,3.777,0,0,1-.738-2.5v-7.863h-2.309v-1.676h2.309v-3.07Z"/><path d="M264.918,252.389a5.538,5.538,0,0,1-4.195-1.693,6.286,6.286,0,0,1-1.618-4.529v-.4a7.613,7.613,0,0,1,.721-3.369,5.626,5.626,0,0,1,2.016-2.32,5.064,5.064,0,0,1,2.806-.838,4.748,4.748,0,0,1,3.844,1.629,7.052,7.052,0,0,1,1.371,4.664v.9h-8.59a4.51,4.51,0,0,0,1.1,3.029,3.443,3.443,0,0,0,2.666,1.155,3.778,3.778,0,0,0,1.945-.469,4.89,4.89,0,0,0,1.395-1.242l1.324,1.031A5.323,5.323,0,0,1,264.918,252.389Zm-.27-11.367a2.891,2.891,0,0,0-2.2.955,4.643,4.643,0,0,0-1.1,2.678H267.7v-.164a4.129,4.129,0,0,0-.89-2.561A2.726,2.726,0,0,0,264.648,241.022Z"/><path d="M278.5,241.42a6.574,6.574,0,0,0-1.066-.082,2.858,2.858,0,0,0-2.9,1.817v9h-2.168v-12.68h2.109l.036,1.465a3.374,3.374,0,0,1,3.023-1.7,2.206,2.206,0,0,1,.961.164Z"/><path d="M281.734,252.155v-11h-2v-1.676h2v-1.3a4.32,4.32,0,0,1,1.09-3.152,4.118,4.118,0,0,1,3.082-1.113,5.774,5.774,0,0,1,1.489.2l-.118,1.748a6.246,6.246,0,0,0-1.172-.105,2.114,2.114,0,0,0-1.628.617,2.5,2.5,0,0,0-.575,1.769v1.34h2.707v1.676H283.9v11Z"/><path d="M293.98,252.389a5.54,5.54,0,0,1-4.195-1.693,6.286,6.286,0,0,1-1.617-4.529v-.4a7.6,7.6,0,0,1,.721-3.369,5.616,5.616,0,0,1,2.015-2.32,5.067,5.067,0,0,1,2.807-.838,4.75,4.75,0,0,1,3.844,1.629,7.052,7.052,0,0,1,1.371,4.664v.9h-8.59a4.5,4.5,0,0,0,1.1,3.029,3.443,3.443,0,0,0,2.666,1.155,3.781,3.781,0,0,0,1.945-.469,4.917,4.917,0,0,0,1.395-1.242l1.324,1.031A5.326,5.326,0,0,1,293.98,252.389Zm-.269-11.367a2.891,2.891,0,0,0-2.2.955,4.643,4.643,0,0,0-1.1,2.678h6.352v-.164a4.135,4.135,0,0,0-.891-2.561A2.723,2.723,0,0,0,293.711,241.022Z"/><path d="M307.562,241.42a6.565,6.565,0,0,0-1.066-.082,2.856,2.856,0,0,0-2.894,1.817v9h-2.168v-12.68h2.109l.035,1.465a3.376,3.376,0,0,1,3.024-1.7,2.2,2.2,0,0,1,.96.164Z"/><path d="M314.594,252.389a5.542,5.542,0,0,1-4.2-1.693,6.286,6.286,0,0,1-1.617-4.529v-.4a7.6,7.6,0,0,1,.721-3.369,5.612,5.612,0,0,1,2.016-2.32,5.061,5.061,0,0,1,2.806-.838,4.748,4.748,0,0,1,3.844,1.629,7.052,7.052,0,0,1,1.371,4.664v.9h-8.59a4.505,4.505,0,0,0,1.1,3.029,3.443,3.443,0,0,0,2.666,1.155,3.778,3.778,0,0,0,1.945-.469,4.9,4.9,0,0,0,1.395-1.242l1.324,1.031A5.324,5.324,0,0,1,314.594,252.389Zm-.27-11.367a2.891,2.891,0,0,0-2.2.955,4.636,4.636,0,0,0-1.1,2.678h6.351v-.164a4.123,4.123,0,0,0-.891-2.561A2.723,2.723,0,0,0,314.324,241.022Z"/><path d="M324.1,239.475l.07,1.594a4.62,4.62,0,0,1,3.8-1.828q4.02,0,4.055,4.535v8.379h-2.168v-8.391a2.919,2.919,0,0,0-.627-2.027,2.512,2.512,0,0,0-1.916-.656,3.127,3.127,0,0,0-1.852.562,3.819,3.819,0,0,0-1.242,1.477v9.035h-2.168v-12.68Z"/><path d="M340.375,250.62a3.126,3.126,0,0,0,2.027-.7,2.474,2.474,0,0,0,.961-1.758h2.051a3.931,3.931,0,0,1-.75,2.074,4.933,4.933,0,0,1-1.846,1.57,5.319,5.319,0,0,1-2.443.586,5.222,5.222,0,0,1-4.119-1.728,6.885,6.885,0,0,1-1.529-4.729v-.363a7.634,7.634,0,0,1,.679-3.293,5.177,5.177,0,0,1,1.951-2.238,5.538,5.538,0,0,1,3.006-.8,5.087,5.087,0,0,1,3.545,1.277,4.562,4.562,0,0,1,1.506,3.316h-2.051a2.986,2.986,0,0,0-.931-2.021,2.9,2.9,0,0,0-2.069-.791,3.033,3.033,0,0,0-2.56,1.189,5.584,5.584,0,0,0-.908,3.44v.41a5.472,5.472,0,0,0,.9,3.375A3.049,3.049,0,0,0,340.375,250.62Z"/><path d="M353.113,252.389a5.54,5.54,0,0,1-4.195-1.693,6.286,6.286,0,0,1-1.617-4.529v-.4a7.613,7.613,0,0,1,.72-3.369,5.626,5.626,0,0,1,2.016-2.32,5.065,5.065,0,0,1,2.807-.838,4.751,4.751,0,0,1,3.844,1.629,7.052,7.052,0,0,1,1.371,4.664v.9h-8.59a4.5,4.5,0,0,0,1.1,3.029,3.444,3.444,0,0,0,2.666,1.155,3.782,3.782,0,0,0,1.946-.469,4.9,4.9,0,0,0,1.394-1.242l1.325,1.031A5.326,5.326,0,0,1,353.113,252.389Zm-.269-11.367a2.889,2.889,0,0,0-2.2.955,4.643,4.643,0,0,0-1.1,2.678h6.352v-.164A4.135,4.135,0,0,0,355,241.93,2.723,2.723,0,0,0,352.844,241.022Z"/><path d="M155.118,371.381V354.318h4.817a7.746,7.746,0,0,1,3.937.985,6.654,6.654,0,0,1,2.643,2.8,9.114,9.114,0,0,1,.943,4.171v1.09a9.15,9.15,0,0,1-.932,4.231,6.551,6.551,0,0,1-2.66,2.789,8.254,8.254,0,0,1-4.025,1Zm2.25-15.223v13.383h2.367a5.15,5.15,0,0,0,4.049-1.618,6.688,6.688,0,0,0,1.447-4.61v-1a6.793,6.793,0,0,0-1.365-4.521,4.86,4.86,0,0,0-3.873-1.637Z"/><path d="M178.345,370.127a4.606,4.606,0,0,1-3.715,1.488,3.941,3.941,0,0,1-3.088-1.177,5.1,5.1,0,0,1-1.072-3.487V358.7h2.168v8.192q0,2.882,2.343,2.882a3.245,3.245,0,0,0,3.305-1.851V358.7h2.168v12.68h-2.062Z"/><path d="M189.876,360.646a6.574,6.574,0,0,0-1.066-.082,2.858,2.858,0,0,0-2.9,1.817v9h-2.168V358.7h2.109l.036,1.465a3.374,3.374,0,0,1,3.023-1.7,2.206,2.206,0,0,1,.961.164Z"/><path d="M191.88,355.338a1.293,1.293,0,0,1,.322-.891,1.21,1.21,0,0,1,.955-.363,1.23,1.23,0,0,1,.961.363,1.279,1.279,0,0,1,.328.891,1.239,1.239,0,0,1-.328.879,1.253,1.253,0,0,1-.961.351,1.233,1.233,0,0,1-.955-.351A1.253,1.253,0,0,1,191.88,355.338Zm2.344,16.043h-2.168V358.7h2.168Z"/><path d="M199.743,358.7l.07,1.594a4.621,4.621,0,0,1,3.8-1.828q4.02,0,4.055,4.535v8.379H205.5V362.99a2.919,2.919,0,0,0-.627-2.027,2.511,2.511,0,0,0-1.916-.656,3.127,3.127,0,0,0-1.851.562,3.813,3.813,0,0,0-1.243,1.477v9.035h-2.168V358.7Z"/><path d="M210.419,364.936a7.452,7.452,0,0,1,1.371-4.717,4.728,4.728,0,0,1,7.254-.112l.1-1.406h1.981v12.375a5.156,5.156,0,0,1-1.459,3.879,5.386,5.386,0,0,1-3.92,1.418,6.518,6.518,0,0,1-2.684-.586,4.627,4.627,0,0,1-2-1.6l1.125-1.3A4.243,4.243,0,0,0,215.6,374.6a3.319,3.319,0,0,0,2.466-.891,3.4,3.4,0,0,0,.885-2.508v-1.09a4.456,4.456,0,0,1-3.551,1.5,4.329,4.329,0,0,1-3.6-1.793A7.833,7.833,0,0,1,210.419,364.936Zm2.18.246a5.687,5.687,0,0,0,.879,3.369,2.854,2.854,0,0,0,2.46,1.224,3.175,3.175,0,0,0,3.012-1.863v-5.789a3.212,3.212,0,0,0-2.988-1.816,2.882,2.882,0,0,0-2.473,1.23A6.2,6.2,0,0,0,212.6,365.182Z"/><path d="M230.353,355.338a1.293,1.293,0,0,1,.322-.891,1.21,1.21,0,0,1,.955-.363,1.23,1.23,0,0,1,.961.363,1.279,1.279,0,0,1,.328.891,1.239,1.239,0,0,1-.328.879,1.253,1.253,0,0,1-.961.351,1.233,1.233,0,0,1-.955-.351A1.253,1.253,0,0,1,230.353,355.338Zm2.343,16.043h-2.168V358.7H232.7Z"/><path d="M238.216,358.7l.07,1.594a4.621,4.621,0,0,1,3.8-1.828q4.02,0,4.055,4.535v8.379H243.97V362.99a2.919,2.919,0,0,0-.627-2.027,2.511,2.511,0,0,0-1.916-.656,3.13,3.13,0,0,0-1.852.562,3.819,3.819,0,0,0-1.242,1.477v9.035h-2.168V358.7Z"/><path d="M252.349,355.631v3.07h2.367v1.676h-2.367v7.873a1.761,1.761,0,0,0,.316,1.145,1.335,1.335,0,0,0,1.078.38,5.213,5.213,0,0,0,1.031-.14v1.748a6.329,6.329,0,0,1-1.664.232,2.7,2.7,0,0,1-2.191-.879,3.777,3.777,0,0,1-.738-2.5v-7.863h-2.309V358.7h2.309v-3.07Z"/><path d="M262.509,371.615a5.542,5.542,0,0,1-4.2-1.693,6.286,6.286,0,0,1-1.617-4.529v-.4a7.613,7.613,0,0,1,.721-3.369,5.612,5.612,0,0,1,2.016-2.32,5.061,5.061,0,0,1,2.806-.838,4.748,4.748,0,0,1,3.844,1.629,7.052,7.052,0,0,1,1.371,4.664v.9h-8.59a4.51,4.51,0,0,0,1.1,3.029,3.443,3.443,0,0,0,2.666,1.155,3.778,3.778,0,0,0,1.945-.469,4.9,4.9,0,0,0,1.395-1.242l1.324,1.031A5.323,5.323,0,0,1,262.509,371.615Zm-.27-11.367a2.891,2.891,0,0,0-2.2.955,4.636,4.636,0,0,0-1.1,2.678h6.351v-.164a4.129,4.129,0,0,0-.89-2.561A2.726,2.726,0,0,0,262.239,360.248Z"/><path d="M276.091,360.646a6.578,6.578,0,0,0-1.067-.082,2.857,2.857,0,0,0-2.894,1.817v9h-2.168V358.7h2.109l.035,1.465a3.376,3.376,0,0,1,3.024-1.7,2.206,2.206,0,0,1,.961.164Z"/><path d="M279.325,371.381v-11h-2V358.7h2v-1.3a4.315,4.315,0,0,1,1.09-3.152,4.118,4.118,0,0,1,3.082-1.113,5.719,5.719,0,0,1,1.488.2l-.117,1.747a6.254,6.254,0,0,0-1.172-.1,2.117,2.117,0,0,0-1.629.617,2.509,2.509,0,0,0-.574,1.769v1.34H284.2v1.676h-2.707v11Z"/><path d="M291.571,371.615a5.54,5.54,0,0,1-4.2-1.693,6.286,6.286,0,0,1-1.617-4.529v-.4a7.613,7.613,0,0,1,.72-3.369,5.626,5.626,0,0,1,2.016-2.32,5.065,5.065,0,0,1,2.807-.838,4.751,4.751,0,0,1,3.844,1.629,7.052,7.052,0,0,1,1.371,4.664v.9h-8.59a4.5,4.5,0,0,0,1.095,3.029,3.444,3.444,0,0,0,2.666,1.155,3.782,3.782,0,0,0,1.946-.469,4.9,4.9,0,0,0,1.394-1.242l1.325,1.031A5.326,5.326,0,0,1,291.571,371.615Zm-.269-11.367a2.889,2.889,0,0,0-2.2.955,4.643,4.643,0,0,0-1.1,2.678h6.352v-.164a4.135,4.135,0,0,0-.891-2.561A2.723,2.723,0,0,0,291.3,360.248Z"/><path d="M305.153,360.646a6.565,6.565,0,0,0-1.066-.082,2.858,2.858,0,0,0-2.895,1.817v9h-2.168V358.7h2.11l.035,1.465a3.375,3.375,0,0,1,3.023-1.7,2.2,2.2,0,0,1,.961.164Z"/><path d="M312.185,371.615a5.54,5.54,0,0,1-4.2-1.693,6.286,6.286,0,0,1-1.617-4.529v-.4a7.6,7.6,0,0,1,.721-3.369,5.616,5.616,0,0,1,2.015-2.32,5.067,5.067,0,0,1,2.807-.838,4.75,4.75,0,0,1,3.844,1.629,7.052,7.052,0,0,1,1.371,4.664v.9h-8.59a4.505,4.505,0,0,0,1.1,3.029,3.443,3.443,0,0,0,2.666,1.155,3.781,3.781,0,0,0,1.945-.469,4.917,4.917,0,0,0,1.395-1.242l1.324,1.031A5.324,5.324,0,0,1,312.185,371.615Zm-.27-11.367a2.891,2.891,0,0,0-2.2.955,4.643,4.643,0,0,0-1.1,2.678h6.352v-.164a4.129,4.129,0,0,0-.891-2.561A2.723,2.723,0,0,0,311.915,360.248Z"/><path d="M321.688,358.7l.071,1.594a4.62,4.62,0,0,1,3.8-1.828q4.019,0,4.054,4.535v8.379h-2.168V362.99a2.909,2.909,0,0,0-.627-2.027,2.509,2.509,0,0,0-1.916-.656,3.127,3.127,0,0,0-1.851.562,3.819,3.819,0,0,0-1.242,1.477v9.035h-2.168V358.7Z"/><path d="M337.966,369.846a3.126,3.126,0,0,0,2.027-.7,2.474,2.474,0,0,0,.961-1.758h2.051a3.931,3.931,0,0,1-.75,2.074,4.933,4.933,0,0,1-1.846,1.57,5.319,5.319,0,0,1-2.443.586,5.222,5.222,0,0,1-4.119-1.728,6.885,6.885,0,0,1-1.53-4.729V364.8A7.637,7.637,0,0,1,333,361.5a5.177,5.177,0,0,1,1.951-2.238,5.538,5.538,0,0,1,3.006-.8,5.087,5.087,0,0,1,3.545,1.277,4.57,4.57,0,0,1,1.506,3.317h-2.051a2.983,2.983,0,0,0-.932-2.022,2.9,2.9,0,0,0-2.068-.791,3.034,3.034,0,0,0-2.56,1.19,5.579,5.579,0,0,0-.909,3.439v.41a5.472,5.472,0,0,0,.9,3.375A3.049,3.049,0,0,0,337.966,369.846Z"/><path d="M350.7,371.615a5.538,5.538,0,0,1-4.195-1.693,6.286,6.286,0,0,1-1.617-4.529v-.4a7.613,7.613,0,0,1,.72-3.369,5.626,5.626,0,0,1,2.016-2.32,5.065,5.065,0,0,1,2.807-.838,4.748,4.748,0,0,1,3.843,1.629,7.052,7.052,0,0,1,1.371,4.664v.9H347.06a4.5,4.5,0,0,0,1.095,3.029,3.443,3.443,0,0,0,2.666,1.155,3.784,3.784,0,0,0,1.946-.469,4.9,4.9,0,0,0,1.394-1.242l1.324,1.031A5.323,5.323,0,0,1,350.7,371.615Zm-.269-11.367a2.893,2.893,0,0,0-2.2.955,4.649,4.649,0,0,0-1.1,2.678h6.351v-.164a4.129,4.129,0,0,0-.89-2.561A2.723,2.723,0,0,0,350.435,360.248Z"/><path d="M163.312,560.788h-7.148l-1.6,4.465h-2.321l6.516-17.063h1.969l6.527,17.063h-2.309Zm-6.468-1.84h5.8l-2.907-7.98Z"/><path d="M170.273,565.253v-11h-2v-1.676h2v-1.3a4.32,4.32,0,0,1,1.09-3.152,4.118,4.118,0,0,1,3.082-1.113,5.732,5.732,0,0,1,1.489.2l-.118,1.747a6.243,6.243,0,0,0-1.171-.105,2.115,2.115,0,0,0-1.629.617,2.5,2.5,0,0,0-.575,1.769v1.34h2.707v1.676h-2.707v11Z"/><path d="M180.48,549.5v3.07h2.368v1.676H180.48v7.873a1.761,1.761,0,0,0,.317,1.145,1.332,1.332,0,0,0,1.078.38,5.213,5.213,0,0,0,1.031-.14v1.748a6.329,6.329,0,0,1-1.664.232,2.7,2.7,0,0,1-2.191-.879,3.777,3.777,0,0,1-.739-2.5v-7.863H176v-1.676h2.308V549.5Z"/><path d="M190.641,565.487a5.54,5.54,0,0,1-4.2-1.693,6.286,6.286,0,0,1-1.617-4.529v-.4a7.6,7.6,0,0,1,.721-3.369,5.616,5.616,0,0,1,2.015-2.32,5.067,5.067,0,0,1,2.807-.838,4.748,4.748,0,0,1,3.844,1.629,7.052,7.052,0,0,1,1.371,4.664v.9H187a4.505,4.505,0,0,0,1.1,3.029,3.443,3.443,0,0,0,2.666,1.155,3.771,3.771,0,0,0,1.945-.469,4.9,4.9,0,0,0,1.4-1.242l1.324,1.031A5.324,5.324,0,0,1,190.641,565.487Zm-.27-11.367a2.891,2.891,0,0,0-2.2.955,4.643,4.643,0,0,0-1.1,2.678h6.352v-.164a4.129,4.129,0,0,0-.891-2.561A2.723,2.723,0,0,0,190.371,554.12Z"/><path d="M204.223,554.519a6.467,6.467,0,0,0-1.067-.082,2.856,2.856,0,0,0-2.894,1.816v9h-2.168v-12.68H200.2l.035,1.465a3.376,3.376,0,0,1,3.024-1.7,2.221,2.221,0,0,1,.961.164Z"/><path d="M212.168,549.21a1.3,1.3,0,0,1,.322-.891,1.21,1.21,0,0,1,.955-.363,1.228,1.228,0,0,1,.961.363,1.281,1.281,0,0,1,.328.891,1.238,1.238,0,0,1-.328.879,1.251,1.251,0,0,1-.961.351,1.233,1.233,0,0,1-.955-.351A1.251,1.251,0,0,1,212.168,549.21Zm2.344,16.043h-2.168v-12.68h2.168Z"/><path d="M220.031,552.573l.071,1.594a4.618,4.618,0,0,1,3.8-1.828q4.02,0,4.055,4.535v8.379h-2.168v-8.391a2.919,2.919,0,0,0-.627-2.027,2.511,2.511,0,0,0-1.916-.656,3.127,3.127,0,0,0-1.851.562,3.813,3.813,0,0,0-1.243,1.477v9.035H217.98v-12.68Z"/><path d="M234.164,549.5v3.07h2.367v1.676h-2.367v7.873a1.767,1.767,0,0,0,.316,1.145,1.334,1.334,0,0,0,1.079.38,5.222,5.222,0,0,0,1.031-.14v1.748a6.329,6.329,0,0,1-1.664.232,2.7,2.7,0,0,1-2.192-.879,3.777,3.777,0,0,1-.738-2.5v-7.863h-2.308v-1.676H232V549.5Z"/><path d="M244.324,565.487a5.538,5.538,0,0,1-4.2-1.693,6.286,6.286,0,0,1-1.617-4.529v-.4a7.613,7.613,0,0,1,.72-3.369,5.626,5.626,0,0,1,2.016-2.32,5.065,5.065,0,0,1,2.807-.838,4.748,4.748,0,0,1,3.843,1.629,7.052,7.052,0,0,1,1.372,4.664v.9h-8.59a4.5,4.5,0,0,0,1.095,3.029,3.444,3.444,0,0,0,2.666,1.155,3.775,3.775,0,0,0,1.946-.469,4.885,4.885,0,0,0,1.394-1.242l1.324,1.031A5.323,5.323,0,0,1,244.324,565.487Zm-.269-11.367a2.889,2.889,0,0,0-2.2.955,4.643,4.643,0,0,0-1.1,2.678H247.1v-.164a4.135,4.135,0,0,0-.891-2.561A2.723,2.723,0,0,0,244.055,554.12Z"/><path d="M257.906,554.519a6.455,6.455,0,0,0-1.066-.082,2.857,2.857,0,0,0-2.895,1.816v9h-2.168v-12.68h2.11l.035,1.465a3.375,3.375,0,0,1,3.023-1.7,2.218,2.218,0,0,1,.961.164Z"/><path d="M261.141,565.253v-11h-2v-1.676h2v-1.3a4.319,4.319,0,0,1,1.089-3.152,4.118,4.118,0,0,1,3.082-1.113,5.727,5.727,0,0,1,1.489.2l-.117,1.747a6.262,6.262,0,0,0-1.172-.105,2.117,2.117,0,0,0-1.629.617,2.5,2.5,0,0,0-.574,1.769v1.34h2.707v1.676h-2.707v11Z"/><path d="M273.387,565.487a5.542,5.542,0,0,1-4.2-1.693,6.286,6.286,0,0,1-1.617-4.529v-.4a7.6,7.6,0,0,1,.721-3.369,5.612,5.612,0,0,1,2.016-2.32,5.061,5.061,0,0,1,2.806-.838,4.748,4.748,0,0,1,3.844,1.629,7.052,7.052,0,0,1,1.371,4.664v.9h-8.59a4.505,4.505,0,0,0,1.1,3.029,3.443,3.443,0,0,0,2.666,1.155,3.768,3.768,0,0,0,1.945-.469,4.9,4.9,0,0,0,1.395-1.242l1.324,1.031A5.324,5.324,0,0,1,273.387,565.487Zm-.27-11.367a2.891,2.891,0,0,0-2.2.955,4.643,4.643,0,0,0-1.1,2.678h6.352v-.164a4.123,4.123,0,0,0-.891-2.561A2.723,2.723,0,0,0,273.117,554.12Z"/><path d="M286.969,554.519a6.467,6.467,0,0,0-1.067-.082,2.856,2.856,0,0,0-2.894,1.816v9H280.84v-12.68h2.109l.035,1.465a3.376,3.376,0,0,1,3.024-1.7,2.221,2.221,0,0,1,.961.164Z"/><path d="M294,565.487a5.538,5.538,0,0,1-4.195-1.693,6.286,6.286,0,0,1-1.617-4.529v-.4a7.613,7.613,0,0,1,.72-3.369,5.626,5.626,0,0,1,2.016-2.32,5.064,5.064,0,0,1,2.806-.838,4.748,4.748,0,0,1,3.844,1.629,7.052,7.052,0,0,1,1.371,4.664v.9h-8.59a4.51,4.51,0,0,0,1.1,3.029,3.443,3.443,0,0,0,2.666,1.155,3.768,3.768,0,0,0,1.945-.469,4.875,4.875,0,0,0,1.395-1.242l1.324,1.031A5.323,5.323,0,0,1,294,565.487Zm-.27-11.367a2.891,2.891,0,0,0-2.2.955,4.643,4.643,0,0,0-1.1,2.678h6.351v-.164a4.129,4.129,0,0,0-.89-2.561A2.726,2.726,0,0,0,293.73,554.12Z"/><path d="M303.5,552.573l.07,1.594a4.621,4.621,0,0,1,3.8-1.828q4.02,0,4.055,4.535v8.379h-2.168v-8.391a2.919,2.919,0,0,0-.627-2.027,2.511,2.511,0,0,0-1.916-.656,3.132,3.132,0,0,0-1.852.562,3.819,3.819,0,0,0-1.242,1.477v9.035h-2.168v-12.68Z"/><path d="M319.781,563.718a3.129,3.129,0,0,0,2.028-.7,2.477,2.477,0,0,0,.961-1.758h2.05a3.931,3.931,0,0,1-.75,2.074,4.938,4.938,0,0,1-1.845,1.57,5.323,5.323,0,0,1-2.444.586,5.225,5.225,0,0,1-4.119-1.728,6.889,6.889,0,0,1-1.529-4.729v-.363a7.637,7.637,0,0,1,.679-3.293,5.179,5.179,0,0,1,1.952-2.238,5.533,5.533,0,0,1,3.006-.8,5.086,5.086,0,0,1,3.544,1.277,4.562,4.562,0,0,1,1.506,3.317h-2.05a2.992,2.992,0,0,0-.932-2.022,2.9,2.9,0,0,0-2.068-.791,3.034,3.034,0,0,0-2.561,1.19,5.588,5.588,0,0,0-.908,3.439v.41a5.478,5.478,0,0,0,.9,3.375A3.05,3.05,0,0,0,319.781,563.718Z"/><path d="M332.52,565.487a5.54,5.54,0,0,1-4.2-1.693,6.286,6.286,0,0,1-1.617-4.529v-.4a7.6,7.6,0,0,1,.721-3.369,5.616,5.616,0,0,1,2.015-2.32,5.067,5.067,0,0,1,2.807-.838,4.75,4.75,0,0,1,3.844,1.629,7.052,7.052,0,0,1,1.371,4.664v.9h-8.59a4.5,4.5,0,0,0,1.1,3.029,3.443,3.443,0,0,0,2.666,1.155,3.771,3.771,0,0,0,1.945-.469,4.9,4.9,0,0,0,1.395-1.242l1.324,1.031A5.324,5.324,0,0,1,332.52,565.487Zm-.27-11.367a2.891,2.891,0,0,0-2.2.955,4.643,4.643,0,0,0-1.1,2.678H335.3v-.164a4.129,4.129,0,0,0-.891-2.561A2.723,2.723,0,0,0,332.25,554.12Z"/><path class="b" d="M382.6,276.185s35.612,94.62,72.585-1"/><path class="b" d="M739.24,275.185s35.612,95.62,72.585,0"/><line class="f" x1="736.769" y1="274.602" x2="815.804" y2="273.928"/><line class="b" x1="449.943" y1="275.272" x2="737.854" y2="274.603"/><line class="b" x1="375.999" y1="591.676" x2="379.999" y2="591.662"/><line class="f" x1="380.932" y1="592.036" x2="453.518" y2="590.648"/><line class="b" x1="806.835" y1="590.234" x2="810.835" y2="590.22"/><line class="b" x1="811.008" y1="590.22" x2="1012.91" y2="590.22"/><line class="b" x1="151.91" y1="591.478" x2="377.945" y2="591.669"/><path class="b" d="M379.594,593.239s35.613,95.619,72.586,0"/><path class="b" d="M733.494,594.342s35.612,95.62,72.585,0"/><line class="f" x1="732.885" y1="591.431" x2="808.241" y2="590.043"/><line class="b" x1="452.169" y1="590.704" x2="732.885" y2="590.895"/><path class="b" d="M637.718,392.943s-31.368,273.957-78.585,0"/></svg>