<?xml version="1.0" encoding="UTF-8"?><svg id="b" xmlns="http://www.w3.org/2000/svg" width="1140" height="600" xmlns:xlink="http://www.w3.org/1999/xlink" viewBox="0 0 1140 600"><defs><symbol id="a" viewBox="0 0 8 8"><circle cx="4" cy="4" r="4" fill="#49626e" stroke-width="0"/></symbol><clipPath id="c"><path d="m270.0014,7.7177c-87.3181,3.2737-186.8695,29.3617-231.5812,112.9926C-5.0614,202.0403-2.674,318.914,21.0638,406.3208c16.0569,59.1242,56.8327,125.505,109.4103,149.4895,63.2244,28.8412,135.245,30.8185,202.9674,35.3263,122.763,8.1715,245.193,1.779,368.0313,1.5836,96.1155-.1587,188.4534,2.6791,277.3578-41.2537,78.1592-38.6231,136.9065-137.9708,150.0085-230.1969,20.6992-145.7034-84.2-291.1535-223.154-307.1899-82.9879-9.5774-163.1831-4.9129-246.5194-2.9034-129.6994,3.1275-259.6742-8.298-389.1642-3.4586Z" fill="#dfe9f0" stroke-width="0"/></clipPath></defs><path d="m270.0014,7.7177c-87.3181,3.2737-186.8695,29.3617-231.5812,112.9926C-5.0614,202.0403-2.674,318.914,21.0638,406.3208c16.0569,59.1242,56.8327,125.505,109.4103,149.4895,63.2244,28.8412,135.245,30.8185,202.9674,35.3263,122.763,8.1715,245.193,1.779,368.0313,1.5836,96.1155-.1587,188.4534,2.6791,277.3578-41.2537,78.1592-38.6231,136.9065-137.9708,150.0085-230.1969,20.6992-145.7034-84.2-291.1535-223.154-307.1899-82.9879-9.5774-163.1831-4.9129-246.5194-2.9034-129.6994,3.1275-259.6742-8.298-389.1642-3.4586Z" fill="#dfe9f0"/><g clip-path="url(#c)"><path d="m282.1715,227.3999v250.0689c0,8.3298-6.7526,15.0824-15.0824,15.0824h0c-8.3298,0-15.0824-6.7526-15.0824-15.0824v-5.8425s0-229.1439,0-229.1439v-15.0824h-21.8695v291.8225c0,2.3906,1.1137,4.6448,3.0125,6.0972l33.4648,25.5981,34.3383-25.6001c1.9433-1.4488,3.0882-3.7304,3.0882-6.1543V227.3999h-21.8695Z" fill="#9ca2a6" stroke-width="0"/><path d="m278.2789,691.5225s-6.3906,2.3366-11.6643,2.3366-11.6643-2.3366-11.6643-2.3366v-188.0585h23.3287v188.0585Z" fill="#9ca2a6" stroke-width="0"/><path d="m300.4688,521.5611c-6.0451,5.092-13.0439,8.937-19.6311,13.2012-8.753,6.3419-18.708,6.7468-27.548.2777,0,.0002-3.9643-2.5753-3.9643-2.5753-5.2805-3.4425-10.6412-6.7585-15.4756-10.9048l.1572-.248c5.8129,2.6025,11.0995,6.0354,16.4663,9.3417,1.3579.841,4.7252,2.9205,6.0316,3.7292,5.6821,3.5947,13.1782,3.8963,19.1436.8035,2.2814-1.2626,5.7302-3.4297,8.0593-4.7862,5.4276-3.2061,10.7193-6.634,16.6075-9.0894l.1536.2503h0Z" fill="#79848a" stroke-width="0"/><path d="m256.7021,542.0074c1.594-.9877,3.188-.8324,4.782-.9354,1.594-.0806,3.188-.124,4.782-.1243,1.594.0005,3.188.0579,4.7821.1345,1.594.0801,3.188.0109,4.782.9252v.2937c-1.594.9144-3.188.8452-4.782.9253-1.5941.0765-3.1881.1339-4.7821.1344-1.594-.0004-3.188-.0437-4.782-.1243-1.594-.103-3.188.0523-4.782-.9354v-.2937h0Z" fill="#79848a" stroke-width="0"/></g><path d="m284.5459,41.2856h-7.7051l-1.4648,4.3945h-4.6729l7.9395-21.3281h4.0723l7.9834,21.3281h-4.6729l-1.4795-4.3945Zm-6.5186-3.5596h5.332l-2.6807-7.9834-2.6514,7.9834Z" stroke-width="0"/><path d="m304.9512,25.9341v3.8965h2.71v3.1055h-2.71v7.9102c0,.5859.1123,1.0059.3369,1.2598s.6543.3809,1.2891.3809c.4688,0,.8838-.0342,1.2451-.1025v3.208c-.8301.2539-1.6846.3809-2.5635.3809-2.9688,0-4.4824-1.499-4.541-4.4971v-8.54h-2.3145v-3.1055h2.3145v-3.8965h4.2334Z" stroke-width="0"/><path d="m319.5117,44.0688c-1.0449,1.2695-2.4902,1.9043-4.3359,1.9043-1.6992,0-2.9961-.4883-3.8887-1.4648-.8945-.9766-1.3506-2.4072-1.3701-4.292v-10.3857h4.2334v10.251c0,1.6523.752,2.4785,2.2559,2.4785,1.4355,0,2.4219-.4985,2.959-1.4961v-11.2334h4.248v15.8496h-3.9844l-.1172-1.6113Z" stroke-width="0"/><path d="m330.7031,29.8306l.1318,1.8311c1.1328-1.416,2.6514-2.124,4.5557-2.124,1.6797,0,2.9297.4932,3.75,1.4795s1.2402,2.4609,1.2598,4.4238v10.2393h-4.2334v-10.1367c0-.8984-.1953-1.5503-.5859-1.9556s-1.04-.6079-1.9482-.6079c-1.1914,0-2.085.5078-2.6807,1.5234v11.1768h-4.2334v-15.8496h3.9844Z" stroke-width="0"/><path d="m343.5791,25.729c0-.6348.2119-1.1572.6377-1.5674.4238-.4102,1.0029-.6152,1.7354-.6152.7227,0,1.2988.2051,1.7285.6152s.6445.9326.6445,1.5674c0,.6445-.2178,1.1719-.6514,1.582-.4355.4102-1.0088.6152-1.7217.6152s-1.2861-.2051-1.7217-.6152c-.4336-.4102-.6514-.9375-.6514-1.582Zm4.4971,19.9512h-4.248v-15.8496h4.248v15.8496Z" stroke-width="0"/><path d="m355.459,29.8306l.1318,1.8311c1.1328-1.416,2.6514-2.124,4.5557-2.124,1.6797,0,2.9297.4932,3.75,1.4795s1.2402,2.4609,1.2598,4.4238v10.2393h-4.2334v-10.1367c0-.8984-.1953-1.5503-.5859-1.9556s-1.04-.6079-1.9482-.6079c-1.1914,0-2.085.5078-2.6807,1.5234v11.1768h-4.2334v-15.8496h3.9844Z" stroke-width="0"/><path d="m367.749,37.6382c0-2.4316.5791-4.3896,1.7354-5.874,1.1582-1.4844,2.7178-2.2266,4.6807-2.2266,1.7383,0,3.0908.5957,4.0576,1.7871l.1758-1.4941h3.8379v15.3223c0,1.3867-.3145,2.5928-.9453,3.6182-.6289,1.0254-1.5156,1.8066-2.6582,2.3438s-2.4805.8057-4.0137.8057c-1.1621,0-2.2949-.2319-3.3984-.6958s-1.9385-1.062-2.5049-1.7944l1.875-2.5781c1.0547,1.1816,2.334,1.7725,3.8379,1.7725,1.123,0,1.9971-.3003,2.6221-.9009s.9375-1.4526.9375-2.5562v-.8496c-.9766,1.1035-2.2607,1.6553-3.8525,1.6553-1.9043,0-3.4443-.7446-4.6221-2.2339-1.1758-1.4893-1.7646-3.4644-1.7646-5.9253v-.1758Zm4.2334.3149c0,1.438.2881,2.5654.8643,3.3818.5762.8169,1.3672,1.2251,2.373,1.2251,1.2891,0,2.2119-.4839,2.7686-1.4526v-6.6748c-.5664-.9683-1.4795-1.4526-2.7393-1.4526-1.0156,0-1.8135.416-2.3955,1.2471-.5801.8315-.8711,2.0737-.8711,3.7261Z" stroke-width="0"/><path d="m394.1162,45.6802v-12.7441h-2.3584v-3.1055h2.3584v-1.3477c0-1.7773.5107-3.1567,1.5303-4.1382,1.0215-.9814,2.4492-1.4722,4.2852-1.4722.5859,0,1.3037.0977,2.1533.293l-.0439,3.2812c-.3516-.0879-.7812-.1318-1.2891-.1318-1.5918,0-2.3877.7471-2.3877,2.2412v1.2744h3.1494v3.1055h-3.1494v12.7441h-4.248Z" stroke-width="0"/><path d="m403.0518,37.6089c0-1.5723.3027-2.9736.9082-4.2041s1.4775-2.1826,2.6143-2.8564c1.1387-.6738,2.459-1.0107,3.9629-1.0107,2.1387,0,3.8848.6543,5.2363,1.9629,1.3535,1.3086,2.1074,3.0859,2.2637,5.332l.0293,1.084c0,2.4316-.6787,4.3823-2.0361,5.8521s-3.1787,2.2046-5.4639,2.2046-4.1094-.7324-5.4707-2.1973c-1.3633-1.4648-2.0439-3.457-2.0439-5.9766v-.1904Zm4.2334.3003c0,1.5063.2832,2.6582.8496,3.4551.5664.7974,1.377,1.1958,2.4316,1.1958,1.0254,0,1.8262-.3936,2.4023-1.1812.5762-.7871.8643-2.0464.8643-3.7773,0-1.4771-.2881-2.6216-.8643-3.4331s-1.3867-1.2178-2.4316-1.2178c-1.0352,0-1.8359.4033-2.4023,1.2104s-.8496,2.0562-.8496,3.748Z" stroke-width="0"/><path d="m429.5801,33.8003c-.5762-.0781-1.084-.1172-1.5234-.1172-1.6016,0-2.6514.542-3.1494,1.626v10.3711h-4.2334v-15.8496h3.999l.1172,1.8896c.8496-1.4551,2.0264-2.1826,3.5303-2.1826.4688,0,.9082.0635,1.3184.1904l-.0586,4.0723Z" stroke-width="0"/><path d="m437.373,39.3228l-1.5234,1.5234v4.834h-4.2334v-22.5h4.2334v12.4658l.8203-1.0547,4.0576-4.7607h5.083l-5.7275,6.6064,6.2256,9.2432h-4.8633l-4.0723-6.3574Z" stroke-width="0"/><path d="m459.082,29.8306l.1318,1.7725c1.123-1.377,2.6416-2.0654,4.5557-2.0654,2.041,0,3.4424.8057,4.2041,2.417,1.1133-1.6113,2.7002-2.417,4.7607-2.417,1.7188,0,2.998.5005,3.8379,1.5015s1.2598,2.5073,1.2598,4.519v10.1221h-4.248v-10.1074c0-.8984-.1758-1.5552-.5273-1.9702s-.9717-.6226-1.8604-.6226c-1.2695,0-2.1484.6055-2.6367,1.8164l.0146,10.8838h-4.2334v-10.0928c0-.918-.1807-1.582-.542-1.9922s-.9766-.6152-1.8457-.6152c-1.2012,0-2.0703.498-2.6074,1.4941v11.2061h-4.2334v-15.8496h3.9697Z" stroke-width="0"/><path d="m490.2686,45.6802c-.1953-.3809-.3369-.8545-.4248-1.4209-1.0254,1.1426-2.3584,1.7139-3.999,1.7139-1.5527,0-2.8389-.4492-3.8604-1.3477-1.0195-.8984-1.5303-2.0312-1.5303-3.3984,0-1.6797.6221-2.9688,1.8682-3.8672,1.2441-.8984,3.0439-1.3525,5.3975-1.3623h1.9482v-.9082c0-.7324-.1875-1.3184-.5645-1.7578-.375-.4395-.9688-.6592-1.7793-.6592-.7129,0-1.2715.1709-1.6777.5127-.4043.3418-.6074.8105-.6074,1.4062h-4.2334c0-.918.2832-1.7676.8496-2.5488s1.3672-1.394,2.4023-1.8384,2.1973-.6665,3.4863-.6665c1.9531,0,3.5029.4907,4.6514,1.4722,1.1465.9814,1.7207,2.3608,1.7207,4.1382v6.8701c.0098,1.5039.2197,2.6416.6299,3.4131v.249h-4.2773Zm-3.501-2.9443c.625,0,1.2012-.1392,1.7285-.4175s.918-.6519,1.1719-1.1206v-2.7246h-1.582c-2.1191,0-3.2471.7324-3.3838,2.1973l-.0146.249c0,.5273.1855.9619.5566,1.3037s.8789.5127,1.5234.5127Z" stroke-width="0"/><path d="m502.9248,39.3228l-1.5234,1.5234v4.834h-4.2334v-22.5h4.2334v12.4658l.8203-1.0547,4.0576-4.7607h5.083l-5.7275,6.6064,6.2256,9.2432h-4.8633l-4.0723-6.3574Z" stroke-width="0"/><path d="m513.1641,25.729c0-.6348.2119-1.1572.6377-1.5674.4238-.4102,1.0029-.6152,1.7354-.6152.7227,0,1.2988.2051,1.7285.6152s.6445.9326.6445,1.5674c0,.6445-.2178,1.1719-.6514,1.582-.4355.4102-1.0088.6152-1.7217.6152s-1.2871-.2051-1.7217-.6152-.6514-.9375-.6514-1.582Zm4.4971,19.9512h-4.248v-15.8496h4.248v15.8496Z" stroke-width="0"/><path d="m525.0439,29.8306l.1318,1.8311c1.1328-1.416,2.6514-2.124,4.5557-2.124,1.6797,0,2.9297.4932,3.75,1.4795s1.2402,2.4609,1.2598,4.4238v10.2393h-4.2334v-10.1367c0-.8984-.1953-1.5503-.5859-1.9556s-1.04-.6079-1.9482-.6079c-1.1914,0-2.085.5078-2.6807,1.5234v11.1768h-4.2334v-15.8496h3.9844Z" stroke-width="0"/><path d="m537.334,37.6382c0-2.4316.5791-4.3896,1.7354-5.874,1.1582-1.4844,2.7178-2.2266,4.6807-2.2266,1.7383,0,3.0908.5957,4.0576,1.7871l.1758-1.4941h3.8379v15.3223c0,1.3867-.3145,2.5928-.9453,3.6182-.6289,1.0254-1.5156,1.8066-2.6582,2.3438s-2.4805.8057-4.0137.8057c-1.1621,0-2.2949-.2319-3.3984-.6958s-1.9385-1.062-2.5049-1.7944l1.875-2.5781c1.0547,1.1816,2.334,1.7725,3.8379,1.7725,1.123,0,1.9971-.3003,2.6221-.9009s.9375-1.4526.9375-2.5562v-.8496c-.9766,1.1035-2.2607,1.6553-3.8525,1.6553-1.9043,0-3.4453-.7446-4.6221-2.2339s-1.7646-3.4644-1.7646-5.9253v-.1758Zm4.2334.3149c0,1.438.2881,2.5654.8643,3.3818.5762.8169,1.3672,1.2251,2.373,1.2251,1.2891,0,2.2119-.4839,2.7686-1.4526v-6.6748c-.5664-.9683-1.4795-1.4526-2.7393-1.4526-1.0156,0-1.8145.416-2.3955,1.2471-.5811.8315-.8711,2.0737-.8711,3.7261Z" stroke-width="0"/><path d="m571.7285,45.6802c-.1953-.3809-.3369-.8545-.4248-1.4209-1.0254,1.1426-2.3584,1.7139-3.999,1.7139-1.5527,0-2.8398-.4492-3.8594-1.3477-1.0215-.8984-1.5312-2.0312-1.5312-3.3984,0-1.6797.623-2.9688,1.8672-3.8672,1.2461-.8984,3.0449-1.3525,5.3984-1.3623h1.9482v-.9082c0-.7324-.1885-1.3184-.5635-1.7578-.377-.4395-.9697-.6592-1.7803-.6592-.7129,0-1.2725.1709-1.6768.5127-.4062.3418-.6084.8105-.6084,1.4062h-4.2334c0-.918.2832-1.7676.8496-2.5488s1.3672-1.394,2.4023-1.8384,2.1973-.6665,3.4863-.6665c1.9531,0,3.5029.4907,4.6504,1.4722s1.7217,2.3608,1.7217,4.1382v6.8701c.0098,1.5039.2197,2.6416.6299,3.4131v.249h-4.2773Zm-3.501-2.9443c.625,0,1.2012-.1392,1.7285-.4175s.918-.6519,1.1719-1.1206v-2.7246h-1.582c-2.1191,0-3.2471.7324-3.3838,2.1973l-.0146.249c0,.5273.1855.9619.5566,1.3037s.8789.5127,1.5234.5127Z" stroke-width="0"/><path d="m594.6826,41.3003c0-.5176-.2568-.9253-.7686-1.2231-.5137-.2979-1.3359-.564-2.4688-.7983-3.7695-.791-5.6543-2.3926-5.6543-4.8047,0-1.4062.583-2.5806,1.75-3.5229s2.6934-1.4136,4.5781-1.4136c2.0117,0,3.6201.4736,4.8262,1.4209s1.8096,2.1777,1.8096,3.6914h-4.2334c0-.6055-.1953-1.106-.5859-1.5015s-1.001-.5933-1.8311-.5933c-.7129,0-1.2646.1611-1.6553.4834s-.5859.7324-.5859,1.2305c0,.4688.2217.8472.666,1.1353s1.1943.5371,2.249.7471,1.9434.4468,2.666.7104c2.2363.8203,3.3545,2.2412,3.3545,4.2627,0,1.4453-.6201,2.6147-1.8604,3.5083s-2.8418,1.3403-4.8047,1.3403c-1.3281,0-2.5078-.2368-3.5381-.7104s-1.8379-1.123-2.4238-1.9482-.8789-1.7163-.8789-2.6733h4.0137c.0391.752.3174,1.3281.835,1.7285s1.2109.6006,2.0801.6006c.8105,0,1.4229-.1538,1.8389-.4614.4141-.3076.6221-.7104.6221-1.2085Z" stroke-width="0"/><path d="m600.8643,37.6089c0-1.5723.3027-2.9736.9082-4.2041s1.4766-2.1826,2.6152-2.8564c1.1367-.6738,2.458-1.0107,3.9619-1.0107,2.1387,0,3.8838.6543,5.2373,1.9629,1.3516,1.3086,2.1064,3.0859,2.2627,5.332l.0293,1.084c0,2.4316-.6787,4.3823-2.0361,5.8521s-3.1787,2.2046-5.4639,2.2046-4.1084-.7324-5.4717-2.1973c-1.3613-1.4648-2.043-3.457-2.043-5.9766v-.1904Zm4.2334.3003c0,1.5063.2832,2.6582.8496,3.4551.5664.7974,1.377,1.1958,2.4316,1.1958,1.0254,0,1.8262-.3936,2.4023-1.1812.5762-.7871.8643-2.0464.8643-3.7773,0-1.4771-.2881-2.6216-.8643-3.4331s-1.3867-1.2178-2.4316-1.2178c-1.0352,0-1.8359.4033-2.4023,1.2104s-.8496,2.0562-.8496,3.748Z" stroke-width="0"/><path d="m627.9785,44.0688c-1.0449,1.2695-2.4902,1.9043-4.3359,1.9043-1.6992,0-2.9951-.4883-3.8896-1.4648-.8926-.9766-1.3496-2.4072-1.3691-4.292v-10.3857h4.2334v10.251c0,1.6523.752,2.4785,2.2559,2.4785,1.4355,0,2.4219-.4985,2.959-1.4961v-11.2334h4.248v15.8496h-3.9844l-.1172-1.6113Z" stroke-width="0"/><path d="m639.1699,29.8306l.1318,1.8311c1.1328-1.416,2.6514-2.124,4.5557-2.124,1.6797,0,2.9297.4932,3.75,1.4795s1.2402,2.4609,1.2598,4.4238v10.2393h-4.2334v-10.1367c0-.8984-.1953-1.5503-.5859-1.9556s-1.04-.6079-1.9482-.6079c-1.1914,0-2.085.5078-2.6807,1.5234v11.1768h-4.2334v-15.8496h3.9844Z" stroke-width="0"/><path d="m651.416,37.6382c0-2.4707.5537-4.4385,1.6621-5.9033s2.625-2.1973,4.5488-2.1973c1.543,0,2.8174.5762,3.8232,1.7285v-8.0859h4.248v22.5h-3.8232l-.2051-1.6846c-1.0547,1.3184-2.4121,1.9775-4.0723,1.9775-1.8652,0-3.3613-.7349-4.4902-2.2046-1.127-1.4697-1.6914-3.5132-1.6914-6.1304Zm4.2334.3149c0,1.4868.2588,2.6265.7764,3.4185.5176.7925,1.2695,1.1885,2.2559,1.1885,1.3086,0,2.2314-.5527,2.7686-1.6577v-6.2646c-.5273-1.105-1.4404-1.6577-2.7393-1.6577-2.041,0-3.0615,1.6577-3.0615,4.9731Z" stroke-width="0"/><path d="m690.2344,39.9233l2.0801-10.0928h4.0869l-4.043,15.8496h-3.5449l-3.0029-9.9756-3.0029,9.9756h-3.5303l-4.043-15.8496h4.0869l2.0654,10.0781,2.9004-10.0781h3.0615l2.8857,10.0928Z" stroke-width="0"/><path d="m707.6807,45.6802c-.1953-.3809-.3369-.8545-.4248-1.4209-1.0254,1.1426-2.3584,1.7139-3.999,1.7139-1.5527,0-2.8398-.4492-3.8594-1.3477-1.0215-.8984-1.5312-2.0312-1.5312-3.3984,0-1.6797.623-2.9688,1.8672-3.8672,1.2461-.8984,3.0449-1.3525,5.3984-1.3623h1.9482v-.9082c0-.7324-.1885-1.3184-.5635-1.7578-.377-.4395-.9697-.6592-1.7803-.6592-.7129,0-1.2725.1709-1.6768.5127-.4062.3418-.6084.8105-.6084,1.4062h-4.2334c0-.918.2832-1.7676.8496-2.5488s1.3672-1.394,2.4023-1.8384,2.1973-.6665,3.4863-.6665c1.9531,0,3.5029.4907,4.6504,1.4722s1.7217,2.3608,1.7217,4.1382v6.8701c.0098,1.5039.2197,2.6416.6299,3.4131v.249h-4.2773Zm-3.501-2.9443c.625,0,1.2012-.1392,1.7285-.4175s.918-.6519,1.1719-1.1206v-2.7246h-1.582c-2.1191,0-3.2471.7324-3.3838,2.1973l-.0146.249c0,.5273.1855.9619.5566,1.3037s.8789.5127,1.5234.5127Z" stroke-width="0"/><path d="m720.293,40.5093l2.9443-10.6787h4.4238l-5.3467,15.8496h-4.043l-5.3467-15.8496h4.4238l2.9443,10.6787Z" stroke-width="0"/><path d="m736.8164,45.9731c-2.3242,0-4.2168-.7129-5.6768-2.1387s-2.1895-3.3252-2.1895-5.6982v-.4102c0-1.5918.3076-3.0151.9229-4.27s1.4873-2.2217,2.6143-2.9004c1.1289-.6787,2.415-1.0181,3.8604-1.0181,2.168,0,3.874.6836,5.1201,2.0508,1.2441,1.3672,1.8672,3.3057,1.8672,5.8154v1.7285h-10.0928c.1367,1.0352.5498,1.8652,1.2373,2.4902.6895.625,1.5605.9375,2.6152.9375,1.6309,0,2.9053-.5908,3.8232-1.7725l2.0801,2.3291c-.6348.8984-1.4941,1.5991-2.5781,2.1021s-2.2852.7544-3.6035.7544Zm-.4834-13.0225c-.8398,0-1.5215.2847-2.043.8535-.5234.5688-.8574,1.3833-1.0039,2.4424h5.8887v-.3384c-.0195-.9419-.2734-1.6699-.7617-2.1851s-1.1816-.7725-2.0801-.7725Z" stroke-width="0"/><path d="m753.1787,25.729c0-.6348.2119-1.1572.6377-1.5674.4238-.4102,1.0029-.6152,1.7354-.6152.7227,0,1.2988.2051,1.7285.6152s.6445.9326.6445,1.5674c0,.6445-.2178,1.1719-.6514,1.582-.4355.4102-1.0088.6152-1.7217.6152s-1.2871-.2051-1.7217-.6152-.6514-.9375-.6514-1.582Zm4.4971,19.9512h-4.248v-15.8496h4.248v15.8496Z" stroke-width="0"/><path d="m765.0586,29.8306l.1318,1.8311c1.1328-1.416,2.6514-2.124,4.5557-2.124,1.6797,0,2.9297.4932,3.75,1.4795s1.2402,2.4609,1.2598,4.4238v10.2393h-4.2334v-10.1367c0-.8984-.1953-1.5503-.5859-1.9556s-1.04-.6079-1.9482-.6079c-1.1914,0-2.085.5078-2.6807,1.5234v11.1768h-4.2334v-15.8496h3.9844Z" stroke-width="0"/><path d="m790.5029,25.9341v3.8965h2.71v3.1055h-2.71v7.9102c0,.5859.1123,1.0059.3369,1.2598s.6543.3809,1.2891.3809c.4688,0,.8838-.0342,1.2451-.1025v3.208c-.8301.2539-1.6846.3809-2.5635.3809-2.9688,0-4.4824-1.499-4.541-4.4971v-8.54h-2.3145v-3.1055h2.3145v-3.8965h4.2334Z" stroke-width="0"/><path d="m799.7021,31.5591c1.123-1.3477,2.5342-2.0215,4.2334-2.0215,3.4375,0,5.1807,1.9971,5.2295,5.9912v10.1514h-4.2334v-10.0342c0-.9082-.1953-1.5796-.5859-2.0142s-1.04-.6519-1.9482-.6519c-1.2402,0-2.1387.4785-2.6953,1.4355v11.2646h-4.2334v-22.5h4.2334v8.3789Z" stroke-width="0"/><path d="m819.6533,45.9731c-2.3242,0-4.2168-.7129-5.6768-2.1387s-2.1895-3.3252-2.1895-5.6982v-.4102c0-1.5918.3076-3.0151.9229-4.27s1.4873-2.2217,2.6143-2.9004c1.1289-.6787,2.415-1.0181,3.8604-1.0181,2.168,0,3.874.6836,5.1201,2.0508,1.2441,1.3672,1.8672,3.3057,1.8672,5.8154v1.7285h-10.0928c.1367,1.0352.5498,1.8652,1.2373,2.4902.6895.625,1.5605.9375,2.6152.9375,1.6309,0,2.9053-.5908,3.8232-1.7725l2.0801,2.3291c-.6348.8984-1.4941,1.5991-2.5781,2.1021s-2.2852.7544-3.6035.7544Zm-.4834-13.0225c-.8398,0-1.5215.2847-2.043.8535-.5234.5688-.8574,1.3833-1.0039,2.4424h5.8887v-.3384c-.0195-.9419-.2734-1.6699-.7617-2.1851s-1.1816-.7725-2.0801-.7725Z" stroke-width="0"/><path d="m845.2295,45.6802c-.1953-.3809-.3369-.8545-.4248-1.4209-1.0254,1.1426-2.3584,1.7139-3.999,1.7139-1.5527,0-2.8398-.4492-3.8594-1.3477-1.0215-.8984-1.5312-2.0312-1.5312-3.3984,0-1.6797.623-2.9688,1.8672-3.8672,1.2461-.8984,3.0449-1.3525,5.3984-1.3623h1.9482v-.9082c0-.7324-.1885-1.3184-.5635-1.7578-.377-.4395-.9697-.6592-1.7803-.6592-.7129,0-1.2725.1709-1.6768.5127-.4062.3418-.6084.8105-.6084,1.4062h-4.2334c0-.918.2832-1.7676.8496-2.5488s1.3672-1.394,2.4023-1.8384,2.1973-.6665,3.4863-.6665c1.9531,0,3.5029.4907,4.6504,1.4722s1.7217,2.3608,1.7217,4.1382v6.8701c.0098,1.5039.2197,2.6416.6299,3.4131v.249h-4.2773Zm-3.501-2.9443c.625,0,1.2012-.1392,1.7285-.4175s.918-.6519,1.1719-1.1206v-2.7246h-1.582c-2.1191,0-3.2471.7324-3.3838,2.1973l-.0146.249c0,.5273.1855.9619.5566,1.3037s.8789.5127,1.5234.5127Z" stroke-width="0"/><path d="m852.0996,25.729c0-.6348.2119-1.1572.6377-1.5674.4238-.4102,1.0029-.6152,1.7354-.6152.7227,0,1.2988.2051,1.7285.6152s.6445.9326.6445,1.5674c0,.6445-.2178,1.1719-.6514,1.582-.4355.4102-1.0088.6152-1.7217.6152s-1.2871-.2051-1.7217-.6152-.6514-.9375-.6514-1.582Zm4.4971,19.9512h-4.248v-15.8496h4.248v15.8496Z" stroke-width="0"/><path d="m868.9893,33.8003c-.5762-.0781-1.084-.1172-1.5234-.1172-1.6016,0-2.6514.542-3.1494,1.626v10.3711h-4.2334v-15.8496h3.999l.1172,1.8896c.8496-1.4551,2.0264-2.1826,3.5303-2.1826.4688,0,.9082.0635,1.3184.1904l-.0586,4.0723Z" stroke-width="0"/><path d="m438.9961,105.9805v-17.0625h4.8164c1.4844,0,2.7969.3281,3.9375.9844s2.0215,1.5898,2.6426,2.8008.9355,2.6016.9434,4.1719v1.0898c0,1.6094-.3105,3.0195-.9316,4.2305s-1.5078,2.1406-2.6602,2.7891-2.4941.9805-4.0254.9961h-4.7227Zm2.25-15.2227v13.3828h2.3672c1.7344,0,3.084-.5391,4.0488-1.6182s1.4473-2.6162,1.4473-4.6104v-.9971c0-1.9385-.4551-3.4463-1.3652-4.5205-.9102-1.0762-2.2012-1.6211-3.873-1.6367h-2.625Z" stroke-width="0"/><path d="m454.4062,89.9375c0-.3516.1074-.6484.3223-.8906s.5332-.3633.9551-.3633.7422.1211.9609.3633.3281.5391.3281.8906-.1094.6445-.3281.8789-.5391.3516-.9609.3516-.7402-.1172-.9551-.3516-.3223-.5273-.3223-.8789Zm2.3438,16.043h-2.168v-12.6797h2.168v12.6797Z" stroke-width="0"/><path d="m466.3477,95.2461c-.3281-.0547-.6836-.082-1.0664-.082-1.4219,0-2.3867.6055-2.8945,1.8164v9h-2.168v-12.6797h2.1094l.0352,1.4648c.7109-1.1328,1.7188-1.6992,3.0234-1.6992.4219,0,.7422.0547.9609.1641v2.0156Z" stroke-width="0"/><path d="m473.6016,106.2148c-1.7188,0-3.1172-.5645-4.1953-1.6934s-1.6172-2.6387-1.6172-4.5293v-.3984c0-1.2578.2402-2.3809.7207-3.3691s1.1523-1.7617,2.0156-2.3203,1.7988-.8379,2.8066-.8379c1.6484,0,2.9297.543,3.8438,1.6289s1.3711,2.6406,1.3711,4.6641v.9023h-8.5898c.0312,1.25.3965,2.2598,1.0957,3.0293s1.5879,1.1543,2.666,1.1543c.7656,0,1.4141-.1562,1.9453-.4688s.9961-.7266,1.3945-1.2422l1.3242,1.0312c-1.0625,1.6328-2.6562,2.4492-4.7812,2.4492Zm-.2695-11.3672c-.875,0-1.6094.3184-2.2031.9551s-.9609,1.5293-1.1016,2.6777h6.3516v-.1641c-.0625-1.1016-.3594-1.9551-.8906-2.5605s-1.25-.9082-2.1562-.9082Z" stroke-width="0"/><path d="m486.1406,104.4453c.7734,0,1.4492-.2344,2.0273-.7031s.8984-1.0547.9609-1.7578h2.0508c-.0391.7266-.2891,1.418-.75,2.0742s-1.0762,1.1797-1.8457,1.5703-1.584.5859-2.4434.5859c-1.7266,0-3.0996-.5762-4.1191-1.7285s-1.5293-2.7285-1.5293-4.7285v-.3633c0-1.2344.2266-2.332.6797-3.293s1.1035-1.707,1.9512-2.2383,1.8496-.7969,3.0059-.7969c1.4219,0,2.6035.4258,3.5449,1.2773s1.4434,1.957,1.5059,3.3164h-2.0508c-.0625-.8203-.373-1.4941-.9316-2.0215s-1.248-.791-2.0684-.791c-1.1016,0-1.9551.3965-2.5605,1.1895s-.9082,1.9395-.9082,3.4395v.4102c0,1.4609.3008,2.5859.9023,3.375s1.4609,1.1836,2.5781,1.1836Z" stroke-width="0"/><path d="m496.5586,90.2305v3.0703h2.3672v1.6758h-2.3672v7.873c0,.5088.1055.8896.3164,1.1445.2109.2539.5703.3809,1.0781.3809.25,0,.5938-.0469,1.0312-.1406v1.748c-.5703.1543-1.125.2324-1.6641.2324-.9688,0-1.6992-.293-2.1914-.8789s-.7383-1.418-.7383-2.4961v-7.8633h-2.3086v-1.6758h2.3086v-3.0703h2.168Z" stroke-width="0"/><path d="m501.4688,89.9375c0-.3516.1074-.6484.3223-.8906s.5332-.3633.9551-.3633.7422.1211.9609.3633.3281.5391.3281.8906-.1094.6445-.3281.8789-.5391.3516-.9609.3516-.7402-.1172-.9551-.3516-.3223-.5273-.3223-.8789Zm2.3438,16.043h-2.168v-12.6797h2.168v12.6797Z" stroke-width="0"/><path d="m506.707,99.5234c0-1.2422.2441-2.3594.7324-3.3516s1.168-1.7578,2.0391-2.2969,1.8652-.8086,2.9824-.8086c1.7266,0,3.123.5977,4.1895,1.793s1.5996,2.7852,1.5996,4.7695v.1523c0,1.2344-.2363,2.3418-.709,3.3223s-1.1484,1.7441-2.0273,2.291-1.8887.8203-3.0293.8203c-1.7188,0-3.1113-.5977-4.1777-1.793s-1.5996-2.7773-1.5996-4.7461v-.1523Zm2.1797.2578c0,1.4062.3262,2.5352.9785,3.3867s1.5254,1.2773,2.6191,1.2773c1.1016,0,1.9766-.4316,2.625-1.2949s.9727-2.0723.9727-3.627c0-1.3906-.3301-2.5176-.9902-3.3809s-1.5371-1.2949-2.6309-1.2949c-1.0703,0-1.9336.4258-2.5898,1.2773s-.9844,2.0703-.9844,3.6562Z" stroke-width="0"/><path d="m523.0195,93.3008l.0703,1.5938c.9688-1.2188,2.2344-1.8281,3.7969-1.8281,2.6797,0,4.0312,1.5117,4.0547,4.5352v8.3789h-2.168v-8.3906c-.0078-.9141-.2168-1.5898-.627-2.0273s-1.0488-.6562-1.916-.6562c-.7031,0-1.3203.1875-1.8516.5625s-.9453.8672-1.2422,1.4766v9.0352h-2.168v-12.6797h2.0508Z" stroke-width="0"/><path d="m539.5781,99.5234c0-1.2422.2441-2.3594.7324-3.3516s1.168-1.7578,2.0391-2.2969,1.8652-.8086,2.9824-.8086c1.7266,0,3.123.5977,4.1895,1.793s1.5996,2.7852,1.5996,4.7695v.1523c0,1.2344-.2363,2.3418-.709,3.3223s-1.1484,1.7441-2.0273,2.291-1.8887.8203-3.0293.8203c-1.7188,0-3.1113-.5977-4.1777-1.793s-1.5996-2.7773-1.5996-4.7461v-.1523Zm2.1797.2578c0,1.4062.3262,2.5352.9785,3.3867s1.5254,1.2773,2.6191,1.2773c1.1016,0,1.9766-.4316,2.625-1.2949s.9727-2.0723.9727-3.627c0-1.3906-.3301-2.5176-.9902-3.3809s-1.5371-1.2949-2.6309-1.2949c-1.0703,0-1.9336.4258-2.5898,1.2773s-.9844,2.0703-.9844,3.6562Z" stroke-width="0"/><path d="m554.9062,105.9805v-11.0039h-2.0039v-1.6758h2.0039v-1.3008c0-1.3594.3633-2.4102,1.0898-3.1523s1.7539-1.1133,3.082-1.1133c.5,0,.9961.0664,1.4883.1982l-.1172,1.7471c-.3672-.0703-.7578-.1055-1.1719-.1055-.7031,0-1.2461.2061-1.6289.6172s-.5742,1.001-.5742,1.7695v1.3398h2.707v1.6758h-2.707v11.0039h-2.168Z" stroke-width="0"/><path d="m579.3398,102.9922l2.4375-9.6914h2.168l-3.6914,12.6797h-1.7578l-3.082-9.6094-3,9.6094h-1.7578l-3.6797-12.6797h2.1562l2.4961,9.4922,2.9531-9.4922h1.7461l3.0117,9.6914Z" stroke-width="0"/><path d="m593.9766,105.9805c-.125-.25-.2266-.6953-.3047-1.3359-1.0078,1.0469-2.2109,1.5703-3.6094,1.5703-1.25,0-2.2754-.3535-3.0762-1.0605s-1.2012-1.6035-1.2012-2.6895c0-1.3203.502-2.3457,1.5059-3.0762s2.416-1.0957,4.2363-1.0957h2.1094v-.9961c0-.7578-.2266-1.3613-.6797-1.8105s-1.1211-.6738-2.0039-.6738c-.7734,0-1.4219.1953-1.9453.5859s-.7852.8633-.7852,1.418h-2.1797c0-.6328.2246-1.2441.6738-1.834s1.0586-1.0566,1.8281-1.4004,1.6152-.5156,2.5371-.5156c1.4609,0,2.6055.3652,3.4336,1.0957s1.2578,1.7363,1.2891,3.0176v5.8359c0,1.1641.1484,2.0898.4453,2.7773v.1875h-2.2734Zm-3.5977-1.6523c.6797,0,1.3242-.1758,1.9336-.5273s1.0508-.8086,1.3242-1.3711v-2.6016h-1.6992c-2.6562,0-3.9844.7773-3.9844,2.332,0,.6797.2266,1.2109.6797,1.5938s1.0352.5742,1.7461.5742Z" stroke-width="0"/><path d="m603.2109,103.0391l3.1406-9.7383h2.2148l-4.5469,12.6797h-1.6523l-4.5938-12.6797h2.2148l3.2227,9.7383Z" stroke-width="0"/><path d="m615.9141,106.2148c-1.7188,0-3.1172-.5645-4.1953-1.6934s-1.6172-2.6387-1.6172-4.5293v-.3984c0-1.2578.2402-2.3809.7207-3.3691s1.1523-1.7617,2.0156-2.3203,1.7988-.8379,2.8066-.8379c1.6484,0,2.9297.543,3.8438,1.6289s1.3711,2.6406,1.3711,4.6641v.9023h-8.5898c.0312,1.25.3965,2.2598,1.0957,3.0293s1.5879,1.1543,2.666,1.1543c.7656,0,1.4141-.1562,1.9453-.4688s.9961-.7266,1.3945-1.2422l1.3242,1.0312c-1.0625,1.6328-2.6562,2.4492-4.7812,2.4492Zm-.2695-11.3672c-.875,0-1.6094.3184-2.2031.9551s-.9609,1.5293-1.1016,2.6777h6.3516v-.1641c-.0625-1.1016-.3594-1.9551-.8906-2.5605s-1.25-.9082-2.1562-.9082Z" stroke-width="0"/><path d="m631.3477,93.3008l.0586,1.4062c.9297-1.0938,2.1836-1.6406,3.7617-1.6406,1.7734,0,2.9805.6797,3.6211,2.0391.4219-.6094.9707-1.1016,1.6465-1.4766s1.4746-.5625,2.3965-.5625c2.7812,0,4.1953,1.4727,4.2422,4.418v8.4961h-2.168v-8.3672c0-.9062-.207-1.584-.6211-2.0332s-1.1094-.6738-2.0859-.6738c-.8047,0-1.4727.2402-2.0039.7207s-.8398,1.127-.9258,1.9395v8.4141h-2.1797v-8.3086c0-1.8438-.9023-2.7656-2.707-2.7656-1.4219,0-2.3945.6055-2.918,1.8164v9.2578h-2.168v-12.6797h2.0508Z" stroke-width="0"/><path d="m649.7695,99.5234c0-1.2422.2441-2.3594.7324-3.3516s1.168-1.7578,2.0391-2.2969,1.8652-.8086,2.9824-.8086c1.7266,0,3.123.5977,4.1895,1.793s1.5996,2.7852,1.5996,4.7695v.1523c0,1.2344-.2363,2.3418-.709,3.3223s-1.1484,1.7441-2.0273,2.291-1.8887.8203-3.0293.8203c-1.7188,0-3.1113-.5977-4.1777-1.793s-1.5996-2.7773-1.5996-4.7461v-.1523Zm2.1797.2578c0,1.4062.3262,2.5352.9785,3.3867s1.5254,1.2773,2.6191,1.2773c1.1016,0,1.9766-.4316,2.625-1.2949s.9727-2.0723.9727-3.627c0-1.3906-.3301-2.5176-.9902-3.3809s-1.5371-1.2949-2.6309-1.2949c-1.0703,0-1.9336.4258-2.5898,1.2773s-.9844,2.0703-.9844,3.6562Z" stroke-width="0"/><path d="m666.9727,90.2305v3.0703h2.3672v1.6758h-2.3672v7.873c0,.5088.1055.8896.3164,1.1445.2109.2539.5703.3809,1.0781.3809.25,0,.5938-.0469,1.0312-.1406v1.748c-.5703.1543-1.125.2324-1.6641.2324-.9688,0-1.6992-.293-2.1914-.8789s-.7383-1.418-.7383-2.4961v-7.8633h-2.3086v-1.6758h2.3086v-3.0703h2.168Z" stroke-width="0"/><path d="m671.8828,89.9375c0-.3516.1074-.6484.3223-.8906s.5332-.3633.9551-.3633.7422.1211.9609.3633.3281.5391.3281.8906-.1094.6445-.3281.8789-.5391.3516-.9609.3516-.7402-.1172-.9551-.3516-.3223-.5273-.3223-.8789Zm2.3438,16.043h-2.168v-12.6797h2.168v12.6797Z" stroke-width="0"/><path d="m677.1211,99.5234c0-1.2422.2441-2.3594.7324-3.3516s1.168-1.7578,2.0391-2.2969,1.8652-.8086,2.9824-.8086c1.7266,0,3.123.5977,4.1895,1.793s1.5996,2.7852,1.5996,4.7695v.1523c0,1.2344-.2363,2.3418-.709,3.3223s-1.1484,1.7441-2.0273,2.291-1.8887.8203-3.0293.8203c-1.7188,0-3.1113-.5977-4.1777-1.793s-1.5996-2.7773-1.5996-4.7461v-.1523Zm2.1797.2578c0,1.4062.3262,2.5352.9785,3.3867s1.5254,1.2773,2.6191,1.2773c1.1016,0,1.9766-.4316,2.625-1.2949s.9727-2.0723.9727-3.627c0-1.3906-.3301-2.5176-.9902-3.3809s-1.5371-1.2949-2.6309-1.2949c-1.0703,0-1.9336.4258-2.5898,1.2773s-.9844,2.0703-.9844,3.6562Z" stroke-width="0"/><path d="m693.4336,93.3008l.0703,1.5938c.9688-1.2188,2.2344-1.8281,3.7969-1.8281,2.6797,0,4.0312,1.5117,4.0547,4.5352v8.3789h-2.168v-8.3906c-.0078-.9141-.2168-1.5898-.627-2.0273s-1.0488-.6562-1.916-.6562c-.7031,0-1.3203.1875-1.8516.5625s-.9453.8672-1.2422,1.4766v9.0352h-2.168v-12.6797h2.0508Z" stroke-width="0"/><line x1="344.1884" y1="145.1594" x2="525.5886" y2="143.8354" fill="none" stroke-width="0"/><path d="m195.5518,190.6963v6.6797h-2.25v-17.0625h6.293c1.8672,0,3.3301.4766,4.3887,1.4297s1.5879,2.2148,1.5879,3.7852c0,1.6562-.5176,2.9316-1.5527,3.8262s-2.5176,1.3418-4.4473,1.3418h-4.0195Zm0-1.8398h4.043c1.2031,0,2.125-.2832,2.7656-.8516.6406-.5664.9609-1.3867.9609-2.459,0-1.0176-.3203-1.8311-.9609-2.4414s-1.5195-.9277-2.6367-.9512h-4.1719v6.7031Z" stroke-width="0"/><path d="m215.8018,197.376c-.125-.25-.2266-.6953-.3047-1.3359-1.0078,1.0469-2.2109,1.5703-3.6094,1.5703-1.25,0-2.2754-.3535-3.0762-1.0605s-1.2012-1.6035-1.2012-2.6895c0-1.3203.502-2.3457,1.5059-3.0762s2.416-1.0957,4.2363-1.0957h2.1094v-.9961c0-.7578-.2266-1.3613-.6797-1.8105s-1.1211-.6738-2.0039-.6738c-.7734,0-1.4219.1953-1.9453.5859s-.7852.8633-.7852,1.418h-2.1797c0-.6328.2246-1.2441.6738-1.834s1.0586-1.0566,1.8281-1.4004,1.6152-.5156,2.5371-.5156c1.4609,0,2.6055.3652,3.4336,1.0957s1.2578,1.7363,1.2891,3.0176v5.8359c0,1.1641.1484,2.0898.4453,2.7773v.1875h-2.2734Zm-3.5977-1.6523c.6797,0,1.3242-.1758,1.9336-.5273s1.0508-.8086,1.3242-1.3711v-2.6016h-1.6992c-2.6562,0-3.9844.7773-3.9844,2.332,0,.6797.2266,1.2109.6797,1.5938s1.0352.5742,1.7461.5742Z" stroke-width="0"/><path d="m227.1572,186.6416c-.3281-.0547-.6836-.082-1.0664-.082-1.4219,0-2.3867.6055-2.8945,1.8164v9h-2.168v-12.6797h2.1094l.0352,1.4648c.7109-1.1328,1.7188-1.6992,3.0234-1.6992.4219,0,.7422.0547.9609.1641v2.0156Z" stroke-width="0"/><path d="m232.6768,181.626v3.0703h2.3672v1.6758h-2.3672v7.873c0,.5088.1055.8896.3164,1.1445.2109.2539.5703.3809,1.0781.3809.25,0,.5938-.0469,1.0312-.1406v1.748c-.5703.1543-1.125.2324-1.6641.2324-.9688,0-1.6992-.293-2.1914-.8789s-.7383-1.418-.7383-2.4961v-7.8633h-2.3086v-1.6758h2.3086v-3.0703h2.168Z" stroke-width="0"/><path d="m237.5869,181.333c0-.3516.1074-.6484.3223-.8906s.5332-.3633.9551-.3633.7422.1211.9609.3633.3281.5391.3281.8906-.1094.6445-.3281.8789-.5391.3516-.9609.3516-.7402-.1172-.9551-.3516-.3223-.5273-.3223-.8789Zm2.3438,16.043h-2.168v-12.6797h2.168v12.6797Z" stroke-width="0"/><path d="m248.4854,195.8408c.7734,0,1.4492-.2344,2.0273-.7031s.8984-1.0547.9609-1.7578h2.0508c-.0391.7266-.2891,1.418-.75,2.0742s-1.0762,1.1797-1.8457,1.5703-1.584.5859-2.4434.5859c-1.7266,0-3.0996-.5762-4.1191-1.7285s-1.5293-2.7285-1.5293-4.7285v-.3633c0-1.2344.2266-2.332.6797-3.293s1.1035-1.707,1.9512-2.2383,1.8496-.7969,3.0059-.7969c1.4219,0,2.6035.4258,3.5449,1.2773s1.4434,1.957,1.5059,3.3164h-2.0508c-.0625-.8203-.373-1.4941-.9316-2.0215s-1.248-.791-2.0684-.791c-1.1016,0-1.9551.3965-2.5605,1.1895s-.9082,1.9395-.9082,3.4395v.4102c0,1.4609.3008,2.5859.9023,3.375s1.4609,1.1836,2.5781,1.1836Z" stroke-width="0"/><path d="m258.3174,197.376h-2.168v-18h2.168v18Z" stroke-width="0"/><path d="m267.0479,197.6104c-1.7188,0-3.1172-.5645-4.1953-1.6934s-1.6172-2.6387-1.6172-4.5293v-.3984c0-1.2578.2402-2.3809.7207-3.3691s1.1523-1.7617,2.0156-2.3203,1.7988-.8379,2.8066-.8379c1.6484,0,2.9297.543,3.8438,1.6289s1.3711,2.6406,1.3711,4.6641v.9023h-8.5898c.0312,1.25.3965,2.2598,1.0957,3.0293s1.5879,1.1543,2.666,1.1543c.7656,0,1.4141-.1562,1.9453-.4688s.9961-.7266,1.3945-1.2422l1.3242,1.0312c-1.0625,1.6328-2.6562,2.4492-4.7812,2.4492Zm-.2695-11.3672c-.875,0-1.6094.3184-2.2031.9551s-.9609,1.5293-1.1016,2.6777h6.3516v-.1641c-.0625-1.1016-.3594-1.9551-.8906-2.5605s-1.25-.9082-2.1562-.9082Z" stroke-width="0"/><path d="m282.4814,184.6963l.0586,1.4062c.9297-1.0938,2.1836-1.6406,3.7617-1.6406,1.7734,0,2.9805.6797,3.6211,2.0391.4219-.6094.9707-1.1016,1.6465-1.4766s1.4746-.5625,2.3965-.5625c2.7812,0,4.1953,1.4727,4.2422,4.418v8.4961h-2.168v-8.3672c0-.9062-.207-1.584-.6211-2.0332s-1.1094-.6738-2.0859-.6738c-.8047,0-1.4727.2402-2.0039.7207s-.8398,1.127-.9258,1.9395v8.4141h-2.1797v-8.3086c0-1.8438-.9023-2.7656-2.707-2.7656-1.4219,0-2.3945.6055-2.918,1.8164v9.2578h-2.168v-12.6797h2.0508Z" stroke-width="0"/><path d="m300.9033,190.9189c0-1.2422.2441-2.3594.7324-3.3516s1.168-1.7578,2.0391-2.2969,1.8652-.8086,2.9824-.8086c1.7266,0,3.123.5977,4.1895,1.793s1.5996,2.7852,1.5996,4.7695v.1523c0,1.2344-.2363,2.3418-.709,3.3223s-1.1484,1.7441-2.0273,2.291-1.8887.8203-3.0293.8203c-1.7188,0-3.1113-.5977-4.1777-1.793s-1.5996-2.7773-1.5996-4.7461v-.1523Zm2.1797.2578c0,1.4062.3262,2.5352.9785,3.3867s1.5254,1.2773,2.6191,1.2773c1.1016,0,1.9766-.4316,2.625-1.2949s.9727-2.0723.9727-3.627c0-1.3906-.3301-2.5176-.9902-3.3809s-1.5371-1.2949-2.6309-1.2949c-1.0703,0-1.9336.4258-2.5898,1.2773s-.9844,2.0703-.9844,3.6562Z" stroke-width="0"/><path d="m318.1064,181.626v3.0703h2.3672v1.6758h-2.3672v7.873c0,.5088.1055.8896.3164,1.1445.2109.2539.5703.3809,1.0781.3809.25,0,.5938-.0469,1.0312-.1406v1.748c-.5703.1543-1.125.2324-1.6641.2324-.9688,0-1.6992-.293-2.1914-.8789s-.7383-1.418-.7383-2.4961v-7.8633h-2.3086v-1.6758h2.3086v-3.0703h2.168Z" stroke-width="0"/><path d="m323.0166,181.333c0-.3516.1074-.6484.3223-.8906s.5332-.3633.9551-.3633.7422.1211.9609.3633.3281.5391.3281.8906-.1094.6445-.3281.8789-.5391.3516-.9609.3516-.7402-.1172-.9551-.3516-.3223-.5273-.3223-.8789Zm2.3438,16.043h-2.168v-12.6797h2.168v12.6797Z" stroke-width="0"/><path d="m328.2549,190.9189c0-1.2422.2441-2.3594.7324-3.3516s1.168-1.7578,2.0391-2.2969,1.8652-.8086,2.9824-.8086c1.7266,0,3.123.5977,4.1895,1.793s1.5996,2.7852,1.5996,4.7695v.1523c0,1.2344-.2363,2.3418-.709,3.3223s-1.1484,1.7441-2.0273,2.291-1.8887.8203-3.0293.8203c-1.7188,0-3.1113-.5977-4.1777-1.793s-1.5996-2.7773-1.5996-4.7461v-.1523Zm2.1797.2578c0,1.4062.3262,2.5352.9785,3.3867s1.5254,1.2773,2.6191,1.2773c1.1016,0,1.9766-.4316,2.625-1.2949s.9727-2.0723.9727-3.627c0-1.3906-.3301-2.5176-.9902-3.3809s-1.5371-1.2949-2.6309-1.2949c-1.0703,0-1.9336.4258-2.5898,1.2773s-.9844,2.0703-.9844,3.6562Z" stroke-width="0"/><path d="m344.5674,184.6963l.0703,1.5938c.9688-1.2188,2.2344-1.8281,3.7969-1.8281,2.6797,0,4.0312,1.5117,4.0547,4.5352v8.3789h-2.168v-8.3906c-.0078-.9141-.2168-1.5898-.627-2.0273s-1.0488-.6562-1.916-.6562c-.7031,0-1.3203.1875-1.8516.5625s-.9453.8672-1.2422,1.4766v9.0352h-2.168v-12.6797h2.0508Z" stroke-width="0"/><line x1="421.7332" y1="122.9491" x2="716.793" y2="122.9491" fill="none" stroke="#000" stroke-miterlimit="10" stroke-width="2"/><polygon points="714.4585 130.9273 728.2749 122.9491 714.4585 114.971 714.4585 130.9273" stroke-width="0"/><line x1="374.8882" y1="180.3623" x2="495.9083" y2="180.3623" fill="none" stroke="#000" stroke-miterlimit="10" stroke-width="2"/><polygon points="493.5739 188.3404 507.3903 180.3623 493.5739 172.3842 493.5739 188.3404" stroke-width="0"/><line x1="507.3903" y1="200.3783" x2="386.3702" y2="200.3783" fill="none" stroke="#000" stroke-miterlimit="10" stroke-width="2"/><polygon points="388.7046 192.4002 374.8882 200.3783 388.7046 208.3564 388.7046 192.4002" stroke-width="0"/><path d="m380.8154,510.6943c-.2109,1.8047-.877,3.1973-1.998,4.1777s-2.6113,1.4707-4.4707,1.4707c-2.0156,0-3.6309-.7227-4.8457-2.168s-1.8223-3.3789-1.8223-5.8008v-1.6406c0-1.5859.2832-2.9805.8496-4.1836s1.3691-2.127,2.4082-2.7715,2.2422-.9668,3.6094-.9668c1.8125,0,3.2656.5059,4.3594,1.5176s1.7305,2.4121,1.9102,4.2012h-2.2617c-.1953-1.3633-.6191-2.3506-1.2715-2.9619s-1.5645-.917-2.7363-.917c-1.4375,0-2.5645.5312-3.3809,1.5957-.8164,1.0625-1.2246,2.5762-1.2246,4.5381v1.6543c0,1.8525.3867,3.3271,1.1602,4.4219s1.8555,1.6416,3.2461,1.6416c1.25,0,2.209-.2832,2.877-.8496s1.1113-1.5527,1.3301-2.959h2.2617Z" stroke-width="0"/><path d="m546.5459,509.2061h-4.0078v6.9023h-2.2617v-17.0625h5.6484c1.9219,0,3.4004.4375,4.4355,1.3125s1.5527,2.1484,1.5527,3.8203c0,1.0625-.2871,1.9883-.8613,2.7773s-1.373,1.3789-2.3965,1.7695l4.0078,7.2422v.1406h-2.4141l-3.7031-6.9023Zm-4.0078-1.8398h3.457c1.1172,0,2.0059-.2891,2.666-.8691.6602-.5791.9902-1.3535.9902-2.3242,0-1.0566-.3145-1.8662-.9434-2.4297s-1.5371-.8496-2.7246-.8574h-3.4453v6.4805Z" stroke-width="0"/><path d="m724.0195,510.6943c-.2109,1.8047-.877,3.1973-1.998,4.1777s-2.6113,1.4707-4.4707,1.4707c-2.0156,0-3.6309-.7227-4.8457-2.168s-1.8223-3.3789-1.8223-5.8008v-1.6406c0-1.5859.2832-2.9805.8496-4.1836s1.3691-2.127,2.4082-2.7715,2.2422-.9668,3.6094-.9668c1.8125,0,3.2656.5059,4.3594,1.5176s1.7305,2.4121,1.9102,4.2012h-2.2617c-.1953-1.3633-.6191-2.3506-1.2715-2.9619s-1.5645-.917-2.7363-.917c-1.4375,0-2.5645.5312-3.3809,1.5957-.8164,1.0625-1.2246,2.5762-1.2246,4.5381v1.6543c0,1.8525.3867,3.3271,1.1602,4.4219s1.8555,1.6416,3.2461,1.6416c1.25,0,2.209-.2832,2.877-.8496s1.1113-1.5527,1.3301-2.959h2.2617Z" stroke-width="0"/><path d="m889.751,509.2061h-4.0078v6.9023h-2.2617v-17.0625h5.6484c1.9219,0,3.4004.4375,4.4355,1.3125s1.5527,2.1484,1.5527,3.8203c0,1.0625-.2871,1.9883-.8613,2.7773s-1.373,1.3789-2.3965,1.7695l4.0078,7.2422v.1406h-2.4141l-3.7031-6.9023Zm-4.0078-1.8398h3.457c1.1172,0,2.0059-.2891,2.666-.8691.6602-.5791.9902-1.3535.9902-2.3242,0-1.0566-.3145-1.8662-.9434-2.4297s-1.5371-.8496-2.7246-.8574h-3.4453v6.4805Z" stroke-width="0"/><use width="8" height="8" transform="translate(340.0102 288.6896)" xlink:href="#a"/><use width="8" height="8" transform="translate(360.0262 278.6816)" xlink:href="#a"/><use width="8" height="8" transform="translate(350.0182 268.6736)" xlink:href="#a"/><use width="8" height="8" transform="translate(350.6611 316.6493)" xlink:href="#a"/><use width="8" height="8" transform="translate(356.0262 298.385)" xlink:href="#a"/><use width="8" height="8" transform="translate(340.0102 312.6493)" xlink:href="#a"/><use width="8" height="8" transform="translate(370.8249 326.6712)" xlink:href="#a"/><use width="8" height="8" transform="translate(346.6611 346.1574)" xlink:href="#a"/><use width="8" height="8" transform="translate(350.6611 331.4033)" xlink:href="#a"/><use width="8" height="8" transform="translate(336.0102 336.6089)" xlink:href="#a"/><use width="8" height="8" transform="translate(334.0653 274.6816)" xlink:href="#a"/><use width="8" height="8" transform="translate(336.0102 301.6654)" xlink:href="#a"/><use width="8" height="8" transform="translate(366.8249 312.6493)" xlink:href="#a"/><use width="8" height="8" transform="translate(366.8249 293.6654)" xlink:href="#a"/><use width="8" height="8" transform="translate(366.8249 354.1574)" xlink:href="#a"/><use width="8" height="8" transform="translate(350.0182 364.6249)" xlink:href="#a"/><use width="8" height="8" transform="translate(362.8249 374.8913)" xlink:href="#a"/><use width="8" height="8" transform="translate(338.0653 358.1574)" xlink:href="#a"/><use width="8" height="8" transform="translate(344.0102 378.8913)" xlink:href="#a"/><use width="8" height="8" transform="translate(354.6611 384.4693)" xlink:href="#a"/><use width="8" height="8" transform="translate(342.0653 395.3683)" xlink:href="#a"/><use width="8" height="8" transform="translate(354.6611 398.0105)" xlink:href="#a"/><use width="8" height="8" transform="translate(366.8249 388.4693)" xlink:href="#a"/><use width="8" height="8" transform="translate(373.4671 364.6249)" xlink:href="#a"/><use width="8" height="8" transform="translate(364.0262 340.4143)" xlink:href="#a"/><use width="8" height="8" transform="translate(334.0653 386.8913)" xlink:href="#a"/><use width="8" height="8" transform="translate(334.0653 413.5594)" xlink:href="#a"/><use width="8" height="8" transform="translate(346.0182 409.5594)" xlink:href="#a"/><use width="8" height="8" transform="translate(360.0262 417.5594)" xlink:href="#a"/><use width="8" height="8" transform="translate(366.8249 403.0143)" xlink:href="#a"/><use width="8" height="8" transform="translate(344.0102 425.5594)" xlink:href="#a"/><use width="8" height="8" transform="translate(374.8249 421.5594)" xlink:href="#a"/><use width="8" height="8" transform="translate(377.4671 380.4693)" xlink:href="#a"/><use width="8" height="8" transform="translate(386.4947 403.5518)" xlink:href="#a"/><use width="8" height="8" transform="translate(374.8249 398.0105)" xlink:href="#a"/><use width="8" height="8" transform="translate(374.8249 346.1574)" xlink:href="#a"/><use width="8" height="8" transform="translate(385.4671 316.6493)" xlink:href="#a"/><use width="8" height="8" transform="translate(374.8249 302.385)" xlink:href="#a"/><use width="8" height="8" transform="translate(381.4671 330.6712)" xlink:href="#a"/><use width="8" height="8" transform="translate(373.4671 284.6896)" xlink:href="#a"/><use width="8" height="8" transform="translate(348.0102 287.1411)" xlink:href="#a"/><use width="8" height="8" transform="translate(373.4671 268.6736)" xlink:href="#a"/><use width="8" height="8" transform="translate(382.8249 292.6896)" xlink:href="#a"/><use width="8" height="8" transform="translate(360.0262 259.6978)" xlink:href="#a"/><use width="8" height="8" transform="translate(344.0102 259.6978)" xlink:href="#a"/><use width="8" height="8" transform="translate(369.4671 259.6978)" xlink:href="#a"/><use width="8" height="8" transform="translate(350.6611 248.0659)" xlink:href="#a"/><use width="8" height="8" transform="translate(338.0653 248.0659)" xlink:href="#a"/><use width="8" height="8" transform="translate(342.0653 326.6712)" xlink:href="#a"/><use width="8" height="8" transform="translate(356.0262 354.7813)" xlink:href="#a"/><use width="8" height="8" transform="translate(354.6611 429.8235)" xlink:href="#a"/><use width="8" height="8" transform="translate(362.0182 324.6493)" xlink:href="#a"/><use width="8" height="8" transform="translate(381.4671 358.1574)" xlink:href="#a"/><use width="8" height="8" transform="translate(369.4671 413.5594)" xlink:href="#a"/><use width="8" height="8" transform="translate(364.0262 252.0659)" xlink:href="#a"/><use width="8" height="8" transform="translate(378.8249 247.0172)" xlink:href="#a"/><use width="8" height="8" transform="translate(381.4671 259.6978)" xlink:href="#a"/><use width="8" height="8" transform="translate(384.4396 276.6736)" xlink:href="#a"/><use width="8" height="8" transform="translate(332.0102 370.8913)" xlink:href="#a"/><use width="8" height="8" transform="translate(348.0102 307.1573)" xlink:href="#a"/><use width="8" height="8" transform="translate(730.2835 397.7971) rotate(-180)" xlink:href="#a"/><use width="8" height="8" transform="translate(705.6252 405.051) rotate(-180)" xlink:href="#a"/><use width="8" height="8" transform="translate(715.6332 415.059) rotate(-180)" xlink:href="#a"/><use width="8" height="8" transform="translate(714.9903 367.0834) rotate(-180)" xlink:href="#a"/><use width="8" height="8" transform="translate(709.6252 385.3476) rotate(-180)" xlink:href="#a"/><use width="8" height="8" transform="translate(725.6412 371.0834) rotate(-180)" xlink:href="#a"/><use width="8" height="8" transform="translate(694.8265 357.0614) rotate(-180)" xlink:href="#a"/><use width="8" height="8" transform="translate(718.9903 337.5752) rotate(-180)" xlink:href="#a"/><use width="8" height="8" transform="translate(714.9903 352.3293) rotate(-180)" xlink:href="#a"/><use width="8" height="8" transform="translate(729.6412 347.1238) rotate(-180)" xlink:href="#a"/><use width="8" height="8" transform="translate(731.5861 409.051) rotate(-180)" xlink:href="#a"/><use width="8" height="8" transform="translate(729.6412 382.0672) rotate(-180)" xlink:href="#a"/><use width="8" height="8" transform="translate(698.8265 371.0834) rotate(-180)" xlink:href="#a"/><use width="8" height="8" transform="translate(698.8265 390.0672) rotate(-180)" xlink:href="#a"/><use width="8" height="8" transform="translate(698.8265 329.5752) rotate(-180)" xlink:href="#a"/><use width="8" height="8" transform="translate(715.6332 319.1078) rotate(-180)" xlink:href="#a"/><use width="8" height="8" transform="translate(702.8265 308.8413) rotate(-180)" xlink:href="#a"/><use width="8" height="8" transform="translate(727.5861 325.5752) rotate(-180)" xlink:href="#a"/><use width="8" height="8" transform="translate(721.6412 304.8413) rotate(-180)" xlink:href="#a"/><use width="8" height="8" transform="translate(710.9903 299.2634) rotate(-180)" xlink:href="#a"/><use width="8" height="8" transform="translate(723.5861 288.3643) rotate(-180)" xlink:href="#a"/><use width="8" height="8" transform="translate(710.9903 285.7221) rotate(-180)" xlink:href="#a"/><use width="8" height="8" transform="translate(698.8265 295.2634) rotate(-180)" xlink:href="#a"/><use width="8" height="8" transform="translate(692.1843 319.1078) rotate(-180)" xlink:href="#a"/><use width="8" height="8" transform="translate(701.6252 343.3183) rotate(-180)" xlink:href="#a"/><use width="8" height="8" transform="translate(731.5861 296.8413) rotate(-180)" xlink:href="#a"/><use width="8" height="8" transform="translate(731.5861 270.1732) rotate(-180)" xlink:href="#a"/><use width="8" height="8" transform="translate(719.6332 274.1732) rotate(-180)" xlink:href="#a"/><use width="8" height="8" transform="translate(705.6252 266.1732) rotate(-180)" xlink:href="#a"/><use width="8" height="8" transform="translate(698.8265 280.7183) rotate(-180)" xlink:href="#a"/><use width="8" height="8" transform="translate(721.6412 258.1732) rotate(-180)" xlink:href="#a"/><use width="8" height="8" transform="translate(690.8265 262.1732) rotate(-180)" xlink:href="#a"/><use width="8" height="8" transform="translate(688.1843 303.2634) rotate(-180)" xlink:href="#a"/><use width="8" height="8" transform="translate(686.8265 276.1809) rotate(-180)" xlink:href="#a"/><use width="8" height="8" transform="translate(690.8265 285.7221) rotate(-180)" xlink:href="#a"/><use width="8" height="8" transform="translate(690.8265 337.5752) rotate(-180)" xlink:href="#a"/><use width="8" height="8" transform="translate(680.1843 367.0834) rotate(-180)" xlink:href="#a"/><use width="8" height="8" transform="translate(690.8265 381.3476) rotate(-180)" xlink:href="#a"/><use width="8" height="8" transform="translate(684.1843 353.0614) rotate(-180)" xlink:href="#a"/><use width="8" height="8" transform="translate(692.1843 399.043) rotate(-180)" xlink:href="#a"/><use width="8" height="8" transform="translate(717.6412 396.5915) rotate(-180)" xlink:href="#a"/><use width="8" height="8" transform="translate(692.1843 415.059) rotate(-180)" xlink:href="#a"/><use width="8" height="8" transform="translate(682.8265 391.043) rotate(-180)" xlink:href="#a"/><use width="8" height="8" transform="translate(705.6857 419.4683) rotate(-180)" xlink:href="#a"/><use width="8" height="8" transform="translate(721.6412 424.0348) rotate(-180)" xlink:href="#a"/><use width="8" height="8" transform="translate(696.1843 424.0348) rotate(-180)" xlink:href="#a"/><use width="8" height="8" transform="translate(714.9903 435.6668) rotate(-180)" xlink:href="#a"/><use width="8" height="8" transform="translate(727.5861 435.6668) rotate(-180)" xlink:href="#a"/><use width="8" height="8" transform="translate(723.5861 357.0614) rotate(-180)" xlink:href="#a"/><use width="8" height="8" transform="translate(709.6252 328.9514) rotate(-180)" xlink:href="#a"/><use width="8" height="8" transform="translate(710.9903 253.9091) rotate(-180)" xlink:href="#a"/><use width="8" height="8" transform="translate(703.6332 359.0834) rotate(-180)" xlink:href="#a"/><use width="8" height="8" transform="translate(684.1843 325.5752) rotate(-180)" xlink:href="#a"/><use width="8" height="8" transform="translate(696.1843 270.1732) rotate(-180)" xlink:href="#a"/><use width="8" height="8" transform="translate(703.129 433.8235) rotate(-180)" xlink:href="#a"/><use width="8" height="8" transform="translate(686.8265 436.7154) rotate(-180)" xlink:href="#a"/><use width="8" height="8" transform="translate(684.1843 424.0348) rotate(-180)" xlink:href="#a"/><use width="8" height="8" transform="translate(681.2118 407.059) rotate(-180)" xlink:href="#a"/><use width="8" height="8" transform="translate(733.6412 312.8413) rotate(-180)" xlink:href="#a"/><use width="8" height="8" transform="translate(717.6412 376.5753) rotate(-180)" xlink:href="#a"/><use width="8" height="8" transform="translate(394.4947 286.5986)" xlink:href="#a"/><use width="8" height="8" transform="translate(406.4476 270.5826)" xlink:href="#a"/><use width="8" height="8" transform="translate(407.0905 318.5582)" xlink:href="#a"/><use width="8" height="8" transform="translate(396.4396 314.5582)" xlink:href="#a"/><use width="8" height="8" transform="translate(403.0905 348.0664)" xlink:href="#a"/><use width="8" height="8" transform="translate(407.0905 333.3123)" xlink:href="#a"/><use width="8" height="8" transform="translate(388.4396 344.0664)" xlink:href="#a"/><use width="8" height="8" transform="translate(392.4396 272.6736)" xlink:href="#a"/><use width="8" height="8" transform="translate(392.4396 303.5744)" xlink:href="#a"/><use width="8" height="8" transform="translate(406.4476 366.5338)" xlink:href="#a"/><use width="8" height="8" transform="translate(394.4947 360.0664)" xlink:href="#a"/><use width="8" height="8" transform="translate(400.4396 380.8002)" xlink:href="#a"/><use width="8" height="8" transform="translate(398.4947 397.2773)" xlink:href="#a"/><use width="8" height="8" transform="translate(390.4947 388.8002)" xlink:href="#a"/><use width="8" height="8" transform="translate(390.4947 415.4683)" xlink:href="#a"/><use width="8" height="8" transform="translate(402.4476 411.4683)" xlink:href="#a"/><use width="8" height="8" transform="translate(400.4396 427.4683)" xlink:href="#a"/><use width="8" height="8" transform="translate(404.4396 289.05)" xlink:href="#a"/><use width="8" height="8" transform="translate(400.4396 261.6068)" xlink:href="#a"/><use width="8" height="8" transform="translate(407.0905 249.9748)" xlink:href="#a"/><use width="8" height="8" transform="translate(394.4947 249.9748)" xlink:href="#a"/><use width="8" height="8" transform="translate(394.4947 332.5802)" xlink:href="#a"/><use width="8" height="8" transform="translate(388.4396 372.8002)" xlink:href="#a"/><use width="8" height="8" transform="translate(404.4396 309.0663)" xlink:href="#a"/><use width="8" height="8" transform="translate(754.5617 396.5982) rotate(-180)" xlink:href="#a"/><use width="8" height="8" transform="translate(740.7893 415.4452) rotate(-180)" xlink:href="#a"/><use width="8" height="8" transform="translate(740.1464 367.4696) rotate(-180)" xlink:href="#a"/><use width="8" height="8" transform="translate(750.7973 371.4696) rotate(-180)" xlink:href="#a"/><use width="8" height="8" transform="translate(744.1464 337.9615) rotate(-180)" xlink:href="#a"/><use width="8" height="8" transform="translate(740.1464 352.7155) rotate(-180)" xlink:href="#a"/><use width="8" height="8" transform="translate(754.7973 347.51) rotate(-180)" xlink:href="#a"/><use width="8" height="8" transform="translate(756.7423 409.4372) rotate(-180)" xlink:href="#a"/><use width="8" height="8" transform="translate(754.7973 382.4534) rotate(-180)" xlink:href="#a"/><use width="8" height="8" transform="translate(740.7893 319.494) rotate(-180)" xlink:href="#a"/><use width="8" height="8" transform="translate(752.7423 325.9615) rotate(-180)" xlink:href="#a"/><use width="8" height="8" transform="translate(746.7973 305.2276) rotate(-180)" xlink:href="#a"/><use width="8" height="8" transform="translate(748.7423 288.7506) rotate(-180)" xlink:href="#a"/><use width="8" height="8" transform="translate(756.7423 297.2276) rotate(-180)" xlink:href="#a"/><use width="8" height="8" transform="translate(756.7423 270.5595) rotate(-180)" xlink:href="#a"/><use width="8" height="8" transform="translate(744.7893 274.5595) rotate(-180)" xlink:href="#a"/><use width="8" height="8" transform="translate(734.18 283.0003) rotate(-180)" xlink:href="#a"/><use width="8" height="8" transform="translate(751.3247 256.3252) rotate(-180)" xlink:href="#a"/><use width="8" height="8" transform="translate(737.6419 261.9748) rotate(-180)" xlink:href="#a"/><use width="8" height="8" transform="translate(742.7973 396.9778) rotate(-180)" xlink:href="#a"/><use width="8" height="8" transform="translate(746.7973 424.421) rotate(-180)" xlink:href="#a"/><use width="8" height="8" transform="translate(740.1464 436.053) rotate(-180)" xlink:href="#a"/><use width="8" height="8" transform="translate(752.7423 436.053) rotate(-180)" xlink:href="#a"/><use width="8" height="8" transform="translate(748.7423 357.4477) rotate(-180)" xlink:href="#a"/><use width="8" height="8" transform="translate(758.7973 313.2276) rotate(-180)" xlink:href="#a"/><use width="8" height="8" transform="translate(742.7973 376.9615) rotate(-180)" xlink:href="#a"/><use width="8" height="8" transform="translate(434.5044 298.385)" xlink:href="#a"/><use width="8" height="8" transform="translate(433.1392 384.4693)" xlink:href="#a"/><use width="8" height="8" transform="translate(421.1392 354.1574)" xlink:href="#a"/><use width="8" height="8" transform="translate(464.9728 403.5518)" xlink:href="#a"/><use width="8" height="8" transform="translate(513.8551 413.1824)" xlink:href="#a"/><use width="8" height="8" transform="translate(453.303 346.1574)" xlink:href="#a"/><use width="8" height="8" transform="translate(433.1392 429.8235)" xlink:href="#a"/><use width="8" height="8" transform="translate(442.5044 252.0659)" xlink:href="#a"/><use width="8" height="8" transform="translate(425.1392 274.6816)" xlink:href="#a"/><use width="8" height="8" transform="translate(462.9178 276.6736)" xlink:href="#a"/><use width="8" height="8" transform="translate(560.0454 267.6978)" xlink:href="#a"/><use width="8" height="8" transform="translate(581.5499 248.0659)" xlink:href="#a"/><use width="8" height="8" transform="translate(626.6141 263.6978)" xlink:href="#a"/><use width="8" height="8" transform="translate(652.0452 248.0659)" xlink:href="#a"/><use width="8" height="8" transform="translate(496.596 322.5582)" xlink:href="#a"/><use width="8" height="8" transform="translate(660.0452 303.5744)" xlink:href="#a"/><use width="8" height="8" transform="translate(668.0452 370.8913)" xlink:href="#a"/><use width="8" height="8" transform="translate(646.3572 390.8913)" xlink:href="#a"/><use width="8" height="8" transform="translate(552.0454 348.0664)" xlink:href="#a"/><use width="8" height="8" transform="translate(581.5499 327.4033)" xlink:href="#a"/><use width="8" height="8" transform="translate(556.0454 296.6896)" xlink:href="#a"/><use width="8" height="8" transform="translate(492.596 299.5744)" xlink:href="#a"/><use width="8" height="8" transform="translate(484.9258 366.5338)" xlink:href="#a"/><use width="8" height="8" transform="translate(526.1005 390.8913)" xlink:href="#a"/><use width="8" height="8" transform="translate(585.5499 370.5338)" xlink:href="#a"/><use width="8" height="8" transform="translate(576.1061 411.4683)" xlink:href="#a"/><use width="8" height="8" transform="translate(618.6141 423.4683)" xlink:href="#a"/><use width="8" height="8" transform="translate(624.7425 352.0664)" xlink:href="#a"/><use width="8" height="8" transform="translate(478.9178 427.4683)" xlink:href="#a"/><use width="8" height="8" transform="translate(550.2839 437.1791)" xlink:href="#a"/><use width="8" height="8" transform="translate(472.9728 249.9748)" xlink:href="#a"/><use width="8" height="8" transform="translate(517.8551 263.6978)" xlink:href="#a"/><use width="8" height="8" transform="translate(982.0214 279.6796) rotate(-180)" xlink:href="#a"/><use width="8" height="8" transform="translate(980.7506 354.1574) rotate(-180)" xlink:href="#a"/><use width="8" height="8" transform="translate(984.0764 406.5577) rotate(-180)" xlink:href="#a"/><use width="8" height="8" transform="translate(886.9488 415.5335) rotate(-180)" xlink:href="#a"/><use width="8" height="8" transform="translate(865.4442 435.1655) rotate(-180)" xlink:href="#a"/><use width="8" height="8" transform="translate(820.3801 419.5335) rotate(-180)" xlink:href="#a"/><use width="8" height="8" transform="translate(794.949 435.1655) rotate(-180)" xlink:href="#a"/><use width="8" height="8" transform="translate(900.821 366.1574) rotate(-180)" xlink:href="#a"/><use width="8" height="8" transform="translate(786.949 379.657) rotate(-180)" xlink:href="#a"/><use width="8" height="8" transform="translate(800.637 292.34) rotate(-180)" xlink:href="#a"/><use width="8" height="8" transform="translate(870.6739 331.4033) rotate(-180)" xlink:href="#a"/><use width="8" height="8" transform="translate(843.3901 366.1574) rotate(-180)" xlink:href="#a"/><use width="8" height="8" transform="translate(875.954 382.8913) rotate(-180)" xlink:href="#a"/><use width="8" height="8" transform="translate(954.3982 383.657) rotate(-180)" xlink:href="#a"/><use width="8" height="8" transform="translate(940.4898 330.5582) rotate(-180)" xlink:href="#a"/><use width="8" height="8" transform="translate(920.8937 292.34) rotate(-180)" xlink:href="#a"/><use width="8" height="8" transform="translate(829.1804 321.7185) rotate(-180)" xlink:href="#a"/><use width="8" height="8" transform="translate(870.888 271.763) rotate(-180)" xlink:href="#a"/><use width="8" height="8" transform="translate(820.2993 260.0659) rotate(-180)" xlink:href="#a"/><use width="8" height="8" transform="translate(782.9988 331.4033) rotate(-180)" xlink:href="#a"/><use width="8" height="8" transform="translate(968.0764 255.763) rotate(-180)" xlink:href="#a"/><use width="8" height="8" transform="translate(900.8863 261.9748) rotate(-180)" xlink:href="#a"/><use width="8" height="8" transform="translate(974.0214 433.2565) rotate(-180)" xlink:href="#a"/><use width="8" height="8" transform="translate(929.1391 419.5335) rotate(-180)" xlink:href="#a"/><use width="8" height="8" transform="translate(340.0102 441.5287)" xlink:href="#a"/><use width="8" height="8" transform="translate(350.6611 469.4883)" xlink:href="#a"/><use width="8" height="8" transform="translate(356.0262 451.2241)" xlink:href="#a"/><use width="8" height="8" transform="translate(340.0102 465.4883)" xlink:href="#a"/><use width="8" height="8" transform="translate(336.0102 454.5045)" xlink:href="#a"/><use width="8" height="8" transform="translate(366.8249 465.4883)" xlink:href="#a"/><use width="8" height="8" transform="translate(366.8249 446.5045)" xlink:href="#a"/><use width="8" height="8" transform="translate(385.4671 469.4883)" xlink:href="#a"/><use width="8" height="8" transform="translate(374.8249 455.2241)" xlink:href="#a"/><use width="8" height="8" transform="translate(373.4671 437.5287)" xlink:href="#a"/><use width="8" height="8" transform="translate(348.0102 439.9802)" xlink:href="#a"/><use width="8" height="8" transform="translate(382.8249 445.5287)" xlink:href="#a"/><use width="8" height="8" transform="translate(362.0182 477.4883)" xlink:href="#a"/><use width="8" height="8" transform="translate(348.0102 459.9964)" xlink:href="#a"/><use width="8" height="8" transform="translate(698.8265 482.4143) rotate(-180)" xlink:href="#a"/><use width="8" height="8" transform="translate(715.6332 471.9468) rotate(-180)" xlink:href="#a"/><use width="8" height="8" transform="translate(702.8265 461.6804) rotate(-180)" xlink:href="#a"/><use width="8" height="8" transform="translate(727.5861 478.4143) rotate(-180)" xlink:href="#a"/><use width="8" height="8" transform="translate(721.6412 457.6804) rotate(-180)" xlink:href="#a"/><use width="8" height="8" transform="translate(710.9903 452.1024) rotate(-180)" xlink:href="#a"/><use width="8" height="8" transform="translate(698.8265 448.1024) rotate(-180)" xlink:href="#a"/><use width="8" height="8" transform="translate(692.1843 471.9468) rotate(-180)" xlink:href="#a"/><use width="8" height="8" transform="translate(731.5861 449.6804) rotate(-180)" xlink:href="#a"/><use width="8" height="8" transform="translate(688.1843 456.1024) rotate(-180)" xlink:href="#a"/><use width="8" height="8" transform="translate(709.6252 481.7904) rotate(-180)" xlink:href="#a"/><use width="8" height="8" transform="translate(684.1843 478.4143) rotate(-180)" xlink:href="#a"/><use width="8" height="8" transform="translate(733.6412 465.6804) rotate(-180)" xlink:href="#a"/><use width="8" height="8" transform="translate(394.4947 439.4377)" xlink:href="#a"/><use width="8" height="8" transform="translate(407.0905 471.3973)" xlink:href="#a"/><use width="8" height="8" transform="translate(396.4396 467.3973)" xlink:href="#a"/><use width="8" height="8" transform="translate(392.4396 456.4135)" xlink:href="#a"/><use width="8" height="8" transform="translate(404.4396 441.8891)" xlink:href="#a"/><use width="8" height="8" transform="translate(404.4396 461.9054)" xlink:href="#a"/><use width="8" height="8" transform="translate(740.7893 472.3331) rotate(-180)" xlink:href="#a"/><use width="8" height="8" transform="translate(752.7423 478.8005) rotate(-180)" xlink:href="#a"/><use width="8" height="8" transform="translate(746.7973 458.0666) rotate(-180)" xlink:href="#a"/><use width="8" height="8" transform="translate(756.7423 450.0666) rotate(-180)" xlink:href="#a"/><use width="8" height="8" transform="translate(758.7973 466.0666) rotate(-180)" xlink:href="#a"/><use width="8" height="8" transform="translate(434.5044 451.2241)" xlink:href="#a"/><use width="8" height="8" transform="translate(496.596 475.3973)" xlink:href="#a"/><use width="8" height="8" transform="translate(660.0452 456.4135)" xlink:href="#a"/><use width="8" height="8" transform="translate(571.004 461.9054)" xlink:href="#a"/><use width="8" height="8" transform="translate(492.596 452.4135)" xlink:href="#a"/><use width="8" height="8" transform="translate(800.637 445.1791) rotate(-180)" xlink:href="#a"/><use width="8" height="8" transform="translate(881.5127 471.3973) rotate(-180)" xlink:href="#a"/><use width="8" height="8" transform="translate(953.1493 483.3973) rotate(-180)" xlink:href="#a"/><use width="8" height="8" transform="translate(920.8937 445.1791) rotate(-180)" xlink:href="#a"/><use width="8" height="8" transform="translate(829.1804 474.5576) rotate(-180)" xlink:href="#a"/><use width="8" height="8" transform="translate(782.9988 484.2424) rotate(-180)" xlink:href="#a"/><line x1="377.5002" y1="540.7499" x2="716.793" y2="540.7499" fill="none" stroke="#000" stroke-miterlimit="10" stroke-width="2"/><polygon points="379.8346 548.728 366.0182 540.7499 379.8346 532.7718 379.8346 548.728" stroke-width="0"/><polygon points="714.4585 548.728 728.2749 540.7499 714.4585 532.7718 714.4585 548.728" stroke-width="0"/><path d="m547.6475,573.4238c.459,2.2676,1.1338,3.9678,2.4023,3.9678.8096,0,1.3223-.2969,1.8623-.9717l.459.2969c-.5674,1.5117-1.6738,2.7803-3.1045,2.7803-1.4844,0-2.2676-1.2412-2.6719-3.293-.4863-2.4297-.4326-4.8047-.7295-7.3965h-.1348c-.6211,1.2148-3.2656,7.6934-4.3184,10.3926h-2.6182l-.0811-.4316c2.0508-3.7793,4.5615-8.584,6.5859-12.3896-.0537-.5674-.0811-.6211-.2158-1.458-.3242-1.6738-1.1338-2.834-2.2676-2.834-.8096,0-1.377.3242-1.917,1.0527l-.458-.2158c.6475-1.6201,1.457-2.7803,3.1035-2.7803,1.8359,0,2.2402,1.8623,2.6729,3.9951.6201,3.293.8633,6.3154,1.4307,9.2852Z" stroke-width="0"/></svg>