<?xml version="1.0" encoding="UTF-8"?><svg id="a" xmlns="http://www.w3.org/2000/svg" width="1140" height="547" xmlns:xlink="http://www.w3.org/1999/xlink" viewBox="0 0 1140 547"><defs><clipPath id="b"><path d="m182.2,52.95C86.18,85.41-1.16,180.7.19,294.59c1.24,104.97,77.84,193.87,165.04,228.35,87.2,34.47,182.75,25.21,274.03,9.5,71.41-12.29,143.48-20.86,215.76-21.31,121.05-.75,252.19,70.77,369.19,9.12,108.46-57.15,147.3-216.97,88.22-332.97-55.44-108.88-168.03-167.07-278.26-178.05-65.13-6.49-130.62,6.38-194.27,20.91-73.67,16.81-148.35,24.48-223.32,16.96-78.21-7.84-157.64-20.1-234.38,5.85Z" fill="none"/></clipPath></defs><g clip-path="url(#b)"><rect y="-8.5" width="1147" height="409" fill="#f4f4e9"/><rect x="-11" y="383.5" width="1158" height="249" fill="#efcc8f"/></g><polygon points="193.21 304.83 503.32 304.83 520.55 314.11 520.55 399.05 503.32 413.5 193.21 413.5 193.21 304.83" fill="#e28e33"/><polygon points="504.65 409.52 504.65 308.8 519.22 315.43 519.22 397.6 504.65 409.52" fill="#a04d15"/><path d="m519.35,316.29c-1.21.99-2.43.83-3.64.94-1.21.08-2.43.12-3.64.12-1.21,0-2.43-.06-3.64-.13-1.21-.08-2.43-.01-3.64-.93v-.29c1.21-.91,2.43-.85,3.64-.93,1.21-.08,2.43-.13,3.64-.13,1.21,0,2.43.04,3.64.12,1.21.1,2.43-.05,3.64.94v.29h0Z" fill="#723206"/><rect x="338.99" y="251.82" width="26.51" height="41.08" fill="#bcc1bf"/><path d="m519.22,397.74c-1.21.99-2.43.83-3.64.94-1.21.08-2.43.12-3.64.12-1.21,0-2.43-.06-3.64-.13-1.21-.08-2.43-.01-3.64-.93v-.29c1.21-.91,2.43-.85,3.64-.93,1.21-.08,2.43-.13,3.64-.13,1.21,0,2.43.04,3.64.12,1.21.1,2.43-.05,3.64.94v.29h0Z" fill="#723206"/><path d="m365.49,283.52v.1h-26.51v-.1c-13.2,5.27-22.53,18.16-22.53,33.24,0,19.76,16.02,35.78,35.78,35.78s35.78-16.02,35.78-35.78c0-15.08-9.33-27.97-22.53-33.24Z" fill="#e28e33"/><path d="m369.47,30.5v180.24c0,9.51-7.71,17.23-17.23,17.23s-17.23-7.71-17.23-17.23V30.5h-22.53v200.27c0,3.53,1.24,6.96,3.53,9.65,6.15,7.24,19.78,20.67,36.23,20.67s30.08-13.43,36.23-20.67c2.29-2.69,3.53-6.12,3.53-9.65V30.5h-22.53Z" fill="#bcc1bf"/><path d="m318.5,304.68c5.62-.99,11.25-.83,16.87-.94,5.62-.09,11.25-.1,16.87-.12,5.62.03,11.25.05,16.87.13,5.62.08,11.25.01,16.87.93v.29c-11.22,1.5-22.47.79-33.74,1.06-5.62-.02-11.25-.04-16.87-.12-5.62-.11-11.25.05-16.87-.94v-.29h0Z" fill="#723206"/><polygon points="973.79 304.83 663.68 304.83 646.45 314.11 646.45 399.05 663.68 413.5 973.79 413.5 973.79 304.83" fill="#e28e33"/><polygon points="662.35 409.52 662.35 308.8 647.78 315.43 647.78 397.6 662.35 409.52" fill="#a04d15"/><path d="m647.65,315.99c1.21-.99,2.43-.83,3.64-.94,1.21-.08,2.43-.12,3.64-.12,1.21,0,2.43.06,3.64.13,1.21.08,2.43.01,3.64.93v.29c-1.21.91-2.43.85-3.64.93-1.21.08-2.43.13-3.64.13-1.21,0-2.43-.04-3.64-.12-1.21-.1-2.43.05-3.64-.94v-.29h0Z" fill="#723206"/><rect x="801.51" y="251.82" width="26.51" height="41.08" transform="translate(1629.52 544.72) rotate(-180)" fill="#bcc1bf"/><path d="m647.78,397.45c1.21-.99,2.43-.83,3.64-.94,1.21-.08,2.43-.12,3.64-.12,1.21,0,2.43.06,3.64.13,1.21.08,2.43.01,3.64.93v.29c-1.21.91-2.43.85-3.64.93-1.21.08-2.43.13-3.64.13-1.21,0-2.43-.04-3.64-.12-1.21-.1-2.43.05-3.64-.94v-.29h0Z" fill="#723206"/><path d="m801.51,283.52v.1s26.51,0,26.51,0v-.1c13.2,5.27,22.53,18.16,22.53,33.24,0,19.76-16.02,35.78-35.78,35.78-19.76,0-35.78-16.02-35.78-35.78,0-15.08,9.33-27.97,22.53-33.24Z" fill="#e28e33"/><path d="m797.53,30.5v180.24c0,9.51,7.71,17.23,17.23,17.23s17.23-7.71,17.23-17.23V30.5h22.53v200.27c0,3.53-1.24,6.96-3.53,9.65-6.15,7.24-19.78,20.67-36.23,20.67-16.45,0-30.08-13.43-36.23-20.67-2.29-2.69-3.53-6.12-3.53-9.65V30.5h22.53Z" fill="#bcc1bf"/><path d="m848.5,304.98c-5.62.99-11.25.83-16.87.94-5.62.09-11.25.1-16.87.12-5.62-.03-11.25-.05-16.87-.13-5.62-.08-11.25-.01-16.87-.93v-.29c11.22-1.5,22.47-.79,33.74-1.06,5.62.02,11.25.04,16.87.12,5.62.11,11.25-.05,16.87.94v.29h0Z" fill="#723206"/><path d="m554.03,316.76c3.34,5.28,4.61,11.72,5.9,17.75,3.29,17.41,2.2,39.16-5.76,55.19,0,0-.28-.1-.28-.1,1.22-6.13,2.92-12.01,3.9-18.08,2.52-15.13,1.83-30.77-1.87-45.65-.71-2.94-1.46-5.93-2.01-8.91,0,0-.01-.07-.01-.07v-.04s0-.02,0-.02c.06-.03-.14.04.13-.07h0Z" fill="#d12d32"/><path d="m569.94,308.8c3.39,6.7,4.64,14.48,5.92,21.81,3.22,21.26,2.26,46.93-5.78,67.03,0,0-.28-.08-.28-.08,1.24-7.45,2.93-14.68,3.92-22.08,2.49-18.43,1.83-37.35-1.87-55.58-.71-3.6-1.46-7.24-2.02-10.88,0,0-.01-.09-.01-.09v-.04s0-.02,0-.02c.06-.03-.14.03.14-.06h0Z" fill="#d12d32"/><path d="m584.89,302.13c12.62,26.99,13.05,61.61,4.76,89.95-1.26,4.19-2.88,8.27-4.76,12.2l-.28-.1c2.13-8.46,4.55-16.72,6.01-25.24,2.95-17,2.95-34.47.01-51.47-1.45-8.52-3.89-16.78-6.02-25.23l.27-.1h0Z" fill="#d12d32"/></svg>