<?xml version="1.0" encoding="UTF-8"?><svg xmlns="http://www.w3.org/2000/svg" width="570" height="325" xmlns:xlink="http://www.w3.org/1999/xlink" viewBox="0 0 570 325"><defs><clipPath id="e"><path d="m500.24,151.94C490.07-4.61,307.89.52,199.78.52S69.48,99.53,69.48,197.42s116.4,125.8,224.49,124c168.71-2.81,213.94-51.44,206.27-169.48Z" fill="#e3dae5"/></clipPath><clipPath id="g"><path d="m1137.86,157.87c1.78,25.64,31.97,76.51,8,109.41-64.96,89.15-208.89,34.62-480.7,51.67-48.47,3.04-65.89-74.78-54.75-145.32,11.77-74.51-46.19-110.48-.72-153.53,27.9-26.41,165-8.14,251.99-5.01,7.32-13.59,22.32-15.59,39.55-.02.85-.05,1.76-.12,2.72-.2,48.28-4.17,228.89-48.28,252.9,37.14,6.1,21.7-1.96,34.23-9.46,51.35-1.16,2.66-.31,1.22-1.39,4.15,20,20.8,0,33-8.14,50.37Z" fill="none"/></clipPath></defs><g id="d"><path d="m500.24,151.94C490.07-4.61,307.89.52,199.78.52S69.48,99.53,69.48,197.42s116.4,125.8,224.49,124c168.71-2.81,213.94-51.44,206.27-169.48Z" fill="#e3dae5"/><g clip-path="url(#e)"><path d="m181.91,131.45c-6.98,8.84-49.22,55.83-45.98,77.19,3,19.77,47.63,62.41,83.76,36.13,7.6-5.53-25.38-13.26-17.07-8.86,3.66,1.94,7.55,3.76,11.68,3.8,4.98.04,9.63-2.53,13.44-5.73,14.38-12.07,91.68,20.52,98.3,2.95,15.53-41.26-100.34-146.74-118.43-141.73,0,0-11.13,17.82-25.69,36.26Z" fill="#001315"/><path d="m201.61,493.31s-36.63-100.54-39.42-147.26c-2.12-35.55.64-58.27,12.04-74.45,12.13-17.21,38.11-46.56,63.5-50.36,49.27-7.39,47.91,1.65,60.22,9.85,19.71,13.14,77.46,67.34,77.46,101.82,0,45.92-20.53,148.36-20.53,148.36l-153.28,12.04Z" fill="#fffffd"/><path d="m324.85,69.53c1.57,13.08,10.59,63.45,12.19,75.29,4.18,30.79-6.32,44.51-32.91,47.69-27.37,3.28-60.81-7.25-74.89-34.07-5.19-9.88-12.45-48.26-13.9-60.4-5.4-45.08-2.11-59.63,35.34-64.12,37.45-4.49,68.77-9.47,74.17,35.6Z" fill="#c87550"/><path d="m229.14,138.63l10.52,85.5s40.15,30.4,62.13,25.57c21.98-4.84-1.64-18.07-1.64-18.07l.86-50.54-71.87-42.46Z" fill="#c87550"/><path d="m189.73,178.1c-11.27-16.91-32.07-57.33-26.82-76.96,9.45-35.35,39.83-68.99,59.62-73.62,34.24-8.01,38.37,1.72,41.11,2.05,6.15.74,9.85,6.1,9.38,12.27s-4.18,11.6-8.2,16.3c-4.02,4.7-13.46,10.52-16.55,15.88-6.24,10.79-10.23,20.21-7.71,30.53,2.52,10.32,4.26,22.34,2.96,32.89-6.25-2.34-16.88-18.51-23.28-14.81-14.59,8.43-30.51,55.47-30.51,55.47Z" fill="#001315"/><path d="m233.57,133.09c-1.72-6.72-6.96-14.67-12.95-16.71-5.99-2.03-12.78-.38-17.32,4.21-2.67,2.7-4.33,8.8-4.37,12.88-.05,4.58,2.27,8.93,5.28,12.14,5.26,5.62,13.18,8.35,19.93,5.85,6.76-2.51,11.22-9.14,9.72-17.04" fill="#c87550"/><path d="m281.8,101.17c8.17-8.36,21.06-11.56,28.89-10.4" fill="none" stroke="#001315" stroke-linecap="round" stroke-linejoin="round" stroke-width="9"/><path d="m288.24,119.82c-.18-2.99,1.84-5.27,3.85-7.17,4-3.83,9.55-6.13,15.12-5.89,2.06.06,4.23.35,6,1.49,2.28,1.67,2.31,1.96-.58,1.9-1.82.04-3.59-.3-5.4-.17-5.31.33-10.45,2.68-14.35,6.29-1.4,1.36-2.45,2.55-4.24,3.73-.15.12-.4.01-.4-.18h0Z" fill="#001315"/><path d="m337,147.47c-2.65,2.45-6.33,2.97-9.72,3.51-3.41.51-6.84.69-10.28.72,0,0,1.2-1.12,1.2-1.12-.03.84.09,1.89.33,2.81,1.16,5.1,6.19,7.74,11.12,8.25,2.05.31,4.16.46,6.34.72.08,0,.14.08.13.17-6.18,2.31-14.78.73-18.5-5.26-.89-1.21-3.34-7.96-.62-7.97,4.99,0,10.03-.25,14.93-1.17,1.64-.28,3.23-.57,4.93-.91.14-.03.25.16.13.26h0Z" fill="#331313"/><path d="m315.29,113.38c.15,3.68-1.96,6.76-4.7,6.87-2.74.11-5.08-2.79-5.23-6.47-.15-3.68,2.15-5.5,4.89-5.61,2.74-.11,4.9,1.53,5.04,5.21Z" fill="#001315"/><path d="m326.56,100.12s14.5,6.82,19.15,17.02c4.64,10.2-17.15,15.99-17.92,13.63-.77-2.35-1.23-30.65-1.23-30.65Z" fill="#c87550"/><path d="m248.89,31.2c2.89-.35,11.12-22.84,42.73-11.96,31.61,10.88,52.12,31.07,49.64,55.32-2.47,24.25-26.99,3.23-46.52-7.47-9.52-5.21-24.88-15.92-29.35-24.68-4.47-8.75-14.51-10.97-14.51-10.97" fill="#001315"/><path d="m210.84,129.51c.55-1.57,1.91-2.08,3.18-2.62,1.61-.66,3.65-.94,5.43-.36,2.35.89,4.64,3.28,4.09,5.96-.02.09-.11.15-.2.13-.72-.38-1.15-.93-1.53-1.39-2.08-3.22-5.53-3.06-8.79-1.73-.59.18-1.22.29-2.02.24-.12,0-.2-.13-.16-.24h0Z" fill="#562323"/><path d="m199.9,253.32c-26.61,4.8-44.72,46.65-37.87,119.42,6.86,72.77,1.9,143.22,27.04,151.52,25.15,8.31,39.71-3.33,47.19-18.6,7.47-15.27,30.56-201.21,18.89-226.94-11.67-25.73-35.12-29.03-55.25-25.4Z" fill="#c87550"/><path d="m147.12,358.77s125.99,11.11,127.18,8.05,15.17-115.91-29.37-127.54c-46.91-12.25-64.42,16.02-76.33,40.76-15.46,32.14-21.47,78.74-21.47,78.74Z" fill="#fffffd"/><path d="m223.01,239.71c27.7,9,45.09,36.63,47.67,64.82,2.61,21.67,4.57,43.5,3.99,65.35,0,.43-.36.78-.8.77,0,0-12.31-.38-12.31-.38-4.1-.17-8.21-.31-12.31-.53-.08,0-.14-.07-.14-.15,6.99-.58,17.54-.34,24.78-.51,0,0-.8.77-.8.77-.41-24.78-2.24-49.67-6.17-74.16-4.53-24.89-21.21-45.06-44-55.7-.08-.03-.12-.12-.08-.2.03-.07.11-.1.18-.08h0Z" fill="#001315"/><path d="m226.56,150.41s85.09,56.59,47.32,114.07c-13.14-1.64-21.26-39.72-64.95-29.76-41.75,9.52-30-104.02,17.63-84.31Z" fill="#001315"/></g><path d="m158.05,303.36c30.96,8.63,62.95,14.12,95.03,16.27,10.65.69,23.86,1.13,34.46,1.27,4.75.01,15.82-.27,20.69-.32,6.66-.33,13.97-.8,20.67-1.17,4.89-.33,15.66-1.52,20.61-1.95,3.98-.29,9.75-1.13,13.72-1.58,4.57-.57,9.15-1.07,13.75-1.53.08-.01.16.05.17.13,0,.08-.04.14-.12.16-4.52.89-9.06,1.74-13.61,2.51-4.55.75-9.08,1.71-13.68,2.14-5.03.51-15.84,1.83-20.67,2.17-10.66.74-23.82,1.53-34.6,1.6-6.38.25-14.36-.02-20.79-.1-15.76-.36-32.74-1.77-48.34-3.83-13.5-1.71-27.66-4.21-40.91-7.33-6.74-1.61-13.42-3.5-19.98-5.75-2.18-.75-4.36-1.53-6.5-2.42-.17-.06-.07-.33.1-.28h0Z" fill="#8684ce"/><path d="m361.61,139.98c2.93,1.18,4.52,3.94,6.04,6.52,3.02,5.29,3.39,12.06,1.06,17.68-1.06,2.8-2.62,5.48-5.06,7.3,0,0-.24-.17-.24-.17.95-2.87,2.41-5.21,3.29-7.86,2.75-7.94.39-14.76-4.16-21.4-.38-.62-.75-1.27-1.02-1.95.05-.05-.11.1.1-.11h0Z" fill="#d12d32"/><path d="m377.27,135.59c3.15,1.87,4.72,5.23,6.26,8.37,4.32,9.36,3.33,22.24-3.79,29.97,0,0-.25-.15-.25-.15.95-3.4,2.4-6.35,3.23-9.59,2.19-8.05.8-16.7-3.33-23.9-.79-1.49-1.61-3-2.22-4.58,0,0,0-.02,0-.02h0c.05-.05-.12.07.11-.11h0Z" fill="#d12d32"/><path d="m391.89,131.83c6.7,3.82,11.4,13.79,11.81,21.35.33,6.37-1.57,12.68-4.94,18.01-1.11,1.72-2.51,3.38-4.06,4.71,0,0-.24-.18-.24-.18,1.69-3.8,3.8-7.13,5.12-10.88,4.34-12.47.38-21.51-6.99-31.57-.27-.42-.54-.88-.78-1.32h0c.04-.06-.11.08.1-.12h0Z" fill="#d12d32"/></g><g id="f"><g clip-path="url(#g)"><path d="m561.22,29.72s80.23-23.84,141.91,13.68c62.46,37.99,154.9,106.88,248.35,85.1s213.87-108.4,215.87-108.4,14.49,7.6,16.49,11.65c2,4.05,34.98,89.15,35.48,91.68.5,2.53-154.9,121.06-292.32,114.47s-220.56-123.83-248.85-141.32c-40.97-25.33-47.47-27.86-130.42-18.74-49.18,5.41,13.49-48.12,13.49-48.12Z" fill="#fff" opacity=".3"/><path d="m625.51,524.4c-19.7-1.17-37.16-13.81-49.15-35.6-11.07-20.11-16.28-46.07-14.68-73.08,1.6-27.01,9.84-52.17,23.21-70.84,14.48-20.22,33.3-30.72,53.01-29.55,19.7,1.17,37.16,13.81,49.15,35.6,11.07,20.12,16.28,46.07,14.68,73.08-1.6,27.01-9.84,52.17-23.21,70.84-13.75,19.21-31.42,29.64-50.04,29.64-.99,0-1.97-.03-2.96-.09Zm-22.28-166.39c-10.92,15.25-17.68,36.22-19.03,59.04h0c-2.63,44.46,16.9,83.31,42.64,84.83,25.76,1.5,49.73-34.75,52.36-79.2,1.35-22.82-2.88-44.44-11.93-60.87-8.12-14.76-19.03-23.27-30.72-23.96-.52-.03-1.03-.05-1.55-.05-11.18,0-22.41,7.12-31.78,20.21Z" fill="#0c3a3a"/></g></g></svg>