<?xml version="1.0" encoding="UTF-8"?>
<svg xmlns="http://www.w3.org/2000/svg" xmlns:xlink="http://www.w3.org/1999/xlink" width="1094px" height="1000px" viewBox="0 0 1094 1000" version="1.1">
<g id="surface1">
<path style="fill:none;stroke-width:2;stroke-linecap:butt;stroke-linejoin:miter;stroke:rgb(0%,0%,0%);stroke-opacity:1;stroke-miterlimit:10;" d="M 74.998929 85.000336 L 1089.998 85.000336 " transform="matrix(0.959649,0,0,0.959693,0,0)"/>
<path style=" stroke:none;fill-rule:nonzero;fill:rgb(0%,0%,0%);fill-opacity:1;" d="M 80.839844 57.21875 L 80.839844 40.84375 L 86.195312 40.84375 C 87.972656 40.84375 89.304688 41.210938 90.207031 41.949219 C 91.109375 42.6875 91.550781 43.773438 91.550781 45.210938 C 91.550781 45.980469 91.328125 46.652344 90.898438 47.246094 C 90.464844 47.839844 89.871094 48.292969 89.121094 48.609375 C 90.003906 48.859375 90.707031 49.328125 91.222656 50.019531 C 91.742188 50.710938 91.992188 51.535156 91.992188 52.496094 C 91.992188 53.964844 91.511719 55.113281 90.5625 55.960938 C 89.613281 56.804688 88.269531 57.21875 86.523438 57.21875 Z M 83 47.820312 L 86.261719 47.820312 C 87.203125 47.820312 87.960938 47.582031 88.527344 47.109375 C 89.09375 46.640625 89.371094 46 89.371094 45.183594 C 89.371094 44.28125 89.113281 43.628906 88.585938 43.214844 C 88.058594 42.800781 87.261719 42.601562 86.1875 42.601562 L 82.992188 42.601562 L 82.992188 47.820312 Z M 83 49.550781 L 83 55.441406 L 86.558594 55.441406 C 87.566406 55.441406 88.355469 55.183594 88.941406 54.664062 C 89.527344 54.144531 89.8125 53.425781 89.8125 52.515625 C 89.8125 50.546875 88.738281 49.558594 86.597656 49.558594 L 83 49.558594 Z M 83 49.550781 "/>
<path style=" stroke:none;fill-rule:nonzero;fill:rgb(0%,0%,0%);fill-opacity:1;" d="M 97.117188 57.21875 L 95.035156 57.21875 L 95.035156 39.941406 L 97.117188 39.941406 Z M 97.117188 57.21875 "/>
<path style=" stroke:none;fill-rule:nonzero;fill:rgb(0%,0%,0%);fill-opacity:1;" d="M 107.949219 56.015625 C 107.144531 56.96875 105.953125 57.445312 104.390625 57.445312 C 103.09375 57.445312 102.105469 57.074219 101.425781 56.316406 C 100.742188 55.554688 100.40625 54.445312 100.398438 52.964844 L 100.398438 45.046875 L 102.480469 45.046875 L 102.480469 52.90625 C 102.480469 54.75 103.230469 55.671875 104.726562 55.671875 C 106.320312 55.671875 107.375 55.078125 107.894531 53.894531 L 107.894531 45.046875 L 109.976562 45.046875 L 109.976562 57.21875 L 108 57.21875 Z M 107.949219 56.015625 "/>
<path style=" stroke:none;fill-rule:nonzero;fill:rgb(0%,0%,0%);fill-opacity:1;" d="M 118.191406 57.4375 C 116.539062 57.4375 115.195312 56.898438 114.160156 55.816406 C 113.125 54.730469 112.605469 53.28125 112.605469 51.46875 L 112.605469 51.085938 C 112.605469 49.875 112.835938 48.800781 113.296875 47.851562 C 113.757812 46.898438 114.398438 46.160156 115.234375 45.625 C 116.070312 45.085938 116.960938 44.816406 117.929688 44.816406 C 119.515625 44.816406 120.742188 45.335938 121.617188 46.382812 C 122.488281 47.429688 122.929688 48.914062 122.929688 50.855469 L 122.929688 51.71875 L 114.6875 51.71875 C 114.714844 52.917969 115.070312 53.886719 115.742188 54.625 C 116.414062 55.363281 117.269531 55.730469 118.304688 55.730469 C 119.042969 55.730469 119.660156 55.574219 120.175781 55.277344 C 120.695312 54.980469 121.136719 54.578125 121.511719 54.089844 L 122.777344 55.078125 C 121.761719 56.640625 120.226562 57.429688 118.191406 57.429688 Z M 117.929688 46.527344 C 117.085938 46.527344 116.386719 46.832031 115.820312 47.445312 C 115.253906 48.0625 114.898438 48.914062 114.765625 50.019531 L 120.859375 50.019531 L 120.859375 49.867188 C 120.800781 48.808594 120.511719 47.984375 120.003906 47.410156 C 119.496094 46.832031 118.804688 46.535156 117.929688 46.535156 Z M 117.929688 46.527344 "/>
<path style=" stroke:none;fill-rule:nonzero;fill:rgb(0%,0%,0%);fill-opacity:1;" d="M 141.816406 54.347656 L 144.160156 45.046875 L 146.242188 45.046875 L 142.699219 57.21875 L 141.011719 57.21875 L 138.054688 47.996094 L 135.175781 57.21875 L 133.488281 57.21875 L 129.957031 45.046875 L 132.027344 45.046875 L 134.425781 54.15625 L 137.257812 45.046875 L 138.9375 45.046875 L 141.828125 54.347656 Z M 141.816406 54.347656 "/>
<path style=" stroke:none;fill-rule:nonzero;fill:rgb(0%,0%,0%);fill-opacity:1;" d="M 155.867188 57.21875 C 155.75 56.976562 155.644531 56.546875 155.578125 55.929688 C 154.609375 56.9375 153.457031 57.4375 152.113281 57.4375 C 150.914062 57.4375 149.925781 57.101562 149.160156 56.421875 C 148.390625 55.738281 148.007812 54.886719 148.007812 53.839844 C 148.007812 52.570312 148.488281 51.582031 149.457031 50.882812 C 150.425781 50.183594 151.777344 49.828125 153.523438 49.828125 L 155.550781 49.828125 L 155.550781 48.867188 C 155.550781 48.136719 155.328125 47.5625 154.898438 47.128906 C 154.464844 46.699219 153.820312 46.488281 152.976562 46.488281 C 152.238281 46.488281 151.613281 46.679688 151.105469 47.054688 C 150.597656 47.429688 150.347656 47.878906 150.347656 48.417969 L 148.257812 48.417969 C 148.257812 47.8125 148.46875 47.226562 148.898438 46.660156 C 149.332031 46.09375 149.917969 45.644531 150.65625 45.316406 C 151.394531 44.992188 152.210938 44.816406 153.09375 44.816406 C 154.492188 44.816406 155.597656 45.171875 156.382812 45.875 C 157.171875 46.574219 157.59375 47.542969 157.621094 48.773438 L 157.621094 54.375 C 157.621094 55.488281 157.765625 56.382812 158.054688 57.042969 L 158.054688 57.226562 L 155.875 57.226562 Z M 152.410156 55.632812 C 153.0625 55.632812 153.679688 55.460938 154.261719 55.125 C 154.847656 54.789062 155.269531 54.347656 155.53125 53.808594 L 155.53125 51.316406 L 153.898438 51.316406 C 151.347656 51.316406 150.078125 52.0625 150.078125 53.550781 C 150.078125 54.203125 150.300781 54.710938 150.730469 55.078125 C 151.164062 55.441406 151.730469 55.625 152.410156 55.625 Z M 152.410156 55.632812 "/>
<path style=" stroke:none;fill-rule:nonzero;fill:rgb(0%,0%,0%);fill-opacity:1;" d="M 164.722656 54.394531 L 167.738281 45.046875 L 169.859375 45.046875 L 165.492188 57.21875 L 163.90625 57.21875 L 159.503906 45.046875 L 161.625 45.046875 L 164.714844 54.394531 Z M 164.722656 54.394531 "/>
<path style=" stroke:none;fill-rule:nonzero;fill:rgb(0%,0%,0%);fill-opacity:1;" d="M 176.910156 57.4375 C 175.261719 57.4375 173.917969 56.898438 172.878906 55.816406 C 171.84375 54.730469 171.324219 53.28125 171.324219 51.46875 L 171.324219 51.085938 C 171.324219 49.875 171.554688 48.800781 172.015625 47.851562 C 172.476562 46.898438 173.121094 46.160156 173.957031 45.625 C 174.789062 45.085938 175.683594 44.816406 176.652344 44.816406 C 178.234375 44.816406 179.464844 45.335938 180.335938 46.382812 C 181.210938 47.429688 181.652344 48.914062 181.652344 50.855469 L 181.652344 51.71875 L 173.410156 51.71875 C 173.4375 52.917969 173.792969 53.886719 174.464844 54.625 C 175.136719 55.363281 175.988281 55.730469 177.027344 55.730469 C 177.765625 55.730469 178.378906 55.574219 178.898438 55.277344 C 179.414062 54.980469 179.859375 54.578125 180.230469 54.089844 L 181.5 55.078125 C 180.480469 56.640625 178.945312 57.429688 176.910156 57.429688 Z M 176.652344 46.527344 C 175.808594 46.527344 175.105469 46.832031 174.539062 47.445312 C 173.976562 48.0625 173.621094 48.914062 173.484375 50.019531 L 179.578125 50.019531 L 179.578125 49.867188 C 179.523438 48.808594 179.234375 47.984375 178.726562 47.410156 C 178.214844 46.832031 177.527344 46.535156 176.652344 46.535156 Z M 176.652344 46.527344 "/>
<path style=" stroke:none;fill-rule:nonzero;fill:rgb(0%,0%,0%);fill-opacity:1;" d="M 940.964844 51.277344 L 937.105469 51.277344 L 937.105469 57.554688 L 934.929688 57.554688 L 934.929688 42.042969 L 940.371094 42.042969 C 942.222656 42.042969 943.640625 42.4375 944.640625 43.234375 C 945.636719 44.03125 946.136719 45.191406 946.136719 46.707031 C 946.136719 47.675781 945.859375 48.511719 945.3125 49.230469 C 944.765625 49.953125 943.988281 50.488281 943 50.84375 L 946.855469 57.429688 L 946.855469 57.554688 L 944.535156 57.554688 Z M 937.105469 49.605469 L 940.4375 49.605469 C 941.511719 49.605469 942.367188 49.347656 943 48.820312 C 943.632812 48.292969 943.949219 47.589844 943.949219 46.707031 C 943.949219 45.75 943.640625 45.007812 943.039062 44.5 C 942.433594 43.992188 941.558594 43.734375 940.417969 43.722656 L 937.097656 43.722656 L 937.097656 49.617188 Z M 937.105469 49.605469 "/>
<path style=" stroke:none;fill-rule:nonzero;fill:rgb(0%,0%,0%);fill-opacity:1;" d="M 953.902344 57.765625 C 952.25 57.765625 950.898438 57.253906 949.859375 56.226562 C 948.824219 55.203125 948.304688 53.828125 948.304688 52.109375 L 948.304688 51.746094 C 948.304688 50.605469 948.535156 49.578125 948.996094 48.683594 C 949.457031 47.78125 950.109375 47.082031 950.933594 46.574219 C 951.769531 46.066406 952.664062 45.816406 953.640625 45.816406 C 955.226562 45.816406 956.464844 46.304688 957.347656 47.292969 C 958.230469 48.28125 958.671875 49.691406 958.671875 51.535156 L 958.671875 52.351562 L 950.398438 52.351562 C 950.425781 53.484375 950.78125 54.40625 951.453125 55.105469 C 952.125 55.804688 952.980469 56.152344 954.015625 56.152344 C 954.753906 56.152344 955.378906 56.007812 955.886719 55.730469 C 956.394531 55.441406 956.847656 55.066406 957.230469 54.597656 L 958.507812 55.539062 C 957.480469 57.023438 955.945312 57.765625 953.902344 57.765625 Z M 953.640625 47.429688 C 952.796875 47.429688 952.085938 47.714844 951.519531 48.292969 C 950.953125 48.867188 950.601562 49.683594 950.457031 50.730469 L 956.570312 50.730469 L 956.570312 50.574219 C 956.511719 49.578125 956.222656 48.800781 955.714844 48.242188 C 955.207031 47.6875 954.515625 47.417969 953.640625 47.417969 Z M 953.640625 47.429688 "/>
<path style=" stroke:none;fill-rule:nonzero;fill:rgb(0%,0%,0%);fill-opacity:1;" d="M 960.570312 51.6875 C 960.570312 49.921875 961.011719 48.503906 961.90625 47.417969 C 962.789062 46.34375 963.957031 45.804688 965.386719 45.804688 C 966.816406 45.804688 967.949219 46.265625 968.785156 47.1875 L 968.785156 41.179688 L 970.867188 41.179688 L 970.867188 57.542969 L 968.949219 57.542969 L 968.84375 56.304688 C 968.007812 57.273438 966.847656 57.753906 965.359375 57.753906 C 963.871094 57.753906 962.796875 57.207031 961.90625 56.113281 C 961.011719 55.019531 960.570312 53.589844 960.570312 51.832031 L 960.570312 51.679688 Z M 962.652344 51.910156 C 962.652344 53.214844 962.941406 54.242188 963.507812 54.980469 C 964.082031 55.71875 964.871094 56.085938 965.878906 56.085938 C 967.203125 56.085938 968.171875 55.527344 968.773438 54.40625 L 968.773438 49.109375 C 968.152344 48.023438 967.191406 47.476562 965.894531 47.476562 C 964.871094 47.476562 964.074219 47.851562 963.507812 48.597656 C 962.929688 49.347656 962.652344 50.449219 962.652344 51.910156 Z M 962.652344 51.910156 "/>
<path style=" stroke:none;fill-rule:nonzero;fill:rgb(0%,0%,0%);fill-opacity:1;" d="M 990.644531 54.828125 L 992.996094 46.015625 L 995.089844 46.015625 L 991.539062 57.542969 L 989.847656 57.542969 L 986.882812 48.808594 L 983.996094 57.542969 L 982.304688 57.542969 L 978.765625 46.015625 L 980.839844 46.015625 L 983.238281 54.644531 L 986.078125 46.015625 L 987.757812 46.015625 L 990.65625 54.828125 Z M 990.644531 54.828125 "/>
<path style=" stroke:none;fill-rule:nonzero;fill:rgb(0%,0%,0%);fill-opacity:1;" d="M 1004.734375 57.542969 C 1004.617188 57.3125 1004.511719 56.910156 1004.4375 56.324219 C 1003.464844 57.273438 1002.304688 57.753906 1000.960938 57.753906 C 999.761719 57.753906 998.773438 57.4375 997.996094 56.792969 C 997.230469 56.152344 996.835938 55.335938 996.835938 54.347656 C 996.835938 53.148438 997.316406 52.21875 998.285156 51.554688 C 999.253906 50.890625 1000.605469 50.554688 1002.363281 50.554688 L 1004.398438 50.554688 L 1004.398438 49.65625 C 1004.398438 48.964844 1004.175781 48.417969 1003.746094 48.011719 C 1003.304688 47.601562 1002.671875 47.398438 1001.816406 47.398438 C 1001.066406 47.398438 1000.445312 47.582031 999.945312 47.925781 C 999.445312 48.28125 999.1875 48.714844 999.1875 49.214844 L 997.085938 49.214844 C 997.085938 48.636719 997.304688 48.082031 997.738281 47.542969 C 998.167969 47.003906 998.753906 46.582031 999.492188 46.265625 C 1000.234375 45.949219 1001.046875 45.796875 1001.929688 45.796875 C 1003.34375 45.796875 1004.4375 46.132812 1005.242188 46.792969 C 1006.046875 47.457031 1006.453125 48.367188 1006.480469 49.539062 L 1006.480469 54.847656 C 1006.480469 55.902344 1006.625 56.746094 1006.910156 57.371094 L 1006.910156 57.542969 L 1004.722656 57.542969 Z M 1001.269531 56.046875 C 1001.921875 56.046875 1002.546875 55.882812 1003.128906 55.566406 C 1003.714844 55.25 1004.136719 54.828125 1004.40625 54.320312 L 1004.40625 51.957031 L 1002.765625 51.957031 C 1000.203125 51.957031 998.925781 52.667969 998.925781 54.078125 C 998.925781 54.691406 999.148438 55.183594 999.582031 55.527344 C 1000.011719 55.875 1000.578125 56.046875 1001.257812 56.046875 Z M 1001.269531 56.046875 "/>
<path style=" stroke:none;fill-rule:nonzero;fill:rgb(0%,0%,0%);fill-opacity:1;" d="M 1013.628906 54.875 L 1016.652344 46.027344 L 1018.78125 46.027344 L 1014.40625 57.554688 L 1012.8125 57.554688 L 1008.390625 46.027344 L 1010.519531 46.027344 L 1013.621094 54.875 Z M 1013.628906 54.875 "/>
<path style=" stroke:none;fill-rule:nonzero;fill:rgb(0%,0%,0%);fill-opacity:1;" d="M 1025.855469 57.765625 C 1024.203125 57.765625 1022.851562 57.253906 1021.816406 56.226562 C 1020.777344 55.203125 1020.261719 53.828125 1020.261719 52.109375 L 1020.261719 51.746094 C 1020.261719 50.605469 1020.492188 49.578125 1020.953125 48.683594 C 1021.414062 47.78125 1022.066406 47.082031 1022.890625 46.574219 C 1023.726562 46.066406 1024.617188 45.816406 1025.597656 45.816406 C 1027.179688 45.816406 1028.417969 46.304688 1029.300781 47.292969 C 1030.183594 48.28125 1030.625 49.691406 1030.625 51.535156 L 1030.625 52.351562 L 1022.351562 52.351562 C 1022.382812 53.484375 1022.738281 54.40625 1023.410156 55.105469 C 1024.078125 55.804688 1024.933594 56.152344 1025.96875 56.152344 C 1026.710938 56.152344 1027.332031 56.007812 1027.839844 55.730469 C 1028.351562 55.441406 1028.800781 55.066406 1029.183594 54.597656 L 1030.460938 55.539062 C 1029.433594 57.023438 1027.898438 57.765625 1025.855469 57.765625 Z M 1025.597656 47.429688 C 1024.75 47.429688 1024.042969 47.714844 1023.476562 48.292969 C 1022.910156 48.867188 1022.554688 49.683594 1022.410156 50.730469 L 1028.523438 50.730469 L 1028.523438 50.574219 C 1028.464844 49.578125 1028.175781 48.800781 1027.667969 48.242188 C 1027.160156 47.6875 1026.46875 47.417969 1025.597656 47.417969 Z M 1025.597656 47.429688 "/>
<path style=" stroke:none;fill-rule:nonzero;fill:rgb(0%,0%,0%);fill-opacity:1;" d="M 94.804688 112.945312 L 87.902344 112.945312 L 86.589844 116.882812 L 82.40625 116.882812 L 89.515625 97.773438 L 93.164062 97.773438 L 100.3125 116.882812 L 96.128906 116.882812 Z M 88.96875 109.761719 L 93.75 109.761719 L 91.347656 102.609375 L 88.980469 109.761719 Z M 88.96875 109.761719 "/>
<path style=" stroke:none;fill-rule:nonzero;fill:rgb(0%,0%,0%);fill-opacity:1;" d="M 199.894531 116.882812 L 199.894531 97.773438 L 206.582031 97.773438 C 208.90625 97.773438 210.664062 98.214844 211.863281 99.109375 C 213.0625 99.992188 213.65625 101.296875 213.65625 103.011719 C 213.65625 103.953125 213.417969 104.769531 212.9375 105.488281 C 212.457031 106.199219 211.785156 106.726562 210.929688 107.054688 C 211.910156 107.292969 212.6875 107.792969 213.242188 108.53125 C 213.800781 109.269531 214.089844 110.183594 214.089844 111.257812 C 214.089844 113.089844 213.503906 114.480469 212.332031 115.433594 C 211.160156 116.371094 209.492188 116.863281 207.324219 116.871094 L 199.894531 116.871094 Z M 203.828125 105.777344 L 206.746094 105.777344 C 208.734375 105.738281 209.722656 104.953125 209.722656 103.40625 C 209.722656 102.542969 209.472656 101.917969 208.964844 101.535156 C 208.464844 101.152344 207.667969 100.96875 206.582031 100.96875 L 203.828125 100.96875 L 203.828125 105.785156 Z M 203.828125 108.558594 L 203.828125 113.714844 L 207.199219 113.714844 C 208.128906 113.714844 208.847656 113.492188 209.367188 113.050781 C 209.886719 112.609375 210.144531 111.996094 210.144531 111.21875 C 210.144531 109.472656 209.242188 108.578125 207.429688 108.550781 L 203.820312 108.550781 Z M 203.828125 108.558594 "/>
<path style=" stroke:none;fill-rule:nonzero;fill:rgb(0%,0%,0%);fill-opacity:1;" d="M 336.769531 110.519531 C 336.617188 112.570312 335.859375 114.195312 334.496094 115.375 C 333.121094 116.554688 331.320312 117.148438 329.082031 117.148438 C 326.636719 117.148438 324.707031 116.324219 323.304688 114.671875 C 321.90625 113.023438 321.203125 110.757812 321.203125 107.878906 L 321.203125 106.707031 C 321.203125 104.875 321.53125 103.253906 322.171875 101.851562 C 322.816406 100.449219 323.746094 99.375 324.945312 98.628906 C 326.144531 97.878906 327.546875 97.503906 329.140625 97.503906 C 331.347656 97.503906 333.121094 98.101562 334.464844 99.28125 C 335.808594 100.460938 336.585938 102.121094 336.796875 104.25 L 332.863281 104.25 C 332.769531 103.011719 332.421875 102.121094 331.835938 101.5625 C 331.25 101.007812 330.351562 100.730469 329.140625 100.730469 C 327.824219 100.730469 326.847656 101.199219 326.195312 102.140625 C 325.542969 103.082031 325.207031 104.539062 325.1875 106.515625 L 325.1875 107.957031 C 325.1875 110.019531 325.503906 111.527344 326.128906 112.484375 C 326.75 113.4375 327.738281 113.914062 329.082031 113.914062 C 330.300781 113.914062 331.203125 113.636719 331.808594 113.082031 C 332.402344 112.523438 332.75 111.667969 332.835938 110.5 L 336.769531 110.5 Z M 336.769531 110.519531 "/>
<path style=" stroke:none;fill-rule:nonzero;fill:rgb(0%,0%,0%);fill-opacity:1;" d="M 440.59375 116.882812 L 440.59375 97.773438 L 446.46875 97.773438 C 448.148438 97.773438 449.652344 98.148438 450.976562 98.90625 C 452.300781 99.664062 453.339844 100.738281 454.078125 102.128906 C 454.816406 103.523438 455.191406 105.113281 455.191406 106.890625 L 455.191406 107.773438 C 455.191406 109.550781 454.824219 111.132812 454.097656 112.515625 C 453.367188 113.894531 452.339844 114.972656 451.007812 115.730469 C 449.671875 116.488281 448.175781 116.871094 446.503906 116.882812 L 440.585938 116.882812 Z M 444.527344 100.96875 L 444.527344 113.722656 L 446.429688 113.722656 C 447.964844 113.722656 449.144531 113.222656 449.960938 112.21875 C 450.777344 111.210938 451.1875 109.769531 451.207031 107.898438 L 451.207031 106.890625 C 451.207031 104.953125 450.804688 103.472656 450 102.476562 C 449.191406 101.476562 448.023438 100.96875 446.46875 100.96875 Z M 444.527344 100.96875 "/>
<path style=" stroke:none;fill-rule:nonzero;fill:rgb(0%,0%,0%);fill-opacity:1;" d="M 572.019531 108.597656 L 564.457031 108.597656 L 564.457031 113.714844 L 573.324219 113.714844 L 573.324219 116.871094 L 560.519531 116.871094 L 560.519531 97.765625 L 573.304688 97.765625 L 573.304688 100.949219 L 564.464844 100.949219 L 564.464844 105.5 L 572.027344 105.5 L 572.027344 108.578125 Z M 572.019531 108.597656 "/>
<path style=" stroke:none;fill-rule:nonzero;fill:rgb(0%,0%,0%);fill-opacity:1;" d="M 690.964844 109.078125 L 683.40625 109.078125 L 683.40625 116.882812 L 679.46875 116.882812 L 679.46875 97.773438 L 691.90625 97.773438 L 691.90625 100.960938 L 683.40625 100.960938 L 683.40625 105.890625 L 690.964844 105.890625 Z M 690.964844 109.078125 "/>
<path style=" stroke:none;fill-rule:nonzero;fill:rgb(0%,0%,0%);fill-opacity:1;" d="M 811.554688 114.460938 C 810.847656 115.308594 809.847656 115.96875 808.550781 116.441406 C 807.257812 116.910156 805.828125 117.140625 804.253906 117.140625 C 802.601562 117.140625 801.152344 116.777344 799.90625 116.054688 C 798.660156 115.335938 797.699219 114.289062 797.015625 112.917969 C 796.335938 111.546875 795.992188 109.933594 795.972656 108.082031 L 795.972656 106.785156 C 795.972656 104.875 796.289062 103.222656 796.929688 101.832031 C 797.574219 100.441406 798.503906 99.367188 799.714844 98.628906 C 800.921875 97.890625 802.34375 97.515625 803.976562 97.515625 C 806.238281 97.515625 808.015625 98.050781 809.292969 99.136719 C 810.566406 100.222656 811.324219 101.785156 811.566406 103.859375 L 807.738281 103.859375 C 807.5625 102.765625 807.171875 101.96875 806.574219 101.457031 C 805.980469 100.949219 805.15625 100.699219 804.097656 100.699219 C 802.765625 100.699219 801.738281 101.199219 801.039062 102.207031 C 800.335938 103.214844 799.984375 104.710938 799.972656 106.699219 L 799.972656 107.917969 C 799.972656 109.921875 800.355469 111.429688 801.113281 112.457031 C 801.875 113.484375 802.996094 113.992188 804.464844 113.992188 C 805.933594 113.992188 806.996094 113.675781 807.621094 113.050781 L 807.621094 109.761719 L 804.042969 109.761719 L 804.042969 106.863281 L 811.554688 106.863281 L 811.554688 114.480469 Z M 811.554688 114.460938 "/>
<path style=" stroke:none;fill-rule:nonzero;fill:rgb(0%,0%,0%);fill-opacity:1;" d="M 930.410156 116.882812 L 926.472656 116.882812 L 926.472656 108.695312 L 918.796875 108.695312 L 918.796875 116.882812 L 914.863281 116.882812 L 914.863281 97.773438 L 918.796875 97.773438 L 918.796875 105.519531 L 926.472656 105.519531 L 926.472656 97.773438 L 930.410156 97.773438 Z M 930.410156 116.882812 "/>
<path style=" stroke:none;fill-rule:nonzero;fill:rgb(0%,0%,0%);fill-opacity:1;" d="M 1043.378906 116.882812 L 1039.445312 116.882812 L 1039.445312 97.773438 L 1043.378906 97.773438 Z M 1043.378906 116.882812 "/>
<path style="fill:none;stroke-width:2;stroke-linecap:round;stroke-linejoin:round;stroke:rgb(81.960784%,17.647059%,19.607843%);stroke-opacity:1;stroke-miterlimit:4;" d="M 1074.998215 20.998742 L 982.479862 20.538797 " transform="matrix(0.959649,0,0,0.959693,0,0)"/>
<path style=" stroke:none;fill-rule:nonzero;fill:rgb(81.960784%,17.647059%,19.607843%);fill-opacity:1;" d="M 945.121094 12.074219 L 931.820312 19.664062 L 945.042969 27.378906 Z M 945.121094 12.074219 "/>
<path style="fill:none;stroke-width:2;stroke-linecap:butt;stroke-linejoin:miter;stroke:rgb(0%,53.72549%,69.411765%);stroke-opacity:1;stroke-miterlimit:10;" d="M 82.000186 20.998742 L 187.51971 20.538797 " transform="matrix(0.959649,0,0,0.959693,0,0)"/>
<path style=" stroke:none;fill-rule:nonzero;fill:rgb(0%,53.72549%,69.411765%);fill-opacity:1;" d="M 177.746094 27.378906 L 190.96875 19.664062 L 177.679688 12.0625 Z M 177.746094 27.378906 "/>
<path style="fill:none;stroke-width:2;stroke-linecap:round;stroke-linejoin:miter;stroke:rgb(0%,0%,0%);stroke-opacity:1;stroke-miterlimit:10;" d="M 86.001485 228.999852 L 89.001443 228.999852 " transform="matrix(0.959649,0,0,0.959693,0,0)"/>
<path style="fill:none;stroke-width:2;stroke-linecap:round;stroke-linejoin:miter;stroke:rgb(0%,0%,0%);stroke-opacity:1;stroke-miterlimit:10;" d="M 94.960652 228.999852 L 1070.019995 228.999852 " transform="matrix(0.959649,0,0,0.959693,0,0)"/>
<path style="fill:none;stroke-width:2;stroke-linecap:round;stroke-linejoin:miter;stroke:rgb(0%,0%,0%);stroke-opacity:1;stroke-miterlimit:10;" d="M 1072.9996 228.999852 L 1075.999557 228.999852 " transform="matrix(0.959649,0,0,0.959693,0,0)"/>
<path style="fill:none;stroke-width:2;stroke-linecap:butt;stroke-linejoin:miter;stroke:rgb(0%,53.72549%,69.411765%);stroke-opacity:1;stroke-miterlimit:10;" d="M 122.998243 278.360531 C 122.998243 278.360531 201.298346 277.868023 252.89191 232.268313 C 286.001343 203.010906 310.998272 174.00993 365.628428 175.011227 C 420.258584 176.008453 442.320684 203.641805 476.370401 229.480148 C 510.420118 255.318492 538.828125 278.360531 590.499029 278.360531 C 642.169933 278.360531 676.30106 255.440602 711.669618 231.629273 C 749.871244 205.92118 783.058015 179.191438 830.918933 179.191438 C 875.539734 179.191438 905.999272 199.998875 947.050246 230.868125 C 989.069998 262.461891 1055.988988 276.960344 1055.988988 276.960344 " transform="matrix(0.959649,0,0,0.959693,0,0)"/>
<path style="fill:none;stroke-width:2;stroke-linecap:butt;stroke-linejoin:miter;stroke:rgb(81.960784%,17.647059%,19.607843%);stroke-opacity:1;stroke-miterlimit:10;" d="M 122.998243 180.591625 C 122.998243 180.591625 202.499143 179.761281 252.89191 226.679773 C 293.389297 264.391219 316.440528 280.448602 368.119573 280.448602 C 419.798617 280.448602 442.320684 255.310352 476.35819 229.472008 C 510.399766 203.629594 541.819941 180.591625 593.490845 180.591625 C 645.161749 180.591625 676.288848 203.511555 711.661477 227.318813 C 749.859032 253.030977 787.051174 279.760719 834.908021 279.760719 C 879.528822 279.760719 909.178331 259.840609 947.038034 228.079961 C 990.339994 191.760563 1055.980847 181.991813 1055.980847 181.991813 " transform="matrix(0.959649,0,0,0.959693,0,0)"/>
<path style="fill:none;stroke-width:2;stroke-linecap:round;stroke-linejoin:miter;stroke:rgb(0%,0%,0%);stroke-opacity:1;stroke-miterlimit:10;" d="M 86.001485 670.00193 L 89.001443 670.00193 " transform="matrix(0.959649,0,0,0.959693,0,0)"/>
<path style="fill:none;stroke-width:2;stroke-linecap:round;stroke-linejoin:miter;stroke:rgb(0%,0%,0%);stroke-opacity:1;stroke-miterlimit:10;" d="M 94.960652 670.00193 L 1070.019995 670.00193 " transform="matrix(0.959649,0,0,0.959693,0,0)"/>
<path style="fill:none;stroke-width:2;stroke-linecap:round;stroke-linejoin:miter;stroke:rgb(0%,0%,0%);stroke-opacity:1;stroke-miterlimit:10;" d="M 1072.9996 670.00193 L 1075.999557 670.00193 " transform="matrix(0.959649,0,0,0.959693,0,0)"/>
<path style="fill:none;stroke-width:2;stroke-linecap:butt;stroke-linejoin:miter;stroke:rgb(0%,53.72549%,69.411765%);stroke-opacity:1;stroke-miterlimit:10;" d="M 122.998243 620.64125 C 122.998243 620.64125 201.298346 621.129688 252.89191 666.729398 C 286.001343 695.990875 310.998272 724.991852 365.628428 723.990555 C 420.258584 722.989258 442.320684 695.359977 476.370401 669.521633 C 510.411977 643.679219 538.828125 620.64125 590.499029 620.64125 C 642.169933 620.64125 676.30106 643.56118 711.669618 667.368438 C 749.871244 693.080602 783.058015 719.810344 830.918933 719.810344 C 875.539734 719.810344 905.999272 698.998836 947.050246 668.129586 C 989.069998 636.539891 1055.988988 622.041438 1055.988988 622.041438 " transform="matrix(0.959649,0,0,0.959693,0,0)"/>
<path style="fill:none;stroke-width:2;stroke-linecap:butt;stroke-linejoin:miter;stroke:rgb(81.960784%,17.647059%,19.607843%);stroke-opacity:1;stroke-miterlimit:10;" d="M 122.998243 718.410156 C 122.998243 718.410156 202.499143 719.2405 252.89191 672.322008 C 293.389297 634.610563 316.440528 618.549109 368.119573 618.549109 C 419.798617 618.549109 442.320684 643.69143 476.35819 669.529773 C 510.399766 695.368117 541.819941 718.410156 593.490845 718.410156 C 645.161749 718.410156 676.288848 695.490227 711.661477 671.678898 C 749.859032 645.970805 785.048489 619.241062 832.909406 619.241062 C 877.530207 619.241062 909.178331 639.161172 947.038034 670.92182 C 990.339994 707.241219 1055.980847 717.009969 1055.980847 717.009969 " transform="matrix(0.959649,0,0,0.959693,0,0)"/>
<path style="fill:none;stroke-width:2;stroke-linecap:butt;stroke-linejoin:miter;stroke:rgb(81.960784%,17.647059%,19.607843%);stroke-opacity:1;stroke-miterlimit:10;" d="M 68.999015 440.998008 C 68.999015 440.998008 114.999714 504.999602 192.001328 504.999602 C 268.998872 504.999602 322.000828 380.000305 437.000543 380.000305 C 552.000257 380.000305 574.998572 506.000898 683.0011 506.000898 C 790.999557 506.000898 820.001857 374.000664 920.001785 374.000664 C 1020.001714 374.000664 1047.001328 440.998008 1047.001328 440.998008 " transform="matrix(0.959649,0,0,0.959693,0,0)"/>
<path style="fill:none;stroke-width:2;stroke-linecap:butt;stroke-linejoin:miter;stroke:rgb(0%,53.72549%,69.411765%);stroke-opacity:1;stroke-miterlimit:10;" d="M 73.500985 445.499773 C 73.500985 445.499773 119.501685 497.998664 196.499229 497.998664 C 273.500843 497.998664 326.498729 384.498 441.498443 384.498 C 556.498158 384.498 579.500543 497.998664 687.499 497.998664 C 795.501528 497.998664 824.499757 378.498359 924.499686 378.498359 C 1024.499614 378.498359 1051.499229 445.499773 1051.499229 445.499773 " transform="matrix(0.959649,0,0,0.959693,0,0)"/>
<path style="fill:none;stroke-width:3;stroke-linecap:butt;stroke-linejoin:miter;stroke:rgb(0%,0%,0%);stroke-opacity:1;stroke-miterlimit:10;" d="M 68.001742 441.999305 C 68.001742 441.999305 126.999543 581.370875 190.999986 582.001773 C 241.498586 582.498352 288.248258 518.728766 315.500243 440.50143 C 346.501157 351.499977 385.08948 302.998133 441.498443 302.998133 C 502.34832 302.998133 537.501143 369.498898 565.498029 445.499773 C 590.66999 513.828109 624.4999 578.529797 686.501728 578.000656 C 744.498186 577.500008 770.638925 516.030148 804.5014 446.460367 C 840.500886 372.498719 875.499029 306.99925 932.498215 306.99925 C 1021.499657 306.99925 1048.999943 444.999125 1048.999943 444.999125 " transform="matrix(0.959649,0,0,0.959693,0,0)"/>
<path style="fill:none;stroke-width:2;stroke-linecap:butt;stroke-linejoin:miter;stroke:rgb(81.960784%,17.647059%,19.607843%);stroke-opacity:1;stroke-miterlimit:10;" d="M 68.999015 882.000086 C 68.999015 882.000086 114.999714 817.998492 192.001328 817.998492 C 268.998872 817.998492 322.000828 943.001859 437.000543 943.001859 C 552.000257 943.001859 574.998572 817.001266 683.0011 817.001266 C 790.999557 817.001266 820.001857 949.0015 920.001785 949.0015 C 1020.001714 949.0015 1047.001328 882.000086 1047.001328 882.000086 " transform="matrix(0.959649,0,0,0.959693,0,0)"/>
<path style="fill:none;stroke-width:2;stroke-linecap:butt;stroke-linejoin:miter;stroke:rgb(0%,53.72549%,69.411765%);stroke-opacity:1;stroke-miterlimit:10;" d="M 73.500985 877.49832 C 73.500985 877.49832 119.501685 824.99943 196.499229 824.99943 C 273.500843 824.99943 326.498729 938.500094 441.498443 938.500094 C 556.498158 938.500094 579.500543 824.99943 687.499 824.99943 C 795.501528 824.99943 824.499757 944.499734 924.499686 944.499734 C 1024.499614 944.499734 1051.499229 877.49832 1051.499229 877.49832 " transform="matrix(0.959649,0,0,0.959693,0,0)"/>
<path style="fill:none;stroke-width:3;stroke-linecap:butt;stroke-linejoin:miter;stroke:rgb(0%,0%,0%);stroke-opacity:1;stroke-miterlimit:10;" d="M 68.001742 880.998789 C 68.001742 880.998789 126.999543 741.631289 190.999986 741.000391 C 241.498586 740.499742 288.248258 804.269328 315.500243 882.500734 C 346.501157 971.498117 385.08948 1019.999961 441.498443 1019.999961 C 502.34832 1019.999961 537.501143 953.499195 565.498029 877.49832 C 590.66999 809.169984 624.4999 744.468297 686.501728 745.001508 C 744.498186 745.498086 770.638925 806.972016 804.5014 876.541797 C 840.500886 950.499375 875.499029 1015.998844 932.498215 1015.998844 C 1021.499657 1015.998844 1048.999943 877.998969 1048.999943 877.998969 " transform="matrix(0.959649,0,0,0.959693,0,0)"/>
</g>
</svg>
