<?xml version="1.0" encoding="UTF-8"?><svg id="k" xmlns="http://www.w3.org/2000/svg" width="570" height="457" viewBox="0 0 570 457"><path d="m287.11,284.48c26.94-34.06,46.6-61.57,49.88-83.92,4.22-28.79-33.6-67.91-49.99-92.81" fill="none" stroke="#0077a2" stroke-linecap="round" stroke-linejoin="round" stroke-width="2"/><path d="m287.11,447.48c26.94-31.41,46.6-56.78,49.88-77.39,4.22-26.55-33.6-62.62-49.99-85.59" fill="none" stroke="#0077a2" stroke-linecap="round" stroke-linejoin="round" stroke-width="2"/><path d="m287.3,109.7l.02-2.18c15.68-18.02,49.68-58.02,50.68-94.02" fill="none" stroke="#0077a2" stroke-linecap="round" stroke-linejoin="round" stroke-width="2"/><path d="m286.89,284.48c-26.94-34.06-46.6-61.57-49.88-83.92-4.22-28.79,33.6-67.91,49.99-92.81" fill="none" stroke="#0077a2" stroke-linecap="round" stroke-linejoin="round" stroke-width="2"/><path d="m286.89,447.48c-26.94-31.41-46.6-56.78-49.88-77.39-4.22-26.55,33.6-62.62,49.99-85.59" fill="none" stroke="#0077a2" stroke-linecap="round" stroke-linejoin="round" stroke-width="2"/><path d="m286.7,109.7l-.02-2.18c-15.68-18.02-49.68-58.02-50.68-94.02" fill="none" stroke="#0077a2" stroke-linecap="round" stroke-linejoin="round" stroke-width="2"/><polyline points="380.27 8.24 380.25 447.5 193.99 447.5 194.01 8.24" fill="none" stroke="#000" stroke-miterlimit="10" stroke-width="3"/><line x1="287.13" y1="8.5" x2="287.13" y2="447.5" fill="none" stroke="#000" stroke-dasharray="0 6" stroke-linecap="round" stroke-linejoin="round" stroke-width="2"/><path d="m441.68,241.54h3.16v2.36h-3.16v5.28h-2.91v-5.28h-10.36v-1.7l10.19-15.77h3.08v15.11Zm-9.98,0h7.08v-11.16l-.34.62-6.73,10.53Z"/><path d="m144.38,223.86h-17.29l.21-1.05c2.7,0,3.26-.49,3.85-3.29l3.01-14.6c.49-2.31.32-3.01-2.7-3.01l.21-1.05h9.94l-.17,1.05c-2.52,0-3.64.53-4.17,3.05l-3.19,15.68c-.32,1.54.21,1.89,2.28,1.89h1.64c4.45,0,5.18-1.43,7.35-5.5h1.12l-2.1,6.83Z"/><path d="m150.09,225.09c1.18-1.73,2.43-2.71,4.3-2.71,1.77,0,2.69.96,2.69,2.26,0,1.67-1.14,2.59-2.88,3.55v.06c1.31.45,2.33,1.29,2.33,2.73,0,3.08-3.18,4.79-6.53,4.79-1.71,0-2.06-.49-2.06-1.04,0-.43.31-.98.94-.98.88,0,1.2,1,2.75,1s3.14-.79,3.14-3.06c0-1.53-1.41-2.55-3.16-2.55h-.41l.16-.77h.31c1.65,0,3.61-1.35,3.61-3.16,0-1.06-.69-1.55-1.77-1.55-1.31,0-2.1.61-3.02,1.69l-.41-.27Z"/><path d="m422.04,190.77l1.16-11.34h11.66v2.67h-9.2l-.69,6.2c1.11-.66,2.38-.98,3.8-.98,2.07,0,3.72.69,4.94,2.05,1.22,1.37,1.83,3.22,1.83,5.55s-.63,4.19-1.9,5.54c-1.27,1.35-3.03,2.02-5.3,2.02-2.01,0-3.65-.56-4.92-1.67-1.27-1.11-2-2.66-2.17-4.62h2.73c.18,1.3.64,2.28,1.39,2.95.75.66,1.74.99,2.97.99,1.34,0,2.4-.46,3.16-1.38.77-.92,1.15-2.18,1.15-3.8,0-1.52-.41-2.74-1.24-3.66s-1.93-1.38-3.3-1.38c-1.26,0-2.25.28-2.97.83l-.77.62-2.31-.59Z"/><path d="m448.86,194.68c0,2.94.56,5.11,2.07,5.11.91,0,1.65-.28,2.55-1.23l.6.56c-1.08,2-2.87,3.46-4.62,3.46-1.92,0-2.66-1.64-2.66-4.3,0-3.15.53-5.88.77-9.21h-.21c-1.08,1.54-6.02,9.59-8.02,13.09h-3.5v-.56c3.61-4.9,8.16-10.99,11.76-15.86.04-.74.04-.77.04-1.86,0-2.35-.7-3.71-2.17-3.71-1.16,0-1.96.35-2.87,1.19l-.74-.53c1.12-1.96,2.63-3.36,4.83-3.36,2.52,0,2.62,2.38,2.62,5.15,0,4.27-.46,8.19-.46,12.04Z"/><path d="m420.05,216.57l.42-2h32.9l-.42,2h-32.9Z"/><line x1="193.99" y1="107.75" x2="380.26" y2="107.75" fill="none" stroke="#000" stroke-dasharray="0 6" stroke-linecap="round" stroke-linejoin="round" stroke-width="2"/><line x1="193.99" y1="284.75" x2="380.26" y2="284.75" fill="none" stroke="#000" stroke-dasharray="0 6" stroke-linecap="round" stroke-linejoin="round" stroke-width="2"/></svg>