<?xml version="1.0" encoding="UTF-8"?><svg xmlns="http://www.w3.org/2000/svg" width="1140" height="347" xmlns:xlink="http://www.w3.org/1999/xlink" viewBox="0 0 1140 347"><defs><clipPath id="g"><path d="m1477.57,245.88c46.86,3.42,94.61,7.73,140.46-1.32,45.86-9.05,90.43-34.28,105.82-72.84,28.21-70.71-45.83-133.14-117.05-152.52-39.06-10.63-81.13-14.08-121.91-14.99-84.94-1.89-180.8,5.56-252,49.98-66.15,41.27-110.87,143.74-25.72,190.6,34.08,18.75,75.84,17.19,113.81,11.04,51.84-8.4,103.85-13.8,156.6-9.95Z" fill="none"/></clipPath></defs><g id="e"><path d="m403.57,29.61V8.28h6.56c1.88,0,3.55.42,5.03,1.27s2.63,2.05,3.46,3.6,1.25,3.33,1.25,5.31v.98c0,1.98-.41,3.75-1.22,5.29s-1.97,2.74-3.45,3.59-3.16,1.28-5.02,1.29h-6.61Zm4.39-17.77v14.24h2.12c1.72,0,3.03-.56,3.94-1.68s1.37-2.73,1.39-4.82v-1.13c0-2.17-.45-3.81-1.35-4.93s-2.21-1.68-3.94-1.68h-2.17Z"/><path d="m422.76,9.66c0-.63.21-1.16.64-1.57s1-.62,1.74-.62,1.3.21,1.73.62.64.93.64,1.57-.22,1.17-.65,1.58-1.01.62-1.72.62-1.29-.21-1.72-.62-.65-.94-.65-1.58Zm4.5,19.95h-4.25v-15.85h4.25v15.85Z"/><path d="m439.65,17.73c-.58-.08-1.08-.12-1.52-.12-1.6,0-2.65.54-3.15,1.63v10.37h-4.23v-15.85h4l.12,1.89c.85-1.46,2.03-2.18,3.53-2.18.47,0,.91.06,1.32.19l-.06,4.07Z"/><path d="m448.7,29.9c-2.32,0-4.22-.71-5.68-2.14s-2.19-3.33-2.19-5.7v-.41c0-1.59.31-3.02.92-4.27s1.49-2.22,2.61-2.9,2.41-1.02,3.86-1.02c2.17,0,3.87.68,5.12,2.05s1.87,3.31,1.87,5.82v1.73h-10.09c.14,1.04.55,1.87,1.24,2.49s1.56.94,2.61.94c1.63,0,2.91-.59,3.82-1.77l2.08,2.33c-.63.9-1.49,1.6-2.58,2.1s-2.29.75-3.6.75Zm-.48-13.02c-.84,0-1.52.28-2.04.85s-.86,1.38-1,2.44h5.89v-.34c-.02-.94-.27-1.67-.76-2.19s-1.18-.77-2.08-.77Z"/><path d="m464.21,26.49c.78,0,1.42-.21,1.9-.64s.74-1,.76-1.71h3.97c0,1.07-.3,2.06-.88,2.95s-1.37,1.59-2.37,2.08c-1,.49-2.11.74-3.32.74-2.27,0-4.05-.72-5.36-2.16s-1.96-3.43-1.96-5.97v-.28c0-2.44.65-4.39,1.95-5.84s3.08-2.18,5.35-2.18c1.98,0,3.57.56,4.77,1.69,1.2,1.13,1.8,2.63,1.82,4.5h-3.97c-.02-.82-.27-1.49-.76-2.01-.49-.52-1.13-.77-1.93-.77-.99,0-1.73.36-2.23,1.08-.5.72-.75,1.89-.75,3.5v.44c0,1.63.25,2.81.75,3.52s1.25,1.07,2.27,1.07Z"/><path d="m478.33,9.86v3.9h2.71v3.11h-2.71v7.91c0,.59.11,1.01.34,1.26s.65.38,1.29.38c.47,0,.88-.03,1.25-.1v3.21c-.83.25-1.68.38-2.56.38-2.97,0-4.48-1.5-4.54-4.5v-8.54h-2.31v-3.11h2.31v-3.9h4.23Z"/><path d="m483.37,9.66c0-.63.21-1.16.64-1.57.42-.41,1-.62,1.74-.62s1.3.21,1.73.62.64.93.64,1.57-.22,1.17-.65,1.58c-.44.41-1.01.62-1.72.62s-1.29-.21-1.72-.62c-.43-.41-.65-.94-.65-1.58Zm4.5,19.95h-4.25v-15.85h4.25v15.85Z"/><path d="m490.7,21.54c0-1.57.3-2.97.91-4.2s1.48-2.18,2.61-2.86c1.14-.67,2.46-1.01,3.96-1.01,2.14,0,3.88.65,5.24,1.96,1.35,1.31,2.11,3.09,2.26,5.33l.03,1.08c0,2.43-.68,4.38-2.04,5.85s-3.18,2.2-5.46,2.2-4.11-.73-5.47-2.2c-1.36-1.46-2.04-3.46-2.04-5.98v-.19Zm4.23.3c0,1.51.28,2.66.85,3.46.57.8,1.38,1.2,2.43,1.2s1.83-.39,2.4-1.18c.58-.79.86-2.05.86-3.78,0-1.48-.29-2.62-.86-3.43s-1.39-1.22-2.43-1.22-1.84.4-2.4,1.21-.85,2.06-.85,3.75Z"/><path d="m512.21,13.76l.13,1.83c1.13-1.42,2.65-2.12,4.56-2.12,1.68,0,2.93.49,3.75,1.48s1.24,2.46,1.26,4.42v10.24h-4.23v-10.14c0-.9-.2-1.55-.59-1.96s-1.04-.61-1.95-.61c-1.19,0-2.08.51-2.68,1.52v11.18h-4.23v-15.85h3.98Z"/><path d="m531.93,21.54c0-1.57.3-2.97.91-4.2s1.48-2.18,2.62-2.86c1.14-.67,2.46-1.01,3.96-1.01,2.14,0,3.88.65,5.24,1.96,1.35,1.31,2.11,3.09,2.26,5.33l.03,1.08c0,2.43-.68,4.38-2.04,5.85s-3.18,2.2-5.46,2.2-4.11-.73-5.47-2.2c-1.36-1.46-2.04-3.46-2.04-5.98v-.19Zm4.23.3c0,1.51.28,2.66.85,3.46.57.8,1.38,1.2,2.43,1.2s1.83-.39,2.4-1.18c.58-.79.86-2.05.86-3.78,0-1.48-.29-2.62-.86-3.43s-1.39-1.22-2.43-1.22-1.84.4-2.4,1.21-.85,2.06-.85,3.75Z"/><path d="m550.71,29.61v-12.74h-2.36v-3.11h2.36v-1.35c0-1.78.51-3.16,1.53-4.14,1.02-.98,2.45-1.47,4.28-1.47.59,0,1.3.1,2.15.29l-.04,3.28c-.35-.09-.78-.13-1.29-.13-1.59,0-2.39.75-2.39,2.24v1.27h3.15v3.11h-3.15v12.74h-4.25Z"/><path d="m581.56,23.85l2.08-10.09h4.09l-4.04,15.85h-3.54l-3-9.98-3,9.98h-3.53l-4.04-15.85h4.09l2.07,10.08,2.9-10.08h3.06l2.89,10.09Z"/><path d="m599.01,29.61c-.2-.38-.34-.85-.42-1.42-1.03,1.14-2.36,1.71-4,1.71-1.55,0-2.84-.45-3.86-1.35-1.02-.9-1.53-2.03-1.53-3.4,0-1.68.62-2.97,1.87-3.87,1.24-.9,3.04-1.35,5.4-1.36h1.95v-.91c0-.73-.19-1.32-.56-1.76-.38-.44-.97-.66-1.78-.66-.71,0-1.27.17-1.68.51-.4.34-.61.81-.61,1.41h-4.23c0-.92.28-1.77.85-2.55s1.37-1.39,2.4-1.84,2.2-.67,3.49-.67c1.95,0,3.5.49,4.65,1.47,1.15.98,1.72,2.36,1.72,4.14v6.87c0,1.5.22,2.64.63,3.41v.25h-4.28Zm-3.5-2.94c.62,0,1.2-.14,1.73-.42s.92-.65,1.17-1.12v-2.72h-1.58c-2.12,0-3.25.73-3.38,2.2v.25c-.01.53.17.96.54,1.3s.88.51,1.52.51Z"/><path d="m611.62,24.44l2.94-10.68h4.42l-5.35,15.85h-4.04l-5.35-15.85h4.42l2.94,10.68Z"/><path d="m627.95,29.9c-2.32,0-4.22-.71-5.68-2.14-1.46-1.43-2.19-3.33-2.19-5.7v-.41c0-1.59.31-3.02.92-4.27s1.49-2.22,2.61-2.9c1.13-.68,2.42-1.02,3.86-1.02,2.17,0,3.87.68,5.12,2.05,1.24,1.37,1.87,3.31,1.87,5.82v1.73h-10.09c.14,1.04.55,1.87,1.24,2.49.69.62,1.56.94,2.62.94,1.63,0,2.91-.59,3.82-1.77l2.08,2.33c-.63.9-1.49,1.6-2.58,2.1s-2.29.75-3.6.75Zm-.48-13.02c-.84,0-1.52.28-2.04.85-.52.57-.86,1.38-1,2.44h5.89v-.34c-.02-.94-.27-1.67-.76-2.19s-1.18-.77-2.08-.77Z"/><path d="m648.31,13.76l.13,1.77c1.12-1.38,2.64-2.07,4.56-2.07,2.04,0,3.44.81,4.2,2.42,1.11-1.61,2.7-2.42,4.76-2.42,1.72,0,3,.5,3.84,1.5s1.26,2.51,1.26,4.52v10.12h-4.25v-10.11c0-.9-.18-1.56-.53-1.97s-.97-.62-1.86-.62c-1.27,0-2.15.61-2.64,1.82v10.88s-4.22,0-4.22,0v-10.09c0-.92-.18-1.58-.54-1.99s-.98-.62-1.85-.62c-1.2,0-2.07.5-2.61,1.49v11.21h-4.23v-15.85h3.97Z"/><path d="m669.66,21.54c0-1.57.3-2.97.91-4.2s1.48-2.18,2.62-2.86c1.14-.67,2.46-1.01,3.96-1.01,2.14,0,3.88.65,5.24,1.96,1.35,1.31,2.11,3.09,2.26,5.33l.03,1.08c0,2.43-.68,4.38-2.04,5.85s-3.18,2.2-5.46,2.2-4.11-.73-5.47-2.2c-1.36-1.46-2.04-3.46-2.04-5.98v-.19Zm4.23.3c0,1.51.28,2.66.85,3.46.57.8,1.38,1.2,2.43,1.2s1.83-.39,2.4-1.18c.58-.79.86-2.05.86-3.78,0-1.48-.29-2.62-.86-3.43s-1.39-1.22-2.43-1.22-1.84.4-2.4,1.21-.85,2.06-.85,3.75Z"/><path d="m692.35,9.86v3.9h2.71v3.11h-2.71v7.91c0,.59.11,1.01.34,1.26s.65.38,1.29.38c.47,0,.88-.03,1.25-.1v3.21c-.83.25-1.68.38-2.56.38-2.97,0-4.48-1.5-4.54-4.5v-8.54h-2.31v-3.11h2.31v-3.9h4.23Z"/><path d="m697.39,9.66c0-.63.21-1.16.64-1.57.42-.41,1-.62,1.74-.62s1.3.21,1.73.62.64.93.64,1.57-.22,1.17-.65,1.58c-.44.41-1.01.62-1.72.62s-1.29-.21-1.72-.62c-.43-.41-.65-.94-.65-1.58Zm4.5,19.95h-4.25v-15.85h4.25v15.85Z"/><path d="m704.71,21.54c0-1.57.3-2.97.91-4.2s1.48-2.18,2.61-2.86c1.14-.67,2.46-1.01,3.96-1.01,2.14,0,3.88.65,5.24,1.96,1.35,1.31,2.11,3.09,2.26,5.33l.03,1.08c0,2.43-.68,4.38-2.04,5.85s-3.18,2.2-5.46,2.2-4.11-.73-5.47-2.2c-1.36-1.46-2.04-3.46-2.04-5.98v-.19Zm4.23.3c0,1.51.28,2.66.85,3.46.57.8,1.38,1.2,2.43,1.2s1.83-.39,2.4-1.18c.58-.79.86-2.05.86-3.78,0-1.48-.29-2.62-.86-3.43s-1.39-1.22-2.43-1.22-1.84.4-2.4,1.21-.85,2.06-.85,3.75Z"/><path d="m726.23,13.76l.13,1.83c1.13-1.42,2.65-2.12,4.56-2.12,1.68,0,2.93.49,3.75,1.48s1.24,2.46,1.26,4.42v10.24h-4.23v-10.14c0-.9-.2-1.55-.59-1.96s-1.04-.61-1.95-.61c-1.19,0-2.08.51-2.68,1.52v11.18h-4.23v-15.85h3.98Z"/><path d="m710,128c-28,0-35,28.68-35,50.5s7.16,39.5,16,39.5,16-17.68,16-39.5c0-10.25-1.98-20.79-6.39-30.08-4.23-8.93-11.23-16.87-21.07-19.47-11.53-3.04-25.76-1.06-34.39,7.63-7.22,7.27-10.55,17.64-12.08,27.54-.73,4.75-1.06,9.57-1.06,14.38,0,21.82,7.16,39.5,16,39.5s16-17.68,16-39.5c0-12.33-2.79-25.46-9.62-35.88-3.26-4.97-7.6-9.3-13-11.89-6.81-3.26-14.89-3.4-22.18-1.88-13.14,2.74-20.86,14.47-24.28,26.64-2.1,7.46-2.92,15.28-2.92,23.02,0,21.82,7.16,39.5,16,39.5s16-17.68,16-39.5c0-27.5-15-50.5-29-50.5-21,0-25.58,28.68-25.58,50.5s3.39,39.5,7.58,39.5,7.58-17.68,7.58-39.5-4.74-50.5-16.58-50.5c-13.26,0-16.58,28.68-16.58,50.5s3.39,39.5,7.58,39.5,7.58-17.68,7.58-39.5c0-5.55-.29-11.09-.87-16.61s-1.41-10.74-2.75-15.98c-1.34-5.23-3.14-10.87-6.82-14.98-1.63-1.82-3.84-3.21-6.35-2.83-4.11.62-7.01,4.26-8.77,7.75-2.16,4.27-3.35,9.01-4.25,13.68-1.06,5.53-1.64,11.14-1.98,16.75-.25,4.07-.36,8.15-.36,12.22,0,21.82,3.39,39.5,7.58,39.5s7.58-17.68,7.58-39.5c0-6.37-.37-12.74-1.15-19.07-.74-5.96-1.8-11.93-3.67-17.65-1.37-4.2-4.76-14.08-11.75-14.08-4.51,0-8.71,4.8-11.05,8.57l-.05.08c-2.82,4.6-4.42,9.91-5.56,15.14-1.3,6-1.97,12.13-2.3,18.25-.16,2.92-.23,5.83-.23,8.75,0,21.82,4.34,39.5,9.68,39.5s9.68-17.68,9.68-39.5c0-20.59-6.57-50.11-21.68-50.11s-22.74,30.49-22.74,50.11c0,21.82,6.6,39.5,14.74,39.5s14.74-17.68,14.74-39.5-9.21-50.5-32.24-50.5c-28,0-35,28.68-35,50.5s7.16,39.5,16,39.5,16-17.68,16-39.5c0-7.95-1.23-15.98-3.76-23.52s-6.3-14.57-12.18-19.78c-2.81-2.49-6.07-4.46-9.64-5.68-5.23-1.79-10.88-1.93-16.34-1.52-4.84.36-9.61,1.29-13.97,3.52-2.87,1.46-5.46,3.43-7.66,5.78-5.07,5.44-8.09,12.5-9.92,19.62-1.81,7.03-2.53,14.33-2.53,21.58,0,21.82,7.16,39.5,16,39.5s16-17.68,16-39.5-10-50.5-35-50.5" fill="none" stroke="#000" stroke-linecap="round" stroke-linejoin="round" stroke-width="2"/><path d="m808,128c-11.05,0-13.82,28.68-13.82,50.5s2.83,39.5,6.32,39.5,6.32-17.68,6.32-39.5c0-9.36-.61-18.78-2.15-28.01-.68-4.06-1.54-8.11-2.87-12.01-.96-2.84-2.17-5.83-4.2-8.1s-4.96-2.91-8.02-2.17c-3.52.84-5.54,4.43-6.85,7.52-1.58,3.72-2.51,7.71-3.23,11.67-1.74,9.62-2.23,19.47-2.3,29.23,0,.62,0,1.24,0,1.86,0,21.82,2.83,39.5,6.32,39.5s6.32-17.68,6.32-39.5c0-7.24-.39-14.5-1.25-21.69-.77-6.44-1.84-12.99-4.04-19.11-1.02-2.84-2.22-5.95-4.52-8.01-2.05-1.84-5.16-2.19-7.79-1.79-5.83.89-8.25,6.42-9.81,11.47-2.04,6.58-2.9,13.53-3.48,20.38-.53,6.24-.74,12.5-.74,18.76,0,21.82,2.83,39.5,6.32,39.5s6.32-17.68,6.32-39.5c0-6.81-.35-13.63-1.1-20.4-.69-6.2-1.66-12.44-3.52-18.41-.96-3.09-3.19-10.92-9.71-10.92-9.48,0-13.2,15.33-14.64,22.92-.45,2.38-.8,4.77-1.09,7.17-.54,4.44-.79,8.9-.93,13.37-.34,10.69-.03,21.46,1.95,31.97.73,3.87,1.71,7.75,3.6,11.2.69,1.27,1.76,2.61,3.2,2.56,1.36-.04,2.34-1.3,2.99-2.5,2-3.63,3-7.72,3.75-11.8,1.96-10.73,2.27-21.7,1.73-32.59-.42-8.42-1.39-16.9-3.89-24.97-2.22-7.17-7.16-18.03-16.88-18.03-11.28,0-17.61,12.85-20.06,18.84-3.03,7.42-4.39,15.47-4.94,23.43-.19,2.71-.28,5.42-.28,8.14,0,21.82,7.16,39.5,16,39.5s16-17.68,16-39.5-10-50.5-35-50.5" fill="none" stroke="#000" stroke-linecap="round" stroke-linejoin="round" stroke-width="2"/><path d="m404,128c-28,0-35,28.68-35,50.5s7.16,39.5,16,39.5,16-17.68,16-39.5c0-25.5-14-50.5-30-50.5s-21.74,28.68-21.74,50.5,3.02,39.5,6.74,39.5,6.74-17.68,6.74-39.5c0-8.7-.58-17.45-1.96-26.05-1.12-6.95-2.68-14.06-6.36-20.15-3.13-5.18-11.25-5.8-15.77-2.06-2.24,1.85-3.66,4.51-4.77,7.2-2.57,6.28-3.68,13.06-4.41,19.81-1.3,12.02-1.47,24.16-.58,36.21.41,5.52,1.03,11.04,2.28,16.44.54,2.36,1.22,4.72,2.51,6.76.32.5.71,1.01,1.28,1.21,1.35.46,2.5-1.05,3.05-2.37,1.97-4.7,2.81-9.79,3.41-14.86,1.72-14.44,1.67-29.09-.16-43.51-.76-6-1.84-12.01-3.96-17.69-1.67-4.49-4.51-11.45-10.3-11.45-12.53,0-15.66,28.68-15.66,50.5s3.2,39.5,7.16,39.5,7.16-17.68,7.16-39.5c0-8.3-.57-16.63-1.88-24.82-1.09-6.76-2.53-14.04-6.08-20.01-2.5-4.2-6.82-6.97-11.75-5.12-7.48,2.81-10.89,11.67-12.76,18.73-3.07,11.6-3.66,23.73-3.33,35.73.21,7.55.77,15.11,2.36,22.49.79,3.66,1.85,7.34,3.92,10.46.62.93,1.44,1.88,2.55,2.02,1.52.19,2.75-1.2,3.53-2.52,2.05-3.49,3.09-7.48,3.87-11.45,2.13-10.91,2.46-22.12,1.85-33.23-.47-8.69-1.56-17.47-4.4-25.73-1.87-5.44-8.08-16.93-15.81-16.93s-12.15,5.57-16.03,10.65c-3.47,4.53-5.81,9.85-7.42,15.3s-2.6,11.46-3.02,17.3c-.17,2.37-.25,4.74-.25,7.11,0,21.82,7.16,39.5,16,39.5s16-17.68,16-39.5-10-50.5-35-50.5c-31.68,0-39.61,28.68-39.61,50.5s8.11,39.5,18.1,39.5,18.1-17.68,18.1-39.5c0-12.17-3.19-24.97-10.25-35.01-8.52-12.09-21.57-16.52-35.99-15.38-26.2,2.08-35.12,27.37-35.12,50.39,0,21.82,7.73,39.5,17.26,39.5s17.26-17.68,17.26-39.5-10.79-50.5-37.76-50.5h-2c-28,0-35,28.68-35,50.5s7.16,39.5,16,39.5,16-17.68,16-39.5-10-50.5-35-50.5" fill="none" stroke="#000" stroke-linecap="round" stroke-linejoin="round" stroke-width="2"/><line x1="432.52" y1="107.13" x2="226.48" y2="107.13" fill="none" stroke="#0077a2" stroke-miterlimit="10" stroke-width="2"/><polygon points="430.18 99.15 444 107.13 430.18 115.11 430.18 99.15" fill="#0077a2"/><polygon points="228.82 99.15 215 107.13 228.82 115.11 228.82 99.15" fill="#0077a2"/><line x1="749.52" y1="107" x2="543.48" y2="107" fill="none" stroke="#0077a2" stroke-miterlimit="10" stroke-width="2"/><polygon points="747.18 99.02 761 107 747.18 114.98 747.18 99.02" fill="#0077a2"/><polygon points="545.82 99.02 532 107 545.82 114.98 545.82 99.02" fill="#0077a2"/><path d="m327.61,90.51c.48,2.35,1.18,4.12,2.49,4.12.84,0,1.37-.31,1.93-1.01l.48.31c-.59,1.57-1.74,2.88-3.22,2.88s-2.35-1.29-2.77-3.42c-.5-2.52-.45-4.98-.76-7.67h-.14c-.64,1.26-3.39,7.98-4.48,10.78h-2.72l-.08-.45c2.13-3.92,4.73-8.9,6.83-12.85-.06-.59-.08-.64-.22-1.51-.34-1.74-1.18-2.94-2.35-2.94-.84,0-1.43.34-1.99,1.09l-.48-.22c.67-1.68,1.51-2.88,3.22-2.88,1.9,0,2.32,1.93,2.77,4.14.64,3.42.9,6.55,1.48,9.63Z"/><path d="m650.61,90.51c.48,2.35,1.18,4.12,2.49,4.12.84,0,1.37-.31,1.93-1.01l.48.31c-.59,1.57-1.74,2.88-3.22,2.88s-2.35-1.29-2.77-3.42c-.5-2.52-.45-4.98-.76-7.67h-.14c-.64,1.26-3.39,7.98-4.48,10.78h-2.72l-.08-.45c2.13-3.92,4.73-8.9,6.83-12.85-.06-.59-.08-.64-.22-1.51-.34-1.74-1.18-2.94-2.35-2.94-.84,0-1.43.34-1.99,1.09l-.48-.22c.67-1.68,1.51-2.88,3.22-2.88,1.9,0,2.32,1.93,2.77,4.14.64,3.42.9,6.55,1.48,9.63Z"/><line x1="734" y1="61" x2="570.33" y2="61" fill="none" stroke="#5c539c" stroke-miterlimit="10" stroke-width="2"/><polygon points="572.66 53.02 558.85 61 572.66 68.98 572.66 53.02" fill="#5c539c"/><line x1="837.85" y1="148" x2="896.52" y2="148" fill="none" stroke="#000" stroke-miterlimit="10" stroke-width="2"/><polygon points="894.18 155.98 908 148 894.18 140.02 894.18 155.98"/><line x1="908" y1="162" x2="849.33" y2="162" fill="none" stroke="#000" stroke-miterlimit="10" stroke-width="2"/><polygon points="851.66 154.02 837.85 162 851.66 169.98 851.66 154.02"/><line x1="363" y1="295" x2="246.06" y2="230.54" fill="none" stroke="#d12d32" stroke-linecap="round" stroke-linejoin="round" stroke-width="2"/><polygon points="251.95 224.68 236 225 244.25 238.66 251.95 224.68" fill="#d12d32"/><line x1="375" y1="295" x2="436.34" y2="226.55" fill="none" stroke="#d12d32" stroke-linecap="round" stroke-linejoin="round" stroke-width="2"/><polygon points="440.72 233.61 444 218 428.84 222.97 440.72 233.61" fill="#d12d32"/><line x1="569" y1="295" x2="351.71" y2="228.37" fill="none" stroke="#000" stroke-linecap="round" stroke-linejoin="round" stroke-width="2"/><polygon points="356.28 221.42 340.73 225 351.6 236.68 356.28 221.42"/><line x1="458" y1="318" x2="671.46" y2="225.56" fill="none" stroke="#d12d32" stroke-linecap="round" stroke-linejoin="round" stroke-width="2"/><polygon points="672.49 233.81 682 221 666.15 219.17 672.49 233.81" fill="#d12d32"/><line x1="619" y1="295" x2="569.79" y2="233.94" fill="none" stroke="#000" stroke-linecap="round" stroke-linejoin="round" stroke-width="2"/><polygon points="577.47 230.75 562.59 225 565.04 240.76 577.47 230.75"/><line x1="652" y1="295" x2="763.2" y2="226.99" fill="none" stroke="#000" stroke-linecap="round" stroke-linejoin="round" stroke-width="2"/><polygon points="765.38 235.01 773 221 757.05 221.4 765.38 235.01"/><path d="m294.23,318.84h-4.68v8.05h-2.64v-19.91h6.59c2.24,0,3.97.51,5.17,1.53,1.21,1.02,1.81,2.51,1.81,4.46,0,1.24-.33,2.32-1,3.24-.67.92-1.6,1.61-2.8,2.06l4.68,8.45v.16h-2.82l-4.32-8.05Zm-4.68-2.15h4.03c1.3,0,2.34-.34,3.11-1.01.77-.68,1.16-1.58,1.16-2.71,0-1.23-.37-2.18-1.1-2.83-.73-.66-1.79-.99-3.18-1h-4.02v7.56Z"/><path d="m312.91,326.89c-.15-.29-.26-.81-.36-1.56-1.18,1.22-2.58,1.83-4.21,1.83-1.46,0-2.65-.41-3.59-1.24-.93-.82-1.4-1.87-1.4-3.14,0-1.54.59-2.74,1.76-3.59,1.17-.85,2.82-1.28,4.94-1.28h2.46v-1.16c0-.88-.26-1.59-.79-2.11-.53-.52-1.31-.79-2.34-.79-.9,0-1.66.23-2.27.68-.61.46-.92,1.01-.92,1.65h-2.54c0-.74.26-1.45.79-2.14.52-.69,1.23-1.23,2.13-1.63.9-.4,1.88-.6,2.96-.6,1.7,0,3.04.43,4.01,1.28.97.85,1.47,2.03,1.5,3.52v6.81c0,1.36.17,2.44.52,3.24v.22h-2.65Zm-4.2-1.93c.79,0,1.54-.21,2.26-.62s1.23-.94,1.54-1.6v-3.04h-1.98c-3.1,0-4.65.91-4.65,2.72,0,.79.26,1.41.79,1.86.53.45,1.21.67,2.04.67Z"/><path d="m326.16,314.37c-.38-.06-.8-.1-1.24-.1-1.66,0-2.78.71-3.38,2.12v10.5h-2.53v-14.79h2.46l.04,1.71c.83-1.32,2-1.98,3.53-1.98.49,0,.87.06,1.12.19v2.35Z"/><path d="m334.36,327.16c-2.01,0-3.64-.66-4.89-1.98-1.26-1.32-1.89-3.08-1.89-5.28v-.46c0-1.47.28-2.78.84-3.93.56-1.15,1.34-2.06,2.35-2.71,1.01-.65,2.1-.98,3.27-.98,1.92,0,3.42.63,4.48,1.9,1.07,1.27,1.6,3.08,1.6,5.44v1.05h-10.02c.04,1.46.46,2.64,1.28,3.53.82.9,1.85,1.35,3.11,1.35.89,0,1.65-.18,2.27-.55.62-.36,1.16-.85,1.63-1.45l1.54,1.2c-1.24,1.91-3.1,2.86-5.58,2.86Zm-.31-13.26c-1.02,0-1.88.37-2.57,1.11-.69.74-1.12,1.78-1.29,3.12h7.41v-.19c-.07-1.29-.42-2.28-1.04-2.99-.62-.71-1.46-1.06-2.52-1.06Z"/><path d="m344.3,326.89v-12.84h-2.34v-1.96h2.34v-1.52c0-1.59.42-2.81,1.27-3.68.85-.87,2.05-1.3,3.6-1.3.58,0,1.16.08,1.74.23l-.14,2.04c-.43-.08-.88-.12-1.37-.12-.82,0-1.45.24-1.9.72-.45.48-.67,1.17-.67,2.06v1.56h3.16v1.96h-3.16v12.84h-2.53Z"/><path d="m361.91,326.89c-.15-.29-.26-.81-.36-1.56-1.18,1.22-2.58,1.83-4.21,1.83-1.46,0-2.65-.41-3.59-1.24-.93-.82-1.4-1.87-1.4-3.14,0-1.54.59-2.74,1.76-3.59,1.17-.85,2.82-1.28,4.94-1.28h2.46v-1.16c0-.88-.26-1.59-.79-2.11-.53-.52-1.31-.79-2.34-.79-.9,0-1.66.23-2.27.68-.61.46-.92,1.01-.92,1.65h-2.54c0-.74.26-1.45.79-2.14.52-.69,1.23-1.23,2.13-1.63.9-.4,1.88-.6,2.96-.6,1.7,0,3.04.43,4.01,1.28.97.85,1.47,2.03,1.5,3.52v6.81c0,1.36.17,2.44.52,3.24v.22h-2.65Zm-4.2-1.93c.79,0,1.54-.21,2.26-.62s1.23-.94,1.54-1.6v-3.04h-1.98c-3.1,0-4.65.91-4.65,2.72,0,.79.26,1.41.79,1.86.53.45,1.21.67,2.04.67Z"/><path d="m373.94,325.1c.9,0,1.69-.27,2.37-.82.67-.55,1.05-1.23,1.12-2.05h2.39c-.05.85-.34,1.65-.88,2.42s-1.26,1.38-2.15,1.83c-.9.46-1.85.68-2.85.68-2.01,0-3.62-.67-4.81-2.02-1.19-1.34-1.78-3.18-1.78-5.52v-.42c0-1.44.26-2.72.79-3.84.53-1.12,1.29-1.99,2.28-2.61.99-.62,2.16-.93,3.51-.93,1.66,0,3.04.5,4.14,1.49,1.1.99,1.68,2.28,1.76,3.87h-2.39c-.07-.96-.44-1.74-1.09-2.36-.65-.62-1.46-.92-2.41-.92-1.29,0-2.28.46-2.99,1.39-.71.93-1.06,2.26-1.06,4.01v.48c0,1.7.35,3.02,1.05,3.94.7.92,1.7,1.38,3.01,1.38Z"/><path d="m386.09,308.51v3.58h2.76v1.96h-2.76v9.19c0,.59.12,1.04.37,1.33s.67.44,1.26.44c.29,0,.69-.05,1.2-.16v2.04c-.67.18-1.31.27-1.94.27-1.13,0-1.98-.34-2.56-1.03s-.86-1.65-.86-2.91v-9.17h-2.69v-1.96h2.69v-3.58h2.53Z"/><path d="m391.82,308.17c0-.41.12-.76.38-1.04.25-.28.62-.42,1.11-.42s.87.14,1.12.42c.25.28.38.63.38,1.04s-.13.75-.38,1.03-.63.41-1.12.41-.86-.14-1.11-.41-.38-.62-.38-1.03Zm2.73,18.72h-2.53v-14.79h2.53v14.79Z"/><path d="m397.93,319.36c0-1.45.29-2.75.85-3.91.57-1.16,1.36-2.05,2.38-2.68s2.18-.94,3.48-.94c2.01,0,3.64.7,4.89,2.09s1.87,3.25,1.87,5.56v.18c0,1.44-.28,2.73-.83,3.88-.55,1.14-1.34,2.04-2.37,2.67-1.03.64-2.2.96-3.53.96-2,0-3.63-.7-4.87-2.09s-1.87-3.24-1.87-5.54v-.18Zm2.54.3c0,1.64.38,2.96,1.14,3.95.76.99,1.78,1.49,3.06,1.49s2.31-.5,3.06-1.51c.76-1.01,1.13-2.42,1.13-4.23,0-1.62-.38-2.94-1.16-3.94-.77-1.01-1.79-1.51-3.07-1.51s-2.26.5-3.02,1.49c-.77.99-1.15,2.42-1.15,4.27Z"/><path d="m416.97,312.1l.08,1.86c1.13-1.42,2.61-2.13,4.43-2.13,3.13,0,4.7,1.76,4.73,5.29v9.78h-2.53v-9.79c0-1.07-.25-1.85-.73-2.37-.48-.51-1.22-.77-2.24-.77-.82,0-1.54.22-2.16.66s-1.1,1.01-1.45,1.72v10.54h-2.53v-14.79h2.39Z"/><path d="m438.64,322.97c0-.68-.26-1.21-.77-1.59-.51-.38-1.41-.7-2.69-.98s-2.3-.6-3.05-.98-1.31-.84-1.67-1.37c-.36-.53-.54-1.16-.54-1.89,0-1.21.51-2.24,1.54-3.08,1.03-.84,2.34-1.26,3.93-1.26,1.68,0,3.04.43,4.08,1.3,1.04.87,1.57,1.97,1.57,3.32h-2.54c0-.69-.29-1.29-.88-1.79-.59-.5-1.33-.75-2.22-.75s-1.64.2-2.16.6c-.52.4-.78.93-.78,1.57,0,.61.24,1.07.72,1.38.48.31,1.36.61,2.62.89,1.26.28,2.29.62,3.07,1.01.78.39,1.37.86,1.74,1.42.38.55.57,1.22.57,2.02,0,1.32-.53,2.38-1.59,3.18-1.06.8-2.43,1.2-4.12,1.2-1.18,0-2.23-.21-3.14-.63s-1.62-1-2.14-1.76-.77-1.57-.77-2.44h2.53c.05.85.38,1.52,1.02,2.02.63.5,1.47.75,2.51.75.96,0,1.72-.19,2.3-.58.58-.39.87-.9.87-1.55Z"/><path d="m572.58,320.57c-.25,2.11-1.02,3.73-2.33,4.87-1.31,1.14-3.05,1.72-5.22,1.72-2.35,0-4.24-.84-5.65-2.53-1.42-1.69-2.13-3.94-2.13-6.77v-1.91c0-1.85.33-3.48.99-4.88.66-1.4,1.6-2.48,2.81-3.23s2.62-1.13,4.21-1.13c2.11,0,3.81.59,5.09,1.77,1.28,1.18,2.02,2.81,2.23,4.9h-2.64c-.23-1.59-.72-2.74-1.48-3.46-.76-.71-1.83-1.07-3.19-1.07-1.68,0-2.99.62-3.94,1.86-.95,1.24-1.43,3.01-1.43,5.29v1.93c0,2.16.45,3.88,1.35,5.16s2.17,1.92,3.79,1.92c1.46,0,2.58-.33,3.36-.99.78-.66,1.3-1.81,1.55-3.45h2.64Z"/><path d="m575.09,319.36c0-1.45.28-2.75.85-3.91.57-1.16,1.36-2.05,2.38-2.68,1.02-.63,2.18-.94,3.48-.94,2.01,0,3.64.7,4.89,2.09s1.87,3.25,1.87,5.56v.18c0,1.44-.28,2.73-.83,3.88-.55,1.14-1.34,2.04-2.37,2.67-1.03.64-2.2.96-3.53.96-2,0-3.63-.7-4.87-2.09s-1.87-3.24-1.87-5.54v-.18Zm2.54.3c0,1.64.38,2.96,1.14,3.95.76.99,1.78,1.49,3.06,1.49s2.31-.5,3.06-1.51c.76-1.01,1.13-2.42,1.13-4.23,0-1.62-.39-2.94-1.16-3.94-.77-1.01-1.79-1.51-3.07-1.51s-2.26.5-3.02,1.49c-.77.99-1.15,2.42-1.15,4.27Z"/><path d="m594.11,312.1l.07,1.64c1.08-1.28,2.55-1.91,4.39-1.91,2.07,0,3.48.79,4.22,2.38.49-.71,1.13-1.29,1.92-1.72.79-.44,1.72-.66,2.8-.66,3.25,0,4.89,1.72,4.95,5.15v9.91h-2.53v-9.76c0-1.06-.24-1.85-.72-2.37-.48-.52-1.29-.79-2.43-.79-.94,0-1.72.28-2.34.84s-.98,1.31-1.08,2.26v9.82h-2.54v-9.69c0-2.15-1.05-3.23-3.16-3.23-1.66,0-2.79.71-3.4,2.12v10.8h-2.53v-14.79h2.39Z"/><path d="m628.77,319.66c0,2.25-.51,4.07-1.54,5.44-1.03,1.38-2.42,2.06-4.18,2.06s-3.21-.57-4.24-1.71v7.12h-2.53v-20.48h2.31l.12,1.64c1.03-1.28,2.46-1.91,4.29-1.91s3.18.67,4.22,2.01c1.03,1.34,1.55,3.2,1.55,5.59v.23Zm-2.53-.29c0-1.67-.36-2.98-1.07-3.95-.71-.97-1.69-1.45-2.93-1.45-1.53,0-2.68.68-3.45,2.04v7.07c.76,1.35,1.91,2.02,3.47,2.02,1.21,0,2.18-.48,2.89-1.44.71-.96,1.07-2.39,1.07-4.29Z"/><path d="m639.13,314.37c-.38-.06-.8-.1-1.24-.1-1.66,0-2.78.71-3.38,2.12v10.5h-2.53v-14.79h2.46l.04,1.71c.83-1.32,2-1.98,3.53-1.98.49,0,.87.06,1.12.19v2.35Z"/><path d="m647.33,327.16c-2,0-3.64-.66-4.89-1.98-1.26-1.32-1.89-3.08-1.89-5.28v-.46c0-1.47.28-2.78.84-3.93.56-1.15,1.34-2.06,2.35-2.71,1.01-.65,2.1-.98,3.27-.98,1.92,0,3.42.63,4.48,1.9,1.07,1.27,1.6,3.08,1.6,5.44v1.05h-10.02c.04,1.46.46,2.64,1.28,3.53.82.9,1.85,1.35,3.11,1.35.89,0,1.65-.18,2.27-.55.62-.36,1.16-.85,1.63-1.45l1.54,1.2c-1.24,1.91-3.1,2.86-5.58,2.86Zm-.31-13.26c-1.02,0-1.88.37-2.57,1.11-.69.74-1.12,1.78-1.29,3.12h7.41v-.19c-.07-1.29-.42-2.28-1.04-2.99-.62-.71-1.46-1.06-2.52-1.06Z"/><path d="m664.64,322.97c0-.68-.26-1.21-.77-1.59-.51-.38-1.41-.7-2.69-.98s-2.3-.6-3.05-.98-1.31-.84-1.67-1.37c-.36-.53-.54-1.16-.54-1.89,0-1.21.51-2.24,1.54-3.08,1.03-.84,2.34-1.26,3.93-1.26,1.68,0,3.04.43,4.08,1.3,1.04.87,1.57,1.97,1.57,3.32h-2.54c0-.69-.29-1.29-.88-1.79-.59-.5-1.33-.75-2.22-.75s-1.64.2-2.16.6c-.52.4-.78.93-.78,1.57,0,.61.24,1.07.72,1.38.48.31,1.36.61,2.62.89,1.26.28,2.29.62,3.07,1.01.78.39,1.37.86,1.74,1.42.38.55.57,1.22.57,2.02,0,1.32-.53,2.38-1.59,3.18-1.06.8-2.43,1.2-4.12,1.2-1.18,0-2.23-.21-3.14-.63s-1.62-1-2.14-1.76-.77-1.57-.77-2.44h2.53c.05.85.38,1.52,1.02,2.02.63.5,1.47.75,2.51.75.96,0,1.72-.19,2.3-.58.58-.39.87-.9.87-1.55Z"/><path d="m679.08,322.97c0-.68-.26-1.21-.77-1.59-.51-.38-1.41-.7-2.69-.98s-2.3-.6-3.05-.98-1.31-.84-1.67-1.37c-.36-.53-.54-1.16-.54-1.89,0-1.21.51-2.24,1.54-3.08,1.03-.84,2.34-1.26,3.93-1.26,1.68,0,3.04.43,4.08,1.3,1.04.87,1.57,1.97,1.57,3.32h-2.54c0-.69-.29-1.29-.88-1.79-.59-.5-1.33-.75-2.22-.75s-1.64.2-2.16.6c-.52.4-.78.93-.78,1.57,0,.61.24,1.07.72,1.38.48.31,1.36.61,2.62.89,1.26.28,2.29.62,3.07,1.01.78.39,1.37.86,1.74,1.42.38.55.57,1.22.57,2.02,0,1.32-.53,2.38-1.59,3.18-1.06.8-2.43,1.2-4.12,1.2-1.18,0-2.23-.21-3.14-.63s-1.62-1-2.14-1.76-.77-1.57-.77-2.44h2.53c.05.85.38,1.52,1.02,2.02.63.5,1.47.75,2.51.75.96,0,1.72-.19,2.3-.58.58-.39.87-.9.87-1.55Z"/><path d="m684.92,308.17c0-.41.12-.76.38-1.04.25-.28.62-.42,1.11-.42s.87.14,1.12.42c.25.28.38.63.38,1.04s-.13.75-.38,1.03-.63.41-1.12.41-.86-.14-1.11-.41-.38-.62-.38-1.03Zm2.73,18.72h-2.53v-14.79h2.53v14.79Z"/><path d="m691.03,319.36c0-1.45.29-2.75.85-3.91.57-1.16,1.36-2.05,2.38-2.68s2.18-.94,3.48-.94c2.01,0,3.64.7,4.89,2.09s1.87,3.25,1.87,5.56v.18c0,1.44-.28,2.73-.83,3.88-.55,1.14-1.34,2.04-2.37,2.67-1.03.64-2.2.96-3.53.96-2,0-3.63-.7-4.87-2.09s-1.87-3.24-1.87-5.54v-.18Zm2.54.3c0,1.64.38,2.96,1.14,3.95.76.99,1.78,1.49,3.06,1.49s2.31-.5,3.06-1.51c.76-1.01,1.13-2.42,1.13-4.23,0-1.62-.38-2.94-1.16-3.94-.77-1.01-1.79-1.51-3.07-1.51s-2.26.5-3.02,1.49c-.77.99-1.15,2.42-1.15,4.27Z"/><path d="m710.06,312.1l.08,1.86c1.13-1.42,2.61-2.13,4.43-2.13,3.13,0,4.7,1.76,4.73,5.29v9.78h-2.53v-9.79c0-1.07-.25-1.85-.73-2.37-.48-.51-1.22-.77-2.24-.77-.82,0-1.54.22-2.16.66s-1.1,1.01-1.45,1.72v10.54h-2.53v-14.79h2.39Z"/><path d="m731.73,322.97c0-.68-.26-1.21-.77-1.59-.51-.38-1.41-.7-2.69-.98s-2.3-.6-3.05-.98-1.31-.84-1.67-1.37c-.36-.53-.54-1.16-.54-1.89,0-1.21.51-2.24,1.54-3.08,1.03-.84,2.34-1.26,3.93-1.26,1.68,0,3.04.43,4.08,1.3,1.04.87,1.57,1.97,1.57,3.32h-2.54c0-.69-.29-1.29-.88-1.79-.59-.5-1.33-.75-2.22-.75s-1.64.2-2.16.6c-.52.4-.78.93-.78,1.57,0,.61.24,1.07.72,1.38.48.31,1.36.61,2.62.89,1.26.28,2.29.62,3.07,1.01.78.39,1.37.86,1.74,1.42.38.55.57,1.22.57,2.02,0,1.32-.53,2.38-1.59,3.18-1.06.8-2.43,1.2-4.12,1.2-1.18,0-2.23-.21-3.14-.63s-1.62-1-2.14-1.76-.77-1.57-.77-2.44h2.53c.05.85.38,1.52,1.02,2.02.63.5,1.47.75,2.51.75.96,0,1.72-.19,2.3-.58.58-.39.87-.9.87-1.55Z"/><path d="m842.56,194.1v7.79h-2.62v-19.91h7.34c2.18,0,3.88.56,5.12,1.67,1.23,1.11,1.85,2.58,1.85,4.42,0,1.93-.6,3.42-1.81,4.46-1.21,1.04-2.94,1.57-5.19,1.57h-4.69Zm0-2.15h4.72c1.4,0,2.48-.33,3.23-.99.75-.66,1.12-1.62,1.12-2.87s-.37-2.14-1.12-2.85-1.77-1.08-3.08-1.11h-4.87v7.82Z"/><path d="m866.18,201.89c-.15-.29-.26-.81-.36-1.56-1.18,1.22-2.58,1.83-4.21,1.83-1.46,0-2.66-.41-3.59-1.24-.93-.82-1.4-1.87-1.4-3.14,0-1.54.58-2.74,1.76-3.59,1.17-.85,2.82-1.28,4.94-1.28h2.46v-1.16c0-.88-.26-1.59-.79-2.11-.53-.52-1.31-.79-2.34-.79-.9,0-1.66.23-2.27.68-.61.46-.92,1.01-.92,1.65h-2.54c0-.74.26-1.45.79-2.14.52-.69,1.23-1.23,2.13-1.63.9-.4,1.88-.6,2.96-.6,1.7,0,3.04.43,4.01,1.28.97.85,1.47,2.03,1.5,3.52v6.81c0,1.36.17,2.44.52,3.24v.22h-2.65Zm-4.2-1.93c.79,0,1.54-.21,2.26-.62s1.23-.94,1.54-1.6v-3.04h-1.98c-3.1,0-4.65.91-4.65,2.72,0,.79.26,1.41.79,1.86.53.45,1.21.67,2.04.67Z"/><path d="m879.43,189.37c-.38-.06-.8-.1-1.24-.1-1.66,0-2.78.71-3.38,2.12v10.5h-2.53v-14.79h2.46l.04,1.71c.83-1.32,2-1.98,3.53-1.98.49,0,.87.06,1.12.19v2.35Z"/><path d="m885.87,183.51v3.58h2.76v1.96h-2.76v9.19c0,.59.12,1.04.37,1.33s.67.44,1.26.44c.29,0,.69-.05,1.2-.16v2.04c-.67.18-1.31.27-1.94.27-1.13,0-1.98-.34-2.56-1.03s-.86-1.65-.86-2.91v-9.17h-2.69v-1.96h2.69v-3.58h2.53Z"/><path d="m891.6,183.17c0-.41.12-.76.38-1.04.25-.28.62-.42,1.11-.42s.87.14,1.12.42c.25.28.38.63.38,1.04s-.13.75-.38,1.03-.63.41-1.12.41-.86-.14-1.11-.41c-.25-.27-.38-.62-.38-1.03Zm2.73,18.72h-2.53v-14.79h2.53v14.79Z"/><path d="m904.31,200.1c.9,0,1.69-.27,2.37-.82s1.05-1.23,1.12-2.05h2.39c-.05.85-.34,1.65-.88,2.42s-1.26,1.38-2.15,1.83c-.9.46-1.85.68-2.85.68-2.01,0-3.62-.67-4.81-2.02-1.19-1.34-1.78-3.18-1.78-5.52v-.42c0-1.44.26-2.72.79-3.84s1.29-1.99,2.28-2.61c.99-.62,2.16-.93,3.51-.93,1.66,0,3.04.5,4.14,1.49,1.1.99,1.68,2.28,1.76,3.87h-2.39c-.07-.96-.44-1.74-1.09-2.36-.65-.62-1.46-.92-2.41-.92-1.29,0-2.28.46-2.99,1.39-.71.93-1.06,2.26-1.06,4.01v.48c0,1.7.35,3.02,1.05,3.94.7.92,1.7,1.38,3.01,1.38Z"/><path d="m915.78,201.89h-2.53v-21h2.53v21Z"/><path d="m925.97,202.16c-2,0-3.64-.66-4.89-1.98-1.26-1.32-1.89-3.08-1.89-5.28v-.46c0-1.47.28-2.78.84-3.93.56-1.15,1.34-2.06,2.35-2.71,1.01-.65,2.1-.98,3.27-.98,1.92,0,3.42.63,4.48,1.9,1.07,1.27,1.6,3.08,1.6,5.44v1.05h-10.02c.04,1.46.46,2.64,1.28,3.53.82.9,1.85,1.35,3.11,1.35.89,0,1.65-.18,2.27-.55.62-.36,1.16-.85,1.63-1.45l1.54,1.2c-1.24,1.91-3.1,2.86-5.58,2.86Zm-.31-13.26c-1.02,0-1.88.37-2.57,1.11-.69.74-1.12,1.78-1.29,3.12h7.41v-.19c-.07-1.29-.42-2.28-1.04-2.99-.62-.71-1.46-1.06-2.52-1.06Z"/><path d="m950.73,201.89c-.15-.29-.26-.81-.36-1.56-1.18,1.22-2.58,1.83-4.21,1.83-1.46,0-2.65-.41-3.59-1.24-.93-.82-1.4-1.87-1.4-3.14,0-1.54.59-2.74,1.76-3.59,1.17-.85,2.82-1.28,4.94-1.28h2.46v-1.16c0-.88-.26-1.59-.79-2.11-.53-.52-1.31-.79-2.34-.79-.9,0-1.66.23-2.27.68-.61.46-.92,1.01-.92,1.65h-2.54c0-.74.26-1.45.79-2.14.52-.69,1.24-1.23,2.13-1.63.9-.4,1.88-.6,2.96-.6,1.7,0,3.04.43,4.01,1.28.97.85,1.47,2.03,1.5,3.52v6.81c0,1.36.17,2.44.52,3.24v.22h-2.65Zm-4.2-1.93c.79,0,1.54-.21,2.26-.62s1.23-.94,1.54-1.6v-3.04h-1.98c-3.1,0-4.65.91-4.65,2.72,0,.79.26,1.41.79,1.86.53.45,1.21.67,2.04.67Z"/><path d="m959.22,187.1l.08,1.86c1.13-1.42,2.61-2.13,4.43-2.13,3.13,0,4.7,1.76,4.73,5.29v9.78h-2.53v-9.79c0-1.07-.25-1.85-.73-2.37-.48-.51-1.22-.77-2.24-.77-.82,0-1.54.22-2.16.66s-1.1,1.01-1.45,1.72v10.54h-2.53v-14.79h2.39Z"/><path d="m971.66,194.37c0-2.27.54-4.09,1.61-5.48s2.48-2.07,4.22-2.07,3.1.59,4.12,1.78v-7.71h2.53v21h-2.32l-.12-1.59c-1.01,1.24-2.42,1.86-4.22,1.86s-3.11-.7-4.19-2.11c-1.08-1.4-1.62-3.24-1.62-5.5v-.19Zm2.53.29c0,1.68.35,2.99,1.04,3.94.69.95,1.65,1.42,2.87,1.42,1.6,0,2.78-.72,3.51-2.16v-6.79c-.76-1.39-1.92-2.09-3.49-2.09-1.24,0-2.21.48-2.9,1.44s-1.04,2.37-1.04,4.25Z"/><path d="m1003.61,197.97c0-.68-.26-1.21-.77-1.59-.51-.38-1.41-.7-2.69-.98s-2.3-.6-3.05-.98-1.31-.84-1.67-1.37c-.36-.53-.54-1.16-.54-1.89,0-1.21.51-2.24,1.54-3.08,1.03-.84,2.34-1.26,3.93-1.26,1.68,0,3.04.43,4.08,1.3,1.04.87,1.57,1.97,1.57,3.32h-2.54c0-.69-.29-1.29-.88-1.79-.59-.5-1.33-.75-2.22-.75s-1.64.2-2.16.6c-.52.4-.78.93-.78,1.57,0,.61.24,1.07.72,1.38.48.31,1.36.61,2.62.89,1.26.28,2.29.62,3.07,1.01.78.39,1.37.86,1.74,1.42.38.55.57,1.22.57,2.02,0,1.32-.53,2.38-1.59,3.18-1.06.8-2.43,1.2-4.12,1.2-1.18,0-2.23-.21-3.14-.63s-1.62-1-2.14-1.76-.77-1.57-.77-2.44h2.53c.05.85.38,1.52,1.02,2.02.63.5,1.47.75,2.51.75.96,0,1.72-.19,2.3-.58.58-.39.87-.9.87-1.55Z"/><path d="m1008.77,194.36c0-1.45.29-2.75.85-3.91.57-1.16,1.36-2.05,2.38-2.68s2.18-.94,3.48-.94c2.01,0,3.64.7,4.89,2.09s1.87,3.25,1.87,5.56v.18c0,1.44-.28,2.73-.83,3.88-.55,1.14-1.34,2.04-2.37,2.67-1.03.64-2.2.96-3.53.96-2,0-3.63-.7-4.87-2.09s-1.87-3.24-1.87-5.54v-.18Zm2.54.3c0,1.64.38,2.96,1.14,3.95.76.99,1.78,1.49,3.06,1.49s2.31-.5,3.06-1.51c.76-1.01,1.13-2.42,1.13-4.23,0-1.62-.38-2.94-1.16-3.94-.77-1.01-1.79-1.51-3.07-1.51s-2.26.5-3.02,1.49c-.77.99-1.15,2.42-1.15,4.27Z"/><path d="m1034.54,200.43c-.98,1.16-2.43,1.74-4.33,1.74-1.58,0-2.78-.46-3.6-1.37s-1.24-2.27-1.25-4.07v-9.62h2.53v9.56c0,2.24.91,3.36,2.73,3.36,1.93,0,3.22-.72,3.86-2.16v-10.76h2.53v14.79h-2.41l-.05-1.46Z"/><path d="m1047.99,189.37c-.38-.06-.8-.1-1.24-.1-1.66,0-2.78.71-3.38,2.12v10.5h-2.53v-14.79h2.46l.04,1.71c.83-1.32,2-1.98,3.53-1.98.49,0,.87.06,1.12.19v2.35Z"/><path d="m1055.99,200.1c.9,0,1.69-.27,2.37-.82s1.05-1.23,1.12-2.05h2.39c-.05.85-.34,1.65-.88,2.42s-1.26,1.38-2.15,1.83-1.85.68-2.85.68c-2.01,0-3.62-.67-4.81-2.02-1.19-1.34-1.78-3.18-1.78-5.52v-.42c0-1.44.26-2.72.79-3.84s1.29-1.99,2.28-2.61c.99-.62,2.16-.93,3.51-.93,1.66,0,3.04.5,4.14,1.49,1.1.99,1.68,2.28,1.76,3.87h-2.39c-.07-.96-.44-1.74-1.09-2.36s-1.46-.92-2.41-.92c-1.29,0-2.28.46-2.99,1.39-.71.93-1.06,2.26-1.06,4.01v.48c0,1.7.35,3.02,1.05,3.94.7.92,1.7,1.38,3.01,1.38Z"/><path d="m1070.85,202.16c-2,0-3.64-.66-4.89-1.98-1.26-1.32-1.89-3.08-1.89-5.28v-.46c0-1.47.28-2.78.84-3.93.56-1.15,1.34-2.06,2.35-2.71,1.01-.65,2.1-.98,3.27-.98,1.92,0,3.42.63,4.48,1.9,1.07,1.27,1.6,3.08,1.6,5.44v1.05h-10.02c.04,1.46.46,2.64,1.28,3.53.82.9,1.85,1.35,3.11,1.35.89,0,1.65-.18,2.27-.55.62-.36,1.16-.85,1.63-1.45l1.54,1.2c-1.24,1.91-3.1,2.86-5.58,2.86Zm-.31-13.26c-1.02,0-1.88.37-2.57,1.11-.69.74-1.12,1.78-1.29,3.12h7.41v-.19c-.07-1.29-.42-2.28-1.04-2.99-.62-.71-1.46-1.06-2.52-1.06Z"/><path d="m839.44,227.41c0-2.06.28-4.04.83-5.93.55-1.9,1.37-3.62,2.47-5.17,1.09-1.55,2.23-2.64,3.4-3.28l.52,1.67c-1.33,1.02-2.42,2.58-3.27,4.68-.85,2.1-1.32,4.44-1.4,7.04v1.16c-.01,3.52.63,6.57,1.91,9.16.77,1.55,1.7,2.76,2.76,3.64l-.52,1.54c-1.21-.67-2.37-1.8-3.47-3.39-2.15-3.1-3.23-6.8-3.23-11.12Z"/><path d="m851.64,222.49c1.12-1.38,2.58-2.06,4.38-2.06,3.13,0,4.7,1.76,4.73,5.29v9.78h-2.53v-9.79c0-1.07-.25-1.85-.73-2.37-.48-.51-1.22-.77-2.24-.77-.82,0-1.54.22-2.16.66s-1.1,1.01-1.45,1.72v10.54h-2.53v-21h2.53v8Z"/><path d="m873.66,235.49c-.15-.29-.26-.81-.36-1.56-1.18,1.22-2.58,1.83-4.21,1.83-1.46,0-2.66-.41-3.59-1.24-.93-.82-1.4-1.87-1.4-3.14,0-1.54.58-2.74,1.76-3.59,1.17-.85,2.82-1.28,4.94-1.28h2.46v-1.16c0-.88-.26-1.59-.79-2.11-.53-.52-1.31-.79-2.34-.79-.9,0-1.66.23-2.27.68-.61.46-.92,1.01-.92,1.65h-2.54c0-.74.26-1.45.79-2.14.52-.69,1.23-1.23,2.13-1.63.9-.4,1.88-.6,2.96-.6,1.7,0,3.04.43,4.01,1.28.97.85,1.47,2.03,1.5,3.52v6.81c0,1.36.17,2.44.52,3.24v.22h-2.65Zm-4.2-1.93c.79,0,1.54-.21,2.26-.62s1.23-.94,1.54-1.6v-3.04h-1.98c-3.1,0-4.65.91-4.65,2.72,0,.79.26,1.41.79,1.86.53.45,1.21.67,2.04.67Z"/><path d="m882.15,220.7l.08,1.86c1.13-1.42,2.61-2.13,4.43-2.13,3.13,0,4.7,1.76,4.73,5.29v9.78h-2.53v-9.79c0-1.07-.25-1.85-.73-2.37-.48-.51-1.22-.77-2.24-.77-.82,0-1.54.22-2.16.66s-1.1,1.01-1.45,1.72v10.54h-2.53v-14.79h2.39Z"/><path d="m894.59,227.97c0-2.27.54-4.09,1.61-5.48s2.48-2.07,4.22-2.07,3.1.59,4.12,1.78v-7.71h2.53v21h-2.32l-.12-1.59c-1.01,1.24-2.42,1.86-4.22,1.86s-3.11-.7-4.19-2.11-1.62-3.24-1.62-5.5v-.19Zm2.53.29c0,1.68.35,2.99,1.04,3.94.69.95,1.65,1.42,2.87,1.42,1.6,0,2.78-.72,3.51-2.16v-6.79c-.76-1.39-1.92-2.09-3.49-2.09-1.24,0-2.21.48-2.9,1.44s-1.04,2.37-1.04,4.25Z"/><path d="m916.84,227.55c0,2.03-.27,3.98-.8,5.84-.53,1.86-1.35,3.58-2.45,5.16-1.1,1.58-2.25,2.7-3.45,3.36l-.53-1.54c1.4-1.08,2.53-2.75,3.38-5.01.85-2.26,1.29-4.78,1.31-7.54v-.44c0-1.91-.2-3.69-.6-5.34-.4-1.65-.96-3.12-1.67-4.42-.72-1.3-1.52-2.32-2.41-3.05l.53-1.54c1.2.67,2.35,1.78,3.44,3.34,1.09,1.56,1.9,3.28,2.45,5.15.54,1.88.81,3.89.81,6.03Z"/><path d="m930.04,220.7l.07,1.64c1.08-1.28,2.55-1.91,4.39-1.91,2.07,0,3.48.79,4.22,2.38.49-.71,1.13-1.29,1.92-1.72s1.72-.66,2.8-.66c3.25,0,4.89,1.72,4.95,5.15v9.91h-2.53v-9.76c0-1.06-.24-1.85-.72-2.37-.48-.52-1.29-.79-2.43-.79-.94,0-1.72.28-2.34.84s-.98,1.31-1.08,2.26v9.82h-2.54v-9.69c0-2.15-1.05-3.23-3.16-3.23-1.66,0-2.79.71-3.4,2.12v10.8h-2.53v-14.79h2.39Z"/><path d="m951.54,227.96c0-1.45.29-2.75.85-3.91.57-1.16,1.36-2.05,2.38-2.68s2.18-.94,3.48-.94c2.01,0,3.64.7,4.89,2.09s1.87,3.25,1.87,5.56v.18c0,1.44-.28,2.73-.83,3.88-.55,1.14-1.34,2.04-2.37,2.67s-2.2.96-3.53.96c-2,0-3.63-.7-4.87-2.09s-1.87-3.24-1.87-5.54v-.18Zm2.54.3c0,1.64.38,2.96,1.14,3.95.76.99,1.78,1.49,3.06,1.49s2.31-.5,3.06-1.51c.76-1.01,1.13-2.42,1.13-4.23,0-1.62-.38-2.94-1.16-3.94-.77-1.01-1.79-1.51-3.07-1.51s-2.26.5-3.02,1.49c-.77.99-1.15,2.42-1.15,4.27Z"/><path d="m971.61,217.11v3.58h2.76v1.96h-2.76v9.19c0,.59.12,1.04.37,1.33s.67.44,1.26.44c.29,0,.69-.05,1.2-.16v2.04c-.67.18-1.31.27-1.94.27-1.13,0-1.98-.34-2.56-1.03s-.86-1.65-.86-2.91v-9.17h-2.69v-1.96h2.69v-3.58h2.53Z"/><path d="m977.33,216.77c0-.41.12-.76.38-1.04.25-.28.62-.42,1.11-.42s.87.14,1.12.42c.25.28.38.63.38,1.04s-.13.75-.38,1.03-.63.41-1.12.41-.86-.14-1.11-.41-.38-.62-.38-1.03Zm2.73,18.72h-2.53v-14.79h2.53v14.79Z"/><path d="m983.45,227.96c0-1.45.29-2.75.85-3.91.57-1.16,1.36-2.05,2.38-2.68s2.18-.94,3.48-.94c2.01,0,3.64.7,4.89,2.09s1.87,3.25,1.87,5.56v.18c0,1.44-.28,2.73-.83,3.88-.55,1.14-1.34,2.04-2.37,2.67s-2.2.96-3.53.96c-2,0-3.63-.7-4.87-2.09s-1.87-3.24-1.87-5.54v-.18Zm2.54.3c0,1.64.38,2.96,1.14,3.95.76.99,1.78,1.49,3.06,1.49s2.31-.5,3.06-1.51c.76-1.01,1.13-2.42,1.13-4.23,0-1.62-.38-2.94-1.16-3.94-.77-1.01-1.79-1.51-3.07-1.51s-2.26.5-3.02,1.49c-.77.99-1.15,2.42-1.15,4.27Z"/><path d="m1002.48,220.7l.08,1.86c1.13-1.42,2.61-2.13,4.43-2.13,3.13,0,4.7,1.76,4.73,5.29v9.78h-2.53v-9.79c0-1.07-.25-1.85-.73-2.37-.48-.51-1.22-.77-2.24-.77-.82,0-1.54.22-2.16.66s-1.1,1.01-1.45,1.72v10.54h-2.53v-14.79h2.39Z"/><rect x="267" y="295" width="191" height="45" fill="none" stroke="#d12d32" stroke-miterlimit="10" stroke-width="2"/><rect x="539" y="295" width="213" height="45" fill="none" stroke="#000" stroke-miterlimit="10" stroke-width="2"/></g><g id="f"><g clip-path="url(#g)"><path d="m1139.67,179.52s117.11-67.05,173.11-78.1c56-11.05,85.01,9.08,85.01,9.08,0,0-58-5.75-58,20.13,0,0,1.29,39.01,42.7,58.33,41.41,19.31,91.22,23.04,91.22,23.04l-331.13-6.6-2.9-25.88Z" fill="#1497a5"/><path d="m1259.39,190.38c-12.58-2.08-18.18-15.43-26.11-23.66-10.24-10.68-19.04-8.54-31.98-5.08-11.57,3.06-23.45,6.35-35.61,5.49-11.92-1.17-24.17-3.46-34.53-9.74,0,0,.14-.26.14-.26,11.19,4.02,22.74,6.93,34.56,7.71,11.84.77,23.43-2.57,34.85-5.5,5.92-1.42,11.76-3.23,18.01-2.81,12.95,1.28,20.06,13.69,27.05,22.99,2.71,3.47,5.74,6.71,9.62,8.85,1.28.73,2.66,1.24,4.07,1.72l-.07.29h0Z" fill="#097684"/></g></g></svg>