<?xml version="1.0" encoding="UTF-8"?><svg id="l" xmlns="http://www.w3.org/2000/svg" width="570" height="556" viewBox="0 0 570 556"><path d="m332.73,11.05c-.89,30.17-30.97,63.69-44.85,78.8,0,0,47.7,56.43,43.97,82.3-2.9,20.09-20.29,44.81-44.1,75.41,0,0,47.85,55.72,44.12,81.59-2.9,20.09-20.29,44.81-44.1,75.41,0,0,47.85,58.05,44.12,81.05-2.9,17.86-20.29,37.69-44.11,61.89" fill="none" stroke="#0077a2" stroke-linecap="round" stroke-linejoin="round" stroke-width="2"/><path d="m241.27,11.05c.89,30.17,30.97,63.69,44.85,78.8,0,0-47.7,56.43-43.97,82.3,2.9,20.09,20.29,44.81,44.1,75.41,0,0-47.85,55.72-44.12,81.59,2.9,20.09,20.29,44.81,44.1,75.41,0,0-47.85,58.05-44.12,81.05,2.9,17.86,20.29,37.69,44.11,61.89" fill="none" stroke="#0077a2" stroke-linecap="round" stroke-linejoin="round" stroke-width="2"/><polyline points="371.26 8.24 371.25 547.5 203 547.49 203.01 8.24" fill="none" stroke="#000" stroke-miterlimit="10" stroke-width="3"/><line x1="287.13" y1="8.56" x2="287.13" y2="547.5" fill="none" stroke="#000" stroke-dasharray="0 6" stroke-linecap="round" stroke-linejoin="round" stroke-width="2"/><path d="m441.68,292.54h3.16v2.36h-3.16v5.28h-2.91v-5.28h-10.36v-1.7l10.19-15.77h3.08v15.11Zm-9.98,0h7.08v-11.16l-.34.62-6.73,10.53Z"/><path d="m144.38,274.86h-17.29l.21-1.05c2.7,0,3.26-.49,3.85-3.29l3.01-14.6c.49-2.31.32-3.01-2.7-3.01l.21-1.05h9.94l-.17,1.05c-2.52,0-3.64.53-4.17,3.05l-3.19,15.68c-.32,1.54.21,1.89,2.28,1.89h1.64c4.45,0,5.18-1.43,7.35-5.5h1.12l-2.1,6.83Z"/><path d="m154.94,283.29l-.69,3.22h-1.82l.69-3.22h-5.2l.27-1.29,7.61-8.65h1.25l-1.82,8.53h2.08l-.29,1.41h-2.08Zm-.18-7.61h-.08l-5.32,6.12-.02.08h4.08l1.35-6.2Z"/><path d="m435.4,232.05l-9.42,21.12h-3.03l9.39-20.38h-12.31v-2.38h15.38v1.62Z"/><path d="m448.86,245.68c0,2.94.56,5.11,2.07,5.11.91,0,1.65-.28,2.55-1.23l.6.56c-1.08,2-2.87,3.46-4.62,3.46-1.92,0-2.66-1.64-2.66-4.3,0-3.15.53-5.88.77-9.21h-.21c-1.08,1.54-6.02,9.59-8.02,13.09h-3.5v-.56c3.61-4.9,8.16-10.99,11.76-15.86.04-.74.04-.77.04-1.86,0-2.35-.7-3.71-2.17-3.71-1.16,0-1.96.35-2.87,1.19l-.74-.53c1.12-1.96,2.63-3.36,4.83-3.36,2.52,0,2.62,2.38,2.62,5.15,0,4.27-.46,8.19-.46,12.04Z"/><path d="m420.05,267.57l.42-2h32.9l-.42,2h-32.9Z"/><line x1="203.26" y1="90.75" x2="371" y2="90.75" fill="none" stroke="#000" stroke-dasharray="0 6" stroke-linecap="round" stroke-linejoin="round" stroke-width="2"/><line x1="203.26" y1="247.75" x2="371" y2="247.75" fill="none" stroke="#000" stroke-dasharray="0 6" stroke-linecap="round" stroke-linejoin="round" stroke-width="2"/><line x1="203.26" y1="403.75" x2="371" y2="403.75" fill="none" stroke="#000" stroke-dasharray="0 6" stroke-linecap="round" stroke-linejoin="round" stroke-width="2"/></svg>