<?xml version="1.0" encoding="UTF-8"?>
<svg id="a" data-name="Layer 1" xmlns="http://www.w3.org/2000/svg" width="1140" height="429" viewBox="0 0 1140 429">
  <path d="m561.748,12.47c-9.52-.034-19.04-.099-28.559-.199-52.013-.544-104.034-1.453-156.005-2.318-86.789-1.445-174.105-10.935-260.774-2.28C-2.26,19.526,1.175,177.084,4.676,265.544c2.802,70.802,24.498,133.835,100.385,150.387,39.837,8.688,80.762,4.42,121.108,4.037,225.964-2.143,452.202,4.228,678.168,6.219,101.208.892,170.22,4.102,199.362-29.981,17.771-20.784,23.301-50.189,26.602-78.165,6.173-52.323,7.064-105.361,2.652-157.888-4.09-48.69-17.893-106.663-61.532-133.434-25.125-15.414-64.777-16.807-92.966-18.848-48.691-3.525-98.55.075-147.278.943-89.803,1.6-179.64,3.981-269.429,3.656Z" fill="#d8e6d8"/>
  <line x1="37.769" y1="216.678" x2="1102.231" y2="216.678" fill="none" stroke="#000" stroke-miterlimit="10" stroke-width="2"/>
  <path d="m37.769,216.678c21.272-72.887,42.544-145.774,85.087-145.774,85.091,0,85.091,291.547,170.182,291.547S378.128,70.904,463.218,70.904s85.091,291.547,170.182,291.547,85.09-291.547,170.179-291.547,85.092,291.547,170.184,291.547c42.548,0,63.822-72.887,85.096-145.774" fill="none" stroke="#000" stroke-miterlimit="10" stroke-width="2"/>
  <g>
    <g>
      <line x1="664.992" y1="62.721" x2="794.269" y2="62.721" fill="none" stroke="#cc5c00" stroke-linecap="round" stroke-miterlimit="10" stroke-width="2"/>
      <polygon points="791.935 70.699 805.751 62.721 791.935 54.743 791.935 70.699" fill="#cc5c00"/>
    </g>
    <rect x="604.509" y="40.721" width="60.483" height="44" rx="22" ry="22" fill="#fcf1e8" stroke="#cc5c00" stroke-miterlimit="10" stroke-width="2"/>
    <path d="m634.857,70.52c-1.719,0-3.117-.564-4.195-1.693s-1.617-2.639-1.617-4.529v-.398c0-1.258.24-2.381.721-3.369s1.152-1.762,2.016-2.32,1.799-.838,2.807-.838c1.648,0,2.93.543,3.844,1.629s1.371,2.641,1.371,4.664v.902h-8.59c.031,1.25.396,2.26,1.096,3.029s1.588,1.154,2.666,1.154c.766,0,1.414-.156,1.945-.469s.996-.727,1.395-1.242l1.324,1.031c-1.062,1.633-2.656,2.449-4.781,2.449Zm-.27-11.367c-.875,0-1.609.318-2.203.955s-.961,1.529-1.102,2.678h6.352v-.164c-.062-1.102-.359-1.955-.891-2.561s-1.25-.908-2.156-.908Z" fill="#212628"/>
    <g>
      <line x1="604.509" y1="62.721" x2="133.062" y2="62.721" fill="none" stroke="#cc5c00" stroke-linecap="round" stroke-miterlimit="10" stroke-width="2"/>
      <polygon points="135.396 54.743 121.58 62.721 135.396 70.699 135.396 54.743" fill="#cc5c00"/>
    </g>
  </g>
  <g>
    <line x1="322.907" y1="141.699" x2="512.987" y2="141.699" fill="none" stroke="#5c539c" stroke-linecap="round" stroke-miterlimit="10" stroke-width="2"/>
    <polygon points="510.653 149.678 524.469 141.699 510.653 133.721 510.653 149.678" fill="#5c539c"/>
  </g>
  <rect x="262.424" y="119.699" width="60.483" height="44" rx="22" ry="22" fill="#f4f2ff" stroke="#5c539c" stroke-miterlimit="10" stroke-width="2"/>
  <path d="m295.168,149.264c-.125-.25-.227-.695-.305-1.336-1.008,1.047-2.211,1.57-3.609,1.57-1.25,0-2.275-.354-3.076-1.061s-1.201-1.604-1.201-2.689c0-1.32.502-2.346,1.506-3.076s2.416-1.096,4.236-1.096h2.109v-.996c0-.758-.227-1.361-.68-1.811s-1.121-.674-2.004-.674c-.773,0-1.422.195-1.945.586s-.785.863-.785,1.418h-2.18c0-.633.225-1.244.674-1.834s1.059-1.057,1.828-1.4,1.615-.516,2.537-.516c1.461,0,2.605.365,3.434,1.096s1.258,1.736,1.289,3.018v5.836c0,1.164.148,2.09.445,2.777v.188h-2.273Zm-3.598-1.652c.68,0,1.324-.176,1.934-.527s1.051-.809,1.324-1.371v-2.602h-1.699c-2.656,0-3.984.777-3.984,2.332,0,.68.227,1.211.68,1.594s1.035.574,1.746.574Z" fill="#212628"/>
  <g>
    <line x1="262.424" y1="141.699" x2="198.024" y2="141.699" fill="none" stroke="#5c539c" stroke-linecap="round" stroke-miterlimit="10" stroke-width="2"/>
    <polygon points="200.358 133.721 186.542 141.699 200.358 149.678 200.358 133.721" fill="#5c539c"/>
  </g>
  <g>
    <line x1="292.665" y1="307.775" x2="292.665" y2="348.969" fill="none" stroke="#0077a2" stroke-miterlimit="10" stroke-width="2"/>
    <polygon points="284.687 346.635 292.665 360.451 300.643 346.635 284.687 346.635" fill="#0077a2"/>
  </g>
  <rect x="262.424" y="263.775" width="60.483" height="44" rx="22" ry="22" fill="#e8f5f9" stroke="#0077a2" stroke-miterlimit="10" stroke-width="2"/>
  <path d="m292.672,291.805c.773,0,1.449-.234,2.027-.703s.898-1.055.961-1.758h2.051c-.039.727-.289,1.418-.75,2.074s-1.076,1.18-1.846,1.57-1.584.586-2.443.586c-1.727,0-3.1-.576-4.119-1.729s-1.529-2.729-1.529-4.729v-.363c0-1.234.227-2.332.68-3.293s1.104-1.707,1.951-2.238,1.85-.797,3.006-.797c1.422,0,2.604.426,3.545,1.277s1.443,1.957,1.506,3.316h-2.051c-.062-.82-.373-1.494-.932-2.021s-1.248-.791-2.068-.791c-1.102,0-1.955.396-2.561,1.189s-.908,1.939-.908,3.439v.41c0,1.461.301,2.586.902,3.375s1.461,1.184,2.578,1.184Z" fill="#212628"/>
  <g>
    <line x1="292.665" y1="262.876" x2="292.665" y2="230.683" fill="none" stroke="#0077a2" stroke-miterlimit="10" stroke-width="2"/>
    <polygon points="300.643 233.017 292.665 219.201 284.687 233.017 300.643 233.017" fill="#0077a2"/>
  </g>
  <rect x="92.758" y="88.699" width="60.483" height="44" rx="22" ry="22" fill="#fff5f5" stroke="#d12d32" stroke-miterlimit="10" stroke-width="2"/>
  <path d="m128.204,112.064c0,1.938-.445,3.494-1.336,4.67s-2.086,1.764-3.586,1.764c-1.602,0-2.84-.566-3.715-1.699l-.105,1.465h-1.992v-18h2.168v6.715c.875-1.086,2.082-1.629,3.621-1.629s2.748.582,3.627,1.746,1.318,2.758,1.318,4.781v.188Zm-2.168-.246c0-1.477-.285-2.617-.855-3.422s-1.391-1.207-2.461-1.207c-1.43,0-2.457.664-3.082,1.992v5.484c.664,1.328,1.699,1.992,3.105,1.992,1.039,0,1.848-.402,2.426-1.207s.867-2.016.867-3.633Z" fill="#212628"/>
  <rect x="604.071" y="299.635" width="60.483" height="44" rx="22" ry="22" fill="#e6f1e7" stroke="#0c7913" stroke-miterlimit="10" stroke-width="2"/>
  <path d="m628.221,322.754c0-1.945.461-3.51,1.383-4.693s2.129-1.775,3.621-1.775c1.484,0,2.66.508,3.527,1.523v-6.609h2.168v18h-1.992l-.105-1.359c-.867,1.062-2.074,1.594-3.621,1.594-1.469,0-2.666-.602-3.592-1.805s-1.389-2.773-1.389-4.711v-.164Zm2.168.246c0,1.438.297,2.562.891,3.375s1.414,1.219,2.461,1.219c1.375,0,2.379-.617,3.012-1.852v-5.824c-.648-1.195-1.645-1.793-2.988-1.793-1.062,0-1.891.41-2.484,1.23s-.891,2.035-.891,3.645Z" fill="#212628"/>
</svg>