<?xml version="1.0" encoding="UTF-8"?><svg id="a" xmlns="http://www.w3.org/2000/svg" width="1140" height="600" viewBox="0 0 1140 600"><path d="m525.6953,8.8695c-39.0877.2104-78.1779-.0411-117.2582-.9436-46.0794-1.0642-92.5194-7.4815-138.4357-5.6571C182.6833,5.7382,88.4373,37.0339,38.4208,122.0147-14.02,211.1145-.9701,339.5355,53.9192,426.5351c54.8893,86.9996,143.6943,136.6184,233.6813,156.9332,66.1316,14.9294,130.1593,11.5159,196.7257,11.3994,72.3823-.1267,144.7645-.2534,217.1468-.38,94.2878-.165,202.8022,7.2627,286.0204-49.3366,61.1683-41.6025,108.7296-107.7285,131.3454-183.9785,24.9467-84.1085,23.9984-200.8733-26.9325-273.3667-30.2717-43.0877-75.8207-67.9227-122.1878-78.9002-46.3672-10.9775-94.1106-9.3762-141.3717-7.7299-92.9262,3.237-185.8609,6.5816-278.8335,7.5099-7.9392.0793-15.8785.1411-23.818.1838Z" fill="#e8e6f2" stroke-width="0"/><path d="m583.6492,157.3439v226.3056c0,7.5382-6.1109,13.6491-13.6491,13.6491h0c-7.5382,0-13.6492-6.1109-13.6492-13.6492v-5.2873s0-207.369,0-207.369v-13.6492h-19.7913v264.0915c0,2.1634,1.0079,4.2034,2.7263,5.5178l30.2847,23.1656,31.0752-23.1674c1.7587-1.3111,2.7948-3.3759,2.7948-5.5695V157.3439h-19.7913Z" fill="#9ca2a6" stroke-width="0"/><path d="m580.1264,577.3622s-5.7833,2.1146-10.5559,2.1146-10.5559-2.1146-10.5559-2.1146v-170.1878h21.1118v170.1878Z" fill="#9ca2a6" stroke-width="0"/><path d="m600.2149,423.5637c-5.412,4.7035-11.762,8.1508-17.7164,12.0268-7.9104,5.7635-17.0545,6.1302-25.0438.2496,0,.0002-3.5849-2.3348-3.5849-2.3348-4.7747-3.1218-9.6294-6.1172-13.9579-9.9428l.1572-.248c5.307,2.2819,10.0878,5.3941,14.9486,8.3798l3.6417,2.2456c5.6639,4.0512,12.7301,5.0732,19.0354,1.8438,2.0524-1.1358,5.1894-3.0997,7.2909-4.3205,4.9171-2.8929,9.6981-6.0077,15.0757-8.1499l.1536.2503h0Z" fill="#79848a" stroke-width="0"/><path d="m560.6,442.0412c1.4426-.9877,2.8851-.8324,4.3276-.9354,1.4426-.0806,2.8851-.1239,4.3276-.1243,1.4426.0005,2.8851.0579,4.3276.1344,1.4425.0801,2.885.0109,4.3276.9253v.2937c-1.4426.9144-2.8851.8452-4.3276.9253-1.4426.0766-2.8851.1339-4.3276.1344-1.4425-.0004-2.885-.0437-4.3276-.1243-1.4425-.103-2.885.0523-4.3276-.9354v-.2937h0Z" fill="#79848a" stroke-width="0"/><path d="m447.4951,41.2856h-7.7051l-1.4648,4.3945h-4.6729l7.9395-21.3281h4.0723l7.9834,21.3281h-4.6729l-1.4795-4.3945Zm-6.5186-3.5596h5.332l-2.6807-7.9834-2.6514,7.9834Z" stroke-width="0"/><path d="m467.9004,25.9341v3.8965h2.71v3.1055h-2.71v7.9102c0,.5859.1123,1.0059.3369,1.2598s.6543.3809,1.2891.3809c.4688,0,.8838-.0342,1.2451-.1025v3.208c-.8301.2539-1.6846.3809-2.5635.3809-2.9688,0-4.4824-1.499-4.541-4.4971v-8.54h-2.3145v-3.1055h2.3145v-3.8965h4.2334Z" stroke-width="0"/><path d="m478.8867,39.689l2.9297-9.8584h4.541l-6.3721,18.3105-.3516.835c-.9473,2.0703-2.5098,3.1055-4.6875,3.1055-.6152,0-1.2402-.0928-1.875-.2783v-3.208l.6445.0146c.8008,0,1.3989-.1221,1.7944-.3662s.7056-.6494.9302-1.2158l.498-1.3037-5.5518-15.8936h4.5557l2.9443,9.8584Z" stroke-width="0"/><path d="m502.2949,37.9019c0,2.4414-.5542,4.397-1.6626,5.8667s-2.605,2.2046-4.4897,2.2046c-1.6016,0-2.8955-.5566-3.8818-1.6699v7.4707h-4.2334v-21.9434h3.9258l.1465,1.5527c1.0254-1.2305,2.3633-1.8457,4.0137-1.8457,1.9531,0,3.4717.7227,4.5557,2.168s1.626,3.4375,1.626,5.9766v.2197Zm-4.2334-.3076c0-1.4746-.2612-2.6123-.7837-3.4131s-1.2817-1.2012-2.2778-1.2012c-1.3281,0-2.2412.5078-2.7393,1.5234v6.4893c.5176,1.0449,1.4404,1.5674,2.7686,1.5674,2.0215,0,3.0322-1.6553,3.0322-4.9658Z" stroke-width="0"/><path d="m504.8877,25.729c0-.6348.2124-1.1572.6372-1.5674s1.0034-.6152,1.7358-.6152c.7227,0,1.2988.2051,1.7285.6152s.6445.9326.6445,1.5674c0,.6445-.2173,1.1719-.6519,1.582s-1.0083.6152-1.7212.6152-1.2866-.2051-1.7212-.6152-.6519-.9375-.6519-1.582Zm4.4971,19.9512h-4.248v-15.8496h4.248v15.8496Z" stroke-width="0"/><path d="m519.4629,42.5601c.7812,0,1.416-.2148,1.9043-.6445s.7422-1.001.7617-1.7139h3.9697c-.0098,1.0742-.3027,2.0581-.8789,2.9517s-1.3647,1.5869-2.3657,2.0801-2.1069.7397-3.3179.7397c-2.2656,0-4.0527-.7202-5.3613-2.1606s-1.9629-3.4302-1.9629-5.9692v-.2783c0-2.4414.6494-4.3896,1.9482-5.8447s3.0811-2.1826,5.3467-2.1826c1.9824,0,3.5718.564,4.7681,1.6919s1.8042,2.6294,1.8237,4.5044h-3.9697c-.0195-.8242-.2734-1.4946-.7617-2.0103-.4883-.5151-1.1328-.7729-1.9336-.7729-.9863,0-1.731.3594-2.2339,1.0781-.5029.7192-.7544,1.8853-.7544,3.499v.4399c0,1.6338.249,2.8076.7471,3.5215s1.2549,1.0708,2.2705,1.0708Z" stroke-width="0"/><path d="m537.7002,45.6802c-.1953-.3809-.3369-.8545-.4248-1.4209-1.0254,1.1426-2.3584,1.7139-3.999,1.7139-1.5527,0-2.8394-.4492-3.8599-1.3477s-1.5308-2.0312-1.5308-3.3984c0-1.6797.6226-2.9688,1.8677-3.8672s3.0444-1.3525,5.3979-1.3623h1.9482v-.9082c0-.7324-.188-1.3184-.564-1.7578s-.9692-.6592-1.7798-.6592c-.7129,0-1.272.1709-1.6772.5127s-.6079.8105-.6079,1.4062h-4.2334c0-.918.2832-1.7676.8496-2.5488s1.3672-1.394,2.4023-1.8384,2.1973-.6665,3.4863-.6665c1.9531,0,3.5034.4907,4.6509,1.4722s1.7212,2.3608,1.7212,4.1382v6.8701c.0098,1.5039.2197,2.6416.6299,3.4131v.249h-4.2773Zm-3.501-2.9443c.625,0,1.2012-.1392,1.7285-.4175s.918-.6519,1.1719-1.1206v-2.7246h-1.582c-2.1191,0-3.2471.7324-3.3838,2.1973l-.0146.249c0,.5273.1855.9619.5566,1.3037s.8789.5127,1.5234.5127Z" stroke-width="0"/><path d="m549.0674,45.6802h-4.248v-22.5h4.248v22.5Z" stroke-width="0"/><path d="m565.0928,25.9341v3.8965h2.71v3.1055h-2.71v7.9102c0,.5859.1123,1.0059.3369,1.2598s.6543.3809,1.2891.3809c.4688,0,.8838-.0342,1.2451-.1025v3.208c-.8301.2539-1.6846.3809-2.5635.3809-2.9688,0-4.4824-1.499-4.541-4.4971v-8.54h-2.3145v-3.1055h2.3145v-3.8965h4.2334Z" stroke-width="0"/><path d="m579.6533,44.0688c-1.0449,1.2695-2.4902,1.9043-4.3359,1.9043-1.6992,0-2.9951-.4883-3.8896-1.4648-.8931-.9766-1.3496-2.4072-1.3691-4.292v-10.3857h4.2334v10.251c0,1.6523.752,2.4785,2.2559,2.4785,1.4355,0,2.4219-.4985,2.959-1.4961v-11.2334h4.248v15.8496h-3.9844l-.1172-1.6113Z" stroke-width="0"/><path d="m590.8447,29.8306l.1318,1.8311c1.1328-1.416,2.6514-2.124,4.5557-2.124,1.6797,0,2.9297.4932,3.75,1.4795s1.2402,2.4609,1.2598,4.4238v10.2393h-4.2334v-10.1367c0-.8984-.1953-1.5503-.5859-1.9556s-1.04-.6079-1.9482-.6079c-1.1914,0-2.085.5078-2.6807,1.5234v11.1768h-4.2334v-15.8496h3.9844Z" stroke-width="0"/><path d="m603.7207,25.729c0-.6348.2129-1.1572.6367-1.5674.4258-.4102,1.0039-.6152,1.7363-.6152.7227,0,1.2988.2051,1.7285.6152s.6445.9326.6445,1.5674c0,.6445-.2168,1.1719-.6523,1.582-.4336.4102-1.0078.6152-1.7207.6152s-1.2871-.2051-1.7207-.6152c-.4355-.4102-.6523-.9375-.6523-1.582Zm4.4971,19.9512h-4.248v-15.8496h4.248v15.8496Z" stroke-width="0"/><path d="m615.6006,29.8306l.1318,1.8311c1.1328-1.416,2.6514-2.124,4.5557-2.124,1.6797,0,2.9297.4932,3.75,1.4795s1.2402,2.4609,1.2598,4.4238v10.2393h-4.2334v-10.1367c0-.8984-.1953-1.5503-.5859-1.9556s-1.04-.6079-1.9482-.6079c-1.1914,0-2.085.5078-2.6807,1.5234v11.1768h-4.2334v-15.8496h3.9844Z" stroke-width="0"/><path d="m627.8906,37.6382c0-2.4316.5781-4.3896,1.7363-5.874,1.1562-1.4844,2.7168-2.2266,4.6797-2.2266,1.7383,0,3.0908.5957,4.0576,1.7871l.1758-1.4941h3.8379v15.3223c0,1.3867-.3154,2.5928-.9443,3.6182-.6309,1.0254-1.5166,1.8066-2.6592,2.3438s-2.4805.8057-4.0137.8057c-1.1621,0-2.2949-.2319-3.3984-.6958s-1.9385-1.062-2.5049-1.7944l1.875-2.5781c1.0547,1.1816,2.334,1.7725,3.8379,1.7725,1.123,0,1.9971-.3003,2.6221-.9009s.9375-1.4526.9375-2.5562v-.8496c-.9766,1.1035-2.2607,1.6553-3.8525,1.6553-1.9043,0-3.4453-.7446-4.6211-2.2339-1.1777-1.4893-1.7656-3.4644-1.7656-5.9253v-.1758Zm4.2334.3149c0,1.438.2881,2.5654.8643,3.3818.5762.8169,1.3672,1.2251,2.373,1.2251,1.2891,0,2.2119-.4839,2.7686-1.4526v-6.6748c-.5664-.9683-1.4795-1.4526-2.7393-1.4526-1.0156,0-1.8145.416-2.3945,1.2471-.582.8315-.8721,2.0737-.8721,3.7261Z" stroke-width="0"/><path d="m654.2578,45.6802v-12.7441h-2.3584v-3.1055h2.3584v-1.3477c0-1.7773.5098-3.1567,1.5312-4.1382,1.0195-.9814,2.4482-1.4722,4.2842-1.4722.5859,0,1.3037.0977,2.1533.293l-.0439,3.2812c-.3516-.0879-.7812-.1318-1.2891-.1318-1.5918,0-2.3877.7471-2.3877,2.2412v1.2744h3.1494v3.1055h-3.1494v12.7441h-4.248Z" stroke-width="0"/><path d="m663.1934,37.6089c0-1.5723.3027-2.9736.9082-4.2041s1.4766-2.1826,2.6152-2.8564c1.1367-.6738,2.458-1.0107,3.9619-1.0107,2.1387,0,3.8838.6543,5.2373,1.9629,1.3516,1.3086,2.1064,3.0859,2.2627,5.332l.0293,1.084c0,2.4316-.6787,4.3823-2.0361,5.8521s-3.1787,2.2046-5.4639,2.2046-4.1084-.7324-5.4717-2.1973c-1.3613-1.4648-2.043-3.457-2.043-5.9766v-.1904Zm4.2334.3003c0,1.5063.2832,2.6582.8496,3.4551.5664.7974,1.377,1.1958,2.4316,1.1958,1.0254,0,1.8262-.3936,2.4023-1.1812.5762-.7871.8643-2.0464.8643-3.7773,0-1.4771-.2881-2.6216-.8643-3.4331s-1.3867-1.2178-2.4316-1.2178c-1.0352,0-1.8359.4033-2.4023,1.2104s-.8496,2.0562-.8496,3.748Z" stroke-width="0"/><path d="m689.7217,33.8003c-.5762-.0781-1.084-.1172-1.5234-.1172-1.6016,0-2.6514.542-3.1494,1.626v10.3711h-4.2334v-15.8496h3.999l.1172,1.8896c.8496-1.4551,2.0264-2.1826,3.5303-2.1826.4688,0,.9082.0635,1.3184.1904l-.0586,4.0723Z" stroke-width="0"/><path d="m697.5146,39.3228l-1.5234,1.5234v4.834h-4.2334v-22.5h4.2334v12.4658l.8203-1.0547,4.0576-4.7607h5.083l-5.7275,6.6064,6.2256,9.2432h-4.8633l-4.0723-6.3574Z" stroke-width="0"/><path d="m428.8315,98.1533h-5.4844v15.2227h-2.2383v-15.2227h-5.4727v-1.8398h13.1953v1.8398Z" stroke-width="0"/><path d="m431.0347,97.333c0-.3516.1074-.6484.3223-.8906s.5332-.3633.9551-.3633.7422.1211.9609.3633.3281.5391.3281.8906-.1094.6445-.3281.8789-.5391.3516-.9609.3516-.7402-.1172-.9551-.3516-.3223-.5273-.3223-.8789Zm2.3438,16.043h-2.168v-12.6797h2.168v12.6797Z" stroke-width="0"/><path d="m438.8979,100.6963l.0703,1.5938c.9688-1.2188,2.2344-1.8281,3.7969-1.8281,2.6797,0,4.0312,1.5117,4.0547,4.5352v8.3789h-2.168v-8.3906c-.0078-.9141-.2168-1.5898-.627-2.0273s-1.0488-.6562-1.916-.6562c-.7031,0-1.3203.1875-1.8516.5625s-.9453.8672-1.2422,1.4766v9.0352h-2.168v-12.6797h2.0508Z" stroke-width="0"/><path d="m455.3511,113.6104c-1.7188,0-3.1172-.5645-4.1953-1.6934s-1.6172-2.6387-1.6172-4.5293v-.3984c0-1.2578.2402-2.3809.7207-3.3691s1.1523-1.7617,2.0156-2.3203,1.7988-.8379,2.8066-.8379c1.6484,0,2.9297.543,3.8438,1.6289s1.3711,2.6406,1.3711,4.6641v.9023h-8.5898c.0312,1.25.3965,2.2598,1.0957,3.0293s1.5879,1.1543,2.666,1.1543c.7656,0,1.4141-.1562,1.9453-.4688s.9961-.7266,1.3945-1.2422l1.3242,1.0312c-1.0625,1.6328-2.6562,2.4492-4.7812,2.4492Zm-.2695-11.3672c-.875,0-1.6094.3184-2.2031.9551s-.9609,1.5293-1.1016,2.6777h6.3516v-.1641c-.0625-1.1016-.3594-1.9551-.8906-2.5605s-1.25-.9082-2.1562-.9082Z" stroke-width="0"/><path d="m470.187,110.0127c0-.5859-.2207-1.041-.6621-1.3652s-1.2109-.6035-2.3086-.8379-1.9688-.5156-2.6133-.8438-1.1211-.7188-1.4297-1.1719-.4629-.9922-.4629-1.6172c0-1.0391.4395-1.918,1.3184-2.6367s2.002-1.0781,3.3691-1.0781c1.4375,0,2.6035.3711,3.498,1.1133s1.3418,1.6914,1.3418,2.8477h-2.1797c0-.5938-.252-1.1055-.7559-1.5352s-1.1387-.6445-1.9043-.6445c-.7891,0-1.4062.1719-1.8516.5156s-.668.793-.668,1.3477c0,.5234.207.918.6211,1.1836s1.1621.5195,2.2441.7617,1.959.5312,2.6309.8672,1.1699.7402,1.4941,1.2129.4863,1.0488.4863,1.7285c0,1.1328-.4531,2.041-1.3594,2.7246s-2.082,1.0254-3.5273,1.0254c-1.0156,0-1.9141-.1797-2.6953-.5391s-1.3926-.8613-1.834-1.5059-.6621-1.3418-.6621-2.0918h2.168c.0391.7266.3301,1.3027.873,1.7285s1.2598.6387,2.1504.6387c.8203,0,1.4785-.166,1.9746-.498s.7441-.7754.7441-1.3301Z" stroke-width="0"/><line x1="344.1884" y1="125.1434" x2="525.5886" y2="123.8194" fill="none" stroke-width="0"/><polyline points="593.1753 155.7684 478.5349 108.0198 546.8247 155.7684" fill="none" stroke="#000" stroke-linejoin="round" stroke-width="2"/><path d="m707.2568,224.396h-5.4844v15.2227h-2.2383v-15.2227h-5.4727v-1.8398h13.1953v1.8398Z" stroke-width="0"/><path d="m707.7139,233.1616c0-1.2422.2441-2.3594.7324-3.3516s1.168-1.7578,2.0391-2.2969,1.8652-.8086,2.9824-.8086c1.7266,0,3.123.5977,4.1895,1.793s1.5996,2.7852,1.5996,4.7695v.1523c0,1.2344-.2363,2.3418-.709,3.3223s-1.1484,1.7441-2.0273,2.291-1.8887.8203-3.0293.8203c-1.7188,0-3.1113-.5977-4.1777-1.793s-1.5996-2.7773-1.5996-4.7461v-.1523Zm2.1797.2578c0,1.4062.3262,2.5352.9785,3.3867s1.5254,1.2773,2.6191,1.2773c1.1016,0,1.9766-.4316,2.625-1.2949s.9727-2.0723.9727-3.627c0-1.3906-.3301-2.5176-.9902-3.3809s-1.5371-1.2949-2.6309-1.2949c-1.0703,0-1.9336.4258-2.5898,1.2773s-.9844,2.0703-.9844,3.6562Z" stroke-width="0"/><path d="m735.2998,236.2554c0-.5859-.2207-1.041-.6621-1.3652s-1.2109-.6035-2.3086-.8379-1.9688-.5156-2.6133-.8438-1.1211-.7188-1.4297-1.1719-.4629-.9922-.4629-1.6172c0-1.0391.4395-1.918,1.3184-2.6367s2.002-1.0781,3.3691-1.0781c1.4375,0,2.6035.3711,3.498,1.1133s1.3418,1.6914,1.3418,2.8477h-2.1797c0-.5938-.252-1.1055-.7559-1.5352s-1.1387-.6445-1.9043-.6445c-.7891,0-1.4062.1719-1.8516.5156s-.668.793-.668,1.3477c0,.5234.207.918.6211,1.1836s1.1621.5195,2.2441.7617,1.959.5312,2.6309.8672,1.1699.7402,1.4941,1.2129.4863,1.0488.4863,1.7285c0,1.1328-.4531,2.041-1.3594,2.7246s-2.082,1.0254-3.5273,1.0254c-1.0156,0-1.9141-.1797-2.6953-.5391s-1.3926-.8613-1.834-1.5059-.6621-1.3418-.6621-2.0918h2.168c.0391.7266.3301,1.3027.873,1.7285s1.2598.6387,2.1504.6387c.8203,0,1.4785-.166,1.9746-.498s.7441-.7754.7441-1.3301Z" stroke-width="0"/><path d="m739.7178,233.1616c0-1.2422.2441-2.3594.7324-3.3516s1.168-1.7578,2.0391-2.2969,1.8652-.8086,2.9824-.8086c1.7266,0,3.123.5977,4.1895,1.793s1.5996,2.7852,1.5996,4.7695v.1523c0,1.2344-.2363,2.3418-.709,3.3223s-1.1484,1.7441-2.0273,2.291-1.8887.8203-3.0293.8203c-1.7188,0-3.1113-.5977-4.1777-1.793s-1.5996-2.7773-1.5996-4.7461v-.1523Zm2.1797.2578c0,1.4062.3262,2.5352.9785,3.3867s1.5254,1.2773,2.6191,1.2773c1.1016,0,1.9766-.4316,2.625-1.2949s.9727-2.0723.9727-3.627c0-1.3906-.3301-2.5176-.9902-3.3809s-1.5371-1.2949-2.6309-1.2949c-1.0703,0-1.9336.4258-2.5898,1.2773s-.9844,2.0703-.9844,3.6562Z" stroke-width="0"/><path d="m761.8076,238.3647c-.8438.9922-2.082,1.4883-3.7148,1.4883-1.3516,0-2.3809-.3926-3.0879-1.1777s-1.0645-1.9473-1.0723-3.4863v-8.25h2.168v8.1914c0,1.9219.7812,2.8828,2.3438,2.8828,1.6562,0,2.7578-.6172,3.3047-1.8516v-9.2227h2.168v12.6797h-2.0625l-.0469-1.2539Z" stroke-width="0"/><path d="m769.2607,226.939l.0703,1.5938c.9688-1.2188,2.2344-1.8281,3.7969-1.8281,2.6797,0,4.0312,1.5117,4.0547,4.5352v8.3789h-2.168v-8.3906c-.0078-.9141-.2168-1.5898-.627-2.0273s-1.0488-.6562-1.916-.6562c-.7031,0-1.3203.1875-1.8516.5625s-.9453.8672-1.2422,1.4766v9.0352h-2.168v-12.6797h2.0508Z" stroke-width="0"/><path d="m779.9248,233.1733c0-1.9453.4609-3.5098,1.3828-4.6934s2.1289-1.7754,3.6211-1.7754c1.4844,0,2.6602.5078,3.5273,1.5234v-6.6094h2.168v18h-1.9922l-.1055-1.3594c-.8672,1.0625-2.0742,1.5938-3.6211,1.5938-1.4688,0-2.666-.6016-3.5918-1.8047s-1.3887-2.7734-1.3887-4.7109v-.1641Zm2.168.2461c0,1.4375.2969,2.5625.8906,3.375s1.4141,1.2188,2.4609,1.2188c1.375,0,2.3789-.6172,3.0117-1.8516v-5.8242c-.6484-1.1953-1.6445-1.793-2.9883-1.793-1.0625,0-1.8906.4102-2.4844,1.2305s-.8906,2.0352-.8906,3.6445Z" stroke-width="0"/><path d="m807.7568,239.6187c-.125-.25-.2266-.6953-.3047-1.3359-1.0078,1.0469-2.2109,1.5703-3.6094,1.5703-1.25,0-2.2754-.3535-3.0762-1.0605s-1.2012-1.6035-1.2012-2.6895c0-1.3203.502-2.3457,1.5059-3.0762s2.416-1.0957,4.2363-1.0957h2.1094v-.9961c0-.7578-.2266-1.3613-.6797-1.8105s-1.1211-.6738-2.0039-.6738c-.7734,0-1.4219.1953-1.9453.5859s-.7852.8633-.7852,1.418h-2.1797c0-.6328.2246-1.2441.6738-1.834s1.0586-1.0566,1.8281-1.4004,1.6152-.5156,2.5371-.5156c1.4609,0,2.6055.3652,3.4336,1.0957s1.2578,1.7363,1.2891,3.0176v5.8359c0,1.1641.1484,2.0898.4453,2.7773v.1875h-2.2734Zm-3.5977-1.6523c.6797,0,1.3242-.1758,1.9336-.5273s1.0508-.8086,1.3242-1.3711v-2.6016h-1.6992c-2.6562,0-3.9844.7773-3.9844,2.332,0,.6797.2266,1.2109.6797,1.5938s1.0352.5742,1.7461.5742Z" stroke-width="0"/><path d="m821.8662,223.8687v3.0703h2.3672v1.6758h-2.3672v7.873c0,.5088.1055.8896.3164,1.1445.2109.2539.5703.3809,1.0781.3809.25,0,.5938-.0469,1.0312-.1406v1.748c-.5703.1543-1.125.2324-1.6641.2324-.9688,0-1.6992-.293-2.1914-.8789s-.7383-1.418-.7383-2.4961v-7.8633h-2.3086v-1.6758h2.3086v-3.0703h2.168Z" stroke-width="0"/><path d="m834.5928,238.3647c-.8438.9922-2.082,1.4883-3.7148,1.4883-1.3516,0-2.3809-.3926-3.0879-1.1777s-1.0645-1.9473-1.0723-3.4863v-8.25h2.168v8.1914c0,1.9219.7812,2.8828,2.3438,2.8828,1.6562,0,2.7578-.6172,3.3047-1.8516v-9.2227h2.168v12.6797h-2.0625l-.0469-1.2539Z" stroke-width="0"/><path d="m842.0459,226.939l.0703,1.5938c.9688-1.2188,2.2344-1.8281,3.7969-1.8281,2.6797,0,4.0312,1.5117,4.0547,4.5352v8.3789h-2.168v-8.3906c-.0078-.9141-.2168-1.5898-.627-2.0273s-1.0488-.6562-1.916-.6562c-.7031,0-1.3203.1875-1.8516.5625s-.9453.8672-1.2422,1.4766v9.0352h-2.168v-12.6797h2.0508Z" stroke-width="0"/><path d="m853.249,223.5757c0-.3516.1074-.6484.3223-.8906s.5332-.3633.9551-.3633.7422.1211.9609.3633.3281.5391.3281.8906-.1094.6445-.3281.8789-.5391.3516-.9609.3516-.7402-.1172-.9551-.3516-.3223-.5273-.3223-.8789Zm2.3438,16.043h-2.168v-12.6797h2.168v12.6797Z" stroke-width="0"/><path d="m861.1123,226.939l.0703,1.5938c.9688-1.2188,2.2344-1.8281,3.7969-1.8281,2.6797,0,4.0312,1.5117,4.0547,4.5352v8.3789h-2.168v-8.3906c-.0078-.9141-.2168-1.5898-.627-2.0273s-1.0488-.6562-1.916-.6562c-.7031,0-1.3203.1875-1.8516.5625s-.9453.8672-1.2422,1.4766v9.0352h-2.168v-12.6797h2.0508Z" stroke-width="0"/><path d="m871.7881,233.1733c0-1.9766.457-3.5488,1.3711-4.7168s2.125-1.752,3.6328-1.752c1.5469,0,2.7539.5469,3.6211,1.6406l.1055-1.4062h1.9805v12.375c0,1.6406-.4863,2.9336-1.459,3.8789s-2.2793,1.418-3.9199,1.418c-.9141,0-1.8086-.1953-2.6836-.5859s-1.543-.9258-2.0039-1.6055l1.125-1.3008c.9297,1.1484,2.0664,1.7227,3.4102,1.7227,1.0547,0,1.877-.2969,2.4668-.8906s.8848-1.4297.8848-2.5078v-1.0898c-.8672,1-2.0508,1.5-3.5508,1.5-1.4844,0-2.6855-.5977-3.6035-1.793s-1.377-2.8242-1.377-4.8867Zm2.1797.2461c0,1.4297.293,2.5527.8789,3.3691s1.4062,1.2246,2.4609,1.2246c1.3672,0,2.3711-.6211,3.0117-1.8633v-5.7891c-.6641-1.2109-1.6602-1.8164-2.9883-1.8164-1.0547,0-1.8789.4102-2.4727,1.2305s-.8906,2.0352-.8906,3.6445Z" stroke-width="0"/><path d="m892.7764,239.6187v-11.0039h-2.0039v-1.6758h2.0039v-1.3008c0-1.3594.3633-2.4102,1.0898-3.1523s1.7539-1.1133,3.082-1.1133c.5,0,.9961.0664,1.4883.1982l-.1172,1.7471c-.3672-.0703-.7578-.1055-1.1719-.1055-.7031,0-1.2461.2061-1.6289.6172s-.5742,1.001-.5742,1.7695v1.3398h2.707v1.6758h-2.707v11.0039h-2.168Z" stroke-width="0"/><path d="m899.4678,233.1616c0-1.2422.2441-2.3594.7324-3.3516s1.168-1.7578,2.0391-2.2969,1.8652-.8086,2.9824-.8086c1.7266,0,3.123.5977,4.1895,1.793s1.5996,2.7852,1.5996,4.7695v.1523c0,1.2344-.2363,2.3418-.709,3.3223s-1.1484,1.7441-2.0273,2.291-1.8887.8203-3.0293.8203c-1.7188,0-3.1113-.5977-4.1777-1.793s-1.5996-2.7773-1.5996-4.7461v-.1523Zm2.1797.2578c0,1.4062.3262,2.5352.9785,3.3867s1.5254,1.2773,2.6191,1.2773c1.1016,0,1.9766-.4316,2.625-1.2949s.9727-2.0723.9727-3.627c0-1.3906-.3301-2.5176-.9902-3.3809s-1.5371-1.2949-2.6309-1.2949c-1.0703,0-1.9336.4258-2.5898,1.2773s-.9844,2.0703-.9844,3.6562Z" stroke-width="0"/><path d="m919.8584,228.8843c-.3281-.0547-.6836-.082-1.0664-.082-1.4219,0-2.3867.6055-2.8945,1.8164v9h-2.168v-12.6797h2.1094l.0352,1.4648c.7109-1.1328,1.7188-1.6992,3.0234-1.6992.4219,0,.7422.0547.9609.1641v2.0156Z" stroke-width="0"/><path d="m925.3896,233.7476l-1.3594,1.418v4.4531h-2.168v-18h2.168v10.8867l1.1602-1.3945,3.9492-4.1719h2.6367l-4.9336,5.2969,5.5078,7.3828h-2.543l-4.418-5.8711Z" stroke-width="0"/><path d="m933.9443,243.0171l-1.2305-.8438c.7344-1.0234,1.1172-2.0781,1.1484-3.1641v-1.957h2.1211v1.6992c0,.7891-.1934,1.5781-.5801,2.3672s-.873,1.4219-1.459,1.8984Z" stroke-width="0"/><path d="m952.0498,236.2554c0-.5859-.2207-1.041-.6621-1.3652s-1.2109-.6035-2.3086-.8379-1.9688-.5156-2.6133-.8438-1.1211-.7188-1.4297-1.1719-.4629-.9922-.4629-1.6172c0-1.0391.4395-1.918,1.3184-2.6367s2.002-1.0781,3.3691-1.0781c1.4375,0,2.6035.3711,3.498,1.1133s1.3418,1.6914,1.3418,2.8477h-2.1797c0-.5938-.252-1.1055-.7559-1.5352s-1.1387-.6445-1.9043-.6445c-.7891,0-1.4062.1719-1.8516.5156s-.668.793-.668,1.3477c0,.5234.207.918.6211,1.1836s1.1621.5195,2.2441.7617,1.959.5312,2.6309.8672,1.1699.7402,1.4941,1.2129.4863,1.0488.4863,1.7285c0,1.1328-.4531,2.041-1.3594,2.7246s-2.082,1.0254-3.5273,1.0254c-1.0156,0-1.9141-.1797-2.6953-.5391s-1.3926-.8613-1.834-1.5059-.6621-1.3418-.6621-2.0918h2.168c.0391.7266.3301,1.3027.873,1.7285s1.2598.6387,2.1504.6387c.8203,0,1.4785-.166,1.9746-.498s.7441-.7754.7441-1.3301Z" stroke-width="0"/><path d="m959.9834,223.8687v3.0703h2.3672v1.6758h-2.3672v7.873c0,.5088.1055.8896.3164,1.1445.2109.2539.5703.3809,1.0781.3809.25,0,.5938-.0469,1.0312-.1406v1.748c-.5703.1543-1.125.2324-1.6641.2324-.9688,0-1.6992-.293-2.1914-.8789s-.7383-1.418-.7383-2.4961v-7.8633h-2.3086v-1.6758h2.3086v-3.0703h2.168Z" stroke-width="0"/><path d="m971.0107,228.8843c-.3281-.0547-.6836-.082-1.0664-.082-1.4219,0-2.3867.6055-2.8945,1.8164v9h-2.168v-12.6797h2.1094l.0352,1.4648c.7109-1.1328,1.7188-1.6992,3.0234-1.6992.4219,0,.7422.0547.9609.1641v2.0156Z" stroke-width="0"/><path d="m973.0146,223.5757c0-.3516.1074-.6484.3223-.8906s.5332-.3633.9551-.3633.7422.1211.9609.3633.3281.5391.3281.8906-.1094.6445-.3281.8789-.5391.3516-.9609.3516-.7402-.1172-.9551-.3516-.3223-.5273-.3223-.8789Zm2.3438,16.043h-2.168v-12.6797h2.168v12.6797Z" stroke-width="0"/><path d="m982.3662,233.7476l-1.3594,1.418v4.4531h-2.168v-18h2.168v10.8867l1.1602-1.3945,3.9492-4.1719h2.6367l-4.9336,5.2969,5.5078,7.3828h-2.543l-4.418-5.8711Z" stroke-width="0"/><path d="m996.2529,239.853c-1.7188,0-3.1172-.5645-4.1953-1.6934s-1.6172-2.6387-1.6172-4.5293v-.3984c0-1.2578.2402-2.3809.7207-3.3691s1.1523-1.7617,2.0156-2.3203,1.7988-.8379,2.8066-.8379c1.6484,0,2.9297.543,3.8438,1.6289s1.3711,2.6406,1.3711,4.6641v.9023h-8.5898c.0312,1.25.3965,2.2598,1.0957,3.0293s1.5879,1.1543,2.666,1.1543c.7656,0,1.4141-.1562,1.9453-.4688s.9961-.7266,1.3945-1.2422l1.3242,1.0312c-1.0625,1.6328-2.6562,2.4492-4.7812,2.4492Zm-.2695-11.3672c-.875,0-1.6094.3184-2.2031.9551s-.9609,1.5293-1.1016,2.6777h6.3516v-.1641c-.0625-1.1016-.3594-1.9551-.8906-2.5605s-1.25-.9082-2.1562-.9082Z" stroke-width="0"/><path d="m1011.8154,228.4741c.9609-1.1797,2.2109-1.7695,3.75-1.7695,2.6797,0,4.0312,1.5117,4.0547,4.5352v8.3789h-2.168v-8.3906c-.0078-.9141-.2168-1.5898-.627-2.0273s-1.0488-.6562-1.916-.6562c-.7031,0-1.3203.1875-1.8516.5625s-.9453.8672-1.2422,1.4766v9.0352h-2.168v-18h2.168v6.8555Z" stroke-width="0"/><path d="m1028.1279,239.853c-1.7188,0-3.1172-.5645-4.1953-1.6934s-1.6172-2.6387-1.6172-4.5293v-.3984c0-1.2578.2402-2.3809.7207-3.3691s1.1523-1.7617,2.0156-2.3203,1.7988-.8379,2.8066-.8379c1.6484,0,2.9297.543,3.8438,1.6289s1.3711,2.6406,1.3711,4.6641v.9023h-8.5898c.0312,1.25.3965,2.2598,1.0957,3.0293s1.5879,1.1543,2.666,1.1543c.7656,0,1.4141-.1562,1.9453-.4688s.9961-.7266,1.3945-1.2422l1.3242,1.0312c-1.0625,1.6328-2.6562,2.4492-4.7812,2.4492Zm-.2695-11.3672c-.875,0-1.6094.3184-2.2031.9551s-.9609,1.5293-1.1016,2.6777h6.3516v-.1641c-.0625-1.1016-.3594-1.9551-.8906-2.5605s-1.25-.9082-2.1562-.9082Z" stroke-width="0"/><path d="m1041.71,228.8843c-.3281-.0547-.6836-.082-1.0664-.082-1.4219,0-2.3867.6055-2.8945,1.8164v9h-2.168v-12.6797h2.1094l.0352,1.4648c.7109-1.1328,1.7188-1.6992,3.0234-1.6992.4219,0,.7422.0547.9609.1641v2.0156Z" stroke-width="0"/><path d="m1048.9639,239.853c-1.7188,0-3.1172-.5645-4.1953-1.6934s-1.6172-2.6387-1.6172-4.5293v-.3984c0-1.2578.2402-2.3809.7207-3.3691s1.1523-1.7617,2.0156-2.3203,1.7988-.8379,2.8066-.8379c1.6484,0,2.9297.543,3.8438,1.6289s1.3711,2.6406,1.3711,4.6641v.9023h-8.5898c.0312,1.25.3965,2.2598,1.0957,3.0293s1.5879,1.1543,2.666,1.1543c.7656,0,1.4141-.1562,1.9453-.4688s.9961-.7266,1.3945-1.2422l1.3242,1.0312c-1.0625,1.6328-2.6562,2.4492-4.7812,2.4492Zm-.2695-11.3672c-.875,0-1.6094.3184-2.2031.9551s-.9609,1.5293-1.1016,2.6777h6.3516v-.1641c-.0625-1.1016-.3594-1.9551-.8906-2.5605s-1.25-.9082-2.1562-.9082Z" stroke-width="0"/><path d="m1056.4639,238.4819c0-.375.1113-.6875.334-.9375s.5566-.375,1.002-.375.7832.125,1.0137.375.3457.5625.3457.9375c0,.3594-.1152.6602-.3457.9023s-.5684.3633-1.0137.3633-.7793-.1211-1.002-.3633-.334-.543-.334-.9023Z" stroke-width="0"/><line x1="608.4937" y1="200.1802" x2="684.6658" y2="230.0314" fill="none" stroke="#000" stroke-linejoin="round" stroke-width="2"/></svg>