<?xml version="1.0" encoding="UTF-8"?><svg id="f" xmlns="http://www.w3.org/2000/svg" width="570" height="260" xmlns:xlink="http://www.w3.org/1999/xlink" viewBox="0 0 570 260"><defs><clipPath id="g"><path d="m317.57,245.88c46.86,3.42,94.61,7.73,140.46-1.32,45.86-9.05,90.43-34.28,105.82-72.84,28.21-70.71-45.83-133.14-117.05-152.52-39.06-10.63-81.13-14.08-121.91-14.99-84.94-1.89-180.8,5.56-252,49.98C6.73,95.46-37.99,197.94,47.16,244.79c34.08,18.75,75.84,17.19,113.81,11.04,51.84-8.4,103.85-13.8,156.6-9.95Z" fill="none"/></clipPath></defs><g clip-path="url(#g)"><rect y="-12" width="586" height="300" fill="#b6e3ff"/><path d="m-20.33,179.52s117.11-67.05,173.11-78.1c56-11.05,85.01,9.08,85.01,9.08,0,0-58-5.75-58,20.13,0,0,1.29,39.01,42.7,58.33,41.41,19.31,91.22,23.04,91.22,23.04l-331.13-6.6-2.9-25.88Z" fill="#1497a5"/><path d="m124.35,111.67c-1.24.25-2.47.51-3.7.8-3.7.86-7.26,2.22-10.95,3.1-.28.07-1,.35-1.26.11-.42-.46,50.04-22.06,80.18-21.26,40.49,1.08,58.03,20.21,54.54,19.35-3.49-.86,11.92,11.83,7.06,16.55-4.86,4.73-20.28-7.96-20.28-7.96,0,0,2.81,3.65-1.37,5.59-4.18,1.93-13.11-13.54-47.55-17.63-8.1-.96-16.25-1.4-24.41-1.39-7.93,0-16.03.34-23.97,1.38-2.78.36-5.55.81-8.3,1.36Z" fill="#fff"/><path d="m602.33,197.02c-6.84.2-13.55,1.88-20.33,2.8s-13.94,1.04-20.2-1.74c-6.53-2.9-10.19-5.81-22.23-5.57-8,.16-16.59,5.76-20.45,4.15-4.65-1.95-6.6-7.85-11.16-10.01-3.92-1.85-8.6-.4-12.38,1.73-6.31,3.57-10.55,6.47-18.02,6.22-17.34-.58-17.89-11.4-36.12-12.55-18.23-1.15-20.26,9.01-36.97,7.95s-26.47-10.7-55.33-12.52c-28.86-1.82-34.46,6.86-61.7,5.14s-34.11-15.81-59.24-17.39c-25.13-1.59-51.43,12.64-51.43,12.64l-3.2,50.65s355.48,19.44,355.48,19.44c20.38-7.55,52.9-43.37,73.27-50.94Z" fill="#1497a5"/><polygon points="618.76 306 15.58 306 -7.09 255.6 -7.09 203.6 596 209 575.54 229.12 653 243.31 641.77 255.6 618.76 306" fill="#1497a5"/><path d="m142,111.15c-9.92,1.7-21.49,4.77-26.73,14.14-2.43,4.47-2.66,9.9-1.62,14.91,2.22,10.33,10.3,18.24,18.76,24.12,13.2,9.12,28.53,14.41,43.63,19.55,0,0-.07.29-.07.29-10.67-1.71-20.92-5.38-30.72-9.94-14.33-6.92-30.15-16.89-33.89-33.53-2.64-12.15,3.16-22.46,14.65-26.97,5.11-2.06,10.57-3,15.99-2.85v.29h0Z" fill="#097684"/><path d="m104.07,121.13c-13.01,9.77-18.47,26.73-15.5,42.37,3.64,15.87,18.83,25.56,32.48,32.54,9.65,4.74,19.8,8.31,29.98,11.81,0,0-.07.29-.07.29-10.73-1.76-21.02-5.52-30.85-10.17-14.39-7.05-30.16-17.25-33.83-34-1.83-10.88-.26-22.57,5.7-31.97,3-4.63,7.04-8.66,11.94-11.13l.14.26h0Z" fill="#097684"/><path d="m126.07,117.13c-10.45,10.35-6.89,20.9,1.26,31.35,2.49,3.18,5.37,5.98,7.77,9.41l-.2.22c-3.65-2.09-6.55-5.1-9.24-8.28-5.33-6.27-10.14-14.87-7.76-23.38,1.17-4.18,3.95-8.08,8.02-9.58l.15.25h0Z" fill="#097684"/><path d="m150.01,114.15c-3.08,1.28-6.21,1.9-9.24,3.16-7.63,3.01-13.12,9.24-12.62,17.74-.06,1.63.1,3.26,0,4.92,0,0-.28.07-.28.07-3.29-6.15-1.64-14.51,3.32-19.36,2.52-2.48,5.6-4.23,8.81-5.39,3.2-1.12,6.56-2.09,10-1.44l.02.29h0Z" fill="#097684"/><path d="m141.03,123.14c-1.68,1.36-3.19,2.47-4.28,4.25-2.22,3.75-1.41,8.61-.29,12.67.45,1.76,1.14,3.48,1.76,5.19.43,1.16.77,2.35.9,3.68l-.26.14c-2.13-2.01-3.2-4.78-4.27-7.43-1.69-4.91-2.77-10.75.38-15.39,1.29-1.98,3.53-3.62,5.99-3.39,0,0,.06.29.06.29h0Z" fill="#097684"/><path d="m185.52,166.88c-3.8-3.2-7.06-6.76-10.57-10.16-3.45-3.43-7.24-6.7-9.93-11.17-4.41-8.04-4.91-21.24-.2-29.22,0,0,.27.11.27.11-.38,2.44-.74,4.81-1.02,7.19-.84,6.97-.32,14.43,3.01,20.72,2.4,4.09,6.09,7.4,9.37,10.87,3.42,3.51,6.86,7.11,9.29,11.48l-.23.19h0Z" fill="#097684"/><path d="m459.71,201.14c-4.32,2.04-8.78,3.33-13.21,4.88-4.43,1.51-8.88,3.24-13.74,3.92-8.4.92-20.81-1.05-27.52-6.44,0,0,.15-.25.15-.25,8.84,2.74,17.76,5.39,27.06,4.32,4.55-.6,8.97-2.22,13.39-3.57,4.48-1.42,9.02-2.85,13.81-3.14l.07.28h0Z" fill="#097684"/><path d="m253.71,205.14c-4.32,2.04-8.78,3.33-13.21,4.88-4.43,1.51-8.88,3.24-13.74,3.92-8.4.92-20.81-1.05-27.52-6.44,0,0,.15-.25.15-.25,8.84,2.74,17.76,5.39,27.06,4.32,4.55-.6,8.97-2.22,13.39-3.57,4.48-1.42,9.02-2.85,13.81-3.14l.07.28h0Z" fill="#097684"/><path d="m277.06,220.81c4.46-1.71,9.01-2.66,13.54-3.88,4.53-1.17,9.09-2.56,14-2.88,8.45-.28,20.67,2.6,26.96,8.48,0,0-.17.24-.17.24-8.61-3.4-17.3-6.7-26.66-6.33-4.58.26-9.11,1.54-13.62,2.55-4.58,1.08-9.21,2.16-14,2.1l-.05-.29h0Z" fill="#097684"/><path d="m167.27,122.81c1.06,2.37,1.13,4.75,1.58,7.11.44,2.35.94,4.68,1.68,6.9,1.26,4.68,4.54,8.21,6.71,12.46,0,0-.2.21-.2.21-2.41-1.09-3.96-3.13-5.39-5.18-2.96-4.06-4.4-9.15-4.94-14.08-.26-2.45-.65-4.93.26-7.42h.29Z" fill="#097684"/><path d="m490.98,200.08c1.96-1,3.9-.96,5.84-1.25,1.93-.28,3.85-.59,5.72-1.02,3.89-.64,7.15-2.92,10.99-3.77,0,0,.17.24.17.24-1.15,1.9-3.01,2.85-4.83,3.77-1.83.91-3.78,1.67-5.8,2.12-2,.45-4.02.69-6.04.81-2.01.09-4.04.36-6.05-.61v-.29h0Z" fill="#097684"/><path d="m417.71,199.41c2.17-.34,4,.3,5.93.64,1.92.34,3.84.64,5.75.82,3.89.6,7.7-.54,11.62-.15,0,0,.09.28.09.28-1.68,1.45-3.75,1.77-5.76,2.07-2.02.3-4.11.41-6.17.2-2.04-.2-4.04-.6-5.99-1.11-1.94-.54-3.95-.92-5.56-2.47l.09-.28h0Z" fill="#097684"/><path d="m335.71,210.41c2.17-.34,4,.3,5.93.64,1.92.34,3.84.64,5.75.82,3.89.6,7.7-.54,11.62-.15,0,0,.09.28.09.28-1.68,1.45-3.75,1.77-5.76,2.07-2.02.3-4.11.41-6.17.2-2.04-.2-4.04-.6-5.99-1.11-1.94-.54-3.95-.92-5.56-2.47l.09-.28h0Z" fill="#097684"/><path d="m283.62,192.13c2.17.3,3.75,1.44,5.5,2.31,1.74.88,3.5,1.71,5.28,2.43,3.56,1.7,7.53,1.69,11.17,3.19,0,0,0,.29,0,.29-2.03.91-4.1.62-6.11.33-2.02-.3-4.05-.78-5.97-1.58-1.9-.77-3.7-1.73-5.42-2.78-1.7-1.07-3.52-2.01-4.62-3.96l.17-.24h0Z" fill="#097684"/><path d="m485.35,209.21c5.78-1.43,11.82-1.02,17.72-2.59,5.92-1.08,10.88-4.42,16.38-6.68,0,0,.18.23.18.23-1.88,2.58-4.61,4.14-7.33,5.56-5.42,2.95-11.72,4.14-17.83,4.44-3.04.13-6.12.39-9.13-.67v-.29h.01Z" fill="#097684"/><path d="m324.39,213.19c3.11.52,5.74,1.88,8.55,2.89,2.8,1.01,5.62,1.96,8.48,2.63,5.79,1.65,11.72.85,17.65,1.27,0,0,.06.29.06.29-2.83,1.48-5.96,1.67-9.03,1.74-6.17.24-12.34-1.48-17.96-3.91-2.79-1.23-5.66-2.36-7.89-4.64l.14-.26h0Z" fill="#097684"/><path d="m198.21,171.61c3.14.27,5.87,1.41,8.76,2.2,2.87.78,5.76,1.51,8.66,1.94,5.9,1.18,11.75-.09,17.69-.16,0,0,.08.28.08.28-2.7,1.7-5.81,2.14-8.87,2.46-6.13.74-12.42-.48-18.21-2.46-2.88-1-5.83-1.9-8.24-3.99l.12-.27h0Z" fill="#097684"/><path d="m48.34,148.69c3.69-1.8,7.47-2.7,10.96-4.48,10.06-4.58,15.46-16.32,26.62-19.04,1.02-.18,2.03-.34,3.05-.4l.07.28c-3.61,1.89-7.1,3.41-10.12,5.88-3.01,2.44-5.62,5.42-8.57,8.24-5.84,5.56-13.74,9.84-21.96,9.8,0,0-.06-.29-.06-.29h0Z" fill="#097684"/><path d="m404.75,218.41c7.82,5.3,16.1,10.03,25.36,12.05,4.58,1.07,9.21,1.45,13.95,1.3,9.46-.08,18.95-.97,28.1-3.41,4.57-1.21,9.02-2.85,13.52-4.47,8.96-3.43,18.69-5.4,28.31-4.86,0,0,0,.29,0,.29-4.76.53-9.46,1.2-14.07,2.28-4.6,1.08-9.08,2.56-13.54,4.23-8.91,3.5-18.28,6.47-27.87,7.47-9.62.95-19.43,1.73-28.94-.57-9.32-2.45-18.63-6.71-25.04-14.09,0,0,.2-.21.2-.21h0Z" fill="#097684"/><path d="m198.75,221.41c7.82,5.3,16.1,10.03,25.36,12.05,4.58,1.07,9.21,1.45,13.95,1.3,9.46-.08,18.95-.97,28.1-3.41,4.57-1.21,9.02-2.85,13.52-4.47,8.96-3.43,18.69-5.4,28.31-4.86,0,0,0,.29,0,.29-4.76.53-9.46,1.2-14.07,2.28-4.6,1.08-9.08,2.56-13.54,4.23-8.91,3.5-18.28,6.47-27.87,7.47-9.62.95-19.43,1.73-28.94-.57-9.32-2.45-18.63-6.71-25.04-14.09,0,0,.2-.21.2-.21h0Z" fill="#097684"/><path d="m99.39,190.38c-12.58-2.08-18.18-15.43-26.11-23.66-10.24-10.68-19.04-8.54-31.98-5.08-11.57,3.06-23.45,6.35-35.61,5.49-11.92-1.17-24.17-3.46-34.53-9.74,0,0,.14-.26.14-.26,11.19,4.02,22.74,6.93,34.56,7.71,11.84.77,23.43-2.57,34.85-5.5,5.92-1.42,11.76-3.23,18.01-2.81,12.95,1.28,20.06,13.69,27.05,22.99,2.71,3.47,5.74,6.71,9.62,8.85,1.28.73,2.66,1.24,4.07,1.72l-.07.29h0Z" fill="#097684"/><path d="m342.03,184.3c-1.97.99-3.92.88-5.88,1.07-1.95.17-3.9.34-5.83.55-1.92.22-3.86.43-5.63.89-1.92.54-3.8,1.26-5.89,1.02,0,0-.1-.28-.1-.28,4.88-3.91,11.41-4.2,17.34-4.35,1.99.01,3.99-.19,5.97.8v.29h0Z" fill="#fff"/><path d="m391.95,207.45c-1.99.94-3.94.79-5.9.94-1.96.13-3.91.26-5.84.43-1.92.18-3.86.35-5.65.77-1.93.5-3.83,1.18-5.91.9,0,0-.09-.28-.09-.28,4.95-3.81,11.49-3.97,17.43-3.99,1.99.06,3.99-.1,5.96.93v.29h0Z" fill="#fff"/><path d="m374.38,203.5c-.71,1.21-1.71,1.32-2.65,1.68-.94.34-1.9.64-2.86.9-.97.26-1.95.47-2.93.65-.99.18-1.93.51-3.14-.11l-.08-.28c.73-1.14,1.71-1.34,2.65-1.67.94-.33,1.9-.65,2.86-.91.97-.26,1.94-.48,2.93-.66.99-.16,1.92-.57,3.14.12l.08.28h0Z" fill="#fff"/><path d="m117.2,213.24c-1.25.63-2.16.18-3.14-.03-.98-.23-1.94-.49-2.89-.8-.95-.31-1.89-.67-2.81-1.04-.93-.38-1.9-.62-2.57-1.8l.09-.28c1.23-.56,2.16-.19,3.14.04.97.23,1.94.48,2.9.79.95.31,1.89.65,2.82,1.04.92.4,1.92.56,2.57,1.81l-.09.28h0Z" fill="#fff"/><path d="m110.02,220.14c-7.93-1.44-15.94-2.87-23.98-2.44-8.03.57-15.89,3.04-23.87,4.45-8.05,1.55-16.41,2.01-24.57,1.59-8.16-.31-16.38-.67-24.36-2.69l.05-.29,12.2.43c12.11.54,24.32,1.06,36.25-1.41,8.06-1.39,15.92-3.83,24.19-4.24,8.27-.25,16.62.96,24.19,4.33,0,0-.09.28-.09.28h0Z" fill="#fff"/><path d="m321.26,210.86c-10.74-.29-21.52-2.1-32.11,0-10.61,2.18-20.23,7.19-30.6,10.28,0,0-.13-.26-.13-.26,4.52-3.17,9.59-5.24,14.64-7.26,5.11-1.96,10.25-4.06,15.64-5.12,5.49-1.01,11.02-1.05,16.49-.74,5.45.38,10.95.85,16.13,2.82l-.06.29h0Z" fill="#fff"/><path d="m440.68,187.15c1.92.23,3.34,1.13,5.05,1.83,1.62.67,3.28,1.24,4.95,1.78,1.68.52,3.37,1.02,5.09,1.44,1.72.44,3.46.6,5.15,1.71l-.03.29c-3.63,1.09-7.4-.26-10.94-1.14-1.76-.57-3.49-1.27-5.13-2.12-1.62-.87-3.4-1.65-4.32-3.56l.18-.23h0Z" fill="#fff"/></g></svg>