<?xml version="1.0" encoding="UTF-8"?><svg id="a" xmlns="http://www.w3.org/2000/svg" width="1140" height="641" viewBox="0 0 1140 641"><path d="m1136.609,218.257c-3.411,172.8-33.137,301.861-177.347,378.568-106.863,56.842-246.695,15.916-572.968,39.789C77.584,659.204,24.879,510.326,6.588,345.661-21.833,89.794,131.331,3.87,440.862,2.257c654.821-3.411,699.017,50.355,695.747,216Z" fill="#f2e9f4"/><line x1="588.194" y1="436.388" x2="611.443" y2="426.636" fill="none" stroke="#000" stroke-miterlimit="10" stroke-width="2"/><polygon points="593.433 442.842 577.606 440.83 587.26 428.128 593.433 442.842"/><path d="m575.971,544.435c0,2.031-.434,3.615-1.301,4.752s-2.078,1.705-3.633,1.705c-1.375,0-2.473-.527-3.293-1.582l-.152,1.348h-3.047v-18h3.387v6.457c.781-.914,1.809-1.371,3.082-1.371,1.547,0,2.76.568,3.639,1.705s1.318,2.736,1.318,4.799v.188Zm-3.387-.246c0-1.281-.203-2.217-.609-2.807s-1.012-.885-1.816-.885c-1.078,0-1.82.441-2.227,1.324v5.004c.414.891,1.164,1.336,2.25,1.336,1.094,0,1.812-.539,2.156-1.617.164-.516.246-1.301.246-2.355Z"/><path d="m278.997,438.111c-.156-.305-.27-.684-.34-1.137-.82.914-1.887,1.371-3.199,1.371-1.242,0-2.271-.359-3.088-1.078s-1.225-1.625-1.225-2.719c0-1.344.498-2.375,1.494-3.094s2.436-1.082,4.318-1.09h1.559v-.727c0-.586-.15-1.055-.451-1.406s-.775-.527-1.424-.527c-.57,0-1.018.137-1.342.41s-.486.648-.486,1.125h-3.387c0-.734.227-1.414.68-2.039s1.094-1.115,1.922-1.471,1.758-.533,2.789-.533c1.562,0,2.803.393,3.721,1.178s1.377,1.889,1.377,3.311v5.496c.008,1.203.176,2.113.504,2.73v.199h-3.422Zm-2.801-2.355c.5,0,.961-.111,1.383-.334s.734-.521.938-.896v-2.18h-1.266c-1.695,0-2.598.586-2.707,1.758l-.012.199c0,.422.148.77.445,1.043s.703.41,1.219.41Z"/><path d="m863.709,435.615c.625,0,1.133-.172,1.523-.516s.594-.801.609-1.371h3.176c-.008.859-.242,1.646-.703,2.361s-1.092,1.27-1.893,1.664-1.686.592-2.654.592c-1.812,0-3.242-.576-4.289-1.729s-1.57-2.744-1.57-4.775v-.223c0-1.953.52-3.512,1.559-4.676s2.465-1.746,4.277-1.746c1.586,0,2.857.451,3.814,1.354s1.443,2.104,1.459,3.604h-3.176c-.016-.66-.219-1.195-.609-1.609-.391-.412-.906-.617-1.547-.617-.789,0-1.385.287-1.787.861-.402.576-.604,1.51-.604,2.801v.352c0,1.307.199,2.246.598,2.816.398.572,1.004.857,1.816.857Z"/><path d="m386.718,369.982h-7.148l-1.605,4.465h-2.32l6.516-17.062h1.969l6.527,17.062h-2.309l-1.629-4.465Zm-6.469-1.84h5.801l-2.906-7.98-2.895,7.98Z"/><path d="m394.652,361.767l.059,1.406c.93-1.094,2.184-1.641,3.762-1.641,1.773,0,2.98.68,3.621,2.039.422-.609.971-1.102,1.646-1.477s1.475-.562,2.396-.562c2.781,0,4.195,1.473,4.242,4.418v8.496h-2.168v-8.367c0-.906-.207-1.584-.621-2.033s-1.109-.674-2.086-.674c-.805,0-1.473.24-2.004.721s-.84,1.127-.926,1.939v8.414h-2.18v-8.309c0-1.844-.902-2.766-2.707-2.766-1.422,0-2.395.605-2.918,1.816v9.258h-2.168v-12.68h2.051Z"/><path d="m424.359,368.247c0,1.93-.441,3.484-1.324,4.664s-2.078,1.77-3.586,1.77c-1.539,0-2.75-.488-3.633-1.465v6.105h-2.168v-17.555h1.98l.105,1.406c.883-1.094,2.109-1.641,3.68-1.641,1.523,0,2.729.574,3.615,1.723s1.33,2.746,1.33,4.793v.199Zm-2.168-.246c0-1.43-.305-2.559-.914-3.387s-1.445-1.242-2.508-1.242c-1.312,0-2.297.582-2.953,1.746v6.059c.648,1.156,1.641,1.734,2.977,1.734,1.039,0,1.865-.412,2.479-1.236s.92-2.049.92-3.674Z"/><path d="m429.468,374.447h-2.168v-18h2.168v18Z"/><path d="m432.949,358.404c0-.352.107-.648.322-.891s.533-.363.955-.363.742.121.961.363.328.539.328.891-.109.645-.328.879-.539.352-.961.352-.74-.117-.955-.352-.322-.527-.322-.879Zm2.344,16.043h-2.168v-12.68h2.168v12.68Z"/><path d="m441.702,358.697v3.07h2.367v1.676h-2.367v7.873c0,.509.105.89.316,1.145.211.254.57.381,1.078.381.25,0,.594-.047,1.031-.141v1.748c-.57.154-1.125.232-1.664.232-.969,0-1.699-.293-2.191-.879s-.738-1.418-.738-2.496v-7.863h-2.309v-1.676h2.309v-3.07h2.168Z"/><path d="m454.429,373.193c-.844.992-2.082,1.488-3.715,1.488-1.352,0-2.381-.393-3.088-1.178s-1.064-1.947-1.072-3.486v-8.25h2.168v8.191c0,1.922.781,2.883,2.344,2.883,1.656,0,2.758-.617,3.305-1.852v-9.223h2.168v12.68h-2.062l-.047-1.254Z"/><path d="m459.304,368.001c0-1.945.461-3.51,1.383-4.693s2.129-1.775,3.621-1.775c1.484,0,2.66.508,3.527,1.523v-6.609h2.168v18h-1.992l-.105-1.359c-.867,1.062-2.074,1.594-3.621,1.594-1.469,0-2.666-.602-3.592-1.805s-1.389-2.773-1.389-4.711v-.164Zm2.168.246c0,1.438.297,2.562.891,3.375s1.414,1.219,2.461,1.219c1.375,0,2.379-.617,3.012-1.852v-5.824c-.648-1.195-1.645-1.793-2.988-1.793-1.062,0-1.891.41-2.484,1.23s-.891,2.035-.891,3.645Z"/><path d="m478.628,374.681c-1.719,0-3.117-.564-4.195-1.693s-1.617-2.639-1.617-4.529v-.398c0-1.258.24-2.381.721-3.369s1.152-1.762,2.016-2.32,1.799-.838,2.807-.838c1.648,0,2.93.543,3.844,1.629s1.371,2.641,1.371,4.664v.902h-8.59c.031,1.25.396,2.26,1.096,3.029s1.588,1.154,2.666,1.154c.766,0,1.414-.156,1.945-.469s.996-.727,1.395-1.242l1.324,1.031c-1.062,1.633-2.656,2.449-4.781,2.449Zm-.27-11.367c-.875,0-1.609.318-2.203.955s-.961,1.529-1.102,2.678h6.352v-.164c-.062-1.102-.359-1.955-.891-2.561s-1.25-.908-2.156-.908Z"/><path d="m491.941,367.521c0-1.766.236-3.461.709-5.086s1.178-3.102,2.115-4.43,1.91-2.266,2.918-2.812l.445,1.43c-1.141.875-2.076,2.211-2.807,4.008s-1.131,3.809-1.201,6.035l-.012.996c0,3.016.551,5.633,1.652,7.852.664,1.328,1.453,2.367,2.367,3.117l-.445,1.324c-1.039-.578-2.031-1.547-2.977-2.906-1.844-2.656-2.766-5.832-2.766-9.527Z"/><path d="m508.707,374.447l.162-.81c1.322,0,2.159-.189,2.159-1.539,0-.432-.026-.81-.054-1.134l-.27-2.429h-6.965l-1.889,2.861c-.378.513-.676.998-.676,1.511,0,.567.378.729,1.566.729l-.189.81h-5.642l.189-.81c1.484,0,1.997-.432,4.021-3.51l9.34-13.522h1.134l2.132,14.63c.352,1.781.729,2.402,2.349,2.402l-.162.81h-7.207Zm.999-14.792h-.081l-5.236,7.801h6.208l-.891-7.801Z"/><path d="m523.617,367.638c0,1.742-.229,3.412-.686,5.01s-1.156,3.072-2.098,4.424-1.928,2.312-2.959,2.883l-.457-1.324c1.203-.922,2.17-2.354,2.9-4.295s1.104-4.096,1.119-6.463v-.375c0-1.641-.172-3.166-.516-4.576s-.822-2.674-1.436-3.791-1.303-1.988-2.068-2.613l.457-1.324c1.031.57,2.014,1.523,2.947,2.859s1.633,2.809,2.098,4.418.697,3.332.697,5.168Z"/><path d="m626.087,369.982h-7.148l-1.605,4.465h-2.32l6.516-17.062h1.969l6.527,17.062h-2.309l-1.629-4.465Zm-6.469-1.84h5.801l-2.906-7.98-2.895,7.98Z"/><path d="m634.021,361.767l.059,1.406c.93-1.094,2.184-1.641,3.762-1.641,1.773,0,2.98.68,3.621,2.039.422-.609.971-1.102,1.646-1.477s1.475-.562,2.396-.562c2.781,0,4.195,1.473,4.242,4.418v8.496h-2.168v-8.367c0-.906-.207-1.584-.621-2.033s-1.109-.674-2.086-.674c-.805,0-1.473.24-2.004.721s-.84,1.127-.926,1.939v8.414h-2.18v-8.309c0-1.844-.902-2.766-2.707-2.766-1.422,0-2.395.605-2.918,1.816v9.258h-2.168v-12.68h2.051Z"/><path d="m663.728,368.247c0,1.93-.441,3.484-1.324,4.664s-2.078,1.77-3.586,1.77c-1.539,0-2.75-.488-3.633-1.465v6.105h-2.168v-17.555h1.98l.105,1.406c.883-1.094,2.109-1.641,3.68-1.641,1.523,0,2.729.574,3.615,1.723s1.33,2.746,1.33,4.793v.199Zm-2.168-.246c0-1.43-.305-2.559-.914-3.387s-1.445-1.242-2.508-1.242c-1.312,0-2.297.582-2.953,1.746v6.059c.648,1.156,1.641,1.734,2.977,1.734,1.039,0,1.865-.412,2.479-1.236s.92-2.049.92-3.674Z"/><path d="m668.837,374.447h-2.168v-18h2.168v18Z"/><path d="m672.318,358.404c0-.352.107-.648.322-.891s.533-.363.955-.363.742.121.961.363.328.539.328.891-.109.645-.328.879-.539.352-.961.352-.74-.117-.955-.352-.322-.527-.322-.879Zm2.344,16.043h-2.168v-12.68h2.168v12.68Z"/><path d="m681.072,358.697v3.07h2.367v1.676h-2.367v7.873c0,.509.105.89.316,1.145.211.254.57.381,1.078.381.25,0,.594-.047,1.031-.141v1.748c-.57.154-1.125.232-1.664.232-.969,0-1.699-.293-2.191-.879s-.738-1.418-.738-2.496v-7.863h-2.309v-1.676h2.309v-3.07h2.168Z"/><path d="m693.798,373.193c-.844.992-2.082,1.488-3.715,1.488-1.352,0-2.381-.393-3.088-1.178s-1.064-1.947-1.072-3.486v-8.25h2.168v8.191c0,1.922.781,2.883,2.344,2.883,1.656,0,2.758-.617,3.305-1.852v-9.223h2.168v12.68h-2.062l-.047-1.254Z"/><path d="m698.673,368.001c0-1.945.461-3.51,1.383-4.693s2.129-1.775,3.621-1.775c1.484,0,2.66.508,3.527,1.523v-6.609h2.168v18h-1.992l-.105-1.359c-.867,1.062-2.074,1.594-3.621,1.594-1.469,0-2.666-.602-3.592-1.805s-1.389-2.773-1.389-4.711v-.164Zm2.168.246c0,1.438.297,2.562.891,3.375s1.414,1.219,2.461,1.219c1.375,0,2.379-.617,3.012-1.852v-5.824c-.648-1.195-1.645-1.793-2.988-1.793-1.062,0-1.891.41-2.484,1.23s-.891,2.035-.891,3.645Z"/><path d="m717.997,374.681c-1.719,0-3.117-.564-4.195-1.693s-1.617-2.639-1.617-4.529v-.398c0-1.258.24-2.381.721-3.369s1.152-1.762,2.016-2.32,1.799-.838,2.807-.838c1.648,0,2.93.543,3.844,1.629s1.371,2.641,1.371,4.664v.902h-8.59c.031,1.25.396,2.26,1.096,3.029s1.588,1.154,2.666,1.154c.766,0,1.414-.156,1.945-.469s.996-.727,1.395-1.242l1.324,1.031c-1.062,1.633-2.656,2.449-4.781,2.449Zm-.27-11.367c-.875,0-1.609.318-2.203.955s-.961,1.529-1.102,2.678h6.352v-.164c-.062-1.102-.359-1.955-.891-2.561s-1.25-.908-2.156-.908Z"/><path d="m731.31,367.521c0-1.766.236-3.461.709-5.086s1.178-3.102,2.115-4.43,1.91-2.266,2.918-2.812l.445,1.43c-1.141.875-2.076,2.211-2.807,4.008s-1.131,3.809-1.201,6.035l-.012.996c0,3.016.551,5.633,1.652,7.852.664,1.328,1.453,2.367,2.367,3.117l-.445,1.324c-1.039-.578-2.031-1.547-2.977-2.906-1.844-2.656-2.766-5.832-2.766-9.527Z"/><path d="m748.076,374.447l.162-.81c1.322,0,2.159-.189,2.159-1.539,0-.432-.026-.81-.054-1.134l-.27-2.429h-6.965l-1.889,2.861c-.378.513-.676.998-.676,1.511,0,.567.378.729,1.566.729l-.189.81h-5.642l.189-.81c1.484,0,1.997-.432,4.021-3.51l9.34-13.522h1.134l2.132,14.63c.352,1.781.729,2.402,2.349,2.402l-.162.81h-7.207Zm.999-14.792h-.081l-5.236,7.801h6.208l-.891-7.801Z"/><path d="m762.986,367.638c0,1.742-.229,3.412-.686,5.01s-1.156,3.072-2.098,4.424-1.928,2.312-2.959,2.883l-.457-1.324c1.203-.922,2.17-2.354,2.9-4.295s1.104-4.096,1.119-6.463v-.375c0-1.641-.172-3.166-.516-4.576s-.822-2.674-1.436-3.791-1.303-1.988-2.068-2.613l.457-1.324c1.031.57,2.014,1.523,2.947,2.859s1.633,2.809,2.098,4.418.697,3.332.697,5.168Z"/><path d="m625.411,425.524h-4.008v6.902h-2.262v-17.062h5.648c1.922,0,3.4.438,4.436,1.312s1.553,2.148,1.553,3.82c0,1.062-.287,1.988-.861,2.777s-1.373,1.379-2.396,1.77l4.008,7.242v.141h-2.414l-3.703-6.902Zm-4.008-1.84h3.457c1.117,0,2.006-.289,2.666-.869.66-.579.99-1.354.99-2.324,0-1.057-.314-1.866-.943-2.43s-1.537-.85-2.725-.857h-3.445v6.48Z"/><path d="m638.853,432.66c-1.719,0-3.117-.564-4.195-1.693s-1.617-2.639-1.617-4.529v-.398c0-1.258.24-2.381.721-3.369s1.152-1.762,2.016-2.32,1.799-.838,2.807-.838c1.648,0,2.93.543,3.844,1.629s1.371,2.641,1.371,4.664v.902h-8.59c.031,1.25.396,2.26,1.096,3.029s1.588,1.154,2.666,1.154c.766,0,1.414-.156,1.945-.469s.996-.727,1.395-1.242l1.324,1.031c-1.062,1.633-2.656,2.449-4.781,2.449Zm-.27-11.367c-.875,0-1.609.318-2.203.955s-.961,1.529-1.102,2.678h6.352v-.164c-.062-1.102-.359-1.955-.891-2.561s-1.25-.908-2.156-.908Z"/><path d="m653.689,429.063c0-.586-.221-1.041-.662-1.365s-1.211-.604-2.309-.838-1.969-.516-2.613-.844-1.121-.719-1.43-1.172-.463-.992-.463-1.617c0-1.039.439-1.918,1.318-2.637s2.002-1.078,3.369-1.078c1.438,0,2.604.371,3.498,1.113s1.342,1.691,1.342,2.848h-2.18c0-.594-.252-1.105-.756-1.535s-1.139-.645-1.904-.645c-.789,0-1.406.172-1.852.516s-.668.793-.668,1.348c0,.523.207.918.621,1.184s1.162.52,2.244.762,1.959.531,2.631.867,1.17.74,1.494,1.213.486,1.049.486,1.729c0,1.133-.453,2.041-1.359,2.725s-2.082,1.025-3.527,1.025c-1.016,0-1.914-.18-2.695-.539s-1.393-.861-1.834-1.506-.662-1.342-.662-2.092h2.168c.039.727.33,1.303.873,1.729s1.26.639,2.15.639c.82,0,1.479-.166,1.975-.498s.744-.775.744-1.33Z"/><path d="m661.622,416.676v3.07h2.367v1.676h-2.367v7.873c0,.509.105.89.316,1.145.211.254.57.381,1.078.381.25,0,.594-.047,1.031-.141v1.748c-.57.154-1.125.232-1.664.232-.969,0-1.699-.293-2.191-.879s-.738-1.418-.738-2.496v-7.863h-2.309v-1.676h2.309v-3.07h2.168Z"/><path d="m683.173,426.227c0,1.93-.441,3.484-1.324,4.664s-2.078,1.77-3.586,1.77c-1.539,0-2.75-.488-3.633-1.465v6.105h-2.168v-17.555h1.98l.105,1.406c.883-1.094,2.109-1.641,3.68-1.641,1.523,0,2.729.574,3.615,1.723s1.33,2.746,1.33,4.793v.199Zm-2.168-.246c0-1.43-.305-2.559-.914-3.387s-1.445-1.242-2.508-1.242c-1.312,0-2.297.582-2.953,1.746v6.059c.648,1.156,1.641,1.734,2.977,1.734,1.039,0,1.865-.412,2.479-1.236s.92-2.049.92-3.674Z"/><path d="m685.353,425.969c0-1.242.244-2.359.732-3.352s1.168-1.758,2.039-2.297,1.865-.809,2.982-.809c1.727,0,3.123.598,4.189,1.793s1.6,2.785,1.6,4.77v.152c0,1.234-.236,2.342-.709,3.322s-1.148,1.744-2.027,2.291-1.889.82-3.029.82c-1.719,0-3.111-.598-4.178-1.793s-1.6-2.777-1.6-4.746v-.152Zm2.18.258c0,1.406.326,2.535.979,3.387s1.525,1.277,2.619,1.277c1.102,0,1.977-.432,2.625-1.295s.973-2.072.973-3.627c0-1.391-.33-2.518-.99-3.381s-1.537-1.295-2.631-1.295c-1.07,0-1.934.426-2.59,1.277s-.984,2.07-.984,3.656Z"/><path d="m706.997,429.063c0-.586-.221-1.041-.662-1.365s-1.211-.604-2.309-.838-1.969-.516-2.613-.844-1.121-.719-1.43-1.172-.463-.992-.463-1.617c0-1.039.439-1.918,1.318-2.637s2.002-1.078,3.369-1.078c1.438,0,2.604.371,3.498,1.113s1.342,1.691,1.342,2.848h-2.18c0-.594-.252-1.105-.756-1.535s-1.139-.645-1.904-.645c-.789,0-1.406.172-1.852.516s-.668.793-.668,1.348c0,.523.207.918.621,1.184s1.162.52,2.244.762,1.959.531,2.631.867,1.17.74,1.494,1.213.486,1.049.486,1.729c0,1.133-.453,2.041-1.359,2.725s-2.082,1.025-3.527,1.025c-1.016,0-1.914-.18-2.695-.539s-1.393-.861-1.834-1.506-.662-1.342-.662-2.092h2.168c.039.727.33,1.303.873,1.729s1.26.639,2.15.639c.82,0,1.479-.166,1.975-.498s.744-.775.744-1.33Z"/><path d="m712.001,416.383c0-.352.107-.648.322-.891s.533-.363.955-.363.742.121.961.363.328.539.328.891-.109.645-.328.879-.539.352-.961.352-.74-.117-.955-.352-.322-.527-.322-.879Zm2.344,16.043h-2.168v-12.68h2.168v12.68Z"/><path d="m720.755,416.676v3.07h2.367v1.676h-2.367v7.873c0,.509.105.89.316,1.145.211.254.57.381,1.078.381.25,0,.594-.047,1.031-.141v1.748c-.57.154-1.125.232-1.664.232-.969,0-1.699-.293-2.191-.879s-.738-1.418-.738-2.496v-7.863h-2.309v-1.676h2.309v-3.07h2.168Z"/><path d="m725.665,416.383c0-.352.107-.648.322-.891s.533-.363.955-.363.742.121.961.363.328.539.328.891-.109.645-.328.879-.539.352-.961.352-.74-.117-.955-.352-.322-.527-.322-.879Zm2.344,16.043h-2.168v-12.68h2.168v12.68Z"/><path d="m730.904,425.969c0-1.242.244-2.359.732-3.352s1.168-1.758,2.039-2.297,1.865-.809,2.982-.809c1.727,0,3.123.598,4.189,1.793s1.6,2.785,1.6,4.77v.152c0,1.234-.236,2.342-.709,3.322s-1.148,1.744-2.027,2.291-1.889.82-3.029.82c-1.719,0-3.111-.598-4.178-1.793s-1.6-2.777-1.6-4.746v-.152Zm2.18.258c0,1.406.326,2.535.979,3.387s1.525,1.277,2.619,1.277c1.102,0,1.977-.432,2.625-1.295s.973-2.072.973-3.627c0-1.391-.33-2.518-.99-3.381s-1.537-1.295-2.631-1.295c-1.07,0-1.934.426-2.59,1.277s-.984,2.07-.984,3.656Z"/><path d="m747.216,419.746l.07,1.594c.969-1.219,2.234-1.828,3.797-1.828,2.68,0,4.031,1.512,4.055,4.535v8.379h-2.168v-8.391c-.008-.914-.217-1.59-.627-2.027s-1.049-.656-1.916-.656c-.703,0-1.32.188-1.852.562s-.945.867-1.242,1.477v9.035h-2.168v-12.68h2.051Z"/><path d="m447.726,585.877c0,1.672-.281,3.131-.844,4.377s-1.359,2.197-2.391,2.854-2.234.984-3.609.984c-1.344,0-2.535-.33-3.574-.99s-1.846-1.602-2.42-2.824-.869-2.639-.885-4.248v-1.23c0-1.641.285-3.09.855-4.348s1.377-2.221,2.42-2.889,2.236-1.002,3.58-1.002c1.367,0,2.572.33,3.615.99s1.846,1.617,2.408,2.871.844,2.713.844,4.377v1.078Zm-2.238-1.102c0-2.023-.406-3.576-1.219-4.658s-1.949-1.623-3.41-1.623c-1.422,0-2.541.541-3.357,1.623s-1.236,2.584-1.26,4.506v1.254c0,1.961.412,3.502,1.236,4.623s1.959,1.682,3.404,1.682c1.453,0,2.578-.529,3.375-1.588s1.207-2.576,1.23-4.553v-1.266Z"/><path d="m452.812,581.178l.07,1.594c.969-1.219,2.234-1.828,3.797-1.828,2.68,0,4.031,1.512,4.055,4.535v8.379h-2.168v-8.391c-.008-.914-.217-1.59-.627-2.027s-1.049-.656-1.916-.656c-.703,0-1.32.188-1.852.562s-.945.867-1.242,1.477v9.035h-2.168v-12.68h2.051Z"/><path d="m469.265,594.092c-1.719,0-3.117-.564-4.195-1.693s-1.617-2.639-1.617-4.529v-.398c0-1.258.24-2.381.721-3.369s1.152-1.762,2.016-2.32,1.799-.838,2.807-.838c1.648,0,2.93.543,3.844,1.629s1.371,2.641,1.371,4.664v.902h-8.59c.031,1.25.396,2.26,1.096,3.029s1.588,1.154,2.666,1.154c.766,0,1.414-.156,1.945-.469s.996-.727,1.395-1.242l1.324,1.031c-1.062,1.633-2.656,2.449-4.781,2.449Zm-.27-11.367c-.875,0-1.609.318-2.203.955s-.961,1.529-1.102,2.678h6.352v-.164c-.062-1.102-.359-1.955-.891-2.561s-1.25-.908-2.156-.908Z"/><path d="m486.843,590.916l3.141-9.738h2.215l-4.547,12.68h-1.652l-4.594-12.68h2.215l3.223,9.738Z"/><path d="m494.296,577.815c0-.352.107-.648.322-.891s.533-.363.955-.363.742.121.961.363.328.539.328.891-.109.645-.328.879-.539.352-.961.352-.74-.117-.955-.352-.322-.527-.322-.879Zm2.344,16.043h-2.168v-12.68h2.168v12.68Z"/><path d="m510.843,587.658c0,1.938-.445,3.494-1.336,4.67s-2.086,1.764-3.586,1.764c-1.602,0-2.84-.566-3.715-1.699l-.105,1.465h-1.992v-18h2.168v6.715c.875-1.086,2.082-1.629,3.621-1.629s2.748.582,3.627,1.746,1.318,2.758,1.318,4.781v.188Zm-2.168-.246c0-1.477-.285-2.617-.855-3.422s-1.391-1.207-2.461-1.207c-1.43,0-2.457.664-3.082,1.992v5.484c.664,1.328,1.699,1.992,3.105,1.992,1.039,0,1.848-.402,2.426-1.207s.867-2.016.867-3.633Z"/><path d="m519.702,583.123c-.328-.055-.684-.082-1.066-.082-1.422,0-2.387.605-2.895,1.816v9h-2.168v-12.68h2.109l.035,1.465c.711-1.133,1.719-1.699,3.023-1.699.422,0,.742.055.961.164v2.016Z"/><path d="m529.054,593.858c-.125-.25-.227-.695-.305-1.336-1.008,1.047-2.211,1.57-3.609,1.57-1.25,0-2.275-.354-3.076-1.061s-1.201-1.604-1.201-2.689c0-1.32.502-2.346,1.506-3.076s2.416-1.096,4.236-1.096h2.109v-.996c0-.758-.227-1.361-.68-1.811s-1.121-.674-2.004-.674c-.773,0-1.422.195-1.945.586s-.785.863-.785,1.418h-2.18c0-.633.225-1.244.674-1.834s1.059-1.057,1.828-1.4,1.615-.516,2.537-.516c1.461,0,2.605.365,3.434,1.096s1.258,1.736,1.289,3.018v5.836c0,1.164.148,2.09.445,2.777v.188h-2.273Zm-3.598-1.652c.68,0,1.324-.176,1.934-.527s1.051-.809,1.324-1.371v-2.602h-1.699c-2.656,0-3.984.777-3.984,2.332,0,.68.227,1.211.68,1.594s1.035.574,1.746.574Z"/><path d="m537.222,578.108v3.07h2.367v1.676h-2.367v7.873c0,.509.105.89.316,1.145.211.254.57.381,1.078.381.25,0,.594-.047,1.031-.141v1.748c-.57.154-1.125.232-1.664.232-.969,0-1.699-.293-2.191-.879s-.738-1.418-.738-2.496v-7.863h-2.309v-1.676h2.309v-3.07h2.168Z"/><path d="m542.132,577.815c0-.352.107-.648.322-.891s.533-.363.955-.363.742.121.961.363.328.539.328.891-.109.645-.328.879-.539.352-.961.352-.74-.117-.955-.352-.322-.527-.322-.879Zm2.344,16.043h-2.168v-12.68h2.168v12.68Z"/><path d="m547.37,587.401c0-1.242.244-2.359.732-3.352s1.168-1.758,2.039-2.297,1.865-.809,2.982-.809c1.727,0,3.123.598,4.189,1.793s1.6,2.785,1.6,4.77v.152c0,1.234-.236,2.342-.709,3.322s-1.148,1.744-2.027,2.291-1.889.82-3.029.82c-1.719,0-3.111-.598-4.178-1.793s-1.6-2.777-1.6-4.746v-.152Zm2.18.258c0,1.406.326,2.535.979,3.387s1.525,1.277,2.619,1.277c1.102,0,1.977-.432,2.625-1.295s.973-2.072.973-3.627c0-1.391-.33-2.518-.99-3.381s-1.537-1.295-2.631-1.295c-1.07,0-1.934.426-2.59,1.277s-.984,2.07-.984,3.656Z"/><path d="m563.683,581.178l.07,1.594c.969-1.219,2.234-1.828,3.797-1.828,2.68,0,4.031,1.512,4.055,4.535v8.379h-2.168v-8.391c-.008-.914-.217-1.59-.627-2.027s-1.049-.656-1.916-.656c-.703,0-1.32.188-1.852.562s-.945.867-1.242,1.477v9.035h-2.168v-12.68h2.051Z"/><path d="m580.242,587.401c0-1.242.244-2.359.732-3.352s1.168-1.758,2.039-2.297,1.865-.809,2.982-.809c1.727,0,3.123.598,4.189,1.793s1.6,2.785,1.6,4.77v.152c0,1.234-.236,2.342-.709,3.322s-1.148,1.744-2.027,2.291-1.889.82-3.029.82c-1.719,0-3.111-.598-4.178-1.793s-1.6-2.777-1.6-4.746v-.152Zm2.18.258c0,1.406.326,2.535.979,3.387s1.525,1.277,2.619,1.277c1.102,0,1.977-.432,2.625-1.295s.973-2.072.973-3.627c0-1.391-.33-2.518-.99-3.381s-1.537-1.295-2.631-1.295c-1.07,0-1.934.426-2.59,1.277s-.984,2.07-.984,3.656Z"/><path d="m600.632,583.123c-.328-.055-.684-.082-1.066-.082-1.422,0-2.387.605-2.895,1.816v9h-2.168v-12.68h2.109l.035,1.465c.711-1.133,1.719-1.699,3.023-1.699.422,0,.742.055.961.164v2.016Z"/><path d="m607.992,587.401c0-1.242.244-2.359.732-3.352s1.168-1.758,2.039-2.297,1.865-.809,2.982-.809c1.727,0,3.123.598,4.189,1.793s1.6,2.785,1.6,4.77v.152c0,1.234-.236,2.342-.709,3.322s-1.148,1.744-2.027,2.291-1.889.82-3.029.82c-1.719,0-3.111-.598-4.178-1.793s-1.6-2.777-1.6-4.746v-.152Zm2.18.258c0,1.406.326,2.535.979,3.387s1.525,1.277,2.619,1.277c1.102,0,1.977-.432,2.625-1.295s.973-2.072.973-3.627c0-1.391-.33-2.518-.99-3.381s-1.537-1.295-2.631-1.295c-1.07,0-1.934.426-2.59,1.277s-.984,2.07-.984,3.656Z"/><path d="m624.304,581.178l.07,1.594c.969-1.219,2.234-1.828,3.797-1.828,2.68,0,4.031,1.512,4.055,4.535v8.379h-2.168v-8.391c-.008-.914-.217-1.59-.627-2.027s-1.049-.656-1.916-.656c-.703,0-1.32.188-1.852.562s-.945.867-1.242,1.477v9.035h-2.168v-12.68h2.051Z"/><path d="m640.757,594.092c-1.719,0-3.117-.564-4.195-1.693s-1.617-2.639-1.617-4.529v-.398c0-1.258.24-2.381.721-3.369s1.152-1.762,2.016-2.32,1.799-.838,2.807-.838c1.648,0,2.93.543,3.844,1.629s1.371,2.641,1.371,4.664v.902h-8.59c.031,1.25.396,2.26,1.096,3.029s1.588,1.154,2.666,1.154c.766,0,1.414-.156,1.945-.469s.996-.727,1.395-1.242l1.324,1.031c-1.062,1.633-2.656,2.449-4.781,2.449Zm-.27-11.367c-.875,0-1.609.318-2.203.955s-.961,1.529-1.102,2.678h6.352v-.164c-.062-1.102-.359-1.955-.891-2.561s-1.25-.908-2.156-.908Z"/><path d="m659.238,592.323c.773,0,1.449-.234,2.027-.703s.898-1.055.961-1.758h2.051c-.039.727-.289,1.418-.75,2.074s-1.076,1.18-1.846,1.57-1.584.586-2.443.586c-1.727,0-3.1-.576-4.119-1.729s-1.529-2.729-1.529-4.729v-.363c0-1.234.227-2.332.68-3.293s1.104-1.707,1.951-2.238,1.85-.797,3.006-.797c1.422,0,2.604.426,3.545,1.277s1.443,1.957,1.506,3.316h-2.051c-.062-.82-.373-1.494-.932-2.021s-1.248-.791-2.068-.791c-1.102,0-1.955.396-2.561,1.189s-.908,1.939-.908,3.439v.41c0,1.461.301,2.586.902,3.375s1.461,1.184,2.578,1.184Z"/><path d="m670.863,590.682l2.953-9.504h2.32l-5.098,14.637c-.789,2.109-2.043,3.164-3.762,3.164l-.41-.035-.809-.152v-1.758l.586.047c.734,0,1.307-.148,1.717-.445s.748-.84,1.014-1.629l.48-1.289-4.523-12.539h2.367l3.164,9.504Z"/><path d="m683.003,592.323c.773,0,1.449-.234,2.027-.703s.898-1.055.961-1.758h2.051c-.039.727-.289,1.418-.75,2.074s-1.076,1.18-1.846,1.57-1.584.586-2.443.586c-1.727,0-3.1-.576-4.119-1.729s-1.529-2.729-1.529-4.729v-.363c0-1.234.227-2.332.68-3.293s1.104-1.707,1.951-2.238,1.85-.797,3.006-.797c1.422,0,2.604.426,3.545,1.277s1.443,1.957,1.506,3.316h-2.051c-.062-.82-.373-1.494-.932-2.021s-1.248-.791-2.068-.791c-1.102,0-1.955.396-2.561,1.189s-.908,1.939-.908,3.439v.41c0,1.461.301,2.586.902,3.375s1.461,1.184,2.578,1.184Z"/><path d="m692.835,593.858h-2.168v-18h2.168v18Z"/><path d="m701.566,594.092c-1.719,0-3.117-.564-4.195-1.693s-1.617-2.639-1.617-4.529v-.398c0-1.258.24-2.381.721-3.369s1.152-1.762,2.016-2.32,1.799-.838,2.807-.838c1.648,0,2.93.543,3.844,1.629s1.371,2.641,1.371,4.664v.902h-8.59c.031,1.25.396,2.26,1.096,3.029s1.588,1.154,2.666,1.154c.766,0,1.414-.156,1.945-.469s.996-.727,1.395-1.242l1.324,1.031c-1.062,1.633-2.656,2.449-4.781,2.449Zm-.27-11.367c-.875,0-1.609.318-2.203.955s-.961,1.529-1.102,2.678h6.352v-.164c-.062-1.102-.359-1.955-.891-2.561s-1.25-.908-2.156-.908Z"/><path d="m459.285,36.492h-7.191l-1.367,4.102h-4.361l7.41-19.906h3.801l7.451,19.906h-4.361l-1.381-4.102Zm-6.084-3.322h4.977l-2.502-7.451-2.475,7.451Z"/><path d="m484.182,35.371c0-.774-.273-1.369-.82-1.784s-1.531-.853-2.953-1.312-2.548-.914-3.377-1.36c-2.261-1.222-3.391-2.866-3.391-4.936,0-1.075.303-2.035.909-2.878s1.477-1.502,2.611-1.976,2.408-.711,3.821-.711c1.422,0,2.688.258,3.801.772s1.976,1.242,2.591,2.181.923,2.005.923,3.199h-4.102c0-.911-.287-1.62-.861-2.126s-1.381-.759-2.42-.759c-1.003,0-1.782.212-2.338.636s-.834.982-.834,1.675c0,.647.326,1.189.978,1.627s1.611.848,2.878,1.23c2.333.702,4.033,1.572,5.1,2.611s1.6,2.333,1.6,3.883c0,1.723-.651,3.074-1.955,4.054s-3.058,1.47-5.264,1.47c-1.531,0-2.926-.28-4.184-.841s-2.217-1.328-2.878-2.304-.991-2.105-.991-3.391h4.115c0,2.196,1.312,3.295,3.938,3.295.976,0,1.736-.198,2.283-.595s.82-.95.82-1.661Z"/><path d="m490.785,21.973c0-.593.198-1.08.595-1.463s.937-.574,1.62-.574c.675,0,1.212.191,1.613.574s.602.87.602,1.463c0,.602-.203,1.094-.608,1.477s-.941.574-1.606.574-1.201-.191-1.606-.574-.608-.875-.608-1.477Zm4.197,18.621h-3.965v-14.793h3.965v14.793Z"/><path d="m501.942,25.801l.123,1.654c1.048-1.285,2.466-1.928,4.252-1.928,1.905,0,3.213.752,3.924,2.256,1.039-1.504,2.521-2.256,4.443-2.256,1.604,0,2.798.467,3.582,1.401s1.176,2.34,1.176,4.218v9.447h-3.965v-9.434c0-.839-.164-1.451-.492-1.839s-.907-.581-1.736-.581c-1.185,0-2.005.565-2.461,1.695l.014,10.158h-3.951v-9.42c0-.856-.169-1.477-.506-1.859s-.911-.574-1.723-.574c-1.121,0-1.933.465-2.434,1.395v10.459h-3.951v-14.793h3.705Z"/><path d="m535.793,33.334c0,2.278-.518,4.104-1.552,5.476s-2.432,2.058-4.19,2.058c-1.495,0-2.702-.52-3.623-1.559v6.973h-3.951v-20.48h3.664l.137,1.449c.957-1.148,2.206-1.723,3.746-1.723,1.823,0,3.24.675,4.252,2.023s1.518,3.208,1.518,5.578v.205Zm-3.951-.287c0-1.376-.244-2.438-.731-3.186s-1.196-1.121-2.126-1.121c-1.239,0-2.092.474-2.557,1.422v6.057c.483.976,1.345,1.463,2.584,1.463,1.887,0,2.83-1.545,2.83-4.635Z"/><path d="m542.41,40.594h-3.965v-21h3.965v21Z"/><path d="m552.473,40.867c-2.169,0-3.936-.665-5.298-1.996s-2.044-3.104-2.044-5.318v-.383c0-1.485.287-2.814.861-3.985s1.388-2.073,2.44-2.707,2.254-.95,3.603-.95c2.023,0,3.616.638,4.778,1.914s1.743,3.085,1.743,5.428v1.613h-9.42c.128.966.513,1.741,1.155,2.324s1.456.875,2.44.875c1.522,0,2.712-.552,3.568-1.654l1.941,2.174c-.593.839-1.395,1.492-2.406,1.962s-2.133.704-3.363.704Zm-.451-12.154c-.784,0-1.42.266-1.907.797s-.8,1.291-.937,2.279h5.496v-.316c-.019-.878-.255-1.559-.711-2.039s-1.103-.721-1.941-.721Z"/><path d="m572.133,33.58v7.014h-4.102v-19.906h7.766c1.495,0,2.81.273,3.944.82s2.008,1.324,2.618,2.331.916,2.153.916,3.438c0,1.95-.668,3.488-2.003,4.614s-3.184,1.688-5.544,1.688h-3.596Zm0-3.322h3.664c1.085,0,1.912-.255,2.481-.766s.854-1.239.854-2.188c0-.976-.287-1.764-.861-2.365s-1.367-.911-2.379-.93h-3.76v6.248Z"/><path d="m592.463,40.867c-2.169,0-3.936-.665-5.298-1.996s-2.044-3.104-2.044-5.318v-.383c0-1.485.287-2.814.861-3.985s1.388-2.073,2.44-2.707,2.254-.95,3.603-.95c2.023,0,3.616.638,4.778,1.914s1.743,3.085,1.743,5.428v1.613h-9.42c.128.966.513,1.741,1.155,2.324s1.456.875,2.44.875c1.522,0,2.712-.552,3.568-1.654l1.941,2.174c-.593.839-1.395,1.492-2.406,1.962s-2.133.704-3.363.704Zm-.451-12.154c-.784,0-1.42.266-1.907.797s-.8,1.291-.937,2.279h5.496v-.316c-.019-.878-.255-1.559-.711-2.039s-1.103-.721-1.941-.721Z"/><path d="m604.426,25.801l.123,1.709c1.058-1.321,2.475-1.982,4.252-1.982,1.567,0,2.734.46,3.5,1.381s1.157,2.297,1.176,4.129v9.557h-3.951v-9.461c0-.839-.183-1.447-.547-1.825s-.971-.567-1.818-.567c-1.112,0-1.946.474-2.502,1.422v10.432h-3.951v-14.793h3.719Z"/><path d="m615.856,33.088c0-2.306.518-4.143,1.552-5.51s2.449-2.051,4.245-2.051c1.44,0,2.63.538,3.568,1.613v-7.547h3.965v21h-3.568l-.191-1.572c-.984,1.23-2.251,1.846-3.801,1.846-1.741,0-3.138-.686-4.19-2.058s-1.579-3.279-1.579-5.722Zm3.951.294c0,1.388.241,2.451.725,3.19.483.74,1.185,1.109,2.105,1.109,1.222,0,2.083-.516,2.584-1.547v-5.848c-.492-1.031-1.345-1.547-2.557-1.547-1.905,0-2.857,1.547-2.857,4.642Z"/><path d="m641.108,39.09c-.976,1.185-2.324,1.777-4.047,1.777-1.586,0-2.796-.456-3.63-1.367s-1.26-2.247-1.278-4.006v-9.693h3.951v9.567c0,1.543.702,2.313,2.105,2.313,1.34,0,2.261-.465,2.762-1.396v-10.484h3.965v14.793h-3.719l-.109-1.504Z"/><path d="m652.086,40.594h-3.965v-21h3.965v21Z"/><path d="m664.2,39.09c-.976,1.185-2.324,1.777-4.047,1.777-1.586,0-2.796-.456-3.63-1.367s-1.26-2.247-1.278-4.006v-9.693h3.951v9.567c0,1.543.702,2.313,2.105,2.313,1.34,0,2.261-.465,2.762-1.396v-10.484h3.965v14.793h-3.719l-.109-1.504Z"/><path d="m674.713,25.801l.123,1.654c1.048-1.285,2.466-1.928,4.252-1.928,1.905,0,3.213.752,3.924,2.256,1.039-1.504,2.521-2.256,4.443-2.256,1.604,0,2.798.467,3.582,1.401s1.176,2.34,1.176,4.218v9.447h-3.965v-9.434c0-.839-.164-1.451-.492-1.839s-.907-.581-1.736-.581c-1.185,0-2.005.565-2.461,1.695l.014,10.158h-3.951v-9.42c0-.856-.169-1.477-.506-1.859s-.911-.574-1.723-.574c-1.121,0-1.933.465-2.434,1.395v10.459h-3.951v-14.793h3.705Z"/><circle cx="568.308" cy="494.115" r="26.07" fill="#f2e9f4"/><circle cx="568.308" cy="494.115" r="26.07" fill="none" stroke="#5c539c" stroke-dasharray="0 0 5.849 5.849" stroke-miterlimit="10" stroke-width="2"/><line x1="558.014" y1="394.028" x2="342.625" y2="394.028" fill="none" stroke="#d12d32" stroke-miterlimit="10" stroke-width="2"/><polygon points="555.68 386.049 569.497 394.028 555.68 402.006 555.68 386.049" fill="#d12d32"/><polygon points="344.96 386.049 331.143 394.028 344.96 402.006 344.96 386.049" fill="#d12d32"/><line x1="796.376" y1="394.028" x2="580.987" y2="394.028" fill="none" stroke="#d12d32" stroke-miterlimit="10" stroke-width="2"/><polygon points="794.042 386.049 807.858 394.028 794.042 402.006 794.042 386.049" fill="#d12d32"/><polygon points="583.321 386.049 569.505 394.028 583.321 402.006 583.321 386.049" fill="#d12d32"/><polyline points="308.392 386.901 570.061 85.383 831.729 386.901" fill="none" stroke="#000" stroke-linecap="round" stroke-linejoin="round" stroke-width="3"/><line x1="569.755" y1="86.232" x2="569.755" y2="89.232" fill="none" stroke="#000" stroke-linecap="round" stroke-miterlimit="10" stroke-width="2"/><line x1="569.755" y1="95.156" x2="569.755" y2="459.454" fill="none" stroke="#000" stroke-dasharray="0 0 5.924 5.924" stroke-linecap="round" stroke-miterlimit="10" stroke-width="2"/><line x1="569.755" y1="462.416" x2="569.755" y2="465.416" fill="none" stroke="#000" stroke-linecap="round" stroke-miterlimit="10" stroke-width="2"/><path d="m799.478,414.099c-64.68,45.132-143.349,71.601-228.199,71.601-99.768,0-190.989-36.594-260.973-97.092" fill="none" stroke="#5c539c" stroke-linecap="round" stroke-miterlimit="10" stroke-width="2"/><polygon points="792.917 408.906 808.799 407.394 802.169 421.906 792.917 408.906" fill="#5c539c"/><path d="m847.368,401.086c-73.692,64.714-170.308,103.952-276.089,103.952-90.686,0-174.636-28.838-243.181-77.844" fill="none" stroke="#5c539c" stroke-linecap="round" stroke-miterlimit="10" stroke-width="2"/><polygon points="334.717 422.057 318.85 420.389 325.337 434.965 334.717 422.057" fill="#5c539c"/><circle cx="304.335" cy="393.94" r="26.07" fill="#5c539c"/><circle cx="835.665" cy="393.94" r="26.07" fill="#f2e9f4"/><circle cx="835.665" cy="393.94" r="26.07" transform="translate(260.267 1116.742) rotate(-76.717)" fill="none" stroke="#5c539c" stroke-dasharray="0 0 5.849 5.849" stroke-miterlimit="10" stroke-width="2"/></svg>