<?xml version="1.0" encoding="UTF-8"?>
<svg id="a" data-name="01.05.201" xmlns="http://www.w3.org/2000/svg" width="1140" height="523" viewBox="0 0 1140 523">
  <path d="M185.49,37.77C90.81,68.46,4.69,158.54,6.02,266.19c1.22,99.22,76.76,183.27,162.75,215.86,85.99,32.59,180.21,23.83,270.23,8.98,70.42-11.61,141.49-19.72,212.76-20.15,119.37-.71,248.69,66.9,364.07,8.62,106.95-54.03,145.25-205.1,87-314.76-54.68-102.92-148.78-144.44-257.48-154.82-64.22-6.13-145.72-7.46-208.5,6.28-72.65,15.89-146.29,23.14-220.22,16.03-77.12-7.42-155.45-19-231.13,5.53Z" fill="#f4f4e9" stroke-width="0"/>
  <path d="M771.26,427.05c-4.07-77.2-43.69-128.18-43.69-128.18,0,0-39.62,50.97-43.69,128.18" fill="none" stroke="#0077a2" stroke-linecap="round" stroke-linejoin="round" stroke-width="2.5"/>
  <path d="M771.26,165.62c-4.07,80.26-43.69,133.25-43.69,133.25,0,0-39.62-52.99-43.69-133.25" fill="none" stroke="#0077a2" stroke-linecap="round" stroke-linejoin="round" stroke-width="2.5"/>
  <g>
    <path d="M426.14,56.94h-8v22.2h-3.26v-22.2h-7.98v-2.68h19.24v2.68Z" fill="#000" stroke-width="0"/>
    <path d="M439.13,77.31c-1.23,1.45-3.04,2.17-5.42,2.17-1.97,0-3.47-.57-4.5-1.72-1.03-1.14-1.55-2.84-1.56-5.08v-12.03h3.16v11.95c0,2.8,1.14,4.2,3.42,4.2,2.42,0,4.02-.9,4.82-2.7v-13.45h3.16v18.49h-3.01l-.07-1.83Z" fill="#000" stroke-width="0"/>
    <path d="M450,60.64l.1,2.32c1.41-1.78,3.26-2.67,5.54-2.67,3.91,0,5.88,2.2,5.91,6.61v12.22h-3.16v-12.24c-.01-1.33-.32-2.32-.91-2.96-.6-.64-1.53-.96-2.79-.96-1.03,0-1.93.27-2.7.82-.77.55-1.38,1.26-1.81,2.15v13.18h-3.16v-18.49h2.99Z" fill="#000" stroke-width="0"/>
    <path d="M466.33,55.74c0-.51.16-.95.47-1.3.31-.35.78-.53,1.39-.53s1.08.18,1.4.53c.32.35.48.79.48,1.3s-.16.94-.48,1.28c-.32.34-.79.51-1.4.51s-1.08-.17-1.39-.51c-.31-.34-.47-.77-.47-1.28ZM469.75,79.14h-3.16v-18.49h3.16v18.49Z" fill="#000" stroke-width="0"/>
    <path d="M477.8,60.64l.1,2.32c1.41-1.78,3.26-2.67,5.54-2.67,3.91,0,5.88,2.2,5.91,6.61v12.22h-3.16v-12.24c-.01-1.33-.32-2.32-.91-2.96-.6-.64-1.53-.96-2.79-.96-1.03,0-1.93.27-2.7.82-.77.55-1.38,1.26-1.81,2.15v13.18h-3.16v-18.49h2.99Z" fill="#000" stroke-width="0"/>
    <path d="M493.37,69.74c0-2.88.67-5.18,2-6.88,1.33-1.7,3.1-2.55,5.3-2.55s4.02.8,5.28,2.39l.15-2.05h2.89v18.05c0,2.39-.71,4.28-2.13,5.66-1.42,1.38-3.32,2.07-5.72,2.07-1.33,0-2.64-.29-3.91-.85-1.28-.57-2.25-1.35-2.92-2.34l1.64-1.9c1.36,1.67,3.01,2.51,4.97,2.51,1.54,0,2.74-.43,3.6-1.3.86-.87,1.29-2.08,1.29-3.66v-1.59c-1.26,1.46-2.99,2.19-5.18,2.19s-3.92-.87-5.26-2.61-2.01-4.12-2.01-7.13ZM496.55,70.1c0,2.08.43,3.72,1.28,4.91.85,1.19,2.05,1.79,3.59,1.79,1.99,0,3.46-.91,4.39-2.72v-8.44c-.97-1.77-2.42-2.65-4.36-2.65-1.54,0-2.74.6-3.61,1.79-.87,1.2-1.3,2.97-1.3,5.31Z" fill="#000" stroke-width="0"/>
    <path d="M523.98,79.14v-16.05h-2.92v-2.44h2.92v-1.9c0-1.98.53-3.51,1.59-4.6,1.06-1.08,2.56-1.62,4.49-1.62.73,0,1.45.1,2.17.29l-.17,2.55c-.54-.1-1.11-.15-1.71-.15-1.03,0-1.82.3-2.38.9-.56.6-.84,1.46-.84,2.58v1.95h3.95v2.44h-3.95v16.05h-3.16Z" fill="#000" stroke-width="0"/>
    <path d="M533.73,69.72c0-1.81.36-3.44,1.07-4.89.71-1.45,1.7-2.56,2.97-3.35s2.72-1.18,4.35-1.18c2.52,0,4.55.87,6.11,2.61,1.56,1.74,2.33,4.06,2.33,6.96v.22c0,1.8-.34,3.42-1.03,4.85s-1.67,2.54-2.96,3.34c-1.28.8-2.75,1.2-4.42,1.2-2.51,0-4.54-.87-6.09-2.61-1.55-1.74-2.33-4.05-2.33-6.92v-.22ZM536.91,70.1c0,2.05.47,3.7,1.43,4.94.95,1.24,2.22,1.86,3.82,1.86s2.88-.63,3.83-1.89c.95-1.26,1.42-3.02,1.42-5.29,0-2.03-.48-3.67-1.44-4.93-.96-1.26-2.24-1.89-3.84-1.89s-2.82.62-3.78,1.86c-.96,1.24-1.44,3.02-1.44,5.33Z" fill="#000" stroke-width="0"/>
    <path d="M563.47,63.48c-.48-.08-1-.12-1.55-.12-2.07,0-3.48.88-4.22,2.65v13.12h-3.16v-18.49h3.08l.05,2.14c1.04-1.65,2.51-2.48,4.41-2.48.62,0,1.08.08,1.4.24v2.94Z" fill="#000" stroke-width="0"/>
    <path d="M571.54,70.57l-1.98,2.07v6.49h-3.16v-26.25h3.16v15.88l1.69-2.03,5.76-6.08h3.84l-7.19,7.72,8.03,10.77h-3.71l-6.44-8.56Z" fill="#000" stroke-width="0"/>
  </g>
  <g>
    <path d="M820.57,313.37h-3.3l-12.53-19.17v19.17h-3.3v-24.88h3.3l12.56,19.26v-19.26h3.26v24.88Z" fill="#000" stroke-width="0"/>
    <path d="M825.06,303.95c0-1.81.36-3.44,1.07-4.89.71-1.45,1.7-2.56,2.97-3.35s2.72-1.18,4.35-1.18c2.52,0,4.55.87,6.11,2.61,1.56,1.74,2.33,4.06,2.33,6.96v.22c0,1.8-.34,3.42-1.03,4.85s-1.67,2.54-2.96,3.34c-1.28.8-2.75,1.2-4.42,1.2-2.51,0-4.54-.87-6.09-2.62-1.55-1.74-2.33-4.05-2.33-6.92v-.22ZM828.24,304.33c0,2.05.47,3.7,1.43,4.94.95,1.24,2.22,1.86,3.82,1.86s2.88-.63,3.83-1.89c.95-1.26,1.42-3.02,1.42-5.29,0-2.03-.48-3.67-1.44-4.93-.96-1.26-2.24-1.89-3.84-1.89s-2.82.62-3.78,1.86c-.96,1.24-1.44,3.02-1.44,5.33Z" fill="#000" stroke-width="0"/>
    <path d="M845.09,303.97c0-2.84.67-5.12,2.02-6.84,1.34-1.73,3.1-2.59,5.28-2.59s3.88.74,5.14,2.22v-9.64h3.16v26.25h-2.91l-.15-1.98c-1.27,1.55-3.03,2.32-5.28,2.32s-3.89-.88-5.24-2.63c-1.35-1.75-2.03-4.04-2.03-6.87v-.24ZM848.25,304.33c0,2.1.43,3.74,1.3,4.92.87,1.19,2.06,1.78,3.59,1.78,2,0,3.47-.9,4.39-2.7v-8.49c-.95-1.74-2.4-2.61-4.36-2.61-1.55,0-2.76.6-3.62,1.79-.87,1.2-1.3,2.97-1.3,5.31Z" fill="#000" stroke-width="0"/>
    <path d="M873.27,313.71c-2.51,0-4.55-.82-6.12-2.47-1.57-1.65-2.36-3.85-2.36-6.6v-.58c0-1.83.35-3.47,1.05-4.91.7-1.44,1.68-2.57,2.94-3.38,1.26-.81,2.62-1.22,4.09-1.22,2.4,0,4.27.79,5.61,2.38,1.33,1.58,2,3.85,2,6.8v1.32h-12.53c.04,1.82.58,3.3,1.6,4.42s2.32,1.68,3.89,1.68c1.12,0,2.06-.23,2.84-.68.77-.46,1.45-1.06,2.03-1.81l1.93,1.5c-1.55,2.38-3.87,3.57-6.97,3.57ZM872.88,297.13c-1.28,0-2.35.46-3.21,1.39-.87.93-1.4,2.23-1.61,3.91h9.26v-.24c-.09-1.61-.52-2.85-1.3-3.73-.78-.88-1.82-1.32-3.14-1.32Z" fill="#000" stroke-width="0"/>
    <path d="M892.69,303.27c0-2.57.34-5.05,1.03-7.42.69-2.37,1.72-4.52,3.08-6.46,1.37-1.94,2.79-3.3,4.25-4.1l.65,2.08c-1.66,1.28-3.03,3.22-4.09,5.84-1.07,2.62-1.65,5.55-1.75,8.8l-.02,1.45c0,4.4.8,8.21,2.41,11.45.97,1.94,2.12,3.45,3.45,4.55l-.65,1.93c-1.51-.84-2.96-2.26-4.34-4.24-2.69-3.87-4.03-8.5-4.03-13.89Z" fill="#000" stroke-width="0"/>
    <path d="M910.48,313.37h-8.91l.23-1.16c1.01,0,1.78-.11,2.33-.33.54-.22.96-.66,1.24-1.34.28-.67.56-1.65.81-2.94l3.6-17.48,2.71,2.75h-1.39l-3.02,14.73c-.26,1.29-.36,2.27-.31,2.93.05.66.32,1.1.79,1.34.48.23,1.19.35,2.15.35l-.23,1.16ZM923.96,313.68h-1.28l-11.7-21.35-.89-.7c-.39-.7-.74-1.23-1.05-1.61s-.67-.63-1.07-.76c-.4-.13-.92-.19-1.57-.19l.23-1.16h6.08l10.46,19.07h.19l2.67-12.9c.26-1.32.38-2.34.35-3.06-.03-.72-.27-1.23-.74-1.51-.46-.28-1.24-.43-2.33-.43l.23-1.16h9.14l-.23,1.16c-.96,0-1.72.17-2.31.52-.58.35-1.04.9-1.38,1.67-.34.76-.63,1.76-.89,3l-3.95,19.41Z" fill="#000" stroke-width="0"/>
    <path d="M939.73,303.44c0,2.54-.33,4.98-1,7.31-.67,2.33-1.69,4.48-3.06,6.45-1.37,1.97-2.81,3.37-4.31,4.2l-.67-1.93c1.75-1.34,3.16-3.43,4.23-6.26s1.61-5.97,1.63-9.43v-.55c0-2.39-.25-4.62-.75-6.67-.5-2.06-1.2-3.9-2.09-5.53-.89-1.63-1.9-2.9-3.02-3.81l.67-1.93c1.5.83,2.94,2.22,4.3,4.17,1.36,1.95,2.38,4.1,3.06,6.44.68,2.35,1.02,4.86,1.02,7.54Z" fill="#000" stroke-width="0"/>
  </g>
  <g>
    <path d="M815.19,173.11h-10.43l-2.34,6.51h-3.38l9.5-24.88h2.87l9.52,24.88h-3.37l-2.38-6.51ZM805.75,170.42h8.46l-4.24-11.64-4.22,11.64Z" fill="#000" stroke-width="0"/>
    <path d="M826.77,161.13l.1,2.32c1.41-1.78,3.26-2.67,5.54-2.67,3.91,0,5.88,2.2,5.91,6.61v12.22h-3.16v-12.24c-.01-1.33-.32-2.32-.91-2.96-.6-.64-1.53-.96-2.79-.96-1.03,0-1.93.27-2.7.82-.77.55-1.38,1.26-1.81,2.15v13.18h-3.16v-18.49h2.99Z" fill="#000" stroke-width="0"/>
    <path d="M847.38,156.65v4.48h3.45v2.44h-3.45v11.48c0,.74.15,1.3.46,1.67s.83.56,1.57.56c.36,0,.87-.07,1.5-.21v2.55c-.83.23-1.64.34-2.43.34-1.41,0-2.48-.43-3.2-1.28-.72-.85-1.08-2.07-1.08-3.64v-11.47h-3.37v-2.44h3.37v-4.48h3.16Z" fill="#000" stroke-width="0"/>
    <path d="M854.54,156.22c0-.51.16-.95.47-1.3.31-.35.78-.53,1.39-.53s1.08.18,1.4.53c.32.35.48.79.48,1.3s-.16.94-.48,1.28c-.32.34-.79.51-1.4.51s-1.08-.17-1.39-.51c-.31-.34-.47-.77-.47-1.28ZM857.96,179.62h-3.16v-18.49h3.16v18.49Z" fill="#000" stroke-width="0"/>
    <path d="M866.01,161.13l.1,2.32c1.41-1.78,3.26-2.67,5.54-2.67,3.91,0,5.88,2.2,5.91,6.61v12.22h-3.16v-12.24c-.01-1.33-.32-2.32-.91-2.96-.6-.64-1.53-.96-2.79-.96-1.03,0-1.93.27-2.7.82-.77.55-1.38,1.26-1.81,2.15v13.18h-3.16v-18.49h2.99Z" fill="#000" stroke-width="0"/>
    <path d="M881.49,170.2c0-1.81.36-3.44,1.07-4.89.71-1.45,1.7-2.56,2.97-3.35s2.72-1.18,4.35-1.18c2.52,0,4.55.87,6.11,2.61,1.56,1.74,2.33,4.06,2.33,6.96v.22c0,1.8-.34,3.42-1.03,4.85s-1.67,2.54-2.96,3.34c-1.28.8-2.75,1.2-4.42,1.2-2.51,0-4.54-.87-6.09-2.61-1.55-1.74-2.33-4.05-2.33-6.92v-.22ZM884.67,170.58c0,2.05.47,3.7,1.43,4.94.95,1.24,2.22,1.86,3.82,1.86s2.88-.63,3.83-1.89c.95-1.26,1.42-3.02,1.42-5.29,0-2.03-.48-3.67-1.44-4.93-.96-1.26-2.24-1.89-3.84-1.89s-2.82.62-3.78,1.86c-.96,1.24-1.44,3.02-1.44,5.33Z" fill="#000" stroke-width="0"/>
    <path d="M901.52,170.22c0-2.84.67-5.12,2.02-6.84,1.34-1.73,3.1-2.59,5.28-2.59s3.88.74,5.14,2.22v-9.64h3.16v26.25h-2.91l-.15-1.98c-1.27,1.55-3.03,2.32-5.28,2.32s-3.89-.88-5.24-2.63c-1.35-1.75-2.03-4.04-2.03-6.87v-.24ZM904.68,170.58c0,2.1.43,3.74,1.3,4.92.87,1.19,2.06,1.78,3.59,1.78,2,0,3.47-.9,4.39-2.7v-8.49c-.95-1.74-2.4-2.61-4.36-2.61-1.55,0-2.76.6-3.62,1.79-.87,1.2-1.3,2.97-1.3,5.31Z" fill="#000" stroke-width="0"/>
    <path d="M929.71,179.96c-2.51,0-4.55-.82-6.12-2.47-1.57-1.65-2.36-3.85-2.36-6.6v-.58c0-1.83.35-3.47,1.05-4.91.7-1.44,1.68-2.57,2.94-3.38,1.26-.81,2.62-1.22,4.09-1.22,2.4,0,4.27.79,5.61,2.38,1.33,1.58,2,3.85,2,6.8v1.32h-12.53c.04,1.82.58,3.3,1.6,4.42s2.32,1.68,3.89,1.68c1.12,0,2.06-.23,2.84-.68.77-.46,1.45-1.06,2.03-1.81l1.93,1.5c-1.55,2.38-3.87,3.57-6.97,3.57ZM929.31,163.38c-1.28,0-2.35.46-3.21,1.39-.87.93-1.4,2.23-1.61,3.91h9.26v-.24c-.09-1.61-.52-2.85-1.3-3.73-.78-.88-1.82-1.32-3.14-1.32Z" fill="#000" stroke-width="0"/>
    <path d="M949.12,169.52c0-2.57.34-5.05,1.03-7.42.69-2.37,1.72-4.52,3.08-6.46,1.37-1.94,2.79-3.3,4.25-4.1l.65,2.08c-1.66,1.28-3.03,3.22-4.09,5.84-1.07,2.62-1.65,5.55-1.75,8.8l-.02,1.45c0,4.4.8,8.21,2.41,11.45.97,1.94,2.12,3.45,3.45,4.55l-.65,1.93c-1.51-.84-2.96-2.26-4.34-4.24-2.69-3.87-4.03-8.5-4.03-13.89Z" fill="#000" stroke-width="0"/>
    <path d="M964.5,179.62h-8.1l.27-1.16c.72,0,1.33-.12,1.82-.35.49-.23,1.03-.7,1.63-1.41.59-.71,1.37-1.8,2.33-3.27l13.41-19.41h1.63l3.06,21c.26,1.27.59,2.16,1.01,2.67.41.52,1.2.77,2.36.77l-.23,1.16h-10.35l.23-1.16c.65,0,1.19-.05,1.65-.15.45-.1.81-.31,1.07-.62.26-.31.39-.79.39-1.43,0-.31,0-.6-.02-.87-.01-.27-.03-.52-.06-.76l-.43-3.88-.08-.78-1.32-11.59h-.12l-7.75,11.59-.46.78-2.95,4.49c-.26.36-.48.72-.68,1.08-.19.36-.29.72-.29,1.08,0,.41.16.69.48.83.32.14.91.21,1.76.21l-.27,1.16ZM976.59,171.13h-10.85l.93-1.55h9.76l.16,1.55Z" fill="#000" stroke-width="0"/>
    <path d="M994.89,169.69c0,2.54-.33,4.98-1,7.31-.67,2.33-1.69,4.48-3.06,6.45-1.37,1.97-2.81,3.37-4.31,4.2l-.67-1.93c1.75-1.34,3.16-3.43,4.23-6.26,1.07-2.83,1.61-5.97,1.63-9.43v-.55c0-2.39-.25-4.62-.75-6.67-.5-2.06-1.2-3.9-2.09-5.53-.89-1.63-1.9-2.9-3.02-3.81l.67-1.93c1.5.83,2.94,2.22,4.3,4.17,1.36,1.95,2.38,4.1,3.06,6.44.68,2.35,1.02,4.86,1.02,7.54Z" fill="#000" stroke-width="0"/>
  </g>
  <g>
    <path d="M815.19,438.11h-10.43l-2.34,6.51h-3.38l9.5-24.88h2.87l9.52,24.88h-3.37l-2.38-6.51ZM805.75,435.42h8.46l-4.24-11.64-4.22,11.64Z" fill="#000" stroke-width="0"/>
    <path d="M826.77,426.13l.1,2.32c1.41-1.78,3.26-2.67,5.54-2.67,3.91,0,5.88,2.2,5.91,6.61v12.22h-3.16v-12.24c-.01-1.33-.32-2.32-.91-2.96-.6-.64-1.53-.96-2.79-.96-1.03,0-1.93.27-2.7.82-.77.55-1.38,1.27-1.81,2.15v13.18h-3.16v-18.49h2.99Z" fill="#000" stroke-width="0"/>
    <path d="M847.38,421.65v4.48h3.45v2.44h-3.45v11.48c0,.74.15,1.3.46,1.67.31.37.83.56,1.57.56.36,0,.87-.07,1.5-.21v2.55c-.83.23-1.64.34-2.43.34-1.41,0-2.48-.43-3.2-1.28-.72-.86-1.08-2.07-1.08-3.64v-11.47h-3.37v-2.44h3.37v-4.48h3.16Z" fill="#000" stroke-width="0"/>
    <path d="M854.54,421.22c0-.51.16-.95.47-1.3.31-.35.78-.53,1.39-.53s1.08.18,1.4.53c.32.35.48.79.48,1.3s-.16.94-.48,1.28c-.32.34-.79.51-1.4.51s-1.08-.17-1.39-.51c-.31-.34-.47-.77-.47-1.28ZM857.96,444.62h-3.16v-18.49h3.16v18.49Z" fill="#000" stroke-width="0"/>
    <path d="M866.01,426.13l.1,2.32c1.41-1.78,3.26-2.67,5.54-2.67,3.91,0,5.88,2.2,5.91,6.61v12.22h-3.16v-12.24c-.01-1.33-.32-2.32-.91-2.96-.6-.64-1.53-.96-2.79-.96-1.03,0-1.93.27-2.7.82-.77.55-1.38,1.27-1.81,2.15v13.18h-3.16v-18.49h2.99Z" fill="#000" stroke-width="0"/>
    <path d="M881.49,435.2c0-1.81.36-3.44,1.07-4.89.71-1.45,1.7-2.56,2.97-3.35,1.27-.79,2.72-1.18,4.35-1.18,2.52,0,4.55.87,6.11,2.61,1.56,1.74,2.33,4.06,2.33,6.96v.22c0,1.8-.34,3.42-1.03,4.85s-1.67,2.54-2.96,3.34c-1.28.8-2.75,1.2-4.42,1.2-2.51,0-4.54-.87-6.09-2.62-1.55-1.74-2.33-4.05-2.33-6.92v-.22ZM884.67,435.58c0,2.05.47,3.7,1.43,4.94.95,1.24,2.22,1.86,3.82,1.86s2.88-.63,3.83-1.89c.95-1.26,1.42-3.02,1.42-5.29,0-2.03-.48-3.67-1.44-4.93-.96-1.26-2.24-1.89-3.84-1.89s-2.82.62-3.78,1.86c-.96,1.24-1.44,3.02-1.44,5.33Z" fill="#000" stroke-width="0"/>
    <path d="M901.52,435.22c0-2.84.67-5.12,2.02-6.84,1.34-1.73,3.1-2.59,5.28-2.59s3.88.74,5.14,2.22v-9.64h3.16v26.25h-2.91l-.15-1.98c-1.27,1.55-3.03,2.32-5.28,2.32s-3.89-.88-5.24-2.63c-1.35-1.75-2.03-4.04-2.03-6.87v-.24ZM904.68,435.58c0,2.1.43,3.74,1.3,4.92.87,1.19,2.06,1.78,3.59,1.78,2,0,3.47-.9,4.39-2.7v-8.49c-.95-1.74-2.4-2.62-4.36-2.62-1.55,0-2.76.6-3.62,1.79-.87,1.2-1.3,2.97-1.3,5.31Z" fill="#000" stroke-width="0"/>
    <path d="M929.71,444.96c-2.51,0-4.55-.82-6.12-2.47-1.57-1.65-2.36-3.85-2.36-6.6v-.58c0-1.83.35-3.47,1.05-4.91.7-1.44,1.68-2.57,2.94-3.38,1.26-.81,2.62-1.22,4.09-1.22,2.4,0,4.27.79,5.61,2.38,1.33,1.58,2,3.85,2,6.8v1.32h-12.53c.04,1.82.58,3.3,1.6,4.42s2.32,1.68,3.89,1.68c1.12,0,2.06-.23,2.84-.68.77-.46,1.45-1.06,2.03-1.81l1.93,1.5c-1.55,2.38-3.87,3.57-6.97,3.57ZM929.31,428.38c-1.28,0-2.35.46-3.21,1.39-.87.93-1.4,2.23-1.61,3.91h9.26v-.24c-.09-1.61-.52-2.85-1.3-3.73-.78-.88-1.82-1.32-3.14-1.32Z" fill="#000" stroke-width="0"/>
    <path d="M949.12,434.52c0-2.58.34-5.05,1.03-7.42.69-2.37,1.72-4.52,3.08-6.46,1.37-1.94,2.79-3.3,4.25-4.1l.65,2.08c-1.66,1.28-3.03,3.22-4.09,5.85-1.07,2.62-1.65,5.55-1.75,8.8l-.02,1.45c0,4.4.8,8.21,2.41,11.45.97,1.94,2.12,3.45,3.45,4.55l-.65,1.93c-1.51-.84-2.96-2.26-4.34-4.24-2.69-3.87-4.03-8.5-4.03-13.89Z" fill="#000" stroke-width="0"/>
    <path d="M964.5,444.62h-8.1l.27-1.16c.72,0,1.33-.12,1.82-.35.49-.23,1.03-.7,1.63-1.41.59-.71,1.37-1.8,2.33-3.27l13.41-19.41h1.63l3.06,21c.26,1.27.59,2.16,1.01,2.67s1.2.78,2.36.78l-.23,1.16h-10.35l.23-1.16c.65,0,1.19-.05,1.65-.16s.81-.31,1.07-.62c.26-.31.39-.79.39-1.43,0-.31,0-.6-.02-.87-.01-.27-.03-.52-.06-.76l-.43-3.88-.08-.77-1.32-11.59h-.12l-7.75,11.59-.46.77-2.95,4.5c-.26.36-.48.72-.68,1.08-.19.36-.29.72-.29,1.08,0,.41.16.69.48.83.32.14.91.21,1.76.21l-.27,1.16ZM976.59,436.13h-10.85l.93-1.55h9.76l.16,1.55Z" fill="#000" stroke-width="0"/>
    <path d="M994.89,434.69c0,2.54-.33,4.98-1,7.31-.67,2.33-1.69,4.48-3.06,6.45-1.37,1.97-2.81,3.37-4.31,4.2l-.67-1.93c1.75-1.34,3.16-3.43,4.23-6.26s1.61-5.97,1.63-9.43v-.55c0-2.39-.25-4.62-.75-6.67-.5-2.06-1.2-3.9-2.09-5.53-.89-1.63-1.9-2.9-3.02-3.81l.67-1.93c1.5.83,2.94,2.22,4.3,4.17,1.36,1.95,2.38,4.1,3.06,6.44.68,2.35,1.02,4.86,1.02,7.54Z" fill="#000" stroke-width="0"/>
  </g>
  <g>
    <path d="M121.91,306.72h-10.44v10.99h-3.28v-24.88h15.41v2.68h-12.13v8.53h10.44v2.68Z" fill="#000" stroke-width="0"/>
    <path d="M127.05,294.31c0-.51.16-.95.47-1.3.31-.35.78-.53,1.39-.53s1.08.18,1.4.53c.32.35.48.79.48,1.3s-.16.94-.48,1.28c-.32.34-.79.51-1.4.51s-1.08-.17-1.39-.51c-.31-.34-.47-.77-.47-1.28ZM130.47,317.7h-3.16v-18.49h3.16v18.49Z" fill="#000" stroke-width="0"/>
    <path d="M144.47,302.05c-.48-.08-1-.12-1.55-.12-2.07,0-3.48.88-4.22,2.65v13.12h-3.16v-18.49h3.08l.05,2.14c1.04-1.65,2.51-2.48,4.41-2.48.62,0,1.08.08,1.4.24v2.94Z" fill="#000" stroke-width="0"/>
    <path d="M158.14,312.8c0-.86-.32-1.52-.97-1.99s-1.77-.88-3.37-1.22c-1.6-.34-2.87-.75-3.81-1.23-.94-.48-1.63-1.05-2.08-1.71-.45-.66-.67-1.45-.67-2.36,0-1.52.64-2.8,1.92-3.85,1.28-1.05,2.92-1.57,4.91-1.57,2.1,0,3.8.54,5.1,1.62,1.3,1.08,1.96,2.47,1.96,4.15h-3.18c0-.87-.37-1.61-1.1-2.24-.74-.63-1.66-.94-2.78-.94s-2.05.25-2.7.75c-.65.5-.97,1.16-.97,1.97,0,.76.3,1.34.91,1.73.6.39,1.69.76,3.27,1.11,1.58.35,2.86.78,3.84,1.27.98.49,1.71,1.08,2.18,1.77s.71,1.53.71,2.52c0,1.65-.66,2.98-1.98,3.97-1.32,1-3.04,1.5-5.14,1.5-1.48,0-2.79-.26-3.93-.79-1.14-.52-2.03-1.26-2.67-2.2-.64-.94-.97-1.96-.97-3.05h3.16c.06,1.06.48,1.9,1.27,2.52.79.62,1.84.93,3.14.93,1.2,0,2.16-.24,2.88-.73.72-.48,1.08-1.13,1.08-1.94Z" fill="#000" stroke-width="0"/>
    <path d="M169.71,294.74v4.48h3.45v2.44h-3.45v11.48c0,.74.15,1.3.46,1.67.31.37.83.56,1.57.56.36,0,.87-.07,1.5-.21v2.55c-.83.23-1.64.34-2.43.34-1.41,0-2.48-.43-3.2-1.28-.72-.86-1.08-2.07-1.08-3.64v-11.47h-3.37v-2.44h3.37v-4.48h3.16Z" fill="#000" stroke-width="0"/>
    <path d="M194.46,302.05c-.48-.08-1-.12-1.55-.12-2.07,0-3.48.88-4.22,2.65v13.12h-3.16v-18.49h3.08l.05,2.14c1.04-1.65,2.51-2.48,4.41-2.48.62,0,1.08.08,1.4.24v2.94Z" fill="#000" stroke-width="0"/>
    <path d="M205.04,318.05c-2.51,0-4.55-.82-6.12-2.47-1.57-1.65-2.36-3.85-2.36-6.6v-.58c0-1.83.35-3.47,1.05-4.91.7-1.44,1.68-2.57,2.94-3.38,1.26-.81,2.62-1.22,4.09-1.22,2.4,0,4.27.79,5.61,2.38,1.33,1.58,2,3.85,2,6.8v1.32h-12.53c.04,1.82.58,3.3,1.6,4.42s2.32,1.68,3.89,1.68c1.12,0,2.06-.23,2.84-.68.77-.46,1.45-1.06,2.03-1.81l1.93,1.5c-1.55,2.38-3.87,3.57-6.97,3.57ZM204.64,301.47c-1.28,0-2.35.46-3.21,1.39-.87.93-1.4,2.23-1.61,3.91h9.26v-.24c-.09-1.61-.52-2.85-1.3-3.73-.78-.88-1.82-1.32-3.14-1.32Z" fill="#000" stroke-width="0"/>
    <path d="M226.67,312.8c0-.86-.32-1.52-.97-1.99s-1.77-.88-3.37-1.22c-1.6-.34-2.87-.75-3.81-1.23-.94-.48-1.63-1.05-2.08-1.71-.45-.66-.67-1.45-.67-2.36,0-1.52.64-2.8,1.92-3.85,1.28-1.05,2.92-1.57,4.91-1.57,2.1,0,3.8.54,5.1,1.62,1.3,1.08,1.96,2.47,1.96,4.15h-3.18c0-.87-.37-1.61-1.1-2.24-.74-.63-1.66-.94-2.78-.94s-2.05.25-2.7.75c-.65.5-.97,1.16-.97,1.97,0,.76.3,1.34.91,1.73.6.39,1.69.76,3.27,1.11,1.58.35,2.86.78,3.84,1.27.98.49,1.71,1.08,2.18,1.77s.71,1.53.71,2.52c0,1.65-.66,2.98-1.98,3.97-1.32,1-3.04,1.5-5.14,1.5-1.48,0-2.79-.26-3.93-.79-1.14-.52-2.03-1.26-2.67-2.2-.64-.94-.97-1.96-.97-3.05h3.16c.06,1.06.48,1.9,1.27,2.52.79.62,1.84.93,3.14.93,1.2,0,2.16-.24,2.88-.73.72-.48,1.08-1.13,1.08-1.94Z" fill="#000" stroke-width="0"/>
    <path d="M233.11,308.29c0-1.81.36-3.44,1.07-4.89.71-1.45,1.7-2.56,2.97-3.35s2.72-1.18,4.35-1.18c2.52,0,4.55.87,6.11,2.61,1.56,1.74,2.33,4.06,2.33,6.96v.22c0,1.8-.34,3.42-1.03,4.85s-1.67,2.54-2.96,3.34c-1.28.8-2.75,1.2-4.42,1.2-2.51,0-4.54-.87-6.09-2.62-1.55-1.74-2.33-4.05-2.33-6.92v-.22ZM236.29,308.66c0,2.05.47,3.7,1.43,4.94.95,1.24,2.22,1.86,3.82,1.86s2.88-.63,3.83-1.89c.95-1.26,1.42-3.02,1.42-5.29,0-2.03-.48-3.67-1.44-4.93-.96-1.26-2.24-1.89-3.84-1.89s-2.82.62-3.78,1.86c-.96,1.24-1.44,3.02-1.44,5.33Z" fill="#000" stroke-width="0"/>
    <path d="M256.9,299.21l.1,2.32c1.41-1.78,3.26-2.67,5.54-2.67,3.91,0,5.88,2.2,5.91,6.61v12.22h-3.16v-12.24c-.01-1.33-.32-2.32-.91-2.96-.6-.64-1.53-.96-2.79-.96-1.03,0-1.93.27-2.7.82-.77.55-1.38,1.26-1.81,2.15v13.18h-3.16v-18.49h2.99Z" fill="#000" stroke-width="0"/>
    <path d="M284.64,317.7c-.18-.36-.33-1.01-.44-1.95-1.47,1.53-3.22,2.29-5.26,2.29-1.82,0-3.32-.52-4.49-1.55-1.17-1.03-1.75-2.34-1.75-3.92,0-1.92.73-3.42,2.2-4.49,1.46-1.06,3.52-1.6,6.18-1.6h3.08v-1.45c0-1.1-.33-1.98-.99-2.64-.66-.66-1.64-.98-2.92-.98-1.13,0-2.07.29-2.84.85-.76.57-1.14,1.26-1.14,2.07h-3.18c0-.92.33-1.81.98-2.67.65-.86,1.54-1.54,2.67-2.04,1.12-.5,2.36-.75,3.7-.75,2.13,0,3.8.53,5.01,1.6,1.21,1.07,1.83,2.53,1.88,4.4v8.51c0,1.7.22,3.05.65,4.05v.27h-3.32ZM279.39,315.29c.99,0,1.93-.26,2.82-.77s1.53-1.18,1.93-2v-3.79h-2.48c-3.87,0-5.81,1.13-5.81,3.4,0,.99.33,1.77.99,2.32.66.56,1.51.84,2.55.84Z" fill="#000" stroke-width="0"/>
    <path d="M295.25,299.21l.1,2.32c1.41-1.78,3.26-2.67,5.54-2.67,3.91,0,5.88,2.2,5.91,6.61v12.22h-3.16v-12.24c-.01-1.33-.32-2.32-.91-2.96-.6-.64-1.53-.96-2.79-.96-1.03,0-1.93.27-2.7.82-.77.55-1.38,1.26-1.81,2.15v13.18h-3.16v-18.49h2.99Z" fill="#000" stroke-width="0"/>
    <path d="M315.86,294.74v4.48h3.45v2.44h-3.45v11.48c0,.74.15,1.3.46,1.67.31.37.83.56,1.57.56.36,0,.87-.07,1.5-.21v2.55c-.83.23-1.64.34-2.43.34-1.41,0-2.48-.43-3.2-1.28-.72-.86-1.08-2.07-1.08-3.64v-11.47h-3.37v-2.44h3.37v-4.48h3.16Z" fill="#000" stroke-width="0"/>
    <path d="M335.11,317.7h-3.16v-26.25h3.16v26.25Z" fill="#000" stroke-width="0"/>
    <path d="M347.84,318.05c-2.51,0-4.55-.82-6.12-2.47-1.57-1.65-2.36-3.85-2.36-6.6v-.58c0-1.83.35-3.47,1.05-4.91.7-1.44,1.68-2.57,2.94-3.38,1.26-.81,2.62-1.22,4.09-1.22,2.4,0,4.27.79,5.61,2.38,1.33,1.58,2,3.85,2,6.8v1.32h-12.53c.04,1.82.58,3.3,1.6,4.42s2.32,1.68,3.89,1.68c1.12,0,2.06-.23,2.84-.68.77-.46,1.45-1.06,2.03-1.81l1.93,1.5c-1.55,2.38-3.87,3.57-6.97,3.57ZM347.44,301.47c-1.28,0-2.35.46-3.21,1.39-.87.93-1.4,2.23-1.61,3.91h9.26v-.24c-.09-1.61-.52-2.85-1.3-3.73-.78-.88-1.82-1.32-3.14-1.32Z" fill="#000" stroke-width="0"/>
    <path d="M361.7,299.21l.1,2.32c1.41-1.78,3.26-2.67,5.54-2.67,3.91,0,5.88,2.2,5.91,6.61v12.22h-3.16v-12.24c-.01-1.33-.32-2.32-.91-2.96-.6-.64-1.53-.96-2.79-.96-1.03,0-1.93.27-2.7.82-.77.55-1.38,1.26-1.81,2.15v13.18h-3.16v-18.49h2.99Z" fill="#000" stroke-width="0"/>
    <path d="M377.27,308.3c0-2.88.67-5.18,2-6.88,1.33-1.7,3.1-2.55,5.3-2.55s4.02.8,5.28,2.39l.15-2.05h2.89v18.05c0,2.39-.71,4.28-2.13,5.66-1.42,1.38-3.32,2.07-5.72,2.07-1.33,0-2.64-.29-3.91-.85-1.28-.57-2.25-1.35-2.92-2.34l1.64-1.9c1.36,1.67,3.01,2.51,4.97,2.51,1.54,0,2.74-.43,3.6-1.3.86-.87,1.29-2.08,1.29-3.66v-1.59c-1.26,1.46-2.99,2.19-5.18,2.19s-3.92-.87-5.26-2.62c-1.34-1.74-2.01-4.12-2.01-7.13ZM380.45,308.66c0,2.09.43,3.72,1.28,4.91.85,1.19,2.05,1.79,3.59,1.79,1.99,0,3.46-.91,4.39-2.72v-8.44c-.97-1.77-2.42-2.65-4.36-2.65-1.54,0-2.74.6-3.61,1.79-.87,1.2-1.3,2.97-1.3,5.31Z" fill="#000" stroke-width="0"/>
    <path d="M401.94,294.74v4.48h3.45v2.44h-3.45v11.48c0,.74.15,1.3.46,1.67.31.37.83.56,1.57.56.36,0,.87-.07,1.5-.21v2.55c-.83.23-1.64.34-2.43.34-1.41,0-2.48-.43-3.2-1.28-.72-.86-1.08-2.07-1.08-3.64v-11.47h-3.37v-2.44h3.37v-4.48h3.16Z" fill="#000" stroke-width="0"/>
    <path d="M412.25,301.45c1.4-1.72,3.22-2.58,5.47-2.58,3.91,0,5.88,2.2,5.91,6.61v12.22h-3.16v-12.24c-.01-1.33-.32-2.32-.91-2.96-.6-.64-1.53-.96-2.79-.96-1.03,0-1.93.27-2.7.82-.77.55-1.38,1.26-1.81,2.15v13.18h-3.16v-26.25h3.16v10Z" fill="#000" stroke-width="0"/>
    <path d="M460.28,317.7h-19.14l.23-1.16c1.01,0,1.78-.09,2.31-.27s.94-.53,1.22-1.05c.28-.52.53-1.29.74-2.32l3.33-16.16c.18-.85.25-1.52.19-2.01s-.32-.83-.79-1.03c-.48-.19-1.27-.29-2.38-.29l.23-1.16h11l-.19,1.16c-.93,0-1.7.08-2.31.25-.61.17-1.09.5-1.45.99-.36.49-.65,1.2-.85,2.13l-3.53,17.36c-.18.85-.09,1.42.27,1.69.36.27,1.11.41,2.25.41h1.82c1.24,0,2.25-.11,3.02-.33.78-.22,1.43-.56,1.98-1.03.54-.46,1.05-1.09,1.53-1.88.48-.79,1.01-1.74,1.61-2.85h1.24l-2.33,7.56Z" fill="#000" stroke-width="0"/>
    <path d="M472.07,330.61h-7.21l.14-.63c.71,0,1.26-.05,1.65-.15s.68-.26.86-.47c.18-.22.31-.52.38-.89l2.03-9.56c.03-.12.05-.23.07-.32s.02-.17.02-.25c0-.36-.2-.54-.59-.54-.15,0-.34.02-.56.05-.23.03-.47.07-.72.12s-.51.12-.77.19l.16-.75,4.31-1.24h.66l-2.62,12.29c-.02.08-.03.15-.03.23,0,.08-.01.15-.01.23,0,.38.18.65.53.81.35.17.97.25,1.84.25l-.13.63Z" fill="#000" stroke-width="0"/>
    <path d="M505.45,304.45h-23.09v-2.64h23.09v2.64ZM505.45,313.64h-23.09v-2.6h23.09v2.6Z" fill="#000" stroke-width="0"/>
  </g>
  <g>
    <line x1="565.16" y1="110.16" x2="660.64" y2="110.16" fill="none" stroke="#d12d32" stroke-miterlimit="10" stroke-width="8.75"/>
    <polyline points="771.41 93.91 657.66 93.91 657.66 126.41 771.41 126.41" fill="none" stroke="#d12d32" stroke-miterlimit="10" stroke-width="8.75"/>
  </g>
  <line x1="683.88" y1="444.85" x2="683.88" y2="161.48" fill="none" stroke="#000" stroke-miterlimit="10" stroke-width="3.75"/>
  <line x1="771.26" y1="161.48" x2="771.26" y2="444.85" fill="none" stroke="#000" stroke-miterlimit="10" stroke-width="3.75"/>
  <g>
    <line x1="560.04" y1="161.41" x2="563.79" y2="161.41" fill="none" stroke="#000" stroke-linecap="round" stroke-linejoin="round" stroke-width="2.5"/>
    <line x1="570.97" y1="161.41" x2="667.81" y2="161.41" fill="none" stroke="#000" stroke-dasharray="0 0 7.17 7.17" stroke-linecap="round" stroke-linejoin="round" stroke-width="2.5"/>
    <line x1="671.4" y1="161.41" x2="675.15" y2="161.41" fill="none" stroke="#000" stroke-linecap="round" stroke-linejoin="round" stroke-width="2.5"/>
  </g>
  <g>
    <line x1="560.04" y1="444.85" x2="563.79" y2="444.85" fill="none" stroke="#000" stroke-linecap="round" stroke-linejoin="round" stroke-width="2.5"/>
    <line x1="570.97" y1="444.85" x2="667.81" y2="444.85" fill="none" stroke="#000" stroke-dasharray="0 0 7.17 7.17" stroke-linecap="round" stroke-linejoin="round" stroke-width="2.5"/>
    <line x1="671.4" y1="444.85" x2="675.15" y2="444.85" fill="none" stroke="#000" stroke-linecap="round" stroke-linejoin="round" stroke-width="2.5"/>
  </g>
  <g>
    <line x1="614.65" y1="428.82" x2="614.65" y2="179.2" fill="none" stroke="#000" stroke-linecap="round" stroke-linejoin="round" stroke-width="2.5"/>
    <polygon points="624.62 425.9 614.65 443.17 604.67 425.9 624.62 425.9" fill="#000" stroke-width="0"/>
    <polygon points="624.62 182.12 614.65 164.85 604.67 182.12 624.62 182.12" fill="#000" stroke-width="0"/>
  </g>
  <path d="M543.76,349.19h-16.3v-2.27l8.61-9.57c1.28-1.45,2.16-2.62,2.64-3.53.48-.91.73-1.84.73-2.81,0-1.3-.39-2.36-1.18-3.2-.79-.83-1.83-1.25-3.14-1.25-1.57,0-2.79.45-3.67,1.34-.87.89-1.31,2.14-1.31,3.73h-3.16c0-2.29.74-4.14,2.21-5.55,1.47-1.41,3.45-2.12,5.92-2.12,2.31,0,4.14.61,5.49,1.82,1.34,1.21,2.02,2.83,2.02,4.84,0,2.45-1.56,5.37-4.68,8.75l-6.67,7.23h12.49v2.58Z" fill="#000" stroke-width="0"/>
  <path d="M528.33,290.86h-3.88v-.62c1.37-1.86,2.83-3.84,4.38-5.93,1.55-2.09,3.1-4.18,4.65-6.26s3-4.02,4.34-5.83l.23,4.15h-.85c-.23.34-.62.92-1.16,1.76-.54.84-1.16,1.82-1.84,2.95-.68,1.12-1.39,2.29-2.13,3.51s-1.43,2.37-2.09,3.47c-.66,1.1-1.21,2.03-1.65,2.81ZM539.53,291.32c-1.06,0-1.82-.43-2.27-1.28-.45-.85-.68-2.01-.68-3.49,0-1.06.04-2.07.14-3.02.09-.96.2-2,.33-3.14.13-1.14.24-2.48.33-4.03.09-1.55.14-3.46.14-5.73,0-1.29-.19-2.3-.58-3.02-.39-.72-1-1.08-1.82-1.08-.65,0-1.21.1-1.69.31-.48.21-.98.54-1.49,1.01l-.81-.58c.41-.72.88-1.36,1.39-1.92.52-.56,1.1-.99,1.76-1.32.66-.32,1.39-.48,2.19-.48.93,0,1.6.27,2.02.79.41.53.67,1.22.76,2.07.09.85.13,1.8.13,2.83,0,1.58-.04,3.11-.12,4.61-.08,1.5-.16,2.97-.25,4.42-.09,1.45-.13,2.88-.13,4.3,0,1.63.17,2.98.52,4.05.35,1.07.94,1.61,1.76,1.61.52,0,.99-.1,1.43-.29.44-.19.9-.55,1.39-1.07l.66.62c-.39.72-.86,1.38-1.41,1.96-.56.58-1.15,1.04-1.78,1.38s-1.27.5-1.92.5Z" fill="#000" stroke-width="0"/>
  <path d="M553.35,309.76h-36.42l.46-2.21h36.42l-.46,2.21Z" fill="#000" stroke-width="0"/>
  <path d="M185.49,46.77C90.81,77.46,4.69,167.54,6.02,275.19c1.22,99.22,76.76,183.27,162.75,215.86,85.99,32.59,180.21,23.83,270.23,8.98,70.42-11.61,141.49-19.72,212.76-20.15,119.37-.71,248.69,66.9,364.07,8.62,106.95-54.03,145.25-205.1,87-314.76-54.68-102.92-148.78-144.44-257.48-154.82-64.22-6.13-145.72-7.46-208.5,6.28-72.65,15.89-146.29,23.14-220.22,16.03-77.12-7.42-155.45-19-231.13,5.53Z" fill="#f4f4e9" stroke-width="0"/>
  <path d="M771.26,436.05c-4.07-77.2-43.69-128.18-43.69-128.18,0,0-39.62,50.97-43.69,128.18" fill="none" stroke="#0077a2" stroke-linecap="round" stroke-linejoin="round" stroke-width="2.5"/>
  <path d="M771.26,174.62c-4.07,80.26-43.69,133.25-43.69,133.25,0,0-39.62-52.99-43.69-133.25" fill="none" stroke="#0077a2" stroke-linecap="round" stroke-linejoin="round" stroke-width="2.5"/>
  <g>
    <path d="M426.14,65.94h-8v22.2h-3.26v-22.2h-7.98v-2.68h19.24v2.68Z" fill="#000" stroke-width="0"/>
    <path d="M439.13,86.31c-1.23,1.45-3.04,2.17-5.42,2.17-1.97,0-3.47-.57-4.5-1.72-1.03-1.14-1.55-2.84-1.56-5.08v-12.03h3.16v11.95c0,2.8,1.14,4.2,3.42,4.2,2.42,0,4.02-.9,4.82-2.7v-13.45h3.16v18.49h-3.01l-.07-1.83Z" fill="#000" stroke-width="0"/>
    <path d="M450,69.64l.1,2.32c1.41-1.78,3.26-2.67,5.54-2.67,3.91,0,5.88,2.2,5.91,6.61v12.22h-3.16v-12.24c-.01-1.33-.32-2.32-.91-2.96-.6-.64-1.53-.96-2.79-.96-1.03,0-1.93.27-2.7.82-.77.55-1.38,1.26-1.81,2.15v13.18h-3.16v-18.49h2.99Z" fill="#000" stroke-width="0"/>
    <path d="M466.33,64.74c0-.51.16-.95.47-1.3.31-.35.78-.53,1.39-.53s1.08.18,1.4.53c.32.35.48.79.48,1.3s-.16.94-.48,1.28c-.32.34-.79.51-1.4.51s-1.08-.17-1.39-.51c-.31-.34-.47-.77-.47-1.28ZM469.75,88.14h-3.16v-18.49h3.16v18.49Z" fill="#000" stroke-width="0"/>
    <path d="M477.8,69.64l.1,2.32c1.41-1.78,3.26-2.67,5.54-2.67,3.91,0,5.88,2.2,5.91,6.61v12.22h-3.16v-12.24c-.01-1.33-.32-2.32-.91-2.96-.6-.64-1.53-.96-2.79-.96-1.03,0-1.93.27-2.7.82-.77.55-1.38,1.26-1.81,2.15v13.18h-3.16v-18.49h2.99Z" fill="#000" stroke-width="0"/>
    <path d="M493.37,78.74c0-2.88.67-5.18,2-6.88,1.33-1.7,3.1-2.55,5.3-2.55s4.02.8,5.28,2.39l.15-2.05h2.89v18.05c0,2.39-.71,4.28-2.13,5.66-1.42,1.38-3.32,2.07-5.72,2.07-1.33,0-2.64-.29-3.91-.85-1.28-.57-2.25-1.35-2.92-2.34l1.64-1.9c1.36,1.67,3.01,2.51,4.97,2.51,1.54,0,2.74-.43,3.6-1.3.86-.87,1.29-2.08,1.29-3.66v-1.59c-1.26,1.46-2.99,2.19-5.18,2.19s-3.92-.87-5.26-2.61-2.01-4.12-2.01-7.13ZM496.55,79.1c0,2.08.43,3.72,1.28,4.91.85,1.19,2.05,1.79,3.59,1.79,1.99,0,3.46-.91,4.39-2.72v-8.44c-.97-1.77-2.42-2.65-4.36-2.65-1.54,0-2.74.6-3.61,1.79-.87,1.2-1.3,2.97-1.3,5.31Z" fill="#000" stroke-width="0"/>
    <path d="M523.98,88.14v-16.05h-2.92v-2.44h2.92v-1.9c0-1.98.53-3.51,1.59-4.6,1.06-1.08,2.56-1.62,4.49-1.62.73,0,1.45.1,2.17.29l-.17,2.55c-.54-.1-1.11-.15-1.71-.15-1.03,0-1.82.3-2.38.9-.56.6-.84,1.46-.84,2.58v1.95h3.95v2.44h-3.95v16.05h-3.16Z" fill="#000" stroke-width="0"/>
    <path d="M533.73,78.72c0-1.81.36-3.44,1.07-4.89.71-1.45,1.7-2.56,2.97-3.35s2.72-1.18,4.35-1.18c2.52,0,4.55.87,6.11,2.61,1.56,1.74,2.33,4.06,2.33,6.96v.22c0,1.8-.34,3.42-1.03,4.85s-1.67,2.54-2.96,3.34c-1.28.8-2.75,1.2-4.42,1.2-2.51,0-4.54-.87-6.09-2.61-1.55-1.74-2.33-4.05-2.33-6.92v-.22ZM536.91,79.1c0,2.05.47,3.7,1.43,4.94.95,1.24,2.22,1.86,3.82,1.86s2.88-.63,3.83-1.89c.95-1.26,1.42-3.02,1.42-5.29,0-2.03-.48-3.67-1.44-4.93-.96-1.26-2.24-1.89-3.84-1.89s-2.82.62-3.78,1.86c-.96,1.24-1.44,3.02-1.44,5.33Z" fill="#000" stroke-width="0"/>
    <path d="M563.47,72.48c-.48-.08-1-.12-1.55-.12-2.07,0-3.48.88-4.22,2.65v13.12h-3.16v-18.49h3.08l.05,2.14c1.04-1.65,2.51-2.48,4.41-2.48.62,0,1.08.08,1.4.24v2.94Z" fill="#000" stroke-width="0"/>
    <path d="M571.54,79.57l-1.98,2.07v6.49h-3.16v-26.25h3.16v15.88l1.69-2.03,5.76-6.08h3.84l-7.19,7.72,8.03,10.77h-3.71l-6.44-8.56Z" fill="#000" stroke-width="0"/>
  </g>
  <g>
    <path d="M820.57,322.37h-3.3l-12.53-19.17v19.17h-3.3v-24.88h3.3l12.56,19.26v-19.26h3.26v24.88Z" fill="#000" stroke-width="0"/>
    <path d="M825.06,312.95c0-1.81.36-3.44,1.07-4.89.71-1.45,1.7-2.56,2.97-3.35s2.72-1.18,4.35-1.18c2.52,0,4.55.87,6.11,2.61,1.56,1.74,2.33,4.06,2.33,6.96v.22c0,1.8-.34,3.42-1.03,4.85s-1.67,2.54-2.96,3.34c-1.28.8-2.75,1.2-4.42,1.2-2.51,0-4.54-.87-6.09-2.62-1.55-1.74-2.33-4.05-2.33-6.92v-.22ZM828.24,313.33c0,2.05.47,3.7,1.43,4.94.95,1.24,2.22,1.86,3.82,1.86s2.88-.63,3.83-1.89c.95-1.26,1.42-3.02,1.42-5.29,0-2.03-.48-3.67-1.44-4.93-.96-1.26-2.24-1.89-3.84-1.89s-2.82.62-3.78,1.86c-.96,1.24-1.44,3.02-1.44,5.33Z" fill="#000" stroke-width="0"/>
    <path d="M845.09,312.97c0-2.84.67-5.12,2.02-6.84,1.34-1.73,3.1-2.59,5.28-2.59s3.88.74,5.14,2.22v-9.64h3.16v26.25h-2.91l-.15-1.98c-1.27,1.55-3.03,2.32-5.28,2.32s-3.89-.88-5.24-2.63c-1.35-1.75-2.03-4.04-2.03-6.87v-.24ZM848.25,313.33c0,2.1.43,3.74,1.3,4.92.87,1.19,2.06,1.78,3.59,1.78,2,0,3.47-.9,4.39-2.7v-8.49c-.95-1.74-2.4-2.61-4.36-2.61-1.55,0-2.76.6-3.62,1.79-.87,1.2-1.3,2.97-1.3,5.31Z" fill="#000" stroke-width="0"/>
    <path d="M873.27,322.71c-2.51,0-4.55-.82-6.12-2.47-1.57-1.65-2.36-3.85-2.36-6.6v-.58c0-1.83.35-3.47,1.05-4.91.7-1.44,1.68-2.57,2.94-3.38,1.26-.81,2.62-1.22,4.09-1.22,2.4,0,4.27.79,5.61,2.38,1.33,1.58,2,3.85,2,6.8v1.32h-12.53c.04,1.82.58,3.3,1.6,4.42s2.32,1.68,3.89,1.68c1.12,0,2.06-.23,2.84-.68.77-.46,1.45-1.06,2.03-1.81l1.93,1.5c-1.55,2.38-3.87,3.57-6.97,3.57ZM872.88,306.13c-1.28,0-2.35.46-3.21,1.39-.87.93-1.4,2.23-1.61,3.91h9.26v-.24c-.09-1.61-.52-2.85-1.3-3.73-.78-.88-1.82-1.32-3.14-1.32Z" fill="#000" stroke-width="0"/>
    <path d="M892.69,312.27c0-2.57.34-5.05,1.03-7.42.69-2.37,1.72-4.52,3.08-6.46,1.37-1.94,2.79-3.3,4.25-4.1l.65,2.08c-1.66,1.28-3.03,3.22-4.09,5.84-1.07,2.62-1.65,5.55-1.75,8.8l-.02,1.45c0,4.4.8,8.21,2.41,11.45.97,1.94,2.12,3.45,3.45,4.55l-.65,1.93c-1.51-.84-2.96-2.26-4.34-4.24-2.69-3.87-4.03-8.5-4.03-13.89Z" fill="#000" stroke-width="0"/>
    <path d="M910.48,322.37h-8.91l.23-1.16c1.01,0,1.78-.11,2.33-.33.54-.22.96-.66,1.24-1.34.28-.67.56-1.65.81-2.94l3.6-17.48,2.71,2.75h-1.39l-3.02,14.73c-.26,1.29-.36,2.27-.31,2.93.05.66.32,1.1.79,1.34.48.23,1.19.35,2.15.35l-.23,1.16ZM923.96,322.68h-1.28l-11.7-21.35-.89-.7c-.39-.7-.74-1.23-1.05-1.61s-.67-.63-1.07-.76c-.4-.13-.92-.19-1.57-.19l.23-1.16h6.08l10.46,19.07h.19l2.67-12.9c.26-1.32.38-2.34.35-3.06-.03-.72-.27-1.23-.74-1.51-.46-.28-1.24-.43-2.33-.43l.23-1.16h9.14l-.23,1.16c-.96,0-1.72.17-2.31.52-.58.35-1.04.9-1.38,1.67-.34.76-.63,1.76-.89,3l-3.95,19.41Z" fill="#000" stroke-width="0"/>
    <path d="M939.73,312.44c0,2.54-.33,4.98-1,7.31-.67,2.33-1.69,4.48-3.06,6.45-1.37,1.97-2.81,3.37-4.31,4.2l-.67-1.93c1.75-1.34,3.16-3.43,4.23-6.26s1.61-5.97,1.63-9.43v-.55c0-2.39-.25-4.62-.75-6.67-.5-2.06-1.2-3.9-2.09-5.53-.89-1.63-1.9-2.9-3.02-3.81l.67-1.93c1.5.83,2.94,2.22,4.3,4.17,1.36,1.95,2.38,4.1,3.06,6.44.68,2.35,1.02,4.86,1.02,7.54Z" fill="#000" stroke-width="0"/>
  </g>
  <g>
    <path d="M815.19,182.11h-10.43l-2.34,6.51h-3.38l9.5-24.88h2.87l9.52,24.88h-3.37l-2.38-6.51ZM805.75,179.42h8.46l-4.24-11.64-4.22,11.64Z" fill="#000" stroke-width="0"/>
    <path d="M826.77,170.13l.1,2.32c1.41-1.78,3.26-2.67,5.54-2.67,3.91,0,5.88,2.2,5.91,6.61v12.22h-3.16v-12.24c-.01-1.33-.32-2.32-.91-2.96-.6-.64-1.53-.96-2.79-.96-1.03,0-1.93.27-2.7.82-.77.55-1.38,1.26-1.81,2.15v13.18h-3.16v-18.49h2.99Z" fill="#000" stroke-width="0"/>
    <path d="M847.38,165.65v4.48h3.45v2.44h-3.45v11.48c0,.74.15,1.3.46,1.67s.83.56,1.57.56c.36,0,.87-.07,1.5-.21v2.55c-.83.23-1.64.34-2.43.34-1.41,0-2.48-.43-3.2-1.28-.72-.85-1.08-2.07-1.08-3.64v-11.47h-3.37v-2.44h3.37v-4.48h3.16Z" fill="#000" stroke-width="0"/>
    <path d="M854.54,165.22c0-.51.16-.95.47-1.3.31-.35.78-.53,1.39-.53s1.08.18,1.4.53c.32.35.48.79.48,1.3s-.16.94-.48,1.28c-.32.34-.79.51-1.4.51s-1.08-.17-1.39-.51c-.31-.34-.47-.77-.47-1.28ZM857.96,188.62h-3.16v-18.49h3.16v18.49Z" fill="#000" stroke-width="0"/>
    <path d="M866.01,170.13l.1,2.32c1.41-1.78,3.26-2.67,5.54-2.67,3.91,0,5.88,2.2,5.91,6.61v12.22h-3.16v-12.24c-.01-1.33-.32-2.32-.91-2.96-.6-.64-1.53-.96-2.79-.96-1.03,0-1.93.27-2.7.82-.77.55-1.38,1.26-1.81,2.15v13.18h-3.16v-18.49h2.99Z" fill="#000" stroke-width="0"/>
    <path d="M881.49,179.2c0-1.81.36-3.44,1.07-4.89.71-1.45,1.7-2.56,2.97-3.35s2.72-1.18,4.35-1.18c2.52,0,4.55.87,6.11,2.61,1.56,1.74,2.33,4.06,2.33,6.96v.22c0,1.8-.34,3.42-1.03,4.85s-1.67,2.54-2.96,3.34c-1.28.8-2.75,1.2-4.42,1.2-2.51,0-4.54-.87-6.09-2.61-1.55-1.74-2.33-4.05-2.33-6.92v-.22ZM884.67,179.58c0,2.05.47,3.7,1.43,4.94.95,1.24,2.22,1.86,3.82,1.86s2.88-.63,3.83-1.89c.95-1.26,1.42-3.02,1.42-5.29,0-2.03-.48-3.67-1.44-4.93-.96-1.26-2.24-1.89-3.84-1.89s-2.82.62-3.78,1.86c-.96,1.24-1.44,3.02-1.44,5.33Z" fill="#000" stroke-width="0"/>
    <path d="M901.52,179.22c0-2.84.67-5.12,2.02-6.84,1.34-1.73,3.1-2.59,5.28-2.59s3.88.74,5.14,2.22v-9.64h3.16v26.25h-2.91l-.15-1.98c-1.27,1.55-3.03,2.32-5.28,2.32s-3.89-.88-5.24-2.63c-1.35-1.75-2.03-4.04-2.03-6.87v-.24ZM904.68,179.58c0,2.1.43,3.74,1.3,4.92.87,1.19,2.06,1.78,3.59,1.78,2,0,3.47-.9,4.39-2.7v-8.49c-.95-1.74-2.4-2.61-4.36-2.61-1.55,0-2.76.6-3.62,1.79-.87,1.2-1.3,2.97-1.3,5.31Z" fill="#000" stroke-width="0"/>
    <path d="M929.71,188.96c-2.51,0-4.55-.82-6.12-2.47-1.57-1.65-2.36-3.85-2.36-6.6v-.58c0-1.83.35-3.47,1.05-4.91.7-1.44,1.68-2.57,2.94-3.38,1.26-.81,2.62-1.22,4.09-1.22,2.4,0,4.27.79,5.61,2.38,1.33,1.58,2,3.85,2,6.8v1.32h-12.53c.04,1.82.58,3.3,1.6,4.42s2.32,1.68,3.89,1.68c1.12,0,2.06-.23,2.84-.68.77-.46,1.45-1.06,2.03-1.81l1.93,1.5c-1.55,2.38-3.87,3.57-6.97,3.57ZM929.31,172.38c-1.28,0-2.35.46-3.21,1.39-.87.93-1.4,2.23-1.61,3.91h9.26v-.24c-.09-1.61-.52-2.85-1.3-3.73-.78-.88-1.82-1.32-3.14-1.32Z" fill="#000" stroke-width="0"/>
    <path d="M949.12,178.52c0-2.57.34-5.05,1.03-7.42.69-2.37,1.72-4.52,3.08-6.46,1.37-1.94,2.79-3.3,4.25-4.1l.65,2.08c-1.66,1.28-3.03,3.22-4.09,5.84-1.07,2.62-1.65,5.55-1.75,8.8l-.02,1.45c0,4.4.8,8.21,2.41,11.45.97,1.94,2.12,3.45,3.45,4.55l-.65,1.93c-1.51-.84-2.96-2.26-4.34-4.24-2.69-3.87-4.03-8.5-4.03-13.89Z" fill="#000" stroke-width="0"/>
    <path d="M964.5,188.62h-8.1l.27-1.16c.72,0,1.33-.12,1.82-.35.49-.23,1.03-.7,1.63-1.41.59-.71,1.37-1.8,2.33-3.27l13.41-19.41h1.63l3.06,21c.26,1.27.59,2.16,1.01,2.67.41.52,1.2.77,2.36.77l-.23,1.16h-10.35l.23-1.16c.65,0,1.19-.05,1.65-.15.45-.1.81-.31,1.07-.62.26-.31.39-.79.39-1.43,0-.31,0-.6-.02-.87-.01-.27-.03-.52-.06-.76l-.43-3.88-.08-.78-1.32-11.59h-.12l-7.75,11.59-.46.78-2.95,4.49c-.26.36-.48.72-.68,1.08-.19.36-.29.72-.29,1.08,0,.41.16.69.48.83.32.14.91.21,1.76.21l-.27,1.16ZM976.59,180.13h-10.85l.93-1.55h9.76l.16,1.55Z" fill="#000" stroke-width="0"/>
    <path d="M994.89,178.69c0,2.54-.33,4.98-1,7.31-.67,2.33-1.69,4.48-3.06,6.45-1.37,1.97-2.81,3.37-4.31,4.2l-.67-1.93c1.75-1.34,3.16-3.43,4.23-6.26,1.07-2.83,1.61-5.97,1.63-9.43v-.55c0-2.39-.25-4.62-.75-6.67-.5-2.06-1.2-3.9-2.09-5.53-.89-1.63-1.9-2.9-3.02-3.81l.67-1.93c1.5.83,2.94,2.22,4.3,4.17,1.36,1.95,2.38,4.1,3.06,6.44.68,2.35,1.02,4.86,1.02,7.54Z" fill="#000" stroke-width="0"/>
  </g>
  <g>
    <path d="M815.19,447.11h-10.43l-2.34,6.51h-3.38l9.5-24.88h2.87l9.52,24.88h-3.37l-2.38-6.51ZM805.75,444.42h8.46l-4.24-11.64-4.22,11.64Z" fill="#000" stroke-width="0"/>
    <path d="M826.77,435.13l.1,2.32c1.41-1.78,3.26-2.67,5.54-2.67,3.91,0,5.88,2.2,5.91,6.61v12.22h-3.16v-12.24c-.01-1.33-.32-2.32-.91-2.96-.6-.64-1.53-.96-2.79-.96-1.03,0-1.93.27-2.7.82-.77.55-1.38,1.27-1.81,2.15v13.18h-3.16v-18.49h2.99Z" fill="#000" stroke-width="0"/>
    <path d="M847.38,430.65v4.48h3.45v2.44h-3.45v11.48c0,.74.15,1.3.46,1.67.31.37.83.56,1.57.56.36,0,.87-.07,1.5-.21v2.55c-.83.23-1.64.34-2.43.34-1.41,0-2.48-.43-3.2-1.28-.72-.86-1.08-2.07-1.08-3.64v-11.47h-3.37v-2.44h3.37v-4.48h3.16Z" fill="#000" stroke-width="0"/>
    <path d="M854.54,430.22c0-.51.16-.95.47-1.3.31-.35.78-.53,1.39-.53s1.08.18,1.4.53c.32.35.48.79.48,1.3s-.16.94-.48,1.28c-.32.34-.79.51-1.4.51s-1.08-.17-1.39-.51c-.31-.34-.47-.77-.47-1.28ZM857.96,453.62h-3.16v-18.49h3.16v18.49Z" fill="#000" stroke-width="0"/>
    <path d="M866.01,435.13l.1,2.32c1.41-1.78,3.26-2.67,5.54-2.67,3.91,0,5.88,2.2,5.91,6.61v12.22h-3.16v-12.24c-.01-1.33-.32-2.32-.91-2.96-.6-.64-1.53-.96-2.79-.96-1.03,0-1.93.27-2.7.82-.77.55-1.38,1.27-1.81,2.15v13.18h-3.16v-18.49h2.99Z" fill="#000" stroke-width="0"/>
    <path d="M881.49,444.2c0-1.81.36-3.44,1.07-4.89.71-1.45,1.7-2.56,2.97-3.35,1.27-.79,2.72-1.18,4.35-1.18,2.52,0,4.55.87,6.11,2.61,1.56,1.74,2.33,4.06,2.33,6.96v.22c0,1.8-.34,3.42-1.03,4.85s-1.67,2.54-2.96,3.34c-1.28.8-2.75,1.2-4.42,1.2-2.51,0-4.54-.87-6.09-2.62-1.55-1.74-2.33-4.05-2.33-6.92v-.22ZM884.67,444.58c0,2.05.47,3.7,1.43,4.94.95,1.24,2.22,1.86,3.82,1.86s2.88-.63,3.83-1.89c.95-1.26,1.42-3.02,1.42-5.29,0-2.03-.48-3.67-1.44-4.93-.96-1.26-2.24-1.89-3.84-1.89s-2.82.62-3.78,1.86c-.96,1.24-1.44,3.02-1.44,5.33Z" fill="#000" stroke-width="0"/>
    <path d="M901.52,444.22c0-2.84.67-5.12,2.02-6.84,1.34-1.73,3.1-2.59,5.28-2.59s3.88.74,5.14,2.22v-9.64h3.16v26.25h-2.91l-.15-1.98c-1.27,1.55-3.03,2.32-5.28,2.32s-3.89-.88-5.24-2.63c-1.35-1.75-2.03-4.04-2.03-6.87v-.24ZM904.68,444.58c0,2.1.43,3.74,1.3,4.92.87,1.19,2.06,1.78,3.59,1.78,2,0,3.47-.9,4.39-2.7v-8.49c-.95-1.74-2.4-2.62-4.36-2.62-1.55,0-2.76.6-3.62,1.79-.87,1.2-1.3,2.97-1.3,5.31Z" fill="#000" stroke-width="0"/>
    <path d="M929.71,453.96c-2.51,0-4.55-.82-6.12-2.47-1.57-1.65-2.36-3.85-2.36-6.6v-.58c0-1.83.35-3.47,1.05-4.91.7-1.44,1.68-2.57,2.94-3.38,1.26-.81,2.62-1.22,4.09-1.22,2.4,0,4.27.79,5.61,2.38,1.33,1.58,2,3.85,2,6.8v1.32h-12.53c.04,1.82.58,3.3,1.6,4.42s2.32,1.68,3.89,1.68c1.12,0,2.06-.23,2.84-.68.77-.46,1.45-1.06,2.03-1.81l1.93,1.5c-1.55,2.38-3.87,3.57-6.97,3.57ZM929.31,437.38c-1.28,0-2.35.46-3.21,1.39-.87.93-1.4,2.23-1.61,3.91h9.26v-.24c-.09-1.61-.52-2.85-1.3-3.73-.78-.88-1.82-1.32-3.14-1.32Z" fill="#000" stroke-width="0"/>
    <path d="M949.12,443.52c0-2.58.34-5.05,1.03-7.42.69-2.37,1.72-4.52,3.08-6.46,1.37-1.94,2.79-3.3,4.25-4.1l.65,2.08c-1.66,1.28-3.03,3.22-4.09,5.85-1.07,2.62-1.65,5.55-1.75,8.8l-.02,1.45c0,4.4.8,8.21,2.41,11.45.97,1.94,2.12,3.45,3.45,4.55l-.65,1.93c-1.51-.84-2.96-2.26-4.34-4.24-2.69-3.87-4.03-8.5-4.03-13.89Z" fill="#000" stroke-width="0"/>
    <path d="M964.5,453.62h-8.1l.27-1.16c.72,0,1.33-.12,1.82-.35.49-.23,1.03-.7,1.63-1.41.59-.71,1.37-1.8,2.33-3.27l13.41-19.41h1.63l3.06,21c.26,1.27.59,2.16,1.01,2.67s1.2.78,2.36.78l-.23,1.16h-10.35l.23-1.16c.65,0,1.19-.05,1.65-.16s.81-.31,1.07-.62c.26-.31.39-.79.39-1.43,0-.31,0-.6-.02-.87-.01-.27-.03-.52-.06-.76l-.43-3.88-.08-.77-1.32-11.59h-.12l-7.75,11.59-.46.77-2.95,4.5c-.26.36-.48.72-.68,1.08-.19.36-.29.72-.29,1.08,0,.41.16.69.48.83.32.14.91.21,1.76.21l-.27,1.16ZM976.59,445.13h-10.85l.93-1.55h9.76l.16,1.55Z" fill="#000" stroke-width="0"/>
    <path d="M994.89,443.69c0,2.54-.33,4.98-1,7.31-.67,2.33-1.69,4.48-3.06,6.45-1.37,1.97-2.81,3.37-4.31,4.2l-.67-1.93c1.75-1.34,3.16-3.43,4.23-6.26s1.61-5.97,1.63-9.43v-.55c0-2.39-.25-4.62-.75-6.67-.5-2.06-1.2-3.9-2.09-5.53-.89-1.63-1.9-2.9-3.02-3.81l.67-1.93c1.5.83,2.94,2.22,4.3,4.17,1.36,1.95,2.38,4.1,3.06,6.44.68,2.35,1.02,4.86,1.02,7.54Z" fill="#000" stroke-width="0"/>
  </g>
  <g>
    <path d="M121.91,315.72h-10.44v10.99h-3.28v-24.88h15.41v2.68h-12.13v8.53h10.44v2.68Z" fill="#000" stroke-width="0"/>
    <path d="M127.05,303.31c0-.51.16-.95.47-1.3.31-.35.78-.53,1.39-.53s1.08.18,1.4.53c.32.35.48.79.48,1.3s-.16.94-.48,1.28c-.32.34-.79.51-1.4.51s-1.08-.17-1.39-.51c-.31-.34-.47-.77-.47-1.28ZM130.47,326.7h-3.16v-18.49h3.16v18.49Z" fill="#000" stroke-width="0"/>
    <path d="M144.47,311.05c-.48-.08-1-.12-1.55-.12-2.07,0-3.48.88-4.22,2.65v13.12h-3.16v-18.49h3.08l.05,2.14c1.04-1.65,2.51-2.48,4.41-2.48.62,0,1.08.08,1.4.24v2.94Z" fill="#000" stroke-width="0"/>
    <path d="M158.14,321.8c0-.86-.32-1.52-.97-1.99s-1.77-.88-3.37-1.22c-1.6-.34-2.87-.75-3.81-1.23-.94-.48-1.63-1.05-2.08-1.71-.45-.66-.67-1.45-.67-2.36,0-1.52.64-2.8,1.92-3.85,1.28-1.05,2.92-1.57,4.91-1.57,2.1,0,3.8.54,5.1,1.62,1.3,1.08,1.96,2.47,1.96,4.15h-3.18c0-.87-.37-1.61-1.1-2.24-.74-.63-1.66-.94-2.78-.94s-2.05.25-2.7.75c-.65.5-.97,1.16-.97,1.97,0,.76.3,1.34.91,1.73.6.39,1.69.76,3.27,1.11,1.58.35,2.86.78,3.84,1.27.98.49,1.71,1.08,2.18,1.77s.71,1.53.71,2.52c0,1.65-.66,2.98-1.98,3.97-1.32,1-3.04,1.5-5.14,1.5-1.48,0-2.79-.26-3.93-.79-1.14-.52-2.03-1.26-2.67-2.2-.64-.94-.97-1.96-.97-3.05h3.16c.06,1.06.48,1.9,1.27,2.52.79.62,1.84.93,3.14.93,1.2,0,2.16-.24,2.88-.73.72-.48,1.08-1.13,1.08-1.94Z" fill="#000" stroke-width="0"/>
    <path d="M169.71,303.74v4.48h3.45v2.44h-3.45v11.48c0,.74.15,1.3.46,1.67.31.37.83.56,1.57.56.36,0,.87-.07,1.5-.21v2.55c-.83.23-1.64.34-2.43.34-1.41,0-2.48-.43-3.2-1.28-.72-.86-1.08-2.07-1.08-3.64v-11.47h-3.37v-2.44h3.37v-4.48h3.16Z" fill="#000" stroke-width="0"/>
    <path d="M194.46,311.05c-.48-.08-1-.12-1.55-.12-2.07,0-3.48.88-4.22,2.65v13.12h-3.16v-18.49h3.08l.05,2.14c1.04-1.65,2.51-2.48,4.41-2.48.62,0,1.08.08,1.4.24v2.94Z" fill="#000" stroke-width="0"/>
    <path d="M205.04,327.05c-2.51,0-4.55-.82-6.12-2.47-1.57-1.65-2.36-3.85-2.36-6.6v-.58c0-1.83.35-3.47,1.05-4.91.7-1.44,1.68-2.57,2.94-3.38,1.26-.81,2.62-1.22,4.09-1.22,2.4,0,4.27.79,5.61,2.38,1.33,1.58,2,3.85,2,6.8v1.32h-12.53c.04,1.82.58,3.3,1.6,4.42s2.32,1.68,3.89,1.68c1.12,0,2.06-.23,2.84-.68.77-.46,1.45-1.06,2.03-1.81l1.93,1.5c-1.55,2.38-3.87,3.57-6.97,3.57ZM204.64,310.47c-1.28,0-2.35.46-3.21,1.39-.87.93-1.4,2.23-1.61,3.91h9.26v-.24c-.09-1.61-.52-2.85-1.3-3.73-.78-.88-1.82-1.32-3.14-1.32Z" fill="#000" stroke-width="0"/>
    <path d="M226.67,321.8c0-.86-.32-1.52-.97-1.99s-1.77-.88-3.37-1.22c-1.6-.34-2.87-.75-3.81-1.23-.94-.48-1.63-1.05-2.08-1.71-.45-.66-.67-1.45-.67-2.36,0-1.52.64-2.8,1.92-3.85,1.28-1.05,2.92-1.57,4.91-1.57,2.1,0,3.8.54,5.1,1.62,1.3,1.08,1.96,2.47,1.96,4.15h-3.18c0-.87-.37-1.61-1.1-2.24-.74-.63-1.66-.94-2.78-.94s-2.05.25-2.7.75c-.65.5-.97,1.16-.97,1.97,0,.76.3,1.34.91,1.73.6.39,1.69.76,3.27,1.11,1.58.35,2.86.78,3.84,1.27.98.49,1.71,1.08,2.18,1.77s.71,1.53.71,2.52c0,1.65-.66,2.98-1.98,3.97-1.32,1-3.04,1.5-5.14,1.5-1.48,0-2.79-.26-3.93-.79-1.14-.52-2.03-1.26-2.67-2.2-.64-.94-.97-1.96-.97-3.05h3.16c.06,1.06.48,1.9,1.27,2.52.79.62,1.84.93,3.14.93,1.2,0,2.16-.24,2.88-.73.72-.48,1.08-1.13,1.08-1.94Z" fill="#000" stroke-width="0"/>
    <path d="M233.11,317.29c0-1.81.36-3.44,1.07-4.89.71-1.45,1.7-2.56,2.97-3.35s2.72-1.18,4.35-1.18c2.52,0,4.55.87,6.11,2.61,1.56,1.74,2.33,4.06,2.33,6.96v.22c0,1.8-.34,3.42-1.03,4.85s-1.67,2.54-2.96,3.34c-1.28.8-2.75,1.2-4.42,1.2-2.51,0-4.54-.87-6.09-2.62-1.55-1.74-2.33-4.05-2.33-6.92v-.22ZM236.29,317.66c0,2.05.47,3.7,1.43,4.94.95,1.24,2.22,1.86,3.82,1.86s2.88-.63,3.83-1.89c.95-1.26,1.42-3.02,1.42-5.29,0-2.03-.48-3.67-1.44-4.93-.96-1.26-2.24-1.89-3.84-1.89s-2.82.62-3.78,1.86c-.96,1.24-1.44,3.02-1.44,5.33Z" fill="#000" stroke-width="0"/>
    <path d="M256.9,308.21l.1,2.32c1.41-1.78,3.26-2.67,5.54-2.67,3.91,0,5.88,2.2,5.91,6.61v12.22h-3.16v-12.24c-.01-1.33-.32-2.32-.91-2.96-.6-.64-1.53-.96-2.79-.96-1.03,0-1.93.27-2.7.82-.77.55-1.38,1.26-1.81,2.15v13.18h-3.16v-18.49h2.99Z" fill="#000" stroke-width="0"/>
    <path d="M284.64,326.7c-.18-.36-.33-1.01-.44-1.95-1.47,1.53-3.22,2.29-5.26,2.29-1.82,0-3.32-.52-4.49-1.55-1.17-1.03-1.75-2.34-1.75-3.92,0-1.92.73-3.42,2.2-4.49,1.46-1.06,3.52-1.6,6.18-1.6h3.08v-1.45c0-1.1-.33-1.98-.99-2.64-.66-.66-1.64-.98-2.92-.98-1.13,0-2.07.29-2.84.85-.76.57-1.14,1.26-1.14,2.07h-3.18c0-.92.33-1.81.98-2.67.65-.86,1.54-1.54,2.67-2.04,1.12-.5,2.36-.75,3.7-.75,2.13,0,3.8.53,5.01,1.6,1.21,1.07,1.83,2.53,1.88,4.4v8.51c0,1.7.22,3.05.65,4.05v.27h-3.32ZM279.39,324.29c.99,0,1.93-.26,2.82-.77s1.53-1.18,1.93-2v-3.79h-2.48c-3.87,0-5.81,1.13-5.81,3.4,0,.99.33,1.77.99,2.32.66.56,1.51.84,2.55.84Z" fill="#000" stroke-width="0"/>
    <path d="M295.25,308.21l.1,2.32c1.41-1.78,3.26-2.67,5.54-2.67,3.91,0,5.88,2.2,5.91,6.61v12.22h-3.16v-12.24c-.01-1.33-.32-2.32-.91-2.96-.6-.64-1.53-.96-2.79-.96-1.03,0-1.93.27-2.7.82-.77.55-1.38,1.26-1.81,2.15v13.18h-3.16v-18.49h2.99Z" fill="#000" stroke-width="0"/>
    <path d="M315.86,303.74v4.48h3.45v2.44h-3.45v11.48c0,.74.15,1.3.46,1.67.31.37.83.56,1.57.56.36,0,.87-.07,1.5-.21v2.55c-.83.23-1.64.34-2.43.34-1.41,0-2.48-.43-3.2-1.28-.72-.86-1.08-2.07-1.08-3.64v-11.47h-3.37v-2.44h3.37v-4.48h3.16Z" fill="#000" stroke-width="0"/>
    <path d="M335.11,326.7h-3.16v-26.25h3.16v26.25Z" fill="#000" stroke-width="0"/>
    <path d="M347.84,327.05c-2.51,0-4.55-.82-6.12-2.47-1.57-1.65-2.36-3.85-2.36-6.6v-.58c0-1.83.35-3.47,1.05-4.91.7-1.44,1.68-2.57,2.94-3.38,1.26-.81,2.62-1.22,4.09-1.22,2.4,0,4.27.79,5.61,2.38,1.33,1.58,2,3.85,2,6.8v1.32h-12.53c.04,1.82.58,3.3,1.6,4.42s2.32,1.68,3.89,1.68c1.12,0,2.06-.23,2.84-.68.77-.46,1.45-1.06,2.03-1.81l1.93,1.5c-1.55,2.38-3.87,3.57-6.97,3.57ZM347.44,310.47c-1.28,0-2.35.46-3.21,1.39-.87.93-1.4,2.23-1.61,3.91h9.26v-.24c-.09-1.61-.52-2.85-1.3-3.73-.78-.88-1.82-1.32-3.14-1.32Z" fill="#000" stroke-width="0"/>
    <path d="M361.7,308.21l.1,2.32c1.41-1.78,3.26-2.67,5.54-2.67,3.91,0,5.88,2.2,5.91,6.61v12.22h-3.16v-12.24c-.01-1.33-.32-2.32-.91-2.96-.6-.64-1.53-.96-2.79-.96-1.03,0-1.93.27-2.7.82-.77.55-1.38,1.26-1.81,2.15v13.18h-3.16v-18.49h2.99Z" fill="#000" stroke-width="0"/>
    <path d="M377.27,317.3c0-2.88.67-5.18,2-6.88,1.33-1.7,3.1-2.55,5.3-2.55s4.02.8,5.28,2.39l.15-2.05h2.89v18.05c0,2.39-.71,4.28-2.13,5.66-1.42,1.38-3.32,2.07-5.72,2.07-1.33,0-2.64-.29-3.91-.85-1.28-.57-2.25-1.35-2.92-2.34l1.64-1.9c1.36,1.67,3.01,2.51,4.97,2.51,1.54,0,2.74-.43,3.6-1.3.86-.87,1.29-2.08,1.29-3.66v-1.59c-1.26,1.46-2.99,2.19-5.18,2.19s-3.92-.87-5.26-2.62c-1.34-1.74-2.01-4.12-2.01-7.13ZM380.45,317.66c0,2.09.43,3.72,1.28,4.91.85,1.19,2.05,1.79,3.59,1.79,1.99,0,3.46-.91,4.39-2.72v-8.44c-.97-1.77-2.42-2.65-4.36-2.65-1.54,0-2.74.6-3.61,1.79-.87,1.2-1.3,2.97-1.3,5.31Z" fill="#000" stroke-width="0"/>
    <path d="M401.94,303.74v4.48h3.45v2.44h-3.45v11.48c0,.74.15,1.3.46,1.67.31.37.83.56,1.57.56.36,0,.87-.07,1.5-.21v2.55c-.83.23-1.64.34-2.43.34-1.41,0-2.48-.43-3.2-1.28-.72-.86-1.08-2.07-1.08-3.64v-11.47h-3.37v-2.44h3.37v-4.48h3.16Z" fill="#000" stroke-width="0"/>
    <path d="M412.25,310.45c1.4-1.72,3.22-2.58,5.47-2.58,3.91,0,5.88,2.2,5.91,6.61v12.22h-3.16v-12.24c-.01-1.33-.32-2.32-.91-2.96-.6-.64-1.53-.96-2.79-.96-1.03,0-1.93.27-2.7.82-.77.55-1.38,1.26-1.81,2.15v13.18h-3.16v-26.25h3.16v10Z" fill="#000" stroke-width="0"/>
    <path d="M460.28,326.7h-19.14l.23-1.16c1.01,0,1.78-.09,2.31-.27s.94-.53,1.22-1.05c.28-.52.53-1.29.74-2.32l3.33-16.16c.18-.85.25-1.52.19-2.01s-.32-.83-.79-1.03c-.48-.19-1.27-.29-2.38-.29l.23-1.16h11l-.19,1.16c-.93,0-1.7.08-2.31.25-.61.17-1.09.5-1.45.99-.36.49-.65,1.2-.85,2.13l-3.53,17.36c-.18.85-.09,1.42.27,1.69.36.27,1.11.41,2.25.41h1.82c1.24,0,2.25-.11,3.02-.33.78-.22,1.43-.56,1.98-1.03.54-.46,1.05-1.09,1.53-1.88.48-.79,1.01-1.74,1.61-2.85h1.24l-2.33,7.56Z" fill="#000" stroke-width="0"/>
    <path d="M472.07,339.61h-7.21l.14-.63c.71,0,1.26-.05,1.65-.15s.68-.26.86-.47c.18-.22.31-.52.38-.89l2.03-9.56c.03-.12.05-.23.07-.32s.02-.17.02-.25c0-.36-.2-.54-.59-.54-.15,0-.34.02-.56.05-.23.03-.47.07-.72.12s-.51.12-.77.19l.16-.75,4.31-1.24h.66l-2.62,12.29c-.02.08-.03.15-.03.23,0,.08-.01.15-.01.23,0,.38.18.65.53.81.35.17.97.25,1.84.25l-.13.63Z" fill="#000" stroke-width="0"/>
    <path d="M505.45,313.45h-23.09v-2.64h23.09v2.64ZM505.45,322.64h-23.09v-2.6h23.09v2.6Z" fill="#000" stroke-width="0"/>
  </g>
  <g>
    <line x1="565.16" y1="119.16" x2="660.64" y2="119.16" fill="none" stroke="#d12d32" stroke-miterlimit="10" stroke-width="8.75"/>
    <polyline points="771.41 102.91 657.66 102.91 657.66 135.41 771.41 135.41" fill="none" stroke="#d12d32" stroke-miterlimit="10" stroke-width="8.75"/>
  </g>
  <line x1="683.88" y1="453.85" x2="683.88" y2="170.48" fill="none" stroke="#000" stroke-miterlimit="10" stroke-width="3.75"/>
  <line x1="771.26" y1="170.48" x2="771.26" y2="453.85" fill="none" stroke="#000" stroke-miterlimit="10" stroke-width="3.75"/>
  <g>
    <line x1="560.04" y1="170.41" x2="563.79" y2="170.41" fill="none" stroke="#000" stroke-linecap="round" stroke-linejoin="round" stroke-width="2.5"/>
    <line x1="570.97" y1="170.41" x2="667.81" y2="170.41" fill="none" stroke="#000" stroke-dasharray="0 0 7.17 7.17" stroke-linecap="round" stroke-linejoin="round" stroke-width="2.5"/>
    <line x1="671.4" y1="170.41" x2="675.15" y2="170.41" fill="none" stroke="#000" stroke-linecap="round" stroke-linejoin="round" stroke-width="2.5"/>
  </g>
  <g>
    <line x1="560.04" y1="453.85" x2="563.79" y2="453.85" fill="none" stroke="#000" stroke-linecap="round" stroke-linejoin="round" stroke-width="2.5"/>
    <line x1="570.97" y1="453.85" x2="667.81" y2="453.85" fill="none" stroke="#000" stroke-dasharray="0 0 7.17 7.17" stroke-linecap="round" stroke-linejoin="round" stroke-width="2.5"/>
    <line x1="671.4" y1="453.85" x2="675.15" y2="453.85" fill="none" stroke="#000" stroke-linecap="round" stroke-linejoin="round" stroke-width="2.5"/>
  </g>
  <g>
    <line x1="614.65" y1="437.82" x2="614.65" y2="188.2" fill="none" stroke="#000" stroke-linecap="round" stroke-linejoin="round" stroke-width="2.5"/>
    <polygon points="624.62 434.9 614.65 452.17 604.67 434.9 624.62 434.9" fill="#000" stroke-width="0"/>
    <polygon points="624.62 191.12 614.65 173.85 604.67 191.12 624.62 191.12" fill="#000" stroke-width="0"/>
  </g>
  <path d="M543.76,358.19h-16.3v-2.27l8.61-9.57c1.28-1.45,2.16-2.62,2.64-3.53.48-.91.73-1.84.73-2.81,0-1.3-.39-2.36-1.18-3.2-.79-.83-1.83-1.25-3.14-1.25-1.57,0-2.79.45-3.67,1.34-.87.89-1.31,2.14-1.31,3.73h-3.16c0-2.29.74-4.14,2.21-5.55,1.47-1.41,3.45-2.12,5.92-2.12,2.31,0,4.14.61,5.49,1.82,1.34,1.21,2.02,2.83,2.02,4.84,0,2.45-1.56,5.37-4.68,8.75l-6.67,7.23h12.49v2.58Z" fill="#000" stroke-width="0"/>
  <path d="M528.33,299.86h-3.88v-.62c1.37-1.86,2.83-3.84,4.38-5.93,1.55-2.09,3.1-4.18,4.65-6.26s3-4.02,4.34-5.83l.23,4.15h-.85c-.23.34-.62.92-1.16,1.76-.54.84-1.16,1.82-1.84,2.95-.68,1.12-1.39,2.29-2.13,3.51s-1.43,2.37-2.09,3.47c-.66,1.1-1.21,2.03-1.65,2.81ZM539.53,300.32c-1.06,0-1.82-.43-2.27-1.28-.45-.85-.68-2.01-.68-3.49,0-1.06.04-2.07.14-3.02.09-.96.2-2,.33-3.14.13-1.14.24-2.48.33-4.03.09-1.55.14-3.46.14-5.73,0-1.29-.19-2.3-.58-3.02-.39-.72-1-1.08-1.82-1.08-.65,0-1.21.1-1.69.31-.48.21-.98.54-1.49,1.01l-.81-.58c.41-.72.88-1.36,1.39-1.92.52-.56,1.1-.99,1.76-1.32.66-.32,1.39-.48,2.19-.48.93,0,1.6.27,2.02.79.41.53.67,1.22.76,2.07.09.85.13,1.8.13,2.83,0,1.58-.04,3.11-.12,4.61-.08,1.5-.16,2.97-.25,4.42-.09,1.45-.13,2.88-.13,4.3,0,1.63.17,2.98.52,4.05.35,1.07.94,1.61,1.76,1.61.52,0,.99-.1,1.43-.29.44-.19.9-.55,1.39-1.07l.66.62c-.39.72-.86,1.38-1.41,1.96-.56.58-1.15,1.04-1.78,1.38s-1.27.5-1.92.5Z" fill="#000" stroke-width="0"/>
  <path d="M553.35,318.76h-36.42l.46-2.21h36.42l-.46,2.21Z" fill="#000" stroke-width="0"/>
</svg>