<?xml version="1.0" encoding="UTF-8"?><svg id="c" xmlns="http://www.w3.org/2000/svg" width="1140" height="474" viewBox="0 0 1140 474"><path d="m435.16,30.5V9.17h6.56c1.88,0,3.55.42,5.03,1.27s2.63,2.05,3.46,3.6,1.25,3.33,1.25,5.31v.98c0,1.98-.41,3.75-1.22,5.29s-1.97,2.74-3.45,3.59-3.16,1.28-5.02,1.29h-6.61Zm4.39-17.77v14.24h2.12c1.72,0,3.03-.56,3.94-1.68s1.37-2.73,1.39-4.82v-1.13c0-2.17-.45-3.81-1.35-4.93s-2.21-1.68-3.94-1.68h-2.17Z"/><path d="m454.35,10.55c0-.63.21-1.16.64-1.57s1-.62,1.74-.62,1.3.21,1.73.62.64.93.64,1.57-.22,1.17-.65,1.58-1.01.62-1.72.62-1.29-.21-1.72-.62-.65-.94-.65-1.58Zm4.5,19.95h-4.25v-15.85h4.25v15.85Z"/><path d="m471.24,18.62c-.58-.08-1.08-.12-1.52-.12-1.6,0-2.65.54-3.15,1.63v10.37h-4.23v-15.85h4l.12,1.89c.85-1.46,2.03-2.18,3.53-2.18.47,0,.91.06,1.32.19l-.06,4.07Z"/><path d="m480.29,30.79c-2.32,0-4.22-.71-5.68-2.14s-2.19-3.33-2.19-5.7v-.41c0-1.59.31-3.02.92-4.27s1.49-2.22,2.61-2.9,2.41-1.02,3.86-1.02c2.17,0,3.87.68,5.12,2.05s1.87,3.31,1.87,5.82v1.73h-10.09c.14,1.04.55,1.87,1.24,2.49s1.56.94,2.61.94c1.63,0,2.91-.59,3.82-1.77l2.08,2.33c-.63.9-1.49,1.6-2.58,2.1s-2.29.75-3.6.75Zm-.48-13.02c-.84,0-1.52.28-2.04.85s-.86,1.38-1,2.44h5.89v-.34c-.02-.94-.27-1.67-.76-2.19s-1.18-.77-2.08-.77Z"/><path d="m495.8,27.38c.78,0,1.42-.21,1.9-.64s.74-1,.76-1.71h3.97c0,1.07-.3,2.06-.88,2.95s-1.36,1.59-2.37,2.08-2.11.74-3.32.74c-2.27,0-4.05-.72-5.36-2.16s-1.96-3.43-1.96-5.97v-.28c0-2.44.65-4.39,1.95-5.84s3.08-2.18,5.35-2.18c1.98,0,3.57.56,4.77,1.69s1.8,2.63,1.82,4.5h-3.97c-.02-.82-.27-1.49-.76-2.01-.49-.52-1.13-.77-1.93-.77-.99,0-1.73.36-2.23,1.08-.5.72-.75,1.89-.75,3.5v.44c0,1.63.25,2.81.75,3.52s1.25,1.07,2.27,1.07Z"/><path d="m509.93,10.75v3.9h2.71v3.11h-2.71v7.91c0,.59.11,1.01.34,1.26s.65.38,1.29.38c.47,0,.88-.03,1.25-.1v3.21c-.83.25-1.68.38-2.56.38-2.97,0-4.48-1.5-4.54-4.5v-8.54h-2.31v-3.11h2.31v-3.9h4.23Z"/><path d="m514.96,10.55c0-.63.21-1.16.64-1.57s1-.62,1.74-.62,1.3.21,1.73.62.64.93.64,1.57-.22,1.17-.65,1.58-1.01.62-1.72.62-1.29-.21-1.72-.62-.65-.94-.65-1.58Zm4.5,19.95h-4.25v-15.85h4.25v15.85Z"/><path d="m522.29,22.43c0-1.57.3-2.97.91-4.2s1.48-2.18,2.61-2.86,2.46-1.01,3.96-1.01c2.14,0,3.88.65,5.24,1.96s2.11,3.09,2.26,5.33l.03,1.08c0,2.43-.68,4.38-2.04,5.85s-3.18,2.2-5.46,2.2-4.11-.73-5.47-2.2-2.04-3.46-2.04-5.98v-.19Zm4.23.3c0,1.51.28,2.66.85,3.46.57.8,1.38,1.2,2.43,1.2s1.83-.39,2.4-1.18c.58-.79.86-2.05.86-3.78,0-1.48-.29-2.62-.86-3.43s-1.39-1.22-2.43-1.22-1.84.4-2.4,1.21-.85,2.06-.85,3.75Z"/><path d="m543.81,14.65l.13,1.83c1.13-1.42,2.65-2.12,4.56-2.12,1.68,0,2.93.49,3.75,1.48s1.24,2.46,1.26,4.42v10.24h-4.23v-10.14c0-.9-.2-1.55-.59-1.96s-1.04-.61-1.95-.61c-1.19,0-2.08.51-2.68,1.52v11.18h-4.23v-15.85h3.98Z"/><path d="m563.52,22.43c0-1.57.3-2.97.91-4.2s1.48-2.18,2.61-2.86,2.46-1.01,3.96-1.01c2.14,0,3.88.65,5.24,1.96s2.11,3.09,2.26,5.33l.03,1.08c0,2.43-.68,4.38-2.04,5.85s-3.18,2.2-5.46,2.2-4.11-.73-5.47-2.2-2.04-3.46-2.04-5.98v-.19Zm4.23.3c0,1.51.28,2.66.85,3.46.57.8,1.38,1.2,2.43,1.2s1.83-.39,2.4-1.18c.58-.79.86-2.05.86-3.78,0-1.48-.29-2.62-.86-3.43s-1.39-1.22-2.43-1.22-1.84.4-2.4,1.21-.85,2.06-.85,3.75Z"/><path d="m582.3,30.5v-12.74h-2.36v-3.11h2.36v-1.35c0-1.78.51-3.16,1.53-4.14s2.45-1.47,4.28-1.47c.59,0,1.3.1,2.15.29l-.04,3.28c-.35-.09-.78-.13-1.29-.13-1.59,0-2.39.75-2.39,2.24v1.27h3.15v3.11h-3.15v12.74h-4.25Z"/><path d="m613.15,24.74l2.08-10.09h4.09l-4.04,15.85h-3.54l-3-9.98-3,9.98h-3.53l-4.04-15.85h4.09l2.07,10.08,2.9-10.08h3.06l2.89,10.09Z"/><path d="m630.6,30.5c-.2-.38-.34-.85-.42-1.42-1.03,1.14-2.36,1.71-4,1.71-1.55,0-2.84-.45-3.86-1.35s-1.53-2.03-1.53-3.4c0-1.68.62-2.97,1.87-3.87s3.04-1.35,5.4-1.36h1.95v-.91c0-.73-.19-1.32-.56-1.76s-.97-.66-1.78-.66c-.71,0-1.27.17-1.68.51s-.61.81-.61,1.41h-4.23c0-.92.28-1.77.85-2.55s1.37-1.39,2.4-1.84,2.2-.67,3.49-.67c1.95,0,3.5.49,4.65,1.47s1.72,2.36,1.72,4.14v6.87c0,1.5.22,2.64.63,3.41v.25h-4.28Zm-3.5-2.94c.62,0,1.2-.14,1.73-.42s.92-.65,1.17-1.12v-2.72h-1.58c-2.12,0-3.25.73-3.38,2.2v.25c-.01.53.17.96.54,1.3s.88.51,1.52.51Z"/><path d="m643.21,25.33l2.94-10.68h4.42l-5.35,15.85h-4.04l-5.35-15.85h4.42l2.94,10.68Z"/><path d="m659.54,30.79c-2.32,0-4.22-.71-5.68-2.14s-2.19-3.33-2.19-5.7v-.41c0-1.59.31-3.02.92-4.27s1.49-2.22,2.61-2.9,2.41-1.02,3.86-1.02c2.17,0,3.87.68,5.12,2.05s1.87,3.31,1.87,5.82v1.73h-10.09c.14,1.04.55,1.87,1.24,2.49s1.56.94,2.61.94c1.63,0,2.91-.59,3.82-1.77l2.08,2.33c-.63.9-1.49,1.6-2.58,2.1s-2.29.75-3.6.75Zm-.48-13.02c-.84,0-1.52.28-2.04.85s-.86,1.38-1,2.44h5.89v-.34c-.02-.94-.27-1.67-.76-2.19s-1.18-.77-2.08-.77Z"/><path d="m679.91,14.65l.13,1.77c1.12-1.38,2.64-2.07,4.56-2.07,2.04,0,3.44.81,4.2,2.42,1.11-1.61,2.7-2.42,4.76-2.42,1.72,0,3,.5,3.84,1.5s1.26,2.51,1.26,4.52v10.12h-4.25v-10.11c0-.9-.18-1.56-.53-1.97s-.97-.62-1.86-.62c-1.27,0-2.15.61-2.64,1.82v10.88s-4.22,0-4.22,0v-10.09c0-.92-.18-1.58-.54-1.99s-.98-.62-1.85-.62c-1.2,0-2.07.5-2.61,1.49v11.21h-4.23v-15.85h3.97Z"/><path d="m701.25,22.43c0-1.57.3-2.97.91-4.2s1.48-2.18,2.61-2.86,2.46-1.01,3.96-1.01c2.14,0,3.88.65,5.24,1.96s2.11,3.09,2.26,5.33l.03,1.08c0,2.43-.68,4.38-2.04,5.85s-3.18,2.2-5.46,2.2-4.11-.73-5.47-2.2-2.04-3.46-2.04-5.98v-.19Zm4.23.3c0,1.51.28,2.66.85,3.46.57.8,1.38,1.2,2.43,1.2s1.83-.39,2.4-1.18c.58-.79.86-2.05.86-3.78,0-1.48-.29-2.62-.86-3.43s-1.39-1.22-2.43-1.22-1.84.4-2.4,1.21-.85,2.06-.85,3.75Z"/><path d="m723.94,10.75v3.9h2.71v3.11h-2.71v7.91c0,.59.11,1.01.34,1.26s.65.38,1.29.38c.47,0,.88-.03,1.25-.1v3.21c-.83.25-1.68.38-2.56.38-2.97,0-4.48-1.5-4.54-4.5v-8.54h-2.31v-3.11h2.31v-3.9h4.23Z"/><path d="m728.98,10.55c0-.63.21-1.16.64-1.57s1-.62,1.74-.62,1.3.21,1.73.62.64.93.64,1.57-.22,1.17-.65,1.58-1.01.62-1.72.62-1.29-.21-1.72-.62-.65-.94-.65-1.58Zm4.5,19.95h-4.25v-15.85h4.25v15.85Z"/><path d="m736.3,22.43c0-1.57.3-2.97.91-4.2s1.48-2.18,2.61-2.86,2.46-1.01,3.96-1.01c2.14,0,3.88.65,5.24,1.96s2.11,3.09,2.26,5.33l.03,1.08c0,2.43-.68,4.38-2.04,5.85s-3.18,2.2-5.46,2.2-4.11-.73-5.47-2.2-2.04-3.46-2.04-5.98v-.19Zm4.23.3c0,1.51.28,2.66.85,3.46.57.8,1.38,1.2,2.43,1.2s1.83-.39,2.4-1.18c.58-.79.86-2.05.86-3.78,0-1.48-.29-2.62-.86-3.43s-1.39-1.22-2.43-1.22-1.84.4-2.4,1.21-.85,2.06-.85,3.75Z"/><path d="m757.82,14.65l.13,1.83c1.13-1.42,2.65-2.12,4.56-2.12,1.68,0,2.93.49,3.75,1.48s1.24,2.46,1.26,4.42v10.24h-4.23v-10.14c0-.9-.2-1.55-.59-1.96s-1.04-.61-1.95-.61c-1.19,0-2.08.51-2.68,1.52v11.18h-4.23v-15.85h3.98Z"/><line x1="192" y1="244" x2="195" y2="244" fill="none" stroke="#000" stroke-linecap="round" stroke-linejoin="round" stroke-width="2"/><line x1="200.97" y1="244" x2="1081.02" y2="244" fill="none" stroke="#000" stroke-dasharray="0 0 5.97 5.97" stroke-linecap="round" stroke-linejoin="round" stroke-width="2"/><line x1="1084" y1="244" x2="1087" y2="244" fill="none" stroke="#000" stroke-linecap="round" stroke-linejoin="round" stroke-width="2"/><path d="m1076.57,244.25c-4.75,15.46-10.63,30.5-16.78,45.46-.91,2.2-1.82,4.4-2.73,6.59-8.03,19.29-16.68,38.68-28,56.31-5.36,8.34-14.52,23.38-26.08,23.38-33.5,0-77.01-132.22-77.01-132.22,0,0-40.98-132.98-75.95-132.98-10.36,0-18.33,10.42-23.58,18.08-8.66,12.62-14.97,26.88-20.64,41.04-16.03,39.99-25.48,82.12-41.72,122.1-3.17,7.81-6.53,15.53-10.03,23.2-6.6,14.42-13.7,28.88-22.8,41.92-5.02,7.19-13.08,18.87-23.07,18.87-33.5,0-77.01-132.22-77.01-132.22,0,0-40.98-132.98-75.94-132.98-13.73,0-23.55,17.16-29.35,27.38-9.95,17.54-17.2,36.64-23.72,55.67-5.5,16.09-9.99,32.49-14.89,48.77-4.83,16.04-10.91,31.61-17.28,47.09-.91,2.2-1.82,4.4-2.73,6.59-8.03,19.29-16.68,38.68-28,56.31-5.36,8.34-14.52,23.38-26.08,23.38-33.5,0-77.01-132.22-77.01-132.22,0,0-40.98-132.98-75.94-132.98s-67.98,132.98-67.98,132.98" fill="none" stroke="#000" stroke-linecap="round" stroke-linejoin="round" stroke-width="2"/><line x1="690.52" y1="376" x2="433.48" y2="376" fill="none" stroke="#0077a2" stroke-miterlimit="10" stroke-width="2"/><polygon points="688.18 368.02 702 376 688.18 383.98 688.18 368.02" fill="#0077a2"/><polygon points="435.82 368.02 422 376 435.82 383.98 435.82 368.02" fill="#0077a2"/><line x1="831.52" y1="109" x2="574.48" y2="109" fill="none" stroke="#0077a2" stroke-miterlimit="10" stroke-width="2"/><polygon points="829.18 101.02 843 109 829.18 116.98 829.18 101.02" fill="#0077a2"/><polygon points="576.82 101.02 563 109 576.82 116.98 576.82 101.02" fill="#0077a2"/><line x1="910.52" y1="244" x2="647.48" y2="244" fill="none" stroke="#0077a2" stroke-miterlimit="10" stroke-width="2"/><polygon points="908.18 236.02 922 244 908.18 251.98 908.18 236.02" fill="#0077a2"/><polygon points="649.82 236.02 636 244 649.82 251.98 649.82 236.02" fill="#0077a2"/><line x1="589.52" y1="172" x2="326.48" y2="172" fill="none" stroke="#0077a2" stroke-miterlimit="10" stroke-width="2"/><polygon points="587.18 164.02 601 172 587.18 179.98 587.18 164.02" fill="#0077a2"/><polygon points="328.82 164.02 315 172 328.82 179.98 328.82 164.02" fill="#0077a2"/><line x1="181.18" y1="102.77" x2="181.18" y2="218.82" fill="none" stroke="#000" stroke-miterlimit="10" stroke-width="2"/><polygon points="173.2 216.48 181.18 230.3 189.16 216.48 173.2 216.48"/><line x1="165.18" y1="230.3" x2="165.18" y2="114.25" fill="none" stroke="#000" stroke-miterlimit="10" stroke-width="2"/><polygon points="173.16 116.58 165.18 102.77 157.2 116.58 173.16 116.58"/><line x1="519.41" y1="55.53" x2="635.46" y2="55.53" fill="none" stroke="#5c539c" stroke-miterlimit="10" stroke-width="2"/><polygon points="633.13 63.51 646.95 55.53 633.13 47.56 633.13 63.51" fill="#5c539c"/><line x1="181.18" y1="250.77" x2="181.18" y2="366.82" fill="none" stroke="#000" stroke-miterlimit="10" stroke-width="2"/><polygon points="173.2 364.48 181.18 378.3 189.16 364.48 173.2 364.48"/><line x1="165.18" y1="378.3" x2="165.18" y2="262.25" fill="none" stroke="#000" stroke-miterlimit="10" stroke-width="2"/><polygon points="173.16 264.58 165.18 250.77 157.2 264.58 173.16 264.58"/><path d="m712.73,93.6c.48,2.35,1.18,4.12,2.49,4.12.84,0,1.37-.31,1.93-1.01l.48.31c-.59,1.57-1.74,2.88-3.22,2.88s-2.35-1.29-2.77-3.42c-.5-2.52-.45-4.98-.76-7.67h-.14c-.64,1.26-3.39,7.98-4.48,10.78h-2.72l-.08-.45c2.13-3.92,4.73-8.9,6.83-12.85-.06-.59-.08-.64-.22-1.51-.34-1.74-1.18-2.94-2.35-2.94-.84,0-1.43.34-1.99,1.09l-.48-.22c.67-1.68,1.51-2.88,3.22-2.88,1.9,0,2.32,1.93,2.77,4.14.64,3.42.9,6.55,1.48,9.63Z"/><path d="m463.73,153.6c.48,2.35,1.18,4.12,2.49,4.12.84,0,1.37-.31,1.93-1.01l.48.31c-.59,1.57-1.74,2.88-3.22,2.88s-2.35-1.29-2.77-3.42c-.5-2.52-.45-4.98-.76-7.67h-.14c-.64,1.26-3.39,7.98-4.48,10.78h-2.72l-.08-.45c2.13-3.92,4.73-8.9,6.83-12.85-.06-.59-.08-.64-.22-1.51-.34-1.74-1.18-2.94-2.35-2.94-.84,0-1.43.34-1.99,1.09l-.48-.22c.67-1.68,1.51-2.88,3.22-2.88,1.9,0,2.32,1.93,2.77,4.14.64,3.42.9,6.55,1.48,9.63Z"/><path d="m561.73,401.6c.48,2.35,1.18,4.12,2.49,4.12.84,0,1.37-.31,1.93-1.01l.48.31c-.59,1.57-1.74,2.88-3.22,2.88s-2.35-1.29-2.77-3.42c-.5-2.52-.45-4.98-.76-7.67h-.14c-.64,1.26-3.39,7.98-4.48,10.78h-2.72l-.08-.45c2.13-3.92,4.73-8.9,6.83-12.85-.06-.59-.08-.64-.22-1.51-.34-1.74-1.18-2.94-2.35-2.94-.84,0-1.43.34-1.99,1.09l-.48-.22c.67-1.68,1.51-2.88,3.22-2.88,1.9,0,2.32,1.93,2.77,4.14.64,3.42.9,6.55,1.48,9.63Z"/><path d="m792.73,270.6c.48,2.35,1.18,4.12,2.49,4.12.84,0,1.37-.31,1.93-1.01l.48.31c-.59,1.57-1.74,2.88-3.22,2.88s-2.35-1.29-2.77-3.42c-.5-2.52-.45-4.98-.76-7.67h-.14c-.64,1.26-3.39,7.98-4.48,10.78h-2.72l-.08-.45c2.13-3.92,4.73-8.9,6.83-12.85-.06-.59-.08-.64-.22-1.51-.34-1.74-1.18-2.94-2.35-2.94-.84,0-1.43.34-1.99,1.09l-.48-.22c.67-1.68,1.51-2.88,3.22-2.88,1.9,0,2.32,1.93,2.77,4.14.64,3.42.9,6.55,1.48,9.63Z"/><path d="m57.05,412.25v7.79h-2.62v-19.91h7.34c2.18,0,3.88.56,5.12,1.67,1.23,1.11,1.85,2.58,1.85,4.42,0,1.93-.6,3.42-1.81,4.46-1.21,1.04-2.94,1.57-5.19,1.57h-4.69Zm0-2.15h4.72c1.4,0,2.48-.33,3.23-.99.75-.66,1.12-1.62,1.12-2.87s-.37-2.14-1.12-2.85c-.75-.71-1.77-1.08-3.08-1.11h-4.87v7.82Z"/><path d="m80.67,420.04c-.15-.29-.26-.81-.36-1.56-1.18,1.22-2.58,1.83-4.21,1.83-1.46,0-2.65-.41-3.59-1.24-.93-.83-1.4-1.87-1.4-3.14,0-1.54.59-2.74,1.76-3.59,1.17-.85,2.82-1.28,4.94-1.28h2.46v-1.16c0-.88-.26-1.59-.79-2.11-.53-.52-1.31-.79-2.34-.79-.9,0-1.66.23-2.27.68-.61.46-.92,1.01-.92,1.65h-2.54c0-.74.26-1.45.79-2.14.52-.69,1.23-1.23,2.13-1.63.9-.4,1.88-.6,2.96-.6,1.7,0,3.04.43,4.01,1.28.97.85,1.47,2.03,1.5,3.52v6.81c0,1.36.17,2.44.52,3.24v.22h-2.65Zm-4.2-1.93c.79,0,1.54-.21,2.26-.62s1.23-.94,1.54-1.6v-3.04h-1.98c-3.1,0-4.65.91-4.65,2.72,0,.79.26,1.41.79,1.86.53.45,1.21.67,2.04.67Z"/><path d="m93.92,407.52c-.38-.06-.8-.1-1.24-.1-1.66,0-2.78.71-3.38,2.12v10.5h-2.53v-14.79h2.46l.04,1.71c.83-1.32,2-1.98,3.53-1.98.49,0,.87.06,1.12.19v2.35Z"/><path d="m100.36,401.67v3.58h2.76v1.96h-2.76v9.19c0,.59.12,1.04.37,1.33.25.3.67.45,1.26.45.29,0,.69-.05,1.2-.16v2.04c-.67.18-1.31.27-1.94.27-1.13,0-1.98-.34-2.56-1.03s-.86-1.65-.86-2.91v-9.17h-2.69v-1.96h2.69v-3.58h2.53Z"/><path d="m106.09,401.33c0-.41.12-.76.38-1.04.25-.28.62-.42,1.11-.42s.87.14,1.12.42c.25.28.38.63.38,1.04s-.13.75-.38,1.03c-.26.27-.63.41-1.12.41s-.86-.14-1.11-.41c-.25-.27-.38-.62-.38-1.03Zm2.73,18.72h-2.53v-14.79h2.53v14.79Z"/><path d="m118.8,418.25c.9,0,1.69-.27,2.37-.82.67-.55,1.05-1.23,1.12-2.05h2.39c-.05.85-.34,1.65-.88,2.42-.54.77-1.26,1.38-2.15,1.83-.9.46-1.85.68-2.85.68-2.01,0-3.62-.67-4.81-2.02s-1.78-3.18-1.78-5.52v-.42c0-1.44.26-2.72.79-3.84.53-1.12,1.29-1.99,2.28-2.61.99-.62,2.16-.93,3.51-.93,1.66,0,3.04.5,4.14,1.49,1.1.99,1.68,2.28,1.76,3.87h-2.39c-.07-.96-.44-1.74-1.09-2.36-.65-.62-1.46-.92-2.41-.92-1.29,0-2.28.46-2.99,1.39-.71.92-1.06,2.26-1.06,4.01v.48c0,1.7.35,3.02,1.05,3.94.7.92,1.7,1.38,3.01,1.38Z"/><path d="m130.27,420.04h-2.53v-21h2.53v21Z"/><path d="m140.46,420.32c-2.01,0-3.64-.66-4.89-1.98s-1.89-3.08-1.89-5.28v-.46c0-1.47.28-2.78.84-3.93s1.34-2.06,2.35-2.71c1.01-.65,2.1-.98,3.27-.98,1.92,0,3.42.63,4.48,1.9s1.6,3.08,1.6,5.44v1.05h-10.02c.04,1.46.46,2.64,1.28,3.53.82.9,1.85,1.35,3.11,1.35.89,0,1.65-.18,2.27-.55.62-.36,1.16-.85,1.63-1.45l1.54,1.2c-1.24,1.91-3.1,2.86-5.58,2.86Zm-.31-13.26c-1.02,0-1.88.37-2.57,1.11-.69.74-1.12,1.78-1.29,3.12h7.41v-.19c-.07-1.29-.42-2.28-1.04-2.99-.62-.71-1.46-1.06-2.52-1.06Z"/><path d="m165.22,420.04c-.15-.29-.26-.81-.36-1.56-1.18,1.22-2.58,1.83-4.21,1.83-1.46,0-2.65-.41-3.59-1.24s-1.4-1.87-1.4-3.14c0-1.54.59-2.74,1.76-3.59s2.82-1.28,4.94-1.28h2.46v-1.16c0-.88-.26-1.59-.79-2.11s-1.31-.79-2.34-.79c-.9,0-1.66.23-2.27.68s-.92,1.01-.92,1.65h-2.54c0-.74.26-1.45.79-2.14s1.24-1.23,2.13-1.63,1.88-.6,2.96-.6c1.7,0,3.04.43,4.01,1.28s1.47,2.03,1.5,3.52v6.81c0,1.36.17,2.44.52,3.24v.22h-2.65Zm-4.2-1.93c.79,0,1.54-.21,2.26-.62s1.23-.94,1.54-1.6v-3.04h-1.98c-3.1,0-4.65.91-4.65,2.72,0,.79.26,1.41.79,1.86s1.21.67,2.04.67Z"/><path d="m173.71,405.25l.08,1.86c1.13-1.42,2.61-2.13,4.43-2.13,3.13,0,4.7,1.76,4.73,5.29v9.78h-2.53v-9.79c0-1.07-.25-1.85-.73-2.37s-1.22-.77-2.24-.77c-.82,0-1.54.22-2.16.66s-1.1,1.01-1.45,1.72v10.54h-2.53v-14.79h2.39Z"/><path d="m186.15,412.52c0-2.27.54-4.09,1.61-5.48s2.48-2.07,4.22-2.07,3.1.59,4.12,1.78v-7.71h2.53v21h-2.32l-.12-1.59c-1.01,1.24-2.42,1.86-4.22,1.86s-3.11-.7-4.19-2.11-1.62-3.24-1.62-5.5v-.19Zm2.53.29c0,1.68.35,2.99,1.04,3.94s1.65,1.42,2.87,1.42c1.6,0,2.78-.72,3.51-2.16v-6.79c-.76-1.39-1.92-2.09-3.49-2.09-1.24,0-2.21.48-2.9,1.44s-1.04,2.37-1.04,4.25Z"/><path d="m218.1,416.12c0-.68-.26-1.21-.77-1.59s-1.41-.7-2.69-.98-2.3-.6-3.05-.98-1.31-.84-1.67-1.37-.54-1.16-.54-1.89c0-1.21.51-2.24,1.54-3.08s2.34-1.26,3.93-1.26c1.68,0,3.04.43,4.08,1.3s1.57,1.97,1.57,3.32h-2.54c0-.69-.29-1.29-.88-1.79s-1.33-.75-2.22-.75-1.64.2-2.16.6-.78.92-.78,1.57c0,.61.24,1.07.72,1.38s1.36.61,2.62.89,2.29.62,3.07,1.01,1.37.86,1.74,1.42.57,1.22.57,2.02c0,1.32-.53,2.38-1.59,3.18s-2.43,1.2-4.12,1.2c-1.18,0-2.23-.21-3.14-.63s-1.62-1-2.14-1.76-.77-1.57-.77-2.44h2.53c.05.85.38,1.52,1.02,2.02s1.47.75,2.51.75c.96,0,1.72-.19,2.3-.58s.87-.9.87-1.55Z"/><path d="m223.26,412.51c0-1.45.29-2.75.85-3.91s1.36-2.05,2.38-2.68,2.18-.94,3.48-.94c2.01,0,3.64.7,4.89,2.09s1.87,3.25,1.87,5.56v.18c0,1.44-.28,2.73-.83,3.88s-1.34,2.04-2.37,2.67-2.2.96-3.53.96c-2,0-3.63-.7-4.87-2.09s-1.87-3.24-1.87-5.54v-.18Zm2.54.3c0,1.64.38,2.96,1.14,3.95s1.78,1.49,3.06,1.49,2.31-.5,3.06-1.51,1.13-2.42,1.13-4.23c0-1.62-.38-2.94-1.16-3.94s-1.79-1.51-3.07-1.51-2.26.5-3.02,1.49-1.15,2.42-1.15,4.27Z"/><path d="m249.03,418.58c-.98,1.16-2.43,1.74-4.33,1.74-1.58,0-2.78-.46-3.6-1.37s-1.24-2.27-1.25-4.07v-9.62h2.53v9.56c0,2.24.91,3.36,2.73,3.36,1.93,0,3.22-.72,3.86-2.16v-10.76h2.53v14.79h-2.41l-.05-1.46Z"/><path d="m262.48,407.52c-.38-.06-.8-.1-1.24-.1-1.66,0-2.78.71-3.38,2.12v10.5h-2.53v-14.79h2.46l.04,1.71c.83-1.32,2-1.98,3.53-1.98.49,0,.87.06,1.12.19v2.35Z"/><path d="m270.48,418.25c.9,0,1.69-.27,2.37-.82s1.05-1.23,1.12-2.05h2.39c-.05.85-.34,1.65-.88,2.42s-1.26,1.38-2.15,1.83c-.9.46-1.85.68-2.85.68-2.01,0-3.62-.67-4.81-2.02s-1.78-3.18-1.78-5.52v-.42c0-1.44.26-2.72.79-3.84s1.29-1.99,2.28-2.61,2.16-.93,3.51-.93c1.66,0,3.04.5,4.14,1.49s1.68,2.28,1.76,3.87h-2.39c-.07-.96-.44-1.74-1.09-2.36s-1.46-.92-2.41-.92c-1.29,0-2.28.46-2.99,1.39s-1.06,2.26-1.06,4.01v.48c0,1.7.35,3.02,1.05,3.94s1.7,1.38,3.01,1.38Z"/><path d="m285.34,420.32c-2,0-3.64-.66-4.89-1.98s-1.89-3.08-1.89-5.28v-.46c0-1.47.28-2.78.84-3.93s1.34-2.06,2.35-2.71,2.1-.98,3.27-.98c1.92,0,3.42.63,4.48,1.9s1.6,3.08,1.6,5.44v1.05h-10.02c.04,1.46.46,2.64,1.28,3.53s1.85,1.35,3.11,1.35c.89,0,1.65-.18,2.27-.55s1.16-.85,1.63-1.45l1.54,1.2c-1.24,1.91-3.1,2.86-5.58,2.86Zm-.31-13.26c-1.02,0-1.88.37-2.57,1.11s-1.12,1.78-1.29,3.12h7.41v-.19c-.07-1.29-.42-2.28-1.04-2.99s-1.46-1.06-2.52-1.06Z"/><path d="m85.94,445.56c0-2.06.28-4.04.83-5.93.55-1.9,1.37-3.62,2.47-5.17,1.09-1.55,2.23-2.64,3.4-3.28l.52,1.67c-1.33,1.02-2.42,2.58-3.27,4.68-.85,2.1-1.32,4.44-1.4,7.04v1.16c-.01,3.52.63,6.57,1.91,9.16.77,1.55,1.7,2.76,2.76,3.64l-.52,1.54c-1.21-.67-2.37-1.8-3.47-3.39-2.15-3.1-3.23-6.8-3.23-11.12Z"/><path d="m98.13,440.64c1.12-1.38,2.58-2.06,4.38-2.06,3.13,0,4.7,1.76,4.73,5.29v9.78h-2.53v-9.79c0-1.07-.25-1.85-.73-2.37-.48-.51-1.22-.77-2.24-.77-.82,0-1.54.22-2.16.66-.62.44-1.1,1.01-1.45,1.72v10.54h-2.53v-21h2.53v8Z"/><path d="m120.16,453.64c-.15-.29-.26-.81-.36-1.56-1.18,1.22-2.58,1.83-4.21,1.83-1.46,0-2.65-.41-3.59-1.24-.93-.82-1.4-1.87-1.4-3.14,0-1.54.59-2.74,1.76-3.59,1.17-.85,2.82-1.28,4.94-1.28h2.46v-1.16c0-.88-.26-1.59-.79-2.11-.53-.52-1.31-.79-2.34-.79-.9,0-1.66.23-2.27.68-.61.46-.92,1.01-.92,1.65h-2.54c0-.74.26-1.45.79-2.14.52-.69,1.23-1.23,2.13-1.63.9-.4,1.88-.6,2.96-.6,1.7,0,3.04.43,4.01,1.28.97.85,1.47,2.03,1.5,3.52v6.81c0,1.36.17,2.44.52,3.24v.22h-2.65Zm-4.2-1.93c.79,0,1.54-.21,2.26-.62s1.23-.94,1.54-1.6v-3.04h-1.98c-3.1,0-4.65.91-4.65,2.72,0,.79.26,1.41.79,1.86.53.45,1.21.67,2.04.67Z"/><path d="m128.65,438.85l.08,1.86c1.13-1.42,2.61-2.13,4.43-2.13,3.13,0,4.7,1.76,4.73,5.29v9.78h-2.53v-9.79c0-1.07-.25-1.85-.73-2.37-.48-.51-1.22-.77-2.24-.77-.82,0-1.54.22-2.16.66-.62.44-1.1,1.01-1.45,1.72v10.54h-2.53v-14.79h2.39Z"/><path d="m141.09,446.12c0-2.27.54-4.09,1.61-5.48,1.08-1.38,2.48-2.07,4.23-2.07s3.1.59,4.12,1.78v-7.71h2.53v21h-2.32l-.12-1.59c-1.01,1.24-2.42,1.86-4.22,1.86s-3.11-.7-4.19-2.11-1.62-3.24-1.62-5.5v-.19Zm2.53.29c0,1.68.35,2.99,1.04,3.94.69.95,1.65,1.42,2.87,1.42,1.6,0,2.78-.72,3.51-2.16v-6.79c-.76-1.39-1.92-2.09-3.49-2.09-1.24,0-2.21.48-2.9,1.44-.69.96-1.04,2.38-1.04,4.25Z"/><path d="m163.33,445.7c0,2.03-.27,3.98-.8,5.84-.53,1.86-1.35,3.58-2.45,5.16s-2.25,2.7-3.45,3.36l-.53-1.54c1.4-1.08,2.53-2.75,3.38-5.01s1.29-4.78,1.31-7.54v-.44c0-1.91-.2-3.69-.6-5.34-.4-1.64-.96-3.12-1.67-4.42-.72-1.3-1.52-2.32-2.41-3.05l.53-1.54c1.2.67,2.35,1.78,3.44,3.34s1.91,3.28,2.45,5.15c.54,1.88.81,3.89.81,6.03Z"/><path d="m176.54,438.85l.07,1.64c1.08-1.28,2.55-1.91,4.39-1.91,2.07,0,3.48.79,4.22,2.38.49-.71,1.13-1.29,1.92-1.72s1.72-.66,2.8-.66c3.25,0,4.89,1.72,4.95,5.15v9.91h-2.53v-9.76c0-1.06-.24-1.85-.72-2.37-.48-.52-1.29-.79-2.43-.79-.94,0-1.72.28-2.34.84s-.98,1.32-1.08,2.26v9.82h-2.54v-9.69c0-2.15-1.05-3.23-3.16-3.23-1.66,0-2.79.71-3.4,2.12v10.8h-2.53v-14.79h2.39Z"/><path d="m198.03,446.11c0-1.45.29-2.75.85-3.91.57-1.16,1.36-2.05,2.38-2.68s2.18-.94,3.48-.94c2.01,0,3.64.7,4.89,2.09s1.87,3.25,1.87,5.56v.18c0,1.44-.28,2.73-.83,3.88-.55,1.14-1.34,2.04-2.37,2.67s-2.2.96-3.53.96c-2,0-3.63-.7-4.87-2.09s-1.87-3.24-1.87-5.54v-.18Zm2.54.3c0,1.64.38,2.96,1.14,3.95.76.99,1.78,1.49,3.06,1.49s2.31-.5,3.06-1.51c.76-1.01,1.13-2.42,1.13-4.23,0-1.62-.38-2.94-1.16-3.94-.77-1.01-1.79-1.51-3.07-1.51s-2.26.5-3.02,1.49c-.77.99-1.15,2.42-1.15,4.27Z"/><path d="m218.1,435.27v3.58h2.76v1.96h-2.76v9.19c0,.59.12,1.04.37,1.33.25.3.67.44,1.26.44.29,0,.69-.05,1.2-.16v2.04c-.67.18-1.31.27-1.94.27-1.13,0-1.98-.34-2.56-1.03s-.86-1.65-.86-2.91v-9.17h-2.69v-1.96h2.69v-3.58h2.53Z"/><path d="m223.83,434.93c0-.41.12-.76.38-1.04.25-.28.62-.42,1.11-.42s.87.14,1.12.42c.25.28.38.63.38,1.04s-.13.75-.38,1.03-.63.41-1.12.41-.86-.14-1.11-.41-.38-.62-.38-1.03Zm2.73,18.72h-2.53v-14.79h2.53v14.79Z"/><path d="m229.94,446.11c0-1.45.29-2.75.85-3.91.57-1.16,1.36-2.05,2.38-2.68s2.18-.94,3.48-.94c2.01,0,3.64.7,4.89,2.09s1.87,3.25,1.87,5.56v.18c0,1.44-.28,2.73-.83,3.88-.55,1.14-1.34,2.04-2.37,2.67s-2.2.96-3.53.96c-2,0-3.63-.7-4.87-2.09s-1.87-3.24-1.87-5.54v-.18Zm2.54.3c0,1.64.38,2.96,1.14,3.95.76.99,1.78,1.49,3.06,1.49s2.31-.5,3.06-1.51c.76-1.01,1.13-2.42,1.13-4.23,0-1.62-.38-2.94-1.16-3.94-.77-1.01-1.79-1.51-3.07-1.51s-2.26.5-3.02,1.49c-.77.99-1.15,2.42-1.15,4.27Z"/><path d="m248.97,438.85l.08,1.86c1.13-1.42,2.61-2.13,4.43-2.13,3.13,0,4.7,1.76,4.73,5.29v9.78h-2.53v-9.79c0-1.07-.25-1.85-.73-2.37-.48-.51-1.22-.77-2.24-.77-.82,0-1.54.22-2.16.66s-1.1,1.01-1.45,1.72v10.54h-2.53v-14.79h2.39Z"/></svg>