<?xml version="1.0" encoding="UTF-8"?><svg id="a" xmlns="http://www.w3.org/2000/svg" width="1140" height="280" xmlns:xlink="http://www.w3.org/1999/xlink" viewBox="0 0 1140 280"><defs><style>.d,.e,.f,.g,.h,.i,.j,.k,.l,.m,.n,.o,.p{fill:none;}.q{fill:#fde596;opacity:.1;}.e{stroke-dasharray:0 0 5.346 5.346;}.e,.f,.g,.h,.i,.j,.k,.l,.m,.n,.o,.p{stroke-linecap:round;stroke-miterlimit:10;stroke-width:2px;}.e,.f,.g,.j,.l,.m,.n,.p{stroke:#010101;}.f{stroke-dasharray:0 0 5.743 5.743;}.r{fill:#fefdec;}.s{fill:#d12b32;}.g{stroke-dasharray:0 0 5.538 5.538;}.h{stroke-dasharray:0 0 5.469 5.469;}.h,.i,.k,.o{stroke:#d12b32;}.k{stroke-dasharray:0 0 6.778 6.778;}.l{stroke-dasharray:0 0 5.859 5.859;}.m{stroke-dasharray:0 0 6.458 6.458;}.n{stroke-dasharray:0 0 5.581 5.581;}.t{clip-path:url(#b);}.o{stroke-dasharray:0 0 5.711 5.711;}.p{stroke-dasharray:0 0 6.338 6.338;}</style><clipPath id="b"><path class="d" d="m105.589,9.685C11.33,25.298,9.198,85.044,10.521,139.819c1.219,50.484-9.55,94.797,75.812,114.405,85.871,19.726,341.825,1.351,486.6,1.351,86.888,0,440.192,68.523,539.817-28.372,19.448-18.915,36.837-163.476-5.023-197.253-56.68-45.734-171.416-13.634-279.627-18.915-63.935-3.12-126.918.806-189.559,1.592-88.394,1.11-169.677,3.376-243.277-.241-76.78-3.773-214.329-15.182-289.674-2.702Z"/></clipPath></defs><path class="r" d="m105.589,9.685C11.33,25.298,9.198,85.044,10.521,139.819c1.219,50.484-9.55,94.797,75.812,114.405,85.871,19.726,341.825,1.351,486.6,1.351,86.888,0,440.192,68.523,539.817-28.372,19.448-18.915,36.837-163.476-5.023-197.253-56.68-45.734-171.416-13.634-279.627-18.915-63.935-3.12-126.918.806-189.559,1.592-88.394,1.11-169.677,3.376-243.277-.241-76.78-3.773-214.329-15.182-289.674-2.702Z"/><g class="t"><polygon class="q" points="0 280 114.798 279.091 418.705 1.263 0 0 0 280"/><polygon class="q" points="829.169 268.851 206.891 0 4.287 280 829.169 268.851"/><polygon class="q" points="989.68 0 666.119 0 114.491 261.672 452.741 276.86 989.68 0"/><polygon class="q" points="1070.052 279.091 1192.897 94.818 892.542 0 699.169 0 1003.076 279.216 1070.052 279.091"/></g><g id="c"><line class="j" x1="665.398" y1="203.988" x2="1100" y2="203.988"/><line class="j" x1="573.967" y1="203.988" x2="576.967" y2="203.988"/><line class="f" x1="582.71" y1="203.988" x2="660.247" y2="203.988"/><line class="j" x1="663.119" y1="203.988" x2="666.119" y2="203.988"/><line class="j" x1="477.449" y1="203.988" x2="480.449" y2="203.988"/><line class="p" x1="486.786" y1="203.988" x2="559.67" y2="203.988"/><line class="j" x1="562.838" y1="203.988" x2="565.838" y2="203.988"/><line class="j" x1="40" y1="203.988" x2="478.37" y2="203.988"/></g><path class="j" d="m575.61,131.072c1.002.091,1.994.215,2.976.371"/><path class="m" d="m584.865,132.919c18.087,5.668,31.88,22.706,37.954,44.972"/><path class="j" d="m623.617,181.032c.228.969.441,1.947.641,2.933"/><path class="j" d="m517.559,186.807c.173-.991.362-1.974.565-2.949"/><path class="n" d="m519.425,178.431c6.349-23.292,21.266-40.961,40.511-46.052"/><path class="j" d="m562.656,131.749c.976-.194,1.963-.356,2.959-.486"/><path class="j" d="m575.61,60.578c.997.073,1.991.167,2.983.283"/><path class="e" d="m583.875,61.684c12.683,2.479,24.778,8.506,35.345,17.911"/><path class="j" d="m621.196,81.411c.722.684,1.436,1.385,2.142,2.102"/><path class="j" d="m517.417,85.889c.676-.749,1.357-1.482,2.044-2.199"/><path class="g" d="m523.407,79.804c10.916-10.125,23.131-16.409,36.487-18.569"/><path class="j" d="m562.631,60.852c.989-.117,1.983-.212,2.984-.284"/><path class="j" d="m478.37,203.988c0-23.902,4.209-47.766,12.452-70.204,2.991-8.143,6.503-16.099,10.542-23.777,4.716-8.964,10.601-17.408,14.385-26.841,9.166-22.847,19.562-57.617,45.56-66.815,2.792-.988,5.725-1.537,8.691-1.537,32.671.001,43.611,43.041,54.925,66.254,4.329,8.884,10.5,16.368,15.553,24.777,9.252,15.396,15.447,32.546,19.26,50.057,3.435,15.779,4.929,31.949,4.929,48.086"/><line class="j" x1="515.338" y1="195.489" x2="515.338" y2="196.489"/><line class="j" x1="515.338" y1="202.588" x2="515.338" y2="203.588"/><line class="i" x1="515.338" y1="102.399" x2="515.338" y2="203.588"/><polygon class="s" points="507.36 104.733 515.338 90.917 523.317 104.733 507.36 104.733"/><line class="j" x1="515.338" y1="14.815" x2="515.338" y2="17.815"/><line class="l" x1="515.338" y1="23.673" x2="515.338" y2="67.613"/><line class="j" x1="515.338" y1="70.542" x2="515.338" y2="73.542"/><line class="j" x1="626.757" y1="199.545" x2="626.757" y2="200.545"/><line class="j" x1="626.757" y1="202.588" x2="626.757" y2="203.588"/><line class="i" x1="626.757" y1="102.399" x2="626.757" y2="203.588"/><polygon class="s" points="618.779 104.733 626.757 90.917 634.735 104.733 618.779 104.733"/><line class="j" x1="626.757" y1="14.815" x2="626.757" y2="17.815"/><line class="l" x1="626.757" y1="23.673" x2="626.757" y2="67.613"/><line class="j" x1="626.757" y1="70.542" x2="626.757" y2="73.542"/><line class="i" x1="570" y1="146.587" x2="570" y2="149.587"/><line class="o" x1="570" y1="155.298" x2="570" y2="198.133"/><line class="i" x1="570" y1="200.988" x2="570" y2="203.988"/><polygon class="s" points="562.022 148.921 570 135.105 577.978 148.921 562.022 148.921"/><line class="i" x1="570" y1="76.657" x2="570" y2="79.657"/><line class="k" x1="570" y1="86.435" x2="570" y2="123.716"/><line class="i" x1="570" y1="127.105" x2="570" y2="130.105"/><polygon class="s" points="562.022 78.991 570 65.175 577.978 78.991 562.022 78.991"/><line class="i" x1="570" y1="26.832" x2="570" y2="29.832"/><line class="h" x1="570" y1="35.301" x2="570" y2="54.441"/><line class="i" x1="570" y1="57.175" x2="570" y2="60.175"/><polygon class="s" points="562.022 29.167 570 15.35 577.978 29.167 562.022 29.167"/></svg>