<?xml version="1.0" encoding="UTF-8"?><svg id="a" xmlns="http://www.w3.org/2000/svg" width="1140" height="280" xmlns:xlink="http://www.w3.org/1999/xlink" viewBox="0 0 1140 280"><defs><style>.d,.e,.f,.g{fill:none;}.h{fill:#fde596;opacity:.1;}.e{stroke-dasharray:0 0 6.05 6.05;}.e,.f,.g{stroke:#010101;stroke-linecap:round;stroke-miterlimit:10;stroke-width:2px;}.i{fill:#fefdec;}.j{clip-path:url(#b);}.g{stroke-dasharray:0 0 5.842 5.842;}</style><clipPath id="b"><path class="d" d="m105.589,9.163C11.33,24.432,9.198,82.86,10.521,136.427c1.219,49.371-9.55,92.706,75.812,111.882,85.871,19.291,341.825,1.321,486.6,1.321,86.888,0,440.192,67.012,539.817-27.746,19.448-18.497,36.837-159.87-5.023-192.901-56.68-44.725-171.416-13.333-279.627-18.497-63.935-3.051-126.918.788-189.559,1.557-88.394,1.085-169.677,3.301-243.277-.236-76.78-3.69-214.329-14.847-289.674-2.642Z"/></clipPath></defs><path class="i" d="m105.589,9.163C11.33,24.432,9.198,82.86,10.521,136.427c1.219,49.371-9.55,92.706,75.812,111.882,85.871,19.291,341.825,1.321,486.6,1.321,86.888,0,440.192,67.012,539.817-27.746,19.448-18.497,36.837-159.87-5.023-192.901-56.68-44.725-171.416-13.333-279.627-18.497-63.935-3.051-126.918.788-189.559,1.557-88.394,1.085-169.677,3.301-243.277-.236-76.78-3.69-214.329-14.847-289.674-2.642Z"/><g class="j"><polygon class="h" points="700.868 0 322.022 0 742.858 280 1140 0 700.868 0"/><polygon class="h" points="207.28 280 459.324 280 1140 153.988 1140 0 881.019 0 207.28 280"/><polygon class="h" points="0 3.604 0 280 643.51 280 0 3.604"/></g><g id="c"><line class="f" x1="833.912" y1="113.988" x2="1100" y2="113.988"/><line class="f" x1="700.868" y1="113.988" x2="703.868" y2="113.988"/><line class="e" x1="709.917" y1="113.988" x2="827.887" y2="113.988"/><line class="f" x1="830.912" y1="113.988" x2="833.912" y2="113.988"/><line class="f" x1="434.779" y1="113.988" x2="700.868" y2="113.988"/><line class="f" x1="306.088" y1="113.988" x2="309.088" y2="113.988"/><line class="g" x1="314.931" y1="113.988" x2="428.858" y2="113.988"/><line class="f" x1="431.779" y1="113.988" x2="434.779" y2="113.988"/><line class="f" x1="40" y1="113.988" x2="306.088" y2="113.988"/></g><path class="f" d="m433.463,113.988c0,44.183-28.235,80-63.065,80s-63.065-35.817-63.065-80"/><path class="f" d="m702.611,113.988c0-55.79,29.039-101.016,64.86-101.016s64.86,45.226,64.86,101.016"/></svg>