<?xml version="1.0" encoding="UTF-8"?>
<svg xmlns="http://www.w3.org/2000/svg" width="1140" height="617.28" viewBox="0 0 1140 617.28">
  <defs>
    <style>
      .cls-1 {
        fill: #bcd1e8;
      }

      .cls-2 {
        fill: #a3cea8;
      }

      .cls-3, .cls-4 {
        fill: #abc5dd;
      }

      .cls-5 {
        fill: #161616;
      }

      .cls-6, .cls-7 {
        fill: #95b6ce;
      }

      .cls-8, .cls-9 {
        fill: #6ca0c1;
      }

      .cls-10 {
        stroke: #161616;
      }

      .cls-10, .cls-11 {
        fill: none;
        stroke-miterlimit: 10;
        stroke-width: 2px;
      }

      .cls-11 {
        stroke: #000;
      }

      .cls-7 {
        opacity: .6;
      }

      .cls-9 {
        opacity: .63;
      }

      .cls-4 {
        opacity: .64;
      }
    </style>
  </defs>
  <g id="Layer_5" data-name="Layer 5">
    <path class="cls-2" d="m18.33,224.59c-6.78,46.31-14.68,149.08-11.29,210.07,2.76,49.62,40.1,111.77,96,144.56,84.71,49.69,259.87,14.99,398.79,17.25,138.92,2.26,370.72,38.82,507.73-1.19,154.73-45.18,126.9-278.09,115.6-414.75C1113.85,43.89,834.89,3.23,606.75,6.62,226.18,12.27,147.53,24.03,87.22,81.16,44.3,121.82,25.1,178.29,18.33,224.59Z"/>
    <g>
      <circle class="cls-1" cx="222.86" cy="353.01" r="205.63"/>
      <circle class="cls-3" cx="278.77" cy="353.04" r="153.38"/>
      <circle class="cls-6" cx="325" cy="352.63" r="104.08"/>
      <circle class="cls-8" cx="370.41" cy="353.04" r="59.06"/>
    </g>
    <g>
      <circle class="cls-1" cx="674.34" cy="358.23" r="205.63"/>
      <circle class="cls-4" cx="782.49" cy="361.25" r="153.38"/>
      <circle class="cls-7" cx="878.72" cy="359.35" r="104.08"/>
      <circle class="cls-9" cx="970.39" cy="359.76" r="59.06"/>
    </g>
  </g>
  <g id="Layer_4" data-name="Layer 4">
    <g>
      <circle class="cls-10" cx="222.86" cy="353.01" r="205.63"/>
      <circle class="cls-10" cx="276.51" cy="353.01" r="152.39"/>
      <circle class="cls-10" cx="325.76" cy="353.01" r="103.74"/>
      <circle class="cls-10" cx="369.41" cy="353.01" r="59.39"/>
      <circle class="cls-5" cx="369.41" cy="353.01" r="7.67"/>
      <circle class="cls-10" cx="676.49" cy="359.5" r="205.63"/>
      <circle class="cls-10" cx="784.4" cy="359.5" r="152.39"/>
      <circle class="cls-10" cx="879.84" cy="359.5" r="103.74"/>
      <circle class="cls-10" cx="969.44" cy="359.5" r="59.39"/>
      <circle class="cls-5" cx="1087.23" cy="359.5" r="7.67"/>
      <polyline class="cls-10" points="670.46 117.37 1087.91 359.58 674.79 597.66"/>
      <g>
        <path d="m126.96,89.8c-1.93-.55-3.33-1.24-4.21-2.04s-1.32-1.81-1.32-2.99c0-1.34.54-2.46,1.61-3.33s2.47-1.32,4.19-1.32c1.17,0,2.22.23,3.13.68s1.63,1.08,2.13,1.88.76,1.67.76,2.61h-2.26c0-1.04-.33-1.85-.98-2.44s-1.58-.89-2.78-.89c-1.11,0-1.97.24-2.6.73-.62.49-.93,1.17-.93,2.04,0,.7.29,1.29.88,1.77.59.48,1.59.92,3.01,1.32s2.53.84,3.33,1.32,1.39,1.04,1.78,1.68.58,1.39.58,2.26c0,1.38-.54,2.49-1.62,3.32s-2.52,1.25-4.32,1.25c-1.17,0-2.27-.22-3.28-.67s-1.8-1.06-2.35-1.85-.83-1.67-.83-2.66h2.26c0,1.03.38,1.85,1.14,2.44s1.78.9,3.05.9c1.19,0,2.1-.24,2.73-.73s.95-1.14.95-1.98-.29-1.48-.88-1.94-1.65-.91-3.19-1.35Z"/>
        <path d="m146.54,91.2c0,1.93-.44,3.48-1.32,4.66s-2.08,1.77-3.59,1.77-2.75-.49-3.63-1.46v6.11h-2.17v-17.55h1.98l.11,1.41c.88-1.09,2.11-1.64,3.68-1.64s2.73.57,3.62,1.72,1.33,2.75,1.33,4.79v.2Zm-2.17-.25c0-1.43-.3-2.56-.91-3.39s-1.45-1.24-2.51-1.24c-1.31,0-2.3.58-2.95,1.75v6.06c.65,1.16,1.64,1.73,2.98,1.73,1.04,0,1.87-.41,2.48-1.24s.92-2.05.92-3.67Z"/>
        <path d="m154.56,97.64c-1.72,0-3.12-.56-4.2-1.69s-1.62-2.64-1.62-4.53v-.4c0-1.26.24-2.38.72-3.37s1.15-1.76,2.02-2.32,1.8-.84,2.81-.84c1.65,0,2.93.54,3.84,1.63s1.37,2.64,1.37,4.66v.9h-8.59c.03,1.25.4,2.26,1.1,3.03s1.59,1.15,2.67,1.15c.77,0,1.41-.16,1.95-.47s1-.73,1.39-1.24l1.32,1.03c-1.06,1.63-2.66,2.45-4.78,2.45Zm-.27-11.37c-.88,0-1.61.32-2.2.96s-.96,1.53-1.1,2.68h6.35v-.16c-.06-1.1-.36-1.96-.89-2.56s-1.25-.91-2.16-.91Z"/>
        <path d="m167.28,97.64c-1.72,0-3.12-.56-4.2-1.69s-1.62-2.64-1.62-4.53v-.4c0-1.26.24-2.38.72-3.37s1.15-1.76,2.02-2.32,1.8-.84,2.81-.84c1.65,0,2.93.54,3.84,1.63s1.37,2.64,1.37,4.66v.9h-8.59c.03,1.25.4,2.26,1.1,3.03s1.59,1.15,2.67,1.15c.77,0,1.41-.16,1.95-.47s1-.73,1.39-1.24l1.32,1.03c-1.06,1.63-2.66,2.45-4.78,2.45Zm-.27-11.37c-.88,0-1.61.32-2.2.96s-.96,1.53-1.1,2.68h6.35v-.16c-.06-1.1-.36-1.96-.89-2.56s-1.25-.91-2.16-.91Z"/>
        <path d="m174.2,90.96c0-1.95.46-3.51,1.38-4.69s2.13-1.78,3.62-1.78,2.66.51,3.53,1.52v-6.61h2.17v18h-1.99l-.11-1.36c-.87,1.06-2.07,1.59-3.62,1.59s-2.67-.6-3.59-1.8-1.39-2.77-1.39-4.71v-.16Zm2.17.25c0,1.44.3,2.56.89,3.38s1.41,1.22,2.46,1.22c1.38,0,2.38-.62,3.01-1.85v-5.82c-.65-1.2-1.64-1.79-2.99-1.79-1.06,0-1.89.41-2.48,1.23s-.89,2.04-.89,3.64Z"/>
        <path d="m193.63,90.95c0-1.24.24-2.36.73-3.35s1.17-1.76,2.04-2.3,1.87-.81,2.98-.81c1.73,0,3.12.6,4.19,1.79s1.6,2.79,1.6,4.77v.15c0,1.23-.24,2.34-.71,3.32s-1.15,1.74-2.03,2.29-1.89.82-3.03.82c-1.72,0-3.11-.6-4.18-1.79s-1.6-2.78-1.6-4.75v-.15Zm2.18.26c0,1.41.33,2.54.98,3.39s1.53,1.28,2.62,1.28,1.98-.43,2.62-1.29.97-2.07.97-3.63c0-1.39-.33-2.52-.99-3.38s-1.54-1.29-2.63-1.29-1.93.43-2.59,1.28-.98,2.07-.98,3.66Z"/>
        <path d="m208.96,97.4v-11h-2v-1.68h2v-1.3c0-1.36.36-2.41,1.09-3.15s1.75-1.11,3.08-1.11c.5,0,1,.07,1.49.2l-.12,1.75c-.37-.07-.76-.11-1.17-.11-.7,0-1.25.21-1.63.62s-.57,1-.57,1.77v1.34h2.71v1.68h-2.71v11h-2.17Z"/>
        <path d="m229.55,94.04c0-.59-.22-1.04-.66-1.37s-1.21-.6-2.31-.84-1.97-.52-2.61-.84-1.12-.72-1.43-1.17-.46-.99-.46-1.62c0-1.04.44-1.92,1.32-2.64s2-1.08,3.37-1.08c1.44,0,2.6.37,3.5,1.11s1.34,1.69,1.34,2.85h-2.18c0-.59-.25-1.11-.76-1.54s-1.14-.64-1.9-.64-1.41.17-1.85.52-.67.79-.67,1.35c0,.52.21.92.62,1.18s1.16.52,2.24.76,1.96.53,2.63.87,1.17.74,1.49,1.21.49,1.05.49,1.73c0,1.13-.45,2.04-1.36,2.72s-2.08,1.03-3.53,1.03c-1.02,0-1.91-.18-2.7-.54s-1.39-.86-1.83-1.51-.66-1.34-.66-2.09h2.17c.04.73.33,1.3.87,1.73s1.26.64,2.15.64c.82,0,1.48-.17,1.97-.5s.74-.78.74-1.33Z"/>
        <path d="m233.97,90.95c0-1.24.24-2.36.73-3.35s1.17-1.76,2.04-2.3,1.87-.81,2.98-.81c1.73,0,3.12.6,4.19,1.79s1.6,2.79,1.6,4.77v.15c0,1.23-.24,2.34-.71,3.32s-1.15,1.74-2.03,2.29-1.89.82-3.03.82c-1.72,0-3.11-.6-4.18-1.79s-1.6-2.78-1.6-4.75v-.15Zm2.18.26c0,1.41.33,2.54.98,3.39s1.53,1.28,2.62,1.28,1.98-.43,2.62-1.29.97-2.07.97-3.63c0-1.39-.33-2.52-.99-3.38s-1.54-1.29-2.63-1.29-1.93.43-2.59,1.28-.98,2.07-.98,3.66Z"/>
        <path d="m256.06,96.15c-.84.99-2.08,1.49-3.71,1.49-1.35,0-2.38-.39-3.09-1.18s-1.06-1.95-1.07-3.49v-8.25h2.17v8.19c0,1.92.78,2.88,2.34,2.88,1.66,0,2.76-.62,3.3-1.85v-9.22h2.17v12.68h-2.06l-.05-1.25Z"/>
        <path d="m263.51,84.72l.07,1.59c.97-1.22,2.23-1.83,3.8-1.83,2.68,0,4.03,1.51,4.05,4.54v8.38h-2.17v-8.39c0-.91-.22-1.59-.63-2.03s-1.05-.66-1.92-.66c-.7,0-1.32.19-1.85.56s-.95.87-1.24,1.48v9.04h-2.17v-12.68h2.05Z"/>
        <path d="m274.17,90.96c0-1.95.46-3.51,1.38-4.69s2.13-1.78,3.62-1.78,2.66.51,3.53,1.52v-6.61h2.17v18h-1.99l-.11-1.36c-.87,1.06-2.07,1.59-3.62,1.59s-2.67-.6-3.59-1.8-1.39-2.77-1.39-4.71v-.16Zm2.17.25c0,1.44.3,2.56.89,3.38s1.41,1.22,2.46,1.22c1.38,0,2.38-.62,3.01-1.85v-5.82c-.65-1.2-1.64-1.79-2.99-1.79-1.06,0-1.89.41-2.48,1.23s-.89,2.04-.89,3.64Z"/>
      </g>
      <g>
        <line class="cls-11" x1="309.05" y1="115.4" x2="88.01" y2="116.21"/>
        <polygon points="306.69 107.43 320.53 115.36 306.75 123.39 306.69 107.43"/>
      </g>
      <g>
        <path d="m390.57,130.79h-5.48v15.22h-2.24v-15.22h-5.47v-1.84h13.2v1.84Z"/>
        <path d="m394.93,134.87c.96-1.18,2.21-1.77,3.75-1.77,2.68,0,4.03,1.51,4.05,4.54v8.38h-2.17v-8.39c0-.91-.22-1.59-.63-2.03s-1.05-.66-1.92-.66c-.7,0-1.32.19-1.85.56s-.95.87-1.24,1.48v9.04h-2.17v-18h2.17v6.86Z"/>
        <path d="m411.25,146.24c-1.72,0-3.12-.56-4.2-1.69s-1.62-2.64-1.62-4.53v-.4c0-1.26.24-2.38.72-3.37s1.15-1.76,2.02-2.32,1.8-.84,2.81-.84c1.65,0,2.93.54,3.84,1.63s1.37,2.64,1.37,4.66v.9h-8.59c.03,1.25.4,2.26,1.1,3.03s1.59,1.15,2.67,1.15c.77,0,1.41-.16,1.95-.47s1-.73,1.39-1.24l1.32,1.03c-1.06,1.63-2.66,2.45-4.78,2.45Zm-.27-11.37c-.88,0-1.61.32-2.2.96s-.96,1.53-1.1,2.68h6.35v-.16c-.06-1.1-.36-1.96-.89-2.56s-1.25-.91-2.16-.91Z"/>
        <path d="m432.02,142.65c0-.59-.22-1.04-.66-1.37s-1.21-.6-2.31-.84-1.97-.52-2.61-.84-1.12-.72-1.43-1.17-.46-.99-.46-1.62c0-1.04.44-1.92,1.32-2.64s2-1.08,3.37-1.08c1.44,0,2.6.37,3.5,1.11s1.34,1.69,1.34,2.85h-2.18c0-.59-.25-1.11-.76-1.54s-1.14-.64-1.9-.64-1.41.17-1.85.52-.67.79-.67,1.35c0,.52.21.92.62,1.18s1.16.52,2.24.76,1.96.53,2.63.87,1.17.74,1.49,1.21.49,1.05.49,1.73c0,1.13-.45,2.04-1.36,2.72s-2.08,1.03-3.53,1.03c-1.02,0-1.91-.18-2.7-.54s-1.39-.86-1.83-1.51-.66-1.34-.66-2.09h2.17c.04.73.33,1.3.87,1.73s1.26.64,2.15.64c.82,0,1.48-.17,1.97-.5s.74-.78.74-1.33Z"/>
        <path d="m436.44,139.55c0-1.24.24-2.36.73-3.35s1.17-1.76,2.04-2.3,1.87-.81,2.98-.81c1.73,0,3.12.6,4.19,1.79s1.6,2.79,1.6,4.77v.15c0,1.23-.24,2.34-.71,3.32s-1.15,1.74-2.03,2.29-1.89.82-3.03.82c-1.72,0-3.11-.6-4.18-1.79s-1.6-2.78-1.6-4.75v-.15Zm2.18.26c0,1.41.33,2.54.98,3.39s1.53,1.28,2.62,1.28,1.98-.43,2.62-1.29.97-2.07.97-3.63c0-1.39-.33-2.52-.99-3.38s-1.54-1.29-2.63-1.29-1.93.43-2.59,1.28-.98,2.07-.98,3.66Z"/>
        <path d="m458.53,144.76c-.84.99-2.08,1.49-3.71,1.49-1.35,0-2.38-.39-3.09-1.18s-1.06-1.95-1.07-3.49v-8.25h2.17v8.19c0,1.92.78,2.88,2.34,2.88,1.66,0,2.76-.62,3.3-1.85v-9.22h2.17v12.68h-2.06l-.05-1.25Z"/>
        <path d="m465.98,133.33l.07,1.59c.97-1.22,2.23-1.83,3.8-1.83,2.68,0,4.03,1.51,4.05,4.54v8.38h-2.17v-8.39c0-.91-.22-1.59-.63-2.03s-1.05-.66-1.92-.66c-.7,0-1.32.19-1.85.56s-.95.87-1.24,1.48v9.04h-2.17v-12.68h2.05Z"/>
        <path d="m476.65,139.56c0-1.95.46-3.51,1.38-4.69s2.13-1.78,3.62-1.78,2.66.51,3.53,1.52v-6.61h2.17v18h-1.99l-.11-1.36c-.87,1.06-2.07,1.59-3.62,1.59s-2.67-.6-3.59-1.8-1.39-2.77-1.39-4.71v-.16Zm2.17.25c0,1.44.3,2.56.89,3.38s1.41,1.22,2.46,1.22c1.38,0,2.38-.62,3.01-1.85v-5.82c-.65-1.2-1.64-1.79-2.99-1.79-1.06,0-1.89.41-2.48,1.23s-.89,2.04-.89,3.64Z"/>
        <path d="m389.18,168.61c0,1.94-.45,3.49-1.34,4.67s-2.09,1.76-3.59,1.76c-1.6,0-2.84-.57-3.71-1.7l-.11,1.46h-1.99v-18h2.17v6.71c.88-1.09,2.08-1.63,3.62-1.63s2.75.58,3.63,1.75,1.32,2.76,1.32,4.78v.19Zm-2.17-.25c0-1.48-.29-2.62-.86-3.42s-1.39-1.21-2.46-1.21c-1.43,0-2.46.66-3.08,1.99v5.48c.66,1.33,1.7,1.99,3.11,1.99,1.04,0,1.85-.4,2.43-1.21s.87-2.02.87-3.63Z"/>
        <path d="m399.74,174.81c-.12-.25-.23-.7-.3-1.34-1.01,1.05-2.21,1.57-3.61,1.57-1.25,0-2.28-.35-3.08-1.06s-1.2-1.6-1.2-2.69c0-1.32.5-2.35,1.51-3.08s2.42-1.1,4.24-1.1h2.11v-1c0-.76-.23-1.36-.68-1.81s-1.12-.67-2-.67c-.77,0-1.42.2-1.95.59s-.79.86-.79,1.42h-2.18c0-.63.22-1.24.67-1.83s1.06-1.06,1.83-1.4,1.62-.52,2.54-.52c1.46,0,2.61.37,3.43,1.1s1.26,1.74,1.29,3.02v5.84c0,1.16.15,2.09.45,2.78v.19h-2.27Zm-3.6-1.65c.68,0,1.32-.18,1.93-.53s1.05-.81,1.32-1.37v-2.6h-1.7c-2.66,0-3.98.78-3.98,2.33,0,.68.23,1.21.68,1.59s1.04.57,1.75.57Z"/>
        <path d="m411.09,164.08c-.33-.05-.68-.08-1.07-.08-1.42,0-2.39.61-2.89,1.82v9h-2.17v-12.68h2.11l.04,1.46c.71-1.13,1.72-1.7,3.02-1.7.42,0,.74.05.96.16v2.02Z"/>
        <path d="m419.21,164.08c-.33-.05-.68-.08-1.07-.08-1.42,0-2.39.61-2.89,1.82v9h-2.17v-12.68h2.11l.04,1.46c.71-1.13,1.72-1.7,3.02-1.7.42,0,.74.05.96.16v2.02Z"/>
        <path d="m421.22,158.77c0-.35.11-.65.32-.89s.53-.36.96-.36.74.12.96.36.33.54.33.89-.11.64-.33.88-.54.35-.96.35-.74-.12-.96-.35-.32-.53-.32-.88Zm2.34,16.04h-2.17v-12.68h2.17v12.68Z"/>
        <path d="m432.29,175.04c-1.72,0-3.12-.56-4.2-1.69s-1.62-2.64-1.62-4.53v-.4c0-1.26.24-2.38.72-3.37s1.15-1.76,2.02-2.32,1.8-.84,2.81-.84c1.65,0,2.93.54,3.84,1.63s1.37,2.64,1.37,4.66v.9h-8.59c.03,1.25.4,2.26,1.1,3.03s1.59,1.15,2.67,1.15c.77,0,1.41-.16,1.95-.47s1-.73,1.39-1.24l1.32,1.03c-1.06,1.63-2.66,2.45-4.78,2.45Zm-.27-11.37c-.88,0-1.61.32-2.2.96s-.96,1.53-1.1,2.68h6.35v-.16c-.06-1.1-.36-1.96-.89-2.56s-1.25-.91-2.16-.91Z"/>
        <path d="m445.87,164.08c-.33-.05-.68-.08-1.07-.08-1.42,0-2.39.61-2.89,1.82v9h-2.17v-12.68h2.11l.04,1.46c.71-1.13,1.72-1.7,3.02-1.7.42,0,.74.05.96.16v2.02Z"/>
      </g>
      <g>
        <line class="cls-11" x1="425.09" y1="277.82" x2="425.64" y2="188.35"/>
        <polygon points="433.08 275.54 425.01 289.3 417.12 275.44 433.08 275.54"/>
      </g>
      <g>
        <path d="m790.29,89.8c-1.93-.55-3.33-1.24-4.21-2.04s-1.32-1.81-1.32-2.99c0-1.34.54-2.46,1.61-3.33s2.47-1.32,4.19-1.32c1.17,0,2.22.23,3.13.68s1.63,1.08,2.13,1.88.76,1.67.76,2.61h-2.26c0-1.04-.33-1.85-.98-2.44s-1.58-.89-2.78-.89c-1.11,0-1.97.24-2.6.73-.62.49-.93,1.17-.93,2.04,0,.7.29,1.29.88,1.77.59.48,1.59.92,3.01,1.32s2.53.84,3.33,1.32,1.39,1.04,1.78,1.68.58,1.39.58,2.26c0,1.38-.54,2.49-1.62,3.32s-2.52,1.25-4.32,1.25c-1.17,0-2.27-.22-3.28-.67s-1.8-1.06-2.35-1.85-.83-1.67-.83-2.66h2.26c0,1.03.38,1.85,1.14,2.44s1.78.9,3.05.9c1.19,0,2.1-.24,2.73-.73s.95-1.14.95-1.98-.29-1.48-.88-1.94-1.65-.91-3.19-1.35Z"/>
        <path d="m806.99,96.15c-.84.99-2.08,1.49-3.71,1.49-1.35,0-2.38-.39-3.09-1.18s-1.06-1.95-1.07-3.49v-8.25h2.17v8.19c0,1.92.78,2.88,2.34,2.88,1.66,0,2.76-.62,3.3-1.85v-9.22h2.17v12.68h-2.06l-.05-1.25Z"/>
        <path d="m823.1,91.2c0,1.93-.44,3.48-1.32,4.66s-2.08,1.77-3.59,1.77-2.75-.49-3.63-1.46v6.11h-2.17v-17.55h1.98l.11,1.41c.88-1.09,2.11-1.64,3.68-1.64s2.73.57,3.62,1.72,1.33,2.75,1.33,4.79v.2Zm-2.17-.25c0-1.43-.3-2.56-.91-3.39s-1.45-1.24-2.51-1.24c-1.31,0-2.3.58-2.95,1.75v6.06c.65,1.16,1.64,1.73,2.98,1.73,1.04,0,1.87-.41,2.48-1.24s.92-2.05.92-3.67Z"/>
        <path d="m831.12,97.64c-1.72,0-3.12-.56-4.2-1.69s-1.62-2.64-1.62-4.53v-.4c0-1.26.24-2.38.72-3.37s1.15-1.76,2.02-2.32,1.8-.84,2.81-.84c1.65,0,2.93.54,3.84,1.63s1.37,2.64,1.37,4.66v.9h-8.59c.03,1.25.4,2.26,1.1,3.03s1.59,1.15,2.67,1.15c.77,0,1.41-.16,1.95-.47s1-.73,1.39-1.24l1.32,1.03c-1.06,1.63-2.66,2.45-4.78,2.45Zm-.27-11.37c-.88,0-1.61.32-2.2.96s-.96,1.53-1.1,2.68h6.35v-.16c-.06-1.1-.36-1.96-.89-2.56s-1.25-.91-2.16-.91Z"/>
        <path d="m844.7,86.67c-.33-.05-.68-.08-1.07-.08-1.42,0-2.39.61-2.89,1.82v9h-2.17v-12.68h2.11l.04,1.46c.71-1.13,1.72-1.7,3.02-1.7.42,0,.74.05.96.16v2.02Z"/>
        <path d="m854.07,94.04c0-.59-.22-1.04-.66-1.37s-1.21-.6-2.31-.84-1.97-.52-2.61-.84-1.12-.72-1.43-1.17-.46-.99-.46-1.62c0-1.04.44-1.92,1.32-2.64s2-1.08,3.37-1.08c1.44,0,2.6.37,3.5,1.11s1.34,1.69,1.34,2.85h-2.18c0-.59-.25-1.11-.76-1.54s-1.14-.64-1.9-.64-1.41.17-1.85.52-.67.79-.67,1.35c0,.52.21.92.62,1.18s1.16.52,2.24.76,1.96.53,2.63.87,1.17.74,1.49,1.21.49,1.05.49,1.73c0,1.13-.45,2.04-1.36,2.72s-2.08,1.03-3.53,1.03c-1.02,0-1.91-.18-2.7-.54s-1.39-.86-1.83-1.51-.66-1.34-.66-2.09h2.17c.04.73.33,1.3.87,1.73s1.26.64,2.15.64c.82,0,1.48-.17,1.97-.5s.74-.78.74-1.33Z"/>
        <path d="m858.49,90.95c0-1.24.24-2.36.73-3.35s1.17-1.76,2.04-2.3,1.87-.81,2.98-.81c1.73,0,3.12.6,4.19,1.79s1.6,2.79,1.6,4.77v.15c0,1.23-.24,2.34-.71,3.32s-1.15,1.74-2.03,2.29-1.89.82-3.03.82c-1.72,0-3.11-.6-4.18-1.79s-1.6-2.78-1.6-4.75v-.15Zm2.18.26c0,1.41.33,2.54.98,3.39s1.53,1.28,2.62,1.28,1.98-.43,2.62-1.29.97-2.07.97-3.63c0-1.39-.33-2.52-.99-3.38s-1.54-1.29-2.63-1.29-1.93.43-2.59,1.28-.98,2.07-.98,3.66Z"/>
        <path d="m874.8,84.72l.07,1.59c.97-1.22,2.23-1.83,3.8-1.83,2.68,0,4.03,1.51,4.05,4.54v8.38h-2.17v-8.39c0-.91-.22-1.59-.63-2.03s-1.05-.66-1.92-.66c-.7,0-1.32.19-1.85.56s-.95.87-1.24,1.48v9.04h-2.17v-12.68h2.05Z"/>
        <path d="m886.01,81.36c0-.35.11-.65.32-.89s.53-.36.96-.36.74.12.96.36.33.54.33.89-.11.64-.33.88-.54.35-.96.35-.74-.12-.96-.35-.32-.53-.32-.88Zm2.34,16.04h-2.17v-12.68h2.17v12.68Z"/>
        <path d="m896.9,95.87c.77,0,1.45-.23,2.03-.7s.9-1.05.96-1.76h2.05c-.04.73-.29,1.42-.75,2.07s-1.08,1.18-1.85,1.57-1.58.59-2.44.59c-1.73,0-3.1-.58-4.12-1.73s-1.53-2.73-1.53-4.73v-.36c0-1.23.23-2.33.68-3.29s1.1-1.71,1.95-2.24,1.85-.8,3.01-.8c1.42,0,2.6.43,3.54,1.28s1.44,1.96,1.51,3.32h-2.05c-.06-.82-.37-1.49-.93-2.02s-1.25-.79-2.07-.79c-1.1,0-1.96.4-2.56,1.19s-.91,1.94-.91,3.44v.41c0,1.46.3,2.59.9,3.38s1.46,1.18,2.58,1.18Z"/>
        <path d="m917.71,94.04c0-.59-.22-1.04-.66-1.37s-1.21-.6-2.31-.84-1.97-.52-2.61-.84-1.12-.72-1.43-1.17-.46-.99-.46-1.62c0-1.04.44-1.92,1.32-2.64s2-1.08,3.37-1.08c1.44,0,2.6.37,3.5,1.11s1.34,1.69,1.34,2.85h-2.18c0-.59-.25-1.11-.76-1.54s-1.14-.64-1.9-.64-1.41.17-1.85.52-.67.79-.67,1.35c0,.52.21.92.62,1.18s1.16.52,2.24.76,1.96.53,2.63.87,1.17.74,1.49,1.21.49,1.05.49,1.73c0,1.13-.45,2.04-1.36,2.72s-2.08,1.03-3.53,1.03c-1.02,0-1.91-.18-2.7-.54s-1.39-.86-1.83-1.51-.66-1.34-.66-2.09h2.17c.04.73.33,1.3.87,1.73s1.26.64,2.15.64c.82,0,1.48-.17,1.97-.5s.74-.78.74-1.33Z"/>
        <path d="m922.12,90.95c0-1.24.24-2.36.73-3.35s1.17-1.76,2.04-2.3,1.87-.81,2.98-.81c1.73,0,3.12.6,4.19,1.79s1.6,2.79,1.6,4.77v.15c0,1.23-.24,2.34-.71,3.32s-1.15,1.74-2.03,2.29-1.89.82-3.03.82c-1.72,0-3.11-.6-4.18-1.79s-1.6-2.78-1.6-4.75v-.15Zm2.18.26c0,1.41.33,2.54.98,3.39s1.53,1.28,2.62,1.28,1.98-.43,2.62-1.29.97-2.07.97-3.63c0-1.39-.33-2.52-.99-3.38s-1.54-1.29-2.63-1.29-1.93.43-2.59,1.28-.98,2.07-.98,3.66Z"/>
        <path d="m944.21,96.15c-.84.99-2.08,1.49-3.71,1.49-1.35,0-2.38-.39-3.09-1.18s-1.06-1.95-1.07-3.49v-8.25h2.17v8.19c0,1.92.78,2.88,2.34,2.88,1.66,0,2.76-.62,3.3-1.85v-9.22h2.17v12.68h-2.06l-.05-1.25Z"/>
        <path d="m951.67,84.72l.07,1.59c.97-1.22,2.23-1.83,3.8-1.83,2.68,0,4.03,1.51,4.05,4.54v8.38h-2.17v-8.39c0-.91-.22-1.59-.63-2.03s-1.05-.66-1.92-.66c-.7,0-1.32.19-1.85.56s-.95.87-1.24,1.48v9.04h-2.17v-12.68h2.05Z"/>
        <path d="m962.33,90.96c0-1.95.46-3.51,1.38-4.69s2.13-1.78,3.62-1.78,2.66.51,3.53,1.52v-6.61h2.17v18h-1.99l-.11-1.36c-.87,1.06-2.07,1.59-3.62,1.59s-2.67-.6-3.59-1.8-1.39-2.77-1.39-4.71v-.16Zm2.17.25c0,1.44.3,2.56.89,3.38s1.41,1.22,2.46,1.22c1.38,0,2.38-.62,3.01-1.85v-5.82c-.65-1.2-1.64-1.79-2.99-1.79-1.06,0-1.89.41-2.48,1.23s-.89,2.04-.89,3.64Z"/>
      </g>
      <g>
        <line class="cls-11" x1="991.85" y1="115.4" x2="770.81" y2="116.21"/>
        <polygon points="989.49 107.43 1003.33 115.36 989.55 123.39 989.49 107.43"/>
      </g>
      <g>
        <path d="m938.6,174.93c-.21,1.8-.88,3.2-2,4.18s-2.61,1.47-4.47,1.47c-2.02,0-3.63-.72-4.85-2.17s-1.82-3.38-1.82-5.8v-1.64c0-1.59.28-2.98.85-4.18s1.37-2.13,2.41-2.77,2.24-.97,3.61-.97c1.81,0,3.27.51,4.36,1.52s1.73,2.41,1.91,4.2h-2.26c-.2-1.36-.62-2.35-1.27-2.96s-1.56-.92-2.74-.92c-1.44,0-2.56.53-3.38,1.6-.82,1.06-1.22,2.58-1.22,4.54v1.65c0,1.85.39,3.33,1.16,4.42s1.86,1.64,3.25,1.64c1.25,0,2.21-.28,2.88-.85s1.11-1.55,1.33-2.96h2.26Z"/>
        <path d="m940.75,173.89c0-1.24.24-2.36.73-3.35s1.17-1.76,2.04-2.3,1.87-.81,2.98-.81c1.73,0,3.12.6,4.19,1.79s1.6,2.79,1.6,4.77v.15c0,1.23-.24,2.34-.71,3.32s-1.15,1.74-2.03,2.29-1.89.82-3.03.82c-1.72,0-3.11-.6-4.18-1.79s-1.6-2.78-1.6-4.75v-.15Zm2.18.26c0,1.41.33,2.54.98,3.39s1.53,1.28,2.62,1.28,1.98-.43,2.62-1.29.97-2.07.97-3.63c0-1.39-.33-2.52-.99-3.38s-1.54-1.29-2.63-1.29-1.93.43-2.59,1.28-.98,2.07-.98,3.66Z"/>
        <path d="m957.07,167.67l.07,1.59c.97-1.22,2.23-1.83,3.8-1.83,2.68,0,4.03,1.51,4.05,4.54v8.38h-2.17v-8.39c0-.91-.22-1.59-.63-2.03s-1.05-.66-1.92-.66c-.7,0-1.32.19-1.85.56s-.95.87-1.24,1.48v9.04h-2.17v-12.68h2.05Z"/>
        <path d="m975.64,176.98c0-.59-.22-1.04-.66-1.37s-1.21-.6-2.31-.84-1.97-.52-2.61-.84-1.12-.72-1.43-1.17-.46-.99-.46-1.62c0-1.04.44-1.92,1.32-2.64s2-1.08,3.37-1.08c1.44,0,2.6.37,3.5,1.11s1.34,1.69,1.34,2.85h-2.18c0-.59-.25-1.11-.76-1.54s-1.14-.64-1.9-.64-1.41.17-1.85.52-.67.79-.67,1.35c0,.52.21.92.62,1.18s1.16.52,2.24.76,1.96.53,2.63.87,1.17.74,1.49,1.21.49,1.05.49,1.73c0,1.13-.45,2.04-1.36,2.72s-2.08,1.03-3.53,1.03c-1.02,0-1.91-.18-2.7-.54s-1.39-.86-1.83-1.51-.66-1.34-.66-2.09h2.17c.04.73.33,1.3.87,1.73s1.26.64,2.15.64c.82,0,1.48-.17,1.97-.5s.74-.78.74-1.33Z"/>
        <path d="m983.57,164.59v3.07h2.37v1.68h-2.37v7.87c0,.51.11.89.32,1.14.21.25.57.38,1.08.38.25,0,.59-.05,1.03-.14v1.75c-.57.15-1.12.23-1.66.23-.97,0-1.7-.29-2.19-.88s-.74-1.42-.74-2.5v-7.86h-2.31v-1.68h2.31v-3.07h2.17Z"/>
        <path d="m994.6,169.61c-.33-.05-.68-.08-1.07-.08-1.42,0-2.39.61-2.89,1.82v9h-2.17v-12.68h2.11l.04,1.46c.71-1.13,1.72-1.7,3.02-1.7.42,0,.74.05.96.16v2.02Z"/>
        <path d="m1004.42,179.09c-.84.99-2.08,1.49-3.71,1.49-1.35,0-2.38-.39-3.09-1.18s-1.06-1.95-1.07-3.49v-8.25h2.17v8.19c0,1.92.78,2.88,2.34,2.88,1.66,0,2.76-.62,3.3-1.85v-9.22h2.17v12.68h-2.06l-.05-1.25Z"/>
        <path d="m1014.91,178.81c.77,0,1.45-.23,2.03-.7s.9-1.05.96-1.76h2.05c-.04.73-.29,1.42-.75,2.07s-1.08,1.18-1.85,1.57-1.58.59-2.44.59c-1.73,0-3.1-.58-4.12-1.73s-1.53-2.73-1.53-4.73v-.36c0-1.23.23-2.33.68-3.29s1.1-1.71,1.95-2.24,1.85-.8,3.01-.8c1.42,0,2.6.43,3.54,1.28s1.44,1.96,1.51,3.32h-2.05c-.06-.82-.37-1.49-.93-2.02s-1.25-.79-2.07-.79c-1.1,0-1.96.4-2.56,1.19s-.91,1.94-.91,3.44v.41c0,1.46.3,2.59.9,3.38s1.46,1.18,2.58,1.18Z"/>
        <path d="m1025.33,164.59v3.07h2.37v1.68h-2.37v7.87c0,.51.11.89.32,1.14.21.25.57.38,1.08.38.25,0,.59-.05,1.03-.14v1.75c-.57.15-1.12.23-1.66.23-.97,0-1.7-.29-2.19-.88s-.74-1.42-.74-2.5v-7.86h-2.31v-1.68h2.31v-3.07h2.17Z"/>
        <path d="m1030.24,164.3c0-.35.11-.65.32-.89s.53-.36.96-.36.74.12.96.36.33.54.33.89-.11.64-.33.88-.54.35-.96.35-.74-.12-.96-.35-.32-.53-.32-.88Zm2.34,16.04h-2.17v-12.68h2.17v12.68Z"/>
        <path d="m1040.23,177.4l3.14-9.74h2.21l-4.55,12.68h-1.65l-4.59-12.68h2.21l3.22,9.74Z"/>
        <path d="m1052.94,180.58c-1.72,0-3.12-.56-4.2-1.69s-1.62-2.64-1.62-4.53v-.4c0-1.26.24-2.38.72-3.37s1.15-1.76,2.02-2.32,1.8-.84,2.81-.84c1.65,0,2.93.54,3.84,1.63s1.37,2.64,1.37,4.66v.9h-8.59c.03,1.25.4,2.26,1.1,3.03s1.59,1.15,2.67,1.15c.77,0,1.41-.16,1.95-.47s1-.73,1.39-1.24l1.32,1.03c-1.06,1.63-2.66,2.45-4.78,2.45Zm-.27-11.37c-.88,0-1.61.32-2.2.96s-.96,1.53-1.1,2.68h6.35v-.16c-.06-1.1-.36-1.96-.89-2.56s-1.25-.91-2.16-.91Z"/>
        <path d="m928.46,209.14h-2.25v-17.06h2.25v17.06Z"/>
        <path d="m934.29,196.46l.07,1.59c.97-1.22,2.23-1.83,3.8-1.83,2.68,0,4.03,1.51,4.05,4.54v8.38h-2.17v-8.39c0-.91-.22-1.59-.63-2.03s-1.05-.66-1.92-.66c-.7,0-1.32.19-1.85.56s-.95.87-1.24,1.48v9.04h-2.17v-12.68h2.05Z"/>
        <path d="m948.42,193.39v3.07h2.37v1.68h-2.37v7.87c0,.51.11.89.32,1.14.21.25.57.38,1.08.38.25,0,.59-.05,1.03-.14v1.75c-.57.15-1.12.23-1.66.23-.97,0-1.7-.29-2.19-.88s-.74-1.42-.74-2.5v-7.86h-2.31v-1.68h2.31v-3.07h2.17Z"/>
        <path d="m958.58,209.38c-1.72,0-3.12-.56-4.2-1.69s-1.62-2.64-1.62-4.53v-.4c0-1.26.24-2.38.72-3.37s1.15-1.76,2.02-2.32,1.8-.84,2.81-.84c1.65,0,2.93.54,3.84,1.63s1.37,2.64,1.37,4.66v.9h-8.59c.03,1.25.4,2.26,1.1,3.03s1.59,1.15,2.67,1.15c.77,0,1.41-.16,1.95-.47s1-.73,1.39-1.24l1.32,1.03c-1.06,1.63-2.66,2.45-4.78,2.45Zm-.27-11.37c-.88,0-1.61.32-2.2.96s-.96,1.53-1.1,2.68h6.35v-.16c-.06-1.1-.36-1.96-.89-2.56s-1.25-.91-2.16-.91Z"/>
        <path d="m972.16,198.41c-.33-.05-.68-.08-1.07-.08-1.42,0-2.39.61-2.89,1.82v9h-2.17v-12.68h2.11l.04,1.46c.71-1.13,1.72-1.7,3.02-1.7.42,0,.74.05.96.16v2.02Z"/>
        <path d="m975.39,209.14v-11h-2v-1.68h2v-1.3c0-1.36.36-2.41,1.09-3.15s1.75-1.11,3.08-1.11c.5,0,1,.07,1.49.2l-.12,1.75c-.37-.07-.76-.11-1.17-.11-.7,0-1.25.21-1.63.62s-.57,1-.57,1.77v1.34h2.71v1.68h-2.71v11h-2.17Z"/>
        <path d="m987.92,209.38c-1.72,0-3.12-.56-4.2-1.69s-1.62-2.64-1.62-4.53v-.4c0-1.26.24-2.38.72-3.37s1.15-1.76,2.02-2.32,1.8-.84,2.81-.84c1.65,0,2.93.54,3.84,1.63s1.37,2.64,1.37,4.66v.9h-8.59c.03,1.25.4,2.26,1.1,3.03s1.59,1.15,2.67,1.15c.77,0,1.41-.16,1.95-.47s1-.73,1.39-1.24l1.32,1.03c-1.06,1.63-2.66,2.45-4.78,2.45Zm-.27-11.37c-.88,0-1.61.32-2.2.96s-.96,1.53-1.1,2.68h6.35v-.16c-.06-1.1-.36-1.96-.89-2.56s-1.25-.91-2.16-.91Z"/>
        <path d="m1001.5,198.41c-.33-.05-.68-.08-1.07-.08-1.42,0-2.39.61-2.89,1.82v9h-2.17v-12.68h2.11l.04,1.46c.71-1.13,1.72-1.7,3.02-1.7.42,0,.74.05.96.16v2.02Z"/>
        <path d="m1008.76,209.38c-1.72,0-3.12-.56-4.2-1.69s-1.62-2.64-1.62-4.53v-.4c0-1.26.24-2.38.72-3.37s1.15-1.76,2.02-2.32,1.8-.84,2.81-.84c1.65,0,2.93.54,3.84,1.63s1.37,2.64,1.37,4.66v.9h-8.59c.03,1.25.4,2.26,1.1,3.03s1.59,1.15,2.67,1.15c.77,0,1.41-.16,1.95-.47s1-.73,1.39-1.24l1.32,1.03c-1.06,1.63-2.66,2.45-4.78,2.45Zm-.27-11.37c-.88,0-1.61.32-2.2.96s-.96,1.53-1.1,2.68h6.35v-.16c-.06-1.1-.36-1.96-.89-2.56s-1.25-.91-2.16-.91Z"/>
        <path d="m1018.26,196.46l.07,1.59c.97-1.22,2.23-1.83,3.8-1.83,2.68,0,4.03,1.51,4.05,4.54v8.38h-2.17v-8.39c0-.91-.22-1.59-.63-2.03s-1.05-.66-1.92-.66c-.7,0-1.32.19-1.85.56s-.95.87-1.24,1.48v9.04h-2.17v-12.68h2.05Z"/>
        <path d="m1034.54,207.61c.77,0,1.45-.23,2.03-.7s.9-1.05.96-1.76h2.05c-.04.73-.29,1.42-.75,2.07s-1.08,1.18-1.85,1.57-1.58.59-2.44.59c-1.73,0-3.1-.58-4.12-1.73s-1.53-2.73-1.53-4.73v-.36c0-1.23.23-2.33.68-3.29s1.1-1.71,1.95-2.24,1.85-.8,3.01-.8c1.42,0,2.6.43,3.54,1.28s1.44,1.96,1.51,3.32h-2.05c-.06-.82-.37-1.49-.93-2.02s-1.25-.79-2.07-.79c-1.1,0-1.96.4-2.56,1.19s-.91,1.94-.91,3.44v.41c0,1.46.3,2.59.9,3.38s1.46,1.18,2.58,1.18Z"/>
        <path d="m1047.28,209.38c-1.72,0-3.12-.56-4.2-1.69s-1.62-2.64-1.62-4.53v-.4c0-1.26.24-2.38.72-3.37s1.15-1.76,2.02-2.32,1.8-.84,2.81-.84c1.65,0,2.93.54,3.84,1.63s1.37,2.64,1.37,4.66v.9h-8.59c.03,1.25.4,2.26,1.1,3.03s1.59,1.15,2.67,1.15c.77,0,1.41-.16,1.95-.47s1-.73,1.39-1.24l1.32,1.03c-1.06,1.63-2.66,2.45-4.78,2.45Zm-.27-11.37c-.88,0-1.61.32-2.2.96s-.96,1.53-1.1,2.68h6.35v-.16c-.06-1.1-.36-1.96-.89-2.56s-1.25-.91-2.16-.91Z"/>
      </g>
      <g>
        <line class="cls-11" x1="904.14" y1="228.16" x2="1076.12" y2="228.95"/>
        <polygon points="906.44 236.15 892.66 228.11 906.51 220.19 906.44 236.15"/>
      </g>
    </g>
  </g>
</svg>