<?xml version="1.0" encoding="UTF-8"?>
<svg id="Layer_4" data-name="Layer 4" xmlns="http://www.w3.org/2000/svg" width="1140" height="641" xmlns:xlink="http://www.w3.org/1999/xlink" viewBox="0 0 1140 641">
  <defs>
    <style>
      .cls-1, .cls-2 {
        fill: none;
      }

      .cls-3 {
        clip-path: url(#clippath);
      }

      .cls-4, .cls-5, .cls-6, .cls-7, .cls-8, .cls-9 {
        fill: #fff;
      }

      .cls-10 {
        fill: #8ec184;
      }

      .cls-11 {
        fill: #b3d6b2;
      }

      .cls-12 {
        fill: #939393;
      }

      .cls-13 {
        fill: #cecece;
      }

      .cls-14 {
        fill: #b2e2dd;
      }

      .cls-15 {
        fill: #176eaf;
      }

      .cls-16 {
        fill: #2a395e;
      }

      .cls-17 {
        fill: #34614a;
      }

      .cls-18 {
        fill: #5d8e75;
      }

      .cls-5 {
        opacity: .32;
      }

      .cls-2 {
        stroke: #161616;
        stroke-miterlimit: 10;
        stroke-width: 2px;
      }

      .cls-19 {
        opacity: .4;
      }

      .cls-6 {
        opacity: .68;
      }

      .cls-7 {
        opacity: .6;
      }

      .cls-8 {
        opacity: .56;
      }

      .cls-9 {
        opacity: .75;
      }
    </style>
    <clipPath id="clippath">
      <path class="cls-1" d="m26.91,358.66c27.45,147.06,42.59,252.07,383.77,265.79,341.18,13.73,636.06,24.02,695.08-135.17,42.75-115.31,35.08-421.93-86.49-453.3-121.57-31.37-294.67,4.82-439.77,8.75S240.9-19.25,127.18,16.05C13.45,51.34,26.91,358.66,26.91,358.66Z"/>
    </clipPath>
  </defs>
  <g class="cls-3">
    <g>
      <polygon class="cls-14" points="1189.22 625.9 -170.65 625.9 -170.65 -46.07 1189.22 -26.95 1189.22 625.9"/>
      <path class="cls-18" d="m1139.39,517.31c-4.75-3.44-29.63-30.99-65.18-13.77-80.64,39.05-68.14-6.89-117.03-6.89-20.95,0-62.32,26.4-60.73,40.17,1.58,13.77,41.19-6.89,41.19-6.89,0,0-30.11-1.15-36.45-1.15s32.02,15.07,23.41-5.74c-7.24-17.5-35.92-14.24-63.84-9.25-11.11,1.98-20.89,7.05-27.51,14.23l-19.74,21.42s155.84,3.44,179.61,1.15c23.77-2.3,146.28-33.29,146.28-33.29Z"/>
      <path class="cls-17" d="m1224.92,497.54s-104.79-2.03-110.72,8.3c-5.93,10.33-25.18,21.81-25.18,21.81,0,0-44.44-11.48-60.73-14.92-16.29-3.44-35.55,2.3-35.55,2.3,0,0-13.33,10.33-20.74,10.33s-16.29,1.15-32.59,1.15-32.59-9.18-59.25-2.3c-26.66,6.89-23.7,6.89-41.48,6.89s-38.51-4.59-63.7-4.59h-56.29c-5.93,0-16.29,1.15-20.74,3.44s-68.14-9.18-78.51-6.89c-10.37,2.3-5.93,1.15-22.22,5.74-16.29,4.59-29.63,9.18-29.63,9.18,0,0-16.29,10.33,1.48,11.48,17.78,1.15,651.07,7.37,651.07,7.37l4.78-59.29Z"/>
      <path class="cls-11" d="m34.56,534.31c14.31,0,1141.86,11.7,1175.93,11.7,96.06,0,124.43,237.29,124.43,237.29l-1251.73-16.88-48.64-232.12Z"/>
      <path class="cls-10" d="m-49.81,553.3c54.47-4.66,183.7-47.17,474.8-26.15,332.54,24.02,510.89,57.71,547.65,67.02,36.76,9.31,283.36,78.59,298.34,87.9,14.98,9.31-43.57,43.06-55.83,47.72-12.25,4.66-1089.31,39.57-1111.1,40.74-21.79,1.16-100.76-20.95-104.85-34.92-4.08-13.97-49.02-182.3-49.02-182.3Z"/>
    </g>
    <path class="cls-8" d="m83.4,296.15s18.15-13.61,42.34-10.59c24.2,3.02,34.78,9.07,34.78,9.07,0,0,45.37-6.05,71.08,6.05,25.71,12.1,28.73,16.64,19.66,18.15-9.07,1.51-193.57-1.51-193.57-1.51,0,0-7.56-13.61,1.51-15.12,9.07-1.51,24.2-6.05,24.2-6.05Z"/>
    <path class="cls-9" d="m764.92,363.37s3.02-12.1,34.78-12.1h40.5s28.73-18.15,46.88-18.15,45.37,3.02,58.98,4.54c13.61,1.51,25.71,9.07,48.39,9.07s37.81-3.02,57.47,7.56c19.66,10.59,12.1,21.17-6.05,21.17s-288.85-1.51-296.41-1.51,7.9-12.1,15.46-10.59Z"/>
    <path class="cls-7" d="m1087.01,286.41s-18.11-20.2-44.57-17.41c-26.47,2.79-36.22,13.23-39,13.23s-59.2-4.18-68.25,11.14c-26.47.7-52.93,10.45-52.24,18.11s1.39,7.66,5.57,8.36,78.7-1.39,91.93-2.09c-2.09,5.57,0,10.45,11.14,10.45h110.04l-14.63-41.79Z"/>
    <path class="cls-4" d="m470.91,124.1s-11.31-21.14-46.71-20.16c-34.9.97-49.17,15.73-49.17,15.73,0,0-45.23-16.72-75.22-5.9-22.96,8.28-29.5,19.17-29.5,19.17,0,0-41.3-4.42-41.3,7.37s7.37,13.27,39.82,14.75,185.84-1.47,185.84-1.47c0,0-12.29,3.2-4.92,15,6.67,10.67,94.19,5.26,110.85,4.12,2.55-.17,4.98-1.3,6.57-3.3,2.39-3,2.98-7.85-9.5-13.12-11.06-4.67-38.1-5.65-38.1-5.65,0,0,16.22-32.45-48.67-26.55Z"/>
    <path class="cls-6" d="m757.22,119.73s25.07-2.8,39,2.1c13.93,4.89,16.72,18.87-14.86,20.97-31.57,2.1-174.58-.7-178.3-.7s-60.36,4.19-59.43-4.89c.93-9.09,16.72-22.37,34.36-18.17-2.79,1.4-28.79-46.13,46.43-54.52,44.57-2.8,60.36,24.46,60.36,24.46,0,0,13-6.99,45.5-2.8,32.5,4.19,26.93,33.55,26.93,33.55Z"/>
    <path class="cls-4" d="m312.71,369.91s14.72-1.64,22.89,1.23c8.18,2.87,9.81,11.08-8.72,12.31-18.53,1.23-102.47-.41-104.65-.41s-35.43,2.46-34.88-2.87,9.81-13.13,20.17-10.67c-1.64.82-16.9-27.08,27.25-32,26.16-1.64,35.43,14.36,35.43,14.36,0,0,7.63-4.1,26.71-1.64,19.08,2.46,15.81,19.69,15.81,19.69Z"/>
    <g>
      <path d="m932.65,92.54h4.1v13.78c0,1.27-.28,2.39-.84,3.36s-1.35,1.72-2.37,2.25-2.17.79-3.46.79c-2.11,0-3.75-.54-4.92-1.61s-1.76-2.59-1.76-4.55h4.13c0,.98.21,1.7.62,2.16s1.06.7,1.94.7c.78,0,1.41-.27,1.87-.81s.7-1.3.7-2.3v-13.78Z"/>
      <path d="m946.82,112.72c-2.17,0-3.94-.67-5.3-2s-2.04-3.1-2.04-5.32v-.38c0-1.49.29-2.81.86-3.99s1.39-2.07,2.44-2.71,2.25-.95,3.6-.95c2.02,0,3.62.64,4.78,1.91s1.74,3.08,1.74,5.43v1.61h-9.42c.13.97.51,1.74,1.16,2.32s1.46.88,2.44.88c1.52,0,2.71-.55,3.57-1.65l1.94,2.17c-.59.84-1.39,1.49-2.41,1.96s-2.13.7-3.36.7Zm-.45-12.15c-.78,0-1.42.27-1.91.8s-.8,1.29-.94,2.28h5.5v-.32c-.02-.88-.25-1.56-.71-2.04s-1.1-.72-1.94-.72Z"/>
      <path d="m959.88,94.02v3.64h2.53v2.9h-2.53v7.38c0,.55.1.94.31,1.18s.61.36,1.2.36c.44,0,.83-.03,1.16-.1v2.99c-.77.24-1.57.36-2.39.36-2.77,0-4.18-1.4-4.24-4.2v-7.97h-2.16v-2.9h2.16v-3.64h3.95Z"/>
    </g>
    <g>
      <path d="m124.84,153.31c0-.77-.27-1.37-.82-1.78s-1.53-.85-2.95-1.31-2.55-.91-3.38-1.36c-2.26-1.22-3.39-2.87-3.39-4.94,0-1.08.3-2.04.91-2.88.61-.84,1.48-1.5,2.61-1.98s2.41-.71,3.82-.71,2.69.26,3.8.77c1.11.51,1.98,1.24,2.59,2.18s.92,2,.92,3.2h-4.1c0-.91-.29-1.62-.86-2.13s-1.38-.76-2.42-.76-1.78.21-2.34.64c-.56.42-.83.98-.83,1.67,0,.65.33,1.19.98,1.63.65.44,1.61.85,2.88,1.23,2.33.7,4.03,1.57,5.1,2.61s1.6,2.33,1.6,3.88c0,1.72-.65,3.07-1.96,4.05-1.3.98-3.06,1.47-5.26,1.47-1.53,0-2.93-.28-4.18-.84s-2.22-1.33-2.88-2.3c-.66-.98-.99-2.11-.99-3.39h4.12c0,2.2,1.31,3.29,3.94,3.29.98,0,1.74-.2,2.28-.59s.82-.95.82-1.66Z"/>
      <path d="m136.84,152.6l-1.42,1.42v4.51h-3.95v-21h3.95v11.63l.77-.98,3.79-4.44h4.74l-5.35,6.17,5.81,8.63h-4.54l-3.8-5.93Z"/>
      <path d="m151.95,152.94l2.73-9.2h4.24l-5.95,17.09-.33.78c-.88,1.93-2.34,2.9-4.38,2.9-.57,0-1.16-.09-1.75-.26v-2.99h.6c.75.01,1.31-.1,1.67-.33s.66-.61.87-1.13l.46-1.22-5.18-14.83h4.25l2.75,9.2Z"/>
    </g>
    <g>
      <path d="m178.41,486.71c-.74.88-1.78,1.57-3.13,2.06-1.35.49-2.84.73-4.48.73-1.72,0-3.23-.38-4.53-1.13s-2.3-1.84-3.01-3.27c-.71-1.43-1.07-3.11-1.09-5.04v-1.35c0-1.99.33-3.71,1-5.16s1.64-2.57,2.9-3.34c1.26-.77,2.74-1.16,4.44-1.16,2.36,0,4.21.56,5.54,1.69,1.33,1.13,2.12,2.76,2.37,4.92h-3.99c-.18-1.14-.59-1.97-1.21-2.5-.62-.53-1.48-.79-2.58-.79-1.39,0-2.46.52-3.19,1.57-.73,1.05-1.1,2.61-1.11,4.68v1.27c0,2.09.4,3.66,1.19,4.73s1.96,1.6,3.49,1.6,2.64-.33,3.29-.98v-3.43h-3.73v-3.02h7.83v7.94Z"/>
      <path d="m189.79,478.13c-.54-.07-1.01-.11-1.42-.11-1.5,0-2.47.51-2.94,1.52v9.68h-3.95v-14.79h3.73l.11,1.76c.79-1.36,1.89-2.04,3.29-2.04.44,0,.85.06,1.23.18l-.05,3.8Z"/>
      <path d="m190.58,481.69c0-1.47.28-2.78.85-3.92.56-1.15,1.38-2.04,2.44-2.67,1.06-.63,2.29-.94,3.7-.94,2,0,3.62.61,4.89,1.83,1.26,1.22,1.97,2.88,2.11,4.98l.03,1.01c0,2.27-.63,4.09-1.9,5.46-1.27,1.37-2.97,2.06-5.1,2.06s-3.83-.68-5.11-2.05-1.91-3.23-1.91-5.58v-.18Zm3.95.28c0,1.41.26,2.48.79,3.22.53.74,1.29,1.12,2.27,1.12s1.7-.37,2.24-1.1c.54-.73.81-1.91.81-3.53,0-1.38-.27-2.45-.81-3.2-.54-.76-1.29-1.14-2.27-1.14s-1.71.38-2.24,1.13c-.53.75-.79,1.92-.79,3.5Z"/>
      <path d="m215.89,487.72c-.98,1.18-2.32,1.78-4.05,1.78-1.59,0-2.8-.46-3.63-1.37s-1.26-2.25-1.28-4.01v-9.69h3.95v9.57c0,1.54.7,2.31,2.11,2.31s2.26-.46,2.76-1.4v-10.48h3.96v14.79h-3.72l-.11-1.5Z"/>
      <path d="m226.33,474.43l.12,1.71c1.06-1.32,2.47-1.98,4.25-1.98,1.57,0,2.73.46,3.5,1.38s1.16,2.3,1.18,4.13v9.56h-3.95v-9.46c0-.84-.18-1.45-.55-1.83-.36-.38-.97-.57-1.82-.57-1.11,0-1.95.47-2.5,1.42v10.43h-3.95v-14.79h3.72Z"/>
      <path d="m237.76,481.72c0-2.31.52-4.14,1.55-5.51,1.03-1.37,2.45-2.05,4.25-2.05,1.44,0,2.63.54,3.57,1.61v-7.55h3.96v21h-3.57l-.19-1.57c-.98,1.23-2.25,1.85-3.8,1.85-1.74,0-3.14-.69-4.19-2.06s-1.58-3.28-1.58-5.72Zm3.95.29c0,1.39.24,2.45.72,3.19.48.74,1.18,1.11,2.11,1.11,1.22,0,2.08-.52,2.58-1.55v-5.85c-.49-1.03-1.34-1.55-2.56-1.55-1.91,0-2.86,1.55-2.86,4.64Z"/>
    </g>
    <g>
      <path d="m427.57,572.68c-1.86-.55-3.21-1.24-4.06-2.04-.85-.81-1.27-1.81-1.27-2.99,0-1.34.52-2.46,1.55-3.33,1.04-.88,2.38-1.32,4.04-1.32,1.13,0,2.14.23,3.02.68s1.57,1.08,2.06,1.88.73,1.67.73,2.61h-2.18c0-1.04-.32-1.85-.95-2.44s-1.53-.89-2.68-.89c-1.07,0-1.9.24-2.5.73-.6.49-.9,1.17-.9,2.04,0,.7.28,1.29.85,1.77.57.48,1.54.92,2.9,1.32,1.37.4,2.44.84,3.21,1.32.77.48,1.34,1.04,1.72,1.68.37.64.56,1.39.56,2.26,0,1.38-.52,2.49-1.56,3.32s-2.43,1.25-4.17,1.25c-1.13,0-2.19-.22-3.16-.67-.98-.45-1.73-1.06-2.27-1.85s-.8-1.67-.8-2.66h2.18c0,1.03.37,1.85,1.1,2.44s1.72.9,2.94.9c1.15,0,2.02-.24,2.63-.73s.92-1.14.92-1.98-.28-1.48-.85-1.94-1.59-.91-3.07-1.35Z"/>
      <path d="m435.57,573.83c0-1.24.24-2.36.71-3.35s1.13-1.76,1.97-2.3,1.8-.81,2.88-.81c1.66,0,3.01.6,4.04,1.79s1.54,2.79,1.54,4.77v.15c0,1.23-.23,2.34-.68,3.32-.46.98-1.11,1.74-1.96,2.29-.85.55-1.82.82-2.92.82-1.66,0-3-.6-4.03-1.79s-1.54-2.78-1.54-4.75v-.15Zm2.1.26c0,1.41.31,2.54.94,3.39.63.85,1.47,1.28,2.53,1.28s1.91-.43,2.53-1.29c.62-.86.94-2.07.94-3.63,0-1.39-.32-2.52-.96-3.38s-1.48-1.29-2.54-1.29-1.86.43-2.5,1.28-.95,2.07-.95,3.66Z"/>
      <path d="m451.3,567.6l.07,1.59c.93-1.22,2.15-1.83,3.66-1.83,2.58,0,3.89,1.51,3.91,4.54v8.38h-2.09v-8.39c0-.91-.21-1.59-.6-2.03s-1.01-.66-1.85-.66c-.68,0-1.27.19-1.79.56s-.91.87-1.2,1.48v9.04h-2.09v-12.68h1.98Z"/>
      <path d="m462.1,564.24c0-.35.1-.65.31-.89.21-.24.51-.36.92-.36s.72.12.93.36.32.54.32.89-.11.64-.32.88-.52.35-.93.35-.71-.12-.92-.35c-.21-.23-.31-.53-.31-.88Zm2.26,16.04h-2.09v-12.68h2.09v12.68Z"/>
      <path d="m472.61,578.75c.75,0,1.4-.23,1.95-.7s.87-1.05.93-1.76h1.98c-.04.73-.28,1.42-.72,2.07-.44.66-1.04,1.18-1.78,1.57-.74.39-1.53.59-2.36.59-1.67,0-2.99-.58-3.97-1.73-.98-1.15-1.47-2.73-1.47-4.73v-.36c0-1.23.22-2.33.66-3.29s1.06-1.71,1.88-2.24c.82-.53,1.78-.8,2.9-.8,1.37,0,2.51.43,3.42,1.28s1.39,1.96,1.45,3.32h-1.98c-.06-.82-.36-1.49-.9-2.02s-1.2-.79-1.99-.79c-1.06,0-1.89.4-2.47,1.19-.58.79-.88,1.94-.88,3.44v.41c0,1.46.29,2.59.87,3.38s1.41,1.18,2.49,1.18Z"/>
      <path d="m495.9,574.08c0,1.94-.43,3.49-1.29,4.67s-2.01,1.76-3.46,1.76c-1.54,0-2.74-.57-3.58-1.7l-.1,1.46h-1.92v-18h2.09v6.71c.84-1.09,2.01-1.63,3.49-1.63s2.65.58,3.5,1.75c.85,1.16,1.27,2.76,1.27,4.78v.19Zm-2.09-.25c0-1.48-.27-2.62-.82-3.42-.55-.8-1.34-1.21-2.37-1.21-1.38,0-2.37.66-2.97,1.99v5.48c.64,1.33,1.64,1.99,2.99,1.99,1,0,1.78-.4,2.34-1.21s.84-2.02.84-3.63Z"/>
      <path d="m497.98,573.83c0-1.24.24-2.36.71-3.35s1.13-1.76,1.97-2.3,1.8-.81,2.88-.81c1.66,0,3.01.6,4.04,1.79s1.54,2.79,1.54,4.77v.15c0,1.23-.23,2.34-.68,3.32-.46.98-1.11,1.74-1.96,2.29-.85.55-1.82.82-2.92.82-1.66,0-3-.6-4.03-1.79s-1.54-2.78-1.54-4.75v-.15Zm2.1.26c0,1.41.31,2.54.94,3.39.63.85,1.47,1.28,2.53,1.28s1.91-.43,2.53-1.29c.62-.86.94-2.07.94-3.63,0-1.39-.32-2.52-.96-3.38s-1.48-1.29-2.54-1.29-1.86.43-2.5,1.28-.95,2.07-.95,3.66Z"/>
      <path d="m511.18,573.83c0-1.24.24-2.36.71-3.35s1.13-1.76,1.97-2.3,1.8-.81,2.88-.81c1.66,0,3.01.6,4.04,1.79s1.54,2.79,1.54,4.77v.15c0,1.23-.23,2.34-.68,3.32-.46.98-1.11,1.74-1.96,2.29-.85.55-1.82.82-2.92.82-1.66,0-3-.6-4.03-1.79s-1.54-2.78-1.54-4.75v-.15Zm2.1.26c0,1.41.31,2.54.94,3.39.63.85,1.47,1.28,2.53,1.28s1.91-.43,2.53-1.29c.62-.86.94-2.07.94-3.63,0-1.39-.32-2.52-.96-3.38s-1.48-1.29-2.54-1.29-1.86.43-2.5,1.28-.95,2.07-.95,3.66Z"/>
      <path d="m526.9,567.6l.06,1.41c.9-1.09,2.11-1.64,3.63-1.64,1.71,0,2.87.68,3.49,2.04.41-.61.94-1.1,1.59-1.48.65-.38,1.42-.56,2.31-.56,2.68,0,4.05,1.47,4.09,4.42v8.5h-2.09v-8.37c0-.91-.2-1.58-.6-2.03-.4-.45-1.07-.67-2.01-.67-.78,0-1.42.24-1.93.72s-.81,1.13-.89,1.94v8.41h-2.1v-8.31c0-1.84-.87-2.77-2.61-2.77-1.37,0-2.31.61-2.81,1.82v9.26h-2.09v-12.68h1.98Z"/>
      <path d="m553.03,569.14c.93-1.18,2.13-1.77,3.62-1.77,2.58,0,3.89,1.51,3.91,4.54v8.38h-2.09v-8.39c0-.91-.21-1.59-.6-2.03s-1.01-.66-1.85-.66c-.68,0-1.27.19-1.79.56s-.91.87-1.2,1.48v9.04h-2.09v-18h2.09v6.86Z"/>
      <path d="m568.76,580.52c-1.66,0-3.01-.56-4.05-1.69s-1.56-2.64-1.56-4.53v-.4c0-1.26.23-2.38.69-3.37.46-.99,1.11-1.76,1.94-2.32s1.73-.84,2.71-.84c1.59,0,2.82.54,3.71,1.63.88,1.09,1.32,2.64,1.32,4.66v.9h-8.28c.03,1.25.38,2.26,1.06,3.03s1.53,1.15,2.57,1.15c.74,0,1.36-.16,1.88-.47.51-.31.96-.73,1.34-1.24l1.28,1.03c-1.03,1.63-2.56,2.45-4.61,2.45Zm-.26-11.37c-.84,0-1.55.32-2.12.96-.57.64-.93,1.53-1.06,2.68h6.12v-.16c-.06-1.1-.35-1.96-.86-2.56-.51-.61-1.21-.91-2.08-.91Z"/>
      <path d="m583.5,580.28c-.12-.25-.22-.7-.29-1.34-.97,1.05-2.13,1.57-3.48,1.57-1.21,0-2.19-.35-2.97-1.06-.77-.71-1.16-1.6-1.16-2.69,0-1.32.48-2.35,1.45-3.08.97-.73,2.33-1.1,4.08-1.1h2.03v-1c0-.76-.22-1.36-.66-1.81s-1.08-.67-1.93-.67c-.75,0-1.37.2-1.88.59-.5.39-.76.86-.76,1.42h-2.1c0-.63.22-1.24.65-1.83.43-.59,1.02-1.06,1.76-1.4.74-.34,1.56-.52,2.45-.52,1.41,0,2.51.37,3.31,1.1s1.21,1.74,1.24,3.02v5.84c0,1.16.14,2.09.43,2.78v.19h-2.19Zm-3.47-1.65c.66,0,1.28-.18,1.87-.53.59-.35,1.01-.81,1.28-1.37v-2.6h-1.64c-2.56,0-3.84.78-3.84,2.33,0,.68.22,1.21.66,1.59.44.38,1,.57,1.68.57Z"/>
      <path d="m594.45,569.55c-.32-.05-.66-.08-1.03-.08-1.37,0-2.3.61-2.79,1.82v9h-2.09v-12.68h2.03l.03,1.46c.69-1.13,1.66-1.7,2.92-1.7.41,0,.72.05.93.16v2.02Z"/>
      <path d="m595.86,573.84c0-1.95.44-3.51,1.33-4.69s2.05-1.78,3.49-1.78,2.57.51,3.4,1.52v-6.61h2.09v18h-1.92l-.1-1.36c-.84,1.06-2,1.59-3.49,1.59s-2.57-.6-3.46-1.8-1.34-2.77-1.34-4.71v-.16Zm2.09.25c0,1.44.29,2.56.86,3.38.57.81,1.36,1.22,2.37,1.22,1.33,0,2.29-.62,2.9-1.85v-5.82c-.62-1.2-1.59-1.79-2.88-1.79-1.03,0-1.82.41-2.4,1.23-.57.82-.86,2.04-.86,3.64Z"/>
      <path d="m617.24,569.14c.93-1.18,2.13-1.77,3.62-1.77,2.58,0,3.89,1.51,3.91,4.54v8.38h-2.09v-8.39c0-.91-.21-1.59-.6-2.03s-1.01-.66-1.85-.66c-.68,0-1.27.19-1.79.56-.51.38-.91.87-1.2,1.48v9.04h-2.09v-18h2.09v6.86Z"/>
      <path d="m632.97,580.52c-1.66,0-3.01-.56-4.04-1.69-1.04-1.13-1.56-2.64-1.56-4.53v-.4c0-1.26.23-2.38.69-3.37.46-.99,1.11-1.76,1.94-2.32.83-.56,1.73-.84,2.71-.84,1.59,0,2.83.54,3.71,1.63.88,1.09,1.32,2.64,1.32,4.66v.9h-8.28c.03,1.25.38,2.26,1.06,3.03.67.77,1.53,1.15,2.57,1.15.74,0,1.36-.16,1.88-.47.51-.31.96-.73,1.34-1.24l1.28,1.03c-1.02,1.63-2.56,2.45-4.61,2.45Zm-.26-11.37c-.84,0-1.55.32-2.12.96-.57.64-.93,1.53-1.06,2.68h6.12v-.16c-.06-1.1-.35-1.96-.86-2.56s-1.21-.91-2.08-.91Z"/>
      <path d="m646.07,569.55c-.32-.05-.66-.08-1.03-.08-1.37,0-2.3.61-2.79,1.82v9h-2.09v-12.68h2.03l.03,1.46c.69-1.13,1.66-1.7,2.92-1.7.41,0,.72.05.93.16v2.02Z"/>
      <path d="m653.06,580.52c-1.66,0-3.01-.56-4.04-1.69-1.04-1.13-1.56-2.64-1.56-4.53v-.4c0-1.26.23-2.38.69-3.37.46-.99,1.11-1.76,1.94-2.32.83-.56,1.73-.84,2.71-.84,1.59,0,2.83.54,3.71,1.63.88,1.09,1.32,2.64,1.32,4.66v.9h-8.28c.03,1.25.38,2.26,1.06,3.03.67.77,1.53,1.15,2.57,1.15.74,0,1.36-.16,1.88-.47.51-.31.96-.73,1.34-1.24l1.28,1.03c-1.02,1.63-2.56,2.45-4.61,2.45Zm-.26-11.37c-.84,0-1.55.32-2.12.96-.57.64-.93,1.53-1.06,2.68h6.12v-.16c-.06-1.1-.35-1.96-.86-2.56s-1.21-.91-2.08-.91Z"/>
    </g>
    <g>
      <path d="m562.36,247.13h-2.18l-8.28-13.15v13.15h-2.18v-17.06h2.18l8.31,13.21v-13.21h2.16v17.06Z"/>
      <path d="m565.33,240.67c0-1.24.24-2.36.71-3.35s1.13-1.76,1.97-2.3c.84-.54,1.8-.81,2.88-.81,1.67,0,3.01.6,4.04,1.79s1.54,2.79,1.54,4.77v.15c0,1.23-.23,2.34-.68,3.32-.46.98-1.11,1.74-1.95,2.29s-1.82.82-2.92.82c-1.66,0-3-.6-4.03-1.79s-1.54-2.78-1.54-4.75v-.15Zm2.1.26c0,1.41.31,2.54.94,3.39s1.47,1.28,2.53,1.28,1.91-.43,2.53-1.29c.63-.86.94-2.07.94-3.63,0-1.39-.32-2.52-.96-3.38s-1.48-1.29-2.54-1.29-1.86.43-2.5,1.28-.95,2.07-.95,3.66Z"/>
      <path d="m579.09,231.09c0-.35.1-.65.31-.89.21-.24.51-.36.92-.36s.72.12.93.36c.21.24.32.54.32.89s-.11.64-.32.88c-.21.23-.52.35-.93.35s-.71-.12-.92-.35c-.21-.23-.31-.53-.31-.88Zm2.26,16.04h-2.09v-12.68h2.09v12.68Z"/>
      <path d="m591.82,243.77c0-.59-.21-1.04-.64-1.37s-1.17-.6-2.23-.84c-1.06-.23-1.9-.52-2.52-.84-.62-.33-1.08-.72-1.38-1.17-.3-.45-.45-.99-.45-1.62,0-1.04.42-1.92,1.27-2.64s1.93-1.08,3.25-1.08c1.39,0,2.51.37,3.37,1.11.86.74,1.29,1.69,1.29,2.85h-2.1c0-.59-.24-1.11-.73-1.54-.49-.43-1.1-.64-1.84-.64s-1.36.17-1.79.52c-.43.34-.64.79-.64,1.35,0,.52.2.92.6,1.18s1.12.52,2.16.76c1.04.24,1.89.53,2.54.87.65.34,1.13.74,1.44,1.21s.47,1.05.47,1.73c0,1.13-.44,2.04-1.31,2.72s-2.01,1.03-3.4,1.03c-.98,0-1.85-.18-2.6-.54-.75-.36-1.34-.86-1.77-1.51s-.64-1.34-.64-2.09h2.09c.04.73.32,1.3.84,1.73s1.21.64,2.07.64c.79,0,1.43-.17,1.9-.5s.72-.78.72-1.33Z"/>
      <path d="m601.7,247.36c-1.66,0-3.01-.56-4.04-1.69-1.04-1.13-1.56-2.64-1.56-4.53v-.4c0-1.26.23-2.38.7-3.37.46-.99,1.11-1.76,1.94-2.32s1.73-.84,2.71-.84c1.59,0,2.83.54,3.71,1.63.88,1.09,1.32,2.64,1.32,4.66v.9h-8.28c.03,1.25.38,2.26,1.06,3.03.67.77,1.53,1.15,2.57,1.15.74,0,1.36-.16,1.88-.47.51-.31.96-.73,1.34-1.24l1.28,1.03c-1.02,1.63-2.56,2.45-4.61,2.45Zm-.26-11.37c-.84,0-1.55.32-2.12.96s-.93,1.53-1.06,2.68h6.12v-.16c-.06-1.1-.35-1.96-.86-2.56-.51-.61-1.21-.91-2.08-.91Z"/>
      <path d="m619.52,245.59c.75,0,1.4-.23,1.96-.7.56-.47.87-1.05.93-1.76h1.98c-.04.73-.28,1.42-.72,2.07s-1.04,1.18-1.78,1.57c-.74.39-1.53.59-2.36.59-1.67,0-2.99-.58-3.97-1.73-.98-1.15-1.47-2.73-1.47-4.73v-.36c0-1.23.22-2.33.66-3.29.44-.96,1.06-1.71,1.88-2.24s1.78-.8,2.9-.8c1.37,0,2.51.43,3.42,1.28.91.85,1.39,1.96,1.45,3.32h-1.98c-.06-.82-.36-1.49-.9-2.02-.54-.53-1.2-.79-2-.79-1.06,0-1.88.4-2.47,1.19s-.88,1.94-.88,3.44v.41c0,1.46.29,2.59.87,3.38s1.41,1.18,2.49,1.18Z"/>
      <path d="m626.18,240.67c0-1.24.24-2.36.71-3.35s1.13-1.76,1.97-2.3c.84-.54,1.8-.81,2.88-.81,1.67,0,3.01.6,4.04,1.79s1.54,2.79,1.54,4.77v.15c0,1.23-.23,2.34-.68,3.32-.46.98-1.11,1.74-1.95,2.29s-1.82.82-2.92.82c-1.66,0-3-.6-4.03-1.79s-1.54-2.78-1.54-4.75v-.15Zm2.1.26c0,1.41.31,2.54.94,3.39s1.47,1.28,2.53,1.28,1.91-.43,2.53-1.29c.63-.86.94-2.07.94-3.63,0-1.39-.32-2.52-.96-3.38s-1.48-1.29-2.54-1.29-1.86.43-2.5,1.28-.95,2.07-.95,3.66Z"/>
      <path d="m641.91,234.45l.07,1.59c.93-1.22,2.15-1.83,3.66-1.83,2.58,0,3.89,1.51,3.91,4.54v8.38h-2.09v-8.39c0-.91-.21-1.59-.6-2.03s-1.01-.66-1.85-.66c-.68,0-1.27.19-1.79.56s-.91.87-1.2,1.48v9.04h-2.09v-12.68h1.98Z"/>
      <path d="m657.77,247.36c-1.66,0-3.01-.56-4.04-1.69-1.04-1.13-1.56-2.64-1.56-4.53v-.4c0-1.26.23-2.38.7-3.37.46-.99,1.11-1.76,1.94-2.32s1.73-.84,2.71-.84c1.59,0,2.83.54,3.71,1.63.88,1.09,1.32,2.64,1.32,4.66v.9h-8.28c.03,1.25.38,2.26,1.06,3.03.67.77,1.53,1.15,2.57,1.15.74,0,1.36-.16,1.88-.47.51-.31.96-.73,1.34-1.24l1.28,1.03c-1.02,1.63-2.56,2.45-4.61,2.45Zm-.26-11.37c-.84,0-1.55.32-2.12.96s-.93,1.53-1.06,2.68h6.12v-.16c-.06-1.1-.35-1.96-.86-2.56-.51-.61-1.21-.91-2.08-.91Z"/>
    </g>
    <g>
      <g>
        <g class="cls-19">
          <path class="cls-4" d="m563.13,384.61c26.34,60.84,20.01,122.14-14.14,136.92-34.15,14.78-83.18-22.55-109.52-83.39s-19.73-122.61,14.41-137.39c34.15-14.78,82.9,23.02,109.24,83.86Z"/>
        </g>
        <path class="cls-5" d="m459.56,298.2s37.14-5.91,68.92,32.88c22.16,27.04,39.06,54.08,46.24,89.39,13.67,67.26-11.93,91.95-11.93,91.95l330.23-305.76-433.46,91.54Z"/>
      </g>
      <path class="cls-2" d="m562.79,512.42l330.23-305.76-433.46,91.54s1.76-.28,4.84-.32c-3.62.46-7.13,1.4-10.5,2.86-34.15,14.78-40.75,76.56-14.41,137.39,26.34,60.84,75.37,98.17,109.52,83.39,9.52-4.12,13.79-9.11,13.79-9.11Z"/>
    </g>
  </g>
  <g>
    <g>
      <polygon class="cls-13" points="949.41 145.84 891.65 148.09 874.63 142.66 866.65 146.11 875.69 154.99 894.57 165.77 949.41 145.84"/>
      <path class="cls-15" d="m835.38,151.58s-24.77.77-26.14.88-9.35,3.57-9.23,4.94,11.55,5.9,12.8,4.41,22.57-10.23,22.57-10.23Z"/>
      <path class="cls-4" d="m886.11,163.75s84.27-30.76,109.7-39.86c25.43-9.1,32.04-12.43,41.86-10.53s38.94,3.53,38.05,9.12c-.9,5.6-41.36,26.32-75.02,38.8-53.41,19.8-87.06,26.7-107.37,31.22-20.31,4.52-47.3,2.31-47.3,2.31l-3.33-6.61,3.87-3.1-33.52-20.55s-11.73,7.92-12.09,3.81,35.44-21.01,41.03-20.11,44.12,15.5,44.12,15.5Z"/>
      <path class="cls-15" d="m814.42,164.44s23.7-13.09,25.19-11.84-27.4,34.11-27.4,34.11c0,0-13.22,6.66-13.34,5.3l-.12-1.37,15.67-26.19Z"/>
      <g>
        <rect class="cls-16" x="1005.46" y="133.38" width="5.5" height="8.97" rx="1.3" ry="1.3" transform="translate(10.9 340) rotate(-19.24)"/>
        <rect class="cls-16" x="991.99" y="138.32" width="5.5" height="8.97" rx="1.3" ry="1.3" transform="translate(8.51 335.84) rotate(-19.24)"/>
        <rect class="cls-16" x="978.52" y="143.26" width="5.5" height="8.97" rx="1.3" ry="1.3" transform="translate(6.13 331.68) rotate(-19.24)"/>
        <rect class="cls-16" x="965.05" y="148.21" width="5.5" height="8.97" rx="1.3" ry="1.3" transform="translate(3.75 327.51) rotate(-19.24)"/>
        <rect class="cls-16" x="951.58" y="153.15" width="5.5" height="8.97" rx="1.3" ry="1.3" transform="translate(1.37 323.35) rotate(-19.24)"/>
        <rect class="cls-16" x="938.11" y="158.1" width="5.5" height="8.97" rx="1.3" ry="1.3" transform="translate(-1.01 319.18) rotate(-19.24)"/>
      </g>
      <path class="cls-16" d="m1028.22,124.7c-.02,1.05,1.56,2.56,3.79,2.95s8.68-1.01,13.92-4.22,9.99-7.75,9.99-7.75l-14.9-1.82s-12.77,9.79-12.8,10.84Z"/>
    </g>
    <g>
      <path class="cls-4" d="m900.57,187.33c2.15-1.82,37.4-16.29,66.7-26.48,32.64-11.35,41.86-10.53,43.47-7.91,1.61,2.62-18.88,20.95-18.88,20.95,0,0-31.1,64.73-31.01,66.1s-16.02,7.91-17.48,6.63l-1.46-1.28s3.96-45.71,3.61-51.2-30.62-4.93-30.62-4.93c0,0-16.47-.08-14.32-1.89Z"/>
      <path class="cls-12" d="m960.85,240.01l-27.12-4.49-6.61,3.33,16.25,7.79s1.88,1.42,9.11-1.71c7.98-3.45,8.37-4.92,8.37-4.92Z"/>
    </g>
    <path d="m849.58,176.91c9.7-6.91,20.27-13.23,32.12-15.38,4.94,1.14,8.79,5.38,9.26,10.45.17,1.81-.02,3.52-.89,5.22,0,0-.17.12-.17.12-5.62,3.61-11.84,5.9-18.06,8.22-6.23,2.11-12.69,3.67-19.29,3.93,0,0-.19,0-.19,0-1.2-2.2-2.38-4.4-3.54-6.62,1.35,2.04,2.67,4.1,3.97,6.16l-.27-.15c11.28-1.36,21.96-5.76,32.09-10.74,1.35-.7,2.87-1.51,4.07-2.35,0,0-.26.3-.26.3.23-.46.43-1.2.51-1.84.42-3.42-1.1-7.03-3.91-9.07-1.12-.8-2.45-1.48-3.73-1.82h.34c-11.5,2.16-22.05,7.71-32.08,13.58h0Z"/>
    <path d="m907.45,185.26c6.57-3.64,110.56-49.59,102.79-29.71-1.82,3.51-4.94,6.06-7.98,8.45,1.92-1.72,3.74-3.55,5.33-5.54,5.27-6.76.51-7.44-5.7-6.33-7.55,1.35-14.88,3.76-22.17,6.15-22.81,7.64-49.59,18.34-72.26,26.99h0Z"/>
  </g>
</svg>