<?xml version="1.0" encoding="UTF-8"?><svg id="b" xmlns="http://www.w3.org/2000/svg" width="1140" height="371" viewBox="0 0 1140 371"><line x1="402" y1="193.5" x2="405" y2="193.5" fill="none" stroke="#000" stroke-linecap="round" stroke-linejoin="round" stroke-width="2"/><line x1="411.02" y1="193.5" x2="792.99" y2="193.5" fill="none" stroke="#000" stroke-dasharray="0 0 6.02 6.02" stroke-linecap="round" stroke-linejoin="round" stroke-width="2"/><line x1="796" y1="193.5" x2="799" y2="193.5" fill="none" stroke="#000" stroke-linecap="round" stroke-linejoin="round" stroke-width="2"/><path d="m515.67,112.28l.17-.84c1.37,0,2.24-.2,2.24-1.6,0-.45-.03-.84-.06-1.18l-.28-2.52h-7.22l-1.96,2.97c-.39.53-.7,1.04-.7,1.57,0,.59.39.76,1.62.76l-.2.84h-5.85l.2-.84c1.54,0,2.07-.45,4.17-3.64l9.69-14.03h1.18l2.21,15.18c.36,1.85.76,2.49,2.44,2.49l-.17.84h-7.48Zm1.04-15.34h-.08l-5.43,8.09h6.44l-.92-8.09Z"/><path d="m718.67,280.28l.17-.84c1.37,0,2.24-.2,2.24-1.6,0-.45-.03-.84-.06-1.18l-.28-2.52h-7.22l-1.96,2.97c-.39.53-.7,1.04-.7,1.57,0,.59.39.76,1.62.76l-.2.84h-5.85l.2-.84c1.54,0,2.07-.45,4.17-3.64l9.69-14.03h1.18l2.21,15.18c.36,1.85.76,2.49,2.44,2.49l-.17.84h-7.48Zm1.04-15.34h-.08l-5.43,8.09h6.44l-.92-8.09Z"/><path d="m79.97,193.5h322.12S446.65,19,493.82,19s102.48,174.5,102.48,174.5c0,0,58.7,173.5,103.91,173.5,40.79,0,99.61-173.5,99.61-173.5h264.68" fill="none" stroke="#000" stroke-linecap="round" stroke-linejoin="round" stroke-width="2"/><line x1="493" y1="179.52" x2="493" y2="32.48" fill="none" stroke="#d12d32" stroke-miterlimit="10" stroke-width="2"/><polygon points="500.98 177.18 493 191 485.02 177.18 500.98 177.18" fill="#d12d32"/><polygon points="500.98 34.82 493 21 485.02 34.82 500.98 34.82" fill="#d12d32"/><line x1="700" y1="353.52" x2="700" y2="206.48" fill="none" stroke="#d12d32" stroke-miterlimit="10" stroke-width="2"/><polygon points="707.98 351.18 700 365 692.02 351.18 707.98 351.18" fill="#d12d32"/><polygon points="707.98 208.82 700 195 692.02 208.82 707.98 208.82" fill="#d12d32"/><line x1="305.38" y1="53" x2="419.87" y2="82.17" fill="none" stroke="#000" stroke-miterlimit="10" stroke-width="2"/><polygon points="415.64 89.32 431 85 419.58 73.86 415.64 89.32"/><line x1="827" y1="313" x2="762.32" y2="320.04" fill="none" stroke="#000" stroke-miterlimit="10" stroke-width="2"/><polygon points="763.78 311.86 750.91 321.28 765.51 327.72 763.78 311.86"/><path d="m164.41,40.46c-.25,2.11-1.02,3.73-2.33,4.87-1.31,1.14-3.05,1.72-5.22,1.72-2.35,0-4.24-.84-5.65-2.53-1.42-1.69-2.13-3.94-2.13-6.77v-1.91c0-1.85.33-3.48.99-4.88.66-1.4,1.6-2.48,2.81-3.23,1.21-.75,2.62-1.13,4.21-1.13,2.11,0,3.81.59,5.09,1.77,1.28,1.18,2.02,2.81,2.23,4.9h-2.64c-.23-1.59-.72-2.74-1.48-3.46-.76-.71-1.83-1.07-3.19-1.07-1.68,0-2.99.62-3.94,1.86-.95,1.24-1.43,3.01-1.43,5.29v1.93c0,2.16.45,3.88,1.35,5.16s2.16,1.92,3.79,1.92c1.46,0,2.58-.33,3.36-.99.78-.66,1.3-1.81,1.55-3.45h2.64Z"/><path d="m174.75,34.25c-.38-.06-.8-.1-1.24-.1-1.66,0-2.78.71-3.38,2.12v10.5h-2.53v-14.79h2.46l.04,1.71c.83-1.32,2-1.98,3.53-1.98.49,0,.87.06,1.12.19v2.35Z"/><path d="m182.95,47.05c-2.01,0-3.64-.66-4.89-1.98-1.26-1.32-1.89-3.08-1.89-5.28v-.46c0-1.47.28-2.78.84-3.93.56-1.15,1.34-2.06,2.35-2.71,1.01-.65,2.1-.98,3.27-.98,1.92,0,3.42.63,4.48,1.9,1.07,1.27,1.6,3.08,1.6,5.44v1.05h-10.02c.04,1.46.46,2.64,1.28,3.53.82.9,1.85,1.35,3.11,1.35.89,0,1.65-.18,2.27-.55.62-.36,1.16-.85,1.63-1.45l1.54,1.2c-1.24,1.91-3.1,2.86-5.58,2.86Zm-.31-13.26c-1.02,0-1.88.37-2.57,1.11-.69.74-1.12,1.78-1.29,3.12h7.41v-.19c-.07-1.29-.42-2.28-1.04-2.99-.62-.71-1.46-1.06-2.52-1.06Z"/><path d="m200.26,42.85c0-.68-.26-1.21-.77-1.59-.52-.38-1.41-.7-2.69-.98-1.28-.27-2.3-.6-3.05-.98s-1.31-.84-1.67-1.37c-.36-.53-.54-1.16-.54-1.89,0-1.21.51-2.24,1.54-3.08,1.03-.84,2.34-1.26,3.93-1.26,1.68,0,3.04.43,4.08,1.3,1.04.87,1.57,1.97,1.57,3.32h-2.54c0-.69-.29-1.29-.88-1.79-.59-.5-1.33-.75-2.22-.75s-1.64.2-2.16.6c-.52.4-.78.93-.78,1.57,0,.61.24,1.07.72,1.38.48.31,1.36.61,2.62.89,1.26.28,2.29.62,3.07,1.01.78.39,1.36.86,1.74,1.42.38.55.57,1.22.57,2.02,0,1.32-.53,2.38-1.59,3.18-1.06.8-2.43,1.2-4.12,1.2-1.19,0-2.23-.21-3.14-.63-.91-.42-1.62-1-2.14-1.76-.52-.75-.77-1.57-.77-2.44h2.53c.05.85.38,1.52,1.02,2.02.63.5,1.47.75,2.51.75.96,0,1.72-.19,2.3-.58.58-.39.87-.9.87-1.55Z"/><path d="m209.52,28.4v3.58h2.76v1.96h-2.76v9.19c0,.59.12,1.04.37,1.33s.67.44,1.26.44c.29,0,.69-.05,1.2-.16v2.04c-.67.18-1.31.27-1.94.27-1.13,0-1.98-.34-2.56-1.03s-.86-1.65-.86-2.91v-9.17h-2.69v-1.96h2.69v-3.58h2.53Z"/><path d="m86.95,72.3c0-2.06.28-4.04.83-5.93.55-1.9,1.37-3.62,2.47-5.17,1.09-1.55,2.23-2.64,3.4-3.28l.52,1.67c-1.33,1.02-2.42,2.58-3.27,4.68-.85,2.1-1.32,4.44-1.4,7.04v1.16c-.01,3.52.63,6.57,1.91,9.16.77,1.55,1.7,2.76,2.76,3.64l-.52,1.54c-1.21-.67-2.37-1.8-3.47-3.39-2.15-3.1-3.23-6.8-3.23-11.12Z"/><path d="m109.11,73.14c0,2.25-.52,4.07-1.54,5.44-1.03,1.38-2.42,2.06-4.18,2.06s-3.21-.57-4.24-1.71v7.12h-2.53v-20.48h2.31l.12,1.64c1.03-1.28,2.46-1.91,4.29-1.91s3.18.67,4.22,2.01c1.03,1.34,1.55,3.2,1.55,5.59v.23Zm-2.53-.29c0-1.67-.36-2.98-1.07-3.95-.71-.97-1.69-1.45-2.93-1.45-1.53,0-2.68.68-3.45,2.04v7.07c.76,1.35,1.91,2.02,3.47,2.02,1.21,0,2.18-.48,2.89-1.44.72-.96,1.07-2.39,1.07-4.29Z"/><path d="m111.65,72.84c0-1.45.28-2.75.85-3.91.57-1.16,1.36-2.05,2.38-2.68,1.02-.63,2.18-.94,3.48-.94,2.01,0,3.64.7,4.89,2.09s1.87,3.25,1.87,5.56v.18c0,1.44-.28,2.73-.83,3.88-.55,1.14-1.34,2.04-2.37,2.67-1.03.64-2.2.96-3.53.96-2.01,0-3.63-.7-4.87-2.09s-1.87-3.24-1.87-5.54v-.18Zm2.54.3c0,1.64.38,2.96,1.14,3.95.76.99,1.78,1.49,3.06,1.49s2.31-.5,3.06-1.51c.76-1.01,1.13-2.42,1.13-4.23,0-1.62-.39-2.94-1.16-3.94-.77-1.01-1.79-1.51-3.07-1.51s-2.26.5-3.02,1.49c-.77.99-1.15,2.42-1.15,4.27Z"/><path d="m136.91,76.45c0-.68-.26-1.21-.77-1.59-.52-.38-1.41-.7-2.69-.98-1.28-.27-2.3-.6-3.05-.98s-1.31-.84-1.67-1.37c-.36-.53-.54-1.16-.54-1.89,0-1.21.51-2.24,1.54-3.08,1.03-.84,2.34-1.26,3.93-1.26,1.68,0,3.04.43,4.08,1.3,1.04.87,1.57,1.97,1.57,3.32h-2.54c0-.69-.29-1.29-.88-1.79-.59-.5-1.33-.75-2.22-.75s-1.64.2-2.16.6c-.52.4-.78.93-.78,1.57,0,.61.24,1.07.72,1.38.48.31,1.36.61,2.62.89,1.26.28,2.29.62,3.07,1.01.78.39,1.36.86,1.74,1.42.38.55.57,1.22.57,2.02,0,1.32-.53,2.38-1.59,3.18-1.06.8-2.43,1.2-4.12,1.2-1.19,0-2.23-.21-3.14-.63-.91-.42-1.62-1-2.14-1.76-.52-.75-.77-1.57-.77-2.44h2.53c.05.85.38,1.52,1.02,2.02.63.5,1.47.75,2.51.75.96,0,1.72-.19,2.3-.58.58-.39.87-.9.87-1.55Z"/><path d="m142.74,61.66c0-.41.12-.76.38-1.04.25-.28.62-.42,1.11-.42s.87.14,1.12.42c.25.28.38.63.38,1.04s-.13.75-.38,1.03c-.26.27-.63.41-1.12.41s-.86-.14-1.11-.41c-.25-.27-.38-.62-.38-1.03Zm2.73,18.72h-2.53v-14.79h2.53v14.79Z"/><path d="m152.96,62v3.58h2.76v1.96h-2.76v9.19c0,.59.12,1.04.37,1.33s.67.44,1.26.44c.29,0,.69-.05,1.2-.16v2.04c-.67.18-1.31.27-1.94.27-1.13,0-1.98-.34-2.56-1.03s-.86-1.65-.86-2.91v-9.17h-2.69v-1.96h2.69v-3.58h2.53Z"/><path d="m158.69,61.66c0-.41.12-.76.38-1.04.25-.28.62-.42,1.11-.42s.87.14,1.12.42c.25.28.38.63.38,1.04s-.13.75-.38,1.03c-.26.27-.63.41-1.12.41s-.86-.14-1.11-.41c-.25-.27-.38-.62-.38-1.03Zm2.73,18.72h-2.53v-14.79h2.53v14.79Z"/><path d="m170.35,76.95l3.66-11.36h2.58l-5.3,14.79h-1.93l-5.36-14.79h2.58l3.76,11.36Z"/><path d="m184.99,80.65c-2.01,0-3.64-.66-4.89-1.98-1.26-1.32-1.89-3.08-1.89-5.28v-.46c0-1.47.28-2.78.84-3.93.56-1.15,1.34-2.06,2.35-2.71,1.01-.65,2.1-.98,3.27-.98,1.92,0,3.42.63,4.48,1.9,1.07,1.27,1.6,3.08,1.6,5.44v1.05h-10.02c.04,1.46.46,2.64,1.28,3.53.82.9,1.85,1.35,3.11,1.35.89,0,1.65-.18,2.27-.55.62-.36,1.16-.85,1.63-1.45l1.54,1.2c-1.24,1.91-3.1,2.86-5.58,2.86Zm-.31-13.26c-1.02,0-1.88.37-2.57,1.11-.69.74-1.12,1.78-1.29,3.12h7.41v-.19c-.07-1.29-.42-2.28-1.04-2.99-.62-.71-1.46-1.06-2.52-1.06Z"/><path d="m213.11,73.14c0,2.25-.52,4.07-1.54,5.44-1.03,1.38-2.42,2.06-4.18,2.06s-3.21-.57-4.24-1.71v7.12h-2.53v-20.48h2.31l.12,1.64c1.03-1.28,2.46-1.91,4.29-1.91s3.18.67,4.22,2.01c1.03,1.34,1.55,3.2,1.55,5.59v.23Zm-2.53-.29c0-1.67-.36-2.98-1.07-3.95-.71-.97-1.69-1.45-2.93-1.45-1.53,0-2.68.68-3.45,2.04v7.07c.76,1.35,1.91,2.02,3.47,2.02,1.21,0,2.18-.48,2.89-1.44.72-.96,1.07-2.39,1.07-4.29Z"/><path d="m225.46,78.91c-.98,1.16-2.43,1.74-4.33,1.74-1.58,0-2.78-.46-3.6-1.37-.83-.92-1.24-2.27-1.25-4.07v-9.62h2.53v9.56c0,2.24.91,3.36,2.73,3.36,1.93,0,3.22-.72,3.86-2.16v-10.76h2.53v14.79h-2.41l-.05-1.46Z"/><path d="m234.51,80.38h-2.53v-21h2.53v21Z"/><path d="m247.17,76.45c0-.68-.26-1.21-.77-1.59-.52-.38-1.41-.7-2.69-.98-1.28-.27-2.3-.6-3.05-.98s-1.31-.84-1.67-1.37c-.36-.53-.54-1.16-.54-1.89,0-1.21.51-2.24,1.54-3.08,1.03-.84,2.34-1.26,3.93-1.26,1.68,0,3.04.43,4.08,1.3,1.04.87,1.57,1.97,1.57,3.32h-2.54c0-.69-.29-1.29-.88-1.79-.59-.5-1.33-.75-2.22-.75s-1.64.2-2.16.6c-.52.4-.78.93-.78,1.57,0,.61.24,1.07.72,1.38.48.31,1.36.61,2.62.89,1.26.28,2.29.62,3.07,1.01.78.39,1.36.86,1.74,1.42.38.55.57,1.22.57,2.02,0,1.32-.53,2.38-1.59,3.18-1.06.8-2.43,1.2-4.12,1.2-1.19,0-2.23-.21-3.14-.63-.91-.42-1.62-1-2.14-1.76-.52-.75-.77-1.57-.77-2.44h2.53c.05.85.38,1.52,1.02,2.02.63.5,1.47.75,2.51.75.96,0,1.72-.19,2.3-.58.58-.39.87-.9.87-1.55Z"/><path d="m259.13,80.65c-2.01,0-3.64-.66-4.89-1.98-1.26-1.32-1.89-3.08-1.89-5.28v-.46c0-1.47.28-2.78.84-3.93.56-1.15,1.34-2.06,2.35-2.71,1.01-.65,2.1-.98,3.27-.98,1.92,0,3.42.63,4.48,1.9,1.07,1.27,1.6,3.08,1.6,5.44v1.05h-10.02c.04,1.46.46,2.64,1.28,3.53.82.9,1.85,1.35,3.11,1.35.89,0,1.65-.18,2.27-.55.62-.36,1.16-.85,1.63-1.45l1.54,1.2c-1.24,1.91-3.1,2.86-5.58,2.86Zm-.31-13.26c-1.02,0-1.88.37-2.57,1.11-.69.74-1.12,1.78-1.29,3.12h7.41v-.19c-.07-1.29-.42-2.28-1.04-2.99-.62-.71-1.46-1.06-2.52-1.06Z"/><path d="m273.67,72.43c0,2.03-.27,3.98-.8,5.84-.53,1.86-1.35,3.58-2.45,5.16-1.1,1.58-2.25,2.7-3.45,3.36l-.53-1.54c1.4-1.08,2.53-2.75,3.38-5.01.85-2.26,1.29-4.78,1.31-7.54v-.44c0-1.91-.2-3.69-.6-5.34-.4-1.65-.96-3.12-1.67-4.42-.72-1.3-1.52-2.32-2.41-3.05l.53-1.54c1.2.67,2.35,1.78,3.44,3.34,1.09,1.56,1.9,3.28,2.45,5.15.54,1.88.81,3.89.81,6.03Z"/><path d="m923.75,289.02h-6.4v17.76h-2.61v-17.76h-6.38v-2.15h15.39v2.15Z"/><path d="m932.43,294.25c-.38-.06-.8-.1-1.24-.1-1.66,0-2.78.71-3.38,2.12v10.5h-2.53v-14.79h2.46l.04,1.71c.83-1.32,2-1.98,3.53-1.98.49,0,.87.06,1.12.19v2.35Z"/><path d="m933.81,299.24c0-1.45.28-2.75.85-3.91.57-1.16,1.36-2.05,2.38-2.68,1.02-.63,2.18-.94,3.48-.94,2.01,0,3.64.7,4.89,2.09s1.87,3.25,1.87,5.56v.18c0,1.44-.28,2.73-.83,3.88-.55,1.14-1.34,2.04-2.37,2.67-1.03.64-2.2.96-3.53.96-2.01,0-3.63-.7-4.87-2.09s-1.87-3.24-1.87-5.54v-.18Zm2.54.3c0,1.64.38,2.96,1.14,3.95.76.99,1.78,1.49,3.06,1.49s2.31-.5,3.06-1.51c.76-1.01,1.13-2.42,1.13-4.23,0-1.62-.39-2.94-1.16-3.94-.77-1.01-1.79-1.51-3.07-1.51s-2.26.5-3.02,1.49c-.77.99-1.15,2.42-1.15,4.27Z"/><path d="m959.58,305.31c-.98,1.16-2.43,1.74-4.33,1.74-1.58,0-2.78-.46-3.6-1.37-.83-.92-1.24-2.27-1.25-4.07v-9.62h2.53v9.56c0,2.24.91,3.36,2.73,3.36,1.93,0,3.22-.72,3.86-2.16v-10.76h2.53v14.79h-2.41l-.05-1.46Z"/><path d="m965.28,299.26c0-2.31.53-4.14,1.6-5.5,1.07-1.36,2.48-2.04,4.24-2.04s3.21.64,4.22,1.91l.12-1.64h2.31v14.44c0,1.91-.57,3.42-1.7,4.53-1.13,1.1-2.66,1.65-4.57,1.65-1.07,0-2.11-.23-3.13-.68-1.02-.46-1.8-1.08-2.34-1.87l1.31-1.52c1.08,1.34,2.41,2.01,3.98,2.01,1.23,0,2.19-.35,2.88-1.04.69-.69,1.03-1.67,1.03-2.93v-1.27c-1.01,1.17-2.39,1.75-4.14,1.75s-3.13-.7-4.2-2.09c-1.07-1.39-1.61-3.29-1.61-5.7Zm2.54.29c0,1.67.34,2.98,1.03,3.93.68.95,1.64,1.43,2.87,1.43,1.59,0,2.77-.72,3.51-2.17v-6.75c-.77-1.41-1.94-2.12-3.49-2.12-1.23,0-2.19.48-2.88,1.44-.69.96-1.04,2.37-1.04,4.25Z"/><path d="m984.12,293.77c1.12-1.38,2.58-2.06,4.38-2.06,3.13,0,4.7,1.76,4.73,5.29v9.78h-2.53v-9.79c0-1.07-.25-1.85-.73-2.37-.48-.51-1.22-.77-2.24-.77-.82,0-1.54.22-2.16.66-.62.44-1.1,1.01-1.45,1.72v10.54h-2.53v-21h2.53v8Z"/><path d="m853.79,332.3c0-2.06.28-4.04.83-5.93.55-1.9,1.37-3.62,2.47-5.17,1.09-1.55,2.23-2.64,3.4-3.28l.52,1.67c-1.33,1.02-2.42,2.58-3.27,4.68-.85,2.1-1.32,4.44-1.4,7.04v1.16c-.01,3.52.63,6.57,1.91,9.16.77,1.55,1.7,2.76,2.76,3.64l-.52,1.54c-1.21-.67-2.37-1.8-3.47-3.39-2.15-3.1-3.23-6.8-3.23-11.12Z"/><path d="m865.85,325.58l.08,1.86c1.13-1.42,2.61-2.13,4.43-2.13,3.13,0,4.7,1.76,4.73,5.29v9.78h-2.53v-9.79c0-1.07-.25-1.85-.73-2.37-.48-.51-1.22-.77-2.24-.77-.82,0-1.54.22-2.16.66-.62.44-1.1,1.01-1.45,1.72v10.54h-2.53v-14.79h2.39Z"/><path d="m885.05,340.65c-2.01,0-3.64-.66-4.89-1.98-1.26-1.32-1.89-3.08-1.89-5.28v-.46c0-1.47.28-2.78.84-3.93.56-1.15,1.34-2.06,2.35-2.71,1.01-.65,2.1-.98,3.27-.98,1.92,0,3.42.63,4.48,1.9,1.07,1.27,1.6,3.08,1.6,5.44v1.05h-10.02c.04,1.46.46,2.64,1.28,3.53.82.9,1.85,1.35,3.11,1.35.89,0,1.65-.18,2.27-.55.62-.36,1.16-.85,1.63-1.45l1.54,1.2c-1.24,1.91-3.1,2.86-5.58,2.86Zm-.31-13.26c-1.02,0-1.88.37-2.57,1.11-.69.74-1.12,1.78-1.29,3.12h7.41v-.19c-.07-1.29-.42-2.28-1.04-2.99-.62-.71-1.46-1.06-2.52-1.06Z"/><path d="m893.14,332.86c0-2.31.53-4.14,1.6-5.5,1.07-1.36,2.48-2.04,4.24-2.04s3.21.64,4.22,1.91l.12-1.64h2.31v14.44c0,1.91-.57,3.42-1.7,4.53-1.13,1.1-2.66,1.65-4.57,1.65-1.07,0-2.11-.23-3.13-.68-1.02-.46-1.8-1.08-2.34-1.87l1.31-1.52c1.08,1.34,2.41,2.01,3.98,2.01,1.23,0,2.19-.35,2.88-1.04.69-.69,1.03-1.67,1.03-2.93v-1.27c-1.01,1.17-2.39,1.75-4.14,1.75s-3.13-.7-4.2-2.09c-1.07-1.39-1.61-3.29-1.61-5.7Zm2.54.29c0,1.67.34,2.98,1.03,3.93.68.95,1.64,1.43,2.87,1.43,1.59,0,2.77-.72,3.51-2.17v-6.75c-.77-1.41-1.94-2.12-3.49-2.12-1.23,0-2.19.48-2.88,1.44-.69.96-1.04,2.37-1.04,4.25Z"/><path d="m918.58,340.38c-.15-.29-.26-.81-.36-1.56-1.18,1.22-2.58,1.83-4.21,1.83-1.46,0-2.65-.41-3.59-1.24-.93-.82-1.4-1.87-1.4-3.14,0-1.54.59-2.74,1.76-3.59,1.17-.85,2.82-1.28,4.94-1.28h2.46v-1.16c0-.88-.26-1.59-.79-2.11-.53-.52-1.31-.79-2.34-.79-.9,0-1.66.23-2.27.68-.61.46-.92,1.01-.92,1.65h-2.54c0-.74.26-1.45.79-2.14.52-.69,1.23-1.23,2.13-1.63.9-.4,1.88-.6,2.96-.6,1.7,0,3.04.43,4.01,1.28.97.85,1.47,2.03,1.5,3.52v6.81c0,1.36.17,2.44.52,3.24v.22h-2.65Zm-4.2-1.93c.79,0,1.54-.21,2.26-.62s1.23-.94,1.54-1.6v-3.04h-1.98c-3.1,0-4.65.91-4.65,2.72,0,.79.26,1.41.79,1.86.53.45,1.21.67,2.04.67Z"/><path d="m928.11,322v3.58h2.76v1.96h-2.76v9.19c0,.59.12,1.04.37,1.33s.67.44,1.26.44c.29,0,.69-.05,1.2-.16v2.04c-.67.18-1.31.27-1.94.27-1.13,0-1.98-.34-2.56-1.03s-.86-1.65-.86-2.91v-9.17h-2.69v-1.96h2.69v-3.58h2.53Z"/><path d="m933.84,321.66c0-.41.12-.76.38-1.04.25-.28.62-.42,1.11-.42s.87.14,1.12.42c.25.28.38.63.38,1.04s-.13.75-.38,1.03c-.26.27-.63.41-1.12.41s-.86-.14-1.11-.41c-.25-.27-.38-.62-.38-1.03Zm2.73,18.72h-2.53v-14.79h2.53v14.79Z"/><path d="m945.5,336.95l3.66-11.36h2.58l-5.3,14.79h-1.93l-5.36-14.79h2.58l3.76,11.36Z"/><path d="m960.15,340.65c-2.01,0-3.64-.66-4.89-1.98-1.26-1.32-1.89-3.08-1.89-5.28v-.46c0-1.47.28-2.78.84-3.93.56-1.15,1.34-2.06,2.35-2.71,1.01-.65,2.1-.98,3.27-.98,1.92,0,3.42.63,4.48,1.9,1.07,1.27,1.6,3.08,1.6,5.44v1.05h-10.02c.04,1.46.46,2.64,1.28,3.53.82.9,1.85,1.35,3.11,1.35.89,0,1.65-.18,2.27-.55.62-.36,1.16-.85,1.63-1.45l1.54,1.2c-1.24,1.91-3.1,2.86-5.58,2.86Zm-.31-13.26c-1.02,0-1.88.37-2.57,1.11-.69.74-1.12,1.78-1.29,3.12h7.41v-.19c-.07-1.29-.42-2.28-1.04-2.99-.62-.71-1.46-1.06-2.52-1.06Z"/><path d="m988.27,333.14c0,2.25-.52,4.07-1.54,5.44-1.03,1.38-2.42,2.06-4.18,2.06s-3.21-.57-4.24-1.71v7.12h-2.53v-20.48h2.31l.12,1.64c1.03-1.28,2.46-1.91,4.29-1.91s3.18.67,4.22,2.01c1.03,1.34,1.55,3.2,1.55,5.59v.23Zm-2.53-.29c0-1.67-.36-2.98-1.07-3.95-.71-.97-1.69-1.45-2.93-1.45-1.53,0-2.68.68-3.45,2.04v7.07c.76,1.35,1.91,2.02,3.47,2.02,1.21,0,2.18-.48,2.89-1.44.72-.96,1.07-2.39,1.07-4.29Z"/><path d="m1000.62,338.91c-.98,1.16-2.43,1.74-4.33,1.74-1.58,0-2.78-.46-3.6-1.37-.83-.92-1.24-2.27-1.25-4.07v-9.62h2.53v9.56c0,2.24.91,3.36,2.73,3.36,1.93,0,3.22-.72,3.86-2.16v-10.76h2.53v14.79h-2.41l-.05-1.46Z"/><path d="m1009.67,340.38h-2.53v-21h2.53v21Z"/><path d="m1022.33,336.45c0-.68-.26-1.21-.77-1.59-.52-.38-1.41-.7-2.69-.98-1.28-.27-2.3-.6-3.05-.98s-1.31-.84-1.67-1.37c-.36-.53-.54-1.16-.54-1.89,0-1.21.51-2.24,1.54-3.08,1.03-.84,2.34-1.26,3.93-1.26,1.68,0,3.04.43,4.08,1.3,1.04.87,1.57,1.97,1.57,3.32h-2.54c0-.69-.29-1.29-.88-1.79-.59-.5-1.33-.75-2.22-.75s-1.64.2-2.16.6c-.52.4-.78.93-.78,1.57,0,.61.24,1.07.72,1.38.48.31,1.36.61,2.62.89,1.26.28,2.29.62,3.07,1.01.78.39,1.36.86,1.74,1.42.38.55.57,1.22.57,2.02,0,1.32-.53,2.38-1.59,3.18-1.06.8-2.43,1.2-4.12,1.2-1.19,0-2.23-.21-3.14-.63-.91-.42-1.62-1-2.14-1.76-.52-.75-.77-1.57-.77-2.44h2.53c.05.85.38,1.52,1.02,2.02.63.5,1.47.75,2.51.75.96,0,1.72-.19,2.3-.58.58-.39.87-.9.87-1.55Z"/><path d="m1034.29,340.65c-2.01,0-3.64-.66-4.89-1.98-1.26-1.32-1.89-3.08-1.89-5.28v-.46c0-1.47.28-2.78.84-3.93.56-1.15,1.34-2.06,2.35-2.71,1.01-.65,2.1-.98,3.27-.98,1.92,0,3.42.63,4.48,1.9,1.07,1.27,1.6,3.08,1.6,5.44v1.05h-10.02c.04,1.46.46,2.64,1.28,3.53.82.9,1.85,1.35,3.11,1.35.89,0,1.65-.18,2.27-.55.62-.36,1.16-.85,1.63-1.45l1.54,1.2c-1.24,1.91-3.1,2.86-5.58,2.86Zm-.31-13.26c-1.02,0-1.88.37-2.57,1.11-.69.74-1.12,1.78-1.29,3.12h7.41v-.19c-.07-1.29-.42-2.28-1.04-2.99-.62-.71-1.46-1.06-2.52-1.06Z"/><path d="m1048.82,332.43c0,2.03-.27,3.98-.8,5.84-.53,1.86-1.35,3.58-2.45,5.16-1.1,1.58-2.25,2.7-3.45,3.36l-.53-1.54c1.4-1.08,2.53-2.75,3.38-5.01.85-2.26,1.29-4.78,1.31-7.54v-.44c0-1.91-.2-3.69-.6-5.34-.4-1.65-.96-3.12-1.67-4.42-.72-1.3-1.52-2.32-2.41-3.05l.53-1.54c1.2.67,2.35,1.78,3.44,3.34,1.09,1.56,1.9,3.28,2.45,5.15.54,1.88.81,3.89.81,6.03Z"/></svg>