<?xml version="1.0" encoding="utf-8"?>
<!-- Generator: Adobe Illustrator 25.2.0, SVG Export Plug-In . SVG Version: 6.00 Build 0)  -->
<svg version="1.1" id="Layer_1" xmlns="http://www.w3.org/2000/svg" xmlns:xlink="http://www.w3.org/1999/xlink" x="0px" y="0px"
	 viewBox="0 0 100 100" style="enable-background:new 0 0 100 100;" xml:space="preserve">
<style type="text/css">
	.st0{fill:#F9FBED;stroke:#0E8A16;stroke-width:1.74;stroke-miterlimit:10;}
	.st1{fill:#CDDE54;stroke:#0E8A16;stroke-width:1.74;stroke-linejoin:round;stroke-miterlimit:10;}
	.st2{fill:#CDDE54;stroke:#0E8A16;stroke-width:1.74;stroke-linecap:round;stroke-linejoin:round;stroke-miterlimit:10;}
	.st3{fill:none;stroke:#0E8A16;stroke-width:1.74;stroke-linecap:round;stroke-linejoin:round;stroke-miterlimit:10;}
	.st4{fill:#CDDD55;stroke:#0E8A16;stroke-width:1.74;stroke-linecap:round;stroke-linejoin:round;stroke-miterlimit:10;}
</style>
<circle class="st0" cx="50" cy="50" r="46.7"/>
<g>
	<path class="st1" d="M40.5,37.6C39.8,37.4,23,78.8,23,78.8l40.5-17.4C63.5,61.4,62,42.9,40.5,37.6z"/>
	<path class="st2" d="M41.1,38.9c0,0-3.2,19.5,21,21.7"/>
	<path class="st1" d="M30.7,59.5c0,0,7.1,11.2,17.6,8.5"/>
	<path class="st1" d="M27.9,67c0,0,2.8,6.6,9.9,5.5"/>
	<path class="st1" d="M34.5,50c0,0,8.3,17.9,23.9,13.6"/>
	<path class="st3" d="M44.4,27.4c0,0.2,8.9,4.7,1.4,18.6"/>
	<line class="st3" x1="61.7" y1="36" x2="50.9" y2="50.8"/>
	<line class="st3" x1="74.1" y1="34.2" x2="61.7" y2="45.1"/>
	<path class="st3" d="M55.7,55.5c0,0,11-5,16.7,2.1"/>
	<circle class="st4" cx="55.8" cy="28.7" r="2.6"/>
	<circle class="st3" cx="73" cy="67" r="2.6"/>
	<circle class="st3" cx="69.9" cy="26.2" r="3.2"/>
	<polygon class="st4" points="78.8,51.6 75.1,49.7 71.4,51.6 72.1,47.5 69.1,44.6 73.3,44 75.1,40.3 76.9,44 81,44.6 78.1,47.5 	"/>
	<polygon class="st3" points="37.8,32.2 34.1,30.3 30.4,32.2 31.1,28.1 28.2,25.2 32.3,24.6 34.1,20.9 36,24.6 40.1,25.2 37.1,28.1 
			"/>
</g>
</svg>
