<?xml version="1.0" encoding="utf-8"?>
<!-- Generator: Adobe Illustrator 25.4.1, SVG Export Plug-In . SVG Version: 6.00 Build 0)  -->
<svg version="1.1" id="Layer_1" xmlns="http://www.w3.org/2000/svg" xmlns:xlink="http://www.w3.org/1999/xlink" x="0px" y="0px"
	 width="100px" height="100px" viewBox="0 0 100 100" style="enable-background:new 0 0 100 100;" xml:space="preserve">
<title>Artboard 2</title>
<g id="discoverMore">
	<circle style="fill:#EFFCEA;stroke:#0E8A16;stroke-width:1.74;stroke-miterlimit:10;" cx="50.24" cy="50" r="46.67"/>
</g>
<g>
	<path style="opacity:0.15;fill:#0E8A16;" d="M44.451,64.77c3.406,0,6.645-1.086,9.323-3.093l3.007,3.007l-0.377,0.377
		c-0.162,0.162-0.253,0.381-0.253,0.61s0.091,0.448,0.253,0.61l11.478,11.478c0.162,0.162,0.381,0.253,0.61,0.253
		c0.229,0,0.448-0.091,0.61-0.253l3.927-3.927c0.337-0.337,0.337-0.883,0-1.22L61.551,61.134c-0.337-0.337-0.883-0.337-1.22,0
		l-0.377,0.377l-3.007-3.007c2.007-2.678,3.093-5.917,3.093-9.323c0-4.164-1.621-8.078-4.566-11.023
		c-2.944-2.944-6.859-4.566-11.023-4.566s-8.078,1.621-11.022,4.566c-2.944,2.944-4.566,6.859-4.566,11.023
		s1.621,8.078,4.566,11.023C36.373,63.148,40.288,64.77,44.451,64.77z"/>
	<path style="opacity:0.15;fill:#0E8A16;" d="M25.732,56.248l-1.661,0.713c-0.438,0.188-0.641,0.695-0.453,1.133
		c0.14,0.327,0.459,0.523,0.794,0.523c0.113,0,0.229-0.023,0.34-0.07l1.661-0.713c0.438-0.188,0.641-0.695,0.453-1.133
		C26.677,56.263,26.169,56.06,25.732,56.248z"/>
	<path style="opacity:0.15;fill:#0E8A16;" d="M62.698,42.185c0.113,0,0.229-0.023,0.34-0.07l1.661-0.713
		c0.438-0.188,0.64-0.695,0.452-1.133c-0.188-0.438-0.695-0.641-1.133-0.453l-1.661,0.713c-0.438,0.188-0.64,0.695-0.452,1.133
		C62.045,41.989,62.364,42.185,62.698,42.185z"/>
	<path style="opacity:0.15;fill:#0E8A16;" d="M36.322,70.231c0.343,0,0.667-0.205,0.801-0.543l0.671-1.679
		c0.177-0.443-0.039-0.945-0.481-1.121c-0.443-0.176-0.944,0.039-1.121,0.481l-0.671,1.679c-0.177,0.443,0.039,0.945,0.481,1.121
		C36.108,70.211,36.216,70.231,36.322,70.231z"/>
	<path style="opacity:0.15;fill:#0E8A16;" d="M51.456,31.476c0.105,0.042,0.213,0.062,0.32,0.062c0.343,0,0.667-0.205,0.801-0.543
		l0.671-1.679c0.177-0.443-0.039-0.945-0.481-1.121c-0.442-0.176-0.944,0.039-1.121,0.481l-0.671,1.679
		C50.798,30.797,51.014,31.299,51.456,31.476z"/>
	<path style="opacity:0.15;fill:#0E8A16;" d="M52.958,70.019c0.113,0,0.229-0.023,0.34-0.07c0.438-0.188,0.64-0.695,0.452-1.133
		l-0.713-1.661c-0.188-0.438-0.695-0.641-1.133-0.453c-0.438,0.188-0.64,0.695-0.452,1.133l0.713,1.661
		C52.305,69.823,52.624,70.019,52.958,70.019z"/>
	<path style="opacity:0.15;fill:#0E8A16;" d="M35.732,31.209c0.14,0.327,0.459,0.523,0.794,0.523c0.113,0,0.229-0.023,0.34-0.07
		c0.438-0.188,0.641-0.695,0.453-1.133l-0.713-1.661c-0.188-0.438-0.696-0.641-1.133-0.453c-0.438,0.188-0.641,0.695-0.453,1.133
		L35.732,31.209z"/>
	<path style="opacity:0.15;fill:#0E8A16;" d="M64.891,56.442l-1.679-0.671c-0.443-0.176-0.944,0.039-1.121,0.481
		c-0.177,0.443,0.039,0.945,0.481,1.121l1.679,0.671c0.105,0.042,0.213,0.062,0.32,0.062c0.343,0,0.667-0.205,0.801-0.543
		C65.549,57.121,65.333,56.619,64.891,56.442z"/>
	<path style="opacity:0.15;fill:#0E8A16;" d="M23.879,41.921l1.679,0.671c0.105,0.042,0.213,0.062,0.32,0.062
		c0.343,0,0.667-0.205,0.801-0.543c0.177-0.443-0.039-0.945-0.481-1.121l-1.679-0.671c-0.442-0.176-0.944,0.039-1.121,0.481
		C23.221,41.242,23.436,41.744,23.879,41.921z"/>
	<g>
		<g>
			<g>
				
					<rect x="59.761" y="52.824" transform="matrix(0.7071 -0.7071 0.7071 0.7071 -25.1835 61.0824)" style="fill:#90D966;stroke:#0E8A16;stroke-width:1.74;stroke-linecap:round;stroke-linejoin:round;stroke-miterlimit:10;" width="2.761" height="16.232"/>
				
					<circle style="fill:#90D966;stroke:#0E8A16;stroke-width:1.74;stroke-linecap:round;stroke-linejoin:round;stroke-miterlimit:10;" cx="46.917" cy="46.716" r="14.725"/>
				<circle style="fill:#EFFCEA;stroke:#0E8A16;stroke-width:1.7258;stroke-miterlimit:10;" cx="46.917" cy="46.716" r="10.862"/>
				
					<rect x="64.406" y="58.865" transform="matrix(0.7071 -0.7071 0.7071 0.7071 -27.6857 67.1233)" style="fill:#90D966;stroke:#0E8A16;stroke-width:1.74;stroke-linecap:round;stroke-linejoin:round;stroke-miterlimit:10;" width="5.553" height="16.232"/>
			</g>
			<g>
				
					<line style="fill:none;stroke:#0E8A16;stroke-width:1.7258;stroke-linecap:round;stroke-miterlimit:10;" x1="43.343" y1="51.747" x2="46.742" y2="43.237"/>
				
					<line style="fill:none;stroke:#0E8A16;stroke-width:1.7258;stroke-linecap:round;stroke-miterlimit:10;" x1="41.065" y1="46.901" x2="44.126" y2="39.238"/>
				<g>
					
						<line style="fill:none;stroke:#0E8A16;stroke-width:1.7258;stroke-linecap:round;stroke-miterlimit:10;" x1="26.876" y1="55.289" x2="28.537" y2="54.576"/>
					
						<line style="fill:none;stroke:#0E8A16;stroke-width:1.7258;stroke-linecap:round;stroke-miterlimit:10;" x1="65.163" y1="38.856" x2="66.825" y2="38.143"/>
				</g>
				<g>
					
						<line style="fill:none;stroke:#0E8A16;stroke-width:1.7258;stroke-linecap:round;stroke-miterlimit:10;" x1="38.788" y1="66.902" x2="39.459" y2="65.223"/>
					
						<line style="fill:none;stroke:#0E8A16;stroke-width:1.7258;stroke-linecap:round;stroke-miterlimit:10;" x1="54.242" y1="28.209" x2="54.912" y2="26.53"/>
				</g>
				<g>
					
						<line style="fill:none;stroke:#0E8A16;stroke-width:1.7258;stroke-linecap:round;stroke-miterlimit:10;" x1="55.423" y1="66.69" x2="54.71" y2="65.029"/>
					
						<line style="fill:none;stroke:#0E8A16;stroke-width:1.7258;stroke-linecap:round;stroke-miterlimit:10;" x1="38.99" y1="28.403" x2="38.277" y2="26.742"/>
				</g>
				<g>
					
						<line style="fill:none;stroke:#0E8A16;stroke-width:1.7258;stroke-linecap:round;stroke-miterlimit:10;" x1="67.036" y1="54.778" x2="65.357" y2="54.108"/>
					
						<line style="fill:none;stroke:#0E8A16;stroke-width:1.7258;stroke-linecap:round;stroke-miterlimit:10;" x1="28.343" y1="39.325" x2="26.664" y2="38.654"/>
				</g>
			</g>
		</g>
	</g>
</g>
</svg>
