<?xml version="1.0" encoding="utf-8"?>
<!-- Generator: Adobe Illustrator 25.4.1, SVG Export Plug-In . SVG Version: 6.00 Build 0)  -->
<svg version="1.1" id="Layer_1" xmlns="http://www.w3.org/2000/svg" xmlns:xlink="http://www.w3.org/1999/xlink" x="0px" y="0px"
	 width="100px" height="100px" viewBox="0 0 100 100" style="enable-background:new 0 0 100 100;" xml:space="preserve">
<title>Artboard 2</title>
<circle style="fill:#EFFCEA;stroke:#0E8A16;stroke-width:1.74;stroke-miterlimit:10;" cx="50" cy="50" r="46.67"/>
<g style="opacity:0.15;">
	<path style="fill:#0E8A16;" d="M69.488,32.235h-21.06v-1.45c0-0.48-0.39-0.87-0.87-0.87h-5.56c-0.48,0-0.87,0.39-0.87,0.87v1.45
		h-4.12c-0.48,0-0.87,0.43-0.87,0.91v45c0,0.48,0.39,0.87,0.87,0.87h32.48c2.343,0,4.25-1.906,4.25-4.25V36.46
		C73.723,34.131,71.817,32.235,69.488,32.235z"/>
	<path style="fill:#0E8A16;" d="M30.637,37.165h-7.97c-0.48,0-0.87,0.39-0.87,0.87v27.45c0,0.134,0.036,0.258,0.091,0.372
		c0.004,0.008,0.002,0.018,0.006,0.027l3.98,7.729c0.149,0.289,0.447,0.472,0.773,0.472h0c0.326,0,0.624-0.182,0.773-0.471
		l3.99-7.729c0.004-0.008,0.002-0.018,0.006-0.027c0.055-0.114,0.091-0.238,0.091-0.372v-27.45
		C31.508,37.555,31.118,37.165,30.637,37.165z"/>
</g>
<g>
	
		<path style="fill:#90D966;stroke:#0E8A16;stroke-width:1.74;stroke-linecap:round;stroke-linejoin:round;stroke-miterlimit:10;" d="
		M39.24,28.64h32.48c1.859,0,3.369,1.501,3.38,3.36v38.3c0,1.867-1.513,3.38-3.38,3.38H39.24l0,0v-45V28.64z"/>
	
		<line style="fill:#90D966;stroke:#0E8A16;stroke-width:1.74;stroke-linecap:round;stroke-linejoin:round;stroke-miterlimit:10;" x1="68.08" y1="28.64" x2="68.08" y2="73.68"/>
	
		<polygon style="fill:#FFFFFF;stroke:#0E8A16;stroke-width:1.74;stroke-linecap:round;stroke-linejoin:round;stroke-miterlimit:10;" points="
		49.79,36.31 47.01,34.02 44.23,36.31 44.23,26.32 49.79,26.32 	"/>
	
		<rect x="24.9" y="33.57" style="fill:#90D966;stroke:#0E8A16;stroke-width:1.74;stroke-linecap:round;stroke-linejoin:round;stroke-miterlimit:10;" width="7.97" height="27.45"/>
	
		<polygon style="fill:#90D966;stroke:#0E8A16;stroke-width:1.74;stroke-linecap:round;stroke-linejoin:round;stroke-miterlimit:10;" points="
		32.87,61.02 28.88,68.75 24.9,61.02 	"/>
</g>
<circle style="fill:#EFFCEA;stroke:#0E8A16;stroke-width:1.74;stroke-miterlimit:10;" cx="74.808" cy="1427.078" r="187.5"/>
<circle style="opacity:0.15;fill:#0E8A16;" cx="208.761" cy="943.73" r="187.5"/>
<rect x="310.533" y="1186.603" style="fill:#90D966;stroke:#0E8A16;stroke-width:1.74;stroke-linecap:round;stroke-linejoin:round;stroke-miterlimit:10;" width="112.284" height="127.256"/>
<rect x="465.859" y="1186.603" style="fill:#FFFFFF;stroke:#0E8A16;stroke-width:1.74;stroke-miterlimit:10;" width="112.284" height="127.256"/>
<line style="fill:none;stroke:#0E8A16;stroke-width:1.74;stroke-miterlimit:10;" x1="624.929" y1="1214.674" x2="703.528" y2="1214.674"/>
</svg>
