<?xml version="1.0" encoding="utf-8"?>
<!-- Generator: Adobe Illustrator 26.2.1, SVG Export Plug-In . SVG Version: 6.00 Build 0)  -->
<svg version="1.1" id="think" xmlns="http://www.w3.org/2000/svg" xmlns:xlink="http://www.w3.org/1999/xlink" x="0px" y="0px"
	 width="100px" height="100px" viewBox="0 0 100 100" style="enable-background:new 0 0 100 100;" xml:space="preserve">
<title>Artboard 2</title>
<circle style="fill:#EFFCEA;stroke:#0E8A16;stroke-width:1.74;stroke-miterlimit:10;" cx="50" cy="50" r="46.67"/>
<g>
	<path style="opacity:0.15;fill:#0E8A16;" d="M70.046,60.19l-3.62,0.294l-0.547,6.873c-0.115,1.443-0.814,2.787-1.918,3.687
		c-1.079,0.88-2.427,1.271-3.795,1.1l-4.763-0.591v8.351c0,0.482-0.391,0.873-0.873,0.873H34.706c-0.482,0-0.873-0.391-0.873-0.873
		V65.227c-6.396-4.306-10.199-11.527-10.199-19.416c0-12.785,10.088-23.186,22.487-23.186c5.877,0,11.435,2.323,15.651,6.542
		c4.156,4.158,6.57,9.716,6.81,15.667c0.017,0.068,0.026,0.139,0.026,0.211v3.846l2.958,9.014c0.168,0.512,0.093,1.063-0.205,1.511
		C71.062,59.864,70.583,60.146,70.046,60.19z"/>
	<g>
		
			<path style="fill:#90D966;stroke:#0E8A16;stroke-width:1.7467;stroke-linecap:round;stroke-linejoin:round;stroke-miterlimit:10;" d="
			M27.593,43.315c0-12.323,9.677-22.313,21.613-22.313c11.688,0,21.203,9.58,21.595,21.548l0.019-0.001v3.985l3.001,9.147
			c0.176,0.537-0.196,1.097-0.759,1.143l-4.361,0.354l-0.606,7.614c-0.197,2.475-2.346,4.286-4.735,3.99l-5.744-0.713v9.34H37.792
			V62.261C31.67,58.321,27.593,51.311,27.593,43.315z"/>
		<path style="fill:#FFFFFF;stroke:#0E8A16;stroke-width:1.7467;stroke-linejoin:round;stroke-miterlimit:10;" d="M39.111,43.785
			c0.309,0.835,0.724,1.618,1.228,2.334l-1.264,3.109c0.581,0.625,1.222,1.193,1.914,1.696l2.753-1.728
			c0.857,0.48,1.79,0.841,2.776,1.061l1.011,3.136c0.407,0.038,0.818,0.059,1.235,0.059s0.828-0.022,1.235-0.059l1.011-3.136
			c0.986-0.22,1.919-0.58,2.776-1.061l2.753,1.728c0.692-0.503,1.333-1.071,1.914-1.696l-1.264-3.109
			c0.503-0.717,0.919-1.499,1.228-2.334l3.208-0.444c0.214-0.885,0.339-1.804,0.365-2.748l-3.01-1.592
			c-0.084-0.716-0.242-1.409-0.466-2.072l2.193-2.425c-0.437-0.912-0.977-1.764-1.601-2.545l-3.341,0.718
			c-0.409-0.38-0.849-0.728-1.317-1.039l0.123-3.319c-0.937-0.458-1.936-0.808-2.981-1.035l-2.077,2.671
			c-0.248-0.018-0.497-0.03-0.75-0.03c-0.253,0-0.502,0.012-0.75,0.03l-2.077-2.671c-1.045,0.227-2.044,0.577-2.981,1.035
			l0.123,3.319c-0.467,0.31-0.907,0.658-1.317,1.039l-3.341-0.718c-0.625,0.781-1.165,1.634-1.601,2.545l2.193,2.425
			c-0.223,0.663-0.381,1.356-0.466,2.072l-3.01,1.592c0.027,0.944,0.151,1.863,0.365,2.748L39.111,43.785z M42.745,40.215
			c0-3.325,2.695-6.021,6.021-6.021s6.021,2.695,6.021,6.021c0,3.325-2.695,6.021-6.021,6.021S42.745,43.54,42.745,40.215z"/>
	</g>
</g>
</svg>
