<?xml version="1.0" encoding="UTF-8"?><svg id="a" xmlns="http://www.w3.org/2000/svg" width="570" height="427.5" xmlns:xlink="http://www.w3.org/1999/xlink" viewBox="0 0 570 427.5"><defs><clipPath id="b"><path d="m551.316,306.442c-29.524,110.716-118.273,115.422-265.453,119.411C76.116,431.537,26.127,337.716,7.905,224.589-5.445,141.708,13.866-19.558,218.185,6.6c4.47.572,31.765-13.537,36.415-12.79,4.87.783,7.924,18.136,8.842,19.421,1.263,1.768,2.684,4.011,2.747,4.074,8.179,2.621,17.327,6.308,37.086,15.419,34.323,15.827,69.785,32.707,138.904,32.707,165.234,0,122.779,189.853,109.137,241.011Z" fill="none"/></clipPath></defs><path d="m551.316,306.442c-29.524,110.716-118.273,115.422-265.453,119.411C76.116,431.537,26.127,337.716,7.905,224.589-5.737,139.895,14.726-26.653,231.863,8.589c74.459,12.085,97.768,56.842,210.316,56.842,165.234,0,122.779,189.853,109.137,241.011Z" fill="#90d3d0"/><g clip-path="url(#b)"><g opacity=".42"><path d="m413.168,112.143c32.77,4.776,63.373,26.751,78.141,56.557,16.104,32.768,4.981,69.859-24.619,90.434-18.057,12.964-40.549,19.828-62.656,18.406,0,0-.052-.879-.052-.879,20.92-4.017,41.781-9.931,58.905-22.714,16.597-12.168,28.487-31.497,28.598-52.368.677-26.389-15.904-50.288-36.464-65.669-12.943-9.591-27.145-16.504-42.084-22.917,0,0,.232-.85.232-.85h0Z" fill="#ebfffd"/></g><g opacity=".47"><path d="m351.372,270.793c-51.078-9.313-98.489-66.268-71.763-117.76,15.299-29.067,48.324-44.866,80.019-47.236,8.625-.504,17.353-.104,25.813,1.573,0,0-.065.878-.065.878-22.352,1.123-44.777,4.354-64.69,14.674-19.222,9.914-35.657,26.925-40.106,48.495-6.257,27.095,8.059,54.675,28.451,72.16,12.745,11.033,27.26,19.064,42.611,26.378,0,0-.27.839-.27.839h0Z" fill="#ebfffd"/></g><g opacity=".44"><path d="m417.534,74.844c72.556,10.596,147.718,75.479,127.758,154.736-9.19,35.69-39.01,62.944-72.142,76.704-32.014,13.585-67.563,16.959-101.82,12.366-64.839-8.934-134.011-50.582-147.653-118.79-12.878-71.794,48.961-122.947,115.118-130.524,18.071-2.275,36.375-1.81,54.091,1.306l-.161,1.459c-26.637-1.066-53.178,1.837-78.206,10.645-39.981,13.345-77.959,45.812-81.395,89.898-4.553,53.094,38.072,97.447,83.743,117.89,47.094,21.265,103.619,24.96,151.724,4.991,31.203-12.943,59.279-38.15,67.022-71.834,12.701-52.565-26.216-101.383-69.828-126.238-15.131-8.951-31.535-15.84-48.582-21.177,0,0,.332-1.43.332-1.43h0Z" fill="#ebfffd"/></g><ellipse cx="385.337" cy="192.379" rx="179.078" ry="235.5" transform="translate(128.938 538.434) rotate(-79.995)" fill="none" opacity=".24" stroke="#ebfffd" stroke-miterlimit="10" stroke-width="31"/><ellipse cx="385.337" cy="192.379" rx="264.245" ry="347.5" transform="translate(128.938 538.434) rotate(-79.995)" fill="none" opacity=".24" stroke="#ebfffd" stroke-miterlimit="10" stroke-width="48"/><path d="m186.97,229.49c1.073-2.506,2.226-5.12,4.367-6.807,2.444-1.927,5.728-2.304,8.825-2.608,23.864-2.347,47.728-4.695,71.592-7.042,4.074-.401,14.176-.473,18.261-.207,7.738.505,14.752,16.168,20.576,28.24.651,1.35,1.317,2.879.831,4.298-.349,1.019-1.227,1.752-2.079,2.411-20.296,15.677-47.238,19.138-72.808,21.121-15.575,1.208-33.952,2.182-48.027-5.941-14.928-8.615-7.016-20.667-1.539-33.463Z" fill="#b388b5"/><path d="m265.369,571.377c-3.365-4.735-7.436-8.55-13.825-9.043-7.95-.614-16.686,1.092-24.759,1.138-30.957.175-61.913.35-92.87.525-.457.003-.914.005-1.37.008-1.799.01-3.808-.064-5.073-1.382-.975-1.015-1.252-2.522-1.449-3.936-1.257-9.011-1.143-18.224.337-27.199.419-2.54.945-5.054,1.539-7.553,26.583-74.089,2.431-167.298,14.373-246.076,7.165-51.698,94.587-39.224,139.965-36.762,23.883,2.462,41.814-5.429,60.921,9.341,35.825,34.466,44.535,79.53,42.409,129.383-.031,3.917-.108,7.849-.22,11.792-.742,26.218-4.066,55.606-3.942,81.847.185,39.095,6.876,76.937,12.469,115.381,3.87,26.601,6.06,54.684-4.195,79.531-.622,1.506-1.344,3.067-2.667,4.018-1.382.994-3.181,1.152-4.883,1.212-25.413.889-49.506-12.821-67.308-30.98-17.907-18.266-30.389-40.699-43.808-62.246-1.859-2.986-3.624-6.159-5.643-9Z" fill="#b388b5"/><path d="m295.044,253.087s43.793-25.895,79.601-1.828c26.033,17.497,58.879,90.953,58.879,90.953l-74.971,35.521-63.509-124.645Z" fill="#b388b5"/><path d="m361.239,375.139l66.919,146.924s72.834,15.032,70.563-11.867c-2.271-26.899-73.842-175.285-73.842-175.285l-63.639,40.227Z" fill="#ef9f73"/><polygon points="343.573 364.879 365.253 408.379 456.2 362.905 430.495 323.632 343.573 364.879" fill="#d3b0d6"/><path d="m383.821,361.389s129.135,125.966,131.874,150.063c3.789,33.347-28.042,58.358-48.505,52.295s-125.899-173.879-130.402-202.14,47.034-.218,47.034-.218Z" fill="#ef9f73"/><polygon points="212.268 197.728 214.345 268.999 196.462 280.143 230.919 322.393 274.846 326.742 303.543 267.876 290.854 260.922 281.208 197.158 212.268 197.728" fill="#ef9f73"/><path d="m217.28,298.294c12.237,25.259,36.681,51.37,46.522,76.109,5.134-14.016,16.693-24.823,21.136-39.073,1.543-4.95,12.688-30.003,6.639-34.174-2.554-1.761-12.825,6.355-27.977,7.439-5.669.406-42.888-3.218-46.32-10.301Z" fill="#fffffc"/><path d="m315.647,240.17c.678.779,1.386,1.62,1.526,2.643.14,1.021-.271,2.042-.761,2.949-5.782,10.7,6.974,18.553-10.276,28.47,1.838-12.681,7.59,97.405-45.114,130.926-1.367.87-5.023-25.303-4.633-26.876.711-2.871,22.61-55.131,24.461-108.67,0,0-7.191-32.601-6.946-33.071,2.621-5.035,13.113-20.021,19.92-19.677,6.003.304,17.983,18.9,21.823,23.307Z" fill="#b388b5"/><path d="m286.031,221.161c-1.152,5.021-2.78,9.882-4.496,14.724,0,0-.318-1.138-.318-1.138,4.869,4.014,9.154,8.561,12.791,13.706,3.599,5.177,6.508,11.064,7.303,17.398,0,0-2.248-.356-2.248-.356,3.511-7.642,6.57-15.601,8.52-23.794.619-2.725,1.217-5.455,1.319-8.292-.008-.164.26-.201.292-.032,1.668,8.614-1.922,17.176-4.676,25.187-1.015,2.683-2.114,5.309-3.311,7.942-.27.594-.97.856-1.563.586-.378-.172-.621-.518-.679-.9-.208-1.473-.519-2.934-.936-4.373-3.132-10.095-10.245-18.647-18.099-25.517-.332-.279-.435-.73-.29-1.114.907-2.396,1.848-4.78,2.852-7.14,1.007-2.359,2.063-4.7,3.264-6.989.076-.145.317-.064.276.101h0Z" fill="#d3b0d6"/><path d="m181.788,245.3c-.609.834-1.241,1.733-1.293,2.765-.051,1.029.446,2.011,1.012,2.872,6.684,10.161.904,12.312,18.946,20.703-2.926-12.475,11.298,73.104,28.76,123.725.528,1.532,49.174,2.47,51.317-12.202.44-3.014-39.597-71.587-51.77-111.57-1.73-5.681-2.011-29.555-3.576-33.653l-26.798-14.115c-5.954.821-13.153,16.754-16.599,21.476Z" fill="#b388b5"/><path d="m269.194,360.505c.921,18.01,1.856,37.439,2.231,55.397.529,18.262-1.05,37.115,5.174,54.547,3.615,12.438,18.734,35.167,8.613,46.668-2.995,3.563-7.387,5.431-9.247,9.742-.833,1.904-1.026,4.137.033,5.669.798,1.236,2.663,2.012,3.819,3.193,4.422,4.841.328,11.149-2.983,15.107-4.172,5.448-6.969,11.829-8.397,18.57-.016.08-.094.131-.173.115.28-6.852,3.369-13.89,7.242-19.648,2.428-3.33,5.631-7.496,3.729-11.598-1.022-2.06-3.542-2.501-4.914-4.599-2.272-3.456-.695-7.913,1.699-10.824,2.256-2.653,5.413-4.592,7.566-7.12,4.507-5.224,2.945-12.728.956-18.753-2.822-8.677-7.126-16.899-10.218-25.734-6.282-17.786-4.586-36.863-5.015-55.296-.192-13.844-.903-27.705-.771-41.564.014-4.624.124-9.25.364-13.871.001-.177.292-.181.294,0h0Z" fill="#d3b0d6"/><path d="m201.156,247.368s-62.566-14.13-91.583,17.798c-21.096,23.213-35.433,102.39-35.433,102.39l81.288,16.571,45.728-136.759Z" fill="#b388b5"/><path d="m168.289,339.29c-.226,3.834-1.535,7.312-2.597,10.87-1.078,3.554-2.228,7.083-3.369,10.616-1.186,3.518-2.367,7.037-3.612,10.536-1.238,3.501-2.335,7.048-4.365,10.288-.074.129-.298.062-.279-.092.862-7.359,3.909-14.405,5.966-21.487,1.184-3.519,2.357-7.041,3.603-10.539,1.262-3.493,2.276-7.068,4.374-10.285.076-.126.295-.06.279.092h0Z" fill="#805684"/><path d="m149.622,384.376l-20.904,94.19s-66.697,32.897-71.277,6.294c-4.58-26.603,20.459-123.38,20.459-123.38l71.722,22.896Z" fill="#ef9f73"/><polygon points="163.443 373.782 152.425 420.773 60.026 403.777 69.183 354.507 163.443 373.782" fill="#d3b0d6"/><path d="m168.914,144.242c-9.97-10.18-18.773-25.984-20.318-40.15-2.403-22.026,8.118-42.795,19.442-53.146,33.31-30.451,74.268-30.871,106.281-7.395,8.819,6.467,15.258,22.551,18.774,32.907s4.611,21.386,4.826,32.32c.06,3.029.017,6.21-1.45,8.861-1.295,2.341-3.541,3.975-5.717,5.532-5.601,4.008-11.202,8.016-16.803,12.024-8.562,6.126-17.317,12.351-27.376,15.46-9.107,2.815-18.79,2.922-28.266,3.962-9.476,1.04-19.277,3.238-26.558,9.391-.558.472-1.186.996-1.915.944-.651-.047-1.169-.543-1.626-1.009-6.431-6.566-12.862-13.132-19.294-19.7Z" fill="#492f2e"/><path d="m168.127,99.317c-3.279,16.24-.55,33.112,7.474,47.608,11.691,21.12,27.567,49.291,33.528,54.767,8.897,8.173,45.725,16.042,60.285,11.46,15.897-5.003,35.849-33.256,35.88-44.823.021-7.826-5.363-45.297-10.396-68.346-3.13-14.334-14.073-30.201-25.686-39.167-16.15-12.469-34.884-15.389-59.833-5.213-22.775,9.289-37.481,25.049-41.251,43.716Z" fill="#ef9f73"/><path d="m242.531,124.099c2.27,3.053,3.664,6.477,5.171,9.853l-.574-.568c4.645,1.9,9.179,4.033,13.305,6.932,3.051,2.148,6.17,5.135,4.567,9.269-1.763,4.843-5.097,8.913-9.21,11.895,0,0-.209-.206-.209-.206,1.758-2.825,3.703-5.414,5.371-8.125,1.272-2.375,3.3-5.373,1.466-7.864-1.861-2.329-4.824-4.014-7.431-5.573-2.938-1.657-6.006-3.18-9.091-4.549-1.422-3.566-2.997-7.054-3.635-10.948,0,0,.27-.115.27-.115h0Z" fill="#935f44"/><path d="m244.03,175.98c-1.438,2.162-2.548,4.913-1.378,7.181.912,1.767,2.979,2.727,5.01,3.174,3.687.811,7.558.333,11.326-.168,2.477-.329,4.984-.674,7.3-1.587s4.457-2.471,5.498-4.631c1.499-3.111.401-6.87-1.814-9.518-3.781-4.519-7.986-6.932-13.678-4.517-4.988,2.117-9.349,5.684-12.263,10.066Z" fill="#e29169"/><path d="m233.791,178.033c.259-.121.587-.169.865-.2,3.905-.362,7.821.167,11.721.07,8.174-.131,16.451-1.498,23.752-5.256,3.653-1.861,6.766-4.413,10.238-6.86.119-.101.306.063.218.196-8.066,12.537-26.823,15.343-40.563,13.661-2.084-.23-4.206-.844-6.205-1.364-.118-.021-.146-.202-.027-.248h0Z" fill="#431216"/><path d="m232.74,133.881c-.673,3.184-3.095,5.178-5.463,7.099-4.726,3.824-10.954,6.159-17.108,5.587-3.069-.243-6.213-.96-8.379-3.342-.671-.917,4.169-.188,4.503-.221,6.725,1.211,13.471-.858,19.067-4.645,2.41-1.61,4.25-3.556,7.042-4.75.172-.083.383.085.337.271h0Z" fill="#001415"/><path d="m285.012,117.006c-.463,5.384-7.34,10.638-12.15,12.383-5.381,1.854-13.155,1.536-16.999-3.168-.12-.15-.007-.39.185-.39.801-.025,1.513.09,2.215.181,1.99.251,3.904.846,5.875,1.008,6.597.548,12.699-2.9,17.131-7.618.983-.931,2.033-1.823,3.374-2.62.159-.102.388.035.369.225h0Z" fill="#001415"/><path d="m169.592,146.106c-1.275.609-2.518,1.351-3.448,2.415-1.077,1.232-1.665,2.814-2.1,4.391-2.838,10.275.474,22.227,8.793,28.891,8.319,6.665,21.343,7.062,29.535.241.486-.404.967-.849,1.22-1.428.325-.745.227-1.599.095-2.402-2.4-14.603-15.621-40.935-34.095-32.11Z" fill="#ef9f73"/><path d="m188.637,170.355c-4.108-3.966-6.516-9.371-10.93-12.868-1.393-1.093-2.913-2.199-4.194-1.028-2.189,2.555-1.906,6.412-3.228,9.472,0,0-.293-.012-.293-.012-.902-3.518-.49-9.866,3.111-11.937,4.877-1.852,9.531,5.09,11.925,8.397,1.609,2.429,3.302,4.829,3.867,7.835l-.257.142h0Z" fill="#935f44"/><path d="m300.158,102.088c1.357-.394,2.778-.668,4.18-.493,1.624.203,3.115.992,4.49,1.879,8.958,5.778,14.442,16.902,12.67,27.414-1.772,10.511-11.226,19.478-21.88,19.84-.632.022-1.287.011-1.861-.253-.739-.339-1.234-1.043-1.669-1.729-7.93-12.495-15.592-40.946,4.069-46.658Z" fill="#ef9f73"/><path d="m301.409,132.594c-1.334-2.753-1.4-5.688-1.551-8.598-.103-4.194-.343-14.524,6.056-13.835,3.809.977,6.676,4.364,8.136,7.737,0,0-.229.184-.229.184-2.881-1.673-4.949-4.943-8.228-5.695-3.548-.348-3.456,8.929-3.571,11.573-.055,2.837.31,5.642-.322,8.594l-.291.039h0Z" fill="#935f44"/><path d="m188.762,124.551c1.398-3.254,3.192-6.206,5.111-9.137,2.825-4.529,7.937-7.362,13.178-8.009,8.348-1.135,16.174-.205,24.155,1.898.768.218,1.214,1.017.996,1.786-.148.523-.57.897-1.064,1.014-3.936.921-7.85,1.381-11.691,1.808-5.492.711-10.637.722-15.629,2.597-1.733.744-3.415,1.882-4.782,3.255-2.561,2.39-5.164,4.66-8.133,6.592-1.176.789-2.716-.524-2.142-1.803h0Z" fill="#2b0d0d"/><path d="m290.093,103.358c-2.713-.925-5.34-2.247-7.868-3.477-3.491-1.598-7.311-1.339-10.834-.062-6.728,2.171-13.872,4.621-20.428,7.337-1.289.716-2.728-.777-1.932-2.027,2.338-3.534,5.655-5.912,9.122-8.084,3.414-2.055,7.026-3.716,10.943-4.881,5.963-2.125,13.163-1.032,17.639,3.595,1.735,1.678,3.435,3.398,4.97,5.309.917,1.109-.277,2.778-1.613,2.289h0Z" fill="#2b0d0d"/><path d="m245.531,57.417l2.204-4.32c.347-.68,1.13-.582,1.698-.072,3.127,2.801,4.851,3.511,7.495,2.317,3.444-1.555,4.943-5.689,4.488-9.302l4.961-.197c1.194-.048,2.22-.856,2.527-2.011.953-3.58,1.204-9.407.95-12.043-1.313-13.632-5.292-19.143-14.025-24.857-2.675-1.751-5.728-2.86-8.895-3.298-7.132-.987-14.538-1.073-21.658.381-38.005,7.762-54.322,39.491-80.78,62.077-8.892,7.591-19.278,13.381-29.884,18.535-1.213.589-2.563,1.327-2.868,2.597-.586,2.434,2.896,3.708,5.491,3.717,4.521.015,9.05-.6,13.401-1.821-8.203,16.571.296,42.745,10.687,57.968,9.115,13.355,22.256,23.997,30.125,38.071,3.961,7.084,6.463,14.829,8.942,22.521,3.752,11.643,7.505,23.285,11.257,34.928,5.553-6.609,5.902-15.968,4.191-24.247-1.71-8.278-5.189-16.165-6.425-24.524,2.891,5.105,6.21,9.983,9.915,14.572,6.374-7.084,8.367-16.984,7.776-26.283-.591-9.298-3.482-18.274-5.803-27.304-7.646-29.744-8.718-52.394.263-83.046,1.503-5.13,4.57-9.848,9.096-12.947,10.05-6.882,20.192-2.541,29.767.639,1.982.658,4.174-.23,5.103-2.051Z" fill="#ffeea4"/><path d="m193.433,237.628c46.624,111.407,147.853,242.09,217.735,381.156l3.275,26.825-27.68,3.275-1.627-26.032c-70.836-137.421-171.709-268.543-216.673-380.368l24.97-4.855Z" fill="#77442b"/><path d="m178.408,248.884c-.483.913-.98,1.893-.883,2.921.097,1.026.714,1.94,1.414,2.697,5.567,6.024,9.965,11.388,19.876,15.819,3.724-12.926,13.951-22.806,15.16-24.437.965-1.302,1.01-3.154.781-4.758-.242-1.692-1.339-3.125-2.454-4.421-3.701-4.304-12.767-14.663-19.316-12.774-5.775,1.665-11.845,19.786-14.578,24.953Z" fill="#b388b5"/><path d="m193.054,223.801c5.353,1.753,10.221,4.427,15.174,6.938,4.953,2.512,9.88,5.075,14.804,7.642.804.393.858,1.597.103,2.065-2.663,1.844-5.279,3.958-7.71,6.189-4.866,4.457-9.233,9.531-12.404,15.328-1.607,2.875-2.929,5.883-4.033,9.078-.044.154-.304.116-.289-.054.89-13.182,12.882-25.198,23.111-32.545,0,0,.103,2.065.103,2.065-4.905-2.604-9.808-5.212-14.683-7.872-4.875-2.66-9.837-5.157-14.313-8.575-.13-.088-.017-.321.137-.26h0Z" fill="#d3b0d6"/><path d="m364.867,296.888c.854-3.282,5.113-22.277-1.703-24.933-6.816-2.657-12.518,22.96-18.305,24.987-5.787,2.027-8.717,5.882-9.483,17.004-.766,11.122-15.553,28.915,1.41,47.661,16.963,18.746,24.367,18.063,33.253,17.243,8.885-.82,32.011-25.356,30.571-34.482-1.439-9.127-44.365-30.854-45.814-27.136-1.449,3.718,7.204-9.327,10.071-20.344Z" fill="#ef9f73"/><path d="m369.346,267.952l7.381,1.348c.226.09,16.26-13.938,17.866-22.732l20.615-112.893-9.064-1.655-17.443,95.521c-.72,3.94-3.479,6.478-5.465,6.116l-7.381-1.348c-1.987-.363-3.671-3.712-2.951-7.653l17.443-95.521-9.064-1.655-20.615,112.893c-1.606,8.794,7.127,27.344,8.679,27.579Z" fill="#dbdbdb"/><polygon points="352.02 353.671 361.084 355.326 377.927 267.491 368.863 265.836 352.02 353.671" fill="#dbdbdb"/><path d="m394.026,353.937s6.133-4.748,8.034-13.286c1.9-8.539-.883-16.048-.883-16.048,0,0,2.971-13.118-3.362-17.014l-6.333-3.896s4.379-7.573-4.055-11.574c-2.615-2.447,5.345-10.051,2.352-13.36-2.993-3.308-12.079-11.132-18.59-7.246-6.511,3.886,4.601,17.497,2.123,16.531s-21.215,3.152-22.118,12.794c-.903,9.641-7.141,16.49.295,19.388,7.436,2.898,8.644-.2,8.644-.2,0,0-10.649,10.84-7.036,14.389,3.613,3.55,7.709,5.86,11.774,4.589,4.064-1.271,7.131-3.645,7.131-3.645,0,0,16.134,22.706,22.025,18.578Z" fill="#ef9f73"/><path d="m361.523,289.272c-2.392,1.485-4.81,2.89-7.111,4.416-1.723,1.248-3.922,2.401-4.851,4.305.354,1.571.717,3.202,1.025,4.684.352,1.528.81,2.934,1.729,3.939,1.733-.037,4.136-1.086,5.992-1.862,3.22-1.356,6.427-3.043,9.9-4.012.743-.177,1.598-.335,2.432-.005,6.82,1.423,13.96,1.111,20.849,2.808.151.03.15.279-.015.293-5.66.733-11.247.193-16.879-.229-1.562-.169-3.314-.249-4.907-.738-.852.024-1.877.439-2.772.768-3.861,1.529-7.686,3.536-11.751,4.792-1.258.308-2.524.763-3.934.132-1.716-1.197-2.323-3.647-2.725-5.426-.325-1.559-.527-3.016-.904-4.453-.098-.373-.102-.816-.013-1.152,1.496-4.122,9.86-7.225,13.816-8.53.162-.046.265.181.118.269h0Z" fill="#935f44"/><path d="m396.815,323.057c-9.309-.18-18.352-2.138-27.561-3.02-1.22-.097-2.49-.334-3.683-.214-1.576.37-3.142,1.013-4.761,1.58-3.706,1.11-13.378,5.467-16.104,1.342-.212-.319-1.372-2.049-1.613-2.397-5.408-7.382,6.035-10.848,11.455-11.897.166-.032.245.201.096.277-2.744,1.447-5.57,2.711-8.044,4.32-1.216.778-2.381,1.758-2.758,2.766-.59,1.838,1.451,3.75,2.36,5.227.133.19.383.586.541.744,1.224.763,2.946.326,4.594.053,2.893-.621,5.772-1.679,8.666-2.701,2.237-.695,4.697-1.986,7.166-1.644,3.879.343,7.708.978,11.537,1.554,6.1.962,12.212,1.834,18.157,3.721.153.042.121.3-.047.29h0Z" fill="#935f44"/><path d="m364.856,338.858c1.888-1.117,3.872-1.203,5.839-1.467,2.049-.263,4.099-.518,6.156-.701,1.878.598,3.74,1.243,5.587,1.934,1.765.677,3.601,1.135,5.1,2.634.094.09.04.263-.09.279-2.093.337-3.849-.367-5.676-.852-1.822-.5-3.631-1.041-5.425-1.628l.481.053c-1.974.184-3.955.302-5.936.414-1.982.1-3.948.379-6.008-.374-.125-.042-.144-.229-.027-.292h0Z" fill="#935f44"/><path d="m356.194,335.623c-2.479-.966-4.821-.451-3.75-5.031,1.071-4.579,6.343-8.949,6.343-8.949" fill="none" stroke="#935f44" stroke-linecap="round" stroke-miterlimit="10"/><path d="m384.781,289.815c-1.136.773-2.03.466-2.998.416-.958-.071-1.915-.162-2.868-.291-.953-.13-1.901-.308-2.848-.5-.948-.195-1.911-.238-2.772-1.25-.076-.087-.062-.223.031-.292,1.064-.805,2.025-.624,2.999-.587,1.956.068,3.891.311,5.795.782.945.254,1.96.268,2.721,1.435.062.095.033.224-.06.287h0Z" fill="#935f44"/><path d="m417.272,393.117c12.891,10.708,24.113,23.134,36.034,34.867,8.749,8.979,17.492,17.973,25.944,27.238,2.746,3.159,5.52,6.31,7.764,9.915.091.135-.115.309-.23.179-10.111-9.95-25.071-25.419-35.199-35.643,0,0-17.511-17.923-17.511-17.923-5.805-6.007-11.805-11.819-17.01-18.426-.107-.124.078-.321.208-.208h0Z" fill="#935f44"/><g opacity=".64"><path d="m420.403,145.74c12.806,3.094,23.545,12.116,31.015,22.749,19.372,27.321,8.629,59.795-20.715,74.05-3.617,1.729-7.573,3.413-11.473,4.387-6.31,1.677-12.878,2.313-19.307,1.513l-.075-.878c6.121-1.933,11.993-3.718,17.668-5.923,5.595-2.108,11.182-4.685,16.074-8.138,21.272-14.508,26.773-39.772,12.447-61.376-6.769-10.442-16.51-17.524-26.026-25.596,0,0,.392-.789.392-.789h0Z" fill="#ebfffd"/></g><g opacity=".64"><path d="m356.644,241.881c-11.161-1.928-21.318-8.147-29.356-16.024-12.165-11.749-20.107-28.942-17.24-46.137,3.326-21.043,21.411-36.062,40.956-41.887,7.522-2.107,15.493-2.903,23.172-1.74,0,0,.041.88.041.88-6.62,1.717-12.97,3.376-19.107,5.545-25.071,8.023-44.577,29.192-36.671,56.715,2.705,8.991,8.176,17.383,15.019,23.914,1.548,1.642,3.732,3.331,5.419,4.836,5.793,4.615,11.734,8.703,18.097,13.081,0,0-.33.817-.33.817h0Z" fill="#ebfffd"/></g><path d="m358.654,222.144c-8.02-2.342-14.393-8.371-18.855-15.315-10.137-15.438-5.81-34.701,9.427-44.889,6.793-4.677,14.972-7.665,23.253-6.976,0,0,.08.582.08.582-7.309,2.863-14.577,5.246-20.834,9.879-12.86,9.271-16.476,25.622-8.23,39.151,3.933,6.73,9.834,11.567,15.452,17.059,0,0-.293.509-.293.509h0Z" fill="#ebfffd"/><path d="m414.697,164.252c7.179,2.336,12.642,8.001,16.555,14.313,11.274,18.162,3.121,39.048-15.817,47.56-3.413,1.469-7.06,2.368-10.764,2.393,0,0-.147-.568-.147-.568,3.199-1.786,6.285-3.372,9.237-5.13,15.937-8.538,22.975-25.701,13.754-42.069-3.404-6.13-8.496-10.638-13.138-16.006,0,0,.32-.492.32-.492h0Z" fill="#ebfffd"/></g></svg>