<?xml version="1.0" encoding="UTF-8"?><svg id="b" xmlns="http://www.w3.org/2000/svg" width="1140" height="600" xmlns:xlink="http://www.w3.org/1999/xlink" viewBox="0 0 1140 600"><defs><symbol id="a" viewBox="0 0 8 8"><circle cx="4" cy="4" r="4" fill="#49626e" stroke-width="0"/></symbol><clipPath id="c"><path d="m426.1653,596.6535c-51.4794,1.5184-101.919,2.2042-152.8677-.9155-82.2662-5.0373-166.5549-43.9704-219.2221-113.5507-32.8638-43.4175-44.9603-100.9456-47.6815-154.1433-3.0879-60.3683-3.6178-114.8197,23.9703-170.8346,22.811-46.3154,63.2254-94.1445,110.9619-116.1719,56.0746-25.8748,122.9421-30.9303,183.8847-34.6828,94.1006-5.7941,188.3947-2.7237,282.5575-.7886,143.0734,2.9403,334.3525-38.25,445.457,79.824,35.6811,37.9193,57.43,97.6788,69.8646,147.325,20.5477,82.0387,21.7232,181.0676-29.5483,252.608-48.166,67.2072-130.4325,95.0464-208.8411,101.9296-98.1147,8.6132-198.7531,4.2403-297.1476,5.3049-53.4794,0-107.4524,2.5049-161.3877,4.0957Z" fill="#f2ede4" stroke-width="0"/></clipPath></defs><path d="m426.1653,596.6535c-51.4794,1.5184-101.919,2.2042-152.8677-.9155-82.2662-5.0373-166.5549-43.9704-219.2221-113.5507-32.8638-43.4175-44.9603-100.9456-47.6815-154.1433-3.0879-60.3683-3.6178-114.8197,23.9703-170.8346,22.811-46.3154,63.2254-94.1445,110.9619-116.1719,56.0746-25.8748,122.9421-30.9303,183.8847-34.6828,94.1006-5.7941,188.3947-2.7237,282.5575-.7886,143.0734,2.9403,334.3525-38.25,445.457,79.824,35.6811,37.9193,57.43,97.6788,69.8646,147.325,20.5477,82.0387,21.7232,181.0676-29.5483,252.608-48.166,67.2072-130.4325,95.0464-208.8411,101.9296-98.1147,8.6132-198.7531,4.2403-297.1476,5.3049-53.4794,0-107.4524,2.5049-161.3877,4.0957Z" fill="#f2ede4"/><g clip-path="url(#c)"><path d="m612.2497,127.8515l-21.0168,302.006c0,11.7266-9.5063,21.2329-21.2329,21.2329h0c-11.7266,0-21.233-9.5063-21.233-21.233l-21.0168-302.0059h-29.787l20.016,360.7866c0,3.3655,1.5679,6.5389,4.241,8.5836l47.1116,36.0369,48.3413-36.0397c2.7358-2.0396,4.3476-5.2516,4.3476-8.6641l20.016-360.7033h-29.787Z" fill="#9ca2a6" stroke-width="0"/><path d="m585.7529,731.2013s-8.9967,3.2895-16.421,3.2895-16.421-3.2895-16.421-3.2895v-264.748h32.842v264.748Z" fill="#9ca2a6" stroke-width="0"/><path d="m616.9602,491.8793c-8.7619,6.7592-18.5402,12.3081-27.8471,18.2409-5.5975,3.8148-12.1102,6.9541-19.0736,6.8789-7.0053.1909-13.5842-2.4666-19.2205-6.4805-9.2339-6.0458-18.8785-11.8087-27.5812-18.6403,0,0,.1572-.2481.1572-.2481,9.8875,4.9553,19.2231,11.2158,28.6284,16.9881,0,0,2.8247,1.7591,2.8247,1.7591,4.5206,2.8088,9.824,4.337,15.1543,4.2109,6.6118.091,12.4889-2.8459,17.923-6.4042,9.5061-5.6105,18.8831-11.8034,28.8814-16.5551,0,0,.1534.2504.1534.2504h0Z" fill="#79848a" stroke-width="0"/><path d="m555.3772,520.7745c2.2441-.9877,4.488-.8324,6.7322-.9354,2.2439-.0885,4.488-.1004,6.7319-.1234,4.5104.2622,9.0739-.4233,13.4644,1.0585,0,.0003,0,.294,0,.294-4.3878,1.4819-8.9558.7967-13.4643,1.0591-2.2439-.0233-4.4881-.0352-6.732-.1237-2.2441-.103-4.488.0523-6.7322-.9354v-.2937h0Z" fill="#79848a" stroke-width="0"/></g><path d="m276.7676,41.2856h-7.7051l-1.4648,4.3945h-4.6719l7.9395-21.3281h4.0723l7.9824,21.3281h-4.6719l-1.4805-4.3945Zm-6.5176-3.5596h5.332l-2.6816-7.9834-2.6504,7.9834Z" stroke-width="0"/><path d="m297.1738,25.9341v3.8965h2.709v3.1055h-2.709v7.9102c0,.5859.1113,1.0059.3359,1.2598s.6543.3809,1.2891.3809c.4688,0,.8848-.0342,1.2461-.1025v3.208c-.8301.2539-1.6855.3809-2.5645.3809-2.9688,0-4.4824-1.499-4.541-4.4971v-8.54h-2.3145v-3.1055h2.3145v-3.8965h4.2344Z" stroke-width="0"/><path d="m311.7344,44.0688c-1.0449,1.2695-2.4902,1.9043-4.3359,1.9043-1.6992,0-2.9961-.4883-3.8896-1.4648s-1.3506-2.4072-1.3701-4.292v-10.3857h4.2344v10.251c0,1.6523.752,2.4785,2.2559,2.4785,1.4355,0,2.4219-.4985,2.959-1.4961v-11.2334h4.248v15.8496h-3.9844l-.1172-1.6113Z" stroke-width="0"/><path d="m322.9258,29.8306l.1309,1.8311c1.1328-1.416,2.6523-2.124,4.5566-2.124,1.6797,0,2.9297.4932,3.75,1.4795s1.2402,2.4609,1.2598,4.4238v10.2393h-4.2344v-10.1367c0-.8984-.1953-1.5503-.5859-1.9556s-1.0391-.6079-1.9473-.6079c-1.1914,0-2.0859.5078-2.6816,1.5234v11.1768h-4.2324v-15.8496h3.9844Z" stroke-width="0"/><path d="m335.8008,25.729c0-.6348.2129-1.1572.6377-1.5674s1.0029-.6152,1.7354-.6152c.7227,0,1.2988.2051,1.7285.6152s.6445.9326.6445,1.5674c0,.6445-.2168,1.1719-.6514,1.582s-1.0088.6152-1.7217.6152-1.2861-.2051-1.7207-.6152-.6523-.9375-.6523-1.582Zm4.498,19.9512h-4.248v-15.8496h4.248v15.8496Z" stroke-width="0"/><path d="m347.6816,29.8306l.1309,1.8311c1.1328-1.416,2.6523-2.124,4.5566-2.124,1.6797,0,2.9297.4932,3.75,1.4795s1.2402,2.4609,1.2598,4.4238v10.2393h-4.2344v-10.1367c0-.8984-.1953-1.5503-.5859-1.9556s-1.0391-.6079-1.9473-.6079c-1.1914,0-2.0859.5078-2.6816,1.5234v11.1768h-4.2324v-15.8496h3.9844Z" stroke-width="0"/><path d="m359.9707,37.6382c0-2.4316.5791-4.3896,1.7363-5.874s2.7168-2.2266,4.6797-2.2266c1.7383,0,3.0918.5957,4.0586,1.7871l.1758-1.4941h3.8379v15.3223c0,1.3867-.3154,2.5928-.9453,3.6182s-1.5156,1.8066-2.6582,2.3438-2.4805.8057-4.0137.8057c-1.1621,0-2.2949-.2319-3.3984-.6958s-1.9395-1.062-2.5059-1.7944l1.875-2.5781c1.0547,1.1816,2.334,1.7725,3.8379,1.7725,1.123,0,1.998-.3003,2.623-.9009s.9375-1.4526.9375-2.5562v-.8496c-.9766,1.1035-2.2617,1.6553-3.8535,1.6553-1.9043,0-3.4443-.7446-4.6211-2.2339s-1.7656-3.4644-1.7656-5.9253v-.1758Zm4.2344.3149c0,1.438.2871,2.5654.8633,3.3818.5762.8169,1.3672,1.2251,2.373,1.2251,1.2891,0,2.2129-.4839,2.7695-1.4526v-6.6748c-.5664-.9683-1.4805-1.4526-2.7402-1.4526-1.0156,0-1.8135.416-2.3945,1.2471-.5811.8315-.8711,2.0737-.8711,3.7261Z" stroke-width="0"/><path d="m386.3379,45.6802v-12.7441h-2.3574v-3.1055h2.3574v-1.3477c0-1.7773.5107-3.1567,1.5312-4.1382s2.4492-1.4722,4.2852-1.4722c.5859,0,1.3027.0977,2.1523.293l-.043,3.2812c-.3516-.0879-.7812-.1318-1.2891-.1318-1.5918,0-2.3887.7471-2.3887,2.2412v1.2744h3.1504v3.1055h-3.1504v12.7441h-4.248Z" stroke-width="0"/><path d="m395.2734,37.6089c0-1.5723.3027-2.9736.9082-4.2041s1.4775-2.1826,2.6152-2.8564,2.459-1.0107,3.9629-1.0107c2.1387,0,3.8838.6543,5.2363,1.9629s2.1074,3.0859,2.2637,5.332l.0293,1.084c0,2.4316-.6797,4.3823-2.0371,5.8521s-3.1777,2.2046-5.4629,2.2046-4.1094-.7324-5.4717-2.1973-2.0439-3.457-2.0439-5.9766v-.1904Zm4.2344.3003c0,1.5063.2832,2.6582.8496,3.4551.5664.7974,1.377,1.1958,2.4316,1.1958,1.0254,0,1.8262-.3936,2.4023-1.1812.5762-.7871.8633-2.0464.8633-3.7773,0-1.4771-.2871-2.6216-.8633-3.4331s-1.3867-1.2178-2.4316-1.2178c-1.0352,0-1.8359.4033-2.4023,1.2104s-.8496,2.0562-.8496,3.748Z" stroke-width="0"/><path d="m421.8027,33.8003c-.5762-.0781-1.084-.1172-1.5234-.1172-1.6016,0-2.6523.542-3.1504,1.626v10.3711h-4.2324v-15.8496h3.998l.1172,1.8896c.8496-1.4551,2.0273-2.1826,3.5312-2.1826.4688,0,.9082.0635,1.3184.1904l-.0586,4.0723Z" stroke-width="0"/><path d="m429.5957,39.3228l-1.5234,1.5234v4.834h-4.2344v-22.5h4.2344v12.4658l.8203-1.0547,4.0566-4.7607h5.084l-5.7285,6.6064,6.2266,9.2432h-4.8633l-4.0723-6.3574Z" stroke-width="0"/><path d="m451.3047,29.8306l.1309,1.7725c1.123-1.377,2.6426-2.0654,4.5566-2.0654,2.041,0,3.4414.8057,4.2031,2.417,1.1133-1.6113,2.7012-2.417,4.7617-2.417,1.7188,0,2.998.5005,3.8379,1.5015s1.2598,2.5073,1.2598,4.519v10.1221h-4.248v-10.1074c0-.8984-.1758-1.5552-.5273-1.9702s-.9727-.6226-1.8613-.6226c-1.2695,0-2.1484.6055-2.6367,1.8164l.0156,10.8838h-4.2344v-10.0928c0-.918-.1797-1.582-.541-1.9922s-.9766-.6152-1.8457-.6152c-1.2012,0-2.0703.498-2.6074,1.4941v11.2061h-4.2344v-15.8496h3.9707Z" stroke-width="0"/><path d="m482.4902,45.6802c-.1953-.3809-.3359-.8545-.4238-1.4209-1.0254,1.1426-2.3594,1.7139-4,1.7139-1.5527,0-2.8389-.4492-3.8594-1.3477s-1.5312-2.0312-1.5312-3.3984c0-1.6797.623-2.9688,1.8682-3.8672s3.0439-1.3525,5.3975-1.3623h1.9492v-.9082c0-.7324-.1885-1.3184-.5645-1.7578s-.9688-.6592-1.7793-.6592c-.7129,0-1.2725.1709-1.6777.5127s-.6074.8105-.6074,1.4062h-4.2344c0-.918.2832-1.7676.8496-2.5488s1.3672-1.394,2.4023-1.8384,2.1973-.6665,3.4863-.6665c1.9531,0,3.5039.4907,4.6514,1.4722s1.7217,2.3608,1.7217,4.1382v6.8701c.0098,1.5039.2188,2.6416.6289,3.4131v.249h-4.2773Zm-3.5-2.9443c.625,0,1.2012-.1392,1.7285-.4175s.918-.6519,1.1719-1.1206v-2.7246h-1.582c-2.1191,0-3.248.7324-3.3848,2.1973l-.0137.249c0,.5273.1855.9619.5566,1.3037s.8789.5127,1.5234.5127Z" stroke-width="0"/><path d="m495.1465,39.3228l-1.5234,1.5234v4.834h-4.2324v-22.5h4.2324v12.4658l.8203-1.0547,4.0586-4.7607h5.082l-5.7266,6.6064,6.2246,9.2432h-4.8633l-4.0723-6.3574Z" stroke-width="0"/><path d="m505.3867,25.729c0-.6348.2109-1.1572.6367-1.5674.4238-.4102,1.0039-.6152,1.7363-.6152.7227,0,1.2988.2051,1.7285.6152s.6445.9326.6445,1.5674c0,.6445-.2188,1.1719-.6523,1.582-.4355.4102-1.0078.6152-1.7207.6152s-1.2871-.2051-1.7227-.6152c-.4336-.4102-.6504-.9375-.6504-1.582Zm4.4961,19.9512h-4.248v-15.8496h4.248v15.8496Z" stroke-width="0"/><path d="m517.2656,29.8306l.1328,1.8311c1.1328-1.416,2.6504-2.124,4.5547-2.124,1.6797,0,2.9297.4932,3.75,1.4795s1.2402,2.4609,1.2598,4.4238v10.2393h-4.2324v-10.1367c0-.8984-.1953-1.5503-.5859-1.9556s-1.041-.6079-1.9492-.6079c-1.1914,0-2.084.5078-2.6797,1.5234v11.1768h-4.2344v-15.8496h3.9844Z" stroke-width="0"/><path d="m529.5566,37.6382c0-2.4316.5781-4.3896,1.7344-5.874,1.1582-1.4844,2.7188-2.2266,4.6816-2.2266,1.7383,0,3.0898.5957,4.0566,1.7871l.1758-1.4941h3.8379v15.3223c0,1.3867-.3145,2.5928-.9453,3.6182-.6289,1.0254-1.5156,1.8066-2.6582,2.3438s-2.4805.8057-4.0137.8057c-1.1621,0-2.2949-.2319-3.3984-.6958s-1.9375-1.062-2.5039-1.7944l1.875-2.5781c1.0547,1.1816,2.334,1.7725,3.8379,1.7725,1.123,0,1.9961-.3003,2.6211-.9009s.9375-1.4526.9375-2.5562v-.8496c-.9766,1.1035-2.2598,1.6553-3.8516,1.6553-1.9043,0-3.4453-.7446-4.623-2.2339-1.1758-1.4893-1.7637-3.4644-1.7637-5.9253v-.1758Zm4.2324.3149c0,1.438.2891,2.5654.8652,3.3818.5762.8169,1.3672,1.2251,2.373,1.2251,1.2891,0,2.2109-.4839,2.7676-1.4526v-6.6748c-.5664-.9683-1.4785-1.4526-2.7383-1.4526-1.0156,0-1.8145.416-2.3965,1.2471-.5801.8315-.8711,2.0737-.8711,3.7261Z" stroke-width="0"/><path d="m563.9512,45.6802c-.1953-.3809-.3379-.8545-.4258-1.4209-1.0254,1.1426-2.3574,1.7139-3.998,1.7139-1.5527,0-2.8398-.4492-3.8594-1.3477-1.0215-.8984-1.5312-2.0312-1.5312-3.3984,0-1.6797.623-2.9688,1.8672-3.8672,1.2461-.8984,3.0449-1.3525,5.3984-1.3623h1.9473v-.9082c0-.7324-.1875-1.3184-.5625-1.7578-.377-.4395-.9707-.6592-1.7812-.6592-.7129,0-1.2715.1709-1.6758.5127-.4062.3418-.6094.8105-.6094,1.4062h-4.2324c0-.918.2832-1.7676.8496-2.5488s1.3672-1.394,2.4023-1.8384,2.1973-.6665,3.4863-.6665c1.9531,0,3.502.4907,4.6504,1.4722,1.1465.9814,1.7207,2.3608,1.7207,4.1382v6.8701c.0098,1.5039.2207,2.6416.6309,3.4131v.249h-4.2773Zm-3.502-2.9443c.625,0,1.2012-.1392,1.7285-.4175s.918-.6519,1.1719-1.1206v-2.7246h-1.582c-2.1191,0-3.2461.7324-3.3828,2.1973l-.0156.249c0,.5273.1855.9619.5566,1.3037s.8789.5127,1.5234.5127Z" stroke-width="0"/><path d="m584.9121,42.5601c.7812,0,1.416-.2148,1.9043-.6445s.7422-1.001.7617-1.7139h3.9707c-.0098,1.0742-.3027,2.0581-.8789,2.9517s-1.3652,1.5869-2.3652,2.0801c-1.002.4932-2.1074.7397-3.3184.7397-2.2656,0-4.0527-.7202-5.3613-2.1606s-1.9629-3.4302-1.9629-5.9692v-.2783c0-2.4414.6484-4.3896,1.9473-5.8447s3.082-2.1826,5.3477-2.1826c1.9824,0,3.5703.564,4.7676,1.6919,1.1953,1.1279,1.8047,2.6294,1.8242,4.5044h-3.9707c-.0195-.8242-.2734-1.4946-.7617-2.0103-.4883-.5151-1.1328-.7729-1.9336-.7729-.9863,0-1.7305.3594-2.2324,1.0781-.5039.7192-.7559,1.8853-.7559,3.499v.4399c0,1.6338.25,2.8076.748,3.5215s1.2539,1.0708,2.2695,1.0708Z" stroke-width="0"/><path d="m593.3066,37.6089c0-1.5723.3027-2.9736.9082-4.2041s1.4766-2.1826,2.6152-2.8564c1.1367-.6738,2.457-1.0107,3.9609-1.0107,2.1387,0,3.8848.6543,5.2383,1.9629,1.3516,1.3086,2.1055,3.0859,2.2617,5.332l.0293,1.084c0,2.4316-.6777,4.3823-2.0352,5.8521s-3.1797,2.2046-5.4648,2.2046-4.1074-.7324-5.4707-2.1973c-1.3613-1.4648-2.043-3.457-2.043-5.9766v-.1904Zm4.2324.3003c0,1.5063.2832,2.6582.8496,3.4551.5664.7974,1.377,1.1958,2.4316,1.1958,1.0254,0,1.8262-.3936,2.4023-1.1812.5762-.7871.8652-2.0464.8652-3.7773,0-1.4771-.2891-2.6216-.8652-3.4331s-1.3867-1.2178-2.4316-1.2178c-1.0352,0-1.8359.4033-2.4023,1.2104s-.8496,2.0562-.8496,3.748Z" stroke-width="0"/><path d="m614.8984,29.8306l.1309,1.7725c1.123-1.377,2.6426-2.0654,4.5566-2.0654,2.041,0,3.4414.8057,4.2031,2.417,1.1133-1.6113,2.7012-2.417,4.7617-2.417,1.7188,0,2.998.5005,3.8379,1.5015s1.2598,2.5073,1.2598,4.519v10.1221h-4.248v-10.1074c0-.8984-.1758-1.5552-.5273-1.9702s-.9727-.6226-1.8613-.6226c-1.2695,0-2.1484.6055-2.6367,1.8164l.0156,10.8838h-4.2344v-10.0928c0-.918-.1797-1.582-.541-1.9922s-.9766-.6152-1.8457-.6152c-1.2012,0-2.0703.498-2.6074,1.4941v11.2061h-4.2344v-15.8496h3.9707Z" stroke-width="0"/><path d="m651.168,37.9019c0,2.4414-.5547,4.397-1.6641,5.8667-1.1074,1.4697-2.6035,2.2046-4.4883,2.2046-1.6016,0-2.8965-.5566-3.8828-1.6699v7.4707h-4.2324v-21.9434h3.9258l.1465,1.5527c1.0254-1.2305,2.3633-1.8457,4.0137-1.8457,1.9531,0,3.4707.7227,4.5547,2.168s1.627,3.4375,1.627,5.9766v.2197Zm-4.2344-.3076c0-1.4746-.2617-2.6123-.7832-3.4131-.5234-.8008-1.2812-1.2012-2.2773-1.2012-1.3281,0-2.2422.5078-2.7402,1.5234v6.4893c.5176,1.0449,1.4414,1.5674,2.7695,1.5674,2.0215,0,3.0312-1.6553,3.0312-4.9658Z" stroke-width="0"/><path d="m662.6953,33.8003c-.5762-.0781-1.084-.1172-1.5234-.1172-1.6016,0-2.6504.542-3.1484,1.626v10.3711h-4.2344v-15.8496h4l.1172,1.8896c.8496-1.4551,2.0254-2.1826,3.5293-2.1826.4688,0,.9082.0635,1.3184.1904l-.0586,4.0723Z" stroke-width="0"/><path d="m672.0273,45.9731c-2.3242,0-4.2168-.7129-5.6777-2.1387-1.459-1.4258-2.1895-3.3252-2.1895-5.6982v-.4102c0-1.5918.3086-3.0151.9238-4.27s1.4863-2.2217,2.6133-2.9004c1.1289-.6787,2.416-1.0181,3.8613-1.0181,2.168,0,3.873.6836,5.1191,2.0508,1.2441,1.3672,1.8672,3.3057,1.8672,5.8154v1.7285h-10.0918c.1367,1.0352.5488,1.8652,1.2363,2.4902.6895.625,1.5605.9375,2.6152.9375,1.6309,0,2.9062-.5908,3.8242-1.7725l2.0801,2.3291c-.6348.8984-1.4941,1.5991-2.5781,2.1021s-2.2852.7544-3.6035.7544Zm-.4844-13.0225c-.8398,0-1.5215.2847-2.043.8535-.5234.5688-.8574,1.3833-1.0039,2.4424h5.8887v-.3384c-.0195-.9419-.2734-1.6699-.7617-2.1851s-1.1816-.7725-2.0801-.7725Z" stroke-width="0"/><path d="m689.5312,41.3003c0-.5176-.2559-.9253-.7676-1.2231-.5137-.2979-1.3359-.564-2.4688-.7983-3.7695-.791-5.6543-2.3926-5.6543-4.8047,0-1.4062.582-2.5806,1.75-3.5229,1.166-.9424,2.6934-1.4136,4.5781-1.4136,2.0117,0,3.6191.4736,4.8262,1.4209,1.2051.9473,1.8086,2.1777,1.8086,3.6914h-4.2324c0-.6055-.1953-1.106-.5859-1.5015s-1.002-.5933-1.832-.5933c-.7129,0-1.2637.1611-1.6543.4834s-.5859.7324-.5859,1.2305c0,.4688.2207.8472.666,1.1353.4434.2881,1.1934.5371,2.248.7471s1.9434.4468,2.666.7104c2.2363.8203,3.3555,2.2412,3.3555,4.2627,0,1.4453-.6211,2.6147-1.8613,3.5083s-2.8418,1.3403-4.8047,1.3403c-1.3281,0-2.5078-.2368-3.5371-.7104-1.0312-.4736-1.8379-1.123-2.4238-1.9482s-.8789-1.7163-.8789-2.6733h4.0137c.0391.752.3164,1.3281.834,1.7285s1.2109.6006,2.0801.6006c.8105,0,1.4238-.1538,1.8398-.4614.4141-.3076.6211-.7104.6211-1.2085Z" stroke-width="0"/><path d="m704.957,41.3003c0-.5176-.2578-.9253-.7695-1.2231-.5137-.2979-1.3359-.564-2.4688-.7983-3.7695-.791-5.6543-2.3926-5.6543-4.8047,0-1.4062.584-2.5806,1.75-3.5229,1.168-.9424,2.6934-1.4136,4.5781-1.4136,2.0117,0,3.6211.4736,4.8262,1.4209,1.207.9473,1.8105,2.1777,1.8105,3.6914h-4.2344c0-.6055-.1953-1.106-.5859-1.5015s-1-.5933-1.8301-.5933c-.7129,0-1.2656.1611-1.6562.4834s-.5859.7324-.5859,1.2305c0,.4688.2227.8472.666,1.1353.4453.2881,1.1953.5371,2.25.7471s1.9434.4468,2.666.7104c2.2363.8203,3.3535,2.2412,3.3535,4.2627,0,1.4453-.6191,2.6147-1.8594,3.5083s-2.8418,1.3403-4.8047,1.3403c-1.3281,0-2.5078-.2368-3.5391-.7104-1.0293-.4736-1.8379-1.123-2.4238-1.9482s-.8789-1.7163-.8789-2.6733h4.0137c.0391.752.3184,1.3281.8359,1.7285s1.2109.6006,2.0801.6006c.8105,0,1.4219-.1538,1.8379-.4614.4141-.3076.623-.7104.623-1.2085Z" stroke-width="0"/><path d="m711.7676,25.729c0-.6348.2129-1.1572.6387-1.5674.4238-.4102,1.002-.6152,1.7344-.6152.7227,0,1.2988.2051,1.7285.6152s.6445.9326.6445,1.5674c0,.6445-.2168,1.1719-.6504,1.582-.4355.4102-1.0098.6152-1.7227.6152s-1.2871-.2051-1.7207-.6152c-.4355-.4102-.6523-.9375-.6523-1.582Zm4.498,19.9512h-4.248v-15.8496h4.248v15.8496Z" stroke-width="0"/><path d="m719.0918,37.6089c0-1.5723.3027-2.9736.9082-4.2041s1.4766-2.1826,2.6152-2.8564c1.1367-.6738,2.459-1.0107,3.9629-1.0107,2.1387,0,3.8828.6543,5.2363,1.9629,1.3516,1.3086,2.1074,3.0859,2.2637,5.332l.0293,1.084c0,2.4316-.6797,4.3823-2.0371,5.8521s-3.1777,2.2046-5.4629,2.2046-4.1094-.7324-5.4727-2.1973c-1.3613-1.4648-2.043-3.457-2.043-5.9766v-.1904Zm4.2344.3003c0,1.5063.2832,2.6582.8496,3.4551.5664.7974,1.377,1.1958,2.4316,1.1958,1.0254,0,1.8262-.3936,2.4023-1.1812.5762-.7871.8633-2.0464.8633-3.7773,0-1.4771-.2871-2.6216-.8633-3.4331s-1.3867-1.2178-2.4316-1.2178c-1.0352,0-1.8359.4033-2.4023,1.2104s-.8496,2.0562-.8496,3.748Z" stroke-width="0"/><path d="m740.6113,29.8306l.1309,1.8311c1.1328-1.416,2.6523-2.124,4.5566-2.124,1.6797,0,2.9297.4932,3.75,1.4795s1.2402,2.4609,1.2598,4.4238v10.2393h-4.2344v-10.1367c0-.8984-.1953-1.5503-.5859-1.9556s-1.0391-.6079-1.9473-.6079c-1.1914,0-2.0859.5078-2.6816,1.5234v11.1768h-4.2324v-15.8496h3.9844Z" stroke-width="0"/><path d="m760.957,25.729c0-.6348.2129-1.1572.6387-1.5674.4238-.4102,1.002-.6152,1.7344-.6152.7227,0,1.2988.2051,1.7285.6152s.6445.9326.6445,1.5674c0,.6445-.2168,1.1719-.6504,1.582-.4355.4102-1.0098.6152-1.7227.6152s-1.2871-.2051-1.7207-.6152c-.4355-.4102-.6523-.9375-.6523-1.582Zm4.498,19.9512h-4.248v-15.8496h4.248v15.8496Z" stroke-width="0"/><path d="m772.8379,29.8306l.1309,1.8311c1.1328-1.416,2.6523-2.124,4.5566-2.124,1.6797,0,2.9297.4932,3.75,1.4795s1.2402,2.4609,1.2598,4.4238v10.2393h-4.2344v-10.1367c0-.8984-.1953-1.5503-.5859-1.9556s-1.0391-.6079-1.9473-.6079c-1.1914,0-2.0859.5078-2.6816,1.5234v11.1768h-4.2324v-15.8496h3.9844Z" stroke-width="0"/><path d="m798.2812,25.9341v3.8965h2.7109v3.1055h-2.7109v7.9102c0,.5859.1133,1.0059.3379,1.2598s.6543.3809,1.2891.3809c.4688,0,.8828-.0342,1.2441-.1025v3.208c-.8301.2539-1.6836.3809-2.5625.3809-2.9688,0-4.4824-1.499-4.541-4.4971v-8.54h-2.3145v-3.1055h2.3145v-3.8965h4.2324Z" stroke-width="0"/><path d="m807.4805,31.5591c1.123-1.3477,2.5352-2.0215,4.2344-2.0215,3.4375,0,5.1797,1.9971,5.2285,5.9912v10.1514h-4.2324v-10.0342c0-.9082-.1953-1.5796-.5859-2.0142s-1.041-.6519-1.9492-.6519c-1.2402,0-2.1387.4785-2.6953,1.4355v11.2646h-4.2324v-22.5h4.2324v8.3789Z" stroke-width="0"/><path d="m827.4316,45.9731c-2.3242,0-4.2168-.7129-5.6758-2.1387-1.4609-1.4258-2.1895-3.3252-2.1895-5.6982v-.4102c0-1.5918.3066-3.0151.9219-4.27s1.4883-2.2217,2.6152-2.9004c1.1289-.6787,2.4141-1.0181,3.8594-1.0181,2.168,0,3.875.6836,5.1211,2.0508,1.2441,1.3672,1.8672,3.3057,1.8672,5.8154v1.7285h-10.0938c.1367,1.0352.5508,1.8652,1.2383,2.4902.6895.625,1.5605.9375,2.6152.9375,1.6309,0,2.9043-.5908,3.8223-1.7725l2.0801,2.3291c-.6348.8984-1.4941,1.5991-2.5781,2.1021s-2.2852.7544-3.6035.7544Zm-.4824-13.0225c-.8398,0-1.5215.2847-2.043.8535-.5234.5688-.8574,1.3833-1.0039,2.4424h5.8887v-.3384c-.0195-.9419-.2734-1.6699-.7617-2.1851s-1.1816-.7725-2.0801-.7725Z" stroke-width="0"/><path d="m853.0078,45.6802c-.1953-.3809-.3359-.8545-.4238-1.4209-1.0254,1.1426-2.3594,1.7139-4,1.7139-1.5527,0-2.8398-.4492-3.8594-1.3477-1.0215-.8984-1.5312-2.0312-1.5312-3.3984,0-1.6797.623-2.9688,1.8672-3.8672,1.2461-.8984,3.0449-1.3525,5.3984-1.3623h1.9492v-.9082c0-.7324-.1895-1.3184-.5645-1.7578-.377-.4395-.9688-.6592-1.7793-.6592-.7129,0-1.2734.1709-1.6777.5127-.4062.3418-.6074.8105-.6074,1.4062h-4.2344c0-.918.2832-1.7676.8496-2.5488s1.3672-1.394,2.4023-1.8384,2.1973-.6665,3.4863-.6665c1.9531,0,3.5039.4907,4.6504,1.4722,1.1484.9814,1.7227,2.3608,1.7227,4.1382v6.8701c.0098,1.5039.2188,2.6416.6289,3.4131v.249h-4.2773Zm-3.5-2.9443c.625,0,1.2012-.1392,1.7285-.4175s.918-.6519,1.1719-1.1206v-2.7246h-1.582c-2.1191,0-3.248.7324-3.3848,2.1973l-.0137.249c0,.5273.1855.9619.5566,1.3037s.8789.5127,1.5234.5127Z" stroke-width="0"/><path d="m859.8789,25.729c0-.6348.2109-1.1572.6367-1.5674.4238-.4102,1.0039-.6152,1.7363-.6152.7227,0,1.2988.2051,1.7285.6152s.6445.9326.6445,1.5674c0,.6445-.2188,1.1719-.6523,1.582-.4355.4102-1.0078.6152-1.7207.6152s-1.2871-.2051-1.7227-.6152c-.4336-.4102-.6504-.9375-.6504-1.582Zm4.4961,19.9512h-4.248v-15.8496h4.248v15.8496Z" stroke-width="0"/><path d="m876.7676,33.8003c-.5762-.0781-1.084-.1172-1.5234-.1172-1.6016,0-2.6504.542-3.1484,1.626v10.3711h-4.2344v-15.8496h4l.1172,1.8896c.8496-1.4551,2.0254-2.1826,3.5293-2.1826.4688,0,.9082.0635,1.3184.1904l-.0586,4.0723Z" stroke-width="0"/><line x1="344.1884" y1="125.1434" x2="525.5886" y2="123.8194" fill="none" stroke-width="0"/><line x1="528.6208" y1="113.5002" x2="487.6647" y2="113.5002" fill="none" stroke="#000" stroke-miterlimit="10" stroke-width="2"/><polygon points="489.9992 105.5221 476.1828 113.5002 489.9992 121.4784 489.9992 105.5221" stroke-width="0"/><line x1="611.3792" y1="113.5002" x2="652.335" y2="113.5002" fill="none" stroke="#000" stroke-miterlimit="10" stroke-width="2"/><polygon points="650.0011 121.4784 663.817 113.5002 650.0011 105.5221 650.0011 121.4784" stroke-width="0"/><use width="8" height="8" transform="translate(456.6671 191.687)" xlink:href="#a"/><use width="8" height="8" transform="translate(436.3594 170.6952)" xlink:href="#a"/><use width="8" height="8" transform="translate(446.9156 215.8827)" xlink:href="#a"/><use width="8" height="8" transform="translate(469.4236 147.0632)" xlink:href="#a"/><use width="8" height="8" transform="translate(452.6671 131.4626)" xlink:href="#a"/><use width="8" height="8" transform="translate(485.4236 166.6952)" xlink:href="#a"/><use width="8" height="8" transform="translate(465.4236 166.6952)" xlink:href="#a"/><use width="8" height="8" transform="translate(483.552 207.8827)" xlink:href="#a"/><use width="8" height="8" transform="translate(477.4236 187.687)" xlink:href="#a"/><use width="8" height="8" transform="translate(485.4236 127.4626)" xlink:href="#a"/><use width="8" height="8" transform="translate(493.401 296)" xlink:href="#a"/><use width="8" height="8" transform="translate(477.4236 282.2463)" xlink:href="#a"/><use width="8" height="8" transform="translate(494.4019 324.2981)" xlink:href="#a"/><use width="8" height="8" transform="translate(459.0891 230.4006)" xlink:href="#a"/><use width="8" height="8" transform="translate(465.4236 251.0637)" xlink:href="#a"/><use width="8" height="8" transform="translate(421.7509 203.8827)" xlink:href="#a"/><use width="8" height="8" transform="translate(421.7509 240.7554)" xlink:href="#a"/><use width="8" height="8" transform="translate(436.3594 255.0637)" xlink:href="#a"/><use width="8" height="8" transform="translate(452.6671 272.8337)" xlink:href="#a"/><use width="8" height="8" transform="translate(442.9156 320.2981)" xlink:href="#a"/><use width="8" height="8" transform="translate(465.4236 345.3222)" xlink:href="#a"/><use width="8" height="8" transform="translate(485.4236 375.1118)" xlink:href="#a"/><use width="8" height="8" transform="translate(444.6671 339.3238)" xlink:href="#a"/><use width="8" height="8" transform="translate(415.8339 335.3238)" xlink:href="#a"/><use width="8" height="8" transform="translate(459.0891 298.2463)" xlink:href="#a"/><use width="8" height="8" transform="translate(438.9156 286.2463)" xlink:href="#a"/><use width="8" height="8" transform="translate(432.3594 304)" xlink:href="#a"/><use width="8" height="8" transform="translate(413.7509 294.2463)" xlink:href="#a"/><use width="8" height="8" transform="translate(473.4236 314.4657)" xlink:href="#a"/><use width="8" height="8" transform="translate(459.0891 328.2981)" xlink:href="#a"/><use width="8" height="8" transform="translate(493.401 345.3222)" xlink:href="#a"/><use width="8" height="8" transform="translate(459.0891 397.9484)" xlink:href="#a"/><use width="8" height="8" transform="translate(442.9156 413.3626)" xlink:href="#a"/><use width="8" height="8" transform="translate(421.7509 391.7846)" xlink:href="#a"/><use width="8" height="8" transform="translate(434.9156 371.1118)" xlink:href="#a"/><use width="8" height="8" transform="translate(448.6671 363.1118)" xlink:href="#a"/><use width="8" height="8" transform="translate(498.4019 375.1118)" xlink:href="#a"/><use width="8" height="8" transform="translate(485.4236 389.9484)" xlink:href="#a"/><use width="8" height="8" transform="translate(479.552 417.3626)" xlink:href="#a"/><use width="8" height="8" transform="translate(491.552 415.7278)" xlink:href="#a"/><use width="8" height="8" transform="translate(475.552 448.7263)" xlink:href="#a"/><use width="8" height="8" transform="translate(479.552 472.5061)" xlink:href="#a"/><use width="8" height="8" transform="translate(465.4236 377.4005)" xlink:href="#a"/><use width="8" height="8" transform="translate(493.401 448.7263)" xlink:href="#a"/><use width="8" height="8" transform="translate(459.0891 436.5578)" xlink:href="#a"/><use width="8" height="8" transform="translate(423.8339 432.5578)" xlink:href="#a"/><use width="8" height="8" transform="translate(501.1666 488.029)" xlink:href="#a"/><use width="8" height="8" transform="translate(502.4019 508.7958)" xlink:href="#a"/><use width="8" height="8" transform="translate(459.0891 472.5061)" xlink:href="#a"/><use width="8" height="8" transform="translate(438.9156 448.7263)" xlink:href="#a"/><use width="8" height="8" transform="translate(448.6671 498.278)" xlink:href="#a"/><use width="8" height="8" transform="translate(469.4236 492.029)" xlink:href="#a"/><use width="8" height="8" transform="translate(493.401 468.5061)" xlink:href="#a"/><use width="8" height="8" transform="translate(483.552 255.0637)" xlink:href="#a"/><use width="8" height="8" transform="translate(483.552 230.4006)" xlink:href="#a"/><use width="8" height="8" transform="translate(692.0602 495.9997) rotate(179.5818)" xlink:href="#a"/><use width="8" height="8" transform="translate(662.0664 470.2363) rotate(179.5818)" xlink:href="#a"/><use width="8" height="8" transform="translate(635.6152 513.555) rotate(179.5818)" xlink:href="#a"/><use width="8" height="8" transform="translate(640.8706 486.8312) rotate(179.5818)" xlink:href="#a"/><use width="8" height="8" transform="translate(642.1321 415.8005) rotate(179.5818)" xlink:href="#a"/><use width="8" height="8" transform="translate(688.9073 460.697) rotate(179.5818)" xlink:href="#a"/><use width="8" height="8" transform="translate(683.6864 480.4768) rotate(179.5818)" xlink:href="#a"/><use width="8" height="8" transform="translate(670.1167 499.9997) rotate(179.5818)" xlink:href="#a"/><use width="8" height="8" transform="translate(702.9434 428.7282) rotate(179.5818)" xlink:href="#a"/><use width="8" height="8" transform="translate(641.6272 464.697) rotate(179.5818)" xlink:href="#a"/><use width="8" height="8" transform="translate(701.7377 379.0825) rotate(179.5818)" xlink:href="#a"/><use width="8" height="8" transform="translate(686.6757 371.0825) rotate(179.5818)" xlink:href="#a"/><use width="8" height="8" transform="translate(705.0017 397.919) rotate(179.5818)" xlink:href="#a"/><use width="8" height="8" transform="translate(669.4937 376.0364) rotate(179.5818)" xlink:href="#a"/><use width="8" height="8" transform="translate(679.6865 389.3712) rotate(179.5818)" xlink:href="#a"/><use width="8" height="8" transform="translate(659.91 397.919) rotate(179.5818)" xlink:href="#a"/><use width="8" height="8" transform="translate(646.9041 383.0825) rotate(179.5818)" xlink:href="#a"/><use width="8" height="8" transform="translate(646.7323 356.3561) rotate(179.5818)" xlink:href="#a"/><use width="8" height="8" transform="translate(711.5581 297.8593) rotate(179.5818)" xlink:href="#a"/><use width="8" height="8" transform="translate(653.4187 330.4364) rotate(179.5818)" xlink:href="#a"/><use width="8" height="8" transform="translate(645.6272 302.217) rotate(179.5818)" xlink:href="#a"/><use width="8" height="8" transform="translate(685.2164 342.4364) rotate(179.5818)" xlink:href="#a"/><use width="8" height="8" transform="translate(670.9444 312.4561) rotate(179.5818)" xlink:href="#a"/><use width="8" height="8" transform="translate(700.5583 312.2399) rotate(179.5818)" xlink:href="#a"/><use width="8" height="8" transform="translate(654.7582 273.5018) rotate(179.5818)" xlink:href="#a"/><use width="8" height="8" transform="translate(667.8462 251.8966) rotate(179.5818)" xlink:href="#a"/><use width="8" height="8" transform="translate(671.8463 284.8044) rotate(179.5818)" xlink:href="#a"/><use width="8" height="8" transform="translate(674.717 434.8622) rotate(179.5818)" xlink:href="#a"/><use width="8" height="8" transform="translate(661.3213 423.6985) rotate(179.5818)" xlink:href="#a"/><use width="8" height="8" transform="translate(684.3007 413.9191) rotate(179.5818)" xlink:href="#a"/><use width="8" height="8" transform="translate(656.5442 223.8534) rotate(179.5818)" xlink:href="#a"/><use width="8" height="8" transform="translate(656.847 207.6577) rotate(179.5818)" xlink:href="#a"/><use width="8" height="8" transform="translate(676.1903 199.6577) rotate(179.5818)" xlink:href="#a"/><use width="8" height="8" transform="translate(663.8462 159.0339) rotate(179.5818)" xlink:href="#a"/><use width="8" height="8" transform="translate(654.7582 178.6659) rotate(179.5818)" xlink:href="#a"/><use width="8" height="8" transform="translate(702.5339 182.6659) rotate(179.5818)" xlink:href="#a"/><use width="8" height="8" transform="translate(681.5483 138.0386) rotate(179.5818)" xlink:href="#a"/><use width="8" height="8" transform="translate(694.1805 254.7034) rotate(179.5818)" xlink:href="#a"/><use width="8" height="8" transform="translate(714.4866 244.7261) rotate(179.5818)" xlink:href="#a"/><use width="8" height="8" transform="translate(709.4661 271.0344) rotate(179.5818)" xlink:href="#a"/><use width="8" height="8" transform="translate(686.4598 277.5018) rotate(179.5818)" xlink:href="#a"/><use width="8" height="8" transform="translate(712.2481 219.8534) rotate(179.5818)" xlink:href="#a"/><use width="8" height="8" transform="translate(691.8178 167.0339) rotate(179.5818)" xlink:href="#a"/><use width="8" height="8" transform="translate(691.3713 223.8534) rotate(179.5818)" xlink:href="#a"/><use width="8" height="8" transform="translate(717.8093 351.1635) rotate(179.5818)" xlink:href="#a"/><use width="8" height="8" transform="translate(727.9387 328.2688) rotate(179.5818)" xlink:href="#a"/><use width="8" height="8" transform="translate(648.2657 446.8622) rotate(179.5818)" xlink:href="#a"/></svg>