<?xml version="1.0" encoding="UTF-8"?>
<svg id="Layer_2" data-name="Layer 2" xmlns="http://www.w3.org/2000/svg" width="1140" height="641" viewBox="0 0 1140 641">
  <defs>
    <style>
      .cls-1 {
        stroke-dasharray: 0 0 5.97 5.97;
      }

      .cls-1, .cls-2, .cls-3 {
        stroke-linecap: round;
      }

      .cls-1, .cls-2, .cls-3, .cls-4 {
        fill: none;
        stroke-miterlimit: 10;
        stroke-width: 2px;
      }

      .cls-1, .cls-3, .cls-4 {
        stroke: #000;
      }

      .cls-2 {
        stroke: #0089b1;
      }
    </style>
  </defs>
  <g>
    <line class="cls-3" x1="44" y1="337.5" x2="47" y2="337.5"/>
    <line class="cls-1" x1="52.97" y1="337.5" x2="1101.01" y2="337.5"/>
    <line class="cls-3" x1="1104" y1="337.5" x2="1107" y2="337.5"/>
  </g>
  <path class="cls-2" d="m62,201.27s12-70.77,48.1-70.79c69.9-.03,125.9,414.02,215.09,415.66,86.79,1.6,148.67-423.51,236.81-422.02,80.86,1.37,139.99,428.37,234.22,428.37,88.78,0,146.78-433,232.34-432,41.75.49,62.62,83.5,62.62,83.5"/>
  <g>
    <path d="m507.2,33.14c0-.77-.27-1.37-.82-1.78s-1.53-.85-2.95-1.31-2.55-.91-3.38-1.36c-2.26-1.22-3.39-2.87-3.39-4.94,0-1.08.3-2.04.91-2.88.61-.84,1.48-1.5,2.61-1.98s2.41-.71,3.82-.71,2.69.26,3.8.77c1.11.51,1.98,1.24,2.59,2.18s.92,2,.92,3.2h-4.1c0-.91-.29-1.62-.86-2.13s-1.38-.76-2.42-.76-1.78.21-2.34.64c-.56.42-.83.98-.83,1.67,0,.65.33,1.19.98,1.63.65.44,1.61.85,2.88,1.23,2.33.7,4.03,1.57,5.1,2.61s1.6,2.33,1.6,3.88c0,1.72-.65,3.07-1.96,4.05-1.3.98-3.06,1.47-5.26,1.47-1.53,0-2.93-.28-4.18-.84s-2.22-1.33-2.88-2.3c-.66-.98-.99-2.11-.99-3.39h4.12c0,2.2,1.31,3.29,3.94,3.29.98,0,1.74-.2,2.28-.59s.82-.95.82-1.66Z"/>
    <path d="m518.56,19.93v3.64h2.53v2.9h-2.53v7.38c0,.55.1.94.31,1.18.21.24.61.36,1.2.36.44,0,.82-.03,1.16-.1v2.99c-.77.24-1.57.36-2.39.36-2.77,0-4.18-1.4-4.24-4.2v-7.97h-2.16v-2.9h2.16v-3.64h3.95Z"/>
    <path d="m531.86,38.36c-.18-.36-.31-.8-.4-1.33-.96,1.07-2.2,1.6-3.73,1.6-1.45,0-2.65-.42-3.6-1.26-.95-.84-1.43-1.9-1.43-3.17,0-1.57.58-2.77,1.74-3.61s2.84-1.26,5.04-1.27h1.82v-.85c0-.68-.18-1.23-.53-1.64-.35-.41-.9-.62-1.66-.62-.67,0-1.19.16-1.57.48-.38.32-.57.76-.57,1.31h-3.95c0-.86.26-1.65.79-2.38.53-.73,1.28-1.3,2.24-1.72.97-.42,2.05-.62,3.25-.62,1.82,0,3.27.46,4.34,1.37,1.07.92,1.61,2.2,1.61,3.86v6.41c0,1.4.21,2.47.59,3.19v.23h-3.99Zm-3.27-2.75c.58,0,1.12-.13,1.61-.39s.86-.61,1.09-1.05v-2.54h-1.48c-1.98,0-3.03.68-3.16,2.05v.23c-.01.49.16.9.51,1.22.35.32.82.48,1.42.48Z"/>
    <path d="m541.94,23.57l.12,1.71c1.06-1.32,2.47-1.98,4.25-1.98,1.57,0,2.73.46,3.5,1.38s1.16,2.3,1.18,4.13v9.56h-3.95v-9.46c0-.84-.18-1.45-.55-1.83-.36-.38-.97-.57-1.82-.57-1.11,0-1.95.47-2.5,1.42v10.43h-3.95v-14.79h3.72Z"/>
    <path d="m553.37,30.86c0-2.31.52-4.14,1.55-5.51s2.45-2.05,4.25-2.05c1.44,0,2.63.54,3.57,1.61v-7.55h3.96v21h-3.57l-.19-1.57c-.98,1.23-2.25,1.85-3.8,1.85-1.74,0-3.14-.69-4.19-2.06s-1.58-3.28-1.58-5.72Zm3.95.29c0,1.39.24,2.45.72,3.19.48.74,1.18,1.11,2.11,1.11,1.22,0,2.08-.52,2.58-1.55v-5.85c-.49-1.03-1.34-1.55-2.56-1.55-1.91,0-2.86,1.55-2.86,4.64Z"/>
    <path d="m569.73,19.74c0-.59.2-1.08.59-1.46s.94-.57,1.62-.57,1.21.19,1.61.57.6.87.6,1.46-.2,1.09-.61,1.48-.94.57-1.61.57-1.2-.19-1.61-.57-.61-.88-.61-1.48Zm4.2,18.62h-3.96v-14.79h3.96v14.79Z"/>
    <path d="m580.82,23.57l.12,1.71c1.06-1.32,2.47-1.98,4.25-1.98,1.57,0,2.73.46,3.5,1.38s1.16,2.3,1.18,4.13v9.56h-3.95v-9.46c0-.84-.18-1.45-.55-1.83s-.97-.57-1.82-.57c-1.11,0-1.95.47-2.5,1.42v10.43h-3.95v-14.79h3.72Z"/>
    <path d="m592.29,30.86c0-2.27.54-4.1,1.62-5.48s2.54-2.08,4.37-2.08c1.62,0,2.88.56,3.79,1.67l.16-1.39h3.58v14.3c0,1.29-.29,2.42-.88,3.38s-1.42,1.69-2.48,2.19-2.32.75-3.75.75c-1.08,0-2.14-.22-3.17-.65s-1.81-.99-2.34-1.67l1.75-2.41c.98,1.1,2.18,1.65,3.58,1.65,1.05,0,1.86-.28,2.45-.84s.88-1.36.88-2.39v-.79c-.91,1.03-2.11,1.54-3.6,1.54-1.78,0-3.21-.7-4.31-2.08s-1.65-3.23-1.65-5.53v-.16Zm3.95.29c0,1.34.27,2.39.81,3.16.54.76,1.28,1.14,2.21,1.14,1.2,0,2.06-.45,2.58-1.36v-6.23c-.53-.9-1.38-1.36-2.56-1.36-.95,0-1.69.39-2.24,1.16-.54.78-.81,1.94-.81,3.48Z"/>
    <path d="m631.58,32.62l2.68-14.16h4.09l-4.42,19.91h-4.13l-3.24-13.32-3.24,13.32h-4.13l-4.42-19.91h4.09l2.69,14.14,3.28-14.14h3.47l3.27,14.16Z"/>
    <path d="m648.43,38.36c-.18-.36-.31-.8-.4-1.33-.96,1.07-2.2,1.6-3.73,1.6-1.45,0-2.65-.42-3.6-1.26s-1.43-1.9-1.43-3.17c0-1.57.58-2.77,1.74-3.61s2.84-1.26,5.04-1.27h1.82v-.85c0-.68-.18-1.23-.53-1.64s-.9-.62-1.66-.62c-.67,0-1.19.16-1.57.48s-.57.76-.57,1.31h-3.95c0-.86.26-1.65.79-2.38s1.28-1.3,2.24-1.72,2.05-.62,3.25-.62c1.82,0,3.27.46,4.34,1.37s1.61,2.2,1.61,3.86v6.41c0,1.4.21,2.47.59,3.19v.23h-3.99Zm-3.27-2.75c.58,0,1.12-.13,1.61-.39s.86-.61,1.09-1.05v-2.54h-1.48c-1.98,0-3.03.68-3.16,2.05v.23c-.01.49.16.9.51,1.22s.82.48,1.42.48Z"/>
    <path d="m660.2,33.54l2.75-9.97h4.13l-4.99,14.79h-3.77l-4.99-14.79h4.13l2.75,9.97Z"/>
    <path d="m675.62,38.64c-2.17,0-3.94-.67-5.3-2s-2.04-3.1-2.04-5.32v-.38c0-1.49.29-2.81.86-3.99s1.39-2.07,2.44-2.71,2.25-.95,3.6-.95c2.02,0,3.62.64,4.78,1.91s1.74,3.08,1.74,5.43v1.61h-9.42c.13.97.51,1.74,1.16,2.32s1.46.88,2.44.88c1.52,0,2.71-.55,3.57-1.65l1.94,2.17c-.59.84-1.39,1.49-2.41,1.96s-2.13.7-3.36.7Zm-.45-12.15c-.78,0-1.42.27-1.91.8s-.8,1.29-.94,2.28h5.5v-.32c-.02-.88-.25-1.56-.71-2.04s-1.1-.72-1.94-.72Z"/>
  </g>
  <path d="m440.62,398.36h-6.44l.17-.84c.73,0,1.29-.08,1.68-.24.39-.16.69-.48.9-.97.21-.49.4-1.19.59-2.13l2.6-12.63,1.96,1.99h-1.01l-2.18,10.64c-.19.93-.26,1.64-.22,2.11.04.48.23.8.57.97s.86.25,1.55.25l-.17.84Zm9.74.22h-.92l-8.46-15.43-.64-.5c-.28-.5-.53-.89-.76-1.16-.22-.27-.48-.45-.77-.55-.29-.09-.67-.14-1.13-.14l.17-.84h4.4l7.56,13.78h.14l1.93-9.32c.19-.95.27-1.69.25-2.21-.02-.52-.2-.89-.53-1.09-.34-.21-.9-.31-1.68-.31l.17-.84h6.61l-.17.84c-.69,0-1.25.13-1.67.38s-.75.65-.99,1.2-.46,1.27-.64,2.17l-2.86,14.03Z"/>
  <path d="m206.62,398.36h-6.44l.17-.84c.73,0,1.29-.08,1.68-.24.39-.16.69-.48.9-.97.21-.49.4-1.19.59-2.13l2.6-12.63,1.96,1.99h-1.01l-2.18,10.64c-.19.93-.26,1.64-.22,2.11.04.48.23.8.57.97s.86.25,1.55.25l-.17.84Zm9.74.22h-.92l-8.46-15.43-.64-.5c-.28-.5-.53-.89-.76-1.16-.22-.27-.48-.45-.77-.55-.29-.09-.67-.14-1.13-.14l.17-.84h4.4l7.56,13.78h.14l1.93-9.32c.19-.95.27-1.69.25-2.21-.02-.52-.2-.89-.53-1.09-.34-.21-.9-.31-1.68-.31l.17-.84h6.61l-.17.84c-.69,0-1.25.13-1.67.38s-.75.65-.99,1.2-.46,1.27-.64,2.17l-2.86,14.03Z"/>
  <path d="m670.62,398.36h-6.44l.17-.84c.73,0,1.29-.08,1.68-.24.39-.16.69-.48.9-.97.21-.49.4-1.19.59-2.13l2.6-12.63,1.96,1.99h-1.01l-2.18,10.64c-.19.93-.26,1.64-.22,2.11.04.48.23.8.57.97s.86.25,1.55.25l-.17.84Zm9.74.22h-.92l-8.46-15.43-.64-.5c-.28-.5-.53-.89-.76-1.16-.22-.27-.48-.45-.77-.55-.29-.09-.67-.14-1.13-.14l.17-.84h4.4l7.56,13.78h.14l1.93-9.32c.19-.95.27-1.69.25-2.21-.02-.52-.2-.89-.53-1.09-.34-.21-.9-.31-1.68-.31l.17-.84h6.61l-.17.84c-.69,0-1.25.13-1.67.38s-.75.65-.99,1.2-.46,1.27-.64,2.17l-2.86,14.03Z"/>
  <path d="m909.62,398.36h-6.44l.17-.84c.73,0,1.29-.08,1.68-.24.39-.16.69-.48.9-.97.21-.49.4-1.19.59-2.13l2.6-12.63,1.96,1.99h-1.01l-2.18,10.64c-.19.93-.26,1.64-.22,2.11.04.48.23.8.57.97s.86.25,1.55.25l-.17.84Zm9.74.22h-.92l-8.46-15.43-.64-.5c-.28-.5-.53-.89-.76-1.16-.22-.27-.48-.45-.77-.55-.29-.09-.67-.14-1.13-.14l.17-.84h4.4l7.56,13.78h.14l1.93-9.32c.19-.95.27-1.69.25-2.21-.02-.52-.2-.89-.53-1.09-.34-.21-.9-.31-1.68-.31l.17-.84h6.61l-.17.84c-.69,0-1.25.13-1.67.38s-.75.65-.99,1.2-.46,1.27-.64,2.17l-2.86,14.03Z"/>
  <g>
    <line class="cls-3" x1="445.23" y1="112.23" x2="676.18" y2="112.23"/>
    <line class="cls-3" x1="676.53" y1="132.23" x2="676.53" y2="92.23"/>
    <line class="cls-3" x1="444.44" y1="132.23" x2="444.44" y2="92.23"/>
  </g>
  <g>
    <path d="m538.74,84.06c0-1.77.24-3.46.71-5.09s1.18-3.1,2.12-4.43,1.91-2.27,2.92-2.81l.45,1.43c-1.14.88-2.08,2.21-2.81,4.01s-1.13,3.81-1.2,6.04v1c-.01,3.02.54,5.63,1.64,7.85.66,1.33,1.45,2.37,2.37,3.12l-.45,1.32c-1.04-.58-2.03-1.55-2.98-2.91-1.84-2.66-2.77-5.83-2.77-9.53Z"/>
    <path d="m590.09,84.18c0,1.74-.23,3.41-.69,5.01s-1.16,3.07-2.1,4.42-1.93,2.31-2.96,2.88l-.46-1.32c1.2-.92,2.17-2.35,2.9-4.29s1.1-4.1,1.12-6.46v-.38c0-1.64-.17-3.17-.52-4.58s-.82-2.67-1.44-3.79-1.3-1.99-2.07-2.61l.46-1.32c1.03.57,2.01,1.52,2.95,2.86s1.63,2.81,2.1,4.42.7,3.33.7,5.17Z"/>
  </g>
  <g>
    <path d="m216.69,603.29h-7.15l-1.61,4.46h-2.32l6.52-17.06h1.97l6.53,17.06h-2.31l-1.63-4.46Zm-6.47-1.84h5.8l-2.91-7.98-2.89,7.98Z"/>
    <path d="m224.63,595.08l.07,1.59c.97-1.22,2.23-1.83,3.8-1.83,2.68,0,4.03,1.51,4.05,4.54v8.38h-2.17v-8.39c0-.91-.22-1.59-.63-2.03s-1.05-.66-1.92-.66c-.7,0-1.32.19-1.85.56s-.95.87-1.24,1.48v9.04h-2.17v-12.68h2.05Z"/>
    <path d="m238.77,592.01v3.07h2.37v1.68h-2.37v7.87c0,.51.11.89.32,1.14.21.25.57.38,1.08.38.25,0,.59-.05,1.03-.14v1.75c-.57.15-1.12.23-1.66.23-.97,0-1.7-.29-2.19-.88s-.74-1.42-.74-2.5v-7.86h-2.31v-1.68h2.31v-3.07h2.17Z"/>
    <path d="m243.68,591.72c0-.35.11-.65.32-.89s.53-.36.96-.36.74.12.96.36.33.54.33.89-.11.64-.33.88-.54.35-.96.35-.74-.12-.96-.35-.32-.53-.32-.88Zm2.34,16.04h-2.17v-12.68h2.17v12.68Z"/>
    <path d="m251.54,595.08l.07,1.59c.97-1.22,2.23-1.83,3.8-1.83,2.68,0,4.03,1.51,4.05,4.54v8.38h-2.17v-8.39c0-.91-.22-1.59-.63-2.03s-1.05-.66-1.92-.66c-.7,0-1.32.19-1.85.56s-.95.87-1.24,1.48v9.04h-2.17v-12.68h2.05Z"/>
    <path d="m262.16,601.3c0-1.24.24-2.36.73-3.35s1.17-1.76,2.04-2.3,1.87-.81,2.98-.81c1.73,0,3.12.6,4.19,1.79s1.6,2.79,1.6,4.77v.15c0,1.23-.24,2.34-.71,3.32s-1.15,1.74-2.03,2.29-1.89.82-3.03.82c-1.72,0-3.11-.6-4.18-1.79s-1.6-2.78-1.6-4.75v-.15Zm2.18.26c0,1.41.33,2.54.98,3.39s1.53,1.28,2.62,1.28,1.98-.43,2.62-1.29.97-2.07.97-3.63c0-1.39-.33-2.52-.99-3.38s-1.54-1.29-2.63-1.29-1.93.43-2.59,1.28-.98,2.07-.98,3.66Z"/>
    <path d="m275.89,601.31c0-1.95.46-3.51,1.38-4.69s2.13-1.78,3.62-1.78,2.66.51,3.53,1.52v-6.61h2.17v18h-1.99l-.11-1.36c-.87,1.06-2.07,1.59-3.62,1.59s-2.67-.6-3.59-1.8-1.39-2.77-1.39-4.71v-.16Zm2.17.25c0,1.44.3,2.56.89,3.38s1.41,1.22,2.46,1.22c1.38,0,2.38-.62,3.01-1.85v-5.82c-.65-1.2-1.64-1.79-2.99-1.79-1.06,0-1.89.41-2.48,1.23s-.89,2.04-.89,3.64Z"/>
    <path d="m295.22,607.99c-1.72,0-3.12-.56-4.2-1.69s-1.62-2.64-1.62-4.53v-.4c0-1.26.24-2.38.72-3.37s1.15-1.76,2.02-2.32,1.8-.84,2.81-.84c1.65,0,2.93.54,3.84,1.63s1.37,2.64,1.37,4.66v.9h-8.59c.03,1.25.4,2.26,1.1,3.03s1.59,1.15,2.67,1.15c.77,0,1.41-.16,1.95-.47s1-.73,1.39-1.24l1.32,1.03c-1.06,1.63-2.66,2.45-4.78,2.45Zm-.27-11.37c-.88,0-1.61.32-2.2.96s-.96,1.53-1.1,2.68h6.35v-.16c-.06-1.1-.36-1.96-.89-2.56s-1.25-.91-2.16-.91Z"/>
    <path d="m310.05,604.4c0-.59-.22-1.04-.66-1.37s-1.21-.6-2.31-.84-1.97-.52-2.61-.84-1.12-.72-1.43-1.17-.46-.99-.46-1.62c0-1.04.44-1.92,1.32-2.64s2-1.08,3.37-1.08c1.44,0,2.6.37,3.5,1.11s1.34,1.69,1.34,2.85h-2.18c0-.59-.25-1.11-.76-1.54s-1.14-.64-1.9-.64-1.41.17-1.85.52-.67.79-.67,1.35c0,.52.21.92.62,1.18s1.16.52,2.24.76,1.96.53,2.63.87,1.17.74,1.49,1.21.49,1.05.49,1.73c0,1.13-.45,2.04-1.36,2.72s-2.08,1.03-3.53,1.03c-1.02,0-1.91-.18-2.7-.54s-1.39-.86-1.83-1.51-.66-1.34-.66-2.09h2.17c.04.73.33,1.3.87,1.73s1.26.64,2.15.64c.82,0,1.48-.17,1.97-.5s.74-.78.74-1.33Z"/>
  </g>
  <g>
    <path d="m771.53,106.92h8.09v1.84h-10.35v-17.06h2.26v15.22Z"/>
    <path d="m781.27,102.3c0-1.24.24-2.36.73-3.35s1.17-1.76,2.04-2.3,1.87-.81,2.98-.81c1.73,0,3.12.6,4.19,1.79s1.6,2.79,1.6,4.77v.15c0,1.23-.24,2.34-.71,3.32s-1.15,1.74-2.03,2.29-1.89.82-3.03.82c-1.72,0-3.11-.6-4.18-1.79s-1.6-2.78-1.6-4.75v-.15Zm2.18.26c0,1.41.33,2.54.98,3.39s1.53,1.28,2.62,1.28,1.98-.43,2.62-1.29.97-2.07.97-3.63c0-1.39-.33-2.52-.99-3.38s-1.54-1.29-2.63-1.29-1.93.43-2.59,1.28-.98,2.07-.98,3.66Z"/>
    <path d="m794.95,102.3c0-1.24.24-2.36.73-3.35s1.17-1.76,2.04-2.3,1.87-.81,2.98-.81c1.73,0,3.12.6,4.19,1.79s1.6,2.79,1.6,4.77v.15c0,1.23-.24,2.34-.71,3.32s-1.15,1.74-2.03,2.29-1.89.82-3.03.82c-1.72,0-3.11-.6-4.18-1.79s-1.6-2.78-1.6-4.75v-.15Zm2.18.26c0,1.41.33,2.54.98,3.39s1.53,1.28,2.62,1.28,1.98-.43,2.62-1.29.97-2.07.97-3.63c0-1.39-.33-2.52-.99-3.38s-1.54-1.29-2.63-1.29-1.93.43-2.59,1.28-.98,2.07-.98,3.66Z"/>
    <path d="m819.93,102.56c0,1.93-.44,3.48-1.32,4.66s-2.08,1.77-3.59,1.77-2.75-.49-3.63-1.46v6.11h-2.17v-17.55h1.98l.11,1.41c.88-1.09,2.11-1.64,3.68-1.64s2.73.57,3.62,1.72,1.33,2.75,1.33,4.79v.2Zm-2.17-.25c0-1.43-.3-2.56-.91-3.39s-1.45-1.24-2.51-1.24c-1.31,0-2.3.58-2.95,1.75v6.06c.65,1.16,1.64,1.73,2.98,1.73,1.04,0,1.87-.41,2.48-1.24s.92-2.05.92-3.67Z"/>
  </g>
  <g>
    <path d="m769.62,608.36h-6.44l.17-.84c.73,0,1.29-.08,1.68-.24.39-.16.69-.48.9-.97.21-.49.4-1.19.59-2.13l2.6-12.63,1.96,1.99h-1.01l-2.18,10.64c-.19.93-.26,1.64-.22,2.11.04.48.23.8.57.97s.86.25,1.55.25l-.17.84Zm9.74.22h-.92l-8.46-15.43-.64-.5c-.28-.5-.53-.89-.76-1.16-.22-.27-.48-.45-.77-.55-.29-.09-.67-.14-1.13-.14l.17-.84h4.4l7.56,13.78h.14l1.93-9.32c.19-.95.27-1.69.25-2.21-.02-.52-.2-.89-.53-1.09-.34-.21-.9-.31-1.68-.31l.17-.84h6.61l-.17.84c-.69,0-1.25.13-1.67.38s-.75.65-.99,1.2-.46,1.27-.64,2.17l-2.86,14.03Z"/>
    <g>
      <path d="m801.84,597.22h-9.77v-1.89h9.77v1.89Zm0,4.86h-9.77v-1.88h9.77v1.88Z"/>
      <path d="m813.09,594.08l.07,1.59c.97-1.22,2.23-1.83,3.8-1.83,2.68,0,4.03,1.51,4.05,4.54v8.38h-2.17v-8.39c0-.91-.22-1.59-.63-2.03s-1.05-.66-1.92-.66c-.7,0-1.32.19-1.85.56s-.95.87-1.24,1.48v9.04h-2.17v-12.68h2.05Z"/>
      <path d="m823.71,600.3c0-1.24.24-2.36.73-3.35s1.17-1.76,2.04-2.3,1.87-.81,2.98-.81c1.73,0,3.12.6,4.19,1.79s1.6,2.79,1.6,4.77v.15c0,1.23-.24,2.34-.71,3.32s-1.15,1.74-2.03,2.29-1.89.82-3.03.82c-1.72,0-3.11-.6-4.18-1.79s-1.6-2.78-1.6-4.75v-.15Zm2.18.26c0,1.41.33,2.54.98,3.39s1.53,1.28,2.62,1.28,1.98-.43,2.62-1.29.97-2.07.97-3.63c0-1.39-.33-2.52-.99-3.38s-1.54-1.29-2.63-1.29-1.93.43-2.59,1.28-.98,2.07-.98,3.66Z"/>
      <path d="m837.44,600.31c0-1.95.46-3.51,1.38-4.69s2.13-1.78,3.62-1.78,2.66.51,3.53,1.52v-6.61h2.17v18h-1.99l-.11-1.36c-.87,1.06-2.07,1.59-3.62,1.59s-2.67-.6-3.59-1.8-1.39-2.77-1.39-4.71v-.16Zm2.17.25c0,1.44.3,2.56.89,3.38s1.41,1.22,2.46,1.22c1.38,0,2.38-.62,3.01-1.85v-5.82c-.65-1.2-1.64-1.79-2.99-1.79-1.06,0-1.89.41-2.48,1.23s-.89,2.04-.89,3.64Z"/>
      <path d="m856.77,606.99c-1.72,0-3.12-.56-4.2-1.69s-1.62-2.64-1.62-4.53v-.4c0-1.26.24-2.38.72-3.37s1.15-1.76,2.02-2.32,1.8-.84,2.81-.84c1.65,0,2.93.54,3.84,1.63s1.37,2.64,1.37,4.66v.9h-8.59c.03,1.25.4,2.26,1.1,3.03s1.59,1.15,2.67,1.15c.77,0,1.41-.16,1.95-.47s1-.73,1.39-1.24l1.32,1.03c-1.06,1.63-2.66,2.45-4.78,2.45Zm-.27-11.37c-.88,0-1.61.32-2.2.96s-.96,1.53-1.1,2.68h6.35v-.16c-.06-1.1-.36-1.96-.89-2.56s-1.25-.91-2.16-.91Z"/>
    </g>
  </g>
  <g>
    <line class="cls-4" x1="294.95" y1="554.02" x2="266" y2="583.5"/>
    <polygon points="287.63 550.1 303 545.83 299.01 561.28 287.63 550.1"/>
  </g>
  <g>
    <line class="cls-4" x1="324.5" y1="145.22" x2="267" y2="582.5"/>
    <polygon points="316.29 146.49 326 133.83 332.11 148.57 316.29 146.49"/>
  </g>
  <path class="cls-2" d="m62,471.73s12,70.77,48.1,70.79c69.9.03,125.9-414.02,215.09-415.66,86.79-1.6,148.67,423.51,236.81,422.02,80.86-1.37,139.99-428.37,234.22-428.37,88.78,0,146.78,433,232.34,432,41.75-.49,62.62-83.5,62.62-83.5"/>
  <g>
    <path d="m570.94,106.68h-11.18v-1.56l5.91-6.56c.88-.99,1.48-1.8,1.81-2.42s.5-1.26.5-1.93c0-.89-.27-1.62-.81-2.19s-1.26-.86-2.16-.86c-1.08,0-1.92.31-2.51.92s-.9,1.47-.9,2.56h-2.17c0-1.57.51-2.84,1.52-3.81s2.37-1.45,4.06-1.45c1.59,0,2.84.42,3.76,1.25s1.38,1.94,1.38,3.32c0,1.68-1.07,3.68-3.21,6l-4.57,4.96h8.57v1.77Z"/>
    <path d="m560.82,75.55h-2.4v-.38c.85-1.15,1.75-2.38,2.71-3.67.96-1.3,1.92-2.59,2.88-3.88.96-1.29,1.86-2.49,2.69-3.61l.14,2.57h-.53c-.14.21-.38.57-.72,1.09s-.72,1.13-1.14,1.82c-.42.7-.86,1.42-1.32,2.17-.46.75-.89,1.47-1.3,2.15-.41.68-.75,1.26-1.02,1.74Zm6.94.29c-.66,0-1.12-.26-1.4-.79-.28-.53-.42-1.25-.42-2.16,0-.66.03-1.28.08-1.87.06-.59.12-1.24.2-1.94.08-.7.15-1.54.2-2.5.06-.96.08-2.14.08-3.55,0-.8-.12-1.42-.36-1.87-.24-.45-.62-.67-1.13-.67-.4,0-.75.06-1.04.19-.3.13-.6.34-.92.62l-.5-.36c.25-.45.54-.84.86-1.19.32-.34.68-.62,1.09-.82.41-.2.86-.3,1.36-.3.58,0,.99.16,1.25.49.26.33.41.76.47,1.28s.08,1.11.08,1.75c0,.98-.02,1.93-.07,2.86-.05.93-.1,1.84-.16,2.74-.06.9-.08,1.78-.08,2.66,0,1.01.11,1.84.32,2.51.22.66.58,1,1.09,1,.32,0,.62-.06.89-.18.27-.12.56-.34.86-.66l.41.38c-.24.45-.53.85-.88,1.21-.34.36-.71.64-1.1.85-.39.21-.79.31-1.19.31Z"/>
    <path d="m581.46,84.31h-32.9l.42-2h32.9l-.42,2Z"/>
  </g>
</svg>