<?xml version="1.0" encoding="UTF-8"?>
<svg id="Layer_4" data-name="Layer 4" xmlns="http://www.w3.org/2000/svg" width="570" height="320" viewBox="0 0 570 320">
  <defs>
    <style>
      .cls-1 {
        stroke: #0077a2;
      }

      .cls-1, .cls-2, .cls-3 {
        fill: none;
        stroke-linecap: round;
        stroke-miterlimit: 10;
        stroke-width: 2px;
      }

      .cls-2, .cls-3 {
        stroke: #000;
      }

      .cls-3 {
        stroke-dasharray: 0 6;
      }
    </style>
  </defs>
  <line class="cls-3" x1="562.05" y1="164.15" x2="13.57" y2="164.15"/>
  <line class="cls-3" x1="197.4" y1="50.51" x2="197.4" y2="240.25"/>
  <line class="cls-3" x1="14.67" y1="50.51" x2="14.67" y2="239.65"/>
  <line class="cls-3" x1="562.85" y1="50.51" x2="562.85" y2="239.65"/>
  <line class="cls-3" x1="380.13" y1="50.51" x2="380.13" y2="240.25"/>
  <g>
    <g>
      <line class="cls-1" x1="14.92" y1="38.75" x2="562.41" y2="38.75"/>
      <line class="cls-1" x1="562.81" y1="58.75" x2="562.81" y2="18.75"/>
      <line class="cls-1" x1="14.64" y1="58.75" x2="14.64" y2="18.75"/>
    </g>
    <path d="m291.73,24.66h8.09v1.84h-10.35V9.44h2.26v15.22Z"/>
  </g>
  <g>
    <line class="cls-1" x1="15.47" y1="261.66" x2="561.47" y2="261.66"/>
    <line class="cls-1" x1="562.81" y1="281.66" x2="562.81" y2="241.66"/>
    <line class="cls-1" x1="14.68" y1="281.66" x2="14.68" y2="241.66"/>
  </g>
  <path class="cls-2" d="m15.02,164.22s43.29-65.65,88.95-65.65c85.77,0,104.7,134.92,185.78,134.92,59.68,0,119.34-134.92,184.54-134.92,53.66,0,88.43,65.58,88.43,65.58"/>
  <path class="cls-2" d="m15.02,165.83s43.29,65.65,88.95,65.65c83.93,0,105.99-134.92,185.78-134.92,56.43,0,119.34,134.92,184.54,134.92,53.66,0,88.43-65.58,88.43-65.58"/>
  <g>
    <path d="m302.95,316.28h-11.18v-1.56l5.91-6.56c.88-.99,1.48-1.8,1.81-2.42s.5-1.26.5-1.93c0-.89-.27-1.62-.81-2.19s-1.26-.86-2.16-.86c-1.08,0-1.92.31-2.51.92s-.9,1.47-.9,2.56h-2.17c0-1.57.51-2.84,1.52-3.81s2.37-1.45,4.06-1.45c1.59,0,2.84.42,3.76,1.25s1.38,1.94,1.38,3.32c0,1.68-1.07,3.68-3.21,6l-4.57,4.96h8.57v1.77Z"/>
    <g>
      <path d="m288.91,276.65h1.63c1.02-.02,1.83-.29,2.41-.81s.88-1.23.88-2.12c0-2-1-3-2.99-3-.94,0-1.69.27-2.24.8s-.84,1.24-.84,2.13h-2.17c0-1.35.49-2.47,1.48-3.37s2.24-1.34,3.77-1.34c1.61,0,2.87.43,3.79,1.28s1.37,2.04,1.37,3.55c0,.74-.24,1.46-.72,2.16s-1.13,1.21-1.96,1.56c.94.3,1.66.79,2.17,1.48s.77,1.53.77,2.52c0,1.53-.5,2.75-1.5,3.64s-2.3,1.35-3.9,1.35-2.9-.43-3.91-1.3-1.51-2.01-1.51-3.43h2.18c0,.9.29,1.62.88,2.16s1.37.81,2.36.81c1.05,0,1.85-.27,2.4-.82s.83-1.33.83-2.36-.3-1.75-.91-2.29-1.49-.8-2.64-.82h-1.63v-1.77Z"/>
      <path d="m299.56,286.23h-2.4v-.38c.85-1.15,1.75-2.38,2.71-3.67.96-1.3,1.92-2.59,2.88-3.88.96-1.29,1.86-2.49,2.69-3.61l.14,2.57h-.53c-.14.21-.38.57-.72,1.09-.34.52-.72,1.13-1.14,1.82s-.86,1.42-1.32,2.17c-.46.75-.89,1.47-1.3,2.15-.41.68-.75,1.26-1.02,1.74Zm6.94.29c-.66,0-1.12-.26-1.4-.79-.28-.53-.42-1.25-.42-2.16,0-.66.03-1.28.08-1.87.06-.59.12-1.24.2-1.94.08-.7.15-1.54.2-2.5.06-.96.08-2.14.08-3.55,0-.8-.12-1.42-.36-1.87s-.62-.67-1.13-.67c-.4,0-.75.06-1.04.19-.3.13-.6.34-.92.62l-.5-.36c.25-.45.54-.84.86-1.19.32-.34.68-.62,1.09-.82.41-.2.86-.3,1.36-.3.58,0,.99.16,1.25.49s.41.76.47,1.28.08,1.11.08,1.75c0,.98-.02,1.93-.07,2.86-.05.93-.1,1.84-.16,2.74-.06.9-.08,1.78-.08,2.66,0,1.01.11,1.84.32,2.51.22.66.58,1,1.09,1,.32,0,.62-.06.89-.18.27-.12.56-.34.86-.66l.41.38c-.24.45-.53.85-.88,1.21-.34.36-.71.64-1.1.85-.39.21-.79.31-1.19.31Z"/>
    </g>
    <path d="m313.47,293.91h-32.9l.42-2h32.9l-.42,2Z"/>
  </g>
</svg>