<?xml version="1.0" encoding="UTF-8"?>
<svg id="a" data-name="Layer 1" xmlns="http://www.w3.org/2000/svg" width="1140" height="580.886" xmlns:xlink="http://www.w3.org/1999/xlink" viewBox="0 0 1140 580.886">
  <defs>
    <clipPath id="b">
      <path d="m126.309,14.236c-46.129,3.811-100.991,15.065-117.483,57.472-13.695,35.216,6.933,73.368,12.229,110.698,4.332,30.537-1.852,61.645-11.294,91.054-4.529,14.106-9.884,28.682-7.624,43.303,2.562,16.575,14.378,30.071,22.42,44.866,11.57,21.287,15.449,46.496,10.8,70.182-6.734,34.307-29.63,72.592-8.287,100.569,8.287,10.862,21.587,16.79,34.632,21.31,66.293,22.974,138.513,20.547,208.801,18.716,241.372-6.288,474.291-12.391,715.306,1.926,39.963,2.374,114.34,8.215,139.785-30.839,9.968-15.3,6.991-35.386,1.213-52.635-12.561-37.496-28.198-63.412-23.671-102.628,5.158-44.681,47.33-87.054,29.492-128.48-6.886-15.991-21.848-27.737-28.15-43.958-16.231-41.775,31.398-87.237,18.124-130.004-16.922-54.522-85.318-71.222-136.823-76.944-72.941-8.103-148.095,2.332-221.269,3.326-96.729,1.314-193.491.317-290.171-2.988-47.908-1.638-95.658-4.548-143.519-4.239-68.257.574-136.493,3.671-204.511,9.29Z" fill="none"/>
    </clipPath>
  </defs>
  <g clip-path="url(#b)">
    <g>
      <rect x="-19.733" y=".739" width="1167.734" height="152.183" fill="#e3f0f7"/>
      <g>
        <path d="m484.644,37.719v80.448" fill="none" stroke="#4f3037" stroke-miterlimit="10" stroke-width="2"/>
        <line x1="484.45" y1="94.731" x2="447.006" y2="68.041" fill="none" stroke="#4f3037" stroke-miterlimit="10" stroke-width="2"/>
        <polyline points="447.533 68.351 483.877 68.603 461.965 78.522 483.514 81.805 476.947 119.362" fill="none" stroke="#4f3037" stroke-linejoin="round"/>
        <path d="m484.637,69.945l-1.414.835c-.721.426-1.587.053-1.934-.835h0c-.347-.887-.043-1.952.679-2.378l1.414-.835c.721-.426,1.587-.053,1.934.835h0c.347.887.043,1.952-.679,2.378Z" fill="#4f3037"/>
        <rect x="482.324" y="64.616" width="4.614" height="2.486" fill="#4f3037"/>
        <line x1="484.882" y1="47.139" x2="643.838" y2="47.276" fill="none" stroke="#4f3037" stroke-miterlimit="10"/>
        <path d="m452.839,72.083l-6.027.227s2.322,4.567,12.616,9.268" fill="none" stroke="#4f3037" stroke-linejoin="round" stroke-width="2"/>
        <rect x="451.55" y="81.6" width="12.511" height="3.024" rx="1.213" ry="1.213" transform="translate(102.89 -217.768) rotate(30)" fill="#4f3037"/>
        <rect x="453.483" y="78.422" width="12.511" height="3.024" rx="1.213" ry="1.213" transform="translate(101.56 -219.16) rotate(30)" fill="#4f3037"/>
        <polyline points="692.052 103.105 644.682 64.853 667.498 106.099" fill="none" stroke="#4f3037" stroke-miterlimit="10"/>
        <path d="m644.01,40.578v65.427" fill="none" stroke="#4f3037" stroke-miterlimit="10" stroke-width="2"/>
        <line x1="643.817" y1="86.945" x2="606.373" y2="65.238" fill="none" stroke="#4f3037" stroke-miterlimit="10" stroke-width="2"/>
        <circle cx="606.967" cy="65.709" r="1.6" fill="#4f3037"/>
        <polyline points="606.79 97.524 606.9 65.49 642.095 65.696 642.268 108.244" fill="none" stroke="#4f3037" stroke-miterlimit="10"/>
        <rect x="638.523" y="86.026" width="4.546" height="2.898" rx="1.449" ry="1.449" transform="translate(25.32 286.122) rotate(-25.661)" fill="#4f3037"/>
        <rect x="640.436" y="64.371" width="4.467" height="2.898" rx="1.449" ry="1.449" transform="translate(34.882 284.798) rotate(-25.661)" fill="#4f3037"/>
        <rect x="641.69" y="62.453" width="4.614" height="2.022" fill="#4f3037"/>
        <polyline points="606.83 66.736 640.1 88.034 640.143 107.883" fill="none" stroke="#4f3037" stroke-miterlimit="10"/>
        <rect x="613.712" y="99.775" width="19.859" height="15.973" fill="#b0b0b0"/>
        <path d="m633.588,109.798l44.528-.44v-12.621h-26.184c-2.822,0-5.488,1.027-7.526,2.935l-10.818,10.126Zm18.344-11.593h4.233v9.979h-18.815l8.153-7.631c1.098-1.027,2.352-1.614,3.763-2.055v9.099h1.568v-9.539c.314.147.784.147,1.098.147Zm24.616,9.686l-18.815.147v-9.979h5.331v7.631h1.568v-7.631h5.331v9.539h1.568v-9.539h5.174l-.157,9.832h0Z" fill="#70838a"/>
        <path d="m477.729,115.393c-2.038-2.038-4.704-3.136-7.526-3.136h-26.027l.204,7.615,44.325,6.34-10.975-10.818Zm-6.428-1.411v10.191h1.568v-9.721c1.411.47,2.665,1.098,3.763,2.195l8.153,8.153-18.658-.157v-10.662h4.233c.314-.157.627-.157.941,0Zm-25.557-.157h5.174v10.191h1.568v-10.191h5.331v8.153h1.568v-8.153h5.331v10.662l-18.815-.157v-10.505h-.157Z" fill="#70838a"/>
        <path d="m513.61,60.443c0-1.725,1.411-3.136,3.136-3.136s3.136,1.411,3.136,3.136h-2.352v57.855h-1.568v-57.855h-2.352Z" fill="#4f3037"/>
        <rect x="487.112" y="94.937" width="59.266" height="37.159" fill="#b0b0b0"/>
        <polygon points="674.549 133.407 661.692 149.556 637.012 152.792 649.712 136.643 674.549 133.407" fill="#1c1c1c"/>
        <path d="m676.21,103.404h0s-17.404.157-34.964,0c-5.644,0-9.878.157-11.759.47-15.522,2.195-22.734,13.484-38.413,13.484h-148.323l6.68,20.052,140.702-.767h59.58l24.836-3.236,22.701-31.319-21.04,1.316Z" fill="#416675"/>
        <polygon points="590.132 136.643 613.024 136.643 649.712 136.643 637.012 152.792 592.17 152.792 569.279 152.792 454.311 152.792 449.43 137.41 590.132 136.643" fill="#1c1c1c"/>
        <polygon points="500.596 77.063 532.738 77.063 532.738 80.199 530.229 80.199 530.229 96.191 503.105 96.191 503.105 80.199 500.596 80.199 500.596 77.063" fill="#b0b0b0"/>
        <rect x="519.254" y="83.648" width="7.369" height="8.153" fill="#4f3037"/>
        <rect x="506.711" y="83.648" width="7.369" height="8.153" fill="#4f3037"/>
        <rect x="533.208" y="102.62" width="7.369" height="8.153" fill="#4f3037"/>
        <rect x="519.254" y="102.62" width="7.369" height="8.153" fill="#4f3037"/>
        <rect x="506.711" y="102.62" width="7.369" height="14.738" fill="#4f3037"/>
        <rect x="493.227" y="102.62" width="7.369" height="8.153" fill="#4f3037"/>
        <rect x="643.754" y="115.32" width="8.78" height="2.979" fill="#4f3037"/>
        <rect x="628.702" y="115.32" width="8.78" height="2.979" fill="#4f3037"/>
        <path d="m606.79,97.524l.029,1.65s1.167.349,1.094,1.442-1.609,1.993-2.707.303" fill="none" stroke="#4f3037" stroke-miterlimit="10"/>
        <ellipse cx="606.886" cy="97.711" rx="1.26" ry=".904" fill="#4f3037"/>
      </g>
      <rect x="-13.339" y="148.082" width="1162.529" height="579.267" fill="#bddbff"/>
      <path d="m-16.119,515.346c58.009-9.059,117.415-18.134,175.511-9.515,27.044,4.012,55.771,11.669,80.938,2.126,8.689-3.295,16.429-8.523,25.546-10.765,7.15-1.758,14.705-1.567,22.131-1.652,40.265-.46,80.364-9.593,115.77-26.367,5.666-2.684,12.943-5.501,18.052-2.067,3.129,2.103,4.074,5.809,6.171,8.733,8.433,11.765,28.604,6.57,44.254,4.224,20.468-3.069,41.498,1.529,60.745,8.348,27.238,9.65,54,24.084,83.346,22.713,26.239-1.226,50.407-15.161,76.678-14.706,34.935.605,67.705,23.358,101.414,15.313,37.162-8.869,41.997,10.732,62.159,12.181,13.75.988,47.212,17.049,60.738,19.43,20.731,3.649,39.349-11.626,60.131-15.045,20.116-3.309,40.079,4.715,59.189,11.131,40.878,13.724,65.171-46.866,96.99-20.561,4.113,3.4-7.96,87.864-7.96,87.864l-1161.039-24.635,19.236-66.748Z" fill="#6d7e79"/>
      <line x1="303.521" y1="393.55" x2="567.925" y2="148.17" fill="none" stroke="#0c3fab" stroke-dasharray="0 0 12 8" stroke-miterlimit="10" stroke-width="2"/>
      <path d="m567.925,148.17h38.214c0,6.955-5.647,12.602-12.602,12.602h-13.009c-6.955,0-12.602-5.647-12.602-12.602h0Z" fill="#be042f"/>
      <line x1="587.032" y1="507.705" x2="567.925" y2="148.17" fill="none" stroke="#0c3fab" stroke-dasharray="0 0 12 8" stroke-miterlimit="10" stroke-width="2"/>
      <g>
        <line x1="587.032" y1="507.705" x2="587.138" y2="505.708" fill="none" stroke="#870f00" stroke-miterlimit="10" stroke-width="2"/>
        <line x1="587.351" y1="501.713" x2="605.927" y2="152.165" fill="none" stroke="#870f00" stroke-dasharray="0 0 4 4" stroke-miterlimit="10" stroke-width="2"/>
        <line x1="606.033" y1="150.168" x2="606.139" y2="148.17" fill="none" stroke="#870f00" stroke-miterlimit="10" stroke-width="2"/>
      </g>
      <g>
        <path d="m273.673,392.644c6.061-5.212,10.135-8.412,18.925-8.065,8.79.347,24.55,3.188,29.869,8.85-4.674,6.972-18.477,9.953-28.205,9.394-9.727-.559-17.291-2.749-20.59-10.179Z" fill="#3a496b"/>
        <path d="m317.565,393.911c3.394-4.13,8.358-7.403,14.033-9.251.487,4.231-3.566,8.504-8.74,9.215,4.749,1.43,8.606,4.665,10.209,8.564-6.078-.655-11.605-3.949-14.182-8.454" fill="#3a496b"/>
      </g>
      <g>
        <line x1="497.563" y1="214.361" x2="498.874" y2="213.093" fill="none" stroke="#0c3fab" stroke-miterlimit="10" stroke-width="2"/>
        <polygon points="502.74 220.452 507.13 205.113 491.651 208.979 502.74 220.452" fill="#0c3fab"/>
      </g>
      <polygon points="581.035 244.517 572.335 231.144 565.101 245.364 581.035 244.517" fill="#0c3fab"/>
      <line x1="303.521" y1="393.55" x2="606.139" y2="148.17" fill="none" stroke="#870f00" stroke-dasharray="0 0 4 4" stroke-miterlimit="10" stroke-width="2"/>
      <polygon points="499.097 224.038 494.257 239.24 509.843 235.833 499.097 224.038" fill="#870f00"/>
      <polygon points="592.093 263.657 599.326 277.877 608.027 264.504 592.093 263.657" fill="#870f00"/>
      <g>
        <path d="m523.271,537.706c0,1.672-.281,3.131-.844,4.377s-1.359,2.197-2.391,2.854-2.234.984-3.609.984c-1.344,0-2.535-.33-3.574-.99s-1.846-1.602-2.42-2.824-.869-2.639-.885-4.248v-1.23c0-1.641.285-3.09.855-4.348s1.377-2.221,2.42-2.889,2.236-1.002,3.58-1.002c1.367,0,2.572.33,3.615.99s1.846,1.617,2.408,2.871.844,2.713.844,4.377v1.078Zm-2.238-1.102c0-2.023-.406-3.576-1.219-4.658s-1.949-1.623-3.41-1.623c-1.422,0-2.541.541-3.357,1.623s-1.236,2.584-1.26,4.506v1.254c0,1.961.412,3.502,1.236,4.623s1.959,1.682,3.404,1.682c1.453,0,2.578-.529,3.375-1.588s1.207-2.576,1.23-4.553v-1.266Z"/>
        <path d="m531.393,544.151c.773,0,1.449-.234,2.027-.703s.898-1.055.961-1.758h2.051c-.039.727-.289,1.418-.75,2.074s-1.076,1.18-1.846,1.57-1.584.586-2.443.586c-1.727,0-3.1-.576-4.119-1.729s-1.529-2.729-1.529-4.729v-.363c0-1.234.227-2.332.68-3.293s1.104-1.707,1.951-2.238,1.85-.797,3.006-.797c1.422,0,2.604.426,3.545,1.277s1.443,1.957,1.506,3.316h-2.051c-.062-.82-.373-1.494-.932-2.021s-1.248-.791-2.068-.791c-1.102,0-1.955.396-2.561,1.189s-.908,1.939-.908,3.439v.41c0,1.461.301,2.586.902,3.375s1.461,1.184,2.578,1.184Z"/>
        <path d="m544.131,545.921c-1.719,0-3.117-.564-4.195-1.693s-1.617-2.639-1.617-4.529v-.398c0-1.258.24-2.381.721-3.369s1.152-1.762,2.016-2.32,1.799-.838,2.807-.838c1.648,0,2.93.543,3.844,1.629s1.371,2.641,1.371,4.664v.902h-8.59c.031,1.25.396,2.26,1.096,3.029s1.588,1.154,2.666,1.154c.766,0,1.414-.156,1.945-.469s.996-.727,1.395-1.242l1.324,1.031c-1.062,1.633-2.656,2.449-4.781,2.449Zm-.27-11.367c-.875,0-1.609.318-2.203.955s-.961,1.529-1.102,2.678h6.352v-.164c-.062-1.102-.359-1.955-.891-2.561s-1.25-.908-2.156-.908Z"/>
        <path d="m559.412,545.686c-.125-.25-.227-.695-.305-1.336-1.008,1.047-2.211,1.57-3.609,1.57-1.25,0-2.275-.354-3.076-1.061s-1.201-1.604-1.201-2.689c0-1.32.502-2.346,1.506-3.076s2.416-1.096,4.236-1.096h2.109v-.996c0-.758-.227-1.361-.68-1.811s-1.121-.674-2.004-.674c-.773,0-1.422.195-1.945.586s-.785.863-.785,1.418h-2.18c0-.633.225-1.244.674-1.834s1.059-1.057,1.828-1.4,1.615-.516,2.537-.516c1.461,0,2.605.365,3.434,1.096s1.258,1.736,1.289,3.018v5.836c0,1.164.148,2.09.445,2.777v.188h-2.273Zm-3.598-1.652c.68,0,1.324-.176,1.934-.527s1.051-.809,1.324-1.371v-2.602h-1.699c-2.656,0-3.984.777-3.984,2.332,0,.68.227,1.211.68,1.594s1.035.574,1.746.574Z"/>
        <path d="m566.689,533.007l.07,1.594c.969-1.219,2.234-1.828,3.797-1.828,2.68,0,4.031,1.512,4.055,4.535v8.379h-2.168v-8.391c-.008-.914-.217-1.59-.627-2.027s-1.049-.656-1.916-.656c-.703,0-1.32.188-1.852.562s-.945.867-1.242,1.477v9.035h-2.168v-12.68h2.051Z"/>
        <path d="m584.889,545.686v-11.004h-2.004v-1.676h2.004v-1.301c0-1.359.363-2.41,1.09-3.152s1.754-1.113,3.082-1.113c.5,0,.996.065,1.488.197l-.117,1.748c-.367-.07-.758-.105-1.172-.105-.703,0-1.246.206-1.629.617s-.574,1.001-.574,1.769v1.341h2.707v1.676h-2.707v11.004h-2.168Z"/>
        <path d="m594.51,545.686h-2.168v-18h2.168v18Z"/>
        <path d="m597.404,539.229c0-1.242.244-2.359.732-3.352s1.168-1.758,2.039-2.297,1.865-.809,2.982-.809c1.727,0,3.123.598,4.189,1.793s1.6,2.785,1.6,4.77v.152c0,1.234-.236,2.342-.709,3.322s-1.148,1.744-2.027,2.291-1.889.82-3.029.82c-1.719,0-3.111-.598-4.178-1.793s-1.6-2.777-1.6-4.746v-.152Zm2.18.258c0,1.406.326,2.535.979,3.387s1.525,1.277,2.619,1.277c1.102,0,1.977-.432,2.625-1.295s.973-2.072.973-3.627c0-1.391-.33-2.518-.99-3.381s-1.537-1.295-2.631-1.295c-1.07,0-1.934.426-2.59,1.277s-.984,2.07-.984,3.656Z"/>
        <path d="m611.092,539.229c0-1.242.244-2.359.732-3.352s1.168-1.758,2.039-2.297,1.865-.809,2.982-.809c1.727,0,3.123.598,4.189,1.793s1.6,2.785,1.6,4.77v.152c0,1.234-.236,2.342-.709,3.322s-1.148,1.744-2.027,2.291-1.889.82-3.029.82c-1.719,0-3.111-.598-4.178-1.793s-1.6-2.777-1.6-4.746v-.152Zm2.18.258c0,1.406.326,2.535.979,3.387s1.525,1.277,2.619,1.277c1.102,0,1.977-.432,2.625-1.295s.973-2.072.973-3.627c0-1.391-.33-2.518-.99-3.381s-1.537-1.295-2.631-1.295c-1.07,0-1.934.426-2.59,1.277s-.984,2.07-.984,3.656Z"/>
        <path d="m631.482,534.952c-.328-.055-.684-.082-1.066-.082-1.422,0-2.387.605-2.895,1.816v9h-2.168v-12.68h2.109l.035,1.465c.711-1.133,1.719-1.699,3.023-1.699.422,0,.742.055.961.164v2.016Z"/>
      </g>
      <g>
        <path d="m675.374,347.97c-1.93-.555-3.334-1.236-4.213-2.045s-1.318-1.807-1.318-2.994c0-1.344.537-2.455,1.611-3.334s2.471-1.318,4.189-1.318c1.172,0,2.217.227,3.135.68s1.629,1.078,2.133,1.875.756,1.668.756,2.613h-2.262c0-1.035-.328-1.848-.984-2.44-.656-.592-1.582-.888-2.777-.888-1.109,0-1.975.245-2.596.734s-.932,1.168-.932,2.037c0,.697.295,1.286.885,1.767s1.594.921,3.012,1.321c1.418.399,2.527.839,3.328,1.319s1.395,1.041,1.781,1.682.58,1.395.58,2.262c0,1.383-.539,2.49-1.617,3.322s-2.52,1.248-4.324,1.248c-1.172,0-2.266-.225-3.281-.674s-1.799-1.064-2.35-1.846-.826-1.668-.826-2.66h2.262c0,1.031.381,1.846,1.143,2.443s1.779.896,3.053.896c1.188,0,2.098-.242,2.73-.727s.949-1.145.949-1.98-.293-1.482-.879-1.939-1.648-.908-3.188-1.354Z"/>
        <path d="m683.671,349.119c0-1.242.244-2.359.732-3.352s1.168-1.758,2.039-2.297,1.865-.809,2.982-.809c1.727,0,3.123.598,4.189,1.793s1.6,2.785,1.6,4.77v.152c0,1.234-.236,2.342-.709,3.322s-1.148,1.744-2.027,2.291-1.889.82-3.029.82c-1.719,0-3.111-.598-4.178-1.793s-1.6-2.777-1.6-4.746v-.152Zm2.18.258c0,1.406.326,2.535.979,3.387s1.525,1.277,2.619,1.277c1.102,0,1.977-.432,2.625-1.295s.973-2.072.973-3.627c0-1.391-.33-2.518-.99-3.381s-1.537-1.295-2.631-1.295c-1.07,0-1.934.426-2.59,1.277s-.984,2.07-.984,3.656Z"/>
        <path d="m705.761,354.322c-.844.992-2.082,1.488-3.715,1.488-1.352,0-2.381-.393-3.088-1.178s-1.064-1.947-1.072-3.486v-8.25h2.168v8.191c0,1.922.781,2.883,2.344,2.883,1.656,0,2.758-.617,3.305-1.852v-9.223h2.168v12.68h-2.062l-.047-1.254Z"/>
        <path d="m713.214,342.896l.07,1.594c.969-1.219,2.234-1.828,3.797-1.828,2.68,0,4.031,1.512,4.055,4.535v8.379h-2.168v-8.391c-.008-.914-.217-1.59-.627-2.027s-1.049-.656-1.916-.656c-.703,0-1.32.188-1.852.562s-.945.867-1.242,1.477v9.035h-2.168v-12.68h2.051Z"/>
        <path d="m723.878,349.131c0-1.945.461-3.51,1.383-4.693s2.129-1.775,3.621-1.775c1.484,0,2.66.508,3.527,1.523v-6.609h2.168v18h-1.992l-.105-1.359c-.867,1.062-2.074,1.594-3.621,1.594-1.469,0-2.666-.602-3.592-1.805s-1.389-2.773-1.389-4.711v-.164Zm2.168.246c0,1.438.297,2.562.891,3.375s1.414,1.219,2.461,1.219c1.375,0,2.379-.617,3.012-1.852v-5.824c-.648-1.195-1.645-1.793-2.988-1.793-1.062,0-1.891.41-2.484,1.23s-.891,2.035-.891,3.645Z"/>
        <path d="m755.108,352.588l2.438-9.691h2.168l-3.691,12.68h-1.758l-3.082-9.609-3,9.609h-1.758l-3.68-12.68h2.156l2.496,9.492,2.953-9.492h1.746l3.012,9.691Z"/>
        <path d="m769.745,355.576c-.125-.25-.227-.695-.305-1.336-1.008,1.047-2.211,1.57-3.609,1.57-1.25,0-2.275-.354-3.076-1.061s-1.201-1.604-1.201-2.689c0-1.32.502-2.346,1.506-3.076s2.416-1.096,4.236-1.096h2.109v-.996c0-.758-.227-1.361-.68-1.811s-1.121-.674-2.004-.674c-.773,0-1.422.195-1.945.586s-.785.863-.785,1.418h-2.18c0-.633.225-1.244.674-1.834s1.059-1.057,1.828-1.4,1.615-.516,2.537-.516c1.461,0,2.605.365,3.434,1.096s1.258,1.736,1.289,3.018v5.836c0,1.164.148,2.09.445,2.777v.188h-2.273Zm-3.598-1.652c.68,0,1.324-.176,1.934-.527s1.051-.809,1.324-1.371v-2.602h-1.699c-2.656,0-3.984.777-3.984,2.332,0,.68.227,1.211.68,1.594s1.035.574,1.746.574Z"/>
        <path d="m778.979,352.635l3.141-9.738h2.215l-4.547,12.68h-1.652l-4.594-12.68h2.215l3.223,9.738Z"/>
        <path d="m791.683,355.81c-1.719,0-3.117-.564-4.195-1.693s-1.617-2.639-1.617-4.529v-.398c0-1.258.24-2.381.721-3.369s1.152-1.762,2.016-2.32,1.799-.838,2.807-.838c1.648,0,2.93.543,3.844,1.629s1.371,2.641,1.371,4.664v.902h-8.59c.031,1.25.396,2.26,1.096,3.029s1.588,1.154,2.666,1.154c.766,0,1.414-.156,1.945-.469s.996-.727,1.395-1.242l1.324,1.031c-1.062,1.633-2.656,2.449-4.781,2.449Zm-.27-11.367c-.875,0-1.609.318-2.203.955s-.961,1.529-1.102,2.678h6.352v-.164c-.062-1.102-.359-1.955-.891-2.561s-1.25-.908-2.156-.908Z"/>
      </g>
      <line x1="662.414" y1="347.757" x2="596.586" y2="347.757" fill="none" stroke="#000" stroke-miterlimit="10" stroke-width="2"/>
      <g>
        <path d="m481.236,421.846h-4.008v6.902h-2.262v-17.062h5.648c1.922,0,3.4.438,4.436,1.312s1.553,2.148,1.553,3.82c0,1.062-.287,1.988-.861,2.777s-1.373,1.379-2.396,1.77l4.008,7.242v.141h-2.414l-3.703-6.902Zm-4.008-1.84h3.457c1.117,0,2.006-.29,2.666-.869s.99-1.354.99-2.324c0-1.057-.314-1.866-.943-2.431-.629-.563-1.537-.849-2.725-.856h-3.445v6.48Z"/>
        <path d="m494.678,428.983c-1.719,0-3.117-.564-4.195-1.693s-1.617-2.639-1.617-4.529v-.398c0-1.258.24-2.381.721-3.369s1.152-1.762,2.016-2.32,1.799-.838,2.807-.838c1.648,0,2.93.543,3.844,1.629s1.371,2.641,1.371,4.664v.902h-8.59c.031,1.25.396,2.26,1.096,3.029s1.588,1.154,2.666,1.154c.766,0,1.414-.156,1.945-.469s.996-.727,1.395-1.242l1.324,1.031c-1.062,1.633-2.656,2.449-4.781,2.449Zm-.27-11.367c-.875,0-1.609.318-2.203.955s-.961,1.529-1.102,2.678h6.352v-.164c-.062-1.102-.359-1.955-.891-2.561s-1.25-.908-2.156-.908Z"/>
        <path d="m505.072,412.999v3.07h2.367v1.676h-2.367v7.873c0,.509.105.89.316,1.144.211.255.57.382,1.078.382.25,0,.594-.047,1.031-.141v1.747c-.57.155-1.125.233-1.664.233-.969,0-1.699-.293-2.191-.879s-.738-1.418-.738-2.496v-7.863h-2.309v-1.676h2.309v-3.07h2.168Z"/>
        <path d="m517.799,427.495c-.844.992-2.082,1.488-3.715,1.488-1.352,0-2.381-.393-3.088-1.178s-1.064-1.947-1.072-3.486v-8.25h2.168v8.191c0,1.922.781,2.883,2.344,2.883,1.656,0,2.758-.617,3.305-1.852v-9.223h2.168v12.68h-2.062l-.047-1.254Z"/>
        <path d="m529.33,418.014c-.328-.055-.684-.082-1.066-.082-1.422,0-2.387.605-2.895,1.816v9h-2.168v-12.68h2.109l.035,1.465c.711-1.133,1.719-1.699,3.023-1.699.422,0,.742.055.961.164v2.016Z"/>
        <path d="m533.373,416.069l.07,1.594c.969-1.219,2.234-1.828,3.797-1.828,2.68,0,4.031,1.512,4.055,4.535v8.379h-2.168v-8.391c-.008-.914-.217-1.59-.627-2.027s-1.049-.656-1.916-.656c-.703,0-1.32.188-1.852.562s-.945.867-1.242,1.477v9.035h-2.168v-12.68h2.051Z"/>
        <path d="m479.9,457.783c-1.719,0-3.117-.564-4.195-1.693s-1.617-2.639-1.617-4.529v-.398c0-1.258.24-2.381.721-3.369s1.152-1.762,2.016-2.32,1.799-.838,2.807-.838c1.648,0,2.93.543,3.844,1.629s1.371,2.641,1.371,4.664v.902h-8.59c.031,1.25.396,2.26,1.096,3.029s1.588,1.154,2.666,1.154c.766,0,1.414-.156,1.945-.469s.996-.727,1.395-1.242l1.324,1.031c-1.062,1.633-2.656,2.449-4.781,2.449Zm-.27-11.367c-.875,0-1.609.318-2.203.955s-.961,1.529-1.102,2.678h6.352v-.164c-.062-1.102-.359-1.955-.891-2.561s-1.25-.908-2.156-.908Z"/>
        <path d="m492.439,456.013c.773,0,1.449-.234,2.027-.703s.898-1.055.961-1.758h2.051c-.039.727-.289,1.418-.75,2.074s-1.076,1.18-1.846,1.57-1.584.586-2.443.586c-1.727,0-3.1-.576-4.119-1.729s-1.529-2.729-1.529-4.729v-.363c0-1.234.227-2.332.68-3.293s1.104-1.707,1.951-2.238,1.85-.797,3.006-.797c1.422,0,2.604.426,3.545,1.277s1.443,1.957,1.506,3.316h-2.051c-.062-.82-.373-1.494-.932-2.021s-1.248-.791-2.068-.791c-1.102,0-1.955.396-2.561,1.189s-.908,1.939-.908,3.439v.41c0,1.461.301,2.586.902,3.375s1.461,1.184,2.578,1.184Z"/>
        <path d="m502.084,446.404c.961-1.18,2.211-1.77,3.75-1.77,2.68,0,4.031,1.512,4.055,4.535v8.379h-2.168v-8.391c-.008-.914-.217-1.59-.627-2.027s-1.049-.656-1.916-.656c-.703,0-1.32.188-1.852.562s-.945.867-1.242,1.477v9.035h-2.168v-18h2.168v6.855Z"/>
        <path d="m512.561,451.092c0-1.242.244-2.359.732-3.352s1.168-1.758,2.039-2.297,1.865-.809,2.982-.809c1.727,0,3.123.598,4.189,1.793s1.6,2.785,1.6,4.77v.152c0,1.234-.236,2.342-.709,3.322s-1.148,1.744-2.027,2.291-1.889.82-3.029.82c-1.719,0-3.111-.598-4.178-1.793s-1.6-2.777-1.6-4.746v-.152Zm2.18.258c0,1.406.326,2.535.979,3.387s1.525,1.277,2.619,1.277c1.102,0,1.977-.432,2.625-1.295s.973-2.072.973-3.627c0-1.391-.33-2.518-.99-3.381s-1.537-1.295-2.631-1.295c-1.07,0-1.934.426-2.59,1.277s-.984,2.07-.984,3.656Z"/>
      </g>
      <line x1="582.788" y1="422.313" x2="545.958" y2="422.313" fill="none" stroke="#000" stroke-miterlimit="10" stroke-width="2"/>
      <g>
        <path d="m432.408,332.06h-5.484v15.223h-2.238v-15.223h-5.473v-1.84h13.195v1.84Z"/>
        <path d="m439.85,336.549c-.328-.055-.684-.082-1.066-.082-1.422,0-2.387.605-2.895,1.816v9h-2.168v-12.68h2.109l.035,1.465c.711-1.133,1.719-1.699,3.023-1.699.422,0,.742.055.961.164v2.016Z"/>
        <path d="m449.201,347.283c-.125-.25-.227-.695-.305-1.336-1.008,1.047-2.211,1.57-3.609,1.57-1.25,0-2.275-.354-3.076-1.061s-1.201-1.604-1.201-2.689c0-1.32.502-2.346,1.506-3.076s2.416-1.096,4.236-1.096h2.109v-.996c0-.758-.227-1.361-.68-1.811s-1.121-.674-2.004-.674c-.773,0-1.422.195-1.945.586s-.785.863-.785,1.418h-2.18c0-.633.225-1.244.674-1.834s1.059-1.057,1.828-1.4,1.615-.516,2.537-.516c1.461,0,2.605.365,3.434,1.096s1.258,1.736,1.289,3.018v5.836c0,1.164.148,2.09.445,2.777v.188h-2.273Zm-3.598-1.652c.68,0,1.324-.176,1.934-.527s1.051-.809,1.324-1.371v-2.602h-1.699c-2.656,0-3.984.777-3.984,2.332,0,.68.227,1.211.68,1.594s1.035.574,1.746.574Z"/>
        <path d="m456.479,334.603l.07,1.594c.969-1.219,2.234-1.828,3.797-1.828,2.68,0,4.031,1.512,4.055,4.535v8.379h-2.168v-8.391c-.008-.914-.217-1.59-.627-2.027s-1.049-.656-1.916-.656c-.703,0-1.32.188-1.852.562s-.945.867-1.242,1.477v9.035h-2.168v-12.68h2.051Z"/>
        <path d="m475.053,343.92c0-.586-.221-1.041-.662-1.365s-1.211-.604-2.309-.838-1.969-.516-2.613-.844-1.121-.719-1.43-1.172-.463-.992-.463-1.617c0-1.039.439-1.918,1.318-2.637s2.002-1.078,3.369-1.078c1.438,0,2.604.371,3.498,1.113s1.342,1.691,1.342,2.848h-2.18c0-.594-.252-1.105-.756-1.535s-1.139-.645-1.904-.645c-.789,0-1.406.172-1.852.516s-.668.793-.668,1.348c0,.523.207.918.621,1.184s1.162.52,2.244.762,1.959.531,2.631.867,1.17.74,1.494,1.213.486,1.049.486,1.729c0,1.133-.453,2.041-1.359,2.725s-2.082,1.025-3.527,1.025c-1.016,0-1.914-.18-2.695-.539s-1.393-.861-1.834-1.506-.662-1.342-.662-2.092h2.168c.039.727.33,1.303.873,1.729s1.26.639,2.15.639c.82,0,1.479-.166,1.975-.498s.744-.775.744-1.33Z"/>
        <path d="m482.084,334.603l.059,1.406c.93-1.094,2.184-1.641,3.762-1.641,1.773,0,2.98.68,3.621,2.039.422-.609.971-1.102,1.646-1.477s1.475-.562,2.396-.562c2.781,0,4.195,1.473,4.242,4.418v8.496h-2.168v-8.367c0-.906-.207-1.584-.621-2.033s-1.109-.674-2.086-.674c-.805,0-1.473.24-2.004.721s-.84,1.127-.926,1.939v8.414h-2.18v-8.309c0-1.844-.902-2.766-2.707-2.766-1.422,0-2.395.605-2.918,1.816v9.258h-2.168v-12.68h2.051Z"/>
        <path d="m501.092,331.24c0-.352.107-.648.322-.891s.533-.363.955-.363.742.121.961.363.328.539.328.891-.109.645-.328.879-.539.352-.961.352-.74-.117-.955-.352-.322-.527-.322-.879Zm2.344,16.043h-2.168v-12.68h2.168v12.68Z"/>
        <path d="m509.846,331.533v3.07h2.367v1.676h-2.367v7.873c0,.509.105.89.316,1.144.211.254.57.381,1.078.381.25,0,.594-.047,1.031-.141v1.748c-.57.155-1.125.233-1.664.233-.969,0-1.699-.293-2.191-.879s-.738-1.418-.738-2.496v-7.863h-2.309v-1.676h2.309v-3.07h2.168Z"/>
        <path d="m517.686,331.533v3.07h2.367v1.676h-2.367v7.873c0,.509.105.89.316,1.144.211.254.57.381,1.078.381.25,0,.594-.047,1.031-.141v1.748c-.57.155-1.125.233-1.664.233-.969,0-1.699-.293-2.191-.879s-.738-1.418-.738-2.496v-7.863h-2.309v-1.676h2.309v-3.07h2.168Z"/>
        <path d="m527.846,347.517c-1.719,0-3.117-.564-4.195-1.693s-1.617-2.639-1.617-4.529v-.398c0-1.258.24-2.381.721-3.369s1.152-1.762,2.016-2.32,1.799-.838,2.807-.838c1.648,0,2.93.543,3.844,1.629s1.371,2.641,1.371,4.664v.902h-8.59c.031,1.25.396,2.26,1.096,3.029s1.588,1.154,2.666,1.154c.766,0,1.414-.156,1.945-.469s.996-.727,1.395-1.242l1.324,1.031c-1.062,1.633-2.656,2.449-4.781,2.449Zm-.27-11.367c-.875,0-1.609.318-2.203.955s-.961,1.529-1.102,2.678h6.352v-.164c-.062-1.102-.359-1.955-.891-2.561s-1.25-.908-2.156-.908Z"/>
        <path d="m541.428,336.549c-.328-.055-.684-.082-1.066-.082-1.422,0-2.387.605-2.895,1.816v9h-2.168v-12.68h2.109l.035,1.465c.711-1.133,1.719-1.699,3.023-1.699.422,0,.742.055.961.164v2.016Z"/>
      </g>
      <g>
        <path d="m682.137,199.645h-5.484v15.223h-2.238v-15.223h-5.473v-1.84h13.195v1.84Z"/>
        <path d="m689.578,204.134c-.328-.055-.684-.082-1.066-.082-1.422,0-2.387.605-2.895,1.816v9h-2.168v-12.68h2.109l.035,1.465c.711-1.133,1.719-1.699,3.023-1.699.422,0,.742.055.961.164v2.016Z"/>
        <path d="m698.93,214.868c-.125-.25-.227-.695-.305-1.336-1.008,1.047-2.211,1.57-3.609,1.57-1.25,0-2.275-.354-3.076-1.061s-1.201-1.604-1.201-2.689c0-1.32.502-2.346,1.506-3.076s2.416-1.096,4.236-1.096h2.109v-.996c0-.758-.227-1.361-.68-1.811s-1.121-.674-2.004-.674c-.773,0-1.422.195-1.945.586s-.785.863-.785,1.418h-2.18c0-.633.225-1.244.674-1.834s1.059-1.057,1.828-1.4,1.615-.516,2.537-.516c1.461,0,2.605.365,3.434,1.096s1.258,1.736,1.289,3.018v5.836c0,1.164.148,2.09.445,2.777v.188h-2.273Zm-3.598-1.652c.68,0,1.324-.176,1.934-.527s1.051-.809,1.324-1.371v-2.602h-1.699c-2.656,0-3.984.777-3.984,2.332,0,.68.227,1.211.68,1.594s1.035.574,1.746.574Z"/>
        <path d="m706.207,202.188l.07,1.594c.969-1.219,2.234-1.828,3.797-1.828,2.68,0,4.031,1.512,4.055,4.535v8.379h-2.168v-8.391c-.008-.914-.217-1.59-.627-2.027s-1.049-.656-1.916-.656c-.703,0-1.32.188-1.852.562s-.945.867-1.242,1.477v9.035h-2.168v-12.68h2.051Z"/>
        <path d="m724.781,211.505c0-.586-.221-1.041-.662-1.365s-1.211-.604-2.309-.838-1.969-.516-2.613-.844-1.121-.719-1.43-1.172-.463-.992-.463-1.617c0-1.039.439-1.918,1.318-2.637s2.002-1.078,3.369-1.078c1.438,0,2.604.371,3.498,1.113s1.342,1.691,1.342,2.848h-2.18c0-.594-.252-1.105-.756-1.535s-1.139-.645-1.904-.645c-.789,0-1.406.172-1.852.516s-.668.793-.668,1.348c0,.523.207.918.621,1.184s1.162.52,2.244.762,1.959.531,2.631.867,1.17.74,1.494,1.213.486,1.049.486,1.729c0,1.133-.453,2.041-1.359,2.725s-2.082,1.025-3.527,1.025c-1.016,0-1.914-.18-2.695-.539s-1.393-.861-1.834-1.506-.662-1.342-.662-2.092h2.168c.039.727.33,1.303.873,1.729s1.26.639,2.15.639c.82,0,1.479-.166,1.975-.498s.744-.775.744-1.33Z"/>
        <path d="m731.812,202.188l.059,1.406c.93-1.094,2.184-1.641,3.762-1.641,1.773,0,2.98.68,3.621,2.039.422-.609.971-1.102,1.646-1.477s1.475-.562,2.396-.562c2.781,0,4.195,1.473,4.242,4.418v8.496h-2.168v-8.367c0-.906-.207-1.584-.621-2.033s-1.109-.674-2.086-.674c-.805,0-1.473.24-2.004.721s-.84,1.127-.926,1.939v8.414h-2.18v-8.309c0-1.844-.902-2.766-2.707-2.766-1.422,0-2.395.605-2.918,1.816v9.258h-2.168v-12.68h2.051Z"/>
        <path d="m750.82,198.825c0-.352.107-.648.322-.891s.533-.363.955-.363.742.121.961.363.328.539.328.891-.109.645-.328.879-.539.352-.961.352-.74-.117-.955-.352-.322-.527-.322-.879Zm2.344,16.043h-2.168v-12.68h2.168v12.68Z"/>
        <path d="m759.574,199.118v3.07h2.367v1.676h-2.367v7.873c0,.509.105.89.316,1.144.211.254.57.381,1.078.381.25,0,.594-.047,1.031-.141v1.748c-.57.155-1.125.233-1.664.233-.969,0-1.699-.293-2.191-.879s-.738-1.418-.738-2.496v-7.863h-2.309v-1.676h2.309v-3.07h2.168Z"/>
        <path d="m767.414,199.118v3.07h2.367v1.676h-2.367v7.873c0,.509.105.89.316,1.144.211.254.57.381,1.078.381.25,0,.594-.047,1.031-.141v1.748c-.57.155-1.125.233-1.664.233-.969,0-1.699-.293-2.191-.879s-.738-1.418-.738-2.496v-7.863h-2.309v-1.676h2.309v-3.07h2.168Z"/>
        <path d="m777.574,215.102c-1.719,0-3.117-.564-4.195-1.693s-1.617-2.639-1.617-4.529v-.398c0-1.258.24-2.381.721-3.369s1.152-1.762,2.016-2.32,1.799-.838,2.807-.838c1.648,0,2.93.543,3.844,1.629s1.371,2.641,1.371,4.664v.902h-8.59c.031,1.25.396,2.26,1.096,3.029s1.588,1.154,2.666,1.154c.766,0,1.414-.156,1.945-.469s.996-.727,1.395-1.242l1.324,1.031c-1.062,1.633-2.656,2.449-4.781,2.449Zm-.27-11.367c-.875,0-1.609.318-2.203.955s-.961,1.529-1.102,2.678h6.352v-.164c-.062-1.102-.359-1.955-.891-2.561s-1.25-.908-2.156-.908Z"/>
        <path d="m791.156,204.134c-.328-.055-.684-.082-1.066-.082-1.422,0-2.387.605-2.895,1.816v9h-2.168v-12.68h2.109l.035,1.465c.711-1.133,1.719-1.699,3.023-1.699.422,0,.742.055.961.164v2.016Z"/>
      </g>
      <line x1="662.414" y1="208.737" x2="604.098" y2="208.737" fill="none" stroke="#000" stroke-miterlimit="10" stroke-width="2"/>
      <line x1="413.408" y1="337.11" x2="375.245" y2="337.11" fill="none" stroke="#000" stroke-miterlimit="10" stroke-width="2"/>
      <g>
        <path d="m455.771,302.446h-4.008v6.902h-2.262v-17.062h5.648c1.922,0,3.4.438,4.436,1.312s1.553,2.148,1.553,3.82c0,1.062-.287,1.988-.861,2.777s-1.373,1.379-2.396,1.77l4.008,7.242v.141h-2.414l-3.703-6.902Zm-4.008-1.84h3.457c1.117,0,2.006-.29,2.666-.869s.99-1.354.99-2.325c0-1.057-.314-1.866-.943-2.43-.629-.563-1.537-.849-2.725-.857h-3.445v6.48Z"/>
        <path d="m469.213,309.582c-1.719,0-3.117-.564-4.195-1.693s-1.617-2.639-1.617-4.529v-.398c0-1.258.24-2.381.721-3.369s1.152-1.762,2.016-2.32,1.799-.838,2.807-.838c1.648,0,2.93.543,3.844,1.629s1.371,2.641,1.371,4.664v.902h-8.59c.031,1.25.396,2.26,1.096,3.029s1.588,1.154,2.666,1.154c.766,0,1.414-.156,1.945-.469s.996-.727,1.395-1.242l1.324,1.031c-1.062,1.633-2.656,2.449-4.781,2.449Zm-.27-11.367c-.875,0-1.609.318-2.203.955s-.961,1.529-1.102,2.678h6.352v-.164c-.062-1.102-.359-1.955-.891-2.561s-1.25-.908-2.156-.908Z"/>
        <path d="m481.752,307.813c.773,0,1.449-.234,2.027-.703s.898-1.055.961-1.758h2.051c-.039.727-.289,1.418-.75,2.074s-1.076,1.18-1.846,1.57-1.584.586-2.443.586c-1.727,0-3.1-.576-4.119-1.729s-1.529-2.729-1.529-4.729v-.363c0-1.234.227-2.332.68-3.293s1.104-1.707,1.951-2.238,1.85-.797,3.006-.797c1.422,0,2.604.426,3.545,1.277s1.443,1.957,1.506,3.316h-2.051c-.062-.82-.373-1.494-.932-2.021s-1.248-.791-2.068-.791c-1.102,0-1.955.396-2.561,1.189s-.908,1.939-.908,3.439v.41c0,1.461.301,2.586.902,3.375s1.461,1.184,2.578,1.184Z"/>
        <path d="m494.49,309.582c-1.719,0-3.117-.564-4.195-1.693s-1.617-2.639-1.617-4.529v-.398c0-1.258.24-2.381.721-3.369s1.152-1.762,2.016-2.32,1.799-.838,2.807-.838c1.648,0,2.93.543,3.844,1.629s1.371,2.641,1.371,4.664v.902h-8.59c.031,1.25.396,2.26,1.096,3.029s1.588,1.154,2.666,1.154c.766,0,1.414-.156,1.945-.469s.996-.727,1.395-1.242l1.324,1.031c-1.062,1.633-2.656,2.449-4.781,2.449Zm-.27-11.367c-.875,0-1.609.318-2.203.955s-.961,1.529-1.102,2.678h6.352v-.164c-.062-1.102-.359-1.955-.891-2.561s-1.25-.908-2.156-.908Z"/>
        <path d="m501.955,293.305c0-.352.107-.648.322-.891s.533-.363.955-.363.742.121.961.363.328.539.328.891-.109.645-.328.879-.539.352-.961.352-.74-.117-.955-.352-.322-.527-.322-.879Zm2.344,16.043h-2.168v-12.68h2.168v12.68Z"/>
        <path d="m511.951,306.406l3.141-9.738h2.215l-4.547,12.68h-1.652l-4.594-12.68h2.215l3.223,9.738Z"/>
        <path d="m524.654,309.582c-1.719,0-3.117-.564-4.195-1.693s-1.617-2.639-1.617-4.529v-.398c0-1.258.24-2.381.721-3.369s1.152-1.762,2.016-2.32,1.799-.838,2.807-.838c1.648,0,2.93.543,3.844,1.629s1.371,2.641,1.371,4.664v.902h-8.59c.031,1.25.396,2.26,1.096,3.029s1.588,1.154,2.666,1.154c.766,0,1.414-.156,1.945-.469s.996-.727,1.395-1.242l1.324,1.031c-1.062,1.633-2.656,2.449-4.781,2.449Zm-.27-11.367c-.875,0-1.609.318-2.203.955s-.961,1.529-1.102,2.678h6.352v-.164c-.062-1.102-.359-1.955-.891-2.561s-1.25-.908-2.156-.908Z"/>
        <path d="m538.236,298.614c-.328-.055-.684-.082-1.066-.082-1.422,0-2.387.605-2.895,1.816v9h-2.168v-12.68h2.109l.035,1.465c.711-1.133,1.719-1.699,3.023-1.699.422,0,.742.055.961.164v2.016Z"/>
      </g>
      <line x1="576.222" y1="302.291" x2="543.745" y2="302.291" fill="none" stroke="#000" stroke-miterlimit="10" stroke-width="2"/>
      <g>
        <path d="m309.969,238.791h-4.008v6.902h-2.262v-17.062h5.648c1.922,0,3.4.438,4.436,1.312s1.553,2.148,1.553,3.82c0,1.062-.287,1.988-.861,2.777s-1.373,1.379-2.396,1.77l4.008,7.242v.141h-2.414l-3.703-6.902Zm-4.008-1.84h3.457c1.117,0,2.006-.29,2.666-.869s.99-1.354.99-2.325c0-1.057-.314-1.866-.943-2.43-.629-.563-1.537-.849-2.725-.857h-3.445v6.48Z"/>
        <path d="m323.41,245.927c-1.719,0-3.117-.564-4.195-1.693s-1.617-2.639-1.617-4.529v-.398c0-1.258.24-2.381.721-3.369s1.152-1.762,2.016-2.32,1.799-.838,2.807-.838c1.648,0,2.93.543,3.844,1.629s1.371,2.641,1.371,4.664v.902h-8.59c.031,1.25.396,2.26,1.096,3.029s1.588,1.154,2.666,1.154c.766,0,1.414-.156,1.945-.469s.996-.727,1.395-1.242l1.324,1.031c-1.062,1.633-2.656,2.449-4.781,2.449Zm-.27-11.367c-.875,0-1.609.318-2.203.955s-.961,1.529-1.102,2.678h6.352v-.164c-.062-1.102-.359-1.955-.891-2.561s-1.25-.908-2.156-.908Z"/>
        <path d="m335.949,244.158c.773,0,1.449-.234,2.027-.703s.898-1.055.961-1.758h2.051c-.039.727-.289,1.418-.75,2.074s-1.076,1.18-1.846,1.57-1.584.586-2.443.586c-1.727,0-3.1-.576-4.119-1.729s-1.529-2.729-1.529-4.729v-.363c0-1.234.227-2.332.68-3.293s1.104-1.707,1.951-2.238,1.85-.797,3.006-.797c1.422,0,2.604.426,3.545,1.277s1.443,1.957,1.506,3.316h-2.051c-.062-.82-.373-1.494-.932-2.021s-1.248-.791-2.068-.791c-1.102,0-1.955.396-2.561,1.189s-.908,1.939-.908,3.439v.41c0,1.461.301,2.586.902,3.375s1.461,1.184,2.578,1.184Z"/>
        <path d="m348.688,245.927c-1.719,0-3.117-.564-4.195-1.693s-1.617-2.639-1.617-4.529v-.398c0-1.258.24-2.381.721-3.369s1.152-1.762,2.016-2.32,1.799-.838,2.807-.838c1.648,0,2.93.543,3.844,1.629s1.371,2.641,1.371,4.664v.902h-8.59c.031,1.25.396,2.26,1.096,3.029s1.588,1.154,2.666,1.154c.766,0,1.414-.156,1.945-.469s.996-.727,1.395-1.242l1.324,1.031c-1.062,1.633-2.656,2.449-4.781,2.449Zm-.27-11.367c-.875,0-1.609.318-2.203.955s-.961,1.529-1.102,2.678h6.352v-.164c-.062-1.102-.359-1.955-.891-2.561s-1.25-.908-2.156-.908Z"/>
        <path d="m356.152,229.65c0-.352.107-.648.322-.891s.533-.363.955-.363.742.121.961.363.328.539.328.891-.109.645-.328.879-.539.352-.961.352-.74-.117-.955-.352-.322-.527-.322-.879Zm2.344,16.043h-2.168v-12.68h2.168v12.68Z"/>
        <path d="m366.148,242.752l3.141-9.738h2.215l-4.547,12.68h-1.652l-4.594-12.68h2.215l3.223,9.738Z"/>
        <path d="m378.852,245.927c-1.719,0-3.117-.564-4.195-1.693s-1.617-2.639-1.617-4.529v-.398c0-1.258.24-2.381.721-3.369s1.152-1.762,2.016-2.32,1.799-.838,2.807-.838c1.648,0,2.93.543,3.844,1.629s1.371,2.641,1.371,4.664v.902h-8.59c.031,1.25.396,2.26,1.096,3.029s1.588,1.154,2.666,1.154c.766,0,1.414-.156,1.945-.469s.996-.727,1.395-1.242l1.324,1.031c-1.062,1.633-2.656,2.449-4.781,2.449Zm-.27-11.367c-.875,0-1.609.318-2.203.955s-.961,1.529-1.102,2.678h6.352v-.164c-.062-1.102-.359-1.955-.891-2.561s-1.25-.908-2.156-.908Z"/>
        <path d="m392.434,234.959c-.328-.055-.684-.082-1.066-.082-1.422,0-2.387.605-2.895,1.816v9h-2.168v-12.68h2.109l.035,1.465c.711-1.133,1.719-1.699,3.023-1.699.422,0,.742.055.961.164v2.016Z"/>
      </g>
      <line x1="468.025" y1="238.636" x2="397.941" y2="238.636" fill="none" stroke="#000" stroke-miterlimit="10" stroke-width="2"/>
    </g>
  </g>
</svg>