<?xml version="1.0" encoding="UTF-8"?><svg id="j" xmlns="http://www.w3.org/2000/svg" width="570" height="325" viewBox="0 0 570 325"><path d="m286.13,314.8c32.87-32.88,56.87-59.78,60.87-83.7,5.15-30.8-41-79.71-61-109.6" fill="none" stroke="#0077a2" stroke-linecap="round" stroke-linejoin="round" stroke-width="2"/><path d="m286.18,122.13c12-16.02,59.14-75.08,61.21-109.48" fill="none" stroke="#0077a2" stroke-linecap="round" stroke-linejoin="round" stroke-width="2"/><path d="m285.87,314.8c-32.87-32.88-56.87-59.78-60.87-83.7-5.15-30.8,41-79.71,61-109.6" fill="none" stroke="#0077a2" stroke-linecap="round" stroke-linejoin="round" stroke-width="2"/><path d="m285.82,122.13c-12-16.02-59.14-75.08-61.21-109.48" fill="none" stroke="#0077a2" stroke-linecap="round" stroke-linejoin="round" stroke-width="2"/><polyline points="391 8.24 391 316.58 181.26 316.58 181.26 8.24" fill="none" stroke="#000" stroke-miterlimit="10" stroke-width="3"/><line x1="286.13" y1="8.5" x2="286.13" y2="316.5" fill="none" stroke="#000" stroke-dasharray="0 6" stroke-linecap="round" stroke-linejoin="round" stroke-width="2"/><path d="m440.68,192.54h3.16v2.36h-3.16v5.28h-2.91v-5.28h-10.36v-1.7l10.19-15.77h3.08v15.11Zm-9.98,0h7.08v-11.16l-.34.62-6.73,10.53Z"/><path d="m143.38,174.86h-17.29l.21-1.05c2.7,0,3.26-.49,3.85-3.29l3.01-14.6c.49-2.31.32-3.01-2.7-3.01l.21-1.05h9.94l-.17,1.05c-2.52,0-3.64.53-4.17,3.05l-3.19,15.68c-.32,1.54.21,1.89,2.28,1.89h1.64c4.45,0,5.18-1.43,7.35-5.5h1.12l-2.1,6.83Z"/><path d="m154.21,186.51h-7.96l.14-.69,3.73-3.06c3.12-2.71,4.24-3.92,4.24-6.1,0-1.18-.69-2-2.02-2s-2.24.53-3.41,2.04l-.45-.2c1.14-1.94,2.55-3.12,4.67-3.12,1.94,0,3.12,1.12,3.12,2.86,0,2.12-1.43,3.51-4.53,6.08l-3.14,2.55-.02.1,1.37-.06h2.84c1.08,0,1.43-.43,2.16-1.65h.59l-1.35,3.26Z"/><path d="m423.91,140.39h2.17c1.36-.02,2.44-.38,3.22-1.08.78-.7,1.17-1.64,1.17-2.83,0-2.67-1.33-4-3.98-4-1.25,0-2.25.36-2.99,1.07-.75.71-1.12,1.66-1.12,2.84h-2.89c0-1.8.66-3.3,1.98-4.49,1.32-1.19,2.99-1.79,5.02-1.79,2.15,0,3.83.57,5.05,1.7,1.22,1.14,1.83,2.71,1.83,4.73,0,.99-.32,1.95-.96,2.88-.64.93-1.51,1.62-2.62,2.08,1.25.4,2.22,1.05,2.9,1.97.68.92,1.02,2.04,1.02,3.36,0,2.04-.67,3.66-2,4.86-1.33,1.2-3.07,1.8-5.2,1.8s-3.87-.58-5.21-1.73c-1.34-1.16-2.01-2.68-2.01-4.58h2.91c0,1.2.39,2.16,1.17,2.88s1.83,1.08,3.14,1.08c1.4,0,2.46-.36,3.2-1.09.74-.73,1.11-1.78,1.11-3.14s-.41-2.34-1.22-3.05c-.81-.71-1.98-1.07-3.52-1.09h-2.17v-2.36Z"/><path d="m447.86,145.68c0,2.94.56,5.11,2.07,5.11.91,0,1.65-.28,2.55-1.23l.6.56c-1.08,2-2.87,3.46-4.62,3.46-1.92,0-2.66-1.64-2.66-4.3,0-3.15.53-5.88.77-9.21h-.21c-1.08,1.54-6.02,9.59-8.02,13.09h-3.5v-.56c3.61-4.9,8.16-10.99,11.76-15.86.04-.74.04-.77.04-1.86,0-2.35-.7-3.71-2.17-3.71-1.16,0-1.96.35-2.87,1.19l-.74-.53c1.12-1.96,2.63-3.36,4.83-3.36,2.52,0,2.62,2.38,2.62,5.15,0,4.27-.46,8.19-.46,12.04Z"/><path d="m419.05,167.57l.42-2h32.9l-.42,2h-32.9Z"/></svg>