<?xml version="1.0" encoding="UTF-8"?><svg id="c" xmlns="http://www.w3.org/2000/svg" width="1140" height="561" viewBox="0 0 1140 561"><path d="m40.06,324.13c37.76,269.7,503.05,240.57,779.37,228.55,276.32-12.02,325.6-185.76,318.24-355.12C1130.3,28.21,830.68-7.12,554.54,8.01,123.51,31.63,11.58,120.78,40.06,324.13Z" fill="#f4f4e9"/><path d="m615,493.47s-33.55-44.13-37-110.97" fill="none" stroke="#0077a2" stroke-linecap="round" stroke-linejoin="round" stroke-width="2"/><path d="m615,493.47s33.55-44.13,37-110.97" fill="none" stroke="#0077a2" stroke-linecap="round" stroke-linejoin="round" stroke-width="2"/><path d="m652,362.5c-3.45-60.83-37-101-37-101,0,0-33.55,40.17-37,101" fill="none" stroke="#0077a2" stroke-linecap="round" stroke-linejoin="round" stroke-width="2"/><path d="m652,156.5c-3.45,63.24-37,105-37,105,0,0-33.55-41.76-37-105" fill="none" stroke="#0077a2" stroke-linecap="round" stroke-linejoin="round" stroke-width="2"/><path d="m371.81,58.38h-6.4v17.76h-2.61v-17.76h-6.38v-2.15h15.39v2.15Z"/><path d="m382.2,74.68c-.98,1.16-2.43,1.74-4.33,1.74-1.58,0-2.78-.46-3.6-1.37s-1.24-2.27-1.25-4.07v-9.62h2.53v9.56c0,2.24.91,3.36,2.73,3.36,1.93,0,3.22-.72,3.86-2.16v-10.76h2.53v14.79h-2.41l-.05-1.46Z"/><path d="m390.89,61.35l.08,1.86c1.13-1.42,2.61-2.13,4.43-2.13,3.13,0,4.7,1.76,4.73,5.29v9.78h-2.53v-9.79c0-1.07-.25-1.85-.73-2.37-.48-.51-1.22-.77-2.24-.77-.82,0-1.54.22-2.16.66s-1.1,1.01-1.45,1.72v10.54h-2.53v-14.79h2.39Z"/><path d="m403.96,57.43c0-.41.12-.76.38-1.04.25-.28.62-.42,1.11-.42s.87.14,1.12.42c.25.28.38.63.38,1.04s-.13.75-.38,1.03-.63.41-1.12.41-.86-.14-1.11-.41-.38-.62-.38-1.03Zm2.73,18.72h-2.53v-14.79h2.53v14.79Z"/><path d="m413.14,61.35l.08,1.86c1.13-1.42,2.61-2.13,4.43-2.13,3.13,0,4.7,1.76,4.73,5.29v9.78h-2.53v-9.79c0-1.07-.25-1.85-.73-2.37-.48-.51-1.22-.77-2.24-.77-.82,0-1.54.22-2.16.66s-1.1,1.01-1.45,1.72v10.54h-2.53v-14.79h2.39Z"/><path d="m425.59,68.62c0-2.31.53-4.14,1.6-5.5,1.07-1.36,2.48-2.04,4.24-2.04s3.21.64,4.22,1.91l.12-1.64h2.31v14.44c0,1.91-.57,3.42-1.7,4.53-1.13,1.1-2.66,1.65-4.57,1.65-1.07,0-2.11-.23-3.13-.68-1.02-.46-1.8-1.08-2.34-1.87l1.31-1.52c1.08,1.34,2.41,2.01,3.98,2.01,1.23,0,2.19-.35,2.88-1.04.69-.69,1.03-1.67,1.03-2.93v-1.27c-1.01,1.17-2.39,1.75-4.14,1.75s-3.13-.7-4.2-2.09-1.61-3.29-1.61-5.7Zm2.54.29c0,1.67.34,2.98,1.03,3.93.68.95,1.64,1.43,2.87,1.43,1.59,0,2.77-.72,3.51-2.17v-6.75c-.77-1.41-1.94-2.12-3.49-2.12-1.23,0-2.19.48-2.88,1.44s-1.04,2.37-1.04,4.25Z"/><path d="m450.08,76.14v-12.84h-2.34v-1.96h2.34v-1.52c0-1.59.42-2.81,1.27-3.68.85-.87,2.05-1.3,3.6-1.3.58,0,1.16.08,1.74.23l-.14,2.04c-.43-.08-.88-.12-1.37-.12-.82,0-1.45.24-1.9.72s-.67,1.17-.67,2.06v1.56h3.16v1.96h-3.16v12.84h-2.53Z"/><path d="m457.89,68.61c0-1.45.29-2.75.85-3.91.57-1.16,1.36-2.05,2.38-2.68s2.18-.94,3.48-.94c2.01,0,3.64.7,4.89,2.09s1.87,3.25,1.87,5.56v.18c0,1.44-.28,2.73-.83,3.88-.55,1.14-1.34,2.04-2.37,2.67-1.03.64-2.2.96-3.53.96-2,0-3.63-.7-4.87-2.09s-1.87-3.24-1.87-5.54v-.18Zm2.54.3c0,1.64.38,2.96,1.14,3.95.76.99,1.78,1.49,3.06,1.49s2.31-.5,3.06-1.51c.76-1.01,1.13-2.42,1.13-4.23,0-1.62-.38-2.94-1.16-3.94-.77-1.01-1.79-1.51-3.07-1.51s-2.26.5-3.02,1.49c-.77.99-1.15,2.42-1.15,4.27Z"/><path d="m481.67,63.62c-.38-.06-.8-.1-1.24-.1-1.66,0-2.78.71-3.38,2.12v10.5h-2.53v-14.79h2.46l.04,1.71c.83-1.32,2-1.98,3.53-1.98.49,0,.87.06,1.12.19v2.35Z"/><path d="m488.13,69.29l-1.59,1.65v5.2h-2.53v-21h2.53v12.7l1.35-1.63,4.61-4.87h3.08l-5.76,6.18,6.43,8.61h-2.97l-5.15-6.85Z"/><path d="m481.52,350.46h2.76v2.06h-2.76v4.62h-2.54v-4.62h-9.06v-1.49l8.91-13.79h2.69v13.22Zm-8.74,0h6.19v-9.76l-.3.55-5.89,9.21Z"/><path d="m694.05,157.79h-8.34l-1.87,5.21h-2.71l7.6-19.91h2.3l7.62,19.91h-2.69l-1.9-5.21Zm-7.55-2.15h6.77l-3.39-9.31-3.38,9.31Z"/><path d="m703.32,148.21l.08,1.86c1.13-1.42,2.61-2.13,4.43-2.13,3.13,0,4.7,1.76,4.73,5.29v9.78h-2.53v-9.79c0-1.07-.25-1.85-.73-2.37-.48-.51-1.22-.77-2.24-.77-.82,0-1.54.22-2.16.66s-1.1,1.01-1.45,1.72v10.54h-2.53v-14.79h2.39Z"/><path d="m719.8,144.62v3.58h2.76v1.96h-2.76v9.19c0,.59.12,1.04.37,1.33s.67.44,1.26.44c.29,0,.69-.05,1.2-.16v2.04c-.67.18-1.31.27-1.94.27-1.13,0-1.98-.34-2.56-1.03s-.86-1.65-.86-2.91v-9.17h-2.69v-1.96h2.69v-3.58h2.53Z"/><path d="m725.53,144.28c0-.41.12-.76.38-1.04.25-.28.62-.42,1.11-.42s.87.14,1.12.42c.25.28.38.63.38,1.04s-.13.75-.38,1.03-.63.41-1.12.41-.86-.14-1.11-.41-.38-.62-.38-1.03Zm2.73,18.72h-2.53v-14.79h2.53v14.79Z"/><path d="m734.71,148.21l.08,1.86c1.13-1.42,2.61-2.13,4.43-2.13,3.13,0,4.7,1.76,4.73,5.29v9.78h-2.53v-9.79c0-1.07-.25-1.85-.73-2.37-.48-.51-1.22-.77-2.24-.77-.82,0-1.54.22-2.16.66s-1.1,1.01-1.45,1.72v10.54h-2.53v-14.79h2.39Z"/><path d="m747.09,155.47c0-1.45.29-2.75.85-3.91.57-1.16,1.36-2.05,2.38-2.68s2.18-.94,3.48-.94c2.01,0,3.64.7,4.89,2.09s1.87,3.25,1.87,5.56v.18c0,1.44-.28,2.73-.83,3.88-.55,1.14-1.34,2.04-2.37,2.67-1.03.64-2.2.96-3.53.96-2,0-3.63-.7-4.87-2.09s-1.87-3.24-1.87-5.54v-.18Zm2.54.3c0,1.64.38,2.96,1.14,3.95.76.99,1.78,1.49,3.06,1.49s2.31-.5,3.06-1.51c.76-1.01,1.13-2.42,1.13-4.23,0-1.62-.38-2.94-1.16-3.94-.77-1.01-1.79-1.51-3.07-1.51s-2.26.5-3.02,1.49c-.77.99-1.15,2.42-1.15,4.27Z"/><path d="m763.12,155.48c0-2.27.54-4.09,1.61-5.48s2.48-2.07,4.22-2.07,3.1.59,4.12,1.78v-7.71h2.53v21h-2.32l-.12-1.59c-1.01,1.24-2.42,1.86-4.22,1.86s-3.11-.7-4.19-2.11c-1.08-1.4-1.62-3.24-1.62-5.5v-.19Zm2.53.29c0,1.68.35,2.99,1.04,3.94.69.95,1.65,1.42,2.87,1.42,1.6,0,2.78-.72,3.51-2.16v-6.79c-.76-1.39-1.92-2.09-3.49-2.09-1.24,0-2.21.48-2.9,1.44s-1.04,2.37-1.04,4.25Z"/><path d="m785.66,163.27c-2,0-3.64-.66-4.89-1.98-1.26-1.32-1.89-3.08-1.89-5.28v-.46c0-1.47.28-2.78.84-3.93.56-1.15,1.34-2.06,2.35-2.71,1.01-.65,2.1-.98,3.27-.98,1.92,0,3.42.63,4.48,1.9,1.07,1.27,1.6,3.08,1.6,5.44v1.05h-10.02c.04,1.46.46,2.64,1.28,3.53.82.9,1.85,1.35,3.11,1.35.89,0,1.65-.18,2.27-.55.62-.36,1.16-.85,1.63-1.45l1.54,1.2c-1.24,1.91-3.1,2.86-5.58,2.86Zm-.31-13.26c-1.02,0-1.88.37-2.57,1.11-.69.74-1.12,1.78-1.29,3.12h7.41v-.19c-.07-1.29-.42-2.28-1.04-2.99-.62-.71-1.46-1.06-2.52-1.06Z"/><path d="m800.62,155.47c0-1.45.29-2.75.85-3.91.57-1.16,1.36-2.05,2.38-2.68s2.18-.94,3.48-.94c2.01,0,3.64.7,4.89,2.09s1.87,3.25,1.87,5.56v.18c0,1.44-.28,2.73-.83,3.88-.55,1.14-1.34,2.04-2.37,2.67-1.03.64-2.2.96-3.53.96-2,0-3.63-.7-4.87-2.09s-1.87-3.24-1.87-5.54v-.18Zm2.54.3c0,1.64.38,2.96,1.14,3.95.76.99,1.78,1.49,3.06,1.49s2.31-.5,3.06-1.51c.76-1.01,1.13-2.42,1.13-4.23,0-1.62-.38-2.94-1.16-3.94-.77-1.01-1.79-1.51-3.07-1.51s-2.26.5-3.02,1.49c-.77.99-1.15,2.42-1.15,4.27Z"/><path d="m824.41,150.48c-.38-.06-.8-.1-1.24-.1-1.66,0-2.78.71-3.38,2.12v10.5h-2.53v-14.79h2.46l.04,1.71c.83-1.32,2-1.98,3.53-1.98.49,0,.87.06,1.12.19v2.35Z"/><path d="m836.04,148.21l.07,1.64c1.08-1.28,2.55-1.91,4.39-1.91,2.07,0,3.48.79,4.22,2.38.49-.71,1.13-1.29,1.92-1.72s1.72-.66,2.8-.66c3.25,0,4.89,1.72,4.95,5.15v9.91h-2.53v-9.76c0-1.06-.24-1.85-.72-2.37-.48-.52-1.29-.79-2.43-.79-.94,0-1.72.28-2.34.84s-.98,1.31-1.08,2.26v9.82h-2.54v-9.69c0-2.15-1.05-3.23-3.16-3.23-1.66,0-2.79.71-3.4,2.12v10.8h-2.53v-14.79h2.39Z"/><path d="m858.22,144.28c0-.41.12-.76.38-1.04.25-.28.62-.42,1.11-.42s.87.14,1.12.42c.25.28.38.63.38,1.04s-.13.75-.38,1.03-.63.41-1.12.41-.86-.14-1.11-.41-.38-.62-.38-1.03Zm2.73,18.72h-2.53v-14.79h2.53v14.79Z"/><path d="m864.38,155.48c0-2.27.54-4.09,1.61-5.48s2.48-2.07,4.22-2.07,3.1.59,4.12,1.78v-7.71h2.53v21h-2.32l-.12-1.59c-1.01,1.24-2.42,1.86-4.22,1.86s-3.11-.7-4.19-2.11c-1.08-1.4-1.62-3.24-1.62-5.5v-.19Zm2.53.29c0,1.68.35,2.99,1.04,3.94.69.95,1.65,1.42,2.87,1.42,1.6,0,2.78-.72,3.51-2.16v-6.79c-.76-1.39-1.92-2.09-3.49-2.09-1.24,0-2.21.48-2.9,1.44s-1.04,2.37-1.04,4.25Z"/><path d="m880.17,155.48c0-2.27.54-4.09,1.61-5.48s2.48-2.07,4.22-2.07,3.1.59,4.12,1.78v-7.71h2.53v21h-2.32l-.12-1.59c-1.01,1.24-2.42,1.86-4.22,1.86s-3.11-.7-4.19-2.11c-1.08-1.4-1.62-3.24-1.62-5.5v-.19Zm2.53.29c0,1.68.35,2.99,1.04,3.94.69.95,1.65,1.42,2.87,1.42,1.6,0,2.78-.72,3.51-2.16v-6.79c-.76-1.39-1.92-2.09-3.49-2.09-1.24,0-2.21.48-2.9,1.44s-1.04,2.37-1.04,4.25Z"/><path d="m899.33,163h-2.53v-21h2.53v21Z"/><path d="m909.51,163.27c-2,0-3.64-.66-4.89-1.98-1.26-1.32-1.89-3.08-1.89-5.28v-.46c0-1.47.28-2.78.84-3.93.56-1.15,1.34-2.06,2.35-2.71,1.01-.65,2.1-.98,3.27-.98,1.92,0,3.42.63,4.48,1.9,1.07,1.27,1.6,3.08,1.6,5.44v1.05h-10.02c.04,1.46.46,2.64,1.28,3.53.82.9,1.85,1.35,3.11,1.35.89,0,1.65-.18,2.27-.55.62-.36,1.16-.85,1.63-1.45l1.54,1.2c-1.24,1.91-3.1,2.86-5.58,2.86Zm-.31-13.26c-1.02,0-1.88.37-2.57,1.11-.69.74-1.12,1.78-1.29,3.12h7.41v-.19c-.07-1.29-.42-2.28-1.04-2.99-.62-.71-1.46-1.06-2.52-1.06Z"/><path d="m924.47,155.47c0-1.45.29-2.75.85-3.91.57-1.16,1.36-2.05,2.38-2.68s2.18-.94,3.48-.94c2.01,0,3.64.7,4.89,2.09s1.87,3.25,1.87,5.56v.18c0,1.44-.28,2.73-.83,3.88-.55,1.14-1.34,2.04-2.37,2.67-1.03.64-2.2.96-3.53.96-2,0-3.63-.7-4.87-2.09s-1.87-3.24-1.87-5.54v-.18Zm2.54.3c0,1.64.38,2.96,1.14,3.95.76.99,1.78,1.49,3.06,1.49s2.31-.5,3.06-1.51c.76-1.01,1.13-2.42,1.13-4.23,0-1.62-.38-2.94-1.16-3.94-.77-1.01-1.79-1.51-3.07-1.51s-2.26.5-3.02,1.49c-.77.99-1.15,2.42-1.15,4.27Z"/><path d="m942.35,163v-12.84h-2.34v-1.96h2.34v-1.52c0-1.59.42-2.81,1.27-3.68.85-.87,2.05-1.3,3.6-1.3.58,0,1.16.08,1.74.23l-.14,2.04c-.43-.08-.88-.12-1.37-.12-.82,0-1.45.24-1.9.72s-.67,1.17-.67,2.06v1.56h3.16v1.96h-3.16v12.84h-2.53Z"/><path d="m966.9,163c-.15-.29-.26-.81-.36-1.56-1.18,1.22-2.58,1.83-4.21,1.83-1.46,0-2.65-.41-3.59-1.24-.93-.82-1.4-1.87-1.4-3.14,0-1.54.59-2.74,1.76-3.59,1.17-.85,2.82-1.28,4.94-1.28h2.46v-1.16c0-.88-.26-1.59-.79-2.11-.53-.52-1.31-.79-2.34-.79-.9,0-1.66.23-2.27.68-.61.46-.92,1.01-.92,1.65h-2.54c0-.74.26-1.45.79-2.14.52-.69,1.24-1.23,2.13-1.63.9-.4,1.88-.6,2.96-.6,1.7,0,3.04.43,4.01,1.28.97.85,1.47,2.03,1.5,3.52v6.81c0,1.36.17,2.44.52,3.24v.22h-2.65Zm-4.2-1.93c.79,0,1.54-.21,2.26-.62s1.23-.94,1.54-1.6v-3.04h-1.98c-3.1,0-4.65.91-4.65,2.72,0,.79.26,1.41.79,1.86.53.45,1.21.67,2.04.67Z"/><path d="m982.67,163h-2.53v-21h2.53v21Z"/><path d="m986.05,155.47c0-1.45.29-2.75.85-3.91.57-1.16,1.36-2.05,2.38-2.68s2.18-.94,3.48-.94c2.01,0,3.64.7,4.89,2.09s1.87,3.25,1.87,5.56v.18c0,1.44-.28,2.73-.83,3.88-.55,1.14-1.34,2.04-2.37,2.67-1.03.64-2.2.96-3.53.96-2,0-3.63-.7-4.87-2.09s-1.87-3.24-1.87-5.54v-.18Zm2.54.3c0,1.64.38,2.96,1.14,3.95.76.99,1.78,1.49,3.06,1.49s2.31-.5,3.06-1.51c.76-1.01,1.13-2.42,1.13-4.23,0-1.62-.38-2.94-1.16-3.94-.77-1.01-1.79-1.51-3.07-1.51s-2.26.5-3.02,1.49c-.77.99-1.15,2.42-1.15,4.27Z"/><path d="m1002.02,155.47c0-1.45.29-2.75.85-3.91.57-1.16,1.36-2.05,2.38-2.68s2.18-.94,3.48-.94c2.01,0,3.64.7,4.89,2.09s1.87,3.25,1.87,5.56v.18c0,1.44-.28,2.73-.83,3.88-.55,1.14-1.34,2.04-2.37,2.67-1.03.64-2.2.96-3.53.96-2,0-3.63-.7-4.87-2.09s-1.87-3.24-1.87-5.54v-.18Zm2.54.3c0,1.64.38,2.96,1.14,3.95.76.99,1.78,1.49,3.06,1.49s2.31-.5,3.06-1.51c.76-1.01,1.13-2.42,1.13-4.23,0-1.62-.38-2.94-1.16-3.94-.77-1.01-1.79-1.51-3.07-1.51s-2.26.5-3.02,1.49c-.77.99-1.15,2.42-1.15,4.27Z"/><path d="m1031.15,155.77c0,2.25-.51,4.07-1.54,5.44-1.03,1.38-2.42,2.06-4.18,2.06s-3.21-.57-4.24-1.71v7.12h-2.53v-20.48h2.31l.12,1.64c1.03-1.28,2.46-1.91,4.29-1.91s3.18.67,4.22,2.01,1.55,3.2,1.55,5.59v.23Zm-2.53-.29c0-1.67-.36-2.98-1.07-3.95-.71-.97-1.69-1.45-2.93-1.45-1.53,0-2.68.68-3.45,2.04v7.07c.76,1.35,1.91,2.02,3.47,2.02,1.21,0,2.18-.48,2.89-1.44.72-.96,1.07-2.39,1.07-4.29Z"/><path d="m1041.2,154.92c0-2.06.28-4.04.83-5.93.55-1.9,1.37-3.62,2.47-5.17,1.09-1.55,2.23-2.64,3.4-3.28l.52,1.67c-1.33,1.02-2.42,2.58-3.27,4.68-.85,2.1-1.32,4.44-1.4,7.04v1.16c-.01,3.52.63,6.57,1.91,9.16.77,1.55,1.7,2.76,2.76,3.64l-.52,1.54c-1.21-.67-2.37-1.8-3.47-3.39-2.15-3.1-3.23-6.8-3.23-11.12Z"/><path d="m1060.58,163l.19-.93c1.52,0,2.48-.22,2.48-1.77,0-.5-.03-.93-.06-1.3l-.31-2.79h-8l-2.17,3.29c-.43.59-.78,1.15-.78,1.74,0,.65.43.84,1.8.84l-.22.93h-6.48l.22-.93c1.71,0,2.29-.5,4.62-4.03l10.73-15.53h1.3l2.45,16.81c.4,2.05.84,2.76,2.7,2.76l-.19.93h-8.28Zm1.15-16.99h-.09l-6.02,8.96h7.13l-1.02-8.96Z"/><path d="m1077.82,155.06c0,2.03-.27,3.98-.8,5.84-.53,1.86-1.35,3.58-2.45,5.16-1.1,1.58-2.25,2.7-3.45,3.36l-.53-1.54c1.4-1.08,2.53-2.75,3.38-5.01s1.29-4.78,1.31-7.54v-.44c0-1.91-.2-3.69-.6-5.34-.4-1.65-.96-3.12-1.67-4.42-.72-1.3-1.52-2.32-2.41-3.05l.53-1.54c1.2.67,2.35,1.78,3.44,3.34s1.91,3.28,2.45,5.15c.54,1.88.81,3.89.81,6.03Z"/><path d="m687.35,501.53h-2.64l-10.02-15.34v15.34h-2.64v-19.91h2.64l10.05,15.41v-15.41h2.61v19.91Z"/><path d="m690.95,494c0-1.45.29-2.75.85-3.91.57-1.16,1.36-2.05,2.38-2.68s2.18-.94,3.48-.94c2.01,0,3.64.7,4.89,2.09s1.87,3.25,1.87,5.56v.18c0,1.44-.28,2.73-.83,3.88-.55,1.14-1.34,2.04-2.37,2.67-1.03.64-2.2.96-3.53.96-2,0-3.63-.7-4.87-2.09s-1.87-3.24-1.87-5.54v-.18Zm2.54.3c0,1.64.38,2.96,1.14,3.95.76.99,1.78,1.49,3.06,1.49s2.31-.5,3.06-1.51c.76-1.01,1.13-2.42,1.13-4.23,0-1.62-.38-2.94-1.16-3.94-.77-1.01-1.79-1.51-3.07-1.51s-2.26.5-3.02,1.49c-.77.99-1.15,2.42-1.15,4.27Z"/><path d="m706.97,494.01c0-2.27.54-4.09,1.61-5.48s2.48-2.07,4.22-2.07,3.1.59,4.12,1.78v-7.71h2.53v21h-2.32l-.12-1.59c-1.01,1.24-2.42,1.86-4.22,1.86s-3.11-.7-4.19-2.11c-1.08-1.4-1.62-3.24-1.62-5.5v-.19Zm2.53.29c0,1.68.35,2.99,1.04,3.94.69.95,1.65,1.42,2.87,1.42,1.6,0,2.78-.72,3.51-2.16v-6.79c-.76-1.39-1.92-2.09-3.49-2.09-1.24,0-2.21.48-2.9,1.44s-1.04,2.38-1.04,4.25Z"/><path d="m729.52,501.8c-2,0-3.64-.66-4.89-1.98-1.26-1.32-1.89-3.08-1.89-5.28v-.46c0-1.47.28-2.78.84-3.93.56-1.15,1.34-2.05,2.35-2.71,1.01-.65,2.1-.98,3.27-.98,1.92,0,3.42.63,4.48,1.9,1.07,1.27,1.6,3.08,1.6,5.44v1.05h-10.02c.04,1.46.46,2.64,1.28,3.53.82.9,1.85,1.35,3.11,1.35.89,0,1.65-.18,2.27-.55.62-.36,1.16-.85,1.63-1.45l1.54,1.2c-1.24,1.91-3.1,2.86-5.58,2.86Zm-.31-13.26c-1.02,0-1.88.37-2.57,1.11-.69.74-1.12,1.78-1.29,3.12h7.41v-.19c-.07-1.29-.42-2.28-1.04-2.99-.62-.71-1.46-1.06-2.52-1.06Z"/><path d="m745.05,493.45c0-2.06.28-4.04.83-5.93.55-1.9,1.37-3.62,2.47-5.17,1.09-1.55,2.23-2.64,3.4-3.28l.52,1.67c-1.33,1.02-2.42,2.58-3.27,4.68-.85,2.1-1.32,4.44-1.4,7.04v1.16c-.01,3.52.63,6.57,1.91,9.16.77,1.55,1.7,2.76,2.76,3.64l-.52,1.54c-1.21-.67-2.37-1.8-3.47-3.39-2.15-3.1-3.23-6.8-3.23-11.12Z"/><path d="m776.89,482.09c-1.12,0-1.61.22-2.08.62-.59.5-1.09,1.12-1.58,3.53l-3.16,15.53h-1.02l-9.12-16.65h-.16l-2.42,11.78c-.62,3.1-.22,3.69,2.11,3.69l-.19.93h-7.13l.19-.93c2.42,0,2.88-.56,3.5-3.69l2.76-13.39c-.71-1.15-1.24-1.43-2.57-1.43l.19-.93h4.87l8.37,15.25h.16l2.14-10.32c.37-1.86.37-2.7.09-3.22-.37-.62-.96-.78-2.26-.78l.19-.93h7.32l-.19.93Z"/><path d="m782.69,493.59c0,2.03-.27,3.98-.8,5.84-.53,1.86-1.35,3.58-2.45,5.16s-2.25,2.7-3.45,3.36l-.53-1.54c1.4-1.08,2.53-2.75,3.38-5.01s1.29-4.78,1.31-7.54v-.44c0-1.91-.2-3.69-.6-5.34-.4-1.64-.96-3.12-1.67-4.42-.72-1.3-1.52-2.32-2.41-3.05l.53-1.54c1.2.67,2.35,1.78,3.44,3.34s1.91,3.28,2.45,5.15c.54,1.88.81,3.89.81,6.03Z"/><path d="m687.35,260.53h-2.64l-10.02-15.34v15.34h-2.64v-19.91h2.64l10.05,15.41v-15.41h2.61v19.91Z"/><path d="m690.95,253c0-1.45.29-2.75.85-3.91.57-1.16,1.36-2.05,2.38-2.68s2.18-.94,3.48-.94c2.01,0,3.64.7,4.89,2.09s1.87,3.25,1.87,5.56v.18c0,1.44-.28,2.73-.83,3.88-.55,1.14-1.34,2.04-2.37,2.67-1.03.64-2.2.96-3.53.96-2,0-3.63-.7-4.87-2.09s-1.87-3.24-1.87-5.54v-.18Zm2.54.3c0,1.64.38,2.96,1.14,3.95.76.99,1.78,1.49,3.06,1.49s2.31-.5,3.06-1.51c.76-1.01,1.13-2.42,1.13-4.23,0-1.62-.38-2.94-1.16-3.94-.77-1.01-1.79-1.51-3.07-1.51s-2.26.5-3.02,1.49c-.77.99-1.15,2.42-1.15,4.27Z"/><path d="m706.97,253.01c0-2.27.54-4.09,1.61-5.48s2.48-2.07,4.22-2.07,3.1.59,4.12,1.78v-7.71h2.53v21h-2.32l-.12-1.59c-1.01,1.24-2.42,1.86-4.22,1.86s-3.11-.7-4.19-2.11c-1.08-1.4-1.62-3.24-1.62-5.5v-.19Zm2.53.29c0,1.68.35,2.99,1.04,3.94.69.95,1.65,1.42,2.87,1.42,1.6,0,2.78-.72,3.51-2.16v-6.79c-.76-1.39-1.92-2.09-3.49-2.09-1.24,0-2.21.48-2.9,1.44s-1.04,2.38-1.04,4.25Z"/><path d="m729.52,260.8c-2,0-3.64-.66-4.89-1.98-1.26-1.32-1.89-3.08-1.89-5.28v-.46c0-1.47.28-2.78.84-3.93.56-1.15,1.34-2.05,2.35-2.71,1.01-.65,2.1-.98,3.27-.98,1.92,0,3.42.63,4.48,1.9,1.07,1.27,1.6,3.08,1.6,5.44v1.05h-10.02c.04,1.46.46,2.64,1.28,3.53.82.9,1.85,1.35,3.11,1.35.89,0,1.65-.18,2.27-.55.62-.36,1.16-.85,1.63-1.45l1.54,1.2c-1.24,1.91-3.1,2.86-5.58,2.86Zm-.31-13.26c-1.02,0-1.88.37-2.57,1.11-.69.74-1.12,1.78-1.29,3.12h7.41v-.19c-.07-1.29-.42-2.28-1.04-2.99-.62-.71-1.46-1.06-2.52-1.06Z"/><path d="m745.05,252.45c0-2.06.28-4.04.83-5.93.55-1.9,1.37-3.62,2.47-5.17,1.09-1.55,2.23-2.64,3.4-3.28l.52,1.67c-1.33,1.02-2.42,2.58-3.27,4.68-.85,2.1-1.32,4.44-1.4,7.04v1.16c-.01,3.52.63,6.57,1.91,9.16.77,1.55,1.7,2.76,2.76,3.64l-.52,1.54c-1.21-.67-2.37-1.8-3.47-3.39-2.15-3.1-3.23-6.8-3.23-11.12Z"/><path d="m776.89,241.09c-1.12,0-1.61.22-2.08.62-.59.5-1.09,1.12-1.58,3.53l-3.16,15.53h-1.02l-9.12-16.65h-.16l-2.42,11.78c-.62,3.1-.22,3.69,2.11,3.69l-.19.93h-7.13l.19-.93c2.42,0,2.88-.56,3.5-3.69l2.76-13.39c-.71-1.15-1.24-1.43-2.57-1.43l.19-.93h4.87l8.37,15.25h.16l2.14-10.32c.37-1.86.37-2.7.09-3.22-.37-.62-.96-.78-2.26-.78l.19-.93h7.32l-.19.93Z"/><path d="m782.69,252.59c0,2.03-.27,3.98-.8,5.84-.53,1.86-1.35,3.58-2.45,5.16s-2.25,2.7-3.45,3.36l-.53-1.54c1.4-1.08,2.53-2.75,3.38-5.01s1.29-4.78,1.31-7.54v-.44c0-1.91-.2-3.69-.6-5.34-.4-1.64-.96-3.12-1.67-4.42-.72-1.3-1.52-2.32-2.41-3.05l.53-1.54c1.2.67,2.35,1.78,3.44,3.34s1.91,3.28,2.45,5.15c.54,1.88.81,3.89.81,6.03Z"/><path d="m683.05,382.32h-8.34l-1.87,5.21h-2.71l7.6-19.91h2.3l7.62,19.91h-2.69l-1.9-5.21Zm-7.55-2.15h6.77l-3.39-9.31-3.38,9.31Z"/><path d="m692.32,372.74l.08,1.86c1.13-1.42,2.61-2.13,4.43-2.13,3.13,0,4.7,1.76,4.73,5.29v9.78h-2.53v-9.79c0-1.07-.25-1.85-.73-2.37-.48-.51-1.22-.77-2.24-.77-.82,0-1.54.22-2.16.66s-1.1,1.01-1.45,1.72v10.54h-2.53v-14.79h2.39Z"/><path d="m708.8,369.16v3.58h2.76v1.96h-2.76v9.19c0,.59.12,1.04.37,1.33.25.3.67.44,1.26.44.29,0,.69-.05,1.2-.16v2.04c-.67.18-1.31.27-1.94.27-1.13,0-1.98-.34-2.56-1.03s-.86-1.65-.86-2.91v-9.17h-2.69v-1.96h2.69v-3.58h2.53Z"/><path d="m714.53,368.81c0-.41.12-.76.38-1.04.25-.28.62-.42,1.11-.42s.87.14,1.12.42c.25.28.38.63.38,1.04s-.13.75-.38,1.03-.63.41-1.12.41-.86-.14-1.11-.41-.38-.62-.38-1.03Zm2.73,18.72h-2.53v-14.79h2.53v14.79Z"/><path d="m723.71,372.74l.08,1.86c1.13-1.42,2.61-2.13,4.43-2.13,3.13,0,4.7,1.76,4.73,5.29v9.78h-2.53v-9.79c0-1.07-.25-1.85-.73-2.37-.48-.51-1.22-.77-2.24-.77-.82,0-1.54.22-2.16.66s-1.1,1.01-1.45,1.72v10.54h-2.53v-14.79h2.39Z"/><path d="m736.09,380c0-1.45.29-2.75.85-3.91.57-1.16,1.36-2.05,2.38-2.68s2.18-.94,3.48-.94c2.01,0,3.64.7,4.89,2.09s1.87,3.25,1.87,5.56v.18c0,1.44-.28,2.73-.83,3.88-.55,1.14-1.34,2.04-2.37,2.67-1.03.64-2.2.96-3.53.96-2,0-3.63-.7-4.87-2.09s-1.87-3.24-1.87-5.54v-.18Zm2.54.3c0,1.64.38,2.96,1.14,3.95.76.99,1.78,1.49,3.06,1.49s2.31-.5,3.06-1.51c.76-1.01,1.13-2.42,1.13-4.23,0-1.62-.38-2.94-1.16-3.94-.77-1.01-1.79-1.51-3.07-1.51s-2.26.5-3.02,1.49c-.77.99-1.15,2.42-1.15,4.27Z"/><path d="m752.12,380.01c0-2.27.54-4.09,1.61-5.48s2.48-2.07,4.22-2.07,3.1.59,4.12,1.78v-7.71h2.53v21h-2.32l-.12-1.59c-1.01,1.24-2.42,1.86-4.22,1.86s-3.11-.7-4.19-2.11c-1.08-1.4-1.62-3.24-1.62-5.5v-.19Zm2.53.29c0,1.68.35,2.99,1.04,3.94.69.95,1.65,1.42,2.87,1.42,1.6,0,2.78-.72,3.51-2.16v-6.79c-.76-1.39-1.92-2.09-3.49-2.09-1.24,0-2.21.48-2.9,1.44s-1.04,2.38-1.04,4.25Z"/><path d="m774.66,387.8c-2,0-3.64-.66-4.89-1.98-1.26-1.32-1.89-3.08-1.89-5.28v-.46c0-1.47.28-2.78.84-3.93.56-1.15,1.34-2.05,2.35-2.71,1.01-.65,2.1-.98,3.27-.98,1.92,0,3.42.63,4.48,1.9,1.07,1.27,1.6,3.08,1.6,5.44v1.05h-10.02c.04,1.46.46,2.64,1.28,3.53.82.9,1.85,1.35,3.11,1.35.89,0,1.65-.18,2.27-.55.62-.36,1.16-.85,1.63-1.45l1.54,1.2c-1.24,1.91-3.1,2.86-5.58,2.86Zm-.31-13.26c-1.02,0-1.88.37-2.57,1.11-.69.74-1.12,1.78-1.29,3.12h7.41v-.19c-.07-1.29-.42-2.28-1.04-2.99-.62-.71-1.46-1.06-2.52-1.06Z"/><path d="m790.19,379.45c0-2.06.28-4.04.83-5.93.55-1.9,1.37-3.62,2.47-5.17,1.09-1.55,2.23-2.64,3.4-3.28l.52,1.67c-1.33,1.02-2.42,2.58-3.27,4.68-.85,2.1-1.32,4.44-1.4,7.04v1.16c-.01,3.52.63,6.57,1.91,9.16.77,1.55,1.7,2.76,2.76,3.64l-.52,1.54c-1.21-.67-2.37-1.8-3.47-3.39-2.15-3.1-3.23-6.8-3.23-11.12Z"/><path d="m809.57,387.53l.19-.93c1.52,0,2.48-.22,2.48-1.77,0-.5-.03-.93-.06-1.3l-.31-2.79h-8l-2.17,3.29c-.43.59-.78,1.15-.78,1.74,0,.65.43.84,1.8.84l-.22.93h-6.48l.22-.93c1.71,0,2.29-.5,4.62-4.03l10.73-15.53h1.3l2.45,16.81c.4,2.05.84,2.76,2.7,2.76l-.19.93h-8.28Zm1.15-16.99h-.09l-6.02,8.96h7.13l-1.02-8.96Z"/><path d="m826.81,379.59c0,2.03-.27,3.98-.8,5.84-.53,1.86-1.35,3.58-2.45,5.16s-2.25,2.7-3.45,3.36l-.53-1.54c1.4-1.08,2.53-2.75,3.38-5.01s1.29-4.78,1.31-7.54v-.44c0-1.91-.2-3.69-.6-5.34-.4-1.64-.96-3.12-1.67-4.42-.72-1.3-1.52-2.32-2.41-3.05l.53-1.54c1.2.67,2.35,1.78,3.44,3.34s1.91,3.28,2.45,5.15c.54,1.88.81,3.89.81,6.03Z"/><path d="m105.18,325.13c-2.25-.65-3.89-1.44-4.92-2.39s-1.54-2.11-1.54-3.49c0-1.57.63-2.86,1.88-3.89s2.88-1.54,4.89-1.54c1.37,0,2.59.26,3.66.79,1.07.53,1.9,1.26,2.49,2.19s.88,1.95.88,3.05h-2.64c0-1.21-.38-2.16-1.15-2.85s-1.85-1.04-3.24-1.04c-1.29,0-2.3.29-3.03.86-.72.57-1.09,1.36-1.09,2.38,0,.81.34,1.5,1.03,2.06s1.86,1.08,3.51,1.54,2.95.98,3.88,1.54,1.63,1.21,2.08,1.96c.45.75.68,1.63.68,2.64,0,1.61-.63,2.91-1.89,3.88s-2.94,1.46-5.04,1.46c-1.37,0-2.64-.26-3.83-.79-1.18-.52-2.1-1.24-2.74-2.15-.64-.91-.96-1.95-.96-3.1h2.64c0,1.2.44,2.15,1.33,2.85s2.08,1.05,3.56,1.05c1.39,0,2.45-.28,3.19-.85.74-.56,1.11-1.33,1.11-2.31s-.34-1.73-1.03-2.26-1.92-1.06-3.72-1.58Z"/><path d="m121.66,334.27c-2,0-3.64-.66-4.89-1.98-1.26-1.32-1.89-3.08-1.89-5.28v-.46c0-1.47.28-2.78.84-3.93.56-1.15,1.34-2.05,2.35-2.71,1.01-.65,2.1-.98,3.27-.98,1.92,0,3.42.63,4.48,1.9,1.07,1.27,1.6,3.08,1.6,5.44v1.05h-10.02c.04,1.46.46,2.64,1.28,3.53.82.9,1.85,1.35,3.11,1.35.89,0,1.65-.18,2.27-.55.62-.36,1.16-.85,1.63-1.45l1.54,1.2c-1.24,1.91-3.1,2.86-5.58,2.86Zm-.31-13.26c-1.02,0-1.88.37-2.57,1.11-.69.74-1.12,1.78-1.29,3.12h7.41v-.19c-.07-1.29-.42-2.28-1.04-2.99-.62-.71-1.46-1.06-2.52-1.06Z"/><path d="m136.29,332.21c.9,0,1.69-.27,2.37-.82s1.05-1.23,1.12-2.05h2.39c-.05.85-.34,1.65-.88,2.42s-1.26,1.38-2.15,1.83c-.9.46-1.85.68-2.85.68-2.01,0-3.62-.67-4.81-2.02-1.19-1.34-1.78-3.18-1.78-5.52v-.42c0-1.44.26-2.72.79-3.84s1.29-1.99,2.28-2.61c.99-.62,2.16-.93,3.51-.93,1.66,0,3.04.5,4.14,1.49,1.1.99,1.68,2.28,1.76,3.87h-2.39c-.07-.96-.44-1.74-1.09-2.36s-1.46-.92-2.41-.92c-1.29,0-2.28.46-2.99,1.39-.71.93-1.06,2.26-1.06,4.01v.48c0,1.71.35,3.02,1.05,3.94.7.92,1.7,1.38,3.01,1.38Z"/><path d="m144.35,326.47c0-1.45.29-2.75.85-3.91.57-1.16,1.36-2.05,2.38-2.68s2.18-.94,3.48-.94c2.01,0,3.64.7,4.89,2.09s1.87,3.25,1.87,5.56v.18c0,1.44-.28,2.73-.83,3.88-.55,1.14-1.34,2.04-2.37,2.67-1.03.64-2.2.96-3.53.96-2,0-3.63-.7-4.87-2.09s-1.87-3.24-1.87-5.54v-.18Zm2.54.3c0,1.64.38,2.96,1.14,3.95.76.99,1.78,1.49,3.06,1.49s2.31-.5,3.06-1.51c.76-1.01,1.13-2.42,1.13-4.23,0-1.62-.38-2.94-1.16-3.94-.77-1.01-1.79-1.51-3.07-1.51s-2.26.5-3.02,1.49c-.77.99-1.15,2.42-1.15,4.27Z"/><path d="m163.38,319.21l.08,1.86c1.13-1.42,2.61-2.13,4.43-2.13,3.13,0,4.7,1.76,4.73,5.29v9.78h-2.53v-9.79c0-1.07-.25-1.85-.73-2.37-.48-.51-1.22-.77-2.24-.77-.82,0-1.54.22-2.16.66s-1.1,1.01-1.45,1.72v10.54h-2.53v-14.79h2.39Z"/><path d="m175.82,326.48c0-2.27.54-4.09,1.61-5.48s2.48-2.07,4.22-2.07,3.1.59,4.12,1.78v-7.71h2.53v21h-2.32l-.12-1.59c-1.01,1.24-2.42,1.86-4.22,1.86s-3.11-.7-4.19-2.11c-1.08-1.4-1.62-3.24-1.62-5.5v-.19Zm2.53.29c0,1.68.35,2.99,1.04,3.94.69.95,1.65,1.42,2.87,1.42,1.6,0,2.78-.72,3.51-2.16v-6.79c-.76-1.39-1.92-2.09-3.49-2.09-1.24,0-2.21.48-2.9,1.44s-1.04,2.38-1.04,4.25Z"/><path d="m206.31,321.48c-.38-.06-.8-.1-1.24-.1-1.66,0-2.78.71-3.38,2.12v10.5h-2.53v-14.79h2.46l.04,1.71c.83-1.32,2-1.98,3.53-1.98.49,0,.87.06,1.12.19v2.35Z"/><path d="m214.51,334.27c-2,0-3.64-.66-4.89-1.98-1.26-1.32-1.89-3.08-1.89-5.28v-.46c0-1.47.28-2.78.84-3.93.56-1.15,1.34-2.05,2.35-2.71,1.01-.65,2.1-.98,3.27-.98,1.92,0,3.42.63,4.48,1.9,1.07,1.27,1.6,3.08,1.6,5.44v1.05h-10.02c.04,1.46.46,2.64,1.28,3.53.82.9,1.85,1.35,3.11,1.35.89,0,1.65-.18,2.27-.55.62-.36,1.16-.85,1.63-1.45l1.54,1.2c-1.24,1.91-3.1,2.86-5.58,2.86Zm-.31-13.26c-1.02,0-1.88.37-2.57,1.11-.69.74-1.12,1.78-1.29,3.12h7.41v-.19c-.07-1.29-.42-2.28-1.04-2.99-.62-.71-1.46-1.06-2.52-1.06Z"/><path d="m231.82,330.08c0-.68-.26-1.21-.77-1.59-.51-.38-1.41-.7-2.69-.98s-2.3-.6-3.05-.98-1.31-.84-1.67-1.37c-.36-.53-.54-1.16-.54-1.89,0-1.21.51-2.24,1.54-3.08,1.03-.84,2.34-1.26,3.93-1.26,1.68,0,3.04.43,4.08,1.3,1.04.87,1.57,1.97,1.57,3.32h-2.54c0-.69-.29-1.29-.88-1.79-.59-.5-1.33-.75-2.22-.75s-1.64.2-2.16.6c-.52.4-.78.93-.78,1.57,0,.61.24,1.07.72,1.38.48.31,1.36.61,2.62.89,1.26.28,2.29.62,3.07,1.01.78.39,1.37.86,1.74,1.42.38.55.57,1.22.57,2.02,0,1.32-.53,2.38-1.59,3.18-1.06.8-2.43,1.2-4.12,1.2-1.18,0-2.23-.21-3.14-.63s-1.62-1-2.14-1.76-.77-1.57-.77-2.44h2.53c.05.85.38,1.52,1.02,2.02.63.5,1.47.75,2.51.75.96,0,1.72-.19,2.3-.58.58-.39.87-.9.87-1.55Z"/><path d="m236.97,326.47c0-1.45.29-2.75.85-3.91.57-1.16,1.36-2.05,2.38-2.68s2.18-.94,3.48-.94c2.01,0,3.64.7,4.89,2.09s1.87,3.25,1.87,5.56v.18c0,1.44-.28,2.73-.83,3.88-.55,1.14-1.34,2.04-2.37,2.67-1.03.64-2.2.96-3.53.96-2,0-3.63-.7-4.87-2.09s-1.87-3.24-1.87-5.54v-.18Zm2.54.3c0,1.64.38,2.96,1.14,3.95.76.99,1.78,1.49,3.06,1.49s2.31-.5,3.06-1.51c.76-1.01,1.13-2.42,1.13-4.23,0-1.62-.38-2.94-1.16-3.94-.77-1.01-1.79-1.51-3.07-1.51s-2.26.5-3.02,1.49c-.77.99-1.15,2.42-1.15,4.27Z"/><path d="m256,319.21l.08,1.86c1.13-1.42,2.61-2.13,4.43-2.13,3.13,0,4.7,1.76,4.73,5.29v9.78h-2.53v-9.79c0-1.07-.25-1.85-.73-2.37-.48-.51-1.22-.77-2.24-.77-.82,0-1.54.22-2.16.66s-1.1,1.01-1.45,1.72v10.54h-2.53v-14.79h2.39Z"/><path d="m278.19,334c-.15-.29-.26-.81-.36-1.56-1.18,1.22-2.58,1.83-4.21,1.83-1.46,0-2.65-.41-3.59-1.24-.93-.82-1.4-1.87-1.4-3.14,0-1.54.59-2.74,1.76-3.59,1.17-.85,2.82-1.28,4.94-1.28h2.46v-1.16c0-.88-.26-1.59-.79-2.11-.53-.52-1.31-.79-2.34-.79-.9,0-1.66.23-2.27.68-.61.46-.92,1.01-.92,1.65h-2.54c0-.74.26-1.45.79-2.14.52-.69,1.24-1.23,2.13-1.63.9-.4,1.88-.6,2.96-.6,1.7,0,3.04.43,4.01,1.28.97.85,1.47,2.03,1.5,3.52v6.81c0,1.36.17,2.44.52,3.24v.22h-2.65Zm-4.2-1.93c.79,0,1.54-.21,2.26-.62s1.23-.94,1.54-1.6v-3.04h-1.98c-3.1,0-4.65.91-4.65,2.72,0,.79.26,1.41.79,1.86.53.45,1.21.67,2.04.67Z"/><path d="m286.68,319.21l.08,1.86c1.13-1.42,2.61-2.13,4.43-2.13,3.13,0,4.7,1.76,4.73,5.29v9.78h-2.53v-9.79c0-1.07-.25-1.85-.73-2.37-.48-.51-1.22-.77-2.24-.77-.82,0-1.54.22-2.16.66s-1.1,1.01-1.45,1.72v10.54h-2.53v-14.79h2.39Z"/><path d="m303.17,315.62v3.58h2.76v1.96h-2.76v9.19c0,.59.12,1.04.37,1.33.25.3.67.44,1.26.44.29,0,.69-.05,1.2-.16v2.04c-.67.18-1.31.27-1.94.27-1.13,0-1.98-.34-2.56-1.03s-.86-1.65-.86-2.91v-9.17h-2.69v-1.96h2.69v-3.58h2.53Z"/><path d="m318.57,334h-2.53v-21h2.53v21Z"/><path d="m328.75,334.27c-2,0-3.64-.66-4.89-1.98-1.26-1.32-1.89-3.08-1.89-5.28v-.46c0-1.47.28-2.78.84-3.93.56-1.15,1.34-2.05,2.35-2.71,1.01-.65,2.1-.98,3.27-.98,1.92,0,3.42.63,4.48,1.9,1.07,1.27,1.6,3.08,1.6,5.44v1.05h-10.02c.04,1.46.46,2.64,1.28,3.53.82.9,1.85,1.35,3.11,1.35.89,0,1.65-.18,2.27-.55.62-.36,1.16-.85,1.63-1.45l1.54,1.2c-1.24,1.91-3.1,2.86-5.58,2.86Zm-.31-13.26c-1.02,0-1.88.37-2.57,1.11-.69.74-1.12,1.78-1.29,3.12h7.41v-.19c-.07-1.29-.42-2.28-1.04-2.99-.62-.71-1.46-1.06-2.52-1.06Z"/><path d="m339.84,319.21l.08,1.86c1.13-1.42,2.61-2.13,4.43-2.13,3.13,0,4.7,1.76,4.73,5.29v9.78h-2.53v-9.79c0-1.07-.25-1.85-.73-2.37-.48-.51-1.22-.77-2.24-.77-.82,0-1.54.22-2.16.66s-1.1,1.01-1.45,1.72v10.54h-2.53v-14.79h2.39Z"/><path d="m352.29,326.48c0-2.31.53-4.14,1.6-5.5,1.07-1.36,2.48-2.04,4.24-2.04s3.21.64,4.22,1.91l.12-1.64h2.31v14.44c0,1.91-.57,3.42-1.7,4.53s-2.66,1.65-4.57,1.65c-1.07,0-2.11-.23-3.13-.68s-1.8-1.08-2.34-1.87l1.31-1.52c1.08,1.34,2.41,2.01,3.98,2.01,1.23,0,2.19-.35,2.88-1.04s1.03-1.67,1.03-2.93v-1.27c-1.01,1.17-2.39,1.75-4.14,1.75s-3.13-.7-4.2-2.09-1.61-3.29-1.61-5.7Zm2.54.29c0,1.67.34,2.98,1.03,3.93.68.95,1.64,1.43,2.87,1.43,1.59,0,2.77-.72,3.51-2.17v-6.75c-.77-1.41-1.94-2.12-3.49-2.12-1.23,0-2.19.48-2.88,1.44s-1.04,2.38-1.04,4.25Z"/><path d="m372.04,315.62v3.58h2.76v1.96h-2.76v9.19c0,.59.12,1.04.37,1.33.25.3.67.44,1.26.44.29,0,.69-.05,1.2-.16v2.04c-.67.18-1.31.27-1.94.27-1.13,0-1.98-.34-2.56-1.03s-.86-1.65-.86-2.91v-9.17h-2.69v-1.96h2.69v-3.58h2.53Z"/><path d="m380.28,321c1.12-1.38,2.58-2.06,4.38-2.06,3.13,0,4.7,1.76,4.73,5.29v9.78h-2.53v-9.79c0-1.07-.25-1.85-.73-2.37-.48-.51-1.22-.77-2.24-.77-.82,0-1.54.22-2.16.66s-1.1,1.01-1.45,1.72v10.54h-2.53v-21h2.53v8Z"/><path d="m418.71,334h-15.32l.19-.93c2.39,0,2.88-.43,3.41-2.92l2.67-12.93c.43-2.05.28-2.67-2.39-2.67l.19-.93h8.81l-.16.93c-2.23,0-3.22.46-3.69,2.7l-2.82,13.89c-.28,1.36.19,1.67,2.02,1.67h1.46c3.94,0,4.59-1.27,6.51-4.87h.99l-1.86,6.05Z"/><path d="m428.29,344.32h-7.05l.13-.61,3.31-2.71c2.76-2.4,3.76-3.47,3.76-5.4,0-1.05-.61-1.77-1.79-1.77s-1.99.47-3.02,1.81l-.4-.18c1.01-1.72,2.26-2.76,4.14-2.76,1.72,0,2.76.99,2.76,2.53,0,1.88-1.26,3.11-4.01,5.38l-2.78,2.26-.02.09,1.21-.05h2.51c.96,0,1.26-.38,1.91-1.46h.52l-1.19,2.89Z"/><path d="m436.37,323.4v-2.11h18.48v2.11h-18.48Zm0,7.35v-2.08h18.48v2.08h-18.48Z"/><path d="m466.76,299.3h1.9c1.19-.02,2.13-.33,2.82-.94s1.03-1.44,1.03-2.47c0-2.33-1.16-3.5-3.49-3.5-1.09,0-1.97.31-2.62.94s-.98,1.45-.98,2.48h-2.53c0-1.58.58-2.89,1.73-3.93s2.62-1.57,4.4-1.57c1.88,0,3.35.5,4.42,1.49s1.6,2.37,1.6,4.14c0,.87-.28,1.7-.84,2.52s-1.32,1.42-2.29,1.82c1.09.35,1.94.92,2.54,1.72s.9,1.78.9,2.94c0,1.79-.58,3.2-1.75,4.25s-2.68,1.57-4.55,1.57-3.39-.51-4.56-1.52-1.76-2.35-1.76-4.01h2.54c0,1.05.34,1.89,1.03,2.52s1.6.94,2.75.94c1.22,0,2.16-.32,2.8-.96s.97-1.55.97-2.75-.36-2.05-1.07-2.67-1.74-.94-3.08-.96h-1.9v-2.06Z"/><path d="m487.84,303.85c0,2.6.5,4.53,1.83,4.53.81,0,1.46-.25,2.26-1.09l.53.5c-.96,1.77-2.54,3.07-4.09,3.07-1.71,0-2.36-1.46-2.36-3.81,0-2.79.47-5.21.68-8.15h-.19c-.96,1.36-5.33,8.5-7.1,11.6h-3.1v-.5c3.19-4.34,7.22-9.74,10.42-14.05.03-.65.03-.68.03-1.64,0-2.08-.62-3.29-1.92-3.29-1.02,0-1.74.31-2.54,1.05l-.65-.46c.99-1.74,2.33-2.98,4.28-2.98,2.23,0,2.33,2.11,2.33,4.56,0,3.78-.4,7.26-.4,10.67Z"/><path d="m462.42,325.6l.37-1.77h29.15l-.37,1.77h-29.15Z"/><line x1="483.02" y1="100.97" x2="559.41" y2="100.97" fill="none" stroke="#d12d32" stroke-miterlimit="10" stroke-width="7"/><polyline points="648.02 87.97 557.02 87.97 557.02 113.97 648.02 113.97" fill="none" stroke="#d12d32" stroke-miterlimit="10" stroke-width="7"/><polyline points="652 152.47 652 494.5 578 494.5 578 152.47" fill="none" stroke="#000" stroke-miterlimit="10" stroke-width="3"/><line x1="478.93" y1="150.97" x2="481.93" y2="150.97" fill="none" stroke="#000" stroke-linecap="round" stroke-linejoin="round" stroke-width="2"/><line x1="487.67" y1="150.97" x2="565.15" y2="150.97" fill="none" stroke="#000" stroke-dasharray="0 0 5.74 5.74" stroke-linecap="round" stroke-linejoin="round" stroke-width="2"/><line x1="568.01" y1="150.97" x2="571.01" y2="150.97" fill="none" stroke="#000" stroke-linecap="round" stroke-linejoin="round" stroke-width="2"/><line x1="478.93" y1="495.97" x2="481.93" y2="495.97" fill="none" stroke="#000" stroke-linecap="round" stroke-linejoin="round" stroke-width="2"/><line x1="487.67" y1="495.97" x2="565.15" y2="495.97" fill="none" stroke="#000" stroke-dasharray="0 0 5.74 5.74" stroke-linecap="round" stroke-linejoin="round" stroke-width="2"/><line x1="568.01" y1="495.97" x2="571.01" y2="495.97" fill="none" stroke="#000" stroke-linecap="round" stroke-linejoin="round" stroke-width="2"/><line x1="522.61" y1="481.02" x2="522.61" y2="163.95" fill="none" stroke="#000" stroke-linecap="round" stroke-linejoin="round" stroke-width="2"/><polygon points="530.59 478.68 522.61 492.5 514.64 478.68 530.59 478.68"/><polygon points="530.59 166.28 522.61 152.47 514.64 166.28 530.59 166.28"/></svg>