<?xml version="1.0" encoding="UTF-8"?>
<svg id="a" data-name="Layer 1" xmlns="http://www.w3.org/2000/svg" width="1140" height="515.666" xmlns:xlink="http://www.w3.org/1999/xlink" viewBox="0 0 1140 515.666">
  <defs>
    <clipPath id="b">
      <path d="m684.499,147.633c-13.612,4.366-25.966,11.664-34.228,23.204-13.363,18.663-13.108,43.342-24.581,63.013-18.188,31.183-77.711,28.15-72.645,74.332,1.773,16.159,12.354,30.384,25.604,39.802,13.728,9.758,32.952,18.266,49.956,18.616,11.058.228,21.869-2.932,32.518-5.924,23.589-6.626,48.486-13.077,73.075-8.959,25.515,4.274,49.474,14.65,74.288,21.576,30.938,8.636,57.563,8.668,86.373-4.689,27.718-12.851,60.545,5.14,87.152-12.04,11.195-7.229,18.792-18.961,23.98-31.235,8.224-19.454,11.116-41.549,5.665-61.955-3.996-14.963-12.745-28.899-25.02-38.44-11.634-9.043-28.944-13.096-37.154-26.032-3.985-6.279-4.955-13.926-6.52-21.196-3.589-16.668-15.632-25.997-30.648-32.793-39.343-17.807-76.891-4.761-116.812,1.643-23.255,3.731-46.384-4.281-69.629-4.545-13.191-.15-27.898,1.3-41.373,5.623Z" clip-rule="evenodd" fill="#b7cfe5"/>
    </clipPath>
    <clipPath id="c">
      <path d="m804.034,242.514h-111.13c-19.75,0-38.098,10.209-48.51,26.992l-66.316,106.898,240.757,12.631v-131.72c0-8.174-6.626-14.801-14.801-14.801Z" fill="#f6f7f8"/>
    </clipPath>
    <clipPath id="d">
      <rect x="815.974" y="198.23" width="485.687" height="279.495" rx="13.441" ry="13.441" fill="#f6f7f8"/>
    </clipPath>
    <clipPath id="e">
      <path d="m166.465,150.148c-13.085,4.58-25.053,12.986-32.574,24.436-6.649,10.124-8.635,23.99-2.385,34.366,4.913,8.156,13.517,13.065,19.323,20.478,7.007,8.947,5.801,20.925,1.861,31.062-4.39,11.296-12.61,20.332-17.336,31.429-4.147,9.74-5.235,21.815,1.103,30.293,8.327,11.14,24.83,11.167,37.077,17.759,13.692,7.369,21.282,22.559,33.597,32.053,16.865,13.001,42.497,13.056,59.418.127,9.555-7.3,16.254-17.997,26.36-24.513,9.51-6.132,21.099-7.963,32.346-9.214s22.782-2.124,33.129-6.704,19.48-13.808,20.387-25.088c1.307-16.259-13.508-29.549-10.896-45.907,1.581-9.903,9.273-17.309,12.928-26.382,4.336-10.764,4.961-23.146,1.643-34.258-3.766-12.613-12.589-23.639-24.069-30.079-10.816-6.067-22.947-8.959-34.409-13.486-11.97-4.727-20.851-13.457-32.293-18.938-11.097-5.316-23.354-5.066-35.056-2.053-14.622,3.765-28.393,10.528-43.645,11.413-15.476.898-31.537-2.036-46.51,3.205Z" fill="#bfded6"/>
    </clipPath>
  </defs>
  <path d="m230.69,10.11c-41.353-.219-83.408-.344-123.061,11.143C67.977,32.741,30.353,57.746,14.114,94.972c-21.958,50.336-.708,107.493,3.035,162.103,2.678,39.07-3.735,78.131-5.032,117.09-1.085,32.585-2.221,68.755,21.071,94.73,19.721,21.993,51.03,28.782,80.321,32.61,99.587,13.013,200.182,5.652,300.096,1.492,84.358-3.512,168.875-4.695,253.306-4.893,90.128-.211,180.248,1.548,270.366,2.61,67.512.795,173.84-1.028,196.4-83.237,9.913-36.125-5.875-73.125-7.93-109.252-2.251-39.569,5.987-78.778,7.202-118.235,1.647-53.457,1.829-112.563-43.572-149.263-20.873-16.873-47.27-25.782-73.838-29.597-61.35-8.81-127.428-2.336-189.099,1.276-62.299,3.649-124.563,8.799-186.973,10.161-108.393,2.365-368.028-12.242-408.777-12.457Z" fill="#f5e8df" fill-rule="evenodd"/>
  <g>
    <path d="m684.499,147.633c-13.612,4.366-25.966,11.664-34.228,23.204-13.363,18.663-13.108,43.342-24.581,63.013-18.188,31.183-77.711,28.15-72.645,74.332,1.773,16.159,12.354,30.384,25.604,39.802,13.728,9.758,32.952,18.266,49.956,18.616,11.058.228,21.869-2.932,32.518-5.924,23.589-6.626,48.486-13.077,73.075-8.959,25.515,4.274,49.474,14.65,74.288,21.576,30.938,8.636,57.563,8.668,86.373-4.689,27.718-12.851,60.545,5.14,87.152-12.04,11.195-7.229,18.792-18.961,23.98-31.235,8.224-19.454,11.116-41.549,5.665-61.955-3.996-14.963-12.745-28.899-25.02-38.44-11.634-9.043-28.944-13.096-37.154-26.032-3.985-6.279-4.955-13.926-6.52-21.196-3.589-16.668-15.632-25.997-30.648-32.793-39.343-17.807-76.891-4.761-116.812,1.643-23.255,3.731-46.384-4.281-69.629-4.545-13.191-.15-27.898,1.3-41.373,5.623Z" fill="#b7cfe5" fill-rule="evenodd"/>
    <g clip-path="url(#b)">
      <g>
        <g>
          <path d="m804.034,242.514h-111.13c-19.75,0-38.098,10.209-48.51,26.992l-66.316,106.898,240.757,12.631v-131.72c0-8.174-6.626-14.801-14.801-14.801Z" fill="#f6f7f8"/>
          <g clip-path="url(#c)">
            <polygon points="641.304 261.11 667.338 261.11 657.42 269.788 595.488 366.879 573.119 360.288 641.304 261.11" fill="#83cdc2"/>
          </g>
        </g>
        <path d="m781.135,262.186v96.189h-158.689c-3.506,0-5.654-3.843-3.818-6.83l41.421-67.373c8.4-13.663,23.289-21.987,39.328-21.987h81.759Z" fill="#83cdc2"/>
        <path d="m811.123,252.579c-36.295,1.206-75.956.807-112.404.969-8.536-.257-17.01,1.168-24.725,4.853-8.933,4.182-16.624,10.965-21.861,19.322-18.642,29.619-38.33,62.413-57.813,91.321,15.295-28.761,36.476-60.314,53.565-88.871,2.957-4.992,6.337-9.995,10.582-13.974,8.47-8.214,19.772-13.402,31.497-14.598,5.13-.574,12.231-.165,17.402-.269,33.299.437,71.206-.749,103.757,1.247h0Z" fill="#8d8d8d"/>
        <polygon points="753.527 232.287 719.921 232.287 723.574 195.405 749.874 195.405 753.527 232.287" fill="#f43d3b"/>
        <rect x="717.547" y="230.095" width="38.354" height="12.419" fill="#453333"/>
        <path d="m737.061,231.556c.988.791.832,1.583.935,2.374.081.791.124,1.583.124,2.374,0,.791-.058,1.583-.134,2.374-.08.791-.011,1.583-.925,2.374h-.294c-.914-.791-.845-1.583-.925-2.374-.077-.791-.134-1.583-.134-2.374,0-.791.044-1.583.124-2.374.103-.791-.052-1.583.935-2.374h.294Z" fill="#2b2020"/>
        <path d="m745.036,231.556c.988.791.832,1.583.935,2.374.081.791.124,1.583.124,2.374,0,.791-.058,1.583-.134,2.374-.08.791-.011,1.583-.925,2.374h-.294c-.914-.791-.845-1.583-.925-2.374-.077-.791-.134-1.583-.134-2.374,0-.791.044-1.583.124-2.374.103-.791-.052-1.583.935-2.374h.294Z" fill="#2b2020"/>
        <path d="m753.01,231.556c.988.791.832,1.583.935,2.374.081.791.124,1.583.124,2.374,0,.791-.058,1.583-.134,2.374-.08.791-.011,1.583-.925,2.374h-.294c-.914-.791-.845-1.583-.925-2.374-.077-.791-.134-1.583-.134-2.374,0-.791.044-1.583.124-2.374.103-.791-.052-1.583.935-2.374h.294Z" fill="#2b2020"/>
        <path d="m721.491,231.556c.988.791.832,1.583.935,2.374.081.791.124,1.583.124,2.374,0,.791-.058,1.583-.134,2.374-.08.791-.011,1.583-.925,2.374h-.294c-.914-.791-.845-1.583-.925-2.374-.077-.791-.134-1.583-.134-2.374,0-.791.044-1.583.124-2.374.103-.791-.052-1.583.935-2.374h.294Z" fill="#2b2020"/>
        <path d="m729.466,231.556c.988.791.832,1.583.935,2.374.081.791.124,1.583.124,2.374,0,.791-.058,1.583-.134,2.374-.08.791-.011,1.583-.925,2.374h-.294c-.914-.791-.845-1.583-.925-2.374-.077-.791-.134-1.583-.134-2.374,0-.791.044-1.583.124-2.374.103-.791-.052-1.583.935-2.374h.294Z" fill="#2b2020"/>
        <line x1="717.912" y1="229.364" x2="755.171" y2="229.364" fill="none" stroke="#f43d3b" stroke-linecap="round" stroke-miterlimit="10" stroke-width="2"/>
        <circle cx="736.763" cy="211.521" r="2.479" fill="#fffa1d"/>
        <circle cx="736.763" cy="211.521" r="8.678" fill="#fdc80a" opacity=".5"/>
        <polygon points="726.379 195.405 723.731 226.917 730.337 226.398 731.125 195.364 726.379 195.405" fill="#fdf7e4" opacity=".5"/>
        <path d="m720.646,227.491c2.686-.988,5.372-.832,8.058-.935,2.686-.089,5.372-.1,8.058-.123,2.686.026,5.372.046,8.058.134,2.686.081,5.372.011,8.058.925v.294c-5.286,1.487-10.728.794-16.116,1.059-2.686-.023-5.372-.035-8.058-.124-2.686-.103-5.372.052-8.058-.935v-.294h0Z" fill="#8e2322"/>
        <line x1="745.334" y1="307.508" x2="696.011" y2="284.567" fill="none" stroke="#fffbf7" stroke-miterlimit="10" stroke-width="2"/>
        <line x1="751.452" y1="318.724" x2="702.128" y2="295.782" fill="none" stroke="#fffbf7" stroke-miterlimit="10" stroke-width="2"/>
        <path d="m800.423,256.499c1.514,16.285.761,39.953,1.059,56.525,0,0-.134,28.262-.134,28.262-.081,9.421-.011,18.842-.925,28.262h-.294c-1.452-16.288-.78-39.955-1.059-56.525,0,0,.124-28.262.124-28.262.105-9.421-.05-18.842.935-28.262h.294Z" fill="#8d8d8d"/>
        <rect x="806.752" y="310.699" width="6.116" height="29.475" fill="#363a3f"/>
        <rect x="635.717" y="344.282" width="7.795" height="10.474" fill="#363a3f"/>
        <path d="m638.488,319.242v39.133h-16.305c-3.391,0-5.469-3.717-3.693-6.606l19.998-32.527Z" fill="#363a3f" fill-rule="evenodd"/>
        <path d="m636.716,321.843c7.218-12.498,14.585-24.905,22.052-37.251,8.228-14.492,24.54-23.738,41.212-23.448,22.132-.109,58.704-.032,81.155-.12.642,0,1.163.52,1.162,1.163,0,23.972.025,72.222-.052,96.189.001.613-.497,1.111-1.11,1.11-23.688-.024-84.098-.096-106.985-.33,0,0-17.831-.242-17.831-.242-5.944-.129-11.887-.216-17.831-.392v-.294c5.944-.176,11.887-.263,17.831-.392,32.161-.553,92.085-.511,124.816-.572,0,0-1.11,1.11-1.11,1.11l-.071-48.095.019-48.095,1.162,1.162c-20.074.07-56.038-.154-75.744-.112-3.105.104-7.659-.179-10.703.251-14.144,1.369-27.172,9.8-34.435,22.017-7.646,12.235-15.391,24.41-23.285,36.492l-.25-.154h0Z" fill="#616161"/>
        <path d="m660.117,363.203h-16.271c-1.429,0-2.588-1.159-2.588-2.588v-29.029c0-5.338,4.328-9.666,9.666-9.666h9.193c1.429,0,2.588,1.159,2.588,2.588v36.106c0,1.429-1.159,2.588-2.588,2.588Z" fill="#363a3f" fill-rule="evenodd"/>
        <g>
          <rect x="815.974" y="198.23" width="485.687" height="279.495" rx="13.441" ry="13.441" fill="#f6f7f8"/>
          <g clip-path="url(#d)">
            <rect x="823.551" y="349.519" width="277.444" height="43.558" fill="#3258be"/>
            <polygon points="1306.765 205.458 1100.995 393.077 1072.922 360.989 1277.309 173.37 1306.765 205.458" fill="#3258be" fill-rule="evenodd"/>
            <polygon points="1324.418 506.848 1087.726 518.717 1059.653 486.629 1318.096 239.666 1324.418 506.848" fill="#3258be" fill-rule="evenodd"/>
          </g>
        </g>
        <path d="m818.982,252.432c1.514,17.149.761,42.071,1.059,59.518,0,0-.134,29.759-.134,29.759-.081,9.92-.011,19.839-.925,29.759h-.294c-1.452-17.151-.78-42.073-1.059-59.518,0,0,.124-29.759.124-29.759.105-9.92-.05-19.839.935-29.759h.294Z" fill="#8d8d8d"/>
        <path d="m834.185,233.677c145.462-1.65,305.471-1.579,450.936-.001,0,.001,0,.295,0,.295-145.266,1.285-306.237,2.213-450.936-.294h0Z" fill="#8d8d8d"/>
        <g>
          <path d="m881.824,245.298c2.184,0,3.954,1.77,3.954,3.954v19.827c0,2.184-1.77,3.954-3.954,3.954h-27.602c-2.184,0-3.954-1.77-3.954-3.954v-19.827c0-2.184,1.77-3.954,3.954-3.954h27.602m0-2h-27.602c-3.283,0-5.954,2.671-5.954,5.954v19.827c0,3.283,2.671,5.954,5.954,5.954h27.602c3.283,0,5.954-2.671,5.954-5.954v-19.827c0-3.283-2.671-5.954-5.954-5.954h0Z" fill="#8d8d8d"/>
          <rect x="850.269" y="245.298" width="35.509" height="27.734" rx="3.954" ry="3.954" fill="#fff"/>
        </g>
        <g>
          <path d="m879.717,249.644c.802,0,1.453.65,1.453,1.452v15.741c0,.802-.65,1.453-1.453,1.453h-23.387c-.802,0-1.453-.65-1.453-1.453v-15.741c0-.802.65-1.452,1.453-1.452h23.387m0-2h-23.387c-1.904,0-3.453,1.549-3.453,3.452v15.741c0,1.904,1.549,3.453,3.453,3.453h23.387c1.904,0,3.453-1.549,3.453-3.453v-15.741c0-1.904-1.549-3.452-3.453-3.452h0Z" fill="#fdc45b"/>
          <rect x="854.877" y="249.644" width="26.292" height="18.646" rx="1.453" ry="1.453" fill="#fdf897"/>
        </g>
        <rect x="917.212" y="233.824" width="130.926" height="262.134" fill="none" stroke="#8d8d8d" stroke-miterlimit="10" stroke-width="2"/>
        <g>
          <path d="m1108.633,245.298c2.184,0,3.954,1.77,3.954,3.954v19.827c0,2.184-1.77,3.954-3.954,3.954h-27.601c-2.184,0-3.954-1.77-3.954-3.954v-19.827c0-2.184,1.77-3.954,3.954-3.954h27.601m0-2h-27.601c-3.283,0-5.954,2.671-5.954,5.954v19.827c0,3.283,2.671,5.954,5.954,5.954h27.601c3.283,0,5.954-2.671,5.954-5.954v-19.827c0-3.283-2.671-5.954-5.954-5.954h0Z" fill="#8d8d8d"/>
          <rect x="1077.078" y="245.298" width="35.509" height="27.734" rx="3.954" ry="3.954" fill="#fff"/>
        </g>
        <g>
          <path d="m1106.526,249.644c.802,0,1.453.65,1.453,1.452v15.741c0,.802-.65,1.453-1.453,1.453h-23.387c-.802,0-1.453-.65-1.453-1.453v-15.741c0-.802.65-1.452,1.453-1.452h23.387m0-2h-23.387c-1.904,0-3.453,1.549-3.453,3.452v15.741c0,1.904,1.549,3.453,3.453,3.453h23.387c1.904,0,3.453-1.549,3.453-3.453v-15.741c0-1.904-1.549-3.452-3.453-3.452h0Z" fill="#fdc45b"/>
          <rect x="1081.686" y="249.644" width="26.292" height="18.646" rx="1.453" ry="1.453" fill="#fdf897"/>
        </g>
        <g opacity=".5">
          <path d="m746.894,190.725c-.001-2.336,1.034-4.19,1.834-6.153.814-1.957,1.697-3.881,2.57-5.81.917-1.909,1.83-3.82,2.803-5.702.967-1.885,1.799-3.834,3.521-5.368l.266.124c-.066,2.305-1.023,4.196-1.844,6.149-.814,1.957-1.69,3.884-2.561,5.815-.915,1.91-1.82,3.824-2.794,5.706-.987,1.876-1.741,3.861-3.53,5.363l-.266-.124h0Z" fill="#f43d3b"/>
          <path d="m757.718,202.239c2.258-1.644,4.818-2.186,7.31-2.977,2.496-.777,5.012-1.48,7.525-2.194,2.526-.667,5.051-1.34,7.593-1.946,2.541-.614,5.042-1.372,7.803-1.183l.078.283c-2.277,1.573-4.815,2.198-7.313,2.967-2.496.777-5.01,1.487-7.523,2.204-2.525.67-5.048,1.35-7.591,1.956-2.547.592-5.025,1.434-7.806,1.173l-.078-.283h0Z" fill="#f43d3b"/>
          <path d="m757.816,218.793c2.19-.114,3.918.818,5.75,1.514,1.823.716,3.632,1.467,5.423,2.256,1.791.79,3.558,1.633,5.318,2.493,1.759.863,3.577,1.59,4.999,3.217l-.119.269c-2.16.047-3.923-.807-5.746-1.523-1.822-.72-3.636-1.458-5.427-2.247-1.791-.79-3.564-1.62-5.322-2.484-1.749-.884-3.603-1.532-4.995-3.226l.119-.269h0Z" fill="#f43d3b"/>
          <path d="m726.657,190.849c-1.789-1.502-2.543-3.487-3.53-5.363-.974-1.882-1.879-3.796-2.794-5.706-.871-1.93-1.747-3.858-2.561-5.815-.821-1.953-1.778-3.844-1.844-6.149l.266-.124c1.723,1.534,2.554,3.482,3.521,5.368.974,1.882,1.886,3.793,2.803,5.702.873,1.929,1.757,3.854,2.571,5.81.801,1.963,1.836,3.817,1.834,6.153l-.266.124h0Z" fill="#f43d3b"/>
          <path d="m716.022,202.522c-3.028.193-5.753-.716-8.546-1.376-2.789-.674-5.559-1.422-8.331-2.159-2.759-.784-5.52-1.563-8.263-2.407-2.745-.837-5.529-1.53-8.053-3.171l.078-.283c5.759.047,11.318,2.279,16.877,3.536,2.76.782,5.523,1.553,8.266,2.398,2.739.859,5.546,1.469,8.051,3.18l-.078.283h0Z" fill="#f43d3b"/>
          <path d="m714.32,220.366c-1.686,1.589-3.727,2.09-5.687,2.838-1.965.734-3.954,1.394-5.939,2.066-4.027,1.045-8.033,3.048-12.283,2.89,0,0-.091-.279-.091-.279,1.709-1.518,3.723-2.102,5.69-2.828,1.965-.733,3.951-1.401,5.936-2.075,2-.628,3.996-1.266,6.015-1.831,2.024-.552,3.969-1.349,6.267-1.059l.091.279h0Z" fill="#f43d3b"/>
        </g>
      </g>
    </g>
  </g>
  <g>
    <path d="m166.465,150.148c-13.085,4.58-25.053,12.986-32.574,24.436-6.649,10.124-8.635,23.99-2.385,34.366,4.913,8.156,13.517,13.065,19.323,20.478,7.007,8.947,5.801,20.925,1.861,31.062-4.39,11.296-12.61,20.332-17.336,31.429-4.147,9.74-5.235,21.815,1.103,30.293,8.327,11.14,24.83,11.167,37.077,17.759,13.692,7.369,21.282,22.559,33.597,32.053,16.865,13.001,42.497,13.056,59.418.127,9.555-7.3,16.254-17.997,26.36-24.513,9.51-6.132,21.099-7.963,32.346-9.214s22.782-2.124,33.129-6.704,19.48-13.808,20.387-25.088c1.307-16.259-13.508-29.549-10.896-45.907,1.581-9.903,9.273-17.309,12.928-26.382,4.336-10.764,4.961-23.146,1.643-34.258-3.766-12.613-12.589-23.639-24.069-30.079-10.816-6.067-22.947-8.959-34.409-13.486-11.97-4.727-20.851-13.457-32.293-18.938-11.097-5.316-23.354-5.066-35.056-2.053-14.622,3.765-28.393,10.528-43.645,11.413-15.476.898-31.537-2.036-46.51,3.205Z" fill="#bfded6"/>
    <g clip-path="url(#e)">
      <g>
        <path d="m217.46,384.006l78.864,6.918s2.767,3.459,5.534,15.219c2.767,11.76,3.459,22.137-.692,33.206-4.151,11.069-11.76,24.904-20.062,24.904s-57.418-2.767-58.802-19.37c-1.384-16.603-4.843-60.877-4.843-60.877Z" fill="#44413f"/>
        <path d="m294.713,413.463c.005.141-.067.741-.204,1.732-1.574,11.349-16.875,103.98-17.817,113.175-1.024,9.998,3.831,136.436.431,138.318s-13.906,6.306-25.68,6.733-17.726-5.782-17.726-5.782c0,0-13.651-121.654-14.182-136.282-.531-14.628-10.043-117.059-5.534-126.597,4.508-9.538,80.712,8.703,80.712,8.703Z" fill="#44413f"/>
        <path d="m225.992,472.785s39.217,1.405,41.507,4.612c2.306,3.228.461,16.142.461,16.142,0,0-41.968,0-41.968-1.384v-19.37Z" fill="none" stroke="#2d2a26" stroke-linecap="round" stroke-linejoin="round" stroke-width="2"/>
        <path d="m226.6,490.31c1.056,10.115.873,24.758.983,35.05,0,0-.999-1.123-.999-1.123,10.916,1.046,21.928,2.219,32.899,1.83,1.877-.2,3.916-.126,5.42-1.102,1.165-1.938,1.256-4.513,1.563-6.791.824-9.404.416-18.853.886-28.319-.005-.167.276-.194.293-.017.929,6.287,1.287,12.623,1.303,18.974-.213,5.569.232,11.626-1.867,16.921-1.394,2.535-5.061,2.356-7.455,2.659-4.793.28-9.585.086-14.356-.176-6.675-.43-13.317-1.041-19.956-1.856l.007-1.002c.196-10.341-.154-24.88.984-35.05.012-.169.282-.171.294,0h0Z" fill="#2d2a26"/>
        <path d="m286.766,274.473c-9.112-10.276-48.117-5.011-48.117-5.011,0,0-13.336,13.888-17.787,23.146-12.382,25.756-13.094,118.677-10.713,128.683,0,0,28.623,47.971,94.183.739,0,0-2.928-131.048-17.567-147.558Z" fill="#c73842"/>
        <path d="m258.088,270.83c8.931-1.323,9.597-4.237,8.866-7.891l-2.27-29.202-27.849,20.669-.252,16.464c.501,4.106,11.34,1.825,21.505-.039Z" fill="#fca98f"/>
        <path d="m248.226,267.051c-10.036,6.702-15.506,12.055-22.803,20.735-5.248,6.242-15.058,16.429-17.331,34.237-1.136,8.904,1.256,20.106-.912,34.211-2.168,14.104-5.219,30.805-5.219,30.805-12.97,32.877,7.499,49.268,7.499,49.268,1.113,4.752,1.61,9.462,2.736,11.091,2.841,4.109,49.357,3.507,71.603.964,16.875-1.929,23.438-6.543,26.452-19.288,2.736-11.573,1.511-18.406-1.898-38.954-3.409-20.547-5.477-55.856-7.387-70.546l.62-19.251c19.155-25.557-15.707-41.043-24.628-43.881-8.921-2.839-20.067,4.822-28.732,10.609Z" fill="#261a19"/>
        <path d="m272.668,218.122c-1.039,19.518-23.176,38.451-30.819,39.301-6.312.702-13.925.869-16.854-1.16-3.998-2.769-5.403-14.099-5.284-29.826.024-3.183-1.377-13.6-1.665-16.835-1.791-20.098,11.47-24.238,28.087-25.983,24.15-2.536,27.62,14.115,26.535,34.503Z" fill="#fca98f"/>
        <path d="m238.473,214.355c-4.055-.544-8.187.529-12.265.636-1.377.09-2.766.148-4.158-.023-.072-.009-.123-.074-.114-.146,4.188-3.306,12.591-4.901,16.638-.75.112.107.093.315-.101.283h0Z" fill="#261211"/>
        <path d="m237.577,219.941c-1.432.395-2.296-.186-3.329-.403-1.721-.403-3.91-.826-5.392.028-.785.583-.884,1.162-1.522,2.131-.053.108-.2.139-.288.056-1.206-1.041-.684-2.963.469-3.859,1.15-1.021,2.594-1.237,3.847-1.219,1.277.038,2.469.35,3.561.806,1.168.464,2.269.894,2.791,2.2.046.109-.021.235-.136.26h0Z" fill="#001415"/>
        <path d="m231.751,220.404c-.688,2.776,1.584,5.116,3.676,3.598.392-.284.703-.732.874-1.256.914-2.803-1.248-5.299-3.348-4.068-.576.338-1.013.967-1.201,1.726Z" fill="#001415"/>
        <path d="m220.886,219.879c-3.056,7.304-6.922,9.996-6.368,12.735.458,2.261,4.677,2.307,6.346,1.991,2.072-.393,2.078.36,2.078.36" fill="#fca98f"/>
        <path d="m232.373,238.725c.239,1.921-3.481,6.46-7.367,6.943-3.886.483-4.557-2.128-4.796-4.049s-.268-2.836,3.618-3.319c3.886-.483,8.306-1.496,8.544.425Z" fill="#e2866e"/>
        <path d="m234.215,237.976c-.633,1.448-1.906,1.809-3.037,2.305-2.303.966-4.763,1.496-7.249,1.642-1.23.075-2.493.24-3.731-.65-.082-.059-.101-.174-.042-.256,1.147-.973,2.344-.993,3.506-1.222,1.151-.222,2.289-.48,3.424-.737,1.135-.256,2.266-.525,3.388-.825,1.145-.287,2.104-.847,3.604-.518.117.021.186.151.137.26h0Z" fill="#341213"/>
        <path d="m250.614,179.833c-.392.035-.778.085-1.157.153-8.201,1.457-20.242,6.707-27.963,8.459-1.114.253-1.295,4.209-.718,4.782,1.673,1.659,9.832.286,12.072.442,17.455,1.212,14.125,14.879,21.854,24.101,1.286-1.462,2.367-3.794,4.293-3.507.559.084,1.061.407,1.457.81,1.485,1.511,1.522,3.948.945,5.987-.576,2.039-1.656,3.918-2.118,5.986-1.379,6.166,1.935,14.209,5.953,19.085,6.118-10.028,17.307-21.832,18.65-33.502.548-4.761.659-9.686-.843-14.236-2.931-8.885-22.79-19.41-32.426-18.559Z" fill="#866548"/>
        <path d="m272.403,269.701s-10.953,4.532-13.334,14.098c-2.381,9.567-4.762,61.429-4.762,61.429l40.479,9.567s8.572-42.799,1.429-64.45c-7.143-21.651-19.049-22.155-23.811-20.644Z" fill="#fffff9"/>
        <path d="m260.643,297.414c.423,4.108-.199,8.08-.629,12.077-.432,3.997-.925,7.986-1.419,11.975-1.182,7.964-1.865,15.988-3.744,23.833,0,0-.287-.554-.287-.554.583.434,1.166.868,1.717,1.361.062.056.068.151.012.214-.711.06-1.536-.432-2.241-.606-.174-.06-.284-.222-.286-.396-.058-4.11.576-8.138.998-12.188.891-7.991,1.939-15.961,3.123-23.913.601-3.975,1.011-7.975,2.466-11.84.047-.14.283-.12.291.038h0Z" fill="#001415"/>
        <path d="m258.949,294.317c-2.242,3.006-2.463,4.079-2.447,7.83.046,10.717,4.978,58.453,4.543,66.69-.555,10.502-18.45,80.846-18.294,84.783.156,3.937,13.888,12.359,17.806,4.911,3.918-7.448,23.669-66.592,25.903-75.47,6.205-24.664,16.847-80.404-3.449-89.538-15.222-6.85-18.83-6.221-24.062.794Z" fill="#ffab91"/>
        <g>
          <path d="m253.046,442.469c-4.576-1.103-10.486,4.379-11.174,9.434-1.123,8.253-2.679,15.501-.894,21.394,2.765,9.131,10.029,22.035,13.74,21.073,3.711-.962,2.677-3.873,2.677-3.873l-2.809-3.645s4.351,5.928,6.71,4.74c2.353-1.185,3.841-3.85,3.841-3.85,0,0,5.165-2.737,3.919-4.839-1.582-2.671-5.705-8.263-5.705-8.263,0,0,4.523,5.301,6.626,3.765,5.08-3.712-7.935-11.63-7.283-15.165s3.579-9.475-1.864-14.733c-1.598-1.544-5.878-5.577-7.785-6.037Z" fill="#ffab91"/>
          <path d="m256.473,466.555c1.403.12,1.937.983,2.667,1.678.713.71,1.399,1.443,2.051,2.205.652.762,1.26,1.562,1.855,2.373.591.814,1.296,1.531,1.254,2.888-.003.116-.108.206-.223.191-1.347-.167-1.947-.974-2.66-1.684-.71-.712-1.406-1.437-2.059-2.199-.652-.762-1.271-1.552-1.862-2.367-.574-.829-1.344-1.49-1.246-2.894.008-.115.109-.201.223-.191h0Z" fill="#983333"/>
          <path d="m253.141,472.491c1.802.639,2.72,2.004,3.838,3.204,1.101,1.215,2.173,2.453,3.211,3.719,1.038,1.266,2.032,2.568,3.011,3.883.976,1.317,2.068,2.539,2.4,4.384.026.125-.109.237-.227.186-1.745-.686-2.73-1.996-3.83-3.211-1.098-1.217-2.18-2.447-3.219-3.712-1.038-1.266-2.043-2.559-3.019-3.876-.959-1.331-2.117-2.499-2.392-4.391-.021-.124.11-.231.227-.186h0Z" fill="#983333"/>
          <path d="m247.172,475.309c1.677.701,2.411,2.047,3.358,3.248.929,1.213,1.826,2.448,2.689,3.706.862,1.259,1.676,2.55,2.475,3.852.796,1.304,1.715,2.524,1.823,4.299.01.125-.129.222-.242.166-1.617-.742-2.422-2.04-3.35-3.254-.925-1.216-1.835-2.442-2.697-3.7-.862-1.259-1.688-2.542-2.484-3.847-.777-1.317-1.767-2.488-1.815-4.305-.006-.123.129-.216.242-.166h0Z" fill="#983333"/>
        </g>
        <path d="m291.928,354.649c.952-.188,1.905-.309,2.857-.419l-.56.484c1.205-19.2,3.841-38.644.796-57.792-.446-2.697-.976-5.358-1.796-8.021-.025-.078.017-.162.095-.187,1.868,2.062,2.711,5.161,3.478,7.84,2.911,13.72,2.096,27.92.918,41.783-.594,5.577-1.034,11.176-2.399,16.656-.06.242-.29.397-.532.369-.952-.11-1.905-.231-2.857-.419-.157-.028-.155-.268,0-.294h0Z" fill="#001415"/>
        <path d="m253.618,373.371s-4.759-99.816,11.677-105.777c16.436-5.962,25.178,2.608,30.579,13.07,5.401,10.462,6.138,45.173,1.813,86.907-4.325,41.734-31.094,10.386-44.069,5.8Z" fill="#261a19"/>
        <path d="m249.054,382.499c.907-7.258,1.789-10.862,8.215-14.604,14.369-8.369,33.08.239,35.897,6.211,2.817,5.972-1.682,14.052-1.682,14.052,0,0,.539,14.352-6.832,15.336s-9.187-7.431-18.255-10.953c-9.069-3.522-18.249-2.783-17.343-10.041Z" fill="#261a19"/>
        <g>
          <path d="m266.284,224.649c-1.275,5.579-5.77,9.752-9.347,8.464-3.577-1.287-4.45-6.361-3.175-11.94s5.208-9.059,8.785-7.771c3.577,1.287,5.012,5.668,3.737,11.247Z" fill="#fca98f"/>
          <path d="m256.735,222.958c-.663-1.067-.125-1.758.231-2.464.78-1.487,2.277-2.727,4.011-2.937.851-.159,1.826-.131,2.402.871.051.089.034.2-.036.269-.592.538-.893.703-1.48.816-1.267.369-2.214,1.217-3.107,2.201-.435.48-.624,1.087-1.773,1.346-.098.024-.196-.02-.246-.101h0Z" fill="#5e1f21"/>
        </g>
        <path d="m251.646,369.715c-.731-6.473-.196-12.901.142-19.33.358-6.431.876-12.853,1.513-19.267.681-6.409,1.446-12.814,2.524-19.181,1.071-6.35,2.141-12.784,4.729-18.777.058-.145.307-.093.283.073-.16,1.623-.405,3.213-.67,4.793-2.978,17.384-4.826,34.925-6.221,52.509-.547,6.4-.77,12.812-2.008,19.19-.022.156-.282.158-.293-.01h0Z" fill="#512f2b"/>
        <path d="m292.731,381.342c.226-2.944,1.43-5.428,2.307-8.055.888-2.617,1.753-5.234,2.474-7.887.767-2.639,1.396-5.312,1.91-8.004.507-2.707.681-5.398,1.597-8.163.026-.081.113-.125.194-.099,1.124,2.722.64,5.799.327,8.595-.726,5.617-2.344,11.093-4.477,16.318-1.084,2.594-2.028,5.26-4.065,7.413-.094.103-.285.024-.268-.119h0Z" fill="#512f2b"/>
        <path d="m224.45,289.775c7.074-9.406,27.128-20.085,39.062-18.057,3.731.744,6.973,3.004,10.087,5.033,3.035,2.085,6.031,4.212,8.729,6.731,5.369,5.031,9.883,10.616,16.838,12.943.157.044.111.309-.059.288-7.668-.412-12.996-6.917-18.246-11.612-2.661-2.367-5.63-4.402-8.567-6.411-2.916-1.857-5.817-3.926-9.239-4.612-6.816-1.1-13.957,1.873-20.22,4.505-6.526,2.953-12.304,7.132-18.183,11.402-.123.104-.317-.085-.204-.211h0Z" fill="#512f2b"/>
        <path d="m203.164,386.738c5.18-.586,12.605.558,17.83.959.695.059,1.169.763.974,1.43-.847,3.78-.557,7.959-.07,11.838.55,3.833,1.208,8.066,2.966,11.462,4.348,6.809,11.609,11.139,17.884,16.106.135.087.017.323-.137.26-3.938-1.417-7.516-3.644-10.841-6.159-3.341-2.652-6.588-5.354-8.898-9.073-2.049-3.801-2.723-8.092-3.367-12.291-.465-4.255-.785-8.48.266-12.741,0,0,.974,1.43.974,1.43-3.081-.37-10.296-1.216-13.252-1.815-1.463-.289-2.92-.631-4.362-1.114-.147-.04-.125-.285.032-.292h0Z" fill="#512f2b"/>
        <path d="m252.674,380.53c6.239-3.572,21.539,1.496,26.669,6.063.71.727,1.342,1.546,1.703,2.506.057.136-.107.272-.23.182-6.363-3.847-13.325-6.522-20.679-7.657-2.481-.385-4.913-.331-7.398-.808-.139-.013-.193-.216-.064-.287h0Z" fill="#512f2b"/>
        <path d="m256.617,390.239c-1.313-.278-2.523.732-4.058.959-.806.121-1.493.205-2.35.076-.456-.06-1.027-.423-1.293-.8-2.162-2.909-1.698-6.799-.736-10.02,0,0-.044.344-.044.344-.202-4.082-.14-9.976,3.562-12.717,8.059-3.675,27.425-.298,35.253,3.744,7.107,4.253,13.573,15.112,8.451,22.967-2.006,2.493-4.729,3.179-7.008,4.948-2.168,1.643-3.515,4.802-6.48,5.322-.517-.055-1.009-.652-1.482-.904-.067-.046-.084-.138-.038-.205.041-.059.117-.079.18-.052.47.205.949.396,1.412.613l-.215-.029c.827-.285,1.498-.844,2.061-1.518,1.207-1.429,2.047-3.164,3.502-4.478,1.97-1.814,4.975-2.923,6.471-4.925,2.807-4.359.695-10.454-2.233-14.364-1.551-2.06-3.587-4.004-5.778-5.329-4.007-2.045-8.544-2.945-12.994-3.826-3.618-.65-7.286-1.092-10.936-1.19-3.013-.012-6.255-.034-9.028,1.115-1.598,1.138-2.047,3.316-2.457,5.365-.316,1.801-.341,3.545-.234,5.398-.687,2.611-1.485,5.458-.445,8.045.232.468.323,1,.833,1.175,1.276.321,2.626.173,3.945-.114.7-.142,1.541-.247,2.245.126.16.074.051.323-.107.273h0Z" fill="#512f2b"/>
      </g>
    </g>
  </g>
  <g>
    <path d="m372.773,68h-7.148l-1.605,4.465h-2.32l6.516-17.062h1.969l6.527,17.062h-2.309l-1.629-4.465Zm-6.469-1.84h5.801l-2.906-7.98-2.895,7.98Z"/>
    <path d="m380.707,59.786l.059,1.406c.93-1.094,2.184-1.641,3.762-1.641,1.773,0,2.98.68,3.621,2.039.422-.609.971-1.102,1.646-1.477s1.475-.562,2.396-.562c2.781,0,4.195,1.473,4.242,4.418v8.496h-2.168v-8.367c0-.906-.207-1.584-.621-2.033s-1.109-.674-2.086-.674c-.805,0-1.473.24-2.004.721s-.84,1.127-.926,1.939v8.414h-2.18v-8.309c0-1.844-.902-2.766-2.707-2.766-1.422,0-2.395.605-2.918,1.816v9.258h-2.168v-12.68h2.051Z"/>
    <path d="m410.438,66.266c0,1.938-.445,3.494-1.336,4.67s-2.086,1.764-3.586,1.764c-1.602,0-2.84-.566-3.715-1.699l-.105,1.465h-1.992v-18h2.168v6.715c.875-1.086,2.082-1.629,3.621-1.629s2.748.582,3.627,1.746,1.318,2.758,1.318,4.781v.188Zm-2.168-.246c0-1.477-.285-2.617-.855-3.422s-1.391-1.207-2.461-1.207c-1.43,0-2.457.664-3.082,1.992v5.484c.664,1.328,1.699,1.992,3.105,1.992,1.039,0,1.848-.402,2.426-1.207s.867-2.016.867-3.633Z"/>
    <path d="m420.996,71.211c-.844.992-2.082,1.488-3.715,1.488-1.352,0-2.381-.393-3.088-1.178s-1.064-1.947-1.072-3.486v-8.25h2.168v8.191c0,1.922.781,2.883,2.344,2.883,1.656,0,2.758-.617,3.305-1.852v-9.223h2.168v12.68h-2.062l-.047-1.254Z"/>
    <path d="m428.754,72.465h-2.168v-18h2.168v18Z"/>
    <path d="m440.051,72.465c-.125-.25-.227-.695-.305-1.336-1.008,1.047-2.211,1.57-3.609,1.57-1.25,0-2.275-.354-3.076-1.061s-1.201-1.604-1.201-2.689c0-1.32.502-2.346,1.506-3.076s2.416-1.096,4.236-1.096h2.109v-.996c0-.758-.227-1.361-.68-1.811s-1.121-.674-2.004-.674c-.773,0-1.422.195-1.945.586s-.785.863-.785,1.418h-2.18c0-.633.225-1.244.674-1.834s1.059-1.057,1.828-1.4,1.615-.516,2.537-.516c1.461,0,2.605.365,3.434,1.096s1.258,1.736,1.289,3.018v5.836c0,1.164.148,2.09.445,2.777v.188h-2.273Zm-3.598-1.652c.68,0,1.324-.176,1.934-.527s1.051-.809,1.324-1.371v-2.602h-1.699c-2.656,0-3.984.777-3.984,2.332,0,.68.227,1.211.68,1.594s1.035.574,1.746.574Z"/>
    <path d="m447.328,59.786l.07,1.594c.969-1.219,2.234-1.828,3.797-1.828,2.68,0,4.031,1.512,4.055,4.535v8.379h-2.168v-8.391c-.008-.914-.217-1.59-.627-2.027s-1.049-.656-1.916-.656c-.703,0-1.32.188-1.852.562s-.945.867-1.242,1.477v9.035h-2.168v-12.68h2.051Z"/>
    <path d="m463.605,70.93c.773,0,1.449-.234,2.027-.703s.898-1.055.961-1.758h2.051c-.039.727-.289,1.418-.75,2.074s-1.076,1.18-1.846,1.57-1.584.586-2.443.586c-1.727,0-3.1-.576-4.119-1.729s-1.529-2.729-1.529-4.729v-.363c0-1.234.227-2.332.68-3.293s1.104-1.707,1.951-2.238,1.85-.797,3.006-.797c1.422,0,2.604.426,3.545,1.277s1.443,1.957,1.506,3.316h-2.051c-.062-.82-.373-1.494-.932-2.021s-1.248-.791-2.068-.791c-1.102,0-1.955.396-2.561,1.189s-.908,1.939-.908,3.439v.41c0,1.461.301,2.586.902,3.375s1.461,1.184,2.578,1.184Z"/>
    <path d="m476.344,72.7c-1.719,0-3.117-.564-4.195-1.693s-1.617-2.639-1.617-4.529v-.398c0-1.258.24-2.381.721-3.369s1.152-1.762,2.016-2.32,1.799-.838,2.807-.838c1.648,0,2.93.543,3.844,1.629s1.371,2.641,1.371,4.664v.902h-8.59c.031,1.25.396,2.26,1.096,3.029s1.588,1.154,2.666,1.154c.766,0,1.414-.156,1.945-.469s.996-.727,1.395-1.242l1.324,1.031c-1.062,1.633-2.656,2.449-4.781,2.449Zm-.27-11.367c-.875,0-1.609.318-2.203.955s-.961,1.529-1.102,2.678h6.352v-.164c-.062-1.102-.359-1.955-.891-2.561s-1.25-.908-2.156-.908Z"/>
    <path d="m489.75,56.422c0-.352.107-.648.322-.891s.533-.363.955-.363.742.121.961.363.328.539.328.891-.109.645-.328.879-.539.352-.961.352-.74-.117-.955-.352-.322-.527-.322-.879Zm2.344,16.043h-2.168v-12.68h2.168v12.68Z"/>
    <path d="m502.945,69.102c0-.586-.221-1.041-.662-1.365s-1.211-.604-2.309-.838-1.969-.516-2.613-.844-1.121-.719-1.43-1.172-.463-.992-.463-1.617c0-1.039.439-1.918,1.318-2.637s2.002-1.078,3.369-1.078c1.438,0,2.604.371,3.498,1.113s1.342,1.691,1.342,2.848h-2.18c0-.594-.252-1.105-.756-1.535s-1.139-.645-1.904-.645c-.789,0-1.406.172-1.852.516s-.668.793-.668,1.348c0,.523.207.918.621,1.184s1.162.52,2.244.762,1.959.531,2.631.867,1.17.74,1.494,1.213.486,1.049.486,1.729c0,1.133-.453,2.041-1.359,2.725s-2.082,1.025-3.527,1.025c-1.016,0-1.914-.18-2.695-.539s-1.393-.861-1.834-1.506-.662-1.342-.662-2.092h2.168c.039.727.33,1.303.873,1.729s1.26.639,2.15.639c.82,0,1.479-.166,1.975-.498s.744-.775.744-1.33Z"/>
    <path d="m516.82,56.715v3.07h2.367v1.676h-2.367v7.873c0,.509.105.89.316,1.144.211.254.57.381,1.078.381.25,0,.594-.047,1.031-.141v1.748c-.57.155-1.125.233-1.664.233-.969,0-1.699-.293-2.191-.879s-.738-1.418-.738-2.496v-7.863h-2.309v-1.676h2.309v-3.07h2.168Z"/>
    <path d="m527.848,61.731c-.328-.055-.684-.082-1.066-.082-1.422,0-2.387.605-2.895,1.816v9h-2.168v-12.68h2.109l.035,1.465c.711-1.133,1.719-1.699,3.023-1.699.422,0,.742.055.961.164v2.016Z"/>
    <path d="m537.199,72.465c-.125-.25-.227-.695-.305-1.336-1.008,1.047-2.211,1.57-3.609,1.57-1.25,0-2.275-.354-3.076-1.061s-1.201-1.604-1.201-2.689c0-1.32.502-2.346,1.506-3.076s2.416-1.096,4.236-1.096h2.109v-.996c0-.758-.227-1.361-.68-1.811s-1.121-.674-2.004-.674c-.773,0-1.422.195-1.945.586s-.785.863-.785,1.418h-2.18c0-.633.225-1.244.674-1.834s1.059-1.057,1.828-1.4,1.615-.516,2.537-.516c1.461,0,2.605.365,3.434,1.096s1.258,1.736,1.289,3.018v5.836c0,1.164.148,2.09.445,2.777v.188h-2.273Zm-3.598-1.652c.68,0,1.324-.176,1.934-.527s1.051-.809,1.324-1.371v-2.602h-1.699c-2.656,0-3.984.777-3.984,2.332,0,.68.227,1.211.68,1.594s1.035.574,1.746.574Z"/>
    <path d="m546.434,69.524l3.141-9.738h2.215l-4.547,12.68h-1.652l-4.594-12.68h2.215l3.223,9.738Z"/>
    <path d="m559.137,72.7c-1.719,0-3.117-.564-4.195-1.693s-1.617-2.639-1.617-4.529v-.398c0-1.258.24-2.381.721-3.369s1.152-1.762,2.016-2.32,1.799-.838,2.807-.838c1.648,0,2.93.543,3.844,1.629s1.371,2.641,1.371,4.664v.902h-8.59c.031,1.25.396,2.26,1.096,3.029s1.588,1.154,2.666,1.154c.766,0,1.414-.156,1.945-.469s.996-.727,1.395-1.242l1.324,1.031c-1.062,1.633-2.656,2.449-4.781,2.449Zm-.27-11.367c-.875,0-1.609.318-2.203.955s-.961,1.529-1.102,2.678h6.352v-.164c-.062-1.102-.359-1.955-.891-2.561s-1.25-.908-2.156-.908Z"/>
    <path d="m568.945,72.465h-2.168v-18h2.168v18Z"/>
    <path d="m574.77,72.465h-2.168v-18h2.168v18Z"/>
    <path d="m578.25,56.422c0-.352.107-.648.322-.891s.533-.363.955-.363.742.121.961.363.328.539.328.891-.109.645-.328.879-.539.352-.961.352-.74-.117-.955-.352-.322-.527-.322-.879Zm2.344,16.043h-2.168v-12.68h2.168v12.68Z"/>
    <path d="m586.113,59.786l.07,1.594c.969-1.219,2.234-1.828,3.797-1.828,2.68,0,4.031,1.512,4.055,4.535v8.379h-2.168v-8.391c-.008-.914-.217-1.59-.627-2.027s-1.049-.656-1.916-.656c-.703,0-1.32.188-1.852.562s-.945.867-1.242,1.477v9.035h-2.168v-12.68h2.051Z"/>
    <path d="m596.789,66.02c0-1.977.457-3.549,1.371-4.717s2.125-1.752,3.633-1.752c1.547,0,2.754.547,3.621,1.641l.105-1.406h1.98v12.375c0,1.641-.486,2.934-1.459,3.879s-2.279,1.418-3.92,1.418c-.914,0-1.809-.195-2.684-.586s-1.543-.926-2.004-1.605l1.125-1.301c.93,1.148,2.066,1.723,3.41,1.723,1.055,0,1.877-.297,2.467-.891s.885-1.43.885-2.508v-1.09c-.867,1-2.051,1.5-3.551,1.5-1.484,0-2.686-.598-3.604-1.793s-1.377-2.824-1.377-4.887Zm2.18.246c0,1.43.293,2.553.879,3.369s1.406,1.225,2.461,1.225c1.367,0,2.371-.621,3.012-1.863v-5.789c-.664-1.211-1.66-1.816-2.988-1.816-1.055,0-1.879.41-2.473,1.23s-.891,2.035-.891,3.645Z"/>
    <path d="m616.723,56.422c0-.352.107-.648.322-.891s.533-.363.955-.363.742.121.961.363.328.539.328.891-.109.645-.328.879-.539.352-.961.352-.74-.117-.955-.352-.322-.527-.322-.879Zm2.344,16.043h-2.168v-12.68h2.168v12.68Z"/>
    <path d="m624.586,59.786l.07,1.594c.969-1.219,2.234-1.828,3.797-1.828,2.68,0,4.031,1.512,4.055,4.535v8.379h-2.168v-8.391c-.008-.914-.217-1.59-.627-2.027s-1.049-.656-1.916-.656c-.703,0-1.32.188-1.852.562s-.945.867-1.242,1.477v9.035h-2.168v-12.68h2.051Z"/>
    <path d="m644.66,56.715v3.07h2.367v1.676h-2.367v7.873c0,.509.105.89.316,1.144.211.254.57.381,1.078.381.25,0,.594-.047,1.031-.141v1.748c-.57.155-1.125.233-1.664.233-.969,0-1.699-.293-2.191-.879s-.738-1.418-.738-2.496v-7.863h-2.309v-1.676h2.309v-3.07h2.168Z"/>
    <path d="m651.727,61.321c.961-1.18,2.211-1.77,3.75-1.77,2.68,0,4.031,1.512,4.055,4.535v8.379h-2.168v-8.391c-.008-.914-.217-1.59-.627-2.027s-1.049-.656-1.916-.656c-.703,0-1.32.188-1.852.562s-.945.867-1.242,1.477v9.035h-2.168v-18h2.168v6.855Z"/>
    <path d="m662.789,56.422c0-.352.107-.648.322-.891s.533-.363.955-.363.742.121.961.363.328.539.328.891-.109.645-.328.879-.539.352-.961.352-.74-.117-.955-.352-.322-.527-.322-.879Zm2.344,16.043h-2.168v-12.68h2.168v12.68Z"/>
    <path d="m675.984,69.102c0-.586-.221-1.041-.662-1.365s-1.211-.604-2.309-.838-1.969-.516-2.613-.844-1.121-.719-1.43-1.172-.463-.992-.463-1.617c0-1.039.439-1.918,1.318-2.637s2.002-1.078,3.369-1.078c1.438,0,2.604.371,3.498,1.113s1.342,1.691,1.342,2.848h-2.18c0-.594-.252-1.105-.756-1.535s-1.139-.645-1.904-.645c-.789,0-1.406.172-1.852.516s-.668.793-.668,1.348c0,.523.207.918.621,1.184s1.162.52,2.244.762,1.959.531,2.631.867,1.17.74,1.494,1.213.486,1.049.486,1.729c0,1.133-.453,2.041-1.359,2.725s-2.082,1.025-3.527,1.025c-1.016,0-1.914-.18-2.695-.539s-1.393-.861-1.834-1.506-.662-1.342-.662-2.092h2.168c.039.727.33,1.303.873,1.729s1.26.639,2.15.639c.82,0,1.479-.166,1.975-.498s.744-.775.744-1.33Z"/>
    <path d="m686.391,66.02c0-1.945.461-3.51,1.383-4.693s2.129-1.775,3.621-1.775c1.484,0,2.66.508,3.527,1.523v-6.609h2.168v18h-1.992l-.105-1.359c-.867,1.062-2.074,1.594-3.621,1.594-1.469,0-2.666-.602-3.592-1.805s-1.389-2.773-1.389-4.711v-.164Zm2.168.246c0,1.438.297,2.562.891,3.375s1.414,1.219,2.461,1.219c1.375,0,2.379-.617,3.012-1.852v-5.824c-.648-1.195-1.645-1.793-2.988-1.793-1.062,0-1.891.41-2.484,1.23s-.891,2.035-.891,3.645Z"/>
    <path d="m700.465,56.422c0-.352.107-.648.322-.891s.533-.363.955-.363.742.121.961.363.328.539.328.891-.109.645-.328.879-.539.352-.961.352-.74-.117-.955-.352-.322-.527-.322-.879Zm2.344,16.043h-2.168v-12.68h2.168v12.68Z"/>
    <path d="m712.406,61.731c-.328-.055-.684-.082-1.066-.082-1.422,0-2.387.605-2.895,1.816v9h-2.168v-12.68h2.109l.035,1.465c.711-1.133,1.719-1.699,3.023-1.699.422,0,.742.055.961.164v2.016Z"/>
    <path d="m719.66,72.7c-1.719,0-3.117-.564-4.195-1.693s-1.617-2.639-1.617-4.529v-.398c0-1.258.24-2.381.721-3.369s1.152-1.762,2.016-2.32,1.799-.838,2.807-.838c1.648,0,2.93.543,3.844,1.629s1.371,2.641,1.371,4.664v.902h-8.59c.031,1.25.396,2.26,1.096,3.029s1.588,1.154,2.666,1.154c.766,0,1.414-.156,1.945-.469s.996-.727,1.395-1.242l1.324,1.031c-1.062,1.633-2.656,2.449-4.781,2.449Zm-.27-11.367c-.875,0-1.609.318-2.203.955s-.961,1.529-1.102,2.678h6.352v-.164c-.062-1.102-.359-1.955-.891-2.561s-1.25-.908-2.156-.908Z"/>
    <path d="m732.199,70.93c.773,0,1.449-.234,2.027-.703s.898-1.055.961-1.758h2.051c-.039.727-.289,1.418-.75,2.074s-1.076,1.18-1.846,1.57-1.584.586-2.443.586c-1.727,0-3.1-.576-4.119-1.729s-1.529-2.729-1.529-4.729v-.363c0-1.234.227-2.332.68-3.293s1.104-1.707,1.951-2.238,1.85-.797,3.006-.797c1.422,0,2.604.426,3.545,1.277s1.443,1.957,1.506,3.316h-2.051c-.062-.82-.373-1.494-.932-2.021s-1.248-.791-2.068-.791c-1.102,0-1.955.396-2.561,1.189s-.908,1.939-.908,3.439v.41c0,1.461.301,2.586.902,3.375s1.461,1.184,2.578,1.184Z"/>
    <path d="m742.617,56.715v3.07h2.367v1.676h-2.367v7.873c0,.509.105.89.316,1.144.211.254.57.381,1.078.381.25,0,.594-.047,1.031-.141v1.748c-.57.155-1.125.233-1.664.233-.969,0-1.699-.293-2.191-.879s-.738-1.418-.738-2.496v-7.863h-2.309v-1.676h2.309v-3.07h2.168Z"/>
    <path d="m747.527,56.422c0-.352.107-.648.322-.891s.533-.363.955-.363.742.121.961.363.328.539.328.891-.109.645-.328.879-.539.352-.961.352-.74-.117-.955-.352-.322-.527-.322-.879Zm2.344,16.043h-2.168v-12.68h2.168v12.68Z"/>
    <path d="m752.766,66.008c0-1.242.244-2.359.732-3.352s1.168-1.758,2.039-2.297,1.865-.809,2.982-.809c1.727,0,3.123.598,4.189,1.793s1.6,2.785,1.6,4.77v.152c0,1.234-.236,2.342-.709,3.322s-1.148,1.744-2.027,2.291-1.889.82-3.029.82c-1.719,0-3.111-.598-4.178-1.793s-1.6-2.777-1.6-4.746v-.152Zm2.18.258c0,1.406.326,2.535.979,3.387s1.525,1.277,2.619,1.277c1.102,0,1.977-.432,2.625-1.295s.973-2.072.973-3.627c0-1.391-.33-2.518-.99-3.381s-1.537-1.295-2.631-1.295c-1.07,0-1.934.426-2.59,1.277s-.984,2.07-.984,3.656Z"/>
    <path d="m769.078,59.786l.07,1.594c.969-1.219,2.234-1.828,3.797-1.828,2.68,0,4.031,1.512,4.055,4.535v8.379h-2.168v-8.391c-.008-.914-.217-1.59-.627-2.027s-1.049-.656-1.916-.656c-.703,0-1.32.188-1.852.562s-.945.867-1.242,1.477v9.035h-2.168v-12.68h2.051Z"/>
  </g>
  <g>
    <line x1="328.732" y1="98" x2="822.75" y2="98" fill="none" stroke="#000" stroke-miterlimit="10" stroke-width="2"/>
    <polygon points="331.066 105.978 317.25 98 331.066 90.022 331.066 105.978"/>
  </g>
  <g>
    <rect x="220.382" y="408.644" width="71.519" height="44" rx="22" ry="22" fill="#fbf0e7" stroke="#ef6c00" stroke-miterlimit="10" stroke-width="2"/>
    <path d="m259.277,434.743h-7.148l-1.605,4.465h-2.32l6.516-17.062h1.969l6.527,17.062h-2.309l-1.629-4.465Zm-6.469-1.84h5.801l-2.906-7.98-2.895,7.98Z" fill="#212628"/>
  </g>
  <g>
    <rect x="612.591" y="408.644" width="342" height="44" rx="22" ry="22" fill="#fbf0e7" stroke="#ef6c00" stroke-miterlimit="10" stroke-width="2"/>
    <g>
      <path d="m649.879,434.743h-7.148l-1.605,4.465h-2.32l6.516-17.062h1.969l6.527,17.062h-2.309l-1.629-4.465Zm-6.469-1.84h5.801l-2.906-7.98-2.895,7.98Z"/>
      <path d="m657.812,426.528l.059,1.406c.93-1.094,2.184-1.641,3.762-1.641,1.773,0,2.98.68,3.621,2.039.422-.609.971-1.102,1.646-1.477s1.475-.562,2.396-.562c2.781,0,4.195,1.473,4.242,4.418v8.496h-2.168v-8.367c0-.906-.207-1.584-.621-2.033s-1.109-.674-2.086-.674c-.805,0-1.473.24-2.004.721s-.84,1.127-.926,1.939v8.414h-2.18v-8.309c0-1.844-.902-2.766-2.707-2.766-1.422,0-2.395.605-2.918,1.816v9.258h-2.168v-12.68h2.051Z"/>
      <path d="m687.543,433.009c0,1.938-.445,3.494-1.336,4.67s-2.086,1.764-3.586,1.764c-1.602,0-2.84-.566-3.715-1.699l-.105,1.465h-1.992v-18h2.168v6.715c.875-1.086,2.082-1.629,3.621-1.629s2.748.582,3.627,1.746,1.318,2.758,1.318,4.781v.188Zm-2.168-.246c0-1.477-.285-2.617-.855-3.422s-1.391-1.207-2.461-1.207c-1.43,0-2.457.664-3.082,1.992v5.484c.664,1.328,1.699,1.992,3.105,1.992,1.039,0,1.848-.402,2.426-1.207s.867-2.016.867-3.633Z"/>
      <path d="m698.102,437.954c-.844.992-2.082,1.488-3.715,1.488-1.352,0-2.381-.393-3.088-1.178s-1.064-1.947-1.072-3.486v-8.25h2.168v8.191c0,1.922.781,2.883,2.344,2.883,1.656,0,2.758-.617,3.305-1.852v-9.223h2.168v12.68h-2.062l-.047-1.254Z"/>
      <path d="m705.859,439.208h-2.168v-18h2.168v18Z"/>
      <path d="m717.156,439.208c-.125-.25-.227-.695-.305-1.336-1.008,1.047-2.211,1.57-3.609,1.57-1.25,0-2.275-.354-3.076-1.061s-1.201-1.604-1.201-2.689c0-1.32.502-2.346,1.506-3.076s2.416-1.096,4.236-1.096h2.109v-.996c0-.758-.227-1.361-.68-1.811s-1.121-.674-2.004-.674c-.773,0-1.422.195-1.945.586s-.785.863-.785,1.418h-2.18c0-.633.225-1.244.674-1.834s1.059-1.057,1.828-1.4,1.615-.516,2.537-.516c1.461,0,2.605.365,3.434,1.096s1.258,1.736,1.289,3.018v5.836c0,1.164.148,2.09.445,2.777v.188h-2.273Zm-3.598-1.652c.68,0,1.324-.176,1.934-.527s1.051-.809,1.324-1.371v-2.602h-1.699c-2.656,0-3.984.777-3.984,2.332,0,.68.227,1.211.68,1.594s1.035.574,1.746.574Z"/>
      <path d="m724.434,426.528l.07,1.594c.969-1.219,2.234-1.828,3.797-1.828,2.68,0,4.031,1.512,4.055,4.535v8.379h-2.168v-8.391c-.008-.914-.217-1.59-.627-2.027s-1.049-.656-1.916-.656c-.703,0-1.32.188-1.852.562s-.945.867-1.242,1.477v9.035h-2.168v-12.68h2.051Z"/>
      <path d="m740.711,437.673c.773,0,1.449-.234,2.027-.703s.898-1.055.961-1.758h2.051c-.039.727-.289,1.418-.75,2.074s-1.076,1.18-1.846,1.57-1.584.586-2.443.586c-1.727,0-3.1-.576-4.119-1.729s-1.529-2.729-1.529-4.729v-.363c0-1.234.227-2.332.68-3.293s1.104-1.707,1.951-2.238,1.85-.797,3.006-.797c1.422,0,2.604.426,3.545,1.277s1.443,1.957,1.506,3.316h-2.051c-.062-.82-.373-1.494-.932-2.021s-1.248-.791-2.068-.791c-1.102,0-1.955.396-2.561,1.189s-.908,1.939-.908,3.439v.41c0,1.461.301,2.586.902,3.375s1.461,1.184,2.578,1.184Z"/>
      <path d="m753.449,439.442c-1.719,0-3.117-.564-4.195-1.693s-1.617-2.639-1.617-4.529v-.398c0-1.258.24-2.381.721-3.369s1.152-1.762,2.016-2.32,1.799-.838,2.807-.838c1.648,0,2.93.543,3.844,1.629s1.371,2.641,1.371,4.664v.902h-8.59c.031,1.25.396,2.26,1.096,3.029s1.588,1.154,2.666,1.154c.766,0,1.414-.156,1.945-.469s.996-.727,1.395-1.242l1.324,1.031c-1.062,1.633-2.656,2.449-4.781,2.449Zm-.27-11.367c-.875,0-1.609.318-2.203.955s-.961,1.529-1.102,2.678h6.352v-.164c-.062-1.102-.359-1.955-.891-2.561s-1.25-.908-2.156-.908Z"/>
      <path d="m778.07,436.22l2.438-9.691h2.168l-3.691,12.68h-1.758l-3.082-9.609-3,9.609h-1.758l-3.68-12.68h2.156l2.496,9.492,2.953-9.492h1.746l3.012,9.691Z"/>
      <path d="m784.891,423.165c0-.352.107-.648.322-.891s.533-.363.955-.363.742.121.961.363.328.539.328.891-.109.645-.328.879-.539.352-.961.352-.74-.117-.955-.352-.322-.527-.322-.879Zm2.344,16.043h-2.168v-12.68h2.168v12.68Z"/>
      <path d="m793.645,423.458v3.07h2.367v1.676h-2.367v7.873c0,.509.105.891.316,1.145s.57.381,1.078.381c.25,0,.594-.047,1.031-.141v1.748c-.57.155-1.125.232-1.664.232-.969,0-1.699-.293-2.191-.879s-.738-1.418-.738-2.496v-7.863h-2.309v-1.676h2.309v-3.07h2.168Z"/>
      <path d="m800.711,428.063c.961-1.18,2.211-1.77,3.75-1.77,2.68,0,4.031,1.512,4.055,4.535v8.379h-2.168v-8.391c-.008-.914-.217-1.59-.627-2.027s-1.049-.656-1.916-.656c-.703,0-1.32.188-1.852.562s-.945.867-1.242,1.477v9.035h-2.168v-18h2.168v6.855Z"/>
      <path d="m818.77,439.208v-11.004h-2.004v-1.676h2.004v-1.301c0-1.359.363-2.41,1.09-3.152s1.754-1.113,3.082-1.113c.5,0,.996.066,1.488.198l-.117,1.747c-.367-.07-.758-.105-1.172-.105-.703,0-1.246.206-1.629.617-.383.412-.574,1.002-.574,1.77v1.34h2.707v1.676h-2.707v11.004h-2.168Z"/>
      <path d="m830.62,449.198h-1.588v-10.529l-3.186,1.17v-1.435l4.526-1.7h.247v12.494Z"/>
      <path d="m851.712,429.669h-9.773v-1.887h9.773v1.887Zm0,4.863h-9.773v-1.875h9.773v1.875Z"/>
      <path d="m863.841,429.622h1.629c1.023-.016,1.828-.285,2.414-.809s.879-1.23.879-2.121c0-2-.996-3-2.988-3-.938,0-1.686.268-2.244.803s-.838,1.244-.838,2.127h-2.168c0-1.352.494-2.475,1.482-3.369s2.244-1.342,3.768-1.342c1.609,0,2.871.426,3.785,1.277s1.371,2.035,1.371,3.551c0,.742-.24,1.461-.721,2.156s-1.135,1.215-1.963,1.559c.938.297,1.662.789,2.174,1.477s.768,1.527.768,2.52c0,1.531-.5,2.746-1.5,3.645s-2.301,1.348-3.902,1.348-2.904-.434-3.908-1.301-1.506-2.012-1.506-3.434h2.18c0,.898.293,1.617.879,2.156s1.371.809,2.355.809c1.047,0,1.848-.273,2.402-.82s.832-1.332.832-2.355c0-.992-.305-1.754-.914-2.285s-1.488-.805-2.637-.82h-1.629v-1.77Z"/>
      <path d="m875.161,430.653l.867-8.508h8.742v2.004h-6.902l-.516,4.652c.836-.492,1.785-.738,2.848-.738,1.555,0,2.789.514,3.703,1.541s1.371,2.416,1.371,4.166-.475,3.143-1.424,4.154-2.275,1.518-3.979,1.518c-1.508,0-2.738-.418-3.691-1.254s-1.496-1.992-1.629-3.469h2.051c.133.977.48,1.713,1.043,2.209s1.305.744,2.227.744c1.008,0,1.799-.344,2.373-1.031s.861-1.637.861-2.848c0-1.141-.311-2.057-.932-2.748s-1.447-1.037-2.479-1.037c-.945,0-1.688.207-2.227.621l-.574.469-1.734-.445Z"/>
      <path d="m898.341,431.931c0,2.539-.434,4.426-1.301,5.66s-2.223,1.852-4.066,1.852c-1.82,0-3.168-.604-4.043-1.811s-1.328-3.01-1.359-5.408v-2.895c0-2.508.434-4.371,1.301-5.59s2.227-1.828,4.078-1.828c1.836,0,3.188.588,4.055,1.764s1.312,2.99,1.336,5.443v2.812Zm-2.168-2.965c0-1.836-.258-3.174-.773-4.014s-1.332-1.26-2.449-1.26c-1.109,0-1.918.418-2.426,1.254s-.77,2.121-.785,3.855v3.469c0,1.844.268,3.205.803,4.084s1.346,1.318,2.432,1.318c1.07,0,1.865-.414,2.385-1.242s.791-2.133.814-3.914v-3.551Z"/>
      <path d="m914.794,439.208h-2.262v-7.887h-8.602v7.887h-2.25v-17.062h2.25v7.336h8.602v-7.336h2.262v17.062Z"/>
      <path d="m920.489,437.438h7.418v1.77h-10.066v-1.594l6.996-9.293h-6.891v-1.793h9.609v1.535l-7.066,9.375Z"/>
    </g>
  </g>
  <path d="m578.734,347.864c15.833,10.437,34.524,18.608,53.795,17.836,6.354-.346,12.635-1.671,18.832-3.304,31.827-9.074,62.24-18.279,95.359-9.199,43.775,10.593,84.692,34.697,130.875,20.633,4.544-1.345,9.138-2.969,13.488-4.875,0,0,4.433-1.92,4.433-1.92,6.066-2.659,12.634-3.903,19.138-4.364,25.152-1.581,53.12,7.272,73.359-12.184,9.333-8.676,15.372-20.367,19.587-32.292,10.849-29.714,7.033-66.408-16.915-88.715-4.609-4.469-9.951-7.946-15.612-10.954-11.032-5.959-24.198-12.233-28.42-25.061,0,0,.275-.103.275-.103,2.283,6.02,6.729,10.957,11.984,14.582,7.873,5.565,17.112,8.984,25.207,14.294,8.166,5.42,14.889,12.848,19.99,21.183,13.964,22.425,14.05,51.067,5.477,75.466-4.309,12.258-10.469,24.216-20.092,33.2-21.004,20.146-49.079,11.341-74.672,12.909-6.326.461-12.609,1.675-18.366,4.214l-4.433,1.931c-4.442,1.95-9.111,3.618-13.753,5.001-46.925,14.194-87.775-9.97-132.051-20.85-32.53-9.095-62.957.229-94.396,8.893-6.266,1.593-12.679,2.894-19.213,3.193-6.544.29-13.079-.667-19.344-2.338-9.408-2.48-18.332-6.551-26.655-11.548-2.763-1.677-5.443-3.484-8.048-5.389l.17-.239h0Z" fill="#6793be"/>
</svg>