<?xml version="1.0" encoding="UTF-8"?><svg id="b" xmlns="http://www.w3.org/2000/svg" width="1140" height="600" xmlns:xlink="http://www.w3.org/1999/xlink" viewBox="0 0 1140 600"><defs><symbol id="a" viewBox="0 0 8 8"><circle cx="4" cy="4" r="4" fill="#49626e" stroke-width="0"/></symbol><clipPath id="c"><path d="m614.3275,587.9313c39.0877-.2086,78.1779.0407,117.2582.9356,46.0794,1.0551,92.5194,7.4178,138.4357,5.609,87.3177-3.4399,181.5633-34.4691,231.5799-118.7262,27.8005-46.8322,32.4517-106.0759,33.3708-159.3566,1.0189-59.0641-9.0622-119.1443-36.4475-171.9527-18.9341-36.5114-46.8309-68.6147-80.6231-92.1029-36.2485-25.1955-72.7122-32.4548-115.1115-39.4314C824.3134-.0069,742.0066,6.4218,662.5221,6.8895c-2.2751.0134-4.5503.0243-6.8255.0282-72.3823.1256-144.7645.2512-217.1468.3768-84.5852.1468-172.1424-11.5983-254.9333,11.308C101.6057,41.2931,44.6785,110.2467,21.2214,190.187c-1.9023,6.4831-3.5935,13.028-5.0735,19.6205-11.9359,53.1669-11.5577,108.1107-7.5661,162.1743,3.5737,48.4043,10.6676,96.9456,39.5347,137.6846,30.2717,42.7212,75.8207,67.3449,122.1878,78.2291,46.3672,10.8841,94.1106,9.2964,141.3717,7.6641,92.9262-3.2095,185.8609-6.5256,278.8335-7.446,7.9392-.0786,15.8785-.1399,23.818-.1823Z" fill="#e6dbe3" stroke-width="0"/></clipPath></defs><path d="m614.3275,587.9313c39.0877-.2086,78.1779.0407,117.2582.9356,46.0794,1.0551,92.5194,7.4178,138.4357,5.609,87.3177-3.4399,181.5633-34.4691,231.5799-118.7262,27.8005-46.8322,32.4517-106.0759,33.3708-159.3566,1.0189-59.0641-9.0622-119.1443-36.4475-171.9527-18.9341-36.5114-46.8309-68.6147-80.6231-92.1029-36.2485-25.1955-72.7122-32.4548-115.1115-39.4314C824.3134-.0069,742.0066,6.4218,662.5221,6.8895c-2.2751.0134-4.5503.0243-6.8255.0282-72.3823.1256-144.7645.2512-217.1468.3768-84.5852.1468-172.1424-11.5983-254.9333,11.308C101.6057,41.2931,44.6785,110.2467,21.2214,190.187c-1.9023,6.4831-3.5935,13.028-5.0735,19.6205-11.9359,53.1669-11.5577,108.1107-7.5661,162.1743,3.5737,48.4043,10.6676,96.9456,39.5347,137.6846,30.2717,42.7212,75.8207,67.3449,122.1878,78.2291,46.3672,10.8841,94.1106,9.2964,141.3717,7.6641,92.9262-3.2095,185.8609-6.5256,278.8335-7.446,7.9392-.0786,15.8785-.1399,23.818-.1823Z" fill="#e6dbe3"/><g clip-path="url(#c)"><path d="m581.2249,127.8515l10.008,293.7808v8.2251c0,11.7266-9.5063,21.2329-21.2329,21.2329h0c-11.7266,0-21.233-9.5063-21.233-21.233v-8.2251s10.008-293.7808,10.008-293.7808h-26.7846l-14.0112,360.7866c0,3.3655,1.5679,6.5389,4.241,8.5836l47.1116,36.0369,48.3413-36.0397c2.7358-2.0396,4.3476-5.2516,4.3476-8.6641l-14.0112-360.7033h-26.7846Z" fill="#9ca2a6" stroke-width="0"/><path d="m585.7529,731.2013s-8.9967,3.2895-16.421,3.2895-16.421-3.2895-16.421-3.2895v-264.748h32.842v264.748Z" fill="#9ca2a6" stroke-width="0"/><path d="m616.9602,491.8793c-8.7619,6.7592-18.5402,12.3081-27.8471,18.2409-5.5975,3.8148-12.1102,6.9541-19.0736,6.8789-7.0053.1909-13.5842-2.4666-19.2205-6.4805-9.2339-6.0458-18.8785-11.8087-27.5812-18.6403,0,0,.1572-.2481.1572-.2481,9.8875,4.9553,19.2231,11.2158,28.6284,16.9881,0,0,2.8247,1.7591,2.8247,1.7591,4.5206,2.8088,9.824,4.337,15.1543,4.2109,6.6118.091,12.4889-2.8459,17.923-6.4042,9.5061-5.6105,18.8831-11.8034,28.8814-16.5551,0,0,.1534.2504.1534.2504h0Z" fill="#79848a" stroke-width="0"/><path d="m555.3772,520.7745c2.2441-.9877,4.488-.8324,6.7322-.9354,2.2439-.0885,4.488-.1004,6.7319-.1234,4.5104.2622,9.0739-.4233,13.4644,1.0585,0,.0003,0,.294,0,.294-4.3878,1.4819-8.9558.7967-13.4643,1.0591-2.2439-.0233-4.4881-.0352-6.732-.1237-2.2441-.103-4.488.0523-6.7322-.9354v-.2937h0Z" fill="#79848a" stroke-width="0"/></g><path d="m290.3242,41.2856h-7.7051l-1.4648,4.3945h-4.6719l7.9395-21.3281h4.0723l7.9824,21.3281h-4.6719l-1.4805-4.3945Zm-6.5176-3.5596h5.332l-2.6816-7.9834-2.6504,7.9834Z" stroke-width="0"/><path d="m310.7305,25.9341v3.8965h2.709v3.1055h-2.709v7.9102c0,.5859.1113,1.0059.3359,1.2598s.6543.3809,1.2891.3809c.4688,0,.8848-.0342,1.2461-.1025v3.208c-.8301.2539-1.6855.3809-2.5645.3809-2.9688,0-4.4824-1.499-4.541-4.4971v-8.54h-2.3145v-3.1055h2.3145v-3.8965h4.2344Z" stroke-width="0"/><path d="m325.291,44.0688c-1.0449,1.2695-2.4902,1.9043-4.3359,1.9043-1.6992,0-2.9961-.4883-3.8896-1.4648s-1.3506-2.4072-1.3701-4.292v-10.3857h4.2344v10.251c0,1.6523.752,2.4785,2.2559,2.4785,1.4355,0,2.4219-.4985,2.959-1.4961v-11.2334h4.248v15.8496h-3.9844l-.1172-1.6113Z" stroke-width="0"/><path d="m336.4824,29.8306l.1309,1.8311c1.1328-1.416,2.6523-2.124,4.5566-2.124,1.6797,0,2.9297.4932,3.75,1.4795s1.2402,2.4609,1.2598,4.4238v10.2393h-4.2344v-10.1367c0-.8984-.1953-1.5503-.5859-1.9556s-1.0391-.6079-1.9473-.6079c-1.1914,0-2.0859.5078-2.6816,1.5234v11.1768h-4.2324v-15.8496h3.9844Z" stroke-width="0"/><path d="m349.3574,25.729c0-.6348.2129-1.1572.6377-1.5674s1.0029-.6152,1.7354-.6152c.7227,0,1.2988.2051,1.7285.6152s.6445.9326.6445,1.5674c0,.6445-.2168,1.1719-.6514,1.582s-1.0088.6152-1.7217.6152-1.2861-.2051-1.7207-.6152-.6523-.9375-.6523-1.582Zm4.498,19.9512h-4.248v-15.8496h4.248v15.8496Z" stroke-width="0"/><path d="m361.2383,29.8306l.1309,1.8311c1.1328-1.416,2.6523-2.124,4.5566-2.124,1.6797,0,2.9297.4932,3.75,1.4795s1.2402,2.4609,1.2598,4.4238v10.2393h-4.2344v-10.1367c0-.8984-.1953-1.5503-.5859-1.9556s-1.0391-.6079-1.9473-.6079c-1.1914,0-2.0859.5078-2.6816,1.5234v11.1768h-4.2324v-15.8496h3.9844Z" stroke-width="0"/><path d="m373.5273,37.6382c0-2.4316.5791-4.3896,1.7363-5.874s2.7168-2.2266,4.6797-2.2266c1.7383,0,3.0918.5957,4.0586,1.7871l.1758-1.4941h3.8379v15.3223c0,1.3867-.3154,2.5928-.9453,3.6182s-1.5156,1.8066-2.6582,2.3438-2.4805.8057-4.0137.8057c-1.1621,0-2.2949-.2319-3.3984-.6958s-1.9395-1.062-2.5059-1.7944l1.875-2.5781c1.0547,1.1816,2.334,1.7725,3.8379,1.7725,1.123,0,1.998-.3003,2.623-.9009s.9375-1.4526.9375-2.5562v-.8496c-.9766,1.1035-2.2617,1.6553-3.8535,1.6553-1.9043,0-3.4443-.7446-4.6211-2.2339s-1.7656-3.4644-1.7656-5.9253v-.1758Zm4.2344.3149c0,1.438.2871,2.5654.8633,3.3818.5762.8169,1.3672,1.2251,2.373,1.2251,1.2891,0,2.2129-.4839,2.7695-1.4526v-6.6748c-.5664-.9683-1.4805-1.4526-2.7402-1.4526-1.0156,0-1.8135.416-2.3945,1.2471-.5811.8315-.8711,2.0737-.8711,3.7261Z" stroke-width="0"/><path d="m399.8945,45.6802v-12.7441h-2.3574v-3.1055h2.3574v-1.3477c0-1.7773.5107-3.1567,1.5312-4.1382s2.4492-1.4722,4.2852-1.4722c.5859,0,1.3027.0977,2.1523.293l-.043,3.2812c-.3516-.0879-.7812-.1318-1.2891-.1318-1.5918,0-2.3887.7471-2.3887,2.2412v1.2744h3.1504v3.1055h-3.1504v12.7441h-4.248Z" stroke-width="0"/><path d="m408.8301,37.6089c0-1.5723.3027-2.9736.9082-4.2041s1.4775-2.1826,2.6152-2.8564,2.459-1.0107,3.9629-1.0107c2.1387,0,3.8838.6543,5.2363,1.9629s2.1074,3.0859,2.2637,5.332l.0293,1.084c0,2.4316-.6797,4.3823-2.0371,5.8521s-3.1777,2.2046-5.4629,2.2046-4.1094-.7324-5.4717-2.1973-2.0439-3.457-2.0439-5.9766v-.1904Zm4.2344.3003c0,1.5063.2832,2.6582.8496,3.4551.5664.7974,1.377,1.1958,2.4316,1.1958,1.0254,0,1.8262-.3936,2.4023-1.1812.5762-.7871.8633-2.0464.8633-3.7773,0-1.4771-.2871-2.6216-.8633-3.4331s-1.3867-1.2178-2.4316-1.2178c-1.0352,0-1.8359.4033-2.4023,1.2104s-.8496,2.0562-.8496,3.748Z" stroke-width="0"/><path d="m435.3594,33.8003c-.5762-.0781-1.084-.1172-1.5234-.1172-1.6016,0-2.6523.542-3.1504,1.626v10.3711h-4.2324v-15.8496h3.998l.1172,1.8896c.8496-1.4551,2.0273-2.1826,3.5312-2.1826.4688,0,.9082.0635,1.3184.1904l-.0586,4.0723Z" stroke-width="0"/><path d="m443.1523,39.3228l-1.5234,1.5234v4.834h-4.2344v-22.5h4.2344v12.4658l.8203-1.0547,4.0566-4.7607h5.084l-5.7285,6.6064,6.2266,9.2432h-4.8633l-4.0723-6.3574Z" stroke-width="0"/><path d="m464.8613,29.8306l.1309,1.7725c1.123-1.377,2.6426-2.0654,4.5566-2.0654,2.041,0,3.4414.8057,4.2031,2.417,1.1133-1.6113,2.7012-2.417,4.7617-2.417,1.7188,0,2.998.5005,3.8379,1.5015s1.2598,2.5073,1.2598,4.519v10.1221h-4.248v-10.1074c0-.8984-.1758-1.5552-.5273-1.9702s-.9727-.6226-1.8613-.6226c-1.2695,0-2.1484.6055-2.6367,1.8164l.0156,10.8838h-4.2344v-10.0928c0-.918-.1797-1.582-.541-1.9922s-.9766-.6152-1.8457-.6152c-1.2012,0-2.0703.498-2.6074,1.4941v11.2061h-4.2344v-15.8496h3.9707Z" stroke-width="0"/><path d="m496.0469,45.6802c-.1953-.3809-.3359-.8545-.4238-1.4209-1.0254,1.1426-2.3594,1.7139-4,1.7139-1.5527,0-2.8389-.4492-3.8594-1.3477s-1.5312-2.0312-1.5312-3.3984c0-1.6797.623-2.9688,1.8682-3.8672s3.0439-1.3525,5.3975-1.3623h1.9492v-.9082c0-.7324-.1885-1.3184-.5645-1.7578s-.9688-.6592-1.7793-.6592c-.7129,0-1.2725.1709-1.6777.5127s-.6074.8105-.6074,1.4062h-4.2344c0-.918.2832-1.7676.8496-2.5488s1.3672-1.394,2.4023-1.8384,2.1973-.6665,3.4863-.6665c1.9531,0,3.5039.4907,4.6514,1.4722s1.7217,2.3608,1.7217,4.1382v6.8701c.0098,1.5039.2188,2.6416.6289,3.4131v.249h-4.2773Zm-3.5-2.9443c.625,0,1.2012-.1392,1.7285-.4175s.918-.6519,1.1719-1.1206v-2.7246h-1.582c-2.1191,0-3.248.7324-3.3848,2.1973l-.0137.249c0,.5273.1855.9619.5566,1.3037s.8789.5127,1.5234.5127Z" stroke-width="0"/><path d="m508.7031,39.3228l-1.5234,1.5234v4.834h-4.2324v-22.5h4.2324v12.4658l.8203-1.0547,4.0586-4.7607h5.082l-5.7266,6.6064,6.2246,9.2432h-4.8633l-4.0723-6.3574Z" stroke-width="0"/><path d="m518.9434,25.729c0-.6348.2109-1.1572.6367-1.5674.4238-.4102,1.0039-.6152,1.7363-.6152.7227,0,1.2988.2051,1.7285.6152s.6445.9326.6445,1.5674c0,.6445-.2188,1.1719-.6523,1.582-.4355.4102-1.0078.6152-1.7207.6152s-1.2871-.2051-1.7227-.6152c-.4336-.4102-.6504-.9375-.6504-1.582Zm4.4961,19.9512h-4.248v-15.8496h4.248v15.8496Z" stroke-width="0"/><path d="m530.8223,29.8306l.1328,1.8311c1.1328-1.416,2.6504-2.124,4.5547-2.124,1.6797,0,2.9297.4932,3.75,1.4795s1.2402,2.4609,1.2598,4.4238v10.2393h-4.2324v-10.1367c0-.8984-.1953-1.5503-.5859-1.9556s-1.041-.6079-1.9492-.6079c-1.1914,0-2.084.5078-2.6797,1.5234v11.1768h-4.2344v-15.8496h3.9844Z" stroke-width="0"/><path d="m543.1133,37.6382c0-2.4316.5781-4.3896,1.7344-5.874,1.1582-1.4844,2.7188-2.2266,4.6816-2.2266,1.7383,0,3.0898.5957,4.0566,1.7871l.1758-1.4941h3.8379v15.3223c0,1.3867-.3145,2.5928-.9453,3.6182-.6289,1.0254-1.5156,1.8066-2.6582,2.3438s-2.4805.8057-4.0137.8057c-1.1621,0-2.2949-.2319-3.3984-.6958s-1.9375-1.062-2.5039-1.7944l1.875-2.5781c1.0547,1.1816,2.334,1.7725,3.8379,1.7725,1.123,0,1.9961-.3003,2.6211-.9009s.9375-1.4526.9375-2.5562v-.8496c-.9766,1.1035-2.2598,1.6553-3.8516,1.6553-1.9043,0-3.4453-.7446-4.623-2.2339-1.1758-1.4893-1.7637-3.4644-1.7637-5.9253v-.1758Zm4.2324.3149c0,1.438.2891,2.5654.8652,3.3818.5762.8169,1.3672,1.2251,2.373,1.2251,1.2891,0,2.2109-.4839,2.7676-1.4526v-6.6748c-.5664-.9683-1.4785-1.4526-2.7383-1.4526-1.0156,0-1.8145.416-2.3965,1.2471-.5801.8315-.8711,2.0737-.8711,3.7261Z" stroke-width="0"/><path d="m577.5078,45.6802c-.1953-.3809-.3379-.8545-.4258-1.4209-1.0254,1.1426-2.3574,1.7139-3.998,1.7139-1.5527,0-2.8398-.4492-3.8594-1.3477-1.0215-.8984-1.5312-2.0312-1.5312-3.3984,0-1.6797.623-2.9688,1.8672-3.8672,1.2461-.8984,3.0449-1.3525,5.3984-1.3623h1.9473v-.9082c0-.7324-.1875-1.3184-.5625-1.7578-.377-.4395-.9707-.6592-1.7812-.6592-.7129,0-1.2715.1709-1.6758.5127-.4062.3418-.6094.8105-.6094,1.4062h-4.2324c0-.918.2832-1.7676.8496-2.5488s1.3672-1.394,2.4023-1.8384,2.1973-.6665,3.4863-.6665c1.9531,0,3.502.4907,4.6504,1.4722,1.1465.9814,1.7207,2.3608,1.7207,4.1382v6.8701c.0098,1.5039.2207,2.6416.6309,3.4131v.249h-4.2773Zm-3.502-2.9443c.625,0,1.2012-.1392,1.7285-.4175s.918-.6519,1.1719-1.1206v-2.7246h-1.582c-2.1191,0-3.2461.7324-3.3828,2.1973l-.0156.249c0,.5273.1855.9619.5566,1.3037s.8789.5127,1.5234.5127Z" stroke-width="0"/><path d="m600.7832,33.8003c-.5762-.0781-1.084-.1172-1.5234-.1172-1.6016,0-2.6504.542-3.1484,1.626v10.3711h-4.2344v-15.8496h4l.1172,1.8896c.8496-1.4551,2.0254-2.1826,3.5293-2.1826.4688,0,.9082.0635,1.3184.1904l-.0586,4.0723Z" stroke-width="0"/><path d="m611.5645,45.6802c-.1953-.3809-.3359-.8545-.4238-1.4209-1.0254,1.1426-2.3594,1.7139-4,1.7139-1.5527,0-2.8398-.4492-3.8594-1.3477-1.0215-.8984-1.5312-2.0312-1.5312-3.3984,0-1.6797.623-2.9688,1.8672-3.8672,1.2461-.8984,3.0449-1.3525,5.3984-1.3623h1.9492v-.9082c0-.7324-.1895-1.3184-.5645-1.7578-.377-.4395-.9688-.6592-1.7793-.6592-.7129,0-1.2734.1709-1.6777.5127-.4062.3418-.6074.8105-.6074,1.4062h-4.2344c0-.918.2832-1.7676.8496-2.5488s1.3672-1.394,2.4023-1.8384,2.1973-.6665,3.4863-.6665c1.9531,0,3.5039.4907,4.6504,1.4722,1.1484.9814,1.7227,2.3608,1.7227,4.1382v6.8701c.0098,1.5039.2188,2.6416.6289,3.4131v.249h-4.2773Zm-3.5-2.9443c.625,0,1.2012-.1392,1.7285-.4175s.918-.6519,1.1719-1.1206v-2.7246h-1.582c-2.1191,0-3.248.7324-3.3848,2.1973l-.0137.249c0,.5273.1855.9619.5566,1.3037s.8789.5127,1.5234.5127Z" stroke-width="0"/><path d="m627.3711,33.8003c-.5762-.0781-1.084-.1172-1.5234-.1172-1.6016,0-2.6523.542-3.1504,1.626v10.3711h-4.2324v-15.8496h3.998l.1172,1.8896c.8496-1.4551,2.0273-2.1826,3.5312-2.1826.4688,0,.9082.0635,1.3184.1904l-.0586,4.0723Z" stroke-width="0"/><path d="m636.7012,45.9731c-2.3242,0-4.2168-.7129-5.6758-2.1387-1.4609-1.4258-2.1895-3.3252-2.1895-5.6982v-.4102c0-1.5918.3066-3.0151.9219-4.27s1.4883-2.2217,2.6152-2.9004c1.1289-.6787,2.4141-1.0181,3.8594-1.0181,2.168,0,3.875.6836,5.1211,2.0508,1.2441,1.3672,1.8672,3.3057,1.8672,5.8154v1.7285h-10.0938c.1367,1.0352.5508,1.8652,1.2383,2.4902.6895.625,1.5605.9375,2.6152.9375,1.6309,0,2.9043-.5908,3.8223-1.7725l2.0801,2.3291c-.6348.8984-1.4941,1.5991-2.5781,2.1021s-2.2852.7544-3.6035.7544Zm-.4824-13.0225c-.8398,0-1.5215.2847-2.043.8535-.5234.5688-.8574,1.3833-1.0039,2.4424h5.8887v-.3384c-.0195-.9419-.2734-1.6699-.7617-2.1851s-1.1816-.7725-2.0801-.7725Z" stroke-width="0"/><path d="m646.7793,45.6802v-12.7441h-2.3574v-3.1055h2.3574v-1.3477c0-1.7773.5098-3.1567,1.5312-4.1382,1.0195-.9814,2.4492-1.4722,4.2852-1.4722.5859,0,1.3027.0977,2.1523.293l-.043,3.2812c-.3516-.0879-.7812-.1318-1.2891-.1318-1.5918,0-2.3887.7471-2.3887,2.2412v1.2744h3.1504v3.1055h-3.1504v12.7441h-4.248Z" stroke-width="0"/><path d="m665.5586,45.6802c-.1953-.3809-.3359-.8545-.4238-1.4209-1.0254,1.1426-2.3594,1.7139-4,1.7139-1.5527,0-2.8398-.4492-3.8594-1.3477-1.0215-.8984-1.5312-2.0312-1.5312-3.3984,0-1.6797.623-2.9688,1.8672-3.8672,1.2461-.8984,3.0449-1.3525,5.3984-1.3623h1.9492v-.9082c0-.7324-.1895-1.3184-.5645-1.7578-.377-.4395-.9688-.6592-1.7793-.6592-.7129,0-1.2734.1709-1.6777.5127-.4062.3418-.6074.8105-.6074,1.4062h-4.2344c0-.918.2832-1.7676.8496-2.5488s1.3672-1.394,2.4023-1.8384,2.1973-.6665,3.4863-.6665c1.9531,0,3.5039.4907,4.6504,1.4722,1.1484.9814,1.7227,2.3608,1.7227,4.1382v6.8701c.0098,1.5039.2188,2.6416.6289,3.4131v.249h-4.2773Zm-3.5-2.9443c.625,0,1.2012-.1392,1.7285-.4175s.918-.6519,1.1719-1.1206v-2.7246h-1.582c-2.1191,0-3.248.7324-3.3848,2.1973l-.0137.249c0,.5273.1855.9619.5566,1.3037s.8789.5127,1.5234.5127Z" stroke-width="0"/><path d="m679.0508,42.5601c.7812,0,1.416-.2148,1.9043-.6445s.7422-1.001.7617-1.7139h3.9688c-.0098,1.0742-.3027,2.0581-.8789,2.9517s-1.3652,1.5869-2.3652,2.0801c-1.002.4932-2.1074.7397-3.3184.7397-2.2656,0-4.0527-.7202-5.3613-2.1606s-1.9629-3.4302-1.9629-5.9692v-.2783c0-2.4414.6504-4.3896,1.9492-5.8447s3.0801-2.1826,5.3457-2.1826c1.9824,0,3.5723.564,4.7676,1.6919,1.1973,1.1279,1.8047,2.6294,1.8242,4.5044h-3.9688c-.0195-.8242-.2734-1.4946-.7617-2.0103-.4883-.5151-1.1328-.7729-1.9336-.7729-.9863,0-1.7324.3594-2.2344,1.0781-.5039.7192-.7539,1.8853-.7539,3.499v.4399c0,1.6338.248,2.8076.7461,3.5215s1.2559,1.0708,2.2715,1.0708Z" stroke-width="0"/><path d="m693.1719,25.9341v3.8965h2.709v3.1055h-2.709v7.9102c0,.5859.1113,1.0059.3359,1.2598s.6543.3809,1.2891.3809c.4688,0,.8848-.0342,1.2461-.1025v3.208c-.8301.2539-1.6855.3809-2.5645.3809-2.9688,0-4.4824-1.499-4.541-4.4971v-8.54h-2.3145v-3.1055h2.3145v-3.8965h4.2344Z" stroke-width="0"/><path d="m698.2109,25.729c0-.6348.2109-1.1572.6367-1.5674.4238-.4102,1.0039-.6152,1.7363-.6152.7227,0,1.2988.2051,1.7285.6152s.6445.9326.6445,1.5674c0,.6445-.2188,1.1719-.6523,1.582-.4355.4102-1.0078.6152-1.7207.6152s-1.2871-.2051-1.7227-.6152c-.4336-.4102-.6504-.9375-.6504-1.582Zm4.4961,19.9512h-4.248v-15.8496h4.248v15.8496Z" stroke-width="0"/><path d="m705.5352,37.6089c0-1.5723.3027-2.9736.9082-4.2041s1.4766-2.1826,2.6152-2.8564c1.1367-.6738,2.457-1.0107,3.9609-1.0107,2.1387,0,3.8848.6543,5.2383,1.9629,1.3516,1.3086,2.1055,3.0859,2.2617,5.332l.0293,1.084c0,2.4316-.6777,4.3823-2.0352,5.8521s-3.1797,2.2046-5.4648,2.2046-4.1074-.7324-5.4707-2.1973c-1.3613-1.4648-2.043-3.457-2.043-5.9766v-.1904Zm4.2324.3003c0,1.5063.2832,2.6582.8496,3.4551.5664.7974,1.377,1.1958,2.4316,1.1958,1.0254,0,1.8262-.3936,2.4023-1.1812.5762-.7871.8652-2.0464.8652-3.7773,0-1.4771-.2891-2.6216-.8652-3.4331s-1.3867-1.2178-2.4316-1.2178c-1.0352,0-1.8359.4033-2.4023,1.2104s-.8496,2.0562-.8496,3.748Z" stroke-width="0"/><path d="m727.0527,29.8306l.1328,1.8311c1.1328-1.416,2.6504-2.124,4.5547-2.124,1.6797,0,2.9297.4932,3.75,1.4795s1.2402,2.4609,1.2598,4.4238v10.2393h-4.2324v-10.1367c0-.8984-.1953-1.5503-.5859-1.9556s-1.041-.6079-1.9492-.6079c-1.1914,0-2.084.5078-2.6797,1.5234v11.1768h-4.2344v-15.8496h3.9844Z" stroke-width="0"/><path d="m747.4004,25.729c0-.6348.2109-1.1572.6367-1.5674.4238-.4102,1.0039-.6152,1.7363-.6152.7227,0,1.2988.2051,1.7285.6152s.6445.9326.6445,1.5674c0,.6445-.2188,1.1719-.6523,1.582-.4355.4102-1.0078.6152-1.7207.6152s-1.2871-.2051-1.7227-.6152c-.4336-.4102-.6504-.9375-.6504-1.582Zm4.4961,19.9512h-4.248v-15.8496h4.248v15.8496Z" stroke-width="0"/><path d="m759.2793,29.8306l.1328,1.8311c1.1328-1.416,2.6504-2.124,4.5547-2.124,1.6797,0,2.9297.4932,3.75,1.4795s1.2402,2.4609,1.2598,4.4238v10.2393h-4.2324v-10.1367c0-.8984-.1953-1.5503-.5859-1.9556s-1.041-.6079-1.9492-.6079c-1.1914,0-2.084.5078-2.6797,1.5234v11.1768h-4.2344v-15.8496h3.9844Z" stroke-width="0"/><path d="m784.7246,25.9341v3.8965h2.709v3.1055h-2.709v7.9102c0,.5859.1113,1.0059.3359,1.2598s.6543.3809,1.2891.3809c.4688,0,.8848-.0342,1.2461-.1025v3.208c-.8301.2539-1.6855.3809-2.5645.3809-2.9688,0-4.4824-1.499-4.541-4.4971v-8.54h-2.3145v-3.1055h2.3145v-3.8965h4.2344Z" stroke-width="0"/><path d="m793.9238,31.5591c1.123-1.3477,2.5332-2.0215,4.2324-2.0215,3.4375,0,5.1816,1.9971,5.2305,5.9912v10.1514h-4.2344v-10.0342c0-.9082-.1953-1.5796-.5859-2.0142s-1.0391-.6519-1.9473-.6519c-1.2402,0-2.1387.4785-2.6953,1.4355v11.2646h-4.2344v-22.5h4.2344v8.3789Z" stroke-width="0"/><path d="m813.875,45.9731c-2.3242,0-4.2168-.7129-5.6777-2.1387-1.459-1.4258-2.1895-3.3252-2.1895-5.6982v-.4102c0-1.5918.3086-3.0151.9238-4.27s1.4863-2.2217,2.6133-2.9004c1.1289-.6787,2.416-1.0181,3.8613-1.0181,2.168,0,3.873.6836,5.1191,2.0508,1.2441,1.3672,1.8672,3.3057,1.8672,5.8154v1.7285h-10.0918c.1367,1.0352.5488,1.8652,1.2363,2.4902.6895.625,1.5605.9375,2.6152.9375,1.6309,0,2.9062-.5908,3.8242-1.7725l2.0801,2.3291c-.6348.8984-1.4941,1.5991-2.5781,2.1021s-2.2852.7544-3.6035.7544Zm-.4844-13.0225c-.8398,0-1.5215.2847-2.043.8535-.5234.5688-.8574,1.3833-1.0039,2.4424h5.8887v-.3384c-.0195-.9419-.2734-1.6699-.7617-2.1851s-1.1816-.7725-2.0801-.7725Z" stroke-width="0"/><path d="m839.4512,45.6802c-.1953-.3809-.3379-.8545-.4258-1.4209-1.0254,1.1426-2.3574,1.7139-3.998,1.7139-1.5527,0-2.8398-.4492-3.8594-1.3477-1.0215-.8984-1.5312-2.0312-1.5312-3.3984,0-1.6797.623-2.9688,1.8672-3.8672,1.2461-.8984,3.0449-1.3525,5.3984-1.3623h1.9473v-.9082c0-.7324-.1875-1.3184-.5625-1.7578-.377-.4395-.9707-.6592-1.7812-.6592-.7129,0-1.2715.1709-1.6758.5127-.4062.3418-.6094.8105-.6094,1.4062h-4.2324c0-.918.2832-1.7676.8496-2.5488s1.3672-1.394,2.4023-1.8384,2.1973-.6665,3.4863-.6665c1.9531,0,3.502.4907,4.6504,1.4722,1.1465.9814,1.7207,2.3608,1.7207,4.1382v6.8701c.0098,1.5039.2207,2.6416.6309,3.4131v.249h-4.2773Zm-3.502-2.9443c.625,0,1.2012-.1392,1.7285-.4175s.918-.6519,1.1719-1.1206v-2.7246h-1.582c-2.1191,0-3.2461.7324-3.3828,2.1973l-.0156.249c0,.5273.1855.9619.5566,1.3037s.8789.5127,1.5234.5127Z" stroke-width="0"/><path d="m846.3203,25.729c0-.6348.2129-1.1572.6387-1.5674.4238-.4102,1.002-.6152,1.7344-.6152.7227,0,1.2988.2051,1.7285.6152s.6445.9326.6445,1.5674c0,.6445-.2168,1.1719-.6504,1.582-.4355.4102-1.0098.6152-1.7227.6152s-1.2871-.2051-1.7207-.6152c-.4355-.4102-.6523-.9375-.6523-1.582Zm4.498,19.9512h-4.248v-15.8496h4.248v15.8496Z" stroke-width="0"/><path d="m863.2109,33.8003c-.5762-.0781-1.084-.1172-1.5234-.1172-1.6016,0-2.6523.542-3.1504,1.626v10.3711h-4.2324v-15.8496h3.998l.1172,1.8896c.8496-1.4551,2.0273-2.1826,3.5312-2.1826.4688,0,.9082.0635,1.3184.1904l-.0586,4.0723Z" stroke-width="0"/><line x1="344.1884" y1="125.1434" x2="525.5886" y2="123.8194" fill="none" stroke-width="0"/><line x1="506.2068" y1="113.5002" x2="547.1628" y2="113.5002" fill="none" stroke="#000" stroke-miterlimit="10" stroke-width="2"/><polygon points="544.8286 121.4784 558.6448 113.5002 544.8286 105.5221 544.8286 121.4784" stroke-width="0"/><line x1="633.7932" y1="113.5002" x2="592.8372" y2="113.5002" fill="none" stroke="#000" stroke-miterlimit="10" stroke-width="2"/><polygon points="595.1714 105.5221 581.3552 113.5002 595.1714 121.4784 595.1714 105.5221" stroke-width="0"/><use width="8" height="8" transform="translate(456.6671 191.687)" xlink:href="#a"/><use width="8" height="8" transform="translate(469.4236 147.0632)" xlink:href="#a"/><use width="8" height="8" transform="translate(485.4236 166.6952)" xlink:href="#a"/><use width="8" height="8" transform="translate(506.8547 215.8827)" xlink:href="#a"/><use width="8" height="8" transform="translate(510.8547 151.0632)" xlink:href="#a"/><use width="8" height="8" transform="translate(505.1666 293.8886)" xlink:href="#a"/><use width="8" height="8" transform="translate(459.0891 230.4006)" xlink:href="#a"/><use width="8" height="8" transform="translate(444.3594 273.5311)" xlink:href="#a"/><use width="8" height="8" transform="translate(434.9156 314.4657)" xlink:href="#a"/><use width="8" height="8" transform="translate(477.4236 326.4657)" xlink:href="#a"/><use width="8" height="8" transform="translate(497.401 356.3854)" xlink:href="#a"/><use width="8" height="8" transform="translate(459.0891 397.9484)" xlink:href="#a"/><use width="8" height="8" transform="translate(434.9156 371.1118)" xlink:href="#a"/><use width="8" height="8" transform="translate(509.1666 389.9484)" xlink:href="#a"/><use width="8" height="8" transform="translate(479.552 389.9484)" xlink:href="#a"/><use width="8" height="8" transform="translate(493.401 448.7263)" xlink:href="#a"/><use width="8" height="8" transform="translate(436.3594 430.8915)" xlink:href="#a"/><use width="8" height="8" transform="translate(501.1666 488.029)" xlink:href="#a"/><use width="8" height="8" transform="translate(523.0523 530.9647)" xlink:href="#a"/><use width="8" height="8" transform="translate(485.4236 522.9647)" xlink:href="#a"/><use width="8" height="8" transform="translate(463.0891 541.7982)" xlink:href="#a"/><use width="8" height="8" transform="translate(459.0891 472.5061)" xlink:href="#a"/><use width="8" height="8" transform="translate(436.3594 492.029)" xlink:href="#a"/><use width="8" height="8" transform="translate(426.9156 530.9647)" xlink:href="#a"/><use width="8" height="8" transform="translate(483.552 255.0637)" xlink:href="#a"/><use width="8" height="8" transform="translate(691.2334 510.66) rotate(179.5818)" xlink:href="#a"/><use width="8" height="8" transform="translate(678.803 555.3757) rotate(179.5818)" xlink:href="#a"/><use width="8" height="8" transform="translate(662.6601 535.861) rotate(179.5818)" xlink:href="#a"/><use width="8" height="8" transform="translate(640.8706 486.8312) rotate(179.5818)" xlink:href="#a"/><use width="8" height="8" transform="translate(628.8899 538.9354) rotate(179.5818)" xlink:href="#a"/><use width="8" height="8" transform="translate(641.9892 408.8151) rotate(179.5818)" xlink:href="#a"/><use width="8" height="8" transform="translate(688.5289 471.965) rotate(179.5818)" xlink:href="#a"/><use width="8" height="8" transform="translate(702.9434 428.7282) rotate(179.5818)" xlink:href="#a"/><use width="8" height="8" transform="translate(712.0881 387.7258) rotate(179.5818)" xlink:href="#a"/><use width="8" height="8" transform="translate(669.4937 376.0364) rotate(179.5818)" xlink:href="#a"/><use width="8" height="8" transform="translate(649.2985 346.2633) rotate(179.5818)" xlink:href="#a"/><use width="8" height="8" transform="translate(689.9574 285.5018) rotate(179.5818)" xlink:href="#a"/><use width="8" height="8" transform="translate(695.9502 349.9361) rotate(179.5818)" xlink:href="#a"/><use width="8" height="8" transform="translate(637.2882 312.7871) rotate(179.5818)" xlink:href="#a"/><use width="8" height="8" transform="translate(666.902 312.5709) rotate(179.5818)" xlink:href="#a"/><use width="8" height="8" transform="translate(627.3123 263.0344) rotate(179.5818)" xlink:href="#a"/><use width="8" height="8" transform="translate(670.4586 413.9191) rotate(179.5818)" xlink:href="#a"/><use width="8" height="8" transform="translate(644.572 214.6507) rotate(179.5818)" xlink:href="#a"/><use width="8" height="8" transform="translate(622.3736 171.8759) rotate(179.5818)" xlink:href="#a"/><use width="8" height="8" transform="translate(660.0597 179.601) rotate(179.5818)" xlink:href="#a"/><use width="8" height="8" transform="translate(650.5606 151.0339) rotate(179.5818)" xlink:href="#a"/><use width="8" height="8" transform="translate(660.5242 255.0344) rotate(179.5818)" xlink:href="#a"/><use width="8" height="8" transform="translate(689.3079 227.8534) rotate(179.5818)" xlink:href="#a"/><use width="8" height="8" transform="translate(719.1694 464.697) rotate(179.5818)" xlink:href="#a"/><use width="8" height="8" transform="translate(663.8866 447.4812) rotate(179.5818)" xlink:href="#a"/></svg>