<?xml version="1.0" encoding="UTF-8"?><svg id="a" xmlns="http://www.w3.org/2000/svg" width="1140" height="546" viewBox="0 0 1140 546"><path d="m225.4928,7.3849c-43.6992-1.5578-87.2455.3794-127.7703,13.7615-33.1694,10.9532-64.3649,32.8972-76.864,62.7888-15.5514,37.191,10.1632,69.6261,16.1065,106.27,12.3398,76.0827-53.4201,152.2144-30.8043,226.4523,18.4004,60.4006,89.6529,96.623,158.7419,111.6083,150.6401,32.6736,308.3268-4.5285,463.4882-4.9312,101.304-.2629,201.9411,15.2645,303.2368,16.4323,40.0928.4622,81.1288-1.4975,118.29-14.7286,37.1611-13.2311,70.2195-39.4993,80.0271-73.6595,13.1245-45.713-16.7315-92.0458-19.9914-139.1038-2.6481-38.2254,12.3375-75.4221,22.5108-112.6604,10.1733-37.2383,4.8147-93.1677-16.2036-126.7169-16.1876-25.8384-46.0635-43.5032-77.9913-52.6104-67.6076-19.2848-142.982-7.0858-212.3252-3.6903-79.5027,3.8929-160.7741,9.948-240.2674,6.9168-83.8309-2.3018-167.6066-5.8862-251.374-9.5147-35.2426-1.5266-72.0802-5.3049-108.8098-6.6142Z" fill="#dae3dc" stroke-width="0"/><line x1="122.5" y1="295.6509" x2="125.5" y2="295.6509" fill="none" stroke="#000" stroke-linecap="round" stroke-linejoin="round" stroke-width="2"/><line x1="131.4664" y1="295.6509" x2="1011.5168" y2="295.6509" fill="none" stroke="#000" stroke-dasharray="0 0 5.9664 5.9664" stroke-linecap="round" stroke-linejoin="round" stroke-width="2"/><line x1="1014.5" y1="295.6509" x2="1017.5" y2="295.6509" fill="none" stroke="#000" stroke-linecap="round" stroke-linejoin="round" stroke-width="2"/><path d="m122.5,295.6509c27.9689-84.6457,55.9378-169.2914,111.8756-169.2914,111.872,0,111.872,338.5828,223.744,338.5828s111.8766-338.5828,223.7533-338.5828,111.8753,338.5828,223.7506,338.5828c55.9383,0,83.9074-84.6457,111.8765-169.2914" fill="none" stroke="#000" stroke-linecap="round" stroke-linejoin="round" stroke-width="2"/><path d="m238.873,96.1748c-.2109,1.8047-.877,3.1973-1.998,4.1777s-2.6113,1.4707-4.4707,1.4707c-2.0156,0-3.6309-.7227-4.8457-2.168s-1.8223-3.3789-1.8223-5.8008v-1.6406c0-1.5859.2832-2.9805.8496-4.1836s1.3691-2.127,2.4082-2.7715,2.2422-.9668,3.6094-.9668c1.8125,0,3.2656.5059,4.3594,1.5176s1.7305,2.4121,1.9102,4.2012h-2.2617c-.1953-1.3633-.6191-2.3511-1.2715-2.9619-.6523-.6113-1.5645-.917-2.7363-.917-1.4375,0-2.5645.5317-3.3809,1.5952s-1.2246,2.5762-1.2246,4.5386v1.6543c0,1.853.3867,3.3271,1.1602,4.4214.7734,1.0947,1.8555,1.6421,3.2461,1.6421,1.25,0,2.209-.2832,2.877-.8496s1.1113-1.5527,1.3301-2.959h2.2617Z" stroke-width="0"/><path d="m457.4482,426.6123h-4.0078v6.9023h-2.2617v-17.0625h5.6484c1.9219,0,3.4004.4375,4.4355,1.3125s1.5527,2.1484,1.5527,3.8203c0,1.0625-.2871,1.9883-.8613,2.7773s-1.373,1.3789-2.3965,1.7695l4.0078,7.2422v.1406h-2.4141l-3.7031-6.9023Zm-4.0078-1.8398h3.457c1.1172,0,2.0059-.2891,2.666-.8682s.9902-1.3545.9902-2.3252c0-1.0566-.3145-1.8662-.9434-2.4297s-1.5371-.8496-2.7246-.8574h-3.4453v6.4805Z" stroke-width="0"/><path d="m906.3408,426.6123h-4.0078v6.9023h-2.2617v-17.0625h5.6484c1.9219,0,3.4004.4375,4.4355,1.3125s1.5527,2.1484,1.5527,3.8203c0,1.0625-.2871,1.9883-.8613,2.7773s-1.373,1.3789-2.3965,1.7695l4.0078,7.2422v.1406h-2.4141l-3.7031-6.9023Zm-4.0078-1.8398h3.457c1.1172,0,2.0059-.2891,2.666-.8682s.9902-1.3545.9902-2.3252c0-1.0566-.3145-1.8662-.9434-2.4297s-1.5371-.8496-2.7246-.8574h-3.4453v6.4805Z" stroke-width="0"/><path d="m687.7656,96.1748c-.2109,1.8047-.877,3.1973-1.998,4.1777s-2.6113,1.4707-4.4707,1.4707c-2.0156,0-3.6309-.7227-4.8457-2.168s-1.8223-3.3789-1.8223-5.8008v-1.6406c0-1.5859.2832-2.9805.8496-4.1836s1.3691-2.127,2.4082-2.7715,2.2422-.9668,3.6094-.9668c1.8125,0,3.2656.5059,4.3594,1.5176s1.7305,2.4121,1.9102,4.2012h-2.2617c-.1953-1.3633-.6191-2.3511-1.2715-2.9619-.6523-.6113-1.5645-.917-2.7363-.917-1.4375,0-2.5645.5317-3.3809,1.5952s-1.2246,2.5762-1.2246,4.5386v1.6543c0,1.853.3867,3.3271,1.1602,4.4214.7734,1.0947,1.8555,1.6421,3.2461,1.6421,1.25,0,2.209-.2832,2.877-.8496s1.1113-1.5527,1.3301-2.959h2.2617Z" stroke-width="0"/></svg>