<?xml version="1.0" encoding="UTF-8"?><svg id="a" xmlns="http://www.w3.org/2000/svg" width="1140" height="540" xmlns:xlink="http://www.w3.org/1999/xlink" viewBox="0 0 1140 540"><defs><clipPath id="b"><path d="m1137,278.334c0,139.274-1.53,256.018-224.918,257.298-231.079,1.324-305.471-29.557-662.515-6.4C52.189,542.033,12.408,435.785,3.227,257.853-3.952,118.708,159.22-57.732,433.174,23.596c147.477,43.781,362.624-46.083,533.99-10.241,122.403,25.602,169.836,197.877,169.836,264.979Z" fill="none"/></clipPath></defs><g clip-path="url(#b)"><rect x="-9.789" y="-38.695" width="1159.579" height="581.947" fill="#b3dce0"/><path d="m322.463,409.863c-62.676,20.846-111.517,24.275-153.474,15.916-14.802-2.949-40.825-27.989-39.789-38.653l38.722-27.055c43.139-.909,75.096,14.772,140.899,22.508,9.835,14.95,30.811,13.199,13.642,27.284Z" fill="none" opacity=".3" stroke="#fff" stroke-miterlimit="10" stroke-width="5"/><path d="m305.411,388.263c-62.676,20.846-100.042,30.695-144.379,17.053-14.426-4.439-49.92-29.126-48.884-39.789l29.558,5.684c43.139-.909,67.207,8.18,133.011,15.916,9.835,14.95,47.864-12.948,30.695,1.137Z" fill="none" opacity=".3" stroke="#fff" stroke-miterlimit="10" stroke-width="4"/><rect x="918.737" y="287.653" width="125.053" height="405.852" transform="translate(1471.843 -490.684) rotate(90)" fill="#fff" opacity=".18"/><rect x="-59.516" y="-142.642" width="336.505" height="429.726" fill="#fff" opacity=".3"/><rect x="746.633" y="213.062" width="36.834" height="47.038" transform="translate(1001.63 -528.469) rotate(90)" fill="#fff" opacity=".19"/><rect x="546.292" y="193.613" width="13.094" height="16.722" transform="translate(754.813 -350.865) rotate(90)" fill="#fff" opacity=".19"/><rect x="970.713" y="29.908" width="13.094" height="16.722" transform="translate(1015.529 -938.991) rotate(90)" fill="#fff" opacity=".19"/><rect x="749.811" y="509.502" width="13.094" height="16.722" transform="translate(1274.221 -238.495) rotate(90)" fill="#fff" opacity=".19"/><rect x="299.218" y="22.329" width="13.094" height="16.722" transform="translate(336.455 -275.075) rotate(90)" fill="#fff" opacity=".19"/><rect x="357.705" y="24.474" width="17.383" height="44.006" transform="translate(412.874 -319.92) rotate(90)" fill="#fff" opacity=".19"/><rect x="904.075" y="200.047" width="21.365" height="27.284" transform="translate(1128.447 -701.069) rotate(90)" fill="#fff" opacity=".19"/><rect x="1131.895" y="35.843" width="59.116" height="429.726" transform="translate(1412.159 -910.747) rotate(90)" fill="#fff" opacity=".3"/><rect x="883.41" y="-4.43" width="11.368" height="148.755" transform="translate(959.041 -819.147) rotate(90)" fill="#fff" opacity=".3"/><rect x="346.627" y="168.563" width="6.821" height="89.253" transform="translate(563.227 -136.848) rotate(90)" fill="#fff" opacity=".3"/><rect x="580.059" y="445.952" width="6.821" height="89.253" transform="translate(1074.048 -92.89) rotate(90)" fill="#fff" opacity=".3"/><rect x="664.846" y="18.596" width="4.547" height="59.502" transform="translate(715.467 -618.773) rotate(90)" fill="#fff" opacity=".3"/><rect x="1145.641" y="240.37" width="11.368" height="148.755" transform="translate(1466.073 -836.578) rotate(90)" fill="#fff" opacity=".3"/><rect x="434.063" y="159.948" width="24.253" height="169.389" transform="translate(690.832 -201.548) rotate(90)" fill="#fff" opacity=".19"/><rect x="1127.916" y="1.169" width="88.674" height="278.526" transform="translate(1312.685 -1031.821) rotate(90)" fill="#fff" opacity=".19"/><path d="m1084.147,408.937h8.574c4.052,0,7.342,3.29,7.342,7.342v8.1h-15.916v-15.442h0Z" fill="#5b605f"/><rect x="333.947" y="421.347" width="857.937" height="45.474" rx="6.821" ry="6.821" fill="#ad8866"/><path d="m126.427,222.865c9.756-2.994,47.381-1.802,65.858,23.511,18.477,25.313,57.666,119.486,67.385,143.432,9.719,23.946-29.453,45.682-42.8,42.016-30.375-8.341-69.442-105.932-81.803-142.088-12.36-36.156-18.396-63.878-8.64-66.872Z" fill="#e48f5b"/><path d="m379.305,418.958c-62.676,20.846-109.243,29.959-151.2,21.6-14.802-2.949-43.099-33.673-42.063-44.337l38.722-27.055c43.139-.909,77.369,5.677,143.172,13.413,9.835,14.95,28.537,22.294,11.368,36.379Z" fill="#e48f5b"/><path d="m171.467,237.289c-10.411-16.527-17.155-24.398-92.289-32.699-42.516-4.698-96.982,15.802-104.589,43.958-15.847,58.652,12.892,171.451,12.892,171.451,32.359,48.065,57.912,71.956,117.918,68.757l9.085-11.746c18.838-24.355,39.259-60.058,60.234-82.598,20.852-22.407,43.919-38.964,36.222-73.828,0,0-19.968-51.871-39.473-83.296Z" fill="#f7ce54"/><path d="m54.926,262.189c-2.732,23.518-47.602,67.048-81.737,91.017-34.135,23.969-81.59-2.722-81.285-17.109.305-14.387,53.31-87.111,100-110.673,46.421-23.426,65.754,13.247,63.022,36.765Z" fill="#e48f5b"/><path d="m176.045,646.122c-30.291,13.373-162.634,45.049-254.874,1.4,1.4-93.827-21.006-191.856,68.62-231.067l128.837-7.002c33.61,54.616,56.535,117.003,57.417,236.669Z" fill="#f7ce54"/><path d="m119.641,416.864c-2.808,3.802-6.46,6.663-9.975,9.665-3.533,2.986-7.16,5.862-10.866,8.64-3.737,2.735-7.511,5.431-11.469,7.865-3.935,2.433-7.946,4.917-12.54,6.063,0,0-.123-.267-.123-.267,1.385-1.103,2.85-1.957,4.28-2.956,10.258-6.313,19.881-13.584,29.351-21.024,3.632-2.827,7.048-5.894,11.145-8.205l.196.219h0Z" fill="#d29700"/><path d="m152.783,181.818l-3.634,52.503s-9.484,11.786-29.707,7.5c-20.223-4.286-27.152-11.786-27.152-11.786l2.578-70.955,57.915,22.738Z" fill="#e48f5b"/><polygon points="428.505 1108 401.063 1108 393.063 454.695 435.505 454.695 428.505 1108" fill="#ad8866"/><path d="m392.053,467.179c3.79-.986,7.579-.83,11.368-.935,3.79-.089,7.579-.1,11.368-.123,3.79.026,7.579.046,11.369.134,3.789.081,7.579.011,11.368.925.146.03.153.264,0,.294-7.517,1.492-15.147.792-22.737,1.059-3.789-.023-7.579-.035-11.368-.124-3.789-.105-7.579.05-11.368-.935-.144-.032-.15-.262,0-.294h0Z" fill="#4f2806"/><path d="m446.188,362.421c.965,0,13.133,11.965,13.454,14.6s-.908,6.04-4.768,6.48c-3.86.439-24.077-14.059-25.042-14.059s-30.29,10.106-34.15,11.863c-3.86,1.757-12.546-6.148-7.399-10.979s15.12-10.54,20.589-10.54,5.706-2.097,14.392-2.975c8.686-.878,22.925,5.61,22.925,5.61Z" fill="#e48f5b"/><path d="m425.284,365.905s28.34,14.412,29.305,16.168c.965,1.757.325,9.6-7.074,9.6s-21.955-8.589-23.242-8.589-22.389,10.824-26.571,5.115.643-18.884,3.217-18.884,24.365-3.41,24.365-3.41Z" fill="#e48f5b"/><path d="m404.78,386.882c1.287,0,15.103.244,18.989.244,6.568,0,20.625.203,20.625.203,0,0,5.469,10.101-1.93,11.418-7.399,1.317-37.362,6.14-39.935,4.823-2.574-1.317-8.686-2.635-7.077-7.905,1.608-5.27,9.329-8.783,9.329-8.783Z" fill="#e48f5b"/><path d="m429.905,369.315c2.501.306,4.435,1.585,6.507,2.629,2.063,1.057,4.096,2.166,6.143,3.243,3.546,2.023,8.731,4.533,12.077,6.765.112.061.085.247-.043.268-2.421.457-4.763-.862-6.908-1.793-2.135-.965-4.21-2.032-6.271-3.118-2.04-1.125-4.072-2.261-6.057-3.477-1.977-1.227-4.079-2.244-5.596-4.263-.083-.105.011-.277.148-.254h0Z" fill="#a33b39"/><path d="m434.935,387.999c1.141-.632,1.888-.192,2.723.006.828.219,1.643.473,2.443.768.8.295,1.58.644,2.354,1.01.772.37,1.596.6,2.08,1.752.044.105-.002.225-.102.276-1.116.563-1.892.204-2.72-.016-.826-.223-1.646-.464-2.446-.758-.8-.295-1.585-.63-2.357-1.001-.764-.391-1.618-.54-2.077-1.762-.04-.106.005-.222.102-.276,0,0-.096.053,0,0Z" fill="#a33b39"/><path d="m595.863,416.547c-2.147,3.789-6.884,5.558-10.295,5.558-5.778,0-8.531-2.49-12.84-7.3,4.239-5.013,10.29-18.288,10.255-30.942-.034-12.654-.697-31.807-10.426-31.925-8.701-.105-10.287,19.305-10.253,31.959.034,12.654,4.127,23.88,10.423,30.908-4.283,4.825-9.609,7.687-15.388,7.697-4.952.008-9.581-2.084-13.517-5.709,7.329-6.809,11.138-18.99,11.1-32.883-.038-13.893-1.899-32.61-11.276-31.923-8.634.632-11.14,18.067-11.103,31.96.038,13.893,3.912,26.061,11.278,32.846-3.916,3.638-8.534,5.746-13.486,5.754-5.778.01-11.12-2.835-15.429-7.646,3.435-4.766,10.29-18.288,10.255-30.942-.034-12.654-.968-31.815-10.426-31.925-8.972-.104-10.287,19.305-10.253,31.959.034,12.654,4.127,23.88,10.423,30.908-4.283,4.825-9.609,7.687-15.387,7.697-5.358.009-10.34-2.439-14.473-6.631,6.796-6.955,11.242-18.677,11.206-31.961-.036-13.284-3.312-32.203-11.379-31.923-7.552.262-11.242,18.677-11.206,31.96.036,13.284,4.545,24.991,11.379,31.923-4.11,4.206-9.078,6.67-14.437,6.678-5.778.01-11.12-2.835-15.429-7.646,6.258-7.049,10.29-18.288,10.255-30.942-.034-12.654-2.541-32.168-10.426-31.925-8.537.263-10.287,19.305-10.253,31.959.034,12.654,4.127,23.88,10.423,30.908-4.283,4.825-9.609,7.687-15.388,7.697-5.358.009-6.221-.945-10.353-5.137,4.168-4.926,7.579-12.884,7.958-31.453.271-13.281-2.473-32.401-7.362-33.925-6.659-2.075-11.242,18.677-11.206,31.96.036,13.284,3.777,26.485,10.611,33.417-.758,1.137-6.063,5.684-7.579,3.789" fill="none" stroke="#5b605f" stroke-linecap="round" stroke-linejoin="round" stroke-width="3"/><path d="m595.863,416.737c3.979-6.505,6.263-21.51,6.247-35.023" fill="none" stroke="#5b605f" stroke-linecap="round" stroke-linejoin="round" stroke-width="3"/><path d="m592.379,408.272c-.894-5.951-1.441-13.729-1.451-22.24-.023-18.729,2.558-33.921,5.764-33.933,3.207-.012,5.358,10.784,5.381,29.513" fill="none" stroke="#5b605f" stroke-linecap="round" stroke-linejoin="round" stroke-width="3"/><path d="m841.59,416.547c-1.874,3.789-6.009,5.558-8.986,5.558-5.044,0-7.446-2.49-11.208-7.3,3.7-5.013,8.981-18.288,8.951-30.942-.03-12.654-.609-31.807-9.1-31.925-7.594-.105-8.979,19.305-8.949,31.959.03,12.654,3.602,23.88,9.098,30.908-3.739,4.825-8.387,7.687-13.431,7.697-4.322.008-8.363-2.084-11.798-5.709,6.397-6.809,9.722-18.99,9.689-32.883-.033-13.893-1.657-32.61-9.842-31.923-7.536.632-9.724,18.067-9.691,31.96.033,13.893,3.415,26.061,9.844,32.846-3.418,3.638-7.448,5.746-11.771,5.754-5.044.01-9.706-2.835-13.467-7.646,2.998-4.766,8.981-18.288,8.951-30.942-.03-12.654-.845-31.815-9.1-31.925-7.831-.104-8.979,19.305-8.949,31.959.03,12.654,3.602,23.88,9.098,30.908-3.739,4.825-8.387,7.687-13.431,7.697-4.677.009-9.026-2.439-12.633-6.631,5.932-6.955,9.813-18.677,9.781-31.961-.031-13.284-2.891-32.203-9.932-31.923-6.592.262-9.813,18.677-9.781,31.96.031,13.284,3.967,24.991,9.932,31.923-3.587,4.206-7.924,6.67-12.601,6.678-5.044.01-9.706-2.835-13.467-7.646,5.462-7.049,8.981-18.288,8.951-30.942-.03-12.654-2.218-32.168-9.1-31.925-7.451.263-8.979,19.305-8.949,31.959s3.603,23.88,9.098,30.908c-3.739,4.825-8.387,7.687-13.431,7.697-4.677.009-6.532-2.713-10.139-6.905,1.433-1.263,6.505-16.042,7.288-33.863.554-12.608-3.297-29.703-6.847-29.746-4.41-.054-9.206,16.474-9.041,29.757.221,17.684,6.395,30.316,8.6,33.853-4.122,5.789-9.261,6.316-10.584,6.568-3.48.665-5.954-4.042-8.379-8.084" fill="none" stroke="#5b605f" stroke-linecap="round" stroke-linejoin="round" stroke-width="3"/><path d="m841.59,416.737c3.473-6.505,5.467-21.51,5.452-35.023" fill="none" stroke="#5b605f" stroke-linecap="round" stroke-linejoin="round" stroke-width="3"/><path d="m842.758,415.168c-2.653-5.684-5.467-20.626-5.476-29.137-.02-18.729,2.232-33.921,5.031-33.933,2.799-.012,4.677,10.784,4.697,29.513" fill="none" stroke="#5b605f" stroke-linecap="round" stroke-linejoin="round" stroke-width="3"/><path d="m676.306,414.097c-1.867,4.825-4.189,7.687-6.707,7.697-2.519.01-4.847-2.835-6.725-7.646,1.848-5.013,4.485-18.288,4.47-30.942-.015-12.654-.304-31.807-4.544-31.925-3.792-.105-4.484,19.305-4.469,31.959.015,12.654,1.799,23.88,4.543,30.908-1.867,4.825-4.189,7.687-6.707,7.697-2.158.008-4.176-2.084-5.892-5.709,3.195-6.809,4.855-18.99,4.838-32.883-.016-13.893-.828-32.61-4.915-31.923-3.763.632-4.856,18.067-4.839,31.96.016,13.893,1.705,26.061,4.916,32.846-1.707,3.638-3.72,5.746-5.878,5.754-2.519.01-4.847-2.835-6.725-7.646,1.497-4.766,4.485-18.288,4.47-30.942-.015-12.654-.422-31.815-4.544-31.925-3.911-.104-4.484,19.305-4.469,31.959.015,12.654,1.799,23.88,4.543,30.908-1.867,4.825-4.188,7.687-6.707,7.697-2.336.009-4.507-2.439-6.308-6.631,2.962-6.955,4.9-18.677,4.885-31.961-.016-13.284-1.444-32.203-4.96-31.923-3.292.262-4.9,18.677-4.885,31.96.016,13.284,1.981,24.991,4.96,31.923-1.791,4.206-3.957,6.67-6.293,6.678-2.519.01-4.847-2.835-6.725-7.646,2.728-7.049,4.485-18.288,4.47-30.942-.015-12.654-1.108-32.168-4.544-31.925-3.721.263-4.484,19.305-4.469,31.959.015,12.654,1.799,23.88,4.543,30.908-1.867,4.825-4.189,7.687-6.707,7.697,0,0-9.91.064-12.552-13.766" fill="none" stroke="#5b605f" stroke-linecap="round" stroke-linejoin="round" stroke-width="3"/><path d="m676.306,414.097c2.728-7.049,4.485-18.288,4.47-30.942" fill="none" stroke="#5b605f" stroke-linecap="round" stroke-linejoin="round" stroke-width="3"/><path d="m676.768,414.526c-4.295-7.326-5.952-19.358-5.962-27.329-.021-17.54,2.28-36.324,5.139-36.334,2.859-.011,4.777,14.656,4.798,32.196" fill="none" stroke="#5b605f" stroke-linecap="round" stroke-linejoin="round" stroke-width="3"/><path d="m923.011,414.665c-1.867,4.825-4.189,7.687-6.707,7.697s-4.847-2.835-6.725-7.646c1.848-5.013,4.485-18.288,4.47-30.942-.015-12.654-.304-31.807-4.544-31.925-3.792-.105-4.484,19.305-4.469,31.959.015,12.654,1.799,23.88,4.543,30.908-1.867,4.825-4.189,7.687-6.707,7.697-2.158.008-4.176-2.084-5.892-5.709,3.195-6.809,4.855-18.99,4.838-32.883-.016-13.893-.828-32.61-4.915-31.923-3.763.632-4.856,18.067-4.839,31.96.016,13.893,1.705,26.061,4.916,32.846-1.707,3.638-3.72,5.746-5.878,5.754-2.519.01-4.847-2.835-6.725-7.646,1.497-4.766,4.485-18.288,4.47-30.942-.015-12.654-.422-31.815-4.544-31.925-3.911-.104-4.484,19.305-4.469,31.959.015,12.654,1.799,23.88,4.543,30.908-1.867,4.825-4.188,7.687-6.707,7.697-2.336.009-4.507-2.439-6.308-6.631,2.962-6.955,4.9-18.677,4.885-31.961-.016-13.284-1.444-32.203-4.96-31.923-3.292.262-4.9,18.677-4.885,31.96.016,13.284,1.981,24.991,4.96,31.923-1.791,4.206-3.957,6.67-6.293,6.678-2.519.01-4.847-2.835-6.725-7.646,2.728-7.049,4.485-18.288,4.47-30.942-.015-12.654-1.108-32.168-4.544-31.925-3.721.263-4.484,19.305-4.469,31.959.015,12.654,1.799,23.88,4.543,30.908-1.867,4.825-4.189,7.687-6.707,7.697,0,0-5.468,1.278-8.878-8.195" fill="none" stroke="#5b605f" stroke-linecap="round" stroke-linejoin="round" stroke-width="3"/><path d="m923.011,414.665c2.728-7.049,4.485-18.288,4.47-30.942" fill="none" stroke="#5b605f" stroke-linecap="round" stroke-linejoin="round" stroke-width="3"/><path d="m923.474,415.095c-4.295-7.326-5.952-19.358-5.962-27.329-.021-17.54,2.28-36.324,5.139-36.334,2.859-.011,4.777,14.656,4.798,32.196" fill="none" stroke="#5b605f" stroke-linecap="round" stroke-linejoin="round" stroke-width="3"/><path d="m1059.783,419.101c-2.552,2.091-5.375,3.255-8.346,3.261-4.664.01-8.976-2.835-12.455-7.646,3.422-5.013,8.306-18.288,8.278-30.942-.028-12.654-.563-31.807-8.416-31.925-7.023-.105-8.304,19.305-8.276,31.959.028,12.654,3.332,23.88,8.414,30.908-3.458,4.825-7.757,7.687-12.421,7.697-3.997.008-7.734-2.084-10.911-5.709,5.916-6.809,8.991-18.99,8.96-32.883-.03-13.893-1.533-32.61-9.102-31.923-6.969.632-8.993,18.067-8.962,31.96.03,13.893,3.158,26.061,9.104,32.846-3.161,3.638-6.888,5.746-10.886,5.754-4.664.01-8.976-2.835-12.455-7.646,2.773-4.766,8.306-18.288,8.278-30.942-.028-12.654-.782-31.815-8.416-31.925-7.242-.104-8.304,19.305-8.276,31.959.028,12.654,3.332,23.88,8.414,30.908-3.457,4.825-7.757,7.687-12.421,7.697-4.325.009-8.347-2.439-11.683-6.631,5.486-6.955,9.075-18.677,9.046-31.961-.029-13.284-2.674-32.203-9.186-31.923-6.096.262-9.075,18.677-9.046,31.96.029,13.284,3.669,24.991,9.186,31.923-3.317,4.206-7.328,6.67-11.654,6.678-4.664.01-8.976-2.835-12.455-7.646,5.051-7.049,8.306-18.288,8.278-30.942-.028-12.654-2.051-32.168-8.416-31.925-6.891.263-8.304,19.305-8.276,31.959.028,12.654,3.332,23.88,8.414,30.908-3.457,4.825-7.757,7.687-12.421,7.697,0,0-3.15.899-8.203-7.69" fill="none" stroke="#5b605f" stroke-linecap="round" stroke-linejoin="round" stroke-width="3"/><path d="m1060.105,418.979c.131.145,12.505-10.137,13.8-29.968" fill="none" stroke="#5b605f" stroke-linecap="round" stroke-linejoin="round" stroke-width="3"/><path d="m1073.905,389.516c2.021-18.695.242-38.411-5.053-38.4-5.295.011-10.151,19.016-12.632,36.379-1.516,10.611-.116,31.211,5.947,34.495,0,0,11.621,6.063,17.684-18.189" fill="none" stroke="#5b605f" stroke-linecap="round" stroke-linejoin="round" stroke-width="3"/><path d="m403.822,367.494s.312.606,2.186,4.644,4.215,16.355,4.215,16.355c0,0,9.523,8.884,14.206,9.288,4.683.404,10.928.808,13.738,2.827,2.81,2.019,5.352,3.332,4.728,8.582-.624,5.25-4.446,3.937-6.319,3.937s-12.71-.266-16.485-1.514c-10.99-3.635-26.385,2.039-26.385,2.039,0,0-9.241-1.736-13.924-6.179-4.683-4.442.624-37.557,14.674-41.191,14.05-3.635,9.367,1.212,9.367,1.212Z" fill="#e48f5b"/><path d="m406.544,372.536c.826,2.719,2.205,7.542,3.004,10.207.746,2.319,2.302,4.049,3.939,6.01,1.311,1.599,2.598,3.061,4.047,4.342,1.432,1.281,3.036,2.236,4.773,2.507.915.125,2.098.253,3.053.426,5.019,1.012,10.553,1.777,14.597,5.168.109.109-.022.317-.172.239-3.798-1.345-7.826-1.957-11.763-2.789-1.965-.357-4.031-.64-6.024-.802-2.36-.266-4.404-1.543-6.031-2.939-1.658-1.395-3.004-3.092-4.278-4.66-2.004-2.283-3.973-5.228-4.56-8.402-.769-3.025-1.423-6.141-.879-9.295.026-.151.255-.165.293-.012h0Z" fill="#a33b39"/><path d="m362.253,385.989s30.395-28.68,32.968-29.558c2.574-.878,25.924-15.082,29.558-14.779,6.063.505,32.337,1.516,38.905,5.053,3.827,2.061,0,8.589-5.053,9.095-2.405.241-27.527-.856-33.853,1.516-8.084,3.032-14.147,6.063-19.705,16.674-1.084,2.07-14.77,9.379-19.274,12.892-4.504,3.513,14.798,25.032,14.798,25.032,0,0-23.906,9.57-32.913,9.57s-10.626-.81-16.095-13.985,10.663-21.51,10.663-21.51Z" fill="#e48f5b"/><path d="m406.085,371.134c.972-5.891,12.507-15.728,18.675-13.964.132.035.157.224.037.291-1.728,1.162-3.452,1.637-5.232,2.568-1.656.924-3.216,2.013-4.707,3.212-1.474,1.222-2.885,2.537-4.229,3.935-1.407,1.455-2.471,3.032-4.293,4.11-.107.077-.272-.019-.251-.152h0Z" fill="#a33b39"/><path d="m1063.432,420.221s10.142-4.747,15.234-22.989c3.95-14.147,1.975-46.232-6.771-45.221" fill="none" stroke="#5b605f" stroke-linecap="round" stroke-linejoin="round" stroke-width="3"/><path d="m1071.621,353.045s-6.981,17.126-9.109,34.147c-2.137,17.085-2.914,30.705.721,31.419" fill="none" stroke="#5b605f" stroke-linecap="round" stroke-linejoin="round" stroke-width="3"/><path d="m1091.838,418.285l-24.74-11.957c-1.175-.568-1.729-1.934-1.28-3.16l2.326-6.355c.441-1.205,1.712-1.892,2.962-1.601l26.827,6.255c1.485.346,2.333,1.914,1.809,3.347l-4.413,12.058c-.516,1.411-2.138,2.068-3.491,1.414Z" fill="#2e2e3d"/></g><path d="m94.025,128.569c.338-8.358-11.63-20.383-16.111-24.328-4.48-3.945-7.951-3.399-12.975.833-2.956,2.49-4.6,7.732-5.714,12.526-1.25,5.38-.456,11.097,1.216,15.653,2.926,7.975,23.021,19.156,29.349,17.958,6.327-1.198,3.296-11.312,4.123-20.989" fill="#e48f5b"/><path d="m67.257,110.209c1.589-.92,3.253-.121,4.663.646,2.754,1.549,4.695,4.142,6.067,6.89.667,1.414,1.332,2.778,1.04,4.424-.015.093-.103.156-.196.14-.75-.451-1.241-1.102-1.639-1.706-2.066-3.465-4.404-7.107-8.128-8.908-.584-.329-1.16-.698-1.823-1.214-.091-.068-.083-.216.016-.272h0Z" fill="#a33b39"/><path d="m226.764,109.578c-6.129,33.823-32.054,86.441-47.999,94.671-15.945,8.23-53.588-.287-63.741-12.144-10.153-11.857-23.387-59.921-7.601-111.021,15.786-51.101,53.482-51.746,80-43.624,26.518,8.122,45.47,38.296,39.341,72.119Z" fill="#e48f5b"/><path d="m166.455,32.88l3.971,8.575c33.379-7.753,66.259,27.126,51.85,85.616,3.778-13.086,7.308-25.411,6.043-40.988-3.069-37.797-40.875-57.273-61.863-53.203Z" fill="#612b0e"/><path d="m209.927,48.301c-.311,13.259-11.342,31.502-20.043,29.361-3.457-2.714.043-9.637-5.618-15.781-6.32,11.05-11.958,31.86-24.042,37.568-7.473-5.948.625-33.194,4.167-41.269-9.39,13.676-10.46,24.09-25.054,32.754-5.489,3.258-15.526,9.363-18.247.973-1.712-5.281-.184-20.776,2.128-25.136,4.891-9.224,12.087-18.491,21.278-23.774,8.106-4.658,15.614-8.594,24.615-9.45-8.8-11.313-4.029-30.23,13.963-17.868,9.647,6.628,12.232,20.957,26.852,32.622Z" fill="#001415"/><path d="m107.108,122.11c.53-8.348-4.31-19.554-8.698-23.601-4.389-4.047-10.525-4.002-15.644.113-3.012,2.422-4.776,7.625-5.999,12.392-1.373,5.35-.709,11.084.857,15.676,2.743,8.04,18.379,19.01,24.732,17.957,6.353-1.053,3.554-11.234,4.603-20.889" fill="#e48f5b"/><path d="m97.787,116.919c-1.184-1.434-1.388-2.948-1.972-4.403-1.091-2.728-2.531-5.532-5.01-7.119-1.233-.736-2.53-.911-4.18-1.673-.121-.045-.14-.224-.03-.292,1.588-1.093,3.603-.728,5.231.08,3.27,1.624,5.117,4.996,6.044,8.323.427,1.622.974,3.275.21,5.053-.048.118-.219.137-.292.032h0Z" fill="#a33b39"/><path d="m178.094,120.601c1.156,4.079.996,8.199,1.14,12.31.088,4.122.092,8.24-.113,12.364-.121,2.068-.234,4.133-.546,6.232-.257,1.558-.555,4.041-2.349,4.864-4.363,1.773-10.185-.994-13.856-3.359-.131-.094-.035-.307.123-.267,2.755.44,11.802,3.815,13.293,1.133.795-2.635.774-5.875.95-8.71.168-4.067.223-8.158.302-12.25.118-4.096-.166-8.182.763-12.306.025-.145.259-.16.293-.009h0Z" fill="#a33b39"/><path d="m208.19,127.837c-1.712-1.795-3.099-3.749-5.239-5.01-5.223-3.012-12.055-2.425-17.149.634-1.116.626-2.142,1.289-3.337,1.866-.12.061-.266-.082-.201-.204,1.122-2.545,3.538-4.168,6.029-5.216,5.649-2.435,12.81-1.89,17.465,2.389,1.53,1.412,2.659,3.333,2.708,5.44.006.145-.183.217-.275.103h0Z" fill="#001415"/><path d="m157.769,119.755c-2.147-1.485-3.314-3.494-5.07-5.037-5.752-5.506-11.591-6.007-18.669-2.743-.126.062-.272-.09-.202-.213,2.627-4.601,9.748-4.869,14.18-3.044,2.43.999,4.499,2.628,6.221,4.468,1.753,1.829,3.302,3.866,3.792,6.417.03.138-.142.247-.251.152h0Z" fill="#001415"/><ellipse cx="199.459" cy="127.793" rx="6.059" ry="4.968" transform="translate(28.602 291.875) rotate(-76.489)" fill="#001415"/><ellipse cx="148.606" cy="117.737" rx="6.065" ry="4.948" transform="translate(-8.404 224.008) rotate(-72.481)" fill="#001415"/><path d="m210.614,111.353c-5.265-1.864-10.909-3.532-16.481-3.501-1.887.013-3.685.29-5.547.608-3.507.569-5.202-4.13-2.198-5.949,4.327-2.623,9.7-2.969,14.509-2.078,3.499.659,6.768,1.82,9.869,3.469,1.039.554,1.964,1.106,3.032,1.864,1.452,1.03,1.795,3.043.765,4.495-.911,1.291-2.567,1.672-3.949,1.092h0Z" fill="#001415"/><path d="m160.492,101.911c-6.211-2.574-12.893-4.519-19.621-4.567-2.2-.094-4.321.203-6.544.419-3.86.682-5.493-4.536-1.941-6.131,1.927-.842,4.018-1.461,6.094-1.804,7.548-1.085,15.255.823,21.872,4.39,1.258.686,2.317,1.343,3.521,2.223,3.163,2.401.157,7.192-3.382,5.47h0Z" fill="#001415"/><path d="m172.488,171.989c-2.051-7.626-11.795-14.804-26.583-9.062.862,14.087,16.947,22.487,26.583,9.062Z" fill="#cd7441"/><path d="m175.577,172.349c-10.122,2.536-29.055-5.58-34.532-14.427-.077-.126.074-.291.206-.21,2.954,1.495,5.231,3.572,7.922,5.187,5.27,3.327,11.098,5.71,17.152,7.178,3.05.758,6.119,1.01,9.253,1.983.134.036.143.254,0,.29h0Z" fill="#431216"/><path d="m175.07,28.64S144.336-3.048,105.401,4.2c-31.504,4.911-69.97,39.007-64.526,47.767,5.445,8.76,39.267-8.025,39.267-8.025-34.92,30.099-52.417,94.325-41.733,99.779,6.815,3.479,23.266-35.081,23.266-35.081-28.148,58.672-24.534,136.062-4.659,139.543,7.536,1.32,11.374-59.997,11.374-59.997,0,0-2.279,43.154,12.062,43.064,8.821-.055,9.42-37.735,9.42-37.735,14.939,28.805,24.76,5.854,23.524-19.4-1.766-36.084,17.065-97.702,61.673-145.475Z" fill="#001415"/><line x1="453.086" y1="323.59" x2="390.674" y2="323.59" fill="none" stroke="#5c539c" stroke-miterlimit="10" stroke-width="2"/><polygon points="450.752 315.611 464.568 323.59 450.752 331.568 450.752 315.611" fill="#5c539c"/><line x1="667.95" y1="323.59" x2="605.537" y2="323.59" fill="none" stroke="#5c539c" stroke-miterlimit="10" stroke-width="2"/><polygon points="665.615 315.611 679.432 323.59 665.615 331.568 665.615 315.611" fill="#5c539c"/><line x1="905.55" y1="323.59" x2="843.137" y2="323.59" fill="none" stroke="#5c539c" stroke-miterlimit="10" stroke-width="2"/><polygon points="903.215 315.611 917.032 323.59 903.215 331.568 903.215 315.611" fill="#5c539c"/><path d="m945.705,376.13s1.091-13.637,3.894-13.176,8.961-1.98,7.947,4.185-3.149,12.147-3.149,12.147l-8.692-3.156Z" fill="#f2a03d"/><path d="m956.394,368.088s13.261.558,16.672,17.231c.888,4.344.124,8.098-1.124,11.049-.784,1.854-3.569,1.122-3.393-.882.694-7.908-.804-19.272-14.095-22.551-5.277-1.302,1.941-4.848,1.941-4.848Z" fill="#f2a03d"/></svg>