<?xml version="1.0" encoding="UTF-8"?><svg id="d" xmlns="http://www.w3.org/2000/svg" width="1140" height="350" viewBox="0 0 1140 350"><line x1="126" y1="157" x2="129" y2="157" fill="none" stroke="#000" stroke-linecap="round" stroke-linejoin="round" stroke-width="2"/><line x1="134.97" y1="157" x2="1004.01" y2="157" fill="none" stroke="#000" stroke-dasharray="0 0 5.97 5.97" stroke-linecap="round" stroke-linejoin="round" stroke-width="2"/><line x1="1007" y1="157" x2="1010" y2="157" fill="none" stroke="#000" stroke-linecap="round" stroke-linejoin="round" stroke-width="2"/><path d="m126,67.68s29,19.32,51,54.32,52,159,206,159,170.2-93,195.6-124,54.4-111,183.4-111c110,0,162.68,81.33,179.66,111,50.34,88,81.91,96.28,81.91,96.28" fill="none" stroke="#000" stroke-linecap="round" stroke-linejoin="round" stroke-width="2"/><circle cx="193.5" cy="156.5" r="7.5"/><circle cx="286.5" cy="260.5" r="7.5"/><circle cx="388.5" cy="280.5" r="7.5"/><circle cx="578.5" cy="156.5" r="7.5"/><circle cx="940.5" cy="156.5" r="7.5"/><circle cx="1023.5" cy="253.5" r="7.5"/><circle cx="763.5" cy="45.5" r="7.5"/><line x1="938.52" y1="188" x2="230.48" y2="188" fill="none" stroke="#0077a2" stroke-miterlimit="10" stroke-width="2"/><polygon points="936.18 180.02 950 188 936.18 195.98 936.18 180.02" fill="#0077a2"/><polygon points="232.82 180.02 219 188 232.82 195.98 232.82 180.02" fill="#0077a2"/><line x1="795.5" y1="139.02" x2="795.5" y2="64.48" fill="none" stroke="#d12d32" stroke-miterlimit="10" stroke-width="2"/><polygon points="803.48 136.68 795.5 150.5 787.52 136.68 803.48 136.68" fill="#d12d32"/><polygon points="803.48 66.82 795.5 53 787.52 66.82 803.48 66.82" fill="#d12d32"/><line x1="472" y1="324" x2="416.33" y2="297.01" fill="none" stroke="#000" stroke-miterlimit="10" stroke-width="2"/><polygon points="421.91 290.85 406 292 414.95 305.21 421.91 290.85"/><line x1="376.36" y1="107.39" x2="427.84" y2="146.54" fill="none" stroke="#000" stroke-linecap="round" stroke-linejoin="round" stroke-width="2"/><polygon points="421.16 151.47 436.98 153.49 430.81 138.77 421.16 151.47"/><line x1="867.86" y1="26.72" x2="803.81" y2="35.65" fill="none" stroke="#000" stroke-miterlimit="10" stroke-width="2"/><polygon points="805.02 27.43 792.44 37.24 807.22 43.23 805.02 27.43"/><path d="m213.21,137.24c2.34.33,4.29,1.59,4.29,4.11,0,4.02-3.72,6.21-8.43,6.21h-8.64l.18-.9c2.28,0,2.79-.36,3.3-2.85l2.55-12.33c.51-2.4-.06-2.73-2.28-2.73l.18-.9h7.59c5.07,0,6.51,1.71,6.51,3.87,0,3.24-2.4,4.71-5.25,5.37v.15Zm-7.11,9.15c.69.06,1.08.09,1.83.09,2.73,0,6.48-.6,6.48-5.04,0-2.76-2.31-3.54-4.83-3.54h-1.77l-1.71,8.49Zm3.69-9.69c4.14,0,5.7-1.8,5.7-4.77,0-1.62-1.02-2.94-4.38-2.94-.6,0-.87.03-1.5.09l-1.56,7.62h1.74Z"/><path d="m271.42,283.78c-2.04,2.4-4.62,4.11-8.4,4.11-5.43,0-7.35-3.39-7.35-7.35,0-8.43,5.64-13.08,11.73-13.08,3.03,0,3.81,1.11,4.56,1.11.48,0,.78-.42,1.26-1.08h.87l-1.41,6.87h-.99c.15-3.99-1.59-5.61-4.56-5.61-4.62,0-8.52,4.44-8.52,11.04,0,4.02,1.86,6.15,5.82,6.15,2.34,0,4.44-.9,6.45-2.73l.54.57Z"/><path d="m1018.56,276.85h9.72l1.05-5.04c.51-2.34.63-3.06-2.04-3.06l.18-.9h8.04l-.18.9c-2.67,0-2.79.69-3.3,3.06l-2.43,11.82c-.54,2.58-.39,3.03,2.16,3.03l-.18.9h-7.92l.15-.9c2.34,0,2.52-.42,3.06-3.03l1.17-5.61h-9.69l-1.14,5.61c-.57,2.64-.3,3.03,2.16,3.03l-.18.9h-8.22l.18-.9c2.37,0,2.79-.36,3.33-3.03l2.46-11.82c.51-2.4.39-3.06-2.22-3.06l.18-.9h8.25l-.15.9c-2.76,0-2.85.72-3.39,3.06l-1.05,5.04Z"/><path d="m386.52,297.85c6.24,0,9.06,3.09,9.06,7.77,0,8.49-5.52,11.94-13.17,11.94h-7.62l.18-.9c2.28,0,2.82-.39,3.3-2.82l2.61-12.57c.42-2.19-.18-2.52-2.34-2.52l.18-.9h7.8Zm-6.06,18.45c.57.09,1.17.09,1.95.09,6.45,0,10.17-3.09,10.17-10.5,0-3.66-1.35-6.84-7.26-6.84-.51,0-.78.03-1.32.09l-3.54,17.16Z"/><path d="m572.18,147.56h-15.57l.18-.9c2.07,0,2.79-.36,3.21-2.46l2.64-12.69c.48-2.28.18-2.76-2.28-2.76l.18-.9h15.36l-.81,4.92h-.93c.15-3-.51-3.75-4.2-3.75h-4.17l-1.62,7.8h3.33c2.76,0,3.48-.57,3.96-3h.96l-1.41,6.96h-.93c.48-2.49-.06-2.82-2.82-2.82h-3.3l-1.71,8.43h3.63c4.62.03,5.04-.78,6.96-4.41h.96l-1.62,5.58Z"/><path d="m971.13,139.22c-1.71,0-2.1.42-2.46,2.28l-.9,4.35c-2.43,1.26-4.44,2.04-7.62,2.04-5.76,0-7.53-3.51-7.53-7.35,0-8.67,5.91-13.08,11.91-13.08,3.18,0,3.93,1.11,4.71,1.11.45,0,.75-.42,1.23-1.08h.84l-1.38,6.87h-.99c.12-3.99-1.59-5.61-4.68-5.61-4.59,0-8.58,4.17-8.61,11.07,0,4.44,1.56,6.75,5.22,6.75,1.83,0,3.15-.6,4.47-1.5l.63-3.27c.45-2.16.21-2.58-2.07-2.58l.18-.93h7.2l-.15.93Z"/><path d="m771.78,9.74c.03-2.85-.09-3.72-3.99-3.72h-4.5l-1.62,7.8h3.33c2.55,0,3.18-.57,3.69-2.97h.96l-1.38,6.99h-.99c.48-2.55,0-2.88-2.58-2.88h-3.24l-1.29,6.42c-.09.39-.12.75-.12,1.02,0,1.05.96,1.26,2.82,1.26l-.15.9h-8.64l.18-.9c2.07,0,2.79-.36,3.24-2.58l2.67-12.84c.42-2.07.09-2.49-2.34-2.49l.18-.9h15.48l-.81,4.89h-.9Z"/><path d="m665.74,110.81h-8.34l-1.87,5.21h-2.71l7.6-19.91h2.3l7.62,19.91h-2.69l-1.9-5.21Zm-7.55-2.15h6.77l-3.39-9.31-3.38,9.31Z"/><path d="m674.99,101.22l.07,1.64c1.08-1.28,2.55-1.91,4.39-1.91,2.07,0,3.48.79,4.22,2.38.49-.71,1.13-1.29,1.92-1.72.79-.44,1.72-.66,2.8-.66,3.24,0,4.89,1.72,4.95,5.15v9.91h-2.53v-9.76c0-1.06-.24-1.85-.72-2.37-.48-.52-1.29-.79-2.43-.79-.94,0-1.72.28-2.34.84-.62.56-.98,1.31-1.08,2.26v9.82h-2.54v-9.69c0-2.15-1.05-3.23-3.16-3.23-1.66,0-2.79.71-3.4,2.12v10.8h-2.53v-14.79h2.39Z"/><path d="m709.65,108.78c0,2.25-.52,4.07-1.54,5.44-1.03,1.38-2.42,2.06-4.18,2.06s-3.21-.57-4.24-1.71v7.12h-2.53v-20.48h2.31l.12,1.64c1.03-1.28,2.46-1.91,4.29-1.91s3.18.67,4.22,2.01c1.03,1.34,1.55,3.2,1.55,5.59v.23Zm-2.53-.29c0-1.67-.36-2.98-1.07-3.95-.71-.97-1.69-1.45-2.93-1.45-1.53,0-2.68.68-3.45,2.04v7.07c.76,1.35,1.91,2.02,3.47,2.02,1.21,0,2.18-.48,2.89-1.44.72-.96,1.07-2.39,1.07-4.29Z"/><path d="m715.61,116.02h-2.53v-21h2.53v21Z"/><path d="m719.67,97.3c0-.41.12-.76.38-1.04.25-.28.62-.42,1.11-.42s.87.14,1.12.42c.25.28.38.63.38,1.04s-.13.75-.38,1.03c-.26.27-.63.41-1.12.41s-.86-.14-1.11-.41c-.25-.27-.38-.62-.38-1.03Zm2.73,18.72h-2.53v-14.79h2.53v14.79Z"/><path d="m729.89,97.64v3.58h2.76v1.96h-2.76v9.19c0,.59.12,1.04.37,1.33s.67.44,1.26.44c.29,0,.69-.05,1.2-.16v2.04c-.67.18-1.31.27-1.94.27-1.13,0-1.98-.34-2.56-1.03s-.86-1.65-.86-2.91v-9.17h-2.69v-1.96h2.69v-3.58h2.53Z"/><path d="m744.73,114.55c-.98,1.16-2.43,1.74-4.33,1.74-1.58,0-2.78-.46-3.6-1.37-.83-.92-1.24-2.27-1.25-4.07v-9.62h2.53v9.56c0,2.24.91,3.36,2.73,3.36,1.93,0,3.22-.72,3.86-2.16v-10.76h2.53v14.79h-2.41l-.05-1.46Z"/><path d="m750.42,108.5c0-2.27.54-4.09,1.61-5.48,1.08-1.38,2.48-2.07,4.22-2.07s3.1.59,4.12,1.78v-7.71h2.53v21h-2.32l-.12-1.59c-1.01,1.24-2.42,1.86-4.22,1.86s-3.11-.7-4.19-2.11c-1.08-1.4-1.62-3.24-1.62-5.5v-.19Zm2.53.29c0,1.68.35,2.99,1.04,3.94.69.95,1.65,1.42,2.87,1.42,1.6,0,2.78-.72,3.51-2.16v-6.79c-.76-1.39-1.92-2.09-3.49-2.09-1.24,0-2.21.48-2.9,1.44-.69.96-1.04,2.37-1.04,4.25Z"/><path d="m772.97,116.29c-2.01,0-3.64-.66-4.89-1.98-1.26-1.32-1.89-3.08-1.89-5.28v-.46c0-1.47.28-2.78.84-3.93.56-1.15,1.34-2.06,2.35-2.71,1.01-.65,2.1-.98,3.27-.98,1.92,0,3.42.63,4.48,1.9,1.07,1.27,1.6,3.08,1.6,5.44v1.05h-10.02c.04,1.46.46,2.64,1.28,3.53.82.9,1.85,1.35,3.11,1.35.89,0,1.65-.18,2.27-.55.62-.36,1.16-.85,1.63-1.45l1.54,1.2c-1.24,1.91-3.1,2.86-5.58,2.86Zm-.31-13.26c-1.02,0-1.88.37-2.57,1.11-.69.74-1.12,1.78-1.29,3.12h7.41v-.19c-.07-1.29-.42-2.28-1.04-2.99-.62-.71-1.46-1.06-2.52-1.06Z"/><path d="m900.62,30.69c-.25,2.11-1.02,3.73-2.33,4.87-1.31,1.14-3.05,1.72-5.22,1.72-2.35,0-4.24-.84-5.65-2.53-1.42-1.69-2.13-3.94-2.13-6.77v-1.91c0-1.85.33-3.48.99-4.88.66-1.4,1.6-2.48,2.81-3.23,1.21-.75,2.62-1.13,4.21-1.13,2.11,0,3.81.59,5.09,1.77,1.28,1.18,2.02,2.81,2.23,4.9h-2.64c-.23-1.59-.72-2.74-1.48-3.46-.76-.71-1.83-1.07-3.19-1.07-1.68,0-2.99.62-3.94,1.86-.95,1.24-1.43,3.01-1.43,5.29v1.93c0,2.16.45,3.88,1.35,5.16s2.16,1.92,3.79,1.92c1.46,0,2.58-.33,3.36-.99.78-.66,1.3-1.81,1.55-3.45h2.64Z"/><path d="m910.95,24.48c-.38-.06-.8-.1-1.24-.1-1.66,0-2.78.71-3.38,2.12v10.5h-2.53v-14.79h2.46l.04,1.71c.83-1.32,2-1.98,3.53-1.98.49,0,.87.06,1.12.19v2.35Z"/><path d="m919.15,37.28c-2.01,0-3.64-.66-4.89-1.98-1.26-1.32-1.89-3.08-1.89-5.28v-.46c0-1.47.28-2.78.84-3.93.56-1.15,1.34-2.06,2.35-2.71,1.01-.65,2.1-.98,3.27-.98,1.92,0,3.42.63,4.48,1.9,1.07,1.27,1.6,3.08,1.6,5.44v1.05h-10.02c.04,1.46.46,2.64,1.28,3.53.82.9,1.85,1.35,3.11,1.35.89,0,1.65-.18,2.27-.55.62-.36,1.16-.85,1.63-1.45l1.54,1.2c-1.24,1.91-3.1,2.86-5.58,2.86Zm-.31-13.26c-1.02,0-1.88.37-2.57,1.11-.69.74-1.12,1.78-1.29,3.12h7.41v-.19c-.07-1.29-.42-2.28-1.04-2.99-.62-.71-1.46-1.06-2.52-1.06Z"/><path d="m936.46,33.08c0-.68-.26-1.21-.77-1.59-.52-.38-1.41-.7-2.69-.98-1.28-.27-2.3-.6-3.05-.98s-1.31-.84-1.67-1.37c-.36-.53-.54-1.16-.54-1.89,0-1.21.51-2.24,1.54-3.08,1.03-.84,2.34-1.26,3.93-1.26,1.68,0,3.04.43,4.08,1.3,1.04.87,1.57,1.97,1.57,3.32h-2.54c0-.69-.29-1.29-.88-1.79-.59-.5-1.33-.75-2.22-.75s-1.64.2-2.16.6c-.52.4-.78.93-.78,1.57,0,.61.24,1.07.72,1.38.48.31,1.36.61,2.62.89,1.26.28,2.29.62,3.07,1.01.78.39,1.36.86,1.74,1.42.38.55.57,1.22.57,2.02,0,1.32-.53,2.38-1.59,3.18-1.06.8-2.43,1.2-4.12,1.2-1.19,0-2.23-.21-3.14-.63-.91-.42-1.62-1-2.14-1.76-.52-.75-.77-1.57-.77-2.44h2.53c.05.85.38,1.52,1.02,2.02.63.5,1.47.75,2.51.75.96,0,1.72-.19,2.3-.58.58-.39.87-.9.87-1.55Z"/><path d="m945.72,18.63v3.58h2.76v1.96h-2.76v9.19c0,.59.12,1.04.37,1.33s.67.44,1.26.44c.29,0,.69-.05,1.2-.16v2.04c-.67.18-1.31.27-1.94.27-1.13,0-1.98-.34-2.56-1.03s-.86-1.65-.86-2.91v-9.17h-2.69v-1.96h2.69v-3.58h2.53Z"/><path d="m506.95,316.25h-6.4v17.76h-2.61v-17.76h-6.38v-2.15h15.39v2.15Z"/><path d="m515.63,321.48c-.38-.06-.8-.1-1.24-.1-1.66,0-2.78.71-3.38,2.12v10.5h-2.53v-14.79h2.46l.04,1.71c.83-1.32,2-1.98,3.53-1.98.49,0,.87.06,1.12.19v2.35Z"/><path d="m517.01,326.47c0-1.45.28-2.75.85-3.91.57-1.16,1.36-2.05,2.38-2.68,1.02-.63,2.18-.94,3.48-.94,2.01,0,3.64.7,4.89,2.09s1.87,3.25,1.87,5.56v.18c0,1.44-.28,2.73-.83,3.88-.55,1.14-1.34,2.04-2.37,2.67-1.03.64-2.2.96-3.53.96-2.01,0-3.63-.7-4.87-2.09s-1.87-3.24-1.87-5.54v-.18Zm2.54.3c0,1.64.38,2.96,1.14,3.95.76.99,1.78,1.49,3.06,1.49s2.31-.5,3.06-1.51c.76-1.01,1.13-2.42,1.13-4.23,0-1.62-.39-2.94-1.16-3.94-.77-1.01-1.79-1.51-3.07-1.51s-2.26.5-3.02,1.49c-.77.99-1.15,2.42-1.15,4.27Z"/><path d="m542.78,332.54c-.98,1.16-2.43,1.74-4.33,1.74-1.58,0-2.78-.46-3.6-1.37-.83-.92-1.24-2.27-1.25-4.07v-9.62h2.53v9.56c0,2.24.91,3.36,2.73,3.36,1.93,0,3.22-.72,3.86-2.16v-10.76h2.53v14.79h-2.41l-.05-1.46Z"/><path d="m548.48,326.49c0-2.31.53-4.14,1.6-5.5,1.07-1.36,2.48-2.04,4.24-2.04s3.21.64,4.22,1.91l.12-1.64h2.31v14.44c0,1.91-.57,3.42-1.7,4.53-1.13,1.1-2.66,1.65-4.57,1.65-1.07,0-2.11-.23-3.13-.68-1.02-.46-1.8-1.08-2.34-1.87l1.31-1.52c1.08,1.34,2.41,2.01,3.98,2.01,1.23,0,2.19-.35,2.88-1.04.69-.69,1.03-1.67,1.03-2.93v-1.27c-1.01,1.17-2.39,1.75-4.14,1.75s-3.13-.7-4.2-2.09c-1.07-1.39-1.61-3.29-1.61-5.7Zm2.54.29c0,1.67.34,2.98,1.03,3.93.68.95,1.64,1.43,2.87,1.43,1.59,0,2.77-.72,3.51-2.17v-6.75c-.77-1.41-1.94-2.12-3.49-2.12-1.23,0-2.19.48-2.88,1.44-.69.96-1.04,2.37-1.04,4.25Z"/><path d="m567.32,321.01c1.12-1.38,2.58-2.06,4.38-2.06,3.13,0,4.7,1.76,4.73,5.29v9.78h-2.53v-9.79c0-1.07-.25-1.85-.73-2.37-.48-.51-1.22-.77-2.24-.77-.82,0-1.54.22-2.16.66-.62.44-1.1,1.01-1.45,1.72v10.54h-2.53v-21h2.53v8Z"/><path d="m294.08,83.81h-8.63v7.05h10.02v2.15h-12.65v-19.91h12.51v2.15h-9.88v6.41h8.63v2.15Z"/><path d="m297.47,85.49c0-2.32.53-4.16,1.6-5.52s2.5-2.03,4.29-2.03,3.13.59,4.14,1.76l.11-1.49h2.32v20.48h-2.53v-7.05c-1.02,1.09-2.38,1.64-4.07,1.64-1.79,0-3.21-.69-4.27-2.08-1.06-1.39-1.59-3.23-1.59-5.53v-.18Zm2.53.29c0,1.7.36,3.03,1.07,3.99.72.97,1.68,1.45,2.89,1.45,1.5,0,2.65-.67,3.45-2v-7.25c-.8-1.3-1.94-1.96-3.42-1.96-1.22,0-2.19.49-2.91,1.46-.72.97-1.08,2.4-1.08,4.3Z"/><path d="m323.13,91.54c-.98,1.16-2.43,1.74-4.33,1.74-1.58,0-2.78-.46-3.6-1.37-.83-.92-1.24-2.27-1.25-4.07v-9.62h2.53v9.56c0,2.24.91,3.36,2.73,3.36,1.93,0,3.22-.72,3.86-2.16v-10.76h2.53v14.79h-2.41l-.05-1.46Z"/><path d="m329.45,74.29c0-.41.12-.76.38-1.04.25-.28.62-.42,1.11-.42s.87.14,1.12.42c.25.28.38.63.38,1.04s-.13.75-.38,1.03c-.26.27-.63.41-1.12.41s-.86-.14-1.11-.41c-.25-.27-.38-.62-.38-1.03Zm2.73,18.72h-2.53v-14.79h2.53v14.79Z"/><path d="m338.98,93.01h-2.53v-21h2.53v21Z"/><path d="m343.04,74.29c0-.41.12-.76.38-1.04.25-.28.62-.42,1.11-.42s.87.14,1.12.42c.25.28.38.63.38,1.04s-.13.75-.38,1.03c-.26.27-.63.41-1.12.41s-.86-.14-1.11-.41c-.25-.27-.38-.62-.38-1.03Zm2.73,18.72h-2.53v-14.79h2.53v14.79Z"/><path d="m362.34,85.78c0,2.26-.52,4.08-1.56,5.45-1.04,1.37-2.43,2.06-4.18,2.06-1.87,0-3.31-.66-4.33-1.98l-.12,1.71h-2.32v-21h2.53v7.83c1.02-1.27,2.43-1.9,4.22-1.9s3.21.68,4.23,2.04c1.03,1.36,1.54,3.22,1.54,5.58v.22Zm-2.53-.29c0-1.72-.33-3.05-1-3.99-.67-.94-1.62-1.41-2.87-1.41-1.67,0-2.87.77-3.6,2.32v6.4c.77,1.55,1.98,2.32,3.62,2.32,1.21,0,2.16-.47,2.83-1.41.67-.94,1.01-2.35,1.01-4.24Z"/><path d="m372.68,80.48c-.38-.06-.8-.1-1.24-.1-1.66,0-2.78.71-3.38,2.12v10.5h-2.53v-14.79h2.46l.04,1.71c.83-1.32,2-1.98,3.53-1.98.49,0,.87.06,1.12.19v2.35Z"/><path d="m375.02,74.29c0-.41.12-.76.38-1.04.25-.28.62-.42,1.11-.42s.87.14,1.12.42c.25.28.38.63.38,1.04s-.13.75-.38,1.03c-.26.27-.63.41-1.12.41s-.86-.14-1.11-.41c-.25-.27-.38-.62-.38-1.03Zm2.73,18.72h-2.53v-14.79h2.53v14.79Z"/><path d="m390.93,91.54c-.98,1.16-2.43,1.74-4.33,1.74-1.58,0-2.78-.46-3.6-1.37-.83-.92-1.24-2.27-1.25-4.07v-9.62h2.53v9.56c0,2.24.91,3.36,2.73,3.36,1.93,0,3.22-.72,3.86-2.16v-10.76h2.53v14.79h-2.41l-.05-1.46Z"/><path d="m399.61,78.21l.07,1.64c1.08-1.28,2.55-1.91,4.39-1.91,2.07,0,3.48.79,4.22,2.38.49-.71,1.13-1.29,1.92-1.72.79-.44,1.72-.66,2.8-.66,3.24,0,4.89,1.72,4.95,5.15v9.91h-2.53v-9.76c0-1.06-.24-1.85-.72-2.37-.48-.52-1.29-.79-2.43-.79-.94,0-1.72.28-2.34.84-.62.56-.98,1.31-1.08,2.26v9.82h-2.54v-9.69c0-2.15-1.05-3.23-3.16-3.23-1.66,0-2.79.71-3.4,2.12v10.8h-2.53v-14.79h2.39Z"/><path d="m431.45,93.01h-2.53v-21h2.53v21Z"/><path d="m435.51,74.29c0-.41.12-.76.38-1.04.25-.28.62-.42,1.11-.42s.87.14,1.12.42c.25.28.38.63.38,1.04s-.13.75-.38,1.03c-.26.27-.63.41-1.12.41s-.86-.14-1.11-.41c-.25-.27-.38-.62-.38-1.03Zm2.73,18.72h-2.53v-14.79h2.53v14.79Z"/><path d="m444.69,78.21l.08,1.86c1.13-1.42,2.61-2.13,4.43-2.13,3.13,0,4.7,1.76,4.73,5.29v9.78h-2.53v-9.79c0-1.07-.25-1.85-.73-2.37-.48-.51-1.22-.77-2.24-.77-.82,0-1.54.22-2.16.66-.62.44-1.1,1.01-1.45,1.72v10.54h-2.53v-14.79h2.39Z"/><path d="m463.88,93.28c-2.01,0-3.64-.66-4.89-1.98-1.26-1.32-1.89-3.08-1.89-5.28v-.46c0-1.47.28-2.78.84-3.93.56-1.15,1.34-2.06,2.35-2.71,1.01-.65,2.1-.98,3.27-.98,1.92,0,3.42.63,4.48,1.9,1.07,1.27,1.6,3.08,1.6,5.44v1.05h-10.02c.04,1.46.46,2.64,1.28,3.53.82.9,1.85,1.35,3.11,1.35.89,0,1.65-.18,2.27-.55.62-.36,1.16-.85,1.63-1.45l1.54,1.2c-1.24,1.91-3.1,2.86-5.58,2.86Zm-.31-13.26c-1.02,0-1.88.37-2.57,1.11-.69.74-1.12,1.78-1.29,3.12h7.41v-.19c-.07-1.29-.42-2.28-1.04-2.99-.62-.71-1.46-1.06-2.52-1.06Z"/><path d="m626.76,215.71c0,1.95-.33,3.65-.98,5.11-.66,1.45-1.59,2.56-2.79,3.33s-2.61,1.15-4.21,1.15-2.96-.38-4.17-1.16c-1.21-.77-2.15-1.87-2.82-3.29-.67-1.43-1.01-3.08-1.03-4.96v-1.44c0-1.91.33-3.6,1-5.07.67-1.47,1.61-2.59,2.82-3.37s2.61-1.17,4.18-1.17,3,.39,4.22,1.16c1.22.77,2.15,1.89,2.81,3.35s.98,3.17.98,5.11v1.26Zm-2.61-1.29c0-2.36-.47-4.17-1.42-5.43-.95-1.26-2.27-1.89-3.98-1.89s-2.96.63-3.92,1.89c-.95,1.26-1.44,3.01-1.47,5.26v1.46c0,2.29.48,4.09,1.44,5.39.96,1.31,2.29,1.96,3.97,1.96s3.01-.62,3.94-1.85c.93-1.23,1.41-3.01,1.44-5.31v-1.48Z"/><path d="m632.69,210.22l.08,1.86c1.13-1.42,2.61-2.13,4.43-2.13,3.13,0,4.7,1.76,4.73,5.29v9.78h-2.53v-9.79c0-1.07-.25-1.85-.73-2.37-.48-.51-1.22-.77-2.24-.77-.82,0-1.54.22-2.16.66-.62.44-1.1,1.01-1.45,1.72v10.54h-2.53v-14.79h2.39Z"/><path d="m651.89,225.29c-2.01,0-3.64-.66-4.89-1.98-1.26-1.32-1.89-3.08-1.89-5.28v-.46c0-1.47.28-2.78.84-3.93.56-1.15,1.34-2.06,2.35-2.71,1.01-.65,2.1-.98,3.27-.98,1.92,0,3.42.63,4.48,1.9,1.07,1.27,1.6,3.08,1.6,5.44v1.05h-10.02c.04,1.46.46,2.64,1.28,3.53.82.9,1.85,1.35,3.11,1.35.89,0,1.65-.18,2.27-.55.62-.36,1.16-.85,1.63-1.45l1.54,1.2c-1.24,1.91-3.1,2.86-5.58,2.86Zm-.31-13.26c-1.02,0-1.88.37-2.57,1.11-.69.74-1.12,1.78-1.29,3.12h7.41v-.19c-.07-1.29-.42-2.28-1.04-2.99-.62-.71-1.46-1.06-2.52-1.06Z"/><path d="m680.61,221.53l2.84-11.31h2.53l-4.31,14.79h-2.05l-3.6-11.21-3.5,11.21h-2.05l-4.29-14.79h2.52l2.91,11.07,3.45-11.07h2.04l3.51,11.31Z"/><path d="m697.69,225.02c-.15-.29-.26-.81-.36-1.56-1.18,1.22-2.58,1.83-4.21,1.83-1.46,0-2.65-.41-3.59-1.24-.93-.82-1.4-1.87-1.4-3.14,0-1.54.59-2.74,1.76-3.59,1.17-.85,2.82-1.28,4.94-1.28h2.46v-1.16c0-.88-.26-1.59-.79-2.11-.53-.52-1.31-.79-2.34-.79-.9,0-1.66.23-2.27.68-.61.46-.92,1.01-.92,1.65h-2.54c0-.74.26-1.45.79-2.14.52-.69,1.23-1.23,2.13-1.63.9-.4,1.88-.6,2.96-.6,1.7,0,3.04.43,4.01,1.28.97.85,1.47,2.03,1.5,3.52v6.81c0,1.36.17,2.44.52,3.24v.22h-2.65Zm-4.2-1.93c.79,0,1.54-.21,2.26-.62s1.23-.94,1.54-1.6v-3.04h-1.98c-3.1,0-4.65.91-4.65,2.72,0,.79.26,1.41.79,1.86.53.45,1.21.67,2.04.67Z"/><path d="m708.46,221.58l3.66-11.36h2.58l-5.3,14.79h-1.93l-5.36-14.79h2.58l3.76,11.36Z"/><path d="m723.1,225.29c-2.01,0-3.64-.66-4.89-1.98-1.26-1.32-1.89-3.08-1.89-5.28v-.46c0-1.47.28-2.78.84-3.93.56-1.15,1.34-2.06,2.35-2.71,1.01-.65,2.1-.98,3.27-.98,1.92,0,3.42.63,4.48,1.9,1.07,1.27,1.6,3.08,1.6,5.44v1.05h-10.02c.04,1.46.46,2.64,1.28,3.53.82.9,1.85,1.35,3.11,1.35.89,0,1.65-.18,2.27-.55.62-.36,1.16-.85,1.63-1.45l1.54,1.2c-1.24,1.91-3.1,2.86-5.58,2.86Zm-.31-13.26c-1.02,0-1.88.37-2.57,1.11-.69.74-1.12,1.78-1.29,3.12h7.41v-.19c-.07-1.29-.42-2.28-1.04-2.99-.62-.71-1.46-1.06-2.52-1.06Z"/><path d="m734.55,225.02h-2.53v-21h2.53v21Z"/><path d="m744.73,225.29c-2.01,0-3.64-.66-4.89-1.98-1.26-1.32-1.89-3.08-1.89-5.28v-.46c0-1.47.28-2.78.84-3.93.56-1.15,1.34-2.06,2.35-2.71,1.01-.65,2.1-.98,3.27-.98,1.92,0,3.42.63,4.48,1.9,1.07,1.27,1.6,3.08,1.6,5.44v1.05h-10.02c.04,1.46.46,2.64,1.28,3.53.82.9,1.85,1.35,3.11,1.35.89,0,1.65-.18,2.27-.55.62-.36,1.16-.85,1.63-1.45l1.54,1.2c-1.24,1.91-3.1,2.86-5.58,2.86Zm-.31-13.26c-1.02,0-1.88.37-2.57,1.11-.69.74-1.12,1.78-1.29,3.12h7.41v-.19c-.07-1.29-.42-2.28-1.04-2.99-.62-.71-1.46-1.06-2.52-1.06Z"/><path d="m755.82,210.22l.08,1.86c1.13-1.42,2.61-2.13,4.43-2.13,3.13,0,4.7,1.76,4.73,5.29v9.78h-2.53v-9.79c0-1.07-.25-1.85-.73-2.37-.48-.51-1.22-.77-2.24-.77-.82,0-1.54.22-2.16.66-.62.44-1.1,1.01-1.45,1.72v10.54h-2.53v-14.79h2.39Z"/><path d="m768.28,217.5c0-2.31.53-4.14,1.6-5.5,1.07-1.36,2.48-2.04,4.24-2.04s3.21.64,4.22,1.91l.12-1.64h2.31v14.44c0,1.91-.57,3.42-1.7,4.53-1.13,1.1-2.66,1.65-4.57,1.65-1.07,0-2.11-.23-3.13-.68-1.02-.46-1.8-1.08-2.34-1.87l1.31-1.52c1.08,1.34,2.41,2.01,3.98,2.01,1.23,0,2.19-.35,2.88-1.04.69-.69,1.03-1.67,1.03-2.93v-1.27c-1.01,1.17-2.39,1.75-4.14,1.75s-3.13-.7-4.2-2.09c-1.07-1.39-1.61-3.29-1.61-5.7Zm2.54.29c0,1.67.34,2.98,1.03,3.93.68.95,1.64,1.43,2.87,1.43,1.59,0,2.77-.72,3.51-2.17v-6.75c-.77-1.41-1.94-2.12-3.49-2.12-1.23,0-2.19.48-2.88,1.44-.69.96-1.04,2.37-1.04,4.25Z"/><path d="m788.02,206.64v3.58h2.76v1.96h-2.76v9.19c0,.59.12,1.04.37,1.33s.67.44,1.26.44c.29,0,.69-.05,1.2-.16v2.04c-.67.18-1.31.27-1.94.27-1.13,0-1.98-.34-2.56-1.03s-.86-1.65-.86-2.91v-9.17h-2.69v-1.96h2.69v-3.58h2.53Z"/><path d="m796.26,212.01c1.12-1.38,2.58-2.06,4.38-2.06,3.13,0,4.7,1.76,4.73,5.29v9.78h-2.53v-9.79c0-1.07-.25-1.85-.73-2.37-.48-.51-1.22-.77-2.24-.77-.82,0-1.54.22-2.16.66-.62.44-1.1,1.01-1.45,1.72v10.54h-2.53v-21h2.53v8Z"/><path d="m815.99,216.94c0-2.06.28-4.04.83-5.93.55-1.9,1.37-3.62,2.47-5.17,1.09-1.55,2.23-2.64,3.4-3.28l.52,1.67c-1.33,1.02-2.42,2.58-3.27,4.68-.85,2.1-1.32,4.44-1.4,7.04v1.16c-.01,3.52.63,6.57,1.91,9.16.77,1.55,1.7,2.76,2.76,3.64l-.52,1.54c-1.21-.67-2.37-1.8-3.47-3.39-2.15-3.1-3.23-6.8-3.23-11.12Z"/><path d="m833.43,219.02c.48,2.35,1.18,4.12,2.49,4.12.84,0,1.37-.31,1.93-1.01l.48.31c-.59,1.57-1.74,2.88-3.22,2.88s-2.35-1.29-2.77-3.42c-.5-2.52-.45-4.98-.76-7.67h-.14c-.64,1.26-3.39,7.98-4.48,10.78h-2.72l-.08-.45c2.13-3.92,4.73-8.9,6.83-12.85-.06-.59-.08-.64-.22-1.51-.34-1.74-1.18-2.94-2.35-2.94-.84,0-1.43.34-1.99,1.09l-.48-.22c.67-1.68,1.51-2.88,3.22-2.88,1.9,0,2.32,1.93,2.77,4.14.64,3.42.9,6.55,1.48,9.63Z"/><path d="m845.66,217.07c0,2.03-.27,3.98-.8,5.84-.53,1.86-1.35,3.58-2.45,5.16-1.1,1.58-2.25,2.7-3.45,3.36l-.53-1.54c1.4-1.08,2.53-2.75,3.38-5.01.85-2.26,1.29-4.78,1.31-7.54v-.44c0-1.91-.2-3.69-.6-5.34-.4-1.65-.96-3.12-1.67-4.42-.72-1.3-1.52-2.32-2.41-3.05l.53-1.54c1.2.67,2.35,1.78,3.44,3.34,1.09,1.56,1.9,3.28,2.45,5.15.54,1.88.81,3.89.81,6.03Z"/></svg>