<?xml version="1.0" encoding="UTF-8"?>
<svg id="a" data-name="Layer 1" xmlns="http://www.w3.org/2000/svg" width="1140" height="570" viewBox="0 0 1140 570">
  <path d="m331.043,51.247c-63.422-7.035-126.906-11.16-186.19,17.387-51.107,24.61-85.551,70.404-105.186,118.786C-2.956,292.447-21.409,446.199,84.961,523.879c94.099,68.719,219.919,32.634,326.94,23.43,86.821-7.466,174.074-11.482,261.242-8.375,42.827,1.526,85.706,3.764,128.376,7.613,45.203,4.078,90.834,9.619,136.224,4.676,92.539-10.077,168.318-72.63,190.324-158.484,12.393-48.352,9.892-99.012,3.835-148.441-6.793-55.443-19.826-113.938-61.059-153.738-46.189-44.583-112.427-50.963-174.908-50.336-72.778.731-144.648,13.113-217.096,18.215-97.145,6.842-195.113,8.829-292.065-1.404-18.579-1.961-37.137-3.728-55.731-5.79Z" fill="#e8e2f0"/>
  <g>
    <path d="m461.976,12.215h-6.533v17.769h-4.395V12.215h-6.445v-3.56h17.373v3.56Z"/>
    <path d="m468.333,15.863c1.123-1.348,2.534-2.021,4.233-2.021,3.438,0,5.181,1.997,5.229,5.991v10.151h-4.233v-10.034c0-.908-.195-1.58-.586-2.014s-1.04-.652-1.948-.652c-1.24,0-2.139.479-2.695,1.436v11.265h-4.233V7.484h4.233v8.379Z"/>
    <path d="m488.284,30.277c-2.324,0-4.217-.713-5.677-2.139s-2.189-3.325-2.189-5.698v-.41c0-1.592.308-3.015.923-4.27s1.486-2.222,2.614-2.9,2.415-1.018,3.86-1.018c2.168,0,3.874.684,5.119,2.051s1.868,3.306,1.868,5.815v1.729h-10.093c.137,1.035.549,1.865,1.237,2.49s1.561.938,2.615.938c1.631,0,2.905-.591,3.823-1.772l2.08,2.329c-.635.898-1.494,1.599-2.578,2.102s-2.285.754-3.604.754Zm-.483-13.022c-.84,0-1.521.285-2.044.854s-.856,1.383-1.003,2.442h5.889v-.338c-.02-.942-.273-1.67-.762-2.185s-1.182-.772-2.08-.772Z"/>
    <path d="m504.954,29.984V8.656h6.562c1.875,0,3.552.422,5.031,1.267s2.635,2.046,3.465,3.604,1.245,3.328,1.245,5.31v.981c0,1.982-.408,3.745-1.224,5.288s-1.965,2.739-3.449,3.589-3.159,1.279-5.024,1.289h-6.606Zm4.395-17.769v14.238h2.124c1.719,0,3.032-.562,3.94-1.685s1.372-2.729,1.392-4.819v-1.128c0-2.168-.449-3.811-1.348-4.929s-2.212-1.677-3.94-1.677h-2.168Z"/>
    <path d="m523.514,21.913c0-1.572.303-2.974.908-4.204s1.477-2.183,2.614-2.856,2.459-1.011,3.963-1.011c2.139,0,3.884.654,5.236,1.963s2.107,3.086,2.264,5.332l.029,1.084c0,2.432-.679,4.382-2.036,5.852s-3.179,2.205-5.464,2.205-4.109-.732-5.472-2.197-2.043-3.457-2.043-5.977v-.19Zm4.233.3c0,1.506.283,2.658.85,3.455.566.797,1.377,1.196,2.432,1.196,1.025,0,1.826-.394,2.402-1.181.576-.787.864-2.046.864-3.777,0-1.477-.288-2.622-.864-3.433s-1.387-1.218-2.432-1.218c-1.035,0-1.836.403-2.402,1.21s-.85,2.056-.85,3.748Z"/>
    <path d="m555.403,22.206c0,2.441-.555,4.397-1.663,5.867s-2.604,2.205-4.489,2.205c-1.602,0-2.896-.557-3.882-1.67v7.471h-4.233V14.134h3.926l.146,1.553c1.025-1.23,2.363-1.846,4.014-1.846,1.953,0,3.472.723,4.556,2.168s1.626,3.438,1.626,5.977v.22Zm-4.233-.308c0-1.475-.262-2.612-.784-3.413s-1.281-1.201-2.277-1.201c-1.328,0-2.241.508-2.739,1.523v6.489c.518,1.045,1.44,1.567,2.769,1.567,2.021,0,3.032-1.655,3.032-4.966Z"/>
    <path d="m572.293,22.206c0,2.441-.555,4.397-1.663,5.867s-2.604,2.205-4.489,2.205c-1.602,0-2.896-.557-3.882-1.67v7.471h-4.233V14.134h3.926l.146,1.553c1.025-1.23,2.363-1.846,4.014-1.846,1.953,0,3.472.723,4.556,2.168s1.626,3.438,1.626,5.977v.22Zm-4.233-.308c0-1.475-.262-2.612-.784-3.413s-1.281-1.201-2.277-1.201c-1.328,0-2.241.508-2.739,1.523v6.489c.518,1.045,1.44,1.567,2.769,1.567,2.021,0,3.032-1.655,3.032-4.966Z"/>
    <path d="m579.383,29.984h-4.248V7.484h4.248v22.5Z"/>
    <path d="m590.164,30.277c-2.324,0-4.217-.713-5.677-2.139s-2.189-3.325-2.189-5.698v-.41c0-1.592.308-3.015.923-4.27s1.486-2.222,2.614-2.9,2.415-1.018,3.86-1.018c2.168,0,3.874.684,5.119,2.051s1.868,3.306,1.868,5.815v1.729h-10.093c.137,1.035.549,1.865,1.237,2.49s1.561.938,2.615.938c1.631,0,2.905-.591,3.823-1.772l2.08,2.329c-.635.898-1.494,1.599-2.578,2.102s-2.285.754-3.604.754Zm-.483-13.022c-.84,0-1.521.285-2.044.854s-.856,1.383-1.003,2.442h5.889v-.338c-.02-.942-.273-1.67-.762-2.185s-1.182-.772-2.08-.772Z"/>
    <path d="m607.991,18.104c-.576-.078-1.084-.117-1.523-.117-1.602,0-2.651.542-3.149,1.626v10.371h-4.233v-15.85h3.999l.117,1.89c.85-1.455,2.026-2.183,3.53-2.183.469,0,.908.063,1.318.19l-.059,4.072Z"/>
    <path d="m630.608,20.741h-8.438v5.713h9.902v3.53h-14.297V8.656h14.268v3.56h-9.873v5.083h8.438v3.442Z"/>
    <path d="m635.267,29.984v-12.744h-2.358v-3.105h2.358v-1.348c0-1.777.51-3.157,1.53-4.138s2.449-1.472,4.285-1.472c.586,0,1.304.098,2.153.293l-.044,3.281c-.352-.088-.781-.132-1.289-.132-1.592,0-2.388.747-2.388,2.241v1.274h3.149v3.105h-3.149v12.744h-4.248Z"/>
    <path d="m646.019,29.984v-12.744h-2.358v-3.105h2.358v-1.348c0-1.777.51-3.157,1.53-4.138s2.449-1.472,4.285-1.472c.586,0,1.304.098,2.153.293l-.044,3.281c-.352-.088-.781-.132-1.289-.132-1.592,0-2.388.747-2.388,2.241v1.274h3.149v3.105h-3.149v12.744h-4.248Z"/>
    <path d="m662.908,30.277c-2.324,0-4.217-.713-5.677-2.139s-2.189-3.325-2.189-5.698v-.41c0-1.592.308-3.015.923-4.27s1.486-2.222,2.614-2.9,2.415-1.018,3.86-1.018c2.168,0,3.874.684,5.119,2.051s1.868,3.306,1.868,5.815v1.729h-10.093c.137,1.035.549,1.865,1.237,2.49s1.561.938,2.615.938c1.631,0,2.905-.591,3.823-1.772l2.08,2.329c-.635.898-1.494,1.599-2.578,2.102s-2.285.754-3.604.754Zm-.483-13.022c-.84,0-1.521.285-2.044.854s-.856,1.383-1.003,2.442h5.889v-.338c-.02-.942-.273-1.67-.762-2.185s-1.182-.772-2.08-.772Z"/>
    <path d="m678.421,26.864c.781,0,1.416-.215,1.904-.645s.742-1.001.762-1.714h3.969c-.01,1.074-.303,2.058-.879,2.952s-1.365,1.587-2.365,2.08c-1.002.493-2.107.74-3.318.74-2.266,0-4.053-.72-5.361-2.161-1.308-1.44-1.962-3.43-1.962-5.969v-.278c0-2.441.649-4.39,1.948-5.845s3.08-2.183,5.346-2.183c1.982,0,3.572.564,4.768,1.692,1.197,1.128,1.805,2.629,1.824,4.504h-3.969c-.02-.824-.273-1.495-.762-2.01-.488-.515-1.133-.773-1.934-.773-.986,0-1.732.359-2.234,1.078-.504.719-.754,1.885-.754,3.499v.44c0,1.634.248,2.808.746,3.521s1.256,1.071,2.271,1.071Z"/>
    <path d="m692.541,10.238v3.896h2.71v3.105h-2.71v7.91c0,.586.112,1.006.337,1.26s.654.381,1.289.381c.469,0,.884-.034,1.245-.103v3.208c-.83.254-1.685.381-2.563.381-2.969,0-4.482-1.499-4.541-4.497v-8.54h-2.314v-3.105h2.314v-3.896h4.233Z"/>
  </g>
  <g>
    <path d="m212.726,102.378c-1.93-.555-3.334-1.236-4.213-2.045s-1.318-1.807-1.318-2.994c0-1.344.537-2.455,1.611-3.334s2.471-1.318,4.189-1.318c1.172,0,2.217.227,3.135.68s1.629,1.078,2.133,1.875.756,1.668.756,2.613h-2.262c0-1.035-.328-1.848-.984-2.44-.656-.592-1.582-.888-2.777-.888-1.109,0-1.975.245-2.596.734s-.932,1.168-.932,2.037c0,.697.295,1.286.885,1.767s1.594.921,3.012,1.321c1.418.399,2.527.839,3.328,1.319s1.395,1.041,1.781,1.682.58,1.395.58,2.262c0,1.383-.539,2.49-1.617,3.322s-2.52,1.248-4.324,1.248c-1.172,0-2.266-.225-3.281-.674s-1.799-1.064-2.35-1.846-.826-1.668-.826-2.66h2.262c0,1.031.381,1.846,1.143,2.443s1.779.896,3.053.896c1.188,0,2.098-.242,2.73-.727s.949-1.145.949-1.98-.293-1.482-.879-1.939-1.648-.908-3.188-1.354Z"/>
    <path d="m224.539,94.234v3.07h2.367v1.676h-2.367v7.873c0,.509.105.89.316,1.144.211.254.57.381,1.078.381.25,0,.594-.047,1.031-.141v1.748c-.57.155-1.125.233-1.664.233-.969,0-1.699-.293-2.191-.879s-.738-1.418-.738-2.496v-7.863h-2.309v-1.676h2.309v-3.07h2.168Z"/>
    <path d="m237.265,109.984c-.125-.25-.227-.695-.305-1.336-1.008,1.047-2.211,1.57-3.609,1.57-1.25,0-2.275-.354-3.076-1.061s-1.201-1.604-1.201-2.689c0-1.32.502-2.346,1.506-3.076s2.416-1.096,4.236-1.096h2.109v-.996c0-.758-.227-1.361-.68-1.811s-1.121-.674-2.004-.674c-.773,0-1.422.195-1.945.586s-.785.863-.785,1.418h-2.18c0-.633.225-1.244.674-1.834s1.059-1.057,1.828-1.4,1.615-.516,2.537-.516c1.461,0,2.605.365,3.434,1.096s1.258,1.736,1.289,3.018v5.836c0,1.164.148,2.09.445,2.777v.188h-2.273Zm-3.598-1.652c.68,0,1.324-.176,1.934-.527s1.051-.809,1.324-1.371v-2.602h-1.699c-2.656,0-3.984.777-3.984,2.332,0,.68.227,1.211.68,1.594s1.035.574,1.746.574Z"/>
    <path d="m245.433,94.234v3.07h2.367v1.676h-2.367v7.873c0,.509.105.89.316,1.144.211.254.57.381,1.078.381.25,0,.594-.047,1.031-.141v1.748c-.57.155-1.125.233-1.664.233-.969,0-1.699-.293-2.191-.879s-.738-1.418-.738-2.496v-7.863h-2.309v-1.676h2.309v-3.07h2.168Z"/>
    <path d="m250.343,93.941c0-.352.107-.648.322-.891s.533-.363.955-.363.742.121.961.363.328.539.328.891-.109.645-.328.879-.539.352-.961.352-.74-.117-.955-.352-.322-.527-.322-.879Zm2.344,16.043h-2.168v-12.68h2.168v12.68Z"/>
    <path d="m255.582,103.527c0-1.242.244-2.359.732-3.352s1.168-1.758,2.039-2.297,1.865-.809,2.982-.809c1.727,0,3.123.598,4.189,1.793s1.6,2.785,1.6,4.77v.152c0,1.234-.236,2.342-.709,3.322s-1.148,1.744-2.027,2.291-1.889.82-3.029.82c-1.719,0-3.111-.598-4.178-1.793s-1.6-2.777-1.6-4.746v-.152Zm2.18.258c0,1.406.326,2.535.979,3.387s1.525,1.277,2.619,1.277c1.102,0,1.977-.432,2.625-1.295s.973-2.072.973-3.627c0-1.391-.33-2.518-.99-3.381s-1.537-1.295-2.631-1.295c-1.07,0-1.934.426-2.59,1.277s-.984,2.07-.984,3.656Z"/>
    <path d="m271.894,97.304l.07,1.594c.969-1.219,2.234-1.828,3.797-1.828,2.68,0,4.031,1.512,4.055,4.535v8.379h-2.168v-8.391c-.008-.914-.217-1.59-.627-2.027s-1.049-.656-1.916-.656c-.703,0-1.32.188-1.852.562s-.945.867-1.242,1.477v9.035h-2.168v-12.68h2.051Z"/>
    <path d="m290.914,109.984c-.125-.25-.227-.695-.305-1.336-1.008,1.047-2.211,1.57-3.609,1.57-1.25,0-2.275-.354-3.076-1.061s-1.201-1.604-1.201-2.689c0-1.32.502-2.346,1.506-3.076s2.416-1.096,4.236-1.096h2.109v-.996c0-.758-.227-1.361-.68-1.811s-1.121-.674-2.004-.674c-.773,0-1.422.195-1.945.586s-.785.863-.785,1.418h-2.18c0-.633.225-1.244.674-1.834s1.059-1.057,1.828-1.4,1.615-.516,2.537-.516c1.461,0,2.605.365,3.434,1.096s1.258,1.736,1.289,3.018v5.836c0,1.164.148,2.09.445,2.777v.188h-2.273Zm-3.598-1.652c.68,0,1.324-.176,1.934-.527s1.051-.809,1.324-1.371v-2.602h-1.699c-2.656,0-3.984.777-3.984,2.332,0,.68.227,1.211.68,1.594s1.035.574,1.746.574Z"/>
    <path d="m302.269,99.25c-.328-.055-.684-.082-1.066-.082-1.422,0-2.387.605-2.895,1.816v9h-2.168v-12.68h2.109l.035,1.465c.711-1.133,1.719-1.699,3.023-1.699.422,0,.742.055.961.164v2.016Z"/>
    <path d="m308.41,106.808l2.953-9.504h2.32l-5.098,14.637c-.789,2.109-2.043,3.164-3.762,3.164l-.41-.035-.809-.152v-1.758l.586.047c.734,0,1.307-.148,1.717-.445s.748-.84,1.014-1.629l.48-1.289-4.523-12.539h2.367l3.164,9.504Z"/>
    <path d="m328.941,106.621c0-.586-.221-1.041-.662-1.365s-1.211-.604-2.309-.838-1.969-.516-2.613-.844-1.121-.719-1.43-1.172-.463-.992-.463-1.617c0-1.039.439-1.918,1.318-2.637s2.002-1.078,3.369-1.078c1.438,0,2.604.371,3.498,1.113s1.342,1.691,1.342,2.848h-2.18c0-.594-.252-1.105-.756-1.535s-1.139-.645-1.904-.645c-.789,0-1.406.172-1.852.516s-.668.793-.668,1.348c0,.523.207.918.621,1.184s1.162.52,2.244.762,1.959.531,2.631.867,1.17.74,1.494,1.213.486,1.049.486,1.729c0,1.133-.453,2.041-1.359,2.725s-2.082,1.025-3.527,1.025c-1.016,0-1.914-.18-2.695-.539s-1.393-.861-1.834-1.506-.662-1.342-.662-2.092h2.168c.039.727.33,1.303.873,1.729s1.26.639,2.15.639c.82,0,1.479-.166,1.975-.498s.744-.775.744-1.33Z"/>
    <path d="m333.359,103.527c0-1.242.244-2.359.732-3.352s1.168-1.758,2.039-2.297,1.865-.809,2.982-.809c1.727,0,3.123.598,4.189,1.793s1.6,2.785,1.6,4.77v.152c0,1.234-.236,2.342-.709,3.322s-1.148,1.744-2.027,2.291-1.889.82-3.029.82c-1.719,0-3.111-.598-4.178-1.793s-1.6-2.777-1.6-4.746v-.152Zm2.18.258c0,1.406.326,2.535.979,3.387s1.525,1.277,2.619,1.277c1.102,0,1.977-.432,2.625-1.295s.973-2.072.973-3.627c0-1.391-.33-2.518-.99-3.381s-1.537-1.295-2.631-1.295c-1.07,0-1.934.426-2.59,1.277s-.984,2.07-.984,3.656Z"/>
    <path d="m355.449,108.73c-.844.992-2.082,1.488-3.715,1.488-1.352,0-2.381-.393-3.088-1.178s-1.064-1.947-1.072-3.486v-8.25h2.168v8.191c0,1.922.781,2.883,2.344,2.883,1.656,0,2.758-.617,3.305-1.852v-9.223h2.168v12.68h-2.062l-.047-1.254Z"/>
    <path d="m366.98,99.25c-.328-.055-.684-.082-1.066-.082-1.422,0-2.387.605-2.895,1.816v9h-2.168v-12.68h2.109l.035,1.465c.711-1.133,1.719-1.699,3.023-1.699.422,0,.742.055.961.164v2.016Z"/>
    <path d="m373.835,108.449c.773,0,1.449-.234,2.027-.703s.898-1.055.961-1.758h2.051c-.039.727-.289,1.418-.75,2.074s-1.076,1.18-1.846,1.57-1.584.586-2.443.586c-1.727,0-3.1-.576-4.119-1.729s-1.529-2.729-1.529-4.729v-.363c0-1.234.227-2.332.68-3.293s1.104-1.707,1.951-2.238,1.85-.797,3.006-.797c1.422,0,2.604.426,3.545,1.277s1.443,1.957,1.506,3.316h-2.051c-.062-.82-.373-1.494-.932-2.021s-1.248-.791-2.068-.791c-1.102,0-1.955.396-2.561,1.189s-.908,1.939-.908,3.439v.41c0,1.461.301,2.586.902,3.375s1.461,1.184,2.578,1.184Z"/>
    <path d="m386.574,110.218c-1.719,0-3.117-.564-4.195-1.693s-1.617-2.639-1.617-4.529v-.398c0-1.258.24-2.381.721-3.369s1.152-1.762,2.016-2.32,1.799-.838,2.807-.838c1.648,0,2.93.543,3.844,1.629s1.371,2.641,1.371,4.664v.902h-8.59c.031,1.25.396,2.26,1.096,3.029s1.588,1.154,2.666,1.154c.766,0,1.414-.156,1.945-.469s.996-.727,1.395-1.242l1.324,1.031c-1.062,1.633-2.656,2.449-4.781,2.449Zm-.27-11.367c-.875,0-1.609.318-2.203.955s-.961,1.529-1.102,2.678h6.352v-.164c-.062-1.102-.359-1.955-.891-2.561s-1.25-.908-2.156-.908Z"/>
  </g>
  <g>
    <circle cx="299.052" cy="339.376" r="6" fill="#c22626"/>
    <circle cx="299.052" cy="339.376" r="48.25" fill="none" stroke="#314459" stroke-miterlimit="10" stroke-width="2"/>
    <circle cx="299.052" cy="339.376" r="90.5" fill="none" stroke="#314459" stroke-miterlimit="10" stroke-width="2"/>
    <circle cx="299.052" cy="339.376" r="132.75" fill="none" stroke="#314459" stroke-miterlimit="10" stroke-width="2"/>
    <circle cx="299.052" cy="339.376" r="175" fill="none" stroke="#314459" stroke-miterlimit="10" stroke-width="2"/>
  </g>
  <g>
    <path d="m669.368,102.378c-1.93-.555-3.334-1.236-4.213-2.045s-1.318-1.807-1.318-2.994c0-1.344.537-2.455,1.611-3.334s2.471-1.318,4.189-1.318c1.172,0,2.217.227,3.135.68s1.629,1.078,2.133,1.875.756,1.668.756,2.613h-2.262c0-1.035-.328-1.848-.984-2.44-.656-.592-1.582-.888-2.777-.888-1.109,0-1.975.245-2.596.734s-.932,1.168-.932,2.037c0,.697.295,1.286.885,1.767s1.594.921,3.012,1.321c1.418.399,2.527.839,3.328,1.319s1.395,1.041,1.781,1.682.58,1.395.58,2.262c0,1.383-.539,2.49-1.617,3.322s-2.52,1.248-4.324,1.248c-1.172,0-2.266-.225-3.281-.674s-1.799-1.064-2.35-1.846-.826-1.668-.826-2.66h2.262c0,1.031.381,1.846,1.143,2.443s1.779.896,3.053.896c1.188,0,2.098-.242,2.73-.727s.949-1.145.949-1.98-.293-1.482-.879-1.939-1.648-.908-3.188-1.354Z"/>
    <path d="m677.665,103.527c0-1.242.244-2.359.732-3.352s1.168-1.758,2.039-2.297,1.865-.809,2.982-.809c1.727,0,3.123.598,4.189,1.793s1.6,2.785,1.6,4.77v.152c0,1.234-.236,2.342-.709,3.322s-1.148,1.744-2.027,2.291-1.889.82-3.029.82c-1.719,0-3.111-.598-4.178-1.793s-1.6-2.777-1.6-4.746v-.152Zm2.18.258c0,1.406.326,2.535.979,3.387s1.525,1.277,2.619,1.277c1.102,0,1.977-.432,2.625-1.295s.973-2.072.973-3.627c0-1.391-.33-2.518-.99-3.381s-1.537-1.295-2.631-1.295c-1.07,0-1.934.426-2.59,1.277s-.984,2.07-.984,3.656Z"/>
    <path d="m699.755,108.73c-.844.992-2.082,1.488-3.715,1.488-1.352,0-2.381-.393-3.088-1.178s-1.064-1.947-1.072-3.486v-8.25h2.168v8.191c0,1.922.781,2.883,2.344,2.883,1.656,0,2.758-.617,3.305-1.852v-9.223h2.168v12.68h-2.062l-.047-1.254Z"/>
    <path d="m711.286,99.25c-.328-.055-.684-.082-1.066-.082-1.422,0-2.387.605-2.895,1.816v9h-2.168v-12.68h2.109l.035,1.465c.711-1.133,1.719-1.699,3.023-1.699.422,0,.742.055.961.164v2.016Z"/>
    <path d="m718.142,108.449c.773,0,1.449-.234,2.027-.703s.898-1.055.961-1.758h2.051c-.039.727-.289,1.418-.75,2.074s-1.076,1.18-1.846,1.57-1.584.586-2.443.586c-1.727,0-3.1-.576-4.119-1.729s-1.529-2.729-1.529-4.729v-.363c0-1.234.227-2.332.68-3.293s1.104-1.707,1.951-2.238,1.85-.797,3.006-.797c1.422,0,2.604.426,3.545,1.277s1.443,1.957,1.506,3.316h-2.051c-.062-.82-.373-1.494-.932-2.021s-1.248-.791-2.068-.791c-1.102,0-1.955.396-2.561,1.189s-.908,1.939-.908,3.439v.41c0,1.461.301,2.586.902,3.375s1.461,1.184,2.578,1.184Z"/>
    <path d="m730.88,110.218c-1.719,0-3.117-.564-4.195-1.693s-1.617-2.639-1.617-4.529v-.398c0-1.258.24-2.381.721-3.369s1.152-1.762,2.016-2.32,1.799-.838,2.807-.838c1.648,0,2.93.543,3.844,1.629s1.371,2.641,1.371,4.664v.902h-8.59c.031,1.25.396,2.26,1.096,3.029s1.588,1.154,2.666,1.154c.766,0,1.414-.156,1.945-.469s.996-.727,1.395-1.242l1.324,1.031c-1.062,1.633-2.656,2.449-4.781,2.449Zm-.27-11.367c-.875,0-1.609.318-2.203.955s-.961,1.529-1.102,2.678h6.352v-.164c-.062-1.102-.359-1.955-.891-2.561s-1.25-.908-2.156-.908Z"/>
    <path d="m746.313,97.304l.059,1.406c.93-1.094,2.184-1.641,3.762-1.641,1.773,0,2.98.68,3.621,2.039.422-.609.971-1.102,1.646-1.477s1.475-.562,2.396-.562c2.781,0,4.195,1.473,4.242,4.418v8.496h-2.168v-8.367c0-.906-.207-1.584-.621-2.033s-1.109-.674-2.086-.674c-.805,0-1.473.24-2.004.721s-.84,1.127-.926,1.939v8.414h-2.18v-8.309c0-1.844-.902-2.766-2.707-2.766-1.422,0-2.395.605-2.918,1.816v9.258h-2.168v-12.68h2.051Z"/>
    <path d="m764.735,103.527c0-1.242.244-2.359.732-3.352s1.168-1.758,2.039-2.297,1.865-.809,2.982-.809c1.727,0,3.123.598,4.189,1.793s1.6,2.785,1.6,4.77v.152c0,1.234-.236,2.342-.709,3.322s-1.148,1.744-2.027,2.291-1.889.82-3.029.82c-1.719,0-3.111-.598-4.178-1.793s-1.6-2.777-1.6-4.746v-.152Zm2.18.258c0,1.406.326,2.535.979,3.387s1.525,1.277,2.619,1.277c1.102,0,1.977-.432,2.625-1.295s.973-2.072.973-3.627c0-1.391-.33-2.518-.99-3.381s-1.537-1.295-2.631-1.295c-1.07,0-1.934.426-2.59,1.277s-.984,2.07-.984,3.656Z"/>
    <path d="m783.005,107.042l3.141-9.738h2.215l-4.547,12.68h-1.652l-4.594-12.68h2.215l3.223,9.738Z"/>
    <path d="m790.458,93.941c0-.352.107-.648.322-.891s.533-.363.955-.363.742.121.961.363.328.539.328.891-.109.645-.328.879-.539.352-.961.352-.74-.117-.955-.352-.322-.527-.322-.879Zm2.344,16.043h-2.168v-12.68h2.168v12.68Z"/>
    <path d="m798.321,97.304l.07,1.594c.969-1.219,2.234-1.828,3.797-1.828,2.68,0,4.031,1.512,4.055,4.535v8.379h-2.168v-8.391c-.008-.914-.217-1.59-.627-2.027s-1.049-.656-1.916-.656c-.703,0-1.32.188-1.852.562s-.945.867-1.242,1.477v9.035h-2.168v-12.68h2.051Z"/>
    <path d="m808.997,103.539c0-1.977.457-3.549,1.371-4.717s2.125-1.752,3.633-1.752c1.547,0,2.754.547,3.621,1.641l.105-1.406h1.98v12.375c0,1.641-.486,2.934-1.459,3.879s-2.279,1.418-3.92,1.418c-.914,0-1.809-.195-2.684-.586s-1.543-.926-2.004-1.605l1.125-1.301c.93,1.148,2.066,1.723,3.41,1.723,1.055,0,1.877-.297,2.467-.891s.885-1.43.885-2.508v-1.09c-.867,1-2.051,1.5-3.551,1.5-1.484,0-2.686-.598-3.604-1.793s-1.377-2.824-1.377-4.887Zm2.18.246c0,1.43.293,2.553.879,3.369s1.406,1.225,2.461,1.225c1.367,0,2.371-.621,3.012-1.863v-5.789c-.664-1.211-1.66-1.816-2.988-1.816-1.055,0-1.879.41-2.473,1.23s-.891,2.035-.891,3.645Z"/>
    <path d="m831.86,94.234v3.07h2.367v1.676h-2.367v7.873c0,.509.105.89.316,1.144.211.254.57.381,1.078.381.25,0,.594-.047,1.031-.141v1.748c-.57.155-1.125.233-1.664.233-.969,0-1.699-.293-2.191-.879s-.738-1.418-.738-2.496v-7.863h-2.309v-1.676h2.309v-3.07h2.168Z"/>
    <path d="m835.95,103.527c0-1.242.244-2.359.732-3.352s1.168-1.758,2.039-2.297,1.865-.809,2.982-.809c1.727,0,3.123.598,4.189,1.793s1.6,2.785,1.6,4.77v.152c0,1.234-.236,2.342-.709,3.322s-1.148,1.744-2.027,2.291-1.889.82-3.029.82c-1.719,0-3.111-.598-4.178-1.793s-1.6-2.777-1.6-4.746v-.152Zm2.18.258c0,1.406.326,2.535.979,3.387s1.525,1.277,2.619,1.277c1.102,0,1.977-.432,2.625-1.295s.973-2.072.973-3.627c0-1.391-.33-2.518-.99-3.381s-1.537-1.295-2.631-1.295c-1.07,0-1.934.426-2.59,1.277s-.984,2.07-.984,3.656Z"/>
    <path d="m859.095,94.234v3.07h2.367v1.676h-2.367v7.873c0,.509.105.89.316,1.144.211.254.57.381,1.078.381.25,0,.594-.047,1.031-.141v1.748c-.57.155-1.125.233-1.664.233-.969,0-1.699-.293-2.191-.879s-.738-1.418-.738-2.496v-7.863h-2.309v-1.676h2.309v-3.07h2.168Z"/>
    <path d="m866.161,98.839c.961-1.18,2.211-1.77,3.75-1.77,2.68,0,4.031,1.512,4.055,4.535v8.379h-2.168v-8.391c-.008-.914-.217-1.59-.627-2.027s-1.049-.656-1.916-.656c-.703,0-1.32.188-1.852.562s-.945.867-1.242,1.477v9.035h-2.168v-18h2.168v6.855Z"/>
    <path d="m882.474,110.218c-1.719,0-3.117-.564-4.195-1.693s-1.617-2.639-1.617-4.529v-.398c0-1.258.24-2.381.721-3.369s1.152-1.762,2.016-2.32,1.799-.838,2.807-.838c1.648,0,2.93.543,3.844,1.629s1.371,2.641,1.371,4.664v.902h-8.59c.031,1.25.396,2.26,1.096,3.029s1.588,1.154,2.666,1.154c.766,0,1.414-.156,1.945-.469s.996-.727,1.395-1.242l1.324,1.031c-1.062,1.633-2.656,2.449-4.781,2.449Zm-.27-11.367c-.875,0-1.609.318-2.203.955s-.961,1.529-1.102,2.678h6.352v-.164c-.062-1.102-.359-1.955-.891-2.561s-1.25-.908-2.156-.908Z"/>
    <path d="m901.997,99.25c-.328-.055-.684-.082-1.066-.082-1.422,0-2.387.605-2.895,1.816v9h-2.168v-12.68h2.109l.035,1.465c.711-1.133,1.719-1.699,3.023-1.699.422,0,.742.055.961.164v2.016Z"/>
    <path d="m904.001,93.941c0-.352.107-.648.322-.891s.533-.363.955-.363.742.121.961.363.328.539.328.891-.109.645-.328.879-.539.352-.961.352-.74-.117-.955-.352-.322-.527-.322-.879Zm2.344,16.043h-2.168v-12.68h2.168v12.68Z"/>
    <path d="m909.298,103.539c0-1.977.457-3.549,1.371-4.717s2.125-1.752,3.633-1.752c1.547,0,2.754.547,3.621,1.641l.105-1.406h1.98v12.375c0,1.641-.486,2.934-1.459,3.879s-2.279,1.418-3.92,1.418c-.914,0-1.809-.195-2.684-.586s-1.543-.926-2.004-1.605l1.125-1.301c.93,1.148,2.066,1.723,3.41,1.723,1.055,0,1.877-.297,2.467-.891s.885-1.43.885-2.508v-1.09c-.867,1-2.051,1.5-3.551,1.5-1.484,0-2.686-.598-3.604-1.793s-1.377-2.824-1.377-4.887Zm2.18.246c0,1.43.293,2.553.879,3.369s1.406,1.225,2.461,1.225c1.367,0,2.371-.621,3.012-1.863v-5.789c-.664-1.211-1.66-1.816-2.988-1.816-1.055,0-1.879.41-2.473,1.23s-.891,2.035-.891,3.645Z"/>
    <path d="m925.446,98.839c.961-1.18,2.211-1.77,3.75-1.77,2.68,0,4.031,1.512,4.055,4.535v8.379h-2.168v-8.391c-.008-.914-.217-1.59-.627-2.027s-1.049-.656-1.916-.656c-.703,0-1.32.188-1.852.562s-.945.867-1.242,1.477v9.035h-2.168v-18h2.168v6.855Z"/>
    <path d="m939.438,94.234v3.07h2.367v1.676h-2.367v7.873c0,.509.105.89.316,1.144.211.254.57.381,1.078.381.25,0,.594-.047,1.031-.141v1.748c-.57.155-1.125.233-1.664.233-.969,0-1.699-.293-2.191-.879s-.738-1.418-.738-2.496v-7.863h-2.309v-1.676h2.309v-3.07h2.168Z"/>
  </g>
  <g>
    <line x1="678.028" y1="136" x2="915.546" y2="136" fill="none" stroke="#314459" stroke-miterlimit="10" stroke-width="2"/>
    <polygon points="913.212 143.978 927.028 136 913.212 128.022 913.212 143.978" fill="#314459"/>
  </g>
  <g>
    <g>
      <circle cx="904.024" cy="339.376" r="6" fill="#c22626"/>
      <circle cx="894.024" cy="339.376" r="48.25" fill="none" stroke="#314459" stroke-miterlimit="10" stroke-width="2"/>
      <circle cx="864.024" cy="339.376" r="90.5" fill="none" stroke="#314459" stroke-miterlimit="10" stroke-width="2"/>
      <circle cx="834.024" cy="339.376" r="132.75" fill="none" stroke="#314459" stroke-miterlimit="10" stroke-width="2"/>
      <circle cx="804.024" cy="339.376" r="175" fill="none" stroke="#314459" stroke-miterlimit="10" stroke-width="2"/>
    </g>
    <path d="m600.512,341.925h-7.148l-1.605,4.465h-2.32l6.516-17.062h1.969l6.527,17.062h-2.309l-1.629-4.465Zm-6.469-1.84h5.801l-2.906-7.98-2.895,7.98Z"/>
    <path d="m1002.986,346.39v-17.062h5.578c1.852,0,3.244.383,4.178,1.148s1.4,1.898,1.4,3.398c0,.797-.227,1.502-.68,2.115s-1.07,1.088-1.852,1.424c.922.258,1.65.748,2.186,1.471s.803,1.584.803,2.584c0,1.531-.496,2.734-1.488,3.609s-2.395,1.312-4.207,1.312h-5.918Zm2.25-9.785h3.398c.984,0,1.771-.247,2.361-.74s.885-1.163.885-2.008c0-.939-.273-1.623-.82-2.049s-1.379-.64-2.496-.64h-3.328v5.438Zm0,1.805v6.141h3.715c1.047,0,1.873-.271,2.479-.814s.908-1.291.908-2.244c0-2.055-1.117-3.082-3.352-3.082h-3.75Z"/>
  </g>
</svg>