<?xml version="1.0" encoding="UTF-8"?>
<svg id="Layer_4" data-name="Layer 4" xmlns="http://www.w3.org/2000/svg" width="570" height="320" viewBox="0 0 570 320">
  <defs>
    <style>
      .cls-1 {
        stroke: #0077a2;
      }

      .cls-1, .cls-2, .cls-3 {
        fill: none;
        stroke-linecap: round;
        stroke-miterlimit: 10;
        stroke-width: 2px;
      }

      .cls-2, .cls-3 {
        stroke: #000;
      }

      .cls-3 {
        stroke-dasharray: 0 6;
      }
    </style>
  </defs>
  <path class="cls-2" d="m13.71,163.39s46.36-49.78,68.31-49.78c32.79,0,104.49,98.68,137.88,98.68,28.09,0,67.81-48.56,67.81-48.56"/>
  <path class="cls-2" d="m13.71,163.98s37.98,48.31,67.95,48.31c38.72,0,102.69-98.68,138.6-98.68,26.48,0,67.45,49.92,67.45,49.92"/>
  <path class="cls-2" d="m288.83,163.39s46.36-49.78,68.31-49.78c32.79,0,104.49,98.68,137.88,98.68,28.09,0,67.81-48.56,67.81-48.56"/>
  <path class="cls-2" d="m288.83,163.98s37.98,48.31,67.95,48.31c38.72,0,102.69-98.68,138.6-98.68,26.48,0,67.45,49.92,67.45,49.92"/>
  <line class="cls-3" x1="13.74" y1="164.33" x2="560.85" y2="164.33"/>
  <g>
    <g>
      <line class="cls-1" x1="15.27" y1="27.26" x2="561.68" y2="27.26"/>
      <line class="cls-1" x1="562.02" y1="47.26" x2="562.02" y2="7.26"/>
      <line class="cls-1" x1="14.48" y1="47.26" x2="14.48" y2="7.26"/>
    </g>
    <path d="m289.33,17.99h8.09v1.84h-10.35V2.77h2.26v15.22Z"/>
  </g>
  <g>
    <line class="cls-1" x1="14.27" y1="286.58" x2="562.32" y2="286.58"/>
    <line class="cls-1" x1="562.67" y1="306.58" x2="562.67" y2="266.58"/>
    <line class="cls-1" x1="13.48" y1="306.58" x2="13.48" y2="266.58"/>
    <g>
      <path d="m287.7,311.15h-10.63v-.92l4.1-4.1c2.67-2.75,4.02-4.45,4.02-7.29,0-2.02-1.3-3.32-3.37-3.32-1.75,0-2.94.62-3.94,2.65l-.65-.27c.84-2.62,2.67-4.13,5.29-4.13,3.05,0,5.18,1.84,5.18,4.67,0,2.4-1.54,4.26-4.4,7.15l-3.56,3.37v.13l1.89-.08h3.75c1.43,0,1.78-.57,2.4-2.19h.78l-.86,4.32Z"/>
      <path d="m298.74,305.38c.46,2.27,1.13,3.97,2.4,3.97.81,0,1.32-.3,1.86-.97l.46.3c-.57,1.51-1.67,2.78-3.1,2.78s-2.27-1.24-2.67-3.29c-.49-2.43-.43-4.8-.73-7.4h-.14c-.62,1.21-3.27,7.69-4.32,10.39h-2.62l-.08-.43c2.05-3.78,4.56-8.58,6.59-12.39-.05-.57-.08-.62-.22-1.46-.32-1.67-1.13-2.83-2.27-2.83-.81,0-1.38.32-1.92,1.05l-.46-.22c.65-1.62,1.46-2.78,3.1-2.78,1.83,0,2.24,1.86,2.67,4,.62,3.29.86,6.32,1.43,9.29Z"/>
    </g>
  </g>
  <line class="cls-3" x1="288.26" y1="53.01" x2="288.26" y2="273.18"/>
  <line class="cls-3" x1="151.08" y1="53.01" x2="151.08" y2="273.18"/>
  <line class="cls-3" x1="562.63" y1="53.01" x2="562.63" y2="273.18"/>
  <line class="cls-3" x1="425.44" y1="53.01" x2="425.44" y2="273.18"/>
  <line class="cls-3" x1="13.89" y1="53.01" x2="13.89" y2="273.18"/>
</svg>