<?xml version="1.0" encoding="UTF-8"?><svg id="b" xmlns="http://www.w3.org/2000/svg" width="1140" height="402" viewBox="0 0 1140 402"><path d="m190.73,35.11C95.57,59.11,9.01,129.58,10.35,213.8c1.23,77.62,77.14,143.37,163.57,168.86,86.42,25.49,181.12,18.64,271.59,7.03,70.77-9.09,142.2-15.43,213.84-15.76,119.97-.56,249.95,52.33,365.9,6.74,107.49-42.26,145.98-160.44,87.44-246.23C1057.73,53.93,946.15,10.9,836.9,2.78c-64.55-4.8-129.45,4.72-192.54,15.46-73.01,12.43-147.03,18.1-221.33,12.54-77.51-5.8-156.23-14.86-232.3,4.33Z" fill="#f4f4e9"/><path d="m349.79,83.92h-6.4v17.76h-2.61v-17.76h-6.38v-2.15h15.39v2.15Z"/><path d="m360.18,100.22c-.98,1.16-2.43,1.74-4.33,1.74-1.58,0-2.78-.46-3.6-1.37s-1.24-2.27-1.25-4.07v-9.62h2.53v9.56c0,2.24.91,3.36,2.73,3.36,1.93,0,3.22-.72,3.86-2.16v-10.76h2.53v14.79h-2.41l-.05-1.46Z"/><path d="m368.87,86.89l.08,1.86c1.13-1.42,2.61-2.13,4.43-2.13,3.13,0,4.7,1.76,4.73,5.29v9.78h-2.53v-9.79c0-1.07-.25-1.85-.73-2.37-.48-.51-1.22-.77-2.24-.77-.82,0-1.54.22-2.16.66s-1.1,1.01-1.45,1.72v10.54h-2.53v-14.79h2.39Z"/><path d="m381.94,82.96c0-.41.12-.76.38-1.04.25-.28.62-.42,1.11-.42s.87.14,1.12.42c.25.28.38.63.38,1.04s-.13.75-.38,1.03-.63.41-1.12.41-.86-.14-1.11-.41-.38-.62-.38-1.03Zm2.73,18.72h-2.53v-14.79h2.53v14.79Z"/><path d="m391.12,86.89l.08,1.86c1.13-1.42,2.61-2.13,4.43-2.13,3.13,0,4.7,1.76,4.73,5.29v9.78h-2.53v-9.79c0-1.07-.25-1.85-.73-2.37-.48-.51-1.22-.77-2.24-.77-.82,0-1.54.22-2.16.66s-1.1,1.01-1.45,1.72v10.54h-2.53v-14.79h2.39Z"/><path d="m403.57,94.16c0-2.31.53-4.14,1.6-5.5,1.07-1.36,2.48-2.04,4.24-2.04s3.21.64,4.22,1.91l.12-1.64h2.31v14.44c0,1.91-.57,3.42-1.7,4.53-1.13,1.1-2.66,1.65-4.57,1.65-1.07,0-2.11-.23-3.13-.68-1.02-.46-1.8-1.08-2.34-1.87l1.31-1.52c1.08,1.34,2.41,2.01,3.98,2.01,1.23,0,2.19-.35,2.88-1.04.69-.69,1.03-1.67,1.03-2.93v-1.27c-1.01,1.17-2.39,1.75-4.14,1.75s-3.13-.7-4.2-2.09-1.61-3.29-1.61-5.7Zm2.54.29c0,1.67.34,2.98,1.03,3.93.68.95,1.64,1.43,2.87,1.43,1.59,0,2.77-.72,3.51-2.17v-6.75c-.77-1.41-1.94-2.12-3.49-2.12-1.23,0-2.19.48-2.88,1.44s-1.04,2.37-1.04,4.25Z"/><path d="m428.06,101.68v-12.84h-2.34v-1.96h2.34v-1.52c0-1.59.42-2.81,1.27-3.68.85-.87,2.05-1.3,3.6-1.3.58,0,1.16.08,1.74.23l-.14,2.04c-.43-.08-.88-.12-1.37-.12-.82,0-1.45.24-1.9.72s-.67,1.17-.67,2.06v1.56h3.16v1.96h-3.16v12.84h-2.53Z"/><path d="m435.86,94.15c0-1.45.29-2.75.85-3.91.57-1.16,1.36-2.05,2.38-2.68s2.18-.94,3.48-.94c2.01,0,3.64.7,4.89,2.09s1.87,3.25,1.87,5.56v.18c0,1.44-.28,2.73-.83,3.88-.55,1.14-1.34,2.04-2.37,2.67-1.03.64-2.2.96-3.53.96-2,0-3.63-.7-4.87-2.09s-1.87-3.24-1.87-5.54v-.18Zm2.54.3c0,1.64.38,2.96,1.14,3.95.76.99,1.78,1.49,3.06,1.49s2.31-.5,3.06-1.51c.76-1.01,1.13-2.42,1.13-4.23,0-1.62-.38-2.94-1.16-3.94-.77-1.01-1.79-1.51-3.07-1.51s-2.26.5-3.02,1.49c-.77.99-1.15,2.42-1.15,4.27Z"/><path d="m459.65,89.16c-.38-.06-.8-.1-1.24-.1-1.66,0-2.78.71-3.38,2.12v10.5h-2.53v-14.79h2.46l.04,1.71c.83-1.32,2-1.98,3.53-1.98.49,0,.87.06,1.12.19v2.35Z"/><path d="m466.11,94.83l-1.59,1.65v5.2h-2.53v-21h2.53v12.7l1.35-1.63,4.61-4.87h3.08l-5.76,6.18,6.43,8.61h-2.97l-5.15-6.85Z"/><path d="m446.5,266.99h2.76v2.06h-2.76v4.62h-2.54v-4.62h-9.06v-1.49l8.91-13.79h2.69v13.22Zm-8.74,0h6.19v-9.76l-.3.55-5.89,9.21Z"/><path d="m672.02,195.33h-8.34l-1.87,5.21h-2.71l7.6-19.91h2.3l7.62,19.91h-2.69l-1.9-5.21Zm-7.55-2.15h6.77l-3.39-9.31-3.38,9.31Z"/><path d="m681.29,185.74l.08,1.86c1.13-1.42,2.61-2.13,4.43-2.13,3.13,0,4.7,1.76,4.73,5.29v9.78h-2.53v-9.79c0-1.07-.25-1.85-.73-2.37-.48-.51-1.22-.77-2.24-.77-.82,0-1.54.22-2.16.66s-1.1,1.01-1.45,1.72v10.54h-2.53v-14.79h2.39Z"/><path d="m697.78,182.16v3.58h2.76v1.96h-2.76v9.19c0,.59.12,1.04.37,1.33s.67.44,1.26.44c.29,0,.69-.05,1.2-.16v2.04c-.67.18-1.31.27-1.94.27-1.13,0-1.98-.34-2.56-1.03s-.86-1.65-.86-2.91v-9.17h-2.69v-1.96h2.69v-3.58h2.53Z"/><path d="m703.51,181.82c0-.41.12-.76.38-1.04.25-.28.62-.42,1.11-.42s.87.14,1.12.42c.25.28.38.63.38,1.04s-.13.75-.38,1.03-.63.41-1.12.41-.86-.14-1.11-.41-.38-.62-.38-1.03Zm2.73,18.72h-2.53v-14.79h2.53v14.79Z"/><path d="m712.68,185.74l.08,1.86c1.13-1.42,2.61-2.13,4.43-2.13,3.13,0,4.7,1.76,4.73,5.29v9.78h-2.53v-9.79c0-1.07-.25-1.85-.73-2.37-.48-.51-1.22-.77-2.24-.77-.82,0-1.54.22-2.16.66s-1.1,1.01-1.45,1.72v10.54h-2.53v-14.79h2.39Z"/><path d="m725.07,193c0-1.45.29-2.75.85-3.91.57-1.16,1.36-2.05,2.38-2.68s2.18-.94,3.48-.94c2.01,0,3.64.7,4.89,2.09s1.87,3.25,1.87,5.56v.18c0,1.44-.28,2.73-.83,3.88-.55,1.14-1.34,2.04-2.37,2.67-1.03.64-2.2.96-3.53.96-2,0-3.63-.7-4.87-2.09s-1.87-3.24-1.87-5.54v-.18Zm2.54.3c0,1.64.38,2.96,1.14,3.95.76.99,1.78,1.49,3.06,1.49s2.31-.5,3.06-1.51c.76-1.01,1.13-2.42,1.13-4.23,0-1.62-.38-2.94-1.16-3.94-.77-1.01-1.79-1.51-3.07-1.51s-2.26.5-3.02,1.49c-.77.99-1.15,2.42-1.15,4.27Z"/><path d="m741.09,193.01c0-2.27.54-4.09,1.61-5.48s2.48-2.07,4.22-2.07,3.1.59,4.12,1.78v-7.71h2.53v21h-2.32l-.12-1.59c-1.01,1.24-2.42,1.86-4.22,1.86s-3.11-.7-4.19-2.11c-1.08-1.4-1.62-3.24-1.62-5.5v-.19Zm2.53.29c0,1.68.35,2.99,1.04,3.94.69.95,1.65,1.42,2.87,1.42,1.6,0,2.78-.72,3.51-2.16v-6.79c-.76-1.39-1.92-2.09-3.49-2.09-1.24,0-2.21.48-2.9,1.44s-1.04,2.37-1.04,4.25Z"/><path d="m763.64,200.81c-2,0-3.64-.66-4.89-1.98-1.26-1.32-1.89-3.08-1.89-5.28v-.46c0-1.47.28-2.78.84-3.93.56-1.15,1.34-2.06,2.35-2.71,1.01-.65,2.1-.98,3.27-.98,1.92,0,3.42.63,4.48,1.9,1.07,1.27,1.6,3.08,1.6,5.44v1.05h-10.02c.04,1.46.46,2.64,1.28,3.53.82.9,1.85,1.35,3.11,1.35.89,0,1.65-.18,2.27-.55.62-.36,1.16-.85,1.63-1.45l1.54,1.2c-1.24,1.91-3.1,2.86-5.58,2.86Zm-.31-13.26c-1.02,0-1.88.37-2.57,1.11-.69.74-1.12,1.78-1.29,3.12h7.41v-.19c-.07-1.29-.42-2.28-1.04-2.99-.62-.71-1.46-1.06-2.52-1.06Z"/><path d="m778.6,193c0-1.45.29-2.75.85-3.91.57-1.16,1.36-2.05,2.38-2.68s2.18-.94,3.48-.94c2.01,0,3.64.7,4.89,2.09s1.87,3.25,1.87,5.56v.18c0,1.44-.28,2.73-.83,3.88-.55,1.14-1.34,2.04-2.37,2.67-1.03.64-2.2.96-3.53.96-2,0-3.63-.7-4.87-2.09s-1.87-3.24-1.87-5.54v-.18Zm2.54.3c0,1.64.38,2.96,1.14,3.95.76.99,1.78,1.49,3.06,1.49s2.31-.5,3.06-1.51c.76-1.01,1.13-2.42,1.13-4.23,0-1.62-.38-2.94-1.16-3.94-.77-1.01-1.79-1.51-3.07-1.51s-2.26.5-3.02,1.49c-.77.99-1.15,2.42-1.15,4.27Z"/><path d="m802.39,188.01c-.38-.06-.8-.1-1.24-.1-1.66,0-2.78.71-3.38,2.12v10.5h-2.53v-14.79h2.46l.04,1.71c.83-1.32,2-1.98,3.53-1.98.49,0,.87.06,1.12.19v2.35Z"/><path d="m814.02,185.74l.07,1.64c1.08-1.28,2.55-1.91,4.39-1.91,2.07,0,3.48.79,4.22,2.38.49-.71,1.13-1.29,1.92-1.72s1.72-.66,2.8-.66c3.25,0,4.89,1.72,4.95,5.15v9.91h-2.53v-9.76c0-1.06-.24-1.85-.72-2.37-.48-.52-1.29-.79-2.43-.79-.94,0-1.72.28-2.34.84s-.98,1.31-1.08,2.26v9.82h-2.54v-9.69c0-2.15-1.05-3.23-3.16-3.23-1.66,0-2.79.71-3.4,2.12v10.8h-2.53v-14.79h2.39Z"/><path d="m836.2,181.82c0-.41.12-.76.38-1.04.25-.28.62-.42,1.11-.42s.87.14,1.12.42c.25.28.38.63.38,1.04s-.13.75-.38,1.03-.63.41-1.12.41-.86-.14-1.11-.41-.38-.62-.38-1.03Zm2.73,18.72h-2.53v-14.79h2.53v14.79Z"/><path d="m842.36,193.01c0-2.27.54-4.09,1.61-5.48s2.48-2.07,4.22-2.07,3.1.59,4.12,1.78v-7.71h2.53v21h-2.32l-.12-1.59c-1.01,1.24-2.42,1.86-4.22,1.86s-3.11-.7-4.19-2.11c-1.08-1.4-1.62-3.24-1.62-5.5v-.19Zm2.53.29c0,1.68.35,2.99,1.04,3.94.69.95,1.65,1.42,2.87,1.42,1.6,0,2.78-.72,3.51-2.16v-6.79c-.76-1.39-1.92-2.09-3.49-2.09-1.24,0-2.21.48-2.9,1.44s-1.04,2.37-1.04,4.25Z"/><path d="m858.15,193.01c0-2.27.54-4.09,1.61-5.48s2.48-2.07,4.22-2.07,3.1.59,4.12,1.78v-7.71h2.53v21h-2.32l-.12-1.59c-1.01,1.24-2.42,1.86-4.22,1.86s-3.11-.7-4.19-2.11c-1.08-1.4-1.62-3.24-1.62-5.5v-.19Zm2.53.29c0,1.68.35,2.99,1.04,3.94.69.95,1.65,1.42,2.87,1.42,1.6,0,2.78-.72,3.51-2.16v-6.79c-.76-1.39-1.92-2.09-3.49-2.09-1.24,0-2.21.48-2.9,1.44s-1.04,2.37-1.04,4.25Z"/><path d="m877.31,200.53h-2.53v-21h2.53v21Z"/><path d="m887.49,200.81c-2,0-3.64-.66-4.89-1.98-1.26-1.32-1.89-3.08-1.89-5.28v-.46c0-1.47.28-2.78.84-3.93.56-1.15,1.34-2.06,2.35-2.71,1.01-.65,2.1-.98,3.27-.98,1.92,0,3.42.63,4.48,1.9,1.07,1.27,1.6,3.08,1.6,5.44v1.05h-10.02c.04,1.46.46,2.64,1.28,3.53.82.9,1.85,1.35,3.11,1.35.89,0,1.65-.18,2.27-.55.62-.36,1.16-.85,1.63-1.45l1.54,1.2c-1.24,1.91-3.1,2.86-5.58,2.86Zm-.31-13.26c-1.02,0-1.88.37-2.57,1.11-.69.74-1.12,1.78-1.29,3.12h7.41v-.19c-.07-1.29-.42-2.28-1.04-2.99-.62-.71-1.46-1.06-2.52-1.06Z"/><path d="m902.45,193c0-1.45.29-2.75.85-3.91.57-1.16,1.36-2.05,2.38-2.68s2.18-.94,3.48-.94c2.01,0,3.64.7,4.89,2.09s1.87,3.25,1.87,5.56v.18c0,1.44-.28,2.73-.83,3.88-.55,1.14-1.34,2.04-2.37,2.67-1.03.64-2.2.96-3.53.96-2,0-3.63-.7-4.87-2.09s-1.87-3.24-1.87-5.54v-.18Zm2.54.3c0,1.64.38,2.96,1.14,3.95.76.99,1.78,1.49,3.06,1.49s2.31-.5,3.06-1.51c.76-1.01,1.13-2.42,1.13-4.23,0-1.62-.38-2.94-1.16-3.94-.77-1.01-1.79-1.51-3.07-1.51s-2.26.5-3.02,1.49c-.77.99-1.15,2.42-1.15,4.27Z"/><path d="m920.33,200.53v-12.84h-2.34v-1.96h2.34v-1.52c0-1.59.42-2.81,1.27-3.68.85-.87,2.05-1.3,3.6-1.3.58,0,1.16.08,1.74.23l-.14,2.04c-.43-.08-.88-.12-1.37-.12-.82,0-1.45.24-1.9.72s-.67,1.17-.67,2.06v1.56h3.16v1.96h-3.16v12.84h-2.53Z"/><path d="m944.87,200.53c-.15-.29-.26-.81-.36-1.56-1.18,1.22-2.58,1.83-4.21,1.83-1.46,0-2.65-.41-3.59-1.24-.93-.82-1.4-1.87-1.4-3.14,0-1.54.59-2.74,1.76-3.59,1.17-.85,2.82-1.28,4.94-1.28h2.46v-1.16c0-.88-.26-1.59-.79-2.11-.53-.52-1.31-.79-2.34-.79-.9,0-1.66.23-2.27.68-.61.46-.92,1.01-.92,1.65h-2.54c0-.74.26-1.45.79-2.14.52-.69,1.24-1.23,2.13-1.63.9-.4,1.88-.6,2.96-.6,1.7,0,3.04.43,4.01,1.28.97.85,1.47,2.03,1.5,3.52v6.81c0,1.36.17,2.44.52,3.24v.22h-2.65Zm-4.2-1.93c.79,0,1.54-.21,2.26-.62s1.23-.94,1.54-1.6v-3.04h-1.98c-3.1,0-4.65.91-4.65,2.72,0,.79.26,1.41.79,1.86.53.45,1.21.67,2.04.67Z"/><path d="m960.65,200.53h-2.53v-21h2.53v21Z"/><path d="m964.03,193c0-1.45.29-2.75.85-3.91.57-1.16,1.36-2.05,2.38-2.68s2.18-.94,3.48-.94c2.01,0,3.64.7,4.89,2.09s1.87,3.25,1.87,5.56v.18c0,1.44-.28,2.73-.83,3.88-.55,1.14-1.34,2.04-2.37,2.67-1.03.64-2.2.96-3.53.96-2,0-3.63-.7-4.87-2.09s-1.87-3.24-1.87-5.54v-.18Zm2.54.3c0,1.64.38,2.96,1.14,3.95.76.99,1.78,1.49,3.06,1.49s2.31-.5,3.06-1.51c.76-1.01,1.13-2.42,1.13-4.23,0-1.62-.38-2.94-1.16-3.94-.77-1.01-1.79-1.51-3.07-1.51s-2.26.5-3.02,1.49c-.77.99-1.15,2.42-1.15,4.27Z"/><path d="m980,193c0-1.45.29-2.75.85-3.91.57-1.16,1.36-2.05,2.38-2.68s2.18-.94,3.48-.94c2.01,0,3.64.7,4.89,2.09s1.87,3.25,1.87,5.56v.18c0,1.44-.28,2.73-.83,3.88-.55,1.14-1.34,2.04-2.37,2.67-1.03.64-2.2.96-3.53.96-2,0-3.63-.7-4.87-2.09s-1.87-3.24-1.87-5.54v-.18Zm2.54.3c0,1.64.38,2.96,1.14,3.95.76.99,1.78,1.49,3.06,1.49s2.31-.5,3.06-1.51c.76-1.01,1.13-2.42,1.13-4.23,0-1.62-.38-2.94-1.16-3.94-.77-1.01-1.79-1.51-3.07-1.51s-2.26.5-3.02,1.49c-.77.99-1.15,2.42-1.15,4.27Z"/><path d="m1009.13,193.3c0,2.25-.51,4.07-1.54,5.44-1.03,1.38-2.42,2.06-4.18,2.06s-3.21-.57-4.24-1.71v7.12h-2.53v-20.48h2.31l.12,1.64c1.03-1.28,2.46-1.91,4.29-1.91s3.18.67,4.22,2.01,1.55,3.2,1.55,5.59v.23Zm-2.53-.29c0-1.67-.36-2.98-1.07-3.95-.71-.97-1.69-1.45-2.93-1.45-1.53,0-2.68.68-3.45,2.04v7.07c.76,1.35,1.91,2.02,3.47,2.02,1.21,0,2.18-.48,2.89-1.44.72-.96,1.07-2.39,1.07-4.29Z"/><path d="m1019.18,192.45c0-2.06.28-4.04.83-5.93.55-1.9,1.37-3.62,2.47-5.17,1.09-1.55,2.23-2.64,3.4-3.28l.52,1.67c-1.33,1.02-2.42,2.58-3.27,4.68-.85,2.1-1.32,4.44-1.4,7.04v1.16c-.01,3.52.63,6.57,1.91,9.16.77,1.55,1.7,2.76,2.76,3.64l-.52,1.54c-1.21-.67-2.37-1.8-3.47-3.39-2.15-3.1-3.23-6.8-3.23-11.12Z"/><path d="m1038.56,200.53l.19-.93c1.52,0,2.48-.22,2.48-1.77,0-.5-.03-.93-.06-1.3l-.31-2.79h-8l-2.17,3.29c-.43.59-.78,1.15-.78,1.74,0,.65.43.84,1.8.84l-.22.93h-6.48l.22-.93c1.71,0,2.29-.5,4.62-4.03l10.73-15.53h1.3l2.45,16.81c.4,2.05.84,2.76,2.7,2.76l-.19.93h-8.28Zm1.15-16.99h-.09l-6.02,8.96h7.13l-1.02-8.96Z"/><path d="m1055.8,192.59c0,2.03-.27,3.98-.8,5.84-.53,1.86-1.35,3.58-2.45,5.16-1.1,1.58-2.25,2.7-3.45,3.36l-.53-1.54c1.4-1.08,2.53-2.75,3.38-5.01s1.29-4.78,1.31-7.54v-.44c0-1.91-.2-3.69-.6-5.34-.4-1.65-.96-3.12-1.67-4.42-.72-1.3-1.52-2.32-2.41-3.05l.53-1.54c1.2.67,2.35,1.78,3.44,3.34s1.91,3.28,2.45,5.15c.54,1.88.81,3.89.81,6.03Z"/><path d="m687.33,304.07h-2.64l-10.02-15.34v15.34h-2.64v-19.91h2.64l10.05,15.41v-15.41h2.61v19.91Z"/><path d="m690.93,296.53c0-1.45.29-2.75.85-3.91.57-1.16,1.36-2.05,2.38-2.68s2.18-.94,3.48-.94c2.01,0,3.64.7,4.89,2.09s1.87,3.25,1.87,5.56v.18c0,1.44-.28,2.73-.83,3.88-.55,1.14-1.34,2.04-2.37,2.67-1.03.64-2.2.96-3.53.96-2,0-3.63-.7-4.87-2.09s-1.87-3.24-1.87-5.54v-.18Zm2.54.3c0,1.64.38,2.96,1.14,3.95.76.99,1.78,1.49,3.06,1.49s2.31-.5,3.06-1.51c.76-1.01,1.13-2.42,1.13-4.23,0-1.62-.38-2.94-1.16-3.94-.77-1.01-1.79-1.51-3.07-1.51s-2.26.5-3.02,1.49c-.77.99-1.15,2.42-1.15,4.27Z"/><path d="m706.95,296.55c0-2.27.54-4.09,1.61-5.48s2.48-2.07,4.22-2.07,3.1.59,4.12,1.78v-7.71h2.53v21h-2.32l-.12-1.59c-1.01,1.24-2.42,1.86-4.22,1.86s-3.11-.7-4.19-2.11c-1.08-1.4-1.62-3.24-1.62-5.5v-.19Zm2.53.29c0,1.68.35,2.99,1.04,3.94.69.95,1.65,1.42,2.87,1.42,1.6,0,2.78-.72,3.51-2.16v-6.79c-.76-1.39-1.92-2.09-3.49-2.09-1.24,0-2.21.48-2.9,1.44s-1.04,2.38-1.04,4.25Z"/><path d="m729.5,304.34c-2,0-3.64-.66-4.89-1.98-1.26-1.32-1.89-3.08-1.89-5.28v-.46c0-1.47.28-2.78.84-3.93.56-1.15,1.34-2.05,2.35-2.71,1.01-.65,2.1-.98,3.27-.98,1.92,0,3.42.63,4.48,1.9,1.07,1.27,1.6,3.08,1.6,5.44v1.05h-10.02c.04,1.46.46,2.64,1.28,3.53.82.9,1.85,1.35,3.11,1.35.89,0,1.65-.18,2.27-.55.62-.36,1.16-.85,1.63-1.45l1.54,1.2c-1.24,1.91-3.1,2.86-5.58,2.86Zm-.31-13.26c-1.02,0-1.88.37-2.57,1.11-.69.74-1.12,1.78-1.29,3.12h7.41v-.19c-.07-1.29-.42-2.28-1.04-2.99-.62-.71-1.46-1.06-2.52-1.06Z"/><path d="m745.03,295.99c0-2.06.28-4.04.83-5.93.55-1.9,1.37-3.62,2.47-5.17,1.09-1.55,2.23-2.64,3.4-3.28l.52,1.67c-1.33,1.02-2.42,2.58-3.27,4.68-.85,2.1-1.32,4.44-1.4,7.04v1.16c-.01,3.52.63,6.57,1.91,9.16.77,1.55,1.7,2.76,2.76,3.64l-.52,1.54c-1.21-.67-2.37-1.8-3.47-3.39-2.15-3.1-3.23-6.8-3.23-11.12Z"/><path d="m776.87,284.62c-1.12,0-1.61.22-2.08.62-.59.5-1.09,1.12-1.58,3.53l-3.16,15.53h-1.02l-9.12-16.65h-.16l-2.42,11.78c-.62,3.1-.22,3.69,2.11,3.69l-.19.93h-7.13l.19-.93c2.42,0,2.88-.56,3.5-3.69l2.76-13.39c-.71-1.15-1.24-1.43-2.57-1.43l.19-.93h4.87l8.37,15.25h.16l2.14-10.32c.37-1.86.37-2.7.09-3.22-.37-.62-.96-.78-2.26-.78l.19-.93h7.32l-.19.93Z"/><path d="m782.66,296.12c0,2.03-.27,3.98-.8,5.84-.53,1.86-1.35,3.58-2.45,5.16s-2.25,2.7-3.45,3.36l-.53-1.54c1.4-1.08,2.53-2.75,3.38-5.01s1.29-4.78,1.31-7.54v-.44c0-1.91-.2-3.69-.6-5.34-.4-1.64-.96-3.12-1.67-4.42-.72-1.3-1.52-2.32-2.41-3.05l.53-1.54c1.2.67,2.35,1.78,3.44,3.34s1.91,3.28,2.45,5.15c.54,1.88.81,3.89.81,6.03Z"/><path d="m106.29,241.74h-8.35v8.79h-2.62v-19.91h12.33v2.15h-9.71v6.82h8.35v2.15Z"/><path d="m110.4,231.82c0-.41.12-.76.38-1.04.25-.28.62-.42,1.11-.42s.87.14,1.12.42c.25.28.38.63.38,1.04s-.13.75-.38,1.03-.63.41-1.12.41-.86-.14-1.11-.41-.38-.62-.38-1.03Zm2.73,18.72h-2.53v-14.79h2.53v14.79Z"/><path d="m124.34,238.01c-.38-.06-.8-.1-1.24-.1-1.66,0-2.78.71-3.38,2.12v10.5h-2.53v-14.79h2.46l.04,1.71c.83-1.32,2-1.98,3.53-1.98.49,0,.87.06,1.12.19v2.35Z"/><path d="m135.27,246.61c0-.68-.26-1.21-.77-1.59-.51-.38-1.41-.7-2.69-.98s-2.3-.6-3.05-.98-1.31-.84-1.67-1.37c-.36-.53-.54-1.16-.54-1.89,0-1.21.51-2.24,1.54-3.08,1.03-.84,2.34-1.26,3.93-1.26,1.68,0,3.04.43,4.08,1.3,1.04.87,1.57,1.97,1.57,3.32h-2.54c0-.69-.29-1.29-.88-1.79-.59-.5-1.33-.75-2.22-.75s-1.64.2-2.16.6c-.52.4-.78.93-.78,1.57,0,.61.24,1.07.72,1.38.48.31,1.36.61,2.62.89,1.26.28,2.29.62,3.07,1.01.78.39,1.37.86,1.74,1.42.38.55.57,1.22.57,2.02,0,1.32-.53,2.38-1.59,3.18-1.06.8-2.43,1.2-4.12,1.2-1.18,0-2.23-.21-3.14-.63s-1.62-1-2.14-1.76-.77-1.57-.77-2.44h2.53c.05.85.38,1.52,1.02,2.02.63.5,1.47.75,2.51.75.96,0,1.72-.19,2.3-.58.58-.39.87-.9.87-1.55Z"/><path d="m144.53,232.16v3.58h2.76v1.96h-2.76v9.19c0,.59.12,1.04.37,1.33s.67.44,1.26.44c.29,0,.69-.05,1.2-.16v2.04c-.67.18-1.31.27-1.94.27-1.13,0-1.98-.34-2.56-1.03s-.86-1.65-.86-2.91v-9.17h-2.69v-1.96h2.69v-3.58h2.53Z"/><path d="m164.33,238.01c-.38-.06-.8-.1-1.24-.1-1.66,0-2.78.71-3.38,2.12v10.5h-2.53v-14.79h2.46l.04,1.71c.83-1.32,2-1.98,3.53-1.98.49,0,.87.06,1.12.19v2.35Z"/><path d="m172.53,250.81c-2,0-3.64-.66-4.89-1.98-1.26-1.32-1.89-3.08-1.89-5.28v-.46c0-1.47.28-2.78.84-3.93.56-1.15,1.34-2.06,2.35-2.71,1.01-.65,2.1-.98,3.27-.98,1.92,0,3.42.63,4.48,1.9,1.07,1.27,1.6,3.08,1.6,5.44v1.05h-10.02c.04,1.46.46,2.64,1.28,3.53.82.9,1.85,1.35,3.11,1.35.89,0,1.65-.18,2.27-.55.62-.36,1.16-.85,1.63-1.45l1.54,1.2c-1.24,1.91-3.1,2.86-5.58,2.86Zm-.31-13.26c-1.02,0-1.88.37-2.57,1.11-.69.74-1.12,1.78-1.29,3.12h7.41v-.19c-.07-1.29-.42-2.28-1.04-2.99-.62-.71-1.46-1.06-2.52-1.06Z"/><path d="m189.84,246.61c0-.68-.26-1.21-.77-1.59-.51-.38-1.41-.7-2.69-.98s-2.3-.6-3.05-.98-1.31-.84-1.67-1.37c-.36-.53-.54-1.16-.54-1.89,0-1.21.51-2.24,1.54-3.08,1.03-.84,2.34-1.26,3.93-1.26,1.68,0,3.04.43,4.08,1.3,1.04.87,1.57,1.97,1.57,3.32h-2.54c0-.69-.29-1.29-.88-1.79-.59-.5-1.33-.75-2.22-.75s-1.64.2-2.16.6c-.52.4-.78.93-.78,1.57,0,.61.24,1.07.72,1.38.48.31,1.36.61,2.62.89,1.26.28,2.29.62,3.07,1.01.78.39,1.37.86,1.74,1.42.38.55.57,1.22.57,2.02,0,1.32-.53,2.38-1.59,3.18-1.06.8-2.43,1.2-4.12,1.2-1.18,0-2.23-.21-3.14-.63s-1.62-1-2.14-1.76-.77-1.57-.77-2.44h2.53c.05.85.38,1.52,1.02,2.02.63.5,1.47.75,2.51.75.96,0,1.72-.19,2.3-.58.58-.39.87-.9.87-1.55Z"/><path d="m194.99,243c0-1.45.29-2.75.85-3.91.57-1.16,1.36-2.05,2.38-2.68s2.18-.94,3.48-.94c2.01,0,3.64.7,4.89,2.09s1.87,3.25,1.87,5.56v.18c0,1.44-.28,2.73-.83,3.88-.55,1.14-1.34,2.04-2.37,2.67-1.03.64-2.2.96-3.53.96-2,0-3.63-.7-4.87-2.09s-1.87-3.24-1.87-5.54v-.18Zm2.54.3c0,1.64.38,2.96,1.14,3.95.76.99,1.78,1.49,3.06,1.49s2.31-.5,3.06-1.51c.76-1.01,1.13-2.42,1.13-4.23,0-1.62-.38-2.94-1.16-3.94-.77-1.01-1.79-1.51-3.07-1.51s-2.26.5-3.02,1.49c-.77.99-1.15,2.42-1.15,4.27Z"/><path d="m214.02,235.74l.08,1.86c1.13-1.42,2.61-2.13,4.43-2.13,3.13,0,4.7,1.76,4.73,5.29v9.78h-2.53v-9.79c0-1.07-.25-1.85-.73-2.37-.48-.51-1.22-.77-2.24-.77-.82,0-1.54.22-2.16.66s-1.1,1.01-1.45,1.72v10.54h-2.53v-14.79h2.39Z"/><path d="m236.21,250.53c-.15-.29-.26-.81-.36-1.56-1.18,1.22-2.58,1.83-4.21,1.83-1.46,0-2.65-.41-3.59-1.24-.93-.82-1.4-1.87-1.4-3.14,0-1.54.59-2.74,1.76-3.59,1.17-.85,2.82-1.28,4.94-1.28h2.46v-1.16c0-.88-.26-1.59-.79-2.11-.53-.52-1.31-.79-2.34-.79-.9,0-1.66.23-2.27.68-.61.46-.92,1.01-.92,1.65h-2.54c0-.74.26-1.45.79-2.14.52-.69,1.24-1.23,2.13-1.63.9-.4,1.88-.6,2.96-.6,1.7,0,3.04.43,4.01,1.28.97.85,1.47,2.03,1.5,3.52v6.81c0,1.36.17,2.44.52,3.24v.22h-2.65Zm-4.2-1.93c.79,0,1.54-.21,2.26-.62s1.23-.94,1.54-1.6v-3.04h-1.98c-3.1,0-4.65.91-4.65,2.72,0,.79.26,1.41.79,1.86.53.45,1.21.67,2.04.67Z"/><path d="m244.7,235.74l.08,1.86c1.13-1.42,2.61-2.13,4.43-2.13,3.13,0,4.7,1.76,4.73,5.29v9.78h-2.53v-9.79c0-1.07-.25-1.85-.73-2.37-.48-.51-1.22-.77-2.24-.77-.82,0-1.54.22-2.16.66s-1.1,1.01-1.45,1.72v10.54h-2.53v-14.79h2.39Z"/><path d="m261.19,232.16v3.58h2.76v1.96h-2.76v9.19c0,.59.12,1.04.37,1.33s.67.44,1.26.44c.29,0,.69-.05,1.2-.16v2.04c-.67.18-1.31.27-1.94.27-1.13,0-1.98-.34-2.56-1.03s-.86-1.65-.86-2.91v-9.17h-2.69v-1.96h2.69v-3.58h2.53Z"/><path d="m276.59,250.53h-2.53v-21h2.53v21Z"/><path d="m286.77,250.81c-2,0-3.64-.66-4.89-1.98-1.26-1.32-1.89-3.08-1.89-5.28v-.46c0-1.47.28-2.78.84-3.93.56-1.15,1.34-2.06,2.35-2.71,1.01-.65,2.1-.98,3.27-.98,1.92,0,3.42.63,4.48,1.9,1.07,1.27,1.6,3.08,1.6,5.44v1.05h-10.02c.04,1.46.46,2.64,1.28,3.53.82.9,1.85,1.35,3.11,1.35.89,0,1.65-.18,2.27-.55.62-.36,1.16-.85,1.63-1.45l1.54,1.2c-1.24,1.91-3.1,2.86-5.58,2.86Zm-.31-13.26c-1.02,0-1.88.37-2.57,1.11-.69.74-1.12,1.78-1.29,3.12h7.41v-.19c-.07-1.29-.42-2.28-1.04-2.99-.62-.71-1.46-1.06-2.52-1.06Z"/><path d="m297.86,235.74l.08,1.86c1.13-1.42,2.61-2.13,4.43-2.13,3.13,0,4.7,1.76,4.73,5.29v9.78h-2.53v-9.79c0-1.07-.25-1.85-.73-2.37-.48-.51-1.22-.77-2.24-.77-.82,0-1.54.22-2.16.66s-1.1,1.01-1.45,1.72v10.54h-2.53v-14.79h2.39Z"/><path d="m310.31,243.01c0-2.31.53-4.14,1.6-5.5,1.07-1.36,2.48-2.04,4.24-2.04s3.21.64,4.22,1.91l.12-1.64h2.31v14.44c0,1.91-.57,3.42-1.7,4.53-1.13,1.1-2.66,1.65-4.57,1.65-1.07,0-2.11-.23-3.13-.68-1.02-.46-1.8-1.08-2.34-1.87l1.31-1.52c1.08,1.34,2.41,2.01,3.98,2.01,1.23,0,2.19-.35,2.88-1.04.69-.69,1.03-1.67,1.03-2.93v-1.27c-1.01,1.17-2.39,1.75-4.14,1.75s-3.13-.7-4.2-2.09-1.61-3.29-1.61-5.7Zm2.54.29c0,1.67.34,2.98,1.03,3.93.68.95,1.64,1.43,2.87,1.43,1.59,0,2.77-.72,3.51-2.17v-6.75c-.77-1.41-1.94-2.12-3.49-2.12-1.23,0-2.19.48-2.88,1.44s-1.04,2.37-1.04,4.25Z"/><path d="m330.06,232.16v3.58h2.76v1.96h-2.76v9.19c0,.59.12,1.04.37,1.33s.67.44,1.26.44c.29,0,.69-.05,1.2-.16v2.04c-.67.18-1.31.27-1.94.27-1.13,0-1.98-.34-2.56-1.03s-.86-1.65-.86-2.91v-9.17h-2.69v-1.96h2.69v-3.58h2.53Z"/><path d="m338.3,237.53c1.12-1.38,2.58-2.06,4.38-2.06,3.13,0,4.7,1.76,4.73,5.29v9.78h-2.53v-9.79c0-1.07-.25-1.85-.73-2.37-.48-.51-1.22-.77-2.24-.77-.82,0-1.54.22-2.16.66s-1.1,1.01-1.45,1.72v10.54h-2.53v-21h2.53v8Z"/><path d="m376.72,250.53h-15.32l.19-.93c2.39,0,2.88-.43,3.41-2.91l2.67-12.93c.43-2.05.28-2.67-2.39-2.67l.19-.93h8.81l-.16.93c-2.23,0-3.22.46-3.69,2.7l-2.82,13.89c-.28,1.36.19,1.67,2.02,1.67h1.46c3.94,0,4.59-1.27,6.51-4.87h.99l-1.86,6.05Z"/><path d="m380.39,260.86l.11-.51c1.7,0,2.13-.31,2.31-1.21l1.63-7.64c.14-.63.05-.89-.4-.89-.36,0-1.05.11-1.64.29l.13-.6,3.45-.99h.52l-2.1,9.83c-.18.89.2,1.21,1.86,1.21l-.11.51h-5.76Z"/><path d="m394.38,239.93v-2.11h18.48v2.11h-18.48Zm0,7.35v-2.08h18.48v2.08h-18.48Z"/><path d="m444.96,220.38c0,2.6.5,4.53,1.83,4.53.81,0,1.46-.25,2.26-1.09l.53.5c-.96,1.77-2.54,3.07-4.09,3.07-1.71,0-2.36-1.46-2.36-3.81,0-2.79.47-5.21.68-8.15h-.19c-.96,1.36-5.33,8.5-7.1,11.6h-3.1v-.5c3.19-4.34,7.22-9.74,10.42-14.05.03-.65.03-.68.03-1.64,0-2.08-.62-3.29-1.92-3.29-1.02,0-1.74.31-2.54,1.05l-.65-.46c.99-1.74,2.33-2.98,4.28-2.98,2.23,0,2.33,2.11,2.33,4.56,0,3.78-.4,7.26-.4,10.67Z"/><path d="m427.4,242.13l.37-1.77h29.15l-.37,1.77h-29.15Z"/><line x1="461" y1="126.5" x2="537.39" y2="126.5" fill="none" stroke="#d12d32" stroke-miterlimit="10" stroke-width="7"/><polyline points="626 113.5 535 113.5 535 139.5 626 139.5" fill="none" stroke="#d12d32" stroke-miterlimit="10" stroke-width="7"/><path d="m608.5,302s-37.63-46.73-41.5-117.5" fill="none" stroke="#0077a2" stroke-linecap="round" stroke-linejoin="round" stroke-width="2"/><path d="m608.5,302s37.63-46.73,41.5-117.5" fill="none" stroke="#0077a2" stroke-linecap="round" stroke-linejoin="round" stroke-width="2"/><polyline points="650 178 650 303 567 303 567 178" fill="none" stroke="#000" stroke-miterlimit="10" stroke-width="3"/><line x1="456.91" y1="176.5" x2="459.91" y2="176.5" fill="none" stroke="#000" stroke-linecap="round" stroke-linejoin="round" stroke-width="2"/><line x1="465.65" y1="176.5" x2="543.12" y2="176.5" fill="none" stroke="#000" stroke-dasharray="0 0 5.74 5.74" stroke-linecap="round" stroke-linejoin="round" stroke-width="2"/><line x1="545.99" y1="176.5" x2="548.99" y2="176.5" fill="none" stroke="#000" stroke-linecap="round" stroke-linejoin="round" stroke-width="2"/><line x1="456.91" y1="303.5" x2="459.91" y2="303.5" fill="none" stroke="#000" stroke-linecap="round" stroke-linejoin="round" stroke-width="2"/><line x1="465.65" y1="303.5" x2="543.12" y2="303.5" fill="none" stroke="#000" stroke-dasharray="0 0 5.74 5.74" stroke-linecap="round" stroke-linejoin="round" stroke-width="2"/><line x1="545.99" y1="303.5" x2="548.99" y2="303.5" fill="none" stroke="#000" stroke-linecap="round" stroke-linejoin="round" stroke-width="2"/><line x1="496.59" y1="290.52" x2="496.59" y2="189.48" fill="none" stroke="#000" stroke-linecap="round" stroke-linejoin="round" stroke-width="2"/><polygon points="504.57 288.18 496.59 302 488.61 288.18 504.57 288.18"/><polygon points="504.57 191.82 496.59 178 488.61 191.82 504.57 191.82"/></svg>