<?xml version="1.0" encoding="UTF-8"?><svg id="e" xmlns="http://www.w3.org/2000/svg" width="570" height="325" xmlns:xlink="http://www.w3.org/1999/xlink" viewBox="0 0 570 325"><defs><clipPath id="f"><path d="m547.86,157.87c1.78,25.64,31.97,76.51,8,109.41-64.96,89.15-208.89,34.62-480.7,51.67-48.47,3.04-65.89-74.78-54.75-145.32,11.77-74.51-46.19-110.48-.72-153.53,27.9-26.41,165-8.14,251.99-5.01,7.32-13.59,22.32-15.59,39.55-.02.85-.05,1.76-.12,2.72-.2,48.28-4.17,228.89-48.28,252.9,37.14,6.1,21.7-1.96,34.23-9.46,51.35-1.16,2.66-.31,1.22-1.39,4.15,20,20.8,0,33-8.14,50.37Z" fill="none"/></clipPath></defs><g clip-path="url(#f)"><path d="m547.86,157.87c1.78,25.64,31.97,76.51,8,109.41-64.96,89.15-208.89,34.62-480.7,51.67-48.47,3.04-65.89-74.78-54.75-145.32,11.77-74.51-46.19-110.48-.72-153.53,32.68-30.94,215.27-.56,291.54-5.03,43.75-2.57,231.14-50.18,255.62,36.94,10.83,38.53-22.99,48.15-18.99,105.86Z" fill="#deeddf"/><path d="m-28.78,29.72S51.44,5.88,113.13,43.39c62.46,37.99,154.9,106.88,248.35,85.1s213.87-108.4,215.87-108.4,14.49,7.6,16.49,11.65c2,4.05,34.98,89.15,35.48,91.68.5,2.53-154.9,121.06-292.32,114.47S116.44,114.06,88.15,96.58c-40.97-25.33-47.47-27.86-130.42-18.74-49.18,5.41,13.49-48.12,13.49-48.12Z" fill="#fff" opacity=".3"/><path d="m294.52-8.27c-2.12,1.37,40.97,4.56,111.43,55.72,30.1,21.86,123.92-50.65,123.92-50.65,0,0-63.94-7.65-67.8-6.66-3.85.99-22.85,55-58.12,32.5-57.96-36.98-109.43-30.9-109.43-30.9Z" fill="#fff" opacity=".2"/><g opacity=".3"><ellipse cx="27.99" cy="42.43" rx="5.75" ry="3.95" transform="translate(-8.1 6.64) rotate(-11.83)" fill="#1c8c8c"/><path d="m22.74,66.84c-.28,0-.5-.23-.5-.51v-23.81c0-.28.22-.51.5-.51s.5.23.5.51v23.81c0,.28-.22.51-.5.51Z" fill="#1c8c8c"/><ellipse cx="49.98" cy="42.43" rx="5.75" ry="3.95" transform="translate(-7.64 11.15) rotate(-11.83)" fill="#1c8c8c"/><path d="m44.73,66.33c-.28,0-.5-.23-.5-.51v-23.81c0-.28.22-.51.5-.51s.5.23.5.51v23.81c0,.28-.22.51-.5.51Z" fill="#1c8c8c"/><ellipse cx="66.97" cy="51.04" rx="5.75" ry="3.95" transform="translate(-9.04 14.81) rotate(-11.83)" fill="#1c8c8c"/><path d="m61.72,74.94c-.28,0-.5-.23-.5-.51v-23.81c0-.28.22-.51.5-.51s.5.23.5.51v23.81c0,.28-.22.51-.5.51Z" fill="#1c8c8c"/><ellipse cx="82.46" cy="59.14" rx="5.75" ry="3.95" transform="translate(-10.37 18.16) rotate(-11.83)" fill="#1c8c8c"/><path d="m77.21,83.55c-.28,0-.5-.23-.5-.51v-23.81c0-.28.22-.51.5-.51s.5.23.5.51v23.81c0,.28-.22.51-.5.51Z" fill="#1c8c8c"/><path d="m49.73,35.43c-.1,0-.21-.03-.3-.1-8.36-6.36-17.64-2.52-21.24-.58-.1.05-.17.09-.22.12-.25.12-.55.02-.67-.23-.12-.25-.02-.55.22-.68.05-.02.11-.06.2-.11,3.77-2.03,13.49-6.04,22.31.66.22.17.27.49.1.71-.1.13-.25.2-.4.2Z" fill="#1c8c8c"/><path d="m44.62,60.54l17.09,8.33v6.08l-16.97-8.61s-.13-5.6-.13-5.8Z" fill="#1c8c8c"/><polygon points="61.72 66.33 61.72 60.76 52.02 56.2 52.02 61.77 61.72 66.33" fill="#1c8c8c"/><ellipse cx="91.95" cy="57.47" rx="1.25" ry="1.27" fill="#1c8c8c"/><ellipse cx="58.97" cy="39.74" rx="1.25" ry="1.27" fill="#1c8c8c"/><ellipse cx="373.99" cy="175.84" rx="7.96" ry="5.38" transform="translate(10.11 371.75) rotate(-53.48)" fill="#1c8c8c"/><path d="m389.95,205.9c-.17.04-.36-.02-.48-.16l-21.2-24.66c-.18-.21-.16-.53.05-.71.21-.19.52-.16.7.05l21.2,24.66c.18.21.16.53-.05.71-.07.06-.14.1-.22.11Z" fill="#1c8c8c"/><ellipse cx="396.77" cy="155.73" rx="7.96" ry="5.38" transform="translate(35.5 381.91) rotate(-53.48)" fill="#1c8c8c"/><path d="m412.27,185.26c-.17.04-.36-.02-.48-.16l-21.2-24.66c-.18-.21-.16-.53.05-.71.21-.18.52-.16.7.05l21.2,24.66c.18.21.16.53-.05.71-.07.06-.14.1-.22.11Z" fill="#1c8c8c"/><ellipse cx="422.04" cy="149.1" rx="7.96" ry="5.38" transform="translate(51.05 399.53) rotate(-53.48)" fill="#1c8c8c"/><path d="m437.54,178.64c-.17.04-.36-.02-.48-.16l-21.2-24.66c-.18-.21-.16-.53.05-.71.21-.19.52-.16.7.05l21.2,24.66c.18.21.16.53-.05.71-.07.06-.14.1-.22.11Z" fill="#1c8c8c"/><path d="m457.18,157.15h0c1.45-.32,2.73-.07,3.19.61.45.68.12,1.72-.04,2.14-.48,1.21-1.5,2.43-2.82,3.33-.91.63-1.91,1.07-2.88,1.28-1.45.32-2.73.07-3.19-.61-.45-.68-.12-1.72.04-2.14.48-1.21,1.5-2.43,2.82-3.33.91-.63,1.91-1.07,2.88-1.28m-.53-2.48c-1.24.27-2.54.83-3.76,1.66-3.61,2.48-5.19,6.5-3.53,8.99,1.1,1.64,3.34,2.2,5.78,1.67,1.24-.27,2.54-.83,3.76-1.66,3.61-2.48,5.19-6.5,3.53-8.99-1.1-1.64-3.34-2.2-5.78-1.67h0Z" fill="#1c8c8c"/><path d="m462.6,158.38c-.23.05-.47-.07-.57-.3l-12.47-30.17c-.11-.26.01-.55.27-.66.26-.1.55.01.65.27l12.47,30.17c.11.26-.01.55-.27.66-.03.01-.06.02-.09.03Z" fill="#1c8c8c"/><path d="m366.71,168.27c-.1.02-.2.01-.29-.03-.26-.11-.38-.4-.27-.66.03-.07.06-.17.11-.3,2.08-5.52,8.54-18.49,23.54-19.61.28-.02.51.19.53.47s-.19.53-.46.54c-14.42,1.08-20.67,13.61-22.68,18.96-.05.14-.09.25-.12.32-.07.16-.2.27-.36.3Z" fill="#1c8c8c"/><path d="m407.35,179.38l25.12-7.01,5.41,6.3-25.24,6.6s-5.12-5.69-5.29-5.89Z" fill="#1c8c8c"/><polygon points="430.22 169.75 425.26 163.98 411.15 168.13 416.12 173.9 430.22 169.75" fill="#1c8c8c"/><ellipse cx="403.69" cy="144.72" rx="1.72" ry="1.74" fill="#1c8c8c"/><path d="m487.77,25.22h0c.61,0,1.09.21,1.22.52.12.31-.1.7-.2.85-.29.44-.8.83-1.4,1.08-.41.17-.85.26-1.25.26-.61,0-1.09-.21-1.22-.52-.2-.51.45-1.46,1.59-1.92.41-.17.85-.26,1.25-.26m0-1.01c-.51,0-1.07.11-1.62.33-1.63.67-2.59,2.12-2.15,3.24.3.74,1.14,1.16,2.14,1.16.51,0,1.07-.11,1.62-.33,1.63-.67,2.59-2.12,2.15-3.24-.3-.74-1.14-1.16-2.14-1.16h0Z" fill="#1c8c8c"/><path d="m489.81,26.49c-.24,0-.45-.17-.49-.41l-2.39-12.98c-.05-.28.13-.54.4-.59.27-.05.53.13.58.41l2.39,12.98c.05.28-.13.54-.4.59-.03,0-.06,0-.09,0Z" fill="#1c8c8c"/><ellipse cx="443.76" cy="25.54" rx="2.42" ry="1.6" transform="translate(78.01 278.13) rotate(-37.92)" fill="#1c8c8c"/><path d="m445.72,25.03c-.19,0-.37-.11-.45-.29l-4.09-8.75c-.12-.25-.01-.55.24-.67.25-.12.55-.01.67.24l4.09,8.75c.12.25.01.55-.24.67-.07.03-.14.05-.21.05Z" fill="#1c8c8c"/><path d="m447.79,19.93c.16.07.62.32,1.15.99-1.65-3.54-7.19-5.38-7.19-5.38l1.13,2.41s1.09-.08,4.71,1.88c.07.04.13.07.2.1Z" fill="#1c8c8c"/><ellipse cx="297.98" cy="164.64" rx="6.16" ry="4.23" transform="translate(-5.56 10.5) rotate(-2)" fill="#1c8c8c"/><path d="m303.54,165.98s-.06,0-.08,0c-.27-.05-.46-.31-.41-.58l4.14-25.16c.05-.28.3-.46.58-.42.27.05.46.31.41.58l-4.14,25.16c-.04.25-.25.42-.49.42Z" fill="#1c8c8c"/><path d="m314.53,158.74c.22.39.83,1.64.97,3.9,1.68-10.17-7.21-22.68-7.21-22.68l-1.14,6.93s2.4,1.51,7.11,11.32c.08.18.17.36.27.53Z" fill="#1c8c8c"/><path d="m152.03,126.91s-.09,0-.14-.02c-.26-.08-.42-.36-.34-.63l7.58-26.1c.08-.27.36-.42.62-.34.26.08.42.36.34.63l-7.58,26.1c-.06.22-.26.36-.48.36Z" fill="#1c8c8c"/><ellipse cx="164.56" cy="102.2" rx="4.56" ry="5.73" transform="translate(26.83 238.43) rotate(-76.53)" fill="#1c8c8c"/><ellipse cx="185.17" cy="110.62" rx="4.56" ry="5.73" transform="translate(34.45 264.92) rotate(-76.53)" fill="#1c8c8c"/><path d="m168.91,149.95s-.09,0-.14-.02c-.26-.08-.42-.36-.34-.63l11.78-40.53c.08-.27.36-.42.62-.34.26.08.42.36.34.63l-11.78,40.53c-.06.22-.26.36-.48.36Z" fill="#1c8c8c"/><ellipse cx="214.18" cy="124.7" rx="4.56" ry="5.73" transform="translate(43.01 303.93) rotate(-76.53)" fill="#1c8c8c"/><path d="m197.45,160.91c-.05,0-.1,0-.16-.03-.26-.09-.4-.37-.32-.64l11.92-36.58c.09-.27.37-.41.63-.32.26.09.4.37.32.64l-11.92,36.58c-.07.21-.26.35-.47.35Z" fill="#1c8c8c"/><ellipse cx="225.69" cy="135.25" rx="4.56" ry="5.73" transform="translate(41.58 323.22) rotate(-76.53)" fill="#1c8c8c"/><path d="m211.85,166.25s-.09,0-.14-.02c-.26-.08-.42-.36-.34-.63l8.79-30.26c.08-.27.36-.42.62-.34.26.08.42.36.34.63l-8.79,30.26c-.06.22-.26.36-.48.36Z" fill="#1c8c8c"/><ellipse cx="238.29" cy="145.99" rx="4.56" ry="5.73" transform="translate(40.81 343.71) rotate(-76.53)" fill="#1c8c8c"/><path d="m226.22,170.88s-.09,0-.14-.02c-.26-.08-.42-.36-.34-.63l7.58-26.1c.08-.27.36-.42.62-.34.26.08.42.36.34.63l-7.58,26.1c-.06.22-.26.36-.48.36Z" fill="#1c8c8c"/><ellipse cx="253.79" cy="147.74" rx="4.56" ry="5.73" transform="translate(50.99 360.13) rotate(-76.53)" fill="#1c8c8c"/><path d="m239.55,179.65s-.09,0-.14-.02c-.26-.08-.42-.36-.34-.63l9.19-32.18c.08-.27.35-.42.62-.35.26.08.42.36.34.63l-9.19,32.18c-.06.22-.26.37-.48.37Z" fill="#1c8c8c"/><ellipse cx="268.86" cy="161.07" rx="4.56" ry="5.73" transform="translate(49.58 385.01) rotate(-76.53)" fill="#1c8c8c"/><path d="m256.49,185.73s-.09,0-.14-.02c-.26-.08-.42-.36-.34-.63l7.58-26.1c.08-.27.36-.42.62-.34.26.08.42.36.34.63l-7.58,26.1c-.06.22-.26.36-.48.36Z" fill="#1c8c8c"/><ellipse cx="201.48" cy="112.62" rx="4.56" ry="5.73" transform="translate(45.02 282.32) rotate(-76.53)" fill="#1c8c8c"/><path d="m184.74,151.36s-.09,0-.14-.02c-.26-.08-.42-.36-.34-.63l11.92-41.01c.08-.27.36-.42.62-.34.26.08.42.36.34.63l-11.92,41.01c-.06.22-.26.36-.48.36Z" fill="#1c8c8c"/><path d="m187.32,102.81c-.17,0-.34-.09-.43-.25-5.6-9.8-14.74-9.7-19.69-8.77-.11.02-.19.04-.25.05-.27.04-.53-.15-.57-.42s.14-.54.42-.58c.05,0,.12-.02.22-.04,4.19-.79,14.61-1.47,20.74,9.26.14.24.06.55-.18.69-.08.05-.17.07-.25.07Z" fill="#1c8c8c"/><polygon points="239.47 178.89 168.75 150 170.36 144.45 241.08 173.34 239.47 178.89" fill="#1c8c8c"/><polygon points="242.21 169.45 182.77 145.17 184.23 140.17 243.66 164.45 242.21 169.45" fill="#1c8c8c"/><ellipse cx="278.28" cy="161.16" rx="1.25" ry="1.27" fill="#1c8c8c"/><path d="m526.52,119.55c-.15,0-.3-.07-.4-.21l-20.23-27.9c-.16-.23-.12-.54.11-.71.22-.17.53-.12.7.11l20.23,27.9c.16.23.12.54-.11.71-.09.07-.19.1-.3.1Z" fill="#1c8c8c"/><ellipse cx="512" cy="87.53" rx="7.33" ry="5.77" transform="translate(71.24 362.37) rotate(-41.65)" fill="#1c8c8c"/><ellipse cx="536.79" cy="72.35" rx="7.33" ry="5.77" transform="translate(87.59 375.01) rotate(-41.65)" fill="#1c8c8c"/><path d="m553.64,107.5c-.11,0-.22-.05-.29-.15l-22.65-31.14c-.12-.16-.08-.39.08-.51.16-.12.39-.08.5.08l22.65,31.14c.12.16.08.39-.08.51-.06.05-.14.07-.21.07Z" fill="#1c8c8c"/><ellipse cx="572.71" cy="53.93" rx="7.33" ry="5.77" transform="translate(108.91 394.22) rotate(-41.65)" fill="#1c8c8c"/><path d="m595.49,99.12c-.16,0-.32-.08-.41-.22l-27.36-40.43c-.16-.23-.1-.55.13-.7.23-.16.54-.1.69.13l27.36,40.43c.16.23.1.55-.13.7-.09.06-.18.09-.28.09Z" fill="#1c8c8c"/><ellipse cx="550.36" cy="57.15" rx="7.33" ry="5.77" transform="translate(101.13 380.18) rotate(-41.65)" fill="#1c8c8c"/><path d="m576.16,104.81c-.15,0-.3-.07-.4-.21l-31.79-43.84c-.16-.23-.12-.54.11-.71.22-.17.53-.12.7.11l31.79,43.84c.16.23.12.54-.11.71-.09.07-.19.1-.3.1Z" fill="#1c8c8c"/><path d="m504.92,78.82c-.08,0-.16-.02-.24-.06-.24-.13-.33-.44-.2-.69.03-.06.07-.14.13-.26,2.43-4.89,9.74-16.04,25.09-14.08.27.04.47.29.43.57s-.28.47-.56.44c-14.19-1.82-21.17,7.7-24.07,13.53-.06.13-.11.22-.14.29-.09.17-.26.27-.44.27Z" fill="#1c8c8c"/><polygon points="646.35 69.72 568.78 116.19 564.49 110.25 642.06 63.77 646.35 69.72" fill="#1c8c8c"/><polygon points="639.03 59.63 568.97 101.94 565.1 96.6 635.16 54.29 639.03 59.63" fill="#1c8c8c"/><ellipse cx="382.55" cy="15.27" rx="1.14" ry="1.65" transform="translate(349.68 396.71) rotate(-87.36)" fill="#1c8c8c"/><path d="m383.84,15.87s-.08,0-.12-.01c-.27-.07-.43-.34-.36-.61l1.63-6.65c.07-.27.34-.44.61-.37.27.07.43.34.36.61l-1.63,6.65c-.06.23-.26.38-.48.38Z" fill="#1c8c8c"/><ellipse cx="408.16" cy="33.5" rx="1.14" ry="1.65" transform="translate(355.9 439.69) rotate(-87.36)" fill="#1c8c8c"/><path d="m409.33,34.1s-.08,0-.12-.01c-.27-.07-.43-.34-.36-.61l1.63-6.65c.07-.27.34-.44.61-.37.27.07.43.34.36.61l-1.63,6.65c-.06.23-.26.38-.48.38Z" fill="#1c8c8c"/><ellipse cx="421.89" cy="43.08" rx="2.16" ry="1.49" transform="translate(-2.19 43.8) rotate(-5.93)" fill="#1c8c8c"/><path d="m423.62,43.7s-.03,0-.05,0c-.27-.03-.47-.28-.45-.55l.88-8.91c.03-.28.27-.47.55-.45.27.03.47.28.45.55l-.88,8.91c-.03.26-.24.46-.5.46Z" fill="#1c8c8c"/><ellipse cx="394.47" cy="21.62" rx="1.14" ry="1.65" transform="translate(354.7 414.67) rotate(-87.36)" fill="#1c8c8c"/><path d="m395.62,22.03s-.08,0-.12-.01c-.27-.07-.43-.34-.36-.61l1.63-6.65c.07-.27.34-.44.61-.37.27.07.43.34.36.61l-1.63,6.65c-.06.23-.26.38-.48.38Z" fill="#1c8c8c"/><ellipse cx="401.11" cy="26.98" rx="1.14" ry="1.65" transform="translate(355.68 426.42) rotate(-87.36)" fill="#1c8c8c"/><path d="m402.33,27.32s-.08,0-.12-.01c-.27-.07-.43-.34-.36-.61l1.63-6.65c.07-.27.34-.44.61-.37.27.07.43.34.36.61l-1.63,6.65c-.06.23-.26.38-.48.38Z" fill="#1c8c8c"/><polygon points="396.86 15.85 397.24 14.3 404.19 19.8 403.76 21.58 396.86 15.85" fill="#1c8c8c"/></g><path d="m324.33,78.79c0-.96-9.56-7.02-14.02-7.98-4.46-.96-28.05-2.26-31.24-.67-3.19,1.59-8.33,7.05-8.33,7.05,0,0,14.37,11.44,18.51,11.77,4.14.32,35.08-10.16,35.08-10.16Z" fill="#6d94cc"/><path d="m285.42,249.6s1.48,108.05-.32,109.13-10.76,7.01-13.26-.92c-2.5-7.93-2.86-103.92-2.86-103.92l16.44-4.28Z" fill="#d12d32"/><path d="m308.28,250.18s8.29,107.48,10.24,108.55c1.96,1.07,11.26,5.05,12.65-2.83,1.39-7.88-5.84-101.46-5.84-101.46l-17.05-4.26Z" fill="#d12d32"/><path d="m324.45,178.94s7.77,128.39,10.83,170.71c.47,6.43-20.66,5.29-19.52,4.15.51-.51-24.71-155.82-24.71-155.82l-2.06,155.79s-20.4.23-20.4-3.48c-8.53-71.49-12.71-150.19-9.75-167.29,30.64-19.08,65.62-4.07,65.62-4.07Z" fill="#150e00"/><path d="m319.67,181.58c-1.37.26-2.09-.5-2.91-1.05-.81-.57-1.58-1.2-2.3-1.85-.72-.65-1.38-1.35-2.04-2.03-.67-.69-1.39-1.21-1.65-2.49-.02-.11.05-.22.17-.24,1.34-.19,2.11.54,2.89,1.12.79.59,1.54,1.21,2.26,1.86.71.65,1.39,1.31,2.06,1.97.67.69,1.47,1.12,1.69,2.47.02.11-.06.22-.17.24h0Z" fill="#524c5e"/><path d="m274.68,175.92c0-.07.02-.19-.06-.07,0,.04-.03-.06-.01.16.04.17.26.21.32.18,0,0,0,0,0,0h.02s0,.03,0,.05c-.31,1.07-1.24,1.71-2.04,2.39-1.67,1.43-3.43,2.72-5.28,3.9-.91.62-1.86,1.28-3.01,1.27-.15,0,0-.06-.07-.16,0-.05-.14-.13-.18-.08.18-.07.27.22.09.28-.15.06-.29-.12-.18-.26.22-1.21,1.17-2.02,2.06-2.76,1.66-1.46,3.42-2.78,5.3-3.94.91-.58,1.84-1.27,2.98-1.19.16,0,.38-.1.49.17.02.22-.01.13-.01.17-.01.02-.07.09-.08.09-.16.05-.37,0-.35-.2h0Z" fill="#524c5e"/><path d="m260.08,192.74l64.01-.5c1.73-.01,3.06-1.51,2.83-3.19l-5.89-42.97,2.59-51.47c.84-9.25,7.7-20.52-22.59-18.99l-23.91-.66c-31.24,1.53-19,20.67-18.2,29.9l2.18,44.26-4.16,40.23c-.19,1.82,1.28,3.39,3.15,3.38Z" fill="#fffffc"/><path d="m343,117.5c-2.85-11.41-16.51-42.27-25.05-39.24-14.96,6.76-10.48,18.28-6.38,27.22,4.1,8.94,11.4,20.64,12.56,22.02-.27-.32,10.34-6.61,18.87-10Z" fill="#fffffc"/><path d="m272.09,36.65c-.22,7.69,1.45,15.59,5.98,24.08,2.49,4.66,6.6,6.1,10.51,6.35,5.05.32,11.72-2.65,14.23-7.28,5.51-10.15,5.71-14.76,5.93-22.47.4-14.03-5.58-21.07-16.99-21.39-11.42-.33-19.27,6.68-19.66,20.71Z" fill="#e5916c"/><path d="m272.64,44.11c.35,2.91,2.26,5.71.85,6.44-1.41.73-5.68-1.51-6.81-3.69-.64-1.25-1.15-2.89-1.16-4.56,0-1.48.09-3.13.64-4.05.94-1.55,2.36-1.97,3.63-1.07,1.27.9,2.4,3.94,2.79,6.43" fill="#e5916c"/><path d="m304.95,35.71c-1.26.94-2.24.37-3.46.24-3-.62-5.58-1.36-8.51.12-.11.08-.28.08-.34-.06-.23-.76.1-1.52.57-2.08,2.33-2.27,6.25-1.57,9-.77,1.23.54,2.41.56,2.87,2.21.04.13-.02.27-.13.34h0Z" fill="#001415"/><path d="m275.04,35.82c-.58-.83-.25-1.62.36-2.14,2.25-2.02,5.68-1.99,8.42-1.13,1.12.42,2.14,1.25,2.42,2.5.03.14-.09.27-.23.26-2.12-.1-3.48-.72-5.47-.48-1.22.14-2.47.54-3.6.95-.53.28-.78.15-1.56.15-.11,0-.29.01-.35-.1h0Z" fill="#001415"/><path d="m290.84,50.04c-1.38,1.99-6.85,2.83-7.23-.39-.1-2.25,2.39-10.52,4.98-10.48-.02,1.67-.69,2.97-1.16,4.33-.56,1.67-.98,3.43-1.32,5.16-.03.15-.13.61-.14.76,1.07.55,3.23-.29,4.78.35.11.03.16.18.08.27h0Z" fill="#7f3e28"/><path d="m270.35,41.48c-.93.42-.97.15-1.22.05-.31-.16-.75-.34-.85-.61.11-.26-.01-.4-.52-.68-.48-.23-.42-.99-.09-1.21.26-.21.62-.24.89-.24.98.03,1.6.47,2.07,1.17.16.3.52.46-.05,1.33-.06.09-.14.14-.23.18h0Z" fill="#7f3e28"/><path d="m307.41,45.3c.42-2.63,1.6-5.83,2.87-6.77,1.27-.95,2.68-.5,3.59,1.14.53.97.6,2.71.57,4.27-.03,1.76-.56,3.49-1.22,4.81-1.16,2.3-5.07,5-6.46,4.22-1.39-.78.18-4.07.57-7.15" fill="#e5916c"/><path d="m309.7,42.71c-.46-.93-.09-1.05.11-1.32.65-.83,2.08-1.33,3.05-.58.29.25.28.94-.17,1.17-.42.13-.68.36-.68.47-.02.11.04.11.02.16-.13.25-.59.37-.92.5-.26.07-.33.33-1.21-.19-.09-.05-.17-.12-.21-.21h0Z" fill="#7f3e28"/><path d="m281.92,57.2s-.58,18.23-.28,19.69c.3,1.46,1.1,3.36,10.04,3.79,6.09.29,9.13-4.08,9.13-4.08l-.58-22.1-18.32,2.7Z" fill="#e5916c"/><path d="m311.25,37.85c.08-.27,2.2-7.27.67-10.64-1.53-3.37-4.93-3.53-5.09-3s.92,17.54,1.82,16.89,2.59-3.26,2.59-3.26Z" fill="#281818"/><path d="m278.72,22.36c-.45.28-3.88,5.6-4.21,6.99s-1.86,13.01-1.86,13.01l-2.11-3.76s.59-16.27,5.66-17.68c5.07-1.41,2.52,1.43,2.52,1.43Z" fill="#281818"/><path d="m276.96,41.26c-.37-1.21.73-2.1,1.72-2.5,1.92-.85,4.18-.54,5.85.68.87.59,1.68,1.56,1.3,2.68-.04.11-.15.17-.26.13-.89-.17-1.45-.57-2.17-.99-1.22-.55-2.68-.74-3.99-.47-.52.11-.88.4-1.44.48-.17,0-.91.31-1.02-.02h0Z" fill="#001415"/><path d="m292.16,41.52c.16-1.35,1.15-1.87,2.09-2.34,1.92-1.04,4.53-1.06,6.38.2.96.61,2,1.57,1.56,2.88-.04.11-.18.15-.28.09-1.01-.34-1.47-.66-2.31-1.09-1.46-.61-3-.55-4.52-.08-.82.21-1.41.81-2.75.57-.11-.02-.18-.12-.17-.23h0Z" fill="#001415"/><ellipse cx="280.79" cy="43.44" rx="1.92" ry="1.97" transform="translate(61.49 224.11) rotate(-48.28)" fill="#001415"/><ellipse cx="296.56" cy="43.82" rx="1.89" ry="2" transform="translate(55.89 222.56) rotate(-45.01)" fill="#001415"/><path d="m309.19,24.85c.24-.41-1.07-5.14-2.74-6.82s-3.08-2.07-3.46-3.47c-.95-3.47-4.18-3.95-6.81-4.31s-5.12-5.2-11.12-1.09c-3.81,2.61-1.28.78-5.86,2.38-2.23.78-2.99,2.15-2.99,5.73s.12,4.43.47,4.78c1.31,1.32,11.23,2.88,15.3,1.45,4.07-1.43,9.32,1.21,9.32,1.21,0,0,5.97,3.35,7.89.13Z" fill="#281818"/><path d="m277.12,74.96s-5.07,5.05-5.07,7.28c0,2.23-2.6,48.77-2.31,71.72.29,22.95-.03,31.88-.03,31.88,0,0-9.88.95-12.43-.01-2.55-.96-1.58-8.93-1.58-8.93,0,0-3.49-13.39-3.17-17.54.32-4.14,3.87-41.12,5.16-53.23,1.29-12.11,1.94-27.73,8-30.91,6.06-3.18,11.44-.26,11.44-.26Z" fill="#6d94cc"/><path d="m311.9,74.63s1.56,29.33,1.56,35.07c0,5.74-2.55,0-2.25,18.49.3,18.49-1.63,33.15-.36,37.3,1.27,4.15,3.49,16.9,3.49,16.9l11.47,1.29s2.87-.95,2.23-2.55c-.64-1.59,3.83-8.28,3.2-13.38s.03-29.33-2.19-39.85c-2.22-10.52-3.81-16.26-3.8-24.23,0-7.97,1.61-16.89-.93-21.36-2.55-4.47-1.59-6.38-6.05-7.98s-6.38.31-6.38.31Z" fill="#6d94cc"/><path d="m267.3,74.42s-11.51,4.93-16.3,10.98c-4.79,6.05-9.67,16.22-10,26.1-.33,9.88-4,25-4,25,0,0,.33,13.03,0,21-.17,4.15,0,18,10,23s10-10,10-10c0,0,.64-31.22.96-33.77s8.02-50.67,9.31-56.09.03-6.22.03-6.22Z" fill="#6d94cc"/><path d="m315,140.5s8.18-16.3,5-23c-3.18-6.7-3.03-18-4.61-26.61-1.58-8.61.02-16.58.02-16.58,0,0,10.2-.31,17.21,6.08,7.01,6.38,12.44,14.41,13.39,21.11.95,6.7,4.02,32.57,4,34-.24,16.39-12,32-20,27l-15-22Z" fill="#6d94cc"/><path d="m329.84,98.64c-1.15,4.25-3.66,7.62-3.68,11.93,0,5.17-.3,10.33-.65,15.48-.21,3.16-.33,6.33-1.37,9.45-.04.14-.27.14-.29-.01-1.15-6.35-.19-12.66-.21-19.02,0,0,.17-4.73.17-4.73-.02-1.65.16-3.43.71-4.98,1.08-3.15,2.47-6.17,5.09-8.29.11-.09.29.02.24.17h0Z" fill="#194a7c"/><path d="m255.27,102.33c.07,5.67-1.11,11.29-.6,16.9.88,7.27,1.75,14.56,2.56,21.83-1.66,7.94-3.76,15.86-4.49,23.94-.05,1.12-.16,2.49,0,3.57.84,3.94,2.79,7.79,4.47,11.49.23.96.11,2.01.18,3,.01.91.04,1.83.02,2.74,0,.08-.07.15-.15.14-.07,0-.12-.05-.14-.11-.45-1.78-.81-3.56-1.15-5.36l.09.26c-1.9-2.89-3.45-5.96-4.63-9.23-.45-1.16-.87-2.67-.86-4-.1-2.15.15-4.39.39-6.52.8-6.1,2.56-15.33,3.9-19.66-.78-8.15-1.92-16.3-2.38-24.47.22-4.98,1.12-9.81,2.51-14.58.04-.16.3-.12.29.05h0Z" fill="#194a7c"/><path d="m269.88,140.36l-1.36-3.69c-.47-1.27.05-2.57,1.17-2.88h0c1.11-.32,2.4.46,2.87,1.73l1.36,3.69c.47,1.27-.05,2.57-1.17,2.88h0c-1.11.32-2.4-.46-2.87-1.73Z" fill="none" stroke="#586366" stroke-linecap="round" stroke-linejoin="round" stroke-width="2"/><polygon points="312 74.5 270.98 135.13 272.96 140.56 321.24 76.56 312 74.5" fill="#36241f"/><path d="m278,74.5s2.44,45.55-2.25,58.58c-.63,1.76-.76,2.06-4.76,2.06,4.02-32.63,2.37-58.26,2.37-58.26l4.64-2.37Z" fill="#36241f"/><path d="m316.68,74l8.6,7.98-9.58,13.06,5.09,1.6-9.26,20.39s-6.04-14.67-6.04-18.49c.01-11.79,1.62-25.82,1.62-25.82l9.56,1.29Z" fill="#6d94cc"/><path d="m279.93,69.88s-1.75-.64-9.15,3.43c-6.8,3.74-13.41,17.2-13.41,17.2l8.92,1.28-7.02,6.69,10.82,13.72,1.6-4.78s2.25-16.57,2.25-17.53c0-.96,4.8-16.25,4.8-16.25l1.18-3.76Z" fill="#6d94cc"/><path d="m316.78,73.89c2.57,1.53,4.81,3.4,7.03,5.36l2.18,1.96c.4.36.45.97.13,1.39-2.33,3.3-7.07,9.89-9.45,13.15,0,0-.61-1.86-.61-1.86l5.08,1.63c.67.2,1.01.97.72,1.6-1.55,3.4-3.17,6.76-4.76,10.14-1.6,3.4-3.24,6.75-5.43,9.83-.09.13-.31.03-.27-.12,1.87-7.27,5.43-13.93,8.32-20.82,0,0,.72,1.6.72,1.6l-5.1-1.57c-.78-.22-1.1-1.22-.61-1.86,0,0,4.82-6.5,4.82-6.5l4.88-6.46.13,1.39c-2.82-2.68-5.73-5.44-7.98-8.64-.09-.12.07-.3.2-.22h0Z" fill="#194a7c"/><path d="m269.98,112.29c-3.94-3.24-8.3-9.17-11.59-13.11-.37-.46-.32-1.12.11-1.51,2.3-2.27,4.65-4.49,6.97-6.74l.66,2.05c-2.98-.41-5.95-.88-8.92-1.32-.64-.08-1.09-.68-.99-1.31,2.2-5.31,8.43-16.87,14.69-17.06-4.43,3.2-7.56,7.91-10.12,12.73-.84,1.61-1.63,3.29-2.33,4.93l-.91-1.6c2.98.42,5.97.81,8.95,1.26.97.11,1.36,1.42.64,2.05-2.36,2.21-4.69,4.45-7.07,6.63l.11-1.51c1.84,2.42,6.24,8.02,7.83,10.52.8,1.22,1.57,2.47,2.23,3.81.07.13-.11.29-.23.18h0Z" fill="#194a7c"/><line x1="307.12" y1="72.71" x2="306.8" y2="75.26" fill="none" stroke="#194a7c" stroke-linecap="round" stroke-linejoin="round" stroke-width="2"/><line x1="263.88" y1="155.89" x2="256.22" y2="170.23" fill="none" stroke="#194a7c" stroke-linecap="round" stroke-linejoin="round" stroke-width="2"/><path d="m266.32,112.38c-1.43,0-9.56.47-9.56.47v4.3s4.91,3.32,4.91,3.32c0,0,4.43-3.11,5.11-4.46.16-.32-.45-3.63-.45-3.63Z" fill="none" stroke="#194a7c" stroke-linecap="round" stroke-linejoin="round" stroke-width="2"/><path d="m301.41,76s-4.47,4.7-9.72,4.68c-5.82-.03-9.76-1.83-10.72-3.74" fill="none" stroke="#394170" stroke-linecap="round" stroke-miterlimit="10" stroke-width="4"/><circle cx="234.26" cy="166.13" r="10.49" fill="#a87626"/><circle cx="238.18" cy="182.5" r="10.49" fill="#a87626"/><ellipse cx="270.59" cy="182.95" rx="8.53" ry="4.59" transform="translate(55.49 428.76) rotate(-82.87)" fill="#a87626"/><path d="m282.07,61.19c-4.22,2.51-14.85,7.84-18.93,10.18-5.58,2.63-5.19,9.1-4.02,14.18,4.34,28.01,8.24,56.72,12.62,84.72,6.85,20.46-13.15,44.11-32.94,28.4.22.2-.38-.33-.34-.3-6.67-5.26-8.53-14.22-9.54-22.23-1.22-7.16-3.66-21.67-4.97-28.56-.13.24.28,1.24-.02.78-.51-.62-4.78-5.81-5.39-6.56l20.04-14.72c3.46,5.47,8.46,11.38,8.61,18.16.43,7.11,2.29,18.8,2.79,25.9.46,2.59-.25,8.85,1.85,10.9.29.28,5.12,3.4,3.99-6.1-3.58-30.23-4-58.89-6.5-89.23-3.96-22.32,16.17-22.45,31.57-28.26l1.17,2.73Z" fill="#d8c541"/><ellipse cx="229.19" cy="132.47" rx="20.44" ry="5.44" transform="translate(-34.71 153.24) rotate(-34.53)" fill="#d8c541"/><ellipse cx="229.47" cy="133.35" rx="14.57" ry="2.72" transform="translate(-35.16 153.55) rotate(-34.53)" fill="#897619"/><polygon points="286.33 56.89 278.47 58.36 278.46 58.36 273.42 59.77 273.41 59.73 273.36 59.79 273.35 59.79 273.35 59.8 271.71 61.48 269.91 61.98 271.1 66.24 272.91 65.74 275.18 66.32 275.18 66.33 275.19 66.33 275.27 66.35 275.26 66.31 280.3 64.89 280.28 64.85 286.75 58.39 286.33 56.89" fill="#36241f"/><path d="m240.62,130.81c.55,4.14-10.23,10.34-13.62,11.99-1.82.87-3.72,1.88-5.97,1.62l-.08-.28c.81-.73,1.62-1.28,2.47-1.79,4.29-2.35,8.52-5.06,12.46-7.94,1.53-1.23,2.98-2.37,4.46-3.66,0,0,.29.06.29.06h0Z" fill="#fff471"/><path d="m230.94,185.37c1.86-.77,3.53-.54,5.26-.69,1.71-.13,3.4-.37,5.05-.73,1.65-.36,3.26-.84,4.8-1.51,1.58-.72,3.01-1.72,4.72-2.17,0,0,.2.21.2.21-1.51,3.53-5.77,4.91-9.2,5.83-1.82.4-3.67.56-5.5.53-1.82-.05-3.69.01-5.36-1.18l.04-.29h0Z" fill="#fff471"/><path d="m232.67,189.17c1.97-.53,3.61-.21,5.37-.35,1.73-.12,3.44-.41,5.11-.87,3.8-.84,6.09-2.92,9.64-4.29,0,0,.21.21.21.21-.17.48-.42.91-.68,1.32-3.4,3.99-9.09,5.85-14.23,5.79-1.89-.06-3.91-.12-5.49-1.53l.07-.29h0Z" fill="#fff471"/><path d="m256.19,175.75c1.33-1.06,2.72-.98,4.1-1.15,1.38-.16,2.76-.25,4.08-.39,2.9-.12,4.78-1.1,7.43-2.09,0,0,.23.18.23.18-.85,4.35-8.17,4.47-11.62,4.46-1.39-.03-2.76.2-4.2-.71l-.02-.29h0Z" fill="#fff471"/><path d="m256.02,171.22c1.24-.98,2.42-.88,3.62-1.11,2.39-.42,4.73-.91,7.08-1.51,1.18-.31,2.26-.8,3.76-.48l.12.27c-.77,1.36-2.02,1.77-3.21,2.25-2.39.97-4.95,1.53-7.53,1.62-1.28.03-2.59.25-3.85-.75v-.29h0Z" fill="#fff471"/><path d="m260.63,96.83c.58-.67,1.58-.98,2.52-.92,1.25,4.21,1.71,8.57,2.41,12.87,1.28,8.32,2.42,16.66,3.43,25.02.49,4.29,1.18,8.57,1.14,12.92-.74.51-1.72.68-2.5.37,0,0,.05-.29.05-.29.67-.05,1.27-.34,1.65-.76l-.19.46c-1.16-4.09-1.63-8.27-2.3-12.42-1.28-8.31-2.44-16.63-3.45-24.98-.47-4.18-1.17-8.32-1.16-12.58l.46.45c-.56-.18-1.23-.15-1.88.1l-.17-.24h0Z" fill="#d8c541"/><path d="m254.38,125.43c1.58,3.66,1.97,7.52,2.57,11.34.58,3.83,1.02,7.67,1.42,11.52.35,3.85.64,7.71.81,11.58.18,3.86.44,7.73-.33,11.62h-.29c-1.76-7.57-1.57-15.3-2.58-22.96-.35-3.83-.76-7.65-1.16-11.48-.38-3.83-1.08-7.61-.71-11.57l.29-.05h0Z" fill="#fff471"/><ellipse cx="250.69" cy="95.83" rx="1.97" ry="2.62" transform="translate(-9.54 30.17) rotate(-6.76)" fill="#fff471"/><ellipse cx="251.02" cy="101.41" rx="1.97" ry="2.62" transform="translate(-10.19 30.25) rotate(-6.76)" fill="#fff471"/><ellipse cx="252.05" cy="108.05" rx="1.97" ry="2.62" transform="translate(-10.96 30.41) rotate(-6.76)" fill="#fff471"/><ellipse cx="252.31" cy="115.12" rx="1.97" ry="2.62" transform="translate(-11.79 30.49) rotate(-6.76)" fill="#fff471"/><ellipse cx="253.31" cy="123.12" rx="1.97" ry="2.62" transform="translate(-12.73 30.67) rotate(-6.76)" fill="#fff471"/><ellipse cx="255.31" cy="136.12" rx="1.97" ry="2.62" transform="translate(-14.25 30.99) rotate(-6.76)" fill="#fff471"/><ellipse cx="255.31" cy="153.12" rx="1.97" ry="2.62" transform="translate(-16.25 31.11) rotate(-6.76)" fill="#fff471"/><ellipse cx="255.31" cy="158.12" rx="1.97" ry="2.62" transform="translate(-16.83 31.15) rotate(-6.76)" fill="#fff471"/><ellipse cx="255.31" cy="163.12" rx="1.97" ry="2.62" transform="translate(-17.42 31.18) rotate(-6.76)" fill="#fff471"/><ellipse cx="256.31" cy="172.12" rx="1.97" ry="2.62" transform="translate(-18.47 31.36) rotate(-6.76)" fill="#fff471"/><path d="m244,157.65s-.51,17.52,4.25,16.76,5.12-16.91,5.12-16.91l-9.36.15Z" fill="#e5916c"/><path d="m250.66,150.56c3.54,0,6.88,3.12,4.42,5.38,0,0-6.63-.35-6.63-.35-.21-2.14-.89-4.47,2.21-5.03Z" fill="#e5916c"/><path d="m249.75,155.05c8.69,1.55,7.24,6.88-.83,5.79-1.34-1.79-1.97-5.18.83-5.79Z" fill="#e5916c"/><path d="m250.01,159.97c3.22.81,6.11,1.25,5.41,5.51-3.39,1.54-10.8-2.38-5.41-5.51Z" fill="#e5916c"/><path d="m252.44,160.84c-.25,1-.55.86-.84.97-.29.09-.58.15-.88.16-.29.01-.59-.03-.89-.1-.3-.07-.59.01-.92-.89-.04-.1-.04-.2-.01-.29.26-.93.55-.87.84-.96.29-.09.58-.16.88-.17.29-.01.59.02.88.09.3.09.58-.08.92.9.03.1.04.2.01.29,0,0,.02-.09,0,0Z" fill="#7f3e28"/><path d="m252.24,155.94c-.36.96-.63.79-.93.87-.29.06-.58.08-.87.06-.29-.02-.57-.1-.85-.2-.28-.1-.57-.05-.79-.98-.02-.1-.01-.2.02-.29.35-.89.63-.8.93-.86.29-.06.58-.09.87-.07.29.02.57.08.85.19.28.12.58-.01.79.99.02.1.01.2-.02.29,0,0,.03-.09,0,0Z" fill="#7f3e28"/><path d="m283.1,55.4c1.18-.14,1.79.28,2.77.57.83.23,1.67.36,2.52.42.85.03,1.72.04,2.61-.07.9-.1,1.69-.44,2.93.04.11.04.16.15.12.26-1.06,2.03-3.78,2.12-5.81,2.18-1.85-.21-5.13-.94-5.36-3.2,0-.12.09-.21.21-.21h0Z" fill="#60301d"/><line x1="267.83" y1="141.44" x2="270.79" y2="139.49" fill="none" stroke="#586366" stroke-linecap="round" stroke-linejoin="round" stroke-width="2"/><path d="m267,137.5c14.43,7.48,29.72,15.88,43.41,19.87,3.05.89,12.11,2.87,15.66,2.13,3.55-.74,3.61-5.37,5.29-8.05-.75-4.29-1.72-6.38-6.67-8.48-10.1-4.28-38.67-11.83-49.69-14.48-4.79-1.15-12.44,3.41-8,9Z" fill="#e5916c"/><path d="m340.13,148.63c.74,6.11.23,11.58-3.22,13.62-9.2,5.44-22.15,3.15-22.15,3.15,0,0-39.14-15.78-39.43-19.92s6.11-17.69,6.11-17.69l47.56,11.7,11.13,9.13Z" fill="#6d94cc"/><path d="m287.14,134.87c.15,1.43-.16,2.62-.45,3.98-.43,2.36-1.05,5.66-1.61,7.96-.31,1.33-.46,2.68-1.57,3.89-.08.09-.24.07-.29-.04-.7-1.49-.41-2.84-.25-4.21.16-1.37.35-2.73.61-4.09.42-2.04.92-4.08,1.7-6.04.33-.67.89-1.45,1.66-1.67.13-.03.22.09.2.22h0Z" fill="#194a7c"/><path d="m331.09,164.62c-.69,1.3-1.97,2.1-3.34,2.45-2.19.71-4.55.79-6.79.58-1.8-.16-3.54-.57-5.23-1.09-1.68-.52-3.42-1.01-4.69-2.52-.08-.1-.02-.26.11-.27.96-.09,1.82,0,2.66.15,4.55,1.06,9.38,2.09,14,1.04,1.05-.3,1.98-.52,3.11-.58.13-.02.24.12.17.24h0Z" fill="#194a7c"/><path d="m276.43,132.35c.27-1.27.07-2.59-.57-3.72-.54-.96-1.17-2.14-1.56-3.05-.77-1.82-4.66-8.84-5.02-9.3s-3.04.62-2.98,1.53-.3,2.69-.3,2.69c0,0-2,1-6,0-3.75-.94-9,0-9,0,0,0-1.87,1.33-1,3,.87,1.67,3,2,3,2h-2s-1.07,3.29,0,4-1.08,4.18,1,6,8.95,6.17,13,6,10.11-2.91,10.11-2.91l1.32-6.24Z" fill="#e5916c"/><path d="m252.45,125.25c.96-.83,1.72-.53,2.52-.49.8.07,1.59.17,2.37.31.78.14,1.55.35,2.32.57.77.22,1.56.3,2.18,1.34.06.1.03.22-.05.29-.95.75-1.72.54-2.51.48-.8-.07-1.59-.16-2.37-.3-.78-.14-1.56-.33-2.32-.56-.76-.25-1.57-.24-2.18-1.35-.05-.1-.03-.22.05-.29,0,0-.08.07,0,0Z" fill="#7f3e28"/><path d="m252.07,130.37c1.11-.55,1.71-.08,2.42.16.7.26,1.39.56,2.06.89.67.33,1.31.72,1.94,1.12.63.4,1.33.68,1.59,1.83.02.11-.03.22-.13.26-1.08.48-1.71.09-2.41-.17-.7-.26-1.39-.55-2.06-.88-.67-.33-1.31-.71-1.94-1.11-.62-.43-1.36-.62-1.58-1.84-.02-.11.04-.22.13-.26,0,0-.09.05,0,0Z" fill="#7f3e28"/><path d="m253.73,136.65c.49-.9.75-.69,1.05-.73.3-.02.6,0,.88.06.28.06.56.18.83.32.27.14.57.13.66,1.09,0,.1-.01.2-.06.29-.48.83-.75.7-1.05.72-.3.01-.6,0-.88-.05-.28-.06-.56-.17-.83-.31-.26-.16-.58-.07-.66-1.1,0-.1.02-.2.06-.29,0,0-.05.08,0,0Z" fill="#7f3e28"/><path d="m312.15,135.9c1.18-.92,2.31-.7,3.45-.72,1.14,0,2.27.05,3.4.15,1.71.18,3.43.42,5.1.91.6.25,1.3.67,1.54,1.31.02.08-.02.15-.1.18-2.22.69-4.48.05-6.75,0-1.11-.1-2.23-.23-3.34-.39-1.11-.18-2.24-.1-3.31-1.15-.09-.08-.08-.22.02-.29h0Z" fill="#194a7c"/><path d="m249,166.5c3.02.16,7,4,7,7s-11.11-4.65-7-7Z" fill="#e5916c"/><polygon points="247.33 146.98 249.31 163.59 250.19 174.05 242.76 174.43 240 153.5 247.33 146.98" fill="#d8c541"/><path d="m247.86,139.37c.95-.54,1.25-.15,1.69.04.43.2.84.44,1.23.7.39.27.74.58,1.08.92.34.33.77.55.63,1.56-.01.11-.08.19-.17.24-.91.48-1.25.16-1.69-.05-.43-.21-.85-.43-1.23-.7-.39-.27-.75-.57-1.09-.91-.33-.35-.8-.49-.62-1.57.02-.1.08-.19.17-.24,0,0-.09.05,0,0Z" fill="#194a7c"/><path d="m253.79,169.3c-.84.62-1.03.3-1.37.19-.32-.13-.63-.29-.91-.48-.28-.19-.52-.44-.76-.69-.23-.26-.55-.4-.31-1.34.03-.1.09-.19.17-.24.8-.56,1.04-.31,1.36-.18.32.13.63.28.91.47.28.19.53.42.76.68.22.28.59.34.3,1.35-.03.1-.09.18-.17.24,0,0,.08-.06,0,0Z" fill="#7f3e28"/><path d="m194.5,225.46s-12.41-6.66-12.99-11.25,1.71-20.52,1.95-23.45-4.94-6.95-3.21-9.25,7.11-5.25,11.71-4.67c4.6.57,10.71,4.67,13.58,8.7s.97,31.49-2.86,34.56c-3.83,3.07-8.18,5.37-8.18,5.37Z" fill="#ffccc2"/><path d="m194.12,178.04c.9,2.11.74,4.9,2.79,6,.45.25.94.55,1.33.88,1.6,1.4,3.22,3.46,3.48,5.63-.84,3.25-1,6.75-2.86,9.64-.07.11-.26.08-.29-.05-.68-3.37.43-6.68.82-10.02,0,0,.04.59.04.59-.78-2-2.22-3.92-4.11-5.02-2.26-1.78-2.9-5.23-1.49-7.69.07-.12.26-.09.29.04h0Z" fill="#aa5353"/><path d="m188.54,177.1c1.3,2.36,1.96,4.58,3.4,6.82,1.36,2.46,2.85,4.9,3.66,7.61-.11,1.51-.07,5.04-.39,6.48-.13.72-.32,1.44-.66,2.16-.04.08-.13.12-.22.08-1.28-2.34-.86-6.15-1.06-8.73,0,0,.09.45.09.45-.92-2-2.42-4.93-3.44-6.94-1.12-2.39-2.79-5.22-1.69-7.94.06-.12.25-.12.29.02h0Z" fill="#aa5353"/><path d="m187.51,198.32c-.99-1.74-.83-3.48-.94-5.22-.18-2.7-.27-5.67-1.87-7.85-1.72-1.51-3.45-3.31-3.42-5.78,0-.13.16-.21.26-.13,1.65,1.14,2.58,2.69,4.13,3.82,1.53,1,2.27,2.84,2.66,4.48.42,1.82.53,3.68.41,5.46-.1,1.74.05,3.48-.94,5.22-.06.11-.23.11-.29,0h0Z" fill="#aa5353"/><path d="m132.61,139.37s13.45,1.53,17.97,12.62c9.05,22.18-1.91,38.23-29.06,55.82-22.74,14.74-14.91,14.78-25.62,14.78-2.29,0-11.09-.64-7.65-10.96,3.44-10.32,15.68-19.12,15.68-19.12,0,0,20.65-18.35,23.71-32.88,3.06-14.53.38-16.44,4.97-20.26Z" fill="#ea982d"/><path d="m61.19,202.27c-6.94,8.05-33.79,20.21-32.46,34.2,2,20.98,19.54,21.06,22.86,19.64,3.36-1.44,39.53-30.41,44.97-39.41,5.17-8.56-1.64-21.58-21.22-18.08-1.93.35-12.94,2.25-14.15,3.65Z" fill="#ffccc2"/><path d="m86.89,189.41c6.23.49,36.4-4.03,37.07,3.01,1.32,13.78-44.57,51.58-44.57,51.58,0,0-29.71-37.98-28.76-39.01,9.69-10.51,24.7-16.51,36.26-15.59Z" fill="#ba6dcc"/><path d="m165.06,287.28s11.15-2.23,18.58,14.87c7.43,17.1,16.35,69.13,4.46,74.33-11.89,5.2-32.71,7.43-32.71,2.23s4.46-91.43,4.46-91.43h5.2Z" fill="#aa653f"/><line x1="169.15" y1="286.91" x2="169.15" y2="381.31" fill="none" stroke="#513827" stroke-linecap="round" stroke-linejoin="round" stroke-width="2"/><path d="m187.36,312.93s-9.29,0-10.41.37c-1.11.37-2.97,3.72-.37,4.46,2.6.74,12.64.37,12.64.37" fill="none" stroke="#513827" stroke-linecap="round" stroke-linejoin="round" stroke-width="2"/><path d="m178.54,344.52c-.7-4.46,1.39-57.98,1.39-57.98,0,0-.7-10.41-9.74-13.38-9.04-2.97-94.62,2.97-98.8,5.2-4.17,2.23-11.13,81.02-11.13,81.02l107.84,5.2,10.44-20.07Z" fill="#001415"/><path d="m35.51,524.4c-19.7-1.17-37.16-13.81-49.15-35.6-11.07-20.11-16.28-46.07-14.68-73.08,1.6-27.01,9.84-52.17,23.21-70.84,14.48-20.22,33.3-30.72,53.01-29.55,19.7,1.17,37.16,13.81,49.15,35.6,11.07,20.12,16.28,46.07,14.68,73.08-1.6,27.01-9.84,52.17-23.21,70.84-13.75,19.21-31.42,29.64-50.04,29.64-.99,0-1.97-.03-2.96-.09Zm-22.28-166.39c-10.92,15.25-17.68,36.22-19.03,59.04h0c-2.63,44.46,16.9,83.31,42.64,84.83,25.76,1.5,49.73-34.75,52.36-79.2,1.35-22.82-2.88-44.44-11.93-60.87-8.12-14.76-19.03-23.27-30.72-23.96-.52-.03-1.03-.05-1.55-.05-11.18,0-22.41,7.12-31.78,20.21Z" fill="#0c3a3a"/><path d="m165.06,308.09s-91.43-16.35-106.29-3.72c-27.08,23.01-8.92,57.98-8.92,57.98,0,0,105.97,10.64,113.07-15.26,7.1-25.89,2.14-39,2.14-39Z" fill="#0079a5"/><path d="m167.66,317.15c.51-11.49-6.33-49.07-5.95-49.8,10.41-19.7,22.35-52.8.87-68.14-14.23-10.16-59.6-12.75-71.48-3.96-9.9,7.33-28.83,18.85-30.16,33.77-1.36,15.27,8.36,36.1,8.36,36.1,0,0-9.88,38.65-7.19,41.62,8.3,9.14,105.55,10.41,105.55,10.41Z" fill="#ba6dcc"/><path d="m176.04,312.28s-21.69-.76-32.53,4.73c-18.01,9.13-29.73,60.21-29.73,60.21,0,0,62.87-1.24,62.81-.25-.25,4.02-.55-64.69-.55-64.69Z" fill="#0e3535"/><path d="m184.9,214.88c5.52,9.16,28.48,37.8,28.94,57.04.29,11.7-15.14,17.29-18.73,16.74-8.81-1.36-43.89-55.6-47.76-65.45-3.69-9.37,5.29-21.14,24.13-14.34,1.86.67,12.46,4.42,13.43,6.02Z" fill="#ffccc2"/><path d="m154.45,195.13c-10.38.01-8.75,3.71-10.52,17.44-1.77,13.73,18.65,40.84,18.65,40.84,0,0,35.73-22.47,35.77-23.87.17-5.84-24.32-34.43-43.9-34.41Z" fill="#ba6dcc"/><path d="m176.4,316.52c-.61,0-26.07-4.46-39.23,12.88,0,0-10.48,9.42-19.25,45.59" fill="none" stroke="#001415" stroke-linecap="round" stroke-linejoin="round" stroke-width="2"/><path d="m122.32,304.9c-3.15.85-6.2.1-9.19-.34-6.01-1-11.93-2.39-17.78-4.12-2.89-.9-5.94-1.61-8.41-3.74-.11-.09-.02-.29.12-.26,8.91,1.61,17.59,4.2,26.47,5.99,2.63.55,6.27,1.2,8.79,2.17.14.03.15.26,0,.29h0Z" fill="#795493"/><path d="m84.29,319.49c-3.47-1.73-30.72-14.8-53.02-14.37-14.9.29-26.02,9.13-27.5,15.61-1.49,6.48-1.17,118.43,1.24,124.63,1.98,5.09,32.71,5.32,36.67,4.46,2.93-.64,5.57-70.79,9.91-111.49,1.52-14.32,34.14-18.12,32.71-18.83Z" fill="#0079a5"/><path d="m185.03,529.85c-19.74-.17-37.81-11.92-50.88-33.08-12.07-19.53-18.58-45.19-18.34-72.25.24-27.06,7.2-52.6,19.61-71.91,13.44-20.93,31.73-32.32,51.45-32.18,19.74.17,37.81,11.92,50.88,33.08,12.07,19.53,18.58,45.19,18.34,72.25s-7.2,52.6-19.61,71.91c-13.34,20.77-31.44,32.18-51.01,32.18-.15,0-.3,0-.44,0Zm-30.63-165.05c-10.14,15.78-15.83,37.06-16.03,59.92-.2,22.86,5.12,44.24,14.98,60.19,8.85,14.33,20.18,22.28,31.89,22.38.08,0,.15,0,.23,0,11.63,0,23-7.74,32.04-21.82,10.14-15.78,15.83-37.06,16.03-59.92.2-22.86-5.12-44.24-14.98-60.19-8.85-14.33-20.18-22.28-31.89-22.38-.08,0-.15,0-.23,0-11.63,0-23,7.74-32.04,21.82Z" fill="#001415"/><path d="m126.66,319c-3.47-1.73-34.44-19.51-56.74-19.08-14.9.29-25.52,17.55-27.01,24.03s-3.4,119.18-.99,125.37c1.98,5.09,34.69,8.3,38.65,7.43,2.93-.64,9.04-78.23,13.38-118.93,1.52-14.32,34.14-18.12,32.71-18.83Z" fill="#0079a5"/><path d="m47.01,313.12c-1.53,5.04-3.39,9.8-3.01,15.1-.01,15.89-.21,31.78-.46,47.67-.49,18.65-.37,45.16-1.96,63.52,0,.17-.29.17-.29,0-1.02-18.3-.14-44.96-.11-63.55.14-10.53.5-37.47.65-47.64-.22-5.45,1.4-11.04,4.94-15.24.1-.12.31,0,.25.15h0Z" fill="#093451"/><path d="m131.54,194.73c1.77-1.46-5.35-29.06-5.35-29.06l-22.18,2.55,1.66,28.95s8.13,12.2,25.87-2.44Z" fill="#ffccc2"/><path d="m137.63,160.98c.22-.34,6.56-13.48,4.57-23.04-1.98-9.55-11.51-17.22-24.65-18.97-13.14-1.75-26.36,1.13-30.94,10.65-4.58,9.52-1.91,23.29-1.91,23.29,0,0,49.96,12.54,52.92,8.07Z" fill="#ea982d"/><path d="m83.95,155.51c-2.6,18.24,6.39,30.27,17.68,32.27,10.89,1.93,30.42-3.54,33.02-21.78,2.6-18.24,7.85-37.28-18.95-40.84-26.87-3.57-29.15,12.12-31.75,30.35Z" fill="#ffccc2"/><path d="m135.42,149.76c-.15.35-1.61,9.32.99,10.05,2.6.73,9.39-6.44,5.57-18.3-3.82-11.86-6.57,8.25-6.57,8.25Z" fill="#ea982d"/><path d="m118.21,123.01c.94.22-7.95,19.59-8.43,20.3-.49.7-3.33.2-3.51-3.95s-2.61,5.42-14.31,3.75c-7.32-1.04-6.49,1.81-6.4,1.18s-.65-17.05,6.99-20.12c11.61-4.65,16.08-3.43,25.66-1.16Z" fill="#ea982d"/><path d="m115.08,126.4s.16,13.28-1.39,16.02,4.96,1.35,5.7-.22c.74-1.57,12.98,19.88,21.59,10.42,4.89-5.37-2.68-22.45-9.12-25.17-6.43-2.72-11.86-3.49-12.24-3.55s-4.54,2.49-4.54,2.49Z" fill="#ea982d"/><path d="m93.67,167.89c-.29,2.03,4.03,6.43,7.01,6.85s9.63-1.63,9.92-3.66c.29-2.03-5.85-1.74-8.83-2.16-2.98-.43-7.8-3.06-8.09-1.03Z" fill="#dd8276"/><path d="m112.37,170.82c-1.47,1.47-3.38,1.75-5.24,2.05-3.77.58-7.89,0-11.15-2.1-1.65-1.01-3.2-2.31-3.76-4.26-.04-.13.1-.25.22-.19,1.8.65,2.99,1.76,4.6,2.59,3.03,1.57,6.45,2,9.85,1.81,1.75-.08,3.38-.62,5.38-.18.13.02.18.19.08.28h0Z" fill="#512b2b"/><path d="m120.47,158.68c-.28,1.39-1.6,1.62-2.71,1.76-2.14.2-4.27.02-6.08-1.31-.79-.58-1.6-1.49-1.39-2.56.04-.22.07-.14.24-.1.13.01.2-.09.2-.1-.01-.07-.13,0-.18,0-.16.01-.22-.14-.18-.3.06-.18.36-.18.5-.04.34.22.81.46,1.12.68,1.5,1.31,3.75,1.4,5.67,1.59.99-.02,1.64-.09,2.7.21.08.02.14.1.12.18h0Z" fill="#001415"/><path d="m89.6,154.12c1.08.17,1.56.44,2.49.77,1.89.44,4.14.93,5.91-.07.36-.16.88-.3,1.27-.42.14-.08.41-.08.48.12.03.23-.14.36-.33.22-.19-.08,0,.2.16.15.08-.02.06,0,.09,0-.03,2.38-3.45,3.09-5.3,2.87-1.77-.28-5.48-1.09-5.05-3.54.04-.13.17-.14.28-.1h0Z" fill="#001415"/><path d="m122.84,152.75c-1.01.35-1.61.45-2.08.35-1.24-.43-2.47-.85-3.74-1.14-1.27-.37-2.61-.56-3.92-.85-.48-.17-1.02-.57-1.67-1.38-.13-.16-.16-.38-.09-.56.37-.94.89-1.5,1.45-1.76,2.9-.92,6.25-.36,8.75,1.39,1.25.87,2.22,1.62,1.73,3.54-.05.22-.23.35-.43.4h0Z" fill="#aa751f"/><path d="m102.35,147.93c-1.21.79-1.62.97-2.61.77-1.06-.16-2.18-.25-3.21-.32-1.27-.17-2.54-.13-3.82-.19-.48-.1-1.06-.38-1.86-1.04-.16-.13-.23-.33-.2-.52.24-1.8,1.28-2.32,2.7-2.68,1.15-.33,2.36-.49,3.55-.39,1.19.09,2.34.4,3.41.86,1.36.61,2.35,1.06,2.34,3,0,.22-.13.4-.3.5h0Z" fill="#aa751f"/><path d="m111.68,164.83l8.46,1.21c1.75.25,3.43-.65,4.07-2.18l2.69-6.41c.9-2.15-.6-4.57-3.06-4.92l-11.26-1.61c-2.32-.33-4.37,1.34-4.33,3.54l.11,6.81c.03,1.78,1.44,3.29,3.32,3.56Z" fill="none" stroke="#151338" stroke-linecap="round" stroke-linejoin="round" stroke-width="4"/><path d="m94.6,162.39l-8.46-1.21c-1.75-.25-3.11-1.58-3.3-3.23l-.79-6.9c-.27-2.32,1.85-4.22,4.31-3.87l11.26,1.61c2.32.33,3.82,2.51,3.17,4.61l-2.01,6.5c-.52,1.7-2.3,2.76-4.18,2.49Z" fill="none" stroke="#151338" stroke-linecap="round" stroke-linejoin="round" stroke-width="4"/><path d="m103.4,157.45c-.12,1.28-.76,1.67-1.2,2.33-1.02,1.43-1.38,3.13-.51,4.64.13.3.27.72.48,1.27.03.09,0,.19-.1.23-2.51.84-3.6-2.97-3.12-4.83.28-1.11.9-2,1.59-2.7.7-.67,1.36-1.47,2.69-1.18.11.02.18.14.16.25h0Z" fill="#aa5353"/><path d="m107.71,155.38s-2.56-1.91-6.06-.86" fill="none" stroke="#151338" stroke-linecap="round" stroke-linejoin="round" stroke-width="4"/><line x1="137.18" y1="158.06" x2="127.73" y2="155.92" fill="none" stroke="#151338" stroke-linecap="round" stroke-linejoin="round" stroke-width="4"/><path d="m134.75,163.08c.91-2.97,2.97-6.38,4.92-7.1,1.94-.71,3.92.26,5.04,2.49.66,1.31.55,3.39.33,5.23-.25,2.07-1.21,3.95-2.31,5.3-1.93,2.36-7.45,3.99-9.37,2.63-1.92-1.36.31-4.45,1.23-7.96" fill="#ffccc2"/><path d="m136.08,162.01c-.08-.53-.08-.76,0-.96.75-.99,1.68-1.84,3.15-1.7.79.09,1.52.64,1.09,1.53-.04.09-.11.15-.2.18-.45.15-.73.26-.83.33-.4.34-.94.63-1.52.92-.52.3-.88.47-1.56-.04-.08-.07-.13-.16-.14-.26h0Z" fill="#aa5353"/><path d="m221.52,276.39c.01-1.94-2.69-11.67-3.37-13.49-3.17-8.39-11.56-32.67-14.91-46.08-1.36-5.42-16.94-3.39-17.62,2.71-1.04,9.33-3.62,62.97,11.52,72.51,18.3,11.52,24.33-7.38,24.38-15.65Z" fill="#ffccc2"/><path d="m129.3,215.58c1.01.14,10.5-1.13,13.09-4.91,2.59-3.78,6.77-11.08,7.72-11.72,3.99-2.69,6.09-5.06,6.44-7.6s-4.37-4.25-7.97-.61c-3.61,3.64-9.24,6.77-9.75,6.7s-9.47,4.9-9.75,6.93.22,11.22.22,11.22Z" fill="#ffccc2"/><path d="m245.09,202.74c-.17,0-.35-.01-.52-.05l-162.63-28.46c-1.64-.29-2.74-1.85-2.46-3.5.29-1.64,1.85-2.74,3.5-2.46l162.63,28.46c1.64.29,2.74,1.85,2.46,3.5-.26,1.47-1.53,2.5-2.97,2.5Z" fill="#8d8e8d"/><ellipse cx="245.35" cy="199.72" rx="2.78" ry="3.06" fill="#2e3333"/><path d="m122.9,181.87c-1.19-.14-1.3-.92-1.56-1.57-.53-1.41-.37-3.21.66-4.4.47-.62,1.14-1.19,2.16-.78.09.04.15.13.15.22-.03.74-.08,1.02-.37,1.45-.53.94-.54,1.93-.48,3.02.03.55.32.95-.3,1.9-.05.1-.15.16-.26.14h0Z" fill="#606060"/><path d="m94.65,171.94s-2.71,0-3.39-.68,3.39-4.74,8.81-3.39c5.42,1.36,6.78,4.74,6.1,5.42s-11.52-1.36-11.52-1.36Z" fill="#8d8e8d"/><path d="m238.98,196.9c-.97-.15-1.41-.29-1.61-.44-.53-.63-.68-1.46-.26-2.19.1-.15.09-.29.31-.44.14-.14,1.47-.55,2.15-.44.89.15,1.34.29,1.56.44.56.59.73,1.45.33,2.19-.1.15-.11.29-.28.44-.09.13-1.5.54-2.19.44h0Z" fill="#a8adab"/><path d="m239.64,194.79c-1.93,1.05-3.7.66-5.68.44-3.67-.38-7.3-.97-10.89-1.83-1.79-.46-3.63-.59-5.29-1.83l.57-.14c-1,.69-2.88,1.93-3.84,2.66l-.25.2c-.07.04-.17.19-.16.12-.02.28-.48.24-.44-.05.08-.28.15-.3.22-.42,1.07-1.33,2.34-2.49,3.58-3.65,2.1-.75,4.16-.35,6.16-.12,4.58.49,9.12,1.36,13.57,2.55.88.32,1.73.77,2.52,1.64.12.13.09.35-.07.43h0Z" fill="#a8adab"/><ellipse cx="158.94" cy="180.63" rx="1.16" ry="2.57" transform="translate(-46.21 306.34) rotate(-80.15)" fill="#8d8e8d"/><ellipse cx="166.95" cy="182.42" rx="1.38" ry="2.57" transform="translate(-41.33 315.71) rotate(-80.15)" fill="#8d8e8d"/><ellipse cx="174.51" cy="183.37" rx="1.38" ry="2.57" transform="translate(-36 323.95) rotate(-80.15)" fill="#8d8e8d"/><ellipse cx="181.6" cy="184.66" rx="1.16" ry="2.57" transform="translate(-31.4 332.01) rotate(-80.15)" fill="#8d8e8d"/><ellipse cx="162.09" cy="188.67" rx="1.61" ry="2.36" transform="translate(-51.52 316.1) rotate(-80.15)" fill="#8d8e8d"/><ellipse cx="166.62" cy="188.67" rx="1.61" ry="2.36" transform="translate(-47.76 320.57) rotate(-80.15)" fill="#8d8e8d"/><ellipse cx="191.13" cy="186.41" rx="1.38" ry="2.57" transform="translate(-25.23 342.85) rotate(-80.15)" fill="#8d8e8d"/><ellipse cx="199.18" cy="187.95" rx="1.38" ry="2.57" transform="translate(-20.06 352.05) rotate(-80.15)" fill="#8d8e8d"/><ellipse cx="207.24" cy="189.48" rx="1.38" ry="2.57" transform="translate(-14.89 361.25) rotate(-80.15)" fill="#8d8e8d"/><ellipse cx="213.28" cy="190.48" rx="1.38" ry="2.57" transform="translate(-10.86 368.04) rotate(-80.15)" fill="#8d8e8d"/><path d="m221.37,194.49c-.08-1.08.39-1.15.73-1.45.72-.57,1.52-.96,2.42-1.2.47-.08.82-.47,1.76.41.07.04.09.13.05.2-.04.07-.13.09-.2.05.06.94-.37,1.04-.71,1.28-.7.52-1.47.92-2.31,1.17-.43.11-.74.45-1.6-.21-.08-.06-.13-.16-.14-.26h0Z" fill="#a8adab"/><path d="m233.79,195.7c-1.06-.6-.39-1.52.08-2.16.6-.53,1.38-1.21,2.12-.31.21.3.2,1.01.19,1.11-.22.49-.55.93-1,1.24-.35.32-.38.14-1.1.17-.09,0-.21,0-.29-.05h0Z" fill="#a8adab"/><ellipse cx="222.21" cy="195.28" rx="2.23" ry="2.57" transform="translate(-8.19 380.82) rotate(-80.15)" fill="#a8adab"/><ellipse cx="232.28" cy="197.29" rx="2.23" ry="2.57" transform="translate(-1.83 392.41) rotate(-80.15)" fill="#a8adab"/><path d="m92.26,169.84c1.4-.75,2.6-.37,3.84-.25,1.24.14,2.47.32,3.7.55,1.22.22,2.44.5,3.65.8,1.21.3,2.45.46,3.51,1.58.08.09.06.24-.05.29-1.39.68-2.6.39-3.84.24-1.24-.15-2.47-.31-3.7-.54-1.22-.22-2.44-.49-3.65-.79-1.21-.32-2.46-.39-3.51-1.59-.08-.09-.05-.23.05-.29h0Z" fill="#606060"/><path d="m132.91,195.68c-.91-1.49-74.41,24.44-92.8,29.59-9.5,2.66-14.13,23.67,3.56,32.59,17.69,8.92,89.88-42.09,90.27-43.96s-.58-17.47-1.03-18.22Z" fill="#ffccc2"/><path d="m125.84,209.3s-7-5.78-5.46-9.37,9.2-23.3,18.39-25.14c2.34-.47,7.78.95,11.65,2.45,2.83,1.09,6.45,1.7,6.67,2.35.51,1.54-1.54,3.59-4.1,4.61s-4.1,2.05-4.1,2.05c0,0-.31,2.64-6.44,5.71-3.29,1.64,3.42,7.81,1.84,9.2-4.1,3.59-18.45,10.19-18.45,8.14Z" fill="#ffccc2"/><path d="m133.17,190c3.13-3.03,6.93-5.09,11-6.62,1.3-.46,2.71-.88,4.15-.97.57-.04,1.38.03,1.93.51,1.69,1.71-.17,4-1.21,5.43-.88,1.01-1.53,1.98-2.8,2.59,0,0,.36-.2.36-.2-3.32,2.7-6.89,5.34-9.88,8.35-.44.44-.56.95-.72,1.62-.59,2.98-.5,6.25-2,9.07-.07.14-.31.07-.28-.09.52-3.7-.54-7.49.85-11.1,1.5-2.28,3.79-3.97,5.73-5.77,1.72-1.39,3.32-2.95,5.16-4.17-.18.08-.05.02,0-.02.26-.19.51-.43.75-.67.92-.9,2.18-2.57,2.41-3.49.03.14.24.26.19.21-1.11-.15-2.76.32-3.96.7-3.93,1.33-7.57,3.42-11.53,4.86-.14.06-.28-.14-.16-.25h0Z" fill="#aa5353"/><path d="m132.16,185.28s.02.06.04-.01c-.02-.16-.16-.12,0-.24.7-.59,1.44-1.12,2.24-1.57,4.76-2.38,9.75-4.48,15.12-5.04,2.17-.22,4.58-.29,6.42,1.13.07.05.08.15.03.22-2.11.51-4.07.38-6.16.77-4.01.73-7.88,2.13-11.72,3.55-1.95.66-3.95,1.85-6.09,1.5-.19-.06-.3-.29-.14-.45.09-.17.35-.04.26.13h0Z" fill="#aa5353"/><path d="m143.65,179.84c-.36.46-.65.61-.93.65-.79,0-1.58-.05-2.34-.23l1.31-.64c-.59.86-.88,1.99-2.17,1.98-.11,0-.2-.05-.26-.13-.46-.65-.43-1.04-.2-1.63.26-.85.62-2.15,1.75-1.94.79.13,1.55.39,2.3.7.19.09.78.78.55,1.25h0Z" fill="#aa5353"/><path d="m110.6,202.3c3.38-2.68,7.69-3.24,11.23-5.48,1.31-3.41,3.04-7.97,4.41-11.31.71-1.14,1.67-2.12,2.77-3.02.83-.27-.91,3.5-1.08,3.82,0,0,.09-.18.09-.18-1.21,3.92-2.51,8.09-4.11,11.87-.25.43-.46.56-.62.69-1.1.75-2.01,1.07-3.15,1.54-3.11,1.05-6.02,2.48-9.44,2.33-.14,0-.2-.19-.09-.28h0Z" fill="#aa5353"/><path d="m193.79,211.83s-3.41-4.02-3.68-6.75c-.61-6.14-7.91-6.68-10.44-9.21-1.84-1.84-3.07-4.3-6.75-5.53-3.28-1.09-5.06.63-4.91,1.23.61,2.46,4.91,5.53,6.14,8.6,1.23,3.07,4.07,21.31,15.54,20.04,5.38-.59,4.1-8.38,4.1-8.38Z" fill="#ffccc2"/><path d="m184.42,239.85c1.1,2.44,1.07,4.93,1.31,7.41.22,2.48.37,4.97.54,7.45.07,4.41.91,10.62.18,14.95-.02.13-.21.17-.28.05-1.36-2.38-1.4-4.92-1.69-7.39-.27-2.49-.44-4.98-.62-7.46-.12-2.49-.25-4.98-.29-7.48-.03-2.49-.31-4.98.56-7.51.04-.13.24-.14.29-.01h0Z" fill="#aa5353"/><path d="m182.88,197.9c1.05-.54,1.55-.08,2.18.16.62.26,1.22.54,1.8.87.58.33,1.13.7,1.67,1.09.54.39,1.15.66,1.25,1.76,0,.11-.05.21-.15.25-1.05.46-1.59.08-2.2-.17-.61-.26-1.21-.53-1.78-.85-.57-.32-1.12-.68-1.65-1.07-.52-.41-1.16-.59-1.26-1.78-.01-.11.05-.21.14-.26h0Z" fill="#aa5353"/><path d="m190.12,217.19c-1.04-.88-.89-1.85-.97-2.8-.13-2.15.25-7.83,3.17-7.86.12,0,.19.12.18.24-.09,1.8-.78,3.24-.87,5.05,0,0-.31,2.63-.31,2.63-.12.9.04,1.78-.9,2.73-.08.08-.2.08-.29.01h0Z" fill="#aa5353"/><path d="m441.86,215.94s34.17,30.08,54.17,33.12c17.17,2.61,24.56-3.96,14.6-23.94-11.86-12.8-20.35-28.2-37.75-34.25l-31.02,25.07Z" fill="#fab7a4"/><path d="m490.32,198.85l-23.05,43.33-54.39-57.16s29.5-31.34,77.44,13.83Z" fill="#203333"/><path d="m500.33,158.43s28.91,52.2,14.89,83.74c-7.38,16.59-25.12-10.42-30.42-24.89-5.31-14.47.21-51.16.21-51.16l15.32-7.69Z" fill="#fab7a4"/><path d="m498.4,158.82s1.63-7.26,0-12.66c-1.63-5.4-6.12-12.15-6.12-12.15l-20.67,10.75s-9.39,1.23-10.79,2.59c-5.53,5.4,29.03,19.92,29.03,19.92l8.55-8.44Z" fill="#fab7a4"/><path d="m475.86,131.8s.21,7.01,1.24,7.63,7.84-1.24,7.84-1.24l-3.92-7.42-5.16,1.03Z" fill="#fab7a4"/><path d="m467.62,132.21l5.57,8.45,7.92.1s-7.1-9.58-8.75-10-4.74,1.44-4.74,1.44Z" fill="#fab7a4"/><path d="m458.95,133.24c.4,1.4,7.2,2.45,10-.1,4.74-4.33-.31-4.74-.31-4.74,0,0-10.52,1.96-9.69,4.85Z" fill="#fab7a4"/><path d="m464.73,132.83c-1.53-1.02.41-3.3.41-3.3,0,0,6.6-3.09,8.25-3.51s7.42,1.24,7.42,1.24l-6.6,5.16s-8.25,1.24-9.49.41Z" fill="#fab7a4"/><path d="m471.33,129.12c-1.12.93-1.03,3.3,2.89,3.3s5.16-.62,5.16-.62l4.5,5.28,1.84-5.53s-3.04-4.08-4.9-4.28-8.25.82-9.49,1.86Z" fill="#fab7a4"/><path d="m486.59,136.54s-3.51-.82-2.89-2.89,1.24-4.12,2.89-3.51,7.42,5.36,7.42,5.36l-7.42,1.03Z" fill="#fab7a4"/><path d="m481.53,127.37c-1.08.32-12.94,1.77-9.33,3.71,1.94.64,4.08.54,6.21.58.24,0,.46.13.58.32.81,1.34,1.56,2.7,2.12,4.17-1.26-.95-2.35-2.05-3.41-3.2,0,0,.69.32.69.32-2.3.21-4.64.42-6.9-.32-.49-.19-1.1-.46-1.55-1.16-2.74-5.63,8.57-5.17,11.6-4.43h0Z" fill="#a33b39"/><path d="m472.77,126.23c-1.24.65-11.15,4.84-6.9,6.07,2.45.02,5.33-.78,7.9-.66.27-.02.53.1.69.3,1.44,1.86,2.89,3.73,3.83,5.92.29.69.54,1.45,1.08,1.99-.72-.36-1.2-1.05-1.66-1.67-1.35-1.82-3.02-3.42-4.56-5.07,0,0,.69.3.69.3-2.84.11-5.32,1.11-8.28.87-1.29-.21-2.48-1.15-2.63-2.63.1-3.71,6.96-5,9.85-5.41h0Z" fill="#a33b39"/><path d="m347.62,302.13s2.43,84.13,3.56,112.84c2.13,54.17,4.2,101.61,4.2,101.61,0,0,26.81,7.27,60.08-6.37l5.59-88.21,9.03-102.33-13.1-30.55-69.36,13.02Z" fill="#869da5"/><path d="m491.59,284.71l29.34,197.72s-20.93,15.32-56.46,15.98l-44.72-174.57,2.37-33.57,69.48-5.57Z" fill="#869da5"/><path d="m419.42,318.04c2.28,3.31,3.57,7.01,5.05,10.63,1.47,3.62,2.89,7.27,4.31,10.91l-2.32.32c.47-4.94.95-9.88,1.49-14.81.56-4.93.89-9.88,2.3-14.74.02-.08.11-.12.19-.1.79,4.94-.06,10.09-.34,15.04-.37,4.95-.81,9.89-1.25,14.84-.09,1.25-1.9,1.49-2.32.32-1.37-3.66-2.75-7.32-4.06-11-1.31-3.68-2.81-7.3-3.32-11.29-.02-.15.19-.24.27-.1h0Z" fill="#426377"/><path d="m354.57,343.36c.25-2.14,1.44-3.65,2.43-5.3,1-1.64,2.03-3.26,3.1-4.85,1.07-1.59,2.18-3.16,3.31-4.71,1.13-1.55,2.14-3.18,3.97-4.27.11-.07.27.03.24.16-.31,2.1-1.43,3.66-2.43,5.3-1,1.64-2.02,3.26-3.09,4.86-1.07,1.59-2.17,3.16-3.31,4.71-1.15,1.54-2.09,3.22-3.98,4.26-.11.07-.26-.03-.24-.16h0Z" fill="#426377"/><path d="m478.81,308.84c2.13.4,3.57,1.7,5.17,2.8,1.58,1.12,3.14,2.26,4.67,3.44,1.53,1.18,3.03,2.4,4.51,3.64,1.48,1.24,3.06,2.37,4.03,4.27.06.12-.05.27-.18.23-2.09-.45-3.58-1.69-5.16-2.8-1.58-1.12-3.15-2.25-4.68-3.43-1.53-1.18-3.04-2.39-4.52-3.64-1.47-1.26-3.1-2.32-4.02-4.28-.06-.12.05-.26.18-.23h0Z" fill="#426377"/><path d="m428.95,143.34c-.32-3.14.3-7.23,1.9-8.81,1.6-1.59,3.91-1.66,5.9-.18,1.17.87,1.91,2.81,2.44,4.59.59,2,.42,4.17-.1,5.92-.92,3.07-5.61,7.22-8.02,6.91s-1.5-4.18-2.03-7.81" fill="#fab7a4"/><path d="m435.72,136.57c.17,1.13-.31,1.4-.62,1.9-.31.48-.61.94-.88,1.4-.77,1.04-.64,2.03-1.69,2.95-.08.07-.18.08-.27.04-1.62-.83-.72-3.02-.12-4.22.36-.62.83-1.15,1.34-1.61.52-.43.93-1.05,2.07-.7.11.03.17.13.18.23h0Z" fill="#a33b39"/><path d="m374.1,192.28c18.89-11.03,34.95-11.78,53.43-10.57s32.45,39.09,32.45,39.09c17.47,15.57,30.47,60.77,38.43,89.26-45.59,10.21-98.34,15.2-152.38,17.28-3.33-31.08,1.91-73.7,9.67-90.88,0,0-.48-33.14,18.41-44.17Z" fill="#203333"/><path d="m374.6,246.7s48.3,25.61,71.44,23.65c19.86-1.68,25.69-11.36,7.66-31.88-17.6-11.64-32.39-27.23-53.72-29.48l-25.38,37.71Z" fill="#fab7a4"/><path d="m379.69,265.22l38.72-50.7-21.2-31.34s-31.34.92-42.41,12.91c-11.81,12.8-18.32,37.17,24.89,69.14Z" fill="#203333"/><path d="m371.4,159.2c-5.26-5.46-8.33-16.32-8.3-24.89.03-9.35,5.32-5.68,7.38,0,.42-4.4,1.84-19.36,8.34-26.47,4.8-5.25,13.31-12.46,15.6-9.3.55.76-.72,4.77-.78,5.94-.08,1.66-.08,3.35-.22,5.01,6.76-5.65,9.82-15.84,18.18-19.62,4.34-1.96,5.28-.32,5.39,4.05.09,3.8-.73,7.13-1.4,10.83,1.57-3.37,4.95-13.1,8.71-8.32,1.34,1.7,2.61,3.85,2.84,6.48.2,2.31-1.07,4.02-1.18,4.54-.28,1.25-.72,2.17-.69,3.54,2.59-.86,3.87-4.36,5.52-.35,1.44,3.5-.44,9.72-2.03,12.89,2.1-.73,6.12-5.33,7.21-1.71.69,2.3-1.93,7.24-2.12,9.57.26-.14,2.27-1.29,2.53-1.43,3.73,1.77-.79,10.22-1.64,12.65l-63.34,16.57Z" fill="#5c3c2c"/><path d="m433.34,144.56c-4.31,12.33,1.3,16.3-.37,23.61-1.75,7.64-6.99,4.3-12.55,5.49-2.59.55-4.86,3.23-7.31,4.32-2.24,1-4.45,1.32-6.83,1.75-1.79.33-6.05,1.7-6.87.53-.07.32-.21.45-.16.8-4.59,1.21-7.11-.87-8.72-5.14-.04,2.95-4.93,6.82-7.73,4.4-1.96-1.69-3.49-10.47-3.74-13.03-.33-3.4-2.64-6.41-5.05-8.91l59.33-13.82Z" fill="#5c3c2c"/><path d="m393.16,173.27l2.93,19.41c11.44,4.26,22.2,1.67,32.44-5.97l-5.29-19.85-30.08,6.41Z" fill="#fab7a4"/><path d="m396.51,116.15c-20.96,4.15-24.87,21.77-21.18,34.19,3.69,12.42,5.52,31.8,37.55,25.46,32.03-6.34,22.53-29.23,21.2-35.95-4.08-16.45-16.62-27.85-37.58-23.7Z" fill="#fab7a4"/><path d="m378.92,157.83c-1.15-2.94-3.56-6.29-5.71-6.98s-4.24.31-5.33,2.53c-.64,1.31-.42,3.37-.08,5.19.38,2.05,1.52,3.9,2.79,5.23,2.22,2.31,8.29,3.87,10.29,2.5,2.01-1.37-.57-4.41-1.75-7.88" fill="#fab7a4"/><path d="m369.86,154.6c.85-.83,1.5-.47,2.16-.32,1.38.35,2.67,1.14,3.51,2.35.49.69.86,1.46.22,2.29-.06.08-.16.11-.26.09-.54-.14-.83-.31-1.06-.46-.91-.96-2.05-1.57-3.21-2.25-.5-.3-1.05-.32-1.42-1.4-.04-.1-.02-.22.05-.29h0Z" fill="#a33b39"/><path d="m412.66,141.36c1.09-3.09,6.45-1.42,7.22,1.36.9,2.52-1.15,6.27-3.86,6.64-.11.02-.22-.09-.2-.2.21-1.48,1.01-2.22,1.44-3.16.94-1.81.48-3.33-1.4-4.05-1.1-.3-1.74-.2-3.02-.36-.12,0-.22-.11-.19-.23h0Z" fill="#a33b39"/><path d="m373.85,132.17c4.45.28,10.26-2.37,13.55-5.39,1.16-1.06,3.71-4.15,1.68-5.3,4.87.53,11.22-.15,15.18-3.14,2.08-1.57,5.4-4.97,5.5-7.67-14.68,2.13-28.85,7.02-35.91,21.5Z" fill="#5c3c2c"/><path d="m372.58,145.16c.66,1.53,2.44,10.29,4.58,8.85s-.94-11.23-1.73-12.65c2.45,3.51,4.73,2.42,3.9-1.88-.42-2.16-1.48-6.24-2.85-7.85-3.09-3.64-3.2,1.44-3.63,4.97-.35,2.91-1.09,6.33-.52,9.16.24-.39.48-.2.94-.4" fill="#5c3c2c"/><path d="m426.71,125.09c2.09,1.62,3.16,4.91,3.69,7.38.63,2.94,2.23,5.67,3.69,8.3,4.25-1.8-2.04-15.17-7.38-15.67Z" fill="#5c3c2c"/><path d="m391.31,132.77s6.41-2.55,13.44,1.95" fill="none" stroke="#5c3c2c" stroke-linecap="round" stroke-linejoin="round" stroke-width="4"/><path d="m416.19,132.28s2.85-5.19,9.76-7.2" fill="none" stroke="#5c3c2c" stroke-linecap="round" stroke-linejoin="round" stroke-width="4"/><path d="m393.48,144.31c.77-1.29,1.99-1.44,3.13-1.72,2.32-.54,4.83-.46,7.09.37,1.19.42,2.38.94,2.82,2.29.03.1-.02.2-.12.24-.71.11-1.28.02-1.81-.07-2.48-.77-5.06-.89-7.65-.69-1.07.07-2.02.46-3.37-.14-.11-.05-.15-.18-.09-.28h0Z" fill="#001415"/><path d="m427.63,138.15c-.72.99-1.34.93-1.99,1.21-.63.26-1.23.55-1.79.88-1.41.65-1.98,1.98-3.39,2.44-.1.04-.22,0-.28-.1-.94-1.78,1.12-3.55,2.44-4.43.76-.45,1.6-.74,2.44-.89.83-.13,1.74-.41,2.56.58.07.09.07.21,0,.29h0Z" fill="#001415"/><path d="m409.05,160.09c-.94-3.6,7.07-4.6,9.47-4.56,1.19-.02,2.39-.15,3.58.76.08.06.1.18.04.26-1.12.96-2.3.95-3.44,1.12-3.28.53-6.42.88-9.36,2.49-.09.07-.24.04-.28-.07h0Z" fill="#431216"/><path d="m410.02,164.62c-.04-1.18.09-1.67-.15-2.66-.61-1.72-2.09-3.22-3.41-4.57-.73-.75-1.62-1.29-1.96-2.68-.03-.1.04-.2.14-.23,1.34-.13,2.26.54,3.22,1.28,2.34,1.72,4.93,4.62,3.98,7.83-.27.66-.85,1.22-1.64,1.26-.13,0-.2-.11-.18-.23h0Z" fill="#431216"/><path d="m449.11,203.06c5.08,3.44,8.21,8.94,11.25,14.12.97,1.78,1.87,3.56,2.7,5.46l-.31-.43c5.5,5.41,9.62,11.94,12.7,18.95.98,2.33,1.71,4.78,2.1,7.29l-.28.1c-4.72-8.72-9-17.88-16.34-24.75-2.33-5.45-5.34-10.7-8.78-15.53-1.09-1.64-2.23-3.23-3.26-4.99l.21-.2h0Z" fill="#596464"/><path d="m416.14,157.6c.57,2.27,2.67,3.97,4.92,3.21,3.69-1.24,2.46-7.37-1.13-7.94-3.59-.57-4.16,3.21-3.78,4.73Z" fill="#e8e8e8"/><path d="m437.53,165.81c-2.52-5.29-3.78-10.34,1.01-11.85,4.79-1.51,80.67-19.41,84.96-19.41s9.08-1.01,14.12,1.51c5.04,2.52-2.77-21.68-2.77-21.68,0,0-.76,4.54-7.56,7.56s-38.07,13.36-47.9,15.88c-9.83,2.52-39.07,10.34-43.11,12.35s-6.05,6.55-3.28,14.87" fill="#edd750"/><ellipse cx="546.82" cy="122.58" rx="13.49" ry="21.81" transform="translate(-13.54 128.72) rotate(-13.26)" fill="#edd750"/><path d="m551.5,131.58c-2.94.69-5.7-1.85-6.96-4.33-2.35-4.22-1.61-9.93,1.61-13.45-.56,1.76-.94,3.5-1.09,5.22-.39,4.69,1.4,11.09,6.45,12.56h0Z" fill="#b77a0d"/><path d="m478.84,131.14c-.19-.3-.48-.56-.83-.64-.12-.02-.85.01-1.07.14,0,0-2.6.43-2.83.65-.24.24-.42.64-.41.98.02.36.13.73.41.98.09.07.19.14.28.22.22.13.45.19.7.19.19.02.39.02.58.02,0,.02,0,.03,0,.05.5,1.58,1.02,5.37,1.02,5.37h.84c.39,0,1.71-.17,1.71-.17,0,0-.93-3.34-1.74-5.6.43-.11.41-.09.83-.29.3-.14.55-.52.64-.83.09-.33.05-.77-.14-1.07Z" fill="#edd750"/><path d="m472.59,132.67c-.19-.3-.48-.56-.83-.64-.12-.02-3.67.57-3.9.79-.24.24-.42.64-.41.98.02.36.13.73.41.98.09.07.19.14.28.22.22.13.45.19.7.19.19.02.39.02.58.02,0,.02,0,.03,0,.05.5,1.58,1.02,5.37,1.02,5.37h.84c.39,0,1.51-.79,1.51-.79l-1.41-5.01s.29-.07.7-.27c.3-.14.55-.52.64-.83.09-.33.05-.77-.14-1.07Z" fill="#edd750"/><path d="m466.62,134.08c-.19-.3-.48-.56-.83-.64-.12-.02-3.67.57-3.9.79-.24.24-.42.64-.41.98.02.36.13.73.41.98.09.07.19.14.28.22.22.13.45.19.7.19.19.02.39.02.58.02,0,.02,0,.03,0,.05.5,1.58,1.02,5.37,1.02,5.37h.84c.39,0,1.95-.35,1.95-.35,0,0-1.35-3.3-1.84-5.53.44-.11.28.02.69-.18.3-.14.55-.52.64-.83.09-.33.05-.77-.14-1.07Z" fill="#edd750"/><path d="m443.7,177.88c-1.82,0-3.61-.49-5.22-1.44-2.35-1.4-4.02-3.63-4.69-6.28l-2.13-8.38c-1.39-5.47,1.93-11.06,7.4-12.45l77.12-19.6c2.65-.67,5.41-.27,7.76,1.12,2.35,1.4,4.02,3.63,4.69,6.28l2.13,8.38c1.39,5.47,2.35,12.11-9.43,15.47l-75.09,16.58c-.84.21-1.69.32-2.54.32Zm75.02-43.42c-.43,0-.86.05-1.29.16l-77.12,19.6c-1.34.34-2.47,1.19-3.18,2.38-.71,1.19-.91,2.59-.57,3.93l2.13,8.38c.34,1.34,1.19,2.47,2.38,3.18,1.19.71,2.59.91,3.93.57l77.12-19.6c2.77-.71,4.46-3.54,3.75-6.31l-2.13-8.38c-.34-1.34-1.19-2.47-2.38-3.18-.81-.48-1.72-.73-2.64-.73Z" fill="#edd750"/><path d="m474.25,179.55c-2.71.66-3.73-.57-3.91-1.28l-7.36-30.13c-.17-.72.16-1.41.76-1.56l4.64-1.13c.59-.14,1.22.32,1.39,1.03l7.36,30.13c.17.72-.16,2.28-2.88,2.94Z" fill="#d8b919"/><path d="m480.49,178.12c-2.71.66-3.73-.57-3.91-1.28l-7.36-30.13c-.17-.72.16-1.41.76-1.56l4.64-1.13c.59-.14,1.22.32,1.39,1.03l7.36,30.13c.17.72-.16,2.28-2.88,2.94Z" fill="#d8b919"/><path d="m486.94,176.53c-2.71.66-3.73-.57-3.91-1.28l-7.36-30.13c-.17-.72.16-1.41.76-1.56l4.64-1.13c.59-.14,1.22.32,1.39,1.03l7.36,30.13c.17.72-.16,2.28-2.88,2.94Z" fill="#d8b919"/><path d="m526.96,153.91c-.92-3.3-5.4-5.1-10-4.01l-29.94,7.05,1.26,4.27,29.87-7.03c1.69-.4,3.3.1,3.58,1.12.28,1.02-.87,2.17-2.56,2.57l-52.67,12.4c-1.69.4-3.3-.1-3.58-1.12-.28-1.02.87-2.17,2.56-2.57l1.75-.41-1.26-4.27-1.68.4c-4.6,1.08-7.59,4.65-6.68,7.94.92,3.3,5.4,5.1,10,4.01l52.67-12.4c4.6-1.08,7.59-4.65,6.68-7.94Z" fill="#edd750"/><path d="m442.33,153.68l-20.22,4.61s-1.44.24-2.04-1.29c-.64-1.63,2.04-2.39,2.04-2.39l17.39-5.38,2.84,4.47Z" fill="#edd750"/><rect x="460.58" y="141.43" width="26.1" height="4.21" transform="translate(-20.8 122.06) rotate(-14.37)" fill="#edd750"/><ellipse cx="548.91" cy="123.82" rx="5.47" ry="8" transform="translate(-13.69 134.28) rotate(-13.78)" fill="#b77a0d"/><path d="m477.53,145.21c1.31,1.49,1.51,3.2,1.95,4.87.43,1.67.81,3.34,1.16,5.03.35,1.68.64,3.38.91,5.08.27,1.7.68,3.37.13,5.24l-.29.06c-1.24-1.5-1.52-3.2-1.94-4.87-.42-1.67-.82-3.34-1.17-5.03-.35-1.68-.65-3.38-.92-5.08-.25-1.71-.74-3.36-.12-5.24l.29-.06h0Z" fill="#7a510e"/><path d="m470.14,147.29c1.31,1.49,1.51,3.2,1.96,4.87.42,1.67.81,3.34,1.16,5.03.35,1.68.64,3.38.91,5.08.27,1.7.68,3.37.13,5.24l-.29.06c-1.24-1.5-1.52-3.2-1.94-4.87-.42-1.67-.82-3.34-1.17-5.03-.35-1.68-.65-3.38-.92-5.08-.25-1.71-.74-3.36-.12-5.24l.29-.06h0Z" fill="#7a510e"/><path d="m482.71,171.01c1.04.1.98.47,1.16.78.16.32.29.64.37.98.08.34.11.69.12,1.04,0,.36.16.68-.64,1.24l-.29.07c-.97-.11-.99-.47-1.15-.78-.16-.32-.3-.64-.38-.98-.08-.34-.13-.68-.13-1.04.02-.36-.22-.66.65-1.24l.29-.07h0Z" fill="#7a510e"/><path d="m476.65,176.58c-1.04-.1-.98-.47-1.16-.78-.16-.32-.29-.64-.37-.98-.08-.34-.11-.69-.12-1.04,0-.36-.16-.68.64-1.24l.28-.07c.97.11.99.47,1.15.79.16.32.3.64.38.98.08.34.13.68.13,1.04-.02.36.22.66-.65,1.24l-.29.07h0Z" fill="#7a510e"/><circle cx="495.41" cy="152.68" r="3.37" fill="none" stroke="#edd750" stroke-miterlimit="10" stroke-width="2"/><path d="m462.39,156.78c-1.68,1.68.84,2.09.84,3.37,0,1.86-1.51,3.37-3.37,3.37-4.21,0-1.68-4.21-4.21-4.21" fill="none" stroke="#edd750" stroke-miterlimit="10" stroke-width="2"/><path d="m457.7,169.62c1.16.48.99,1.1,1.86,1.87.27.24.54.51.88.76.35.26.74.31,1,1.32-.04.54-.76.79-1.07.81-1.56-.17-3.09-1.29-3.51-2.86-.23-.74-.34-1.42.54-1.92l.29.02h0Z" fill="#b77a0d"/><path d="m463.02,168.44c.53.09.77.08.93.12.82.36,1.77.29,2.72.33.48,0,.9-.18,1.64.58l.08.28c-.22.88-.69,1.08-1.39,1.26-1.51.51-3.61.27-4.54-1.26-.16-.36-.17-.85.26-1.26l.29-.04h0Z" fill="#b77a0d"/><path d="m526.31,147.35c1.05,4.48-1.21,7.56-5.42,9.16-5.97,2.41-14.66,4.1-20.9,5.69-3.48.83-6.91,1.85-10.61,1.95l-.08-.28c6.4-3.38,13.67-4.55,20.56-6.53,3.46-.87,6.98-1.67,10.22-2.84,1.59-.61,3.07-1.38,3.97-2.57.94-1.17,1.39-2.85,1.97-4.61h.29Z" fill="#b77a0d"/><path d="m439.54,154.6c-.43,1.1-1.1,1.08-1.71,1.31-.62.21-1.24.38-1.88.51-.63.13-1.28.2-1.93.26-.65.05-1.27.25-2.09-.51l-.06-.29c.45-1.03,1.1-1.09,1.71-1.3.62-.21,1.24-.39,1.87-.52.63-.13,1.28-.22,1.93-.27.65-.03,1.26-.31,2.09.52l.06.29h0Z" fill="#b77a0d"/><path d="m361.01,248.34c6.78,4.82,13,10.29,19.28,15.72l-1.52.13c1.46-2.01,2.96-3.99,4.57-5.88,1.75-1.86,2.96-4.08,5.45-5.17,0,0,.23.18.23.18-.52,2.67-2.42,4.33-3.86,6.45-1.71,2.27-3.59,4.44-5.48,6.56-6.45-5.76-12.97-11.43-18.87-17.78l.19-.22h0Z" fill="#596464"/><path d="m481,180.94s-.25,49.21-16.49,79.68c-8.94,16.77-33.5-11.63-30.42-26.74,3.07-15.11,29.84-54.43,29.84-54.43l17.08,1.49Z" fill="#fab7a4"/><path d="m418.32,214.63c-2.75-.9-5.1-2.53-7.61-3.87-6.2-3.29-12.75-5.97-19.58-7.59-1.35-.43-2.72-.74-4.08-1.41l.03-.29c3.69-.66,7.28.31,10.78,1.29,4.89,1.4,9.57,3.51,13.92,6.13,2.45,1.52,5.02,2.98,6.72,5.52l-.18.23h0Z" fill="#596464"/><path d="m436.86,226.07c.56,1.16.07,1.82-.18,2.59-.27.76-.58,1.51-.93,2.23-.35.73-.75,1.43-1.17,2.12-.42.69-.71,1.45-1.9,1.77-.11.03-.23-.03-.27-.13-.49-1.13-.08-1.83.19-2.59.28-.76.57-1.51.92-2.24.35-.73.74-1.43,1.16-2.12.44-.68.65-1.48,1.91-1.77.11-.03.22.03.27.13,0,0-.05-.1,0,0Z" fill="#a33b39"/><path d="m483.34,210.89c1.18.52,1.23,1.34,1.54,2.1.28.76.53,1.53.73,2.31.2.78.35,1.57.48,2.37.12.8.4,1.56-.3,2.58-.07.1-.19.13-.29.08-1.11-.54-1.24-1.34-1.53-2.1-.28-.76-.54-1.52-.74-2.3-.2-.78-.36-1.57-.49-2.37-.1-.81-.46-1.55.31-2.58.07-.09.19-.12.29-.08,0,0-.1-.04,0,0Z" fill="#a33b39"/><path d="m465.43,183.17s-9.69-19.98-9.4-21.92,2.23-4.25,3.51-3.58,3.74-.72,5.89-2.15c2.77-1.84,13.97-12.38,17.33-11.74s3.18,4.45,3.18,4.45c0,0,.98.21,2.53,1.76s.92,5.53.92,5.53l-23.97,27.66Z" fill="#fab7a4"/><path d="m485.59,155.7s7.5-5.72,9.34-4.79,2.94,2.51,2.39,4.02-5.05,6.26-5.05,6.26c0,0,7.27-8.43,9.12-8.43s2.82.57,2.79,1.21-1.71,8.49-5.02,10.1-5.15,11.75-12.53,16.36c-3.02,1.89-10.14,7.38-10.14,7.38l-12.77-7.12,21.87-24.96Z" fill="#fab7a4"/><path d="m464.28,156.4c.62,1,.2,1.48.02,2.07-.2.58-.44,1.15-.72,1.7-.28.55-.61,1.07-.95,1.58-.35.51-.56,1.09-1.67,1.21-.11.01-.22-.04-.27-.14-.56-.97-.22-1.48-.01-2.07.21-.58.43-1.15.71-1.7.28-.55.59-1.07.94-1.58.37-.5.51-1.12,1.68-1.21.11,0,.21.05.27.14,0,0-.06-.09,0,0Z" fill="#a33b39"/><path d="m486.03,148.35c.23,1.06-.19,1.14-.46,1.45-.28.28-.59.54-.91.75-.33.21-.69.38-1.06.53-.37.15-.66.42-1.5-.15-.09-.06-.15-.15-.16-.25-.19-1,.18-1.15.46-1.44.28-.28.58-.54.91-.76.33-.21.68-.39,1.05-.54.39-.13.63-.48,1.51.15.09.06.14.15.16.25,0,0-.02-.1,0,0Z" fill="#a33b39"/><path d="m495.87,157.46c.46,1,.05,1.21-.17,1.6-.23.37-.49.72-.78,1.04-.29.32-.63.6-.97.86-.35.26-.59.63-1.57.32-.1-.03-.18-.11-.22-.2-.4-.95-.06-1.22.17-1.59.23-.37.48-.73.77-1.05.29-.32.61-.61.97-.87.37-.25.54-.67,1.58-.31.1.04.18.11.22.2,0,0-.04-.09,0,0Z" fill="#a33b39"/><path d="m489.59,153.12c.25,1.06-.17,1.15-.44,1.46-.28.29-.58.55-.91.78-.33.22-.69.4-1.06.56-.37.16-.66.44-1.52-.1-.09-.06-.15-.15-.17-.25-.2-.99.16-1.16.44-1.45.28-.29.58-.56.9-.79.33-.22.68-.41,1.05-.57.39-.14.62-.49,1.52.11.09.06.15.15.17.25,0,0-.02-.1,0,0Z" fill="#a33b39"/><path d="m504.33,153.99c.09,3.52-.84,6.97-3.03,9.8-1.37,1.37-2.65,2.78-3.89,4.26-.93,1.91-3.66,5.93-5.63,8.26-2.22,2.59-4.61,5.41-8.08,6.29-.14.03-.26-.15-.15-.26,1.94-2.19,4.75-5.09,6.47-7.42,1.97-2.62,3.79-5.45,5.42-8.28,1.31-1.58,2.77-3.1,4.29-4.47,1.93-2.34,2.47-5.71,4.3-8.25.07-.12.29-.08.29.07h0Z" fill="#a33b39"/><path d="m484.79,137.08s-3.69-7.38,3.69-7.38" fill="none" stroke="#edd750" stroke-miterlimit="10" stroke-width="2"/><path d="m488.99,132.14c-.92.68-1.32.38-1.84.37-.61-.04-.95.03-1.24.13-.47.57-.01.95-1.02,1.86-.46.27-1.1-.52-1.21-.77-.42-1.33.16-3,1.56-3.46.96-.31,1.74-.13,2.39.08.63.25,1.35.34,1.49,1.52.01.11-.04.21-.13.27h0Z" fill="#a33b39"/><path d="m482.75,143.63c1.21-1.1,3.3-.79,4.15.61.77,1.32.96,2.47,1.13,3.9,0,0-1.23-1.11-1.23-1.11,3.63-.2,5.93,1.36,5.23,5.28,0,0-1.77-1.04-1.77-1.04,1.54-1.05,3.36-1.97,5.33-1.51,3.59,1.1,3.26,6.06.37,7.7-.14.09-.3-.08-.21-.21.87-1.62,1.37-3.62.1-5.02-.45-.51-1.02-.62-1.86-.42-.79.19-1.7.69-2.39,1.22-.49.37-1.18.28-1.55-.21-.19-.25-.25-.54-.22-.83.04-.55-.02-1.82-.4-2.1-.55-.33-1.86-.48-2.6-.47-.63,0-1.15-.5-1.19-1.11-.13-1.02-.12-2.48-.81-3.24-.64-.42-1.26-.62-2.06-1.16-.1-.06-.11-.21-.02-.29h0Z" fill="#a33b39"/><path d="m459.53,143.9c5.6-2.39,11.46-3.68,17.27-5.21,5.81-1.52,11.64-2.97,17.46-4.42,5.84-1.41,11.67-2.82,17.53-4.17l4.39-1.02c1.54-.35,3.12-.83,4.72-.66,3.27.3,6.21,2.74,6.79,5.99,0,0,0,.04,0,.04v.02c-.06.03.15-.03-.13.06-.28.09-.08.02-.15.03,0-.02-.05-.08-.06-.11-1.56-3.04-5.18-4.87-8.52-3.96-1.38.36-5.11,1.33-6.53,1.69-11.62,3.03-23.28,5.9-34.98,8.62-5.86,1.33-11.65,2.92-17.72,3.39l-.07-.29h0Z" fill="#b77a0d"/></g></svg>