<?xml version="1.0" encoding="UTF-8"?>
<svg id="Layer_4" data-name="Layer 4" xmlns="http://www.w3.org/2000/svg" width="570" height="320" viewBox="0 0 570 320">
  <defs>
    <style>
      .cls-1 {
        stroke: #0077a2;
      }

      .cls-1, .cls-2, .cls-3 {
        fill: none;
        stroke-linecap: round;
        stroke-miterlimit: 10;
        stroke-width: 2px;
      }

      .cls-2, .cls-3 {
        stroke: #000;
      }

      .cls-3 {
        stroke-dasharray: 0 6;
      }
    </style>
  </defs>
  <path class="cls-2" d="m12.9,166.25s76.16-89.97,131.8-89.97c71.14,0,213.19,180.89,291.23,180.89,72.73,0,124.81-91.35,124.81-91.35"/>
  <path class="cls-2" d="m12.85,166.82s71.98,86.81,131.85,86.81c77.35,0,205.56-177.34,291.23-177.34,69.34,0,124.54,90.15,124.54,90.15"/>
  <line class="cls-3" x1="12.37" y1="166.33" x2="560.85" y2="166.33"/>
  <line class="cls-3" x1="12.35" y1="65.01" x2="12.35" y2="280.28"/>
  <line class="cls-3" x1="561.44" y1="65.01" x2="561.44" y2="280.28"/>
  <g>
    <g>
      <line class="cls-1" x1="13.11" y1="34.75" x2="561.34" y2="34.75"/>
      <line class="cls-1" x1="561.34" y1="54.75" x2="561.34" y2="14.75"/>
      <line class="cls-1" x1="12.32" y1="54.75" x2="12.32" y2="14.75"/>
    </g>
    <path d="m286.63,20.75h8.09v1.84h-10.35V5.53h2.26v15.22Z"/>
  </g>
  <g>
    <line class="cls-1" x1="13.27" y1="282.67" x2="561.24" y2="282.67"/>
    <line class="cls-1" x1="561.49" y1="302.24" x2="561.49" y2="262.24"/>
    <line class="cls-1" x1="12.48" y1="302.67" x2="12.48" y2="262.67"/>
  </g>
  <path d="m287.31,307.15c.46,2.27,1.13,3.97,2.4,3.97.81,0,1.32-.3,1.86-.97l.46.3c-.57,1.51-1.67,2.78-3.1,2.78s-2.27-1.24-2.67-3.29c-.49-2.43-.43-4.8-.73-7.4h-.14c-.62,1.21-3.27,7.69-4.32,10.39h-2.62l-.08-.43c2.05-3.78,4.56-8.58,6.59-12.39-.05-.57-.08-.62-.22-1.46-.32-1.67-1.13-2.83-2.27-2.83-.81,0-1.38.32-1.92,1.05l-.46-.22c.65-1.62,1.46-2.78,3.1-2.78,1.84,0,2.24,1.86,2.67,4,.62,3.29.86,6.32,1.43,9.29Z"/>
</svg>