<?xml version="1.0" encoding="UTF-8"?><svg id="i" xmlns="http://www.w3.org/2000/svg" width="570" height="325" viewBox="0 0 570 325"><path d="m290.13,315.5S235.84,193.01,230.26,7.5" fill="none" stroke="#0077a2" stroke-linecap="round" stroke-linejoin="round" stroke-width="2"/><path d="m290.13,315.5s54.29-122.49,59.87-308" fill="none" stroke="#0077a2" stroke-linecap="round" stroke-linejoin="round" stroke-width="2"/><polyline points="382 7.24 382 315.58 198.26 315.58 198.26 7.24" fill="none" stroke="#000" stroke-miterlimit="10" stroke-width="3"/><line x1="290.13" y1="7.5" x2="290.13" y2="315.5" fill="none" stroke="#000" stroke-dasharray="0 6" stroke-linecap="round" stroke-linejoin="round" stroke-width="2"/><path d="m433.68,192.54h3.16v2.36h-3.16v5.28h-2.91v-5.28h-10.36v-1.7l10.19-15.77h3.08v15.11Zm-9.98,0h7.08v-11.16l-.34.62-6.73,10.53Z"/><path d="m154.38,174.86h-17.29l.21-1.05c2.7,0,3.26-.49,3.85-3.29l3.01-14.6c.49-2.31.32-3.01-2.7-3.01l.21-1.05h9.94l-.17,1.05c-2.52,0-3.64.53-4.17,3.05l-3.19,15.68c-.32,1.54.21,1.89,2.28,1.89h1.64c4.45,0,5.18-1.43,7.35-5.5h1.12l-2.1,6.83Z"/><path d="m158.51,186.51l.12-.57c1.92,0,2.41-.35,2.61-1.37l1.84-8.63c.16-.71.06-1-.45-1-.41,0-1.18.12-1.86.33l.14-.67,3.9-1.12h.59l-2.37,11.1c-.2,1,.22,1.37,2.1,1.37l-.12.57h-6.51Z"/><path d="m431.88,145.85c0,2.94.56,5.11,2.07,5.11.91,0,1.65-.28,2.55-1.22l.6.56c-1.08,2-2.87,3.47-4.62,3.47-1.92,0-2.66-1.65-2.66-4.31,0-3.15.53-5.88.77-9.21h-.21c-1.08,1.54-6.02,9.59-8.02,13.09h-3.5v-.56c3.61-4.9,8.16-10.99,11.76-15.86.04-.74.04-.77.04-1.86,0-2.34-.7-3.71-2.17-3.71-1.16,0-1.96.35-2.87,1.19l-.74-.53c1.12-1.96,2.63-3.36,4.83-3.36,2.52,0,2.62,2.38,2.62,5.15,0,4.27-.46,8.19-.46,12.04Z"/><path d="m412.05,167.57l.42-2h32.9l-.42,2h-32.9Z"/></svg>