<?xml version="1.0" encoding="UTF-8"?>
<svg id="Layer_2" data-name="Layer 2" xmlns="http://www.w3.org/2000/svg" width="1140" height="616" viewBox="0 0 1140 616">
  <defs>
    <style>
      .cls-1 {
        stroke: #0084ae;
      }

      .cls-1, .cls-2, .cls-3 {
        fill: none;
        stroke-linecap: round;
        stroke-miterlimit: 10;
        stroke-width: 2px;
      }

      .cls-2, .cls-3 {
        stroke: #000;
      }

      .cls-3 {
        stroke-dasharray: 0 6;
      }
    </style>
  </defs>
  <g>
    <path class="cls-2" d="m21.56,311.4c277.44-176.92,814.82-178.72,1104.27.18"/>
    <path class="cls-2" d="m21.56,310.94c277.1,177.44,814.48,180.27,1104.26,1.92"/>
    <line class="cls-3" x1="20.48" y1="311.56" x2="1126.03" y2="312.6"/>
    <g>
      <line class="cls-1" x1="22.51" y1="87.11" x2="1123.06" y2="88.15"/>
      <line class="cls-1" x1="1125.14" y1="128.47" x2="1125.22" y2="47.84"/>
      <line class="cls-1" x1="20.88" y1="127.42" x2="20.95" y2="46.8"/>
    </g>
    <path d="m577.29,71.43h10.78s0,2.46,0,2.46h-13.8s.02-22.76.02-22.76h3.02s-.02,20.3-.02,20.3Z"/>
    <line class="cls-3" x1="20.76" y1="136.48" x2="20.43" y2="480.48"/>
    <line class="cls-3" x1="1125.23" y1="141.52" x2="1124.91" y2="480.52"/>
    <g>
      <line class="cls-1" x1="22.09" y1="529.63" x2="1122.64" y2="530.67"/>
      <line class="cls-1" x1="1125.32" y1="570.99" x2="1125.4" y2="490.36"/>
      <line class="cls-1" x1="20.46" y1="569.94" x2="20.53" y2="489.31"/>
    </g>
  </g>
  <g>
    <path d="m579.01,611.39h-14.91v-2.08l7.87-8.75c1.17-1.32,1.97-2.4,2.41-3.23.44-.83.66-1.68.66-2.57,0-1.19-.36-2.16-1.08-2.92s-1.68-1.14-2.88-1.14c-1.44,0-2.55.41-3.35,1.23s-1.2,1.96-1.2,3.41h-2.89c0-2.09.67-3.79,2.02-5.08,1.35-1.29,3.15-1.94,5.41-1.94,2.11,0,3.79.55,5.02,1.66,1.23,1.11,1.84,2.59,1.84,4.43,0,2.24-1.43,4.91-4.28,8l-6.09,6.61h11.42v2.36Z"/>
    <path d="m564.99,564.55h-3.5v-.56c1.24-1.68,2.56-3.46,3.96-5.35,1.4-1.89,2.8-3.77,4.2-5.65s2.71-3.63,3.92-5.27l.21,3.75h-.77c-.21.3-.56.83-1.05,1.59-.49.76-1.04,1.65-1.66,2.66-.62,1.02-1.26,2.07-1.92,3.17s-1.29,2.14-1.89,3.13c-.6.99-1.09,1.84-1.49,2.54Zm10.12.42c-.96,0-1.64-.38-2.05-1.16-.41-.77-.61-1.82-.61-3.15,0-.96.04-1.87.12-2.73.08-.86.18-1.81.3-2.83.12-1.03.22-2.24.3-3.64.08-1.4.12-3.13.12-5.18,0-1.17-.17-2.08-.52-2.73-.35-.65-.9-.98-1.65-.98-.58,0-1.09.09-1.52.28s-.88.49-1.35.91l-.73-.53c.37-.65.79-1.23,1.26-1.73.47-.5,1-.9,1.59-1.19.59-.29,1.25-.44,1.98-.44.84,0,1.45.24,1.82.72.37.48.6,1.1.68,1.87.08.77.12,1.62.12,2.55,0,1.42-.04,2.81-.11,4.17-.07,1.35-.15,2.68-.23,3.99s-.12,2.6-.12,3.88c0,1.47.16,2.69.47,3.66.31.97.84,1.45,1.59,1.45.47,0,.9-.09,1.29-.26s.82-.5,1.26-.96l.59.56c-.35.65-.78,1.24-1.28,1.77-.5.52-1.04.94-1.61,1.24-.57.3-1.15.46-1.73.46Z"/>
    <path d="m587.58,578.78h-32.9l.42-2h32.9l-.42,2Z"/>
  </g>
</svg>