<svg xmlns="http://www.w3.org/2000/svg" width="1140" height="730" viewBox="0 0 1140 730"><defs><style>.a{fill:#d3eeef;}.b,.c,.d,.e,.f,.g{fill:none;stroke:#000;stroke-miterlimit:10;stroke-width:2px;}.c{stroke-linecap:round;}.d{stroke-dasharray:7 5.067;}.e{stroke-dasharray:5.235 5.235;}.f{stroke-dasharray:5.267 5.267;}.g{stroke-dasharray:7;}</style></defs><path class="a" d="M1131.429,365.337c-15.815-128.564,24.545-287.506-143.519-342.2-80.157-26.088-172-5.19-363.347-5.19-198.779,0-363.534-19.85-451.547,6.806C-49.2,92.051,12.993,282.7,12.993,419.5c0,98.373,51.3,209.854,174.994,259.153,116.446,46.409,309.475,36.5,415.263,36.5C821.414,715.15,1176.975,735.589,1131.429,365.337Z"/><line class="b" x1="217.955" y1="298.796" x2="923.698" y2="298.796"/><line class="b" x1="928.061" y1="390.312" x2="221.955" y2="390.952"/><line class="b" x1="218.955" y1="489.378" x2="923.698" y2="489.378"/><line class="b" x1="218.955" y1="586.697" x2="921.917" y2="586.697"/><rect class="a" x="458.205" y="294.796" width="80.75" height="7"/><polygon class="a" points="690.955 293.796 789.955 295.796 789.955 302.796 750.557 323.796 690.955 293.796"/><rect class="a" x="589.955" y="485.631" width="76" height="7"/><path class="a" d="M458.955,580.8l87-2v11l-46,12c-.686-.019-30.372-16.725-31-17Z"/><rect class="a" x="747.955" y="582.796" width="78" height="7"/><path class="a" d="M587.834,381.67l93.121,4.126v7l-53,14c-.686-.019-33.372-16.725-34-17Z"/><line class="b" x1="456.035" y1="265.278" x2="456.272" y2="298.829"/><polygon points="448.074 267.668 455.954 253.796 464.03 267.556 448.074 267.668"/><line class="b" x1="484.107" y1="265.277" x2="484.547" y2="298.417"/><polygon points="476.161 267.717 483.955 253.796 492.116 267.505 476.161 267.717"/><line class="b" x1="510.074" y1="265.277" x2="510.413" y2="298.623"/><polygon points="502.12 267.693 509.957 253.796 518.075 267.531 502.12 267.693"/><line class="b" x1="538.448" y1="265.66" x2="538.684" y2="298.211"/><polygon points="530.487 268.052 538.365 254.178 546.443 267.936 530.487 268.052"/><line class="c" x1="593.038" y1="359.878" x2="593.273" y2="390.796"/><polygon points="585.077 362.27 592.955 348.396 601.033 362.155 585.077 362.27"/><line class="b" x1="623.765" y1="359.466" x2="623.998" y2="391.693"/><polygon points="615.804 361.858 623.681 347.984 631.759 361.742 615.804 361.858"/><line class="c" x1="650.955" y1="359.278" x2="650.955" y2="411.796"/><polygon points="642.977 361.612 650.955 347.796 658.933 361.612 642.977 361.612"/><line class="c" x1="680.122" y1="359.259" x2="681.091" y2="425.796"/><polygon points="672.179 361.709 679.955 347.778 688.133 361.477 672.179 361.709"/><polygon points="658.933 405.597 650.955 419.414 642.977 405.597 658.933 405.597"/><line class="c" x1="591.038" y1="456.278" x2="591.273" y2="488.796"/><polygon points="583.077 458.67 590.955 444.796 599.033 458.554 583.077 458.67"/><line class="c" x1="620.085" y1="472.277" x2="620.273" y2="488.894"/><polygon points="612.134 474.702 619.955 460.796 628.089 474.521 612.134 474.702"/><line class="c" x1="649.222" y1="486.275" x2="649.273" y2="488.481"/><polygon points="641.3 488.794 648.955 474.796 657.252 488.423 641.3 488.794"/><polygon points="688.647 420.102 680.669 433.918 672.691 420.102 688.647 420.102"/><line class="c" x1="824.762" y1="329.316" x2="824.273" y2="300.123"/><polygon points="832.7 326.848 824.955 340.796 816.746 327.115 832.7 326.848"/><line class="c" x1="762.902" y1="320.314" x2="762.81" y2="299.796"/><polygon points="770.87 317.944 762.954 331.796 754.914 318.016 770.87 317.944"/><line class="c" x1="731.955" y1="303.314" x2="731.955" y2="298.796"/><polygon points="739.933 300.98 731.955 314.796 723.977 300.98 739.933 300.98"/><line class="c" x1="511.473" y1="237.784" x2="460.023" y2="237.728"/><polygon points="509.147 229.803 522.955 237.796 509.13 245.759 509.147 229.803"/><line class="c" x1="735.091" y1="238.054" x2="786.237" y2="238.247"/><polygon points="737.396 246.041 723.61 238.011 737.456 230.085 737.396 246.041"/><line class="c" x1="808.093" y1="529.784" x2="756.643" y2="529.728"/><polygon points="805.767 521.803 819.574 529.796 805.75 537.759 805.767 521.803"/><line class="c" x1="498.091" y1="651.348" x2="549.541" y2="651.292"/><polygon points="500.434 659.324 486.609 651.36 500.417 643.367 500.434 659.324"/><polyline class="c" points="469.282 586.697 546.955 630.796 546.955 586.697"/><line class="b" x1="590.955" y1="444.796" x2="680.119" y2="489.378"/><line class="c" x1="592.594" y1="346.796" x2="680.58" y2="346.796"/><line class="b" x1="454.955" y1="252.796" x2="540.695" y2="252.796"/><line class="c" x1="592.955" y1="390.796" x2="680.955" y2="434.796"/><polyline class="b" points="699.955 298.796 791.955 347.796 790.955 298.796"/><polyline class="c" points="746.955 586.697 746.955 545.718 826.955 545.796 826.955 586.697"/><line class="b" x1="456.955" y1="298.796" x2="459.455" y2="298.796"/><line class="d" x1="457.56" y1="298.83" x2="539.543" y2="298.796"/><line class="b" x1="536.867" y1="298.796" x2="541.126" y2="298.796"/><line class="b" x1="698.955" y1="298.796" x2="701.455" y2="298.796"/><line class="e" x1="706.69" y1="298.796" x2="787.837" y2="298.796"/><line class="b" x1="790.455" y1="298.796" x2="792.955" y2="298.796"/><line class="b" x1="595.955" y1="390.796" x2="598.455" y2="390.796"/><line class="f" x1="593.273" y1="390.796" x2="681.604" y2="390.312"/><line class="g" x1="589.956" y1="489.403" x2="670.247" y2="489.487"/><path d="M218.244,274.676V257.614h5.578A6.48,6.48,0,0,1,228,258.762a4.139,4.139,0,0,1,1.4,3.4,3.464,3.464,0,0,1-.679,2.115,4.411,4.411,0,0,1-1.852,1.424,3.96,3.96,0,0,1,2.186,1.47,4.222,4.222,0,0,1,.8,2.584,4.564,4.564,0,0,1-1.488,3.61,6.153,6.153,0,0,1-4.207,1.312Zm2.25-9.785h3.4a3.558,3.558,0,0,0,2.361-.74,2.479,2.479,0,0,0,.885-2.008,2.439,2.439,0,0,0-.821-2.049,4.027,4.027,0,0,0-2.5-.64h-3.328Zm0,1.805v6.14h3.715a3.579,3.579,0,0,0,2.479-.814,2.862,2.862,0,0,0,.908-2.244q0-3.082-3.352-3.082Z"/><path d="M238.107,274.911a5.541,5.541,0,0,1-4.195-1.694,6.284,6.284,0,0,1-1.617-4.529v-.4a7.607,7.607,0,0,1,.721-3.37,5.623,5.623,0,0,1,2.015-2.32,5.075,5.075,0,0,1,2.807-.838,4.75,4.75,0,0,1,3.844,1.629,7.054,7.054,0,0,1,1.371,4.664v.9h-8.59a4.5,4.5,0,0,0,1.1,3.029,3.444,3.444,0,0,0,2.666,1.154,3.771,3.771,0,0,0,1.945-.469,4.87,4.87,0,0,0,1.394-1.242l1.325,1.031A5.327,5.327,0,0,1,238.107,274.911Zm-.269-11.368a2.892,2.892,0,0,0-2.2.956,4.64,4.64,0,0,0-1.1,2.677h6.352v-.164a4.132,4.132,0,0,0-.891-2.56A2.721,2.721,0,0,0,237.838,263.543Z"/><path d="M246.627,274.676v-11h-2V262h2v-1.3a4.318,4.318,0,0,1,1.09-3.153,4.117,4.117,0,0,1,3.082-1.113,5.719,5.719,0,0,1,1.488.2l-.117,1.747A6.254,6.254,0,0,0,251,258.27a2.117,2.117,0,0,0-1.629.617,2.5,2.5,0,0,0-.574,1.769V262H251.5v1.675H248.8v11Z"/><path d="M253.318,268.219a7.477,7.477,0,0,1,.733-3.351,5.458,5.458,0,0,1,2.039-2.3,5.55,5.55,0,0,1,2.982-.809,5.35,5.35,0,0,1,4.19,1.793,6.9,6.9,0,0,1,1.6,4.77v.152a7.548,7.548,0,0,1-.709,3.322,5.375,5.375,0,0,1-2.027,2.291,5.614,5.614,0,0,1-3.029.821,5.335,5.335,0,0,1-4.178-1.793,6.868,6.868,0,0,1-1.6-4.746Zm2.18.258a5.423,5.423,0,0,0,.979,3.387,3.316,3.316,0,0,0,5.244-.018,5.934,5.934,0,0,0,.972-3.627,5.419,5.419,0,0,0-.99-3.381,3.149,3.149,0,0,0-2.631-1.3,3.114,3.114,0,0,0-2.59,1.278A5.887,5.887,0,0,0,255.5,268.477Z"/><path d="M273.709,263.942a6.464,6.464,0,0,0-1.066-.082,2.857,2.857,0,0,0-2.895,1.816v9H267.58V262h2.109l.036,1.464a3.376,3.376,0,0,1,3.023-1.7,2.221,2.221,0,0,1,.961.164Z"/><path d="M280.74,274.911a5.539,5.539,0,0,1-4.195-1.694,6.284,6.284,0,0,1-1.617-4.529v-.4a7.62,7.62,0,0,1,.72-3.37,5.632,5.632,0,0,1,2.016-2.32,5.073,5.073,0,0,1,2.807-.838,4.748,4.748,0,0,1,3.843,1.629,7.048,7.048,0,0,1,1.372,4.664v.9H277.1a4.507,4.507,0,0,0,1.095,3.029,3.447,3.447,0,0,0,2.666,1.154,3.775,3.775,0,0,0,1.946-.469,4.87,4.87,0,0,0,1.394-1.242l1.324,1.031A5.324,5.324,0,0,1,280.74,274.911Zm-.269-11.368a2.89,2.89,0,0,0-2.2.956,4.64,4.64,0,0,0-1.1,2.677h6.352v-.164a4.132,4.132,0,0,0-.891-2.56A2.721,2.721,0,0,0,280.471,263.543Z"/><path d="M294.146,258.633a1.293,1.293,0,0,1,.323-.89,1.207,1.207,0,0,1,.955-.364,1.227,1.227,0,0,1,.961.364,1.278,1.278,0,0,1,.328.89,1.236,1.236,0,0,1-.328.879,1.249,1.249,0,0,1-.961.352,1.23,1.23,0,0,1-.955-.352A1.25,1.25,0,0,1,294.146,258.633Zm2.344,16.043h-2.168V262h2.168Z"/><path d="M302.01,262l.07,1.593a4.622,4.622,0,0,1,3.8-1.828q4.02,0,4.055,4.535v8.379h-2.168v-8.39a2.923,2.923,0,0,0-.627-2.028,2.514,2.514,0,0,0-1.916-.656,3.13,3.13,0,0,0-1.852.563,3.823,3.823,0,0,0-1.242,1.476v9.035h-2.168V262Z"/><path d="M316.143,258.926V262h2.367v1.675h-2.367v7.873a1.756,1.756,0,0,0,.316,1.144,1.329,1.329,0,0,0,1.078.382,5.229,5.229,0,0,0,1.031-.141v1.748a6.332,6.332,0,0,1-1.664.233,2.7,2.7,0,0,1-2.191-.879,3.777,3.777,0,0,1-.738-2.5v-7.864h-2.309V262h2.309v-3.071Z"/><path d="M326.3,274.911a5.543,5.543,0,0,1-4.2-1.694,6.284,6.284,0,0,1-1.617-4.529v-.4a7.607,7.607,0,0,1,.721-3.37,5.618,5.618,0,0,1,2.016-2.32,5.069,5.069,0,0,1,2.806-.838,4.748,4.748,0,0,1,3.844,1.629,7.054,7.054,0,0,1,1.371,4.664v.9h-8.59a4.507,4.507,0,0,0,1.1,3.029,3.445,3.445,0,0,0,2.666,1.154,3.768,3.768,0,0,0,1.945-.469,4.886,4.886,0,0,0,1.395-1.242l1.324,1.031A5.325,5.325,0,0,1,326.3,274.911Zm-.27-11.368a2.892,2.892,0,0,0-2.2.956,4.633,4.633,0,0,0-1.1,2.677h6.351v-.164a4.12,4.12,0,0,0-.891-2.56A2.721,2.721,0,0,0,326.033,263.543Z"/><path d="M339.885,263.942a6.467,6.467,0,0,0-1.067-.082,2.856,2.856,0,0,0-2.894,1.816v9h-2.168V262h2.109l.035,1.464a3.378,3.378,0,0,1,3.024-1.7,2.221,2.221,0,0,1,.961.164Z"/><path d="M343.119,274.676v-11h-2V262h2v-1.3a4.318,4.318,0,0,1,1.09-3.153,4.118,4.118,0,0,1,3.082-1.113,5.719,5.719,0,0,1,1.488.2l-.117,1.747a6.254,6.254,0,0,0-1.172-.105,2.117,2.117,0,0,0-1.629.617,2.509,2.509,0,0,0-.574,1.769V262h2.707v1.675h-2.707v11Z"/><path d="M355.365,274.911a5.539,5.539,0,0,1-4.195-1.694,6.284,6.284,0,0,1-1.617-4.529v-.4a7.62,7.62,0,0,1,.72-3.37,5.632,5.632,0,0,1,2.016-2.32,5.073,5.073,0,0,1,2.807-.838,4.748,4.748,0,0,1,3.843,1.629,7.048,7.048,0,0,1,1.372,4.664v.9h-8.59a4.507,4.507,0,0,0,1.095,3.029,3.447,3.447,0,0,0,2.666,1.154,3.775,3.775,0,0,0,1.946-.469,4.87,4.87,0,0,0,1.394-1.242l1.324,1.031A5.324,5.324,0,0,1,355.365,274.911Zm-.269-11.368a2.89,2.89,0,0,0-2.2.956,4.64,4.64,0,0,0-1.1,2.677h6.352v-.164a4.132,4.132,0,0,0-.891-2.56A2.721,2.721,0,0,0,355.1,263.543Z"/><path d="M368.947,263.942a6.455,6.455,0,0,0-1.066-.082,2.857,2.857,0,0,0-2.895,1.816v9h-2.168V262h2.11l.035,1.464a3.377,3.377,0,0,1,3.023-1.7,2.218,2.218,0,0,1,.961.164Z"/><path d="M375.979,274.911a5.541,5.541,0,0,1-4.2-1.694,6.284,6.284,0,0,1-1.617-4.529v-.4a7.607,7.607,0,0,1,.721-3.37,5.623,5.623,0,0,1,2.015-2.32,5.075,5.075,0,0,1,2.807-.838,4.75,4.75,0,0,1,3.844,1.629,7.054,7.054,0,0,1,1.371,4.664v.9h-8.59a4.5,4.5,0,0,0,1.1,3.029,3.445,3.445,0,0,0,2.666,1.154,3.771,3.771,0,0,0,1.945-.469,4.886,4.886,0,0,0,1.395-1.242l1.324,1.031A5.325,5.325,0,0,1,375.979,274.911Zm-.27-11.368a2.892,2.892,0,0,0-2.2.956,4.64,4.64,0,0,0-1.1,2.677h6.352v-.164a4.132,4.132,0,0,0-.891-2.56A2.721,2.721,0,0,0,375.709,263.543Z"/><path d="M385.482,262l.071,1.593a4.621,4.621,0,0,1,3.8-1.828q4.018,0,4.054,4.535v8.379h-2.168v-8.39a2.914,2.914,0,0,0-.627-2.028,2.513,2.513,0,0,0-1.916-.656,3.127,3.127,0,0,0-1.851.563,3.815,3.815,0,0,0-1.242,1.476v9.035h-2.168V262Z"/><path d="M401.76,273.141a3.121,3.121,0,0,0,2.027-.7,2.474,2.474,0,0,0,.961-1.758H406.8a3.928,3.928,0,0,1-.75,2.074,4.936,4.936,0,0,1-1.846,1.571,5.332,5.332,0,0,1-2.443.586,5.223,5.223,0,0,1-4.119-1.729,6.88,6.88,0,0,1-1.53-4.728v-.364a7.637,7.637,0,0,1,.68-3.293,5.177,5.177,0,0,1,1.951-2.238,5.547,5.547,0,0,1,3.006-.8,5.083,5.083,0,0,1,3.545,1.278,4.567,4.567,0,0,1,1.506,3.316h-2.051a2.987,2.987,0,0,0-.932-2.022,2.9,2.9,0,0,0-2.068-.791,3.033,3.033,0,0,0-2.56,1.19,5.581,5.581,0,0,0-.909,3.439v.411a5.476,5.476,0,0,0,.9,3.375A3.048,3.048,0,0,0,401.76,273.141Z"/><path d="M414.5,274.911a5.539,5.539,0,0,1-4.195-1.694,6.284,6.284,0,0,1-1.617-4.529v-.4a7.62,7.62,0,0,1,.72-3.37,5.632,5.632,0,0,1,2.016-2.32,5.073,5.073,0,0,1,2.807-.838,4.748,4.748,0,0,1,3.843,1.629,7.054,7.054,0,0,1,1.371,4.664v.9h-8.589a4.507,4.507,0,0,0,1.1,3.029,3.445,3.445,0,0,0,2.666,1.154,3.775,3.775,0,0,0,1.946-.469,4.87,4.87,0,0,0,1.394-1.242l1.324,1.031A5.324,5.324,0,0,1,414.5,274.911Zm-.269-11.368a2.894,2.894,0,0,0-2.2.956,4.64,4.64,0,0,0-1.1,2.677h6.351v-.164a4.126,4.126,0,0,0-.89-2.56A2.721,2.721,0,0,0,414.229,263.543Z"/><path d="M218.244,460.45V443.388h4.817a7.756,7.756,0,0,1,3.937.984,6.654,6.654,0,0,1,2.643,2.8,9.118,9.118,0,0,1,.943,4.172v1.09a9.149,9.149,0,0,1-.932,4.23,6.546,6.546,0,0,1-2.66,2.789,8.232,8.232,0,0,1-4.025,1Zm2.25-15.222V458.61h2.367a5.15,5.15,0,0,0,4.049-1.618,6.687,6.687,0,0,0,1.447-4.609v-1a6.794,6.794,0,0,0-1.365-4.522,4.856,4.856,0,0,0-3.873-1.636Z"/><path d="M241.471,459.2a4.606,4.606,0,0,1-3.715,1.489,3.942,3.942,0,0,1-3.088-1.178,5.1,5.1,0,0,1-1.072-3.486v-8.25h2.168v8.191q0,2.883,2.343,2.883a3.245,3.245,0,0,0,3.305-1.852v-9.222h2.168V460.45h-2.062Z"/><path d="M253,449.716a6.464,6.464,0,0,0-1.066-.082,2.857,2.857,0,0,0-2.9,1.816v9h-2.168V447.771h2.109l.036,1.464a3.376,3.376,0,0,1,3.023-1.7,2.221,2.221,0,0,1,.961.164Z"/><path d="M255.006,444.407a1.292,1.292,0,0,1,.322-.89,1.207,1.207,0,0,1,.955-.364,1.227,1.227,0,0,1,.961.364,1.278,1.278,0,0,1,.328.89,1.236,1.236,0,0,1-.328.879,1.249,1.249,0,0,1-.961.352,1.23,1.23,0,0,1-.955-.352A1.249,1.249,0,0,1,255.006,444.407Zm2.344,16.043h-2.168V447.771h2.168Z"/><path d="M262.869,447.771l.07,1.593a4.624,4.624,0,0,1,3.8-1.828q4.02,0,4.055,4.535v8.379h-2.168v-8.39a2.923,2.923,0,0,0-.627-2.028,2.514,2.514,0,0,0-1.916-.656,3.127,3.127,0,0,0-1.851.562,3.82,3.82,0,0,0-1.243,1.477v9.035h-2.168V447.771Z"/><path d="M273.545,454.005a7.452,7.452,0,0,1,1.371-4.717,4.727,4.727,0,0,1,7.254-.111l.1-1.406h1.981v12.375a5.155,5.155,0,0,1-1.459,3.878,5.381,5.381,0,0,1-3.92,1.418,6.518,6.518,0,0,1-2.684-.586,4.613,4.613,0,0,1-2-1.605l1.125-1.3a4.24,4.24,0,0,0,3.411,1.723,3.319,3.319,0,0,0,2.466-.891,3.4,3.4,0,0,0,.885-2.508v-1.089a4.456,4.456,0,0,1-3.551,1.5,4.332,4.332,0,0,1-3.6-1.793A7.838,7.838,0,0,1,273.545,454.005Zm2.18.246a5.683,5.683,0,0,0,.879,3.369,2.853,2.853,0,0,0,2.46,1.225,3.174,3.174,0,0,0,3.012-1.864v-5.789a3.212,3.212,0,0,0-2.988-1.816,2.882,2.882,0,0,0-2.473,1.23A6.2,6.2,0,0,0,275.725,454.251Z"/><path d="M293.479,444.407a1.292,1.292,0,0,1,.322-.89,1.207,1.207,0,0,1,.955-.364,1.227,1.227,0,0,1,.961.364,1.278,1.278,0,0,1,.328.89,1.236,1.236,0,0,1-.328.879,1.249,1.249,0,0,1-.961.352,1.23,1.23,0,0,1-.955-.352A1.249,1.249,0,0,1,293.479,444.407Zm2.343,16.043h-2.168V447.771h2.168Z"/><path d="M301.342,447.771l.07,1.593a4.622,4.622,0,0,1,3.8-1.828q4.02,0,4.055,4.535v8.379H307.1v-8.39a2.923,2.923,0,0,0-.627-2.028,2.514,2.514,0,0,0-1.916-.656,3.13,3.13,0,0,0-1.852.562,3.827,3.827,0,0,0-1.242,1.477v9.035h-2.168V447.771Z"/><path d="M315.475,444.7v3.071h2.367v1.675h-2.367v7.873a1.761,1.761,0,0,0,.316,1.145,1.332,1.332,0,0,0,1.078.381,5.229,5.229,0,0,0,1.031-.141v1.748a6.332,6.332,0,0,1-1.664.233,2.7,2.7,0,0,1-2.191-.879,3.777,3.777,0,0,1-.738-2.5v-7.864H311v-1.675h2.309V444.7Z"/><path d="M325.635,460.685a5.543,5.543,0,0,1-4.2-1.694,6.284,6.284,0,0,1-1.617-4.529v-.4a7.606,7.606,0,0,1,.721-3.369,5.618,5.618,0,0,1,2.016-2.32,5.061,5.061,0,0,1,2.806-.838,4.748,4.748,0,0,1,3.844,1.629,7.054,7.054,0,0,1,1.371,4.664v.9h-8.59a4.51,4.51,0,0,0,1.1,3.03,3.445,3.445,0,0,0,2.666,1.154,3.768,3.768,0,0,0,1.945-.469,4.873,4.873,0,0,0,1.395-1.242l1.324,1.031A5.324,5.324,0,0,1,325.635,460.685Zm-.27-11.368a2.894,2.894,0,0,0-2.2.955,4.639,4.639,0,0,0-1.1,2.678h6.351v-.164a4.12,4.12,0,0,0-.891-2.56A2.721,2.721,0,0,0,325.365,449.317Z"/><path d="M339.217,449.716a6.467,6.467,0,0,0-1.067-.082,2.857,2.857,0,0,0-2.894,1.816v9h-2.168V447.771H335.2l.035,1.464a3.378,3.378,0,0,1,3.024-1.7,2.221,2.221,0,0,1,.961.164Z"/><path d="M342.451,460.45v-11h-2v-1.675h2v-1.3a4.318,4.318,0,0,1,1.09-3.153,4.118,4.118,0,0,1,3.082-1.113,5.762,5.762,0,0,1,1.488.2l-.117,1.747a6.254,6.254,0,0,0-1.172-.105,2.117,2.117,0,0,0-1.629.617,2.51,2.51,0,0,0-.574,1.77v1.34h2.707v1.675h-2.707v11Z"/><path d="M354.7,460.685a5.541,5.541,0,0,1-4.195-1.694,6.284,6.284,0,0,1-1.617-4.529v-.4a7.619,7.619,0,0,1,.72-3.369,5.632,5.632,0,0,1,2.016-2.32,5.065,5.065,0,0,1,2.807-.838,4.748,4.748,0,0,1,3.843,1.629,7.048,7.048,0,0,1,1.372,4.664v.9h-8.59a4.509,4.509,0,0,0,1.1,3.03,3.447,3.447,0,0,0,2.666,1.154,3.772,3.772,0,0,0,1.946-.469,4.87,4.87,0,0,0,1.394-1.242l1.325,1.031A5.327,5.327,0,0,1,354.7,460.685Zm-.269-11.368a2.893,2.893,0,0,0-2.2.955,4.646,4.646,0,0,0-1.1,2.678h6.352v-.164a4.132,4.132,0,0,0-.891-2.56A2.721,2.721,0,0,0,354.428,449.317Z"/><path d="M368.279,449.716a6.455,6.455,0,0,0-1.066-.082,2.857,2.857,0,0,0-2.9,1.816v9H362.15V447.771h2.11l.035,1.464a3.377,3.377,0,0,1,3.023-1.7,2.218,2.218,0,0,1,.961.164Z"/><path d="M375.311,460.685a5.541,5.541,0,0,1-4.2-1.694,6.284,6.284,0,0,1-1.617-4.529v-.4a7.606,7.606,0,0,1,.721-3.369,5.623,5.623,0,0,1,2.015-2.32,5.067,5.067,0,0,1,2.807-.838,4.75,4.75,0,0,1,3.844,1.629,7.054,7.054,0,0,1,1.371,4.664v.9h-8.59a4.5,4.5,0,0,0,1.1,3.03,3.445,3.445,0,0,0,2.666,1.154,3.771,3.771,0,0,0,1.945-.469,4.886,4.886,0,0,0,1.395-1.242l1.324,1.031A5.325,5.325,0,0,1,375.311,460.685Zm-.27-11.368a2.894,2.894,0,0,0-2.2.955,4.646,4.646,0,0,0-1.1,2.678h6.352v-.164a4.126,4.126,0,0,0-.891-2.56A2.721,2.721,0,0,0,375.041,449.317Z"/><path d="M384.814,447.771l.071,1.593a4.622,4.622,0,0,1,3.8-1.828q4.018,0,4.054,4.535v8.379h-2.168v-8.39a2.914,2.914,0,0,0-.627-2.028,2.513,2.513,0,0,0-1.916-.656,3.127,3.127,0,0,0-1.851.562,3.827,3.827,0,0,0-1.242,1.477v9.035h-2.168V447.771Z"/><path d="M401.092,458.915a3.121,3.121,0,0,0,2.027-.7,2.474,2.474,0,0,0,.961-1.758h2.051a3.928,3.928,0,0,1-.75,2.074,4.936,4.936,0,0,1-1.846,1.571,5.332,5.332,0,0,1-2.443.586,5.223,5.223,0,0,1-4.119-1.729,6.88,6.88,0,0,1-1.53-4.728v-.364a7.637,7.637,0,0,1,.68-3.293,5.177,5.177,0,0,1,1.951-2.238,5.547,5.547,0,0,1,3.006-.8,5.087,5.087,0,0,1,3.545,1.277,4.571,4.571,0,0,1,1.506,3.317H404.08a2.987,2.987,0,0,0-.932-2.022,2.9,2.9,0,0,0-2.068-.791,3.034,3.034,0,0,0-2.56,1.19,5.581,5.581,0,0,0-.909,3.439v.41a5.472,5.472,0,0,0,.9,3.375A3.046,3.046,0,0,0,401.092,458.915Z"/><path d="M413.83,460.685a5.539,5.539,0,0,1-4.195-1.694,6.284,6.284,0,0,1-1.617-4.529v-.4a7.619,7.619,0,0,1,.72-3.369,5.632,5.632,0,0,1,2.016-2.32,5.065,5.065,0,0,1,2.807-.838,4.748,4.748,0,0,1,3.843,1.629,7.054,7.054,0,0,1,1.371,4.664v.9h-8.589a4.509,4.509,0,0,0,1.1,3.03,3.445,3.445,0,0,0,2.666,1.154,3.775,3.775,0,0,0,1.946-.469,4.87,4.87,0,0,0,1.394-1.242l1.324,1.031A5.324,5.324,0,0,1,413.83,460.685Zm-.269-11.368a2.9,2.9,0,0,0-2.2.955,4.646,4.646,0,0,0-1.1,2.678h6.351v-.164a4.126,4.126,0,0,0-.89-2.56A2.721,2.721,0,0,0,413.561,449.317Z"/><path d="M227.666,553.95h-7.148l-1.606,4.465h-2.32l6.515-17.062h1.969l6.528,17.062H229.3Zm-6.469-1.84H227l-2.906-7.98Z"/><path d="M234.627,558.415v-11h-2v-1.676h2v-1.3a4.316,4.316,0,0,1,1.09-3.153,4.117,4.117,0,0,1,3.082-1.113,5.719,5.719,0,0,1,1.488.2l-.117,1.747a6.254,6.254,0,0,0-1.172-.105,2.117,2.117,0,0,0-1.629.617,2.505,2.505,0,0,0-.574,1.77v1.339H239.5v1.676H236.8v11Z"/><path d="M244.834,542.665v3.07H247.2v1.676h-2.367v7.873a1.761,1.761,0,0,0,.316,1.145,1.334,1.334,0,0,0,1.079.381,5.238,5.238,0,0,0,1.031-.141v1.748a6.335,6.335,0,0,1-1.664.232,2.7,2.7,0,0,1-2.192-.878,3.778,3.778,0,0,1-.738-2.5v-7.863h-2.309v-1.676h2.309v-3.07Z"/><path d="M254.994,558.649a5.538,5.538,0,0,1-4.195-1.693,6.286,6.286,0,0,1-1.617-4.529v-.4a7.616,7.616,0,0,1,.72-3.369,5.626,5.626,0,0,1,2.016-2.32,5.065,5.065,0,0,1,2.807-.838,4.748,4.748,0,0,1,3.843,1.629,7.054,7.054,0,0,1,1.371,4.664v.9H251.35a4.509,4.509,0,0,0,1.095,3.03,3.447,3.447,0,0,0,2.666,1.154,3.775,3.775,0,0,0,1.946-.469,4.87,4.87,0,0,0,1.394-1.242l1.324,1.031A5.323,5.323,0,0,1,254.994,558.649Zm-.269-11.367a2.9,2.9,0,0,0-2.2.955,4.652,4.652,0,0,0-1.1,2.678h6.351v-.164a4.129,4.129,0,0,0-.89-2.561A2.723,2.723,0,0,0,254.725,547.282Z"/><path d="M268.576,547.681a6.455,6.455,0,0,0-1.066-.082,2.857,2.857,0,0,0-2.895,1.816v9h-2.168v-12.68h2.11l.035,1.465a3.375,3.375,0,0,1,3.023-1.7,2.221,2.221,0,0,1,.961.164Z"/><path d="M276.521,542.372a1.3,1.3,0,0,1,.323-.891,1.21,1.21,0,0,1,.955-.363,1.23,1.23,0,0,1,.961.363,1.283,1.283,0,0,1,.328.891,1.236,1.236,0,0,1-.328.879,1.253,1.253,0,0,1-.961.352,1.233,1.233,0,0,1-.955-.352A1.25,1.25,0,0,1,276.521,542.372Zm2.344,16.043H276.7v-12.68h2.168Z"/><path d="M284.385,545.735l.07,1.594a4.62,4.62,0,0,1,3.8-1.828q4.02,0,4.055,4.535v8.379h-2.168v-8.391a2.921,2.921,0,0,0-.627-2.027,2.514,2.514,0,0,0-1.916-.656,3.13,3.13,0,0,0-1.852.562,3.827,3.827,0,0,0-1.242,1.477v9.035h-2.168v-12.68Z"/><path d="M298.518,542.665v3.07h2.367v1.676h-2.367v7.873a1.761,1.761,0,0,0,.316,1.145,1.332,1.332,0,0,0,1.078.381,5.229,5.229,0,0,0,1.031-.141v1.748a6.329,6.329,0,0,1-1.664.232,2.7,2.7,0,0,1-2.191-.878,3.778,3.778,0,0,1-.738-2.5v-7.863h-2.309v-1.676h2.309v-3.07Z"/><path d="M308.678,558.649a5.542,5.542,0,0,1-4.2-1.693,6.286,6.286,0,0,1-1.617-4.529v-.4a7.6,7.6,0,0,1,.721-3.369,5.612,5.612,0,0,1,2.016-2.32,5.061,5.061,0,0,1,2.806-.838,4.748,4.748,0,0,1,3.844,1.629,7.054,7.054,0,0,1,1.371,4.664v.9h-8.59a4.51,4.51,0,0,0,1.1,3.03,3.445,3.445,0,0,0,2.666,1.154,3.768,3.768,0,0,0,1.945-.469,4.886,4.886,0,0,0,1.395-1.242l1.324,1.031A5.324,5.324,0,0,1,308.678,558.649Zm-.27-11.367a2.894,2.894,0,0,0-2.2.955,4.639,4.639,0,0,0-1.1,2.678h6.351v-.164a4.123,4.123,0,0,0-.891-2.561A2.723,2.723,0,0,0,308.408,547.282Z"/><path d="M322.26,547.681a6.467,6.467,0,0,0-1.067-.082,2.856,2.856,0,0,0-2.894,1.816v9h-2.168v-12.68h2.109l.035,1.465a3.376,3.376,0,0,1,3.024-1.7,2.221,2.221,0,0,1,.961.164Z"/><path d="M325.494,558.415v-11h-2v-1.676h2v-1.3a4.316,4.316,0,0,1,1.09-3.153,4.118,4.118,0,0,1,3.082-1.113,5.719,5.719,0,0,1,1.488.2l-.117,1.747a6.254,6.254,0,0,0-1.172-.105,2.117,2.117,0,0,0-1.629.617,2.51,2.51,0,0,0-.574,1.77v1.339h2.707v1.676h-2.707v11Z"/><path d="M337.74,558.649a5.538,5.538,0,0,1-4.195-1.693,6.286,6.286,0,0,1-1.617-4.529v-.4a7.616,7.616,0,0,1,.72-3.369,5.626,5.626,0,0,1,2.016-2.32,5.065,5.065,0,0,1,2.807-.838,4.748,4.748,0,0,1,3.843,1.629,7.048,7.048,0,0,1,1.372,4.664v.9H334.1a4.509,4.509,0,0,0,1.095,3.03,3.447,3.447,0,0,0,2.666,1.154,3.775,3.775,0,0,0,1.946-.469,4.87,4.87,0,0,0,1.394-1.242l1.324,1.031A5.323,5.323,0,0,1,337.74,558.649Zm-.269-11.367a2.893,2.893,0,0,0-2.2.955,4.646,4.646,0,0,0-1.1,2.678h6.352v-.164a4.135,4.135,0,0,0-.891-2.561A2.723,2.723,0,0,0,337.471,547.282Z"/><path d="M351.322,547.681a6.455,6.455,0,0,0-1.066-.082,2.857,2.857,0,0,0-2.895,1.816v9h-2.168v-12.68h2.11l.035,1.465a3.375,3.375,0,0,1,3.023-1.7,2.218,2.218,0,0,1,.961.164Z"/><path d="M358.354,558.649a5.54,5.54,0,0,1-4.2-1.693,6.286,6.286,0,0,1-1.617-4.529v-.4a7.6,7.6,0,0,1,.721-3.369,5.616,5.616,0,0,1,2.015-2.32,5.067,5.067,0,0,1,2.807-.838,4.75,4.75,0,0,1,3.844,1.629,7.054,7.054,0,0,1,1.371,4.664v.9h-8.59a4.5,4.5,0,0,0,1.1,3.03,3.445,3.445,0,0,0,2.666,1.154,3.771,3.771,0,0,0,1.945-.469,4.886,4.886,0,0,0,1.395-1.242l1.324,1.031A5.324,5.324,0,0,1,358.354,558.649Zm-.27-11.367a2.894,2.894,0,0,0-2.2.955,4.646,4.646,0,0,0-1.1,2.678h6.352v-.164a4.135,4.135,0,0,0-.891-2.561A2.723,2.723,0,0,0,358.084,547.282Z"/><path d="M367.857,545.735l.071,1.594a4.618,4.618,0,0,1,3.8-1.828q4.018,0,4.054,4.535v8.379h-2.168v-8.391a2.911,2.911,0,0,0-.627-2.027,2.513,2.513,0,0,0-1.916-.656,3.127,3.127,0,0,0-1.851.562,3.818,3.818,0,0,0-1.242,1.477v9.035h-2.168v-12.68Z"/><path d="M384.135,556.88a3.121,3.121,0,0,0,2.027-.7,2.474,2.474,0,0,0,.961-1.758h2.051a3.928,3.928,0,0,1-.75,2.074,4.933,4.933,0,0,1-1.846,1.57,5.319,5.319,0,0,1-2.443.586,5.222,5.222,0,0,1-4.119-1.728,6.883,6.883,0,0,1-1.53-4.729v-.363a7.637,7.637,0,0,1,.68-3.293,5.177,5.177,0,0,1,1.951-2.238,5.547,5.547,0,0,1,3.006-.8,5.087,5.087,0,0,1,3.545,1.277,4.57,4.57,0,0,1,1.506,3.317h-2.051a2.985,2.985,0,0,0-.932-2.022,2.9,2.9,0,0,0-2.068-.791,3.036,3.036,0,0,0-2.561,1.19,5.588,5.588,0,0,0-.908,3.439v.41a5.472,5.472,0,0,0,.9,3.375A3.049,3.049,0,0,0,384.135,556.88Z"/><path d="M396.873,558.649a5.538,5.538,0,0,1-4.195-1.693,6.286,6.286,0,0,1-1.617-4.529v-.4a7.616,7.616,0,0,1,.72-3.369,5.626,5.626,0,0,1,2.016-2.32,5.065,5.065,0,0,1,2.807-.838,4.748,4.748,0,0,1,3.843,1.629,7.054,7.054,0,0,1,1.371,4.664v.9h-8.589a4.509,4.509,0,0,0,1.1,3.03,3.445,3.445,0,0,0,2.666,1.154,3.775,3.775,0,0,0,1.946-.469,4.87,4.87,0,0,0,1.394-1.242l1.324,1.031A5.323,5.323,0,0,1,396.873,558.649Zm-.269-11.367a2.9,2.9,0,0,0-2.2.955,4.646,4.646,0,0,0-1.1,2.678h6.351v-.164a4.129,4.129,0,0,0-.89-2.561A2.723,2.723,0,0,0,396.6,547.282Z"/><path d="M230.515,109.226H226.12v-9.141h-8.569v9.141h-4.395V87.9h4.395v8.643h8.569V87.9h4.395Z"/><path d="M233.415,101.155a9.4,9.4,0,0,1,.908-4.2,6.65,6.65,0,0,1,2.615-2.857,7.624,7.624,0,0,1,3.962-1.011,7.22,7.22,0,0,1,5.237,1.963,7.88,7.88,0,0,1,2.263,5.332l.03,1.084a8.284,8.284,0,0,1-2.036,5.852,7.893,7.893,0,0,1-10.936.008,8.432,8.432,0,0,1-2.043-5.977Zm4.233.3a5.928,5.928,0,0,0,.85,3.455,3.052,3.052,0,0,0,4.834.015,6.485,6.485,0,0,0,.864-3.778,5.867,5.867,0,0,0-.864-3.433A2.811,2.811,0,0,0,240.9,96.5a2.762,2.762,0,0,0-2.4,1.21A6.594,6.594,0,0,0,237.648,101.455Z"/><path d="M264.821,103.469l2.08-10.093h4.087l-4.043,15.85H263.4l-3-9.976-3,9.976h-3.531l-4.043-15.85h4.087l2.066,10.079,2.9-10.079h3.062Z"/><path d="M296.008,91.458h-6.533v17.768h-4.4V91.458h-6.445V87.9h17.373Z"/><path d="M294.528,101.155a9.392,9.392,0,0,1,.909-4.2,6.642,6.642,0,0,1,2.614-2.857,7.627,7.627,0,0,1,3.963-1.011,7.22,7.22,0,0,1,5.236,1.963,7.881,7.881,0,0,1,2.264,5.332l.029,1.084a8.284,8.284,0,0,1-2.036,5.852,7.893,7.893,0,0,1-10.936.008,8.432,8.432,0,0,1-2.043-5.977Zm4.234.3a5.928,5.928,0,0,0,.849,3.455,3.052,3.052,0,0,0,4.834.015,6.484,6.484,0,0,0,.865-3.778,5.867,5.867,0,0,0-.865-3.433,2.809,2.809,0,0,0-2.431-1.217,2.765,2.765,0,0,0-2.4,1.21A6.6,6.6,0,0,0,298.762,101.455Z"/><path d="M330.959,103.63a2.254,2.254,0,0,0-.879-1.911,11.536,11.536,0,0,0-3.164-1.407,22.494,22.494,0,0,1-3.618-1.457q-3.633-1.963-3.633-5.288a5.15,5.15,0,0,1,.974-3.084,6.354,6.354,0,0,1,2.8-2.116,10.526,10.526,0,0,1,4.094-.762,9.585,9.585,0,0,1,4.073.828,6.476,6.476,0,0,1,2.775,2.336,6.115,6.115,0,0,1,.989,3.428h-4.394a2.877,2.877,0,0,0-.923-2.278,3.794,3.794,0,0,0-2.593-.813,4.055,4.055,0,0,0-2.505.681,2.147,2.147,0,0,0-.893,1.795,2.057,2.057,0,0,0,1.046,1.743,11.877,11.877,0,0,0,3.084,1.318,13.324,13.324,0,0,1,5.464,2.8,5.57,5.57,0,0,1,1.714,4.16,5.13,5.13,0,0,1-2.095,4.343,9.167,9.167,0,0,1-5.639,1.575,10.886,10.886,0,0,1-4.483-.9,7.093,7.093,0,0,1-3.084-2.468,6.321,6.321,0,0,1-1.061-3.633h4.409q0,3.531,4.219,3.53a4.1,4.1,0,0,0,2.446-.637A2.073,2.073,0,0,0,330.959,103.63Z"/><path d="M343.82,102.869l-1.523,1.523v4.834h-4.234v-22.5H342.3V99.192l.82-1.055,4.058-4.761h5.083l-5.728,6.607,6.226,9.243h-4.863Z"/><path d="M361.091,109.519a7.782,7.782,0,0,1-5.677-2.139,7.6,7.6,0,0,1-2.189-5.7v-.41a9.577,9.577,0,0,1,.922-4.27,6.772,6.772,0,0,1,2.615-2.9,7.338,7.338,0,0,1,3.86-1.019,6.577,6.577,0,0,1,5.119,2.051,8.335,8.335,0,0,1,1.868,5.816v1.728H357.517a3.926,3.926,0,0,0,1.237,2.49,3.741,3.741,0,0,0,2.615.938,4.568,4.568,0,0,0,3.823-1.773l2.08,2.33a6.354,6.354,0,0,1-2.578,2.1A8.456,8.456,0,0,1,361.091,109.519ZM360.607,96.5a2.648,2.648,0,0,0-2.044.853,4.418,4.418,0,0,0-1,2.442h5.888v-.338a3.15,3.15,0,0,0-.761-2.185A2.731,2.731,0,0,0,360.607,96.5Z"/><path d="M375.08,89.48v3.9h2.71v3.106h-2.71v7.91a1.887,1.887,0,0,0,.337,1.26,1.692,1.692,0,0,0,1.289.381,6.687,6.687,0,0,0,1.245-.1v3.208a8.708,8.708,0,0,1-2.563.381q-4.454,0-4.541-4.5v-8.54h-2.315V93.376h2.315v-3.9Z"/><path d="M386.74,106.106a2.779,2.779,0,0,0,1.9-.645,2.255,2.255,0,0,0,.761-1.713h3.97a5.431,5.431,0,0,1-.879,2.951,5.794,5.794,0,0,1-2.366,2.08,7.407,7.407,0,0,1-3.318.74,6.88,6.88,0,0,1-5.361-2.161,8.552,8.552,0,0,1-1.963-5.969v-.278a8.451,8.451,0,0,1,1.949-5.845,6.8,6.8,0,0,1,5.346-2.183,6.666,6.666,0,0,1,4.768,1.692,6,6,0,0,1,1.824,4.5h-3.97a2.908,2.908,0,0,0-.761-2.01,2.832,2.832,0,0,0-4.168.305,6.249,6.249,0,0,0-.754,3.5v.44a6.33,6.33,0,0,0,.747,3.521A2.581,2.581,0,0,0,386.74,106.106Z"/><path d="M399.924,95.105a5.283,5.283,0,0,1,4.233-2.022q5.157,0,5.23,5.992v10.151h-4.234V99.192a2.942,2.942,0,0,0-.586-2.014,2.509,2.509,0,0,0-1.948-.652,2.88,2.88,0,0,0-2.7,1.435v11.265H395.69v-22.5h4.234Z"/><path d="M425,109.226h-4.395V87.9H425Z"/><path d="M432.692,93.376l.132,1.832a5.536,5.536,0,0,1,4.556-2.125,4.6,4.6,0,0,1,3.75,1.48,6.907,6.907,0,0,1,1.26,4.424v10.239h-4.234V99.089a2.743,2.743,0,0,0-.586-1.955,2.623,2.623,0,0,0-1.948-.608,2.914,2.914,0,0,0-2.681,1.523v11.177h-4.233V93.376Z"/><path d="M450.666,89.48v3.9h2.71v3.106h-2.71v7.91a1.887,1.887,0,0,0,.337,1.26,1.692,1.692,0,0,0,1.289.381,6.687,6.687,0,0,0,1.245-.1v3.208a8.708,8.708,0,0,1-2.563.381q-4.454,0-4.541-4.5v-8.54h-2.315V93.376h2.315v-3.9Z"/><path d="M463.029,109.519a7.778,7.778,0,0,1-5.676-2.139,7.6,7.6,0,0,1-2.19-5.7v-.41a9.577,9.577,0,0,1,.923-4.27,6.764,6.764,0,0,1,2.614-2.9,7.339,7.339,0,0,1,3.861-1.019,6.577,6.577,0,0,1,5.119,2.051,8.335,8.335,0,0,1,1.868,5.816v1.728H459.455a3.935,3.935,0,0,0,1.237,2.49,3.746,3.746,0,0,0,2.616.938,4.57,4.57,0,0,0,3.823-1.773l2.08,2.33a6.36,6.36,0,0,1-2.578,2.1A8.457,8.457,0,0,1,463.029,109.519ZM462.546,96.5a2.645,2.645,0,0,0-2.044.853,4.418,4.418,0,0,0-1,2.442h5.889v-.338a3.155,3.155,0,0,0-.762-2.185A2.729,2.729,0,0,0,462.546,96.5Z"/><path d="M480.856,97.346a11.516,11.516,0,0,0-1.523-.117q-2.4,0-3.149,1.626v10.371H471.95V93.376h4l.117,1.89a3.924,3.924,0,0,1,3.531-2.183,4.435,4.435,0,0,1,1.318.191Z"/><path d="M484.343,109.226V96.482h-2.359V93.376h2.359V92.029a5.471,5.471,0,0,1,1.53-4.138,5.928,5.928,0,0,1,4.285-1.473,9.924,9.924,0,0,1,2.154.293l-.044,3.282a5.4,5.4,0,0,0-1.289-.132q-2.388,0-2.388,2.241v1.274h3.149v3.106h-3.149v12.744Z"/><path d="M500.881,109.519a7.782,7.782,0,0,1-5.677-2.139,7.6,7.6,0,0,1-2.189-5.7v-.41a9.564,9.564,0,0,1,.923-4.27,6.764,6.764,0,0,1,2.614-2.9,7.338,7.338,0,0,1,3.86-1.019,6.577,6.577,0,0,1,5.119,2.051,8.335,8.335,0,0,1,1.868,5.816v1.728H497.307a3.926,3.926,0,0,0,1.237,2.49,3.741,3.741,0,0,0,2.615.938,4.568,4.568,0,0,0,3.823-1.773l2.08,2.33a6.354,6.354,0,0,1-2.578,2.1A8.456,8.456,0,0,1,500.881,109.519ZM500.4,96.5a2.644,2.644,0,0,0-2.043.853,4.411,4.411,0,0,0-1,2.442h5.888v-.338a3.15,3.15,0,0,0-.761-2.185A2.731,2.731,0,0,0,500.4,96.5Z"/><path d="M518.708,97.346a11.516,11.516,0,0,0-1.523-.117q-2.4,0-3.15,1.626v10.371H509.8V93.376h4l.117,1.89a3.923,3.923,0,0,1,3.53-2.183,4.441,4.441,0,0,1,1.319.191Z"/><path d="M527.761,109.519a7.782,7.782,0,0,1-5.677-2.139,7.6,7.6,0,0,1-2.189-5.7v-.41a9.577,9.577,0,0,1,.922-4.27,6.772,6.772,0,0,1,2.615-2.9,7.338,7.338,0,0,1,3.86-1.019,6.577,6.577,0,0,1,5.119,2.051,8.335,8.335,0,0,1,1.868,5.816v1.728H524.187a3.926,3.926,0,0,0,1.237,2.49,3.741,3.741,0,0,0,2.615.938,4.568,4.568,0,0,0,3.823-1.773l2.08,2.33a6.354,6.354,0,0,1-2.578,2.1A8.456,8.456,0,0,1,527.761,109.519ZM527.277,96.5a2.648,2.648,0,0,0-2.044.853,4.426,4.426,0,0,0-1,2.442h5.889v-.338a3.146,3.146,0,0,0-.762-2.185A2.728,2.728,0,0,0,527.277,96.5Z"/><path d="M540.578,93.376l.132,1.832a5.534,5.534,0,0,1,4.556-2.125,4.6,4.6,0,0,1,3.75,1.48,6.9,6.9,0,0,1,1.259,4.424v10.239h-4.233V99.089a2.743,2.743,0,0,0-.586-1.955,2.624,2.624,0,0,0-1.948-.608,2.913,2.913,0,0,0-2.681,1.523v11.177h-4.233V93.376Z"/><path d="M560.075,106.106a2.775,2.775,0,0,0,1.9-.645,2.253,2.253,0,0,0,.762-1.713h3.97a5.431,5.431,0,0,1-.879,2.951,5.794,5.794,0,0,1-2.366,2.08,7.407,7.407,0,0,1-3.318.74,6.88,6.88,0,0,1-5.361-2.161,8.552,8.552,0,0,1-1.963-5.969v-.278a8.456,8.456,0,0,1,1.948-5.845,6.8,6.8,0,0,1,5.347-2.183,6.666,6.666,0,0,1,4.768,1.692,6,6,0,0,1,1.824,4.5h-3.97a2.9,2.9,0,0,0-.762-2.01,2.831,2.831,0,0,0-4.167.305,6.249,6.249,0,0,0-.754,3.5v.44a6.33,6.33,0,0,0,.747,3.521A2.581,2.581,0,0,0,560.075,106.106Z"/><path d="M576.423,109.519a7.782,7.782,0,0,1-5.677-2.139,7.6,7.6,0,0,1-2.189-5.7v-.41a9.577,9.577,0,0,1,.922-4.27,6.772,6.772,0,0,1,2.615-2.9,7.338,7.338,0,0,1,3.86-1.019,6.577,6.577,0,0,1,5.119,2.051,8.335,8.335,0,0,1,1.868,5.816v1.728H572.849a3.926,3.926,0,0,0,1.237,2.49,3.741,3.741,0,0,0,2.615.938,4.568,4.568,0,0,0,3.823-1.773l2.08,2.33a6.354,6.354,0,0,1-2.578,2.1A8.456,8.456,0,0,1,576.423,109.519ZM575.939,96.5a2.644,2.644,0,0,0-2.043.853,4.411,4.411,0,0,0-1,2.442h5.888v-.338a3.15,3.15,0,0,0-.761-2.185A2.731,2.731,0,0,0,575.939,96.5Z"/><path d="M609.7,103.074,612.575,87.9h4.38l-4.731,21.328H607.8l-3.472-14.268-3.472,14.268h-4.423L591.7,87.9h4.38l2.886,15.146L602.482,87.9H606.2Z"/><path d="M623.181,95.105a5.283,5.283,0,0,1,4.233-2.022q5.157,0,5.23,5.992v10.151H628.41V99.192a2.942,2.942,0,0,0-.586-2.014,2.509,2.509,0,0,0-1.948-.652,2.88,2.88,0,0,0-2.695,1.435v11.265h-4.234v-22.5h4.234Z"/><path d="M643.132,109.519a7.782,7.782,0,0,1-5.677-2.139,7.6,7.6,0,0,1-2.189-5.7v-.41a9.577,9.577,0,0,1,.922-4.27,6.772,6.772,0,0,1,2.615-2.9,7.338,7.338,0,0,1,3.86-1.019,6.577,6.577,0,0,1,5.119,2.051,8.335,8.335,0,0,1,1.868,5.816v1.728H639.558a3.926,3.926,0,0,0,1.237,2.49,3.741,3.741,0,0,0,2.615.938,4.568,4.568,0,0,0,3.823-1.773l2.08,2.33a6.354,6.354,0,0,1-2.578,2.1A8.456,8.456,0,0,1,643.132,109.519ZM642.648,96.5a2.648,2.648,0,0,0-2.044.853,4.418,4.418,0,0,0-1,2.442h5.888v-.338a3.15,3.15,0,0,0-.761-2.185A2.731,2.731,0,0,0,642.648,96.5Z"/><path d="M655.949,93.376l.132,1.832a5.534,5.534,0,0,1,4.556-2.125,4.6,4.6,0,0,1,3.75,1.48,6.9,6.9,0,0,1,1.259,4.424v10.239h-4.233V99.089a2.743,2.743,0,0,0-.586-1.955,2.623,2.623,0,0,0-1.948-.608,2.914,2.914,0,0,0-2.681,1.523v11.177h-4.233V93.376Z"/><path d="M684.5,101.418H681v7.808H676.6V87.9h7.924a8.952,8.952,0,0,1,5.83,1.685,5.81,5.81,0,0,1,2.051,4.76,6.559,6.559,0,0,1-.945,3.64,6.441,6.441,0,0,1-2.863,2.322l4.614,8.716v.2H688.5ZM681,97.859h3.545a3.631,3.631,0,0,0,2.563-.842,3.011,3.011,0,0,0,.909-2.322,3.22,3.22,0,0,0-.858-2.373,3.56,3.56,0,0,0-2.629-.864H681Z"/><path d="M702.766,109.519a7.781,7.781,0,0,1-5.677-2.139,7.6,7.6,0,0,1-2.19-5.7v-.41a9.577,9.577,0,0,1,.923-4.27,6.772,6.772,0,0,1,2.615-2.9,7.336,7.336,0,0,1,3.86-1.019,6.577,6.577,0,0,1,5.119,2.051,8.335,8.335,0,0,1,1.868,5.816v1.728H699.191a3.932,3.932,0,0,0,1.238,2.49,3.741,3.741,0,0,0,2.615.938,4.568,4.568,0,0,0,3.823-1.773l2.08,2.33a6.36,6.36,0,0,1-2.578,2.1A8.456,8.456,0,0,1,702.766,109.519ZM702.282,96.5a2.646,2.646,0,0,0-2.044.853,4.426,4.426,0,0,0-1,2.442h5.889v-.338a3.15,3.15,0,0,0-.762-2.185A2.728,2.728,0,0,0,702.282,96.5Z"/><path d="M718.278,106.106a2.777,2.777,0,0,0,1.9-.645,2.255,2.255,0,0,0,.761-1.713h3.97a5.431,5.431,0,0,1-.879,2.951,5.794,5.794,0,0,1-2.366,2.08,7.406,7.406,0,0,1-3.317.74,6.881,6.881,0,0,1-5.362-2.161,8.552,8.552,0,0,1-1.963-5.969v-.278a8.451,8.451,0,0,1,1.949-5.845,6.8,6.8,0,0,1,5.346-2.183,6.665,6.665,0,0,1,4.768,1.692,5.991,5.991,0,0,1,1.824,4.5h-3.97a2.908,2.908,0,0,0-.761-2.01,2.832,2.832,0,0,0-4.168.305,6.249,6.249,0,0,0-.754,3.5v.44a6.33,6.33,0,0,0,.747,3.521A2.581,2.581,0,0,0,718.278,106.106Z"/><path d="M732.4,89.48v3.9h2.71v3.106H732.4v7.91a1.893,1.893,0,0,0,.337,1.26,1.693,1.693,0,0,0,1.289.381,6.706,6.706,0,0,0,1.246-.1v3.208a8.72,8.72,0,0,1-2.564.381q-4.453,0-4.541-4.5v-8.54h-2.314V93.376h2.314v-3.9Z"/><path d="M746.652,109.226a4.682,4.682,0,0,1-.424-1.421,5.123,5.123,0,0,1-4,1.714,5.628,5.628,0,0,1-3.861-1.348,4.334,4.334,0,0,1-1.53-3.4,4.478,4.478,0,0,1,1.867-3.867,9.216,9.216,0,0,1,5.4-1.363h1.948v-.908a2.614,2.614,0,0,0-.565-1.758,2.218,2.218,0,0,0-1.779-.659,2.525,2.525,0,0,0-1.678.513,1.743,1.743,0,0,0-.607,1.406h-4.234a4.258,4.258,0,0,1,.85-2.549,5.612,5.612,0,0,1,2.4-1.838,8.768,8.768,0,0,1,3.487-.667,6.912,6.912,0,0,1,4.65,1.473,5.148,5.148,0,0,1,1.722,4.138v6.87a7.58,7.58,0,0,0,.63,3.413v.249Zm-3.5-2.944a3.639,3.639,0,0,0,1.729-.418,2.746,2.746,0,0,0,1.172-1.12v-2.725H744.47q-3.178,0-3.384,2.2l-.015.249a1.7,1.7,0,0,0,.557,1.3A2.161,2.161,0,0,0,743.151,106.282Z"/><path d="M757.448,93.376l.132,1.832a5.534,5.534,0,0,1,4.556-2.125,4.6,4.6,0,0,1,3.75,1.48,6.907,6.907,0,0,1,1.26,4.424v10.239h-4.234V99.089a2.743,2.743,0,0,0-.586-1.955,2.623,2.623,0,0,0-1.948-.608,2.914,2.914,0,0,0-2.681,1.523v11.177h-4.233V93.376Z"/><path d="M769.738,101.184a9.283,9.283,0,0,1,1.736-5.874,5.625,5.625,0,0,1,4.68-2.227,4.932,4.932,0,0,1,4.058,1.788l.176-1.495h3.838V108.7a6.774,6.774,0,0,1-.946,3.618,6.067,6.067,0,0,1-2.658,2.344,9.349,9.349,0,0,1-4.014.8,8.7,8.7,0,0,1-3.4-.695,6.032,6.032,0,0,1-2.5-1.8l1.875-2.578a4.958,4.958,0,0,0,3.838,1.772,3.632,3.632,0,0,0,2.622-.9,3.381,3.381,0,0,0,.938-2.557v-.849a4.9,4.9,0,0,1-3.853,1.655,5.612,5.612,0,0,1-4.622-2.234,9.283,9.283,0,0,1-1.765-5.925Zm4.234.315a5.787,5.787,0,0,0,.864,3.382,2.748,2.748,0,0,0,2.373,1.225,2.94,2.94,0,0,0,2.769-1.453V97.979a2.933,2.933,0,0,0-2.74-1.453,2.768,2.768,0,0,0-2.4,1.247A6.52,6.52,0,0,0,773.972,101.5Z"/><path d="M796.97,107.615a5.311,5.311,0,0,1-4.336,1.9,5.008,5.008,0,0,1-3.89-1.465,6.257,6.257,0,0,1-1.369-4.292V93.376h4.233v10.251q0,2.48,2.256,2.479a3.057,3.057,0,0,0,2.959-1.5V93.376h4.248v15.85h-3.984Z"/><path d="M808.732,109.226h-4.248v-22.5h4.248Z"/><path d="M821.4,109.226a4.682,4.682,0,0,1-.424-1.421,5.123,5.123,0,0,1-4,1.714,5.627,5.627,0,0,1-3.86-1.348,4.334,4.334,0,0,1-1.53-3.4,4.478,4.478,0,0,1,1.867-3.867,9.214,9.214,0,0,1,5.4-1.363H820.8v-.908a2.614,2.614,0,0,0-.565-1.758,2.218,2.218,0,0,0-1.779-.659,2.525,2.525,0,0,0-1.678.513,1.743,1.743,0,0,0-.607,1.406H811.94a4.258,4.258,0,0,1,.85-2.549,5.612,5.612,0,0,1,2.4-1.838,8.768,8.768,0,0,1,3.487-.667,6.912,6.912,0,0,1,4.65,1.473,5.148,5.148,0,0,1,1.722,4.138v6.87a7.58,7.58,0,0,0,.63,3.413v.249Zm-3.5-2.944a3.639,3.639,0,0,0,1.729-.418,2.746,2.746,0,0,0,1.172-1.12v-2.725h-1.582q-3.178,0-3.384,2.2l-.015.249a1.7,1.7,0,0,0,.557,1.3A2.161,2.161,0,0,0,817.9,106.282Z"/><path d="M837.209,97.346a11.516,11.516,0,0,0-1.523-.117q-2.4,0-3.15,1.626v10.371H828.3V93.376h4l.117,1.89a3.923,3.923,0,0,1,3.53-2.183,4.441,4.441,0,0,1,1.319.191Z"/><path d="M863.737,102.122a7.546,7.546,0,0,1-2.542,5.42,8.926,8.926,0,0,1-6.042,1.977,8.027,8.027,0,0,1-6.453-2.761,11.325,11.325,0,0,1-2.35-7.581v-1.3a12.778,12.778,0,0,1,1.084-5.42,8.115,8.115,0,0,1,3.1-3.6,9.683,9.683,0,0,1,10.628.726,8.11,8.11,0,0,1,2.608,5.551h-4.4a4.451,4.451,0,0,0-1.15-3,4.259,4.259,0,0,0-3.01-.931,3.734,3.734,0,0,0-3.289,1.575,8.817,8.817,0,0,0-1.12,4.885V99.28a9.436,9.436,0,0,0,1.047,5.053,3.663,3.663,0,0,0,3.3,1.6,4.337,4.337,0,0,0,3.039-.93,4.2,4.2,0,0,0,1.151-2.878Z"/><path d="M875.251,97.346a11.516,11.516,0,0,0-1.523-.117q-2.4,0-3.15,1.626v10.371h-4.233V93.376h4l.117,1.89a3.923,3.923,0,0,1,3.53-2.183,4.441,4.441,0,0,1,1.319.191Z"/><path d="M884.3,109.519a7.781,7.781,0,0,1-5.677-2.139,7.6,7.6,0,0,1-2.189-5.7v-.41A9.577,9.577,0,0,1,877.36,97a6.772,6.772,0,0,1,2.615-2.9,7.338,7.338,0,0,1,3.86-1.019,6.577,6.577,0,0,1,5.119,2.051,8.335,8.335,0,0,1,1.868,5.816v1.728H880.729a3.932,3.932,0,0,0,1.238,2.49,3.741,3.741,0,0,0,2.615.938,4.568,4.568,0,0,0,3.823-1.773l2.08,2.33a6.354,6.354,0,0,1-2.578,2.1A8.456,8.456,0,0,1,884.3,109.519ZM883.82,96.5a2.646,2.646,0,0,0-2.044.853,4.426,4.426,0,0,0-1,2.442h5.889v-.338a3.146,3.146,0,0,0-.762-2.185A2.728,2.728,0,0,0,883.82,96.5Z"/><path d="M901.809,104.846a1.365,1.365,0,0,0-.77-1.223,8.719,8.719,0,0,0-2.468-.8q-5.654-1.186-5.654-4.805a4.354,4.354,0,0,1,1.75-3.523,7.064,7.064,0,0,1,4.578-1.414,7.6,7.6,0,0,1,4.826,1.421,4.481,4.481,0,0,1,1.81,3.692h-4.234a2.051,2.051,0,0,0-.585-1.5,2.483,2.483,0,0,0-1.832-.593,2.537,2.537,0,0,0-1.655.483,1.53,1.53,0,0,0-.586,1.231,1.3,1.3,0,0,0,.666,1.135,6.875,6.875,0,0,0,2.249.747,18.288,18.288,0,0,1,2.666.711q3.356,1.23,3.355,4.262a4.134,4.134,0,0,1-1.861,3.509,8.026,8.026,0,0,1-4.8,1.34,8.393,8.393,0,0,1-3.538-.71,5.928,5.928,0,0,1-2.424-1.949,4.525,4.525,0,0,1-.879-2.673h4.014a2.21,2.21,0,0,0,.835,1.729,3.313,3.313,0,0,0,2.08.6,3.07,3.07,0,0,0,1.838-.461A1.438,1.438,0,0,0,901.809,104.846Z"/><path d="M913.718,89.48v3.9h2.71v3.106h-2.71v7.91a1.887,1.887,0,0,0,.337,1.26,1.69,1.69,0,0,0,1.289.381,6.7,6.7,0,0,0,1.245-.1v3.208a8.715,8.715,0,0,1-2.564.381q-4.452,0-4.541-4.5v-8.54H907.17V93.376h2.314v-3.9Z"/><path d="M388.388,145.226a4.681,4.681,0,0,1-.425-1.421,5.121,5.121,0,0,1-4,1.714,5.626,5.626,0,0,1-3.86-1.348,4.335,4.335,0,0,1-1.531-3.4,4.478,4.478,0,0,1,1.868-3.867,9.214,9.214,0,0,1,5.4-1.363h1.948v-.908a2.614,2.614,0,0,0-.563-1.758,2.222,2.222,0,0,0-1.781-.659,2.517,2.517,0,0,0-1.676.513,1.741,1.741,0,0,0-.609,1.406h-4.233a4.257,4.257,0,0,1,.849-2.549,5.621,5.621,0,0,1,2.4-1.838,8.759,8.759,0,0,1,3.486-.667,6.914,6.914,0,0,1,4.651,1.473,5.148,5.148,0,0,1,1.721,4.138v6.87a7.58,7.58,0,0,0,.63,3.413v.249Zm-3.5-2.944a3.636,3.636,0,0,0,1.728-.418,2.74,2.74,0,0,0,1.172-1.12v-2.725h-1.582q-3.178,0-3.384,2.2l-.014.249a1.7,1.7,0,0,0,.556,1.3A2.162,2.162,0,0,0,384.887,142.282Z"/><path d="M399.184,129.376l.131,1.832a5.536,5.536,0,0,1,4.556-2.125,4.6,4.6,0,0,1,3.75,1.48,6.907,6.907,0,0,1,1.26,4.424v10.239h-4.234V135.089a2.748,2.748,0,0,0-.585-1.955,2.627,2.627,0,0,0-1.949-.608,2.912,2.912,0,0,0-2.68,1.523v11.177H395.2v-15.85Z"/><path d="M411.43,137.184a9.547,9.547,0,0,1,1.663-5.9,5.393,5.393,0,0,1,4.548-2.2,4.856,4.856,0,0,1,3.823,1.729v-8.086h4.248v22.5h-3.823l-.2-1.684a4.984,4.984,0,0,1-4.073,1.977,5.379,5.379,0,0,1-4.489-2.205A9.857,9.857,0,0,1,411.43,137.184Zm4.233.315a6.259,6.259,0,0,0,.776,3.418,2.529,2.529,0,0,0,2.256,1.189,2.833,2.833,0,0,0,2.769-1.658v-6.264a2.793,2.793,0,0,0-2.739-1.658Q415.664,132.526,415.663,137.5Z"/><path d="M451.918,127.458h-6.533v17.768H440.99V127.458h-6.445V123.9h17.373Z"/><path d="M462.1,133.346a11.53,11.53,0,0,0-1.524-.117q-2.4,0-3.149,1.626v10.371h-4.234v-15.85h4l.118,1.89a3.922,3.922,0,0,1,3.53-2.183,4.43,4.43,0,0,1,1.318.191Z"/><path d="M464.105,125.275a2.083,2.083,0,0,1,.638-1.567,2.743,2.743,0,0,1,3.464,0,2.236,2.236,0,0,1-.007,3.149,2.716,2.716,0,0,1-3.442,0A2.078,2.078,0,0,1,464.105,125.275Zm4.5,19.951h-4.249v-15.85H468.6Z"/><path d="M481.273,145.226a4.711,4.711,0,0,1-.424-1.421,5.123,5.123,0,0,1-4,1.714,5.626,5.626,0,0,1-3.86-1.348,4.335,4.335,0,0,1-1.531-3.4,4.478,4.478,0,0,1,1.868-3.867,9.212,9.212,0,0,1,5.4-1.363h1.948v-.908a2.614,2.614,0,0,0-.564-1.758,2.22,2.22,0,0,0-1.78-.659,2.522,2.522,0,0,0-1.677.513,1.743,1.743,0,0,0-.608,1.406h-4.233a4.257,4.257,0,0,1,.849-2.549,5.618,5.618,0,0,1,2.4-1.838,8.768,8.768,0,0,1,3.487-.667,6.914,6.914,0,0,1,4.651,1.473,5.148,5.148,0,0,1,1.721,4.138v6.87a7.58,7.58,0,0,0,.63,3.413v.249Zm-3.5-2.944a3.639,3.639,0,0,0,1.729-.418,2.746,2.746,0,0,0,1.172-1.12v-2.725h-1.582q-3.179,0-3.384,2.2l-.015.249a1.7,1.7,0,0,0,.557,1.3A2.161,2.161,0,0,0,477.772,142.282Z"/><path d="M492.069,129.376l.132,1.832a5.536,5.536,0,0,1,4.556-2.125,4.6,4.6,0,0,1,3.75,1.48,6.907,6.907,0,0,1,1.26,4.424v10.239h-4.234V135.089a2.743,2.743,0,0,0-.586-1.955,2.623,2.623,0,0,0-1.948-.608,2.914,2.914,0,0,0-2.681,1.523v11.177h-4.233v-15.85Z"/><path d="M504.359,137.184a9.283,9.283,0,0,1,1.737-5.874,5.623,5.623,0,0,1,4.679-2.227,4.932,4.932,0,0,1,4.058,1.788l.176-1.5h3.838V144.7a6.773,6.773,0,0,1-.945,3.618,6.069,6.069,0,0,1-2.659,2.344,9.345,9.345,0,0,1-4.014.805,8.706,8.706,0,0,1-3.4-.7,6.045,6.045,0,0,1-2.5-1.795L507.2,146.4a4.958,4.958,0,0,0,3.838,1.772,3.632,3.632,0,0,0,2.622-.9,3.381,3.381,0,0,0,.938-2.557v-.849a4.9,4.9,0,0,1-3.853,1.655,5.61,5.61,0,0,1-4.621-2.234,9.284,9.284,0,0,1-1.766-5.925Zm4.234.315a5.787,5.787,0,0,0,.864,3.382,2.748,2.748,0,0,0,2.373,1.225,2.94,2.94,0,0,0,2.769-1.453v-6.674a2.933,2.933,0,0,0-2.74-1.453,2.766,2.766,0,0,0-2.394,1.247A6.519,6.519,0,0,0,508.593,137.5Z"/><path d="M531.591,143.615a5.31,5.31,0,0,1-4.336,1.9,5.006,5.006,0,0,1-3.889-1.465,6.257,6.257,0,0,1-1.37-4.292V129.376h4.233v10.251q0,2.479,2.256,2.479a3.057,3.057,0,0,0,2.959-1.5V129.376h4.248v15.85h-3.984Z"/><path d="M543.354,145.226h-4.249v-22.5h4.249Z"/><path d="M556.024,145.226a4.711,4.711,0,0,1-.424-1.421,5.123,5.123,0,0,1-4,1.714,5.626,5.626,0,0,1-3.86-1.348,4.335,4.335,0,0,1-1.531-3.4,4.478,4.478,0,0,1,1.868-3.867,9.212,9.212,0,0,1,5.4-1.363h1.948v-.908a2.614,2.614,0,0,0-.564-1.758,2.22,2.22,0,0,0-1.78-.659,2.522,2.522,0,0,0-1.677.513,1.743,1.743,0,0,0-.608,1.406h-4.233a4.257,4.257,0,0,1,.849-2.549,5.618,5.618,0,0,1,2.4-1.838,8.768,8.768,0,0,1,3.487-.667,6.914,6.914,0,0,1,4.651,1.473,5.148,5.148,0,0,1,1.721,4.138v6.87a7.58,7.58,0,0,0,.63,3.413v.249Zm-3.5-2.944a3.639,3.639,0,0,0,1.729-.418,2.746,2.746,0,0,0,1.172-1.12v-2.725h-1.582q-3.179,0-3.384,2.2l-.015.249a1.7,1.7,0,0,0,.557,1.3A2.161,2.161,0,0,0,552.523,142.282Z"/><path d="M571.83,133.346a11.516,11.516,0,0,0-1.523-.117q-2.4,0-3.15,1.626v10.371h-4.233v-15.85h4l.117,1.89a3.923,3.923,0,0,1,3.53-2.183,4.437,4.437,0,0,1,1.319.191Z"/><path d="M596.791,127.458h-6.533v17.768h-4.395V127.458h-6.445V123.9h17.373Z"/><path d="M606.972,133.346a11.518,11.518,0,0,0-1.524-.117q-2.4,0-3.149,1.626v10.371h-4.234v-15.85h4l.118,1.89a3.922,3.922,0,0,1,3.53-2.183,4.43,4.43,0,0,1,1.318.191Z"/><path d="M607.821,137.155a9.4,9.4,0,0,1,.908-4.2,6.652,6.652,0,0,1,2.616-2.857,7.624,7.624,0,0,1,3.962-1.011,7.222,7.222,0,0,1,5.237,1.963,7.885,7.885,0,0,1,2.263,5.332l.029,1.084a8.284,8.284,0,0,1-2.036,5.852,7.891,7.891,0,0,1-10.935.008,8.432,8.432,0,0,1-2.044-5.977Zm4.234.3a5.928,5.928,0,0,0,.849,3.455,3.052,3.052,0,0,0,4.834.015,6.484,6.484,0,0,0,.865-3.778,5.867,5.867,0,0,0-.865-3.433,2.809,2.809,0,0,0-2.431-1.217,2.764,2.764,0,0,0-2.4,1.21A6.6,6.6,0,0,0,612.055,137.455Z"/><path d="M634.936,143.615a5.311,5.311,0,0,1-4.336,1.9,5,5,0,0,1-3.889-1.465,6.247,6.247,0,0,1-1.37-4.292V129.376h4.233v10.251q0,2.479,2.256,2.479a3.057,3.057,0,0,0,2.959-1.5V129.376h4.248v15.85h-3.984Z"/><path d="M641.615,137.184a9.283,9.283,0,0,1,1.737-5.874,5.623,5.623,0,0,1,4.679-2.227,4.932,4.932,0,0,1,4.058,1.788l.176-1.5H656.1V144.7a6.773,6.773,0,0,1-.945,3.618,6.069,6.069,0,0,1-2.659,2.344,9.349,9.349,0,0,1-4.014.805,8.7,8.7,0,0,1-3.4-.7,6.032,6.032,0,0,1-2.5-1.795l1.875-2.578a4.958,4.958,0,0,0,3.838,1.772,3.632,3.632,0,0,0,2.622-.9,3.381,3.381,0,0,0,.937-2.557v-.849A4.9,4.9,0,0,1,648,145.519a5.61,5.61,0,0,1-4.621-2.234,9.284,9.284,0,0,1-1.766-5.925Zm4.234.315a5.787,5.787,0,0,0,.864,3.382,2.748,2.748,0,0,0,2.373,1.225,2.937,2.937,0,0,0,2.768-1.453v-6.674a2.931,2.931,0,0,0-2.739-1.453,2.766,2.766,0,0,0-2.394,1.247A6.519,6.519,0,0,0,645.849,137.5Z"/><path d="M663.485,131.1a5.285,5.285,0,0,1,4.234-2.022q5.155,0,5.229,5.992v10.151h-4.233V135.192a2.942,2.942,0,0,0-.586-2.014,2.511,2.511,0,0,0-1.948-.652,2.882,2.882,0,0,0-2.7,1.435v11.265h-4.233v-22.5h4.233Z"/><path d="M689.633,123.9l5.478,15.469,5.45-15.469h5.771v21.328h-4.409V139.4l.439-10.063-5.757,15.893h-3.017l-5.742-15.879.439,10.049v5.83h-4.394V123.9Z"/><path d="M717.187,145.519a7.778,7.778,0,0,1-5.676-2.139,7.6,7.6,0,0,1-2.191-5.7v-.41a9.577,9.577,0,0,1,.923-4.27,6.766,6.766,0,0,1,2.615-2.9,7.336,7.336,0,0,1,3.86-1.019,6.579,6.579,0,0,1,5.12,2.051,8.334,8.334,0,0,1,1.867,5.816v1.728H713.612a3.933,3.933,0,0,0,1.239,2.49,3.739,3.739,0,0,0,2.614.938,4.568,4.568,0,0,0,3.823-1.773l2.08,2.33a6.36,6.36,0,0,1-2.578,2.1A8.456,8.456,0,0,1,717.187,145.519ZM716.7,132.5a2.644,2.644,0,0,0-2.043.853,4.426,4.426,0,0,0-1,2.442h5.889v-.338a3.155,3.155,0,0,0-.762-2.185A2.728,2.728,0,0,0,716.7,132.5Z"/><path d="M733.4,145.519a7.777,7.777,0,0,1-5.675-2.139,7.6,7.6,0,0,1-2.191-5.7v-.41a9.577,9.577,0,0,1,.923-4.27,6.766,6.766,0,0,1,2.615-2.9,7.336,7.336,0,0,1,3.86-1.019,6.579,6.579,0,0,1,5.12,2.051,8.334,8.334,0,0,1,1.867,5.816v1.728H729.828a3.936,3.936,0,0,0,1.238,2.49,3.743,3.743,0,0,0,2.615.938,4.568,4.568,0,0,0,3.823-1.773l2.08,2.33a6.36,6.36,0,0,1-2.578,2.1A8.457,8.457,0,0,1,733.4,145.519Zm-.483-13.022a2.643,2.643,0,0,0-2.043.853,4.426,4.426,0,0,0-1,2.442h5.889v-.338a3.155,3.155,0,0,0-.762-2.185A2.729,2.729,0,0,0,732.919,132.5Z"/><path d="M747.392,125.48v3.9h2.71v3.106h-2.71v7.91a1.887,1.887,0,0,0,.337,1.26,1.69,1.69,0,0,0,1.289.381,6.7,6.7,0,0,0,1.245-.1v3.208a8.715,8.715,0,0,1-2.564.381q-4.453,0-4.541-4.5v-8.54h-2.314v-3.106h2.314v-3.9Z"/><path d="M226.139,356.5l4.453-8.566h2.554l-5.882,10.7V365h-2.25v-6.363l-5.883-10.7h2.578Z"/><path d="M233.674,358.543a7.5,7.5,0,0,1,.732-3.352,5.467,5.467,0,0,1,2.039-2.3,5.545,5.545,0,0,1,2.983-.809,5.348,5.348,0,0,1,4.189,1.793,6.894,6.894,0,0,1,1.6,4.769v.153a7.562,7.562,0,0,1-.709,3.322,5.384,5.384,0,0,1-2.028,2.291,5.609,5.609,0,0,1-3.029.82,5.333,5.333,0,0,1-4.178-1.793,6.864,6.864,0,0,1-1.6-4.746Zm2.18.258a5.429,5.429,0,0,0,.978,3.387,3.316,3.316,0,0,0,5.244-.018,5.927,5.927,0,0,0,.973-3.627,5.415,5.415,0,0,0-.99-3.381,3.151,3.151,0,0,0-2.631-1.295,3.112,3.112,0,0,0-2.59,1.278A5.887,5.887,0,0,0,235.854,358.8Z"/><path d="M255.764,363.746a4.606,4.606,0,0,1-3.715,1.488,3.941,3.941,0,0,1-3.088-1.177,5.1,5.1,0,0,1-1.072-3.487v-8.25h2.168v8.192q0,2.883,2.343,2.883a3.246,3.246,0,0,0,3.305-1.852V352.32h2.168V365h-2.062Z"/><path d="M267.3,354.266a6.464,6.464,0,0,0-1.066-.082A2.857,2.857,0,0,0,263.334,356v9h-2.168V352.32h2.109l.036,1.465a3.373,3.373,0,0,1,3.023-1.7,2.221,2.221,0,0,1,.961.164Z"/><path d="M281.357,354.266a6.455,6.455,0,0,0-1.066-.082A2.857,2.857,0,0,0,277.4,356v9h-2.167V352.32h2.109l.035,1.465a3.375,3.375,0,0,1,3.023-1.7,2.218,2.218,0,0,1,.961.164Z"/><path d="M282.541,358.543a7.5,7.5,0,0,1,.732-3.352,5.467,5.467,0,0,1,2.039-2.3,5.547,5.547,0,0,1,2.983-.809,5.348,5.348,0,0,1,4.189,1.793,6.894,6.894,0,0,1,1.6,4.769v.153a7.548,7.548,0,0,1-.709,3.322,5.382,5.382,0,0,1-2.027,2.291,5.615,5.615,0,0,1-3.03.82,5.331,5.331,0,0,1-4.177-1.793,6.859,6.859,0,0,1-1.6-4.746Zm2.18.258a5.429,5.429,0,0,0,.978,3.387,3.316,3.316,0,0,0,5.244-.018,5.927,5.927,0,0,0,.973-3.627,5.415,5.415,0,0,0-.99-3.381,3.149,3.149,0,0,0-2.631-1.295,3.113,3.113,0,0,0-2.59,1.278A5.887,5.887,0,0,0,284.721,358.8Z"/><path d="M304.631,363.746a4.606,4.606,0,0,1-3.715,1.488,3.941,3.941,0,0,1-3.088-1.177,5.1,5.1,0,0,1-1.072-3.487v-8.25h2.168v8.192q0,2.883,2.344,2.883a3.245,3.245,0,0,0,3.3-1.852V352.32h2.168V365h-2.062Z"/><path d="M309.518,358.555a7.452,7.452,0,0,1,1.371-4.717,4.727,4.727,0,0,1,7.254-.111l.105-1.407h1.981V364.7a5.16,5.16,0,0,1-1.459,3.879,5.383,5.383,0,0,1-3.92,1.418,6.518,6.518,0,0,1-2.684-.586,4.62,4.62,0,0,1-2-1.605l1.125-1.3a4.242,4.242,0,0,0,3.41,1.723,3.321,3.321,0,0,0,2.467-.891,3.4,3.4,0,0,0,.885-2.508v-1.09a4.456,4.456,0,0,1-3.551,1.5,4.328,4.328,0,0,1-3.6-1.793A7.833,7.833,0,0,1,309.518,358.555Zm2.179.246a5.685,5.685,0,0,0,.879,3.369,2.857,2.857,0,0,0,2.461,1.225,3.178,3.178,0,0,0,3.012-1.864v-5.789a3.212,3.212,0,0,0-2.988-1.816,2.882,2.882,0,0,0-2.473,1.23A6.192,6.192,0,0,0,311.7,358.8Z"/><path d="M325.666,353.855a4.611,4.611,0,0,1,3.75-1.769q4.02,0,4.055,4.535V365H331.3v-8.391a2.921,2.921,0,0,0-.627-2.027,2.514,2.514,0,0,0-1.916-.656,3.13,3.13,0,0,0-1.852.562,3.819,3.819,0,0,0-1.242,1.477V365H323.5V347h2.168Z"/><path d="M353.885,362.012l2.437-9.692h2.168L354.8,365h-1.758l-3.082-9.609-3,9.609H345.2l-3.68-12.68h2.157l2.5,9.492,2.953-9.492h1.746Z"/><path d="M360.119,358.543a7.485,7.485,0,0,1,.733-3.352,5.461,5.461,0,0,1,2.039-2.3,5.541,5.541,0,0,1,2.982-.809,5.346,5.346,0,0,1,4.189,1.793,6.894,6.894,0,0,1,1.6,4.769v.153a7.548,7.548,0,0,1-.709,3.322,5.382,5.382,0,0,1-2.027,2.291,5.615,5.615,0,0,1-3.03.82,5.331,5.331,0,0,1-4.177-1.793,6.859,6.859,0,0,1-1.6-4.746Zm2.18.258a5.429,5.429,0,0,0,.978,3.387,3.316,3.316,0,0,0,5.244-.018,5.927,5.927,0,0,0,.973-3.627,5.415,5.415,0,0,0-.99-3.381,3.149,3.149,0,0,0-2.631-1.295,3.113,3.113,0,0,0-2.59,1.278A5.887,5.887,0,0,0,362.3,358.8Z"/><path d="M380.51,354.266a6.467,6.467,0,0,0-1.067-.082A2.856,2.856,0,0,0,376.549,356v9h-2.168V352.32h2.109l.035,1.465a3.376,3.376,0,0,1,3.024-1.7,2.221,2.221,0,0,1,.961.164Z"/><path d="M386.041,359.129l-1.359,1.418V365h-2.168V347h2.168v10.887l1.16-1.395,3.949-4.172h2.637l-4.934,5.3L393,365h-2.543Z"/><path d="M407.99,361.637a1.6,1.6,0,0,0-.662-1.366,6.37,6.37,0,0,0-2.308-.837,10.957,10.957,0,0,1-2.614-.844,3.715,3.715,0,0,1-1.429-1.172,2.8,2.8,0,0,1-.463-1.617,3.289,3.289,0,0,1,1.318-2.637,5.147,5.147,0,0,1,3.369-1.078,5.3,5.3,0,0,1,3.5,1.113,3.536,3.536,0,0,1,1.342,2.848h-2.18a1.955,1.955,0,0,0-.756-1.535,2.828,2.828,0,0,0-1.9-.645,2.96,2.96,0,0,0-1.851.516,1.621,1.621,0,0,0-.668,1.347,1.316,1.316,0,0,0,.621,1.184,7.622,7.622,0,0,0,2.244.762,11.685,11.685,0,0,1,2.631.867,3.832,3.832,0,0,1,1.494,1.213,2.984,2.984,0,0,1,.486,1.728,3.246,3.246,0,0,1-1.359,2.725,5.7,5.7,0,0,1-3.528,1.025,6.375,6.375,0,0,1-2.695-.539,4.383,4.383,0,0,1-1.834-1.506,3.629,3.629,0,0,1-.662-2.091h2.168a2.244,2.244,0,0,0,.873,1.728,3.386,3.386,0,0,0,2.15.639,3.5,3.5,0,0,0,1.975-.5A1.531,1.531,0,0,0,407.99,361.637Z"/><path d="M415.924,349.25v3.07h2.367V354h-2.367v7.873a1.761,1.761,0,0,0,.316,1.145,1.333,1.333,0,0,0,1.078.381,5.246,5.246,0,0,0,1.032-.141V365a6.335,6.335,0,0,1-1.664.232,2.7,2.7,0,0,1-2.192-.879,3.773,3.773,0,0,1-.738-2.5V354h-2.309V352.32h2.309v-3.07Z"/><path d="M426.084,365.234a5.538,5.538,0,0,1-4.195-1.693,6.286,6.286,0,0,1-1.618-4.529v-.4a7.613,7.613,0,0,1,.721-3.369,5.626,5.626,0,0,1,2.016-2.32,5.064,5.064,0,0,1,2.806-.838,4.748,4.748,0,0,1,3.844,1.629,7.052,7.052,0,0,1,1.371,4.664v.9h-8.59a4.515,4.515,0,0,0,1.1,3.03,3.445,3.445,0,0,0,2.666,1.154,3.768,3.768,0,0,0,1.945-.469,4.86,4.86,0,0,0,1.395-1.242l1.324,1.031A5.323,5.323,0,0,1,426.084,365.234Zm-.27-11.367a2.894,2.894,0,0,0-2.2.955,4.646,4.646,0,0,0-1.1,2.678h6.351v-.164a4.129,4.129,0,0,0-.89-2.561A2.726,2.726,0,0,0,425.814,353.867Z"/><path d="M444.248,358.8a7.593,7.593,0,0,1-1.324,4.664,4.243,4.243,0,0,1-3.586,1.769,4.652,4.652,0,0,1-3.633-1.464v6.105h-2.168V352.32h1.981l.105,1.407a4.466,4.466,0,0,1,3.68-1.641,4.323,4.323,0,0,1,3.615,1.723,7.672,7.672,0,0,1,1.33,4.793Zm-2.168-.246a5.6,5.6,0,0,0-.914-3.387,2.944,2.944,0,0,0-2.508-1.242,3.187,3.187,0,0,0-2.953,1.746v6.058a3.194,3.194,0,0,0,2.977,1.735,2.93,2.93,0,0,0,2.478-1.236A6.12,6.12,0,0,0,442.08,358.555Z"/><line class="e" x1="747.655" y1="586.697" x2="828.802" y2="586.697"/><line class="e" x1="469.47" y1="587.385" x2="550.617" y2="587.385"/></svg>