<?xml version="1.0" encoding="UTF-8"?><svg xmlns="http://www.w3.org/2000/svg" width="1140" height="641" xmlns:xlink="http://www.w3.org/1999/xlink" viewBox="0 0 1140 641"><defs><style>.m,.n,.o,.p,.q{fill:none;}.r{fill:#fde596;opacity:.1;}.s{fill:#010101;}.t{fill:#0478a3;}.u{fill:#fefdec;}.v{fill:#d12c32;}.w{fill:#231f20;}.x{fill:#147a3d;}.n{stroke:#010101;}.n,.o,.p{stroke-miterlimit:10;}.n,.o,.p,.q{stroke-linecap:round;stroke-width:2px;}.o{stroke:#0478a3;}.p{stroke:#1bb24b;}.q{stroke:#d12c32;stroke-linejoin:round;}.y{clip-path:url(#b);}</style><clipPath id="b"><path class="m" d="m77.961,26.659C-16.298,64.542,9.198,209.809,10.521,342.716c1.219,122.496-30.447,217.476,55.161,257.709,85.608,40.232,286.27,38.191,375.885,19.862,70.104-14.339,127.059-10.406,198.019-10.931,118.837-.879,336.851,51.871,453.071-17.86,66.977-40.186,25.674-223.158,15.628-376.089-3.214-48.928,16.55-123.166,0-169.77-4.289-12.077-24.558-45.635-125.893-36.331-39.405,3.618-374.199,12.568-610.324,6.704-77.3-1.92-218.761-19.632-294.106,10.651Z"/></clipPath></defs><g id="a"><path class="u" d="m77.961,26.659C-16.298,64.542,9.198,209.809,10.521,342.716c1.219,122.496-30.447,217.476,55.161,257.709,85.608,40.232,286.27,38.191,375.885,19.862,70.104-14.339,127.059-10.406,198.019-10.931,118.837-.879,336.851,51.871,453.071-17.86,66.977-40.186,25.674-223.158,15.628-376.089-3.214-48.928,16.55-123.166,0-169.77-4.289-12.077-24.558-45.635-125.893-36.331-39.405,3.618-374.199,12.568-610.324,6.704-77.3-1.92-218.761-19.632-294.106,10.651Z"/><g class="y"><polygon class="r" points="0 641 86.891 641 372.068 0 0 -4.597 0 641"/><polygon class="r" points="835.913 641 111.039 0 111.039 641 835.913 641"/><polygon class="r" points="996.966 0 794.611 0 0 641 440.024 641 996.966 0"/><polyline class="r" points="1034.608 641 1140 217.066 852.963 0 604.844 0 972.245 641"/></g><g id="c"><line class="q" x1="55.505" y1="150.383" x2="55.505" y2="113.128"/><line class="q" x1="43.505" y1="175.406" x2="43.505" y2="151.151"/><line class="q" x1="30.505" y1="150.383" x2="30.505" y2="113.128"/><line class="q" x1="30.505" y1="150.383" x2="54.76" y2="150.383"/></g><g id="d"><line class="o" x1="55.505" y1="252.662" x2="55.505" y2="215.406"/><line class="o" x1="43.505" y1="277.685" x2="43.505" y2="253.429"/><line class="o" x1="30.505" y1="252.662" x2="30.505" y2="215.406"/><line class="o" x1="30.505" y1="252.662" x2="54.76" y2="252.662"/></g><g id="e"><line class="n" x1="114.505" y1="374.94" x2="114.505" y2="301.685"/><line class="n" x1="272.286" y1="374.94" x2="272.286" y2="301.685"/><line class="n" x1="429.867" y1="374.94" x2="429.867" y2="301.685"/><line class="n" x1="587.449" y1="374.94" x2="587.449" y2="301.685"/><line class="n" x1="745.23" y1="374.94" x2="745.23" y2="301.685"/><line class="n" x1="902.811" y1="374.94" x2="902.811" y2="301.685"/><line class="n" x1="1062.392" y1="374.94" x2="1062.392" y2="301.685"/></g><g id="f"><line class="p" x1="114.505" y1="544.196" x2="114.505" y2="470.94"/><line class="p" x1="429.867" y1="544.196" x2="429.867" y2="470.94"/><line class="p" x1="745.23" y1="544.196" x2="745.23" y2="470.94"/><line class="p" x1="1062.392" y1="544.196" x2="1062.392" y2="470.94"/><line class="p" x1="124.505" y1="507.568" x2="225.505" y2="507.568"/><line class="p" x1="324.068" y1="507.568" x2="420.068" y2="507.568"/><line class="p" x1="440.024" y1="507.568" x2="541.024" y2="507.568"/><line class="p" x1="639.586" y1="507.568" x2="735.586" y2="507.568"/><line class="p" x1="755.763" y1="507.568" x2="856.763" y2="507.568"/><line class="p" x1="955.325" y1="507.568" x2="1051.325" y2="507.568"/></g><g id="g"><line class="n" x1="644.661" y1="40.5" x2="888.196" y2="40.5"/><polygon class="s" points="885.862 48.478 899.678 40.5 885.862 32.522 885.862 48.478"/><line class="n" x1="114.505" y1="40.5" x2="392.361" y2="40.5"/><polygon class="s" points="390.026 48.478 403.843 40.5 390.026 32.522 390.026 48.478"/><line class="n" x1="114.505" y1="59.128" x2="114.505" y2="21.872"/><line class="n" x1="899.678" y1="59.128" x2="899.678" y2="21.872"/></g></g><g id="h"><path class="w" d="m465.777,51h-2.543v-16.857l-5.1,1.873v-2.297l7.246-2.721h.396v20.002Z"/><path class="w" d="m473.502,49.674c0-.438.13-.802.39-1.094.26-.292.649-.438,1.169-.438s.913.146,1.183.438c.269.292.403.656.403,1.094,0,.419-.135.771-.403,1.053-.27.282-.663.424-1.183.424s-.909-.142-1.169-.424-.39-.633-.39-1.053Z"/><path class="w" d="m493.039,42.51c0,2.962-.506,5.164-1.518,6.604-1.012,1.44-2.594,2.16-4.744,2.16-2.124,0-3.696-.704-4.717-2.112-1.021-1.408-1.55-3.511-1.586-6.31v-3.377c0-2.926.506-5.1,1.518-6.521s2.598-2.133,4.758-2.133c2.142,0,3.719.686,4.73,2.058,1.012,1.372,1.531,3.489,1.559,6.351v3.281Zm-2.529-3.459c0-2.142-.301-3.703-.902-4.683-.602-.979-1.555-1.47-2.857-1.47-1.295,0-2.238.488-2.83,1.463-.593.976-.898,2.475-.916,4.498v4.047c0,2.151.312,3.739.937,4.765.624,1.025,1.569,1.538,2.837,1.538,1.248,0,2.176-.483,2.782-1.449.605-.966.923-2.488.95-4.566v-4.143Z"/><path class="w" d="m512.084,47.076c0-.684-.258-1.214-.772-1.593-.516-.378-1.413-.704-2.693-.978-1.281-.273-2.297-.602-3.049-.984s-1.309-.838-1.668-1.367c-.36-.528-.54-1.157-.54-1.887,0-1.212.513-2.237,1.538-3.076,1.025-.838,2.335-1.258,3.931-1.258,1.677,0,3.037.433,4.081,1.299,1.043.866,1.565,1.974,1.565,3.322h-2.543c0-.692-.294-1.29-.882-1.791-.588-.501-1.329-.752-2.222-.752-.921,0-1.641.201-2.16.602-.52.401-.779.925-.779,1.572,0,.611.241,1.071.725,1.381.482.31,1.355.606,2.618.889,1.262.283,2.285.62,3.069,1.012.783.392,1.364.864,1.743,1.415.378.552.567,1.224.567,2.017,0,1.322-.529,2.381-1.586,3.179-1.058.798-2.43,1.196-4.115,1.196-1.186,0-2.233-.21-3.145-.629-.912-.419-1.625-1.005-2.14-1.757-.516-.752-.772-1.565-.772-2.44h2.529c.045.848.385,1.52,1.019,2.017.633.497,1.47.745,2.509.745.957,0,1.725-.193,2.304-.581.578-.387.868-.904.868-1.552Z"/><path class="w" d="m524.047,51.273c-2.006,0-3.637-.658-4.895-1.976-1.258-1.317-1.887-3.078-1.887-5.284v-.465c0-1.467.28-2.777.841-3.931.561-1.153,1.344-2.055,2.352-2.707,1.007-.651,2.099-.978,3.274-.978,1.923,0,3.418.634,4.484,1.9,1.066,1.267,1.6,3.081,1.6,5.441v1.053h-10.021c.036,1.458.462,2.637,1.278,3.534.815.898,1.853,1.347,3.11,1.347.893,0,1.649-.182,2.27-.547.619-.364,1.162-.848,1.627-1.449l1.545,1.203c-1.24,1.905-3.1,2.857-5.578,2.857Zm-.314-13.262c-1.021,0-1.878.372-2.57,1.114-.693.743-1.121,1.784-1.285,3.124h7.41v-.191c-.073-1.285-.42-2.281-1.039-2.987-.62-.706-1.459-1.06-2.516-1.06Z"/><path class="w" d="m538.676,49.209c.902,0,1.69-.273,2.365-.82.674-.547,1.048-1.23,1.121-2.051h2.393c-.046.848-.338,1.654-.875,2.42-.538.766-1.256,1.376-2.153,1.832-.898.456-1.849.684-2.851.684-2.015,0-3.616-.672-4.806-2.017-1.189-1.344-1.784-3.183-1.784-5.517v-.424c0-1.44.264-2.721.793-3.842.528-1.121,1.287-1.991,2.276-2.611.988-.62,2.157-.93,3.507-.93,1.658,0,3.037.497,4.136,1.49,1.098.994,1.684,2.283,1.757,3.869h-2.393c-.073-.957-.436-1.743-1.087-2.358-.652-.615-1.456-.923-2.413-.923-1.285,0-2.281.463-2.987,1.388-.707.925-1.06,2.263-1.06,4.013v.479c0,1.705.351,3.017,1.053,3.938.701.921,1.704,1.381,3.008,1.381Z"/><path class="w" d="m546.729,43.467c0-1.449.284-2.752.854-3.91.569-1.157,1.362-2.051,2.379-2.68,1.016-.629,2.176-.943,3.479-.943,2.014,0,3.644.697,4.888,2.092s1.866,3.25,1.866,5.564v.178c0,1.44-.276,2.732-.827,3.876-.552,1.144-1.34,2.035-2.365,2.673-1.025.638-2.204.957-3.534.957-2.006,0-3.63-.697-4.874-2.092s-1.866-3.24-1.866-5.537v-.178Zm2.543.301c0,1.641.38,2.958,1.142,3.951.761.994,1.779,1.49,3.056,1.49,1.285,0,2.306-.503,3.062-1.511.756-1.007,1.135-2.417,1.135-4.231,0-1.622-.386-2.937-1.155-3.944-.771-1.007-1.794-1.511-3.069-1.511-1.249,0-2.256.497-3.021,1.49-.766.994-1.148,2.416-1.148,4.266Z"/><path class="w" d="m565.76,36.207l.082,1.859c1.13-1.422,2.606-2.133,4.43-2.133,3.126,0,4.703,1.764,4.73,5.291v9.775h-2.529v-9.789c-.01-1.066-.253-1.854-.731-2.365-.479-.51-1.224-.766-2.235-.766-.82,0-1.541.219-2.16.656-.62.438-1.104,1.012-1.449,1.723v10.541h-2.529v-14.793h2.393Z"/><path class="w" d="m578.201,43.48c0-2.27.537-4.095,1.613-5.476,1.075-1.381,2.483-2.071,4.225-2.071,1.731,0,3.104.593,4.115,1.777v-7.711h2.529v21h-2.324l-.123-1.586c-1.012,1.24-2.42,1.859-4.225,1.859-1.714,0-3.11-.702-4.19-2.105-1.08-1.403-1.62-3.235-1.62-5.496v-.191Zm2.529.287c0,1.677.346,2.99,1.039,3.938.692.948,1.649,1.422,2.871,1.422,1.604,0,2.775-.72,3.514-2.16v-6.795c-.757-1.395-1.919-2.092-3.486-2.092-1.24,0-2.206.479-2.898,1.436-.693.957-1.039,2.375-1.039,4.252Z"/><g id="i"><path class="v" d="m120.728,137.188c-.211,1.805-.877,3.197-1.998,4.178s-2.611,1.471-4.471,1.471c-2.016,0-3.631-.723-4.846-2.168s-1.822-3.379-1.822-5.801v-1.641c0-1.586.283-2.98.85-4.184s1.369-2.127,2.408-2.771,2.242-.967,3.609-.967c1.812,0,3.266.506,4.359,1.518s1.73,2.412,1.91,4.201h-2.262c-.195-1.363-.619-2.351-1.271-2.962-.652-.611-1.564-.917-2.736-.917-1.438,0-2.564.532-3.381,1.595s-1.225,2.576-1.225,4.539v1.654c0,1.853.387,3.327,1.16,4.421.773,1.095,1.855,1.642,3.246,1.642,1.25,0,2.209-.283,2.877-.85s1.111-1.553,1.33-2.959h2.262Z"/><path class="v" d="m167.318,135.7h-4.008v6.902h-2.262v-17.062h5.648c1.922,0,3.4.438,4.436,1.312s1.553,2.148,1.553,3.82c0,1.062-.287,1.988-.861,2.777s-1.373,1.379-2.396,1.77l4.008,7.242v.141h-2.414l-3.703-6.902Zm-4.008-1.84h3.457c1.117,0,2.006-.29,2.666-.869s.99-1.354.99-2.325c0-1.057-.314-1.866-.943-2.43-.629-.563-1.537-.849-2.725-.857h-3.445v6.48Z"/><path class="v" d="m225.651,137.188c-.211,1.805-.877,3.197-1.998,4.178s-2.611,1.471-4.471,1.471c-2.016,0-3.631-.723-4.846-2.168s-1.822-3.379-1.822-5.801v-1.641c0-1.586.283-2.98.85-4.184s1.369-2.127,2.408-2.771,2.242-.967,3.609-.967c1.812,0,3.266.506,4.359,1.518s1.73,2.412,1.91,4.201h-2.262c-.195-1.363-.619-2.351-1.271-2.962-.652-.611-1.564-.917-2.736-.917-1.438,0-2.564.532-3.381,1.595s-1.225,2.576-1.225,4.539v1.654c0,1.853.387,3.327,1.16,4.421.773,1.095,1.855,1.642,3.246,1.642,1.25,0,2.209-.283,2.877-.85s1.111-1.553,1.33-2.959h2.262Z"/><path class="v" d="m272.242,135.7h-4.008v6.902h-2.262v-17.062h5.648c1.922,0,3.4.438,4.436,1.312s1.553,2.148,1.553,3.82c0,1.062-.287,1.988-.861,2.777s-1.373,1.379-2.396,1.77l4.008,7.242v.141h-2.414l-3.703-6.902Zm-4.008-1.84h3.457c1.117,0,2.006-.29,2.666-.869s.99-1.354.99-2.325c0-1.057-.314-1.866-.943-2.43-.629-.563-1.537-.849-2.725-.857h-3.445v6.48Z"/><path class="v" d="m330.575,137.188c-.211,1.805-.877,3.197-1.998,4.178s-2.611,1.471-4.471,1.471c-2.016,0-3.631-.723-4.846-2.168s-1.822-3.379-1.822-5.801v-1.641c0-1.586.283-2.98.85-4.184s1.369-2.127,2.408-2.771,2.242-.967,3.609-.967c1.812,0,3.266.506,4.359,1.518s1.73,2.412,1.91,4.201h-2.262c-.195-1.363-.619-2.351-1.271-2.962-.652-.611-1.564-.917-2.736-.917-1.438,0-2.564.532-3.381,1.595s-1.225,2.576-1.225,4.539v1.654c0,1.853.387,3.327,1.16,4.421.773,1.095,1.855,1.642,3.246,1.642,1.25,0,2.209-.283,2.877-.85s1.111-1.553,1.33-2.959h2.262Z"/><path class="v" d="m377.165,135.7h-4.008v6.902h-2.262v-17.062h5.648c1.922,0,3.4.438,4.436,1.312s1.553,2.148,1.553,3.82c0,1.062-.287,1.988-.861,2.777s-1.373,1.379-2.396,1.77l4.008,7.242v.141h-2.414l-3.703-6.902Zm-4.008-1.84h3.457c1.117,0,2.006-.29,2.666-.869s.99-1.354.99-2.325c0-1.057-.314-1.866-.943-2.43-.629-.563-1.537-.849-2.725-.857h-3.445v6.48Z"/><path class="v" d="m435.498,137.188c-.211,1.805-.877,3.197-1.998,4.178s-2.611,1.471-4.471,1.471c-2.016,0-3.631-.723-4.846-2.168s-1.822-3.379-1.822-5.801v-1.641c0-1.586.283-2.98.85-4.184s1.369-2.127,2.408-2.771,2.242-.967,3.609-.967c1.812,0,3.266.506,4.359,1.518s1.73,2.412,1.91,4.201h-2.262c-.195-1.363-.619-2.351-1.271-2.962-.652-.611-1.564-.917-2.736-.917-1.438,0-2.564.532-3.381,1.595s-1.225,2.576-1.225,4.539v1.654c0,1.853.387,3.327,1.16,4.421.773,1.095,1.855,1.642,3.246,1.642,1.25,0,2.209-.283,2.877-.85s1.111-1.553,1.33-2.959h2.262Z"/><path class="v" d="m482.088,135.7h-4.008v6.902h-2.262v-17.062h5.648c1.922,0,3.4.438,4.436,1.312s1.553,2.148,1.553,3.82c0,1.062-.287,1.988-.861,2.777s-1.373,1.379-2.396,1.77l4.008,7.242v.141h-2.414l-3.703-6.902Zm-4.008-1.84h3.457c1.117,0,2.006-.29,2.666-.869s.99-1.354.99-2.325c0-1.057-.314-1.866-.943-2.43-.629-.563-1.537-.849-2.725-.857h-3.445v6.48Z"/><path class="v" d="m540.421,137.188c-.211,1.805-.877,3.197-1.998,4.178s-2.611,1.471-4.471,1.471c-2.016,0-3.631-.723-4.846-2.168s-1.822-3.379-1.822-5.801v-1.641c0-1.586.283-2.98.85-4.184s1.369-2.127,2.408-2.771,2.242-.967,3.609-.967c1.812,0,3.266.506,4.359,1.518s1.73,2.412,1.91,4.201h-2.262c-.195-1.363-.619-2.351-1.271-2.962-.652-.611-1.564-.917-2.736-.917-1.438,0-2.564.532-3.381,1.595s-1.225,2.576-1.225,4.539v1.654c0,1.853.387,3.327,1.16,4.421.773,1.095,1.855,1.642,3.246,1.642,1.25,0,2.209-.283,2.877-.85s1.111-1.553,1.33-2.959h2.262Z"/><path class="v" d="m587.013,135.7h-4.008v6.902h-2.262v-17.062h5.648c1.922,0,3.4.438,4.436,1.312s1.553,2.148,1.553,3.82c0,1.062-.287,1.988-.861,2.777s-1.373,1.379-2.396,1.77l4.008,7.242v.141h-2.414l-3.703-6.902Zm-4.008-1.84h3.457c1.117,0,2.006-.29,2.666-.869s.99-1.354.99-2.325c0-1.057-.314-1.866-.943-2.43-.629-.563-1.537-.849-2.725-.857h-3.445v6.48Z"/><path class="v" d="m645.345,137.188c-.211,1.805-.877,3.197-1.998,4.178s-2.611,1.471-4.471,1.471c-2.016,0-3.631-.723-4.846-2.168s-1.822-3.379-1.822-5.801v-1.641c0-1.586.283-2.98.85-4.184s1.369-2.127,2.408-2.771,2.242-.967,3.609-.967c1.812,0,3.266.506,4.359,1.518s1.73,2.412,1.91,4.201h-2.262c-.195-1.363-.619-2.351-1.271-2.962-.652-.611-1.564-.917-2.736-.917-1.438,0-2.564.532-3.381,1.595s-1.225,2.576-1.225,4.539v1.654c0,1.853.387,3.327,1.16,4.421.773,1.095,1.855,1.642,3.246,1.642,1.25,0,2.209-.283,2.877-.85s1.111-1.553,1.33-2.959h2.262Z"/><path class="v" d="m691.936,135.7h-4.008v6.902h-2.262v-17.062h5.648c1.922,0,3.4.438,4.436,1.312s1.553,2.148,1.553,3.82c0,1.062-.287,1.988-.861,2.777s-1.373,1.379-2.396,1.77l4.008,7.242v.141h-2.414l-3.703-6.902Zm-4.008-1.84h3.457c1.117,0,2.006-.29,2.666-.869s.99-1.354.99-2.325c0-1.057-.314-1.866-.943-2.43-.629-.563-1.537-.849-2.725-.857h-3.445v6.48Z"/><path class="v" d="m750.269,137.188c-.211,1.805-.877,3.197-1.998,4.178s-2.611,1.471-4.471,1.471c-2.016,0-3.631-.723-4.846-2.168s-1.822-3.379-1.822-5.801v-1.641c0-1.586.283-2.98.85-4.184s1.369-2.127,2.408-2.771,2.242-.967,3.609-.967c1.812,0,3.266.506,4.359,1.518s1.73,2.412,1.91,4.201h-2.262c-.195-1.363-.619-2.351-1.271-2.962-.652-.611-1.564-.917-2.736-.917-1.438,0-2.564.532-3.381,1.595s-1.225,2.576-1.225,4.539v1.654c0,1.853.387,3.327,1.16,4.421.773,1.095,1.855,1.642,3.246,1.642,1.25,0,2.209-.283,2.877-.85s1.111-1.553,1.33-2.959h2.262Z"/><path class="v" d="m796.859,135.7h-4.008v6.902h-2.262v-17.062h5.648c1.922,0,3.4.438,4.436,1.312s1.553,2.148,1.553,3.82c0,1.062-.287,1.988-.861,2.777s-1.373,1.379-2.396,1.77l4.008,7.242v.141h-2.414l-3.703-6.902Zm-4.008-1.84h3.457c1.117,0,2.006-.29,2.666-.869s.99-1.354.99-2.325c0-1.057-.314-1.866-.943-2.43-.629-.563-1.537-.849-2.725-.857h-3.445v6.48Z"/><path class="v" d="m855.191,137.188c-.211,1.805-.877,3.197-1.998,4.178s-2.611,1.471-4.471,1.471c-2.016,0-3.631-.723-4.846-2.168s-1.822-3.379-1.822-5.801v-1.641c0-1.586.283-2.98.85-4.184s1.369-2.127,2.408-2.771,2.242-.967,3.609-.967c1.812,0,3.266.506,4.359,1.518s1.73,2.412,1.91,4.201h-2.262c-.195-1.363-.619-2.351-1.271-2.962-.652-.611-1.564-.917-2.736-.917-1.438,0-2.564.532-3.381,1.595s-1.225,2.576-1.225,4.539v1.654c0,1.853.387,3.327,1.16,4.421.773,1.095,1.855,1.642,3.246,1.642,1.25,0,2.209-.283,2.877-.85s1.111-1.553,1.33-2.959h2.262Z"/><path class="v" d="m958.613,137.188c-.211,1.805-.877,3.197-1.998,4.178s-2.611,1.471-4.471,1.471c-2.016,0-3.631-.723-4.846-2.168s-1.822-3.379-1.822-5.801v-1.641c0-1.586.283-2.98.85-4.184s1.369-2.127,2.408-2.771,2.242-.967,3.609-.967c1.812,0,3.266.506,4.359,1.518s1.73,2.412,1.91,4.201h-2.262c-.195-1.363-.619-2.351-1.271-2.962-.652-.611-1.564-.917-2.736-.917-1.438,0-2.564.532-3.381,1.595s-1.225,2.576-1.225,4.539v1.654c0,1.853.387,3.327,1.16,4.421.773,1.095,1.855,1.642,3.246,1.642,1.25,0,2.209-.283,2.877-.85s1.111-1.553,1.33-2.959h2.262Z"/><path class="v" d="m1005.204,135.7h-4.008v6.902h-2.262v-17.062h5.648c1.922,0,3.4.438,4.436,1.312s1.553,2.148,1.553,3.82c0,1.062-.287,1.988-.861,2.777s-1.373,1.379-2.396,1.77l4.008,7.242v.141h-2.414l-3.703-6.902Zm-4.008-1.84h3.457c1.117,0,2.006-.29,2.666-.869s.99-1.354.99-2.325c0-1.057-.314-1.866-.943-2.43-.629-.563-1.537-.849-2.725-.857h-3.445v6.48Z"/><path class="v" d="m1063.537,137.188c-.211,1.805-.877,3.197-1.998,4.178s-2.611,1.471-4.471,1.471c-2.016,0-3.631-.723-4.846-2.168s-1.822-3.379-1.822-5.801v-1.641c0-1.586.283-2.98.85-4.184s1.369-2.127,2.408-2.771,2.242-.967,3.609-.967c1.812,0,3.266.506,4.359,1.518s1.73,2.412,1.91,4.201h-2.262c-.195-1.363-.619-2.351-1.271-2.962-.652-.611-1.564-.917-2.736-.917-1.438,0-2.564.532-3.381,1.595s-1.225,2.576-1.225,4.539v1.654c0,1.853.387,3.327,1.16,4.421.773,1.095,1.855,1.642,3.246,1.642,1.25,0,2.209-.283,2.877-.85s1.111-1.553,1.33-2.959h2.262Z"/><path class="v" d="m901.782,135.7h-4.008v6.902h-2.262v-17.062h5.648c1.922,0,3.4.438,4.436,1.312s1.553,2.148,1.553,3.82c0,1.062-.287,1.988-.861,2.777s-1.373,1.379-2.396,1.77l4.008,7.242v.141h-2.414l-3.703-6.902Zm-4.008-1.84h3.457c1.117,0,2.006-.29,2.666-.869s.99-1.354.99-2.325c0-1.057-.314-1.866-.943-2.43-.629-.563-1.537-.849-2.725-.857h-3.445v6.48Z"/></g><g id="j"><path class="x" d="m249.992,513.568v-17.062h5.578c1.852,0,3.244.383,4.178,1.148s1.4,1.898,1.4,3.398c0,.797-.227,1.502-.68,2.115s-1.07,1.088-1.852,1.424c.922.258,1.65.748,2.186,1.471s.803,1.584.803,2.584c0,1.531-.496,2.734-1.488,3.609s-2.395,1.312-4.207,1.312h-5.918Zm2.25-9.785h3.398c.984,0,1.771-.246,2.361-.739s.885-1.163.885-2.009c0-.939-.273-1.622-.82-2.049s-1.379-.641-2.496-.641h-3.328v5.438Zm0,1.805v6.141h3.715c1.047,0,1.873-.271,2.479-.814s.908-1.291.908-2.244c0-2.055-1.117-3.082-3.352-3.082h-3.75Z"/><path class="x" d="m269.855,513.803c-1.719,0-3.117-.564-4.195-1.693s-1.617-2.639-1.617-4.529v-.398c0-1.258.24-2.381.721-3.369s1.152-1.762,2.016-2.32,1.799-.838,2.807-.838c1.648,0,2.93.543,3.844,1.629s1.371,2.641,1.371,4.664v.902h-8.59c.031,1.25.396,2.26,1.096,3.029s1.588,1.154,2.666,1.154c.766,0,1.414-.156,1.945-.469s.996-.727,1.395-1.242l1.324,1.031c-1.062,1.633-2.656,2.449-4.781,2.449Zm-.27-11.367c-.875,0-1.609.318-2.203.955s-.961,1.529-1.102,2.678h6.352v-.164c-.062-1.102-.359-1.955-.891-2.561s-1.25-.908-2.156-.908Z"/><path class="x" d="m285.136,513.568c-.125-.25-.227-.695-.305-1.336-1.008,1.047-2.211,1.57-3.609,1.57-1.25,0-2.275-.354-3.076-1.061s-1.201-1.604-1.201-2.689c0-1.32.502-2.346,1.506-3.076s2.416-1.096,4.236-1.096h2.109v-.996c0-.758-.227-1.361-.68-1.811s-1.121-.674-2.004-.674c-.773,0-1.422.195-1.945.586s-.785.863-.785,1.418h-2.18c0-.633.225-1.244.674-1.834s1.059-1.057,1.828-1.4,1.615-.516,2.537-.516c1.461,0,2.605.365,3.434,1.096s1.258,1.736,1.289,3.018v5.836c0,1.164.148,2.09.445,2.777v.188h-2.273Zm-3.598-1.652c.68,0,1.324-.176,1.934-.527s1.051-.809,1.324-1.371v-2.602h-1.699c-2.656,0-3.984.777-3.984,2.332,0,.68.227,1.211.68,1.594s1.035.574,1.746.574Z"/><path class="x" d="m293.304,497.818v3.07h2.367v1.676h-2.367v7.873c0,.509.105.891.316,1.145s.57.381,1.078.381c.25,0,.594-.047,1.031-.141v1.748c-.57.155-1.125.232-1.664.232-.969,0-1.699-.293-2.191-.879s-.738-1.418-.738-2.496v-7.863h-2.309v-1.676h2.309v-3.07h2.168Z"/><path class="x" d="m565.153,513.568v-17.062h5.578c1.852,0,3.244.383,4.178,1.148s1.4,1.898,1.4,3.398c0,.797-.227,1.502-.68,2.115s-1.07,1.088-1.852,1.424c.922.258,1.65.748,2.186,1.471s.803,1.584.803,2.584c0,1.531-.496,2.734-1.488,3.609s-2.395,1.312-4.207,1.312h-5.918Zm2.25-9.785h3.398c.984,0,1.771-.246,2.361-.739s.885-1.163.885-2.009c0-.939-.273-1.622-.82-2.049s-1.379-.641-2.496-.641h-3.328v5.438Zm0,1.805v6.141h3.715c1.047,0,1.873-.271,2.479-.814s.908-1.291.908-2.244c0-2.055-1.117-3.082-3.352-3.082h-3.75Z"/><path class="x" d="m585.017,513.803c-1.719,0-3.117-.564-4.195-1.693s-1.617-2.639-1.617-4.529v-.398c0-1.258.24-2.381.721-3.369s1.152-1.762,2.016-2.32,1.799-.838,2.807-.838c1.648,0,2.93.543,3.844,1.629s1.371,2.641,1.371,4.664v.902h-8.59c.031,1.25.396,2.26,1.096,3.029s1.588,1.154,2.666,1.154c.766,0,1.414-.156,1.945-.469s.996-.727,1.395-1.242l1.324,1.031c-1.062,1.633-2.656,2.449-4.781,2.449Zm-.27-11.367c-.875,0-1.609.318-2.203.955s-.961,1.529-1.102,2.678h6.352v-.164c-.062-1.102-.359-1.955-.891-2.561s-1.25-.908-2.156-.908Z"/><path class="x" d="m600.298,513.568c-.125-.25-.227-.695-.305-1.336-1.008,1.047-2.211,1.57-3.609,1.57-1.25,0-2.275-.354-3.076-1.061s-1.201-1.604-1.201-2.689c0-1.32.502-2.346,1.506-3.076s2.416-1.096,4.236-1.096h2.109v-.996c0-.758-.227-1.361-.68-1.811s-1.121-.674-2.004-.674c-.773,0-1.422.195-1.945.586s-.785.863-.785,1.418h-2.18c0-.633.225-1.244.674-1.834s1.059-1.057,1.828-1.4,1.615-.516,2.537-.516c1.461,0,2.605.365,3.434,1.096s1.258,1.736,1.289,3.018v5.836c0,1.164.148,2.09.445,2.777v.188h-2.273Zm-3.598-1.652c.68,0,1.324-.176,1.934-.527s1.051-.809,1.324-1.371v-2.602h-1.699c-2.656,0-3.984.777-3.984,2.332,0,.68.227,1.211.68,1.594s1.035.574,1.746.574Z"/><path class="x" d="m608.466,497.818v3.07h2.367v1.676h-2.367v7.873c0,.509.105.891.316,1.145s.57.381,1.078.381c.25,0,.594-.047,1.031-.141v1.748c-.57.155-1.125.232-1.664.232-.969,0-1.699-.293-2.191-.879s-.738-1.418-.738-2.496v-7.863h-2.309v-1.676h2.309v-3.07h2.168Z"/><path class="x" d="m880.517,513.568v-17.062h5.578c1.852,0,3.244.383,4.178,1.148s1.4,1.898,1.4,3.398c0,.797-.227,1.502-.68,2.115s-1.07,1.088-1.852,1.424c.922.258,1.65.748,2.186,1.471s.803,1.584.803,2.584c0,1.531-.496,2.734-1.488,3.609s-2.395,1.312-4.207,1.312h-5.918Zm2.25-9.785h3.398c.984,0,1.771-.246,2.361-.739s.885-1.163.885-2.009c0-.939-.273-1.622-.82-2.049s-1.379-.641-2.496-.641h-3.328v5.438Zm0,1.805v6.141h3.715c1.047,0,1.873-.271,2.479-.814s.908-1.291.908-2.244c0-2.055-1.117-3.082-3.352-3.082h-3.75Z"/><path class="x" d="m900.38,513.803c-1.719,0-3.117-.564-4.195-1.693s-1.617-2.639-1.617-4.529v-.398c0-1.258.24-2.381.721-3.369s1.152-1.762,2.016-2.32,1.799-.838,2.807-.838c1.648,0,2.93.543,3.844,1.629s1.371,2.641,1.371,4.664v.902h-8.59c.031,1.25.396,2.26,1.096,3.029s1.588,1.154,2.666,1.154c.766,0,1.414-.156,1.945-.469s.996-.727,1.395-1.242l1.324,1.031c-1.062,1.633-2.656,2.449-4.781,2.449Zm-.27-11.367c-.875,0-1.609.318-2.203.955s-.961,1.529-1.102,2.678h6.352v-.164c-.062-1.102-.359-1.955-.891-2.561s-1.25-.908-2.156-.908Z"/><path class="x" d="m915.661,513.568c-.125-.25-.227-.695-.305-1.336-1.008,1.047-2.211,1.57-3.609,1.57-1.25,0-2.275-.354-3.076-1.061s-1.201-1.604-1.201-2.689c0-1.32.502-2.346,1.506-3.076s2.416-1.096,4.236-1.096h2.109v-.996c0-.758-.227-1.361-.68-1.811s-1.121-.674-2.004-.674c-.773,0-1.422.195-1.945.586s-.785.863-.785,1.418h-2.18c0-.633.225-1.244.674-1.834s1.059-1.057,1.828-1.4,1.615-.516,2.537-.516c1.461,0,2.605.365,3.434,1.096s1.258,1.736,1.289,3.018v5.836c0,1.164.148,2.09.445,2.777v.188h-2.273Zm-3.598-1.652c.68,0,1.324-.176,1.934-.527s1.051-.809,1.324-1.371v-2.602h-1.699c-2.656,0-3.984.777-3.984,2.332,0,.68.227,1.211.68,1.594s1.035.574,1.746.574Z"/><path class="x" d="m923.829,497.818v3.07h2.367v1.676h-2.367v7.873c0,.509.105.891.316,1.145s.57.381,1.078.381c.25,0,.594-.047,1.031-.141v1.748c-.57.155-1.125.232-1.664.232-.969,0-1.699-.293-2.191-.879s-.738-1.418-.738-2.496v-7.863h-2.309v-1.676h2.309v-3.07h2.168Z"/></g><g id="k"><path class="w" d="m92.063,407.971h8.086v1.84h-10.348v-17.062h2.262v15.223Z"/><path class="w" d="m101.802,403.354c0-1.242.244-2.359.732-3.352s1.168-1.758,2.039-2.297,1.865-.809,2.982-.809c1.727,0,3.123.598,4.189,1.793s1.6,2.785,1.6,4.77v.152c0,1.234-.236,2.342-.709,3.322s-1.148,1.744-2.027,2.291-1.889.82-3.029.82c-1.719,0-3.111-.598-4.178-1.793s-1.6-2.777-1.6-4.746v-.152Zm2.18.258c0,1.406.326,2.535.979,3.387s1.525,1.277,2.619,1.277c1.102,0,1.977-.432,2.625-1.295s.973-2.072.973-3.627c0-1.391-.33-2.518-.99-3.381s-1.537-1.295-2.631-1.295c-1.07,0-1.934.426-2.59,1.277s-.984,2.07-.984,3.656Z"/><path class="w" d="m123.892,408.557c-.844.992-2.082,1.488-3.715,1.488-1.352,0-2.381-.393-3.088-1.178s-1.064-1.947-1.072-3.486v-8.25h2.168v8.191c0,1.922.781,2.883,2.344,2.883,1.656,0,2.758-.617,3.305-1.852v-9.223h2.168v12.68h-2.062l-.047-1.254Z"/><path class="w" d="m128.767,403.365c0-1.945.461-3.51,1.383-4.693s2.129-1.775,3.621-1.775c1.484,0,2.66.508,3.527,1.523v-6.609h2.168v18h-1.992l-.105-1.359c-.867,1.062-2.074,1.594-3.621,1.594-1.469,0-2.666-.602-3.592-1.805s-1.389-2.773-1.389-4.711v-.164Zm2.168.246c0,1.438.297,2.562.891,3.375s1.414,1.219,2.461,1.219c1.375,0,2.379-.617,3.012-1.852v-5.824c-.648-1.195-1.645-1.793-2.988-1.793-1.062,0-1.891.41-2.484,1.23s-.891,2.035-.891,3.645Z"/><path class="w" d="m257.246,402.205c-1.93-.555-3.334-1.236-4.213-2.045s-1.318-1.807-1.318-2.994c0-1.344.537-2.455,1.611-3.334s2.471-1.318,4.189-1.318c1.172,0,2.217.227,3.135.68s1.629,1.078,2.133,1.875.756,1.668.756,2.613h-2.262c0-1.035-.328-1.848-.984-2.44-.656-.592-1.582-.888-2.777-.888-1.109,0-1.975.245-2.596.734s-.932,1.168-.932,2.036c0,.697.295,1.286.885,1.768s1.594.921,3.012,1.32,2.527.839,3.328,1.319,1.395,1.041,1.781,1.682.58,1.395.58,2.262c0,1.383-.539,2.49-1.617,3.322s-2.52,1.248-4.324,1.248c-1.172,0-2.266-.225-3.281-.674s-1.799-1.064-2.35-1.846-.826-1.668-.826-2.66h2.262c0,1.031.381,1.846,1.143,2.443s1.779.896,3.053.896c1.188,0,2.098-.242,2.73-.727s.949-1.145.949-1.98-.293-1.482-.879-1.939-1.648-.908-3.188-1.354Z"/><path class="w" d="m265.542,403.354c0-1.242.244-2.359.732-3.352s1.168-1.758,2.039-2.297,1.865-.809,2.982-.809c1.727,0,3.123.598,4.189,1.793s1.6,2.785,1.6,4.77v.152c0,1.234-.236,2.342-.709,3.322s-1.148,1.744-2.027,2.291-1.889.82-3.029.82c-1.719,0-3.111-.598-4.178-1.793s-1.6-2.777-1.6-4.746v-.152Zm2.18.258c0,1.406.326,2.535.979,3.387s1.525,1.277,2.619,1.277c1.102,0,1.977-.432,2.625-1.295s.973-2.072.973-3.627c0-1.391-.33-2.518-.99-3.381s-1.537-1.295-2.631-1.295c-1.07,0-1.934.426-2.59,1.277s-.984,2.07-.984,3.656Z"/><path class="w" d="m280.871,409.811v-11.004h-2.004v-1.676h2.004v-1.301c0-1.359.363-2.41,1.09-3.152s1.754-1.113,3.082-1.113c.5,0,.996.066,1.488.198l-.117,1.747c-.367-.07-.758-.105-1.172-.105-.703,0-1.246.206-1.629.617-.383.412-.574,1.002-.574,1.77v1.34h2.707v1.676h-2.707v11.004h-2.168Z"/><path class="w" d="m291.078,394.061v3.07h2.367v1.676h-2.367v7.873c0,.509.105.891.316,1.145s.57.381,1.078.381c.25,0,.594-.047,1.031-.141v1.748c-.57.155-1.125.232-1.664.232-.969,0-1.699-.293-2.191-.879s-.738-1.418-.738-2.496v-7.863h-2.309v-1.676h2.309v-3.07h2.168Z"/><path class="w" d="m407.426,407.971h8.086v1.84h-10.348v-17.062h2.262v15.223Z"/><path class="w" d="m417.165,403.354c0-1.242.244-2.359.732-3.352s1.168-1.758,2.039-2.297,1.865-.809,2.982-.809c1.727,0,3.123.598,4.189,1.793s1.6,2.785,1.6,4.77v.152c0,1.234-.236,2.342-.709,3.322s-1.148,1.744-2.027,2.291-1.889.82-3.029.82c-1.719,0-3.111-.598-4.178-1.793s-1.6-2.777-1.6-4.746v-.152Zm2.18.258c0,1.406.326,2.535.979,3.387s1.525,1.277,2.619,1.277c1.102,0,1.977-.432,2.625-1.295s.973-2.072.973-3.627c0-1.391-.33-2.518-.99-3.381s-1.537-1.295-2.631-1.295c-1.07,0-1.934.426-2.59,1.277s-.984,2.07-.984,3.656Z"/><path class="w" d="m439.254,408.557c-.844.992-2.082,1.488-3.715,1.488-1.352,0-2.381-.393-3.088-1.178s-1.064-1.947-1.072-3.486v-8.25h2.168v8.191c0,1.922.781,2.883,2.344,2.883,1.656,0,2.758-.617,3.305-1.852v-9.223h2.168v12.68h-2.062l-.047-1.254Z"/><path class="w" d="m444.129,403.365c0-1.945.461-3.51,1.383-4.693s2.129-1.775,3.621-1.775c1.484,0,2.66.508,3.527,1.523v-6.609h2.168v18h-1.992l-.105-1.359c-.867,1.062-2.074,1.594-3.621,1.594-1.469,0-2.666-.602-3.592-1.805s-1.389-2.773-1.389-4.711v-.164Zm2.168.246c0,1.438.297,2.562.891,3.375s1.414,1.219,2.461,1.219c1.375,0,2.379-.617,3.012-1.852v-5.824c-.648-1.195-1.645-1.793-2.988-1.793-1.062,0-1.891.41-2.484,1.23s-.891,2.035-.891,3.645Z"/><path class="w" d="m572.608,402.205c-1.93-.555-3.334-1.236-4.213-2.045s-1.318-1.807-1.318-2.994c0-1.344.537-2.455,1.611-3.334s2.471-1.318,4.19-1.318c1.172,0,2.217.227,3.135.68s1.629,1.078,2.133,1.875.756,1.668.756,2.613h-2.262c0-1.035-.328-1.848-.984-2.44-.656-.592-1.582-.888-2.777-.888-1.109,0-1.975.245-2.596.734s-.932,1.168-.932,2.036c0,.697.295,1.286.885,1.768s1.594.921,3.012,1.32,2.527.839,3.328,1.319,1.395,1.041,1.781,1.682.58,1.395.58,2.262c0,1.383-.539,2.49-1.617,3.322s-2.52,1.248-4.324,1.248c-1.172,0-2.266-.225-3.282-.674s-1.799-1.064-2.35-1.846-.826-1.668-.826-2.66h2.262c0,1.031.381,1.846,1.143,2.443s1.78.896,3.053.896c1.188,0,2.098-.242,2.73-.727s.949-1.145.949-1.98-.293-1.482-.879-1.939-1.648-.908-3.188-1.354Z"/><path class="w" d="m580.905,403.354c0-1.242.244-2.359.732-3.352s1.168-1.758,2.039-2.297,1.865-.809,2.982-.809c1.727,0,3.123.598,4.189,1.793s1.6,2.785,1.6,4.77v.152c0,1.234-.236,2.342-.709,3.322s-1.148,1.744-2.027,2.291-1.889.82-3.029.82c-1.719,0-3.111-.598-4.178-1.793s-1.6-2.777-1.6-4.746v-.152Zm2.18.258c0,1.406.326,2.535.979,3.387s1.525,1.277,2.619,1.277c1.102,0,1.977-.432,2.625-1.295s.973-2.072.973-3.627c0-1.391-.33-2.518-.99-3.381s-1.537-1.295-2.631-1.295c-1.07,0-1.934.426-2.59,1.277s-.984,2.07-.984,3.656Z"/><path class="w" d="m596.233,409.811v-11.004h-2.004v-1.676h2.004v-1.301c0-1.359.363-2.41,1.09-3.152s1.754-1.113,3.082-1.113c.5,0,.996.066,1.488.198l-.117,1.747c-.367-.07-.758-.105-1.172-.105-.703,0-1.246.206-1.629.617-.383.412-.574,1.002-.574,1.77v1.34h2.707v1.676h-2.707v11.004h-2.168Z"/><path class="w" d="m606.44,394.061v3.07h2.367v1.676h-2.367v7.873c0,.509.105.891.316,1.145s.57.381,1.078.381c.25,0,.594-.047,1.031-.141v1.748c-.57.155-1.125.232-1.664.232-.969,0-1.699-.293-2.191-.879s-.738-1.418-.738-2.496v-7.863h-2.309v-1.676h2.309v-3.07h2.168Z"/><path class="w" d="m722.788,407.971h8.086v1.84h-10.348v-17.062h2.262v15.223Z"/><path class="w" d="m732.526,403.354c0-1.242.244-2.359.732-3.352s1.168-1.758,2.039-2.297,1.865-.809,2.982-.809c1.727,0,3.123.598,4.189,1.793s1.6,2.785,1.6,4.77v.152c0,1.234-.236,2.342-.709,3.322s-1.148,1.744-2.027,2.291-1.889.82-3.029.82c-1.719,0-3.111-.598-4.178-1.793s-1.6-2.777-1.6-4.746v-.152Zm2.18.258c0,1.406.326,2.535.979,3.387s1.525,1.277,2.619,1.277c1.102,0,1.977-.432,2.625-1.295s.973-2.072.973-3.627c0-1.391-.33-2.518-.99-3.381s-1.537-1.295-2.631-1.295c-1.07,0-1.934.426-2.59,1.277s-.984,2.07-.984,3.656Z"/><path class="w" d="m754.616,408.557c-.844.992-2.082,1.488-3.715,1.488-1.352,0-2.381-.393-3.088-1.178s-1.064-1.947-1.072-3.486v-8.25h2.168v8.191c0,1.922.781,2.883,2.344,2.883,1.656,0,2.758-.617,3.305-1.852v-9.223h2.168v12.68h-2.062l-.047-1.254Z"/><path class="w" d="m759.491,403.365c0-1.945.461-3.51,1.383-4.693s2.129-1.775,3.621-1.775c1.484,0,2.66.508,3.527,1.523v-6.609h2.168v18h-1.992l-.105-1.359c-.867,1.062-2.074,1.594-3.621,1.594-1.469,0-2.666-.602-3.592-1.805s-1.389-2.773-1.389-4.711v-.164Zm2.168.246c0,1.438.297,2.562.891,3.375s1.414,1.219,2.461,1.219c1.375,0,2.379-.617,3.012-1.852v-5.824c-.648-1.195-1.645-1.793-2.988-1.793-1.062,0-1.891.41-2.484,1.23s-.891,2.035-.891,3.645Z"/><path class="w" d="m1039.951,407.971h8.086v1.84h-10.348v-17.062h2.262v15.223Z"/><path class="w" d="m1049.689,403.354c0-1.242.244-2.359.732-3.352s1.168-1.758,2.039-2.297,1.865-.809,2.982-.809c1.727,0,3.123.598,4.189,1.793s1.6,2.785,1.6,4.77v.152c0,1.234-.236,2.342-.709,3.322s-1.148,1.744-2.027,2.291-1.889.82-3.029.82c-1.719,0-3.111-.598-4.178-1.793s-1.6-2.777-1.6-4.746v-.152Zm2.18.258c0,1.406.326,2.535.979,3.387s1.525,1.277,2.619,1.277c1.102,0,1.977-.432,2.625-1.295s.973-2.072.973-3.627c0-1.391-.33-2.518-.99-3.381s-1.537-1.295-2.631-1.295c-1.07,0-1.934.426-2.59,1.277s-.984,2.07-.984,3.656Z"/><path class="w" d="m1071.779,408.557c-.844.992-2.082,1.488-3.715,1.488-1.352,0-2.381-.393-3.088-1.178s-1.064-1.947-1.072-3.486v-8.25h2.168v8.191c0,1.922.781,2.883,2.344,2.883,1.656,0,2.758-.617,3.305-1.852v-9.223h2.168v12.68h-2.062l-.047-1.254Z"/><path class="w" d="m1076.654,403.365c0-1.945.461-3.51,1.383-4.693s2.129-1.775,3.621-1.775c1.484,0,2.66.508,3.527,1.523v-6.609h2.168v18h-1.992l-.105-1.359c-.867,1.062-2.074,1.594-3.621,1.594-1.469,0-2.666-.602-3.592-1.805s-1.389-2.773-1.389-4.711v-.164Zm2.168.246c0,1.438.297,2.562.891,3.375s1.414,1.219,2.461,1.219c1.375,0,2.379-.617,3.012-1.852v-5.824c-.648-1.195-1.645-1.793-2.988-1.793-1.062,0-1.891.41-2.484,1.23s-.891,2.035-.891,3.645Z"/><path class="w" d="m887.97,402.205c-1.93-.555-3.334-1.236-4.213-2.045s-1.318-1.807-1.318-2.994c0-1.344.537-2.455,1.611-3.334s2.471-1.318,4.189-1.318c1.172,0,2.217.227,3.135.68s1.629,1.078,2.133,1.875.756,1.668.756,2.613h-2.262c0-1.035-.328-1.848-.984-2.44-.656-.592-1.582-.888-2.777-.888-1.109,0-1.975.245-2.596.734s-.932,1.168-.932,2.036c0,.697.295,1.286.885,1.768s1.594.921,3.012,1.32,2.527.839,3.328,1.319,1.395,1.041,1.781,1.682.58,1.395.58,2.262c0,1.383-.539,2.49-1.617,3.322s-2.52,1.248-4.324,1.248c-1.172,0-2.266-.225-3.281-.674s-1.799-1.064-2.35-1.846-.826-1.668-.826-2.66h2.262c0,1.031.381,1.846,1.143,2.443s1.779.896,3.053.896c1.188,0,2.098-.242,2.73-.727s.949-1.145.949-1.98-.293-1.482-.879-1.939-1.648-.908-3.188-1.354Z"/><path class="w" d="m896.267,403.354c0-1.242.244-2.359.732-3.352s1.168-1.758,2.039-2.297,1.865-.809,2.982-.809c1.727,0,3.123.598,4.189,1.793s1.6,2.785,1.6,4.77v.152c0,1.234-.236,2.342-.709,3.322s-1.148,1.744-2.027,2.291-1.889.82-3.029.82c-1.719,0-3.111-.598-4.178-1.793s-1.6-2.777-1.6-4.746v-.152Zm2.18.258c0,1.406.326,2.535.979,3.387s1.525,1.277,2.619,1.277c1.102,0,1.977-.432,2.625-1.295s.973-2.072.973-3.627c0-1.391-.33-2.518-.99-3.381s-1.537-1.295-2.631-1.295c-1.07,0-1.934.426-2.59,1.277s-.984,2.07-.984,3.656Z"/><path class="w" d="m911.595,409.811v-11.004h-2.004v-1.676h2.004v-1.301c0-1.359.363-2.41,1.09-3.152s1.754-1.113,3.082-1.113c.5,0,.996.066,1.488.198l-.117,1.747c-.367-.07-.758-.105-1.172-.105-.703,0-1.246.206-1.629.617-.383.412-.574,1.002-.574,1.77v1.34h2.707v1.676h-2.707v11.004h-2.168Z"/><path class="w" d="m921.802,394.061v3.07h2.367v1.676h-2.367v7.873c0,.509.105.891.316,1.145s.57.381,1.078.381c.25,0,.594-.047,1.031-.141v1.748c-.57.155-1.125.232-1.664.232-.969,0-1.699-.293-2.191-.879s-.738-1.418-.738-2.496v-7.863h-2.309v-1.676h2.309v-3.07h2.168Z"/></g><g id="l"><path class="t" d="m120.728,239.467c-.211,1.805-.877,3.197-1.998,4.178s-2.611,1.471-4.471,1.471c-2.016,0-3.631-.723-4.846-2.168s-1.822-3.379-1.822-5.801v-1.641c0-1.586.283-2.98.85-4.184s1.369-2.127,2.408-2.771,2.242-.967,3.609-.967c1.812,0,3.266.506,4.359,1.518s1.73,2.412,1.91,4.201h-2.262c-.195-1.363-.619-2.351-1.271-2.962-.652-.611-1.564-.917-2.736-.917-1.438,0-2.564.532-3.381,1.595s-1.225,2.576-1.225,4.539v1.654c0,1.853.387,3.327,1.16,4.421.773,1.095,1.855,1.642,3.246,1.642,1.25,0,2.209-.283,2.877-.85s1.111-1.553,1.33-2.959h2.262Z"/><path class="t" d="m193.791,237.979h-4.008v6.902h-2.262v-17.062h5.648c1.922,0,3.4.438,4.436,1.312s1.553,2.148,1.553,3.82c0,1.062-.287,1.988-.861,2.777s-1.373,1.379-2.396,1.77l4.008,7.242v.141h-2.414l-3.703-6.902Zm-4.008-1.84h3.457c1.117,0,2.006-.29,2.666-.869s.99-1.354.99-2.325c0-1.057-.314-1.866-.943-2.43-.629-.563-1.537-.849-2.725-.857h-3.445v6.48Z"/><path class="t" d="m278.597,239.467c-.211,1.805-.877,3.197-1.998,4.178s-2.611,1.471-4.471,1.471c-2.016,0-3.631-.723-4.846-2.168s-1.822-3.379-1.822-5.801v-1.641c0-1.586.283-2.98.85-4.184s1.369-2.127,2.408-2.771,2.242-.967,3.609-.967c1.812,0,3.266.506,4.359,1.518s1.73,2.412,1.91,4.201h-2.262c-.195-1.363-.619-2.351-1.271-2.962-.652-.611-1.564-.917-2.736-.917-1.438,0-2.564.532-3.381,1.595s-1.225,2.576-1.225,4.539v1.654c0,1.853.387,3.327,1.16,4.421.773,1.095,1.855,1.642,3.246,1.642,1.25,0,2.209-.283,2.877-.85s1.111-1.553,1.33-2.959h2.262Z"/><path class="t" d="m351.661,237.979h-4.008v6.902h-2.262v-17.062h5.648c1.922,0,3.4.438,4.436,1.312s1.553,2.148,1.553,3.82c0,1.062-.287,1.988-.861,2.777s-1.373,1.379-2.396,1.77l4.008,7.242v.141h-2.414l-3.703-6.902Zm-4.008-1.84h3.457c1.117,0,2.006-.29,2.666-.869s.99-1.354.99-2.325c0-1.057-.314-1.866-.943-2.43-.629-.563-1.537-.849-2.725-.857h-3.445v6.48Z"/><path class="t" d="m436.466,239.467c-.211,1.805-.877,3.197-1.998,4.178s-2.611,1.471-4.471,1.471c-2.016,0-3.631-.723-4.846-2.168s-1.822-3.379-1.822-5.801v-1.641c0-1.586.283-2.98.85-4.184s1.369-2.127,2.408-2.771,2.242-.967,3.609-.967c1.812,0,3.266.506,4.359,1.518s1.73,2.412,1.91,4.201h-2.262c-.195-1.363-.619-2.351-1.271-2.962-.652-.611-1.564-.917-2.736-.917-1.438,0-2.564.532-3.381,1.595s-1.225,2.576-1.225,4.539v1.654c0,1.853.387,3.327,1.16,4.421.773,1.095,1.855,1.642,3.246,1.642,1.25,0,2.209-.283,2.877-.85s1.111-1.553,1.33-2.959h2.262Z"/><path class="t" d="m509.53,237.979h-4.008v6.902h-2.262v-17.062h5.648c1.922,0,3.4.438,4.436,1.312s1.553,2.148,1.553,3.82c0,1.062-.287,1.988-.861,2.777s-1.373,1.379-2.396,1.77l4.008,7.242v.141h-2.414l-3.703-6.902Zm-4.008-1.84h3.457c1.117,0,2.006-.29,2.666-.869s.99-1.354.99-2.325c0-1.057-.314-1.866-.943-2.43-.629-.563-1.537-.849-2.725-.857h-3.445v6.48Z"/><path class="t" d="m594.336,239.467c-.211,1.805-.877,3.197-1.998,4.178s-2.611,1.471-4.471,1.471c-2.016,0-3.631-.723-4.846-2.168s-1.822-3.379-1.822-5.801v-1.641c0-1.586.283-2.98.85-4.184s1.369-2.127,2.408-2.771,2.242-.967,3.609-.967c1.812,0,3.266.506,4.359,1.518s1.73,2.412,1.91,4.201h-2.262c-.195-1.363-.619-2.351-1.271-2.962-.652-.611-1.564-.917-2.736-.917-1.438,0-2.564.532-3.381,1.595s-1.225,2.576-1.225,4.539v1.654c0,1.853.387,3.327,1.16,4.421.773,1.095,1.855,1.642,3.246,1.642,1.25,0,2.209-.283,2.877-.85s1.111-1.553,1.33-2.959h2.262Z"/><path class="t" d="m667.399,237.979h-4.008v6.902h-2.262v-17.062h5.648c1.922,0,3.4.438,4.436,1.312s1.553,2.148,1.553,3.82c0,1.062-.287,1.988-.861,2.777s-1.373,1.379-2.396,1.77l4.008,7.242v.141h-2.414l-3.703-6.902Zm-4.008-1.84h3.457c1.117,0,2.006-.29,2.666-.869s.99-1.354.99-2.325c0-1.057-.314-1.866-.943-2.43-.629-.563-1.537-.849-2.725-.857h-3.445v6.48Z"/><path class="t" d="m752.205,239.467c-.211,1.805-.877,3.197-1.998,4.178s-2.611,1.471-4.471,1.471c-2.016,0-3.631-.723-4.846-2.168s-1.822-3.379-1.822-5.801v-1.641c0-1.586.283-2.98.85-4.184s1.369-2.127,2.408-2.771,2.242-.967,3.609-.967c1.812,0,3.266.506,4.359,1.518s1.73,2.412,1.91,4.201h-2.262c-.195-1.363-.619-2.351-1.271-2.962-.652-.611-1.564-.917-2.736-.917-1.438,0-2.564.532-3.381,1.595s-1.225,2.576-1.225,4.539v1.654c0,1.853.387,3.327,1.16,4.421.773,1.095,1.855,1.642,3.246,1.642,1.25,0,2.209-.283,2.877-.85s1.111-1.553,1.33-2.959h2.262Z"/><path class="t" d="m825.27,237.979h-4.008v6.902h-2.262v-17.062h5.648c1.922,0,3.4.438,4.436,1.312s1.553,2.148,1.553,3.82c0,1.062-.287,1.988-.861,2.777s-1.373,1.379-2.396,1.77l4.008,7.242v.141h-2.414l-3.703-6.902Zm-4.008-1.84h3.457c1.117,0,2.006-.29,2.666-.869s.99-1.354.99-2.325c0-1.057-.314-1.866-.943-2.43-.629-.563-1.537-.849-2.725-.857h-3.445v6.48Z"/><path class="t" d="m910.075,239.467c-.211,1.805-.877,3.197-1.998,4.178s-2.611,1.471-4.471,1.471c-2.016,0-3.631-.723-4.846-2.168s-1.822-3.379-1.822-5.801v-1.641c0-1.586.283-2.98.85-4.184s1.369-2.127,2.408-2.771,2.242-.967,3.609-.967c1.812,0,3.266.506,4.359,1.518s1.73,2.412,1.91,4.201h-2.262c-.195-1.363-.619-2.351-1.271-2.962-.652-.611-1.564-.917-2.736-.917-1.438,0-2.564.532-3.381,1.595s-1.225,2.576-1.225,4.539v1.654c0,1.853.387,3.327,1.16,4.421.773,1.095,1.855,1.642,3.246,1.642,1.25,0,2.209-.283,2.877-.85s1.111-1.553,1.33-2.959h2.262Z"/><path class="t" d="m983.399,237.979h-4.008v6.902h-2.262v-17.062h5.648c1.922,0,3.4.438,4.436,1.312s1.553,2.148,1.553,3.82c0,1.062-.287,1.988-.861,2.777s-1.373,1.379-2.396,1.77l4.008,7.242v.141h-2.414l-3.703-6.902Zm-4.008-1.84h3.457c1.117,0,2.006-.29,2.666-.869s.99-1.354.99-2.325c0-1.057-.314-1.866-.943-2.43-.629-.563-1.537-.849-2.725-.857h-3.445v6.48Z"/><path class="t" d="m1068.205,239.467c-.211,1.805-.877,3.197-1.998,4.178s-2.611,1.471-4.471,1.471c-2.016,0-3.631-.723-4.846-2.168s-1.822-3.379-1.822-5.801v-1.641c0-1.586.283-2.98.85-4.184s1.369-2.127,2.408-2.771,2.242-.967,3.609-.967c1.812,0,3.266.506,4.359,1.518s1.73,2.412,1.91,4.201h-2.262c-.195-1.363-.619-2.351-1.271-2.962-.652-.611-1.564-.917-2.736-.917-1.438,0-2.564.532-3.381,1.595s-1.225,2.576-1.225,4.539v1.654c0,1.853.387,3.327,1.16,4.421.773,1.095,1.855,1.642,3.246,1.642,1.25,0,2.209-.283,2.877-.85s1.111-1.553,1.33-2.959h2.262Z"/></g></g></svg>