<?xml version="1.0" encoding="UTF-8"?><svg id="a" xmlns="http://www.w3.org/2000/svg" width="1140" height="711.9323" xmlns:xlink="http://www.w3.org/1999/xlink" viewBox="0 0 1140 711.9323"><defs><clipPath id="b"><path d="M210.0778,46.6457c-34.585-1.9724-69.0489-.7447-103.1438,9.138C46.0174,73.4464,13.8848,118.4414,14.4224,180.5182c.2554,29.4879,5.8387,58.6901,7.2529,88.1461,3.0798,64.1478-13.6173,127.5611-17.2734,191.6794-3.1279,54.856,4.8868,115.8072,41.0915,159.7746,39.0961,47.4788,101.6744,70.0317,161.8057,75.8397,65.3534,6.3125,130.9835-4.3193,196.4589-9.2477,185.4748-13.961,371.0597,17.897,556.9404,24.8234,58.4618,2.1784,127.1344-3.1804,159.0824-51.5726,37.9048-57.415,1.9598-141.7839-3.4584-204.2219-4.2935-49.4759-4.8392-99.2691-1.6158-148.8244,3.1275-48.0812,17.733-97.7572,11.5968-145.8612-13.2259-103.6815-136.7501-131.4068-226.5458-121.8461-146.7626,15.626-294.5566,22.337-442.1755,20.2916-82.8399-1.1479-164.8423-8.1367-247.5042-12.8533Z" fill="#d9ecf2"/></clipPath><clipPath id="d"><path d="M888.0364,290.2213c-1.6528-1.7501-5.4603-5.4974-4.2482-9.7833,3.8917-13.7596,6.9342-5.299,21.8043-7.4319,14.8703-2.1328,41.6271-20.6353,55.4509-27.697,13.8239-7.0617,32.1076-14.7862,41.5231-19.3714,9.4155-4.5852,9.4144-5.6429,15.5835-8.0784,6.1692-2.4354,10.5502-3.918,15.4089-5.3148,4.8587-1.3968,10.2584-4.7048,14.7155-3.3749-.2576,3.1267-6.535,9.511-7.4071,12.1462s-1.9585,4.7045-2.3509,7.7363c-.6717,2.2878-2.6029,8.2739-4.1027,8.8738-2.5833,1.0333,.0003-4.3814-1.5915-5.0569-3.1073-1.3187-4.0353,.5656-5.942,2.9113-1.9068,2.3457-6.4906,.96-9.0152,1.3876-7.1744,1.2153-14.5311,9.1896-18.9989,13.1247-4.4678,3.9351-1.0383,7.8396-4.322,10.6531-7.4132,6.3517-11.3499,.7722-22.1224,4.7595-4.2531,1.5742-22.1309,5.7811-28.2814,10.1234-1.2289,.8676-2.4613,2.8334-4.3604,3.4082-4.7932,1.4508-8.2111-2.041-14.2036,.0043-2.8924,.9873-10.7727,6.6529-14.9247,7.3361-6.9853,1.1494-13.548,1.9281-20.4095,2.8601-1.0007,.1359-1.0817,.5583-2.2056,.7839Z" fill="#78a3b3"/></clipPath></defs><g><path d="M210.0778,46.6457c-34.585-1.9724-69.0489-.7447-103.1438,9.138C46.0174,73.4464,13.8848,118.4414,14.4224,180.5182c.2554,29.4879,5.8387,58.6901,7.2529,88.1461,3.0798,64.1478-13.6173,127.5611-17.2734,191.6794-3.1279,54.856,4.8868,115.8072,41.0915,159.7746,39.0961,47.4788,101.6744,70.0317,161.8057,75.8397,65.3534,6.3125,130.9835-4.3193,196.4589-9.2477,185.4748-13.961,371.0597,17.897,556.9404,24.8234,58.4618,2.1784,127.1344-3.1804,159.0824-51.5726,37.9048-57.415,1.9598-141.7839-3.4584-204.2219-4.2935-49.4759-4.8392-99.2691-1.6158-148.8244,3.1275-48.0812,17.733-97.7572,11.5968-145.8612-13.2259-103.6815-136.7501-131.4068-226.5458-121.8461-146.7626,15.626-294.5566,22.337-442.1755,20.2916-82.8399-1.1479-164.8423-8.1367-247.5042-12.8533Z" fill="#d9ecf2"/><g clip-path="url(#b)"><g><path d="M44.3228,203.6069h-2.2617l-8.5898-13.1484v13.1484h-2.2617v-17.0625h2.2617l8.6133,13.207v-13.207h2.2383v17.0625Z"/><path d="M55.8071,203.6069c-.125-.25-.2266-.6953-.3047-1.3359-1.0078,1.0469-2.2109,1.5703-3.6094,1.5703-1.25,0-2.2754-.3535-3.0762-1.0605s-1.2012-1.6035-1.2012-2.6895c0-1.3203,.502-2.3457,1.5059-3.0762s2.416-1.0957,4.2363-1.0957h2.1094v-.9961c0-.7578-.2266-1.3613-.6797-1.8105s-1.1211-.6738-2.0039-.6738c-.7734,0-1.4219,.1953-1.9453,.5859s-.7852,.8633-.7852,1.418h-2.1797c0-.6328,.2246-1.2441,.6738-1.834s1.0586-1.0566,1.8281-1.4004,1.6152-.5156,2.5371-.5156c1.4609,0,2.6055,.3652,3.4336,1.0957s1.2578,1.7363,1.2891,3.0176v5.8359c0,1.1641,.1484,2.0898,.4453,2.7773v.1875h-2.2734Zm-3.5977-1.6523c.6797,0,1.3242-.1758,1.9336-.5273s1.0508-.8086,1.3242-1.3711v-2.6016h-1.6992c-2.6562,0-3.9844,.7773-3.9844,2.332,0,.6797,.2266,1.2109,.6797,1.5938s1.0352,.5742,1.7461,.5742Z"/><path d="M68.4165,200.2437c0-.5859-.2207-1.041-.6621-1.3652s-1.2109-.6035-2.3086-.8379-1.9688-.5156-2.6133-.8438-1.1211-.7188-1.4297-1.1719-.4629-.9922-.4629-1.6172c0-1.0391,.4395-1.918,1.3184-2.6367s2.002-1.0781,3.3691-1.0781c1.4375,0,2.6035,.3711,3.498,1.1133s1.3418,1.6914,1.3418,2.8477h-2.1797c0-.5938-.252-1.1055-.7559-1.5352s-1.1387-.6445-1.9043-.6445c-.7891,0-1.4062,.1719-1.8516,.5156s-.668,.793-.668,1.3477c0,.5234,.207,.918,.6211,1.1836s1.1621,.5195,2.2441,.7617,1.959,.5312,2.6309,.8672,1.1699,.7402,1.4941,1.2129,.4863,1.0488,.4863,1.7285c0,1.1328-.4531,2.041-1.3594,2.7246s-2.082,1.0254-3.5273,1.0254c-1.0156,0-1.9141-.1797-2.6953-.5391s-1.3926-.8613-1.834-1.5059-.6621-1.3418-.6621-2.0918h2.168c.0391,.7266,.3301,1.3027,.873,1.7285s1.2598,.6387,2.1504,.6387c.8203,0,1.4785-.166,1.9746-.498s.7441-.7754,.7441-1.3301Z"/><path d="M81.2368,203.6069c-.125-.25-.2266-.6953-.3047-1.3359-1.0078,1.0469-2.2109,1.5703-3.6094,1.5703-1.25,0-2.2754-.3535-3.0762-1.0605s-1.2012-1.6035-1.2012-2.6895c0-1.3203,.502-2.3457,1.5059-3.0762s2.416-1.0957,4.2363-1.0957h2.1094v-.9961c0-.7578-.2266-1.3613-.6797-1.8105s-1.1211-.6738-2.0039-.6738c-.7734,0-1.4219,.1953-1.9453,.5859s-.7852,.8633-.7852,1.418h-2.1797c0-.6328,.2246-1.2441,.6738-1.834s1.0586-1.0566,1.8281-1.4004,1.6152-.5156,2.5371-.5156c1.4609,0,2.6055,.3652,3.4336,1.0957s1.2578,1.7363,1.2891,3.0176v5.8359c0,1.1641,.1484,2.0898,.4453,2.7773v.1875h-2.2734Zm-3.5977-1.6523c.6797,0,1.3242-.1758,1.9336-.5273s1.0508-.8086,1.3242-1.3711v-2.6016h-1.6992c-2.6562,0-3.9844,.7773-3.9844,2.332,0,.6797,.2266,1.2109,.6797,1.5938s1.0352,.5742,1.7461,.5742Z"/><path d="M88.8188,203.6069h-2.168v-18h2.168v18Z"/><path d="M105.6118,200.2437c0-.5859-.2207-1.041-.6621-1.3652s-1.2109-.6035-2.3086-.8379-1.9688-.5156-2.6133-.8438-1.1211-.7188-1.4297-1.1719-.4629-.9922-.4629-1.6172c0-1.0391,.4395-1.918,1.3184-2.6367s2.002-1.0781,3.3691-1.0781c1.4375,0,2.6035,.3711,3.498,1.1133s1.3418,1.6914,1.3418,2.8477h-2.1797c0-.5938-.252-1.1055-.7559-1.5352s-1.1387-.6445-1.9043-.6445c-.7891,0-1.4062,.1719-1.8516,.5156s-.668,.793-.668,1.3477c0,.5234,.207,.918,.6211,1.1836s1.1621,.5195,2.2441,.7617,1.959,.5312,2.6309,.8672,1.1699,.7402,1.4941,1.2129,.4863,1.0488,.4863,1.7285c0,1.1328-.4531,2.041-1.3594,2.7246s-2.082,1.0254-3.5273,1.0254c-1.0156,0-1.9141-.1797-2.6953-.5391s-1.3926-.8613-1.834-1.5059-.6621-1.3418-.6621-2.0918h2.168c.0391,.7266,.3301,1.3027,.873,1.7285s1.2598,.6387,2.1504,.6387c.8203,0,1.4785-.166,1.9746-.498s.7441-.7754,.7441-1.3301Z"/><path d="M118.4321,203.6069c-.125-.25-.2266-.6953-.3047-1.3359-1.0078,1.0469-2.2109,1.5703-3.6094,1.5703-1.25,0-2.2754-.3535-3.0762-1.0605s-1.2012-1.6035-1.2012-2.6895c0-1.3203,.502-2.3457,1.5059-3.0762s2.416-1.0957,4.2363-1.0957h2.1094v-.9961c0-.7578-.2266-1.3613-.6797-1.8105s-1.1211-.6738-2.0039-.6738c-.7734,0-1.4219,.1953-1.9453,.5859s-.7852,.8633-.7852,1.418h-2.1797c0-.6328,.2246-1.2441,.6738-1.834s1.0586-1.0566,1.8281-1.4004,1.6152-.5156,2.5371-.5156c1.4609,0,2.6055,.3652,3.4336,1.0957s1.2578,1.7363,1.2891,3.0176v5.8359c0,1.1641,.1484,2.0898,.4453,2.7773v.1875h-2.2734Zm-3.5977-1.6523c.6797,0,1.3242-.1758,1.9336-.5273s1.0508-.8086,1.3242-1.3711v-2.6016h-1.6992c-2.6562,0-3.9844,.7773-3.9844,2.332,0,.6797,.2266,1.2109,.6797,1.5938s1.0352,.5742,1.7461,.5742Z"/><path d="M128.7446,202.0718c.7734,0,1.4492-.2344,2.0273-.7031s.8984-1.0547,.9609-1.7578h2.0508c-.0391,.7266-.2891,1.418-.75,2.0742s-1.0762,1.1797-1.8457,1.5703-1.584,.5859-2.4434,.5859c-1.7266,0-3.0996-.5762-4.1191-1.7285s-1.5293-2.7285-1.5293-4.7285v-.3633c0-1.2344,.2266-2.332,.6797-3.293s1.1035-1.707,1.9512-2.2383,1.8496-.7969,3.0059-.7969c1.4219,0,2.6035,.4258,3.5449,1.2773s1.4434,1.957,1.5059,3.3164h-2.0508c-.0625-.8203-.373-1.4941-.9316-2.0215s-1.248-.791-2.0684-.791c-1.1016,0-1.9551,.3965-2.5605,1.1895s-.9082,1.9395-.9082,3.4395v.4102c0,1.4609,.3008,2.5859,.9023,3.375s1.4609,1.1836,2.5781,1.1836Z"/><path d="M143.604,200.2437c0-.5859-.2207-1.041-.6621-1.3652s-1.2109-.6035-2.3086-.8379-1.9688-.5156-2.6133-.8438-1.1211-.7188-1.4297-1.1719-.4629-.9922-.4629-1.6172c0-1.0391,.4395-1.918,1.3184-2.6367s2.002-1.0781,3.3691-1.0781c1.4375,0,2.6035,.3711,3.498,1.1133s1.3418,1.6914,1.3418,2.8477h-2.1797c0-.5938-.252-1.1055-.7559-1.5352s-1.1387-.6445-1.9043-.6445c-.7891,0-1.4062,.1719-1.8516,.5156s-.668,.793-.668,1.3477c0,.5234,.207,.918,.6211,1.1836s1.1621,.5195,2.2441,.7617,1.959,.5312,2.6309,.8672,1.1699,.7402,1.4941,1.2129,.4863,1.0488,.4863,1.7285c0,1.1328-.4531,2.041-1.3594,2.7246s-2.082,1.0254-3.5273,1.0254c-1.0156,0-1.9141-.1797-2.6953-.5391s-1.3926-.8613-1.834-1.5059-.6621-1.3418-.6621-2.0918h2.168c.0391,.7266,.3301,1.3027,.873,1.7285s1.2598,.6387,2.1504,.6387c.8203,0,1.4785-.166,1.9746-.498s.7441-.7754,.7441-1.3301Z"/></g><g><path d="M604.9736,120.6768c0,1.6719-.2812,3.1309-.8438,4.377s-1.3594,2.1973-2.3906,2.8535-2.2344,.9844-3.6094,.9844c-1.3438,0-2.5352-.3301-3.5742-.9902s-1.8457-1.6016-2.4199-2.8242-.8691-2.6387-.8848-4.248v-1.2305c0-1.6406,.2852-3.0898,.8555-4.3477s1.377-2.2207,2.4199-2.8887,2.2363-1.002,3.5801-1.002c1.3672,0,2.5723,.3301,3.6152,.9902s1.8457,1.6172,2.4082,2.8711,.8438,2.7129,.8438,4.377v1.0781Zm-2.2383-1.1016c0-2.0234-.4062-3.5762-1.2188-4.6582s-1.9492-1.623-3.4102-1.623c-1.4219,0-2.541,.541-3.3574,1.623s-1.2363,2.584-1.2598,4.5059v1.2539c0,1.9609,.4121,3.502,1.2363,4.623s1.959,1.6816,3.4043,1.6816c1.4531,0,2.5781-.5293,3.375-1.5879s1.207-2.5762,1.2305-4.5527v-1.2656Z"/><path d="M615.8369,127.4033c-.8438,.9922-2.082,1.4883-3.7148,1.4883-1.3516,0-2.3809-.3926-3.0879-1.1777s-1.0645-1.9473-1.0723-3.4863v-8.25h2.168v8.1914c0,1.9219,.7812,2.8828,2.3438,2.8828,1.6562,0,2.7578-.6172,3.3047-1.8516v-9.2227h2.168v12.6797h-2.0625l-.0469-1.2539Z"/><path d="M624.1807,112.9072v3.0703h2.3672v1.6758h-2.3672v7.873c0,.5088,.1055,.8901,.3164,1.144,.2109,.2544,.5703,.3813,1.0781,.3813,.25,0,.5938-.0469,1.0312-.1406v1.7476c-.5703,.1553-1.125,.2329-1.6641,.2329-.9688,0-1.6992-.293-2.1914-.8789s-.7383-1.418-.7383-2.4961v-7.8633h-2.3086v-1.6758h2.3086v-3.0703h2.168Z"/><path d="M628.5635,122.2119c0-1.9766,.457-3.5488,1.3711-4.7168s2.125-1.752,3.6328-1.752c1.5469,0,2.7539,.5469,3.6211,1.6406l.1055-1.4062h1.9805v12.375c0,1.6406-.4863,2.9336-1.459,3.8789s-2.2793,1.418-3.9199,1.418c-.9141,0-1.8086-.1953-2.6836-.5859s-1.543-.9258-2.0039-1.6055l1.125-1.3008c.9297,1.1484,2.0664,1.7227,3.4102,1.7227,1.0547,0,1.877-.2969,2.4668-.8906s.8848-1.4297,.8848-2.5078v-1.0898c-.8672,1-2.0508,1.5-3.5508,1.5-1.4844,0-2.6855-.5977-3.6035-1.793s-1.377-2.8242-1.377-4.8867Zm2.1797,.2461c0,1.4297,.293,2.5527,.8789,3.3691s1.4062,1.2246,2.4609,1.2246c1.3672,0,2.3711-.6211,3.0117-1.8633v-5.7891c-.6641-1.2109-1.6602-1.8164-2.9883-1.8164-1.0547,0-1.8789,.4102-2.4727,1.2305s-.8906,2.0352-.8906,3.6445Z"/><path d="M641.9697,122.2002c0-1.2422,.2441-2.3594,.7324-3.3516s1.168-1.7578,2.0391-2.2969,1.8652-.8086,2.9824-.8086c1.7266,0,3.123,.5977,4.1895,1.793s1.5996,2.7852,1.5996,4.7695v.1523c0,1.2344-.2363,2.3418-.709,3.3223s-1.1484,1.7441-2.0273,2.291-1.8887,.8203-3.0293,.8203c-1.7188,0-3.1113-.5977-4.1777-1.793s-1.5996-2.7773-1.5996-4.7461v-.1523Zm2.1797,.2578c0,1.4062,.3262,2.5352,.9785,3.3867s1.5254,1.2773,2.6191,1.2773c1.1016,0,1.9766-.4316,2.625-1.2949s.9727-2.0723,.9727-3.627c0-1.3906-.3301-2.5176-.9902-3.3809s-1.5371-1.2949-2.6309-1.2949c-1.0703,0-1.9336,.4258-2.5898,1.2773s-.9844,2.0703-.9844,3.6562Z"/><path d="M656.2432,112.6143c0-.3516,.1074-.6484,.3223-.8906s.5332-.3633,.9551-.3633,.7422,.1211,.9609,.3633,.3281,.5391,.3281,.8906-.1094,.6445-.3281,.8789-.5391,.3516-.9609,.3516-.7402-.1172-.9551-.3516-.3223-.5273-.3223-.8789Zm2.3438,16.043h-2.168v-12.6797h2.168v12.6797Z"/><path d="M664.1064,115.9775l.0703,1.5938c.9688-1.2188,2.2344-1.8281,3.7969-1.8281,2.6797,0,4.0312,1.5117,4.0547,4.5352v8.3789h-2.168v-8.3906c-.0078-.9141-.2168-1.5898-.627-2.0273s-1.0488-.6562-1.916-.6562c-.7031,0-1.3203,.1875-1.8516,.5625s-.9453,.8672-1.2422,1.4766v9.0352h-2.168v-12.6797h2.0508Z"/><path d="M674.7822,122.2119c0-1.9766,.457-3.5488,1.3711-4.7168s2.125-1.752,3.6328-1.752c1.5469,0,2.7539,.5469,3.6211,1.6406l.1055-1.4062h1.9805v12.375c0,1.6406-.4863,2.9336-1.459,3.8789s-2.2793,1.418-3.9199,1.418c-.9141,0-1.8086-.1953-2.6836-.5859s-1.543-.9258-2.0039-1.6055l1.125-1.3008c.9297,1.1484,2.0664,1.7227,3.4102,1.7227,1.0547,0,1.877-.2969,2.4668-.8906s.8848-1.4297,.8848-2.5078v-1.0898c-.8672,1-2.0508,1.5-3.5508,1.5-1.4844,0-2.6855-.5977-3.6035-1.793s-1.377-2.8242-1.377-4.8867Zm2.1797,.2461c0,1.4297,.293,2.5527,.8789,3.3691s1.4062,1.2246,2.4609,1.2246c1.3672,0,2.3711-.6211,3.0117-1.8633v-5.7891c-.6641-1.2109-1.6602-1.8164-2.9883-1.8164-1.0547,0-1.8789,.4102-2.4727,1.2305s-.8906,2.0352-.8906,3.6445Z"/><path d="M702.0869,125.2939c0-.5859-.2207-1.041-.6621-1.3652s-1.2109-.6035-2.3086-.8379-1.9688-.5156-2.6133-.8438-1.1211-.7188-1.4297-1.1719-.4629-.9922-.4629-1.6172c0-1.0391,.4395-1.918,1.3184-2.6367s2.002-1.0781,3.3691-1.0781c1.4375,0,2.6035,.3711,3.498,1.1133s1.3418,1.6914,1.3418,2.8477h-2.1797c0-.5938-.252-1.1055-.7559-1.5352s-1.1387-.6445-1.9043-.6445c-.7891,0-1.4062,.1719-1.8516,.5156s-.668,.793-.668,1.3477c0,.5234,.207,.918,.6211,1.1836s1.1621,.5195,2.2441,.7617,1.959,.5312,2.6309,.8672,1.1699,.7402,1.4941,1.2129,.4863,1.0488,.4863,1.7285c0,1.1328-.4531,2.041-1.3594,2.7246s-2.082,1.0254-3.5273,1.0254c-1.0156,0-1.9141-.1797-2.6953-.5391s-1.3926-.8613-1.834-1.5059-.6621-1.3418-.6621-2.0918h2.168c.0391,.7266,.3301,1.3027,.873,1.7285s1.2598,.6387,2.1504,.6387c.8203,0,1.4785-.166,1.9746-.498s.7441-.7754,.7441-1.3301Z"/><path d="M707.0908,112.6143c0-.3516,.1074-.6484,.3223-.8906s.5332-.3633,.9551-.3633,.7422,.1211,.9609,.3633,.3281,.5391,.3281,.8906-.1094,.6445-.3281,.8789-.5391,.3516-.9609,.3516-.7402-.1172-.9551-.3516-.3223-.5273-.3223-.8789Zm2.3438,16.043h-2.168v-12.6797h2.168v12.6797Z"/><path d="M712.3877,122.2119c0-1.9766,.457-3.5488,1.3711-4.7168s2.125-1.752,3.6328-1.752c1.5469,0,2.7539,.5469,3.6211,1.6406l.1055-1.4062h1.9805v12.375c0,1.6406-.4863,2.9336-1.459,3.8789s-2.2793,1.418-3.9199,1.418c-.9141,0-1.8086-.1953-2.6836-.5859s-1.543-.9258-2.0039-1.6055l1.125-1.3008c.9297,1.1484,2.0664,1.7227,3.4102,1.7227,1.0547,0,1.877-.2969,2.4668-.8906s.8848-1.4297,.8848-2.5078v-1.0898c-.8672,1-2.0508,1.5-3.5508,1.5-1.4844,0-2.6855-.5977-3.6035-1.793s-1.377-2.8242-1.377-4.8867Zm2.1797,.2461c0,1.4297,.293,2.5527,.8789,3.3691s1.4062,1.2246,2.4609,1.2246c1.3672,0,2.3711-.6211,3.0117-1.8633v-5.7891c-.6641-1.2109-1.6602-1.8164-2.9883-1.8164-1.0547,0-1.8789,.4102-2.4727,1.2305s-.8906,2.0352-.8906,3.6445Z"/><path d="M728.4189,115.9775l.0703,1.5938c.9688-1.2188,2.2344-1.8281,3.7969-1.8281,2.6797,0,4.0312,1.5117,4.0547,4.5352v8.3789h-2.168v-8.3906c-.0078-.9141-.2168-1.5898-.627-2.0273s-1.0488-.6562-1.916-.6562c-.7031,0-1.3203,.1875-1.8516,.5625s-.9453,.8672-1.2422,1.4766v9.0352h-2.168v-12.6797h2.0508Z"/><path d="M747.4385,128.6572c-.125-.25-.2266-.6953-.3047-1.3359-1.0078,1.0469-2.2109,1.5703-3.6094,1.5703-1.25,0-2.2754-.3535-3.0762-1.0605s-1.2012-1.6035-1.2012-2.6895c0-1.3203,.502-2.3457,1.5059-3.0762s2.416-1.0957,4.2363-1.0957h2.1094v-.9961c0-.7578-.2266-1.3613-.6797-1.8105s-1.1211-.6738-2.0039-.6738c-.7734,0-1.4219,.1953-1.9453,.5859s-.7852,.8633-.7852,1.418h-2.1797c0-.6328,.2246-1.2441,.6738-1.834s1.0586-1.0566,1.8281-1.4004,1.6152-.5156,2.5371-.5156c1.4609,0,2.6055,.3652,3.4336,1.0957s1.2578,1.7363,1.2891,3.0176v5.8359c0,1.1641,.1484,2.0898,.4453,2.7773v.1875h-2.2734Zm-3.5977-1.6523c.6797,0,1.3242-.1758,1.9336-.5273s1.0508-.8086,1.3242-1.3711v-2.6016h-1.6992c-2.6562,0-3.9844,.7773-3.9844,2.332,0,.6797,.2266,1.2109,.6797,1.5938s1.0352,.5742,1.7461,.5742Z"/><path d="M755.0205,128.6572h-2.168v-18h2.168v18Z"/></g><g><path d="M57.6597,573.9844v6.6797h-2.25v-17.0625h6.293c1.8672,0,3.3301,.4766,4.3887,1.4297s1.5879,2.2148,1.5879,3.7852c0,1.6562-.5176,2.9316-1.5527,3.8262s-2.5176,1.3418-4.4473,1.3418h-4.0195Zm0-1.8398h4.043c1.2031,0,2.125-.2832,2.7656-.8506s.9609-1.3877,.9609-2.46c0-1.0176-.3203-1.8311-.9609-2.4414s-1.5195-.9277-2.6367-.9512h-4.1719v6.7031Z"/><path d="M77.9097,580.6641c-.125-.25-.2266-.6953-.3047-1.3359-1.0078,1.0469-2.2109,1.5703-3.6094,1.5703-1.25,0-2.2754-.3535-3.0762-1.0605s-1.2012-1.6035-1.2012-2.6895c0-1.3203,.502-2.3457,1.5059-3.0762s2.416-1.0957,4.2363-1.0957h2.1094v-.9961c0-.7578-.2266-1.3613-.6797-1.8105s-1.1211-.6738-2.0039-.6738c-.7734,0-1.4219,.1953-1.9453,.5859s-.7852,.8633-.7852,1.418h-2.1797c0-.6328,.2246-1.2441,.6738-1.834s1.0586-1.0566,1.8281-1.4004,1.6152-.5156,2.5371-.5156c1.4609,0,2.6055,.3652,3.4336,1.0957s1.2578,1.7363,1.2891,3.0176v5.8359c0,1.1641,.1484,2.0898,.4453,2.7773v.1875h-2.2734Zm-3.5977-1.6523c.6797,0,1.3242-.1758,1.9336-.5273s1.0508-.8086,1.3242-1.3711v-2.6016h-1.6992c-2.6562,0-3.9844,.7773-3.9844,2.332,0,.6797,.2266,1.2109,.6797,1.5938s1.0352,.5742,1.7461,.5742Z"/><path d="M85.187,567.9844l.0703,1.5938c.9688-1.2188,2.2344-1.8281,3.7969-1.8281,2.6797,0,4.0312,1.5117,4.0547,4.5352v8.3789h-2.168v-8.3906c-.0078-.9141-.2168-1.5898-.627-2.0273s-1.0488-.6562-1.916-.6562c-.7031,0-1.3203,.1875-1.8516,.5625s-.9453,.8672-1.2422,1.4766v9.0352h-2.168v-12.6797h2.0508Z"/><path d="M107.1128,574.4648c0,1.9375-.4453,3.4941-1.3359,4.6699s-2.0859,1.7637-3.5859,1.7637c-1.6016,0-2.8398-.5664-3.7148-1.6992l-.1055,1.4648h-1.9922v-18h2.168v6.7148c.875-1.0859,2.082-1.6289,3.6211-1.6289s2.748,.582,3.627,1.7461,1.3184,2.7578,1.3184,4.7812v.1875Zm-2.168-.2461c0-1.4766-.2852-2.6172-.8555-3.4219s-1.3906-1.207-2.4609-1.207c-1.4297,0-2.457,.6641-3.082,1.9922v5.4844c.6641,1.3281,1.6992,1.9922,3.1055,1.9922,1.0391,0,1.8477-.4023,2.4258-1.207s.8672-2.0156,.8672-3.6328Z"/><path d="M109.269,574.207c0-1.2422,.2441-2.3594,.7324-3.3516s1.168-1.7578,2.0391-2.2969,1.8652-.8086,2.9824-.8086c1.7266,0,3.123,.5977,4.1895,1.793s1.5996,2.7852,1.5996,4.7695v.1523c0,1.2344-.2363,2.3418-.709,3.3223s-1.1484,1.7441-2.0273,2.291-1.8887,.8203-3.0293,.8203c-1.7188,0-3.1113-.5977-4.1777-1.793s-1.5996-2.7773-1.5996-4.7461v-.1523Zm2.1797,.2578c0,1.4062,.3262,2.5352,.9785,3.3867s1.5254,1.2773,2.6191,1.2773c1.1016,0,1.9766-.4316,2.625-1.2949s.9727-2.0723,.9727-3.627c0-1.3906-.3301-2.5176-.9902-3.3809s-1.5371-1.2949-2.6309-1.2949c-1.0703,0-1.9336,.4258-2.5898,1.2773s-.9844,2.0703-.9844,3.6562Z"/><path d="M125.5815,567.9844l.0703,1.5938c.9688-1.2188,2.2344-1.8281,3.7969-1.8281,2.6797,0,4.0312,1.5117,4.0547,4.5352v8.3789h-2.168v-8.3906c-.0078-.9141-.2168-1.5898-.627-2.0273s-1.0488-.6562-1.916-.6562c-.7031,0-1.3203,.1875-1.8516,.5625s-.9453,.8672-1.2422,1.4766v9.0352h-2.168v-12.6797h2.0508Z"/><path d="M142.0347,580.8984c-1.7188,0-3.1172-.5645-4.1953-1.6934s-1.6172-2.6387-1.6172-4.5293v-.3984c0-1.2578,.2402-2.3809,.7207-3.3691s1.1523-1.7617,2.0156-2.3203,1.7988-.8379,2.8066-.8379c1.6484,0,2.9297,.543,3.8438,1.6289s1.3711,2.6406,1.3711,4.6641v.9023h-8.5898c.0312,1.25,.3965,2.2598,1.0957,3.0293s1.5879,1.1543,2.666,1.1543c.7656,0,1.4141-.1562,1.9453-.4688s.9961-.7266,1.3945-1.2422l1.3242,1.0312c-1.0625,1.6328-2.6562,2.4492-4.7812,2.4492Zm-.2695-11.3672c-.875,0-1.6094,.3184-2.2031,.9551s-.9609,1.5293-1.1016,2.6777h6.3516v-.1641c-.0625-1.1016-.3594-1.9551-.8906-2.5605s-1.25-.9082-2.1562-.9082Z"/></g><g><path d="M207.5508,563.6016l5.5781,13.9219,5.5781-13.9219h2.918v17.0625h-2.25v-6.6445l.2109-7.1719-5.6016,13.8164h-1.7227l-5.5898-13.7812,.2227,7.1367v6.6445h-2.25v-17.0625h2.9062Z"/><path d="M233.0859,580.6641c-.125-.25-.2266-.6953-.3047-1.3359-1.0078,1.0469-2.2109,1.5703-3.6094,1.5703-1.25,0-2.2754-.3535-3.0762-1.0605s-1.2012-1.6035-1.2012-2.6895c0-1.3203,.502-2.3457,1.5059-3.0762s2.416-1.0957,4.2363-1.0957h2.1094v-.9961c0-.7578-.2266-1.3613-.6797-1.8105s-1.1211-.6738-2.0039-.6738c-.7734,0-1.4219,.1953-1.9453,.5859s-.7852,.8633-.7852,1.418h-2.1797c0-.6328,.2246-1.2441,.6738-1.834s1.0586-1.0566,1.8281-1.4004,1.6152-.5156,2.5371-.5156c1.4609,0,2.6055,.3652,3.4336,1.0957s1.2578,1.7363,1.2891,3.0176v5.8359c0,1.1641,.1484,2.0898,.4453,2.7773v.1875h-2.2734Zm-3.5977-1.6523c.6797,0,1.3242-.1758,1.9336-.5273s1.0508-.8086,1.3242-1.3711v-2.6016h-1.6992c-2.6562,0-3.9844,.7773-3.9844,2.332,0,.6797,.2266,1.2109,.6797,1.5938s1.0352,.5742,1.7461,.5742Z"/><path d="M240.3633,567.9844l.0703,1.5938c.9688-1.2188,2.2344-1.8281,3.7969-1.8281,2.6797,0,4.0312,1.5117,4.0547,4.5352v8.3789h-2.168v-8.3906c-.0078-.9141-.2168-1.5898-.627-2.0273s-1.0488-.6562-1.916-.6562c-.7031,0-1.3203,.1875-1.8516,.5625s-.9453,.8672-1.2422,1.4766v9.0352h-2.168v-12.6797h2.0508Z"/><path d="M251.0273,574.2188c0-1.9453,.4609-3.5098,1.3828-4.6934s2.1289-1.7754,3.6211-1.7754c1.4844,0,2.6602,.5078,3.5273,1.5234v-6.6094h2.168v18h-1.9922l-.1055-1.3594c-.8672,1.0625-2.0742,1.5938-3.6211,1.5938-1.4688,0-2.666-.6016-3.5918-1.8047s-1.3887-2.7734-1.3887-4.7109v-.1641Zm2.168,.2461c0,1.4375,.2969,2.5625,.8906,3.375s1.4141,1.2188,2.4609,1.2188c1.375,0,2.3789-.6172,3.0117-1.8516v-5.8242c-.6484-1.1953-1.6445-1.793-2.9883-1.793-1.0625,0-1.8906,.4102-2.4844,1.2305s-.8906,2.0352-.8906,3.6445Z"/><path d="M265.1016,564.6211c0-.3516,.1074-.6484,.3223-.8906s.5332-.3633,.9551-.3633,.7422,.1211,.9609,.3633,.3281,.5391,.3281,.8906-.1094,.6445-.3281,.8789-.5391,.3516-.9609,.3516-.7402-.1172-.9551-.3516-.3223-.5273-.3223-.8789Zm2.3438,16.043h-2.168v-12.6797h2.168v12.6797Z"/><path d="M281.6484,574.4648c0,1.9375-.4453,3.4941-1.3359,4.6699s-2.0859,1.7637-3.5859,1.7637c-1.6016,0-2.8398-.5664-3.7148-1.6992l-.1055,1.4648h-1.9922v-18h2.168v6.7148c.875-1.0859,2.082-1.6289,3.6211-1.6289s2.748,.582,3.627,1.7461,1.3184,2.7578,1.3184,4.7812v.1875Zm-2.168-.2461c0-1.4766-.2852-2.6172-.8555-3.4219s-1.3906-1.207-2.4609-1.207c-1.4297,0-2.457,.6641-3.082,1.9922v5.4844c.6641,1.3281,1.6992,1.9922,3.1055,1.9922,1.0391,0,1.8477-.4023,2.4258-1.207s.8672-2.0156,.8672-3.6328Z"/><path d="M292.207,579.4102c-.8438,.9922-2.082,1.4883-3.7148,1.4883-1.3516,0-2.3809-.3926-3.0879-1.1777s-1.0645-1.9473-1.0723-3.4863v-8.25h2.168v8.1914c0,1.9219,.7812,2.8828,2.3438,2.8828,1.6562,0,2.7578-.6172,3.3047-1.8516v-9.2227h2.168v12.6797h-2.0625l-.0469-1.2539Z"/><path d="M299.9648,580.6641h-2.168v-18h2.168v18Z"/><path d="M311.2617,580.6641c-.125-.25-.2266-.6953-.3047-1.3359-1.0078,1.0469-2.2109,1.5703-3.6094,1.5703-1.25,0-2.2754-.3535-3.0762-1.0605s-1.2012-1.6035-1.2012-2.6895c0-1.3203,.502-2.3457,1.5059-3.0762s2.416-1.0957,4.2363-1.0957h2.1094v-.9961c0-.7578-.2266-1.3613-.6797-1.8105s-1.1211-.6738-2.0039-.6738c-.7734,0-1.4219,.1953-1.9453,.5859s-.7852,.8633-.7852,1.418h-2.1797c0-.6328,.2246-1.2441,.6738-1.834s1.0586-1.0566,1.8281-1.4004,1.6152-.5156,2.5371-.5156c1.4609,0,2.6055,.3652,3.4336,1.0957s1.2578,1.7363,1.2891,3.0176v5.8359c0,1.1641,.1484,2.0898,.4453,2.7773v.1875h-2.2734Zm-3.5977-1.6523c.6797,0,1.3242-.1758,1.9336-.5273s1.0508-.8086,1.3242-1.3711v-2.6016h-1.6992c-2.6562,0-3.9844,.7773-3.9844,2.332,0,.6797,.2266,1.2109,.6797,1.5938s1.0352,.5742,1.7461,.5742Z"/><path d="M322.6172,569.9297c-.3281-.0547-.6836-.082-1.0664-.082-1.4219,0-2.3867,.6055-2.8945,1.8164v9h-2.168v-12.6797h2.1094l.0352,1.4648c.7109-1.1328,1.7188-1.6992,3.0234-1.6992,.4219,0,.7422,.0547,.9609,.1641v2.0156Z"/><path d="M206.3555,596.7842l.0703,1.5938c.9688-1.2188,2.2344-1.8281,3.7969-1.8281,2.6797,0,4.0312,1.5117,4.0547,4.5352v8.3789h-2.168v-8.3906c-.0078-.9141-.2168-1.5898-.627-2.0273s-1.0488-.6562-1.916-.6562c-.7031,0-1.3203,.1875-1.8516,.5625s-.9453,.8672-1.2422,1.4766v9.0352h-2.168v-12.6797h2.0508Z"/><path d="M222.8086,609.6982c-1.7188,0-3.1172-.5645-4.1953-1.6934s-1.6172-2.6387-1.6172-4.5293v-.3984c0-1.2578,.2402-2.3809,.7207-3.3691s1.1523-1.7617,2.0156-2.3203,1.7988-.8379,2.8066-.8379c1.6484,0,2.9297,.543,3.8438,1.6289s1.3711,2.6406,1.3711,4.6641v.9023h-8.5898c.0312,1.25,.3965,2.2598,1.0957,3.0293s1.5879,1.1543,2.666,1.1543c.7656,0,1.4141-.1562,1.9453-.4688s.9961-.7266,1.3945-1.2422l1.3242,1.0312c-1.0625,1.6328-2.6562,2.4492-4.7812,2.4492Zm-.2695-11.3672c-.875,0-1.6094,.3184-2.2031,.9551s-.9609,1.5293-1.1016,2.6777h6.3516v-.1641c-.0625-1.1016-.3594-1.9551-.8906-2.5605s-1.25-.9082-2.1562-.9082Z"/><path d="M236.3906,598.7295c-.3281-.0547-.6836-.082-1.0664-.082-1.4219,0-2.3867,.6055-2.8945,1.8164v9h-2.168v-12.6797h2.1094l.0352,1.4648c.7109-1.1328,1.7188-1.6992,3.0234-1.6992,.4219,0,.7422,.0547,.9609,.1641v2.0156Z"/><path d="M242.7773,606.5225l3.1406-9.7383h2.2148l-4.5469,12.6797h-1.6523l-4.5938-12.6797h2.2148l3.2227,9.7383Z"/><path d="M255.4805,609.6982c-1.7188,0-3.1172-.5645-4.1953-1.6934s-1.6172-2.6387-1.6172-4.5293v-.3984c0-1.2578,.2402-2.3809,.7207-3.3691s1.1523-1.7617,2.0156-2.3203,1.7988-.8379,2.8066-.8379c1.6484,0,2.9297,.543,3.8438,1.6289s1.3711,2.6406,1.3711,4.6641v.9023h-8.5898c.0312,1.25,.3965,2.2598,1.0957,3.0293s1.5879,1.1543,2.666,1.1543c.7656,0,1.4141-.1562,1.9453-.4688s.9961-.7266,1.3945-1.2422l1.3242,1.0312c-1.0625,1.6328-2.6562,2.4492-4.7812,2.4492Zm-.2695-11.3672c-.875,0-1.6094,.3184-2.2031,.9551s-.9609,1.5293-1.1016,2.6777h6.3516v-.1641c-.0625-1.1016-.3594-1.9551-.8906-2.5605s-1.25-.9082-2.1562-.9082Z"/></g><g><path d="M604.1562,573.1797h-4.0078v6.9023h-2.2617v-17.0625h5.6484c1.9219,0,3.4004,.4375,4.4355,1.3125s1.5527,2.1484,1.5527,3.8203c0,1.0625-.2871,1.9883-.8613,2.7773s-1.373,1.3789-2.3965,1.7695l4.0078,7.2422v.1406h-2.4141l-3.7031-6.9023Zm-4.0078-1.8398h3.457c1.1172,0,2.0059-.29,2.666-.8691s.9902-1.3535,.9902-2.3242c0-1.0566-.3145-1.8662-.9434-2.4307-.6289-.5635-1.5371-.8486-2.7246-.8564h-3.4453v6.4805Z"/><path d="M617.5977,580.3164c-1.7188,0-3.1172-.5645-4.1953-1.6934s-1.6172-2.6387-1.6172-4.5293v-.3984c0-1.2578,.2402-2.3809,.7207-3.3691s1.1523-1.7617,2.0156-2.3203,1.7988-.8379,2.8066-.8379c1.6484,0,2.9297,.543,3.8438,1.6289s1.3711,2.6406,1.3711,4.6641v.9023h-8.5898c.0312,1.25,.3965,2.2598,1.0957,3.0293s1.5879,1.1543,2.666,1.1543c.7656,0,1.4141-.1562,1.9453-.4688s.9961-.7266,1.3945-1.2422l1.3242,1.0312c-1.0625,1.6328-2.6562,2.4492-4.7812,2.4492Zm-.2695-11.3672c-.875,0-1.6094,.3184-2.2031,.9551s-.9609,1.5293-1.1016,2.6777h6.3516v-.1641c-.0625-1.1016-.3594-1.9551-.8906-2.5605s-1.25-.9082-2.1562-.9082Z"/><path d="M627.9922,564.332v3.0703h2.3672v1.6758h-2.3672v7.873c0,.5088,.1055,.8896,.3164,1.1436,.2109,.2549,.5703,.3818,1.0781,.3818,.25,0,.5938-.0469,1.0312-.1406v1.7471c-.5703,.1553-1.125,.2334-1.6641,.2334-.9688,0-1.6992-.293-2.1914-.8789s-.7383-1.418-.7383-2.4961v-7.8633h-2.3086v-1.6758h2.3086v-3.0703h2.168Z"/><path d="M640.7188,578.8281c-.8438,.9922-2.082,1.4883-3.7148,1.4883-1.3516,0-2.3809-.3926-3.0879-1.1777s-1.0645-1.9473-1.0723-3.4863v-8.25h2.168v8.1914c0,1.9219,.7812,2.8828,2.3438,2.8828,1.6562,0,2.7578-.6172,3.3047-1.8516v-9.2227h2.168v12.6797h-2.0625l-.0469-1.2539Z"/><path d="M652.25,569.3477c-.3281-.0547-.6836-.082-1.0664-.082-1.4219,0-2.3867,.6055-2.8945,1.8164v9h-2.168v-12.6797h2.1094l.0352,1.4648c.7109-1.1328,1.7188-1.6992,3.0234-1.6992,.4219,0,.7422,.0547,.9609,.1641v2.0156Z"/><path d="M656.293,567.4023l.0703,1.5938c.9688-1.2188,2.2344-1.8281,3.7969-1.8281,2.6797,0,4.0312,1.5117,4.0547,4.5352v8.3789h-2.168v-8.3906c-.0078-.9141-.2168-1.5898-.627-2.0273s-1.0488-.6562-1.916-.6562c-.7031,0-1.3203,.1875-1.8516,.5625s-.9453,.8672-1.2422,1.4766v9.0352h-2.168v-12.6797h2.0508Z"/><path d="M667.4961,564.0391c0-.3516,.1074-.6484,.3223-.8906s.5332-.3633,.9551-.3633,.7422,.1211,.9609,.3633,.3281,.5391,.3281,.8906-.1094,.6445-.3281,.8789-.5391,.3516-.9609,.3516-.7402-.1172-.9551-.3516-.3223-.5273-.3223-.8789Zm2.3438,16.043h-2.168v-12.6797h2.168v12.6797Z"/><path d="M675.3594,567.4023l.0703,1.5938c.9688-1.2188,2.2344-1.8281,3.7969-1.8281,2.6797,0,4.0312,1.5117,4.0547,4.5352v8.3789h-2.168v-8.3906c-.0078-.9141-.2168-1.5898-.627-2.0273s-1.0488-.6562-1.916-.6562c-.7031,0-1.3203,.1875-1.8516,.5625s-.9453,.8672-1.2422,1.4766v9.0352h-2.168v-12.6797h2.0508Z"/><path d="M686.0352,573.6367c0-1.9766,.457-3.5488,1.3711-4.7168s2.125-1.752,3.6328-1.752c1.5469,0,2.7539,.5469,3.6211,1.6406l.1055-1.4062h1.9805v12.375c0,1.6406-.4863,2.9336-1.459,3.8789s-2.2793,1.418-3.9199,1.418c-.9141,0-1.8086-.1953-2.6836-.5859s-1.543-.9258-2.0039-1.6055l1.125-1.3008c.9297,1.1484,2.0664,1.7227,3.4102,1.7227,1.0547,0,1.877-.2969,2.4668-.8906s.8848-1.4297,.8848-2.5078v-1.0898c-.8672,1-2.0508,1.5-3.5508,1.5-1.4844,0-2.6855-.5977-3.6035-1.793s-1.377-2.8242-1.377-4.8867Zm2.1797,.2461c0,1.4297,.293,2.5527,.8789,3.3691s1.4062,1.2246,2.4609,1.2246c1.3672,0,2.3711-.6211,3.0117-1.8633v-5.7891c-.6641-1.2109-1.6602-1.8164-2.9883-1.8164-1.0547,0-1.8789,.4102-2.4727,1.2305s-.8906,2.0352-.8906,3.6445Z"/><path d="M713.3398,576.7188c0-.5859-.2207-1.041-.6621-1.3652s-1.2109-.6035-2.3086-.8379-1.9688-.5156-2.6133-.8438-1.1211-.7188-1.4297-1.1719-.4629-.9922-.4629-1.6172c0-1.0391,.4395-1.918,1.3184-2.6367s2.002-1.0781,3.3691-1.0781c1.4375,0,2.6035,.3711,3.498,1.1133s1.3418,1.6914,1.3418,2.8477h-2.1797c0-.5938-.252-1.1055-.7559-1.5352s-1.1387-.6445-1.9043-.6445c-.7891,0-1.4062,.1719-1.8516,.5156s-.668,.793-.668,1.3477c0,.5234,.207,.918,.6211,1.1836s1.1621,.5195,2.2441,.7617,1.959,.5312,2.6309,.8672,1.1699,.7402,1.4941,1.2129,.4863,1.0488,.4863,1.7285c0,1.1328-.4531,2.041-1.3594,2.7246s-2.082,1.0254-3.5273,1.0254c-1.0156,0-1.9141-.1797-2.6953-.5391s-1.3926-.8613-1.834-1.5059-.6621-1.3418-.6621-2.0918h2.168c.0391,.7266,.3301,1.3027,.873,1.7285s1.2598,.6387,2.1504,.6387c.8203,0,1.4785-.166,1.9746-.498s.7441-.7754,.7441-1.3301Z"/><path d="M718.3438,564.0391c0-.3516,.1074-.6484,.3223-.8906s.5332-.3633,.9551-.3633,.7422,.1211,.9609,.3633,.3281,.5391,.3281,.8906-.1094,.6445-.3281,.8789-.5391,.3516-.9609,.3516-.7402-.1172-.9551-.3516-.3223-.5273-.3223-.8789Zm2.3438,16.043h-2.168v-12.6797h2.168v12.6797Z"/><path d="M723.6406,573.6367c0-1.9766,.457-3.5488,1.3711-4.7168s2.125-1.752,3.6328-1.752c1.5469,0,2.7539,.5469,3.6211,1.6406l.1055-1.4062h1.9805v12.375c0,1.6406-.4863,2.9336-1.459,3.8789s-2.2793,1.418-3.9199,1.418c-.9141,0-1.8086-.1953-2.6836-.5859s-1.543-.9258-2.0039-1.6055l1.125-1.3008c.9297,1.1484,2.0664,1.7227,3.4102,1.7227,1.0547,0,1.877-.2969,2.4668-.8906s.8848-1.4297,.8848-2.5078v-1.0898c-.8672,1-2.0508,1.5-3.5508,1.5-1.4844,0-2.6855-.5977-3.6035-1.793s-1.377-2.8242-1.377-4.8867Zm2.1797,.2461c0,1.4297,.293,2.5527,.8789,3.3691s1.4062,1.2246,2.4609,1.2246c1.3672,0,2.3711-.6211,3.0117-1.8633v-5.7891c-.6641-1.2109-1.6602-1.8164-2.9883-1.8164-1.0547,0-1.8789,.4102-2.4727,1.2305s-.8906,2.0352-.8906,3.6445Z"/><path d="M739.6719,567.4023l.0703,1.5938c.9688-1.2188,2.2344-1.8281,3.7969-1.8281,2.6797,0,4.0312,1.5117,4.0547,4.5352v8.3789h-2.168v-8.3906c-.0078-.9141-.2168-1.5898-.627-2.0273s-1.0488-.6562-1.916-.6562c-.7031,0-1.3203,.1875-1.8516,.5625s-.9453,.8672-1.2422,1.4766v9.0352h-2.168v-12.6797h2.0508Z"/><path d="M758.6914,580.082c-.125-.25-.2266-.6953-.3047-1.3359-1.0078,1.0469-2.2109,1.5703-3.6094,1.5703-1.25,0-2.2754-.3535-3.0762-1.0605s-1.2012-1.6035-1.2012-2.6895c0-1.3203,.502-2.3457,1.5059-3.0762s2.416-1.0957,4.2363-1.0957h2.1094v-.9961c0-.7578-.2266-1.3613-.6797-1.8105s-1.1211-.6738-2.0039-.6738c-.7734,0-1.4219,.1953-1.9453,.5859s-.7852,.8633-.7852,1.418h-2.1797c0-.6328,.2246-1.2441,.6738-1.834s1.0586-1.0566,1.8281-1.4004,1.6152-.5156,2.5371-.5156c1.4609,0,2.6055,.3652,3.4336,1.0957s1.2578,1.7363,1.2891,3.0176v5.8359c0,1.1641,.1484,2.0898,.4453,2.7773v.1875h-2.2734Zm-3.5977-1.6523c.6797,0,1.3242-.1758,1.9336-.5273s1.0508-.8086,1.3242-1.3711v-2.6016h-1.6992c-2.6562,0-3.9844,.7773-3.9844,2.332,0,.6797,.2266,1.2109,.6797,1.5938s1.0352,.5742,1.7461,.5742Z"/><path d="M766.2734,580.082h-2.168v-18h2.168v18Z"/><path d="M775.6016,573.1562c0-1.7656,.2363-3.4609,.709-5.0859s1.1777-3.1016,2.1152-4.4297,1.9102-2.2656,2.918-2.8125l.4453,1.4297c-1.1406,.875-2.0762,2.2109-2.8066,4.0078s-1.1309,3.8086-1.2012,6.0352l-.0117,.9961c0,3.0156,.5508,5.6328,1.6523,7.8516,.6641,1.3281,1.4531,2.3672,2.3672,3.1172l-.4453,1.3242c-1.0391-.5781-2.0312-1.5469-2.9766-2.9062-1.8438-2.6562-2.7656-5.832-2.7656-9.5273Z"/><path d="M789.1484,580.3164c-1.7188,0-3.1172-.5645-4.1953-1.6934s-1.6172-2.6387-1.6172-4.5293v-.3984c0-1.2578,.2402-2.3809,.7207-3.3691s1.1523-1.7617,2.0156-2.3203,1.7988-.8379,2.8066-.8379c1.6484,0,2.9297,.543,3.8438,1.6289s1.3711,2.6406,1.3711,4.6641v.9023h-8.5898c.0312,1.25,.3965,2.2598,1.0957,3.0293s1.5879,1.1543,2.666,1.1543c.7656,0,1.4141-.1562,1.9453-.4688s.9961-.7266,1.3945-1.2422l1.3242,1.0312c-1.0625,1.6328-2.6562,2.4492-4.7812,2.4492Zm-.2695-11.3672c-.875,0-1.6094,.3184-2.2031,.9551s-.9609,1.5293-1.1016,2.6777h6.3516v-.1641c-.0625-1.1016-.3594-1.9551-.8906-2.5605s-1.25-.9082-2.1562-.9082Z"/><path d="M801.6875,578.5469c.7734,0,1.4492-.2344,2.0273-.7031s.8984-1.0547,.9609-1.7578h2.0508c-.0391,.7266-.2891,1.418-.75,2.0742s-1.0762,1.1797-1.8457,1.5703-1.584,.5859-2.4434,.5859c-1.7266,0-3.0996-.5762-4.1191-1.7285s-1.5293-2.7285-1.5293-4.7285v-.3633c0-1.2344,.2266-2.332,.6797-3.293s1.1035-1.707,1.9512-2.2383,1.8496-.7969,3.0059-.7969c1.4219,0,2.6035,.4258,3.5449,1.2773s1.4434,1.957,1.5059,3.3164h-2.0508c-.0625-.8203-.373-1.4941-.9316-2.0215s-1.248-.791-2.0684-.791c-1.1016,0-1.9551,.3965-2.5605,1.1895s-.9082,1.9395-.9082,3.4395v.4102c0,1.4609,.3008,2.5859,.9023,3.375s1.4609,1.1836,2.5781,1.1836Z"/><path d="M811.332,568.9375c.9609-1.1797,2.2109-1.7695,3.75-1.7695,2.6797,0,4.0312,1.5117,4.0547,4.5352v8.3789h-2.168v-8.3906c-.0078-.9141-.2168-1.5898-.627-2.0273s-1.0488-.6562-1.916-.6562c-.7031,0-1.3203,.1875-1.8516,.5625s-.9453,.8672-1.2422,1.4766v9.0352h-2.168v-18h2.168v6.8555Z"/><path d="M821.8086,573.625c0-1.2422,.2441-2.3594,.7324-3.3516s1.168-1.7578,2.0391-2.2969,1.8652-.8086,2.9824-.8086c1.7266,0,3.123,.5977,4.1895,1.793s1.5996,2.7852,1.5996,4.7695v.1523c0,1.2344-.2363,2.3418-.709,3.3223s-1.1484,1.7441-2.0273,2.291-1.8887,.8203-3.0293,.8203c-1.7188,0-3.1113-.5977-4.1777-1.793s-1.5996-2.7773-1.5996-4.7461v-.1523Zm2.1797,.2578c0,1.4062,.3262,2.5352,.9785,3.3867s1.5254,1.2773,2.6191,1.2773c1.1016,0,1.9766-.4316,2.625-1.2949s.9727-2.0723,.9727-3.627c0-1.3906-.3301-2.5176-.9902-3.3809s-1.5371-1.2949-2.6309-1.2949c-1.0703,0-1.9336,.4258-2.5898,1.2773s-.9844,2.0703-.9844,3.6562Z"/><path d="M841.0742,573.2734c0,1.7422-.2285,3.4121-.6855,5.0098s-1.1562,3.0723-2.0977,4.4238-1.9277,2.3125-2.959,2.8828l-.457-1.3242c1.2031-.9219,2.1699-2.3535,2.9004-4.2949s1.1035-4.0957,1.1191-6.4629v-.375c0-1.6406-.1719-3.166-.5156-4.5762s-.8223-2.6738-1.4355-3.791-1.3027-1.9883-2.0684-2.6133l.457-1.3242c1.0312,.5703,2.0137,1.5234,2.9473,2.8594s1.6328,2.8086,2.0977,4.418,.6973,3.332,.6973,5.168Z"/></g><path d="M11.2837,245.4888s93.1215,5.9303,160.6726,19.7977c3.2842,.6742,8.378,1.8647,9.2797,3.404s12.6733,5.0972,15.5266,4.1922,7.3905,.0398,10.5982,.9502c16.4382,4.6651,31.8223,10.1822,44.9165,16.701,58.69,29.2183,86.6738,85.4774,86.6738,85.4774,0,0,69.7415,25.0781,78.6975,39.5308,7.6522,12.3487-1.153,19.7548-6.1034,21.2183,8.0294,2.6471,16.2612,11.3429,7.7672,21.5842-9.571,11.5398-69.9567,9.6676-103.227,12.6609-19.7759,1.7793-81.733,7.1824-121.3163,21.0445-39.5833,13.8621-127.9626,43.2871-198.5426,45.1693-36.9126,.9843,15.0571-291.7305,15.0571-291.7305Z" fill="#5082be"/><path d="M398.8762,436.802s-1.2271-.0718,0,0c0,0-3.8383-15.5167-38.686-30.5536-27.8895-12.0344-121.013-7.6067-183.1154-43.0185-50.6115-28.8595-30.8883-62.1454-47.511-71.4957-12.7183-7.154-25.3111-6.0778-36.301-3.91-14.5922,2.8784-27.5065,13.1768-36.6688,26.3116-9.1624,13.1349-14.8658,28.9562-18.7833,45.0769-4.4573,18.3421-6.4249,39.2256,2.5773,55.3048,3.6529,6.5247,8.87,11.7519,14.3843,16.3173,4.206,3.4823,8.7642,6.7963,11.4649,11.8326,1.8677,3.4828,2.6978,7.5338,4.154,11.2582,1.4562,3.7244,3.8425,7.3701,7.3284,8.4183,3.486,1.0483,7.0801-.7336,10.4637-2.1462,1.5208-.6349,5.0169-4.6605,9.8387-10.3779l6.7695,14.9916c6.6337,7.2044,16.9429,7.2313,26.1422,6.81,61.3505-2.8094,120.5355-22.2549,181.6837-15.9749,21.2798,2.1855,42.6148,5.8336,63.9164,3.9374,11.5925-1.0319,28.6555-8.809,30.7148-15.5396s-5.4628-7.0721-8.3724-7.2424Z" fill="#f6dfb6"/><path d="M196.7627,272.8828c-6.4329,4.4965-11.54,11.3758-14.4872,19.2403-.2066,.5513-.1237,1.3347,.338,1.6293s1.0257,.2633,1.5549,.2238c4.6197-.3447,9.273-.6765,13.867-.0286s9.176,2.3425,12.7577,5.6528c1.2209,1.1284,2.3387,2.4769,2.9154,4.1346s.5293,3.6698-.423,5.0898c-.9666,1.4414-2.6962,2.0323-4.2923,1.8779s-3.0867-.9489-4.4788-1.8432c-5.6097-3.604-9.8436-7.7566-16.6651-10.3007-3.0814-1.1492-5.6075-2.0875-8.2667-1.5004-1.2941,1.5077-4.2146,7.0332-4.8285,9.0146,5.2707,.351,10.5058,1.377,15.5728,3.0519,2.1939,.7252,4.3338,1.6808,5.8219,3.7397,.8492,1.1749,1.393,2.6729,1.3269,4.1872-.0844,1.9324-1.1962,3.545-2.8263,4.1186-1.1948,.4204-2.4817,.357-3.7205,.1562-2.1486-.3482-4.2427-1.1035-6.1804-2.2056-1.9786-1.1254-3.6193-2.7294-5.4427-4.1201-4.2235-3.2214-8.9921-6.1893-14.1542-6.5988-1.5809-.1254-3.8645,.3193-4.8423,1.8918-1.2801,2.0587,.9525,5.0358,2.5138,6.0163,2.425,1.5228,5.315,1.2298,6.857,4.2834,1.3579,2.6892,.7653,7.4169-1.5065,9.3279-.8828,.7426-2.0241,.9847-3.1251,1.0002-4.0851,.0576-8.4048-.97-11.5657-4.0553-2.7471-2.6815-4.2346-6.95-3.7564-11.0131s2.9415-7.7782,6.2945-9.3545c2.0462-.9619,4.3066-1.1437,6.5218-1.2335,3.0464-.1234,6.39,.0731,9.4342,.2522,1.228-2.4287,3.1237-6.5,4.3517-8.9286,.2328-.4603-2.0286,.059-3.5832,.4112-9.0642,2.0539-17.37,7.4618-24.6098,13.9498-1.4368,1.2876-2.8706,2.6695-4.6077,3.336s-3.8922,.4359-5.0813-1.1409c-.6354-.8426-.9171-1.9466-1.4091-2.9037-.8778-1.7074-2.4722-2.9214-4.2039-3.2007-1.7782-.2869-3.7903,.3079-5.2527-.8693-1.3958-1.1236-1.6043-3.5048-.8683-5.2523s2.1835-2.9686,3.6568-3.9583c6.5776-4.4182,14.5046-5.5336,22.1583-5.3865,7.6536,.1472,16.0498,1.2255,23.7045,1.2325,1.0858-.005,1.7491-1.3171,2.1457-2.4577,2.3623-6.7945,3.0063-14.3618,2.858-21.6585" fill="#ffff85"/><path d="M398.8676,436.9486c-27.9029-.5562-57.0474-2.582-84.9425-4.8655-25.2202-2.223-60.3037-3.3301-84.663-9.259-6.9267-1.689-13.8092-3.653-20.4773-6.2121-13.3125-4.7868-25.5996-12.3463-39.2929-15.8494-3.3451-.7476-6.6782-1.6037-10.121-1.1995-8.6123,1.0992-16.2016,6.2885-22.9626,11.4964-12.3925,9.9551-22.9633,21.9662-33.4348,33.8851-3.4965,4.0066-6.9626,8.0551-10.6375,11.9096-1.2747,1.2568-2.4847,2.6363-4.0961,3.4791l-.1132-.271c.7374-.4412,1.3802-1.0382,1.9729-1.6739,6.2347-6.8501,12.6203-15.4827,18.6838-22.4739,12.2218-13.8667,31.3382-35.768,50.353-38.4808,3.6844-.4498,7.3181,.4129,10.8845,1.2145,7.0023,1.7139,13.628,4.561,20.0871,7.4836,6.463,2.9402,12.882,5.8593,19.491,8.2949,9.846,3.6843,20.2279,6.3231,30.5669,8.2108,6.6239,1.2563,14.2503,2.3062,20.9571,2.9586,26.1186,2.4235,69.1529,5.5784,95.3524,7.7988,7.0721,.4649,14.1449,.9249,21.2114,1.4916,7.0693,.5236,14.1351,1.1095,21.1978,1.769l-.0172,.2932h0Z" fill="#635034"/><g><path d="M107.9668,394.4023c.2111,1.9644,.5266,3.9471,.9495,5.9222" fill="none" stroke="#3e6075" stroke-miterlimit="10" stroke-width="2"/><path d="M112.8824,412.1162c3.3781,7.086,8.4516,13.27,15.3977,17.0619,16.6206,9.0732,37.4019,5.9135,55.7018,4.9408,34.4929-1.8335,45.3654,3.4175,76.5567,8.2858,38.8108,6.0576,87.6507,9.0854,110.2786,4.9941" fill="none" stroke="#3e6075" stroke-dasharray="0 0 12.4672 12.4672" stroke-miterlimit="10" stroke-width="2"/><path d="M376.8693,445.9255c2.3693-.7815,4.1524-1.7107,5.25-2.7989" fill="none" stroke="#3e6075" stroke-miterlimit="10" stroke-width="2"/></g><g><path d="M143.5807,314.4231c-1.2197,1.0017-3.1821,1.2781-4.8049,.3179-1.5002-.8316-2.025-2.6923-2.6914-3.9863-.5797-1.0759-1.5515-1.9156-2.6193-2.3318-1.0106-.4495-2.3156-.1829-4.049-.3234-1.8432-.0332-3.8285-1.7202-4.1059-3.5728-1.1417-5.2122,4.1862-9.1525,8.767-9.8207l.124,.2662c-2.6195,2.6436-7.5875,4.6441-6.6297,9.0014,.3105,1.1062,.9054,1.6321,2.0995,1.7281,1.42,.1295,3.1712-.1085,4.6508,.5465,1.6648,.666,2.9456,1.9873,3.6908,3.523,.6313,1.2833,.7861,2.5592,1.8237,3.4012,.842,.6954,2.1447,1.0125,3.6393,.9764l.1052,.2742h0Z" fill="#6e6e1d"/><path d="M181.2946,268.5559c1.6027-.3974,2.7699,.196,4.0624,.5257,1.907,.5141,5.7412,1.5619,7.6437,2.0904,1.2811,.3553,2.5716,.4778,3.7799,1.5651l-.0358,.2914c-1.4547,.7254-2.8248,.4509-4.1731,.2443-2.7151-.3812-5.372-1.1065-7.9084-2.1409-1.253-.5331-2.6108-.867-3.4859-2.3067l.1172-.2693h0Z" fill="#6e6e1d"/></g><path d="M186.2271,325.8447c-.7878-14.7564,16.3449-22.7486,39.6685-20.0555,30.8722,3.5647,65.4399,28.9351,70.2176,51.1342,4.7777,22.1991-6.1557,34.1106-28.9469,28.5417-22.7697-5.5636-79.5339-33.2986-80.9391-59.6204Z" fill="#fadbe3"/><path d="M186.1138,323.4323c-1.1057-7.4369,5.7575-13.3609,11.9693-15.9558,3.2495-1.3456,6.656-2.2124,10.0919-2.6192,3.4227-.4234,6.906-.6678,10.2961,.2796l-.0054,.2936c-6.5942,1.437-13.2931,1.3889-19.436,4.264-4.1172,1.7118-7.8439,4.3319-10.1046,8.1697-.5512,1.0371-1.1058,2.156-1.5614,3.2462-.3512,.7463-.5494,1.5447-.9573,2.3464l-.2926-.0245h0Z" fill="#785843"/><g><path d="M206.2432,398.3862c.7391,1.42,.3546,2.6297,.2241,3.887-.1526,1.2531-.3418,2.4994-.5732,3.7377-.2323,1.2382-.5205,2.4659-.8275,3.6901-.3105,1.2235-.4743,2.4745-1.6048,3.5446l-.2886-.054c-.667-1.4065-.3672-2.632-.2141-3.8851,.1565-1.2524,.332-2.5012,.5632-3.7396,.2321-1.2382,.5065-2.4685,.8175-3.692,.333-1.2194,.4122-2.4862,1.6148-3.5428l.2886,.054h0Z" fill="#635034"/><path d="M216.0576,402.7111c.765,1.3861,.4026,2.5839,.295,3.8241-.1297,1.2366-.2962,2.4671-.505,3.6905-.2097,1.2232-.4755,2.4371-.7602,3.6478-.2882,1.2101-.4292,2.4448-1.5403,3.5174l-.2896-.0484c-.6927-1.3741-.4152-2.586-.285-3.8225,.1337-1.2359,.2863-2.4687,.495-3.6921,.2096-1.2232,.4615-2.4394,.7502-3.6494,.3108-1.2063,.3668-2.4552,1.5502-3.5157l.2896,.0484h0Z" fill="#635034"/><path d="M226.2339,406.1873c.7906,1.3521,.4503,2.5379,.3655,3.7612-.1069,1.2201-.2507,2.4347-.4369,3.6431-.1871,1.2083-.4305,2.4082-.6929,3.6054-.2659,1.1967-.3841,2.4151-1.4753,3.4903l-.2905-.0428c-.718-1.3415-.4629-2.5397-.3555-3.7597,.1109-1.2195,.2408-2.4362,.4269-3.6446,.187-1.2083,.4165-2.4103,.6829-3.6069,.2885-1.1934,.3215-2.4243,1.4853-3.4888l.2905,.0428h0Z" fill="#635034"/><path d="M236.7314,408.9402c.8158,1.318,.4976,2.4918,.4357,3.6981-.0841,1.2035-.2052,2.4024-.3689,3.5958-.1646,1.1933-.3855,2.3795-.6255,3.5631-.2435,1.1833-.3389,2.3854-1.4101,3.4634l-.2913-.0371c-.743-1.3087-.5103-2.4934-.4257-3.6968,.0881-1.203,.1953-2.4036,.3588-3.597,.1644-1.1933,.3715-2.3812,.6155-3.5644,.2662-1.1804,.2762-2.3933,1.4201-3.4621l.2913,.0371h0Z" fill="#635034"/><path d="M247.5095,411.0947c.8406,1.2837,.5447,2.4456,.5056,3.6349-.0614,1.187-.1597,2.37-.3009,3.5484-.142,1.1783-.3405,2.3506-.5581,3.5208-.2211,1.1699-.2938,2.3556-1.3445,3.4365l-.292-.0313c-.7677-1.2759-.5574-2.4469-.4955-3.6339,.0654-1.1866,.1498-2.3711,.2908-3.5495,.1418-1.1783,.3264-2.3521,.548-3.5219,.2439-1.1674,.231-2.3624,1.3545-3.4354l.292,.0313h0Z" fill="#635034"/><path d="M258.5277,412.7762c.8651,1.2494,.5914,2.3993,.5751,3.5717-.0386,1.1704-.1144,2.3376-.2329,3.5011-.1194,1.1634-.2955,2.3218-.4907,3.4785-.1987,1.1565-.2487,2.3259-1.2785,3.4098l-.2925-.0256c-.792-1.243-.6042-2.4004-.565-3.5708,.0427-1.1701,.1044-2.3385,.2228-3.502,.1193-1.1634,.2814-2.323,.4806-3.4795,.2215-1.1544,.1857-2.3314,1.2886-3.4088l.2925,.0255h0Z" fill="#635034"/><path d="M269.7452,414.1097c.8891,1.2149,.6378,2.3529,.6443,3.5083-.0159,1.1539-.069,2.3052-.165,3.4537-.0969,1.1484-.2504,2.293-.4231,3.4363-.1762,1.1431-.2036,2.2962-1.2122,3.3831l-.293-.0198c-.816-1.21-.6506-2.3538-.6342-3.5076,.02-1.1536,.0591-2.3059,.1549-3.4544,.0967-1.1484,.2363-2.2939,.413-3.437,.1991-1.1415,.1405-2.3004,1.2223-3.3824l.293,.0198h0Z" fill="#635034"/><path d="M281.1216,415.2204c.9322,1.185,.7097,2.3235,.7362,3.4673,.0043,1.1443-.0375,2.2843-.1223,3.417-.0857,1.1327-.2273,2.2572-.3791,3.38-.1555,1.1243-.1525,2.2492-1.12,3.3374l-.2933-.0139c-.8589-1.1811-.7224-2.3241-.7261-3.4666-.0003-1.144,.0276-2.285,.1122-3.4177,.0855-1.1328,.2132-2.2583,.369-3.3807,.1784-1.123,.0893-2.2524,1.1301-3.3367l.2933,.014h0Z" fill="#635034"/><path d="M292.6161,416.2336c.9558,1.1501,.7565,2.2769,.8058,3.404,.0271,1.1281,.0076,2.2529-.0551,3.3708-.0636,1.118-.1832,2.2284-.3124,3.3374-.1331,1.1106-.1071,2.2188-1.0525,3.3098l-.2935-.0082c-.8825-1.1476-.7693-2.2772-.7957-3.4035-.0231-1.1279-.0175-2.2534,.045-3.3713,.0634-1.118,.169-2.2292,.3023-3.3379,.156-1.1098,.044-2.2208,1.0627-3.3093l.2935,.0082h0Z" fill="#635034"/><path d="M304.1882,417.2743c.9785,1.1151,.8021,2.2297,.8743,3.34,.05,1.1118,.0532,2.2212,.0129,3.3243-.0411,1.1032-.1382,2.1998-.245,3.2953-.1105,1.097-.062,2.189-.9856,3.2827l-.2936-.0024c-.9052-1.114-.8149-2.2297-.8642-3.3397-.046-1.1116-.0631-2.2214-.023-3.3246,.041-1.1032,.1241-2.2003,.2349-3.2956,.1334-1.0967-.0012-2.1897,.9957-3.2825l.2936,.0024h0Z" fill="#635034"/><path d="M316.021,418.4209c1.0001,1.08,.8465,2.182,.9416,3.2752,.0729,1.0951,.0991,2.189,.0818,3.2774-.0182,1.0885-.0926,2.1714-.1767,3.2537-.0879,1.0837-.0171,2.1597-.9191,3.2564l-.2936,.0034c-.9268-1.0804-.8593-2.1817-.9315-3.2751-.0689-1.095-.1091-2.189-.0919-3.2775,.0181-1.0885,.0784-2.1716,.1666-3.2537,.1108-1.0839-.0461-2.1592,.9292-3.2563l.2936-.0034h0Z" fill="#635034"/><path d="M327.6999,419.5734c1.0207,1.0449,.8896,2.1339,1.0076,3.2099,.0959,1.0781,.1455,2.1562,.1514,3.2299,.005,1.0738-.0461,2.1432-.1075,3.2124-.0652,1.0706,.0276,2.1311-.8531,3.2308l-.2935,.0092c-.9474-1.0468-.9024-2.1334-.9974-3.21-.0918-1.0781-.1555-2.1561-.1615-3.2298-.0052-1.0738,.0319-2.1431,.0974-3.2123,.088-1.0713-.0908-2.1293,.8632-3.2309l.2935-.0092h0Z" fill="#635034"/><path d="M339.1573,420.6866c1.0255,1.0082,.9095,2.0747,1.0515,3.1281,.1196,1.0545,.202,2.1109,.2415,3.1695,.0386,1.0587,.0204,2.1202-.0169,3.1827-.0409,1.0627,.0674,2.1178-.8067,3.2231l-.2933,.015c-.9523-1.0119-.9223-2.0741-1.0414-3.1286-.1155-1.0547-.2119-2.1104-.2516-3.169-.0387-1.0586-.0345-2.1194,.0068-3.1822,.0638-1.0639-.1305-2.1146,.8169-3.2236l.2933-.015h0Z" fill="#635034"/><path d="M350.3518,421.7177c1.0469,.9739,.9537,2.0285,1.1181,3.0648,.1421,1.038,.247,2.0786,.3091,3.1222,.0612,1.0437,.0656,2.0913,.051,3.1404-.0182,1.0493,.1125,2.088-.7379,3.1963l-.2929,.0207c-.9738-.9791-.9665-2.0276-1.108-3.0656-.138-1.0382-.257-2.0778-.3192-3.1214-.0613-1.0437-.0798-2.0904-.0611-3.1397,.041-1.0509-.1755-2.0836,.748-3.197l.2929-.0207h0Z" fill="#635034"/><path d="M361.2415,422.6237c1.068,.9397,.9976,1.9824,1.1844,3.0018,.1645,1.0214,.292,2.0462,.3766,3.0748,.0837,1.0287,.1109,2.0625,.1189,3.0981,.0045,1.0359,.1577,2.0583-.6687,3.1693l-.2924,.0265c-.9949-.9464-1.0103-1.9812-1.1743-3.0027-.1605-1.0218-.3019-2.0453-.3867-3.0739-.0839-1.0287-.125-2.0613-.129-3.0972,.0183-1.0379-.2206-2.0526,.6788-3.1702l.2924-.0264h0Z" fill="#635034"/><path d="M371.7849,423.362c1.0886,.9057,1.0411,1.9363,1.2503,2.9388,.1869,1.0049,.3369,2.0138,.4441,3.0275,.1063,1.0137,.1561,2.0337,.1869,3.0558,.0272,1.0225,.2029,2.0286-.5992,3.1422l-.2919,.0321c-1.0157-.9137-1.0538-1.9349-1.2402-2.9399-.1829-1.0053-.3468-2.0127-.4541-3.0264-.1065-1.0137-.1702-2.0322-.197-3.0547-.0045-1.025-.2657-2.0217,.6093-3.1434l.2919-.0321h0Z" fill="#635034"/><path d="M381.94,423.8896c1.1089,.8718,1.0844,1.8905,1.3159,2.8759,.2093,.9884,.3817,1.9815,.5115,2.9802,.1289,.9988,.2014,2.0049,.2549,3.0134,.05,1.009,.248,1.9988-.5294,3.1151l-.2912,.0377c-1.0362-.8812-1.097-1.8888-1.3058-2.8772-.2053-.9889-.3916-1.9802-.5215-2.9789-.1291-.9988-.2155-2.0031-.265-3.0121-.0273-1.0119-.3107-1.9907,.5394-3.1163l.2912-.0378h0Z" fill="#635034"/></g><g opacity=".5"><polygon points="199.7821 338.5381 1198.6761 15.4423 1265.9136 479.4729 199.7821 338.5381" fill="#fadbe3"/></g><g><path d="M221.7793,348.195c1.2232-1.9167,2.6968-3.2662,3.7112-5.2161,2.4457-4.5909,1.6777-10.4105-1.7221-14.3179-.6382-.8353-1.309-1.6594-1.9891-2.641l.1587-.247c2.4336,.4638,4.1936,2.3653,5.4267,4.4011,2.5913,4.1235,2.5997,9.7452,.0088,13.872-1.2464,2.0258-2.9664,3.9897-5.4355,4.3961l-.1587-.2471h0Z" fill="#472d34"/><path d="M391.4976,371.8367c7.9543-6.2014,15.1688-13.3717,20.1221-22.1757,12.8228-22.0498,8.8226-51.0568-8.8963-69.2606-3.4119-3.676-7.1801-7.0334-11.2258-10.1284l.1574-.2479c4.5425,2.3603,8.7323,5.4548,12.3988,9.0885,18.8685,18.4101,23.1237,48.9852,9.4418,71.6275-5.1905,8.8823-12.6332,16.6713-21.8406,21.3445l-.1574-.2479h0Z" fill="#472d34"/><path d="M472.4447,383.5834c5.4537-3.9521,11.1116-8.699,15.8286-13.545,31.1221-31.0142,31.1016-80.6651,.0145-111.6886-4.7059-4.857-10.368-9.5897-15.8432-13.53l.1546-.2498c1.5295,.857,3.0365,1.7609,4.5553,2.6544,2.533,1.6109,6.1452,4.3233,8.5207,6.2554,29.4003,24.7908,37.305,68.2629,17.0413,101.2454-5.4529,9.1238-12.6323,17.1856-21.1882,23.4875-2.8595,2.0622-5.8359,3.9432-8.9292,5.6204l-.1545-.2496h0Z" fill="#472d34"/><path d="M569.6874,397.2893c3.7322-2.7135,7.3873-5.4937,10.9476-8.4128l5.1321-4.5853,4.8954-4.8227c40.8762-41.2571,40.864-106.9001,.0144-148.1701l-4.8925-4.8272-5.1318-4.5882c-3.5654-2.9127-7.2201-5.6955-10.9653-8.3906l.1558-.249c1.9902,1.1751,3.9578,2.397,5.9373,3.6086,3.2926,2.1849,8.0142,5.8081,11.1025,8.4006l5.1138,4.747c34.2825,33.6626,41.9704,87.4028,17.0846,128.7532-7.0739,12.0702-16.4814,22.7078-27.6041,31.1765-3.731,2.7651-7.6086,5.3086-11.6341,7.6088l-.1557-.2488h0Z" fill="#472d34"/><path d="M685.6553,413.9323c19.6069-13.7427,37.1137-31.1572,48.9505-52.0959,31.0227-53.5781,21.5238-121.9567-21.4833-166.1319l-6.3978-6.3392-6.7077-6.0249-7.0402-5.6525c-2.4401-1.7622-4.8922-3.5141-7.3214-5.3128l.1575-.2478c42.1423,24.4602,69.6896,72.1971,69.4601,121.0266,.2566,48.4029-27.5371,97.6878-69.6176,120.7785h0Z" fill="#472d34"/><path d="M811.2211,430.574c24.6572-16.6337,46.7791-38.0957,61.8076-63.9023,39.6363-66.6126,27.3306-151.5004-27.2168-205.9513-4.7012-4.7467-11.4015-10.7906-16.5244-15.1369l-8.8605-6.8921-9.2059-6.4532,.1551-.2494c52.3543,30.107,87.7373,88.6386,87.3575,149.4175,.4093,60.3513-35.2321,120.4297-87.5126,149.1677h0Z" fill="#472d34"/><path d="M964.5727,451.1315l10.8992-8.0616,10.4467-8.6117c6.0857-5.4383,13.9063-13.0196,19.3463-18.8818,7.3946-8.3648,14.6723-17.2002,20.823-26.5527,2.2249-3.0648,5.262-8.0961,7.1927-11.4255,48.5682-80.9828,36.3582-188.0029-27.9986-256.8234-8.9208-9.6381-19.4601-19.3143-29.7975-27.4941l-10.9119-8.0446,.1618-.2451c134.0616,85.0991,133.9178,282.2895-.1618,366.1404h0Z" fill="#472d34"/><path d="M1135.5062,467.3661c111.2739-73.79,151.7694-214.546,85.7073-332.6677-12.8976-22.8796-29.5496-43.742-48.6637-61.7612-2.8118-2.6383-8.8043-8.0406-11.779-10.5316-8.0715-6.7761-16.5029-13.1348-25.2646-19.0308l.1587-.2471c159.3554,98.8511,159.2024,326.6242-.1587,424.2383h0Z" fill="#472d34"/><path d="M322.1266,360.6518c4.9347-4.3289,9.5623-8.9255,12.7175-14.6809,6.3352-11.2995,6.3435-25.6718,.0087-36.9743-3.166-5.7409-7.7482-10.3994-12.7262-14.6759l.1587-.2471c3.0482,1.4147,5.8272,3.4229,8.2486,5.7947,12.3597,12.0241,15.1345,32.3735,6.193,47.1697-3.3948,5.8268-8.2408,11.0627-14.4416,13.8608l-.1587-.2471h0Z" fill="#472d34"/><path d="M269.5448,354.415c2.9416-3.0429,5.8798-5.8908,7.8779-9.5949,3.9555-7.1869,3.9638-16.2286,.0088-23.4186-2.0082-3.6892-4.9012-6.5985-7.8866-9.5899l.1587-.247c2.0543,.7758,3.9135,2.0289,5.5192,3.5457,8.1576,7.7735,9.9889,21.1492,4.0828,30.777-2.2364,3.7761-5.3983,7.2586-9.602,8.7748l-.1587-.2471h0Z" fill="#472d34"/></g><g id="c"><path d="M948.4526,302.7435c-.256,.3308-1.8632,4.0535-7.1132,7.0276-5.0321-6.5743-9.6055-3.9984-23.316-13.3823-1.0464,1.1539-1.7694,2.2139-4.9536,3.787,.2047-2.4235-1.3148-4.6907-1.3148-4.6907,0,0-1.874,2.3134-5.4403,3.8608,.1711-2.1319-.1551-4.4359-.1551-4.4359l16.3908-3.306,25.9023,11.1394Z" fill="#858e94"/><path d="M944.8503,255.3202s-4.5542-1.1863-9.2496-1.3663c-1.3836,7.1867-11.5756,11.9417-15.3564,14.5017s-6.6508,.2198-8.721,.6927c1.2564,1.4168-.505,2.9295-.505,2.9295,0,0-3.0852-1.0971-4.5049-1.0101,1.3738,1.6002-.5844,4.7248-.5844,4.7248,0,0,32.9207-1.7824,32.6871-2.4774s6.2341-17.995,6.2341-17.995Z" fill="#858e94"/><path d="M905.1764,273.143c-14.1632-7.1062-27.7845-12.6626-43.2147-14.4657,.6522,4.8392,1.2134,5.7936,4.7305,10.6628,3.6393,5.0384,12.7741,11.3738,13.4559,16.0003,.682,4.6265-9.2565,14.6826-11.3062,20.2512-2.3052,6.2627-5.7091,12.5215,4.1777,9.3082,9.8869-3.2133,25.0476-13.265,34.6597-20.1744-.4535-7.3902-1.7567-14.3557-2.5029-21.5824Z" fill="#858e94"/><g><path d="M944.8063,228.2736c5.2534,.4931,10.3684,.8863,15.7559,2.5773,5.3875,1.691,10.3476,4.7858,15.3627,8.3945-7.5186,5.0324-15.2357,9.6151-22.8,14.6373-2.0387-3.9203-2.4267-3.9666-3.4586-9.2551-.3688-1.8905-1.6714-11.1179-3.4557-14.2338-.3882-.6776-.9293-1.5847-1.4043-2.1202Z" fill="#858e94"/><g opacity=".3"><path d="M966.4287,238.8603c-1.5982,.6281-2.9323,.0969-4.3013-.1892-1.3682-.309-2.7152-.6636-4.0458-1.038l-3.9573-1.1601c-1.3245-.3804-2.638-.5556-3.897-1.6245l.0341-.2917c1.5101-.7436,2.9412-.4091,4.3352-.1753,2.7874,.4598,5.485,1.273,8.128,2.2091,1.3102,.4831,2.6627,.6978,3.7733,1.9842l-.0693,.2854h0Z"/></g><g opacity=".3"><path d="M959.0707,244.4977c-1.136,.5911-1.8133,.1548-2.6056-.0255-.7802-.1996-1.5488-.4107-2.3105-.6371-.7612-.2272-1.5128-.4834-2.272-.7302-.7646-.2513-1.537-.3226-2.2124-1.341l.0408-.2908c.9514-.7899,1.7964-.5662,2.6357-.4615,1.6889,.2025,3.3343,.688,4.8621,1.4281,.7506,.384,1.6002,.5552,1.9766,1.7878l-.1147,.2703h0Z"/></g></g><path d="M1048.3046,209.0463c-4.473-1.08-9.9003,2.0749-14.7385,3.4927-4.8382,1.4178-9.2777,2.8734-15.399,5.3192-6.1214,2.4458-6.2907,3.4816-15.5577,8.0795-9.2669,4.5979-28.0943,13.5799-41.4621,20.6787-13.3676,7.0988-41.1226,25.0136-54.5464,27.393-13.4237,2.3794-23.2522-4.581-21.0801,6.9337,2.9932,15.8679,6.4511,16.4002,21.504,15.0436,15.0528-1.3565,19.6488,10.2265,44.4636,7.3289,24.8148-2.8975,68.5787-21.5491,83.3979-51.516,8.7631-7.6851,19.0804-18.5538,19.0945-32.4649-2.8246-.8934-6.6479,1.2161-9.3662,5.0495-2.7184,3.8335-7.497,11.6178-10.2309,16.4783,1.9484-5.5536,4.7403-13.5298,6.2945-18.8273,1.2532-4.271,7.0422-8.9028,7.6265-12.9892Z" fill="#adcdd9"/><g><path d="M888.0364,290.2213c-1.6528-1.7501-5.4603-5.4974-4.2482-9.7833,3.8917-13.7596,6.9342-5.299,21.8043-7.4319,14.8703-2.1328,41.6271-20.6353,55.4509-27.697,13.8239-7.0617,32.1076-14.7862,41.5231-19.3714,9.4155-4.5852,9.4144-5.6429,15.5835-8.0784,6.1692-2.4354,10.5502-3.918,15.4089-5.3148,4.8587-1.3968,10.2584-4.7048,14.7155-3.3749-.2576,3.1267-6.535,9.511-7.4071,12.1462s-1.9585,4.7045-2.3509,7.7363c-.6717,2.2878-2.6029,8.2739-4.1027,8.8738-2.5833,1.0333,.0003-4.3814-1.5915-5.0569-3.1073-1.3187-4.0353,.5656-5.942,2.9113-1.9068,2.3457-6.4906,.96-9.0152,1.3876-7.1744,1.2153-14.5311,9.1896-18.9989,13.1247-4.4678,3.9351-1.0383,7.8396-4.322,10.6531-7.4132,6.3517-11.3499,.7722-22.1224,4.7595-4.2531,1.5742-22.1309,5.7811-28.2814,10.1234-1.2289,.8676-2.4613,2.8334-4.3604,3.4082-4.7932,1.4508-8.2111-2.041-14.2036,.0043-2.8924,.9873-10.7727,6.6529-14.9247,7.3361-6.9853,1.1494-13.548,1.9281-20.4095,2.8601-1.0007,.1359-1.0817,.5583-2.2056,.7839Z" fill="#78a3b3"/><g clip-path="url(#d)"><g><path d="M1000.5792,240.9689c1.254-.971,1.2448-.6328,1.5347-.6047,.5026,.1463,.8158,.4659,.9715,.9643,.1971,.5732-.014,.7079-.5382,1.5422-.3373,.4347-1.265,.9897-1.4313,.9893-.6421-.0012-1.2151-.3701-1.4116-.9995-.038-.2888-.3753-.2676,.5508-1.5556l.3242-.3359h0Z" fill="#2d3327"/><path d="M986.4506,236.3838c1.3116-.8938,1.2894-.5504,1.583-.5001,.5051,.1864,.8118,.5354,.951,1.0541,.1779,.5888-.0374,.7176-.6065,1.5278-.3621,.4183-1.3237,.9107-1.4932,.8983-.6584-.0509-1.22-.469-1.3958-1.1218-.0276-.2966-.371-.3001,.6194-1.5409l.3422-.3174h0Z" fill="#2d3327"/><path d="M912.9428,268.1174c1.3978-.7577,1.3546-.4049,1.6525-.3151,.5059,.2572,.8004,.6586,.9121,1.2137,.1476,.6152-.0728,.7367-.7117,1.5061-.4007,.3905-1.4091,.774-1.5833,.7402-.4214-.0719-.7736-.3357-1.0474-.6298-.1547-.2001-.2494-.4465-.318-.7129-.0107-.311-.3629-.3589,.7261-1.5174l.3698-.2849h0Z" fill="#2d3327"/><path d="M932.9035,271.0446c.9486-.5787,.9213-.3393,1.1252-.2936,.3471,.1483,.55,.4035,.6298,.7714,.0291,.1922,.198,.2672-.476,1.0482l-.2505,.2098c-.8871,.5267-.9313,.3474-1.1155,.2852-.3481-.143-.5641-.3869-.6492-.7546-.0093-.2086-.2497-.2235,.4857-1.0565l.2504-.2099h0Z" fill="#2d3327"/><path d="M910.9304,271.5593c.9734-.5369,.9384-.2962,1.1422-.2397,.1633,.0878,.3084,.1896,.4114,.3238,.1017,.1353,.1558,.3072,.1982,.4882,.0231,.1958,.1908,.2802-.5123,1.0358l-.2588,.1995c-.9097,.4876-.9487,.304-1.1321,.2318-.346-.1623-.5558-.4202-.6298-.7962-.0028-.2115-.2445-.2388,.5224-1.0437l.2587-.1995h0Z" fill="#2d3327"/><path d="M925.2791,268.2509c.964-.5547,.9313-.3168,1.1348-.2664,.1635,.0822,.3088,.1785,.4128,.3081,.1026,.1307,.1585,.2991,.2031,.4769,.0258,.1933,.1927,.2711-.4924,1.0436l-.2534,.2062c-.8951,.512-.938,.3292-1.1221,.2619-.1653-.0827-.3193-.1749-.4266-.3048-.1059-.131-.1704-.2953-.2169-.4737-.0064-.2102-.249-.2328,.5051-1.0482l.2556-.2036h0Z" fill="#2d3327"/><path d="M974.3125,241.0502c.9319-.6042,.9077-.3672,1.1099-.3294,.1638,.0716,.3104,.1583,.4172,.2801,.1054,.123,.1658,.2856,.2151,.458,.031,.1885,.199,.2564-.4583,1.0508l-.2453,.2159c-.8712,.5511-.9172,.3758-1.1002,.321-.3463-.1288-.5628-.3616-.6516-.7214-.0118-.2054-.25-.2117,.4679-1.0591l.2453-.2159h0Z" fill="#2d3327"/><path d="M970.8851,251.2147c.9402-.592,.9156-.3528,1.1194-.3105,.3481,.1424,.5531,.3937,.6368,.7593,.0311,.1912,.2005,.2633-.4631,1.0531l-.2476,.2133c-.8791,.5395-.9253,.3613-1.1097,.3021-.349-.1372-.5673-.3772-.6563-.7427-.0117-.208-.2518-.2191,.4729-1.0614l.2476-.2133h0Z" fill="#2d3327"/><path d="M952.4886,248.5931c.9409-.5912,.916-.3524,1.1199-.3101,.3479,.1422,.5527,.393,.6363,.7584,.031,.1911,.2002,.263-.4632,1.0529l-.2474,.2134c-.879,.5397-.9254,.3614-1.1099,.3022-.3491-.1373-.5676-.3775-.6568-.7431-.0117-.2079-.252-.2193,.4733-1.0608l.2478-.213h0Z" fill="#2d3327"/><path d="M947.2634,257.3455c.941-.591,.9169-.3512,1.1213-.3082,.3491,.1438,.5554,.3962,.6401,.7631,.0316,.1918,.2015,.2646-.4618,1.0548l-.2476,.2132c-.8799,.5386-.9266,.3597-1.1116,.2999-.1666-.0757-.322-.161-.4318-.2855-.1086-.1256-.1769-.2859-.2278-.4611-.0122-.2086-.2529-.2205,.4715-1.0631l.2477-.2132h0Z" fill="#2d3327"/><path d="M920.8092,269.236c.9637-.5534,.9313-.3134,1.1347-.2614,.1635,.0839,.309,.1822,.413,.3135,.1027,.1324,.1583,.3022,.2023,.4811,.025,.1941,.1929,.2746-.4999,1.0395l-.2557,.2034c-.9011,.5027-.9416,.3212-1.1249,.2532-.3462-.1541-.5573-.4059-.6348-.778-.0049-.21-.2456-.2321,.5097-1.0477l.2556-.2036h0Z" fill="#2d3327"/><path d="M966.4862,258.0358c.9355-.5985,.9125-.3585,1.1165-.3172,.3487,.1409,.5553,.3918,.6406,.757,.0318,.1909,.2019,.2628-.4606,1.0528l-.2473,.2136c-.8785,.5414-.9244,.3646-1.1085,.3069-.3483-.1343-.566-.3713-.6553-.7349-.0121-.2074-.2511-.216,.4685-1.0632l.2461-.215h0Z" fill="#2d3327"/><path d="M935.2757,260.6398c.9493-.5776,.9218-.3383,1.1255-.2924,.1646,.0786,.3115,.172,.4177,.2995,.1049,.1286,.1637,.2957,.2112,.4723,.0289,.1922,.1976,.2673-.4766,1.0484l-.2505,.2098c-.8871,.5265-.9313,.3469-1.1154,.2845-.1655-.078-.3196-.1656-.4278-.2916-.1068-.1272-.1729-.2884-.2213-.4644-.0092-.2088-.2498-.2241,.4865-1.0563l.2506-.2096h0Z" fill="#2d3327"/><path d="M985.0546,239.317c.9128-.6316,.8918-.3973,1.092-.3681,.1627,.064,.3085,.1436,.4154,.2593,.1056,.1169,.1672,.2746,.218,.4424,.0329,.1843,.1996,.2445-.4398,1.0524l-.2396,.2222c-.8536,.5769-.9012,.4061-1.0826,.3594-.1635-.0632-.3162-.1365-.4248-.2506-.1074-.1153-.1758-.2667-.2274-.4337-.0141-.2018-.2494-.1985,.4492-1.0611l.2396-.2222h0Z" fill="#2d3327"/><path d="M992.8067,251.0101c.9102-.6364,.8933-.3996,1.096-.3696,.1654,.065,.3141,.1458,.4243,.2631,.1088,.1184,.174,.278,.2285,.4478,.0367,.1865,.2061,.2477-.4238,1.0638l-.2376,.2243c-.8508,.5819-.9022,.4089-1.0863,.3612-.3492-.1154-.5725-.3391-.6723-.6943-.0181-.2042-.2559-.2016,.4335-1.0722l.2378-.2241h0Z" fill="#2d3327"/><path d="M1006.2902,227.7243c.8514-.7108,.8405-.4846,1.0341-.4799,.1589,.0422,.3019,.101,.4095,.1994,.1064,.0997,.1728,.2441,.2298,.3999,.0412,.1743,.2018,.2107-.3608,1.0753l-.2155,.2456c-.7817,.6651-.8404,.5019-1.0184,.4767-.3406-.0729-.565-.2661-.676-.5979-.0255-.1948-.2557-.1681,.3765-1.0784l.2208-.2409h0Z" fill="#2d3327"/><path d="M994.2606,241.9615c.8892-.664,.8752-.4303,1.0752-.4091,.1636,.0572,.311,.1305,.4207,.2413,.1085,.112,.1744,.2664,.2299,.4312,.0382,.1819,.2057,.2352-.4061,1.0639l-.2316,.2304c-.8318,.6075-.8843,.4395-1.066,.4002-.345-.099-.567-.3094-.6691-.6548-.02-.2001-.2539-.1875,.4153-1.0728l.2317-.2304h0Z" fill="#2d3327"/><path d="M965.1657,245.4058c1.3486-.8405,1.3223-.4897,1.6215-.421,.5131,.22,.8231,.596,.9597,1.1361,.1752,.6023-.04,.7324-.6339,1.5333-.3767,.411-1.359,.8582-1.5327,.8361-.4187-.0423-.7813-.2789-1.0668-.5515-.1626-.1871-.2679-.4239-.3484-.6821-.0253-.3061-.3762-.33,.6478-1.5452l.3528-.3057h0Z" fill="#2d3327"/><path d="M988.6594,242.0165c1.3083-.9002,1.2919-.5535,1.5892-.502,.513,.1891,.8288,.5424,.9789,1.0668,.1902,.5906-.0221,.7249-.5824,1.5451-.3581,.424-1.3173,.9198-1.4891,.907-.4121-.0186-.7788-.2321-1.0692-.4863-.1659-.1757-.2767-.4034-.3635-.6536-.0337-.3002-.381-.3052,.5963-1.5571l.3398-.32h0Z" fill="#2d3327"/><path d="M976.6512,255.3149c.6959-.558,1.0641-.765,1.2827-.8116,.9243,.0163,1.6215,.6761,1.6572,1.6027,.015,.1867-.5906,1.2937-1.0561,1.699-.6454,.5055-1.0237,.7238-1.2527,.7815-.7256,.0208-1.3851-.3797-1.6129-1.0911-.2395-.6673-.0202-.7684,.6153-1.7878l.3664-.3927h0Z" fill="#2d3327"/><path d="M893.9901,275.0688c1.421-.7129,1.3669-.361,1.6621-.2612,.4981,.2743,.7802,.6861,.8747,1.2456,.1286,.6201-.0954,.7351-.7587,1.484-.4131,.3775-1.4335,.728-1.6066,.6884-.4194-.0859-.763-.3614-1.0276-.6646-.1483-.2053-.2352-.4549-.2956-.7238-.001-.3116-.3514-.371,.7732-1.4953l.3785-.2732h0Z" fill="#2d3327"/><path d="M941.0131,260.8722c1.3565-.8275,1.3265-.4773,1.6248-.406,.5106,.2244,.8163,.6029,.9472,1.1437,.1688,.6037-.048,.7314-.6498,1.5259-.3808,.407-1.3673,.8449-1.5406,.8213-.4178-.046-.7778-.2856-1.0602-.5605-.1605-.1884-.2632-.4258-.3409-.6845-.022-.306-.3724-.333,.6638-1.5378l.3558-.3022h0Z" fill="#2d3327"/><path d="M906.4198,278.492c1.4066-.7422,1.3622-.3871,1.6615-.2918,.5077,.2672,.8027,.6769,.9135,1.2386,.1468,.6192-.0733,.7416-.7187,1.5084-.4045,.3884-1.4175,.7589-1.5927,.7221-.4248-.0797-.777-.3515-1.0513-.652-.155-.2044-.2495-.4545-.318-.7244-.0101-.3139-.3639-.368,.7333-1.5194l.3723-.2816h0Z" fill="#2d3327"/><path d="M922.2087,265.2708c1.3802-.7873,1.3433-.434,1.6418-.3509,.5089,.2458,.8092,.6403,.9294,1.1913,.1569,.6113-.062,.7358-.6877,1.5144-.3939,.3963-1.3951,.7995-1.5689,.7697-.42-.0619-.7751-.316-1.0522-.6025-.1568-.1954-.2544-.4382-.3265-.7016-.0153-.3092-.366-.3483,.7004-1.5279l.3637-.2925h0Z" fill="#2d3327"/><path d="M913.616,275.1764c1.4011-.7505,1.3598-.3923,1.66-.2968,.5105,.2688,.8092,.6817,.9237,1.246,.1509,.6201-.0682,.7445-.7132,1.5127-.4046,.3887-1.4179,.7594-1.5931,.7231-.425-.079-.778-.3499-1.0529-.6497-.1555-.204-.2506-.4539-.3199-.724-.0114-.3146-.3643-.3665,.7252-1.5271l.3702-.2843h0Z" fill="#2d3327"/><path d="M1011.3057,223.9326c1.2006-1.0365,1.2094-.6985,1.5004-.686,.5099,.1191,.8397,.4212,1.022,.9105,.2276,.5618,.0242,.7076-.4542,1.569-.3132,.4523-1.2098,1.0565-1.3759,1.0649-.6416,.0332-1.234-.3048-1.4644-.9229-.0537-.2864-.3895-.2473,.4664-1.5828l.3058-.3527h0Z" fill="#2d3327"/><path d="M1004.9865,238.7114c.6871,.6312,1.3737,1.2625,2.0609,1.8937" fill="#bad5e6"/><path d="M991.2376,236.2025c1.3063-.9045,1.2814-.5692,1.5724-.5267,.6344,.2052,.9979,.7839,1.0044,1.4331,.0039,.1662-.5401,1.1095-.9707,1.4536-.5968,.4278-.9103,.5705-1.1252,.6155-.6625-.0393-1.2336-.4605-1.4231-1.1118-.0326-.2968-.3812-.3008,.6014-1.5447l.3408-.319h0Z" fill="#2d3327"/></g><path d="M996.0767,245.15c1.3354-.8605,1.3159-.5068,1.6172-.4407,.5189,.2164,.8372,.5923,.9838,1.1337,.1863,.6012-.0264,.7357-.611,1.5446-.3724,.4157-1.3503,.8727-1.5247,.8527-.4203-.038-.7868-.2707-1.0766-.5404-.1656-.1855-.2745-.4215-.3591-.6794-.0302-.3067-.3812-.3258,.6226-1.5591l.3477-.3114h0Z" fill="#2d3327"/><path d="M925.1275,261.9847c1.4155-.7246,1.3671-.3692,1.6652-.2697,.5048,.2749,.7951,.6897,.8993,1.2538,.1395,.6216-.082,.7416-.7376,1.5002-.4098,.383-1.4277,.7396-1.6025,.7004-.4239-.0856-.7727-.3624-1.0431-.6668-.1524-.2066-.2438-.4582-.3088-.7292-.0062-.3144-.3592-.373,.7519-1.5117l.3757-.2771h0Z" fill="#2d3327"/><path d="M930.0011,266.2517c.9788-.5287,.9452-.2851,1.1513-.2243,.349,.1755,.5493,.4512,.6216,.8342,.0249,.1992,.1947,.2875-.5086,1.0441l-.2595,.1986c-.9141,.4809-.955,.2935-1.1408,.217-.3507-.1707-.565-.4367-.6429-.82-.0046-.2149-.249-.2469,.5191-1.0514l.2598-.1982h0Z" fill="#2d3327"/><path d="M944.9629,269.1254c.9633-.5554,.9339-.313,1.1396-.2596,.1658,.0854,.3138,.1853,.4203,.3184,.1052,.1342,.1636,.306,.2105,.487,.0279,.1963,.1981,.2783-.4888,1.0491l-.2547,.2047c-.9005,.505-.9439,.3212-1.1296,.2516-.3508-.1572-.5675-.413-.6508-.7894-.0079-.2124-.2509-.2358,.4988-1.057l.2547-.2047h0Z" fill="#2d3327"/><path d="M988.0686,250.9399c.936-.5987,.9136-.3586,1.1182-.3172,.3499,.1411,.5578,.3921,.645,.7583,.0329,.1915,.2032,.2631-.4543,1.0582l-.246,.2151c-.8756,.5452-.9235,.3669-1.1086,.3086-.3508-.1357-.5715-.3752-.6639-.741-.0136-.2085-.2541-.2182,.4637-1.0668l.2458-.2152h0Z" fill="#2d3327"/><path d="M982.3768,257.9982c.9353-.5999,.9132-.36,1.1179-.3191,.1662,.0747,.3151,.1645,.4241,.2893,.1077,.126,.1702,.2915,.2216,.4667,.0331,.1913,.2035,.2624-.4536,1.0574l-.2459,.2152c-.8754,.546-.9233,.3681-1.1085,.3103-.1669-.0738-.3227-.1573-.4333-.2804-.1093-.1242-.1787-.2834-.2308-.4578-.0137-.2081-.2541-.2173,.4629-1.0662l.2457-.2154h0Z" fill="#2d3327"/><path d="M961.9286,256.5757c.9509-.5754,.9235-.3355,1.1277-.2886,.165,.0796,.3123,.1738,.4189,.3021,.1052,.1294,.1644,.2972,.2122,.4745,.0291,.1929,.1983,.2689-.4767,1.0493l-.2509,.2094c-.8887,.5242-.9332,.3439-1.1177,.2806-.349-.1453-.5657-.3914-.6512-.7608-.0094-.2094-.2506-.2257,.4866-1.0574l.251-.2092h0Z" fill="#2d3327"/><path d="M956.6191,260.6361c.9504-.576,.9232-.3359,1.1275-.2891,.348,.1504,.5514,.4073,.6317,.7768,.0293,.1929,.1985,.2689-.4759,1.0499l-.2507,.2095c-.8883,.5247-.933,.3444-1.1176,.2811-.3491-.1452-.5659-.3914-.6517-.7608-.0096-.2095-.2507-.2257,.4859-1.058l.2509-.2094h0Z" fill="#2d3327"/><path d="M947.956,252.9564c.9581-.563,.9281-.3224,1.1321-.2722,.1644,.0825,.311,.1795,.4163,.31,.1039,.1316,.1614,.301,.2073,.4797,.027,.194,.1957,.2731-.4894,1.0448l-.2537,.2058c-.8962,.5113-.9385,.3301-1.1226,.2638-.3477-.151-.5615-.401-.6426-.7725-.007-.2101-.248-.2299,.4991-1.0533l.2535-.2061h0Z" fill="#2d3327"/><path d="M977.6928,267.0049c.9407-.5919,.9155-.354,1.1191-.3126,.1647,.0748,.3121,.1644,.4193,.2888,.1058,.1255,.1663,.2904,.2157,.465,.0311,.1907,.1996,.2612-.4604,1.0546l-.2464,.2147c-.8757,.5439-.923,.3651-1.1076,.3063-.1663-.0748-.3215-.1594-.4314-.2833-.1086-.1251-.177-.2849-.2279-.4595-.0121-.2079-.2531-.2195,.4719-1.0609l.2477-.2131h0Z" fill="#2d3327"/><path d="M953.4943,268.2834c.9561-.5671,.9277-.3264,1.1325-.2771,.3484,.155,.5514,.4152,.6304,.7872,.0285,.1941,.198,.2723-.4818,1.0488l-.2524,.2075c-.8933,.5167-.9374,.335-1.1224,.2693-.1662-.0812-.321-.1718-.4294-.3005-.1071-.1298-.1732-.2933-.2214-.4714-.0087-.2105-.2507-.2297,.4919-1.0566l.2526-.2072h0Z" fill="#2d3327"/><path d="M993.8656,242.6849c.929-.6095,.9089-.37,1.1136-.3315,.3508,.1359,.5607,.3831,.6515,.7471,.0348,.1906,.2055,.2595-.4428,1.062l-.2433,.218c-.8687,.5562-.9184,.3788-1.104,.3231-.3517-.1307-.5747-.3667-.6709-.7306-.0157-.2078-.2561-.2145,.4524-1.0703l.2435-.2179h0Z" fill="#2d3327"/><path d="M935.7494,274.3768c.931-.6068,.9122-.3651,1.1184-.3245,.1681,.0748,.319,.1648,.4304,.2903,.11,.1266,.1752,.2931,.2293,.4694,.0359,.1924,.2083,.2637-.4412,1.0653l-.2442,.2171c-.8723,.5516-.9227,.3728-1.1096,.3152-.1686-.0738-.3262-.1573-.439-.2807-.1115-.1246-.1832-.2846-.238-.4599-.0166-.2094-.2581-.2177,.4501-1.0746l.2437-.2177h0Z" fill="#2d3327"/><path d="M948.3455,264.7485c.9122-.6343,.8972-.3956,1.1017-.3636,.352,.1243,.5662,.3635,.6642,.7228,.0387,.1885,.21,.2516-.418,1.0698l-.2375,.2243c-.8526,.58-.906,.4049-1.092,.3552-.353-.1194-.5802-.3472-.6839-.7064-.0201-.2062-.2597-.2056,.4277-1.0781l.2379-.224h0Z" fill="#2d3327"/><path d="M938.0035,266.1341c1.3399-.8553,1.3199-.5021,1.6219-.4352,.5197,.2176,.8383,.5937,.9856,1.1362,.1871,.6018-.0253,.7368-.6085,1.5476-.3717,.4169-1.3495,.8734-1.5247,.8525-.4229-.0399-.7909-.2756-1.0827-.5475-.167-.1872-.2772-.4247-.363-.684-.0312-.3078-.3844-.3295,.6224-1.5595l.3489-.31h0Z" fill="#2d3327"/><path d="M965.7426,247.9037c1.3565-.8274,1.3261-.4775,1.6241-.4063,.51,.2241,.8151,.6021,.9452,1.1424,.1679,.6036-.0489,.7309-.6509,1.5251-.3807,.4068-1.3671,.8449-1.5403,.8214-.4173-.0457-.7768-.285-1.0589-.5597-.1601-.1882-.2625-.4254-.3399-.6839-.0217-.3057-.3718-.3326,.6649-1.5369l.3558-.3021h0Z" fill="#2d3327"/><path d="M916.5265,262.7468c1.4149-.7258,1.3679-.369,1.6669-.2686,.5066,.2766,.7992,.6936,.9053,1.2597,.1415,.6222-.0794,.7431-.7358,1.5015-.4107,.3828-1.4296,.7372-1.6047,.698-.4248-.0863-.7743-.3635-1.0455-.6683-.1529-.2069-.2447-.4587-.3103-.7301-.0069-.3149-.36-.3734,.749-1.5145l.3752-.2776h0Z" fill="#2d3327"/><path d="M940.0201,258.4622c1.39-.7723,1.3512-.4184,1.6508-.3312,.5099,.2529,.8099,.6524,.9291,1.2077,.1558,.6142-.0628,.739-.6926,1.5167-.3962,.3954-1.4005,.7895-1.5754,.7573-.4235-.0683-.7794-.3296-1.0575-.6218-.1576-.1992-.2556-.4454-.328-.7119-.015-.3116-.3683-.3566,.7072-1.5278l.3666-.289h0Z" fill="#2d3327"/><path d="M955.9088,253.8411c1.288-.9327,1.2781-.5905,1.5762-.5497,.5158,.1688,.8374,.5058,1.0013,1.0218,.2064,.5836-.001,.7239-.5268,1.5676-.3388,.439-1.2758,.9727-1.449,.9648-.6762-.0339-1.2663-.4493-1.4831-1.1054-.0443-.2998-.3965-.2981,.5491-1.5713l.3324-.3278h0Z" fill="#2d3327"/><path d="M1013.7693,213.7575c-2.588-.0859-4.9618,1.3139-7.1878,2.6368-21.1436,12.5661-43.9521,22.3269-67.6405,28.9464-16.3944,4.5813-33.4435,7.7566-48.3822,15.9175-2.499,1.3652-5.0242,2.9619-6.4643,5.4186-1.4401,2.4567-1.4142,5.9936,.7777,7.8116l-.8929-2.2018c3.7486,4.5322,10.0834,6.2925,15.9441,5.7988,5.861-.4938,11.3685-2.9373,16.6159-5.5939,3.1639-1.6018,6.3032-3.2979,9.5371-4.7447,.2465,.1698,.4823,.3576,.6964,.5762,.7464,.7869,.7651,2.12,2.1427,1.9842,.9054-.0872,1.4347-.982,1.2375-1.838-.0786-.7455-.1766-1.4874-.2832-2.2278,.071,.047,.1456,.0918,.2057,.1448,2.5183,2.2063,5.1432,2.3326,6.722-1.0929,.5854-.079,1.057,.4127,1.4471,1.0278,.1827,.6477,.5269,1.2605,1.085,1.7869,1.5012,1.4042,3.8955-.3896,2.9335-2.2373-.1214-.237-.2486-.4767-.3798-.7161,.2558-1.5623,1.787-1.9616,3.2667-2.5019,1.8047-.44,4.2936-2.0058,5.4286-3.4585,1.0088-1.0101,1.9278-2.152,3.1978-1.6161,.2017,.9109,.7069,1.6608,1.646,1.9438,.9194,.1659,1.799-.4449,1.9649-1.3641,.1355-.8418-.028-1.5728-.3785-2.1871,.1324-1.3164,1.6073-2.5637,2.8526-3.4074,.5098-.3623,1.0199-.7322,1.527-1.1082,2.2528-1.3073,4.5456-2.5492,6.8467-3.7728,1.1618-.3772,2.1297-.373,3.0145-.2115,.896,.1799,1.6715,.5148,2.1703,1.0283,.356,.3614,.884,.5556,1.4218,.4633,.8729-.1498,1.4591-.979,1.3092-1.8518-.1805-.7409,.1284-1.6646,.7835-2.2209,.8248-.6599,1.2952-.491,2.4922-.5037,.6948,.0054,1.6195,.0339,2.6731-.3655,1.0949-.4215,1.8271-1.1936,2.3086-1.727,.8723-1.0435,1.4877-1.5873,2.5669-2.2768,3.9553-2.6027,12.0882-3.5503,12.6603-9.6825,2.8161-1.7933,5.7405-3.6818,9.6819-6.0249,1.5084-.8967,10.3097-7.8833,10.7033-9.5934,.5807-2.5234-3.6633-.8724-6.2513-.9583Z" fill="#2d3327"/></g></g><g><path d="M1023.4193,227.3721c-1.2583-1.8292-.9583-4.1703,1.0981-5.5051,2.0562-1.3347,4.4128-.6034,5.6797,1.2213,1.2671,1.8247,.9253,4.1644-1.1488,5.4073-2.0741,1.2429-4.3706,.7056-5.629-1.1236Z" fill="#dca942"/><path d="M1024.8378,226.4112c-.7163-1.0486-.5397-2.3687,.6305-3.1313s2.5158-.3559,3.2335,.6884c.7175,1.0444,.5285,2.3782-.6575,3.0911-1.1862,.7129-2.4904,.4004-3.2065-.6482Z" fill="#110908"/></g><g opacity=".3"><path d="M887.2559,272.5748c-2.0992-.0149-3.6506-1.0309-5.3307-1.7982l-4.9777-2.3714c-1.6521-.7907-3.2989-1.5839-4.9656-2.3453-1.669-.7663-3.3982-1.3354-4.8477-2.7999l.0952-.2778c2.0546-.2615,3.7996,.4603,5.5616,1.092,3.5299,1.2495,6.9196,2.8961,10.1415,4.7867,1.5989,.9573,3.306,1.7045,4.4634,3.4559l-.14,.2581h0Z"/></g><g opacity=".3"><path d="M883.4697,277.7115c-1.2728,.6572-2.2505,.1437-3.2504-.1523-1.9767-.6199-3.8166-1.5649-5.6006-2.556-.8885-.4856-1.7918-.7876-2.4473-1.9742l.0938-.2783c1.2772-.5345,2.2595-.0531,3.2311,.2961,.9801,.3561,1.9297,.7503,2.8454,1.1786,.9156,.4297,1.8043,.8813,2.6914,1.3282,.8893,.4714,1.8338,.6463,2.5186,1.8759l-.082,.282h0Z"/></g><g opacity=".3"><path d="M884.5651,287.9893c.1224,1.0994-.3795,1.2413-.7404,1.5996-.3731,.3395-.7665,.6479-1.1835,.9203-.4174,.2716-.8658,.4956-1.3248,.7036-.4609,.205-.8402,.535-1.7569,.0411l-.1604-.246c-.0824-1.0379,.3726-1.252,.7459-1.5912,.3753-.3362,.7611-.6562,1.178-.9287,.4173-.2717,.8581-.5075,1.3193-.712,.4734-.1858,.8057-.5879,1.7624-.0327l.1604,.246h0Z"/></g><g opacity=".3"><path d="M888.5796,293.1934c-.6697,1.6769-2.0043,2.4211-3.2159,3.355-2.4589,1.8519-5.1497,3.4581-8.0505,4.5466-1.4459,.5508-2.916,1.1649-4.6421,.729l-.0845-.2812c1.1694-1.3071,2.5411-1.7415,3.8621-2.4099,2.2888-1.142,5.4722-3.0727,7.7124-4.384,1.3019-.7465,2.4451-1.7356,4.2499-1.7958l.1688,.2403h0Z"/></g><g opacity=".3"><path d="M898.2107,297.2808c-1.5809,2.4441-3.9443,3.9138-6.1978,5.4882-4.5411,3.1195-9.4315,5.7378-14.5129,7.8569-2.5348,1.0585-5.0634,2.1768-7.9434,2.2952l-.1044-.2744c2.2162-1.8216,4.7303-2.7852,7.164-3.9743,2.426-1.1936,4.8376-2.4061,7.1974-3.7118,2.3832-1.2628,4.7112-2.6233,7.0266-4.0107,2.3301-1.3799,4.4338-3.0447,7.1926-3.9026l.1779,.2336h0Z"/></g><path d="M1052.0346,218.9312c-.9097,2.2802-4.0058,3.1461-5.3751,5.2415-1.0223,1.5645-2.7942,4.789-4.9554,7.6049-.5873,.7653-7.7514,9.4853-8.5646,12.2423-.6944-6.1118,3.063-11.1685,4.3306-16.4097,.5238-2.1657,.6994-4.9539,1.1137-6.3685,.7658-2.6149,1.8825-2.6626,2.9314-4.4223,.6469-1.0853,6.0956-6.0746,6.7118-7.2385-.491,3.746-6.4029,8.4267-7.5372,12.3895-1.4754,5.1553-4.0685,12.5767-5.9969,17.992,3.1293-5.3238,7.7158-12.62,11.0021-17.4646,1.187-1.7499,4.8493-3.2709,6.3396-3.5666Z" fill="#7096a1"/><g><path d="M1013.1769,243.4143c-1.5354,4.3905-7.5906,5.7538-9.4219,10.2273-1.8315,4.4735-1.7262,9.3802-2.5164,14.0432,2.3647-2.2108,4.8265-4.48,8.0931-4.9735,1.9598-.2961,5.6235,1.4756,6.8715-.0679,3.3281-4.1161-.4624-7.1862-1.4163-11.1358-.6824-2.8252-.9973-5.311-1.6099-8.0933Z" fill="#95aec4"/><g opacity=".3"><path d="M1012.7972,246.6644c-.7574,1.6639-1.9113,2.455-2.7618,3.657-1.7478,2.3995-2.5542,5.2296-3.1289,8.1504-.2947,1.502-.3517,3.0509-1.3818,4.5485l-.2928-.022c-.7931-1.635-.5961-3.2202-.448-4.8297,.2662-3.2723,1.2822-6.715,3.5706-9.2106,1.129-1.2412,2.4014-2.5059,4.2853-2.5413l.1575,.2478h0Z"/></g><g opacity=".3"><path d="M1014.805,252.7454c-.318,.9213-.9788,1.4034-1.4709,2.1425-.7695,1.4002-.7162,3.1651-.7825,4.8272-.0209,.9243,.1528,1.8998-.7096,2.9221l-.2933,.0148c-.9615-.8873-.9926-1.8136-1.1367-2.7971-.1382-.9761-.2308-2.0003-.1043-3.0784,.1623-1.983,1.9196-5.2607,4.3987-4.3079l.0986,.2767h0Z"/></g></g><g><path d="M996.8021,270.4709c1.2885-.9291,1.2811-.5814,1.5806-.5361,.5192,.1787,.8454,.5259,1.0096,1.0484,.2062,.5865-.0024,.7265-.5433,1.5604-.3484,.4328-1.2966,.9491-1.4693,.94-.4144-.0102-.7874-.2165-1.0853-.4651-.1711-.1727-.2882-.3986-.3819-.6475-.0417-.3001-.3903-.298,.557-1.5726l.3325-.3276h0Z" fill="#78a3b3"/><path d="M926.8466,285.1259c.9587-.5624,.9293-.3214,1.1339-.2707,.3478,.1574,.5498,.4196,.6269,.7925,.0276,.1945,.1969,.2741-.4877,1.0463l-.2537,.2059c-.8967,.5109-.9396,.3292-1.1243,.2623-.3487-.152-.5638-.403-.6461-.7756-.0076-.2106-.2492-.231,.4974-1.0547l.2535-.2061h0Z" fill="#78a3b3"/><g><path d="M992.8489,262.9103c.443,.4686,.8855,.9378,1.3282,1.4069" fill="#bad5e6"/><path d="M992.9022,262.8599c.4688-.2213,.5231-.0507,.672,.0305,.1429,.0869,.2579,.2001,.377,.3094,.2379,.3355,.6617,.6752,.1725,1.1678-.5744,.2646-.7174-.1014-1.0489-.3398-.1023-.1252-.2086-.2464-.2871-.394-.0725-.1533-.2396-.2171,.0079-.6729l.1067-.1009h0Z" fill="#78a3b3"/></g><path d="M998.8297,257.511c.8925-.6601,.8796-.4247,1.0811-.4013,.3476,.1085,.5596,.3352,.6587,.6845,.0393,.1837,.2084,.2392-.4042,1.0678l-.2324,.2298c-.8352,.6034-.8887,.4337-1.072,.3923-.3479-.1032-.5725-.3176-.6769-.6665-.0211-.2018-.2566-.1915,.4133-1.0767l.2323-.2298h0Z" fill="#78a3b3"/><path d="M953.1036,274.8195c1.3513-.8369,1.3257-.4847,1.6263-.4141,.5155,.2237,.8278,.6031,.9664,1.1464,.1775,.6039-.0372,.7352-.6318,1.537-.3775,.4113-1.3612,.8548-1.5359,.8318-.4212-.045-.7853-.2848-1.0724-.5599-.1638-.1889-.2702-.4274-.3517-.6872-.0263-.3076-.3787-.3337,.6458-1.5488l.3533-.3051h0Z" fill="#78a3b3"/><path d="M964.8046,288.0865c1.1763-.9428,1.483-1.0404,2.4634-.3537,.7235,.9211,.6417,1.269-.179,2.4824l-.3651,.3939c-.9098,.6423-1.072,.9132-1.7332,.7174-.7394-.1675-1.1939-.7782-1.2704-1.5092-.0464-.146,.602-1.3149,1.0843-1.7307h0Z" fill="#78a3b3"/><path d="M939.0255,297.6023c1.369-.8083,1.337-.456,1.6369-.3786,.5124,.2356,.8184,.6227,.9477,1.1703,.167,.6081-.0496,.7362-.6592,1.5277-.3853,.4045-1.3779,.8276-1.5526,.8007-.422-.0548-.7823-.3038-1.0654-.5862-.161-.1933-.2636-.435-.3409-.6976-.0211-.3092-.374-.3436,.6741-1.5385l.3594-.2979h0Z" fill="#78a3b3"/><path d="M912.8102,288.7011c1.4069-.7436,1.363-.3894,1.663-.2948,.5095,.2658,.8049,.6738,.919,1.2359,.1505,.6202-.0676,.7451-.7041,1.5226-.3986,.3942-1.4069,.774-1.5832,.7369-.4284-.0803-.7838-.3555-1.0621-.6587-.1581-.2068-.2561-.4597-.3277-.7322-.0133-.3164-.3704-.3732,.7232-1.5278l.3719-.2821h0Z" fill="#78a3b3"/><path d="M986.601,266.5695c1.3082-.9006,1.2954-.5504,1.5954-.4964,.5186,.1944,.841,.5537,.9967,1.0838,.1966,.5926-.0143,.7296-.5756,1.5513-.3597,.4246-1.3217,.9151-1.4948,.9015-.4159-.0215-.7852-.238-1.0786-.4948-.1679-.1775-.2806-.407-.3697-.6591-.036-.3024-.3847-.3084,.5875-1.5654l.339-.3209h0Z" fill="#78a3b3"/></g><path d="M1016.2333,225.5889c1.5206,2.4311,1.8678,5.0994,2.6292,7.6216,1.0993,3.7746,2.5486,7.3393,4.8918,10.4637,2.2533,3.5564,5.7507,3.6073,9.8189,4.4405l.0224,.293c-9.3783,4.0158-15.2733-7.0079-16.8273-14.6511-.5875-2.6753-1.2375-5.2859-.8223-8.1073l.2874-.0605h0Z" fill="#516c73"/></g><g opacity=".3"><path d="M958.3347,276.1149l-498.174,357.9603s-184.2299-85.2595-94.0037-292.3677c2.6365-.5137,592.1777-65.5926,592.1777-65.5926Z" fill="#9fb78b"/></g><g><path d="M934.1424,275.3401c-.1281,1.6336-.7487,2.7264-.9732,4.2308-.3598,2.6853,.4281,5.4581,2.1644,7.5418,.9926,1.1356,2.073,1.7996,3.083,3.0569l-.0942,.2781c-1.7868,.3618-3.3405-.6822-4.5489-1.8641-2.4904-2.3589-3.5816-6.1058-2.7278-9.4316,.4099-1.641,1.1128-3.3961,2.8689-3.9972l.2278,.1853h0Z" fill="#27474f"/><path d="M823.8824,288.7754c-3.5852,5.9647-6.6233,12.1795-7.8798,19.0214-2.551,13.4915,1.618,27.986,10.9586,38.0531,4.7122,5.107,10.5629,8.8224,16.8021,11.9027l-.0942,.2781c-3.4872-.7008-6.8411-2.0938-9.9138-3.942-15.5213-9.4203-23.7449-29.0078-19.876-46.7107,1.4582-6.975,4.5079-13.8827,9.7753-18.7878l.2278,.1853h0Z" fill="#27474f"/><path d="M770.8729,293.7201c-5.3673,8.1508-9.617,17.0004-11.4171,26.5967-4.7077,23.8688,6.0783,49.7665,26.4965,63.0579,4.0126,2.7179,8.2918,5.0572,12.7948,7.0554l-.0942,.2781c-4.8144-1.1673-9.4529-3.1577-13.7042-5.7776-21.5205-13.2121-32.9167-40.3908-27.6162-65.0328,1.9959-9.7352,6.2706-19.2641,13.3125-26.363l.2278,.1853h0Z" fill="#27474f"/><path d="M708.2574,303.3618c-3.5569,5.1973-6.8996,10.8964-9.4712,16.6531-16.5457,35.2912-3.6696,79.9077,29.0947,101.0003,5.3124,3.5803,11.0077,6.5051,16.8927,9.0399l-.0943,.2782c-6.2684-1.709-12.2652-4.3608-17.8022-7.7622-27.9817-17.3462-42.7981-52.6874-35.9614-84.837,2.2239-11.1864,6.8264-21.9322,13.926-30.8903,1.0513-1.2381,2.104-2.4701,3.1878-3.6673l.2278,.1853h0Z" fill="#27474f"/><path d="M632.9624,312.7024c-38.2244,51.3283-25.0435,123.1993,30.5245,155.7647,3.1702,1.9214,7.644,4.1516,11.0068,5.7553l5.7322,2.4614-.0943,.2781c-6.0413-1.7478-11.8703-4.1534-17.4486-7.0645-39.4134-21.0382-61.0646-69.0857-51.8182-112.6374,2.4674-12.3764,7.1507-24.3287,14.1537-34.8402,2.3455-3.4763,4.9365-6.7737,7.7161-9.9027l.2278,.1852h0Z" fill="#27474f"/><path d="M550.782,317.1798c-50.5772,65.556-32.4256,162.1565,39.7191,203.3743,4.1289,2.4583,10.0353,5.3713,14.4247,7.4117l7.5115,3.1285-.0942,.2781c-88.9732-26.9354-122.9912-145.1499-61.5612-214.1926h0Z" fill="#27474f"/><path d="M465.1425,326.2993c-59.3279,77.5759-41.0794,187.9584,41.4239,240.7792,7.5211,4.7374,15.5305,8.979,23.6323,12.6314l9.0511,3.7058-.0943,.2781c-91.8479-28.0613-137.2403-139.1098-95.6749-224.7371,1.1972-2.6582,3.2001-6.1442,4.503-8.7562,3.1717-5.612,6.9358-11.2704,10.7359-16.4704,2.0427-2.5622,4.1096-5.102,6.1951-7.616l.2278,.1853h0Z" fill="#27474f"/><path d="M869.4248,284.9309c-2.0154,4.025-3.9751,7.9207-4.7564,12.3325-1.5641,8.6055,1.0768,17.7989,6.9815,24.2547,3.0159,3.3024,6.7191,5.6279,10.5978,7.9023l-.0942,.2781c-2.3104-.301-4.538-1.1472-6.5669-2.3212-10.2236-6.0716-15.6466-18.9566-13.0416-30.5327,.9817-4.5449,2.9587-9.131,6.6519-12.0989l.2278,.1853h0Z" fill="#27474f"/><path d="M903.2804,279.7102c-.9949,2.753-2.2481,5.1412-2.7235,7.9789-1.1898,6.8152,1.8004,14.0579,7.4734,18.0284,1.1041,.8496,2.2573,1.6449,3.4793,2.544l-.0943,.2781c-3.1369-.0874-5.8836-1.9346-8.0255-4.1057-4.4086-4.3843-6.3538-11.1027-4.9563-17.1637,.6731-2.9715,1.9567-6.044,4.6191-7.7454l.2278,.1853h0Z" fill="#27474f"/></g><g><path d="M231.751,186.5444l5.5781,13.9219,5.5781-13.9219h2.918v17.0625h-2.25v-6.6445l.2109-7.1719-5.6016,13.8164h-1.7227l-5.5898-13.7812,.2227,7.1367v6.6445h-2.25v-17.0625h2.9062Z"/><path d="M254.7197,203.8413c-1.7188,0-3.1172-.5645-4.1953-1.6934s-1.6172-2.6387-1.6172-4.5293v-.3984c0-1.2578,.2402-2.3809,.7207-3.3691s1.1523-1.7617,2.0156-2.3203,1.7988-.8379,2.8066-.8379c1.6484,0,2.9297,.543,3.8438,1.6289s1.3711,2.6406,1.3711,4.6641v.9023h-8.5898c.0312,1.25,.3965,2.2598,1.0957,3.0293s1.5879,1.1543,2.666,1.1543c.7656,0,1.4141-.1562,1.9453-.4688s.9961-.7266,1.3945-1.2422l1.3242,1.0312c-1.0625,1.6328-2.6562,2.4492-4.7812,2.4492Zm-.2695-11.3672c-.875,0-1.6094,.3184-2.2031,.9551s-.9609,1.5293-1.1016,2.6777h6.3516v-.1641c-.0625-1.1016-.3594-1.9551-.8906-2.5605s-1.25-.9082-2.1562-.9082Z"/><path d="M264.5283,203.6069h-2.168v-18h2.168v18Z"/><path d="M267.4229,197.1499c0-1.2422,.2441-2.3594,.7324-3.3516s1.168-1.7578,2.0391-2.2969,1.8652-.8086,2.9824-.8086c1.7266,0,3.123,.5977,4.1895,1.793s1.5996,2.7852,1.5996,4.7695v.1523c0,1.2344-.2363,2.3418-.709,3.3223s-1.1484,1.7441-2.0273,2.291-1.8887,.8203-3.0293,.8203c-1.7188,0-3.1113-.5977-4.1777-1.793s-1.5996-2.7773-1.5996-4.7461v-.1523Zm2.1797,.2578c0,1.4062,.3262,2.5352,.9785,3.3867s1.5254,1.2773,2.6191,1.2773c1.1016,0,1.9766-.4316,2.625-1.2949s.9727-2.0723,.9727-3.627c0-1.3906-.3301-2.5176-.9902-3.3809s-1.5371-1.2949-2.6309-1.2949c-1.0703,0-1.9336,.4258-2.5898,1.2773s-.9844,2.0703-.9844,3.6562Z"/><path d="M283.7354,190.9272l.0703,1.5938c.9688-1.2188,2.2344-1.8281,3.7969-1.8281,2.6797,0,4.0312,1.5117,4.0547,4.5352v8.3789h-2.168v-8.3906c-.0078-.9141-.2168-1.5898-.627-2.0273s-1.0488-.6562-1.916-.6562c-.7031,0-1.3203,.1875-1.8516,.5625s-.9453,.8672-1.2422,1.4766v9.0352h-2.168v-12.6797h2.0508Z"/></g><line x1="93.2549" y1="213.168" x2="149.3904" y2="300.7395" fill="none" stroke="#000" stroke-miterlimit="10" stroke-width="2"/><line x1="262.7843" y1="214.2907" x2="230.1625" y2="305.3602" fill="none" stroke="#000" stroke-miterlimit="10" stroke-width="2"/><line x1="100.014" y1="552.6938" x2="134.7262" y2="460.4897" fill="none" stroke="#000" stroke-miterlimit="10" stroke-width="2"/><line x1="261.6424" y1="552.6938" x2="234.5235" y2="442.0489" fill="none" stroke="#000" stroke-miterlimit="10" stroke-width="2"/></g></g><g><path d="M367.1338,6.228v14.0479c0,2.334-.73,4.1797-2.1899,5.5371s-3.4546,2.0361-5.9839,2.0361c-2.4902,0-4.4678-.6592-5.9326-1.9775s-2.2119-3.1299-2.2412-5.4346V6.228h4.3945v14.0771c0,1.3965,.3345,2.4146,1.0034,3.0542s1.5942,.9595,2.7759,.9595c2.4707,0,3.7256-1.2988,3.7646-3.8965V6.228h4.4092Z"/><path d="M379.043,23.1763c0-.5176-.2563-.9253-.769-1.2231s-1.3354-.564-2.4683-.7983c-3.7695-.791-5.6543-2.3926-5.6543-4.8047,0-1.4062,.5835-2.5806,1.7505-3.5229s2.6929-1.4136,4.5776-1.4136c2.0117,0,3.6206,.4736,4.8267,1.4209s1.8091,2.1777,1.8091,3.6914h-4.2334c0-.6055-.1953-1.106-.5859-1.5015s-1.001-.5933-1.8311-.5933c-.7129,0-1.2646,.1611-1.6553,.4834s-.5859,.7324-.5859,1.2305c0,.4688,.2222,.8472,.6665,1.1353s1.1938,.5371,2.2485,.7471,1.9434,.4468,2.666,.7104c2.2363,.8203,3.3545,2.2412,3.3545,4.2627,0,1.4453-.6201,2.6147-1.8604,3.5083s-2.8418,1.3403-4.8047,1.3403c-1.3281,0-2.5073-.2368-3.5376-.7104s-1.8384-1.123-2.4243-1.9482-.8789-1.7163-.8789-2.6733h4.0137c.0391,.752,.3174,1.3281,.835,1.7285s1.2109,.6006,2.0801,.6006c.8105,0,1.4233-.1538,1.8384-.4614s.6226-.7104,.6226-1.2085Z"/><path d="M393.1787,27.8491c-2.3242,0-4.2163-.7129-5.6763-2.1387s-2.1899-3.3252-2.1899-5.6982v-.4102c0-1.5918,.3076-3.0151,.9229-4.27s1.4868-2.2217,2.6147-2.9004,2.4146-1.0181,3.8599-1.0181c2.168,0,3.8745,.6836,5.1196,2.0508s1.8677,3.3057,1.8677,5.8154v1.7285h-10.0928c.1367,1.0352,.5493,1.8652,1.2378,2.4902s1.5601,.9375,2.6147,.9375c1.6309,0,2.9053-.5908,3.8232-1.7725l2.0801,2.3291c-.6348,.8984-1.4941,1.5991-2.5781,2.1021s-2.2852,.7544-3.6035,.7544Zm-.4834-13.0225c-.8398,0-1.521,.2847-2.0435,.8535s-.8569,1.3833-1.0034,2.4424h5.8887v-.3384c-.0195-.9419-.2734-1.6699-.7617-2.1851s-1.1816-.7725-2.0801-.7725Z"/><path d="M408.9111,19.4849c0-1.5723,.3027-2.9736,.9082-4.2041s1.4771-2.1826,2.6147-2.8564,2.4585-1.0107,3.9624-1.0107c2.1387,0,3.8843,.6543,5.2368,1.9629s2.1069,3.0859,2.2632,5.332l.0293,1.084c0,2.4316-.6787,4.3823-2.0361,5.8521s-3.1787,2.2046-5.4639,2.2046-4.1089-.7324-5.4712-2.1973-2.0435-3.457-2.0435-5.9766v-.1904Zm4.2334,.3003c0,1.5063,.2832,2.6582,.8496,3.4551,.5664,.7974,1.377,1.1958,2.4316,1.1958,1.0254,0,1.8262-.3936,2.4023-1.1812,.5762-.7871,.8643-2.0464,.8643-3.7773,0-1.4771-.2881-2.6216-.8643-3.4331s-1.3867-1.2178-2.4316-1.2178c-1.0352,0-1.8359,.4033-2.4023,1.2104s-.8496,2.0562-.8496,3.748Z"/><path d="M427.6904,27.5562V14.812h-2.3584v-3.1055h2.3584v-1.3477c0-1.7773,.5103-3.1567,1.5308-4.1382s2.4487-1.4722,4.2847-1.4722c.5859,0,1.3037,.0977,2.1533,.293l-.0439,3.2812c-.3516-.0879-.7812-.1318-1.2891-.1318-1.5918,0-2.3877,.7471-2.3877,2.2412v1.2744h3.1494v3.1055h-3.1494v12.7441h-4.248Z"/><path d="M457.8662,18.313h-8.4375v5.7129h9.9023v3.5303h-14.2969V6.228h14.2676v3.5596h-9.873v5.083h8.4375v3.4424Z"/><path d="M467.9443,24.436c.7812,0,1.416-.2148,1.9043-.6445s.7422-1.001,.7617-1.7139h3.9697c-.0098,1.0742-.3027,2.0581-.8789,2.9517s-1.3647,1.5869-2.3657,2.0801-2.1069,.7397-3.3179,.7397c-2.2656,0-4.0527-.7202-5.3613-2.1606s-1.9629-3.4302-1.9629-5.9692v-.2783c0-2.4414,.6494-4.3896,1.9482-5.8447s3.0811-2.1826,5.3467-2.1826c1.9824,0,3.5718,.564,4.7681,1.6919s1.8042,2.6294,1.8237,4.5044h-3.9697c-.0195-.8242-.2734-1.4946-.7617-2.0103-.4883-.5151-1.1328-.7729-1.9336-.7729-.9863,0-1.731,.3594-2.2339,1.0781-.5029,.7192-.7544,1.8853-.7544,3.499v.4399c0,1.6338,.249,2.8076,.7471,3.5215s1.2549,1.0708,2.2705,1.0708Z"/><path d="M481.1279,13.4351c1.123-1.3477,2.5342-2.0215,4.2334-2.0215,3.4375,0,5.1807,1.9971,5.2295,5.9912v10.1514h-4.2334v-10.0342c0-.9082-.1953-1.5796-.5859-2.0142s-1.04-.6519-1.9482-.6519c-1.2402,0-2.1387,.4785-2.6953,1.4355v11.2646h-4.2334V5.0562h4.2334V13.4351Z"/><path d="M493.125,19.4849c0-1.5723,.3027-2.9736,.9082-4.2041s1.4771-2.1826,2.6147-2.8564,2.4585-1.0107,3.9629-1.0107c2.1387,0,3.8828,.6543,5.2363,1.9629,1.3516,1.3086,2.1074,3.0859,2.2637,5.332l.0293,1.084c0,2.4316-.6797,4.3823-2.0371,5.8521s-3.1777,2.2046-5.4629,2.2046-4.1094-.7324-5.4717-2.1973-2.0435-3.457-2.0435-5.9766v-.1904Zm4.2334,.3003c0,1.5063,.2832,2.6582,.8496,3.4551,.5664,.7974,1.377,1.1958,2.4321,1.1958,1.0254,0,1.8262-.3936,2.4023-1.1812,.5762-.7871,.8633-2.0464,.8633-3.7773,0-1.4771-.2871-2.6216-.8633-3.4331s-1.3867-1.2178-2.4316-1.2178c-1.0356,0-1.8364,.4033-2.4028,1.2104s-.8496,2.0562-.8496,3.748Z"/><path d="M515.2144,27.5562h-4.248V5.0562h4.248V27.5562Z"/><path d="M518.0425,19.4849c0-1.5723,.3027-2.9736,.9082-4.2041s1.4766-2.1826,2.6152-2.8564c1.1367-.6738,2.458-1.0107,3.9619-1.0107,2.1387,0,3.8838,.6543,5.2373,1.9629,1.3516,1.3086,2.1064,3.0859,2.2627,5.332l.0293,1.084c0,2.4316-.6787,4.3823-2.0361,5.8521s-3.1787,2.2046-5.4639,2.2046-4.1084-.7324-5.4717-2.1973c-1.3613-1.4648-2.043-3.457-2.043-5.9766v-.1904Zm4.2334,.3003c0,1.5063,.2832,2.6582,.8496,3.4551,.5664,.7974,1.377,1.1958,2.4316,1.1958,1.0254,0,1.8262-.3936,2.4023-1.1812,.5762-.7871,.8643-2.0464,.8643-3.7773,0-1.4771-.2881-2.6216-.8643-3.4331s-1.3867-1.2178-2.4316-1.2178c-1.0352,0-1.8359,.4033-2.4023,1.2104s-.8496,2.0562-.8496,3.748Z"/><path d="M542.2563,24.436c.7812,0,1.416-.2148,1.9043-.6445s.7422-1.001,.7617-1.7139h3.9697c-.0098,1.0742-.3027,2.0581-.8789,2.9517s-1.3652,1.5869-2.3652,2.0801c-1.002,.4932-2.1074,.7397-3.3184,.7397-2.2656,0-4.0527-.7202-5.3613-2.1606s-1.9629-3.4302-1.9629-5.9692v-.2783c0-2.4414,.6494-4.3896,1.9482-5.8447s3.0811-2.1826,5.3467-2.1826c1.9824,0,3.5713,.564,4.7676,1.6919s1.8047,2.6294,1.8242,4.5044h-3.9697c-.0195-.8242-.2734-1.4946-.7617-2.0103-.4883-.5151-1.1328-.7729-1.9336-.7729-.9863,0-1.7314,.3594-2.2334,1.0781-.5039,.7192-.7549,1.8853-.7549,3.499v.4399c0,1.6338,.249,2.8076,.7471,3.5215s1.2549,1.0708,2.2705,1.0708Z"/><path d="M560.4937,27.5562c-.1953-.3809-.3369-.8545-.4248-1.4209-1.0254,1.1426-2.3584,1.7139-3.999,1.7139-1.5527,0-2.8398-.4492-3.8594-1.3477-1.0215-.8984-1.5312-2.0312-1.5312-3.3984,0-1.6797,.623-2.9688,1.8672-3.8672,1.2461-.8984,3.0449-1.3525,5.3984-1.3623h1.9482v-.9082c0-.7324-.1885-1.3184-.5635-1.7578-.377-.4395-.9697-.6592-1.7803-.6592-.7129,0-1.2725,.1709-1.6768,.5127-.4062,.3418-.6084,.8105-.6084,1.4062h-4.2334c0-.918,.2832-1.7676,.8496-2.5488s1.3672-1.394,2.4023-1.8384,2.1973-.6665,3.4863-.6665c1.9531,0,3.5029,.4907,4.6504,1.4722s1.7217,2.3608,1.7217,4.1382v6.8701c.0098,1.5039,.2197,2.6416,.6299,3.4131v.249h-4.2773Zm-3.501-2.9443c.625,0,1.2012-.1392,1.7285-.4175s.918-.6519,1.1719-1.1206v-2.7246h-1.582c-2.1191,0-3.2471,.7324-3.3838,2.1973l-.0146,.249c0,.5273,.1855,.9619,.5566,1.3037s.8789,.5127,1.5234,.5127Z"/><path d="M572.4609,7.8101v3.8965h2.71v3.1055h-2.71v7.9102c0,.5859,.1123,1.0059,.3369,1.2598s.6543,.3809,1.2891,.3809c.4688,0,.8838-.0342,1.2451-.1025v3.208c-.8301,.2539-1.6846,.3809-2.5635,.3809-2.9683,0-4.4819-1.499-4.5405-4.4971V14.812h-2.3145v-3.1055h2.3145v-3.8965h4.2329Z"/><path d="M577.5,7.605c0-.6348,.2119-1.1572,.6377-1.5674,.4238-.4102,1.0029-.6152,1.7354-.6152,.7227,0,1.2988,.2051,1.7285,.6152s.6445,.9326,.6445,1.5674c0,.6445-.2178,1.1719-.6514,1.582-.4355,.4102-1.0088,.6152-1.7217,.6152s-1.2871-.2051-1.7217-.6152-.6514-.9375-.6514-1.582Zm4.4971,19.9512h-4.248V11.7065h4.248v15.8496Z"/><path d="M584.8232,19.4849c0-1.5723,.3027-2.9736,.9082-4.2041s1.4766-2.1826,2.6152-2.8564c1.1367-.6738,2.458-1.0107,3.9619-1.0107,2.1387,0,3.8838,.6543,5.2373,1.9629,1.3516,1.3086,2.1064,3.0859,2.2627,5.332l.0293,1.084c0,2.4316-.6787,4.3823-2.0361,5.8521s-3.1787,2.2046-5.4639,2.2046-4.1084-.7324-5.4717-2.1973c-1.3613-1.4648-2.043-3.457-2.043-5.9766v-.1904Zm4.2334,.3003c0,1.5063,.2832,2.6582,.8496,3.4551,.5664,.7974,1.377,1.1958,2.4316,1.1958,1.0254,0,1.8262-.3936,2.4023-1.1812,.5762-.7871,.8643-2.0464,.8643-3.7773,0-1.4771-.2881-2.6216-.8643-3.4331s-1.3867-1.2178-2.4316-1.2178c-1.0352,0-1.8359,.4033-2.4023,1.2104s-.8496,2.0562-.8496,3.748Z"/><path d="M606.3418,11.7065l.1318,1.8311c1.1328-1.416,2.6514-2.124,4.5557-2.124,1.6797,0,2.9297,.4932,3.75,1.4795s1.2402,2.4609,1.2598,4.4238v10.2393h-4.2334v-10.1367c0-.8984-.1953-1.5503-.5859-1.9556s-1.04-.6079-1.9482-.6079c-1.1914,0-2.085,.5078-2.6807,1.5234v11.1768h-4.2334V11.7065h3.9844Z"/><path d="M641.001,19.7778c0,2.5391-.542,4.519-1.626,5.9399s-2.5977,2.1313-4.541,2.1313c-1.7188,0-3.0908-.6592-4.1162-1.9775l-.1904,1.6846h-3.8086V5.0562h4.2334V13.1274c.9766-1.1426,2.2607-1.7139,3.8525-1.7139,1.9336,0,3.4502,.7104,4.5479,2.1313,1.0996,1.4209,1.6484,3.4204,1.6484,5.9985v.2344Zm-4.2334-.3076c0-1.6016-.2539-2.771-.7617-3.5083s-1.2646-1.106-2.2705-1.106c-1.3477,0-2.2754,.5518-2.7832,1.6553v6.2549c.5176,1.1133,1.4551,1.6699,2.8125,1.6699,1.3672,0,2.2656-.6738,2.6953-2.0215,.2051-.6445,.3076-1.626,.3076-2.9443Z"/><path d="M649.5254,21.5649l2.9297-9.8584h4.541l-6.3721,18.3105-.3516,.835c-.9473,2.0703-2.5098,3.1055-4.6875,3.1055-.6152,0-1.2402-.0928-1.875-.2783v-3.208l.6445,.0146c.8008,0,1.3984-.1221,1.7949-.3662,.3945-.2441,.7051-.6494,.9297-1.2158l.498-1.3037-5.5518-15.8936h4.5557l2.9443,9.8584Z"/><path d="M675.3213,27.5562c-.1953-.3809-.3369-.8545-.4248-1.4209-1.0254,1.1426-2.3584,1.7139-3.999,1.7139-1.5527,0-2.8398-.4492-3.8594-1.3477-1.0215-.8984-1.5312-2.0312-1.5312-3.3984,0-1.6797,.623-2.9688,1.8672-3.8672,1.2461-.8984,3.0449-1.3525,5.3984-1.3623h1.9482v-.9082c0-.7324-.1885-1.3184-.5635-1.7578-.377-.4395-.9697-.6592-1.7803-.6592-.7129,0-1.2725,.1709-1.6768,.5127-.4062,.3418-.6084,.8105-.6084,1.4062h-4.2334c0-.918,.2832-1.7676,.8496-2.5488s1.3672-1.394,2.4023-1.8384,2.1973-.6665,3.4863-.6665c1.9531,0,3.5029,.4907,4.6504,1.4722s1.7217,2.3608,1.7217,4.1382v6.8701c.0098,1.5039,.2197,2.6416,.6299,3.4131v.249h-4.2773Zm-3.501-2.9443c.625,0,1.2012-.1392,1.7285-.4175s.918-.6519,1.1719-1.1206v-2.7246h-1.582c-2.1191,0-3.2471,.7324-3.3838,2.1973l-.0146,.249c0,.5273,.1855,.9619,.5566,1.3037s.8789,.5127,1.5234,.5127Z"/><path d="M689.9697,27.5562V6.228h6.5625c1.875,0,3.5527,.4224,5.0312,1.2671,1.4805,.8447,2.6348,2.0459,3.4648,3.6035s1.2451,3.3276,1.2451,5.3101v.9814c0,1.9824-.4082,3.7451-1.2236,5.2881s-1.9648,2.7393-3.4492,3.5889-3.1592,1.2793-5.0244,1.2891h-6.6064Zm4.3945-17.7686v14.2383h2.124c1.7188,0,3.0322-.5615,3.9404-1.6846s1.3721-2.7295,1.3916-4.8193v-1.1279c0-2.168-.4492-3.811-1.3477-4.9292s-2.2119-1.6772-3.9404-1.6772h-2.168Z"/><path d="M708.5303,19.4849c0-1.5723,.3027-2.9736,.9082-4.2041s1.4766-2.1826,2.6152-2.8564c1.1367-.6738,2.458-1.0107,3.9619-1.0107,2.1387,0,3.8838,.6543,5.2373,1.9629,1.3516,1.3086,2.1064,3.0859,2.2627,5.332l.0293,1.084c0,2.4316-.6787,4.3823-2.0361,5.8521s-3.1787,2.2046-5.4639,2.2046-4.1084-.7324-5.4717-2.1973c-1.3613-1.4648-2.043-3.457-2.043-5.9766v-.1904Zm4.2334,.3003c0,1.5063,.2832,2.6582,.8496,3.4551,.5664,.7974,1.377,1.1958,2.4316,1.1958,1.0254,0,1.8262-.3936,2.4023-1.1812,.5762-.7871,.8643-2.0464,.8643-3.7773,0-1.4771-.2881-2.6216-.8643-3.4331s-1.3867-1.2178-2.4316-1.2178c-1.0352,0-1.8359,.4033-2.4023,1.2104s-.8496,2.0562-.8496,3.748Z"/><path d="M730.6201,27.5562h-4.248V5.0562h4.248V27.5562Z"/><path d="M748.373,19.7778c0,2.4414-.5547,4.397-1.6631,5.8667s-2.6045,2.2046-4.4893,2.2046c-1.6016,0-2.8955-.5566-3.8818-1.6699v7.4707h-4.2334V11.7065h3.9258l.1465,1.5527c1.0254-1.2305,2.3633-1.8457,4.0137-1.8457,1.9531,0,3.4717,.7227,4.5557,2.168s1.626,3.4375,1.626,5.9766v.2197Zm-4.2334-.3076c0-1.4746-.2617-2.6123-.7832-3.4131-.5234-.8008-1.2822-1.2012-2.2783-1.2012-1.3281,0-2.2412,.5078-2.7393,1.5234v6.4893c.5176,1.0449,1.4404,1.5674,2.7686,1.5674,2.0215,0,3.0322-1.6553,3.0322-4.9658Z"/><path d="M755.127,13.4351c1.123-1.3477,2.5342-2.0215,4.2334-2.0215,3.4375,0,5.1807,1.9971,5.2295,5.9912v10.1514h-4.2334v-10.0342c0-.9082-.1953-1.5796-.5859-2.0142s-1.04-.6519-1.9482-.6519c-1.2402,0-2.1387,.4785-2.6953,1.4355v11.2646h-4.2334V5.0562h4.2334V13.4351Z"/><path d="M767.7539,7.605c0-.6348,.2119-1.1572,.6377-1.5674,.4238-.4102,1.0029-.6152,1.7354-.6152,.7227,0,1.2988,.2051,1.7285,.6152s.6445,.9326,.6445,1.5674c0,.6445-.2178,1.1719-.6514,1.582-.4355,.4102-1.0088,.6152-1.7217,.6152s-1.2871-.2051-1.7217-.6152-.6514-.9375-.6514-1.582Zm4.4971,19.9512h-4.248V11.7065h4.248v15.8496Z"/><path d="M779.6328,11.7065l.1318,1.8311c1.1328-1.416,2.6514-2.124,4.5557-2.124,1.6797,0,2.9297,.4932,3.75,1.4795s1.2402,2.4609,1.2598,4.4238v10.2393h-4.2334v-10.1367c0-.8984-.1953-1.5503-.5859-1.9556s-1.04-.6079-1.9482-.6079c-1.1914,0-2.085,.5078-2.6807,1.5234v11.1768h-4.2334V11.7065h3.9844Z"/></g></svg>