<svg xmlns="http://www.w3.org/2000/svg" width="1140" height="730" viewBox="0 0 1140 730"><defs><style>.a{fill:#f5e5da;}.b,.c,.d,.e{fill:none;stroke:#000;stroke-miterlimit:10;stroke-width:2px;}.b,.c,.d{stroke-linecap:round;}.c{stroke-dasharray:6 8.054;}.d{stroke-dasharray:7 8.045;}</style></defs><path class="a" d="M1132,366.344c-15.815-128.564,24.546-287.506-143.519-342.2-80.157-26.087-172-5.19-363.346-5.19-198.78,0-363.534-19.85-451.548,6.806C-48.631,93.059,13.563,283.707,13.563,420.505c0,98.374,51.3,209.854,175,259.153,116.445,46.409,309.474,36.5,415.262,36.5C821.985,716.157,1177.545,736.6,1132,366.344Z"/><line class="b" x1="362.523" y1="268.045" x2="366.523" y2="268.031"/><line class="c" x1="367.456" y1="268.406" x2="440.042" y2="267.018"/><line class="b" x1="793.359" y1="266.603" x2="797.359" y2="266.589"/><line class="b" x1="797.532" y1="266.589" x2="999.434" y2="266.589"/><line class="b" x1="528.679" y1="453.956" x2="136.434" y2="454.346"/><line class="b" x1="429.558" y1="207.972" x2="367.457" y2="207.972"/><polygon points="427.223 199.994 441.04 207.972 427.223 215.95 427.223 199.994"/><line class="b" x1="788.624" y1="207.972" x2="726.524" y2="207.972"/><polygon points="728.858 199.994 715.042 207.972 728.858 215.95 728.858 199.994"/><line class="b" x1="138.434" y1="267.847" x2="364.469" y2="268.038"/><line class="b" x1="777.317" y1="550.538" x2="715.217" y2="550.538"/><polygon points="774.983 542.56 788.799 550.538 774.983 558.516 774.983 542.56"/><line class="b" x1="434.976" y1="550.538" x2="372.875" y2="550.538"/><polygon points="375.21 542.56 361.393 550.538 375.21 558.516 375.21 542.56"/><line class="b" x1="995.093" y1="453.571" x2="615.106" y2="453.961"/><line class="b" x1="528.679" y1="453.957" x2="532.679" y2="453.957"/><line class="d" x1="533.391" y1="453.957" x2="614.389" y2="453.956"/><path d="M386.691,319.113a10.564,10.564,0,0,1-4.213-2.045,3.9,3.9,0,0,1-1.318-2.994,4.127,4.127,0,0,1,1.611-3.334,6.4,6.4,0,0,1,4.189-1.318,6.979,6.979,0,0,1,3.135.68,5.154,5.154,0,0,1,2.133,1.875,4.792,4.792,0,0,1,.756,2.613h-2.262a3.122,3.122,0,0,0-.984-2.441,4.007,4.007,0,0,0-2.778-.887,4.1,4.1,0,0,0-2.595.733,2.448,2.448,0,0,0-.932,2.037,2.2,2.2,0,0,0,.885,1.767,8.684,8.684,0,0,0,3.012,1.321,13.99,13.99,0,0,1,3.328,1.319,5.061,5.061,0,0,1,1.781,1.682,4.292,4.292,0,0,1,.58,2.262,3.986,3.986,0,0,1-1.617,3.322,6.9,6.9,0,0,1-4.324,1.248,8.012,8.012,0,0,1-3.282-.674,5.524,5.524,0,0,1-2.349-1.845,4.505,4.505,0,0,1-.826-2.661h2.261a2.939,2.939,0,0,0,1.143,2.444,4.815,4.815,0,0,0,3.053.9,4.425,4.425,0,0,0,2.73-.726,2.361,2.361,0,0,0,.949-1.981,2.316,2.316,0,0,0-.879-1.939A10.146,10.146,0,0,0,386.691,319.113Z"/><path d="M403.39,325.465a4.606,4.606,0,0,1-3.715,1.488,3.94,3.94,0,0,1-3.088-1.178,5.1,5.1,0,0,1-1.072-3.486v-8.25h2.168v8.191q0,2.883,2.344,2.883a3.246,3.246,0,0,0,3.305-1.851v-9.223H405.5v12.68h-2.063Z"/><path d="M419.5,320.52a7.593,7.593,0,0,1-1.324,4.664,4.246,4.246,0,0,1-3.586,1.769,4.649,4.649,0,0,1-3.633-1.465v6.106h-2.168V314.039h1.981l.1,1.406a4.469,4.469,0,0,1,3.68-1.64,4.322,4.322,0,0,1,3.615,1.722,7.674,7.674,0,0,1,1.33,4.793Zm-2.168-.247a5.6,5.6,0,0,0-.914-3.386,2.943,2.943,0,0,0-2.507-1.242,3.189,3.189,0,0,0-2.954,1.746v6.058a3.2,3.2,0,0,0,2.977,1.735,2.934,2.934,0,0,0,2.479-1.237A6.118,6.118,0,0,0,417.335,320.273Z"/><path d="M427.519,326.953a5.538,5.538,0,0,1-4.195-1.693,6.287,6.287,0,0,1-1.617-4.53v-.4a7.613,7.613,0,0,1,.72-3.369,5.626,5.626,0,0,1,2.016-2.32,5.065,5.065,0,0,1,2.807-.838,4.748,4.748,0,0,1,3.843,1.629,7.052,7.052,0,0,1,1.371,4.664v.9h-8.589a4.5,4.5,0,0,0,1.1,3.029,3.443,3.443,0,0,0,2.666,1.155,3.784,3.784,0,0,0,1.946-.469,4.9,4.9,0,0,0,1.394-1.242L432.3,324.5A5.323,5.323,0,0,1,427.519,326.953Zm-.269-11.367a2.893,2.893,0,0,0-2.2.955,4.643,4.643,0,0,0-1.1,2.678H430.3v-.164a4.129,4.129,0,0,0-.89-2.561A2.723,2.723,0,0,0,427.25,315.586Z"/><path d="M441.1,315.984a6.574,6.574,0,0,0-1.066-.082,2.858,2.858,0,0,0-2.9,1.817v9h-2.168v-12.68h2.11l.035,1.465a3.374,3.374,0,0,1,3.023-1.7,2.206,2.206,0,0,1,.961.164Z"/><path d="M447.957,325.184a3.122,3.122,0,0,0,2.027-.7,2.473,2.473,0,0,0,.961-1.757H453a3.931,3.931,0,0,1-.75,2.074,4.941,4.941,0,0,1-1.846,1.57,5.322,5.322,0,0,1-2.443.586,5.226,5.226,0,0,1-4.12-1.728,6.889,6.889,0,0,1-1.529-4.729v-.363a7.634,7.634,0,0,1,.68-3.293,5.171,5.171,0,0,1,1.951-2.238,5.538,5.538,0,0,1,3.006-.8,5.084,5.084,0,0,1,3.545,1.277A4.569,4.569,0,0,1,453,318.4h-2.051a2.987,2.987,0,0,0-.932-2.021,2.9,2.9,0,0,0-2.068-.791,3.035,3.035,0,0,0-2.561,1.189,5.591,5.591,0,0,0-.908,3.44v.41a5.478,5.478,0,0,0,.9,3.375A3.051,3.051,0,0,0,447.957,325.184Z"/><path d="M461.562,315.984a6.574,6.574,0,0,0-1.066-.082,2.858,2.858,0,0,0-2.895,1.817v9h-2.168v-12.68h2.109l.036,1.465a3.374,3.374,0,0,1,3.023-1.7,2.206,2.206,0,0,1,.961.164Z"/><path d="M468.593,326.953a5.54,5.54,0,0,1-4.195-1.693,6.287,6.287,0,0,1-1.617-4.53v-.4a7.613,7.613,0,0,1,.72-3.369,5.626,5.626,0,0,1,2.016-2.32,5.065,5.065,0,0,1,2.807-.838,4.748,4.748,0,0,1,3.843,1.629,7.046,7.046,0,0,1,1.372,4.664v.9h-8.59a4.5,4.5,0,0,0,1.095,3.029,3.444,3.444,0,0,0,2.666,1.155,3.782,3.782,0,0,0,1.946-.469,4.9,4.9,0,0,0,1.394-1.242l1.325,1.031A5.326,5.326,0,0,1,468.593,326.953Zm-.269-11.367a2.889,2.889,0,0,0-2.2.955,4.643,4.643,0,0,0-1.1,2.678h6.352v-.164a4.135,4.135,0,0,0-.891-2.561A2.723,2.723,0,0,0,468.324,315.586Z"/><path d="M483.429,323.355a1.6,1.6,0,0,0-.662-1.365,6.386,6.386,0,0,0-2.309-.838,10.921,10.921,0,0,1-2.613-.843,3.724,3.724,0,0,1-1.429-1.172,2.8,2.8,0,0,1-.463-1.617,3.288,3.288,0,0,1,1.318-2.637,5.147,5.147,0,0,1,3.369-1.078,5.3,5.3,0,0,1,3.5,1.113,3.534,3.534,0,0,1,1.342,2.848H483.3a1.959,1.959,0,0,0-.756-1.536,2.832,2.832,0,0,0-1.9-.644,2.96,2.96,0,0,0-1.851.516,1.62,1.62,0,0,0-.668,1.347,1.316,1.316,0,0,0,.621,1.184,7.682,7.682,0,0,0,2.244.762,11.685,11.685,0,0,1,2.631.867,3.832,3.832,0,0,1,1.494,1.213,2.98,2.98,0,0,1,.486,1.728,3.246,3.246,0,0,1-1.359,2.725,5.706,5.706,0,0,1-3.528,1.025,6.39,6.39,0,0,1-2.695-.539,4.383,4.383,0,0,1-1.834-1.506,3.632,3.632,0,0,1-.662-2.092h2.168a2.245,2.245,0,0,0,.873,1.729,3.386,3.386,0,0,0,2.15.639,3.5,3.5,0,0,0,1.975-.5A1.531,1.531,0,0,0,483.429,323.355Z"/><path d="M491.363,310.969v3.07h2.367v1.676h-2.367v7.873a1.753,1.753,0,0,0,.316,1.143,1.33,1.33,0,0,0,1.078.382,5.308,5.308,0,0,0,1.032-.14v1.747a6.338,6.338,0,0,1-1.664.233,2.7,2.7,0,0,1-2.192-.879,3.777,3.777,0,0,1-.738-2.5v-7.863h-2.309v-1.676H489.2v-3.07Z"/><path d="M201.078,103.378a7.55,7.55,0,0,1-2.542,5.42,8.926,8.926,0,0,1-6.042,1.977,8.025,8.025,0,0,1-6.453-2.761,11.324,11.324,0,0,1-2.351-7.58v-1.3a12.778,12.778,0,0,1,1.084-5.42,8.121,8.121,0,0,1,3.1-3.6,9.68,9.68,0,0,1,10.628.725,8.112,8.112,0,0,1,2.607,5.552h-4.4a4.449,4.449,0,0,0-1.15-3,4.257,4.257,0,0,0-3.01-.93,3.732,3.732,0,0,0-3.288,1.575,8.822,8.822,0,0,0-1.121,4.885v1.611a9.45,9.45,0,0,0,1.047,5.054,3.668,3.668,0,0,0,3.3,1.6,4.338,4.338,0,0,0,3.039-.931,4.2,4.2,0,0,0,1.15-2.878Z"/><path d="M203.026,102.411a9.408,9.408,0,0,1,.908-4.2,6.647,6.647,0,0,1,2.615-2.856,7.626,7.626,0,0,1,3.962-1.011,7.215,7.215,0,0,1,5.237,1.963,7.873,7.873,0,0,1,2.263,5.332l.03,1.084A8.283,8.283,0,0,1,216,108.571a7.893,7.893,0,0,1-10.935.007,8.431,8.431,0,0,1-2.043-5.976Zm4.233.3a5.922,5.922,0,0,0,.85,3.456,3.053,3.053,0,0,0,4.834.014,6.481,6.481,0,0,0,.864-3.777,5.865,5.865,0,0,0-.864-3.433,2.809,2.809,0,0,0-2.432-1.218,2.762,2.762,0,0,0-2.4,1.21A6.59,6.59,0,0,0,207.259,102.711Z"/><path d="M224.544,94.633l.132,1.831a5.535,5.535,0,0,1,4.556-2.124,4.6,4.6,0,0,1,3.75,1.479,6.909,6.909,0,0,1,1.26,4.424v10.239h-4.234V100.346a2.744,2.744,0,0,0-.586-1.956,2.623,2.623,0,0,0-1.948-.608,2.913,2.913,0,0,0-2.681,1.524v11.176H220.56V94.633Z"/><path d="M246.034,106.1a1.366,1.366,0,0,0-.769-1.224,8.761,8.761,0,0,0-2.469-.8q-5.654-1.186-5.654-4.805a4.357,4.357,0,0,1,1.751-3.523,7.061,7.061,0,0,1,4.577-1.413,7.6,7.6,0,0,1,4.827,1.421,4.477,4.477,0,0,1,1.809,3.691h-4.233a2.05,2.05,0,0,0-.586-1.5,2.478,2.478,0,0,0-1.831-.594,2.538,2.538,0,0,0-1.656.484,1.527,1.527,0,0,0-.586,1.23,1.308,1.308,0,0,0,.667,1.136,6.859,6.859,0,0,0,2.248.747,18.3,18.3,0,0,1,2.666.71q3.356,1.23,3.355,4.263a4.134,4.134,0,0,1-1.86,3.508,8.024,8.024,0,0,1-4.8,1.34,8.381,8.381,0,0,1-3.538-.71,5.941,5.941,0,0,1-2.424-1.948,4.528,4.528,0,0,1-.879-2.674h4.014a2.21,2.21,0,0,0,.835,1.729,3.313,3.313,0,0,0,2.08.6,3.062,3.062,0,0,0,1.838-.461A1.436,1.436,0,0,0,246.034,106.1Z"/><path d="M257.943,90.736v3.9h2.71v3.105h-2.71v7.91a1.887,1.887,0,0,0,.337,1.26,1.69,1.69,0,0,0,1.289.381,6.78,6.78,0,0,0,1.245-.1V110.4a8.747,8.747,0,0,1-2.564.38q-4.452,0-4.541-4.5v-8.54H251.4V94.633h2.314v-3.9Z"/><path d="M271.917,98.6a11.365,11.365,0,0,0-1.523-.118q-2.4,0-3.149,1.626v10.371h-4.234V94.633h4l.117,1.889a3.923,3.923,0,0,1,3.531-2.182,4.435,4.435,0,0,1,1.318.19Z"/><path d="M283.446,108.871a5.307,5.307,0,0,1-4.336,1.9,5.008,5.008,0,0,1-3.889-1.464,6.256,6.256,0,0,1-1.37-4.292V94.633h4.233v10.251q0,2.478,2.256,2.478a3.055,3.055,0,0,0,2.959-1.5V94.633h4.248v15.849h-3.984Z"/><path d="M297.333,107.362a2.779,2.779,0,0,0,1.9-.644A2.262,2.262,0,0,0,300,105h3.969a5.428,5.428,0,0,1-.879,2.952,5.806,5.806,0,0,1-2.365,2.08,7.406,7.406,0,0,1-3.318.739,6.883,6.883,0,0,1-5.362-2.16,8.553,8.553,0,0,1-1.962-5.969v-.279a8.454,8.454,0,0,1,1.948-5.845,6.8,6.8,0,0,1,5.346-2.182,6.669,6.669,0,0,1,4.769,1.692,5.988,5.988,0,0,1,1.823,4.5H300a2.915,2.915,0,0,0-.762-2.01,2.832,2.832,0,0,0-4.168.305,6.249,6.249,0,0,0-.754,3.5v.44a6.331,6.331,0,0,0,.747,3.522A2.584,2.584,0,0,0,297.333,107.362Z"/><path d="M311.454,90.736v3.9h2.71v3.105h-2.71v7.91a1.887,1.887,0,0,0,.337,1.26,1.69,1.69,0,0,0,1.289.381,6.8,6.8,0,0,0,1.245-.1V110.4a8.747,8.747,0,0,1-2.564.38q-4.454,0-4.541-4.5v-8.54h-2.314V94.633h2.314v-3.9Z"/><path d="M316.493,90.531a2.082,2.082,0,0,1,.637-1.567,2.746,2.746,0,0,1,3.464,0,2.236,2.236,0,0,1-.007,3.149,2.712,2.712,0,0,1-3.442,0A2.076,2.076,0,0,1,316.493,90.531Zm4.5,19.951h-4.248V94.633h4.248Z"/><path d="M330.409,105.312l2.944-10.679h4.424l-5.347,15.849h-4.043l-5.346-15.849h4.423Z"/><path d="M346.742,110.775a7.784,7.784,0,0,1-5.677-2.138,7.6,7.6,0,0,1-2.19-5.7v-.41a9.58,9.58,0,0,1,.923-4.27,6.778,6.778,0,0,1,2.615-2.9,7.338,7.338,0,0,1,3.86-1.018,6.577,6.577,0,0,1,5.12,2.051,8.332,8.332,0,0,1,1.867,5.815v1.729H343.167a3.936,3.936,0,0,0,1.238,2.49,3.742,3.742,0,0,0,2.615.937,4.57,4.57,0,0,0,3.823-1.772l2.08,2.329a6.354,6.354,0,0,1-2.578,2.1A8.456,8.456,0,0,1,346.742,110.775Zm-.484-13.022a2.646,2.646,0,0,0-2.043.853,4.422,4.422,0,0,0-1,2.443H349.1v-.339a3.149,3.149,0,0,0-.762-2.185A2.728,2.728,0,0,0,346.258,97.753Z"/><path d="M368.084,110.482H363.69V89.154h4.394Z"/><path d="M375.775,94.633l.132,1.831a5.533,5.533,0,0,1,4.555-2.124,4.6,4.6,0,0,1,3.75,1.479,6.9,6.9,0,0,1,1.26,4.424v10.239h-4.233V100.346a2.749,2.749,0,0,0-.586-1.956,2.624,2.624,0,0,0-1.948-.608,2.912,2.912,0,0,0-2.681,1.524v11.176h-4.233V94.633Z"/><path d="M393.749,90.736v3.9h2.709v3.105h-2.709v7.91a1.893,1.893,0,0,0,.336,1.26,1.694,1.694,0,0,0,1.29.381,6.8,6.8,0,0,0,1.245-.1V110.4a8.747,8.747,0,0,1-2.564.38q-4.454,0-4.541-4.5v-8.54H387.2V94.633h2.314v-3.9Z"/><path d="M406.112,110.775a7.783,7.783,0,0,1-5.676-2.138,7.6,7.6,0,0,1-2.19-5.7v-.41a9.58,9.58,0,0,1,.922-4.27,6.778,6.778,0,0,1,2.615-2.9,7.338,7.338,0,0,1,3.86-1.018,6.576,6.576,0,0,1,5.12,2.051,8.332,8.332,0,0,1,1.867,5.815v1.729H402.538a3.93,3.93,0,0,0,1.237,2.49,3.742,3.742,0,0,0,2.615.937,4.57,4.57,0,0,0,3.823-1.772l2.08,2.329a6.354,6.354,0,0,1-2.578,2.1A8.456,8.456,0,0,1,406.112,110.775Zm-.484-13.022a2.648,2.648,0,0,0-2.043.853,4.415,4.415,0,0,0-1,2.443h5.888v-.339a3.149,3.149,0,0,0-.762-2.185A2.728,2.728,0,0,0,405.628,97.753Z"/><path d="M423.939,98.6a11.365,11.365,0,0,0-1.523-.118q-2.4,0-3.15,1.626v10.371h-4.233V94.633h4l.117,1.889a3.922,3.922,0,0,1,3.53-2.182,4.441,4.441,0,0,1,1.319.19Z"/><path d="M427.425,110.482V97.738h-2.358V94.633h2.358V93.285a5.473,5.473,0,0,1,1.531-4.138,5.932,5.932,0,0,1,4.285-1.472,9.854,9.854,0,0,1,2.153.293l-.044,3.281a5.386,5.386,0,0,0-1.289-.132q-2.388,0-2.388,2.241v1.275h3.15v3.105h-3.15v12.744Z"/><path d="M443.963,110.775a7.783,7.783,0,0,1-5.676-2.138,7.6,7.6,0,0,1-2.19-5.7v-.41a9.58,9.58,0,0,1,.923-4.27,6.771,6.771,0,0,1,2.615-2.9,7.335,7.335,0,0,1,3.86-1.018,6.574,6.574,0,0,1,5.119,2.051,8.332,8.332,0,0,1,1.868,5.815v1.729H440.389a3.932,3.932,0,0,0,1.238,2.49,3.741,3.741,0,0,0,2.615.937,4.57,4.57,0,0,0,3.823-1.772l2.08,2.329a6.36,6.36,0,0,1-2.578,2.1A8.457,8.457,0,0,1,443.963,110.775Zm-.483-13.022a2.646,2.646,0,0,0-2.043.853,4.422,4.422,0,0,0-1,2.443h5.889v-.339a3.159,3.159,0,0,0-.762-2.185A2.729,2.729,0,0,0,443.48,97.753Z"/><path d="M461.791,98.6a11.379,11.379,0,0,0-1.524-.118q-2.4,0-3.149,1.626v10.371h-4.234V94.633h4L457,96.522a3.923,3.923,0,0,1,3.531-2.182,4.43,4.43,0,0,1,1.318.19Z"/><path d="M470.843,110.775a7.783,7.783,0,0,1-5.676-2.138,7.6,7.6,0,0,1-2.19-5.7v-.41a9.58,9.58,0,0,1,.923-4.27,6.771,6.771,0,0,1,2.615-2.9,7.335,7.335,0,0,1,3.86-1.018,6.575,6.575,0,0,1,5.119,2.051,8.332,8.332,0,0,1,1.868,5.815v1.729H467.269a3.932,3.932,0,0,0,1.238,2.49,3.741,3.741,0,0,0,2.615.937,4.571,4.571,0,0,0,3.823-1.772l2.08,2.329a6.36,6.36,0,0,1-2.578,2.1A8.457,8.457,0,0,1,470.843,110.775Zm-.483-13.022a2.65,2.65,0,0,0-2.044.853,4.422,4.422,0,0,0-1,2.443H473.2v-.339a3.159,3.159,0,0,0-.762-2.185A2.729,2.729,0,0,0,470.36,97.753Z"/><path d="M483.661,94.633l.131,1.831a5.535,5.535,0,0,1,4.556-2.124,4.6,4.6,0,0,1,3.75,1.479,6.909,6.909,0,0,1,1.26,4.424v10.239h-4.233V100.346a2.749,2.749,0,0,0-.586-1.956,2.625,2.625,0,0,0-1.949-.608,2.911,2.911,0,0,0-2.68,1.524v11.176h-4.234V94.633Z"/><path d="M503.158,107.362a2.779,2.779,0,0,0,1.9-.644,2.262,2.262,0,0,0,.762-1.714h3.969a5.427,5.427,0,0,1-.878,2.952,5.815,5.815,0,0,1-2.366,2.08,7.406,7.406,0,0,1-3.318.739,6.88,6.88,0,0,1-5.361-2.16,8.549,8.549,0,0,1-1.963-5.969v-.279a8.454,8.454,0,0,1,1.948-5.845A6.8,6.8,0,0,1,503.2,94.34a6.668,6.668,0,0,1,4.768,1.692,5.988,5.988,0,0,1,1.823,4.5h-3.969a2.915,2.915,0,0,0-.762-2.01,2.831,2.831,0,0,0-4.167.305,6.248,6.248,0,0,0-.755,3.5v.44a6.331,6.331,0,0,0,.747,3.522A2.584,2.584,0,0,0,503.158,107.362Z"/><path d="M519.505,110.775a7.783,7.783,0,0,1-5.676-2.138,7.6,7.6,0,0,1-2.19-5.7v-.41a9.58,9.58,0,0,1,.923-4.27,6.771,6.771,0,0,1,2.615-2.9,7.335,7.335,0,0,1,3.86-1.018,6.574,6.574,0,0,1,5.119,2.051,8.332,8.332,0,0,1,1.868,5.815v1.729H515.931a3.932,3.932,0,0,0,1.238,2.49,3.741,3.741,0,0,0,2.615.937,4.57,4.57,0,0,0,3.823-1.772l2.08,2.329a6.36,6.36,0,0,1-2.578,2.1A8.457,8.457,0,0,1,519.505,110.775Zm-.483-13.022a2.646,2.646,0,0,0-2.043.853,4.422,4.422,0,0,0-1,2.443h5.889v-.339a3.159,3.159,0,0,0-.762-2.185A2.729,2.729,0,0,0,519.022,97.753Z"/><path d="M553.534,110.482h-4.395v-9.14H540.57v9.14h-4.4V89.154h4.4V97.8h8.569V89.154h4.395Z"/><path d="M566.278,110.482a4.7,4.7,0,0,1-.425-1.42,5.122,5.122,0,0,1-4,1.713,5.63,5.63,0,0,1-3.86-1.347,4.338,4.338,0,0,1-1.531-3.4,4.481,4.481,0,0,1,1.868-3.867,9.22,9.22,0,0,1,5.4-1.362h1.948v-.908a2.61,2.61,0,0,0-.564-1.758,2.217,2.217,0,0,0-1.78-.659,2.529,2.529,0,0,0-1.677.512,1.744,1.744,0,0,0-.608,1.407h-4.233a4.249,4.249,0,0,1,.85-2.549,5.614,5.614,0,0,1,2.4-1.839,8.759,8.759,0,0,1,3.486-.666,6.919,6.919,0,0,1,4.651,1.472,5.148,5.148,0,0,1,1.721,4.138v6.87a7.58,7.58,0,0,0,.63,3.413v.249Zm-3.5-2.944a3.646,3.646,0,0,0,1.728-.417A2.742,2.742,0,0,0,565.677,106v-2.725H564.1q-3.178,0-3.384,2.2l-.014.249a1.692,1.692,0,0,0,.556,1.3A2.164,2.164,0,0,0,562.777,107.538Z"/><path d="M587.444,102.7a9.5,9.5,0,0,1-1.662,5.867,5.329,5.329,0,0,1-4.49,2.2,4.935,4.935,0,0,1-3.882-1.67v7.471h-4.233V94.633H577.1l.146,1.553a4.973,4.973,0,0,1,4.014-1.846,5.364,5.364,0,0,1,4.555,2.168,9.761,9.761,0,0,1,1.626,5.976Zm-4.233-.308a6.244,6.244,0,0,0-.783-3.413,2.556,2.556,0,0,0-2.279-1.2,2.772,2.772,0,0,0-2.739,1.524V105.8a2.82,2.82,0,0,0,2.769,1.567Q583.211,107.362,583.211,102.4Z"/><path d="M604.334,102.7a9.508,9.508,0,0,1-1.662,5.867,5.332,5.332,0,0,1-4.49,2.2,4.935,4.935,0,0,1-3.882-1.67v7.471h-4.234V94.633h3.926l.147,1.553a4.973,4.973,0,0,1,4.013-1.846,5.366,5.366,0,0,1,4.556,2.168,9.761,9.761,0,0,1,1.626,5.976ZM600.1,102.4a6.235,6.235,0,0,0-.784-3.413,2.554,2.554,0,0,0-2.278-1.2,2.772,2.772,0,0,0-2.739,1.524V105.8a2.818,2.818,0,0,0,2.768,1.567Q600.1,107.362,600.1,102.4Z"/><path d="M614.252,110.775a7.784,7.784,0,0,1-5.677-2.138,7.6,7.6,0,0,1-2.19-5.7v-.41a9.567,9.567,0,0,1,.923-4.27,6.771,6.771,0,0,1,2.615-2.9,7.335,7.335,0,0,1,3.86-1.018,6.575,6.575,0,0,1,5.119,2.051,8.337,8.337,0,0,1,1.868,5.815v1.729H610.677a3.932,3.932,0,0,0,1.238,2.49,3.742,3.742,0,0,0,2.614.937,4.574,4.574,0,0,0,3.825-1.772l2.08,2.329a6.363,6.363,0,0,1-2.579,2.1A8.456,8.456,0,0,1,614.252,110.775Zm-.484-13.022a2.646,2.646,0,0,0-2.043.853,4.415,4.415,0,0,0-1,2.443h5.888v-.339a3.153,3.153,0,0,0-.761-2.185A2.73,2.73,0,0,0,613.768,97.753Z"/><path d="M627.069,94.633l.132,1.831a5.535,5.535,0,0,1,4.556-2.124,4.6,4.6,0,0,1,3.75,1.479,6.909,6.909,0,0,1,1.26,4.424v10.239h-4.234V100.346a2.744,2.744,0,0,0-.586-1.956A2.623,2.623,0,0,0,630,97.782a2.913,2.913,0,0,0-2.681,1.524v11.176h-4.233V94.633Z"/><path d="M648.558,106.1a1.366,1.366,0,0,0-.769-1.224,8.772,8.772,0,0,0-2.469-.8q-5.654-1.186-5.654-4.805a4.356,4.356,0,0,1,1.75-3.523,7.064,7.064,0,0,1,4.578-1.413,7.593,7.593,0,0,1,4.826,1.421,4.477,4.477,0,0,1,1.81,3.691H648.4a2.049,2.049,0,0,0-.585-1.5,2.479,2.479,0,0,0-1.832-.594,2.537,2.537,0,0,0-1.655.484,1.527,1.527,0,0,0-.586,1.23,1.307,1.307,0,0,0,.666,1.136,6.875,6.875,0,0,0,2.249.747,18.3,18.3,0,0,1,2.666.71q3.356,1.23,3.355,4.263a4.132,4.132,0,0,1-1.861,3.508,8.019,8.019,0,0,1-4.8,1.34,8.378,8.378,0,0,1-3.538-.71,5.934,5.934,0,0,1-2.424-1.948,4.528,4.528,0,0,1-.879-2.674h4.014a2.21,2.21,0,0,0,.835,1.729,3.313,3.313,0,0,0,2.08.6,3.068,3.068,0,0,0,1.839-.461A1.438,1.438,0,0,0,648.558,106.1Z"/><path d="M679.76,104.33l2.871-15.176h4.38l-4.732,21.328h-4.424l-3.471-14.267-3.472,14.267h-4.424l-4.731-21.328h4.38l2.885,15.147,3.516-15.147h3.721Z"/><path d="M693.235,96.361a5.287,5.287,0,0,1,4.234-2.021q5.155,0,5.229,5.991v10.151h-4.233V100.448a2.943,2.943,0,0,0-.586-2.014,2.514,2.514,0,0,0-1.948-.652,2.882,2.882,0,0,0-2.7,1.436v11.264H689v-22.5h4.233Z"/><path d="M713.187,110.775a7.784,7.784,0,0,1-5.677-2.138,7.6,7.6,0,0,1-2.19-5.7v-.41a9.58,9.58,0,0,1,.923-4.27,6.775,6.775,0,0,1,2.614-2.9,7.341,7.341,0,0,1,3.861-1.018,6.577,6.577,0,0,1,5.12,2.051,8.336,8.336,0,0,1,1.867,5.815v1.729H709.612a3.936,3.936,0,0,0,1.238,2.49,3.742,3.742,0,0,0,2.615.937,4.57,4.57,0,0,0,3.823-1.772l2.08,2.329a6.36,6.36,0,0,1-2.578,2.1A8.456,8.456,0,0,1,713.187,110.775ZM712.7,97.753a2.646,2.646,0,0,0-2.043.853,4.422,4.422,0,0,0-1,2.443h5.889v-.339a3.159,3.159,0,0,0-.762-2.185A2.728,2.728,0,0,0,712.7,97.753Z"/><path d="M726.005,94.633l.132,1.831a5.533,5.533,0,0,1,4.555-2.124,4.6,4.6,0,0,1,3.75,1.479,6.9,6.9,0,0,1,1.26,4.424v10.239h-4.233V100.346a2.749,2.749,0,0,0-.586-1.956,2.624,2.624,0,0,0-1.948-.608,2.912,2.912,0,0,0-2.681,1.524v11.176h-4.233V94.633Z"/><path d="M761.834,92.714H755.3v17.768h-4.4V92.714h-6.445v-3.56h17.373Z"/><path d="M777.156,104.726l2.08-10.093h4.087l-4.043,15.849h-3.545l-3-9.975-3,9.975H766.2l-4.043-15.849h4.087l2.066,10.078,2.9-10.078h3.062Z"/><path d="M784.76,102.411a9.4,9.4,0,0,1,.908-4.2,6.641,6.641,0,0,1,2.615-2.856,7.624,7.624,0,0,1,3.962-1.011,7.216,7.216,0,0,1,5.237,1.963,7.878,7.878,0,0,1,2.263,5.332l.029,1.084a8.283,8.283,0,0,1-2.036,5.852,7.893,7.893,0,0,1-10.935.007,8.431,8.431,0,0,1-2.043-5.976Zm4.233.3a5.922,5.922,0,0,0,.85,3.456,3.053,3.053,0,0,0,4.834.014,6.481,6.481,0,0,0,.864-3.777,5.865,5.865,0,0,0-.864-3.433,2.809,2.809,0,0,0-2.432-1.218,2.762,2.762,0,0,0-2.4,1.21A6.59,6.59,0,0,0,788.993,102.711Z"/><path d="M826.874,103.378a7.55,7.55,0,0,1-2.542,5.42,8.926,8.926,0,0,1-6.042,1.977,8.023,8.023,0,0,1-6.452-2.761,11.319,11.319,0,0,1-2.352-7.58v-1.3a12.793,12.793,0,0,1,1.084-5.42,8.121,8.121,0,0,1,3.1-3.6,9.68,9.68,0,0,1,10.628.725,8.108,8.108,0,0,1,2.607,5.552h-4.394a4.459,4.459,0,0,0-1.15-3,4.26,4.26,0,0,0-3.01-.93,3.731,3.731,0,0,0-3.288,1.575,8.813,8.813,0,0,0-1.122,4.885v1.611a9.45,9.45,0,0,0,1.047,5.054,3.668,3.668,0,0,0,3.3,1.6,4.343,4.343,0,0,0,3.04-.931,4.2,4.2,0,0,0,1.149-2.878Z"/><path d="M838.388,98.6a11.367,11.367,0,0,0-1.524-.118q-2.4,0-3.149,1.626v10.371h-4.234V94.633h4l.118,1.889a3.921,3.921,0,0,1,3.53-2.182,4.43,4.43,0,0,1,1.318.19Z"/><path d="M847.44,110.775a7.783,7.783,0,0,1-5.676-2.138,7.6,7.6,0,0,1-2.19-5.7v-.41a9.58,9.58,0,0,1,.923-4.27,6.775,6.775,0,0,1,2.614-2.9,7.341,7.341,0,0,1,3.861-1.018,6.577,6.577,0,0,1,5.12,2.051,8.336,8.336,0,0,1,1.867,5.815v1.729H843.866a3.936,3.936,0,0,0,1.238,2.49,3.742,3.742,0,0,0,2.615.937,4.57,4.57,0,0,0,3.823-1.772l2.08,2.329a6.36,6.36,0,0,1-2.578,2.1A8.457,8.457,0,0,1,847.44,110.775Zm-.483-13.022a2.646,2.646,0,0,0-2.043.853,4.422,4.422,0,0,0-1,2.443H849.8v-.339a3.159,3.159,0,0,0-.762-2.185A2.729,2.729,0,0,0,846.957,97.753Z"/><path d="M864.944,106.1a1.365,1.365,0,0,0-.768-1.224,8.772,8.772,0,0,0-2.469-.8q-5.654-1.186-5.654-4.805a4.356,4.356,0,0,1,1.75-3.523,7.064,7.064,0,0,1,4.578-1.413,7.593,7.593,0,0,1,4.826,1.421,4.477,4.477,0,0,1,1.81,3.691h-4.234a2.046,2.046,0,0,0-.586-1.5,2.477,2.477,0,0,0-1.831-.594,2.535,2.535,0,0,0-1.655.484,1.524,1.524,0,0,0-.586,1.23,1.307,1.307,0,0,0,.666,1.136,6.858,6.858,0,0,0,2.249.747,18.334,18.334,0,0,1,2.666.71q3.354,1.23,3.355,4.263a4.135,4.135,0,0,1-1.861,3.508,8.021,8.021,0,0,1-4.8,1.34,8.382,8.382,0,0,1-3.539-.71,5.938,5.938,0,0,1-2.423-1.948,4.528,4.528,0,0,1-.879-2.674h4.013a2.214,2.214,0,0,0,.835,1.729,3.315,3.315,0,0,0,2.08.6,3.066,3.066,0,0,0,1.839-.461A1.438,1.438,0,0,0,864.944,106.1Z"/><path d="M876.854,90.736v3.9h2.71v3.105h-2.71v7.91a1.893,1.893,0,0,0,.337,1.26,1.693,1.693,0,0,0,1.289.381,6.8,6.8,0,0,0,1.246-.1V110.4a8.747,8.747,0,0,1-2.564.38q-4.454,0-4.541-4.5v-8.54h-2.314V94.633h2.314v-3.9Z"/><path d="M890.507,106.1a1.366,1.366,0,0,0-.769-1.224,8.763,8.763,0,0,0-2.468-.8q-5.655-1.186-5.655-4.805a4.356,4.356,0,0,1,1.75-3.523,7.066,7.066,0,0,1,4.578-1.413,7.6,7.6,0,0,1,4.827,1.421,4.477,4.477,0,0,1,1.809,3.691h-4.233a2.05,2.05,0,0,0-.586-1.5,2.478,2.478,0,0,0-1.831-.594,2.538,2.538,0,0,0-1.656.484,1.526,1.526,0,0,0-.585,1.23,1.3,1.3,0,0,0,.666,1.136,6.858,6.858,0,0,0,2.249.747,18.369,18.369,0,0,1,2.666.71q3.354,1.23,3.354,4.263a4.134,4.134,0,0,1-1.86,3.508,8.024,8.024,0,0,1-4.805,1.34,8.378,8.378,0,0,1-3.538-.71A5.941,5.941,0,0,1,882,108.117a4.528,4.528,0,0,1-.879-2.674h4.014a2.21,2.21,0,0,0,.835,1.729,3.313,3.313,0,0,0,2.08.6,3.068,3.068,0,0,0,1.839-.461A1.438,1.438,0,0,0,890.507,106.1Z"/><path d="M910.838,89.154l5.478,15.469,5.45-15.469h5.771v21.328h-4.409v-5.83l.439-10.063-5.756,15.893h-3.018L909.051,94.6l.439,10.048v5.83H905.1V89.154Z"/><path d="M938.392,110.775a7.784,7.784,0,0,1-5.677-2.138,7.6,7.6,0,0,1-2.19-5.7v-.41a9.58,9.58,0,0,1,.923-4.27,6.782,6.782,0,0,1,2.614-2.9,7.344,7.344,0,0,1,3.861-1.018,6.577,6.577,0,0,1,5.12,2.051,8.336,8.336,0,0,1,1.867,5.815v1.729H934.817a3.936,3.936,0,0,0,1.238,2.49,3.742,3.742,0,0,0,2.615.937,4.57,4.57,0,0,0,3.823-1.772l2.08,2.329a6.36,6.36,0,0,1-2.578,2.1A8.456,8.456,0,0,1,938.392,110.775Zm-.484-13.022a2.646,2.646,0,0,0-2.043.853,4.422,4.422,0,0,0-1,2.443h5.889v-.339a3.154,3.154,0,0,0-.762-2.185A2.728,2.728,0,0,0,937.908,97.753Z"/><path d="M954.608,110.775a7.783,7.783,0,0,1-5.676-2.138,7.6,7.6,0,0,1-2.19-5.7v-.41a9.58,9.58,0,0,1,.923-4.27,6.775,6.775,0,0,1,2.614-2.9,7.341,7.341,0,0,1,3.861-1.018,6.577,6.577,0,0,1,5.12,2.051,8.336,8.336,0,0,1,1.867,5.815v1.729H951.034a3.94,3.94,0,0,0,1.237,2.49,3.747,3.747,0,0,0,2.616.937,4.57,4.57,0,0,0,3.823-1.772l2.08,2.329a6.36,6.36,0,0,1-2.578,2.1A8.457,8.457,0,0,1,954.608,110.775Zm-.483-13.022a2.646,2.646,0,0,0-2.043.853,4.422,4.422,0,0,0-1,2.443h5.889v-.339a3.159,3.159,0,0,0-.762-2.185A2.729,2.729,0,0,0,954.125,97.753Z"/><path d="M968.6,90.736v3.9h2.71v3.105H968.6v7.91a1.887,1.887,0,0,0,.337,1.26,1.69,1.69,0,0,0,1.289.381,6.8,6.8,0,0,0,1.245-.1V110.4a8.747,8.747,0,0,1-2.564.38q-4.452,0-4.541-4.5v-8.54h-2.314V94.633h2.314v-3.9Z"/><path class="b" d="M535.8,453.956s31.368-273.957,78.585,0"/><line class="e" x1="500.976" y1="320.076" x2="555.934" y2="341.659"/><path d="M138.414,244.817V227.754h5.578a6.474,6.474,0,0,1,4.178,1.149,4.136,4.136,0,0,1,1.4,3.4,3.469,3.469,0,0,1-.679,2.116,4.41,4.41,0,0,1-1.852,1.423,3.96,3.96,0,0,1,2.186,1.471,4.222,4.222,0,0,1,.8,2.584,4.563,4.563,0,0,1-1.488,3.609,6.154,6.154,0,0,1-4.207,1.313Zm2.25-9.785h3.4a3.565,3.565,0,0,0,2.362-.74,2.48,2.48,0,0,0,.885-2.008,2.44,2.44,0,0,0-.821-2.05,4.033,4.033,0,0,0-2.5-.64h-3.328Zm0,1.8v6.141h3.715a3.574,3.574,0,0,0,2.478-.814,2.86,2.86,0,0,0,.909-2.245q0-3.081-3.352-3.082Z"/><path d="M158.277,245.051a5.54,5.54,0,0,1-4.195-1.693,6.286,6.286,0,0,1-1.617-4.529v-.4a7.6,7.6,0,0,1,.721-3.369,5.616,5.616,0,0,1,2.015-2.32,5.065,5.065,0,0,1,2.807-.838,4.75,4.75,0,0,1,3.844,1.629,7.052,7.052,0,0,1,1.371,4.664v.9h-8.59a4.5,4.5,0,0,0,1.1,3.029,3.442,3.442,0,0,0,2.666,1.155,3.781,3.781,0,0,0,1.945-.469,4.9,4.9,0,0,0,1.394-1.242l1.325,1.031A5.326,5.326,0,0,1,158.277,245.051Zm-.269-11.367a2.889,2.889,0,0,0-2.2.955,4.643,4.643,0,0,0-1.1,2.678h6.352v-.164a4.135,4.135,0,0,0-.891-2.561A2.723,2.723,0,0,0,158.008,233.684Z"/><path d="M166.8,244.817v-11h-2v-1.676h2v-1.3a4.315,4.315,0,0,1,1.09-3.152,4.117,4.117,0,0,1,3.082-1.113,5.719,5.719,0,0,1,1.488.2l-.117,1.747a6.254,6.254,0,0,0-1.172-.1,2.117,2.117,0,0,0-1.629.617,2.5,2.5,0,0,0-.574,1.769v1.34h2.707v1.676h-2.707v11Z"/><path d="M173.488,238.36a7.482,7.482,0,0,1,.733-3.352,5.463,5.463,0,0,1,2.039-2.3,5.55,5.55,0,0,1,2.982-.808,5.346,5.346,0,0,1,4.19,1.793,6.9,6.9,0,0,1,1.6,4.769v.153a7.551,7.551,0,0,1-.709,3.322,5.381,5.381,0,0,1-2.027,2.291,5.614,5.614,0,0,1-3.029.82,5.331,5.331,0,0,1-4.178-1.793,6.859,6.859,0,0,1-1.6-4.746Zm2.18.258a5.424,5.424,0,0,0,.978,3.386,3.316,3.316,0,0,0,5.245-.017,5.934,5.934,0,0,0,.972-3.627,5.415,5.415,0,0,0-.99-3.381,3.149,3.149,0,0,0-2.631-1.3,3.116,3.116,0,0,0-2.59,1.277A5.892,5.892,0,0,0,175.668,238.618Z"/><path d="M193.879,234.083a6.463,6.463,0,0,0-1.067-.083,2.857,2.857,0,0,0-2.894,1.817v9H187.75v-12.68h2.109l.036,1.465a3.373,3.373,0,0,1,3.023-1.7,2.221,2.221,0,0,1,.961.164Z"/><path d="M200.91,245.051a5.538,5.538,0,0,1-4.195-1.693,6.286,6.286,0,0,1-1.617-4.529v-.4a7.613,7.613,0,0,1,.72-3.369,5.626,5.626,0,0,1,2.016-2.32,5.065,5.065,0,0,1,2.807-.838,4.748,4.748,0,0,1,3.843,1.629,7.052,7.052,0,0,1,1.371,4.664v.9h-8.589a4.5,4.5,0,0,0,1.095,3.029,3.444,3.444,0,0,0,2.666,1.155,3.784,3.784,0,0,0,1.946-.469,4.9,4.9,0,0,0,1.394-1.242l1.324,1.031A5.323,5.323,0,0,1,200.91,245.051Zm-.269-11.367a2.889,2.889,0,0,0-2.2.955,4.643,4.643,0,0,0-1.1,2.678h6.352v-.164a4.135,4.135,0,0,0-.891-2.561A2.723,2.723,0,0,0,200.641,233.684Z"/><path d="M214.316,228.774a1.294,1.294,0,0,1,.323-.891,1.21,1.21,0,0,1,.955-.363,1.23,1.23,0,0,1,.961.363,1.284,1.284,0,0,1,.328.891,1.284,1.284,0,1,1-2.567,0Zm2.344,16.043h-2.168v-12.68h2.168Z"/><path d="M222.18,232.137l.07,1.594a4.62,4.62,0,0,1,3.8-1.828q4.02,0,4.055,4.535v8.379h-2.168v-8.391a2.919,2.919,0,0,0-.627-2.027,2.512,2.512,0,0,0-1.916-.656,3.13,3.13,0,0,0-1.852.562,3.819,3.819,0,0,0-1.242,1.477v9.035h-2.168v-12.68Z"/><path d="M236.312,229.067v3.07h2.368v1.676h-2.368v7.873a1.758,1.758,0,0,0,.317,1.144,1.332,1.332,0,0,0,1.078.381,5.213,5.213,0,0,0,1.031-.14v1.747a6.29,6.29,0,0,1-1.664.233,2.7,2.7,0,0,1-2.191-.879,3.777,3.777,0,0,1-.738-2.5v-7.863h-2.309v-1.676h2.309v-3.07Z"/><path d="M246.473,245.051a5.54,5.54,0,0,1-4.2-1.693,6.286,6.286,0,0,1-1.617-4.529v-.4a7.6,7.6,0,0,1,.721-3.369,5.616,5.616,0,0,1,2.015-2.32,5.067,5.067,0,0,1,2.807-.838,4.748,4.748,0,0,1,3.844,1.629,7.052,7.052,0,0,1,1.371,4.664v.9h-8.59a4.505,4.505,0,0,0,1.1,3.029,3.443,3.443,0,0,0,2.666,1.155,3.781,3.781,0,0,0,1.945-.469,4.917,4.917,0,0,0,1.4-1.242l1.324,1.031A5.324,5.324,0,0,1,246.473,245.051Zm-.27-11.367a2.891,2.891,0,0,0-2.2.955,4.643,4.643,0,0,0-1.1,2.678h6.352v-.164a4.123,4.123,0,0,0-.891-2.561A2.723,2.723,0,0,0,246.2,233.684Z"/><path d="M260.055,234.083a6.463,6.463,0,0,0-1.067-.083,2.857,2.857,0,0,0-2.894,1.817v9h-2.168v-12.68h2.109l.035,1.465a3.376,3.376,0,0,1,3.024-1.7,2.221,2.221,0,0,1,.961.164Z"/><path d="M263.289,244.817v-11h-2v-1.676h2v-1.3a4.315,4.315,0,0,1,1.09-3.152,4.117,4.117,0,0,1,3.082-1.113,5.719,5.719,0,0,1,1.488.2l-.117,1.747a6.254,6.254,0,0,0-1.172-.1,2.117,2.117,0,0,0-1.629.617,2.5,2.5,0,0,0-.574,1.769v1.34h2.707v1.676h-2.707v11Z"/><path d="M275.535,245.051a5.538,5.538,0,0,1-4.2-1.693,6.286,6.286,0,0,1-1.617-4.529v-.4a7.613,7.613,0,0,1,.72-3.369,5.626,5.626,0,0,1,2.016-2.32,5.065,5.065,0,0,1,2.807-.838,4.748,4.748,0,0,1,3.843,1.629,7.052,7.052,0,0,1,1.371,4.664v.9h-8.589a4.5,4.5,0,0,0,1.095,3.029,3.444,3.444,0,0,0,2.666,1.155,3.784,3.784,0,0,0,1.946-.469,4.9,4.9,0,0,0,1.394-1.242l1.324,1.031A5.323,5.323,0,0,1,275.535,245.051Zm-.269-11.367a2.893,2.893,0,0,0-2.2.955,4.649,4.649,0,0,0-1.1,2.678h6.351v-.164a4.129,4.129,0,0,0-.89-2.561A2.723,2.723,0,0,0,275.266,233.684Z"/><path d="M289.117,234.083a6.451,6.451,0,0,0-1.066-.083,2.858,2.858,0,0,0-2.895,1.817v9h-2.168v-12.68h2.11l.035,1.465a3.375,3.375,0,0,1,3.023-1.7,2.221,2.221,0,0,1,.961.164Z"/><path d="M296.148,245.051a5.54,5.54,0,0,1-4.2-1.693,6.286,6.286,0,0,1-1.617-4.529v-.4a7.6,7.6,0,0,1,.721-3.369,5.616,5.616,0,0,1,2.015-2.32,5.067,5.067,0,0,1,2.807-.838,4.75,4.75,0,0,1,3.844,1.629,7.052,7.052,0,0,1,1.371,4.664v.9H292.5a4.5,4.5,0,0,0,1.1,3.029,3.443,3.443,0,0,0,2.666,1.155,3.781,3.781,0,0,0,1.945-.469,4.9,4.9,0,0,0,1.394-1.242l1.325,1.031A5.326,5.326,0,0,1,296.148,245.051Zm-.269-11.367a2.891,2.891,0,0,0-2.2.955,4.643,4.643,0,0,0-1.1,2.678h6.352v-.164a4.135,4.135,0,0,0-.891-2.561A2.723,2.723,0,0,0,295.879,233.684Z"/><path d="M305.652,232.137l.071,1.594a4.618,4.618,0,0,1,3.8-1.828q4.019,0,4.054,4.535v8.379h-2.168v-8.391a2.919,2.919,0,0,0-.627-2.027,2.511,2.511,0,0,0-1.916-.656,3.127,3.127,0,0,0-1.851.562,3.8,3.8,0,0,0-1.242,1.477v9.035H303.6v-12.68Z"/><path d="M321.93,243.282a3.126,3.126,0,0,0,2.027-.7,2.477,2.477,0,0,0,.961-1.758h2.051a3.931,3.931,0,0,1-.75,2.074,4.933,4.933,0,0,1-1.846,1.57,5.319,5.319,0,0,1-2.443.586,5.222,5.222,0,0,1-4.119-1.728,6.885,6.885,0,0,1-1.53-4.729v-.363a7.637,7.637,0,0,1,.68-3.293,5.171,5.171,0,0,1,1.951-2.238,5.538,5.538,0,0,1,3.006-.8,5.089,5.089,0,0,1,3.545,1.277,4.57,4.57,0,0,1,1.506,3.317h-2.051a2.988,2.988,0,0,0-.932-2.022,2.9,2.9,0,0,0-2.068-.791,3.036,3.036,0,0,0-2.561,1.19,5.588,5.588,0,0,0-.908,3.439v.41a5.472,5.472,0,0,0,.9,3.375A3.047,3.047,0,0,0,321.93,243.282Z"/><path d="M334.668,245.051a5.538,5.538,0,0,1-4.195-1.693,6.286,6.286,0,0,1-1.618-4.529v-.4a7.613,7.613,0,0,1,.721-3.369,5.626,5.626,0,0,1,2.016-2.32,5.064,5.064,0,0,1,2.806-.838,4.748,4.748,0,0,1,3.844,1.629,7.052,7.052,0,0,1,1.371,4.664v.9h-8.59a4.51,4.51,0,0,0,1.1,3.029,3.443,3.443,0,0,0,2.666,1.155,3.778,3.778,0,0,0,1.945-.469,4.89,4.89,0,0,0,1.395-1.242l1.324,1.031A5.323,5.323,0,0,1,334.668,245.051Zm-.27-11.367a2.891,2.891,0,0,0-2.2.955,4.643,4.643,0,0,0-1.1,2.678h6.351v-.164a4.129,4.129,0,0,0-.89-2.561A2.726,2.726,0,0,0,334.4,233.684Z"/><path d="M135.744,432.009V414.946h4.816a7.75,7.75,0,0,1,3.938.985,6.661,6.661,0,0,1,2.642,2.8,9.109,9.109,0,0,1,.943,4.172v1.09a9.15,9.15,0,0,1-.931,4.231,6.557,6.557,0,0,1-2.66,2.789,8.258,8.258,0,0,1-4.026,1Zm2.25-15.223v13.383h2.367a5.151,5.151,0,0,0,4.049-1.618,6.688,6.688,0,0,0,1.447-4.61v-1a6.793,6.793,0,0,0-1.365-4.521,4.86,4.86,0,0,0-3.873-1.637Z"/><path d="M158.97,430.755a4.606,4.606,0,0,1-3.715,1.488,3.941,3.941,0,0,1-3.088-1.178,5.1,5.1,0,0,1-1.072-3.486v-8.25h2.168v8.192q0,2.882,2.344,2.882a3.246,3.246,0,0,0,3.305-1.851v-9.223h2.168v12.68h-2.063Z"/><path d="M170.5,421.274a6.565,6.565,0,0,0-1.066-.082,2.856,2.856,0,0,0-2.894,1.817v9h-2.168v-12.68h2.109l.035,1.465a3.376,3.376,0,0,1,3.024-1.7,2.2,2.2,0,0,1,.96.164Z"/><path d="M172.505,415.966a1.294,1.294,0,0,1,.323-.891,1.209,1.209,0,0,1,.955-.363,1.23,1.23,0,0,1,.961.363,1.284,1.284,0,0,1,.328.891,1.172,1.172,0,0,1-1.289,1.23,1.231,1.231,0,0,1-.955-.351A1.253,1.253,0,0,1,172.505,415.966Zm2.344,16.043h-2.168v-12.68h2.168Z"/><path d="M180.369,419.329l.07,1.594a4.62,4.62,0,0,1,3.8-1.828q4.02,0,4.055,4.535v8.379h-2.168v-8.391a2.919,2.919,0,0,0-.627-2.027,2.512,2.512,0,0,0-1.916-.656,3.127,3.127,0,0,0-1.852.562,3.819,3.819,0,0,0-1.242,1.477v9.035h-2.168v-12.68Z"/><path d="M191.044,425.563a7.445,7.445,0,0,1,1.372-4.716,4.726,4.726,0,0,1,7.253-.112l.106-1.406h1.98V431.7a5.156,5.156,0,0,1-1.459,3.879,5.384,5.384,0,0,1-3.92,1.418,6.513,6.513,0,0,1-2.683-.586,4.627,4.627,0,0,1-2-1.605l1.125-1.3a4.24,4.24,0,0,0,3.41,1.722,3.321,3.321,0,0,0,2.467-.89,3.4,3.4,0,0,0,.885-2.508v-1.09a4.457,4.457,0,0,1-3.551,1.5,4.331,4.331,0,0,1-3.6-1.793A7.834,7.834,0,0,1,191.044,425.563Zm2.18.247a5.687,5.687,0,0,0,.879,3.369,2.856,2.856,0,0,0,2.461,1.224,3.177,3.177,0,0,0,3.012-1.863v-5.789a3.212,3.212,0,0,0-2.989-1.816,2.881,2.881,0,0,0-2.472,1.23A6.19,6.19,0,0,0,193.224,425.81Z"/><path d="M210.978,415.966a1.293,1.293,0,0,1,.322-.891,1.21,1.21,0,0,1,.955-.363,1.228,1.228,0,0,1,.961.363,1.279,1.279,0,0,1,.328.891,1.343,1.343,0,0,1-2.244.879A1.253,1.253,0,0,1,210.978,415.966Zm2.344,16.043h-2.168v-12.68h2.168Z"/><path d="M218.841,419.329l.071,1.594a4.618,4.618,0,0,1,3.8-1.828q4.02,0,4.055,4.535v8.379H224.6v-8.391a2.919,2.919,0,0,0-.627-2.027,2.511,2.511,0,0,0-1.916-.656,3.127,3.127,0,0,0-1.851.562,3.813,3.813,0,0,0-1.243,1.477v9.035h-2.167v-12.68Z"/><path d="M232.974,416.259v3.07h2.367v1.676h-2.367v7.873a1.756,1.756,0,0,0,.317,1.144,1.33,1.33,0,0,0,1.078.381,5.3,5.3,0,0,0,1.031-.14v1.748a6.329,6.329,0,0,1-1.664.232,2.7,2.7,0,0,1-2.192-.879,3.777,3.777,0,0,1-.738-2.5v-7.863H228.5v-1.676h2.308v-3.07Z"/><path d="M243.134,432.243a5.54,5.54,0,0,1-4.195-1.693,6.286,6.286,0,0,1-1.617-4.529v-.4a7.613,7.613,0,0,1,.72-3.369,5.626,5.626,0,0,1,2.016-2.32,5.065,5.065,0,0,1,2.807-.838,4.748,4.748,0,0,1,3.843,1.629,7.046,7.046,0,0,1,1.372,4.664v.9h-8.59a4.5,4.5,0,0,0,1.095,3.029,3.444,3.444,0,0,0,2.666,1.155,3.782,3.782,0,0,0,1.946-.469,4.9,4.9,0,0,0,1.394-1.242l1.325,1.031A5.326,5.326,0,0,1,243.134,432.243Zm-.269-11.367a2.889,2.889,0,0,0-2.2.955,4.643,4.643,0,0,0-1.1,2.678h6.352v-.164a4.135,4.135,0,0,0-.891-2.561A2.723,2.723,0,0,0,242.865,420.876Z"/><path d="M256.716,421.274a6.565,6.565,0,0,0-1.066-.082,2.858,2.858,0,0,0-2.9,1.817v9h-2.168v-12.68h2.11l.035,1.465a3.375,3.375,0,0,1,3.023-1.7,2.2,2.2,0,0,1,.961.164Z"/><path d="M259.951,432.009v-11h-2v-1.676h2v-1.3a4.315,4.315,0,0,1,1.09-3.152,4.115,4.115,0,0,1,3.082-1.113,5.719,5.719,0,0,1,1.488.2l-.117,1.747a6.262,6.262,0,0,0-1.172-.105,2.117,2.117,0,0,0-1.629.617,2.5,2.5,0,0,0-.574,1.769v1.34h2.707v1.676h-2.707v11Z"/><path d="M272.2,432.243a5.542,5.542,0,0,1-4.2-1.693,6.286,6.286,0,0,1-1.617-4.529v-.4a7.613,7.613,0,0,1,.721-3.369,5.612,5.612,0,0,1,2.016-2.32,5.061,5.061,0,0,1,2.806-.838,4.748,4.748,0,0,1,3.844,1.629,7.052,7.052,0,0,1,1.371,4.664v.9h-8.59a4.505,4.505,0,0,0,1.1,3.029,3.443,3.443,0,0,0,2.666,1.155,3.778,3.778,0,0,0,1.945-.469,4.9,4.9,0,0,0,1.395-1.242l1.324,1.031A5.323,5.323,0,0,1,272.2,432.243Zm-.27-11.367a2.891,2.891,0,0,0-2.2.955,4.636,4.636,0,0,0-1.1,2.678h6.351v-.164a4.123,4.123,0,0,0-.891-2.561A2.723,2.723,0,0,0,271.927,420.876Z"/><path d="M285.779,421.274a6.578,6.578,0,0,0-1.067-.082,2.857,2.857,0,0,0-2.894,1.817v9H279.65v-12.68h2.109l.035,1.465a3.376,3.376,0,0,1,3.024-1.7,2.206,2.206,0,0,1,.961.164Z"/><path d="M292.81,432.243a5.538,5.538,0,0,1-4.195-1.693A6.286,6.286,0,0,1,287,426.021v-.4a7.613,7.613,0,0,1,.72-3.369,5.626,5.626,0,0,1,2.016-2.32,5.065,5.065,0,0,1,2.807-.838,4.748,4.748,0,0,1,3.843,1.629,7.052,7.052,0,0,1,1.371,4.664v.9h-8.589a4.5,4.5,0,0,0,1.1,3.029,3.443,3.443,0,0,0,2.666,1.155,3.784,3.784,0,0,0,1.946-.469,4.9,4.9,0,0,0,1.394-1.242l1.324,1.031A5.323,5.323,0,0,1,292.81,432.243Zm-.269-11.367a2.893,2.893,0,0,0-2.2.955,4.643,4.643,0,0,0-1.1,2.678h6.351v-.164a4.129,4.129,0,0,0-.89-2.561A2.723,2.723,0,0,0,292.541,420.876Z"/><path d="M302.314,419.329l.07,1.594a4.621,4.621,0,0,1,3.8-1.828q4.02,0,4.055,4.535v8.379h-2.168v-8.391a2.919,2.919,0,0,0-.627-2.027,2.511,2.511,0,0,0-1.916-.656,3.132,3.132,0,0,0-1.852.562,3.819,3.819,0,0,0-1.242,1.477v9.035h-2.168v-12.68Z"/><path d="M318.591,430.474a3.127,3.127,0,0,0,2.028-.7,2.477,2.477,0,0,0,.961-1.758h2.05a3.931,3.931,0,0,1-.75,2.074,4.938,4.938,0,0,1-1.845,1.57,5.323,5.323,0,0,1-2.444.586,5.225,5.225,0,0,1-4.119-1.728,6.889,6.889,0,0,1-1.529-4.729v-.363a7.619,7.619,0,0,1,.68-3.293,5.171,5.171,0,0,1,1.951-2.238,5.533,5.533,0,0,1,3.006-.8,5.09,5.09,0,0,1,3.545,1.277,4.564,4.564,0,0,1,1.5,3.316h-2.05a2.987,2.987,0,0,0-.932-2.021,2.9,2.9,0,0,0-2.068-.791,3.035,3.035,0,0,0-2.561,1.189,5.591,5.591,0,0,0-.908,3.44v.41a5.478,5.478,0,0,0,.9,3.375A3.05,3.05,0,0,0,318.591,430.474Z"/><path d="M331.33,432.243a5.54,5.54,0,0,1-4.2-1.693,6.286,6.286,0,0,1-1.617-4.529v-.4a7.6,7.6,0,0,1,.721-3.369,5.616,5.616,0,0,1,2.015-2.32,5.067,5.067,0,0,1,2.807-.838,4.75,4.75,0,0,1,3.844,1.629,7.052,7.052,0,0,1,1.371,4.664v.9h-8.59a4.505,4.505,0,0,0,1.1,3.029,3.443,3.443,0,0,0,2.666,1.155,3.781,3.781,0,0,0,1.945-.469,4.917,4.917,0,0,0,1.395-1.242l1.324,1.031A5.324,5.324,0,0,1,331.33,432.243Zm-.27-11.367a2.891,2.891,0,0,0-2.2.955,4.643,4.643,0,0,0-1.1,2.678h6.352v-.164a4.129,4.129,0,0,0-.891-2.561A2.723,2.723,0,0,0,331.06,420.876Z"/><path d="M142.684,584.77h-7.149l-1.6,4.464h-2.321l6.516-17.062h1.969l6.527,17.062h-2.309Zm-6.469-1.84h5.8l-2.907-7.981Z"/><path d="M149.645,589.234v-11h-2v-1.675h2v-1.3a4.319,4.319,0,0,1,1.089-3.152,4.115,4.115,0,0,1,3.082-1.114,5.734,5.734,0,0,1,1.489.2l-.117,1.747a6.177,6.177,0,0,0-1.172-.106,2.116,2.116,0,0,0-1.629.617,2.505,2.505,0,0,0-.575,1.77v1.34h2.708v1.675h-2.708v11Z"/><path d="M159.852,573.484v3.071h2.367v1.675h-2.367V586.1a1.76,1.76,0,0,0,.316,1.144,1.332,1.332,0,0,0,1.078.381,5.229,5.229,0,0,0,1.031-.141v1.748a6.29,6.29,0,0,1-1.664.233,2.7,2.7,0,0,1-2.191-.879,3.777,3.777,0,0,1-.738-2.5V578.23h-2.309v-1.675h2.309v-3.071Z"/><path d="M170.012,589.469a5.543,5.543,0,0,1-4.2-1.694,6.284,6.284,0,0,1-1.617-4.529v-.4a7.6,7.6,0,0,1,.721-3.369,5.614,5.614,0,0,1,2.016-2.321,5.069,5.069,0,0,1,2.806-.838,4.748,4.748,0,0,1,3.844,1.629,7.054,7.054,0,0,1,1.371,4.664v.9h-8.59a4.507,4.507,0,0,0,1.1,3.029,3.445,3.445,0,0,0,2.666,1.154,3.768,3.768,0,0,0,1.945-.469,4.886,4.886,0,0,0,1.395-1.242l1.324,1.032A5.326,5.326,0,0,1,170.012,589.469Zm-.27-11.367a2.891,2.891,0,0,0-2.2.955,4.633,4.633,0,0,0-1.1,2.677h6.351v-.164a4.12,4.12,0,0,0-.891-2.56A2.72,2.72,0,0,0,169.742,578.1Z"/><path d="M183.594,578.5a6.467,6.467,0,0,0-1.067-.082,2.856,2.856,0,0,0-2.894,1.816v9h-2.168V576.555h2.109l.035,1.465a3.377,3.377,0,0,1,3.024-1.7,2.221,2.221,0,0,1,.961.164Z"/><path d="M191.539,573.191a1.292,1.292,0,0,1,.322-.89,1.212,1.212,0,0,1,.955-.363,1.228,1.228,0,0,1,.961.363,1.278,1.278,0,0,1,.328.89,1.342,1.342,0,0,1-2.244.879A1.249,1.249,0,0,1,191.539,573.191Zm2.344,16.043h-2.168V576.555h2.168Z"/><path d="M199.4,576.555l.071,1.593a4.621,4.621,0,0,1,3.8-1.828q4.018,0,4.054,4.535v8.379h-2.168v-8.39a2.923,2.923,0,0,0-.627-2.028,2.514,2.514,0,0,0-1.916-.656,3.127,3.127,0,0,0-1.851.563,3.806,3.806,0,0,0-1.242,1.476v9.035h-2.168V576.555Z"/><path d="M213.535,573.484v3.071H215.9v1.675h-2.367V586.1a1.76,1.76,0,0,0,.317,1.144,1.33,1.33,0,0,0,1.078.381,5.238,5.238,0,0,0,1.031-.141v1.748a6.29,6.29,0,0,1-1.664.233,2.7,2.7,0,0,1-2.192-.879,3.777,3.777,0,0,1-.738-2.5V578.23h-2.308v-1.675h2.308v-3.071Z"/><path d="M223.7,589.469a5.541,5.541,0,0,1-4.195-1.694,6.284,6.284,0,0,1-1.617-4.529v-.4a7.6,7.6,0,0,1,.721-3.369,5.619,5.619,0,0,1,2.015-2.321,5.073,5.073,0,0,1,2.807-.838,4.751,4.751,0,0,1,3.844,1.629,7.054,7.054,0,0,1,1.371,4.664v.9h-8.59a4.507,4.507,0,0,0,1.095,3.029,3.447,3.447,0,0,0,2.666,1.154,3.772,3.772,0,0,0,1.946-.469,4.87,4.87,0,0,0,1.394-1.242l1.325,1.032A5.328,5.328,0,0,1,223.7,589.469Zm-.269-11.367a2.889,2.889,0,0,0-2.2.955,4.64,4.64,0,0,0-1.1,2.677h6.352v-.164a4.132,4.132,0,0,0-.891-2.56A2.72,2.72,0,0,0,223.426,578.1Z"/><path d="M237.277,578.5a6.455,6.455,0,0,0-1.066-.082,2.857,2.857,0,0,0-2.9,1.816v9h-2.168V576.555h2.11l.035,1.465a3.376,3.376,0,0,1,3.023-1.7,2.218,2.218,0,0,1,.961.164Z"/><path d="M240.512,589.234v-11h-2v-1.675h2v-1.3a4.315,4.315,0,0,1,1.09-3.152,4.112,4.112,0,0,1,3.082-1.114,5.72,5.72,0,0,1,1.488.2l-.117,1.747a6.169,6.169,0,0,0-1.172-.106,2.117,2.117,0,0,0-1.629.617,2.505,2.505,0,0,0-.574,1.77v1.34h2.707v1.675H242.68v11Z"/><path d="M252.758,589.469a5.543,5.543,0,0,1-4.2-1.694,6.284,6.284,0,0,1-1.617-4.529v-.4a7.613,7.613,0,0,1,.721-3.369,5.614,5.614,0,0,1,2.016-2.321,5.069,5.069,0,0,1,2.806-.838,4.748,4.748,0,0,1,3.844,1.629,7.054,7.054,0,0,1,1.371,4.664v.9h-8.59a4.512,4.512,0,0,0,1.1,3.029,3.445,3.445,0,0,0,2.666,1.154,3.768,3.768,0,0,0,1.945-.469,4.873,4.873,0,0,0,1.395-1.242l1.324,1.032A5.325,5.325,0,0,1,252.758,589.469Zm-.27-11.367a2.891,2.891,0,0,0-2.2.955,4.633,4.633,0,0,0-1.1,2.677h6.351v-.164a4.126,4.126,0,0,0-.89-2.56A2.722,2.722,0,0,0,252.488,578.1Z"/><path d="M266.34,578.5a6.467,6.467,0,0,0-1.067-.082,2.857,2.857,0,0,0-2.894,1.816v9h-2.168V576.555h2.109l.035,1.465a3.377,3.377,0,0,1,3.024-1.7,2.221,2.221,0,0,1,.961.164Z"/><path d="M273.371,589.469a5.539,5.539,0,0,1-4.195-1.694,6.284,6.284,0,0,1-1.617-4.529v-.4a7.613,7.613,0,0,1,.72-3.369,5.629,5.629,0,0,1,2.016-2.321,5.073,5.073,0,0,1,2.807-.838,4.748,4.748,0,0,1,3.843,1.629,7.054,7.054,0,0,1,1.371,4.664v.9h-8.589a4.507,4.507,0,0,0,1.1,3.029,3.445,3.445,0,0,0,2.666,1.154,3.775,3.775,0,0,0,1.946-.469,4.87,4.87,0,0,0,1.394-1.242l1.324,1.032A5.325,5.325,0,0,1,273.371,589.469ZM273.1,578.1a2.893,2.893,0,0,0-2.2.955,4.646,4.646,0,0,0-1.1,2.677h6.351v-.164a4.126,4.126,0,0,0-.89-2.56A2.72,2.72,0,0,0,273.1,578.1Z"/><path d="M282.875,576.555l.07,1.593a4.624,4.624,0,0,1,3.8-1.828q4.02,0,4.055,4.535v8.379h-2.168v-8.39a2.923,2.923,0,0,0-.627-2.028,2.514,2.514,0,0,0-1.916-.656,3.133,3.133,0,0,0-1.852.563,3.823,3.823,0,0,0-1.242,1.476v9.035h-2.168V576.555Z"/><path d="M299.152,587.7a3.122,3.122,0,0,0,2.028-.7,2.477,2.477,0,0,0,.961-1.758h2.05a3.928,3.928,0,0,1-.75,2.074,4.94,4.94,0,0,1-1.845,1.571,5.336,5.336,0,0,1-2.444.586,5.223,5.223,0,0,1-4.119-1.729,6.885,6.885,0,0,1-1.529-4.728v-.364a7.623,7.623,0,0,1,.68-3.293,5.177,5.177,0,0,1,1.951-2.238,5.542,5.542,0,0,1,3.006-.8,5.086,5.086,0,0,1,3.545,1.278,4.563,4.563,0,0,1,1.5,3.316h-2.05a2.987,2.987,0,0,0-.932-2.021,2.9,2.9,0,0,0-2.068-.791,3.035,3.035,0,0,0-2.561,1.189,5.588,5.588,0,0,0-.908,3.439v.411a5.478,5.478,0,0,0,.9,3.375A3.049,3.049,0,0,0,299.152,587.7Z"/><path d="M311.891,589.469a5.541,5.541,0,0,1-4.2-1.694,6.284,6.284,0,0,1-1.617-4.529v-.4a7.6,7.6,0,0,1,.721-3.369,5.619,5.619,0,0,1,2.015-2.321,5.075,5.075,0,0,1,2.807-.838,4.748,4.748,0,0,1,3.844,1.629,7.054,7.054,0,0,1,1.371,4.664v.9h-8.59a4.507,4.507,0,0,0,1.1,3.029,3.445,3.445,0,0,0,2.666,1.154,3.771,3.771,0,0,0,1.945-.469,4.886,4.886,0,0,0,1.4-1.242l1.324,1.032A5.326,5.326,0,0,1,311.891,589.469Zm-.27-11.367a2.891,2.891,0,0,0-2.2.955,4.64,4.64,0,0,0-1.1,2.677h6.352v-.164a4.126,4.126,0,0,0-.891-2.56A2.72,2.72,0,0,0,311.621,578.1Z"/><path class="b" d="M367.457,267.169s35.612-95.62,72.585,0"/><path class="b" d="M721.356,266.066s35.612-95.62,72.585,0"/><line class="c" x1="719.409" y1="267.801" x2="794.765" y2="266.413"/><line class="b" x1="438.693" y1="267.074" x2="719.409" y2="267.265"/><line class="b" x1="355.37" y1="615.657" x2="359.37" y2="615.643"/><line class="c" x1="360.304" y1="616.018" x2="432.89" y2="614.63"/><line class="b" x1="786.206" y1="614.215" x2="790.206" y2="614.201"/><line class="b" x1="790.379" y1="614.201" x2="992.281" y2="614.201"/><line class="b" x1="131.281" y1="615.459" x2="357.316" y2="615.65"/><path class="b" d="M360.305,614.781s35.612-95.62,72.585,0"/><path class="b" d="M714.2,613.677s35.612-95.619,72.585,0"/><line class="c" x1="712.257" y1="615.412" x2="787.613" y2="614.024"/><line class="b" x1="431.541" y1="614.685" x2="712.257" y2="614.876"/></svg>