<?xml version="1.0" encoding="UTF-8"?><svg id="a" xmlns="http://www.w3.org/2000/svg" width="1140" height="280" xmlns:xlink="http://www.w3.org/1999/xlink" viewBox="0 0 1140 280"><defs><style>.d,.e,.f,.g,.h,.i,.j,.k{fill:none;}.l{fill:#fde596;opacity:.1;}.m{fill:#fefdec;}.n{fill:#d12b32;}.e{stroke-dasharray:0 0 5.97 5.97;}.e,.f,.g,.h,.i,.j,.k{stroke-linecap:round;stroke-miterlimit:10;stroke-width:2px;}.e,.g,.h,.i,.j,.k{stroke:#010101;}.f{stroke:#d12b32;}.h{stroke-dasharray:0 0 6.137 6.137;}.i{stroke-dasharray:0 0 5.859 5.859;}.j{stroke-dasharray:0 0 5.944 5.944;}.o{clip-path:url(#b);}.k{stroke-dasharray:0 0 5.84 5.84;}</style><clipPath id="b"><path class="d" d="m105.589,9.541C11.33,25.046,9.198,84.381,10.521,138.778c1.219,50.136-9.55,94.144,75.812,113.617,85.871,19.59,341.825,1.342,486.6,1.342,86.888,0,440.192,68.051,539.817-28.176,19.448-18.784,36.837-162.35-5.023-195.894-56.68-45.419-171.416-13.54-279.627-18.784-63.935-3.099-126.918.8-189.559,1.581-88.394,1.102-169.677,3.352-243.277-.24-76.78-3.747-214.329-15.078-289.674-2.683Z"/></clipPath></defs><path class="m" d="m105.589,9.541C11.33,25.046,9.198,84.381,10.521,138.778c1.219,50.136-9.55,94.144,75.812,113.617,85.871,19.59,341.825,1.342,486.6,1.342,86.888,0,440.192,68.051,539.817-28.176,19.448-18.784,36.837-162.35-5.023-195.894-56.68-45.419-171.416-13.54-279.627-18.784-63.935-3.099-126.918.8-189.559,1.581-88.394,1.102-169.677,3.352-243.277-.24-76.78-3.747-214.329-15.078-289.674-2.683Z"/><g class="o"><polygon class="l" points="0 280 96.638 280 412.051 .692 0 0 0 280"/><polygon class="l" points="856.641 279.21 116.192 0 116.192 280 856.641 279.21"/><polygon class="l" points="965.126 0 695.196 0 114.139 261.672 452.389 276.86 965.126 0"/><polyline class="l" points="1091.699 283.045 1192.198 97.864 891.842 3.045 632.958 3.045 1014.569 281.532"/></g><g id="c"><line class="g" x1="665.398" y1="203.988" x2="1100" y2="203.988"/><line class="g" x1="478.37" y1="203.988" x2="481.37" y2="203.988"/><line class="k" x1="487.209" y1="203.988" x2="659.479" y2="203.988"/><line class="g" x1="662.398" y1="203.988" x2="665.398" y2="203.988"/><line class="g" x1="40" y1="203.988" x2="478.37" y2="203.988"/></g><path class="g" d="m626.912,203.988c0,1.006-.015,2.007-.044,3.002"/><path class="e" d="m626.519,212.951c-3.196,36.145-25.566,64.14-55.001,64.14-30.239,0-52.428-29.544-54.568-67.118"/><path class="g" d="m516.823,206.991c-.028-.996-.042-1.997-.042-3.002"/><path class="g" d="m515.338,87.917c0-1.006.014-2.007.042-3.002"/><path class="j" d="m515.717,78.98c3.094-36.158,24.841-64.165,54.283-64.165,30.239,0,53.349,28.269,55.58,65.717"/><path class="g" d="m625.712,83.5c.029.995.044,1.996.044,3.003"/><path class="g" d="m478.37,203.988c0-45.144,13.24-85.472,34.001-112.079,16.086-20.616,36.689,1.483,59.147,1.483,21.724,0,41.712-22.895,57.555-3.478,21.674,26.563,35.593,67.787,35.593,114.074"/><line class="g" x1="515.338" y1="203.588" x2="515.338" y2="206.588"/><line class="h" x1="515.338" y1="212.725" x2="515.338" y2="271.022"/><line class="g" x1="515.338" y1="274.091" x2="515.338" y2="277.091"/><line class="f" x1="515.338" y1="102.399" x2="515.338" y2="203.588"/><polygon class="n" points="507.36 104.733 515.338 90.917 523.317 104.733 507.36 104.733"/><line class="g" x1="515.338" y1="14.815" x2="515.338" y2="17.815"/><line class="i" x1="515.338" y1="23.673" x2="515.338" y2="67.613"/><line class="g" x1="515.338" y1="70.542" x2="515.338" y2="73.542"/><line class="g" x1="626.757" y1="203.588" x2="626.757" y2="206.588"/><line class="h" x1="626.757" y1="212.725" x2="626.757" y2="271.022"/><line class="g" x1="626.757" y1="274.091" x2="626.757" y2="277.091"/><line class="f" x1="626.757" y1="102.399" x2="626.757" y2="203.588"/><polygon class="n" points="618.779 104.733 626.757 90.917 634.735 104.733 618.779 104.733"/><line class="g" x1="626.757" y1="14.815" x2="626.757" y2="17.815"/><line class="i" x1="626.757" y1="23.673" x2="626.757" y2="67.613"/><line class="g" x1="626.757" y1="70.542" x2="626.757" y2="73.542"/><line class="f" x1="570" y1="26.832" x2="570" y2="263.609"/><polygon class="n" points="562.022 29.167 570 15.35 577.978 29.167 562.022 29.167"/><polygon class="n" points="562.022 261.274 570 275.091 577.978 261.274 562.022 261.274"/></svg>