<?xml version="1.0" encoding="UTF-8"?><svg id="a" xmlns="http://www.w3.org/2000/svg" width="1140" height="562.35" viewBox="0 0 1140 562.35"><path d="M214.358,554.14c-77.631-3.267-171.313-30.644-196.558-73.692C-3.81,443.6-5.96,163.441,12.536,120.325c10.651-24.83,32.322-49.047,68.7-66.503,53.016-25.439,129.31-33.392,201.79-37.592,210.869-12.217,431.915-8.954,641.665,6.379,104.598,7.646,173.889,35.538,199.33,88.275,22.455,46.548,14.283,94.787,15.47,142.197,1.26,50.327-1.237,100.751-7.53,150.989-5.021,40.077-2.73,92.439-65.858,122.596-33.914,16.201-82.299,22.95-129.361,25.722-238.516,14.05-483.273,11.815-722.383,1.752Z" fill="#f7ebd5" stroke-width="0"/><line x1="585.137" y1="160.705" x2="448.629" y2="160.705" fill="none" stroke="#000" stroke-linejoin="round" stroke-width="2"/><circle cx="448.629" cy="160.705" r="6" stroke-width="0"/><line x1="388.613" y1="160.705" x2="441.202" y2="127.481" fill="none" stroke="#000" stroke-linecap="round" stroke-linejoin="round" stroke-width="2"/><circle cx="388.613" cy="160.58" r="6" stroke-width="0"/><polyline points="239.615 253.942 239.615 160.705 388.613 160.705" fill="none" stroke="#000" stroke-linejoin="round" stroke-width="2"/><line x1="282.073" y1="309.987" x2="198.073" y2="309.987" fill="#fff" stroke="#000" stroke-linejoin="round" stroke-width="2"/><line x1="263.135" y1="323.998" x2="216.095" y2="323.998" fill="#fff" stroke="#000" stroke-linejoin="round" stroke-width="2"/><line x1="282.073" y1="338.009" x2="198.073" y2="338.009" fill="#fff" stroke="#000" stroke-linejoin="round" stroke-width="2"/><line x1="263.135" y1="352.02" x2="216.095" y2="352.02" fill="#fff" stroke="#000" stroke-linejoin="round" stroke-width="2"/><path d="M260.78,370.046v-2.393h13.645v2.393h-13.645Z" stroke-width="0"/><line x1="282.073" y1="253.942" x2="198.073" y2="253.942" fill="#fff" stroke="#000" stroke-linejoin="round" stroke-width="2"/><line x1="263.135" y1="267.953" x2="216.095" y2="267.953" fill="#fff" stroke="#000" stroke-linejoin="round" stroke-width="2"/><path d="M268.799,236.82v5.551h-2.393v-5.551h-6.289v-2.543h6.289v-5.551h2.393v5.551h5.811v2.543h-5.811Z" stroke-width="0"/><line x1="282.073" y1="281.964" x2="198.073" y2="281.964" fill="#fff" stroke="#000" stroke-linejoin="round" stroke-width="2"/><line x1="263.135" y1="295.975" x2="216.095" y2="295.975" fill="#fff" stroke="#000" stroke-linejoin="round" stroke-width="2"/><polygon points="941.927 227.66 866.789 227.66 859.364 250.16 859.261 250.16 844.414 205.16 829.569 250.16 814.724 205.16 814.706 205.16 799.861 250.16 785.017 205.16 770.17 250.16 762.746 227.656 755.323 205.16 747.901 227.66 585.137 227.66 585.137 93.749 747.901 93.749 755.323 71.249 762.746 93.746 770.17 116.249 785.017 71.249 799.861 116.249 814.706 71.249 814.724 71.249 829.569 116.249 844.414 71.249 859.261 116.249 859.364 116.249 866.789 93.749 941.927 93.749 941.927 227.66" fill="none" stroke="#000" stroke-linejoin="round" stroke-width="2"/><circle cx="658.852" cy="227.66" r="25" fill="#f7ebd5" stroke="#000" stroke-linecap="round" stroke-linejoin="round" stroke-width="2"/><path d="M663.021,232.252h-8.34l-1.873,5.209h-2.707l7.602-19.906h2.297l7.615,19.906h-2.693l-1.9-5.209ZM655.475,230.105h6.768l-3.391-9.311-3.377,9.311Z" stroke-width="0"/><circle cx="658.852" cy="93.749" r="25" fill="#f7ebd5" stroke="#000" stroke-linecap="round" stroke-linejoin="round" stroke-width="2"/><path d="M663.021,98.341h-8.34l-1.873,5.209h-2.707l7.602-19.906h2.297l7.615,19.906h-2.693l-1.9-5.209ZM655.475,96.195h6.768l-3.391-9.311-3.377,9.311Z" stroke-width="0"/><polyline points="941.927 227.66 941.927 453.601 239.615 453.601 239.615 352.02" fill="none" stroke="#000" stroke-linejoin="round" stroke-width="2"/></svg>