<?xml version="1.0" encoding="UTF-8"?>
<svg id="a" data-name="Layer 1" xmlns="http://www.w3.org/2000/svg" width="1140" height="544.967" viewBox="0 0 1140 544.967">
  <path d="m575.364,22.626c-63.945-1.768-127.869-7.256-191.669-11.041C267.94,4.72,113.798,13.666,39.069,115.319,1.555,166.349,2.355,230.508,9.729,290.439c4.273,34.725,10.141,69.534,22.603,102.284,35.409,93.059,126.4,135.853,222.914,139.757,91.985,3.721,183.991-12.19,275.914-13.676,103.144-1.667,206.402,3.473,308.849,15.387,47.392,5.512,97.623,8.627,143.787-6.553,52.382-17.226,97.63-80.888,121.846-129.815,24.216-48.926,31.567-104.767,28.167-159.104-4.353-69.559-28.454-141.674-83.006-185.995-99.357-80.723-239.576-41.602-355.131-32.502-40.094,3.157-80.205,3.512-120.308,2.404Z" fill="#dcede3" stroke-width="0"/>
  <g>
    <path d="m1024.792,290.928h-7.444l.162-.81c.665,0,1.178-.054,1.537-.162.36-.108.634-.341.823-.702.188-.36.354-.918.499-1.674l2.373-11.583c.108-.503.135-.9.081-1.188-.054-.288-.238-.495-.553-.621-.314-.125-.832-.189-1.551-.189l.162-.81h6.338c1.259,0,2.333.13,3.223.391.891.261,1.573.662,2.05,1.202s.715,1.251.715,2.133c0,.955-.18,1.755-.539,2.403-.36.648-.827,1.179-1.402,1.593-.576.415-1.191.734-1.848.958-.656.226-1.281.392-1.875.5v.135c.324.216.63.544.917.985.288.441.644,1.076,1.065,1.903.423.828,1.003,1.944,1.74,3.348.306.54.643.904,1.012,1.094.368.189.858.283,1.47.283l-.162.81h-4.1c-.504-1.116-.927-2.047-1.268-2.794-.342-.747-.639-1.373-.891-1.876s-.472-.954-.66-1.35c-.189-.396-.392-.801-.607-1.215-.197-.378-.413-.625-.646-.743-.234-.117-.594-.175-1.079-.175h-.81l.189-.999,1.078.027c1.079-.036,2.055-.211,2.927-.526s1.56-.814,2.063-1.499c.503-.684.755-1.602.755-2.754,0-.486-.104-.94-.311-1.364-.206-.423-.562-.765-1.064-1.026-.504-.261-1.205-.392-2.104-.392-.342,0-.616.005-.822.014-.207.009-.463.032-.769.067l-2.697,13.257c-.145.738-.193,1.292-.148,1.661.045.369.247.607.606.715.359.108.926.162,1.699.162l-.135.81Z" stroke-width="0"/>
    <path d="m1040.147,295.92h-5.017l.095-.441c.492,0,.875-.034,1.147-.102s.472-.178.598-.331c.126-.152.215-.359.268-.622l1.415-6.658c.021-.084.037-.157.047-.22.011-.063.017-.121.017-.173,0-.252-.137-.378-.409-.378-.105,0-.236.011-.394.032s-.325.05-.503.086c-.179.037-.356.082-.534.134l.109-.52,3.004-.866h.456l-1.824,8.563c-.011.053-.019.105-.023.158-.006.053-.008.105-.008.157,0,.263.123.451.369.567.246.115.674.173,1.281.173l-.094.441Z" stroke-width="0"/>
  </g>
  <polyline points="170 260.335 170 85.935 970 85.935 970 221.467 992.5 228.889 970.003 236.312 947.5 243.736 992.5 258.583 947.5 273.427 992.5 288.272 992.5 288.29 947.5 303.135 992.5 317.98 947.5 332.827 947.5 332.93 970 340.355 970 475.887 170 475.887 170 304.006" fill="none" stroke="#000" stroke-linecap="round" stroke-linejoin="round" stroke-width="2"/>
  <polyline points="703.349 85.935 703.349 221.467 725.849 228.889 703.352 236.312 680.849 243.736 725.849 258.583 680.849 273.427 725.849 288.272 725.849 288.29 680.849 303.135 725.849 317.98 680.849 332.827 680.849 332.93 703.349 340.355 703.349 475.887" fill="none" stroke="#000" stroke-linejoin="round" stroke-width="2"/>
  <g>
    <path d="m794.927,291.063h-.89l-1.511-14.607c-.071-.611-.18-1.093-.323-1.444-.145-.351-.355-.607-.634-.77-.279-.162-.661-.243-1.146-.243l.054-.81h6.608l-.081.81c-.684,0-1.223.135-1.618.405s-.576.711-.539,1.323c0,.09.013.252.04.486s.04.396.04.486l.81,7.695.188,3.159h.135l1.564-2.376,5.799-8.694c.252-.36.454-.693.607-.999.152-.306.229-.567.229-.783,0-.27-.117-.454-.351-.553-.234-.099-.657-.149-1.269-.149l.055-.81h5.825l-.054.81c-.359,0-.679.037-.957.108-.279.072-.544.211-.796.418s-.526.5-.822.877c-.297.378-.652.873-1.065,1.485l-9.899,14.175Z" stroke-width="0"/>
    <path d="m811.826,295.92h-6.133l.11-.535,2.877-2.361c.598-.524,1.106-.986,1.525-1.385.419-.398.758-.771,1.015-1.117.257-.347.442-.695.558-1.047s.174-.737.174-1.157c0-.461-.132-.834-.394-1.118-.262-.283-.65-.425-1.164-.425s-.967.116-1.359.346c-.394.231-.815.64-1.267,1.228l-.346-.158c.44-.745.946-1.333,1.518-1.763s1.266-.646,2.084-.646c.744,0,1.331.2,1.761.598.43.399.645.934.645,1.605,0,.546-.126,1.05-.377,1.511-.252.462-.635.942-1.148,1.44s-1.169,1.078-1.966,1.739l-2.421,1.968-.016.079,1.054-.047h2.186c.283,0,.511-.042.684-.126.173-.083.333-.217.479-.401.146-.183.314-.433.503-.748h.456l-1.037,2.519Z" stroke-width="0"/>
    <path d="m828.638,281.389h-9.764v-1.887h9.764v1.887Zm0,4.863h-9.764v-1.875h9.764v1.875Z" stroke-width="0"/>
    <path d="m844.722,290.928h-2.178v-14.449l-4.366,1.605v-1.969l6.204-2.332h.34v17.145Z" stroke-width="0"/>
    <path d="m861.755,283.651c0,2.539-.434,4.426-1.3,5.66s-2.22,1.852-4.062,1.852c-1.818,0-3.165-.604-4.039-1.811s-1.327-3.01-1.357-5.408v-2.895c0-2.508.433-4.371,1.299-5.59s2.225-1.828,4.074-1.828c1.834,0,3.184.588,4.05,1.764s1.312,2.99,1.335,5.443v2.812Zm-2.166-2.965c0-1.836-.257-3.174-.772-4.014-.515-.84-1.33-1.26-2.446-1.26-1.108,0-1.916.418-2.424,1.254-.507.836-.769,2.121-.784,3.855v3.469c0,1.844.268,3.205.802,4.084.535.879,1.345,1.318,2.43,1.318,1.069,0,1.863-.414,2.382-1.242.52-.828.79-2.133.813-3.914v-3.551Z" stroke-width="0"/>
    <path d="m876.669,287.94l4.87-14.074h2.458l-6.321,17.062h-1.99l-6.31-17.062h2.446l4.847,14.074Z" stroke-width="0"/>
  </g>
  <g>
    <g>
      <line x1="128.047" y1="289.652" x2="212.047" y2="289.652" fill="#fff" stroke="#000" stroke-linejoin="round" stroke-width="2"/>
      <line x1="146.527" y1="303.663" x2="193.567" y2="303.663" fill="#fff" stroke="#000" stroke-linejoin="round" stroke-width="2"/>
    </g>
    <g>
      <line x1="128.047" y1="261.63" x2="212.047" y2="261.63" fill="#fff" stroke="#000" stroke-linejoin="round" stroke-width="2"/>
      <line x1="146.527" y1="275.641" x2="193.567" y2="275.641" fill="#fff" stroke="#000" stroke-linejoin="round" stroke-width="2"/>
    </g>
  </g>
  <g>
    <path d="m1010.975,151.857c0,2.539-.434,4.426-1.301,5.66s-2.223,1.852-4.066,1.852c-1.82,0-3.168-.604-4.043-1.811s-1.328-3.01-1.359-5.408v-2.895c0-2.508.434-4.371,1.301-5.59s2.227-1.828,4.078-1.828c1.836,0,3.188.588,4.055,1.764s1.312,2.99,1.336,5.443v2.812Zm-2.168-2.965c0-1.836-.258-3.174-.773-4.014s-1.332-1.26-2.449-1.26c-1.109,0-1.918.418-2.426,1.254s-.77,2.121-.785,3.855v3.469c0,1.844.268,3.205.803,4.084s1.346,1.318,2.432,1.318c1.07,0,1.865-.414,2.385-1.242s.791-2.133.814-3.914v-3.551Z" stroke-width="0"/>
    <path d="m1014.021,157.998c0-.375.111-.688.334-.938s.557-.375,1.002-.375.783.125,1.014.375.346.562.346.938c0,.359-.115.66-.346.902s-.568.363-1.014.363-.779-.121-1.002-.363-.334-.543-.334-.902Z" stroke-width="0"/>
    <path d="m1027.193,159.134h-2.18v-14.449l-4.371,1.605v-1.969l6.211-2.332h.34v17.145Z" stroke-width="0"/>
    <path d="m1044.244,151.857c0,2.539-.434,4.426-1.301,5.66s-2.223,1.852-4.066,1.852c-1.82,0-3.168-.604-4.043-1.811s-1.328-3.01-1.359-5.408v-2.895c0-2.508.434-4.371,1.301-5.59s2.227-1.828,4.078-1.828c1.836,0,3.188.588,4.055,1.764s1.312,2.99,1.336,5.443v2.812Zm-2.168-2.965c0-1.836-.258-3.174-.773-4.014s-1.332-1.26-2.449-1.26c-1.109,0-1.918.418-2.426,1.254s-.77,2.121-.785,3.855v3.469c0,1.844.268,3.205.803,4.084s1.346,1.318,2.432,1.318c1.07,0,1.865-.414,2.385-1.242s.791-2.133.814-3.914v-3.551Z" stroke-width="0"/>
    <path d="m1062.947,154.67h-7.148l-1.605,4.465h-2.32l6.516-17.062h1.969l6.527,17.062h-2.309l-1.629-4.465Zm-6.469-1.84h5.801l-2.906-7.98-2.895,7.98Z" stroke-width="0"/>
  </g>
  <g>
    <path d="m560.201,291.64h-7.444l.162-.81c.665,0,1.178-.054,1.537-.162.36-.108.634-.341.823-.702.188-.36.354-.918.499-1.674l2.373-11.583c.108-.503.135-.9.081-1.188-.054-.288-.238-.495-.553-.621-.314-.125-.832-.189-1.551-.189l.162-.81h6.338c1.259,0,2.333.13,3.223.391.891.261,1.573.662,2.05,1.202s.715,1.251.715,2.133c0,.955-.18,1.755-.539,2.403-.36.648-.827,1.179-1.402,1.593-.576.415-1.191.734-1.848.958-.656.226-1.281.392-1.875.5v.135c.324.216.63.544.917.985.288.441.644,1.076,1.065,1.903.423.828,1.003,1.944,1.74,3.348.306.54.643.904,1.012,1.094.368.189.858.283,1.47.283l-.162.81h-4.1c-.504-1.116-.927-2.047-1.268-2.794-.342-.747-.639-1.373-.891-1.876s-.472-.954-.66-1.35c-.189-.396-.392-.801-.607-1.215-.197-.378-.413-.625-.646-.743-.234-.117-.594-.175-1.079-.175h-.81l.189-.999,1.078.027c1.079-.036,2.055-.211,2.927-.526s1.56-.814,2.063-1.499c.503-.684.755-1.602.755-2.754,0-.486-.104-.94-.311-1.364-.206-.423-.562-.765-1.064-1.026-.504-.261-1.205-.392-2.104-.392-.342,0-.616.005-.822.014-.207.009-.463.032-.769.067l-2.697,13.257c-.145.738-.193,1.292-.148,1.661.045.369.247.607.606.715.359.108.926.162,1.699.162l-.135.81Z" stroke-width="0"/>
    <path d="m575.698,296.631h-6.133l.11-.535,2.877-2.361c.598-.524,1.106-.986,1.525-1.385.419-.398.758-.771,1.015-1.117.257-.347.442-.695.558-1.047s.174-.737.174-1.157c0-.461-.132-.834-.394-1.118-.262-.283-.65-.425-1.164-.425s-.967.116-1.359.346c-.394.231-.815.64-1.267,1.228l-.346-.158c.44-.745.946-1.333,1.518-1.763s1.266-.646,2.084-.646c.744,0,1.331.2,1.761.598.43.399.645.934.645,1.605,0,.546-.126,1.05-.377,1.511-.252.462-.635.942-1.148,1.44s-1.169,1.078-1.966,1.739l-2.421,1.968-.016.079,1.054-.047h2.186c.283,0,.511-.042.684-.126.173-.083.333-.217.479-.401.146-.183.314-.433.503-.748h.456l-1.037,2.519Z" stroke-width="0"/>
    <path d="m595.969,282.101h-9.764v-1.887h9.764v1.887Zm0,4.863h-9.764v-1.875h9.764v1.875Z" stroke-width="0"/>
    <path d="m605.931,283.086l.866-8.508h8.733v2.004h-6.896l-.515,4.652c.835-.492,1.783-.738,2.845-.738,1.553,0,2.786.514,3.699,1.541s1.37,2.416,1.37,4.166-.475,3.143-1.423,4.154-2.273,1.518-3.975,1.518c-1.506,0-2.735-.418-3.688-1.254s-1.494-1.992-1.627-3.469h2.049c.133.977.479,1.713,1.042,2.209.562.496,1.303.744,2.224.744,1.007,0,1.797-.344,2.371-1.031.573-.688.86-1.637.86-2.848,0-1.141-.311-2.057-.931-2.748s-1.446-1.037-2.476-1.037c-.945,0-1.687.207-2.225.621l-.573.469-1.733-.445Z" stroke-width="0"/>
    <path d="m629.086,284.363c0,2.539-.434,4.426-1.3,5.66s-2.22,1.852-4.062,1.852c-1.818,0-3.165-.604-4.039-1.811s-1.327-3.01-1.357-5.408v-2.895c0-2.508.433-4.371,1.299-5.59s2.225-1.828,4.074-1.828c1.834,0,3.184.588,4.05,1.764s1.312,2.99,1.335,5.443v2.812Zm-2.166-2.965c0-1.836-.257-3.174-.772-4.014-.515-.84-1.33-1.26-2.446-1.26-1.108,0-1.916.418-2.424,1.254-.507.836-.769,2.121-.784,3.855v3.469c0,1.844.268,3.205.802,4.084.535.879,1.345,1.318,2.43,1.318,1.069,0,1.863-.414,2.382-1.242.52-.828.79-2.133.813-3.914v-3.551Z" stroke-width="0"/>
    <path d="m645.333,291.64h-7.12l-.566-4.779h.782c.162.612.319,1.107.472,1.485.153.378.369.657.647.837.278.18.67.27,1.174.27h2.454v-.162c-.504-.378-1.029-.814-1.578-1.31-.549-.495-1.057-1.066-1.523-1.714-.468-.648-.846-1.399-1.133-2.254-.288-.855-.432-1.832-.432-2.93,0-1.494.359-2.803,1.079-3.928.719-1.125,1.717-2.002,2.993-2.633,1.277-.63,2.742-.945,4.396-.945,1.673,0,3.129.315,4.37.945,1.24.63,2.202,1.508,2.886,2.633.683,1.125,1.024,2.426,1.024,3.901,0,1.098-.152,2.075-.458,2.93-.307.855-.697,1.611-1.174,2.268-.477.658-.979,1.233-1.51,1.728-.531.496-1.03.932-1.497,1.31v.162h2.266c.539,0,.948-.09,1.227-.27.279-.18.504-.463.675-.851.171-.387.346-.877.526-1.471h.781l-.62,4.779h-7.039v-1.944c.845-.684,1.56-1.499,2.144-2.444.585-.945,1.025-1.944,1.322-2.997.297-1.053.444-2.075.444-3.065,0-2.034-.485-3.622-1.456-4.765s-2.284-1.715-3.938-1.715c-1.709,0-3.058.581-4.046,1.742-.989,1.161-1.483,2.741-1.483,4.738,0,.972.144,1.994.432,3.065.287,1.071.724,2.083,1.308,3.037.584.955,1.309,1.765,2.171,2.43v1.917Z" stroke-width="0"/>
  </g>
  <polyline points="157.778 188.722 170.048 168.723 182.315 188.723" fill="none" stroke="#000" stroke-linejoin="round" stroke-width="2"/>
</svg>