<?xml version="1.0" encoding="UTF-8"?><svg id="a" xmlns="http://www.w3.org/2000/svg" width="570" height="321" xmlns:xlink="http://www.w3.org/1999/xlink" viewBox="0 0 570 321"><defs><clipPath id="b"><path d="m534.84,280.32s-27.52,40.83-127.22,20.12c-54.6-11.34-112.87-4.57-172.6,2.9-41.12,5.14-83.68,17.22-127.37,12.96-35.26-3.44-71.59-21.87-88.69-76.33C7.6,203.79,4.03,165.2,2.75,127.23,1.67,94.98-5.82,48.46,18.73,23.94,30.68,12,47.29,6.84,63.55,4.99c59.75-6.79,120.26,1.45,180.13.3,50.45-.97,99.07-2.77,146.08-3.77,63.86-1.36,179.27-8.87,179.09,151.94-.12,102.78-34.01,126.86-34.01,126.86Z" fill="none" stroke-width="0"/></clipPath></defs><g clip-path="url(#b)"><rect x="-6.61" y="-36.66" width="614.42" height="409.09" fill="#c0eef2" stroke-width="0"/><path d="m68.42,167.7s1.68-6.71,19.3-6.71h22.47s15.94-10.07,26.01-10.07,25.17,1.68,32.72,2.52c7.55.84,14.26,5.03,26.85,5.03s20.97-1.68,31.88,4.19c10.91,5.87,6.71,11.75-3.36,11.75s-160.25-.84-164.44-.84,4.38-6.71,8.58-5.87Z" fill="#e1fffc" stroke-width="0"/><path d="m546.98,91.51s-7.24-13.53-29.9-12.9c-22.34.62-31.47,10.07-31.47,10.07,0,0-28.95-10.7-48.15-3.78-14.7,5.3-18.88,12.27-18.88,12.27,0,0-26.44-2.83-26.44,4.72s4.72,8.5,25.49,9.44c20.77.94,118.97-.94,118.97-.94,0,0-7.87,2.05-3.15,9.6,4.27,6.83,60.3,3.36,70.96,2.64,1.63-.11,3.19-.83,4.21-2.11,1.53-1.92,1.91-5.02-6.08-8.4-7.08-2.99-24.39-3.62-24.39-3.62,0,0,10.39-20.77-31.16-17Z" fill="#e1fffc" stroke-width="0"/><path d="m234.17,247.23s10.07-7.55,23.49-5.87c13.42,1.68,19.3,5.03,19.3,5.03,0,0,25.17-3.36,39.43,3.36,14.26,6.71,15.94,9.23,10.91,10.07-5.03.84-107.39-.84-107.39-.84,0,0-4.19-7.55.84-8.39,5.03-.84,13.42-3.36,13.42-3.36Z" fill="#e1fffc" stroke-width="0"/><path d="m395.13,177.21s-.01.05.01-.03c.01,0-.02-.12-.08-.13,0,0-.02-.01-.03-.01.19-.06.59-.35.76-.46,4.2-3.06,8.43-7.09,10.02-12.1,1.49-5.5-1.22-11.25-3.07-16.4-2.23-5.31-4.89-10.6-8.43-15.14-1.29-1.57-2.68-3.16-4.49-3.99-.44-.18-.85-.27-1.3-.23-1.42.23-2.83.64-3.95,1.39-.95.63-1.79,1.65-1.98,2.75v-.18c.1,1.27.11,2.57-.47,3.76-.04.09-.15.12-.24.08-.91-1.04-1.22-2.45-1.36-3.78.49-3.88,4.61-5.86,8.05-6.25,7.15.06,13.97,14.92,16.36,20.71,3.67,9.41,6.24,17.88-2.21,25.61-2.18,1.96-4.66,3.73-7.49,4.55-.16.03-.42.02-.39-.19.07-.32.42-.26.3.04h0Z" fill="#3a3f3d" stroke-width="0"/><path d="m341.07,159.93c-3.46-.86-5.97-3.36-8.48-5.72-2.47-2.35-4.26-5.52-5.71-8.58-2.97-6.01-6.8-11.53-9.06-17.91-.05-.14.15-.27.25-.15,2.37,2.49,4.15,5.34,5.86,8.22,2.62,4.22,4.97,8.73,7.38,13.07,2.54,4.33,6.66,6.91,9.91,10.83.09.1-.01.29-.15.25h0Z" fill="#3a3f3d" stroke-width="0"/><path d="m315.53,173.21c.06-3.2.1-6.16-1.36-9.09-.1-.19-.54-1.3-.71-1.34-.02-.03-.25-.04-.57.03-7.36,2.47-10.8-.41-13.73-6.97-1.72-3.7-3.75-3.83-7.28-2.3-.14.08-.29-.15-.15-.25,1.37-1.13,2.97-2.13,4.89-1.93,5.21,1.06,4.93,9.05,10.13,9.96,1.44.27,2.82.03,4.36-.46,1.22-.42,3.01-.91,4.14.31,2.08,2.78,3.89,9.8.52,12.19-.12.07-.26-.03-.24-.16h0Z" fill="#3a3f3d" stroke-width="0"/><path d="m302.69,45.43c-1.71,3.5-.79,7.73-1.87,11.33,0,.38.24,1.52.32,1.97,1.98,10.52,6.49,20.73,9.35,31.15,1.08,3.66,2.04,7.57,2.39,11.5,1.18,5.07,5.06,9.15,9.06,12.29,3.57,3.09,7.16,6.16,10.59,9.41l-.82-.09c2.29-1.03,4.6-2.01,6.95-2.9.08-.03.16.01.19.09.02.06,0,.14-.06.17-2.09,1.39-4.23,2.7-6.4,3.96-.25.14-.55.11-.76-.05-3.78-2.88-7.41-5.94-11.05-8.98-4.14-3.09-8.78-7.83-10-13.43-.37-3.8-1.29-7.53-2.41-11.29-1.48-5.17-3.89-12.58-5.52-17.79-1.36-4.45-2.84-9.03-3.46-13.7-.08-.79-.35-1.79-.22-2.65.18-.68.28-.61.39-1.13.67-3.34.79-7.12,3.09-10.04.05-.06.14-.07.2-.03.07.06.07.14.02.21h0Z" fill="#3a3f3d" stroke-width="0"/><path d="m274.34,89.99c-1.36,3.2-1.33,6.98-1.35,10.41.16.7.29,1.49.28,2.18-.17,5.54-.19,11.47,3.87,15.67,2.99,3.42,8.46,5.69,8.74,10.89.1.96.69,1.61,1.5,2.24,3.17,2.29,7.67,3.22,10.27,6.47,2.09,3.17.92,7.19-.77,10.16-.08.13-.3.06-.28-.1.66-7.95,1.03-9.17-6.64-12.42-2.73-1.23-6.53-3.01-6.51-6.64-.23-2.39-2.49-4.13-4.72-5.99-7.04-5.38-8.06-11.98-7.38-20.27.07-.84-.15-1.44-.17-2.13.28-3.71.63-7.62,2.96-10.67.05-.06.14-.07.2-.01.06.06.06.13.02.2h0Z" fill="#3a3f3d" stroke-width="0"/><path d="m348.31,13.92c-.78.47-1.57.89-2.36,1.33l.26-.41c.72,5.42,1.26,10.91,2.44,16.23,3.82,15.97,15.18,29.48,28.76,38.31,0,0,4.74,4.96,4.74,4.96.16.16.26.37.28.59.45,3.68.87,7.37,1.16,11.07.06.59-.64,1.03-1.14.7-1.54-.94-3.07-1.9-4.6-2.87-1.51-1-3.04-1.96-4.53-2.99-.07-.05-.08-.14-.04-.21.04-.06.12-.08.18-.05,3.29,1.51,6.53,3.12,9.74,4.79,0,0-1.13.76-1.13.76-.33-1.82-.63-3.64-.9-5.46-.28-1.82-.53-3.65-.78-5.48l.28.59-4.83-4.87c-13.11-7.79-25.92-23.05-29.23-39.38-1.15-5.54-1.6-11.13-1.27-16.73,0-.16.12-.29.26-.33.86-.27,1.72-.56,2.59-.8.16-.05.26.19.12.27h0Z" fill="#3a3f3d" stroke-width="0"/><line x1="399.36" y1="346.5" x2="-65.41" y2="153.42" fill="none" stroke="#3a3f3d" stroke-miterlimit="10" stroke-width="3"/><line x1="356.62" y1="244.43" x2="108.54" y2="364.98" fill="none" stroke="#5b5e5d" stroke-miterlimit="10" stroke-width="2"/><line x1="129.5" y1="-14.57" x2="576.91" y2="308.44" fill="none" stroke="#5b5e5d" stroke-miterlimit="10" stroke-width="2"/><line x1="153.9" y1="-73.54" x2="582.66" y2="273.85" fill="none" stroke="#5b5e5d" stroke-miterlimit="10" stroke-width="2"/><line x1="207.29" y1="-112.65" x2="618.09" y2="255.8" fill="none" stroke="#5b5e5d" stroke-miterlimit="10" stroke-width="2"/><path d="m361.38,250.84c8.47,5.37,15.74,12.34,23.5,18.63,2.21,6.97,4.34,14.69,2.06,21.91-2.33,6.34-9.49,7.27-14.76,4.01-1.59-.92-3.03-2.05-4.24-3.41l.19-.22c5.18,3.24,14.02,6.31,16.72-1.14,1.85-6.55-.21-13.72-2.1-20.07,0,0,.35.5.35.5-3.76-3.21-7.48-6.46-11.2-9.71-3.75-3.25-7.48-6.49-10.71-10.29,0,0,.19-.22.19-.22h0Z" fill="#3a3f3d" stroke-width="0"/><path d="m-6.59,70.51c6.41,1.94,16.48,6.22,22.88,8.65,106.28,43.72,230.48,98.61,336.14,144.52,40.8,29.43,111.44,79.84,151.11,109.45,7.1,5.32,14.22,10.61,21.27,16l-.26.36c-7.36-4.95-14.65-10.01-21.96-15.03-40.23-27.77-111.1-78.83-151.8-107.88C242.95,179.75,113.07,123.63,4.52,75.69c0,0-5.58-2.44-5.58-2.44l-2.79-1.21c-.92-.38-1.9-.82-2.79-1.09l.05-.44h0Z" fill="#3a3f3d" stroke-width="0"/><path d="m355.45,282.47c-1.48-.04-2.18-.91-3.06-1.59-.86-.7-1.7-1.42-2.51-2.18-.81-.76-1.58-1.56-2.33-2.37-.75-.82-1.61-1.52-1.79-2.95l.2-.21c1.43.09,2.19.9,3.06,1.6.86.7,1.71,1.42,2.51,2.17.81.76,1.58,1.55,2.34,2.36.74.83,1.65,1.48,1.78,2.95l-.2.21h0Z" fill="#3a3f3d" stroke-width="0"/><path d="m393.41,198.97c3.56,4.73,5.59,10.29,7.41,15.84,2.74,8.33,4.04,17.27,3.55,26.05-.47,8.71-1.04,17.65-4.58,25.77,0,0-.28-.09-.28-.09l1.11-8.59c2.01-14.14,2.43-28.72-1.88-42.51-1.6-5.52-3.84-10.77-5.6-16.33l.26-.14h0Z" fill="#3a3f3d" stroke-width="0"/><path d="m388.43,147.85c3.17,1.56,6.29,3.21,9.38,4.92,0,0,.24.13.24.13l.1.31c3.32,10.51,5.76,21.25,7.82,32.07,1.87,10.85,3.73,22.17,1.52,33.12-2.76,13.18-9.49,27.42-20.38,35.75-2.28,1.7-5.08,2.64-7.8,3.34-5.31,1.5-10.71,2.69-16.19,3.31l-.05-.29c5.3-1.42,10.53-3.03,15.72-4.73,2.52-.82,5.05-1.62,7.16-3.27,10.25-8.04,16.62-22,19.21-34.56,1.07-5.3,1.11-10.7.72-16.07-.89-10.86-2.98-21.64-5.36-32.28-1.23-5.33-2.52-10.66-3.81-15.97l.34.44c-2.96-1.92-5.89-3.9-8.75-5.96,0,0,.15-.25.15-.25h0Z" fill="#3a3f3d" stroke-width="0"/><path d="m410.14,207.68c.64,8.6-.26,17.38-2.77,25.68-1.81,4.93-4.44,9.45-7.29,13.83-2.74,3.91-5.57,8.15-9.68,10.84-1.98,1.05-4.21,1.62-6.31,2.21-6.69,1.71-13.41,3.1-20.31,3.43l-.05-.29c6.51-2.11,13.23-3.36,19.79-5.2,3.16-.89,6.23-1.84,8.43-4.39,4.51-4.87,8.17-10.74,11.24-16.64,3.26-5.96,4.18-12.68,5.07-19.34.47-3.37.92-6.74,1.58-10.13h.29Z" fill="#3a3f3d" stroke-width="0"/><path d="m327.56,338.36c1.55-18.52,5.44-36.69,8.34-55.02,2.47-13.71,4.81-27.42,7.78-41.04.28-1.04.4-2.01.91-3.02.14-.2.14-.16.17-.2,2.86-2.69,7.08-3.27,10.79-3.01,0,0,0,.29,0,.29-3.41.55-7.01,1.4-9.44,3.88-.18.22.08-.16-.02.04-.14.44-.43,1.94-.54,2.43-3.73,19.76-8.49,48.55-12.13,68.43-1.66,9.12-3.08,18.29-5.58,27.27l-.29-.05h0Z" fill="#3a3f3d" stroke-width="0"/><path d="m388.42,238.98c2.98,7.07,4.71,14.61,6.59,22.04,1.6,7.04,3.65,14.07,4.01,21.33-.02.54-.06,1.13-.33,1.67-.3.58-.95.95-1.62.84-.49-.1-.83-.37-1.14-.72-2.06-3.17-2.75-6.95-3.88-10.49-2.91-11.09-5.72-22.2-7.32-33.56,0,0-.06-.47-.06-.47,1.27-.25,2.63-.47,3.75-.63h0Zm-.15.26l-2.96,1.2.33-.55c3.25,10.96,5.44,22.16,8.66,33.12,1.02,3.22,1.77,6.66,3.46,9.57,0,0,.03.04.03.04,0,0-.03-.03-.05-.04-.02-.01-.18-.1-.27-.1-.36-.08-.75.11-.92.41.24-3.35-.71-6.88-1.27-10.24-.74-3.71-1.53-7.43-2.37-11.14-1.44-6.24-3.74-15.39-4.62-21.65,0,0-.05-.36-.05-.36l-.02-.18v-.09s-.06-.07.04,0h0Z" fill="#3a3f3d" stroke-width="0"/><path d="m387.18,240.12c2.37,7.29,3.45,14.96,4.7,22.52,1,7.15,2.44,14.33,2.18,21.59-.06.53-.16,1.12-.47,1.63-.35.55-1.03.87-1.69.7-.48-.14-.8-.44-1.07-.82-1.78-3.33-2.15-7.16-2.97-10.78-1.96-11.29-3.81-22.6-4.44-34.06,0,0-.02-.48-.02-.48,1.28-.14,2.66-.24,3.79-.31h0Zm-.17.24l-3.05.94.38-.52c2.3,11.2,3.54,22.55,5.81,33.73.74,3.29,1.2,6.79,2.64,9.83.01.01.02.03.03.04,0,0-.03-.04-.05-.04-.02-.02-.17-.12-.26-.12-.35-.11-.76.04-.95.33.52-3.32-.12-6.91-.39-10.31-.42-3.76-.89-7.54-1.41-11.3-.9-6.34-2.41-15.65-2.76-21.97,0,0-.02-.36-.02-.36v-.18s-.01-.09-.01-.09c.01-.03-.04-.08.06,0h0Z" fill="#3a3f3d" stroke-width="0"/><path d="m394.87,286.07c-1.78-3.63-2.45-7.5-3.37-11.32-.91-3.82-1.74-7.65-2.58-11.49-.79-3.84-1.59-7.68-2.32-11.54-.74-3.85-1.63-7.68-1.55-11.71l.29-.06c3.05,7.18,4.07,15.25,5.95,22.8.8,3.84,1.6,7.68,2.33,11.54.72,3.86,1.69,7.66,1.54,11.71l-.29.06h0Z" fill="#3a3f3d" stroke-width="0"/><path d="m356.79,277.93c-1.48-.04-2.18-.91-3.06-1.59-.86-.7-1.7-1.42-2.51-2.18-.81-.76-1.58-1.56-2.33-2.37-.75-.82-1.61-1.52-1.79-2.95l.2-.21c1.43.09,2.19.9,3.06,1.6.86.7,1.71,1.42,2.51,2.17.81.76,1.58,1.55,2.34,2.36.74.83,1.65,1.48,1.78,2.95l-.2.21h0Z" fill="#3a3f3d" stroke-width="0"/><path d="m325.01,212.53c3.8-3.24,9.41-2.21,13.93-1.9,4.64.39,9.25.93,13.78.73,9.43,0,17.19-5.82,25.83-8.78,0,0,.15.25.15.25-3.6,3.12-7.79,5.26-12.05,7.27-4.25,2.09-9.06,3.59-13.83,3.67-4.8.15-9.49-.43-14.1-.99-4.52-.46-9.11-1.28-13.51-.03,0,0-.19-.22-.19-.22h0Z" fill="#3a3f3d" stroke-width="0"/><path d="m362.73,275.03c-13.4,6.15-27.36,10.69-41.19,15.59-27.69,9.74-55.45,19.24-83.29,28.52-13.94,4.64-27.78,9.5-42.09,12.95,0,0-.14-.42-.14-.42,26.97-11.61,55.15-20.15,82.77-30.04,13.89-4.72,27.78-9.46,41.7-14.09,13.93-4.61,27.74-9.58,42.1-12.94l.14.42h0Z" fill="#3a3f3d" stroke-width="0"/><path d="m365.86,285.2c-13.75,5.33-27.96,9.02-42.06,13.08-28.22,8.05-56.51,15.85-84.86,23.44-14.19,3.79-28.31,7.8-42.8,10.39,0,0-.12-.42-.12-.42,27.63-9.96,56.26-16.78,84.44-24.98,14.15-3.87,28.3-7.77,42.48-11.55,14.19-3.76,28.27-7.89,42.8-10.37l.12.42h0Z" fill="#3a3f3d" stroke-width="0"/><path d="m358.57,267.78c-6.23-2.62-10.22-2.14-11.83,5.06-1.17,5.33-1.88,11.33,5.13,12.19,3.3.39,7.71-1.34,6.96-5.31,0,0,.27-.11.27-.11.59.83.91,1.97.68,3.12-1.6,5.59-10.58,5.65-14.08,1.82-1.63-1.69-2.24-4.12-2.13-6.26.37-4.13.83-8.36,3.67-11.71,3.03-3.62,8.86-2.4,11.5.96,0,0-.18.23-.18.23h0Z" fill="#3a3f3d" stroke-width="0"/><path d="m306.16,198.88c-2.43-.59-4.83-1.26-7.23-1.95,0,0,.9-.61.9-.61.18,10.07.27,20.18,1.29,30.2,1.07,9.84,2.39,20.06,6.58,29.05,2.05,4.53,5.98,7.76,9.48,11.16,3.68,3.38,7.61,6.5,11.86,9.06,8.19,4.93,19.4,8.06,27.74,1.94,0,0,.21.2.21.2-7.82,7.9-20.55,4.78-29.02-.33-4.45-2.61-8.53-5.77-12.34-9.18-3.76-3.54-7.86-7-10.07-11.79-4.45-9.4-5.7-19.72-6.7-29.89-.78-10.14-1.19-20.31-.4-30.46,0,0,.08-.95.08-.95,2.58,1.06,5.16,2.12,7.7,3.29l-.1.28h0Z" fill="#3a3f3d" stroke-width="0"/><path d="m355.09,277.17c-7.13,8.79-19.87,9.07-29.44,4.32-8.4-4-15.66-10.11-21.65-17.13-8.39-12.47-8.36-35.21-8.28-49.99.11-5.47.34-10.93.93-16.39,1.8,0,3.6.04,5.39.07,0,0-.68.8-.68.8-.22-2.04-.43-4.09-.6-6.14,1.48.19,2.96.37,4.44.6l-.02.29c-1.33.03-2.66.01-3.99,0l.44-.48c.45,2.08.85,4.18,1.26,6.27-1.82.09-3.65.2-5.46.27,0,0,.83-.78.83-.78-.48,10.31-.71,20.68-.08,30.98.49,7.69,1.25,15.4,3.29,22.82,1.02,3.64,2.27,7.19,4.45,10.27,8.67,9.9,21.29,20.5,35.18,19.67,4.96-.33,9.9-2.26,13.77-5.66l.22.19h0Z" fill="#3a3f3d" stroke-width="0"/><path d="m317.4,178.35l-.79-6.87s0-.02,0-.03c-.07-.6-1.07-.98-2.24-.85s-2.06.73-1.99,1.34l.8,6.97h0c.11.58,1.09.94,2.24.81s2.02-.7,1.99-1.29h0s0-.01,0-.01c0,0,0-.02,0-.03s0-.02,0-.03Z" fill="#bcc1bf" stroke-width="0"/><path d="m316.98,172.83c-.67.83-.88.64-1.22.73-.31.08-.58.16-.85.25-.43.12-.86.32-1.29.51-.16.03-.87.07-1.19-.21-.26-.43-.26-.78-.16-1.05.66-1.2,2.17-1.91,3.53-1.66.51.11,1.14.07,1.27,1.15l-.09.28h0Z" fill="#79827e" stroke-width="0"/><polygon points="364.7 169.99 359.85 177.62 358.82 173.16 363.28 166.94 364.7 169.99" fill="#4e5452" stroke-width="0"/><polygon points="356.62 184.73 370 184.49 367.05 187.99 356.16 188.74 356.62 184.73" fill="#4e5452" stroke-width="0"/><polygon points="341.15 189.33 329.58 189.33 329.58 186.16 340.06 185.45 341.15 189.33" fill="#4e5452" stroke-width="0"/><polygon points="344 197.74 331.23 204.83 329.29 201.34 342.68 192.65 344 197.74" fill="#4e5452" stroke-width="0"/><path d="m397.38,234.8l-5.45-47.55c0-.07,0-.13,0-.2-.48-4.18-7.44-6.81-15.54-5.88s-14.29,5.07-13.81,9.25l5.53,48.23h.03c.76,4.01,7.56,6.5,15.48,5.6,7.92-.91,13.98-4.88,13.81-8.95h0s-.01-.09-.01-.09c0-.07,0-.13,0-.2s-.03-.13-.04-.2Z" fill="#bcc1bf" stroke-width="0"/><path d="m397.27,235.01c-4.53-7.54-21.3-5.54-26.92-.1-1,.92-1.79,1.94-2.14,3.43l-.29.03c-.29-.75-.34-1.65-.11-2.48,2.75-7.49,16.5-9.45,23.28-7.33,2.89.78,6.94,2.81,6.46,6.41,0,0-.29.03-.29.03h0Z" fill="#79827e" stroke-width="0"/><path d="m382.02,139.28c-.9-.41-.91-.88-1-1.34-.1-.46-.19-.93-.24-1.39l.94,1.09c-.59-.11-1.16-.26-1.72-.48-.56-.24-1.18-.19-1.54-1.31l.06-.29c.8-.86,1.34-.56,1.95-.55.88.04,1.82.29,2.67.51.04.73.07,1.55,0,2.28-.03.47.02.94-.81,1.46l-.29.02h0Z" fill="#79827e" stroke-width="0"/><path d="m379.91,138.84c-.1.04-.09.02-.13,0-.16-.17-.28-.39-.37-.59-.3-.65-.17-1.32-.15-2,.07-1.15.18-2.41.75-3.55.72-1.55,2.84-1.28,3.54.15.52,1.32.3,2.41-.88,3.1,0,0-.28-.1-.28-.1-.48-.71-.48-1.52-.72-1.97-.05,0,.05.09-.02.09-.02,0-.06,0-.09,0,0,0,.06,0,.09,0,.34-.06.44-.18.48-.21.03-.03.02,0,0,.04-.45,1.2-.67,2.69-1.02,4-.19.54-.57.95-1.04,1.3,0,0-.16-.24-.16-.24h0Z" fill="#79827e" stroke-width="0"/><path d="m378.83,132.66c.61-.85.9-.61,1.27-.61.36.02.71.07,1.04.17.34.1.66.25.97.42.31.17.67.2.75,1.18l-.08.28c-.59.78-.9.62-1.26.6-.36-.02-.71-.06-1.04-.16-.34-.1-.66-.23-.97-.41-.31-.2-.69-.14-.75-1.19l.08-.28h0Z" fill="#79827e" stroke-width="0"/><path d="m399.31,199.64l-6.05-52.84c0-.07,0-.15,0-.22-.53-4.64-8.26-7.57-17.27-6.54-9.01,1.03-15.88,5.63-15.34,10.27l6.14,53.6h.03c.84,4.45,8.41,7.23,17.2,6.22,8.8-1.01,15.53-5.42,15.35-9.95h0s-.01-.1-.01-.1c0-.07,0-.15,0-.22s-.03-.14-.05-.22Z" fill="#bcc1bf" stroke-width="0"/><path d="m366.89,147.19l-.94-8.24s0-.02,0-.03c-.08-.72-1.29-1.18-2.69-1.02s-2.48.88-2.39,1.6l.96,8.36h0c.13.69,1.31,1.13,2.68.97s2.42-.85,2.39-1.55h0s0-.02,0-.02c0-.01,0-.02,0-.03s0-.02,0-.03Z" fill="#bcc1bf" stroke-width="0"/><path d="m399.21,199.88c-4.38-7.74-19.33-6.21-26.19-2.81-2.73,1.46-5.42,3.29-6.14,6.51,0,0-.29.03-.29.03-.66-1.74.08-3.77,1.24-5.16,5.85-6.23,16.48-7.71,24.47-5.62,3.2.86,7.61,3.05,7.2,7.01,0,0-.29.03-.29.03h0Z" fill="#79827e" stroke-width="0"/><path d="m394.34,146h0s0-.02,0-.03c0-.02,0-.03,0-.05h0c-.65-4.95-8.93-8.07-18.57-6.96-9.64,1.1-17,6.01-16.51,10.98h0s0,.02,0,.03c0,.02,0,.03,0,.05h0c.65,4.95,8.93,8.07,18.57,6.96,9.64-1.1,17-6.01,16.51-10.98Z" fill="#bcc1bf" stroke-width="0"/><path d="m393.11,148.19c-4.38-7.74-19.33-6.21-26.19-2.81-2.73,1.46-5.42,3.29-6.14,6.51,0,0-.29.03-.29.03-.66-1.74.08-3.77,1.24-5.16,5.85-6.23,16.48-7.71,24.47-5.62,3.2.86,7.61,3.05,7.2,7.01,0,0-.29.03-.29.03h0Z" fill="#79827e" stroke-width="0"/><path d="m366.39,140.54c-.75.8-1.05.6-1.47.69-.39.07-.75.17-1.1.29-.55.16-1.08.43-1.6.71-.23.07-.51.1-1.03.05l-.25-.16c-.23-.47-.21-.85-.08-1.15.81-1.36,2.52-2.16,4.09-1.9.6.11,1.31.09,1.52,1.2l-.09.28h0Z" fill="#79827e" stroke-width="0"/><path d="m320.82,177.71c-.89-.32-.9-.69-.98-1.06-.09-.37-.18-.74-.22-1.12l.94,1.09c-.47-.08-.93-.21-1.38-.4-.44-.22-.95-.14-1.2-1.23l.06-.29c.68-.89,1.11-.61,1.6-.62.76,0,1.6.25,2.33.44.03.62.06,1.37-.03,1.99-.03.38,0,.75-.83,1.19l-.29.02h0Z" fill="#79827e" stroke-width="0"/><path d="m319.14,177.33c-.1.05-.1.03-.13,0-.65-.52-.64-1.34-.58-2.1.07-1.34.22-3.84,2.11-3.89,1.97-.02,2.78,2.98.87,3.69,0,0-.28-.1-.28-.1-.33-.45-.48-.78-.57-1.05-.08-.25-.13-.48-.17-.42-.01.03.05.12.1.15.04.03.05.05,0,.05.29.03.63-.22.63-.25.04-.04.04-.04.03-.01-.46,1.05-.44,2.62-1.16,3.61-.21.24-.42.34-.69.55,0,0-.16-.24-.16-.24h0Z" fill="#79827e" stroke-width="0"/><path d="m318.3,172.37c.54-.87.77-.65,1.07-.67.29,0,.57.04.84.11.27.08.52.21.77.36.25.15.54.16.55,1.12l-.08.28c-.52.8-.77.66-1.06.66-.59,0-1.12-.14-1.62-.45-.24-.18-.55-.1-.55-1.13l.08-.28h0Z" fill="#79827e" stroke-width="0"/><path d="m334.71,226.11l-4.85-42.37c0-.06,0-.12,0-.18-.43-3.72-6.63-6.07-13.85-5.24-7.22.83-12.73,4.52-12.3,8.24l4.92,42.98h.03c.68,3.57,6.74,5.79,13.79,4.99,7.05-.81,12.46-4.35,12.31-7.98h0s0-.08,0-.08c0-.06,0-.12,0-.18s-.03-.12-.04-.17Z" fill="#bcc1bf" stroke-width="0"/><path d="m308.72,184.05l-.76-6.61s0-.02,0-.03c-.07-.58-1.03-.95-2.16-.82s-1.98.7-1.92,1.28l.77,6.7h0c.11.56,1.05.9,2.15.78s1.94-.68,1.92-1.24h0s0-.01,0-.01c0,0,0-.02,0-.03s0-.02,0-.03Z" fill="#bcc1bf" stroke-width="0"/><path d="m334.6,226.3c-4.31-6.54-18.75-4.82-23.89-.02-.89.81-1.6,1.66-1.96,2.98l-.29.03c-.29-.67-.34-1.49-.15-2.24,2.4-6.78,14.75-8.53,20.84-6.61,2.6.7,6.27,2.57,5.75,5.82,0,0-.29.03-.29.03h0Z" fill="#79827e" stroke-width="0"/><path d="m330.73,183.1h0s0-.02,0-.02c0-.01,0-.02,0-.04h0c-.52-3.97-7.16-6.47-14.89-5.58-7.73.89-13.63,4.82-13.24,8.8h0s0,.02,0,.02c0,.01,0,.02,0,.04h0c.52,3.97,7.16,6.47,14.89,5.58,7.73-.89,13.63-4.82,13.24-8.8Z" fill="#bcc1bf" stroke-width="0"/><path d="m329.71,184.85c-4.31-6.54-18.75-4.82-23.89-.02-.89.81-1.6,1.66-1.96,2.98l-.29.03c-.29-.67-.34-1.49-.15-2.24,2.4-6.78,14.75-8.53,20.84-6.61,2.6.7,6.27,2.57,5.75,5.82,0,0-.29.03-.29.03h0Z" fill="#79827e" stroke-width="0"/><path d="m308.31,178.75c-.66.83-.85.65-1.17.74-.29.08-.55.16-.8.24-.41.11-.82.29-1.23.47-.16.03-.86.05-1.18-.23-.26-.43-.27-.77-.18-1.03.63-1.17,2.1-1.87,3.42-1.62.5.1,1.11.07,1.23,1.15l-.09.28h0Z" fill="#79827e" stroke-width="0"/><path d="m289.98,104.16l-.76-6.61s0-.02,0-.03c-.07-.58-1.03-.95-2.16-.82s-1.98.7-1.92,1.28l.77,6.7h0c.11.56,1.05.9,2.15.78s1.94-.68,1.92-1.24h0s0-.01,0-.01c0,0,0-.02,0-.03s0-.02,0-.03Z" fill="#bcc1bf" stroke-width="0"/><path d="m289.57,98.85c-.66.83-.85.65-1.17.74-.29.08-.55.16-.8.24-.41.11-.82.29-1.23.47-.16.03-.86.05-1.18-.23-.26-.43-.27-.77-.18-1.03.63-1.17,2.1-1.87,3.42-1.62.5.1,1.11.07,1.23,1.15l-.09.28h0Z" fill="#79827e" stroke-width="0"/><path d="m372.84,39.46l-.76-6.61s0-.02,0-.03c-.07-.58-1.03-.95-2.16-.82s-1.98.7-1.92,1.28l.77,6.7h0c.11.56,1.05.9,2.15.78s1.94-.68,1.92-1.24h0s0-.01,0-.01c0,0,0-.02,0-.03s0-.02,0-.03Z" fill="#bcc1bf" stroke-width="0"/><path d="m373.37,34.58s.01-1.98,0-1.98c-1.57-1.42-1.58-1.97-4.8-.91-1.66.55-1.97,1.9-1.95,2.94.02.78.64,1.41,1.42,1.44.72.02,1.65,0,2.46-.22,1.61-.42,2.86-.97,2.85-1.25h0s0,0,0,0c0,0,0,0,0-.01s0,0,0-.01Z" fill="#bcc1bf" stroke-width="0"/><path d="m372.44,34.16c-.66.83-.85.65-1.17.74-.29.08-.55.16-.8.24-.41.11-.82.29-1.23.47-.16.03-.86.05-1.18-.23-.26-.43-.27-.77-.18-1.03.63-1.17,2.1-1.87,3.42-1.62.5.1,1.11.07,1.23,1.15l-.09.28h0Z" fill="#79827e" stroke-width="0"/><path d="m331.52,72.04l-.76-6.61s0-.02,0-.03c-.07-.58-1.03-.95-2.16-.82s-1.98.7-1.92,1.28l.77,6.7h0c.11.56,1.05.9,2.15.78s1.94-.68,1.92-1.24h0s0-.01,0-.01c0,0,0-.02,0-.03s0-.02,0-.03Z" fill="#bcc1bf" stroke-width="0"/><path d="m332.05,67.16s.01-1.98,0-1.98c-1.57-1.42-1.58-1.97-4.8-.91-1.66.55-1.97,1.9-1.95,2.94.02.78.64,1.41,1.42,1.44.72.02,1.65,0,2.46-.22,1.61-.42,2.86-.97,2.85-1.25h0s0,0,0,0c0,0,0,0,0-.01s0,0,0-.01Z" fill="#bcc1bf" stroke-width="0"/><path d="m331.11,66.73c-.66.83-.85.65-1.17.74-.29.08-.55.16-.8.24-.41.11-.82.29-1.23.47-.16.03-.86.05-1.18-.23-.26-.43-.27-.77-.18-1.03.63-1.17,2.1-1.87,3.42-1.62.5.1,1.11.07,1.23,1.15l-.09.28h0Z" fill="#79827e" stroke-width="0"/><path d="m364.85,185.78c1.78,4.81,1.95,9.9,2.74,14.86.1,2.92,1.85,4.73,4.53,5.69,2.61,1.08,5.49,1.88,8.32,2,4.96.16,9.74-.42,14.5-1.95,0,0,.15.25.15.25-3.01,3.02-7.56,3.59-11.6,3.87-4.22.42-8.4-.35-12.3-1.96-2.03-.76-4.22-2.23-5.12-4.35-.88-1.78-.8-4.39-1.06-6.29-.34-4.01-1.01-7.98-.45-12.09l.29-.03h0Z" fill="#79827e" stroke-width="0"/><polygon points="382.1 349.31 362.83 348.47 327.85 69.61 337.7 62.59 382.1 349.31" fill="#7a736e" stroke-width="0"/><polygon points="283.08 104.79 373.55 33.33 376.67 34.35 376.93 38.15 288.14 109.6 283.08 108.16 283.08 104.79" fill="#7a736e" stroke-width="0"/><polygon points="289.21 142.58 385 71.36 388.2 72.51 388.35 76.46 294.28 147.73 289.1 146.07 289.21 142.58" fill="#7a736e" stroke-width="0"/><polygon points="333.16 90.53 310.34 87.02 310.34 88.78 334.21 92.99 333.16 90.53" fill="#7a736e" stroke-width="0"/><polygon points="337.55 78.77 347.38 58.94 350.19 56.66 338.73 80.7 337.55 78.77" fill="#7a736e" stroke-width="0"/><path d="m293.34,150.75l-4.08-11.67s0-.03-.01-.05c-.36-1.03-1.63-1.51-2.85-1.09s-1.91,1.6-1.55,2.63l4.14,11.84h0c.39.98,1.63,1.43,2.82,1.02s1.88-1.55,1.57-2.55h0s0-.02,0-.02c0-.02,0-.03-.01-.05s-.01-.03-.02-.05Z" fill="#bcc1bf" stroke-width="0"/><path d="m293.42,133.81l-8.7-4.58s-.02-.01-.04-.02c-.76-.4-1.77,0-2.25.91s-.24,1.97.52,2.37l8.83,4.65h0c.76.35,1.73-.06,2.19-.94s.25-1.92-.47-2.34h0s-.02,0-.02,0c-.01,0-.02-.01-.04-.02s-.03-.01-.04-.02Z" fill="#545655" stroke-width="0"/><path d="m289.01,138.26c-.66.83-.85.65-1.17.74-.29.08-.55.16-.8.24-.41.11-.82.29-1.23.47-.16.03-.86.05-1.18-.23-.26-.43-.27-.77-.18-1.03.63-1.17,2.1-1.87,3.42-1.62.5.1,1.11.07,1.23,1.15l-.09.28h0Z" fill="#79827e" stroke-width="0"/><path d="m284.91,134.97c.82.62.65.73.73.97.1.28.26.86.31,1.15.02.11.09.19.09.34,0,.12-.12.81-.38,1.08-.41.27-.71.28-.94.21-.59-.32-1.02-.92-1.22-1.57-.12-.45-.13-.92-.01-1.36.12-.41.1-.94,1.15-.92l.27.11h0Z" fill="#79827e" stroke-width="0"/><path d="m286.45,133.75c1.01.29.91.57,1.09.87.16.29.3.56.44.84.18.43.39.85.55,1.29.03.16-.02.85-.31,1.15-.73.41-1.13.17-1.58-.28-.7-.63-1.13-1.51-1.19-2.45-.01-.45-.24-.92.71-1.4l.29-.02h0Z" fill="#79827e" stroke-width="0"/><path d="m285.44,133.66c-.39-.99-.13-1.06-.06-1.38.07-.29.12-.55.16-.81.1-.41.12-.86.14-1.3.04-.15.34-.79.74-.95.5-.04.8.11,1,.31.77,1.11.7,2.79-.17,3.83-.34.39-.62.95-1.62.51l-.2-.22h0Z" fill="#79827e" stroke-width="0"/><path d="m288.1,135.28c-.39-.99-.13-1.06-.06-1.38.07-.29.12-.55.16-.81.1-.41.12-.86.14-1.3.04-.15.34-.79.74-.95.5-.04.8.11,1,.31.77,1.11.7,2.79-.17,3.83-.34.39-.62.95-1.62.51l-.2-.22h0Z" fill="#79827e" stroke-width="0"/><path d="m291.66,140.87c-.17-.56-.34-.68-.42-.82-.32-1.02-1.02-2.05-1.48-3.12-.23-.5-.64-.95-.17-1.95l.25-.15c1.06-.02,1.31.46,1.71.91.96,1.1,1.75,2.45,1.68,4.04.03.7-.53,1.51-1.37,1.3,0,0-.2-.22-.2-.22h0Z" fill="#79827e" stroke-width="0"/><path d="m292.55,149.21c-.66.83-.85.65-1.17.74-.29.08-.55.16-.8.24-.41.11-.82.29-1.23.47-.16.03-.86.05-1.18-.23-.26-.43-.27-.77-.18-1.03.63-1.17,2.1-1.87,3.42-1.62.5.1,1.11.07,1.23,1.15l-.09.28h0Z" fill="#79827e" stroke-width="0"/><path d="m289.66,140.95c-.66.83-.85.65-1.17.74-.29.08-.55.16-.8.24-.41.11-.82.29-1.23.47-.16.03-.86.05-1.18-.23-.26-.43-.27-.77-.18-1.03.63-1.17,2.1-1.87,3.42-1.62.5.1,1.11.07,1.23,1.15l-.09.28h0Z" fill="#79827e" stroke-width="0"/><path d="m289.74,153.19c.55-.9.77-.75,1.07-.88.28-.11.52-.23.77-.34.4-.16.77-.39,1.16-.61.15-.05.85-.15,1.2.09.31.39.36.73.3,1-.49,1.24-1.86,2.11-3.2,2.02-.5-.04-1.11.06-1.36-.99l.06-.29h0Z" fill="#79827e" stroke-width="0"/><path d="m320.86,128.7l-4.08-11.67s0-.03-.01-.05c-.36-1.03-1.63-1.51-2.85-1.09s-1.91,1.6-1.55,2.63l4.14,11.84h0c.39.98,1.63,1.43,2.82,1.02s1.88-1.55,1.57-2.55h0s0-.02,0-.02c0-.02,0-.03-.01-.05s-.01-.03-.02-.05Z" fill="#bcc1bf" stroke-width="0"/><path d="m321.27,112.05l-6.97-4.93s-.02-.02-.03-.02c-.61-.43-1.62-.06-2.25.83s-.64,1.96-.03,2.4l7.07,5h0c.62.38,1.59.01,2.2-.86s.64-1.91.07-2.36h0s-.01-.01-.01-.01c0,0-.02-.02-.03-.02s-.02-.01-.03-.02Z" fill="#545655" stroke-width="0"/><path d="m316.52,116.22c-.66.83-.85.65-1.17.74-.29.08-.55.16-.8.24-.41.11-.82.29-1.23.47-.16.03-.86.05-1.18-.23-.26-.43-.27-.77-.18-1.03.63-1.17,2.1-1.87,3.42-1.62.5.1,1.11.07,1.23,1.15l-.09.28h0Z" fill="#79827e" stroke-width="0"/><path d="m312.42,112.92c.82.62.65.73.73.97.1.28.26.86.31,1.15.02.11.09.19.09.34,0,.12-.12.81-.38,1.08-.41.27-.71.28-.94.21-.59-.32-1.02-.92-1.22-1.57-.12-.45-.13-.92-.01-1.36.12-.41.1-.94,1.15-.92l.27.11h0Z" fill="#79827e" stroke-width="0"/><path d="m313.97,111.71c1.01.29.91.57,1.09.87.16.29.3.56.44.84.18.43.39.85.55,1.29.03.16-.02.85-.31,1.15-.73.41-1.13.17-1.58-.28-.7-.63-1.13-1.51-1.19-2.45-.01-.45-.24-.92.71-1.4l.29-.02h0Z" fill="#79827e" stroke-width="0"/><path d="m312.95,111.61c-.39-.99-.13-1.06-.06-1.38.07-.29.12-.55.16-.81.1-.41.12-.86.14-1.3.04-.15.34-.79.74-.95.5-.04.8.11,1,.31.77,1.11.7,2.79-.17,3.83-.34.39-.62.95-1.62.51l-.2-.22h0Z" fill="#79827e" stroke-width="0"/><path d="m315.62,113.24c-.39-.99-.13-1.06-.06-1.38.07-.29.12-.55.16-.81.1-.41.12-.86.14-1.3.04-.15.34-.79.74-.95.5-.04.8.11,1,.31.77,1.11.7,2.79-.17,3.83-.34.39-.62.95-1.62.51l-.2-.22h0Z" fill="#79827e" stroke-width="0"/><path d="m319.17,118.82c-.17-.56-.34-.68-.42-.82-.32-1.02-1.02-2.05-1.48-3.12-.23-.5-.64-.95-.17-1.95l.25-.15c1.06-.02,1.31.46,1.71.91.96,1.1,1.75,2.45,1.68,4.04.03.7-.53,1.51-1.37,1.3,0,0-.2-.22-.2-.22h0Z" fill="#79827e" stroke-width="0"/><path d="m320.06,127.16c-.66.83-.85.65-1.17.74-.29.08-.55.16-.8.24-.41.11-.82.29-1.23.47-.16.03-.86.05-1.18-.23-.26-.43-.27-.77-.18-1.03.63-1.17,2.1-1.87,3.42-1.62.5.1,1.11.07,1.23,1.15l-.09.28h0Z" fill="#79827e" stroke-width="0"/><path d="m317.18,118.9c-.66.83-.85.65-1.17.74-.29.08-.55.16-.8.24-.41.11-.82.29-1.23.47-.16.03-.86.05-1.18-.23-.26-.43-.27-.77-.18-1.03.63-1.17,2.1-1.87,3.42-1.62.5.1,1.11.07,1.23,1.15l-.09.28h0Z" fill="#79827e" stroke-width="0"/><path d="m317.25,131.14c.55-.9.77-.75,1.07-.88.28-.11.52-.23.77-.34.4-.16.77-.39,1.16-.61.15-.05.85-.15,1.2.09.31.39.36.73.3,1-.49,1.24-1.86,2.11-3.2,2.02-.5-.04-1.11.06-1.36-.99l.06-.29h0Z" fill="#79827e" stroke-width="0"/><path d="m376.21,84.38l-4.08-11.67s0-.03-.01-.05c-.36-1.03-1.63-1.51-2.85-1.09s-1.91,1.6-1.55,2.63l4.14,11.84h0c.39.98,1.63,1.43,2.82,1.02s1.88-1.55,1.57-2.55h0s0-.02,0-.02c0-.02,0-.03-.01-.05s-.01-.03-.02-.05Z" fill="#bcc1bf" stroke-width="0"/><path d="m376.62,67.72l-6.97-4.93s-.02-.02-.03-.02c-.61-.43-1.62-.06-2.25.83s-.64,1.96-.03,2.4l7.07,5h0c.62.38,1.59.01,2.2-.86s.64-1.91.07-2.36h0s-.01-.01-.01-.01c0,0-.02-.02-.03-.02s-.02-.01-.03-.02Z" fill="#545655" stroke-width="0"/><path d="m371.88,71.89c-.66.83-.85.65-1.17.74-.29.08-.55.16-.8.24-.41.11-.82.29-1.23.47-.16.03-.86.05-1.18-.23-.26-.43-.27-.77-.18-1.03.63-1.17,2.1-1.87,3.42-1.62.5.1,1.11.07,1.23,1.15l-.09.28h0Z" fill="#79827e" stroke-width="0"/><path d="m367.78,68.6c.82.62.65.73.73.97.1.28.26.86.31,1.15.02.11.09.19.09.34,0,.12-.12.81-.38,1.08-.41.27-.71.28-.94.21-.59-.32-1.02-.92-1.22-1.57-.12-.45-.13-.92-.01-1.36.12-.41.1-.94,1.15-.92l.27.11h0Z" fill="#79827e" stroke-width="0"/><path d="m369.32,67.38c1.01.29.91.57,1.09.87.16.29.3.56.44.84.18.43.39.85.55,1.29.03.16-.02.85-.31,1.15-.73.41-1.13.17-1.58-.28-.7-.63-1.13-1.51-1.19-2.45-.01-.45-.24-.92.71-1.4l.29-.02h0Z" fill="#79827e" stroke-width="0"/><path d="m368.31,67.29c-.39-.99-.13-1.06-.06-1.38.07-.29.12-.55.16-.81.1-.41.12-.86.14-1.3.04-.15.34-.79.74-.95.5-.04.8.11,1,.31.77,1.11.7,2.79-.17,3.83-.34.39-.62.95-1.62.51l-.2-.22h0Z" fill="#79827e" stroke-width="0"/><path d="m370.97,68.91c-.39-.99-.13-1.06-.06-1.38.07-.29.12-.55.16-.81.1-.41.12-.86.14-1.3.04-.15.34-.79.74-.95.5-.04.8.11,1,.31.77,1.11.7,2.79-.17,3.83-.34.39-.62.95-1.62.51l-.2-.22h0Z" fill="#79827e" stroke-width="0"/><path d="m374.53,74.5c-.17-.56-.34-.68-.42-.82-.32-1.02-1.02-2.05-1.48-3.12-.23-.5-.64-.95-.17-1.95l.25-.15c1.06-.02,1.31.46,1.71.91.96,1.1,1.75,2.45,1.68,4.04.03.7-.53,1.51-1.37,1.3,0,0-.2-.22-.2-.22h0Z" fill="#79827e" stroke-width="0"/><path d="m375.41,82.84c-.66.83-.85.65-1.17.74-.29.08-.55.16-.8.24-.41.11-.82.29-1.23.47-.16.03-.86.05-1.18-.23-.26-.43-.27-.77-.18-1.03.63-1.17,2.1-1.87,3.42-1.62.5.1,1.11.07,1.23,1.15l-.09.28h0Z" fill="#79827e" stroke-width="0"/><path d="m372.53,74.58c-.66.83-.85.65-1.17.74-.29.08-.55.16-.8.24-.41.11-.82.29-1.23.47-.16.03-.86.05-1.18-.23-.26-.43-.27-.77-.18-1.03.63-1.17,2.1-1.87,3.42-1.62.5.1,1.11.07,1.23,1.15l-.09.28h0Z" fill="#79827e" stroke-width="0"/><path d="m372.61,86.82c.55-.9.77-.75,1.07-.88.28-.11.52-.23.77-.34.4-.16.77-.39,1.16-.61.15-.05.85-.15,1.2.09.31.39.36.73.3,1-.49,1.24-1.86,2.11-3.2,2.02-.5-.04-1.11.06-1.36-.99l.06-.29h0Z" fill="#79827e" stroke-width="0"/><polygon points="355.79 188.77 342.65 194.63 341.26 194.13 339.3 173.07 352.08 165.71 352.8 166.43 355.79 188.77" fill="#3a3f3d" stroke-width="0"/><path d="m331.51,181.57s7.61-1.66,8.52-1.53,1.12,4.63,1.12,4.63l-9.08,1.92-.56-5.03Z" fill="#bcc1bf" stroke-width="0"/><path d="m329.86,198.36c.47.04,11.71-12.2,11.71-12.2l1.12,3.93-10.72,12-2.11-3.74Z" fill="#bcc1bf" stroke-width="0"/><polygon points="360.61 162.35 361.47 166.88 352.41 177.62 351.77 171.8 360.61 162.35" fill="#bcc1bf" stroke-width="0"/><polygon points="366.42 174.44 352.74 178.85 353.51 183.63 367.29 180.27 366.42 174.44" fill="#bcc1bf" stroke-width="0"/><circle cx="333.94" cy="183.32" r=".68" fill="#4e5452" stroke-width="0"/><circle cx="333.01" cy="198.36" r=".68" fill="#4e5452" stroke-width="0"/><circle cx="359.5" cy="165.72" r=".68" fill="#4e5452" stroke-width="0"/><circle cx="360.61" cy="178.83" r=".68" fill="#4e5452" stroke-width="0"/><polygon points="412.69 206.42 407.29 205.95 407.29 219.82 412.69 220.87 412.69 206.42" fill="#3a3f3d" stroke-width="0"/><polygon points="406.07 242.14 395.02 240.91 393.25 271.08 399.66 273.28 402.88 271.57 406.07 242.14" fill="#3a3f3d" stroke-width="0"/><path d="m322.94,276.96c.61.12,13.33,4.17,13.33,4.17l-1.51,4.9-11.83-1.96v-7.11Z" fill="#3a3f3d" stroke-width="0"/><polygon points="306.21 252.93 315.8 264.46 309.94 268.38 302.58 258.08 306.21 252.93" fill="#3a3f3d" stroke-width="0"/><polygon points="388.41 260.65 379.86 264.95 384.14 279.66 391.84 276.96 388.41 260.65" fill="#3a3f3d" stroke-width="0"/><path d="m364.8,237.08c7.22-5.38,6.57-8.09-1.51-11.54-5.17-2.14-12.27-4.5-16.56.43-3.05,3.77-1.11,7.12,3.38,7.77,0,0,0,.29,0,.29-1.08.25-2.24.29-3.4-.05-4.27-1.22-4.15-6.53-1.64-9.38,1.51-1.89,3.7-3.16,6.01-3.65,4.58-1.03,8.96.76,13.11,2.43,2.99,1.4,6.88,3.13,7.66,6.89.43,3.88-3.68,6.35-6.94,7.08,0,0-.12-.27-.12-.27h0Z" fill="#3a3f3d" stroke-width="0"/><path d="m361.65,221.19c-.75-2.35.93-5.66,3.63-5.46,1.99.23,3.49,1.73,4.48,3.45,2.08,3.98-2.57,8.54-6.43,8.66,0,0-.12-.27-.12-.27,2.19-2.95,7.34-5.28,3.04-9-.57-.45-1.1-.73-1.44-.66-1.16.33-1.81,2.32-2.84,3.32,0,0-.29-.05-.29-.05h0Z" fill="#3a3f3d" stroke-width="0"/><path d="m362.51,225.35c-.65-2.38,1.17-5.61,3.86-5.3,1.98.31,3.41,1.87,4.32,3.64,1.91,4.07-2.93,8.42-6.8,8.38,0,0-.11-.27-.11-.27,2.31-2.85,7.56-4.96,3.42-8.86-.55-.47-1.07-.77-1.42-.72-1.17.29-1.9,2.25-2.98,3.2,0,0-.29-.06-.29-.06h0Z" fill="#3a3f3d" stroke-width="0"/><path d="m335.41,337.38c.91-12.9,5.1-31.2,7.22-44.13,0,0,4.12-21.95,4.12-21.95,1.08-6.68,1.89-15.48-3.86-20.21,0,0,.11-.27.11-.27,7.42,3.69,6.95,13.87,5.85,20.83-1.18,7.38-2.52,14.7-3.85,22.04-1.38,7.32-2.76,14.65-4.23,21.95-1.48,7.3-2.71,14.66-5.07,21.79l-.29-.05h0Z" fill="#3a3f3d" stroke-width="0"/><path d="m375.62,306.22c-4.09-5.36-3.01-15.67.78-21.08,3.89-5.74,12.6-10.44,19.45-7.75,0,0-.04.44-.04.44-1.71.6-3.3,1.07-4.87,1.55-7.92,1.86-13.98,8.35-14.6,16.62-.35,3.39.2,6.58-.3,10.07,0,0-.42.13-.42.13h0Z" fill="#3a3f3d" stroke-width="0"/><path d="m406.52,196.44c-.76,1.09-1.67,1.06-2.55,1.27-.88.2-1.76.35-2.65.47-.89.11-1.79.17-2.68.21-.9.04-1.78.22-2.79-.57l-.04-.29c.77-1.02,1.67-1.07,2.55-1.26.88-.19,1.76-.36,2.65-.48.89-.11,1.78-.19,2.68-.22.9-.01,1.77-.28,2.79.58l.04.29h0Z" fill="#3a3f3d" stroke-width="0"/><path d="m368.99,283.59c7.73-17.42,8.93-29.59-4.47-44.55,0,0-4.67-5.27-4.67-5.27l.17-.24c4.34,2.21,7.69,5.83,10.56,9.7,4.37,5.86,7.07,13.21,6.46,20.59-.61,7.15-2.83,14.61-7.82,19.94,0,0-.24-.17-.24-.17h0Z" fill="#3a3f3d" stroke-width="0"/><path d="m395.97,258.6c4.03,6.89,13.21,33.33,9.35,40.2-1.69,3.4-4.72,4-6.34.19-1.66-3.98-2.09-8.31-2.64-12.46-.76-6.63-1.23-13.28-.65-19.95h.29c1.14,6.56,1.59,13.16,2.47,19.68.73,4.29,1.07,8.84,3.16,12.63.17.24.37.39.38.38-.02-.02-.1.04.1-.08.16-.11.38-.35.58-.62,3.12-4.14-.52-15.75-1.65-20.75-1.67-6.38-3.95-12.57-5.32-19.12l.27-.11h0Z" fill="#3a3f3d" stroke-width="0"/><path d="m375.84,141.67c-2.25-4.19-3.09-8.79-4.04-13.34-.85-4.67-1.63-9.32-.99-14.14.15-1.06.6-2.45.88-3.48,2.23-7.69,2.95-15.6,2.84-23.62-.02-.16.23-.23.28-.07.9,2.21,1.22,4.58,1.36,6.92.33,7.01-1.33,13.88-3.01,20.62-.53,4.37.15,9,.8,13.39.67,4.53,1.93,8.93,2.15,13.64.02.15-.21.23-.28.08h0Z" fill="#3a3f3d" stroke-width="0"/></g></svg>