<?xml version="1.0" encoding="UTF-8"?><svg id="c" xmlns="http://www.w3.org/2000/svg" width="1140" height="478.62" viewBox="0 0 1140 478.62"><path d="m71.04,415.99c57.43,48.75,148.29,70.63,242.49,59.99,90.83-10.26,178.04-36.39,270.42-35.66,107.52.85,211.44,36.55,318.67,18.08,107.52-18.51,200.33-77.31,228.16-153.48,47.82-130.88-85.39-243.38-259.92-277.77C754.44,4.21,623.79-.73,504.02.03,333.7,1.12,141.58,26.16,52.83,138.22-.08,205.02-9.93,288.35,27.5,361.77c10.52,20.65,25.36,38.78,43.54,54.22Z" fill="#fff6d2" stroke-width="0"/><line x1="415.41" y1="338.44" x2="319.18" y2="338.44" fill="none" stroke="#d3a122" stroke-linecap="round" stroke-linejoin="round" stroke-width="7"/><line x1="853.61" y1="318.9" x2="739.39" y2="318.9" fill="none" stroke="#d3a122" stroke-linecap="round" stroke-linejoin="round" stroke-width="7"/><path d="m414.14,69.17v349.95h329.42V69.17h-329.42Zm240.45,266.2h-151.47v-182.45h151.47v182.45Z" fill="#bacecb" stroke-width="0"/><path d="m529.05,43.24h-2.62v-19.91h2.62v19.91Z" stroke-width="0"/><path d="m540.61,30.71c-.38-.06-.8-.1-1.24-.1-1.66,0-2.78.71-3.38,2.12v10.5h-2.53v-14.79h2.46l.04,1.71c.83-1.32,2-1.98,3.53-1.98.49,0,.87.06,1.12.19v2.35Z" stroke-width="0"/><path d="m541.99,35.7c0-1.45.29-2.75.85-3.91.57-1.16,1.36-2.05,2.38-2.68s2.18-.94,3.48-.94c2.01,0,3.64.7,4.89,2.09s1.87,3.25,1.87,5.56v.18c0,1.44-.28,2.73-.83,3.88-.55,1.14-1.34,2.04-2.37,2.67-1.03.64-2.2.96-3.53.96-2,0-3.63-.7-4.87-2.09s-1.87-3.24-1.87-5.54v-.18Zm2.54.3c0,1.64.38,2.96,1.14,3.95.76.99,1.78,1.49,3.06,1.49s2.31-.5,3.06-1.51c.76-1.01,1.13-2.42,1.13-4.23,0-1.62-.38-2.94-1.16-3.94-.77-1.01-1.79-1.51-3.07-1.51s-2.26.5-3.02,1.49c-.77.99-1.15,2.42-1.15,4.27Z" stroke-width="0"/><path d="m561.02,28.44l.08,1.86c1.13-1.42,2.61-2.13,4.43-2.13,3.13,0,4.7,1.76,4.73,5.29v9.78h-2.53v-9.79c0-1.07-.25-1.85-.73-2.37-.48-.51-1.22-.77-2.24-.77-.82,0-1.54.22-2.16.66s-1.1,1.01-1.45,1.72v10.54h-2.53v-14.79h2.39Z" stroke-width="0"/><path d="m586.94,41.44c.9,0,1.69-.27,2.37-.82s1.05-1.23,1.12-2.05h2.39c-.05.85-.34,1.65-.88,2.42s-1.26,1.38-2.15,1.83-1.85.68-2.85.68c-2.01,0-3.62-.67-4.81-2.02-1.19-1.34-1.78-3.18-1.78-5.52v-.42c0-1.44.26-2.72.79-3.84s1.29-1.99,2.28-2.61c.99-.62,2.16-.93,3.51-.93,1.66,0,3.04.5,4.14,1.49,1.1.99,1.68,2.28,1.76,3.87h-2.39c-.07-.96-.44-1.74-1.09-2.36s-1.46-.92-2.41-.92c-1.29,0-2.28.46-2.99,1.39-.71.93-1.06,2.26-1.06,4.01v.48c0,1.7.35,3.02,1.05,3.94.7.92,1.7,1.38,3.01,1.38Z" stroke-width="0"/><path d="m594.99,35.7c0-1.45.29-2.75.85-3.91.57-1.16,1.36-2.05,2.38-2.68s2.18-.94,3.48-.94c2.01,0,3.64.7,4.89,2.09s1.87,3.25,1.87,5.56v.18c0,1.44-.28,2.73-.83,3.88-.55,1.14-1.34,2.04-2.37,2.67-1.03.64-2.2.96-3.53.96-2,0-3.63-.7-4.87-2.09s-1.87-3.24-1.87-5.54v-.18Zm2.54.3c0,1.64.38,2.96,1.14,3.95.76.99,1.78,1.49,3.06,1.49s2.31-.5,3.06-1.51c.76-1.01,1.13-2.42,1.13-4.23,0-1.62-.38-2.94-1.16-3.94-.77-1.01-1.79-1.51-3.07-1.51s-2.26.5-3.02,1.49c-.77.99-1.15,2.42-1.15,4.27Z" stroke-width="0"/><path d="m618.78,30.71c-.38-.06-.8-.1-1.24-.1-1.66,0-2.78.71-3.38,2.12v10.5h-2.53v-14.79h2.46l.04,1.71c.83-1.32,2-1.98,3.53-1.98.49,0,.87.06,1.12.19v2.35Z" stroke-width="0"/><path d="m626.98,43.51c-2,0-3.64-.66-4.89-1.98-1.26-1.32-1.89-3.08-1.89-5.28v-.46c0-1.47.28-2.78.84-3.93.56-1.15,1.34-2.06,2.35-2.71,1.01-.65,2.1-.98,3.27-.98,1.92,0,3.42.63,4.48,1.9,1.07,1.27,1.6,3.08,1.6,5.44v1.05h-10.02c.04,1.46.46,2.64,1.28,3.53.82.9,1.85,1.35,3.11,1.35.89,0,1.65-.18,2.27-.55.62-.36,1.16-.85,1.63-1.45l1.54,1.2c-1.24,1.91-3.1,2.86-5.58,2.86Zm-.31-13.26c-1.02,0-1.88.37-2.57,1.11-.69.74-1.12,1.78-1.29,3.12h7.41v-.19c-.07-1.29-.42-2.28-1.04-2.99-.62-.71-1.46-1.06-2.52-1.06Z" stroke-width="0"/><path d="m236.92,259.2h-2.54v-16.86l-5.1,1.87v-2.3l7.25-2.72h.4v20Z" stroke-width="0"/><path d="m257.37,259.2h-13.04v-1.82l6.89-7.66c1.02-1.16,1.72-2.1,2.11-2.82s.58-1.47.58-2.25c0-1.04-.31-1.89-.94-2.56-.63-.67-1.47-1-2.52-1-1.26,0-2.24.36-2.93,1.07-.7.72-1.05,1.71-1.05,2.99h-2.53c0-1.83.59-3.31,1.77-4.44,1.18-1.13,2.76-1.7,4.74-1.7,1.85,0,3.31.49,4.39,1.46s1.61,2.26,1.61,3.88c0,1.96-1.25,4.29-3.75,7l-5.33,5.78h9.99v2.06Z" stroke-width="0"/><path d="m272.53,250.71c0,2.96-.51,5.16-1.52,6.6-1.01,1.44-2.59,2.16-4.74,2.16s-3.7-.7-4.72-2.11-1.55-3.51-1.59-6.31v-3.38c0-2.93.51-5.1,1.52-6.52s2.6-2.13,4.76-2.13,3.72.69,4.73,2.06c1.01,1.37,1.53,3.49,1.56,6.35v3.28Zm-2.53-3.46c0-2.14-.3-3.7-.9-4.68-.6-.98-1.55-1.47-2.86-1.47s-2.24.49-2.83,1.46c-.59.98-.9,2.47-.92,4.5v4.05c0,2.15.31,3.74.94,4.76s1.57,1.54,2.84,1.54,2.18-.48,2.78-1.45c.61-.97.92-2.49.95-4.57v-4.14Z" stroke-width="0"/><path d="m289.95,255.72l5.69-16.42h2.87l-7.38,19.91h-2.32l-7.37-19.91h2.86l5.66,16.42Z" stroke-width="0"/><path d="m307.62,251.12c0-2.06.28-4.04.83-5.93.55-1.9,1.37-3.62,2.47-5.17,1.09-1.55,2.23-2.64,3.4-3.28l.52,1.67c-1.33,1.02-2.42,2.58-3.27,4.68-.85,2.1-1.32,4.44-1.4,7.04v1.16c-.01,3.52.63,6.57,1.91,9.16.77,1.55,1.7,2.76,2.76,3.64l-.52,1.54c-1.21-.67-2.37-1.8-3.47-3.39-2.15-3.1-3.23-6.8-3.23-11.12Z" stroke-width="0"/><path d="m328.67,253.99h-8.34l-1.87,5.21h-2.71l7.6-19.91h2.3l7.62,19.91h-2.69l-1.9-5.21Zm-7.55-2.15h6.77l-3.39-9.31-3.38,9.31Z" stroke-width="0"/><path d="m350.44,252.89c-.25,2.11-1.02,3.73-2.33,4.87-1.31,1.14-3.05,1.72-5.22,1.72-2.35,0-4.24-.84-5.65-2.53-1.42-1.69-2.13-3.94-2.13-6.77v-1.91c0-1.85.33-3.48.99-4.88.66-1.4,1.6-2.48,2.81-3.23s2.62-1.13,4.21-1.13c2.11,0,3.81.59,5.09,1.77,1.28,1.18,2.02,2.81,2.23,4.9h-2.64c-.23-1.59-.72-2.74-1.48-3.46-.76-.71-1.83-1.07-3.19-1.07-1.68,0-2.99.62-3.94,1.86-.95,1.24-1.43,3.01-1.43,5.29v1.93c0,2.16.45,3.88,1.35,5.16s2.17,1.92,3.79,1.92c1.46,0,2.58-.33,3.36-.99.78-.66,1.3-1.81,1.55-3.45h2.64Z" stroke-width="0"/><path d="m359.1,251.26c0,2.03-.27,3.98-.8,5.84-.53,1.86-1.35,3.58-2.45,5.16-1.1,1.58-2.25,2.7-3.45,3.36l-.53-1.54c1.4-1.08,2.53-2.75,3.38-5.01s1.29-4.78,1.31-7.54v-.44c0-1.91-.2-3.69-.6-5.34-.4-1.65-.96-3.12-1.67-4.42-.72-1.3-1.52-2.32-2.41-3.05l.53-1.54c1.2.67,2.35,1.78,3.44,3.34s1.91,3.28,2.45,5.15c.54,1.88.81,3.89.81,6.03Z" stroke-width="0"/><path d="m799.11,254h2.76v2.06h-2.76v4.62h-2.54v-4.62h-9.06v-1.49l8.91-13.79h2.69v13.22Zm-8.74,0h6.19v-9.76l-.3.55-5.89,9.21Z" stroke-width="0"/><path d="m816.64,252.2c0,2.96-.51,5.16-1.52,6.6-1.01,1.44-2.59,2.16-4.74,2.16s-3.7-.7-4.72-2.11-1.55-3.51-1.59-6.31v-3.38c0-2.93.51-5.1,1.52-6.52s2.6-2.13,4.76-2.13,3.72.69,4.73,2.06c1.01,1.37,1.53,3.49,1.56,6.35v3.28Zm-2.53-3.46c0-2.14-.3-3.7-.9-4.68-.6-.98-1.55-1.47-2.86-1.47s-2.24.49-2.83,1.46c-.59.98-.9,2.47-.92,4.5v4.05c0,2.15.31,3.74.94,4.76s1.57,1.54,2.84,1.54,2.18-.48,2.78-1.45c.61-.97.92-2.49.95-4.57v-4.14Z" stroke-width="0"/><path d="m834.05,257.2l5.69-16.42h2.87l-7.38,19.91h-2.32l-7.37-19.91h2.86l5.66,16.42Z" stroke-width="0"/><path d="m851.72,252.61c0-2.06.28-4.04.83-5.93.55-1.9,1.37-3.62,2.47-5.17,1.09-1.55,2.23-2.64,3.4-3.28l.52,1.67c-1.33,1.02-2.42,2.58-3.27,4.68-.85,2.1-1.32,4.44-1.4,7.04v1.16c-.01,3.52.63,6.57,1.91,9.16.77,1.55,1.7,2.76,2.76,3.64l-.52,1.54c-1.21-.67-2.37-1.8-3.47-3.39-2.15-3.1-3.23-6.8-3.23-11.12Z" stroke-width="0"/><path d="m872.77,255.48h-8.34l-1.87,5.21h-2.71l7.6-19.91h2.3l7.62,19.91h-2.69l-1.9-5.21Zm-7.55-2.15h6.77l-3.39-9.31-3.38,9.31Z" stroke-width="0"/><path d="m894.54,254.37c-.25,2.11-1.02,3.73-2.33,4.87-1.31,1.14-3.05,1.72-5.22,1.72-2.35,0-4.24-.84-5.65-2.53-1.42-1.69-2.13-3.94-2.13-6.77v-1.91c0-1.85.33-3.48.99-4.88.66-1.4,1.6-2.48,2.81-3.23s2.62-1.13,4.21-1.13c2.11,0,3.81.59,5.09,1.77,1.28,1.18,2.02,2.81,2.23,4.9h-2.64c-.23-1.59-.72-2.74-1.48-3.46-.76-.71-1.83-1.07-3.19-1.07-1.68,0-2.99.62-3.94,1.86-.95,1.24-1.43,3.01-1.43,5.29v1.93c0,2.16.45,3.88,1.35,5.16s2.17,1.92,3.79,1.92c1.46,0,2.58-.33,3.36-.99.78-.66,1.3-1.81,1.55-3.45h2.64Z" stroke-width="0"/><path d="m903.21,252.74c0,2.03-.27,3.98-.8,5.84-.53,1.86-1.35,3.58-2.45,5.16-1.1,1.58-2.25,2.7-3.45,3.36l-.53-1.54c1.4-1.08,2.53-2.75,3.38-5.01s1.29-4.78,1.31-7.54v-.44c0-1.91-.2-3.69-.6-5.34-.4-1.65-.96-3.12-1.67-4.42-.72-1.3-1.52-2.32-2.41-3.05l.53-1.54c1.2.67,2.35,1.78,3.44,3.34s1.91,3.28,2.45,5.15c.54,1.88.81,3.89.81,6.03Z" stroke-width="0"/><path d="m269.93,170.62s283.26,11.21,232.55,11.21" fill="none" stroke="#d3a122" stroke-linecap="round" stroke-linejoin="round" stroke-width="7"/><path d="m859.25,169.83s-247.64-1.13-203.41,1.08" fill="none" stroke="#d3a122" stroke-linecap="round" stroke-linejoin="round" stroke-width="7"/><path d="m414.68,188.16c-30.01,8.94,114.26,2.81,86.16,14.69" fill="none" stroke="#d3a122" stroke-linecap="round" stroke-linejoin="round" stroke-width="7"/><path d="m414.68,213.55c-30.01,8.94,114.26,2.81,86.16,14.69" fill="none" stroke="#d3a122" stroke-linecap="round" stroke-linejoin="round" stroke-width="7"/><path d="m742.71,220.89c30.01,8.94-114.26,2.81-86.16,14.69" fill="none" stroke="#d3a122" stroke-linecap="round" stroke-linejoin="round" stroke-width="7"/><path d="m742.71,250.93c30.01,8.94-114.26,2.81-86.16,14.69" fill="none" stroke="#d3a122" stroke-linecap="round" stroke-linejoin="round" stroke-width="7"/><path d="m742.71,280.96c30.01,8.94-114.26,2.81-86.16,14.69" fill="none" stroke="#d3a122" stroke-linecap="round" stroke-linejoin="round" stroke-width="7"/><path d="m414.68,240.92c-30.01,8.94,114.26,2.81,86.16,14.69" fill="none" stroke="#d3a122" stroke-linecap="round" stroke-linejoin="round" stroke-width="7"/><path d="m414.68,264.13c-30.01,8.94,114.26,2.81,86.16,14.69" fill="none" stroke="#d3a122" stroke-linecap="round" stroke-linejoin="round" stroke-width="7"/><path d="m414.68,291.52c-30.01,8.94,114.26,2.81,86.16,14.69" fill="none" stroke="#d3a122" stroke-linecap="round" stroke-linejoin="round" stroke-width="7"/><path d="m414.68,316.91c-30.01,8.94,114.26,2.81,86.16,14.69" fill="none" stroke="#d3a122" stroke-linecap="round" stroke-linejoin="round" stroke-width="7"/></svg>