<?xml version="1.0" encoding="UTF-8"?>
<svg id="Guides_Delete_Me_" data-name="Guides (Delete Me)" xmlns="http://www.w3.org/2000/svg" xmlns:xlink="http://www.w3.org/1999/xlink" viewBox="0 0 1140 715.281">
  <defs>
    <style>
      .cls-1 {
        clip-path: url(#clippath);
      }

      .cls-2 {
        fill: none;
      }

      .cls-2, .cls-3, .cls-4, .cls-5, .cls-6 {
        stroke-width: 0px;
      }

      .cls-3 {
        fill: #61a6c5;
        opacity: .51;
      }

      .cls-4 {
        fill: #f9cd16;
      }

      .cls-5 {
        fill: #2d2c28;
      }

      .cls-6 {
        fill: #c1eada;
      }
    </style>
    <clipPath id="clippath">
      <path class="cls-2" d="m549.454,12.489C-31.092-35.88,1.957,61.2,31.089,218.179c28.857,155.499-52.513,410.556,17.069,468.156,90.902,75.248,300.57-23.718,612.982,7.906,312.412,31.623,471.304,51.48,456.689-152.707-14.616-204.187,34.95-459.671-30.888-510.643-65.838-50.972-309.132.624-537.486-18.402Z"/>
    </clipPath>
  </defs>
  <path class="cls-6" d="m549.454,12.489C-31.092-35.88,1.957,61.2,31.089,218.179c28.857,155.499-52.513,410.556,17.069,468.156,90.902,75.248,300.57-23.718,612.982,7.906,312.412,31.623,471.304,51.48,456.689-152.707-14.616-204.187,34.95-459.671-30.888-510.643-65.838-50.972-309.132.624-537.486-18.402Z"/>
  <g class="cls-1">
    <g>
      <g>
        <polygon class="cls-3" points="170.704 -48.587 141.32 61.801 179.593 44.419 179.593 106.926 167.178 98.333 180.107 146.786 208.315 101.859 190.685 107.736 218.894 7.831 179.593 20.76 204.789 -48.587 170.704 -48.587"/>
        <polygon class="cls-3" points="351.701 -48.587 322.317 61.801 360.59 44.419 360.59 106.926 348.175 98.333 361.104 146.786 389.313 101.859 371.682 107.736 399.891 7.831 360.59 20.76 385.786 -48.587 351.701 -48.587"/>
        <polygon class="cls-3" points="532.698 -48.587 503.314 61.801 541.587 44.419 541.587 106.926 529.172 98.333 542.101 146.786 570.31 101.859 552.679 107.736 580.888 7.831 541.587 20.76 566.784 -48.587 532.698 -48.587"/>
        <polygon class="cls-3" points="713.695 -48.587 684.311 61.801 722.585 44.419 722.585 106.926 710.169 98.333 723.098 146.786 751.307 101.859 733.677 107.736 761.885 7.831 722.585 20.76 747.781 -48.587 713.695 -48.587"/>
        <polygon class="cls-3" points="894.693 -48.587 865.309 61.801 903.582 44.419 903.582 106.926 891.167 98.333 904.096 146.786 932.304 101.859 914.674 107.736 942.882 7.831 903.582 20.76 928.778 -48.587 894.693 -48.587"/>
        <polygon class="cls-3" points="1075.69 -48.587 1046.306 61.801 1084.579 44.419 1084.579 106.926 1072.164 98.333 1085.093 146.786 1113.301 101.859 1095.671 107.736 1123.88 7.831 1084.579 20.76 1109.775 -48.587 1075.69 -48.587"/>
      </g>
      <g>
        <polygon class="cls-3" points="80.205 175.175 50.821 285.562 89.094 268.18 89.094 330.687 76.679 322.095 89.608 370.548 117.817 325.621 100.186 331.498 128.395 231.592 89.094 244.521 114.291 175.175 80.205 175.175"/>
        <polygon class="cls-3" points="261.202 175.175 231.818 285.562 270.092 268.18 270.092 330.687 257.676 322.095 270.605 370.548 298.814 325.621 281.184 331.498 309.392 231.592 270.092 244.521 295.288 175.175 261.202 175.175"/>
        <polygon class="cls-3" points="442.2 175.175 412.816 285.562 451.089 268.18 451.089 330.687 438.674 322.095 451.603 370.548 479.811 325.621 462.181 331.498 490.389 231.592 451.089 244.521 476.285 175.175 442.2 175.175"/>
        <polygon class="cls-3" points="623.197 175.175 593.813 285.562 632.086 268.18 632.086 330.687 619.671 322.095 632.6 370.548 660.808 325.621 643.178 331.498 671.387 231.592 632.086 244.521 657.282 175.175 623.197 175.175"/>
        <polygon class="cls-3" points="804.194 175.175 774.81 285.562 813.083 268.18 813.083 330.687 800.668 322.095 813.597 370.548 841.806 325.621 824.175 331.498 852.384 231.592 813.083 244.521 838.28 175.175 804.194 175.175"/>
        <polygon class="cls-3" points="985.191 175.175 955.807 285.562 994.08 268.18 994.08 330.687 981.665 322.095 994.594 370.548 1022.803 325.621 1005.172 331.498 1033.381 231.592 994.08 244.521 1019.277 175.175 985.191 175.175"/>
      </g>
      <g>
        <polygon class="cls-3" points="170.704 398.936 141.32 509.323 179.593 491.942 179.593 554.448 167.178 545.856 180.107 594.309 208.315 549.382 190.685 555.259 218.894 455.353 179.593 468.282 204.789 398.936 170.704 398.936"/>
        <polygon class="cls-3" points="351.701 398.936 322.317 509.323 360.59 491.942 360.59 554.448 348.175 545.856 361.104 594.309 389.313 549.382 371.682 555.259 399.891 455.353 360.59 468.282 385.786 398.936 351.701 398.936"/>
        <polygon class="cls-3" points="532.698 398.936 503.314 509.323 541.587 491.942 541.587 554.448 529.172 545.856 542.101 594.309 570.31 549.382 552.679 555.259 580.888 455.353 541.587 468.282 566.784 398.936 532.698 398.936"/>
        <polygon class="cls-3" points="713.695 398.936 684.311 509.323 722.585 491.942 722.585 554.448 710.169 545.856 723.098 594.309 751.307 549.382 733.677 555.259 761.885 455.353 722.585 468.282 747.781 398.936 713.695 398.936"/>
        <polygon class="cls-3" points="894.693 398.936 865.309 509.323 903.582 491.942 903.582 554.448 891.167 545.856 904.096 594.309 932.304 549.382 914.674 555.259 942.882 455.353 903.582 468.282 928.778 398.936 894.693 398.936"/>
        <polygon class="cls-3" points="1075.69 398.936 1046.306 509.323 1084.579 491.942 1084.579 554.448 1072.164 545.856 1085.093 594.309 1113.301 549.382 1095.671 555.259 1123.88 455.353 1084.579 468.282 1109.775 398.936 1075.69 398.936"/>
      </g>
      <g>
        <polygon class="cls-3" points="80.205 622.697 50.821 733.085 89.094 715.703 89.094 778.21 76.679 769.618 89.608 818.071 117.817 773.144 100.186 779.02 128.395 679.115 89.094 692.044 114.291 622.697 80.205 622.697"/>
        <polygon class="cls-3" points="261.202 622.697 231.818 733.085 270.092 715.703 270.092 778.21 257.676 769.618 270.605 818.071 298.814 773.144 281.184 779.02 309.392 679.115 270.092 692.044 295.288 622.697 261.202 622.697"/>
        <polygon class="cls-3" points="442.2 622.697 412.816 733.085 451.089 715.703 451.089 778.21 438.674 769.618 451.603 818.071 479.811 773.144 462.181 779.02 490.389 679.115 451.089 692.044 476.285 622.697 442.2 622.697"/>
        <polygon class="cls-3" points="623.197 622.697 593.813 733.085 632.086 715.703 632.086 778.21 619.671 769.618 632.6 818.071 660.808 773.144 643.178 779.02 671.387 679.115 632.086 692.044 657.282 622.697 623.197 622.697"/>
        <polygon class="cls-3" points="804.194 622.697 774.81 733.085 813.083 715.703 813.083 778.21 800.668 769.618 813.597 818.071 841.806 773.144 824.175 779.02 852.384 679.115 813.083 692.044 838.28 622.697 804.194 622.697"/>
        <polygon class="cls-3" points="985.191 622.697 955.807 733.085 994.08 715.703 994.08 778.21 981.665 769.618 994.594 818.071 1022.803 773.144 1005.172 779.02 1033.381 679.115 994.08 692.044 1019.277 622.697 985.191 622.697"/>
      </g>
    </g>
  </g>
  <g>
    <polygon class="cls-4" points="318.705 535.826 570.021 100.535 821.336 535.826 318.705 535.826"/>
    <path class="cls-5" d="m570.02,133.639l111.323,192.817,111.323,192.817h-445.293l111.323-192.817,111.323-192.817m0-51.379c-4.994,0-9.989,2.472-12.843,7.415l-127.149,220.229-127.15,220.229c-5.708,9.886,1.427,22.244,12.843,22.244h508.598c11.416,0,18.55-12.358,12.843-22.244l-127.15-220.229-127.15-220.229c-2.854-4.943-7.848-7.415-12.842-7.415h0Z"/>
  </g>
  <g>
    <path class="cls-5" d="m612.798,396.328c-15.528,3.952-31.056,7.905-47.57,12.108,7.221-9.108,13.911-17.546,21.114-26.631-24.072,6.243-47.426,12.3-71.181,18.461,0-9.231,0-18.229,0-27.226,0-15.798.099-31.596-.085-47.392-.037-3.146.92-3.683,3.8-3.554,11.929.533,17.654,6.286,17.712,18.199.05,10.155.17,20.312.026,30.465-.041,2.92.47,4.463,3.782,4.372,3.968-.108,2.031-3.025,2.045-4.475.297-30.625.422-74.827.607-105.453.035-5.82,3.369-9.874,9.197-11.369,3.603-.925,9.011,1.888,11.271,5.809,1.184,2.054,1.198,4.269,1.193,6.543-.062,28.855-.109,71.286-.091,100.14.001,1.866-1.391,4.43,2.752,4.561,4.087.129,3.44-2.125,3.44-4.507-.006-34.336-.001-82.248-.001-116.583,0-7.4,3.965-12.052,10.186-11.935,5.927.111,10.791,5.694,10.773,12.422-.092,34.012-.203,81.6-.282,115.612-.005,2.317-1.222,5.014,3.343,5.011,4.192-.004,3.648-2.139,3.645-4.765-.038-29.177-.034-71.931-.015-101.108.005-7.759,3.545-11.779,10.136-11.66,6.351.115,10.189,4.611,10.192,11.993.01,29.822-.003,73.22.044,103.043.003,1.636-1.118,3.946,2.39,3.962,2.85.013,3.349-.894,3.334-3.554-.12-20.633-.07-54.843-.06-75.477.004-7.186,3.752-11.446,10.03-11.456,6.345-.01,11.176,4.791,11.181,11.302.025,34.98-.013,83.537.056,118.518.004,2.218-.248,3.546-2.775,4.039-15.124,2.951-30.221,6.035-45.332,9.054-.281.056-.611-.135-1.473-.348,5.948-9.218,11.796-18.282,17.644-27.347.016-.387.032-.774.049-1.161-.358.13-.716.26-1.074.39Z"/>
    <path class="cls-5" d="m642.425,426.061c-2.984,1.066-6.286,1.23-9.441,1.829-18.858,3.58-37.714,7.17-57.681,10.968,6.212-9.467,11.874-18.095,18.016-27.455-15.949,3.856-31.169,7.535-47.038,11.372,3.274-4.691,6.165-8.851,9.075-12.997,3.02-4.304,6.058-8.594,9.664-13.707-16.641,4.777-32.294,9.36-48.015,13.694-2.551.703-2.334,2.137-2.281,3.916.199,6.6.281,13.205.604,19.798.841,17.201,5.218,32.68,21.364,42.121,2.398,1.402,3.087,3.21,3.031,5.907-.17,8.055.025,12.098-.113,20.154-.044,2.553.384,3.626,3.354,3.609,24.675-.141,49.351-.166,74.026-.024,3.391.02,3.849-1.035,3.787-4.13-.176-8.855.176-13.7.153-22.56-.005-2.023.586-3.259,2.318-4.282,17.18-10.154,22.212-26.498,22.87-45.048.092-2.591-.012-4.481-3.693-3.166Z"/>
  </g>
  <path class="cls-5" d="m500.435,393.609c-3.731-.191-7.479-.062-12.114-.062,4.698-4.367,8.371-8.207,12.494-11.482,3.361-2.669,2.676-4.403-.603-6.407-3.852,3.504-7.862,6.959-11.623,10.666-1.566,1.543-2.739,1.867-4.432.434-4.548-3.851-9.328-7.452-13.663-11.526-4.709-4.425-5.057-10.167-.67-14.5,6.112-6.037,12.383-11.992,19.129-17.291,9.299-7.305,15.364-22.924,11.939-33.551-2.043-6.338-7.64-9.9-12.535-13.592-9.278-6.999-19.283-12.853-29.358-18.598-3.764,5.472-7.808,10.485-12.446,14.886,8.14,4.815,16.276,9.638,24.453,14.388,10.359,6.018,13.488,14.647,2.523,23.907-1.599,1.351-3.158,2.749-4.767,4.088-4.331,3.604-8.833,7.02-12.99,10.814-11.228,10.248-12.815,23.718-4.515,36.444,5.697,8.734,13.706,15.062,21.914,21.212,1.658,1.242,3.214,1.587,4.719.24,2.395-2.143,2.973-.67,3.609,1.455,1.19,3.973,2.52,7.905,3.788,11.855.443,1.382.017,3.436,2.856,2.357,2.288-.869,2.962-1.742,2.088-4.151-1.528-4.212-2.392-8.686-4.144-12.791-1.59-3.726-.08-3.956,2.954-3.816,3.702.17,7.417.077,11.126.026,1.926-.026,4.246.834,4.294-2.719.049-3.668-2.497-2.207-4.027-2.285Z"/>
</svg>