<?xml version="1.0" encoding="UTF-8"?><svg id="a" xmlns="http://www.w3.org/2000/svg" width="1140" height="544" viewBox="0 0 1140 544"><path d="m1136.775,290.48c0,68.029-59.776,208.504-209.179,235.582-159.158,28.847-238.737-5.769-580.926,13.462C45.02,556.477-32.358,289.617,16.986,151.053,73.828-8.566,436.566,3.934,738.881,3.934s397.895,141.833,397.895,286.545Z" fill="#f4eedf"/><path d="m327.063,248.53v55.611h621.421s-1.876,134.245,0,133.431H208.847v-189.042" fill="none" stroke="#000" stroke-linecap="round" stroke-linejoin="round" stroke-width="2"/><circle cx="504.426" cy="304.077" r="25" fill="#f4eedf" stroke="#000" stroke-linecap="round" stroke-linejoin="round" stroke-width="2"/><path d="m508.597,308.447h-8.34l-1.873,5.209h-2.707l7.602-19.906h2.297l7.615,19.906h-2.693l-1.9-5.209Zm-7.547-2.146h6.768l-3.391-9.311-3.377,9.311Z"/><rect x="717.016" y="294.33" width="78.442" height="22.737" rx="7.032" ry="7.032" fill="#b29a5b"/><line x1="736.205" y1="294.256" x2="736.205" y2="316.993" fill="none" stroke="#66542f" stroke-miterlimit="10" stroke-width="3"/><line x1="756.416" y1="294.256" x2="756.416" y2="316.993" fill="none" stroke="#161819" stroke-miterlimit="10" stroke-width="3"/><line x1="780.163" y1="294.256" x2="780.163" y2="316.993" fill="none" stroke="#226642" stroke-miterlimit="10" stroke-width="3"/><line x1="769.047" y1="294.256" x2="769.047" y2="316.993" fill="none" stroke="#3d6482" stroke-miterlimit="10" stroke-width="3"/><path d="m725.384,339.967h-3.707v6.902h-2.093v-17.062h5.226c1.778,0,3.146.438,4.104,1.312s1.437,2.148,1.437,3.82c0,1.062-.266,1.988-.797,2.777s-1.271,1.379-2.217,1.77l3.707,7.242v.141h-2.233l-3.426-6.902Zm-3.707-1.84h3.198c1.033,0,1.855-.289,2.466-.869.611-.579.916-1.354.916-2.324,0-1.057-.291-1.866-.872-2.43-.582-.563-1.423-.85-2.521-.857h-3.188v6.48Z"/><path d="m737.818,347.104c-1.59,0-2.884-.564-3.881-1.693s-1.496-2.639-1.496-4.529v-.398c0-1.258.223-2.381.667-3.369s1.065-1.762,1.864-2.32,1.664-.838,2.597-.838c1.525,0,2.71.543,3.556,1.629s1.269,2.641,1.269,4.664v.902h-7.946c.028,1.25.366,2.26,1.014,3.029.646.77,1.469,1.154,2.466,1.154.709,0,1.309-.156,1.8-.469s.922-.727,1.29-1.242l1.226,1.031c-.983,1.633-2.458,2.449-4.424,2.449Zm-.249-11.367c-.81,0-1.489.318-2.038.955s-.889,1.529-1.019,2.678h5.875v-.164c-.058-1.102-.332-1.955-.823-2.561-.492-.605-1.156-.908-1.995-.908Z"/><path d="m751.544,343.506c0-.586-.204-1.041-.612-1.365-.409-.324-1.121-.604-2.136-.838-1.016-.234-1.821-.516-2.418-.844s-1.037-.719-1.322-1.172c-.286-.453-.429-.992-.429-1.617,0-1.039.406-1.918,1.22-2.637s1.852-1.078,3.117-1.078c1.329,0,2.408.371,3.235,1.113.828.742,1.241,1.691,1.241,2.848h-2.016c0-.594-.233-1.105-.699-1.535-.467-.43-1.054-.645-1.762-.645-.73,0-1.302.172-1.713.516-.412.344-.618.793-.618,1.348,0,.523.191.918.574,1.184s1.075.52,2.076.762,1.812.531,2.434.867c.622.336,1.083.74,1.383,1.213s.45,1.049.45,1.729c0,1.133-.42,2.041-1.258,2.725-.839.684-1.927,1.025-3.264,1.025-.939,0-1.771-.18-2.493-.539s-1.288-.861-1.696-1.506c-.409-.645-.613-1.342-.613-2.092h2.006c.036.727.306,1.303.808,1.729s1.166.639,1.989.639c.759,0,1.368-.166,1.827-.498s.688-.775.688-1.33Z"/><path d="m756.173,330.826c0-.352.1-.648.298-.891.199-.242.493-.363.884-.363s.687.121.889.363.304.539.304.891-.102.645-.304.879-.498.352-.889.352-.685-.117-.884-.352c-.198-.234-.298-.527-.298-.879Zm2.168,16.043h-2.005v-12.68h2.005v12.68Z"/><path d="m768.38,343.506c0-.586-.204-1.041-.612-1.365s-1.12-.604-2.136-.838-1.821-.516-2.418-.844c-.596-.328-1.037-.719-1.322-1.172s-.428-.992-.428-1.617c0-1.039.406-1.918,1.22-2.637.812-.719,1.852-1.078,3.116-1.078,1.33,0,2.408.371,3.236,1.113.827.742,1.241,1.691,1.241,2.848h-2.017c0-.594-.233-1.105-.699-1.535s-1.054-.645-1.762-.645c-.729,0-1.301.172-1.713.516s-.618.793-.618,1.348c0,.523.191.918.575,1.184.383.266,1.075.52,2.076.762s1.812.531,2.434.867c.621.336,1.082.74,1.382,1.213s.45,1.049.45,1.729c0,1.133-.419,2.041-1.258,2.725-.838.684-1.926,1.025-3.263,1.025-.939,0-1.771-.18-2.494-.539s-1.288-.861-1.696-1.506-.612-1.342-.612-2.092h2.006c.036.727.305,1.303.808,1.729.502.426,1.165.639,1.989.639.759,0,1.367-.166,1.826-.498s.688-.775.688-1.33Z"/><path d="m775.72,331.119v3.07h2.189v1.676h-2.189v7.873c0,.509.098.89.293,1.145.194.254.527.381.997.381.231,0,.549-.047.954-.141v1.748c-.527.154-1.041.232-1.54.232-.896,0-1.571-.293-2.026-.879-.456-.586-.684-1.418-.684-2.496v-7.863h-2.136v-1.676h2.136v-3.07h2.006Z"/><path d="m779.503,340.412c0-1.242.226-2.359.678-3.352.451-.992,1.08-1.758,1.886-2.297.807-.539,1.726-.809,2.76-.809,1.597,0,2.889.598,3.875,1.793.987,1.195,1.48,2.785,1.48,4.77v.152c0,1.234-.219,2.342-.656,3.322s-1.062,1.744-1.875,2.291c-.813.547-1.748.82-2.803.82-1.59,0-2.878-.598-3.865-1.793-.986-1.195-1.479-2.777-1.479-4.746v-.152Zm2.017.258c0,1.406.302,2.535.905,3.387s1.411,1.277,2.423,1.277c1.019,0,1.828-.432,2.429-1.295.6-.863.899-2.072.899-3.627,0-1.391-.306-2.518-.916-3.381-.611-.863-1.422-1.295-2.434-1.295-.99,0-1.789.426-2.396,1.277-.606.852-.91,2.07-.91,3.656Z"/><path d="m798.366,336.135c-.303-.055-.632-.082-.986-.082-1.315,0-2.208.605-2.678,1.816v9h-2.006v-12.68h1.952l.032,1.465c.657-1.133,1.59-1.699,2.797-1.699.391,0,.687.055.889.164v2.016Z"/><polyline points="705.168 303.127 698.168 158.256 814.305 158.256 807.305 304.13" fill="none" stroke="#000" stroke-linecap="round" stroke-linejoin="round" stroke-width="2"/><circle cx="756.237" cy="158.856" r="25" fill="#f4eedf" stroke="#000" stroke-linecap="round" stroke-linejoin="round" stroke-width="2"/><path d="m756.23,165.664l5.688-16.42h2.871l-7.383,19.906h-2.324l-7.369-19.906h2.857l5.66,16.42Z"/><rect x="163.616" y="106.424" width="196.674" height="140.968" fill="#b8bcc4"/><circle cx="283.363" cy="195.098" r="17.053" fill="#212833"/><line x1="283.363" y1="195.098" x2="283.363" y2="180.674" fill="none" stroke="#fff" stroke-linecap="round" stroke-linejoin="round" stroke-width="2"/><path d="m197.207,143.895v6.68h-2.082v-17.062h5.822c1.728,0,3.08.477,4.06,1.43s1.469,2.215,1.469,3.785c0,1.656-.479,2.932-1.436,3.826-.958.895-2.33,1.342-4.114,1.342h-3.719Zm0-1.84h3.74c1.112,0,1.966-.283,2.559-.852.592-.566.889-1.387.889-2.459,0-1.018-.297-1.831-.889-2.441-.593-.61-1.406-.928-2.439-.951h-3.859v6.703Z"/><path d="m208.146,144.118c0-1.242.226-2.359.678-3.352.451-.992,1.08-1.758,1.886-2.297.807-.539,1.726-.809,2.76-.809,1.597,0,2.889.598,3.875,1.793.987,1.195,1.48,2.785,1.48,4.77v.152c0,1.234-.219,2.342-.656,3.322s-1.062,1.744-1.875,2.291c-.813.547-1.748.82-2.803.82-1.59,0-2.878-.598-3.865-1.793-.986-1.195-1.479-2.777-1.479-4.746v-.152Zm2.017.258c0,1.406.302,2.535.905,3.387s1.411,1.277,2.423,1.277c1.019,0,1.828-.432,2.429-1.295.6-.863.899-2.072.899-3.627,0-1.391-.306-2.518-.916-3.381-.611-.863-1.422-1.295-2.434-1.295-.99,0-1.789.426-2.396,1.277-.606.852-.91,2.07-.91,3.656Z"/><path d="m231.725,147.587l2.256-9.691h2.005l-3.415,12.68h-1.626l-2.851-9.609-2.775,9.609h-1.627l-3.403-12.68h1.994l2.31,9.492,2.731-9.492h1.615l2.786,9.691Z"/><path d="m242.892,150.809c-1.59,0-2.884-.564-3.881-1.693-.998-1.129-1.496-2.639-1.496-4.529v-.398c0-1.258.222-2.381.666-3.369.445-.988,1.066-1.762,1.865-2.32s1.664-.838,2.597-.838c1.524,0,2.71.543,3.556,1.629s1.269,2.641,1.269,4.664v.902h-7.947c.029,1.25.367,2.26,1.014,3.029.647.77,1.47,1.154,2.467,1.154.708,0,1.308-.156,1.8-.469.491-.312.921-.727,1.29-1.242l1.225,1.031c-.982,1.633-2.457,2.449-4.423,2.449Zm-.249-11.367c-.81,0-1.489.318-2.038.955-.55.637-.89,1.529-1.02,2.678h5.876v-.164c-.058-1.102-.333-1.955-.824-2.561s-1.156-.908-1.994-.908Z"/><path d="m255.456,139.841c-.303-.055-.632-.082-.986-.082-1.315,0-2.208.605-2.678,1.816v9h-2.006v-12.68h1.952l.032,1.465c.657-1.133,1.59-1.699,2.797-1.699.391,0,.687.055.889.164v2.016Z"/><path d="m269.626,147.212c0-.586-.204-1.041-.612-1.365-.409-.324-1.121-.604-2.136-.838-1.016-.234-1.821-.516-2.418-.844s-1.037-.719-1.322-1.172c-.286-.453-.429-.992-.429-1.617,0-1.039.406-1.918,1.22-2.637s1.852-1.078,3.117-1.078c1.329,0,2.408.371,3.235,1.113.828.742,1.241,1.691,1.241,2.848h-2.016c0-.594-.233-1.105-.699-1.535-.467-.43-1.054-.645-1.762-.645-.73,0-1.302.172-1.713.516-.412.344-.618.793-.618,1.348,0,.523.191.918.574,1.184s1.075.52,2.076.762,1.812.531,2.434.867c.622.336,1.083.74,1.383,1.213s.45,1.049.45,1.729c0,1.133-.42,2.041-1.258,2.725-.839.684-1.927,1.025-3.264,1.025-.939,0-1.771-.18-2.493-.539s-1.288-.861-1.696-1.506c-.409-.645-.613-1.342-.613-2.092h2.006c.036.727.306,1.303.808,1.729s1.166.639,1.989.639c.759,0,1.368-.166,1.827-.498s.688-.775.688-1.33Z"/><path d="m281.486,149.321c-.781.992-1.927,1.488-3.438,1.488-1.25,0-2.202-.393-2.856-1.178s-.984-1.947-.991-3.486v-8.25h2.005v8.191c0,1.922.723,2.883,2.169,2.883,1.531,0,2.551-.617,3.057-1.852v-9.223h2.006v12.68h-1.908l-.043-1.254Z"/><path d="m296.393,144.376c0,1.93-.409,3.484-1.226,4.664s-1.923,1.77-3.317,1.77c-1.424,0-2.544-.488-3.36-1.465v6.105h-2.006v-17.555h1.832l.098,1.406c.816-1.094,1.951-1.641,3.404-1.641,1.409,0,2.523.574,3.345,1.723.819,1.148,1.23,2.746,1.23,4.793v.199Zm-2.006-.246c0-1.43-.282-2.559-.846-3.387s-1.337-1.242-2.32-1.242c-1.214,0-2.125.582-2.731,1.746v6.059c.6,1.156,1.518,1.734,2.753,1.734.962,0,1.726-.412,2.293-1.236s.852-2.049.852-3.674Z"/><path d="m308.849,144.376c0,1.93-.408,3.484-1.225,4.664-.817,1.18-1.923,1.77-3.317,1.77-1.425,0-2.545-.488-3.361-1.465v6.105h-2.006v-17.555h1.833l.097,1.406c.817-1.094,1.952-1.641,3.404-1.641,1.409,0,2.524.574,3.345,1.723s1.23,2.746,1.23,4.793v.199Zm-2.006-.246c0-1.43-.281-2.559-.846-3.387-.563-.828-1.337-1.242-2.319-1.242-1.215,0-2.125.582-2.732,1.746v6.059c.6,1.156,1.518,1.734,2.754,1.734.961,0,1.726-.412,2.293-1.236s.851-2.049.851-3.674Z"/><path d="m313.575,150.575h-2.005v-18h2.005v18Z"/><path d="m320.622,147.399l2.732-9.504h2.146l-4.716,14.637c-.73,2.109-1.891,3.164-3.48,3.164l-.379-.035-.748-.152v-1.758l.542.047c.679,0,1.209-.148,1.588-.445.38-.297.692-.84.938-1.629l.445-1.289-4.186-12.539h2.19l2.927,9.504Z"/><path d="m344.033,260.887h5.135v2.393h-5.135v6.289h-2.353v-6.289h-5.136v-2.393h5.136v-5.811h2.353v5.811Z"/><path d="m195.315,260.887v2.393h-12.623v-2.393h12.623Z"/><path d="m465.672,288.424h5.136v2.393h-5.136v6.29h-2.353v-6.29h-5.135v-2.393h5.135v-5.811h2.353v5.811Z"/><path d="m551.026,288.424v2.393h-12.623v-2.393h12.623Z"/></svg>