<?xml version="1.0" encoding="UTF-8"?><svg id="a" xmlns="http://www.w3.org/2000/svg" width="1140" height="360" xmlns:xlink="http://www.w3.org/1999/xlink" viewBox="0 0 1140 360"><defs><clipPath id="b"><path d="m11.941,101.887C36.768,19.443,172.306-19.012,573.789,11.805c136.559,10.482,332.057-24.228,449.251,4.741,72.374,17.89,97.399,67.676,112.597,144.605,16.72,84.634,2.124,179.314-531.14,195.572C176.856,369.762-55.163,324.721,11.941,101.887Z" fill="none"/></clipPath></defs><path d="m11.941,101.887C36.768,19.443,172.306-19.012,573.789,11.805c136.559,10.482,332.057-24.228,449.251,4.741,72.374,17.89,97.399,67.676,112.597,144.605,16.72,84.634,2.124,179.314-531.14,195.572C176.856,369.762-55.163,324.721,11.941,101.887Z" fill="#eee8ef"/><g clip-path="url(#b)"><rect x="1.616" y="130.021" width="1184.589" height="116" fill="#d6ced8"/></g><rect x="401.359" y="98.211" width="222.821" height="201.221" fill="#fef8ff"/><path d="m559.237,141.411c4.773-4.773-3.713-13.258,1.06-18.031,4.771-4.771,13.256,3.714,18.028-1.057,4.772-4.772-3.713-13.258,1.059-18.03,4.774-4.774,13.259,3.711,18.033-1.063,4.773-4.772-3.713-13.258,1.06-18.03,4.776-4.776,13.261,3.709,18.037-1.066,1.497-1.497,1.691-3.359,1.399-5.357-.427-2.921.426-5.882,2.514-7.97" fill="none" stroke="#d12a2a" stroke-miterlimit="10" stroke-width="2"/><polygon points="624.418 78.099 628.546 62.688 613.135 66.817 624.418 78.099" fill="#d12a2a"/><line x1="142.016" y1="275.558" x2="376.205" y2="275.558" fill="none" stroke="#000" stroke-miterlimit="10" stroke-width="2"/><polygon points="373.871 283.536 387.687 275.558 373.871 267.58 373.871 283.536"/><line x1="639.472" y1="275.558" x2="994.647" y2="275.558" fill="none" stroke="#000" stroke-miterlimit="10" stroke-width="2"/><polygon points="992.313 283.536 1006.129 275.558 992.313 267.58 992.313 283.536"/><circle cx="193.097" cy="187.844" r="50" fill="#a5c3c9"/><path d="m178.076,196.554h-3.133v-13.055l-3.74,1.254v-2.754l6.537-2.531h.336v17.086Z"/><path d="m193.829,189.5c0,2.359-.452,4.164-1.355,5.414s-2.227,1.875-3.968,1.875c-1.721,0-3.036-.613-3.946-1.84-.911-1.227-1.377-2.984-1.398-5.273v-3.141c0-2.383.457-4.191,1.371-5.426s2.231-1.852,3.952-1.852,3.035.611,3.946,1.834c.91,1.223,1.376,2.979,1.398,5.268v3.141Zm-3.134-3.453c0-1.415-.179-2.445-.536-3.091-.358-.646-.916-.968-1.675-.968-.737,0-1.281.307-1.632.921s-.537,1.573-.559,2.88v4.152c0,1.392.176,2.426.526,3.103.35.677.912,1.015,1.686,1.015.766,0,1.318-.324,1.658-.974.34-.648.517-1.642.531-2.979v-4.059Z"/><path d="m208.172,179.492h3.252v11.812c0,1.086-.222,2.045-.666,2.877-.445.832-1.072,1.475-1.882,1.928-.809.453-1.724.68-2.742.68-1.67,0-2.971-.459-3.903-1.377-.932-.918-1.398-2.217-1.398-3.896h3.274c0,.836.162,1.453.487,1.852.326.398.839.598,1.54.598.621,0,1.116-.23,1.485-.691.368-.461.553-1.117.553-1.969v-11.812Z"/><circle cx="314.739" cy="187.844" r="50" fill="#a5c3c9"/><path d="m299.719,196.554h-3.133v-13.055l-3.74,1.254v-2.754l6.537-2.531h.336v17.086Z"/><path d="m315.471,189.5c0,2.359-.451,4.164-1.355,5.414-.902,1.25-2.226,1.875-3.967,1.875-1.721,0-3.036-.613-3.947-1.84-.91-1.227-1.376-2.984-1.398-5.273v-3.141c0-2.383.457-4.191,1.372-5.426.914-1.234,2.231-1.852,3.952-1.852s3.035.611,3.945,1.834c.911,1.223,1.377,2.979,1.398,5.268v3.141Zm-3.133-3.453c0-1.415-.179-2.445-.537-3.091-.357-.646-.916-.968-1.674-.968-.738,0-1.281.307-1.633.921-.35.614-.536,1.573-.558,2.88v4.152c0,1.392.175,2.426.526,3.103.35.677.912,1.015,1.686,1.015.766,0,1.318-.324,1.658-.974.34-.648.517-1.642.531-2.979v-4.059Z"/><path d="m329.814,179.492h3.252v11.812c0,1.086-.223,2.045-.666,2.877-.445.832-1.072,1.475-1.882,1.928s-1.724.68-2.743.68c-1.669,0-2.97-.459-3.902-1.377-.932-.918-1.398-2.217-1.398-3.896h3.273c0,.836.163,1.453.488,1.852.326.398.838.598,1.539.598.622,0,1.117-.23,1.486-.691.368-.461.553-1.117.553-1.969v-11.812Z"/><path d="m504.868,266.264v2.789h-.304c-1.417.023-2.557.422-3.421,1.195-.863.773-1.382,1.848-1.556,3.223.839-.922,1.897-1.383,3.177-1.383,1.373,0,2.465.531,3.274,1.594.809,1.062,1.214,2.461,1.214,4.195,0,1.109-.223,2.113-.667,3.012s-1.073,1.598-1.886,2.098c-.813.5-1.733.75-2.76.75-1.662,0-3.005-.625-4.027-1.875s-1.534-2.918-1.534-5.004v-1.219c0-1.852.324-3.486.971-4.904s1.575-2.516,2.786-3.293,2.614-1.17,4.212-1.178h.521Zm-3.058,8.555c-.506,0-.965.143-1.377.426-.412.285-.715.662-.91,1.129v1.029c0,1.131.206,2.014.618,2.65.411.635.989.953,1.734.953.672,0,1.216-.287,1.631-.859.416-.574.624-1.316.624-2.229,0-.928-.21-1.678-.629-2.246s-.983-.854-1.691-.854Z"/><path d="m520.804,279.272l3.578-12.832h3.621l-5.497,17.062h-3.393l-5.476-17.062h3.61l3.556,12.832Z"/><circle cx="709.223" cy="187.844" r="50" fill="#a5c3c9"/><path d="m702.23,190.132h1.789v2.73h-1.789v3.691h-3.133v-3.691h-6.472l-.142-2.133,6.581-11.238h3.165v10.641Zm-6.623,0h3.49v-6.023l-.206.387-3.284,5.637Z"/><path d="m717.929,179.492h3.252v11.812c0,1.086-.222,2.045-.666,2.877-.445.832-1.072,1.475-1.882,1.928-.809.453-1.724.68-2.742.68-1.67,0-2.971-.459-3.903-1.377-.932-.918-1.398-2.217-1.398-3.896h3.274c0,.836.162,1.453.487,1.852.326.398.839.598,1.54.598.621,0,1.116-.23,1.485-.691.368-.461.553-1.117.553-1.969v-11.812Z"/><circle cx="830.866" cy="187.844" r="50" fill="#a5c3c9"/><path d="m823.873,190.132h1.789v2.73h-1.789v3.691h-3.133v-3.691h-6.473l-.141-2.133,6.58-11.238h3.166v10.641Zm-6.624,0h3.491v-6.023l-.206.387-3.285,5.637Z"/><path d="m839.57,179.492h3.253v11.812c0,1.086-.223,2.045-.667,2.877s-1.071,1.475-1.881,1.928-1.724.68-2.743.68c-1.669,0-2.97-.459-3.902-1.377s-1.398-2.217-1.398-3.896h3.273c0,.836.163,1.453.488,1.852s.838.598,1.539.598c.622,0,1.117-.23,1.485-.691.369-.461.553-1.117.553-1.969v-11.812Z"/><circle cx="952.508" cy="187.844" r="50" fill="#a5c3c9"/><path d="m945.515,190.132h1.789v2.73h-1.789v3.691h-3.133v-3.691h-6.472l-.142-2.133,6.581-11.238h3.165v10.641Zm-6.623,0h3.49v-6.023l-.206.387-3.284,5.637Z"/><path d="m961.213,179.492h3.252v11.812c0,1.086-.222,2.045-.666,2.877-.445.832-1.072,1.475-1.882,1.928-.809.453-1.724.68-2.742.68-1.67,0-2.971-.459-3.903-1.377-.932-.918-1.398-2.217-1.398-3.896h3.274c0,.836.162,1.453.487,1.852.326.398.839.598,1.54.598.621,0,1.116-.23,1.485-.691.368-.461.553-1.117.553-1.969v-11.812Z"/><path d="m658.271,39.222v1.84h-.369c-1.561.031-2.804.531-3.729,1.5-.926.969-1.461,2.332-1.605,4.09.832-1.031,1.967-1.547,3.404-1.547,1.373,0,2.471.523,3.291,1.57s1.23,2.398,1.23,4.055c0,1.758-.443,3.164-1.328,4.219-.886,1.055-2.072,1.582-3.562,1.582-1.511,0-2.735-.627-3.675-1.881s-1.41-2.869-1.41-4.846v-.832c0-3.141.62-5.541,1.859-7.201,1.24-1.66,3.084-2.51,5.535-2.549h.357Zm-2.635,7.688c-.687,0-1.318.223-1.896.668s-.98,1.004-1.204,1.676v.797c0,1.406.293,2.539.878,3.398.586.859,1.316,1.289,2.19,1.289.903,0,1.613-.359,2.13-1.078.518-.719.775-1.66.775-2.824,0-1.172-.262-2.119-.786-2.842s-1.22-1.084-2.087-1.084Z"/><path d="m675.498,39.234h2.092v12.082c0,1.633-.453,2.91-1.359,3.832-.908.922-2.117,1.383-3.627,1.383-1.568,0-2.79-.434-3.664-1.301-.875-.867-1.312-2.082-1.312-3.645h2.082c0,.977.247,1.738.742,2.285s1.213.82,2.152.82c.859,0,1.556-.293,2.087-.879s.8-1.406.808-2.461v-12.117Z"/><path d="m685.785,49.84c0-1.242.227-2.359.678-3.352.452-.992,1.081-1.758,1.887-2.297.807-.539,1.726-.809,2.76-.809,1.597,0,2.889.598,3.875,1.793s1.48,2.785,1.48,4.77v.152c0,1.234-.219,2.342-.656,3.322s-1.062,1.744-1.875,2.291c-.813.547-1.748.82-2.803.82-1.59,0-2.879-.598-3.865-1.793s-1.48-2.777-1.48-4.746v-.152Zm2.018.258c0,1.406.301,2.535.904,3.387s1.412,1.277,2.424,1.277c1.019,0,1.828-.432,2.428-1.295s.9-2.072.9-3.627c0-1.391-.306-2.518-.916-3.381-.611-.863-1.422-1.295-2.434-1.295-.99,0-1.789.426-2.396,1.277s-.91,2.07-.91,3.656Z"/><path d="m699.967,56.297v-11.004h-1.854v-1.676h1.854v-1.301c0-1.359.336-2.41,1.008-3.152s1.622-1.113,2.852-1.113c.462,0,.921.066,1.377.198l-.109,1.747c-.34-.07-.701-.105-1.084-.105-.65,0-1.152.206-1.507.617s-.531,1.001-.531,1.77v1.34h2.505v1.676h-2.505v11.004h-2.005Z"/><path d="m717.052,56.531c-1.59,0-2.884-.564-3.881-1.693s-1.496-2.639-1.496-4.529v-.398c0-1.258.222-2.381.667-3.369.444-.988,1.065-1.762,1.864-2.32s1.664-.838,2.597-.838c1.525,0,2.71.543,3.556,1.629s1.269,2.641,1.269,4.664v.902h-7.947c.029,1.25.367,2.26,1.014,3.029.647.77,1.47,1.154,2.467,1.154.709,0,1.309-.156,1.8-.469s.921-.727,1.29-1.242l1.225,1.031c-.982,1.633-2.457,2.449-4.423,2.449Zm-.249-11.367c-.81,0-1.489.318-2.038.955-.55.637-.89,1.529-1.019,2.678h5.875v-.164c-.058-1.102-.332-1.955-.824-2.561-.491-.605-1.156-.908-1.994-.908Z"/><path d="m725.844,43.617l.065,1.594c.896-1.219,2.067-1.828,3.513-1.828,2.479,0,3.729,1.512,3.751,4.535v8.379h-2.006v-8.391c-.007-.914-.2-1.59-.58-2.027s-.97-.656-1.772-.656c-.65,0-1.221.188-1.713.562-.491.375-.875.867-1.148,1.477v9.035h-2.006v-12.68h1.896Z"/><path d="m741.065,56.531c-1.591,0-2.885-.564-3.882-1.693s-1.496-2.639-1.496-4.529v-.398c0-1.258.223-2.381.667-3.369s1.065-1.762,1.865-2.32c.798-.559,1.664-.838,2.596-.838,1.525,0,2.711.543,3.557,1.629.845,1.086,1.268,2.641,1.268,4.664v.902h-7.946c.029,1.25.366,2.26,1.014,3.029.646.77,1.469,1.154,2.467,1.154.708,0,1.308-.156,1.8-.469.491-.312.921-.727,1.29-1.242l1.225,1.031c-.983,1.633-2.457,2.449-4.423,2.449Zm-.25-11.367c-.81,0-1.488.318-2.038.955-.549.637-.889,1.529-1.019,2.678h5.876v-.164c-.059-1.102-.333-1.955-.824-2.561s-1.156-.908-1.995-.908Z"/><path d="m753.63,45.562c-.304-.055-.633-.082-.986-.082-1.315,0-2.208.605-2.678,1.816v9h-2.006v-12.68h1.951l.033,1.465c.657-1.133,1.59-1.699,2.797-1.699.391,0,.687.055.889.164v2.016Z"/><path d="m754.79,49.851c0-1.977.423-3.549,1.269-4.717.845-1.168,1.966-1.752,3.36-1.752,1.431,0,2.548.547,3.35,1.641l.098-1.406h1.832v12.375c0,1.641-.449,2.934-1.35,3.879-.899.945-2.108,1.418-3.626,1.418-.846,0-1.674-.195-2.482-.586-.81-.391-1.428-.926-1.854-1.605l1.041-1.301c.86,1.148,1.912,1.723,3.155,1.723.976,0,1.735-.297,2.281-.891s.818-1.43.818-2.508v-1.09c-.802,1-1.896,1.5-3.284,1.5-1.373,0-2.484-.598-3.334-1.793s-1.273-2.824-1.273-4.887Zm2.017.246c0,1.43.271,2.553.812,3.369s1.301,1.225,2.276,1.225c1.265,0,2.194-.621,2.786-1.863v-5.789c-.614-1.211-1.535-1.816-2.764-1.816-.976,0-1.738.41-2.288,1.23-.549.82-.823,2.035-.823,3.645Z"/><path d="m771.561,53.121l2.732-9.504h2.146l-4.716,14.637c-.73,2.109-1.891,3.164-3.48,3.164l-.379-.035-.748-.152v-1.758l.542.047c.679,0,1.208-.148,1.588-.445.379-.297.691-.84.938-1.629l.444-1.289-4.185-12.539h2.19l2.927,9.504Z"/><path d="m789.395,45.562c-.304-.055-.633-.082-.986-.082-1.315,0-2.208.605-2.678,1.816v9h-2.006v-12.68h1.951l.033,1.465c.657-1.133,1.59-1.699,2.797-1.699.391,0,.687.055.889.164v2.016Z"/><path d="m795.899,56.531c-1.591,0-2.884-.564-3.882-1.693-.997-1.129-1.496-2.639-1.496-4.529v-.398c0-1.258.223-2.381.667-3.369s1.066-1.762,1.865-2.32c.798-.559,1.664-.838,2.596-.838,1.525,0,2.711.543,3.557,1.629.845,1.086,1.268,2.641,1.268,4.664v.902h-7.946c.029,1.25.367,2.26,1.014,3.029s1.469,1.154,2.467,1.154c.708,0,1.308-.156,1.8-.469.491-.312.921-.727,1.29-1.242l1.225,1.031c-.983,1.633-2.457,2.449-4.423,2.449Zm-.25-11.367c-.81,0-1.488.318-2.038.955-.549.637-.889,1.529-1.019,2.678h5.876v-.164c-.059-1.102-.333-1.955-.824-2.561s-1.156-.908-1.995-.908Z"/><path d="m804.681,43.617l.054,1.406c.86-1.094,2.021-1.641,3.48-1.641,1.641,0,2.757.68,3.35,2.039.391-.609.898-1.102,1.523-1.477s1.364-.562,2.217-.562c2.573,0,3.881,1.473,3.925,4.418v8.496h-2.006v-8.367c0-.906-.191-1.584-.574-2.033-.384-.449-1.026-.674-1.93-.674-.745,0-1.362.24-1.854.721-.491.48-.776,1.127-.856,1.939v8.414h-2.017v-8.309c0-1.844-.834-2.766-2.504-2.766-1.315,0-2.215.605-2.699,1.816v9.258h-2.006v-12.68h1.897Z"/><path d="m821.723,49.84c0-1.242.226-2.359.678-3.352.451-.992,1.08-1.758,1.887-2.297.806-.539,1.726-.809,2.759-.809,1.598,0,2.889.598,3.876,1.793.986,1.195,1.479,2.785,1.479,4.77v.152c0,1.234-.219,2.342-.656,3.322-.437.98-1.062,1.744-1.875,2.291-.813.547-1.747.82-2.803.82-1.59,0-2.878-.598-3.864-1.793-.987-1.195-1.48-2.777-1.48-4.746v-.152Zm2.017.258c0,1.406.302,2.535.905,3.387s1.411,1.277,2.423,1.277c1.02,0,1.828-.432,2.429-1.295.6-.863.899-2.072.899-3.627,0-1.391-.305-2.518-.916-3.381-.61-.863-1.422-1.295-2.434-1.295-.99,0-1.789.426-2.396,1.277-.607.852-.911,2.07-.911,3.656Z"/><path d="m838.624,53.355l2.906-9.738h2.049l-4.207,12.68h-1.528l-4.25-12.68h2.049l2.981,9.738Z"/><path d="m850.235,56.531c-1.591,0-2.884-.564-3.882-1.693-.997-1.129-1.496-2.639-1.496-4.529v-.398c0-1.258.223-2.381.667-3.369s1.066-1.762,1.865-2.32c.798-.559,1.664-.838,2.596-.838,1.525,0,2.711.543,3.557,1.629.845,1.086,1.268,2.641,1.268,4.664v.902h-7.946c.029,1.25.367,2.26,1.014,3.029s1.469,1.154,2.467,1.154c.708,0,1.308-.156,1.8-.469.491-.312.921-.727,1.29-1.242l1.225,1.031c-.983,1.633-2.457,2.449-4.423,2.449Zm-.25-11.367c-.81,0-1.488.318-2.038.955-.549.637-.889,1.529-1.019,2.678h5.876v-.164c-.059-1.102-.333-1.955-.824-2.561s-1.156-.908-1.995-.908Z"/><path d="m856.643,49.851c0-1.945.426-3.51,1.279-4.693.853-1.184,1.969-1.775,3.35-1.775,1.373,0,2.461.508,3.263,1.523v-6.609h2.006v18h-1.843l-.098-1.359c-.803,1.062-1.919,1.594-3.35,1.594-1.359,0-2.467-.602-3.323-1.805s-1.284-2.773-1.284-4.711v-.164Zm2.005.246c0,1.438.275,2.562.824,3.375s1.309,1.219,2.276,1.219c1.272,0,2.201-.617,2.786-1.852v-5.824c-.6-1.195-1.521-1.793-2.764-1.793-.983,0-1.75.41-2.299,1.23s-.824,2.035-.824,3.645Z"/><path d="m651.594,85.096v-11.004h-1.854v-1.676h1.854v-1.301c0-1.359.336-2.41,1.008-3.152s1.622-1.113,2.852-1.113c.462,0,.921.066,1.377.198l-.109,1.747c-.34-.07-.701-.105-1.084-.105-.65,0-1.152.206-1.507.617s-.531,1.001-.531,1.77v1.34h2.505v1.676h-2.505v11.004h-2.005Z"/><path d="m663.984,74.362c-.303-.055-.633-.082-.986-.082-1.315,0-2.208.605-2.678,1.816v9h-2.006v-12.68h1.951l.033,1.465c.657-1.133,1.59-1.699,2.797-1.699.391,0,.687.055.889.164v2.016Z"/><path d="m665.079,78.639c0-1.242.226-2.359.678-3.352s1.081-1.758,1.886-2.297c.807-.539,1.727-.809,2.76-.809,1.598,0,2.889.598,3.875,1.793.987,1.195,1.48,2.785,1.48,4.77v.152c0,1.234-.219,2.342-.656,3.322s-1.062,1.744-1.875,2.291-1.748.82-2.803.82c-1.59,0-2.878-.598-3.865-1.793-.986-1.195-1.479-2.777-1.479-4.746v-.152Zm2.017.258c0,1.406.302,2.535.905,3.387s1.411,1.277,2.423,1.277c1.02,0,1.828-.432,2.429-1.295.6-.863.899-2.072.899-3.627,0-1.391-.305-2.518-.916-3.381s-1.422-1.295-2.434-1.295c-.99,0-1.789.426-2.396,1.277-.606.852-.91,2.07-.91,3.656Z"/><path d="m680.16,72.417l.054,1.406c.86-1.094,2.021-1.641,3.479-1.641,1.641,0,2.758.68,3.35,2.039.391-.609.898-1.102,1.523-1.477s1.364-.562,2.217-.562c2.574,0,3.882,1.473,3.926,4.418v8.496h-2.006v-8.367c0-.906-.191-1.584-.575-2.033-.383-.449-1.026-.674-1.93-.674-.744,0-1.362.24-1.854.721s-.777,1.127-.856,1.939v8.414h-2.017v-8.309c0-1.844-.835-2.766-2.505-2.766-1.314,0-2.215.605-2.699,1.816v9.258h-2.006v-12.68h1.898Z"/><path d="m708.098,85.331c-1.59,0-2.885-.564-3.881-1.693-.998-1.129-1.496-2.639-1.496-4.529v-.398c0-1.258.222-2.381.666-3.369.445-.988,1.066-1.762,1.865-2.32s1.664-.838,2.596-.838c1.525,0,2.711.543,3.557,1.629s1.268,2.641,1.268,4.664v.902h-7.946c.028,1.25.366,2.26,1.014,3.029s1.47,1.154,2.466,1.154c.709,0,1.309-.156,1.801-.469.49-.312.921-.727,1.289-1.242l1.226,1.031c-.983,1.633-2.458,2.449-4.423,2.449Zm-.25-11.367c-.809,0-1.488.318-2.037.955-.55.637-.89,1.529-1.02,2.678h5.875v-.164c-.057-1.102-.332-1.955-.823-2.561s-1.156-.908-1.995-.908Z"/><path d="m722.234,85.096c-.116-.25-.211-.695-.283-1.336-.932,1.047-2.045,1.57-3.338,1.57-1.156,0-2.105-.354-2.846-1.061-.742-.707-1.111-1.604-1.111-2.689,0-1.32.464-2.346,1.393-3.076s2.234-1.096,3.919-1.096h1.952v-.996c0-.758-.211-1.361-.629-1.811-.42-.449-1.037-.674-1.854-.674-.716,0-1.315.195-1.8.586s-.727.863-.727,1.418h-2.016c0-.633.207-1.244.623-1.834s.979-1.057,1.691-1.4,1.494-.516,2.348-.516c1.351,0,2.41.365,3.176,1.096s1.164,1.736,1.192,3.018v5.836c0,1.164.138,2.09.412,2.777v.188h-2.103Zm-3.328-1.652c.628,0,1.225-.176,1.788-.527s.972-.809,1.226-1.371v-2.602h-1.572c-2.457,0-3.686.777-3.686,2.332,0,.68.209,1.211.628,1.594s.958.574,1.616.574Z"/><path d="m731.773,83.561c.717,0,1.342-.234,1.876-.703.535-.469.831-1.055.89-1.758h1.896c-.036.727-.268,1.418-.693,2.074-.427.656-.996,1.18-1.707,1.57-.713.391-1.467.586-2.262.586-1.597,0-2.867-.576-3.811-1.729s-1.414-2.729-1.414-4.729v-.363c0-1.234.209-2.332.629-3.293.419-.961,1.021-1.707,1.805-2.238s1.711-.797,2.781-.797c1.314,0,2.408.426,3.279,1.277s1.335,1.957,1.393,3.316h-1.896c-.059-.82-.346-1.494-.862-2.021s-1.155-.791-1.913-.791c-1.02,0-1.809.396-2.369,1.189s-.84,1.939-.84,3.439v.41c0,1.461.277,2.586.834,3.375s1.352,1.184,2.385,1.184Z"/><path d="m740.696,73.952c.889-1.18,2.045-1.77,3.469-1.77,2.479,0,3.729,1.512,3.751,4.535v8.379h-2.005v-8.391c-.008-.914-.201-1.59-.58-2.027-.38-.438-.971-.656-1.772-.656-.65,0-1.222.188-1.713.562-.492.375-.875.867-1.149,1.477v9.035h-2.006v-18h2.006v6.855Z"/><path d="m761.121,83.561c.716,0,1.341-.234,1.876-.703.534-.469.831-1.055.889-1.758h1.897c-.036.727-.268,1.418-.694,2.074s-.995,1.18-1.707,1.57-1.466.586-2.261.586c-1.598,0-2.867-.576-3.811-1.729s-1.415-2.729-1.415-4.729v-.363c0-1.234.21-2.332.629-3.293s1.021-1.707,1.806-2.238c.784-.531,1.711-.797,2.78-.797,1.315,0,2.408.426,3.279,1.277s1.335,1.957,1.394,3.316h-1.897c-.058-.82-.346-1.494-.862-2.021s-1.154-.791-1.913-.791c-1.019,0-1.809.396-2.369,1.189-.56.793-.84,1.939-.84,3.439v.41c0,1.461.278,2.586.835,3.375s1.352,1.184,2.385,1.184Z"/><path d="m767.506,78.639c0-1.242.226-2.359.678-3.352.451-.992,1.08-1.758,1.887-2.297.806-.539,1.726-.809,2.759-.809,1.598,0,2.889.598,3.876,1.793.986,1.195,1.479,2.785,1.479,4.77v.152c0,1.234-.219,2.342-.656,3.322-.437.98-1.062,1.744-1.875,2.291-.813.547-1.747.82-2.803.82-1.59,0-2.878-.598-3.864-1.793-.987-1.195-1.48-2.777-1.48-4.746v-.152Zm2.017.258c0,1.406.302,2.535.905,3.387s1.411,1.277,2.423,1.277c1.02,0,1.828-.432,2.429-1.295.6-.863.899-2.072.899-3.627,0-1.391-.305-2.518-.916-3.381-.61-.863-1.422-1.295-2.434-1.295-.99,0-1.789.426-2.396,1.277-.607.852-.911,2.07-.911,3.656Z"/><path d="m787.942,83.842c-.78.992-1.927,1.488-3.437,1.488-1.251,0-2.203-.393-2.856-1.178-.654-.785-.985-1.947-.992-3.486v-8.25h2.006v8.191c0,1.922.722,2.883,2.168,2.883,1.532,0,2.551-.617,3.057-1.852v-9.223h2.006v12.68h-1.908l-.043-1.254Z"/><path d="m795.119,85.096h-2.006v-18h2.006v18Z"/><path d="m797.796,78.639c0-1.242.226-2.359.678-3.352.451-.992,1.08-1.758,1.887-2.297.806-.539,1.726-.809,2.759-.809,1.598,0,2.889.598,3.876,1.793.986,1.195,1.479,2.785,1.479,4.77v.152c0,1.234-.219,2.342-.656,3.322-.437.98-1.062,1.744-1.875,2.291-.813.547-1.747.82-2.803.82-1.59,0-2.878-.598-3.864-1.793-.987-1.195-1.48-2.777-1.48-4.746v-.152Zm2.017.258c0,1.406.302,2.535.905,3.387s1.411,1.277,2.423,1.277c1.02,0,1.828-.432,2.429-1.295.6-.863.899-2.072.899-3.627,0-1.391-.305-2.518-.916-3.381-.61-.863-1.422-1.295-2.434-1.295-.99,0-1.789.426-2.396,1.277-.607.852-.911,2.07-.911,3.656Z"/><path d="m812.877,72.417l.054,1.406c.86-1.094,2.021-1.641,3.48-1.641,1.641,0,2.757.68,3.35,2.039.391-.609.898-1.102,1.523-1.477s1.364-.562,2.217-.562c2.573,0,3.881,1.473,3.925,4.418v8.496h-2.006v-8.367c0-.906-.191-1.584-.574-2.033-.384-.449-1.026-.674-1.93-.674-.745,0-1.362.24-1.854.721-.491.48-.776,1.127-.856,1.939v8.414h-2.017v-8.309c0-1.844-.834-2.766-2.504-2.766-1.315,0-2.215.605-2.699,1.816v9.258h-2.006v-12.68h1.897Z"/><path d="m840.381,78.897c0,1.938-.412,3.494-1.236,4.67-.823,1.176-1.93,1.764-3.317,1.764-1.481,0-2.627-.566-3.437-1.699l-.098,1.465h-1.843v-18h2.006v6.715c.81-1.086,1.926-1.629,3.35-1.629s2.542.582,3.355,1.746,1.22,2.758,1.22,4.781v.188Zm-2.006-.246c0-1.477-.264-2.617-.791-3.422s-1.287-1.207-2.276-1.207c-1.323,0-2.273.664-2.852,1.992v5.484c.614,1.328,1.572,1.992,2.873,1.992.961,0,1.709-.402,2.244-1.207.534-.805.802-2.016.802-3.633Z"/><path d="m513.01,113.149v-.012c-.081,0-.16.006-.24.006-.081,0-.16-.006-.241-.006v.012c-22.356.259-40.402,18.453-40.402,40.87,0,7.305,1.925,14.156,5.282,20.091,5.582,11.401,13.741,22.738,13.717,36.663-.033,19.262,9.668,18.766,21.644,18.758,11.975.007,21.677.504,21.644-18.758-.024-13.925,8.134-25.262,13.717-36.663,3.357-5.935,5.282-12.786,5.282-20.091,0-22.418-18.045-40.611-40.402-40.87Z" fill="#ffd071"/><path d="m502.558,228.842s0-56.337,0-56.589c1.263-5.053-4.646-19.859-11.874-12.632-5.305,5.305,0,15.916,11.621,12.632h20.927c11.621,3.284,16.926-7.326,11.621-12.632-7.228-7.228-13.137,7.579-11.874,12.632,0,.253,0,56.589,0,56.589" fill="none" stroke="#121f35" stroke-linecap="round" stroke-miterlimit="10" stroke-width="2"/><path d="m494.575,224.652h37v15.453c0,5.555-4.51,10.065-10.065,10.065h-16.871c-5.555,0-10.065-4.51-10.065-10.065v-15.453h0Z" fill="#354872"/><line x1="495.769" y1="235.158" x2="529.769" y2="235.158" fill="none" stroke="#121f35" stroke-linecap="round" stroke-miterlimit="10" stroke-width="2"/><line x1="495.769" y1="241.726" x2="529.769" y2="241.726" fill="none" stroke="#121f35" stroke-linecap="round" stroke-miterlimit="10" stroke-width="2"/><line x1="504.269" y1="249.053" x2="521.269" y2="249.053" fill="none" stroke="#121f35" stroke-linecap="round" stroke-miterlimit="10" stroke-width="2"/><line x1="507.769" y1="252.337" x2="517.769" y2="252.337" fill="none" stroke="#121f35" stroke-linecap="round" stroke-miterlimit="10" stroke-width="2"/></svg>