<?xml version="1.0" encoding="UTF-8"?>
<svg id="Layer_2" data-name="Layer 2" xmlns="http://www.w3.org/2000/svg" width="1140" height="750.74" xmlns:xlink="http://www.w3.org/1999/xlink" viewBox="0 0 1140 750.74">
  <defs>
    <style>
      .cls-1, .cls-2, .cls-3 {
        fill: none;
      }

      .cls-4 {
        clip-path: url(#clippath);
      }

      .cls-5 {
        fill: #e3dae5;
      }

      .cls-6 {
        fill: #969696;
      }

      .cls-7 {
        fill: #d12d32;
      }

      .cls-8 {
        fill: #1a1718;
      }

      .cls-9 {
        fill: #809b9a;
      }

      .cls-10 {
        fill: #fff;
      }

      .cls-10, .cls-2, .cls-3 {
        stroke: #000;
        stroke-width: 2px;
      }

      .cls-10, .cls-3 {
        stroke-miterlimit: 10;
      }

      .cls-2 {
        stroke-linecap: round;
        stroke-linejoin: round;
      }
    </style>
    <clipPath id="clippath">
      <path class="cls-1" d="m1138.28,407.48c-8.86,443.29-248.08,322.62-616.51,325.68-362.94,3.02-491.97,4.07-512.08-234.52C-21.26,131.54,44.73-4.16,349.93,6.39c184,6.36,448.27-20.5,606.27,15.08,133.8,30.13,186.74,153.08,182.08,386.01Z"/>
    </clipPath>
  </defs>
  <g class="cls-4">
    <path class="cls-5" d="m1138.28,407.48c-8.86,443.29-248.08,322.62-616.51,325.68-362.94,3.02-491.97,4.07-512.08-234.52C-21.26,131.54,44.73-4.16,349.93,6.39c184,6.36,448.27-20.5,606.27,15.08,133.8,30.13,186.74,153.08,182.08,386.01Z"/>
    <rect class="cls-9" x="-44.12" y="349.02" width="1228.24" height="52.71" rx="25.73" ry="25.73"/>
    <g>
      <g>
        <g>
          <rect class="cls-7" x="511.02" y="143.76" width="99.92" height="166.91"/>
          <rect class="cls-6" x="511.02" y="38.08" width="99.92" height="136.91"/>
        </g>
        <g>
          <rect class="cls-10" x="533.94" y="61.36" width="54.09" height="55.46" rx="27.05" ry="27.05"/>
          <path d="m564.48,93.07c0-.77-.27-1.37-.82-1.78s-1.53-.85-2.95-1.31-2.55-.91-3.38-1.36c-2.26-1.22-3.39-2.87-3.39-4.94,0-1.08.3-2.04.91-2.88s1.48-1.5,2.61-1.98,2.41-.71,3.82-.71,2.69.26,3.8.77,1.98,1.24,2.59,2.18.92,2,.92,3.2h-4.1c0-.91-.29-1.62-.86-2.13s-1.38-.76-2.42-.76-1.78.21-2.34.64-.83.98-.83,1.67c0,.65.33,1.19.98,1.63s1.61.85,2.88,1.23c2.33.7,4.03,1.57,5.1,2.61s1.6,2.33,1.6,3.88c0,1.72-.65,3.07-1.96,4.05s-3.06,1.47-5.26,1.47c-1.53,0-2.93-.28-4.18-.84s-2.22-1.33-2.88-2.3-.99-2.11-.99-3.39h4.12c0,2.2,1.31,3.29,3.94,3.29.98,0,1.74-.2,2.28-.59s.82-.95.82-1.66Z"/>
        </g>
        <g>
          <circle class="cls-10" cx="560.98" cy="261.41" r="27.1"/>
          <path d="m569.06,270.61h-4.1l-7.98-13.1v13.1h-4.1v-19.91h4.1l8,13.12v-13.12h4.09v19.91Z"/>
        </g>
      </g>
      <g>
        <g>
          <rect class="cls-7" x="511.02" y="545.76" width="99.92" height="166.91"/>
          <rect class="cls-6" x="511.02" y="440.08" width="99.92" height="136.91"/>
        </g>
        <g>
          <rect class="cls-10" x="533.94" y="463.36" width="54.09" height="55.46" rx="27.05" ry="27.05"/>
          <path d="m564.48,495.07c0-.77-.27-1.37-.82-1.78s-1.53-.85-2.95-1.31-2.55-.91-3.38-1.36c-2.26-1.22-3.39-2.87-3.39-4.94,0-1.08.3-2.04.91-2.88s1.48-1.5,2.61-1.98,2.41-.71,3.82-.71,2.69.26,3.8.77,1.98,1.24,2.59,2.18.92,2,.92,3.2h-4.1c0-.91-.29-1.62-.86-2.13s-1.38-.76-2.42-.76-1.78.21-2.34.64-.83.98-.83,1.67c0,.65.33,1.19.98,1.63s1.61.85,2.88,1.23c2.33.7,4.03,1.57,5.1,2.61s1.6,2.33,1.6,3.88c0,1.72-.65,3.07-1.96,4.05s-3.06,1.47-5.26,1.47c-1.53,0-2.93-.28-4.18-.84s-2.22-1.33-2.88-2.3-.99-2.11-.99-3.39h4.12c0,2.2,1.31,3.29,3.94,3.29.98,0,1.74-.2,2.28-.59s.82-.95.82-1.66Z"/>
        </g>
        <g>
          <circle class="cls-10" cx="560.98" cy="663.41" r="27.1"/>
          <path d="m569.06,672.61h-4.1l-7.98-13.1v13.1h-4.1v-19.91h4.1l8,13.12v-13.12h4.09v19.91Z"/>
        </g>
      </g>
    </g>
  </g>
  <g>
    <line class="cls-2" x1="966.77" y1="377.48" x2="161.75" y2="377.48"/>
    <polygon points="964.43 369.5 978.25 377.48 964.43 385.46 964.43 369.5"/>
  </g>
  <g>
    <path class="cls-8" d="m311.69,212.93l5.58,13.92,5.58-13.92h2.92v17.06h-2.25v-6.64l.21-7.17-5.6,13.82h-1.72l-5.59-13.78.22,7.14v6.64h-2.25v-17.06h2.91Z"/>
    <path class="cls-8" d="m337.22,230c-.12-.25-.23-.7-.3-1.34-1.01,1.05-2.21,1.57-3.61,1.57-1.25,0-2.28-.35-3.08-1.06s-1.2-1.6-1.2-2.69c0-1.32.5-2.35,1.51-3.08s2.42-1.1,4.24-1.1h2.11v-1c0-.76-.23-1.36-.68-1.81s-1.12-.67-2-.67c-.77,0-1.42.2-1.95.59s-.79.86-.79,1.42h-2.18c0-.63.22-1.24.67-1.83s1.06-1.06,1.83-1.4,1.62-.52,2.54-.52c1.46,0,2.61.37,3.43,1.1s1.26,1.74,1.29,3.02v5.84c0,1.16.15,2.09.45,2.78v.19h-2.27Zm-3.6-1.65c.68,0,1.32-.18,1.93-.53s1.05-.81,1.32-1.37v-2.6h-1.7c-2.66,0-3.98.78-3.98,2.33,0,.68.23,1.21.68,1.59s1.04.57,1.75.57Z"/>
    <path class="cls-8" d="m341.93,223.55c0-1.98.46-3.55,1.37-4.72s2.12-1.75,3.63-1.75,2.75.55,3.62,1.64l.11-1.41h1.98v12.38c0,1.64-.49,2.93-1.46,3.88s-2.28,1.42-3.92,1.42c-.91,0-1.81-.2-2.68-.59s-1.54-.93-2-1.61l1.12-1.3c.93,1.15,2.07,1.72,3.41,1.72,1.05,0,1.88-.3,2.47-.89s.88-1.43.88-2.51v-1.09c-.87,1-2.05,1.5-3.55,1.5s-2.69-.6-3.6-1.79-1.38-2.82-1.38-4.89Zm2.18.25c0,1.43.29,2.55.88,3.37s1.41,1.22,2.46,1.22c1.37,0,2.37-.62,3.01-1.86v-5.79c-.66-1.21-1.66-1.82-2.99-1.82-1.05,0-1.88.41-2.47,1.23s-.89,2.04-.89,3.64Z"/>
    <path class="cls-8" d="m357.96,217.32l.07,1.59c.97-1.22,2.23-1.83,3.8-1.83,2.68,0,4.03,1.51,4.05,4.54v8.38h-2.17v-8.39c0-.91-.22-1.59-.63-2.03s-1.05-.66-1.92-.66c-.7,0-1.32.19-1.85.56s-.95.87-1.24,1.48v9.04h-2.17v-12.68h2.05Z"/>
    <path class="cls-8" d="m374.42,230.23c-1.72,0-3.12-.56-4.2-1.69s-1.62-2.64-1.62-4.53v-.4c0-1.26.24-2.38.72-3.37s1.15-1.76,2.02-2.32,1.8-.84,2.81-.84c1.65,0,2.93.54,3.84,1.63s1.37,2.64,1.37,4.66v.9h-8.59c.03,1.25.4,2.26,1.1,3.03s1.59,1.15,2.67,1.15c.77,0,1.41-.16,1.95-.47s1-.73,1.39-1.24l1.32,1.03c-1.06,1.63-2.66,2.45-4.78,2.45Zm-.27-11.37c-.88,0-1.61.32-2.2.96s-.96,1.53-1.1,2.68h6.35v-.16c-.06-1.1-.36-1.96-.89-2.56s-1.25-.91-2.16-.91Z"/>
    <path class="cls-8" d="m384.81,214.25v3.07h2.37v1.68h-2.37v7.87c0,.51.11.89.32,1.14.21.25.57.38,1.08.38.25,0,.59-.05,1.03-.14v1.75c-.57.15-1.12.23-1.66.23-.97,0-1.7-.29-2.19-.88s-.74-1.42-.74-2.5v-7.86h-2.31v-1.68h2.31v-3.07h2.17Z"/>
  </g>
  <line class="cls-3" x1="396.48" y1="220.98" x2="511.98" y2="220.98"/>
  <g>
    <path class="cls-8" d="m311.69,524.43l5.58,13.92,5.58-13.92h2.92v17.06h-2.25v-6.64l.21-7.17-5.6,13.82h-1.72l-5.59-13.78.22,7.14v6.64h-2.25v-17.06h2.91Z"/>
    <path class="cls-8" d="m337.22,541.5c-.12-.25-.23-.7-.3-1.34-1.01,1.05-2.21,1.57-3.61,1.57-1.25,0-2.28-.35-3.08-1.06s-1.2-1.6-1.2-2.69c0-1.32.5-2.35,1.51-3.08s2.42-1.1,4.24-1.1h2.11v-1c0-.76-.23-1.36-.68-1.81s-1.12-.67-2-.67c-.77,0-1.42.2-1.95.59s-.79.86-.79,1.42h-2.18c0-.63.22-1.24.67-1.83s1.06-1.06,1.83-1.4,1.62-.52,2.54-.52c1.46,0,2.61.37,3.43,1.1s1.26,1.74,1.29,3.02v5.84c0,1.16.15,2.09.45,2.78v.19h-2.27Zm-3.6-1.65c.68,0,1.32-.18,1.93-.53s1.05-.81,1.32-1.37v-2.6h-1.7c-2.66,0-3.98.78-3.98,2.33,0,.68.23,1.21.68,1.59s1.04.57,1.75.57Z"/>
    <path class="cls-8" d="m341.93,535.05c0-1.98.46-3.55,1.37-4.72s2.12-1.75,3.63-1.75,2.75.55,3.62,1.64l.11-1.41h1.98v12.38c0,1.64-.49,2.93-1.46,3.88s-2.28,1.42-3.92,1.42c-.91,0-1.81-.2-2.68-.59s-1.54-.93-2-1.61l1.12-1.3c.93,1.15,2.07,1.72,3.41,1.72,1.05,0,1.88-.3,2.47-.89s.88-1.43.88-2.51v-1.09c-.87,1-2.05,1.5-3.55,1.5s-2.69-.6-3.6-1.79-1.38-2.82-1.38-4.89Zm2.18.25c0,1.43.29,2.55.88,3.37s1.41,1.22,2.46,1.22c1.37,0,2.37-.62,3.01-1.86v-5.79c-.66-1.21-1.66-1.82-2.99-1.82-1.05,0-1.88.41-2.47,1.23s-.89,2.04-.89,3.64Z"/>
    <path class="cls-8" d="m357.96,528.82l.07,1.59c.97-1.22,2.23-1.83,3.8-1.83,2.68,0,4.03,1.51,4.05,4.54v8.38h-2.17v-8.39c0-.91-.22-1.59-.63-2.03s-1.05-.66-1.92-.66c-.7,0-1.32.19-1.85.56s-.95.87-1.24,1.48v9.04h-2.17v-12.68h2.05Z"/>
    <path class="cls-8" d="m374.42,541.73c-1.72,0-3.12-.56-4.2-1.69s-1.62-2.64-1.62-4.53v-.4c0-1.26.24-2.38.72-3.37s1.15-1.76,2.02-2.32,1.8-.84,2.81-.84c1.65,0,2.93.54,3.84,1.63s1.37,2.64,1.37,4.66v.9h-8.59c.03,1.25.4,2.26,1.1,3.03s1.59,1.15,2.67,1.15c.77,0,1.41-.16,1.95-.47s1-.73,1.39-1.24l1.32,1.03c-1.06,1.63-2.66,2.45-4.78,2.45Zm-.27-11.37c-.88,0-1.61.32-2.2.96s-.96,1.53-1.1,2.68h6.35v-.16c-.06-1.1-.36-1.96-.89-2.56s-1.25-.91-2.16-.91Z"/>
    <path class="cls-8" d="m384.81,525.75v3.07h2.37v1.68h-2.37v7.87c0,.51.11.89.32,1.14.21.25.57.38,1.08.38.25,0,.59-.05,1.03-.14v1.75c-.57.15-1.12.23-1.66.23-.97,0-1.7-.29-2.19-.88s-.74-1.42-.74-2.5v-7.86h-2.31v-1.68h2.31v-3.07h2.17Z"/>
  </g>
  <line class="cls-3" x1="396.48" y1="532.48" x2="511.98" y2="532.48"/>
  <g>
    <path class="cls-8" d="m106.52,261.62l.33,2.25.48-2.03,3.38-11.91h1.9l3.29,11.91.47,2.06.36-2.3,2.65-11.67h2.26l-4.14,17.06h-2.05l-3.52-12.43-.27-1.3-.27,1.3-3.64,12.43h-2.05l-4.12-17.06h2.25l2.7,11.68Z"/>
    <path class="cls-8" d="m123.81,250.95c0-.35.11-.65.32-.89s.53-.36.96-.36.74.12.96.36.33.54.33.89-.11.64-.33.88-.54.35-.96.35-.74-.12-.96-.35-.32-.53-.32-.88Zm2.34,16.04h-2.17v-12.68h2.17v12.68Z"/>
    <path class="cls-8" d="m135.75,256.26c-.33-.05-.68-.08-1.07-.08-1.42,0-2.39.61-2.89,1.82v9h-2.17v-12.68h2.11l.04,1.46c.71-1.13,1.72-1.7,3.02-1.7.42,0,.74.05.96.16v2.02Z"/>
    <path class="cls-8" d="m143,267.23c-1.72,0-3.12-.56-4.2-1.69s-1.62-2.64-1.62-4.53v-.4c0-1.26.24-2.38.72-3.37s1.15-1.76,2.02-2.32,1.8-.84,2.81-.84c1.65,0,2.93.54,3.84,1.63s1.37,2.64,1.37,4.66v.9h-8.59c.03,1.25.4,2.26,1.1,3.03s1.59,1.15,2.67,1.15c.77,0,1.41-.16,1.95-.47s1-.73,1.39-1.24l1.32,1.03c-1.06,1.63-2.66,2.45-4.78,2.45Zm-.27-11.37c-.88,0-1.61.32-2.2.96s-.96,1.53-1.1,2.68h6.35v-.16c-.06-1.1-.36-1.96-.89-2.56s-1.25-.91-2.16-.91Z"/>
  </g>
  <line class="cls-3" x1="124.98" y1="275.98" x2="124.98" y2="349.32"/>
  <g>
    <path class="cls-8" d="m872.28,491.58c-.21,1.8-.88,3.2-2,4.18s-2.61,1.47-4.47,1.47c-2.02,0-3.63-.72-4.85-2.17s-1.82-3.38-1.82-5.8v-1.64c0-1.59.28-2.98.85-4.18s1.37-2.13,2.41-2.77,2.24-.97,3.61-.97c1.81,0,3.27.51,4.36,1.52s1.73,2.41,1.91,4.2h-2.26c-.2-1.36-.62-2.35-1.27-2.96s-1.56-.92-2.74-.92c-1.44,0-2.56.53-3.38,1.6-.82,1.06-1.22,2.58-1.22,4.54v1.65c0,1.85.39,3.33,1.16,4.42s1.86,1.64,3.25,1.64c1.25,0,2.21-.28,2.88-.85s1.11-1.55,1.33-2.96h2.26Z"/>
    <path class="cls-8" d="m882.83,495.74c-.84.99-2.08,1.49-3.71,1.49-1.35,0-2.38-.39-3.09-1.18s-1.06-1.95-1.07-3.49v-8.25h2.17v8.19c0,1.92.78,2.88,2.34,2.88,1.66,0,2.76-.62,3.3-1.85v-9.22h2.17v12.68h-2.06l-.05-1.25Z"/>
    <path class="cls-8" d="m894.37,486.26c-.33-.05-.68-.08-1.07-.08-1.42,0-2.39.61-2.89,1.82v9h-2.17v-12.68h2.11l.04,1.46c.71-1.13,1.72-1.7,3.02-1.7.42,0,.74.05.96.16v2.02Z"/>
    <path class="cls-8" d="m902.49,486.26c-.33-.05-.68-.08-1.07-.08-1.42,0-2.39.61-2.89,1.82v9h-2.17v-12.68h2.11l.04,1.46c.71-1.13,1.72-1.7,3.02-1.7.42,0,.74.05.96.16v2.02Z"/>
    <path class="cls-8" d="m909.74,497.23c-1.72,0-3.12-.56-4.2-1.69s-1.62-2.64-1.62-4.53v-.4c0-1.26.24-2.38.72-3.37s1.15-1.76,2.02-2.32,1.8-.84,2.81-.84c1.65,0,2.93.54,3.84,1.63s1.37,2.64,1.37,4.66v.9h-8.59c.03,1.25.4,2.26,1.1,3.03s1.59,1.15,2.67,1.15c.77,0,1.41-.16,1.95-.47s1-.73,1.39-1.24l1.32,1.03c-1.06,1.63-2.66,2.45-4.78,2.45Zm-.27-11.37c-.88,0-1.61.32-2.2.96s-.96,1.53-1.1,2.68h6.35v-.16c-.06-1.1-.36-1.96-.89-2.56s-1.25-.91-2.16-.91Z"/>
    <path class="cls-8" d="m919.24,484.32l.07,1.59c.97-1.22,2.23-1.83,3.8-1.83,2.68,0,4.03,1.51,4.05,4.54v8.38h-2.17v-8.39c0-.91-.22-1.59-.63-2.03s-1.05-.66-1.92-.66c-.7,0-1.32.19-1.85.56s-.95.87-1.24,1.48v9.04h-2.17v-12.68h2.05Z"/>
    <path class="cls-8" d="m933.38,481.25v3.07h2.37v1.68h-2.37v7.87c0,.51.11.89.32,1.14.21.25.57.38,1.08.38.25,0,.59-.05,1.03-.14v1.75c-.57.15-1.12.23-1.66.23-.97,0-1.7-.29-2.19-.88s-.74-1.42-.74-2.5v-7.86h-2.31v-1.68h2.31v-3.07h2.17Z"/>
    <path class="cls-8" d="m943.69,490.55c0-1.95.46-3.51,1.38-4.69s2.13-1.78,3.62-1.78,2.66.51,3.53,1.52v-6.61h2.17v18h-1.99l-.11-1.36c-.87,1.06-2.07,1.59-3.62,1.59s-2.67-.6-3.59-1.8-1.39-2.77-1.39-4.71v-.16Zm2.17.25c0,1.44.3,2.56.89,3.38s1.41,1.22,2.46,1.22c1.38,0,2.38-.62,3.01-1.85v-5.82c-.65-1.2-1.64-1.79-2.99-1.79-1.06,0-1.89.41-2.48,1.23s-.89,2.04-.89,3.64Z"/>
    <path class="cls-8" d="m957.76,480.95c0-.35.11-.65.32-.89s.53-.36.96-.36.74.12.96.36.33.54.33.89-.11.64-.33.88-.54.35-.96.35-.74-.12-.96-.35-.32-.53-.32-.88Zm2.34,16.04h-2.17v-12.68h2.17v12.68Z"/>
    <path class="cls-8" d="m969.71,486.26c-.33-.05-.68-.08-1.07-.08-1.42,0-2.39.61-2.89,1.82v9h-2.17v-12.68h2.11l.04,1.46c.71-1.13,1.72-1.7,3.02-1.7.42,0,.74.05.96.16v2.02Z"/>
    <path class="cls-8" d="m976.96,497.23c-1.72,0-3.12-.56-4.2-1.69s-1.62-2.64-1.62-4.53v-.4c0-1.26.24-2.38.72-3.37s1.15-1.76,2.02-2.32,1.8-.84,2.81-.84c1.65,0,2.93.54,3.84,1.63s1.37,2.64,1.37,4.66v.9h-8.59c.03,1.25.4,2.26,1.1,3.03s1.59,1.15,2.67,1.15c.77,0,1.41-.16,1.95-.47s1-.73,1.39-1.24l1.32,1.03c-1.06,1.63-2.66,2.45-4.78,2.45Zm-.27-11.37c-.88,0-1.61.32-2.2.96s-.96,1.53-1.1,2.68h6.35v-.16c-.06-1.1-.36-1.96-.89-2.56s-1.25-.91-2.16-.91Z"/>
    <path class="cls-8" d="m989.5,495.46c.77,0,1.45-.23,2.03-.7s.9-1.05.96-1.76h2.05c-.04.73-.29,1.42-.75,2.07s-1.08,1.18-1.85,1.57-1.58.59-2.44.59c-1.73,0-3.1-.58-4.12-1.73s-1.53-2.73-1.53-4.73v-.36c0-1.23.23-2.33.68-3.29s1.1-1.71,1.95-2.24,1.85-.8,3.01-.8c1.42,0,2.6.43,3.54,1.28s1.44,1.96,1.51,3.32h-2.05c-.06-.82-.37-1.49-.93-2.02s-1.25-.79-2.07-.79c-1.1,0-1.96.4-2.56,1.19s-.91,1.94-.91,3.44v.41c0,1.46.3,2.59.9,3.38s1.46,1.18,2.58,1.18Z"/>
    <path class="cls-8" d="m999.92,481.25v3.07h2.37v1.68h-2.37v7.87c0,.51.11.89.32,1.14.21.25.57.38,1.08.38.25,0,.59-.05,1.03-.14v1.75c-.57.15-1.12.23-1.66.23-.97,0-1.7-.29-2.19-.88s-.74-1.42-.74-2.5v-7.86h-2.31v-1.68h2.31v-3.07h2.17Z"/>
    <path class="cls-8" d="m1004.83,480.95c0-.35.11-.65.32-.89s.53-.36.96-.36.74.12.96.36.33.54.33.89-.11.64-.33.88-.54.35-.96.35-.74-.12-.96-.35-.32-.53-.32-.88Zm2.34,16.04h-2.17v-12.68h2.17v12.68Z"/>
    <path class="cls-8" d="m1010.06,490.54c0-1.24.24-2.36.73-3.35s1.17-1.76,2.04-2.3,1.87-.81,2.98-.81c1.73,0,3.12.6,4.19,1.79s1.6,2.79,1.6,4.77v.15c0,1.23-.24,2.34-.71,3.32s-1.15,1.74-2.03,2.29-1.89.82-3.03.82c-1.72,0-3.11-.6-4.18-1.79s-1.6-2.78-1.6-4.75v-.15Zm2.18.26c0,1.41.33,2.54.98,3.39s1.53,1.28,2.62,1.28,1.98-.43,2.62-1.29.97-2.07.97-3.63c0-1.39-.33-2.52-.99-3.38s-1.54-1.29-2.63-1.29-1.93.43-2.59,1.28-.98,2.07-.98,3.66Z"/>
    <path class="cls-8" d="m1026.38,484.32l.07,1.59c.97-1.22,2.23-1.83,3.8-1.83,2.68,0,4.03,1.51,4.05,4.54v8.38h-2.17v-8.39c0-.91-.22-1.59-.63-2.03s-1.05-.66-1.92-.66c-.7,0-1.32.19-1.85.56s-.95.87-1.24,1.48v9.04h-2.17v-12.68h2.05Z"/>
  </g>
  <line class="cls-3" x1="763.98" y1="377.98" x2="843.48" y2="485.48"/>
</svg>