<?xml version="1.0" encoding="UTF-8"?><svg id="c" xmlns="http://www.w3.org/2000/svg" width="570" height="356.45" xmlns:xlink="http://www.w3.org/1999/xlink" viewBox="0 0 570 356.45"><defs><clipPath id="d"><path d="m568.18,215.37C591.93-69.64,377.35,4.71,282.34,26.92,177.82,51.35-23.05-67.26,3.62,251.43c11.88,141.92,207.85,98.88,304.05,98.88s246.23,36.37,260.5-134.94Z" fill="none" stroke-width="0"/></clipPath></defs><g clip-path="url(#d)"><rect width="570" height="356.45" fill="#a5c2c6" stroke-width="0"/><path d="m450.84,193.43c42.6-53.38,28.68-129.98-5.04-184.33-11.27-18.66-26.76-35.38-42.86-49.3,3.23,2.21,6.85,4.92,9.88,7.45,4.69,3.83,9.34,8.39,13.51,12.78,43.17,47.94,68.94,124.14,42.86,186.04-3.41,7.57-7.69,14.7-12.74,21.29-1.8,2.09-3.58,4.2-5.39,6.26l-.22-.19h0Z" fill="#3c5a5b" stroke-width="0"/><path d="m489.62,218.03c21.46-13.98,32.51-38.72,38.75-62.73,12.51-48.91,4.07-102.06-18.71-146.72-11.63-22.43-27.51-42.4-46.19-59.41,0,0,.19-.23.19-.23,20.16,15.54,36.07,36.2,47.92,58.64,23.43,45.01,31.52,98.82,18.76,148.23-4.8,18.37-12.47,36.67-25.64,50.67-4.38,4.63-9.41,8.67-14.93,11.81l-.15-.25h0Z" fill="#3c5a5b" stroke-width="0"/><path d="m440.11,214.12c46.56,2.93,66.86-40.54,73.35-80.06,3.53-19.84,2.74-40.18-.56-59.99-5.59-33.03-19.1-64.81-40.05-91.04-8.27-10.56-17.68-20.19-27.8-29.09l.18-.23c10.93,7.96,20.62,17.58,29.17,28.08,33.78,42.16,49.91,99.14,41.12,152.63-4.68,26.19-14.06,54.52-36.64,70.62-11.2,7.89-25.33,10.83-38.81,9.38,0,0,.02-.29.02-.29h0Z" fill="#3c5a5b" stroke-width="0"/><path d="m188.1-22.23c-4.83,5.46-9.73,10.88-14.17,16.66-1.81,2.49-3.86,5-5.61,7.48-1.24,1.8-4.08,6.01-5.26,7.73-12.83,20.16-21.35,42.95-25.29,66.49-.41,3.54-1.33,8.84-1.51,12.36-.05.95-.52,6.88-.57,7.76-.06,1.22-.03,3.46-.07,4.67,0,0-.07,6.23-.07,6.23l.3,6.22c.92,16.6,4.11,33,8.93,49l-.28.1c-7.37-17.45-10.45-36.43-11.1-55.28.06-3.7-.07-8.98.17-12.61.17-2.3.44-7.24.67-9.44.25-1.94.94-7.37,1.2-9.39,3.69-22.81,11.94-44.96,24.22-64.54,0,0,1.64-2.69,1.64-2.69l1.79-2.6c2-2.97,5.15-7.43,7.44-10.17,5.15-6.64,11.11-12.62,17.34-18.21l.2.21h0Z" fill="#3c5a5b" stroke-width="0"/><path d="m157.96-53.84C118.55-20.34,92.83,27.38,84.77,78.29c-4.65,28.1-4.42,57.42,3.88,84.83,1.66,5.46,3.82,10.77,6.32,15.89,2.54,5.11,5.64,9.95,9.23,14.42l-.22.19c-7.67-8.64-12.99-19.17-16.61-30.09-17.09-52.51-4-119.99,24.53-166.43,5.98-9.86,12.79-19.24,20.39-27.92,7.64-8.64,16.1-16.59,25.49-23.25l.18.23h0Z" fill="#3c5a5b" stroke-width="0"/><path d="m134.75-53.85C98.47-17.15,73.8,25.28,66.64,76.88c-2.7,18.57-2.96,37.46-1.37,56.14,1.24,12.38,2.52,24.95,6.96,36.65,6.57,17.66,19.19,32.33,33.36,44.47,0,0-.19.23-.19.23-2.47-1.94-4.93-3.91-7.27-6.02-7.12-6.25-13.51-13.32-18.83-21.19-7.11-10.51-11.7-22.68-13.74-35.18-1.97-12.47-3.2-25.04-3.42-37.66-2.06-62.8,24.63-127.89,72.6-168.17h0Z" fill="#3c5a5b" stroke-width="0"/><path d="m142.99,199.66c-47.35,28.75-100.78,62.64-148.77,90.03,0,0-.15-.25-.15-.25,33.41-22.25,76.39-47.71,110.65-69.04,0,0,37.09-22.68,37.09-22.68l1.19,1.94h0Z" fill="#3c5a5b" stroke-width="0"/><path d="m409.44,192.11c25.7,7.37,62.15,20.87,87.88,29.49,20.79,7.44,56.16,19.46,76.4,27.2,3.61,1.37,7.2,2.8,10.78,4.28l-.1.28c-3.72-1.06-7.43-2.16-11.11-3.34-36.37-11.8-84.19-28.83-120.49-41.53-10.92-3.87-21.9-7.59-32.7-11.8-3.61-1.37-7.2-2.81-10.77-4.31l.1-.28h0Z" fill="#3c5a5b" stroke-width="0"/><circle cx="300.66" cy="111.38" r="132.73" fill="#6c9093" stroke-width="0"/><path d="m274.48-10.35c4.22,15.61,8.32,38.83,11.59,54.89,0,0,.12.6.12.6l-.45.42-25.71,23.87-25.86,23.71-.49.45-.62-.24-12.35-4.72c-11.96-4.6-25.17-9.61-36.78-14.87,0,0,.1-.27.1-.27,4.22,1.3,8.4,2.71,12.57,4.15,7.19,2.48,17.62,6.31,24.85,9.05,0,0,12.38,4.64,12.38,4.64l-1.11.22,25.7-23.88,25.85-23.72-.33,1.01c-1.92-9.58-6.1-32.02-7.67-41.37,0,0-1.1-6.93-1.1-6.93-.32-2.32-.68-4.63-.95-6.96l.29-.06h0Z" fill="#3c5a5b" stroke-width="0"/><path d="m179.13,72.74c15.56,4.4,37.6,12.76,53.07,18.2,0,0,.49.18.49.18l.17.5,10.12,29.47,9.91,29.54.23.68-.53.47-23.61,21.18c-3.95,3.51-7.92,7.01-11.94,10.44-4.01,3.45-8.04,6.87-12.15,10.21l-.2-.22c7.5-7.47,15.2-14.72,22.99-21.87,0,0,23.47-21.34,23.47-21.34l-.3,1.15-10.14-29.47-9.93-29.54.67.68c-9.21-3.29-30.62-11.17-39.45-14.63,0,0-6.51-2.61-6.51-2.61-2.15-.92-4.32-1.79-6.46-2.75l.1-.28h0Z" fill="#3c5a5b" stroke-width="0"/><path d="m393.56,30.97c-13.6,13.4-28.65,25.2-43.06,37.69,0,0-.52.44-.52.44l-.65-.23c-8.06-2.86-24.29-8.67-32.33-11.59-10.75-3.94-21.59-7.62-32.05-12.39l.1-.28c21.38,5.96,44.03,14.79,65.08,22,0,0-1.17.21-1.17.21,7.3-6.14,14.61-12.26,21.95-18.35,7.34-6.1,14.6-12.28,22.46-17.75,0,0,.19.22.19.22h0Z" fill="#3c5a5b" stroke-width="0"/><path d="m361.31,227.21c-11.38-15.33-20.97-31.87-31.34-47.89,0,0-.37-.58-.37-.58l.32-.61c3.96-7.58,11.97-22.85,15.98-30.4,5.4-10.1,10.55-20.32,16.73-30.01l.26.14c-8.87,20.34-20.78,41.54-30.85,61.39,0,0-.05-1.19-.05-1.19,5.06,8.08,10.1,16.18,15.11,24.29,5.02,8.12,10.13,16.17,14.45,24.71,0,0-.25.16-.25.16h0Z" fill="#3c5a5b" stroke-width="0"/><path d="m329.43,230.4c-2.72-9.17-4.53-18.53-6.45-27.89-1.93-9.34-3.82-18.69-5.68-28.04l.78.9c-20.96-7.52-44.13-14.76-64.57-23.47,0,0,.1-.28.1-.28,11.14,2.81,21.91,6.71,32.76,10.35,8.11,2.76,24.4,8.33,32.49,11.14,0,0,.65.22.65.22l.13.67c1.84,9.36,3.65,18.72,5.42,28.09,1.79,9.38,3.68,18.73,4.66,28.24,0,0-.29.06-.29.06h0Z" fill="#3c5a5b" stroke-width="0"/><path d="m349.87,67.71c3.14,7.78,5.4,15.83,7.76,23.86,2.37,8.02,4.7,16.04,7.01,24.07l-.82-.82c20.46,6.1,43.03,11.75,63.04,19.07,0,0-.08.28-.08.28-10.83-2.05-21.34-5.22-31.92-8.12-7.91-2.2-23.8-6.67-31.69-8.93,0,0-.64-.18-.64-.18l-.18-.64c-2.28-8.04-4.53-16.09-6.75-24.15-2.23-8.07-4.56-16.09-6-24.36,0,0,.28-.08.28-.08h0Z" fill="#3c5a5b" stroke-width="0"/><path d="m288.92,57.56c1.41,1.84,1.7,3.92,2.24,5.95.53,2.03.98,4.08,1.45,6.12.63,4.15,2.2,8.26,1.62,12.52,0,0-.29.06-.29.06-1.34-1.86-1.71-3.92-2.23-5.95-.53-2.03-.99-4.08-1.46-6.12-.42-2.05-.85-4.11-1.2-6.17-.34-2.07-.93-4.09-.41-6.35l.29-.06h0Z" fill="#3c5a5b" stroke-width="0"/><path d="m343.42,69.98c-.96,2.53-2.77,4.3-4.39,6.24-1.63,1.93-3.31,3.81-4.99,5.7-1.71,1.85-3.42,3.71-5.18,5.52-1.75,1.82-3.39,3.74-5.77,4.99l-.22-.2c1.02-2.48,2.76-4.31,4.39-6.24,1.63-1.93,3.31-3.82,4.98-5.7,1.71-1.86,3.41-3.72,5.17-5.53,1.77-1.8,3.35-3.78,5.77-4.99l.22.2h0Z" fill="#3c5a5b" stroke-width="0"/><path d="m277.17,126.03c-.96,2.53-2.77,4.3-4.39,6.24-1.63,1.93-3.31,3.81-4.99,5.7-1.71,1.85-3.42,3.71-5.18,5.52-1.75,1.82-3.39,3.74-5.77,4.99l-.22-.2c1.02-2.48,2.76-4.31,4.39-6.24,1.63-1.93,3.31-3.82,4.98-5.7,1.71-1.86,3.41-3.72,5.17-5.53,1.77-1.8,3.35-3.78,5.77-4.99l.22.2h0Z" fill="#3c5a5b" stroke-width="0"/><path d="m305.55,134.24c1.59,2.19,2.08,4.67,2.82,7.09.72,2.42,1.38,4.86,2.04,7.29,1.02,4.91,3,9.83,2.81,14.92,0,0-.28.07-.28.07-1.52-2.21-2.1-4.67-2.81-7.09-.72-2.42-1.38-4.86-2.05-7.29-.62-2.45-1.24-4.89-1.8-7.36-.54-2.47-1.33-4.87-1.01-7.56l.28-.07h0Z" fill="#3c5a5b" stroke-width="0"/><path d="m358.4,115.1c-2.59.8-5.09.46-7.62.38-2.52-.1-5.04-.27-7.56-.43-5.01-.63-10.23-.33-15.02-2.16,0,0,.02-.29.02-.29,5.05-1.12,10.11-.06,15.18.05,2.52.21,5.03.4,7.54.68,2.51.29,5.04.32,7.48,1.49l-.02.29h0Z" fill="#3c5a5b" stroke-width="0"/><path d="m250.84,89.54c2.15-.1,3.83.85,5.61,1.56,1.77.73,3.53,1.49,5.27,2.29,1.74.8,3.46,1.66,5.17,2.53,1.71.87,3.48,1.61,4.83,3.25l-.12.27c-2.12.03-3.83-.84-5.61-1.57-1.77-.73-3.54-1.48-5.28-2.28-1.74-.8-3.46-1.64-5.17-2.52-1.7-.9-3.5-1.56-4.83-3.26l.12-.27h0Z" fill="#3c5a5b" stroke-width="0"/><path d="m324.67,110.63c0-13.31-12.4-24.78-25.52-24.61-13.23-.18-24.73,11.4-24.46,24.61-.28,13.21,11.24,24.8,24.46,24.61,13.14.17,25.59-11.25,25.52-24.61h0Zm.29,0c.19,14.64-10.93,26.77-25.81,26.72-14.42.31-27.08-12.28-26.87-26.72-.22-14.44,12.45-27.03,26.87-26.72,14.98.03,26.02,11.95,25.81,26.72h0Z" fill="#3c5a5b" stroke-width="0"/><path d="m50.92,238.37c-2.02,3.75-2.25,7.79-.7,11.75,2.65,6.76,9.12,9.69,15.55,11.9,5.01,1.72,9.96,3.62,14.84,5.7,1.2.51,2.39,1.03,3.58,1.56.13.06.22.1.3.13.12.06.24.11.35.17.55.25,1.1.51,1.65.77,2.36,1.11,4.7,2.26,7.02,3.45,9.11,4.68,17.62,10.25,26.32,15.61,8.98,5.53,18.63,10.29,29.3,11.09,7.87.6,15.74-1.35,22.57-5.18,1.45-.61,2.88-1.28,4.26-2.03,3.47-1.89,6.59-4.38,9.26-7.29,2.36-2.57,4.55-5.28,7.08-7.68,2.58-2.45,5.36-4.68,8.17-6.87,2.54-1.98,5.08-3.96,7.63-5.92,1.35-1.03,2.7-2.06,4.05-3.08.54-.41,1.09-.81,1.63-1.22.34-.25.68-.51,1.02-.76.13-.1.34-.27.49-.38,4.77-3.74,10.09-7.03,15.31-10.08,5.34-3.11,10.88-5.75,16.6-8.06,5.36-2.17,10.83-4.25,15.7-7.42,5.64-3.67,10.6-8.49,13.63-14.57,3.38-6.8,5.05-14.59,2.78-22.03-4.57-14.93-21.37-25.12-34.61-31.23-8.65-3.99-17.36-7.88-26.36-11-9.05-3.14-18.4-5.4-27.94-6.41-5.12-.54-10.15-.51-15.26.07-5.02.57-9.71,2.1-14.38,3.95-8.03,3.19-15.63,7.51-23.08,11.86-7.35,4.29-14.58,8.77-21.99,12.95-3.69,2.08-7.41,4.09-11.21,5.95-1.9.93-3.81,1.82-5.74,2.67-1.04.46-2.09.9-3.14,1.33-.09.04-.33.13-.56.22-.27.1-.73.28-.86.33-8.99,3.37-18.44,5.27-27.38,8.82-8.61,3.43-17.16,9.98-19.13,19.56-1.02,4.99-.57,10.33,2.33,14.67.94,1.41,1.97,2.68,3.17,3.8-.88.81-1.65,1.77-2.26,2.9Zm15.01,8.22s.5.23.73.35c-.39-.14-.73-.28-.73-.35Z" fill="#0a76a5" stroke-width="0"/><path d="m53.23,235.33c3.41.3,6.4,1.66,9.49,2.79,3.08,1.14,6.13,2.34,9.19,3.54,3.04,1.24,6.08,2.48,9.1,3.78,3.02,1.29,6.09,2.45,8.8,4.51l-.11.27c-6.45-.99-12.56-4.16-18.68-6.32-3.04-1.24-6.08-2.47-9.1-3.77-3.01-1.32-6.12-2.39-8.8-4.52l.11-.27h0Z" fill="#2b5572" stroke-width="0"/><path d="m125.08,203.64c3.78-1.64,7.79-2.22,11.78-2.77,4.02-.54,8.05-.93,12.13-.92,7.98.08,15.95-.26,23.94-.79,11.54-.71,24.3-2.01,35.88-3.13,3.4-.33,8.59-.67,11.94-1.05,0,0,.12.27.12.27-7.85,2.07-15.78,2.98-23.79,3.95-15.97,1.73-32,3.31-48.09,3.14-3.93-.04-7.9.25-11.86.64-3.96.41-7.88,1.06-11.97.95l-.06-.29h0Z" fill="#2b5572" stroke-width="0"/><path d="m500.97,185.41c2.88-2.49,22.04,11.02,22.06,13.74.02,2.72-5.64,7.4-7.96,10.14-6.52,7.71-16.61,16.12-23.02,16.8-6.72.71-30.64-10.31-42.73-16.88-5.49-2.98-8.73-7.9-8.84-12.71.55-2.83,3.6-4.73,6.63-5.35,2.19-.24,4.68.66,7.04,1.53,7.69,2.85,18.82,6.66,26.58,8.9,4.66,1.34,15.22-11.83,20.23-16.16Z" fill="#eee6fc" stroke-width="0"/><path d="m502.35,218.75c-.52-1.19-1.37-2.35-2.37-3.37-4.08-4.15-10.83-6.01-15.15-4.18-1.22.52-2.24,1.28-3.17,2.11-1.42,1.26-2.68,2.71-3.19,4.55-.42,1.55-.24,3.41.74,5.1,5.63,2.08,10.39,3.39,12.84,3.13,3.07-.33,6.99-2.43,10.96-5.39-.2-.65-.39-1.31-.67-1.95Z" fill="#a997c1" stroke-width="0"/><path d="m523.03,199.15c-.02-2.72-19.19-16.23-22.06-13.74-.9.78-1.98,1.85-3.18,3.06.37.02.74.05,1.13.11,1.46.25,2.81.9,4.2,1.58,1.76.86,3.51,1.78,5.21,2.78,3.34,1.97,6.57,4.35,8.95,7.29.27.33.53.67.78,1.02.64.9,1.29,1.91,2.05,2.76,1.62-1.79,2.94-3.56,2.93-4.87Z" fill="#a997c1" stroke-width="0"/><path d="m521.98,197.87c.48.94.11,1.11-.07,1.46-.19.33-.41.64-.67.91-.25.28-.55.51-.86.74-.31.22-.51.54-1.44.2l-.22-.2c-.42-.89-.12-1.12.08-1.45.2-.33.41-.64.66-.92.25-.28.54-.52.85-.74.33-.21.47-.59,1.45-.2l.22.2h0Z" fill="#8a71a0" stroke-width="0"/><path d="m515.6,193.01c.55.87.24.98.13,1.27-.13.27-.29.52-.48.73-.19.22-.43.4-.67.56-.25.16-.39.43-1.27.04l-.22-.19c-.49-.82-.25-.99-.12-1.26.13-.27.28-.52.47-.74.19-.22.42-.4.67-.57.27-.15.34-.47,1.28-.03l.22.19h0Z" fill="#8a71a0" stroke-width="0"/><path d="m508.89,188.6c.67.79.35,1,.25,1.32-.12.32-.29.61-.49.88-.2.26-.46.48-.74.68-.27.19-.45.5-1.34.09l-.21-.2c-.45-.85-.21-1.01-.07-1.29.13-.27.27-.53.45-.76.18-.23.39-.44.62-.63.26-.19.28-.5,1.28-.24l.25.16h0Z" fill="#8a71a0" stroke-width="0"/><path d="m502.68,185.81c.46.93.12,1.04-.03,1.34-.17.28-.37.53-.6.75-.23.22-.5.4-.78.57-.28.16-.46.44-1.33,0l-.2-.21c-.41-.88-.13-1.05.04-1.33.17-.28.36-.54.59-.76.23-.22.49-.41.77-.58.3-.15.42-.48,1.33,0l.2.21h0Z" fill="#8a71a0" stroke-width="0"/><path d="m467.72,180.78c2.22-4.2,24.77,3.04,25.49,6.22.72,3.18-3.7,11.2-5.3,15.45-4.49,11.96-12.36,26.34-18.56,30.01-6.5,3.85-33.14,1.64-46.86-.64-6.23-1.04-10.72-5.34-12.08-10.93-.18-3.56,2.36-7.16,5.22-9.24,2.12-1.27,4.83-1.33,7.4-1.36,8.39-.11,20.44-.63,28.74-1.48,4.98-.51,12.08-20.68,15.95-28.01Z" fill="#eee6fc" stroke-width="0"/><path d="m423.7,228.92c1.21-5.54.78-11.64-2.31-16.71-.39-.64-.84-1.27-1.37-1.81-1.57.14-3.09.46-4.39,1.24-2.86,2.08-5.4,5.68-5.22,9.24,1.36,5.59,5.85,9.9,12.08,10.93.07.01.14.02.21.03.48-.91.77-1.92.99-2.93Z" fill="#beafce" stroke-width="0"/><path d="m493.21,187c-.72-3.18-23.28-10.42-25.49-6.22-.7,1.32-1.5,3.05-2.37,5.01.37-.15.75-.28,1.15-.37,1.52-.36,3.03-.2,4.59-.03,1.98.22,3.95.51,5.9.93,3.83.82,7.66,2.16,10.79,4.54.36.27.7.55,1.04.85.87.77,1.77,1.66,2.75,2.32,1.15-2.82,2.01-5.49,1.66-7.02Z" fill="#a997c1" stroke-width="0"/><path d="m491.84,185.96c.73.81.41,1.19.32,1.67-.11.47-.25.92-.43,1.36-.18.44-.41.85-.66,1.26-.25.41-.37.87-1.4.96l-.27-.11c-.67-.79-.42-1.2-.31-1.66.11-.47.24-.93.42-1.36.18-.44.4-.86.66-1.26.28-.4.31-.89,1.41-.95l.27.11h0Z" fill="#8a71a0" stroke-width="0"/><path d="m484.23,183.13c.78.7.51.99.47,1.36-.06.37-.15.73-.29,1.07-.13.34-.32.66-.53.97-.21.31-.28.68-1.26.68l-.27-.11c-.72-.68-.52-.99-.46-1.36.06-.37.14-.73.28-1.07.13-.34.31-.66.52-.97.23-.3.22-.7,1.27-.68l.27.11h0Z" fill="#8a71a0" stroke-width="0"/><path d="m476.42,180.97c.86.63.6.99.59,1.41-.04.42-.12.82-.25,1.21-.13.39-.33.76-.55,1.11-.22.35-.32.77-1.32.77l-.27-.12c-.68-.72-.48-1.04-.42-1.42.07-.38.14-.76.26-1.12.12-.36.28-.71.46-1.05.21-.34.15-.74,1.21-.87l.29.07h0Z" fill="#8a71a0" stroke-width="0"/><path d="m469.53,180.47c.72.78.41,1.08.34,1.48-.1.4-.23.78-.4,1.14-.17.36-.39.7-.63,1.03-.24.33-.35.72-1.34.69l-.27-.13c-.66-.75-.43-1.08-.33-1.48.1-.39.22-.78.39-1.14.17-.36.38-.71.62-1.03.26-.32.29-.75,1.35-.69l.27.13h0Z" fill="#8a71a0" stroke-width="0"/><path d="m493.36,186.97c.8,3.85-1.31,7.74-2.59,11.26-2.96,7.1-5.51,14.32-9.37,21.01-3.09,5.23-6.24,10.86-11.53,14.28-5.21,2.41-11.27,2.03-16.81,2.09-7.69-.18-15.37-.74-22.85-2.56l.04-.29c7.65,0,15.22.69,22.84.7,3.78,0,7.58-.15,11.23-.71,1.81-.33,3.58-.7,4.91-1.64,4.39-3.29,7.33-8.32,10.14-13.03,3.89-6.54,6.53-13.75,9.68-20.63,1.46-3.41,3.77-6.68,4.04-10.42,0,0,.29-.07.29-.07h0Z" fill="#8a71a0" stroke-width="0"/><polygon points="362.3 282.9 465.37 304.27 447.96 250.39 349.19 272.17 362.3 282.9" fill="ivory" stroke-width="0"/><path d="m509.92,245.74l20.31,9.51s19.02,2.83,11.89,7.36-17.83,12.47-26.75,15.64-13.37,8.81-26.75,10.89-35.82,4.01-35.82,4.01l-33.73-11.89,2.32-26.01,88.54-9.51Z" fill="ivory" stroke-width="0"/><path d="m246.26,215.17s-31.22,71.75-22.47,81.29c8.75,9.53,78.45,46.58,102.04,44.38,23.6-2.2,43.69,4.94,43.69,4.94,0,0,16.8-1.92,24.56-6.04,7.76-4.12,16.13-14.27,18.53-15.91,2.4-1.65-8.03-10.04-8.03-10.04l-97.13-92.19-61.19-6.42Z" fill="ivory" stroke-width="0"/><path d="m353.35,340.22c-2.08-5.19-1.89-11.13.14-16.36,4.24-10.82,18.19-13,28.22-15.13,5.34-.95,10.71-1.8,16.18-1.43l.03.29c-5.22,1.44-10.52,2.15-15.8,3.25-5.19,1.11-10.41,2.38-15.34,4.31-4.84,1.8-9.29,4.64-11.29,9.55-2.05,4.83-1.94,10.21-1.85,15.45,0,0-.28.07-.28.07h0Z" fill="#9b7670" stroke-width="0"/><path d="m457.77,202.95c14.23,21,78.48,41.19,56.16,47.44-22.31,6.26-86.17,20-101.32,23.18-15.15,3.18-63.42,9.32-63.42,9.32l-116.94-94.1s15.55,3.62,26.44-4.31c3.11-2.26-7.43-8-4.37-10.07,16.79-11.34,39.72-27.28,40.45-26.64,2.2,1.92,11.82,11.52,11.82,11.52l4.23-11.62,22.31-6.43,29.16,6.92s21.95-4.23,31.79-1.54" fill="ivory" stroke-width="0"/><path d="m294.91,147.73c2.25,2.92,3.69,7.86,5.07,11.24,1.44,3.83,2.83,7.69,4.15,11.56l.25.73-.53.5c-1.85,1.64-5.94,5.67-7.86,7.12-6.87,5.3-.52-2.02,1.27-3.77,0,0,4.97-5.02,4.97-5.02l-.29,1.22c-1.43-3.84-2.8-7.7-4.11-11.58l-1.94-5.83c-.63-1.95-1.15-3.94-1.26-6.07l.28-.1h0Z" fill="#9b7670" stroke-width="0"/><path d="m306.66,159.17c8.21,4.01,16.32,8.14,24,13.15.75.53,1.28.85,1.97,1.56,1.47,1.53,3.48,2.66,5.25,3.9,10.12,6.74,20.57,12.89,30.26,20.34,13.92,10.43,30.88,20.46,45.19,30.4,5.05,3.49,10.08,6.84,14.76,10.88,0,0-.9-.28-.9-.28,3.23-.29,8.92-1.25,9.65,3.18.1.79.04,1.47.07,2.03.11,1.22.15,1.1,1.63,1.82,4.63,2.2,9.31,4.33,13.98,6.51,4.64,2.23,9.31,4.42,13.68,7.33,1.11.72,2.19,1.7,2.89,2.82,2.31,3.36-.49,5.06-3.72,5.29-1.3.13-2.6.12-3.89.02,0,0,.02-.29.02-.29,3.95.07,11.2-.85,5.61-5.81-2.57-1.83-5.55-2.99-8.41-4.38-6.85-3.12-14.27-6.42-21.06-9.56,0,0-.88-.41-.88-.41-1.27-.46-2.04-1.95-2.01-3.25-.07-1.06.19-2.13-.54-2.76-1.86-1.08-5.02-.47-7.23-.25,0,0-.4-.35-.4-.35-9.28-7.65-19.71-13.95-29.72-20.63-8.93-5.99-21.74-13.97-30.14-20.54-9.5-7.4-19.97-13.65-29.98-20.41-1.83-1.31-3.85-2.47-5.45-4.1-.49-.57-1.11-.99-1.75-1.46-7.48-5.07-15.4-9.6-23.03-14.49,0,0,.14-.26.14-.26h0Z" fill="#9b7670" stroke-width="0"/><path d="m314.34,147.64c6.88,1.03,13.16,3.84,19.72,5.95,6.48,2.24,12.92,4.62,19.34,7.03l-1.33.61c1.46-3.64,2.91-7.31,5.05-10.62,0,0,.27.11.27.11-.15.99-.37,1.95-.61,2.91-.79,3.18-1.98,6.24-3.1,9.31,0,0-.99-.33-.99-.33-9.76-3.27-19.44-6.73-29.06-10.39-3.22-1.19-6.41-2.43-9.39-4.29l.1-.28h0Z" fill="#9b7670" stroke-width="0"/><path d="m319.09,154.7c.99.97.83,1.93.94,2.9.08.97.12,1.93.12,2.9,0,.97-.06,1.93-.13,2.9-.08.97-.01,1.93-.93,2.9h-.29c-.91-.97-.85-1.93-.93-2.9-.08-.97-.13-1.93-.13-2.9,0-.97.04-1.93.12-2.9.1-.97-.05-1.93.94-2.9h.29Z" fill="#9b7670" stroke-width="0"/><path d="m309.74,150.96c1.29.48,1.54,1.43,2.03,2.27.46.85.89,1.72,1.28,2.6.39.88.73,1.79,1.05,2.7.32.92.77,1.77.32,3.02l-.27.12c-1.23-.51-1.55-1.42-2.02-2.27-.46-.85-.9-1.71-1.29-2.59-.39-.88-.74-1.78-1.06-2.7-.3-.92-.83-1.74-.32-3.03l.27-.12h0Z" fill="#9b7670" stroke-width="0"/><path d="m408.77,161.5c5.09,3.12,9.37,7.19,13.75,11.13,5.94,5.53,12.1,11.07,16.96,17.65,4.84,8.22,14.24,12.03,22.05,16.95,0,0-.11.27-.11.27-5.8-1.45-11.12-4.26-16.03-7.71-2.43-1.77-4.81-3.73-6.6-6.37-1.54-2.39-3.43-4.67-5.37-6.75-3.93-4.29-8.14-8.38-12.37-12.45-4.22-4.08-8.68-7.89-12.47-12.49l.19-.22h0Z" fill="#9b7670" stroke-width="0"/><path d="m391.9,337.33c-6.37,4.04-13.85,6.14-21.4,6.19,1.32-1.22,5.97-5.54,7.38-6.84,1.64-1.45,3.72-3.46,5.39-4.84,6.58-5.8,15.73-6.84,24.01-8.52,0,0,.9-.15.9-.15l.11-.02c.68-.18,1.52.62,1.24,1.39-.07.33-.46.64-.37.55-.07.06-.4.32-.48.39-4.21,3.39-8.45,6.75-13.1,9.59,0,0-.19-.23-.19-.23,3.7-4,7.82-7.5,11.97-10.97l.35-.29.09-.07.04-.04c-.87.83.06,1.83.71,1.74-3.71.72-7.7,1.62-11.34,2.57-4.65,1.05-8.78,2.83-12.42,5.89-3.1,2.64-7.65,6.77-10.8,9.44,0,0-.71-1.81-.71-1.81,6.31-.32,12.5-2.29,18.5-4.25,0,0,.13.26.13.26h0Z" fill="#9b7670" stroke-width="0"/><path d="m349.16,328.61c-8.22-.07-16.18-2.11-24.32-1.68-4.1.8-8.93,2.18-12.53,4.22.26-.27.2-.96-.12-1.21-.04-.06-.14-.11-.18-.14.78.16,1.69.37,2.46.58,4.33,1.11,9.21,2.53,13.57,3.1,3.24.61,5.78-.61,8.74-1.38,3.03-.82,6.09-1.55,9.21-2.04l.08.28c-4.71,2.15-9.51,4.03-14.51,5.3-4.44.37-8.89-.85-13.12-1.81-1.78-.47-5.48-1.38-7.23-1.77-.79-.21-1.38-1.13-1.04-1.95.36-.85,1.13-1.19,1.71-1.53,3.71-1.77,7.48-2.82,11.43-3.75,2.41-.44,4.96-.19,7.35,0,6.29.64,12.53,1.46,18.54,3.5l-.05.29h0Z" fill="#9b7670" stroke-width="0"/><path d="m309.21,280.86c-1.55.96-3.08.77-4.61.84-1.53.05-3.07.06-4.6.03-1.53-.03-3.06-.12-4.59-.23-1.53-.11-3.06-.07-4.58-1.02v-.29c1.56-.88,3.09-.78,4.62-.83,1.53-.05,3.07-.07,4.6-.04,1.53.03,3.06.11,4.59.22,1.53.13,3.06,0,4.58,1.03v.29h0Z" fill="#9b7670" stroke-width="0"/><path d="m303.18,264c.97,1.5.57,3.05.35,4.5-.24,1.47-.64,2.9-1.1,4.29-.47,1.39-1.06,2.73-1.69,4.05-.64,1.31-1.18,2.68-2.65,3.57l-.26-.13c-.18-1.68.46-2.93.93-4.27l1.38-4c.44-1.33.91-2.65,1.28-3.99.42-1.45.49-2.72,1.46-4.03,0,0,.29,0,.29,0h0Z" fill="#9b7670" stroke-width="0"/><path d="m362.42,148.09c2.98,3.09,4.83,6.87,6.78,10.58,1.92,3.72,3.64,7.56,5.1,11.53,1.69,4.32,2.91,9.35,5.53,13.12.11.12.15.04-.15.06-.28.09-.2.14-.14,0,.99-2.45.57-5.19.8-7.93,0,0,.29-.06.29-.06,1.02,2.76,1.92,6.11.65,9-1.56,2.46-3.6-.07-4.41-1.72-2.04-3.83-3.38-7.76-4.84-11.67-1.37-3.86-3.03-7.64-4.77-11.39-1.74-3.76-3.82-7.32-5.08-11.38l.25-.15h0Z" fill="#9b7670" stroke-width="0"/><path d="m402.5,161.55c2.72,3.48,4.29,7.52,5.98,11.49,2.76,7.06,5.86,14.39,5.82,22.14-.05,1.12-.43,2.57-.95,3.49-1.86,3.83-3.13,7.8-4.52,11.84,0,0-.29-.02-.29-.02-.52-4.96,1.61-9.59,3.35-14.04.56-3.51-.49-7.08-1.38-10.51-1.11-4.08-2.55-8.1-4.03-12.1-1.48-4.01-3.3-7.87-4.23-12.16l.27-.13h0Z" fill="#9b7670" stroke-width="0"/><path d="m377.65,250.24c14.93-2.65,29.95-4.29,44.54-8.48,14.71-3.75,28.39-10.52,43.12-14.27,0,0,.1.27.1.27-6.78,3.53-13.9,6.15-20.97,8.9-14.09,5.81-28.94,9.88-44.01,12.1-7.53,1.12-15.1,2.25-22.76,1.77l-.02-.29h0Z" fill="#9b7670" stroke-width="0"/><path d="m369.55,276.67c32.4-3.54,65.21-4.12,97.14-11.04,2.98-.62,5.99-1.53,8.89-2.44,13.25-4.5,26.43-9.29,39.98-12.94,0,0,.1.28.1.28-12.87,5.57-26.18,10.02-39.36,14.74-2.93.96-6.05,1.94-9.08,2.61-19.8,4.49-40.12,6.17-60.31,7.75-12.43.87-24.86,1.78-37.35,1.34,0,0-.01-.29-.01-.29h0Z" fill="#9b7670" stroke-width="0"/><path d="m461.34,292.28c-1.55-1.6-2.02-3.54-2.73-5.41-.69-1.87-1.35-3.76-1.96-5.66-.61-1.9-1.17-3.82-1.71-5.74-.54-1.92-1.22-3.8-.96-5.98l.28-.09c1.48,1.62,2.03,3.54,2.72,5.41.69,1.88,1.35,3.76,1.97,5.66.61,1.9,1.19,3.81,1.72,5.74.52,1.93,1.28,3.78.95,5.98l-.28.09h0Z" fill="#9b7670" stroke-width="0"/><path d="m543.2,259.55c-10.99,6.72-25.82,12.88-37.42,18.56,0,0-12.63,5.84-12.63,5.84l-.51.23-.49-.24-15.52-7.6c-5.17-2.53-10.31-5.14-15.21-8.26l.13-.26c5.49,1.86,10.75,4.23,15.96,6.68l15.65,7.34s-1,0-1,0l12.61-5.9c6.29-2.91,19.01-8.71,25.33-11.56,4.24-1.89,8.52-3.69,12.98-5.1l.12.27h0Z" fill="#9b7670" stroke-width="0"/><path d="m173.32,170.93s17.61,7.78,47.5,9.83c29.89,2.05,63.47-10.65,72.06,0,8.6,10.65,31.12-3.49,29.48,18.53-1.64,22.01,27.84,31.43,41.76,46.17,13.92,14.74,0,15.56,0,15.56,0,0,61.83,25.39,50.77,33.58-11.06,8.19-36.85,20.88-45.04,23.75s-31.12,4.09-32.76,0-26.89-34.07-27.89-37.61c-.67-2.37-.6-3.56-.13-4.02,1.53-1.49,1.47-3.99.32-5.79-5.05-7.91-11.56-17.2-14.63-14.81-4.76,3.69-11.77,35.62-18.09,45.04s-12.46,15.09-40.3,19.83c-27.84,4.74-43.4,11.29-52.41,8.02s-93.76-29.48-104.82-40.95c-11.06-11.46-10.65-21.19-10.65-21.19,0,0,31.53-30.4,47.5-41.04,15.97-10.65,25.39-5.73,25.39-5.73,0,0-33.91,35.23-55.22,30.33-14.15-3.25-44.28-26.65-19.3-38.52,24.98-11.87,57.73-40.95,76.16-40.95h30.3Z" fill="#e57fa1" stroke-width="0"/><path d="m185.28,178.45c2.9,1.96,5.7,4,8.51,5.98,4.14,2.8,8.43,5.96,13.33,6.93,4.88.39,10.08-1.39,14.92-2.4,6.73-1.63,13.42-3.49,20.11-5.35,6.69-1.87,13.31-3.97,20.21-5.2l.09.28c-12.81,5.6-26.38,8.98-39.84,12.61-4.71,1.06-9.51,2.37-14.41,2.47-.42-.02-1.05-.06-1.46-.18-5.36-1.18-9.82-4.48-14.08-7.65-2.74-2.19-5.33-4.57-7.58-7.28l.2-.22h0Z" fill="#b74873" stroke-width="0"/><path d="m171.04,186.15c1.27-1.37,2.84-1.65,4.35-2.17,1.51-.5,3.03-.96,4.56-1.39,1.53-.42,3.08-.79,4.63-1.14,1.55-.35,3.07-.83,4.84-.38l.08.28c-1.29,1.3-2.84,1.66-4.35,2.16-1.51.5-3.03.97-4.56,1.4-1.53.42-3.08.8-4.63,1.15-1.56.32-3.05.9-4.85.37l-.08-.28h0Z" fill="#b74873" stroke-width="0"/><path d="m198.28,187.99c-.49,1.61-1.67,2.3-2.69,3.2-1.04.88-2.1,1.73-3.18,2.55-1.09.82-2.2,1.59-3.34,2.35-1.13.75-2.18,1.63-3.81,1.71l-.18-.23c.53-1.55,1.66-2.31,2.7-3.19,1.04-.88,2.09-1.74,3.17-2.56,1.09-.82,2.2-1.6,3.33-2.35,1.15-.74,2.14-1.68,3.82-1.71l.18.23h0Z" fill="#b74873" stroke-width="0"/><path d="m213.67,192.66c.87.98.61,1.82.6,2.69-.03.87-.09,1.73-.2,2.59-.11.86-.27,1.71-.46,2.56-.19.85-.23,1.72-1.24,2.46l-.29-.04c-.8-.97-.62-1.82-.59-2.69.03-.87.08-1.73.19-2.59.11-.86.26-1.71.45-2.56.21-.85.16-1.72,1.25-2.46l.29.04h0Z" fill="#b74873" stroke-width="0"/><path d="m232.25,188.79c.26-.14.07-.04.13-.07,0,0,.02,0,.03,0,.52.15,1.02.45,1.4.81.93,1.05,1.95,2.01,3.06,2.88.73.59,1.48,1.15,2.27,1.69.82.55,1.75.97,2.19,2.26l-.14.26c-1.32.31-2.16-.22-3.1-.65-.96-.45-1.89-1-2.73-1.67-1.25-1.01-2.35-2.26-3.12-3.68-.24-.53-.31-1.17-.13-1.74h0s0-.01,0-.01c.06-.03-.13.07.13-.07h0Z" fill="#b74873" stroke-width="0"/><path d="m250.6,182.12c1.43.09,1.87.94,2.93,1.49.74.42,1.45.72,2.26.85,1.33.24,2.6.73,3.81,1.21,1.08.41,2.1.97,2.86,2.08l-.12.27c-2.41.33-4.31-.89-6.55-1.15-.24-.04-.59-.08-.82-.13-1.84-.32-4.98-2.31-4.61-4.44,0,0,.24-.17.24-.17h0Z" fill="#b74873" stroke-width="0"/><path d="m132.99,192.85c-1.05,3.02-1.76,5.94-2.78,8.97-2.75,7.49-7.16,14.39-12.87,19.98l-3.36,3.28c-9.19,8.54-17.7,17.78-27.71,25.41,0,0-.2-.21-.2-.21,7.93-9.78,17.42-18,26.23-26.93,4.47-4.14,8.87-8.73,11.98-14,2.5-3.96,4.13-8.24,6.01-12.54.7-1.44,1.5-2.82,2.44-4.1l.26.13h0Z" fill="#b74873" stroke-width="0"/><path d="m364.2,261.13c-3.51,3.11-7.65,5.15-11.68,7.34-4.05,2.17-8.18,4.21-12.36,6.13-5.4,2.2-20.26,9.36-25.19,5.36-.51-.45-.79-1.12-.81-1.72l.28-.07c2.96,5.99,31.83-9.25,37.1-11.61,4.11-1.99,8.06-4.28,12.53-5.67l.15.26h0Z" fill="#b74873" stroke-width="0"/><path d="m162.97,178.48c9.65,12.02,21.99,24.23,37.98,26.07,5.19.36,10.47-.58,15.57-1.66,20.82-4.67,40.31-13.97,60.09-21.8,0,0,.13.26.13.26-9.23,5.54-19.09,9.83-29.04,13.86-12.46,4.91-25.29,9.66-38.7,11.41-8.21,1.33-16.74-.9-23.79-5.02-7.1-4.08-13.26-9.61-18.16-16.13-1.62-2.17-3.1-4.43-4.34-6.83l.25-.15h0Z" fill="#b74873" stroke-width="0"/><path d="m412.68,292.07c-3.57,3.03-7.68,5.03-11.68,7.25-4.02,2.2-8.06,4.32-12.19,6.36-8.39,3.68-15.95,8.85-24.61,12.01,0,0-.15-.26-.15-.26,3.52-3.06,7.55-5.23,11.53-7.5,3.97-2.26,8.03-4.47,12.17-6.42,4.09-1.97,8.15-4.07,12.24-6.1,4.09-2.03,8.06-4.3,12.55-5.59l.14.26h0Z" fill="#b74873" stroke-width="0"/><path d="m343.39,309.89c1.51-.2,2.41.55,3.44,1.1,1.02.56,2.03,1.15,3,1.78.98.63,1.93,1.3,2.87,2,.94.7,1.95,1.26,2.44,2.66l-.16.25c-1.47.14-2.41-.54-3.44-1.1-1.02-.56-2.03-1.14-3.01-1.77-.98-.63-1.93-1.29-2.87-1.99-.92-.71-1.99-1.21-2.43-2.67l.16-.25h0Z" fill="#b74873" stroke-width="0"/><path d="m355.14,300.85c1.73-.08,2.85.8,4.11,1.47,1.25.68,2.48,1.4,3.68,2.15,1.2.75,2.38,1.56,3.54,2.37,1.16.82,2.4,1.52,3.13,3.04l-.16.25c-1.69.02-2.86-.79-4.11-1.48-1.25-.69-2.48-1.39-3.69-2.15-1.2-.75-2.39-1.54-3.55-2.37-1.15-.84-2.44-1.46-3.12-3.05l.16-.25h0Z" fill="#b74873" stroke-width="0"/><path d="m369.6,291.81c1.84-.11,3.12.78,4.52,1.44,1.4.68,2.77,1.4,4.13,2.15,1.36.75,2.68,1.56,4,2.38,1.32.82,2.71,1.52,3.62,3.07l-.14.26c-1.8.05-3.12-.77-4.52-1.45-1.39-.69-2.78-1.39-4.13-2.14-1.36-.75-2.69-1.54-4.01-2.37-1.31-.84-2.74-1.46-3.61-3.08l.14-.26h0Z" fill="#b74873" stroke-width="0"/><path d="m385.86,282.76c1.98-.17,3.47.74,5.05,1.44,3.17,1.47,6.22,3.16,8.95,5.41,1.04.87,2.18,1.82,2.65,3.19.15.49.23,1.06,0,1.55h-.29c-3.32-3.41-8.25-5.75-12.31-8.23-1.47-.87-3.05-1.48-4.18-3.09l.12-.27h0Z" fill="#b74873" stroke-width="0"/><path d="m294.85,256.22c-3.91,2.94-7.73,5.96-11.46,9.07-5.45,4.67-10.98,9.55-14.51,15.83-1.23,2.1-1.75,4.22-2.29,6.63-1.27,4.85-2.43,9.94-5.84,13.9-7.12,7.46-17.93,9.04-27.53,10.86-4.83.84-9.66,1.62-14.48,2.38-4.09.76-10.39,1.27-14.25,2.79,0,0-.16-.25-.16-.25,4.22-2.61,9.32-3.31,14.08-4.4,4.81-.95,9.63-1.72,14.42-2.65,9.14-1.91,19.36-3.39,26.12-10.3,3.9-4.56,4.67-10.86,6.4-16.51,3.21-8.25,10.21-14.31,16.93-19.67,3.92-2.98,8.06-5.67,12.43-7.92l.15.25h0Z" fill="#b74873" stroke-width="0"/></g></svg>