<?xml version="1.0" encoding="UTF-8"?><svg xmlns="http://www.w3.org/2000/svg" width="570" height="321" viewBox="0 0 570 321"><defs><style>.e{stroke-linecap:round;}.e,.f,.g{stroke:#000;stroke-linejoin:round;stroke-width:2px;}.e,.g{fill:none;}.f{fill:#fff;}.h,.i{stroke-width:0px;}.i{fill:#eaf2f5;}</style></defs><g id="a"><path class="i" d="m558.99,228.934c-42.816,85.633-140.052,90.606-277.663,90.606S30.722,286.558,9.51,207.014C-13.872,119.33,27.046,5.343,138.112,3.881c244.187-3.213,331.734,1.461,381.421,37.996,58.876,43.291,51.148,163.675,39.457,187.057Z"/><g id="b"><circle class="e" cx="283.662" cy="241.006" r="25"/></g><path class="h" d="m245.876,35.682h5.551v2.393h-5.551v6.289h-2.543v-6.289h-5.551v-2.393h5.551v-5.811h2.543v5.811Z"/><path class="h" d="m332.334,35.682v2.393h-13.645v-2.393h13.645Z"/><path class="g" d="m306.017,64.865h186.85v176.174h-182.232l-1.973-.033h-8.306c1.127-6.303-.66-13.597-7.301-14.63-7.861-1.223-15.447,8.899-15.447,20.625,0,4.534,2.58,8.803,6.055,8.803h0c3.476,0,6.055-4.269,6.055-8.803,0-11.725-7.586-21.848-15.447-20.625-6.642,1.034-8.429,8.328-7.301,14.63h-8.306s-1.888.033-1.888.033H89.333V64.865h174.65"/><g id="c"><line class="f" x1="263.983" y1="22.865" x2="263.983" y2="106.865"/><line class="f" x1="277.994" y1="41.803" x2="277.994" y2="88.843"/><line class="f" x1="292.006" y1="22.865" x2="292.006" y2="106.865"/><line class="f" x1="306.017" y1="41.803" x2="306.017" y2="88.843"/></g></g><g id="d"><path class="h" d="m152.099,54.361v-17.062h5.578c1.852,0,3.244.383,4.178,1.148s1.4,1.898,1.4,3.398c0,.797-.227,1.502-.68,2.115s-1.07,1.088-1.852,1.424c.922.258,1.65.748,2.186,1.471s.803,1.584.803,2.584c0,1.531-.496,2.734-1.488,3.609s-2.395,1.312-4.207,1.312h-5.918Zm2.25-9.785h3.398c.984,0,1.771-.247,2.361-.74s.885-1.163.885-2.008c0-.939-.273-1.623-.82-2.049s-1.379-.64-2.496-.64h-3.328v5.438Zm0,1.805v6.141h3.715c1.047,0,1.873-.271,2.479-.814s.908-1.291.908-2.244c0-2.055-1.117-3.082-3.352-3.082h-3.75Z"/><path class="h" d="m174.529,54.361c-.125-.25-.227-.695-.305-1.336-1.008,1.047-2.211,1.57-3.609,1.57-1.25,0-2.275-.354-3.076-1.061s-1.201-1.604-1.201-2.689c0-1.32.502-2.346,1.506-3.076s2.416-1.096,4.236-1.096h2.109v-.996c0-.758-.227-1.361-.68-1.811s-1.121-.674-2.004-.674c-.773,0-1.422.195-1.945.586s-.785.863-.785,1.418h-2.18c0-.633.225-1.244.674-1.834s1.059-1.057,1.828-1.4,1.615-.516,2.537-.516c1.461,0,2.605.365,3.434,1.096s1.258,1.736,1.289,3.018v5.836c0,1.164.148,2.09.445,2.777v.188h-2.273Zm-3.598-1.652c.68,0,1.324-.176,1.934-.527s1.051-.809,1.324-1.371v-2.602h-1.699c-2.656,0-3.984.777-3.984,2.332,0,.68.227,1.211.68,1.594s1.035.574,1.746.574Z"/><path class="h" d="m182.697,38.611v3.07h2.367v1.676h-2.367v7.873c0,.509.105.89.316,1.144.211.254.57.381,1.078.381.25,0,.594-.047,1.031-.141v1.748c-.57.155-1.125.233-1.664.233-.969,0-1.699-.293-2.191-.879s-.738-1.418-.738-2.496v-7.863h-2.309v-1.676h2.309v-3.07h2.168Z"/><path class="h" d="m190.537,38.611v3.07h2.367v1.676h-2.367v7.873c0,.509.105.89.316,1.144.211.254.57.381,1.078.381.25,0,.594-.047,1.031-.141v1.748c-.57.155-1.125.233-1.664.233-.969,0-1.699-.293-2.191-.879s-.738-1.418-.738-2.496v-7.863h-2.309v-1.676h2.309v-3.07h2.168Z"/><path class="h" d="m200.697,54.595c-1.719,0-3.117-.564-4.195-1.693s-1.617-2.639-1.617-4.529v-.398c0-1.258.24-2.381.721-3.369s1.152-1.762,2.016-2.32,1.799-.838,2.807-.838c1.648,0,2.93.543,3.844,1.629s1.371,2.641,1.371,4.664v.902h-8.59c.031,1.25.396,2.26,1.096,3.029s1.588,1.154,2.666,1.154c.766,0,1.414-.156,1.945-.469s.996-.727,1.395-1.242l1.324,1.031c-1.062,1.633-2.656,2.449-4.781,2.449Zm-.27-11.367c-.875,0-1.609.318-2.203.955s-.961,1.529-1.102,2.678h6.352v-.164c-.062-1.102-.359-1.955-.891-2.561s-1.25-.908-2.156-.908Z"/><path class="h" d="m214.279,43.626c-.328-.055-.684-.082-1.066-.082-1.422,0-2.387.605-2.895,1.816v9h-2.168v-12.68h2.109l.035,1.465c.711-1.133,1.719-1.699,3.023-1.699.422,0,.742.055.961.164v2.016Z"/><path class="h" d="m220.63,51.185l2.953-9.504h2.32l-5.098,14.637c-.789,2.109-2.043,3.164-3.762,3.164l-.41-.035-.809-.152v-1.758l.586.047c.734,0,1.307-.148,1.717-.445s.748-.84,1.014-1.629l.48-1.289-4.523-12.539h2.367l3.164,9.504Z"/><path class="h" d="m323.539,266.027h8.086v1.84h-10.348v-17.062h2.262v15.223Z"/><path class="h" d="m333.863,251.824c0-.352.107-.648.322-.891s.533-.363.955-.363.742.121.961.363.328.539.328.891-.109.645-.328.879-.539.352-.961.352-.74-.117-.955-.352-.322-.527-.322-.879Zm2.344,16.043h-2.168v-12.68h2.168v12.68Z"/><path class="h" d="m339.16,261.422c0-1.977.457-3.549,1.371-4.717s2.125-1.752,3.633-1.752c1.547,0,2.754.547,3.621,1.641l.105-1.406h1.98v12.375c0,1.641-.486,2.934-1.459,3.879s-2.279,1.418-3.92,1.418c-.914,0-1.809-.195-2.684-.586s-1.543-.926-2.004-1.605l1.125-1.301c.93,1.148,2.066,1.723,3.41,1.723,1.055,0,1.877-.297,2.467-.891s.885-1.43.885-2.508v-1.09c-.867,1-2.051,1.5-3.551,1.5-1.484,0-2.686-.598-3.604-1.793s-1.377-2.824-1.377-4.887Zm2.18.246c0,1.43.293,2.553.879,3.369s1.406,1.225,2.461,1.225c1.367,0,2.371-.621,3.012-1.863v-5.789c-.664-1.211-1.66-1.816-2.988-1.816-1.055,0-1.879.41-2.473,1.23s-.891,2.035-.891,3.645Z"/><path class="h" d="m355.309,256.722c.961-1.18,2.211-1.77,3.75-1.77,2.68,0,4.031,1.512,4.055,4.535v8.379h-2.168v-8.391c-.008-.914-.217-1.59-.627-2.027s-1.049-.656-1.916-.656c-.703,0-1.32.188-1.852.562s-.945.867-1.242,1.477v9.035h-2.168v-18h2.168v6.855Z"/><path class="h" d="m369.301,252.117v3.07h2.367v1.676h-2.367v7.873c0,.509.105.89.316,1.144.211.254.57.381,1.078.381.25,0,.594-.047,1.031-.141v1.748c-.57.155-1.125.233-1.664.233-.969,0-1.699-.293-2.191-.879s-.738-1.418-.738-2.496v-7.863h-2.309v-1.676h2.309v-3.07h2.168Z"/><path class="h" d="m390.875,261.668c0,1.938-.445,3.494-1.336,4.67s-2.086,1.764-3.586,1.764c-1.602,0-2.84-.566-3.715-1.699l-.105,1.465h-1.992v-18h2.168v6.715c.875-1.086,2.082-1.629,3.621-1.629s2.748.582,3.627,1.746,1.318,2.758,1.318,4.781v.188Zm-2.168-.246c0-1.477-.285-2.617-.855-3.422s-1.391-1.207-2.461-1.207c-1.43,0-2.457.664-3.082,1.992v5.484c.664,1.328,1.699,1.992,3.105,1.992,1.039,0,1.848-.402,2.426-1.207s.867-2.016.867-3.633Z"/><path class="h" d="m401.434,266.613c-.844.992-2.082,1.488-3.715,1.488-1.352,0-2.381-.393-3.088-1.178s-1.064-1.947-1.072-3.486v-8.25h2.168v8.191c0,1.922.781,2.883,2.344,2.883,1.656,0,2.758-.617,3.305-1.852v-9.223h2.168v12.68h-2.062l-.047-1.254Z"/><path class="h" d="m409.191,267.867h-2.168v-18h2.168v18Z"/><path class="h" d="m423.395,261.668c0,1.938-.445,3.494-1.336,4.67s-2.086,1.764-3.586,1.764c-1.602,0-2.84-.566-3.715-1.699l-.105,1.465h-1.992v-18h2.168v6.715c.875-1.086,2.082-1.629,3.621-1.629s2.748.582,3.627,1.746,1.318,2.758,1.318,4.781v.188Zm-2.168-.246c0-1.477-.285-2.617-.855-3.422s-1.391-1.207-2.461-1.207c-1.43,0-2.457.664-3.082,1.992v5.484c.664,1.328,1.699,1.992,3.105,1.992,1.039,0,1.848-.402,2.426-1.207s.867-2.016.867-3.633Z"/></g></svg>