<?xml version="1.0" encoding="UTF-8"?><svg xmlns="http://www.w3.org/2000/svg" width="570" height="509.3" xmlns:xlink="http://www.w3.org/1999/xlink" viewBox="0 0 570 509.3"><defs><clipPath id="b"><path d="m-55.89,53.05C-85.64,19.19-131.73,5.68-178.92,15.82c-45.5,9.78-88.9,30.96-135.38,32.81-54.1,2.15-107-21.04-160.6-4.9-53.75,16.18-99.38,61.18-112.02,117.11-21.71,96.08,47.3,174.18,135.7,194.61,58.97,13.63,124.77,13.85,184.99,10.21,85.64-5.17,181.83-28.27,224.47-111.77,25.42-49.77,28.88-110.42,8.74-162.67-5.66-14.69-13.45-27.45-22.87-38.17Z" fill="none" stroke-width="0"/></clipPath></defs><g id="a"><g clip-path="url(#b)"><rect x="-133.78" y="-68.67" width="184.24" height="232.66" fill="#ece6ff" stroke-width="0"/></g></g><g id="c"><path d="m88.82,4.73C-20.95,6.92,1.11,131.77,2.24,259.7c.58,66.07-9.13,129.05,8.42,180.89,35.6,105.2,164.14,46.24,243.4,51.98,87.79,6.35,186.83,39.2,270.63-9.49,54.25-31.52,40.23-136.17,39.54-250.82-.44-74,5.56-156.01-9.2-187.78-24.83-53.45-149.82-34.38-204.87-27.65C276.74,25.81,162.57,3.26,88.82,4.73Z" fill="#e9edda" stroke-width="0"/><polyline points="179.88 257.82 179.88 113.26 398.34 113.26 398.34 173.06 398.34 195.52 398.34 254.45" fill="none" stroke="#000" stroke-linecap="round" stroke-miterlimit="10" stroke-width="2"/><polyline points="398.34 322.59 398.26 374.34 398.34 462.49 179.88 462.49 179.88 302.28" fill="none" stroke="#000" stroke-linecap="round" stroke-linejoin="round" stroke-width="2"/><rect x="175.87" y="246.68" width="8.46" height="11.14" rx="2" ry="2" fill="#a8aeab" stroke-width="0"/><rect x="165.62" y="250.25" width="28.51" height="74.58" rx="5.85" ry="5.85" fill="#93b8c5" stroke-width="0"/><path d="m194.13,275.64v-19.16c0-3.43-2.81-6.24-6.24-6.24h-16.04c-3.43,0-6.24,2.81-6.24,6.24v19.16s28.51,0,28.51,0Z" fill="#7f9ca1" stroke-width="0"/><path d="m181.36,262.53h4.23v3.06h-4.23v4.78h-3.22v-4.78h-4.24v-3.06h4.24v-4.58h3.22v4.58Z" stroke-width="0"/><path d="m184.95,310.75h-10.11v-2.77h10.11v2.77Z" stroke-width="0"/><path d="m176.29,250.2c.68-.99,1.37-.83,2.05-.94.68-.08,1.37-.12,2.05-.12.68,0,1.37.06,2.05.13.68.08,1.37.01,2.05.93.07.09.06.21,0,.29-.68.91-1.37.85-2.05.93-.68.08-1.37.13-2.05.13-.68,0-1.37-.04-2.05-.12-.68-.1-1.37.05-2.05-.94-.06-.09-.06-.21,0-.29,0,0-.06.09,0,0Z" fill="#3e5c68" stroke-width="0"/><line x1="239.35" y1="98.5" x2="324.27" y2="98.5" fill="none" stroke="#d12d32" stroke-linecap="round" stroke-linejoin="round" stroke-width="2"/><polygon points="321.94 106.48 335.75 98.5 321.94 90.52 321.94 106.48" fill="#d12d32" stroke-width="0"/><line x1="335.75" y1="127.38" x2="250.84" y2="127.38" fill="none" stroke="#0077a2" stroke-linecap="round" stroke-linejoin="round" stroke-width="2"/><polygon points="253.17 119.41 239.35 127.38 253.17 135.36 253.17 119.41" fill="#0077a2" stroke-width="0"/><line x1="335.13" y1="476.93" x2="250.21" y2="476.93" fill="none" stroke="#d12d32" stroke-linecap="round" stroke-linejoin="round" stroke-width="2"/><polygon points="252.54 468.95 238.73 476.93 252.54 484.91 252.54 468.95" fill="#d12d32" stroke-width="0"/><line x1="238.73" y1="448.05" x2="323.65" y2="448.05" fill="none" stroke="#0077a2" stroke-linecap="round" stroke-linejoin="round" stroke-width="2"/><polygon points="321.31 456.03 335.13 448.05 321.31 440.07 321.31 456.03" fill="#0077a2" stroke-width="0"/><line x1="411.63" y1="126.09" x2="411.63" y2="195.89" fill="none" stroke="#d12d32" stroke-linecap="round" stroke-linejoin="round" stroke-width="2"/><polygon points="403.65 193.56 411.63 207.38 419.61 193.56 403.65 193.56" fill="#d12d32" stroke-width="0"/><line x1="386.63" y1="207.38" x2="386.63" y2="137.57" fill="none" stroke="#0077a2" stroke-linecap="round" stroke-linejoin="round" stroke-width="2"/><polygon points="394.61 139.91 386.63 126.09 378.66 139.91 394.61 139.91" fill="#0077a2" stroke-width="0"/><line x1="386.63" y1="448.05" x2="386.63" y2="363.2" fill="none" stroke="#0077a2" stroke-linecap="round" stroke-linejoin="round" stroke-width="2"/><polygon points="394.61 365.53 386.63 351.72 378.66 365.53 394.61 365.53" fill="#0077a2" stroke-width="0"/><line x1="413.01" y1="353.67" x2="413.01" y2="434.61" fill="none" stroke="#d12d32" stroke-linecap="round" stroke-linejoin="round" stroke-width="2"/><polygon points="405.03 432.28 413.01 446.09 420.98 432.28 405.03 432.28" fill="#d12d32" stroke-width="0"/><line x1="165.97" y1="163.91" x2="165.97" y2="134.87" fill="none" stroke="#d12d32" stroke-linecap="round" stroke-linejoin="round" stroke-width="2"/><polygon points="173.95 137.2 165.97 123.38 157.99 137.2 173.95 137.2" fill="#d12d32" stroke-width="0"/><line x1="192.97" y1="124.28" x2="192.97" y2="153.32" fill="none" stroke="#0077a2" stroke-linecap="round" stroke-linejoin="round" stroke-width="2"/><polygon points="184.99 150.98 192.97 164.8 200.94 150.98 184.99 150.98" fill="#0077a2" stroke-width="0"/><line x1="165.97" y1="439.4" x2="165.97" y2="384.6" fill="none" stroke="#d12d32" stroke-linecap="round" stroke-linejoin="round" stroke-width="2"/><polygon points="173.95 386.94 165.97 373.12 157.99 386.94 173.95 386.94" fill="#d12d32" stroke-width="0"/><line x1="193.59" y1="374.91" x2="193.59" y2="429.71" fill="none" stroke="#0077a2" stroke-linecap="round" stroke-linejoin="round" stroke-width="2"/><polygon points="185.61 427.37 193.59 441.19 201.57 427.37 185.61 427.37" fill="#0077a2" stroke-width="0"/><path d="m222.46,50.36v-17.06h4.82c1.48,0,2.8.33,3.94.98s2.02,1.59,2.64,2.8.94,2.6.94,4.17v1.09c0,1.61-.31,3.02-.93,4.23s-1.51,2.14-2.66,2.79-2.49.98-4.03,1h-4.72Zm2.25-15.22v13.38h2.37c1.73,0,3.08-.54,4.05-1.62.96-1.08,1.45-2.62,1.45-4.61v-1c0-1.94-.46-3.45-1.37-4.52s-2.2-1.62-3.87-1.64h-2.62Z" stroke-width="0"/><path d="m237.87,34.32c0-.35.11-.65.32-.89s.53-.36.96-.36.74.12.96.36.33.54.33.89-.11.64-.33.88-.54.35-.96.35-.74-.12-.96-.35-.32-.53-.32-.88Zm2.34,16.04h-2.17v-12.68h2.17v12.68Z" stroke-width="0"/><path d="m249.81,39.63c-.33-.05-.68-.08-1.07-.08-1.42,0-2.39.61-2.89,1.82v9h-2.17v-12.68h2.11l.04,1.46c.71-1.13,1.72-1.7,3.02-1.7.42,0,.74.05.96.16v2.02Z" stroke-width="0"/><path d="m256.84,50.6c-1.72,0-3.12-.56-4.2-1.69s-1.62-2.64-1.62-4.53v-.4c0-1.26.24-2.38.72-3.37s1.15-1.76,2.02-2.32,1.8-.84,2.81-.84c1.65,0,2.93.54,3.84,1.63s1.37,2.64,1.37,4.66v.9h-8.59c.03,1.25.4,2.26,1.1,3.03s1.59,1.15,2.67,1.15c.77,0,1.41-.16,1.95-.47s1-.73,1.39-1.24l1.32,1.03c-1.06,1.63-2.66,2.45-4.78,2.45Zm-.27-11.37c-.88,0-1.61.32-2.2.96s-.96,1.53-1.1,2.68h6.35v-.16c-.06-1.1-.36-1.96-.89-2.56s-1.25-.91-2.16-.91Z" stroke-width="0"/><path d="m269.38,48.83c.77,0,1.45-.23,2.03-.7s.9-1.05.96-1.76h2.05c-.04.73-.29,1.42-.75,2.07s-1.08,1.18-1.85,1.57-1.58.59-2.44.59c-1.73,0-3.1-.58-4.12-1.73s-1.53-2.73-1.53-4.73v-.36c0-1.23.23-2.33.68-3.29s1.1-1.71,1.95-2.24,1.85-.8,3.01-.8c1.42,0,2.6.43,3.54,1.28s1.44,1.96,1.51,3.32h-2.05c-.06-.82-.37-1.49-.93-2.02s-1.25-.79-2.07-.79c-1.1,0-1.96.4-2.56,1.19s-.91,1.94-.91,3.44v.41c0,1.46.3,2.59.9,3.38s1.46,1.18,2.58,1.18Z" stroke-width="0"/><path d="m279.79,34.61v3.07h2.37v1.68h-2.37v7.87c0,.51.11.89.32,1.14.21.25.57.38,1.08.38.25,0,.59-.05,1.03-.14v1.75c-.57.16-1.12.23-1.66.23-.97,0-1.7-.29-2.19-.88s-.74-1.42-.74-2.5v-7.86h-2.31v-1.68h2.31v-3.07h2.17Z" stroke-width="0"/><path d="m284.71,34.32c0-.35.11-.65.32-.89s.53-.36.96-.36.74.12.96.36.33.54.33.89-.11.64-.33.88-.54.35-.96.35-.74-.12-.96-.35-.32-.53-.32-.88Zm2.34,16.04h-2.17v-12.68h2.17v12.68Z" stroke-width="0"/><path d="m289.94,43.91c0-1.24.24-2.36.73-3.35s1.17-1.76,2.04-2.3,1.87-.81,2.98-.81c1.73,0,3.12.6,4.19,1.79s1.6,2.79,1.6,4.77v.15c0,1.23-.24,2.34-.71,3.32s-1.15,1.74-2.03,2.29-1.89.82-3.03.82c-1.72,0-3.11-.6-4.18-1.79s-1.6-2.78-1.6-4.75v-.15Zm2.18.26c0,1.41.33,2.54.98,3.39s1.53,1.28,2.62,1.28,1.98-.43,2.62-1.29.97-2.07.97-3.63c0-1.39-.33-2.52-.99-3.38s-1.54-1.29-2.63-1.29-1.93.43-2.59,1.28-.98,2.07-.98,3.66Z" stroke-width="0"/><path d="m306.26,37.68l.07,1.59c.97-1.22,2.23-1.83,3.8-1.83,2.68,0,4.03,1.51,4.05,4.54v8.38h-2.17v-8.39c0-.91-.22-1.59-.63-2.03s-1.05-.66-1.92-.66c-.7,0-1.32.19-1.85.56s-.95.87-1.24,1.48v9.04h-2.17v-12.68h2.05Z" stroke-width="0"/><path d="m322.81,43.91c0-1.24.24-2.36.73-3.35s1.17-1.76,2.04-2.3,1.87-.81,2.98-.81c1.73,0,3.12.6,4.19,1.79s1.6,2.79,1.6,4.77v.15c0,1.23-.24,2.34-.71,3.32s-1.15,1.74-2.03,2.29-1.89.82-3.03.82c-1.72,0-3.11-.6-4.18-1.79s-1.6-2.78-1.6-4.75v-.15Zm2.18.26c0,1.41.33,2.54.98,3.39s1.53,1.28,2.62,1.28,1.98-.43,2.62-1.29.97-2.07.97-3.63c0-1.39-.33-2.52-.99-3.38s-1.54-1.29-2.63-1.29-1.93.43-2.59,1.28-.98,2.07-.98,3.66Z" stroke-width="0"/><path d="m338.14,50.36v-11h-2v-1.68h2v-1.3c0-1.36.36-2.41,1.09-3.15s1.75-1.11,3.08-1.11c.5,0,1,.07,1.49.2l-.12,1.75c-.37-.07-.76-.11-1.17-.11-.7,0-1.25.21-1.63.62-.38.41-.57,1-.57,1.77v1.34h2.71v1.68h-2.71v11h-2.17Z" stroke-width="0"/><path d="m177.51,76.67c.62,0,1.13-.17,1.52-.52s.59-.8.61-1.37h3.18c0,.86-.24,1.65-.7,2.36s-1.09,1.27-1.89,1.66-1.69.59-2.65.59c-1.81,0-3.24-.58-4.29-1.73s-1.57-2.74-1.57-4.78v-.22c0-1.95.52-3.51,1.56-4.68s2.46-1.75,4.28-1.75c1.59,0,2.86.45,3.81,1.35s1.44,2.1,1.46,3.6h-3.18c-.02-.66-.22-1.2-.61-1.61-.39-.41-.91-.62-1.55-.62-.79,0-1.38.29-1.79.86-.4.57-.6,1.51-.6,2.8v.35c0,1.31.2,2.25.6,2.82.4.57,1,.86,1.82.86Z" stroke-width="0"/><path d="m184.23,72.71c0-1.26.24-2.38.73-3.36s1.18-1.75,2.09-2.29,1.97-.81,3.17-.81c1.71,0,3.11.52,4.19,1.57s1.69,2.47,1.81,4.27l.02.87c0,1.95-.54,3.51-1.63,4.68s-2.54,1.76-4.37,1.76-3.29-.59-4.38-1.76-1.63-2.77-1.63-4.78v-.15Zm3.39.24c0,1.21.23,2.13.68,2.76s1.1.96,1.95.96,1.46-.31,1.92-.94.69-1.64.69-3.02c0-1.18-.23-2.1-.69-2.75s-1.11-.97-1.95-.97-1.47.32-1.92.97-.68,1.65-.68,3Z" stroke-width="0"/><path d="m201.44,66.48l.11,1.46c.91-1.13,2.12-1.7,3.64-1.7,1.34,0,2.34.39,3,1.18s.99,1.97,1.01,3.54v8.19h-3.39v-8.11c0-.72-.16-1.24-.47-1.56s-.83-.49-1.56-.49c-.95,0-1.67.41-2.14,1.22v8.94h-3.39v-12.68h3.19Z" stroke-width="0"/><path d="m216.51,75.03l2.36-8.54h3.54l-4.28,12.68h-3.23l-4.28-12.68h3.54l2.36,8.54Z" stroke-width="0"/><path d="m229.58,79.4c-1.86,0-3.37-.57-4.54-1.71s-1.75-2.66-1.75-4.56v-.33c0-1.27.25-2.41.74-3.42s1.19-1.78,2.09-2.32,1.93-.81,3.09-.81c1.73,0,3.1.55,4.1,1.64s1.49,2.64,1.49,4.65v1.38h-8.07c.11.83.44,1.49.99,1.99s1.25.75,2.09.75c1.3,0,2.32-.47,3.06-1.42l1.66,1.86c-.51.72-1.2,1.28-2.06,1.68s-1.83.6-2.88.6Zm-.39-10.42c-.67,0-1.22.23-1.63.68-.42.46-.69,1.11-.8,1.95h4.71v-.27c-.02-.75-.22-1.34-.61-1.75-.39-.41-.95-.62-1.66-.62Z" stroke-width="0"/><path d="m239.83,66.48l.11,1.46c.91-1.13,2.12-1.7,3.64-1.7,1.34,0,2.34.39,3,1.18s.99,1.97,1.01,3.54v8.19h-3.39v-8.11c0-.72-.16-1.24-.47-1.56s-.83-.49-1.56-.49c-.95,0-1.67.41-2.14,1.22v8.94h-3.39v-12.68h3.19Z" stroke-width="0"/><path d="m254.21,63.37v3.12h2.17v2.48h-2.17v6.33c0,.47.09.8.27,1.01s.52.3,1.03.3c.38,0,.71-.03,1-.08v2.57c-.66.2-1.35.3-2.05.3-2.38,0-3.59-1.2-3.63-3.6v-6.83h-1.85v-2.48h1.85v-3.12h3.39Z" stroke-width="0"/><path d="m258.24,63.2c0-.51.17-.93.51-1.25s.8-.49,1.39-.49,1.04.16,1.38.49.52.75.52,1.25-.17.94-.52,1.27-.81.49-1.38.49-1.03-.16-1.38-.49-.52-.75-.52-1.27Zm3.6,15.96h-3.4v-12.68h3.4v12.68Z" stroke-width="0"/><path d="m264.1,72.71c0-1.26.24-2.38.73-3.36s1.18-1.75,2.09-2.29,1.97-.81,3.17-.81c1.71,0,3.11.52,4.19,1.57s1.69,2.47,1.81,4.27l.02.87c0,1.95-.54,3.51-1.63,4.68s-2.54,1.76-4.37,1.76-3.29-.59-4.38-1.76-1.63-2.77-1.63-4.78v-.15Zm3.39.24c0,1.21.23,2.13.68,2.76s1.1.96,1.95.96,1.46-.31,1.92-.94.69-1.64.69-3.02c0-1.18-.23-2.1-.69-2.75s-1.11-.97-1.95-.97-1.47.32-1.92.97-.68,1.65-.68,3Z" stroke-width="0"/><path d="m281.32,66.48l.11,1.46c.91-1.13,2.12-1.7,3.64-1.7,1.34,0,2.34.39,3,1.18s.99,1.97,1.01,3.54v8.19h-3.39v-8.11c0-.72-.16-1.24-.47-1.56s-.83-.49-1.56-.49c-.95,0-1.67.41-2.14,1.22v8.94h-3.39v-12.68h3.19Z" stroke-width="0"/><path d="m298.99,79.16c-.16-.3-.27-.68-.34-1.14-.82.91-1.89,1.37-3.2,1.37-1.24,0-2.27-.36-3.09-1.08s-1.22-1.62-1.22-2.72c0-1.34.5-2.38,1.49-3.09s2.44-1.08,4.32-1.09h1.56v-.73c0-.59-.15-1.05-.45-1.41s-.78-.53-1.42-.53c-.57,0-1.02.14-1.34.41s-.49.65-.49,1.12h-3.39c0-.73.23-1.41.68-2.04s1.09-1.12,1.92-1.47,1.76-.53,2.79-.53c1.56,0,2.8.39,3.72,1.18s1.38,1.89,1.38,3.31v5.5c0,1.2.18,2.11.5,2.73v.2h-3.42Zm-2.8-2.36c.5,0,.96-.11,1.38-.33s.73-.52.94-.9v-2.18h-1.27c-1.7,0-2.6.59-2.71,1.76v.2c-.01.42.14.77.43,1.04s.7.41,1.22.41Z" stroke-width="0"/><path d="m308.08,79.16h-3.4v-18h3.4v18Z" stroke-width="0"/><path d="m322.12,76.67c.62,0,1.13-.17,1.52-.52s.59-.8.61-1.37h3.18c0,.86-.24,1.65-.7,2.36s-1.09,1.27-1.89,1.66-1.69.59-2.65.59c-1.81,0-3.24-.58-4.29-1.73s-1.57-2.74-1.57-4.78v-.22c0-1.95.52-3.51,1.56-4.68s2.46-1.75,4.28-1.75c1.59,0,2.86.45,3.81,1.35s1.44,2.1,1.46,3.6h-3.18c-.02-.66-.22-1.2-.61-1.61-.39-.41-.91-.62-1.55-.62-.79,0-1.38.29-1.79.86-.4.57-.6,1.51-.6,2.8v.35c0,1.31.2,2.25.6,2.82.4.57,1,.86,1.82.86Z" stroke-width="0"/><path d="m336.96,77.88c-.84,1.02-1.99,1.52-3.47,1.52-1.36,0-2.4-.39-3.11-1.17s-1.08-1.93-1.1-3.43v-8.31h3.39v8.2c0,1.32.6,1.98,1.8,1.98s1.94-.4,2.37-1.2v-8.99h3.4v12.68h-3.19l-.09-1.29Z" stroke-width="0"/><path d="m349.92,69.66c-.46-.06-.87-.09-1.22-.09-1.28,0-2.12.43-2.52,1.3v8.3h-3.39v-12.68h3.2l.09,1.51c.68-1.16,1.62-1.75,2.82-1.75.38,0,.73.05,1.05.15l-.05,3.26Z" stroke-width="0"/><path d="m358.67,69.66c-.46-.06-.87-.09-1.22-.09-1.28,0-2.12.43-2.52,1.3v8.3h-3.39v-12.68h3.2l.09,1.51c.68-1.16,1.62-1.75,2.82-1.75.38,0,.73.05,1.05.15l-.05,3.26Z" stroke-width="0"/><path d="m365.92,79.4c-1.86,0-3.37-.57-4.54-1.71s-1.75-2.66-1.75-4.56v-.33c0-1.27.25-2.41.74-3.42s1.19-1.78,2.09-2.32,1.93-.81,3.09-.81c1.73,0,3.1.55,4.1,1.64s1.49,2.64,1.49,4.65v1.38h-8.07c.11.83.44,1.49.99,1.99s1.25.75,2.09.75c1.3,0,2.32-.47,3.06-1.42l1.66,1.86c-.51.72-1.2,1.28-2.06,1.68s-1.83.6-2.88.6Zm-.39-10.42c-.67,0-1.22.23-1.63.68-.42.46-.69,1.11-.8,1.95h4.71v-.27c-.02-.75-.22-1.34-.61-1.75-.39-.41-.95-.62-1.66-.62Z" stroke-width="0"/><path d="m376.17,66.48l.11,1.46c.91-1.13,2.12-1.7,3.64-1.7,1.34,0,2.34.39,3,1.18s.99,1.97,1.01,3.54v8.19h-3.39v-8.11c0-.72-.16-1.24-.47-1.56s-.83-.49-1.56-.49c-.95,0-1.67.41-2.14,1.22v8.94h-3.39v-12.68h3.19Z" stroke-width="0"/><path d="m390.55,63.37v3.12h2.17v2.48h-2.17v6.33c0,.47.09.8.27,1.01s.52.3,1.03.3c.38,0,.71-.03,1-.08v2.57c-.66.2-1.35.3-2.05.3-2.38,0-3.59-1.2-3.63-3.6v-6.83h-1.85v-2.48h1.85v-3.12h3.39Z" stroke-width="0"/><path d="m229.54,397.1v-17.06h4.82c1.48,0,2.8.33,3.94.98s2.02,1.59,2.64,2.8.94,2.6.94,4.17v1.09c0,1.61-.31,3.02-.93,4.23s-1.51,2.14-2.66,2.79-2.49.98-4.03,1h-4.72Zm2.25-15.22v13.38h2.37c1.73,0,3.08-.54,4.05-1.62s1.45-2.62,1.45-4.61v-1c0-1.94-.46-3.45-1.37-4.52s-2.2-1.62-3.87-1.64h-2.62Z" stroke-width="0"/><path d="m244.95,381.06c0-.35.11-.65.32-.89s.53-.36.96-.36.74.12.96.36.33.54.33.89-.11.64-.33.88-.54.35-.96.35-.74-.12-.96-.35-.32-.53-.32-.88Zm2.34,16.04h-2.17v-12.68h2.17v12.68Z" stroke-width="0"/><path d="m256.89,386.37c-.33-.05-.68-.08-1.07-.08-1.42,0-2.39.61-2.89,1.82v9h-2.17v-12.68h2.11l.04,1.46c.71-1.13,1.72-1.7,3.02-1.7.42,0,.74.05.96.16v2.02Z" stroke-width="0"/><path d="m263.93,397.34c-1.72,0-3.12-.56-4.2-1.69s-1.62-2.64-1.62-4.53v-.4c0-1.26.24-2.38.72-3.37s1.15-1.76,2.02-2.32,1.8-.84,2.81-.84c1.65,0,2.93.54,3.84,1.63s1.37,2.64,1.37,4.66v.9h-8.59c.03,1.25.4,2.26,1.1,3.03s1.59,1.15,2.67,1.15c.77,0,1.41-.16,1.95-.47s1-.73,1.39-1.24l1.32,1.03c-1.06,1.63-2.66,2.45-4.78,2.45Zm-.27-11.37c-.88,0-1.61.32-2.2.96s-.96,1.53-1.1,2.68h6.35v-.16c-.06-1.1-.36-1.96-.89-2.56s-1.25-.91-2.16-.91Z" stroke-width="0"/><path d="m276.46,395.57c.77,0,1.45-.23,2.03-.7s.9-1.05.96-1.76h2.05c-.04.73-.29,1.42-.75,2.07s-1.08,1.18-1.85,1.57-1.58.59-2.44.59c-1.73,0-3.1-.58-4.12-1.73s-1.53-2.73-1.53-4.73v-.36c0-1.23.23-2.33.68-3.29s1.1-1.71,1.95-2.24,1.85-.8,3.01-.8c1.42,0,2.6.43,3.54,1.28s1.44,1.96,1.51,3.32h-2.05c-.06-.82-.37-1.49-.93-2.02s-1.25-.79-2.07-.79c-1.1,0-1.96.4-2.56,1.19s-.91,1.94-.91,3.44v.41c0,1.46.3,2.59.9,3.38s1.46,1.18,2.58,1.18Z" stroke-width="0"/><path d="m286.88,381.35v3.07h2.37v1.68h-2.37v7.87c0,.51.11.89.32,1.14s.57.38,1.08.38c.25,0,.59-.05,1.03-.14v1.75c-.57.16-1.12.23-1.66.23-.97,0-1.7-.29-2.19-.88s-.74-1.42-.74-2.5v-7.86h-2.31v-1.68h2.31v-3.07h2.17Z" stroke-width="0"/><path d="m291.79,381.06c0-.35.11-.65.32-.89s.53-.36.96-.36.74.12.96.36.33.54.33.89-.11.64-.33.88-.54.35-.96.35-.74-.12-.96-.35-.32-.53-.32-.88Zm2.34,16.04h-2.17v-12.68h2.17v12.68Z" stroke-width="0"/><path d="m297.03,390.64c0-1.24.24-2.36.73-3.35s1.17-1.76,2.04-2.3,1.87-.81,2.98-.81c1.73,0,3.12.6,4.19,1.79s1.6,2.79,1.6,4.77v.15c0,1.23-.24,2.34-.71,3.32s-1.15,1.74-2.03,2.29-1.89.82-3.03.82c-1.72,0-3.11-.6-4.18-1.79s-1.6-2.78-1.6-4.75v-.15Zm2.18.26c0,1.41.33,2.54.98,3.39s1.53,1.28,2.62,1.28,1.98-.43,2.62-1.29.97-2.07.97-3.63c0-1.39-.33-2.52-.99-3.38s-1.54-1.29-2.63-1.29-1.93.43-2.59,1.28-.98,2.07-.98,3.66Z" stroke-width="0"/><path d="m313.34,384.42l.07,1.59c.97-1.22,2.23-1.83,3.8-1.83,2.68,0,4.03,1.51,4.05,4.54v8.38h-2.17v-8.39c0-.91-.22-1.59-.63-2.03s-1.05-.66-1.92-.66c-.7,0-1.32.19-1.85.56s-.95.87-1.24,1.48v9.04h-2.17v-12.68h2.05Z" stroke-width="0"/><path d="m329.9,390.64c0-1.24.24-2.36.73-3.35s1.17-1.76,2.04-2.3,1.87-.81,2.98-.81c1.73,0,3.12.6,4.19,1.79s1.6,2.79,1.6,4.77v.15c0,1.23-.24,2.34-.71,3.32s-1.15,1.74-2.03,2.29-1.89.82-3.03.82c-1.72,0-3.11-.6-4.18-1.79s-1.6-2.78-1.6-4.75v-.15Zm2.18.26c0,1.41.33,2.54.98,3.39s1.53,1.28,2.62,1.28,1.98-.43,2.62-1.29.97-2.07.97-3.63c0-1.39-.33-2.52-.99-3.38s-1.54-1.29-2.63-1.29-1.93.43-2.59,1.28-.98,2.07-.98,3.66Z" stroke-width="0"/><path d="m345.23,397.1v-11h-2v-1.68h2v-1.3c0-1.36.36-2.41,1.09-3.15s1.75-1.11,3.08-1.11c.5,0,1,.07,1.49.2l-.12,1.75c-.37-.07-.76-.11-1.17-.11-.7,0-1.25.21-1.63.62-.38.41-.57,1-.57,1.77v1.34h2.71v1.68h-2.71v11h-2.17Z" stroke-width="0"/><path d="m226.13,426.14c-1.86,0-3.37-.57-4.54-1.71s-1.75-2.66-1.75-4.56v-.33c0-1.27.25-2.41.74-3.42s1.19-1.78,2.09-2.32,1.93-.81,3.09-.81c1.73,0,3.1.55,4.1,1.64s1.49,2.64,1.49,4.65v1.38h-8.07c.11.83.44,1.49.99,1.99s1.25.75,2.09.75c1.3,0,2.32-.47,3.06-1.42l1.66,1.86c-.51.72-1.2,1.28-2.06,1.68s-1.83.6-2.88.6Zm-.39-10.42c-.67,0-1.22.23-1.63.68-.42.46-.69,1.11-.8,1.95h4.71v-.27c-.02-.75-.22-1.34-.61-1.75s-.95-.62-1.66-.62Z" stroke-width="0"/><path d="m236.84,425.9h-3.4v-18h3.4v18Z" stroke-width="0"/><path d="m245.47,426.14c-1.86,0-3.37-.57-4.54-1.71s-1.75-2.66-1.75-4.56v-.33c0-1.27.25-2.41.74-3.42s1.19-1.78,2.09-2.32,1.93-.81,3.09-.81c1.73,0,3.1.55,4.1,1.64s1.49,2.64,1.49,4.65v1.38h-8.07c.11.83.44,1.49.99,1.99s1.25.75,2.09.75c1.3,0,2.32-.47,3.06-1.42l1.66,1.86c-.51.72-1.2,1.28-2.06,1.68s-1.83.6-2.88.6Zm-.39-10.42c-.67,0-1.22.23-1.63.68-.42.46-.69,1.11-.8,1.95h4.71v-.27c-.02-.75-.22-1.34-.61-1.75s-.95-.62-1.66-.62Z" stroke-width="0"/><path d="m257.88,423.41c.62,0,1.13-.17,1.52-.52s.59-.8.61-1.37h3.18c0,.86-.24,1.65-.7,2.36s-1.09,1.27-1.89,1.66-1.69.59-2.65.59c-1.81,0-3.24-.58-4.29-1.73s-1.57-2.74-1.57-4.78v-.22c0-1.95.52-3.51,1.56-4.68s2.46-1.75,4.28-1.75c1.59,0,2.86.45,3.81,1.35s1.44,2.1,1.46,3.6h-3.18c-.02-.66-.22-1.2-.61-1.61-.39-.41-.91-.62-1.55-.62-.79,0-1.38.29-1.79.86-.4.57-.6,1.51-.6,2.8v.35c0,1.31.2,2.25.6,2.82s1,.86,1.82.86Z" stroke-width="0"/><path d="m269.18,410.1v3.12h2.17v2.48h-2.17v6.33c0,.47.09.8.27,1.01s.52.3,1.03.3c.38,0,.71-.03,1-.08v2.57c-.66.2-1.35.3-2.05.3-2.38,0-3.59-1.2-3.63-3.6v-6.83h-1.85v-2.48h1.85v-3.12h3.39Z" stroke-width="0"/><path d="m280.36,416.4c-.46-.06-.87-.09-1.22-.09-1.28,0-2.12.43-2.52,1.3v8.3h-3.39v-12.68h3.2l.09,1.51c.68-1.16,1.62-1.75,2.82-1.75.38,0,.73.05,1.05.15l-.05,3.26Z" stroke-width="0"/><path d="m281.04,419.44c0-1.26.24-2.38.73-3.36s1.18-1.75,2.09-2.29,1.97-.81,3.17-.81c1.71,0,3.11.52,4.19,1.57s1.69,2.47,1.81,4.27l.02.87c0,1.95-.54,3.51-1.63,4.68s-2.54,1.76-4.37,1.76-3.29-.59-4.38-1.76-1.63-2.77-1.63-4.78v-.15Zm3.39.24c0,1.21.23,2.13.68,2.76s1.1.96,1.95.96,1.46-.31,1.92-.94.69-1.64.69-3.02c0-1.18-.23-2.1-.69-2.75s-1.11-.97-1.95-.97-1.47.32-1.92.97-.68,1.64-.68,3Z" stroke-width="0"/><path d="m298.25,413.22l.11,1.46c.91-1.13,2.12-1.7,3.64-1.7,1.34,0,2.34.39,3,1.18s.99,1.97,1.01,3.54v8.19h-3.39v-8.11c0-.72-.16-1.24-.47-1.56s-.83-.49-1.56-.49c-.95,0-1.67.41-2.14,1.22v8.94h-3.39v-12.68h3.19Z" stroke-width="0"/><path d="m315.48,425.9v-10.2h-1.89v-2.48h1.89v-1.08c0-1.42.41-2.53,1.22-3.31s1.96-1.18,3.43-1.18c.47,0,1.04.08,1.72.23l-.04,2.62c-.28-.07-.62-.11-1.03-.11-1.27,0-1.91.6-1.91,1.79v1.02h2.52v2.48h-2.52v10.2h-3.4Z" stroke-width="0"/><path d="m326.73,425.9h-3.4v-18h3.4v18Z" stroke-width="0"/><path d="m328.99,419.44c0-1.26.24-2.38.73-3.36s1.18-1.75,2.09-2.29,1.97-.81,3.17-.81c1.71,0,3.11.52,4.19,1.57s1.69,2.47,1.81,4.27l.02.87c0,1.95-.54,3.51-1.63,4.68s-2.54,1.76-4.37,1.76-3.29-.59-4.38-1.76-1.63-2.77-1.63-4.78v-.15Zm3.39.24c0,1.21.23,2.13.68,2.76s1.1.96,1.95.96,1.46-.31,1.92-.94.69-1.64.69-3.02c0-1.18-.23-2.1-.69-2.75s-1.11-.97-1.95-.97-1.47.32-1.92.97-.68,1.64-.68,3Z" stroke-width="0"/><path d="m354.11,421.3l1.66-8.07h3.27l-3.23,12.68h-2.84l-2.4-7.98-2.4,7.98h-2.82l-3.23-12.68h3.27l1.65,8.06,2.32-8.06h2.45l2.31,8.07Z" stroke-width="0"/><circle cx="412.94" cy="287.41" r="36.83" fill="none" stroke="#000" stroke-linecap="round" stroke-miterlimit="10" stroke-width="2"/><path d="m398.34,252.92v18.46s22.33-14.23,33.96-1.2c13.81,15.46-22.49,29.79-22.8,17.68-.35-13.82,38.39-.33,23.73,16.05-11.86,13.26-34.89-.1-34.89-.1v18.73" fill="none" stroke="#000" stroke-linecap="round" stroke-linejoin="round" stroke-width="2"/></g></svg>