<?xml version="1.0" encoding="UTF-8"?><svg id="a" xmlns="http://www.w3.org/2000/svg" width="1140" height="350" viewBox="0 0 1140 350"><path d="m1138.278,188.643c-9.726,181.76-349.742,157.815-615.857,157.815S41.763,334.898,9.688,229.268C-40.274,64.732,144.076-9.092,408.104,18.448c175.865,18.344,344.657-28.468,502.658-12.612,133.797,13.428,233.071,79.008,227.516,182.806Z" fill="#f4e4dc"/><path d="m563.174,191.514c9.271,179.512-172.15,156.486-303.138,156.486S3.516,332.918,3.516,223.419,95.107,18.694,225.642,7.162c51.591-4.558,325.356-51.394,337.532,184.352Z" fill="none"/><rect x="371.765" y="27.29" width="102.406" height="295.42" transform="translate(597.986 -247.961) rotate(90.002)" fill="#d12d32"/><rect x="665.828" y="27.29" width="102.406" height="295.42" transform="translate(892.062 -542.024) rotate(90.002)" fill="#969696"/><circle cx="211.705" cy="175" r="30" fill="#fff5f5" stroke="#d12d32" stroke-miterlimit="10" stroke-width="2"/><circle cx="928.674" cy="175" r="30" fill="#fff5f5" stroke="#d12d32" stroke-miterlimit="10" stroke-width="2"/><path d="m209.597,179.917c.019-1.083.142-1.938.369-2.566s.692-1.324,1.395-2.089l1.791-1.843c.766-.864,1.148-1.792,1.148-2.783,0-.955-.251-1.702-.752-2.244-.501-.541-1.23-.812-2.188-.812-.93,0-1.677.246-2.242.738s-.848,1.153-.848,1.982h-2.529c.019-1.477.545-2.668,1.579-3.575s2.381-1.36,4.04-1.36c1.723,0,3.064.462,4.026,1.386s1.442,2.19,1.442,3.802c0,1.592-.738,3.162-2.215,4.709l-1.49,1.475c-.665.737-.998,1.797-.998,3.181h-2.529Zm-.109,4.343c0-.414.125-.761.376-1.042.251-.28.622-.421,1.114-.421s.866.141,1.121.421c.255.281.383.628.383,1.042s-.128.757-.383,1.028-.629.407-1.121.407-.863-.136-1.114-.407-.376-.614-.376-1.028Z"/><path d="m926.944,179.917c.018-1.083.141-1.938.369-2.566.228-.628.692-1.324,1.395-2.089l1.791-1.843c.766-.864,1.148-1.792,1.148-2.783,0-.955-.251-1.702-.752-2.244-.502-.541-1.23-.812-2.188-.812-.93,0-1.678.246-2.242.738-.565.492-.848,1.153-.848,1.982h-2.529c.018-1.477.544-2.668,1.579-3.575,1.034-.907,2.381-1.36,4.04-1.36,1.723,0,3.064.462,4.026,1.386.961.924,1.442,2.19,1.442,3.802,0,1.592-.738,3.162-2.215,4.709l-1.49,1.475c-.666.737-.998,1.797-.998,3.181h-2.529Zm-.109,4.343c0-.414.125-.761.376-1.042.25-.28.622-.421,1.114-.421s.865.141,1.121.421c.255.281.383.628.383,1.042s-.128.757-.383,1.028c-.256.271-.629.407-1.121.407s-.864-.136-1.114-.407c-.251-.271-.376-.614-.376-1.028Z"/><circle cx="570" cy="60.558" r="30" fill="#fff5f5" stroke="#d12d32" stroke-miterlimit="10" stroke-width="2"/><circle cx="570" cy="289.442" r="30" fill="#fff5f5" stroke="#d12d32" stroke-miterlimit="10" stroke-width="2"/><path d="m568.271,294.463c.018-1.083.141-1.938.369-2.566.228-.628.692-1.324,1.395-2.089l1.791-1.843c.766-.864,1.148-1.792,1.148-2.783,0-.955-.251-1.702-.752-2.244-.501-.541-1.23-.812-2.188-.812-.93,0-1.677.246-2.242.738-.565.492-.848,1.153-.848,1.982h-2.529c.018-1.477.544-2.668,1.579-3.575,1.034-.907,2.381-1.36,4.04-1.36,1.723,0,3.064.462,4.026,1.386s1.442,2.19,1.442,3.802c0,1.592-.738,3.162-2.215,4.709l-1.49,1.475c-.665.737-.998,1.797-.998,3.181h-2.529Zm-.109,4.343c0-.414.125-.761.376-1.042.25-.28.622-.421,1.114-.421s.866.141,1.121.421c.255.281.383.628.383,1.042s-.128.757-.383,1.028c-.255.271-.629.407-1.121.407s-.864-.136-1.114-.407c-.251-.271-.376-.614-.376-1.028Z"/><path d="m568.271,65.053c.018-1.083.141-1.938.369-2.566.228-.628.692-1.324,1.395-2.089l1.791-1.843c.766-.864,1.148-1.792,1.148-2.783,0-.955-.251-1.702-.752-2.244-.501-.541-1.23-.812-2.188-.812-.93,0-1.677.246-2.242.738-.565.492-.848,1.153-.848,1.982h-2.529c.018-1.477.544-2.668,1.579-3.575,1.034-.907,2.381-1.36,4.04-1.36,1.723,0,3.064.462,4.026,1.386s1.442,2.19,1.442,3.802c0,1.592-.738,3.162-2.215,4.709l-1.49,1.475c-.665.737-.998,1.797-.998,3.181h-2.529Zm-.109,4.343c0-.414.125-.761.376-1.042.25-.28.622-.421,1.114-.421s.866.141,1.121.421c.255.281.383.628.383,1.042s-.128.757-.383,1.028c-.255.271-.629.407-1.121.407s-.864-.136-1.114-.407c-.251-.271-.376-.614-.376-1.028Z"/><rect x="789.411" y="144.305" width="59.874" height="61.389" rx="29.937" ry="29.937" fill="#fff" stroke="#000" stroke-miterlimit="10" stroke-width="2"/><circle cx="318.705" cy="175" r="30" fill="#fff" stroke="#000" stroke-miterlimit="10" stroke-width="2"/><path d="m821.809,179.959c0-.774-.273-1.369-.82-1.784s-1.531-.853-2.953-1.312-2.548-.914-3.377-1.36c-2.261-1.222-3.391-2.866-3.391-4.936,0-1.075.303-2.035.909-2.878.605-.843,1.477-1.502,2.611-1.976s2.408-.711,3.821-.711c1.422,0,2.688.258,3.801.772,1.111.515,1.976,1.242,2.591,2.181s.923,2.005.923,3.199h-4.102c0-.911-.287-1.62-.861-2.126s-1.381-.759-2.42-.759c-1.003,0-1.782.212-2.338.636-.557.424-.834.982-.834,1.675,0,.647.325,1.189.978,1.627.651.438,1.61.848,2.878,1.23,2.333.702,4.033,1.572,5.1,2.611s1.6,2.333,1.6,3.883c0,1.723-.652,3.074-1.955,4.054-1.304.979-3.059,1.47-5.264,1.47-1.531,0-2.926-.28-4.184-.841s-2.218-1.328-2.878-2.304c-.661-.976-.991-2.105-.991-3.391h4.115c0,2.196,1.312,3.295,3.938,3.295.975,0,1.736-.198,2.283-.595s.82-.95.82-1.661Z"/><path d="m326.501,185.181h-4.102l-7.984-13.098v13.098h-4.102v-19.906h4.102l7.998,13.125v-13.125h4.088v19.906Z"/></svg>