<?xml version="1.0" encoding="UTF-8"?>
<svg id="Layer_1" data-name="Layer 1" xmlns="http://www.w3.org/2000/svg" width="570" height="395" viewBox="0 0 570 395">
  <defs>
    <style>
      .cls-1 {
        fill: #fcdbd2;
      }

      .cls-2 {
        fill: #969696;
      }

      .cls-3 {
        fill: #d12d32;
      }

      .cls-4 {
        fill: #631c1c;
      }

      .cls-5 {
        fill: #605858;
      }

      .cls-6 {
        fill: #fff;
        stroke: #000;
        stroke-miterlimit: 10;
        stroke-width: 2px;
      }
    </style>
  </defs>
  <path class="cls-1" d="m1.93,181.87C6.79-25.08,175.66,2.19,308.61,2.19s243.1,4.31,255.66,150.91c16.16,188.67-25.85,251.86-198.55,235.03-89.32-8.71-171.27,12.93-251.13,1.87C16.15,376.37-.84,300.05,1.93,181.87Z"/>
  <g>
    <path class="cls-2" d="m343.65,344.44c0,1.64.69,3.21,1.9,4.32l9.21,8.45c1.68,1.54,3.88,2.39,6.15,2.39h45.68c3.63,0,6.58-2.95,6.58-6.58V52.53c0-5.03-2-9.86-5.56-13.41l-4.54-4.54c-1.62-1.62-3.82-2.54-6.12-2.54h-117.87s-.05,69.36-.05,69.36h64.84s-.22,243.03-.22,243.03Z"/>
    <g>
      <path class="cls-3" d="m156.83,344.44c0,1.64.69,3.21,1.9,4.32l9.21,8.45c1.68,1.54,3.88,2.39,6.15,2.39h45.68c3.63,0,6.58-2.95,6.58-6.58V101.4h61.67s-8.3-12.75-8.3-12.75v-56.61s-113.14,0-113.14,0c-5.26,0-9.53,4.26-9.53,9.53l-.22,302.87Z"/>
      <path class="cls-4" d="m158.57,347.03c16.13-.48,32.62-.71,48.78-.79,1.41-.01,2.98.13,4.19-.73,1.13-.72,1.87-1.98,1.99-3.29,0,0-.03-19.42-.03-19.42-.29-72.7-.35-161.46-.27-234.16,0,0,0-1.01,0-1.01,0,0,1.01,0,1.01,0,14.58.1,34.53.18,49.11.47,53.21.89-41.61,1.55-49.11,1.54,0,0,1-1.01,1-1.01l.23,78.05c.22,51.13.1,119.18.1,170.74,0,0,0,2.44,0,2.44v1.22c.34,3.99-2.95,7.37-6.99,7.02-16.57-.11-33.45-.28-50-.8-.18,0-.18-.3,0-.29h0Z"/>
      <path class="cls-4" d="m224.3,357.57c-1.63-.29-2.43-1.36-3.42-2.25-.97-.91-1.92-1.85-2.83-2.81-.91-.97-1.78-1.97-2.64-2.99-.86-1.02-1.82-1.94-2.07-3.53-.02-.12.09-.23.21-.2,1.58.34,2.44,1.35,3.41,2.26.97.91,1.92,1.84,2.84,2.8.91.97,1.79,1.96,2.65,2.98.84,1.04,1.86,1.9,2.06,3.54.02.12-.1.22-.21.2h0Z"/>
      <path class="cls-4" d="m226.25,101.5c-1.73-.38-2.62-1.55-3.71-2.54-1.07-1.01-2.11-2.04-3.12-3.1-1.01-1.06-1.98-2.17-2.93-3.28-.95-1.12-2.01-2.13-2.36-3.83-.03-.12.09-.24.21-.2,1.67.43,2.63,1.54,3.7,2.55,1.06,1.01,2.12,2.03,3.13,3.1,1.01,1.06,1.99,2.16,2.94,3.27.93,1.13,2.06,2.09,2.35,3.83.02.12-.09.23-.21.2h0Z"/>
    </g>
    <path class="cls-5" d="m345.39,347.03c17.1-.7,34.31-.62,51.39-.93,2.19-.38,3.75-2.48,3.57-4.7,0-.45,0-3.07,0-3.58.16-95.72-1.42-208.58.72-303.87,2.32,95.21.99,208.22,1.35,303.87,0,0,0,2.87,0,2.87v.72c.21,3.14-2.14,6.19-5.27,6.68-1.95.23-4.03.04-5.9.07-15.28-.12-30.56-.25-45.85-.83-.18,0-.18-.29,0-.29h0Z"/>
    <path class="cls-5" d="m411.12,357.57c-1.63-.29-2.43-1.36-3.42-2.25-.97-.91-1.92-1.85-2.83-2.81-.91-.97-1.78-1.97-2.64-2.99-.86-1.02-1.82-1.94-2.07-3.53-.02-.12.09-.23.21-.2,1.58.34,2.44,1.35,3.41,2.26.97.91,1.92,1.84,2.84,2.8.91.97,1.79,1.96,2.65,2.98.84,1.04,1.86,1.9,2.06,3.54.02.12-.1.22-.21.2h0Z"/>
    <path class="cls-6" d="m391.54,320.35c0,10.71-8.69,19.4-19.4,19.4s-19.4-8.69-19.4-19.4,8.69-19.4,19.4-19.4,19.4,8.69,19.4,19.4Z"/>
    <path d="m375.15,324.55c0-.66-.23-1.17-.7-1.53s-1.31-.73-2.53-1.12-2.18-.78-2.89-1.17c-1.94-1.05-2.91-2.46-2.91-4.23,0-.92.26-1.74.78-2.47s1.27-1.29,2.24-1.69,2.06-.61,3.28-.61,2.3.22,3.26.66,1.69,1.06,2.22,1.87.79,1.72.79,2.74h-3.52c0-.78-.25-1.39-.74-1.82s-1.18-.65-2.07-.65-1.53.18-2,.54-.71.84-.71,1.44c0,.55.28,1.02.84,1.39s1.38.73,2.47,1.05c2,.6,3.46,1.35,4.37,2.24s1.37,2,1.37,3.33c0,1.48-.56,2.63-1.68,3.47s-2.62,1.26-4.51,1.26c-1.31,0-2.51-.24-3.59-.72s-1.9-1.14-2.47-1.97-.85-1.8-.85-2.91h3.53c0,1.88,1.12,2.82,3.38,2.82.84,0,1.49-.17,1.96-.51s.7-.81.7-1.42Z"/>
    <path class="cls-5" d="m343.73,101.4c-.77-4.21-.84-8.49-.89-12.75,0,0,1.04,1.04,1.04,1.04-5.43.05-10.86.13-16.29.14-10.86.07-21.73-.02-32.59-.15-5.43-.05-10.86-.16-16.29-.88-.16-.01-.17-.28,0-.29,5.43-.72,10.86-.84,16.29-.88,10.86-.12,21.73-.22,32.59-.15,5.78,0,11.56.1,17.35.15-.06,4.6-.07,9.23-.9,13.78-.03.16-.27.16-.29,0h0Z"/>
    <path class="cls-6" d="m205.13,320.35c0,10.71-8.69,19.4-19.4,19.4s-19.4-8.69-19.4-19.4,8.69-19.4,19.4-19.4,19.4,8.69,19.4,19.4Z"/>
    <path d="m192.67,329.03h-3.52l-6.84-11.23v11.23h-3.52v-17.06h3.52l6.86,11.25v-11.25h3.5v17.06Z"/>
  </g>
  <g>
    <circle class="cls-2" cx="285" cy="205.73" r="24.31"/>
    <path class="cls-5" d="m305.32,204.34c.95,2.87.24,5.92-.79,8.67-2.85,7.56-10.53,13.55-18.74,13.45-2.89-.38-3.11-.6-.13-1.32,8.09-1.71,14.95-6.83,17.6-14.84.62-2,1.02-3.98,1.77-5.98.05-.13.25-.12.29.01h0Z"/>
    <g>
      <path class="cls-5" d="m272.33,193.42c2.91.81,4.6,2.83,6.56,4.58,1.94,1.77,3.84,3.58,5.7,5.44,1.86,1.86,3.65,3.77,5.43,5.71,1.84,2.01,3.74,3.81,4.59,6.55.06.18-.13.38-.31.31-2.74-.85-4.55-2.75-6.55-4.59-1.94-1.78-3.86-3.57-5.71-5.43-1.86-1.86-3.67-3.76-5.44-5.7-1.75-1.97-3.77-3.66-4.58-6.56-.06-.18.13-.37.31-.31h0Z"/>
      <path class="cls-5" d="m294.61,193.74c-.81,2.91-2.83,4.6-4.58,6.56-1.77,1.94-3.58,3.84-5.44,5.7-1.86,1.86-3.77,3.65-5.71,5.43-2.01,1.84-3.81,3.74-6.55,4.59-.18.06-.38-.13-.31-.31.85-2.74,2.75-4.55,4.59-6.55,1.78-1.94,3.57-3.86,5.43-5.71,1.86-1.86,3.76-3.67,5.7-5.44,1.97-1.75,3.66-3.77,6.56-4.58.18-.06.37.13.31.31h0Z"/>
    </g>
  </g>
</svg>