<?xml version="1.0" encoding="UTF-8"?>
<svg id="a" data-name="Layer 1" xmlns="http://www.w3.org/2000/svg" width="1140" height="566" viewBox="0 0 1140 566">
  <path d="m193.567,15.233C53.08,30.239,33.307,91.52,11.96,205.496c-7.179,38.33-5.103,77.498-2.293,116.268,2.504,34.54,5.649,69.403,17.38,102.431,10.572,29.765,20.528,56.434,47.56,77.767,25.561,20.173,57.711,33.57,90.826,41.21,103.78,23.941,212.625,12.922,318.402,10.538,118.335-2.668,236.776-1.257,354.986,4.181,55.345,2.546,155.916,1.224,203.086-24.441,70.487-38.352,83.551-122.93,90.338-189.385,5.941-58.164.785-117.142-11.624-174.238-20.137-92.65-80.611-131.063-175.125-149.138-102.468-19.596-233.581-15.061-337.71-12.496C497.195,10.917,334.053.228,193.567,15.233Z" fill="#e3e2f0" stroke-width="0"/>
  <g>
    <line x1="170.047" y1="263.081" x2="170.047" y2="224.449" fill="#fff" stroke="#000" stroke-linejoin="round" stroke-width="2"/>
    <g>
      <line x1="128.047" y1="291.741" x2="212.047" y2="291.741" fill="#fff" stroke="#000" stroke-linejoin="round" stroke-width="2"/>
      <line x1="146.527" y1="305.753" x2="193.567" y2="305.753" fill="#fff" stroke="#000" stroke-linejoin="round" stroke-width="2"/>
    </g>
    <g>
      <line x1="128.047" y1="263.719" x2="212.047" y2="263.719" fill="#fff" stroke="#000" stroke-linejoin="round" stroke-width="2"/>
      <line x1="146.527" y1="277.73" x2="193.567" y2="277.73" fill="#fff" stroke="#000" stroke-linejoin="round" stroke-width="2"/>
    </g>
  </g>
  <g>
    <path d="m565.896,45.248h-7.444l.162-.81c.665,0,1.178-.054,1.537-.162.36-.108.634-.341.823-.702.188-.36.354-.918.499-1.674l2.373-11.583c.108-.503.135-.9.081-1.188-.054-.288-.238-.495-.553-.621-.314-.125-.832-.189-1.551-.189l.162-.81h6.338c1.259,0,2.333.13,3.223.391.891.261,1.573.662,2.05,1.202s.715,1.251.715,2.133c0,.955-.18,1.755-.539,2.403-.36.648-.827,1.179-1.402,1.593-.576.415-1.191.734-1.848.958-.656.226-1.281.392-1.875.5v.135c.324.216.63.544.917.985.288.441.644,1.076,1.065,1.903.423.828,1.003,1.944,1.74,3.348.306.54.643.904,1.012,1.094.368.189.858.283,1.47.283l-.162.81h-4.1c-.504-1.116-.927-2.047-1.268-2.794-.342-.747-.639-1.373-.891-1.876s-.472-.954-.66-1.35c-.189-.396-.392-.801-.607-1.215-.197-.378-.413-.625-.646-.743-.234-.117-.594-.175-1.079-.175h-.81l.189-.999,1.078.027c1.079-.036,2.055-.211,2.927-.526s1.56-.814,2.063-1.499c.503-.684.755-1.602.755-2.754,0-.486-.104-.94-.311-1.364-.206-.423-.562-.765-1.064-1.026-.504-.261-1.205-.392-2.104-.392-.342,0-.616.005-.822.014-.207.009-.463.032-.769.067l-2.697,13.257c-.145.738-.193,1.292-.148,1.661.045.369.247.607.606.715.359.108.926.162,1.699.162l-.135.81Z" stroke-width="0"/>
    <path d="m581.251,50.239h-5.017l.095-.441c.492,0,.875-.034,1.147-.102s.472-.178.598-.331c.126-.152.215-.359.268-.622l1.415-6.658c.021-.084.037-.157.047-.22.011-.063.017-.121.017-.173,0-.252-.137-.378-.409-.378-.105,0-.236.011-.394.032s-.325.05-.503.086c-.179.037-.356.082-.534.134l.109-.52,3.004-.866h.456l-1.824,8.563c-.011.053-.019.105-.023.158-.006.053-.008.105-.008.157,0,.263.123.451.369.567.246.115.674.173,1.281.173l-.094.441Z" stroke-width="0"/>
  </g>
  <g>
    <path d="m1016.273,295.932h-7.444l.162-.81c.665,0,1.178-.054,1.537-.162.36-.108.634-.341.823-.702.188-.36.354-.918.499-1.674l2.373-11.583c.108-.503.135-.9.081-1.188-.054-.288-.238-.495-.553-.621-.314-.125-.832-.189-1.551-.189l.162-.81h6.338c1.259,0,2.333.13,3.223.391.891.261,1.573.662,2.05,1.202s.715,1.251.715,2.133c0,.955-.18,1.755-.539,2.403-.36.648-.827,1.179-1.402,1.593-.576.415-1.191.734-1.848.958-.656.226-1.281.392-1.875.5v.135c.324.216.63.544.917.985.288.441.644,1.076,1.065,1.903.423.828,1.003,1.944,1.74,3.348.306.54.643.904,1.012,1.094.368.189.858.283,1.47.283l-.162.81h-4.1c-.504-1.116-.927-2.047-1.268-2.794-.342-.747-.639-1.373-.891-1.876s-.472-.954-.66-1.35c-.189-.396-.392-.801-.607-1.215-.197-.378-.413-.625-.646-.743-.234-.117-.594-.175-1.079-.175h-.81l.189-.999,1.078.027c1.079-.036,2.055-.211,2.927-.526s1.56-.814,2.063-1.499c.503-.684.755-1.602.755-2.754,0-.486-.104-.94-.311-1.364-.206-.423-.562-.765-1.064-1.026-.504-.261-1.205-.392-2.104-.392-.342,0-.616.005-.822.014-.207.009-.463.032-.769.067l-2.697,13.257c-.145.738-.193,1.292-.148,1.661.045.369.247.607.606.715.359.108.926.162,1.699.162l-.135.81Z" stroke-width="0"/>
    <path d="m1031.771,300.923h-6.133l.11-.535,2.877-2.361c.598-.524,1.106-.986,1.525-1.385.419-.398.758-.771,1.015-1.117.257-.347.442-.695.558-1.047s.174-.737.174-1.157c0-.461-.132-.834-.394-1.118-.262-.283-.65-.425-1.164-.425s-.967.116-1.359.346c-.394.231-.815.64-1.267,1.228l-.346-.158c.44-.745.946-1.333,1.518-1.763s1.266-.646,2.084-.646c.744,0,1.331.2,1.761.598.43.399.645.934.645,1.605,0,.546-.126,1.05-.377,1.511-.252.462-.635.942-1.148,1.44s-1.169,1.078-1.966,1.739l-2.421,1.968-.016.079,1.054-.047h2.186c.283,0,.511-.042.684-.126.173-.083.333-.217.479-.401.146-.183.314-.433.503-.748h.456l-1.037,2.519Z" stroke-width="0"/>
  </g>
  <g>
    <path d="m246.157,277.02v1.84h-.398c-1.688.031-3.031.531-4.031,1.5s-1.578,2.332-1.734,4.09c.898-1.031,2.125-1.547,3.68-1.547,1.484,0,2.67.523,3.557,1.57s1.33,2.398,1.33,4.055c0,1.758-.479,3.164-1.436,4.219s-2.24,1.582-3.85,1.582c-1.633,0-2.957-.627-3.973-1.881s-1.523-2.869-1.523-4.846v-.832c0-3.141.67-5.541,2.01-7.201s3.334-2.51,5.982-2.549h.387Zm-2.848,7.688c-.742,0-1.426.223-2.051.668s-1.059,1.004-1.301,1.676v.797c0,1.406.316,2.539.949,3.398s1.422,1.289,2.367,1.289c.977,0,1.744-.359,2.303-1.078s.838-1.66.838-2.824c0-1.172-.283-2.119-.85-2.842s-1.318-1.084-2.256-1.084Z" stroke-width="0"/>
    <path d="m251.396,292.958c0-.375.111-.688.334-.938s.557-.375,1.002-.375.783.125,1.014.375.346.562.346.938c0,.359-.115.66-.346.902s-.568.363-1.014.363-.779-.121-1.002-.363-.334-.543-.334-.902Z" stroke-width="0"/>
    <path d="m268.142,286.817c0,2.539-.434,4.426-1.301,5.66s-2.223,1.852-4.066,1.852c-1.82,0-3.168-.604-4.043-1.811s-1.328-3.01-1.359-5.408v-2.895c0-2.508.434-4.371,1.301-5.59s2.227-1.828,4.078-1.828c1.836,0,3.188.588,4.055,1.764s1.312,2.99,1.336,5.443v2.812Zm-2.168-2.965c0-1.836-.258-3.174-.773-4.014s-1.332-1.26-2.449-1.26c-1.109,0-1.918.418-2.426,1.254s-.77,2.121-.785,3.855v3.469c0,1.844.268,3.205.803,4.084s1.346,1.318,2.432,1.318c1.07,0,1.865-.414,2.385-1.242s.791-2.133.814-3.914v-3.551Z" stroke-width="0"/>
    <path d="m283.071,291.106l4.875-14.074h2.461l-6.328,17.062h-1.992l-6.316-17.062h2.449l4.852,14.074Z" stroke-width="0"/>
  </g>
  <polyline points="170 305.095 170 477.976 512.839 477.976 520.264 455.476 520.367 455.476 535.214 500.476 550.059 455.476 564.904 500.476 564.921 500.476 579.767 455.476 594.611 500.476 609.458 455.476 624.304 500.476 631.727 477.976 970 477.976 970 342.444 947.5 335.019 947.5 334.916 992.5 320.069 947.5 305.224 992.5 290.379 992.5 290.362 947.5 275.517 992.5 260.672 947.5 245.826 970.003 238.401 992.5 230.979 970 223.556 970 88.024 631.727 88.024 624.304 110.524 609.458 65.524 594.611 110.524 579.767 65.524 564.921 110.524 564.904 110.524 550.059 65.524 535.214 110.524 520.367 65.524 520.264 65.524 512.839 88.024 170 88.024 170 262.424" fill="none" stroke="#000" stroke-linejoin="round" stroke-width="2"/>
  <g>
    <path d="m565.896,531.657h-7.444l.162-.81c.665,0,1.178-.054,1.537-.162.36-.108.634-.342.823-.702.188-.359.354-.918.499-1.674l2.373-11.583c.108-.504.135-.9.081-1.188-.054-.287-.238-.494-.553-.621-.314-.125-.832-.188-1.551-.188l.162-.81h6.338c1.259,0,2.333.13,3.223.391.891.262,1.573.662,2.05,1.202s.715,1.251.715,2.133c0,.954-.18,1.755-.539,2.403-.36.647-.827,1.179-1.402,1.593-.576.414-1.191.733-1.848.958-.656.226-1.281.392-1.875.5v.135c.324.216.63.545.917.985.288.441.644,1.076,1.065,1.903.423.828,1.003,1.944,1.74,3.349.306.54.643.904,1.012,1.094.368.188.858.283,1.47.283l-.162.81h-4.1c-.504-1.115-.927-2.047-1.268-2.794-.342-.747-.639-1.373-.891-1.877s-.472-.954-.66-1.35c-.189-.396-.392-.801-.607-1.215-.197-.378-.413-.626-.646-.743-.234-.116-.594-.175-1.079-.175h-.81l.189-.999,1.078.026c1.079-.035,2.055-.211,2.927-.526.872-.314,1.56-.814,2.063-1.498.503-.685.755-1.603.755-2.754,0-.486-.104-.94-.311-1.364-.206-.423-.562-.765-1.064-1.025-.504-.261-1.205-.392-2.104-.392-.342,0-.616.005-.822.014-.207.009-.463.031-.769.067l-2.697,13.257c-.145.738-.193,1.292-.148,1.66.045.369.247.607.606.716s.926.162,1.699.162l-.135.81Z" stroke-width="0"/>
    <path d="m577.383,536.854c-.44,0-.773-.037-.999-.11s-.38-.173-.464-.299-.126-.257-.126-.394c0-.168.061-.336.182-.504.12-.168.301-.252.542-.252.168,0,.317.039.448.118s.27.168.417.268c.146.1.319.188.519.268s.445.118.739.118c.388,0,.768-.076,1.14-.229s.679-.401.92-.748c.241-.346.362-.808.362-1.385,0-.398-.11-.745-.331-1.039-.22-.294-.514-.521-.88-.685-.367-.162-.776-.244-1.227-.244h-.314l.126-.598h.235c.43,0,.857-.105,1.281-.315.425-.21.781-.501,1.069-.873.288-.373.433-.79.433-1.252,0-.409-.123-.711-.369-.905-.247-.193-.58-.291-.999-.291-.503,0-.928.113-1.273.339s-.697.548-1.054.968l-.314-.204c.461-.672.949-1.188,1.463-1.551.513-.362,1.132-.543,1.855-.543.681,0,1.197.165,1.549.495.351.331.526.748.526,1.252,0,.431-.092.806-.275,1.125-.184.32-.44.606-.771.858s-.721.504-1.171.756v.047c.503.168.928.423,1.273.764s.519.789.519,1.346c0,.598-.139,1.125-.416,1.582-.278.456-.655.842-1.133,1.157-.477.314-1.014.553-1.611.716-.598.162-1.222.244-1.871.244Z" stroke-width="0"/>
  </g>
  <g>
    <path d="m90.229,177.557c0,2.539-.434,4.426-1.301,5.66s-2.223,1.852-4.066,1.852c-1.82,0-3.168-.604-4.043-1.811s-1.328-3.01-1.359-5.408v-2.895c0-2.508.434-4.371,1.301-5.59s2.227-1.828,4.078-1.828c1.836,0,3.188.588,4.055,1.764s1.312,2.99,1.336,5.443v2.812Zm-2.168-2.965c0-1.836-.258-3.174-.773-4.014s-1.332-1.26-2.449-1.26c-1.109,0-1.918.418-2.426,1.254s-.77,2.121-.785,3.855v3.469c0,1.844.268,3.205.803,4.084s1.346,1.318,2.432,1.318c1.07,0,1.865-.414,2.385-1.242s.791-2.133.814-3.914v-3.551Z" stroke-width="0"/>
    <path d="m93.276,183.698c0-.375.111-.688.334-.938s.557-.375,1.002-.375.783.125,1.014.375.346.562.346.938c0,.359-.115.66-.346.902s-.568.363-1.014.363-.779-.121-1.002-.363-.334-.543-.334-.902Z" stroke-width="0"/>
    <path d="m110.503,184.834h-11.18v-1.559l5.906-6.562c.875-.992,1.479-1.799,1.811-2.42s.498-1.264.498-1.928c0-.891-.27-1.621-.809-2.191s-1.258-.855-2.156-.855c-1.078,0-1.916.307-2.514.92s-.896,1.467-.896,2.561h-2.168c0-1.57.506-2.84,1.518-3.809s2.365-1.453,4.061-1.453c1.586,0,2.84.416,3.762,1.248s1.383,1.939,1.383,3.322c0,1.68-1.07,3.68-3.211,6l-4.57,4.957h8.566v1.77Z" stroke-width="0"/>
    <path d="m123.499,177.557c0,2.539-.434,4.426-1.301,5.66s-2.223,1.852-4.066,1.852c-1.82,0-3.168-.604-4.043-1.811s-1.328-3.01-1.359-5.408v-2.895c0-2.508.434-4.371,1.301-5.59s2.227-1.828,4.078-1.828c1.836,0,3.188.588,4.055,1.764s1.312,2.99,1.336,5.443v2.812Zm-2.168-2.965c0-1.836-.258-3.174-.773-4.014s-1.332-1.26-2.449-1.26c-1.109,0-1.918.418-2.426,1.254s-.77,2.121-.785,3.855v3.469c0,1.844.268,3.205.803,4.084s1.346,1.318,2.432,1.318c1.07,0,1.865-.414,2.385-1.242s.791-2.133.814-3.914v-3.551Z" stroke-width="0"/>
    <path d="m142.202,180.37h-7.148l-1.605,4.465h-2.32l6.516-17.062h1.969l6.527,17.062h-2.309l-1.629-4.465Zm-6.469-1.84h5.801l-2.906-7.98-2.895,7.98Z" stroke-width="0"/>
  </g>
  <g>
    <path d="m555.357,149.797h-11.18v-1.559l5.906-6.562c.875-.992,1.479-1.799,1.811-2.42s.498-1.264.498-1.928c0-.891-.27-1.621-.809-2.191s-1.258-.855-2.156-.855c-1.078,0-1.916.307-2.514.92s-.896,1.467-.896,2.561h-2.168c0-1.57.506-2.84,1.518-3.809s2.365-1.453,4.061-1.453c1.586,0,2.84.416,3.762,1.248s1.383,1.939,1.383,3.322c0,1.68-1.07,3.68-3.211,6l-4.57,4.957h8.566v1.77Z" stroke-width="0"/>
    <path d="m557.923,148.661c0-.375.111-.688.334-.938s.557-.375,1.002-.375.783.125,1.014.375.346.562.346.938c0,.359-.115.66-.346.902s-.568.363-1.014.363-.779-.121-1.002-.363-.334-.543-.334-.902Z" stroke-width="0"/>
    <path d="m575.149,149.797h-11.179v-1.559l5.906-6.562c.875-.992,1.478-1.799,1.81-2.42s.498-1.264.498-1.928c0-.891-.27-1.621-.809-2.191-.539-.57-1.257-.855-2.156-.855-1.078,0-1.916.307-2.514.92s-.896,1.467-.896,2.561h-2.168c0-1.57.506-2.84,1.518-3.809s2.365-1.453,4.061-1.453c1.586,0,2.839.416,3.761,1.248s1.383,1.939,1.383,3.322c0,1.68-1.07,3.68-3.211,6l-4.57,4.957h8.566v1.77Z" stroke-width="0"/>
    <path d="m589.599,146.809l4.875-14.074h2.461l-6.328,17.062h-1.992l-6.316-17.062h2.449l4.852,14.074Z" stroke-width="0"/>
  </g>
</svg>