<svg xmlns="http://www.w3.org/2000/svg" width="1140" height="478.618" viewBox="0 0 1140 478.618"><defs><style>.a{fill:#f2ebe7;}.b{fill:none;stroke:#d3a122;stroke-linecap:round;stroke-linejoin:round;stroke-width:7px;}.c{fill:#bacecb;}</style></defs><path class="a" d="M69.233,416.261c57.426,48.706,148.285,70.566,242.487,59.932,90.828-10.252,178.039-36.356,270.422-35.628,107.525.849,211.441,36.512,318.672,18.067,107.518-18.5,200.333-77.236,228.165-153.344,47.816-130.758-85.395-243.16-259.925-277.52C752.635,4.849,621.981,3.911,502.213,4.675,331.9,5.761,139.774,26.784,51.019,138.738c-52.91,66.741-62.752,150-25.329,223.353C36.214,382.72,51.047,400.837,69.233,416.261Z"/><line class="b" x1="412.6" y1="338.782" x2="316.373" y2="338.782"/><line class="b" x1="850.807" y1="319.253" x2="736.58" y2="319.253"/><path class="c" d="M411.329,69.746V419.38h329.42V69.746ZM651.777,335.7H500.3V153.423H651.777Z"/><path d="M526.246,43.839h-2.625V23.951h2.625Z"/><path d="M537.8,31.327a7.673,7.673,0,0,0-1.244-.1,3.334,3.334,0,0,0-3.377,2.118v10.49h-2.53V29.06h2.461l.041,1.707a3.939,3.939,0,0,1,3.528-1.98,2.6,2.6,0,0,1,1.121.191Z"/><path d="M539.18,36.313a8.721,8.721,0,0,1,.854-3.907,6.368,6.368,0,0,1,2.379-2.677,6.482,6.482,0,0,1,3.48-.942,6.24,6.24,0,0,1,4.887,2.089,8.039,8.039,0,0,1,1.866,5.56v.177a8.793,8.793,0,0,1-.827,3.873,6.271,6.271,0,0,1-2.365,2.67,6.55,6.55,0,0,1-3.534.956,6.223,6.223,0,0,1-4.874-2.09,7.994,7.994,0,0,1-1.866-5.531Zm2.543.3a6.319,6.319,0,0,0,1.141,3.948,3.871,3.871,0,0,0,6.118-.02,6.907,6.907,0,0,0,1.135-4.228,6.309,6.309,0,0,0-1.155-3.941,3.676,3.676,0,0,0-3.069-1.509,3.633,3.633,0,0,0-3.022,1.489A6.853,6.853,0,0,0,541.723,36.613Z"/><path d="M558.211,29.06l.082,1.857a5.392,5.392,0,0,1,4.43-2.13q4.689,0,4.73,5.286v9.766h-2.529v-9.78a3.4,3.4,0,0,0-.732-2.363,2.931,2.931,0,0,0-2.235-.765,3.647,3.647,0,0,0-2.16.656,4.449,4.449,0,0,0-1.449,1.721V43.839h-2.53V29.06Z"/><path d="M584.133,42.05a3.643,3.643,0,0,0,2.365-.82,2.88,2.88,0,0,0,1.121-2.048h2.393a4.582,4.582,0,0,1-.875,2.417,5.771,5.771,0,0,1-2.154,1.831,6.215,6.215,0,0,1-2.85.682,6.1,6.1,0,0,1-4.806-2.014,8.023,8.023,0,0,1-1.784-5.512v-.423a8.9,8.9,0,0,1,.793-3.839,6.035,6.035,0,0,1,2.276-2.609,6.478,6.478,0,0,1,3.507-.928,5.94,5.94,0,0,1,4.136,1.488,5.323,5.323,0,0,1,1.757,3.866h-2.393a3.479,3.479,0,0,0-1.087-2.356,3.38,3.38,0,0,0-2.413-.922,3.541,3.541,0,0,0-2.987,1.386,6.511,6.511,0,0,0-1.06,4.009v.478a6.376,6.376,0,0,0,1.053,3.934A3.558,3.558,0,0,0,584.133,42.05Z"/><path d="M592.186,36.313a8.735,8.735,0,0,1,.854-3.907,6.362,6.362,0,0,1,2.379-2.677,6.484,6.484,0,0,1,3.479-.942,6.241,6.241,0,0,1,4.888,2.089,8.039,8.039,0,0,1,1.866,5.56v.177a8.793,8.793,0,0,1-.827,3.873,6.278,6.278,0,0,1-2.365,2.67,6.547,6.547,0,0,1-3.534.956,6.223,6.223,0,0,1-4.874-2.09,7.994,7.994,0,0,1-1.866-5.531Zm2.543.3a6.319,6.319,0,0,0,1.141,3.948,3.871,3.871,0,0,0,6.118-.02,6.907,6.907,0,0,0,1.135-4.228,6.309,6.309,0,0,0-1.155-3.941,3.675,3.675,0,0,0-3.07-1.509,3.631,3.631,0,0,0-3.021,1.489A6.853,6.853,0,0,0,594.729,36.613Z"/><path d="M615.975,31.327a7.676,7.676,0,0,0-1.245-.1,3.333,3.333,0,0,0-3.376,2.118v10.49h-2.53V29.06h2.461l.041,1.707a3.939,3.939,0,0,1,3.528-1.98,2.593,2.593,0,0,1,1.121.191Z"/><path d="M624.178,44.112a6.467,6.467,0,0,1-4.895-1.973,7.323,7.323,0,0,1-1.887-5.28V36.4a8.87,8.87,0,0,1,.841-3.927,6.567,6.567,0,0,1,2.352-2.705,5.916,5.916,0,0,1,3.274-.976,5.544,5.544,0,0,1,4.485,1.9,8.219,8.219,0,0,1,1.6,5.437v1.051H619.926a5.255,5.255,0,0,0,1.278,3.532,4.02,4.02,0,0,0,3.11,1.345,4.4,4.4,0,0,0,2.27-.547,5.678,5.678,0,0,0,1.627-1.447l1.545,1.2A6.213,6.213,0,0,1,624.178,44.112Zm-.315-13.249a3.375,3.375,0,0,0-2.57,1.113,5.413,5.413,0,0,0-1.285,3.121h7.41v-.191a4.811,4.811,0,0,0-1.039-2.985A3.18,3.18,0,0,0,623.863,30.863Z"/><path d="M234.111,259.613h-2.543V242.771l-5.1,1.872v-2.295l7.246-2.719h.4Z"/><path d="M254.564,259.613H241.521V257.8l6.891-7.649a16.341,16.341,0,0,0,2.112-2.82,4.7,4.7,0,0,0,.581-2.247,3.568,3.568,0,0,0-.943-2.555,3.3,3.3,0,0,0-2.516-1,3.911,3.911,0,0,0-2.932,1.072,4.1,4.1,0,0,0-1.046,2.985h-2.529a5.862,5.862,0,0,1,1.77-4.439,6.566,6.566,0,0,1,4.737-1.694,6.31,6.31,0,0,1,4.389,1.455,4.959,4.959,0,0,1,1.613,3.872q0,2.937-3.746,6.994l-5.332,5.778h9.994Z"/><path d="M269.727,251.131q0,4.439-1.518,6.6a6.31,6.31,0,0,1-9.461.048q-1.531-2.11-1.586-6.3V248.1q0-4.385,1.518-6.515a6.422,6.422,0,0,1,9.488-.075q1.518,2.055,1.559,6.345Zm-2.53-3.456a9.257,9.257,0,0,0-.9-4.678,3.107,3.107,0,0,0-2.857-1.469,3.066,3.066,0,0,0-2.831,1.462,9.033,9.033,0,0,0-.916,4.493v4.044a9.391,9.391,0,0,0,.937,4.76,3.1,3.1,0,0,0,2.837,1.537,3.059,3.059,0,0,0,2.782-1.448,9.059,9.059,0,0,0,.95-4.563Z"/><path d="M287.145,256.13l5.687-16.4H295.7l-7.383,19.888H286l-7.369-19.888h2.857Z"/><path d="M304.809,251.541a21.08,21.08,0,0,1,.827-5.929,17.2,17.2,0,0,1,2.468-5.163,10.479,10.479,0,0,1,3.4-3.278l.519,1.666a10.874,10.874,0,0,0-3.274,4.672,20.218,20.218,0,0,0-1.4,7.034l-.014,1.162a20.326,20.326,0,0,0,1.928,9.151,10.927,10.927,0,0,0,2.761,3.634l-.519,1.543a10.83,10.83,0,0,1-3.473-3.387A18.974,18.974,0,0,1,304.809,251.541Z"/><path d="M325.863,254.409h-8.34l-1.873,5.2h-2.707l7.6-19.888h2.3l7.615,19.888h-2.693Zm-7.547-2.144h6.768l-3.391-9.3Z"/><path d="M347.629,253.3a7.318,7.318,0,0,1-2.331,4.869,7.644,7.644,0,0,1-5.216,1.714,7.015,7.015,0,0,1-5.653-2.527A10.154,10.154,0,0,1,332.3,250.6v-1.912a11.32,11.32,0,0,1,.991-4.877,7.4,7.4,0,0,1,2.81-3.23,7.825,7.825,0,0,1,4.21-1.127,7.2,7.2,0,0,1,5.086,1.769,7.4,7.4,0,0,1,2.229,4.9H344.99a5.711,5.711,0,0,0-1.483-3.453,4.493,4.493,0,0,0-3.193-1.069,4.7,4.7,0,0,0-3.944,1.86,8.522,8.522,0,0,0-1.429,5.29v1.928a8.771,8.771,0,0,0,1.354,5.154,4.373,4.373,0,0,0,3.787,1.914,5.049,5.049,0,0,0,3.356-.991,5.485,5.485,0,0,0,1.552-3.448Z"/><path d="M356.3,251.677a21.125,21.125,0,0,1-.8,5.84,17.258,17.258,0,0,1-2.447,5.156,10.71,10.71,0,0,1-3.452,3.36l-.534-1.543a10.982,10.982,0,0,0,3.384-5.007,21.659,21.659,0,0,0,1.306-7.533v-.437a22.472,22.472,0,0,0-.6-5.334,18.018,18.018,0,0,0-1.674-4.419,10.214,10.214,0,0,0-2.414-3.046l.534-1.543a10.665,10.665,0,0,1,3.438,3.332,17.3,17.3,0,0,1,2.447,5.15A21.611,21.611,0,0,1,356.3,251.677Z"/><path d="M796.3,254.415h2.761v2.063H796.3v4.616h-2.543v-4.616h-9.065v-1.49l8.914-13.782H796.3Zm-8.737,0h6.194v-9.753l-.3.546Z"/><path d="M813.828,252.612q0,4.439-1.517,6.6a6.31,6.31,0,0,1-9.461.048q-1.532-2.11-1.586-6.3v-3.374q0-4.385,1.517-6.516a6.425,6.425,0,0,1,9.489-.074q1.516,2.055,1.558,6.344Zm-2.529-3.456a9.245,9.245,0,0,0-.9-4.678,3.105,3.105,0,0,0-2.857-1.469,3.066,3.066,0,0,0-2.83,1.462,9.033,9.033,0,0,0-.916,4.493v4.044a9.4,9.4,0,0,0,.936,4.76,3.1,3.1,0,0,0,2.837,1.537,3.061,3.061,0,0,0,2.783-1.448,9.07,9.07,0,0,0,.95-4.563Z"/><path d="M831.246,257.611l5.688-16.4h2.871l-7.383,19.888H830.1l-7.369-19.888h2.857Z"/><path d="M848.91,253.021a21.114,21.114,0,0,1,.827-5.928,17.221,17.221,0,0,1,2.468-5.163,10.5,10.5,0,0,1,3.4-3.278l.52,1.666a10.883,10.883,0,0,0-3.275,4.672,20.236,20.236,0,0,0-1.4,7.034l-.014,1.162a20.34,20.34,0,0,0,1.928,9.151,10.929,10.929,0,0,0,2.762,3.634l-.52,1.543a10.822,10.822,0,0,1-3.472-3.388A18.963,18.963,0,0,1,848.91,253.021Z"/><path d="M869.965,255.89h-8.34l-1.873,5.2h-2.707l7.6-19.888h2.3l7.616,19.888h-2.694Zm-7.547-2.144h6.768l-3.391-9.3Z"/><path d="M891.73,254.784a7.314,7.314,0,0,1-2.331,4.869,7.64,7.64,0,0,1-5.215,1.714,7.017,7.017,0,0,1-5.654-2.527,10.16,10.16,0,0,1-2.126-6.761v-1.912a11.305,11.305,0,0,1,.992-4.877,7.4,7.4,0,0,1,2.809-3.23,7.83,7.83,0,0,1,4.211-1.127A7.2,7.2,0,0,1,889.5,242.7a7.4,7.4,0,0,1,2.228,4.9h-2.638a5.711,5.711,0,0,0-1.484-3.453,4.49,4.49,0,0,0-3.192-1.069,4.7,4.7,0,0,0-3.944,1.86,8.529,8.529,0,0,0-1.429,5.29v1.928a8.771,8.771,0,0,0,1.353,5.154,4.377,4.377,0,0,0,3.788,1.914,5.049,5.049,0,0,0,3.356-.991,5.491,5.491,0,0,0,1.552-3.448Z"/><path d="M900.4,253.158a21.125,21.125,0,0,1-.8,5.84,17.26,17.26,0,0,1-2.448,5.156,10.711,10.711,0,0,1-3.452,3.36l-.533-1.543a11,11,0,0,0,3.384-5.007,21.636,21.636,0,0,0,1.305-7.533v-.437a22.473,22.473,0,0,0-.6-5.334,17.979,17.979,0,0,0-1.675-4.419,10.212,10.212,0,0,0-2.413-3.046l.533-1.543a10.667,10.667,0,0,1,3.439,3.332,17.3,17.3,0,0,1,2.447,5.15A21.612,21.612,0,0,1,900.4,253.158Z"/><path class="b" d="M267.123,171.114s283.265,11.2,232.552,11.2"/><path class="b" d="M856.446,170.317S608.8,169.192,653.04,171.4"/><path class="b" d="M411.87,198.245c-30.014,10.547,114.257,3.314,86.159,17.327"/><path class="b" d="M740.461,304.158c29.22,15.47-114.325-1.828-87.264,18.088"/><path class="b" d="M411.87,241.349c-30.014,8.932,114.257,2.807,86.159,14.675"/><path class="b" d="M411.87,280.142c-30.014,9.669,114.257,3.039,86.159,15.885"/><path class="b" d="M411.87,317.268c-30.014,8.933,114.257,2.808,86.159,14.675"/><path d="M192.7,128.562v7.515h-2.531V116.882h7.079a7.117,7.117,0,0,1,4.938,1.608,5.455,5.455,0,0,1,1.786,4.259,5.378,5.378,0,0,1-1.747,4.3,7.425,7.425,0,0,1-5,1.509Zm0-2.069h4.548a4.541,4.541,0,0,0,3.111-.958,3.5,3.5,0,0,0,1.081-2.766,3.618,3.618,0,0,0-1.081-2.748,4.261,4.261,0,0,0-2.965-1.069H192.7Z"/><path d="M213.712,124a7.254,7.254,0,0,0-1.2-.092,3.212,3.212,0,0,0-3.256,2.043v10.125h-2.44V121.812h2.373l.039,1.648a3.8,3.8,0,0,1,3.4-1.911,2.49,2.49,0,0,1,1.08.184Z"/><path d="M215.967,118.028a1.459,1.459,0,0,1,.362-1,1.365,1.365,0,0,1,1.074-.408,1.386,1.386,0,0,1,1.081.408,1.447,1.447,0,0,1,.37,1,1.444,1.444,0,1,1-2.887,0Zm2.637,18.049h-2.44V121.812h2.44Z"/><path d="M224.8,121.812l.065,1.583a5.268,5.268,0,0,1,4.233-1.846,4.079,4.079,0,0,1,4.074,2.294,5.4,5.4,0,0,1,1.851-1.661,5.476,5.476,0,0,1,2.7-.633q4.694,0,4.772,4.97v9.558h-2.439v-9.413a3.274,3.274,0,0,0-.7-2.287,3.073,3.073,0,0,0-2.346-.759,3.231,3.231,0,0,0-2.254.812,3.282,3.282,0,0,0-1.042,2.181v9.466H231.26v-9.348q0-3.109-3.045-3.111a3.263,3.263,0,0,0-3.283,2.044v10.415h-2.44V121.812Z"/><path d="M254.977,136.077a5.109,5.109,0,0,1-.343-1.5,5.443,5.443,0,0,1-4.061,1.767,5.036,5.036,0,0,1-3.461-1.194,3.858,3.858,0,0,1-1.35-3.025,4.034,4.034,0,0,1,1.693-3.461,7.994,7.994,0,0,1,4.766-1.232h2.373v-1.121a2.742,2.742,0,0,0-.764-2.037,3.078,3.078,0,0,0-2.255-.758,3.552,3.552,0,0,0-2.188.66,1.941,1.941,0,0,0-.883,1.595h-2.453a3.366,3.366,0,0,1,.759-2.064,5.167,5.167,0,0,1,2.056-1.575,6.912,6.912,0,0,1,2.855-.58,5.644,5.644,0,0,1,3.862,1.232,4.448,4.448,0,0,1,1.45,3.4v6.564a8.023,8.023,0,0,0,.5,3.125v.211Zm-4.047-1.859a4.28,4.28,0,0,0,2.174-.593,3.589,3.589,0,0,0,1.49-1.542v-2.928h-1.911q-4.483,0-4.483,2.624a2.219,2.219,0,0,0,.765,1.793A2.937,2.937,0,0,0,250.93,134.218Z"/><path d="M267.752,124a7.254,7.254,0,0,0-1.2-.092,3.212,3.212,0,0,0-3.256,2.043v10.125h-2.44V121.812h2.373l.04,1.648a3.8,3.8,0,0,1,3.4-1.911,2.49,2.49,0,0,1,1.08.184Z"/><path d="M274.9,132.505l3.323-10.693h2.61L275.1,138.278q-1.334,3.56-4.233,3.561l-.461-.04-.91-.171v-1.979l.659.053a3.254,3.254,0,0,0,1.932-.5,3.634,3.634,0,0,0,1.14-1.833l.541-1.45-5.089-14.107h2.663Z"/><path d="M295.411,134.351a3.512,3.512,0,0,0,2.28-.791,2.789,2.789,0,0,0,1.082-1.979h2.307a4.419,4.419,0,0,1-.844,2.334,5.566,5.566,0,0,1-2.076,1.767,6,6,0,0,1-2.749.659,5.878,5.878,0,0,1-4.634-1.945,7.742,7.742,0,0,1-1.72-5.319v-.409a8.592,8.592,0,0,1,.764-3.7,5.818,5.818,0,0,1,2.2-2.519,6.237,6.237,0,0,1,3.381-.9,5.726,5.726,0,0,1,3.988,1.436,5.139,5.139,0,0,1,1.694,3.732h-2.307a3.365,3.365,0,0,0-1.048-2.275,3.266,3.266,0,0,0-2.327-.889,3.41,3.41,0,0,0-2.88,1.338,6.279,6.279,0,0,0-1.022,3.87v.461a6.16,6.16,0,0,0,1.015,3.8A3.431,3.431,0,0,0,295.411,134.351Z"/><path d="M303.176,128.813a8.433,8.433,0,0,1,.824-3.771,6.162,6.162,0,0,1,2.294-2.584,6.258,6.258,0,0,1,3.355-.909,6.018,6.018,0,0,1,4.713,2.016,7.764,7.764,0,0,1,1.8,5.367v.171a8.5,8.5,0,0,1-.8,3.738,6.058,6.058,0,0,1-2.28,2.577,6.319,6.319,0,0,1-3.408.923,6,6,0,0,1-4.7-2.018,7.717,7.717,0,0,1-1.8-5.339Zm2.453.29a6.1,6.1,0,0,0,1.1,3.81,3.73,3.73,0,0,0,5.9-.019,6.68,6.68,0,0,0,1.094-4.081,6.087,6.087,0,0,0-1.114-3.8,3.54,3.54,0,0,0-2.96-1.457,3.5,3.5,0,0,0-2.913,1.436A6.63,6.63,0,0,0,305.629,129.1Z"/><path d="M319.234,118.028a1.456,1.456,0,0,1,.363-1,1.363,1.363,0,0,1,1.074-.408,1.386,1.386,0,0,1,1.081.408,1.446,1.446,0,0,1,.369,1,1.394,1.394,0,0,1-.369.99,1.409,1.409,0,0,1-1.081.395,1.385,1.385,0,0,1-1.074-.395A1.4,1.4,0,0,1,319.234,118.028Zm2.637,18.049h-2.439V121.812h2.439Z"/><path d="M328.424,136.077h-2.44v-20.25h2.44Z"/><path d="M799.532,122.752a11.89,11.89,0,0,1-4.739-2.3,4.4,4.4,0,0,1-1.483-3.369,4.646,4.646,0,0,1,1.812-3.751,7.2,7.2,0,0,1,4.714-1.483,7.86,7.86,0,0,1,3.526.765,5.81,5.81,0,0,1,2.4,2.109,5.4,5.4,0,0,1,.849,2.941h-2.544a3.513,3.513,0,0,0-1.107-2.747,4.507,4.507,0,0,0-3.124-1,4.608,4.608,0,0,0-2.921.826,2.755,2.755,0,0,0-1.048,2.291,2.479,2.479,0,0,0,1,1.988,9.775,9.775,0,0,0,3.389,1.485A15.743,15.743,0,0,1,804,122a5.7,5.7,0,0,1,2,1.892,4.829,4.829,0,0,1,.652,2.544,4.482,4.482,0,0,1-1.819,3.737,7.751,7.751,0,0,1-4.865,1.405,9.031,9.031,0,0,1-3.692-.758,6.211,6.211,0,0,1-2.642-2.076,5.067,5.067,0,0,1-.93-2.993h2.545a3.307,3.307,0,0,0,1.285,2.749,5.412,5.412,0,0,0,3.434,1.007,4.976,4.976,0,0,0,3.072-.816,2.655,2.655,0,0,0,1.068-2.228,2.606,2.606,0,0,0-.989-2.182A11.392,11.392,0,0,0,799.532,122.752Z"/><path d="M815.432,131.573a6.231,6.231,0,0,1-4.721-1.906,7.064,7.064,0,0,1-1.818-5.094v-.449a8.56,8.56,0,0,1,.81-3.791,6.324,6.324,0,0,1,2.268-2.61,5.7,5.7,0,0,1,3.157-.942,5.341,5.341,0,0,1,4.324,1.833,7.932,7.932,0,0,1,1.542,5.246v1.015h-9.663a5.076,5.076,0,0,0,1.232,3.409,3.88,3.88,0,0,0,3,1.3,4.251,4.251,0,0,0,2.19-.528,5.5,5.5,0,0,0,1.568-1.4l1.491,1.16A5.992,5.992,0,0,1,815.432,131.573Zm-.3-12.788a3.256,3.256,0,0,0-2.479,1.074,5.225,5.225,0,0,0-1.239,3.013h7.146v-.185a4.657,4.657,0,0,0-1-2.881A3.065,3.065,0,0,0,815.128,118.785Z"/><path d="M829.538,129.583a3.512,3.512,0,0,0,2.28-.791,2.789,2.789,0,0,0,1.082-1.979h2.307a4.419,4.419,0,0,1-.844,2.334,5.566,5.566,0,0,1-2.076,1.767,6,6,0,0,1-2.749.659,5.878,5.878,0,0,1-4.634-1.945,7.742,7.742,0,0,1-1.72-5.319V123.9a8.577,8.577,0,0,1,.764-3.7,5.818,5.818,0,0,1,2.2-2.519,6.237,6.237,0,0,1,3.381-.9,5.726,5.726,0,0,1,3.988,1.436,5.138,5.138,0,0,1,1.694,3.732H832.9a3.369,3.369,0,0,0-1.048-2.275,3.266,3.266,0,0,0-2.327-.889,3.41,3.41,0,0,0-2.88,1.338,6.279,6.279,0,0,0-1.022,3.87v.461a6.154,6.154,0,0,0,1.015,3.8A3.428,3.428,0,0,0,829.538,129.583Z"/><path d="M837.3,124.045a8.433,8.433,0,0,1,.824-3.771,6.162,6.162,0,0,1,2.294-2.584,6.249,6.249,0,0,1,3.355-.909,6.018,6.018,0,0,1,4.713,2.016,7.764,7.764,0,0,1,1.8,5.367v.17a8.5,8.5,0,0,1-.8,3.739,6.058,6.058,0,0,1-2.28,2.577,6.319,6.319,0,0,1-3.408.923,6,6,0,0,1-4.7-2.018,7.717,7.717,0,0,1-1.8-5.339Zm2.453.289a6.1,6.1,0,0,0,1.1,3.811,3.729,3.729,0,0,0,5.9-.02,6.675,6.675,0,0,0,1.094-4.08,6.087,6.087,0,0,0-1.114-3.8,3.54,3.54,0,0,0-2.96-1.457,3.5,3.5,0,0,0-2.913,1.436A6.629,6.629,0,0,0,839.756,124.334Z"/><path d="M855.654,117.044l.08,1.793a5.2,5.2,0,0,1,4.272-2.056q4.521,0,4.56,5.1v9.426h-2.438V121.87a3.292,3.292,0,0,0-.705-2.282,2.833,2.833,0,0,0-2.155-.738,3.521,3.521,0,0,0-2.084.633,4.285,4.285,0,0,0-1.4,1.662v10.164h-2.439V117.044Z"/><path d="M867.651,124.058a8.353,8.353,0,0,1,1.557-5.28,5.292,5.292,0,0,1,8.041-.283v-7.436h2.439v20.25h-2.241l-.118-1.529a4.969,4.969,0,0,1-4.074,1.793,4.873,4.873,0,0,1-4.041-2.031,8.453,8.453,0,0,1-1.563-5.3Zm2.44.276a6.321,6.321,0,0,0,1,3.8,3.237,3.237,0,0,0,2.768,1.371,3.555,3.555,0,0,0,3.388-2.082v-6.552a3.585,3.585,0,0,0-3.361-2.018,3.254,3.254,0,0,0-2.8,1.385A6.966,6.966,0,0,0,870.091,124.334Z"/><path d="M892.279,131.309a5.116,5.116,0,0,1-.342-1.5,5.443,5.443,0,0,1-4.061,1.767,5.034,5.034,0,0,1-3.461-1.194,3.86,3.86,0,0,1-1.351-3.025,4.035,4.035,0,0,1,1.694-3.461,7.993,7.993,0,0,1,4.765-1.232H891.9V121.54a2.742,2.742,0,0,0-.763-2.037,3.078,3.078,0,0,0-2.255-.758,3.555,3.555,0,0,0-2.189.66,1.941,1.941,0,0,0-.882,1.595h-2.453a3.365,3.365,0,0,1,.758-2.064,5.177,5.177,0,0,1,2.057-1.575,6.908,6.908,0,0,1,2.854-.58,5.645,5.645,0,0,1,3.863,1.232,4.45,4.45,0,0,1,1.45,3.4v6.564a8.023,8.023,0,0,0,.5,3.125v.211Zm-4.047-1.859a4.291,4.291,0,0,0,2.175-.593,3.581,3.581,0,0,0,1.489-1.542v-2.928h-1.911q-4.482,0-4.482,2.624a2.219,2.219,0,0,0,.765,1.793A2.935,2.935,0,0,0,888.232,129.45Z"/><path d="M905.053,119.233a7.254,7.254,0,0,0-1.2-.092,3.212,3.212,0,0,0-3.256,2.043v10.125h-2.44V117.044h2.373l.039,1.648a3.8,3.8,0,0,1,3.4-1.911,2.49,2.49,0,0,1,1.08.184Z"/><path d="M912.2,127.737l3.322-10.693h2.611L912.4,133.51q-1.332,3.56-4.232,3.561l-.461-.04-.91-.171v-1.979l.659.053a3.256,3.256,0,0,0,1.932-.5,3.627,3.627,0,0,0,1.139-1.833l.541-1.45-5.088-14.107h2.663Z"/><path d="M932.713,129.583a3.512,3.512,0,0,0,2.28-.791,2.789,2.789,0,0,0,1.082-1.979h2.307a4.419,4.419,0,0,1-.844,2.334,5.566,5.566,0,0,1-2.076,1.767,6,6,0,0,1-2.749.659,5.878,5.878,0,0,1-4.634-1.945,7.743,7.743,0,0,1-1.721-5.319V123.9a8.578,8.578,0,0,1,.765-3.7,5.822,5.822,0,0,1,2.195-2.519,6.238,6.238,0,0,1,3.382-.9,5.726,5.726,0,0,1,3.988,1.436,5.138,5.138,0,0,1,1.694,3.732h-2.307a3.366,3.366,0,0,0-1.049-2.275,3.264,3.264,0,0,0-2.326-.889,3.413,3.413,0,0,0-2.881,1.338,6.286,6.286,0,0,0-1.021,3.87v.461a6.161,6.161,0,0,0,1.014,3.8A3.432,3.432,0,0,0,932.713,129.583Z"/><path d="M940.478,124.045a8.433,8.433,0,0,1,.824-3.771,6.162,6.162,0,0,1,2.294-2.584,6.247,6.247,0,0,1,3.355-.909,6.018,6.018,0,0,1,4.713,2.016,7.764,7.764,0,0,1,1.8,5.367v.17a8.5,8.5,0,0,1-.8,3.739,6.058,6.058,0,0,1-2.28,2.577,6.322,6.322,0,0,1-3.408.923,6,6,0,0,1-4.7-2.018,7.722,7.722,0,0,1-1.8-5.339Zm2.453.289a6.1,6.1,0,0,0,1.1,3.811,3.729,3.729,0,0,0,5.9-.02,6.675,6.675,0,0,0,1.093-4.08,6.093,6.093,0,0,0-1.113-3.8,3.54,3.54,0,0,0-2.96-1.457,3.5,3.5,0,0,0-2.913,1.436A6.629,6.629,0,0,0,942.931,124.334Z"/><path d="M956.536,113.26a1.459,1.459,0,0,1,.362-1,1.367,1.367,0,0,1,1.075-.408,1.388,1.388,0,0,1,1.081.408,1.446,1.446,0,0,1,.369,1,1.394,1.394,0,0,1-.369.99,1.41,1.41,0,0,1-1.081.395,1.389,1.389,0,0,1-1.075-.395A1.407,1.407,0,0,1,956.536,113.26Zm2.637,18.049h-2.44V117.044h2.44Z"/><path d="M965.725,131.309h-2.44v-20.25h2.44Z"/><path class="b" d="M739.932,181.087c30.015,8.941-114.256,2.81-86.158,14.688"/><path class="b" d="M739.932,206.476c30.015,8.941-114.256,2.81-86.158,14.688"/><path class="b" d="M739.932,233.852c30.015,8.941-114.256,2.81-86.158,14.688"/><path class="b" d="M739.932,257.062c30.015,8.94-114.256,2.809-86.158,14.687"/><path class="b" d="M739.932,284.451c30.015,8.94-114.256,2.81-86.158,14.688"/></svg>