<?xml version="1.0" encoding="UTF-8"?>
<svg id="Layer_2" data-name="Layer 2" xmlns="http://www.w3.org/2000/svg" viewBox="0 0 570 333.454">
  <defs>
    <style>
      .cls-1 {
        stroke: #7c938f;
        stroke-miterlimit: 10;
      }

      .cls-1, .cls-2 {
        fill: none;
      }

      .cls-3, .cls-4, .cls-5 {
        stroke-width: 0px;
      }

      .cls-2 {
        stroke: #d3a122;
        stroke-linecap: round;
        stroke-linejoin: round;
        stroke-width: 7px;
      }

      .cls-4 {
        fill: #bacecb;
      }

      .cls-5 {
        fill: #efdeff;
      }
    </style>
  </defs>
  <g id="maal5_01.201a">
    <path class="cls-5" d="M0,161.827c.034,200.792,84.255,160.351,293.386,154.506,209.958-5.868,276.624,42.476,276.614-152.413-.01-199.616-127.249-149.951-281.685-149.951S-.033-35.212,0,161.827Z"/>
  </g>
  <g>
    <path class="cls-3" d="M244.835,66.771h4.342v3.139h-4.342v4.907h-3.307v-4.907h-4.354v-3.139h4.354v-4.702h3.307v4.702Z"/>
    <path class="cls-3" d="M309.951,70.475h-6.771v-2.802h6.771v2.802Z"/>
  </g>
  <rect class="cls-4" x="121.635" y="98.125" width="77.222" height="209.223"/>
  <polyline class="cls-2" points="424.953 163.304 509.861 163.304 509.861 49.821 377.471 49.821"/>
  <path class="cls-2" d="M201.469,270.17c10.729-3.388-44.612-15.247-66.635-23.153-22.023-7.906-23.153-9.6-15.812-11.859"/>
  <path class="cls-2" d="M119.023,277.75c-4.817,1.482-1.206,8.495,11.946,8.495h283.902"/>
  <path class="cls-2" d="M202.369,171.799c.466-5.072-.796-8.495-13.948-8.495H56.236V49.821h209.672"/>
  <path class="cls-2" d="M201.469,243.654c10.729-3.388-44.612-15.247-66.635-23.153-22.023-7.906-23.153-9.6-15.812-11.859"/>
  <path class="cls-2" d="M201.469,217.138c10.729-3.388-44.612-15.247-66.635-23.153-22.023-7.906-23.153-9.6-15.812-11.859"/>
  <line class="cls-2" x1="268.477" y1="21.047" x2="268.477" y2="80.341"/>
  <line class="cls-2" x1="290.647" y1="31.047" x2="290.647" y2="70.341"/>
  <polyline class="cls-2" points="292.906 49.821 331.094 49.821 370.059 27.278"/>
  <rect class="cls-4" x="121.024" y="98.125" width="325.578" height="49.976"/>
  <line class="cls-1" x1="121.024" y1="148.102" x2="198.857" y2="148.102"/>
  <rect class="cls-4" x="370.059" y="98.125" width="77.222" height="209.223"/>
  <path class="cls-2" d="M449.605,270.17c10.729-3.388-44.612-15.247-66.635-23.153-22.023-7.906-23.153-9.6-15.812-11.859"/>
  <path class="cls-2" d="M449.605,243.654c10.729-3.388-44.612-15.247-66.635-23.153-22.023-7.906-23.153-9.6-15.812-11.859"/>
  <path class="cls-2" d="M449.605,217.138c10.729-3.388-44.612-15.247-66.635-23.153-22.023-7.906-23.153-9.6-15.812-11.859"/>
  <line class="cls-1" x1="371.161" y1="148.102" x2="446.602" y2="148.102"/>
</svg>