<?xml version="1.0" encoding="UTF-8"?><svg id="a" xmlns="http://www.w3.org/2000/svg" width="1140" height="566" viewBox="0 0 1140 566"><path d="m948.2107,549.401c140.4864-15.0055,160.2593-76.2867,181.6061-190.262,7.1789-38.3296,5.1033-77.4975,2.2931-116.2682-2.5036-34.5404-5.6486-69.4033-17.3795-102.4313-10.5723-29.7654-20.5285-56.4336-47.56-77.7675-25.5609-20.1733-57.7109-33.5704-90.8262-41.2097-103.7803-23.9409-212.6252-12.9225-318.4016-10.538-118.3348,2.6676-236.776,1.2568-354.9863-4.1815-55.3452-2.5462-155.9162-1.2237-203.0859,24.4411C29.3831,69.5357,16.3197,154.1135,9.5323,220.5687c-5.9405,58.164-.7855,117.1415,11.6239,174.2376,20.1368,92.6496,80.6106,131.0627,175.1254,149.1381,102.4676,19.5964,233.5812,15.0612,337.7102,12.4965,110.5902-2.7239,273.7325,7.9655,414.2189-7.04Z" fill="#ede2f0" stroke-width="0"/><path d="m137.1133,242.1748h5.5508v2.3926h-5.5508v6.2891h-2.543v-6.2891h-5.5508v-2.3926h5.5508v-5.8105h2.543v5.8105Z" stroke-width="0"/><line x1="170.0466" y1="263.0813" x2="170.0466" y2="224.4489" fill="#fff" stroke="#000" stroke-linejoin="round" stroke-width="2"/><path d="m142.8862,318.8223v2.3926h-13.6445v-2.3926h13.6445Z" stroke-width="0"/><line x1="128.0466" y1="291.7413" x2="212.0466" y2="291.7413" fill="#fff" stroke="#000" stroke-linejoin="round" stroke-width="2"/><line x1="146.5266" y1="305.7525" x2="193.5666" y2="305.7525" fill="#fff" stroke="#000" stroke-linejoin="round" stroke-width="2"/><line x1="128.0466" y1="263.7189" x2="212.0466" y2="263.7189" fill="#fff" stroke="#000" stroke-linejoin="round" stroke-width="2"/><line x1="146.5266" y1="277.7301" x2="193.5666" y2="277.7301" fill="#fff" stroke="#000" stroke-linejoin="round" stroke-width="2"/><polyline points="703.3489 88.024 703.3489 221.273 725.8489 228.6955 680.8489 243.5425 725.8489 258.3886 680.8489 273.2334 725.8489 288.0786 725.8489 288.0962 680.8489 302.941 725.8489 317.7862 680.8489 332.6331 680.8489 332.7363 703.3489 340.1607 703.3489 477.976" fill="none" stroke="#000" stroke-linejoin="round" stroke-width="2"/><polyline points="170 306.0959 170 477.976 970 477.976 970 342.4439 947.5 335.0195 947.5 334.9163 992.5 320.0694 947.5 305.2242 992.5 290.3794 992.5 290.3618 947.5 275.5166 992.5 260.6718 947.5 245.8257 970.0035 238.4011 992.5 230.9787 970 223.5561 970 88.024 170 88.024 170 262.4239" fill="none" stroke="#000" stroke-linecap="square" stroke-linejoin="round" stroke-width="2"/><path d="m752.7822,283.2949v.1348c.9707.6748,1.5107,2.0518,3.7227,6.2354.5938,1.0801,1.2412,1.377,2.4814,1.377l-.1611.8096h-4.1006c-2.0234-4.4531-2.5898-5.5869-3.4268-7.2334-.4043-.7559-.7549-.918-1.7266-.918h-.5664l-.998,4.8047c-.459,2.2402-.1621,2.5371,2.1582,2.5371l-.1348.8096h-7.4463l.1621-.8096c1.9961,0,2.4014-.2695,2.8594-2.5371l2.374-11.5801c.2969-1.4844.1348-1.9971-2.0234-1.9971l.1621-.8105h6.3398c3.7773,0,5.9893,1.1074,5.9893,3.7256,0,3.8057-3.3184,5.0479-5.665,5.4521Zm-3.5879-.5938l.8359.0273c3.2373-.1084,5.7461-1.3232,5.7461-4.7783,0-1.457-.8096-2.7803-3.4805-2.7803-.7012,0-.9707.0273-1.5918.0811l-1.5098,7.4502Z" stroke-width="0"/><path d="m765.5283,296.8428h-6.1357l.1104-.5352,2.8789-2.3623c2.4062-2.0938,3.2715-3.0234,3.2715-4.708,0-.9131-.5342-1.543-1.5566-1.543-1.0234,0-1.7305.4092-2.6279,1.5742l-.3457-.1572c.8809-1.4961,1.9668-2.4092,3.6025-2.4092,1.4941,0,2.4072.8662,2.4072,2.2041,0,1.6377-1.1016,2.709-3.4932,4.6934l-2.4219,1.9678-.0166.0791,1.0547-.0479h2.1865c.834,0,1.1016-.3301,1.668-1.2754h.4561l-1.0381,2.5195Z" stroke-width="0"/><path d="m1019.0273,283.2949v.1348c.9707.6748,1.5107,2.0518,3.7227,6.2354.5938,1.0791,1.2412,1.377,2.4814,1.377l-.1611.8096h-4.1006c-2.0234-4.4541-2.5898-5.5879-3.4268-7.2344-.4043-.7559-.7549-.918-1.7266-.918h-.5664l-.998,4.8047c-.459,2.2402-.1621,2.5381,2.1582,2.5381l-.1348.8096h-7.4463l.1621-.8096c1.9961,0,2.4014-.2705,2.8594-2.5381l2.374-11.5801c.2969-1.4844.1348-1.9971-2.0234-1.9971l.1621-.8096h6.3398c3.7773,0,5.9893,1.1064,5.9893,3.7246,0,3.8066-3.3184,5.0479-5.665,5.4531Zm-3.5879-.5938l.8359.0264c3.2373-.1074,5.7461-1.3223,5.7461-4.7773,0-1.458-.8096-2.7803-3.4805-2.7803-.7012,0-.9707.0264-1.5918.0811l-1.5098,7.4502Z" stroke-width="0"/><path d="m1026.6133,296.8428l.0938-.4414c1.4795,0,1.8564-.2676,2.0137-1.0547l1.416-6.6611c.126-.5508.0479-.7715-.3457-.7715-.3145,0-.9131.0947-1.4316.252l.1104-.5195,3.0039-.8662h.457l-1.8252,8.5664c-.1572.7715.1729,1.0547,1.6201,1.0547l-.0938.4414h-5.0186Z" stroke-width="0"/><path d="m238.2119,290.0137v-17.0625h5.5781c1.8516,0,3.2441.3828,4.1777,1.1484s1.4004,1.8984,1.4004,3.3984c0,.7969-.2266,1.502-.6797,2.1152s-1.0703,1.0879-1.8516,1.4238c.9219.2578,1.6504.748,2.1855,1.4707s.8027,1.584.8027,2.584c0,1.5312-.4961,2.7344-1.4883,3.6094s-2.3945,1.3125-4.207,1.3125h-5.918Zm2.25-9.7852h3.3984c.9844,0,1.7715-.2466,2.3613-.7397s.8848-1.1626.8848-2.0083c0-.9395-.2734-1.6226-.8203-2.0493s-1.3789-.6401-2.4961-.6401h-3.3281v5.4375Zm0,1.8047v6.1406h3.7148c1.0469,0,1.873-.2715,2.4785-.8145s.9082-1.291.9082-2.2441c0-2.0547-1.1172-3.082-3.3516-3.082h-3.75Z" stroke-width="0"/><path d="m260.6416,290.0137c-.125-.25-.2266-.6953-.3047-1.3359-1.0078,1.0469-2.2109,1.5703-3.6094,1.5703-1.25,0-2.2754-.3535-3.0762-1.0605s-1.2012-1.6035-1.2012-2.6895c0-1.3203.502-2.3457,1.5059-3.0762s2.416-1.0957,4.2363-1.0957h2.1094v-.9961c0-.7578-.2266-1.3613-.6797-1.8105s-1.1211-.6738-2.0039-.6738c-.7734,0-1.4219.1953-1.9453.5859s-.7852.8633-.7852,1.418h-2.1797c0-.6328.2246-1.2441.6738-1.834s1.0586-1.0566,1.8281-1.4004,1.6152-.5156,2.5371-.5156c1.4609,0,2.6055.3652,3.4336,1.0957s1.2578,1.7363,1.2891,3.0176v5.8359c0,1.1641.1484,2.0898.4453,2.7773v.1875h-2.2734Zm-3.5977-1.6523c.6797,0,1.3242-.1758,1.9336-.5273s1.0508-.8086,1.3242-1.3711v-2.6016h-1.6992c-2.6562,0-3.9844.7773-3.9844,2.332,0,.6797.2266,1.2109.6797,1.5938s1.0352.5742,1.7461.5742Z" stroke-width="0"/><path d="m268.8096,274.2637v3.0703h2.3672v1.6758h-2.3672v7.873c0,.5088.1055.8901.3164,1.144.2109.2544.5703.3813,1.0781.3813.25,0,.5938-.0469,1.0312-.1406v1.7476c-.5703.1553-1.125.2329-1.6641.2329-.9688,0-1.6992-.293-2.1914-.8789s-.7383-1.418-.7383-2.4961v-7.8633h-2.3086v-1.6758h2.3086v-3.0703h2.168Z" stroke-width="0"/><path d="m276.6494,274.2637v3.0703h2.3672v1.6758h-2.3672v7.873c0,.5088.1055.8901.3164,1.144.2109.2544.5703.3813,1.0781.3813.25,0,.5938-.0469,1.0312-.1406v1.7476c-.5703.1553-1.125.2329-1.6641.2329-.9688,0-1.6992-.293-2.1914-.8789s-.7383-1.418-.7383-2.4961v-7.8633h-2.3086v-1.6758h2.3086v-3.0703h2.168Z" stroke-width="0"/><path d="m286.8096,290.248c-1.7188,0-3.1172-.5645-4.1953-1.6934s-1.6172-2.6387-1.6172-4.5293v-.3984c0-1.2578.2402-2.3809.7207-3.3691s1.1523-1.7617,2.0156-2.3203,1.7988-.8379,2.8066-.8379c1.6484,0,2.9297.543,3.8438,1.6289s1.3711,2.6406,1.3711,4.6641v.9023h-8.5898c.0312,1.25.3965,2.2598,1.0957,3.0293s1.5879,1.1543,2.666,1.1543c.7656,0,1.4141-.1562,1.9453-.4688s.9961-.7266,1.3945-1.2422l1.3242,1.0312c-1.0625,1.6328-2.6562,2.4492-4.7812,2.4492Zm-.2695-11.3672c-.875,0-1.6094.3184-2.2031.9551s-.9609,1.5293-1.1016,2.6777h6.3516v-.1641c-.0625-1.1016-.3594-1.9551-.8906-2.5605s-1.25-.9082-2.1562-.9082Z" stroke-width="0"/><path d="m300.3916,279.2793c-.3281-.0547-.6836-.082-1.0664-.082-1.4219,0-2.3867.6055-2.8945,1.8164v9h-2.168v-12.6797h2.1094l.0352,1.4648c.7109-1.1328,1.7188-1.6992,3.0234-1.6992.4219,0,.7422.0547.9609.1641v2.0156Z" stroke-width="0"/><path d="m306.5322,286.8379l2.9531-9.5039h2.3203l-5.0977,14.6367c-.7891,2.1094-2.043,3.1641-3.7617,3.1641l-.4102-.0352-.8086-.1523v-1.7578l.5859.0469c.7344,0,1.3066-.1484,1.7168-.4453s.748-.8398,1.0137-1.6289l.4805-1.2891-4.5234-12.5391h2.3672l3.1641,9.5039Z" stroke-width="0"/></svg>