<svg xmlns="http://www.w3.org/2000/svg" width="1140" height="231" viewBox="0 0 1140 231"><defs><style>.a{fill:#f1ece0;}.b{fill:#fff;}.b,.d{stroke:#000;stroke-miterlimit:10;stroke-width:2px;}.c{fill:#231f20;}.d{fill:none;}</style></defs><path class="a" d="M597.152,6.607C820.2,5.947,987.4,2.365,1043,15c88,20,96,81,93.473,111.971-2.7,33.078-5.672,66.182-111.722,87.133-39.6,7.823-204.136,9.726-353.1,10.942-67.13.548-386.2,8.916-569.648-13.779-76.7-9.489-86.669-35.6-92.412-62.006C4.327,125.057,11.175,66.262,80,43,177.887,9.915,378.584,7.253,597.152,6.607"/><circle class="b" cx="605.031" cy="128.583" r="35.031"/><path class="c" d="M621.39,142.281l-2.711,2.768-13.668-13.611L591.4,145.049l-2.71-2.71,13.553-13.669-13.553-13.61,2.768-2.711L605.011,125.9l13.668-13.553L621.39,115,607.837,128.67Z"/><path d="M95.294,135.666a5.126,5.126,0,0,1-.343-1.5,5.443,5.443,0,0,1-4.06,1.766,5.032,5.032,0,0,1-3.461-1.193,3.859,3.859,0,0,1-1.351-3.026,4.032,4.032,0,0,1,1.693-3.46,7.99,7.99,0,0,1,4.767-1.233h2.373V125.9a2.737,2.737,0,0,0-.765-2.036,3.07,3.07,0,0,0-2.254-.758,3.553,3.553,0,0,0-2.189.659,1.941,1.941,0,0,0-.883,1.595H86.369a3.367,3.367,0,0,1,.758-2.064,5.17,5.17,0,0,1,2.057-1.575,6.924,6.924,0,0,1,2.854-.58A5.636,5.636,0,0,1,95.9,122.37a4.449,4.449,0,0,1,1.451,3.395v6.565a8.03,8.03,0,0,0,.5,3.125v.211Zm-4.047-1.859a4.284,4.284,0,0,0,2.175-.594,3.59,3.59,0,0,0,1.49-1.542v-2.927H93q-4.482,0-4.482,2.624a2.221,2.221,0,0,0,.764,1.793A2.944,2.944,0,0,0,91.247,133.807Z"/><path d="M106.8,128.006a20.4,20.4,0,0,1-.771,5.636,16.675,16.675,0,0,1-2.36,4.977,10.349,10.349,0,0,1-3.329,3.243l-.514-1.49a10.6,10.6,0,0,0,3.263-4.831,20.913,20.913,0,0,0,1.259-7.271v-.422a21.683,21.683,0,0,0-.58-5.148,17.363,17.363,0,0,0-1.615-4.265,9.854,9.854,0,0,0-2.327-2.94l.514-1.49a10.3,10.3,0,0,1,3.316,3.217,16.7,16.7,0,0,1,2.36,4.97A20.856,20.856,0,0,1,106.8,128.006Z"/><rect class="b" x="170.662" y="100.08" width="235.709" height="58.233"/><line class="d" x1="299.688" y1="129.196" x2="258.355" y2="129.196"/><polygon points="296.77 119.223 314.041 129.196 296.77 139.169 296.77 119.223"/><rect class="b" x="764.173" y="70.963" width="235.709" height="58.233" transform="translate(1759.49 -34.258) rotate(164.822)"/><line class="d" x1="871.244" y1="103.005" x2="911.135" y2="92.183"/><polygon points="876.672 111.865 857.393 106.762 871.45 92.616 876.672 111.865"/><path d="M501.925,128.691a8.478,8.478,0,0,1-1.5,5.254,4.8,4.8,0,0,1-4.034,1.984,4.973,4.973,0,0,1-4.18-1.912l-.118,1.649h-2.241v-20.25h2.439v7.554a4.945,4.945,0,0,1,4.073-1.833,4.83,4.83,0,0,1,4.08,1.964,8.734,8.734,0,0,1,1.484,5.379Zm-2.439-.276a6.587,6.587,0,0,0-.963-3.85,3.185,3.185,0,0,0-2.768-1.358,3.581,3.581,0,0,0-3.467,2.242v6.17a3.679,3.679,0,0,0,3.493,2.24,3.166,3.166,0,0,0,2.729-1.358A7,7,0,0,0,499.486,128.415Z"/><path d="M510.626,128.005a20.4,20.4,0,0,1-.771,5.637,16.7,16.7,0,0,1-2.36,4.977,10.349,10.349,0,0,1-3.329,3.243l-.514-1.489a10.621,10.621,0,0,0,3.263-4.832,20.938,20.938,0,0,0,1.259-7.272v-.422a21.726,21.726,0,0,0-.58-5.147,17.419,17.419,0,0,0-1.615-4.265,9.854,9.854,0,0,0-2.327-2.94l.514-1.49a10.3,10.3,0,0,1,3.316,3.217,16.69,16.69,0,0,1,2.359,4.97A20.859,20.859,0,0,1,510.626,128.005Z"/><path d="M706.09,133.939a3.515,3.515,0,0,0,2.281-.791,2.785,2.785,0,0,0,1.081-1.979h2.307a4.416,4.416,0,0,1-.844,2.334,5.555,5.555,0,0,1-2.076,1.767,6,6,0,0,1-2.749.659,5.876,5.876,0,0,1-4.634-1.944,7.745,7.745,0,0,1-1.721-5.319v-.41a8.581,8.581,0,0,1,.765-3.7,5.814,5.814,0,0,1,2.2-2.518,6.232,6.232,0,0,1,3.382-.9,5.72,5.72,0,0,1,3.987,1.437,5.138,5.138,0,0,1,1.7,3.731h-2.307a3.359,3.359,0,0,0-1.049-2.274,3.259,3.259,0,0,0-2.326-.89,3.415,3.415,0,0,0-2.881,1.338,6.29,6.29,0,0,0-1.021,3.87v.461a6.164,6.164,0,0,0,1.014,3.8A3.431,3.431,0,0,0,706.09,133.939Z"/><path d="M720.131,128.005a20.4,20.4,0,0,1-.772,5.637,16.651,16.651,0,0,1-2.36,4.977,10.347,10.347,0,0,1-3.328,3.243l-.515-1.489a10.606,10.606,0,0,0,3.263-4.832,20.915,20.915,0,0,0,1.26-7.272v-.422a21.726,21.726,0,0,0-.58-5.147,17.379,17.379,0,0,0-1.616-4.265,9.838,9.838,0,0,0-2.327-2.94l.515-1.49a10.29,10.29,0,0,1,3.315,3.217,16.693,16.693,0,0,1,2.36,4.97A20.859,20.859,0,0,1,720.131,128.005Z"/></svg>