<?xml version="1.0" encoding="UTF-8"?><svg id="a" xmlns="http://www.w3.org/2000/svg" width="1140" height="641" viewBox="0 0 1140 641"><defs><style>.i{stroke:#000;}.i,.j{stroke-miterlimit:10;stroke-width:2px;}.i,.k{fill:#fff;}.j{fill:none;stroke:#bcc1bf;}.l,.m,.n,.o,.p,.k,.q{stroke-width:0px;}.m{fill:#605858;}.n{fill:#bcc1bf;}.o{fill:#d12d32;}.p{fill:#969696;}.q{fill:#f4e4dc;}</style></defs><path id="b" class="q" d="m2.278,297.385C11.989-38.73,351.457,5.55,617.144,5.55s479.884,21.378,511.908,216.712c49.881,304.264-112.885,423.732-385.571,414.634-178.719-5.963-377.742,6.718-535.489-22.605C74.41,589.46-3.267,489.331,2.278,297.385Z"/><g id="c"><g id="d"><path class="p" d="m570,621.274c-68.854,0-133.587-26.813-182.274-75.5-48.687-48.688-75.5-113.42-75.5-182.273s26.813-133.587,75.5-182.274c48.688-48.687,113.42-75.5,182.274-75.5s133.587,26.813,182.274,75.5c48.687,48.688,75.5,113.42,75.5,182.274s-26.813,133.586-75.5,182.273c-48.688,48.687-113.42,75.5-182.274,75.5Z"/><path class="m" d="m570,605.522c-79.711.808-157.933-40.554-202.002-107.056-107.366-161.574,7.93-377.591,202.003-378.044,172.754-.257,290.567,176.616,224.52,336.079-35.991,89.116-128.491,150.365-224.521,149.021h0Zm0-.294c131.045,1.371,242.358-110.887,240.822-241.729.238-171.207-174.951-287.785-332.986-222.499-158.121,65.587-199.295,271.782-78.238,392.903,44.417,45.198,106.946,71.651,170.402,71.325h0Z"/><circle class="j" cx="570" cy="363.5" r="162.5"/><path class="n" d="m743.301,366.764l.035-2-24.952.6c.008-.622.024-1.241.024-1.864,0-3.181-.112-6.335-.309-9.466l13.307-.967-.139-1.996-13.296.966c-.216-2.832-.521-5.639-.894-8.424l13.343-1.894-.277-1.98-13.342,1.894c-.411-2.779-.893-5.534-1.456-8.26l12.936-2.631-.416-1.957-12.945,2.633c-.61-2.769-1.291-5.511-2.053-8.219l13.089-3.619-.551-1.922-13.1,3.622c-.797-2.689-1.665-5.348-2.607-7.971l12.63-4.334-.684-1.879-12.637,4.336c-.993-2.651-2.061-5.265-3.199-7.842l12.055-5.188-.814-1.826-12.058,5.189c-1.166-2.546-2.406-5.051-3.709-7.518l11.558-6.296-.939-1.766-11.559,6.297c-1.354-2.481-2.783-4.914-4.273-7.306l11.307-6.992-1.061-1.695-11.306,6.991c-1.54-2.401-3.155-4.748-4.827-7.052l10.705-7.872-1.176-1.617-10.707,7.874c-1.688-2.261-3.444-4.467-5.255-6.626l10.231-8.492-1.285-1.531-10.237,8.496c-1.822-2.114-3.705-4.173-5.641-6.18l9.698-9.227-1.389-1.439-9.707,9.235c-2.642-2.666-5.381-5.237-8.218-7.698l21.55-20.835-1.51-1.312-21.566,20.854c-2.146-1.812-4.34-3.569-6.588-5.259l7.893-10.476-1.598-1.203-7.906,10.493c-2.252-1.646-4.549-3.232-6.894-4.752l7.153-11.016-1.678-1.09-7.163,11.032c-2.374-1.493-4.792-2.921-7.254-4.281l6.41-11.563-1.75-.969-6.417,11.577c-2.455-1.313-4.952-2.557-7.487-3.733l5.596-12.002-1.812-.846-5.602,12.013c-2.555-1.144-5.15-2.212-7.778-3.213l4.779-12.451-1.867-.717-4.783,12.459c-2.609-.953-5.256-1.827-7.932-2.636l3.909-12.786-1.912-.584-3.913,12.8c-2.684-.772-5.399-1.468-8.143-2.09l3.031-13.129-1.949-.449-3.036,13.152c-2.747-.583-5.519-1.099-8.32-1.529l2.135-13.476-1.975-.312-2.14,13.51c-2.755-.384-5.533-.695-8.335-.926l1.201-13.723-1.992-.174-1.203,13.746c-2.753-.19-5.527-.302-8.32-.339l.241-25.828-2-.035-.242,25.838c-.011,0-.022,0-.033,0-3.869,0-7.699.164-11.494.455l-.457-14.22-1.996.139.458,14.232c-2.65.239-5.278.557-7.886.934l-1.863-14.189-1.98.278,1.866,14.211c-2.808.444-5.59.964-8.344,1.564l-2.718-14.068-1.957.416,2.723,14.095c-2.575.597-5.124,1.262-7.646,1.992l-4.144-13.826-1.922.551,4.146,13.832c-2.546.774-5.06,1.621-7.546,2.526l-5.469-13.387-1.879.684,5.474,13.401c-2.628.997-5.22,2.066-7.775,3.206l-6.363-13.107-1.826.814,6.371,13.123c-2.576,1.192-5.111,2.455-7.604,3.787l-7.136-12.734-1.766.939,7.142,12.744c-2.551,1.408-5.054,2.89-7.51,4.441l-7.238-11.584-1.695,1.061,7.251,11.604c-2.287,1.487-4.529,3.036-6.726,4.644l-7.691-10.586-1.617,1.176,7.697,10.595c-2.331,1.754-4.607,3.577-6.829,5.463l-8.977-10.697-1.531,1.285,8.995,10.719c-1.951,1.701-3.856,3.453-5.715,5.252l-18.429-18.764-1.439,1.389,18.432,18.766c-2.016,2.003-3.975,4.064-5.873,6.179l-10.142-9.131-1.338,1.486,10.165,9.152c-2.327,2.664-4.571,5.402-6.706,8.229l-11.868-8.751-1.203,1.598,11.879,8.76c-1.647,2.243-3.222,4.541-4.743,6.877l-11.508-7.473-1.09,1.678,11.519,7.48c-1.467,2.321-2.882,4.679-4.221,7.084l-12.964-6.89-.969,1.75,12.967,6.891c-1.311,2.43-2.544,4.908-3.72,7.418l-12.338-5.753-.846,1.812,12.348,5.758c-1.137,2.515-2.217,5.061-3.216,7.648l-13.788-5.293-.717,1.867,13.794,5.295c-.998,2.692-1.913,5.424-2.757,8.188l-13.349-4.081-.584,1.912,13.369,4.087c-.738,2.537-1.424,5.096-2.027,7.688l-14.29-3.299-.449,1.949,14.306,3.303c-.559,2.557-1.038,5.144-1.463,7.749l-13.529-2.143-.312,1.975,13.528,2.142c-.419,2.809-.77,5.641-1.03,8.499l-14.633-1.231-.174,1.992,14.629,1.231c-.212,2.736-.347,5.493-.41,8.269l-25.512.764-.035,2,25.519-.764c-.004.451-.013.9-.013,1.352,0,2.325.061,4.635.167,6.933l-14.311.729.105,1.998,14.314-.729c.21,3.538.539,7.044.993,10.511l-13.964,1.963.279,1.98,13.962-1.962c.399,2.762.868,5.502,1.418,8.213l-14.125,3.003.416,1.957,14.128-3.003c.585,2.699,1.241,5.37,1.971,8.012l-13.511,3.874.551,1.922,13.505-3.872c.779,2.678,1.634,5.323,2.557,7.936l-13.531,4.925.684,1.879,13.52-4.921c.955,2.589,1.985,5.141,3.078,7.66l-12.799,5.698.812,1.826,12.788-5.693c1.144,2.541,2.361,5.042,3.641,7.505l-12.671,6.737.939,1.766,12.665-6.734c1.304,2.429,2.672,4.819,4.106,7.165l-11.835,7.396,1.061,1.695,11.833-7.395c1.454,2.309,2.964,4.579,4.539,6.8l-11.553,8.394,1.176,1.617,11.553-8.393c1.625,2.227,3.307,4.41,5.051,6.541l-21.626,18.917,1.285,1.531,21.621-18.913c1.793,2.132,3.643,4.213,5.552,6.24l-10.204,9.854,1.389,1.439,10.196-9.847c1.917,1.982,3.889,3.91,5.914,5.783l-9.208,10.226,1.486,1.338,9.195-10.213c2.638,2.376,5.361,4.659,8.165,6.844l-9.076,12.043,1.598,1.203,9.066-12.03c2.216,1.679,4.477,3.302,6.788,4.857l-8.194,12.617,1.678,1.09,8.188-12.607c2.313,1.512,4.666,2.967,7.066,4.351l-7.244,13.068,1.75.969,7.238-13.058c2.428,1.357,4.895,2.651,7.405,3.873l-6.3,13.51,1.812.846,6.294-13.497c2.501,1.176,5.039,2.285,7.614,3.323l-5.307,13.825,1.867.717,5.3-13.805c2.593,1.005,5.222,1.936,7.884,2.796l-4.319,14.131,1.912.584,4.312-14.105c2.64.815,5.314,1.551,8.016,2.22l-3.303,14.305,1.949.449,3.297-14.28c2.672.623,5.372,1.172,8.098,1.649l-2.272,14.345,1.975.312,2.27-14.331c2.73.44,5.483.811,8.261,1.099l-1.257,14.37,1.992.174,1.256-14.359c2.771.25,5.563.425,8.376.521l-.251,26.396,2,.035.251-26.373c1.047.022,2.094.04,3.146.04,2.599,0,5.182-.068,7.748-.2l.976,13.965,1.996-.139-.976-13.953c2.8-.182,5.58-.437,8.336-.772l1.932,13.749,1.98-.279-1.929-13.726c2.778-.375,5.531-.829,8.257-1.356l2.879,13.544,1.957-.416-2.872-13.514c2.747-.57,5.465-1.221,8.154-1.94l3.783,13.194,1.922-.551-3.775-13.166c2.698-.761,5.363-1.6,7.996-2.508l4.685,12.869,1.879-.684-4.678-12.849c2.64-.95,5.247-1.969,7.815-3.062l5.525,12.41,1.826-.813-5.52-12.398c2.563-1.132,5.093-2.327,7.578-3.598l6.37,11.981,1.766-.939-6.365-11.972c2.48-1.311,4.921-2.685,7.316-4.129l7.143,11.43,1.695-1.061-7.136-11.419c2.383-1.482,4.722-3.027,7.012-4.637l7.82,10.763,1.617-1.176-7.811-10.75c2.276-1.647,4.504-3.356,6.68-5.126l8.495,10.124,1.531-1.285-8.483-10.11c2.153-1.8,4.252-3.66,6.299-5.577l9.178,9.504,1.439-1.389-9.164-9.49c2.024-1.948,3.99-3.954,5.902-6.013l19.753,18.781,1.338-1.486-19.735-18.766c.17-.188.335-.379.504-.568l1.328-1.496c1.849-2.123,3.634-4.302,5.361-6.528l10.908,8.082,1.203-1.598-10.894-8.072c1.682-2.229,3.302-4.508,4.859-6.832l11.37,7.482,1.09-1.678-11.36-7.475c1.534-2.36,3.007-4.763,4.408-7.213l12.447,6.654.969-1.75-12.439-6.65c1.354-2.443,2.648-4.923,3.866-7.447l12.841,5.843.846-1.812-12.84-5.842c1.188-2.551,2.311-5.138,3.356-7.766l12.325,4.974.717-1.867-12.322-4.972c.996-2.607,1.922-5.248,2.773-7.924l12.832,3.806.584-1.912-12.824-3.804c.816-2.69,1.555-5.414,2.219-8.166l13.183,2.813.449-1.949-13.171-2.81c.626-2.76,1.17-5.55,1.641-8.366l14.182,2.052.312-1.975-14.168-2.049c.425-2.777.766-5.582,1.035-8.407l13.421,1.086.174-1.992-13.418-1.086c.227-2.777.385-5.573.458-8.391l24.943-.6Z"/></g><path id="e" class="m" d="m689.415,359.064c0-.074.016-.146.019-.219.008-.193.02-.386.051-.578l-94.824-10.226,33.261-45.842c-.179-.144-.354-.292-.514-.453-.052-.052-.095-.111-.145-.164-.133-.141-.264-.283-.384-.433l-45.735,33.183-10.241-94.967c-.228.036-.456.064-.684.064-.074,0-.146-.016-.219-.02-.193-.008-.386-.02-.578-.051l-10.226,94.824-45.842-33.261c-.144.179-.292.353-.453.514-.052.052-.111.095-.164.145-.141.133-.283.263-.433.384l33.183,45.735-94.967,10.241c.036.228.064.457.064.684,0,.074-.016.146-.019.219-.008.193-.02.386-.051.578l94.824,10.226-33.261,45.842c.179.144.353.292.514.453.052.052.095.111.145.164.133.141.264.283.384.433l45.674-33.139,10.3,95.508c.229-.036.458-.064.685-.064.074,0,.146.016.219.02.194.009.387.02.579.051l10.251-95.057,45.954,33.343c.145-.179.293-.354.454-.516.052-.052.111-.096.165-.146.141-.133.284-.264.434-.385l-33.484-46.15,95.126-10.259c-.036-.228-.064-.457-.064-.684Z"/><g id="f"><circle class="i" cx="568.241" cy="160.3" r="30"/><circle class="i" cx="568.386" cy="568.818" r="30"/><circle class="i" cx="364.743" cy="363.403" r="30"/><circle class="i" cx="774.119" cy="365.403" r="30"/></g><g id="g"><circle class="k" cx="569.241" cy="357.404" r="26.18"/><path class="o" d="m569.168,180.425h-.002c-.158-1.603-.981-2.829-1.972-2.822-.967.006-1.763,1.182-1.929,2.73h-.002s-8.951,177.148-8.951,177.148l11.903-.077,12.189-.079-11.237-176.9Z"/><path class="k" d="m567.069,534.371h.002c.148,1.604.962,2.835,1.953,2.835.967,0,1.771-1.17,1.946-2.717h.002s10.098-177.087,10.098-177.087h-11.903s-12.19,0-12.19,0l10.091,176.969Z"/><circle class="p" cx="568.241" cy="357.404" r="15.347"/></g></g><g id="h"><path class="l" d="m449.59,64.141l5.479,15.469,5.449-15.469h5.771v21.328h-4.408v-5.83l.439-10.063-5.758,15.894h-3.018l-5.742-15.879.439,10.049v5.83h-4.395v-21.328h5.742Z"/><path class="l" d="m479.033,85.469c-.195-.381-.336-.854-.424-1.421-1.025,1.143-2.359,1.714-4,1.714-1.553,0-2.839-.449-3.859-1.348s-1.531-2.031-1.531-3.398c0-1.68.623-2.969,1.868-3.867s3.044-1.353,5.397-1.362h1.949v-.908c0-.732-.188-1.318-.564-1.758s-.969-.659-1.779-.659c-.713,0-1.272.171-1.678.513s-.607.811-.607,1.406h-4.234c0-.918.283-1.768.85-2.549s1.367-1.394,2.402-1.839c1.035-.443,2.197-.666,3.486-.666,1.953,0,3.504.49,4.651,1.473,1.147.98,1.722,2.36,1.722,4.138v6.87c.01,1.504.219,2.642.629,3.413v.249h-4.277Zm-3.5-2.944c.625,0,1.201-.14,1.729-.417.527-.279.918-.652,1.172-1.121v-2.725h-1.582c-2.119,0-3.248.732-3.385,2.197l-.014.249c0,.527.186.962.557,1.304s.879.513,1.523.513Z"/><path class="l" d="m485.318,77.427c0-2.432.578-4.39,1.735-5.874s2.718-2.227,4.681-2.227c1.738,0,3.09.596,4.057,1.787l.176-1.494h3.838v15.322c0,1.387-.314,2.593-.944,3.618s-1.517,1.807-2.659,2.344-2.48.806-4.014.806c-1.162,0-2.295-.232-3.398-.695-1.104-.465-1.938-1.062-2.504-1.795l1.875-2.578c1.055,1.182,2.334,1.772,3.838,1.772,1.123,0,1.996-.3,2.621-.901.625-.6.938-1.452.938-2.556v-.85c-.977,1.104-2.26,1.655-3.852,1.655-1.904,0-3.445-.744-4.622-2.234-1.177-1.488-1.765-3.464-1.765-5.925v-.176Zm4.232.315c0,1.438.289,2.564.865,3.382.576.816,1.367,1.225,2.373,1.225,1.289,0,2.211-.484,2.768-1.452v-6.676c-.566-.968-1.479-1.452-2.738-1.452-1.016,0-1.814.416-2.396,1.247s-.872,2.073-.872,3.727Z"/><path class="l" d="m506.953,69.62l.133,1.831c1.133-1.416,2.65-2.124,4.555-2.124,1.68,0,2.93.493,3.75,1.479s1.24,2.461,1.26,4.424v10.239h-4.232v-10.137c0-.898-.195-1.55-.586-1.955s-1.041-.608-1.949-.608c-1.191,0-2.084.508-2.68,1.523v11.177h-4.234v-15.85h3.984Z"/><path class="l" d="m527.154,85.762c-2.324,0-4.217-.713-5.677-2.139s-2.19-3.325-2.19-5.698v-.41c0-1.592.309-3.015.924-4.271.615-1.254,1.486-2.221,2.614-2.9,1.128-.678,2.415-1.018,3.86-1.018,2.168,0,3.874.684,5.119,2.051s1.867,3.306,1.867,5.815v1.729h-10.092c.137,1.035.549,1.865,1.237,2.49s1.56.938,2.614.938c1.631,0,2.906-.591,3.824-1.772l2.08,2.329c-.635.898-1.494,1.6-2.578,2.103-1.084.502-2.285.754-3.604.754Zm-.484-13.022c-.84,0-1.521.284-2.043.854s-.857,1.383-1.004,2.442h5.889v-.339c-.02-.941-.273-1.67-.762-2.185s-1.182-.772-2.08-.772Z"/><path class="l" d="m541.143,65.723v3.896h2.711v3.105h-2.711v7.91c0,.586.113,1.006.338,1.26s.654.381,1.289.381c.469,0,.883-.034,1.244-.103v3.208c-.83.254-1.684.381-2.562.381-2.969,0-4.482-1.499-4.541-4.497v-8.54h-2.314v-3.105h2.314v-3.896h4.232Z"/><path class="l" d="m546.182,65.518c0-.635.213-1.157.638-1.567s1.003-.615,1.735-.615c.723,0,1.299.205,1.729.615s.645.933.645,1.567c0,.645-.217,1.172-.651,1.582s-1.009.615-1.722.615-1.286-.205-1.721-.615-.652-.938-.652-1.582Zm4.498,19.951h-4.248v-15.85h4.248v15.85Z"/><path class="l" d="m560.758,82.349c.781,0,1.416-.215,1.904-.645s.742-1.001.762-1.714h3.969c-.01,1.074-.303,2.059-.879,2.951-.576.895-1.364,1.588-2.365,2.08-1.001.493-2.107.74-3.318.74-2.266,0-4.053-.72-5.361-2.16s-1.963-3.431-1.963-5.97v-.278c0-2.441.65-4.39,1.949-5.845s3.08-2.183,5.346-2.183c1.982,0,3.572.564,4.769,1.691,1.196,1.129,1.804,2.63,1.823,4.505h-3.969c-.02-.824-.273-1.494-.762-2.01s-1.133-.773-1.934-.773c-.986,0-1.731.359-2.234,1.078s-.754,1.886-.754,3.499v.44c0,1.633.248,2.807.746,3.521.498.715,1.256,1.071,2.271,1.071Z"/><path class="l" d="m583.873,82.349c.781,0,1.416-.215,1.904-.645s.742-1.001.762-1.714h3.969c-.01,1.074-.303,2.059-.879,2.951-.576.895-1.364,1.588-2.365,2.08-1.001.493-2.107.74-3.318.74-2.266,0-4.053-.72-5.361-2.16s-1.963-3.431-1.963-5.97v-.278c0-2.441.65-4.39,1.949-5.845s3.08-2.183,5.346-2.183c1.982,0,3.572.564,4.769,1.691,1.196,1.129,1.804,2.63,1.823,4.505h-3.969c-.02-.824-.273-1.494-.762-2.01s-1.133-.773-1.934-.773c-.986,0-1.731.359-2.234,1.078s-.754,1.886-.754,3.499v.44c0,1.633.248,2.807.746,3.521.498.715,1.256,1.071,2.271,1.071Z"/><path class="l" d="m592.266,77.398c0-1.572.303-2.974.908-4.204s1.478-2.183,2.615-2.856,2.459-1.011,3.963-1.011c2.139,0,3.884.654,5.236,1.963s2.107,3.086,2.264,5.332l.029,1.084c0,2.432-.68,4.383-2.037,5.852-1.357,1.471-3.178,2.205-5.463,2.205s-4.109-.732-5.472-2.197-2.044-3.457-2.044-5.977v-.19Zm4.234.301c0,1.506.283,2.658.85,3.455s1.377,1.195,2.432,1.195c1.025,0,1.826-.394,2.402-1.181.576-.788.863-2.047.863-3.778,0-1.477-.287-2.621-.863-3.433s-1.387-1.218-2.432-1.218c-1.035,0-1.836.403-2.402,1.21-.566.808-.85,2.057-.85,3.749Z"/><path class="l" d="m613.857,69.62l.133,1.772c1.123-1.377,2.641-2.065,4.555-2.065,2.041,0,3.443.806,4.205,2.417,1.113-1.611,2.699-2.417,4.76-2.417,1.719,0,2.998.501,3.838,1.502s1.26,2.507,1.26,4.519v10.122h-4.248v-10.107c0-.898-.176-1.555-.527-1.971-.352-.414-.971-.622-1.859-.622-1.27,0-2.148.605-2.637,1.816l.014,10.884h-4.232v-10.093c0-.918-.182-1.582-.543-1.992s-.977-.615-1.846-.615c-1.201,0-2.07.498-2.607,1.494v11.206h-4.232v-15.85h3.969Z"/><path class="l" d="m650.127,77.691c0,2.441-.554,4.397-1.662,5.866-1.108,1.471-2.605,2.205-4.49,2.205-1.602,0-2.895-.557-3.881-1.67v7.471h-4.234v-21.943h3.926l.146,1.553c1.025-1.23,2.363-1.846,4.014-1.846,1.953,0,3.473.723,4.557,2.168s1.625,3.438,1.625,5.977v.22Zm-4.232-.308c0-1.475-.262-2.612-.784-3.413s-1.282-1.201-2.278-1.201c-1.328,0-2.24.508-2.738,1.523v6.489c.518,1.045,1.439,1.567,2.768,1.567,2.021,0,3.033-1.655,3.033-4.966Z"/><path class="l" d="m661.934,85.469c-.195-.381-.336-.854-.424-1.421-1.025,1.143-2.359,1.714-4,1.714-1.553,0-2.839-.449-3.859-1.348s-1.531-2.031-1.531-3.398c0-1.68.623-2.969,1.868-3.867s3.044-1.353,5.397-1.362h1.949v-.908c0-.732-.189-1.318-.564-1.758-.377-.439-.969-.659-1.779-.659-.713,0-1.272.171-1.678.513s-.607.811-.607,1.406h-4.234c0-.918.283-1.768.85-2.549s1.367-1.394,2.402-1.839c1.035-.443,2.197-.666,3.486-.666,1.953,0,3.504.49,4.65,1.473,1.148.98,1.723,2.36,1.723,4.138v6.87c.01,1.504.219,2.642.629,3.413v.249h-4.277Zm-3.5-2.944c.625,0,1.201-.14,1.729-.417.527-.279.918-.652,1.172-1.121v-2.725h-1.582c-2.119,0-3.248.732-3.385,2.197l-.014.249c0,.527.186.962.557,1.304s.879.513,1.523.513Z"/><path class="l" d="m677.418,81.089c0-.518-.258-.925-.77-1.224-.514-.297-1.336-.563-2.469-.798-3.77-.791-5.654-2.393-5.654-4.805,0-1.406.584-2.58,1.75-3.522,1.168-.942,2.693-1.414,4.578-1.414,2.012,0,3.621.474,4.826,1.421,1.207.947,1.811,2.178,1.811,3.691h-4.234c0-.605-.195-1.106-.586-1.501-.391-.396-1-.594-1.83-.594-.713,0-1.266.161-1.656.483s-.586.732-.586,1.23c0,.469.223.848.666,1.136.445.288,1.195.537,2.25.746,1.055.211,1.943.447,2.666.711,2.236.82,3.354,2.241,3.354,4.263,0,1.445-.619,2.614-1.859,3.509-1.24.893-2.842,1.34-4.805,1.34-1.328,0-2.508-.237-3.539-.711-1.029-.473-1.838-1.122-2.424-1.947s-.879-1.717-.879-2.674h4.014c.039.752.318,1.328.836,1.729s1.211.601,2.08.601c.811,0,1.422-.153,1.838-.462.414-.307.623-.71.623-1.208Z"/><path class="l" d="m692.842,81.089c0-.518-.256-.925-.768-1.224-.514-.297-1.336-.563-2.469-.798-3.77-.791-5.654-2.393-5.654-4.805,0-1.406.582-2.58,1.75-3.522,1.166-.942,2.693-1.414,4.578-1.414,2.012,0,3.619.474,4.826,1.421,1.205.947,1.809,2.178,1.809,3.691h-4.232c0-.605-.195-1.106-.586-1.501-.391-.396-1.002-.594-1.832-.594-.713,0-1.264.161-1.654.483s-.586.732-.586,1.23c0,.469.221.848.666,1.136.443.288,1.193.537,2.248.746,1.055.211,1.943.447,2.666.711,2.236.82,3.355,2.241,3.355,4.263,0,1.445-.621,2.614-1.861,3.509-1.24.893-2.842,1.34-4.805,1.34-1.328,0-2.508-.237-3.537-.711-1.031-.473-1.838-1.122-2.424-1.947s-.879-1.717-.879-2.674h4.014c.039.752.316,1.328.834,1.729s1.211.601,2.08.601c.811,0,1.424-.153,1.84-.462.414-.307.621-.71.621-1.208Z"/><path class="l" d="m576.466,169.46h-4.102l-7.984-13.098v13.098h-4.102v-19.906h4.102l7.998,13.125v-13.125h4.088v19.906Z"/><path class="l" d="m444.185,242.305l-2.9,2.9-14.908-3.617,9.262,9.262-2.9,2.9-14.075-14.075,2.9-2.9,14.937,3.626-9.281-9.281,2.891-2.891,14.076,14.076Z"/><path class="l" d="m453.62,224.749l-8.121-11.91,2.891-2.891,10.953,17.198-2.92,2.919-11.707-7.124,7.125,11.707-2.92,2.919-17.198-10.952,2.891-2.891,11.901,8.091-7.676-12.316,2.455-2.455,12.326,7.705Z"/><path class="l" d="m689.621,229.725l-2.896-2.904,3.635-14.902-9.273,9.248-2.896-2.904,14.096-14.057,2.896,2.904-3.646,14.932,9.294-9.268,2.887,2.895-14.095,14.057Z"/><path class="l" d="m706.717,234.649l-5.562-5.576-3.775,3.766,6.526,6.543-2.333,2.328-9.423-9.449,14.095-14.057,9.403,9.43-2.352,2.346-6.508-6.525-3.359,3.35,5.562,5.576-2.274,2.27Z"/><path class="l" d="m437.836,483.174c-.547.547-.774,1.161-.682,1.841.094.681.48,1.687,1.16,3.017s1.156,2.447,1.426,3.35c.734,2.463.371,4.424-1.092,5.888-.76.761-1.653,1.225-2.678,1.392-1.025.168-2.106.019-3.244-.449-1.137-.467-2.205-1.2-3.204-2.199-1.006-1.006-1.72-2.084-2.142-3.234-.423-1.149-.52-2.275-.291-3.373.229-1.1.766-2.07,1.61-2.915l2.9,2.9c-.644.644-.942,1.349-.895,2.112.049.764.44,1.513,1.175,2.248.709.709,1.41,1.109,2.103,1.203.693.094,1.284-.105,1.774-.595.457-.458.61-1.071.459-1.842-.151-.77-.539-1.737-1.164-2.905-1.154-2.146-1.741-3.963-1.76-5.451-.02-1.49.518-2.781,1.613-3.877,1.219-1.219,2.635-1.713,4.25-1.484,1.613.229,3.201,1.123,4.761,2.683,1.083,1.083,1.87,2.267,2.363,3.553s.629,2.507.406,3.664c-.222,1.157-.788,2.19-1.696,3.099l-2.91-2.91c1.553-1.553,1.402-3.258-.454-5.114-.689-.689-1.368-1.088-2.036-1.194-.666-.105-1.251.093-1.754.596Z"/><path class="l" d="m421.633,467.706l-11.91,8.121-2.891-2.891,17.199-10.953,2.92,2.92-7.125,11.707,11.707-7.125,2.92,2.92-10.953,17.197-2.891-2.891,8.091-11.9-12.315,7.676-2.456-2.455,7.704-12.326Z"/><path class="l" d="m705.936,484.151c.549.547,1.162.774,1.842.682.681-.094,1.686-.48,3.017-1.16s2.448-1.156,3.351-1.426c2.462-.735,4.424-.371,5.887,1.092.76.76,1.225,1.653,1.393,2.678.167,1.024.018,2.106-.449,3.244-.469,1.137-1.201,2.205-2.2,3.204-1.005,1.005-2.083,1.72-3.233,2.142-1.15.423-2.275.519-3.374.29s-2.071-.765-2.915-1.609l2.9-2.9c.645.644,1.349.942,2.112.895.764-.049,1.513-.44,2.247-1.175.709-.709,1.111-1.41,1.204-2.103.094-.693-.104-1.284-.595-1.774-.457-.457-1.071-.61-1.842-.459-.77.151-1.738.539-2.904,1.164-2.146,1.154-3.964,1.741-5.453,1.76-1.488.02-2.781-.518-3.877-1.613-1.218-1.219-1.713-2.635-1.484-4.25.23-1.613,1.124-3.201,2.684-4.761,1.083-1.083,2.268-1.87,3.553-2.364,1.285-.492,2.508-.629,3.664-.405,1.158.222,2.189.788,3.099,1.696l-2.91,2.91c-1.554-1.553-3.258-1.402-5.114.454-.689.689-1.088,1.368-1.193,2.035-.106.667.092,1.252.594,1.755Z"/><path class="l" d="m695.002,499.899l5.568-5.568-3.77-3.77-6.535,6.535-2.33-2.33,9.436-9.436,14.075,14.075-9.416,9.416-2.349-2.349,6.516-6.516-3.355-3.355-5.568,5.568-2.271-2.271Z"/><path class="l" d="m565.038,566.837c0,.774.273,1.369.82,1.784s1.531.853,2.953,1.312,2.548.914,3.377,1.36c2.261,1.222,3.391,2.866,3.391,4.936,0,1.075-.303,2.035-.909,2.878-.605.843-1.477,1.502-2.611,1.976s-2.408.711-3.821.711c-1.422,0-2.688-.258-3.801-.772s-1.976-1.242-2.591-2.181-.923-2.005-.923-3.199h4.102c0,.911.287,1.62.861,2.126s1.381.759,2.42.759c1.003,0,1.782-.212,2.338-.636s.834-.982.834-1.675c0-.647-.325-1.189-.978-1.627-.651-.438-1.611-.848-2.878-1.23-2.333-.702-4.033-1.572-5.1-2.611s-1.6-2.333-1.6-3.883c0-1.723.651-3.074,1.955-4.054s3.058-1.47,5.264-1.47c1.531,0,2.926.28,4.184.841s2.218,1.328,2.878,2.304c.661.976.991,2.105.991,3.391h-4.115c0-2.196-1.312-3.295-3.938-3.295-.976,0-1.736.198-2.283.595s-.82.95-.82,1.661Z"/><path class="l" d="m367.478,358.236l-14.164-2.68v-4.088l19.906,4.416v4.129l-13.316,3.24,13.316,3.24v4.129l-19.906,4.416v-4.088l14.137-2.693-14.137-3.281v-3.473l14.164-3.268Z"/><path class="l" d="m774.133,370.347v-7.875h-5.332v9.242h-3.295v-13.344h19.906v13.316h-3.322v-9.215h-4.744v7.875h-3.213Z"/></g></svg>