<svg xmlns="http://www.w3.org/2000/svg" xmlns:xlink="http://www.w3.org/1999/xlink" width="1140" height="600" viewBox="0 0 1140 600"><defs><style>.a,.ac,.ag,.ah,.am,.ap,.aq,.i,.t{fill:none;}.b{fill:#ddcbbf;}.aj,.c{fill:#262626;}.d{fill:#0a5082;}.e{clip-path:url(#a);}.f{fill:#e4e3e1;}.g{clip-path:url(#b);}.h{clip-path:url(#c);}.i{stroke:#262626;stroke-width:5px;}.ah,.ap,.aq,.i,.t,.u{stroke-linecap:round;}.aa,.ac,.am,.i{stroke-miterlimit:10;}.j{fill:#0b3647;}.k{fill:#f07f1a;}.l{fill:#eaeaea;}.m{fill:#f6a614;}.n{clip-path:url(#d);}.o{fill:#801b2c;}.p{clip-path:url(#e);}.q{opacity:0.6;}.r{opacity:0.9;}.s{fill:#fff;}.ag,.aj,.t{stroke:#0a5082;}.ah,.t,.u{stroke-width:3px;}.t{stroke-dasharray:6.017 6.017;}.u{fill:#c1e9ea;stroke:#085d66;}.v{fill:#a8aeab;}.w{fill:#329f7c;}.x{fill:#3e5c68;}.y{fill:#626fa3;}.z{fill:#45537f;}.aa{fill:#b9c6db;stroke:#465687;stroke-width:7px;}.ab{fill:#979ba5;}.ac{stroke:#70757f;}.ac,.am{stroke-width:6px;}.ad{fill:#9e1919;}.ae{fill:#cc7556;}.af{fill:#9b431c;}.ag,.aj{stroke-width:17px;}.ah{stroke:#d12d32;}.ah,.aq{stroke-linejoin:round;}.ai{fill:#d12d32;}.ak{fill:#1e634a;}.al{fill:#1c767f;}.am{stroke:#1c767f;stroke-dasharray:11.616 11.616;}.an{fill:#68bcb8;}.ao{fill:#cceaea;}.ap{stroke:#c1e9ea;}.ap,.aq{stroke-width:2px;}.aq{stroke:#000;}</style><clipPath id="a"><path class="a" d="M762.013,111.35c-127.785-2.142-265.294-1.2-303.533-1.2-15.585,0-34.826-.476-56.075-1.075a63.641,63.641,0,0,1-11.066-1.288c-10.565-2.178-37.2-6.784-73.553-6.784-38.441,0-59.848,2.68-70.236,4.594a159.272,159.272,0,0,1-20.339,2.444c-19.286,1.029-36.652,2.741-50.769,5.421C131.186,122.05,108.488,210.3,108.316,299.1h0c-.006.844,0,1.688,0,2.531s-.007,1.687,0,2.531h0c.172,88.791,22.87,177.045,68.126,185.636,14.117,2.68,31.483,4.392,50.769,5.421a159.252,159.252,0,0,1,20.339,2.445c10.388,1.914,31.8,4.593,70.236,4.593,36.349,0,62.988-4.606,73.553-6.784a63.641,63.641,0,0,1,11.066-1.288c21.249-.6,40.49-1.075,56.075-1.075,38.239,0,175.748.939,303.534-1.2a146.371,146.371,0,0,1,38.756,4.332c10.755,2.752,29.911,2.564,62.693,1.973,33.45-.6,53.941-2.283,65.693-6.426,12.389-4.368,25.188-13.417,38.248-14.86,13.272-1.466,23.7-3.134,30.544-5.031,41.385-11.468,37.357-88.486,38.733-170.2v-.132c-1.376-81.712,2.652-158.73-38.734-170.2-6.846-1.9-17.272-3.565-30.543-5.031-13.06-1.443-25.859-10.492-38.248-14.86-11.752-4.144-32.243-5.822-65.693-6.426-32.782-.591-51.938-.778-62.693,1.973A146.374,146.374,0,0,1,762.013,111.35Z"/></clipPath><clipPath id="b"><path class="a" d="M408.267,467.318l102.089-44.924h393.56c-19.591,19.532-47.018,35.158-84.241,41.017S408.267,467.318,408.267,467.318Z"/></clipPath><clipPath id="c"><path class="a" d="M408.267,135.939l102.089,44.924h393.56c-19.591-19.532-47.018-35.158-84.241-41.018S408.267,135.939,408.267,135.939Z"/></clipPath><clipPath id="d"><path class="a" d="M1003.856,129.99c6.535,26.749,15.009,61.051,20.486,83.178,2.17,8.767,13.855,10.893,19.181,3.494L1053,189.1c3.1-8.927.963-15.9-5.5-26.324l-25.269-42.42C1014.761,112.342,1001.273,119.417,1003.856,129.99Z"/></clipPath><clipPath id="e"><path class="a" d="M1003.856,475.768c6.535-26.75,15.009-61.051,20.486-83.178,2.17-8.768,13.856-10.893,19.181-3.494L1053,416.663c3.1,8.927.963,15.9-5.5,26.323l-25.269,42.421C1014.761,493.415,1001.273,486.341,1003.856,475.768Z"/></clipPath></defs><path class="b" d="M1104.981,468.25c-33.961,64.222-114.889,114.779-208.308,125.679-95.159,11.1-214.123-3.466-320.536-8.68-118.178-5.791-249.01,28.5-362.367,3.483-67.022-14.789-129.6-44.123-164.951-89.82C1.164,437.318-2.668,345.756,6.484,276.583,16.158,203.46,33.955,114.362,113.184,67.6,245.137-10.267,477.805.887,640.534,7.645c113.627,4.719,284.05,8.6,374.937,62.59,84.927,50.45,107.969,115.488,118.436,222.018q2.217,13.289,3.118,26.668S1140,405.22,1104.981,468.25Z"/><rect class="c" x="833.173" y="422.984" width="49.881" height="133.105" rx="14.655" transform="translate(1347.65 -368.577) rotate(90)"/><rect class="c" x="833.173" y="45.711" width="49.881" height="133.105" rx="14.655" transform="translate(970.377 -745.851) rotate(90)"/><rect class="c" x="286.098" y="418.057" width="59.735" height="133.105" rx="16.037" transform="translate(800.575 168.644) rotate(90)"/><rect class="c" x="286.971" y="50.843" width="60.145" height="133.105" rx="16.092" transform="translate(434.439 -199.648) rotate(90)"/><path class="d" d="M406.925,472.672s-1.93,49.934,18.207,61.981,37.591-2.677,40.276-8.031-28.193-54.878-28.193-54.878Z"/><path class="d" d="M406.924,130.585s-1.93-49.934,18.208-61.981,37.591,2.677,40.276,8.031-28.193,54.878-28.193,54.878Z"/><g class="e"><path class="d" d="M762.013,111.35c-127.785-2.142-265.294-1.2-303.533-1.2-15.585,0-34.826-.476-56.075-1.075a63.641,63.641,0,0,1-11.066-1.288c-10.565-2.178-37.2-6.784-73.553-6.784-38.441,0-59.848,2.68-70.236,4.594a159.272,159.272,0,0,1-20.339,2.444c-19.286,1.029-36.652,2.741-50.769,5.421C131.186,122.05,108.488,210.3,108.316,299.1h0c-.006.844,0,1.688,0,2.531s-.007,1.687,0,2.531h0c.172,88.791,22.87,177.045,68.126,185.636,14.117,2.68,31.483,4.392,50.769,5.421a159.252,159.252,0,0,1,20.339,2.445c10.388,1.914,31.8,4.593,70.236,4.593,36.349,0,62.988-4.606,73.553-6.784a63.641,63.641,0,0,1,11.066-1.288c21.249-.6,40.49-1.075,56.075-1.075,38.239,0,175.748.939,303.534-1.2a146.371,146.371,0,0,1,38.756,4.332c10.755,2.752,29.911,2.564,62.693,1.973,33.45-.6,53.941-2.283,65.693-6.426,12.389-4.368,25.188-13.417,38.248-14.86,13.272-1.466,23.7-3.134,30.544-5.031,41.385-11.468,37.357-88.486,38.733-170.2v-.132c-1.376-81.712,2.652-158.73-38.734-170.2-6.846-1.9-17.272-3.565-30.543-5.031-13.06-1.443-25.859-10.492-38.248-14.86-11.752-4.144-32.243-5.822-65.693-6.426-32.782-.591-51.938-.778-62.693,1.973A146.374,146.374,0,0,1,762.013,111.35Z"/><path class="f" d="M376.36,461.458l114.189-54.69V194.678L374.705,146.07C341.607,228.105,344.917,379.424,376.36,461.458Z"/><g class="g"><path class="f" d="M408.267,467.318l102.089-44.924h393.56c-19.591,19.532-47.018,35.158-84.241,41.017S408.267,467.318,408.267,467.318Z"/><path class="c" d="M643.034,417.9s3.085,36.151,1.922,56.337c0,0-41.572,2.132-42.51,2.322s3.926-27.572,6.163-60.949Z"/><polygon class="c" points="449.298 439.62 445.891 478.361 382.172 473.083 449.298 439.62"/><path class="c" d="M805.065,411.622s29.5,46.508,41.982,74.2c0,0-35.1,9.328-35.8,9.732s-9.416-35.767-37.963-81.734Z"/></g><g class="h"><path class="f" d="M408.267,135.939l102.089,44.924h393.56c-19.591-19.532-47.018-35.158-84.241-41.018S408.267,135.939,408.267,135.939Z"/><path class="c" d="M643.034,185.354s3.085-36.152,1.922-56.338c0,0-41.572-2.131-42.51-2.321s3.926,27.572,6.163,60.949Z"/><polygon class="c" points="449.297 163.636 445.891 124.895 382.172 130.174 449.297 163.636"/><path class="c" d="M805.065,191.635s29.5-46.508,41.982-74.2c0,0-35.1-9.327-35.8-9.731s-9.416,35.767-37.963,81.734Z"/></g><line class="i" x1="351.294" y1="324.511" x2="381.789" y2="434.267"/><line class="i" x1="355.961" y1="184.289" x2="381.789" y2="281.68"/><path class="j" d="M337.865,454.491q-19.476-.135-38.947-.478c-12.981-.182-25.96-.47-38.939-.754l-38.935-.907-38.934-.965-.665-.017-.274-.608a420.665,420.665,0,0,1-25.056-71.707,338.172,338.172,0,0,1-10.025-75.3,310.67,310.67,0,0,1,8.107-75.526,340.266,340.266,0,0,1,25.644-71.494l.275-.565.626-.03,40.277-1.968,40.281-1.905c13.427-.622,26.855-1.236,40.288-1.756q20.145-.843,40.3-1.49l.015.293q-20.121,1.362-40.25,2.526c-13.418.818-26.84,1.543-40.263,2.259l-40.27,2.111-40.274,2.048.9-.6a338.124,338.124,0,0,0-25.341,71.08,308.6,308.6,0,0,0-7.9,74.974,335.8,335.8,0,0,0,9.812,74.8A418.524,418.524,0,0,0,183.1,449.894l-.938-.624,38.932,1.042,38.931,1.1c12.976.385,25.952.766,38.926,1.254q19.463.666,38.92,1.53Z"/><path class="k" d="M122.4,477.543c-.356,0-.706-.018-1.061-.023,17.561,21.937,38.721,34.639,50.063,29.044,10.464-5.162,9.33-24.294-1.475-46.043C157.77,471.036,140.964,477.543,122.4,477.543Z"/><path class="l" d="M104.271,407.229c-12.842,6.335-8.226,33.708,10.31,61.138,2.165,3.2,4.431,6.252,6.753,9.153.355,0,.7.023,1.061.023,18.569,0,35.375-6.507,47.527-17.022a131.793,131.793,0,0,0-8.835-15.094C142.551,418,117.113,400.9,104.271,407.229Z"/><path class="k" d="M122.4,125.969c-.356,0-.706.019-1.061.023,17.56-21.937,38.72-34.639,50.063-29.044,10.464,5.162,9.33,24.3-1.475,46.043C157.77,132.476,140.964,125.969,122.4,125.969Z"/><path class="l" d="M104.271,196.283c-12.842-6.335-8.226-33.707,10.31-61.138,2.165-3.2,4.431-6.251,6.753-9.153.355,0,.7-.023,1.061-.023,18.569,0,35.375,6.507,47.527,17.022a131.889,131.889,0,0,1-8.835,15.1C142.551,185.516,117.113,202.618,104.271,196.283Z"/><rect class="c" x="52.076" y="287.666" width="108.417" height="24.165" transform="translate(-193.464 406.034) rotate(-90)"/><path class="m" d="M1003.856,129.99c6.535,26.749,15.009,61.051,20.486,83.178,2.17,8.767,13.855,10.893,19.181,3.494L1053,189.1c3.1-8.927.963-15.9-5.5-26.324l-25.269-42.42C1014.761,112.342,1001.273,119.417,1003.856,129.99Z"/><g class="n"><ellipse class="o" cx="1037.353" cy="200.841" rx="34.844" ry="41.993" transform="translate(-19.108 182.708) rotate(-9.974)"/></g><path class="m" d="M1003.856,475.768c6.535-26.75,15.009-61.051,20.486-83.178,2.17-8.768,13.856-10.893,19.181-3.494L1053,416.663c3.1,8.927.963,15.9-5.5,26.323l-25.269,42.421C1014.761,493.415,1001.273,486.341,1003.856,475.768Z"/><g class="p"><ellipse class="o" cx="1037.354" cy="404.917" rx="41.993" ry="34.844" transform="translate(458.885 1356.459) rotate(-80.026)"/></g><rect class="c" x="986.467" y="287.666" width="108.417" height="24.165" transform="translate(740.927 1340.424) rotate(-90)"/><path class="f" d="M999.058,439.62l-61.452-32.852V182.15l61.451-20.934C1016.854,243.25,1015.964,357.586,999.058,439.62Z"/><polyline class="d" points="927.904 430.251 968.18 414.189 969.522 181.293 927.904 165.538"/><path class="j" d="M927.85,430.115c3.3-1.474,6.63-2.885,9.947-4.322s6.659-2.81,9.988-4.218,6.658-2.813,10.009-4.164l10.037-4.1-.593.87c-.015-19.409.125-38.817.18-58.225l.226-58.225.446-58.223.49-58.223.608.886-10.372-4.022c-3.463-1.326-6.9-2.715-10.348-4.088s-6.9-2.731-10.328-4.142-6.871-2.8-10.288-4.246l.1-.275c3.52,1.177,7.015,2.418,10.521,3.631s6.987,2.492,10.482,3.735,6.987,2.49,10.461,3.79l10.436,3.855.611.225,0,.662-.181,58.225-.225,58.224-.445,58.223c-.169,19.408-.253,38.816-.491,58.223l-.008.642-.585.228L958.427,419c-3.361,1.326-6.748,2.587-10.128,3.867s-6.754,2.573-10.149,3.813-6.781,2.506-10.191,3.709Z"/><g class="q"><path class="j" d="M523.807,391.288c32.556-.93,65.112-.845,97.668-.912l97.668-.145,97.668.152c32.556.047,65.112.048,97.668.905v.294c-32.556.857-65.112.858-97.668.905l-97.668.152-97.668-.145c-32.556-.067-65.112.018-97.668-.912Z"/><path class="j" d="M523.807,211.932c32.556-.93,65.112-.845,97.668-.912l97.668-.146,97.668.152c32.556.048,65.112.048,97.668.905v.294c-32.556.857-65.112.858-97.668.905l-97.668.152-97.668-.145c-32.556-.067-65.112.018-97.668-.912Z"/><path class="j" d="M523.807,346.449c32.556-.93,65.112-.845,97.668-.912l97.668-.145,97.668.152c32.556.047,65.112.048,97.668.905v.294c-32.556.857-65.112.857-97.668.905l-97.668.152-97.668-.145c-32.556-.067-65.112.018-97.668-.912Z"/><path class="j" d="M523.807,256.771c32.556-.93,65.112-.845,97.668-.912l97.668-.146,97.668.153c32.556.047,65.112.047,97.668.905v.293c-32.556.858-65.112.858-97.668.9l-97.668.153-97.668-.146c-32.556-.067-65.112.018-97.668-.912Z"/><path class="j" d="M523.807,301.61c32.556-.93,65.112-.845,97.668-.912l97.668-.145,97.668.152c32.556.047,65.112.047,97.668.905v.293c-32.556.858-65.112.858-97.668.906l-97.668.152-97.668-.146c-32.556-.066-65.112.018-97.668-.911Z"/></g></g><g class="r"><rect class="s" x="144.867" y="134.347" width="809.208" height="334.563" rx="161.792"/><rect class="t" x="144.867" y="134.347" width="809.208" height="334.563" rx="161.792"/></g><path class="u" d="M551.766,230.405H462.91c-17.583,0-31.837,12.945-31.837,28.914v30.627H398.314v37.443h32.759V382.63H583.14V258.9C583.14,243.161,569.093,230.405,551.766,230.405Z"/><rect class="v" x="792.504" y="299.96" width="18.942" height="16.153" rx="3.603" transform="translate(493.938 1110.012) rotate(-90)"/><rect class="w" x="821.25" y="254.45" width="63.805" height="108.171" rx="10.542" transform="translate(544.618 1161.688) rotate(-90)"/><path class="w" d="M835.9,276.633H808.113c-4.975,0-9.046,6.281-9.046,13.957v35.89c0,7.677,4.071,13.958,9.046,13.958H835.9Z"/><path class="x" d="M799.063,316.559c-.987-1.53-.832-3.061-.935-4.591q-.122-2.3-.124-4.592c0-1.53.058-3.061.134-4.591a9.093,9.093,0,0,1,.925-4.592.172.172,0,0,1,.235-.059.175.175,0,0,1,.059.059,9.093,9.093,0,0,1,.925,4.592c.077,1.53.134,3.061.135,4.591s-.044,3.061-.125,4.592c-.1,1.53.053,3.061-.935,4.591a.174.174,0,0,1-.242.052A.172.172,0,0,1,799.063,316.559Z"/><rect class="y" x="356.714" y="285.373" width="13.549" height="44.423"/><path class="z" d="M342.016,277.252H296.77c-3.29,0-5.194-4.19-3.265-7.185L306,250.665a3.909,3.909,0,0,1,3.265-1.873h21.513a3.937,3.937,0,0,1,3.377,2.058l11.24,19.4C347.139,273.264,345.215,277.252,342.016,277.252Z"/><path class="z" d="M338.871,338.068H293.825c-3.275,0-5.17,4.189-3.25,7.184l12.437,19.4a3.89,3.89,0,0,0,3.251,1.874h21.418a3.92,3.92,0,0,0,3.362-2.058l11.19-19.4C343.971,342.055,342.056,338.068,338.871,338.068Z"/><rect class="z" x="307.386" y="180.269" width="25.495" height="71.27"/><rect class="z" x="304.296" y="364.973" width="25.495" height="62.47"/><rect class="y" x="275.02" y="259.075" width="84.046" height="95.125" rx="3.427"/><path class="aa" d="M341.061,339.932a41.09,41.09,0,1,1,8.3-57.512A41.1,41.1,0,0,1,341.061,339.932Z"/><path class="ab" d="M325.9,319.65a15.767,15.767,0,1,1,3.184-22.067A15.768,15.768,0,0,1,325.9,319.65Z"/><rect class="c" x="363.489" y="285.848" width="17.356" height="43.562"/><line class="ac" x1="307.969" y1="300.156" x2="323.962" y2="313.324"/><circle class="ad" cx="372.167" cy="295.606" r="4.619"/><rect class="ae" x="638.598" y="195.234" width="48.292" height="76.37"/><ellipse class="ae" cx="662.863" cy="272.433" rx="24.146" ry="6.194"/><ellipse class="ae" cx="662.863" cy="195.969" rx="24.146" ry="6.194"/><rect class="ae" x="633.952" y="203.004" width="4.765" height="63.234"/><rect class="af" x="642.435" y="203.004" width="39.123" height="4.286"/><rect class="af" x="642.435" y="209.677" width="39.123" height="4.286"/><rect class="af" x="642.435" y="216.349" width="39.123" height="4.286"/><rect class="af" x="642.435" y="223.021" width="39.123" height="4.286"/><rect class="af" x="642.435" y="229.694" width="39.123" height="4.286"/><rect class="af" x="642.435" y="236.366" width="39.123" height="4.286"/><rect class="af" x="642.435" y="243.038" width="39.123" height="4.286"/><rect class="af" x="642.435" y="249.711" width="39.123" height="4.286"/><rect class="af" x="642.435" y="256.383" width="39.123" height="4.286"/><rect class="af" x="642.435" y="263.055" width="39.123" height="4.286"/><polyline class="ag" points="583.959 308.535 619.788 308.535 619.788 233.781 633.471 233.781"/><polyline class="ag" points="619.788 308.535 619.788 367.532 636.141 367.532"/><polyline class="ah" points="703.796 233.851 727.32 233.851 727.32 367.953"/><polygon class="ai" points="706.86 244.322 688.726 233.851 706.86 223.379 706.86 244.322"/><line class="ah" x1="706.502" y1="367.953" x2="727.32" y2="367.953"/><polygon class="ai" points="709.566 378.424 691.432 367.953 709.566 357.481 709.566 378.424"/><line class="ah" x1="770.822" y1="307.125" x2="727.32" y2="307.125"/><polygon class="ai" points="767.758 296.654 785.892 307.125 767.758 317.596 767.758 296.654"/><path d="M187.588,243.579V226.516H192.4a7.757,7.757,0,0,1,3.938.984,6.664,6.664,0,0,1,2.642,2.8,9.122,9.122,0,0,1,.944,4.172v1.09a9.146,9.146,0,0,1-.932,4.23,6.559,6.559,0,0,1-2.66,2.79,8.254,8.254,0,0,1-4.025,1Zm2.25-15.223v13.383h2.367a5.152,5.152,0,0,0,4.049-1.619,6.685,6.685,0,0,0,1.447-4.609v-1a6.8,6.8,0,0,0-1.365-4.522,4.859,4.859,0,0,0-3.873-1.636Z"/><path d="M203,227.536a1.293,1.293,0,0,1,.322-.891,1.212,1.212,0,0,1,.955-.363,1.228,1.228,0,0,1,.961.363,1.279,1.279,0,0,1,.328.891,1.343,1.343,0,0,1-2.244.879A1.253,1.253,0,0,1,203,227.536Zm2.344,16.043h-2.168V230.9h2.168Z"/><path d="M209.877,243.579v-11h-2V230.9h2v-1.3a4.315,4.315,0,0,1,1.09-3.152,4.117,4.117,0,0,1,3.082-1.113,5.718,5.718,0,0,1,1.488.2l-.117,1.748a6.252,6.252,0,0,0-1.172-.106,2.114,2.114,0,0,0-1.629.618,2.5,2.5,0,0,0-.574,1.769v1.34h2.707v1.676h-2.707v11Z"/><path d="M218.209,243.579v-11h-2V230.9h2v-1.3a4.315,4.315,0,0,1,1.09-3.152,4.117,4.117,0,0,1,3.082-1.113,5.718,5.718,0,0,1,1.488.2l-.117,1.748a6.252,6.252,0,0,0-1.172-.106,2.114,2.114,0,0,0-1.629.618,2.5,2.5,0,0,0-.574,1.769v1.34h2.707v1.676h-2.707v11Z"/><path d="M230.455,243.813a5.538,5.538,0,0,1-4.2-1.693,6.287,6.287,0,0,1-1.617-4.53v-.4a7.613,7.613,0,0,1,.72-3.369,5.629,5.629,0,0,1,2.016-2.321,5.072,5.072,0,0,1,2.807-.837,4.75,4.75,0,0,1,3.843,1.628,7.055,7.055,0,0,1,1.371,4.665v.9h-8.589a4.5,4.5,0,0,0,1.095,3.029,3.442,3.442,0,0,0,2.666,1.154,3.784,3.784,0,0,0,1.946-.468,4.9,4.9,0,0,0,1.394-1.242l1.324,1.031A5.323,5.323,0,0,1,230.455,243.813Zm-.269-11.367a2.893,2.893,0,0,0-2.2.955,4.643,4.643,0,0,0-1.1,2.678h6.351v-.164a4.127,4.127,0,0,0-.89-2.561A2.723,2.723,0,0,0,230.186,232.446Z"/><path d="M244.037,232.844a6.565,6.565,0,0,0-1.066-.082,2.858,2.858,0,0,0-2.9,1.817v9h-2.168V230.9h2.11l.035,1.465a3.374,3.374,0,0,1,3.023-1.7,2.206,2.206,0,0,1,.961.164Z"/><path d="M251.068,243.813a5.54,5.54,0,0,1-4.2-1.693,6.287,6.287,0,0,1-1.617-4.53v-.4a7.6,7.6,0,0,1,.721-3.369,5.619,5.619,0,0,1,2.015-2.321,5.072,5.072,0,0,1,2.807-.837,4.752,4.752,0,0,1,3.844,1.628,7.055,7.055,0,0,1,1.371,4.665v.9h-8.59a4.5,4.5,0,0,0,1.1,3.029,3.441,3.441,0,0,0,2.666,1.154,3.781,3.781,0,0,0,1.945-.468,4.9,4.9,0,0,0,1.394-1.242l1.325,1.031A5.326,5.326,0,0,1,251.068,243.813Zm-.269-11.367a2.889,2.889,0,0,0-2.2.955,4.643,4.643,0,0,0-1.1,2.678h6.352v-.164a4.133,4.133,0,0,0-.891-2.561A2.723,2.723,0,0,0,250.8,232.446Z"/><path d="M260.572,230.9l.071,1.594a4.618,4.618,0,0,1,3.8-1.828q4.02,0,4.055,4.535v8.379h-2.168v-8.391a2.919,2.919,0,0,0-.627-2.027,2.511,2.511,0,0,0-1.916-.657,3.127,3.127,0,0,0-1.851.563,3.817,3.817,0,0,0-1.243,1.476v9.036h-2.168V230.9Z"/><path d="M274.705,227.829v3.07h2.367v1.676h-2.367v7.873a1.764,1.764,0,0,0,.316,1.144,1.334,1.334,0,0,0,1.079.381,5.3,5.3,0,0,0,1.031-.14v1.747a6.332,6.332,0,0,1-1.664.233,2.7,2.7,0,0,1-2.192-.879,3.777,3.777,0,0,1-.738-2.5v-7.863h-2.308V230.9h2.308v-3.07Z"/><path d="M279.615,227.536a1.294,1.294,0,0,1,.323-.891,1.209,1.209,0,0,1,.955-.363,1.231,1.231,0,0,1,.961.363,1.284,1.284,0,0,1,.328.891,1.172,1.172,0,0,1-1.289,1.23,1.231,1.231,0,0,1-.955-.351A1.253,1.253,0,0,1,279.615,227.536Zm2.344,16.043h-2.168V230.9h2.168Z"/><path d="M293.256,243.579a4.554,4.554,0,0,1-.3-1.336,4.837,4.837,0,0,1-3.609,1.57,4.474,4.474,0,0,1-3.076-1.061,3.43,3.43,0,0,1-1.2-2.689,3.584,3.584,0,0,1,1.506-3.076,7.1,7.1,0,0,1,4.237-1.1h2.109v-1a2.438,2.438,0,0,0-.68-1.811,2.732,2.732,0,0,0-2-.673,3.16,3.16,0,0,0-1.945.586,1.726,1.726,0,0,0-.785,1.418h-2.18a2.991,2.991,0,0,1,.674-1.834,4.6,4.6,0,0,1,1.828-1.4,6.146,6.146,0,0,1,2.537-.515,5.016,5.016,0,0,1,3.434,1.095,3.954,3.954,0,0,1,1.289,3.018v5.836a7.13,7.13,0,0,0,.445,2.777v.188Zm-3.6-1.653a3.818,3.818,0,0,0,1.934-.527,3.194,3.194,0,0,0,1.324-1.371v-2.6h-1.7q-3.984,0-3.985,2.332a1.975,1.975,0,0,0,.68,1.594A2.611,2.611,0,0,0,289.658,241.926Z"/><path d="M300.838,243.579H298.67v-18h2.168Z"/><path d="M459.072,184.336h-5.484v15.223H451.35V184.336h-5.473V182.5h13.195Z"/><path d="M466.514,188.825a6.467,6.467,0,0,0-1.067-.082,2.856,2.856,0,0,0-2.894,1.816v9h-2.168v-12.68h2.109l.035,1.465a3.376,3.376,0,0,1,3.024-1.7,2.221,2.221,0,0,1,.961.164Z"/><path d="M475.865,199.559a4.552,4.552,0,0,1-.3-1.336,4.837,4.837,0,0,1-3.61,1.57,4.476,4.476,0,0,1-3.076-1.06,3.431,3.431,0,0,1-1.2-2.69,3.585,3.585,0,0,1,1.506-3.076,7.1,7.1,0,0,1,4.236-1.095h2.109v-1a2.435,2.435,0,0,0-.679-1.81,2.732,2.732,0,0,0-2-.674,3.161,3.161,0,0,0-1.946.586,1.728,1.728,0,0,0-.785,1.418h-2.179a2.992,2.992,0,0,1,.673-1.834,4.6,4.6,0,0,1,1.829-1.4,6.144,6.144,0,0,1,2.537-.516,5.008,5.008,0,0,1,3.433,1.1,3.95,3.95,0,0,1,1.289,3.017v5.836a7.137,7.137,0,0,0,.446,2.778v.187Zm-3.6-1.652a3.805,3.805,0,0,0,1.933-.528,3.177,3.177,0,0,0,1.324-1.371v-2.6h-1.7q-3.984,0-3.984,2.332a1.975,1.975,0,0,0,.679,1.594A2.621,2.621,0,0,0,472.268,197.907Z"/><path d="M483.143,186.879l.07,1.594a4.62,4.62,0,0,1,3.8-1.828q4.019,0,4.054,4.535v8.379H488.9v-8.391a2.916,2.916,0,0,0-.626-2.027,2.516,2.516,0,0,0-1.916-.656,3.127,3.127,0,0,0-1.852.562,3.827,3.827,0,0,0-1.242,1.477v9.035h-2.168v-12.68Z"/><path d="M501.717,196.2a1.6,1.6,0,0,0-.662-1.365,6.356,6.356,0,0,0-2.309-.838,10.932,10.932,0,0,1-2.613-.844,3.719,3.719,0,0,1-1.43-1.172,2.807,2.807,0,0,1-.463-1.617,3.291,3.291,0,0,1,1.319-2.637,5.147,5.147,0,0,1,3.369-1.078,5.3,5.3,0,0,1,3.5,1.113,3.538,3.538,0,0,1,1.342,2.848h-2.18a1.955,1.955,0,0,0-.756-1.535,2.831,2.831,0,0,0-1.9-.645,2.963,2.963,0,0,0-1.852.516,1.624,1.624,0,0,0-.668,1.348,1.314,1.314,0,0,0,.621,1.183,7.622,7.622,0,0,0,2.244.762,11.685,11.685,0,0,1,2.631.867,3.832,3.832,0,0,1,1.494,1.213,2.977,2.977,0,0,1,.487,1.728,3.245,3.245,0,0,1-1.36,2.725A5.7,5.7,0,0,1,499,199.793a6.372,6.372,0,0,1-2.695-.539,4.376,4.376,0,0,1-1.834-1.5,3.627,3.627,0,0,1-.662-2.092h2.168a2.244,2.244,0,0,0,.873,1.728,3.384,3.384,0,0,0,2.15.639,3.5,3.5,0,0,0,1.975-.5A1.531,1.531,0,0,0,501.717,196.2Z"/><path d="M508.748,186.879l.059,1.407a4.68,4.68,0,0,1,3.761-1.641,3.624,3.624,0,0,1,3.621,2.039,4.806,4.806,0,0,1,1.647-1.476,4.864,4.864,0,0,1,2.4-.563q4.173,0,4.243,4.418v8.5h-2.168v-8.367a2.911,2.911,0,0,0-.621-2.033,2.735,2.735,0,0,0-2.086-.674,2.872,2.872,0,0,0-2,.721,2.92,2.92,0,0,0-.926,1.939v8.414h-2.18V191.25q0-2.764-2.707-2.765a2.9,2.9,0,0,0-2.918,1.816v9.258H506.7v-12.68Z"/><path d="M527.756,183.516a1.3,1.3,0,0,1,.322-.891,1.21,1.21,0,0,1,.955-.363,1.23,1.23,0,0,1,.961.363,1.283,1.283,0,0,1,.328.891,1.236,1.236,0,0,1-.328.879,1.253,1.253,0,0,1-.961.352,1.233,1.233,0,0,1-.955-.352A1.249,1.249,0,0,1,527.756,183.516Zm2.344,16.043h-2.168v-12.68H530.1Z"/><path d="M540.951,196.2a1.6,1.6,0,0,0-.662-1.365,6.348,6.348,0,0,0-2.309-.838,10.962,10.962,0,0,1-2.613-.844,3.715,3.715,0,0,1-1.429-1.172,2.8,2.8,0,0,1-.463-1.617,3.289,3.289,0,0,1,1.318-2.637,5.147,5.147,0,0,1,3.369-1.078,5.3,5.3,0,0,1,3.5,1.113A3.536,3.536,0,0,1,543,190.606h-2.18a1.955,1.955,0,0,0-.756-1.535,2.83,2.83,0,0,0-1.9-.645,2.96,2.96,0,0,0-1.851.516,1.622,1.622,0,0,0-.668,1.348,1.314,1.314,0,0,0,.621,1.183,7.622,7.622,0,0,0,2.244.762,11.685,11.685,0,0,1,2.631.867,3.832,3.832,0,0,1,1.494,1.213,2.984,2.984,0,0,1,.486,1.728,3.246,3.246,0,0,1-1.359,2.725,5.7,5.7,0,0,1-3.528,1.025,6.375,6.375,0,0,1-2.695-.539,4.388,4.388,0,0,1-1.834-1.5,3.634,3.634,0,0,1-.662-2.092h2.168a2.244,2.244,0,0,0,.873,1.728,3.386,3.386,0,0,0,2.15.639,3.5,3.5,0,0,0,1.975-.5A1.531,1.531,0,0,0,540.951,196.2Z"/><path d="M553.326,196.2a1.6,1.6,0,0,0-.662-1.365,6.348,6.348,0,0,0-2.309-.838,10.962,10.962,0,0,1-2.613-.844,3.726,3.726,0,0,1-1.43-1.172,2.806,2.806,0,0,1-.462-1.617,3.289,3.289,0,0,1,1.318-2.637,5.147,5.147,0,0,1,3.369-1.078,5.3,5.3,0,0,1,3.5,1.113,3.536,3.536,0,0,1,1.342,2.848H553.2a1.955,1.955,0,0,0-.756-1.535,2.828,2.828,0,0,0-1.9-.645,2.96,2.96,0,0,0-1.851.516,1.622,1.622,0,0,0-.668,1.348,1.314,1.314,0,0,0,.621,1.183,7.622,7.622,0,0,0,2.244.762,11.685,11.685,0,0,1,2.631.867,3.832,3.832,0,0,1,1.494,1.213,2.984,2.984,0,0,1,.486,1.728,3.246,3.246,0,0,1-1.359,2.725,5.7,5.7,0,0,1-3.528,1.025,6.375,6.375,0,0,1-2.695-.539,4.388,4.388,0,0,1-1.834-1.5,3.634,3.634,0,0,1-.662-2.092h2.168a2.244,2.244,0,0,0,.873,1.728,3.386,3.386,0,0,0,2.15.639,3.5,3.5,0,0,0,1.975-.5A1.531,1.531,0,0,0,553.326,196.2Z"/><path d="M558.33,183.516a1.3,1.3,0,0,1,.322-.891,1.212,1.212,0,0,1,.955-.363,1.228,1.228,0,0,1,.961.363,1.283,1.283,0,0,1,.328.891,1.236,1.236,0,0,1-.328.879,1.251,1.251,0,0,1-.961.352,1.235,1.235,0,0,1-.955-.352A1.254,1.254,0,0,1,558.33,183.516Zm2.344,16.043h-2.168v-12.68h2.168Z"/><path d="M563.568,193.1a7.485,7.485,0,0,1,.733-3.352,5.461,5.461,0,0,1,2.039-2.3,5.55,5.55,0,0,1,2.982-.809,5.35,5.35,0,0,1,4.19,1.793,6.9,6.9,0,0,1,1.6,4.77v.152a7.548,7.548,0,0,1-.709,3.322,5.375,5.375,0,0,1-2.027,2.291,5.614,5.614,0,0,1-3.029.82A5.331,5.331,0,0,1,565.168,198a6.864,6.864,0,0,1-1.6-4.746Zm2.18.258a5.423,5.423,0,0,0,.979,3.387,3.316,3.316,0,0,0,5.244-.018,5.934,5.934,0,0,0,.972-3.627,5.415,5.415,0,0,0-.99-3.381,3.149,3.149,0,0,0-2.631-1.3,3.114,3.114,0,0,0-2.59,1.278A5.887,5.887,0,0,0,565.748,193.36Z"/><path d="M579.881,186.879l.07,1.594a4.621,4.621,0,0,1,3.8-1.828q4.02,0,4.055,4.535v8.379h-2.168v-8.391a2.921,2.921,0,0,0-.627-2.027,2.514,2.514,0,0,0-1.916-.656,3.13,3.13,0,0,0-1.852.562A3.827,3.827,0,0,0,580,190.524v9.035H577.83v-12.68Z"/><path d="M821.345,250.1V233.042h5.578a6.476,6.476,0,0,1,4.178,1.148,4.14,4.14,0,0,1,1.4,3.4,3.47,3.47,0,0,1-.68,2.116,4.4,4.4,0,0,1-1.851,1.423,3.954,3.954,0,0,1,2.185,1.471,4.223,4.223,0,0,1,.8,2.584,4.566,4.566,0,0,1-1.488,3.61,6.155,6.155,0,0,1-4.207,1.312Zm2.25-9.785h3.4a3.56,3.56,0,0,0,2.361-.74,2.479,2.479,0,0,0,.885-2.008,2.44,2.44,0,0,0-.82-2.05,4.033,4.033,0,0,0-2.5-.64H823.6Zm0,1.805v6.14h3.715a3.576,3.576,0,0,0,2.478-.814,2.858,2.858,0,0,0,.908-2.244q0-3.082-3.351-3.082Z"/><path d="M843.774,250.1a4.552,4.552,0,0,1-.3-1.336,4.837,4.837,0,0,1-3.61,1.57,4.476,4.476,0,0,1-3.076-1.06,3.431,3.431,0,0,1-1.2-2.69,3.585,3.585,0,0,1,1.506-3.076,7.1,7.1,0,0,1,4.236-1.095h2.11v-1a2.435,2.435,0,0,0-.68-1.81,2.732,2.732,0,0,0-2-.674,3.158,3.158,0,0,0-1.945.586,1.725,1.725,0,0,0-.785,1.418h-2.18a2.987,2.987,0,0,1,.674-1.834,4.585,4.585,0,0,1,1.828-1.4,6.144,6.144,0,0,1,2.537-.516,5.008,5.008,0,0,1,3.433,1.1,3.951,3.951,0,0,1,1.29,3.017v5.836a7.139,7.139,0,0,0,.445,2.778v.187Zm-3.6-1.652a3.805,3.805,0,0,0,1.933-.528,3.185,3.185,0,0,0,1.325-1.371v-2.6h-1.7q-3.984,0-3.984,2.332a1.973,1.973,0,0,0,.68,1.593A2.611,2.611,0,0,0,840.177,248.452Z"/><path d="M851.942,234.354v3.07h2.368V239.1h-2.368v7.873a1.758,1.758,0,0,0,.317,1.144,1.329,1.329,0,0,0,1.078.382,5.229,5.229,0,0,0,1.031-.141v1.747a6.29,6.29,0,0,1-1.664.233,2.7,2.7,0,0,1-2.191-.879,3.773,3.773,0,0,1-.739-2.5V239.1h-2.308v-1.676h2.308v-3.07Z"/><path d="M859.782,234.354v3.07h2.367V239.1h-2.367v7.873a1.758,1.758,0,0,0,.317,1.144,1.329,1.329,0,0,0,1.078.382,5.229,5.229,0,0,0,1.031-.141v1.747a6.29,6.29,0,0,1-1.664.233,2.7,2.7,0,0,1-2.191-.879,3.768,3.768,0,0,1-.739-2.5V239.1h-2.308v-1.676h2.308v-3.07Z"/><path d="M869.942,250.338a5.54,5.54,0,0,1-4.2-1.693,6.286,6.286,0,0,1-1.617-4.529v-.4a7.6,7.6,0,0,1,.721-3.369,5.616,5.616,0,0,1,2.015-2.32,5.065,5.065,0,0,1,2.807-.838,4.75,4.75,0,0,1,3.844,1.629,7.052,7.052,0,0,1,1.371,4.664v.9H866.3a4.5,4.5,0,0,0,1.1,3.03,3.444,3.444,0,0,0,2.666,1.154,3.771,3.771,0,0,0,1.945-.469,4.87,4.87,0,0,0,1.394-1.242l1.325,1.031A5.326,5.326,0,0,1,869.942,250.338Zm-.269-11.367a2.893,2.893,0,0,0-2.2.955,4.646,4.646,0,0,0-1.1,2.678h6.352v-.164a4.135,4.135,0,0,0-.891-2.561A2.723,2.723,0,0,0,869.673,238.971Z"/><path d="M883.524,239.37a6.455,6.455,0,0,0-1.066-.082,2.857,2.857,0,0,0-2.895,1.816v9H877.4v-12.68h2.109l.035,1.465a3.375,3.375,0,0,1,3.023-1.7,2.218,2.218,0,0,1,.961.164Z"/><path d="M889.876,246.928l2.953-9.5h2.32l-5.1,14.637q-1.183,3.163-3.762,3.164l-.41-.035-.809-.152V253.28l.586.047a2.883,2.883,0,0,0,1.717-.446,3.223,3.223,0,0,0,1.014-1.629l.48-1.289-4.523-12.539h2.367Z"/><path d="M688.826,164.355l5.578,13.922,5.578-13.922H702.9v17.063h-2.25v-6.645l.211-7.171-5.6,13.816h-1.723l-5.59-13.781.223,7.136v6.645h-2.25V164.355Z"/><path d="M705.959,174.961a7.5,7.5,0,0,1,.732-3.352,5.476,5.476,0,0,1,2.039-2.3,5.555,5.555,0,0,1,2.983-.808A5.348,5.348,0,0,1,715.9,170.3a6.894,6.894,0,0,1,1.6,4.769v.153a7.548,7.548,0,0,1-.709,3.322,5.388,5.388,0,0,1-2.027,2.291,5.615,5.615,0,0,1-3.03.82,5.331,5.331,0,0,1-4.177-1.793,6.859,6.859,0,0,1-1.6-4.746Zm2.18.258a5.424,5.424,0,0,0,.978,3.386,3.315,3.315,0,0,0,5.244-.017,5.927,5.927,0,0,0,.973-3.627,5.415,5.415,0,0,0-.99-3.381,3.149,3.149,0,0,0-2.631-1.3,3.115,3.115,0,0,0-2.59,1.277A5.892,5.892,0,0,0,708.139,175.219Z"/><path d="M723.162,165.668v3.07h2.367v1.676h-2.367v7.873a1.758,1.758,0,0,0,.317,1.144,1.327,1.327,0,0,0,1.078.381,5.222,5.222,0,0,0,1.031-.14v1.747a6.29,6.29,0,0,1-1.664.233,2.7,2.7,0,0,1-2.192-.879,3.775,3.775,0,0,1-.738-2.5v-7.863h-2.308v-1.676h2.308v-3.07Z"/><path d="M727.252,174.961a7.5,7.5,0,0,1,.732-3.352,5.476,5.476,0,0,1,2.039-2.3,5.555,5.555,0,0,1,2.983-.808A5.348,5.348,0,0,1,737.2,170.3a6.894,6.894,0,0,1,1.6,4.769v.153a7.548,7.548,0,0,1-.709,3.322,5.388,5.388,0,0,1-2.027,2.291,5.615,5.615,0,0,1-3.03.82,5.331,5.331,0,0,1-4.177-1.793,6.859,6.859,0,0,1-1.6-4.746Zm2.18.258a5.424,5.424,0,0,0,.978,3.386,3.315,3.315,0,0,0,5.244-.017,5.927,5.927,0,0,0,.973-3.627,5.415,5.415,0,0,0-.99-3.381,3.149,3.149,0,0,0-2.631-1.3,3.115,3.115,0,0,0-2.59,1.277A5.892,5.892,0,0,0,729.432,175.219Z"/><path d="M747.643,170.684a6.476,6.476,0,0,0-1.067-.082,2.855,2.855,0,0,0-2.894,1.816v9h-2.168v-12.68h2.109l.035,1.465a3.376,3.376,0,0,1,3.024-1.7,2.221,2.221,0,0,1,.961.164Z"/><path d="M762.479,181.418H760.3V166.969l-4.371,1.605v-1.969l6.211-2.332h.34Z"/><path d="M727.972,401.411l5.578,13.922,5.578-13.922h2.918v17.063H739.8v-6.645l.211-7.172-5.6,13.817h-1.722l-5.59-13.782.222,7.137v6.645h-2.25V401.411Z"/><path d="M745.1,412.017a7.492,7.492,0,0,1,.733-3.352,5.463,5.463,0,0,1,2.039-2.3,5.55,5.55,0,0,1,2.982-.808,5.346,5.346,0,0,1,4.19,1.793,6.9,6.9,0,0,1,1.6,4.769v.152a7.553,7.553,0,0,1-.709,3.323,5.381,5.381,0,0,1-2.027,2.291,5.614,5.614,0,0,1-3.029.82,5.336,5.336,0,0,1-4.178-1.793,6.864,6.864,0,0,1-1.6-4.746Zm2.18.257a5.419,5.419,0,0,0,.979,3.387,3.317,3.317,0,0,0,5.244-.017,5.938,5.938,0,0,0,.972-3.627,5.415,5.415,0,0,0-.99-3.381,3.146,3.146,0,0,0-2.631-1.3,3.113,3.113,0,0,0-2.589,1.277A5.883,5.883,0,0,0,747.284,412.274Z"/><path d="M762.308,402.724v3.07h2.367v1.676h-2.367v7.873a1.76,1.76,0,0,0,.316,1.144,1.332,1.332,0,0,0,1.078.381,5.29,5.29,0,0,0,1.031-.14v1.748a6.371,6.371,0,0,1-1.664.232,2.7,2.7,0,0,1-2.191-.879,3.777,3.777,0,0,1-.738-2.5V407.47h-2.309v-1.676h2.309v-3.07Z"/><path d="M766.4,412.017a7.492,7.492,0,0,1,.733-3.352,5.463,5.463,0,0,1,2.039-2.3,5.55,5.55,0,0,1,2.982-.808,5.346,5.346,0,0,1,4.19,1.793,6.9,6.9,0,0,1,1.6,4.769v.152a7.553,7.553,0,0,1-.709,3.323,5.381,5.381,0,0,1-2.027,2.291,5.614,5.614,0,0,1-3.029.82A5.335,5.335,0,0,1,768,416.915a6.864,6.864,0,0,1-1.6-4.746Zm2.18.257a5.419,5.419,0,0,0,.979,3.387,3.317,3.317,0,0,0,5.244-.017,5.938,5.938,0,0,0,.972-3.627,5.415,5.415,0,0,0-.99-3.381,3.146,3.146,0,0,0-2.631-1.3,3.113,3.113,0,0,0-2.589,1.277A5.883,5.883,0,0,0,768.577,412.274Z"/><path d="M786.788,407.739a6.574,6.574,0,0,0-1.066-.082,2.858,2.858,0,0,0-2.895,1.817v9h-2.168v-12.68h2.11l.035,1.465a3.374,3.374,0,0,1,3.023-1.7,2.206,2.206,0,0,1,.961.164Z"/><path d="M805.679,418.474H794.5v-1.559l5.906-6.562a14.072,14.072,0,0,0,1.811-2.42,4.04,4.04,0,0,0,.5-1.928,3.064,3.064,0,0,0-.809-2.192,2.828,2.828,0,0,0-2.156-.855,3.351,3.351,0,0,0-2.514.92,3.516,3.516,0,0,0-.9,2.56h-2.168a5.034,5.034,0,0,1,1.517-3.808,5.627,5.627,0,0,1,4.061-1.453,5.407,5.407,0,0,1,3.762,1.248,4.256,4.256,0,0,1,1.383,3.322q0,2.52-3.211,6l-4.571,4.957h8.567Z"/><line class="aj" x1="380.845" y1="308.535" x2="445.303" y2="308.535"/><polygon class="ak" points="857.823 288.702 867.492 309.223 857.432 307.877 865.339 333.885 843.445 301.844 851.538 302.48 843.285 286.17 857.823 288.702"/><circle class="al" cx="519.636" cy="280.117" r="40.683"/><circle class="am" cx="519.636" cy="280.117" r="40.683" transform="translate(160.634 748.738) rotate(-80.872)"/><circle class="an" cx="519.636" cy="280.117" r="21.04"/><circle class="ao" cx="519.636" cy="280.117" r="9.515"/><rect class="al" x="473.037" y="343.359" width="81.376" height="15.495"/><rect class="al" x="483.815" y="334.662" width="12.038" height="33.189"/><rect class="al" x="554.197" y="334.512" width="12.038" height="33.189"/><rect class="al" x="445.303" y="291.941" width="12.038" height="33.189"/><rect class="al" x="445.303" y="330.113" width="12.038" height="44.369"/><rect class="y" x="304.664" y="150.32" width="32.105" height="31.098" rx="6.368"/><rect class="y" x="300.688" y="424.491" width="31.825" height="31.203" rx="6.351"/><line class="ap" x1="503.828" y1="365.36" x2="523.7" y2="338.454"/><line class="ap" x1="509.371" y1="367.634" x2="529.243" y2="340.729"/><line class="ap" x1="516.535" y1="366.497" x2="536.407" y2="339.591"/><line class="ap" x1="522.078" y1="368.772" x2="541.95" y2="341.866"/><line class="ap" x1="506.6" y1="349.788" x2="514.131" y2="339.591"/><line class="ap" x1="533.841" y1="364.181" x2="541.372" y2="353.984"/><rect class="ae" x="640.98" y="326.579" width="48.292" height="76.37"/><ellipse class="ae" cx="665.245" cy="403.778" rx="24.146" ry="6.194"/><ellipse class="ae" cx="665.245" cy="327.315" rx="24.146" ry="6.194"/><rect class="ae" x="636.334" y="334.35" width="4.765" height="63.234"/><rect class="af" x="644.817" y="334.35" width="39.123" height="4.286"/><rect class="af" x="644.817" y="341.022" width="39.123" height="4.286"/><rect class="af" x="644.817" y="347.694" width="39.123" height="4.286"/><rect class="af" x="644.817" y="354.367" width="39.123" height="4.286"/><rect class="af" x="644.817" y="361.039" width="39.123" height="4.286"/><rect class="af" x="644.817" y="367.711" width="39.123" height="4.286"/><rect class="af" x="644.817" y="374.384" width="39.123" height="4.286"/><rect class="af" x="644.817" y="381.056" width="39.123" height="4.286"/><rect class="af" x="644.817" y="387.728" width="39.123" height="4.286"/><rect class="af" x="644.817" y="394.401" width="39.123" height="4.286"/><line class="aq" x1="275.02" y1="289.633" x2="241.07" y2="253.46"/><line class="aq" x1="518.881" y1="228.189" x2="518.881" y2="204.406"/><line class="aq" x1="686.867" y1="216.579" x2="720.576" y2="185.723"/><line class="aq" x1="689.202" y1="393.511" x2="720.576" y2="409.972"/><line class="aq" x1="854.246" y1="275.88" x2="854.246" y2="255.003"/></svg>