<?xml version="1.0" encoding="UTF-8"?><svg id="d" xmlns="http://www.w3.org/2000/svg" width="1140" height="403.93" viewBox="0 0 1140 403.93"><path d="m3.75,350.85c-9.43,22.7,39.57,49.34,120.07,51.47,109.67,2.13,218.18-1.42,328.21.19,43.22.22,88.09.51,132.98.77,134.67.79,269.48,1.31,360.24-1.17,167.23-4.97,181.13-60.16,182.56-93.2,1.43-49.02-14.31-98.95-5.31-147.99.68-8.34,1.63-16.68,2.79-25.03,1.15-8.35,2.5-16.69,3.93-25.04,2.86-28.42,31.44-60.03-25.73-84.9C1040.61-1.05,880.53.37,760.47.01c-17.87-.06-41.33.08-68.53.34-27.19.26-58.07.64-90.43,1.04-145.16,2-289.84,2.71-434.52,1.64-45.5,0-93.34,4.26-122.51,16.7-16.33,6.93-23.33,14.56-26.4,22.42s-2.19,15.94-2.77,23.76c0,10.61.13,21.22.34,31.82.21,10.6.5,21.2.79,31.8,1.21,63.55-11.63,126.79-13.48,190.37.03,10.31.29,20.63.78,30.95Z" fill="#f4f4e9" stroke-width="0"/><path d="m732.42,142.93v152.86h147.96v-152.86h-147.96Zm108,116.28h-68.03v-79.69h68.03v79.69Z" fill="#bacecb" stroke-width="0"/><line x1="771.29" y1="180.92" x2="674.37" y2="180.92" fill="none" stroke="#d3a122" stroke-linecap="round" stroke-linejoin="round" stroke-width="5.16"/><polyline points="239.84 241.51 239.84 255.16 352.21 255.16" fill="none" stroke="#d3a122" stroke-linecap="round" stroke-linejoin="round" stroke-width="5"/><path d="m535.91,142.93v152.86h147.96v-152.86h-147.96Zm108,116.28h-68.03v-79.69h68.03v79.69Z" fill="#bacecb" stroke-width="0"/><line x1="731.88" y1="255.13" x2="642.33" y2="255.13" fill="none" stroke="#d3a122" stroke-linecap="round" stroke-linejoin="round" stroke-width="5.16"/><line x1="578.13" y1="259.01" x2="492.75" y2="259.01" fill="none" stroke="#d3a122" stroke-linecap="round" stroke-linejoin="round" stroke-width="5"/><path d="m344.37,142.93v152.86h147.96v-152.86h-147.96Zm108,116.28h-68.03v-79.69h68.03v79.69Z" fill="#bacecb" stroke-width="0"/><polyline points="228.59 208.13 228.59 181.81 387.36 181.81" fill="none" stroke="#d3a122" stroke-linecap="round" stroke-linejoin="round" stroke-width="4.84"/><path d="m345.26,195.11c-14.07,4.83,53.56,1.52,40.39,7.94" fill="none" stroke="#d3a122" stroke-linecap="round" stroke-linejoin="round" stroke-width="5.19"/><path d="m345.26,216.96c-14.07,4.83,53.56,1.52,40.39,7.94" fill="none" stroke="#d3a122" stroke-linecap="round" stroke-linejoin="round" stroke-width="5.19"/><path d="m342.26,247.55c-15.07,5.57,57.37,1.75,43.26,9.16" fill="none" stroke="#d3a122" stroke-linecap="round" stroke-linejoin="round" stroke-width="5"/><path d="m492.4,195.11c14.13,4.83-53.79,1.52-40.56,7.94" fill="none" stroke="#d3a122" stroke-linecap="round" stroke-linejoin="round" stroke-width="5.2"/><path d="m492.4,207.25c14.13,4.83-53.79,1.52-40.56,7.94" fill="none" stroke="#d3a122" stroke-linecap="round" stroke-linejoin="round" stroke-width="5.2"/><path d="m492.4,220.93c14.13,4.83-53.79,1.52-40.56,7.94" fill="none" stroke="#d3a122" stroke-linecap="round" stroke-linejoin="round" stroke-width="5.2"/><path d="m492.4,234.85c14.13,4.83-53.79,1.52-40.56,7.94" fill="none" stroke="#d3a122" stroke-linecap="round" stroke-linejoin="round" stroke-width="5.2"/><path d="m492.4,248.77c14.13,4.83-53.79,1.52-40.56,7.94" fill="none" stroke="#d3a122" stroke-linecap="round" stroke-linejoin="round" stroke-width="5.2"/><path d="m574.43,190.13c13.94,4.83-53.08,1.52-40.02,7.94" fill="none" stroke="#d3a122" stroke-linecap="round" stroke-linejoin="round" stroke-width="5.16"/><path d="m574.43,202.27c13.94,4.83-53.08,1.52-40.02,7.94" fill="none" stroke="#d3a122" stroke-linecap="round" stroke-linejoin="round" stroke-width="5.16"/><path d="m574.43,215.96c13.94,4.83-53.08,1.52-40.02,7.94" fill="none" stroke="#d3a122" stroke-linecap="round" stroke-linejoin="round" stroke-width="5.16"/><path d="m574.43,229.88c13.94,4.83-53.08,1.52-40.02,7.94" fill="none" stroke="#d3a122" stroke-linecap="round" stroke-linejoin="round" stroke-width="5.16"/><path d="m574.43,243.8c13.94,4.83-53.08,1.52-40.02,7.94" fill="none" stroke="#d3a122" stroke-linecap="round" stroke-linejoin="round" stroke-width="5.16"/><path d="m732.3,190.13c-13.93,4.83,53.03,1.52,39.99,7.94" fill="none" stroke="#d3a122" stroke-linecap="round" stroke-linejoin="round" stroke-width="5.33"/><path d="m732.3,202.27c-13.93,4.83,53.03,1.52,39.99,7.94" fill="none" stroke="#d3a122" stroke-linecap="round" stroke-linejoin="round" stroke-width="5.33"/><path d="m732.3,215.96c-13.93,4.83,53.03,1.52,39.99,7.94" fill="none" stroke="#d3a122" stroke-linecap="round" stroke-linejoin="round" stroke-width="5.33"/><path d="m732.3,229.88c-13.93,4.83,53.03,1.52,39.99,7.94" fill="none" stroke="#d3a122" stroke-linecap="round" stroke-linejoin="round" stroke-width="5.33"/><path d="m732.3,243.8c-13.93,4.83,53.03,1.52,39.99,7.94" fill="none" stroke="#d3a122" stroke-linecap="round" stroke-linejoin="round" stroke-width="5.33"/><path d="m642.6,189.49c-14.81,4.83,56.37,1.52,42.51,7.94" fill="none" stroke="#d3a122" stroke-linecap="round" stroke-linejoin="round" stroke-width="5.5"/><path d="m642.6,206.26c-14.81,4.83,56.37,1.52,42.51,7.94" fill="none" stroke="#d3a122" stroke-linecap="round" stroke-linejoin="round" stroke-width="5.5"/><path d="m642.6,223.02c-14.81,4.83,56.37,1.52,42.51,7.94" fill="none" stroke="#d3a122" stroke-linecap="round" stroke-linejoin="round" stroke-width="5.5"/><path d="m642.6,239.78c-14.81,4.83,56.37,1.52,42.51,7.94" fill="none" stroke="#d3a122" stroke-linecap="round" stroke-linejoin="round" stroke-width="5.5"/><path d="m839.03,189.4c-15.08,4.83,57.4,1.52,43.28,7.94" fill="none" stroke="#d3a122" stroke-linecap="round" stroke-linejoin="round" stroke-width="5.73"/><path d="m839.03,206.16c-15.08,4.83,57.4,1.52,43.28,7.94" fill="none" stroke="#d3a122" stroke-linecap="round" stroke-linejoin="round" stroke-width="5.73"/><path d="m839.03,222.92c-15.08,4.83,57.4,1.52,43.28,7.94" fill="none" stroke="#d3a122" stroke-linecap="round" stroke-linejoin="round" stroke-width="5.73"/><path d="m839.03,239.69c-15.08,4.83,57.4,1.52,43.28,7.94" fill="none" stroke="#d3a122" stroke-linecap="round" stroke-linejoin="round" stroke-width="5.73"/><line x1="534.51" y1="180.92" x2="451.65" y2="180.92" fill="none" stroke="#d3a122" stroke-linecap="round" stroke-linejoin="round" stroke-width="4.93"/><line x1="982.56" y1="258.53" x2="839.48" y2="258.53" fill="none" stroke="#d3a122" stroke-linecap="round" stroke-linejoin="round" stroke-width="5.33"/><line x1="967.53" y1="180.92" x2="839.48" y2="180.92" fill="none" stroke="#d3a122" stroke-linecap="round" stroke-linejoin="round" stroke-width="5.33"/><path d="m912.01,215.91c0-40.8,34.91-61.12,84.59-61.12s87.9,20.97,87.9,61.77-27.08,60.57-76.66,63.72c-67.87,4.31-95.83-23.57-95.83-64.37Z" fill="#dbc3ca" stroke-width="0"/><path d="m290.96,223c.71,15.07-1.5,30.35-6.64,44.25-7.04,19.03-23.85,33.66-43.17,37.24-21.76,4.03-43.62-5.18-65.68-6.72-24.49-1.72-49.79,5.99-73.28-1.42-13.89-4.38-26.14-14.04-34.19-26.61-10.96-17.14-13.86-38.78-11.97-59.27,2-21.67,11.27-42.64,27.69-56.5,27.35-23.07,70.61-25.19,104.33-23.19,23.55,1.4,52.57,7.1,71.4,23.1,17.6,14.95,28.14,38.05,30.85,61.23.31,2.62.52,5.26.65,7.9Z" fill="#c3d8dd" stroke-width="0"/><rect x="106.88" y="199.25" width="31.88" height="44.92" rx="4.32" ry="4.32" fill="#c1b79a" stroke-width="0"/><path d="m106.65,229.99c-1.7,4.92-4.34,12.76-6.36,18.76-1.4,4.16,1.7,8.46,6.09,8.46h32.29c4.34,0,7.44-4.22,6.12-8.36l-5.45-17.19c-.79-2.5-3.03-4.27-5.65-4.46l-20.51-1.5c-2.9-.21-5.59,1.55-6.54,4.3Z" fill="#c1b79a" stroke-width="0"/><path d="m104.55,256.86c2.1-.99,4.21-.83,6.31-.94,2.1-.09,4.21-.1,6.31-.12,4.2.26,8.56-.42,12.62,1.06.12.05.13.24,0,.29-4.05,1.47-8.42.8-12.62,1.06-2.1-.02-4.21-.04-6.31-.12-2.1-.1-4.21.05-6.31-.94-.12-.05-.12-.24,0-.29h0Z" fill="#665f5f" stroke-width="0"/><path d="m190.96,243.03h-8.16c-1.32,0-2.39-1.28-2.39-2.85l2.07-81.86c0-1.57,1.08-2.85,2.39-2.85h4.02c1.32,0,2.39,1.28,2.39,2.85l2.07,81.86c0,1.57-1.08,2.85-2.39,2.85Z" fill="#c1b79a" stroke-width="0"/><path d="m216.24,243.03h-8.16c-1.32,0-2.39-1.28-2.39-2.85l2.07-81.86c0-1.57,1.08-2.85,2.39-2.85h4.02c1.32,0,2.39,1.28,2.39,2.85l2.07,81.86c0,1.57-1.08,2.85-2.39,2.85Z" fill="#c1b79a" stroke-width="0"/><path d="m182.43,161.37c.7-.99,1.4-.83,2.1-.94.7-.08,1.4-.12,2.1-.12.7,0,1.4.06,2.1.13.7.08,1.4.01,2.1.93.07.09.06.21,0,.29-.7.91-1.4.85-2.1.93-.7.08-1.4.13-2.1.13-.7,0-1.4-.04-2.1-.12-.7-.1-1.4.05-2.1-.94-.06-.09-.06-.21,0-.29,0,0-.06.09,0,0Z" fill="#7f7357" stroke-width="0"/><path d="m107.35,204.36c2.54-.99,5.09-.83,7.63-.94,2.54-.09,5.09-.1,7.63-.12,5.1.26,10.28-.43,15.27,1.06.13.04.14.25,0,.29-4.98,1.48-10.17.8-15.27,1.06-2.54-.02-5.09-.04-7.63-.12-2.54-.1-5.09.05-7.63-.94-.13-.05-.13-.25,0-.29h0Z" fill="#7f7357" stroke-width="0"/><path d="m100.19,252.96c2.49-.99,4.98-.83,7.48-.94,2.49-.09,4.98-.1,7.48-.12,5,.26,10.06-.43,14.95,1.06.13.04.14.25,0,.29-4.89,1.48-9.95.8-14.95,1.06-2.49-.02-4.98-.04-7.48-.12-2.49-.1-4.98.05-7.48-.94-.13-.05-.13-.25,0-.29h0Z" fill="#7f7357" stroke-width="0"/><path d="m207.98,161.37c.7-.99,1.4-.83,2.1-.94.7-.08,1.4-.12,2.1-.12.7,0,1.4.06,2.1.13.7.08,1.4.01,2.1.93.07.09.06.21,0,.29-.7.91-1.4.85-2.1.93-.7.08-1.4.13-2.1.13-.7,0-1.4-.04-2.1-.12-.7-.1-1.4.05-2.1-.94-.06-.09-.06-.21,0-.29,0,0-.06.09,0,0Z" fill="#7f7357" stroke-width="0"/><rect x="127.37" y="221.45" width="110.37" height="40.08" fill="#d17446" stroke-width="0"/><polygon points="258.09 251.05 237.13 261.53 237.13 221.45 258.09 224.53 258.09 251.05" fill="#d17446" stroke-width="0"/><rect x="164.37" y="244.88" width="10.48" height="11.51" fill="#802523" stroke-width="0"/><rect x="188.42" y="244.88" width="10.48" height="11.51" fill="#802523" stroke-width="0"/><rect x="213.08" y="244.88" width="10.48" height="11.51" fill="#802523" stroke-width="0"/><rect x="141.99" y="249.6" width="11.49" height="11.91" fill="#ffe4ae" stroke-width="0"/><path d="m141.84,261.5c-1-1.99-.83-3.98-.94-5.96-.08-1.99-.12-3.98-.12-5.96,0-.67.54-1.21,1.21-1.21,1.92,0,3.83.06,5.75.14,1.92.07,3.83.03,5.75.92.08.04.12.13.08.22-1.85,1.03-3.91.9-5.83,1-1.92.07-3.83.14-5.75.14l1.2-1.2c0,1.99-.04,3.98-.12,5.96-.11,1.99.06,3.98-.94,5.96-.06.12-.24.12-.29,0h0Z" fill="#802523" stroke-width="0"/><path d="m148.16,249.6c.99,1.03.83,2.05.94,3.08.08,1.03.12,2.05.12,3.08,0,1.03-.06,2.05-.13,3.08-.08,1.03-.01,2.05-.93,3.08-.08.09-.22.09-.29,0-.91-1.03-.84-2.05-.93-3.08-.08-1.03-.13-2.05-.13-3.08,0-1.03.04-2.05.12-3.08.1-1.03-.05-2.05.94-3.08.08-.08.21-.08.29,0h0Z" fill="#802523" stroke-width="0"/><path d="m128.61,232.4c15.63-1.51,38.35-.76,54.26-1.06,0,0,27.13.13,27.13.13,9.02.22,18.44-.26,27.26,1.09-15.5,1.81-38.48.8-54.39,1.19,0,0-27.13-.12-27.13-.12-9.04-.11-18.09.05-27.13-.94-.16-.01-.17-.28,0-.29h0Z" fill="#a83b3b" stroke-width="0"/><path d="m237.27,222.68c.99,3.24.83,6.47.94,9.71.09,3.24.1,6.47.12,9.71-.03,3.24-.05,6.47-.13,9.71-.08,3.24-.01,6.47-.93,9.71-.04.14-.26.15-.29,0-1.49-6.41-.79-12.93-1.06-19.42.02-3.24.04-6.47.12-9.71.1-3.24-.05-6.47.94-9.71.04-.14.26-.15.29,0h0Z" fill="#802523" stroke-width="0"/><path d="m991.8,175.94s25.97,11.61,30.21,13.72c1.57.78,34.61,23.89,34.61,23.89l-59.73-7.52-5.09-30.09Z" fill="#d12d32" stroke-width="0"/><polygon points="1036.45 251.75 950.88 251.75 950.88 205.64 992.19 178.5 1036.45 205.64 1036.45 251.75" fill="#fff" stroke-width="0"/><polygon points="1055.05 239.41 1035.97 251.75 1035.97 205.64 1055.05 213.07 1055.05 239.41" fill="#fff" stroke-width="0"/><rect x="984.9" y="226.16" width="14.42" height="25.57" fill="#d12d32" stroke-width="0"/><rect x="964.08" y="226.51" width="12.45" height="16.39" fill="#058dbd" stroke-width="0"/><path d="m1057.15,214.28c-1.97.3-3.53-.46-5.18-.99-1.64-.54-3.28-1.12-4.89-1.74-1.62-.62-3.21-1.29-4.8-1.99-1.59-.69-3.23-1.25-4.52-2.72-.09-.09-.02-.26.11-.27,1.94-.23,3.53.45,5.18,1,1.64.55,3.28,1.12,4.9,1.73,1.62.62,3.22,1.28,4.8,1.98,1.58.72,3.25,1.19,4.51,2.73.08.1.02.26-.11.27h0Z" fill="#d12d32" stroke-width="0"/><path d="m984.59,250.89c-.94-3.51-.76-8.71-.9-12.34-.09-4.13-.13-8.27-.12-12.4,0-.64.52-1.15,1.16-1.14,3.65.1,7.3.03,10.94.35,4.91.62,4.99,1,0,1.63-3.64.31-7.29.25-10.94.35,0,0,1.16-1.17,1.16-1.17.16,5.96.09,12.59-.05,18.58-.09,2.12-.21,4.17-.97,6.22-.06.14-.28.1-.29-.06h0Z" fill="#5e1b1b" stroke-width="0"/><line x1="969.82" y1="227.82" x2="969.82" y2="241.75" fill="none" stroke="#fff" stroke-linecap="square" stroke-linejoin="round" stroke-width="2"/><line x1="975.23" y1="234.86" x2="965.23" y2="234.86" fill="none" stroke="#fff" stroke-linecap="square" stroke-linejoin="round" stroke-width="2"/><rect x="1006.86" y="226.51" width="12.45" height="16.39" fill="#058dbd" stroke-width="0"/><polygon points="1046.43 235.49 1039.97 239.8 1039.97 220.22 1046.43 221.78 1046.43 235.49" fill="#058dbd" stroke-width="0"/><polygon points="1052.89 231.97 1048.98 234.51 1048.98 222.37 1052.89 223.74 1052.89 231.97" fill="#058dbd" stroke-width="0"/><line x1="1012.59" y1="227.82" x2="1012.59" y2="241.75" fill="none" stroke="#fff" stroke-linecap="square" stroke-linejoin="round" stroke-width="2"/><line x1="1018" y1="234.86" x2="1008" y2="234.86" fill="none" stroke="#fff" stroke-linecap="square" stroke-linejoin="round" stroke-width="2"/><line x1="1033.72" y1="212.79" x2="951.47" y2="212.79" fill="none" stroke="#b27e50" stroke-linecap="round" stroke-miterlimit="10" stroke-width="2"/><line x1="971.04" y1="192.78" x2="978.09" y2="211.99" fill="none" stroke="#b27e50" stroke-linecap="round" stroke-miterlimit="10" stroke-width="2"/><line x1="1007.85" y1="212.38" x2="1014.9" y2="195.54" fill="none" stroke="#b27e50" stroke-linecap="round" stroke-miterlimit="10" stroke-width="2"/><line x1="991.8" y1="180.25" x2="992.97" y2="210.82" fill="none" stroke="#b27e50" stroke-linecap="round" stroke-miterlimit="10" stroke-width="2"/><line x1="945.77" y1="208.47" x2="991.6" y2="177.12" fill="none" stroke="#d12d32" stroke-linecap="round" stroke-miterlimit="10" stroke-width="2"/><line x1="1039.19" y1="206.7" x2="991.99" y2="177.12" fill="none" stroke="#d12d32" stroke-linecap="round" stroke-miterlimit="10" stroke-width="2"/><path d="m1034.26,252.24c-.99-3.7-.83-7.39-.94-11.09-.09-3.7-.1-7.39-.12-11.09.03-3.7.05-7.39.13-11.09.08-3.7.01-7.39.93-11.09.03-.15.26-.15.29,0,1.49,7.35.79,14.76,1.06,22.18-.02,3.7-.04,7.39-.12,11.09-.1,3.7.05,7.39-.94,11.09-.03.14-.26.15-.29,0h0Z" fill="#dbb2b2" stroke-width="0"/><path d="m950.88,251.6c12.28-1.31,30.19-.8,42.69-1.03,5.32-.03,16.03-.03,21.35,0,0,0,21.35.14,21.35.14l-.57.17c6.28-4.08,12.6-8.11,19.27-11.59.14-.08.3.14.16.25-6.06,4.71-12.27,9.45-18.85,13.25,0,0-21.36.14-21.36.14l-10.67.03c-6.82,0-24.98-.12-32.02-.17-7.12-.04-14.23-.12-21.35-.89-.17-.01-.17-.28,0-.29h0Z" fill="#802523" stroke-width="0"/><path d="m105.75,98.06v7.79h-2.62v-19.91h7.34c2.18,0,3.88.56,5.12,1.67,1.24,1.11,1.85,2.58,1.85,4.42,0,1.93-.6,3.42-1.81,4.46-1.21,1.04-2.94,1.57-5.19,1.57h-4.69Zm0-2.15h4.72c1.4,0,2.48-.33,3.23-.99.75-.66,1.12-1.62,1.12-2.87s-.37-2.14-1.12-2.85-1.77-1.08-3.08-1.11h-4.87v7.82Z" stroke-width="0"/><path d="m119.55,98.32c0-1.45.29-2.75.85-3.91.57-1.16,1.36-2.05,2.38-2.68s2.18-.94,3.48-.94c2.01,0,3.64.7,4.89,2.09s1.87,3.25,1.87,5.56v.18c0,1.44-.28,2.73-.83,3.88-.55,1.14-1.34,2.04-2.37,2.67-1.03.64-2.2.96-3.53.96-2,0-3.63-.7-4.87-2.09s-1.87-3.24-1.87-5.54v-.18Zm2.54.3c0,1.64.38,2.96,1.14,3.95.76.99,1.78,1.49,3.06,1.49s2.31-.5,3.06-1.51c.76-1.01,1.13-2.42,1.13-4.23,0-1.62-.38-2.94-1.16-3.94-.77-1.01-1.79-1.51-3.07-1.51s-2.26.5-3.02,1.49c-.77.99-1.15,2.42-1.15,4.27Z" stroke-width="0"/><path d="m149.29,102.36l2.84-11.31h2.53l-4.31,14.79h-2.05l-3.6-11.21-3.5,11.21h-2.05l-4.29-14.79h2.52l2.91,11.07,3.45-11.07h2.04l3.51,11.31Z" stroke-width="0"/><path d="m163.37,106.12c-2,0-3.64-.66-4.89-1.98-1.26-1.32-1.89-3.08-1.89-5.28v-.46c0-1.47.28-2.78.84-3.93.56-1.15,1.34-2.06,2.35-2.71,1.01-.65,2.1-.98,3.27-.98,1.92,0,3.42.63,4.48,1.9,1.07,1.27,1.6,3.08,1.6,5.44v1.05h-10.02c.04,1.46.46,2.64,1.28,3.53.82.9,1.85,1.35,3.11,1.35.89,0,1.65-.18,2.27-.55.62-.36,1.16-.85,1.63-1.45l1.54,1.2c-1.24,1.91-3.1,2.86-5.58,2.86Zm-.31-13.26c-1.02,0-1.88.37-2.57,1.11-.69.74-1.12,1.78-1.29,3.12h7.41v-.19c-.07-1.29-.42-2.28-1.04-2.99-.62-.71-1.46-1.06-2.52-1.06Z" stroke-width="0"/><path d="m179.21,93.33c-.38-.06-.8-.1-1.24-.1-1.66,0-2.78.71-3.38,2.12v10.5h-2.53v-14.79h2.46l.04,1.71c.83-1.32,2-1.98,3.53-1.98.49,0,.87.06,1.12.19v2.35Z" stroke-width="0"/><path d="m200.97,98.62c0,2.25-.51,4.07-1.54,5.44-1.03,1.38-2.42,2.06-4.18,2.06s-3.21-.57-4.24-1.71v7.12h-2.53v-20.48h2.31l.12,1.64c1.03-1.28,2.46-1.91,4.29-1.91s3.18.67,4.22,2.01,1.55,3.2,1.55,5.59v.23Zm-2.53-.29c0-1.67-.36-2.98-1.07-3.95-.71-.97-1.69-1.45-2.93-1.45-1.53,0-2.68.68-3.45,2.04v7.07c.76,1.35,1.91,2.02,3.47,2.02,1.21,0,2.18-.48,2.89-1.44.72-.96,1.07-2.39,1.07-4.29Z" stroke-width="0"/><path d="m206.93,105.85h-2.53v-21h2.53v21Z" stroke-width="0"/><path d="m220.11,105.85c-.15-.29-.26-.81-.36-1.56-1.18,1.22-2.58,1.83-4.21,1.83-1.46,0-2.65-.41-3.59-1.24-.93-.82-1.4-1.87-1.4-3.14,0-1.54.59-2.74,1.76-3.59,1.17-.85,2.82-1.28,4.94-1.28h2.46v-1.16c0-.88-.26-1.59-.79-2.11-.53-.52-1.31-.79-2.34-.79-.9,0-1.66.23-2.27.68-.61.46-.92,1.01-.92,1.65h-2.54c0-.74.26-1.45.79-2.14.52-.69,1.24-1.23,2.13-1.63.9-.4,1.88-.6,2.96-.6,1.7,0,3.04.43,4.01,1.28.97.85,1.47,2.03,1.5,3.52v6.81c0,1.36.17,2.44.52,3.24v.22h-2.65Zm-4.2-1.93c.79,0,1.54-.21,2.26-.62s1.23-.94,1.54-1.6v-3.04h-1.98c-3.1,0-4.65.91-4.65,2.72,0,.79.26,1.41.79,1.86.53.45,1.21.67,2.04.67Z" stroke-width="0"/><path d="m228.6,91.06l.08,1.86c1.13-1.42,2.61-2.13,4.43-2.13,3.13,0,4.7,1.76,4.73,5.29v9.78h-2.53v-9.79c0-1.07-.25-1.85-.73-2.37-.48-.51-1.22-.77-2.24-.77-.82,0-1.54.22-2.16.66s-1.1,1.01-1.45,1.72v10.54h-2.53v-14.79h2.39Z" stroke-width="0"/><path d="m245.08,87.48v3.58h2.76v1.96h-2.76v9.19c0,.59.12,1.04.37,1.33s.67.44,1.26.44c.29,0,.69-.05,1.2-.16v2.04c-.67.18-1.31.27-1.94.27-1.13,0-1.98-.34-2.56-1.03s-.86-1.65-.86-2.91v-9.17h-2.69v-1.96h2.69v-3.58h2.53Z" stroke-width="0"/><path d="m978.21,125.85h-2.64v-9.2h-10.04v9.2h-2.62v-19.91h2.62v8.56h10.04v-8.56h2.64v19.91Z" stroke-width="0"/><path d="m981.81,118.32c0-1.45.29-2.75.85-3.91.57-1.16,1.36-2.05,2.38-2.68s2.18-.94,3.48-.94c2.01,0,3.64.7,4.89,2.09s1.87,3.25,1.87,5.56v.18c0,1.44-.28,2.73-.83,3.88-.55,1.14-1.34,2.04-2.37,2.67-1.03.64-2.2.96-3.53.96-2,0-3.63-.7-4.87-2.09s-1.87-3.24-1.87-5.54v-.18Zm2.54.3c0,1.64.38,2.96,1.14,3.95.76.99,1.78,1.49,3.06,1.49s2.31-.5,3.06-1.51c.76-1.01,1.13-2.42,1.13-4.23,0-1.62-.38-2.94-1.16-3.94-.77-1.01-1.79-1.51-3.07-1.51s-2.26.5-3.02,1.49c-.77.99-1.15,2.42-1.15,4.27Z" stroke-width="0"/><path d="m1000.83,111.06l.07,1.64c1.08-1.28,2.55-1.91,4.39-1.91,2.07,0,3.48.79,4.22,2.38.49-.71,1.13-1.29,1.92-1.72s1.72-.66,2.8-.66c3.25,0,4.89,1.72,4.95,5.15v9.91h-2.53v-9.76c0-1.06-.24-1.85-.72-2.37-.48-.52-1.29-.79-2.43-.79-.94,0-1.72.28-2.34.84s-.98,1.31-1.08,2.26v9.82h-2.54v-9.69c0-2.15-1.05-3.23-3.16-3.23-1.66,0-2.79.71-3.4,2.12v10.8h-2.53v-14.79h2.39Z" stroke-width="0"/><path d="m1029.13,126.12c-2,0-3.64-.66-4.89-1.98-1.26-1.32-1.89-3.08-1.89-5.28v-.46c0-1.47.28-2.78.84-3.93.56-1.15,1.34-2.06,2.35-2.71,1.01-.65,2.1-.98,3.27-.98,1.92,0,3.42.63,4.48,1.9,1.07,1.27,1.6,3.08,1.6,5.44v1.05h-10.02c.04,1.46.46,2.64,1.28,3.53.82.9,1.85,1.35,3.11,1.35.89,0,1.65-.18,2.27-.55.62-.36,1.16-.85,1.63-1.45l1.54,1.2c-1.24,1.91-3.1,2.86-5.58,2.86Zm-.31-13.26c-1.02,0-1.88.37-2.57,1.11-.69.74-1.12,1.78-1.29,3.12h7.41v-.19c-.07-1.29-.42-2.28-1.04-2.99-.62-.71-1.46-1.06-2.52-1.06Z" stroke-width="0"/></svg>