<svg xmlns="http://www.w3.org/2000/svg" xmlns:xlink="http://www.w3.org/1999/xlink" width="1140" height="720" viewBox="0 0 1140 720"><defs><style>.a,.d,.e,.g,.j,.m{fill:none;}.b{clip-path:url(#a);}.c{fill:#fff5f5;}.d{stroke:#d3a122;stroke-width:17px;}.d,.e,.f,.i{stroke-linecap:round;}.d,.e{stroke-linejoin:round;}.e{stroke:#9b7521;stroke-width:11px;}.f{fill:#3c3082;stroke:#3c3082;}.f,.g,.i,.j,.m,.r{stroke-miterlimit:10;}.f,.i{stroke-width:5px;}.g{stroke:#4f4fb2;}.g,.j{stroke-width:20px;}.h{fill:#a7a9c4;}.i{fill:#702422;stroke:#702422;}.j{stroke:#a31c1c;}.k{fill:#969696;}.l{fill:#605858;}.m,.r{stroke:#000;stroke-width:2px;}.n{fill:#8487a5;}.o{opacity:0.5;}.p{fill:#d12d32;}.q{fill:#631c1c;}.r{fill:#fff;}.s{fill:url(#b);}.t{fill:url(#c);}.u{fill:url(#d);}.v{fill:url(#e);}</style><clipPath id="a"><path class="a" d="M637.654,15.1c-87.315.071-174.547-5.94-261.736-10.133C322.863,2.412,269.749.484,216.622,1.024c-45.793.465-97.323-.4-140.03,18.484C-8.171,56.984,1.241,160.95,9.289,236.571,21.925,355.305,13.187,475,22.94,594.312c1.479,18.1,10.083,34.592,21.117,49.212C109.172,729.8,237.824,717.6,333.066,713.9c171.252-6.65,341.932-3.09,513.248-.768,57.035.773,116.434,1.058,167.852-23.315,52.268-24.776,90.66-73.594,109.049-127.874,20.927-61.772,10.022-119.32,6.915-182.047-3.328-67.2-1.322-134.351-1.841-201.588-.484-62.64-10.967-125.282-75.474-152.495C1000.2,3.614,933.984,5,877.587,5.756c-63.85.861-127.493,6.721-191.3,8.621Q661.965,15.1,637.654,15.1Z"/></clipPath><linearGradient id="b" x1="36.865" y1="292.182" x2="192.75" y2="292.182" gradientUnits="userSpaceOnUse"><stop offset="0" stop-color="#fff5f5"/><stop offset="0.107" stop-color="#f8d7d8"/><stop offset="0.34" stop-color="#ea9b9d"/><stop offset="0.555" stop-color="#df6c6f"/><stop offset="0.743" stop-color="#d8494e"/><stop offset="0.898" stop-color="#d33539"/><stop offset="1" stop-color="#d12d32"/></linearGradient><linearGradient id="c" x1="74.381" y1="83.845" x2="283.955" y2="147.505" gradientUnits="userSpaceOnUse"><stop offset="0.016" stop-color="#fff5f5"/><stop offset="0.153" stop-color="#f3c3c4"/><stop offset="0.297" stop-color="#e99598"/><stop offset="0.442" stop-color="#e07073"/><stop offset="0.585" stop-color="#da5357"/><stop offset="0.727" stop-color="#d53e42"/><stop offset="0.866" stop-color="#d23136"/><stop offset="1" stop-color="#d12d32"/></linearGradient><linearGradient id="d" x1="965.541" y1="291.52" x2="1104.339" y2="291.52" gradientUnits="userSpaceOnUse"><stop offset="0" stop-color="#969696"/><stop offset="0.303" stop-color="#c1bdbd"/><stop offset="0.598" stop-color="#e3dbdb"/><stop offset="0.84" stop-color="#f7eeee"/><stop offset="1" stop-color="#fff5f5"/></linearGradient><linearGradient id="e" x1="908.04" y1="128.454" x2="1079.019" y2="89.18" gradientUnits="userSpaceOnUse"><stop offset="0" stop-color="#969696"/><stop offset="0.145" stop-color="#a09f9f"/><stop offset="0.389" stop-color="#bab7b7"/><stop offset="0.702" stop-color="#e5dddd"/><stop offset="0.87" stop-color="#fff5f5"/></linearGradient></defs><g class="b"><path class="c" d="M637.654,5.182c-87.315.071-174.547-5.94-261.736-10.133C322.863-7.5,269.749-9.43,216.622-8.891c-45.793.466-97.323-.4-140.03,18.485C-8.171,47.07,1.241,151.036,9.289,226.656,21.925,345.391,13.187,465.087,22.94,584.4c1.479,18.1,10.083,34.593,21.117,49.213,65.115,86.279,193.767,74.072,289.009,70.374,171.252-6.651,341.932-3.091,513.248-.768,57.035.773,116.434,1.058,167.852-23.315,52.268-24.777,90.66-73.595,109.049-127.874,20.927-61.773,10.022-119.32,6.915-182.048-3.328-67.2-1.322-134.35-1.841-201.588-.484-62.64-10.967-125.281-75.474-152.495C1000.2-6.3,933.984-4.919,877.587-4.158c-63.85.861-127.493,6.72-191.3,8.621Q661.965,5.188,637.654,5.182Z"/><polyline class="d" points="552.426 515.71 556.591 402.928 388.292 402.928 454.234 182.707 722.433 182.707 788.376 402.928 620.077 402.928 622.169 560.53"/><path class="e" d="M597.838,564.449q49.674-1.385,100.286-1.316c6.533.034,15.53,4.407,25.209,15.869q29.178,33.581,57.506,67.109"/><path class="e" d="M556.667,502.6q-58.605-.995-113.974.007c-6.653.311-8.715,8.454-14.2,18.936L361.077,648.344"/><path class="f" d="M622.283,519.11l-1.268-22.787a19.456,19.456,0,0,0-8.989-15.359c-9.9-6.277-27.489-12.762-47.737.856a19.5,19.5,0,0,0-8.61,15.8l-.417,21.488"/><circle class="g" cx="588.772" cy="522.176" r="27.104"/><rect class="h" x="570.55" y="574.342" width="37.356" height="49.502" rx="12.53"/><ellipse class="h" cx="588.943" cy="522.064" rx="18.836" ry="18.448"/><rect class="h" x="570.299" y="508.864" width="37.407" height="49.502" rx="12.539"/><polygon class="h" points="607.621 555.254 570.265 555.254 570.265 520.668 607.35 520.668 607.621 555.254"/><polygon class="h" points="609.677 630.635 570.55 629.958 570.265 520.668 607.635 520.668 609.677 630.635"/><path class="i" d="M555.651,586.576l-.261-21.093a24.825,24.825,0,0,1,12.188-21.656c9.859-5.786,24.9-10.263,42.334-.744a24.246,24.246,0,0,1,12.465,20.605l.69,22.225"/><circle class="j" cx="589.381" cy="586.357" r="27.264"/><polygon class="k" points="635.755 562.101 635.755 570.392 624.43 570.392 624.43 562.101 622.859 552.765 631.452 552.418 635.755 562.101"/><path class="l" d="M624.43,561.259c.944-.988,1.888-.833,2.832-.936.943-.08,1.887-.124,2.831-.124s1.887.058,2.831.134a3.86,3.86,0,0,1,2.831.926.2.2,0,0,1,0,.289l0,0a3.859,3.859,0,0,1-2.831.925c-.944.077-1.888.134-2.831.135s-1.888-.044-2.831-.124c-.944-.1-1.888.052-2.832-.936A.214.214,0,0,1,624.43,561.259Z"/><rect class="k" x="624.43" y="562.768" width="11.325" height="7.625"/><polygon class="k" points="553.255 500.352 553.255 508.643 541.93 508.643 541.93 500.352 545.51 491.418 553.255 491.418 553.255 500.352"/><rect class="k" x="541.93" y="502.477" width="11.325" height="7.625"/><path class="l" d="M541.93,502.33c.944-.988,1.888-.832,2.831-.935q1.416-.121,2.831-.125c.944,0,1.888.058,2.832.135a3.865,3.865,0,0,1,2.831.925.2.2,0,0,1,0,.289l0,0a3.865,3.865,0,0,1-2.831.925c-.944.077-1.888.134-2.832.134s-1.887-.043-2.831-.124c-.943-.1-1.887.052-2.831-.935A.213.213,0,0,1,541.93,502.33Z"/><ellipse class="h" cx="589.381" cy="586.357" rx="18.836" ry="18.448"/><path class="h" d="M594.427,628.353h-10.35A13.592,13.592,0,0,1,570.6,614.732V586.105a.325.325,0,0,1,.636-.1c4.853,14.8,8.959,16.764,16.066,16.764l8.7-3.68c7.415,0,12.219-21.1,12.219-13.609l1.371,40.365C609.588,633.34,601.842,628.353,594.427,628.353Z"/><path d="M134.015,485.365H126.62v6.047h8.59v1.84H124.37V476.189h10.723v1.84H126.62v5.5h7.395Z"/><path d="M141.925,485.2l2.812-4.629h2.532l-4.149,6.27,4.277,6.41H144.89l-2.93-4.746-2.93,4.746h-2.519l4.277-6.41-4.148-6.27h2.507Z"/><path d="M152.507,477.5v3.07h2.367v1.676h-2.367v7.873a1.763,1.763,0,0,0,.316,1.145,1.333,1.333,0,0,0,1.078.38,5.231,5.231,0,0,0,1.032-.14v1.748a6.377,6.377,0,0,1-1.664.232,2.7,2.7,0,0,1-2.192-.879,3.777,3.777,0,0,1-.738-2.5v-7.863H148.03v-1.676h2.309V477.5Z"/><path d="M162.667,493.486a5.538,5.538,0,0,1-4.195-1.693,6.286,6.286,0,0,1-1.618-4.529v-.4a7.613,7.613,0,0,1,.721-3.369,5.626,5.626,0,0,1,2.016-2.32,5.064,5.064,0,0,1,2.806-.838,4.748,4.748,0,0,1,3.844,1.629,7.052,7.052,0,0,1,1.371,4.664v.9h-8.59a4.51,4.51,0,0,0,1.1,3.029,3.443,3.443,0,0,0,2.666,1.155,3.768,3.768,0,0,0,1.945-.469,4.875,4.875,0,0,0,1.395-1.242l1.324,1.031A5.323,5.323,0,0,1,162.667,493.486Zm-.27-11.367a2.894,2.894,0,0,0-2.2.955,4.646,4.646,0,0,0-1.1,2.678h6.351v-.164a4.129,4.129,0,0,0-.89-2.561A2.726,2.726,0,0,0,162.4,482.119Z"/><path d="M176.249,482.518a6.464,6.464,0,0,0-1.066-.082,2.857,2.857,0,0,0-2.895,1.816v9H170.12v-12.68h2.109l.036,1.465a3.374,3.374,0,0,1,3.023-1.7,2.221,2.221,0,0,1,.961.164Z"/><path d="M180.292,480.572l.07,1.594a4.621,4.621,0,0,1,3.8-1.828q4.02,0,4.055,4.535v8.379h-2.168v-8.391a2.919,2.919,0,0,0-.627-2.027,2.511,2.511,0,0,0-1.916-.656,3.132,3.132,0,0,0-1.852.562,3.819,3.819,0,0,0-1.242,1.477v9.035h-2.168v-12.68Z"/><path d="M199.312,493.252a4.545,4.545,0,0,1-.305-1.336,4.837,4.837,0,0,1-3.61,1.57,4.476,4.476,0,0,1-3.076-1.06,3.435,3.435,0,0,1-1.2-2.69,3.585,3.585,0,0,1,1.506-3.076,7.1,7.1,0,0,1,4.236-1.1h2.11v-1a2.435,2.435,0,0,0-.68-1.81,2.732,2.732,0,0,0-2-.674,3.158,3.158,0,0,0-1.945.586,1.725,1.725,0,0,0-.785,1.418h-2.18a2.993,2.993,0,0,1,.674-1.834,4.585,4.585,0,0,1,1.828-1.4,6.144,6.144,0,0,1,2.537-.516,5.013,5.013,0,0,1,3.434,1.1,3.954,3.954,0,0,1,1.289,3.017v5.836a7.13,7.13,0,0,0,.445,2.777v.188Zm-3.6-1.652a3.8,3.8,0,0,0,1.933-.528,3.185,3.185,0,0,0,1.325-1.371v-2.6h-1.7q-3.984,0-3.984,2.332a1.973,1.973,0,0,0,.68,1.593A2.611,2.611,0,0,0,195.714,491.6Z"/><path d="M206.894,493.252h-2.168v-18h2.168Z"/><path d="M218.343,480.572l.058,1.407a4.683,4.683,0,0,1,3.762-1.641,3.624,3.624,0,0,1,3.621,2.039,4.809,4.809,0,0,1,1.647-1.477,4.859,4.859,0,0,1,2.4-.562q4.172,0,4.242,4.418v8.5H231.9v-8.367a2.911,2.911,0,0,0-.621-2.033,2.732,2.732,0,0,0-2.086-.674,2.879,2.879,0,0,0-2,.72,2.926,2.926,0,0,0-.925,1.94v8.414h-2.18v-8.309q0-2.764-2.707-2.765a2.9,2.9,0,0,0-2.918,1.816v9.258h-2.168v-12.68Z"/><path d="M245.167,493.252a4.545,4.545,0,0,1-.305-1.336,4.837,4.837,0,0,1-3.609,1.57,4.476,4.476,0,0,1-3.076-1.06,3.431,3.431,0,0,1-1.2-2.69,3.587,3.587,0,0,1,1.5-3.076,7.1,7.1,0,0,1,4.237-1.1h2.109v-1a2.431,2.431,0,0,0-.68-1.81,2.731,2.731,0,0,0-2-.674,3.161,3.161,0,0,0-1.946.586,1.728,1.728,0,0,0-.785,1.418h-2.18a2.993,2.993,0,0,1,.674-1.834,4.592,4.592,0,0,1,1.828-1.4,6.15,6.15,0,0,1,2.537-.516,5.011,5.011,0,0,1,3.434,1.1A3.95,3.95,0,0,1,247,484.451v5.836a7.149,7.149,0,0,0,.445,2.777v.188Zm-3.6-1.652a3.806,3.806,0,0,0,1.934-.528,3.183,3.183,0,0,0,1.324-1.371v-2.6h-1.7q-3.984,0-3.984,2.332a1.972,1.972,0,0,0,.679,1.593A2.611,2.611,0,0,0,241.569,491.6Z"/><path d="M249.878,486.807a7.452,7.452,0,0,1,1.371-4.717,4.727,4.727,0,0,1,7.254-.111l.105-1.407h1.981v12.375a5.156,5.156,0,0,1-1.459,3.879,5.386,5.386,0,0,1-3.92,1.418,6.518,6.518,0,0,1-2.684-.586,4.62,4.62,0,0,1-2-1.605l1.125-1.3a4.243,4.243,0,0,0,3.411,1.723,3.319,3.319,0,0,0,2.466-.891,3.4,3.4,0,0,0,.885-2.508v-1.09a4.456,4.456,0,0,1-3.551,1.5,4.329,4.329,0,0,1-3.6-1.793A7.833,7.833,0,0,1,249.878,486.807Zm2.18.246a5.687,5.687,0,0,0,.879,3.369,2.854,2.854,0,0,0,2.46,1.224,3.175,3.175,0,0,0,3.012-1.863v-5.789a3.212,3.212,0,0,0-2.988-1.816,2.882,2.882,0,0,0-2.473,1.23A6.192,6.192,0,0,0,252.058,487.053Z"/><path d="M265.909,480.572l.07,1.594a4.621,4.621,0,0,1,3.8-1.828q4.02,0,4.055,4.535v8.379h-2.168v-8.391a2.919,2.919,0,0,0-.627-2.027,2.511,2.511,0,0,0-1.916-.656,3.127,3.127,0,0,0-1.851.562,3.813,3.813,0,0,0-1.243,1.477v9.035h-2.168v-12.68Z"/><path d="M282.362,493.486a5.54,5.54,0,0,1-4.2-1.693,6.286,6.286,0,0,1-1.617-4.529v-.4a7.6,7.6,0,0,1,.721-3.369,5.616,5.616,0,0,1,2.015-2.32,5.065,5.065,0,0,1,2.807-.838,4.751,4.751,0,0,1,3.844,1.629,7.052,7.052,0,0,1,1.371,4.664v.9h-8.59a4.5,4.5,0,0,0,1.095,3.029,3.444,3.444,0,0,0,2.666,1.155,3.772,3.772,0,0,0,1.946-.469,4.885,4.885,0,0,0,1.394-1.242l1.325,1.031A5.326,5.326,0,0,1,282.362,493.486Zm-.269-11.367a2.893,2.893,0,0,0-2.2.955,4.646,4.646,0,0,0-1.1,2.678h6.352v-.164a4.135,4.135,0,0,0-.891-2.561A2.723,2.723,0,0,0,282.093,482.119Z"/><path d="M292.757,477.5v3.07h2.367v1.676h-2.367v7.873a1.763,1.763,0,0,0,.316,1.145,1.333,1.333,0,0,0,1.078.38,5.231,5.231,0,0,0,1.032-.14v1.748a6.377,6.377,0,0,1-1.664.232,2.7,2.7,0,0,1-2.192-.879,3.777,3.777,0,0,1-.738-2.5v-7.863H288.28v-1.676h2.309V477.5Z"/><path d="M848.112,566.736a10.571,10.571,0,0,1-4.213-2.045,3.908,3.908,0,0,1-1.318-2.994,4.129,4.129,0,0,1,1.611-3.334,6.406,6.406,0,0,1,4.19-1.318,6.979,6.979,0,0,1,3.135.68,5.145,5.145,0,0,1,2.132,1.875,4.792,4.792,0,0,1,.756,2.613h-2.261a3.123,3.123,0,0,0-.985-2.441,4.006,4.006,0,0,0-2.777-.887,4.093,4.093,0,0,0-2.6.734,2.446,2.446,0,0,0-.932,2.036,2.2,2.2,0,0,0,.885,1.767,8.684,8.684,0,0,0,3.012,1.321,14.033,14.033,0,0,1,3.328,1.319,5.052,5.052,0,0,1,1.781,1.682,4.292,4.292,0,0,1,.58,2.262,3.986,3.986,0,0,1-1.617,3.322,6.894,6.894,0,0,1-4.324,1.248,8,8,0,0,1-3.281-.674,5.521,5.521,0,0,1-2.35-1.845,4.505,4.505,0,0,1-.826-2.661H844.3a2.941,2.941,0,0,0,1.142,2.444,4.811,4.811,0,0,0,3.053.9,4.421,4.421,0,0,0,2.73-.726,2.362,2.362,0,0,0,.95-1.981,2.316,2.316,0,0,0-.879-1.939A10.154,10.154,0,0,0,848.112,566.736Z"/><path d="M859.339,574.342h-2.168v-18h2.168Z"/><path d="M862.819,558.3a1.294,1.294,0,0,1,.323-.891,1.209,1.209,0,0,1,.955-.363,1.23,1.23,0,0,1,.961.363,1.284,1.284,0,0,1,.328.891,1.172,1.172,0,0,1-1.289,1.23,1.231,1.231,0,0,1-.955-.351A1.253,1.253,0,0,1,862.819,558.3Zm2.344,16.043H863v-12.68h2.168Z"/><path d="M879.343,568.143a7.6,7.6,0,0,1-1.324,4.664,4.247,4.247,0,0,1-3.586,1.769,4.649,4.649,0,0,1-3.633-1.465v6.106h-2.168V561.662h1.98l.106,1.406a4.467,4.467,0,0,1,3.679-1.64,4.325,4.325,0,0,1,3.616,1.722,7.681,7.681,0,0,1,1.33,4.793Zm-2.168-.247a5.6,5.6,0,0,0-.914-3.386,2.946,2.946,0,0,0-2.508-1.242,3.186,3.186,0,0,0-2.953,1.746v6.058a3.191,3.191,0,0,0,2.976,1.735,2.93,2.93,0,0,0,2.479-1.237A6.117,6.117,0,0,0,877.175,567.9Z"/><path d="M894.167,563.607a6.574,6.574,0,0,0-1.066-.082,2.858,2.858,0,0,0-2.895,1.817v9h-2.168v-12.68h2.109l.036,1.465a3.374,3.374,0,0,1,3.023-1.7,2.206,2.206,0,0,1,.961.164Z"/><path d="M896.171,558.3a1.293,1.293,0,0,1,.322-.891,1.21,1.21,0,0,1,.955-.363,1.23,1.23,0,0,1,.961.363,1.279,1.279,0,0,1,.328.891,1.239,1.239,0,0,1-.328.879,1.253,1.253,0,0,1-.961.351,1.233,1.233,0,0,1-.955-.351A1.253,1.253,0,0,1,896.171,558.3Zm2.344,16.043h-2.168v-12.68h2.168Z"/><path d="M904.034,561.662l.07,1.594a4.621,4.621,0,0,1,3.8-1.828q4.02,0,4.055,4.535v8.379h-2.168v-8.391a2.919,2.919,0,0,0-.627-2.027,2.511,2.511,0,0,0-1.916-.656,3.127,3.127,0,0,0-1.851.562,3.813,3.813,0,0,0-1.243,1.477v9.035h-2.168v-12.68Z"/><path d="M914.71,567.9a7.451,7.451,0,0,1,1.371-4.716,4.728,4.728,0,0,1,7.254-.112l.105-1.406h1.981v12.375a5.156,5.156,0,0,1-1.459,3.879,5.386,5.386,0,0,1-3.92,1.418,6.518,6.518,0,0,1-2.684-.586,4.627,4.627,0,0,1-2-1.605l1.125-1.3a4.242,4.242,0,0,0,3.411,1.722,3.318,3.318,0,0,0,2.466-.89,3.4,3.4,0,0,0,.885-2.508v-1.09a4.456,4.456,0,0,1-3.551,1.5,4.329,4.329,0,0,1-3.6-1.793A7.834,7.834,0,0,1,914.71,567.9Zm2.18.247a5.687,5.687,0,0,0,.879,3.369,2.854,2.854,0,0,0,2.46,1.224,3.175,3.175,0,0,0,3.012-1.863v-5.789a3.212,3.212,0,0,0-2.988-1.816,2.882,2.882,0,0,0-2.473,1.23A6.2,6.2,0,0,0,916.89,568.143Z"/><path d="M945.589,574.342h-11.18v-1.559l5.906-6.562a14.034,14.034,0,0,0,1.811-2.42,4.04,4.04,0,0,0,.5-1.928,3.06,3.06,0,0,0-.809-2.191,2.824,2.824,0,0,0-2.156-.856,3.347,3.347,0,0,0-2.513.92,3.513,3.513,0,0,0-.9,2.561h-2.168A5.032,5.032,0,0,1,935.6,558.5a5.623,5.623,0,0,1,4.06-1.453,5.407,5.407,0,0,1,3.762,1.248,4.256,4.256,0,0,1,1.383,3.322q0,2.52-3.211,6l-4.571,4.957h8.567Z"/><line class="m" x1="220.685" y1="472.308" x2="265.721" y2="391.765"/><path d="M390.924,437.32a10.564,10.564,0,0,1-4.213-2.045,3.9,3.9,0,0,1-1.318-2.994A4.129,4.129,0,0,1,387,428.947a6.4,6.4,0,0,1,4.189-1.318,6.979,6.979,0,0,1,3.135.68,5.154,5.154,0,0,1,2.133,1.875,4.792,4.792,0,0,1,.756,2.613h-2.262a3.122,3.122,0,0,0-.984-2.441,4.009,4.009,0,0,0-2.778-.887,4.092,4.092,0,0,0-2.595.734,2.446,2.446,0,0,0-.932,2.036,2.2,2.2,0,0,0,.885,1.767,8.686,8.686,0,0,0,3.011,1.321,14.043,14.043,0,0,1,3.329,1.319,5.07,5.07,0,0,1,1.781,1.682,4.292,4.292,0,0,1,.58,2.262,3.986,3.986,0,0,1-1.617,3.322,6.9,6.9,0,0,1-4.324,1.248,8.012,8.012,0,0,1-3.282-.674,5.518,5.518,0,0,1-2.349-1.845,4.505,4.505,0,0,1-.826-2.661h2.261a2.939,2.939,0,0,0,1.143,2.444,4.815,4.815,0,0,0,3.053.9,4.425,4.425,0,0,0,2.73-.726,2.361,2.361,0,0,0,.949-1.981,2.316,2.316,0,0,0-.879-1.939A10.146,10.146,0,0,0,390.924,437.32Z"/><path d="M402.15,444.926h-2.168v-18h2.168Z"/><path d="M405.631,428.883a1.293,1.293,0,0,1,.322-.891,1.21,1.21,0,0,1,.955-.363,1.23,1.23,0,0,1,.961.363,1.279,1.279,0,0,1,.328.891,1.239,1.239,0,0,1-.328.879,1.253,1.253,0,0,1-.961.351,1.233,1.233,0,0,1-.955-.351A1.253,1.253,0,0,1,405.631,428.883Zm2.344,16.043h-2.168v-12.68h2.168Z"/><path d="M422.154,438.727a7.593,7.593,0,0,1-1.324,4.664,4.246,4.246,0,0,1-3.586,1.769,4.649,4.649,0,0,1-3.633-1.465V449.8h-2.168V432.246h1.981l.105,1.406a4.469,4.469,0,0,1,3.68-1.64,4.323,4.323,0,0,1,3.615,1.722,7.674,7.674,0,0,1,1.33,4.793Zm-2.168-.247a5.6,5.6,0,0,0-.914-3.386,2.944,2.944,0,0,0-2.508-1.242,3.188,3.188,0,0,0-2.953,1.746v6.058a3.2,3.2,0,0,0,2.977,1.735,2.928,2.928,0,0,0,2.478-1.237A6.11,6.11,0,0,0,419.986,438.48Z"/><path d="M436.979,434.191a6.587,6.587,0,0,0-1.067-.082,2.856,2.856,0,0,0-2.894,1.817v9H430.85v-12.68h2.109l.035,1.465a3.376,3.376,0,0,1,3.024-1.7,2.209,2.209,0,0,1,.961.164Z"/><path d="M438.982,428.883a1.294,1.294,0,0,1,.323-.891,1.21,1.21,0,0,1,.955-.363,1.23,1.23,0,0,1,.961.363,1.284,1.284,0,0,1,.328.891,1.284,1.284,0,1,1-2.567,0Zm2.344,16.043h-2.168v-12.68h2.168Z"/><path d="M446.846,432.246l.07,1.594a4.62,4.62,0,0,1,3.8-1.828q4.02,0,4.055,4.535v8.379H452.6v-8.391a2.919,2.919,0,0,0-.627-2.027,2.512,2.512,0,0,0-1.916-.656,3.13,3.13,0,0,0-1.852.562,3.819,3.819,0,0,0-1.242,1.477v9.035H444.8v-12.68Z"/><path d="M457.521,438.48a7.451,7.451,0,0,1,1.372-4.716,4.726,4.726,0,0,1,7.253-.112l.106-1.406h1.98v12.375a5.156,5.156,0,0,1-1.459,3.879,5.383,5.383,0,0,1-3.919,1.418,6.514,6.514,0,0,1-2.684-.586,4.627,4.627,0,0,1-2-1.605l1.125-1.3a4.24,4.24,0,0,0,3.41,1.722,3.321,3.321,0,0,0,2.467-.89,3.4,3.4,0,0,0,.885-2.508v-1.09a4.456,4.456,0,0,1-3.551,1.5,4.333,4.333,0,0,1-3.6-1.793A7.834,7.834,0,0,1,457.521,438.48Zm2.18.247a5.687,5.687,0,0,0,.879,3.369,2.856,2.856,0,0,0,2.461,1.224,3.177,3.177,0,0,0,3.012-1.863v-5.789a3.212,3.212,0,0,0-2.989-1.816,2.882,2.882,0,0,0-2.472,1.23A6.19,6.19,0,0,0,459.7,438.727Z"/><path d="M484.346,444.926h-2.18V430.477l-4.371,1.605v-1.969l6.211-2.332h.34Z"/><path d="M582.387,134.673a6.279,6.279,0,0,1-2,4.178,6.551,6.551,0,0,1-4.471,1.47,6.011,6.011,0,0,1-4.846-2.168,8.72,8.72,0,0,1-1.822-5.8v-1.641a9.714,9.714,0,0,1,.85-4.184,6.34,6.34,0,0,1,2.408-2.771,6.7,6.7,0,0,1,3.609-.967,6.166,6.166,0,0,1,4.36,1.518,6.356,6.356,0,0,1,1.91,4.2h-2.262a4.9,4.9,0,0,0-1.271-2.962,3.851,3.851,0,0,0-2.737-.917,4.024,4.024,0,0,0-3.381,1.6,7.321,7.321,0,0,0-1.224,4.538v1.654a7.525,7.525,0,0,0,1.16,4.422,3.746,3.746,0,0,0,3.246,1.641,4.332,4.332,0,0,0,2.877-.849,4.718,4.718,0,0,0,1.33-2.959Z"/><path d="M584.543,133.63a7.5,7.5,0,0,1,.732-3.352,5.476,5.476,0,0,1,2.039-2.3,5.555,5.555,0,0,1,2.983-.808,5.348,5.348,0,0,1,4.189,1.793,6.894,6.894,0,0,1,1.6,4.769v.153a7.551,7.551,0,0,1-.709,3.322,5.388,5.388,0,0,1-2.027,2.291,5.615,5.615,0,0,1-3.03.82,5.331,5.331,0,0,1-4.177-1.793,6.859,6.859,0,0,1-1.6-4.746Zm2.18.258a5.424,5.424,0,0,0,.978,3.386,3.315,3.315,0,0,0,5.244-.017,5.927,5.927,0,0,0,.973-3.627,5.415,5.415,0,0,0-.99-3.381,3.149,3.149,0,0,0-2.631-1.295,3.115,3.115,0,0,0-2.59,1.277A5.892,5.892,0,0,0,586.723,133.888Z"/><path d="M598.816,124.044a1.3,1.3,0,0,1,.323-.891,1.21,1.21,0,0,1,.955-.363,1.23,1.23,0,0,1,.961.363,1.285,1.285,0,0,1,.328.891,1.284,1.284,0,1,1-2.567,0Zm2.344,16.043h-2.168v-12.68h2.168Z"/><path d="M606.984,140.087h-2.168v-18h2.168Z"/><line class="m" x1="592.099" y1="173.57" x2="591.311" y2="145.904"/><line class="m" x1="491.771" y1="440.88" x2="583.892" y2="491.847"/><path d="M410.417,483V465.936H416a6.474,6.474,0,0,1,4.178,1.148,4.14,4.14,0,0,1,1.4,3.4,3.469,3.469,0,0,1-.679,2.116,4.408,4.408,0,0,1-1.852,1.423,3.965,3.965,0,0,1,2.186,1.471,4.222,4.222,0,0,1,.8,2.584,4.566,4.566,0,0,1-1.488,3.61A6.155,6.155,0,0,1,416.335,483Zm2.25-9.785h3.4a3.559,3.559,0,0,0,2.362-.74,2.48,2.48,0,0,0,.885-2.008,2.437,2.437,0,0,0-.821-2.049,4.026,4.026,0,0,0-2.5-.641h-3.328Zm0,1.8v6.14h3.715a3.574,3.574,0,0,0,2.478-.814,2.859,2.859,0,0,0,.909-2.244q0-3.082-3.352-3.082Z"/><path d="M431.147,472.264a6.455,6.455,0,0,0-1.066-.082A2.855,2.855,0,0,0,427.187,474v9h-2.168v-12.68h2.109l.035,1.465a3.376,3.376,0,0,1,3.024-1.7,2.216,2.216,0,0,1,.96.164Z"/><path d="M440.968,481.744a4.606,4.606,0,0,1-3.715,1.488,3.941,3.941,0,0,1-3.088-1.177,5.1,5.1,0,0,1-1.072-3.487v-8.25h2.168v8.192q0,2.883,2.343,2.883a3.246,3.246,0,0,0,3.305-1.852v-9.223h2.168V483h-2.062Z"/><path d="M453.753,479.635a1.6,1.6,0,0,0-.662-1.365,6.356,6.356,0,0,0-2.309-.838,10.947,10.947,0,0,1-2.613-.844,3.719,3.719,0,0,1-1.43-1.172,2.807,2.807,0,0,1-.463-1.617,3.291,3.291,0,0,1,1.319-2.637,5.147,5.147,0,0,1,3.369-1.078,5.3,5.3,0,0,1,3.5,1.113,3.538,3.538,0,0,1,1.342,2.848h-2.18a1.955,1.955,0,0,0-.756-1.535,2.831,2.831,0,0,0-1.9-.645,2.965,2.965,0,0,0-1.852.516,1.624,1.624,0,0,0-.668,1.348,1.315,1.315,0,0,0,.621,1.183,7.631,7.631,0,0,0,2.245.762,11.658,11.658,0,0,1,2.63.867,3.843,3.843,0,0,1,1.5,1.213,2.984,2.984,0,0,1,.486,1.728,3.246,3.246,0,0,1-1.359,2.725,5.7,5.7,0,0,1-3.528,1.025,6.375,6.375,0,0,1-2.695-.539,4.382,4.382,0,0,1-1.834-1.5,3.627,3.627,0,0,1-.662-2.092h2.168a2.244,2.244,0,0,0,.873,1.728,3.386,3.386,0,0,0,2.15.639,3.5,3.5,0,0,0,1.975-.5A1.531,1.531,0,0,0,453.753,479.635Z"/><path d="M460.913,471.854a4.609,4.609,0,0,1,3.75-1.77q4.02,0,4.055,4.535V483H466.55v-8.391a2.921,2.921,0,0,0-.627-2.027,2.514,2.514,0,0,0-1.916-.656,3.132,3.132,0,0,0-1.852.562,3.827,3.827,0,0,0-1.242,1.477V483h-2.168V465h2.168Z"/><path d="M484.808,483h-2.18V468.549l-4.371,1.605v-1.968l6.211-2.332h.34Z"/><line class="m" x1="547.592" y1="496.449" x2="494.127" y2="476.936"/><line class="m" x1="629.657" y1="555.906" x2="660.455" y2="506.289"/><path d="M648.854,500.76V483.7h5.578a6.471,6.471,0,0,1,4.177,1.149,4.137,4.137,0,0,1,1.4,3.4,3.465,3.465,0,0,1-.68,2.115,4.4,4.4,0,0,1-1.851,1.424,3.958,3.958,0,0,1,2.185,1.471,4.223,4.223,0,0,1,.8,2.584,4.563,4.563,0,0,1-1.488,3.609,6.158,6.158,0,0,1-4.208,1.313Zm2.25-9.785h3.4a3.553,3.553,0,0,0,2.361-.741,2.478,2.478,0,0,0,.885-2.007,2.436,2.436,0,0,0-.82-2.049,4.026,4.026,0,0,0-2.5-.641H651.1Zm0,1.8v6.141h3.714a3.579,3.579,0,0,0,2.479-.815,2.862,2.862,0,0,0,.908-2.244q0-3.081-3.351-3.082Z"/><path d="M669.584,490.025a6.574,6.574,0,0,0-1.066-.082,2.858,2.858,0,0,0-2.895,1.817v9h-2.168V488.08h2.109l.036,1.465a3.374,3.374,0,0,1,3.023-1.7,2.206,2.206,0,0,1,.961.164Z"/><path d="M679.4,499.506a4.6,4.6,0,0,1-3.715,1.488,3.938,3.938,0,0,1-3.087-1.178,5.1,5.1,0,0,1-1.073-3.486v-8.25H673.7v8.191q0,2.883,2.344,2.883a3.246,3.246,0,0,0,3.3-1.851V488.08h2.168v12.68h-2.063Z"/><path d="M692.189,497.4a1.6,1.6,0,0,0-.662-1.365,6.387,6.387,0,0,0-2.308-.838,10.916,10.916,0,0,1-2.614-.843,3.724,3.724,0,0,1-1.429-1.172,2.8,2.8,0,0,1-.463-1.617,3.288,3.288,0,0,1,1.318-2.637,5.147,5.147,0,0,1,3.369-1.078,5.3,5.3,0,0,1,3.5,1.113,3.534,3.534,0,0,1,1.342,2.848h-2.179a1.959,1.959,0,0,0-.756-1.536,2.837,2.837,0,0,0-1.9-.644,2.96,2.96,0,0,0-1.851.516,1.623,1.623,0,0,0-.668,1.347,1.316,1.316,0,0,0,.621,1.184,7.682,7.682,0,0,0,2.244.762,11.685,11.685,0,0,1,2.631.867,3.832,3.832,0,0,1,1.494,1.213,2.98,2.98,0,0,1,.486,1.728A3.246,3.246,0,0,1,693,499.969a5.7,5.7,0,0,1-3.527,1.025,6.4,6.4,0,0,1-2.7-.539,4.383,4.383,0,0,1-1.834-1.506,3.632,3.632,0,0,1-.662-2.092h2.168a2.245,2.245,0,0,0,.873,1.729,3.387,3.387,0,0,0,2.151.639,3.5,3.5,0,0,0,1.974-.5A1.531,1.531,0,0,0,692.189,497.4Z"/><path d="M699.35,489.615a4.611,4.611,0,0,1,3.75-1.769q4.019,0,4.054,4.535v8.379h-2.168v-8.391a2.909,2.909,0,0,0-.627-2.027,2.509,2.509,0,0,0-1.916-.656,3.127,3.127,0,0,0-1.851.562,3.811,3.811,0,0,0-1.242,1.477v9.035h-2.168v-18h2.168Z"/><path d="M727.3,500.76h-11.18V499.2l5.906-6.562a14.072,14.072,0,0,0,1.811-2.42,4.04,4.04,0,0,0,.5-1.928,3.06,3.06,0,0,0-.809-2.191,2.824,2.824,0,0,0-2.156-.856,3.351,3.351,0,0,0-2.514.92,3.517,3.517,0,0,0-.9,2.561h-2.168a5.032,5.032,0,0,1,1.518-3.809,5.623,5.623,0,0,1,4.06-1.453,5.407,5.407,0,0,1,3.762,1.248,4.256,4.256,0,0,1,1.383,3.322q0,2.52-3.211,6l-4.571,4.957H727.3Z"/><path d="M500.617,682h-7.394v6.047h8.589v1.84H490.973V672.826H501.7v1.84h-8.472v5.5h7.394Z"/><path d="M508.527,681.838l2.813-4.629h2.531l-4.148,6.27,4.277,6.41h-2.508l-2.93-4.746-2.929,4.746h-2.52l4.278-6.41-4.149-6.27h2.508Z"/><path d="M519.109,674.139v3.07h2.368v1.676h-2.368v7.873a1.76,1.76,0,0,0,.317,1.144,1.332,1.332,0,0,0,1.078.381,5.29,5.29,0,0,0,1.031-.14v1.748a6.371,6.371,0,0,1-1.664.232,2.7,2.7,0,0,1-2.191-.879,3.777,3.777,0,0,1-.739-2.5v-7.863h-2.308v-1.676h2.308v-3.07Z"/><path d="M529.27,690.123a5.54,5.54,0,0,1-4.2-1.693,6.287,6.287,0,0,1-1.617-4.53v-.4a7.6,7.6,0,0,1,.721-3.369,5.626,5.626,0,0,1,2.015-2.321,5.074,5.074,0,0,1,2.807-.837,4.75,4.75,0,0,1,3.844,1.629,7.05,7.05,0,0,1,1.371,4.664v.9h-8.59a4.5,4.5,0,0,0,1.1,3.029,3.443,3.443,0,0,0,2.666,1.155,3.781,3.781,0,0,0,1.945-.469,4.917,4.917,0,0,0,1.395-1.242l1.324,1.031A5.324,5.324,0,0,1,529.27,690.123ZM529,678.756a2.891,2.891,0,0,0-2.2.955,4.643,4.643,0,0,0-1.1,2.678h6.352v-.164a4.129,4.129,0,0,0-.891-2.561A2.723,2.723,0,0,0,529,678.756Z"/><path d="M542.852,679.154a6.587,6.587,0,0,0-1.067-.082,2.856,2.856,0,0,0-2.894,1.817v9h-2.168v-12.68h2.109l.035,1.465a3.376,3.376,0,0,1,3.024-1.7,2.209,2.209,0,0,1,.961.164Z"/><path d="M546.9,677.209l.07,1.594a4.62,4.62,0,0,1,3.8-1.828q4.019,0,4.054,4.535v8.379h-2.168V681.5a2.909,2.909,0,0,0-.627-2.027,2.509,2.509,0,0,0-1.916-.657,3.127,3.127,0,0,0-1.851.563,3.819,3.819,0,0,0-1.242,1.477v9.035h-2.168v-12.68Z"/><path d="M565.914,689.889a4.587,4.587,0,0,1-.3-1.336,4.835,4.835,0,0,1-3.609,1.57,4.471,4.471,0,0,1-3.076-1.061,3.429,3.429,0,0,1-1.2-2.689,3.584,3.584,0,0,1,1.506-3.076,7.094,7.094,0,0,1,4.236-1.1h2.109v-1a2.433,2.433,0,0,0-.679-1.81,2.731,2.731,0,0,0-2-.674,3.161,3.161,0,0,0-1.946.586,1.726,1.726,0,0,0-.785,1.418h-2.18a2.991,2.991,0,0,1,.674-1.834,4.61,4.61,0,0,1,1.828-1.4,6.151,6.151,0,0,1,2.538-.515,5.015,5.015,0,0,1,3.433,1.1,3.954,3.954,0,0,1,1.289,3.018v5.836a7.128,7.128,0,0,0,.446,2.777v.188Zm-3.6-1.653a3.805,3.805,0,0,0,1.934-.527,3.194,3.194,0,0,0,1.324-1.371v-2.6h-1.7q-3.984,0-3.984,2.332a1.974,1.974,0,0,0,.679,1.594A2.611,2.611,0,0,0,562.316,688.236Z"/><path d="M573.5,689.889h-2.168v-18H573.5Z"/><path d="M587.992,688.354a3.125,3.125,0,0,0,2.028-.7,2.468,2.468,0,0,0,.96-1.757h2.051a3.931,3.931,0,0,1-.75,2.074,4.947,4.947,0,0,1-1.845,1.57,5.323,5.323,0,0,1-2.444.586,5.225,5.225,0,0,1-4.119-1.728,6.889,6.889,0,0,1-1.529-4.729V683.3a7.634,7.634,0,0,1,.679-3.293,5.188,5.188,0,0,1,1.952-2.239,5.54,5.54,0,0,1,3-.8,5.082,5.082,0,0,1,3.545,1.277,4.562,4.562,0,0,1,1.506,3.316H590.98a2.986,2.986,0,0,0-.931-2.021,2.9,2.9,0,0,0-2.069-.791,3.033,3.033,0,0,0-2.56,1.189,5.584,5.584,0,0,0-.908,3.44v.41a5.472,5.472,0,0,0,.9,3.375A3.05,3.05,0,0,0,587.992,688.354Z"/><path d="M595.48,673.846a1.294,1.294,0,0,1,.323-.891,1.21,1.21,0,0,1,.955-.363,1.23,1.23,0,0,1,.961.363,1.279,1.279,0,0,1,.328.891,1.239,1.239,0,0,1-.328.879,1.253,1.253,0,0,1-.961.351,1.233,1.233,0,0,1-.955-.351A1.253,1.253,0,0,1,595.48,673.846Zm2.344,16.043h-2.168v-12.68h2.168Z"/><path d="M607.422,679.154a6.578,6.578,0,0,0-1.067-.082,2.857,2.857,0,0,0-2.894,1.817v9h-2.168v-12.68H603.4l.036,1.465a3.373,3.373,0,0,1,3.023-1.7,2.206,2.206,0,0,1,.961.164Z"/><path d="M614.277,688.354a3.123,3.123,0,0,0,2.028-.7,2.473,2.473,0,0,0,.961-1.757h2.05a3.931,3.931,0,0,1-.75,2.074,4.947,4.947,0,0,1-1.845,1.57,5.323,5.323,0,0,1-2.444.586,5.225,5.225,0,0,1-4.119-1.728,6.889,6.889,0,0,1-1.529-4.729V683.3a7.619,7.619,0,0,1,.68-3.293,5.179,5.179,0,0,1,1.951-2.239,5.542,5.542,0,0,1,3.006-.8,5.084,5.084,0,0,1,3.545,1.277,4.564,4.564,0,0,1,1.5,3.316h-2.05a2.987,2.987,0,0,0-.932-2.021,2.9,2.9,0,0,0-2.068-.791,3.035,3.035,0,0,0-2.561,1.189,5.591,5.591,0,0,0-.908,3.44v.41a5.478,5.478,0,0,0,.9,3.375A3.05,3.05,0,0,0,614.277,688.354Z"/><path d="M629.582,688.635a4.606,4.606,0,0,1-3.715,1.488,3.943,3.943,0,0,1-3.088-1.178,5.1,5.1,0,0,1-1.072-3.486v-8.25h2.168V685.4q0,2.883,2.344,2.883a3.244,3.244,0,0,0,3.3-1.851v-9.223h2.168v12.68h-2.062Z"/><path d="M635,673.846a1.3,1.3,0,0,1,.322-.891,1.212,1.212,0,0,1,.955-.363,1.228,1.228,0,0,1,.961.363,1.279,1.279,0,0,1,.328.891,1.343,1.343,0,0,1-2.244.879A1.257,1.257,0,0,1,635,673.846Zm2.344,16.043h-2.168v-12.68h2.168Z"/><path d="M643.75,674.139v3.07h2.367v1.676H643.75v7.873a1.76,1.76,0,0,0,.316,1.144,1.334,1.334,0,0,0,1.079.381,5.3,5.3,0,0,0,1.031-.14v1.748a6.377,6.377,0,0,1-1.664.232,2.7,2.7,0,0,1-2.192-.879,3.777,3.777,0,0,1-.738-2.5v-7.863h-2.309v-1.676h2.309v-3.07Z"/><line class="m" x1="621.024" y1="594.125" x2="834.09" y2="567.176"/><ellipse class="n" cx="590.123" cy="631.895" rx="19.553" ry="19.151"/></g><g class="o"><path class="l" d="M943.773,174.005q5.018-.368,10.035-.527c3.345-.14,6.69-.224,10.035-.273,6.691-.1,13.381-.07,20.071-.112l40.142-.145,40.142.152c6.69.034,13.38.023,20.071.126l5.017.106,5.018.174c3.345.1,6.69.276,10.035.5a.147.147,0,0,1,0,.294c-3.345.223-6.69.4-10.035.5l-5.018.174-5.017.106c-6.691.1-13.381.092-20.071.126l-40.142.152-40.142-.145c-6.69-.042-13.38-.015-20.071-.112-3.345-.049-6.69-.133-10.035-.273q-5.018-.163-10.035-.527a.147.147,0,0,1,0-.294Z"/></g><path class="k" d="M349.727,155.558c0-45.727,11.861-87.37,31.294-118.634H267.033l-9.781,295.981,123.769-58.714C361.588,242.927,349.727,201.284,349.727,155.558Z"/><path class="k" d="M309.491,291.182c0-45.726,11.86-87.369,31.294-118.633H188.605l4.145,237.266H340.785C321.351,378.551,309.491,336.908,309.491,291.182Z"/><polygon class="k" points="255.894 36.924 189.13 173.323 340.785 173.549 381.896 36.924 255.894 36.924"/><polygon class="k" points="381.896 273.191 340.785 409.815 226.797 409.815 267.907 273.191 381.896 273.191"/><path class="l" d="M188.605,173.4c12.682-.737,25.363-.871,38.045-.879L264.7,172.4l19.022-.06,19.023.054,38.045.119-1,.758c1.415-5.067,2.817-10.137,4.343-15.173.738-2.525,1.57-5.024,2.354-7.536.388-1.257.808-2.506,1.236-3.752s.84-2.5,1.295-3.735a.147.147,0,0,1,.189-.088.148.148,0,0,1,.094.166c-.244,1.3-.523,2.584-.8,3.872s-.548,2.577-.858,3.855c-.612,2.56-1.175,5.133-1.833,7.68-1.266,5.107-2.655,10.181-4.031,15.258l-.2.756-.79,0-38.045.119-19.023.054-19.022-.059-38.045-.12c-12.682-.008-25.363-.142-38.045-.879a.147.147,0,0,1,0-.293Z"/><path class="l" d="M340.66,410.893c-1.428-2.162-2.858-4.33-4.216-6.543q-1-1.673-1.96-3.366c-.648-1.126-1.3-2.248-1.889-3.407-2.461-4.577-4.728-9.264-6.732-14.062a212.231,212.231,0,0,1-9.853-29.575,250.687,250.687,0,0,1,.006-123.514,210.515,210.515,0,0,1,9.866-29.569c2.01-4.795,4.285-9.477,6.738-14.057,1.19-2.309,2.541-4.533,3.843-6.775,1.349-2.218,2.778-4.387,4.2-6.554a.147.147,0,0,1,.253.148l0,.007c-1.2,2.3-2.5,4.534-3.68,6.829l-1.741,3.461c-.591,1.147-1.19,2.29-1.717,3.469-1.065,2.351-2.238,4.648-3.2,7.044-1.011,2.372-2.084,4.715-2.981,7.133a229.116,229.116,0,0,0-9.539,29.381,258.322,258.322,0,0,0,.007,122.476,227.065,227.065,0,0,0,9.551,29.374c1.9,4.791,3.99,9.5,6.184,14.173,1.064,2.354,2.341,4.6,3.451,6.932,1.177,2.3,2.47,4.537,3.662,6.84l0,.006a.147.147,0,0,1-.253.149Z"/><path class="p" d="M820.035,155.558c0-45.727-11.861-87.37-31.294-118.634H902.729l6.976,288.656L788.741,274.191C808.174,242.927,820.035,201.284,820.035,155.558Z"/><path class="p" d="M860.271,292.182c0-45.726-11.861-87.369-31.294-118.633H965.762l.39,237.266H828.977C848.41,379.551,860.271,337.908,860.271,292.182Z"/><polygon class="p" points="903.46 36.924 966.152 173.549 829.556 173.549 787.866 36.924 903.46 36.924"/><polygon class="p" points="787.866 274.191 828.977 410.815 942.965 410.815 901.854 274.191 787.866 274.191"/><path class="q" d="M820.744,143.079a29.117,29.117,0,0,1,2.941,7.374l2.209,7.576,1.1,3.788,1,3.818,1.979,7.64-1-.758c22.45.02,44.9.027,67.349.162l33.675.27,16.837.195,16.838.258a.147.147,0,0,1,0,.293l-16.838.258L930,174.148l-33.675.271c-22.449.134-44.9.141-67.349.161H828.2l-.221-.759-2.208-7.576-1.1-3.79-.989-3.819L821.707,151a29.125,29.125,0,0,1-1.246-7.84.152.152,0,0,1,.283-.078Z"/><path class="q" d="M828.852,410.738c1.192-2.3,2.485-4.54,3.661-6.84,1.111-2.336,2.388-4.578,3.451-6.932,2.194-4.67,4.287-9.382,6.184-14.173a226.916,226.916,0,0,0,9.552-29.374,258.305,258.305,0,0,0,.006-122.476,228.955,228.955,0,0,0-9.538-29.381c-.9-2.418-1.97-4.761-2.981-7.133-.959-2.4-2.132-4.693-3.2-7.044-.527-1.179-1.125-2.322-1.716-3.469l-1.741-3.461c-1.185-2.3-2.479-4.532-3.68-6.829l0-.007a.146.146,0,0,1,.062-.2.148.148,0,0,1,.191.05c1.418,2.167,2.847,4.336,4.2,6.554,1.3,2.242,2.653,4.466,3.842,6.775,2.453,4.58,4.728,9.262,6.739,14.057a210.382,210.382,0,0,1,9.865,29.569,250.671,250.671,0,0,1,.007,123.514,212.231,212.231,0,0,1-9.853,29.575c-2,4.8-4.272,9.485-6.732,14.062-.585,1.159-1.242,2.281-1.889,3.407s-1.3,2.251-1.961,3.366c-1.357,2.213-2.787,4.381-4.215,6.543a.147.147,0,0,1-.254-.148Z"/><circle class="r" cx="252.124" cy="286.306" r="20.375"/><path d="M255.1,290.946a1.8,1.8,0,0,0-.7-1.529,9.259,9.259,0,0,0-2.532-1.125,17.992,17.992,0,0,1-2.894-1.166q-2.907-1.57-2.907-4.23a4.117,4.117,0,0,1,.78-2.467,5.082,5.082,0,0,1,2.238-1.694,8.432,8.432,0,0,1,3.275-.609,7.674,7.674,0,0,1,3.258.662,5.189,5.189,0,0,1,2.221,1.869,4.895,4.895,0,0,1,.791,2.742H255.11a2.3,2.3,0,0,0-.738-1.822,3.038,3.038,0,0,0-2.074-.65,3.238,3.238,0,0,0-2,.545,1.716,1.716,0,0,0-.715,1.435,1.646,1.646,0,0,0,.838,1.4,9.471,9.471,0,0,0,2.467,1.054,10.658,10.658,0,0,1,4.371,2.239,4.457,4.457,0,0,1,1.371,3.328,4.105,4.105,0,0,1-1.676,3.474,7.335,7.335,0,0,1-4.512,1.26,8.716,8.716,0,0,1-3.585-.72,5.672,5.672,0,0,1-2.467-1.975,5.053,5.053,0,0,1-.85-2.906h3.527q0,2.823,3.375,2.824a3.286,3.286,0,0,0,1.958-.51A1.66,1.66,0,0,0,255.1,290.946Z"/><circle class="r" cx="914.94" cy="285.582" r="20.375"/><path d="M921.884,294.7h-3.516l-6.844-11.226V294.7h-3.515V277.637h3.515l6.856,11.25v-11.25h3.5Z"/><polygon class="s" points="192.75 409.815 36.865 410.815 36.865 173.549 191.707 173.549 192.75 409.815"/><polygon class="t" points="191.124 173.85 36.282 173.85 94.412 37.226 255.311 37.226 191.124 173.85"/><rect class="u" x="965.541" y="172.225" width="138.799" height="238.59"/><polygon class="v" points="1105.381 175.558 966.582 175.558 903.771 37.002 1045.273 37.605 1105.381 175.558"/><ellipse class="e" cx="359.643" cy="660.116" rx="11.473" ry="11.237"/><ellipse class="e" cx="787.866" cy="660.116" rx="11.473" ry="11.237"/><path d="M834.518,485.365h-7.395v6.047h8.59v1.84h-10.84V476.189H835.6v1.84h-8.473v5.5h7.395Z"/><path d="M842.428,485.2l2.812-4.629h2.531l-4.148,6.27,4.277,6.41h-2.507l-2.93-4.746-2.93,4.746h-2.519l4.277-6.41-4.148-6.27h2.507Z"/><path d="M853.01,477.5v3.07h2.367v1.676H853.01v7.873a1.763,1.763,0,0,0,.316,1.145,1.332,1.332,0,0,0,1.078.38,5.231,5.231,0,0,0,1.032-.14v1.748a6.379,6.379,0,0,1-1.665.232,2.7,2.7,0,0,1-2.191-.879,3.777,3.777,0,0,1-.738-2.5v-7.863h-2.309v-1.676h2.309V477.5Z"/><path d="M863.17,493.486a5.538,5.538,0,0,1-4.195-1.693,6.282,6.282,0,0,1-1.618-4.529v-.4a7.613,7.613,0,0,1,.721-3.369,5.619,5.619,0,0,1,2.016-2.32,5.064,5.064,0,0,1,2.806-.838,4.748,4.748,0,0,1,3.844,1.629,7.052,7.052,0,0,1,1.371,4.664v.9h-8.59a4.51,4.51,0,0,0,1.1,3.029,3.443,3.443,0,0,0,2.666,1.155,3.768,3.768,0,0,0,1.945-.469,4.875,4.875,0,0,0,1.395-1.242l1.324,1.031A5.323,5.323,0,0,1,863.17,493.486Zm-.27-11.367a2.894,2.894,0,0,0-2.2.955,4.646,4.646,0,0,0-1.1,2.678h6.351v-.164a4.129,4.129,0,0,0-.89-2.561A2.726,2.726,0,0,0,862.9,482.119Z"/><path d="M876.752,482.518a6.464,6.464,0,0,0-1.066-.082,2.857,2.857,0,0,0-2.895,1.816v9h-2.168v-12.68h2.109l.036,1.465a3.374,3.374,0,0,1,3.023-1.7,2.221,2.221,0,0,1,.961.164Z"/><path d="M880.8,480.572l.07,1.594a4.621,4.621,0,0,1,3.8-1.828q4.02,0,4.055,4.535v8.379h-2.168v-8.391a2.919,2.919,0,0,0-.627-2.027,2.511,2.511,0,0,0-1.916-.656,3.132,3.132,0,0,0-1.852.562,3.819,3.819,0,0,0-1.242,1.477v9.035h-2.168v-12.68Z"/><path d="M899.814,493.252a4.552,4.552,0,0,1-.3-1.336,4.837,4.837,0,0,1-3.61,1.57,4.476,4.476,0,0,1-3.076-1.06,3.431,3.431,0,0,1-1.2-2.69,3.585,3.585,0,0,1,1.506-3.076,7.1,7.1,0,0,1,4.236-1.1h2.11v-1a2.435,2.435,0,0,0-.68-1.81,2.732,2.732,0,0,0-2-.674,3.158,3.158,0,0,0-1.945.586,1.725,1.725,0,0,0-.785,1.418h-2.18a2.987,2.987,0,0,1,.674-1.834,4.585,4.585,0,0,1,1.828-1.4,6.144,6.144,0,0,1,2.537-.516,5.013,5.013,0,0,1,3.434,1.1,3.954,3.954,0,0,1,1.289,3.017v5.836a7.13,7.13,0,0,0,.445,2.777v.188Zm-3.6-1.652a3.805,3.805,0,0,0,1.933-.528,3.185,3.185,0,0,0,1.325-1.371v-2.6h-1.7q-3.984,0-3.984,2.332a1.973,1.973,0,0,0,.68,1.593A2.611,2.611,0,0,0,896.217,491.6Z"/><path d="M907.4,493.252h-2.167v-18H907.4Z"/><path d="M918.846,480.572l.058,1.407a4.683,4.683,0,0,1,3.762-1.641,3.626,3.626,0,0,1,3.621,2.039,4.809,4.809,0,0,1,1.647-1.477,4.859,4.859,0,0,1,2.4-.562q4.171,0,4.242,4.418v8.5H932.4v-8.367a2.911,2.911,0,0,0-.621-2.033,2.732,2.732,0,0,0-2.086-.674,2.879,2.879,0,0,0-2,.72,2.926,2.926,0,0,0-.925,1.94v8.414h-2.18v-8.309q0-2.764-2.707-2.765a2.9,2.9,0,0,0-2.918,1.816v9.258H916.8v-12.68Z"/><path d="M945.67,493.252a4.545,4.545,0,0,1-.3-1.336,4.837,4.837,0,0,1-3.609,1.57,4.474,4.474,0,0,1-3.076-1.06,3.431,3.431,0,0,1-1.2-2.69,3.584,3.584,0,0,1,1.5-3.076,7.1,7.1,0,0,1,4.237-1.1h2.109v-1a2.431,2.431,0,0,0-.68-1.81,2.732,2.732,0,0,0-2-.674,3.16,3.16,0,0,0-1.945.586,1.728,1.728,0,0,0-.785,1.418h-2.18a2.993,2.993,0,0,1,.674-1.834,4.592,4.592,0,0,1,1.828-1.4,6.15,6.15,0,0,1,2.537-.516,5.011,5.011,0,0,1,3.434,1.1,3.95,3.95,0,0,1,1.289,3.017v5.836a7.13,7.13,0,0,0,.445,2.777v.188Zm-3.6-1.652a3.809,3.809,0,0,0,1.934-.528,3.183,3.183,0,0,0,1.324-1.371v-2.6h-1.7q-3.984,0-3.985,2.332a1.973,1.973,0,0,0,.68,1.593A2.611,2.611,0,0,0,942.072,491.6Z"/><path d="M950.381,486.807a7.452,7.452,0,0,1,1.371-4.717,4.727,4.727,0,0,1,7.254-.111l.105-1.407h1.981v12.375a5.16,5.16,0,0,1-1.459,3.879,5.386,5.386,0,0,1-3.92,1.418,6.518,6.518,0,0,1-2.684-.586,4.62,4.62,0,0,1-2-1.605l1.125-1.3a4.243,4.243,0,0,0,3.411,1.723,3.319,3.319,0,0,0,2.466-.891,3.4,3.4,0,0,0,.885-2.508v-1.09a4.456,4.456,0,0,1-3.551,1.5,4.329,4.329,0,0,1-3.6-1.793A7.833,7.833,0,0,1,950.381,486.807Zm2.18.246a5.694,5.694,0,0,0,.878,3.369,2.857,2.857,0,0,0,2.461,1.224,3.176,3.176,0,0,0,3.012-1.863v-5.789a3.212,3.212,0,0,0-2.988-1.816,2.882,2.882,0,0,0-2.473,1.23A6.192,6.192,0,0,0,952.561,487.053Z"/><path d="M966.412,480.572l.07,1.594a4.621,4.621,0,0,1,3.8-1.828q4.02,0,4.055,4.535v8.379h-2.168v-8.391a2.919,2.919,0,0,0-.627-2.027,2.511,2.511,0,0,0-1.916-.656,3.132,3.132,0,0,0-1.852.562,3.819,3.819,0,0,0-1.242,1.477v9.035h-2.168v-12.68Z"/><path d="M982.865,493.486a5.538,5.538,0,0,1-4.2-1.693,6.286,6.286,0,0,1-1.617-4.529v-.4a7.613,7.613,0,0,1,.72-3.369,5.626,5.626,0,0,1,2.016-2.32,5.065,5.065,0,0,1,2.807-.838,4.748,4.748,0,0,1,3.843,1.629,7.046,7.046,0,0,1,1.372,4.664v.9h-8.59a4.5,4.5,0,0,0,1.1,3.029,3.444,3.444,0,0,0,2.666,1.155,3.775,3.775,0,0,0,1.946-.469,4.885,4.885,0,0,0,1.394-1.242l1.324,1.031A5.323,5.323,0,0,1,982.865,493.486Zm-.269-11.367a2.893,2.893,0,0,0-2.2.955,4.646,4.646,0,0,0-1.1,2.678h6.352v-.164a4.135,4.135,0,0,0-.891-2.561A2.723,2.723,0,0,0,982.6,482.119Z"/><path d="M993.26,477.5v3.07h2.367v1.676H993.26v7.873a1.763,1.763,0,0,0,.316,1.145,1.332,1.332,0,0,0,1.078.38,5.231,5.231,0,0,0,1.032-.14v1.748a6.379,6.379,0,0,1-1.665.232,2.7,2.7,0,0,1-2.191-.879,3.777,3.777,0,0,1-.738-2.5v-7.863h-2.309v-1.676h2.309V477.5Z"/><line class="m" x1="921.187" y1="472.308" x2="877.009" y2="410.815"/><line class="m" x1="480.934" y1="677.217" x2="380.685" y2="623.371"/><line class="m" x1="745.021" y1="613.886" x2="653.5" y2="677.217"/></svg>