<?xml version="1.0" encoding="UTF-8"?><svg id="a" xmlns="http://www.w3.org/2000/svg" width="570" height="321" viewBox="0 0 570 321"><defs><style>.o{opacity:.35;}.o,.p,.q,.r,.s,.t,.u,.v,.w,.x,.y,.z,.aa,.ab,.ac,.ad,.ae,.af,.ag,.ah,.ai,.aj,.ak,.al,.am,.an,.ao,.ap{stroke-width:0px;}.o,.aj{fill:#fff;}.p{fill:#597bd1;opacity:.1;}.aq{fill:none;stroke:#d12d32;stroke-miterlimit:10;stroke-width:2px;}.r{fill:#f7eb94;}.s{fill:#f99a10;}.t{fill:#828282;}.u{fill:#5c656d;}.v{fill:#3b4651;}.w{fill:#3d2a0f;}.x{fill:#c64518;}.y{fill:#d1d1d1;}.z{fill:#c6c6c6;}.aa{fill:#d6d6d6;}.ab{fill:#af6e35;}.ac{fill:#d12d32;}.ad{fill:#b9c5ea;}.ae{fill:#8f4d09;}.af{fill:#a0704e;}.ag{fill:#ff818d;}.ah{fill:#f2bc75;}.ai{fill:#ffdc8d;}.ak{fill:#ffde94;}.al{fill:#e2e2e2;}.am{fill:#fcfbd5;}.an{fill:#fcae51;}.ao{fill:#eaeaea;}.ap{fill:#fbc062;}</style></defs><path id="b" class="ad" d="m93.438,28.823C45.929,47.879,2.713,103.816,3.38,170.669c.614,61.617,38.515,113.807,81.664,134.044,43.149,20.237,90.427,14.797,135.595,5.577,35.334-7.213,70.995-12.246,106.761-12.51,59.897-.442,124.788,41.544,182.681,5.353,53.667-33.55,72.884-127.364,43.654-195.459-27.435-63.914-83.146-98.073-137.687-104.518-32.225-3.808-64.63,3.746-96.128,12.274-36.452,9.87-73.407,14.372-110.504,9.957-38.699-4.605-78.001-11.797-115.977,3.435Z"/><path class="p" d="m566.981,179.937L456.799,13.403c-12.409-4.799-25.157-8.053-37.875-9.811-34.145,51.048-111.556,167.661-108.943,171.773,2.746,4.321-165.83-103.245-226.605-142.108-7.933,4.072-15.664,9.153-23,15.121l-12.058,230.276c11.087,11.126,23.481,20.024,36.353,26.061,43.149,20.237,90.427,14.797,135.595,5.577,35.334-7.213,70.995-12.246,106.76-12.51,59.897-.442,124.788,41.544,182.681,5.353,36.066-22.547,56.573-72.311,57.273-123.196Z"/><path class="ap" d="m108.266,127.967l-39.978,70.128c-1.396,2.45-4.398,3.477-7.002,2.396h0c-2.665-1.106-5.733-.004-7.085,2.545l-10.859,20.477c-.331.624-.541,1.306-.618,2.008l-.234,2.125-.994,9.034c-.096.874.015,1.757.324,2.58l10.096,26.852c.436,1.159,1.238,2.137,2.292,2.788,10.37,6.399,67.978,40.929,103.496,40.812,0,0,7.368.811,17.107-22.509.268-.641.412-1.335.427-2.029l.451-20.371c.022-.993.308-1.962.829-2.808l42.173-68.512c.534-.867.825-1.857.831-2.875.034-6.574-2.452-31.515-39.764-51.932-35.956-19.675-60.69-15.383-68.099-13.34-1.435.396-2.655,1.334-3.392,2.628Z"/><path class="s" d="m218.69,193.485c.534-.867.825-1.857.831-2.875.033-6.377-2.307-30.039-36.51-50.088,3.013,13.903,6.075,40.036-8.932,59.604-7.952,10.369-18,7.401-22.764,17.153-6.923,14.17,9.297,23.403,8.628,52.916-.317,13.98-4.441,33.314-4.441,33.314h0c.436,1.159-102.347-35.259-101.293-34.608,10.37,6.399,67.978,40.929,103.496,40.812,0,0,7.368.811,17.107-22.508.268-.641.412-1.335.427-2.029l.451-20.371c.022-.993.308-1.962.829-2.808l42.173-68.512Z"/><path class="u" d="m125.142,163.61c2.763-4.205,3.708,1.017,8.892,7.993,5.184,6.976,19.731,10.982,15.692,13.983-4.039,3.001-11.781,4.083-17.382-2.562-3.455-4.099-10.254-14.77-7.202-19.413Z"/><path class="u" d="m179.757,138.679c-35.956-19.675-60.69-15.383-68.099-13.34-1.31.361-2.436,1.179-3.184,2.302,7.979-.873,17.766-2.074,21.731,15.268,6.379,27.893,13.115,34.288,32.047,35.51,12.475.806,15.245-6.533,26.874-7.459,6.018-.479,14.767.903,27.587,6.159l.213-.078c-3.913-10.74-13.58-25.455-37.169-38.363Z"/><path class="ak" d="m152.393,266.337c5.471-1.197,12.736-6.21,16.39-24.296-51.732-32.755-94.009-38.653-113.163-40.716-.567.46-1.057,1.029-1.419,1.711l-10.859,20.477c-.331.624-.541,1.306-.618,2.008l-.114,1.04,109.784,39.776Z"/><path class="ai" d="m85.376,189.552c8.41-1.993,17.198-.397,25.503,1.32,9.759,2.379,19.036,6.469,27.261,12.235,3.5,2.455,6.748,5.333,9.457,8.648,0,0-.201.214-.201.214-4.837-3.045-9.074-6.63-13.964-9.363-8.317-4.971-17.71-8.392-27.189-10.386-6.877-1.488-13.783-1.741-20.835-2.377,0,0-.033-.292-.033-.292h0Z"/><path class="ae" d="m87.448,207.674l-2.055-17.976s-16.922-.193-17.927,12.605l19.982,5.37Z"/><path class="ae" d="m147.497,211.863c-.397-.058,2.633,20.056,2.633,20.056l18.653,10.121s.548-26.967-21.286-30.178Z"/><path class="ae" d="m67.445,202.158c4.616-.394,9.174.929,13.65,1.892,4.443,1.11,8.823,2.429,13.196,3.765,17.468,5.422,34.601,11.973,51.044,20.007,8.208,4.014,16.363,8.339,23.529,14.096,0,0-.161.245-.161.245-7.247-3.741-17.022-9.044-24.295-12.408-24.593-11.501-51.12-20.64-76.962-27.597h0Z"/><path class="ae" d="m73.768,219.468c-.324,2.787-1.264,5.696-3.415,7.678-4.552,4.129-12.376,3.25-16.118-1.589-4.028-4.748-3.168-12.52,1.795-16.277,4.69-3.885,12.558-3.086,16.038,1.981,1.618,2.415,2,5.412,1.7,8.207h0Zm-.292-.032c.456-3.982-2.396-7.527-5.683-9.356-3.244-1.775-7.484-1.33-10.308,1.017-3.898,3.048-4.567,9.177-1.427,12.999,2.249,2.896,6.284,4.254,9.833,3.228,3.555-1.108,7.141-3.935,7.584-7.887h0Z"/><path class="ae" d="m156.932,249.575c-.324,2.787-1.264,5.696-3.415,7.678-4.552,4.129-12.376,3.25-16.118-1.589-4.028-4.748-3.168-12.52,1.795-16.277,4.69-3.885,12.558-3.086,16.038,1.981,1.618,2.415,2,5.413,1.7,8.207h0Zm-.292-.032c.456-3.982-2.396-7.527-5.682-9.356-3.244-1.775-7.484-1.33-10.308,1.017-3.898,3.048-4.567,9.177-1.428,12.999,2.249,2.896,6.284,4.254,9.833,3.228,3.555-1.108,7.141-3.935,7.584-7.887h0Z"/><path class="ae" d="m86.818,213.4c-7.401-1.156-13.936-4.298-20.907-6.657,0,0-3.417-1.273-3.417-1.273l-1.708-.637c-1.826-.752-4.008-.239-5.227,1.318-3.771,6.594-6.677,14.426-11.219,20.604,0,0-.265-.128-.265-.128,1.292-4.775,3.469-9.122,5.51-13.534l3.089-6.606c1.019-2.672,3.923-4.654,6.853-4.393,1.264.049,2.662.735,3.808,1.152,0,0,3.402,1.31,3.402,1.31,3.977,1.583,9.659,3.736,13.566,5.34,2.231.932,4.465,2.01,6.545,3.212l-.032.292h0Z"/><path class="ae" d="m131.452,229.722c5.383,1.111,10.339,3.28,15.393,5.207,5.047,1.943,10.066,3.957,15.089,5.96,2.931.963,5.326,3.8,5.541,6.947.338,3.086-1.499,5.598-2.845,8.163-2.696,4.464-6.319,10.499-12.225,10.485,0,0-.025-.293-.025-.293,5.794-1.94,9.596-9.591,12.146-14.803,1.7-3.222-.014-7.238-3.496-8.263-5.005-2.046-10.015-4.082-14.996-6.189-4.975-2.122-10.047-4.003-14.692-6.942,0,0,.11-.272.11-.272h0Z"/><circle class="am" cx="62.351" cy="217.619" r="3.408"/><circle class="am" cx="143.509" cy="248.097" r="3.408"/><ellipse class="s" cx="99.926" cy="272.655" rx="8.587" ry="19.848" transform="translate(-188.794 241.562) rotate(-63.726)"/><path class="w" d="m83.431,259.073c.165,1.347-.262,2.195-.415,3.402-.122,1.055-.068,2.109.099,3.156.186,1.047.494,2.089.907,3.121.485,1.144,1.109,2.016,1.066,3.412,0,0-.232.18-.232.18-2.488-.859-3.549-3.942-4.12-6.306-.312-2.293-.134-6.247,2.465-7.15,0,0,.229.184.229.184h0Z"/><path class="ab" d="m50.389,261.762c17.779,6.464,34.161,16.106,51.729,23.008,17.537,6.882,35.617,12.362,53.662,17.754,0,0-1.103.376-1.103.376,2.636-3.531,5.293-7.047,8.013-10.517,2.732-3.466,5.506-6.896,8.407-10.225,0,0,.236.175.236.175-2.331,3.751-4.796,7.409-7.307,11.038-2.652,3.811-5.375,7.57-8.117,11.315,0,0-.688-.192-.688-.192-18.218-5.179-36.378-10.476-53.991-17.548-8.787-3.589-17.307-7.736-25.785-11.91-8.488-4.169-16.867-8.472-25.174-13.006l.119-.269h0Z"/><path class="am" d="m106.419,245.349c-.467.814-.877,1.695-1.593,2.302-.813.689-1.912.931-2.974,1.026-4.507.403-8.872-1.406-13.175-2.803-11.326-3.676-23.523-4.634-35.284-2.772,13.176,2.443,26.352,4.887,39.528,7.33,1.53.284,3.177.631,4.212,1.793,1.011,1.135,1.183,2.758,1.488,4.248,1.668,8.155,9.522,17.233,17.827,17.801,2.047.14,4.423-.227,5.51-1.966.427-.684.595-1.499.983-2.206.474-.863.919-4.008,1.612-4.708,4.195-4.233,4.604-10.689,3.532-16.551-2.999-16.408-15.856-13.631-21.667-3.494Z"/><path class="w" d="m113.913,246.615c-1.696,6.427-3.352,13.466-.61,19.522,1.315,2.906,3.612,5.356,6.426,6.858-1.404-9.886-.319-20.115,3.128-29.487.303-.824.629-1.681.529-2.553-.287-2.5-4.147-4.81-6.381-3.307-2.164,1.456-2.489,6.682-3.093,8.967Z"/><path class="w" d="m78.176,274.442l-17.347-7.819c-1.05-.4-1.118-1.859-.11-2.355l7.559-3.722c.514-.253,1.134-.136,1.519.288l9.182,10.096c.91,1.001.461,3.994-.803,3.513Z"/><path class="ai" d="m158.615,284.23c1.917-6.887,4.807-13.096,7.199-19.801,4.747-10.782,11.016-20.802,17.159-30.777,10.104-15.776,19.999-31.71,31.7-46.378,0,0,.242.167.242.167-14.243,24.132-30.878,46.861-44.02,71.623-4.473,8.212-6.659,17.495-12.014,25.289,0,0-.267-.123-.267-.123h0Z"/><g id="c"><path class="af" d="m209.001,83.454l2.411,3.952c.195.319.463.587.782.782l23.88,14.568,10.355-15.421c-.323.113-26.325-15.59-26.649-15.585-.216.003-3.134-.191-5.051-.32-.999-.067-1.926.507-2.315,1.429l-3.571,8.46c-.294.696-.235,1.49.159,2.135Zm7.993-4.509c1.42-1.587,4.493-1.154,6.864.968s3.142,5.128,1.722,6.715c-1.42,1.587-4.493,1.153-6.864-.968-2.371-2.122-3.142-5.128-1.722-6.715Z"/><path class="af" d="m186.839,104.926l2.411,3.952c.195.319.463.587.782.782l35.597,19.771,10.355-15.421c-.323.113-38.041-20.793-38.366-20.788-.216.003-3.134-.191-5.051-.32-.999-.067-1.926.507-2.315,1.429l-3.571,8.46c-.294.696-.235,1.49.159,2.135Zm7.993-4.509c1.42-1.587,4.493-1.154,6.864.968s3.142,5.128,1.722,6.715c-1.42,1.587-4.493,1.153-6.864-.968-2.371-2.122-3.142-5.128-1.722-6.715Z"/><path class="af" d="m259.141,71.289l-47.082-29.343s-8.75-5.683-13.931.193c0,0-5.666,7.021,1.173,12.344l48.383,32.249,11.457-15.442Z"/><path class="r" d="m279.754,56.004l18.027,9.744s6.021,3.979,2.082,12.508l17.665,10.441c1.218.72,1.974,2.021,1.997,3.436l.129,8.021c.01.648-.134,1.29-.422,1.871l-9.888,19.954-19.661,40.971c-.239.499-.578.944-.995,1.307l-13.07,11.384c-1.249,1.088-3.034,1.31-4.511.56l-20.315-10.309s-4.283,6.653-7.726,7.022l-22.456-12.181s-7.809-17.746,17.209-60.787c0,0,29.013-48.122,41.935-43.94Z"/><path class="ah" d="m314.031,96.724l-.303,1.46c-.039.187-.112.365-.216.525l-4.205,6.448c-.113.174-.192.368-.226.573-.165,1.001-.51,4.053,1.327,4.416l-27.532-13.375c-.691-.336-1.026-1.133-.781-1.862l4.579-13.63c.311-.926,1.398-1.326,2.235-.824l24.411,14.647c.557.334.842.985.71,1.621Z"/><path class="an" d="m290.483,120.289l-26.993-14.204-8.162,12.024,25.712,15.107s11.534-1.137,9.443-12.927Z"/><path class="an" d="m285.808,135.31c.514-.709,8.117,2.692,8.117,2.692,0,0-4.323,4.145-2.705,7.255l-11.87,22.294-5.247,8.706-25.256-14.331s-5.01.394-6.61-1.618l2.915-3.966,4.833-1.645-2.849-1.679,6.205-23.614-3.16-1.517,3.037-6.143,27.67,16.154s2.389.902,4.92-2.587Z"/><path class="aj" d="m277.743,80.508c-5.802,8.047-11.775,15.82-16.797,24.34-5.022,8.392-9.449,17.366-13.111,26.416-4.518,11.018-7.052,22.465-10.077,33.997,0,0-.291-.041-.291-.041.536-11.993,4.053-23.615,8.2-34.806,3.609-9.217,8.135-18.311,13.339-26.748,5.37-8.366,10.897-16.827,18.526-23.364,0,0,.211.205.211.205h0Z"/><g id="d"><path class="ao" d="m515.499,249.774c1.754-.028,3.404-1.088,4.099-2.819.925-2.302-.191-4.919-2.493-5.844-.516-.208-51.672-20.781-59.322-24.603-4.774-2.387-13.603-3.635-22.95-4.957-7.828-1.108-15.924-2.253-20.614-3.96-4.982-1.814-10.299-8.835-15.44-15.624-4.227-5.581-8.597-11.353-13.532-15.426-11.281-9.314-98.675-31.417-107.094-33.426-2.417-.572-4.838.914-5.414,3.327-.577,2.414.914,4.838,3.327,5.414,31.02,7.404,96.177,25.601,103.46,31.614,4.125,3.406,8.174,8.752,12.089,13.922,6.201,8.188,12.058,15.923,19.529,18.643,5.575,2.029,14.144,3.241,22.43,4.414,7.84,1.109,16.727,2.366,20.192,4.098,7.973,3.985,57.867,24.05,59.987,24.902.573.231,1.165.335,1.746.325Z"/><path class="v" d="m380.647,179.906c2.995.175,5.982.502,8.944.978-1.189-1.192-2.351-2.406-3.514-3.613,4.595,4.018,8.715,9.433,12.702,14.697,5.142,6.789,10.459,13.81,15.44,15.624,4.69,1.708,12.786,2.853,20.614,3.96,9.348,1.322,18.177,2.571,22.95,4.957,1.975.987,6.855,3.092,13.011,5.674,3.149,2.444,6.298,4.889,9.446,7.333-5.958-1.704-11.915-3.407-17.873-5.111,2.857,2.033,5.715,4.066,8.572,6.099-12.167-6.645-25.969-10.269-39.831-10.456.001.018.008.034.009.052-7.491-1.071-14.948-2.236-19.973-4.065-7.471-2.721-13.329-10.455-19.529-18.643-2.618-3.457-5.297-6.979-8.017-9.961-.12-.229-.277-.442-.48-.631,2.619-.106,5.259.343,7.696,1.308-3.389-2.735-6.778-5.469-10.166-8.204Z"/></g><g id="e"><path class="y" d="m261.113,126.352s-11.678,13.669-12.655,30.929c3.085,2.457,6.673,5.038,10.781,7.561,5.049,3.1,9.846,5.473,14.121,7.298,2.589-6.451,2.082-14.111,4.67-20.562,0,0,11.331-12.301,10.204-12.492-.266-.045-1.923-.781-4.298-1.878-.867-.401-2.072,1.261-3.05.689-7.471-4.362-19.774-11.545-19.774-11.545Z"/><path class="z" d="m288.266,139.271c-2.508,4.121-5.974,8.261-8.842,12.17,0,0,.279-.616.279-.616-1.122,6.169-2.493,12.535-3.898,18.628,0,0-2.268-1.136-2.268-1.136,1.911-2.05,3.889-3.977,6.363-5.397,0,0,.28.252.28.252-1.147,2.613-2.853,4.785-4.687,6.903,0,0-3.097,3.578-3.097,3.578l.829-4.714c1.039-6.161,2.219-12.574,3.55-18.697,0,0,.074-.35.074-.35l.206-.266c1.368-1.771,3.46-4.165,4.92-5.895,1.767-1.912,3.551-4.18,6.229-4.83,0,0,.062.372.062.372h0Z"/><path class="ao" d="m276.782,148.493c-3.524-.331-7.717-2.816-10.922-4.141-3.518-1.636-7.006-3.331-10.45-5.12,0,0,1.407-.41,1.407-.41-1.119,1.767-1.879,3.811-2.661,5.759-.278.67-.505,1.352-.81,2.074,0,0-.293-.01-.293-.01-.448-1.531-.299-3.156.09-4.655.506-1.815,1.323-3.503,2.279-5.147,5.474,2.393,11.303,5.302,16.63,8.067,1.734.868,3.416,1.847,4.859,3.318l-.128.264h0Z"/></g><g id="f"><ellipse class="ao" cx="261.107" cy="157.496" rx="10.554" ry="12.618" transform="translate(9.086 329.157) rotate(-65.358)"/><path class="t" d="m264.478,149.848c-.829.431-5.15,4.681-5.124,6.353l-4.439-3.064-1.621,3.161,3.586,2.033s-2.053,2.332-2.033,3.586l3.178,2.666,2.039-3.168s2.525,1.857,3.812,3.074l2.049-2.541-3.39-2.872s5.137-5.517,5.107-7.398l-3.165-1.83Z"/></g><g id="g"><path class="x" d="m386.277,171.166c2.658-.043,4.524-.297,5.515-.767l-2.887-6.091s.089-.066.337-.134c-.158.043-4.13,1.047-21.822-1.265-7.672-1.004-20.835-8.149-38.066-20.665-13.268-9.637-24.252-19.091-24.361-19.186-1.41-1.215-3.537-1.058-4.754.351-1.215,1.41-1.058,3.538.351,4.753.111.097,11.276,9.708,24.764,19.508,18.417,13.381,32.275,20.757,41.192,21.922,8.544,1.117,15.257,1.646,19.73,1.574Z"/><path class="x" d="m526.438,233.167c1.577-.025,3.05-1.005,3.628-2.574.75-2.037-.294-4.298-2.331-5.048-5.427-1.998-10.947-4.178-16.285-6.285-21.285-8.404-43.295-17.095-67.168-17.573-1.254-.025-2.516-.033-3.781-.041-6.559-.042-12.755-.081-18.106-2.471-7.971-3.56-12.792-11.617-17.895-20.146-1.328-2.22-2.702-4.515-4.126-6.707-2.857-4.393-6.91-9.861-12.946-13.17-4.233-2.322-8.769-3.427-13.155-4.497-1.872-.457-3.64-.888-5.377-1.407-12.104-3.617-16.409-6.375-23.641-18.874-6.852-11.845-28.096-21.962-44.675-24.901-2.132-.38-4.178,1.047-4.558,3.185-.378,2.138,1.048,4.179,3.186,4.557,16.33,2.895,34.3,12.555,39.24,21.096,8.34,14.413,14.639,18.417,28.197,22.469,1.929.577,3.879,1.052,5.765,1.512,4.07.992,7.913,1.93,11.237,3.753,4.501,2.467,7.779,6.94,10.134,10.561,1.344,2.069,2.62,4.201,3.971,6.458,5.506,9.201,11.198,18.717,21.436,23.29,6.858,3.062,14.181,3.109,21.263,3.153,1.229.009,2.455.017,3.673.041,22.459.449,43.8,8.875,64.438,17.024,5.38,2.124,10.943,4.322,16.457,6.351.469.172.949.25,1.42.243Z"/><path class="v" d="m381.762,160.09c.192-1.396-.069-2.569-.642-3.585,2.139.688,4.259,1.523,6.307,2.646,6.036,3.309,10.089,8.777,12.946,13.17,1.424,2.191,2.798,4.486,4.126,6.707,5.103,8.53,9.924,16.587,17.895,20.146,5.351,2.39,11.546,2.429,18.106,2.471,1.265.008,2.528.017,3.781.041,8.12.163,16.02,1.291,23.754,3.019-.141.619-.036,1.264.437,1.683-6.627,2.563-13.992-2.13-21.034-1.188-1.074.144-2.42.883-2.094,1.917.165.522.708.812,1.202,1.047,1.197.571,2.393,1.142,3.59,1.713-1.997-.163-3.999-.288-6.013-.328-1.218-.024-2.444-.032-3.673-.041-7.082-.044-14.405-.091-21.263-3.153-10.238-4.573-15.931-14.089-21.436-23.29-1.351-2.257-2.626-4.389-3.971-6.458-2.355-3.621-5.634-8.094-10.134-10.561-.04-.022-.082-.04-.122-.062-.203-.797-.555-1.566-1.041-2.214-1.402-1.871-3.561-2.991-5.646-4.048,1.642.122,3.283.245,4.924.367Z"/><path class="ag" d="m324.347,124.854c-.102-.137.012-.28.167-.294,3.719-.332,7.205,1.632,10.2,3.638,3.047,2.099,5.642,4.912,7.484,8.165,1.733,3.125,3.337,6.284,5.246,9.151,1.968,2.926,4.341,5.171,7.183,7.315,0,0-.113.271-.113.271-1.837-.264-3.578-1.116-5.049-2.271-4.238-3.515-6.7-8.708-9.37-13.288-2.452-4.473-6.469-7.997-11.008-10.314-1.199-.621-3.142-1.678-4.354-2.239,0,0-.145-.065-.145-.065l-.062-.026c-.009-.004-.019-.007-.007-.013-.005-.006.004.007.061-.051.03-.038.04-.127-.007-.17l-.226.188h0Z"/><path class="x" d="m370.715,157.266c2.467-1.197,5.044-1.234,7.598-1.141,3.923.183,8.12.431,11.626,2.689,1.187.891,1.765,1.466,2.905,2.176,2.019,1.347,4.371,1.74,6.423,3.111,0,0,.013.377.013.377-1.316.744-2.741.728-4.06.459-1.975-.476-3.888-1.315-5.564-2.479-1.516-1.203-2.549-1.87-4.438-2.393-4.676-1.573-9.66-.836-14.479-2.423,0,0-.025-.376-.025-.376h0Z"/><path class="x" d="m525.129,224.378c3.39,1.211,7.04,1.781,10.62,1.711,0,0-.109,2.403-.109,2.403-1.345-.072-2.692-.118-4.035-.21-2.558-.161-9.449-.595-12.095-.761,0,0,.658-2.761.658-2.761,7.466,3.01,14.919,6.05,22.337,9.177,0,0-1.095,2.843-1.095,2.843-8.465-3.045-17.333-6.299-25.765-9.459,0,0,.996-2.284.996-2.284,3.456,2.072,9.838,6.073,9.796,10.556,0,0-.377.006-.377.006-.607-2.223-2.788-3.545-4.558-4.848-1.915-1.272-3.979-2.457-6.015-3.499,0,0,.996-2.284.996-2.284,2.176.707,4.331,1.473,6.497,2.207,6.296,2.148,13.215,4.53,19.452,6.734,0,0-1.095,2.843-1.095,2.843-7.452-3.044-14.868-6.175-22.27-9.337,0,0-8.14-3.523-8.14-3.523,4.206.367,12.66,1.095,16.848,1.459,2.366.208,5.716.485,8.046.741,0,0-.109,2.403-.109,2.403-3.839-.246-7.75-1.37-10.781-3.798,0,0,.2-.319.2-.319h0Z"/><path class="x" d="m425.982,245.305c-11.476-2.311-45.697-10.832-47.148-11.193-1.807-.45-2.906-2.279-2.456-4.085.45-1.807,2.286-2.902,4.085-2.456.056.014.983.245,2.546.632-.05-.106-.095-.216-.134-.329-.612-1.758.317-3.678,2.076-4.289,1.908-.666,34.786-2.418,73.374,14.856,1.366.611,2.165,2.05,1.962,3.533-.203,1.482-1.36,2.654-2.84,2.875-.518.077-8.732,1.287-17.704,1.431-4.713.076-9.636-.143-13.761-.974Zm-35.831-15.34c11.358,2.789,29.589,7.209,37.162,8.734,4.473.9,10.203.974,15.393.745-24.58-8.707-44.715-9.549-52.555-9.479Z"/><path class="v" d="m376.378,230.027c.45-1.807,2.286-2.902,4.085-2.456.056.014.983.245,2.546.632-.016-.035-.029-.073-.044-.109,1.79,1.261,4.106,1.521,6.3,1.745.365.037.728.086,1.093.124-.067,0-.14,0-.206,0,11.358,2.789,29.589,7.209,37.162,8.734,3.926.79,8.819.943,13.466.814,2.031.56,4.059,1.131,6.078,1.732-1.091-.043-2.187.067-3.247.326,1.302.55,2.724.812,4.136.761-1.173.095-2.316.542-3.243,1.267,2.46.043,4.924-.087,7.366-.387-1.471.672-2.817,1.594-4.018,2.676-2.478.191-5.254.345-8.109.391-4.713.076-9.636-.143-13.761-.974-11.476-2.311-45.697-10.832-47.148-11.193-1.807-.45-2.906-2.279-2.456-4.085Z"/><path class="x" d="m402.159,224.813c-1.227,1.501-2.787,1.393-4.251,1.503-3.028.175-6.169-.469-8.749-2.176-1.349-.888-2.637-1.996-2.634-3.802,0,0,.297-.232.297-.232.94.131,1.482.46,2.093.717,2.671,1.774,5.864,2.389,9.042,2.715,1.493.134,2.721-.048,4.13.905,0,0,.073.37.073.37h0Z"/><path class="x" d="m463.808,239.33c-1.001,1.651-2.552,1.749-3.982,2.045-2.978.568-6.217.282-8.916-1.276-1.39-.799-2.767-1.963-2.737-3.728,0,0,.297-.232.297-.232,1.296.215,1.908.583,2.865,1.109,1.342.718,2.834,1.029,4.36,1.231,1.877.226,3.871.173,5.788-.002.674.002,1.369.1,2.203.497l.122.357h0Z"/><path class="x" d="m469.002,244.298c-1.522.637-2.616.18-4.031-.074-2.442-.412-4.882-.744-7.334-.705-1.289.115-2.488.354-3.868-.111,0,0-.169-.337-.169-.337.688-1.587,2.223-2.001,3.713-2.285,1.426-.255,2.869-.303,4.276-.168,1.406.146,2.769.474,4.081.917,1.286.474,2.71.718,3.484,2.417l-.151.345h0Z"/></g><g id="h"><path class="ao" d="m310.221,98.522l-18.502-8.769s-7.831-.794-17.634,13.54l23.246,12.55,12.904-16.484"/><path class="aa" d="m308.074,110.469c-.324-3.858.521-7.539,1.088-11.304,0,0,1.931.866,1.931.866-2.083,2.8-4.23,5.55-6.361,8.313-1.916,2.417-4.617,5.817-6.55,8.165,0,0,.224-.554.224-.554-.489,3.79-.775,7.569-2.105,11.209-.029.079-.116.119-.194.09-.514-1.857-.312-3.953-.297-5.855.205-1.791.128-4.6.643-6.188,1.812-2.445,4.495-5.908,6.38-8.353,2.171-2.732,4.325-5.476,6.543-8.171.37-.493,1.083-.585,1.559-.19.321.264.45.676.372,1.056-.383,1.847-.721,3.703-1.141,5.544-.437,1.838-.962,3.66-1.804,5.424-.062.139-.28.096-.289-.052h0Z"/><path class="aa" d="m273.527,103.173c2.449.171,4.366,1.353,6.403,2.307,2.031.967,4.026,2.001,6.026,3.026,1.977,1.068,3.958,2.13,5.906,3.253,1.952,1.116,3.973,2.1,5.538,3.954.09.101.001.279-.136.26-2.414-.236-4.372-1.342-6.398-2.316-2.03-.967-4.029-1.995-6.03-3.017-1.979-1.065-3.963-2.121-5.911-3.244-1.942-1.136-4.003-2.044-5.533-3.963-.086-.102.001-.275.137-.26h0Z"/></g><g id="i"><path class="aa" d="m278.94,94.417c-.074-4.588,5.621-8.399,12.718-8.513,7.098-.114,12.911,3.513,12.985,8.1l.106,6.582c.074,4.587-5.621,8.399-12.718,8.513-7.098.114-12.911-3.513-12.985-8.1-.019-1.17-.087-5.413-.106-6.582Z"/><path class="al" d="m291.907,85.901c6.712-.108,12.214,3.605,12.28,7.738s-4.675,7.87-11.387,7.977c-6.712.108-12.554-3.683-12.62-7.816s5.015-7.792,11.727-7.899Z"/><path class="q" d="m300.639,88.102c-.2-.047-3.589-.827-6.347,1.009,0,0-4.221-2.471-4.371-2.518-.15-.047-2.82,1.091-2.82,1.091l3.072,2.241s-8.302,3.817-8.748,7.01c.337.48.873,1.131,1.672,1.739.732.557,1.435.89,1.957,1.09.557-.985,1.494-2.369,2.998-3.679,1.984-1.728,4.013-2.509,5.224-2.871,0,0,1.643.916,2.77,2.889l3.258-1.695-2.136-2.803s4.98-1.756,6.032-1.325c-.363-.433-.837-.924-1.441-1.404-.392-.312-.773-.565-1.122-.772Z"/><path class="aj" d="m303.896,95.894c.084,1.841-1.231,3.105-2.531,4.153-2.562,2.109-6.045,2.906-9.283,2.594-1.636-.134-3.241-.396-4.494-1.589,0,0,.072-.285.072-.285.85-.295,1.601-.345,2.336-.322,4.174.282,8.599-.469,11.732-3.421.541-.449,1.125-.86,1.904-1.26l.264.129h0Z"/><path class="q" d="m299.719,107.658c-1.913,3.218-9.231,3.65-12.499,2.551-3.079-1.297-7.71-3.026-7.814-6.965,0,0,.284-.076.284-.076,1.771,2.082,4.18,3.271,6.656,4.301,2.448,1.04,5.106,1.027,7.75.746,1.922-.18,3.43-.924,5.473-.81,0,0,.149.253.149.253h0Z"/></g><g id="j"><path class="af" d="m320.466,95.181h21.779v10.936h-21.779c-2.686,0-4.867-2.181-4.867-4.867v-1.201c0-2.686,2.181-4.867,4.867-4.867Z" transform="translate(578.413 337.448) rotate(-153.509)"/><path class="ah" d="m339.271,100.629c-.908,1.12-1.922,1.197-2.902,1.585-.971.37-1.924.756-2.822,1.204-.892.449-1.78.902-2.541,1.492-.883.711-1.335,1.346-2.49,1.868,0,0-.272-.11-.272-.11-.551-2.579,2.344-4.366,4.245-5.419,1.052-.522,2.159-.869,3.274-1.113,1.11-.214,2.224-.626,3.473.202l.034.292h0Z"/><path class="ah" d="m334.376,97.675c-.908,1.12-1.922,1.197-2.902,1.585-.971.37-1.924.756-2.822,1.204-.892.449-1.78.902-2.541,1.492-.883.711-1.336,1.346-2.49,1.868,0,0-.272-.11-.272-.11-.551-2.579,2.344-4.366,4.245-5.419,1.052-.522,2.159-.869,3.274-1.113,1.11-.214,2.224-.626,3.473.202,0,0,.034.292.034.292h0Z"/><path class="ah" d="m329.48,94.721c-.908,1.12-1.922,1.197-2.902,1.585-.971.37-1.924.756-2.822,1.204-.892.449-1.78.902-2.541,1.492-.883.711-1.335,1.346-2.49,1.868,0,0-.272-.11-.272-.11-.551-2.579,2.344-4.366,4.245-5.419,1.052-.522,2.159-.869,3.274-1.113,1.11-.214,2.224-.626,3.473.202,0,0,.034.292.034.292h0Z"/><path class="ah" d="m324.584,91.766c-.319,1.038-.766.962-1.195,1.156-.426.171-.852.317-1.285.436-.433.117-.878.191-1.328.265-.458.068-.83.29-1.615-.376l-.115-.27c.09-1.026.598-1.153,1.038-1.383.446-.234.907-.434,1.388-.564.48-.131.974-.205,1.475-.226.498.001.982-.244,1.602.671l.034.292h0Z"/><path class="af" d="m257.406,117.014l37.012,20.046c2.688,1.375,5.983.31,7.358-2.378s.31-5.983-2.378-7.358l-37.012-20.046c.173.602.792,3.02-.452,5.642-1.373,2.895-4.005,3.905-4.528,4.094Z"/><path class="ah" d="m300.264,128.703c-.92,1.11-1.934,1.177-2.919,1.554-.975.359-1.932.736-2.834,1.175-.897.44-1.789.884-2.556,1.466-.891.702-1.349,1.332-2.509,1.842,0,0-.271-.113-.271-.113-.524-2.585,2.39-4.341,4.302-5.374,1.058-.511,2.168-.846,3.286-1.079,1.112-.202,2.23-.603,3.471.238l.031.292h0Z"/><path class="ah" d="m295.399,125.698c-.92,1.11-1.934,1.177-2.919,1.554-.975.359-1.932.736-2.834,1.175-.897.44-1.789.884-2.556,1.466-.891.702-1.349,1.332-2.509,1.842,0,0-.271-.113-.271-.113-.524-2.585,2.39-4.341,4.302-5.374,1.058-.511,2.168-.846,3.286-1.079,1.112-.202,2.23-.603,3.471.238,0,0,.031.292.031.292h0Z"/><path class="ah" d="m290.535,122.693c-.92,1.11-1.934,1.177-2.919,1.554-.975.359-1.932.736-2.834,1.175-.897.44-1.789.884-2.556,1.466-.891.702-1.349,1.332-2.509,1.842,0,0-.271-.113-.271-.113-.524-2.585,2.39-4.341,4.302-5.374,1.058-.511,2.168-.846,3.286-1.079,1.112-.202,2.23-.603,3.471.238,0,0,.031.292.031.292h0Z"/><path class="ah" d="m284.627,119.595c-.92,1.11-1.934,1.177-2.919,1.554-.975.359-1.932.736-2.834,1.175-.897.44-1.789.884-2.556,1.466-.891.702-1.349,1.332-2.509,1.842,0,0-.271-.113-.271-.113-.524-2.585,2.39-4.341,4.302-5.374,1.058-.511,2.168-.846,3.286-1.079,1.112-.202,2.23-.603,3.471.238l.031.292h0Z"/><path class="ah" d="m278.72,116.498c-.92,1.11-1.934,1.177-2.919,1.554-.975.359-1.932.736-2.834,1.175-.897.44-1.789.884-2.556,1.466-.891.702-1.349,1.332-2.509,1.842,0,0-.271-.113-.271-.113-.524-2.585,2.39-4.341,4.301-5.374,1.058-.511,2.168-.846,3.286-1.079,1.112-.202,2.23-.603,3.471.238,0,0,.031.292.031.292h0Z"/><path class="ah" d="m272.812,113.401c-.92,1.11-1.934,1.177-2.919,1.554-.975.359-1.932.736-2.834,1.175-.897.44-1.789.884-2.556,1.466-.891.702-1.349,1.332-2.509,1.842,0,0-.271-.113-.271-.113-.524-2.585,2.39-4.341,4.302-5.374,1.058-.511,2.168-.846,3.286-1.079,1.112-.202,2.23-.603,3.471.238l.031.292h0Z"/><path class="ah" d="m266.85,110.299c-.254.449-.397.64-.553.741-.769.261-1.526.47-2.358.515-.351.03-.626.208-1.313-.499-.245-.391-.022-1.045.136-1.208.83-.638,1.895-.967,2.957-.832.41.078.958-.066,1.209,1l-.078.283h0Z"/><path class="af" d="m282.005,169.101c-.079.687.257,1.353.866,1.682l12.225,6.599c2.813,1.099,5.984-.29,7.083-3.103h0c1.099-2.813-.29-5.984-3.103-7.083l-11.577-6.249c-.951-.513-2.15-.242-2.75.657-.579.869-1.179,1.942-1.68,3.221-.631,1.61-.927,3.088-1.063,4.276Z"/><path class="ah" d="m301.173,168.381c-.804,1.197-1.806,1.365-2.748,1.839-.934.455-1.849.925-2.702,1.453-.849.527-1.692,1.059-2.396,1.714-.816.788-1.209,1.461-2.312,2.084,0,0-.281-.085-.281-.085-.78-2.519,1.943-4.559,3.741-5.778,1.001-.615,2.072-1.059,3.161-1.403,1.086-.312,2.158-.823,3.477-.111l.06.287h0Z"/><path class="ah" d="m296.474,165.831c-.804,1.197-1.806,1.365-2.748,1.839-.934.455-1.849.925-2.702,1.453-.849.527-1.692,1.059-2.396,1.714-.816.788-1.209,1.461-2.312,2.084,0,0-.281-.085-.281-.085-.78-2.519,1.943-4.559,3.741-5.778,1.001-.615,2.072-1.059,3.161-1.403,1.086-.312,2.158-.823,3.477-.111l.06.287h0Z"/><path class="ah" d="m291.77,163.283c-.67,1.137-1.512,1.22-2.312,1.6-.793.359-1.567.731-2.325,1.111-1.707.673-2.904,2.161-4.642,2.427,0,0-.239-.17-.239-.17-.177-1.225.569-1.993,1.359-2.715.742-.665,1.556-1.243,2.425-1.692.873-.438,1.786-.772,2.718-1.009.927-.209,1.844-.63,2.965.157l.051.289h0Z"/></g><path class="v" d="m310.583,127.724c4.488,3.673,11.262,9.066,18.771,14.52,17.231,12.516,30.394,19.662,38.066,20.665,17.691,2.312,21.663,1.308,21.822,1.265-.248.068-.337.134-.337.134l2.887,6.091c-.991.469-2.857.724-5.515.767-4.473.072-11.186-.457-19.73-1.574-8.917-1.165-22.775-8.541-41.192-21.922-7.592-5.516-14.447-10.972-19.01-14.706l4.239-5.241Z"/></g><path class="o" d="m553.734,107.674c-27.435-63.914-83.146-98.073-137.687-104.518-32.225-3.808-64.63,3.746-96.128,12.274-36.452,9.87-73.407,14.372-110.504,9.957-38.699-4.605-78-11.797-115.977,3.435C45.929,47.879,2.713,103.816,3.38,170.669c.615,61.617,38.515,113.807,81.664,134.044,43.149,20.237,90.427,14.797,135.595,5.577,35.334-7.213,70.995-12.246,106.76-12.51,59.897-.442,124.788,41.544,182.681,5.353,53.667-33.55,72.884-127.364,43.654-195.459Zm-96.979,167.906c-39.349,16.673-84.926-1.775-101.598-41.123s1.775-84.925,41.123-101.598c39.349-16.673,84.926,1.775,101.599,41.123,16.673,39.348-1.775,84.925-41.124,101.598Z"/><g id="k"><line class="aq" x1="442.981" y1="107.371" x2="447.98" y2="65.043"/><polygon class="ac" points="451.178 105.988 441.635 118.773 435.332 104.117 451.178 105.988"/><circle class="aq" cx="426.517" cy="204.219" r="77.503"/></g></svg>