<?xml version="1.0" encoding="UTF-8"?><svg id="a" xmlns="http://www.w3.org/2000/svg" width="1140" height="641" xmlns:xlink="http://www.w3.org/1999/xlink" viewBox="0 0 1140 641"><defs><clipPath id="b"><path d="m1137,330.779c0,166.455-1.53,305.983-224.918,307.513-231.079,1.583-305.471-35.325-662.515-7.65C52.189,645.942,12.408,518.959,3.227,306.301-3.952,140.001,159.22-70.874,433.174,26.326c147.477,52.326,362.624-55.077,533.99-12.239,122.403,30.598,169.836,236.496,169.836,316.692Z" fill="none"/></clipPath></defs><g clip-path="url(#b)"><rect x="-14.716" y="-39.027" width="1159.579" height="695.522" fill="#828cd8"/><rect x="986.379" y="-92.142" width="493.389" height="1173.221" transform="translate(270.229 -420.901) rotate(21.701)" fill="#fff" opacity=".15"/><path d="m591.284,190.214c-127.317,44.248-284.692,12.365-317.809-82.924-33.117-95.289,70.566-217.9,197.883-262.148,127.317-44.248,213.761,12.287,246.878,107.576,33.117,95.289.366,193.249-126.951,237.497Z" fill="#93e2e2"/><path d="m278.611,74.526s-47.259-18.566-52.323-10.127c-5.064,8.439,16.878,28.693,16.878,28.693,0,0-10.127,33.757,5.064,33.757s45.572-18.566,42.196-27.005c-3.376-8.439-11.815-25.318-11.815-25.318Z" fill="#93e2e2"/><path d="m631.091-138.635s8.657,59.945,3.389,96.963c-3.343,23.493-36.266,48.02-69.263,48.904-76.399,2.047-81.885-27.489-81.885-27.489,0,0-7.886-72.737-4.976-86.596s44.467-55.103,53.036-57.478c8.569-2.375,92.395,7.466,99.699,25.696Z" fill="#f9b89d"/><path d="m634.342-42.186s-20.265,119.263-23.354,133.181c-3.06,13.786-31.659,14.741-29.767-4.051,2.121-21.069,16.818-132.065,16.818-132.065l36.303,2.936Z" fill="#f9b89d"/><path d="m598.198-34.541s-14.803,140.588-16.717,159.383c-1.484,14.576-28.559,14.457-30.632,2.828-1.09-6.114,14.535-149.065,13.621-153.988-.914-4.923,33.728-8.224,33.728-8.224Z" fill="#f9b89d"/><path d="m531-44.843c-2.915,7.672-34.092,156.788-36.713,171.513-2.621,14.725,25.166,18.801,31.035,9.369,4.463-7.172,45.999-156.406,49.065-169.218" fill="#f9b89d"/><path d="m532.214-42.474s-16.082,74.42-17.774,82.578c-1.691,8.158-9.974,75.469-16.945,92.44-2.569,6.255-28.695,11.209-30.994-7.042-1.572-12.476,11.905-105.314,13.597-113.472,1.691-8.158,6.732-66.677,6.732-66.677,0,0,46.511,6.734,45.384,12.173Z" fill="#f9b89d"/><path d="m608.125,94.538c-.199-2.328-.335-4.725-.679-7.029-.106-.759-.238-1.552-.407-2.249l.888.791c-3.037-.226-6.339-.135-9.02.833-.953.385-1.713.83-2.2,1.669-.911,1.602-1.569,3.397-1.783,5.214-.113.737-.07,1.762.039,2.201,0,0,.293.374.293.374,1.488,2.071,4.218,2.094,6.427,1.058,2.177-.842,4.384-1.783,6.442-2.863h0Zm.263.13c-1.422,2.188-3.646,3.483-5.925,4.571-3.036,1.582-6.989,1.298-9.169-1.67-2.003-2.507.164-9.433,2.313-11.428,3.559-2.878,8.358-2.499,12.602-2.151.435.052.77.38.853.787.176.873.284,1.671.359,2.509.2,2.485-.012,5.084-1.033,7.381h0Z" fill="#824c3a"/><path d="m575.186,124.699c-.139-2.557-.384-5.707-.712-8.233-.11-.903-.236-1.828-.398-2.694l.89.847c-3.974-.229-8.462-.608-11.841,1.435-1.559,1.539-2.21,4.101-2.508,6.209-.068.593-.077,1.55.082,2.024.005.019,0-.001-.008-.008-.011-.021-.025-.041-.042-.058.11.168.485.557.628.731,2.065,2.338,5.215,3.784,8.13,2.272,1.922-.778,3.978-1.545,5.781-2.525h0Zm.267.121c-1.493,2.431-4.006,3.72-6.562,4.756-3.387,1.19-7.004-.654-9.267-3.051-.338-.394-.879-.851-1.06-1.344-1.025-3.192.539-8.93,3.124-11.025,4.073-2.593,9.037-2.015,13.572-1.597.453.059.796.414.862.844.15.979.255,1.91.33,2.869.19,2.882.085,5.821-.999,8.549h0Z" fill="#824c3a"/><path d="m508.275,116.351c.387,4.623.293,9.356.363,13.993,0,0-.628-.945-.628-.945,1.998.799,4.105,1.495,6.198,2.023,2.654.52,6.304,1.647,8.41-.111.206-.183.468-.916.62-1.183,1.301-3.061,2.768-6.361,2.894-9.679.005-.025-.046-.082.082.121-.733-1.185-.968-2.425-1.625-3.567-3.257-6.635-11.319-3.272-16.312-.652h0Zm-.256-.144c7.269-6.713,16.226-7.676,20.035,2.97.5.745.397,1.309.394,2.001-.292,2.938-1.282,5.7-2.337,8.387-.304.773-.701,1.601-1.066,2.352-.732,1.697-2.725,2.52-4.42,2.612-4.862.203-9.1-1.478-13.454-3.227-.386-.166-.616-.544-.613-.939.047-4.776.195-9.508,1.461-14.156h0Z" fill="#824c3a"/><path d="m479.096,114.28c.329,3.044.626,6.491,1.053,9.519.14,1.049.295,2.118.488,3.132l-.656-.784c4.366,1.459,9.205,2.895,13.778,2.826,1.086-.045,2.175-.286,2.724-.766.675-.701.885-1.761,1.233-2.659.757-2.564,1.177-5.618.513-8.191-.026-.058-.019-.046,0-.019-.016-.035-.212-.327-.222-.405-.411-1.662.119-3.534-.5-4.978-2.64-5.555-14.192.62-18.411,2.326h0Zm-.251-.153c6.114-5.4,22.035-12.117,21.298,1.85.032.272.026.072-.072-.038.499.692.672,1.888.746,2.645.277,3.601-.274,7.243-1.946,10.457-1.018,1.776-3.424,2.249-5.006,2.284-5.188.04-9.868-1.543-14.64-3.24-.346-.131-.578-.435-.633-.776-.179-1.116-.314-2.189-.418-3.288-.279-3.294-.262-6.698.672-9.894h0Z" fill="#824c3a"/><path d="m585.201,95.828c.087-9.444,1.736-18.61,2.944-27.919,0,0,3.93-27.746,3.93-27.746,2.232-14.439,5.37-37.748,7.89-51.925.125-.855.5-2.638.479-3.471.602-.959.377,3.393.396,3.559-.967,17.505-4.112,34.818-6.378,52.185-2.469,16.159-4.654,32.367-7.558,48.454,0,0-1.41,6.844-1.41,6.844-.004.092-.079.184-.179.16-.067-.014-.114-.073-.114-.14h0Z" fill="#824c3a"/><path d="m530.429-41.112c-.416,1.223-.682,3.587-.925,4.908-3.135,20.482-9.19,54.365-12.624,75.144-3.559,19.046-8.735,51.425-13.164,69.93-.773,3.092-1.477,6.232-2.667,9.199-.11.202-.148.39-.406.609-.056.048-.141.041-.189-.015-.069-.086-.01-.164.04-.238.141-.221.27-.715.359-1.095.52-2.187,1.192-6.433,1.597-8.72,5.626-32.857,13.259-77.133,19.143-110.109,2.125-11.67,4.038-23.398,7.008-34.894.33-1.02.947-3.883,1.606-4.912.086-.142.322-.012.247.137,0,0-.025.056-.025.056h0Z" fill="#824c3a"/><path d="m842.556,684.612c-2.01-9.545,2.512-90.927-41.194-100.974-6.444-1.481-18.661-2.88-34.84-4.124,6.9,11.934,11.388,26.337,13.376,33.433-2.623,10.904-5.411,38.132-12.659,48.103-11.786-14.161-42.989-46.014-42.989-46.014,0,0,11.433,25.725,16.264,45.012-12.68,13.596-24.571,22.811-25.558,23.058-2.009.502-2.009-22.606-5.526-13.062-3.516,9.545-16.578,34.16-18.085,33.658-1.507-.502-10.047-18.587-10.047-18.587,0,0-23.856,45.005-40.465,48.109-.225-1.281-.226-2.143-.226-2.143,0,0,6.782-45.212,0-54.255-6.782-9.042-8.289-18.085-19.592-30.895-11.303-12.81-17.331-64.051-17.331-64.051,0,0,8.278-3.172,19.795-7.58-89.919-.885-180.513,2.228-186.932,12.658-3.833,6.229-126.531,117.873-125.024,147.512,1.507,29.639,257.749,263.615,389.367,220.914,131.618-42.701,170.802-199.939,171.305-205.968s-27.63-55.26-29.639-64.804Z" fill="#1c1615"/><path d="m834.8,542.216c-2.621-35.061-5.667-50.74-8.67-68.045-1.621-9.344-8.591-15.801-14.703-23.052-10.733-12.734-20.227-27.55-24.375-28.65,2.01-.502,21.735,9.077,23.242,6.063s-19.984-45.335-19.984-45.335c0,0,14.568,3.516,12.057-8.038s-29.137-50.236-50.236-54.757-54.255,23.109-54.255,23.109c0,0-119.562-28.635-238.119,28.635,0,0-25.022,56.828-47.808,78.769-4.046,3.896,25.318,18.566,25.318,18.566,0,0-30.678,46.967-23.857,95.473,1.331,9.465,27.258-2.414,27.258-2.414,0,0-22.109,22.796,2.506,84.586,7.033,21.099,29.115,29.115,29.115,29.115,0,0,.027-29.305,2.539-31.314,2.512-2.01,53.752,47.724,63.8,47.222s13.061-24.113,13.061-24.113c0,0,69.828,63.297,86.406,65.307.885.107,1.801.057,2.738-.118-.225-1.281-.226-2.143-.226-2.143,0,0,6.782-45.212,0-54.255-6.782-9.042-8.289-18.085-19.592-30.895-11.303-12.81-17.331-64.051-17.331-64.051,0,0,80.629-30.895,88.918-33.91,8.289-3.014,42.387,1.802,61.979,16.873,10.063,7.741,17.318,24.092,21.666,36.501,13.288-9.063,41.694,18.966,41.694,18.966,0,0,20.878-24.342,16.859-78.094Z" fill="#1c1615"/><path d="m724.251,615.035s11.433,25.725,16.264,45.012c-9.113,9.772-17.818,17.28-22.362,20.823,6.644-5.179,22.197-18.846,34.906-35.678-13.285-14.309-28.808-30.157-28.808-30.157Z" fill="#1c1615"/><path d="m754.581,564.843c-19.592-15.071-53.69-19.887-61.979-16.873-8.289,3.014-88.918,33.91-88.918,33.91,0,0,6.028,51.241,17.331,64.051,11.303,12.81,12.81,21.853,19.592,30.895,6.782,9.042,0,54.255,0,54.255,0,0,0,.862.226,2.143,16.609-3.104,40.465-48.109,40.465-48.109,0,0,8.54,18.085,10.047,18.587,1.507.502,14.568-24.113,18.085-33.658,3.517-9.545,3.517,13.564,5.526,13.061.987-.247,12.878-9.462,25.558-23.058-4.831-19.287-16.264-45.012-16.264-45.012,0,0,31.203,31.853,42.989,46.014,7.248-9.972,10.035-37.199,12.659-48.103-2.967-10.591-11.497-37.472-25.318-48.103Z" fill="#ccc2c0"/><path d="m501.956,270.165s-33.658-25.62-61.79-23.611c-28.132,2.009-68.724,22.073-68.724,22.073,0,0-37.534,32.149-45.572,42.196-8.038,10.047-29.881,51.776-25.863,54.288s49.694-15.704,52.868-17.156c15.54-7.105,17.441-15.773,24.474-14.769,7.033,1.005,70.889,55.699,88.94,48.502,37.575-14.981,35.668-111.524,35.668-111.524Z" fill="#1c1615"/><path d="m670.247,248.564c.644-2.428,59.278-41.696,77.866-43.203,18.587-1.507,83.786,34.714,96.345,41.747,12.559,7.033,42.336,46.581,41.774,48.103-.626,1.697-66.214-10.12-70.889-8.861-16.074,4.327-52.662,69.217-70.244,61.179-17.583-8.038-81.382-74.349-74.852-98.965Z" fill="#1c1615"/><path d="m486.886,275.691c3.987-3.476,8.993-6.577,14.671-9.333,22.226-10.789,54.751-16.296,76.758-18.296,15.509-1.41,22.606,1.507,39.686-2.512,30.71-7.226,63.8-4.521,78.871.502,15.071,5.024,64.804,128.604,57.771,176.831-1.507,32.653-21.601,36.672-21.601,52.748s-16.076,76.861-26.625,78.368-103.989,24.113-120.064,23.611c-16.076-.502-54.468-56.994-66.814-61.288-23.109-8.038-33.156-26.123-44.71-69.326-11.554-43.203-7.535-154.225,12.057-171.305Z" fill="#1c1615"/><path d="m685.067,391.234s-3.391-28.258,13.564-30.518c16.955-2.261,21.476,7.912,21.476,13.564s-11.303,22.606-35.04,16.955Z" fill="none"/><path d="m561.737,405.3s.652-22.332-13.438-26.499c-8.917-2.637-26.499-1.381-27.002,11.68-.521,13.554,17.583,27.881,40.44,14.82Z" fill="#8c534c"/><path d="m686.825,388.722s-1.758-28.132,13.564-30.895c15.322-2.763,21.601,10.801,20.848,16.578s0,13.564-14.568,14.317-18.085.754-19.843,0Z" fill="#8c534c"/><path d="m554.692,395.394c-1.854,6.045-9.892,9.982-15.868,8.149s-9.474-9.307-7.62-15.352c1.854-6.045,10.049-8.893,16.025-7.061,5.975,1.832,9.317,8.219,7.463,14.264Z" fill="#1c1615"/><path d="m691.837,372.419c0,6.747,7.513,11.122,13.857,11.122s10.21-4.193,10.21-10.94-6.237-12.398-12.581-12.398-11.487,5.469-11.487,12.216Z" fill="#1c1615"/><path d="m581.078,576.605s-23.862-32.151-4.521-101.728c14.391-51.771,27.127-40.691,27.127-56.516s-18.085-117.552,2.261-135.637c20.346-18.085,24.867,54.255,24.867,67.819s4.521,49.734,13.564,61.037c9.042,11.303,75.856,72.591,69.074,122.325-6.782,49.734-30.751,60.639-55.618,66.291-12.352,2.807-9.722,5.059-26.147,3.411-16.642-1.67-43.906-13.853-50.606-27Z" fill="#fcfcfc"/><path d="m641.11,555.506c-1.474-.316-28.635-6.028-32.653-23.611-4.019-17.583-1.507-33.658,17.08-41.696,18.587-8.038,46.719-7.535,51.743-4.019,5.024,3.517,17.08,16.076,15.573,28.635-1.507,12.559-6.028,24.113-13.061,31.649-7.033,7.535-31.649,10.55-38.682,9.042Z" fill="#422e2c"/><path d="m654.713,529.346c1.604,1.546,1.975,3.57,2.474,5.498.956,3.909,1.269,8.002.704,12.004-.244,1.994-.652,4.056-2.073,5.689l-.28-.089c-.239-1.577-.074-2.905.108-4.396.215-2.347.234-4.745.056-7.097-.128-1.894-.336-3.79-.636-5.681-.287-1.907-.909-3.682-.627-5.823l.274-.105h0Z" fill="#1c1615"/><path d="m616.253,526.088c-.838-1.711,23.245-10.476,25.937,4.553.519,2.897-.877,5.776-3.426,7.249-4.992,2.885-14.314,4.943-22.511-11.802Z" fill="#1c1615"/><path d="m678.88,515.506c-12.04,1.236-13.977,8.239-13.634,12.929.197,2.7,2.199,4.899,4.863,5.379,2.975.536,7.046.02,9.926-5.261,2.01-3.684,2.861-6.529,3.156-8.62.357-2.529-1.77-4.688-4.311-4.427Z" fill="#1c1615"/><path d="m508.88,345.762c1.645-3.962,4.516-7.077,7.343-10.152,7.649-8.184,21.566-18.975,33.322-13.959,0,0-.071.285-.071.285-12.825-.862-22.993,6.561-31.697,15.182-2.923,2.876-5.454,6.062-8.655,8.811l-.241-.168h0Z" fill="#5e4d4c"/><path d="m672.761,323.211c2.579-3.013,6.255-4.613,9.951-5.787,7.508-2.557,16.517-.918,22.031,4.995,2.766,2.78,5.036,6.081,5.915,9.886l-.263.131c-2.488-2.936-4.472-5.998-7.135-8.469-5.304-5.145-12.955-6.455-19.953-4.462-3.603.949-6.835,2.643-10.369,3.94,0,0-.176-.235-.176-.235h0Z" fill="#5e4d4c"/><path d="m622.929,585.097s9.407,34.441,29.661,34.441,23.384-1.864,29.115-7.595c11.393-11.393,3.252-40.77-.545-40.77s-27.849,1.266-27.849,1.266l-30.381,12.659Z" fill="#ea8b6e"/><path d="m601.384,588.301c4.338-.084,8.454-1.419,12.523-2.799,14.455-4.836,27.88-13.209,43.294-15.206,4.517-.464,15.09.399,19.739.466,6.506.221,12.999.238,19.49-.034,2.158-.099,4.309-.237,6.452-.611.08-.016.158.036.173.116.014.069-.026.137-.087.164-2.04.867-4.22,1.364-6.391,1.724-11.927,1.686-24.032.539-36.004.4-7.515.084-14.661,2.698-21.651,5.343-8.155,3.087-16.073,6.824-24.452,9.399-4.217,1.19-8.74,2.167-13.118,1.33-.166-.029-.144-.299.031-.292h0Z" fill="#1c1615"/><path d="m464.071,222.983c-2.013,5.501-2.964,11.336-2.745,17.189.408,10.931,2.15,28.056,9.182,32.159,31.548,18.403,16.456-8.017,16.456-8.017,0,0-11.498-40.508-15.612-56.964-.536-2.144-4.477,7.969-7.281,15.634Z" fill="#1c1615"/><path d="m357.939,305.76s-8.017,1.266-29.959-33.335c-21.942-34.601-16.456-89.877-16.456-89.877,0,0,40.93,71.733,62.45,79.328,24.516,8.653,27.005,19.41,23.63,30.381s-39.664,13.503-39.664,13.503Z" fill="#1c1615"/><path d="m323.057,347.393s-23.067-11.815-28.131-27.005c0,0,35.163,4.782,47.822-.281,12.659-5.064-13.503,22.786-13.503,22.786l-6.189,4.501Z" fill="#1c1615"/><path d="m329.246,336.985c-3.376-1.125-16.034,5.064-37.132-1.969,1.969,7.595,9.564,29.256,10.971,23.067,0,0,34.326-18.376,26.161-21.098Z" fill="#1c1615"/><path d="m368.488,326.858s-40.37,9.874-53.308-21.661c-9.002-21.942-11.252-46.697-11.252-46.697,0,0,39.242,32.913,54.433,32.913s20.113,31.506,20.113,31.506l-9.986,3.938Z" fill="#1c1615"/><path d="m486.224,272.957s14.637-34.533,16.134-40.74c1.497-6.207,7.405,34.714,3.39,40.658-4.015,5.944-19.524.082-19.524.082Z" fill="#1c1615"/><path d="m342.749,329.952s-33.757.563-43.321-23.067c-9.564-23.63-5.626-24.755-5.626-24.755,0,0,42.759,34.882,52.323,36.57,9.564,1.688-3.376,11.252-3.376,11.252Z" fill="#1c1615"/><path d="m310.117,327.702s16.878-9.002,30.944-.563c14.065,8.439-2.791,14.843-7.314,15.191-21.942,1.688-23.63-14.628-23.63-14.628Z" fill="#1c1615"/><path d="m549.931,278.332c2.254,3.897-15.338-23.684-26.583-40.508-5.18-7.75-5.064,46.837,12.659,44.306,18.848-2.693,13.925-3.798,13.925-3.798Z" fill="#1c1615"/><polygon points="595.924 258.5 568.779 228.447 564.232 264.826 595.924 258.5" fill="#1c1615"/><path d="m677.362,247.107s2.954,5.485-.422-7.173c-2.768-10.379-27.824-49.382-27.824-49.382,0,0,62.425,43.896,51.032,57.821-11.393,13.925-21.52,12.659-22.786-1.266Z" fill="#1c1615"/><path d="m726.731,229.385s24.052-25.318,11.393-46.837c-12.659-21.52-64.56-46.837-64.56-46.837,0,0,65.826,64.56,46.837,92.409-18.988,27.849,6.329,1.266,6.329,1.266Z" fill="#1c1615"/><path d="m747.829,215.461s5.064,1.688,16.878-12.659c11.815-14.347,7.595-42.196,7.595-42.196,0,0,19.41,46.416,7.595,59.074s-13.503.844-21.098.844" fill="#1c1615"/><path d="m727.997,215.461c5.907-1.688,16.654-27.376,18.988-36.71,3.798-15.191-2.532-35.867-2.532-35.867,0,0,17.722,15.612,20.254,35.867,2.532,20.254,1.688,42.196-12.659,50.635-14.347,8.439-24.052-13.925-24.052-13.925Z" fill="#1c1615"/><path d="m738.124,228.119s12.659-15.191,27.849-12.659c15.191,2.532,25.74-4.22,25.74-4.22l20.254-23.63s10.971,64.56-39.664,50.635c-50.635-13.925-34.179-10.127-34.179-10.127Z" fill="#1c1615"/><path d="m439.937,263.311c-1.516-6.063-3.032-84.884-3.032-84.884l28.8,80.337-25.768,4.547Z" fill="#1c1615"/><polygon points="389.916 270.889 379.305 167.816 418.716 269.374 389.916 270.889" fill="#1c1615"/><polygon points="439.937 263.311 411.137 160.237 403.558 266.342 439.937 263.311" fill="#1c1615"/><polygon points="358.084 267.858 348.989 158.721 389.916 270.889 358.084 267.858" fill="#1c1615"/><polyline points="743.095 217.079 665.789 158.721 700.653 261.037 717.326 239.816 741.579 214.047" fill="#1c1615"/><polygon points="547.558 260.279 544.526 223.9 564.232 261.795 547.558 260.279" fill="#1c1615"/><path d="m595.924,258.5s-5.924-37.386-5.924-42.179l24.253,42.442-18.329-.263Z" fill="#1c1615"/><polygon points="645.326 278.468 613.495 222.384 605.158 263.311 645.326 278.468" fill="#1c1615"/><polygon points="668.682 258.614 632.442 210.258 633.958 260.279 668.682 258.614" fill="#1c1615"/><path d="m662.758,252.7c0-7.579-9.095-36.379-9.095-36.379l36.379,31.832-27.284,4.547Z" fill="#1c1615"/><path d="m741.748,306.785c3.146,1.92,5.489,4.584,8.045,7.053,4.498,4.365,10.742,10.593,15.296,14.752,2.659,2.197,5.088,4.844,8.058,6.561,0,0,0,.293,0,.293-1.009.153-1.95-.225-2.789-.582-2.509-1.123-4.591-2.94-6.679-4.656-2.762-2.294-5.371-4.738-7.953-7.205-2.544-2.505-5.053-5.04-7.482-7.65-2.413-2.623-4.997-5.09-6.711-8.365l.215-.2h0Z" fill="#5e4d4c"/><path d="m459.758,372.144s-.764,3.727-4.876,5.214c-26.053,9.418-37.868,44.862-46.308,54.989-10.805,12.966,47.259-20.254,57.386-30.381,10.127-10.127-8.044-27.757-8.044-27.757" fill="#1c1615"/><path d="m532.483,540.579c3.84,1.428,7.02,3.829,10.331,6.035,8.219,5.631,16.387,11.403,23.761,18.136,1.238,1.277,2.555,2.616,3.244,4.303.086.261.181.545.09.877l-.29-.045c-.35-.769-1.296-1.365-1.96-1.939,0,0-2.309-1.808-2.309-1.808-7.183-5.804-16.3-12.2-23.783-17.755-3.184-2.372-6.527-4.509-9.249-7.56l.165-.243h0Z" fill="#5e4d4c"/><path d="m715.673,528.523c.464-4.129,1.999-7.865,3.29-11.69,1.306-3.82,2.685-7.614,4.053-11.411,1.414-3.781,2.822-7.563,4.294-11.322,1.465-3.762,2.79-7.575,5.037-11.05l.276.101c-.531,4.104-1.986,7.87-3.3,11.687-1.307,3.82-2.678,7.616-4.043,11.414-1.411,3.782-2.812,7.567-4.284,11.326-1.488,3.753-2.732,7.596-5.047,11.046l-.276-.101h0Z" fill="#5e4d4c"/><path d="m454.747,377.299c.927-4.594,2.867-8.744,4.549-13.007l5.126-12.746c3.419-8.438,6.827-16.948,9.831-25.532,0,0,.294,0,.294,0,.302,2.374-.326,4.685-.882,6.952-1.956,6.628-4.486,13.063-7.006,19.482-1.74,4.25-3.506,8.488-5.368,12.684-1.878,4.188-3.538,8.473-6.275,12.285l-.269-.118h0Z" fill="#5e4d4c"/><polygon points="511.179 910.553 -23.664 1189.95 -483.368 110.543 -120.905 -153.532 511.179 910.553" fill="#fff" opacity=".15"/></g><path d="m661.762,599.397c1.393,1.313,1.686,2.933,2.227,4.485.52,1.557,1.004,3.125,1.446,4.703.442,1.579.828,3.173,1.197,4.773.365,1.601.874,3.161.435,4.986-.027.125-.195.173-.283.079-1.323-1.332-1.698-2.93-2.217-4.487-.516-1.558-1.013-3.122-1.456-4.701-.442-1.579-.842-3.17-1.207-4.77-.343-1.607-.935-3.144-.426-4.989.031-.122.193-.168.283-.079h0Z" fill="#ba3535"/></svg>