<svg xmlns="http://www.w3.org/2000/svg" width="570" height="381" viewBox="0 0 570 381"><defs><style>.a{fill:#f2edf7;}.b{fill:#fff;}.b,.c{stroke:#000;stroke-miterlimit:10;stroke-width:2px;}.c{fill:none;}</style></defs><path class="a" d="M5.057,240.105C-1.225,200.774,13.89,135.275,51.4,100.136c44.305-41.5,136.92-93.043,245.476-94.1,110.781-1.083,176.36,47.039,203.767,70.56,28.009,24.037,60.144,85.108,64.1,126.939,4.913,51.981-2.817,108.594-55.489,142.972-19.667,12.836-101.388,15.959-175.374,17.954-33.341.9-203.249,34.245-282.927-22.609C19.418,319.344,11.754,282.039,5.057,240.105Z"/><rect class="b" x="123.568" y="154.974" width="306.159" height="75.638"/><path class="c" d="M274.714,258.442c-24.87,0-45.03-31.361-45.03-70.046s20.16-70.046,45.03-70.046"/><line class="c" x1="324.713" y1="192.793" x2="266.737" y2="192.793"/><polygon points="321.796 182.821 339.066 192.793 321.796 202.766 321.796 182.821"/><path class="c" d="M238.785,230.613c8.221,16.9,21.253,27.829,35.929,27.829s27.708-10.926,35.928-27.829"/><path class="c" d="M314.3,154.974c-7.629-21.816-22.494-36.624-39.582-36.624s-31.954,14.808-39.583,36.624"/><polygon points="239.657 185.859 229.684 203.129 219.711 185.859 239.657 185.859"/></svg>