<?xml version="1.0" encoding="UTF-8"?><svg id="f" xmlns="http://www.w3.org/2000/svg" width="1140" height="581.53" viewBox="0 0 1140 581.53"><path d="m1134.85,80.63c9.39-32.41-39.41-70.44-119.58-73.49-109.22-3.04-217.28,2.03-326.86-.27-43.04-.31-87.73-.73-132.43-1.1-134.11-1.12-268.37-1.87-358.76,1.68C30.68,14.54,16.83,93.33,15.41,140.5c-1.42,69.99,14.25,141.27,5.28,211.29-.68,11.91-1.63,23.82-2.78,35.73-1.15,11.91-2.49,23.83-3.91,35.75-2.85,40.57-31.32,85.71,25.62,121.21,62.63,38.54,222.05,36.52,341.62,37.02,17.79.08,41.16-.11,68.24-.48,27.08-.37,57.83-.91,90.06-1.49,144.57-2.85,288.65-3.86,432.73-2.34,45.32,0,92.95-6.09,122-23.84,16.27-9.89,23.24-20.79,26.29-32.01,3.05-11.22,2.18-22.76,2.76-33.92,0-15.15-.13-30.3-.34-45.43-.21-15.14-.5-30.27-.78-45.4-1.2-90.74,11.58-181.01,13.42-271.79-.03-14.72-.29-29.45-.78-44.18Z" fill="#f4f4e9" stroke-width="0"/><line x1="893.23" y1="189.16" x2="893.23" y2="223.53" fill="none" stroke="#000" stroke-linecap="round" stroke-linejoin="round" stroke-width="4"/><line x1="1030.35" y1="189.16" x2="1030.35" y2="223.53" fill="none" stroke="#000" stroke-linecap="round" stroke-linejoin="round" stroke-width="4"/><rect x="919.79" y="176.6" width="109.38" height="47.86" transform="translate(1948.97 401.06) rotate(-180)" fill="#4f4f56" stroke-width="0"/><polygon points="898.45 211.95 920.53 224.46 920.53 176.6 898.45 180.28 898.45 211.95" fill="#4f4f56" stroke-width="0"/><path d="m1002.13,177.2c.99,3.83.83,7.65.94,11.48.09,3.83.1,7.65.12,11.48-.03,3.83-.05,7.65-.13,11.48-.08,3.83-.01,7.65-.93,11.48-.03.15-.26.15-.29,0-1.49-7.6-.79-15.28-1.06-22.95.02-3.83.03-7.65.12-11.48.1-3.83-.05-7.65.94-11.48.03-.14.26-.15.29,0h0Z" fill="#292d2d" stroke-width="0"/><path d="m976.95,177.51c.99,3.83.83,7.65.94,11.48.09,3.83.1,7.65.12,11.48-.03,3.83-.05,7.65-.13,11.48-.08,3.83-.01,7.65-.93,11.48-.03.15-.26.15-.29,0-1.49-7.59-.79-15.29-1.06-22.95.02-3.83.04-7.65.12-11.48.1-3.83-.05-7.65.94-11.48.03-.14.26-.15.29,0h0Z" fill="#292d2d" stroke-width="0"/><path d="m951.77,176.75c.99,3.83.83,7.65.94,11.48.09,3.83.1,7.65.12,11.48-.03,3.83-.05,7.65-.13,11.48-.08,3.83-.01,7.65-.93,11.48-.03.15-.26.15-.29,0-1.49-7.6-.79-15.28-1.06-22.95.02-3.83.03-7.65.12-11.48.1-3.83-.05-7.65.94-11.48.03-.14.26-.15.29,0h0Z" fill="#292d2d" stroke-width="0"/><path d="m920.68,178.08c.99,3.87.83,7.73.94,11.6.09,3.87.1,7.73.12,11.6-.03,3.87-.05,7.73-.13,11.6-.08,3.87-.01,7.73-.93,11.6-.03.15-.27.15-.29,0-1.49-7.69-.79-15.44-1.06-23.19.02-3.87.03-7.73.12-11.6.1-3.87-.05-7.73.94-11.6.03-.14.26-.15.29,0h0Z" fill="#292d2d" stroke-width="0"/><rect x="884.01" y="198.47" width="19.24" height="26.38" fill="#717178" stroke-width="0"/><polygon points="890.99 200.57 884.01 200.57 881.08 183.74 890.99 200.57" fill="#c0c0cc" stroke-width="0"/><polygon points="896.95 200.57 903.93 200.57 906.86 183.74 896.95 200.57" fill="#c0c0cc" stroke-width="0"/><rect x="878.85" y="203.53" width="29.55" height="15.17" fill="#a2a1a6" stroke-width="0"/><rect x="881.08" y="221.65" width="25.09" height="6.4" fill="#a2a1a6" stroke-width="0"/><rect x="881.08" y="196.38" width="25.09" height="4.19" fill="#a2a1a6" stroke-width="0"/><rect x="1037.51" y="196.38" width="14.41" height="28.47" fill="#a2a1a6" stroke-width="0"/><line x1="1064.96" y1="190.19" x2="1064.96" y2="228.05" fill="none" stroke="#000" stroke-linecap="round" stroke-linejoin="round" stroke-width="4"/><line x1="866.04" y1="192.41" x2="1064.96" y2="192.41" fill="none" stroke="#000" stroke-linecap="round" stroke-linejoin="round" stroke-width="2"/><line x1="866.04" y1="204.64" x2="1064.96" y2="204.64" fill="none" stroke="#000" stroke-linecap="round" stroke-linejoin="round" stroke-width="2"/><line x1="866.04" y1="214.43" x2="1064.96" y2="214.43" fill="none" stroke="#000" stroke-linecap="round" stroke-linejoin="round" stroke-width="2"/><line x1="866.04" y1="225.76" x2="1064.96" y2="225.76" fill="none" stroke="#000" stroke-linecap="round" stroke-linejoin="round" stroke-width="2"/><line x1="965.39" y1="190.19" x2="965.39" y2="228.05" fill="none" stroke="#000" stroke-linecap="round" stroke-linejoin="round" stroke-width="4"/><line x1="865.81" y1="190.19" x2="865.81" y2="228.05" fill="none" stroke="#000" stroke-linecap="round" stroke-linejoin="round" stroke-width="4"/><path d="m373.49,320.21c-1.74,4.89-11.09,29.65-36.93,40.51-12.06,5.07-23.13,5.19-29.8,4.67" fill="none" stroke="#333" stroke-linecap="round" stroke-linejoin="round" stroke-width="1.5"/><path d="m419.23,436.06c-1.74,4.89-11.09,29.65-36.93,40.51-12.06,5.07-23.13,5.19-29.8,4.67" fill="none" stroke="#333" stroke-linecap="round" stroke-linejoin="round" stroke-width="1.5"/><path d="m668.7,444.4c-1.74,4.89-11.09,29.65-36.93,40.51-12.06,5.07-23.13,5.19-29.8,4.67" fill="none" stroke="#333" stroke-linecap="round" stroke-linejoin="round" stroke-width="1.5"/><path d="m473.51,384.82c1.43-1.67,3.1-3.81,4.53-4.05s3.1.95,5.01,2.15,3.81,1.67,6.44,2.62,4.53,5.24,4.53,6.44,3.34-.95,5.72,2.62c1.32,1.98,2.38,5.24,1.43,6.91s-1.67,1.43-1.67,4.53-6.91-.72-11.68.48c-4.77,1.19-4.29,3.34-10.49,2.86s-4.62-.95-7.87-.95c-2.62,0-4.05,0-6.2-1.43-2.15-1.43-5.25-.9-4.05-6.91.72-3.58,3.34-5.72,4.29-6.91s1.67-1.19,1.67-3.1,1.19-3.34,3.34-4.77,5.01-.48,5.01-.48Z" fill="#70ba95" stroke-width="0"/><rect x="197.2" y="107.36" width="38.07" height="53.64" rx="5.15" ry="5.15" fill="#c1b79a" stroke-width="0"/><path d="m196.92,144.06c-2.04,5.88-5.19,15.23-7.59,22.4-1.67,4.97,2.03,10.11,7.27,10.11h38.56c5.19,0,8.88-5.04,7.31-9.99l-6.51-20.53c-.95-2.99-3.62-5.1-6.75-5.33l-24.49-1.79c-3.47-.25-6.67,1.85-7.81,5.14Z" fill="#c1b79a" stroke-width="0"/><path d="m194.41,176.18c2.51-.99,5.02-.83,7.53-.94,2.51-.09,5.02-.1,7.53-.12,5.03.26,10.15-.42,15.07,1.06.13.04.14.25,0,.29-4.92,1.48-10.04.8-15.07,1.06-2.51-.02-5.02-.04-7.53-.12-2.51-.1-5.02.05-7.53-.94-.13-.05-.13-.25,0-.29h0Z" fill="#665f5f" stroke-width="0"/><path d="m297.59,159.63h-9.75c-1.57,0-2.86-1.53-2.86-3.4l2.47-97.75c0-1.87,1.29-3.4,2.86-3.4h4.8c1.57,0,2.86,1.53,2.86,3.4l2.47,97.75c0,1.87-1.29,3.4-2.86,3.4Z" fill="#c1b79a" stroke-width="0"/><path d="m327.78,159.63h-9.75c-1.57,0-2.86-1.53-2.86-3.4l2.47-97.75c0-1.87,1.29-3.4,2.86-3.4h4.8c1.57,0,2.86,1.53,2.86,3.4l2.47,97.75c0,1.87-1.29,3.4-2.86,3.4Z" fill="#c1b79a" stroke-width="0"/><path d="m287.41,62.15c.84-.99,1.67-.83,2.51-.94.84-.08,1.67-.12,2.51-.12.84,0,1.67.06,2.51.13.84.08,1.67.01,2.51.93.08.08.07.21,0,.29-.84.91-1.67.85-2.51.93-.84.08-1.67.13-2.51.13-.84,0-1.67-.04-2.51-.12-.84-.1-1.67.05-2.51-.94-.07-.09-.07-.21,0-.29,0,0-.07.08,0,0Z" fill="#7f7357" stroke-width="0"/><path d="m197.76,113.49c3.04-.99,6.08-.83,9.11-.94,3.04-.09,6.08-.1,9.11-.12,3.04.03,6.08.05,9.11.13,3.04.08,6.08.01,9.11.93.14.04.15.26,0,.29-6,1.49-12.14.79-18.23,1.06-3.04-.02-6.08-.04-9.11-.12-3.04-.1-6.08.05-9.11-.94-.13-.04-.14-.25,0-.29h0Z" fill="#7f7357" stroke-width="0"/><path d="m189.2,171.52c2.98-.99,5.95-.83,8.93-.94,2.98-.09,5.95-.1,8.93-.12,2.98.03,5.95.05,8.93.13,2.98.08,5.95.01,8.93.93.14.04.14.26,0,.29-5.89,1.49-11.88.79-17.86,1.06-2.98-.02-5.95-.04-8.93-.12-2.98-.11-5.95.05-8.93-.94-.13-.04-.14-.25,0-.29h0Z" fill="#7f7357" stroke-width="0"/><path d="m317.92,62.15c.84-.99,1.67-.83,2.51-.94.84-.08,1.67-.12,2.51-.12.84,0,1.67.06,2.51.13.84.08,1.67.01,2.51.93.08.08.07.21,0,.29-.84.91-1.67.85-2.51.93-.84.08-1.67.13-2.51.13-.84,0-1.67-.04-2.51-.12-.84-.1-1.67.05-2.51-.94-.07-.09-.07-.21,0-.29,0,0-.07.08,0,0Z" fill="#7f7357" stroke-width="0"/><rect x="221.67" y="133.86" width="131.8" height="47.86" fill="#d17446" stroke-width="0"/><polygon points="377.76 169.2 352.73 181.72 352.73 133.86 377.76 137.54 377.76 169.2" fill="#d17446" stroke-width="0"/><rect x="265.84" y="161.84" width="12.52" height="13.74" fill="#802523" stroke-width="0"/><rect x="294.56" y="161.84" width="12.52" height="13.74" fill="#802523" stroke-width="0"/><rect x="324.01" y="161.84" width="12.52" height="13.74" fill="#802523" stroke-width="0"/><rect x="239.12" y="167.47" width="13.73" height="14.22" fill="#ffe4ae" stroke-width="0"/><path d="m238.97,181.69c-1-2.37-.83-4.75-.94-7.12-.09-2.37-.1-4.75-.12-7.12,0-.67.54-1.21,1.2-1.2,4.62.26,9.21-.41,13.73,1.06.13.05.13.25,0,.29-4.51,1.47-9.11.8-13.73,1.06,0,0,1.2-1.2,1.2-1.2-.01,2.37-.03,4.75-.12,7.12-.11,2.37.06,4.75-.94,7.12-.05.13-.25.13-.29,0h0Z" fill="#802523" stroke-width="0"/><path d="m246.46,167.47c.99,1.23.83,2.45.94,3.68.08,1.23.12,2.45.12,3.68,0,1.23-.06,2.45-.13,3.68-.08,1.23-.01,2.45-.93,3.68-.07.1-.22.1-.29,0-.91-1.23-.85-2.45-.93-3.68-.08-1.23-.13-2.45-.13-3.68,0-1.23.04-2.45.12-3.68.1-1.23-.05-2.45.94-3.68.07-.09.22-.09.29,0h0Z" fill="#802523" stroke-width="0"/><path d="m223.14,146.97c18.67-1.51,45.8-.76,64.79-1.06,19.05.42,46.35-.67,64.93,1.22-18.54,1.82-45.94.8-64.93,1.19,0,0-32.4-.12-32.4-.12-10.8-.11-21.6.05-32.4-.94-.17,0-.18-.29,0-.29h0Z" fill="#a83b3b" stroke-width="0"/><path d="m352.87,135.33c.99,3.87.83,7.73.94,11.6.09,3.87.1,7.73.12,11.6-.03,3.87-.05,7.73-.13,11.6-.08,3.87-.01,7.73-.93,11.6-.03.15-.27.15-.29,0-1.49-7.68-.79-15.44-1.06-23.19.02-3.87.03-7.73.12-11.6.1-3.87-.05-7.73.94-11.6.03-.14.26-.15.29,0h0Z" fill="#802523" stroke-width="0"/><path d="m557.24,347.77s25.12,7.92,29.18,9.54c1.5.6,36.98,17.02,36.98,17.02l-61.07-4.51-5.09-22.05Z" fill="#333" stroke-width="0"/><polygon points="604.13 406.03 510.91 406.03 510.91 370.05 557.07 348.86 604.13 370.05 604.13 406.03" fill="#9e7b69" stroke-width="0"/><polygon points="622.35 396.34 603.67 406.03 603.67 369.79 622.35 375.63 622.35 396.34" fill="#9e7b69" stroke-width="0"/><rect x="559.89" y="381.5" width="13.83" height="24.52" fill="#ffe4ae" stroke-width="0"/><path d="m623.99,375.83c-1.83.5-3.33-.1-4.91-.45-1.57-.37-3.13-.78-4.68-1.23-1.55-.45-3.08-.96-4.61-1.48-1.53-.53-3.1-.91-4.39-2.24-.09-.09-.04-.26.08-.28,1.8-.43,3.33.09,4.91.46,1.57.38,3.14.77,4.69,1.22,1.55.45,3.09.94,4.61,1.47,1.52.55,3.11.85,4.39,2.25.09.09.04.25-.08.28h0Z" fill="#333" stroke-width="0"/><path d="m559.59,405.22c-.95-3.36-.76-8.35-.9-11.84-.09-3.97-.13-7.93-.12-11.9,0-.64.53-1.15,1.16-1.14,3.5.1,7,.03,10.49.35,4.7.62,4.78,1.01,0,1.63-3.49.31-6.99.25-10.49.35,0,0,1.16-1.17,1.16-1.17.15,5.72.09,12.07-.06,17.82-.09,2.04-.21,4-.96,5.96-.06.14-.28.1-.29-.06h0Z" fill="#5b361a" stroke-width="0"/><rect x="576.96" y="381.83" width="21.35" height="15.72" fill="#394170" stroke-width="0"/><polygon points="613.7 392.89 607.5 395.88 607.5 382.31 613.7 383.39 613.7 392.89" fill="#394170" stroke-width="0"/><polygon points="619.9 390.45 616.14 392.21 616.14 383.8 619.9 384.75 619.9 390.45" fill="#394170" stroke-width="0"/><line x1="586.79" y1="383.08" x2="586.79" y2="396.44" fill="none" stroke="#d6b7b0" stroke-linecap="square" stroke-miterlimit="10" stroke-width="2"/><line x1="597.16" y1="389.84" x2="578.07" y2="389.84" fill="none" stroke="#d6b7b0" stroke-linecap="square" stroke-miterlimit="10" stroke-width="2"/><rect x="552.59" y="355.92" width="9.74" height="13.24" fill="#394170" stroke-width="0"/><line x1="557.07" y1="356.98" x2="557.07" y2="368.23" fill="none" stroke="#d6b7b0" stroke-linecap="square" stroke-miterlimit="10" stroke-width="2"/><line x1="561.1" y1="362.67" x2="553.7" y2="362.67" fill="none" stroke="#d6b7b0" stroke-linecap="square" stroke-miterlimit="10" stroke-width="2"/><line x1="601.51" y1="373.13" x2="512.64" y2="373.13" fill="none" stroke="#d6b7b0" stroke-linecap="round" stroke-miterlimit="10" stroke-width="2"/><line x1="507.18" y1="371.56" x2="557.1" y2="348.77" fill="none" stroke="#333" stroke-linecap="round" stroke-miterlimit="10" stroke-width="2"/><line x1="606.75" y1="370.28" x2="557.47" y2="348.77" fill="none" stroke="#333" stroke-linecap="round" stroke-miterlimit="10" stroke-width="2"/><path d="m602.02,406.5c-.99-2.79-.83-5.57-.94-8.36-.09-2.79-.1-5.57-.12-8.36.26-5.59-.43-11.23,1.06-16.72.04-.13.25-.14.29,0,1.49,5.5.79,11.12,1.06,16.72-.02,2.79-.04,5.57-.12,8.36-.1,2.79.05,5.57-.94,8.36-.04.13-.25.14-.29,0h0Z" fill="#664e49" stroke-width="0"/><polygon points="546.66 411.28 485.04 411.28 485.04 376.04 517.48 361.45 546.66 376.04 546.66 411.28" fill="#9e7b69" stroke-width="0"/><polygon points="551.67 406.77 546.42 411.28 546.42 376.04 551.67 378.94 551.67 406.77" fill="#9e7b69" stroke-width="0"/><line x1="551.99" y1="379.42" x2="547.38" y2="377.83" fill="none" stroke="#333" stroke-linecap="round" stroke-miterlimit="10" stroke-width="2"/><path d="m546.12,411.23c-.99-2.69-.83-5.38-.94-8.07-.09-2.69-.1-5.38-.12-8.07.26-5.4-.43-10.84,1.06-16.14.04-.13.25-.14.29,0,1.49,5.31.79,10.74,1.06,16.14-.02,2.69-.03,5.38-.12,8.07-.1,2.69.05,5.38-.94,8.07-.04.13-.25.14-.29,0h0Z" fill="#664e49" stroke-width="0"/><path d="m552.16,405.5c-.99-1.97-.83-3.95-.94-5.92-.08-1.97-.12-3.95-.12-5.92,0-1.97.06-3.95.13-5.92.08-1.97.01-3.95.93-5.92.05-.12.24-.12.29,0,.91,1.97.85,3.95.93,5.92.08,1.97.13,3.95.13,5.92,0,1.97-.04,3.95-.12,5.92-.1,1.97.05,3.95-.94,5.92-.06.12-.24.12-.29,0h0Z" fill="#664e49" stroke-width="0"/><polygon points="494.1 410.43 494.1 386.26 533.38 386.26 533.38 411.23 494.1 411.23 494.1 410.43" fill="#f2eadf" stroke-width="0"/><line x1="494.9" y1="391.51" x2="532.27" y2="391.51" fill="none" stroke="#d6b7b0" stroke-linecap="round" stroke-miterlimit="10" stroke-width="2"/><path d="m485.99,377.68c5.01-.99,10.02-.83,15.03-.94,5.01-.09,10.02-.1,15.03-.12,5.01.03,10.02.05,15.03.13,5.01.08,10.02.01,15.03.93v.29c-9.99,1.5-20.02.79-30.06,1.06-5.01-.02-10.02-.04-15.03-.12-5.01-.11-10.02.05-15.03-.94v-.29h0Z" fill="#d6b7b0" stroke-width="0"/><polyline points="548.02 378.02 516.37 361.93 485.04 376.83" fill="none" stroke="#333" stroke-linecap="round" stroke-miterlimit="10" stroke-width="2"/><line x1="553.8" y1="83.61" x2="544.37" y2="83.61" fill="none" stroke="#4d4e4e" stroke-linecap="round" stroke-linejoin="round" stroke-width="2"/><line x1="544.66" y1="74.24" x2="553.8" y2="83.61" fill="none" stroke="#4d4e4e" stroke-linecap="round" stroke-linejoin="round" stroke-width="2"/><line x1="553.8" y1="83.61" x2="544.38" y2="90.99" fill="none" stroke="#4d4e4e" stroke-linecap="round" stroke-linejoin="round" stroke-width="2"/><line x1="560.13" y1="100.95" x2="560.13" y2="106.92" fill="none" stroke="#4d4e4e" stroke-linecap="round" stroke-linejoin="round" stroke-width="2"/><line x1="537.39" y1="101.2" x2="537.4" y2="106.93" fill="none" stroke="#4d4e4e" stroke-linecap="round" stroke-linejoin="round" stroke-width="2"/><line x1="553.82" y1="98.8" x2="544.7" y2="98.8" fill="none" stroke="#4d4e4e" stroke-linecap="round" stroke-linejoin="round" stroke-width="2"/><line x1="544.38" y1="90.99" x2="553.82" y2="98.8" fill="none" stroke="#4d4e4e" stroke-linecap="round" stroke-linejoin="round" stroke-width="2"/><line x1="553.82" y1="98.8" x2="544.41" y2="106.93" fill="none" stroke="#4d4e4e" stroke-linecap="round" stroke-linejoin="round" stroke-width="2"/><line x1="553.85" y1="114.13" x2="544.42" y2="114.13" fill="none" stroke="#4d4e4e" stroke-linecap="round" stroke-linejoin="round" stroke-width="2"/><line x1="553.85" y1="114.13" x2="544.41" y2="106.93" fill="none" stroke="#4d4e4e" stroke-linecap="round" stroke-linejoin="round" stroke-width="2"/><line x1="544.74" y1="123.37" x2="553.85" y2="114.13" fill="none" stroke="#4d4e4e" stroke-linecap="round" stroke-linejoin="round" stroke-width="2"/><line x1="555.35" y1="131.51" x2="544.74" y2="123.37" fill="none" stroke="#4d4e4e" stroke-linecap="round" stroke-linejoin="round" stroke-width="2"/><line x1="555.35" y1="131.51" x2="541.18" y2="140.17" fill="none" stroke="#4d4e4e" stroke-linecap="round" stroke-linejoin="round" stroke-width="2"/><line x1="558.88" y1="150.9" x2="541.18" y2="140.17" fill="none" stroke="#4d4e4e" stroke-linecap="round" stroke-linejoin="round" stroke-width="2"/><polyline points="538.99 150.91 560.93 162.1 555.65 168.59" fill="none" stroke="#4d4e4e" stroke-linecap="round" stroke-linejoin="round" stroke-width="1.4"/><polyline points="558.88 150.9 536.56 162.11 541.8 168.55" fill="none" stroke="#4d4e4e" stroke-linecap="round" stroke-linejoin="round" stroke-width="1.4"/><path d="m534.68,74.5c.24.63.3,1.3.22,1.96-.09,1.23-1.62,1.79-2.29.66-.39-.82-.3-1.77,0-2.61.35-.92,1.74-.9,2.08,0h0Z" fill="#333" stroke-width="0"/><path d="m565.65,74.67c.24.63.3,1.3.22,1.96-.07.88-.98,1.61-1.82,1.13-1-.65-.79-2.11-.48-3.08.35-.92,1.74-.9,2.08,0h0Z" fill="#333" stroke-width="0"/><path d="m580.17,108.04c.3,2.11.4,4.26,0,6.37-.23,1.1-1.86,1.09-2.08,0-.4-2.1-.3-4.26,0-6.37.1-.57.64-.96,1.22-.86.45.08.79.43.86.86h0Z" fill="#333" stroke-width="0"/><path d="m530.08,124.29c.3,2.11.4,4.26,0,6.37-.23,1.1-1.86,1.09-2.08,0-.4-2.1-.3-4.26,0-6.37.1-.57.64-.96,1.22-.86.45.08.79.43.86.86h0Z" fill="#333" stroke-width="0"/><path d="m570.25,124.15c.3,2.11.4,4.26,0,6.37-.23,1.1-1.86,1.09-2.08,0-.4-2.1-.3-4.26,0-6.37.1-.57.64-.96,1.22-.86.45.08.79.43.86.86h0Z" fill="#333" stroke-width="0"/><path d="m529.89,91.66c.3,2.11.4,4.26,0,6.37-.23,1.1-1.86,1.09-2.08,0-.4-2.1-.3-4.26,0-6.37.1-.57.64-.96,1.22-.86.45.08.79.43.86.86h0Z" fill="#333" stroke-width="0"/><path d="m570.39,91.83c.3,2.11.4,4.26,0,6.37-.23,1.1-1.86,1.09-2.08,0-.4-2.1-.3-4.26,0-6.37.1-.57.64-.96,1.22-.86.45.08.79.43.86.86h0Z" fill="#333" stroke-width="0"/><path d="m520.3,107.7c.3,2.11.4,4.26,0,6.37-.23,1.1-1.86,1.09-2.08,0-.4-2.1-.3-4.26,0-6.37.1-.57.64-.96,1.22-.86.45.08.79.43.86.86h0Z" fill="#333" stroke-width="0"/><polygon points="553.86 123.36 544.74 123.37 544.66 74.24 553.79 74.23 553.86 123.36" fill="none" stroke="#666667" stroke-miterlimit="10" stroke-width="1.94"/><polygon points="553.86 123.36 563.44 175.86 548.86 162.23 533.62 175.87 544.74 123.37 553.86 123.36" fill="none" stroke="#666667" stroke-linecap="round" stroke-linejoin="round" stroke-width="2"/><polyline points="553.79 74.23 564.01 74.23 553.8 83.61 568.69 90.98 553.81 90.99 553.82 98.8 577.58 106.92 553.84 106.92" fill="none" stroke="#666667" stroke-linecap="round" stroke-linejoin="round" stroke-width="2"/><polyline points="553.85 114.13 568.59 123.22 553.86 123.23" fill="none" stroke="#666667" stroke-linecap="round" stroke-linejoin="round" stroke-width="2"/><polyline points="544.39 98.8 520.66 106.93 544.41 106.93" fill="none" stroke="#666667" stroke-linecap="round" stroke-linejoin="round" stroke-width="2"/><polyline points="544.36 74.24 534.14 74.24 544.37 83.61 529.51 90.99 544.38 90.99" fill="none" stroke="#666667" stroke-linecap="round" stroke-linejoin="round" stroke-width="2"/><polyline points="544.42 114.13 529.7 123.23 544.43 123.23" fill="none" stroke="#666667" stroke-linecap="round" stroke-linejoin="round" stroke-width="2"/><line x1="555.35" y1="131.51" x2="543.06" y2="131.51" fill="none" stroke="#666667" stroke-miterlimit="10" stroke-width="1.94"/><line x1="556.9" y1="140.04" x2="541.18" y2="140.17" fill="none" stroke="#666667" stroke-miterlimit="10" stroke-width="2"/><line x1="558.88" y1="150.9" x2="538.99" y2="150.91" fill="none" stroke="#666667" stroke-miterlimit="10" stroke-width="1.94"/><line x1="560.93" y1="162.1" x2="536.56" y2="162.11" fill="none" stroke="#666667" stroke-miterlimit="10" stroke-width="1.94"/><line x1="553.81" y1="90.99" x2="544.38" y2="90.99" fill="none" stroke="#666667" stroke-miterlimit="10" stroke-width="1.94"/><line x1="553.84" y1="106.92" x2="544.41" y2="106.93" fill="none" stroke="#666667" stroke-miterlimit="10" stroke-width="1.94"/><line x1="702.11" y1="95.79" x2="692.68" y2="95.8" fill="none" stroke="#4d4e4e" stroke-linecap="round" stroke-linejoin="round" stroke-width="2"/><line x1="692.97" y1="86.42" x2="702.11" y2="95.79" fill="none" stroke="#4d4e4e" stroke-linecap="round" stroke-linejoin="round" stroke-width="2"/><line x1="702.11" y1="95.79" x2="692.69" y2="103.18" fill="none" stroke="#4d4e4e" stroke-linecap="round" stroke-linejoin="round" stroke-width="2"/><line x1="708.43" y1="113.14" x2="708.44" y2="119.11" fill="none" stroke="#4d4e4e" stroke-linecap="round" stroke-linejoin="round" stroke-width="2"/><line x1="685.7" y1="113.39" x2="685.71" y2="119.11" fill="none" stroke="#4d4e4e" stroke-linecap="round" stroke-linejoin="round" stroke-width="2"/><line x1="702.13" y1="110.99" x2="693.01" y2="110.99" fill="none" stroke="#4d4e4e" stroke-linecap="round" stroke-linejoin="round" stroke-width="2"/><line x1="692.69" y1="103.18" x2="702.13" y2="110.99" fill="none" stroke="#4d4e4e" stroke-linecap="round" stroke-linejoin="round" stroke-width="2"/><line x1="702.13" y1="110.99" x2="692.71" y2="119.11" fill="none" stroke="#4d4e4e" stroke-linecap="round" stroke-linejoin="round" stroke-width="2"/><line x1="702.16" y1="126.32" x2="692.73" y2="126.32" fill="none" stroke="#4d4e4e" stroke-linecap="round" stroke-linejoin="round" stroke-width="2"/><line x1="702.16" y1="126.32" x2="692.71" y2="119.11" fill="none" stroke="#4d4e4e" stroke-linecap="round" stroke-linejoin="round" stroke-width="2"/><line x1="693.05" y1="135.55" x2="702.16" y2="126.32" fill="none" stroke="#4d4e4e" stroke-linecap="round" stroke-linejoin="round" stroke-width="2"/><line x1="703.66" y1="143.7" x2="693.05" y2="135.55" fill="none" stroke="#4d4e4e" stroke-linecap="round" stroke-linejoin="round" stroke-width="2"/><line x1="703.66" y1="143.7" x2="689.49" y2="152.36" fill="none" stroke="#4d4e4e" stroke-linecap="round" stroke-linejoin="round" stroke-width="2"/><line x1="707.19" y1="163.09" x2="689.49" y2="152.36" fill="none" stroke="#4d4e4e" stroke-linecap="round" stroke-linejoin="round" stroke-width="2"/><polyline points="687.3 163.09 709.24 174.29 703.96 180.77" fill="none" stroke="#4d4e4e" stroke-linecap="round" stroke-linejoin="round" stroke-width="1.4"/><polyline points="707.19 163.09 684.87 174.3 690.11 180.73" fill="none" stroke="#4d4e4e" stroke-linecap="round" stroke-linejoin="round" stroke-width="1.4"/><path d="m682.99,86.69c.54,1.22.3,3.88-1.61,3.09-1-.65-.79-2.11-.48-3.08.35-.92,1.74-.9,2.08,0h0Z" fill="#333" stroke-width="0"/><path d="m713.96,86.86c.24.63.3,1.3.22,1.96-.09,1.23-1.63,1.79-2.29.66-.39-.82-.3-1.77,0-2.61.35-.92,1.74-.9,2.08,0h0Z" fill="#333" stroke-width="0"/><path d="m728.48,120.23c.25,1.58.3,3.18.22,4.77-.05.53-.09,1.06-.21,1.59-.23,1.1-1.86,1.09-2.08,0-.4-2.1-.3-4.26,0-6.37.1-.57.64-.96,1.22-.86.45.08.79.43.86.86h0Z" fill="#333" stroke-width="0"/><path d="m678.39,136.48c.3,2.11.4,4.26,0,6.37-.23,1.1-1.86,1.09-2.08,0-.4-2.1-.3-4.26,0-6.37.1-.57.64-.96,1.22-.86.45.08.79.43.86.86h0Z" fill="#333" stroke-width="0"/><path d="m718.56,136.34c.3,2.11.4,4.26,0,6.37-.23,1.1-1.86,1.09-2.08,0-.4-2.1-.3-4.26,0-6.37.1-.57.64-.96,1.22-.86.45.08.79.43.86.86h0Z" fill="#333" stroke-width="0"/><path d="m678.19,103.85c.3,2.11.4,4.26,0,6.37-.23,1.1-1.86,1.09-2.08,0-.4-2.1-.3-4.26,0-6.37.1-.57.64-.96,1.22-.86.45.08.79.43.86.86h0Z" fill="#333" stroke-width="0"/><path d="m718.7,104.02c.3,2.11.4,4.26,0,6.37-.23,1.1-1.86,1.09-2.08,0-.4-2.1-.3-4.26,0-6.37.1-.57.64-.96,1.22-.86.45.08.79.43.86.86h0Z" fill="#333" stroke-width="0"/><path d="m668.61,119.89c.3,2.11.4,4.26,0,6.37-.23,1.1-1.86,1.09-2.08,0-.4-2.1-.3-4.26,0-6.37.1-.57.64-.96,1.22-.86.45.08.79.43.86.86h0Z" fill="#333" stroke-width="0"/><polygon points="702.17 135.55 693.05 135.55 692.97 86.42 702.1 86.42 702.17 135.55" fill="none" stroke="#666667" stroke-miterlimit="10" stroke-width="1.94"/><polygon points="702.17 135.55 711.74 188.05 697.17 174.41 681.93 188.06 693.05 135.55 702.17 135.55" fill="none" stroke="#666667" stroke-linecap="round" stroke-linejoin="round" stroke-width="2"/><polyline points="702.1 86.42 712.32 86.42 702.11 95.79 717 103.17 702.12 103.17 702.13 110.99 725.89 119.11 702.15 119.11" fill="none" stroke="#666667" stroke-linecap="round" stroke-linejoin="round" stroke-width="2"/><polyline points="702.16 126.32 716.9 135.41 702.17 135.41" fill="none" stroke="#666667" stroke-linecap="round" stroke-linejoin="round" stroke-width="2"/><polyline points="692.7 110.99 668.97 119.12 692.71 119.11" fill="none" stroke="#666667" stroke-linecap="round" stroke-linejoin="round" stroke-width="2"/><polyline points="692.66 86.42 682.44 86.43 692.68 95.8 677.82 103.18 692.69 103.18" fill="none" stroke="#666667" stroke-linecap="round" stroke-linejoin="round" stroke-width="2"/><polyline points="692.73 126.32 678.01 135.42 692.74 135.42" fill="none" stroke="#666667" stroke-linecap="round" stroke-linejoin="round" stroke-width="2"/><line x1="703.66" y1="143.7" x2="691.37" y2="143.7" fill="none" stroke="#666667" stroke-miterlimit="10" stroke-width="1.94"/><line x1="705.21" y1="152.22" x2="689.49" y2="152.36" fill="none" stroke="#666667" stroke-miterlimit="10" stroke-width="2"/><line x1="707.19" y1="163.09" x2="687.3" y2="163.09" fill="none" stroke="#666667" stroke-miterlimit="10" stroke-width="1.94"/><line x1="709.24" y1="174.29" x2="684.87" y2="174.3" fill="none" stroke="#666667" stroke-miterlimit="10" stroke-width="1.94"/><line x1="702.12" y1="103.17" x2="692.69" y2="103.18" fill="none" stroke="#666667" stroke-miterlimit="10" stroke-width="1.94"/><line x1="702.15" y1="119.11" x2="692.71" y2="119.11" fill="none" stroke="#666667" stroke-miterlimit="10" stroke-width="1.94"/><line x1="824.51" y1="126.21" x2="815.08" y2="126.21" fill="none" stroke="#4d4e4e" stroke-linecap="round" stroke-linejoin="round" stroke-width="2"/><line x1="815.37" y1="116.84" x2="824.51" y2="126.21" fill="none" stroke="#4d4e4e" stroke-linecap="round" stroke-linejoin="round" stroke-width="2"/><line x1="824.51" y1="126.21" x2="815.09" y2="133.59" fill="none" stroke="#4d4e4e" stroke-linecap="round" stroke-linejoin="round" stroke-width="2"/><line x1="830.84" y1="143.56" x2="830.85" y2="149.52" fill="none" stroke="#4d4e4e" stroke-linecap="round" stroke-linejoin="round" stroke-width="2"/><line x1="808.1" y1="143.8" x2="808.11" y2="149.53" fill="none" stroke="#4d4e4e" stroke-linecap="round" stroke-linejoin="round" stroke-width="2"/><line x1="824.53" y1="141.4" x2="815.41" y2="141.4" fill="none" stroke="#4d4e4e" stroke-linecap="round" stroke-linejoin="round" stroke-width="2"/><line x1="815.09" y1="133.59" x2="824.53" y2="141.4" fill="none" stroke="#4d4e4e" stroke-linecap="round" stroke-linejoin="round" stroke-width="2"/><line x1="824.53" y1="141.4" x2="815.12" y2="149.53" fill="none" stroke="#4d4e4e" stroke-linecap="round" stroke-linejoin="round" stroke-width="2"/><line x1="824.56" y1="156.73" x2="815.13" y2="156.73" fill="none" stroke="#4d4e4e" stroke-linecap="round" stroke-linejoin="round" stroke-width="2"/><line x1="824.56" y1="156.73" x2="815.12" y2="149.53" fill="none" stroke="#4d4e4e" stroke-linecap="round" stroke-linejoin="round" stroke-width="2"/><line x1="815.45" y1="165.97" x2="824.56" y2="156.73" fill="none" stroke="#4d4e4e" stroke-linecap="round" stroke-linejoin="round" stroke-width="2"/><line x1="826.06" y1="174.11" x2="815.45" y2="165.97" fill="none" stroke="#4d4e4e" stroke-linecap="round" stroke-linejoin="round" stroke-width="2"/><line x1="826.06" y1="174.11" x2="811.89" y2="182.77" fill="none" stroke="#4d4e4e" stroke-linecap="round" stroke-linejoin="round" stroke-width="2"/><line x1="829.59" y1="193.51" x2="811.89" y2="182.77" fill="none" stroke="#4d4e4e" stroke-linecap="round" stroke-linejoin="round" stroke-width="2"/><polyline points="809.7 193.51 831.64 204.71 826.36 211.19" fill="none" stroke="#4d4e4e" stroke-linecap="round" stroke-linejoin="round" stroke-width="1.4"/><polyline points="829.59 193.51 807.27 204.71 812.51 211.15" fill="none" stroke="#4d4e4e" stroke-linecap="round" stroke-linejoin="round" stroke-width="1.4"/><path d="m805.39,117.1c.24.63.3,1.3.22,1.96-.09,1.23-1.62,1.79-2.29.66-.39-.82-.3-1.77,0-2.61.35-.92,1.74-.9,2.08,0h0Z" fill="#333" stroke-width="0"/><path d="m836.36,117.27c.24.63.3,1.3.22,1.96-.09,1.23-1.62,1.79-2.29.66-.39-.82-.3-1.77,0-2.61.35-.92,1.74-.9,2.08,0h0Z" fill="#333" stroke-width="0"/><path d="m850.88,150.64c.3,2.11.4,4.26,0,6.37-.23,1.1-1.86,1.09-2.08,0-.4-2.1-.3-4.26,0-6.37.1-.57.64-.96,1.22-.86.45.08.79.43.86.86h0Z" fill="#333" stroke-width="0"/><path d="m800.79,166.89c.3,2.11.4,4.26,0,6.37-.23,1.1-1.86,1.09-2.08,0-.4-2.1-.3-4.26,0-6.37.1-.57.64-.96,1.22-.86.45.08.79.43.86.86h0Z" fill="#333" stroke-width="0"/><path d="m840.96,166.75c.3,2.11.4,4.26,0,6.37-.23,1.1-1.86,1.09-2.08,0-.4-2.1-.3-4.26,0-6.37.1-.57.64-.96,1.22-.86.45.08.79.43.86.86h0Z" fill="#333" stroke-width="0"/><path d="m800.6,134.26c.3,2.11.4,4.26,0,6.37-.23,1.1-1.86,1.09-2.08,0-.4-2.1-.3-4.26,0-6.37.1-.57.64-.96,1.22-.86.45.08.79.43.86.86h0Z" fill="#333" stroke-width="0"/><path d="m841.1,134.43c.3,2.11.4,4.26,0,6.37-.23,1.1-1.86,1.09-2.08,0-.4-2.1-.3-4.26,0-6.37.1-.57.64-.96,1.22-.86.45.08.79.43.86.86h0Z" fill="#333" stroke-width="0"/><path d="m791.01,150.31c.3,2.11.4,4.26,0,6.37-.23,1.1-1.86,1.09-2.08,0-.4-2.1-.3-4.26,0-6.37.1-.57.64-.96,1.22-.86.45.08.79.43.86.86h0Z" fill="#333" stroke-width="0"/><polygon points="824.57 165.97 815.45 165.97 815.37 116.84 824.5 116.84 824.57 165.97" fill="none" stroke="#666667" stroke-miterlimit="10" stroke-width="1.94"/><polygon points="824.57 165.97 834.15 218.47 819.57 204.83 804.33 218.47 815.45 165.97 824.57 165.97" fill="none" stroke="#666667" stroke-linecap="round" stroke-linejoin="round" stroke-width="2"/><polyline points="824.5 116.84 834.72 116.83 824.51 126.21 839.4 133.58 824.52 133.59 824.53 141.4 848.29 149.52 824.55 149.53" fill="none" stroke="#666667" stroke-linecap="round" stroke-linejoin="round" stroke-width="2"/><polyline points="824.56 156.73 839.3 165.83 824.57 165.83" fill="none" stroke="#666667" stroke-linecap="round" stroke-linejoin="round" stroke-width="2"/><polyline points="815.1 141.4 791.37 149.53 815.12 149.53" fill="none" stroke="#666667" stroke-linecap="round" stroke-linejoin="round" stroke-width="2"/><polyline points="815.07 116.84 804.85 116.84 815.08 126.21 800.22 133.59 815.09 133.59" fill="none" stroke="#666667" stroke-linecap="round" stroke-linejoin="round" stroke-width="2"/><polyline points="815.13 156.73 800.41 165.84 815.14 165.83" fill="none" stroke="#666667" stroke-linecap="round" stroke-linejoin="round" stroke-width="2"/><line x1="826.06" y1="174.11" x2="813.77" y2="174.11" fill="none" stroke="#666667" stroke-miterlimit="10" stroke-width="1.94"/><line x1="827.61" y1="182.64" x2="811.89" y2="182.77" fill="none" stroke="#666667" stroke-miterlimit="10" stroke-width="2"/><line x1="829.59" y1="193.51" x2="809.7" y2="193.51" fill="none" stroke="#666667" stroke-miterlimit="10" stroke-width="1.94"/><line x1="831.64" y1="204.71" x2="807.27" y2="204.71" fill="none" stroke="#666667" stroke-miterlimit="10" stroke-width="1.94"/><line x1="824.52" y1="133.59" x2="815.09" y2="133.59" fill="none" stroke="#666667" stroke-miterlimit="10" stroke-width="1.94"/><line x1="824.55" y1="149.53" x2="815.12" y2="149.53" fill="none" stroke="#666667" stroke-miterlimit="10" stroke-width="1.94"/><rect x="391.6" y="125.14" width="27.72" height="38.01" fill="#717178" stroke-width="0"/><polygon points="401.66 128.16 391.6 128.16 387.38 103.91 401.66 128.16" fill="#c0c0cc" stroke-width="0"/><polygon points="410.24 128.16 420.31 128.16 424.52 103.91 410.24 128.16" fill="#c0c0cc" stroke-width="0"/><rect x="384.17" y="132.42" width="42.57" height="21.86" fill="#a2a1a6" stroke-width="0"/><rect x="387.38" y="158.55" width="36.15" height="9.22" fill="#a2a1a6" stroke-width="0"/><rect x="387.38" y="122.12" width="36.15" height="6.04" fill="#a2a1a6" stroke-width="0"/><path d="m906.86,183.74c-2.54,9.28-4.89,20.07-6.46,32.2-1.6,12.37-2.07,23.61-1.95,33.38" fill="none" stroke="#333" stroke-linecap="round" stroke-linejoin="round" stroke-width="1.5"/><path d="m899.12,249.21c-8.33,7.75-21.98,18.49-41.25,26.2-27.98,11.2-52.92,10.06-65.62,8.56" fill="none" stroke="#333" stroke-linecap="round" stroke-linejoin="round" stroke-width="1.5"/><path d="m791,284.09c-8.09,6.72-19.86,14.68-35.46,19.99-40.84,13.91-77.34-.74-88.21-5.6" fill="none" stroke="#333" stroke-linecap="round" stroke-linejoin="round" stroke-width="1.5"/><path d="m899,270.62c7.28,5.51,17.13,7.23,25.73,4.17,2.86-.96,5.59-2.39,8.04-4.18,1.07-.77,2.29.77,1.28,1.64-10.15,8.79-26.2,8.75-36.35,0-1.01-.85.23-2.43,1.3-1.63h0Z" fill="#333" stroke-width="0"/><rect x="931.08" y="248.46" width="3.53" height="3.53" rx="1" ry="1" fill="#9e7b69" stroke-width="0"/><rect x="931.08" y="265.68" width="3.53" height="3.53" rx="1" ry="1" fill="#9e7b69" stroke-width="0"/><rect x="896.58" y="248.46" width="3.53" height="3.53" rx="1" ry="1" fill="#9e7b69" stroke-width="0"/><rect x="896.58" y="265.68" width="3.53" height="3.53" rx="1" ry="1" fill="#9e7b69" stroke-width="0"/><rect x="913.13" y="230.96" width="4.54" height="44.4" transform="translate(1168.56 -662.24) rotate(90)" fill="#3a3f3d" stroke-width="0"/><rect x="913.13" y="248.12" width="4.54" height="44.4" transform="translate(1185.71 -645.08) rotate(90)" fill="#3a3f3d" stroke-width="0"/><rect x="912.4" y="242.01" width="5.99" height="113.97" fill="#9e7b69" stroke-width="0"/><path d="m899,252.35c7.28,5.51,17.13,7.23,25.73,4.17,2.86-.96,5.59-2.39,8.04-4.18,1.07-.77,2.29.77,1.28,1.64-10.15,8.79-26.2,8.75-36.35,0-1.01-.85.23-2.43,1.3-1.63h0Z" fill="#333" stroke-width="0"/><path d="m791.13,305.14c7.28,5.51,17.13,7.23,25.73,4.17,2.86-.96,5.59-2.39,8.04-4.18,1.07-.77,2.29.77,1.28,1.64-10.15,8.79-26.2,8.75-36.35,0-1.01-.85.23-2.43,1.3-1.63h0Z" fill="#333" stroke-width="0"/><rect x="823.22" y="282.97" width="3.53" height="3.53" rx="1" ry="1" fill="#9e7b69" stroke-width="0"/><rect x="823.22" y="300.2" width="3.53" height="3.53" rx="1" ry="1" fill="#9e7b69" stroke-width="0"/><rect x="788.72" y="282.97" width="3.53" height="3.53" rx="1" ry="1" fill="#9e7b69" stroke-width="0"/><rect x="788.72" y="300.2" width="3.53" height="3.53" rx="1" ry="1" fill="#9e7b69" stroke-width="0"/><rect x="805.26" y="265.48" width="4.54" height="44.4" transform="translate(1095.21 -519.86) rotate(90)" fill="#3a3f3d" stroke-width="0"/><rect x="805.26" y="282.63" width="4.54" height="44.4" transform="translate(1112.37 -502.7) rotate(90)" fill="#3a3f3d" stroke-width="0"/><rect x="804.54" y="276.53" width="5.99" height="113.97" fill="#9e7b69" stroke-width="0"/><path d="m791.13,286.86c7.28,5.51,17.13,7.23,25.73,4.17,2.86-.96,5.59-2.39,8.04-4.18,1.07-.77,2.29.77,1.28,1.64-10.15,8.79-26.2,8.75-36.35,0-1.01-.85.23-2.43,1.3-1.63h0Z" fill="#333" stroke-width="0"/><path d="m667.59,319.4c7.28,5.51,17.13,7.23,25.74,4.17,2.86-.96,5.59-2.39,8.04-4.18,1.07-.77,2.29.77,1.28,1.64-10.15,8.79-26.2,8.75-36.35,0-1.01-.85.23-2.43,1.3-1.63h0Z" fill="#333" stroke-width="0"/><rect x="699.67" y="297.23" width="3.53" height="3.53" rx="1" ry="1" fill="#9e7b69" stroke-width="0"/><rect x="699.67" y="314.46" width="3.53" height="3.53" rx="1" ry="1" fill="#9e7b69" stroke-width="0"/><rect x="665.18" y="297.23" width="3.53" height="3.53" rx="1" ry="1" fill="#9e7b69" stroke-width="0"/><rect x="665.18" y="314.46" width="3.53" height="3.53" rx="1" ry="1" fill="#9e7b69" stroke-width="0"/><rect x="681.72" y="279.74" width="4.54" height="44.4" transform="translate(985.93 -382.05) rotate(90)" fill="#3a3f3d" stroke-width="0"/><rect x="681.72" y="296.89" width="4.54" height="44.4" transform="translate(1003.08 -364.9) rotate(90)" fill="#3a3f3d" stroke-width="0"/><rect x="681" y="290.79" width="5.99" height="113.97" fill="#9e7b69" stroke-width="0"/><path d="m667.59,301.12c7.28,5.51,17.13,7.23,25.74,4.17,2.86-.96,5.59-2.39,8.04-4.18,1.07-.77,2.29.77,1.28,1.64-10.15,8.79-26.2,8.75-36.35,0-1.01-.85.23-2.43,1.3-1.63h0Z" fill="#333" stroke-width="0"/><rect x="677.34" y="311.26" width="12.95" height="22.26" fill="#a8a8b2" stroke-width="0"/><path d="m214.55,384.82c1.43-1.67,3.1-3.81,4.53-4.05s3.1.95,5.01,2.15,3.81,1.67,6.44,2.62,4.53,5.24,4.53,6.44,3.34-.95,5.72,2.62c1.32,1.98,2.38,5.24,1.43,6.91s-1.67,1.43-1.67,4.53-6.91-.72-11.68.48c-4.77,1.19-4.29,3.34-10.49,2.86s-4.62-.95-7.87-.95c-2.62,0-4.05,0-6.2-1.43s-5.25-.9-4.05-6.91c.72-3.58,3.34-5.72,4.29-6.91s1.67-1.19,1.67-3.1,1.19-3.34,3.34-4.77,5.01-.48,5.01-.48Z" fill="#70ba95" stroke-width="0"/><path d="m298.28,347.77s25.12,7.92,29.18,9.54c1.5.6,36.98,17.02,36.98,17.02l-61.07-4.51-5.09-22.05Z" fill="#333" stroke-width="0"/><polygon points="345.17 406.03 251.95 406.03 251.95 370.05 298.11 348.86 345.17 370.05 345.17 406.03" fill="#9e7b69" stroke-width="0"/><polygon points="363.39 396.34 344.71 406.03 344.71 369.79 363.39 375.63 363.39 396.34" fill="#9e7b69" stroke-width="0"/><rect x="300.93" y="381.5" width="13.83" height="24.52" fill="#ffe4ae" stroke-width="0"/><path d="m365.03,375.83c-1.83.5-3.33-.1-4.91-.45-1.57-.37-3.13-.78-4.68-1.23-1.55-.45-3.08-.96-4.61-1.48-1.53-.53-3.1-.91-4.39-2.24-.09-.09-.04-.26.08-.28,1.81-.43,3.34.09,4.91.46,1.57.38,3.14.77,4.69,1.22,1.55.45,3.09.94,4.61,1.47,1.52.55,3.11.85,4.39,2.25.09.09.04.25-.08.28h0Z" fill="#333" stroke-width="0"/><path d="m300.63,405.22c-.95-3.36-.76-8.35-.9-11.84-.09-3.97-.13-7.93-.12-11.9,0-.64.52-1.15,1.16-1.14,3.5.1,7,.03,10.49.35,4.7.62,4.78,1.01,0,1.63-3.49.31-6.99.25-10.49.35,0,0,1.16-1.17,1.16-1.17.15,5.72.09,12.07-.06,17.82-.09,2.04-.21,4-.96,5.96-.06.14-.28.1-.29-.06h0Z" fill="#5b361a" stroke-width="0"/><rect x="318" y="381.83" width="21.35" height="15.72" fill="#394170" stroke-width="0"/><polygon points="354.74 392.89 348.54 395.88 348.54 382.31 354.74 383.39 354.74 392.89" fill="#394170" stroke-width="0"/><polygon points="360.94 390.45 357.18 392.21 357.18 383.8 360.94 384.75 360.94 390.45" fill="#394170" stroke-width="0"/><line x1="327.83" y1="383.08" x2="327.83" y2="396.44" fill="none" stroke="#d6b7b0" stroke-linecap="square" stroke-miterlimit="10" stroke-width="2"/><line x1="338.2" y1="389.84" x2="319.11" y2="389.84" fill="none" stroke="#d6b7b0" stroke-linecap="square" stroke-miterlimit="10" stroke-width="2"/><rect x="293.63" y="355.92" width="9.74" height="13.24" fill="#394170" stroke-width="0"/><line x1="298.11" y1="356.98" x2="298.11" y2="368.23" fill="none" stroke="#d6b7b0" stroke-linecap="square" stroke-miterlimit="10" stroke-width="2"/><line x1="302.14" y1="362.67" x2="294.74" y2="362.67" fill="none" stroke="#d6b7b0" stroke-linecap="square" stroke-miterlimit="10" stroke-width="2"/><line x1="342.55" y1="373.13" x2="253.68" y2="373.13" fill="none" stroke="#d6b7b0" stroke-linecap="round" stroke-miterlimit="10" stroke-width="2"/><line x1="248.22" y1="371.56" x2="298.14" y2="348.77" fill="none" stroke="#333" stroke-linecap="round" stroke-miterlimit="10" stroke-width="2"/><line x1="347.79" y1="370.28" x2="298.51" y2="348.77" fill="none" stroke="#333" stroke-linecap="round" stroke-miterlimit="10" stroke-width="2"/><path d="m343.06,406.5c-.99-2.79-.83-5.57-.94-8.36-.09-2.79-.1-5.57-.12-8.36.27-5.6-.43-11.22,1.06-16.72.04-.13.25-.14.29,0,1.49,5.5.79,11.12,1.06,16.72-.02,2.79-.03,5.57-.12,8.36-.1,2.79.05,5.57-.94,8.36-.04.13-.25.14-.29,0h0Z" fill="#664e49" stroke-width="0"/><polygon points="287.7 411.28 226.08 411.28 226.08 376.04 258.52 361.45 287.7 376.04 287.7 411.28" fill="#9e7b69" stroke-width="0"/><polygon points="292.71 406.77 287.47 411.28 287.47 376.04 292.71 378.94 292.71 406.77" fill="#9e7b69" stroke-width="0"/><line x1="293.03" y1="379.42" x2="288.42" y2="377.83" fill="none" stroke="#333" stroke-linecap="round" stroke-miterlimit="10" stroke-width="2"/><path d="m287.16,411.23c-.99-2.69-.83-5.38-.94-8.07-.09-2.69-.1-5.38-.12-8.07.26-5.4-.43-10.84,1.06-16.14.04-.13.25-.14.29,0,1.49,5.29.79,10.74,1.06,16.14-.02,2.69-.03,5.38-.12,8.07-.1,2.69.05,5.38-.94,8.07-.04.13-.25.14-.29,0h0Z" fill="#664e49" stroke-width="0"/><path d="m293.2,405.5c-.99-1.97-.83-3.95-.94-5.92-.08-1.97-.12-3.95-.12-5.92,0-1.97.06-3.95.13-5.92.08-1.97.01-3.95.93-5.92.05-.12.24-.12.29,0,.91,1.97.85,3.95.93,5.92.08,1.97.13,3.95.13,5.92,0,1.97-.04,3.95-.12,5.92-.1,1.97.05,3.95-.94,5.92-.06.12-.24.12-.29,0h0Z" fill="#664e49" stroke-width="0"/><polygon points="235.15 410.43 235.15 386.26 274.43 386.26 274.43 411.23 235.15 411.23 235.15 410.43" fill="#f2eadf" stroke-width="0"/><line x1="235.94" y1="391.51" x2="273.31" y2="391.51" fill="none" stroke="#d6b7b0" stroke-linecap="round" stroke-miterlimit="10" stroke-width="2"/><path d="m227.03,377.68c5.01-.99,10.02-.83,15.03-.94,5.01-.09,10.02-.1,15.03-.12,5.01.03,10.02.05,15.03.13,5.01.08,10.02.01,15.03.93v.29c-9.99,1.5-20.02.79-30.06,1.06-5.01-.02-10.02-.04-15.03-.12-5.01-.11-10.02.05-15.03-.94v-.29h0Z" fill="#d6b7b0" stroke-width="0"/><polyline points="289.06 378.02 257.41 361.93 226.08 376.83" fill="none" stroke="#333" stroke-linecap="round" stroke-miterlimit="10" stroke-width="2"/><path d="m372.46,319.4c7.28,5.51,17.13,7.23,25.73,4.17,2.86-.96,5.59-2.39,8.04-4.18,1.07-.77,2.29.77,1.28,1.64-10.15,8.79-26.2,8.75-36.35,0-1.01-.85.23-2.43,1.3-1.63h0Z" fill="#333" stroke-width="0"/><rect x="404.54" y="297.23" width="3.53" height="3.53" rx="1" ry="1" fill="#9e7b69" stroke-width="0"/><rect x="404.54" y="314.46" width="3.53" height="3.53" rx="1" ry="1" fill="#9e7b69" stroke-width="0"/><rect x="370.04" y="297.23" width="3.53" height="3.53" rx="1" ry="1" fill="#9e7b69" stroke-width="0"/><rect x="370.04" y="314.46" width="3.53" height="3.53" rx="1" ry="1" fill="#9e7b69" stroke-width="0"/><rect x="386.59" y="279.74" width="4.54" height="44.4" transform="translate(690.79 -86.92) rotate(90)" fill="#3a3f3d" stroke-width="0"/><rect x="386.59" y="296.89" width="4.54" height="44.4" transform="translate(707.95 -69.77) rotate(90)" fill="#3a3f3d" stroke-width="0"/><rect x="385.86" y="290.79" width="5.99" height="113.97" fill="#9e7b69" stroke-width="0"/><path d="m372.46,301.12c7.28,5.51,17.13,7.23,25.73,4.17,2.86-.96,5.59-2.39,8.04-4.18,1.07-.77,2.29.77,1.28,1.64-10.15,8.79-26.2,8.75-36.35,0-1.01-.85.23-2.43,1.3-1.63h0Z" fill="#333" stroke-width="0"/><rect x="382.21" y="311.26" width="12.95" height="22.26" fill="#a8a8b2" stroke-width="0"/><path d="m259.94,503.04c1.43-1.67,3.1-3.81,4.53-4.05s3.1.95,5.01,2.15,3.81,1.67,6.44,2.62,4.53,5.24,4.53,6.44,3.34-.95,5.72,2.62c1.32,1.98,2.38,5.24,1.43,6.91s-1.67,1.43-1.67,4.53-6.91-.72-11.68.48c-4.77,1.19-4.29,3.34-10.49,2.86s-4.62-.95-7.87-.95c-2.62,0-4.05,0-6.2-1.43-2.15-1.43-5.25-.9-4.05-6.91.72-3.58,3.34-5.72,4.29-6.91s1.67-1.19,1.67-3.1,1.19-3.34,3.34-4.77,5.01-.48,5.01-.48Z" fill="#70ba95" stroke-width="0"/><path d="m343.67,466s25.12,7.92,29.18,9.54c1.5.6,36.98,17.02,36.98,17.02l-61.07-4.51-5.09-22.05Z" fill="#333" stroke-width="0"/><polygon points="390.56 524.26 297.34 524.26 297.34 488.27 343.5 467.09 390.56 488.27 390.56 524.26" fill="#9e7b69" stroke-width="0"/><polygon points="408.79 514.56 390.1 524.26 390.1 488.02 408.79 493.86 408.79 514.56" fill="#9e7b69" stroke-width="0"/><rect x="346.32" y="499.72" width="13.83" height="24.52" fill="#ffe4ae" stroke-width="0"/><path d="m410.42,494.06c-1.83.5-3.33-.1-4.91-.45-1.57-.37-3.13-.78-4.68-1.23-1.55-.45-3.08-.96-4.61-1.48-1.53-.53-3.1-.91-4.39-2.24-.09-.09-.04-.26.08-.28,1.8-.43,3.33.09,4.91.46,1.57.38,3.14.77,4.69,1.22,1.55.45,3.09.94,4.61,1.47,1.52.55,3.11.85,4.39,2.25.09.09.04.25-.08.28h0Z" fill="#333" stroke-width="0"/><path d="m346.02,523.44c-.95-3.36-.76-8.35-.9-11.84-.09-3.97-.13-7.93-.12-11.9,0-.64.53-1.15,1.16-1.14,3.5.1,7,.03,10.49.35,4.7.62,4.78,1.01,0,1.63-3.49.31-6.99.25-10.49.35,0,0,1.16-1.17,1.16-1.17.15,5.72.09,12.07-.05,17.82-.09,2.04-.21,4-.96,5.96-.06.14-.28.1-.29-.06h0Z" fill="#5b361a" stroke-width="0"/><rect x="363.39" y="500.05" width="21.35" height="15.72" fill="#394170" stroke-width="0"/><polygon points="400.13 511.12 393.94 514.1 393.94 500.53 400.13 501.62 400.13 511.12" fill="#394170" stroke-width="0"/><polygon points="406.33 508.67 402.57 510.44 402.57 502.02 406.33 502.97 406.33 508.67" fill="#394170" stroke-width="0"/><line x1="373.22" y1="501.31" x2="373.22" y2="514.67" fill="none" stroke="#d6b7b0" stroke-linecap="square" stroke-miterlimit="10" stroke-width="2"/><line x1="383.59" y1="508.07" x2="364.5" y2="508.07" fill="none" stroke="#d6b7b0" stroke-linecap="square" stroke-miterlimit="10" stroke-width="2"/><rect x="339.02" y="474.15" width="9.74" height="13.24" fill="#394170" stroke-width="0"/><line x1="343.5" y1="475.21" x2="343.5" y2="486.46" fill="none" stroke="#d6b7b0" stroke-linecap="square" stroke-miterlimit="10" stroke-width="2"/><line x1="347.53" y1="480.9" x2="340.13" y2="480.9" fill="none" stroke="#d6b7b0" stroke-linecap="square" stroke-miterlimit="10" stroke-width="2"/><line x1="387.94" y1="491.35" x2="299.07" y2="491.35" fill="none" stroke="#d6b7b0" stroke-linecap="round" stroke-miterlimit="10" stroke-width="2"/><line x1="293.61" y1="489.79" x2="343.53" y2="467" fill="none" stroke="#333" stroke-linecap="round" stroke-miterlimit="10" stroke-width="2"/><line x1="393.18" y1="488.5" x2="343.9" y2="467" fill="none" stroke="#333" stroke-linecap="round" stroke-miterlimit="10" stroke-width="2"/><path d="m388.45,524.73c-.99-2.79-.83-5.57-.94-8.36-.09-2.79-.1-5.57-.12-8.36.27-5.6-.43-11.22,1.06-16.72.04-.13.25-.14.29,0,1.49,5.49.79,11.13,1.06,16.72-.02,2.79-.03,5.57-.12,8.36-.1,2.79.05,5.57-.94,8.36-.04.13-.25.14-.29,0h0Z" fill="#664e49" stroke-width="0"/><polygon points="333.09 529.51 271.47 529.51 271.47 494.27 303.91 479.67 333.09 494.27 333.09 529.51" fill="#9e7b69" stroke-width="0"/><polygon points="338.1 525 332.86 529.51 332.86 494.27 338.1 497.17 338.1 525" fill="#9e7b69" stroke-width="0"/><line x1="338.42" y1="497.64" x2="333.81" y2="496.05" fill="none" stroke="#333" stroke-linecap="round" stroke-miterlimit="10" stroke-width="2"/><path d="m332.55,529.45c-.99-2.69-.83-5.38-.94-8.07-.09-2.69-.1-5.38-.12-8.07.26-5.4-.43-10.84,1.06-16.14.04-.13.25-.14.29,0,1.49,5.29.79,10.74,1.06,16.14-.02,2.69-.04,5.38-.12,8.07-.1,2.69.05,5.38-.94,8.07-.04.13-.25.14-.29,0h0Z" fill="#664e49" stroke-width="0"/><path d="m338.59,523.72c-.99-1.97-.83-3.95-.94-5.92-.08-1.97-.12-3.95-.12-5.92,0-1.97.06-3.95.13-5.92.08-1.97.01-3.95.93-5.92.05-.12.24-.12.29,0,.91,1.97.85,3.95.93,5.92.08,1.97.13,3.95.13,5.92,0,1.97-.04,3.95-.12,5.92-.1,1.97.05,3.95-.94,5.92-.06.12-.24.12-.29,0h0Z" fill="#664e49" stroke-width="0"/><polygon points="280.54 528.65 280.54 504.48 319.82 504.48 319.82 529.45 280.54 529.45 280.54 528.65" fill="#f2eadf" stroke-width="0"/><line x1="281.33" y1="509.73" x2="318.7" y2="509.73" fill="none" stroke="#d6b7b0" stroke-linecap="round" stroke-miterlimit="10" stroke-width="2"/><path d="m272.42,495.91c5.01-.99,10.02-.83,15.03-.94,5.01-.09,10.02-.1,15.03-.12,5.01.03,10.02.05,15.03.13,5.01.08,10.02.01,15.03.93v.29c-9.99,1.5-20.02.79-30.06,1.06-5.01-.02-10.02-.04-15.03-.12-5.01-.11-10.02.05-15.03-.94v-.29h0Z" fill="#d6b7b0" stroke-width="0"/><polyline points="334.45 496.24 302.8 480.15 271.47 495.06" fill="none" stroke="#333" stroke-linecap="round" stroke-miterlimit="10" stroke-width="2"/><path d="m417.85,437.62c7.28,5.51,17.13,7.23,25.73,4.17,2.86-.96,5.59-2.39,8.04-4.18,1.07-.77,2.29.77,1.29,1.64-10.15,8.79-26.2,8.75-36.35,0-1.01-.85.23-2.43,1.3-1.63h0Z" fill="#333" stroke-width="0"/><rect x="449.93" y="415.46" width="3.53" height="3.53" rx="1" ry="1" fill="#9e7b69" stroke-width="0"/><rect x="449.93" y="432.68" width="3.53" height="3.53" rx="1" ry="1" fill="#9e7b69" stroke-width="0"/><rect x="415.43" y="415.46" width="3.53" height="3.53" rx="1" ry="1" fill="#9e7b69" stroke-width="0"/><rect x="415.43" y="432.68" width="3.53" height="3.53" rx="1" ry="1" fill="#9e7b69" stroke-width="0"/><rect x="431.98" y="397.96" width="4.54" height="44.4" transform="translate(854.41 -14.09) rotate(90)" fill="#3a3f3d" stroke-width="0"/><rect x="431.98" y="415.11" width="4.54" height="44.4" transform="translate(871.56 3.06) rotate(90)" fill="#3a3f3d" stroke-width="0"/><rect x="431.25" y="409.01" width="5.99" height="113.97" fill="#9e7b69" stroke-width="0"/><path d="m417.85,419.35c7.28,5.51,17.13,7.23,25.73,4.17,2.86-.96,5.59-2.39,8.04-4.18,1.07-.77,2.29.77,1.29,1.64-10.15,8.79-26.2,8.75-36.35,0-1.01-.85.23-2.43,1.3-1.63h0Z" fill="#333" stroke-width="0"/><rect x="427.6" y="429.48" width="12.95" height="22.26" fill="#a8a8b2" stroke-width="0"/><path d="m510.54,507.93c1.43-1.67,3.1-3.81,4.53-4.05s3.1.95,5.01,2.15,3.81,1.67,6.44,2.62,4.53,5.24,4.53,6.44,3.34-.95,5.72,2.62c1.32,1.98,2.38,5.24,1.43,6.91s-1.67,1.43-1.67,4.53-6.91-.72-11.68.48c-4.77,1.19-4.29,3.34-10.49,2.86s-4.62-.95-7.87-.95c-2.62,0-4.05,0-6.2-1.43-2.15-1.43-5.25-.9-4.05-6.91.72-3.58,3.34-5.72,4.29-6.91s1.67-1.19,1.67-3.1,1.19-3.34,3.34-4.77,5.01-.48,5.01-.48Z" fill="#70ba95" stroke-width="0"/><path d="m594.27,470.88s25.12,7.92,29.18,9.54c1.5.6,36.98,17.02,36.98,17.02l-61.07-4.51-5.09-22.05Z" fill="#333" stroke-width="0"/><polygon points="641.16 529.15 547.94 529.15 547.94 493.16 594.1 471.97 641.16 493.16 641.16 529.15" fill="#9e7b69" stroke-width="0"/><polygon points="659.39 519.45 640.7 529.15 640.7 492.91 659.39 498.75 659.39 519.45" fill="#9e7b69" stroke-width="0"/><rect x="596.92" y="504.61" width="13.83" height="24.52" fill="#ffe4ae" stroke-width="0"/><path d="m661.02,498.94c-1.83.5-3.33-.1-4.91-.45-1.57-.37-3.13-.78-4.68-1.23-1.55-.45-3.08-.96-4.61-1.48-1.53-.53-3.1-.91-4.39-2.24-.09-.09-.04-.26.08-.28,1.81-.43,3.33.09,4.91.46,1.57.38,3.14.77,4.69,1.22,1.55.45,3.09.94,4.61,1.47,1.52.55,3.11.85,4.39,2.25.09.09.04.25-.08.28h0Z" fill="#333" stroke-width="0"/><path d="m596.62,528.33c-.95-3.36-.76-8.35-.9-11.84-.09-3.97-.13-7.93-.12-11.9,0-.64.53-1.15,1.16-1.14,3.5.1,7,.03,10.49.35,4.7.62,4.78,1.01,0,1.63-3.49.31-6.99.25-10.49.35,0,0,1.16-1.17,1.16-1.17.15,5.72.09,12.07-.06,17.82-.09,2.04-.21,4-.96,5.96-.06.14-.28.1-.29-.06h0Z" fill="#5b361a" stroke-width="0"/><rect x="613.99" y="504.94" width="21.35" height="15.72" fill="#394170" stroke-width="0"/><polygon points="650.73 516 644.54 518.99 644.54 505.42 650.73 506.51 650.73 516" fill="#394170" stroke-width="0"/><polygon points="656.93 513.56 653.18 515.33 653.18 506.91 656.93 507.86 656.93 513.56" fill="#394170" stroke-width="0"/><line x1="623.82" y1="506.2" x2="623.82" y2="519.56" fill="none" stroke="#d6b7b0" stroke-linecap="square" stroke-miterlimit="10" stroke-width="2"/><line x1="634.19" y1="512.96" x2="615.1" y2="512.96" fill="none" stroke="#d6b7b0" stroke-linecap="square" stroke-miterlimit="10" stroke-width="2"/><rect x="589.62" y="479.03" width="9.74" height="13.24" fill="#394170" stroke-width="0"/><line x1="594.11" y1="480.09" x2="594.11" y2="491.34" fill="none" stroke="#d6b7b0" stroke-linecap="square" stroke-miterlimit="10" stroke-width="2"/><line x1="598.13" y1="485.78" x2="590.73" y2="485.78" fill="none" stroke="#d6b7b0" stroke-linecap="square" stroke-miterlimit="10" stroke-width="2"/><line x1="638.54" y1="496.24" x2="549.67" y2="496.24" fill="none" stroke="#d6b7b0" stroke-linecap="round" stroke-miterlimit="10" stroke-width="2"/><line x1="544.21" y1="494.67" x2="594.13" y2="471.89" fill="none" stroke="#333" stroke-linecap="round" stroke-miterlimit="10" stroke-width="2"/><line x1="643.78" y1="493.39" x2="594.51" y2="471.89" fill="none" stroke="#333" stroke-linecap="round" stroke-miterlimit="10" stroke-width="2"/><path d="m639.05,529.62c-.99-2.79-.83-5.57-.94-8.36-.09-2.79-.1-5.57-.12-8.36.26-5.59-.43-11.23,1.06-16.72.04-.13.25-.14.29,0,1.49,5.49.79,11.13,1.06,16.72-.02,2.79-.04,5.57-.12,8.36-.1,2.79.05,5.57-.94,8.36-.04.13-.25.14-.29,0h0Z" fill="#664e49" stroke-width="0"/><polygon points="583.69 534.39 522.07 534.39 522.07 499.15 554.51 484.56 583.69 499.15 583.69 534.39" fill="#9e7b69" stroke-width="0"/><polygon points="588.71 529.88 583.46 534.39 583.46 499.15 588.71 502.05 588.71 529.88" fill="#9e7b69" stroke-width="0"/><line x1="589.02" y1="502.53" x2="584.41" y2="500.94" fill="none" stroke="#333" stroke-linecap="round" stroke-miterlimit="10" stroke-width="2"/><path d="m583.15,534.34c-.99-2.69-.83-5.38-.94-8.07-.09-2.69-.1-5.38-.12-8.07.27-5.41-.43-10.83,1.06-16.14.04-.13.25-.14.29,0,1.49,5.31.79,10.74,1.06,16.14-.02,2.69-.03,5.38-.12,8.07-.1,2.69.05,5.38-.94,8.07-.04.13-.25.14-.29,0h0Z" fill="#664e49" stroke-width="0"/><path d="m589.19,528.61c-.99-1.97-.83-3.95-.94-5.92-.08-1.97-.12-3.95-.12-5.92,0-1.97.06-3.95.13-5.92.08-1.97.01-3.95.93-5.92.05-.12.24-.12.29,0,.91,1.97.85,3.95.93,5.92.08,1.97.13,3.95.13,5.92,0,1.97-.04,3.95-.12,5.92-.1,1.97.05,3.95-.94,5.92-.06.12-.24.12-.29,0h0Z" fill="#664e49" stroke-width="0"/><polygon points="531.14 533.54 531.14 509.37 570.42 509.37 570.42 534.34 531.14 534.34 531.14 533.54" fill="#f2eadf" stroke-width="0"/><line x1="531.93" y1="514.62" x2="569.3" y2="514.62" fill="none" stroke="#d6b7b0" stroke-linecap="round" stroke-miterlimit="10" stroke-width="2"/><path d="m523.03,500.79c5.01-.99,10.02-.83,15.03-.94,5.01-.09,10.02-.1,15.03-.12,5.01.03,10.02.05,15.03.13,5.01.08,10.02.01,15.03.93v.29c-9.99,1.5-20.02.79-30.06,1.06-5.01-.02-10.02-.04-15.03-.12-5.01-.1-10.02.05-15.03-.94v-.29h0Z" fill="#d6b7b0" stroke-width="0"/><polyline points="585.05 501.13 553.4 485.04 522.07 499.95" fill="none" stroke="#333" stroke-linecap="round" stroke-miterlimit="10" stroke-width="2"/><path d="m668.45,442.51c7.28,5.51,17.13,7.23,25.73,4.17,2.86-.96,5.59-2.39,8.04-4.18,1.07-.77,2.29.77,1.28,1.64-10.15,8.79-26.2,8.75-36.35,0-1.01-.85.23-2.43,1.3-1.63h0Z" fill="#333" stroke-width="0"/><rect x="700.53" y="420.35" width="3.53" height="3.53" rx="1" ry="1" fill="#9e7b69" stroke-width="0"/><rect x="700.53" y="437.57" width="3.53" height="3.53" rx="1" ry="1" fill="#9e7b69" stroke-width="0"/><rect x="666.03" y="420.35" width="3.53" height="3.53" rx="1" ry="1" fill="#9e7b69" stroke-width="0"/><rect x="666.03" y="437.57" width="3.53" height="3.53" rx="1" ry="1" fill="#9e7b69" stroke-width="0"/><rect x="682.58" y="402.85" width="4.54" height="44.4" transform="translate(1109.9 -259.8) rotate(90)" fill="#3a3f3d" stroke-width="0"/><rect x="682.58" y="420" width="4.54" height="44.4" transform="translate(1127.05 -242.65) rotate(90)" fill="#3a3f3d" stroke-width="0"/><rect x="681.85" y="413.9" width="5.99" height="113.97" fill="#9e7b69" stroke-width="0"/><path d="m668.45,424.23c7.28,5.51,17.13,7.23,25.73,4.17,2.86-.96,5.59-2.39,8.04-4.18,1.07-.77,2.29.77,1.28,1.64-10.15,8.79-26.2,8.75-36.35,0-1.02-.85.23-2.43,1.3-1.63h0Z" fill="#333" stroke-width="0"/><rect x="678.2" y="434.37" width="12.95" height="22.26" fill="#a8a8b2" stroke-width="0"/><path d="m387.38,103.91c9.09,8.43,36.73,31.83,79.01,35.72,28.4,2.61,50.9-4.72,62.65-9.55" fill="none" stroke="#333" stroke-linecap="round" stroke-linejoin="round" stroke-width="1.5"/><path d="m424.52,103.91c7.16,5.16,20.71,13.46,39.64,16.68,26.36,4.48,47.22-3.61,55.43-7.33" fill="none" stroke="#333" stroke-linecap="round" stroke-linejoin="round" stroke-width="1.5"/><path d="m387.38,103.91c19.79,12.65,62.33,35.78,119.32,35.72,25.18-.03,46.53-4.58,62.65-9.55" fill="none" stroke="#333" stroke-linecap="round" stroke-linejoin="round" stroke-width="1.5"/><path d="m424.52,103.91c16.9,7.76,45.82,18.43,83.09,19.56,30.42.93,55.21-4.83,71.5-10.01" fill="none" stroke="#333" stroke-linecap="round" stroke-linejoin="round" stroke-width="1.5"/><path d="m528.3,131.38c16.67,6.46,45.38,15.53,82.43,17.14,28.06,1.22,51.12-2.25,66.74-5.66" fill="none" stroke="#333" stroke-linecap="round" stroke-linejoin="round" stroke-width="1.5"/><path d="m519.27,115.2c16.7,4.42,45.44,10.76,82.31,12.77,27.92,1.52,50.78.02,66.23-1.63" fill="none" stroke="#333" stroke-linecap="round" stroke-linejoin="round" stroke-width="1.5"/><path d="m568.6,129.71c16.59,6.63,45.16,15.98,81.88,17.96,27.81,1.49,50.61-1.76,66.04-5.02" fill="none" stroke="#333" stroke-linecap="round" stroke-linejoin="round" stroke-width="1.5"/><path d="m579.42,114.61c16.6,4.89,45.18,11.9,81.93,14,27.83,1.59,50.65-.18,66.08-2.11" fill="none" stroke="#333" stroke-linecap="round" stroke-linejoin="round" stroke-width="1.5"/><path d="m725.75,125.87c16.6,4.89,50.52,33.85,124.1,31.14" fill="none" stroke="#333" stroke-linecap="round" stroke-linejoin="round" stroke-width="1.5"/><path d="m716.5,142.06c16.6,4.89,50.52,33.85,124.1,31.14" fill="none" stroke="#333" stroke-linecap="round" stroke-linejoin="round" stroke-width="1.5"/><path d="m667.81,126.34c14.47,7.69,34.06,16.35,58.23,22.5,24.9,6.33,46.85,8,63.55,8.05" fill="none" stroke="#333" stroke-linecap="round" stroke-linejoin="round" stroke-width="1.5"/><path d="m678.17,144.23c16.98,4.84,82.23,40.36,121.4,28.7" fill="none" stroke="#333" stroke-linecap="round" stroke-linejoin="round" stroke-width="1.5"/><path d="m840.6,173.2c4.67,2.54,10.87,5.35,18.45,7.44,8.63,2.37,16.26,3.03,22.03,3.1" fill="none" stroke="#333" stroke-linecap="round" stroke-linejoin="round" stroke-width="1.5"/><path d="m881.08,183.74c-8.11,3.1-29.09,9.81-53.8,2.93-12.42-3.46-21.7-9.22-27.72-13.74" fill="none" stroke="#333" stroke-linecap="round" stroke-linejoin="round" stroke-width="1.5"/><path d="m906.86,183.74c.22,10.64,2.08,27.65,11.19,45.81,4.09,8.15,8.75,14.75,13.03,19.9" fill="none" stroke="#333" stroke-linecap="round" stroke-linejoin="round" stroke-width="1.5"/><path d="m933.03,249.73c-5.67,7.83-16.18,19.98-33.08,28.81-33.57,17.54-66.81,8.65-75.01,6.2" fill="none" stroke="#333" stroke-linecap="round" stroke-linejoin="round" stroke-width="1.5"/><path d="m824.93,284.74c-6.49,7.48-16.66,16.91-31.28,23.34-42.82,18.82-85.47-4.97-91.41-8.41" fill="none" stroke="#333" stroke-linecap="round" stroke-linejoin="round" stroke-width="1.5"/><path d="m702.24,299.99c-31.33,14.36-85.35,34.29-155.09,36.42-80.35,2.46-142.5-19.91-175.34-34.48" fill="none" stroke="#333" stroke-linecap="round" stroke-linejoin="round" stroke-width="1.5"/><path d="m666.32,299c-28.03,10.39-71.93,22.91-126.82,23.66-57.59.79-103.67-11.68-132.43-21.9" fill="none" stroke="#333" stroke-linecap="round" stroke-linejoin="round" stroke-width="1.5"/><path d="m701.09,425.14c-27.2,10.46-74,24.7-133.88,24.63-68.99-.08-121.79-19.13-149.63-31.35" fill="none" stroke="#333" stroke-linecap="round" stroke-linejoin="round" stroke-width="1.5"/><path d="m670.3,423.47c-24.72,7.38-62.55,15.8-109.33,15.35-47.11-.45-85.07-9.72-109.77-17.64" fill="none" stroke="#333" stroke-linecap="round" stroke-linejoin="round" stroke-width="1.5"/><path d="m881.08,183.74c-9.91,1.21-24.95,1.82-42.45-2.34-23.89-5.68-40.44-17.41-49.04-24.52" fill="none" stroke="#333" stroke-linecap="round" stroke-linejoin="round" stroke-width="1.5"/><path d="m849.85,157.01c1.04,3.39,4.64,13.57,15,20.61,6.36,4.32,12.63,5.65,16.23,6.12" fill="none" stroke="#333" stroke-linecap="round" stroke-linejoin="round" stroke-width="1.5"/><path d="m932.84,268.04c-.7-1.69-1.43-3.95-1.73-6.68-.59-5.4.78-9.73,1.73-12.05" fill="none" stroke="#333" stroke-linecap="round" stroke-linejoin="round" stroke-width="1.5"/><path d="m898.45,268.04c-.7-1.69-1.43-3.95-1.73-6.68-.59-5.4.78-9.73,1.73-12.05" fill="none" stroke="#333" stroke-linecap="round" stroke-linejoin="round" stroke-width="1.5"/><path d="m824.98,303.2c-.7-1.69-1.43-3.95-1.73-6.68-.59-5.4.78-9.73,1.73-12.05" fill="none" stroke="#333" stroke-linecap="round" stroke-linejoin="round" stroke-width="1.5"/><path d="m790.59,303.2c-.7-1.69-1.43-3.95-1.73-6.68-.59-5.4.78-9.73,1.73-12.05" fill="none" stroke="#333" stroke-linecap="round" stroke-linejoin="round" stroke-width="1.5"/><path d="m701.34,317.49c-.7-1.69-1.43-3.95-1.73-6.68-.59-5.4.78-9.73,1.73-12.05" fill="none" stroke="#333" stroke-linecap="round" stroke-linejoin="round" stroke-width="1.5"/><path d="m666.95,317.49c-.7-1.69-1.43-3.95-1.73-6.68-.59-5.4.78-9.73,1.73-12.05" fill="none" stroke="#333" stroke-linecap="round" stroke-linejoin="round" stroke-width="1.5"/><path d="m702.12,442.2c-.7-1.69-1.43-3.95-1.73-6.68-.59-5.4.78-9.73,1.73-12.05" fill="none" stroke="#333" stroke-linecap="round" stroke-linejoin="round" stroke-width="1.5"/><path d="m667.73,442.2c-.7-1.69-1.43-3.95-1.73-6.68-.59-5.4.78-9.73,1.73-12.05" fill="none" stroke="#333" stroke-linecap="round" stroke-linejoin="round" stroke-width="1.5"/><path d="m451.86,435.68c-.7-1.69-1.43-3.95-1.73-6.68-.59-5.4.78-9.73,1.73-12.05" fill="none" stroke="#333" stroke-linecap="round" stroke-linejoin="round" stroke-width="1.5"/><path d="m417.47,435.68c-.7-1.69-1.43-3.95-1.73-6.68-.59-5.4.78-9.73,1.73-12.05" fill="none" stroke="#333" stroke-linecap="round" stroke-linejoin="round" stroke-width="1.5"/><path d="m406.81,317.46c-.7-1.57-1.43-3.68-1.73-6.23-.59-5.03.78-9.08,1.73-11.24" fill="none" stroke="#333" stroke-linecap="round" stroke-linejoin="round" stroke-width="1.5"/><path d="m372.42,317.46c-.7-1.57-1.43-3.68-1.73-6.23-.59-5.03.78-9.08,1.73-11.24" fill="none" stroke="#333" stroke-linecap="round" stroke-linejoin="round" stroke-width="1.5"/><path d="m666.94,320.21c-1.74,4.89-11.09,29.65-36.93,40.51-12.06,5.07-23.13,5.19-29.8,4.67" fill="none" stroke="#333" stroke-linecap="round" stroke-linejoin="round" stroke-width="1.5"/><path d="m390.24,132.42c.99,1.82.83,3.64.94,5.46.08,1.82.12,3.64.12,5.46,0,1.82-.06,3.64-.13,5.46-.08,1.82-.01,3.64-.93,5.46-.06.12-.24.12-.29,0-.91-1.82-.85-3.64-.93-5.46-.08-1.82-.13-3.64-.13-5.46,0-1.82.04-3.64.12-5.46.1-1.82-.05-3.64.94-5.46.06-.11.24-.12.29,0h0Z" fill="#4d4b5b" stroke-width="0"/><path d="m400.12,132.42c.99,1.82.83,3.64.94,5.46.08,1.82.12,3.64.12,5.46,0,1.82-.06,3.64-.13,5.46-.08,1.82-.01,3.64-.93,5.46-.06.12-.24.12-.29,0-.91-1.82-.85-3.64-.93-5.46-.08-1.82-.13-3.64-.13-5.46,0-1.82.04-3.64.12-5.46.1-1.82-.05-3.64.94-5.46.06-.11.24-.12.29,0h0Z" fill="#4d4b5b" stroke-width="0"/><path d="m410.39,132.42c.99,1.82.83,3.64.94,5.46.08,1.82.12,3.64.12,5.46,0,1.82-.06,3.64-.13,5.46-.08,1.82-.01,3.64-.93,5.46-.06.12-.24.12-.29,0-.91-1.82-.85-3.64-.93-5.46-.08-1.82-.13-3.64-.13-5.46,0-1.82.04-3.64.12-5.46.1-1.82-.05-3.64.94-5.46.06-.11.24-.12.29,0h0Z" fill="#4d4b5b" stroke-width="0"/><path d="m419.47,132.42c.99,1.82.83,3.64.94,5.46.08,1.82.12,3.64.12,5.46,0,1.82-.06,3.64-.13,5.46-.08,1.82-.01,3.64-.93,5.46-.06.12-.24.12-.29,0-.91-1.82-.85-3.64-.93-5.46-.08-1.82-.13-3.64-.13-5.46,0-1.82.04-3.64.12-5.46.1-1.82-.05-3.64.94-5.46.06-.11.24-.12.29,0h0Z" fill="#4d4b5b" stroke-width="0"/><path d="m371.81,301.94c3.17,17.44,8.52,38.7,17.8,61.97,8.87,22.24,19.07,40.63,28.36,55.08" fill="none" stroke="#333" stroke-linecap="round" stroke-linejoin="round" stroke-width="1.5"/><path d="m406.19,301c3.17,17.44,8.52,38.7,17.8,61.97,8.87,22.24,19.07,40.63,28.36,55.08" fill="none" stroke="#333" stroke-linecap="round" stroke-linejoin="round" stroke-width="1.5"/></svg>