<?xml version="1.0" encoding="UTF-8"?>
<svg xmlns="http://www.w3.org/2000/svg" viewBox="0 0 1140 626.826">
  <defs>
    <style>
      .cls-1 {
        stroke-width: 2.226px;
      }

      .cls-1, .cls-2 {
        fill: none;
        stroke: #b61532;
        stroke-miterlimit: 10;
      }

      .cls-2 {
        stroke-width: 2px;
      }

      .cls-3, .cls-4, .cls-5, .cls-6, .cls-7, .cls-8, .cls-9, .cls-10, .cls-11 {
        stroke-width: 0px;
      }

      .cls-4 {
        fill: #7a5234;
      }

      .cls-5 {
        fill: #23ad3c;
      }

      .cls-6 {
        fill: #d12d32;
      }

      .cls-7 {
        fill: #b61532;
      }

      .cls-8 {
        fill: #f2a03d;
      }

      .cls-9 {
        fill: #fff;
      }

      .cls-10 {
        fill: #fff0cc;
      }

      .cls-11 {
        fill: #ffd09c;
      }
    </style>
  </defs>
  <g id="Layer_2" data-name="Layer 2">
    <g id="maal5_01.201a">
      <path class="cls-10" d="m1132.321,319.054c-.066-391.597-280.949-301.552-582.364-301.552S19.845-65.399,19.845,314.969c0,366.061,248.74,303.363,550.155,303.363s562.385,85.286,562.321-299.278Z"/>
    </g>
  </g>
  <g id="art">
    <g>
      <path class="cls-8" d="m256.071,418.042c-10.965,0-24.035-10.199-24.035-58.787,0-39.987,8.978-93.098,22.872-135.305,21.706-65.94,45.32-79.781,61.307-79.781v11.076c-17.179,0-35.69,26.304-50.787,72.167-13.557,41.183-22.315,92.934-22.315,131.842,0,23.748,4.007,47.71,12.959,47.71v11.076Z"/>
      <path class="cls-8" d="m335.3,418.042c-10.965,0-24.035-10.199-24.035-58.787,0-39.987,8.978-93.098,22.872-135.305,21.706-65.94,45.32-79.781,61.307-79.781v11.076c-17.179,0-35.69,26.304-50.787,72.167-13.557,41.183-22.315,92.934-22.315,131.842,0,23.748,4.007,47.71,12.959,47.71v11.076Z"/>
      <path class="cls-8" d="m414.53,418.042c-10.965,0-24.035-10.199-24.035-58.787,0-39.987,8.978-93.098,22.872-135.305,21.706-65.94,45.32-79.781,61.307-79.781v11.076c-17.179,0-35.69,26.304-50.787,72.167-13.557,41.183-22.315,92.934-22.315,131.842,0,23.748,4.007,47.71,12.959,47.71v11.076Z"/>
      <path class="cls-8" d="m493.759,418.042c-10.965,0-24.035-10.199-24.035-58.787,0-39.987,8.978-93.098,22.872-135.305,21.706-65.94,45.32-79.781,61.307-79.781v11.076c-17.179,0-35.69,26.304-50.787,72.167-13.557,41.183-22.315,92.934-22.315,131.842,0,23.748,4.007,47.71,12.959,47.71v11.076Z"/>
      <path class="cls-8" d="m572.988,418.042c-10.965,0-24.035-10.199-24.035-58.787,0-39.987,8.978-93.098,22.872-135.305,21.706-65.94,45.32-79.781,61.307-79.781v11.076c-17.179,0-35.69,26.304-50.787,72.167-13.557,41.183-22.315,92.934-22.315,131.842,0,23.748,4.007,47.71,12.959,47.71v11.076Z"/>
      <path class="cls-8" d="m652.217,418.042c-10.965,0-24.035-10.199-24.035-58.787,0-39.987,8.978-93.098,22.872-135.305,21.706-65.94,45.32-79.781,61.307-79.781v11.076c-17.179,0-35.69,26.304-50.787,72.167-13.557,41.183-22.315,92.934-22.315,131.842,0,23.748,4.007,47.71,12.959,47.71v11.076Z"/>
      <path class="cls-8" d="m731.447,418.042c-10.965,0-24.035-10.199-24.035-58.787,0-39.987,8.978-93.098,22.872-135.305,21.706-65.94,45.32-79.781,61.307-79.781v11.076c-17.179,0-35.69,26.304-50.787,72.167-13.557,41.183-22.315,92.934-22.315,131.842,0,23.748,4.007,47.71,12.959,47.71v11.076Z"/>
      <path class="cls-8" d="m810.676,418.042c-10.965,0-24.035-10.199-24.035-58.787,0-39.987,8.978-93.098,22.872-135.305,21.706-65.94,45.32-79.781,61.307-79.781v11.076c-17.179,0-35.69,26.304-50.787,72.167-13.557,41.183-22.315,92.934-22.315,131.842,0,23.748,4.007,47.71,12.959,47.71v11.076Z"/>
      <path class="cls-8" d="m191.368,464.936l-11.053-.717c.029-.436,1.945-56.205,1.066-106.304-.1-5.715-.37-12.759-.682-20.914-2.105-54.933-5.628-146.873,26.429-180.181,8.078-8.394,17.947-12.65,29.332-12.65v11.076c-8.375,0-15.358,3.027-21.352,9.255-28.788,29.913-25.245,122.392-23.341,172.077.315,8.217.586,15.313.689,21.143.887,50.576-1.059,106.776-1.088,107.216Z"/>
      <g>
        <line class="cls-2" x1="223.231" y1="484.698" x2="223.231" y2="508.624"/>
        <polygon class="cls-7" points="215.253 506.29 223.231 520.106 231.21 506.29 215.253 506.29"/>
      </g>
      <g>
        <g>
          <path class="cls-2" d="m581.083,246.343c194.801-.797,358.272-21.896,412.099-59.251,12.219-8.48,18.815-17.793,18.815-27.901"/>
          <polygon class="cls-7" points="583.523 254.158 569.601 246.366 583.309 238.203 583.523 254.158"/>
        </g>
        <g>
          <path class="cls-2" d="m123.119,170.331c2.901,5.673,8.022,11.058,15.156,16.145,53.944,38.473,223.544,59.889,424.454,59.889"/>
          <polygon class="cls-7" points="116.482 174.673 120.333 159.191 131.818 170.265 116.482 174.673"/>
        </g>
        <g>
          <path class="cls-2" d="m551.247,54.175c-239.022,1.383-430.914,45.838-430.914,100.475"/>
          <polygon class="cls-7" points="548.822 46.323 562.729 54.142 549.005 62.278 548.822 46.323"/>
        </g>
        <g>
          <path class="cls-2" d="m1009.299,143.486c-24.446-50.255-211.979-89.344-439.698-89.344"/>
          <polygon class="cls-7" points="1016.005 139.207 1011.997 154.65 1000.626 143.46 1016.005 139.207"/>
        </g>
        <g>
          <path class="cls-2" d="m81.573,265.032c110.754,26.739,283.559,40.883,477.72,40.883"/>
          <polygon class="cls-7" points="81.984 273.255 70.436 262.246 85.743 257.747 81.984 273.255"/>
        </g>
        <g>
          <path class="cls-2" d="m97.879,244.002c100.663,28.105,269.76,43.035,461.414,43.035"/>
          <polygon class="cls-7" points="97.988 252.223 86.861 240.79 102.326 236.868 97.988 252.223"/>
        </g>
        <g>
          <path class="cls-2" d="m117.982,220.362c86.541,30.22,251.727,46.367,441.311,46.367"/>
          <polygon class="cls-7" points="117.52 228.553 107.219 216.37 122.92 213.538 117.52 228.553"/>
        </g>
        <g>
          <path class="cls-2" d="m581.086,305.898c138.482-.4,265.588-8.044,366.358-22.362"/>
          <polygon class="cls-7" points="583.471 313.799 569.601 305.915 583.363 297.844 583.471 313.799"/>
        </g>
        <g>
          <path class="cls-2" d="m581.087,287.019c137.802-.431,263.357-8.636,359.354-23.955"/>
          <polygon class="cls-7" points="583.475 294.914 569.601 287.037 583.359 278.958 583.475 294.914"/>
        </g>
        <g>
          <path class="cls-2" d="m581.083,266.709c137.915-.477,262.2-9.568,351.623-26.462"/>
          <polygon class="cls-7" points="583.481 274.595 569.601 266.728 583.353 258.639 583.481 274.595"/>
        </g>
        <g>
          <path class="cls-2" d="m963.313,281.032c36.789-5.523,69.845-11.968,98.393-19.308"/>
          <polygon class="cls-7" points="966.815 288.487 951.951 282.691 964.401 272.715 966.815 288.487"/>
        </g>
        <g>
          <path class="cls-2" d="m956.277,260.354c33.94-5.759,63.903-12.449,89.066-20.04"/>
          <polygon class="cls-7" points="959.918 267.733 944.947 262.219 957.207 252.009 959.918 267.733"/>
        </g>
        <g>
          <path class="cls-2" d="m948.48,237.194c30.206-6.138,56.042-13.226,76.598-21.229"/>
          <polygon class="cls-7" points="952.352 244.436 937.212 239.402 949.14 228.806 952.352 244.436"/>
        </g>
      </g>
      <g>
        <g>
          <path class="cls-2" d="m581.083,385.786c194.801.772,358.272,21.212,412.099,57.4,12.219,8.215,18.815,17.237,18.815,27.029"/>
          <polygon class="cls-7" points="583.312 393.921 569.601 385.763 583.52 377.966 583.312 393.921"/>
        </g>
        <g>
          <path class="cls-2" d="m123.286,459.112c2.928-5.382,7.99-10.494,14.99-15.33,53.944-37.271,223.544-58.018,424.454-58.018"/>
          <polygon class="cls-7" points="132.003 459.336 120.333 470.215 116.745 454.669 132.003 459.336"/>
        </g>
        <g>
          <path class="cls-1" d="m549.952,595.146c-238.419-1.843-429.619-55.102-429.619-120.532"/>
          <polygon class="cls-7" points="547.477 586.106 562.729 595.195 547.233 603.861 547.477 586.106"/>
        </g>
        <g>
          <path class="cls-1" d="m1009.628,487.168c-23.036,60.696-211.252,108.027-440.027,108.027"/>
          <polygon class="cls-7" points="1000.042 487.74 1011.997 474.614 1017.39 491.53 1000.042 487.74"/>
        </g>
        <g>
          <path class="cls-2" d="m81.593,367.676c110.755-25.9,283.551-39.601,477.7-39.601"/>
          <polygon class="cls-7" points="85.71 374.988 70.436 370.379 82.063 359.454 85.71 374.988"/>
        </g>
        <g>
          <path class="cls-2" d="m97.906,388.046c100.667-27.222,269.751-41.683,461.387-41.683"/>
          <polygon class="cls-7" points="102.293 395.214 86.861 391.166 98.081 379.824 102.293 395.214"/>
        </g>
        <g>
          <path class="cls-2" d="m118.022,410.942c86.552-29.267,251.716-44.904,441.271-44.904"/>
          <polygon class="cls-7" points="122.891 417.811 107.219 414.823 117.641 402.743 122.891 417.811"/>
        </g>
        <g>
          <path class="cls-2" d="m581.086,328.091c138.482.388,265.588,7.793,366.358,21.663"/>
          <polygon class="cls-7" points="583.365 336.144 569.601 328.075 583.469 320.188 583.365 336.144"/>
        </g>
        <g>
          <path class="cls-2" d="m581.087,346.381c137.802.418,263.357,8.366,359.354,23.206"/>
          <polygon class="cls-7" points="583.361 354.439 569.601 346.363 583.474 338.483 583.361 354.439"/>
        </g>
        <g>
          <path class="cls-2" d="m581.083,366.056c137.915.462,262.2,9.269,351.623,25.635"/>
          <polygon class="cls-7" points="583.355 374.123 569.601 366.037 583.479 358.167 583.355 374.123"/>
        </g>
        <g>
          <path class="cls-2" d="m963.32,352.182c36.786,5.35,69.839,11.594,98.385,18.704"/>
          <polygon class="cls-7" points="964.448 360.491 951.951 350.573 966.788 344.708 964.448 360.491"/>
        </g>
        <g>
          <path class="cls-2" d="m956.286,372.214c33.936,5.579,63.896,12.059,89.057,19.412"/>
          <polygon class="cls-7" points="957.26 380.552 944.947 370.406 959.889 364.814 957.26 380.552"/>
        </g>
        <g>
          <path class="cls-2" d="m948.493,394.652c30.201,5.946,56.032,12.812,76.586,20.563"/>
          <polygon class="cls-7" points="949.205 403.032 937.212 392.51 952.32 387.383 949.205 403.032"/>
        </g>
      </g>
      <path class="cls-8" d="m916.817,462.924l11.053-.717c-.029-.436-2.85-54.193-1.972-104.292.1-5.715.37-12.759.682-20.914,2.105-54.933,5.628-146.873-26.429-180.181-8.078-8.394-17.947-12.65-29.332-12.65v11.076c8.375,0,15.358,3.027,21.352,9.255,28.788,29.913,25.245,122.392,23.341,172.077-.315,8.217-.586,15.313-.689,21.143-.887,50.576,1.965,104.763,1.994,105.204Z"/>
      <circle class="cls-8" cx="923.942" cy="478.475" r="23.705"/>
      <g id="sph4u_03.02.45b">
        <path class="cls-3" d="m926.284,475.803h7.051v5.098h-7.051v7.969h-5.371v-7.969h-7.07v-5.098h7.07v-7.637h5.371v7.637Z"/>
      </g>
      <g>
        <path class="cls-8" d="m256.071,418.042v-11.076c5.714,0,11.548-9.802,15.604-26.22,4.31-17.438,6.683-42.272,6.683-69.923,0-82.877-19.579-155.576-41.898-155.576v-11.076c17.233,0,30.913,19.174,40.659,56.988,7.827,30.365,12.316,70.336,12.316,109.665,0,28.935-2.423,54.032-7.006,72.581-5.679,22.984-14.547,34.639-26.358,34.639Z"/>
        <g>
          <path class="cls-4" d="m264.451,198.829c1.485,1.156,1.916,2.777,2.518,4.3,1.165,3.076,1.995,6.277,2.471,9.531.25,1.62.556,3.253-.064,4.972l-.269.034c-1.054-1.493-1.222-3.069-1.612-4.628-.377-1.556-.76-3.108-1.182-4.65-.377-1.554-.824-3.088-1.244-4.633-.414-1.556-1.08-2.988-.867-4.815l.248-.11h0Z"/>
          <path class="cls-4" d="m271.928,183.512c1.438.726,1.814,2.04,2.354,3.21,1.284,2.972,2.082,6.131,2.501,9.331.026.65-.029,1.317-.313,2.023l-.266.053c-1.08-1.077-1.281-2.312-1.647-3.52-.649-2.111-1.519-5.11-2.15-7.191-.353-1.209-.929-2.261-.713-3.767l.233-.139h0Z"/>
          <path class="cls-11" d="m261.765,412.723c6.192-3.213,10.538-13.807,12.804-20.218.539-1.693,1.446-4.185,1.846-5.891,0,0,1.592-5.977,1.592-5.977l1.287-6.062c.35-1.506.922-4.563,1.141-6.094,1.065-5.688,1.945-12.696,2.669-18.436,1.262-10.319,1.568-20.655,3.122-30.981,0,0,.271.011.271.011.392,8.184-.046,16.792-.792,24.967-.597,8.06-1.703,16.846-3.076,24.827-.503,3.467-1.791,8.817-2.524,12.28-.597,2.049-1.881,7.113-2.618,9.055-2.364,6.91-5.104,14.095-10.225,19.484-1.579,1.428-3.284,2.869-5.451,3.304l-.045-.268h0Z"/>
        </g>
      </g>
      <g>
        <path class="cls-8" d="m335.3,418.042v-11.076c5.714,0,11.548-9.802,15.604-26.22,4.31-17.438,6.683-42.272,6.683-69.923,0-82.877-19.579-155.576-41.898-155.576v-11.076c17.233,0,30.913,19.174,40.659,56.988,7.827,30.365,12.316,70.336,12.316,109.665,0,28.935-2.423,54.032-7.006,72.581-5.679,22.984-14.547,34.639-26.358,34.639Z"/>
        <g>
          <path class="cls-4" d="m343.681,198.829c1.485,1.156,1.916,2.777,2.518,4.3,1.165,3.076,1.995,6.277,2.471,9.531.25,1.62.556,3.253-.064,4.972l-.269.034c-1.054-1.493-1.222-3.069-1.612-4.628-.377-1.556-.76-3.108-1.182-4.65-.377-1.554-.824-3.088-1.244-4.633-.414-1.556-1.08-2.988-.867-4.815l.248-.11h0Z"/>
          <path class="cls-4" d="m351.157,183.512c1.438.726,1.814,2.04,2.354,3.21,1.284,2.972,2.082,6.131,2.501,9.331.026.65-.029,1.317-.313,2.023l-.266.053c-1.08-1.077-1.281-2.312-1.647-3.52-.649-2.111-1.519-5.11-2.15-7.191-.353-1.209-.929-2.261-.713-3.767l.233-.139h0Z"/>
          <path class="cls-11" d="m340.994,412.723c6.192-3.213,10.538-13.807,12.804-20.218.539-1.693,1.446-4.185,1.846-5.891,0,0,1.592-5.977,1.592-5.977l1.287-6.062c.35-1.506.922-4.563,1.141-6.094,1.065-5.688,1.945-12.696,2.669-18.436,1.262-10.319,1.568-20.655,3.122-30.981,0,0,.271.011.271.011.392,8.184-.046,16.792-.792,24.967-.597,8.06-1.703,16.846-3.076,24.827-.503,3.467-1.791,8.817-2.524,12.28-.597,2.049-1.881,7.113-2.618,9.055-2.364,6.91-5.104,14.095-10.225,19.484-1.579,1.428-3.284,2.869-5.451,3.304l-.045-.268h0Z"/>
        </g>
      </g>
      <g>
        <path class="cls-8" d="m414.53,418.042v-11.076c5.714,0,11.548-9.802,15.604-26.22,4.31-17.438,6.683-42.272,6.683-69.923,0-82.877-19.579-155.576-41.898-155.576v-11.076c17.233,0,30.913,19.174,40.659,56.988,7.827,30.365,12.316,70.336,12.316,109.665,0,28.935-2.423,54.032-7.006,72.581-5.679,22.984-14.547,34.639-26.358,34.639Z"/>
        <g>
          <path class="cls-4" d="m422.91,198.829c1.485,1.156,1.916,2.777,2.518,4.3,1.165,3.076,1.995,6.277,2.471,9.531.25,1.62.556,3.253-.064,4.972l-.269.034c-1.054-1.493-1.222-3.069-1.612-4.628-.377-1.556-.76-3.108-1.182-4.65-.377-1.554-.824-3.088-1.244-4.633-.414-1.556-1.079-2.988-.867-4.815l.248-.11h0Z"/>
          <path class="cls-4" d="m430.386,183.512c1.438.726,1.814,2.04,2.354,3.21,1.284,2.972,2.082,6.131,2.501,9.331.026.65-.029,1.317-.313,2.023l-.266.053c-1.08-1.077-1.281-2.312-1.647-3.52-.649-2.111-1.519-5.11-2.15-7.191-.353-1.209-.929-2.261-.713-3.767l.233-.139h0Z"/>
          <path class="cls-11" d="m420.223,412.723c6.192-3.213,10.538-13.807,12.804-20.218.539-1.693,1.446-4.185,1.846-5.891,0,0,1.592-5.977,1.592-5.977l1.287-6.062c.35-1.506.922-4.563,1.141-6.094,1.065-5.688,1.945-12.696,2.669-18.436,1.262-10.319,1.568-20.655,3.122-30.981,0,0,.271.011.271.011.392,8.184-.046,16.792-.792,24.967-.597,8.06-1.703,16.846-3.076,24.827-.503,3.467-1.791,8.817-2.524,12.28-.597,2.049-1.881,7.113-2.618,9.055-2.364,6.91-5.104,14.095-10.225,19.484-1.579,1.428-3.284,2.869-5.451,3.304l-.045-.268h0Z"/>
        </g>
      </g>
      <g>
        <path class="cls-8" d="m493.759,418.042v-11.076c5.714,0,11.548-9.802,15.604-26.22,4.31-17.438,6.683-42.272,6.683-69.923,0-82.877-19.579-155.576-41.898-155.576v-11.076c17.233,0,30.913,19.174,40.659,56.988,7.827,30.365,12.316,70.336,12.316,109.665,0,28.935-2.423,54.032-7.006,72.581-5.679,22.984-14.547,34.639-26.358,34.639Z"/>
        <g>
          <path class="cls-4" d="m502.139,198.829c1.485,1.156,1.916,2.777,2.518,4.3,1.165,3.076,1.995,6.277,2.471,9.531.25,1.62.556,3.253-.064,4.972l-.269.034c-1.054-1.493-1.222-3.069-1.611-4.628-.377-1.556-.76-3.108-1.182-4.65-.377-1.554-.824-3.088-1.244-4.633-.414-1.556-1.079-2.988-.867-4.815l.248-.11h0Z"/>
          <path class="cls-4" d="m509.615,183.512c1.438.726,1.814,2.04,2.354,3.21,1.284,2.972,2.082,6.131,2.501,9.331.026.65-.029,1.317-.313,2.023l-.266.053c-1.08-1.077-1.281-2.312-1.647-3.52-.649-2.111-1.518-5.11-2.15-7.191-.353-1.209-.929-2.261-.713-3.767l.233-.139h0Z"/>
          <path class="cls-11" d="m499.453,412.723c6.192-3.213,10.538-13.807,12.804-20.218.539-1.693,1.446-4.185,1.846-5.891,0,0,1.592-5.977,1.592-5.977l1.287-6.062c.35-1.506.923-4.563,1.141-6.094,1.065-5.688,1.945-12.696,2.669-18.436,1.262-10.319,1.568-20.655,3.122-30.981,0,0,.271.011.271.011.392,8.184-.046,16.792-.792,24.967-.597,8.06-1.703,16.846-3.076,24.827-.503,3.467-1.791,8.817-2.523,12.28-.597,2.049-1.881,7.113-2.618,9.055-2.364,6.91-5.104,14.095-10.225,19.484-1.579,1.428-3.284,2.869-5.451,3.304l-.045-.268h0Z"/>
        </g>
      </g>
      <g>
        <path class="cls-8" d="m572.988,418.042v-11.076c5.714,0,11.548-9.802,15.604-26.22,4.31-17.438,6.683-42.272,6.683-69.923,0-82.877-19.579-155.576-41.898-155.576v-11.076c17.233,0,30.913,19.174,40.659,56.988,7.827,30.365,12.316,70.336,12.316,109.665,0,28.935-2.423,54.032-7.006,72.581-5.679,22.984-14.547,34.639-26.358,34.639Z"/>
        <g>
          <path class="cls-4" d="m581.369,198.829c1.485,1.156,1.916,2.777,2.518,4.3,1.165,3.076,1.995,6.277,2.471,9.531.25,1.62.556,3.253-.064,4.972l-.269.034c-1.054-1.493-1.222-3.069-1.612-4.628-.377-1.556-.76-3.108-1.182-4.65-.377-1.554-.824-3.088-1.244-4.633-.414-1.556-1.08-2.988-.867-4.815l.248-.11h0Z"/>
          <path class="cls-4" d="m588.845,183.512c1.438.726,1.814,2.04,2.354,3.21,1.285,2.972,2.082,6.131,2.501,9.331.026.65-.029,1.317-.313,2.023l-.266.053c-1.08-1.077-1.281-2.312-1.647-3.52-.649-2.111-1.519-5.11-2.15-7.191-.353-1.209-.929-2.261-.713-3.767l.233-.139h0Z"/>
          <path class="cls-11" d="m578.682,412.723c6.192-3.212,10.538-13.807,12.804-20.218.539-1.693,1.446-4.185,1.846-5.891,0,0,1.593-5.977,1.593-5.977l1.287-6.062c.35-1.506.922-4.563,1.141-6.094,1.065-5.688,1.945-12.696,2.669-18.436,1.262-10.319,1.568-20.655,3.122-30.981,0,0,.271.011.271.011.392,8.184-.046,16.792-.792,24.967-.597,8.06-1.703,16.846-3.076,24.827-.503,3.467-1.791,8.817-2.523,12.28-.597,2.049-1.881,7.113-2.618,9.055-2.364,6.91-5.104,14.095-10.225,19.484-1.579,1.428-3.284,2.869-5.451,3.304l-.045-.268h0Z"/>
        </g>
      </g>
      <g>
        <path class="cls-8" d="m652.217,418.042v-11.076c5.714,0,11.548-9.802,15.604-26.22,4.31-17.438,6.683-42.272,6.683-69.923,0-82.877-19.579-155.576-41.898-155.576v-11.076c17.233,0,30.913,19.174,40.659,56.988,7.827,30.365,12.316,70.336,12.316,109.665,0,28.935-2.423,54.032-7.006,72.581-5.679,22.984-14.547,34.639-26.358,34.639Z"/>
        <g>
          <path class="cls-4" d="m660.598,198.829c1.485,1.156,1.916,2.777,2.518,4.3,1.165,3.076,1.995,6.277,2.471,9.531.25,1.62.556,3.253-.064,4.972l-.269.034c-1.054-1.493-1.222-3.069-1.611-4.628-.377-1.556-.76-3.108-1.182-4.65-.377-1.554-.824-3.088-1.244-4.633-.414-1.556-1.079-2.988-.867-4.815l.248-.11h0Z"/>
          <path class="cls-4" d="m668.074,183.512c1.438.726,1.814,2.04,2.354,3.21,1.284,2.972,2.082,6.131,2.501,9.331.026.65-.029,1.317-.313,2.023l-.266.053c-1.08-1.077-1.281-2.312-1.647-3.52-.649-2.111-1.518-5.11-2.15-7.191-.353-1.209-.929-2.261-.713-3.767l.233-.139h0Z"/>
          <path class="cls-11" d="m657.911,412.723c6.192-3.212,10.538-13.808,12.804-20.218.539-1.693,1.446-4.185,1.846-5.891,0,0,1.592-5.977,1.592-5.977l1.287-6.062c.35-1.506.922-4.563,1.141-6.094,1.065-5.688,1.945-12.696,2.669-18.436,1.262-10.319,1.568-20.655,3.122-30.981,0,0,.271.011.271.011.392,8.184-.046,16.792-.792,24.967-.597,8.06-1.703,16.846-3.076,24.827-.503,3.467-1.791,8.817-2.523,12.28-.597,2.049-1.881,7.113-2.618,9.055-2.364,6.91-5.104,14.095-10.225,19.484-1.579,1.428-3.284,2.869-5.451,3.304l-.045-.268h0Z"/>
        </g>
      </g>
      <g>
        <path class="cls-8" d="m731.447,418.042v-11.076c5.714,0,11.548-9.802,15.604-26.22,4.31-17.438,6.683-42.272,6.683-69.923,0-82.877-19.579-155.576-41.898-155.576v-11.076c17.233,0,30.913,19.174,40.659,56.988,7.827,30.365,12.316,70.336,12.316,109.665,0,28.935-2.423,54.032-7.006,72.581-5.679,22.984-14.547,34.639-26.358,34.639Z"/>
        <g>
          <path class="cls-4" d="m739.827,198.829c1.485,1.156,1.916,2.777,2.518,4.3,1.165,3.076,1.995,6.277,2.471,9.531.25,1.62.556,3.253-.064,4.972l-.269.034c-1.054-1.493-1.222-3.069-1.612-4.628-.377-1.556-.76-3.108-1.182-4.65-.377-1.554-.824-3.088-1.244-4.633-.414-1.556-1.08-2.988-.867-4.815l.248-.11h0Z"/>
          <path class="cls-4" d="m747.303,183.512c1.438.726,1.814,2.04,2.354,3.21,1.284,2.972,2.082,6.131,2.501,9.331.026.65-.029,1.317-.313,2.023l-.266.053c-1.08-1.077-1.281-2.312-1.647-3.52-.649-2.111-1.519-5.11-2.15-7.191-.353-1.209-.929-2.261-.713-3.767l.233-.139h0Z"/>
          <path class="cls-11" d="m737.141,412.723c6.192-3.213,10.539-13.807,12.804-20.218.539-1.693,1.446-4.185,1.846-5.891,0,0,1.593-5.977,1.593-5.977l1.287-6.062c.35-1.506.922-4.563,1.141-6.094,1.065-5.688,1.945-12.696,2.669-18.436,1.262-10.319,1.568-20.655,3.122-30.981,0,0,.271.011.271.011.392,8.184-.046,16.792-.792,24.967-.597,8.06-1.703,16.846-3.076,24.827-.503,3.467-1.791,8.817-2.524,12.28-.597,2.049-1.881,7.113-2.618,9.055-2.364,6.91-5.104,14.095-10.225,19.484-1.579,1.428-3.284,2.869-5.451,3.304l-.045-.268h0Z"/>
        </g>
      </g>
      <g>
        <path class="cls-8" d="m810.676,418.042v-11.076c5.714,0,11.548-9.802,15.604-26.22,4.31-17.438,6.683-42.272,6.683-69.923,0-82.877-19.579-155.576-41.898-155.576v-11.076c17.233,0,30.913,19.174,40.659,56.988,7.827,30.365,12.316,70.336,12.316,109.665,0,28.935-2.423,54.032-7.006,72.581-5.679,22.984-14.547,34.639-26.358,34.639Z"/>
        <g>
          <path class="cls-4" d="m819.057,198.829c1.485,1.156,1.916,2.777,2.518,4.3,1.165,3.076,1.995,6.277,2.471,9.531.25,1.62.556,3.253-.064,4.972l-.269.034c-1.054-1.493-1.222-3.069-1.611-4.628-.377-1.556-.76-3.108-1.182-4.65-.377-1.554-.824-3.088-1.244-4.633-.414-1.556-1.079-2.988-.867-4.815l.248-.11h0Z"/>
          <path class="cls-4" d="m826.533,183.512c1.438.726,1.814,2.04,2.354,3.21,1.284,2.972,2.082,6.131,2.501,9.331.026.65-.029,1.317-.313,2.023l-.266.053c-1.08-1.077-1.281-2.312-1.647-3.52-.649-2.111-1.518-5.11-2.15-7.191-.353-1.209-.929-2.261-.713-3.767l.233-.139h0Z"/>
          <path class="cls-11" d="m816.37,412.723c6.192-3.213,10.538-13.807,12.804-20.218.539-1.693,1.446-4.185,1.846-5.891,0,0,1.592-5.977,1.592-5.977l1.287-6.062c.35-1.506.922-4.563,1.141-6.094,1.065-5.688,1.945-12.696,2.669-18.436,1.262-10.319,1.568-20.655,3.122-30.981,0,0,.271.011.271.011.392,8.184-.046,16.792-.792,24.967-.597,8.06-1.703,16.846-3.076,24.827-.503,3.467-1.79,8.817-2.523,12.28-.597,2.049-1.881,7.113-2.618,9.055-2.364,6.91-5.104,14.095-10.225,19.484-1.579,1.428-3.284,2.869-5.451,3.304l-.045-.268h0Z"/>
        </g>
      </g>
    </g>
    <g>
      <circle class="cls-6" cx="120.333" cy="315.451" r="30"/>
      <circle class="cls-8" cx="185.841" cy="478.475" r="23.705"/>
      <path class="cls-3" d="m226.063,474.253h-8.736l.192-.96c.874,0,1.53-.074,1.968-.224.437-.149.763-.453.976-.912s.416-1.157.608-2.097l2.624-12.607c.191-.832.282-1.488.271-1.968-.011-.48-.208-.816-.592-1.009-.384-.191-1.066-.288-2.048-.288l.192-.96h8.863l-.191.96c-.939,0-1.644.097-2.112.288-.47.192-.8.528-.992,1.009-.191.479-.373,1.136-.544,1.968l-2.624,12.735c-.171.918-.234,1.601-.191,2.049.042.447.261.735.655.863s1.019.192,1.872.192l-.191.96Z"/>
      <g>
        <line class="cls-2" x1="883.201" y1="475.442" x2="883.201" y2="451.516"/>
        <polygon class="cls-7" points="891.18 453.851 883.201 440.034 875.223 453.851 891.18 453.851"/>
      </g>
      <path class="cls-3" d="m880.363,485.888h8.736l-.192.96c-.874,0-1.53.074-1.968.224-.437.149-.763.453-.976.912s-.416,1.157-.608,2.097l-2.624,12.607c-.191.832-.282,1.488-.271,1.968.011.48.208.816.592,1.009.384.191,1.066.288,2.048.288l-.192.96h-8.863l.191-.96c.939,0,1.644-.097,2.112-.288.47-.192.8-.528.992-1.009.191-.479.373-1.136.544-1.968l2.624-12.735c.171-.918.234-1.601.191-2.049-.042-.447-.261-.735-.655-.863s-1.019-.192-1.872-.192l.191-.96Z"/>
      <path class="cls-9" d="m128.44,325.507h-4.102l-7.984-13.098v13.098h-4.102v-19.906h4.102l7.998,13.125v-13.125h4.088v19.906Z"/>
    </g>
    <g>
      <circle class="cls-5" cx="1006.828" cy="315.451" r="30"/>
      <path class="cls-9" d="m1010.349,320.285c0-.774-.273-1.369-.82-1.784s-1.531-.853-2.953-1.312-2.548-.914-3.377-1.36c-2.261-1.222-3.391-2.866-3.391-4.936,0-1.075.303-2.035.909-2.878.605-.843,1.477-1.502,2.611-1.976s2.408-.711,3.821-.711c1.422,0,2.688.258,3.801.772,1.111.515,1.976,1.242,2.591,2.181s.923,2.005.923,3.199h-4.102c0-.911-.287-1.62-.861-2.126s-1.381-.759-2.42-.759c-1.003,0-1.782.212-2.338.636-.557.424-.834.982-.834,1.675,0,.647.325,1.189.978,1.627.651.438,1.61.848,2.878,1.23,2.333.702,4.033,1.572,5.1,2.611s1.6,2.333,1.6,3.883c0,1.723-.652,3.074-1.955,4.054-1.304.979-3.059,1.47-5.264,1.47-1.531,0-2.926-.28-4.184-.841s-2.218-1.328-2.878-2.304c-.661-.976-.991-2.105-.991-3.391h4.115c0,2.196,1.312,3.295,3.938,3.295.975,0,1.736-.198,2.283-.595s.82-.95.82-1.661Z"/>
    </g>
    <path class="cls-3" d="m194.454,480.786h-16.855v-4.609h16.855v4.609Z"/>
  </g>
</svg>