<?xml version="1.0" encoding="UTF-8"?><svg id="a" xmlns="http://www.w3.org/2000/svg" width="570" height="321" xmlns:xlink="http://www.w3.org/1999/xlink" viewBox="0 0 570 321"><defs><style>.l,.m,.n,.o{fill:none;}.m{stroke:#c64518;}.m,.n{stroke-width:6px;}.m,.n,.o{stroke-miterlimit:10;}.n{stroke:#00000a;}.p{fill:#faa61a;}.q{fill:#f9c319;}.r,.s{fill:#00000a;}.t{fill:#e3f6fc;}.u{fill:#802523;}.v{fill:#67998f;}.w{fill:#bcc1bf;}.x{fill:#c64518;}.y{fill:#e0611d;}.z{fill:#1e393f;}.aa{fill:#455663;}.ab{fill:#79d9cf;}.ac,.ad,.ae{fill:#547b89;}.o{stroke:#3c8875;stroke-width:4px;}.af,.ad,.ag,.s{opacity:.5;}.ah{clip-path:url(#j);}.ag{fill:#fff;}.ai{fill:#e9f2e9;opacity:.8;}.ae{opacity:.7;}</style><clipPath id="j"><path id="k" class="l" d="m9.726,184.239C-18.488,119.478,33.211-10.448,153.849,13.189c267.676,52.447,337.69-66.06,401.25,52.323,33.51,62.412-28.88,194.886-165.441,232.558-107.016,29.522-315.228,34.687-379.932-113.83Z"/></clipPath></defs><path id="b" class="t" d="m9.442,184.296C-18.772,119.535,32.927-10.391,153.565,13.246c267.676,52.447,337.69-66.06,401.25,52.323,33.51,62.412-28.88,194.886-165.441,232.558-107.016,29.522-315.228,34.687-379.932-113.83Z"/><path class="ag" d="m297.791,313.369c26.613-34.802,59.47-72.974,99.623-111.593,57.216-55.03,113.699-96.015,162.06-126.157-1.215-3.534-2.663-6.917-4.376-10.107-7.928-14.766-15.957-25.846-24.457-34.032-80.542,30.989-206.438,66.104-359.419,55.06-53.605-3.87-101.737-12.772-143.517-23.559-5.628,8.319-12.388,20.12-17.564,35.243-4.209,12.297-6.759,24.908-7.616,37.13,41.963,66.569,142.695,145.417,191.652,174.313,34.747,5.421,70.336,6.1,103.613,3.704Z"/><g id="c"><path class="q" d="m450.653,194.124L301.073,12.793c-3.315-4.017-8.205-6.322-13.414-6.322-2.579,0-5.173.589-7.503,1.704l-89.889,43.031c-4.611,2.207-8.002,6.308-9.304,11.251-.81,3.074-2.895,15.41,2.552,23.942l140.374,206.692c3.25,4.659,8.584,7.44,14.266,7.44,3.303,0,6.524-.938,9.316-2.712l99.094-62.96c4.205-2.672,7.065-7.026,7.846-11.946.558-3.514-.588-24.946-3.758-28.79Z"/><path class="q" d="m339.756,282.108c-5.683,0-11.016-2.781-14.266-7.44L184.602,73.573c-2.924-4.193-3.855-9.432-2.552-14.375s3.607-5.785,8.218-7.992l89.889-43.031c2.329-1.115,4.924-1.704,7.503-1.704,5.21,0,10.1,2.304,13.414,6.322l149.58,181.331c3.17,3.844,4.54,8.87,3.758,13.79-.781,4.92-3.641,9.274-7.846,11.946l-97.493,59.535c-2.791,1.774-6.013,2.712-9.316,2.712Z"/><path class="p" d="m454.556,207.937c-.637,5.467-4.214,10.461-9.013,13.171,0,0-2.749,1.735-2.749,1.735-30.733,19.484-63.037,38.975-94.119,58.06-8.131,4.728-19.404,1.885-24.418-6.018-18.997-26.905-69.962-99.899-89.47-127.848-16.022-22.92-32.398-46.332-48.096-69.508,0,0-1.822-2.693-1.822-2.693-3.304-4.409-4.582-10.411-2.961-15.675,0,0,.284.075.284.075-1.259,5.3.117,10.849,3.507,15.021,0,0,1.909,2.632,1.909,2.632,16.437,22.676,32.823,46.055,48.904,68.943,19.83,28.192,70.581,100.395,89.606,127.753,4.449,7.033,14.281,9.54,21.497,5.398,29.277-17.773,59.576-36.411,88.967-53.816,2.786-1.722,8.482-4.853,11.104-6.667,3.396-2.522,5.777-6.383,6.581-10.609l.29.046h0Z"/><path class="z" d="m196.193,56.873l89.888-43.031c3.603-1.725,7.918-.772,10.46,2.309l149.58,181.33c3.326,4.032,2.368,10.066-2.044,12.869l-99.094,62.96c-3.93,2.497-9.129,1.454-11.792-2.364L192.817,69.688c-3.068-4.399-1.461-10.499,3.377-12.814Z"/><g id="d"><path class="ad" d="m301.837,173.749c-12.298-5.744-20.651-16.972-20.651-29.883,0-18.755,17.625-33.958,39.366-33.958,12.714,0,24.02,5.199,31.217,13.267"/><path class="r" d="m351.711,113.5c18.341,12.179,21.328,37.012,7.186,53.628-19.616,24.089-63.627,21.739-78.614-6.162-1.579-2.993-2.635-6.226-3.285-9.498l.285-.07c1.611,4.682,3.818,9.104,6.971,12.897,17.379,22.299,54.678,22.918,72.904,1.374,8.586-9.794,11.057-24.187,5.812-36.204-2.496-6.052-6.584-11.321-11.44-15.733,0,0,.18-.232.18-.232h0Z"/><path class="r" d="m275.987,143.115c-.928-7.796,1.917-15.683,6.64-21.863.44-.715,1.334-1.603,1.872-2.26,1.043-1.341,2.911-2.961,4.152-4.147.848-.604,2.666-2.107,3.504-2.661,9.27-6.355,20.731-9.049,31.878-8.528,7.633.265,15.753,1.522,22.069,6.121,0,0-.144.256-.144.256-3.524-1.471-7.135-2.465-10.808-3.144-12.79-2.313-26.577-1.227-38.106,5.069-2.344,1.277-4.795,3.003-6.903,4.662,0,0-2.053,1.868-2.053,1.868-4.102,3.761-7.149,8.551-9.152,13.724-1.331,3.474-2.042,7.12-2.655,10.904h-.294Z"/><path class="r" d="m360.066,143.866c-.608,33.339-43.42,44.851-66.996,25.731-17.384-13.707-17.376-37.747.004-51.457,23.646-19.135,66.252-7.587,66.991,25.726h0Zm-.294,0c.076-14.711-12.107-26.396-25.376-30.694-13.296-4.447-28.964-2.11-39.91,6.727-16.076,12.744-16.068,35.181.005,47.928,14.663,11.881,37.439,11.799,52.265.176,7.525-5.632,13.087-14.495,13.016-24.137h0Z"/><path class="r" d="m297.216,171.214l49.358-52.831,5.044,4.633s-17.319,26.26-49.779,50.732l-4.623-2.535Z"/><g class="af"><path class="ac" d="m351.212,123.831c-1.859,5.601-5.413,10.308-8.898,14.915-3.534,4.604-7.427,8.914-11.485,13.053-4.082,3.991-8.493,7.987-12.996,11.526-4.491,3.628-9.216,7.082-14.425,9.616,0,0-.165-.243-.165-.243,2.083-2.049,4.329-3.831,6.561-5.627,6.709-5.271,13.298-10.933,19.319-16.976,6.039-6.071,11.707-12.524,16.682-19.496,1.688-2.301,3.385-4.594,5.144-6.896l.264.129h0Z"/></g><circle class="ab" cx="271.486" cy="152.915" r="2.83"/><circle class="ab" cx="270.475" cy="138.603" r="2.83"/><circle class="ab" cx="274.316" cy="125.78" r="2.83"/><circle class="ab" cx="280.944" cy="115.554" r="2.83"/><circle class="ab" cx="292.634" cy="105.345" r="2.83"/><circle class="ab" cx="308.274" cy="99.686" r="2.83"/><circle class="ab" cx="323.359" cy="97.942" r="2.83"/><circle class="ab" cx="340.894" cy="102.333" r="2.83"/><circle class="ab" cx="353.91" cy="109.894" r="2.83"/><path class="r" d="m343.805,116.537c-9.089,8.164-19.03,15.148-27.649,23.807-7.068,6.712-13.737,14.221-19.12,22.357-1.375,1.843-2.417,3.825-3.822,5.682,0,0-.267-.121-.267-.121,5.043-15.484,22.873-31.664,35.438-41.718,4.831-3.763,9.638-7.617,15.257-10.25l.163.244h0Z"/><path class="s" d="m292.634,167.805s6.541,5.082,7.421,3.397c19.707-37.763,44.419-54.787,44.419-54.787,0,0-32.771,18.641-51.839,51.39Z"/></g><g id="e"><g class="af"><path class="ac" d="m224.736,115.425c14.474-9.738,36.939-21.307,52.265-30.128,0,0,26.454-14.483,26.454-14.483,8.835-4.796,17.598-9.724,26.837-13.791l.142.257c-14.506,9.686-36.931,21.325-52.265,30.128,0,0-26.449,14.492-26.449,14.492-8.847,4.775-17.568,9.778-26.842,13.782l-.142-.257h0Z"/></g><path class="r" d="m207.446,65.059c13.017-7.971,27.082-13.847,40.689-20.692,6.869-3.266,13.736-6.538,20.632-9.748,6.893-3.217,13.721-6.569,20.974-9.034l.127.265c-13.047,7.919-27.077,13.863-40.689,20.692-6.868,3.269-13.731,6.547-20.627,9.757-6.903,3.195-13.694,6.624-20.978,9.025l-.127-.265h0Z"/><path class="ai" d="m212.361,73.976l12.811,19.422c1.51,1.992,4.243,2.592,6.448,1.415l75.283-40.679c2.77-1.478,3.552-5.088,1.643-7.58l-13.773-15.476c-1.484-1.938-4.136-2.548-6.318-1.454l-74.32,36.733c-2.844,1.426-3.695,5.083-1.773,7.619Z"/><g id="f"><g id="g"><path class="v" d="m253.873,63.307c-1.325-.052-1.771-.833-2.415-1.449-.627-.63-1.225-1.285-1.79-1.966-.564-.682-1.085-1.401-1.591-2.131-.503-.733-1.121-1.371-.982-2.636l.226-.187c1.269.099,1.781.825,2.407,1.455.624.633,1.233,1.278,1.798,1.96.564.682,1.096,1.392,1.599,2.125.485.748,1.17,1.33.974,2.642l-.226.187h0Z"/><path class="v" d="m261.876,73.371c-1.325-.052-1.771-.833-2.415-1.449-.627-.63-1.225-1.285-1.79-1.966-.564-.682-1.085-1.401-1.591-2.131-.503-.733-1.121-1.371-.982-2.636l.226-.187c1.269.099,1.78.825,2.407,1.455.624.633,1.233,1.278,1.798,1.96.565.682,1.096,1.392,1.599,2.125.485.748,1.17,1.33.974,2.642l-.226.187h0Z"/><path class="v" d="m262.577,58.911c-1.325-.052-1.771-.833-2.415-1.449-.627-.63-1.225-1.285-1.79-1.966-.564-.682-1.085-1.401-1.591-2.131-.503-.733-1.121-1.371-.982-2.636l.226-.187c1.269.099,1.78.825,2.407,1.455.624.633,1.233,1.278,1.798,1.96.565.682,1.096,1.392,1.599,2.125.485.748,1.17,1.33.974,2.642l-.226.187h0Z"/><path class="v" d="m270.547,68.286c-1.325-.052-1.771-.833-2.415-1.449-.627-.63-1.225-1.285-1.79-1.966-.564-.682-1.085-1.401-1.591-2.131-.503-.733-1.121-1.371-.982-2.636l.226-.187c1.269.099,1.78.825,2.407,1.455.624.633,1.233,1.278,1.798,1.96.565.682,1.096,1.392,1.599,2.125.485.748,1.17,1.33.974,2.642l-.226.187h0Z"/><path class="v" d="m256.485,50.725c-.339,1.26-1.174,1.49-1.897,1.952-.733.442-1.482.851-2.249,1.221-.768.369-1.56.687-2.361.988-.802.298-1.54.73-2.705.276l-.127-.265c.371-1.194,1.169-1.501,1.902-1.943.734-.439,1.477-.86,2.245-1.231.768-.369,1.554-.7,2.357-.997.812-.277,1.513-.787,2.709-.267l.127.265h0Z"/><path class="v" d="m271.209,68.284c-.339,1.26-1.174,1.49-1.897,1.952-.733.442-1.482.851-2.249,1.221-.768.369-1.561.687-2.361.988-.802.298-1.54.73-2.705.276l-.127-.265c.371-1.194,1.169-1.501,1.902-1.943.734-.439,1.477-.86,2.245-1.231.768-.369,1.554-.7,2.357-.997.812-.277,1.513-.787,2.709-.267l.127.265h0Z"/></g><g id="h"><path class="v" d="m270.838,54.708c-1.325-.052-1.771-.833-2.415-1.449-.627-.63-1.225-1.285-1.79-1.966-.564-.682-1.085-1.401-1.591-2.131-.503-.733-1.121-1.371-.982-2.636l.226-.187c1.269.099,1.78.825,2.407,1.455.624.633,1.233,1.278,1.798,1.96.565.682,1.096,1.392,1.599,2.125.485.748,1.17,1.33.974,2.642l-.226.187h0Z"/><path class="v" d="m278.841,64.772c-1.325-.052-1.771-.833-2.415-1.449-.627-.63-1.225-1.285-1.79-1.966-.564-.682-1.085-1.401-1.591-2.131-.503-.733-1.121-1.371-.982-2.636l.226-.187c1.269.099,1.78.825,2.407,1.455.624.633,1.233,1.278,1.798,1.96.565.682,1.096,1.392,1.599,2.125.485.748,1.17,1.33.974,2.642l-.226.187h0Z"/><path class="v" d="m279.541,50.312c-1.325-.052-1.771-.833-2.415-1.449-.627-.63-1.225-1.285-1.79-1.966-.564-.682-1.085-1.401-1.591-2.131-.503-.733-1.121-1.371-.982-2.636l.226-.187c1.269.099,1.78.825,2.407,1.455.624.633,1.233,1.278,1.798,1.96.565.682,1.096,1.392,1.599,2.125.485.748,1.17,1.33.974,2.642l-.226.187h0Z"/><path class="v" d="m287.512,59.686c-1.325-.052-1.771-.833-2.415-1.449-.627-.63-1.225-1.285-1.79-1.966-.564-.682-1.085-1.401-1.591-2.131-.503-.733-1.121-1.371-.982-2.636l.226-.187c1.269.099,1.78.825,2.407,1.455.624.633,1.233,1.278,1.798,1.96.565.682,1.096,1.392,1.599,2.125.485.748,1.17,1.33.974,2.642l-.226.187h0Z"/><path class="v" d="m273.45,42.126c-.339,1.26-1.174,1.49-1.897,1.952-.733.442-1.482.851-2.249,1.221-.768.369-1.561.687-2.361.988-.802.298-1.54.73-2.705.276l-.127-.265c.371-1.194,1.169-1.501,1.902-1.943.734-.439,1.477-.86,2.245-1.231.768-.369,1.554-.7,2.357-.997.812-.277,1.513-.787,2.709-.267l.127.265h0Z"/><path class="v" d="m288.173,59.685c-.339,1.26-1.174,1.49-1.897,1.952-.733.442-1.482.851-2.249,1.221-.768.369-1.561.687-2.361.988-.802.298-1.54.73-2.705.276l-.127-.265c.371-1.194,1.169-1.501,1.902-1.943.734-.439,1.477-.86,2.245-1.231.768-.369,1.554-.7,2.357-.997.812-.277,1.513-.787,2.709-.267l.127.265h0Z"/></g><g id="i"><path class="v" d="m287.331,46.468c-1.325-.052-1.771-.833-2.415-1.449-.627-.63-1.225-1.285-1.79-1.966-.564-.682-1.085-1.401-1.591-2.131-.503-.733-1.121-1.371-.982-2.636l.226-.187c1.269.099,1.781.825,2.407,1.455.624.633,1.233,1.278,1.798,1.96.564.682,1.096,1.392,1.599,2.125.485.748,1.17,1.33.974,2.642l-.226.187h0Z"/><path class="v" d="m295.334,56.532c-1.325-.052-1.771-.833-2.415-1.449-.627-.63-1.225-1.285-1.79-1.966-.564-.682-1.085-1.401-1.591-2.131-.503-.733-1.121-1.371-.982-2.636l.226-.187c1.269.099,1.78.825,2.407,1.455.624.633,1.233,1.278,1.798,1.96.565.682,1.096,1.392,1.599,2.125.485.748,1.17,1.33.974,2.642l-.226.187h0Z"/><path class="v" d="m296.035,42.072c-1.325-.052-1.771-.833-2.415-1.449-.627-.63-1.225-1.285-1.79-1.966-.564-.682-1.085-1.401-1.591-2.131-.503-.733-1.121-1.371-.982-2.636l.226-.187c1.269.099,1.78.825,2.407,1.455.624.633,1.233,1.278,1.798,1.96.565.682,1.096,1.392,1.599,2.125.485.748,1.17,1.33.974,2.642l-.226.187h0Z"/><path class="v" d="m304.005,51.447c-1.325-.052-1.771-.833-2.415-1.449-.627-.63-1.225-1.285-1.79-1.966-.564-.682-1.085-1.401-1.591-2.131-.503-.733-1.121-1.371-.982-2.636l.226-.187c1.269.099,1.78.825,2.407,1.455.624.633,1.233,1.278,1.798,1.96.565.682,1.096,1.392,1.599,2.125.485.748,1.17,1.33.974,2.642l-.226.187h0Z"/><path class="v" d="m289.943,33.887c-.339,1.26-1.174,1.49-1.897,1.952-.733.442-1.482.851-2.249,1.221-.768.369-1.56.687-2.361.988-.802.298-1.54.73-2.705.276l-.127-.265c.371-1.194,1.169-1.501,1.902-1.943.734-.439,1.477-.86,2.245-1.231.768-.369,1.554-.7,2.357-.997.812-.277,1.513-.787,2.709-.267l.127.265h0Z"/><path class="v" d="m304.667,51.446c-.339,1.26-1.174,1.49-1.897,1.952-.733.442-1.482.851-2.249,1.221-.768.369-1.561.687-2.361.988-.802.298-1.54.73-2.705.276l-.127-.265c.371-1.194,1.169-1.501,1.902-1.943.734-.439,1.477-.86,2.245-1.231.768-.369,1.554-.7,2.357-.997.812-.277,1.513-.787,2.709-.267l.127.265h0Z"/></g><ellipse class="v" cx="274.578" cy="67.125" rx="1.521" ry="1.307" transform="translate(-4.586 22.782) rotate(-4.712)"/></g></g><path class="r" d="m377.249,150.595c-.191,4.517-1.316,8.789,2.84,11.792,2.47,1.769,5.655,2.733,8.708,2.509,2.569-.3,4.75-1.459,7.055-2.727,0,0,.23.183.23.183-.575,1.357-1.635,2.425-2.872,3.202-6.229,3.755-16.667.586-18.145-6.983-.474-2.846-.088-5.988,1.95-8.121.065-.079.173-.134.234-.148v.294h0Z"/><path class="r" d="m395.967,147.51c0-3.851-3.122-6.974-6.974-6.974s-6.974,3.122-6.974,6.974c0,.595-2.173,4.876-2.173,6.974,0,3.851,3.122,6.974,6.974,6.974s5.819-3.299,6.974-6.974c.284-.904,2.173-4.876,2.173-6.974Z"/><ellipse class="ae" cx="389.048" cy="147.462" rx="6.918" ry="6.926"/><line class="o" x1="421.213" y1="219.137" x2="428.005" y2="214.888"/><line class="o" x1="403.313" y1="230.335" x2="410.898" y2="225.59"/><line class="o" x1="378.04" y1="246.146" x2="403.313" y2="230.335"/><line class="o" x1="359.072" y1="258.012" x2="368.961" y2="251.825"/><line class="o" x1="346.826" y1="224.237" x2="356.714" y2="218.051"/><line class="o" x1="377.186" y1="207.651" x2="387.075" y2="201.464"/><g class="ah"><path class="m" d="m421.233,235.935c9.096,12.128,15.042,18.049,14.324,32.847-2.598,53.56-74.804,80.748-119.318,81.411-44.87.669-85.376-9.449-110.139-48.033-1.757-2.738-3.397-5.551-4.915-8.428-10.751-20.375-14.805-43.507-22.086-65.364-4.971-14.924-11.596-29.514-21.59-41.66-9.652-11.731-25.513-23.805-41.247-24.934"/><rect class="x" x="385.078" y="203.886" width="19.875" height="24.256" rx="1.654" ry="1.654" transform="translate(-53.313 257.258) rotate(-33.928)"/><ellipse class="u" cx="393.766" cy="218.051" rx="5.41" ry="6.658" transform="translate(-55.805 196.054) rotate(-26.175)"/><path class="y" d="m407.891,222.69l1.892-1.273c1.491-1.003,3.527-5.875,3.527-5.875,1.761-1.184,2.228-3.572,1.043-5.332l-9.25-13.751c-1.184-1.761-3.572-2.228-5.332-1.043l-6.456,4.343c-1.491,1.003-3.527,5.875-3.527,5.875-1.761,1.184-2.228,3.572-1.043,5.332l9.25,13.751c1.184,1.761,3.572,2.228,5.332,1.043l2.031-1.367c-.438,1.132-.34,2.451.389,3.534l7.101,10.447c1.184,1.761,3.572,2.228,5.332,1.043l7.587-5.234c.65-.448,1.022-1.237.858-2.01-1.528-7.227-14.807-9.089-18.735-9.483Z"/><path class="y" d="m415.037,216.607l-8.436,3.449c-1.62,1.09-3.818.66-4.908-.96l-9.591-14.258c-1.09-1.62-.66-3.818.96-4.908l6.963-4.684c1.62-1.09,3.818-.66,4.908.96l9.591,14.258c1.09,1.62,2.133,5.053.512,6.143Z"/><path class="y" d="m423.469,231.706l-5.061,3.404c-1.62,1.09-3.818.66-4.908-.96l-5.842-8.685c-1.09-1.62-.66-3.818.96-4.908l5.061-3.404c1.62-1.09,3.212-2.286,4.908.96l5.842,8.685c1.09,1.62.66,3.818-.96,4.908Z"/><path class="u" d="m415.741,215.837c-2.15,2.509-4.863,4.1-7.494,5.885,0,0-.438.293-.438.293-2.608,1.976-5.818-.273-7.278-2.505-1.576-2.331-3.126-4.678-4.623-7.062-1.479-2.396-3.178-4.643-3.928-7.529,0,0,.244-.164.244-.164,2.391,1.782,3.832,4.204,5.493,6.476,1.643,2.285,3.234,4.606,4.798,6.944.61.984,1.528,1.821,2.569,2.205.73.252.997.159,1.531-.191.294-.169,1.053-.646,1.355-.823,2.405-1.467,4.78-2.986,7.613-3.778l.158.248h0Z"/><path class="u" d="m425.113,229.152c-1.711,2.513-4.002,4.368-6.274,6.305-1.835,1.412-4.696,1.133-6.201-.66-2.078-2.775-3.889-5.734-5.754-8.629-.992-1.31-2.435-4.533.14-5.146,0,0,.164.244.164.244-.229.395-.335.753-.278,1.019,1.089,2.421,3.244,4.58,4.685,6.871.811,1.117,2.073,3.01,2.827,4.094.718.883,2.127,1.153,3.159.512.742-.586,2.349-1.876,3.442-2.624,1.218-.84,2.485-1.62,3.905-2.213l.186.227h0Z"/><path class="y" d="m64.977,159.364c.163,2.263.199,5.252.199,7.41,0,1.603,1.191,2.955,2.779,3.167l27.063,3.609c.456.061.92.023,1.36-.112l17.376-5.284c1.265-.387,2.911-2.72,3.007-4.04l.608-2.48c.113-1.562-.919-2.976-2.441-3.345l-19.987-3.581c-.299-.072-.608-.101-.915-.086l-26.018,1.313c-1.796.091-3.16,1.635-3.032,3.429Z"/><path class="w" d="m56.343,157.036c.754-.95,1.973-1.778,3.125-1.245.484.296.941.972,1.436,1.132.493.176,1.012-.002,1.542-.341,1.441-.938,3.149-1.237,4.564-.15.482.332.954.796,1.41,1.481l-.029.399c-1.729,2.017-4.18,2.249-6.103.455-.476-.411-.964-.663-1.477-.56-.512.087-1.062.689-1.584.912-1.22.361-2.301-.634-2.913-1.683,0,0,.029-.399.029-.399h0Z"/><path class="y" d="m66.266,156.62c.163,2.263.199,5.252.199,7.41,0,1.603,1.191,2.955,2.779,3.167l27.063,3.609c.456.061.92.023,1.36-.112l17.378-5.312c1.265-.387,2.162-1.512,2.258-2.831l.195-2.684c.113-1.562-.919-2.976-2.441-3.345l-18.827-4.558c-.299-.072-.608-.101-.915-.086l-26.018,1.313c-1.796.091-3.16,1.635-3.032,3.429Z"/><path class="u" d="m66.555,159.664c.333,1.121.626,2.214.796,3.404.033.887.389,1.791,1.147,2.279.597.496,2.085.444,2.816.551,5.651.51,11.399,1.079,17.03,1.68,0,0,6.799.781,6.799.781.469.039,1.244.206,1.696.071.92-.211,3.655-.791,4.602-.997,4.472-.955,8.918-2.044,13.571-2.193l.066.286c-5.849,2.556-12.123,3.666-18.232,5.23-.628.105-1.373-.037-1.982-.087,0,0-6.809-.699-6.809-.699-5.626-.623-11.365-1.304-16.989-2.02,0,0-1.698-.211-1.698-.211-2.206-.239-3.849-2.459-3.425-4.632.102-1.091.117-2.266.318-3.423l.293-.019h0Z"/><path class="n" d="m392.328,253.319c18.996,20.087,51.153,65.426,16.022,87.007-9.158,5.626-20.283,7.203-31.028,6.949-22.378-.53-44.241-9.139-61.616-23.126-19.695-15.855-28.105-38.61-43.497-57.891-14.775-18.508-32.249-34.997-52.504-47.385-36.5-22.323-83.309-30.24-122.891-13.997"/><rect class="w" x="355.588" y="220.942" width="19.875" height="24.256" rx="2.43" ry="2.43" transform="translate(-67.853 243.702) rotate(-33.928)"/><ellipse class="r" cx="364.482" cy="234.27" rx="5.41" ry="6.658" transform="translate(-65.962 184.8) rotate(-26.175)"/><path class="aa" d="m389.739,235.22c-1.999-2.151-5.447-2.825-5.447-2.825,1.761-1.184,2.228-3.572,1.043-5.332l-9.25-13.75c-1.184-1.761-3.572-2.228-5.332-1.043l-6.456,4.343c-1.491,1.003-3.527,5.875-3.527,5.875-1.761,1.184-2.228,3.572-1.043,5.332l9.25,13.751c1.184,1.761,3.572,2.228,5.332,1.043l2.031-1.367c-.438,1.132-.34,2.451.389,3.534l7.101,10.447c1.184,1.761,3.572,2.228,5.332,1.043l6.733-4.645c.621-.429,1.061-1.105,1.103-1.858.319-5.825-7.259-14.547-7.259-14.547Z"/><rect class="aa" x="366.562" y="212.376" width="15.465" height="24.256" rx="3.536" ry="3.536" transform="translate(-61.579 247.138) rotate(-33.928)"/><path class="aa" d="m392.531,249.85l-2.888,1.943c-1.761,1.184-4.148.717-5.332-1.043l-5.501-8.177c-1.184-1.761-.717-4.148,1.043-5.332l4.553-3.063c1.761-1.184,4.148-.717,5.332,1.043.943,1.105,1.936,2.382,2.922,3.839,1.035,1.53,1.884,2.996,2.579,4.338.107.158.545.836-.04,2.823-.436,1.482-1.387,2.767-2.669,3.629Z"/><path class="r" d="m384.628,232.347c-1.601,2.267-3.84,3.586-5.935,5.12-.538.412-1.348.926-2.091,1.071-2.068.557-4.293-.656-5.283-2.456,0,0-.548-.803-.548-.803-1.427-2.167-2.858-4.33-4.233-6.532-1.381-2.197-2.886-4.311-3.576-6.974l.244-.164c2.206,1.642,3.597,3.833,5.111,5.941,1.7,2.369,3.371,4.77,4.992,7.193.835,1.663,2.644,2.149,4.176.927,2.21-1.362,4.276-2.939,6.979-3.567l.164.244h0Z"/><path class="r" d="m395.341,246.262c.28,1.595-1.252,3.837-2.13,4.321,0,0-1.803,1.774-1.803,1.774l-.04.04-.091.064c-1.954,1.431-4.912,1.109-6.504-.744-.737-.894-1.081-1.513-1.673-2.388-1.503-2.282-3.04-4.659-4.482-7.022-.988-1.548-1.814-4.86.551-5.627,0,0,.164.244.164.244-.963,1.575.281,2.959,1.019,4.338,0,0,3.164,4.462,3.164,4.462l3.036,4.418c.815.987,2.39,1.238,3.525.535l-.131.103,1.906-1.663c1.246-.797,2.242-1.715,3.207-2.938,0,0,.282.083.282.083h0Z"/><path class="aa" d="m51.318,220.845c1.022,2.025,2.208,4.77,3.04,6.761.618,1.479,2.237,2.268,3.785,1.851l26.363-7.1c.444-.12.857-.334,1.212-.627l13.997-11.573c1.018-.845,1.638-3.632,1.217-4.886l-.395-2.523c-.497-1.485-1.229-4.549-4.104-3.825l-18.05,2.878c-.304.048-3.034.961-3.312,1.094l-23.224,11.431c-1.622.776-1.34,4.916-.53,6.521Z"/><path class="w" d="m51.149,217.092c-1.363-.039-2.503.837-3.268,2.072-.349.547-.753.93-1.279.946-.521.033-1.221-.467-1.789-.575-1.296-.096-2.083,1.289-2.364,2.474,0,0,.138.412.138.412.941.777,2.397,1.41,3.377.551.389-.428.646-1.249,1.082-1.536.43-.304.983-.243,1.591-.016,1.68.695,3.156.389,4.194-.645l-1.681-3.683Z"/><path class="aa" d="m51.45,217.817c1.022,2.025,2.208,4.77,3.04,6.761.618,1.479,2.237,2.268,3.785,1.851l26.363-7.1c.444-.12.857-.334,1.212-.627l13.988-11.6c1.018-.845,1.413-2.228.993-3.483l-.855-2.551c-.497-1.485-1.995-2.392-3.541-2.145l-19.129,3.05c-.304.048-.6.141-.878.273l-23.501,11.239c-1.622.776-2.286,2.727-1.476,4.333Z"/><path class="r" d="m52.978,220.708c.693.952,1.289,1.953,1.872,2.961.503,1.231,1.733,2.2,3.079,1.809,0,0,1.609-.506,1.609-.506,5.452-1.753,11.017-3.492,16.485-5.157,1.068-.331,7.157-2.08,8.097-2.407.896-.511,3.127-2.261,4.009-2.86,14.614-10.753,16.01-9.574,1.319,1.691,0,0-2.726,2.112-2.726,2.112-.522.373-1.004.858-1.621,1.141-1.164.478-7.103,2.205-8.415,2.642-5.474,1.635-11.075,3.263-16.583,4.816-2.842,1.142-5.722.528-6.525-2.743-.33-1.105-.648-2.218-.868-3.379l.268-.12h0Z"/></g></g></svg>