<?xml version="1.0" encoding="UTF-8"?>
<svg id="Layer_2" data-name="Layer 2" xmlns="http://www.w3.org/2000/svg" viewBox="0 0 1140 730.633">
  <defs>
    <style>
      .cls-1 {
        fill: #fff;
      }

      .cls-1, .cls-2 {
        stroke: #000;
        stroke-miterlimit: 10;
        stroke-width: 2px;
      }

      .cls-2 {
        fill: none;
      }

      .cls-3, .cls-4, .cls-5, .cls-6 {
        stroke-width: 0px;
      }

      .cls-4 {
        fill: #ded3ea;
      }

      .cls-5 {
        fill: #d12d32;
      }

      .cls-6 {
        fill: #969696;
      }
    </style>
  </defs>
  <path class="cls-4" d="M1138.278,382.564c-9.726,371.115-349.742,322.225-615.857,322.225S41.763,681.186,9.688,465.511C-40.274,129.564,144.076-21.168,408.104,35.063c175.865,37.455,344.657-58.126,502.658-25.75,133.797,27.416,233.071,161.318,227.516,373.251Z"/>
  <g>
    <ellipse class="cls-2" cx="417.082" cy="349.536" rx="57.373" ry="290.258"/>
    <polygon class="cls-3" points="367.687 347.202 359.709 361.018 351.731 347.202 367.687 347.202"/>
  </g>
  <g>
    <ellipse class="cls-2" cx="277.141" cy="349.536" rx="57.373" ry="290.258"/>
    <polygon class="cls-3" points="342.492 347.202 334.514 361.018 326.536 347.202 342.492 347.202"/>
  </g>
  <g>
    <g>
      <rect class="cls-5" x="195.923" y="94.795" width="102.406" height="255.388" transform="translate(494.245 444.986) rotate(-179.998)"/>
      <rect class="cls-6" x="195.926" y="348.827" width="102.406" height="255.388" transform="translate(494.243 953.049) rotate(-179.998)"/>
    </g>
    <g>
      <rect class="cls-5" x="401.475" y="94.795" width="102.406" height="255.388" transform="translate(905.35 444.993) rotate(-179.998)"/>
      <rect class="cls-6" x="401.478" y="348.827" width="102.406" height="255.388" transform="translate(905.348 953.055) rotate(-179.998)"/>
    </g>
  </g>
  <g>
    <rect class="cls-1" x="217.177" y="523.86" width="59.874" height="61.389" rx="29.937" ry="29.937"/>
    <path class="cls-3" d="M249.575,559.513c0-.774-.273-1.369-.82-1.784s-1.531-.853-2.953-1.312-2.548-.914-3.377-1.36c-2.261-1.222-3.391-2.866-3.391-4.936,0-1.075.303-2.035.909-2.878.606-.843,1.477-1.502,2.611-1.976s2.408-.711,3.821-.711c1.422,0,2.688.258,3.801.772,1.112.515,1.976,1.242,2.591,2.181s.923,2.005.923,3.199h-4.102c0-.911-.287-1.62-.861-2.126s-1.381-.759-2.42-.759c-1.003,0-1.782.212-2.338.636-.556.424-.834.982-.834,1.675,0,.647.326,1.189.978,1.627.651.438,1.611.848,2.878,1.23,2.333.702,4.033,1.572,5.1,2.611s1.6,2.333,1.6,3.883c0,1.723-.652,3.074-1.955,4.054-1.304.979-3.058,1.47-5.264,1.47-1.531,0-2.926-.28-4.184-.841s-2.217-1.328-2.878-2.304c-.661-.976-.991-2.105-.991-3.391h4.115c0,2.196,1.312,3.295,3.938,3.295.975,0,1.736-.198,2.283-.595s.82-.95.82-1.661Z"/>
  </g>
  <g>
    <circle class="cls-1" cx="247.141" cy="135.576" r="30"/>
    <path class="cls-3" d="M254.937,145.757h-4.102l-7.984-13.098v13.098h-4.102v-19.906h4.102l7.998,13.125v-13.125h4.088v19.906Z"/>
  </g>
  <g>
    <rect class="cls-1" x="422.729" y="523.86" width="59.874" height="61.389" rx="29.937" ry="29.937"/>
    <path class="cls-3" d="M455.127,559.513c0-.774-.273-1.369-.82-1.784s-1.531-.853-2.953-1.312-2.548-.914-3.377-1.36c-2.261-1.222-3.391-2.866-3.391-4.936,0-1.075.303-2.035.909-2.878.606-.843,1.477-1.502,2.611-1.976s2.408-.711,3.821-.711c1.422,0,2.688.258,3.801.772,1.112.515,1.976,1.242,2.591,2.181s.923,2.005.923,3.199h-4.102c0-.911-.287-1.62-.861-2.126s-1.381-.759-2.42-.759c-1.003,0-1.782.212-2.338.636-.556.424-.834.982-.834,1.675,0,.647.326,1.189.978,1.627.651.438,1.611.848,2.878,1.23,2.333.702,4.033,1.572,5.1,2.611s1.6,2.333,1.6,3.883c0,1.723-.652,3.074-1.955,4.054-1.304.979-3.058,1.47-5.264,1.47-1.531,0-2.926-.28-4.184-.841s-2.217-1.328-2.878-2.304c-.661-.976-.991-2.105-.991-3.391h4.115c0,2.196,1.312,3.295,3.938,3.295.975,0,1.736-.198,2.283-.595s.82-.95.82-1.661Z"/>
  </g>
  <g>
    <circle class="cls-1" cx="452.694" cy="135.576" r="30"/>
    <path class="cls-3" d="M460.489,145.757h-4.102l-7.984-13.098v13.098h-4.102v-19.906h4.102l7.998,13.125v-13.125h4.088v19.906Z"/>
  </g>
  <g>
    <path class="cls-3" d="M329.836,660.565h-4.008v6.902h-2.262v-17.062h5.648c1.922,0,3.4.438,4.436,1.312s1.553,2.148,1.553,3.82c0,1.062-.287,1.988-.861,2.777s-1.373,1.379-2.396,1.77l4.008,7.242v.141h-2.414l-3.703-6.902ZM325.828,658.725h3.457c1.117,0,2.006-.289,2.666-.869.66-.579.99-1.354.99-2.324,0-1.057-.314-1.866-.943-2.43s-1.537-.85-2.725-.857h-3.445v6.48Z"/>
    <path class="cls-3" d="M343.277,667.702c-1.719,0-3.117-.564-4.195-1.693s-1.617-2.639-1.617-4.529v-.398c0-1.258.24-2.381.721-3.369s1.152-1.762,2.016-2.32,1.799-.838,2.807-.838c1.648,0,2.93.543,3.844,1.629s1.371,2.641,1.371,4.664v.902h-8.59c.031,1.25.396,2.26,1.096,3.029s1.588,1.154,2.666,1.154c.766,0,1.414-.156,1.945-.469s.996-.727,1.395-1.242l1.324,1.031c-1.062,1.633-2.656,2.449-4.781,2.449ZM343.008,656.335c-.875,0-1.609.318-2.203.955s-.961,1.529-1.102,2.678h6.352v-.164c-.062-1.102-.359-1.955-.891-2.561s-1.25-.908-2.156-.908Z"/>
    <path class="cls-3" d="M361.441,661.268c0,1.93-.441,3.484-1.324,4.664s-2.078,1.77-3.586,1.77c-1.539,0-2.75-.488-3.633-1.465v6.105h-2.168v-17.555h1.98l.105,1.406c.883-1.094,2.109-1.641,3.68-1.641,1.523,0,2.729.574,3.615,1.723s1.33,2.746,1.33,4.793v.199ZM359.273,661.022c0-1.43-.305-2.559-.914-3.387s-1.445-1.242-2.508-1.242c-1.312,0-2.297.582-2.953,1.746v6.059c.648,1.156,1.641,1.734,2.977,1.734,1.039,0,1.865-.412,2.479-1.236s.92-2.049.92-3.674Z"/>
    <path class="cls-3" d="M369.457,667.702c-1.719,0-3.117-.564-4.195-1.693s-1.617-2.639-1.617-4.529v-.398c0-1.258.24-2.381.721-3.369s1.152-1.762,2.016-2.32,1.799-.838,2.807-.838c1.648,0,2.93.543,3.844,1.629s1.371,2.641,1.371,4.664v.902h-8.59c.031,1.25.396,2.26,1.096,3.029s1.588,1.154,2.666,1.154c.766,0,1.414-.156,1.945-.469s.996-.727,1.395-1.242l1.324,1.031c-1.062,1.633-2.656,2.449-4.781,2.449ZM369.188,656.335c-.875,0-1.609.318-2.203.955s-.961,1.529-1.102,2.678h6.352v-.164c-.062-1.102-.359-1.955-.891-2.561s-1.25-.908-2.156-.908Z"/>
    <path class="cls-3" d="M379.266,667.467h-2.168v-18h2.168v18Z"/>
  </g>
  <g>
    <ellipse class="cls-2" cx="872.959" cy="349.536" rx="57.373" ry="290.258"/>
    <polygon class="cls-3" points="807.608 351.87 815.586 338.054 823.565 351.87 807.608 351.87"/>
  </g>
  <g>
    <ellipse class="cls-2" cx="729.845" cy="349.536" rx="57.373" ry="290.258"/>
    <polygon class="cls-3" points="795.196 347.202 787.218 361.018 779.24 347.202 795.196 347.202"/>
  </g>
  <g>
    <g>
      <rect class="cls-5" x="648.627" y="94.795" width="102.406" height="255.388" transform="translate(1399.653 445) rotate(-179.998)"/>
      <rect class="cls-6" x="648.63" y="348.827" width="102.406" height="255.388" transform="translate(1399.651 953.063) rotate(-179.998)"/>
    </g>
    <g>
      <rect class="cls-5" x="854.181" y="348.827" width="102.406" height="255.388"/>
      <rect class="cls-6" x="854.181" y="94.795" width="102.406" height="255.388"/>
    </g>
  </g>
  <g>
    <rect class="cls-1" x="669.881" y="523.86" width="59.874" height="61.389" rx="29.937" ry="29.937"/>
    <path class="cls-3" d="M702.279,559.513c0-.774-.273-1.369-.82-1.784s-1.531-.853-2.953-1.312-2.548-.914-3.377-1.36c-2.261-1.222-3.391-2.866-3.391-4.936,0-1.075.303-2.035.909-2.878.605-.843,1.477-1.502,2.611-1.976s2.408-.711,3.821-.711c1.422,0,2.688.258,3.801.772,1.111.515,1.976,1.242,2.591,2.181s.923,2.005.923,3.199h-4.102c0-.911-.287-1.62-.861-2.126s-1.381-.759-2.42-.759c-1.003,0-1.782.212-2.338.636-.557.424-.834.982-.834,1.675,0,.647.325,1.189.978,1.627.651.438,1.61.848,2.878,1.23,2.333.702,4.033,1.572,5.1,2.611s1.6,2.333,1.6,3.883c0,1.723-.652,3.074-1.955,4.054-1.304.979-3.059,1.47-5.264,1.47-1.531,0-2.926-.28-4.184-.841s-2.218-1.328-2.878-2.304c-.661-.976-.991-2.105-.991-3.391h4.115c0,2.196,1.312,3.295,3.938,3.295.975,0,1.736-.198,2.283-.595s.82-.95.82-1.661Z"/>
  </g>
  <g>
    <circle class="cls-1" cx="699.845" cy="135.576" r="30"/>
    <path class="cls-3" d="M707.641,145.757h-4.102l-7.984-13.098v13.098h-4.102v-19.906h4.102l7.998,13.125v-13.125h4.088v19.906Z"/>
  </g>
  <g>
    <rect class="cls-1" x="875.433" y="523.86" width="59.874" height="61.389" rx="29.937" ry="29.937"/>
    <path class="cls-3" d="M912.418,564.736h-4.102l-7.984-13.098v13.098h-4.102v-19.906h4.102l7.998,13.125v-13.125h4.088v19.906Z"/>
  </g>
  <g>
    <circle class="cls-1" cx="905.398" cy="135.576" r="30"/>
    <path class="cls-3" d="M908.606,140.535c0-.774-.273-1.369-.82-1.784s-1.531-.853-2.953-1.312-2.548-.914-3.377-1.36c-2.261-1.222-3.391-2.866-3.391-4.936,0-1.075.303-2.035.909-2.878.605-.843,1.477-1.502,2.611-1.976s2.408-.711,3.821-.711c1.422,0,2.688.258,3.801.772,1.111.515,1.976,1.242,2.591,2.181s.923,2.005.923,3.199h-4.102c0-.911-.287-1.62-.861-2.126s-1.381-.759-2.42-.759c-1.003,0-1.782.212-2.338.636-.557.424-.834.982-.834,1.675,0,.647.325,1.189.978,1.627.651.438,1.61.848,2.878,1.23,2.333.702,4.033,1.572,5.1,2.611s1.6,2.333,1.6,3.883c0,1.723-.652,3.074-1.955,4.054-1.304.979-3.059,1.47-5.264,1.47-1.531,0-2.926-.28-4.184-.841s-2.218-1.328-2.878-2.304c-.661-.976-.991-2.105-.991-3.391h4.115c0,2.196,1.312,3.295,3.938,3.295.975,0,1.736-.198,2.283-.595s.82-.95.82-1.661Z"/>
  </g>
  <g>
    <path class="cls-3" d="M781.7,663.003h-7.148l-1.605,4.465h-2.32l6.516-17.062h1.969l6.527,17.062h-2.309l-1.629-4.465ZM775.231,661.163h5.801l-2.906-7.98-2.895,7.98Z"/>
    <path class="cls-3" d="M790.337,651.717v3.07h2.367v1.676h-2.367v7.873c0,.509.105.89.316,1.145.211.254.57.381,1.078.381.25,0,.594-.047,1.031-.141v1.748c-.57.154-1.125.232-1.664.232-.969,0-1.699-.293-2.191-.879s-.738-1.418-.738-2.496v-7.863h-2.309v-1.676h2.309v-3.07h2.168Z"/>
    <path class="cls-3" d="M798.177,651.717v3.07h2.367v1.676h-2.367v7.873c0,.509.105.89.316,1.145.211.254.57.381,1.078.381.25,0,.594-.047,1.031-.141v1.748c-.57.154-1.125.232-1.664.232-.969,0-1.699-.293-2.191-.879s-.738-1.418-.738-2.496v-7.863h-2.309v-1.676h2.309v-3.07h2.168Z"/>
    <path class="cls-3" d="M809.204,656.733c-.328-.055-.684-.082-1.066-.082-1.422,0-2.387.605-2.895,1.816v9h-2.168v-12.68h2.109l.035,1.465c.711-1.133,1.719-1.699,3.023-1.699.422,0,.742.055.961.164v2.016Z"/>
    <path class="cls-3" d="M818.556,667.467c-.125-.25-.227-.695-.305-1.336-1.008,1.047-2.211,1.57-3.609,1.57-1.25,0-2.275-.354-3.076-1.061s-1.201-1.604-1.201-2.689c0-1.32.502-2.346,1.506-3.076s2.416-1.096,4.236-1.096h2.109v-.996c0-.758-.227-1.361-.68-1.811s-1.121-.674-2.004-.674c-.773,0-1.422.195-1.945.586s-.785.863-.785,1.418h-2.18c0-.633.225-1.244.674-1.834s1.059-1.057,1.828-1.4,1.615-.516,2.537-.516c1.461,0,2.605.365,3.434,1.096s1.258,1.736,1.289,3.018v5.836c0,1.164.148,2.09.445,2.777v.188h-2.273ZM814.958,665.815c.68,0,1.324-.176,1.934-.527s1.051-.809,1.324-1.371v-2.602h-1.699c-2.656,0-3.984.777-3.984,2.332,0,.68.227,1.211.68,1.594s1.035.574,1.746.574Z"/>
    <path class="cls-3" d="M828.868,665.932c.773,0,1.449-.234,2.027-.703s.898-1.055.961-1.758h2.051c-.039.727-.289,1.418-.75,2.074s-1.076,1.18-1.846,1.57-1.584.586-2.443.586c-1.727,0-3.1-.576-4.119-1.729s-1.529-2.729-1.529-4.729v-.363c0-1.234.227-2.332.68-3.293s1.104-1.707,1.951-2.238,1.85-.797,3.006-.797c1.422,0,2.604.426,3.545,1.277s1.443,1.957,1.506,3.316h-2.051c-.062-.82-.373-1.494-.932-2.021s-1.248-.791-2.068-.791c-1.102,0-1.955.396-2.561,1.189s-.908,1.939-.908,3.439v.41c0,1.461.301,2.586.902,3.375s1.461,1.184,2.578,1.184Z"/>
    <path class="cls-3" d="M839.286,651.717v3.07h2.367v1.676h-2.367v7.873c0,.509.105.89.316,1.145.211.254.57.381,1.078.381.25,0,.594-.047,1.031-.141v1.748c-.57.154-1.125.232-1.664.232-.969,0-1.699-.293-2.191-.879s-.738-1.418-.738-2.496v-7.863h-2.309v-1.676h2.309v-3.07h2.168Z"/>
  </g>
</svg>