<svg xmlns="http://www.w3.org/2000/svg" width="570" height="381" viewBox="0 0 570 381"><defs><style>.a{fill:#f2edf7;}.b{fill:#fff;}.b,.c{stroke:#000;stroke-miterlimit:10;stroke-width:2px;}.c{fill:none;}</style></defs><path class="a" d="M5.218,241.743c-6.282-39.331,8.834-104.83,46.348-139.969,44.3-41.5,136.92-93.043,245.476-94.1C407.822,6.587,473.4,54.709,500.809,78.23c28.008,24.037,60.144,85.108,64.1,126.939,4.913,51.981-2.817,108.594-55.49,142.972C489.751,360.977,408.03,364.1,334.044,366.1c-33.342.9-203.25,34.245-282.927-22.609C19.579,320.982,11.916,283.677,5.218,241.743Z"/><rect class="b" x="139.551" y="154.319" width="306.159" height="75.638" transform="translate(-38.887 79.684) rotate(-14.551)"/><path class="c" d="M307.252,256.167c-24.071,6.248-51.464-19.042-61.184-56.486s1.915-72.865,25.987-79.113"/><line class="c" x1="353.046" y1="176.456" x2="296.93" y2="191.022"/><polygon points="297.249 180.636 283.038 194.628 302.26 199.942 297.249 180.636"/><path class="c" d="M265.484,238.257c12.2,14.295,27.563,21.6,41.768,17.91s24.074-17.538,27.784-35.964"/><path class="c" d="M319.569,146.073c-12.865-19.2-30.973-29.8-47.514-25.505s-27.208,22.361-29.111,45.4"/><polygon points="256.77 199.324 242.778 185.113 237.464 204.335 256.77 199.324"/></svg>