<?xml version="1.0" encoding="UTF-8"?><svg id="a" xmlns="http://www.w3.org/2000/svg" width="1140" height="641" viewBox="0 0 1140 641"><path d="m373.228,401.784c-18.118,169.255-66.341,234.189-170.743,234.189S3.284,569.975,3.284,399.511,31.005,5.026,135.407,5.026s275.425,45.474,237.821,396.758Z" fill="#e2e8e2" fill-rule="evenodd"/><path d="m735.109,496.076c-19.669,169.082-166.299,138.695-205.36,139.832-104.358,3.037-129.24-186.908-140.968-356.968C372.865,48.16,481.219,15.905,585.046,4.96c172.544-18.189,189.474,152.337,150.063,491.116Z" fill="#edefef" fill-rule="evenodd"/><path d="m766.772,239.216C784.89,69.961,833.113,5.026,937.515,5.026s199.201,65.999,199.201,236.463-41.734,394.484-146.137,394.484-261.411-45.474-223.807-396.758Z" fill="#fff2ee" fill-rule="evenodd"/><rect x="-4.065" y="238.542" width="389.949" height="42.314" rx="9.669" ry="9.669" transform="translate(-68.79 450.608) rotate(-90)" fill="#6a888a"/><line x1="190.909" y1="102.397" x2="190.909" y2="193.926" fill="none" stroke="#000" stroke-linecap="round" stroke-linejoin="round" stroke-width="2"/><polygon points="182.931 104.732 190.909 90.915 198.887 104.732 182.931 104.732"/><path d="m240.016,147.996c-.211,1.805-.877,3.197-1.998,4.178s-2.611,1.471-4.471,1.471c-2.016,0-3.631-.723-4.846-2.168s-1.822-3.379-1.822-5.801v-1.641c0-1.586.283-2.98.85-4.184s1.369-2.127,2.408-2.771,2.242-.967,3.609-.967c1.812,0,3.266.506,4.359,1.518s1.73,2.412,1.91,4.201h-2.262c-.195-1.363-.619-2.351-1.271-2.962s-1.564-.917-2.736-.917c-1.438,0-2.564.531-3.381,1.596-.816,1.062-1.225,2.576-1.225,4.538v1.654c0,1.853.387,3.327,1.16,4.422s1.855,1.642,3.246,1.642c1.25,0,2.209-.283,2.877-.85s1.111-1.553,1.33-2.959h2.262Z"/><path d="m250.574,152.156c-.844.992-2.082,1.488-3.715,1.488-1.352,0-2.381-.393-3.088-1.178s-1.064-1.947-1.072-3.486v-8.25h2.168v8.191c0,1.922.781,2.883,2.344,2.883,1.656,0,2.758-.617,3.305-1.852v-9.223h2.168v12.68h-2.062l-.047-1.254Z"/><path d="m262.105,142.675c-.328-.055-.684-.082-1.066-.082-1.422,0-2.387.605-2.895,1.816v9h-2.168v-12.68h2.109l.035,1.465c.711-1.133,1.719-1.699,3.023-1.699.422,0,.742.055.961.164v2.016Z"/><path d="m270.227,142.675c-.328-.055-.684-.082-1.066-.082-1.422,0-2.387.605-2.895,1.816v9h-2.168v-12.68h2.109l.035,1.465c.711-1.133,1.719-1.699,3.023-1.699.422,0,.742.055.961.164v2.016Z"/><path d="m277.258,153.644c-1.719,0-3.117-.564-4.195-1.693s-1.617-2.639-1.617-4.529v-.398c0-1.258.24-2.381.721-3.369s1.152-1.762,2.016-2.32,1.799-.838,2.807-.838c1.648,0,2.93.543,3.844,1.629s1.371,2.641,1.371,4.664v.902h-8.59c.031,1.25.396,2.26,1.096,3.029s1.588,1.154,2.666,1.154c.766,0,1.414-.156,1.945-.469s.996-.727,1.395-1.242l1.324,1.031c-1.062,1.633-2.656,2.449-4.781,2.449Zm-.27-11.367c-.875,0-1.609.318-2.203.955s-.961,1.529-1.102,2.678h6.352v-.164c-.062-1.102-.359-1.955-.891-2.561s-1.25-.908-2.156-.908Z"/><path d="m286.762,140.73l.07,1.594c.969-1.219,2.234-1.828,3.797-1.828,2.68,0,4.031,1.512,4.055,4.535v8.379h-2.168v-8.391c-.008-.914-.217-1.59-.627-2.027s-1.049-.656-1.916-.656c-.703,0-1.32.188-1.852.562s-.945.867-1.242,1.477v9.035h-2.168v-12.68h2.051Z"/><path d="m300.895,137.66v3.07h2.367v1.676h-2.367v7.873c0,.509.105.89.316,1.145.211.254.57.381,1.078.381.25,0,.594-.047,1.031-.141v1.748c-.57.154-1.125.232-1.664.232-.969,0-1.699-.293-2.191-.879s-.738-1.418-.738-2.496v-7.863h-2.309v-1.676h2.309v-3.07h2.168Z"/><circle cx="190.909" cy="318.253" r="50" fill="#fff5f5" stroke="#d12d32" stroke-miterlimit="10" stroke-width="2"/><line x1="201.595" y1="318.253" x2="168.741" y2="318.253" fill="none" stroke="#000" stroke-linecap="round" stroke-linejoin="round" stroke-width="2"/><polygon points="199.261 310.275 213.077 318.253 199.261 326.231 199.261 310.275"/><rect x="57.035" y="483.474" width="260.731" height="122.779" fill="#e6f1e7" stroke="#0c7913" stroke-miterlimit="10" stroke-width="2"/><path d="m91.625,517.363c-.211,1.805-.877,3.197-1.998,4.178s-2.611,1.471-4.471,1.471c-2.016,0-3.631-.723-4.846-2.168s-1.822-3.379-1.822-5.801v-1.641c0-1.586.283-2.98.85-4.184s1.369-2.127,2.408-2.771,2.242-.967,3.609-.967c1.812,0,3.266.506,4.359,1.518s1.73,2.412,1.91,4.201h-2.262c-.195-1.363-.619-2.352-1.271-2.962-.652-.611-1.564-.917-2.736-.917-1.438,0-2.564.531-3.381,1.595s-1.225,2.576-1.225,4.539v1.654c0,1.853.387,3.327,1.16,4.421.773,1.095,1.855,1.643,3.246,1.643,1.25,0,2.209-.283,2.877-.85s1.111-1.553,1.33-2.959h2.262Z"/><path d="m93.781,516.32c0-1.242.244-2.359.732-3.352s1.168-1.758,2.039-2.297,1.865-.809,2.982-.809c1.727,0,3.123.598,4.189,1.793s1.6,2.785,1.6,4.77v.152c0,1.234-.236,2.342-.709,3.322s-1.148,1.744-2.027,2.291-1.889.82-3.029.82c-1.719,0-3.111-.598-4.178-1.793s-1.6-2.777-1.6-4.746v-.152Zm2.18.258c0,1.406.326,2.535.979,3.387s1.525,1.277,2.619,1.277c1.102,0,1.977-.432,2.625-1.295s.973-2.072.973-3.627c0-1.391-.33-2.518-.99-3.381s-1.537-1.295-2.631-1.295c-1.07,0-1.934.426-2.59,1.277s-.984,2.07-.984,3.656Z"/><path d="m110.082,510.097l.059,1.406c.93-1.094,2.184-1.641,3.762-1.641,1.773,0,2.98.68,3.621,2.039.422-.609.971-1.102,1.646-1.477s1.475-.562,2.396-.562c2.781,0,4.195,1.473,4.242,4.418v8.496h-2.168v-8.367c0-.906-.207-1.584-.621-2.033s-1.109-.674-2.086-.674c-.805,0-1.473.24-2.004.721s-.84,1.127-.926,1.939v8.414h-2.18v-8.309c0-1.844-.902-2.766-2.707-2.766-1.422,0-2.395.605-2.918,1.816v9.258h-2.168v-12.68h2.051Z"/><path d="m139.789,516.578c0,1.93-.441,3.484-1.324,4.664s-2.078,1.77-3.586,1.77c-1.539,0-2.75-.488-3.633-1.465v6.105h-2.168v-17.555h1.98l.105,1.406c.883-1.094,2.109-1.641,3.68-1.641,1.523,0,2.729.574,3.615,1.723s1.33,2.746,1.33,4.793v.199Zm-2.168-.246c0-1.43-.305-2.559-.914-3.387s-1.445-1.242-2.508-1.242c-1.312,0-2.297.582-2.953,1.746v6.059c.648,1.156,1.641,1.734,2.977,1.734,1.039,0,1.865-.412,2.479-1.236s.92-2.049.92-3.674Z"/><path d="m150.371,522.777c-.125-.25-.227-.695-.305-1.336-1.008,1.047-2.211,1.57-3.609,1.57-1.25,0-2.275-.354-3.076-1.061s-1.201-1.604-1.201-2.689c0-1.32.502-2.346,1.506-3.076s2.416-1.096,4.236-1.096h2.109v-.996c0-.758-.227-1.361-.68-1.811s-1.121-.674-2.004-.674c-.773,0-1.422.195-1.945.586s-.785.863-.785,1.418h-2.18c0-.633.225-1.244.674-1.834s1.059-1.057,1.828-1.4,1.615-.516,2.537-.516c1.461,0,2.605.365,3.434,1.096s1.258,1.736,1.289,3.018v5.836c0,1.164.148,2.09.445,2.777v.188h-2.273Zm-3.598-1.652c.68,0,1.324-.176,1.934-.527s1.051-.809,1.324-1.371v-2.602h-1.699c-2.656,0-3.984.777-3.984,2.332,0,.68.227,1.211.68,1.594s1.035.574,1.746.574Z"/><path d="m162.98,519.414c0-.586-.221-1.041-.662-1.365s-1.211-.604-2.309-.838-1.969-.516-2.613-.844-1.121-.719-1.43-1.172-.463-.992-.463-1.617c0-1.039.439-1.918,1.318-2.637s2.002-1.078,3.369-1.078c1.438,0,2.604.371,3.498,1.113s1.342,1.691,1.342,2.848h-2.18c0-.594-.252-1.105-.756-1.535s-1.139-.645-1.904-.645c-.789,0-1.406.172-1.852.516s-.668.793-.668,1.348c0,.523.207.918.621,1.184s1.162.52,2.244.762,1.959.531,2.631.867,1.17.74,1.494,1.213.486,1.049.486,1.729c0,1.133-.453,2.041-1.359,2.725s-2.082,1.025-3.527,1.025c-1.016,0-1.914-.18-2.695-.539s-1.393-.861-1.834-1.506-.662-1.342-.662-2.092h2.168c.039.727.33,1.303.873,1.729s1.26.639,2.15.639c.82,0,1.479-.166,1.975-.498s.744-.775.744-1.33Z"/><path d="m175.355,519.414c0-.586-.221-1.041-.662-1.365s-1.211-.604-2.309-.838-1.969-.516-2.613-.844-1.121-.719-1.43-1.172-.463-.992-.463-1.617c0-1.039.439-1.918,1.318-2.637s2.002-1.078,3.369-1.078c1.438,0,2.604.371,3.498,1.113s1.342,1.691,1.342,2.848h-2.18c0-.594-.252-1.105-.756-1.535s-1.139-.645-1.904-.645c-.789,0-1.406.172-1.852.516s-.668.793-.668,1.348c0,.523.207.918.621,1.184s1.162.52,2.244.762,1.959.531,2.631.867,1.17.74,1.494,1.213.486,1.049.486,1.729c0,1.133-.453,2.041-1.359,2.725s-2.082,1.025-3.527,1.025c-1.016,0-1.914-.18-2.695-.539s-1.393-.861-1.834-1.506-.662-1.342-.662-2.092h2.168c.039.727.33,1.303.873,1.729s1.26.639,2.15.639c.82,0,1.479-.166,1.975-.498s.744-.775.744-1.33Z"/><path d="m188.339,510.097l.07,1.594c.969-1.219,2.234-1.828,3.797-1.828,2.68,0,4.031,1.512,4.055,4.535v8.379h-2.168v-8.391c-.008-.914-.217-1.59-.627-2.027s-1.049-.656-1.916-.656c-.703,0-1.32.188-1.852.562s-.945.867-1.242,1.477v9.035h-2.168v-12.68h2.051Z"/><path d="m204.792,523.011c-1.719,0-3.117-.564-4.195-1.693s-1.617-2.639-1.617-4.529v-.398c0-1.258.24-2.381.721-3.369s1.152-1.762,2.016-2.32,1.799-.838,2.807-.838c1.648,0,2.93.543,3.844,1.629s1.371,2.641,1.371,4.664v.902h-8.59c.031,1.25.396,2.26,1.096,3.029s1.588,1.154,2.666,1.154c.766,0,1.414-.156,1.945-.469s.996-.727,1.395-1.242l1.324,1.031c-1.062,1.633-2.656,2.449-4.781,2.449Zm-.27-11.367c-.875,0-1.609.318-2.203.955s-.961,1.529-1.102,2.678h6.352v-.164c-.062-1.102-.359-1.955-.891-2.561s-1.25-.908-2.156-.908Z"/><path d="m217.507,523.011c-1.719,0-3.117-.564-4.195-1.693s-1.617-2.639-1.617-4.529v-.398c0-1.258.24-2.381.721-3.369s1.152-1.762,2.016-2.32,1.799-.838,2.807-.838c1.648,0,2.93.543,3.844,1.629s1.371,2.641,1.371,4.664v.902h-8.59c.031,1.25.396,2.26,1.096,3.029s1.588,1.154,2.666,1.154c.766,0,1.414-.156,1.945-.469s.996-.727,1.395-1.242l1.324,1.031c-1.062,1.633-2.656,2.449-4.781,2.449Zm-.27-11.367c-.875,0-1.609.318-2.203.955s-.961,1.529-1.102,2.678h6.352v-.164c-.062-1.102-.359-1.955-.891-2.561s-1.25-.908-2.156-.908Z"/><path d="m224.433,516.332c0-1.945.461-3.51,1.383-4.693s2.129-1.775,3.621-1.775c1.484,0,2.66.508,3.527,1.523v-6.609h2.168v18h-1.992l-.105-1.359c-.867,1.062-2.074,1.594-3.621,1.594-1.469,0-2.666-.602-3.592-1.805s-1.389-2.773-1.389-4.711v-.164Zm2.168.246c0,1.438.297,2.562.891,3.375s1.414,1.219,2.461,1.219c1.375,0,2.379-.617,3.012-1.852v-5.824c-.648-1.195-1.645-1.793-2.988-1.793-1.062,0-1.891.41-2.484,1.23s-.891,2.035-.891,3.645Z"/><path d="m240.851,522.777h-2.168v-18h2.168v18Z"/><path d="m249.582,523.011c-1.719,0-3.117-.564-4.195-1.693s-1.617-2.639-1.617-4.529v-.398c0-1.258.24-2.381.721-3.369s1.152-1.762,2.016-2.32,1.799-.838,2.807-.838c1.648,0,2.93.543,3.844,1.629s1.371,2.641,1.371,4.664v.902h-8.59c.031,1.25.396,2.26,1.096,3.029s1.588,1.154,2.666,1.154c.766,0,1.414-.156,1.945-.469s.996-.727,1.395-1.242l1.324,1.031c-1.062,1.633-2.656,2.449-4.781,2.449Zm-.27-11.367c-.875,0-1.609.318-2.203.955s-.961,1.529-1.102,2.678h6.352v-.164c-.062-1.102-.359-1.955-.891-2.561s-1.25-.908-2.156-.908Z"/><path d="m81.675,535.827v3.07h2.367v1.676h-2.367v7.873c0,.509.105.89.316,1.144.211.255.57.382,1.078.382.25,0,.594-.047,1.031-.141v1.747c-.57.155-1.125.233-1.664.233-.969,0-1.699-.293-2.191-.879s-.738-1.418-.738-2.496v-7.863h-2.309v-1.676h2.309v-3.07h2.168Z"/><path d="m94.402,550.323c-.844.992-2.082,1.488-3.715,1.488-1.352,0-2.381-.393-3.088-1.178s-1.064-1.947-1.072-3.486v-8.25h2.168v8.191c0,1.922.781,2.883,2.344,2.883,1.656,0,2.758-.617,3.305-1.852v-9.223h2.168v12.68h-2.062l-.047-1.254Z"/><path d="m105.933,540.842c-.328-.055-.684-.082-1.066-.082-1.422,0-2.387.605-2.895,1.816v9h-2.168v-12.68h2.109l.035,1.465c.711-1.133,1.719-1.699,3.023-1.699.422,0,.742.055.961.164v2.016Z"/><path d="m109.976,538.897l.07,1.594c.969-1.219,2.234-1.828,3.797-1.828,2.68,0,4.031,1.512,4.055,4.535v8.379h-2.168v-8.391c-.008-.914-.217-1.59-.627-2.027s-1.049-.656-1.916-.656c-.703,0-1.32.188-1.852.562s-.945.867-1.242,1.477v9.035h-2.168v-12.68h2.051Z"/><path d="m128.55,548.213c0-.586-.221-1.041-.662-1.365s-1.211-.604-2.309-.838-1.969-.516-2.613-.844-1.121-.719-1.43-1.172-.463-.992-.463-1.617c0-1.039.439-1.918,1.318-2.637s2.002-1.078,3.369-1.078c1.438,0,2.604.371,3.498,1.113s1.342,1.691,1.342,2.848h-2.18c0-.594-.252-1.105-.756-1.535s-1.139-.645-1.904-.645c-.789,0-1.406.172-1.852.516s-.668.793-.668,1.348c0,.523.207.918.621,1.184s1.162.52,2.244.762,1.959.531,2.631.867,1.17.74,1.494,1.213.486,1.049.486,1.729c0,1.133-.453,2.041-1.359,2.725s-2.082,1.025-3.527,1.025c-1.016,0-1.914-.18-2.695-.539s-1.393-.861-1.834-1.506-.662-1.342-.662-2.092h2.168c.039.727.33,1.303.873,1.729s1.26.639,2.15.639c.82,0,1.479-.166,1.975-.498s.744-.775.744-1.33Z"/><path d="m150.195,545.378c0,1.93-.441,3.484-1.324,4.664s-2.078,1.77-3.586,1.77c-1.539,0-2.75-.488-3.633-1.465v6.105h-2.168v-17.555h1.98l.105,1.406c.883-1.094,2.109-1.641,3.68-1.641,1.523,0,2.729.574,3.615,1.723s1.33,2.746,1.33,4.793v.199Zm-2.168-.246c0-1.43-.305-2.559-.914-3.387s-1.445-1.242-2.508-1.242c-1.312,0-2.297.582-2.953,1.746v6.059c.648,1.156,1.641,1.734,2.977,1.734,1.039,0,1.865-.412,2.479-1.236s.92-2.049.92-3.674Z"/><path d="m158.21,551.811c-1.719,0-3.117-.564-4.195-1.693s-1.617-2.639-1.617-4.529v-.398c0-1.258.24-2.381.721-3.369s1.152-1.762,2.016-2.32,1.799-.838,2.807-.838c1.648,0,2.93.543,3.844,1.629s1.371,2.641,1.371,4.664v.902h-8.59c.031,1.25.396,2.26,1.096,3.029s1.588,1.154,2.666,1.154c.766,0,1.414-.156,1.945-.469s.996-.727,1.395-1.242l1.324,1.031c-1.062,1.633-2.656,2.449-4.781,2.449Zm-.27-11.367c-.875,0-1.609.318-2.203.955s-.961,1.529-1.102,2.678h6.352v-.164c-.062-1.102-.359-1.955-.891-2.561s-1.25-.908-2.156-.908Z"/><path d="m171.792,540.842c-.328-.055-.684-.082-1.066-.082-1.422,0-2.387.605-2.895,1.816v9h-2.168v-12.68h2.109l.035,1.465c.711-1.133,1.719-1.699,3.023-1.699.422,0,.742.055.961.164v2.016Z"/><path d="m184.496,545.378c0,1.93-.441,3.484-1.324,4.664s-2.078,1.77-3.586,1.77c-1.539,0-2.75-.488-3.633-1.465v6.105h-2.168v-17.555h1.98l.105,1.406c.883-1.094,2.109-1.641,3.68-1.641,1.523,0,2.729.574,3.615,1.723s1.33,2.746,1.33,4.793v.199Zm-2.168-.246c0-1.43-.305-2.559-.914-3.387s-1.445-1.242-2.508-1.242c-1.312,0-2.297.582-2.953,1.746v6.059c.648,1.156,1.641,1.734,2.977,1.734,1.039,0,1.865-.412,2.479-1.236s.92-2.049.92-3.674Z"/><path d="m192.511,551.811c-1.719,0-3.117-.564-4.195-1.693s-1.617-2.639-1.617-4.529v-.398c0-1.258.24-2.381.721-3.369s1.152-1.762,2.016-2.32,1.799-.838,2.807-.838c1.648,0,2.93.543,3.844,1.629s1.371,2.641,1.371,4.664v.902h-8.59c.031,1.25.396,2.26,1.096,3.029s1.588,1.154,2.666,1.154c.766,0,1.414-.156,1.945-.469s.996-.727,1.395-1.242l1.324,1.031c-1.062,1.633-2.656,2.449-4.781,2.449Zm-.27-11.367c-.875,0-1.609.318-2.203.955s-.961,1.529-1.102,2.678h6.352v-.164c-.062-1.102-.359-1.955-.891-2.561s-1.25-.908-2.156-.908Z"/><path d="m202.015,538.897l.07,1.594c.969-1.219,2.234-1.828,3.797-1.828,2.68,0,4.031,1.512,4.055,4.535v8.379h-2.168v-8.391c-.008-.914-.217-1.59-.627-2.027s-1.049-.656-1.916-.656c-.703,0-1.32.188-1.852.562s-.945.867-1.242,1.477v9.035h-2.168v-12.68h2.051Z"/><path d="m212.679,545.131c0-1.945.461-3.51,1.383-4.693s2.129-1.775,3.621-1.775c1.484,0,2.66.508,3.527,1.523v-6.609h2.168v18h-1.992l-.105-1.359c-.867,1.062-2.074,1.594-3.621,1.594-1.469,0-2.666-.602-3.592-1.805s-1.389-2.773-1.389-4.711v-.164Zm2.168.246c0,1.438.297,2.562.891,3.375s1.414,1.219,2.461,1.219c1.375,0,2.379-.617,3.012-1.852v-5.824c-.648-1.195-1.645-1.793-2.988-1.793-1.062,0-1.891.41-2.484,1.23s-.891,2.035-.891,3.645Z"/><path d="m226.753,535.534c0-.352.107-.648.322-.891s.533-.363.955-.363.742.121.961.363.328.539.328.891-.109.645-.328.879-.539.352-.961.352-.74-.117-.955-.352-.322-.527-.322-.879Zm2.344,16.043h-2.168v-12.68h2.168v12.68Z"/><path d="m237.652,550.042c.773,0,1.449-.234,2.027-.703s.898-1.055.961-1.758h2.051c-.039.727-.289,1.418-.75,2.074s-1.076,1.18-1.846,1.57-1.584.586-2.443.586c-1.727,0-3.1-.576-4.119-1.729s-1.529-2.729-1.529-4.729v-.363c0-1.234.227-2.332.68-3.293s1.104-1.707,1.951-2.238,1.85-.797,3.006-.797c1.422,0,2.604.426,3.545,1.277s1.443,1.957,1.506,3.316h-2.051c-.062-.82-.373-1.494-.932-2.021s-1.248-.791-2.068-.791c-1.102,0-1.955.396-2.561,1.189s-.908,1.939-.908,3.439v.41c0,1.461.301,2.586.902,3.375s1.461,1.184,2.578,1.184Z"/><path d="m252.957,550.323c-.844.992-2.082,1.488-3.715,1.488-1.352,0-2.381-.393-3.088-1.178s-1.064-1.947-1.072-3.486v-8.25h2.168v8.191c0,1.922.781,2.883,2.344,2.883,1.656,0,2.758-.617,3.305-1.852v-9.223h2.168v12.68h-2.062l-.047-1.254Z"/><path d="m260.714,551.577h-2.168v-18h2.168v18Z"/><path d="m272.011,551.577c-.125-.25-.227-.695-.305-1.336-1.008,1.047-2.211,1.57-3.609,1.57-1.25,0-2.275-.354-3.076-1.061s-1.201-1.604-1.201-2.689c0-1.32.502-2.346,1.506-3.076s2.416-1.096,4.236-1.096h2.109v-.996c0-.758-.227-1.361-.68-1.811s-1.121-.674-2.004-.674c-.773,0-1.422.195-1.945.586s-.785.863-.785,1.418h-2.18c0-.633.225-1.244.674-1.834s1.059-1.057,1.828-1.4,1.615-.516,2.537-.516c1.461,0,2.605.365,3.434,1.096s1.258,1.736,1.289,3.018v5.836c0,1.164.148,2.09.445,2.777v.188h-2.273Zm-3.598-1.652c.68,0,1.324-.176,1.934-.527s1.051-.809,1.324-1.371v-2.602h-1.699c-2.656,0-3.984.777-3.984,2.332,0,.68.227,1.211.68,1.594s1.035.574,1.746.574Z"/><path d="m283.367,540.842c-.328-.055-.684-.082-1.066-.082-1.422,0-2.387.605-2.895,1.816v9h-2.168v-12.68h2.109l.035,1.465c.711-1.133,1.719-1.699,3.023-1.699.422,0,.742.055.961.164v2.016Z"/><path d="m81.675,564.627v3.07h2.367v1.676h-2.367v7.873c0,.509.105.891.316,1.145s.57.381,1.078.381c.25,0,.594-.047,1.031-.141v1.748c-.57.155-1.125.232-1.664.232-.969,0-1.699-.293-2.191-.879s-.738-1.418-.738-2.496v-7.863h-2.309v-1.676h2.309v-3.07h2.168Z"/><path d="m85.765,573.92c0-1.242.244-2.359.732-3.352s1.168-1.758,2.039-2.297,1.865-.809,2.982-.809c1.727,0,3.123.598,4.189,1.793s1.6,2.785,1.6,4.77v.152c0,1.234-.236,2.342-.709,3.322s-1.148,1.744-2.027,2.291-1.889.82-3.029.82c-1.719,0-3.111-.598-4.178-1.793s-1.6-2.777-1.6-4.746v-.152Zm2.18.258c0,1.406.326,2.535.979,3.387s1.525,1.277,2.619,1.277c1.102,0,1.977-.432,2.625-1.295s.973-2.072.973-3.627c0-1.391-.33-2.518-.99-3.381s-1.537-1.295-2.631-1.295c-1.07,0-1.934.426-2.59,1.277s-.984,2.07-.984,3.656Z"/><path d="m108.91,564.627v3.07h2.367v1.676h-2.367v7.873c0,.509.105.891.316,1.145s.57.381,1.078.381c.25,0,.594-.047,1.031-.141v1.748c-.57.155-1.125.232-1.664.232-.969,0-1.699-.293-2.191-.879s-.738-1.418-.738-2.496v-7.863h-2.309v-1.676h2.309v-3.07h2.168Z"/><path d="m115.976,569.232c.961-1.18,2.211-1.77,3.75-1.77,2.68,0,4.031,1.512,4.055,4.535v8.379h-2.168v-8.391c-.008-.914-.217-1.59-.627-2.027s-1.049-.656-1.916-.656c-.703,0-1.32.188-1.852.562s-.945.867-1.242,1.477v9.035h-2.168v-18h2.168v6.855Z"/><path d="m132.289,580.611c-1.719,0-3.117-.564-4.195-1.693s-1.617-2.639-1.617-4.529v-.398c0-1.258.24-2.381.721-3.369s1.152-1.762,2.016-2.32,1.799-.838,2.807-.838c1.648,0,2.93.543,3.844,1.629s1.371,2.641,1.371,4.664v.902h-8.59c.031,1.25.396,2.26,1.096,3.029s1.588,1.154,2.666,1.154c.766,0,1.414-.156,1.945-.469s.996-.727,1.395-1.242l1.324,1.031c-1.062,1.633-2.656,2.449-4.781,2.449Zm-.27-11.367c-.875,0-1.609.318-2.203.955s-.961,1.529-1.102,2.678h6.352v-.164c-.062-1.102-.359-1.955-.891-2.561s-1.25-.908-2.156-.908Z"/><path d="m150.769,578.841c.773,0,1.449-.234,2.027-.703s.898-1.055.961-1.758h2.051c-.039.727-.289,1.418-.75,2.074s-1.076,1.18-1.846,1.57-1.584.586-2.443.586c-1.727,0-3.1-.576-4.119-1.729s-1.529-2.729-1.529-4.729v-.363c0-1.234.227-2.332.68-3.293s1.104-1.707,1.951-2.238,1.85-.797,3.006-.797c1.422,0,2.604.426,3.545,1.277s1.443,1.957,1.506,3.316h-2.051c-.062-.82-.373-1.494-.932-2.021s-1.248-.791-2.068-.791c-1.102,0-1.955.396-2.561,1.189s-.908,1.939-.908,3.439v.41c0,1.461.301,2.586.902,3.375s1.461,1.184,2.578,1.184Z"/><path d="m157.671,573.92c0-1.242.244-2.359.732-3.352s1.168-1.758,2.039-2.297,1.865-.809,2.982-.809c1.727,0,3.123.598,4.189,1.793s1.6,2.785,1.6,4.77v.152c0,1.234-.236,2.342-.709,3.322s-1.148,1.744-2.027,2.291-1.889.82-3.029.82c-1.719,0-3.111-.598-4.178-1.793s-1.6-2.777-1.6-4.746v-.152Zm2.18.258c0,1.406.326,2.535.979,3.387s1.525,1.277,2.619,1.277c1.102,0,1.977-.432,2.625-1.295s.973-2.072.973-3.627c0-1.391-.33-2.518-.99-3.381s-1.537-1.295-2.631-1.295c-1.07,0-1.934.426-2.59,1.277s-.984,2.07-.984,3.656Z"/><path d="m173.984,567.697l.07,1.594c.969-1.219,2.234-1.828,3.797-1.828,2.68,0,4.031,1.512,4.055,4.535v8.379h-2.168v-8.391c-.008-.914-.217-1.59-.627-2.027s-1.049-.656-1.916-.656c-.703,0-1.32.188-1.852.562s-.945.867-1.242,1.477v9.035h-2.168v-12.68h2.051Z"/><path d="m184.648,573.931c0-1.945.461-3.51,1.383-4.693s2.129-1.775,3.621-1.775c1.484,0,2.66.508,3.527,1.523v-6.609h2.168v18h-1.992l-.105-1.359c-.867,1.062-2.074,1.594-3.621,1.594-1.469,0-2.666-.602-3.592-1.805s-1.389-2.773-1.389-4.711v-.164Zm2.168.246c0,1.438.297,2.562.891,3.375s1.414,1.219,2.461,1.219c1.375,0,2.379-.617,3.012-1.852v-5.824c-.648-1.195-1.645-1.793-2.988-1.793-1.062,0-1.891.41-2.484,1.23s-.891,2.035-.891,3.645Z"/><path d="m206.539,579.123c-.844.992-2.082,1.488-3.715,1.488-1.352,0-2.381-.393-3.088-1.178s-1.064-1.947-1.072-3.486v-8.25h2.168v8.191c0,1.922.781,2.883,2.344,2.883,1.656,0,2.758-.617,3.305-1.852v-9.223h2.168v12.68h-2.062l-.047-1.254Z"/><path d="m217.027,578.841c.773,0,1.449-.234,2.027-.703s.898-1.055.961-1.758h2.051c-.039.727-.289,1.418-.75,2.074s-1.076,1.18-1.846,1.57-1.584.586-2.443.586c-1.727,0-3.1-.576-4.119-1.729s-1.529-2.729-1.529-4.729v-.363c0-1.234.227-2.332.68-3.293s1.104-1.707,1.951-2.238,1.85-.797,3.006-.797c1.422,0,2.604.426,3.545,1.277s1.443,1.957,1.506,3.316h-2.051c-.062-.82-.373-1.494-.932-2.021s-1.248-.791-2.068-.791c-1.102,0-1.955.396-2.561,1.189s-.908,1.939-.908,3.439v.41c0,1.461.301,2.586.902,3.375s1.461,1.184,2.578,1.184Z"/><path d="m227.445,564.627v3.07h2.367v1.676h-2.367v7.873c0,.509.105.891.316,1.145s.57.381,1.078.381c.25,0,.594-.047,1.031-.141v1.748c-.57.155-1.125.232-1.664.232-.969,0-1.699-.293-2.191-.879s-.738-1.418-.738-2.496v-7.863h-2.309v-1.676h2.309v-3.07h2.168Z"/><path d="m231.535,573.92c0-1.242.244-2.359.732-3.352s1.168-1.758,2.039-2.297,1.865-.809,2.982-.809c1.727,0,3.123.598,4.189,1.793s1.6,2.785,1.6,4.77v.152c0,1.234-.236,2.342-.709,3.322s-1.148,1.744-2.027,2.291-1.889.82-3.029.82c-1.719,0-3.111-.598-4.178-1.793s-1.6-2.777-1.6-4.746v-.152Zm2.18.258c0,1.406.326,2.535.979,3.387s1.525,1.277,2.619,1.277c1.102,0,1.977-.432,2.625-1.295s.973-2.072.973-3.627c0-1.391-.33-2.518-.99-3.381s-1.537-1.295-2.631-1.295c-1.07,0-1.934.426-2.59,1.277s-.984,2.07-.984,3.656Z"/><path d="m251.925,569.642c-.328-.055-.684-.082-1.066-.082-1.422,0-2.387.605-2.895,1.816v9h-2.168v-12.68h2.109l.035,1.465c.711-1.133,1.719-1.699,3.023-1.699.422,0,.742.055.961.164v2.016Z"/><rect x="754.117" y="238.542" width="389.949" height="42.314" rx="9.669" ry="9.669" transform="translate(689.392 1208.79) rotate(-90)" fill="#6a888a"/><line x1="949.091" y1="193.926" x2="949.091" y2="102.397" fill="none" stroke="#000" stroke-linecap="round" stroke-linejoin="round" stroke-width="2"/><polygon points="957.069 191.592 949.091 205.408 941.113 191.592 957.069 191.592"/><path d="m1001.7,119.48c-.211,1.805-.877,3.197-1.998,4.178s-2.611,1.471-4.471,1.471c-2.016,0-3.631-.723-4.846-2.168s-1.822-3.379-1.822-5.801v-1.641c0-1.586.283-2.98.85-4.184s1.369-2.127,2.408-2.771,2.242-.967,3.609-.967c1.812,0,3.266.506,4.359,1.518s1.73,2.412,1.91,4.201h-2.262c-.195-1.363-.619-2.351-1.271-2.962s-1.564-.917-2.736-.917c-1.438,0-2.564.531-3.381,1.596-.816,1.062-1.225,2.576-1.225,4.538v1.654c0,1.853.387,3.327,1.16,4.422s1.855,1.642,3.246,1.642c1.25,0,2.209-.283,2.877-.85s1.111-1.553,1.33-2.959h2.262Z"/><path d="m1012.259,123.64c-.844.992-2.082,1.488-3.715,1.488-1.352,0-2.381-.393-3.088-1.178s-1.064-1.947-1.072-3.486v-8.25h2.168v8.191c0,1.922.781,2.883,2.344,2.883,1.656,0,2.758-.617,3.305-1.852v-9.223h2.168v12.68h-2.062l-.047-1.254Z"/><path d="m1023.79,114.16c-.328-.055-.684-.082-1.066-.082-1.422,0-2.387.605-2.895,1.816v9h-2.168v-12.68h2.109l.035,1.465c.711-1.133,1.719-1.699,3.023-1.699.422,0,.742.055.961.164v2.016Z"/><path d="m1031.911,114.16c-.328-.055-.684-.082-1.066-.082-1.422,0-2.387.605-2.895,1.816v9h-2.168v-12.68h2.109l.035,1.465c.711-1.133,1.719-1.699,3.023-1.699.422,0,.742.055.961.164v2.016Z"/><path d="m1038.942,125.129c-1.719,0-3.117-.564-4.195-1.693s-1.617-2.639-1.617-4.529v-.398c0-1.258.24-2.381.721-3.369s1.152-1.762,2.016-2.32,1.799-.838,2.807-.838c1.648,0,2.93.543,3.844,1.629s1.371,2.641,1.371,4.664v.902h-8.59c.031,1.25.396,2.26,1.096,3.029s1.588,1.154,2.666,1.154c.766,0,1.414-.156,1.945-.469s.996-.727,1.395-1.242l1.324,1.031c-1.062,1.633-2.656,2.449-4.781,2.449Zm-.27-11.367c-.875,0-1.609.318-2.203.955s-.961,1.529-1.102,2.678h6.352v-.164c-.062-1.102-.359-1.955-.891-2.561s-1.25-.908-2.156-.908Z"/><path d="m1048.446,112.214l.07,1.594c.969-1.219,2.234-1.828,3.797-1.828,2.68,0,4.031,1.512,4.055,4.535v8.379h-2.168v-8.391c-.008-.914-.217-1.59-.627-2.027s-1.049-.656-1.916-.656c-.703,0-1.32.188-1.852.562s-.945.867-1.242,1.477v9.035h-2.168v-12.68h2.051Z"/><path d="m1062.579,109.144v3.07h2.367v1.676h-2.367v7.873c0,.509.105.89.316,1.145.211.254.57.381,1.078.381.25,0,.594-.047,1.031-.141v1.748c-.57.154-1.125.232-1.664.232-.969,0-1.699-.293-2.191-.879s-.738-1.418-.738-2.496v-7.863h-2.309v-1.676h2.309v-3.07h2.168Z"/><path d="m988.821,137.651c0-.352.107-.648.322-.891s.533-.363.955-.363.742.121.961.363.328.539.328.891-.109.645-.328.879-.539.352-.961.352-.74-.117-.955-.352-.322-.527-.322-.879Zm2.344,16.043h-2.168v-12.68h2.168v12.68Z"/><path d="m996.685,141.014l.07,1.594c.969-1.219,2.234-1.828,3.797-1.828,2.68,0,4.031,1.512,4.055,4.535v8.379h-2.168v-8.391c-.008-.914-.217-1.59-.627-2.027s-1.049-.656-1.916-.656c-.703,0-1.32.188-1.852.562s-.945.867-1.242,1.477v9.035h-2.168v-12.68h2.051Z"/><path d="m1013.243,147.237c0-1.242.244-2.359.732-3.352s1.168-1.758,2.039-2.297,1.865-.809,2.982-.809c1.727,0,3.123.598,4.189,1.793s1.6,2.785,1.6,4.77v.152c0,1.234-.236,2.342-.709,3.322s-1.148,1.744-2.027,2.291-1.889.82-3.029.82c-1.719,0-3.111-.598-4.178-1.793s-1.6-2.777-1.6-4.746v-.152Zm2.18.258c0,1.406.326,2.535.979,3.387s1.525,1.277,2.619,1.277c1.102,0,1.977-.432,2.625-1.295s.973-2.072.973-3.627c0-1.391-.33-2.518-.99-3.381s-1.537-1.295-2.631-1.295c-1.07,0-1.934.426-2.59,1.277s-.984,2.07-.984,3.656Z"/><path d="m1038.216,147.495c0,1.93-.441,3.484-1.324,4.664s-2.078,1.77-3.586,1.77c-1.539,0-2.75-.488-3.633-1.465v6.105h-2.168v-17.555h1.98l.105,1.406c.883-1.094,2.109-1.641,3.68-1.641,1.523,0,2.729.574,3.615,1.723s1.33,2.746,1.33,4.793v.199Zm-2.168-.246c0-1.43-.305-2.559-.914-3.387s-1.445-1.242-2.508-1.242c-1.312,0-2.297.582-2.953,1.746v6.059c.648,1.156,1.641,1.734,2.977,1.734,1.039,0,1.865-.412,2.479-1.236s.92-2.049.92-3.674Z"/><path d="m1051.681,147.495c0,1.93-.441,3.484-1.324,4.664s-2.078,1.77-3.586,1.77c-1.539,0-2.75-.488-3.633-1.465v6.105h-2.168v-17.555h1.98l.105,1.406c.883-1.094,2.109-1.641,3.68-1.641,1.523,0,2.729.574,3.615,1.723s1.33,2.746,1.33,4.793v.199Zm-2.168-.246c0-1.43-.305-2.559-.914-3.387s-1.445-1.242-2.508-1.242c-1.312,0-2.297.582-2.953,1.746v6.059c.648,1.156,1.641,1.734,2.977,1.734,1.039,0,1.865-.412,2.479-1.236s.92-2.049.92-3.674Z"/><path d="m1053.86,147.237c0-1.242.244-2.359.732-3.352s1.168-1.758,2.039-2.297,1.865-.809,2.982-.809c1.727,0,3.123.598,4.189,1.793s1.6,2.785,1.6,4.77v.152c0,1.234-.236,2.342-.709,3.322s-1.148,1.744-2.027,2.291-1.889.82-3.029.82c-1.719,0-3.111-.598-4.178-1.793s-1.6-2.777-1.6-4.746v-.152Zm2.18.258c0,1.406.326,2.535.979,3.387s1.525,1.277,2.619,1.277c1.102,0,1.977-.432,2.625-1.295s.973-2.072.973-3.627c0-1.391-.33-2.518-.99-3.381s-1.537-1.295-2.631-1.295c-1.07,0-1.934.426-2.59,1.277s-.984,2.07-.984,3.656Z"/><path d="m1075.505,150.331c0-.586-.221-1.041-.662-1.365s-1.211-.604-2.309-.838-1.969-.516-2.613-.844-1.121-.719-1.43-1.172-.463-.992-.463-1.617c0-1.039.439-1.918,1.318-2.637s2.002-1.078,3.369-1.078c1.438,0,2.604.371,3.498,1.113s1.342,1.691,1.342,2.848h-2.18c0-.594-.252-1.105-.756-1.535s-1.139-.645-1.904-.645c-.789,0-1.406.172-1.852.516s-.668.793-.668,1.348c0,.523.207.918.621,1.184s1.162.52,2.244.762,1.959.531,2.631.867,1.17.74,1.494,1.213.486,1.049.486,1.729c0,1.133-.453,2.041-1.359,2.725s-2.082,1.025-3.527,1.025c-1.016,0-1.914-.18-2.695-.539s-1.393-.861-1.834-1.506-.662-1.342-.662-2.092h2.168c.039.727.33,1.303.873,1.729s1.26.639,2.15.639c.82,0,1.479-.166,1.975-.498s.744-.775.744-1.33Z"/><path d="m1080.509,137.651c0-.352.107-.648.322-.891s.533-.363.955-.363.742.121.961.363.328.539.328.891-.109.645-.328.879-.539.352-.961.352-.74-.117-.955-.352-.322-.527-.322-.879Zm2.344,16.043h-2.168v-12.68h2.168v12.68Z"/><path d="m1089.263,137.944v3.07h2.367v1.676h-2.367v7.873c0,.509.105.89.316,1.145.211.254.57.381,1.078.381.25,0,.594-.047,1.031-.141v1.748c-.57.154-1.125.232-1.664.232-.969,0-1.699-.293-2.191-.879s-.738-1.418-.738-2.496v-7.863h-2.309v-1.676h2.309v-3.07h2.168Z"/><path d="m1099.423,153.928c-1.719,0-3.117-.564-4.195-1.693s-1.617-2.639-1.617-4.529v-.398c0-1.258.24-2.381.721-3.369s1.152-1.762,2.016-2.32,1.799-.838,2.807-.838c1.648,0,2.93.543,3.844,1.629s1.371,2.641,1.371,4.664v.902h-8.59c.031,1.25.396,2.26,1.096,3.029s1.588,1.154,2.666,1.154c.766,0,1.414-.156,1.945-.469s.996-.727,1.395-1.242l1.324,1.031c-1.062,1.633-2.656,2.449-4.781,2.449Zm-.27-11.367c-.875,0-1.609.318-2.203.955s-.961,1.529-1.102,2.678h6.352v-.164c-.062-1.102-.359-1.955-.891-2.561s-1.25-.908-2.156-.908Z"/><path d="m988.282,176.048c0-1.945.461-3.51,1.383-4.693s2.129-1.775,3.621-1.775c1.484,0,2.66.508,3.527,1.523v-6.609h2.168v18h-1.992l-.105-1.359c-.867,1.062-2.074,1.594-3.621,1.594-1.469,0-2.666-.602-3.592-1.805s-1.389-2.773-1.389-4.711v-.164Zm2.168.246c0,1.438.297,2.562.891,3.375s1.414,1.219,2.461,1.219c1.375,0,2.379-.617,3.012-1.852v-5.824c-.648-1.195-1.645-1.793-2.988-1.793-1.062,0-1.891.41-2.484,1.23s-.891,2.035-.891,3.645Z"/><path d="m1002.356,166.451c0-.352.107-.648.322-.891s.533-.363.955-.363.742.121.961.363.328.539.328.891-.109.645-.328.879-.539.352-.961.352-.74-.117-.955-.352-.322-.527-.322-.879Zm2.344,16.043h-2.168v-12.68h2.168v12.68Z"/><path d="m1014.298,171.759c-.328-.055-.684-.082-1.066-.082-1.422,0-2.387.605-2.895,1.816v9h-2.168v-12.68h2.109l.035,1.465c.711-1.133,1.719-1.699,3.023-1.699.422,0,.742.055.961.164v2.016Z"/><path d="m1021.329,182.728c-1.719,0-3.117-.564-4.195-1.693s-1.617-2.639-1.617-4.529v-.398c0-1.258.24-2.381.721-3.369s1.152-1.762,2.016-2.32,1.799-.838,2.807-.838c1.648,0,2.93.543,3.844,1.629s1.371,2.641,1.371,4.664v.902h-8.59c.031,1.25.396,2.26,1.096,3.029s1.588,1.154,2.666,1.154c.766,0,1.414-.156,1.945-.469s.996-.727,1.395-1.242l1.324,1.031c-1.062,1.633-2.656,2.449-4.781,2.449Zm-.27-11.367c-.875,0-1.609.318-2.203.955s-.961,1.529-1.102,2.678h6.352v-.164c-.062-1.102-.359-1.955-.891-2.561s-1.25-.908-2.156-.908Z"/><path d="m1033.868,180.959c.773,0,1.449-.234,2.027-.703s.898-1.055.961-1.758h2.051c-.039.727-.289,1.418-.75,2.074s-1.076,1.18-1.846,1.57-1.584.586-2.443.586c-1.727,0-3.1-.576-4.119-1.729s-1.529-2.729-1.529-4.729v-.363c0-1.234.227-2.332.68-3.293s1.104-1.707,1.951-2.238,1.85-.797,3.006-.797c1.422,0,2.604.426,3.545,1.277s1.443,1.957,1.506,3.316h-2.051c-.062-.82-.373-1.494-.932-2.021s-1.248-.791-2.068-.791c-1.102,0-1.955.396-2.561,1.189s-.908,1.939-.908,3.439v.41c0,1.461.301,2.586.902,3.375s1.461,1.184,2.578,1.184Z"/><path d="m1044.286,166.744v3.07h2.367v1.676h-2.367v7.873c0,.509.105.89.316,1.145.211.254.57.381,1.078.381.25,0,.594-.047,1.031-.141v1.748c-.57.154-1.125.232-1.664.232-.969,0-1.699-.293-2.191-.879s-.738-1.418-.738-2.496v-7.863h-2.309v-1.676h2.309v-3.07h2.168Z"/><path d="m1049.196,166.451c0-.352.107-.648.322-.891s.533-.363.955-.363.742.121.961.363.328.539.328.891-.109.645-.328.879-.539.352-.961.352-.74-.117-.955-.352-.322-.527-.322-.879Zm2.344,16.043h-2.168v-12.68h2.168v12.68Z"/><path d="m1054.435,176.037c0-1.242.244-2.359.732-3.352s1.168-1.758,2.039-2.297,1.865-.809,2.982-.809c1.727,0,3.123.598,4.189,1.793s1.6,2.785,1.6,4.77v.152c0,1.234-.236,2.342-.709,3.322s-1.148,1.744-2.027,2.291-1.889.82-3.029.82c-1.719,0-3.111-.598-4.178-1.793s-1.6-2.777-1.6-4.746v-.152Zm2.18.258c0,1.406.326,2.535.979,3.387s1.525,1.277,2.619,1.277c1.102,0,1.977-.432,2.625-1.295s.973-2.072.973-3.627c0-1.391-.33-2.518-.99-3.381s-1.537-1.295-2.631-1.295c-1.07,0-1.934.426-2.59,1.277s-.984,2.07-.984,3.656Z"/><path d="m1070.747,169.814l.07,1.594c.969-1.219,2.234-1.828,3.797-1.828,2.68,0,4.031,1.512,4.055,4.535v8.379h-2.168v-8.391c-.008-.914-.217-1.59-.627-2.027s-1.049-.656-1.916-.656c-.703,0-1.32.188-1.852.562s-.945.867-1.242,1.477v9.035h-2.168v-12.68h2.051Z"/><circle cx="949.091" cy="318.253" r="50" fill="#fff5f5" stroke="#d12d32" stroke-miterlimit="10" stroke-width="2"/><line x1="938.405" y1="318.253" x2="971.259" y2="318.253" fill="none" stroke="#000" stroke-linecap="round" stroke-linejoin="round" stroke-width="2"/><polygon points="940.739 326.231 926.923 318.253 940.739 310.275 940.739 326.231"/><rect x="818.726" y="483.474" width="260.731" height="122.779" fill="#fff5f5" stroke="#d12d32" stroke-miterlimit="10" stroke-width="2"/><path d="m853.315,517.363c-.211,1.805-.877,3.197-1.998,4.178s-2.611,1.471-4.471,1.471c-2.016,0-3.631-.723-4.846-2.168s-1.822-3.379-1.822-5.801v-1.641c0-1.586.283-2.98.85-4.184s1.369-2.127,2.408-2.771,2.242-.967,3.609-.967c1.812,0,3.266.506,4.359,1.518s1.73,2.412,1.91,4.201h-2.262c-.195-1.363-.619-2.352-1.271-2.962-.652-.611-1.564-.917-2.736-.917-1.438,0-2.564.531-3.381,1.595s-1.225,2.576-1.225,4.539v1.654c0,1.853.387,3.327,1.16,4.421.773,1.095,1.855,1.643,3.246,1.643,1.25,0,2.209-.283,2.877-.85s1.111-1.553,1.33-2.959h2.262Z"/><path d="m855.472,516.32c0-1.242.244-2.359.732-3.352s1.168-1.758,2.039-2.297,1.865-.809,2.982-.809c1.727,0,3.123.598,4.189,1.793s1.6,2.785,1.6,4.77v.152c0,1.234-.236,2.342-.709,3.322s-1.148,1.744-2.027,2.291-1.889.82-3.029.82c-1.719,0-3.111-.598-4.178-1.793s-1.6-2.777-1.6-4.746v-.152Zm2.18.258c0,1.406.326,2.535.979,3.387s1.525,1.277,2.619,1.277c1.102,0,1.977-.432,2.625-1.295s.973-2.072.973-3.627c0-1.391-.33-2.518-.99-3.381s-1.537-1.295-2.631-1.295c-1.07,0-1.934.426-2.59,1.277s-.984,2.07-.984,3.656Z"/><path d="m871.772,510.097l.059,1.406c.93-1.094,2.184-1.641,3.762-1.641,1.773,0,2.98.68,3.621,2.039.422-.609.971-1.102,1.646-1.477s1.475-.562,2.396-.562c2.781,0,4.195,1.473,4.242,4.418v8.496h-2.168v-8.367c0-.906-.207-1.584-.621-2.033s-1.109-.674-2.086-.674c-.805,0-1.473.24-2.004.721s-.84,1.127-.926,1.939v8.414h-2.18v-8.309c0-1.844-.902-2.766-2.707-2.766-1.422,0-2.395.605-2.918,1.816v9.258h-2.168v-12.68h2.051Z"/><path d="m901.479,516.578c0,1.93-.441,3.484-1.324,4.664s-2.078,1.77-3.586,1.77c-1.539,0-2.75-.488-3.633-1.465v6.105h-2.168v-17.555h1.98l.105,1.406c.883-1.094,2.109-1.641,3.68-1.641,1.523,0,2.729.574,3.615,1.723s1.33,2.746,1.33,4.793v.199Zm-2.168-.246c0-1.43-.305-2.559-.914-3.387s-1.445-1.242-2.508-1.242c-1.312,0-2.297.582-2.953,1.746v6.059c.648,1.156,1.641,1.734,2.977,1.734,1.039,0,1.865-.412,2.479-1.236s.92-2.049.92-3.674Z"/><path d="m912.062,522.777c-.125-.25-.227-.695-.305-1.336-1.008,1.047-2.211,1.57-3.609,1.57-1.25,0-2.275-.354-3.076-1.061s-1.201-1.604-1.201-2.689c0-1.32.502-2.346,1.506-3.076s2.416-1.096,4.236-1.096h2.109v-.996c0-.758-.227-1.361-.68-1.811s-1.121-.674-2.004-.674c-.773,0-1.422.195-1.945.586s-.785.863-.785,1.418h-2.18c0-.633.225-1.244.674-1.834s1.059-1.057,1.828-1.4,1.615-.516,2.537-.516c1.461,0,2.605.365,3.434,1.096s1.258,1.736,1.289,3.018v5.836c0,1.164.148,2.09.445,2.777v.188h-2.273Zm-3.598-1.652c.68,0,1.324-.176,1.934-.527s1.051-.809,1.324-1.371v-2.602h-1.699c-2.656,0-3.984.777-3.984,2.332,0,.68.227,1.211.68,1.594s1.035.574,1.746.574Z"/><path d="m924.671,519.414c0-.586-.221-1.041-.662-1.365s-1.211-.604-2.309-.838-1.969-.516-2.613-.844-1.121-.719-1.43-1.172-.463-.992-.463-1.617c0-1.039.439-1.918,1.318-2.637s2.002-1.078,3.369-1.078c1.438,0,2.604.371,3.498,1.113s1.342,1.691,1.342,2.848h-2.18c0-.594-.252-1.105-.756-1.535s-1.139-.645-1.904-.645c-.789,0-1.406.172-1.852.516s-.668.793-.668,1.348c0,.523.207.918.621,1.184s1.162.52,2.244.762,1.959.531,2.631.867,1.17.74,1.494,1.213.486,1.049.486,1.729c0,1.133-.453,2.041-1.359,2.725s-2.082,1.025-3.527,1.025c-1.016,0-1.914-.18-2.695-.539s-1.393-.861-1.834-1.506-.662-1.342-.662-2.092h2.168c.039.727.33,1.303.873,1.729s1.26.639,2.15.639c.82,0,1.479-.166,1.975-.498s.744-.775.744-1.33Z"/><path d="m937.046,519.414c0-.586-.221-1.041-.662-1.365s-1.211-.604-2.309-.838-1.969-.516-2.613-.844-1.121-.719-1.43-1.172-.463-.992-.463-1.617c0-1.039.439-1.918,1.318-2.637s2.002-1.078,3.369-1.078c1.438,0,2.604.371,3.498,1.113s1.342,1.691,1.342,2.848h-2.18c0-.594-.252-1.105-.756-1.535s-1.139-.645-1.904-.645c-.789,0-1.406.172-1.852.516s-.668.793-.668,1.348c0,.523.207.918.621,1.184s1.162.52,2.244.762,1.959.531,2.631.867,1.17.74,1.494,1.213.486,1.049.486,1.729c0,1.133-.453,2.041-1.359,2.725s-2.082,1.025-3.527,1.025c-1.016,0-1.914-.18-2.695-.539s-1.393-.861-1.834-1.506-.662-1.342-.662-2.092h2.168c.039.727.33,1.303.873,1.729s1.26.639,2.15.639c.82,0,1.479-.166,1.975-.498s.744-.775.744-1.33Z"/><path d="m950.03,510.097l.07,1.594c.969-1.219,2.234-1.828,3.797-1.828,2.68,0,4.031,1.512,4.055,4.535v8.379h-2.168v-8.391c-.008-.914-.217-1.59-.627-2.027s-1.049-.656-1.916-.656c-.703,0-1.32.188-1.852.562s-.945.867-1.242,1.477v9.035h-2.168v-12.68h2.051Z"/><path d="m966.483,523.011c-1.719,0-3.117-.564-4.195-1.693s-1.617-2.639-1.617-4.529v-.398c0-1.258.24-2.381.721-3.369s1.152-1.762,2.016-2.32,1.799-.838,2.807-.838c1.648,0,2.93.543,3.844,1.629s1.371,2.641,1.371,4.664v.902h-8.59c.031,1.25.396,2.26,1.096,3.029s1.588,1.154,2.666,1.154c.766,0,1.414-.156,1.945-.469s.996-.727,1.395-1.242l1.324,1.031c-1.062,1.633-2.656,2.449-4.781,2.449Zm-.27-11.367c-.875,0-1.609.318-2.203.955s-.961,1.529-1.102,2.678h6.352v-.164c-.062-1.102-.359-1.955-.891-2.561s-1.25-.908-2.156-.908Z"/><path d="m979.198,523.011c-1.719,0-3.117-.564-4.195-1.693s-1.617-2.639-1.617-4.529v-.398c0-1.258.24-2.381.721-3.369s1.152-1.762,2.016-2.32,1.799-.838,2.807-.838c1.648,0,2.93.543,3.844,1.629s1.371,2.641,1.371,4.664v.902h-8.59c.031,1.25.396,2.26,1.096,3.029s1.588,1.154,2.666,1.154c.766,0,1.414-.156,1.945-.469s.996-.727,1.395-1.242l1.324,1.031c-1.062,1.633-2.656,2.449-4.781,2.449Zm-.27-11.367c-.875,0-1.609.318-2.203.955s-.961,1.529-1.102,2.678h6.352v-.164c-.062-1.102-.359-1.955-.891-2.561s-1.25-.908-2.156-.908Z"/><path d="m986.124,516.332c0-1.945.461-3.51,1.383-4.693s2.129-1.775,3.621-1.775c1.484,0,2.66.508,3.527,1.523v-6.609h2.168v18h-1.992l-.105-1.359c-.867,1.062-2.074,1.594-3.621,1.594-1.469,0-2.666-.602-3.592-1.805s-1.389-2.773-1.389-4.711v-.164Zm2.168.246c0,1.438.297,2.562.891,3.375s1.414,1.219,2.461,1.219c1.375,0,2.379-.617,3.012-1.852v-5.824c-.648-1.195-1.645-1.793-2.988-1.793-1.062,0-1.891.41-2.484,1.23s-.891,2.035-.891,3.645Z"/><path d="m1002.542,522.777h-2.168v-18h2.168v18Z"/><path d="m1011.272,523.011c-1.719,0-3.117-.564-4.195-1.693s-1.617-2.639-1.617-4.529v-.398c0-1.258.24-2.381.721-3.369s1.152-1.762,2.016-2.32,1.799-.838,2.807-.838c1.648,0,2.93.543,3.844,1.629s1.371,2.641,1.371,4.664v.902h-8.59c.031,1.25.396,2.26,1.096,3.029s1.588,1.154,2.666,1.154c.766,0,1.414-.156,1.945-.469s.996-.727,1.395-1.242l1.324,1.031c-1.062,1.633-2.656,2.449-4.781,2.449Zm-.27-11.367c-.875,0-1.609.318-2.203.955s-.961,1.529-1.102,2.678h6.352v-.164c-.062-1.102-.359-1.955-.891-2.561s-1.25-.908-2.156-.908Z"/><path d="m843.366,535.827v3.07h2.367v1.676h-2.367v7.873c0,.509.105.89.316,1.144.211.255.57.382,1.078.382.25,0,.594-.047,1.031-.141v1.747c-.57.155-1.125.233-1.664.233-.969,0-1.699-.293-2.191-.879s-.738-1.418-.738-2.496v-7.863h-2.309v-1.676h2.309v-3.07h2.168Z"/><path d="m856.093,550.323c-.844.992-2.082,1.488-3.715,1.488-1.352,0-2.381-.393-3.088-1.178s-1.064-1.947-1.072-3.486v-8.25h2.168v8.191c0,1.922.781,2.883,2.344,2.883,1.656,0,2.758-.617,3.305-1.852v-9.223h2.168v12.68h-2.062l-.047-1.254Z"/><path d="m867.624,540.842c-.328-.055-.684-.082-1.066-.082-1.422,0-2.387.605-2.895,1.816v9h-2.168v-12.68h2.109l.035,1.465c.711-1.133,1.719-1.699,3.023-1.699.422,0,.742.055.961.164v2.016Z"/><path d="m871.667,538.897l.07,1.594c.969-1.219,2.234-1.828,3.797-1.828,2.68,0,4.031,1.512,4.055,4.535v8.379h-2.168v-8.391c-.008-.914-.217-1.59-.627-2.027s-1.049-.656-1.916-.656c-.703,0-1.32.188-1.852.562s-.945.867-1.242,1.477v9.035h-2.168v-12.68h2.051Z"/><path d="m890.241,548.213c0-.586-.221-1.041-.662-1.365s-1.211-.604-2.309-.838-1.969-.516-2.613-.844-1.121-.719-1.43-1.172-.463-.992-.463-1.617c0-1.039.439-1.918,1.318-2.637s2.002-1.078,3.369-1.078c1.438,0,2.604.371,3.498,1.113s1.342,1.691,1.342,2.848h-2.18c0-.594-.252-1.105-.756-1.535s-1.139-.645-1.904-.645c-.789,0-1.406.172-1.852.516s-.668.793-.668,1.348c0,.523.207.918.621,1.184s1.162.52,2.244.762,1.959.531,2.631.867,1.17.74,1.494,1.213.486,1.049.486,1.729c0,1.133-.453,2.041-1.359,2.725s-2.082,1.025-3.527,1.025c-1.016,0-1.914-.18-2.695-.539s-1.393-.861-1.834-1.506-.662-1.342-.662-2.092h2.168c.039.727.33,1.303.873,1.729s1.26.639,2.15.639c.82,0,1.479-.166,1.975-.498s.744-.775.744-1.33Z"/><path d="m911.886,545.378c0,1.93-.441,3.484-1.324,4.664s-2.078,1.77-3.586,1.77c-1.539,0-2.75-.488-3.633-1.465v6.105h-2.168v-17.555h1.98l.105,1.406c.883-1.094,2.109-1.641,3.68-1.641,1.523,0,2.729.574,3.615,1.723s1.33,2.746,1.33,4.793v.199Zm-2.168-.246c0-1.43-.305-2.559-.914-3.387s-1.445-1.242-2.508-1.242c-1.312,0-2.297.582-2.953,1.746v6.059c.648,1.156,1.641,1.734,2.977,1.734,1.039,0,1.865-.412,2.479-1.236s.92-2.049.92-3.674Z"/><path d="m919.901,551.811c-1.719,0-3.117-.564-4.195-1.693s-1.617-2.639-1.617-4.529v-.398c0-1.258.24-2.381.721-3.369s1.152-1.762,2.016-2.32,1.799-.838,2.807-.838c1.648,0,2.93.543,3.844,1.629s1.371,2.641,1.371,4.664v.902h-8.59c.031,1.25.396,2.26,1.096,3.029s1.588,1.154,2.666,1.154c.766,0,1.414-.156,1.945-.469s.996-.727,1.395-1.242l1.324,1.031c-1.062,1.633-2.656,2.449-4.781,2.449Zm-.27-11.367c-.875,0-1.609.318-2.203.955s-.961,1.529-1.102,2.678h6.352v-.164c-.062-1.102-.359-1.955-.891-2.561s-1.25-.908-2.156-.908Z"/><path d="m933.483,540.842c-.328-.055-.684-.082-1.066-.082-1.422,0-2.387.605-2.895,1.816v9h-2.168v-12.68h2.109l.035,1.465c.711-1.133,1.719-1.699,3.023-1.699.422,0,.742.055.961.164v2.016Z"/><path d="m946.187,545.378c0,1.93-.441,3.484-1.324,4.664s-2.078,1.77-3.586,1.77c-1.539,0-2.75-.488-3.633-1.465v6.105h-2.168v-17.555h1.98l.105,1.406c.883-1.094,2.109-1.641,3.68-1.641,1.523,0,2.729.574,3.615,1.723s1.33,2.746,1.33,4.793v.199Zm-2.168-.246c0-1.43-.305-2.559-.914-3.387s-1.445-1.242-2.508-1.242c-1.312,0-2.297.582-2.953,1.746v6.059c.648,1.156,1.641,1.734,2.977,1.734,1.039,0,1.865-.412,2.479-1.236s.92-2.049.92-3.674Z"/><path d="m954.202,551.811c-1.719,0-3.117-.564-4.195-1.693s-1.617-2.639-1.617-4.529v-.398c0-1.258.24-2.381.721-3.369s1.152-1.762,2.016-2.32,1.799-.838,2.807-.838c1.648,0,2.93.543,3.844,1.629s1.371,2.641,1.371,4.664v.902h-8.59c.031,1.25.396,2.26,1.096,3.029s1.588,1.154,2.666,1.154c.766,0,1.414-.156,1.945-.469s.996-.727,1.395-1.242l1.324,1.031c-1.062,1.633-2.656,2.449-4.781,2.449Zm-.27-11.367c-.875,0-1.609.318-2.203.955s-.961,1.529-1.102,2.678h6.352v-.164c-.062-1.102-.359-1.955-.891-2.561s-1.25-.908-2.156-.908Z"/><path d="m963.706,538.897l.07,1.594c.969-1.219,2.234-1.828,3.797-1.828,2.68,0,4.031,1.512,4.055,4.535v8.379h-2.168v-8.391c-.008-.914-.217-1.59-.627-2.027s-1.049-.656-1.916-.656c-.703,0-1.32.188-1.852.562s-.945.867-1.242,1.477v9.035h-2.168v-12.68h2.051Z"/><path d="m974.37,545.131c0-1.945.461-3.51,1.383-4.693s2.129-1.775,3.621-1.775c1.484,0,2.66.508,3.527,1.523v-6.609h2.168v18h-1.992l-.105-1.359c-.867,1.062-2.074,1.594-3.621,1.594-1.469,0-2.666-.602-3.592-1.805s-1.389-2.773-1.389-4.711v-.164Zm2.168.246c0,1.438.297,2.562.891,3.375s1.414,1.219,2.461,1.219c1.375,0,2.379-.617,3.012-1.852v-5.824c-.648-1.195-1.645-1.793-2.988-1.793-1.062,0-1.891.41-2.484,1.23s-.891,2.035-.891,3.645Z"/><path d="m988.444,535.534c0-.352.107-.648.322-.891s.533-.363.955-.363.742.121.961.363.328.539.328.891-.109.645-.328.879-.539.352-.961.352-.74-.117-.955-.352-.322-.527-.322-.879Zm2.344,16.043h-2.168v-12.68h2.168v12.68Z"/><path d="m999.343,550.042c.773,0,1.449-.234,2.027-.703s.898-1.055.961-1.758h2.051c-.039.727-.289,1.418-.75,2.074s-1.076,1.18-1.846,1.57-1.584.586-2.443.586c-1.727,0-3.1-.576-4.119-1.729s-1.529-2.729-1.529-4.729v-.363c0-1.234.227-2.332.68-3.293s1.104-1.707,1.951-2.238,1.85-.797,3.006-.797c1.422,0,2.604.426,3.545,1.277s1.443,1.957,1.506,3.316h-2.051c-.062-.82-.373-1.494-.932-2.021s-1.248-.791-2.068-.791c-1.102,0-1.955.396-2.561,1.189s-.908,1.939-.908,3.439v.41c0,1.461.301,2.586.902,3.375s1.461,1.184,2.578,1.184Z"/><path d="m1014.647,550.323c-.844.992-2.082,1.488-3.715,1.488-1.352,0-2.381-.393-3.088-1.178s-1.064-1.947-1.072-3.486v-8.25h2.168v8.191c0,1.922.781,2.883,2.344,2.883,1.656,0,2.758-.617,3.305-1.852v-9.223h2.168v12.68h-2.062l-.047-1.254Z"/><path d="m1022.405,551.577h-2.168v-18h2.168v18Z"/><path d="m1033.702,551.577c-.125-.25-.227-.695-.305-1.336-1.008,1.047-2.211,1.57-3.609,1.57-1.25,0-2.275-.354-3.076-1.061s-1.201-1.604-1.201-2.689c0-1.32.502-2.346,1.506-3.076s2.416-1.096,4.236-1.096h2.109v-.996c0-.758-.227-1.361-.68-1.811s-1.121-.674-2.004-.674c-.773,0-1.422.195-1.945.586s-.785.863-.785,1.418h-2.18c0-.633.225-1.244.674-1.834s1.059-1.057,1.828-1.4,1.615-.516,2.537-.516c1.461,0,2.605.365,3.434,1.096s1.258,1.736,1.289,3.018v5.836c0,1.164.148,2.09.445,2.777v.188h-2.273Zm-3.598-1.652c.68,0,1.324-.176,1.934-.527s1.051-.809,1.324-1.371v-2.602h-1.699c-2.656,0-3.984.777-3.984,2.332,0,.68.227,1.211.68,1.594s1.035.574,1.746.574Z"/><path d="m1045.058,540.842c-.328-.055-.684-.082-1.066-.082-1.422,0-2.387.605-2.895,1.816v9h-2.168v-12.68h2.109l.035,1.465c.711-1.133,1.719-1.699,3.023-1.699.422,0,.742.055.961.164v2.016Z"/><path d="m843.366,564.627v3.07h2.367v1.676h-2.367v7.873c0,.509.105.891.316,1.145s.57.381,1.078.381c.25,0,.594-.047,1.031-.141v1.748c-.57.155-1.125.232-1.664.232-.969,0-1.699-.293-2.191-.879s-.738-1.418-.738-2.496v-7.863h-2.309v-1.676h2.309v-3.07h2.168Z"/><path d="m847.456,573.92c0-1.242.244-2.359.732-3.352s1.168-1.758,2.039-2.297,1.865-.809,2.982-.809c1.727,0,3.123.598,4.189,1.793s1.6,2.785,1.6,4.77v.152c0,1.234-.236,2.342-.709,3.322s-1.148,1.744-2.027,2.291-1.889.82-3.029.82c-1.719,0-3.111-.598-4.178-1.793s-1.6-2.777-1.6-4.746v-.152Zm2.18.258c0,1.406.326,2.535.979,3.387s1.525,1.277,2.619,1.277c1.102,0,1.977-.432,2.625-1.295s.973-2.072.973-3.627c0-1.391-.33-2.518-.99-3.381s-1.537-1.295-2.631-1.295c-1.07,0-1.934.426-2.59,1.277s-.984,2.07-.984,3.656Z"/><path d="m870.601,564.627v3.07h2.367v1.676h-2.367v7.873c0,.509.105.891.316,1.145s.57.381,1.078.381c.25,0,.594-.047,1.031-.141v1.748c-.57.155-1.125.232-1.664.232-.969,0-1.699-.293-2.191-.879s-.738-1.418-.738-2.496v-7.863h-2.309v-1.676h2.309v-3.07h2.168Z"/><path d="m877.667,569.232c.961-1.18,2.211-1.77,3.75-1.77,2.68,0,4.031,1.512,4.055,4.535v8.379h-2.168v-8.391c-.008-.914-.217-1.59-.627-2.027s-1.049-.656-1.916-.656c-.703,0-1.32.188-1.852.562s-.945.867-1.242,1.477v9.035h-2.168v-18h2.168v6.855Z"/><path d="m893.979,580.611c-1.719,0-3.117-.564-4.195-1.693s-1.617-2.639-1.617-4.529v-.398c0-1.258.24-2.381.721-3.369s1.152-1.762,2.016-2.32,1.799-.838,2.807-.838c1.648,0,2.93.543,3.844,1.629s1.371,2.641,1.371,4.664v.902h-8.59c.031,1.25.396,2.26,1.096,3.029s1.588,1.154,2.666,1.154c.766,0,1.414-.156,1.945-.469s.996-.727,1.395-1.242l1.324,1.031c-1.062,1.633-2.656,2.449-4.781,2.449Zm-.27-11.367c-.875,0-1.609.318-2.203.955s-.961,1.529-1.102,2.678h6.352v-.164c-.062-1.102-.359-1.955-.891-2.561s-1.25-.908-2.156-.908Z"/><path d="m912.46,578.841c.773,0,1.449-.234,2.027-.703s.898-1.055.961-1.758h2.051c-.039.727-.289,1.418-.75,2.074s-1.076,1.18-1.846,1.57-1.584.586-2.443.586c-1.727,0-3.1-.576-4.119-1.729s-1.529-2.729-1.529-4.729v-.363c0-1.234.227-2.332.68-3.293s1.104-1.707,1.951-2.238,1.85-.797,3.006-.797c1.422,0,2.604.426,3.545,1.277s1.443,1.957,1.506,3.316h-2.051c-.062-.82-.373-1.494-.932-2.021s-1.248-.791-2.068-.791c-1.102,0-1.955.396-2.561,1.189s-.908,1.939-.908,3.439v.41c0,1.461.301,2.586.902,3.375s1.461,1.184,2.578,1.184Z"/><path d="m919.362,573.92c0-1.242.244-2.359.732-3.352s1.168-1.758,2.039-2.297,1.865-.809,2.982-.809c1.727,0,3.123.598,4.189,1.793s1.6,2.785,1.6,4.77v.152c0,1.234-.236,2.342-.709,3.322s-1.148,1.744-2.027,2.291-1.889.82-3.029.82c-1.719,0-3.111-.598-4.178-1.793s-1.6-2.777-1.6-4.746v-.152Zm2.18.258c0,1.406.326,2.535.979,3.387s1.525,1.277,2.619,1.277c1.102,0,1.977-.432,2.625-1.295s.973-2.072.973-3.627c0-1.391-.33-2.518-.99-3.381s-1.537-1.295-2.631-1.295c-1.07,0-1.934.426-2.59,1.277s-.984,2.07-.984,3.656Z"/><path d="m935.675,567.697l.07,1.594c.969-1.219,2.234-1.828,3.797-1.828,2.68,0,4.031,1.512,4.055,4.535v8.379h-2.168v-8.391c-.008-.914-.217-1.59-.627-2.027s-1.049-.656-1.916-.656c-.703,0-1.32.188-1.852.562s-.945.867-1.242,1.477v9.035h-2.168v-12.68h2.051Z"/><path d="m946.339,573.931c0-1.945.461-3.51,1.383-4.693s2.129-1.775,3.621-1.775c1.484,0,2.66.508,3.527,1.523v-6.609h2.168v18h-1.992l-.105-1.359c-.867,1.062-2.074,1.594-3.621,1.594-1.469,0-2.666-.602-3.592-1.805s-1.389-2.773-1.389-4.711v-.164Zm2.168.246c0,1.438.297,2.562.891,3.375s1.414,1.219,2.461,1.219c1.375,0,2.379-.617,3.012-1.852v-5.824c-.648-1.195-1.645-1.793-2.988-1.793-1.062,0-1.891.41-2.484,1.23s-.891,2.035-.891,3.645Z"/><path d="m968.229,579.123c-.844.992-2.082,1.488-3.715,1.488-1.352,0-2.381-.393-3.088-1.178s-1.064-1.947-1.072-3.486v-8.25h2.168v8.191c0,1.922.781,2.883,2.344,2.883,1.656,0,2.758-.617,3.305-1.852v-9.223h2.168v12.68h-2.062l-.047-1.254Z"/><path d="m978.718,578.841c.773,0,1.449-.234,2.027-.703s.898-1.055.961-1.758h2.051c-.039.727-.289,1.418-.75,2.074s-1.076,1.18-1.846,1.57-1.584.586-2.443.586c-1.727,0-3.1-.576-4.119-1.729s-1.529-2.729-1.529-4.729v-.363c0-1.234.227-2.332.68-3.293s1.104-1.707,1.951-2.238,1.85-.797,3.006-.797c1.422,0,2.604.426,3.545,1.277s1.443,1.957,1.506,3.316h-2.051c-.062-.82-.373-1.494-.932-2.021s-1.248-.791-2.068-.791c-1.102,0-1.955.396-2.561,1.189s-.908,1.939-.908,3.439v.41c0,1.461.301,2.586.902,3.375s1.461,1.184,2.578,1.184Z"/><path d="m989.136,564.627v3.07h2.367v1.676h-2.367v7.873c0,.509.105.891.316,1.145s.57.381,1.078.381c.25,0,.594-.047,1.031-.141v1.748c-.57.155-1.125.232-1.664.232-.969,0-1.699-.293-2.191-.879s-.738-1.418-.738-2.496v-7.863h-2.309v-1.676h2.309v-3.07h2.168Z"/><path d="m993.226,573.92c0-1.242.244-2.359.732-3.352s1.168-1.758,2.039-2.297,1.865-.809,2.982-.809c1.727,0,3.123.598,4.189,1.793s1.6,2.785,1.6,4.77v.152c0,1.234-.236,2.342-.709,3.322s-1.148,1.744-2.027,2.291-1.889.82-3.029.82c-1.719,0-3.111-.598-4.178-1.793s-1.6-2.777-1.6-4.746v-.152Zm2.18.258c0,1.406.326,2.535.979,3.387s1.525,1.277,2.619,1.277c1.102,0,1.977-.432,2.625-1.295s.973-2.072.973-3.627c0-1.391-.33-2.518-.99-3.381s-1.537-1.295-2.631-1.295c-1.07,0-1.934.426-2.59,1.277s-.984,2.07-.984,3.656Z"/><path d="m1013.616,569.642c-.328-.055-.684-.082-1.066-.082-1.422,0-2.387.605-2.895,1.816v9h-2.168v-12.68h2.109l.035,1.465c.711-1.133,1.719-1.699,3.023-1.699.422,0,.742.055.961.164v2.016Z"/><rect x="375.026" y="238.542" width="389.949" height="42.314" rx="9.669" ry="9.669" transform="translate(310.301 829.699) rotate(-90)" fill="#6a888a"/><path d="m619.525,153.41h-2.262l-8.59-13.148v13.148h-2.262v-17.062h2.262l8.613,13.207v-13.207h2.238v17.062Z"/><path d="m622.607,146.953c0-1.242.244-2.359.732-3.352s1.168-1.758,2.039-2.297,1.865-.809,2.982-.809c1.727,0,3.123.598,4.189,1.793s1.6,2.785,1.6,4.77v.152c0,1.234-.236,2.342-.709,3.322s-1.148,1.744-2.027,2.291-1.889.82-3.029.82c-1.719,0-3.111-.598-4.178-1.793s-1.6-2.777-1.6-4.746v-.152Zm2.18.258c0,1.406.326,2.535.979,3.387s1.525,1.277,2.619,1.277c1.102,0,1.977-.432,2.625-1.295s.973-2.072.973-3.627c0-1.391-.33-2.518-.99-3.381s-1.537-1.295-2.631-1.295c-1.07,0-1.934.426-2.59,1.277s-.984,2.07-.984,3.656Z"/><path d="m647.896,151.875c.773,0,1.449-.234,2.027-.703s.898-1.055.961-1.758h2.051c-.039.727-.289,1.418-.75,2.074s-1.076,1.18-1.846,1.57-1.584.586-2.443.586c-1.727,0-3.1-.576-4.119-1.729s-1.529-2.729-1.529-4.729v-.363c0-1.234.227-2.332.68-3.293s1.104-1.707,1.951-2.238,1.85-.797,3.006-.797c1.422,0,2.604.426,3.545,1.277s1.443,1.957,1.506,3.316h-2.051c-.062-.82-.373-1.494-.932-2.021s-1.248-.791-2.068-.791c-1.102,0-1.955.396-2.561,1.189s-.908,1.939-.908,3.439v.41c0,1.461.301,2.586.902,3.375s1.461,1.184,2.578,1.184Z"/><path d="m663.201,152.156c-.844.992-2.082,1.488-3.715,1.488-1.352,0-2.381-.393-3.088-1.178s-1.064-1.947-1.072-3.486v-8.25h2.168v8.191c0,1.922.781,2.883,2.344,2.883,1.656,0,2.758-.617,3.305-1.852v-9.223h2.168v12.68h-2.062l-.047-1.254Z"/><path d="m674.732,142.675c-.328-.055-.684-.082-1.066-.082-1.422,0-2.387.605-2.895,1.816v9h-2.168v-12.68h2.109l.035,1.465c.711-1.133,1.719-1.699,3.023-1.699.422,0,.742.055.961.164v2.016Z"/><path d="m682.854,142.675c-.328-.055-.684-.082-1.066-.082-1.422,0-2.387.605-2.895,1.816v9h-2.168v-12.68h2.109l.035,1.465c.711-1.133,1.719-1.699,3.023-1.699.422,0,.742.055.961.164v2.016Z"/><path d="m689.885,153.644c-1.719,0-3.117-.564-4.195-1.693s-1.617-2.639-1.617-4.529v-.398c0-1.258.24-2.381.721-3.369s1.152-1.762,2.016-2.32,1.799-.838,2.807-.838c1.648,0,2.93.543,3.844,1.629s1.371,2.641,1.371,4.664v.902h-8.59c.031,1.25.396,2.26,1.096,3.029s1.588,1.154,2.666,1.154c.766,0,1.414-.156,1.945-.469s.996-.727,1.395-1.242l1.324,1.031c-1.062,1.633-2.656,2.449-4.781,2.449Zm-.27-11.367c-.875,0-1.609.318-2.203.955s-.961,1.529-1.102,2.678h6.352v-.164c-.062-1.102-.359-1.955-.891-2.561s-1.25-.908-2.156-.908Z"/><path d="m699.389,140.73l.07,1.594c.969-1.219,2.234-1.828,3.797-1.828,2.68,0,4.031,1.512,4.055,4.535v8.379h-2.168v-8.391c-.008-.914-.217-1.59-.627-2.027s-1.049-.656-1.916-.656c-.703,0-1.32.188-1.852.562s-.945.867-1.242,1.477v9.035h-2.168v-12.68h2.051Z"/><path d="m713.521,137.66v3.07h2.367v1.676h-2.367v7.873c0,.509.105.89.316,1.145.211.254.57.381,1.078.381.25,0,.594-.047,1.031-.141v1.748c-.57.154-1.125.232-1.664.232-.969,0-1.699-.293-2.191-.879s-.738-1.418-.738-2.496v-7.863h-2.309v-1.676h2.309v-3.07h2.168Z"/><circle cx="570" cy="318.253" r="50" fill="#fff5f5" stroke="#d12d32" stroke-miterlimit="10" stroke-width="2"/><line x1="570" y1="307.566" x2="570" y2="340.421" fill="none" stroke="#000" stroke-linecap="round" stroke-linejoin="round" stroke-width="2"/><polygon points="562.022 309.901 570 296.084 577.978 309.901 562.022 309.901"/><rect x="439.635" y="483.474" width="260.731" height="122.779" fill="#e8f5f9" stroke="#0077a2" stroke-miterlimit="10" stroke-width="2"/><path d="m474.225,517.363c-.211,1.805-.877,3.197-1.998,4.178s-2.611,1.471-4.471,1.471c-2.016,0-3.631-.723-4.846-2.168s-1.822-3.379-1.822-5.801v-1.641c0-1.586.283-2.98.85-4.184s1.369-2.127,2.408-2.771,2.242-.967,3.609-.967c1.812,0,3.266.506,4.359,1.518s1.73,2.412,1.91,4.201h-2.262c-.195-1.363-.619-2.352-1.271-2.962-.652-.611-1.564-.917-2.736-.917-1.438,0-2.564.531-3.381,1.595s-1.225,2.576-1.225,4.539v1.654c0,1.853.387,3.327,1.16,4.421.773,1.095,1.855,1.643,3.246,1.643,1.25,0,2.209-.283,2.877-.85s1.111-1.553,1.33-2.959h2.262Z"/><path d="m476.381,516.32c0-1.242.244-2.359.732-3.352s1.168-1.758,2.039-2.297,1.865-.809,2.982-.809c1.727,0,3.123.598,4.189,1.793s1.6,2.785,1.6,4.77v.152c0,1.234-.236,2.342-.709,3.322s-1.148,1.744-2.027,2.291-1.889.82-3.029.82c-1.719,0-3.111-.598-4.178-1.793s-1.6-2.777-1.6-4.746v-.152Zm2.18.258c0,1.406.326,2.535.979,3.387s1.525,1.277,2.619,1.277c1.102,0,1.977-.432,2.625-1.295s.973-2.072.973-3.627c0-1.391-.33-2.518-.99-3.381s-1.537-1.295-2.631-1.295c-1.07,0-1.934.426-2.59,1.277s-.984,2.07-.984,3.656Z"/><path d="m492.682,510.097l.059,1.406c.93-1.094,2.184-1.641,3.762-1.641,1.773,0,2.98.68,3.621,2.039.422-.609.971-1.102,1.646-1.477s1.475-.562,2.396-.562c2.781,0,4.195,1.473,4.242,4.418v8.496h-2.168v-8.367c0-.906-.207-1.584-.621-2.033s-1.109-.674-2.086-.674c-.805,0-1.473.24-2.004.721s-.84,1.127-.926,1.939v8.414h-2.18v-8.309c0-1.844-.902-2.766-2.707-2.766-1.422,0-2.395.605-2.918,1.816v9.258h-2.168v-12.68h2.051Z"/><path d="m522.389,516.578c0,1.93-.441,3.484-1.324,4.664s-2.078,1.77-3.586,1.77c-1.539,0-2.75-.488-3.633-1.465v6.105h-2.168v-17.555h1.98l.105,1.406c.883-1.094,2.109-1.641,3.68-1.641,1.523,0,2.729.574,3.615,1.723s1.33,2.746,1.33,4.793v.199Zm-2.168-.246c0-1.43-.305-2.559-.914-3.387s-1.445-1.242-2.508-1.242c-1.312,0-2.297.582-2.953,1.746v6.059c.648,1.156,1.641,1.734,2.977,1.734,1.039,0,1.865-.412,2.479-1.236s.92-2.049.92-3.674Z"/><path d="m532.971,522.777c-.125-.25-.227-.695-.305-1.336-1.008,1.047-2.211,1.57-3.609,1.57-1.25,0-2.275-.354-3.076-1.061s-1.201-1.604-1.201-2.689c0-1.32.502-2.346,1.506-3.076s2.416-1.096,4.236-1.096h2.109v-.996c0-.758-.227-1.361-.68-1.811s-1.121-.674-2.004-.674c-.773,0-1.422.195-1.945.586s-.785.863-.785,1.418h-2.18c0-.633.225-1.244.674-1.834s1.059-1.057,1.828-1.4,1.615-.516,2.537-.516c1.461,0,2.605.365,3.434,1.096s1.258,1.736,1.289,3.018v5.836c0,1.164.148,2.09.445,2.777v.188h-2.273Zm-3.598-1.652c.68,0,1.324-.176,1.934-.527s1.051-.809,1.324-1.371v-2.602h-1.699c-2.656,0-3.984.777-3.984,2.332,0,.68.227,1.211.68,1.594s1.035.574,1.746.574Z"/><path d="m545.58,519.414c0-.586-.221-1.041-.662-1.365s-1.211-.604-2.309-.838-1.969-.516-2.613-.844-1.121-.719-1.43-1.172-.463-.992-.463-1.617c0-1.039.439-1.918,1.318-2.637s2.002-1.078,3.369-1.078c1.438,0,2.604.371,3.498,1.113s1.342,1.691,1.342,2.848h-2.18c0-.594-.252-1.105-.756-1.535s-1.139-.645-1.904-.645c-.789,0-1.406.172-1.852.516s-.668.793-.668,1.348c0,.523.207.918.621,1.184s1.162.52,2.244.762,1.959.531,2.631.867,1.17.74,1.494,1.213.486,1.049.486,1.729c0,1.133-.453,2.041-1.359,2.725s-2.082,1.025-3.527,1.025c-1.016,0-1.914-.18-2.695-.539s-1.393-.861-1.834-1.506-.662-1.342-.662-2.092h2.168c.039.727.33,1.303.873,1.729s1.26.639,2.15.639c.82,0,1.479-.166,1.975-.498s.744-.775.744-1.33Z"/><path d="m557.955,519.414c0-.586-.221-1.041-.662-1.365s-1.211-.604-2.309-.838-1.969-.516-2.613-.844-1.121-.719-1.43-1.172-.463-.992-.463-1.617c0-1.039.439-1.918,1.318-2.637s2.002-1.078,3.369-1.078c1.438,0,2.604.371,3.498,1.113s1.342,1.691,1.342,2.848h-2.18c0-.594-.252-1.105-.756-1.535s-1.139-.645-1.904-.645c-.789,0-1.406.172-1.852.516s-.668.793-.668,1.348c0,.523.207.918.621,1.184s1.162.52,2.244.762,1.959.531,2.631.867,1.17.74,1.494,1.213.486,1.049.486,1.729c0,1.133-.453,2.041-1.359,2.725s-2.082,1.025-3.527,1.025c-1.016,0-1.914-.18-2.695-.539s-1.393-.861-1.834-1.506-.662-1.342-.662-2.092h2.168c.039.727.33,1.303.873,1.729s1.26.639,2.15.639c.82,0,1.479-.166,1.975-.498s.744-.775.744-1.33Z"/><path d="m570.939,510.097l.07,1.594c.969-1.219,2.234-1.828,3.797-1.828,2.68,0,4.031,1.512,4.055,4.535v8.379h-2.168v-8.391c-.008-.914-.217-1.59-.627-2.027s-1.049-.656-1.916-.656c-.703,0-1.32.188-1.852.562s-.945.867-1.242,1.477v9.035h-2.168v-12.68h2.051Z"/><path d="m587.393,523.011c-1.719,0-3.117-.564-4.195-1.693s-1.617-2.639-1.617-4.529v-.398c0-1.258.24-2.381.721-3.369s1.152-1.762,2.016-2.32,1.799-.838,2.807-.838c1.648,0,2.93.543,3.844,1.629s1.371,2.641,1.371,4.664v.902h-8.59c.031,1.25.396,2.26,1.096,3.029s1.588,1.154,2.666,1.154c.766,0,1.414-.156,1.945-.469s.996-.727,1.395-1.242l1.324,1.031c-1.062,1.633-2.656,2.449-4.781,2.449Zm-.27-11.367c-.875,0-1.609.318-2.203.955s-.961,1.529-1.102,2.678h6.352v-.164c-.062-1.102-.359-1.955-.891-2.561s-1.25-.908-2.156-.908Z"/><path d="m600.107,523.011c-1.719,0-3.117-.564-4.195-1.693s-1.617-2.639-1.617-4.529v-.398c0-1.258.24-2.381.721-3.369s1.152-1.762,2.016-2.32,1.799-.838,2.807-.838c1.648,0,2.93.543,3.844,1.629s1.371,2.641,1.371,4.664v.902h-8.59c.031,1.25.396,2.26,1.096,3.029s1.588,1.154,2.666,1.154c.766,0,1.414-.156,1.945-.469s.996-.727,1.395-1.242l1.324,1.031c-1.062,1.633-2.656,2.449-4.781,2.449Zm-.27-11.367c-.875,0-1.609.318-2.203.955s-.961,1.529-1.102,2.678h6.352v-.164c-.062-1.102-.359-1.955-.891-2.561s-1.25-.908-2.156-.908Z"/><path d="m607.033,516.332c0-1.945.461-3.51,1.383-4.693s2.129-1.775,3.621-1.775c1.484,0,2.66.508,3.527,1.523v-6.609h2.168v18h-1.992l-.105-1.359c-.867,1.062-2.074,1.594-3.621,1.594-1.469,0-2.666-.602-3.592-1.805s-1.389-2.773-1.389-4.711v-.164Zm2.168.246c0,1.438.297,2.562.891,3.375s1.414,1.219,2.461,1.219c1.375,0,2.379-.617,3.012-1.852v-5.824c-.648-1.195-1.645-1.793-2.988-1.793-1.062,0-1.891.41-2.484,1.23s-.891,2.035-.891,3.645Z"/><path d="m623.451,522.777h-2.168v-18h2.168v18Z"/><path d="m632.182,523.011c-1.719,0-3.117-.564-4.195-1.693s-1.617-2.639-1.617-4.529v-.398c0-1.258.24-2.381.721-3.369s1.152-1.762,2.016-2.32,1.799-.838,2.807-.838c1.648,0,2.93.543,3.844,1.629s1.371,2.641,1.371,4.664v.902h-8.59c.031,1.25.396,2.26,1.096,3.029s1.588,1.154,2.666,1.154c.766,0,1.414-.156,1.945-.469s.996-.727,1.395-1.242l1.324,1.031c-1.062,1.633-2.656,2.449-4.781,2.449Zm-.27-11.367c-.875,0-1.609.318-2.203.955s-.961,1.529-1.102,2.678h6.352v-.164c-.062-1.102-.359-1.955-.891-2.561s-1.25-.908-2.156-.908Z"/><path d="m467.463,540.842c-.328-.055-.684-.082-1.066-.082-1.422,0-2.387.605-2.895,1.816v9h-2.168v-12.68h2.109l.035,1.465c.711-1.133,1.719-1.699,3.023-1.699.422,0,.742.055.961.164v2.016Z"/><path d="m474.494,551.811c-1.719,0-3.117-.564-4.195-1.693s-1.617-2.639-1.617-4.529v-.398c0-1.258.24-2.381.721-3.369s1.152-1.762,2.016-2.32,1.799-.838,2.807-.838c1.648,0,2.93.543,3.844,1.629s1.371,2.641,1.371,4.664v.902h-8.59c.031,1.25.396,2.26,1.096,3.029s1.588,1.154,2.666,1.154c.766,0,1.414-.156,1.945-.469s.996-.727,1.395-1.242l1.324,1.031c-1.062,1.633-2.656,2.449-4.781,2.449Zm-.27-11.367c-.875,0-1.609.318-2.203.955s-.961,1.529-1.102,2.678h6.352v-.164c-.062-1.102-.359-1.955-.891-2.561s-1.25-.908-2.156-.908Z"/><path d="m484.889,535.827v3.07h2.367v1.676h-2.367v7.873c0,.509.105.89.316,1.144.211.255.57.382,1.078.382.25,0,.594-.047,1.031-.141v1.747c-.57.155-1.125.233-1.664.233-.969,0-1.699-.293-2.191-.879s-.738-1.418-.738-2.496v-7.863h-2.309v-1.676h2.309v-3.07h2.168Z"/><path d="m497.615,550.323c-.844.992-2.082,1.488-3.715,1.488-1.352,0-2.381-.393-3.088-1.178s-1.064-1.947-1.072-3.486v-8.25h2.168v8.191c0,1.922.781,2.883,2.344,2.883,1.656,0,2.758-.617,3.305-1.852v-9.223h2.168v12.68h-2.062l-.047-1.254Z"/><path d="m509.146,540.842c-.328-.055-.684-.082-1.066-.082-1.422,0-2.387.605-2.895,1.816v9h-2.168v-12.68h2.109l.035,1.465c.711-1.133,1.719-1.699,3.023-1.699.422,0,.742.055.961.164v2.016Z"/><path d="m513.189,538.897l.07,1.594c.969-1.219,2.234-1.828,3.797-1.828,2.68,0,4.031,1.512,4.055,4.535v8.379h-2.168v-8.391c-.008-.914-.217-1.59-.627-2.027s-1.049-.656-1.916-.656c-.703,0-1.32.188-1.852.562s-.945.867-1.242,1.477v9.035h-2.168v-12.68h2.051Z"/><path d="m531.764,548.213c0-.586-.221-1.041-.662-1.365s-1.211-.604-2.309-.838-1.969-.516-2.613-.844-1.121-.719-1.43-1.172-.463-.992-.463-1.617c0-1.039.439-1.918,1.318-2.637s2.002-1.078,3.369-1.078c1.438,0,2.604.371,3.498,1.113s1.342,1.691,1.342,2.848h-2.18c0-.594-.252-1.105-.756-1.535s-1.139-.645-1.904-.645c-.789,0-1.406.172-1.852.516s-.668.793-.668,1.348c0,.523.207.918.621,1.184s1.162.52,2.244.762,1.959.531,2.631.867,1.17.74,1.494,1.213.486,1.049.486,1.729c0,1.133-.453,2.041-1.359,2.725s-2.082,1.025-3.527,1.025c-1.016,0-1.914-.18-2.695-.539s-1.393-.861-1.834-1.506-.662-1.342-.662-2.092h2.168c.039.727.33,1.303.873,1.729s1.26.639,2.15.639c.82,0,1.479-.166,1.975-.498s.744-.775.744-1.33Z"/><path d="m545.639,535.827v3.07h2.367v1.676h-2.367v7.873c0,.509.105.89.316,1.144.211.255.57.382,1.078.382.25,0,.594-.047,1.031-.141v1.747c-.57.155-1.125.233-1.664.233-.969,0-1.699-.293-2.191-.879s-.738-1.418-.738-2.496v-7.863h-2.309v-1.676h2.309v-3.07h2.168Z"/><path d="m549.729,545.12c0-1.242.244-2.359.732-3.352s1.168-1.758,2.039-2.297,1.865-.809,2.982-.809c1.727,0,3.123.598,4.189,1.793s1.6,2.785,1.6,4.77v.152c0,1.234-.236,2.342-.709,3.322s-1.148,1.744-2.027,2.291-1.889.82-3.029.82c-1.719,0-3.111-.598-4.178-1.793s-1.6-2.777-1.6-4.746v-.152Zm2.18.258c0,1.406.326,2.535.979,3.387s1.525,1.277,2.619,1.277c1.102,0,1.977-.432,2.625-1.295s.973-2.072.973-3.627c0-1.391-.33-2.518-.99-3.381s-1.537-1.295-2.631-1.295c-1.07,0-1.934.426-2.59,1.277s-.984,2.07-.984,3.656Z"/><path d="m569.943,535.534c0-.352.107-.648.322-.891s.533-.363.955-.363.742.121.961.363.328.539.328.891-.109.645-.328.879-.539.352-.961.352-.74-.117-.955-.352-.322-.527-.322-.879Zm2.344,16.043h-2.168v-12.68h2.168v12.68Z"/><path d="m578.697,535.827v3.07h2.367v1.676h-2.367v7.873c0,.509.105.89.316,1.144.211.255.57.382,1.078.382.25,0,.594-.047,1.031-.141v1.747c-.57.155-1.125.233-1.664.233-.969,0-1.699-.293-2.191-.879s-.738-1.418-.738-2.496v-7.863h-2.309v-1.676h2.309v-3.07h2.168Z"/><path d="m590.979,548.213c0-.586-.221-1.041-.662-1.365s-1.211-.604-2.309-.838-1.969-.516-2.613-.844-1.121-.719-1.43-1.172-.463-.992-.463-1.617c0-1.039.439-1.918,1.318-2.637s2.002-1.078,3.369-1.078c1.438,0,2.604.371,3.498,1.113s1.342,1.691,1.342,2.848h-2.18c0-.594-.252-1.105-.756-1.535s-1.139-.645-1.904-.645c-.789,0-1.406.172-1.852.516s-.668.793-.668,1.348c0,.523.207.918.621,1.184s1.162.52,2.244.762,1.959.531,2.631.867,1.17.74,1.494,1.213.486,1.049.486,1.729c0,1.133-.453,2.041-1.359,2.725s-2.082,1.025-3.527,1.025c-1.016,0-1.914-.18-2.695-.539s-1.393-.861-1.834-1.506-.662-1.342-.662-2.092h2.168c.039.727.33,1.303.873,1.729s1.26.639,2.15.639c.82,0,1.479-.166,1.975-.498s.744-.775.744-1.33Z"/><path d="m603.963,538.897l.07,1.594c.969-1.219,2.234-1.828,3.797-1.828,2.68,0,4.031,1.512,4.055,4.535v8.379h-2.168v-8.391c-.008-.914-.217-1.59-.627-2.027s-1.049-.656-1.916-.656c-.703,0-1.32.188-1.852.562s-.945.867-1.242,1.477v9.035h-2.168v-12.68h2.051Z"/><path d="m614.58,545.12c0-1.242.244-2.359.732-3.352s1.168-1.758,2.039-2.297,1.865-.809,2.982-.809c1.727,0,3.123.598,4.189,1.793s1.6,2.785,1.6,4.77v.152c0,1.234-.236,2.342-.709,3.322s-1.148,1.744-2.027,2.291-1.889.82-3.029.82c-1.719,0-3.111-.598-4.178-1.793s-1.6-2.777-1.6-4.746v-.152Zm2.18.258c0,1.406.326,2.535.979,3.387s1.525,1.277,2.619,1.277c1.102,0,1.977-.432,2.625-1.295s.973-2.072.973-3.627c0-1.391-.33-2.518-.99-3.381s-1.537-1.295-2.631-1.295c-1.07,0-1.934.426-2.59,1.277s-.984,2.07-.984,3.656Z"/><path d="m634.971,540.842c-.328-.055-.684-.082-1.066-.082-1.422,0-2.387.605-2.895,1.816v9h-2.168v-12.68h2.109l.035,1.465c.711-1.133,1.719-1.699,3.023-1.699.422,0,.742.055.961.164v2.016Z"/><path d="m639.002,538.897l.059,1.406c.93-1.094,2.184-1.641,3.762-1.641,1.773,0,2.98.68,3.621,2.039.422-.609.971-1.102,1.646-1.477s1.475-.562,2.396-.562c2.781,0,4.195,1.473,4.242,4.418v8.496h-2.168v-8.367c0-.906-.207-1.584-.621-2.033s-1.109-.674-2.086-.674c-.805,0-1.473.24-2.004.721s-.84,1.127-.926,1.939v8.414h-2.18v-8.309c0-1.844-.902-2.766-2.707-2.766-1.422,0-2.395.605-2.918,1.816v9.258h-2.168v-12.68h2.051Z"/><path d="m665.826,551.577c-.125-.25-.227-.695-.305-1.336-1.008,1.047-2.211,1.57-3.609,1.57-1.25,0-2.275-.354-3.076-1.061s-1.201-1.604-1.201-2.689c0-1.32.502-2.346,1.506-3.076s2.416-1.096,4.236-1.096h2.109v-.996c0-.758-.227-1.361-.68-1.811s-1.121-.674-2.004-.674c-.773,0-1.422.195-1.945.586s-.785.863-.785,1.418h-2.18c0-.633.225-1.244.674-1.834s1.059-1.057,1.828-1.4,1.615-.516,2.537-.516c1.461,0,2.605.365,3.434,1.096s1.258,1.736,1.289,3.018v5.836c0,1.164.148,2.09.445,2.777v.188h-2.273Zm-3.598-1.652c.68,0,1.324-.176,1.934-.527s1.051-.809,1.324-1.371v-2.602h-1.699c-2.656,0-3.984.777-3.984,2.332,0,.68.227,1.211.68,1.594s1.035.574,1.746.574Z"/><path d="m673.408,551.577h-2.168v-18h2.168v18Z"/><path d="m460.807,573.931c0-1.945.461-3.51,1.383-4.693s2.129-1.775,3.621-1.775c1.484,0,2.66.508,3.527,1.523v-6.609h2.168v18h-1.992l-.105-1.359c-.867,1.062-2.074,1.594-3.621,1.594-1.469,0-2.666-.602-3.592-1.805s-1.389-2.773-1.389-4.711v-.164Zm2.168.246c0,1.438.297,2.562.891,3.375s1.414,1.219,2.461,1.219c1.375,0,2.379-.617,3.012-1.852v-5.824c-.648-1.195-1.645-1.793-2.988-1.793-1.062,0-1.891.41-2.484,1.23s-.891,2.035-.891,3.645Z"/><path d="m474.881,564.334c0-.352.107-.648.322-.891s.533-.363.955-.363.742.121.961.363.328.539.328.891-.109.645-.328.879-.539.352-.961.352-.74-.117-.955-.352-.322-.527-.322-.879Zm2.344,16.043h-2.168v-12.68h2.168v12.68Z"/><path d="m486.822,569.642c-.328-.055-.684-.082-1.066-.082-1.422,0-2.387.605-2.895,1.816v9h-2.168v-12.68h2.109l.035,1.465c.711-1.133,1.719-1.699,3.023-1.699.422,0,.742.055.961.164v2.016Z"/><path d="m493.854,580.611c-1.719,0-3.117-.564-4.195-1.693s-1.617-2.639-1.617-4.529v-.398c0-1.258.24-2.381.721-3.369s1.152-1.762,2.016-2.32,1.799-.838,2.807-.838c1.648,0,2.93.543,3.844,1.629s1.371,2.641,1.371,4.664v.902h-8.59c.031,1.25.396,2.26,1.096,3.029s1.588,1.154,2.666,1.154c.766,0,1.414-.156,1.945-.469s.996-.727,1.395-1.242l1.324,1.031c-1.062,1.633-2.656,2.449-4.781,2.449Zm-.27-11.367c-.875,0-1.609.318-2.203.955s-.961,1.529-1.102,2.678h6.352v-.164c-.062-1.102-.359-1.955-.891-2.561s-1.25-.908-2.156-.908Z"/><path d="m506.393,578.841c.773,0,1.449-.234,2.027-.703s.898-1.055.961-1.758h2.051c-.039.727-.289,1.418-.75,2.074s-1.076,1.18-1.846,1.57-1.584.586-2.443.586c-1.727,0-3.1-.576-4.119-1.729s-1.529-2.729-1.529-4.729v-.363c0-1.234.227-2.332.68-3.293s1.104-1.707,1.951-2.238,1.85-.797,3.006-.797c1.422,0,2.604.426,3.545,1.277s1.443,1.957,1.506,3.316h-2.051c-.062-.82-.373-1.494-.932-2.021s-1.248-.791-2.068-.791c-1.102,0-1.955.396-2.561,1.189s-.908,1.939-.908,3.439v.41c0,1.461.301,2.586.902,3.375s1.461,1.184,2.578,1.184Z"/><path d="m516.811,564.627v3.07h2.367v1.676h-2.367v7.873c0,.509.105.891.316,1.145s.57.381,1.078.381c.25,0,.594-.047,1.031-.141v1.748c-.57.155-1.125.232-1.664.232-.969,0-1.699-.293-2.191-.879s-.738-1.418-.738-2.496v-7.863h-2.309v-1.676h2.309v-3.07h2.168Z"/><path d="m521.721,564.334c0-.352.107-.648.322-.891s.533-.363.955-.363.742.121.961.363.328.539.328.891-.109.645-.328.879-.539.352-.961.352-.74-.117-.955-.352-.322-.527-.322-.879Zm2.344,16.043h-2.168v-12.68h2.168v12.68Z"/><path d="m526.959,573.92c0-1.242.244-2.359.732-3.352s1.168-1.758,2.039-2.297,1.865-.809,2.982-.809c1.727,0,3.123.598,4.189,1.793s1.6,2.785,1.6,4.77v.152c0,1.234-.236,2.342-.709,3.322s-1.148,1.744-2.027,2.291-1.889.82-3.029.82c-1.719,0-3.111-.598-4.178-1.793s-1.6-2.777-1.6-4.746v-.152Zm2.18.258c0,1.406.326,2.535.979,3.387s1.525,1.277,2.619,1.277c1.102,0,1.977-.432,2.625-1.295s.973-2.072.973-3.627c0-1.391-.33-2.518-.99-3.381s-1.537-1.295-2.631-1.295c-1.07,0-1.934.426-2.59,1.277s-.984,2.07-.984,3.656Z"/><path d="m543.271,567.697l.07,1.594c.969-1.219,2.234-1.828,3.797-1.828,2.68,0,4.031,1.512,4.055,4.535v8.379h-2.168v-8.391c-.008-.914-.217-1.59-.627-2.027s-1.049-.656-1.916-.656c-.703,0-1.32.188-1.852.562s-.945.867-1.242,1.477v9.035h-2.168v-12.68h2.051Z"/></svg>