<?xml version="1.0" encoding="UTF-8"?>
<svg id="Layer_1" data-name="Layer 1" xmlns="http://www.w3.org/2000/svg" width="1140" height="625" viewBox="0 0 1140 625">
  <defs>
    <style>
      .cls-1 {
        fill: #e8e8e8;
      }

      .cls-2 {
        fill: #b7bcbb;
      }

      .cls-3 {
        fill: #c31826;
      }

      .cls-4 {
        fill: #0c6390;
      }

      .cls-5 {
        stroke: #0c6390;
      }

      .cls-5, .cls-6 {
        fill: none;
        stroke-miterlimit: 10;
        stroke-width: 2px;
      }

      .cls-6 {
        stroke: #c31826;
      }
    </style>
  </defs>
  <path class="cls-1" d="m2.05,242.59c2.16,62.23,10.54,125.53,5.78,172.55-2.82,27.82-6.17,54.9.17,82.77,9.61,42.26,38.68,77.45,79.03,94.24,60.34,25.11,135.08,22.92,199.37,24.3,71.47,1.54,142.94-.76,214.36-3.41,90.56-3.36,181.21-7.47,271.86-5.13,84.57,2.18,171.63,23.16,255.96,11.31,91.11-12.8,113.49-88.18,105.08-170.09-5.7-55.57-10.9-109.25-7.18-165.01,4.07-61,12.36-116.98,5.17-178.06-17.12-145.39-272.65-95.38-362.8-91.45-137.84,6.01-275.96,4.21-413.73-2.68-78.29-3.91-158.62-5-235.73,11.21C11.13,45.89-1.41,142.86,2.05,242.59Z"/>
  <g>
    <rect class="cls-2" x="459.15" y="63.26" width="218.37" height="218.37" rx="109.19" ry="109.19"/>
    <g>
      <path d="m505.38,171.57h-7.39v6.05h8.59v1.84h-10.84v-17.06h10.72v1.84h-8.47v5.5h7.39v1.84Z"/>
      <path d="m511.39,179.46h-2.17v-18h2.17v18Z"/>
      <path d="m520.12,179.69c-1.72,0-3.12-.56-4.2-1.69s-1.62-2.64-1.62-4.53v-.4c0-1.26.24-2.38.72-3.37s1.15-1.76,2.02-2.32,1.8-.84,2.81-.84c1.65,0,2.93.54,3.84,1.63s1.37,2.64,1.37,4.66v.9h-8.59c.03,1.25.4,2.26,1.1,3.03s1.59,1.15,2.67,1.15c.77,0,1.41-.16,1.95-.47s1-.73,1.39-1.24l1.32,1.03c-1.06,1.63-2.66,2.45-4.78,2.45Zm-.27-11.37c-.88,0-1.61.32-2.2.96s-.96,1.53-1.1,2.68h6.35v-.16c-.06-1.1-.36-1.96-.89-2.56s-1.25-.91-2.16-.91Z"/>
      <path d="m532.66,177.92c.77,0,1.45-.23,2.03-.7s.9-1.05.96-1.76h2.05c-.04.73-.29,1.42-.75,2.07s-1.08,1.18-1.85,1.57-1.58.59-2.44.59c-1.73,0-3.1-.58-4.12-1.73s-1.53-2.73-1.53-4.73v-.36c0-1.23.23-2.33.68-3.29s1.1-1.71,1.95-2.24,1.85-.8,3.01-.8c1.42,0,2.6.43,3.54,1.28s1.44,1.96,1.51,3.32h-2.05c-.06-.82-.37-1.49-.93-2.02s-1.25-.79-2.07-.79c-1.1,0-1.96.4-2.56,1.19s-.91,1.94-.91,3.44v.41c0,1.46.3,2.59.9,3.38s1.46,1.18,2.58,1.18Z"/>
      <path d="m543.08,163.71v3.07h2.37v1.68h-2.37v7.87c0,.51.11.89.32,1.14.21.25.57.38,1.08.38.25,0,.59-.05,1.03-.14v1.75c-.57.16-1.12.23-1.66.23-.97,0-1.7-.29-2.19-.88s-.74-1.42-.74-2.5v-7.86h-2.31v-1.68h2.31v-3.07h2.17Z"/>
      <path d="m554.11,168.72c-.33-.05-.68-.08-1.07-.08-1.42,0-2.39.61-2.89,1.82v9h-2.17v-12.68h2.11l.04,1.46c.71-1.13,1.72-1.7,3.02-1.7.42,0,.74.05.96.16v2.02Z"/>
      <path d="m556.11,163.42c0-.35.11-.65.32-.89s.53-.36.96-.36.74.12.96.36.33.54.33.89-.11.64-.33.88-.54.35-.96.35-.74-.12-.96-.35-.32-.53-.32-.88Zm2.34,16.04h-2.17v-12.68h2.17v12.68Z"/>
      <path d="m567.01,177.92c.77,0,1.45-.23,2.03-.7s.9-1.05.96-1.76h2.05c-.04.73-.29,1.42-.75,2.07s-1.08,1.18-1.85,1.57-1.58.59-2.44.59c-1.73,0-3.1-.58-4.12-1.73s-1.53-2.73-1.53-4.73v-.36c0-1.23.23-2.33.68-3.29s1.1-1.71,1.95-2.24,1.85-.8,3.01-.8c1.42,0,2.6.43,3.54,1.28s1.44,1.96,1.51,3.32h-2.05c-.06-.82-.37-1.49-.93-2.02s-1.25-.79-2.07-.79c-1.1,0-1.96.4-2.56,1.19s-.91,1.94-.91,3.44v.41c0,1.46.3,2.59.9,3.38s1.46,1.18,2.58,1.18Z"/>
      <path d="m582.46,166.78l.06,1.41c.93-1.09,2.18-1.64,3.76-1.64,1.77,0,2.98.68,3.62,2.04.42-.61.97-1.1,1.65-1.48s1.47-.56,2.4-.56c2.78,0,4.2,1.47,4.24,4.42v8.5h-2.17v-8.37c0-.91-.21-1.58-.62-2.03s-1.11-.67-2.09-.67c-.8,0-1.47.24-2,.72s-.84,1.13-.93,1.94v8.41h-2.18v-8.31c0-1.84-.9-2.77-2.71-2.77-1.42,0-2.39.61-2.92,1.82v9.26h-2.17v-12.68h2.05Z"/>
      <path d="m600.89,173c0-1.24.24-2.36.73-3.35s1.17-1.76,2.04-2.3,1.87-.81,2.98-.81c1.73,0,3.12.6,4.19,1.79s1.6,2.79,1.6,4.77v.15c0,1.23-.24,2.34-.71,3.32s-1.15,1.74-2.03,2.29-1.89.82-3.03.82c-1.72,0-3.11-.6-4.18-1.79s-1.6-2.78-1.6-4.75v-.15Zm2.18.26c0,1.41.33,2.54.98,3.39s1.53,1.28,2.62,1.28,1.98-.43,2.62-1.29.97-2.07.97-3.63c0-1.39-.33-2.52-.99-3.38s-1.54-1.29-2.63-1.29-1.93.43-2.59,1.28-.98,2.07-.98,3.66Z"/>
      <path d="m618.09,163.71v3.07h2.37v1.68h-2.37v7.87c0,.51.11.89.32,1.14.21.25.57.38,1.08.38.25,0,.59-.05,1.03-.14v1.75c-.57.16-1.12.23-1.66.23-.97,0-1.7-.29-2.19-.88s-.74-1.42-.74-2.5v-7.86h-2.31v-1.68h2.31v-3.07h2.17Z"/>
      <path d="m622.18,173c0-1.24.24-2.36.73-3.35s1.17-1.76,2.04-2.3,1.87-.81,2.98-.81c1.73,0,3.12.6,4.19,1.79s1.6,2.79,1.6,4.77v.15c0,1.23-.24,2.34-.71,3.32s-1.15,1.74-2.03,2.29-1.89.82-3.03.82c-1.72,0-3.11-.6-4.18-1.79s-1.6-2.78-1.6-4.75v-.15Zm2.18.26c0,1.41.33,2.54.98,3.39s1.53,1.28,2.62,1.28,1.98-.43,2.62-1.29.97-2.07.97-3.63c0-1.39-.33-2.52-.99-3.38s-1.54-1.29-2.63-1.29-1.93.43-2.59,1.28-.98,2.07-.98,3.66Z"/>
      <path d="m642.57,168.72c-.33-.05-.68-.08-1.07-.08-1.42,0-2.39.61-2.89,1.82v9h-2.17v-12.68h2.11l.04,1.46c.71-1.13,1.72-1.7,3.02-1.7.42,0,.74.05.96.16v2.02Z"/>
    </g>
  </g>
  <g>
    <rect class="cls-2" x="459.15" y="346.79" width="218.37" height="218.37" rx="109.19" ry="109.19"/>
    <g>
      <path d="m530.35,460.75c-.58.83-1.38,1.45-2.42,1.86s-2.24.62-3.62.62-2.62-.33-3.7-.98-1.91-1.58-2.5-2.78-.89-2.6-.91-4.18v-1.49c0-2.57.6-4.56,1.8-5.98s2.88-2.12,5.06-2.12c1.78,0,3.21.46,4.3,1.37s1.75,2.2,1.99,3.87h-2.25c-.42-2.27-1.77-3.4-4.03-3.4-1.51,0-2.65.53-3.43,1.59s-1.17,2.59-1.18,4.6v1.4c0,1.92.44,3.44,1.31,4.57s2.06,1.7,3.55,1.7c.84,0,1.58-.09,2.21-.28.63-.19,1.16-.5,1.57-.95v-3.82h-3.95v-1.84h6.19v6.26Z"/>
      <path d="m539.02,463.22c-1.72,0-3.12-.56-4.2-1.69s-1.62-2.64-1.62-4.53v-.4c0-1.26.24-2.38.72-3.37s1.15-1.76,2.02-2.32,1.8-.84,2.81-.84c1.65,0,2.93.54,3.84,1.63s1.37,2.64,1.37,4.66v.9h-8.59c.03,1.25.4,2.26,1.1,3.03s1.59,1.15,2.67,1.15c.77,0,1.41-.16,1.95-.47s1-.73,1.39-1.24l1.32,1.03c-1.06,1.63-2.66,2.45-4.78,2.45Zm-.27-11.37c-.88,0-1.61.32-2.2.96s-.96,1.53-1.1,2.68h6.35v-.16c-.06-1.1-.36-1.96-.89-2.56s-1.25-.91-2.16-.91Z"/>
      <path d="m548.52,450.31l.07,1.59c.97-1.22,2.23-1.83,3.8-1.83,2.68,0,4.03,1.51,4.05,4.54v8.38h-2.17v-8.39c0-.91-.22-1.59-.63-2.03s-1.05-.66-1.92-.66c-.7,0-1.32.19-1.85.56s-.95.87-1.24,1.48v9.04h-2.17v-12.68h2.05Z"/>
      <path d="m564.97,463.22c-1.72,0-3.12-.56-4.2-1.69s-1.62-2.64-1.62-4.53v-.4c0-1.26.24-2.38.72-3.37s1.15-1.76,2.02-2.32,1.8-.84,2.81-.84c1.65,0,2.93.54,3.84,1.63s1.37,2.64,1.37,4.66v.9h-8.59c.03,1.25.4,2.26,1.1,3.03s1.59,1.15,2.67,1.15c.77,0,1.41-.16,1.95-.47s1-.73,1.39-1.24l1.32,1.03c-1.06,1.63-2.66,2.45-4.78,2.45Zm-.27-11.37c-.88,0-1.61.32-2.2.96s-.96,1.53-1.1,2.68h6.35v-.16c-.06-1.1-.36-1.96-.89-2.56s-1.25-.91-2.16-.91Z"/>
      <path d="m578.56,452.26c-.33-.05-.68-.08-1.07-.08-1.42,0-2.39.61-2.89,1.82v9h-2.17v-12.68h2.11l.04,1.46c.71-1.13,1.72-1.7,3.02-1.7.42,0,.74.05.96.16v2.02Z"/>
      <path d="m587.91,462.99c-.12-.25-.23-.7-.3-1.34-1.01,1.05-2.21,1.57-3.61,1.57-1.25,0-2.28-.35-3.08-1.06s-1.2-1.6-1.2-2.69c0-1.32.5-2.35,1.51-3.08s2.42-1.1,4.24-1.1h2.11v-1c0-.76-.23-1.36-.68-1.81s-1.12-.67-2-.67c-.77,0-1.42.2-1.95.59s-.79.86-.79,1.42h-2.18c0-.63.22-1.24.67-1.83s1.06-1.06,1.83-1.4,1.62-.52,2.54-.52c1.46,0,2.61.37,3.43,1.1s1.26,1.74,1.29,3.02v5.84c0,1.16.15,2.09.45,2.78v.19h-2.27Zm-3.6-1.65c.68,0,1.32-.18,1.93-.53s1.05-.81,1.32-1.37v-2.6h-1.7c-2.66,0-3.98.78-3.98,2.33,0,.68.23,1.21.68,1.59s1.04.57,1.75.57Z"/>
      <path d="m596.08,447.24v3.07h2.37v1.68h-2.37v7.87c0,.51.11.89.32,1.14.21.25.57.38,1.08.38.25,0,.59-.05,1.03-.14v1.75c-.57.16-1.12.23-1.66.23-.97,0-1.7-.29-2.19-.88s-.74-1.42-.74-2.5v-7.86h-2.31v-1.68h2.31v-3.07h2.17Z"/>
      <path d="m600.17,456.53c0-1.24.24-2.36.73-3.35s1.17-1.76,2.04-2.3,1.87-.81,2.98-.81c1.73,0,3.12.6,4.19,1.79s1.6,2.79,1.6,4.77v.15c0,1.23-.24,2.34-.71,3.32s-1.15,1.74-2.03,2.29-1.89.82-3.03.82c-1.72,0-3.11-.6-4.18-1.79s-1.6-2.78-1.6-4.75v-.15Zm2.18.26c0,1.41.33,2.54.98,3.39s1.53,1.28,2.62,1.28,1.98-.43,2.62-1.29.97-2.07.97-3.63c0-1.39-.33-2.52-.99-3.38s-1.54-1.29-2.63-1.29-1.93.43-2.59,1.28-.98,2.07-.98,3.66Z"/>
      <path d="m620.56,452.26c-.33-.05-.68-.08-1.07-.08-1.42,0-2.39.61-2.89,1.82v9h-2.17v-12.68h2.11l.04,1.46c.71-1.13,1.72-1.7,3.02-1.7.42,0,.74.05.96.16v2.02Z"/>
    </g>
  </g>
  <g>
    <g>
      <line class="cls-6" x1="415.4" y1="174.25" x2="36.05" y2="174.25"/>
      <polygon class="cls-3" points="413.06 166.28 426.88 174.25 413.06 182.23 413.06 166.28"/>
    </g>
    <g>
      <path d="m104.64,144.28h-7.39v6.05h8.59v1.84h-10.84v-17.06h10.72v1.84h-8.47v5.5h7.39v1.84Z"/>
      <path d="m110.65,152.17h-2.17v-18h2.17v18Z"/>
      <path d="m119.38,152.4c-1.72,0-3.12-.56-4.2-1.69s-1.62-2.64-1.62-4.53v-.4c0-1.26.24-2.38.72-3.37s1.15-1.76,2.02-2.32,1.8-.84,2.81-.84c1.65,0,2.93.54,3.84,1.63s1.37,2.64,1.37,4.66v.9h-8.59c.03,1.25.4,2.26,1.1,3.03s1.59,1.15,2.67,1.15c.77,0,1.41-.16,1.95-.47s1-.73,1.39-1.24l1.32,1.03c-1.06,1.63-2.66,2.45-4.78,2.45Zm-.27-11.37c-.88,0-1.61.32-2.2.96s-.96,1.53-1.1,2.68h6.35v-.16c-.06-1.1-.36-1.96-.89-2.56s-1.25-.91-2.16-.91Z"/>
      <path d="m131.92,150.63c.77,0,1.45-.23,2.03-.7s.9-1.05.96-1.76h2.05c-.04.73-.29,1.42-.75,2.07s-1.08,1.18-1.85,1.57-1.58.59-2.44.59c-1.73,0-3.1-.58-4.12-1.73s-1.53-2.73-1.53-4.73v-.36c0-1.23.23-2.33.68-3.29s1.1-1.71,1.95-2.24,1.85-.8,3.01-.8c1.42,0,2.6.43,3.54,1.28s1.44,1.96,1.51,3.32h-2.05c-.06-.82-.37-1.49-.93-2.02s-1.25-.79-2.07-.79c-1.1,0-1.96.4-2.56,1.19s-.91,1.94-.91,3.44v.41c0,1.46.3,2.59.9,3.38s1.46,1.18,2.58,1.18Z"/>
      <path d="m142.34,136.42v3.07h2.37v1.68h-2.37v7.87c0,.51.11.89.32,1.14.21.25.57.38,1.08.38.25,0,.59-.05,1.03-.14v1.75c-.57.16-1.12.23-1.66.23-.97,0-1.7-.29-2.19-.88s-.74-1.42-.74-2.5v-7.86h-2.31v-1.68h2.31v-3.07h2.17Z"/>
      <path d="m153.36,141.43c-.33-.05-.68-.08-1.07-.08-1.42,0-2.39.61-2.89,1.82v9h-2.17v-12.68h2.11l.04,1.46c.71-1.13,1.72-1.7,3.02-1.7.42,0,.74.05.96.16v2.02Z"/>
      <path d="m155.37,136.12c0-.35.11-.65.32-.89s.53-.36.96-.36.74.12.96.36.33.54.33.89-.11.64-.33.88-.54.35-.96.35-.74-.12-.96-.35-.32-.53-.32-.88Zm2.34,16.04h-2.17v-12.68h2.17v12.68Z"/>
      <path d="m166.27,150.63c.77,0,1.45-.23,2.03-.7s.9-1.05.96-1.76h2.05c-.04.73-.29,1.42-.75,2.07s-1.08,1.18-1.85,1.57-1.58.59-2.44.59c-1.73,0-3.1-.58-4.12-1.73s-1.53-2.73-1.53-4.73v-.36c0-1.23.23-2.33.68-3.29s1.1-1.71,1.95-2.24,1.85-.8,3.01-.8c1.42,0,2.6.43,3.54,1.28s1.44,1.96,1.51,3.32h-2.05c-.06-.82-.37-1.49-.93-2.02s-1.25-.79-2.07-.79c-1.1,0-1.96.4-2.56,1.19s-.91,1.94-.91,3.44v.41c0,1.46.3,2.59.9,3.38s1.46,1.18,2.58,1.18Z"/>
      <path d="m181.57,152.17c-.12-.25-.23-.7-.3-1.34-1.01,1.05-2.21,1.57-3.61,1.57-1.25,0-2.28-.35-3.08-1.06s-1.2-1.6-1.2-2.69c0-1.32.5-2.35,1.51-3.08s2.42-1.1,4.24-1.1h2.11v-1c0-.76-.23-1.36-.68-1.81s-1.12-.67-2-.67c-.77,0-1.42.2-1.95.59s-.79.86-.79,1.42h-2.18c0-.63.22-1.24.67-1.83s1.06-1.06,1.83-1.4,1.62-.52,2.54-.52c1.46,0,2.61.37,3.43,1.1s1.26,1.74,1.29,3.02v5.84c0,1.16.15,2.09.45,2.78v.19h-2.27Zm-3.6-1.65c.68,0,1.32-.18,1.93-.53s1.05-.81,1.32-1.37v-2.6h-1.7c-2.66,0-3.98.78-3.98,2.33,0,.68.23,1.21.68,1.59s1.04.57,1.75.57Z"/>
      <path d="m189.15,152.17h-2.17v-18h2.17v18Z"/>
      <path d="m203.83,152.4c-1.72,0-3.12-.56-4.2-1.69s-1.62-2.64-1.62-4.53v-.4c0-1.26.24-2.38.72-3.37s1.15-1.76,2.02-2.32,1.8-.84,2.81-.84c1.65,0,2.93.54,3.84,1.63s1.37,2.64,1.37,4.66v.9h-8.59c.03,1.25.4,2.26,1.1,3.03s1.59,1.15,2.67,1.15c.77,0,1.41-.16,1.95-.47s1-.73,1.39-1.24l1.32,1.03c-1.06,1.63-2.66,2.45-4.78,2.45Zm-.27-11.37c-.88,0-1.61.32-2.2.96s-.96,1.53-1.1,2.68h6.35v-.16c-.06-1.1-.36-1.96-.89-2.56s-1.25-.91-2.16-.91Z"/>
      <path d="m213.33,139.49l.07,1.59c.97-1.22,2.23-1.83,3.8-1.83,2.68,0,4.03,1.51,4.05,4.54v8.38h-2.17v-8.39c0-.91-.22-1.59-.63-2.03s-1.05-.66-1.92-.66c-.7,0-1.32.19-1.85.56s-.95.87-1.24,1.48v9.04h-2.17v-12.68h2.05Z"/>
      <path d="m229.78,152.4c-1.72,0-3.12-.56-4.2-1.69s-1.62-2.64-1.62-4.53v-.4c0-1.26.24-2.38.72-3.37s1.15-1.76,2.02-2.32,1.8-.84,2.81-.84c1.65,0,2.93.54,3.84,1.63s1.37,2.64,1.37,4.66v.9h-8.59c.03,1.25.4,2.26,1.1,3.03s1.59,1.15,2.67,1.15c.77,0,1.41-.16,1.95-.47s1-.73,1.39-1.24l1.32,1.03c-1.06,1.63-2.66,2.45-4.78,2.45Zm-.27-11.37c-.88,0-1.61.32-2.2.96s-.96,1.53-1.1,2.68h6.35v-.16c-.06-1.1-.36-1.96-.89-2.56s-1.25-.91-2.16-.91Z"/>
      <path d="m243.36,141.43c-.33-.05-.68-.08-1.07-.08-1.42,0-2.39.61-2.89,1.82v9h-2.17v-12.68h2.11l.04,1.46c.71-1.13,1.72-1.7,3.02-1.7.42,0,.74.05.96.16v2.02Z"/>
      <path d="m244.84,145.72c0-1.98.46-3.55,1.37-4.72s2.12-1.75,3.63-1.75,2.75.55,3.62,1.64l.11-1.41h1.98v12.38c0,1.64-.49,2.93-1.46,3.88s-2.28,1.42-3.92,1.42c-.91,0-1.81-.2-2.68-.59s-1.54-.93-2-1.61l1.12-1.3c.93,1.15,2.07,1.72,3.41,1.72,1.05,0,1.88-.3,2.47-.89s.88-1.43.88-2.51v-1.09c-.87,1-2.05,1.5-3.55,1.5s-2.69-.6-3.6-1.79-1.38-2.82-1.38-4.89Zm2.18.25c0,1.43.29,2.55.88,3.37s1.41,1.22,2.46,1.22c1.37,0,2.37-.62,3.01-1.86v-5.79c-.66-1.21-1.66-1.82-2.99-1.82-1.05,0-1.88.41-2.47,1.23s-.89,2.04-.89,3.64Z"/>
      <path d="m262.97,148.99l2.95-9.5h2.32l-5.1,14.64c-.79,2.11-2.04,3.16-3.76,3.16l-.41-.04-.81-.15v-1.76l.59.05c.73,0,1.31-.15,1.72-.45s.75-.84,1.01-1.63l.48-1.29-4.52-12.54h2.37l3.16,9.5Z"/>
      <path d="m276.04,145.24c0-1.77.24-3.46.71-5.09s1.18-3.1,2.12-4.43,1.91-2.27,2.92-2.81l.45,1.43c-1.14.88-2.08,2.21-2.81,4.01s-1.13,3.81-1.2,6.04v1c-.01,3.02.54,5.63,1.64,7.85.66,1.33,1.45,2.37,2.37,3.12l-.45,1.32c-1.04-.58-2.03-1.55-2.98-2.91-1.84-2.66-2.77-5.83-2.77-9.53Z"/>
      <path d="m297.21,146.75c-.21,1.8-.88,3.2-2,4.18s-2.61,1.47-4.47,1.47c-2.02,0-3.63-.72-4.85-2.17s-1.82-3.38-1.82-5.8v-1.64c0-1.59.28-2.98.85-4.18s1.37-2.13,2.41-2.77,2.24-.97,3.61-.97c1.81,0,3.27.51,4.36,1.52s1.73,2.41,1.91,4.2h-2.26c-.2-1.36-.62-2.35-1.27-2.96-.65-.61-1.56-.92-2.74-.92-1.44,0-2.56.53-3.38,1.6s-1.22,2.58-1.22,4.54v1.65c0,1.85.39,3.33,1.16,4.42.77,1.09,1.86,1.64,3.25,1.64,1.25,0,2.21-.28,2.88-.85s1.11-1.55,1.33-2.96h2.26Z"/>
      <path d="m307.77,150.91c-.84.99-2.08,1.49-3.71,1.49-1.35,0-2.38-.39-3.09-1.18s-1.06-1.95-1.07-3.49v-8.25h2.17v8.19c0,1.92.78,2.88,2.34,2.88,1.66,0,2.76-.62,3.3-1.85v-9.22h2.17v12.68h-2.06l-.05-1.25Z"/>
      <path d="m319.3,141.43c-.33-.05-.68-.08-1.07-.08-1.42,0-2.39.61-2.89,1.82v9h-2.17v-12.68h2.11l.04,1.46c.71-1.13,1.72-1.7,3.02-1.7.42,0,.74.05.96.16v2.02Z"/>
      <path d="m327.42,141.43c-.33-.05-.68-.08-1.07-.08-1.42,0-2.39.61-2.89,1.82v9h-2.17v-12.68h2.11l.04,1.46c.71-1.13,1.72-1.7,3.02-1.7.42,0,.74.05.96.16v2.02Z"/>
      <path d="m334.68,152.4c-1.72,0-3.12-.56-4.2-1.69s-1.62-2.64-1.62-4.53v-.4c0-1.26.24-2.38.72-3.37s1.15-1.76,2.02-2.32,1.8-.84,2.81-.84c1.65,0,2.93.54,3.84,1.63s1.37,2.64,1.37,4.66v.9h-8.59c.03,1.25.4,2.26,1.1,3.03s1.59,1.15,2.67,1.15c.77,0,1.41-.16,1.95-.47s1-.73,1.39-1.24l1.32,1.03c-1.06,1.63-2.66,2.45-4.78,2.45Zm-.27-11.37c-.88,0-1.61.32-2.2.96s-.96,1.53-1.1,2.68h6.35v-.16c-.06-1.1-.36-1.96-.89-2.56s-1.25-.91-2.16-.91Z"/>
      <path d="m344.18,139.49l.07,1.59c.97-1.22,2.23-1.83,3.8-1.83,2.68,0,4.03,1.51,4.05,4.54v8.38h-2.17v-8.39c0-.91-.22-1.59-.63-2.03s-1.05-.66-1.92-.66c-.7,0-1.32.19-1.85.56s-.95.87-1.24,1.48v9.04h-2.17v-12.68h2.05Z"/>
      <path d="m358.31,136.42v3.07h2.37v1.68h-2.37v7.87c0,.51.11.89.32,1.14.21.25.57.38,1.08.38.25,0,.59-.05,1.03-.14v1.75c-.57.16-1.12.23-1.66.23-.97,0-1.7-.29-2.19-.88s-.74-1.42-.74-2.5v-7.86h-2.31v-1.68h2.31v-3.07h2.17Z"/>
      <path d="m368.22,145.36c0,1.74-.23,3.41-.69,5.01s-1.16,3.07-2.1,4.42-1.93,2.31-2.96,2.88l-.46-1.32c1.2-.92,2.17-2.35,2.9-4.29s1.1-4.1,1.12-6.46v-.38c0-1.64-.17-3.17-.52-4.58s-.82-2.67-1.44-3.79-1.3-1.99-2.07-2.61l.46-1.32c1.03.57,2.01,1.52,2.95,2.86s1.63,2.81,2.1,4.42.7,3.33.7,5.17Z"/>
    </g>
  </g>
  <g>
    <g>
      <line class="cls-5" x1="415.4" y1="457.79" x2="36.05" y2="457.79"/>
      <polygon class="cls-4" points="413.06 449.81 426.88 457.79 413.06 465.76 413.06 449.81"/>
    </g>
    <g>
      <path d="m63.59,417.64l5.58,13.92,5.58-13.92h2.92v17.06h-2.25v-6.64l.21-7.17-5.6,13.82h-1.72l-5.59-13.78.22,7.14v6.64h-2.25v-17.06h2.91Z"/>
      <path d="m86.56,434.93c-1.72,0-3.12-.56-4.2-1.69s-1.62-2.64-1.62-4.53v-.4c0-1.26.24-2.38.72-3.37s1.15-1.76,2.02-2.32,1.8-.84,2.81-.84c1.65,0,2.93.54,3.84,1.63s1.37,2.64,1.37,4.66v.9h-8.59c.03,1.25.4,2.26,1.1,3.03s1.59,1.15,2.67,1.15c.77,0,1.41-.16,1.95-.47s1-.73,1.39-1.24l1.32,1.03c-1.06,1.63-2.66,2.45-4.78,2.45Zm-.27-11.37c-.88,0-1.61.32-2.2.96s-.96,1.53-1.1,2.68h6.35v-.16c-.06-1.1-.36-1.96-.89-2.56s-1.25-.91-2.16-.91Z"/>
      <path d="m99.1,433.16c.77,0,1.45-.23,2.03-.7s.9-1.05.96-1.76h2.05c-.04.73-.29,1.42-.75,2.07s-1.08,1.18-1.85,1.57-1.58.59-2.44.59c-1.73,0-3.1-.58-4.12-1.73s-1.53-2.73-1.53-4.73v-.36c0-1.23.23-2.33.68-3.29s1.1-1.71,1.95-2.24,1.85-.8,3.01-.8c1.42,0,2.6.43,3.54,1.28s1.44,1.96,1.51,3.32h-2.05c-.06-.82-.37-1.49-.93-2.02s-1.25-.79-2.07-.79c-1.1,0-1.96.4-2.56,1.19s-.91,1.94-.91,3.44v.41c0,1.46.3,2.59.9,3.38s1.46,1.18,2.58,1.18Z"/>
      <path d="m108.75,423.55c.96-1.18,2.21-1.77,3.75-1.77,2.68,0,4.03,1.51,4.05,4.54v8.38h-2.17v-8.39c0-.91-.22-1.59-.63-2.03s-1.05-.66-1.92-.66c-.7,0-1.32.19-1.85.56s-.95.87-1.24,1.48v9.04h-2.17v-18h2.17v6.86Z"/>
      <path d="m127.62,434.7c-.12-.25-.23-.7-.3-1.34-1.01,1.05-2.21,1.57-3.61,1.57-1.25,0-2.28-.35-3.08-1.06s-1.2-1.6-1.2-2.69c0-1.32.5-2.35,1.51-3.08s2.42-1.1,4.24-1.1h2.11v-1c0-.76-.23-1.36-.68-1.81s-1.12-.67-2-.67c-.77,0-1.42.2-1.95.59s-.79.86-.79,1.42h-2.18c0-.63.22-1.24.67-1.83s1.06-1.06,1.83-1.4,1.62-.52,2.54-.52c1.46,0,2.61.37,3.43,1.1s1.26,1.74,1.29,3.02v5.84c0,1.16.15,2.09.45,2.78v.19h-2.27Zm-3.6-1.65c.68,0,1.32-.18,1.93-.53s1.05-.81,1.32-1.37v-2.6h-1.7c-2.66,0-3.98.78-3.98,2.33,0,.68.23,1.21.68,1.59s1.04.57,1.75.57Z"/>
      <path d="m134.9,422.02l.07,1.59c.97-1.22,2.23-1.83,3.8-1.83,2.68,0,4.03,1.51,4.05,4.54v8.38h-2.17v-8.39c0-.91-.22-1.59-.63-2.03s-1.05-.66-1.92-.66c-.7,0-1.32.19-1.85.56s-.95.87-1.24,1.48v9.04h-2.17v-12.68h2.05Z"/>
      <path d="m146.1,418.66c0-.35.11-.65.32-.89s.53-.36.96-.36.74.12.96.36.33.54.33.89-.11.64-.33.88-.54.35-.96.35-.74-.12-.96-.35-.32-.53-.32-.88Zm2.34,16.04h-2.17v-12.68h2.17v12.68Z"/>
      <path d="m157,433.16c.77,0,1.45-.23,2.03-.7s.9-1.05.96-1.76h2.05c-.04.73-.29,1.42-.75,2.07s-1.08,1.18-1.85,1.57-1.58.59-2.44.59c-1.73,0-3.1-.58-4.12-1.73s-1.53-2.73-1.53-4.73v-.36c0-1.23.23-2.33.68-3.29s1.1-1.71,1.95-2.24,1.85-.8,3.01-.8c1.42,0,2.6.43,3.54,1.28s1.44,1.96,1.51,3.32h-2.05c-.06-.82-.37-1.49-.93-2.02s-1.25-.79-2.07-.79c-1.1,0-1.96.4-2.56,1.19s-.91,1.94-.91,3.44v.41c0,1.46.3,2.59.9,3.38s1.46,1.18,2.58,1.18Z"/>
      <path d="m172.31,434.7c-.12-.25-.23-.7-.3-1.34-1.01,1.05-2.21,1.57-3.61,1.57-1.25,0-2.28-.35-3.08-1.06s-1.2-1.6-1.2-2.69c0-1.32.5-2.35,1.51-3.08s2.42-1.1,4.24-1.1h2.11v-1c0-.76-.23-1.36-.68-1.81s-1.12-.67-2-.67c-.77,0-1.42.2-1.95.59s-.79.86-.79,1.42h-2.18c0-.63.22-1.24.67-1.83s1.06-1.06,1.83-1.4,1.62-.52,2.54-.52c1.46,0,2.61.37,3.43,1.1s1.26,1.74,1.29,3.02v5.84c0,1.16.15,2.09.45,2.78v.19h-2.27Zm-3.6-1.65c.68,0,1.32-.18,1.93-.53s1.05-.81,1.32-1.37v-2.6h-1.7c-2.66,0-3.98.78-3.98,2.33,0,.68.23,1.21.68,1.59s1.04.57,1.75.57Z"/>
      <path d="m179.89,434.7h-2.17v-18h2.17v18Z"/>
      <path d="m194.56,434.93c-1.72,0-3.12-.56-4.2-1.69s-1.62-2.64-1.62-4.53v-.4c0-1.26.24-2.38.72-3.37s1.15-1.76,2.02-2.32,1.8-.84,2.81-.84c1.65,0,2.93.54,3.84,1.63s1.37,2.64,1.37,4.66v.9h-8.59c.03,1.25.4,2.26,1.1,3.03s1.59,1.15,2.67,1.15c.77,0,1.41-.16,1.95-.47s1-.73,1.39-1.24l1.32,1.03c-1.06,1.63-2.66,2.45-4.78,2.45Zm-.27-11.37c-.88,0-1.61.32-2.2.96s-.96,1.53-1.1,2.68h6.35v-.16c-.06-1.1-.36-1.96-.89-2.56s-1.25-.91-2.16-.91Z"/>
      <path d="m204.07,422.02l.07,1.59c.97-1.22,2.23-1.83,3.8-1.83,2.68,0,4.03,1.51,4.05,4.54v8.38h-2.17v-8.39c0-.91-.22-1.59-.63-2.03s-1.05-.66-1.92-.66c-.7,0-1.32.19-1.85.56s-.95.87-1.24,1.48v9.04h-2.17v-12.68h2.05Z"/>
      <path d="m220.52,434.93c-1.72,0-3.12-.56-4.2-1.69s-1.62-2.64-1.62-4.53v-.4c0-1.26.24-2.38.72-3.37s1.15-1.76,2.02-2.32,1.8-.84,2.81-.84c1.65,0,2.93.54,3.84,1.63s1.37,2.64,1.37,4.66v.9h-8.59c.03,1.25.4,2.26,1.1,3.03s1.59,1.15,2.67,1.15c.77,0,1.41-.16,1.95-.47s1-.73,1.39-1.24l1.32,1.03c-1.06,1.63-2.66,2.45-4.78,2.45Zm-.27-11.37c-.88,0-1.61.32-2.2.96s-.96,1.53-1.1,2.68h6.35v-.16c-.06-1.1-.36-1.96-.89-2.56s-1.25-.91-2.16-.91Z"/>
      <path d="m234.1,423.96c-.33-.05-.68-.08-1.07-.08-1.42,0-2.39.61-2.89,1.82v9h-2.17v-12.68h2.11l.04,1.46c.71-1.13,1.72-1.7,3.02-1.7.42,0,.74.05.96.16v2.02Z"/>
      <path d="m235.58,428.25c0-1.98.46-3.55,1.37-4.72s2.12-1.75,3.63-1.75,2.75.55,3.62,1.64l.11-1.41h1.98v12.38c0,1.64-.49,2.93-1.46,3.88s-2.28,1.42-3.92,1.42c-.91,0-1.81-.2-2.68-.59s-1.54-.93-2-1.61l1.12-1.3c.93,1.15,2.07,1.72,3.41,1.72,1.05,0,1.88-.3,2.47-.89s.88-1.43.88-2.51v-1.09c-.87,1-2.05,1.5-3.55,1.5s-2.69-.6-3.6-1.79-1.38-2.82-1.38-4.89Zm2.18.25c0,1.43.29,2.55.88,3.37s1.41,1.22,2.46,1.22c1.37,0,2.37-.62,3.01-1.86v-5.79c-.66-1.21-1.66-1.82-2.99-1.82-1.05,0-1.88.41-2.47,1.23s-.89,2.04-.89,3.64Z"/>
      <path d="m253.71,431.52l2.95-9.5h2.32l-5.1,14.64c-.79,2.11-2.04,3.16-3.76,3.16l-.41-.04-.81-.15v-1.76l.59.05c.73,0,1.31-.15,1.72-.45s.75-.84,1.01-1.63l.48-1.29-4.52-12.54h2.37l3.16,9.5Z"/>
      <path d="m266.77,427.77c0-1.77.24-3.46.71-5.09s1.18-3.1,2.12-4.43,1.91-2.27,2.92-2.81l.45,1.43c-1.14.88-2.08,2.21-2.81,4.01s-1.13,3.81-1.2,6.04v1c-.01,3.02.54,5.63,1.64,7.85.66,1.33,1.45,2.37,2.37,3.12l-.45,1.32c-1.04-.58-2.03-1.55-2.98-2.91-1.84-2.66-2.77-5.83-2.77-9.53Z"/>
      <path d="m278.3,417.64l5.58,13.92,5.58-13.92h2.92v17.06h-2.25v-6.64l.21-7.17-5.6,13.82h-1.72l-5.59-13.78.22,7.14v6.64h-2.25v-17.06h2.91Z"/>
      <path d="m295.44,428.24c0-1.24.24-2.36.73-3.35s1.17-1.76,2.04-2.3,1.87-.81,2.98-.81c1.73,0,3.12.6,4.19,1.79s1.6,2.79,1.6,4.77v.15c0,1.23-.24,2.34-.71,3.32s-1.15,1.74-2.03,2.29-1.89.82-3.03.82c-1.72,0-3.11-.6-4.18-1.79s-1.6-2.78-1.6-4.75v-.15Zm2.18.26c0,1.41.33,2.54.98,3.39s1.53,1.28,2.62,1.28,1.98-.43,2.62-1.29.97-2.07.97-3.63c0-1.39-.33-2.52-.99-3.38s-1.54-1.29-2.63-1.29-1.93.43-2.59,1.28-.98,2.07-.98,3.66Z"/>
      <path d="m313.71,431.76l3.14-9.74h2.21l-4.55,12.68h-1.65l-4.59-12.68h2.21l3.22,9.74Z"/>
      <path d="m321.16,418.66c0-.35.11-.65.32-.89s.53-.36.96-.36.74.12.96.36.33.54.33.89-.11.64-.33.88-.54.35-.96.35-.74-.12-.96-.35-.32-.53-.32-.88Zm2.34,16.04h-2.17v-12.68h2.17v12.68Z"/>
      <path d="m329.02,422.02l.07,1.59c.97-1.22,2.23-1.83,3.8-1.83,2.68,0,4.03,1.51,4.05,4.54v8.38h-2.17v-8.39c0-.91-.22-1.59-.63-2.03s-1.05-.66-1.92-.66c-.7,0-1.32.19-1.85.56s-.95.87-1.24,1.48v9.04h-2.17v-12.68h2.05Z"/>
      <path d="m339.7,428.25c0-1.98.46-3.55,1.37-4.72s2.12-1.75,3.63-1.75,2.75.55,3.62,1.64l.11-1.41h1.98v12.38c0,1.64-.49,2.93-1.46,3.88s-2.28,1.42-3.92,1.42c-.91,0-1.81-.2-2.68-.59s-1.54-.93-2-1.61l1.12-1.3c.93,1.15,2.07,1.72,3.41,1.72,1.05,0,1.88-.3,2.47-.89s.88-1.43.88-2.51v-1.09c-.87,1-2.05,1.5-3.55,1.5s-2.69-.6-3.6-1.79-1.38-2.82-1.38-4.89Zm2.18.25c0,1.43.29,2.55.88,3.37s1.41,1.22,2.46,1.22c1.37,0,2.37-.62,3.01-1.86v-5.79c-.66-1.21-1.66-1.82-2.99-1.82-1.05,0-1.88.41-2.47,1.23s-.89,2.04-.89,3.64Z"/>
      <path d="m364.71,433.16c.77,0,1.45-.23,2.03-.7s.9-1.05.96-1.76h2.05c-.04.73-.29,1.42-.75,2.07s-1.08,1.18-1.85,1.57-1.58.59-2.44.59c-1.73,0-3.1-.58-4.12-1.73s-1.53-2.73-1.53-4.73v-.36c0-1.23.23-2.33.68-3.29s1.1-1.71,1.95-2.24,1.85-.8,3.01-.8c1.42,0,2.6.43,3.54,1.28s1.44,1.96,1.51,3.32h-2.05c-.06-.82-.37-1.49-.93-2.02s-1.25-.79-2.07-.79c-1.1,0-1.96.4-2.56,1.19s-.91,1.94-.91,3.44v.41c0,1.46.3,2.59.9,3.38s1.46,1.18,2.58,1.18Z"/>
      <path d="m371.61,428.24c0-1.24.24-2.36.73-3.35s1.17-1.76,2.04-2.3,1.87-.81,2.98-.81c1.73,0,3.12.6,4.19,1.79s1.6,2.79,1.6,4.77v.15c0,1.23-.24,2.34-.71,3.32s-1.15,1.74-2.03,2.29-1.89.82-3.03.82c-1.72,0-3.11-.6-4.18-1.79s-1.6-2.78-1.6-4.75v-.15Zm2.18.26c0,1.41.33,2.54.98,3.39s1.53,1.28,2.62,1.28,1.98-.43,2.62-1.29.97-2.07.97-3.63c0-1.39-.33-2.52-.99-3.38s-1.54-1.29-2.63-1.29-1.93.43-2.59,1.28-.98,2.07-.98,3.66Z"/>
      <path d="m385.88,418.66c0-.35.11-.65.32-.89s.53-.36.96-.36.74.12.96.36.33.54.33.89-.11.64-.33.88-.54.35-.96.35-.74-.12-.96-.35-.32-.53-.32-.88Zm2.34,16.04h-2.17v-12.68h2.17v12.68Z"/>
      <path d="m394.05,434.7h-2.17v-18h2.17v18Z"/>
      <path d="m402.52,427.89c0,1.74-.23,3.41-.69,5.01s-1.16,3.07-2.1,4.42-1.93,2.31-2.96,2.88l-.46-1.32c1.2-.92,2.17-2.35,2.9-4.29s1.1-4.1,1.12-6.46v-.38c0-1.64-.17-3.17-.52-4.58s-.82-2.67-1.44-3.79-1.3-1.99-2.07-2.61l.46-1.32c1.03.57,2.01,1.52,2.95,2.86s1.63,2.81,2.1,4.42.7,3.33.7,5.17Z"/>
    </g>
  </g>
  <g>
    <g>
      <line class="cls-5" x1="1088.12" y1="174.25" x2="708.78" y2="174.25"/>
      <polygon class="cls-4" points="1085.79 166.28 1099.61 174.25 1085.79 182.23 1085.79 166.28"/>
    </g>
    <g>
      <path d="m736.32,135.1l5.58,13.92,5.58-13.92h2.92v17.06h-2.25v-6.64l.21-7.17-5.6,13.82h-1.72l-5.59-13.78.22,7.14v6.64h-2.25v-17.06h2.91Z"/>
      <path d="m759.29,152.4c-1.72,0-3.12-.56-4.2-1.69s-1.62-2.64-1.62-4.53v-.4c0-1.26.24-2.38.72-3.37s1.15-1.76,2.02-2.32,1.8-.84,2.81-.84c1.65,0,2.93.54,3.84,1.63s1.37,2.64,1.37,4.66v.9h-8.59c.03,1.25.4,2.26,1.1,3.03s1.59,1.15,2.67,1.15c.77,0,1.41-.16,1.95-.47s1-.73,1.39-1.24l1.32,1.03c-1.06,1.63-2.66,2.45-4.78,2.45Zm-.27-11.37c-.88,0-1.61.32-2.2.96s-.96,1.53-1.1,2.68h6.35v-.16c-.06-1.1-.36-1.96-.89-2.56s-1.25-.91-2.16-.91Z"/>
      <path d="m771.83,150.63c.77,0,1.45-.23,2.03-.7s.9-1.05.96-1.76h2.05c-.04.73-.29,1.42-.75,2.07s-1.08,1.18-1.85,1.57-1.58.59-2.44.59c-1.73,0-3.1-.58-4.12-1.73s-1.53-2.73-1.53-4.73v-.36c0-1.23.23-2.33.68-3.29s1.1-1.71,1.95-2.24,1.85-.8,3.01-.8c1.42,0,2.6.43,3.54,1.28s1.44,1.96,1.51,3.32h-2.05c-.06-.82-.37-1.49-.93-2.02s-1.25-.79-2.07-.79c-1.1,0-1.96.4-2.56,1.19s-.91,1.94-.91,3.44v.41c0,1.46.3,2.59.9,3.38s1.46,1.18,2.58,1.18Z"/>
      <path d="m781.47,141.02c.96-1.18,2.21-1.77,3.75-1.77,2.68,0,4.03,1.51,4.05,4.54v8.38h-2.17v-8.39c0-.91-.22-1.59-.63-2.03s-1.05-.66-1.92-.66c-.7,0-1.32.19-1.85.56s-.95.87-1.24,1.48v9.04h-2.17v-18h2.17v6.86Z"/>
      <path d="m800.35,152.17c-.12-.25-.23-.7-.3-1.34-1.01,1.05-2.21,1.57-3.61,1.57-1.25,0-2.28-.35-3.08-1.06s-1.2-1.6-1.2-2.69c0-1.32.5-2.35,1.51-3.08s2.42-1.1,4.24-1.1h2.11v-1c0-.76-.23-1.36-.68-1.81s-1.12-.67-2-.67c-.77,0-1.42.2-1.95.59s-.79.86-.79,1.42h-2.18c0-.63.22-1.24.67-1.83s1.06-1.06,1.83-1.4,1.62-.52,2.54-.52c1.46,0,2.61.37,3.43,1.1s1.26,1.74,1.29,3.02v5.84c0,1.16.15,2.09.45,2.78v.19h-2.27Zm-3.6-1.65c.68,0,1.32-.18,1.93-.53s1.05-.81,1.32-1.37v-2.6h-1.7c-2.66,0-3.98.78-3.98,2.33,0,.68.23,1.21.68,1.59s1.04.57,1.75.57Z"/>
      <path d="m807.63,139.49l.07,1.59c.97-1.22,2.23-1.83,3.8-1.83,2.68,0,4.03,1.51,4.05,4.54v8.38h-2.17v-8.39c0-.91-.22-1.59-.63-2.03s-1.05-.66-1.92-.66c-.7,0-1.32.19-1.85.56s-.95.87-1.24,1.48v9.04h-2.17v-12.68h2.05Z"/>
      <path d="m818.83,136.12c0-.35.11-.65.32-.89s.53-.36.96-.36.74.12.96.36.33.54.33.89-.11.64-.33.88-.54.35-.96.35-.74-.12-.96-.35-.32-.53-.32-.88Zm2.34,16.04h-2.17v-12.68h2.17v12.68Z"/>
      <path d="m829.73,150.63c.77,0,1.45-.23,2.03-.7s.9-1.05.96-1.76h2.05c-.04.73-.29,1.42-.75,2.07s-1.08,1.18-1.85,1.57-1.58.59-2.44.59c-1.73,0-3.1-.58-4.12-1.73s-1.53-2.73-1.53-4.73v-.36c0-1.23.23-2.33.68-3.29s1.1-1.71,1.95-2.24,1.85-.8,3.01-.8c1.42,0,2.6.43,3.54,1.28s1.44,1.96,1.51,3.32h-2.05c-.06-.82-.37-1.49-.93-2.02s-1.25-.79-2.07-.79c-1.1,0-1.96.4-2.56,1.19s-.91,1.94-.91,3.44v.41c0,1.46.3,2.59.9,3.38s1.46,1.18,2.58,1.18Z"/>
      <path d="m845.04,152.17c-.12-.25-.23-.7-.3-1.34-1.01,1.05-2.21,1.57-3.61,1.57-1.25,0-2.28-.35-3.08-1.06s-1.2-1.6-1.2-2.69c0-1.32.5-2.35,1.51-3.08s2.42-1.1,4.24-1.1h2.11v-1c0-.76-.23-1.36-.68-1.81s-1.12-.67-2-.67c-.77,0-1.42.2-1.95.59s-.79.86-.79,1.42h-2.18c0-.63.22-1.24.67-1.83s1.06-1.06,1.83-1.4,1.62-.52,2.54-.52c1.46,0,2.61.37,3.43,1.1s1.26,1.74,1.29,3.02v5.84c0,1.16.15,2.09.45,2.78v.19h-2.27Zm-3.6-1.65c.68,0,1.32-.18,1.93-.53s1.05-.81,1.32-1.37v-2.6h-1.7c-2.66,0-3.98.78-3.98,2.33,0,.68.23,1.21.68,1.59s1.04.57,1.75.57Z"/>
      <path d="m852.62,152.17h-2.17v-18h2.17v18Z"/>
      <path d="m867.29,152.4c-1.72,0-3.12-.56-4.2-1.69s-1.62-2.64-1.62-4.53v-.4c0-1.26.24-2.38.72-3.37s1.15-1.76,2.02-2.32,1.8-.84,2.81-.84c1.65,0,2.93.54,3.84,1.63s1.37,2.64,1.37,4.66v.9h-8.59c.03,1.25.4,2.26,1.1,3.03s1.59,1.15,2.67,1.15c.77,0,1.41-.16,1.95-.47s1-.73,1.39-1.24l1.32,1.03c-1.06,1.63-2.66,2.45-4.78,2.45Zm-.27-11.37c-.88,0-1.61.32-2.2.96s-.96,1.53-1.1,2.68h6.35v-.16c-.06-1.1-.36-1.96-.89-2.56s-1.25-.91-2.16-.91Z"/>
      <path d="m876.79,139.49l.07,1.59c.97-1.22,2.23-1.83,3.8-1.83,2.68,0,4.03,1.51,4.05,4.54v8.38h-2.17v-8.39c0-.91-.22-1.59-.63-2.03s-1.05-.66-1.92-.66c-.7,0-1.32.19-1.85.56s-.95.87-1.24,1.48v9.04h-2.17v-12.68h2.05Z"/>
      <path d="m893.25,152.4c-1.72,0-3.12-.56-4.2-1.69s-1.62-2.64-1.62-4.53v-.4c0-1.26.24-2.38.72-3.37s1.15-1.76,2.02-2.32,1.8-.84,2.81-.84c1.65,0,2.93.54,3.84,1.63s1.37,2.64,1.37,4.66v.9h-8.59c.03,1.25.4,2.26,1.1,3.03s1.59,1.15,2.67,1.15c.77,0,1.41-.16,1.95-.47s1-.73,1.39-1.24l1.32,1.03c-1.06,1.63-2.66,2.45-4.78,2.45Zm-.27-11.37c-.88,0-1.61.32-2.2.96s-.96,1.53-1.1,2.68h6.35v-.16c-.06-1.1-.36-1.96-.89-2.56s-1.25-.91-2.16-.91Z"/>
      <path d="m906.83,141.43c-.33-.05-.68-.08-1.07-.08-1.42,0-2.39.61-2.89,1.82v9h-2.17v-12.68h2.11l.04,1.46c.71-1.13,1.72-1.7,3.02-1.7.42,0,.74.05.96.16v2.02Z"/>
      <path d="m908.3,145.72c0-1.98.46-3.55,1.37-4.72s2.12-1.75,3.63-1.75,2.75.55,3.62,1.64l.11-1.41h1.98v12.38c0,1.64-.49,2.93-1.46,3.88s-2.28,1.42-3.92,1.42c-.91,0-1.81-.2-2.68-.59s-1.54-.93-2-1.61l1.12-1.3c.93,1.15,2.07,1.72,3.41,1.72,1.05,0,1.88-.3,2.47-.89s.88-1.43.88-2.51v-1.09c-.87,1-2.05,1.5-3.55,1.5s-2.69-.6-3.6-1.79-1.38-2.82-1.38-4.89Zm2.18.25c0,1.43.29,2.55.88,3.37s1.41,1.22,2.46,1.22c1.37,0,2.37-.62,3.01-1.86v-5.79c-.66-1.21-1.66-1.82-2.99-1.82-1.05,0-1.88.41-2.47,1.23s-.89,2.04-.89,3.64Z"/>
      <path d="m926.43,148.99l2.95-9.5h2.32l-5.1,14.64c-.79,2.11-2.04,3.16-3.76,3.16l-.41-.04-.81-.15v-1.76l.59.05c.73,0,1.31-.15,1.72-.45s.75-.84,1.01-1.63l.48-1.29-4.52-12.54h2.37l3.16,9.5Z"/>
      <path d="m939.5,145.24c0-1.77.24-3.46.71-5.09s1.18-3.1,2.12-4.43,1.91-2.27,2.92-2.81l.45,1.43c-1.14.88-2.08,2.21-2.81,4.01s-1.13,3.81-1.2,6.04v1c-.01,3.02.54,5.63,1.64,7.85.66,1.33,1.45,2.37,2.37,3.12l-.45,1.32c-1.04-.58-2.03-1.55-2.98-2.91-1.84-2.66-2.77-5.83-2.77-9.53Z"/>
      <path d="m951.03,135.1l5.58,13.92,5.58-13.92h2.92v17.06h-2.25v-6.64l.21-7.17-5.6,13.82h-1.72l-5.59-13.78.22,7.14v6.64h-2.25v-17.06h2.91Z"/>
      <path d="m968.16,145.71c0-1.24.24-2.36.73-3.35s1.17-1.76,2.04-2.3,1.87-.81,2.98-.81c1.73,0,3.12.6,4.19,1.79s1.6,2.79,1.6,4.77v.15c0,1.23-.24,2.34-.71,3.32s-1.15,1.74-2.03,2.29-1.89.82-3.03.82c-1.72,0-3.11-.6-4.18-1.79s-1.6-2.78-1.6-4.75v-.15Zm2.18.26c0,1.41.33,2.54.98,3.39s1.53,1.28,2.62,1.28,1.98-.43,2.62-1.29.97-2.07.97-3.63c0-1.39-.33-2.52-.99-3.38s-1.54-1.29-2.63-1.29-1.93.43-2.59,1.28-.98,2.07-.98,3.66Z"/>
      <path d="m986.43,149.23l3.14-9.74h2.21l-4.55,12.68h-1.65l-4.59-12.68h2.21l3.22,9.74Z"/>
      <path d="m993.89,136.12c0-.35.11-.65.32-.89s.53-.36.96-.36.74.12.96.36.33.54.33.89-.11.64-.33.88-.54.35-.96.35-.74-.12-.96-.35-.32-.53-.32-.88Zm2.34,16.04h-2.17v-12.68h2.17v12.68Z"/>
      <path d="m1001.75,139.49l.07,1.59c.97-1.22,2.23-1.83,3.8-1.83,2.68,0,4.03,1.51,4.05,4.54v8.38h-2.17v-8.39c0-.91-.22-1.59-.63-2.03s-1.05-.66-1.92-.66c-.7,0-1.32.19-1.85.56s-.95.87-1.24,1.48v9.04h-2.17v-12.68h2.05Z"/>
      <path d="m1012.43,145.72c0-1.98.46-3.55,1.37-4.72s2.12-1.75,3.63-1.75,2.75.55,3.62,1.64l.11-1.41h1.98v12.38c0,1.64-.49,2.93-1.46,3.88s-2.28,1.42-3.92,1.42c-.91,0-1.81-.2-2.68-.59s-1.54-.93-2-1.61l1.12-1.3c.93,1.15,2.07,1.72,3.41,1.72,1.05,0,1.88-.3,2.47-.89s.88-1.43.88-2.51v-1.09c-.87,1-2.05,1.5-3.55,1.5s-2.69-.6-3.6-1.79-1.38-2.82-1.38-4.89Zm2.18.25c0,1.43.29,2.55.88,3.37s1.41,1.22,2.46,1.22c1.37,0,2.37-.62,3.01-1.86v-5.79c-.66-1.21-1.66-1.82-2.99-1.82-1.05,0-1.88.41-2.47,1.23s-.89,2.04-.89,3.64Z"/>
      <path d="m1037.43,150.63c.77,0,1.45-.23,2.03-.7s.9-1.05.96-1.76h2.05c-.04.73-.29,1.42-.75,2.07s-1.08,1.18-1.85,1.57-1.58.59-2.44.59c-1.73,0-3.1-.58-4.12-1.73s-1.53-2.73-1.53-4.73v-.36c0-1.23.23-2.33.68-3.29s1.1-1.71,1.95-2.24,1.85-.8,3.01-.8c1.42,0,2.6.43,3.54,1.28s1.44,1.96,1.51,3.32h-2.05c-.06-.82-.37-1.49-.93-2.02s-1.25-.79-2.07-.79c-1.1,0-1.96.4-2.56,1.19s-.91,1.94-.91,3.44v.41c0,1.46.3,2.59.9,3.38s1.46,1.18,2.58,1.18Z"/>
      <path d="m1044.34,145.71c0-1.24.24-2.36.73-3.35s1.17-1.76,2.04-2.3,1.87-.81,2.98-.81c1.73,0,3.12.6,4.19,1.79s1.6,2.79,1.6,4.77v.15c0,1.23-.24,2.34-.71,3.32s-1.15,1.74-2.03,2.29-1.89.82-3.03.82c-1.72,0-3.11-.6-4.18-1.79s-1.6-2.78-1.6-4.75v-.15Zm2.18.26c0,1.41.33,2.54.98,3.39s1.53,1.28,2.62,1.28,1.98-.43,2.62-1.29.97-2.07.97-3.63c0-1.39-.33-2.52-.99-3.38s-1.54-1.29-2.63-1.29-1.93.43-2.59,1.28-.98,2.07-.98,3.66Z"/>
      <path d="m1058.61,136.12c0-.35.11-.65.32-.89s.53-.36.96-.36.74.12.96.36.33.54.33.89-.11.64-.33.88-.54.35-.96.35-.74-.12-.96-.35-.32-.53-.32-.88Zm2.34,16.04h-2.17v-12.68h2.17v12.68Z"/>
      <path d="m1066.78,152.17h-2.17v-18h2.17v18Z"/>
      <path d="m1075.25,145.36c0,1.74-.23,3.41-.69,5.01s-1.16,3.07-2.1,4.42-1.93,2.31-2.96,2.88l-.46-1.32c1.2-.92,2.17-2.35,2.9-4.29s1.1-4.1,1.12-6.46v-.38c0-1.64-.17-3.17-.52-4.58s-.82-2.67-1.44-3.79-1.3-1.99-2.07-2.61l.46-1.32c1.03.57,2.01,1.52,2.95,2.86s1.63,2.81,2.1,4.42.7,3.33.7,5.17Z"/>
    </g>
  </g>
  <g>
    <g>
      <line class="cls-6" x1="1088.12" y1="457.79" x2="708.78" y2="457.79"/>
      <polygon class="cls-3" points="1085.79 449.81 1099.61 457.79 1085.79 465.76 1085.79 449.81"/>
    </g>
    <g>
      <path d="m777.37,426.81h-7.39v6.05h8.59v1.84h-10.84v-17.06h10.72v1.84h-8.47v5.5h7.39v1.84Z"/>
      <path d="m783.38,434.7h-2.17v-18h2.17v18Z"/>
      <path d="m792.11,434.93c-1.72,0-3.12-.56-4.2-1.69s-1.62-2.64-1.62-4.53v-.4c0-1.26.24-2.38.72-3.37s1.15-1.76,2.02-2.32,1.8-.84,2.81-.84c1.65,0,2.93.54,3.84,1.63s1.37,2.64,1.37,4.66v.9h-8.59c.03,1.25.4,2.26,1.1,3.03s1.59,1.15,2.67,1.15c.77,0,1.41-.16,1.95-.47s1-.73,1.39-1.24l1.32,1.03c-1.06,1.63-2.66,2.45-4.78,2.45Zm-.27-11.37c-.88,0-1.61.32-2.2.96s-.96,1.53-1.1,2.68h6.35v-.16c-.06-1.1-.36-1.96-.89-2.56s-1.25-.91-2.16-.91Z"/>
      <path d="m804.65,433.16c.77,0,1.45-.23,2.03-.7s.9-1.05.96-1.76h2.05c-.04.73-.29,1.42-.75,2.07s-1.08,1.18-1.85,1.57-1.58.59-2.44.59c-1.73,0-3.1-.58-4.12-1.73s-1.53-2.73-1.53-4.73v-.36c0-1.23.23-2.33.68-3.29s1.1-1.71,1.95-2.24,1.85-.8,3.01-.8c1.42,0,2.6.43,3.54,1.28s1.44,1.96,1.51,3.32h-2.05c-.06-.82-.37-1.49-.93-2.02s-1.25-.79-2.07-.79c-1.1,0-1.96.4-2.56,1.19s-.91,1.94-.91,3.44v.41c0,1.46.3,2.59.9,3.38s1.46,1.18,2.58,1.18Z"/>
      <path d="m815.06,418.95v3.07h2.37v1.68h-2.37v7.87c0,.51.11.89.32,1.14.21.25.57.38,1.08.38.25,0,.59-.05,1.03-.14v1.75c-.57.16-1.12.23-1.66.23-.97,0-1.7-.29-2.19-.88s-.74-1.42-.74-2.5v-7.86h-2.31v-1.68h2.31v-3.07h2.17Z"/>
      <path d="m826.09,423.96c-.33-.05-.68-.08-1.07-.08-1.42,0-2.39.61-2.89,1.82v9h-2.17v-12.68h2.11l.04,1.46c.71-1.13,1.72-1.7,3.02-1.7.42,0,.74.05.96.16v2.02Z"/>
      <path d="m828.1,418.66c0-.35.11-.65.32-.89s.53-.36.96-.36.74.12.96.36.33.54.33.89-.11.64-.33.88-.54.35-.96.35-.74-.12-.96-.35-.32-.53-.32-.88Zm2.34,16.04h-2.17v-12.68h2.17v12.68Z"/>
      <path d="m838.99,433.16c.77,0,1.45-.23,2.03-.7s.9-1.05.96-1.76h2.05c-.04.73-.29,1.42-.75,2.07s-1.08,1.18-1.85,1.57-1.58.59-2.44.59c-1.73,0-3.1-.58-4.12-1.73s-1.53-2.73-1.53-4.73v-.36c0-1.23.23-2.33.68-3.29s1.1-1.71,1.95-2.24,1.85-.8,3.01-.8c1.42,0,2.6.43,3.54,1.28s1.44,1.96,1.51,3.32h-2.05c-.06-.82-.37-1.49-.93-2.02s-1.25-.79-2.07-.79c-1.1,0-1.96.4-2.56,1.19s-.91,1.94-.91,3.44v.41c0,1.46.3,2.59.9,3.38s1.46,1.18,2.58,1.18Z"/>
      <path d="m854.3,434.7c-.12-.25-.23-.7-.3-1.34-1.01,1.05-2.21,1.57-3.61,1.57-1.25,0-2.28-.35-3.08-1.06s-1.2-1.6-1.2-2.69c0-1.32.5-2.35,1.51-3.08s2.42-1.1,4.24-1.1h2.11v-1c0-.76-.23-1.36-.68-1.81s-1.12-.67-2-.67c-.77,0-1.42.2-1.95.59s-.79.86-.79,1.42h-2.18c0-.63.22-1.24.67-1.83s1.06-1.06,1.83-1.4,1.62-.52,2.54-.52c1.46,0,2.61.37,3.43,1.1s1.26,1.74,1.29,3.02v5.84c0,1.16.15,2.09.45,2.78v.19h-2.27Zm-3.6-1.65c.68,0,1.32-.18,1.93-.53s1.05-.81,1.32-1.37v-2.6h-1.7c-2.66,0-3.98.78-3.98,2.33,0,.68.23,1.21.68,1.59s1.04.57,1.75.57Z"/>
      <path d="m861.88,434.7h-2.17v-18h2.17v18Z"/>
      <path d="m876.55,434.93c-1.72,0-3.12-.56-4.2-1.69s-1.62-2.64-1.62-4.53v-.4c0-1.26.24-2.38.72-3.37s1.15-1.76,2.02-2.32,1.8-.84,2.81-.84c1.65,0,2.93.54,3.84,1.63s1.37,2.64,1.37,4.66v.9h-8.59c.03,1.25.4,2.26,1.1,3.03s1.59,1.15,2.67,1.15c.77,0,1.41-.16,1.95-.47s1-.73,1.39-1.24l1.32,1.03c-1.06,1.63-2.66,2.45-4.78,2.45Zm-.27-11.37c-.88,0-1.61.32-2.2.96s-.96,1.53-1.1,2.68h6.35v-.16c-.06-1.1-.36-1.96-.89-2.56s-1.25-.91-2.16-.91Z"/>
      <path d="m886.06,422.02l.07,1.59c.97-1.22,2.23-1.83,3.8-1.83,2.68,0,4.03,1.51,4.05,4.54v8.38h-2.17v-8.39c0-.91-.22-1.59-.63-2.03s-1.05-.66-1.92-.66c-.7,0-1.32.19-1.85.56s-.95.87-1.24,1.48v9.04h-2.17v-12.68h2.05Z"/>
      <path d="m902.51,434.93c-1.72,0-3.12-.56-4.2-1.69s-1.62-2.64-1.62-4.53v-.4c0-1.26.24-2.38.72-3.37s1.15-1.76,2.02-2.32,1.8-.84,2.81-.84c1.65,0,2.93.54,3.84,1.63s1.37,2.64,1.37,4.66v.9h-8.59c.03,1.25.4,2.26,1.1,3.03s1.59,1.15,2.67,1.15c.77,0,1.41-.16,1.95-.47s1-.73,1.39-1.24l1.32,1.03c-1.06,1.63-2.66,2.45-4.78,2.45Zm-.27-11.37c-.88,0-1.61.32-2.2.96s-.96,1.53-1.1,2.68h6.35v-.16c-.06-1.1-.36-1.96-.89-2.56s-1.25-.91-2.16-.91Z"/>
      <path d="m916.09,423.96c-.33-.05-.68-.08-1.07-.08-1.42,0-2.39.61-2.89,1.82v9h-2.17v-12.68h2.11l.04,1.46c.71-1.13,1.72-1.7,3.02-1.7.42,0,.74.05.96.16v2.02Z"/>
      <path d="m917.57,428.25c0-1.98.46-3.55,1.37-4.72s2.12-1.75,3.63-1.75,2.75.55,3.62,1.64l.11-1.41h1.98v12.38c0,1.64-.49,2.93-1.46,3.88s-2.28,1.42-3.92,1.42c-.91,0-1.81-.2-2.68-.59s-1.54-.93-2-1.61l1.12-1.3c.93,1.15,2.07,1.72,3.41,1.72,1.05,0,1.88-.3,2.47-.89s.88-1.43.88-2.51v-1.09c-.87,1-2.05,1.5-3.55,1.5s-2.69-.6-3.6-1.79-1.38-2.82-1.38-4.89Zm2.18.25c0,1.43.29,2.55.88,3.37s1.41,1.22,2.46,1.22c1.37,0,2.37-.62,3.01-1.86v-5.79c-.66-1.21-1.66-1.82-2.99-1.82-1.05,0-1.88.41-2.47,1.23s-.89,2.04-.89,3.64Z"/>
      <path d="m935.7,431.52l2.95-9.5h2.32l-5.1,14.64c-.79,2.11-2.04,3.16-3.76,3.16l-.41-.04-.81-.15v-1.76l.59.05c.73,0,1.31-.15,1.72-.45s.75-.84,1.01-1.63l.48-1.29-4.52-12.54h2.37l3.16,9.5Z"/>
      <path d="m948.76,427.77c0-1.77.24-3.46.71-5.09s1.18-3.1,2.12-4.43,1.91-2.27,2.92-2.81l.45,1.43c-1.14.88-2.08,2.21-2.81,4.01s-1.13,3.81-1.2,6.04v1c-.01,3.02.54,5.63,1.64,7.85.66,1.33,1.45,2.37,2.37,3.12l-.45,1.32c-1.04-.58-2.03-1.55-2.98-2.91-1.84-2.66-2.77-5.83-2.77-9.53Z"/>
      <path d="m969.94,429.28c-.21,1.8-.88,3.2-2,4.18s-2.61,1.47-4.47,1.47c-2.02,0-3.63-.72-4.85-2.17s-1.82-3.38-1.82-5.8v-1.64c0-1.59.28-2.98.85-4.18s1.37-2.13,2.41-2.77,2.24-.97,3.61-.97c1.81,0,3.27.51,4.36,1.52s1.73,2.41,1.91,4.2h-2.26c-.2-1.36-.62-2.35-1.27-2.96-.65-.61-1.56-.92-2.74-.92-1.44,0-2.56.53-3.38,1.59s-1.22,2.58-1.22,4.54v1.65c0,1.85.39,3.33,1.16,4.42.77,1.09,1.86,1.64,3.25,1.64,1.25,0,2.21-.28,2.88-.85s1.11-1.55,1.33-2.96h2.26Z"/>
      <path d="m980.5,433.44c-.84.99-2.08,1.49-3.71,1.49-1.35,0-2.38-.39-3.09-1.18s-1.06-1.95-1.07-3.49v-8.25h2.17v8.19c0,1.92.78,2.88,2.34,2.88,1.66,0,2.76-.62,3.3-1.85v-9.22h2.17v12.68h-2.06l-.05-1.25Z"/>
      <path d="m992.03,423.96c-.33-.05-.68-.08-1.07-.08-1.42,0-2.39.61-2.89,1.82v9h-2.17v-12.68h2.11l.04,1.46c.71-1.13,1.72-1.7,3.02-1.7.42,0,.74.05.96.16v2.02Z"/>
      <path d="m1000.15,423.96c-.33-.05-.68-.08-1.07-.08-1.42,0-2.39.61-2.89,1.82v9h-2.17v-12.68h2.11l.04,1.46c.71-1.13,1.72-1.7,3.02-1.7.42,0,.74.05.96.16v2.02Z"/>
      <path d="m1007.4,434.93c-1.72,0-3.12-.56-4.2-1.69s-1.62-2.64-1.62-4.53v-.4c0-1.26.24-2.38.72-3.37s1.15-1.76,2.02-2.32,1.8-.84,2.81-.84c1.65,0,2.93.54,3.84,1.63s1.37,2.64,1.37,4.66v.9h-8.59c.03,1.25.4,2.26,1.1,3.03s1.59,1.15,2.67,1.15c.77,0,1.41-.16,1.95-.47s1-.73,1.39-1.24l1.32,1.03c-1.06,1.63-2.66,2.45-4.78,2.45Zm-.27-11.37c-.88,0-1.61.32-2.2.96s-.96,1.53-1.1,2.68h6.35v-.16c-.06-1.1-.36-1.96-.89-2.56s-1.25-.91-2.16-.91Z"/>
      <path d="m1016.91,422.02l.07,1.59c.97-1.22,2.23-1.83,3.8-1.83,2.68,0,4.03,1.51,4.05,4.54v8.38h-2.17v-8.39c0-.91-.22-1.59-.63-2.03s-1.05-.66-1.92-.66c-.7,0-1.32.19-1.85.56s-.95.87-1.24,1.48v9.04h-2.17v-12.68h2.05Z"/>
      <path d="m1031.04,418.95v3.07h2.37v1.68h-2.37v7.87c0,.51.11.89.32,1.14.21.25.57.38,1.08.38.25,0,.59-.05,1.03-.14v1.75c-.57.16-1.12.23-1.66.23-.97,0-1.7-.29-2.19-.88s-.74-1.42-.74-2.5v-7.86h-2.31v-1.68h2.31v-3.07h2.17Z"/>
      <path d="m1040.94,427.89c0,1.74-.23,3.41-.69,5.01s-1.16,3.07-2.1,4.42-1.93,2.31-2.96,2.88l-.46-1.32c1.2-.92,2.17-2.35,2.9-4.29s1.1-4.1,1.12-6.46v-.38c0-1.64-.17-3.17-.52-4.58s-.82-2.67-1.44-3.79-1.3-1.99-2.07-2.61l.46-1.32c1.03.57,2.01,1.52,2.95,2.86s1.63,2.81,2.1,4.42.7,3.33.7,5.17Z"/>
    </g>
  </g>
</svg>