<?xml version="1.0" encoding="UTF-8"?><svg id="a" xmlns="http://www.w3.org/2000/svg" width="570" height="321" viewBox="0 0 570 321"><defs><style>.u,.v,.w,.x{stroke-miterlimit:10;}.u,.y,.w{stroke-width:2px;}.u,.w{stroke:#bfbfbf;}.u,.z{fill:#e5e5e5;}.v{stroke:#212628;stroke-width:7px;}.v,.y{stroke-linecap:round;}.v,.y,.w,.x{fill:none;}.y{stroke:#84a8b3;stroke-linejoin:round;}.aa{fill:rgba(255,255,255,.1);}.aa,.x,.ab,.ac{fill-rule:evenodd;}.aa,.ab,.ac,.ad,.ae,.af,.ag,.ah,.ai,.aj,.ak,.al,.am,.an,.ao,.ap,.aq,.ar,.as,.at,.au,.av,.aw,.ax,.ay,.az,.ba,.z{stroke-width:0px;}.x{stroke:#fee697;stroke-width:6px;}.ab{fill:#77747a;}.ac{fill:#ce996a;}.ae{fill:#f9f9f9;}.af{fill:#606060;}.ag{fill:#5e6868;}.ah{fill:#4ebbb8;}.ai{fill:#282828;}.aj{fill:#554d4f;}.ak{fill:#544d4f;}.al{fill:#2d9b98;}.am{fill:#384040;}.an{fill:#352f31;}.ao{fill:#1c8c8c;}.ap{fill:#070707;}.aq{fill:#212628;}.ar{fill:#e0e0e0;}.as{fill:#c6cacc;}.at{fill:#bfbfbf;}.au{fill:#bcccd0;}.av{fill:#abb7b7;}.aw{fill:#979797;}.ax{fill:#849596;}.ay{fill:#802623;}.az{fill:#f29f3d;}.ba{fill:#fff;}</style></defs><g id="b"><path class="ab" d="m8.099,147.262C-13.948-15.543,131.354,7.069,283.397,7.069s273.723-4.54,284.343,76.88c22.046,169.023-130.694,219.182-282.647,224.422C55.583,316.285,19.117,228.629,8.099,147.262Z"/><path class="ac" d="m11.197,77.219c-5.66,18.331-6.991,41.293-3.098,70.043,11.018,81.367,47.485,169.023,276.994,161.109,151.953-5.24,304.694-55.399,282.647-224.422-.312-2.395-.729-4.709-1.232-6.957-75.331.152-483.032.938-555.312.228Z"/><path class="aa" d="m351.319,77.702s160.358-34.141,177.682-46.981C479.683,4.895,388.851,7.069,283.397,7.069,171.594,7.069,63.439-5.155,22.785,53.106l149.919,23.885,178.614.711Z"/></g><g id="c"><g id="d"><polygon class="ap" points="240.478 64.436 239.461 86.482 220.942 97.653 113.698 87.841 114.163 66.56 140.569 55.98 240.478 64.436"/><g id="e"><path class="ao" d="m130.977,84.533c-5.188-.323-8.626-8.753-7.679-18.829.947-10.076,5.922-17.983,11.11-17.66l89.679,5.582c5.188.323,8.626,8.753,7.679,18.829-.947,10.076-5.922,17.983-11.11,17.66l-89.679-5.582Z"/><path class="ah" d="m192.157,88.341c-5.188-.323-8.626-8.753-7.679-18.829.947-10.076,5.922-17.983,11.11-17.66l28.792,1.792c5.188.323,8.626,8.753,7.679,18.829-.947,10.076-5.922,17.983-11.11,17.66l-28.792-1.792Z"/><ellipse class="ah" cx="222.372" cy="71.871" rx="18.328" ry="9.406" transform="translate(127.577 285.479) rotate(-83.98)"/><ellipse class="ax" cx="222.795" cy="71.662" rx="15.616" ry="7.614" transform="translate(129.262 286.195) rotate(-84.274)"/><path class="ag" d="m220.543,71.495c.291-3.227,2.234-5.738,4.346-5.615l1.15.096c.713.042.798.606.732,1.329l-.86,9.521c-.042.467-.45.824-.912.797l-1.165-.068c-2.113-.123-3.583-2.84-3.292-6.061Z"/><path class="av" d="m223.815,71.685c.271-3.007,1.498-5.387,2.728-5.316s1.998,2.569,1.726,5.576c-.271,3.007-1.48,5.388-2.71,5.317s-2.016-2.57-1.744-5.577Z"/><path class="ao" d="m220.647,90.261c-4.374.581-6.895-4.272-7.901-7.8-2.446-8.814-.936-20.641,5.739-27.303,1.48-1.322,3.643-2.249,5.611-1.679.08.022.127.104.105.184-3.553,1.028-5.74,3.969-7.304,7.191-3.354,7.602-4.413,18.454-.042,25.812.912,1.452,2.054,2.641,3.82,3.306.142.041.118.275-.029.289h0Z"/><path class="ay" d="m202.608,67.638l-.356,3.786-2.703-.168.356-3.787-4.225-.263.271-2.884,4.225.263.357-3.798,2.703.169-.357,3.797,4.05.252-.271,2.885-4.05-.252Z"/></g><polygon class="an" points="239.204 64.321 220.035 76.214 220.942 97.653 239.461 86.482 240.478 64.436 239.204 64.321"/><path class="an" d="m222.306,74.772l-41.669-3.486c-.232,6.013-2.803,9.656-19.961,8.447s-17.7-4.134-17.385-11.272l-29.128-1.901-.465,21.281,107.902,8.475.706-21.545Z"/></g><g id="f"><polygon class="ap" points="221.925 75.578 220.908 97.624 202.389 108.795 95.145 98.983 95.61 77.702 122.016 67.123 221.925 75.578"/><g id="g"><path class="ao" d="m112.063,95.946c-5.177-.473-8.369-8.999-7.13-19.044,1.239-10.044,6.44-17.803,11.617-17.33l89.48,8.179c5.177.473,8.369,8.999,7.13,19.044-1.239,10.044-6.44,17.803-11.617,17.33l-89.48-8.179Z"/><path class="ah" d="m112.063,95.946c-5.177-.473-8.369-8.999-7.13-19.044s6.44-17.803,11.617-17.33l28.728,2.626c-6.227,4.107-7.385,7.281-8.624,17.326s9.313,19.521,4.137,19.048l-28.728-2.626Z"/><ellipse class="ah" cx="203.786" cy="85.938" rx="18.328" ry="9.406" transform="translate(91.383 276.41) rotate(-82.319)"/><ellipse class="ax" cx="204.215" cy="85.742" rx="15.616" ry="7.614" transform="translate(92.929 277.239) rotate(-82.613)"/><path class="ag" d="m204.583,75.51c-.024,1.467-.661,2.399-1.117,3.656-.391,1.136-.633,2.294-.72,3.449-.094,1.154-.055,2.323.222,3.471.223,1.187.836,2.152.728,3.74l-.244.163c-2.664-1.345-3.208-4.85-3.111-7.562.109-1.438.51-2.838,1.13-4.1.631-1.228,1.256-2.59,2.894-3.012l.218.196h0Z"/><path class="ag" d="m201.924,96.969c-1.476.338-1.357-1.091-.848-1.884,1.75-2.796,4.491-4.729,6.275-7.457,3.57-4.471,2.815-10.605.196-15.351-.27-.559-.535-1.153-.894-1.653l.121-.267c.79.147,1.347.628,1.882,1.086,3.414,3.573,4.342,9.272,2.678,13.893-1.943,4.556-5.589,7.564-9.214,10.566-.227.167-.432.421-.502.442-.038-.034-.134-.017-.036.09.08.082.221.174.369.244,0,0-.027.292-.027.292h0Z"/><path class="ay" d="m120.391,78.459l-.466,3.775-2.697-.246.466-3.775-4.216-.386.354-2.875,4.216.386.467-3.785,2.697.246-.467,3.785,4.041.37-.354,2.875-4.041-.37Z"/></g><polygon class="an" points="220.651 75.463 201.482 87.356 202.389 108.795 220.908 97.624 221.925 75.578 220.651 75.463"/><path class="an" d="m203.753,85.914l-41.669-3.486c-.232,6.013-2.803,9.656-19.961,8.447s-17.7-4.134-17.385-11.272l-29.128-1.901-.465,21.281,107.902,8.475.706-21.545Z"/></g><g id="h"><path class="ar" d="m232.321,75.299c1.958.464,3.276,1.806,4.776,2.992-.874,2.093-1.784,4.184-2.832,6.193l-.292.561c-1.533.247-3.082.423-4.623.613l-.785.099-.303-.651c-.59-1.283-1.043-2.571-1.028-4.038,0,0,.263-.131.263-.131,1.177.876,1.93,2.015,2.594,3.261,0,0-1.088-.552-1.088-.552,1.329-.294,2.654-.607,3.989-.864l-.867.649c.834-1.801,1.771-3.551,2.75-5.281l.244,1.251c-1.211-1.15-2.387-2.232-2.993-3.883,0,0,.195-.219.195-.219h0Z"/><path class="ar" d="m209.492,91.685c.003.008,1.626,2.742,1.626,2.751,0,0-.418-.577-.418-.577,1.266.7,2.495,1.455,3.716,2.223l-1.263-.015c1.415-.927,2.865-1.799,4.326-2.652l-.521,1.193c-.252-1.368-.453-2.746-.682-4.119l.757.801c-1.567-.437-3.058-.954-4.365-2.017,0,0,.072-.285.072-.285,1.863-.358,3.62.033,5.407.44.402,1.824.853,3.658,1.215,5.491-1.633,1.079-3.283,2.155-4.97,3.145,0,0-.666.391-.666.391-1.516-1.027-3.034-2.072-4.482-3.198-.002-.009-.059-.302-.06-.31,0,0,.025-3.186.025-3.186l.284-.076h0Z"/><ellipse class="ba" cx="214.578" cy="92.937" rx="3.37" ry="4.017"/><ellipse class="ba" cx="232.223" cy="80.15" rx="3.338" ry="3.979"/><path class="al" d="m144.763,62.548c3.429-.759,6.782-.38,10.152-.26,3.369.136,6.733.349,10.098.55,3.361.25,6.723.494,10.08.807,3.358.305,6.725.46,10.028,1.597.138.044.133.269-.02.293-6.779,1.044-13.477-.106-20.249-.29-3.362-.248-6.724-.484-10.081-.797-3.356-.329-6.73-.399-10.027-1.607-.135-.046-.13-.266.02-.293h0Z"/></g></g><g id="i"><path class="au" d="m425.047,128.523c-.013-1.344-.14-2.741-.404-4.202-6.688-37.06-65.594-37.854-69.699.707-2.511,23.583,10.837,22.113,10.709,42.934-.032,5.178,1.724,11.952,7.203,17.016,3.872,3.579,7.781,4.083,11.812,3.272,4.385-.883,9.767.54,14.198.087,3.721-.38,11.338-5.712,13.501-16.415,1.44-7.128-.541-9.495,2.196-16.215,3.924-9.632,10.582-16.875,10.484-27.184Z"/><path class="y" d="m393.516,182.944s1.652-41.574,2.753-43.501c1.101-1.927,6.368-1.654,6.608,3.579.189,4.13-9.912,3.579-9.912,3.579h-8.254s8.81,0,8.81,0h-9.361s-10.003.642-9.912-3.579c.114-5.237,5.506-5.506,6.608-3.579,1.101,1.927,2.753,43.501,2.753,43.501"/><path class="aj" d="m388.86,194.22c-33.686,0-51.542,7.348-51.542,16.411l-.295,15.051c.598,8.847,18.423,15.946,51.518,15.946,32.832,0,50.632-6.981,51.51-15.731h.056s.255-12.643.287-14.953c.008-.104.008-.208.008-.312,0-9.062-17.864-16.411-51.542-16.411Z"/><path class="an" d="m440.395,213.322c-.026,1.966,0,13.696,0,13.696-.875,7.983-19.019,14.356-51.851,14.356-33.098,0-50.623-6.479-51.228-14.553v-13.732c.471,2.637,1.439,4.568,4.269,6.543,4.632,3.241,13,5.828,24.891,7.244,6.435.768,13.908,1.192,22.38,1.192,8.152,0,15.381-.394,21.649-1.107,12.013-1.366,20.518-3.906,25.31-7.115,2.941-1.963,4.484-4.177,4.581-6.526Z"/><path class="aj" d="m366.121,216.021l1.991-36.831s5.814,4.095,21.816,4.002c16.003-.093,20.572-3.859,20.572-3.859l1.108,37.913-45.487-1.225Z"/><path class="an" d="m410.668,184.268c.261,4.317-6.019,6.215-9.326,7.116-3.933,1.02-7.973,1.335-11.977,1.369-5.989-.136-12.212-.539-17.772-3.09-1.757-.909-4.07-2.563-3.712-4.838,0,0,.294,0,.294,0,.607,1.818,2.554,2.494,4.176,3.148,9.306,3.346,27.806,3.669,36.305-1.709.728-.517,1.415-1.089,1.719-1.997h.294Z"/><path class="an" d="m366.505,211.243c-.979-1.293-.811-2.579-.899-3.866-.065-1.287-.09-2.575-.066-3.863.024-1.288.111-2.575.228-3.865.134-1.281.071-2.607,1.169-3.844l.286.068c1.157,2.416.576,5.106.73,7.686-.025,1.281-.087,2.563-.183,3.844-.118,1.282.024,2.565-.972,3.842l-.294-.002h0Z"/><path class="an" d="m411.134,214.31c-1.034-1.532-.92-3.099-1.062-4.658-.119-1.56-.197-3.121-.227-4.685-.03-1.563.006-3.129.071-4.697.09-1.564-.045-3.151,1.042-4.718l.286.068c1.223,2.95.754,6.19,1.014,9.302.028,1.557.02,3.116-.022,4.676-.064,1.561.133,3.114-.808,4.702l-.294.009h0Z"/><g id="j"><path class="az" d="m418.617,204.957h9.333c4.23,0,7.664,3.434,7.664,7.664h0c0,1.338-1.086,2.424-2.424,2.424h-19.812c-1.338,0-2.424-1.086-2.424-2.424h0c0-4.23,3.434-7.664,7.664-7.664Z"/><ellipse class="aw" cx="423.223" cy="204.884" rx="8.666" ry="3.517"/><path class="aw" d="m414.557,207.005c.306,1.918,3.88,3.517,8.666,3.517,4.786,0,8.32-1.606,8.666-3.517,1.026-5.659-3.88-3.517-8.666-3.517-4.786,0-9.587-2.247-8.666,3.517Z"/><path class="af" d="m428.967,204.159c-.967.997-1.946.851-2.922.963-.976.09-1.953.143-2.929.152-.977.009-1.954-.039-2.932-.107-.978-.071-1.954.008-2.939-.897l-.003-.294c.968-.924,1.946-.864,2.922-.953.976-.086,1.952-.153,2.929-.162.977-.009,1.954.025,2.932.096.978.094,1.953-.071,2.939.907l.003.294h0Z"/><path class="af" d="m423.286,202.347c.997.307.851.647.963.979.09.333.142.666.152,1.001.009.335-.039.671-.106,1.008-.071.337.008.67-.897,1.03l-.294.008c-.923-.31-.863-.646-.953-.979-.086-.333-.152-.666-.162-1.001-.009-.335.025-.671.096-1.008.094-.338-.071-.668.907-1.031l.294-.008h0Z"/></g><g id="k"><path class="az" d="m349.029,204.957h9.333c4.23,0,7.664,3.434,7.664,7.664h0c0,1.338-1.086,2.424-2.424,2.424h-19.812c-1.338,0-2.424-1.086-2.424-2.424h0c0-4.23,3.434-7.664,7.664-7.664Z"/><ellipse class="aw" cx="353.635" cy="204.884" rx="8.666" ry="3.517"/><path class="aw" d="m344.969,207.005c.306,1.918,3.88,3.517,8.666,3.517,4.786,0,8.32-1.606,8.666-3.517,1.026-5.659-3.88-3.517-8.666-3.517-4.786,0-9.587-2.247-8.666,3.517Z"/><path class="af" d="m359.379,204.159c-.967.997-1.946.851-2.922.963-.976.09-1.953.143-2.929.152-.977.009-1.954-.039-2.932-.107-.978-.071-1.954.008-2.939-.897l-.003-.294c.968-.924,1.946-.864,2.922-.953.976-.086,1.952-.153,2.929-.162.977-.009,1.954.025,2.932.096.978.094,1.953-.071,2.939.907l.003.294h0Z"/><path class="af" d="m353.698,202.347c.997.307.851.647.963.979.09.333.142.666.152,1.001.009.335-.039.671-.106,1.008-.071.337.008.67-.897,1.03l-.294.008c-.923-.31-.863-.646-.953-.979-.086-.333-.152-.666-.162-1.001-.009-.335.025-.671.096-1.008.094-.338-.071-.668.907-1.031l.294-.008h0Z"/></g></g><g id="l"><path class="au" d="m534.733,38.207c-.013-1.344-.14-2.741-.404-4.202-6.688-37.06-65.594-37.854-69.699.707-2.511,23.583,10.837,22.113,10.709,42.934-.032,5.178,1.724,11.952,7.203,17.016,3.872,3.579,7.781,4.083,11.812,3.272,4.385-.883,9.767.54,14.198.087,3.721-.38,11.338-5.712,13.501-16.415,1.44-7.128-.541-9.495,2.196-16.215,3.924-9.632,10.582-16.875,10.484-27.184Z"/><path class="y" d="m503.201,92.628s1.652-41.574,2.753-43.501c1.101-1.927,6.368-1.654,6.608,3.579.189,4.13-9.912,3.579-9.912,3.579h-8.254s8.81,0,8.81,0h-9.361s-10.003.642-9.912-3.579c.114-5.237,5.506-5.506,6.608-3.579,1.101,1.927,2.753,43.501,2.753,43.501"/><path class="aj" d="m498.546,103.904c-33.686,0-51.542,7.348-51.542,16.411l-.295,15.051c.598,8.847,18.423,15.946,51.518,15.946,32.832,0,50.632-6.981,51.51-15.731h.056s.255-12.643.287-14.953c.008-.104.008-.208.008-.312,0-9.062-17.864-16.411-51.542-16.411Z"/><path class="an" d="m550.08,123.006c-.026,1.966,0,13.696,0,13.696-.875,7.983-19.019,14.356-51.851,14.356-33.098,0-50.623-6.479-51.228-14.553v-13.732c.471,2.637,1.439,4.568,4.269,6.543,4.632,3.241,13,5.828,24.891,7.244,6.435.768,13.908,1.192,22.38,1.192,8.152,0,15.381-.394,21.649-1.107,12.013-1.366,20.518-3.906,25.31-7.115,2.941-1.963,4.484-4.177,4.581-6.526Z"/><path class="aj" d="m475.806,125.705l1.991-36.831s5.814,4.095,21.816,4.002c16.003-.093,20.572-3.859,20.572-3.859l1.108,37.913-45.487-1.225Z"/><path class="an" d="m520.354,93.952c.261,4.317-6.019,6.215-9.326,7.116-3.933,1.02-7.973,1.335-11.977,1.369-5.989-.136-12.212-.539-17.772-3.09-1.757-.909-4.07-2.563-3.712-4.838,0,0,.294,0,.294,0,.607,1.818,2.554,2.494,4.176,3.148,9.306,3.346,27.806,3.669,36.305-1.709.728-.517,1.415-1.089,1.719-1.997h.294Z"/><path class="an" d="m476.19,120.927c-.979-1.293-.811-2.579-.899-3.866-.065-1.287-.09-2.575-.066-3.863.024-1.288.111-2.575.228-3.865.134-1.281.071-2.607,1.169-3.844l.286.068c1.157,2.416.576,5.106.73,7.686-.025,1.281-.087,2.563-.183,3.844-.118,1.282.024,2.565-.972,3.842l-.294-.002h0Z"/><path class="an" d="m520.82,123.994c-1.034-1.532-.92-3.099-1.062-4.658-.12-1.56-.197-3.121-.227-4.685-.03-1.563.006-3.129.071-4.697.09-1.564-.045-3.151,1.042-4.718l.286.068c1.223,2.95.754,6.19,1.014,9.302.028,1.557.02,3.116-.022,4.676-.064,1.561.133,3.114-.808,4.702l-.294.009h0Z"/><g id="m"><path class="az" d="m528.303,114.641h9.333c4.23,0,7.664,3.434,7.664,7.664h0c0,1.338-1.086,2.424-2.424,2.424h-19.812c-1.338,0-2.424-1.086-2.424-2.424h0c0-4.23,3.434-7.664,7.664-7.664Z"/><ellipse class="aw" cx="532.909" cy="114.568" rx="8.666" ry="3.517"/><path class="aw" d="m524.243,116.689c.306,1.918,3.88,3.517,8.666,3.517,4.786,0,8.32-1.606,8.666-3.517,1.026-5.659-3.88-3.517-8.666-3.517-4.786,0-9.587-2.247-8.666,3.517Z"/><path class="af" d="m538.653,113.843c-.967.997-1.946.851-2.922.963-.976.09-1.953.143-2.929.152-.977.009-1.954-.039-2.932-.107-.978-.071-1.954.008-2.939-.897l-.003-.294c.968-.924,1.946-.864,2.922-.953.976-.086,1.952-.153,2.929-.162.977-.009,1.954.025,2.932.096.978.094,1.953-.071,2.939.907l.003.294h0Z"/><path class="af" d="m532.972,112.031c.997.307.851.647.963.979.09.333.142.666.152,1.001.009.335-.039.671-.107,1.008-.071.337.008.67-.897,1.03l-.294.008c-.923-.31-.863-.646-.953-.979-.086-.333-.152-.666-.162-1.001-.009-.335.025-.671.096-1.008.094-.338-.071-.668.907-1.031l.294-.008h0Z"/></g><g id="n"><path class="az" d="m458.715,114.641h9.333c4.23,0,7.664,3.434,7.664,7.664h0c0,1.338-1.086,2.424-2.424,2.424h-19.812c-1.338,0-2.424-1.086-2.424-2.424h0c0-4.23,3.434-7.664,7.664-7.664Z"/><ellipse class="aw" cx="463.321" cy="114.568" rx="8.666" ry="3.517"/><path class="aw" d="m454.655,116.689c.306,1.918,3.88,3.517,8.666,3.517,4.786,0,8.32-1.606,8.666-3.517,1.026-5.659-3.88-3.517-8.666-3.517-4.786,0-9.587-2.247-8.666,3.517Z"/><path class="af" d="m469.065,113.843c-.967.997-1.946.851-2.922.963-.976.09-1.953.143-2.929.152-.977.009-1.954-.039-2.932-.107-.978-.071-1.954.008-2.939-.897l-.003-.294c.968-.924,1.946-.864,2.922-.953.976-.086,1.952-.153,2.929-.162.977-.009,1.954.025,2.932.096.978.094,1.953-.071,2.939.907l.003.294h0Z"/><path class="af" d="m463.384,112.031c.997.307.851.647.963.979.09.333.142.666.152,1.001.009.335-.039.671-.106,1.008-.071.337.008.67-.897,1.03l-.294.008c-.923-.31-.863-.646-.953-.979-.086-.333-.152-.666-.162-1.001-.009-.335.025-.671.096-1.008.094-.338-.071-.668.907-1.031l.294-.008h0Z"/></g></g><g id="o"><path class="ak" d="m273.659,234.634H104.877l11.765-34.656c.632-1.863,2.382-3.116,4.349-3.116h136.835c1.8,0,3.4,1.147,3.979,2.851l11.855,34.922Z"/><path class="an" d="m270.691,249.612H107.447c-1.419,0-2.569-1.15-2.569-2.569v-12.408h168.782v12.009c0,1.64-1.329,2.969-2.969,2.969Z"/><rect class="z" x="140.148" y="198.078" width="32.337" height="30.06"/><path class="as" d="m144.617,161.002h23.4c.859,0,1.556.697,1.556,1.556v23.089h-26.512v-23.089c0-.859.697-1.556,1.556-1.556Z"/><path class="ae" d="m128.379,146.723h128.305v17.923h-125.308c-2.559,0-4.636-2.077-4.636-4.636v-11.649c0-.904.734-1.639,1.639-1.639Z" transform="translate(-49.458 102.505) rotate(-26.644)"/><path class="am" d="m259.603,111.304c-2.204-.501-4.589-.27-6.767.823l-18.512,9.288,1.148,2.289,2.325-1.167,8.61,17.16,18.512-9.288c4.989-2.503,7.004-8.576,4.501-13.564-1.897-3.781-5.845-5.848-9.817-5.541Z"/><polygon class="ad" points="234.324 121.414 237.955 122.457 235.472 123.703 234.324 121.414"/><polygon class="ad" points="246.407 139.697 244.271 139.343 245.836 138.557 246.407 139.697"/><polygon class="z" points="172.485 198.254 140.148 198.078 141.052 194.079 171.581 194.27 172.485 198.254"/><path class="z" d="m142.612,165.892h27.409c.861,0,1.56.699,1.56,1.56v26.819h-30.528v-26.819c0-.861.699-1.56,1.56-1.56Z"/><path class="at" d="m151.981,180.081c.005,1.794,1.835,2.822,3.219,3.496,2.339.949,5.149-.976,5.056-3.497.124-2.487-2.709-4.474-5.059-3.505-1.432.635-3.234,1.684-3.215,3.505h0Zm-.294,0c.018-1.353.105-2.833.946-4.015,1.941-2.496,6.082-2.415,8.241-.212,3.821,3.614,1.032,10.327-4.227,10.123-3.575-.147-5.19-2.514-4.96-5.896h0Z"/><path class="ai" d="m159.791,178.205c.492.59.473,1.482.491,2.251,0,.037.001.074.001.112,0,.264-6.819,2.011-6.945,1.914-.49-.376-1.216-1.076-1.313-1.753-.032-.222,7.633-2.682,7.766-2.524Z"/><rect class="z" x="207.02" y="197.944" width="32.665" height="30.365"/><path class="as" d="m211.653,161.002h23.4c.859,0,1.556.697,1.556,1.556v23.089h-26.512v-23.089c0-.859.697-1.556,1.556-1.556Z"/><polygon class="z" points="239.685 198.122 207.02 197.944 208.071 194.263 238.617 194.27 239.685 198.122"/><path class="z" d="m209.648,165.892h27.409c.861,0,1.56.699,1.56,1.56v26.819h-30.528v-26.819c0-.861.699-1.56,1.56-1.56Z"/><circle class="w" cx="223.683" cy="180.081" r="4.814"/><path class="ai" d="m226.988,178.163c.394.642.556,1.359.574,2.127,0,.037.001.074.001.112,0,.264-6.771,2.142-6.875,2.021-.586-.676-.692-1.296-.789-1.972-.032-.222,6.981-2.464,7.089-2.288Z"/><g id="p"><path class="ba" d="m152.488,207.217c.058,1.812-.418,3.466-1.01,5.126,0,0-.018-.772-.018-.772l1.953,4.156-1.062-.697,4.555-.045,4.555.061-1.131.981c.281-1.603.65-3.856.963-5.429,0,0,.076.532.076.532-1.641-4.978-.936-5.308,1.744-.794,0,0,.102.18.102.18l-.025.353c-.17,1.973-.499,4.469-.705,6.449,0,0-1.023.014-1.023.014-2.271.052-6.84.064-9.111.016,0,0-.787-.008-.787-.008-.113-.319-1.814-4.504-1.983-4.952,0,0-.164-.41-.164-.41l.146-.362c.661-1.634,1.403-3.187,2.651-4.502,0,0,.275.104.275.104h0Z"/><circle class="z" cx="156.647" cy="211.98" r="4.814"/><path class="at" d="m154.355,207.915c-1.089.562-1.434,1.933-1.465,3.017-.627,3.156,2.668,5.828,5.529,4.19,2.227-1.114,2.567-4.558.568-6.129-1.256-.935-3.056-1.99-4.633-1.079h0Zm-.144-.256c2.801-1.769,5.738-1.597,7.563,1.43,3.815,6.98-6.265,12.66-10.262,5.786-1.628-3.186-.359-5.755,2.699-7.217h0Z"/><path class="ai" d="m159.81,213.821c-.355.68-.915,1.013-1.576,1.406-.032.019-.064.038-.097.056-.23.13-5.31-4.826-5.271-4.98.13-.514.407-1.55.949-1.967.178-.137,6.09,5.301,5.995,5.485Z"/></g><g id="q"><path class="ba" d="m219.46,207.217c.058,1.812-.418,3.466-1.01,5.126,0,0-.018-.772-.018-.772l1.953,4.156-1.062-.697,4.555-.045,4.555.061-1.131.981c.281-1.603.65-3.856.963-5.429,0,0,.076.532.076.532-1.641-4.978-.936-5.308,1.744-.794,0,0,.102.18.102.18l-.025.353c-.17,1.973-.499,4.469-.705,6.449,0,0-1.023.014-1.023.014-2.271.052-6.84.064-9.111.016,0,0-.787-.008-.787-.008-.113-.319-1.814-4.504-1.983-4.952,0,0-.164-.41-.164-.41l.146-.362c.661-1.634,1.403-3.187,2.651-4.502,0,0,.275.104.275.104h0Z"/><circle class="u" cx="223.683" cy="211.98" r="4.814"/><path class="ai" d="m226.985,213.939c-.39.608-.827,1.095-1.488,1.488-.032.019-.202.044-.235.063-.23.13-5.101-5.005-5.044-5.154.219-.58.696-1.04,1.238-1.457.178-.137,5.642,4.886,5.53,5.06Z"/></g></g><g id="r"><path class="x" d="m423.223,210.522v2.975c0,2.32,1.458,4.39,3.642,5.171l2.177.779c4.916,1.758,8.197,6.416,8.197,11.637h0c0,2.898,2.35,5.248,5.248,5.248h12.283c27.052,0,52.199-13.923,66.558-36.849l24.265-38.743c2.261-3.61,3.46-7.784,3.46-12.043v-4.324c0-6.116-3.486-11.697-8.981-14.38l-2.832-1.383c-2.107-1.029-3.443-3.168-3.443-5.512v-2.977"/><path class="x" d="m235.819,81.068l4.938,2.238c1.814.451,3.493,1.331,4.895,2.567l1.584,1.396c1.038.915,2.013,1.913,2.797,3.053,1.604,2.335,3.674,2.582,5.13,2.71,52.03,4.561,107.275-17.624,107.138-.452-.136,17.074-38.769,16.608-58.102,31.172-5.032,3.791-2.562,11.819,3.726,12.211l21.349,1.329c9.626.599,17.947,6.928,21.095,16.045l.055.16,1.791,5.205"/><path class="x" d="m364.604,158.702c-17.505,3.48-32.088,6.857-37.343,8.878-8.22,3.161-15.083,13.711-16.381,21.288-2.252,13.142,1.563,26.597,10.369,36.609h0c3.688,4.193,9.002,6.596,14.586,6.596h0c1.593,0,2.817-1.411,2.591-2.988h0c-.65-4.544,1.921-8.935,6.2-10.594l5.927-2.297c1.786-.692,2.963-2.411,2.963-4.327v-1.345"/><path class="x" d="m463.321,120.206v1.52c0,3.481-2.307,6.541-5.654,7.499l-4.843,1.386c-1.049.3-1.773,1.26-1.773,2.351h0c0,7.174-6.24,10.524-12.586,13.869-2.371,1.25-14.952,5.7-20.932,2.65"/><path class="x" d="m537.449,179.111l3.994,2.216c11.921,7.483,17.22,11.993,16.716,22.453-.399,8.261-3.68,19.053-16.447,28.294-96.783,70.054-241.201,39.26-265.814,33.313-2.27-.548-31.085-11.153-31.085-11.153-3.177-1.869-5.128-5.28-5.128-8.967v-5.014c0-4.228-2.09-8.183-5.582-10.565l-8.233-5.616c-1.339-.913-2.139-2.429-2.139-4.049v-2.656"/><path class="x" d="m156.647,217.361v4.375c0,1.63-.975,3.103-2.476,3.74l-11.132,4.723c-3.714,1.576-6.126,5.219-6.126,9.254v2.822c0,5.006-2.969,9.536-7.56,11.533l-24.135,10.497c-5.982,2.602-12.387,4.097-18.904,4.411l-16.705.807c-27.298,1.318-48.927-22.689-44.848-49.713,5.633-37.323,19.705-81.302,54.711-82.893,63.166-2.872,70.326,15.37,128.616-9.309,3.011-1.275,9.582-4.264,17.249-8.833,4.993-2.976,4.141-10.461-1.39-12.248l-.059-.019c-2.376-.767-4.175-2.725-4.74-5.157l-.091-.394c-.11-.475-.299-.928-.558-1.342l-1.893-3.016"/><g id="s"><line class="v" x1="358.168" y1="160.135" x2="348.142" y2="162.551"/><path class="aq" d="m348.402,156.288l5.868-1.414c.372-.09.743.129.829.487l1.111,4.611c.086.359-.145.722-.516.812l-5.868,1.414c-.372.09-.743-.129-.829-.487l-1.111-4.611c-.086-.359.145-.722.516-.812Z"/></g><g id="t"><line class="v" x1="531.852" y1="182.658" x2="537.857" y2="173.452"/><path class="aq" d="m542.237,178.497l-3.514,5.388c-.223.341-.67.444-.999.229l-4.234-2.762c-.329-.215-.416-.666-.194-1.007l3.514-5.388c.223-.341.67-.444.999-.229l4.234,2.762c.329.215.416.666.194,1.007Z"/></g></g></svg>