<?xml version="1.0" encoding="UTF-8"?>
<svg id="Layer_1" data-name="Layer 1" xmlns="http://www.w3.org/2000/svg" viewBox="0 0 570 395">
  <defs>
    <style>
      .cls-1 {
        fill: #fff;
        stroke: #000;
      }

      .cls-1, .cls-2 {
        stroke-miterlimit: 10;
        stroke-width: 2px;
      }

      .cls-2 {
        fill: none;
        stroke: #e82169;
      }

      .cls-3, .cls-4, .cls-5, .cls-6, .cls-7, .cls-8, .cls-9 {
        stroke-width: 0px;
      }

      .cls-4 {
        fill: #631c1c;
      }

      .cls-5 {
        fill: #605858;
      }

      .cls-6 {
        fill: #deeddf;
      }

      .cls-7 {
        fill: #d12d32;
      }

      .cls-8 {
        fill: #969696;
      }

      .cls-9 {
        fill: #e82169;
      }
    </style>
  </defs>
  <path class="cls-6" d="M.171,180.565C5.03-26.378,173.901.884,306.851.884s243.1,4.311,255.659,150.912c16.164,188.672-25.851,251.864-198.547,235.033-89.323-8.705-171.268,12.928-251.126,1.87C14.385,375.067-2.604,298.745.171,180.565Z"/>
  <g>
    <path class="cls-8" d="M431.85,254.847c1.644-.003,3.213.686,4.324,1.897l8.451,9.213c1.54,1.679,2.395,3.875,2.395,6.154v45.678c0,3.635-2.947,6.582-6.582,6.582H139.946c-5.031,0-9.856-1.999-13.413-5.556l-4.54-4.54c-1.623-1.623-2.535-3.825-2.535-6.121v-117.871s69.359-.055,69.359-.055v64.843s243.034-.224,243.034-.224Z"/>
    <g>
      <path class="cls-7" d="M431.85,68.027c1.644-.003,3.213.686,4.324,1.897l8.451,9.213c1.54,1.679,2.395,3.875,2.395,6.154v45.678c0,3.635-2.947,6.582-6.582,6.582h-251.622v61.67s-12.751-8.302-12.751-8.302h-56.608s0-113.141,0-113.141c0-5.262,4.264-9.529,9.526-9.533l302.867-.217Z"/>
      <path class="cls-4" d="M434.74,69.774c.52,16.544.695,33.432.797,50.002.355,3.652-2.692,7.109-6.414,6.987-1.005,0-3.217.001-4.268.002-51.712.002-119.466.121-170.739-.095,0,0-78.052-.225-78.052-.225l1.006-1.005c.006,7.497-.657,102.336-1.544,49.11-.23-14.587-.422-34.523-.466-49.11,0,0-.006-1.005-.006-1.005h1.012c72.722-.079,161.446-.023,234.157.271,0,0,19.417.035,19.417.035,1.314-.119,2.575-.857,3.292-1.988.869-1.197.702-2.801.726-4.195.071-16.165.31-32.643.788-48.783-.007-.181.299-.184.293,0h0Z"/>
      <path class="cls-4" d="M444.785,135.714c-1.644-.196-2.503-1.222-3.54-2.06-1.021-.855-2.016-1.737-2.982-2.65-.965-.914-1.891-1.869-2.804-2.838-.911-.971-1.924-1.835-2.261-3.412-.028-.119.081-.235.202-.213,1.594.249,2.512,1.213,3.532,2.068,1.018.858,2.023,1.729,2.989,2.642.965.914,1.901,1.858,2.811,2.83.895.988,1.967,1.789,2.254,3.419.023.118-.082.229-.202.213h0Z"/>
      <path class="cls-4" d="M188.715,137.657c-1.743-.293-2.698-1.415-3.832-2.35-1.118-.951-2.21-1.929-3.273-2.938-1.062-1.01-2.085-2.061-3.095-3.126-1.007-1.067-2.118-2.027-2.551-3.699-.034-.12.081-.241.202-.213,1.692.346,2.707,1.406,3.825,2.357,1.115.954,2.218,1.922,3.281,2.931,1.062,1.01,2.095,2.05,3.102,3.118.992,1.084,2.161,1.981,2.544,3.706.029.119-.082.236-.202.213h0Z"/>
    </g>
    <path class="cls-5" d="M434.74,256.593c.539,17.266.954,34.489.754,51.749-.499,3.129-3.532,5.476-6.678,5.265-.444-.005-3.077.005-3.582.002-95.721-.37-208.585.987-303.869-1.354,95.219-2.116,208.218-.553,303.872-.711,0,0,2.866.008,2.866.008l.716.002c2.205.186,4.326-1.373,4.695-3.568.312-17.08.228-34.292.933-51.393-.005-.179.297-.183.293,0h0Z"/>
    <path class="cls-5" d="M444.785,322.534c-1.644-.196-2.503-1.222-3.54-2.06-1.021-.855-2.016-1.737-2.982-2.65-.965-.914-1.891-1.869-2.804-2.838-.911-.971-1.924-1.835-2.261-3.412-.028-.119.082-.235.202-.213,1.594.249,2.512,1.213,3.532,2.068,1.018.858,2.023,1.729,2.989,2.642.965.914,1.901,1.858,2.811,2.83.895.988,1.967,1.789,2.254,3.419.023.118-.082.229-.202.213h0Z"/>
    <path class="cls-5" d="M188.816,255.218c-4.547.837-9.175.844-13.778.904-.05-5.781-.143-11.565-.149-17.346-.075-10.863.023-21.726.145-32.589.047-5.432.159-10.863.884-16.295.015-.159.279-.171.294,0,.725,5.431.837,10.863.884,16.295.122,10.863.22,21.726.145,32.589-.005,5.432-.089,10.863-.139,16.295l-1.036-1.036c4.262.047,8.541.118,12.751.89.155.017.16.275,0,.294h0Z"/>
    <g>
      <circle class="cls-8" cx="413.241" cy="196.199" r="20.059"/>
      <path class="cls-5" d="M412.094,212.728c4.425-1.284,8.686-2.351,11.881-5.795,3.424-3.187,4.561-7.445,5.795-11.881.031-.113.211-.117.243,0,1.719,7.149-4.243,14.853-10.766,17.267-2.262.856-4.775,1.464-7.153.652-.111-.037-.115-.205,0-.242h0Z"/>
      <g>
        <path class="cls-5" d="M403.34,185.484c2.397.668,3.793,2.336,5.416,3.778,1.603,1.462,3.173,2.956,4.706,4.488,1.532,1.533,3.014,3.115,4.479,4.714,1.52,1.656,3.085,3.143,3.787,5.407.052.152-.105.31-.257.257-2.263-.701-3.751-2.267-5.406-3.787-1.599-1.465-3.182-2.947-4.715-4.479-1.532-1.533-3.026-3.103-4.488-4.706-1.442-1.622-3.11-3.019-3.778-5.416-.046-.15.106-.304.257-.257h0Z"/>
        <path class="cls-5" d="M403.083,203.871c.668-2.397,2.336-3.793,3.778-5.415,1.462-1.603,2.956-3.173,4.488-4.706,1.533-1.532,3.115-3.014,4.715-4.479,1.656-1.52,3.143-3.085,5.407-3.787.152-.052.31.105.257.257-.701,2.264-2.267,3.751-3.787,5.407-1.465,1.599-2.947,3.182-4.479,4.714-1.533,1.532-3.103,3.026-4.706,4.488-1.622,1.442-3.019,3.11-5.416,3.778-.15.046-.304-.106-.257-.257h0Z"/>
      </g>
    </g>
  </g>
  <g>
    <path class="cls-1" d="M422.262,281.656c0,10.715-8.686,19.401-19.401,19.401-10.715,0-19.401-8.686-19.401-19.401s8.686-19.401,19.401-19.401c10.715,0,19.401,8.686,19.401,19.401Z"/>
    <path class="cls-3" d="M405.871,285.86c0-.664-.234-1.174-.703-1.529s-1.312-.73-2.531-1.125-2.184-.783-2.895-1.166c-1.938-1.047-2.906-2.457-2.906-4.23,0-.922.26-1.744.779-2.467s1.266-1.287,2.238-1.693,2.064-.609,3.275-.609c1.219,0,2.305.221,3.258.662s1.693,1.064,2.221,1.869.791,1.719.791,2.742h-3.516c0-.781-.246-1.389-.738-1.822s-1.184-.65-2.074-.65c-.859,0-1.527.182-2.004.545s-.715.842-.715,1.436c0,.555.279,1.02.838,1.395s1.381.727,2.467,1.055c2,.602,3.457,1.348,4.371,2.238s1.371,2,1.371,3.328c0,1.477-.559,2.635-1.676,3.475s-2.621,1.26-4.512,1.26c-1.312,0-2.508-.24-3.586-.721s-1.9-1.139-2.467-1.975-.85-1.805-.85-2.906h3.527c0,1.883,1.125,2.824,3.375,2.824.836,0,1.488-.17,1.957-.51s.703-.814.703-1.424Z"/>
  </g>
  <path class="cls-1" d="M422.262,96.508c0,10.715-8.686,19.401-19.401,19.401-10.715,0-19.401-8.686-19.401-19.401s8.686-19.401,19.401-19.401c10.715,0,19.401,8.686,19.401,19.401Z"/>
  <path class="cls-3" d="M409.801,105.188h-3.516l-6.844-11.227v11.227h-3.516v-17.062h3.516l6.855,11.25v-11.25h3.504v17.062Z"/>
  <g>
    <g>
      <polygon class="cls-9" points="492.032 238.853 502.687 226.979 487.076 223.686 492.032 238.853"/>
      <polygon class="cls-9" points="494.208 173.96 499.135 158.785 483.53 162.103 494.208 173.96"/>
    </g>
    <polygon class="cls-9" points="496.703 207.175 488.478 193.505 504.43 193.215 496.703 207.175"/>
    <path class="cls-2" d="M485.745,149.508c6.87,15.625,10.709,33.064,10.709,51.458,0,17.792-3.591,34.69-10.044,49.917"/>
  </g>
  <g>
    <polygon class="cls-9" points="443.345 207.175 435.12 193.505 451.072 193.215 443.345 207.175"/>
    <polygon class="cls-9" points="443.345 239.059 435.12 225.388 451.072 225.098 443.345 239.059"/>
    <polygon class="cls-9" points="443.345 174.229 435.12 160.558 451.072 160.268 443.345 174.229"/>
    <line class="cls-2" x1="443.164" y1="148.106" x2="443.164" y2="250.882"/>
  </g>
  <g>
    <g>
      <g>
        <polygon class="cls-9" points="385.407 238.853 374.752 226.979 390.363 223.686 385.407 238.853"/>
        <polygon class="cls-9" points="383.231 173.96 378.304 158.785 393.91 162.103 383.231 173.96"/>
      </g>
      <polygon class="cls-9" points="380.736 207.175 388.962 193.505 373.01 193.215 380.736 207.175"/>
    </g>
    <path class="cls-2" d="M391.006,149.508c-6.87,15.625-10.709,33.064-10.709,51.458,0,17.792,3.591,34.69,10.044,49.917"/>
  </g>
</svg>