<?xml version="1.0" encoding="UTF-8"?><svg id="b" xmlns="http://www.w3.org/2000/svg" width="1140" height="355" viewBox="0 0 1140 355"><path d="m421.19,4.91c-89.21,5.55-178.21,21.96-246.22,50.54-69.05,29.02-112.63,71.49-122.02,115.6-11.95,56.1,28.47,130.12,138.78,157.89,72.83,18.34,159.27,17.92,239.15,19.64,72.15,1.56,144.41,2.13,216.43,4.91,91.22,3.52,186.73,2.01,268.55-17.89,97.68-23.76,165.32-73.33,177.17-126.07,11.85-52.74-30.6-107.21-107.91-144.69C845.95-2.63,604.52-6.5,421.19,4.91Z" fill="#dcdfe5" stroke-width="0"/><polygon points="782.54 161.52 875.7 75.67 1028.7 75.67 1029 168 969 273 782.54 161.52" fill="#d12d32" stroke-width="0"/><rect x="819.56" y="124.51" width="112.3" height="186.33" transform="translate(1093.42 -658.02) rotate(90)" fill="#d12d32" stroke-width="0"/><rect x="906.03" y="45.03" width="92.49" height="153.46" transform="translate(1074.08 -830.5) rotate(90)" fill="#d12d32" stroke-width="0"/><polygon points="145.94 162.27 239.1 76.42 392.09 76.42 392.4 168.75 332.4 273.75 145.94 162.27" fill="#969696" stroke-width="0"/><rect x="269.42" y="45.78" width="92.49" height="153.46" transform="translate(438.2 -193.15) rotate(90)" fill="#969696" stroke-width="0"/><rect x="183.22" y="124.49" width="112.3" height="186.33" transform="translate(457.04 -21.7) rotate(90)" fill="#969696" stroke-width="0"/><circle cx="917.37" cy="217.76" r="41" fill="#fff" stroke="#000" stroke-miterlimit="10" stroke-width="2"/><circle cx="203.34" cy="217.76" r="41" fill="#fff" stroke="#000" stroke-miterlimit="10" stroke-width="2"/><path d="m928.72,231.96h-5.77l-11.22-18.41v18.41h-5.77v-27.98h5.77l11.24,18.45v-18.45h5.75v27.98Z" stroke-width="0"/><path d="m208.25,225.69c0-1.09-.38-1.92-1.15-2.51-.77-.58-2.15-1.2-4.15-1.84-2-.65-3.58-1.28-4.75-1.91-3.18-1.72-4.77-4.03-4.77-6.94,0-1.51.43-2.86,1.28-4.05.85-1.18,2.08-2.11,3.67-2.78,1.6-.67,3.39-1,5.37-1s3.78.36,5.34,1.09c1.56.72,2.78,1.75,3.64,3.07s1.3,2.82,1.3,4.5h-5.77c0-1.28-.4-2.28-1.21-2.99s-1.94-1.07-3.4-1.07-2.5.3-3.29.89c-.78.6-1.17,1.38-1.17,2.35,0,.91.46,1.67,1.37,2.29.92.61,2.26,1.19,4.05,1.73,3.28.99,5.67,2.21,7.17,3.67s2.25,3.28,2.25,5.46c0,2.42-.92,4.32-2.75,5.7-1.83,1.38-4.3,2.07-7.4,2.07-2.15,0-4.11-.39-5.88-1.18-1.77-.79-3.12-1.87-4.05-3.24-.93-1.37-1.39-2.96-1.39-4.77h5.78c0,3.09,1.85,4.63,5.53,4.63,1.37,0,2.44-.28,3.21-.84.77-.56,1.15-1.34,1.15-2.33Z" stroke-width="0"/><path d="m146.21,161.36c59.12-1.67,127.03-.78,186.33-.97,0,0,1.13,0,1.13,0-.2,20.32.04,65.63-.31,85.35-.24,8.15-.28,20.01-.68,28.07,0,0-.29,0-.29,0-.18-4.68-.29-9.36-.41-14.04l-.26-14.04c-.24-18.8-.25-64.78-.3-84.22,0,0,1.13,1.13,1.13,1.13-23.22.08-69.95.04-93.17-.04-27.1-.41-66.98.7-93.17-1.25h0Z" fill="#44423e" stroke-width="0"/><path d="m392.52,76.36c-8.69,15.08-19.31,28.85-29.06,43.23,0,0-15.07,21.23-15.07,21.23-5.05,7.06-9.99,14.2-15.72,20.78l-.24-.17c7.43-13.11,20.52-30.57,29.06-43.23,5.01-7.09,10.01-14.19,15.07-21.24,5.07-7.04,9.94-14.24,15.73-20.77l.24.17h0Z" fill="#44423e" stroke-width="0"/><path d="m782.21,161.36c59.12-1.67,127.03-.78,186.33-.97,0,0,1.13,0,1.13,0-.2,20.32.04,65.63-.31,85.35-.24,8.15-.28,20.01-.68,28.07,0,0-.29,0-.29,0-.18-4.68-.29-9.36-.41-14.04l-.26-14.04c-.24-18.8-.25-64.78-.3-84.22,0,0,1.13,1.13,1.13,1.13-23.22.08-69.95.04-93.17-.04-27.1-.41-66.98.7-93.17-1.25h0Z" fill="#44423e" stroke-width="0"/><path d="m1028.52,76.36c-8.69,15.08-19.31,28.85-29.06,43.23,0,0-15.07,21.23-15.07,21.23-5.05,7.06-9.99,14.2-15.72,20.78l-.24-.17c7.43-13.11,20.52-30.57,29.06-43.23,5.01-7.09,10.01-14.19,15.07-21.24,5.07-7.04,9.94-14.24,15.73-20.77l.24.17h0Z" fill="#44423e" stroke-width="0"/><path d="m702,229.03l-9.51-87.46h-157.32l-91.09,87.46h83.98l-39.6,37.32h18.89l54.97-50.11h-86.44l70.95-65.92h125.85l9.53,65.92h-86.43l8.3,50.11h18.73l-4.8-37.32h83.98Z" fill="#d3a122" stroke-width="0"/><path d="m475.77,216.13c19.6-20.17,49.88-47.34,70.59-66.98,29.24-.09,65.45.14,94.85.21,10.49.1,20.98.31,31.46.81,0,0,0,.29,0,.29-5.24.26-10.49.43-15.73.54-5.24.14-10.49.23-15.73.27-29.28.09-65.27.29-94.39.21,0,0,.8-.31.8-.31l-35.57,32.86c-5.93,5.48-11.84,10.97-17.83,16.38-6,5.4-12.06,10.74-18.25,15.93l-.2-.22h0Z" fill="#9b7012" stroke-width="0"/><path d="m444.08,228.88c7-.99,14-.83,20.99-.94,7-.09,14-.1,20.99-.12,7,.03,14,.05,20.99.13,7,.08,14,.01,20.99.93v.29c-13.97,1.5-27.98.79-41.99,1.06-7-.02-14-.04-20.99-.12-7-.11-14,.05-20.99-.94v-.29h0Z" fill="#9b7012" stroke-width="0"/><path d="m488.45,266.2c6.27-.8,12.58-.85,18.89-.89,0,0-.7.27-.7.27,8.05-7.45,19.35-17.93,27.4-25.15,9.31-8.21,18.15-16.92,28.18-24.3,0,0,.2.22.2.22-4.1,4.71-8.6,8.97-13.15,13.18-4.55,4.21-9.07,8.45-13.65,12.63-8.01,7.43-19.64,17.83-27.88,25.23-4.86-.04-9.71-.06-14.56-.43-1.57-.11-3.15-.26-4.72-.47v-.29h0Z" fill="#9b7012" stroke-width="0"/><path d="m604.08,266.2c6.23-.52,12.48-.73,18.73-.82,0,0-.95,1.09-.95,1.09-1.53-10.77-3.53-26.35-5.01-37.29,0,0-.18-1.33-.18-1.33h1.34c10.46-.02,31.53,0,41.99.06,12.3.16,29.86-.07,41.99.97,0,0,0,.29,0,.29-12.06.98-29.71.86-41.99.97-10.47.06-31.52.08-41.99.06,0,0,1.17-1.33,1.17-1.33,1.39,11.01,3.29,26.48,4.58,37.34,0,0,.13,1.1.13,1.1-5.04-.05-10.09-.19-15.13-.49-1.56-.11-3.12-.19-4.68-.33v-.29h0Z" fill="#9b7012" stroke-width="0"/></svg>