<?xml version="1.0" encoding="UTF-8"?>
<svg id="Layer_1" data-name="Layer 1" xmlns="http://www.w3.org/2000/svg" width="1140" height="400" viewBox="0 0 1140 400">
  <defs>
    <style>
      .cls-1 {
        fill: #c3c7c6;
      }

      .cls-2 {
        fill: #deeddf;
      }

      .cls-3 {
        stroke: #000;
        stroke-width: 2px;
      }

      .cls-3, .cls-4 {
        fill: none;
        stroke-linecap: round;
        stroke-linejoin: round;
      }

      .cls-4 {
        stroke: #dbae2c;
        stroke-width: 7px;
      }
    </style>
  </defs>
  <path class="cls-2" d="m1135.24,145.68C1125.46,34.8,1088.03-.91,975.05,3.79,749.09,13.17,407.25-7.54,128.96,7.98,2.26,15.05,19.57,149.11,5.56,241.04c-14.47,94.95,36.59,158.03,134.41,152.23,293.45-17.39,587.96,13.17,881.71,1.1,121.86,6.88,121.21-162.03,113.56-248.69Z"/>
  <rect class="cls-1" x="278.7" y="123.69" width="672.8" height="98.11"/>
  <path class="cls-4" d="m472.08,121.43c1.76-5.73,10.11-1.44,10.11,14.22v152.84H113.18v-99.17"/>
  <path class="cls-4" d="m461.76,223.7c-4.03,13.05-18.14-54.26-27.55-81.04-9.41-26.78-11.42-28.16-14.11-19.23"/>
  <path class="cls-4" d="m425.66,223.7c-4.03,13.05-18.14-54.26-27.55-81.04-9.41-26.78-11.42-28.16-14.11-19.23"/>
  <path class="cls-4" d="m389.56,223.7c-4.03,13.05-18.14-54.26-27.55-81.04-9.41-26.78-11.42-28.16-14.11-19.23"/>
  <g>
    <path d="m212.76,347.57v6.68h-2.25v-17.06h6.29c1.87,0,3.33.48,4.39,1.43s1.59,2.21,1.59,3.79c0,1.66-.52,2.93-1.55,3.83s-2.52,1.34-4.45,1.34h-4.02Zm0-1.84h4.04c1.2,0,2.12-.28,2.77-.85s.96-1.39.96-2.46-.32-1.83-.96-2.44c-.64-.61-1.52-.93-2.64-.95h-4.17v6.7Z"/>
    <path d="m231.44,343.52c-.33-.05-.68-.08-1.07-.08-1.42,0-2.39.61-2.89,1.82v9h-2.17v-12.68h2.11l.04,1.46c.71-1.13,1.72-1.7,3.02-1.7.42,0,.74.05.96.16v2.02Z"/>
    <path d="m233.44,338.21c0-.35.11-.65.32-.89s.53-.36.96-.36.74.12.96.36.33.54.33.89-.11.64-.33.88-.54.35-.96.35-.74-.12-.96-.35-.32-.53-.32-.88Zm2.34,16.04h-2.17v-12.68h2.17v12.68Z"/>
    <path d="m241.29,341.57l.06,1.41c.93-1.09,2.18-1.64,3.76-1.64,1.77,0,2.98.68,3.62,2.04.42-.61.97-1.1,1.65-1.48s1.47-.56,2.4-.56c2.78,0,4.2,1.47,4.24,4.42v8.5h-2.17v-8.37c0-.91-.21-1.58-.62-2.03s-1.11-.67-2.09-.67c-.8,0-1.47.24-2,.72s-.84,1.13-.93,1.94v8.41h-2.18v-8.31c0-1.84-.9-2.77-2.71-2.77-1.42,0-2.39.61-2.92,1.82v9.26h-2.17v-12.68h2.05Z"/>
    <path d="m268.12,354.25c-.12-.25-.23-.7-.3-1.34-1.01,1.05-2.21,1.57-3.61,1.57-1.25,0-2.28-.35-3.08-1.06s-1.2-1.6-1.2-2.69c0-1.32.5-2.35,1.51-3.08s2.42-1.1,4.24-1.1h2.11v-1c0-.76-.23-1.36-.68-1.81s-1.12-.67-2-.67c-.77,0-1.42.2-1.95.59s-.79.86-.79,1.42h-2.18c0-.63.22-1.24.67-1.83s1.06-1.06,1.83-1.4,1.62-.52,2.54-.52c1.46,0,2.61.37,3.43,1.1s1.26,1.74,1.29,3.02v5.84c0,1.16.15,2.09.45,2.78v.19h-2.27Zm-3.6-1.65c.68,0,1.32-.18,1.93-.53s1.05-.81,1.32-1.37v-2.6h-1.7c-2.66,0-3.98.78-3.98,2.33,0,.68.23,1.21.68,1.59s1.04.57,1.75.57Z"/>
    <path d="m279.47,343.52c-.33-.05-.68-.08-1.07-.08-1.42,0-2.39.61-2.89,1.82v9h-2.17v-12.68h2.11l.04,1.46c.71-1.13,1.72-1.7,3.02-1.7.42,0,.74.05.96.16v2.02Z"/>
    <path d="m285.61,351.08l2.95-9.5h2.32l-5.1,14.64c-.79,2.11-2.04,3.16-3.76,3.16l-.41-.04-.81-.15v-1.76l.59.05c.73,0,1.31-.15,1.72-.45s.75-.84,1.01-1.63l.48-1.29-4.52-12.54h2.37l3.16,9.5Z"/>
    <path d="m303.85,352.72c.77,0,1.45-.23,2.03-.7s.9-1.05.96-1.76h2.05c-.04.73-.29,1.42-.75,2.07s-1.08,1.18-1.85,1.57-1.58.59-2.44.59c-1.73,0-3.1-.58-4.12-1.73s-1.53-2.73-1.53-4.73v-.36c0-1.23.23-2.33.68-3.29s1.1-1.71,1.95-2.24,1.85-.8,3.01-.8c1.42,0,2.6.43,3.54,1.28s1.44,1.96,1.51,3.32h-2.05c-.06-.82-.37-1.49-.93-2.02s-1.25-.79-2.07-.79c-1.1,0-1.96.4-2.56,1.19s-.91,1.94-.91,3.44v.41c0,1.46.3,2.59.9,3.38s1.46,1.18,2.58,1.18Z"/>
    <path d="m310.75,347.79c0-1.24.24-2.36.73-3.35s1.17-1.76,2.04-2.3,1.87-.81,2.98-.81c1.73,0,3.12.6,4.19,1.79s1.6,2.79,1.6,4.77v.15c0,1.23-.24,2.34-.71,3.32s-1.15,1.74-2.03,2.29-1.89.82-3.03.82c-1.72,0-3.11-.6-4.18-1.79s-1.6-2.78-1.6-4.75v-.15Zm2.18.26c0,1.41.33,2.54.98,3.39s1.53,1.28,2.62,1.28,1.98-.43,2.62-1.29.97-2.07.97-3.63c0-1.39-.33-2.52-.99-3.38s-1.54-1.29-2.63-1.29-1.93.43-2.59,1.28-.98,2.07-.98,3.66Z"/>
    <path d="m325.02,338.21c0-.35.11-.65.32-.89s.53-.36.96-.36.74.12.96.36.33.54.33.89-.11.64-.33.88-.54.35-.96.35-.74-.12-.96-.35-.32-.53-.32-.88Zm2.34,16.04h-2.17v-12.68h2.17v12.68Z"/>
    <path d="m333.19,354.25h-2.17v-18h2.17v18Z"/>
  </g>
  <line class="cls-3" x1="271.63" y1="330.18" x2="290.38" y2="288.68"/>
  <path class="cls-4" d="m337.54,223.79c-1.76,5.73-10.11,1.44-10.11-14.22V80.53s-75.48,0-75.48,0"/>
  <path class="cls-4" d="m884.26,223.7c-4.03,13.05-18.14-54.26-27.55-81.04-9.41-26.78-11.42-28.16-14.11-19.23"/>
  <path class="cls-4" d="m848.16,223.7c-4.03,13.05-18.14-54.26-27.55-81.04s-11.42-28.16-14.11-19.23"/>
  <path class="cls-4" d="m812.06,223.7c-4.03,13.05-18.14-54.26-27.55-81.04-9.41-26.78-11.42-28.16-14.11-19.23"/>
  <path class="cls-4" d="m760.04,223.79c-1.76,5.73-10.11,1.44-10.11-14.22V80.53h280.26v207.95h-125.51v-152.84c0-15.65-8.35-19.95-10.11-14.22"/>
  <g>
    <line class="cls-4" x1="77.24" y1="189.29" x2="147.8" y2="189.29"/>
    <line class="cls-4" x1="89.14" y1="162.91" x2="135.9" y2="162.91"/>
  </g>
  <path class="cls-4" d="m246,43.64l-64.08,36.89h-68.74v79.71"/>
  <g>
    <path d="m913.1,346.65c-1.93-.55-3.33-1.24-4.21-2.04s-1.32-1.81-1.32-2.99c0-1.34.54-2.46,1.61-3.33s2.47-1.32,4.19-1.32c1.17,0,2.22.23,3.13.68s1.63,1.08,2.13,1.88.76,1.67.76,2.61h-2.26c0-1.04-.33-1.85-.98-2.44-.66-.59-1.58-.89-2.78-.89-1.11,0-1.97.24-2.6.73s-.93,1.17-.93,2.04c0,.7.29,1.29.88,1.77s1.59.92,3.01,1.32c1.42.4,2.53.84,3.33,1.32s1.39,1.04,1.78,1.68.58,1.39.58,2.26c0,1.38-.54,2.49-1.62,3.32s-2.52,1.25-4.32,1.25c-1.17,0-2.27-.22-3.28-.67s-1.8-1.06-2.35-1.85-.83-1.67-.83-2.66h2.26c0,1.03.38,1.85,1.14,2.44s1.78.9,3.05.9c1.19,0,2.1-.24,2.73-.73s.95-1.14.95-1.98-.29-1.48-.88-1.94-1.65-.91-3.19-1.35Z"/>
    <path d="m927.23,354.49c-1.72,0-3.12-.56-4.2-1.69s-1.62-2.64-1.62-4.53v-.4c0-1.26.24-2.38.72-3.37s1.15-1.76,2.02-2.32,1.8-.84,2.81-.84c1.65,0,2.93.54,3.84,1.63s1.37,2.64,1.37,4.66v.9h-8.59c.03,1.25.4,2.26,1.1,3.03s1.59,1.15,2.67,1.15c.77,0,1.41-.16,1.95-.47s1-.73,1.39-1.24l1.32,1.03c-1.06,1.63-2.66,2.45-4.78,2.45Zm-.27-11.37c-.88,0-1.61.32-2.2.96s-.96,1.53-1.1,2.68h6.35v-.16c-.06-1.1-.36-1.96-.89-2.56s-1.25-.91-2.16-.91Z"/>
    <path d="m939.77,352.72c.77,0,1.45-.23,2.03-.7s.9-1.05.96-1.76h2.05c-.04.73-.29,1.42-.75,2.07s-1.08,1.18-1.85,1.57-1.58.59-2.44.59c-1.73,0-3.1-.58-4.12-1.73s-1.53-2.73-1.53-4.73v-.36c0-1.23.23-2.33.68-3.29s1.1-1.71,1.95-2.24,1.85-.8,3.01-.8c1.42,0,2.6.43,3.54,1.28s1.44,1.96,1.51,3.32h-2.05c-.06-.82-.37-1.49-.93-2.02s-1.25-.79-2.07-.79c-1.1,0-1.96.4-2.56,1.19s-.91,1.94-.91,3.44v.41c0,1.46.3,2.59.9,3.38s1.46,1.18,2.58,1.18Z"/>
    <path d="m946.67,347.79c0-1.24.24-2.36.73-3.35s1.17-1.76,2.04-2.3,1.87-.81,2.98-.81c1.73,0,3.12.6,4.19,1.79s1.6,2.79,1.6,4.77v.15c0,1.23-.24,2.34-.71,3.32s-1.15,1.74-2.03,2.29-1.89.82-3.03.82c-1.72,0-3.11-.6-4.18-1.79s-1.6-2.78-1.6-4.75v-.15Zm2.18.26c0,1.41.33,2.54.98,3.39s1.53,1.28,2.62,1.28,1.98-.43,2.62-1.29.97-2.07.97-3.63c0-1.39-.33-2.52-.99-3.38s-1.54-1.29-2.63-1.29-1.93.43-2.59,1.28-.98,2.07-.98,3.66Z"/>
    <path d="m962.99,341.57l.07,1.59c.97-1.22,2.23-1.83,3.8-1.83,2.68,0,4.03,1.51,4.05,4.54v8.38h-2.17v-8.39c0-.91-.22-1.59-.63-2.03s-1.05-.66-1.92-.66c-.7,0-1.32.19-1.85.56s-.95.87-1.24,1.48v9.04h-2.17v-12.68h2.05Z"/>
    <path d="m973.65,347.81c0-1.95.46-3.51,1.38-4.69s2.13-1.78,3.62-1.78,2.66.51,3.53,1.52v-6.61h2.17v18h-1.99l-.11-1.36c-.87,1.06-2.07,1.59-3.62,1.59s-2.67-.6-3.59-1.8-1.39-2.77-1.39-4.71v-.16Zm2.17.25c0,1.44.3,2.56.89,3.38s1.41,1.22,2.46,1.22c1.38,0,2.38-.62,3.01-1.85v-5.82c-.65-1.2-1.64-1.79-2.99-1.79-1.06,0-1.89.41-2.48,1.23s-.89,2.04-.89,3.64Z"/>
    <path d="m995.54,354.25c-.12-.25-.23-.7-.3-1.34-1.01,1.05-2.21,1.57-3.61,1.57-1.25,0-2.28-.35-3.08-1.06s-1.2-1.6-1.2-2.69c0-1.32.5-2.35,1.51-3.08s2.42-1.1,4.24-1.1h2.11v-1c0-.76-.23-1.36-.68-1.81s-1.12-.67-2-.67c-.77,0-1.42.2-1.95.59s-.79.86-.79,1.42h-2.18c0-.63.22-1.24.67-1.83s1.06-1.06,1.83-1.4,1.62-.52,2.54-.52c1.46,0,2.61.37,3.43,1.1s1.26,1.74,1.29,3.02v5.84c0,1.16.15,2.09.45,2.78v.19h-2.27Zm-3.6-1.65c.68,0,1.32-.18,1.93-.53s1.05-.81,1.32-1.37v-2.6h-1.7c-2.66,0-3.98.78-3.98,2.33,0,.68.23,1.21.68,1.59s1.04.57,1.75.57Z"/>
    <path d="m1006.9,343.52c-.33-.05-.68-.08-1.07-.08-1.42,0-2.39.61-2.89,1.82v9h-2.17v-12.68h2.11l.04,1.46c.71-1.13,1.72-1.7,3.02-1.7.42,0,.74.05.96.16v2.02Z"/>
    <path d="m1013.04,351.08l2.95-9.5h2.32l-5.1,14.64c-.79,2.11-2.04,3.16-3.76,3.16l-.41-.04-.81-.15v-1.76l.59.05c.73,0,1.31-.15,1.72-.45s.75-.84,1.01-1.63l.48-1.29-4.52-12.54h2.37l3.16,9.5Z"/>
    <path d="m1031.27,352.72c.77,0,1.45-.23,2.03-.7s.9-1.05.96-1.76h2.05c-.04.73-.29,1.42-.75,2.07s-1.08,1.18-1.85,1.57-1.58.59-2.44.59c-1.73,0-3.1-.58-4.12-1.73s-1.53-2.73-1.53-4.73v-.36c0-1.23.23-2.33.68-3.29s1.1-1.71,1.95-2.24,1.85-.8,3.01-.8c1.42,0,2.6.43,3.54,1.28s1.44,1.96,1.51,3.32h-2.05c-.06-.82-.37-1.49-.93-2.02s-1.25-.79-2.07-.79c-1.1,0-1.96.4-2.56,1.19s-.91,1.94-.91,3.44v.41c0,1.46.3,2.59.9,3.38s1.46,1.18,2.58,1.18Z"/>
    <path d="m1038.17,347.79c0-1.24.24-2.36.73-3.35s1.17-1.76,2.04-2.3,1.87-.81,2.98-.81c1.73,0,3.12.6,4.19,1.79s1.6,2.79,1.6,4.77v.15c0,1.23-.24,2.34-.71,3.32s-1.15,1.74-2.03,2.29-1.89.82-3.03.82c-1.72,0-3.11-.6-4.18-1.79s-1.6-2.78-1.6-4.75v-.15Zm2.18.26c0,1.41.33,2.54.98,3.39s1.53,1.28,2.62,1.28,1.98-.43,2.62-1.29.97-2.07.97-3.63c0-1.39-.33-2.52-.99-3.38s-1.54-1.29-2.63-1.29-1.93.43-2.59,1.28-.98,2.07-.98,3.66Z"/>
    <path d="m1052.45,338.21c0-.35.11-.65.32-.89s.53-.36.96-.36.74.12.96.36.33.54.33.89-.11.64-.33.88-.54.35-.96.35-.74-.12-.96-.35-.32-.53-.32-.88Zm2.34,16.04h-2.17v-12.68h2.17v12.68Z"/>
    <path d="m1060.62,354.25h-2.17v-18h2.17v18Z"/>
  </g>
  <line class="cls-3" x1="984.41" y1="330.18" x2="965.66" y2="288.68"/>
</svg>