<?xml version="1.0" encoding="UTF-8"?><svg id="a" xmlns="http://www.w3.org/2000/svg" width="570" height="530" viewBox="0 0 570 530"><path d="m460.1522,11.7473c38.3272,3.0784,84.5788,28.8727,97.0429,69.4332,10.6688,34.7182,5.1969,74.0903,5.1969,194.184s7.608,183.5493-20.4349,211.5129c-25.1317,25.0606-79.9226,27.7372-115.707,31.6937-104.1083,11.5109-213.2409,8.4366-316.7964-6.0101-51.641-7.2043-85.8509-33.4838-98.4111-83.1738C-.0434,385.5287,3.9909,340.0775,3.4047,295.4075c-.6221-47.4187.6106-94.9288,3.7178-142.2629,2.4787-37.7613,1.3478-87.0968,32.5147-115.5108,16.7438-15.2648,40.6317-21.6236,63.8671-24.2357C221.2621.1597,342.1011,2.2657,460.1522,11.7473Z" fill="#f7e4e4" stroke-width="0"/><path d="m113.4961,279.9518h1.6289c1.0234-.0156,1.8281-.2852,2.4141-.8086s.8789-1.2305.8789-2.1211c0-2-.9961-3-2.9883-3-.9375,0-1.6855.2676-2.2441.8027s-.8379,1.2441-.8379,2.127h-2.168c0-1.3516.4941-2.4746,1.4824-3.3691s2.2441-1.3418,3.7676-1.3418c1.6094,0,2.8711.4258,3.7852,1.2773s1.3711,2.0352,1.3711,3.5508c0,.7422-.2402,1.4609-.7207,2.1562s-1.1348,1.2148-1.9629,1.5586c.9375.2969,1.6621.7891,2.1738,1.4766s.7676,1.5273.7676,2.5195c0,1.5312-.5,2.7461-1.5,3.6445s-2.3008,1.3477-3.9023,1.3477-2.9043-.4336-3.9082-1.3008-1.5059-2.0117-1.5059-3.4336h2.1797c0,.8984.293,1.6172.8789,2.1562s1.3711.8086,2.3555.8086c1.0469,0,1.8477-.2734,2.4023-.8203s.832-1.332.832-2.3555c0-.9922-.3047-1.7539-.9141-2.2852s-1.4883-.8047-2.6367-.8203h-1.6289v-1.7695Z" stroke-width="0"/><path d="m124.0898,288.401c0-.375.1113-.6875.334-.9375s.5566-.375,1.002-.375.7832.125,1.0137.375.3457.5625.3457.9375c0,.3594-.1152.6602-.3457.9023s-.5684.3633-1.0137.3633-.7793-.1211-1.002-.3633-.334-.543-.334-.9023Z" stroke-width="0"/><path d="m140.8359,282.2603c0,2.5391-.4336,4.4258-1.3008,5.6602s-2.2227,1.8516-4.0664,1.8516c-1.8203,0-3.168-.6035-4.043-1.8105s-1.3281-3.0098-1.3594-5.4082v-2.8945c0-2.5078.4336-4.3711,1.3008-5.5898s2.2266-1.8281,4.0781-1.8281c1.8359,0,3.1875.5879,4.0547,1.7637s1.3125,2.9902,1.3359,5.4434v2.8125Zm-2.168-2.9648c0-1.8359-.2578-3.1738-.7734-4.0137s-1.332-1.2598-2.4492-1.2598c-1.1094,0-1.918.418-2.4258,1.2539s-.7695,2.1211-.7852,3.8555v3.4688c0,1.8438.2676,3.2051.8027,4.084s1.3457,1.3184,2.4316,1.3184c1.0703,0,1.8652-.4141,2.3848-1.2422s.791-2.1328.8145-3.9141v-3.5508Z" stroke-width="0"/><path d="m155.7656,286.5494l4.875-14.0742h2.4609l-6.3281,17.0625h-1.9922l-6.3164-17.0625h2.4492l4.8516,14.0742Z" stroke-width="0"/><polyline points="128.455 105.6584 55 105.6584 55 260.0582" fill="none" stroke="#000" stroke-linecap="square" stroke-linejoin="round" stroke-width="2"/><polyline points="328.3489 105.6584 328.3489 221.1905 350.8489 228.6131 328.3523 236.0354 305.8489 243.46 350.8489 258.3062 305.8489 273.151 350.8489 287.9961 350.8489 288.0138 305.8489 302.8586 350.8489 317.7037 305.8489 332.5507 305.8489 332.6538 328.3489 340.0782 328.3489 455.6104" fill="none" stroke="#000" stroke-linejoin="round" stroke-width="2"/><line x1="13.0466" y1="289.3757" x2="97.0466" y2="289.3757" fill="#fff" stroke="#000" stroke-linejoin="round" stroke-width="2"/><line x1="31.5266" y1="303.3869" x2="78.5666" y2="303.3869" fill="#fff" stroke="#000" stroke-linejoin="round" stroke-width="2"/><line x1="13.0466" y1="261.3533" x2="97.0466" y2="261.3533" fill="#fff" stroke="#000" stroke-linejoin="round" stroke-width="2"/><line x1="31.5266" y1="275.3645" x2="78.5666" y2="275.3645" fill="#fff" stroke="#000" stroke-linejoin="round" stroke-width="2"/><polyline points="128.455 105.6584 131.1304 105.6584 138.5548 83.1584 138.6579 83.1584 153.5049 128.1584 168.35 83.1584 183.1948 128.1584 183.2125 128.1584 198.0576 83.1584 212.9024 128.1584 227.7486 83.1584 235.1732 105.6618 242.5955 128.1584 250.0181 105.6584 250.0181 105.6584" fill="none" stroke="#000" stroke-linejoin="round" stroke-width="2"/><path d="m78.7202,171.5807c0,2.5391-.4336,4.4258-1.3008,5.6602s-2.2227,1.8516-4.0664,1.8516c-1.8203,0-3.168-.6035-4.043-1.8105s-1.3281-3.0098-1.3594-5.4082v-2.8945c0-2.5078.4336-4.3711,1.3008-5.5898s2.2266-1.8281,4.0781-1.8281c1.8359,0,3.1875.5879,4.0547,1.7637s1.3125,2.9902,1.3359,5.4434v2.8125Zm-2.168-2.9648c0-1.8359-.2578-3.1738-.7734-4.0137s-1.332-1.2598-2.4492-1.2598c-1.1094,0-1.918.418-2.4258,1.2539s-.7695,2.1211-.7852,3.8555v3.4688c0,1.8438.2676,3.2051.8027,4.084s1.3457,1.3184,2.4316,1.3184c1.0703,0,1.8652-.4141,2.3848-1.2422s.791-2.1328.8145-3.9141v-3.5508Z" stroke-width="0"/><path d="m81.7671,177.7213c0-.375.1113-.6875.334-.9375s.5566-.375,1.002-.375.7832.125,1.0137.375.3457.5625.3457.9375c0,.3594-.1152.6602-.3457.9023s-.5684.3633-1.0137.3633-.7793-.1211-1.002-.3633-.334-.543-.334-.9023Z" stroke-width="0"/><path d="m90.9663,169.2721h1.6289c1.0234-.0156,1.8281-.2852,2.4141-.8086s.8789-1.2305.8789-2.1211c0-2-.9961-3-2.9883-3-.9375,0-1.6855.2676-2.2441.8027s-.8379,1.2441-.8379,2.127h-2.168c0-1.3516.4941-2.4746,1.4824-3.3691s2.2441-1.3418,3.7676-1.3418c1.6094,0,2.8711.4258,3.7852,1.2773s1.3711,2.0352,1.3711,3.5508c0,.7422-.2402,1.4609-.7207,2.1562s-1.1348,1.2148-1.9629,1.5586c.9375.2969,1.6621.7891,2.1738,1.4766s.7676,1.5273.7676,2.5195c0,1.5312-.5,2.7461-1.5,3.6445s-2.3008,1.3477-3.9023,1.3477-2.9043-.4336-3.9082-1.3008-1.5059-2.0117-1.5059-3.4336h2.1797c0,.8984.293,1.6172.8789,2.1562s1.3711.8086,2.3555.8086c1.0469,0,1.8477-.2734,2.4023-.8203s.832-1.332.832-2.3555c0-.9922-.3047-1.7539-.9141-2.2852s-1.4883-.8047-2.6367-.8203h-1.6289v-1.7695Z" stroke-width="0"/><path d="m111.9897,171.5807c0,2.5391-.4336,4.4258-1.3008,5.6602s-2.2227,1.8516-4.0664,1.8516c-1.8203,0-3.168-.6035-4.043-1.8105s-1.3281-3.0098-1.3594-5.4082v-2.8945c0-2.5078.4336-4.3711,1.3008-5.5898s2.2266-1.8281,4.0781-1.8281c1.8359,0,3.1875.5879,4.0547,1.7637s1.3125,2.9902,1.3359,5.4434v2.8125Zm-2.168-2.9648c0-1.8359-.2578-3.1738-.7734-4.0137s-1.332-1.2598-2.4492-1.2598c-1.1094,0-1.918.418-2.4258,1.2539s-.7695,2.1211-.7852,3.8555v3.4688c0,1.8438.2676,3.2051.8027,4.084s1.3457,1.3184,2.4316,1.3184c1.0703,0,1.8652-.4141,2.3848-1.2422s.791-2.1328.8145-3.9141v-3.5508Z" stroke-width="0"/><path d="m130.6929,174.3932h-7.1484l-1.6055,4.4648h-2.3203l6.5156-17.0625h1.9688l6.5273,17.0625h-2.3086l-1.6289-4.4648Zm-6.4688-1.8398h5.8008l-2.9062-7.9805-2.8945,7.9805Z" stroke-width="0"/><path d="m145.9189,54.1871v.1348c.9707.6748,1.5107,2.0518,3.7227,6.2354.5938,1.0796,1.2412,1.377,2.4814,1.377l-.1611.8096h-4.1006c-2.0234-4.4536-2.5898-5.5874-3.4268-7.2339-.4043-.7559-.7549-.918-1.7266-.918h-.5664l-.998,4.8047c-.459,2.2402-.1621,2.5376,2.1582,2.5376l-.1348.8096h-7.4463l.1621-.8096c1.9961,0,2.4014-.27,2.8594-2.5376l2.374-11.5801c.2969-1.4844.1348-1.9971-2.0234-1.9971l.1621-.8101h6.3398c3.7773,0,5.9893,1.1069,5.9893,3.7251,0,3.8062-3.3184,5.0479-5.665,5.4526Zm-3.5879-.5938l.8359.0269c3.2373-.1079,5.7461-1.3228,5.7461-4.7778,0-1.4575-.8096-2.7803-3.4805-2.7803-.7012,0-.9707.0269-1.5918.0811l-1.5098,7.4502Z" stroke-width="0"/><path d="m153.5049,67.735l.0938-.4409c1.4795,0,1.8564-.2676,2.0137-1.0552l1.416-6.6606c.126-.5513.0479-.772-.3457-.772-.3145,0-.9131.0947-1.4316.252l.1104-.5195,3.0039-.8662h.457l-1.8252,8.5664c-.1572.772.1729,1.0552,1.6201,1.0552l-.0938.4409h-5.0186Z" stroke-width="0"/><path d="m178.9326,53.2047h-9.7637v-1.8867h9.7637v1.8867Zm0,4.8633h-9.7637v-1.875h9.7637v1.875Z" stroke-width="0"/><path d="m196.3984,45.6695v1.8398h-.3975c-1.6855.0312-3.0283.5312-4.0273,1.5s-1.5762,2.332-1.7324,4.0898c.8975-1.0312,2.123-1.5469,3.6758-1.5469,1.4824,0,2.667.5234,3.5527,1.5703s1.3291,2.3984,1.3291,4.0547c0,1.7578-.4785,3.1641-1.4346,4.2188s-2.2373,1.582-3.8457,1.582c-1.6309,0-2.9541-.627-3.9678-1.8809-1.0146-1.2539-1.5225-2.8691-1.5225-4.8457v-.832c0-3.1406.6689-5.541,2.0078-7.2012s3.3311-2.5098,5.9766-2.5488h.3857Zm-2.8447,7.6875c-.7412,0-1.4238.2227-2.0479.668-.625.4453-1.0576,1.0039-1.2998,1.6758v.7969c0,1.4062.3164,2.5391.9482,3.3984s1.4199,1.2891,2.3643,1.2891c.9756,0,1.7422-.3594,2.3008-1.0781.5576-.7188.8369-1.6602.8369-2.8242,0-1.1719-.2832-2.1191-.8486-2.8418-.5664-.7227-1.3174-1.084-2.2539-1.084Z" stroke-width="0"/><path d="m217.9395,62.7437v-1.9434c2.5361-2.0244,3.9121-5.5337,3.9121-8.5029,0-4.0488-2.1045-6.478-5.3955-6.478-3.4258,0-5.5303,2.4834-5.5303,6.478,0,2.9424,1.3213,6.5322,3.9111,8.5298v1.9165h-7.1211l-.5674-4.7778h.7822c.4863,1.8354.7559,2.5913,2.2939,2.5913h2.4541v-.1616c-2.0498-1.5391-4.667-3.7793-4.667-8.2061,0-4.4536,3.4805-7.5039,8.4717-7.5039s8.2812,3.0503,8.2812,7.4771c0,4.3999-2.7783,6.6938-4.6396,8.2329v.1616h2.2666c1.5908,0,1.8613-.7827,2.4277-2.5913h.7822l-.6201,4.7778h-7.042Z" stroke-width="0"/><path d="m458.1523,184.9767v.1348c.9707.6748,1.5107,2.0518,3.7227,6.2354.5938,1.0796,1.2412,1.377,2.4814,1.377l-.1611.8096h-4.1006c-2.0234-4.4536-2.5898-5.5874-3.4268-7.2339-.4043-.7559-.7549-.918-1.7266-.918h-.5664l-.998,4.8047c-.459,2.2402-.1621,2.5376,2.1582,2.5376l-.1348.8096h-7.4463l.1621-.8096c1.9961,0,2.4014-.27,2.8594-2.5376l2.374-11.5801c.2969-1.4844.1348-1.9971-2.0234-1.9971l.1621-.8101h6.3398c3.7773,0,5.9893,1.1069,5.9893,3.7251,0,3.8062-3.3184,5.0479-5.665,5.4526Zm-3.5879-.5938l.8359.0269c3.2373-.1079,5.7461-1.3228,5.7461-4.7778,0-1.4575-.8096-2.7803-3.4805-2.7803-.7012,0-.9707.0269-1.5918.0811l-1.5098,7.4502Z" stroke-width="0"/><path d="m466.9492,190.4776c.9121-1.3384,1.8721-2.0942,3.3193-2.0942,1.3691,0,2.0771.7402,2.0771,1.748,0,1.291-.8809,2-2.2188,2.7397v.0474c1.0068.3467,1.7939.9922,1.7939,2.1104,0,2.3774-2.4541,3.7002-5.0342,3.7002-1.3223,0-1.5889-.3779-1.5889-.8027,0-.3311.2354-.7559.7236-.7559.6758,0,.9277.7715,2.123.7715,1.165,0,2.4229-.6143,2.4229-2.3623,0-1.1807-1.085-1.9683-2.4385-1.9683h-.3145l.126-.5981h.2363c1.2744,0,2.7842-1.0396,2.7842-2.4409,0-.8188-.5352-1.1968-1.3691-1.1968-1.0068,0-1.6201.4722-2.3281,1.3066l-.3145-.2046Z" stroke-width="0"/><polyline points="414.992 455.6104 55 455.6104 55 303.7294" fill="none" stroke="#000" stroke-linecap="round" stroke-linejoin="round" stroke-width="2"/><polyline points="250.0181 105.6584 414.992 105.6584 414.992 131.1905 437.492 138.6131 392.492 153.46 437.492 168.3062 392.492 183.151 437.492 197.9961 437.492 198.0138 392.492 212.8586 437.492 227.7037 392.492 242.5507 392.492 242.6538 414.992 250.0782 414.992 311.1905 437.492 318.6131 392.492 333.46 437.492 348.3062 392.492 363.151 437.492 377.9961 437.492 378.0138 392.492 392.8586 437.492 407.7037 392.492 422.5507 392.492 422.6538 414.992 430.0782 414.992 455.6104" fill="none" stroke="#000" stroke-linecap="round" stroke-linejoin="round" stroke-width="2"/><path d="m262.1348,171.5807c0,2.5391-.4336,4.4258-1.3008,5.6602s-2.2227,1.8516-4.0664,1.8516c-1.8203,0-3.168-.6035-4.043-1.8105s-1.3281-3.0098-1.3594-5.4082v-2.8945c0-2.5078.4336-4.3711,1.3008-5.5898s2.2266-1.8281,4.0781-1.8281c1.8359,0,3.1875.5879,4.0547,1.7637s1.3125,2.9902,1.3359,5.4434v2.8125Zm-2.168-2.9648c0-1.8359-.2578-3.1738-.7734-4.0137s-1.332-1.2598-2.4492-1.2598c-1.1094,0-1.918.418-2.4258,1.2539s-.7695,2.1211-.7852,3.8555v3.4688c0,1.8438.2676,3.2051.8027,4.084s1.3457,1.3184,2.4316,1.3184c1.0703,0,1.8652-.4141,2.3848-1.2422s.791-2.1328.8145-3.9141v-3.5508Z" stroke-width="0"/><path d="m265.1816,177.7213c0-.375.1113-.6875.334-.9375s.5566-.375,1.002-.375.7832.125,1.0137.375.3457.5625.3457.9375c0,.3594-.1152.6602-.3457.9023s-.5684.3633-1.0137.3633-.7793-.1211-1.002-.3633-.334-.543-.334-.9023Z" stroke-width="0"/><path d="m282.4082,178.858h-11.1797v-1.5586l5.9062-6.5625c.875-.9922,1.4785-1.7988,1.8105-2.4199s.498-1.2637.498-1.9277c0-.8906-.2695-1.6211-.8086-2.1914s-1.2578-.8555-2.1562-.8555c-1.0781,0-1.916.3066-2.5137.9199s-.8965,1.4668-.8965,2.5605h-2.168c0-1.5703.5059-2.8398,1.5176-3.8086s2.3652-1.4531,4.0605-1.4531c1.5859,0,2.8398.416,3.7617,1.248s1.3828,1.9395,1.3828,3.3223c0,1.6797-1.0703,3.6797-3.2109,6l-4.5703,4.957h8.5664v1.7695Z" stroke-width="0"/><path d="m293.8574,173.1275h2.3672v1.7695h-2.3672v3.9609h-2.1797v-3.9609h-7.7695v-1.2773l7.6406-11.8242h2.3086v11.332Zm-7.4883,0h5.3086v-8.3672l-.2578.4688-5.0508,7.8984Z" stroke-width="0"/><path d="m314.1074,174.3932h-7.1484l-1.6055,4.4648h-2.3203l6.5156-17.0625h1.9688l6.5273,17.0625h-2.3086l-1.6289-4.4648Zm-6.4688-1.8398h5.8008l-2.9062-7.9805-2.8945,7.9805Z" stroke-width="0"/><path d="m216.4028,280.9454v.1348c.9707.6748,1.5107,2.0518,3.7227,6.2354.5938,1.0796,1.2412,1.377,2.4814,1.377l-.1611.8096h-4.1006c-2.0234-4.4536-2.5898-5.5874-3.4268-7.2339-.4043-.7559-.7549-.918-1.7266-.918h-.5664l-.998,4.8047c-.459,2.2402-.1621,2.5376,2.1582,2.5376l-.1348.8096h-7.4463l.1621-.8096c1.9961,0,2.4014-.27,2.8594-2.5376l2.374-11.5801c.2969-1.4844.1348-1.9971-2.0234-1.9971l.1621-.8101h6.3398c3.7773,0,5.9893,1.1069,5.9893,3.7251,0,3.8062-3.3184,5.0479-5.665,5.4526Zm-3.5879-.5938l.8359.0269c3.2373-.1079,5.7461-1.3228,5.7461-4.7778,0-1.4575-.8096-2.7803-3.4805-2.7803-.7012,0-.9707.0269-1.5918.0811l-1.5098,7.4502Z" stroke-width="0"/><path d="m229.1489,294.4933h-6.1357l.1104-.5356,2.8789-2.3618c2.4062-2.0942,3.2715-3.0234,3.2715-4.7085,0-.9131-.5342-1.543-1.5566-1.543-1.0234,0-1.7305.4092-2.6279,1.5747l-.3457-.1577c.8809-1.4961,1.9668-2.4092,3.6025-2.4092,1.4941,0,2.4072.8662,2.4072,2.2046,0,1.6377-1.1016,2.7085-3.4932,4.6929l-2.4219,1.9683-.0166.0786,1.0547-.0474h2.1865c.834,0,1.1016-.3306,1.668-1.2754h.4561l-1.0381,2.5195Z" stroke-width="0"/><path d="m249.4165,279.963h-9.7637v-1.8867h9.7637v1.8867Zm0,4.8633h-9.7637v-1.875h9.7637v1.875Z" stroke-width="0"/><path d="m259.3784,280.9474l.8662-8.5078h8.7334v2.0039h-6.8955l-.5146,4.6523c.835-.4922,1.7832-.7383,2.8447-.7383,1.5527,0,2.7861.5137,3.6992,1.541s1.3701,2.416,1.3701,4.166c0,1.7578-.4746,3.1426-1.4229,4.1543s-2.2734,1.5176-3.9746,1.5176c-1.5059,0-2.7354-.418-3.6875-1.2539s-1.4941-1.9922-1.627-3.4688h2.0488c.1328.9766.4795,1.7129,1.042,2.209.5615.4961,1.3027.7441,2.2236.7441,1.0068,0,1.7969-.3438,2.3711-1.0312.5732-.6875.8604-1.6367.8604-2.8477,0-1.1406-.3105-2.0566-.9307-2.748s-1.4463-1.0371-2.4756-1.0371c-.9453,0-1.6865.207-2.2246.6211l-.5732.4688-1.7334-.4453Z" stroke-width="0"/><path d="m288.4238,289.502v-1.9434c2.5352-2.0244,3.9121-5.5337,3.9121-8.5029,0-4.0488-2.1055-6.478-5.3965-6.478-3.4253,0-5.5298,2.4834-5.5298,6.478,0,2.9424,1.3213,6.5322,3.9111,8.5298v1.9165h-7.1211l-.5674-4.7778h.7822c.4863,1.8354.7559,2.5913,2.2939,2.5913h2.4541v-.1616c-2.0498-1.5391-4.667-3.7793-4.667-8.2061,0-4.4536,3.4805-7.5039,8.4712-7.5039s8.2812,3.0503,8.2812,7.4771c0,4.3999-2.7773,6.6938-4.6387,8.2329v.1616h2.2656c1.5918,0,1.8613-.7827,2.4277-2.5913h.7832l-.6211,4.7778h-7.041Z" stroke-width="0"/><path d="m458.1523,377.4649v.1348c.9707.6748,1.5107,2.0518,3.7227,6.2354.5938,1.0796,1.2412,1.377,2.4814,1.377l-.1611.8096h-4.1006c-2.0234-4.4536-2.5898-5.5874-3.4268-7.2339-.4043-.7559-.7549-.918-1.7266-.918h-.5664l-.998,4.8047c-.459,2.2402-.1621,2.5376,2.1582,2.5376l-.1348.8096h-7.4463l.1621-.8096c1.9961,0,2.4014-.27,2.8594-2.5376l2.374-11.5801c.2969-1.4844.1348-1.9971-2.0234-1.9971l.1621-.8101h6.3398c3.7773,0,5.9893,1.1069,5.9893,3.7251,0,3.8062-3.3184,5.0479-5.665,5.4526Zm-3.5879-.5938l.8359.0269c3.2373-.1079,5.7461-1.3228,5.7461-4.7778,0-1.4575-.8096-2.7803-3.4805-2.7803-.7012,0-.9707.0269-1.5918.0811l-1.5098,7.4502Z" stroke-width="0"/><path d="m470.6934,388.525l-.5352,2.4878h-1.3994l.5342-2.4878h-4.0107l.2041-.9922,5.8682-6.6768h.959l-1.3994,6.582h1.6045l-.2207,1.0869h-1.6045Zm-.1416-5.874h-.0625l-4.1064,4.7241-.0156.063h3.1465l1.0381-4.7871Z" stroke-width="0"/><path d="m491.166,376.4825h-9.7637v-1.8867h9.7637v1.8867Zm0,4.8633h-9.7637v-1.875h9.7637v1.875Z" stroke-width="0"/><path d="m507.251,386.0216h-2.1777v-14.4492l-4.3662,1.6055v-1.9688l6.2041-2.332h.3398v17.1445Z" stroke-width="0"/><path d="m524.7627,386.0216h-11.168v-1.5586l5.9004-6.5625c.874-.9922,1.4766-1.7988,1.8086-2.4199s.498-1.2637.498-1.9277c0-.8906-.2695-1.6211-.8076-2.1914-.5391-.5703-1.2568-.8555-2.1543-.8555-1.0771,0-1.9141.3066-2.5107.9199-.5977.6133-.8965,1.4668-.8965,2.5605h-2.165c0-1.5703.5049-2.8398,1.5156-3.8086s2.3633-1.4531,4.0566-1.4531c1.584,0,2.8369.416,3.7578,1.248s1.3809,1.9395,1.3809,3.3223c0,1.6797-1.0693,3.6797-3.207,6l-4.5654,4.957h8.5566v1.7695Z" stroke-width="0"/><path d="m543.6348,386.0216v-1.9434c2.5361-2.0244,3.9121-5.5337,3.9121-8.5029,0-4.0488-2.1045-6.478-5.3955-6.478-3.4258,0-5.5303,2.4834-5.5303,6.478,0,2.9424,1.3223,6.5322,3.9121,8.5298v1.9165h-7.123l-.5664-4.7778h.7832c.4854,1.8354.7549,2.5913,2.293,2.5913h2.4551v-.1616c-2.0508-1.5391-4.668-3.7793-4.668-8.2061,0-4.4536,3.4805-7.5039,8.4717-7.5039s8.2822,3.0503,8.2822,7.4771c0,4.3999-2.7793,6.6938-4.6406,8.2329v.1616h2.2656c1.5918,0,1.8623-.7827,2.4287-2.5913h.7822l-.6211,4.7778h-7.041Z" stroke-width="0"/></svg>