<?xml version="1.0" encoding="UTF-8"?><svg id="a" xmlns="http://www.w3.org/2000/svg" width="1140" height="420" xmlns:xlink="http://www.w3.org/1999/xlink" viewBox="0 0 1140 420"><defs><clipPath id="b"><path d="m11.941,190.295C36.768,107.85,11.102-19.012,412.584,11.805c136.559,10.482,493.261-24.228,610.455,4.741,72.374,17.89,97.399,165.03,112.597,241.959,16.72,84.634,2.124,138.352-531.14,154.611-427.641,13.038-659.66.013-592.556-222.821Z" fill="none"/></clipPath></defs><path d="m11.941,189.625C36.768,107.18,11.102-19.682,412.584,11.135c136.559,10.482,493.261-24.228,610.455,4.741,72.374,17.89,97.399,165.03,112.597,241.959,16.72,84.634,2.124,138.352-531.14,154.611-427.641,13.038-659.66.013-592.556-222.821Z" fill="#eee8ef"/><g clip-path="url(#b)"><rect x="1.616" y="206.19" width="1184.589" height="116" fill="#d6ced8"/></g><rect x="401.359" y="174.379" width="222.821" height="201.221" fill="#fef8ff"/><line x1="142.016" y1="351.726" x2="376.205" y2="351.726" fill="none" stroke="#000" stroke-miterlimit="10" stroke-width="2"/><polygon points="373.871 359.704 387.687 351.726 373.871 343.748 373.871 359.704"/><line x1="639.472" y1="351.726" x2="994.647" y2="351.726" fill="none" stroke="#000" stroke-miterlimit="10" stroke-width="2"/><polygon points="992.313 359.704 1006.129 351.726 992.313 343.748 992.313 359.704"/><circle cx="193.097" cy="264.012" r="50" fill="#a5c3c9"/><path d="m171.707,272.723h-3.133v-13.055l-3.74,1.254v-2.754l6.537-2.531h.336v17.086Z"/><path d="m187.654,272.723h-10.819v-2.32l5.106-5.883c.701-.828,1.22-1.551,1.556-2.168s.504-1.203.504-1.758c0-.758-.177-1.354-.531-1.787-.354-.434-.86-.65-1.518-.65-.708,0-1.267.264-1.675.791s-.612,1.221-.612,2.08h-3.145c0-1.039.229-1.988.688-2.848s1.107-1.533,1.946-2.021c.838-.488,1.789-.732,2.852-.732,1.626,0,2.889.422,3.789,1.266.899.844,1.35,2.035,1.35,3.574,0,.844-.203,1.703-.607,2.578-.405.875-1.099,1.895-2.081,3.059l-3.589,4.09h6.786v2.73Z"/><path d="m200.198,265.668c0,2.359-.452,4.164-1.355,5.414s-2.227,1.875-3.968,1.875c-1.721,0-3.036-.613-3.946-1.84-.911-1.227-1.377-2.984-1.398-5.273v-3.141c0-2.383.457-4.191,1.371-5.426s2.231-1.852,3.952-1.852,3.035.611,3.946,1.834c.91,1.223,1.376,2.979,1.398,5.268v3.141Zm-3.134-3.453c0-1.415-.179-2.445-.536-3.091-.358-.646-.916-.968-1.675-.968-.737,0-1.281.307-1.632.921s-.537,1.573-.559,2.88v4.152c0,1.392.176,2.426.526,3.103.35.677.912,1.015,1.686,1.015.766,0,1.318-.324,1.658-.974.34-.648.517-1.642.531-2.979v-4.059Z"/><path d="m214.541,255.66h3.252v11.812c0,1.086-.222,2.045-.666,2.877-.445.832-1.072,1.475-1.882,1.928-.809.453-1.724.68-2.742.68-1.67,0-2.971-.459-3.903-1.377-.932-.918-1.398-2.217-1.398-3.896h3.274c0,.836.162,1.453.487,1.852.326.398.839.598,1.54.598.621,0,1.116-.23,1.485-.691.368-.461.553-1.117.553-1.969v-11.812Z"/><circle cx="314.739" cy="264.012" r="50" fill="#a5c3c9"/><path d="m293.35,272.723h-3.133v-13.055l-3.74,1.254v-2.754l6.537-2.531h.336v17.086Z"/><path d="m309.297,272.723h-10.819v-2.32l5.106-5.883c.701-.828,1.219-1.551,1.556-2.168.336-.617.504-1.203.504-1.758,0-.758-.177-1.354-.531-1.787s-.86-.65-1.518-.65c-.708,0-1.267.264-1.675.791s-.613,1.221-.613,2.08h-3.144c0-1.039.229-1.988.688-2.848s1.107-1.533,1.945-2.021c.839-.488,1.789-.732,2.852-.732,1.627,0,2.89.422,3.789,1.266.9.844,1.35,2.035,1.35,3.574,0,.844-.202,1.703-.607,2.578-.404.875-1.098,1.895-2.08,3.059l-3.59,4.09h6.787v2.73Z"/><path d="m321.84,265.668c0,2.359-.451,4.164-1.355,5.414-.902,1.25-2.226,1.875-3.967,1.875-1.721,0-3.036-.613-3.947-1.84-.91-1.227-1.376-2.984-1.398-5.273v-3.141c0-2.383.457-4.191,1.372-5.426.914-1.234,2.231-1.852,3.952-1.852s3.035.611,3.945,1.834c.911,1.223,1.377,2.979,1.398,5.268v3.141Zm-3.133-3.453c0-1.415-.179-2.445-.537-3.091-.357-.646-.916-.968-1.674-.968-.738,0-1.281.307-1.633.921-.35.614-.536,1.573-.558,2.88v4.152c0,1.392.175,2.426.526,3.103.35.677.912,1.015,1.686,1.015.766,0,1.318-.324,1.658-.974.34-.648.517-1.642.531-2.979v-4.059Z"/><path d="m336.184,255.66h3.252v11.812c0,1.086-.223,2.045-.666,2.877-.445.832-1.072,1.475-1.882,1.928s-1.724.68-2.743.68c-1.669,0-2.97-.459-3.902-1.377-.932-.918-1.398-2.217-1.398-3.896h3.273c0,.836.163,1.453.488,1.852.326.398.838.598,1.539.598.622,0,1.117-.23,1.486-.691.368-.461.553-1.117.553-1.969v-11.812Z"/><path d="m486.979,344.447h-5.073v15.223h-2.07v-15.223h-5.063v-1.84h12.207v1.84Z"/><path d="m487.402,353.213c0-1.242.227-2.359.678-3.352.452-.992,1.081-1.758,1.887-2.297s1.726-.809,2.759-.809c1.598,0,2.89.598,3.876,1.793s1.479,2.785,1.479,4.77v.152c0,1.234-.219,2.342-.655,3.322-.438.98-1.062,1.744-1.876,2.291-.812.547-1.747.82-2.803.82-1.59,0-2.878-.598-3.864-1.793s-1.48-2.777-1.48-4.746v-.152Zm2.017.258c0,1.406.302,2.535.905,3.387s1.411,1.277,2.423,1.277c1.02,0,1.829-.432,2.429-1.295s.9-2.072.9-3.627c0-1.391-.306-2.518-.917-3.381-.61-.863-1.422-1.295-2.434-1.295-.99,0-1.788.426-2.396,1.277s-.911,2.07-.911,3.656Z"/><path d="m507.838,359.67c-.115-.25-.21-.695-.282-1.336-.932,1.047-2.045,1.57-3.339,1.57-1.156,0-2.104-.354-2.846-1.061s-1.111-1.604-1.111-2.689c0-1.32.465-2.346,1.394-3.076s2.234-1.096,3.919-1.096h1.951v-.996c0-.758-.21-1.361-.629-1.811s-1.037-.674-1.854-.674c-.716,0-1.315.195-1.8.586s-.727.863-.727,1.418h-2.016c0-.633.207-1.244.623-1.834.415-.59.979-1.057,1.691-1.4s1.494-.516,2.347-.516c1.352,0,2.41.365,3.177,1.096.766.73,1.163,1.736,1.192,3.018v5.836c0,1.164.137,2.09.412,2.777v.188h-2.104Zm-3.328-1.652c.629,0,1.225-.176,1.789-.527.563-.352.972-.809,1.225-1.371v-2.602h-1.572c-2.457,0-3.686.777-3.686,2.332,0,.68.21,1.211.629,1.594s.957.574,1.615.574Z"/><path d="m519.503,356.307c0-.586-.204-1.041-.612-1.365s-1.12-.604-2.136-.838-1.821-.516-2.418-.844c-.596-.328-1.037-.719-1.322-1.172s-.428-.992-.428-1.617c0-1.039.406-1.918,1.22-2.637.812-.719,1.852-1.078,3.116-1.078,1.33,0,2.408.371,3.236,1.113.827.742,1.241,1.691,1.241,2.848h-2.017c0-.594-.233-1.105-.699-1.535s-1.054-.645-1.762-.645c-.729,0-1.301.172-1.713.516s-.618.793-.618,1.348c0,.523.191.918.575,1.184.383.266,1.075.52,2.076.762s1.812.531,2.434.867c.621.336,1.082.74,1.382,1.213s.45,1.049.45,1.729c0,1.133-.419,2.041-1.258,2.725-.838.684-1.926,1.025-3.263,1.025-.939,0-1.771-.18-2.494-.539s-1.288-.861-1.696-1.506-.612-1.342-.612-2.092h2.006c.036.727.305,1.303.808,1.729.502.426,1.165.639,1.989.639.759,0,1.367-.166,1.826-.498s.688-.775.688-1.33Z"/><path d="m526.843,343.92v3.07h2.189v1.676h-2.189v7.873c0,.509.098.89.293,1.145.194.254.527.381.997.381.231,0,.549-.047.954-.141v1.748c-.527.154-1.041.232-1.54.232-.896,0-1.571-.293-2.026-.879-.456-.586-.684-1.418-.684-2.496v-7.863h-2.136v-1.676h2.136v-3.07h2.006Z"/><path d="m536.241,359.904c-1.59,0-2.884-.564-3.881-1.693s-1.496-2.639-1.496-4.529v-.398c0-1.258.223-2.381.667-3.369s1.065-1.762,1.864-2.32,1.664-.838,2.597-.838c1.525,0,2.71.543,3.556,1.629s1.269,2.641,1.269,4.664v.902h-7.946c.028,1.25.366,2.26,1.014,3.029.646.77,1.469,1.154,2.466,1.154.709,0,1.309-.156,1.8-.469s.922-.727,1.29-1.242l1.226,1.031c-.983,1.633-2.458,2.449-4.424,2.449Zm-.249-11.367c-.81,0-1.489.318-2.038.955s-.889,1.529-1.019,2.678h5.875v-.164c-.058-1.102-.332-1.955-.823-2.561-.492-.605-1.156-.908-1.995-.908Z"/><path d="m548.807,348.936c-.304-.055-.633-.082-.986-.082-1.315,0-2.208.605-2.678,1.816v9h-2.006v-12.68h1.951l.032,1.465c.658-1.133,1.591-1.699,2.798-1.699.39,0,.687.055.889.164v2.016Z"/><circle cx="709.223" cy="264.012" r="50" fill="#a5c3c9"/><path d="m703.586,265.668c0,2.359-.452,4.164-1.355,5.414s-2.226,1.875-3.968,1.875c-1.72,0-3.035-.613-3.946-1.84-.91-1.227-1.376-2.984-1.398-5.273v-3.141c0-2.383.457-4.191,1.372-5.426.914-1.234,2.231-1.852,3.951-1.852s3.035.611,3.946,1.834,1.377,2.979,1.398,5.268v3.141Zm-3.133-3.453c0-1.415-.179-2.445-.537-3.091-.357-.646-.916-.968-1.675-.968-.737,0-1.281.307-1.632.921s-.536,1.573-.558,2.88v4.152c0,1.392.175,2.426.525,3.103s.912,1.015,1.686,1.015c.767,0,1.319-.324,1.659-.974.34-.648.517-1.642.531-2.979v-4.059Z"/><path d="m717.929,255.66h3.252v11.812c0,1.086-.222,2.045-.666,2.877-.445.832-1.072,1.475-1.882,1.928-.809.453-1.724.68-2.742.68-1.67,0-2.971-.459-3.903-1.377-.932-.918-1.398-2.217-1.398-3.896h3.274c0,.836.162,1.453.487,1.852.326.398.839.598,1.54.598.621,0,1.116-.23,1.485-.691.368-.461.553-1.117.553-1.969v-11.812Z"/><circle cx="830.866" cy="264.012" r="50" fill="#a5c3c9"/><path d="m825.229,265.668c0,2.359-.452,4.164-1.355,5.414s-2.227,1.875-3.968,1.875c-1.721,0-3.036-.613-3.946-1.84-.911-1.227-1.377-2.984-1.398-5.273v-3.141c0-2.383.457-4.191,1.371-5.426s2.231-1.852,3.952-1.852,3.035.611,3.946,1.834c.91,1.223,1.376,2.979,1.398,5.268v3.141Zm-3.134-3.453c0-1.415-.179-2.445-.536-3.091-.358-.646-.916-.968-1.675-.968-.737,0-1.281.307-1.632.921s-.537,1.573-.559,2.88v4.152c0,1.392.176,2.426.526,3.103.35.677.912,1.015,1.686,1.015.766,0,1.318-.324,1.658-.974.34-.648.517-1.642.531-2.979v-4.059Z"/><path d="m839.57,255.66h3.253v11.812c0,1.086-.223,2.045-.667,2.877s-1.071,1.475-1.881,1.928-1.724.68-2.743.68c-1.669,0-2.97-.459-3.902-1.377s-1.398-2.217-1.398-3.896h3.273c0,.836.163,1.453.488,1.852s.838.598,1.539.598c.622,0,1.117-.23,1.485-.691.369-.461.553-1.117.553-1.969v-11.812Z"/><circle cx="952.508" cy="264.012" r="50" fill="#a5c3c9"/><path d="m946.87,265.668c0,2.359-.452,4.164-1.355,5.414s-2.226,1.875-3.968,1.875c-1.72,0-3.035-.613-3.946-1.84-.91-1.227-1.376-2.984-1.398-5.273v-3.141c0-2.383.457-4.191,1.372-5.426.914-1.234,2.231-1.852,3.951-1.852s3.035.611,3.946,1.834,1.377,2.979,1.398,5.268v3.141Zm-3.133-3.453c0-1.415-.179-2.445-.537-3.091-.357-.646-.916-.968-1.675-.968-.737,0-1.281.307-1.632.921s-.536,1.573-.558,2.88v4.152c0,1.392.175,2.426.525,3.103s.912,1.015,1.686,1.015c.767,0,1.319-.324,1.659-.974.34-.648.517-1.642.531-2.979v-4.059Z"/><path d="m961.213,255.66h3.252v11.812c0,1.086-.222,2.045-.666,2.877-.445.832-1.072,1.475-1.882,1.928-.809.453-1.724.68-2.742.68-1.67,0-2.971-.459-3.903-1.377-.932-.918-1.398-2.217-1.398-3.896h3.274c0,.836.162,1.453.487,1.852.326.398.839.598,1.54.598.621,0,1.116-.23,1.485-.691.368-.461.553-1.117.553-1.969v-11.812Z"/><path d="m451.834,318.1l-4.25-.654c-2.141-.329-3.855-1.948-4.306-4.067l-3.823-17.968,26.06-.457-8.055,19.946c-.906,2.243-3.235,3.568-5.626,3.2Z" fill="#354872"/><path d="m559.273,326.786l-4.25-.654c-2.141-.329-3.855-1.948-4.306-4.067l-3.823-17.968,26.06-.457-8.055,19.946c-.906,2.243-3.235,3.568-5.626,3.2Z" fill="#354872"/><path d="m440.826,228.204h-.914c.312-.326,20.166-20.186,20.466-20.523,1.849-2.076,10.9-11.373,24.093-10.509,10.678.699,72.844,2.61,83.996,7.83,11.152,5.22,20.031,10.857,21.592,27.773.772,8.37.764,41.754.73,54.656-.009,3.384-.64,6.732-1.86,9.889l-9.135,19.14-143.252-12.038,4.285-76.217Z" fill="#b8bcc4"/><path d="m438.623,309.334l127.747,11.065c1.233.104,2.475.021,3.683-.248l6.084-1.352c2.866-.637,4.906-3.179,4.906-6.116v-56.591s-8.542-32.032-37.727-32.744-87.443-6.008-87.443-6.008c0,0-21.231,5.834-22.779,29.608-1.505,23.123-1.241,44.062-.954,51.69.117,3.1,1.18,6.083,3.041,8.565,0,0,2.189,2.024,3.442,2.13Z" fill="#b8bcc4"/><polygon points="475.817 204.563 481.631 200.41 559.214 206.224 556.129 210.495 475.817 204.563" fill="#354872"/><polygon points="465.515 212.202 473.23 206.373 554.324 213.231 549.792 219.627 465.515 212.202" fill="#354872"/><path d="m446.495,221.409c8.096-6.535,15.587-6.408,25.37-5.406,17.506,1.52,34.951,3.449,52.403,5.459,8.72,1.044,17.443,2.043,26.143,3.384,4.406.829,9.224.919,13.073,3.549,10.639,7.577,12.132,25.17,12.371,37.218-.077,8.818-.036,17.557-.155,26.339-.129,8.776-.333,17.548-.77,26.319,0,.18-.293.178-.294,0-.438-8.774-.641-17.555-.77-26.337-.44-13.104.713-26.282-1.104-39.276-1.344-8.066-3.589-17.46-10.55-22.345-1.756-1.161-3.576-1.765-5.699-2.079-19.439-3.149-39.069-5.276-58.656-7.546-11.959-1.257-23.922-2.735-35.914-3.501-5.405-.09-10.656,1.698-15.281,4.463-.142.098-.311-.138-.168-.241h0Z" fill="#354872"/><path d="m582.098,230.49s1.829,0,2.286,11.887.914,44.347.914,44.347" fill="none" stroke="#354872" stroke-linecap="round" stroke-miterlimit="10" stroke-width="2"/><path d="m593.836,289.467h-8.739c-2.578,0-4.38-2.551-3.518-4.981l2.38-6.707c.528-1.489,1.938-2.485,3.518-2.485h8.09c2.44,0,4.224,2.303,3.614,4.666l-1.731,6.707c-.425,1.648-1.912,2.8-3.614,2.8Z" fill="#354872"/><polyline points="378.647 205.074 378.647 95.126 648.647 95.126 648.647 205.074" fill="none" stroke="#000" stroke-linecap="round" stroke-linejoin="round" stroke-width="2"/><path d="m467.993,144.092l4.51-14.074h2.276l-5.854,17.062h-1.843l-5.843-17.062h2.266l4.488,14.074Z"/><path d="m475.549,140.624c0-1.242.227-2.359.678-3.352.452-.992,1.081-1.758,1.887-2.297s1.726-.809,2.759-.809c1.598,0,2.89.598,3.876,1.793s1.479,2.785,1.479,4.77v.152c0,1.234-.219,2.342-.655,3.322-.438.98-1.062,1.744-1.876,2.291-.812.547-1.747.82-2.803.82-1.59,0-2.878-.598-3.864-1.793s-1.48-2.777-1.48-4.746v-.152Zm2.017.258c0,1.406.302,2.535.905,3.387s1.411,1.277,2.423,1.277c1.02,0,1.829-.432,2.429-1.295s.9-2.072.9-3.627c0-1.391-.306-2.518-.917-3.381-.61-.863-1.422-1.295-2.434-1.295-.99,0-1.788.426-2.396,1.277s-.911,2.07-.911,3.656Z"/><path d="m490.922,147.081h-2.006v-18h2.006v18Z"/><path d="m496.852,131.331v3.07h2.19v1.676h-2.19v7.873c0,.509.098.89.293,1.145.195.254.527.381.997.381.231,0,.55-.047.954-.141v1.748c-.527.154-1.04.232-1.539.232-.896,0-1.572-.293-2.027-.879s-.683-1.418-.683-2.496v-7.863h-2.136v-1.676h2.136v-3.07h2.005Z"/><path d="m503.271,134.401l.054,1.406c.86-1.094,2.021-1.641,3.48-1.641,1.641,0,2.757.68,3.35,2.039.391-.609.897-1.102,1.523-1.477.625-.375,1.363-.562,2.217-.562,2.573,0,3.881,1.473,3.925,4.418v8.496h-2.006v-8.367c0-.906-.191-1.584-.575-2.033-.383-.449-1.026-.674-1.93-.674-.744,0-1.362.24-1.854.721s-.777,1.127-.856,1.939v8.414h-2.017v-8.309c0-1.844-.835-2.766-2.504-2.766-1.315,0-2.216.605-2.699,1.816v9.258h-2.006v-12.68h1.897Z"/><path d="m525.711,147.315c-1.59,0-2.884-.564-3.881-1.693-.998-1.129-1.496-2.639-1.496-4.529v-.398c0-1.258.222-2.381.666-3.369.445-.988,1.066-1.762,1.865-2.32s1.664-.838,2.597-.838c1.524,0,2.71.543,3.556,1.629s1.269,2.641,1.269,4.664v.902h-7.947c.029,1.25.367,2.26,1.014,3.029.647.77,1.47,1.154,2.467,1.154.708,0,1.308-.156,1.8-.469.491-.312.921-.727,1.29-1.242l1.225,1.031c-.982,1.633-2.457,2.449-4.423,2.449Zm-.249-11.367c-.81,0-1.489.318-2.038.955-.55.637-.89,1.529-1.02,2.678h5.876v-.164c-.058-1.102-.333-1.955-.824-2.561s-1.156-.908-1.994-.908Z"/><path d="m535.327,131.331v3.07h2.189v1.676h-2.189v7.873c0,.509.098.89.293,1.145.194.254.527.381.997.381.231,0,.549-.047.954-.141v1.748c-.527.154-1.041.232-1.54.232-.896,0-1.571-.293-2.026-.879-.456-.586-.684-1.418-.684-2.496v-7.863h-2.136v-1.676h2.136v-3.07h2.006Z"/><path d="m544.727,147.315c-1.59,0-2.884-.564-3.881-1.693-.998-1.129-1.496-2.639-1.496-4.529v-.398c0-1.258.222-2.381.666-3.369.445-.988,1.066-1.762,1.865-2.32s1.664-.838,2.597-.838c1.524,0,2.71.543,3.556,1.629s1.269,2.641,1.269,4.664v.902h-7.947c.029,1.25.367,2.26,1.014,3.029.647.77,1.47,1.154,2.467,1.154.708,0,1.308-.156,1.8-.469.491-.312.921-.727,1.29-1.242l1.225,1.031c-.982,1.633-2.457,2.449-4.423,2.449Zm-.249-11.367c-.81,0-1.489.318-2.038.955-.55.637-.89,1.529-1.02,2.678h5.876v-.164c-.058-1.102-.333-1.955-.824-2.561s-1.156-.908-1.994-.908Z"/><path d="m557.291,136.346c-.303-.055-.632-.082-.986-.082-1.315,0-2.208.605-2.678,1.816v9h-2.006v-12.68h1.952l.032,1.465c.657-1.133,1.59-1.699,2.797-1.699.391,0,.687.055.889.164v2.016Z"/><path d="m488.83,57.27h-3.133v-13.055l-3.74,1.254v-2.754l6.537-2.531h.336v17.086Z"/><path d="m504.777,57.27h-10.819v-2.32l5.106-5.883c.7-.828,1.219-1.551,1.556-2.168.336-.617.504-1.203.504-1.758,0-.758-.178-1.354-.531-1.787-.354-.434-.86-.65-1.518-.65-.709,0-1.268.264-1.676.791s-.612,1.221-.612,2.08h-3.144c0-1.039.229-1.988.688-2.848s1.107-1.533,1.945-2.021c.839-.488,1.789-.732,2.852-.732,1.626,0,2.89.422,3.789,1.266s1.35,2.035,1.35,3.574c0,.844-.202,1.703-.607,2.578-.404.875-1.099,1.895-2.081,3.059l-3.589,4.09h6.787v2.73Z"/><path d="m517.32,50.216c0,2.359-.452,4.164-1.355,5.414s-2.226,1.875-3.968,1.875c-1.72,0-3.035-.613-3.946-1.84-.91-1.227-1.376-2.984-1.398-5.273v-3.141c0-2.383.457-4.191,1.372-5.426.914-1.234,2.231-1.852,3.951-1.852s3.035.611,3.946,1.834,1.377,2.979,1.398,5.268v3.141Zm-3.133-3.453c0-1.415-.179-2.445-.537-3.091-.357-.646-.916-.968-1.675-.968-.737,0-1.281.307-1.632.921s-.536,1.573-.558,2.88v4.152c0,1.392.175,2.426.525,3.103s.912,1.015,1.686,1.015c.767,0,1.319-.324,1.659-.974.34-.648.517-1.642.531-2.979v-4.059Z"/><path d="m531.132,53.04l3.578-12.832h3.621l-5.497,17.062h-3.393l-5.476-17.062h3.61l3.556,12.832Z"/><circle cx="509.679" cy="95.437" r="25" fill="#eee8ef" stroke="#000" stroke-linecap="round" stroke-linejoin="round" stroke-width="2"/><path d="m508.914,101.529l5.688-16.42h2.871l-7.383,19.906h-2.324l-7.369-19.906h2.857l5.66,16.42Z"/></svg>