<?xml version="1.0" encoding="UTF-8"?><svg id="a" xmlns="http://www.w3.org/2000/svg" width="570" height="321" viewBox="0 0 570 321"><defs><style>.j{fill:#fff;}.j,.k{stroke:#000;stroke-miterlimit:10;stroke-width:2px;}.k{fill:none;}.l,.m,.n,.o{stroke-width:0px;}.m{fill:#d12d32;}.n{fill:#969696;}.o{fill:#e8dff4;}</style></defs><path id="b" class="o" d="m5.012,143.467C3.364.123,31.116,9.592,302.49,11.987c284.651,2.512,256.143,5.275,262.51,102.958,15.443,236.949-36.464,194.222-222.258,194.222C15.275,309.167,7.437,354.482,5.012,143.467Z"/><g id="c"><rect class="n" x="115.529" y="130.302" width="49.359" height="199.995" transform="translate(370.522 90.113) rotate(90.006)"/><rect class="m" x="65.529" y="180.3" width="49.359" height="99.998" transform="translate(320.512 140.102) rotate(90.003)"/><circle class="j" cx="211.185" cy="230.747" r="20"/><path class="l" d="m214.625,235.46c0-.774-.273-1.369-.82-1.784s-1.531-.853-2.953-1.312-2.548-.914-3.377-1.36c-2.261-1.222-3.391-2.866-3.391-4.936,0-1.075.303-2.035.909-2.878.605-.843,1.477-1.502,2.611-1.976s2.408-.711,3.821-.711c1.422,0,2.688.258,3.801.772,1.111.515,1.976,1.242,2.591,2.181s.923,2.005.923,3.199h-4.102c0-.911-.287-1.62-.861-2.126s-1.381-.759-2.42-.759c-1.003,0-1.782.212-2.338.636-.557.424-.834.982-.834,1.675,0,.647.325,1.189.978,1.627.651.438,1.61.848,2.878,1.23,2.333.702,4.033,1.572,5.1,2.611s1.6,2.333,1.6,3.883c0,1.723-.652,3.074-1.955,4.054-1.304.979-3.059,1.47-5.264,1.47-1.531,0-2.926-.28-4.184-.841s-2.218-1.328-2.878-2.304c-.661-.976-.991-2.105-.991-3.391h4.115c0,2.196,1.312,3.295,3.938,3.295.975,0,1.736-.198,2.283-.595s.82-.95.82-1.661Z"/><circle class="j" cx="70.069" cy="230.747" r="20"/><path class="l" d="m78.096,240.682h-4.102l-7.984-13.098v13.098h-4.102v-19.906h4.102l7.998,13.125v-13.125h4.088v19.906Z"/></g><g id="d"><rect class="m" x="115.529" y="-12.698" width="49.359" height="199.995" transform="translate(227.522 -52.901) rotate(90.006)"/><rect class="n" x="65.529" y="37.3" width="49.359" height="99.998" transform="translate(177.512 -2.905) rotate(90.003)"/><circle class="j" cx="211.185" cy="87.747" r="20"/><path class="l" d="m219.212,97.682h-4.102l-7.984-13.098v13.098h-4.102v-19.906h4.102l7.998,13.125v-13.125h4.088v19.906Z"/><circle class="j" cx="70.069" cy="87.747" r="20"/><path class="l" d="m73.509,92.46c0-.774-.273-1.369-.82-1.784s-1.531-.853-2.953-1.312-2.548-.914-3.377-1.36c-2.261-1.222-3.391-2.866-3.391-4.936,0-1.075.303-2.035.909-2.878.605-.843,1.477-1.502,2.611-1.976s2.408-.711,3.821-.711c1.422,0,2.688.258,3.801.772s1.976,1.242,2.591,2.181.923,2.005.923,3.199h-4.102c0-.911-.287-1.62-.861-2.126s-1.381-.759-2.42-.759c-1.003,0-1.782.212-2.338.636s-.834.982-.834,1.675c0,.647.325,1.189.978,1.627.651.438,1.611.848,2.878,1.23,2.333.702,4.033,1.572,5.1,2.611s1.6,2.333,1.6,3.883c0,1.723-.651,3.074-1.955,4.054s-3.058,1.47-5.264,1.47c-1.531,0-2.926-.28-4.184-.841s-2.218-1.328-2.878-2.304c-.661-.976-.991-2.105-.991-3.391h4.115c0,2.196,1.312,3.295,3.938,3.295.976,0,1.736-.198,2.283-.595s.82-.95.82-1.661Z"/></g><g id="e"><rect class="n" x="411.064" y="130.302" width="49.359" height="199.995" transform="translate(666.085 -205.421) rotate(90.006)"/><rect class="m" x="361.064" y="180.3" width="49.359" height="99.998" transform="translate(616.061 -155.433) rotate(90.003)"/><circle class="j" cx="506.719" cy="230.747" r="20"/><path class="l" d="m510.159,235.46c0-.774-.273-1.369-.82-1.784s-1.531-.853-2.953-1.312-2.548-.914-3.377-1.36c-2.261-1.222-3.391-2.866-3.391-4.936,0-1.075.303-2.035.909-2.878.605-.843,1.477-1.502,2.611-1.976s2.408-.711,3.821-.711c1.422,0,2.688.258,3.801.772s1.976,1.242,2.591,2.181.923,2.005.923,3.199h-4.102c0-.911-.287-1.62-.861-2.126s-1.381-.759-2.42-.759c-1.003,0-1.782.212-2.338.636s-.834.982-.834,1.675c0,.647.325,1.189.978,1.627.651.438,1.611.848,2.878,1.23,2.333.702,4.033,1.572,5.1,2.611s1.6,2.333,1.6,3.883c0,1.723-.651,3.074-1.955,4.054s-3.058,1.47-5.264,1.47c-1.531,0-2.926-.28-4.184-.841s-2.218-1.328-2.878-2.304c-.661-.976-.991-2.105-.991-3.391h4.115c0,2.196,1.312,3.295,3.938,3.295.976,0,1.736-.198,2.283-.595s.82-.95.82-1.661Z"/><circle class="j" cx="365.603" cy="230.747" r="20"/><path class="l" d="m373.63,240.682h-4.102l-7.984-13.098v13.098h-4.102v-19.906h4.102l7.998,13.125v-13.125h4.088v19.906Z"/></g><g id="f"><rect class="m" x="411.064" y="-12.698" width="49.359" height="199.995" transform="translate(523.085 -348.435) rotate(90.006)"/><rect class="n" x="361.064" y="37.3" width="49.359" height="99.998" transform="translate(473.061 -298.44) rotate(90.003)"/><circle class="j" cx="506.719" cy="87.747" r="20"/><path class="l" d="m514.746,97.682h-4.102l-7.984-13.098v13.098h-4.102v-19.906h4.102l7.998,13.125v-13.125h4.088v19.906Z"/><circle class="j" cx="365.603" cy="87.747" r="20"/><path class="l" d="m369.043,92.46c0-.774-.273-1.369-.82-1.784s-1.531-.853-2.953-1.312-2.548-.914-3.377-1.36c-2.261-1.222-3.391-2.866-3.391-4.936,0-1.075.303-2.035.909-2.878s1.477-1.502,2.611-1.976,2.408-.711,3.821-.711c1.422,0,2.688.258,3.801.772s1.976,1.242,2.591,2.181.923,2.005.923,3.199h-4.102c0-.911-.287-1.62-.861-2.126s-1.381-.759-2.42-.759c-1.003,0-1.782.212-2.338.636s-.834.982-.834,1.675c0,.647.326,1.189.978,1.627s1.611.848,2.878,1.23c2.333.702,4.033,1.572,5.1,2.611s1.6,2.333,1.6,3.883c0,1.723-.651,3.074-1.955,4.054s-3.058,1.47-5.264,1.47c-1.531,0-2.926-.28-4.184-.841s-2.217-1.328-2.878-2.304-.991-2.105-.991-3.391h4.115c0,2.196,1.312,3.295,3.938,3.295.976,0,1.736-.198,2.283-.595s.82-.95.82-1.661Z"/></g><g id="g"><line class="k" x1="240.643" y1="86.732" x2="270.161" y2="86.732"/><polygon class="l" points="267.827 94.71 281.643 86.732 267.827 78.754 267.827 94.71"/><line class="k" x1="305.723" y1="86.732" x2="335.241" y2="86.732"/><polygon class="l" points="308.058 94.71 294.241 86.732 308.058 78.754 308.058 94.71"/></g><g id="h"><line class="k" x1="240.643" y1="229.732" x2="270.161" y2="229.732"/><polygon class="l" points="267.827 237.71 281.643 229.732 267.827 221.754 267.827 237.71"/><line class="k" x1="305.723" y1="229.732" x2="335.241" y2="229.732"/><polygon class="l" points="308.058 237.71 294.241 229.732 308.058 221.754 308.058 237.71"/></g><path class="l" d="m264.034,60.769c.026-2.564-.081-3.348-3.589-3.348h-4.046l-1.457,7.019h2.994c2.294,0,2.86-.514,3.318-2.673h.863l-1.241,6.289h-.89c.432-2.294,0-2.591-2.32-2.591h-2.913l-1.16,5.776c-.081.351-.108.675-.108.918,0,.944.863,1.134,2.536,1.134l-.135.81h-7.77l.162-.81c1.861,0,2.509-.324,2.913-2.321l2.401-11.553c.377-1.863.081-2.241-2.104-2.241l.162-.81h13.92l-.729,4.4h-.809Z"/><path class="l" d="m326.307,60.769c.026-2.564-.081-3.348-3.589-3.348h-4.046l-1.457,7.019h2.994c2.294,0,2.86-.514,3.318-2.673h.863l-1.241,6.289h-.89c.432-2.294,0-2.591-2.32-2.591h-2.913l-1.16,5.776c-.081.351-.108.675-.108.918,0,.944.863,1.134,2.536,1.134l-.135.81h-7.77l.162-.81c1.861,0,2.509-.324,2.913-2.321l2.401-11.553c.377-1.863.081-2.241-2.104-2.241l.162-.81h13.92l-.729,4.4h-.809Z"/><path class="l" d="m264.034,203.583c.026-2.564-.081-3.348-3.589-3.348h-4.046l-1.457,7.019h2.994c2.294,0,2.86-.514,3.318-2.673h.863l-1.241,6.289h-.89c.432-2.294,0-2.591-2.32-2.591h-2.913l-1.16,5.776c-.081.351-.108.675-.108.918,0,.944.863,1.134,2.536,1.134l-.135.81h-7.77l.162-.81c1.861,0,2.509-.324,2.913-2.321l2.401-11.553c.377-1.863.081-2.241-2.104-2.241l.162-.81h13.92l-.729,4.4h-.809Z"/><path class="l" d="m326.307,203.583c.026-2.564-.081-3.348-3.589-3.348h-4.046l-1.457,7.019h2.994c2.294,0,2.86-.514,3.318-2.673h.863l-1.241,6.289h-.89c.432-2.294,0-2.591-2.32-2.591h-2.913l-1.16,5.776c-.081.351-.108.675-.108.918,0,.944.863,1.134,2.536,1.134l-.135.81h-7.77l.162-.81c1.861,0,2.509-.324,2.913-2.321l2.401-11.553c.377-1.863.081-2.241-2.104-2.241l.162-.81h13.92l-.729,4.4h-.809Z"/></svg>