<?xml version="1.0" encoding="UTF-8"?>
<svg id="Layer_2" data-name="Layer 2" xmlns="http://www.w3.org/2000/svg" viewBox="0 0 1140 500">
  <defs>
    <style>
      .cls-1 {
        fill: none;
        stroke-linecap: square;
        stroke-width: 2px;
      }

      .cls-1, .cls-2 {
        stroke: #000;
        stroke-miterlimit: 10;
      }

      .cls-2 {
        fill: #fff;
        stroke-width: 3px;
      }

      .cls-3, .cls-4, .cls-5, .cls-6 {
        stroke-width: 0px;
      }

      .cls-4 {
        fill: #231f20;
      }

      .cls-5 {
        fill: #d12d32;
      }

      .cls-6 {
        fill: #eee8ef;
      }
    </style>
  </defs>
  <g id="maal5_01.201a">
    <path class="cls-6" d="M1127.776,254.517c-.067-299.291-166.704-239.012-580.48-230.3C131.883,32.963-.02-39.095,0,251.398c.021,297.538,251.769,223.511,557.329,223.511s570.512,73.307,570.446-220.391Z"/>
  </g>
  <g>
    <g>
      <g>
        <path class="cls-1" d="M248.252,296.701c33.106-52.252,17.584-121.449-34.668-154.554-52.252-33.106-121.448-17.584-154.554,34.668-33.106,52.252-17.584,121.448,34.668,154.554,48.152,30.508,110.693,19.721,146.12-23.051"/>
        <polygon class="cls-3" points="245.968 316.513 248.252 296.701 229.951 304.627 245.968 316.513"/>
      </g>
      <circle class="cls-2" cx="154.213" cy="236.105" r="63.173"/>
    </g>
    <circle class="cls-3" cx="154.213" cy="236.105" r="11.581"/>
  </g>
  <g>
    <path class="cls-3" d="M266.014,379.314h-5.344v9.203h-3.016v-22.75h7.531c2.562,0,4.534.584,5.914,1.75,1.38,1.167,2.07,2.865,2.07,5.094,0,1.417-.383,2.651-1.148,3.703-.766,1.053-1.831,1.839-3.195,2.359l5.344,9.656v.188h-3.219l-4.938-9.203ZM260.67,376.861h4.609c1.489,0,2.675-.386,3.555-1.158s1.32-1.806,1.32-3.1c0-1.408-.419-2.488-1.258-3.24-.839-.751-2.05-1.132-3.633-1.143h-4.594v8.641Z"/>
    <path class="cls-3" d="M283.936,388.829c-2.292,0-4.156-.752-5.594-2.258-1.438-1.505-2.156-3.518-2.156-6.039v-.531c0-1.677.32-3.174.961-4.492.641-1.317,1.536-2.349,2.688-3.094,1.151-.744,2.398-1.117,3.742-1.117,2.198,0,3.906.725,5.125,2.172,1.219,1.448,1.828,3.521,1.828,6.219v1.203h-11.453c.042,1.667.528,3.014,1.461,4.039.933,1.026,2.117,1.539,3.555,1.539,1.021,0,1.886-.208,2.594-.625.708-.416,1.328-.969,1.859-1.656l1.766,1.375c-1.417,2.178-3.542,3.266-6.375,3.266ZM283.576,373.673c-1.167,0-2.146.425-2.938,1.273-.792.85-1.281,2.039-1.469,3.57h8.469v-.219c-.083-1.469-.479-2.606-1.188-3.414-.708-.807-1.667-1.211-2.875-1.211Z"/>
    <path class="cls-3" d="M308.154,380.251c0,2.573-.589,4.646-1.766,6.219-1.178,1.573-2.771,2.359-4.781,2.359-2.053,0-3.667-.65-4.844-1.953v8.141h-2.891v-23.406h2.641l.141,1.875c1.177-1.458,2.812-2.188,4.906-2.188,2.031,0,3.638.766,4.82,2.297,1.182,1.531,1.773,3.662,1.773,6.391v.266ZM305.264,379.923c0-1.906-.406-3.411-1.219-4.516-.812-1.104-1.928-1.656-3.344-1.656-1.75,0-3.062.776-3.938,2.328v8.078c.864,1.542,2.188,2.312,3.969,2.312,1.385,0,2.486-.549,3.305-1.648.817-1.099,1.227-2.731,1.227-4.898Z"/>
    <path class="cls-3" d="M318.842,388.829c-2.292,0-4.156-.752-5.594-2.258-1.438-1.505-2.156-3.518-2.156-6.039v-.531c0-1.677.32-3.174.961-4.492.641-1.317,1.536-2.349,2.688-3.094,1.15-.744,2.398-1.117,3.742-1.117,2.197,0,3.906.725,5.125,2.172,1.219,1.448,1.828,3.521,1.828,6.219v1.203h-11.453c.041,1.667.528,3.014,1.461,4.039.932,1.026,2.117,1.539,3.555,1.539,1.021,0,1.885-.208,2.594-.625.708-.416,1.328-.969,1.859-1.656l1.766,1.375c-1.417,2.178-3.542,3.266-6.375,3.266ZM318.482,373.673c-1.167,0-2.146.425-2.938,1.273-.792.85-1.281,2.039-1.469,3.57h8.469v-.219c-.084-1.469-.479-2.606-1.188-3.414-.709-.807-1.667-1.211-2.875-1.211Z"/>
    <path class="cls-3" d="M331.92,388.517h-2.891v-24h2.891v24Z"/>
  </g>
  <g>
    <g>
      <circle class="cls-2" cx="435.859" cy="235.353" r="63.173"/>
      <path class="cls-4" d="M460.47,265.046l-24.649-24.545-24.545,24.545-4.888-4.888,24.44-24.649-24.44-24.545,4.992-4.888,24.44,24.441,24.649-24.441,4.888,4.784-24.44,24.649,24.44,24.545-4.888,4.992Z"/>
    </g>
    <g>
      <path class="cls-1" d="M341.248,296.701c-33.106-52.252-17.584-121.449,34.668-154.554,52.252-33.106,121.448-17.584,154.554,34.668s17.584,121.448-34.668,154.554c-48.152,30.508-110.693,19.721-146.12-23.051"/>
      <polygon class="cls-3" points="359.548 304.627 341.248 296.701 343.532 316.513 359.548 304.627"/>
    </g>
  </g>
  <g>
    <polygon class="cls-5" points="378.677 250.279 368.164 250.279 367.235 250.279 222.14 250.279 221.933 250.279 212.896 250.279 212.896 224.279 221.933 224.279 222.14 224.279 367.235 224.279 368.164 224.279 378.677 224.279 378.677 250.279"/>
    <polygon class="cls-5" points="402.083 237.279 368.406 267.279 368.406 207.279 402.083 237.279"/>
    <polygon class="cls-5" points="187.304 237.279 220.982 207.279 220.982 267.279 187.304 237.279"/>
  </g>
  <g>
    <g>
      <g>
        <path class="cls-1" d="M818.547,296.701c33.106-52.252,17.584-121.449-34.668-154.554-52.252-33.106-121.448-17.584-154.554,34.668-33.106,52.252-17.584,121.448,34.668,154.554,48.152,30.508,110.693,19.721,146.12-23.051"/>
        <polygon class="cls-3" points="816.264 316.513 818.547 296.701 800.247 304.627 816.264 316.513"/>
      </g>
      <circle class="cls-2" cx="724.508" cy="236.105" r="63.173"/>
    </g>
    <circle class="cls-3" cx="724.508" cy="236.105" r="11.581"/>
  </g>
  <g>
    <path class="cls-3" d="M814.014,382.564h-9.531l-2.141,5.953h-3.094l8.688-22.75h2.625l8.703,22.75h-3.078l-2.172-5.953ZM805.389,380.111h7.734l-3.875-10.641-3.859,10.641Z"/>
    <path class="cls-3" d="M825.529,367.517v4.094h3.156v2.234h-3.156v10.498c0,.678.141,1.186.422,1.525.281.338.761.508,1.438.508.333,0,.792-.062,1.375-.188v2.33c-.761.207-1.5.311-2.219.311-1.292,0-2.266-.391-2.922-1.172s-.984-1.891-.984-3.328v-10.484h-3.078v-2.234h3.078v-4.094h2.891Z"/>
    <path class="cls-3" d="M835.982,367.517v4.094h3.156v2.234h-3.156v10.498c0,.678.141,1.186.422,1.525.281.338.761.508,1.438.508.333,0,.792-.062,1.375-.188v2.33c-.761.207-1.5.311-2.219.311-1.292,0-2.266-.391-2.922-1.172s-.984-1.891-.984-3.328v-10.484h-3.078v-2.234h3.078v-4.094h2.891Z"/>
    <path class="cls-3" d="M850.686,374.204c-.438-.072-.912-.109-1.422-.109-1.896,0-3.183.808-3.859,2.422v12h-2.891v-16.906h2.812l.047,1.953c.947-1.51,2.291-2.266,4.031-2.266.562,0,.989.073,1.281.219v2.688Z"/>
    <path class="cls-3" d="M863.154,388.517c-.167-.333-.303-.927-.406-1.781-1.344,1.396-2.948,2.094-4.812,2.094-1.667,0-3.034-.471-4.102-1.414-1.068-.942-1.602-2.138-1.602-3.586,0-1.76.669-3.127,2.008-4.102,1.338-.974,3.221-1.461,5.648-1.461h2.812v-1.328c0-1.01-.303-1.814-.906-2.414-.604-.599-1.495-.898-2.672-.898-1.031,0-1.896.261-2.594.781-.698.521-1.047,1.151-1.047,1.891h-2.906c0-.844.299-1.658.898-2.445.599-.786,1.411-1.408,2.438-1.867,1.025-.458,2.153-.688,3.383-.688,1.947,0,3.474.487,4.578,1.461,1.104.975,1.677,2.315,1.719,4.023v7.781c0,1.553.197,2.787.594,3.703v.25h-3.031ZM858.357,386.314c.906,0,1.766-.234,2.578-.703s1.4-1.078,1.766-1.828v-3.469h-2.266c-3.542,0-5.312,1.037-5.312,3.109,0,.906.302,1.615.906,2.125.604.511,1.38.766,2.328.766Z"/>
    <path class="cls-3" d="M876.904,386.47c1.031,0,1.932-.312,2.703-.938.771-.625,1.197-1.406,1.281-2.344h2.734c-.053.969-.386,1.891-1,2.766-.615.875-1.436,1.573-2.461,2.094-1.026.521-2.112.781-3.258.781-2.303,0-4.133-.768-5.492-2.305-1.359-1.536-2.039-3.638-2.039-6.305v-.484c0-1.646.302-3.109.906-4.391.604-1.281,1.471-2.275,2.602-2.984,1.13-.708,2.466-1.062,4.008-1.062,1.896,0,3.471.568,4.727,1.703,1.255,1.136,1.924,2.609,2.008,4.422h-2.734c-.084-1.094-.498-1.992-1.242-2.695-.745-.703-1.664-1.055-2.758-1.055-1.469,0-2.607.529-3.414,1.586-.808,1.058-1.211,2.586-1.211,4.586v.547c0,1.948.4,3.448,1.203,4.5.802,1.053,1.947,1.578,3.438,1.578Z"/>
    <path class="cls-3" d="M890.795,367.517v4.094h3.156v2.234h-3.156v10.498c0,.678.141,1.186.422,1.525.281.338.76.508,1.438.508.333,0,.791-.062,1.375-.188v2.33c-.761.207-1.5.311-2.219.311-1.292,0-2.266-.391-2.922-1.172s-.984-1.891-.984-3.328v-10.484h-3.078v-2.234h3.078v-4.094h2.891Z"/>
  </g>
  <g>
    <g>
      <circle class="cls-2" cx="970.126" cy="235.353" r="63.173"/>
      <g>
        <path class="cls-1" d="M875.515,176.456c-33.106,52.252-17.584,121.449,34.668,154.554s121.448,17.584,154.554-34.668,17.584-121.448-34.668-154.554c-48.152-30.508-110.693-19.721-146.12,23.051"/>
        <polygon class="cls-3" points="877.799 156.644 875.515 176.456 893.815 168.53 877.799 156.644"/>
      </g>
    </g>
    <circle class="cls-3" cx="969.931" cy="236.105" r="11.581"/>
  </g>
  <g>
    <polygon class="cls-5" points="822.2 250.279 811.385 250.279 810.892 250.279 810.048 250.279 750.089 250.279 750.089 224.279 810.048 224.279 810.892 224.279 811.385 224.279 822.2 224.279 822.2 250.279"/>
    <polygon class="cls-5" points="845.521 237.279 811.844 267.279 811.844 207.279 845.521 237.279"/>
  </g>
  <g>
    <polygon class="cls-5" points="870.295 224.279 881.111 224.279 881.604 224.279 882.448 224.279 942.407 224.279 942.407 250.279 882.448 250.279 881.604 250.279 881.111 250.279 870.295 250.279 870.295 224.279"/>
    <polygon class="cls-5" points="846.975 237.279 880.652 207.279 880.652 267.279 846.975 237.279"/>
  </g>
</svg>