<?xml version="1.0" encoding="UTF-8"?><svg id="a" xmlns="http://www.w3.org/2000/svg" width="570" height="321" xmlns:xlink="http://www.w3.org/1999/xlink" viewBox="0 0 570 321"><defs><style>.c{fill:none;}.d{fill:#f9bbb7;}.e{fill:#0079a5;}.f{fill:#ed9c74;}.g{fill:#e3f6fc;}.h{fill:#fff;}.i{fill:#fcfbfa;}.j{fill:#7f3e28;}.k{fill:#9ec9ef;}.l{fill:#64a0e2;}.m{fill:#aa5353;}.n{fill:#204359;}.o{fill:#2f4456;}.p{clip-path:url(#b);}</style><clipPath id="b"><path class="c" d="m9.726,184.239C-18.488,119.478,33.211-10.448,153.849,13.189c267.676,52.447,337.69-66.06,401.25,52.323,33.51,62.412-28.88,194.886-165.441,232.558-107.016,29.522-315.228,34.687-379.932-113.83Z"/></clipPath></defs><path class="g" d="m9.726,184.239C-18.488,119.478,33.211-10.448,153.849,13.189c267.676,52.447,337.69-66.06,401.25,52.323,33.51,62.412-28.88,194.886-165.441,232.558-107.016,29.522-315.228,34.687-379.932-113.83Z"/><path class="c" d="m9.726,184.239C-18.488,119.478,33.211-10.448,153.849,13.189c267.676,52.447,337.69-66.06,401.25,52.323,33.51,62.412-28.88,194.886-165.441,232.558-107.016,29.522-315.228,34.687-379.932-113.83Z"/><g class="p"><polygon class="k" points="432.705 131.626 392.199 167.505 410.872 213.988 356.889 217.635 333.182 267.351 288.886 239.975 235.987 266.748 224.318 221.037 164.765 212.46 189.721 168.179 152.843 129.89 207.488 106.585 205.798 57.672 262.85 67.229 298.853 29.599 331.625 67.932 388.466 58.806 382.579 105.589 432.705 131.626"/><polygon class="i" points="397.875 141.195 371.045 166.451 381.532 200.161 343.26 204.845 328.024 249.261 290.813 221.607 244.303 245.912 240.002 207.681 197.316 199.067 212.806 169.327 188.392 139.951 223.853 123 224.21 74.285 262.542 88.238 300.396 47.494 322.421 92.773 364.295 74.382 365.91 125.269 397.875 141.195"/><polygon class="l" points="287.897 96.425 278.666 124.978 290.68 121.83 284.241 157.431 306.883 111.929 297.164 113.868 305.189 91.097 287.897 96.425"/><polygon class="l" points="287.919 207.746 287.938 200.041 285.247 201.752 284.031 192.543 282.062 205.443 284.286 204.207 284.109 210.404 287.919 207.746"/><polygon class="l" points="283.885 115.812 271.474 116.29 287.977 148.486 286.559 149.058 253.094 111.523 262.957 110.555 248.663 91.097 283.885 115.812"/><polygon class="l" points="282.861 94.607 279.749 91.162 274.471 103.612 276.711 84.748 279.353 87.345 281.507 78.582 282.861 94.607"/><polygon class="l" points="314.084 98.351 315.416 102.798 325.527 93.818 315.407 109.895 314.136 106.416 308.428 113.406 314.084 98.351"/><polygon class="l" points="292.22 196.315 283.106 187.877 272.01 222.312 273.481 171.51 281.139 177.8 283.705 153.216 286.885 153.176 292.22 196.315"/><polygon class="l" points="313.034 136.952 310.819 128.11 287.66 147.182 311.472 114.189 313.654 121.127 335.835 97.565 313.034 136.952"/><polygon class="l" points="263.383 193.943 261.703 185.319 241.066 202.028 262.355 171.398 264.538 178.337 287.048 152.279 263.383 193.943"/><path class="f" d="m67.69,157.39c9.055-4.755,68.881-39.824,80.928-40.22,14.668-.482,134.863,18.333,136.847,27.865,1.265,6.075.455,13.344-4.46,14.495-14.746,3.451-58.575-8.8-62.313-.569-2.009,4.424,23.055,9.072,23.282,20.505.365,18.356-10.799,22.517-10.799,22.517l-15.571,31.762s-30.82,16.352-45.796,7.202c-14.086-8.606-68.42-23.911-72.872-31.527l-29.247-52.029Z"/><path class="j" d="m207.168,190.566c2.447-.261,4.504.773,6.58,1.567,4.149,1.651,8.14,3.633,12.032,5.806,1.939,1.086,3.945,2.057,5.466,3.915.055.068.046.168-.022.223-2.39-.075-4.402-1.326-6.423-2.23-2.985-1.4-8.965-4.274-11.922-5.731-1.984-.977-4.018-1.669-5.798-3.269-.104-.085-.049-.27.087-.28h0Z"/><path class="j" d="m195.021,218.765c2.084-.386,3.828.32,5.649.779,1.814.48,3.617.996,5.408,1.554,1.79.558,3.563,1.17,5.331,1.801,1.766.634,3.577,1.125,5.096,2.556.098.087.044.265-.087.28-2.062.316-3.832-.308-5.646-.789-1.813-.484-3.62-.987-5.411-1.544-1.79-.558-3.567-1.157-5.334-1.791-1.76-.656-3.596-1.065-5.093-2.565-.093-.089-.041-.261.087-.28h0Z"/><path class="f" d="m110.731,133.679l15.617-20.834s10.045-13.278,16.078-22.213c6.033-8.935,9.923-26.255,17.264-20.43,7.341,5.824,13.298,9.846,9.199,28.76-4.099,18.913-34.473,65.181-34.473,65.181l-23.685-30.463Z"/><path class="j" d="m154.469,124.884c.228-.894.685-1.321,1.282-1.918,0,0,1.411-1.672,1.411-1.672.476-.572.98-1.134,1.484-1.708.508-.577.868-1.234,2.049-1.406.111-.02.219.047.251.152.359,1.159-.156,1.801-.555,2.5-1.034,1.8-2.433,3.458-4.304,4.46-.505.178-1.055.182-1.536-.126-.096-.063-.123-.181-.083-.282h0Z"/><path class="h" d="m80.453,138.073l15.117-.091-2.788,97.859s-47.959-1.469-49.969-4.701,4.349-92.536,4.349-92.536l33.292-.532Z"/><path class="e" d="m-1.226,234.908s-1.244-96.816,1.551-97.866,14.418.172,14.418.172l67.807.073-4.783,106.255L-1.226,234.908"/><ellipse class="o" cx="48.225" cy="201.479" rx="7.839" ry="7.092" transform="translate(-67.711 29.786) rotate(-20.569)"/><path class="n" d="m-2.095,217.547c6.314-.607,12.56-.074,18.821.198,6.26.289,12.516.654,18.772,1.009,6.253.403,12.507.8,18.757,1.265,6.25.458,12.509.766,18.709,2.055.08.017.132.095.115.175-6.199.857-12.693.107-18.953-.09-6.26-.29-12.517-.647-18.773-.999-6.254-.4-12.508-.789-18.758-1.255-6.249-.482-12.513-.704-18.709-2.066-.156-.027-.148-.285.018-.293h0Z"/><path class="d" d="m625.557,119.118s-165.623,5.875-177.506,7.491c-11.884,1.616-31.482,46.642-13.598,66.904,17.884,20.262,312.24,71.019,333.512,60.562,21.272-10.457,25.221-92.691-19.199-107.833-44.42-15.142-123.209-27.124-123.209-27.124Z"/><path class="d" d="m509.731,151.289s-29.28-30.577-60.525-36.628c-39.704-7.689-79.765,13.426-88.592,16.673-8.828,3.247-12.397,46.174,7.225,60.135,19.622,13.961,121.105,13.786,125.191,8.754,4.086-5.033,16.702-48.934,16.702-48.934Z"/><path class="d" d="m407.069,114.184c-3.807,1.679-43.748,11.541-53.677,13.335-9.929,1.795-54.531,11.699-59.248,14.177-7.67,4.029-10.717,18.618-5.369,20.46,13.542,4.662,50.637-6.179,50.637-6.179,0,0-48.824,13.779-49.326,19.816-.502,6.037-1.387,9.335,4.4,13.244,5.788,3.909,2.852,17.157,13.165,18.101,10.313.944,62.611-11.55,62.611-11.55,0,0-31.479,10.252-35.349,12.093-9.387,4.465-6.782,13.972,11.535,12.837,26.42-1.637,109.85-22.079,110.073-24.762.223-2.683,11.045-15.209,8.625-22.865-2.42-7.656-12.503-18.716-17.739-21.899-5.237-3.183-40.339-36.808-40.339-36.808Z"/><path class="m" d="m299.676,192.08c13.87-6.227,28.565-10.086,42.989-14.745,10.909-3.211,21.839-6.423,32.978-8.791,3.756-.659,7.579-1.457,11.418-.924.159.025.159.285-.014.292-7.425,1.1-14.647,3.498-21.932,5.336-12.647,3.536-30.714,9.139-43.463,13.001-7.242,2.193-14.39,4.666-21.883,6.111-.158.039-.249-.212-.093-.279h0Z"/><path class="m" d="m335.797,156.458c3.862-1.992,8.059-2.664,12.162-3.595,4.117-.907,8.252-1.701,12.383-2.506,8.305-1.381,16.54-3.335,24.953-3.892.149-.016.219.212.076.277-3.904,1.999-8.089,2.606-12.201,3.513-4.12.875-8.253,1.666-12.382,2.472l-12.41,2.26c-4.147.726-8.21,1.686-12.508,1.755-.15.011-.219-.216-.075-.284h0Z"/><path class="m" d="m385.807,127.841c.395.203.545.594.664.917.327.978.376,2.011.443,3.015.146,3.917-.322,7.808-.409,11.699-.537,16.668,1.739,29.861,12.181,43.316.1.121-.077.311-.206.21-8.738-6.33-12.347-17.576-13.771-27.837-1.185-9.806-.336-19.653,1.077-29.355.042-.604.146-1.307-.126-1.713l-.033-.05c-.084-.109.06-.276.182-.204h0Z"/><path class="d" d="m494.993,140.25s-31.657-35.177-50.042-42.155c-18.385-6.978-48.958-5.376-57.002-8.429-8.043-3.053-19.123,15.578,1.155,24.701,20.278,9.123,44.879,12.751,50.963,17.915,6.084,5.163,54.925,7.967,54.925,7.967Z"/><path class="m" d="m396.679,117.496c2.595-.204,4.827.298,7.238.309,4.294.175,8.558-.712,12.839-.933,2.72.208,4.711,2.287,6.663,3.735.427.279.878.466,1.515.452.087-.004.161.064.165.151-.88,1.254-2.97.537-4.024-.103-1.573-.907-2.747-1.933-4.456-1.991-1.638.108-3.579.57-5.282.714-2.483.241-5.004.349-7.525.14-2.524-.211-5.177-.5-7.221-2.193-.105-.086-.05-.274.09-.279h0Z"/><path class="m" d="m370.225,195.445c2.137-1.592,4.56-2.101,6.918-2.869,2.36-.754,4.738-1.445,7.11-2.155,4.797-1.12,9.556-3.241,14.551-3.224.138.005.203.2.086.281-4.127,2.8-9.326,3.648-13.966,5.259-2.391.667-4.782,1.337-7.196,1.922-2.417.57-4.773,1.383-7.427,1.068-.136-.013-.191-.205-.075-.284h0Z"/></g></svg>