<?xml version="1.0" encoding="UTF-8"?><svg id="a" xmlns="http://www.w3.org/2000/svg" width="1140" height="700" xmlns:xlink="http://www.w3.org/1999/xlink" viewBox="0 0 1140 700"><defs><clipPath id="b"><path d="m734.569,11.383c96.734,10.963,193.231,39.965,266.97,96.383,74.871,57.284,122.123,141.114,132.309,228.178,12.955,110.733-30.873,256.831-150.477,311.652-78.973,36.198-172.691,35.375-259.313,38.774-78.232,3.07-156.585,4.206-234.676,9.69-98.907,6.946-202.471,3.961-291.185-35.313C92.282,613.857,18.938,516.007,6.093,411.919-6.752,307.83,39.275,200.312,123.096,126.327,274.012-6.88,535.786-11.146,734.569,11.383Z" fill="none"/></clipPath><clipPath id="c"><circle cx="569.448" cy="372.444" r="106.645" fill="none"/></clipPath></defs><g clip-path="url(#b)"><rect x="-245.168" y="-87.042" width="1525.642" height="898.105" fill="#273159"/><circle cx="710.186" cy="158.067" r="1.904" fill="#ded3ea"/><circle cx="519.291" cy="607.431" r="2.855" fill="#ded3ea"/><circle cx="781.666" cy="637.711" r="2.855" fill="#ded3ea"/><circle cx="1063.798" cy="271.191" r="2.855" fill="#ded3ea"/><circle cx="873.436" cy="406.348" r="1.904" fill="#ded3ea" opacity=".55"/><circle cx="991.588" cy="343.401" r="3.934" fill="#ded3ea"/><circle cx="986.701" cy="362.565" r="1.904" fill="#ded3ea" opacity=".55"/><circle cx="974.328" cy="282.613" r="1.904" fill="#ded3ea" opacity=".55"/><circle cx="1074.268" cy="378.745" r="1.904" fill="#ded3ea" opacity=".55"/><circle cx="1078.075" cy="281.661" r="1.904" fill="#ded3ea" opacity=".55"/><circle cx="1079.978" cy="239.717" r="1.904" fill="#ded3ea" opacity=".55"/><circle cx="690.198" cy="136.175" r="1.904" fill="#ded3ea" opacity=".55"/><circle cx="895.328" cy="109.384" r="1.904" fill="#ded3ea" opacity=".55"/><circle cx="622.227" cy="594.224" r="1.904" fill="#ded3ea" opacity=".55"/><circle cx="659.93" cy="632.721" r="1.904" fill="#ded3ea" opacity=".55"/><circle cx="699.729" cy="578.446" r="1.904" fill="#ded3ea" opacity=".55"/><circle cx="1084.773" cy="567.21" r="1.904" fill="#ded3ea" opacity=".55"/><circle cx="998.587" cy="551.581" r="1.904" fill="#ded3ea" opacity=".55"/><circle cx="962.039" cy="457.66" r="2.94" fill="#ded3ea" opacity=".71"/><circle cx="661.667" cy="613.279" r="2.94" fill="#ded3ea" opacity=".71"/><circle cx="978.689" cy="585.545" r="2.94" fill="#ded3ea" opacity=".71"/><circle cx="681.717" cy="137.994" r="2.94" fill="#ded3ea" opacity=".71"/><circle cx="965.011" cy="565.5" r="2.94" fill="#ded3ea" opacity=".71"/><circle cx="721.762" cy="94.6" r="2.94" fill="#ded3ea" opacity=".71"/><circle cx="967.332" cy="93.499" r="1.904" fill="#ded3ea"/><circle cx="996.925" cy="91.748" r="1.904" fill="#ded3ea" opacity=".55"/><circle cx="1000.85" cy="84.013" r="2.94" fill="#ded3ea" opacity=".71"/><circle cx="872.175" cy="147.588" r="2.94" fill="#ded3ea" opacity=".71"/><circle cx="824.979" cy="428.154" r="2.94" fill="#ded3ea" opacity=".71"/><circle cx="839.256" cy="438.624" r="2.94" fill="#ded3ea" opacity=".71"/><circle cx="34.819" cy="225.353" r="1.837" fill="#ded3ea"/><circle cx="276.408" cy="97.183" r="2.756" fill="#ded3ea"/><circle cx="186.393" cy="518.101" r="2.756" fill="#ded3ea"/><circle cx="185.475" cy="22.784" r="1.837" fill="#ded3ea" opacity=".55"/><circle cx="406.837" cy="133.924" r="1.837" fill="#ded3ea" opacity=".55"/><circle cx="329.681" cy="145.864" r="1.837" fill="#ded3ea" opacity=".55"/><circle cx="458.733" cy="415.448" r="1.837" fill="#ded3ea" opacity=".55"/><circle cx="422.451" cy="49.421" r="1.837" fill="#ded3ea" opacity=".55"/><circle cx="111.994" cy="42.072" r="1.837" fill="#ded3ea" opacity=".55"/><circle cx="196.497" cy="504.323" r="1.837" fill="#ded3ea" opacity=".55"/><circle cx="165.268" cy="445.3" r="1.837" fill="#ded3ea" opacity=".55"/><circle cx="131.49" cy="194.772" r="1.837" fill="#ded3ea" opacity=".55"/><circle cx="162.719" cy="218.427" r="1.837" fill="#ded3ea" opacity=".55"/><circle cx="157.919" cy="391.108" r="1.837" fill="#ded3ea" opacity=".55"/><circle cx="78.009" cy="400.293" r="1.837" fill="#ded3ea" opacity=".55"/><circle cx="26.572" cy="355.286" r="1.837" fill="#ded3ea" opacity=".55"/><circle cx="81.683" cy="476.529" r="1.837" fill="#ded3ea" opacity=".55"/><circle cx="220.378" cy="121.983" r="1.837" fill="#ded3ea" opacity=".55"/><circle cx="99.93" cy="70.424" r="3.797" fill="#ded3ea"/><circle cx="41.268" cy="87.08" r="1.837" fill="#ded3ea" opacity=".55"/><circle cx="202.845" cy="42.909" r="2.837" fill="#ded3ea"/><circle cx="329.228" cy="413.031" r="2.837" fill="#ded3ea" opacity=".71"/><circle cx="44.86" cy="359.796" r="2.837" fill="#ded3ea" opacity=".71"/><circle cx="133.245" cy="202.957" r="2.837" fill="#ded3ea" opacity=".71"/><circle cx="296.509" cy="482.653" r="1.837" fill="#ded3ea" opacity=".55"/><circle cx="312.634" cy="529.387" r="1.837" fill="#ded3ea" opacity=".55"/><circle cx="343.842" cy="507.731" r="2.837" fill="#ded3ea" opacity=".71"/><circle cx="347.679" cy="530.833" r="2.837" fill="#ded3ea" opacity=".71"/><circle cx="56.801" cy="111.798" r="2.837" fill="#ded3ea" opacity=".71"/><circle cx="447.169" cy="437.87" r="2.837" fill="#ded3ea" opacity=".71"/><circle cx="559.965" cy="520.888" r="1.904" fill="#ded3ea"/><circle cx="586.69" cy="27.082" r="3.934" fill="#ded3ea"/><circle cx="1047.281" cy="550.763" r="2.855" fill="#ded3ea"/><circle cx="988.204" cy="293.339" r="2.855" fill="#ded3ea"/><circle cx="466.273" cy="34.536" r="2.855" fill="#ded3ea"/><circle cx="548.509" cy="149.8" r="2.855" fill="#ded3ea"/><circle cx="606.385" cy="25.289" r="1.904" fill="#ded3ea" opacity=".55"/><circle cx="535.155" cy="63.651" r="1.904" fill="#ded3ea" opacity=".55"/><circle cx="739.477" cy="284.098" r="1.904" fill="#ded3ea" opacity=".55"/><circle cx="640.688" cy="193.75" r="3.934" fill="#ded3ea"/><circle cx="660.383" cy="191.957" r="1.904" fill="#ded3ea" opacity=".55"/><circle cx="589.153" cy="230.319" r="1.904" fill="#ded3ea" opacity=".55"/><circle cx="646.393" cy="104.014" r="1.904" fill="#ded3ea" opacity=".55"/><circle cx="286.609" cy="37.601" r="1.904" fill="#ded3ea" opacity=".55"/><circle cx="553.61" cy="132.846" r="1.904" fill="#ded3ea" opacity=".55"/><circle cx="513.438" cy="145.058" r="1.904" fill="#ded3ea" opacity=".55"/><circle cx="546.005" cy="547.039" r="1.904" fill="#ded3ea" opacity=".55"/><circle cx="452.25" cy="362.633" r="1.904" fill="#ded3ea" opacity=".55"/><circle cx="1000.457" cy="458.147" r="1.904" fill="#ded3ea" opacity=".55"/><circle cx="1024.153" cy="409.753" r="1.904" fill="#ded3ea" opacity=".55"/><circle cx="959.704" cy="390.363" r="1.904" fill="#ded3ea" opacity=".55"/><circle cx="820.53" cy="31.175" r="1.904" fill="#ded3ea" opacity=".55"/><circle cx="834.58" cy="117.633" r="1.904" fill="#ded3ea" opacity=".55"/><circle cx="420.128" cy="78.149" r="1.904" fill="#ded3ea" opacity=".55"/><circle cx="375.638" cy="6.98" r="2.94" fill="#ded3ea"/><circle cx="758.255" cy="183.446" r="2.94" fill="#ded3ea" opacity=".71"/><circle cx="1005.247" cy="414.607" r="2.94" fill="#ded3ea" opacity=".71"/><circle cx="873.239" cy="125.047" r="2.94" fill="#ded3ea" opacity=".71"/><circle cx="550.552" cy="554.427" r="2.94" fill="#ded3ea" opacity=".71"/><circle cx="858.912" cy="144.633" r="2.94" fill="#ded3ea" opacity=".71"/><circle cx="496.276" cy="531.171" r="2.94" fill="#ded3ea" opacity=".71"/><circle cx="413.231" cy="300.066" r="1.904" fill="#ded3ea"/><circle cx="401.699" cy="272.757" r="1.904" fill="#ded3ea" opacity=".55"/><circle cx="393.097" cy="271.64" r="2.94" fill="#ded3ea" opacity=".71"/><circle cx="495.993" cy="371.699" r="2.94" fill="#ded3ea" opacity=".71"/><circle cx="776.214" cy="322.492" r="2.94" fill="#ded3ea" opacity=".71"/><circle cx="781.315" cy="305.538" r="2.94" fill="#ded3ea" opacity=".71"/><circle cx="822.93" cy="660.907" r="2.756" fill="#ded3ea"/><circle cx="135.729" cy="163.72" r="2.756" fill="#ded3ea"/><circle cx="95.967" cy="274.278" r="1.837" fill="#ded3ea" opacity=".55"/><circle cx="126.805" cy="28.51" r="1.837" fill="#ded3ea" opacity=".55"/><circle cx="163.825" cy="97.248" r="1.837" fill="#ded3ea" opacity=".55"/><circle cx="163.274" cy="494.602" r="1.837" fill="#ded3ea" opacity=".55"/><circle cx="41.938" cy="42.01" r="1.837" fill="#ded3ea" opacity=".55"/><circle cx="752.156" cy="635.796" r="1.837" fill="#ded3ea" opacity=".55"/><circle cx="734.934" cy="677.953" r="1.837" fill="#ded3ea" opacity=".55"/><circle cx="177.816" cy="208.251" r="1.837" fill="#ded3ea" opacity=".55"/><circle cx="109.136" cy="251.185" r="2.837" fill="#ded3ea"/><circle cx="204.242" cy="617.48" r="2.837" fill="#ded3ea" opacity=".71"/><circle cx="750.3" cy="617.052" r="2.837" fill="#ded3ea" opacity=".71"/><circle cx="705.611" cy="697.198" r="2.837" fill="#ded3ea" opacity=".71"/><circle cx="280.794" cy="625.07" r="1.837" fill="#ded3ea" opacity=".55"/><circle cx="319.461" cy="594.265" r="1.837" fill="#ded3ea" opacity=".55"/><circle cx="288.626" cy="572.08" r="2.837" fill="#ded3ea" opacity=".71"/><circle cx="309.12" cy="560.749" r="2.837" fill="#ded3ea" opacity=".71"/><circle cx="188.27" cy="498.014" r="2.837" fill="#ded3ea" opacity=".71"/></g><line x1="623.382" y1="46.347" x2="564.266" y2="646.6" fill="none"/><ellipse cx="640.144" cy="339.824" rx="69.158" ry="43.348" transform="translate(-68.969 190.081) rotate(-16.038)" fill="none" stroke="#f7c756" stroke-miterlimit="10" stroke-width="2"/><polygon points="714.923 320.757 703.438 309.682 699.588 325.165 714.923 320.757" fill="#f7c756"/><ellipse cx="667.746" cy="331.889" rx="97.215" ry="76.624" transform="translate(-65.703 197.398) rotate(-16.038)" fill="none" stroke="#f7c756" stroke-miterlimit="10" stroke-width="2"/><polygon points="769.49 305.071 758.005 293.996 754.155 309.479 769.49 305.071" fill="#f7c756"/><ellipse cx="698.577" cy="323.026" rx="131.281" ry="117.228" transform="translate(-62.054 205.572) rotate(-16.038)" fill="none" stroke="#f7c756" stroke-miterlimit="10" stroke-width="2"/><polygon points="833.061 286.796 821.576 275.722 817.726 291.205 833.061 286.796" fill="#f7c756"/><ellipse cx="729.552" cy="313.09" rx="163.795" ry="172.729" transform="translate(-58.104 213.742) rotate(-16.038)" fill="none" stroke="#f7c756" stroke-miterlimit="10" stroke-width="2"/><polygon points="895.284 267.877 883.8 256.802 879.949 272.285 895.284 267.877" fill="#f7c756"/><ellipse cx="783.468" cy="291.049" rx="221.702" ry="242.549" transform="translate(-49.916 227.78) rotate(-16.038)" fill="none" stroke="#f7c756" stroke-miterlimit="10" stroke-width="2"/><polygon points="1004.854 229.838 993.37 218.763 989.519 234.246 1004.854 229.838" fill="#f7c756"/><polygon points="678.544 360.123 694.359 358.017 688.277 372.766 678.544 360.123" fill="#f7c756"/><polygon points="668.845 303.767 656.437 293.738 671.326 288.005 668.845 303.767" fill="#f7c756"/><polygon points="640.944 267.893 624.994 267.506 633.302 253.885 640.944 267.893" fill="#f7c756"/><polygon points="628.384 237.405 612.439 237.954 619.934 223.87 628.384 237.405" fill="#f7c756"/><polygon points="609.916 203.005 595.189 209.143 597.235 193.32 609.916 203.005" fill="#f7c756"/><polygon points="590.303 177.363 577.068 186.272 575.968 170.355 590.303 177.363" fill="#f7c756"/><polygon points="701.541 391.776 717.412 393.402 708.07 406.335 701.541 391.776" fill="#f7c756"/><polygon points="709.857 432.996 724.917 438.263 712.827 448.673 709.857 432.996" fill="#f7c756"/><polygon points="720.544 476.703 733.773 485.622 719.435 492.621 720.544 476.703" fill="#f7c756"/><polygon points="724.771 511.521 734.808 523.923 719.049 526.417 724.771 511.521" fill="#f7c756"/><ellipse cx="499.856" cy="373.116" rx="69.158" ry="43.348" transform="translate(-83.627 152.619) rotate(-16.038)" fill="none" stroke="#f7c756" stroke-miterlimit="10" stroke-width="2"/><polygon points="426.367 396.67 430.217 381.188 441.702 392.262 426.367 396.67" fill="#f7c756"/><ellipse cx="472.254" cy="381.051" rx="97.215" ry="76.624" transform="translate(-86.894 145.302) rotate(-16.038)" fill="none" stroke="#f7c756" stroke-miterlimit="10" stroke-width="2"/><polygon points="371.8 412.356 375.65 396.874 387.135 407.948 371.8 412.356" fill="#f7c756"/><ellipse cx="441.423" cy="389.914" rx="131.281" ry="117.228" transform="translate(-90.542 137.13) rotate(-16.038)" fill="none" stroke="#f7c756" stroke-miterlimit="10" stroke-width="2"/><polygon points="308.229 430.631 312.079 415.148 323.564 426.222 308.229 430.631" fill="#f7c756"/><ellipse cx="410.448" cy="399.85" rx="163.795" ry="172.729" transform="translate(-94.493 128.958) rotate(-16.038)" fill="none" stroke="#f7c756" stroke-miterlimit="10" stroke-width="2"/><polygon points="246.005 449.55 249.856 434.068 261.341 445.142 246.005 449.55" fill="#f7c756"/><ellipse cx="356.532" cy="421.891" rx="221.702" ry="242.549" transform="translate(-102.681 114.921) rotate(-16.038)" fill="none" stroke="#f7c756" stroke-miterlimit="10" stroke-width="2"/><polygon points="136.435 487.589 140.286 472.106 151.771 483.181 136.435 487.589" fill="#f7c756"/><polygon points="448.984 363.77 438.34 351.886 453.953 348.607 448.984 363.77" fill="#f7c756"/><polygon points="447.207 410.61 463.011 408.422 457.006 423.203 447.207 410.61" fill="#f7c756"/><polygon points="460.508 451.931 458.33 467.736 445.73 457.949 460.508 451.931" fill="#f7c756"/><polygon points="443.579 507.973 456.971 499.301 457.787 515.235 443.579 507.973" fill="#f7c756"/><polygon points="456.453 567.507 466.226 554.896 472.263 569.664 456.453 567.507" fill="#f7c756"/><polygon points="474.188 633.46 481.1 619.08 490.099 632.255 474.188 633.46" fill="#f7c756"/><polygon points="447.994 315.91 444.582 300.325 459.786 305.161 447.994 315.91" fill="#f7c756"/><polygon points="446.586 271.773 433.98 281.552 431.812 265.746 446.586 271.773" fill="#f7c756"/><polygon points="426.021 236.329 429.495 220.757 441.245 231.55 426.021 236.329" fill="#f7c756"/><polygon points="428.327 206.949 434.098 192.075 444.096 204.508 428.327 206.949" fill="#f7c756"/><g clip-path="url(#c)"><circle cx="569.448" cy="372.444" r="106.645" fill="#2faacc"/><path d="m503.862,313.132s-14.937,24.611-14.405,29.752c.532,5.141,6.055,13.418,7.087,17.783,1.032,4.364,11.518,10.72,9.986,7.133-1.532-3.588-7.097-6.88-6.686-10.927.411-4.047-.031-5.917-.031-5.917,0,0,.974,7.011,4.006,8.269,3.033,1.258,6.655,5.01,6.597,7.657-.058,2.647.532,5.141,4.859,6.092,4.328.952,15.837-2.428,18.074-1.64,2.238.788,4.27,3.599,4.27,3.599,0,0,5.828-1.378,7.566.186,1.737,1.564,4.122,2.975,9.54,5.644,5.418,2.669,10.746,2.068,10.746,2.068,0,0,4.886-2.472-2.18-3.435-7.065-.963-8.95-3.15-8.95-3.15,0,0,2.706-5.906.822-8.094-1.885-2.188-11.246-1.291-11.246-1.291,0,0,1.469-8.247-.121-9.188-1.59-.941-6.181,2.778-7.329,3.708-1.148.93-.558,3.423-4.444,4.342-3.886.919-6.123.131-6.123.131,0,0-3.18-1.881-2.416-7.328.764-5.447-2.506-10.599,7.061-13.519,9.566-2.92,13.568-9.132,16.395-5.851,2.827,3.281,6.333,12.327,10.071,10.785,3.738-1.542.853-2.177-.826-6.388-1.679-4.211-1.916-8.105-1.916-8.105,0,0,5.239-3.872,8.034-6.508,2.796-2.636,1.116-6.847,7.003-10.872,5.886-4.025,8.034-6.508,8.15-11.801.116-5.294-6.039-11.08-6.039-11.08,0,0-9.214,1.52-11.746-.515-2.532-2.035-19.16-2.011-21.751-1.398-2.59.612-32.205,16.129-34.058,19.859Z" fill="#85cc85"/><path d="m590.188,427.425c-3.385.142-23.85-14.111-26.324-18.792-2.474-4.681-2.153-11.999-.036-20.399,2.117-8.4,1.554-19.458,15.153-22.673,13.599-3.215,26.761,6.181,36.917,5.755,10.156-.426,10.187,5.491,14.015,7.219,3.828,1.728,24.287,1.499,23.966,8.817-.321,7.317-2.644,17.741-2.644,17.741,0,0-2.085,14.317-9.62,20.048-7.534,5.731-20.597,28.569-32.28,39.889-4.176,14.153-13.094,16.92-13.094,16.92,0,0-2.09-.164-1.827-4.835.263-4.67,1.29-14.788,1.701-18.835.411-4.047-5.628-15.127-2.627-19.786,3.001-4.659,3.059-7.306,1.322-8.87-1.737-1.564-4.623-2.199-4.623-2.199Z" fill="#85cc85"/><path d="m552.934,354.194c2.885.634,11.599-.109,13.247-1.815,1.648-1.706,5.476.022,5.476.022l1.385,2.964s8.768-2.419,7.267-.09c-1.501,2.33-8.762,6.084-11.441,3.426-2.68-2.658,2.379-2.253-3.096-2.275-5.476-.022-4.033.295-7.566-.186s-5.27-2.046-5.27-2.046Z" fill="#85cc85"/><path d="m625.484,292.499c-2.335.552,13.251,12.666,16.932,13.771,3.68,1.105,4.77,2.822,5.507,5.939s9.339,22.149,17.673,31.37c8.334,9.221,12.398,14.843,13.488,16.56,1.09,1.717,7.302,4.857,8.361.657,1.058-4.2-2.064-8.728-5.128-15.904-3.064-7.175,2.764-8.553-10.782-22.466-13.546-13.913-31.157-33.449-46.051-29.927Z" fill="#85cc85"/><ellipse cx="579.115" cy="273.59" rx="7.715" ry="3.156" transform="translate(-39.307 440.266) rotate(-40.371)" fill="#d4f4fc"/><circle cx="569.448" cy="372.444" r="106.645" fill="none"/><path d="m552.17,301.849s6.366-10.672,6.643-11.849c.277-1.177-2.803-1.282-5.793-3.353-2.99-2.071-1.473-2.707.335-5.635,1.808-2.928,7.117-2.794,8.481-1.727,1.363,1.067,1.756-1.971,6.716-2.143,4.133-.144,1.813,1.794,5.018,2.425,3.205.631,2.622,5.214,8.333,4.697,4.854-.439.933,3.946.933,3.946,0,0-9.686,3.679-10.413,4.129-.727.45-1.062,6.085-2.717,7.309-1.655,1.225-17.536,2.201-17.536,2.201Z" fill="#85cc85"/><path d="m569.616,298.419c.179-1.066-5.461-5.028.05-5.2,5.511-.172,2.845-.619,7.644.186,4.799.805,6.134-.616,6.043,1.562-.091,2.178,1.771,5.779-3.428,5.729-5.2-.05-6.044.082-7.599-.453-1.555-.535-2.709-1.825-2.709-1.825Z" fill="#85cc85"/><path d="m525.33,303.472s15.57-4.094,15.536-4.784c-.103-2.082-14.946-5.63-13.136-8.561,2.411-3.903,1.282-2.803,4.654-4.989s3.449-3.038,6.945-4.698c3.497-1.66,4.224-2.11,4.951-2.559.727-.45-5.683-1.712-2.789-2.396s6.979-2.206,4.764-3.349c-2.215-1.143-8.376-1.353-10.619-.267-2.243,1.086-5.027,3.411-8.337,5.86-3.31,2.449-6.696,5.75-8.878,7.099-2.181,1.349-4.238,3.224-4.238,3.224l-7.233-3.568s-6.711,6.865-8.567,8.414c-1.856,1.55-10.824,10.615-10.824,10.615,0,0,4.257.382,6.687.086,2.43-.297,5.329,3.74,5.329,3.74,0,0-1.296,3.918-1.215,7.787.082,3.87-2.482,9.476.182,11.346,2.664,1.87,20.956-3.01,25.921-6.684,4.965-3.674,7.098-6.401,6.29-9.821-.809-3.42-3.397-6.142-3.397-6.142" fill="#85cc85"/><path d="m517.461,283.109s-4.071.407-3.176-2.86c.894-3.267.445-3.994,4.128-4.865s9.437-4.731,10.227-4.918-.928.775,2.028.354c2.956-.421,8.973-4.344,4.008-.67-4.965,3.674-3.913,3.425-8.878,7.099-4.965,3.674-8.337,5.86-8.337,5.86Z" fill="#85cc85"/><path d="m548.604,267.968l2.631-.622,1.052-.249c1.052-.249,5.821.832,5.821.832,0,0-5.414,3.239-.167,3.11,5.247-.129,5.788-1.368,6.099-.053s-2.875,4.291-4.917,5.052c-2.042.761-.894,3.267-3.946.933-3.052-2.334-.837-1.191-3.564-3.324-2.727-2.133-1.024-1.98-4.291-2.875-3.267-.894-3.253-2.009-.034-2.492,3.219-.483,1.315-.311,1.315-.311Z" fill="#85cc85"/><path d="m559.993,264.442c1.378-.048,4.181,1.234,8.749,2.932,4.568,1.698,7.032,3.893,8.056,5.874,1.024,1.98-2.396,2.789,2.65,2.985,5.046.196,3.717,1.621,6.687.086s5.046.196,4.563-3.023c-.483-3.219,1.42-3.391-.455-5.448-1.875-2.057-1.584-4.348-6.692-4.807-5.109-.459-15.402-.525-18.296.159s-5.262,1.244-5.262,1.244Z" fill="#e3fce3"/><path d="m583.319,291.429s2.411-3.903,5.089-3.148c2.679.756,6.319,3.228,4.277,3.989-2.042.761-6.19,2.019-8.079,1.077-1.889-.942-1.287-1.918-1.287-1.918Z" fill="#85cc85"/><path d="m584.239,247.379c-.047,1.279-24.766,1.935-33.785,12.56-9.019,10.625-22.913,15.87-20.036,24.989,2.877,9.119,21.987,4.601,26.716.217,4.729-4.384,3.169-7.935-2.974-6.483-6.143,1.452-5.022-5.999,3.949-10.733,8.97-4.734,29.592-8.956,35.832-13.044,6.24-4.088,7.459-14.176.682-18.453-6.777-4.277-41.244-9.847-53.53-6.943-12.285,2.905-66.838,9.923-77.417,26.142-10.579,16.22-4.338,21.277,5.461,17.001,9.799-4.277,10.823-9.092,8.775-8.607s2.681-3.9,6.923-4.25c4.241-.349,7.849,2.717,1.999,5.407-5.85,2.69-9.896,6.913-10.384,10.948-.487,4.035-20.67,10.113-19.354,15.681s12.285-2.905,18.818-5.756c6.533-2.851,7.995-5.81,15.161-12.077s4.777-10.275,16.38-13.019c11.603-2.743,16.965-10.544,31.006-15.17,14.04-4.626,25.726-7.189,21.443-2.357-4.283,4.832-25.392,3.944-27.732,12.336-2.34,8.393,12.432-2.286,18.428-4.357,5.996-2.071,11.725-4.785,19.098-5.848,7.374-1.064,14.638-.821,14.54,1.815Z" fill="#d4f4fc"/><path d="m597.699,399.308s-12.608,1.539-19.719-1.103c-7.111-2.643-11.653-6.614-25.986-3.225-14.333,3.389-27.748,1.516-20.513,7.732,7.235,6.217,16.343-.981,20.526,4.516,4.182,5.497-29.298,16.295,3.066,12.968,32.364-3.328,45.655-5.028,48.819-12.983,3.164-7.955-2.544-8.127-6.193-7.905Z" fill="#d4f4fc"/><path d="m573.309,458.975s13.563-9.693,21.108-14.359c7.545-4.666,7.854-15.55,8.934-20.129,1.079-4.579,5.373-7.756,7.383-5.349,2.01,2.407-3.164,7.955,1.936,8.19,5.1.236,5.683-18.64,15.076-21.581,9.394-2.942,12.645-4.431,13.775.347s-10.46,19.769-3.474,18.838c6.987-.931,16.505-.299,17.783-7.087,1.278-6.788,2.63-19.359-1.23-23.491-3.86-4.132-9.605-7.098-4.952-11.801,4.653-4.703,12.447-2.222,13.576,2.556,1.13,4.778,10.984,19.023,4.246,27.102-6.738,8.079-10.894,27.078-37.909,37.789-27.015,10.711-50.829,10.576-56.252,8.975Z" fill="#d4f4fc"/><path d="m596.662,357.965c-2.048.484-15.785-2.754-19.272,3.836-3.487,6.59,4.481,22.002,22.028,20.015,17.547-1.987,21.841-5.164,26.507,2.381,4.666,7.545,15.005,23.838,24.398,20.896,9.394-2.942-6.354-8.587-10.177-15.611-3.823-7.024-1.627-19.073-11.393-26.854-9.767-7.78-27.996-5.632-32.091-4.664Z" fill="#d4f4fc"/><path d="m699.439,291.876c-5.026-6.018-17.433-21.913-39.1-14.238-5.648,2.001-25.332,16.439-35.855,14.603-10.523-1.836-14.059.102-22.969,5.091-8.91,4.989-10.151,8.886-.794,8.836,9.357-.05,12.341,2.848,20.257,5.79,10.475,3.893,20.145,1.022,25.938-1.688,4.072-1.905,8.632-2.514,13.072-1.812,10.394,1.642,28.4,3.32,32.781-3.773,6.254-10.127,6.671-12.808,6.671-12.808Z" fill="#d4f4fc"/><path d="m451.461,379.742c.434-7.309-2.955-21.642,7.482-26.272,10.436-4.629,15.809-12.386,18.465-7.248,2.656,5.137-12.521,8.005-8.661,12.137,3.86,4.132,8.637,3.003,16.343-.981,7.706-3.984.794-8.836,11.912-13.626,11.119-4.791,9.393-.14,14.281-9.944,4.889-9.804,7.232,2.645,11.612,5.933,4.381,3.288-.635-16.355-.619-10.603.016,5.752-2.789,12.18-6.722,13.831s7.992.273,5.188,6.701-18.142,8.613-25.364,14.645c-7.222,6.031-8.823,11.455-15.883,18.169-7.061,6.714-11.899,25.875-19.656,20.502-7.756-5.373-8.378-23.243-8.378-23.243Z" fill="#d4f4fc"/><path d="m486.208,389.543c1.908-5.134,1.116-7.471,12.756-13.105,11.64-5.635,13.203-8.166,20.711-9.941,7.508-1.775,5.709,5.857,1.738,10.399-3.971,4.542-22.312,15.364-27.288,18.703-4.976,3.338-8.799-3.685-7.918-6.055Z" fill="#d4f4fc"/><path d="m579.091,290.119s15.195-4.989,18.303-12.873c3.109-7.883-1.201-9.77,4.223-13.558,5.425-3.788,10.936,7.869,6.948,12.286-3.988,4.417-7.582,16.539-18.718,18.512-11.135,1.973-11.171,1.273-10.757-4.366Z" fill="#d4f4fc"/><path d="m636.698,367.657c-3.99-6.452,4.206-9.642,11.032-11.256,6.825-1.614,7.111,2.643,12.769-.857,5.659-3.5-3.823-7.024,4.529-8.277,8.352-1.254,24.483-12.274,20.327,6.725-4.156,18.999-14.182,31.459-17.235,30.74-3.053-.72-1.18-14.134-9.333-15.09-8.153-.955-18.589,3.674-22.089-1.984Z" fill="#d4f4fc"/><path d="m498.96,332.137c.933,1.697-1.207,2.848-5.619,5.274-4.412,2.426-9.427,5.209-10.36,3.512-.933-1.697,5.339-6.707,9.751-9.133,4.412-2.426,5.294-1.349,6.227.348Z" fill="#d4f4fc"/><path d="m511.228,343.09c-.484-2.048-4.736-11.513,3.975-14.293,8.711-2.78,12.913-2.672,22.754-.674,9.841,1.997.087,6.465,5.87,6.54s24.856-1.553,20.724,2.307c-4.132,3.86-38.961,10.861-45.682,15.975-10.994,8.365-7.642-9.854-7.642-9.854Z" fill="#d4f4fc"/><path d="m617.578,273.834c-.433-.051-.865-.041-1.295.029-2.338.379-10.176,1.707-7.717,2.11,2.878.472,5.184-.351,7.71,2.108,2.526,2.459-1.081,2.478,5.066,3.802s10.653,2.759,13.733,2.864c3.08.105,8.166,7.514,6.237-.641-1.731-7.323-20.017-9.836-23.734-10.273Z" fill="#85cc85"/><path d="m462.934,434.338c4.209-.995,25.313-10.429,48.293-2.528,22.98,7.901,18.713,13.354,30.481,16.128,11.767,2.774,22.062,18.118,18.485,31.187-3.577,13.068-10.809,24.778-18.501,11.041-7.692-13.737-6.832-19.497-17.738-28.03s-25.582-9.508-35.302-8.321c-9.72,1.187-25.716-19.476-25.716-19.476Z" fill="#d4f4fc"/></g></svg>