<?xml version="1.0" encoding="UTF-8"?>
<svg id="a" data-name="Layer 1" xmlns="http://www.w3.org/2000/svg" width="1140" height="570" viewBox="0 0 1140 570">
  <path d="m200.324,10.265c-21.897-.845-43.811-1.732-65.748-2.651-28.827-1.208-59.622,2.449-81.991,18.905-17.264,12.7-27.599,31.791-32.605,51.379-17.929,70.159,7.083,142.328,7.526,212.992.329,52.47-4.017,104.858-12.623,156.742-6.228,37.545-12.265,76.701,25.769,102.56,24.618,16.737,57.917,17.24,88.736,17.043,149.55-.958,299.099-1.917,448.649-2.875,145.267-.931,292.294,3.773,437.183-2.107,7.03-.285,14.036-.776,21.001-1.704,23.789-3.169,47.448-11.418,64.317-26.888,50.105-45.95,26.648-138.007,24.817-195.426-2.482-77.807-4.963-155.613-7.445-233.42-.991-31.079-3.53-55.774-33.018-76.844-22.096-15.788-50.581-22.884-78.71-24.433-69.976-3.853-142.377,7.358-212.557,10.259-198.749,8.218-395.295,4.106-593.299-3.532Z" fill="#ebe3e3" stroke-width="0"/>
  <polyline points="970 90.024 170 90.024 170 264.424" fill="none" stroke="#000" stroke-linecap="square" stroke-linejoin="round" stroke-width="2"/>
  <polyline points="170 307.095 170 479.976 970 479.976" fill="none" stroke="#000" stroke-linejoin="round" stroke-width="2"/>
  <g>
    <path d="m484.94,298.481h-7.444l.162-.81c.665,0,1.178-.054,1.537-.162.36-.108.634-.341.823-.702.188-.36.354-.918.499-1.674l2.373-11.583c.108-.503.135-.9.081-1.188-.054-.288-.238-.495-.553-.621-.314-.125-.832-.189-1.551-.189l.162-.81h6.338c1.259,0,2.333.13,3.223.391.891.261,1.573.662,2.05,1.202s.715,1.251.715,2.133c0,.955-.18,1.755-.539,2.403-.36.648-.827,1.179-1.402,1.593-.576.415-1.191.734-1.848.958-.656.226-1.281.392-1.875.5v.135c.324.216.63.544.917.985.288.441.644,1.076,1.065,1.903.423.828,1.003,1.944,1.74,3.348.306.54.643.904,1.012,1.094.368.189.858.283,1.47.283l-.162.81h-4.1c-.504-1.116-.927-2.047-1.268-2.794-.342-.747-.639-1.373-.891-1.876s-.472-.954-.66-1.35c-.189-.396-.392-.801-.607-1.215-.197-.378-.413-.625-.646-.743-.234-.117-.594-.175-1.079-.175h-.81l.189-.999,1.078.027c1.079-.036,2.055-.211,2.927-.526s1.56-.814,2.063-1.499c.503-.684.755-1.602.755-2.754,0-.486-.104-.94-.311-1.364-.206-.423-.562-.765-1.064-1.026-.504-.261-1.205-.392-2.104-.392-.342,0-.616.005-.822.014-.207.009-.463.032-.769.067l-2.697,13.257c-.145.738-.193,1.292-.148,1.661.045.369.247.607.606.715.359.108.926.162,1.699.162l-.135.81Z" stroke-width="0"/>
    <path d="m500.296,303.473h-5.017l.095-.441c.492,0,.875-.034,1.147-.102s.472-.178.598-.331c.126-.152.215-.359.268-.622l1.415-6.658c.021-.084.037-.157.047-.22.011-.063.017-.121.017-.173,0-.252-.137-.378-.409-.378-.105,0-.236.011-.394.032s-.325.05-.503.086c-.179.037-.356.082-.534.134l.109-.52,3.004-.866h.456l-1.824,8.563c-.011.053-.019.105-.023.158-.006.053-.008.105-.008.157,0,.263.123.451.369.567.246.115.674.173,1.281.173l-.094.441Z" stroke-width="0"/>
  </g>
  <g>
    <path d="m238.233,296.644v-17.062h5.578c1.852,0,3.244.383,4.178,1.148s1.4,1.898,1.4,3.398c0,.797-.227,1.502-.68,2.115s-1.07,1.088-1.852,1.424c.922.258,1.65.748,2.186,1.471s.803,1.584.803,2.584c0,1.531-.496,2.734-1.488,3.609s-2.395,1.312-4.207,1.312h-5.918Zm2.25-9.785h3.398c.984,0,1.771-.247,2.361-.74s.885-1.163.885-2.008c0-.939-.273-1.623-.82-2.049s-1.379-.64-2.496-.64h-3.328v5.438Zm0,1.805v6.141h3.715c1.047,0,1.873-.271,2.479-.814s.908-1.291.908-2.244c0-2.055-1.117-3.082-3.352-3.082h-3.75Z" stroke-width="0"/>
    <path d="m260.663,296.644c-.125-.25-.227-.695-.305-1.336-1.008,1.047-2.211,1.57-3.609,1.57-1.25,0-2.275-.354-3.076-1.061s-1.201-1.604-1.201-2.689c0-1.32.502-2.346,1.506-3.076s2.416-1.096,4.236-1.096h2.109v-.996c0-.758-.227-1.361-.68-1.811s-1.121-.674-2.004-.674c-.773,0-1.422.195-1.945.586s-.785.863-.785,1.418h-2.18c0-.633.225-1.244.674-1.834s1.059-1.057,1.828-1.4,1.615-.516,2.537-.516c1.461,0,2.605.365,3.434,1.096s1.258,1.736,1.289,3.018v5.836c0,1.164.148,2.09.445,2.777v.188h-2.273Zm-3.598-1.652c.68,0,1.324-.176,1.934-.527s1.051-.809,1.324-1.371v-2.602h-1.699c-2.656,0-3.984.777-3.984,2.332,0,.68.227,1.211.68,1.594s1.035.574,1.746.574Z" stroke-width="0"/>
    <path d="m268.831,280.894v3.07h2.367v1.676h-2.367v7.873c0,.509.105.89.316,1.144.211.254.57.381,1.078.381.25,0,.594-.047,1.031-.141v1.748c-.57.155-1.125.233-1.664.233-.969,0-1.699-.293-2.191-.879s-.738-1.418-.738-2.496v-7.863h-2.309v-1.676h2.309v-3.07h2.168Z" stroke-width="0"/>
    <path d="m276.671,280.894v3.07h2.367v1.676h-2.367v7.873c0,.509.105.89.316,1.144.211.254.57.381,1.078.381.25,0,.594-.047,1.031-.141v1.748c-.57.155-1.125.233-1.664.233-.969,0-1.699-.293-2.191-.879s-.738-1.418-.738-2.496v-7.863h-2.309v-1.676h2.309v-3.07h2.168Z" stroke-width="0"/>
    <path d="m286.831,296.878c-1.719,0-3.117-.564-4.195-1.693s-1.617-2.639-1.617-4.529v-.398c0-1.258.24-2.381.721-3.369s1.152-1.762,2.016-2.32,1.799-.838,2.807-.838c1.648,0,2.93.543,3.844,1.629s1.371,2.641,1.371,4.664v.902h-8.59c.031,1.25.396,2.26,1.096,3.029s1.588,1.154,2.666,1.154c.766,0,1.414-.156,1.945-.469s.996-.727,1.395-1.242l1.324,1.031c-1.062,1.633-2.656,2.449-4.781,2.449Zm-.27-11.367c-.875,0-1.609.318-2.203.955s-.961,1.529-1.102,2.678h6.352v-.164c-.062-1.102-.359-1.955-.891-2.561s-1.25-.908-2.156-.908Z" stroke-width="0"/>
    <path d="m300.413,285.909c-.328-.055-.684-.082-1.066-.082-1.422,0-2.387.605-2.895,1.816v9h-2.168v-12.68h2.109l.035,1.465c.711-1.133,1.719-1.699,3.023-1.699.422,0,.742.055.961.164v2.016Z" stroke-width="0"/>
    <path d="m306.554,293.468l2.953-9.504h2.32l-5.098,14.637c-.789,2.109-2.043,3.164-3.762,3.164l-.41-.035-.809-.152v-1.758l.586.047c.734,0,1.307-.148,1.717-.445s.748-.84,1.014-1.629l.48-1.289-4.523-12.539h2.367l3.164,9.504Z" stroke-width="0"/>
  </g>
  <g>
    <path d="m137.113,244.175h5.551v2.393h-5.551v6.289h-2.543v-6.289h-5.551v-2.393h5.551v-5.811h2.543v5.811Z" stroke-width="0"/>
    <line x1="170.047" y1="265.081" x2="170.047" y2="226.449" fill="#fff" stroke="#000" stroke-linejoin="round" stroke-width="2"/>
    <path d="m142.886,320.822v2.393h-13.645v-2.393h13.645Z" stroke-width="0"/>
    <g>
      <line x1="128.047" y1="293.741" x2="212.047" y2="293.741" fill="#fff" stroke="#000" stroke-linejoin="round" stroke-width="2"/>
      <line x1="146.527" y1="307.753" x2="193.567" y2="307.753" fill="#fff" stroke="#000" stroke-linejoin="round" stroke-width="2"/>
    </g>
    <g>
      <line x1="128.047" y1="265.719" x2="212.047" y2="265.719" fill="#fff" stroke="#000" stroke-linejoin="round" stroke-width="2"/>
      <line x1="146.527" y1="279.73" x2="193.567" y2="279.73" fill="#fff" stroke="#000" stroke-linejoin="round" stroke-width="2"/>
    </g>
  </g>
  <polyline points="436.698 90.024 436.698 225.556 459.198 232.979 436.701 240.401 414.198 247.826 459.198 262.672 414.198 277.517 459.198 292.362 459.198 292.379 414.198 307.224 459.198 322.069 414.198 336.916 414.198 337.019 436.698 344.444 436.698 479.976" fill="none" stroke="#000" stroke-linejoin="round" stroke-width="2"/>
  <polyline points="703.349 90.024 703.349 225.556 725.849 232.979 703.352 240.401 680.849 247.826 725.849 262.672 680.849 277.517 725.849 292.362 725.849 292.379 680.849 307.224 725.849 322.069 680.849 336.916 680.849 337.019 703.349 344.444 703.349 479.976" fill="none" stroke="#000" stroke-linejoin="round" stroke-width="2"/>
  <polyline points="970 90.024 970 225.556 992.5 232.979 970.003 240.401 947.5 247.826 992.5 262.672 947.5 277.517 992.5 292.362 992.5 292.379 947.5 307.224 992.5 322.069 947.5 336.916 947.5 337.019 970 344.444 970 479.976" fill="none" stroke="#000" stroke-linecap="square" stroke-linejoin="round" stroke-width="2"/>
  <g>
    <path d="m750.028,298.481h-7.444l.162-.81c.665,0,1.178-.054,1.537-.162.36-.108.634-.341.823-.702.188-.36.354-.918.499-1.674l2.373-11.583c.108-.503.135-.9.081-1.188-.054-.288-.238-.495-.553-.621-.314-.125-.832-.189-1.551-.189l.162-.81h6.338c1.259,0,2.333.13,3.223.391.891.261,1.573.662,2.05,1.202s.715,1.251.715,2.133c0,.955-.18,1.755-.539,2.403-.36.648-.827,1.179-1.402,1.593-.576.415-1.191.734-1.848.958-.656.226-1.281.392-1.875.5v.135c.324.216.63.544.917.985.288.441.644,1.076,1.065,1.903.423.828,1.003,1.944,1.74,3.348.306.54.643.904,1.012,1.094.368.189.858.283,1.47.283l-.162.81h-4.1c-.504-1.116-.927-2.047-1.268-2.794-.342-.747-.639-1.373-.891-1.876s-.472-.954-.66-1.35c-.189-.396-.392-.801-.607-1.215-.197-.378-.413-.625-.646-.743-.234-.117-.594-.175-1.079-.175h-.81l.189-.999,1.078.027c1.079-.036,2.055-.211,2.927-.526s1.56-.814,2.063-1.499c.503-.684.755-1.602.755-2.754,0-.486-.104-.94-.311-1.364-.206-.423-.562-.765-1.064-1.026-.504-.261-1.205-.392-2.104-.392-.342,0-.616.005-.822.014-.207.009-.463.032-.769.067l-2.697,13.257c-.145.738-.193,1.292-.148,1.661.045.369.247.607.606.715.359.108.926.162,1.699.162l-.135.81Z" stroke-width="0"/>
    <path d="m765.525,303.473h-6.133l.11-.535,2.877-2.361c.598-.524,1.106-.986,1.525-1.385.419-.398.758-.771,1.015-1.117.257-.347.442-.695.558-1.047s.174-.737.174-1.157c0-.461-.132-.834-.394-1.118-.262-.283-.65-.425-1.164-.425s-.967.116-1.359.346c-.394.231-.815.64-1.267,1.228l-.346-.158c.44-.745.946-1.333,1.518-1.763s1.266-.646,2.084-.646c.744,0,1.331.2,1.761.598.43.399.645.934.645,1.605,0,.546-.126,1.05-.377,1.511-.252.462-.635.942-1.148,1.44s-1.169,1.078-1.966,1.739l-2.421,1.968-.016.079,1.054-.047h2.186c.283,0,.511-.042.684-.126.173-.083.333-.217.479-.401.146-.183.314-.433.503-.748h.456l-1.037,2.519Z" stroke-width="0"/>
  </g>
  <g>
    <path d="m1016.273,298.481h-7.444l.162-.81c.665,0,1.178-.054,1.537-.162.36-.108.634-.341.823-.702.188-.36.354-.918.499-1.674l2.373-11.583c.108-.503.135-.9.081-1.188-.054-.288-.238-.495-.553-.621-.314-.125-.832-.189-1.551-.189l.162-.81h6.338c1.259,0,2.333.13,3.223.391.891.261,1.573.662,2.05,1.202s.715,1.251.715,2.133c0,.955-.18,1.755-.539,2.403-.36.648-.827,1.179-1.402,1.593-.576.415-1.191.734-1.848.958-.656.226-1.281.392-1.875.5v.135c.324.216.63.544.917.985.288.441.644,1.076,1.065,1.903.423.828,1.003,1.944,1.74,3.348.306.54.643.904,1.012,1.094.368.189.858.283,1.47.283l-.162.81h-4.1c-.504-1.116-.927-2.047-1.268-2.794-.342-.747-.639-1.373-.891-1.876s-.472-.954-.66-1.35c-.189-.396-.392-.801-.607-1.215-.197-.378-.413-.625-.646-.743-.234-.117-.594-.175-1.079-.175h-.81l.189-.999,1.078.027c1.079-.036,2.055-.211,2.927-.526s1.56-.814,2.063-1.499c.503-.684.755-1.602.755-2.754,0-.486-.104-.94-.311-1.364-.206-.423-.562-.765-1.064-1.026-.504-.261-1.205-.392-2.104-.392-.342,0-.616.005-.822.014-.207.009-.463.032-.769.067l-2.697,13.257c-.145.738-.193,1.292-.148,1.661.045.369.247.607.606.715.359.108.926.162,1.699.162l-.135.81Z" stroke-width="0"/>
    <path d="m1027.761,303.677c-.44,0-.773-.037-.999-.11-.226-.073-.38-.173-.464-.299s-.126-.257-.126-.394c0-.168.061-.336.182-.504.12-.167.301-.251.542-.251.168,0,.317.039.448.118.131.079.27.168.417.268.146.1.319.189.519.268.199.079.445.118.739.118.388,0,.768-.076,1.14-.228s.679-.401.92-.748c.241-.346.362-.808.362-1.385,0-.399-.11-.745-.331-1.039-.22-.294-.514-.522-.88-.685-.367-.163-.776-.244-1.227-.244h-.314l.126-.598h.235c.43,0,.857-.105,1.281-.315.425-.21.781-.501,1.069-.874s.433-.79.433-1.251c0-.409-.123-.711-.369-.905-.247-.194-.58-.291-.999-.291-.503,0-.928.113-1.273.338s-.697.548-1.054.968l-.314-.205c.461-.672.949-1.188,1.463-1.551.513-.362,1.132-.543,1.855-.543.681,0,1.197.166,1.549.496.351.331.526.748.526,1.251,0,.431-.092.806-.275,1.125-.184.32-.44.606-.771.858-.33.252-.721.504-1.171.756v.047c.503.168.928.423,1.273.764.346.341.519.79.519,1.346,0,.598-.139,1.125-.416,1.582-.278.457-.655.842-1.133,1.157-.477.314-1.014.553-1.611.716s-1.222.244-1.871.244Z" stroke-width="0"/>
  </g>
  <polyline points="292.356 77.755 312.355 90.025 292.355 102.293" fill="none" stroke="#d12d32" stroke-linejoin="round" stroke-width="4"/>
  <polyline points="560.025 77.755 580.023 90.025 560.023 102.293" fill="none" stroke="#d12d32" stroke-linejoin="round" stroke-width="4"/>
  <polyline points="826.676 77.755 846.674 90.025 826.674 102.293" fill="none" stroke="#d12d32" stroke-linejoin="round" stroke-width="4"/>
  <polyline points="846.673 492.245 826.674 479.975 846.674 467.707" fill="none" stroke="#d12d32" stroke-linejoin="round" stroke-width="4"/>
  <polyline points="579.005 492.245 559.006 479.975 579.006 467.707" fill="none" stroke="#d12d32" stroke-linejoin="round" stroke-width="4"/>
  <polyline points="312.354 492.245 292.355 479.975 312.355 467.707" fill="none" stroke="#d12d32" stroke-linejoin="round" stroke-width="4"/>
  <polyline points="448.967 147.629 436.697 167.628 424.429 147.628" fill="none" stroke="#d12d32" stroke-linejoin="round" stroke-width="4"/>
  <polyline points="715.618 147.629 703.348 167.628 691.08 147.628" fill="none" stroke="#d12d32" stroke-linejoin="round" stroke-width="4"/>
  <polyline points="982.269 147.629 969.999 167.628 957.731 147.628" fill="none" stroke="#d12d32" stroke-linejoin="round" stroke-width="4"/>
  <polyline points="157.731 167.627 170.001 147.628 182.269 167.628" fill="none" stroke="#d12d32" stroke-linejoin="round" stroke-width="4"/>
</svg>