<?xml version="1.0" encoding="UTF-8"?>
<svg id="Layer_1" data-name="Layer 1" xmlns="http://www.w3.org/2000/svg" width="1140" height="448" viewBox="0 0 1140 448">
  <defs>
    <style>
      .cls-1 {
        fill: #e8d6ea;
      }

      .cls-2 {
        fill: #969696;
      }

      .cls-3 {
        fill: #926f4e;
      }

      .cls-4 {
        fill: #856b51;
      }

      .cls-5 {
        fill: #d12d32;
      }

      .cls-6 {
        fill: #aa9177;
      }

      .cls-7 {
        fill: #4f1316;
      }

      .cls-8 {
        fill: #fff;
        stroke-miterlimit: 10;
      }

      .cls-8, .cls-9 {
        stroke: #000;
        stroke-width: 2px;
      }

      .cls-9, .cls-10 {
        fill: none;
        stroke-linecap: round;
        stroke-linejoin: round;
      }

      .cls-10 {
        stroke: #dbae2c;
        stroke-width: 8px;
      }

      .cls-11 {
        opacity: .69;
      }

      .cls-11, .cls-12 {
        fill: #543a27;
      }

      .cls-12 {
        opacity: .5;
      }
    </style>
  </defs>
  <path class="cls-1" d="m10.75,211.39c3.9,88.54-30.03,180.2,31.29,211.49,86.16,43.96,290.99,3,586.67,15.38,439.49,18.41,525.27,8.8,507.06-184.32C1113.03,12.72,1178.64-9.09,834.5,7.18c-183.58,8.68-241.33,7.8-403.27.23C346.58,3.44,105.86-6.36,58.31,47.45,20.3,90.45,7.17,130.17,10.75,211.39Z"/>
  <g>
    <g>
      <path class="cls-10" d="m223.39,306.69c7.88,0,11.3-3.82,19.43-10.6"/>
      <path class="cls-10" d="m298.52,117.29c-5.14-7.27-11.92-11.38-20.09-11.38"/>
      <path class="cls-10" d="m285.34,306.69c7.88,0,11.3-3.82,19.43-10.6"/>
      <path class="cls-10" d="m360.47,117.29c-5.14-7.27-11.92-11.38-20.09-11.38"/>
      <path class="cls-10" d="m347.29,306.69c7.88,0,11.3-3.82,19.43-10.6"/>
      <path class="cls-10" d="m422.42,117.29c-5.14-7.27-11.92-11.38-20.09-11.38"/>
      <path class="cls-10" d="m409.23,306.69c7.88,0,11.3-3.82,19.43-10.6"/>
      <path class="cls-10" d="m484.36,117.29c-5.14-7.27-11.92-11.38-20.09-11.38"/>
      <path class="cls-10" d="m471.18,306.69c7.88,0,11.3-3.82,19.43-10.6"/>
      <path class="cls-10" d="m546.31,117.29c-5.14-7.27-11.92-11.38-20.09-11.38"/>
      <path class="cls-10" d="m533.13,306.69c7.88,0,11.3-3.82,19.43-10.6"/>
      <path class="cls-10" d="m236.57,117.29c-5.14-7.27-11.92-11.38-20.09-11.38"/>
      <path class="cls-10" d="m144.1,359.52h464.16V117.29c-5.14-7.27-11.92-11.38-20.09-11.38"/>
    </g>
    <rect class="cls-6" x="105.2" y="115.8" width="536" height="181"/>
    <ellipse class="cls-3" cx="643.34" cy="206.3" rx="43.47" ry="90.5"/>
    <ellipse class="cls-6" cx="106.69" cy="206.3" rx="43.47" ry="90.5"/>
    <ellipse class="cls-12" cx="644.02" cy="206.3" rx="38.54" ry="84.58"/>
    <path class="cls-11" d="m644.02,121.72c11.39,0,21.63,10.85,28.68,28.09,3.44,53.7-20.57,105.81-51.08,123.93-10.16-12.94-16.14-45.97-16.14-67.44,0-46.71,17.25-84.58,38.54-84.58Z"/>
    <path class="cls-4" d="m605.92,116.79c-84.75,6.84-163.33,69.72-183.05,153.28-1.37,4.71-2.38,10.21-3.43,15-.61,3.58-1.23,7.27-1.88,10.86-.01.08-.09.14-.17.13-.08-.01-.13-.08-.12-.16.61-5.85,1.13-11.74,2.29-17.53.75-4.9,2.11-10.34,3.28-15.14,17.57-67.15,73.69-120.17,139.48-139.91,9.84-2.99,20.11-5.13,30.35-6.21,4.4-.44,8.84-.6,13.26-.61.08,0,.15.06.15.14,0,.08-.06.15-.14.15h0Z"/>
    <path class="cls-4" d="m356.42,116.79c-84.75,6.84-163.33,69.72-183.05,153.28-1.37,4.71-2.38,10.21-3.43,15-.61,3.58-1.23,7.27-1.88,10.86-.01.08-.09.14-.17.13-.08-.01-.13-.08-.12-.16.61-5.85,1.13-11.74,2.29-17.53.75-4.9,2.11-10.34,3.28-15.14,17.57-67.15,73.69-120.17,139.48-139.91,9.84-2.99,20.11-5.13,30.35-6.21,4.4-.44,8.84-.6,13.26-.61.08,0,.15.06.15.14,0,.08-.06.15-.14.15h0Z"/>
    <path class="cls-10" d="m278.43,105.91c-27.03,0-55.57,38.47-72.38,92.77-16.81,54.3-9.69,108.01,17.34,108.01"/>
    <path class="cls-10" d="m340.38,105.91c-27.03,0-55.57,38.47-72.38,92.77-16.81,54.3-9.69,108.01,17.34,108.01"/>
    <path class="cls-10" d="m402.32,105.91c-27.03,0-55.57,38.47-72.38,92.77-16.81,54.3-9.69,108.01,17.34,108.01"/>
    <path class="cls-10" d="m464.27,105.91c-27.03,0-55.57,38.47-72.38,92.77-16.81,54.3-9.69,108.01,17.34,108.01"/>
    <path class="cls-10" d="m526.22,105.91c-27.03,0-55.57,38.47-72.38,92.77-16.81,54.3-9.69,108.01,17.34,108.01"/>
    <path class="cls-10" d="m588.17,105.91c-27.03,0-55.57,38.47-72.38,92.77-16.81,54.3-9.69,108.01,17.34,108.01"/>
    <path class="cls-10" d="m216.48,105.91c-16.33,0-33.21,14.04-47.73,37.14-16.34,26-24.65,56.25-24.65,86.95v129.52"/>
    <g>
      <circle class="cls-8" cx="560.63" cy="210.75" r="27.1"/>
      <path d="m568.71,219.95h-4.1l-7.98-13.1v13.1h-4.1v-19.91h4.1l8,13.12v-13.12h4.09v19.91Z"/>
    </g>
    <g>
      <circle class="cls-8" cx="102.58" cy="210.75" r="27.1"/>
      <path d="m106.07,214.73c0-.77-.27-1.37-.82-1.78s-1.53-.85-2.95-1.31-2.55-.91-3.38-1.36c-2.26-1.22-3.39-2.87-3.39-4.94,0-1.08.3-2.04.91-2.88s1.48-1.5,2.61-1.98,2.41-.71,3.82-.71,2.69.26,3.8.77,1.98,1.24,2.59,2.18.92,2,.92,3.2h-4.1c0-.91-.29-1.62-.86-2.13s-1.38-.76-2.42-.76-1.78.21-2.34.64-.83.98-.83,1.67c0,.65.33,1.19.98,1.63s1.61.85,2.88,1.23c2.33.7,4.03,1.57,5.1,2.61s1.6,2.33,1.6,3.88c0,1.72-.65,3.07-1.96,4.05s-3.06,1.47-5.26,1.47c-1.53,0-2.93-.28-4.18-.84s-2.22-1.33-2.88-2.3-.99-2.11-.99-3.39h4.12c0,2.2,1.31,3.29,3.94,3.29.98,0,1.74-.2,2.28-.59s.82-.95.82-1.66Z"/>
    </g>
  </g>
  <g>
    <g>
      <path class="cls-5" d="m820.38,117.85h90.54v170.23c0,3.68-2.99,6.68-6.68,6.68h-77.19c-3.68,0-6.68-2.99-6.68-6.68V117.85h0Z" transform="translate(1071.99 -659.34) rotate(90)"/>
      <path class="cls-5" d="m957.73,132.85h77.19c3.68,0,6.68,2.99,6.68,6.68v140.23h-90.54v-140.23c0-3.68,2.99-6.68,6.68-6.68Z" transform="translate(1202.67 -790.02) rotate(90)"/>
    </g>
    <g>
      <path class="cls-2" d="m797.38,117.85h90.54v170.23c0,3.68-2.99,6.68-6.68,6.68h-77.19c-3.68,0-6.68-2.99-6.68-6.68V117.85h0Z" transform="translate(1048.98 -636.34) rotate(90)"/>
      <path class="cls-5" d="m934.73,132.85h77.19c3.68,0,6.68,2.99,6.68,6.68v140.23h-90.54v-140.23c0-3.68,2.99-6.68,6.68-6.68Z" transform="translate(1179.67 -767.02) rotate(90)"/>
    </g>
    <g>
      <rect class="cls-8" x="968.72" y="178.57" width="54.09" height="55.46" rx="27.05" ry="27.05"/>
      <path d="m1003.85,215.5h-4.1l-7.98-13.1v13.1h-4.1v-19.91h4.1l8,13.12v-13.12h4.09v19.91Z"/>
    </g>
    <g>
      <circle class="cls-8" cx="803.45" cy="206.3" r="27.1"/>
      <path d="m806.94,210.28c0-.77-.27-1.37-.82-1.78s-1.53-.85-2.95-1.31-2.55-.91-3.38-1.36c-2.26-1.22-3.39-2.87-3.39-4.94,0-1.08.3-2.04.91-2.88s1.48-1.5,2.61-1.98,2.41-.71,3.82-.71,2.69.26,3.8.77,1.98,1.24,2.59,2.18.92,2,.92,3.2h-4.1c0-.91-.29-1.62-.86-2.13s-1.38-.76-2.42-.76-1.78.21-2.34.64-.83.98-.83,1.67c0,.65.33,1.19.98,1.63s1.61.85,2.88,1.23c2.33.7,4.03,1.57,5.1,2.61s1.6,2.33,1.6,3.88c0,1.72-.65,3.07-1.96,4.05s-3.06,1.47-5.26,1.47c-1.53,0-2.93-.28-4.18-.84s-2.22-1.33-2.88-2.3-.99-2.11-.99-3.39h4.12c0,2.2,1.31,3.29,3.94,3.29.98,0,1.74-.2,2.28-.59s.82-.95.82-1.66Z"/>
    </g>
    <path class="cls-7" d="m1040.11,160.89c3.91-.56,7.72,3.09,7.58,7.08,0,0,.04,1.53.04,1.53.09,4.09.09,8.18.14,12.27.19,20.45.15,40.9-.16,61.35-.04.88-.02,2.31-.24,3.22-.69,3.3-4.1,5.82-7.36,5.39-.08,0-.14-.08-.13-.16,0-.07.06-.12.13-.13,2.96-.34,5.35-2.56,5.75-5.41.12-.75.02-2.11,0-2.9-.31-20.45-.34-40.9-.15-61.35-.02-5.04.2-10.14.13-15.17-.42-2.84-2.76-5.05-5.72-5.42-.17,0-.17-.29,0-.29h0Z"/>
  </g>
  <g>
    <path d="m799.26,115.87v-17.06h4.82c1.48,0,2.8.33,3.94.98s2.02,1.59,2.64,2.8.94,2.6.94,4.17v1.09c0,1.61-.31,3.02-.93,4.23s-1.51,2.14-2.66,2.79-2.49.98-4.03,1h-4.72Zm2.25-15.22v13.38h2.37c1.73,0,3.08-.54,4.05-1.62.96-1.08,1.45-2.62,1.45-4.61v-1c0-1.94-.46-3.45-1.37-4.52s-2.2-1.62-3.87-1.64h-2.62Z"/>
    <path d="m814.67,99.83c0-.35.11-.65.32-.89s.53-.36.96-.36.74.12.96.36.33.54.33.89-.11.64-.33.88-.54.35-.96.35-.74-.12-.96-.35-.32-.53-.32-.88Zm2.34,16.04h-2.17v-12.68h2.17v12.68Z"/>
    <path d="m826.61,105.14c-.33-.05-.68-.08-1.07-.08-1.42,0-2.39.61-2.89,1.82v9h-2.17v-12.68h2.11l.04,1.46c.71-1.13,1.72-1.7,3.02-1.7.42,0,.74.05.96.16v2.02Z"/>
    <path d="m833.86,116.11c-1.72,0-3.12-.56-4.2-1.69s-1.62-2.64-1.62-4.53v-.4c0-1.26.24-2.38.72-3.37s1.15-1.76,2.02-2.32,1.8-.84,2.81-.84c1.65,0,2.93.54,3.84,1.63s1.37,2.64,1.37,4.66v.9h-8.59c.03,1.25.4,2.26,1.1,3.03s1.59,1.15,2.67,1.15c.77,0,1.41-.16,1.95-.47s1-.73,1.39-1.24l1.32,1.03c-1.06,1.63-2.66,2.45-4.78,2.45Zm-.27-11.37c-.88,0-1.61.32-2.2.96s-.96,1.53-1.1,2.68h6.35v-.16c-.06-1.1-.36-1.96-.89-2.56s-1.25-.91-2.16-.91Z"/>
    <path d="m846.4,114.34c.77,0,1.45-.23,2.03-.7s.9-1.05.96-1.76h2.05c-.04.73-.29,1.42-.75,2.07s-1.08,1.18-1.85,1.57-1.58.59-2.44.59c-1.73,0-3.1-.58-4.12-1.73s-1.53-2.73-1.53-4.73v-.36c0-1.23.23-2.33.68-3.29s1.1-1.71,1.95-2.24,1.85-.8,3.01-.8c1.42,0,2.6.43,3.54,1.28s1.44,1.96,1.51,3.32h-2.05c-.06-.82-.37-1.49-.93-2.02s-1.25-.79-2.07-.79c-1.1,0-1.96.4-2.56,1.19s-.91,1.94-.91,3.44v.41c0,1.46.3,2.59.9,3.38s1.46,1.18,2.58,1.18Z"/>
    <path d="m856.82,100.12v3.07h2.37v1.68h-2.37v7.87c0,.51.11.89.32,1.14.21.25.57.38,1.08.38.25,0,.59-.05,1.03-.14v1.75c-.57.16-1.12.23-1.66.23-.97,0-1.7-.29-2.19-.88s-.74-1.42-.74-2.5v-7.86h-2.31v-1.68h2.31v-3.07h2.17Z"/>
    <path d="m861.73,99.83c0-.35.11-.65.32-.89s.53-.36.96-.36.74.12.96.36.33.54.33.89-.11.64-.33.88-.54.35-.96.35-.74-.12-.96-.35-.32-.53-.32-.88Zm2.34,16.04h-2.17v-12.68h2.17v12.68Z"/>
    <path d="m866.97,109.42c0-1.24.24-2.36.73-3.35s1.17-1.76,2.04-2.3,1.87-.81,2.98-.81c1.73,0,3.12.6,4.19,1.79s1.6,2.79,1.6,4.77v.15c0,1.23-.24,2.34-.71,3.32s-1.15,1.74-2.03,2.29-1.89.82-3.03.82c-1.72,0-3.11-.6-4.18-1.79s-1.6-2.78-1.6-4.75v-.15Zm2.18.26c0,1.41.33,2.54.98,3.39s1.53,1.28,2.62,1.28,1.98-.43,2.62-1.29.97-2.07.97-3.63c0-1.39-.33-2.52-.99-3.38s-1.54-1.29-2.63-1.29-1.93.43-2.59,1.28-.98,2.07-.98,3.66Z"/>
    <path d="m883.28,103.19l.07,1.59c.97-1.22,2.23-1.83,3.8-1.83,2.68,0,4.03,1.51,4.05,4.54v8.38h-2.17v-8.39c0-.91-.22-1.59-.63-2.03s-1.05-.66-1.92-.66c-.7,0-1.32.19-1.85.56s-.95.87-1.24,1.48v9.04h-2.17v-12.68h2.05Z"/>
    <path d="m899.84,109.42c0-1.24.24-2.36.73-3.35s1.17-1.76,2.04-2.3,1.87-.81,2.98-.81c1.73,0,3.12.6,4.19,1.79s1.6,2.79,1.6,4.77v.15c0,1.23-.24,2.34-.71,3.32s-1.15,1.74-2.03,2.29-1.89.82-3.03.82c-1.72,0-3.11-.6-4.18-1.79s-1.6-2.78-1.6-4.75v-.15Zm2.18.26c0,1.41.33,2.54.98,3.39s1.53,1.28,2.62,1.28,1.98-.43,2.62-1.29.97-2.07.97-3.63c0-1.39-.33-2.52-.99-3.38s-1.54-1.29-2.63-1.29-1.93.43-2.59,1.28-.98,2.07-.98,3.66Z"/>
    <path d="m915.17,115.87v-11h-2v-1.68h2v-1.3c0-1.36.36-2.41,1.09-3.15s1.75-1.11,3.08-1.11c.5,0,1,.07,1.49.2l-.12,1.75c-.37-.07-.76-.11-1.17-.11-.7,0-1.25.21-1.63.62-.38.41-.57,1-.57,1.77v1.34h2.71v1.68h-2.71v11h-2.17Z"/>
    <path d="m930.41,103.19l.06,1.41c.93-1.09,2.18-1.64,3.76-1.64,1.77,0,2.98.68,3.62,2.04.42-.61.97-1.1,1.65-1.48s1.47-.56,2.4-.56c2.78,0,4.2,1.47,4.24,4.42v8.5h-2.17v-8.37c0-.91-.21-1.58-.62-2.03s-1.11-.67-2.09-.67c-.8,0-1.47.24-2,.72s-.84,1.13-.93,1.94v8.41h-2.18v-8.31c0-1.84-.9-2.77-2.71-2.77-1.42,0-2.39.61-2.92,1.82v9.26h-2.17v-12.68h2.05Z"/>
    <path d="m948.84,109.42c0-1.24.24-2.36.73-3.35s1.17-1.76,2.04-2.3,1.87-.81,2.98-.81c1.73,0,3.12.6,4.19,1.79s1.6,2.79,1.6,4.77v.15c0,1.23-.24,2.34-.71,3.32s-1.15,1.74-2.03,2.29-1.89.82-3.03.82c-1.72,0-3.11-.6-4.18-1.79s-1.6-2.78-1.6-4.75v-.15Zm2.18.26c0,1.41.33,2.54.98,3.39s1.53,1.28,2.62,1.28,1.98-.43,2.62-1.29.97-2.07.97-3.63c0-1.39-.33-2.52-.99-3.38s-1.54-1.29-2.63-1.29-1.93.43-2.59,1.28-.98,2.07-.98,3.66Z"/>
    <path d="m966.04,100.12v3.07h2.37v1.68h-2.37v7.87c0,.51.11.89.32,1.14.21.25.57.38,1.08.38.25,0,.59-.05,1.03-.14v1.75c-.57.16-1.12.23-1.66.23-.97,0-1.7-.29-2.19-.88s-.74-1.42-.74-2.5v-7.86h-2.31v-1.68h2.31v-3.07h2.17Z"/>
    <path d="m970.95,99.83c0-.35.11-.65.32-.89s.53-.36.96-.36.74.12.96.36.33.54.33.89-.11.64-.33.88-.54.35-.96.35-.74-.12-.96-.35-.32-.53-.32-.88Zm2.34,16.04h-2.17v-12.68h2.17v12.68Z"/>
    <path d="m976.19,109.42c0-1.24.24-2.36.73-3.35s1.17-1.76,2.04-2.3,1.87-.81,2.98-.81c1.73,0,3.12.6,4.19,1.79s1.6,2.79,1.6,4.77v.15c0,1.23-.24,2.34-.71,3.32s-1.15,1.74-2.03,2.29-1.89.82-3.03.82c-1.72,0-3.11-.6-4.18-1.79s-1.6-2.78-1.6-4.75v-.15Zm2.18.26c0,1.41.33,2.54.98,3.39s1.53,1.28,2.62,1.28,1.98-.43,2.62-1.29.97-2.07.97-3.63c0-1.39-.33-2.52-.99-3.38s-1.54-1.29-2.63-1.29-1.93.43-2.59,1.28-.98,2.07-.98,3.66Z"/>
    <path d="m992.5,103.19l.07,1.59c.97-1.22,2.23-1.83,3.8-1.83,2.68,0,4.03,1.51,4.05,4.54v8.38h-2.17v-8.39c0-.91-.22-1.59-.63-2.03s-1.05-.66-1.92-.66c-.7,0-1.32.19-1.85.56s-.95.87-1.24,1.48v9.04h-2.17v-12.68h2.05Z"/>
  </g>
  <g>
    <line class="cls-9" x1="958.35" y1="140.76" x2="827.17" y2="140.76"/>
    <polygon points="956.02 132.78 969.84 140.76 956.02 148.74 956.02 132.78"/>
  </g>
</svg>