<?xml version="1.0" encoding="UTF-8"?>
<svg id="Layer_2" data-name="Layer 2" xmlns="http://www.w3.org/2000/svg" width="570" height="375" viewBox="0 0 570 375">
  <defs>
    <style>
      .cls-1 {
        fill: #e3f2ff;
      }

      .cls-2 {
        fill: #b7bcbb;
      }

      .cls-3 {
        fill: #646666;
      }

      .cls-4 {
        fill: none;
        stroke: #d3a122;
        stroke-linecap: round;
        stroke-linejoin: round;
        stroke-width: 7px;
      }
    </style>
  </defs>
  <g id="maal5_01.201a" data-name="maal5 01.201a">
    <path class="cls-1" d="m3.96,185.16c-.77,27.36-5.4,55.92-1.82,83.01,4.23,31.98,13.17,63.34,37.3,82.88,7.39,5.98,15.84,10.46,25.34,13.75,34.88,12.06,73.95,8.76,109.77,6.14,44.87-3.28,89.79-5.66,134.74-6.53,42.69-.82,85.4-.28,128.04,2.14,25.84,1.47,52.38,3.53,76.99-5.59,11.39-4.23,22.39-11.06,29.93-21.71,12.43-17.57,14.33-42.73,15.51-64.46,1.21-22.3.32-44.71,1.72-66.99,1.66-26.48,6.56-52.67,7-79.22.68-40.28-13.06-79.34-42.59-102.8C499.45,4.78,465.92.58,434.57,1.27c-2.85.06-5.71.17-8.56.31-43.62.85-86.4,5.95-129.99,6.65-42.61.68-85.74-1.37-132.13-4.32C147.58,2.88,125.29-.15,108.91.79c-32.49,1.86-61.25,12.78-82.85,37.81C-1.8,70.88,7.1,117.58,4.94,160.71c-.41,8.14-.75,16.29-.98,24.45Z"/>
  </g>
  <rect class="cls-2" x="121.02" y="33.27" width="82.45" height="237.34"/>
  <polyline class="cls-4" points="296.02 318.91 509.86 318.91 509.86 85.2 424.95 85.2"/>
  <g>
    <line class="cls-4" x1="296.09" y1="347.69" x2="296.09" y2="288.39"/>
    <line class="cls-4" x1="273.91" y1="337.69" x2="273.91" y2="298.39"/>
  </g>
  <rect class="cls-2" x="121.02" y="220.63" width="325.58" height="49.98"/>
  <g>
    <circle class="cls-2" cx="285" cy="64.94" r="24.31"/>
    <path class="cls-3" d="m305.32,63.55c.95,2.87.24,5.92-.79,8.67-2.85,7.56-10.53,13.55-18.74,13.45-2.89-.38-3.11-.6-.13-1.32,8.09-1.71,14.95-6.83,17.6-14.84.62-2,1.02-3.98,1.77-5.98.05-.13.25-.12.29.01h0Z"/>
    <g>
      <path class="cls-3" d="m272.33,52.63c2.91.81,4.6,2.83,6.56,4.58,1.94,1.77,3.84,3.58,5.7,5.44,1.86,1.86,3.65,3.77,5.43,5.71,1.84,2.01,3.74,3.81,4.59,6.55.06.18-.13.38-.31.31-2.74-.85-4.55-2.75-6.55-4.59-1.94-1.78-3.86-3.57-5.71-5.43-1.86-1.86-3.67-3.76-5.44-5.7-1.75-1.97-3.77-3.66-4.58-6.56-.06-.18.13-.37.31-.31h0Z"/>
      <path class="cls-3" d="m294.61,52.94c-.81,2.91-2.83,4.6-4.58,6.56-1.77,1.94-3.58,3.84-5.44,5.7-1.86,1.86-3.77,3.65-5.71,5.43-2.01,1.84-3.81,3.74-6.55,4.59-.18.06-.38-.13-.31-.31.85-2.74,2.75-4.55,4.59-6.55,1.78-1.94,3.57-3.86,5.43-5.71,1.86-1.86,3.76-3.67,5.7-5.44,1.97-1.75,3.66-3.77,6.56-4.58.18-.06.37.13.31.31h0Z"/>
    </g>
  </g>
  <path class="cls-4" d="m205.37,90.89c4.82-1.48,1.21-8.49-11.95-8.49H56.24v236.52s217.67,0,217.67,0"/>
  <path class="cls-4" d="m120.07,193.8c-4.84,1.48-1.21,8.49,12,8.49h285.07"/>
  <path class="cls-4" d="m119.42,98.57c-10.97,3.39,45.59,15.25,68.1,23.15,22.51,7.91,23.66,9.6,16.16,11.86"/>
  <path class="cls-4" d="m119.42,125.08c-10.97,3.39,45.59,15.25,68.1,23.15s23.66,9.6,16.16,11.86"/>
  <path class="cls-4" d="m119.42,151.6c-10.97,3.39,45.59,15.25,68.1,23.15,22.51,7.91,23.66,9.6,16.16,11.86"/>
  <rect class="cls-2" x="364.16" y="33.27" width="82.45" height="237.34"/>
  <path class="cls-4" d="m363.56,85.66c-10.96,3.39,45.59,15.25,68.1,23.15,22.51,7.91,23.66,9.6,16.16,11.86"/>
  <path class="cls-4" d="m363.56,112.18c-10.96,3.39,45.59,15.25,68.1,23.15,22.51,7.91,23.66,9.6,16.16,11.86"/>
  <path class="cls-4" d="m363.56,138.69c-10.96,3.39,45.59,15.25,68.1,23.15,22.51,7.91,23.66,9.6,16.16,11.86"/>
  <path class="cls-4" d="m363.56,164.5c-10.96,3.39,45.59,15.25,68.1,23.15,22.51,7.91,23.66,9.6,16.16,11.86"/>
  <path d="m160.84,59.01c0-1.09.13-1.97.4-2.62s.75-1.29,1.46-1.92,1.18-1.14,1.41-1.54.35-.81.35-1.25c0-1.32-.61-1.98-1.83-1.98-.58,0-1.04.18-1.39.53-.35.36-.53.85-.54,1.47h-3.4c.02-1.49.5-2.66,1.45-3.51.95-.84,2.24-1.27,3.88-1.27s2.94.4,3.86,1.2c.91.8,1.37,1.93,1.37,3.4,0,.67-.15,1.29-.45,1.88s-.82,1.25-1.56,1.96l-.95.9c-.59.57-.93,1.24-1.02,2.01l-.05.72h-3Zm-.34,3.59c0-.52.18-.95.53-1.29.36-.34.81-.51,1.37-.51s1.01.17,1.37.51c.36.34.53.77.53,1.29s-.17.94-.52,1.27c-.35.33-.81.5-1.38.5s-1.03-.17-1.38-.5c-.35-.33-.52-.76-.52-1.27Z"/>
  <path d="m404.44,59.01c0-1.09.13-1.97.4-2.62s.75-1.29,1.46-1.92,1.18-1.14,1.41-1.54.35-.81.35-1.25c0-1.32-.61-1.98-1.83-1.98-.58,0-1.04.18-1.39.53-.35.36-.53.85-.54,1.47h-3.4c.02-1.49.5-2.66,1.45-3.51.95-.84,2.24-1.27,3.88-1.27s2.94.4,3.86,1.2c.91.8,1.37,1.93,1.37,3.4,0,.67-.15,1.29-.45,1.88s-.82,1.25-1.56,1.96l-.95.9c-.59.57-.93,1.24-1.02,2.01l-.05.72h-3Zm-.34,3.59c0-.52.18-.95.53-1.29.36-.34.81-.51,1.37-.51s1.01.17,1.37.51c.36.34.53.77.53,1.29s-.17.94-.52,1.27c-.35.33-.81.5-1.38.5s-1.03-.17-1.38-.5c-.35-.33-.52-.76-.52-1.27Z"/>
</svg>