<?xml version="1.0" encoding="UTF-8"?>
<svg id="a" data-name="Layer 1" xmlns="http://www.w3.org/2000/svg" width="1140" height="598" viewBox="0 0 1140 598">
  <path d="m270.112,19.943C149.02,34.221,33.307,94.757,11.96,216.077c-7.179,40.8-5.103,82.492-2.293,123.761,2.504,36.766,5.649,73.876,17.379,109.03,25.649,76.869,96.97,121.338,178.653,136.296,60.821,11.138,123.449,7.346,185.35,4.683,149.828-6.445,297.99-5.999,447.772,1.336,55.345,2.71,155.916,1.303,203.086-26.016,70.487-40.823,83.551-130.852,90.338-201.59,5.941-61.912.786-124.691-11.624-185.466-20.137-98.62-109.912-135.158-204.426-154.398C813.727,2.854,711.915,3.33,607.786,6.06c-110.59,2.899-224.761,1.703-334.598,13.53-1.026.114-2.05.231-3.075.353Z" fill="#f2ebd5" stroke-width="0"/>
  <polyline points="373.455 125.384 170 125.384 170 299.784" fill="none" stroke="#000" stroke-linecap="square" stroke-linejoin="round" stroke-width="2"/>
  <g>
    <path d="m431.772,77.159h-7.444l.162-.81c.665,0,1.178-.054,1.537-.162.36-.108.634-.341.823-.702.188-.36.354-.918.499-1.674l2.373-11.583c.108-.503.135-.9.081-1.188-.054-.288-.238-.495-.553-.621-.314-.125-.832-.189-1.551-.189l.162-.81h6.338c1.259,0,2.333.13,3.223.391.891.261,1.573.662,2.05,1.202s.715,1.251.715,2.133c0,.955-.18,1.755-.539,2.403-.36.648-.827,1.179-1.402,1.593-.576.415-1.191.734-1.848.958-.656.226-1.281.392-1.875.5v.135c.324.216.63.544.917.985.288.441.644,1.076,1.065,1.903.423.828,1.003,1.944,1.74,3.348.306.54.643.904,1.012,1.094.368.189.858.283,1.47.283l-.162.81h-4.1c-.504-1.116-.927-2.047-1.268-2.794-.342-.747-.639-1.373-.891-1.876s-.472-.954-.66-1.35c-.189-.396-.392-.801-.607-1.215-.197-.378-.413-.625-.646-.743-.234-.117-.594-.175-1.079-.175h-.81l.189-.999,1.078.027c1.079-.036,2.055-.211,2.927-.526s1.56-.814,2.063-1.499c.503-.684.755-1.602.755-2.754,0-.486-.104-.94-.311-1.364-.206-.423-.562-.765-1.064-1.026-.504-.261-1.205-.392-2.104-.392-.342,0-.616.005-.822.014-.207.009-.463.032-.769.067l-2.697,13.257c-.145.738-.193,1.292-.148,1.661.045.369.247.607.606.715.359.108.926.162,1.699.162l-.135.81Z" stroke-width="0"/>
    <path d="m447.127,82.15h-5.017l.095-.441c.492,0,.875-.034,1.147-.102s.472-.178.598-.331c.126-.152.215-.359.268-.622l1.415-6.658c.021-.084.037-.157.047-.22.011-.063.017-.121.017-.173,0-.252-.137-.378-.409-.378-.105,0-.236.011-.394.032s-.325.05-.503.086c-.179.037-.356.082-.534.134l.109-.52,3.004-.866h.456l-1.824,8.563c-.011.053-.019.105-.023.158-.006.053-.008.105-.008.157,0,.263.123.451.369.567.246.115.674.173,1.281.173l-.094.441Z" stroke-width="0"/>
  </g>
  <g>
    <path d="m137.113,279.534h5.551v2.393h-5.551v6.289h-2.543v-6.289h-5.551v-2.393h5.551v-5.811h2.543v5.811Z" stroke-width="0"/>
    <line x1="170.047" y1="300.441" x2="170.047" y2="261.809" fill="#fff" stroke="#000" stroke-linejoin="round" stroke-width="2"/>
    <path d="m142.886,356.182v2.393h-13.645v-2.393h13.645Z" stroke-width="0"/>
    <g>
      <line x1="128.047" y1="329.101" x2="212.047" y2="329.101" fill="#fff" stroke="#000" stroke-linejoin="round" stroke-width="2"/>
      <line x1="146.527" y1="343.112" x2="193.567" y2="343.112" fill="#fff" stroke="#000" stroke-linejoin="round" stroke-width="2"/>
    </g>
    <g>
      <line x1="128.047" y1="301.079" x2="212.047" y2="301.079" fill="#fff" stroke="#000" stroke-linejoin="round" stroke-width="2"/>
      <line x1="146.527" y1="315.09" x2="193.567" y2="315.09" fill="#fff" stroke="#000" stroke-linejoin="round" stroke-width="2"/>
    </g>
  </g>
  <polyline points="703.349 125.384 703.349 164.525 725.849 171.947 680.849 186.794 725.849 201.64 680.849 216.485 725.849 231.33 725.849 231.348 680.849 246.193 725.849 261.038 680.849 275.885 680.849 275.988 703.349 283.412 703.349 357.308 725.849 364.73 703.352 372.152 680.849 379.577 725.849 394.423 680.849 409.268 725.849 424.113 725.849 424.131 680.849 438.976 725.849 453.821 680.849 468.668 680.849 468.771 703.349 476.195 703.349 515.336" fill="none" stroke="#000" stroke-linejoin="round" stroke-width="2"/>
  <polyline points="373.455 125.384 376.13 125.384 383.555 102.884 383.658 102.884 398.505 147.884 413.35 102.884 428.195 147.884 428.212 147.884 443.058 102.884 457.902 147.884 472.749 102.884 480.173 125.387 487.595 147.884 495.018 125.384 495.018 125.384 970 125.384 970 260.916 992.5 268.339 970.003 275.761 947.5 283.186 992.5 298.032 947.5 312.877 992.5 327.722 992.5 327.739 947.5 342.584 992.5 357.429 947.5 372.276 947.5 372.379 970 379.804 970 515.336 170 515.336 170 342.455" fill="none" stroke="#000" stroke-linejoin="round" stroke-width="2"/>
  <g>
    <path d="m750.028,236.945h-7.444l.162-.81c.665,0,1.178-.054,1.537-.162.36-.108.634-.341.823-.702.188-.36.354-.918.499-1.674l2.373-11.583c.108-.503.135-.9.081-1.188-.054-.288-.238-.495-.553-.621-.314-.125-.832-.189-1.551-.189l.162-.81h6.338c1.259,0,2.333.13,3.223.391.891.261,1.573.662,2.05,1.202s.715,1.251.715,2.133c0,.955-.18,1.755-.539,2.403-.36.648-.827,1.179-1.402,1.593-.576.415-1.191.734-1.848.958-.656.226-1.281.392-1.875.5v.135c.324.216.63.544.917.985.288.441.644,1.076,1.065,1.903.423.828,1.003,1.944,1.74,3.348.306.54.643.904,1.012,1.094.368.189.858.283,1.47.283l-.162.81h-4.1c-.504-1.116-.927-2.047-1.268-2.794-.342-.747-.639-1.373-.891-1.876s-.472-.954-.66-1.35c-.189-.396-.392-.801-.607-1.215-.197-.378-.413-.625-.646-.743-.234-.117-.594-.175-1.079-.175h-.81l.189-.999,1.078.027c1.079-.036,2.055-.211,2.927-.526s1.56-.814,2.063-1.499c.503-.684.755-1.602.755-2.754,0-.486-.104-.94-.311-1.364-.206-.423-.562-.765-1.064-1.026-.504-.261-1.205-.392-2.104-.392-.342,0-.616.005-.822.014-.207.009-.463.032-.769.067l-2.697,13.257c-.145.738-.193,1.292-.148,1.661.045.369.247.607.606.715.359.108.926.162,1.699.162l-.135.81Z" stroke-width="0"/>
    <path d="m765.525,241.936h-6.133l.11-.535,2.877-2.361c.598-.524,1.106-.986,1.525-1.385.419-.398.758-.771,1.015-1.117.257-.347.442-.695.558-1.047s.174-.737.174-1.157c0-.461-.132-.834-.394-1.118-.262-.283-.65-.425-1.164-.425s-.967.116-1.359.346c-.394.231-.815.64-1.267,1.228l-.346-.158c.44-.745.946-1.333,1.518-1.763s1.266-.646,2.084-.646c.744,0,1.331.2,1.761.598.43.399.645.934.645,1.605,0,.546-.126,1.05-.377,1.511-.252.462-.635.942-1.148,1.44s-1.169,1.078-1.966,1.739l-2.421,1.968-.016.079,1.054-.047h2.186c.283,0,.511-.042.684-.126.173-.083.333-.217.479-.401.146-.183.314-.433.503-.748h.456l-1.037,2.519Z" stroke-width="0"/>
  </g>
  <g>
    <path d="m1016.273,326.377h-7.444l.162-.81c.665,0,1.178-.054,1.537-.162.36-.108.634-.341.823-.702.188-.36.354-.918.499-1.674l2.373-11.583c.108-.503.135-.9.081-1.188-.054-.288-.238-.495-.553-.621-.314-.125-.832-.189-1.551-.189l.162-.81h6.338c1.259,0,2.333.13,3.223.391.891.261,1.573.662,2.05,1.202s.715,1.251.715,2.133c0,.955-.18,1.755-.539,2.403-.36.648-.827,1.179-1.402,1.593-.576.415-1.191.734-1.848.958-.656.226-1.281.392-1.875.5v.135c.324.216.63.544.917.985.288.441.644,1.076,1.065,1.903.423.828,1.003,1.944,1.74,3.348.306.54.643.904,1.012,1.094.368.189.858.283,1.47.283l-.162.81h-4.1c-.504-1.116-.927-2.047-1.268-2.794-.342-.747-.639-1.373-.891-1.876s-.472-.954-.66-1.35c-.189-.396-.392-.801-.607-1.215-.197-.378-.413-.625-.646-.743-.234-.117-.594-.175-1.079-.175h-.81l.189-.999,1.078.027c1.079-.036,2.055-.211,2.927-.526s1.56-.814,2.063-1.499c.503-.684.755-1.602.755-2.754,0-.486-.104-.94-.311-1.364-.206-.423-.562-.765-1.064-1.026-.504-.261-1.205-.392-2.104-.392-.342,0-.616.005-.822.014-.207.009-.463.032-.769.067l-2.697,13.257c-.145.738-.193,1.292-.148,1.661.045.369.247.607.606.715.359.108.926.162,1.699.162l-.135.81Z" stroke-width="0"/>
    <path d="m1031.031,331.368h-1.399l1.792-8.358h-.062l-4.104,4.722-.016.063h6.148l-.22,1.086h-7.014l.205-.992,5.865-6.674h.959l-2.154,10.153Z" stroke-width="0"/>
  </g>
  <g>
    <path d="m750.028,432.07h-7.444l.162-.81c.665,0,1.178-.054,1.537-.162.36-.108.634-.341.823-.702.188-.36.354-.918.499-1.674l2.373-11.583c.108-.503.135-.9.081-1.188-.054-.288-.238-.495-.553-.621-.314-.125-.832-.189-1.551-.189l.162-.81h6.338c1.259,0,2.333.13,3.223.391.891.261,1.573.662,2.05,1.202s.715,1.251.715,2.133c0,.955-.18,1.755-.539,2.403-.36.648-.827,1.179-1.402,1.593-.576.415-1.191.734-1.848.958-.656.226-1.281.392-1.875.5v.135c.324.216.63.544.917.985.288.441.644,1.076,1.065,1.903.423.828,1.003,1.944,1.74,3.348.306.54.643.904,1.012,1.094.368.189.858.283,1.47.283l-.162.81h-4.1c-.504-1.116-.927-2.047-1.268-2.794-.342-.747-.639-1.373-.891-1.876s-.472-.954-.66-1.35c-.189-.396-.392-.801-.607-1.215-.197-.378-.413-.625-.646-.743-.234-.117-.594-.175-1.079-.175h-.81l.189-.999,1.078.027c1.079-.036,2.055-.211,2.927-.526s1.56-.814,2.063-1.499c.503-.684.755-1.602.755-2.754,0-.486-.104-.94-.311-1.364-.206-.423-.562-.765-1.064-1.026-.504-.261-1.205-.392-2.104-.392-.342,0-.616.005-.822.014-.207.009-.463.032-.769.067l-2.697,13.257c-.145.738-.193,1.292-.148,1.661.045.369.247.607.606.715.359.108.926.162,1.699.162l-.135.81Z" stroke-width="0"/>
    <path d="m761.516,437.266c-.44,0-.773-.037-.999-.11-.226-.073-.38-.173-.464-.299s-.126-.257-.126-.394c0-.168.061-.336.182-.504.12-.167.301-.251.542-.251.168,0,.317.039.448.118.131.079.27.168.417.268.146.1.319.189.519.268.199.079.445.118.739.118.388,0,.768-.076,1.14-.228s.679-.401.92-.748c.241-.346.362-.808.362-1.385,0-.399-.11-.745-.331-1.039-.22-.294-.514-.522-.88-.685-.367-.163-.776-.244-1.227-.244h-.314l.126-.598h.235c.43,0,.857-.105,1.281-.315.425-.21.781-.501,1.069-.874s.433-.79.433-1.251c0-.409-.123-.711-.369-.905-.247-.194-.58-.291-.999-.291-.503,0-.928.113-1.273.338s-.697.548-1.054.968l-.314-.205c.461-.672.949-1.188,1.463-1.551.513-.362,1.132-.543,1.855-.543.681,0,1.197.166,1.549.496.351.331.526.748.526,1.251,0,.431-.092.806-.275,1.125-.184.32-.44.606-.771.858-.33.252-.721.504-1.171.756v.047c.503.168.928.423,1.273.764.346.341.519.79.519,1.346,0,.598-.139,1.125-.416,1.582-.278.457-.655.842-1.133,1.157-.477.314-1.014.553-1.611.716s-1.222.244-1.871.244Z" stroke-width="0"/>
  </g>
</svg>