<?xml version="1.0" encoding="UTF-8"?><svg id="a" xmlns="http://www.w3.org/2000/svg" width="1140" height="569" viewBox="0 0 1140 569"><path d="m152.03,1.57C88.13-3.12,13.13,21.25,7.13,61.28c-6,54.53,4,108.49-.53,163.2-.62,21.49-1.44,43.8-2.18,66.12-2.22,66.96-3.69,133.99,3.31,179.12,14,83.15,169.36,90.06,262.36,90.77,138,.71,278.55-7.12,416.6-2.64,23.48.34,46.96.81,70.46,1.39,23.49.57,46.99,1.24,70.49,1.95,80,1.42,169,15.64,239-12.79,76-31.27,72-110.87,73-170.57.17-8.88-.22-20.55-.95-34.07-.74-13.52-1.8-28.87-2.94-44.97-5.62-72.18-7.62-144.12-4.62-216.05,0-22.63-12-46.41-47-60.91-19.5-8.12-41-11.6-63.12-13.13-22.12-1.52-44.88-1.09-66.88-1.38-29.87,0-59.73.06-89.58.17-29.85.1-59.68.25-89.51.39-178.91.6-356.91-5.78-535.89-6.7-29.03.02-58.07.15-87.12.39Z" fill="#e7eeb4" stroke-width="0"/><path d="m384.77,27.27v.13c.97.67,1.51,2.05,3.72,6.24.59,1.08,1.24,1.38,2.48,1.38l-.16.81h-4.1c-2.02-4.45-2.59-5.59-3.43-7.23-.4-.76-.75-.92-1.73-.92h-.57l-1,4.8c-.46,2.24-.16,2.54,2.16,2.54l-.13.81h-7.45l.16-.81c2,0,2.4-.27,2.86-2.54l2.37-11.58c.3-1.48.13-2-2.02-2l.16-.81h6.34c3.78,0,5.99,1.11,5.99,3.73,0,3.81-3.32,5.05-5.67,5.45Zm-3.59-.59l.84.03c3.24-.11,5.75-1.32,5.75-4.78,0-1.46-.81-2.78-3.48-2.78-.7,0-.97.03-1.59.08l-1.51,7.45Z" stroke-width="0"/><path d="m392.36,40.82l.09-.44c1.48,0,1.86-.27,2.01-1.06l1.42-6.66c.13-.55.05-.77-.35-.77-.31,0-.91.09-1.43.25l.11-.52,3-.87h.46l-1.83,8.57c-.16.77.17,1.06,1.62,1.06l-.09.44h-5.02Z" stroke-width="0"/><path d="m577.77,214.27v.13c.97.67,1.51,2.05,3.72,6.24.59,1.08,1.24,1.38,2.48,1.38l-.16.81h-4.1c-2.02-4.45-2.59-5.59-3.43-7.23-.4-.76-.75-.92-1.73-.92h-.57l-1,4.8c-.46,2.24-.16,2.54,2.16,2.54l-.13.81h-7.45l.16-.81c2,0,2.4-.27,2.86-2.54l2.37-11.58c.3-1.48.13-2-2.02-2l.16-.81h6.34c3.78,0,5.99,1.11,5.99,3.73,0,3.81-3.32,5.05-5.67,5.45Zm-3.59-.59l.84.03c3.24-.11,5.75-1.32,5.75-4.78,0-1.46-.81-2.78-3.48-2.78-.7,0-.97.03-1.59.08l-1.51,7.45Z" stroke-width="0"/><path d="m590.52,227.82h-6.14l.11-.54,2.88-2.36c2.41-2.09,3.27-3.02,3.27-4.71,0-.91-.53-1.54-1.56-1.54s-1.73.41-2.63,1.57l-.35-.16c.88-1.5,1.97-2.41,3.6-2.41,1.49,0,2.41.87,2.41,2.2,0,1.64-1.1,2.71-3.49,4.69l-2.42,1.97-.02.08,1.05-.05h2.19c.83,0,1.1-.33,1.67-1.28h.46l-1.04,2.52Z" stroke-width="0"/><path d="m946.77,214.27v.13c.97.67,1.51,2.05,3.72,6.24.59,1.08,1.24,1.38,2.48,1.38l-.16.81h-4.1c-2.02-4.45-2.59-5.59-3.43-7.23-.4-.76-.75-.92-1.73-.92h-.57l-1,4.8c-.46,2.24-.16,2.54,2.16,2.54l-.13.81h-7.45l.16-.81c2,0,2.4-.27,2.86-2.54l2.37-11.58c.3-1.48.13-2-2.02-2l.16-.81h6.34c3.78,0,5.99,1.11,5.99,3.73,0,3.81-3.32,5.05-5.67,5.45Zm-3.59-.59l.84.03c3.24-.11,5.75-1.32,5.75-4.78,0-1.46-.81-2.78-3.48-2.78-.7,0-.97.03-1.59.08l-1.51,7.45Z" stroke-width="0"/><path d="m955.57,219.77c.91-1.34,1.87-2.09,3.32-2.09,1.37,0,2.08.74,2.08,1.75,0,1.29-.88,2-2.22,2.74v.05c1.01.35,1.79.99,1.79,2.11,0,2.38-2.45,3.7-5.03,3.7-1.32,0-1.59-.38-1.59-.8,0-.33.24-.76.72-.76.68,0,.93.77,2.12.77s2.42-.61,2.42-2.36c0-1.18-1.08-1.97-2.44-1.97h-.31l.13-.6h.24c1.27,0,2.78-1.04,2.78-2.44,0-.82-.54-1.2-1.37-1.2-1.01,0-1.62.47-2.33,1.31l-.31-.21Z" stroke-width="0"/><path d="m782.77,320.27v.13c.97.67,1.51,2.05,3.72,6.24.59,1.08,1.24,1.38,2.48,1.38l-.16.81h-4.1c-2.02-4.45-2.59-5.59-3.43-7.23-.4-.76-.75-.92-1.73-.92h-.57l-1,4.8c-.46,2.24-.16,2.54,2.16,2.54l-.13.81h-7.45l.16-.81c2,0,2.4-.27,2.86-2.54l2.37-11.58c.3-1.48.13-2-2.02-2l.16-.81h6.34c3.78,0,5.99,1.11,5.99,3.73,0,3.81-3.32,5.05-5.67,5.45Zm-3.59-.59l.84.03c3.24-.11,5.75-1.32,5.75-4.78,0-1.46-.81-2.78-3.48-2.78-.7,0-.97.03-1.59.08l-1.51,7.45Z" stroke-width="0"/><path d="m795.31,331.33l-.54,2.49h-1.4l.53-2.49h-4.01l.2-.99,5.87-6.68h.96l-1.4,6.58h1.6l-.22,1.09h-1.6Zm-.14-5.87h-.06l-4.11,4.72-.02.06h3.15l1.04-4.79Z" stroke-width="0"/><path d="m782.77,534.27v.13c.97.67,1.51,2.05,3.72,6.24.59,1.08,1.24,1.38,2.48,1.38l-.16.81h-4.1c-2.02-4.45-2.59-5.59-3.43-7.23-.4-.76-.75-.92-1.73-.92h-.57l-1,4.8c-.46,2.24-.16,2.54,2.16,2.54l-.13.81h-7.45l.16-.81c2,0,2.4-.27,2.86-2.54l2.37-11.58c.3-1.48.13-2-2.02-2l.16-.81h6.34c3.78,0,5.99,1.11,5.99,3.73,0,3.81-3.32,5.05-5.67,5.45Zm-3.59-.59l.84.03c3.24-.11,5.75-1.32,5.75-4.78,0-1.46-.81-2.78-3.48-2.78-.7,0-.97.03-1.59.08l-1.51,7.45Z" stroke-width="0"/><path d="m793.06,539.17l-.53,1.83c1.73.06,4.01.54,4.01,2.83,0,2.63-2.03,4.19-4.96,4.19-1.1,0-1.59-.28-1.59-.79,0-.41.28-.77.74-.77.63,0,.99.77,2,.77,1.34,0,2.53-.8,2.53-2.77,0-1.56-1.07-2.08-2.91-2.22-.41-.03-.71-.03-.71-.03l-.14-.24,1.21-4.08h4.61l-.36,1.28h-3.9Z" stroke-width="0"/><polyline points="627.31 429 627.31 277.5 604.81 270.08 627.31 262.66 649.81 255.23 604.81 240.39 649.81 225.54 604.81 210.7 604.81 210.68 649.81 195.84 604.81 180.99 649.81 166.14 649.81 166.04 627.31 158.62 627.31 75" fill="none" stroke="#000" stroke-linejoin="round" stroke-width="2"/><polyline points="898.31 376 898.31 277.5 875.81 270.08 898.31 262.66 920.81 255.23 875.81 240.39 920.81 225.54 875.81 210.7 875.81 210.68 920.81 195.84 875.81 180.99 920.81 166.14 920.81 166.04 898.31 158.62 898.31 107.48" fill="none" stroke="#000" stroke-linejoin="round" stroke-width="2"/><polyline points="219 193.62 219 74.66 322.87 74.66 330.29 52.16 337.71 74.66 345.14 97.16 359.98 52.16 374.83 97.16 389.67 52.16 389.69 52.16 404.53 97.16 419.38 52.16 434.23 97.16 434.33 97.16 441.75 74.66 492.89 74.66 898.31 74.66 898.31 107.48" fill="none" stroke="#000" stroke-linejoin="round" stroke-width="2"/><polygon points="898.29 489.66 847.15 489.66 839.73 512.16 839.63 512.16 824.78 467.16 809.93 512.16 795.09 467.16 795.07 467.16 780.23 512.16 765.38 467.16 750.54 512.16 743.11 489.66 735.69 467.16 728.27 489.66 677.13 489.66 677.13 368.66 728.27 368.66 735.69 346.16 743.11 368.66 750.54 391.16 765.38 346.16 780.23 391.16 795.07 346.16 795.09 346.16 809.93 391.16 824.78 346.16 839.63 391.16 839.73 391.16 847.15 368.66 898.29 368.66 898.29 489.66" fill="none" stroke="#000" stroke-linejoin="round" stroke-width="2"/><line x1="260.96" y1="193.62" x2="176.96" y2="193.62" fill="#fff" stroke="#000" stroke-linejoin="round" stroke-width="2"/><line x1="242.02" y1="207.64" x2="194.98" y2="207.64" fill="#fff" stroke="#000" stroke-linejoin="round" stroke-width="2"/><line x1="260.96" y1="222.62" x2="176.96" y2="222.62" fill="#fff" stroke="#000" stroke-linejoin="round" stroke-width="2"/><line x1="242.02" y1="236.64" x2="194.98" y2="236.64" fill="#fff" stroke="#000" stroke-linejoin="round" stroke-width="2"/><polyline points="677 429.16 219 429.16 219 236.64" fill="none" stroke="#000" stroke-linejoin="round" stroke-width="2"/></svg>