<?xml version="1.0" encoding="UTF-8"?>
<svg id="Layer_1" data-name="Layer 1" xmlns="http://www.w3.org/2000/svg" width="1140" height="720" viewBox="0 0 1140 720">
  <defs>
    <style>
      .cls-1 {
        fill: #969696;
      }

      .cls-2 {
        fill: #d12d32;
      }

      .cls-3 {
        fill: #d5e2dc;
      }

      .cls-4 {
        fill: #631c1c;
      }

      .cls-5 {
        fill: #605858;
      }

      .cls-6 {
        fill: #fff;
      }

      .cls-6, .cls-7 {
        stroke: #000;
        stroke-miterlimit: 10;
        stroke-width: 2px;
      }

      .cls-8 {
        stroke-width: 20px;
      }

      .cls-8, .cls-7, .cls-9 {
        fill: none;
      }

      .cls-8, .cls-9 {
        stroke: #d3a122;
        stroke-linecap: round;
        stroke-linejoin: round;
      }

      .cls-9 {
        stroke-width: 17px;
      }
    </style>
  </defs>
  <path class="cls-3" d="m637.83,17.47c-87.32.07-174.55-5.88-261.74-10.04-53.05-2.53-106.17-4.44-159.3-3.9-45.79.46-97.32-.39-140.03,18.31C-8,58.97,1.41,161.98,9.46,236.9c12.64,117.64,3.9,236.22,13.65,354.43,1.48,17.93,10.08,34.27,21.12,48.76,65.12,85.48,193.77,75.37,289.01,71.7,171.25-6.59,341.93-5.04,513.25-2.74,57.03.77,116.43,1.05,167.85-23.1,52.27-24.55,90.66-72.91,109.05-126.69,20.93-61.2,10.02-118.22,6.92-180.36-3.33-66.58-1.32-133.11-1.84-199.72-.48-62.06-10.97-124.12-75.47-151.08-52.61-21.99-118.83-20.62-175.23-19.87-63.85.85-127.49,6.66-191.3,8.54-16.21.48-32.42.7-48.63.71Z"/>
  <g>
    <path class="cls-8" d="m421.29,670.67v-79.25c0-14.01,11.46-25.47,25.47-25.47h246.28c14.01,0,25.47,11.46,25.47,25.47v79.25"/>
    <g>
      <path class="cls-2" d="m310.92,169.61c0-52.62,13.65-100.53,36.01-136.51h-131.16v273.01h131.16c-22.36-35.97-36.01-83.89-36.01-136.51Z"/>
      <path class="cls-2" d="m264.62,326.82c0-52.62,13.65-100.53,36.01-136.51h-131.16v273.01h131.16c-22.36-35.97-36.01-83.89-36.01-136.51Z"/>
      <polygon class="cls-2" points="216.77 33.1 169.47 190.31 300.63 190.31 347.93 33.1 216.77 33.1"/>
      <polygon class="cls-2" points="347.93 306.11 300.63 463.32 169.47 463.32 216.77 306.11 347.93 306.11"/>
      <path class="cls-4" d="m169.47,190.16c25.19-1.51,56.64-.73,81.98-1.06,10.41.03,38.42.13,49.19.17,0,0-.99.76-.99.76,2.42-8.75,4.89-17.49,7.64-26.15.9-2.89,1.85-5.77,2.85-8.63.03-.08.11-.12.19-.09.07.02.11.1.1.17-.61,2.97-1.26,5.93-1.97,8.87-2.12,9.1-4.55,18.12-7.02,27.13-11.34.04-38.97.14-49.98.18-10.5-.04-38.36-.14-49.19-.18-10.93,0-21.86-.14-32.79-.88-.17,0-.18-.29,0-.29h0Z"/>
      <path class="cls-4" d="m300.5,463.4c-44.28-67.88-47.62-167.66-16.87-241.6,2.87-6.9,6.16-13.62,9.84-20.12,2.07-3.68,4.7-7.91,7.03-11.44.09-.16.35,0,.25.15-47.3,82.7-45.97,190.86-.25,273.01h0Z"/>
    </g>
    <g>
      <path class="cls-1" d="m829.08,169.61c0-52.62-13.65-100.53-36.01-136.51h131.16v273.01h-131.16c22.36-35.97,36.01-83.89,36.01-136.51Z"/>
      <path class="cls-1" d="m875.38,326.82c0-52.62-13.65-100.53-36.01-136.51h131.16v273.01h-131.16c22.36-35.97,36.01-83.89,36.01-136.51Z"/>
      <polygon class="cls-1" points="923.23 33.1 970.53 190.31 839.37 190.31 792.07 33.1 923.23 33.1"/>
      <polygon class="cls-1" points="792.07 306.11 839.37 463.32 970.53 463.32 923.23 306.11 792.07 306.11"/>
      <path class="cls-5" d="m970.53,190.46c-25.19,1.52-56.64.72-81.98,1.06-10.9-.03-38.75-.14-49.98-.18-2.46-9.01-4.9-18.03-7.02-27.13-.71-2.95-1.36-5.91-1.97-8.87-.02-.08.04-.16.12-.17.07-.01.14.03.17.1.99,2.86,1.95,5.74,2.85,8.63,2.75,8.66,5.22,17.4,7.64,26.15,0,0-.99-.76-.99-.76,10.9-.04,38.66-.14,49.19-.17,10.5.04,38.36.14,49.19.18,10.93,0,21.86.14,32.79.88.17,0,.18.29,0,.29h0Z"/>
      <path class="cls-5" d="m839.25,463.25c46.97-82.81,46.54-190.3.05-273.06.07-.04.16-.02.2.05,2.36,3.53,4.92,7.71,7.03,11.44,3.68,6.5,6.97,13.22,9.84,20.12,28.95,70.72,27.34,157.93-7.66,226.25-2.77,5.29-5.92,10.38-9.21,15.36-.09.16-.35,0-.25-.16h0Z"/>
    </g>
    <g>
      <circle class="cls-6" cx="911.89" cy="228.69" r="20.38"/>
      <path d="m914.86,233.33c0-.66-.23-1.17-.7-1.53s-1.31-.73-2.53-1.12-2.18-.78-2.89-1.17c-1.94-1.05-2.91-2.46-2.91-4.23,0-.92.26-1.74.78-2.47s1.27-1.29,2.24-1.69,2.06-.61,3.28-.61,2.3.22,3.26.66,1.69,1.06,2.22,1.87.79,1.72.79,2.74h-3.52c0-.78-.25-1.39-.74-1.82s-1.18-.65-2.07-.65-1.53.18-2,.54-.71.84-.71,1.44c0,.55.28,1.02.84,1.39s1.38.73,2.47,1.05c2,.6,3.46,1.35,4.37,2.24s1.37,2,1.37,3.33c0,1.48-.56,2.63-1.68,3.47s-2.62,1.26-4.51,1.26c-1.31,0-2.51-.24-3.59-.72s-1.9-1.14-2.47-1.97-.85-1.8-.85-2.91h3.53c0,1.88,1.12,2.82,3.38,2.82.84,0,1.49-.17,1.96-.51s.7-.81.7-1.42Z"/>
    </g>
    <g>
      <circle class="cls-6" cx="227.28" cy="228.69" r="20.38"/>
      <path d="m234.22,237.81h-3.52l-6.84-11.23v11.23h-3.52v-17.06h3.52l6.86,11.25v-11.25h3.5v17.06Z"/>
    </g>
    <polyline class="cls-9" points="528.95 551.47 533.7 422.89 341.83 422.89 417 171.83 722.76 171.83 797.94 422.89 606.07 422.89 610.82 551.47"/>
    <polygon class="cls-1" points="636.03 538.3 641.91 516.74 679.8 516.74 679.8 607.54 636.69 607.54 636.03 538.3"/>
    <circle class="cls-1" cx="568.85" cy="564.16" r="86.82"/>
    <polygon class="cls-1" points="501.26 538.3 495.38 516.74 457.49 516.74 457.49 607.54 500.61 607.54 501.26 538.3"/>
    <path class="cls-5" d="m495.52,516.71c1.37,1.49,1.63,3.24,2.14,4.93.49,1.7.94,3.4,1.35,5.12.41,1.72.76,3.45,1.1,5.18.33,1.74.81,3.44.33,5.37-.03.13-.2.17-.29.07-1.3-1.5-1.64-3.24-2.13-4.94-.48-1.7-.95-3.4-1.36-5.12-.41-1.72-.78-3.44-1.11-5.18-.31-1.74-.87-3.42-.32-5.37.03-.12.2-.17.29-.07h0Z"/>
    <path class="cls-5" d="m493.28,607.59c-2.99-5.39-4.21-11.45-5.18-17.45-2.66-17.49-.39-38.48,12.08-51.93.11-.12.32.03.24.17-1.72,3.39-3.52,6.59-5.01,10.03-7.15,15.65-7.19,33.65-3.63,50.24,0,0,1.78,8.83,1.78,8.83.05.15-.2.26-.27.11h0Z"/>
    <path class="cls-5" d="m500.31,537.49c-3.51,1.01-7.02.88-10.53,1.01-3.51.11-7.03.15-10.54.2-3.51,0-7.03,0-10.54-.06-3.51-.06-7.03.04-10.55-.85-.14-.03-.15-.26,0-.29,6.92-1.54,14.06-.89,21.07-1.21,3.51,0,7.03-.02,10.54.05,3.51.08,7.03-.1,10.55.86.14.03.15.26,0,.29h0Z"/>
    <path class="cls-5" d="m524.47,629.84c-23-17.78-31.2-51.22-20.13-78,10.55-27.34,39.12-45.64,68.37-43.75,37.35,1.69,67.63,35.12,65.47,72.46-.74,21.46-12.84,43-31.2,53.84,5.38-4.44,10.97-9.2,15.15-14.95,4.22-5.59,7.66-11.84,10.03-18.43,21.25-61.16-44.35-113.96-99.48-80.13-24.28,15.19-36.19,45.22-29.32,72.97,2.44,10.25,7.34,19.89,14,28.07,2.24,2.73,4.71,5.27,7.3,7.7.14.11-.06.34-.19.22h0Z"/>
    <path class="cls-5" d="m642.06,516.77c.55,1.95-.01,3.63-.32,5.37-.33,1.74-.7,3.46-1.11,5.18-.41,1.72-.88,3.42-1.36,5.12-.49,1.7-.83,3.43-2.13,4.94-.08.1-.26.06-.29-.07-.48-1.93,0-3.63.33-5.37.34-1.73.69-3.46,1.1-5.18.41-1.72.86-3.42,1.35-5.12.51-1.69.77-3.45,2.14-4.93.08-.1.25-.06.29.07h0Z"/>
    <path class="cls-5" d="m643.74,607.49c1-5.25,2.67-12.43,3.31-17.65,1.77-13.94.75-28.55-5.16-41.43-1.49-3.43-3.3-6.64-5.01-10.03-.08-.14.12-.3.24-.17,12.48,13.46,14.74,34.44,12.08,51.93-.97,6-2.19,12.06-5.18,17.45-.07.14-.32.06-.27-.11h0Z"/>
    <path class="cls-5" d="m636.99,537.19c3.52-.96,7.03-.78,10.55-.86,3.51-.06,7.03-.05,10.54-.05,3.51.05,7.03.1,10.54.21,3.51.11,7.03.06,10.53,1,.14.03.15.26,0,.29-6.98,1.44-14.04.69-21.09.91-3.51-.05-7.03-.09-10.54-.2-3.51-.13-7.03,0-10.53-1.01-.14-.04-.15-.26,0-.29h0Z"/>
    <path class="cls-5" d="m569.15,477.35c1.97,14.47,1.66,28.94,1.87,43.41.32,28.94.3,57.88-.02,86.82-.09,7.23-.1,14.47-.29,21.7-.23,7.23-.64,14.47-1.56,21.7-.02.16-.17.28-.33.26-.14-.02-.24-.13-.26-.26-.91-7.23-1.33-14.47-1.56-21.7-.42-21.7-.47-43.41-.56-65.11.05-14.47.07-28.94.25-43.41.21-14.47-.1-28.94,1.87-43.41.02-.16.17-.28.33-.25.13.02.24.13.25.25h0Z"/>
    <g>
      <line class="cls-7" x1="395" y1="659" x2="395" y2="592.07"/>
      <polygon points="402.98 656.66 395 670.48 387.03 656.66 402.98 656.66"/>
    </g>
    <g>
      <line class="cls-7" x1="744.77" y1="603.55" x2="744.77" y2="670.48"/>
      <polygon points="736.8 605.88 744.77 592.07 752.75 605.88 736.8 605.88"/>
    </g>
    <g>
      <polyline class="cls-7" points="635.4 493 631.56 446.61 686.8 446.61"/>
      <polygon points="684.47 454.59 698.28 446.61 684.47 438.63 684.47 454.59"/>
    </g>
    <g>
      <polyline class="cls-7" points="504.32 481.56 507.22 446.61 440.5 446.61"/>
      <polygon points="512.47 479.89 503.38 493 496.56 478.57 512.47 479.89"/>
    </g>
    <g>
      <line class="cls-7" x1="714.56" y1="230.08" x2="749.9" y2="354.5"/>
      <polygon points="707.53 234.51 711.43 219.04 722.87 230.15 707.53 234.51"/>
    </g>
    <g>
      <line class="cls-7" x1="393.91" y1="343.43" x2="428.36" y2="219.04"/>
      <polygon points="402.22 343.31 390.85 354.5 386.85 339.06 402.22 343.31"/>
    </g>
    <g>
      <line class="cls-7" x1="511.34" y1="198.82" x2="640.27" y2="198.82"/>
      <polygon points="513.68 206.79 499.86 198.82 513.68 190.84 513.68 206.79"/>
    </g>
    <path d="m367.49,585.99c0-2.11-.11-2.75-2.67-2.75v-.81h7.77v.81c-2.56,0-2.65.65-2.65,2.75v10.63c0,2.32.24,2.73,2.65,2.73v.81h-7.77v-.81c2.43,0,2.67-.41,2.67-2.73v-10.63Z"/>
    <path d="m772.86,585.99c0-2.11-.11-2.75-2.67-2.75v-.81h7.77v.81c-2.56,0-2.65.65-2.65,2.75v10.63c0,2.32.24,2.73,2.65,2.73v.81h-7.77v-.81c2.43,0,2.67-.41,2.67-2.73v-10.63Z"/>
    <path d="m476.18,465.49c0-2.11-.11-2.75-2.67-2.75v-.81h7.77v.81c-2.56,0-2.65.65-2.65,2.75v10.63c0,2.32.24,2.73,2.65,2.73v.81h-7.77v-.81c2.43,0,2.67-.41,2.67-2.73v-10.63Z"/>
    <path d="m657.3,465.49c0-2.11-.11-2.75-2.67-2.75v-.81h7.77v.81c-2.56,0-2.65.65-2.65,2.75v10.63c0,2.32.24,2.73,2.65,2.73v.81h-7.77v-.81c2.43,0,2.67-.41,2.67-2.73v-10.63Z"/>
    <path d="m435.85,283.52c0-2.11-.11-2.75-2.67-2.75v-.81h7.77v.81c-2.56,0-2.65.65-2.65,2.75v10.64c0,2.32.24,2.73,2.65,2.73v.81h-7.77v-.81c2.43,0,2.67-.41,2.67-2.73v-10.64Z"/>
    <path d="m698.64,283.52c0-2.11-.11-2.75-2.67-2.75v-.81h7.77v.81c-2.56,0-2.64.65-2.64,2.75v10.64c0,2.32.24,2.73,2.64,2.73v.81h-7.77v-.81c2.43,0,2.67-.41,2.67-2.73v-10.64Z"/>
    <path d="m570.31,222.98c0-2.11-.11-2.75-2.67-2.75v-.81h7.77v.81c-2.56,0-2.65.65-2.65,2.75v10.64c0,2.32.24,2.73,2.65,2.73v.81h-7.77v-.81c2.43,0,2.67-.41,2.67-2.73v-10.64Z"/>
  </g>
</svg>