<?xml version="1.0" encoding="UTF-8"?>
<svg id="Layer_1" data-name="Layer 1" xmlns="http://www.w3.org/2000/svg" width="1140" height="881" viewBox="0 0 1140 881">
  <defs>
    <style>
      .cls-1 {
        fill: #e3dae5;
      }

      .cls-2 {
        fill: #969696;
      }

      .cls-3 {
        fill: #926f4e;
      }

      .cls-4 {
        fill: #856b51;
      }

      .cls-5 {
        fill: #d12d32;
      }

      .cls-6 {
        fill: #aa9177;
      }

      .cls-7 {
        fill: #605858;
      }

      .cls-8 {
        fill: #fff;
        stroke-miterlimit: 10;
      }

      .cls-8, .cls-9 {
        stroke: #000;
        stroke-width: 2px;
      }

      .cls-9, .cls-10 {
        fill: none;
        stroke-linecap: round;
        stroke-linejoin: round;
      }

      .cls-10 {
        stroke: #dbae2c;
        stroke-width: 8px;
      }

      .cls-11 {
        opacity: .69;
      }

      .cls-11, .cls-12 {
        fill: #543a27;
      }

      .cls-12 {
        opacity: .5;
      }
    </style>
  </defs>
  <path class="cls-1" d="m1132.66,462.73c2,171.15,17.57,275.92-27.02,335.05-85.85,113.86-295.01,70.85-589.35,71.55-362.95.86-510.93,73.07-507.83-300.3C12.92,30.75-50.88-11.18,348.69,9.36c183.92,9.45,367.28-10.16,529.1-2.49,84.39,4,178.34,19.28,216.84,92.45,42.3,80.39,36.19,206.42,38.03,363.42Z"/>
  <g>
    <path d="m64.3,84.46v-21.33h6.56c1.88,0,3.55.42,5.03,1.27s2.63,2.05,3.46,3.6,1.25,3.33,1.25,5.31v.98c0,1.98-.41,3.75-1.22,5.29s-1.97,2.74-3.45,3.59-3.16,1.28-5.02,1.29h-6.61Zm4.39-17.77v14.24h2.12c1.72,0,3.03-.56,3.94-1.68s1.37-2.73,1.39-4.82v-1.13c0-2.17-.45-3.81-1.35-4.93s-2.21-1.68-3.94-1.68h-2.17Z"/>
    <path d="m83.49,64.51c0-.63.21-1.16.64-1.57s1-.62,1.74-.62,1.3.21,1.73.62.64.93.64,1.57-.22,1.17-.65,1.58-1.01.62-1.72.62-1.29-.21-1.72-.62-.65-.94-.65-1.58Zm4.5,19.95h-4.25v-15.85h4.25v15.85Z"/>
    <path d="m100.66,84.46c-.2-.38-.34-.85-.42-1.42-1.03,1.14-2.36,1.71-4,1.71-1.55,0-2.84-.45-3.86-1.35s-1.53-2.03-1.53-3.4c0-1.68.62-2.97,1.87-3.87s3.04-1.35,5.4-1.36h1.95v-.91c0-.73-.19-1.32-.56-1.76s-.97-.66-1.78-.66c-.71,0-1.27.17-1.68.51s-.61.81-.61,1.41h-4.23c0-.92.28-1.77.85-2.55s1.37-1.39,2.4-1.84,2.2-.67,3.49-.67c1.95,0,3.5.49,4.65,1.47s1.72,2.36,1.72,4.14v6.87c0,1.5.22,2.64.63,3.41v.25h-4.28Zm-3.5-2.94c.62,0,1.2-.14,1.73-.42s.92-.65,1.17-1.12v-2.72h-1.58c-2.12,0-3.25.73-3.38,2.2v.25c-.01.53.17.96.54,1.3s.88.51,1.52.51Z"/>
    <path d="m106.94,76.42c0-2.43.58-4.39,1.74-5.87s2.72-2.23,4.68-2.23c1.74,0,3.09.6,4.06,1.79l.18-1.49h3.84v15.32c0,1.39-.31,2.59-.94,3.62s-1.52,1.81-2.66,2.34-2.48.81-4.01.81c-1.16,0-2.29-.23-3.4-.7s-1.94-1.06-2.5-1.79l1.88-2.58c1.05,1.18,2.33,1.77,3.84,1.77,1.12,0,2-.3,2.62-.9s.94-1.45.94-2.56v-.85c-.98,1.1-2.26,1.66-3.85,1.66-1.9,0-3.44-.74-4.62-2.23s-1.77-3.46-1.77-5.93v-.18Zm4.23.31c0,1.44.29,2.57.86,3.38.58.82,1.37,1.23,2.37,1.23,1.29,0,2.21-.48,2.77-1.45v-6.67c-.57-.97-1.48-1.45-2.74-1.45-1.02,0-1.81.42-2.4,1.25-.58.83-.87,2.07-.87,3.73Z"/>
    <path d="m133.59,72.58c-.58-.08-1.08-.12-1.52-.12-1.6,0-2.65.54-3.15,1.63v10.37h-4.23v-15.85h4l.12,1.89c.85-1.46,2.03-2.18,3.53-2.18.47,0,.91.06,1.32.19l-.06,4.07Z"/>
    <path d="m144.37,84.46c-.2-.38-.34-.85-.42-1.42-1.03,1.14-2.36,1.71-4,1.71-1.55,0-2.84-.45-3.86-1.35s-1.53-2.03-1.53-3.4c0-1.68.62-2.97,1.87-3.87s3.04-1.35,5.4-1.36h1.95v-.91c0-.73-.19-1.32-.56-1.76s-.97-.66-1.78-.66c-.71,0-1.27.17-1.68.51s-.61.81-.61,1.41h-4.23c0-.92.28-1.77.85-2.55s1.37-1.39,2.4-1.84,2.2-.67,3.49-.67c1.95,0,3.5.49,4.65,1.47s1.72,2.36,1.72,4.14v6.87c0,1.5.22,2.64.63,3.41v.25h-4.28Zm-3.5-2.94c.62,0,1.2-.14,1.73-.42s.92-.65,1.17-1.12v-2.72h-1.58c-2.12,0-3.25.73-3.38,2.2v.25c-.01.53.17.96.54,1.3s.88.51,1.52.51Z"/>
    <path d="m155.24,68.61l.13,1.77c1.12-1.38,2.64-2.07,4.56-2.07,2.04,0,3.44.81,4.2,2.42,1.11-1.61,2.7-2.42,4.76-2.42,1.72,0,3,.5,3.84,1.5s1.26,2.51,1.26,4.52v10.12h-4.25v-10.11c0-.9-.18-1.56-.53-1.97s-.97-.62-1.86-.62c-1.27,0-2.15.61-2.64,1.82v10.88s-4.22,0-4.22,0v-10.09c0-.92-.18-1.58-.54-1.99s-.98-.62-1.85-.62c-1.2,0-2.07.5-2.61,1.49v11.21h-4.23v-15.85h3.97Z"/>
    <path d="m197.03,80.07h-7.71l-1.46,4.39h-4.67l7.94-21.33h4.07l7.98,21.33h-4.67l-1.48-4.39Zm-6.52-3.56h5.33l-2.68-7.98-2.65,7.98Z"/>
  </g>
  <g>
    <g>
      <path class="cls-10" d="m204.39,343.69c7.88,0,11.3-3.82,19.43-10.6"/>
      <path class="cls-10" d="m279.52,154.29c-5.14-7.27-11.92-11.38-20.09-11.38"/>
      <path class="cls-10" d="m266.34,343.69c7.88,0,11.3-3.82,19.43-10.6"/>
      <path class="cls-10" d="m341.47,154.29c-5.14-7.27-11.92-11.38-20.09-11.38"/>
      <path class="cls-10" d="m328.29,343.69c7.88,0,11.3-3.82,19.43-10.6"/>
      <path class="cls-10" d="m403.42,154.29c-5.14-7.27-11.92-11.38-20.09-11.38"/>
      <path class="cls-10" d="m390.23,343.69c7.88,0,11.3-3.82,19.43-10.6"/>
      <path class="cls-10" d="m465.36,154.29c-5.14-7.27-11.92-11.38-20.09-11.38"/>
      <path class="cls-10" d="m452.18,343.69c7.88,0,11.3-3.82,19.43-10.6"/>
      <path class="cls-10" d="m527.31,154.29c-5.14-7.27-11.92-11.38-20.09-11.38"/>
      <path class="cls-10" d="m514.13,343.69c7.88,0,11.3-3.82,19.43-10.6"/>
      <path class="cls-10" d="m217.57,154.29c-5.14-7.27-11.92-11.38-20.09-11.38"/>
      <path class="cls-10" d="m125.1,396.52h464.16v-242.23c-5.14-7.27-11.92-11.38-20.09-11.38"/>
    </g>
    <rect class="cls-6" x="126.2" y="152.8" width="496" height="181"/>
    <ellipse class="cls-3" cx="624.34" cy="243.3" rx="43.47" ry="90.5"/>
    <ellipse class="cls-6" cx="127.69" cy="243.3" rx="43.47" ry="90.5"/>
    <ellipse class="cls-12" cx="625.02" cy="243.3" rx="38.54" ry="84.58"/>
    <path class="cls-11" d="m625.02,158.72c11.39,0,21.63,10.85,28.68,28.09,3.44,53.7-20.57,105.81-51.08,123.93-10.16-12.94-16.14-45.97-16.14-67.44,0-46.71,17.25-84.58,38.54-84.58Z"/>
    <path class="cls-4" d="m586.92,153.79c-84.75,6.84-163.33,69.72-183.05,153.28-1.37,4.71-2.38,10.21-3.43,15-.61,3.58-1.23,7.27-1.88,10.86-.01.08-.09.14-.17.13-.08-.01-.13-.08-.12-.16.61-5.85,1.13-11.74,2.29-17.53.75-4.9,2.11-10.34,3.28-15.14,17.57-67.15,73.69-120.17,139.48-139.91,9.84-2.99,20.11-5.13,30.35-6.21,4.4-.44,8.84-.6,13.26-.61.08,0,.15.06.15.14,0,.08-.06.15-.14.15h0Z"/>
    <path class="cls-4" d="m337.42,153.79c-84.75,6.84-163.33,69.72-183.05,153.28-1.37,4.71-2.38,10.21-3.43,15-.61,3.58-1.23,7.27-1.88,10.86-.01.08-.09.14-.17.13-.08-.01-.13-.08-.12-.16.61-5.85,1.13-11.74,2.29-17.53.75-4.9,2.11-10.34,3.28-15.14,17.57-67.15,73.69-120.17,139.48-139.91,9.84-2.99,20.11-5.13,30.35-6.21,4.4-.44,8.84-.6,13.26-.61.08,0,.15.06.15.14,0,.08-.06.15-.14.15h0Z"/>
    <g>
      <circle class="cls-8" cx="541.63" cy="243.75" r="27.1"/>
      <path d="m549.71,252.95h-4.1l-7.98-13.1v13.1h-4.1v-19.91h4.1l8,13.12v-13.12h4.09v19.91Z"/>
    </g>
    <path class="cls-10" d="m259.43,142.91c-27.03,0-55.57,38.47-72.38,92.77-16.81,54.3-9.69,108.01,17.34,108.01"/>
    <path class="cls-10" d="m321.38,142.91c-27.03,0-55.57,38.47-72.38,92.77-16.81,54.3-9.69,108.01,17.34,108.01"/>
    <path class="cls-10" d="m383.32,142.91c-27.03,0-55.57,38.47-72.38,92.77-16.81,54.3-9.69,108.01,17.34,108.01"/>
    <path class="cls-10" d="m445.27,142.91c-27.03,0-55.57,38.47-72.38,92.77-16.81,54.3-9.69,108.01,17.34,108.01"/>
    <path class="cls-10" d="m507.22,142.91c-27.03,0-55.57,38.47-72.38,92.77-16.81,54.3-9.69,108.01,17.34,108.01"/>
    <path class="cls-10" d="m569.17,142.91c-27.03,0-55.57,38.47-72.38,92.77-16.81,54.3-9.69,108.01,17.34,108.01"/>
    <path class="cls-10" d="m197.48,142.91c-16.33,0-33.21,14.04-47.73,37.14-16.34,26-24.65,56.25-24.65,86.95v129.52"/>
  </g>
  <g>
    <g>
      <path class="cls-5" d="m801.38,154.85h90.54v170.23c0,3.68-2.99,6.68-6.68,6.68h-77.19c-3.68,0-6.68-2.99-6.68-6.68v-170.23h0Z" transform="translate(1089.98 -603.34) rotate(90)"/>
      <path class="cls-2" d="m938.73,169.85h77.19c3.68,0,6.68,2.99,6.68,6.68v140.23h-90.54v-140.23c0-3.68,2.99-6.68,6.68-6.68Z" transform="translate(1220.67 -734.02) rotate(90)"/>
    </g>
    <g>
      <path class="cls-5" d="m778.38,154.85h90.54v170.23c0,3.68-2.99,6.68-6.68,6.68h-77.19c-3.68,0-6.68-2.99-6.68-6.68v-170.23h0Z" transform="translate(1066.98 -580.34) rotate(90)"/>
      <path class="cls-2" d="m915.73,169.85h77.19c3.68,0,6.68,2.99,6.68,6.68v140.23h-90.54v-140.23c0-3.68,2.99-6.68,6.68-6.68Z" transform="translate(1197.67 -711.02) rotate(90)"/>
    </g>
    <g>
      <rect class="cls-8" x="949.72" y="215.57" width="54.09" height="55.46" rx="27.05" ry="27.05"/>
      <path d="m980.27,247.28c0-.77-.27-1.37-.82-1.78s-1.53-.85-2.95-1.31-2.55-.91-3.38-1.36c-2.26-1.22-3.39-2.87-3.39-4.94,0-1.08.3-2.04.91-2.88s1.48-1.5,2.61-1.98,2.41-.71,3.82-.71,2.69.26,3.8.77,1.98,1.24,2.59,2.18.92,2,.92,3.2h-4.1c0-.91-.29-1.62-.86-2.13s-1.38-.76-2.42-.76-1.78.21-2.34.64-.83.98-.83,1.67c0,.65.33,1.19.98,1.63s1.61.85,2.88,1.23c2.33.7,4.03,1.57,5.1,2.61s1.6,2.33,1.6,3.88c0,1.72-.65,3.07-1.96,4.05s-3.06,1.47-5.26,1.47c-1.53,0-2.93-.28-4.18-.84s-2.22-1.33-2.88-2.3-.99-2.11-.99-3.39h4.12c0,2.2,1.31,3.29,3.94,3.29.98,0,1.74-.2,2.28-.59s.82-.95.82-1.66Z"/>
    </g>
    <g>
      <circle class="cls-8" cx="784.45" cy="243.3" r="27.1"/>
      <path d="m792.53,252.5h-4.1l-7.98-13.1v13.1h-4.1v-19.91h4.1l8,13.12v-13.12h4.09v19.91Z"/>
    </g>
    <path class="cls-7" d="m1021.11,197.89c3.91-.56,7.72,3.09,7.58,7.08,0,0,.04,1.53.04,1.53.09,4.09.09,8.18.14,12.27.19,20.45.15,40.9-.16,61.35-.04.88-.02,2.31-.24,3.22-.69,3.3-4.1,5.82-7.36,5.39-.08,0-.14-.08-.13-.16,0-.07.06-.12.13-.13,2.96-.34,5.35-2.56,5.75-5.41.12-.75.02-2.11,0-2.9-.31-20.45-.34-40.9-.15-61.35-.02-5.04.2-10.14.13-15.17-.42-2.84-2.76-5.05-5.72-5.42-.17,0-.17-.29,0-.29h0Z"/>
  </g>
  <g>
    <path d="m780.26,152.87v-17.06h4.82c1.48,0,2.8.33,3.94.98s2.02,1.59,2.64,2.8.94,2.6.94,4.17v1.09c0,1.61-.31,3.02-.93,4.23s-1.51,2.14-2.66,2.79-2.49.98-4.03,1h-4.72Zm2.25-15.22v13.38h2.37c1.73,0,3.08-.54,4.05-1.62.96-1.08,1.45-2.62,1.45-4.61v-1c0-1.94-.46-3.45-1.37-4.52s-2.2-1.62-3.87-1.64h-2.62Z"/>
    <path d="m795.67,136.83c0-.35.11-.65.32-.89s.53-.36.96-.36.74.12.96.36.33.54.33.89-.11.64-.33.88-.54.35-.96.35-.74-.12-.96-.35-.32-.53-.32-.88Zm2.34,16.04h-2.17v-12.68h2.17v12.68Z"/>
    <path d="m807.61,142.14c-.33-.05-.68-.08-1.07-.08-1.42,0-2.39.61-2.89,1.82v9h-2.17v-12.68h2.11l.04,1.46c.71-1.13,1.72-1.7,3.02-1.7.42,0,.74.05.96.16v2.02Z"/>
    <path d="m814.86,153.11c-1.72,0-3.12-.56-4.2-1.69s-1.62-2.64-1.62-4.53v-.4c0-1.26.24-2.38.72-3.37s1.15-1.76,2.02-2.32,1.8-.84,2.81-.84c1.65,0,2.93.54,3.84,1.63s1.37,2.64,1.37,4.66v.9h-8.59c.03,1.25.4,2.26,1.1,3.03s1.59,1.15,2.67,1.15c.77,0,1.41-.16,1.95-.47s1-.73,1.39-1.24l1.32,1.03c-1.06,1.63-2.66,2.45-4.78,2.45Zm-.27-11.37c-.88,0-1.61.32-2.2.96s-.96,1.53-1.1,2.68h6.35v-.16c-.06-1.1-.36-1.96-.89-2.56s-1.25-.91-2.16-.91Z"/>
    <path d="m827.4,151.34c.77,0,1.45-.23,2.03-.7s.9-1.05.96-1.76h2.05c-.04.73-.29,1.42-.75,2.07s-1.08,1.18-1.85,1.57-1.58.59-2.44.59c-1.73,0-3.1-.58-4.12-1.73s-1.53-2.73-1.53-4.73v-.36c0-1.23.23-2.33.68-3.29s1.1-1.71,1.95-2.24,1.85-.8,3.01-.8c1.42,0,2.6.43,3.54,1.28s1.44,1.96,1.51,3.32h-2.05c-.06-.82-.37-1.49-.93-2.02s-1.25-.79-2.07-.79c-1.1,0-1.96.4-2.56,1.19s-.91,1.94-.91,3.44v.41c0,1.46.3,2.59.9,3.38s1.46,1.18,2.58,1.18Z"/>
    <path d="m837.82,137.12v3.07h2.37v1.68h-2.37v7.87c0,.51.11.89.32,1.14.21.25.57.38,1.08.38.25,0,.59-.05,1.03-.14v1.75c-.57.16-1.12.23-1.66.23-.97,0-1.7-.29-2.19-.88s-.74-1.42-.74-2.5v-7.86h-2.31v-1.68h2.31v-3.07h2.17Z"/>
    <path d="m842.73,136.83c0-.35.11-.65.32-.89s.53-.36.96-.36.74.12.96.36.33.54.33.89-.11.64-.33.88-.54.35-.96.35-.74-.12-.96-.35-.32-.53-.32-.88Zm2.34,16.04h-2.17v-12.68h2.17v12.68Z"/>
    <path d="m847.97,146.42c0-1.24.24-2.36.73-3.35s1.17-1.76,2.04-2.3,1.87-.81,2.98-.81c1.73,0,3.12.6,4.19,1.79s1.6,2.79,1.6,4.77v.15c0,1.23-.24,2.34-.71,3.32s-1.15,1.74-2.03,2.29-1.89.82-3.03.82c-1.72,0-3.11-.6-4.18-1.79s-1.6-2.78-1.6-4.75v-.15Zm2.18.26c0,1.41.33,2.54.98,3.39s1.53,1.28,2.62,1.28,1.98-.43,2.62-1.29.97-2.07.97-3.63c0-1.39-.33-2.52-.99-3.38s-1.54-1.29-2.63-1.29-1.93.43-2.59,1.28-.98,2.07-.98,3.66Z"/>
    <path d="m864.28,140.19l.07,1.59c.97-1.22,2.23-1.83,3.8-1.83,2.68,0,4.03,1.51,4.05,4.54v8.38h-2.17v-8.39c0-.91-.22-1.59-.63-2.03s-1.05-.66-1.92-.66c-.7,0-1.32.19-1.85.56s-.95.87-1.24,1.48v9.04h-2.17v-12.68h2.05Z"/>
    <path d="m880.84,146.42c0-1.24.24-2.36.73-3.35s1.17-1.76,2.04-2.3,1.87-.81,2.98-.81c1.73,0,3.12.6,4.19,1.79s1.6,2.79,1.6,4.77v.15c0,1.23-.24,2.34-.71,3.32s-1.15,1.74-2.03,2.29-1.89.82-3.03.82c-1.72,0-3.11-.6-4.18-1.79s-1.6-2.78-1.6-4.75v-.15Zm2.18.26c0,1.41.33,2.54.98,3.39s1.53,1.28,2.62,1.28,1.98-.43,2.62-1.29.97-2.07.97-3.63c0-1.39-.33-2.52-.99-3.38s-1.54-1.29-2.63-1.29-1.93.43-2.59,1.28-.98,2.07-.98,3.66Z"/>
    <path d="m896.17,152.87v-11h-2v-1.68h2v-1.3c0-1.36.36-2.41,1.09-3.15s1.75-1.11,3.08-1.11c.5,0,1,.07,1.49.2l-.12,1.75c-.37-.07-.76-.11-1.17-.11-.7,0-1.25.21-1.63.62-.38.41-.57,1-.57,1.77v1.34h2.71v1.68h-2.71v11h-2.17Z"/>
    <path d="m911.41,140.19l.06,1.41c.93-1.09,2.18-1.64,3.76-1.64,1.77,0,2.98.68,3.62,2.04.42-.61.97-1.1,1.65-1.48s1.47-.56,2.4-.56c2.78,0,4.2,1.47,4.24,4.42v8.5h-2.17v-8.37c0-.91-.21-1.58-.62-2.03s-1.11-.67-2.09-.67c-.8,0-1.47.24-2,.72s-.84,1.13-.93,1.94v8.41h-2.18v-8.31c0-1.84-.9-2.77-2.71-2.77-1.42,0-2.39.61-2.92,1.82v9.26h-2.17v-12.68h2.05Z"/>
    <path d="m929.84,146.42c0-1.24.24-2.36.73-3.35s1.17-1.76,2.04-2.3,1.87-.81,2.98-.81c1.73,0,3.12.6,4.19,1.79s1.6,2.79,1.6,4.77v.15c0,1.23-.24,2.34-.71,3.32s-1.15,1.74-2.03,2.29-1.89.82-3.03.82c-1.72,0-3.11-.6-4.18-1.79s-1.6-2.78-1.6-4.75v-.15Zm2.18.26c0,1.41.33,2.54.98,3.39s1.53,1.28,2.62,1.28,1.98-.43,2.62-1.29.97-2.07.97-3.63c0-1.39-.33-2.52-.99-3.38s-1.54-1.29-2.63-1.29-1.93.43-2.59,1.28-.98,2.07-.98,3.66Z"/>
    <path d="m947.04,137.12v3.07h2.37v1.68h-2.37v7.87c0,.51.11.89.32,1.14.21.25.57.38,1.08.38.25,0,.59-.05,1.03-.14v1.75c-.57.16-1.12.23-1.66.23-.97,0-1.7-.29-2.19-.88s-.74-1.42-.74-2.5v-7.86h-2.31v-1.68h2.31v-3.07h2.17Z"/>
    <path d="m951.95,136.83c0-.35.11-.65.32-.89s.53-.36.96-.36.74.12.96.36.33.54.33.89-.11.64-.33.88-.54.35-.96.35-.74-.12-.96-.35-.32-.53-.32-.88Zm2.34,16.04h-2.17v-12.68h2.17v12.68Z"/>
    <path d="m957.19,146.42c0-1.24.24-2.36.73-3.35s1.17-1.76,2.04-2.3,1.87-.81,2.98-.81c1.73,0,3.12.6,4.19,1.79s1.6,2.79,1.6,4.77v.15c0,1.23-.24,2.34-.71,3.32s-1.15,1.74-2.03,2.29-1.89.82-3.03.82c-1.72,0-3.11-.6-4.18-1.79s-1.6-2.78-1.6-4.75v-.15Zm2.18.26c0,1.41.33,2.54.98,3.39s1.53,1.28,2.62,1.28,1.98-.43,2.62-1.29.97-2.07.97-3.63c0-1.39-.33-2.52-.99-3.38s-1.54-1.29-2.63-1.29-1.93.43-2.59,1.28-.98,2.07-.98,3.66Z"/>
    <path d="m973.5,140.19l.07,1.59c.97-1.22,2.23-1.83,3.8-1.83,2.68,0,4.03,1.51,4.05,4.54v8.38h-2.17v-8.39c0-.91-.22-1.59-.63-2.03s-1.05-.66-1.92-.66c-.7,0-1.32.19-1.85.56s-.95.87-1.24,1.48v9.04h-2.17v-12.68h2.05Z"/>
  </g>
  <g>
    <line class="cls-9" x1="950.84" y1="177.76" x2="819.66" y2="177.76"/>
    <polygon points="821.99 169.78 808.17 177.76 821.99 185.74 821.99 169.78"/>
  </g>
  <g>
    <line class="cls-9" x1="259.63" y1="420.63" x2="431.04" y2="420.63"/>
    <polygon points="428.7 428.61 442.52 420.63 428.7 412.65 428.7 428.61"/>
  </g>
  <g>
    <g>
      <path class="cls-9" d="m542.69,127.58c9.23-8.39,18.83-13.06,28.26-13.06,12.32,0,22.52,9.33,25.7,18.89"/>
      <polygon points="550.1 131.62 534.72 135.85 538.74 120.41 550.1 131.62"/>
    </g>
    <g>
      <path class="cls-9" d="m418.21,127.58c9.23-8.39,18.83-13.06,28.26-13.06s16.86,4.98,21.69,11.38"/>
      <polygon points="425.62 131.62 410.24 135.85 414.26 120.41 425.62 131.62"/>
    </g>
    <g>
      <path class="cls-9" d="m356.18,127.58c9.23-8.39,18.83-13.06,28.26-13.06s16.86,4.98,21.69,11.38"/>
      <polygon points="363.6 131.62 348.21 135.85 352.24 120.41 363.6 131.62"/>
    </g>
    <g>
      <path class="cls-9" d="m232.13,127.58c9.23-8.39,18.83-13.06,28.26-13.06s16.86,4.98,21.69,11.38"/>
      <polygon points="239.54 131.62 224.16 135.85 228.18 120.41 239.54 131.62"/>
    </g>
    <g>
      <path class="cls-9" d="m170.1,127.58c9.23-8.39,18.83-13.06,28.26-13.06s16.86,4.98,21.69,11.38"/>
      <polygon points="177.51 131.62 162.13 135.85 166.15 120.41 177.51 131.62"/>
    </g>
    <g>
      <path class="cls-9" d="m480.24,127.58c9.23-8.39,18.83-13.06,28.26-13.06s16.86,4.98,21.69,11.38"/>
      <polygon points="487.65 131.62 472.27 135.85 476.29 120.41 487.65 131.62"/>
    </g>
    <g>
      <path class="cls-9" d="m294.16,127.58c9.23-8.39,18.83-13.06,28.26-13.06s16.86,4.98,21.69,11.38"/>
      <polygon points="301.57 131.62 286.19 135.85 290.21 120.41 301.57 131.62"/>
    </g>
  </g>
  <g>
    <path d="m64.3,484.46v-21.33h6.56c1.88,0,3.55.42,5.03,1.27s2.63,2.05,3.46,3.6,1.25,3.33,1.25,5.31v.98c0,1.98-.41,3.75-1.22,5.29s-1.97,2.74-3.45,3.59-3.16,1.28-5.02,1.29h-6.61Zm4.39-17.77v14.24h2.12c1.72,0,3.03-.56,3.94-1.68s1.37-2.73,1.39-4.82v-1.13c0-2.17-.45-3.81-1.35-4.93s-2.21-1.68-3.94-1.68h-2.17Z"/>
    <path d="m83.49,464.51c0-.63.21-1.16.64-1.57s1-.62,1.74-.62,1.3.21,1.73.62.64.93.64,1.57-.22,1.17-.65,1.58-1.01.62-1.72.62-1.29-.21-1.72-.62-.65-.94-.65-1.58Zm4.5,19.95h-4.25v-15.85h4.25v15.85Z"/>
    <path d="m100.66,484.46c-.2-.38-.34-.85-.42-1.42-1.03,1.14-2.36,1.71-4,1.71-1.55,0-2.84-.45-3.86-1.35s-1.53-2.03-1.53-3.4c0-1.68.62-2.97,1.87-3.87s3.04-1.35,5.4-1.36h1.95v-.91c0-.73-.19-1.32-.56-1.76s-.97-.66-1.78-.66c-.71,0-1.27.17-1.68.51s-.61.81-.61,1.41h-4.23c0-.92.28-1.77.85-2.55s1.37-1.39,2.4-1.84,2.2-.67,3.49-.67c1.95,0,3.5.49,4.65,1.47s1.72,2.36,1.72,4.14v6.87c0,1.5.22,2.64.63,3.41v.25h-4.28Zm-3.5-2.94c.62,0,1.2-.14,1.73-.42s.92-.65,1.17-1.12v-2.72h-1.58c-2.12,0-3.25.73-3.38,2.2v.25c-.01.53.17.96.54,1.3s.88.51,1.52.51Z"/>
    <path d="m106.94,476.42c0-2.43.58-4.39,1.74-5.87s2.72-2.23,4.68-2.23c1.74,0,3.09.6,4.06,1.79l.18-1.49h3.84v15.32c0,1.39-.31,2.59-.94,3.62s-1.52,1.81-2.66,2.34-2.48.81-4.01.81c-1.16,0-2.29-.23-3.4-.7s-1.94-1.06-2.5-1.79l1.88-2.58c1.05,1.18,2.33,1.77,3.84,1.77,1.12,0,2-.3,2.62-.9s.94-1.45.94-2.56v-.85c-.98,1.1-2.26,1.66-3.85,1.66-1.9,0-3.44-.75-4.62-2.23s-1.77-3.46-1.77-5.92v-.18Zm4.23.31c0,1.44.29,2.57.86,3.38.58.82,1.37,1.23,2.37,1.23,1.29,0,2.21-.48,2.77-1.45v-6.67c-.57-.97-1.48-1.45-2.74-1.45-1.02,0-1.81.42-2.4,1.25s-.87,2.07-.87,3.73Z"/>
    <path d="m133.59,472.58c-.58-.08-1.08-.12-1.52-.12-1.6,0-2.65.54-3.15,1.63v10.37h-4.23v-15.85h4l.12,1.89c.85-1.46,2.03-2.18,3.53-2.18.47,0,.91.06,1.32.19l-.06,4.07Z"/>
    <path d="m144.37,484.46c-.2-.38-.34-.85-.42-1.42-1.03,1.14-2.36,1.71-4,1.71-1.55,0-2.84-.45-3.86-1.35s-1.53-2.03-1.53-3.4c0-1.68.62-2.97,1.87-3.87s3.04-1.35,5.4-1.36h1.95v-.91c0-.73-.19-1.32-.56-1.76s-.97-.66-1.78-.66c-.71,0-1.27.17-1.68.51s-.61.81-.61,1.41h-4.23c0-.92.28-1.77.85-2.55s1.37-1.39,2.4-1.84,2.2-.67,3.49-.67c1.95,0,3.5.49,4.65,1.47s1.72,2.36,1.72,4.14v6.87c0,1.5.22,2.64.63,3.41v.25h-4.28Zm-3.5-2.94c.62,0,1.2-.14,1.73-.42s.92-.65,1.17-1.12v-2.72h-1.58c-2.12,0-3.25.73-3.38,2.2v.25c-.01.53.17.96.54,1.3s.88.51,1.52.51Z"/>
    <path d="m155.24,468.61l.13,1.77c1.12-1.38,2.64-2.07,4.56-2.07,2.04,0,3.44.81,4.2,2.42,1.11-1.61,2.7-2.42,4.76-2.42,1.72,0,3,.5,3.84,1.5s1.26,2.51,1.26,4.52v10.12h-4.25v-10.11c0-.9-.18-1.56-.53-1.97s-.97-.62-1.86-.62c-1.27,0-2.15.61-2.64,1.82v10.88s-4.22,0-4.22,0v-10.09c0-.92-.18-1.58-.54-1.99s-.98-.62-1.85-.62c-1.2,0-2.07.5-2.61,1.49v11.21h-4.23v-15.85h3.97Z"/>
    <path d="m184.99,484.46v-21.33h7.47c2.59,0,4.55.5,5.89,1.49s2.01,2.44,2.01,4.36c0,1.04-.27,1.96-.81,2.76s-1.28,1.38-2.24,1.75c1.09.27,1.96.83,2.59,1.66s.94,1.85.94,3.05c0,2.05-.65,3.6-1.96,4.66s-3.17,1.59-5.6,1.61h-8.29Zm4.39-12.39h3.25c2.22-.04,3.33-.92,3.33-2.65,0-.97-.28-1.66-.84-2.09s-1.45-.64-2.66-.64h-3.08v5.38Zm0,3.11v5.76h3.76c1.04,0,1.84-.25,2.42-.74s.87-1.17.87-2.04c0-1.95-1.01-2.94-3.03-2.97h-4.03Z"/>
  </g>
  <g>
    <g>
      <path class="cls-10" d="m204.39,743.69c7.88,0,11.3-3.82,19.43-10.6"/>
      <path class="cls-10" d="m279.52,554.29c-5.14-7.27-11.92-11.38-20.09-11.38"/>
      <path class="cls-10" d="m266.34,743.69c7.88,0,11.3-3.82,19.43-10.6"/>
      <path class="cls-10" d="m341.47,554.29c-5.14-7.27-11.92-11.38-20.09-11.38"/>
      <path class="cls-10" d="m328.29,743.69c7.88,0,11.3-3.82,19.43-10.6"/>
      <path class="cls-10" d="m403.42,554.29c-5.14-7.27-11.92-11.38-20.09-11.38"/>
      <path class="cls-10" d="m390.23,743.69c7.88,0,11.3-3.82,19.43-10.6"/>
      <path class="cls-10" d="m465.36,554.29c-5.14-7.27-11.92-11.38-20.09-11.38"/>
      <path class="cls-10" d="m452.18,743.69c7.88,0,11.3-3.82,19.43-10.6"/>
      <path class="cls-10" d="m527.31,554.29c-5.14-7.27-11.92-11.38-20.09-11.38"/>
      <path class="cls-10" d="m514.13,743.69c7.88,0,11.3-3.82,19.43-10.6"/>
      <path class="cls-10" d="m217.57,554.29c-5.14-7.27-11.92-11.38-20.09-11.38"/>
      <path class="cls-10" d="m125.1,796.52h464.16v-242.23c-5.14-7.27-11.92-11.38-20.09-11.38"/>
    </g>
    <rect class="cls-6" x="126.2" y="552.8" width="496" height="181"/>
    <ellipse class="cls-3" cx="624.34" cy="643.3" rx="43.47" ry="90.5"/>
    <ellipse class="cls-6" cx="127.69" cy="643.3" rx="43.47" ry="90.5"/>
    <ellipse class="cls-12" cx="625.02" cy="643.3" rx="38.54" ry="84.58"/>
    <path class="cls-11" d="m625.02,558.72c11.39,0,21.63,10.85,28.68,28.09,3.44,53.7-20.57,105.81-51.08,123.93-10.16-12.94-16.14-45.97-16.14-67.44,0-46.71,17.25-84.58,38.54-84.58Z"/>
    <path class="cls-4" d="m586.92,553.79c-84.75,6.84-163.33,69.72-183.05,153.28-1.37,4.71-2.38,10.21-3.43,15-.61,3.58-1.23,7.27-1.88,10.86-.01.08-.09.14-.17.13-.08-.01-.13-.08-.12-.16.61-5.85,1.13-11.74,2.29-17.53.75-4.9,2.11-10.34,3.28-15.14,17.57-67.15,73.69-120.17,139.48-139.91,9.84-2.99,20.11-5.13,30.35-6.21,4.4-.44,8.84-.6,13.26-.61.08,0,.15.06.15.14,0,.08-.06.15-.14.15h0Z"/>
    <path class="cls-4" d="m337.42,553.79c-84.75,6.84-163.33,69.72-183.05,153.28-1.37,4.71-2.38,10.21-3.43,15-.61,3.58-1.23,7.27-1.88,10.86-.01.08-.09.14-.17.13-.08-.01-.13-.08-.12-.16.61-5.85,1.13-11.74,2.29-17.53.75-4.9,2.11-10.34,3.28-15.14,17.57-67.15,73.69-120.17,139.48-139.91,9.84-2.99,20.11-5.13,30.35-6.21,4.4-.44,8.84-.6,13.26-.61.08,0,.15.06.15.14,0,.08-.06.15-.14.15h0Z"/>
    <g>
      <circle class="cls-8" cx="541.63" cy="643.75" r="27.1"/>
      <path d="m545.12,647.73c0-.77-.27-1.37-.82-1.78s-1.53-.85-2.95-1.31-2.55-.91-3.38-1.36c-2.26-1.22-3.39-2.87-3.39-4.94,0-1.08.3-2.04.91-2.88s1.48-1.5,2.61-1.98,2.41-.71,3.82-.71,2.69.26,3.8.77,1.98,1.24,2.59,2.18.92,2,.92,3.2h-4.1c0-.91-.29-1.62-.86-2.13s-1.38-.76-2.42-.76-1.78.21-2.34.64-.83.98-.83,1.67c0,.65.33,1.19.98,1.63s1.61.85,2.88,1.23c2.33.7,4.03,1.57,5.1,2.61s1.6,2.33,1.6,3.88c0,1.72-.65,3.07-1.96,4.05s-3.06,1.47-5.26,1.47c-1.53,0-2.93-.28-4.18-.84s-2.22-1.33-2.88-2.3-.99-2.11-.99-3.39h4.12c0,2.2,1.31,3.29,3.94,3.29.98,0,1.74-.2,2.28-.59s.82-.95.82-1.66Z"/>
    </g>
    <path class="cls-10" d="m259.43,542.91c-27.03,0-55.57,38.47-72.38,92.77-16.81,54.3-9.69,108.01,17.34,108.01"/>
    <path class="cls-10" d="m321.38,542.91c-27.03,0-55.57,38.47-72.38,92.77-16.81,54.3-9.69,108.01,17.34,108.01"/>
    <path class="cls-10" d="m383.32,542.91c-27.03,0-55.57,38.47-72.38,92.77-16.81,54.3-9.69,108.01,17.34,108.01"/>
    <path class="cls-10" d="m445.27,542.91c-27.03,0-55.57,38.47-72.38,92.77-16.81,54.3-9.69,108.01,17.34,108.01"/>
    <path class="cls-10" d="m507.22,542.91c-27.03,0-55.57,38.47-72.38,92.77-16.81,54.3-9.69,108.01,17.34,108.01"/>
    <path class="cls-10" d="m569.17,542.91c-27.03,0-55.57,38.47-72.38,92.77-16.81,54.3-9.69,108.01,17.34,108.01"/>
    <path class="cls-10" d="m197.48,542.91c-16.33,0-33.21,14.04-47.73,37.14-16.34,26-24.65,56.25-24.65,86.95v129.52"/>
  </g>
  <g>
    <g>
      <path class="cls-5" d="m801.38,554.85h90.54v170.23c0,3.68-2.99,6.68-6.68,6.68h-77.19c-3.68,0-6.68-2.99-6.68-6.68v-170.23h0Z" transform="translate(1489.98 -203.32) rotate(90)"/>
      <path class="cls-2" d="m938.73,569.85h77.19c3.68,0,6.68,2.99,6.68,6.68v140.23h-90.54v-140.23c0-3.68,2.99-6.68,6.68-6.68Z" transform="translate(1620.67 -334) rotate(90)"/>
    </g>
    <g>
      <path class="cls-5" d="m778.38,554.85h90.54v170.23c0,3.68-2.99,6.68-6.68,6.68h-77.19c-3.68,0-6.68-2.99-6.68-6.68v-170.23h0Z" transform="translate(1466.98 -180.32) rotate(90)"/>
      <path class="cls-2" d="m915.73,569.85h77.19c3.68,0,6.68,2.99,6.68,6.68v140.23h-90.54v-140.23c0-3.68,2.99-6.68,6.68-6.68Z" transform="translate(1597.67 -311) rotate(90)"/>
    </g>
    <g>
      <rect class="cls-8" x="949.72" y="615.57" width="54.09" height="55.46" rx="27.05" ry="27.05"/>
      <path d="m980.27,647.28c0-.77-.27-1.37-.82-1.78s-1.53-.85-2.95-1.31-2.55-.91-3.38-1.36c-2.26-1.22-3.39-2.87-3.39-4.94,0-1.08.3-2.04.91-2.88s1.48-1.5,2.61-1.98,2.41-.71,3.82-.71,2.69.26,3.8.77,1.98,1.24,2.59,2.18.92,2,.92,3.2h-4.1c0-.91-.29-1.62-.86-2.13s-1.38-.76-2.42-.76-1.78.21-2.34.64-.83.98-.83,1.67c0,.65.33,1.19.98,1.63s1.61.85,2.88,1.23c2.33.7,4.03,1.57,5.1,2.61s1.6,2.33,1.6,3.88c0,1.72-.65,3.07-1.96,4.05s-3.06,1.47-5.26,1.47c-1.53,0-2.93-.28-4.18-.84s-2.22-1.33-2.88-2.3-.99-2.11-.99-3.39h4.12c0,2.2,1.31,3.29,3.94,3.29.98,0,1.74-.2,2.28-.59s.82-.95.82-1.66Z"/>
    </g>
    <g>
      <circle class="cls-8" cx="784.45" cy="643.3" r="27.1"/>
      <path d="m792.53,652.5h-4.1l-7.98-13.1v13.1h-4.1v-19.91h4.1l8,13.12v-13.12h4.09v19.91Z"/>
    </g>
    <path class="cls-7" d="m1021.11,597.89c3.91-.56,7.72,3.09,7.58,7.08,0,0,.04,1.53.04,1.53.09,4.09.09,8.18.14,12.27.19,20.45.15,40.9-.16,61.35-.04.88-.02,2.31-.24,3.22-.69,3.3-4.1,5.82-7.36,5.39-.08,0-.14-.08-.13-.16,0-.07.06-.12.13-.13,2.96-.34,5.35-2.56,5.75-5.41.12-.75.02-2.11,0-2.9-.31-20.45-.34-40.9-.15-61.35-.02-5.04.2-10.14.13-15.17-.42-2.84-2.76-5.05-5.72-5.42-.17,0-.17-.29,0-.29h0Z"/>
  </g>
  <g>
    <path d="m780.26,552.87v-17.06h4.82c1.48,0,2.8.33,3.94.98s2.02,1.59,2.64,2.8.94,2.6.94,4.17v1.09c0,1.61-.31,3.02-.93,4.23s-1.51,2.14-2.66,2.79-2.49.98-4.03,1h-4.72Zm2.25-15.22v13.38h2.37c1.73,0,3.08-.54,4.05-1.62s1.45-2.62,1.45-4.61v-1c0-1.94-.46-3.45-1.37-4.52s-2.2-1.62-3.87-1.64h-2.62Z"/>
    <path d="m795.67,536.83c0-.35.11-.65.32-.89s.53-.36.96-.36.74.12.96.36.33.54.33.89-.11.64-.33.88-.54.35-.96.35-.74-.12-.96-.35-.32-.53-.32-.88Zm2.34,16.04h-2.17v-12.68h2.17v12.68Z"/>
    <path d="m807.61,542.14c-.33-.05-.68-.08-1.07-.08-1.42,0-2.39.61-2.89,1.82v9h-2.17v-12.68h2.11l.04,1.46c.71-1.13,1.72-1.7,3.02-1.7.42,0,.74.05.96.16v2.02Z"/>
    <path d="m814.86,553.11c-1.72,0-3.12-.56-4.2-1.69s-1.62-2.64-1.62-4.53v-.4c0-1.26.24-2.38.72-3.37s1.15-1.76,2.02-2.32,1.8-.84,2.81-.84c1.65,0,2.93.54,3.84,1.63s1.37,2.64,1.37,4.66v.9h-8.59c.03,1.25.4,2.26,1.1,3.03s1.59,1.15,2.67,1.15c.77,0,1.41-.16,1.95-.47s1-.73,1.39-1.24l1.32,1.03c-1.06,1.63-2.66,2.45-4.78,2.45Zm-.27-11.37c-.88,0-1.61.32-2.2.96s-.96,1.53-1.1,2.68h6.35v-.16c-.06-1.1-.36-1.96-.89-2.56s-1.25-.91-2.16-.91Z"/>
    <path d="m827.4,551.34c.77,0,1.45-.23,2.03-.7s.9-1.05.96-1.76h2.05c-.04.73-.29,1.42-.75,2.07s-1.08,1.18-1.85,1.57-1.58.59-2.44.59c-1.73,0-3.1-.58-4.12-1.73s-1.53-2.73-1.53-4.73v-.36c0-1.23.23-2.33.68-3.29s1.1-1.71,1.95-2.24,1.85-.8,3.01-.8c1.42,0,2.6.43,3.54,1.28s1.44,1.96,1.51,3.32h-2.05c-.06-.82-.37-1.49-.93-2.02s-1.25-.79-2.07-.79c-1.1,0-1.96.4-2.56,1.19s-.91,1.94-.91,3.44v.41c0,1.46.3,2.59.9,3.38s1.46,1.18,2.58,1.18Z"/>
    <path d="m837.82,537.12v3.07h2.37v1.68h-2.37v7.87c0,.51.11.89.32,1.14s.57.38,1.08.38c.25,0,.59-.05,1.03-.14v1.75c-.57.16-1.12.23-1.66.23-.97,0-1.7-.29-2.19-.88s-.74-1.42-.74-2.5v-7.86h-2.31v-1.68h2.31v-3.07h2.17Z"/>
    <path d="m842.73,536.83c0-.35.11-.65.32-.89s.53-.36.96-.36.74.12.96.36.33.54.33.89-.11.64-.33.88-.54.35-.96.35-.74-.12-.96-.35-.32-.53-.32-.88Zm2.34,16.04h-2.17v-12.68h2.17v12.68Z"/>
    <path d="m847.97,546.42c0-1.24.24-2.36.73-3.35s1.17-1.76,2.04-2.3,1.87-.81,2.98-.81c1.73,0,3.12.6,4.19,1.79s1.6,2.79,1.6,4.77v.15c0,1.23-.24,2.34-.71,3.32s-1.15,1.74-2.03,2.29-1.89.82-3.03.82c-1.72,0-3.11-.6-4.18-1.79s-1.6-2.78-1.6-4.75v-.15Zm2.18.26c0,1.41.33,2.54.98,3.39s1.53,1.28,2.62,1.28,1.98-.43,2.62-1.29.97-2.07.97-3.63c0-1.39-.33-2.52-.99-3.38s-1.54-1.29-2.63-1.29-1.93.43-2.59,1.28-.98,2.07-.98,3.66Z"/>
    <path d="m864.28,540.19l.07,1.59c.97-1.22,2.23-1.83,3.8-1.83,2.68,0,4.03,1.51,4.05,4.54v8.38h-2.17v-8.39c0-.91-.22-1.59-.63-2.03s-1.05-.66-1.92-.66c-.7,0-1.32.19-1.85.56s-.95.87-1.24,1.48v9.04h-2.17v-12.68h2.05Z"/>
    <path d="m880.84,546.42c0-1.24.24-2.36.73-3.35s1.17-1.76,2.04-2.3,1.87-.81,2.98-.81c1.73,0,3.12.6,4.19,1.79s1.6,2.79,1.6,4.77v.15c0,1.23-.24,2.34-.71,3.32s-1.15,1.74-2.03,2.29-1.89.82-3.03.82c-1.72,0-3.11-.6-4.18-1.79s-1.6-2.78-1.6-4.75v-.15Zm2.18.26c0,1.41.33,2.54.98,3.39s1.53,1.28,2.62,1.28,1.98-.43,2.62-1.29.97-2.07.97-3.63c0-1.39-.33-2.52-.99-3.38s-1.54-1.29-2.63-1.29-1.93.43-2.59,1.28-.98,2.07-.98,3.66Z"/>
    <path d="m896.17,552.87v-11h-2v-1.68h2v-1.3c0-1.36.36-2.41,1.09-3.15s1.75-1.11,3.08-1.11c.5,0,1,.07,1.49.2l-.12,1.75c-.37-.07-.76-.11-1.17-.11-.7,0-1.25.21-1.63.62-.38.41-.57,1-.57,1.77v1.34h2.71v1.68h-2.71v11h-2.17Z"/>
    <path d="m911.41,540.19l.06,1.41c.93-1.09,2.18-1.64,3.76-1.64,1.77,0,2.98.68,3.62,2.04.42-.61.97-1.1,1.65-1.48s1.47-.56,2.4-.56c2.78,0,4.2,1.47,4.24,4.42v8.5h-2.17v-8.37c0-.91-.21-1.58-.62-2.03s-1.11-.67-2.09-.67c-.8,0-1.47.24-2,.72s-.84,1.13-.93,1.94v8.41h-2.18v-8.31c0-1.84-.9-2.77-2.71-2.77-1.42,0-2.39.61-2.92,1.82v9.26h-2.17v-12.68h2.05Z"/>
    <path d="m929.84,546.42c0-1.24.24-2.36.73-3.35s1.17-1.76,2.04-2.3,1.87-.81,2.98-.81c1.73,0,3.12.6,4.19,1.79s1.6,2.79,1.6,4.77v.15c0,1.23-.24,2.34-.71,3.32s-1.15,1.74-2.03,2.29-1.89.82-3.03.82c-1.72,0-3.11-.6-4.18-1.79s-1.6-2.78-1.6-4.75v-.15Zm2.18.26c0,1.41.33,2.54.98,3.39s1.53,1.28,2.62,1.28,1.98-.43,2.62-1.29.97-2.07.97-3.63c0-1.39-.33-2.52-.99-3.38s-1.54-1.29-2.63-1.29-1.93.43-2.59,1.28-.98,2.07-.98,3.66Z"/>
    <path d="m947.04,537.12v3.07h2.37v1.68h-2.37v7.87c0,.51.11.89.32,1.14s.57.38,1.08.38c.25,0,.59-.05,1.03-.14v1.75c-.57.16-1.12.23-1.66.23-.97,0-1.7-.29-2.19-.88s-.74-1.42-.74-2.5v-7.86h-2.31v-1.68h2.31v-3.07h2.17Z"/>
    <path d="m951.95,536.83c0-.35.11-.65.32-.89s.53-.36.96-.36.74.12.96.36.33.54.33.89-.11.64-.33.88-.54.35-.96.35-.74-.12-.96-.35-.32-.53-.32-.88Zm2.34,16.04h-2.17v-12.68h2.17v12.68Z"/>
    <path d="m957.19,546.42c0-1.24.24-2.36.73-3.35s1.17-1.76,2.04-2.3,1.87-.81,2.98-.81c1.73,0,3.12.6,4.19,1.79s1.6,2.79,1.6,4.77v.15c0,1.23-.24,2.34-.71,3.32s-1.15,1.74-2.03,2.29-1.89.82-3.03.82c-1.72,0-3.11-.6-4.18-1.79s-1.6-2.78-1.6-4.75v-.15Zm2.18.26c0,1.41.33,2.54.98,3.39s1.53,1.28,2.62,1.28,1.98-.43,2.62-1.29.97-2.07.97-3.63c0-1.39-.33-2.52-.99-3.38s-1.54-1.29-2.63-1.29-1.93.43-2.59,1.28-.98,2.07-.98,3.66Z"/>
    <path d="m973.5,540.19l.07,1.59c.97-1.22,2.23-1.83,3.8-1.83,2.68,0,4.03,1.51,4.05,4.54v8.38h-2.17v-8.39c0-.91-.22-1.59-.63-2.03s-1.05-.66-1.92-.66c-.7,0-1.32.19-1.85.56s-.95.87-1.24,1.48v9.04h-2.17v-12.68h2.05Z"/>
  </g>
  <g>
    <line class="cls-9" x1="939.35" y1="577.76" x2="808.17" y2="577.76"/>
    <polygon points="937.02 569.78 950.84 577.76 937.02 585.74 937.02 569.78"/>
  </g>
  <g>
    <line class="cls-9" x1="271.11" y1="820.63" x2="442.52" y2="820.63"/>
    <polygon points="273.44 828.61 259.63 820.63 273.44 812.65 273.44 828.61"/>
  </g>
  <g>
    <g>
      <path class="cls-9" d="m534.72,535.85c11.58-13.54,24.05-21.34,36.23-21.34,7.88,0,14.89,3.81,19.75,9.06"/>
      <polygon points="582.43 526.17 596.65 533.4 595.8 517.47 582.43 526.17"/>
    </g>
    <g>
      <path class="cls-9" d="m410.24,535.85c11.58-13.54,24.05-21.34,36.23-21.34,4.8,0,9.28,1.42,13.14,3.71"/>
      <polygon points="452.45 523.12 468.16 525.9 462.71 510.9 452.45 523.12"/>
    </g>
    <g>
      <path class="cls-9" d="m348.21,535.85c11.58-13.54,24.05-21.34,36.23-21.34,4.8,0,9.28,1.42,13.14,3.71"/>
      <polygon points="390.42 523.12 406.13 525.9 400.68 510.9 390.42 523.12"/>
    </g>
    <g>
      <path class="cls-9" d="m224.16,535.85c11.58-13.54,24.05-21.34,36.23-21.34,4.8,0,9.28,1.42,13.14,3.71"/>
      <polygon points="266.37 523.12 282.08 525.9 276.63 510.9 266.37 523.12"/>
    </g>
    <g>
      <path class="cls-9" d="m162.13,535.85c11.58-13.54,24.05-21.34,36.23-21.34,4.8,0,9.28,1.42,13.14,3.71"/>
      <polygon points="204.34 523.12 220.05 525.9 214.6 510.9 204.34 523.12"/>
    </g>
    <g>
      <path class="cls-9" d="m472.27,535.85c11.58-13.54,24.05-21.34,36.23-21.34,4.8,0,9.28,1.42,13.14,3.71"/>
      <polygon points="514.47 523.12 530.19 525.9 524.73 510.9 514.47 523.12"/>
    </g>
    <g>
      <path class="cls-9" d="m286.19,535.85c11.58-13.54,24.05-21.34,36.23-21.34,4.8,0,9.28,1.42,13.14,3.71"/>
      <polygon points="328.39 523.12 344.1 525.9 338.65 510.9 328.39 523.12"/>
    </g>
  </g>
</svg>