<?xml version="1.0" encoding="UTF-8"?>
<svg id="Layer_1" data-name="Layer 1" xmlns="http://www.w3.org/2000/svg" width="1140" height="448" viewBox="0 0 1140 448">
  <defs>
    <style>
      .cls-1 {
        fill: #f7ecd0;
      }

      .cls-2 {
        fill: #969696;
      }

      .cls-3 {
        fill: #926f4e;
      }

      .cls-4 {
        fill: #856b51;
      }

      .cls-5 {
        fill: #d12d32;
      }

      .cls-6 {
        fill: #aa9177;
      }

      .cls-7 {
        fill: #4d4646;
      }

      .cls-8 {
        fill: #fff;
        stroke-miterlimit: 10;
      }

      .cls-8, .cls-9 {
        stroke: #000;
        stroke-width: 2px;
      }

      .cls-9, .cls-10 {
        fill: none;
        stroke-linecap: round;
        stroke-linejoin: round;
      }

      .cls-10 {
        stroke: #dbae2c;
        stroke-width: 8px;
      }

      .cls-11 {
        opacity: .69;
      }

      .cls-11, .cls-12 {
        fill: #543a27;
      }

      .cls-12 {
        opacity: .5;
      }
    </style>
  </defs>
  <path class="cls-1" d="m15.76,218.89C13.76,131.23-6.45,51.58,44.54,31.18,132.14-3.86,321.39-3.45,615.29,12.92c372.82,20.76,518.91-45.38,515.81,145.87-4.46,275.72,83.89,288.37-315.68,277.85-183.92-4.84-399.7,11.98-561.52,8.06-84.39-2.05-190.88-1.87-229.38-39.34-42.3-41.18-6.93-106.04-8.76-186.46Z"/>
  <g>
    <path class="cls-10" d="m661.11,115.55c-7.25-14.61-15.31-4.35-15.41,9.6"/>
    <path class="cls-10" d="m599.51,289.34c1.83,8.76,6.07,19.42,15.51,22.16"/>
    <path class="cls-10" d="m726.28,116.37c-7.23-15.8-15.7-5.42-15.8,8.79"/>
    <path class="cls-10" d="m664.29,289.34c1.83,8.76,6.07,19.42,15.51,22.16"/>
    <path class="cls-10" d="m791.09,116.44c-7.22-15.9-15.73-5.51-15.83,8.72"/>
    <path class="cls-10" d="m729.07,289.34c1.83,8.76,6.07,19.42,15.51,22.16"/>
    <path class="cls-10" d="m855.9,116.5c-7.22-16-15.76-5.6-15.86,8.65"/>
    <path class="cls-10" d="m793.85,289.34c1.78,8.53,5.68,18.86,14.77,21.93"/>
    <path class="cls-10" d="m919.82,114.76c-7.26-13.44-14.9-3.3-15,10.39"/>
    <path class="cls-10" d="m858.63,289.34c1.83,8.76,6.07,19.42,15.51,22.16"/>
    <path class="cls-10" d="m985.85,117.4c-7.18-17.27-8.51-6.75-8.61,7.75"/>
    <path class="cls-10" d="m923.42,289.34c1.83,8.76,6.07,19.42,15.51,22.16"/>
    <path class="cls-10" d="m580.26,108.46c-5.2.45-7.03,9.07-3.32,24.69"/>
    <path class="cls-10" d="m985.96,125.15v238.37h-394.37"/>
    <rect class="cls-6" x="496.32" y="119.8" width="536" height="181"/>
    <ellipse class="cls-3" cx="494.18" cy="210.3" rx="43.47" ry="90.5"/>
    <path class="cls-6" d="m1074.31,210.3c0-49.98-19.46-90.5-43.47-90.5-24.01,0-43.47,40.52-43.47,90.5s19.46,90.5,43.47,90.5c24.01,0,43.47-40.52,43.47-90.5Z"/>
    <path class="cls-12" d="m532.03,210.3c0,46.71-17.25,84.58-38.54,84.58-21.28,0-38.54-37.87-38.54-84.58s17.25-84.58,38.54-84.58,38.54,37.87,38.54,84.58Z"/>
    <path class="cls-11" d="m493.5,125.72c-11.39,0-21.63,10.85-28.68,28.09-3.44,53.7,20.57,105.81,51.08,123.93,10.16-12.94,16.14-45.97,16.14-67.44,0-46.71-17.25-84.58-38.54-84.58Z"/>
    <path class="cls-4" d="m531.61,120.54c14.75-.09,29.51,2.58,43.6,6.82,65.79,19.73,121.92,72.76,139.48,139.91,1.15,4.79,2.54,10.26,3.28,15.14,1.16,5.79,1.68,11.68,2.29,17.53,0,.08-.05.15-.13.16-.08,0-.15-.05-.16-.13-.65-3.58-1.27-7.27-1.88-10.86-1.05-4.79-2.07-10.3-3.43-15-20.08-84.66-98.57-145.7-183.04-153.57h0Z"/>
    <path class="cls-4" d="m756.6,120.54c14.75-.09,29.51,2.58,43.6,6.82,65.79,19.73,121.92,72.76,139.48,139.91,1.15,4.79,2.54,10.26,3.28,15.14,1.16,5.79,1.68,11.68,2.29,17.53,0,.08-.05.15-.13.16-.08,0-.15-.05-.16-.13-.65-3.58-1.27-7.27-1.88-10.86-1.05-4.79-2.07-10.3-3.43-15-20.08-84.66-98.57-145.7-183.04-153.57h0Z"/>
    <path class="cls-10" d="m615.03,311.5c15.75,4.57,35.21-12.84,47.15-97.65,8.09-57.44,4.89-86.28-1.07-98.3"/>
    <path class="cls-10" d="m679.81,311.5c15.75,4.57,35.21-12.84,47.15-97.65,7.91-56.18,5.02-85-.68-97.48"/>
    <path class="cls-10" d="m744.59,311.5c15.75,4.57,35.21-12.84,47.15-97.65,7.9-56.08,5.03-84.9-.65-97.42"/>
    <path class="cls-10" d="m808.62,311.27c15.8,5.34,35.77-11.26,47.9-97.41,7.88-55.98,5.05-84.79-.62-97.35"/>
    <path class="cls-10" d="m874.15,311.5c15.75,4.57,35.21-12.84,47.15-97.65,8.27-58.75,4.74-87.58-1.48-99.09"/>
    <path class="cls-10" d="m938.93,311.5c15.75,4.57,35.21-12.84,47.15-97.65,7.7-54.69,5.17-83.45-.23-96.45"/>
    <path class="cls-10" d="m591.14,363.52c0-33.1,3.13-107.7,3.13-154.1s-.9-100.98-14.01-100.96"/>
  </g>
  <g>
    <g>
      <path class="cls-5" d="m233.28,121.85h77.19c3.68,0,6.68,2.99,6.68,6.68v170.23h-90.54v-170.23c0-3.68,2.99-6.68,6.68-6.68Z" transform="translate(482.16 -61.58) rotate(90)"/>
      <path class="cls-2" d="m95.92,136.85h90.54v140.23c0,3.68-2.99,6.68-6.68,6.68h-77.19c-3.68,0-6.68-2.99-6.68-6.68v-140.23h0Z" transform="translate(351.48 69.1) rotate(90)"/>
    </g>
    <g>
      <path class="cls-5" d="m256.28,121.85h77.19c3.68,0,6.68,2.99,6.68,6.68v170.23h-90.54v-170.23c0-3.68,2.99-6.68,6.68-6.68Z" transform="translate(505.16 -84.58) rotate(90)"/>
      <path class="cls-2" d="m118.92,136.85h90.54v140.23c0,3.68-2.99,6.68-6.68,6.68h-77.19c-3.68,0-6.68-2.99-6.68-6.68v-140.23h0Z" transform="translate(374.48 46.1) rotate(90)"/>
    </g>
    <g>
      <rect class="cls-8" x="114.7" y="182.57" width="54.09" height="55.46" rx="27.05" ry="27.05" transform="translate(283.5 420.61) rotate(-180)"/>
      <path d="m145.24,214.28c0-.77-.27-1.37-.82-1.78s-1.53-.85-2.95-1.31-2.55-.91-3.38-1.36c-2.26-1.22-3.39-2.87-3.39-4.94,0-1.08.3-2.04.91-2.88s1.48-1.5,2.61-1.98,2.41-.71,3.82-.71,2.69.26,3.8.77,1.98,1.24,2.59,2.18.92,2,.92,3.2h-4.1c0-.91-.29-1.62-.86-2.13s-1.38-.76-2.42-.76-1.78.21-2.34.64-.83.98-.83,1.67c0,.65.33,1.19.98,1.63s1.61.85,2.88,1.23c2.33.7,4.03,1.57,5.1,2.61s1.6,2.33,1.6,3.88c0,1.72-.65,3.07-1.96,4.05s-3.06,1.47-5.26,1.47c-1.53,0-2.93-.28-4.18-.84s-2.22-1.33-2.88-2.3-.99-2.11-.99-3.39h4.12c0,2.2,1.31,3.29,3.94,3.29.98,0,1.74-.2,2.28-.59s.82-.95.82-1.66Z"/>
    </g>
    <g>
      <circle class="cls-8" cx="334.07" cy="210.3" r="27.1"/>
      <path d="m342.15,219.5h-4.1l-7.98-13.1v13.1h-4.1v-19.91h4.1l8,13.12v-13.12h4.09v19.91Z"/>
    </g>
    <path class="cls-7" d="m97.41,165.18c-3.45.41-6.03,3.39-5.77,6.78,0,0,.04,1.53.04,1.53.09,4.09.09,8.18.14,12.27.19,20.45.15,40.9-.15,61.35-.12,1.84-.17,3.87.97,5.43,1,1.56,2.77,2.65,4.78,2.89.08,0,.14.08.13.16,0,.07-.06.12-.13.13-3.26.42-6.67-2.08-7.36-5.39-.23-.92-.2-2.28-.25-3.22-.31-20.45-.35-40.9-.16-61.35.05-4.09.04-8.18.14-12.27-.04-2.19.22-4.56,1.77-6.25,1.45-1.74,3.77-2.61,5.85-2.36.17.01.17.28,0,.29h0Z"/>
  </g>
  <g>
    <path d="m137.45,119.87v-17.06h4.82c1.48,0,2.8.33,3.94.98s2.02,1.59,2.64,2.8.94,2.6.94,4.17v1.09c0,1.61-.31,3.02-.93,4.23s-1.51,2.14-2.66,2.79-2.49.98-4.03,1h-4.72Zm2.25-15.22v13.38h2.37c1.73,0,3.08-.54,4.05-1.62.96-1.08,1.45-2.62,1.45-4.61v-1c0-1.94-.46-3.45-1.37-4.52s-2.2-1.62-3.87-1.64h-2.62Z"/>
    <path d="m152.86,103.83c0-.35.11-.65.32-.89s.53-.36.96-.36.74.12.96.36.33.54.33.89-.11.64-.33.88-.54.35-.96.35-.74-.12-.96-.35-.32-.53-.32-.88Zm2.34,16.04h-2.17v-12.68h2.17v12.68Z"/>
    <path d="m164.8,109.14c-.33-.05-.68-.08-1.07-.08-1.42,0-2.39.61-2.89,1.82v9h-2.17v-12.68h2.11l.04,1.46c.71-1.13,1.72-1.7,3.02-1.7.42,0,.74.05.96.16v2.02Z"/>
    <path d="m172.06,120.11c-1.72,0-3.12-.56-4.2-1.69s-1.62-2.64-1.62-4.53v-.4c0-1.26.24-2.38.72-3.37s1.15-1.76,2.02-2.32,1.8-.84,2.81-.84c1.65,0,2.93.54,3.84,1.63s1.37,2.64,1.37,4.66v.9h-8.59c.03,1.25.4,2.26,1.1,3.03s1.59,1.15,2.67,1.15c.77,0,1.41-.16,1.95-.47s1-.73,1.39-1.24l1.32,1.03c-1.06,1.63-2.66,2.45-4.78,2.45Zm-.27-11.37c-.88,0-1.61.32-2.2.96s-.96,1.53-1.1,2.68h6.35v-.16c-.06-1.1-.36-1.96-.89-2.56s-1.25-.91-2.16-.91Z"/>
    <path d="m184.6,118.34c.77,0,1.45-.23,2.03-.7s.9-1.05.96-1.76h2.05c-.04.73-.29,1.42-.75,2.07s-1.08,1.18-1.85,1.57-1.58.59-2.44.59c-1.73,0-3.1-.58-4.12-1.73s-1.53-2.73-1.53-4.73v-.36c0-1.23.23-2.33.68-3.29s1.1-1.71,1.95-2.24,1.85-.8,3.01-.8c1.42,0,2.6.43,3.54,1.28s1.44,1.96,1.51,3.32h-2.05c-.06-.82-.37-1.49-.93-2.02s-1.25-.79-2.07-.79c-1.1,0-1.96.4-2.56,1.19s-.91,1.94-.91,3.44v.41c0,1.46.3,2.59.9,3.38s1.46,1.18,2.58,1.18Z"/>
    <path d="m195.01,104.12v3.07h2.37v1.68h-2.37v7.87c0,.51.11.89.32,1.14.21.25.57.38,1.08.38.25,0,.59-.05,1.03-.14v1.75c-.57.16-1.12.23-1.66.23-.97,0-1.7-.29-2.19-.88s-.74-1.42-.74-2.5v-7.86h-2.31v-1.68h2.31v-3.07h2.17Z"/>
    <path d="m199.92,103.83c0-.35.11-.65.32-.89s.53-.36.96-.36.74.12.96.36.33.54.33.89-.11.64-.33.88-.54.35-.96.35-.74-.12-.96-.35-.32-.53-.32-.88Zm2.34,16.04h-2.17v-12.68h2.17v12.68Z"/>
    <path d="m205.16,113.42c0-1.24.24-2.36.73-3.35s1.17-1.76,2.04-2.3,1.87-.81,2.98-.81c1.73,0,3.12.6,4.19,1.79s1.6,2.79,1.6,4.77v.15c0,1.23-.24,2.34-.71,3.32s-1.15,1.74-2.03,2.29-1.89.82-3.03.82c-1.72,0-3.11-.6-4.18-1.79s-1.6-2.78-1.6-4.75v-.15Zm2.18.26c0,1.41.33,2.54.98,3.39s1.53,1.28,2.62,1.28,1.98-.43,2.62-1.29.97-2.07.97-3.63c0-1.39-.33-2.52-.99-3.38s-1.54-1.29-2.63-1.29-1.93.43-2.59,1.28-.98,2.07-.98,3.66Z"/>
    <path d="m221.47,107.19l.07,1.59c.97-1.22,2.23-1.83,3.8-1.83,2.68,0,4.03,1.51,4.05,4.54v8.38h-2.17v-8.39c0-.91-.22-1.59-.63-2.03s-1.05-.66-1.92-.66c-.7,0-1.32.19-1.85.56s-.95.87-1.24,1.48v9.04h-2.17v-12.68h2.05Z"/>
    <path d="m238.03,113.42c0-1.24.24-2.36.73-3.35s1.17-1.76,2.04-2.3,1.87-.81,2.98-.81c1.73,0,3.12.6,4.19,1.79s1.6,2.79,1.6,4.77v.15c0,1.23-.24,2.34-.71,3.32s-1.15,1.74-2.03,2.29-1.89.82-3.03.82c-1.72,0-3.11-.6-4.18-1.79s-1.6-2.78-1.6-4.75v-.15Zm2.18.26c0,1.41.33,2.54.98,3.39s1.53,1.28,2.62,1.28,1.98-.43,2.62-1.29.97-2.07.97-3.63c0-1.39-.33-2.52-.99-3.38s-1.54-1.29-2.63-1.29-1.93.43-2.59,1.28-.98,2.07-.98,3.66Z"/>
    <path d="m253.36,119.87v-11h-2v-1.68h2v-1.3c0-1.36.36-2.41,1.09-3.15s1.75-1.11,3.08-1.11c.5,0,1,.07,1.49.2l-.12,1.75c-.37-.07-.76-.11-1.17-.11-.7,0-1.25.21-1.63.62-.38.41-.57,1-.57,1.77v1.34h2.71v1.68h-2.71v11h-2.17Z"/>
    <path d="m268.61,107.19l.06,1.41c.93-1.09,2.18-1.64,3.76-1.64,1.77,0,2.98.68,3.62,2.04.42-.61.97-1.1,1.65-1.48s1.47-.56,2.4-.56c2.78,0,4.2,1.47,4.24,4.42v8.5h-2.17v-8.37c0-.91-.21-1.58-.62-2.03s-1.11-.67-2.09-.67c-.8,0-1.47.24-2,.72s-.84,1.13-.93,1.94v8.41h-2.18v-8.31c0-1.84-.9-2.77-2.71-2.77-1.42,0-2.39.61-2.92,1.82v9.26h-2.17v-12.68h2.05Z"/>
    <path d="m287.03,113.42c0-1.24.24-2.36.73-3.35s1.17-1.76,2.04-2.3,1.87-.81,2.98-.81c1.73,0,3.12.6,4.19,1.79s1.6,2.79,1.6,4.77v.15c0,1.23-.24,2.34-.71,3.32s-1.15,1.74-2.03,2.29-1.89.82-3.03.82c-1.72,0-3.11-.6-4.18-1.79s-1.6-2.78-1.6-4.75v-.15Zm2.18.26c0,1.41.33,2.54.98,3.39s1.53,1.28,2.62,1.28,1.98-.43,2.62-1.29.97-2.07.97-3.63c0-1.39-.33-2.52-.99-3.38s-1.54-1.29-2.63-1.29-1.93.43-2.59,1.28-.98,2.07-.98,3.66Z"/>
    <path d="m304.23,104.12v3.07h2.37v1.68h-2.37v7.87c0,.51.11.89.32,1.14.21.25.57.38,1.08.38.25,0,.59-.05,1.03-.14v1.75c-.57.16-1.12.23-1.66.23-.97,0-1.7-.29-2.19-.88s-.74-1.42-.74-2.5v-7.86h-2.31v-1.68h2.31v-3.07h2.17Z"/>
    <path d="m309.14,103.83c0-.35.11-.65.32-.89s.53-.36.96-.36.74.12.96.36.33.54.33.89-.11.64-.33.88-.54.35-.96.35-.74-.12-.96-.35-.32-.53-.32-.88Zm2.34,16.04h-2.17v-12.68h2.17v12.68Z"/>
    <path d="m314.38,113.42c0-1.24.24-2.36.73-3.35s1.17-1.76,2.04-2.3,1.87-.81,2.98-.81c1.73,0,3.12.6,4.19,1.79s1.6,2.79,1.6,4.77v.15c0,1.23-.24,2.34-.71,3.32s-1.15,1.74-2.03,2.29-1.89.82-3.03.82c-1.72,0-3.11-.6-4.18-1.79s-1.6-2.78-1.6-4.75v-.15Zm2.18.26c0,1.41.33,2.54.98,3.39s1.53,1.28,2.62,1.28,1.98-.43,2.62-1.29.97-2.07.97-3.63c0-1.39-.33-2.52-.99-3.38s-1.54-1.29-2.63-1.29-1.93.43-2.59,1.28-.98,2.07-.98,3.66Z"/>
    <path d="m330.69,107.19l.07,1.59c.97-1.22,2.23-1.83,3.8-1.83,2.68,0,4.03,1.51,4.05,4.54v8.38h-2.17v-8.39c0-.91-.22-1.59-.63-2.03s-1.05-.66-1.92-.66c-.7,0-1.32.19-1.85.56s-.95.87-1.24,1.48v9.04h-2.17v-12.68h2.05Z"/>
  </g>
  <g>
    <line class="cls-9" x1="167.68" y1="144.76" x2="298.86" y2="144.76"/>
    <polygon points="296.53 152.74 310.35 144.76 296.53 136.78 296.53 152.74"/>
  </g>
</svg>