<?xml version="1.0" encoding="UTF-8"?><svg xmlns="http://www.w3.org/2000/svg" width="1140" height="641" viewBox="0 0 1140 641"><g id="a"><path id="b" d="M1119.948,456.355c-85.993,171.985-281.283,181.974-557.661,181.974S58.968,572.087,16.366,412.329C-30.595,236.226,51.587,7.291,274.651,4.356c490.428-6.453,666.258,2.935,766.05,76.312,118.248,86.947,102.727,328.726,79.247,375.687Z" fill="#eaf2f5"/><g id="c"><polyline points="960.815 548.245 148.051 548.245 148.051 332.147" fill="none" stroke="#000" stroke-linecap="round" stroke-linejoin="round" stroke-width="2"/><line x1="497.559" y1="90.603" x2="960.815" y2="90.603" fill="none" stroke="#000" stroke-linecap="round" stroke-linejoin="round" stroke-width="2"/><polyline points="148.051 290.113 148.051 90.603 259.685 90.603" fill="none" stroke="#000" stroke-linecap="round" stroke-linejoin="round" stroke-width="2"/><line x1="148.098" y1="360.547" x2="148.098" y2="332.147" fill="#fff" stroke="#000" stroke-linejoin="round" stroke-width="2"/><line x1="148.098" y1="290.113" x2="148.098" y2="264.547" fill="#fff" stroke="#000" stroke-linejoin="round" stroke-width="2"/></g><polyline id="d" points="498.407 90.6 420.962 90.6 413.539 113.1 406.117 90.603 398.692 68.1 383.846 113.1 369.001 68.1 354.156 113.1 354.138 113.1 339.294 68.1 324.448 113.1 309.601 68.1 309.498 68.1 302.074 90.6 250.938 90.6" fill="none" stroke="#000" stroke-linejoin="round" stroke-width="2"/><polyline id="e" points="711.67 547.092 711.67 369.471 689.17 362.049 711.667 354.626 734.17 347.202 689.17 332.356 734.17 317.511 689.17 302.666 689.17 302.648 734.17 287.803 689.17 272.958 734.17 258.111 734.17 258.008 711.67 250.584 711.67 91.651" fill="none" stroke="#000" stroke-linejoin="round" stroke-width="2"/><polyline id="f" points="453.706 547.092 453.706 369.471 431.206 362.049 453.702 354.626 476.206 347.202 431.206 332.356 476.206 317.511 431.206 302.666 431.206 302.648 476.206 287.803 431.206 272.958 476.206 258.111 476.206 258.008 453.706 250.584 453.706 91.651" fill="none" stroke="#000" stroke-linejoin="round" stroke-width="2"/><polyline id="g" points="960.815 90.528 960.815 141.665 960.815 203.007" fill="none" stroke="#000" stroke-linejoin="round" stroke-width="2"/><polyline id="h" points="960.815 548.689 960.815 378.398 938.315 370.976 960.812 363.553 983.315 356.129 938.315 341.283 983.315 326.438 938.315 311.593 938.315 311.575 983.315 296.73 938.315 281.885 983.315 267.038 983.315 266.935 960.815 259.511 960.815 198.847" fill="none" stroke="#000" stroke-linejoin="round" stroke-width="2"/><g id="i"><line x1="188.732" y1="290.113" x2="104.732" y2="290.113" fill="#fff" stroke="#000" stroke-linejoin="round" stroke-width="2"/><line x1="169.794" y1="304.124" x2="122.754" y2="304.124" fill="#fff" stroke="#000" stroke-linejoin="round" stroke-width="2"/><line x1="188.732" y1="318.135" x2="104.732" y2="318.135" fill="#fff" stroke="#000" stroke-linejoin="round" stroke-width="2"/><line x1="169.794" y1="332.147" x2="122.754" y2="332.147" fill="#fff" stroke="#000" stroke-linejoin="round" stroke-width="2"/></g></g><g id="j"><path d="M306.476,50.369h-7.444l.162-.81c.665,0,1.178-.054,1.537-.162.36-.108.634-.341.823-.702.188-.36.354-.918.499-1.674l2.373-11.583c.108-.503.135-.9.081-1.188-.054-.288-.238-.495-.553-.621-.314-.125-.832-.189-1.551-.189l.162-.81h6.338c1.259,0,2.333.13,3.223.391.891.261,1.573.662,2.05,1.202s.715,1.251.715,2.133c0,.955-.18,1.755-.539,2.403-.36.648-.827,1.179-1.402,1.593-.576.415-1.191.734-1.848.958-.656.226-1.281.392-1.875.5v.135c.324.216.63.544.917.985.288.441.644,1.076,1.065,1.903.423.828,1.003,1.944,1.74,3.348.306.54.643.904,1.012,1.094.368.189.858.283,1.47.283l-.162.81h-4.1c-.504-1.116-.927-2.047-1.268-2.794-.342-.747-.639-1.373-.891-1.876s-.472-.954-.66-1.35c-.189-.396-.392-.801-.607-1.215-.197-.378-.413-.625-.646-.743-.234-.117-.594-.175-1.079-.175h-.81l.189-.999,1.078.027c1.079-.036,2.055-.211,2.927-.526s1.56-.814,2.063-1.499c.503-.684.755-1.602.755-2.754,0-.486-.104-.94-.311-1.364-.206-.423-.562-.765-1.064-1.026-.504-.261-1.205-.392-2.104-.392-.342,0-.616.005-.822.014-.207.009-.463.032-.769.067l-2.697,13.257c-.145.738-.193,1.292-.148,1.661.045.369.247.607.606.715.359.108.926.162,1.699.162l-.135.81Z"/><path d="M321.832,55.36h-5.017l.095-.441c.492,0,.875-.034,1.147-.102s.472-.178.598-.331c.126-.152.215-.359.268-.622l1.415-6.658c.021-.084.037-.157.047-.22.011-.063.017-.121.017-.173,0-.252-.137-.378-.409-.378-.105,0-.236.011-.394.032s-.325.05-.503.086c-.179.037-.356.082-.534.134l.109-.52,3.004-.866h.456l-1.824,8.563c-.011.053-.019.105-.023.158-.006.053-.008.105-.008.157,0,.263.123.451.369.567.246.115.674.173,1.281.173l-.094.441Z"/><path d="M342.244,40.83h-9.764v-1.887h9.764v1.887ZM342.244,45.693h-9.764v-1.875h9.764v1.875Z"/><path d="M358.329,50.369h-2.178v-14.449l-4.366,1.605v-1.969l6.204-2.332h.34v17.145Z"/><path d="M375.361,43.092c0,2.539-.434,4.426-1.3,5.66s-2.22,1.852-4.062,1.852c-1.818,0-3.165-.604-4.039-1.811s-1.327-3.01-1.357-5.408v-2.895c0-2.508.433-4.371,1.299-5.59s2.225-1.828,4.074-1.828c1.834,0,3.184.588,4.05,1.764s1.312,2.99,1.335,5.443v2.812ZM373.195,40.127c0-1.836-.257-3.174-.772-4.014-.515-.84-1.33-1.26-2.446-1.26-1.108,0-1.916.418-2.424,1.254-.507.836-.769,2.121-.784,3.855v3.469c0,1.844.268,3.205.802,4.084.535.879,1.345,1.318,2.43,1.318,1.069,0,1.863-.414,2.382-1.242.52-.828.79-2.133.813-3.914v-3.551Z"/><path d="M378.405,49.232c0-.375.111-.688.334-.938s.556-.375,1.001-.375.782.125,1.013.375c.229.25.345.562.345.938,0,.359-.115.66-.345.902-.23.242-.568.363-1.013.363s-.778-.121-1.001-.363-.334-.543-.334-.902Z"/><path d="M395.133,43.092c0,2.539-.434,4.426-1.3,5.66s-2.22,1.852-4.062,1.852c-1.818,0-3.165-.604-4.039-1.811s-1.327-3.01-1.357-5.408v-2.895c0-2.508.433-4.371,1.299-5.59s2.225-1.828,4.074-1.828c1.834,0,3.184.588,4.05,1.764s1.312,2.99,1.335,5.443v2.812ZM392.967,40.127c0-1.836-.257-3.174-.772-4.014-.515-.84-1.33-1.26-2.446-1.26-1.108,0-1.916.418-2.424,1.254-.507.836-.769,2.121-.784,3.855v3.469c0,1.844.268,3.205.802,4.084.535.879,1.345,1.318,2.43,1.318,1.069,0,1.863-.414,2.382-1.242.52-.828.79-2.133.813-3.914v-3.551Z"/><path d="M411.38,50.369h-7.12l-.566-4.779h.782c.162.612.319,1.107.472,1.485.153.378.369.657.647.837.278.18.67.27,1.174.27h2.454v-.162c-.504-.378-1.029-.814-1.578-1.31-.549-.495-1.057-1.066-1.523-1.714-.468-.648-.846-1.399-1.133-2.254-.288-.855-.432-1.832-.432-2.93,0-1.494.359-2.803,1.079-3.928.719-1.125,1.717-2.002,2.993-2.633,1.277-.63,2.742-.945,4.396-.945,1.673,0,3.129.315,4.37.945,1.24.63,2.202,1.508,2.886,2.633.683,1.125,1.024,2.426,1.024,3.901,0,1.098-.152,2.075-.458,2.93-.307.855-.697,1.611-1.174,2.268-.477.658-.979,1.233-1.51,1.728-.531.496-1.03.932-1.497,1.31v.162h2.266c.539,0,.948-.09,1.227-.27.279-.18.504-.463.675-.851.171-.387.346-.877.526-1.471h.781l-.62,4.779h-7.039v-1.944c.845-.684,1.56-1.499,2.144-2.444.585-.945,1.025-1.944,1.322-2.997.297-1.053.444-2.075.444-3.065,0-2.034-.485-3.622-1.456-4.765s-2.284-1.715-3.938-1.715c-1.709,0-3.058.581-4.046,1.742-.989,1.161-1.483,2.741-1.483,4.738,0,.972.144,1.994.432,3.065.287,1.071.724,2.083,1.308,3.037.584.955,1.309,1.765,2.171,2.43v1.917Z"/><path d="M213.84,316.014c-.453.539-.994.973-1.622,1.301s-1.316.492-2.065.492c-.983,0-1.841-.242-2.57-.727s-1.293-1.166-1.691-2.045c-.397-.879-.597-1.85-.597-2.912,0-1.141.217-2.168.649-3.082.434-.914,1.048-1.613,1.844-2.098s1.725-.727,2.786-.727c1.686,0,3.015.631,3.986,1.893s1.457,2.982,1.457,5.162v.633c0,3.32-.655,5.744-1.967,7.271-1.311,1.527-3.289,2.311-5.935,2.35h-.422v-1.84h.457c1.787-.031,3.16-.497,4.12-1.397s1.483-2.325,1.569-4.274ZM210.503,316.014c.726,0,1.396-.223,2.008-.668s1.06-.996,1.341-1.652v-.867c0-1.422-.309-2.578-.925-3.469-.617-.891-1.397-1.336-2.342-1.336-.952,0-1.717.365-2.294,1.096-.578.73-.867,1.693-.867,2.889,0,1.164.279,2.123.838,2.877.558.754,1.305,1.131,2.241,1.131Z"/><path d="M219.271,322.377c0-.375.111-.688.334-.938s.556-.375,1.001-.375.782.125,1.013.375c.229.25.345.562.345.938,0,.359-.115.66-.345.902-.23.242-.568.363-1.013.363s-.778-.121-1.001-.363-.334-.543-.334-.902Z"/><path d="M236,316.236c0,2.539-.434,4.426-1.3,5.66s-2.22,1.852-4.062,1.852c-1.818,0-3.165-.604-4.039-1.811s-1.327-3.01-1.357-5.408v-2.895c0-2.508.433-4.371,1.299-5.59s2.225-1.828,4.074-1.828c1.834,0,3.184.588,4.05,1.764s1.312,2.99,1.335,5.443v2.812ZM233.834,313.271c0-1.836-.257-3.174-.772-4.014-.515-.84-1.33-1.26-2.446-1.26-1.108,0-1.916.418-2.424,1.254-.507.836-.769,2.121-.784,3.855v3.469c0,1.844.268,3.205.802,4.084.535.879,1.345,1.318,2.43,1.318,1.069,0,1.863-.414,2.382-1.242.52-.828.79-2.133.813-3.914v-3.551Z"/><path d="M250.914,320.525l4.87-14.074h2.458l-6.321,17.062h-1.99l-6.31-17.062h2.446l4.847,14.074Z"/><path d="M1005.488,324.153h-7.445l.162-.81c.666,0,1.178-.054,1.537-.162.361-.108.635-.342.824-.702.188-.359.354-.918.498-1.674l2.373-11.583c.109-.504.135-.9.082-1.188-.055-.287-.238-.494-.553-.621-.314-.125-.832-.188-1.551-.188l.162-.81h6.338c1.258,0,2.332.13,3.223.391.891.262,1.572.662,2.049,1.202s.715,1.251.715,2.133c0,.954-.18,1.755-.539,2.403-.359.647-.826,1.179-1.402,1.593s-1.191.733-1.848.958c-.656.226-1.281.392-1.875.5v.135c.324.216.631.545.918.985.287.441.643,1.076,1.064,1.903.424.828,1.004,1.944,1.74,3.349.307.54.643.904,1.012,1.094.369.188.859.283,1.471.283l-.162.81h-4.1c-.504-1.115-.928-2.047-1.268-2.794-.342-.747-.639-1.373-.891-1.877s-.473-.954-.66-1.35c-.189-.396-.393-.801-.607-1.215-.197-.378-.414-.626-.646-.743-.234-.116-.594-.175-1.08-.175h-.809l.189-.999,1.078.026c1.078-.035,2.055-.211,2.926-.526.873-.314,1.561-.814,2.064-1.498.502-.685.754-1.603.754-2.754,0-.486-.104-.94-.311-1.364-.205-.423-.561-.765-1.064-1.025s-1.205-.392-2.104-.392c-.342,0-.617.005-.822.014-.207.009-.463.031-.77.067l-2.697,13.257c-.145.738-.193,1.292-.148,1.66.045.369.248.607.607.716s.926.162,1.699.162l-.135.81Z"/><path d="M1020.246,329.145h-1.4l1.793-8.358h-.062l-4.105,4.723-.016.062h6.148l-.219,1.086h-7.014l.205-.991,5.865-6.674h.959l-2.154,10.152Z"/><path d="M1041.256,314.614h-9.764v-1.887h9.764v1.887ZM1041.256,319.478h-9.764v-1.875h9.764v1.875Z"/><path d="M1057.34,324.153h-2.178v-14.449l-4.365,1.605v-1.969l6.203-2.332h.34v17.145Z"/><path d="M1074.852,324.153h-11.168v-1.559l5.9-6.562c.875-.992,1.477-1.799,1.809-2.42s.498-1.264.498-1.928c0-.891-.27-1.621-.807-2.191-.539-.57-1.258-.855-2.154-.855-1.078,0-1.914.307-2.512.92s-.896,1.467-.896,2.561h-2.164c0-1.57.504-2.84,1.516-3.809,1.01-.969,2.363-1.453,4.057-1.453,1.584,0,2.836.416,3.758,1.248.92.832,1.381,1.939,1.381,3.322,0,1.68-1.07,3.68-3.207,6l-4.566,4.957h8.557v1.77Z"/><path d="M1077.416,323.017c0-.375.111-.688.334-.938s.557-.375,1.002-.375.781.125,1.012.375.346.562.346.938c0,.359-.115.66-.346.902s-.568.363-1.012.363-.779-.121-1.002-.363-.334-.543-.334-.902Z"/><path d="M1094.145,316.876c0,2.539-.434,4.426-1.299,5.66-.867,1.234-2.221,1.852-4.062,1.852-1.818,0-3.164-.604-4.039-1.811-.873-1.207-1.326-3.01-1.357-5.408v-2.895c0-2.508.434-4.371,1.299-5.59.867-1.219,2.225-1.828,4.074-1.828,1.834,0,3.184.588,4.051,1.764.865,1.176,1.311,2.99,1.334,5.443v2.812ZM1091.979,313.911c0-1.836-.256-3.174-.771-4.014s-1.33-1.26-2.447-1.26c-1.107,0-1.916.418-2.424,1.254-.506.836-.768,2.121-.783,3.855v3.469c0,1.844.268,3.205.801,4.084.535.879,1.346,1.318,2.43,1.318,1.07,0,1.863-.414,2.383-1.242s.789-2.133.812-3.914v-3.551Z"/><path d="M1110.393,324.153h-7.121l-.566-4.778h.783c.162.611.318,1.106.471,1.484.154.378.369.657.648.837.277.181.67.271,1.174.271h2.453v-.162c-.504-.378-1.029-.814-1.578-1.31s-1.057-1.066-1.523-1.715c-.467-.647-.846-1.399-1.133-2.254-.287-.855-.432-1.832-.432-2.93,0-1.494.359-2.804,1.08-3.929.719-1.125,1.717-2.002,2.992-2.633,1.277-.63,2.742-.944,4.396-.944,1.674,0,3.129.314,4.371.944,1.24.631,2.201,1.508,2.885,2.633s1.025,2.426,1.025,3.901c0,1.099-.152,2.075-.459,2.93-.307.855-.697,1.611-1.174,2.268-.477.658-.979,1.233-1.51,1.729s-1.029.932-1.496,1.31v.162h2.266c.539,0,.947-.09,1.227-.271.279-.18.504-.463.674-.851.172-.387.346-.877.527-1.471h.781l-.621,4.778h-7.039v-1.943c.846-.685,1.561-1.499,2.145-2.444.584-.944,1.025-1.943,1.322-2.996.297-1.054.443-2.075.443-3.065,0-2.033-.484-3.622-1.455-4.765-.971-1.144-2.285-1.715-3.938-1.715-1.709,0-3.059.58-4.047,1.741s-1.482,2.741-1.482,4.738c0,.973.143,1.994.432,3.065.287,1.07.723,2.083,1.307,3.037s1.309,1.765,2.172,2.43v1.917Z"/><path d="M498.126,302.535h-7.444l.162-.81c.665,0,1.178-.054,1.537-.162.36-.108.634-.341.823-.702.188-.36.354-.918.499-1.674l2.373-11.583c.108-.503.135-.9.081-1.188-.054-.288-.238-.495-.553-.621-.314-.125-.832-.189-1.551-.189l.162-.81h6.338c1.259,0,2.333.13,3.223.391.891.261,1.573.662,2.05,1.202s.715,1.251.715,2.133c0,.955-.18,1.755-.539,2.403-.36.648-.827,1.179-1.402,1.593-.576.415-1.191.734-1.848.958-.656.226-1.281.392-1.875.5v.135c.324.216.63.544.917.985.288.441.644,1.076,1.065,1.903.423.828,1.003,1.944,1.74,3.348.306.54.643.904,1.012,1.094.368.189.858.283,1.47.283l-.162.81h-4.1c-.504-1.116-.927-2.047-1.268-2.794-.342-.747-.639-1.373-.891-1.876s-.472-.954-.66-1.35c-.189-.396-.392-.801-.607-1.215-.197-.378-.413-.625-.646-.743-.234-.117-.594-.175-1.079-.175h-.81l.189-.999,1.078.027c1.079-.036,2.055-.211,2.927-.526s1.56-.814,2.063-1.499c.503-.684.755-1.602.755-2.754,0-.486-.104-.94-.311-1.364-.206-.423-.562-.765-1.064-1.026-.504-.261-1.205-.392-2.104-.392-.342,0-.616.005-.822.014-.207.009-.463.032-.769.067l-2.697,13.257c-.145.738-.193,1.292-.148,1.661.045.369.247.607.606.715.359.108.926.162,1.699.162l-.135.81Z"/><path d="M513.623,307.526h-6.133l.11-.535,2.877-2.361c.598-.524,1.106-.986,1.525-1.385.419-.398.758-.771,1.015-1.117.257-.347.442-.695.558-1.047s.174-.737.174-1.157c0-.461-.132-.834-.394-1.118-.262-.283-.65-.425-1.164-.425s-.967.116-1.359.346c-.394.231-.815.64-1.267,1.228l-.346-.158c.44-.745.946-1.333,1.518-1.763s1.266-.646,2.084-.646c.744,0,1.331.2,1.761.598.43.399.645.934.645,1.605,0,.546-.126,1.05-.377,1.511-.252.462-.635.942-1.148,1.44s-1.169,1.078-1.966,1.739l-2.421,1.968-.016.079,1.054-.047h2.186c.283,0,.511-.042.684-.126.173-.083.333-.217.479-.401.146-.183.314-.433.503-.748h.456l-1.037,2.519Z"/><path d="M533.894,292.996h-9.764v-1.887h9.764v1.887ZM533.894,297.859h-9.764v-1.875h9.764v1.875Z"/><path d="M554.028,302.535h-11.168v-1.559l5.9-6.562c.874-.992,1.477-1.799,1.809-2.42s.498-1.264.498-1.928c0-.891-.27-1.621-.808-2.191-.539-.57-1.257-.855-2.154-.855-1.077,0-1.914.307-2.511.92-.598.613-.896,1.467-.896,2.561h-2.165c0-1.57.505-2.84,1.516-3.809s2.363-1.453,4.057-1.453c1.584,0,2.837.416,3.758,1.248s1.381,1.939,1.381,3.322c0,1.68-1.069,3.68-3.207,6l-4.565,4.957h8.557v1.77Z"/><path d="M567.011,295.257c0,2.539-.434,4.426-1.3,5.66s-2.22,1.852-4.062,1.852c-1.818,0-3.165-.604-4.039-1.811s-1.327-3.01-1.357-5.408v-2.895c0-2.508.433-4.371,1.299-5.59s2.225-1.828,4.074-1.828c1.834,0,3.184.588,4.05,1.764s1.312,2.99,1.335,5.443v2.812ZM564.845,292.292c0-1.836-.257-3.174-.772-4.014-.515-.84-1.33-1.26-2.446-1.26-1.108,0-1.916.418-2.424,1.254-.507.836-.769,2.121-.784,3.855v3.469c0,1.844.268,3.205.802,4.084.535.879,1.345,1.318,2.43,1.318,1.069,0,1.863-.414,2.382-1.242.52-.828.79-2.133.813-3.914v-3.551Z"/><path d="M570.055,301.398c0-.375.111-.688.334-.938s.556-.375,1.001-.375.782.125,1.013.375c.229.25.345.562.345.938,0,.359-.115.66-.345.902-.23.242-.568.363-1.013.363s-.778-.121-1.001-.363-.334-.543-.334-.902Z"/><path d="M586.783,295.257c0,2.539-.434,4.426-1.3,5.66s-2.22,1.852-4.062,1.852c-1.818,0-3.165-.604-4.039-1.811s-1.327-3.01-1.357-5.408v-2.895c0-2.508.433-4.371,1.299-5.59s2.225-1.828,4.074-1.828c1.834,0,3.184.588,4.05,1.764s1.312,2.99,1.335,5.443v2.812ZM584.617,292.292c0-1.836-.257-3.174-.772-4.014-.515-.84-1.33-1.26-2.446-1.26-1.108,0-1.916.418-2.424,1.254-.507.836-.769,2.121-.784,3.855v3.469c0,1.844.268,3.205.802,4.084.535.879,1.345,1.318,2.43,1.318,1.069,0,1.863-.414,2.382-1.242.52-.828.79-2.133.813-3.914v-3.551Z"/><path d="M603.03,302.535h-7.12l-.566-4.779h.782c.162.612.319,1.107.472,1.485.153.378.369.657.647.837.278.18.67.27,1.174.27h2.454v-.162c-.504-.378-1.029-.814-1.578-1.31-.549-.495-1.057-1.066-1.523-1.714-.468-.648-.846-1.399-1.133-2.254-.288-.855-.432-1.832-.432-2.93,0-1.494.359-2.803,1.079-3.928.719-1.125,1.717-2.002,2.993-2.633,1.277-.63,2.742-.945,4.396-.945,1.673,0,3.129.315,4.37.945,1.24.63,2.202,1.508,2.886,2.633.683,1.125,1.024,2.426,1.024,3.901,0,1.098-.152,2.075-.458,2.93-.307.855-.697,1.611-1.174,2.268-.477.658-.979,1.233-1.51,1.728-.531.496-1.03.932-1.497,1.31v.162h2.266c.539,0,.948-.09,1.227-.27.279-.18.504-.463.675-.851.171-.387.346-.877.526-1.471h.781l-.62,4.779h-7.039v-1.944c.845-.684,1.56-1.499,2.144-2.444.585-.945,1.025-1.944,1.322-2.997.297-1.053.444-2.075.444-3.065,0-2.034-.485-3.622-1.456-4.765s-2.284-1.715-3.938-1.715c-1.709,0-3.058.581-4.046,1.742-.989,1.161-1.483,2.741-1.483,4.738,0,.972.144,1.994.432,3.065.287,1.071.724,2.083,1.308,3.037.584.955,1.309,1.765,2.171,2.43v1.917Z"/><path d="M497.938,346.069h-7.363l.162-.81c.736,0,1.29-.063,1.658-.189.368-.125.643-.382.823-.77.179-.387.351-.976.512-1.769l2.212-10.638c.162-.702.238-1.256.229-1.66-.01-.405-.176-.688-.499-.851s-.899-.243-1.727-.243l.162-.81h7.471l-.161.81c-.792,0-1.385.081-1.78.243s-.675.445-.836.851c-.162.404-.315.958-.459,1.66l-2.212,10.746c-.144.774-.197,1.35-.161,1.728.035.378.22.621.553.729.332.108.858.162,1.578.162l-.162.81Z"/><path d="M506.151,351.061h-6.133l.11-.535,2.877-2.361c.598-.524,1.106-.986,1.525-1.385s.758-.771,1.015-1.117c.257-.347.442-.695.558-1.047s.174-.737.174-1.157c0-.462-.132-.834-.394-1.118-.262-.283-.65-.425-1.164-.425s-.967.116-1.359.347c-.394.23-.815.64-1.267,1.228l-.346-.157c.44-.745.946-1.333,1.518-1.763.571-.431,1.266-.646,2.084-.646.744,0,1.331.199,1.761.598.43.399.645.935.645,1.605,0,.546-.126,1.05-.377,1.512-.252.462-.635.941-1.148,1.44-.514.498-1.169,1.078-1.966,1.739l-2.421,1.968-.016.078,1.054-.047h2.186c.283,0,.511-.042.684-.126s.333-.218.479-.401.314-.433.503-.748h.456l-1.037,2.519Z"/><path d="M526.423,336.53h-9.764v-1.887h9.764v1.887ZM526.423,341.394h-9.764v-1.875h9.764v1.875Z"/><path d="M546.077,338.792c0,2.539-.434,4.426-1.3,5.66s-2.22,1.852-4.062,1.852c-1.818,0-3.165-.604-4.039-1.811s-1.327-3.01-1.357-5.408v-2.895c0-2.508.433-4.371,1.299-5.59s2.225-1.828,4.074-1.828c1.834,0,3.184.588,4.05,1.764s1.312,2.99,1.335,5.443v2.812ZM543.911,335.827c0-1.836-.257-3.174-.772-4.014-.515-.84-1.33-1.26-2.446-1.26-1.108,0-1.916.418-2.424,1.254-.507.836-.769,2.121-.784,3.855v3.469c0,1.844.268,3.205.802,4.084.535.879,1.345,1.318,2.43,1.318,1.069,0,1.863-.414,2.382-1.242.52-.828.79-2.133.813-3.914v-3.551Z"/><path d="M549.121,344.933c0-.375.111-.688.334-.938s.556-.375,1.001-.375.782.125,1.013.375c.229.25.345.562.345.938,0,.359-.115.66-.345.902-.23.242-.568.363-1.013.363s-.778-.121-1.001-.363-.334-.543-.334-.902Z"/><path d="M562.279,346.069h-2.178v-14.449l-4.366,1.605v-1.969l6.204-2.332h.34v17.145Z"/><path d="M569.618,337.515l.866-8.508h8.733v2.004h-6.896l-.515,4.652c.835-.492,1.783-.738,2.845-.738,1.553,0,2.786.514,3.699,1.541s1.37,2.416,1.37,4.166-.475,3.143-1.423,4.154-2.273,1.518-3.975,1.518c-1.506,0-2.735-.418-3.688-1.254s-1.494-1.992-1.627-3.469h2.049c.133.977.479,1.713,1.042,2.209.562.496,1.303.744,2.224.744,1.007,0,1.797-.344,2.371-1.031.573-.688.86-1.637.86-2.848,0-1.141-.311-2.057-.931-2.748s-1.446-1.037-2.476-1.037c-.945,0-1.687.207-2.225.621l-.573.469-1.733-.445Z"/><path d="M597.995,341.604h-7.142l-1.604,4.465h-2.317l6.509-17.062h1.967l6.521,17.062h-2.307l-1.627-4.465ZM591.533,339.765h5.794l-2.902-7.98-2.892,7.98Z"/><path d="M764.038,302.535h-7.444l.162-.81c.665,0,1.178-.054,1.537-.162.36-.108.634-.341.823-.702.188-.36.354-.918.499-1.674l2.373-11.583c.108-.503.135-.9.081-1.188-.054-.288-.238-.495-.553-.621-.314-.125-.832-.189-1.551-.189l.162-.81h6.338c1.259,0,2.333.13,3.223.391.891.261,1.573.662,2.05,1.202s.715,1.251.715,2.133c0,.955-.18,1.755-.539,2.403-.36.648-.827,1.179-1.402,1.593-.576.415-1.191.734-1.848.958-.656.226-1.281.392-1.875.5v.135c.324.216.63.544.917.985.288.441.644,1.076,1.065,1.903.423.828,1.003,1.944,1.74,3.348.306.54.643.904,1.012,1.094.368.189.858.283,1.47.283l-.162.81h-4.1c-.504-1.116-.927-2.047-1.268-2.794-.342-.747-.639-1.373-.891-1.876s-.472-.954-.66-1.35c-.189-.396-.392-.801-.607-1.215-.197-.378-.413-.625-.646-.743-.234-.117-.594-.175-1.079-.175h-.81l.189-.999,1.078.027c1.079-.036,2.055-.211,2.927-.526s1.56-.814,2.063-1.499c.503-.684.755-1.602.755-2.754,0-.486-.104-.94-.311-1.364-.206-.423-.562-.765-1.064-1.026-.504-.261-1.205-.392-2.104-.392-.342,0-.616.005-.822.014-.207.009-.463.032-.769.067l-2.697,13.257c-.145.738-.193,1.292-.148,1.661.045.369.247.607.606.715.359.108.926.162,1.699.162l-.135.81Z"/><path d="M775.525,307.73c-.44,0-.773-.037-.999-.11-.226-.073-.38-.173-.464-.299s-.126-.257-.126-.394c0-.168.061-.336.182-.504.12-.167.301-.251.542-.251.168,0,.317.039.448.118.131.079.27.168.417.268.146.1.319.189.519.268.199.079.445.118.739.118.388,0,.768-.076,1.14-.228s.679-.401.92-.748c.241-.346.362-.808.362-1.385,0-.399-.11-.745-.331-1.039-.22-.294-.514-.522-.88-.685-.367-.163-.776-.244-1.227-.244h-.314l.126-.598h.235c.43,0,.857-.105,1.281-.315.425-.21.781-.501,1.069-.874s.433-.79.433-1.251c0-.409-.123-.711-.369-.905-.247-.194-.58-.291-.999-.291-.503,0-.928.113-1.273.338s-.697.548-1.054.968l-.314-.205c.461-.672.949-1.188,1.463-1.551.513-.362,1.132-.543,1.855-.543.681,0,1.197.166,1.549.496.351.331.526.748.526,1.251,0,.431-.092.806-.275,1.125-.184.32-.44.606-.771.858-.33.252-.721.504-1.171.756v.047c.503.168.928.423,1.273.764.346.341.519.79.519,1.346,0,.598-.139,1.125-.416,1.582-.278.457-.655.842-1.133,1.157-.477.314-1.014.553-1.611.716s-1.222.244-1.871.244Z"/><path d="M799.806,292.996h-9.764v-1.887h9.764v1.887ZM799.806,297.859h-9.764v-1.875h9.764v1.875Z"/><path d="M811.536,297.71c.015-.928.12-1.661.315-2.2.195-.538.593-1.135,1.194-1.79l1.533-1.58c.656-.741.983-1.536.983-2.386,0-.818-.215-1.459-.644-1.923-.43-.464-1.054-.696-1.873-.696-.796,0-1.437.211-1.92.633-.484.422-.726.988-.726,1.699h-2.166c.016-1.266.466-2.287,1.353-3.064.886-.777,2.038-1.166,3.459-1.166,1.475,0,2.624.396,3.447,1.188.823.792,1.235,1.878,1.235,3.259,0,1.365-.632,2.71-1.896,4.037l-1.276,1.263c-.569.632-.854,1.541-.854,2.727h-2.165ZM811.442,301.433c0-.354.106-.652.321-.893s.533-.361.954-.361.741.12.96.361.328.539.328.893-.109.649-.328.881c-.219.233-.538.349-.96.349s-.739-.116-.954-.349c-.215-.232-.321-.526-.321-.881Z"/><path d="M763.85,346.069h-7.363l.162-.81c.736,0,1.29-.063,1.658-.189.368-.125.643-.382.823-.77.179-.387.351-.976.512-1.769l2.212-10.638c.162-.702.238-1.256.229-1.66-.01-.405-.176-.688-.499-.851s-.899-.243-1.727-.243l.162-.81h7.471l-.161.81c-.792,0-1.385.081-1.78.243s-.675.445-.836.851c-.162.404-.315.958-.459,1.66l-2.212,10.746c-.144.774-.197,1.35-.161,1.728.035.378.22.621.553.729.332.108.858.162,1.578.162l-.162.81Z"/><path d="M768.054,351.266c-.44,0-.773-.037-.999-.11s-.38-.173-.464-.299-.126-.257-.126-.394c0-.168.061-.336.182-.504.12-.168.301-.252.542-.252.168,0,.317.039.448.118s.27.168.417.268c.146.1.319.188.519.268s.445.118.739.118c.388,0,.768-.076,1.14-.229s.679-.401.92-.748c.241-.346.362-.808.362-1.385,0-.398-.11-.745-.331-1.039-.22-.294-.514-.521-.88-.685-.367-.162-.776-.244-1.227-.244h-.314l.126-.598h.235c.43,0,.857-.105,1.281-.315.425-.21.781-.501,1.069-.873.288-.373.433-.79.433-1.252,0-.409-.123-.711-.369-.905-.247-.193-.58-.291-.999-.291-.503,0-.928.113-1.273.339s-.697.548-1.054.968l-.314-.204c.461-.672.949-1.188,1.463-1.551.513-.362,1.132-.543,1.855-.543.681,0,1.197.165,1.549.495.351.331.526.748.526,1.252,0,.431-.092.806-.275,1.125-.184.32-.44.606-.771.858s-.721.504-1.171.756v.047c.503.168.928.423,1.273.764s.519.789.519,1.346c0,.598-.139,1.125-.416,1.582-.278.456-.655.842-1.133,1.157-.477.314-1.014.553-1.611.716-.598.162-1.222.244-1.871.244Z"/><path d="M792.335,336.53h-9.764v-1.887h9.764v1.887ZM792.335,341.394h-9.764v-1.875h9.764v1.875Z"/><path d="M811.989,338.792c0,2.539-.434,4.426-1.3,5.66s-2.22,1.852-4.062,1.852c-1.818,0-3.165-.604-4.039-1.811s-1.327-3.01-1.357-5.408v-2.895c0-2.508.433-4.371,1.299-5.59s2.225-1.828,4.074-1.828c1.834,0,3.184.588,4.05,1.764s1.312,2.99,1.335,5.443v2.812ZM809.823,335.827c0-1.836-.257-3.174-.772-4.014-.515-.84-1.33-1.26-2.446-1.26-1.108,0-1.916.418-2.424,1.254-.507.836-.769,2.121-.784,3.855v3.469c0,1.844.268,3.205.802,4.084.535.879,1.345,1.318,2.43,1.318,1.069,0,1.863-.414,2.382-1.242.52-.828.79-2.133.813-3.914v-3.551Z"/><path d="M815.033,344.933c0-.375.111-.688.334-.938s.556-.375,1.001-.375.782.125,1.013.375c.229.25.345.562.345.938,0,.359-.115.66-.345.902-.23.242-.568.363-1.013.363s-.778-.121-1.001-.363-.334-.543-.334-.902Z"/><path d="M832.241,346.069h-11.168v-1.559l5.9-6.562c.874-.992,1.477-1.799,1.809-2.42s.498-1.264.498-1.928c0-.891-.27-1.621-.808-2.191-.539-.57-1.257-.855-2.154-.855-1.077,0-1.914.307-2.511.92-.598.613-.896,1.467-.896,2.561h-2.165c0-1.57.505-2.84,1.516-3.809s2.363-1.453,4.057-1.453c1.584,0,2.837.416,3.758,1.248s1.381,1.939,1.381,3.322c0,1.68-1.069,3.68-3.207,6l-4.565,4.957h8.557v1.77Z"/><path d="M845.224,338.792c0,2.539-.434,4.426-1.3,5.66s-2.22,1.852-4.062,1.852c-1.818,0-3.165-.604-4.039-1.811s-1.327-3.01-1.357-5.408v-2.895c0-2.508.433-4.371,1.299-5.59s2.225-1.828,4.074-1.828c1.834,0,3.184.588,4.05,1.764s1.312,2.99,1.335,5.443v2.812ZM843.058,335.827c0-1.836-.257-3.174-.772-4.014-.515-.84-1.33-1.26-2.446-1.26-1.108,0-1.916.418-2.424,1.254-.507.836-.769,2.121-.784,3.855v3.469c0,1.844.268,3.205.802,4.084.535.879,1.345,1.318,2.43,1.318,1.069,0,1.863-.414,2.382-1.242.52-.828.79-2.133.813-3.914v-3.551Z"/><path d="M863.907,341.604h-7.142l-1.604,4.465h-2.317l6.509-17.062h1.967l6.521,17.062h-2.307l-1.627-4.465ZM857.445,339.765h5.794l-2.902-7.98-2.892,7.98Z"/></g></svg>