<?xml version="1.0" encoding="UTF-8"?><svg id="a" xmlns="http://www.w3.org/2000/svg" width="1140" height="497.76" viewBox="0 0 1140 497.76"><g id="b"><path d="M1131.872,260.923c2,98.164.548,187.505-51.853,205.908-98.798,34.696-262.43,5.156-556.543,18.402C160.277,501.591,4.569,536.044,7.666,321.893,12.131,13.157,8.262-.922,407.83,10.859c183.918,5.423,315.219-14.619,477.037-10.224,84.393,2.292,170.479,9.881,208.976,51.846,42.296,46.107,36.194,118.395,38.029,208.441Z" fill="#e8e1e9" stroke-width="0"/><path d="M224.629,335.187c7.877,0,11.305-3.817,19.427-10.598" fill="none" stroke="#e2b939" stroke-linecap="round" stroke-linejoin="round" stroke-width="8"/><path d="M299.759,145.782c-5.135-7.27-11.916-11.381-20.091-11.381" fill="none" stroke="#e2b939" stroke-linecap="round" stroke-linejoin="round" stroke-width="8"/><path d="M286.577,335.187c7.877,0,11.305-3.817,19.427-10.598" fill="none" stroke="#e2b939" stroke-linecap="round" stroke-linejoin="round" stroke-width="8"/><path d="M361.707,145.782c-5.135-7.27-11.916-11.381-20.091-11.381" fill="none" stroke="#e2b939" stroke-linecap="round" stroke-linejoin="round" stroke-width="8"/><path d="M348.525,335.187c7.877,0,11.305-3.817,19.427-10.598" fill="none" stroke="#e2b939" stroke-linecap="round" stroke-linejoin="round" stroke-width="8"/><path d="M423.656,145.782c-5.135-7.27-11.916-11.381-20.091-11.381" fill="none" stroke="#e2b939" stroke-linecap="round" stroke-linejoin="round" stroke-width="8"/><path d="M410.474,335.187c7.877,0,11.305-3.817,19.427-10.598" fill="none" stroke="#e2b939" stroke-linecap="round" stroke-linejoin="round" stroke-width="8"/><path d="M485.604,145.782c-5.135-7.27-11.916-11.381-20.091-11.381" fill="none" stroke="#e2b939" stroke-linecap="round" stroke-linejoin="round" stroke-width="8"/><path d="M472.422,335.187c7.877,0,11.305-3.817,19.427-10.598" fill="none" stroke="#e2b939" stroke-linecap="round" stroke-linejoin="round" stroke-width="8"/><path d="M547.552,145.782c-5.135-7.27-11.916-11.381-20.091-11.381" fill="none" stroke="#e2b939" stroke-linecap="round" stroke-linejoin="round" stroke-width="8"/><path d="M534.37,335.187c7.877,0,11.305-3.817,19.427-10.598" fill="none" stroke="#e2b939" stroke-linecap="round" stroke-linejoin="round" stroke-width="8"/><path d="M237.811,145.782c-5.135-7.27-11.916-11.381-20.091-11.381" fill="none" stroke="#e2b939" stroke-linecap="round" stroke-linejoin="round" stroke-width="8"/><path d="M145.34,388.014h464.16v-242.232c-5.135-7.27-11.916-11.381-20.091-11.381" fill="none" stroke="#e2b939" stroke-linecap="round" stroke-linejoin="round" stroke-width="8"/><rect x="106.436" y="144.294" width="536" height="181" fill="#b8a189" stroke-width="0"/><ellipse cx="644.578" cy="234.794" rx="43.474" ry="90.5" fill="#a38160" stroke-width="0"/><ellipse cx="107.927" cy="234.794" rx="43.474" ry="90.5" fill="#b8a189" stroke-width="0"/><ellipse cx="645.262" cy="234.794" rx="38.536" ry="84.58" fill="#674b34" opacity=".5" stroke-width="0"/><path d="M645.262,150.214c11.39,0,21.626,10.846,28.681,28.089,3.439,53.701-20.568,105.813-51.08,123.929-10.165-12.937-16.136-45.969-16.136-67.438,0-46.712,17.253-84.58,38.536-84.58Z" fill="#674b34" opacity=".69" stroke-width="0"/><path d="M607.157,145.289c-84.753,6.838-163.332,69.724-183.051,153.281-1.368,4.708-2.385,10.213-3.433,15.001-.606,3.581-1.234,7.274-1.883,10.855-.011.083-.09.142-.172.126-.076-.014-.127-.084-.119-.159.609-5.851,1.13-11.739,2.285-17.528.752-4.897,2.114-10.343,3.279-15.143,17.569-67.15,73.692-120.17,139.484-139.905,9.842-2.99,20.107-5.133,30.346-6.213,4.404-.436,8.836-.601,13.256-.608.081-.001.148.063.149.144.001.08-.062.146-.141.149h0Z" fill="#977e64" stroke-width="0"/><path d="M357.661,145.289c-84.753,6.838-163.332,69.724-183.051,153.281-1.368,4.708-2.385,10.213-3.433,15.001-.606,3.581-1.234,7.274-1.883,10.855-.011.083-.09.142-.172.126-.076-.014-.127-.084-.119-.159.609-5.851,1.13-11.739,2.285-17.528.752-4.897,2.114-10.343,3.279-15.143,17.569-67.15,73.692-120.17,139.484-139.905,9.842-2.99,20.107-5.133,30.346-6.213,4.404-.436,8.836-.601,13.256-.608.081-.001.148.063.149.144.001.08-.062.146-.141.149h0Z" fill="#977e64" stroke-width="0"/><path d="M279.668,134.401c-27.033,0-55.571,38.472-72.38,92.771-16.809,54.296-9.692,108.015,17.341,108.015" fill="none" stroke="#e2b939" stroke-linecap="round" stroke-linejoin="round" stroke-width="8"/><path d="M341.616,134.401c-27.033,0-55.571,38.472-72.38,92.771-16.809,54.296-9.692,108.015,17.341,108.015" fill="none" stroke="#e2b939" stroke-linecap="round" stroke-linejoin="round" stroke-width="8"/><path d="M403.564,134.401c-27.033,0-55.571,38.472-72.38,92.771-16.809,54.296-9.692,108.015,17.341,108.015" fill="none" stroke="#e2b939" stroke-linecap="round" stroke-linejoin="round" stroke-width="8"/><path d="M465.512,134.401c-27.033,0-55.571,38.472-72.38,92.771-16.809,54.296-9.692,108.015,17.341,108.015" fill="none" stroke="#e2b939" stroke-linecap="round" stroke-linejoin="round" stroke-width="8"/><path d="M527.461,134.401c-27.033,0-55.571,38.472-72.38,92.771-16.809,54.296-9.692,108.015,17.341,108.015" fill="none" stroke="#e2b939" stroke-linecap="round" stroke-linejoin="round" stroke-width="8"/><path d="M589.409,134.401c-27.033,0-55.571,38.472-72.38,92.771-16.809,54.296-9.692,108.015,17.341,108.015" fill="none" stroke="#e2b939" stroke-linecap="round" stroke-linejoin="round" stroke-width="8"/><path d="M217.72,134.401c-16.332,0-33.214,14.043-47.727,37.135-16.341,26.001-24.653,56.245-24.653,86.955v129.523" fill="none" stroke="#e2b939" stroke-linecap="round" stroke-linejoin="round" stroke-width="8"/><path d="M821.617,146.34h90.543v170.231c0,3.684-2.991,6.676-6.676,6.676h-77.191c-3.685,0-6.676-2.991-6.676-6.676v-170.231h0Z" transform="translate(1101.719 -632.084) rotate(90.002)" fill="#db4440" stroke-width="0"/><path d="M958.974,161.34h77.191c3.684,0,6.676,2.991,6.676,6.676v140.231h-90.543v-140.231c0-3.684,2.991-6.676,6.676-6.676Z" transform="translate(1232.406 -762.765) rotate(90.002)" fill="#a6a6a6" stroke-width="0"/><path d="M798.617,146.34h90.543v170.231c0,3.684-2.991,6.676-6.676,6.676h-77.191c-3.685,0-6.676-2.991-6.676-6.676v-170.231h0Z" transform="translate(1078.718 -609.084) rotate(90.002)" fill="#db4440" stroke-width="0"/><path d="M935.974,161.34h77.191c3.684,0,6.676,2.991,6.676,6.676v140.231h-90.543v-140.231c0-3.684,2.991-6.676,6.676-6.676Z" transform="translate(1209.405 -739.765) rotate(90.002)" fill="#a6a6a6" stroke-width="0"/><rect x="969.964" y="207.065" width="54.095" height="55.464" rx="27.047" ry="27.047" fill="#fff" stroke="#000" stroke-miterlimit="10" stroke-width="2"/><path d="M1000.505,238.774c0-.774-.273-1.369-.82-1.784s-1.531-.853-2.953-1.312-2.548-.914-3.377-1.36c-2.261-1.222-3.391-2.866-3.391-4.936,0-1.075.303-2.035.909-2.878s1.477-1.502,2.611-1.976,2.408-.711,3.821-.711c1.422,0,2.688.258,3.801.772s1.976,1.242,2.591,2.181.923,2.005.923,3.199h-4.102c0-.911-.287-1.62-.861-2.126s-1.381-.759-2.42-.759c-1.003,0-1.782.212-2.338.636s-.834.982-.834,1.675c0,.647.326,1.189.978,1.627s1.611.848,2.878,1.23c2.333.702,4.033,1.572,5.1,2.611s1.6,2.333,1.6,3.883c0,1.723-.651,3.074-1.955,4.054s-3.058,1.47-5.264,1.47c-1.531,0-2.926-.28-4.184-.841s-2.217-1.328-2.878-2.304-.991-2.105-.991-3.391h4.115c0,2.196,1.312,3.295,3.938,3.295.976,0,1.736-.198,2.283-.595s.82-.95.82-1.661Z" stroke-width="0"/><circle cx="804.69" cy="234.797" r="27.105" fill="#fff" stroke="#000" stroke-miterlimit="10" stroke-width="2"/><path d="M812.77,243.995h-4.102l-7.984-13.098v13.098h-4.102v-19.906h4.102l7.998,13.125v-13.125h4.088v19.906Z" stroke-width="0"/><path d="M1041.349,189.383c3.912-.559,7.717,3.09,7.577,7.076,0,0,.045,1.534.045,1.534.093,4.09.087,8.18.135,12.27.187,20.45.15,40.901-.159,61.349-.044.882-.022,2.311-.245,3.215-.689,3.303-4.095,5.822-7.357,5.393-.081-.009-.14-.082-.131-.163.008-.07.064-.123.131-.131,2.957-.336,5.348-2.563,5.746-5.411.123-.748.023-2.109.005-2.904-.308-20.448-.343-40.899-.154-61.349-.02-5.043.198-10.135.128-15.169-.416-2.835-2.762-5.053-5.72-5.417-.169-.005-.167-.286,0-.294h0Z" fill="#515151" stroke-width="0"/><path d="M800.497,144.369v-17.062h4.816c1.484,0,2.797.328,3.938.984s2.021,1.59,2.643,2.801.936,2.602.943,4.172v1.09c0,1.609-.311,3.02-.932,4.23s-1.508,2.141-2.66,2.789-2.494.98-4.025.996h-4.723ZM802.747,129.146v13.383h2.367c1.734,0,3.084-.54,4.049-1.619.965-1.079,1.447-2.616,1.447-4.609v-.997c0-1.939-.455-3.446-1.365-4.521s-2.201-1.621-3.873-1.636h-2.625Z" stroke-width="0"/><path d="M815.907,128.326c0-.352.107-.648.322-.891s.533-.363.955-.363.742.121.961.363.328.539.328.891-.109.645-.328.879-.539.352-.961.352-.74-.117-.955-.352-.322-.527-.322-.879ZM818.251,144.369h-2.168v-12.68h2.168v12.68Z" stroke-width="0"/><path d="M827.849,133.635c-.328-.055-.684-.082-1.066-.082-1.422,0-2.387.605-2.895,1.816v9h-2.168v-12.68h2.109l.035,1.465c.711-1.133,1.719-1.699,3.023-1.699.422,0,.742.055.961.164v2.016Z" stroke-width="0"/><path d="M835.103,144.603c-1.719,0-3.117-.564-4.195-1.693s-1.617-2.639-1.617-4.529v-.398c0-1.258.24-2.381.721-3.369s1.152-1.762,2.016-2.32,1.799-.838,2.807-.838c1.648,0,2.93.543,3.844,1.629s1.371,2.641,1.371,4.664v.902h-8.59c.031,1.25.396,2.26,1.096,3.029s1.588,1.154,2.666,1.154c.766,0,1.414-.156,1.945-.469s.996-.727,1.395-1.242l1.324,1.031c-1.062,1.633-2.656,2.449-4.781,2.449ZM834.833,133.236c-.875,0-1.609.318-2.203.955s-.961,1.529-1.102,2.678h6.352v-.164c-.062-1.102-.359-1.955-.891-2.561s-1.25-.908-2.156-.908Z" stroke-width="0"/><path d="M847.642,142.834c.773,0,1.449-.234,2.027-.703s.898-1.055.961-1.758h2.051c-.039.727-.289,1.418-.75,2.074s-1.076,1.18-1.846,1.57-1.584.586-2.443.586c-1.727,0-3.1-.576-4.119-1.729s-1.529-2.729-1.529-4.729v-.363c0-1.234.227-2.332.68-3.293s1.104-1.707,1.951-2.238,1.85-.797,3.006-.797c1.422,0,2.604.426,3.545,1.277s1.443,1.957,1.506,3.316h-2.051c-.062-.82-.373-1.494-.932-2.021s-1.248-.791-2.068-.791c-1.102,0-1.955.396-2.561,1.189s-.908,1.939-.908,3.439v.41c0,1.461.301,2.586.902,3.375s1.461,1.184,2.578,1.184Z" stroke-width="0"/><path d="M858.06,128.619v3.07h2.367v1.676h-2.367v7.873c0,.509.105.89.316,1.144.211.254.57.381,1.078.381.25,0,.594-.047,1.031-.141v1.748c-.57.155-1.125.233-1.664.233-.969,0-1.699-.293-2.191-.879s-.738-1.418-.738-2.496v-7.863h-2.309v-1.676h2.309v-3.07h2.168Z" stroke-width="0"/><path d="M862.97,128.326c0-.352.107-.648.322-.891s.533-.363.955-.363.742.121.961.363.328.539.328.891-.109.645-.328.879-.539.352-.961.352-.74-.117-.955-.352-.322-.527-.322-.879ZM865.313,144.369h-2.168v-12.68h2.168v12.68Z" stroke-width="0"/><path d="M868.208,137.912c0-1.242.244-2.359.732-3.352s1.168-1.758,2.039-2.297,1.865-.809,2.982-.809c1.727,0,3.123.598,4.189,1.793s1.6,2.785,1.6,4.77v.152c0,1.234-.236,2.342-.709,3.322s-1.148,1.744-2.027,2.291-1.889.82-3.029.82c-1.719,0-3.111-.598-4.178-1.793s-1.6-2.777-1.6-4.746v-.152ZM870.388,138.17c0,1.406.326,2.535.979,3.387s1.525,1.277,2.619,1.277c1.102,0,1.977-.432,2.625-1.295s.973-2.072.973-3.627c0-1.391-.33-2.518-.99-3.381s-1.537-1.295-2.631-1.295c-1.07,0-1.934.426-2.59,1.277s-.984,2.07-.984,3.656Z" stroke-width="0"/><path d="M884.521,131.689l.07,1.594c.969-1.219,2.234-1.828,3.797-1.828,2.68,0,4.031,1.512,4.055,4.535v8.379h-2.168v-8.391c-.008-.914-.217-1.59-.627-2.027s-1.049-.656-1.916-.656c-.703,0-1.32.188-1.852.562s-.945.867-1.242,1.477v9.035h-2.168v-12.68h2.051Z" stroke-width="0"/><path d="M901.079,137.912c0-1.242.244-2.359.732-3.352s1.168-1.758,2.039-2.297,1.865-.809,2.982-.809c1.727,0,3.123.598,4.189,1.793s1.6,2.785,1.6,4.77v.152c0,1.234-.236,2.342-.709,3.322s-1.148,1.744-2.027,2.291-1.889.82-3.029.82c-1.719,0-3.111-.598-4.178-1.793s-1.6-2.777-1.6-4.746v-.152ZM903.259,138.17c0,1.406.326,2.535.979,3.387s1.525,1.277,2.619,1.277c1.102,0,1.977-.432,2.625-1.295s.973-2.072.973-3.627c0-1.391-.33-2.518-.99-3.381s-1.537-1.295-2.631-1.295c-1.07,0-1.934.426-2.59,1.277s-.984,2.07-.984,3.656Z" stroke-width="0"/><path d="M916.407,144.369v-11.004h-2.004v-1.676h2.004v-1.301c0-1.359.363-2.41,1.09-3.152s1.754-1.113,3.082-1.113c.5,0,.996.066,1.488.198l-.117,1.748c-.367-.07-.758-.105-1.172-.105-.703,0-1.246.206-1.629.617-.383.412-.574,1.001-.574,1.769v1.34h2.707v1.676h-2.707v11.004h-2.168Z" stroke-width="0"/><path d="M931.653,131.689l.059,1.406c.93-1.094,2.184-1.641,3.762-1.641,1.773,0,2.98.68,3.621,2.039.422-.609.971-1.102,1.646-1.477s1.475-.562,2.396-.562c2.781,0,4.195,1.473,4.242,4.418v8.496h-2.168v-8.367c0-.906-.207-1.584-.621-2.033s-1.109-.674-2.086-.674c-.805,0-1.473.24-2.004.721s-.84,1.127-.926,1.939v8.414h-2.18v-8.309c0-1.844-.902-2.766-2.707-2.766-1.422,0-2.395.605-2.918,1.816v9.258h-2.168v-12.68h2.051Z" stroke-width="0"/><path d="M950.075,137.912c0-1.242.244-2.359.732-3.352s1.168-1.758,2.039-2.297,1.865-.809,2.982-.809c1.727,0,3.123.598,4.189,1.793s1.6,2.785,1.6,4.77v.152c0,1.234-.236,2.342-.709,3.322s-1.148,1.744-2.027,2.291-1.889.82-3.029.82c-1.719,0-3.111-.598-4.178-1.793s-1.6-2.777-1.6-4.746v-.152ZM952.255,138.17c0,1.406.326,2.535.979,3.387s1.525,1.277,2.619,1.277c1.102,0,1.977-.432,2.625-1.295s.973-2.072.973-3.627c0-1.391-.33-2.518-.99-3.381s-1.537-1.295-2.631-1.295c-1.07,0-1.934.426-2.59,1.277s-.984,2.07-.984,3.656Z" stroke-width="0"/><path d="M967.278,128.619v3.07h2.367v1.676h-2.367v7.873c0,.509.105.89.316,1.144.211.254.57.381,1.078.381.25,0,.594-.047,1.031-.141v1.748c-.57.155-1.125.233-1.664.233-.969,0-1.699-.293-2.191-.879s-.738-1.418-.738-2.496v-7.863h-2.309v-1.676h2.309v-3.07h2.168Z" stroke-width="0"/><path d="M972.188,128.326c0-.352.107-.648.322-.891s.533-.363.955-.363.742.121.961.363.328.539.328.891-.109.645-.328.879-.539.352-.961.352-.74-.117-.955-.352-.322-.527-.322-.879ZM974.532,144.369h-2.168v-12.68h2.168v12.68Z" stroke-width="0"/><path d="M977.427,137.912c0-1.242.244-2.359.732-3.352s1.168-1.758,2.039-2.297,1.865-.809,2.982-.809c1.727,0,3.123.598,4.189,1.793s1.6,2.785,1.6,4.77v.152c0,1.234-.236,2.342-.709,3.322s-1.148,1.744-2.027,2.291-1.889.82-3.029.82c-1.719,0-3.111-.598-4.178-1.793s-1.6-2.777-1.6-4.746v-.152ZM979.606,138.17c0,1.406.326,2.535.979,3.387s1.525,1.277,2.619,1.277c1.102,0,1.977-.432,2.625-1.295s.973-2.072.973-3.627c0-1.391-.33-2.518-.99-3.381s-1.537-1.295-2.631-1.295c-1.07,0-1.934.426-2.59,1.277s-.984,2.07-.984,3.656Z" stroke-width="0"/><path d="M993.739,131.689l.07,1.594c.969-1.219,2.234-1.828,3.797-1.828,2.68,0,4.031,1.512,4.055,4.535v8.379h-2.168v-8.391c-.008-.914-.217-1.59-.627-2.027s-1.049-.656-1.916-.656c-.703,0-1.32.188-1.852.562s-.945.867-1.242,1.477v9.035h-2.168v-12.68h2.051Z" stroke-width="0"/><line x1="971.076" y1="169.254" x2="839.896" y2="169.254" fill="none" stroke="#000" stroke-linecap="round" stroke-linejoin="round" stroke-width="2"/><polygon points="842.23 161.275 828.414 169.254 842.23 177.232 842.23 161.275" stroke-width="0"/></g></svg>