<?xml version="1.0" encoding="UTF-8"?><svg id="a" xmlns="http://www.w3.org/2000/svg" width="1140" height="600.0802" viewBox="0 0 1140 600.0802"><path d="m932.4314,592.3441c56.0375-5.8219,106.9175-15.1776,146.2243-59.8373,41.1366-46.7387,48.4138-116.4264,52.3395-176.1105,4.9874-75.8243-1.5624-158.892-30.3457-229.9038C1057.1174,19.0937,956.729,5.385,852.6772,5.4768c-86.1006.076-170.0862,8.0344-315.2656,10.2981-202.8063,3.1622-338.427-30.2585-407.9751,8.4474-33.1928,18.4729-64.0011,42.9433-84.3883,77.048-21.7522,36.3882-30.7078,85.8465-36.0898,128.3393C.2705,298.2042,2.0638,372.8263,23.225,439.3958c26.2912,82.7074,78.8866,123.7218,157.4228,141.9453,76.6057,17.7755,205.2964-.377,283.2918-2.9753,104.4031-3.4781,207.1599-.9871,310.7653,10.0289,52.379,5.5688,105.2,9.4066,157.7264,3.9495Z" fill="#f2e3e3" stroke-width="0"/><line x1="170.0466" y1="280.1214" x2="170.0466" y2="241.489" fill="#fff" stroke="#000" stroke-linejoin="round" stroke-width="2"/><line x1="128.0466" y1="308.7814" x2="212.0466" y2="308.7814" fill="#fff" stroke="#000" stroke-linejoin="round" stroke-width="2"/><line x1="146.5266" y1="322.7926" x2="193.5666" y2="322.7926" fill="#fff" stroke="#000" stroke-linejoin="round" stroke-width="2"/><line x1="128.0466" y1="280.759" x2="212.0466" y2="280.759" fill="#fff" stroke="#000" stroke-linejoin="round" stroke-width="2"/><line x1="146.5266" y1="294.7702" x2="193.5666" y2="294.7702" fill="#fff" stroke="#000" stroke-linejoin="round" stroke-width="2"/><path d="m1027.5459,300.335v.1348c.9707.6748,1.5107,2.0518,3.7227,6.2354.5938,1.0791,1.2412,1.377,2.4814,1.377l-.1611.8096h-4.1006c-2.0234-4.4541-2.5898-5.5879-3.4268-7.2344-.4043-.7559-.7549-.918-1.7266-.918h-.5664l-.998,4.8047c-.459,2.2402-.1621,2.5381,2.1582,2.5381l-.1348.8096h-7.4463l.1621-.8096c1.9961,0,2.4014-.2705,2.8594-2.5381l2.374-11.5801c.2969-1.4844.1348-1.9971-2.0234-1.9971l.1621-.8096h6.3398c3.7773,0,5.9893,1.1064,5.9893,3.7246,0,3.8066-3.3184,5.0479-5.665,5.4531Zm-3.5879-.5938l.8359.0264c3.2373-.1074,5.7461-1.3223,5.7461-4.7773,0-1.458-.8096-2.7803-3.4805-2.7803-.7012,0-.9707.0264-1.5918.0811l-1.5098,7.4502Z" stroke-width="0"/><path d="m1040.292,313.8829h-6.1357l.1104-.5361,2.8789-2.3613c2.4062-2.0947,3.2715-3.0234,3.2715-4.709,0-.9131-.5342-1.543-1.5566-1.543-1.0234,0-1.7305.4092-2.6279,1.5752l-.3457-.1582c.8809-1.4961,1.9668-2.4092,3.6025-2.4092,1.4941,0,2.4072.8662,2.4072,2.2051,0,1.6377-1.1016,2.708-3.4932,4.6924l-2.4219,1.9688-.0166.0781,1.0547-.0469h2.1865c.834,0,1.1016-.3311,1.668-1.2754h.4561l-1.0381,2.5195Z" stroke-width="0"/><path d="m568.6499,545.6397v.1348c.9707.6748,1.5107,2.0518,3.7231,6.2354.5938,1.0801,1.2402,1.377,2.4805,1.377l-.1602.8096h-4.1011c-2.0234-4.4531-2.5898-5.5869-3.4268-7.2334-.4043-.7559-.7549-.918-1.7266-.918h-.5664l-.998,4.8047c-.459,2.2402-.1621,2.5371,2.1582,2.5371l-.1348.8096h-7.4463l.1621-.8096c1.9961,0,2.4014-.2695,2.8594-2.5371l2.374-11.5801c.2969-1.4844.1348-1.9971-2.0234-1.9971l.1621-.8105h6.3398c3.7778,0,5.9888,1.1074,5.9888,3.7256,0,3.8057-3.3179,5.0479-5.6646,5.4521Zm-3.5879-.5938l.8359.0273c3.2373-.1084,5.7466-1.3232,5.7466-4.7783,0-1.457-.8101-2.7803-3.481-2.7803-.7012,0-.9707.0273-1.5918.0811l-1.5098,7.4502Z" stroke-width="0"/><path d="m577.4473,551.1407c.9121-1.3379,1.8711-2.0938,3.3184-2.0938,1.3691,0,2.0781.7402,2.0781,1.748,0,1.291-.8809,2-2.2188,2.7393v.0479c1.0059.3467,1.793.9922,1.793,2.1104,0,2.377-2.4531,3.7002-5.0332,3.7002-1.3223,0-1.5898-.3779-1.5898-.8027,0-.3311.2363-.7559.7246-.7559.6758,0,.9277.7715,2.123.7715,1.1641,0,2.4219-.6143,2.4219-2.3623,0-1.1807-1.084-1.9688-2.4375-1.9688h-.3145l.125-.5977h.2363c1.2754,0,2.7852-1.04,2.7852-2.4414,0-.8184-.5352-1.1963-1.3691-1.1963-1.0078,0-1.6211.4717-2.3281,1.3066l-.3145-.2051Z" stroke-width="0"/><path d="m246.1572,294.0601v1.8398h-.3984c-1.6875.0312-3.0312.5312-4.0312,1.5s-1.5781,2.332-1.7344,4.0898c.8984-1.0312,2.125-1.5469,3.6797-1.5469,1.4844,0,2.6699.5234,3.5566,1.5703s1.3301,2.3984,1.3301,4.0547c0,1.7578-.4785,3.1641-1.4355,4.2188s-2.2402,1.582-3.8496,1.582c-1.6328,0-2.957-.627-3.9727-1.8809s-1.5234-2.8691-1.5234-4.8457v-.832c0-3.1406.6699-5.541,2.0098-7.2012s3.334-2.5098,5.9824-2.5488h.3867Zm-2.8477,7.6875c-.7422,0-1.4258.2227-2.0508.668s-1.0586,1.0039-1.3008,1.6758v.7969c0,1.4062.3164,2.5391.9492,3.3984s1.4219,1.2891,2.3672,1.2891c.9766,0,1.7441-.3594,2.3027-1.0781s.8379-1.6602.8379-2.8242c0-1.1719-.2832-2.1191-.8496-2.8418s-1.3184-1.084-2.2559-1.084Z" stroke-width="0"/><path d="m251.3955,309.9976c0-.375.1113-.6875.334-.9375s.5566-.375,1.002-.375.7832.125,1.0137.375.3457.5625.3457.9375c0,.3594-.1152.6602-.3457.9023s-.5684.3633-1.0137.3633-.7793-.1211-1.002-.3633-.334-.543-.334-.9023Z" stroke-width="0"/><path d="m268.1416,303.857c0,2.5391-.4336,4.4258-1.3008,5.6602s-2.2227,1.8516-4.0664,1.8516c-1.8203,0-3.168-.6035-4.043-1.8105s-1.3281-3.0098-1.3594-5.4082v-2.8945c0-2.5078.4336-4.3711,1.3008-5.5898s2.2266-1.8281,4.0781-1.8281c1.8359,0,3.1875.5879,4.0547,1.7637s1.3125,2.9902,1.3359,5.4434v2.8125Zm-2.168-2.9648c0-1.8359-.2578-3.1738-.7734-4.0137s-1.332-1.2598-2.4492-1.2598c-1.1094,0-1.918.418-2.4258,1.2539s-.7695,2.1211-.7852,3.8555v3.4688c0,1.8438.2676,3.2051.8027,4.084s1.3457,1.3184,2.4316,1.3184c1.0703,0,1.8652-.4141,2.3848-1.2422s.791-2.1328.8145-3.9141v-3.5508Z" stroke-width="0"/><path d="m283.0713,308.146l4.875-14.0742h2.4609l-6.3281,17.0625h-1.9922l-6.3164-17.0625h2.4492l4.8516,14.0742Z" stroke-width="0"/><path d="m879.0791,307.0538h-2.1797v-14.4492l-4.3711,1.6055v-1.9688l6.2109-2.332h.3398v17.1445Z" stroke-width="0"/><path d="m885.7002,305.917c0-.375.1113-.6875.334-.9375s.5566-.375,1.002-.375.7832.125,1.0137.375.3457.5625.3457.9375c0,.3594-.1152.6602-.3457.9023s-.5684.3633-1.0137.3633-.7793-.1211-1.002-.3633-.334-.543-.334-.9023Z" stroke-width="0"/><path d="m900.2549,289.9795v1.8398h-.3984c-1.6875.0312-3.0312.5312-4.0312,1.5s-1.5781,2.332-1.7344,4.0898c.8984-1.0312,2.125-1.5469,3.6797-1.5469,1.4844,0,2.6699.5234,3.5566,1.5703s1.3301,2.3984,1.3301,4.0547c0,1.7578-.4785,3.1641-1.4355,4.2188s-2.2402,1.582-3.8496,1.582c-1.6328,0-2.957-.627-3.9727-1.8809s-1.5234-2.8691-1.5234-4.8457v-.832c0-3.1406.6699-5.541,2.0098-7.2012s3.334-2.5098,5.9824-2.5488h.3867Zm-2.8477,7.6875c-.7422,0-1.4258.2227-2.0508.668s-1.0586,1.0039-1.3008,1.6758v.7969c0,1.4062.3164,2.5391.9492,3.3984s1.4219,1.2891,2.3672,1.2891c.9766,0,1.7441-.3594,2.3027-1.0781s.8379-1.6602.8379-2.8242c0-1.1719-.2832-2.1191-.8496-2.8418s-1.3184-1.084-2.2559-1.084Z" stroke-width="0"/><path d="m917.376,304.0655l4.875-14.0742h2.4609l-6.3281,17.0625h-1.9922l-6.3164-17.0625h2.4492l4.8516,14.0742Z" stroke-width="0"/><polyline points="170 323.136 170 495.0161 512.8393 495.0161 520.2637 472.5161 520.3669 472.5161 535.2138 517.5161 550.059 472.5161 564.9038 517.5161 564.9214 517.5161 579.7666 472.5161 594.6114 517.5161 609.4575 472.5161 624.3045 517.5161 631.727 495.0161 970 495.0161 970 359.4839 947.5 352.0596 947.5 351.9564 992.5 337.1094 947.5 322.2643 992.5 307.4195 992.5 307.4018 947.5 292.5567 992.5 277.7119 947.5 262.8658 970.0035 255.4411 992.5 248.0188 970 240.5962 970 105.0641 631.727 105.0641 624.3045 127.5641 609.4575 82.5641 594.6114 127.5641 579.7666 82.5641 564.9214 127.5641 564.9038 127.5641 550.059 82.5641 535.2138 127.5641 520.3669 82.5641 520.2637 82.5641 512.8393 105.0641 170 105.0641 170 279.464" fill="none" stroke="#000" stroke-linecap="square" stroke-linejoin="round" stroke-width="2"/><path d="m555.3574,162.585h-11.1797v-1.5586l5.9062-6.5625c.875-.9922,1.4785-1.7988,1.8105-2.4199s.498-1.2637.498-1.9277c0-.8906-.2695-1.6211-.8086-2.1914s-1.2578-.8555-2.1562-.8555c-1.0781,0-1.916.3066-2.5137.9199s-.8965,1.4668-.8965,2.5605h-2.168c0-1.5703.5059-2.8398,1.5176-3.8086s2.3652-1.4531,4.0605-1.4531c1.5859,0,2.8398.416,3.7617,1.248s1.3828,1.9395,1.3828,3.3223c0,1.6797-1.0703,3.6797-3.2109,6l-4.5703,4.957h8.5664v1.7695Z" stroke-width="0"/><path d="m557.9238,161.4483c0-.375.1113-.6875.334-.9375s.5566-.375,1.002-.375.7832.125,1.0137.375.3457.5625.3457.9375c0,.3594-.1152.6602-.3457.9023s-.5684.3633-1.0137.3633-.7793-.1211-1.002-.3633-.334-.543-.334-.9023Z" stroke-width="0"/><path d="m575.1504,162.585h-11.1797v-1.5586l5.9062-6.5625c.875-.9922,1.4785-1.7988,1.8105-2.4199s.498-1.2637.498-1.9277c0-.8906-.2695-1.6211-.8086-2.1914s-1.2578-.8555-2.1562-.8555c-1.0781,0-1.916.3066-2.5137.9199s-.8965,1.4668-.8965,2.5605h-2.168c0-1.5703.5059-2.8398,1.5176-3.8086s2.3652-1.4531,4.0605-1.4531c1.5859,0,2.8398.416,3.7617,1.248s1.3828,1.9395,1.3828,3.3223c0,1.6797-1.0703,3.6797-3.2109,6l-4.5703,4.957h8.5664v1.7695Z" stroke-width="0"/><path d="m589.5996,159.5967l4.875-14.0742h2.4609l-6.3281,17.0625h-1.9922l-6.3164-17.0625h2.4492l4.8516,14.0742Z" stroke-width="0"/><path d="m568.6499,49.7803v.1348c.9707.6748,1.5107,2.0518,3.7231,6.2354.5938,1.0791,1.2402,1.377,2.4805,1.377l-.1602.8096h-4.1011c-2.0234-4.4541-2.5898-5.5879-3.4268-7.2344-.4043-.7559-.7549-.918-1.7266-.918h-.5664l-.998,4.8047c-.459,2.2402-.1621,2.5381,2.1582,2.5381l-.1348.8096h-7.4463l.1621-.8096c1.9961,0,2.4014-.2705,2.8594-2.5381l2.374-11.5801c.2969-1.4844.1348-1.9971-2.0234-1.9971l.1621-.8096h6.3398c3.7778,0,5.9888,1.1064,5.9888,3.7246,0,3.8066-3.3179,5.0479-5.6646,5.4531Zm-3.5879-.5938l.8359.0264c3.2373-.1074,5.7466-1.3223,5.7466-4.7773,0-1.458-.8101-2.7803-3.481-2.7803-.7012,0-.9707.0264-1.5918.0811l-1.5098,7.4502Z" stroke-width="0"/><path d="m576.2363,63.3282l.0938-.4414c1.4785,0,1.8555-.2676,2.0137-1.0547l1.416-6.6611c.125-.5508.0469-.7715-.3457-.7715-.3145,0-.9141.0947-1.4316.252l.1094-.5195,3.0039-.8662h.457l-1.8242,8.5664c-.1582.7715.1719,1.0547,1.6191,1.0547l-.0938.4414h-5.0176Z" stroke-width="0"/></svg>