<?xml version="1.0" encoding="UTF-8"?><svg id="a" xmlns="http://www.w3.org/2000/svg" width="1140" height="641" viewBox="0 0 1140 641"><path d="m3.207,294.811C12.934-36.6,350.949,7.059,617.064,7.059s479.658,49.079,511.733,241.679c49.962,300.006-133.388,426.611-397.416,376.396-175.865-33.447-344.657,31.907-502.658,2.995C94.926,603.646-2.347,484.07,3.207,294.811Z" fill="#f4e4dc"/><path d="m398.67,313.688h0c0-59.891,46.89-102.131,113.135-102.131l286.573.471c5.628.01,10.195-4.55,10.195-10.177v-74.68c0-4.415-1.999-8.592-5.436-11.362l-11.546-9.304c-1.609-1.297-3.614-2.004-5.681-2.004h-299.117c-127.293,0-216,96.706-216,216h0c0,57.064,29.26,71.68,59.787,64.846,24.404-5.463,84.438-12.963,73.766-35.641-6.063-12.884-5.678-27.678-5.678-36.017Z" fill="#d12d32"/><path d="m270.795,320.5h0c0,119.294,96.706,216,216,216h311.602c5.621,0,10.177-4.557,10.177-10.177v-70.632c0-3.524-1.321-6.919-3.703-9.516l-13.068-14.247c-1.718-1.873-4.145-2.938-6.687-2.934l-273.31.449c-59.911,0-103.985-45.693-111.865-98.733-.639-4.3-34.598-13.024-34.598-13.024h-94.515c-.011.938-.033,1.873-.033,2.814Z" fill="#969696"/><path d="m364.627,318.253c-1.968-58.741,33.281-106.593,89.989-122.03,11.709-3.265,23.893-4.961,36.03-5.359,56.73-.348,177.795.283,235.698.364,11.079.061,43.44.097,54.383.169,4.177.244,7.874-3.365,7.712-7.552,0,0,.02-4.532.02-4.532-.048-23.473.413-49.118.752-72.512-.009-.183.302-.186.294,0,.536,23.367.596,49.047.753,72.512-.104,2.945.508,6.703-1.181,9.338-1.61,2.949-5.03,4.833-8.353,4.703-36.32.021-160.933-.112-199.407-.123-13.831.021-78.109-.356-90.603-.136-17.96.536-35.947,4.034-52.513,11.073-40.484,16.897-66.55,52.747-72.033,96.054,0,0-.566,4.484-.566,4.484-.019.907-.495,5.73-.536,6.757-.081,2.098-.083,4.828-.146,6.792.008.182-.3.186-.294,0h0Z" fill="#631c1c"/><path d="m495.851,428.59c-58.997,3.646-123.781-29.806-131.094-93.237-.268-3.417-.516-7.152-.45-10.575.063-2.013.186-4.024.32-6.026.004-.183.302-.171.293.01.163,5.275.601,11.218,1.378,16.393,8.119,56.068,58.478,87.115,111.616,91.69,1.436.18,4.5.503,5.958.596,3.979.384,7.972.549,11.978.855.176-.005.186.296.002.294h0Z" fill="#605858"/><path d="m789.505,431.695c.478,20.351.688,40.703.774,61.058,0,0,.08,15.264.08,15.264.109,2.736-.203,5.692-2.091,7.838-1.785,2.215-4.69,3.54-7.49,3.434l-30.529-.015c-75.615-.245-199.406.339-274.781-.9-10.181-.29-20.356-.764-30.523-1.388-15.25-.971-30.524-2.194-45.58-4.893-5.003-.959-10.027-2.039-14.775-3.957-.075-.03-.111-.116-.081-.191.03-.075.116-.111.19-.082,4.79,1.663,9.802,2.587,14.813,3.363,15.083,2.208,30.323,3.118,45.535,3.964,20.314.971,40.637,1.619,60.98,1.546,60.871-.043,183.372.179,244.228.421,0,0,30.528.091,30.528.091,2.307.088,4.486-.941,5.923-2.673,1.577-1.78,1.754-4.292,1.654-6.559,0,0,.08-15.264.08-15.264.048-10.176.1-20.353.25-30.529.108-10.176.281-20.353.524-30.529-.008-.182.3-.185.294,0h0Z" fill="#605858"/><path d="m803.657,208.465c-2.172-.695-3.558-2.22-5.122-3.557-1.548-1.354-3.071-2.734-4.564-4.147-1.493-1.413-2.946-2.867-4.387-4.334-1.438-1.47-2.978-2.833-3.843-4.909-.055-.122.076-.263.202-.213,2.121.748,3.567,2.211,5.115,3.565,1.546,1.357,3.078,2.727,4.571,4.139,1.493,1.413,2.956,2.856,4.393,4.327,1.422,1.487,3.022,2.787,3.836,4.916.05.121-.077.259-.202.213h0Z" fill="#631c1c"/><path d="m805.173,533.601c-2.172-.695-3.558-2.22-5.122-3.557-1.548-1.354-3.071-2.735-4.564-4.147-1.493-1.413-2.946-2.867-4.387-4.334-1.438-1.47-2.978-2.833-3.843-4.909-.055-.122.076-.263.202-.213,2.121.748,3.567,2.21,5.115,3.565,1.546,1.357,3.078,2.727,4.571,4.139,1.493,1.413,2.956,2.856,4.394,4.327,1.422,1.487,3.022,2.787,3.836,4.916.05.121-.077.259-.202.213h0Z" fill="#605858"/><circle cx="798.074" cy="320.5" r="30" fill="#fff5f5" stroke="#d12d32" stroke-miterlimit="10" stroke-width="2"/><path d="m796.345,325.027c.018-1.083.141-1.938.369-2.566.228-.628.692-1.324,1.395-2.089l1.791-1.843c.766-.864,1.148-1.792,1.148-2.783,0-.955-.251-1.702-.752-2.244-.502-.541-1.23-.812-2.188-.812-.93,0-1.678.246-2.242.738-.565.492-.848,1.153-.848,1.982h-2.529c.018-1.477.544-2.668,1.579-3.575,1.034-.907,2.381-1.36,4.04-1.36,1.723,0,3.064.462,4.026,1.386.961.924,1.442,2.19,1.442,3.802,0,1.592-.738,3.162-2.215,4.709l-1.49,1.475c-.666.737-.998,1.797-.998,3.181h-2.529Zm-.109,4.343c0-.414.125-.761.376-1.042.25-.28.622-.421,1.114-.421s.865.141,1.121.421c.255.281.383.628.383,1.042s-.128.757-.383,1.028c-.256.271-.629.407-1.121.407s-.864-.136-1.114-.407c-.251-.271-.376-.614-.376-1.028Z"/><circle cx="747.863" cy="145.642" r="30" fill="#fff" stroke="#000" stroke-miterlimit="10" stroke-width="2"/><path d="m755.971,155.699h-4.102l-7.984-13.098v13.098h-4.102v-19.906h4.102l7.998,13.125v-13.125h4.088v19.906Z"/><circle cx="747.863" cy="473.053" r="30" fill="#fff" stroke="#000" stroke-miterlimit="10" stroke-width="2"/><path d="m751.384,478.16c0-.774-.273-1.369-.82-1.784s-1.531-.853-2.953-1.312-2.548-.914-3.377-1.36c-2.261-1.222-3.391-2.866-3.391-4.936,0-1.075.303-2.035.909-2.878.605-.843,1.477-1.502,2.611-1.976s2.408-.711,3.821-.711c1.422,0,2.688.258,3.801.772,1.111.515,1.976,1.242,2.591,2.181s.923,2.005.923,3.199h-4.102c0-.911-.287-1.62-.861-2.126s-1.381-.759-2.42-.759c-1.003,0-1.782.212-2.338.636-.557.424-.834.982-.834,1.675,0,.647.325,1.189.978,1.627.651.438,1.61.848,2.878,1.23,2.333.702,4.033,1.572,5.1,2.611s1.6,2.333,1.6,3.883c0,1.723-.652,3.074-1.955,4.054-1.304.979-3.059,1.47-5.264,1.47-1.531,0-2.926-.28-4.184-.841s-2.218-1.328-2.878-2.304c-.661-.976-.991-2.105-.991-3.391h4.115c0,2.196,1.312,3.295,3.938,3.295.975,0,1.736-.198,2.283-.595s.82-.95.82-1.661Z"/></svg>