<?xml version="1.0" encoding="UTF-8"?>
<svg id="Layer_1" data-name="Layer 1" xmlns="http://www.w3.org/2000/svg" width="1140" height="704" viewBox="0 0 1140 704">
  <defs>
    <style>
      .cls-1, .cls-2 {
        stroke-width: 6px;
      }

      .cls-1, .cls-2, .cls-3, .cls-4, .cls-5 {
        fill: none;
      }

      .cls-1, .cls-2, .cls-4, .cls-5 {
        stroke-miterlimit: 10;
      }

      .cls-1, .cls-3 {
        stroke: #000;
      }

      .cls-2 {
        stroke: #efad43;
      }

      .cls-6 {
        fill: #f9d1c7;
      }

      .cls-7 {
        fill: #efad43;
      }

      .cls-8 {
        fill: #b77b13;
      }

      .cls-9 {
        fill: #333;
      }

      .cls-10 {
        fill: #c7901b;
      }

      .cls-11 {
        fill: #444;
      }

      .cls-12 {
        fill: #595959;
      }

      .cls-13 {
        fill: #838383;
      }

      .cls-14 {
        fill: #77500a;
      }

      .cls-3 {
        stroke-linecap: round;
        stroke-linejoin: round;
      }

      .cls-3, .cls-4 {
        stroke-width: 2px;
      }

      .cls-4 {
        stroke: #77500a;
      }

      .cls-5 {
        stroke: #2d2d2d;
        stroke-width: 4px;
      }

      .cls-15 {
        fill: #e2a334;
        opacity: .8;
      }
    </style>
  </defs>
  <path class="cls-6" d="m1132.17,434.15c-7.05-51.04-18.02-101.7-14.54-153.63,2.11-31.49,11.29-61.67,13.79-93.22,4.23-53.41-9.78-100.07-54.66-131.5-40.16-28.12-90.95-40.31-139-45.52-141.68-15.34-284.51,4.19-426.96,8.13-83.99,2.33-168.04-.78-251.82-6.75C191.78,6.87,104.74-15.66,46.72,30.97-17.68,82.73,7.05,176.94,17.15,246.57c8.88,61.21,12.46,123.24,9.54,185.04-1.49,31.57-4.67,63.06-9.64,94.26-4.64,29.13-12.57,57.45-3.59,86.74,6.24,20.34,20.63,37.32,37.16,50.68,45.53,36.77,101.13,42.15,157.31,36.2,190.88-20.22,386.28-20.45,577.75-9.57,78.29,4.45,158.62,11.37,235.73-7.06,83.41-19.93,115.88-100.44,116.2-179.47.1-23.26-2.28-46.3-5.45-69.25Z"/>
  <g>
    <path class="cls-12" d="m748.52,97.57l-211.53,159.21h-20.89v212.86s20.01-1.66,20.89-.77l211.53,159.21V97.57Z"/>
    <g>
      <polygon class="cls-13" points="750.88 107.12 629.95 303.43 629.95 423.06 750.88 620.29 750.88 107.12"/>
      <line class="cls-5" x1="629.95" y1="423.06" x2="750.88" y2="620.29"/>
      <line class="cls-5" x1="750.88" y1="107.12" x2="629.95" y2="303.43"/>
    </g>
    <g>
      <line class="cls-1" x1="748.52" y1="97.57" x2="536.99" y2="256.79"/>
      <line class="cls-1" x1="536.99" y1="468.88" x2="748.52" y2="628.09"/>
    </g>
    <path class="cls-2" d="m518.79,202.01c55.1-16.46,108.64,21.09,55.62,106.98"/>
    <path class="cls-2" d="m518.79,522.26c55.1,16.46,108.64-21.09,55.62-106.98"/>
    <g>
      <rect class="cls-13" x="388.47" y="313.47" width="141.23" height="98.72"/>
      <rect class="cls-10" x="478.89" y="302.55" width="108.84" height="120.56"/>
      <rect class="cls-8" x="478.89" y="302.55" width="108.84" height="7.46"/>
      <rect class="cls-8" x="478.89" y="413.78" width="108.84" height="9.33"/>
      <rect class="cls-15" x="478.89" y="322.67" width="108.84" height="55.93"/>
      <rect class="cls-7" x="478.89" y="322.67" width="108.84" height="34"/>
      <g>
        <path class="cls-14" d="m563.02,303.53c1.51,17.16.76,42.09,1.06,59.55,0,0-.13,29.77-.13,29.77-.08,9.92-.01,19.85-.93,29.77h-.29c-1.45-17.16-.78-42.09-1.06-59.55,0,0,.12-29.77.12-29.77.11-9.92-.05-19.85.94-29.77h.29Z"/>
        <path class="cls-14" d="m554.96,422.63c-1.51-17.16-.76-42.09-1.06-59.55,0,0,.13-29.77.13-29.77.08-9.92.01-19.85.93-29.77h.29c1.45,17.16.78,42.09,1.06,59.55,0,0-.12,29.77-.12,29.77-.11,9.92.05,19.85-.94,29.77h-.29Z"/>
        <path class="cls-14" d="m547.49,303.53c1.51,17.16.76,42.09,1.06,59.55,0,0-.13,29.77-.13,29.77-.08,9.92-.01,19.85-.93,29.77h-.29c-1.45-17.16-.78-42.09-1.06-59.55,0,0,.12-29.77.12-29.77.11-9.92-.05-19.85.94-29.77h.29Z"/>
        <path class="cls-14" d="m539.73,303.53c1.51,17.16.76,42.09,1.06,59.55,0,0-.13,29.77-.13,29.77-.08,9.92-.01,19.85-.93,29.77h-.29c-1.45-17.16-.78-42.09-1.06-59.55,0,0,.12-29.77.12-29.77.11-9.92-.05-19.85.94-29.77h.29Z"/>
        <path class="cls-14" d="m485.38,303.53c1.51,17.16.76,42.09,1.06,59.55,0,0-.13,29.77-.13,29.77-.08,9.92-.01,19.85-.93,29.77h-.29c-1.45-17.16-.78-42.09-1.06-59.55,0,0,.12-29.77.12-29.77.1-9.92-.05-19.85.94-29.77h.29Z"/>
        <path class="cls-14" d="m500.91,303.53c1.51,17.16.76,42.09,1.06,59.55,0,0-.13,29.77-.13,29.77-.08,9.92-.01,19.85-.93,29.77h-.29c-1.45-17.16-.78-42.09-1.06-59.55,0,0,.12-29.77.12-29.77.11-9.92-.05-19.85.94-29.77h.29Z"/>
        <path class="cls-14" d="m508.67,303.53c1.51,17.16.76,42.09,1.06,59.55,0,0-.13,29.77-.13,29.77-.08,9.92-.01,19.85-.93,29.77h-.29c-1.45-17.16-.78-42.09-1.06-59.55,0,0,.12-29.77.12-29.77.11-9.92-.05-19.85.94-29.77h.29Z"/>
        <path class="cls-14" d="m516.44,303.53c1.51,17.16.76,42.09,1.06,59.55,0,0-.13,29.77-.13,29.77-.08,9.92-.01,19.85-.93,29.77h-.29c-1.45-17.16-.78-42.09-1.06-59.55,0,0,.12-29.77.12-29.77.11-9.92-.05-19.85.94-29.77h.29Z"/>
        <path class="cls-14" d="m524.2,303.53c1.51,17.16.76,42.09,1.06,59.55,0,0-.13,29.77-.13,29.77-.08,9.92-.01,19.85-.93,29.77h-.29c-1.45-17.16-.78-42.09-1.06-59.55,0,0,.12-29.77.12-29.77.11-9.92-.05-19.85.94-29.77h.29Z"/>
        <path class="cls-14" d="m570.78,303.53c1.51,17.16.76,42.09,1.06,59.55,0,0-.13,29.77-.13,29.77-.08,9.92-.01,19.85-.93,29.77h-.29c-1.45-17.16-.78-42.09-1.06-59.55,0,0,.12-29.77.12-29.77.11-9.92-.05-19.85.94-29.77h.29Z"/>
        <path class="cls-14" d="m492.85,422.63c-1.51-17.16-.76-42.09-1.06-59.55,0,0,.13-29.77.13-29.77.08-9.92.01-19.85.93-29.77h.29c1.45,17.16.78,42.09,1.06,59.55,0,0-.12,29.77-.12,29.77-.11,9.92.05,19.85-.94,29.77h-.29Z"/>
        <path class="cls-14" d="m531.96,303.53c1.51,17.16.76,42.09,1.06,59.55,0,0-.13,29.77-.13,29.77-.08,9.92-.01,19.85-.93,29.77h-.29c-1.45-17.16-.78-42.09-1.06-59.55,0,0,.12-29.77.12-29.77.11-9.92-.05-19.85.94-29.77h.29Z"/>
        <path class="cls-14" d="m578.54,303.53c1.51,17.16.76,42.09,1.06,59.55,0,0-.13,29.77-.13,29.77-.08,9.92-.01,19.85-.93,29.77h-.29c-1.45-17.16-.78-42.09-1.06-59.55,0,0,.12-29.77.12-29.77.11-9.92-.05-19.85.94-29.77h.29Z"/>
      </g>
      <rect class="cls-13" x="584.59" y="302.55" width="45.36" height="120.56"/>
      <polyline class="cls-4" points="516.19 302.55 584.82 302.55 584.82 423.11 516.19 423.11"/>
      <path class="cls-9" d="m629.95,302.55v120.56c44.78,0,44.78-120.56,0-120.56Z"/>
    </g>
    <g>
      <rect class="cls-13" x="388.47" y="219.17" width="165.77" height="69.1"/>
      <rect class="cls-13" x="388.47" y="437.39" width="165.77" height="69.1"/>
      <rect class="cls-13" x="388.47" y="219.17" width="65.3" height="287.33"/>
    </g>
    <rect class="cls-11" x="506.74" y="182.61" width="19.6" height="360.44"/>
    <rect x="744.72" y="75.83" width="15" height="574" rx="7.5" ry="7.5"/>
    <path d="m629.95,423.26c-3.78.99-7.56.83-11.34.94-3.78.09-7.56.1-11.34.12-3.78-.03-7.56-.05-11.34-.13-3.78-.08-7.56-.01-11.34-.93v-.29c7.48-1.49,15.12-.79,22.68-1.06,3.78.02,7.56.04,11.34.12,3.78.11,7.56-.05,11.34.94v.29h0Z"/>
    <path d="m584.59,302.41c3.78-.99,7.56-.83,11.34-.94,3.78-.09,7.56-.1,11.34-.12,3.78.03,7.56.05,11.34.13,3.78.08,7.56.01,11.34.93v.29c-7.48,1.49-15.12.79-22.68,1.06-3.78-.02-7.56-.04-11.34-.12-3.78-.11-7.56.05-11.34-.94v-.29h0Z"/>
    <path d="m526.43,288.59c9.21-1.33,18.54-.8,27.81-1.02,0,0-1.17,1.17-1.17,1.17,0-3.97-.06-7.94-.02-11.91.24-11.08-.35-24.76,1.05-35.72,0,0,.29,0,.29,0,.57,3.97.75,7.94.84,11.91l.14,11.91c.05,7.51.11,17.57.04,24.99-7.34-.07-14.69-.03-22.03-.32-2.32-.14-4.64-.32-6.95-.7v-.29h0Z"/>
    <path d="m526.43,436.58c7.99-1.29,19.65-.79,27.81-1.02,0,0,1.17-.01,1.17-.01,0,4.41.06,8.83.03,13.24-.02,6.01-.12,18.12-.21,24.12-.09,4.02-.27,8.04-.84,12.06h-.29c-1.4-11.09-.81-24.98-1.05-36.19-.03-4.02.02-8.04.03-12.06l1.17,1.17c-4.87-.04-16.14-.09-20.86-.32-2.32-.14-4.64-.32-6.95-.7v-.29h0Z"/>
    <path d="m506.61,218.44c.99,5.96.83,11.92.94,17.88.09,5.96.1,11.92.12,17.88-.03,5.96-.05,11.92-.13,17.88-.08,5.96-.01,11.92-.93,17.88h-.29c-1.5-11.89-.79-23.82-1.06-35.77.02-5.96.04-11.92.12-17.88.11-5.96-.05-11.92.94-17.88h.29Z"/>
    <path d="m506.61,437.34c.99,5.7.83,11.41.94,17.11.09,5.7.1,11.41.12,17.11-.03,5.7-.05,11.41-.13,17.11-.08,5.7-.01,11.41-.93,17.11h-.29c-1.5-11.38-.79-22.8-1.06-34.22.02-5.7.04-11.41.12-17.11.11-5.7-.05-11.41.94-17.11h.29Z"/>
    <path class="cls-14" d="m478.74,411.86c-1.56-16.35-.77-32.73-1.06-49.12.03-8.19.05-16.37.13-24.56.08-8.19.01-16.37.93-24.56h.29c1.5,16.35.79,32.73,1.06,49.12-.02,8.19-.04,16.37-.12,24.56-.1,8.19.05,16.37-.94,24.56h-.29Z"/>
    <path d="m526.61,218.44c.99,5.96.83,11.92.94,17.88.09,5.96.1,11.92.12,17.88-.03,5.96-.05,11.92-.13,17.88-.08,5.96-.01,11.92-.93,17.88h-.29c-1.5-11.89-.79-23.82-1.06-35.77.02-5.96.04-11.92.12-17.88.11-5.96-.05-11.92.94-17.88h.29Z"/>
    <path d="m526.61,437.34c.99,5.7.83,11.41.94,17.11.09,5.7.1,11.41.12,17.11-.03,5.7-.05,11.41-.13,17.11-.08,5.7-.01,11.41-.93,17.11h-.29c-1.5-11.38-.79-22.8-1.06-34.22.02-5.7.04-11.41.12-17.11.11-5.7-.05-11.41.94-17.11h.29Z"/>
    <line class="cls-3" x1="300.47" y1="327.92" x2="478.26" y2="362.94"/>
    <g>
      <path d="m305.3,106.96c-1.93-.55-3.33-1.24-4.21-2.04s-1.32-1.81-1.32-2.99c0-1.34.54-2.46,1.61-3.33s2.47-1.32,4.19-1.32c1.17,0,2.22.23,3.13.68s1.63,1.08,2.13,1.88.76,1.67.76,2.61h-2.26c0-1.04-.33-1.85-.98-2.44-.66-.59-1.58-.89-2.78-.89-1.11,0-1.97.24-2.6.73s-.93,1.17-.93,2.04c0,.7.29,1.29.88,1.77s1.59.92,3.01,1.32c1.42.4,2.53.84,3.33,1.32s1.39,1.04,1.78,1.68.58,1.39.58,2.26c0,1.38-.54,2.49-1.62,3.32s-2.52,1.25-4.32,1.25c-1.17,0-2.27-.22-3.28-.67s-1.8-1.06-2.35-1.85-.83-1.67-.83-2.66h2.26c0,1.03.38,1.85,1.14,2.44s1.78.9,3.05.9c1.19,0,2.1-.24,2.73-.73s.95-1.14.95-1.98-.29-1.48-.88-1.94-1.65-.91-3.19-1.35Z"/>
      <path d="m314.18,98.52c0-.35.11-.65.32-.89s.53-.36.96-.36.74.12.96.36.33.54.33.89-.11.64-.33.88-.54.35-.96.35-.74-.12-.96-.35-.32-.53-.32-.88Zm2.34,16.04h-2.17v-12.68h2.17v12.68Z"/>
      <path d="m319.48,108.12c0-1.98.46-3.55,1.37-4.72s2.12-1.75,3.63-1.75,2.75.55,3.62,1.64l.11-1.41h1.98v12.38c0,1.64-.49,2.93-1.46,3.88s-2.28,1.42-3.92,1.42c-.91,0-1.81-.2-2.68-.59s-1.54-.93-2-1.61l1.12-1.3c.93,1.15,2.07,1.72,3.41,1.72,1.05,0,1.88-.3,2.47-.89s.88-1.43.88-2.51v-1.09c-.87,1-2.05,1.5-3.55,1.5s-2.69-.6-3.6-1.79-1.38-2.82-1.38-4.89Zm2.18.25c0,1.43.29,2.55.88,3.37s1.41,1.22,2.46,1.22c1.37,0,2.37-.62,3.01-1.86v-5.79c-.66-1.21-1.66-1.82-2.99-1.82-1.05,0-1.88.41-2.47,1.23s-.89,2.04-.89,3.64Z"/>
      <path d="m335.51,101.89l.07,1.59c.97-1.22,2.23-1.83,3.8-1.83,2.68,0,4.03,1.51,4.05,4.54v8.38h-2.17v-8.39c0-.91-.22-1.59-.63-2.03s-1.05-.66-1.92-.66c-.7,0-1.32.19-1.85.56s-.95.87-1.24,1.48v9.04h-2.17v-12.68h2.05Z"/>
      <path d="m354.53,114.57c-.12-.25-.23-.7-.3-1.34-1.01,1.05-2.21,1.57-3.61,1.57-1.25,0-2.28-.35-3.08-1.06s-1.2-1.6-1.2-2.69c0-1.32.5-2.35,1.51-3.08s2.42-1.1,4.24-1.1h2.11v-1c0-.76-.23-1.36-.68-1.81s-1.12-.67-2-.67c-.77,0-1.42.2-1.95.59s-.79.86-.79,1.42h-2.18c0-.63.22-1.24.67-1.83s1.06-1.06,1.83-1.4,1.62-.52,2.54-.52c1.46,0,2.61.37,3.43,1.1s1.26,1.74,1.29,3.02v5.84c0,1.16.15,2.09.45,2.78v.19h-2.27Zm-3.6-1.65c.68,0,1.32-.18,1.93-.53s1.05-.81,1.32-1.37v-2.6h-1.7c-2.66,0-3.98.78-3.98,2.33,0,.68.23,1.21.68,1.59s1.04.57,1.75.57Z"/>
      <path d="m362.11,114.57h-2.17v-18h2.17v18Z"/>
      <path d="m371.53,98.52c0-.35.11-.65.32-.89s.53-.36.96-.36.74.12.96.36.33.54.33.89-.11.64-.33.88-.54.35-.96.35-.74-.12-.96-.35-.32-.53-.32-.88Zm2.34,16.04h-2.17v-12.68h2.17v12.68Z"/>
      <path d="m379.39,101.89l.07,1.59c.97-1.22,2.23-1.83,3.8-1.83,2.68,0,4.03,1.51,4.05,4.54v8.38h-2.17v-8.39c0-.91-.22-1.59-.63-2.03s-1.05-.66-1.92-.66c-.7,0-1.32.19-1.85.56s-.95.87-1.24,1.48v9.04h-2.17v-12.68h2.05Z"/>
      <path d="m401.3,108.37c0,1.93-.44,3.48-1.32,4.66s-2.08,1.77-3.59,1.77-2.75-.49-3.63-1.46v6.11h-2.17v-17.55h1.98l.11,1.41c.88-1.09,2.11-1.64,3.68-1.64s2.73.57,3.62,1.72,1.33,2.75,1.33,4.79v.2Zm-2.17-.25c0-1.43-.3-2.56-.91-3.39s-1.45-1.24-2.51-1.24c-1.31,0-2.3.58-2.95,1.75v6.06c.65,1.16,1.64,1.73,2.98,1.73,1.04,0,1.87-.41,2.48-1.24s.92-2.05.92-3.67Z"/>
      <path d="m411.88,113.31c-.84.99-2.08,1.49-3.71,1.49-1.35,0-2.38-.39-3.09-1.18s-1.06-1.95-1.07-3.49v-8.25h2.17v8.19c0,1.92.78,2.88,2.34,2.88,1.66,0,2.76-.62,3.3-1.85v-9.22h2.17v12.68h-2.06l-.05-1.25Z"/>
      <path d="m420.22,98.82v3.07h2.37v1.68h-2.37v7.87c0,.51.11.89.32,1.14.21.25.57.38,1.08.38.25,0,.59-.05,1.03-.14v1.75c-.57.16-1.12.23-1.66.23-.97,0-1.7-.29-2.19-.88s-.74-1.42-.74-2.5v-7.86h-2.31v-1.68h2.31v-3.07h2.17Z"/>
    </g>
    <line class="cls-3" x1="433.89" y1="108.96" x2="516.09" y2="182.88"/>
    <g>
      <path d="m239.27,330.54l4.88-14.07h2.46l-6.33,17.06h-1.99l-6.32-17.06h2.45l4.85,14.07Z"/>
      <path d="m247.44,327.08c0-1.24.24-2.36.73-3.35s1.17-1.76,2.04-2.3,1.87-.81,2.98-.81c1.73,0,3.12.6,4.19,1.79s1.6,2.79,1.6,4.77v.15c0,1.23-.24,2.34-.71,3.32s-1.15,1.74-2.03,2.29-1.89.82-3.03.82c-1.72,0-3.11-.6-4.18-1.79s-1.6-2.78-1.6-4.75v-.15Zm2.18.26c0,1.41.33,2.54.98,3.39s1.53,1.28,2.62,1.28,1.98-.43,2.62-1.29.97-2.07.97-3.63c0-1.39-.33-2.52-.99-3.38s-1.54-1.29-2.63-1.29-1.93.43-2.59,1.28-.98,2.07-.98,3.66Z"/>
      <path d="m261.72,317.49c0-.35.11-.65.32-.89s.53-.36.96-.36.74.12.96.36.33.54.33.89-.11.64-.33.88-.54.35-.96.35-.74-.12-.96-.35-.32-.53-.32-.88Zm2.34,16.04h-2.17v-12.68h2.17v12.68Z"/>
      <path d="m272.61,332c.77,0,1.45-.23,2.03-.7s.9-1.05.96-1.76h2.05c-.04.73-.29,1.42-.75,2.07s-1.08,1.18-1.85,1.57-1.58.59-2.44.59c-1.73,0-3.1-.58-4.12-1.73s-1.53-2.73-1.53-4.73v-.36c0-1.23.23-2.33.68-3.29s1.1-1.71,1.95-2.24,1.85-.8,3.01-.8c1.42,0,2.6.43,3.54,1.28s1.44,1.96,1.51,3.32h-2.05c-.06-.82-.37-1.49-.93-2.02s-1.25-.79-2.07-.79c-1.1,0-1.96.4-2.56,1.19s-.91,1.94-.91,3.44v.41c0,1.46.3,2.59.9,3.38s1.46,1.18,2.58,1.18Z"/>
      <path d="m285.35,333.77c-1.72,0-3.12-.56-4.2-1.69s-1.62-2.64-1.62-4.53v-.4c0-1.26.24-2.38.72-3.37s1.15-1.76,2.02-2.32,1.8-.84,2.81-.84c1.65,0,2.93.54,3.84,1.63s1.37,2.64,1.37,4.66v.9h-8.59c.03,1.25.4,2.26,1.1,3.03s1.59,1.15,2.67,1.15c.77,0,1.41-.16,1.95-.47s1-.73,1.39-1.24l1.32,1.03c-1.06,1.63-2.66,2.45-4.78,2.45Zm-.27-11.37c-.88,0-1.61.32-2.2.96s-.96,1.53-1.1,2.68h6.35v-.16c-.06-1.1-.36-1.96-.89-2.56s-1.25-.91-2.16-.91Z"/>
    </g>
    <g>
      <path d="m305.3,615.91c-1.93-.55-3.33-1.24-4.21-2.04s-1.32-1.81-1.32-2.99c0-1.34.54-2.46,1.61-3.33s2.47-1.32,4.19-1.32c1.17,0,2.22.23,3.13.68s1.63,1.08,2.13,1.88.76,1.67.76,2.61h-2.26c0-1.04-.33-1.85-.98-2.44s-1.58-.89-2.78-.89c-1.11,0-1.97.24-2.6.73s-.93,1.17-.93,2.04c0,.7.29,1.29.88,1.77s1.59.92,3.01,1.32c1.42.4,2.53.84,3.33,1.32s1.39,1.04,1.78,1.68.58,1.39.58,2.26c0,1.38-.54,2.49-1.62,3.32s-2.52,1.25-4.32,1.25c-1.17,0-2.27-.22-3.28-.67s-1.8-1.06-2.35-1.85-.83-1.67-.83-2.66h2.26c0,1.03.38,1.85,1.14,2.44s1.78.9,3.05.9c1.19,0,2.1-.24,2.73-.73s.95-1.14.95-1.98-.29-1.48-.88-1.94-1.65-.91-3.19-1.35Z"/>
      <path d="m314.18,607.48c0-.35.11-.65.32-.89s.53-.36.96-.36.74.12.96.36.33.54.33.89-.11.64-.33.88-.54.35-.96.35-.74-.12-.96-.35-.32-.53-.32-.88Zm2.34,16.04h-2.17v-12.68h2.17v12.68Z"/>
      <path d="m319.48,617.07c0-1.98.46-3.55,1.37-4.72s2.12-1.75,3.63-1.75,2.75.55,3.62,1.64l.11-1.41h1.98v12.38c0,1.64-.49,2.93-1.46,3.88s-2.28,1.42-3.92,1.42c-.91,0-1.81-.2-2.68-.59s-1.54-.93-2-1.61l1.12-1.3c.93,1.15,2.07,1.72,3.41,1.72,1.05,0,1.88-.3,2.47-.89s.88-1.43.88-2.51v-1.09c-.87,1-2.05,1.5-3.55,1.5s-2.69-.6-3.6-1.79-1.38-2.82-1.38-4.89Zm2.18.25c0,1.43.29,2.55.88,3.37s1.41,1.22,2.46,1.22c1.37,0,2.37-.62,3.01-1.86v-5.79c-.66-1.21-1.66-1.82-2.99-1.82-1.05,0-1.88.41-2.47,1.23s-.89,2.04-.89,3.64Z"/>
      <path d="m335.51,610.84l.07,1.59c.97-1.22,2.23-1.83,3.8-1.83,2.68,0,4.03,1.51,4.05,4.54v8.38h-2.17v-8.39c0-.91-.22-1.59-.63-2.03s-1.05-.66-1.92-.66c-.7,0-1.32.19-1.85.56s-.95.87-1.24,1.48v9.04h-2.17v-12.68h2.05Z"/>
      <path d="m354.53,623.52c-.12-.25-.23-.7-.3-1.34-1.01,1.05-2.21,1.57-3.61,1.57-1.25,0-2.28-.35-3.08-1.06s-1.2-1.6-1.2-2.69c0-1.32.5-2.35,1.51-3.08s2.42-1.1,4.24-1.1h2.11v-1c0-.76-.23-1.36-.68-1.81s-1.12-.67-2-.67c-.77,0-1.42.2-1.95.59s-.79.86-.79,1.42h-2.18c0-.63.22-1.24.67-1.83s1.06-1.06,1.83-1.4,1.62-.52,2.54-.52c1.46,0,2.61.37,3.43,1.1s1.26,1.74,1.29,3.02v5.84c0,1.16.15,2.09.45,2.78v.19h-2.27Zm-3.6-1.65c.68,0,1.32-.18,1.93-.53s1.05-.81,1.32-1.37v-2.6h-1.7c-2.66,0-3.98.78-3.98,2.33,0,.68.23,1.21.68,1.59s1.04.57,1.75.57Z"/>
      <path d="m362.11,623.52h-2.17v-18h2.17v18Z"/>
      <path d="m371.53,607.48c0-.35.11-.65.32-.89s.53-.36.96-.36.74.12.96.36.33.54.33.89-.11.64-.33.88-.54.35-.96.35-.74-.12-.96-.35-.32-.53-.32-.88Zm2.34,16.04h-2.17v-12.68h2.17v12.68Z"/>
      <path d="m379.39,610.84l.07,1.59c.97-1.22,2.23-1.83,3.8-1.83,2.68,0,4.03,1.51,4.05,4.54v8.38h-2.17v-8.39c0-.91-.22-1.59-.63-2.03s-1.05-.66-1.92-.66c-.7,0-1.32.19-1.85.56s-.95.87-1.24,1.48v9.04h-2.17v-12.68h2.05Z"/>
      <path d="m401.3,617.32c0,1.93-.44,3.48-1.32,4.66s-2.08,1.77-3.59,1.77-2.75-.49-3.63-1.46v6.11h-2.17v-17.55h1.98l.11,1.41c.88-1.09,2.11-1.64,3.68-1.64s2.73.57,3.62,1.72,1.33,2.75,1.33,4.79v.2Zm-2.17-.25c0-1.43-.3-2.56-.91-3.39s-1.45-1.24-2.51-1.24c-1.31,0-2.3.58-2.95,1.75v6.06c.65,1.16,1.64,1.73,2.98,1.73,1.04,0,1.87-.41,2.48-1.24s.92-2.05.92-3.67Z"/>
      <path d="m411.88,622.26c-.84.99-2.08,1.49-3.71,1.49-1.35,0-2.38-.39-3.09-1.18s-1.06-1.95-1.07-3.49v-8.25h2.17v8.19c0,1.92.78,2.88,2.34,2.88,1.66,0,2.76-.62,3.3-1.85v-9.22h2.17v12.68h-2.06l-.05-1.25Z"/>
      <path d="m420.22,607.77v3.07h2.37v1.68h-2.37v7.87c0,.51.11.89.32,1.14.21.25.57.38,1.08.38.25,0,.59-.05,1.03-.14v1.75c-.57.16-1.12.23-1.66.23-.97,0-1.7-.29-2.19-.88s-.74-1.42-.74-2.5v-7.86h-2.31v-1.68h2.31v-3.07h2.17Z"/>
    </g>
    <line class="cls-3" x1="433.89" y1="616.47" x2="516.09" y2="542.55"/>
    <line class="cls-3" x1="348.26" y1="467.16" x2="434.9" y2="490.98"/>
    <g>
      <path d="m261.46,455.71l5.58,13.92,5.58-13.92h2.92v17.06h-2.25v-6.64l.21-7.17-5.6,13.82h-1.72l-5.59-13.78.22,7.14v6.64h-2.25v-17.06h2.91Z"/>
      <path d="m287,472.77c-.12-.25-.23-.7-.3-1.34-1.01,1.05-2.21,1.57-3.61,1.57-1.25,0-2.28-.35-3.08-1.06s-1.2-1.6-1.2-2.69c0-1.32.5-2.35,1.51-3.08s2.42-1.1,4.24-1.1h2.11v-1c0-.76-.23-1.36-.68-1.81s-1.12-.67-2-.67c-.77,0-1.42.2-1.95.59s-.79.86-.79,1.42h-2.18c0-.63.22-1.24.67-1.83s1.06-1.06,1.83-1.4,1.62-.52,2.54-.52c1.46,0,2.61.37,3.43,1.1s1.26,1.74,1.29,3.02v5.84c0,1.16.15,2.09.45,2.78v.19h-2.27Zm-3.6-1.65c.68,0,1.32-.18,1.93-.53s1.05-.81,1.32-1.37v-2.6h-1.7c-2.66,0-3.98.78-3.98,2.33,0,.68.23,1.21.68,1.59s1.04.57,1.75.57Z"/>
      <path d="m291.71,466.32c0-1.98.46-3.55,1.37-4.72s2.12-1.75,3.63-1.75,2.75.55,3.62,1.64l.11-1.41h1.98v12.38c0,1.64-.49,2.93-1.46,3.88s-2.28,1.42-3.92,1.42c-.91,0-1.81-.2-2.68-.59s-1.54-.93-2-1.61l1.12-1.3c.93,1.15,2.07,1.72,3.41,1.72,1.05,0,1.88-.3,2.47-.89s.88-1.43.88-2.51v-1.09c-.87,1-2.05,1.5-3.55,1.5s-2.69-.6-3.6-1.79-1.38-2.82-1.38-4.89Zm2.18.25c0,1.43.29,2.55.88,3.37s1.41,1.22,2.46,1.22c1.37,0,2.37-.62,3.01-1.86v-5.79c-.66-1.21-1.66-1.82-2.99-1.82-1.05,0-1.88.41-2.47,1.23s-.89,2.04-.89,3.64Z"/>
      <path d="m307.74,460.09l.07,1.59c.97-1.22,2.23-1.83,3.8-1.83,2.68,0,4.03,1.51,4.05,4.54v8.38h-2.17v-8.39c0-.91-.22-1.59-.63-2.03s-1.05-.66-1.92-.66c-.7,0-1.32.19-1.85.56s-.95.87-1.24,1.48v9.04h-2.17v-12.68h2.05Z"/>
      <path d="m324.2,473c-1.72,0-3.12-.56-4.2-1.69s-1.62-2.64-1.62-4.53v-.4c0-1.26.24-2.38.72-3.37s1.15-1.76,2.02-2.32,1.8-.84,2.81-.84c1.65,0,2.93.54,3.84,1.63s1.37,2.64,1.37,4.66v.9h-8.59c.03,1.25.4,2.26,1.1,3.03s1.59,1.15,2.67,1.15c.77,0,1.41-.16,1.95-.47s1-.73,1.39-1.24l1.32,1.03c-1.06,1.63-2.66,2.45-4.78,2.45Zm-.27-11.37c-.88,0-1.61.32-2.2.96s-.96,1.53-1.1,2.68h6.35v-.16c-.06-1.1-.36-1.96-.89-2.56s-1.25-.91-2.16-.91Z"/>
      <path d="m334.59,457.02v3.07h2.37v1.68h-2.37v7.87c0,.51.11.89.32,1.14s.57.38,1.08.38c.25,0,.59-.05,1.03-.14v1.75c-.57.16-1.12.23-1.66.23-.97,0-1.7-.29-2.19-.88s-.74-1.42-.74-2.5v-7.86h-2.31v-1.68h2.31v-3.07h2.17Z"/>
    </g>
    <line class="cls-3" x1="300.47" y1="261.9" x2="449.41" y2="330.82"/>
    <g>
      <path d="m231.62,259.91c-1.93-.55-3.33-1.24-4.21-2.04s-1.32-1.81-1.32-2.99c0-1.34.54-2.46,1.61-3.33s2.47-1.32,4.19-1.32c1.17,0,2.22.23,3.13.68s1.63,1.08,2.13,1.88.76,1.67.76,2.61h-2.26c0-1.04-.33-1.85-.98-2.44-.66-.59-1.58-.89-2.78-.89-1.11,0-1.97.24-2.6.73s-.93,1.17-.93,2.04c0,.7.29,1.29.88,1.77s1.59.92,3.01,1.32c1.42.4,2.53.84,3.33,1.32s1.39,1.04,1.78,1.68.58,1.39.58,2.26c0,1.38-.54,2.49-1.62,3.32s-2.52,1.25-4.32,1.25c-1.17,0-2.27-.22-3.28-.67s-1.8-1.06-2.35-1.85-.83-1.67-.83-2.66h2.26c0,1.03.38,1.85,1.14,2.44s1.78.9,3.05.9c1.19,0,2.1-.24,2.73-.73s.95-1.14.95-1.98-.29-1.48-.88-1.94-1.65-.91-3.19-1.35Z"/>
      <path d="m245,261.15h-5.72v-1.77h5.72v1.77Z"/>
      <path d="m257.83,261.31c0,1.93-.44,3.48-1.32,4.66s-2.08,1.77-3.59,1.77-2.75-.49-3.63-1.46v6.11h-2.17v-17.55h1.98l.11,1.41c.88-1.09,2.11-1.64,3.68-1.64s2.73.57,3.62,1.72,1.33,2.75,1.33,4.79v.2Zm-2.17-.25c0-1.43-.3-2.56-.91-3.39s-1.45-1.24-2.51-1.24c-1.31,0-2.3.58-2.95,1.75v6.06c.65,1.16,1.64,1.73,2.98,1.73,1.04,0,1.87-.41,2.48-1.24s.92-2.05.92-3.67Z"/>
      <path d="m260,261.05c0-1.24.24-2.36.73-3.35s1.17-1.76,2.04-2.3,1.87-.81,2.98-.81c1.73,0,3.12.6,4.19,1.79s1.6,2.79,1.6,4.77v.15c0,1.23-.24,2.34-.71,3.32s-1.15,1.74-2.03,2.29-1.89.82-3.03.82c-1.72,0-3.11-.6-4.18-1.79s-1.6-2.78-1.6-4.75v-.15Zm2.18.26c0,1.41.33,2.54.98,3.39s1.53,1.28,2.62,1.28,1.98-.43,2.62-1.29.97-2.07.97-3.63c0-1.39-.33-2.52-.99-3.38s-1.54-1.29-2.63-1.29-1.93.43-2.59,1.28-.98,2.07-.98,3.66Z"/>
      <path d="m276.62,267.51h-2.17v-18h2.17v18Z"/>
      <path d="m285.35,267.75c-1.72,0-3.12-.56-4.2-1.69s-1.62-2.64-1.62-4.53v-.4c0-1.26.24-2.38.72-3.37s1.15-1.76,2.02-2.32,1.8-.84,2.81-.84c1.65,0,2.93.54,3.84,1.63s1.37,2.64,1.37,4.66v.9h-8.59c.03,1.25.4,2.26,1.1,3.03s1.59,1.15,2.67,1.15c.77,0,1.41-.16,1.95-.47s1-.73,1.39-1.24l1.32,1.03c-1.06,1.63-2.66,2.45-4.78,2.45Zm-.27-11.37c-.88,0-1.61.32-2.2.96s-.96,1.53-1.1,2.68h6.35v-.16c-.06-1.1-.36-1.96-.89-2.56s-1.25-.91-2.16-.91Z"/>
    </g>
    <line class="cls-3" x1="843.58" y1="457.53" x2="694.64" y2="526.44"/>
    <g>
      <path d="m854.86,463.13v-17.06h4.82c1.48,0,2.8.33,3.94.98s2.02,1.59,2.64,2.8.94,2.6.94,4.17v1.09c0,1.61-.31,3.02-.93,4.23s-1.51,2.14-2.66,2.79-2.49.98-4.03,1h-4.72Zm2.25-15.22v13.38h2.37c1.73,0,3.08-.54,4.05-1.62s1.45-2.62,1.45-4.61v-1c0-1.94-.46-3.45-1.37-4.52s-2.2-1.62-3.87-1.64h-2.62Z"/>
      <path d="m870.27,447.09c0-.35.11-.65.32-.89s.53-.36.96-.36.74.12.96.36.33.54.33.89-.11.64-.33.88-.54.35-.96.35-.74-.12-.96-.35-.32-.53-.32-.88Zm2.34,16.04h-2.17v-12.68h2.17v12.68Z"/>
      <path d="m883.91,463.13c-.12-.25-.23-.7-.3-1.34-1.01,1.05-2.21,1.57-3.61,1.57-1.25,0-2.28-.35-3.08-1.06s-1.2-1.6-1.2-2.69c0-1.32.5-2.35,1.51-3.08s2.42-1.1,4.24-1.1h2.11v-1c0-.76-.23-1.36-.68-1.81s-1.12-.67-2-.67c-.77,0-1.42.2-1.95.59s-.79.86-.79,1.42h-2.18c0-.63.22-1.24.67-1.83s1.06-1.06,1.83-1.4,1.62-.52,2.54-.52c1.46,0,2.61.37,3.43,1.1s1.26,1.74,1.29,3.02v5.84c0,1.16.15,2.09.45,2.78v.19h-2.27Zm-3.6-1.65c.68,0,1.32-.18,1.93-.53s1.05-.81,1.32-1.37v-2.6h-1.7c-2.66,0-3.98.78-3.98,2.33,0,.68.23,1.21.68,1.59s1.04.57,1.75.57Z"/>
      <path d="m899.85,456.93c0,1.93-.44,3.48-1.32,4.66s-2.08,1.77-3.59,1.77-2.75-.49-3.63-1.46v6.11h-2.17v-17.55h1.98l.11,1.41c.88-1.09,2.11-1.64,3.68-1.64s2.73.57,3.62,1.72,1.33,2.75,1.33,4.79v.2Zm-2.17-.25c0-1.43-.3-2.56-.91-3.39s-1.45-1.24-2.51-1.24c-1.31,0-2.3.58-2.95,1.75v6.06c.65,1.16,1.64,1.73,2.98,1.73,1.04,0,1.87-.41,2.48-1.24s.92-2.05.92-3.67Z"/>
      <path d="m904.77,451.99c.96-1.18,2.21-1.77,3.75-1.77,2.68,0,4.03,1.51,4.05,4.54v8.38h-2.17v-8.39c0-.91-.22-1.59-.63-2.03s-1.05-.66-1.92-.66c-.7,0-1.32.19-1.85.56s-.95.87-1.24,1.48v9.04h-2.17v-18h2.17v6.86Z"/>
      <path d="m921.95,452.4c-.33-.05-.68-.08-1.07-.08-1.42,0-2.39.61-2.89,1.82v9h-2.17v-12.68h2.11l.04,1.46c.71-1.13,1.72-1.7,3.02-1.7.42,0,.74.05.96.16v2.02Z"/>
      <path d="m931.3,463.13c-.12-.25-.23-.7-.3-1.34-1.01,1.05-2.21,1.57-3.61,1.57-1.25,0-2.28-.35-3.08-1.06s-1.2-1.6-1.2-2.69c0-1.32.5-2.35,1.51-3.08s2.42-1.1,4.24-1.1h2.11v-1c0-.76-.23-1.36-.68-1.81s-1.12-.67-2-.67c-.77,0-1.42.2-1.95.59s-.79.86-.79,1.42h-2.18c0-.63.22-1.24.67-1.83s1.06-1.06,1.83-1.4,1.62-.52,2.54-.52c1.46,0,2.61.37,3.43,1.1s1.26,1.74,1.29,3.02v5.84c0,1.16.15,2.09.45,2.78v.19h-2.27Zm-3.6-1.65c.68,0,1.32-.18,1.93-.53s1.05-.81,1.32-1.37v-2.6h-1.7c-2.66,0-3.98.78-3.98,2.33,0,.68.23,1.21.68,1.59s1.04.57,1.75.57Z"/>
      <path d="m936.01,456.69c0-1.98.46-3.55,1.37-4.72s2.12-1.75,3.63-1.75,2.75.55,3.62,1.64l.11-1.41h1.98v12.38c0,1.64-.49,2.93-1.46,3.88s-2.28,1.42-3.92,1.42c-.91,0-1.81-.2-2.68-.59s-1.54-.93-2-1.61l1.12-1.3c.93,1.15,2.07,1.72,3.41,1.72,1.05,0,1.88-.3,2.47-.89s.88-1.43.88-2.51v-1.09c-.87,1-2.05,1.5-3.55,1.5s-2.69-.6-3.6-1.79-1.38-2.82-1.38-4.89Zm2.18.25c0,1.43.29,2.55.88,3.37s1.41,1.22,2.46,1.22c1.37,0,2.37-.62,3.01-1.86v-5.79c-.66-1.21-1.66-1.82-2.99-1.82-1.05,0-1.88.41-2.47,1.23s-.89,2.04-.89,3.64Z"/>
      <path d="m952.03,450.45l.06,1.41c.93-1.09,2.18-1.64,3.76-1.64,1.77,0,2.98.68,3.62,2.04.42-.61.97-1.1,1.65-1.48s1.47-.56,2.4-.56c2.78,0,4.2,1.47,4.24,4.42v8.5h-2.17v-8.37c0-.91-.21-1.58-.62-2.03s-1.11-.67-2.09-.67c-.8,0-1.47.24-2,.72s-.84,1.13-.93,1.94v8.41h-2.18v-8.31c0-1.84-.9-2.77-2.71-2.77-1.42,0-2.39.61-2.92,1.82v9.26h-2.17v-12.68h2.05Z"/>
    </g>
    <line class="cls-3" x1="418.28" y1="177.43" x2="477.19" y2="285.25"/>
    <g>
      <path d="m353.54,183.04h-2.26l-8.59-13.15v13.15h-2.26v-17.06h2.26l8.61,13.21v-13.21h2.24v17.06Z"/>
      <path d="m361.71,176.68h-5.72v-1.77h5.72v1.77Z"/>
      <path d="m374.53,176.84c0,1.93-.44,3.48-1.32,4.66s-2.08,1.77-3.59,1.77-2.75-.49-3.63-1.46v6.11h-2.17v-17.55h1.98l.11,1.41c.88-1.09,2.11-1.64,3.68-1.64s2.73.57,3.62,1.72,1.33,2.75,1.33,4.79v.2Zm-2.17-.25c0-1.43-.3-2.56-.91-3.39s-1.45-1.24-2.51-1.24c-1.31,0-2.3.58-2.95,1.75v6.06c.65,1.16,1.64,1.73,2.98,1.73,1.04,0,1.87-.41,2.48-1.24s.92-2.05.92-3.67Z"/>
      <path d="m376.71,176.58c0-1.24.24-2.36.73-3.35s1.17-1.76,2.04-2.3,1.87-.81,2.98-.81c1.73,0,3.12.6,4.19,1.79s1.6,2.79,1.6,4.77v.15c0,1.23-.24,2.34-.71,3.32s-1.15,1.74-2.03,2.29-1.89.82-3.03.82c-1.72,0-3.11-.6-4.18-1.79s-1.6-2.78-1.6-4.75v-.15Zm2.18.26c0,1.41.33,2.54.98,3.39s1.53,1.28,2.62,1.28,1.98-.43,2.62-1.29.97-2.07.97-3.63c0-1.39-.33-2.52-.99-3.38s-1.54-1.29-2.63-1.29-1.93.43-2.59,1.28-.98,2.07-.98,3.66Z"/>
      <path d="m393.33,183.04h-2.17v-18h2.17v18Z"/>
      <path d="m402.06,183.27c-1.72,0-3.12-.56-4.2-1.69s-1.62-2.64-1.62-4.53v-.4c0-1.26.24-2.38.72-3.37s1.15-1.76,2.02-2.32,1.8-.84,2.81-.84c1.65,0,2.93.54,3.84,1.63s1.37,2.64,1.37,4.66v.9h-8.59c.03,1.25.4,2.26,1.1,3.03s1.59,1.15,2.67,1.15c.77,0,1.41-.16,1.95-.47s1-.73,1.39-1.24l1.32,1.03c-1.06,1.63-2.66,2.45-4.78,2.45Zm-.27-11.37c-.88,0-1.61.32-2.2.96s-.96,1.53-1.1,2.68h6.35v-.16c-.06-1.1-.36-1.96-.89-2.56s-1.25-.91-2.16-.91Z"/>
    </g>
    <line class="cls-3" x1="354.93" y1="555.79" x2="477.19" y2="503.1"/>
    <g>
      <path d="m290.19,561.4h-2.26l-8.59-13.15v13.15h-2.26v-17.06h2.26l8.61,13.21v-13.21h2.24v17.06Z"/>
      <path d="m298.36,555.04h-5.72v-1.77h5.72v1.77Z"/>
      <path d="m311.18,555.2c0,1.93-.44,3.48-1.32,4.66s-2.08,1.77-3.59,1.77-2.75-.49-3.63-1.46v6.11h-2.17v-17.55h1.98l.11,1.41c.88-1.09,2.11-1.64,3.68-1.64s2.73.57,3.62,1.72,1.33,2.75,1.33,4.79v.2Zm-2.17-.25c0-1.43-.3-2.56-.91-3.39s-1.45-1.24-2.51-1.24c-1.31,0-2.3.58-2.95,1.75v6.06c.65,1.16,1.64,1.73,2.98,1.73,1.04,0,1.87-.41,2.48-1.24s.92-2.05.92-3.67Z"/>
      <path d="m313.36,554.95c0-1.24.24-2.36.73-3.35s1.17-1.76,2.04-2.3,1.87-.81,2.98-.81c1.73,0,3.12.6,4.19,1.79s1.6,2.79,1.6,4.77v.15c0,1.23-.24,2.34-.71,3.32s-1.15,1.74-2.03,2.29-1.89.82-3.03.82c-1.72,0-3.11-.6-4.18-1.79s-1.6-2.78-1.6-4.75v-.15Zm2.18.26c0,1.41.33,2.54.98,3.39s1.53,1.28,2.62,1.28,1.98-.43,2.62-1.29.97-2.07.97-3.63c0-1.39-.33-2.52-.99-3.38s-1.54-1.29-2.63-1.29-1.93.43-2.59,1.28-.98,2.07-.98,3.66Z"/>
      <path d="m329.97,561.4h-2.17v-18h2.17v18Z"/>
      <path d="m338.7,561.64c-1.72,0-3.12-.56-4.2-1.69s-1.62-2.64-1.62-4.53v-.4c0-1.26.24-2.38.72-3.37s1.15-1.76,2.02-2.32,1.8-.84,2.81-.84c1.65,0,2.93.54,3.84,1.63s1.37,2.64,1.37,4.66v.9h-8.59c.03,1.25.4,2.26,1.1,3.03s1.59,1.15,2.67,1.15c.77,0,1.41-.16,1.95-.47s1-.73,1.39-1.24l1.32,1.03c-1.06,1.63-2.66,2.45-4.78,2.45Zm-.27-11.37c-.88,0-1.61.32-2.2.96s-.96,1.53-1.1,2.68h6.35v-.16c-.06-1.1-.36-1.96-.89-2.56s-1.25-.91-2.16-.91Z"/>
    </g>
    <g>
      <path d="m538.62,69.24h-7.16v7.54h-2.25v-17.06h10.57v1.84h-8.32v5.85h7.16v1.84Z"/>
      <path d="m547.96,66.04c-.33-.05-.68-.08-1.07-.08-1.42,0-2.39.61-2.89,1.82v9h-2.17v-12.68h2.11l.04,1.46c.71-1.13,1.72-1.7,3.02-1.7.42,0,.74.05.96.16v2.02Z"/>
      <path d="m557.31,76.78c-.12-.25-.23-.7-.3-1.34-1.01,1.05-2.21,1.57-3.61,1.57-1.25,0-2.28-.35-3.08-1.06s-1.2-1.6-1.2-2.69c0-1.32.5-2.35,1.51-3.08s2.42-1.1,4.24-1.1h2.11v-1c0-.76-.23-1.36-.68-1.81s-1.12-.67-2-.67c-.77,0-1.42.2-1.95.59s-.79.86-.79,1.42h-2.18c0-.63.22-1.24.67-1.83s1.06-1.06,1.83-1.4,1.62-.52,2.54-.52c1.46,0,2.61.37,3.43,1.1s1.26,1.74,1.29,3.02v5.84c0,1.16.15,2.09.45,2.78v.19h-2.27Zm-3.6-1.65c.68,0,1.32-.18,1.93-.53s1.05-.81,1.32-1.37v-2.6h-1.7c-2.66,0-3.98.78-3.98,2.33,0,.68.23,1.21.68,1.59s1.04.57,1.75.57Z"/>
      <path d="m564.58,64.1l.06,1.41c.93-1.09,2.18-1.64,3.76-1.64,1.77,0,2.98.68,3.62,2.04.42-.61.97-1.1,1.65-1.48s1.47-.56,2.4-.56c2.78,0,4.2,1.47,4.24,4.42v8.5h-2.17v-8.37c0-.91-.21-1.58-.62-2.03s-1.11-.67-2.09-.67c-.8,0-1.47.24-2,.72s-.84,1.13-.93,1.94v8.41h-2.18v-8.31c0-1.84-.9-2.77-2.71-2.77-1.42,0-2.39.61-2.92,1.82v9.26h-2.17v-12.68h2.05Z"/>
      <path d="m588.84,77.01c-1.72,0-3.12-.56-4.2-1.69s-1.62-2.64-1.62-4.53v-.4c0-1.26.24-2.38.72-3.37s1.15-1.76,2.02-2.32,1.8-.84,2.81-.84c1.65,0,2.93.54,3.84,1.63s1.37,2.64,1.37,4.66v.9h-8.59c.03,1.25.4,2.26,1.1,3.03s1.59,1.15,2.67,1.15c.77,0,1.41-.16,1.95-.47s1-.73,1.39-1.24l1.32,1.03c-1.06,1.63-2.66,2.45-4.78,2.45Zm-.27-11.37c-.88,0-1.61.32-2.2.96s-.96,1.53-1.1,2.68h6.35v-.16c-.06-1.1-.36-1.96-.89-2.56s-1.25-.91-2.16-.91Z"/>
    </g>
    <polyline class="cls-3" points="687.26 145.09 605.06 71.17 752.84 89.62"/>
  </g>
</svg>