<?xml version="1.0" encoding="UTF-8"?><svg id="a" xmlns="http://www.w3.org/2000/svg" width="570" height="560" viewBox="0 0 570 560"><path d="m108.9838,549.3155c-38.3272-3.2672-84.5788-30.6437-97.0429-73.6919C1.2722,438.776.2109,158.6168,9.3421,115.5001c5.2584-24.8298,15.9578-49.0469,33.9179-66.5026,26.1746-25.4394,63.8416-33.3925,99.626-37.5917C246.9943-.8111,356.1269,2.4518,459.6824,17.7846c51.641,7.6462,85.8509,35.5375,98.4111,88.2753,11.0861,46.5485,7.0518,94.7874,7.6379,142.1972.6221,50.3271-.6106,100.7512-3.7178,150.9886-2.4787,40.0774-1.3478,92.4388-32.5147,122.5956-16.7438,16.2011-40.6317,22.9498-63.8671,25.7222-117.7577,14.0503-238.5968,11.8152-356.6479,1.752Z" fill="#f7ebd5" stroke-width="0"/><path d="m168.4961,282.0408h1.6289c1.0234-.0156,1.8281-.2852,2.4141-.8086s.8789-1.2305.8789-2.1211c0-2-.9961-3-2.9883-3-.9375,0-1.6855.2676-2.2441.8027s-.8379,1.2441-.8379,2.127h-2.168c0-1.3516.4941-2.4746,1.4824-3.3691s2.2441-1.3418,3.7676-1.3418c1.6094,0,2.8711.4258,3.7852,1.2773s1.3711,2.0352,1.3711,3.5508c0,.7422-.2402,1.4609-.7207,2.1562s-1.1348,1.2148-1.9629,1.5586c.9375.2969,1.6621.7891,2.1738,1.4766s.7676,1.5273.7676,2.5195c0,1.5312-.5,2.7461-1.5,3.6445s-2.3008,1.3477-3.9023,1.3477-2.9043-.4336-3.9082-1.3008-1.5059-2.0117-1.5059-3.4336h2.1797c0,.8984.293,1.6172.8789,2.1562s1.3711.8086,2.3555.8086c1.0469,0,1.8477-.2734,2.4023-.8203s.832-1.332.832-2.3555c0-.9922-.3047-1.7539-.9141-2.2852s-1.4883-.8047-2.6367-.8203h-1.6289v-1.7695Z" stroke-width="0"/><path d="m179.0898,290.49c0-.375.1113-.6875.334-.9375s.5566-.375,1.002-.375.7832.125,1.0137.375.3457.5625.3457.9375c0,.3594-.1152.6602-.3457.9023s-.5684.3633-1.0137.3633-.7793-.1211-1.002-.3633-.334-.543-.334-.9023Z" stroke-width="0"/><path d="m195.8359,284.3494c0,2.5391-.4336,4.4258-1.3008,5.6602s-2.2227,1.8516-4.0664,1.8516c-1.8203,0-3.168-.6035-4.043-1.8105s-1.3281-3.0098-1.3594-5.4082v-2.8945c0-2.5078.4336-4.3711,1.3008-5.5898s2.2266-1.8281,4.0781-1.8281c1.8359,0,3.1875.5879,4.0547,1.7637s1.3125,2.9902,1.3359,5.4434v2.8125Zm-2.168-2.9648c0-1.8359-.2578-3.1738-.7734-4.0137s-1.332-1.2598-2.4492-1.2598c-1.1094,0-1.918.418-2.4258,1.2539s-.7695,2.1211-.7852,3.8555v3.4688c0,1.8438.2676,3.2051.8027,4.084s1.3457,1.3184,2.4316,1.3184c1.0703,0,1.8652-.4141,2.3848-1.2422s.791-2.1328.8145-3.9141v-3.5508Z" stroke-width="0"/><path d="m210.7656,288.6385l4.875-14.0742h2.4609l-6.3281,17.0625h-1.9922l-6.3164-17.0625h2.4492l4.8516,14.0742Z" stroke-width="0"/><polyline points="178.455 105.5565 105 105.5565 105 259.9564" fill="none" stroke="#000" stroke-linecap="square" stroke-linejoin="round" stroke-width="2"/><polyline points="378.3489 105.5565 378.3489 221.0887 400.8489 228.5112 378.3523 235.9336 355.8489 243.3582 400.8489 258.2043 355.8489 273.0491 400.8489 287.8943 400.8489 287.9119 355.8489 302.7567 400.8489 317.6019 355.8489 332.4488 355.8489 332.552 378.3489 339.9764 378.3489 455.5085" fill="none" stroke="#000" stroke-linejoin="round" stroke-width="2"/><line x1="63.0466" y1="289.2738" x2="147.0466" y2="289.2738" fill="#fff" stroke="#000" stroke-linejoin="round" stroke-width="2"/><line x1="81.5266" y1="303.285" x2="128.5666" y2="303.285" fill="#fff" stroke="#000" stroke-linejoin="round" stroke-width="2"/><line x1="63.0466" y1="261.2514" x2="147.0466" y2="261.2514" fill="#fff" stroke="#000" stroke-linejoin="round" stroke-width="2"/><line x1="81.5266" y1="275.2626" x2="128.5666" y2="275.2626" fill="#fff" stroke="#000" stroke-linejoin="round" stroke-width="2"/><polyline points="178.455 105.5565 181.1304 105.5565 188.5548 83.0565 188.6579 83.0565 203.5049 128.0565 218.35 83.0565 233.1948 128.0565 233.2125 128.0565 248.0576 83.0565 262.9024 128.0565 277.7486 83.0565 285.1732 105.56 292.5955 128.0565 300.0181 105.5565 300.0181 105.5565" fill="none" stroke="#000" stroke-linejoin="round" stroke-width="2"/><path d="m40.1172,161.4788c0,2.5391-.4336,4.4258-1.3008,5.6602s-2.2227,1.8516-4.0664,1.8516c-1.8203,0-3.168-.6035-4.043-1.8105s-1.3281-3.0098-1.3594-5.4082v-2.8945c0-2.5078.4336-4.3711,1.3008-5.5898s2.2266-1.8281,4.0781-1.8281c1.8359,0,3.1875.5879,4.0547,1.7637s1.3125,2.9902,1.3359,5.4434v2.8125Zm-2.168-2.9648c0-1.8359-.2578-3.1738-.7734-4.0137s-1.332-1.2598-2.4492-1.2598c-1.1094,0-1.918.418-2.4258,1.2539s-.7695,2.1211-.7852,3.8555v3.4688c0,1.8438.2676,3.2051.8027,4.084s1.3457,1.3184,2.4316,1.3184c1.0703,0,1.8652-.4141,2.3848-1.2422s.791-2.1328.8145-3.9141v-3.5508Z" stroke-width="0"/><path d="m43.1641,167.6194c0-.375.1113-.6875.334-.9375s.5566-.375,1.002-.375.7832.125,1.0137.375.3457.5625.3457.9375c0,.3594-.1152.6602-.3457.9023s-.5684.3633-1.0137.3633-.7793-.1211-1.002-.3633-.334-.543-.334-.9023Z" stroke-width="0"/><path d="m56.3359,168.7561h-2.1797v-14.4492l-4.3711,1.6055v-1.9688l6.2109-2.332h.3398v17.1445Z" stroke-width="0"/><path d="m63.6836,160.2015l.8672-8.5078h8.7422v2.0039h-6.9023l-.5156,4.6523c.8359-.4922,1.7852-.7383,2.8477-.7383,1.5547,0,2.7891.5137,3.7031,1.541s1.3711,2.416,1.3711,4.166c0,1.7578-.4746,3.1426-1.4238,4.1543s-2.2754,1.5176-3.9785,1.5176c-1.5078,0-2.7383-.418-3.6914-1.2539s-1.4961-1.9922-1.6289-3.4688h2.0508c.1328.9766.4805,1.7129,1.043,2.209s1.3047.7441,2.2266.7441c1.0078,0,1.7988-.3438,2.373-1.0312s.8613-1.6367.8613-2.8477c0-1.1406-.3105-2.0566-.9316-2.748s-1.4473-1.0371-2.4785-1.0371c-.9453,0-1.6875.207-2.2266.6211l-.5742.4688-1.7344-.4453Z" stroke-width="0"/><path d="m92.0898,164.2913h-7.1484l-1.6055,4.4648h-2.3203l6.5156-17.0625h1.9688l6.5273,17.0625h-2.3086l-1.6289-4.4648Zm-6.4688-1.8398h5.8008l-2.9062-7.9805-2.8945,7.9805Z" stroke-width="0"/><path d="m195.9189,54.0852v.1348c.9707.6748,1.5107,2.0518,3.7227,6.2354.5938,1.0796,1.2412,1.377,2.4814,1.377l-.1611.8096h-4.1006c-2.0234-4.4536-2.5898-5.5874-3.4268-7.2339-.4043-.7559-.7549-.918-1.7266-.918h-.5664l-.998,4.8047c-.459,2.2402-.1621,2.5376,2.1582,2.5376l-.1348.8096h-7.4463l.1621-.8096c1.9961,0,2.4014-.27,2.8594-2.5376l2.374-11.5801c.2969-1.4844.1348-1.9971-2.0234-1.9971l.1621-.8101h6.3398c3.7773,0,5.9893,1.1069,5.9893,3.7251,0,3.8062-3.3184,5.0479-5.665,5.4526Zm-3.5879-.5938l.8359.0269c3.2373-.1079,5.7461-1.3228,5.7461-4.7778,0-1.4575-.8096-2.7803-3.4805-2.7803-.7012,0-.9707.0269-1.5918.0811l-1.5098,7.4502Z" stroke-width="0"/><path d="m203.5049,67.6331l.0938-.4409c1.4795,0,1.8564-.2676,2.0137-1.0552l1.416-6.6606c.126-.5513.0479-.772-.3457-.772-.3145,0-.9131.0947-1.4316.252l.1104-.5195,3.0039-.8662h.457l-1.8252,8.5664c-.1572.772.1729,1.0552,1.6201,1.0552l-.0938.4409h-5.0186Z" stroke-width="0"/><path d="m228.9326,53.1028h-9.7637v-1.8867h9.7637v1.8867Zm0,4.8633h-9.7637v-1.875h9.7637v1.875Z" stroke-width="0"/><path d="m247.043,56.9114h2.3643v1.7695h-2.3643v3.9609h-2.1777v-3.9609h-7.7617v-1.2773l7.6328-11.8242h2.3066v11.332Zm-7.4805,0h5.3027v-8.3672l-.2578.4688-5.0449,7.8984Z" stroke-width="0"/><path d="m251.6309,61.5052c0-.375.1113-.6875.334-.9375s.5557-.375,1.001-.375c.4443,0,.7822.125,1.0127.375.2295.25.3447.5625.3447.9375,0,.3594-.1152.6602-.3447.9023-.2305.2422-.5684.3633-1.0127.3633-.4453,0-.7783-.1211-1.001-.3633s-.334-.543-.334-.9023Z" stroke-width="0"/><path d="m268.3604,55.3645c0,2.5391-.4336,4.4258-1.2998,5.6602s-2.2197,1.8516-4.0615,1.8516c-1.8184,0-3.165-.6035-4.0391-1.8105s-1.3271-3.0098-1.3574-5.4082v-2.8945c0-2.5078.4326-4.3711,1.2988-5.5898s2.2246-1.8281,4.0742-1.8281c1.834,0,3.1836.5879,4.0498,1.7637s1.3115,2.9902,1.335,5.4434v2.8125Zm-2.166-2.9648c0-1.8359-.2568-3.1738-.7725-4.0137-.5146-.8398-1.3301-1.2598-2.4463-1.2598-1.1084,0-1.916.418-2.4238,1.2539-.5068.8359-.7686,2.1211-.7842,3.8555v3.4688c0,1.8438.2676,3.2051.8018,4.084.5352.8789,1.3447,1.3184,2.4297,1.3184,1.0693,0,1.8633-.4141,2.3818-1.2422.5195-.8281.79-2.1328.8135-3.9141v-3.5508Z" stroke-width="0"/><path d="m287.7119,62.6419v-1.9434c2.5361-2.0244,3.9121-5.5337,3.9121-8.5029,0-4.0488-2.1045-6.478-5.3955-6.478-3.4258,0-5.5303,2.4834-5.5303,6.478,0,2.9424,1.3223,6.5322,3.9121,8.5298v1.9165h-7.123l-.5664-4.7778h.7832c.4854,1.8354.7549,2.5913,2.293,2.5913h2.4551v-.1616c-2.0508-1.5391-4.668-3.7793-4.668-8.2061,0-4.4536,3.4805-7.5039,8.4717-7.5039s8.2822,3.0503,8.2822,7.4771c0,4.3999-2.7793,6.6938-4.6406,8.2329v.1616h2.2656c1.5918,0,1.8623-.7827,2.4287-2.5913h.7822l-.6211,4.7778h-7.041Z" stroke-width="0"/><path d="m329.7803,283.9075v.1348c.9707.6748,1.5107,2.0518,3.7227,6.2354.5938,1.0791,1.2412,1.377,2.4814,1.377l-.1611.8096h-4.1006c-2.0234-4.4541-2.5898-5.5879-3.4268-7.2344-.4043-.7559-.7549-.918-1.7266-.918h-.5664l-.998,4.8047c-.459,2.2402-.1621,2.5381,2.1582,2.5381l-.1348.8096h-7.4463l.1621-.8096c1.9961,0,2.4014-.2705,2.8594-2.5381l2.374-11.5801c.2969-1.4844.1348-1.9971-2.0234-1.9971l.1621-.8096h6.3398c3.7773,0,5.9893,1.1064,5.9893,3.7246,0,3.8066-3.3184,5.0479-5.665,5.4531Zm-3.5879-.5938l.8359.0264c3.2373-.1074,5.7461-1.3223,5.7461-4.7773,0-1.458-.8096-2.7803-3.4805-2.7803-.7012,0-.9707.0264-1.5918.0811l-1.5098,7.4502Z" stroke-width="0"/><path d="m342.5264,297.4554h-6.1357l.1104-.5361,2.8789-2.3613c2.4062-2.0947,3.2715-3.0234,3.2715-4.709,0-.9131-.5342-1.543-1.5566-1.543-1.0234,0-1.7305.4092-2.6279,1.5752l-.3457-.1582c.8809-1.4961,1.9668-2.4092,3.6025-2.4092,1.4941,0,2.4072.8662,2.4072,2.2051,0,1.6377-1.1016,2.708-3.4932,4.6924l-2.4219,1.9688-.0166.0781,1.0547-.0469h2.1865c.834,0,1.1016-.3311,1.668-1.2754h.4561l-1.0381,2.5195Z" stroke-width="0"/><path d="m518.1602,284.908v.1348c.9707.6748,1.5117,2.0518,3.7227,6.2354.5938,1.0796,1.2422,1.377,2.4824,1.377l-.1621.8096h-4.0996c-2.0234-4.4536-2.5898-5.5874-3.4277-7.2339-.4043-.7559-.7539-.918-1.7266-.918h-.5664l-.998,4.8047c-.459,2.2402-.1621,2.5376,2.1582,2.5376l-.1348.8096h-7.4453l.1621-.8096c1.9961,0,2.4004-.27,2.8594-2.5376l2.373-11.5801c.2969-1.4844.1348-1.9971-2.0234-1.9971l.1621-.8101h6.3398c3.7773,0,5.9902,1.1069,5.9902,3.7251,0,3.8062-3.3184,5.0479-5.666,5.4526Zm-3.5879-.5938l.8359.0269c3.2383-.1079,5.7461-1.3228,5.7461-4.7778,0-1.4575-.8086-2.7803-3.4805-2.7803-.7012,0-.9707.0269-1.5918.0811l-1.5098,7.4502Z" stroke-width="0"/><path d="m526.957,290.409c.9121-1.3384,1.873-2.0942,3.3203-2.0942,1.3691,0,2.0762.7402,2.0762,1.748,0,1.291-.8809,2-2.2188,2.7397v.0474c1.0078.3467,1.7949.9922,1.7949,2.1104,0,2.3774-2.4551,3.7002-5.0352,3.7002-1.3223,0-1.5879-.3779-1.5879-.8027,0-.3311.2344-.7559.7227-.7559.6758,0,.9277.7715,2.123.7715,1.166,0,2.4238-.6143,2.4238-2.3623,0-1.1807-1.0859-1.9683-2.4395-1.9683h-.3145l.127-.5981h.2363c1.2734,0,2.7832-1.0396,2.7832-2.4409,0-.8188-.5352-1.1968-1.3691-1.1968-1.0059,0-1.6191.4722-2.3281,1.3066l-.3145-.2046Z" stroke-width="0"/><polyline points="300.0181 105.5565 475 105.5565 475 221.0887 497.5 228.5112 452.5 243.3582 497.5 258.2043 452.5 273.0491 497.5 287.8943 497.5 287.9119 452.5 302.7567 497.5 317.6019 452.5 332.4488 452.5 332.552 475 339.9764 475 455.5085 300.0181 455.5085 300.0181 455.5085 292.5955 478.0085 285.1732 455.512 277.7486 433.0085 262.9024 478.0085 248.0576 433.0085 233.2125 478.0085 233.1948 478.0085 218.35 433.0085 203.5049 478.0085 188.6579 433.0085 188.5548 433.0085 181.1304 455.5085 105 455.5085 105 303.6276" fill="none" stroke="#000" stroke-linecap="round" stroke-linejoin="round" stroke-width="2"/><path d="m496.5352,161.4788c0,2.5391-.4336,4.4258-1.3008,5.6602s-2.2227,1.8516-4.0664,1.8516c-1.8203,0-3.168-.6035-4.043-1.8105s-1.3281-3.0098-1.3594-5.4082v-2.8945c0-2.5078.4336-4.3711,1.3008-5.5898s2.2266-1.8281,4.0781-1.8281c1.8359,0,3.1875.5879,4.0547,1.7637s1.3125,2.9902,1.3359,5.4434v2.8125Zm-2.168-2.9648c0-1.8359-.2578-3.1738-.7734-4.0137s-1.332-1.2598-2.4492-1.2598c-1.1094,0-1.918.418-2.4258,1.2539s-.7695,2.1211-.7852,3.8555v3.4688c0,1.8438.2676,3.2051.8027,4.084s1.3457,1.3184,2.4316,1.3184c1.0703,0,1.8652-.4141,2.3848-1.2422s.791-2.1328.8145-3.9141v-3.5508Z" stroke-width="0"/><path d="m499.582,167.6194c0-.375.1113-.6875.334-.9375s.5566-.375,1.002-.375.7832.125,1.0137.375.3457.5625.3457.9375c0,.3594-.1152.6602-.3457.9023s-.5684.3633-1.0137.3633-.7793-.1211-1.002-.3633-.334-.543-.334-.9023Z" stroke-width="0"/><path d="m516.3281,161.4788c0,2.5391-.4336,4.4258-1.3008,5.6602s-2.2227,1.8516-4.0664,1.8516c-1.8203,0-3.168-.6035-4.043-1.8105s-1.3281-3.0098-1.3594-5.4082v-2.8945c0-2.5078.4336-4.3711,1.3008-5.5898s2.2266-1.8281,4.0781-1.8281c1.8359,0,3.1875.5879,4.0547,1.7637s1.3125,2.9902,1.3359,5.4434v2.8125Zm-2.168-2.9648c0-1.8359-.2578-3.1738-.7734-4.0137s-1.332-1.2598-2.4492-1.2598c-1.1094,0-1.918.418-2.4258,1.2539s-.7695,2.1211-.7852,3.8555v3.4688c0,1.8438.2676,3.2051.8027,4.084s1.3457,1.3184,2.4316,1.3184c1.0703,0,1.8652-.4141,2.3848-1.2422s.791-2.1328.8145-3.9141v-3.5508Z" stroke-width="0"/><path d="m520.1016,160.2015l.8672-8.5078h8.7422v2.0039h-6.9023l-.5156,4.6523c.8359-.4922,1.7852-.7383,2.8477-.7383,1.5547,0,2.7891.5137,3.7031,1.541s1.3711,2.416,1.3711,4.166c0,1.7578-.4746,3.1426-1.4238,4.1543s-2.2754,1.5176-3.9785,1.5176c-1.5078,0-2.7383-.418-3.6914-1.2539s-1.4961-1.9922-1.6289-3.4688h2.0508c.1328.9766.4805,1.7129,1.043,2.209s1.3047.7441,2.2266.7441c1.0078,0,1.7988-.3438,2.373-1.0312s.8613-1.6367.8613-2.8477c0-1.1406-.3105-2.0566-.9316-2.748s-1.4473-1.0371-2.4785-1.0371c-.9453,0-1.6875.207-2.2266.6211l-.5742.4688-1.7344-.4453Z" stroke-width="0"/><path d="m548.5078,164.2913h-7.1484l-1.6055,4.4648h-2.3203l6.5156-17.0625h1.9688l6.5273,17.0625h-2.3086l-1.6289-4.4648Zm-6.4688-1.8398h5.8008l-2.9062-7.9805-2.8945,7.9805Z" stroke-width="0"/><path d="m205.8052,503.2835v.1348c.9707.6748,1.5107,2.0518,3.7227,6.2354.5938,1.0796,1.2412,1.377,2.4814,1.377l-.1611.8096h-4.1006c-2.0234-4.4536-2.5898-5.5874-3.4268-7.2339-.4043-.7559-.7549-.918-1.7266-.918h-.5664l-.998,4.8047c-.459,2.2402-.1621,2.5376,2.1582,2.5376l-.1348.8096h-7.4463l.1621-.8096c1.9961,0,2.4014-.27,2.8594-2.5376l2.374-11.5801c.2969-1.4844.1348-1.9971-2.0234-1.9971l.1621-.8101h6.3398c3.7773,0,5.9893,1.1069,5.9893,3.7251,0,3.8062-3.3184,5.0479-5.665,5.4526Zm-3.5879-.5938l.8359.0269c3.2373-.1079,5.7461-1.3228,5.7461-4.7778,0-1.4575-.8096-2.7803-3.4805-2.7803-.7012,0-.9707.0269-1.5918.0811l-1.5098,7.4502Z" stroke-width="0"/><path d="m218.3462,514.3436l-.5352,2.4878h-1.3994l.5342-2.4878h-4.0107l.2041-.9922,5.8682-6.6768h.959l-1.3994,6.582h1.6045l-.2207,1.0869h-1.6045Zm-.1416-5.874h-.0625l-4.1064,4.7241-.0156.063h3.1465l1.0381-4.7871Z" stroke-width="0"/><path d="m238.8188,502.3011h-9.7637v-1.8867h9.7637v1.8867Zm0,4.8633h-9.7637v-1.875h9.7637v1.875Z" stroke-width="0"/><path d="m258.1226,499.2308c0,.8516-.2236,1.6094-.6729,2.2734s-1.0557,1.1836-1.8203,1.5586c.8896.3828,1.5938.9414,2.1133,1.6758.5186.7344.7783,1.5664.7783,2.4961,0,1.4766-.498,2.6523-1.4922,3.5273-.9951.875-2.3047,1.3125-3.9277,1.3125-1.6387,0-2.9521-.4395-3.9395-1.3184s-1.4805-2.0527-1.4805-3.5215c0-.9219.251-1.7539.7549-2.4961.5029-.7422,1.1992-1.3047,2.0898-1.6875-.7578-.375-1.3545-.8945-1.792-1.5586-.4365-.6641-.6553-1.418-.6553-2.2617,0-1.4375.4609-2.5781,1.3818-3.4219s2.1338-1.2656,3.6406-1.2656c1.498,0,2.71.4219,3.6348,1.2656s1.3867,1.9844,1.3867,3.4219Zm-1.7676,7.957c0-.9531-.3027-1.7305-.9072-2.332s-1.3945-.9023-2.3701-.9023-1.7578.2969-2.3477.8906c-.5889.5938-.8838,1.375-.8838,2.3438s.2871,1.7305.8604,2.2852c.5742.5547,1.3721.832,2.3945.832,1.0146,0,1.8105-.2793,2.3877-.8379.5781-.5586.8662-1.3184.8662-2.2793Zm-3.2539-10.8633c-.8506,0-1.54.2637-2.0664.791s-.79,1.2441-.79,2.1504c0,.8672.2588,1.5684.7783,2.1035.5186.5352,1.2119.8027,2.0781.8027s1.5586-.2676,2.0781-.8027c.5186-.5352.7783-1.2363.7783-2.1035s-.2695-1.5742-.8076-2.1211c-.5391-.5469-1.2217-.8203-2.0488-.8203Z" stroke-width="0"/><path d="m277.8257,511.8401v-1.9434c2.5361-2.0244,3.9121-5.5337,3.9121-8.5029,0-4.0488-2.1045-6.478-5.3955-6.478-3.4258,0-5.5303,2.4834-5.5303,6.478,0,2.9424,1.3213,6.5322,3.9111,8.5298v1.9165h-7.1211l-.5674-4.7778h.7822c.4863,1.8354.7559,2.5913,2.2939,2.5913h2.4541v-.1616c-2.0498-1.5391-4.667-3.7793-4.667-8.2061,0-4.4536,3.4805-7.5039,8.4717-7.5039s8.2812,3.0503,8.2812,7.4771c0,4.3999-2.7783,6.6938-4.6396,8.2329v.1616h2.2666c1.5908,0,1.8613-.7827,2.4277-2.5913h.7822l-.6201,4.7778h-7.042Z" stroke-width="0"/></svg>