<?xml version="1.0" encoding="UTF-8"?><svg id="a" xmlns="http://www.w3.org/2000/svg" width="1140" height="641" xmlns:xlink="http://www.w3.org/1999/xlink" viewBox="0 0 1140 641"><defs><style>.j{fill:none;}.j,.k,.l,.m,.n,.o,.p,.q,.r{stroke-width:0px;}.s{fill:#fff;stroke:#000;stroke-miterlimit:10;stroke-width:2px;}.t{clip-path:url(#f);}.l{fill:#631c1c;}.m{fill:#605858;}.n{fill:#1e393f;}.o{fill:#d12d32;}.p{fill:#969696;}.q{fill:#6b6969;}.r{fill:#f4e4dc;}</style><clipPath id="f"><path id="g" class="j" d="m1138.278,345.729c-9.726,336.115-349.742,291.836-615.857,291.836S41.763,616.187,9.688,420.853C-40.274,116.589,144.076-19.926,408.104,31.001c175.865,33.922,344.657-52.644,502.658-23.321,133.797,24.831,233.071,146.104,227.516,338.049Z"/></clipPath></defs><path id="b" class="r" d="m1138.278,345.729c-9.726,336.115-349.742,291.836-615.857,291.836S41.763,616.187,9.688,420.853C-40.274,116.589,144.076-19.926,408.104,31.001c175.865,33.922,344.657-52.644,502.658-23.321,133.797,24.831,233.071,146.104,227.516,338.049Z"/><g id="c"><path class="q" d="m313.179,108.859c-2.458-2.458-8.339-.563-14.879,5.977s-8.435,12.421-5.977,14.879c2.091,2.091,6.269,1.413,11.919-3.282l87.915,87.915,8.484,2.83-2.83-8.484-87.915-87.915c4.695-5.65,5.374-9.828,3.283-11.919Z"/><path class="q" d="m396.669,94.413c-1.203-3.262-7.337-4.003-16.015-.801-8.678,3.201-12.86,7.749-11.657,11.01,1.024,2.775,5.102,3.908,12.198,2.009l43.035,116.645,6.52,6.122.982-8.889-43.035-116.645c6.629-3.165,8.995-6.675,7.971-9.45Z"/><path class="q" d="m332.365,67.188c-1.158-3.278-7.281-4.104-16.002-1.023s-12.966,7.569-11.808,10.847c.985,2.789,5.047,3.978,12.169,2.178l41.412,117.231,6.435,6.211,1.105-8.875-41.412-117.231c6.672-3.073,9.086-6.55,8.101-9.338Z"/><path class="q" d="m630.787,81.669c-.798-3.384,3.906-7.389,12.908-9.512,9.002-2.123,15-.643,15.798,2.741.679,2.879-2.095,6.075-9.06,8.411l28.544,121.01-2.055,8.704-5.728-6.868-28.544-121.01c-7.274,1.023-11.185-.597-11.864-3.476Z"/></g><g id="d"><path class="q" d="m718.353,156.633l32.093-120.117c-6.893-2.54-9.572-5.817-8.808-8.674.897-3.359,6.937-4.662,15.872-2.275,8.936,2.387,13.52,6.529,12.623,9.888-.763,2.857-4.72,4.362-11.961,3.125l-32.093,120.117"/><path class="q" d="m746.936,114.646c2.217-2.678,8.25-1.342,15.373,4.557,7.124,5.899,9.561,11.576,7.343,14.254-1.886,2.278-6.109,1.994-12.174-2.152l-79.298,95.76-8.182,3.611,2.023-8.712,79.298-95.76c-5.204-5.185-6.27-9.281-4.384-11.559Z"/><path class="q" d="m662.46,108.081c.893-3.36,6.93-4.672,15.869-2.297,8.939,2.375,13.529,6.511,12.636,9.871-.759,2.858-4.714,4.368-11.957,3.142l-31.925,120.162-5.918,6.705-1.81-8.758,31.925-120.162c-6.896-2.531-9.58-5.804-8.821-8.662Z"/><path class="q" d="m723.932,74.955c.846-3.372,6.865-4.768,15.836-2.517,8.971,2.251,13.618,6.322,12.772,9.694-.72,2.869-4.653,4.433-11.912,3.308l-30.255,120.594-5.825,6.787-1.931-8.732,30.255-120.594c-6.931-2.435-9.66-5.67-8.94-8.539Z"/><path class="q" d="m734.014,96.884c.478-3.444-4.581-6.991-13.742-8.262-9.161-1.271-14.995.765-15.472,4.208-.407,2.93,2.655,5.852,9.808,7.526l-17.089,123.151,2.861,8.474,5.06-7.375,17.089-123.151c7.338.337,11.08-1.642,11.486-4.571Z"/></g><g id="e"><g class="t"><path class="o" d="m534.495,566.641h0c-59.891,0-102.131-46.89-102.131-113.135l.471-286.573c.01-5.628-4.55-10.195-10.177-10.195h-74.68c-4.415,0-8.592,1.999-11.362,5.436l-9.304,11.546c-1.297,1.609-2.004,3.614-2.004,5.681v299.117c0,127.293,96.706,216,216,216h0c57.064,0,71.68-29.26,64.846-59.787-5.463-24.404-12.963-84.438-35.641-73.766-12.884,6.063-27.678,5.678-36.017,5.678Z"/><path class="p" d="m541.307,694.516h0c119.293,0,216-96.706,216-216V166.914c0-5.621-4.557-10.177-10.177-10.177h-70.632c-3.524,0-6.919,1.321-9.516,3.703l-14.247,13.068c-1.873,1.718-2.938,4.145-2.934,6.687l.449,273.31c0,59.911-45.693,103.985-98.733,111.865-4.3.639-13.024,34.598-13.024,34.598v94.515c.938.011,1.873.033,2.814.033Z"/><path class="l" d="m539.059,600.683c-58.741,1.968-106.594-33.281-122.03-89.989-3.265-11.709-4.961-23.893-5.359-36.03-.348-56.73.283-177.795.364-235.698.061-11.079.097-43.44.169-54.383.244-4.177-3.365-7.874-7.552-7.712,0,0-4.532-.02-4.532-.02-23.473.048-49.118-.413-72.512-.752-.183.009-.186-.302,0-.294,23.367-.536,49.047-.596,72.512-.753,2.945.104,6.702-.508,9.338,1.181,2.95,1.611,4.834,5.03,4.703,8.353.021,36.32-.112,160.933-.123,199.407.021,13.831-.356,78.109-.136,90.603.536,17.96,4.034,35.947,11.073,52.513,16.897,40.484,52.747,66.55,96.054,72.033,0,0,4.484.566,4.484.566.907.019,5.73.495,6.757.536,2.098.081,4.828.083,6.792.146.182-.008.185.3,0,.294h0Z"/><path class="m" d="m649.397,469.459c3.646,58.997-29.806,123.781-93.237,131.094-3.417.268-7.152.516-10.575.45-2.013-.063-4.024-.186-6.026-.32-.183-.004-.171-.302.01-.293,5.275-.163,11.218-.601,16.393-1.378,56.068-8.119,87.115-58.478,91.69-111.616.18-1.436.503-4.5.596-5.958.384-3.98.549-7.972.855-11.978-.005-.176.296-.186.294-.002h0Z"/><path class="m" d="m652.502,175.806c20.351-.478,40.703-.688,61.058-.774,0,0,15.264-.08,15.264-.08,2.736-.109,5.692.203,7.838,2.091,2.215,1.785,3.54,4.69,3.434,7.49l-.015,30.529c-.245,75.615.339,199.405-.9,274.781-.29,10.181-.764,20.356-1.388,30.523-.971,15.25-2.194,30.524-4.893,45.58-.959,5.003-2.039,10.026-3.957,14.775-.03.075-.116.111-.191.081-.075-.03-.111-.116-.082-.19,1.663-4.79,2.587-9.802,3.363-14.813,2.208-15.083,3.118-30.323,3.964-45.535.971-20.314,1.619-40.637,1.546-60.98-.043-60.871.179-183.372.421-244.228,0,0,.091-30.528.091-30.528.088-2.307-.941-4.486-2.673-5.923-1.78-1.577-4.292-1.754-6.559-1.654,0,0-15.264-.08-15.264-.08-10.176-.048-20.353-.1-30.529-.25-10.176-.108-20.353-.281-30.529-.524-.182.008-.185-.3,0-.294h0Z"/><path class="l" d="m429.271,161.653c-.695,2.172-2.22,3.558-3.557,5.122-1.354,1.548-2.735,3.071-4.147,4.564-1.413,1.493-2.867,2.946-4.334,4.387-1.47,1.438-2.833,2.978-4.909,3.843-.122.055-.263-.076-.213-.202.748-2.121,2.211-3.567,3.565-5.115,1.357-1.546,2.727-3.078,4.139-4.571,1.413-1.493,2.856-2.956,4.327-4.394,1.487-1.422,2.787-3.022,4.916-3.836.121-.05.259.077.213.202h0Z"/><path class="m" d="m754.408,160.137c-.695,2.172-2.22,3.558-3.557,5.122-1.354,1.548-2.735,3.071-4.147,4.564-1.413,1.493-2.867,2.946-4.334,4.387-1.47,1.438-2.833,2.979-4.909,3.843-.122.055-.263-.076-.213-.202.748-2.121,2.21-3.567,3.565-5.115,1.357-1.546,2.727-3.078,4.139-4.571,1.413-1.493,2.856-2.956,4.327-4.394,1.487-1.422,2.787-3.022,4.916-3.836.121-.05.259.077.213.202h0Z"/><circle class="s" cx="366.449" cy="217.447" r="30"/><path class="k" d="m374.4,226.606h-4.102l-7.984-13.098v13.098h-4.102v-19.906h4.102l7.998,13.125v-13.125h4.088v19.906Z"/><circle class="s" cx="693.859" cy="217.447" r="30"/><path class="k" d="m697.498,221.384c0-.774-.273-1.369-.82-1.784s-1.531-.853-2.953-1.312-2.549-.914-3.377-1.36c-2.262-1.222-3.391-2.866-3.391-4.936,0-1.075.303-2.035.908-2.878.606-.843,1.477-1.502,2.611-1.976s2.408-.711,3.822-.711c1.422,0,2.688.258,3.801.772,1.111.515,1.975,1.242,2.59,2.181s.924,2.005.924,3.199h-4.102c0-.911-.287-1.62-.861-2.126s-1.381-.759-2.42-.759c-1.004,0-1.783.212-2.338.636-.557.424-.834.982-.834,1.675,0,.647.325,1.189.977,1.627.652.438,1.611.848,2.879,1.23,2.332.702,4.033,1.572,5.1,2.611s1.6,2.333,1.6,3.883c0,1.723-.652,3.074-1.955,4.054-1.305.979-3.059,1.47-5.264,1.47-1.531,0-2.926-.28-4.184-.841s-2.218-1.328-2.879-2.304c-.66-.976-.99-2.105-.99-3.391h4.115c0,2.196,1.312,3.295,3.938,3.295.975,0,1.736-.198,2.283-.595s.82-.95.82-1.661Z"/></g></g><g id="h"><path class="q" d="m446.701,182.672c3.477,0,6.295-5.498,6.295-14.747s-2.818-14.747-6.295-14.747c-2.958,0-5.432,3.434-6.107,10.749h-124.331l-8,3.998,8,3.998h124.331c.675,7.315,3.149,10.749,6.107,10.749Z"/><path class="q" d="m363.475,158.854c0,3.477-5.498,6.295-14.747,6.295-9.249,0-14.747-2.818-14.747-6.295,0-2.958,3.434-5.432,10.749-6.107V28.416s3.998-8,3.998-8l3.998,8v124.331c7.315.675,10.749,3.149,10.749,6.107Z"/><path class="q" d="m397.874,157.057c.619,3.421-4.29,7.173-13.392,8.819-9.102,1.646-15.013-.149-15.632-3.57-.526-2.91,2.412-5.956,9.49-7.922l-22.127-122.346,2.511-8.584,5.358,7.161,22.127,122.346c7.318-.638,11.138,1.186,11.664,4.096Z"/><path class="q" d="m344.866,7.118c-1.395-3.184-7.562-3.56-16.034.151-8.472,3.711-12.377,8.499-10.982,11.683,1.187,2.709,5.325,3.598,12.296,1.281l49.886,113.884,6.872,5.723.452-8.932-49.886-113.884c6.43-3.553,8.582-7.197,7.396-9.907Z"/><path class="q" d="m420.917,72.574c-.741-3.397-6.713-4.979-15.75-3.009-9.037,1.97-13.808,5.895-13.068,9.292.63,2.89,4.512,4.576,11.803,3.677l26.488,121.477,5.611,6.965,2.202-8.668-26.488-121.477c7.003-2.218,9.831-5.367,9.201-8.257Z"/><path class="q" d="m314.14,93.168c-3.383.803-4.856,6.803-2.72,15.802,2.135,8.999,6.147,13.698,9.53,12.895,2.878-.683,4.492-4.595,3.46-11.868l120.972-28.704,6.861-5.737-8.707-2.043-120.972,28.704c-2.345-6.962-5.546-9.732-8.423-9.049Z"/><path class="n" d="m353.257,72.282c-1.588-1.164-2.128-2.787-2.905-4.306-.756-1.528-1.479-3.071-2.162-4.631-.682-1.56-1.312-3.144-1.925-4.735-.609-1.592-1.355-3.125-1.2-5.052l.269-.118c1.52,1.194,2.14,2.782,2.896,4.31.753,1.53,1.488,3.067,2.171,4.627.682,1.56,1.325,3.138,1.934,4.731.588,1.602,1.413,3.099,1.191,5.056l-.269.118h0Z"/><path class="n" d="m352.331,51.313c-1.549-1.075-2.052-2.609-2.791-4.04-.719-1.439-1.403-2.894-2.048-4.365-.644-1.472-1.236-2.967-1.811-4.469-.571-1.504-1.279-2.948-1.087-4.786l.269-.118c1.482,1.105,2.063,2.604,2.781,4.044.715,1.441,1.412,2.89,2.057,4.361.644,1.472,1.249,2.961,1.82,4.465.55,1.513,1.337,2.922,1.077,4.791l-.269.118h0Z"/><path class="n" d="m324.423,101.082c.431-1.075,1.053-1.023,1.633-1.226.583-.181,1.172-.325,1.768-.427.597-.101,1.203-.146,1.812-.172.61-.022,1.195-.192,1.944.608l.049.29c-.443,1.003-1.051,1.036-1.634,1.216-.584.177-1.17.335-1.767.437-.596.101-1.2.16-1.81.182-.614,0-1.184.254-1.946-.618l-.049-.29h0Z"/><path class="n" d="m345.157,97.218c.315-1.13.966-1.168,1.541-1.453.582-.263,1.174-.491,1.78-.678.605-.186,1.228-.318,1.856-.431.629-.11,1.214-.362,2.089.325l.086.281c-.336,1.06-.962,1.181-1.544,1.443-.583.26-1.171.501-1.777.688-.605.186-1.224.331-1.853.44-.636.088-1.195.423-2.091-.335l-.086-.281h0Z"/><path class="n" d="m328.144,109.841c.272-1.122.888-1.153,1.427-1.431.545-.257,1.102-.478,1.671-.658.57-.179,1.156-.304,1.749-.411.594-.103,1.142-.349,1.987.343l.089.28c-.294,1.052-.885,1.166-1.43,1.422-.547.253-1.099.487-1.668.668-.57.179-1.152.318-1.746.421-.6.082-1.123.409-1.99-.353l-.088-.28h0Z"/><path class="n" d="m345.157,105.108c.416-1.066,1.009-1.002,1.563-1.194.557-.169,1.12-.302,1.689-.392.57-.089,1.148-.123,1.729-.137.582-.011,1.141-.169,1.853.644l.046.29c-.427.993-1.007,1.015-1.564,1.184-.558.166-1.118.312-1.688.403-.57.09-1.146.137-1.728.147-.586-.012-1.131.231-1.854-.654l-.046-.29h0Z"/><path class="n" d="m311.774,107.783c1.12.319,1.141.954,1.411,1.517.248.57.46,1.15.631,1.742.17.592.286,1.2.382,1.813.094.614.331,1.187-.377,2.032l-.282.081c-1.049-.339-1.153-.95-1.401-1.52-.244-.571-.47-1.147-.641-1.739-.17-.592-.299-1.196-.392-1.81-.072-.62-.391-1.169.387-2.035l.282-.081h0Z"/><path class="n" d="m362.085,93.081c.827-1.219,1.926-1.328,2.964-1.687,1.043-.338,2.095-.64,3.156-.899,1.062-.259,2.138-.463,3.218-.648,1.081-.182,2.127-.509,3.406.12l.07.285c-.845,1.148-1.923,1.34-2.966,1.677-1.044.334-2.092.649-3.154.909-1.062.259-2.134.477-3.215.658-1.086.159-2.111.57-3.408-.13l-.07-.285h0Z"/><path class="n" d="m404.178,82.965c.44-1.101,1.114-1.083,1.735-1.318.626-.213,1.259-.39,1.901-.524.642-.134,1.296-.212,1.954-.271.658-.056,1.286-.258,2.116.503l.06.287c-.455,1.029-1.111,1.096-1.737,1.308-.626.209-1.257.4-1.899.534-.642.134-1.293.226-1.952.281-.663.033-1.273.32-2.118-.513l-.06-.287h0Z"/><path class="n" d="m405.652,90.569c.406-1.113,1.078-1.114,1.691-1.367.617-.231,1.244-.425,1.88-.578.636-.152,1.286-.248,1.94-.326.655-.074,1.275-.294,2.124.443l.068.286c-.423,1.042-1.076,1.127-1.693,1.357-.618.227-1.241.435-1.877.588-.636.152-1.283.262-1.938.336-.66.052-1.26.355-2.126-.453l-.068-.286h0Z"/><path class="n" d="m365.841,99.147c2.247-1.507,4.74-1.898,7.177-2.541,2.44-.629,4.897-1.183,7.352-1.748,4.967-.828,9.874-2.61,14.985-2.221,0,0,.063.287.063.287-2.263,1.435-4.737,1.91-7.179,2.531-2.441.628-4.896,1.19-7.35,1.757-2.464.52-4.926,1.051-7.405,1.507-2.482.442-4.908,1.136-7.58.714,0,0-.063-.287-.063-.287h0Z"/><path class="n" d="m378.301,110.038c-1.341-.646-1.627-1.733-2.151-2.721-.504-.996-.973-2.006-1.403-3.033-.429-1.027-.805-2.076-1.164-3.133-.355-1.058-.849-2.058-.434-3.438l.271-.113c1.273.674,1.638,1.728,2.142,2.724.5.998.982,2.003,1.412,3.029.429,1.027.818,2.071,1.173,3.129.334,1.067.907,2.034.425,3.442l-.271.113h0Z"/><path class="n" d="m370.881,91.117c-1.405-.564-1.794-1.654-2.414-2.624-.599-.981-1.165-1.979-1.693-2.998-.527-1.018-1.004-2.063-1.464-3.117-.457-1.055-1.046-2.042-.762-3.481l.261-.135c1.339.598,1.806,1.648,2.405,2.629.596.983,1.174,1.975,1.702,2.993.527,1.018,1.017,2.057,1.473,3.112.436,1.066,1.102,2.012.753,3.485l-.261.135h0Z"/><path class="n" d="m383.222,137.179c-1.873-1.556-2.721-3.62-3.802-5.569-1.067-1.955-2.065-3.945-3.074-5.929-.965-2.006-1.935-4.01-2.844-6.043-.916-2.03-1.965-3.994-2.134-6.395l.263-.13c1.807,1.589,2.732,3.615,3.792,5.573,1.067,1.956,2.072,3.941,3.083,5.925.967,2.005,1.944,4.005,2.853,6.039.896,2.04,2.022,3.966,2.125,6.399l-.263.13h0Z"/><path class="n" d="m344.582,152.747c-.987-1.537-.831-3.073-.933-4.609-.08-1.536-.122-3.073-.122-4.609.001-1.536.059-3.072.137-4.609.081-1.536.012-3.072.928-4.608h.294c.914,1.537.844,3.073.923,4.609.076,1.536.132,3.073.132,4.609-.001,1.536-.045,3.072-.127,4.609-.104,1.536.051,3.073-.938,4.608h-.294Z"/><path class="n" d="m343.013,153.692c-.561,1.087-1.231,1.081-1.876,1.381-1.116.501-2.667,1.183-3.755,1.716-.633.312-1.12.759-2.264.535l-.191-.223c-.02-1.188.683-1.63,1.297-2.117,1.24-.997,2.726-1.694,4.292-1.985.773-.126,1.551-.458,2.454.402l.045.29h0Z"/><path class="n" d="m358.192,163.987c-1.232,1.532-2.935,1.671-4.497,2.039-3.851.756-11.496,1.386-14.222-1.967,0,0,.126-.266.126-.266.464-.07.87-.066,1.26-.044,4.147.559,8.317.635,12.501.139,1.429-.182,3.233-.529,4.703-.165,0,0,.129.264.129.264h0Z"/><path class="n" d="m392.089,164.058c-1.598,1.616-3.601,1.825-5.498,2.291-4.838.97-10.095,1.71-14.856-.096-.95-.457-1.912-1.277-2.168-2.38l.236-.175c5.229,2.19,10.939,1.118,16.407.52,1.709-.261,3.998-.732,5.751-.424,0,0,.129.264.129.264h0Z"/><path class="n" d="m423.477,171.836c-1.115-.437-1.116-1.132-1.368-1.768-.231-.641-.425-1.291-.578-1.951-.152-.66-.248-1.332-.326-2.009-.074-.678-.294-1.322.444-2.187l.286-.066c1.043.454,1.128,1.129,1.359,1.77.227.642.435,1.289.588,1.948.152.66.262,1.329.336,2.007.052.683.356,1.307-.454,2.189l-.286.066h0Z"/><path class="n" d="m431.59,171.836c-1.115-.437-1.116-1.132-1.368-1.768-.231-.641-.425-1.291-.578-1.951-.152-.66-.248-1.332-.326-2.009-.074-.678-.294-1.322.444-2.187l.286-.066c1.043.454,1.128,1.129,1.359,1.77.227.642.435,1.289.588,1.948.152.66.262,1.329.336,2.007.052.683.356,1.307-.454,2.189l-.286.066h0Z"/></g><g id="i"><path class="q" d="m625.802,179.22c-3.477,0-6.295-5.498-6.295-14.747,0-9.249,2.818-14.747,6.295-14.747,2.958,0,5.432,3.434,6.107,10.749h124.331s8,3.998,8,3.998l-8,3.998h-124.331c-.675,7.315-3.149,10.749-6.107,10.749Z"/><path class="q" d="m684.605,97.883c-3.21,1.335-7.923-2.66-11.474-11.201-3.551-8.541-3.059-14.699.151-16.034,2.731-1.135,6.334,1.085,9.765,7.581l114.804-47.731,8.922.621-5.852,6.763-114.804,47.731c2.185,7.014,1.219,11.134-1.512,12.27Z"/><path class="q" d="m716.697,167.791c0,3.477,5.498,6.295,14.747,6.295,9.249,0,14.747-2.818,14.747-6.295,0-2.958-3.434-5.432-10.749-6.107V37.354l-3.998-8-3.998,8v124.331c-7.315.675-10.749,3.149-10.749,6.107Z"/><path class="q" d="m671.034,155.428c-.619,3.421,4.29,7.173,13.392,8.819,9.102,1.646,15.013-.149,15.632-3.57.526-2.91-2.412-5.956-9.49-7.922l22.127-122.346-2.511-8.584-5.358,7.161-22.127,122.346c-7.318-.638-11.138,1.186-11.664,4.096Z"/><path class="q" d="m774.633,136.079c3.383.803,4.856,6.803,2.72,15.802s-6.147,13.698-9.53,12.895c-2.878-.683-4.492-4.595-3.46-11.868l-120.972-28.704-6.861-5.737,8.707-2.043,120.972,28.704c2.345-6.962,5.546-9.732,8.423-9.049Z"/><path class="n" d="m667.936,160.623c-.69.988-1.379.832-2.069.935-.69.081-1.379.124-2.069.124-.69,0-1.379-.058-2.069-.134-.69-.08-1.379-.011-2.069-.925v-.294c.69-.914,1.379-.845,2.069-.925.689-.077,1.379-.134,2.069-.134.689,0,1.379.044,2.069.124.689.103,1.379-.052,2.068.935v.294h0Z"/><path class="n" d="m700.058,160.622c-2.167.988-4.335.832-6.503.935-2.167.089-4.335.1-6.503.123-4.358-.262-8.771.422-13.005-1.058,0,0,0-.294,0-.294,4.231-1.481,8.649-.797,13.005-1.059,2.168.023,4.335.035,6.503.124,2.168.103,4.335-.052,6.503.935,0,0,0,.294,0,.294h0Z"/><path class="n" d="m716.556,167.834c-1.394-.957-.965-3.008.067-4.074,1.97-2.065,4.582-2.43,7.149-2.714,1.204-.102,2.394-.311,3.659.492l.028.292c-1.081,1.029-2.235,1.081-3.36,1.337-1.121.252-2.225.521-3.261.84-1.027.316-2.019.697-2.661,1.248-.757.759-.825,1.373-1.341,2.492,0,0-.28.087-.28.087h0Z"/><path class="n" d="m745.684,168.398c-.715-1.099-.724-1.844-1.448-2.736-.601-.683-1.479-1.232-2.455-1.69-.98-.454-2.025-.876-3.116-1.235-1.093-.374-2.229-.52-3.245-1.624l.047-.29c1.264-.666,2.463-.424,3.745-.159,3.086.59,7.057,2.174,7.547,5.802.033.739-.2,1.463-.785,1.981l-.29-.049h0Z"/><path class="n" d="m658.755,119.931c-.937.793-1.611.474-2.344.406-.728-.09-1.447-.216-2.156-.384-.709-.169-1.405-.393-2.097-.635-.691-.246-1.416-.347-1.914-1.405l.068-.286c.92-.722,1.614-.486,2.341-.396.727.094,1.449.206,2.159.374.709.169,1.408.379,2.099.625.686.268,1.431.285,1.912,1.415l-.068.286h0Z"/><path class="n" d="m677.529,124.382c-.876.807-1.489.502-2.162.449-.667-.075-1.326-.187-1.975-.34-.648-.154-1.284-.364-1.915-.592-.63-.232-1.295-.318-1.732-1.362l.068-.286c.859-.736,1.492-.515,2.159-.439.666.079,1.328.177,1.977.331.649.154,1.287.35,1.917.582.625.254,1.309.257,1.73,1.372l-.068.286h0Z"/><path class="n" d="m694.944,128.512c-.877.807-1.491.502-2.164.448-.668-.076-1.327-.187-1.977-.341-.649-.154-1.285-.364-1.917-.593-.631-.232-1.296-.319-1.735-1.362l.068-.286c.86-.736,1.494-.514,2.161-.438.667.079,1.33.178,1.979.331.649.154,1.289.35,1.919.583.626.254,1.311.257,1.732,1.372l-.068.286h0Z"/><path class="n" d="m718.001,133.978c-.887.805-1.511.497-2.194.441-.678-.078-1.348-.192-2.007-.348-.659-.157-1.306-.369-1.948-.6-.641-.234-1.317-.323-1.765-1.37l.068-.286c.871-.733,1.514-.51,2.192-.431.677.082,1.35.182,2.01.338.659.157,1.309.355,1.95.59.636.257,1.331.262,1.763,1.379l-.068.286h0Z"/><path class="n" d="m727.412,136.21c-.83.818-1.396.524-2.022.482-.621-.064-1.233-.165-1.835-.307-.602-.143-1.191-.342-1.775-.559-.584-.221-1.202-.296-1.593-1.329l.068-.286c.813-.747,1.399-.537,2.02-.472.62.068,1.235.155,1.837.297.602.143,1.194.328,1.777.549.578.243,1.216.235,1.59,1.338l-.068.286h0Z"/><path class="n" d="m749.349,141.411c-.962.787-1.66.462-2.418.388-.753-.096-1.497-.227-2.231-.401-.734-.175-1.455-.404-2.171-.653-.716-.252-1.465-.359-1.989-1.422l.068-.286c.945-.716,1.663-.474,2.415-.378.752.1,1.499.218,2.233.391.734.174,1.458.391,2.173.643.71.274,1.48.297,1.986,1.432l-.068.286h0Z"/><path class="n" d="m661.081,128.292c-.958.785-1.646.458-2.396.383-.744-.097-1.48-.231-2.205-.406-.725-.176-1.437-.407-2.145-.657-.707-.253-1.448-.362-1.958-1.426l.069-.285c.94-.713,1.649-.471,2.394-.373.743.101,1.482.221,2.208.396.725.176,1.44.393,2.147.647.701.276,1.463.3,1.956,1.436l-.069.285h0Z"/><path class="n" d="m676.084,131.922c-.872.805-1.475.5-2.139.445-.659-.076-1.308-.189-1.948-.344-.64-.155-1.266-.366-1.887-.595-.621-.233-1.277-.32-1.701-1.364l.069-.285c.855-.734,1.478-.512,2.136-.435.658.08,1.311.179,1.951.334.64.155,1.269.352,1.89.585.615.255,1.292.259,1.699,1.373l-.069.285h0Z"/><path class="n" d="m693.764,136.199c-.897.799-1.525.487-2.214.427-.683-.082-1.358-.201-2.023-.362-.664-.161-1.316-.378-1.962-.613-.646-.239-1.327-.332-1.776-1.382l.069-.285c.88-.728,1.528-.5,2.211-.417.683.086,1.361.191,2.025.352.664.161,1.319.364,1.964.603.64.261,1.341.271,1.774,1.392l-.069.285h0Z"/><path class="n" d="m716.662,141.74c-.884.802-1.499.494-2.175.436-.671-.079-1.332-.195-1.984-.352-.651-.158-1.29-.372-1.923-.604-.633-.235-1.301-.326-1.737-1.372l.069-.285c.867-.731,1.502-.506,2.172-.426.67.083,1.335.185,1.986.342.651.158,1.293.358,1.926.594.627.258,1.315.264,1.735,1.382l-.069.285h0Z"/><path class="n" d="m727.411,144.34c-1.013.771-1.758.431-2.563.342-.8-.111-1.591-.257-2.372-.446-.781-.189-1.548-.434-2.311-.698-.762-.267-1.559-.388-2.125-1.466l.069-.285c.996-.7,1.761-.444,2.56-.333.799.115,1.593.248,2.374.436.781.189,1.552.42,2.313.688.757.289,1.574.327,2.123,1.476l-.069.285h0Z"/><path class="n" d="m743.667,148.273c-.92.794-1.571.476-2.283.41-.707-.088-1.405-.212-2.092-.378-.688-.167-1.362-.389-2.031-.63-.669-.244-1.373-.343-1.845-1.398l.069-.285c.903-.722,1.574-.489,2.281-.4.706.092,1.407.203,2.095.368.688.167,1.365.375,2.034.62.663.266,1.388.282,1.843,1.408l-.069.285h0Z"/><path class="n" d="m735.589,71.169c1.558,15.058.773,30.155,1.059,45.258-.026,7.543-.046,15.086-.134,22.629-.081,7.543-.011,15.086-.925,22.629h-.294c-1.497-15.062-.789-30.157-1.059-45.257.023-7.543.035-15.086.124-22.629.105-7.543-.05-15.086.935-22.629h.294Z"/><path class="n" d="m735.589,56.446c.988.756.832,1.512.935,2.268.081.756.124,1.512.124,2.268,0,.756-.058,1.512-.134,2.268-.08.756-.011,1.512-.925,2.268h-.294c-.914-.756-.845-1.512-.925-2.268-.077-.756-.134-1.512-.135-2.268,0-.756.044-1.512.124-2.268.103-.756-.052-1.512.935-2.268h.294Z"/><path class="n" d="m727.593,71.92c1.558,14.932.773,29.904,1.059,44.882-.026,7.48-.046,14.961-.134,22.441-.081,7.48-.011,14.961-.925,22.441,0,0-.294,0-.294,0-1.497-14.936-.789-29.906-1.059-44.882.023-7.48.035-14.961.124-22.441.105-7.48-.05-14.961.935-22.441h.294Z"/><path class="n" d="m727.593,59.77c.988.722.832,1.443.935,2.165.081.722.124,1.443.124,2.165,0,.722-.058,1.443-.134,2.165-.08.722-.011,1.443-.925,2.165h-.294c-.914-.722-.845-1.443-.925-2.165-.077-.722-.134-1.443-.135-2.165,0-.722.044-1.443.124-2.165.103-.722-.052-1.443.935-2.165h.294Z"/><path class="n" d="m664.443,142.132c.609,1.625.109,2.971-.141,4.379-.271,1.403-.578,2.797-.927,4.181-.35,1.383-.755,2.753-1.178,4.117-.427,1.364-.709,2.764-1.945,3.924l-.285-.072c-.537-1.607-.121-2.974.15-4.377.275-1.402.568-2.8.917-4.183.35-1.383.741-2.756,1.168-4.12.449-1.358.648-2.78,1.955-3.921l.285.072h0Z"/><path class="n" d="m690.244,112.087c.866.704.611,1.182.609,1.711-.023.525-.083,1.042-.186,1.55-.103.509-.262,1.006-.439,1.499-.181.493-.216,1.015-1.214,1.343l-.288-.058c-.794-.689-.624-1.184-.6-1.709.027-.524.074-1.044.176-1.552.103-.509.248-1.009.429-1.501.203-.488.154-1.028,1.224-1.341l.288.058h0Z"/><path class="n" d="m705.876,68.932c.823.948.523,1.68.478,2.461-.068.776-.172,1.546-.319,2.307-.147.761-.351,1.511-.573,2.258-.226.746-.305,1.52-1.349,2.108l-.288-.056c-.751-.935-.536-1.683-.468-2.459.072-.776.162-1.548.309-2.309.147-.761.337-1.514.563-2.26.248-.742.243-1.532,1.359-2.106l.288.056h0Z"/><path class="n" d="m697.112,72.46c.842.952.557,1.715.527,2.521-.052.802-.142,1.598-.273,2.387-.132.789-.321,1.568-.528,2.344-.211.776-.274,1.576-1.308,2.214l-.29-.048c-.77-.94-.57-1.717-.517-2.519.056-.801.132-1.6.263-2.388.132-.789.307-1.57.518-2.346.233-.772.212-1.586,1.318-2.212l.29.048h0Z"/><path class="n" d="m740.6,72.848c.857-.855,1.565-.526,2.277-.411.717.142,1.421.365,2.085.676.665.309,1.282.716,1.852,1.173.56.454,1.212.854,1.151,2.002l-.19.224c-1.096.269-1.537-.141-2.12-.421l-1.714-.791-1.71-.797c-.585-.289-1.199-.28-1.68-1.366l.05-.289Z"/><path class="n" d="m736.073,83.743c1.156-.532,1.761-.125,2.539.02,1.317.267,3.238.613,4.577.874.783.143,1.552.1,2.369,1.012v.294c-.822.917-1.691.82-2.542.832-1.725.029-3.464-.264-5.062-.949-.782-.359-1.7-.563-2.014-1.82l.132-.262h0Z"/><path class="n" d="m747.331,51.602c.707,1.1.317,1.878.175,2.729-.164.845-.363,1.679-.604,2.501-.241.822-.537,1.627-.852,2.428-.318.799-.492,1.641-1.611,2.205l-.282-.083c-.636-1.079-.329-1.882-.165-2.726.167-.843.354-1.681.594-2.503.241-.822.524-1.631.842-2.431.34-.793.432-1.658,1.62-2.202l.282.083h0Z"/><path class="n" d="m755.247,48.456c.67,1.116.256,1.871.086,2.707-.191.83-.417,1.647-.684,2.452-.268.804-.589,1.59-.929,2.37-.343.779-.545,1.605-1.68,2.121l-.279-.093c-.601-1.092-.268-1.875-.077-2.704.195-.828.407-1.651.674-2.455.268-.804.576-1.595.92-2.373.365-.772.485-1.625,1.689-2.118l.279.093h0Z"/></g></svg>