<?xml version="1.0" encoding="UTF-8"?><svg id="a" xmlns="http://www.w3.org/2000/svg" width="570" height="420" xmlns:xlink="http://www.w3.org/1999/xlink" viewBox="0 0 570 420"><defs><clipPath id="b"><path d="m562.753,180.39c13.642,92.084-13.723,233.053-165.979,233.053S23.799,426.506,6.837,317.947C-10.216,208.811,36.49-.199,188.732,1.905c246.695,3.411,357.919,69.795,374.021,178.484Z" fill="none"/></clipPath></defs><path d="m562.753,180.39c13.642,92.084-13.723,233.053-165.979,233.053S23.799,426.506,6.837,317.947C-10.216,208.811,36.49-.199,188.732,1.905c246.695,3.411,357.919,69.795,374.021,178.484Z" fill="#ffd9d9"/><line x1="188.594" y1="288.129" x2="291.552" y2="388.06" fill="none" stroke="#d12d32" stroke-linecap="round" stroke-miterlimit="10" stroke-width="2"/><polygon points="284.32 392.159 299.791 396.057 295.434 380.709 284.32 392.159" fill="#d12d32"/><line x1="353.389" y1="400.049" x2="250.431" y2="300.118" fill="none" stroke="#5c539c" stroke-linecap="round" stroke-miterlimit="10" stroke-width="2"/><polygon points="257.663 296.019 242.192 292.121 246.55 307.468 257.663 296.019" fill="#5c539c"/><path d="m429.751,198.996c1.078.849,1.018,1.812,1.215,2.749.175.939.313,1.882.408,2.83.094.947.132,1.901.15,2.855.015.955.179,1.896-.636,2.934-.071.091-.205.104-.292.029-1.005-.856-1.03-1.811-1.205-2.75-.171-.94-.323-1.881-.418-2.829-.094-.947-.146-1.899-.161-2.854.008-.958-.242-1.89.647-2.935.074-.087.203-.099.292-.029h0Z" fill="#5e1f21"/><g clip-path="url(#b)"><polygon points="411.037 185.747 633.858 239.558 601.268 358.547 352.679 278.968 411.037 185.747" fill="#c87550"/><path d="m292.047,154.674s-137.179,0-144,2.274-9.853,19.516-7.011,20.463-1.516.379-1.516.379c0,0-27.663-.568-30.316-.189s-11.558,7.011-10.611,15.537,10.042,13.263,10.042,13.263l20.084,1.895s-12.884,5.305-12.505,16.674,16.484,14.021,16.484,14.021l61.011,7.958s-14.589,9.284-5.495,21.032c7.2,8.337,83.747,19.705,83.747,19.705,0,0,87.537,31.832,99.284,32.589s56.842-43.958,61.389-52.295-2.274-82.232-3.411-92.084-54.947-41.684-54.947-41.684l-26.526-19.326s-22.737-15.916-32.968-15.537-17.432,9.474-12.884,17.811,20.463,19.326,21.979,20.463,26.905,16.295,26.905,16.295l.379,6.821-59.116-6.063Z" fill="#c87550"/><path d="m127.226,208.339c16.641.794,40.417,4.872,57.178,6.909,0,0,28.497,4.111,28.497,4.111,9.449,1.543,19.395,2.446,28.497,5.073-16.549-.48-40.553-4.854-57.328-6.795,0,0-28.499-4.102-28.499-4.102-9.491-1.43-19.017-2.603-28.386-4.905-.163-.032-.133-.306.041-.291h0Z" fill="#5e1f21"/><path d="m143.121,177.264c14.345.27,28.494,2.107,42.69,3.606,21.227,2.278,63.88,7.206,85.06,9.831,10.534,1.279,21.343,2.499,31.843,4.142,3.531.517,7.054,1.108,10.571,1.748.08.015.133.091.118.171-.013.074-.08.125-.153.121-3.569-.196-7.133-.44-10.688-.756-19.794-1.683-54.314-5.973-74.477-8.132-13.952-1.65-50.246-5.937-63.771-7.506-7.078-.865-14.149-1.927-21.194-2.931-.088-.003-.161-.079-.147-.168.01-.074.075-.127.147-.125h0Z" fill="#5e1f21"/><path d="m350.9,153.826c1.635.502,2.364,1.702,3.299,2.744.916,1.056,1.803,2.135,2.656,3.24.852,1.106,1.659,2.246,2.451,3.398.789,1.154,1.697,2.217,1.825,3.881.012.123-.117.222-.232.179-1.577-.547-2.374-1.694-3.291-2.751-.913-1.059-1.811-2.129-2.664-3.234-.852-1.105-1.671-2.237-2.459-3.392-.771-1.168-1.747-2.179-1.817-3.887-.007-.121.117-.217.232-.179h0Z" fill="#5e1f21"/><path d="m193.731,246.802c10.472.502,20.8,2.041,31.154,3.394,18.366,2.462,44.003,5.914,62.057,8.591,10.328,1.537,20.685,2.865,30.953,4.84.191.022.369.15.437.322.402.966.768,1.949,1.153,2.923.385.974.762,1.952,1.118,2.939.028.077-.012.161-.089.189-.068.025-.142-.004-.177-.064-1.045-1.818-2.044-3.66-3.034-5.506,0,0,.436.322.436.322-10.417-.898-20.744-2.445-31.1-3.781-18.008-2.336-43.825-6.026-62.049-8.651-10.33-1.521-20.687-2.856-30.899-5.227-.165-.03-.134-.308.04-.291h0Z" fill="#5e1f21"/><path d="m338.998,347.451l-63.091-55.084c-.103-.09-.199-.179-.297-.276-3.379-3.344-65.969-65.376-72.237-77.544-6.442-12.505,8.716-21.221,15.916-18.568,6.391,2.354-31.7-34.698-40.346-43.058-1.215-1.175-1.93-2.766-2.003-4.455-.178-4.124.47-11.75,7.008-15.496,2.907-1.665,4.284-5.133,3.021-8.235-2.668-6.552,2.989-13.251,5.821-16.06,1.013-1.004,2.317-1.648,3.731-1.838,3.471-.465,10.696-.474,19.754,4.832,2.209,1.294,4.946,1.056,7.046-.407,7.706-5.366,16.515-3.043,18.862-2.274.356.116.691.26,1.022.435,6.653,3.524,89.813,47.585,90.905,49.04,1.073,1.431,59.212,36.966,65.724,40.944.397.243.813.439,1.252.592l19.886,6.96c4.553,1.593,9.219-2.08,8.739-6.88h0c-.071-.708-.256-1.401-.548-2.05l-5.926-13.168c-.299-.663-.699-1.267-1.197-1.798-3.036-3.238-14.635-15.759-20.857-24.601-5.001-7.107-5.371-16.651-5.13-21.818.113-2.423,1.558-4.575,3.747-5.618,3.737-1.78,9.715-3.648,13.635.026,5.659,5.306,33.66,31.852,37.364,35.364.274.26.518.534.743.837,3.545,4.754,33.745,45.488,33.388,52.979-.33,6.94,3.662,52.207,4.689,63.677.152,1.698-.356,3.38-1.425,4.709-8.751,10.886-49.232,61.082-53.285,63.109-3.797,1.898-34.007,10.136-65.712,8.173-11.162-.691-21.776-5.093-30.2-12.448Z" fill="#c87550"/><polygon points="480.256 268.725 576.417 431.727 439.988 480.602 342.906 279.595 480.256 268.725" fill="#c87550"/><path d="m193.995,130.309c18.376,13.671,43.381,35.752,61.307,50.55,17.718,15.255,43.135,36.337,60.286,51.755.101.083.192.216.213.342.379,1.784.784,3.562,1.124,5.356.351,1.791.719,3.578,1.034,5.378.014.08-.04.156-.12.17-.073.013-.143-.031-.165-.099-.569-1.737-1.085-3.487-1.618-5.232-.544-1.743-1.024-3.502-1.529-5.255l.213.342c-10.42-8.186-20.421-16.867-30.59-25.35-23.719-19.972-56.178-47.311-79.413-67.589-3.526-3.202-7.535-6.813-10.93-10.145-.13-.115.052-.336.19-.224h0Z" fill="#5e1f21"/><path d="m220.12,113.999c18.839,10.798,44.311,29.384,62.613,41.62,3.257,2.26,6.58,4.502,9.743,6.915,9.697,7.943,24.893,19.964,34.717,27.826,4.897,3.905,9.778,7.829,14.538,11.907l-.351-.142c3.654.495,7.3,1.032,10.935,1.666.08.014.133.091.119.171-.013.073-.077.123-.149.121-1.846-.051-3.685-.164-5.527-.252-1.741-.17-4.272-.083-5.868-.497-16.387-12.147-34.81-27.083-50.877-39.707-5.884-4.164-33.075-23.042-39.484-27.506-10.319-7.092-20.627-14.235-30.554-21.867-.074-.045-.097-.146-.043-.216.045-.059.126-.075.189-.039h0Z" fill="#5e1f21"/><path d="m220.904,196.25c7.582,5.722,14.528,12.138,21.553,18.469,12.159,10.952,29.723,26.949,42.092,38.044,6.153,5.63,14.979,13.468,20.921,19.162.184.157.288.4.269.629-.172,2.747-.444,5.76-.724,8.512-.091.945-.193,1.89-.315,2.835-.01.081-.084.138-.165.127-.071-.009-.124-.068-.128-.137-.059-.95-.098-1.9-.126-2.849-.123-2.778-.14-5.783-.155-8.541,0,0,.268.628.268.628-9.992-8.466-22.092-19.391-31.962-28.109-10.632-9.395-20.993-19.089-31.405-28.727-6.933-6.434-13.945-12.782-20.32-19.825-.118-.119.064-.329.198-.217h0Z" fill="#5e1f21"/><path d="m432.61,210.614c1.08-1.223,2.369-1.323,3.612-1.676,1.246-.331,2.499-.626,3.76-.879,1.261-.252,2.534-.448,3.81-.625,1.278-.174,2.524-.494,3.973.149.113.046.145.2.06.287-1.077,1.148-2.357,1.333-3.606,1.665-1.25.328-2.504.637-3.769.891-1.265.253-2.539.463-3.819.637-1.284.152-2.521.558-3.967-.16-.108-.052-.136-.201-.054-.289h0Z" fill="#5e1f21"/><path d="m407.635,129.985c2.296,2.173,3.137,5.071,4.815,7.594,1.375,2.405,3.352,4.561,5.722,5.834,0,0-.494-.089-.494-.089,1.398-.005,4.636-.152,5.987.099,2.723.449,2.817.747.07,1.47-1.299.4-4.572.519-5.95.667-.177.014-.343-.019-.495-.089-4.592-1.982-6.998-6.544-8.843-10.878-.625-1.386-1.109-2.84-1.083-4.494,0-.134.174-.211.271-.114h0Z" fill="#5e1f21"/><path d="m237.054,123.84c2.547-2.353,5.884-2.564,8.391-4.726.346-.266.32-.526.313-.259-1.143-3.5-4.051-5.868-4.984-9.564-.034-.128.113-.246.231-.182,2.752,1.494,4.119,4.096,5.834,6.51.706,1.205,1.974,3.08.875,4.542-1.198,1.563-3.094,2.225-4.801,2.915-1.848.657-3.659,1.415-5.772,1.041-.127-.019-.181-.189-.087-.278h0Z" fill="#5e1f21"/><path d="m186.464,123.943c.814.608,2.105.867,3.102,1.226,3.157.98,6.766,2.249,9.995,2.595.761.057,1.502.166,2.174-.048,1.161-.415,2.035-1.317,2.975-2.294,1.501-1.644,2.903-3.537,4.108-5.454l.046,1.269c-3.118-4.801-6.809-9.276-9.02-14.606-.06-.136.13-.276.24-.169,4.267,3.887,7.227,8.879,10.689,13.44.276.386.276.885.042,1.264-1.293,2.091-2.645,4.069-4.355,5.895-1.305,1.35-3.1,3.026-5.215,3.083-3.649.025-13.598-2.697-15.066-6.131-.008-.186.189-.2.285-.071h0Z" fill="#5e1f21"/><path d="m178.787,150.366c4.334.228,10.149,2.405,14.328,3.602,0,0-1.178.298-1.178.298l3.755-4.012c1.247-1.342,2.513-2.665,3.791-3.977l-.063,1.565c-3.175-4.017-6.408-7.991-9.423-12.131-.973-1.408-1.9-2.853-2.653-4.439-.036-.075-.004-.165.072-.201,2.878,1.89,5.038,4.816,7.299,7.407,2.2,2.61,4.395,5.224,6.55,7.871.382.468.345,1.142-.063,1.565-1.249,1.34-2.509,2.669-3.788,3.981l-3.824,3.946c-.306.333-.776.438-1.178.299-2.43-.903-8.128-2.671-10.405-3.751-1.129-.5-2.241-1.053-3.309-1.742-.126-.08-.062-.292.091-.279h0Z" fill="#5e1f21"/><path d="m218.264,197.778c4.414,3.624,7.943,8.034,11.706,12.273.469.517.296,1.374-.331,1.676-4.369,2.375-8.78,4.667-13.227,6.892-.431.225-.942.15-1.291-.148-2.076-1.778-4.105-3.612-6.16-5.415-2.073-1.825-4.076-3.689-5.685-5.975-.048-.069-.03-.164.039-.212,4.891,2.167,9.045,6.552,13.317,9.819,0,0-1.29-.148-1.29-.148,2.203-1.151,4.395-2.323,6.623-3.428,2.217-1.125,4.438-2.241,6.677-3.322l-.331,1.675c-3.593-4.385-7.389-8.566-10.272-13.496-.086-.132.103-.3.223-.191h0Z" fill="#5e1f21"/><path d="m275.649,292.336c-18.019-16.076-34.626-33.636-51.273-51.109-5.499-5.882-10.964-11.793-16.159-17.999-3.893-4.758-8.717-10.265-7.333-16.911,1.571-7.663,10.612-13.282,18.174-11.552,0,0,.722.229.722.229.055.024.11.007-.043.017-.052.011-.294.037-.499.259-.213.204-.239.487-.242.539.003.172.016.109-.008.064-.859-1.685-2.365-3.308-3.607-4.815-7.88-9.04-16.549-17.498-24.738-26.299-2.771-2.912-5.511-5.857-8.214-8.842-.123-.12.072-.337.205-.21,12.115,10.629,23.556,21.921,34.359,33.959,1.449,1.761,2.992,3.295,4.026,5.432.167.446.306,1.123-.211,1.68-.521.516-1.177.442-1.625.313-4.877-1.587-10.448,1.126-13.66,4.828-5.933,7.127-.288,14.049,4.546,19.78,5.09,6.158,10.51,12.095,15.956,17.991,9.481,10.326,23.476,24.609,33.351,34.813,5.57,5.802,11.1,11.639,16.479,17.624.123.124-.077.334-.206.209h0Z" fill="#5e1f21"/><path d="m334.228,158.375c19.012,11.145,48.326,29.107,66.584,40.291,8.816,3.051,21.403,7.458,30.307,10.636,0,0-1.511,1.189-1.511,1.189l-1.099-11.372.092.343-6.169-13.81c-.75-1.593-1.811-3.042-3.096-4.248-8.019-7.208-15.582-15.219-20.46-24.95-1.028-2.346-2.257-4.71-2.13-7.366.012-.169.295-.171.289.014.189,2.464,1.578,4.73,2.769,6.852,5.463,9.143,13.045,16.852,20.94,23.939,1.485,1.375,2.711,3.027,3.587,4.855l6.279,13.809c.05.112.081.227.092.343l1.175,11.364c.101.809-.75,1.48-1.511,1.19-9.077-3.203-21.66-7.408-30.548-10.69-11.569-7.279-38.68-23.713-49.767-30.962-4.093-2.672-8.167-5.381-12.143-8.228-1.323-.984-2.652-1.839-3.914-3.024-.056-.053-.059-.141-.006-.197.072-.081.172-.035.241.02h0Z" fill="#5e1f21"/><path d="m516.162,329.878c-8.744-12.521-19.866-31.67-27.633-45.039-1.82-21.557-4.137-43.05-4.584-64.7-.347-3.285-2.351-6.5-3.767-9.5-1.652-3.171-3.378-6.326-5.082-9.503-.039-.072-.012-.161.06-.2.065-.035.144-.016.187.041,2.175,2.88,4.242,5.842,6.129,8.933,1.415,2.343,2.797,4.732,3.778,7.32.323.892.638,1.789.662,2.968.002,3.499.255,7.111.493,10.683.207,5.95,4.273,48.481,4.296,53.246,4.562,7.804,15.398,26.294,19.67,33.973,2.109,3.82,4.141,7.686,6.045,11.627.082.149-.159.298-.253.149h0Z" fill="#5e1f21"/></g></svg>