<?xml version="1.0" encoding="UTF-8"?><svg id="a" xmlns="http://www.w3.org/2000/svg" width="1140" height="640" viewBox="0 0 1140 640"><path d="m257.3694,9.9455c66.8342,9.2773,126.7647,12.9141,194.0893,7.754,58.9428-4.5177,80.3173-20.0525,180.0019-15.3626,70.3362,3.3091,139.1132,20.4178,209.5018,22.2318,41.4017,1.067,82.6531-5.876,124.067-5.3926s85.1892,9.6956,114.5736,37.4402c35.2363,33.2701,41.7579,84.4067,46.3212,131.4167,7.4436,76.6811,14.8468,154.4558.7599,230.2895-10.3719,55.8347-20.7428,123.3793-68.8962,156.8396-41.5058,28.8411-88.9785,34.7001-138.2611,34.3201-71.7228-.553-133.3618-13.9537-202.9791,6.864-39.2796,11.7458-109.7129,18.452-150.2955,12.6531-48.9397-6.9931-80.422-16.1513-121.5758-24.0553-37.9252-7.2839-76.8917-9.1479-115.3363-5.4754-37.0586,3.5401-72.6896,17.4253-110.0124,18.1107-83.2524,1.5288-157.2189-59.5647-189.2706-132.617S.4426,329.4546,11.402,250.9921c9.5842-68.6166,6.3547-149.3652,61.8203-199.2788C128.6879,1.7998,190.5352.6682,257.3694,9.9455Z" fill="#ede8f2" stroke-width="0"/><path d="m415.1498,156.0655h23.1679c0,4.7182-3.8306,8.5488-8.5488,8.5488h-6.0704c-4.7182,0-8.5488-3.8306-8.5488-8.5488h0Z" fill="#8b979e" stroke-width="0"/><path d="m415.1498,172.5368h23.1679c0,4.7182-3.8306,8.5488-8.5488,8.5488h-6.0704c-4.7182,0-8.5488-3.8306-8.5488-8.5488h0Z" transform="translate(853.4675 353.6223) rotate(180)" fill="#8b979e" stroke-width="0"/><line x1="872.5185" y1="181.0855" x2="393.5397" y2="181.0855" fill="none" stroke="#000" stroke-miterlimit="10" stroke-width="2"/><circle cx="878.5185" cy="181.0855" r="6" stroke-width="0"/><line x1="872.5185" y1="156.0655" x2="393.5397" y2="156.0655" fill="none" stroke="#000" stroke-miterlimit="10" stroke-width="2"/><rect x="335.0566" y="281.7887" width="466.4386" height="99.8837" fill="#697b82" stroke-width="0"/><path d="m490.9973,380.0484c1.9178,9.7342,4.1956,15.9767,7.1171,15.9767,13.2603,0,13.2603-128.5891,26.5205-128.5891,2.9337,0,5.2183,6.2944,7.141,16.0979" fill="none" stroke="#000" stroke-miterlimit="10" stroke-width="2"/><path d="m531.156,380.0484c1.9178,9.7342,4.1956,15.9767,7.1171,15.9767,13.2603,0,13.2603-128.5891,26.5205-128.5891,2.9337,0,5.2183,6.2944,7.141,16.0979" fill="none" stroke="#000" stroke-miterlimit="10" stroke-width="2"/><path d="m571.3147,380.0484c1.9178,9.7342,4.1956,15.9767,7.1171,15.9767,13.2603,0,13.2603-128.5891,26.5205-128.5891,2.9337,0,5.2183,6.2944,7.141,16.0979" fill="none" stroke="#000" stroke-miterlimit="10" stroke-width="2"/><path d="m611.4734,380.0484c1.9178,9.7342,4.1956,15.9767,7.1171,15.9767,13.2603,0,13.2603-128.5891,26.5205-128.5891,2.9337,0,5.2183,6.2944,7.141,16.0979" fill="none" stroke="#000" stroke-miterlimit="10" stroke-width="2"/><path d="m651.632,380.0484c1.9178,9.7342,4.1956,15.9767,7.1171,15.9767,13.2603,0,13.2603-128.5891,26.5205-128.5891,2.9337,0,5.2183,6.2944,7.141,16.0979" fill="none" stroke="#000" stroke-miterlimit="10" stroke-width="2"/><path d="m691.7907,380.0484c1.9178,9.7342,4.1956,15.9767,7.1171,15.9767,13.2603,0,13.2603-128.5891,26.5205-128.5891,2.9337,0,5.2183,6.2944,7.141,16.0979" fill="none" stroke="#000" stroke-miterlimit="10" stroke-width="2"/><path d="m731.9494,380.0484c1.9178,9.7342,4.1956,15.9767,7.1171,15.9767,13.2603,0,13.2603-128.5891,26.5205-128.5891,2.9337,0,5.2183,6.2944,7.141,16.0979" fill="none" stroke="#000" stroke-miterlimit="10" stroke-width="2"/><path d="m410.68,380.0484c1.9178,9.7342,4.1956,15.9767,7.1171,15.9767,13.2603,0,13.2603-128.5891,26.5205-128.5891,2.9337,0,5.2183,6.2944,7.141,16.0979" fill="none" stroke="#000" stroke-miterlimit="10" stroke-width="2"/><path d="m450.8387,380.0484c1.9178,9.7342,4.1956,15.9767,7.1171,15.9767,13.2603,0,13.2603-128.5891,26.5205-128.5891,2.9337,0,5.2183,6.2944,7.141,16.0979" fill="none" stroke="#000" stroke-miterlimit="10" stroke-width="2"/><polygon points="798.1356 209.0029 390.9107 209.0029 335.0566 193.6454 335.0566 238.4769 798.1356 238.4769 798.1356 401.0284 827.6096 401.0284 827.6096 238.4769 827.6096 209.0029 798.1356 209.0029" fill="#596263" stroke-width="0"/><rect x="743.0594" y="139.1897" width="69.8132" height="69.8132" fill="#8f8575" stroke-width="0"/><polyline points="466.1611 181.4806 466.1611 204.1812 391.4899 204.1812 331.9465 187.8093 271.6922 363.8264" fill="none" stroke="#354547" stroke-linejoin="round" stroke-width="10"/><circle cx="878.5185" cy="156.0655" r="6" stroke-width="0"/><polyline points="696.6176 506.9244 759.6176 506.9244 759.6176 381.6725" fill="none" stroke="#000" stroke-linejoin="round" stroke-width="2"/><circle cx="696.6176" cy="506.9244" r="6" stroke-width="0"/><line x1="636.6016" y1="506.9243" x2="689.191" y2="473.7005" fill="none" stroke="#000" stroke-linecap="round" stroke-linejoin="round" stroke-width="2"/><line x1="636.6016" y1="506.9243" x2="574.6016" y2="506.9244" fill="none" stroke="#000" stroke-linejoin="round" stroke-width="2"/><circle cx="636.6016" cy="506.7994" r="6" stroke-width="0"/><path d="m411.3,283.5339c-1.9228-9.8035-4.2074-16.0979-7.141-16.0979-6.8544,0-10.1657,34.3589-13.5968,67.5555l-14.5123,171.9328h108.3677" fill="none" stroke="#000" stroke-linejoin="round" stroke-width="2"/><path d="m553.6006,507.924h-7v-2h7v2Zm-14,0h-7v-2h7v2Zm-14,0h-7v-2h7v2Zm-14,0h-7v-2h7v2Z" stroke-width="0"/><line x1="484.8262" y1="464.4663" x2="484.8262" y2="548.4663" fill="#fff" stroke="#000" stroke-linejoin="round" stroke-width="2"/><line x1="498.8374" y1="483.4044" x2="498.8374" y2="530.4444" fill="#fff" stroke="#000" stroke-linejoin="round" stroke-width="2"/><line x1="559.9303" y1="464.4663" x2="559.9303" y2="548.4663" fill="#fff" stroke="#000" stroke-linejoin="round" stroke-width="2"/><line x1="573.9415" y1="483.4044" x2="573.9415" y2="530.4444" fill="#fff" stroke="#000" stroke-linejoin="round" stroke-width="2"/><path d="m178.7729,130.1462h-11.1797v-1.5586l5.9062-6.5625c.875-.9922,1.4785-1.7988,1.8105-2.4199s.498-1.2637.498-1.9277c0-.8906-.2695-1.6211-.8086-2.1914s-1.2578-.8555-2.1562-.8555c-1.0781,0-1.916.3066-2.5137.9199s-.8965,1.4668-.8965,2.5605h-2.168c0-1.5703.5059-2.8398,1.5176-3.8086s2.3652-1.4531,4.0605-1.4531c1.5859,0,2.8398.416,3.7617,1.248s1.3828,1.9395,1.3828,3.3223c0,1.6797-1.0703,3.6797-3.2109,6l-4.5703,4.957h8.5664v1.7695Z" stroke-width="0"/><path d="m183.3433,117.4665l.0703,1.5938c.9688-1.2188,2.2344-1.8281,3.7969-1.8281,2.6797,0,4.0312,1.5117,4.0547,4.5352v8.3789h-2.168v-8.3906c-.0078-.9141-.2168-1.5898-.627-2.0273s-1.0488-.6562-1.916-.6562c-.7031,0-1.3203.1875-1.8516.5625s-.9453.8672-1.2422,1.4766v9.0352h-2.168v-12.6797h2.0508Z" stroke-width="0"/><path d="m194.0073,123.7009c0-1.9453.4609-3.5098,1.3828-4.6934s2.1289-1.7754,3.6211-1.7754c1.4844,0,2.6602.5078,3.5273,1.5234v-6.6094h2.168v18h-1.9922l-.1055-1.3594c-.8672,1.0625-2.0742,1.5938-3.6211,1.5938-1.4688,0-2.666-.6016-3.5918-1.8047s-1.3887-2.7734-1.3887-4.7109v-.1641Zm2.168.2461c0,1.4375.2969,2.5625.8906,3.375s1.4141,1.2188,2.4609,1.2188c1.375,0,2.3789-.6172,3.0117-1.8516v-5.8242c-.6484-1.1953-1.6445-1.793-2.9883-1.793-1.0625,0-1.8906.4102-2.4844,1.2305s-.8906,2.0352-.8906,3.6445Z" stroke-width="0"/><path d="m221.394,126.7829c0-.5859-.2207-1.041-.6621-1.3652s-1.2109-.6035-2.3086-.8379-1.9688-.5156-2.6133-.8438-1.1211-.7188-1.4297-1.1719-.4629-.9922-.4629-1.6172c0-1.0391.4395-1.918,1.3184-2.6367s2.002-1.0781,3.3691-1.0781c1.4375,0,2.6035.3711,3.498,1.1133s1.3418,1.6914,1.3418,2.8477h-2.1797c0-.5938-.252-1.1055-.7559-1.5352s-1.1387-.6445-1.9043-.6445c-.7891,0-1.4062.1719-1.8516.5156s-.668.793-.668,1.3477c0,.5234.207.918.6211,1.1836s1.1621.5195,2.2441.7617,1.959.5312,2.6309.8672,1.1699.7402,1.4941,1.2129.4863,1.0488.4863,1.7285c0,1.1328-.4531,2.041-1.3594,2.7246s-2.082,1.0254-3.5273,1.0254c-1.0156,0-1.9141-.1797-2.6953-.5391s-1.3926-.8613-1.834-1.5059-.6621-1.3418-.6621-2.0918h2.168c.0391.7266.3301,1.3027.873,1.7285s1.2598.6387,2.1504.6387c.8203,0,1.4785-.166,1.9746-.498s.7441-.7754.7441-1.3301Z" stroke-width="0"/><path d="m237.6128,127.1579l2.4375-9.6914h2.168l-3.6914,12.6797h-1.7578l-3.082-9.6094-3,9.6094h-1.7578l-3.6797-12.6797h2.1562l2.4961,9.4922,2.9531-9.4922h1.7461l3.0117,9.6914Z" stroke-width="0"/><path d="m244.4331,114.1032c0-.3516.1074-.6484.3223-.8906s.5332-.3633.9551-.3633.7422.1211.9609.3633.3281.5391.3281.8906-.1094.6445-.3281.8789-.5391.3516-.9609.3516-.7402-.1172-.9551-.3516-.3223-.5273-.3223-.8789Zm2.3438,16.043h-2.168v-12.6797h2.168v12.6797Z" stroke-width="0"/><path d="m253.187,114.3962v3.0703h2.3672v1.6758h-2.3672v7.873c0,.5088.1055.8901.3164,1.144.2109.2544.5703.3813,1.0781.3813.25,0,.5938-.0469,1.0312-.1406v1.7476c-.5703.1553-1.125.2329-1.6641.2329-.9688,0-1.6992-.293-2.1914-.8789s-.7383-1.418-.7383-2.4961v-7.8633h-2.3086v-1.6758h2.3086v-3.0703h2.168Z" stroke-width="0"/><path d="m263.1714,128.611c.7734,0,1.4492-.2344,2.0273-.7031s.8984-1.0547.9609-1.7578h2.0508c-.0391.7266-.2891,1.418-.75,2.0742s-1.0762,1.1797-1.8457,1.5703-1.584.5859-2.4434.5859c-1.7266,0-3.0996-.5762-4.1191-1.7285s-1.5293-2.7285-1.5293-4.7285v-.3633c0-1.2344.2266-2.332.6797-3.293s1.1035-1.707,1.9512-2.2383,1.8496-.7969,3.0059-.7969c1.4219,0,2.6035.4258,3.5449,1.2773s1.4434,1.957,1.5059,3.3164h-2.0508c-.0625-.8203-.373-1.4941-.9316-2.0215s-1.248-.791-2.0684-.791c-1.1016,0-1.9551.3965-2.5605,1.1895s-.9082,1.9395-.9082,3.4395v.4102c0,1.4609.3008,2.5859.9023,3.375s1.4609,1.1836,2.5781,1.1836Z" stroke-width="0"/><path d="m272.8159,119.0016c.9609-1.1797,2.2109-1.7695,3.75-1.7695,2.6797,0,4.0312,1.5117,4.0547,4.5352v8.3789h-2.168v-8.3906c-.0078-.9141-.2168-1.5898-.627-2.0273s-1.0488-.6562-1.916-.6562c-.7031,0-1.3203.1875-1.8516.5625s-.9453.8672-1.2422,1.4766v9.0352h-2.168v-18h2.168v6.8555Z" stroke-width="0"/><path d="m799.5957,81.0207c-.2109,1.8047-.877,3.1973-1.998,4.1777s-2.6113,1.4707-4.4707,1.4707c-2.0156,0-3.6309-.7227-4.8457-2.168s-1.8223-3.3789-1.8223-5.8008v-1.6406c0-1.5859.2832-2.9805.8496-4.1836s1.3691-2.127,2.4082-2.7715,2.2422-.9668,3.6094-.9668c1.8125,0,3.2656.5059,4.3594,1.5176s1.7305,2.4121,1.9102,4.2012h-2.2617c-.1953-1.3633-.6191-2.3511-1.2715-2.9619-.6523-.6113-1.5645-.917-2.7363-.917-1.4375,0-2.5645.5317-3.3809,1.5952s-1.2246,2.5762-1.2246,4.5386v1.6543c0,1.853.3867,3.3271,1.1602,4.4214.7734,1.0947,1.8555,1.6421,3.2461,1.6421,1.25,0,2.209-.2832,2.877-.8496s1.1113-1.5527,1.3301-2.959h2.2617Z" stroke-width="0"/><path d="m801.752,79.9777c0-1.2422.2441-2.3594.7324-3.3516s1.168-1.7578,2.0391-2.2969,1.8652-.8086,2.9824-.8086c1.7266,0,3.123.5977,4.1895,1.793s1.5996,2.7852,1.5996,4.7695v.1523c0,1.2344-.2363,2.3418-.709,3.3223s-1.1484,1.7441-2.0273,2.291-1.8887.8203-3.0293.8203c-1.7188,0-3.1113-.5977-4.1777-1.793s-1.5996-2.7773-1.5996-4.7461v-.1523Zm2.1797.2578c0,1.4062.3262,2.5352.9785,3.3867s1.5254,1.2773,2.6191,1.2773c1.1016,0,1.9766-.4316,2.625-1.2949s.9727-2.0723.9727-3.627c0-1.3906-.3301-2.5176-.9902-3.3809s-1.5371-1.2949-2.6309-1.2949c-1.0703,0-1.9336.4258-2.5898,1.2773s-.9844,2.0703-.9844,3.6562Z" stroke-width="0"/><path d="m818.0645,73.7551l.0703,1.5938c.9688-1.2188,2.2344-1.8281,3.7969-1.8281,2.6797,0,4.0312,1.5117,4.0547,4.5352v8.3789h-2.168v-8.3906c-.0078-.9141-.2168-1.5898-.627-2.0273s-1.0488-.6562-1.916-.6562c-.7031,0-1.3203.1875-1.8516.5625s-.9453.8672-1.2422,1.4766v9.0352h-2.168v-12.6797h2.0508Z" stroke-width="0"/><path d="m831.3066,73.7551l.0703,1.5938c.9688-1.2188,2.2344-1.8281,3.7969-1.8281,2.6797,0,4.0312,1.5117,4.0547,4.5352v8.3789h-2.168v-8.3906c-.0078-.9141-.2168-1.5898-.627-2.0273s-1.0488-.6562-1.916-.6562c-.7031,0-1.3203.1875-1.8516.5625s-.9453.8672-1.2422,1.4766v9.0352h-2.168v-12.6797h2.0508Z" stroke-width="0"/><path d="m847.7598,86.6691c-1.7188,0-3.1172-.5645-4.1953-1.6934s-1.6172-2.6387-1.6172-4.5293v-.3984c0-1.2578.2402-2.3809.7207-3.3691s1.1523-1.7617,2.0156-2.3203,1.7988-.8379,2.8066-.8379c1.6484,0,2.9297.543,3.8438,1.6289s1.3711,2.6406,1.3711,4.6641v.9023h-8.5898c.0312,1.25.3965,2.2598,1.0957,3.0293s1.5879,1.1543,2.666,1.1543c.7656,0,1.4141-.1562,1.9453-.4688s.9961-.7266,1.3945-1.2422l1.3242,1.0312c-1.0625,1.6328-2.6562,2.4492-4.7812,2.4492Zm-.2695-11.3672c-.875,0-1.6094.3184-2.2031.9551s-.9609,1.5293-1.1016,2.6777h6.3516v-.1641c-.0625-1.1016-.3594-1.9551-.8906-2.5605s-1.25-.9082-2.1562-.9082Z" stroke-width="0"/><path d="m860.2988,84.8996c.7734,0,1.4492-.2344,2.0273-.7031s.8984-1.0547.9609-1.7578h2.0508c-.0391.7266-.2891,1.418-.75,2.0742s-1.0762,1.1797-1.8457,1.5703-1.584.5859-2.4434.5859c-1.7266,0-3.0996-.5762-4.1191-1.7285s-1.5293-2.7285-1.5293-4.7285v-.3633c0-1.2344.2266-2.332.6797-3.293s1.1035-1.707,1.9512-2.2383,1.8496-.7969,3.0059-.7969c1.4219,0,2.6035.4258,3.5449,1.2773s1.4434,1.957,1.5059,3.3164h-2.0508c-.0625-.8203-.373-1.4941-.9316-2.0215s-1.248-.791-2.0684-.791c-1.1016,0-1.9551.3965-2.5605,1.1895s-.9082,1.9395-.9082,3.4395v.4102c0,1.4609.3008,2.5859.9023,3.375s1.4609,1.1836,2.5781,1.1836Z" stroke-width="0"/><path d="m870.7168,70.6848v3.0703h2.3672v1.6758h-2.3672v7.873c0,.5088.1055.8901.3164,1.144.2109.2544.5703.3813,1.0781.3813.25,0,.5938-.0469,1.0312-.1406v1.7476c-.5703.1553-1.125.2329-1.6641.2329-.9688,0-1.6992-.293-2.1914-.8789s-.7383-1.418-.7383-2.4961v-7.8633h-2.3086v-1.6758h2.3086v-3.0703h2.168Z" stroke-width="0"/><path d="m884.498,70.6848v3.0703h2.3672v1.6758h-2.3672v7.873c0,.5088.1055.8901.3164,1.144.2109.2544.5703.3813,1.0781.3813.25,0,.5938-.0469,1.0312-.1406v1.7476c-.5703.1553-1.125.2329-1.6641.2329-.9688,0-1.6992-.293-2.1914-.8789s-.7383-1.418-.7383-2.4961v-7.8633h-2.3086v-1.6758h2.3086v-3.0703h2.168Z" stroke-width="0"/><path d="m888.5879,79.9777c0-1.2422.2441-2.3594.7324-3.3516s1.168-1.7578,2.0391-2.2969,1.8652-.8086,2.9824-.8086c1.7266,0,3.123.5977,4.1895,1.793s1.5996,2.7852,1.5996,4.7695v.1523c0,1.2344-.2363,2.3418-.709,3.3223s-1.1484,1.7441-2.0273,2.291-1.8887.8203-3.0293.8203c-1.7188,0-3.1113-.5977-4.1777-1.793s-1.5996-2.7773-1.5996-4.7461v-.1523Zm2.1797.2578c0,1.4062.3262,2.5352.9785,3.3867s1.5254,1.2773,2.6191,1.2773c1.1016,0,1.9766-.4316,2.625-1.2949s.9727-2.0723.9727-3.627c0-1.3906-.3301-2.5176-.9902-3.3809s-1.5371-1.2949-2.6309-1.2949c-1.0703,0-1.9336.4258-2.5898,1.2773s-.9844,2.0703-.9844,3.6562Z" stroke-width="0"/><path d="m919.748,86.4348h-11.1797v-1.5586l5.9062-6.5625c.875-.9922,1.4785-1.7988,1.8105-2.4199s.498-1.2637.498-1.9277c0-.8906-.2695-1.6211-.8086-2.1914s-1.2578-.8555-2.1562-.8555c-1.0781,0-1.916.3066-2.5137.9199s-.8965,1.4668-.8965,2.5605h-2.168c0-1.5703.5059-2.8398,1.5176-3.8086s2.3652-1.4531,4.0605-1.4531c1.5859,0,2.8398.416,3.7617,1.248s1.3828,1.9395,1.3828,3.3223c0,1.6797-1.0703,3.6797-3.2109,6l-4.5703,4.957h8.5664v1.7695Z" stroke-width="0"/><path d="m924.3184,73.7551l.0703,1.5938c.9688-1.2188,2.2344-1.8281,3.7969-1.8281,2.6797,0,4.0312,1.5117,4.0547,4.5352v8.3789h-2.168v-8.3906c-.0078-.9141-.2168-1.5898-.627-2.0273s-1.0488-.6562-1.916-.6562c-.7031,0-1.3203.1875-1.8516.5625s-.9453.8672-1.2422,1.4766v9.0352h-2.168v-12.6797h2.0508Z" stroke-width="0"/><path d="m934.9824,79.9894c0-1.9453.4609-3.5098,1.3828-4.6934s2.1289-1.7754,3.6211-1.7754c1.4844,0,2.6602.5078,3.5273,1.5234v-6.6094h2.168v18h-1.9922l-.1055-1.3594c-.8672,1.0625-2.0742,1.5938-3.6211,1.5938-1.4688,0-2.666-.6016-3.5918-1.8047s-1.3887-2.7734-1.3887-4.7109v-.1641Zm2.168.2461c0,1.4375.2969,2.5625.8906,3.375s1.4141,1.2188,2.4609,1.2188c1.375,0,2.3789-.6172,3.0117-1.8516v-5.8242c-.6484-1.1953-1.6445-1.793-2.9883-1.793-1.0625,0-1.8906.4102-2.4844,1.2305s-.8906,2.0352-.8906,3.6445Z" stroke-width="0"/><path d="m960.0723,84.8996c.7734,0,1.4492-.2344,2.0273-.7031s.8984-1.0547.9609-1.7578h2.0508c-.0391.7266-.2891,1.418-.75,2.0742s-1.0762,1.1797-1.8457,1.5703-1.584.5859-2.4434.5859c-1.7266,0-3.0996-.5762-4.1191-1.7285s-1.5293-2.7285-1.5293-4.7285v-.3633c0-1.2344.2266-2.332.6797-3.293s1.1035-1.707,1.9512-2.2383,1.8496-.7969,3.0059-.7969c1.4219,0,2.6035.4258,3.5449,1.2773s1.4434,1.957,1.5059,3.3164h-2.0508c-.0625-.8203-.373-1.4941-.9316-2.0215s-1.248-.791-2.0684-.791c-1.1016,0-1.9551.3965-2.5605,1.1895s-.9082,1.9395-.9082,3.4395v.4102c0,1.4609.3008,2.5859.9023,3.375s1.4609,1.1836,2.5781,1.1836Z" stroke-width="0"/><path d="m967.5605,70.3918c0-.3516.1074-.6484.3223-.8906s.5332-.3633.9551-.3633.7422.1211.9609.3633.3281.5391.3281.8906-.1094.6445-.3281.8789-.5391.3516-.9609.3516-.7402-.1172-.9551-.3516-.3223-.5273-.3223-.8789Zm2.3438,16.043h-2.168v-12.6797h2.168v12.6797Z" stroke-width="0"/><path d="m979.502,75.7004c-.3281-.0547-.6836-.082-1.0664-.082-1.4219,0-2.3867.6055-2.8945,1.8164v9h-2.168v-12.6797h2.1094l.0352,1.4648c.7109-1.1328,1.7188-1.6992,3.0234-1.6992.4219,0,.7422.0547.9609.1641v2.0156Z" stroke-width="0"/><path d="m986.3574,84.8996c.7734,0,1.4492-.2344,2.0273-.7031s.8984-1.0547.9609-1.7578h2.0508c-.0391.7266-.2891,1.418-.75,2.0742s-1.0762,1.1797-1.8457,1.5703-1.584.5859-2.4434.5859c-1.7266,0-3.0996-.5762-4.1191-1.7285s-1.5293-2.7285-1.5293-4.7285v-.3633c0-1.2344.2266-2.332.6797-3.293s1.1035-1.707,1.9512-2.2383,1.8496-.7969,3.0059-.7969c1.4219,0,2.6035.4258,3.5449,1.2773s1.4434,1.957,1.5059,3.3164h-2.0508c-.0625-.8203-.373-1.4941-.9316-2.0215s-1.248-.791-2.0684-.791c-1.1016,0-1.9551.3965-2.5605,1.1895s-.9082,1.9395-.9082,3.4395v.4102c0,1.4609.3008,2.5859.9023,3.375s1.4609,1.1836,2.5781,1.1836Z" stroke-width="0"/><path d="m1001.6621,85.1808c-.8438.9922-2.082,1.4883-3.7148,1.4883-1.3516,0-2.3809-.3926-3.0879-1.1777s-1.0645-1.9473-1.0723-3.4863v-8.25h2.168v8.1914c0,1.9219.7812,2.8828,2.3438,2.8828,1.6562,0,2.7578-.6172,3.3047-1.8516v-9.2227h2.168v12.6797h-2.0625l-.0469-1.2539Z" stroke-width="0"/><path d="m1007.0762,70.3918c0-.3516.1074-.6484.3223-.8906s.5332-.3633.9551-.3633.7422.1211.9609.3633.3281.5391.3281.8906-.1094.6445-.3281.8789-.5391.3516-.9609.3516-.7402-.1172-.9551-.3516-.3223-.5273-.3223-.8789Zm2.3438,16.043h-2.168v-12.6797h2.168v12.6797Z" stroke-width="0"/><path d="m1015.8301,70.6848v3.0703h2.3672v1.6758h-2.3672v7.873c0,.5088.1055.8901.3164,1.144.2109.2544.5703.3813,1.0781.3813.25,0,.5938-.0469,1.0312-.1406v1.7476c-.5703.1553-1.125.2329-1.6641.2329-.9688,0-1.6992-.293-2.1914-.8789s-.7383-1.418-.7383-2.4961v-7.8633h-2.3086v-1.6758h2.3086v-3.0703h2.168Z" stroke-width="0"/><path d="m525.8555,439.2941h-2.1797v-14.4492l-4.3711,1.6055v-1.9688l6.2109-2.332h.3398v17.1445Z" stroke-width="0"/><path d="m539.8125,435.9308c0-.5859-.2207-1.041-.6621-1.3652s-1.2109-.6035-2.3086-.8379-1.9688-.5156-2.6133-.8438-1.1211-.7188-1.4297-1.1719-.4629-.9922-.4629-1.6172c0-1.0391.4395-1.918,1.3184-2.6367s2.002-1.0781,3.3691-1.0781c1.4375,0,2.6035.3711,3.498,1.1133s1.3418,1.6914,1.3418,2.8477h-2.1797c0-.5938-.252-1.1055-.7559-1.5352s-1.1387-.6445-1.9043-.6445c-.7891,0-1.4062.1719-1.8516.5156s-.668.793-.668,1.3477c0,.5234.207.918.6211,1.1836s1.1621.5195,2.2441.7617,1.959.5312,2.6309.8672,1.1699.7402,1.4941,1.2129.4863,1.0488.4863,1.7285c0,1.1328-.4531,2.041-1.3594,2.7246s-2.082,1.0254-3.5273,1.0254c-1.0156,0-1.9141-.1797-2.6953-.5391s-1.3926-.8613-1.834-1.5059-.6621-1.3418-.6621-2.0918h2.168c.0391.7266.3301,1.3027.873,1.7285s1.2598.6387,2.1504.6387c.8203,0,1.4785-.166,1.9746-.498s.7441-.7754.7441-1.3301Z" stroke-width="0"/><path d="m547.7461,423.5441v3.0703h2.3672v1.6758h-2.3672v7.873c0,.5088.1055.8906.3164,1.1445s.5703.3809,1.0781.3809c.25,0,.5938-.0469,1.0312-.1406v1.748c-.5703.1553-1.125.2324-1.6641.2324-.9688,0-1.6992-.293-2.1914-.8789s-.7383-1.418-.7383-2.4961v-7.8633h-2.3086v-1.6758h2.3086v-3.0703h2.168Z" stroke-width="0"/><path d="m563.6719,437.759c.7734,0,1.4492-.2344,2.0273-.7031s.8984-1.0547.9609-1.7578h2.0508c-.0391.7266-.2891,1.418-.75,2.0742s-1.0762,1.1797-1.8457,1.5703-1.584.5859-2.4434.5859c-1.7266,0-3.0996-.5762-4.1191-1.7285s-1.5293-2.7285-1.5293-4.7285v-.3633c0-1.2344.2266-2.332.6797-3.293s1.1035-1.707,1.9512-2.2383,1.8496-.7969,3.0059-.7969c1.4219,0,2.6035.4258,3.5449,1.2773s1.4434,1.957,1.5059,3.3164h-2.0508c-.0625-.8203-.373-1.4941-.9316-2.0215s-1.248-.791-2.0684-.791c-1.1016,0-1.9551.3965-2.5605,1.1895s-.9082,1.9395-.9082,3.4395v.4102c0,1.4609.3008,2.5859.9023,3.375s1.4609,1.1836,2.5781,1.1836Z" stroke-width="0"/><path d="m571.1602,423.2512c0-.3516.1074-.6484.3223-.8906s.5332-.3633.9551-.3633.7422.1211.9609.3633.3281.5391.3281.8906-.1094.6445-.3281.8789-.5391.3516-.9609.3516-.7402-.1172-.9551-.3516-.3223-.5273-.3223-.8789Zm2.3438,16.043h-2.168v-12.6797h2.168v12.6797Z" stroke-width="0"/><path d="m583.1016,428.5598c-.3281-.0547-.6836-.082-1.0664-.082-1.4219,0-2.3867.6055-2.8945,1.8164v9h-2.168v-12.6797h2.1094l.0352,1.4648c.7109-1.1328,1.7188-1.6992,3.0234-1.6992.4219,0,.7422.0547.9609.1641v2.0156Z" stroke-width="0"/><path d="m589.957,437.759c.7734,0,1.4492-.2344,2.0273-.7031s.8984-1.0547.9609-1.7578h2.0508c-.0391.7266-.2891,1.418-.75,2.0742s-1.0762,1.1797-1.8457,1.5703-1.584.5859-2.4434.5859c-1.7266,0-3.0996-.5762-4.1191-1.7285s-1.5293-2.7285-1.5293-4.7285v-.3633c0-1.2344.2266-2.332.6797-3.293s1.1035-1.707,1.9512-2.2383,1.8496-.7969,3.0059-.7969c1.4219,0,2.6035.4258,3.5449,1.2773s1.4434,1.957,1.5059,3.3164h-2.0508c-.0625-.8203-.373-1.4941-.9316-2.0215s-1.248-.791-2.0684-.791c-1.1016,0-1.9551.3965-2.5605,1.1895s-.9082,1.9395-.9082,3.4395v.4102c0,1.4609.3008,2.5859.9023,3.375s1.4609,1.1836,2.5781,1.1836Z" stroke-width="0"/><path d="m605.2617,438.0402c-.8438.9922-2.082,1.4883-3.7148,1.4883-1.3516,0-2.3809-.3926-3.0879-1.1777s-1.0645-1.9473-1.0723-3.4863v-8.25h2.168v8.1914c0,1.9219.7812,2.8828,2.3438,2.8828,1.6562,0,2.7578-.6172,3.3047-1.8516v-9.2227h2.168v12.6797h-2.0625l-.0469-1.2539Z" stroke-width="0"/><path d="m610.6758,423.2512c0-.3516.1074-.6484.3223-.8906s.5332-.3633.9551-.3633.7422.1211.9609.3633.3281.5391.3281.8906-.1094.6445-.3281.8789-.5391.3516-.9609.3516-.7402-.1172-.9551-.3516-.3223-.5273-.3223-.8789Zm2.3438,16.043h-2.168v-12.6797h2.168v12.6797Z" stroke-width="0"/><path d="m619.4297,423.5441v3.0703h2.3672v1.6758h-2.3672v7.873c0,.5088.1055.8906.3164,1.1445s.5703.3809,1.0781.3809c.25,0,.5938-.0469,1.0312-.1406v1.748c-.5703.1553-1.125.2324-1.6641.2324-.9688,0-1.6992-.293-2.1914-.8789s-.7383-1.418-.7383-2.4961v-7.8633h-2.3086v-1.6758h2.3086v-3.0703h2.168Z" stroke-width="0"/><path d="m138.875,446.0637h-7.3945v6.0469h8.5898v1.8398h-10.8398v-17.0625h10.7227v1.8398h-8.4727v5.4961h7.3945v1.8398Z" stroke-width="0"/><path d="m144.8867,453.9504h-2.168v-18h2.168v18Z" stroke-width="0"/><path d="m153.6172,454.1848c-1.7188,0-3.1172-.5645-4.1953-1.6934s-1.6172-2.6387-1.6172-4.5293v-.3984c0-1.2578.2402-2.3809.7207-3.3691s1.1523-1.7617,2.0156-2.3203,1.7988-.8379,2.8066-.8379c1.6484,0,2.9297.543,3.8438,1.6289s1.3711,2.6406,1.3711,4.6641v.9023h-8.5898c.0312,1.25.3965,2.2598,1.0957,3.0293s1.5879,1.1543,2.666,1.1543c.7656,0,1.4141-.1562,1.9453-.4688s.9961-.7266,1.3945-1.2422l1.3242,1.0312c-1.0625,1.6328-2.6562,2.4492-4.7812,2.4492Zm-.2695-11.3672c-.875,0-1.6094.3184-2.2031.9551s-.9609,1.5293-1.1016,2.6777h6.3516v-.1641c-.0625-1.1016-.3594-1.9551-.8906-2.5605s-1.25-.9082-2.1562-.9082Z" stroke-width="0"/><path d="m166.1562,452.4152c.7734,0,1.4492-.2344,2.0273-.7031s.8984-1.0547.9609-1.7578h2.0508c-.0391.7266-.2891,1.418-.75,2.0742s-1.0762,1.1797-1.8457,1.5703-1.584.5859-2.4434.5859c-1.7266,0-3.0996-.5762-4.1191-1.7285s-1.5293-2.7285-1.5293-4.7285v-.3633c0-1.2344.2266-2.332.6797-3.293s1.1035-1.707,1.9512-2.2383,1.8496-.7969,3.0059-.7969c1.4219,0,2.6035.4258,3.5449,1.2773s1.4434,1.957,1.5059,3.3164h-2.0508c-.0625-.8203-.373-1.4941-.9316-2.0215s-1.248-.791-2.0684-.791c-1.1016,0-1.9551.3965-2.5605,1.1895s-.9082,1.9395-.9082,3.4395v.4102c0,1.4609.3008,2.5859.9023,3.375s1.4609,1.1836,2.5781,1.1836Z" stroke-width="0"/><path d="m176.5742,438.2004v3.0703h2.3672v1.6758h-2.3672v7.873c0,.5088.1055.8896.3164,1.1445.2109.2539.5703.3809,1.0781.3809.25,0,.5938-.0469,1.0312-.1406v1.748c-.5703.1543-1.125.2324-1.6641.2324-.9688,0-1.6992-.293-2.1914-.8789s-.7383-1.418-.7383-2.4961v-7.8633h-2.3086v-1.6758h2.3086v-3.0703h2.168Z" stroke-width="0"/><path d="m187.6016,443.216c-.3281-.0547-.6836-.082-1.0664-.082-1.4219,0-2.3867.6055-2.8945,1.8164v9h-2.168v-12.6797h2.1094l.0352,1.4648c.7109-1.1328,1.7188-1.6992,3.0234-1.6992.4219,0,.7422.0547.9609.1641v2.0156Z" stroke-width="0"/><path d="m188.7852,447.4933c0-1.2422.2441-2.3594.7324-3.3516s1.168-1.7578,2.0391-2.2969,1.8652-.8086,2.9824-.8086c1.7266,0,3.123.5977,4.1895,1.793s1.5996,2.7852,1.5996,4.7695v.1523c0,1.2344-.2363,2.3418-.709,3.3223s-1.1484,1.7441-2.0273,2.291-1.8887.8203-3.0293.8203c-1.7188,0-3.1113-.5977-4.1777-1.793s-1.5996-2.7773-1.5996-4.7461v-.1523Zm2.1797.2578c0,1.4062.3262,2.5352.9785,3.3867s1.5254,1.2773,2.6191,1.2773c1.1016,0,1.9766-.4316,2.625-1.2949s.9727-2.0723.9727-3.627c0-1.3906-.3301-2.5176-.9902-3.3809s-1.5371-1.2949-2.6309-1.2949c-1.0703,0-1.9336.4258-2.5898,1.2773s-.9844,2.0703-.9844,3.6562Z" stroke-width="0"/><path d="m205.0859,441.2707l.0586,1.4062c.9297-1.0938,2.1836-1.6406,3.7617-1.6406,1.7734,0,2.9805.6797,3.6211,2.0391.4219-.6094.9707-1.1016,1.6465-1.4766s1.4746-.5625,2.3965-.5625c2.7812,0,4.1953,1.4727,4.2422,4.418v8.4961h-2.168v-8.3672c0-.9062-.207-1.584-.6211-2.0332s-1.1094-.6738-2.0859-.6738c-.8047,0-1.4727.2402-2.0039.7207s-.8398,1.127-.9258,1.9395v8.4141h-2.1797v-8.3086c0-1.8438-.9023-2.7656-2.707-2.7656-1.4219,0-2.3945.6055-2.918,1.8164v9.2578h-2.168v-12.6797h2.0508Z" stroke-width="0"/><path d="m231.9102,453.9504c-.125-.25-.2266-.6953-.3047-1.3359-1.0078,1.0469-2.2109,1.5703-3.6094,1.5703-1.25,0-2.2754-.3535-3.0762-1.0605s-1.2012-1.6035-1.2012-2.6895c0-1.3203.502-2.3457,1.5059-3.0762s2.416-1.0957,4.2363-1.0957h2.1094v-.9961c0-.7578-.2266-1.3613-.6797-1.8105s-1.1211-.6738-2.0039-.6738c-.7734,0-1.4219.1953-1.9453.5859s-.7852.8633-.7852,1.418h-2.1797c0-.6328.2246-1.2441.6738-1.834s1.0586-1.0566,1.8281-1.4004,1.6152-.5156,2.5371-.5156c1.4609,0,2.6055.3652,3.4336,1.0957s1.2578,1.7363,1.2891,3.0176v5.8359c0,1.1641.1484,2.0898.4453,2.7773v.1875h-2.2734Zm-3.5977-1.6523c.6797,0,1.3242-.1758,1.9336-.5273s1.0508-.8086,1.3242-1.3711v-2.6016h-1.6992c-2.6562,0-3.9844.7773-3.9844,2.332,0,.6797.2266,1.2109.6797,1.5938s1.0352.5742,1.7461.5742Z" stroke-width="0"/><path d="m236.6211,447.5051c0-1.9766.457-3.5488,1.3711-4.7168s2.125-1.752,3.6328-1.752c1.5469,0,2.7539.5469,3.6211,1.6406l.1055-1.4062h1.9805v12.375c0,1.6406-.4863,2.9336-1.459,3.8789s-2.2793,1.418-3.9199,1.418c-.9141,0-1.8086-.1953-2.6836-.5859s-1.543-.9258-2.0039-1.6055l1.125-1.3008c.9297,1.1484,2.0664,1.7227,3.4102,1.7227,1.0547,0,1.877-.2969,2.4668-.8906s.8848-1.4297.8848-2.5078v-1.0898c-.8672,1-2.0508,1.5-3.5508,1.5-1.4844,0-2.6855-.5977-3.6035-1.793s-1.377-2.8242-1.377-4.8867Zm2.1797.2461c0,1.4297.293,2.5527.8789,3.3691s1.4062,1.2246,2.4609,1.2246c1.3672,0,2.3711-.6211,3.0117-1.8633v-5.7891c-.6641-1.2109-1.6602-1.8164-2.9883-1.8164-1.0547,0-1.8789.4102-2.4727,1.2305s-.8906,2.0352-.8906,3.6445Z" stroke-width="0"/><path d="m252.6523,441.2707l.0703,1.5938c.9688-1.2188,2.2344-1.8281,3.7969-1.8281,2.6797,0,4.0312,1.5117,4.0547,4.5352v8.3789h-2.168v-8.3906c-.0078-.9141-.2168-1.5898-.627-2.0273s-1.0488-.6562-1.916-.6562c-.7031,0-1.3203.1875-1.8516.5625s-.9453.8672-1.2422,1.4766v9.0352h-2.168v-12.6797h2.0508Z" stroke-width="0"/><path d="m269.1055,454.1848c-1.7188,0-3.1172-.5645-4.1953-1.6934s-1.6172-2.6387-1.6172-4.5293v-.3984c0-1.2578.2402-2.3809.7207-3.3691s1.1523-1.7617,2.0156-2.3203,1.7988-.8379,2.8066-.8379c1.6484,0,2.9297.543,3.8438,1.6289s1.3711,2.6406,1.3711,4.6641v.9023h-8.5898c.0312,1.25.3965,2.2598,1.0957,3.0293s1.5879,1.1543,2.666,1.1543c.7656,0,1.4141-.1562,1.9453-.4688s.9961-.7266,1.3945-1.2422l1.3242,1.0312c-1.0625,1.6328-2.6562,2.4492-4.7812,2.4492Zm-.2695-11.3672c-.875,0-1.6094.3184-2.2031.9551s-.9609,1.5293-1.1016,2.6777h6.3516v-.1641c-.0625-1.1016-.3594-1.9551-.8906-2.5605s-1.25-.9082-2.1562-.9082Z" stroke-width="0"/><path d="m279.5,438.2004v3.0703h2.3672v1.6758h-2.3672v7.873c0,.5088.1055.8896.3164,1.1445.2109.2539.5703.3809,1.0781.3809.25,0,.5938-.0469,1.0312-.1406v1.748c-.5703.1543-1.125.2324-1.6641.2324-.9688,0-1.6992-.293-2.1914-.8789s-.7383-1.418-.7383-2.4961v-7.8633h-2.3086v-1.6758h2.3086v-3.0703h2.168Z" stroke-width="0"/><path d="m624.3955,583.6047h-2.1797v-14.4492l-4.3711,1.6055v-1.9688l6.2109-2.332h.3398v17.1445Z" stroke-width="0"/><path d="m638.3525,580.2414c0-.5859-.2207-1.041-.6621-1.3652s-1.2109-.6035-2.3086-.8379-1.9688-.5156-2.6133-.8438-1.1211-.7188-1.4297-1.1719-.4629-.9922-.4629-1.6172c0-1.0391.4395-1.918,1.3184-2.6367s2.002-1.0781,3.3691-1.0781c1.4375,0,2.6035.3711,3.498,1.1133s1.3418,1.6914,1.3418,2.8477h-2.1797c0-.5938-.252-1.1055-.7559-1.5352s-1.1387-.6445-1.9043-.6445c-.7891,0-1.4062.1719-1.8516.5156s-.668.793-.668,1.3477c0,.5234.207.918.6211,1.1836s1.1621.5195,2.2441.7617,1.959.5312,2.6309.8672,1.1699.7402,1.4941,1.2129.4863,1.0488.4863,1.7285c0,1.1328-.4531,2.041-1.3594,2.7246s-2.082,1.0254-3.5273,1.0254c-1.0156,0-1.9141-.1797-2.6953-.5391s-1.3926-.8613-1.834-1.5059-.6621-1.3418-.6621-2.0918h2.168c.0391.7266.3301,1.3027.873,1.7285s1.2598.6387,2.1504.6387c.8203,0,1.4785-.166,1.9746-.498s.7441-.7754.7441-1.3301Z" stroke-width="0"/><path d="m646.2861,567.8547v3.0703h2.3672v1.6758h-2.3672v7.873c0,.5088.1055.8896.3164,1.1445.2109.2539.5703.3809,1.0781.3809.25,0,.5938-.0469,1.0312-.1406v1.748c-.5703.1543-1.125.2324-1.6641.2324-.9688,0-1.6992-.293-2.1914-.8789s-.7383-1.418-.7383-2.4961v-7.8633h-2.3086v-1.6758h2.3086v-3.0703h2.168Z" stroke-width="0"/><path d="m664.5088,580.2414c0-.5859-.2207-1.041-.6621-1.3652s-1.2109-.6035-2.3086-.8379-1.9688-.5156-2.6133-.8438-1.1211-.7188-1.4297-1.1719-.4629-.9922-.4629-1.6172c0-1.0391.4395-1.918,1.3184-2.6367s2.002-1.0781,3.3691-1.0781c1.4375,0,2.6035.3711,3.498,1.1133s1.3418,1.6914,1.3418,2.8477h-2.1797c0-.5938-.252-1.1055-.7559-1.5352s-1.1387-.6445-1.9043-.6445c-.7891,0-1.4062.1719-1.8516.5156s-.668.793-.668,1.3477c0,.5234.207.918.6211,1.1836s1.1621.5195,2.2441.7617,1.959.5312,2.6309.8672,1.1699.7402,1.4941,1.2129.4863,1.0488.4863,1.7285c0,1.1328-.4531,2.041-1.3594,2.7246s-2.082,1.0254-3.5273,1.0254c-1.0156,0-1.9141-.1797-2.6953-.5391s-1.3926-.8613-1.834-1.5059-.6621-1.3418-.6621-2.0918h2.168c.0391.7266.3301,1.3027.873,1.7285s1.2598.6387,2.1504.6387c.8203,0,1.4785-.166,1.9746-.498s.7441-.7754.7441-1.3301Z" stroke-width="0"/><path d="m680.7275,580.6164l2.4375-9.6914h2.168l-3.6914,12.6797h-1.7578l-3.082-9.6094-3,9.6094h-1.7578l-3.6797-12.6797h2.1562l2.4961,9.4922,2.9531-9.4922h1.7461l3.0117,9.6914Z" stroke-width="0"/><path d="m687.5479,567.5617c0-.3516.1074-.6484.3223-.8906s.5332-.3633.9551-.3633.7422.1211.9609.3633.3281.5391.3281.8906-.1094.6445-.3281.8789-.5391.3516-.9609.3516-.7402-.1172-.9551-.3516-.3223-.5273-.3223-.8789Zm2.3438,16.043h-2.168v-12.6797h2.168v12.6797Z" stroke-width="0"/><path d="m696.3018,567.8547v3.0703h2.3672v1.6758h-2.3672v7.873c0,.5088.1055.8896.3164,1.1445.2109.2539.5703.3809,1.0781.3809.25,0,.5938-.0469,1.0312-.1406v1.748c-.5703.1543-1.125.2324-1.6641.2324-.9688,0-1.6992-.293-2.1914-.8789s-.7383-1.418-.7383-2.4961v-7.8633h-2.3086v-1.6758h2.3086v-3.0703h2.168Z" stroke-width="0"/><path d="m706.2861,582.0695c.7734,0,1.4492-.2344,2.0273-.7031s.8984-1.0547.9609-1.7578h2.0508c-.0391.7266-.2891,1.418-.75,2.0742s-1.0762,1.1797-1.8457,1.5703-1.584.5859-2.4434.5859c-1.7266,0-3.0996-.5762-4.1191-1.7285s-1.5293-2.7285-1.5293-4.7285v-.3633c0-1.2344.2266-2.332.6797-3.293s1.1035-1.707,1.9512-2.2383,1.8496-.7969,3.0059-.7969c1.4219,0,2.6035.4258,3.5449,1.2773s1.4434,1.957,1.5059,3.3164h-2.0508c-.0625-.8203-.373-1.4941-.9316-2.0215s-1.248-.791-2.0684-.791c-1.1016,0-1.9551.3965-2.5605,1.1895s-.9082,1.9395-.9082,3.4395v.4102c0,1.4609.3008,2.5859.9023,3.375s1.4609,1.1836,2.5781,1.1836Z" stroke-width="0"/><path d="m715.9307,572.4601c.9609-1.1797,2.2109-1.7695,3.75-1.7695,2.6797,0,4.0312,1.5117,4.0547,4.5352v8.3789h-2.168v-8.3906c-.0078-.9141-.2168-1.5898-.627-2.0273s-1.0488-.6562-1.916-.6562c-.7031,0-1.3203.1875-1.8516.5625s-.9453.8672-1.2422,1.4766v9.0352h-2.168v-18h2.168v6.8555Z" stroke-width="0"/><line x1="670.5968" y1="558.1131" x2="690.6128" y2="518.7395" fill="none" stroke="#000" stroke-miterlimit="10" stroke-width="2"/><line x1="890.5281" y1="101.8775" x2="880.5201" y2="145.6067" fill="none" stroke="#000" stroke-miterlimit="10" stroke-width="2"/><line x1="286.6084" y1="123.7421" x2="420.078" y2="175.681" fill="none" stroke="#000" stroke-miterlimit="10" stroke-width="2"/><line x1="359.6745" y1="363.8264" x2="291.8568" y2="444.2984" fill="none" stroke="#000" stroke-miterlimit="10" stroke-width="2"/><path d="m53.9575,281.7888h-2.25v-17.0625h2.25v17.0625Z" stroke-width="0"/><path d="m63.8599,271.0544c-.3281-.0547-.6836-.082-1.0664-.082-1.4219,0-2.3867.6055-2.8945,1.8164v9h-2.168v-12.6797h2.1094l.0352,1.4648c.7109-1.1328,1.7188-1.6992,3.0234-1.6992.4219,0,.7422.0547.9609.1641v2.0156Z" stroke-width="0"/><path d="m65.0435,275.3317c0-1.2422.2441-2.3594.7324-3.3516s1.168-1.7578,2.0391-2.2969,1.8652-.8086,2.9824-.8086c1.7266,0,3.123.5977,4.1895,1.793s1.5996,2.7852,1.5996,4.7695v.1523c0,1.2344-.2363,2.3418-.709,3.3223s-1.1484,1.7441-2.0273,2.291-1.8887.8203-3.0293.8203c-1.7188,0-3.1113-.5977-4.1777-1.793s-1.5996-2.7773-1.5996-4.7461v-.1523Zm2.1797.2578c0,1.4062.3262,2.5352.9785,3.3867s1.5254,1.2773,2.6191,1.2773c1.1016,0,1.9766-.4316,2.625-1.2949s.9727-2.0723.9727-3.627c0-1.3906-.3301-2.5176-.9902-3.3809s-1.5371-1.2949-2.6309-1.2949c-1.0703,0-1.9336.4258-2.5898,1.2773s-.9844,2.0703-.9844,3.6562Z" stroke-width="0"/><path d="m81.356,269.1091l.0703,1.5938c.9688-1.2188,2.2344-1.8281,3.7969-1.8281,2.6797,0,4.0312,1.5117,4.0547,4.5352v8.3789h-2.168v-8.3906c-.0078-.9141-.2168-1.5898-.627-2.0273s-1.0488-.6562-1.916-.6562c-.7031,0-1.3203.1875-1.8516.5625s-.9453.8672-1.2422,1.4766v9.0352h-2.168v-12.6797h2.0508Z" stroke-width="0"/><path d="m106.3169,281.7888c-.125-.25-.2266-.6953-.3047-1.3359-1.0078,1.0469-2.2109,1.5703-3.6094,1.5703-1.25,0-2.2754-.3535-3.0762-1.0605s-1.2012-1.6035-1.2012-2.6895c0-1.3203.502-2.3457,1.5059-3.0762s2.416-1.0957,4.2363-1.0957h2.1094v-.9961c0-.7578-.2266-1.3613-.6797-1.8105s-1.1211-.6738-2.0039-.6738c-.7734,0-1.4219.1953-1.9453.5859s-.7852.8633-.7852,1.418h-2.1797c0-.6328.2246-1.2441.6738-1.834s1.0586-1.0566,1.8281-1.4004,1.6152-.5156,2.5371-.5156c1.4609,0,2.6055.3652,3.4336,1.0957s1.2578,1.7363,1.2891,3.0176v5.8359c0,1.1641.1484,2.0898.4453,2.7773v.1875h-2.2734Zm-3.5977-1.6523c.6797,0,1.3242-.1758,1.9336-.5273s1.0508-.8086,1.3242-1.3711v-2.6016h-1.6992c-2.6562,0-3.9844.7773-3.9844,2.332,0,.6797.2266,1.2109.6797,1.5938s1.0352.5742,1.7461.5742Z" stroke-width="0"/><path d="m117.6724,271.0544c-.3281-.0547-.6836-.082-1.0664-.082-1.4219,0-2.3867.6055-2.8945,1.8164v9h-2.168v-12.6797h2.1094l.0352,1.4648c.7109-1.1328,1.7188-1.6992,3.0234-1.6992.4219,0,.7422.0547.9609.1641v2.0156Z" stroke-width="0"/><path d="m121.7036,269.1091l.0586,1.4062c.9297-1.0938,2.1836-1.6406,3.7617-1.6406,1.7734,0,2.9805.6797,3.6211,2.0391.4219-.6094.9707-1.1016,1.6465-1.4766s1.4746-.5625,2.3965-.5625c2.7812,0,4.1953,1.4727,4.2422,4.418v8.4961h-2.168v-8.3672c0-.9062-.207-1.584-.6211-2.0332s-1.1094-.6738-2.0859-.6738c-.8047,0-1.4727.2402-2.0039.7207s-.8398,1.127-.9258,1.9395v8.4141h-2.1797v-8.3086c0-1.8438-.9023-2.7656-2.707-2.7656-1.4219,0-2.3945.6055-2.918,1.8164v9.2578h-2.168v-12.6797h2.0508Z" stroke-width="0"/><path d="m148.5278,281.7888c-.125-.25-.2266-.6953-.3047-1.3359-1.0078,1.0469-2.2109,1.5703-3.6094,1.5703-1.25,0-2.2754-.3535-3.0762-1.0605s-1.2012-1.6035-1.2012-2.6895c0-1.3203.502-2.3457,1.5059-3.0762s2.416-1.0957,4.2363-1.0957h2.1094v-.9961c0-.7578-.2266-1.3613-.6797-1.8105s-1.1211-.6738-2.0039-.6738c-.7734,0-1.4219.1953-1.9453.5859s-.7852.8633-.7852,1.418h-2.1797c0-.6328.2246-1.2441.6738-1.834s1.0586-1.0566,1.8281-1.4004,1.6152-.5156,2.5371-.5156c1.4609,0,2.6055.3652,3.4336,1.0957s1.2578,1.7363,1.2891,3.0176v5.8359c0,1.1641.1484,2.0898.4453,2.7773v.1875h-2.2734Zm-3.5977-1.6523c.6797,0,1.3242-.1758,1.9336-.5273s1.0508-.8086,1.3242-1.3711v-2.6016h-1.6992c-2.6562,0-3.9844.7773-3.9844,2.332,0,.6797.2266,1.2109.6797,1.5938s1.0352.5742,1.7461.5742Z" stroke-width="0"/><path d="m156.6958,266.0388v3.0703h2.3672v1.6758h-2.3672v7.873c0,.5088.1055.8896.3164,1.1445.2109.2539.5703.3809,1.0781.3809.25,0,.5938-.0469,1.0312-.1406v1.748c-.5703.1543-1.125.2324-1.6641.2324-.9688,0-1.6992-.293-2.1914-.8789s-.7383-1.418-.7383-2.4961v-7.8633h-2.3086v-1.6758h2.3086v-3.0703h2.168Z" stroke-width="0"/><path d="m169.4224,280.5349c-.8438.9922-2.082,1.4883-3.7148,1.4883-1.3516,0-2.3809-.3926-3.0879-1.1777s-1.0645-1.9473-1.0723-3.4863v-8.25h2.168v8.1914c0,1.9219.7812,2.8828,2.3438,2.8828,1.6562,0,2.7578-.6172,3.3047-1.8516v-9.2227h2.168v12.6797h-2.0625l-.0469-1.2539Z" stroke-width="0"/><path d="m180.9536,271.0544c-.3281-.0547-.6836-.082-1.0664-.082-1.4219,0-2.3867.6055-2.8945,1.8164v9h-2.168v-12.6797h2.1094l.0352,1.4648c.7109-1.1328,1.7188-1.6992,3.0234-1.6992.4219,0,.7422.0547.9609.1641v2.0156Z" stroke-width="0"/><path d="m188.2075,282.0231c-1.7188,0-3.1172-.5645-4.1953-1.6934s-1.6172-2.6387-1.6172-4.5293v-.3984c0-1.2578.2402-2.3809.7207-3.3691s1.1523-1.7617,2.0156-2.3203,1.7988-.8379,2.8066-.8379c1.6484,0,2.9297.543,3.8438,1.6289s1.3711,2.6406,1.3711,4.6641v.9023h-8.5898c.0312,1.25.3965,2.2598,1.0957,3.0293s1.5879,1.1543,2.666,1.1543c.7656,0,1.4141-.1562,1.9453-.4688s.9961-.7266,1.3945-1.2422l1.3242,1.0312c-1.0625,1.6328-2.6562,2.4492-4.7812,2.4492Zm-.2695-11.3672c-.875,0-1.6094.3184-2.2031.9551s-.9609,1.5293-1.1016,2.6777h6.3516v-.1641c-.0625-1.1016-.3594-1.9551-.8906-2.5605s-1.25-.9082-2.1562-.9082Z" stroke-width="0"/><line x1="199.1011" y1="276.2012" x2="285.1138" y2="297.3369" fill="none" stroke="#000" stroke-miterlimit="10" stroke-width="2"/><rect x="402.8581" y="281.7887" width="21.0888" height="15.5482" fill="#a37a5e" stroke-width="0"/><rect x="445.0723" y="281.7887" width="21.0888" height="15.5482" fill="#a37a5e" stroke-width="0"/><rect x="484.4176" y="281.7887" width="21.0888" height="15.5482" fill="#a37a5e" stroke-width="0"/><rect x="526.6318" y="281.7887" width="21.0888" height="15.5482" fill="#a37a5e" stroke-width="0"/><rect x="565.0651" y="281.7887" width="21.0888" height="15.5482" fill="#a37a5e" stroke-width="0"/><rect x="607.2792" y="281.7887" width="21.0888" height="15.5482" fill="#a37a5e" stroke-width="0"/><rect x="643.3981" y="281.7887" width="21.0888" height="15.5482" fill="#a37a5e" stroke-width="0"/><rect x="685.6123" y="281.7887" width="21.0888" height="15.5482" fill="#a37a5e" stroke-width="0"/><rect x="723.8003" y="281.7887" width="21.0888" height="15.5482" fill="#a37a5e" stroke-width="0"/><rect x="766.0145" y="281.7887" width="21.0888" height="15.5482" fill="#a37a5e" stroke-width="0"/><rect x="402.8581" y="281.7887" width="21.0888" height="15.5482" fill="#697b82" stroke-width="0"/><rect x="445.0723" y="281.7887" width="21.0888" height="15.5482" fill="#697b82" stroke-width="0"/><rect x="484.4176" y="281.7887" width="21.0888" height="15.5482" fill="#697b82" stroke-width="0"/><rect x="526.6318" y="281.7887" width="21.0888" height="15.5482" fill="#697b82" stroke-width="0"/><rect x="565.0651" y="281.7887" width="21.0888" height="15.5482" fill="#697b82" stroke-width="0"/><rect x="607.2792" y="281.7887" width="21.0888" height="15.5482" fill="#697b82" stroke-width="0"/><rect x="643.3981" y="281.7887" width="21.0888" height="15.5482" fill="#697b82" stroke-width="0"/><rect x="685.6123" y="281.7887" width="21.0888" height="15.5482" fill="#697b82" stroke-width="0"/><rect x="723.8003" y="281.7887" width="21.0888" height="15.5482" fill="#697b82" stroke-width="0"/><rect x="766.0145" y="281.7887" width="21.0888" height="15.5482" fill="#697b82" stroke-width="0"/><rect x="392.8501" y="366.1243" width="21.0888" height="15.5482" fill="#697b82" stroke-width="0"/><rect x="435.0643" y="366.1243" width="21.0888" height="15.5482" fill="#697b82" stroke-width="0"/><rect x="474.4096" y="366.1243" width="21.0888" height="15.5482" fill="#697b82" stroke-width="0"/><rect x="516.6238" y="366.1243" width="21.0888" height="15.5482" fill="#697b82" stroke-width="0"/><rect x="555.0571" y="366.1243" width="21.0888" height="15.5482" fill="#697b82" stroke-width="0"/><rect x="597.2712" y="366.1243" width="21.0888" height="15.5482" fill="#697b82" stroke-width="0"/><rect x="633.3901" y="366.1243" width="21.0888" height="15.5482" fill="#697b82" stroke-width="0"/><rect x="675.6043" y="366.1243" width="21.0888" height="15.5482" fill="#697b82" stroke-width="0"/><rect x="713.7923" y="366.1243" width="21.0888" height="15.5482" fill="#697b82" stroke-width="0"/><rect x="756.0065" y="366.1243" width="21.0888" height="15.5482" fill="#697b82" stroke-width="0"/><path d="m798.0356,382.4481c-2.3227-32.8989-2.304-66.5568-.0003-99.4558.0003,0,.2003,0,.2003,0-.1061,24.6589.4786,75.2072-.2,99.4558h0Z" fill="#3c464a" stroke-width="0"/><path d="m743.0594,208.8125c11.2719-1.3405,23.1175-1.6345,34.4888-1.699,11.3771.0713,23.2079.3659,34.4888,1.699,0,0,0,.2,0,.2-17.062-.1057-52.3242.4781-68.9775-.2h0Z" fill="#5c4c34" stroke-width="0"/></svg>