<?xml version="1.0" encoding="UTF-8"?><svg id="a" xmlns="http://www.w3.org/2000/svg" width="570" height="350" xmlns:xlink="http://www.w3.org/1999/xlink" viewBox="0 0 570 350"><defs><clipPath id="b"><path d="m564.658,191.514c9.271,179.512-172.15,156.486-303.138,156.486S5,332.918,5,223.419,96.592,18.694,227.127,7.162c51.591-4.558,325.356-51.394,337.532,184.352Z" fill="none"/></clipPath><clipPath id="c"><path d="m582.527,158.486C580.88-1.858,754.779,3,885.844,3s256.672,14.082,256.672,123.581-91.646,205.725-222.258,217.257c-51.621,4.558-335.306,50.689-337.731-185.352Z" fill="none"/></clipPath></defs><path d="m564.658,191.514c9.271,179.512-172.15,156.486-303.138,156.486S5,332.918,5,223.419,96.592,18.694,227.127,7.162c51.591-4.558,325.356-51.394,337.532,184.352Z" fill="#fcdbd2"/><path d="m285,75c70.416,0,127.5,44.771,127.5,100" fill="none" stroke="#000" stroke-linecap="round" stroke-miterlimit="10" stroke-width="2"/><polygon points="404.522 172.666 412.5 186.482 420.478 172.666 404.522 172.666"/><path d="m157.5,175c0-55.229,57.084-100,127.5-100" fill="none" stroke="#000" stroke-linecap="round" stroke-miterlimit="10" stroke-width="2"/><polygon points="282.666 82.978 296.482 75 282.666 67.022 282.666 82.978"/><path d="m285,275c-70.416,0-127.5-44.771-127.5-100" fill="none" stroke="#000" stroke-linecap="round" stroke-miterlimit="10" stroke-width="2"/><polygon points="165.478 177.334 157.5 163.518 149.522 177.334 165.478 177.334"/><path d="m412.5,175c0,55.229-57.084,100-127.5,100" fill="none" stroke="#000" stroke-linecap="round" stroke-miterlimit="10" stroke-width="2"/><polygon points="287.334 267.022 273.518 275 287.334 282.978 287.334 267.022"/><line x1="196.358" y1="146.705" x2="282.758" y2="146.705" fill="none" stroke="#000" stroke-miterlimit="10" stroke-width="2"/><polygon points="280.424 154.683 294.24 146.705 280.424 138.727 280.424 154.683"/><line x1="281.242" y1="146.705" x2="367.642" y2="146.705" fill="none" stroke="#000" stroke-miterlimit="10" stroke-width="2"/><polygon points="365.308 154.683 379.124 146.705 365.308 138.727 365.308 154.683"/><line x1="196.358" y1="175" x2="282.758" y2="175" fill="none" stroke="#000" stroke-miterlimit="10" stroke-width="2"/><polygon points="280.424 182.978 294.24 175 280.424 167.022 280.424 182.978"/><line x1="281.242" y1="175" x2="367.642" y2="175" fill="none" stroke="#000" stroke-miterlimit="10" stroke-width="2"/><polygon points="365.308 182.978 379.124 175 365.308 167.022 365.308 182.978"/><line x1="196.358" y1="203.295" x2="282.758" y2="203.295" fill="none" stroke="#000" stroke-miterlimit="10" stroke-width="2"/><polygon points="280.424 211.273 294.24 203.295 280.424 195.317 280.424 211.273"/><line x1="281.242" y1="203.295" x2="367.642" y2="203.295" fill="none" stroke="#000" stroke-miterlimit="10" stroke-width="2"/><polygon points="365.308 211.273 379.124 203.295 365.308 195.317 365.308 211.273"/><g clip-path="url(#b)"><rect x="26.055" y="27.291" width="102.406" height="295.42" transform="translate(252.263 97.75) rotate(90.002)" fill="#d12d32"/><rect x="445.926" y="31.676" width="102.406" height="286.645" transform="translate(672.149 -322.124) rotate(90.002)" fill="#969696"/><circle cx="400.684" cy="175.247" r="30" fill="#fff" stroke="#000" stroke-miterlimit="10" stroke-width="2"/><circle cx="176.347" cy="175.247" r="30" fill="#fff" stroke="#000" stroke-miterlimit="10" stroke-width="2"/><path d="m403.662,179.96c0-.774-.273-1.369-.82-1.784s-1.531-.853-2.953-1.312-2.548-.914-3.377-1.36c-2.261-1.222-3.391-2.866-3.391-4.936,0-1.075.303-2.035.909-2.878.606-.843,1.477-1.502,2.611-1.976s2.408-.711,3.821-.711c1.422,0,2.688.258,3.801.772,1.112.515,1.976,1.242,2.591,2.181s.923,2.005.923,3.199h-4.102c0-.911-.287-1.62-.861-2.126s-1.381-.759-2.42-.759c-1.003,0-1.782.212-2.338.636-.556.424-.834.982-.834,1.675,0,.647.326,1.189.978,1.627.651.438,1.611.848,2.878,1.23,2.333.702,4.033,1.572,5.1,2.611s1.6,2.333,1.6,3.883c0,1.723-.652,3.074-1.955,4.054-1.304.979-3.058,1.47-5.264,1.47-1.531,0-2.926-.28-4.184-.841s-2.217-1.328-2.878-2.304c-.661-.976-.991-2.105-.991-3.391h4.115c0,2.196,1.312,3.295,3.938,3.295.975,0,1.736-.198,2.283-.595s.82-.95.82-1.661Z"/><path d="m184.438,185.182h-4.102l-7.984-13.098v13.098h-4.102v-19.906h4.102l7.998,13.125v-13.125h4.088v19.906Z"/></g><g clip-path="url(#c)"><rect x="603.571" y="27.291" width="102.406" height="295.42" transform="translate(829.803 -479.765) rotate(90.002)" fill="#d12d32"/></g></svg>