<svg xmlns="http://www.w3.org/2000/svg" width="570" height="381" viewBox="0 0 570 381"><defs><style>.a{fill:#f2edf7;}.b{fill:none;stroke-linecap:square;}.b,.c{stroke:#000;stroke-miterlimit:10;stroke-width:2px;}.c{fill:#fff;}.d{fill:#231f20;}</style></defs><path class="a" d="M5.218,239c-6.282-39.331,8.834-104.83,46.348-139.969,44.3-41.5,136.92-93.044,245.476-94.1,110.78-1.083,176.36,47.039,203.767,70.56,28.008,24.037,60.144,85.108,64.1,126.939,4.913,51.981-2.817,108.594-55.49,142.972-19.666,12.835-101.387,15.959-175.373,17.954-33.342.9-203.25,34.245-282.927-22.609C19.579,318.24,11.916,280.935,5.218,239Z"/><circle class="a" cx="291.752" cy="188.396" r="99.094"/><path class="b" d="M303.9,90.049a99,99,0,1,1-14.337-.736"/><polygon points="286.253 99.343 303.898 90.049 287.028 79.413 286.253 99.343"/><circle class="c" cx="291.629" cy="189.396" r="37.719"/><path class="d" d="M308.227,203.311l-2.733,2.79L291.716,192.38,278,206.1l-2.732-2.732,13.662-13.779-13.662-13.721,2.791-2.732L291.716,186.8l13.778-13.662,2.733,2.674L294.564,189.59Z"/></svg>