<?xml version="1.0" encoding="UTF-8"?>
<svg id="Layer_2" data-name="Layer 2" xmlns="http://www.w3.org/2000/svg" xmlns:xlink="http://www.w3.org/1999/xlink" viewBox="0 0 1140 626.826">
  <defs>
    <style>
      .cls-1 {
        clip-path: url(#clippath);
      }

      .cls-2, .cls-3, .cls-4, .cls-5 {
        fill: none;
      }

      .cls-2, .cls-6, .cls-7, .cls-8, .cls-9, .cls-10, .cls-11, .cls-12 {
        stroke-width: 0px;
      }

      .cls-3 {
        stroke: #000;
      }

      .cls-3, .cls-4 {
        stroke-miterlimit: 10;
        stroke-width: 2px;
      }

      .cls-3, .cls-5 {
        stroke-linecap: round;
      }

      .cls-4 {
        stroke: #b61532;
      }

      .cls-5 {
        stroke: #d3a122;
        stroke-linejoin: round;
        stroke-width: 7px;
      }

      .cls-7 {
        fill: #562323;
      }

      .cls-8 {
        fill: #c87550;
      }

      .cls-9 {
        fill: #aabfbb;
      }

      .cls-10 {
        fill: #b61532;
      }

      .cls-11 {
        fill: #bacecb;
      }

      .cls-12 {
        fill: #fff0cc;
      }
    </style>
    <clipPath id="clippath">
      <path class="cls-2" d="m1132.321,319.054c-.066-391.597-280.949-301.552-582.364-301.552S19.825-65.399,19.845,314.969c.02,389.593,248.353,292.662,549.769,292.662s562.772,95.987,562.708-288.577Z"/>
    </clipPath>
  </defs>
  <g id="maal5_01.201a">
    <path class="cls-12" d="m1132.321,319.054c-.066-391.597-280.949-301.552-582.364-301.552S19.825-65.399,19.845,314.969c.02,389.593,248.353,292.662,549.769,292.662s562.772,95.987,562.708-288.577Z"/>
  </g>
  <g class="cls-1">
    <g>
      <g>
        <g>
          <path class="cls-8" d="m524.232,281.349l153.77-169.553s173.028,104.625,173.947,125.889c2.37,54.811-68.228,150.209-77.756,159.286-9.528,9.077-206.439,7.487-206.439,7.487,0,0-71.054-33.906-72.526-46.727-3.096-26.959,29.503-84.51,29.003-76.382h0Z"/>
          <path class="cls-7" d="m519.046,311.804h0c-.071.002-.132-.04-.152-.111-.02-.079.026-.159.105-.179,1.652-.432,3.354-.539,5.023-.622,5.003-.183,9.989.274,14.97.564,17.42,1.214,37.286,2.54,54.614,2.996,1.656.061,3.314.142,4.985.315.171.009.176.267.018.293-6.604,1.292-13.313,1.13-19.961,1.01-6.66-.126-13.308-.464-19.944-.887-13.004-.901-26.676-2.11-39.658-3.379h0Z"/>
          <path class="cls-8" d="m678.001,111.796l167.982,144.781,292.077-199.889s-154.484-188.697-210.836-146.976c-61.33,45.408-249.223,202.083-249.223,202.083h0Z"/>
        </g>
        <g>
          <path class="cls-8" d="m457.074,466.305c-2.74,5.573,18.493,34.709,29.451,42.851,11.708,8.7,32.964,15.312,46.45,7.266,10.492-6.26,62.045-70.571,55.935-84.323-6.111-13.754-31.682-22.251-40.986-22.477-9.303-.225-87.249,49.358-90.85,56.683h0Z"/>
          <path class="cls-8" d="m497.854,335.495s23.626,14.887,29.963,19.337c6.337,4.45,30.276,40.097,30.276,40.097,0,0-21.295,32.441-23.915,34.304-2.619,1.862-5.255,82.362-5.255,82.362,0,0-24.918.743-46.668-17.686-21.75-18.43-29.211-16.733-22.516-44.286,2.586-10.64,35.149-109.903,38.116-114.127h-.001Z"/>
          <g>
            <g>
              <line class="cls-5" x1="239.699" y1="378.871" x2="239.699" y2="559.276"/>
              <path class="cls-11" d="m896.675,287.246H173.694v183.249h722.981c21.991,0,39.818-41.022,39.818-91.624s-17.827-91.624-39.818-91.624Z"/>
              <ellipse class="cls-9" cx="173.694" cy="378.871" rx="39.818" ry="91.624"/>
              <path class="cls-5" d="m274.188,287.246c21.991,0,39.818,41.022,39.818,91.624s-17.827,91.624-39.818,91.624"/>
              <path class="cls-5" d="m331.992,287.246c21.991,0,39.818,41.022,39.818,91.624s-17.827,91.624-39.818,91.624"/>
              <path class="cls-5" d="m389.797,287.246c21.991,0,39.818,41.022,39.818,91.624s-17.827,91.624-39.818,91.624"/>
              <path class="cls-5" d="m447.601,287.246c21.991,0,39.818,41.022,39.818,91.624s-17.827,91.624-39.818,91.624"/>
              <path class="cls-5" d="m505.406,287.246c21.991,0,39.818,41.022,39.818,91.624s-17.827,91.624-39.818,91.624"/>
              <path class="cls-5" d="m563.211,287.246c21.991,0,39.818,41.022,39.818,91.624s-17.827,91.624-39.818,91.624"/>
              <path class="cls-5" d="m621.015,287.246c21.991,0,39.818,41.022,39.818,91.624s-17.827,91.624-39.818,91.624"/>
              <path class="cls-5" d="m678.82,287.246c21.991,0,39.818,41.022,39.818,91.624s-17.827,91.624-39.818,91.624"/>
              <path class="cls-5" d="m736.624,287.246c21.991,0,39.818,41.022,39.818,91.624s-17.827,91.624-39.818,91.624"/>
              <g>
                <path class="cls-5" d="m794.429,287.246c21.991,0,39.818,41.022,39.818,91.624v180.406"/>
                <g>
                  <path class="cls-4" d="m834.247,510.208v31.175"/>
                  <polygon class="cls-10" points="826.269 512.544 834.247 498.727 842.225 512.544 826.269 512.544"/>
                </g>
                <g>
                  <path class="cls-4" d="m239.699,529.903v-31.175"/>
                  <polygon class="cls-10" points="247.678 527.567 239.699 541.383 231.721 527.567 247.678 527.567"/>
                </g>
              </g>
            </g>
            <path class="cls-6" d="m986.31,388.035c0-1.21-.428-2.14-1.282-2.788-.854-.647-2.393-1.332-4.615-2.051-2.222-.72-3.981-1.428-5.277-2.126-3.532-1.909-5.299-4.479-5.299-7.713,0-1.681.474-3.18,1.421-4.498.947-1.317,2.308-2.346,4.081-3.087,1.773-.74,3.764-1.111,5.972-1.111,2.222,0,4.202.403,5.939,1.207,1.738.805,3.088,1.941,4.049,3.408.962,1.467,1.442,3.134,1.442,5h-6.409c0-1.424-.449-2.532-1.347-3.322s-2.158-1.186-3.781-1.186c-1.567,0-2.785.331-3.654.994-.868.662-1.303,1.535-1.303,2.617,0,1.012.509,1.859,1.527,2.542s2.518,1.325,4.498,1.923c3.646,1.097,6.303,2.457,7.969,4.081,1.667,1.624,2.5,3.646,2.5,6.068,0,2.691-1.019,4.804-3.055,6.335-2.037,1.531-4.779,2.297-8.227,2.297-2.393,0-4.572-.438-6.538-1.314s-3.465-2.076-4.497-3.601c-1.033-1.523-1.549-3.29-1.549-5.298h6.431c0,3.433,2.051,5.148,6.153,5.148,1.524,0,2.714-.31,3.568-.929.854-.62,1.282-1.485,1.282-2.597Z"/>
            <path class="cls-6" d="m98.584,396.197h-6.41l-12.478-20.469v20.469h-6.41v-31.109h6.41l12.499,20.511v-20.511h6.388v31.109Z"/>
            <g>
              <path class="cls-6" d="m608.084,579.143c-.264,2.256-1.097,3.997-2.498,5.223s-3.264,1.838-5.588,1.838c-2.52,0-4.539-.903-6.058-2.71s-2.277-4.224-2.277-7.251v-2.051c0-1.982.354-3.726,1.062-5.229s1.712-2.659,3.011-3.465,2.803-1.208,4.512-1.208c2.266,0,4.082.632,5.449,1.896s2.163,3.016,2.388,5.252h-2.827c-.244-1.704-.774-2.938-1.59-3.703-.815-.764-1.955-1.146-3.42-1.146-1.797,0-3.206.664-4.227,1.994-1.021,1.329-1.53,3.221-1.53,5.674v2.066c0,2.317.483,4.159,1.45,5.527s2.319,2.053,4.058,2.053c1.562,0,2.761-.354,3.596-1.062s1.39-1.941,1.663-3.699h2.827Z"/>
              <path class="cls-6" d="m621.282,584.343c-1.055,1.24-2.603,1.86-4.644,1.86-1.689,0-2.977-.49-3.86-1.473-.884-.98-1.33-2.434-1.34-4.357v-10.312h2.71v10.239c0,2.402.977,3.604,2.93,3.604,2.07,0,3.447-.771,4.131-2.314v-11.528h2.71v15.85h-2.578l-.059-1.567Z"/>
              <path class="cls-6" d="m635.696,572.492c-.41-.068-.854-.103-1.333-.103-1.777,0-2.983.757-3.618,2.271v11.25h-2.71v-15.85h2.637l.044,1.831c.889-1.416,2.148-2.124,3.779-2.124.527,0,.928.068,1.201.205v2.52Z"/>
              <path class="cls-6" d="m645.848,572.492c-.41-.068-.854-.103-1.333-.103-1.777,0-2.983.757-3.618,2.271v11.25h-2.71v-15.85h2.637l.044,1.831c.889-1.416,2.148-2.124,3.779-2.124.527,0,.928.068,1.201.205v2.52Z"/>
              <path class="cls-6" d="m654.915,586.203c-2.148,0-3.896-.705-5.244-2.117-1.348-1.41-2.021-3.298-2.021-5.661v-.498c0-1.572.3-2.976.9-4.212.601-1.234,1.44-2.201,2.52-2.9,1.079-.698,2.249-1.047,3.509-1.047,2.061,0,3.662.679,4.805,2.036s1.714,3.301,1.714,5.83v1.128h-10.737c.039,1.562.495,2.825,1.369,3.787s1.985,1.442,3.333,1.442c.957,0,1.768-.195,2.432-.586s1.245-.908,1.743-1.553l1.655,1.289c-1.328,2.041-3.32,3.062-5.977,3.062Zm-.337-14.209c-1.094,0-2.012.398-2.754,1.193-.742.797-1.201,1.912-1.377,3.348h7.939v-.205c-.078-1.377-.449-2.443-1.113-3.201-.664-.756-1.562-1.135-2.695-1.135Z"/>
              <path class="cls-6" d="m666.795,570.061l.088,1.992c1.211-1.523,2.793-2.285,4.746-2.285,3.35,0,5.039,1.89,5.068,5.669v10.474h-2.71v-10.488c-.01-1.143-.271-1.987-.784-2.534s-1.311-.82-2.395-.82c-.879,0-1.65.234-2.314.703s-1.182,1.084-1.553,1.846v11.294h-2.71v-15.85h2.563Z"/>
              <path class="cls-6" d="m684.461,566.223v3.838h2.959v2.095h-2.959v9.842c0,.636.132,1.112.396,1.43s.713.477,1.348.477c.312,0,.742-.059,1.289-.176v2.185c-.713.194-1.406.291-2.08.291-1.211,0-2.124-.366-2.739-1.099s-.923-1.772-.923-3.12v-9.829h-2.886v-2.095h2.886v-3.838h2.71Z"/>
            </g>
            <g>
              <path class="cls-6" d="m250.374,152.309h-8.95v9.419h-2.812v-21.328h13.213v2.3h-10.4v7.31h8.95v2.3Z"/>
              <path class="cls-6" d="m254.783,141.674c0-.439.134-.811.402-1.113s.667-.454,1.194-.454.928.151,1.201.454.41.674.41,1.113-.137.806-.41,1.099-.674.439-1.201.439-.926-.146-1.194-.439-.402-.659-.402-1.099Zm2.93,20.054h-2.71v-15.85h2.71v15.85Z"/>
              <path class="cls-6" d="m268.626,162.021c-2.148,0-3.896-.705-5.244-2.117-1.348-1.41-2.021-3.298-2.021-5.661v-.498c0-1.572.3-2.976.9-4.212.601-1.234,1.44-2.201,2.52-2.9,1.079-.698,2.249-1.047,3.509-1.047,2.061,0,3.662.679,4.805,2.036s1.714,3.301,1.714,5.83v1.128h-10.737c.039,1.562.495,2.825,1.369,3.787s1.985,1.442,3.333,1.442c.957,0,1.768-.195,2.432-.586s1.245-.908,1.743-1.553l1.655,1.289c-1.328,2.041-3.32,3.062-5.977,3.062Zm-.337-14.209c-1.094,0-2.012.398-2.754,1.193-.742.797-1.201,1.912-1.377,3.348h7.939v-.205c-.078-1.377-.449-2.443-1.113-3.201-.664-.756-1.562-1.135-2.695-1.135Z"/>
              <path class="cls-6" d="m280.887,161.728h-2.71v-22.5h2.71v22.5Z"/>
              <path class="cls-6" d="m284.563,153.671c0-2.432.576-4.387,1.729-5.867,1.152-1.479,2.661-2.219,4.526-2.219,1.855,0,3.325.635,4.409,1.904v-8.262h2.71v22.5h-2.49l-.132-1.699c-1.084,1.328-2.593,1.992-4.526,1.992-1.836,0-3.333-.752-4.49-2.256s-1.735-3.467-1.735-5.889v-.205Zm2.71.308c0,1.797.371,3.203,1.113,4.219s1.768,1.523,3.076,1.523c1.719,0,2.974-.771,3.765-2.314v-7.28c-.811-1.494-2.056-2.241-3.735-2.241-1.328,0-2.363.513-3.105,1.538s-1.113,2.544-1.113,4.556Z"/>
              <path class="cls-6" d="m309.466,153.071c0-2.207.295-4.326.886-6.357s1.473-3.877,2.645-5.537,2.388-2.832,3.647-3.516l.557,1.787c-1.426,1.094-2.596,2.764-3.509,5.01s-1.413,4.761-1.501,7.544l-.015,1.245c0,3.77.688,7.041,2.065,9.814.83,1.66,1.816,2.959,2.959,3.896l-.557,1.655c-1.299-.723-2.539-1.934-3.721-3.633-2.305-3.32-3.457-7.29-3.457-11.909Z"/>
              <path class="cls-6" d="m336.639,161.728h-2.827l-10.737-16.436v16.436h-2.827v-21.328h2.827l10.767,16.509v-16.509h2.798v21.328Z"/>
              <path class="cls-6" d="m340.491,153.657c0-1.553.305-2.949.915-4.189s1.46-2.197,2.549-2.871,2.332-1.011,3.729-1.011c2.158,0,3.903.747,5.236,2.241s2,3.481,2,5.962v.19c0,1.543-.296,2.928-.887,4.153s-1.436,2.18-2.534,2.863-2.36,1.025-3.786,1.025c-2.148,0-3.89-.747-5.223-2.241s-1.999-3.472-1.999-5.933v-.19Zm2.725.322c0,1.758.407,3.169,1.223,4.233s1.907,1.597,3.274,1.597c1.377,0,2.471-.539,3.281-1.618s1.216-2.591,1.216-4.534c0-1.738-.413-3.146-1.238-4.226s-1.921-1.619-3.288-1.619c-1.338,0-2.417.532-3.237,1.597s-1.23,2.588-1.23,4.57Z"/>
              <path class="cls-6" d="m365.979,148.31c-.41-.068-.854-.103-1.333-.103-1.777,0-2.983.757-3.618,2.271v11.25h-2.71v-15.85h2.637l.044,1.831c.889-1.416,2.148-2.124,3.779-2.124.527,0,.928.068,1.201.205v2.52Z"/>
              <path class="cls-6" d="m372.879,142.041v3.838h2.959v2.095h-2.959v9.842c0,.636.132,1.112.396,1.43s.713.477,1.348.477c.312,0,.742-.059,1.289-.176v2.185c-.713.194-1.406.291-2.08.291-1.211,0-2.124-.366-2.739-1.099s-.923-1.772-.923-3.12v-9.829h-2.886v-2.095h2.886v-3.838h2.71Z"/>
              <path class="cls-6" d="m381.712,147.797c1.201-1.475,2.764-2.212,4.688-2.212,3.35,0,5.039,1.89,5.068,5.669v10.474h-2.71v-10.488c-.01-1.143-.271-1.987-.784-2.534s-1.311-.82-2.395-.82c-.879,0-1.65.234-2.314.703s-1.182,1.084-1.553,1.846v11.294h-2.71v-22.5h2.71v8.569Z"/>
              <path class="cls-6" d="m401.78,153.217c0,2.178-.286,4.266-.857,6.263s-1.445,3.84-2.622,5.529-2.409,2.891-3.698,3.604l-.571-1.655c1.504-1.152,2.712-2.942,3.625-5.368.913-2.427,1.38-5.12,1.399-8.079v-.469c0-2.051-.215-3.957-.645-5.72-.43-1.763-1.028-3.343-1.795-4.739s-1.628-2.485-2.585-3.267l.571-1.655c1.289.713,2.517,1.904,3.684,3.574s2.041,3.511,2.622,5.522.872,4.165.872,6.46Z"/>
            </g>
          </g>
          <g>
            <path class="cls-4" d="m540.259,419.031s3.575-15.536,4.173-32.212"/>
            <polygon class="cls-10" points="552.296 389.139 544.294 375.336 536.339 389.166 552.296 389.139"/>
          </g>
          <path class="cls-8" d="m468.637,473.626l42.558,35.382s23.533-4.174,39.829-15.083c16.296-10.908,41.256-52.716,37.886-61.826-3.37-9.11-29.601-23.934-40.986-22.477-11.385,1.457-49.346,34.125-49.346,34.125l-29.94,29.879h0Z"/>
          <path class="cls-8" d="m628.965,328.56c25.976-16,51.943,5.122,51.089,10.829-.854,5.707-4.773,78.65-9.223,84.986-4.45,6.337-24.137,64.49-45.581,78.376-23.18,15.01-54.336-3.467-60.424-9.618-6.087-6.151,13.125-44.074,19.63-61.301,1.476-3.908,15.951-21.932,18.345-29.436,8.156-25.571,17.716-67.871,22.776-71.07l3.388-2.767Z"/>
          <path class="cls-8" d="m640.241,484.419l16.98-157.29c.09-1.522,3.144-12.207,4.021-13.455l5.56-7.44c4.45-6.337,20.719-8.911,36.359-4.235,15.64,4.676,12.801,62.607,12.576,71.91-.226,9.303,6.014,76.764,4.078,97.483-1.935,20.719-14.431,34.02-23.734,33.795-7.189-.175-36.834-8.589-49.942-12.405-3.678-1.071-6.123-4.539-5.9-8.363h0Z"/>
          <path class="cls-8" d="m709.608,315.481v182.523s11.642,2.781,33.215-.992c21.573-3.773,27.781-53.03,27.781-53.03,0,0-5.562-95.371-15.269-108.495-9.706-13.125-30.122-18.308-35.83-19.162l-9.898-.844Z"/>
          <path class="cls-7" d="m489.055,453.668h0c-.092.154-.343.007-.253-.149,1.181-2.092,2.87-3.783,4.458-5.552,4.917-5.104,10.219-9.819,15.675-14.33,11.115-8.769,22.148-18.076,35.039-24.195,4.567-2.09,9.94-.143,14.54.952,9.181,2.704,18.128,6.67,25.342,13.138,2.672,2.507,5.272,5.525,6.438,9.09.788,3.825-.663,7.541-1.943,10.969-.895,2.23-1.923,4.384-3.01,6.499-11.34,20.75-25.78,39.653-41.713,57.05-2.421,2.585-4.933,5.099-7.637,7.397-.916.752-1.838,1.511-2.955,2.021-.069.031-.152.005-.189-.062,3.56-2.857,6.806-6.621,9.875-10.171,9.091-10.749,17.734-21.905,25.858-33.397,6.624-9.625,13.211-19.384,17.688-30.167,1.147-3.246,2.713-6.898,1.579-10.223-1.291-2.806-3.273-5.182-5.575-7.279-6.871-6.091-15.647-9.967-24.406-12.605-2.223-.642-4.475-1.19-6.733-1.546-2.271-.378-4.098-.569-6.309.447-12.656,5.946-23.629,15.069-34.629,23.631-3.666,2.931-7.283,5.922-10.888,8.927-3.509,3.054-7.292,5.973-10.254,9.555h0Z"/>
          <path class="cls-7" d="m521,457.441h0c.049.061.065.152-.001.212-.259.192-.424-.387-.367-.513.945-4.206,3.66-7.834,5.775-11.528,2.343-3.745,4.838-7.376,7.396-10.978.107-.149.256-.274.437-.35.534-.225,1.149.045,1.352.585,4.774,10.831,12.264,22.037,23.652,26.497l.931.335c-.022-.009.1.035.172.071.556.208.896,1.006.717,1.567-.167.573-.438.789-.722,1.146-2.558,2.525-5.501,4.475-8.344,6.557-4.647,3.042-9.083,6.822-14.37,8.699-.059-.058-.06-.153-.002-.212,3.937-4.053,8.671-6.931,13.036-10.324,2.648-1.951,6.125-4.628,8.087-6.466-.153.501.259,1.137.685,1.23-1.701-.584-3.391-1.315-4.95-2.197-9.978-5.805-16.413-15.787-20.81-26.172l1.789.234c-2.608,3.752-9.009,12.393-11.428,16.098-1.037,1.586-2.182,3.134-2.937,4.875-.089.223-.167.535-.101.632h.003Z"/>
          <path class="cls-7" d="m519.394,459.023h0c-.023-.131.132-.232.244-.165,1.931,1.075,2.941,2.77,4.189,4.305,3.476,4.488,7.414,9.363,11.131,13.587.376.596-1.486.103-1.715-.058-1.456-.598-2.572-1.774-3.657-2.863-2.842-2.866-5.269-6.055-7.508-9.389-1.092-1.669-2.375-3.214-2.684-5.416h0Z"/>
          <path class="cls-7" d="m625.329,502.876h0c-.153.101-.313-.154-.16-.247,2.95-2.105,5.505-4.695,7.817-7.467,11.379-14.153,18.819-30.966,26.246-47.423,3.784-8.231,6.75-16.919,11.198-24.879,1.946-4.931,2.851-10.381,3.881-15.614,1.298-7.13,2.331-14.32,3.192-21.525,1.261-10.798,2.217-21.651,2.278-32.517,0-3.607-.074-7.218-.471-10.757-.25-1.679-.21-3.171-1.314-4.64-3.042-4.226-7.579-7.376-12.234-9.694-11.191-5.658-24.844-4.909-35.674,1.246-1.377.863-3.037,1.361-3.813,2.915-3.288,6.337-5.114,13.469-7.288,20.275-4.162,13.94-8.065,27.976-12.44,41.863-2.042,6.981-4.605,14.102-9.106,19.948-4.265,5.918-7.037,8.559-10.37,15.094-.078.167-.954-1.377-.873-1.541,4.548-9.925,11.573-13.369,15.392-23.686,7.644-22.362,12.541-45.645,20.531-67.909,1.045-2.384,1.811-5.238,3.916-7.048,2.567-1.639,5.238-3.051,8.061-4.197,10.38-4.366,22.572-4.02,32.666.972,5.047,2.508,9.833,5.791,13.189,10.439,1.259,1.614,1.5,3.725,1.726,5.687,1.365,14.7-.286,29.267-1.902,43.825-.892,7.244-1.956,14.465-3.291,21.652-.676,3.593-1.409,7.176-2.341,10.743-.67,2.658-1.554,5.426-3.131,7.784-10.708,22.459-24.653,62.932-45.684,76.701v.002Z"/>
          <path class="cls-7" d="m632.167,338.344h0c8.441-6.8,25.585-2.558,35.198.173.443.135.765.552.759,1.038.016,3.878-.088,7.718-.351,11.576-.665,6.76-.877,14.013-4.314,20.105-1.769,2.799-5.44,3.774-8.416,4.075-4.921.653-19.543-.959-20.946-6.613-1.463-8.099-1.812-16.315-2.003-24.516-.008-1.916-.024-3.923.073-5.839v.002Zm.268.124h0c1.077,6.371,1.983,16.193,2.686,22.749.287,2.342.527,4.687,1.059,6.949.13.473.161.564.394.837,1.838,1.746,4.705,2.481,7.202,3.119,4.959,1.034,14.297,2.353,17.676-2.218,3.103-5.694,3.357-12.556,4.006-18.939.27-3.787.447-7.611.47-11.397l.758,1.037c-9.313-2.772-25.345-6.768-34.252-2.137h.001Z"/>
          <path class="cls-7" d="m710.453,496.713h0c-.113.144-.343-.048-.23-.184,6.3-8.777,8.839-19.556,8.964-30.227.149-21.521-1.57-43.104-2.994-64.592-.472-7.791-1.621-20.716-1.635-28.402.318-15.351,2.354-60.212-10.015-69.508-9.397-4.181-25.283-3.742-34.432.992-2.392,1.14-4.195,2.969-5.5,5.246-2.827,4.521-5.163,9.407-7.27,14.362-.063.169-.338.073-.276-.1,2.268-6.381,4.61-13.009,8.874-18.37,3.012-2.995,7.138-4.492,11.132-5.541,8.705-2.161,17.954-1.872,26.545.661,4.973,1.703,7.302,7.105,8.879,11.628,2.531,7.818,3.442,16.039,4.086,24.164.878,12.168.797,24.377.367,36.534-.011,7.591,1.045,20.423,1.502,28.181,1.039,16.167,2.099,32.348,2.573,48.552.523,16.223.724,33.608-10.571,46.603h0Z"/>
          <path class="cls-7" d="m669.49,327.926h0c-.043.164-.284.134-.292-.033-.022-2.487.069-4.969.22-7.449.143-2.476.365-4.942.604-7.406.036-.374.29-.71.67-.833,8.121-2.596,16.391-5.142,25.039-5.055,6.13.152,8.71,2.843,8.753,8.937-.052,10.007-2.989,19.683-5.895,29.158-.159.487-.662.785-1.175.678-5.182-1.062-10.362-2.195-15.374-3.921-.16-.044-.107-.31.056-.288,5.294.298,10.517,1.208,15.715,2.184l-1.18.693c2.382-7.948,4.509-16.11,5.333-24.369.137-3.008.61-6.706-1.248-9.183-1.314-1.208-3.247-1.409-5.088-1.531-8.214-.099-16.444,2.217-24.291,4.587l.67-.833c-.634,4.919-1.37,9.834-2.516,14.665h0Z"/>
          <path class="cls-7" d="m715.447,315.773h0c-.175-.033-.131-.311.043-.291,15.006,1.02,31.516,6.328,40.643,19.203,2.942,4.456,4.179,9.498,5.531,14.523,1.254,4.962,2.201,9.971,3.031,14.993.837,5.02,1.541,10.056,2.147,15.101,1.164,10.09,2.405,20.186,2.174,30.386.005.175-.273.187-.293.021-3.768-22.39-4.67-45.383-11.423-67.141-5.618-17.523-25.677-23.201-41.855-26.796h0Z"/>
          <path class="cls-7" d="m721.265,354.615h0c-.164-.037-.126-.297.035-.291,6.664-.55,13.509.345,19.826-1.943,1.605-.71,2.642-1.44,2.7-3.342.253-6.59-2.134-13.116-4.341-19.258l1.007.718c-4.367-.291-14.715-.93-18.92-1.41-2.097-.244-4.191-.546-6.278-.992-.165-.03-.144-.279.016-.293,7.357-.766,17.85.178,25.31.386.433.021.838.289,1.007.718,2.432,6.511,4.938,13.294,4.518,20.37-.006,2.496-1.976,4.408-4.171,5.159-6.663,2.189-13.985,1.83-20.707.18v-.002Z"/>
        </g>
      </g>
      <path class="cls-8" d="m706.064,98.819l27.787,131.047s-43.421,48.355-111.961,69.605c-68.541,21.25-150.091,2.91-150.091,2.91,0,0-82.382,20.184-93.307,20.832-26.375,1.566-43.461-13.423-49.392-21.135-7.866-10.23-6.548-21.061,3.61-26.543,10.158-5.482,76.883-21.984,76.883-21.984,0,0,94.599-57.497,116.398-70.574,21.8-13.076,152.009-71.181,152.009-71.181l28.063-12.976Z"/>
      <path class="cls-7" d="m331.36,276.916h0c-.079-.116.056-.275.182-.225,3.146,1.057,5.835,2.659,9.08,3.108,4.784.86,9.344-.749,13.48-3.13,4.358-2.335,8.417-5.013,12.55-7.776.129-.107.304.06.221.194-.914,1.467-2.12,2.677-3.377,3.808-3.881,3.285-8.294,5.851-12.868,8.053-5.953,2.688-15.352,1.591-19.268-4.033h0Z"/>
      <path class="cls-7" d="m681.133,127.494h0c-.076-.02-.131-.077-.125-.162.008-.079.08-.137.16-.129,1.815.231,3.614,1.115,5.17,2.033,4.762,2.815,8.699,6.847,12.328,10.967,16.555,19.499,28.097,42.627,38.98,65.602,2.44,5.505,4.791,11.195,6.77,16.878.022.066-.005.144-.069.178-.071.039-.161.012-.2-.059-2.994-5.234-5.721-10.72-8.282-16.157-11.249-22.566-22.743-45.495-38.76-65.1-2.316-2.746-4.793-5.33-7.346-7.857-2.537-2.253-5.436-4.98-8.626-6.193h0Z"/>
      <g>
        <path class="cls-4" d="m309.985,419.031s3.575-15.536,4.173-32.212"/>
        <polygon class="cls-10" points="322.022 389.139 314.02 375.336 306.065 389.166 322.022 389.139"/>
      </g>
      <g>
        <g>
          <path class="cls-4" d="m367.553,419.031s3.575-15.536,4.173-32.212"/>
          <polygon class="cls-10" points="379.59 389.139 371.588 375.336 363.634 389.166 379.59 389.139"/>
        </g>
        <g>
          <path class="cls-4" d="m425.122,419.031s3.575-15.536,4.173-32.212"/>
          <polygon class="cls-10" points="437.159 389.139 429.157 375.336 421.203 389.166 437.159 389.139"/>
        </g>
        <g>
          <path class="cls-4" d="m482.69,419.031s3.575-15.536,4.173-32.212"/>
          <polygon class="cls-10" points="494.727 389.139 486.725 375.336 478.771 389.166 494.727 389.139"/>
        </g>
      </g>
      <g>
        <path class="cls-4" d="m772.822,419.031s3.575-15.536,4.173-32.212"/>
        <polygon class="cls-10" points="784.859 389.139 776.858 375.336 768.903 389.166 784.859 389.139"/>
      </g>
      <g>
        <line class="cls-3" x1="633.967" y1="555.987" x2="609.275" y2="487.484"/>
        <path class="cls-6" d="m612.876,486.386c-.704-1.953-2.859-2.966-4.812-2.262s-2.966,2.859-2.262,4.812c.704,1.953,2.859,2.966,4.812,2.262s2.966-2.859,2.262-4.812Z"/>
      </g>
      <g>
        <line class="cls-3" x1="338.714" y1="177.51" x2="390.959" y2="274.714"/>
        <path class="cls-6" d="m387.558,276.328c.983,1.829,3.263,2.515,5.092,1.532,1.829-.983,2.515-3.263,1.532-5.092-.983-1.829-3.263-2.515-5.092-1.532-1.829.983-2.515,3.263-1.532,5.092Z"/>
      </g>
    </g>
  </g>
</svg>