<?xml version="1.0" encoding="UTF-8"?><svg id="a" xmlns="http://www.w3.org/2000/svg" width="1140" height="566" viewBox="0 0 1140 566"><path d="m203.5912,9.5913c-49.6502,4.8297-101.121,18.8414-136.8138,55.2237C33.4686,98.7671,18.324,147.7032,10.5607,195.6419,1.4905,251.6515.9779,309.8151,15.0784,364.6772c14.1005,54.862,43.55,106.2958,86.97,140.4832,51.0737,40.2136,117.3449,53.9541,181.297,53.9013,86.1006-.0712,170.0862-7.5225,315.2656-9.6419,202.8063-2.9607,338.427,28.3303,407.9751-7.9091,33.1928-17.2958,64.0011-40.2068,84.3883-72.1383,21.7522-34.0694,30.7078-80.3761,36.0898-120.1611,8.688-64.2235,6.8947-134.0905-14.2666-196.4179-26.2912-77.4371-78.8866-115.8378-157.4228-132.9001-76.6057-16.6428-205.2964.3529-283.2918,2.7857-104.4031,3.2565-207.1599.9242-310.7653-9.3898-52.3792-5.214-105.2003-8.8072-157.7264-3.6978Z" fill="#dee3e3" stroke-width="0"/><line x1="170.0466" y1="263.0813" x2="170.0466" y2="224.4489" fill="#fff" stroke="#000" stroke-linejoin="round" stroke-width="2"/><line x1="128.0466" y1="291.7413" x2="212.0466" y2="291.7413" fill="#fff" stroke="#000" stroke-linejoin="round" stroke-width="2"/><line x1="146.5266" y1="305.7525" x2="193.5666" y2="305.7525" fill="#fff" stroke="#000" stroke-linejoin="round" stroke-width="2"/><line x1="128.0466" y1="263.7189" x2="212.0466" y2="263.7189" fill="#fff" stroke="#000" stroke-linejoin="round" stroke-width="2"/><line x1="146.5266" y1="277.7301" x2="193.5666" y2="277.7301" fill="#fff" stroke="#000" stroke-linejoin="round" stroke-width="2"/><polyline points="170 306.0959 170 477.976 970 477.976 970 342.4439 947.5 335.0195 947.5 334.9163 992.5 320.0694 947.5 305.2242 992.5 290.3794 992.5 290.3618 947.5 275.5166 992.5 260.6718 947.5 245.8257 970.0035 238.4011 992.5 230.9787 970 223.5561 970 88.024 170 88.024 170 262.4239" fill="none" stroke="#000" stroke-linecap="square" stroke-linejoin="round" stroke-width="2"/><path d="m1027.5459,287.3755v.1348c.9707.6748,1.5107,2.0518,3.7227,6.2354.5938,1.0796,1.2412,1.377,2.4814,1.377l-.1611.8096h-4.1006c-2.0234-4.4536-2.5898-5.5874-3.4268-7.2339-.4043-.7559-.7549-.918-1.7266-.918h-.5664l-.998,4.8047c-.459,2.2402-.1621,2.5376,2.1582,2.5376l-.1348.8096h-7.4463l.1621-.8096c1.9961,0,2.4014-.27,2.8594-2.5376l2.374-11.5801c.2969-1.4844.1348-1.9971-2.0234-1.9971l.1621-.8101h6.3398c3.7773,0,5.9893,1.1069,5.9893,3.7251,0,3.8062-3.3184,5.0479-5.665,5.4526Zm-3.5879-.5938l.8359.0269c3.2373-.1079,5.7461-1.3228,5.7461-4.7778,0-1.4575-.8096-2.7803-3.4805-2.7803-.7012,0-.9707.0269-1.5918.0811l-1.5098,7.4502Z" stroke-width="0"/><path d="m1035.1318,300.9233l.0938-.4409c1.4795,0,1.8564-.2676,2.0137-1.0552l1.416-6.6606c.126-.5513.0479-.772-.3457-.772-.3145,0-.9131.0947-1.4316.252l.1104-.5195,3.0039-.8662h.457l-1.8252,8.5664c-.1572.772.1729,1.0552,1.6201,1.0552l-.0938.4409h-5.0186Z" stroke-width="0"/><path d="m759.6035,287.3755v.1348c.9707.6748,1.5107,2.0518,3.7227,6.2354.5938,1.0796,1.2412,1.377,2.4814,1.377l-.1611.8096h-4.1006c-2.0234-4.4536-2.5898-5.5874-3.4268-7.2339-.4043-.7559-.7549-.918-1.7266-.918h-.5664l-.998,4.8047c-.459,2.2402-.1621,2.5376,2.1582,2.5376l-.1348.8096h-7.4463l.1621-.8096c1.9961,0,2.4014-.27,2.8594-2.5376l2.374-11.5801c.2969-1.4844.1348-1.9971-2.0234-1.9971l.1621-.8101h6.3398c3.7773,0,5.9893,1.1069,5.9893,3.7251,0,3.8062-3.3184,5.0479-5.665,5.4526Zm-3.5879-.5938l.8359.0269c3.2373-.1079,5.7461-1.3228,5.7461-4.7778,0-1.4575-.8096-2.7803-3.4805-2.7803-.7012,0-.9707.0269-1.5918.0811l-1.5098,7.4502Z" stroke-width="0"/><path d="m772.3496,300.9233h-6.1357l.1104-.5356,2.8789-2.3618c2.4062-2.0942,3.2715-3.0234,3.2715-4.7085,0-.9131-.5342-1.543-1.5566-1.543-1.0234,0-1.7305.4092-2.6279,1.5747l-.3457-.1577c.8809-1.4961,1.9668-2.4092,3.6025-2.4092,1.4941,0,2.4072.8662,2.4072,2.2046,0,1.6377-1.1016,2.7085-3.4932,4.6929l-2.4219,1.9683-.0166.0786,1.0547-.0474h2.1865c.834,0,1.1016-.3306,1.668-1.2754h.4561l-1.0381,2.5195Z" stroke-width="0"/><path d="m240.8018,284.5083h1.6289c1.0234-.0156,1.8281-.2852,2.4141-.8086s.8789-1.2305.8789-2.1211c0-2-.9961-3-2.9883-3-.9375,0-1.6855.2676-2.2441.8027s-.8379,1.2441-.8379,2.127h-2.168c0-1.3516.4941-2.4746,1.4824-3.3691s2.2441-1.3418,3.7676-1.3418c1.6094,0,2.8711.4258,3.7852,1.2773s1.3711,2.0352,1.3711,3.5508c0,.7422-.2402,1.4609-.7207,2.1562s-1.1348,1.2148-1.9629,1.5586c.9375.2969,1.6621.7891,2.1738,1.4766s.7676,1.5273.7676,2.5195c0,1.5312-.5,2.7461-1.5,3.6445s-2.3008,1.3477-3.9023,1.3477-2.9043-.4336-3.9082-1.3008-1.5059-2.0117-1.5059-3.4336h2.1797c0,.8984.293,1.6172.8789,2.1562s1.3711.8086,2.3555.8086c1.0469,0,1.8477-.2734,2.4023-.8203s.832-1.332.832-2.3555c0-.9922-.3047-1.7539-.9141-2.2852s-1.4883-.8047-2.6367-.8203h-1.6289v-1.7695Z" stroke-width="0"/><path d="m251.3955,292.9575c0-.375.1113-.6875.334-.9375s.5566-.375,1.002-.375.7832.125,1.0137.375.3457.5625.3457.9375c0,.3594-.1152.6602-.3457.9023s-.5684.3633-1.0137.3633-.7793-.1211-1.002-.3633-.334-.543-.334-.9023Z" stroke-width="0"/><path d="m268.1416,286.8169c0,2.5391-.4336,4.4258-1.3008,5.6602s-2.2227,1.8516-4.0664,1.8516c-1.8203,0-3.168-.6035-4.043-1.8105s-1.3281-3.0098-1.3594-5.4082v-2.8945c0-2.5078.4336-4.3711,1.3008-5.5898s2.2266-1.8281,4.0781-1.8281c1.8359,0,3.1875.5879,4.0547,1.7637s1.3125,2.9902,1.3359,5.4434v2.8125Zm-2.168-2.9648c0-1.8359-.2578-3.1738-.7734-4.0137s-1.332-1.2598-2.4492-1.2598c-1.1094,0-1.918.418-2.4258,1.2539s-.7695,2.1211-.7852,3.8555v3.4688c0,1.8438.2676,3.2051.8027,4.084s1.3457,1.3184,2.4316,1.3184c1.0703,0,1.8652-.4141,2.3848-1.2422s.791-2.1328.8145-3.9141v-3.5508Z" stroke-width="0"/><path d="m283.0713,291.106l4.875-14.0742h2.4609l-6.3281,17.0625h-1.9922l-6.3164-17.0625h2.4492l4.8516,14.0742Z" stroke-width="0"/><path d="m90.2295,177.5571c0,2.5391-.4336,4.4258-1.3008,5.6602s-2.2227,1.8516-4.0664,1.8516c-1.8203,0-3.168-.6035-4.043-1.8105s-1.3281-3.0098-1.3594-5.4082v-2.8945c0-2.5078.4336-4.3711,1.3008-5.5898s2.2266-1.8281,4.0781-1.8281c1.8359,0,3.1875.5879,4.0547,1.7637s1.3125,2.9902,1.3359,5.4434v2.8125Zm-2.168-2.9648c0-1.8359-.2578-3.1738-.7734-4.0137s-1.332-1.2598-2.4492-1.2598c-1.1094,0-1.918.418-2.4258,1.2539s-.7695,2.1211-.7852,3.8555v3.4688c0,1.8438.2676,3.2051.8027,4.084s1.3457,1.3184,2.4316,1.3184c1.0703,0,1.8652-.4141,2.3848-1.2422s.791-2.1328.8145-3.9141v-3.5508Z" stroke-width="0"/><path d="m93.2764,183.6978c0-.375.1113-.6875.334-.9375s.5566-.375,1.002-.375.7832.125,1.0137.375.3457.5625.3457.9375c0,.3594-.1152.6602-.3457.9023s-.5684.3633-1.0137.3633-.7793-.1211-1.002-.3633-.334-.543-.334-.9023Z" stroke-width="0"/><path d="m108.4756,179.104h2.3672v1.7695h-2.3672v3.9609h-2.1797v-3.9609h-7.7695v-1.2773l7.6406-11.8242h2.3086v11.332Zm-7.4883,0h5.3086v-8.3672l-.2578.4688-5.0508,7.8984Z" stroke-width="0"/><path d="m123.499,177.5571c0,2.5391-.4336,4.4258-1.3008,5.6602s-2.2227,1.8516-4.0664,1.8516c-1.8203,0-3.168-.6035-4.043-1.8105s-1.3281-3.0098-1.3594-5.4082v-2.8945c0-2.5078.4336-4.3711,1.3008-5.5898s2.2266-1.8281,4.0781-1.8281c1.8359,0,3.1875.5879,4.0547,1.7637s1.3125,2.9902,1.3359,5.4434v2.8125Zm-2.168-2.9648c0-1.8359-.2578-3.1738-.7734-4.0137s-1.332-1.2598-2.4492-1.2598c-1.1094,0-1.918.418-2.4258,1.2539s-.7695,2.1211-.7852,3.8555v3.4688c0,1.8438.2676,3.2051.8027,4.084s1.3457,1.3184,2.4316,1.3184c1.0703,0,1.8652-.4141,2.3848-1.2422s.791-2.1328.8145-3.9141v-3.5508Z" stroke-width="0"/><path d="m142.2021,180.3696h-7.1484l-1.6055,4.4648h-2.3203l6.5156-17.0625h1.9688l6.5273,17.0625h-2.3086l-1.6289-4.4648Zm-6.4688-1.8398h5.8008l-2.9062-7.9805-2.8945,7.9805Z" stroke-width="0"/><polyline points="703.3489 88.024 703.3489 223.5561 725.8489 230.9787 703.3523 238.4011 680.8489 245.8257 725.8489 260.6718 680.8489 275.5166 725.8489 290.3618 725.8489 290.3794 680.8489 305.2242 725.8489 320.0694 680.8489 334.9163 680.8489 335.0195 703.3489 342.4439 703.3489 477.976" fill="none" stroke="#000" stroke-linejoin="round" stroke-width="2"/><path d="m1004.6172,146.3745c0,2.5391-.4336,4.4258-1.3008,5.6602s-2.2227,1.8516-4.0664,1.8516c-1.8203,0-3.168-.6035-4.043-1.8105s-1.3281-3.0098-1.3594-5.4082v-2.8945c0-2.5078.4336-4.3711,1.3008-5.5898s2.2266-1.8281,4.0781-1.8281c1.8359,0,3.1875.5879,4.0547,1.7637s1.3125,2.9902,1.3359,5.4434v2.8125Zm-2.168-2.9648c0-1.8359-.2578-3.1738-.7734-4.0137s-1.332-1.2598-2.4492-1.2598c-1.1094,0-1.918.418-2.4258,1.2539s-.7695,2.1211-.7852,3.8555v3.4688c0,1.8438.2676,3.2051.8027,4.084s1.3457,1.3184,2.4316,1.3184c1.0703,0,1.8652-.4141,2.3848-1.2422s.791-2.1328.8145-3.9141v-3.5508Z" stroke-width="0"/><path d="m1007.6641,152.5151c0-.375.1113-.6875.334-.9375s.5566-.375,1.002-.375.7832.125,1.0137.375.3457.5625.3457.9375c0,.3594-.1152.6602-.3457.9023s-.5684.3633-1.0137.3633-.7793-.1211-1.002-.3633-.334-.543-.334-.9023Z" stroke-width="0"/><path d="m1020.8359,153.6519h-2.1797v-14.4492l-4.3711,1.6055v-1.9688l6.2109-2.332h.3398v17.1445Z" stroke-width="0"/><path d="m1043.1133,149.187h-7.1484l-1.6055,4.4648h-2.3203l6.5156-17.0625h1.9688l6.5273,17.0625h-2.3086l-1.6289-4.4648Zm-6.4688-1.8398h5.8008l-2.9062-7.9805-2.8945,7.9805Z" stroke-width="0"/></svg>