<?xml version="1.0" encoding="UTF-8"?><svg id="a" xmlns="http://www.w3.org/2000/svg" width="1140" height="641" viewBox="0 0 1140 641"><defs><style>.h{fill:#fff;opacity:.2;}.h,.i,.j,.k,.l,.m,.n,.o,.p,.q,.r,.s,.t,.u,.v,.w,.x{stroke-width:0px;}.y{stroke:#231f20;stroke-width:6px;}.y,.z,.aa{stroke-linejoin:round;}.y,.z,.aa,.ab{fill:none;}.z{stroke:#84a8b3;}.z,.aa,.ab{stroke-linecap:round;stroke-width:2px;}.aa{stroke:#f29f3d;}.ab{stroke:#cf2d32;stroke-miterlimit:10;}.i{fill:#f7c655;}.j{fill:#606060;}.k{fill:#5e6868;}.l{fill:#4ebbb8;}.m{fill:#554d4f;}.n{fill:#352f31;}.o{fill:#1c8c8c;}.p{fill:#cf2d32;}.q{fill:#c8d9d2;}.r{fill:#bcccd0;}.s{fill:#abb7b7;}.t{fill:#979797;}.u{fill:#849596;}.v{fill:#802623;}.w{fill:#f29f3d;}.x{fill:#e3f6fc;}</style></defs><g id="b"><path class="x" d="m444.506,629.128C-7.29,616.331,10.654,616.212,5.868,325.677,1.124,37.662,17.682,12.77,421.774,6.798c689.406-10.188,706.874-18.931,706.874,364.903,0,230.772-69.046,274.851-684.143,257.427Z"/><path class="q" d="m5.868,325.677c4.786,290.535-13.158,290.654,438.637,303.451,615.097,17.423,682.046-26.665,684.143-257.427.168-18.536.264-36.167.177-52.94H5.758c.035,2.289.072,4.593.11,6.916Z"/><path class="h" d="m299.942,624.488c41.866,1.721,89.748,3.088,144.563,4.641,53.238,1.508,102.378,2.554,147.744,3.06L1050.192,50.729C965.277-3.635,788.696,1.376,421.774,6.798c-149.074,2.203-245.398,6.984-307.377,26.598l185.544,591.091Z"/></g><g id="c"><path class="o" d="m848.187,465.613c.07,20.408-8.503,36.981-19.146,37.017l-183.975.627c-10.644.036-19.328-16.478-19.398-36.886-.07-20.408,8.503-36.981,19.146-37.017l183.975-.627c10.644-.036,19.328,16.478,19.398,36.886"/><path class="l" d="m703.279,429.154c10.644-.036,19.328,16.478,19.398,36.886.07,20.408-8.503,36.981-19.146,37.017l-59.067.201c-10.644.036-19.328-16.478-19.398-36.886-.07-20.408,8.503-36.981,19.146-37.017l59.067-.201Z"/><ellipse class="l" cx="644.939" cy="466.305" rx="19.272" ry="36.952" transform="translate(-1.584 2.199) rotate(-.195)"/><ellipse class="u" cx="644.118" cy="466.781" rx="15.598" ry="31.488" transform="translate(-3.336 4.639) rotate(-.412)"/><path class="k" d="m648.743,466.818c.047,6.534-3.415,11.846-7.748,11.877l-2.365-.042c-1.463.011-1.747-1.115-1.757-2.578l-.138-19.28c-.007-.946.755-1.719,1.701-1.726l2.39-.017c4.333-.031,7.871,5.242,7.917,11.765Z"/><path class="s" d="m642.034,466.87c.044,6.089-1.984,11.043-4.506,11.061s-4.584-4.907-4.628-10.995c-.044-6.089,1.947-11.042,4.47-11.06,2.522-.018,4.621,4.906,4.665,10.995Z"/><path class="o" d="m644.813,429.207c8.354-.791,13.731,7.737,16.475,14.477,6.47,16.304,5.958,41.269-5.811,55.087-2.605,2.846-6.455,5.1-10.411,4.632-.081-.009-.14-.082-.131-.163,7.53-1.411,11.916-8.473,14.499-15.206,5.691-15.738,5.224-39.553-5.573-53.018-2.313-2.741-5.294-5.019-9.047-5.516-.167-.007-.167-.283-.001-.294h0Z"/><path class="v" d="m685.163,462.63l-.026-7.669,5.545-.02.026,7.669,8.668-.029.021,5.843-8.668.029.025,7.69-5.545.02-.025-7.69-8.307.028-.021-5.843,8.307-.028Z"/><path class="v" d="m822.283,470.824l-11.96.086-.036-4.949,11.96-.086.036,4.949Z"/></g><g id="d"><path class="r" d="m456.578,238.025c-.03-3.173-.332-6.469-.954-9.917-15.784-87.466-154.81-89.341-164.499,1.667-5.926,55.66,25.576,52.191,25.275,101.329-.075,12.221,4.07,28.208,17.001,40.161,9.138,8.446,18.365,9.637,27.877,7.723,10.35-2.083,23.05,1.273,33.508.205,8.783-.897,26.759-13.48,31.864-38.742,3.399-16.823-1.277-22.41,5.184-38.269,9.262-22.733,24.974-39.827,24.743-64.158Z"/><path class="z" d="m382.158,366.466s3.899-98.12,6.498-102.669c2.599-4.549,15.03-3.903,15.595,8.447.446,9.747-23.393,8.447-23.393,8.447h-19.481s20.794,0,20.794,0h-22.093s-23.609,1.516-23.393-8.447c.269-12.36,12.996-12.996,15.595-8.447,2.599,4.549,6.498,102.669,6.498,102.669"/><path class="i" d="m456.94,238.025c-.03-3.173-.332-6.469-.954-9.917-15.784-87.466-154.81-89.341-164.499,1.667-5.926,55.66,25.576,52.191,25.275,101.329-.075,12.221,4.07,28.208,17.001,40.161,9.138,8.446,18.365,9.637,27.877,7.723,10.35-2.083,23.05,1.273,33.508.205,8.783-.897,26.759-13.48,31.864-38.742,3.399-16.823-1.277-22.41,5.184-38.269,9.262-22.733,24.974-39.827,24.743-64.158Z"/><path class="aa" d="m382.52,366.466s3.899-98.12,6.498-102.669c2.599-4.549,15.03-3.903,15.595,8.447.446,9.747-23.393,8.447-23.393,8.447h-19.481s20.794,0,20.794,0h-22.093s-23.609,1.516-23.393-8.447c.269-12.36,12.996-12.996,15.595-8.447s6.498,102.669,6.498,102.669"/><path class="m" d="m371.171,393.079c-79.503,0-121.645,17.343-121.645,38.731l-.697,35.521c1.412,20.88,43.48,37.634,121.589,37.634,77.488,0,119.499-16.475,121.57-37.126h.132s.603-29.839.678-35.292c.019-.246.019-.491.019-.737,0-21.388-42.162-38.731-121.646-38.731Z"/><path class="n" d="m492.799,438.164c-.061,4.641,0,32.325,0,32.325-2.066,18.841-44.888,33.881-122.375,33.881-78.117,0-119.477-15.291-120.904-34.347v-32.408c1.111,6.223,3.396,10.782,10.075,15.443,10.933,7.649,30.681,13.755,58.745,17.097,15.187,1.813,32.826,2.814,52.819,2.814,19.24,0,36.301-.931,51.095-2.612,28.353-3.223,48.425-9.219,59.734-16.791,6.942-4.634,10.583-9.858,10.811-15.402Z"/><path class="m" d="m317.503,444.533l4.699-86.925s13.721,9.664,51.489,9.444c37.768-.219,48.553-9.107,48.553-9.107l2.615,89.479-107.355-2.891Z"/><path class="n" d="m422.441,369.591c-.058,8.994-14.995,13.58-22.14,15.384-19.926,4.699-50.461,4.345-69.383-3.78-4.024-1.991-9.267-5.17-9.06-10.289,0,0,.294,0,.294,0,.738,4.668,5.652,6.86,9.519,8.598,20.353,8.155,61.226,8.59,81.089-1.009,3.808-1.972,8.501-4.32,9.388-8.904,0,0,.293,0,.293,0h0Z"/><path class="n" d="m318.608,433.257c-.965-3.04-.78-6.073-.849-9.108-.084-6.074.018-12.143.368-18.21.208-3.025.154-6.105,1.496-9.073l.286.068c.2,1.518.374,3.034.391,4.54-.03,7.079-.095,15.645-.377,22.7-.142,3.029-.016,6.059-1.022,9.084l-.294-.002h0Z"/><path class="n" d="m423.94,440.49c-1.095-3.654-1.038-7.343-1.234-11.023-.18-3.682-.274-7.366-.365-11.051-.046-3.686-.076-7.374-.015-11.065.101-3.684-.116-7.401,1.196-11.08,0,0,.286.068.286.068.864,6.314.67,15.58.944,22.031.045,3.68.115,7.36.118,11.043-.014,3.683.24,7.358-.636,11.068l-.294.009h0Z"/><path class="w" d="m273.44,421.739h33.885c5.124,0,9.284,4.16,9.284,9.284v9.237c0,1.621-1.316,2.937-2.937,2.937h-46.58c-1.621,0-2.937-1.316-2.937-2.937v-9.237c0-5.124,4.16-9.284,9.284-9.284Z"/><ellipse class="t" cx="290.254" cy="421.585" rx="18.432" ry="7.48"/><path class="t" d="m271.821,426.097c.652,4.079,8.253,7.48,18.432,7.48,10.18,0,17.696-3.415,18.432-7.48,2.182-12.036-8.253-7.48-18.432-7.48-10.18,0-20.392-4.779-18.432,7.48Z"/><path class="j" d="m302.469,419.877c-2.068,1.007-4.148.872-6.224.995-2.077.1-4.154.164-6.232.184-2.078.019-4.156-.018-6.234-.075-2.079-.06-4.156.029-6.242-.866l-.003-.294c2.069-.934,4.147-.885,6.224-.985,2.077-.096,4.154-.173,6.232-.194,2.078-.019,4.156.004,6.234.065,2.079.083,4.155-.092,6.242.876l.003.294h0Z"/><path class="j" d="m290.223,416.194c1.007.685.872,1.402.994,2.111.1.71.163,1.421.184,2.134.019.712-.018,1.426-.075,2.141-.06.715.029,1.425-.866,2.163l-.294.008c-.934-.687-.884-1.401-.984-2.111-.096-.71-.173-1.421-.194-2.133-.019-.712.004-1.426.065-2.141.083-.715-.092-1.423.876-2.163l.294-.008h0Z"/><path class="w" d="m434.142,421.739h33.885c5.124,0,9.284,4.16,9.284,9.284v9.237c0,1.621-1.316,2.937-2.937,2.937h-46.58c-1.621,0-2.937-1.316-2.937-2.937v-9.237c0-5.124,4.16-9.284,9.284-9.284Z"/><ellipse class="t" cx="450.956" cy="421.585" rx="18.432" ry="7.48"/><path class="t" d="m432.523,426.097c.652,4.079,8.253,7.48,18.432,7.48,10.18,0,17.696-3.415,18.432-7.48,2.182-12.036-8.253-7.48-18.432-7.48-10.18,0-20.392-4.779-18.432,7.48Z"/><path class="j" d="m463.171,419.877c-2.068,1.007-4.148.872-6.224.995-2.077.1-4.154.164-6.232.184-2.078.019-4.156-.018-6.234-.075-2.079-.06-4.156.029-6.242-.866l-.003-.294c2.069-.934,4.147-.885,6.224-.985,2.077-.096,4.154-.173,6.232-.194,2.078-.019,4.156.004,6.234.065,2.079.083,4.155-.092,6.242.876l.003.294h0Z"/><path class="j" d="m450.924,416.194c1.007.685.872,1.402.994,2.111.1.71.163,1.421.184,2.134.019.712-.018,1.426-.075,2.141-.06.715.029,1.425-.866,2.163l-.294.008c-.934-.687-.884-1.401-.984-2.111-.096-.71-.173-1.421-.194-2.133-.019-.712.004-1.426.065-2.141.083-.715-.092-1.423.876-2.163l.294-.008h0Z"/><path class="y" d="m450.956,433.576v72.842c.129,21.762,16.187,37.821,35.997,37.821h2.069c18.551,0,33.59-15.039,33.59-33.59v-5.331c0-21.263,17.181-38.529,38.443-38.635l75.681-.378"/><path class="y" d="m290.745,433.576v56.245c0,31.081-25.196,56.278-56.278,56.278h-3.817c-21.855,0-39.573-17.717-39.573-39.573h0c0-22.214-18.008-40.222-40.222-40.222h-5.894c-33.189,0-60.094-26.905-60.094-60.094V126.938c0-33.189,26.905-60.094,60.094-60.094h823.974c33.189,0,60.094,26.905,60.094,60.094v279.273c0,33.189-26.905,60.094-60.094,60.094h-120.749"/></g><g id="e"><line class="ab" x1="625.066" y1="438.876" x2="532.047" y2="438.876"/><polygon class="p" points="534.381 430.897 520.565 438.876 534.381 446.854 534.381 430.897"/></g><g id="f"><line class="ab" x1="952.688" y1="438.876" x2="859.669" y2="438.876"/><polygon class="p" points="862.004 430.897 848.187 438.876 862.004 446.854 862.004 430.897"/></g><g id="g"><line class="ab" x1="895.345" y1="95.705" x2="165.031" y2="95.705"/><polygon class="p" points="893.011 87.727 906.827 95.705 893.011 103.683 893.011 87.727"/></g></svg>