<?xml version="1.0" encoding="UTF-8"?>
<svg id="Layer_1" data-name="Layer 1" xmlns="http://www.w3.org/2000/svg" width="570" height="408" xmlns:xlink="http://www.w3.org/1999/xlink" viewBox="0 0 570 408">
  <defs>
    <style>
      .cls-1, .cls-2, .cls-3, .cls-4, .cls-5, .cls-6, .cls-7 {
        fill: none;
      }

      .cls-2 {
        stroke-width: 3px;
      }

      .cls-2, .cls-3, .cls-4, .cls-7 {
        stroke-linejoin: round;
      }

      .cls-2, .cls-4 {
        stroke: #4d4e4e;
      }

      .cls-2, .cls-4, .cls-7 {
        stroke-linecap: round;
      }

      .cls-3 {
        stroke-linecap: square;
        stroke-width: 6px;
      }

      .cls-3, .cls-7 {
        stroke: #707070;
      }

      .cls-8 {
        clip-path: url(#clippath);
      }

      .cls-9 {
        fill: #f2ead1;
      }

      .cls-10, .cls-11 {
        fill: #fcfcf8;
      }

      .cls-12 {
        fill: #fffbee;
      }

      .cls-13 {
        fill: #e4f4f8;
      }

      .cls-14 {
        fill: #68553a;
      }

      .cls-15 {
        fill: #98cda6;
      }

      .cls-16 {
        fill: #9e9e9e;
      }

      .cls-17 {
        fill: #bab9b9;
      }

      .cls-18 {
        fill: #b8ebe8;
      }

      .cls-19 {
        fill: #ccc3a5;
      }

      .cls-20 {
        fill: #ccc;
      }

      .cls-21 {
        fill: #caccce;
      }

      .cls-22 {
        fill: #daeaea;
      }

      .cls-23 {
        fill: #6fb69d;
      }

      .cls-24 {
        fill: #94afae;
      }

      .cls-25 {
        fill: #a39b91;
      }

      .cls-26 {
        fill: #6d6d6d;
      }

      .cls-27 {
        fill: #636363;
      }

      .cls-28 {
        fill: #4d4e4e;
      }

      .cls-11 {
        stroke: #f2ead1;
      }

      .cls-11, .cls-4, .cls-5, .cls-6 {
        stroke-width: 2px;
      }

      .cls-11, .cls-5, .cls-6 {
        stroke-miterlimit: 10;
      }

      .cls-29 {
        clip-path: url(#clippath-1);
      }

      .cls-5 {
        stroke: #3f3f3f;
      }

      .cls-6 {
        stroke: #898989;
      }

      .cls-7 {
        stroke-width: 4px;
      }
    </style>
    <clipPath id="clippath">
      <path class="cls-1" d="m38.48,38.73C-14.26,58.07,5.73,99.37,6.48,140.91c.94,52.28-2.83,94.54-4.16,146.94-3.1,122.78,28.96,124.32,142.66,110.91,126.18-8.42,231.09,22.79,354-2.15,111.36-22.59,49.95-182.09,65.25-266.45C588.3-2.58,457.73,18.48,345.98,35.73c-194.93,30.09-262.5-13.5-307.5,3Z"/>
    </clipPath>
    <clipPath id="clippath-1">
      <path class="cls-1" d="m383.98,39.48c0,27.96-241.35,36.25-272.62,36.25s-56.62-22.67-56.62-50.62,25.35-50.62,56.62-50.62S383.98,11.52,383.98,39.48Z"/>
    </clipPath>
  </defs>
  <g class="cls-8">
    <rect class="cls-18" x="-7" y="-28.83" width="588.48" height="369.78"/>
    <g>
      <path class="cls-13" d="m13.49,120.73c-9.57-.63-40.77-4.32-42.68,13.34s34.09,10.66,42.39,10.66c17.41,0,32.1,6.2,48.72,8.94s34.28.8,51.1.81,33.17-.17,49.44-2.16c18.32-2.24,37.26-.18,55.76-.09,8.38.04,28.8,5.22,34.79-2.98-7.1-10.88-29.55-10.56-39.98-11.1-8.14-.42-16.23-.94-24.39-.92-11.62.03-25.25,1.58-36.74-.72-5.45-1.09-8.86-5.9-13.86-8.9s-11.1-3.96-16.7-4.64c-7.99-.97-15.9-.31-24.09.03-12.87.53-21.82-1.69-34.77-4.36-8.65-1.78-18.11-2.84-26.92-3.16-9.07-.32-14.01,2.02-22.08,5.25Z"/>
      <path class="cls-13" d="m257.3,89.98c-9.35,0-17.92-.56-26.76,3.2-7.02,2.99-14.18,6.29-21.38,8.23-4.07,1.1-12.87-.26-15.8,4.11-4.94,7.35,4.49,8.74,8.92,9.2,19.42,2.01,39.22-1.45,58.73-.76s37.54,1.52,56.31,1.52c11.45,0,22.85-.17,34.21-.75,7.29-.37,19.87,1.88,26.31-1.65-1.39-5.36-11-5.32-15.02-5.94-11.79-1.82-24.44-.87-35.86-4.03-15.88-4.39-30.88-9.7-47.15-11.62-7.98-.94-15.62-2.25-22.53-1.5Z"/>
      <path class="cls-13" d="m210.32,81.24c0,5.2-13.25,5.64-29.6,5.64s-29.6-.45-29.6-5.64,4.31-10.66,20.66-10.66,38.54,5.47,38.54,10.66Z"/>
      <path class="cls-13" d="m638.98,84.07c-31.13-9-70.58,5.57-94.89,18.83-25.39,1.89-41.31,11.29-59.25,22.23-13.01,7.94-31.44,7.55-47.72,11.23-8.16,1.84-21.51,5.55-26.05,10.6-3.97,4.41-.81,4.15,7.13,5.78,12.69,2.61,24.69,4.96,38.25,4.4,19.64-.82,40.06-1.55,58.55,1.82,11.09,2.02,21.72,4.06,32.65,5.01,13.15,1.14,24.03-1.68,37.14-2.65,16.07-1.19,32.76.47,49.62-1.27,2.66-.27,5.36-.14,7.44-1.01,5.66-2.35,10.53-12.5,12.8-16.16,3.18-5.12,4.28-10.46,5.05-15.84,2.15-14.99,4.82-35.59-20.73-42.98Z"/>
    </g>
    <path class="cls-23" d="m-15.33,272.74c89.16-1.69,179.74-9.81,263.97-40.94,38.11-14.08,74.66-32.2,112.87-46.01,26.78-9.68,54.59-17.28,82.52-22.71,43.52-8.46,86.75-17.55,130.85-22.44,29.87-3.31,59.96-8.36,90.07-8.82-8.99,4.33-15.87,18.03-20.27,26.36-14.88,28.15-22.6,61.95-29.6,92.76-6.32,27.8-11.08,57.72-13.17,86.24-9.06-2.53-19.67-2.13-29.06-1.87-31.49.87-60.98-1.04-92.45-3.77-37.06-3.22-74.54-2.55-111.7-3.98-25.84-.99-51.51-2.32-77.37-2.62-38.95-.46-77.99.38-116.91-1.47-29.45-1.41-59.55.18-88.74-4.71-14.38-2.41-28.87-5.99-43.35-7.55-8.16-.88-17.19.61-25-2.57-4.95-2.02-6.81-5.78-10.07-10-2.7-3.51-5.24-7-8.68-9.87-2.03-1.7-5.56-2.87-7.2-4.67-2.96-3.25-2.91-9.45-6.73-11.33Z"/>
    <path class="cls-15" d="m-9.75,247.21c27.62,0,55.05-2.4,82.53.94,22.23,2.7,53.73,13.95,75.66,18.16,47.72,9.17,98.1,12.84,146.7,15.59,4.77.27,24.24-.94,26.78,2.79,1.6,2.35.65,9.16.87,11.92.56,7.12.78,14.2,1.6,21.3-12.59,2.43-25.8,2.76-38.94,2.92-29.57.38-59.04,1.78-88.62,1.87-44.75.14-89.6.48-134.35,1.07-18.03.24-76.72,3.67-94.66,3.35-4.95-16.89-7.48-36.11-8.83-53.64-.39-5.02,29.56-21.4,31.27-26.27Z"/>
    <rect class="cls-21" x="-9.44" y="318.4" width="590.3" height="118.18"/>
    <g>
      <rect class="cls-12" x="190.14" y="185.08" width="393.78" height="153.93"/>
      <line class="cls-11" x1="190.14" y1="313.35" x2="583.92" y2="313.35"/>
      <line class="cls-11" x1="190.14" y1="287.7" x2="583.92" y2="287.7"/>
      <line class="cls-11" x1="190.14" y1="262.04" x2="583.92" y2="262.04"/>
      <line class="cls-11" x1="190.14" y1="236.39" x2="583.92" y2="236.39"/>
      <line class="cls-11" x1="190.14" y1="210.73" x2="583.92" y2="210.73"/>
      <line class="cls-11" x1="485.48" y1="185.08" x2="485.48" y2="339.01"/>
      <line class="cls-11" x1="387.03" y1="185.08" x2="387.03" y2="339.01"/>
      <g>
        <rect class="cls-9" x="281.42" y="185.17" width="13.54" height="156.13"/>
        <rect class="cls-9" x="277.92" y="178.02" width="20.53" height="7.94"/>
      </g>
      <g>
        <rect class="cls-9" x="182.02" y="185.17" width="13.54" height="156.13"/>
        <rect class="cls-9" x="178.52" y="178.02" width="20.53" height="7.94"/>
      </g>
      <g>
        <rect class="cls-9" x="479.83" y="185.17" width="13.54" height="156.13"/>
        <rect class="cls-9" x="476.33" y="178.02" width="20.53" height="7.94"/>
      </g>
      <g>
        <rect class="cls-9" x="380.43" y="185.17" width="13.54" height="156.13"/>
        <rect class="cls-9" x="376.93" y="178.02" width="20.53" height="7.94"/>
      </g>
      <path class="cls-19" d="m182.02,185.7c1.1-.99,2.19-.83,3.29-.94,1.1-.08,2.19-.12,3.29-.12,1.1,0,2.19.06,3.29.13,1.1.08,2.19.01,3.29.93v.29c-1.1.91-2.19.85-3.29.93-1.1.08-2.19.13-3.29.13-1.1,0-2.19-.04-3.29-.12-1.1-.1-2.19.05-3.29-.94v-.29h0Z"/>
      <path class="cls-19" d="m281.81,185.7c1.1-.99,2.19-.83,3.29-.94,1.1-.08,2.19-.12,3.29-.12,1.1,0,2.19.06,3.29.13,1.1.08,2.19.01,3.29.93v.29c-1.1.91-2.19.85-3.29.93-1.1.08-2.19.13-3.29.13-1.1,0-2.19-.04-3.29-.12-1.1-.1-2.19.05-3.29-.94v-.29h0Z"/>
      <path class="cls-19" d="m381.21,185.32c1.29-.99,2.58-.83,3.87-.94,1.29-.08,2.58-.12,3.87-.12,1.29,0,2.58.06,3.87.13,1.29.08,2.58.01,3.87.93v.29c-1.29.91-2.58.85-3.87.93-1.29.08-2.58.13-3.87.13-1.29,0-2.58-.04-3.87-.12-1.29-.1-2.58.05-3.87-.94v-.29h0Z"/>
      <path class="cls-19" d="m480.22,186.09c1.1-.99,2.19-.83,3.29-.94,1.1-.08,2.19-.12,3.29-.12,1.1,0,2.19.06,3.29.13,1.1.08,2.19.01,3.29.93v.29c-1.1.91-2.19.85-3.29.93-1.1.08-2.19.13-3.29.13-1.1,0-2.19-.04-3.29-.12-1.1-.1-2.19.05-3.29-.94v-.29h0Z"/>
    </g>
    <circle class="cls-28" cx="98.35" cy="6.52" r="5.04"/>
    <g>
      <path class="cls-5" d="m96.71,8.81s321.32,54.56,524.42,36.38"/>
      <path class="cls-5" d="m-61.89,72.73C27.28,74.03,95.24,9.62,95.24,9.62c0,0,255.09,109.84,525.83,89.81"/>
    </g>
    <g>
      <g>
        <g>
          <polygon class="cls-4" points="122.47 351.88 74.01 351.88 94.11 13.81 102.37 13.81 122.47 351.88"/>
          <line class="cls-4" x1="102.82" y1="21.23" x2="93.67" y2="21.23"/>
          <line class="cls-4" x1="103.31" y1="29.49" x2="93.17" y2="29.49"/>
          <line class="cls-4" x1="103.85" y1="38.71" x2="92.63" y2="38.71"/>
          <line class="cls-4" x1="104.47" y1="49.01" x2="92.01" y2="49.01"/>
          <line class="cls-4" x1="105.15" y1="60.54" x2="91.33" y2="60.54"/>
          <line class="cls-4" x1="105.92" y1="73.46" x2="90.56" y2="73.46"/>
          <line class="cls-4" x1="106.78" y1="87.99" x2="89.7" y2="87.99"/>
          <line class="cls-4" x1="107.76" y1="104.35" x2="88.72" y2="104.35"/>
          <line class="cls-4" x1="108.85" y1="122.83" x2="87.63" y2="122.83"/>
          <line class="cls-4" x1="110.1" y1="143.76" x2="86.38" y2="143.76"/>
          <line class="cls-4" x1="111.51" y1="167.56" x2="84.97" y2="167.56"/>
          <line class="cls-4" x1="113.13" y1="194.72" x2="83.35" y2="194.72"/>
          <line class="cls-4" x1="114.98" y1="225.86" x2="81.5" y2="225.86"/>
          <line class="cls-4" x1="117.11" y1="261.74" x2="79.37" y2="261.74"/>
          <line class="cls-4" x1="119.58" y1="303.33" x2="76.9" y2="303.33"/>
        </g>
        <polyline class="cls-2" points="74.01 351.88 94.11 13.81 102.37 13.81 122.47 351.88"/>
      </g>
      <polyline class="cls-4" points="121.96 351.12 76.9 303.33 117.11 261.74 81.5 225.86 113.13 194.72 84.97 167.56 110.1 143.76 87.63 122.83 107.76 104.35 89.7 87.99 105.92 73.46 91.33 60.54 104.47 49.01 92.63 38.71 103.31 29.49 93.67 21.23 102.37 13.81"/>
      <polyline class="cls-4" points="74.88 351.12 119.94 303.33 79.73 261.74 115.34 225.86 83.71 194.72 111.87 167.56 86.74 143.76 109.21 122.83 89.09 104.35 107.14 87.99 90.92 73.46 105.51 60.54 92.37 49.01 104.22 38.71 93.53 29.49 103.18 21.23 94.47 13.81"/>
    </g>
    <g>
      <g>
        <path class="cls-5" d="m483.7,239.88c-.08-2.32.08-5,1.56-6.89s3.23-1.9,5.23-2.88c6.59-3.23,5.6-18.18,5.61-22.51"/>
        <path class="cls-5" d="m483.7,239.88c-.06-2.32.06-5,1.14-6.89s2.22-2.05,3.82-2.88c6.65-3.42,4.09-18.18,4.1-22.51"/>
        <path class="cls-5" d="m435.82,240.28c-.73-9.87,6.34-11.08,11.81-10.43,8.86,1.06,23.07,3.21,24.19-13.19.23-3.35.51-6.67.71-10.04"/>
        <path class="cls-5" d="m435.82,240.28c-.67-9.87,5.82-11.08,10.83-10.43,8.12,1.06,21.16,3.21,22.18-13.19.21-3.35.47-6.67.65-10.04"/>
        <path class="cls-5" d="m404.59,240.28c-.73-9.87,6.34-11.08,11.81-10.43,8.86,1.06,23.07,3.21,24.19-13.19.23-3.35.51-6.67.71-10.04"/>
        <path class="cls-5" d="m404.59,240.28c-.67-9.87,5.82-11.08,10.83-10.43,8.12,1.06,21.16,3.21,22.18-13.19.21-3.35.47-6.67.65-10.04"/>
        <path class="cls-5" d="m373.22,240.28c-.73-9.87,6.34-11.08,11.81-10.43,8.86,1.06,23.07,3.21,24.19-13.19.23-3.35.51-6.67.71-10.04"/>
        <path class="cls-5" d="m373.22,240.28c-.67-9.87,5.82-11.08,10.83-10.43,8.12,1.06,21.16,3.21,22.18-13.19.21-3.35.47-6.67.65-10.04"/>
        <line class="cls-7" x1="435.61" y1="240.73" x2="435.61" y2="286.59"/>
        <g>
          <path class="cls-25" d="m437.56,274.69h-3.9c-1.03,0-1.95-.62-1.95-1.65v-28.7c0-1.03.92-1.65,1.95-1.65h3.9c1.03,0,1.95.62,1.95,1.65v28.7c0,1.03-.92,1.65-1.95,1.65Z"/>
          <polygon class="cls-20" points="439.59 249.93 441.38 247.02 439.51 244.34 431.71 244.34 429.84 247.04 431.63 249.95 429.84 252.87 431.63 255.78 429.84 258.7 431.63 261.61 429.84 264.53 431.63 267.44 429.84 270.35 431.71 273.04 439.51 273.03 441.38 270.34 439.59 267.42 441.38 264.51 439.59 261.59 441.38 258.68 439.59 255.76 441.38 252.85 439.59 249.93"/>
          <polygon class="cls-17" points="429.84 270.35 431.71 273.04 439.51 273.03 441.38 270.34 429.84 270.35"/>
          <polygon class="cls-17" points="429.84 264.53 431.63 267.44 439.59 267.42 441.38 264.51 429.84 264.53"/>
          <polygon class="cls-17" points="429.84 258.7 431.63 261.61 439.59 261.59 441.38 258.68 429.84 258.7"/>
          <polygon class="cls-17" points="429.84 252.87 431.63 255.78 439.59 255.76 441.38 252.85 429.84 252.87"/>
          <polygon class="cls-17" points="429.84 247.04 431.63 249.95 439.59 249.93 441.38 247.02 429.84 247.04"/>
        </g>
        <line class="cls-7" x1="404.27" y1="240.73" x2="404.27" y2="286.59"/>
        <g>
          <path class="cls-25" d="m406.22,274.69h-3.9c-1.03,0-1.95-.62-1.95-1.65v-28.7c0-1.03.92-1.65,1.95-1.65h3.9c1.03,0,1.95.62,1.95,1.65v28.7c0,1.03-.92,1.65-1.95,1.65Z"/>
          <polygon class="cls-20" points="408.25 249.93 410.03 247.02 408.17 244.34 400.36 244.34 398.5 247.04 400.28 249.95 398.5 252.87 400.28 255.78 398.5 258.7 400.28 261.61 398.5 264.53 400.28 267.44 398.5 270.35 400.36 273.04 408.17 273.03 410.03 270.34 408.25 267.42 410.03 264.51 408.25 261.59 410.03 258.68 408.25 255.76 410.03 252.85 408.25 249.93"/>
          <polygon class="cls-17" points="398.5 270.35 400.36 273.04 408.17 273.03 410.03 270.34 398.5 270.35"/>
          <polygon class="cls-17" points="398.5 264.53 400.28 267.44 408.25 267.42 410.03 264.51 398.5 264.53"/>
          <polygon class="cls-17" points="398.5 258.7 400.28 261.61 408.25 261.59 410.03 258.68 398.5 258.7"/>
          <polygon class="cls-17" points="398.5 252.87 400.28 255.78 408.25 255.76 410.03 252.85 398.5 252.87"/>
          <polygon class="cls-17" points="398.5 247.04 400.28 249.95 408.25 249.93 410.03 247.02 398.5 247.04"/>
        </g>
        <line class="cls-7" x1="373.12" y1="240.73" x2="373.12" y2="286.59"/>
        <rect class="cls-25" x="364.63" y="283.31" width="17.4" height="10.14"/>
        <rect class="cls-25" x="395.7" y="283.31" width="17.4" height="10.14"/>
        <rect class="cls-25" x="426.77" y="283.31" width="17.4" height="10.14"/>
        <rect class="cls-20" x="362.89" y="281.45" width="20.88" height="2.37" rx="1.19" ry="1.19"/>
        <rect class="cls-20" x="393.96" y="281.45" width="20.88" height="2.37" rx="1.19" ry="1.19"/>
        <rect class="cls-20" x="425.03" y="281.45" width="20.88" height="2.37" rx="1.19" ry="1.19"/>
        <g>
          <path class="cls-25" d="m375.07,274.69h-3.9c-1.03,0-1.95-.62-1.95-1.65v-28.7c0-1.03.92-1.65,1.95-1.65h3.9c1.03,0,1.95.62,1.95,1.65v28.7c0,1.03-.92,1.65-1.95,1.65Z"/>
          <polygon class="cls-20" points="377.11 249.93 378.89 247.02 377.03 244.34 369.22 244.34 367.36 247.04 369.14 249.95 367.36 252.87 369.14 255.78 367.36 258.7 369.14 261.61 367.36 264.53 369.14 267.44 367.36 270.35 369.22 273.04 377.03 273.03 378.89 270.34 377.11 267.42 378.89 264.51 377.11 261.59 378.89 258.68 377.11 255.76 378.89 252.85 377.11 249.93"/>
          <polygon class="cls-17" points="367.36 270.35 369.22 273.04 377.03 273.03 378.89 270.34 367.36 270.35"/>
          <polygon class="cls-17" points="367.36 264.53 369.14 267.44 377.11 267.42 378.89 264.51 367.36 264.53"/>
          <polygon class="cls-17" points="367.36 258.7 369.14 261.61 377.11 261.59 378.89 258.68 367.36 258.7"/>
          <polygon class="cls-17" points="367.36 252.87 369.14 255.78 377.11 255.76 378.89 252.85 367.36 252.87"/>
          <polygon class="cls-17" points="367.36 247.04 369.14 249.95 377.11 249.93 378.89 247.02 367.36 247.04"/>
        </g>
        <line class="cls-7" x1="483.85" y1="240.73" x2="483.85" y2="286.59"/>
        <g>
          <path class="cls-25" d="m485.79,274.69h-3.9c-1.03,0-1.95-.62-1.95-1.65v-28.7c0-1.03.92-1.65,1.95-1.65h3.9c1.03,0,1.95.62,1.95,1.65v28.7c0,1.03-.92,1.65-1.95,1.65Z"/>
          <polygon class="cls-20" points="487.83 249.93 489.61 247.02 487.75 244.34 479.94 244.34 478.08 247.04 479.86 249.95 478.08 252.87 479.86 255.78 478.08 258.7 479.86 261.61 478.08 264.53 479.86 267.44 478.08 270.35 479.94 273.04 487.75 273.03 489.61 270.34 487.83 267.42 489.61 264.51 487.83 261.59 489.61 258.68 487.83 255.76 489.61 252.85 487.83 249.93"/>
          <polygon class="cls-17" points="478.08 270.35 479.94 273.04 487.75 273.03 489.61 270.34 478.08 270.35"/>
          <polygon class="cls-17" points="478.08 264.53 479.86 267.44 487.83 267.42 489.61 264.51 478.08 264.53"/>
          <polygon class="cls-17" points="478.08 258.7 479.86 261.61 487.83 261.59 489.61 258.68 478.08 258.7"/>
          <polygon class="cls-17" points="478.08 252.87 479.86 255.78 487.83 255.76 489.61 252.85 478.08 252.87"/>
          <polygon class="cls-17" points="478.08 247.04 479.86 249.95 487.83 249.93 489.61 247.02 478.08 247.04"/>
        </g>
        <rect class="cls-25" x="475" y="283.31" width="17.4" height="10.14"/>
        <rect class="cls-20" x="473.26" y="281.45" width="20.88" height="2.37" rx="1.19" ry="1.19"/>
      </g>
      <path class="cls-3" d="m59.23,365.48v-83.84c0-2.56,2.7-4.66,6-4.66h225.75c3.3,0,6,2.1,6,4.66v83.84"/>
      <line class="cls-3" x1="217.73" y1="279.31" x2="217.73" y2="365.48"/>
      <line class="cls-3" x1="138.48" y1="279.31" x2="138.48" y2="365.48"/>
      <path class="cls-3" d="m541.48,205.73h-207.37c-11.39,0-20.62,9.23-20.62,20.62v30c0,11.39-9.23,20.62-20.62,20.62h-68.37"/>
      <path class="cls-16" d="m534.73,205.73c0-3.73.56-6.75,4.29-6.75s9.21,3.02,9.21,6.75-5.48,6.75-9.21,6.75-4.29-3.02-4.29-6.75Z"/>
      <line class="cls-3" x1="340.95" y1="206.48" x2="340.95" y2="368.22"/>
      <line class="cls-3" x1="518.85" y1="206.48" x2="518.85" y2="368.22"/>
      <g>
        <rect class="cls-16" x="262.42" y="271.4" width="31.04" height="11.58" rx="2.28" ry="2.28"/>
        <g>
          <path class="cls-26" d="m284.49,271.46c.43,1.38-.17,2.27-.54,3.27-.39.99-.81,1.96-1.27,2.92-.46.96-.97,1.89-1.5,2.81-.53.92-.93,1.91-2.21,2.47l-.26-.13c-.36-1.35.16-2.28.54-3.27.39-.99.8-1.97,1.26-2.93.46-.96.96-1.89,1.49-2.81.55-.91.87-1.93,2.22-2.46l.26.13h0Z"/>
          <path class="cls-26" d="m290.97,271.46c.43,1.38-.17,2.27-.54,3.27-.39.99-.81,1.96-1.27,2.92-.46.96-.97,1.89-1.5,2.81-.53.92-.93,1.91-2.21,2.47l-.26-.13c-.36-1.35.16-2.28.54-3.27.39-.99.8-1.97,1.26-2.93.46-.96.96-1.89,1.49-2.81.55-.91.87-1.93,2.22-2.46l.26.13h0Z"/>
          <path class="cls-26" d="m278,271.46c.43,1.38-.17,2.27-.54,3.27-.39.99-.81,1.96-1.27,2.92-.46.96-.97,1.89-1.5,2.81-.53.92-.93,1.91-2.21,2.47l-.26-.13c-.36-1.35.16-2.28.54-3.27.39-.99.8-1.97,1.26-2.93.46-.96.96-1.89,1.49-2.81.55-.91.87-1.93,2.22-2.46l.26.13h0Z"/>
          <path class="cls-26" d="m271.51,271.46c.43,1.38-.17,2.27-.54,3.27-.39.99-.81,1.96-1.27,2.92-.46.96-.97,1.89-1.5,2.81-.53.92-.93,1.91-2.21,2.47l-.26-.13c-.36-1.35.16-2.28.54-3.27.39-.99.8-1.97,1.26-2.93.46-.96.96-1.89,1.49-2.81.55-.91.87-1.93,2.22-2.46l.26.13h0Z"/>
        </g>
      </g>
      <rect class="cls-16" x="331.09" y="215.31" width="20.07" height="9.68" rx="2.11" ry="2.11" transform="translate(120.97 561.27) rotate(-90)"/>
      <rect class="cls-16" x="508.88" y="215.31" width="20.07" height="9.68" rx="2.11" ry="2.11" transform="translate(298.77 739.06) rotate(-90)"/>
      <g>
        <g>
          <ellipse class="cls-27" cx="442.2" cy="300.94" rx="4.53" ry="3.55"/>
          <ellipse class="cls-27" cx="442.2" cy="296" rx="4.53" ry="3.55"/>
        </g>
        <g>
          <ellipse class="cls-27" cx="422.95" cy="300.94" rx="4.53" ry="3.55"/>
          <ellipse class="cls-27" cx="422.95" cy="296" rx="4.53" ry="3.55"/>
        </g>
        <g>
          <ellipse class="cls-27" cx="403.7" cy="300.94" rx="4.53" ry="3.55"/>
          <ellipse class="cls-27" cx="403.7" cy="296" rx="4.53" ry="3.55"/>
        </g>
        <g>
          <ellipse class="cls-27" cx="384.45" cy="300.94" rx="4.53" ry="3.55"/>
          <ellipse class="cls-27" cx="384.45" cy="296" rx="4.53" ry="3.55"/>
        </g>
        <g>
          <ellipse class="cls-27" cx="365.2" cy="300.94" rx="4.53" ry="3.55"/>
          <ellipse class="cls-27" cx="365.2" cy="296" rx="4.53" ry="3.55"/>
        </g>
        <g>
          <ellipse class="cls-27" cx="494.88" cy="300.94" rx="4.53" ry="3.55"/>
          <ellipse class="cls-27" cx="494.88" cy="296" rx="4.53" ry="3.55"/>
        </g>
        <g>
          <ellipse class="cls-27" cx="471.96" cy="300.94" rx="4.53" ry="3.55"/>
          <ellipse class="cls-27" cx="471.96" cy="296" rx="4.53" ry="3.55"/>
        </g>
        <rect class="cls-20" x="462.13" y="292.13" width="43.43" height="4.06" rx="2.03" ry="2.03"/>
        <g>
          <rect class="cls-16" x="356.17" y="300.23" width="95.52" height="70.56"/>
          <g>
            <path class="cls-26" d="m413.63,300.23c.99,5.82.83,11.65.94,17.47.09,5.82.1,11.65.12,17.47-.03,5.82-.05,11.65-.13,17.47-.08,5.82-.01,11.65-.93,17.47h-.29c-1.5-11.62-.79-23.28-1.06-34.95.02-5.82.04-11.65.12-17.47.11-5.82-.05-11.65.94-17.47,0,0,.29,0,.29,0h0Z"/>
            <path class="cls-26" d="m433.59,300.23c.99,5.82.83,11.65.94,17.47.09,5.82.1,11.65.12,17.47-.03,5.82-.05,11.65-.13,17.47-.08,5.82-.01,11.65-.93,17.47,0,0-.29,0-.29,0-1.5-11.62-.79-23.28-1.06-34.95.02-5.82.04-11.65.12-17.47.1-5.82-.05-11.65.94-17.47h.29Z"/>
            <path class="cls-26" d="m393.67,300.23c.99,5.82.83,11.65.94,17.47.09,5.82.1,11.65.12,17.47-.03,5.82-.05,11.65-.13,17.47-.08,5.82-.01,11.65-.93,17.47,0,0-.29,0-.29,0-1.5-11.62-.79-23.28-1.06-34.95.02-5.82.04-11.65.12-17.47.1-5.82-.05-11.65.94-17.47,0,0,.29,0,.29,0h0Z"/>
            <path class="cls-26" d="m373.71,300.23c.99,5.82.83,11.65.94,17.47.09,5.82.1,11.65.12,17.47-.03,5.82-.05,11.65-.13,17.47-.08,5.82-.01,11.65-.93,17.47h-.29c-1.5-11.62-.79-23.28-1.06-34.95.02-5.82.04-11.65.12-17.47.1-5.82-.05-11.65.94-17.47,0,0,.29,0,.29,0h0Z"/>
          </g>
        </g>
        <g>
          <rect class="cls-16" x="463.53" y="300.23" width="40.73" height="70.56"/>
          <g>
            <rect class="cls-6" x="469.04" y="327.68" width="29.47" height="16.29"/>
            <line class="cls-6" x1="469.04" y1="341.26" x2="498.51" y2="341.26"/>
            <line class="cls-6" x1="469.04" y1="338.54" x2="498.51" y2="338.54"/>
            <line class="cls-6" x1="469.04" y1="335.83" x2="498.51" y2="335.83"/>
            <line class="cls-6" x1="469.04" y1="333.11" x2="498.51" y2="333.11"/>
            <line class="cls-6" x1="469.04" y1="330.4" x2="498.51" y2="330.4"/>
            <rect class="cls-6" x="478.53" y="327.68" width="10.49" height="16.29"/>
          </g>
          <g>
            <rect class="cls-6" x="469.04" y="349.14" width="29.47" height="16.29"/>
            <line class="cls-6" x1="469.04" y1="362.71" x2="498.51" y2="362.71"/>
            <line class="cls-6" x1="469.04" y1="360" x2="498.51" y2="360"/>
            <line class="cls-6" x1="469.04" y1="357.28" x2="498.51" y2="357.28"/>
            <line class="cls-6" x1="469.04" y1="354.57" x2="498.51" y2="354.57"/>
            <line class="cls-6" x1="469.04" y1="351.85" x2="498.51" y2="351.85"/>
            <rect class="cls-6" x="478.53" y="349.14" width="10.49" height="16.29"/>
          </g>
          <g>
            <rect class="cls-6" x="469.04" y="306.23" width="29.47" height="16.29"/>
            <line class="cls-6" x1="469.04" y1="319.8" x2="498.51" y2="319.8"/>
            <line class="cls-6" x1="469.04" y1="317.09" x2="498.51" y2="317.09"/>
            <line class="cls-6" x1="469.04" y1="314.37" x2="498.51" y2="314.37"/>
            <line class="cls-6" x1="469.04" y1="311.66" x2="498.51" y2="311.66"/>
            <line class="cls-6" x1="469.04" y1="308.94" x2="498.51" y2="308.94"/>
            <rect class="cls-6" x="478.53" y="306.23" width="10.49" height="16.29"/>
          </g>
        </g>
        <rect class="cls-20" x="353.09" y="292.13" width="101.69" height="4.06" rx="2.03" ry="2.03"/>
      </g>
      <rect class="cls-16" x="331.09" y="237.1" width="20.07" height="9.68" rx="2.11" ry="2.11" transform="translate(99.18 583.06) rotate(-90)"/>
      <rect class="cls-16" x="508.88" y="237.1" width="20.07" height="9.68" rx="2.11" ry="2.11" transform="translate(276.98 760.85) rotate(-90)"/>
      <rect class="cls-14" x="508.96" y="253.71" width="19.84" height="7.49" rx="1.83" ry="1.83"/>
      <rect class="cls-14" x="331.55" y="253.71" width="19.84" height="7.49" rx="1.83" ry="1.83"/>
    </g>
    <rect class="cls-16" x="90.3" y="5.04" width="15.86" height="9.17" rx="2.89" ry="2.89"/>
    <g>
      <rect class="cls-22" x="266.93" y="327.43" width="19.63" height="11.45" rx="4.55" ry="4.55"/>
      <rect class="cls-22" x="225.73" y="333.16" width="163.63" height="43.36" rx="20.35" ry="20.35"/>
      <path class="cls-24" d="m251.24,334.8c.99,3.48.83,6.95.94,10.43.09,3.48.1,6.95.12,10.43-.03,3.48-.05,6.95-.13,10.43-.08,3.48-.01,6.95-.93,10.43,0,0-.29,0-.29,0-1.49-6.89-.79-13.9-1.06-20.86.02-3.48.04-6.95.12-10.43.1-3.48-.05-6.95.94-10.43,0,0,.29,0,.29,0h0Z"/>
      <path class="cls-24" d="m364.14,334.8c.99,3.41.83,6.82.94,10.23.09,3.41.1,6.82.12,10.23-.03,3.41-.05,6.82-.13,10.23-.08,3.41-.01,6.82-.93,10.23h-.29c-1.49-6.74-.79-13.63-1.06-20.45.02-3.41.04-6.82.12-10.23.1-3.41-.05-6.82.94-10.23h.29Z"/>
      <rect class="cls-14" x="346.02" y="372.56" width="14.06" height="12.92" rx="2.52" ry="2.52"/>
      <rect class="cls-14" x="254.89" y="372.56" width="14.06" height="12.92" rx="2.52" ry="2.52"/>
      <path class="cls-24" d="m267.56,333.32c1.54-.99,3.07-.83,4.61-.94,1.54-.08,3.07-.12,4.61-.12,1.54,0,3.07.06,4.61.13,1.54.08,3.07.01,4.61.93v.29c-1.54.91-3.07.85-4.61.93-1.54.08-3.07.13-4.61.13-1.54,0-3.07-.04-4.61-.12-1.54-.1-3.07.05-4.61-.94v-.29h0Z"/>
      <path class="cls-24" d="m324.68,333.86c.87,3.96-3.28,6.73-6.44,8.01-7.85,3.12-18.89,2.83-25.5-2.9-1.32-1.29-2.28-3.26-1.82-5.1,0,0,.29,0,.29,0,1.07,3.21,3.99,4.82,6.94,6.01,7.3,2.44,17.06,2.38,23.46-2.29,1.24-.96,2.22-2.07,2.78-3.71h.29Z"/>
    </g>
    <g>
      <rect class="cls-10" x="44.42" y="349.85" width="109.01" height="27.24"/>
      <g>
        <rect class="cls-9" x="146.61" y="350.06" width="12" height="29.25"/>
        <rect class="cls-9" x="36.16" y="343.72" width="125.55" height="7.04"/>
      </g>
      <rect class="cls-9" x="39.26" y="350.06" width="12" height="29.25"/>
      <path class="cls-19" d="m39.61,350.93c.95-.99,1.89-.83,2.84-.94.95-.08,1.89-.12,2.84-.12.95,0,1.89.06,2.84.13.95.08,1.89.01,2.84.93v.29c-.95.91-1.89.85-2.84.93-.95.08-1.89.13-2.84.13-.95,0-1.89-.04-2.84-.12-.95-.1-1.89.05-2.84-.94v-.29h0Z"/>
      <path class="cls-19" d="m147.53,350.93c.87-.99,1.74-.83,2.6-.94.87-.08,1.74-.12,2.6-.12.87,0,1.74.06,2.6.13.87.08,1.74.01,2.6.93v.29c-.87.91-1.74.85-2.6.93-.87.08-1.74.13-2.6.13-.87,0-1.74-.04-2.6-.12-.87-.1-1.74.05-2.6-.94v-.29h0Z"/>
      <path class="cls-9" d="m67.37,351.08c.99,2.11.83,4.22.94,6.32.09,2.11.1,4.22.12,6.32-.26,4.21.42,8.58-1.06,12.65,0,0-.29,0-.29,0-1.48-4.08-.8-8.43-1.06-12.65.02-2.11.04-4.22.12-6.32.1-2.11-.05-4.22.94-6.32,0,0,.29,0,.29,0h0Z"/>
      <path class="cls-9" d="m82.99,351.71c.99,2.06.83,4.11.94,6.17.08,2.06.12,4.11.12,6.17,0,2.06-.06,4.11-.13,6.17-.08,2.06-.01,4.11-.93,6.17h-.29c-.91-2.06-.85-4.11-.93-6.17-.08-2.06-.13-4.11-.13-6.17,0-2.06.04-4.11.12-6.17.1-2.06-.05-4.11.94-6.17h.29Z"/>
      <path class="cls-9" d="m98.31,375.74c-.99-2.03-.83-4.06-.94-6.09-.08-2.03-.12-4.06-.12-6.09,0-2.03.06-4.06.13-6.09.08-2.03.01-4.06.93-6.09h.29c.91,2.03.85,4.06.93,6.09.08,2.03.13,4.06.13,6.09,0,2.03-.04,4.06-.12,6.09-.1,2.03.05,4.06-.94,6.09h-.29Z"/>
      <path class="cls-9" d="m114.23,351.71c.99,2.08.83,4.16.94,6.24.08,2.08.12,4.16.12,6.24,0,2.08-.06,4.16-.13,6.24-.08,2.08-.01,4.16-.93,6.24h-.29c-.91-2.08-.85-4.16-.93-6.24-.08-2.08-.13-4.16-.13-6.24,0-2.08.04-4.16.12-6.24.1-2.08-.05-4.16.94-6.24h.29Z"/>
      <path class="cls-9" d="m129.85,352.34c.99,2.08.83,4.16.94,6.24.08,2.08.12,4.16.12,6.24,0,2.08-.06,4.16-.13,6.24-.08,2.08-.01,4.16-.93,6.24h-.29c-.91-2.08-.85-4.16-.93-6.24-.08-2.08-.13-4.16-.13-6.24,0-2.08.04-4.16.12-6.24.1-2.08-.05-4.16.94-6.24h.29Z"/>
    </g>
  </g>
  <g class="cls-29">
    <g>
      <circle class="cls-28" cx="98.35" cy="6.52" r="5.04"/>
      <g>
        <path class="cls-5" d="m96.71,8.81s321.32,54.56,524.42,36.38"/>
        <path class="cls-5" d="m-61.89,72.73C27.28,74.03,95.24,9.62,95.24,9.62c0,0,255.09,109.84,525.83,89.81"/>
      </g>
      <g>
        <g>
          <g>
            <polygon class="cls-4" points="122.47 351.88 74.01 351.88 94.11 13.81 102.37 13.81 122.47 351.88"/>
            <line class="cls-4" x1="102.82" y1="21.23" x2="93.67" y2="21.23"/>
            <line class="cls-4" x1="103.31" y1="29.49" x2="93.17" y2="29.49"/>
            <line class="cls-4" x1="103.85" y1="38.71" x2="92.63" y2="38.71"/>
            <line class="cls-4" x1="104.47" y1="49.01" x2="92.01" y2="49.01"/>
            <line class="cls-4" x1="105.15" y1="60.54" x2="91.33" y2="60.54"/>
            <line class="cls-4" x1="105.92" y1="73.46" x2="90.56" y2="73.46"/>
            <line class="cls-4" x1="106.78" y1="87.99" x2="89.7" y2="87.99"/>
            <line class="cls-4" x1="107.76" y1="104.35" x2="88.72" y2="104.35"/>
            <line class="cls-4" x1="108.85" y1="122.83" x2="87.63" y2="122.83"/>
            <line class="cls-4" x1="110.1" y1="143.76" x2="86.38" y2="143.76"/>
            <line class="cls-4" x1="111.51" y1="167.56" x2="84.97" y2="167.56"/>
            <line class="cls-4" x1="113.13" y1="194.72" x2="83.35" y2="194.72"/>
            <line class="cls-4" x1="114.98" y1="225.86" x2="81.5" y2="225.86"/>
            <line class="cls-4" x1="117.11" y1="261.74" x2="79.37" y2="261.74"/>
            <line class="cls-4" x1="119.58" y1="303.33" x2="76.9" y2="303.33"/>
          </g>
          <polyline class="cls-2" points="74.01 351.88 94.11 13.81 102.37 13.81 122.47 351.88"/>
        </g>
        <polyline class="cls-4" points="121.96 351.12 76.9 303.33 117.11 261.74 81.5 225.86 113.13 194.72 84.97 167.56 110.1 143.76 87.63 122.83 107.76 104.35 89.7 87.99 105.92 73.46 91.33 60.54 104.47 49.01 92.63 38.71 103.31 29.49 93.67 21.23 102.37 13.81"/>
        <polyline class="cls-4" points="74.88 351.12 119.94 303.33 79.73 261.74 115.34 225.86 83.71 194.72 111.87 167.56 86.74 143.76 109.21 122.83 89.09 104.35 107.14 87.99 90.92 73.46 105.51 60.54 92.37 49.01 104.22 38.71 93.53 29.49 103.18 21.23 94.47 13.81"/>
      </g>
      <rect class="cls-16" x="90.3" y="5.04" width="15.86" height="9.17" rx="2.89" ry="2.89"/>
    </g>
  </g>
</svg>