<?xml version="1.0" encoding="UTF-8"?><svg id="a" xmlns="http://www.w3.org/2000/svg" width="1140" height="528" viewBox="0 0 1140 528"><path d="m64.2983,61.8194C10.5531,101.2447,3.97,176.6359,3.1783,234.9255c-.4517,33.2552-.8771,68.0632,4.5622,101.0454,5.0604,30.6852,4.433,62.2943,14.0939,92.5448,8.8275,27.6409,25.8656,54.2147,52.7183,70.4075,27.0673,16.3222,61.0415,20.5542,93.7565,22.2798,99.5092,5.2486,199.2809-6.6111,298.7401-8.6448,155.6716-3.1835,310.6454,12.3353,466.3411,2.8855,46.9249-2.8481,96.6003-8.3374,133.2851-34.34,40.3621-28.6092,56.4684-76.1341,63.8415-121.3798,10.4024-63.8348,7.7517-128.9142-3.2821-192.5356-7.5655-43.6227-12.7324-91.6854-50.2571-123.0427-73.2903-61.2446-299.229-31.5072-492.5204-30.3635C375.7901,15.0169,177.7375-21.3949,64.2983,61.8194Z" fill="#dbe7f1" stroke-width="0"/><line x1="170.0466" y1="244.1309" x2="170.0466" y2="205.4985" fill="#fff" stroke="#000" stroke-linejoin="round" stroke-width="2"/><line x1="128.0466" y1="272.7909" x2="212.0466" y2="272.7909" fill="#fff" stroke="#000" stroke-linejoin="round" stroke-width="2"/><line x1="146.5266" y1="286.8021" x2="193.5666" y2="286.8021" fill="#fff" stroke="#000" stroke-linejoin="round" stroke-width="2"/><line x1="128.0466" y1="244.7685" x2="212.0466" y2="244.7685" fill="#fff" stroke="#000" stroke-linejoin="round" stroke-width="2"/><line x1="146.5266" y1="258.7797" x2="193.5666" y2="258.7797" fill="#fff" stroke="#000" stroke-linejoin="round" stroke-width="2"/><path d="m1027.5459,268.4251v.1348c.9707.6748,1.5107,2.0518,3.7227,6.2354.5938,1.0796,1.2412,1.377,2.4814,1.377l-.1611.8096h-4.1006c-2.0234-4.4536-2.5898-5.5874-3.4268-7.2339-.4043-.7559-.7549-.918-1.7266-.918h-.5664l-.998,4.8047c-.459,2.2402-.1621,2.5376,2.1582,2.5376l-.1348.8096h-7.4463l.1621-.8096c1.9961,0,2.4014-.27,2.8594-2.5376l2.374-11.5801c.2969-1.4844.1348-1.9971-2.0234-1.9971l.1621-.8101h6.3398c3.7773,0,5.9893,1.1069,5.9893,3.7251,0,3.8062-3.3184,5.0479-5.665,5.4526Zm-3.5879-.5938l.8359.0269c3.2373-.1079,5.7461-1.3228,5.7461-4.7778,0-1.4575-.8096-2.7803-3.4805-2.7803-.7012,0-.9707.0269-1.5918.0811l-1.5098,7.4502Z" stroke-width="0"/><path d="m1035.1318,281.9729l.0938-.4409c1.4795,0,1.8564-.2676,2.0137-1.0552l1.416-6.6606c.126-.5513.0479-.772-.3457-.772-.3145,0-.9131.0947-1.4316.252l.1104-.5195,3.0039-.8662h.457l-1.8252,8.5664c-.1572.772.1729,1.0552,1.6201,1.0552l-.0938.4409h-5.0186Z" stroke-width="0"/><path d="m240.8018,265.5579h1.6289c1.0234-.0156,1.8281-.2852,2.4141-.8086s.8789-1.2305.8789-2.1211c0-2-.9961-3-2.9883-3-.9375,0-1.6855.2676-2.2441.8027s-.8379,1.2441-.8379,2.127h-2.168c0-1.3516.4941-2.4746,1.4824-3.3691s2.2441-1.3418,3.7676-1.3418c1.6094,0,2.8711.4258,3.7852,1.2773s1.3711,2.0352,1.3711,3.5508c0,.7422-.2402,1.4609-.7207,2.1562s-1.1348,1.2148-1.9629,1.5586c.9375.2969,1.6621.7891,2.1738,1.4766s.7676,1.5273.7676,2.5195c0,1.5312-.5,2.7461-1.5,3.6445s-2.3008,1.3477-3.9023,1.3477-2.9043-.4336-3.9082-1.3008-1.5059-2.0117-1.5059-3.4336h2.1797c0,.8984.293,1.6172.8789,2.1562s1.3711.8086,2.3555.8086c1.0469,0,1.8477-.2734,2.4023-.8203s.832-1.332.832-2.3555c0-.9922-.3047-1.7539-.9141-2.2852s-1.4883-.8047-2.6367-.8203h-1.6289v-1.7695Z" stroke-width="0"/><path d="m251.3955,274.0071c0-.375.1113-.6875.334-.9375s.5566-.375,1.002-.375.7832.125,1.0137.375.3457.5625.3457.9375c0,.3594-.1152.6602-.3457.9023s-.5684.3633-1.0137.3633-.7793-.1211-1.002-.3633-.334-.543-.334-.9023Z" stroke-width="0"/><path d="m268.1416,267.8665c0,2.5391-.4336,4.4258-1.3008,5.6602s-2.2227,1.8516-4.0664,1.8516c-1.8203,0-3.168-.6035-4.043-1.8105s-1.3281-3.0098-1.3594-5.4082v-2.8945c0-2.5078.4336-4.3711,1.3008-5.5898s2.2266-1.8281,4.0781-1.8281c1.8359,0,3.1875.5879,4.0547,1.7637s1.3125,2.9902,1.3359,5.4434v2.8125Zm-2.168-2.9648c0-1.8359-.2578-3.1738-.7734-4.0137s-1.332-1.2598-2.4492-1.2598c-1.1094,0-1.918.418-2.4258,1.2539s-.7695,2.1211-.7852,3.8555v3.4688c0,1.8438.2676,3.2051.8027,4.084s1.3457,1.3184,2.4316,1.3184c1.0703,0,1.8652-.4141,2.3848-1.2422s.791-2.1328.8145-3.9141v-3.5508Z" stroke-width="0"/><path d="m283.0713,272.1555l4.875-14.0742h2.4609l-6.3281,17.0625h-1.9922l-6.3164-17.0625h2.4492l4.8516,14.0742Z" stroke-width="0"/><polyline points="170 287.1454 170 459.0256 475.252 459.0256 654.9537 459.0256 970 459.0256 970 323.4934 947.5 316.069 947.5 315.9659 992.5 301.1189 947.5 286.2738 992.5 271.429 992.5 271.4113 947.5 256.5662 992.5 241.7214 947.5 226.8752 970.0035 219.4506 992.5 212.0283 970 204.6057 970 69.0736 647.1406 69.0736 486.9717 69.0736 170 69.0736 170 243.4734" fill="none" stroke="#000" stroke-linecap="square" stroke-linejoin="round" stroke-width="2"/><polyline points="703.3489 69.0736 703.3489 204.6057 725.8489 212.0283 703.3523 219.4506 680.8489 226.8752 725.8489 241.7214 680.8489 256.5662 725.8489 271.4113 725.8489 271.429 680.8489 286.2738 725.8489 301.1189 680.8489 315.9659 680.8489 316.069 703.3489 323.4934 703.3489 459.0256" fill="none" stroke="#000" stroke-linejoin="round" stroke-width="2"/><path d="m758.2041,268.4251v.1348c.9707.6748,1.5107,2.0518,3.7227,6.2354.5938,1.0796,1.2412,1.377,2.4814,1.377l-.1611.8096h-4.1006c-2.0234-4.4536-2.5898-5.5874-3.4268-7.2339-.4043-.7559-.7549-.918-1.7266-.918h-.5664l-.998,4.8047c-.459,2.2402-.1621,2.5376,2.1582,2.5376l-.1348.8096h-7.4463l.1621-.8096c1.9961,0,2.4014-.27,2.8594-2.5376l2.374-11.5801c.2969-1.4844.1348-1.9971-2.0234-1.9971l.1621-.8101h6.3398c3.7773,0,5.9893,1.1069,5.9893,3.7251,0,3.8062-3.3184,5.0479-5.665,5.4526Zm-3.5879-.5938l.8359.0269c3.2373-.1079,5.7461-1.3228,5.7461-4.7778,0-1.4575-.8096-2.7803-3.4805-2.7803-.7012,0-.9707.0269-1.5918.0811l-1.5098,7.4502Z" stroke-width="0"/><path d="m770.9502,281.9729h-6.1357l.1104-.5356,2.8789-2.3618c2.4062-2.0942,3.2715-3.0234,3.2715-4.7085,0-.9131-.5342-1.543-1.5566-1.543-1.0234,0-1.7305.4092-2.6279,1.5747l-.3457-.1577c.8809-1.4961,1.9668-2.4092,3.6025-2.4092,1.4941,0,2.4072.8662,2.4072,2.2046,0,1.6377-1.1016,2.7085-3.4932,4.6929l-2.4219,1.9683-.0166.0786,1.0547-.0474h2.1865c.834,0,1.1016-.3306,1.668-1.2754h.4561l-1.0381,2.5195Z" stroke-width="0"/></svg>