<?xml version="1.0" encoding="utf-8"?>
<!-- Generator: Adobe Illustrator 25.4.1, SVG Export Plug-In . SVG Version: 6.00 Build 0)  -->
<svg version="1.1" id="Layer_1" xmlns="http://www.w3.org/2000/svg" xmlns:xlink="http://www.w3.org/1999/xlink" x="0px" y="0px"
	 viewBox="0 0 1140 600" style="enable-background:new 0 0 1140 600;" xml:space="preserve">
<style type="text/css">
	.st0{clip-path:url(#SVGID_00000071534074838748960810000003300638624665709958_);}
	.st1{fill:#C3DDD8;}
	.st2{fill:none;stroke:#BCBCBC;stroke-width:7;stroke-miterlimit:10;}
	.st3{fill:#F2F4F3;}
	.st4{fill:none;stroke:#000000;stroke-width:2;stroke-miterlimit:10;}
	.st5{fill:#C87550;}
	.st6{fill:#562323;}
	.st7{clip-path:url(#SVGID_00000028293290635922795680000015637819511030691992_);}
	.st8{fill:#5C7B7C;}
	.st9{clip-path:url(#SVGID_00000103267494320543320410000000962008400151269293_);}
	.st10{clip-path:url(#SVGID_00000151517714909093836250000001687827285645289888_);}
	.st11{fill:#010101;}
	.st12{fill:#939CB2;}
	.st13{fill:#6D7084;}
</style>
<g>
	<defs>
		<path id="SVGID_1_" d="M1138,309.9c4.6,51.8-5.2,103.8-28.4,150.3c-32.3,65.1-111.9,116.5-204.5,130.8
			c-104.2,16.1-210-12.6-316.1-15.3c-117.8-3-238.7,25.8-352.2,3.4c-67.1-13.3-126.7-44.5-166.3-86.1
			c-54-56.7-69.7-129.5-62.2-199.1C16.3,220.4,59.2,148.4,137,99.8C266.5,18.7,474.2,6.6,636.4,9.6c113.2,2.1,253.1,18.1,344.9,70.1
			c85.7,48.6,138.2,125.5,153,203.5C1135.9,292.1,1137.2,301,1138,309.9z"/>
	</defs>
	<clipPath id="SVGID_00000098922934824486398710000009049481473928145065_">
		<use xlink:href="#SVGID_1_"  style="overflow:visible;"/>
	</clipPath>
	<g style="clip-path:url(#SVGID_00000098922934824486398710000009049481473928145065_);">
		<path class="st1" d="M1137.5,309.1c4.6,51.8-5.2,103.8-28.4,150.3c-32.3,65.1-111.9,116.5-204.5,130.8
			c-104.2,16.1-210-12.6-316.1-15.3c-117.8-3-238.7,25.8-352.2,3.4c-67.1-13.3-126.7-44.5-166.3-86.1
			c-54-56.7-69.7-129.5-62.2-199.1C15.8,219.6,58.7,147.6,136.5,99C266,17.9,473.7,5.8,635.9,8.8C749.1,10.9,889,26.9,980.7,78.9
			c85.7,48.6,138.2,125.5,153,203.5C1135.4,291.3,1136.7,300.2,1137.5,309.1z"/>
		<polyline class="st2" points="195.4,363.5 503.4,481.2 955.7,402.4 		"/>
		<polygon class="st3" points="957.2,398.6 504.9,477.3 196.9,360.6 654.6,283.9 		"/>
		<ellipse class="st4" cx="561.7" cy="380.6" rx="162.4" ry="48.3"/>
		<polygon points="694.8,395.3 714.7,397.1 703.2,413.4 		"/>
		<polygon points="441,401.4 453.9,416.6 434.3,420.2 		"/>
		<path class="st5" d="M767.7,218.1c0,0-68.5-54.6-81.7-62.8s-71.4-43.5-71.4-43.5s-27.8-31.7-33.7-35.7s-12.1-1.6-15.5,5.5
			c-2.5,5.4,0.9,34.3,9.2,48.3c3.4,5.8,37.3,33.2,37.3,33.2s-2.9,46.9,28,78.2s79.2,40.5,79.2,40.5L767.7,218.1z"/>
		<path class="st5" d="M631.9,182.2c4.6-2-36-3.5-49.8,5.8c-6.6,4.4-5,52.7-5,52.7s35.6,104.6,43.2,107.3s98.8,17.3,128,0.5
			c11.3-6.5,19.5-130.4,19.5-130.4L631.9,182.2z"/>
		<path class="st5" d="M588.4,184.5c-3.1-0.4-66.5,9.9-73,11.5c-16.9,4.1-13.9,7.7-17.8,24.8c-2.3,10.3-1.1,21,3.5,30.4
			c0,0,44.6-21.3,46.4-20.4s25.5,3.3,25.5,3.3s12.7-23.1,13.3-27.8S588.4,184.5,588.4,184.5z"/>
		<path class="st5" d="M576.9,222.7c-20.5,8.4-35.2,24.5-42.4,35.1c-4,5.9,6.2,24.8,18.6,28.1s43.5-2.1,43.5-2.1L576.9,222.7z"/>
		<path class="st5" d="M505.6,199.2c5-0.1,60.6,27,63.1,32.1s5.1,21.5-0.7,28.7c-5.8,7.2-61.9-1.3-68.3-5.3
			c-8.2-5.1-10.6-18.5-9.2-27.4C491.9,219.1,501.8,199.3,505.6,199.2z"/>
		<path class="st5" d="M613,267.2c-3.4-3.3-44.4-4.5-55.7-5.8s-47.5-7.8-50.2-3.3c-2.8,4.5-9.1,25.8,3.3,37.4
			c11.5,10.7,49,13.8,53.5,15.5s48.5-6.8,52-7.1S627.9,281.4,613,267.2z"/>
		<path class="st5" d="M523.5,301.8c-2.3,0.4-4,2.4-4.1,4.8c-0.3,8.4-0.9,27.3,0,31.6c1.2,5.6,11,11,23.7,9.1s51.9-15.7,57.5-16.9
			s40.5-8.2,41-18.2s-3.5-19.3-7.9-21l-11.6-4.1c-0.9-0.3-1.3,1.3-2.3,1.5L523.5,301.8z"/>
		<path class="st5" d="M636.1,321.9c0.3,3.5-0.4,18.5-6.7,26.3S567,373.4,567,373.4s-30.3,3.6-35.7-8.7s-5.5-19.6-5.5-19.6
			L636.1,321.9z"/>
		<path class="st5" d="M767.7,218.1c0,0,135.4,9.5,177.2,19.9s-8.7,147.5-8.7,147.5l-200-35L767.7,218.1z"/>
		<path class="st6" d="M528,211.4c0.8,0,1.5,0.1,2.2,0.3c0.7,0.1,1.5,0.3,2.2,0.5c1.4,0.4,2.8,0.8,4.2,1.3c2.8,0.9,5.5,2,8.3,3.1
			c5.4,2.3,10.8,4.8,16,7.6c1.3,0.7,2.6,1.5,3.9,2.3c1.3,0.8,2.6,1.7,3.7,2.8c0.3,0.3,0.6,0.6,0.9,1c0.1,0.2,0.3,0.4,0.4,0.6
			l0.2,0.6c0.3,0.7,0.6,1.4,0.8,2.2c0.4,1.4,0.8,2.9,1.1,4.4c0.6,3,0.8,6,0.8,9c0,3.1-0.4,6.1-1.3,9c-0.5,1.5-1.2,3-2.1,4.2
			c-0.1,0.2-0.2,0.3-0.4,0.5c-0.2,0.2-0.3,0.4-0.5,0.5c-0.3,0.3-0.7,0.5-1.1,0.7c-0.7,0.4-1.5,0.7-2.3,0.9c-2.9,0.7-6,1.1-9,1.1
			c-5.9,0.1-11.8-0.1-17.7-0.7c-5.9-0.5-11.7-1.2-17.5-2.3c-2.9-0.5-5.8-1.1-8.7-1.8c-1.4-0.3-2.9-0.7-4.3-1.2
			c-0.7-0.2-1.4-0.5-2.1-0.7c-0.7-0.2-1.4-0.6-2-1c-0.1-0.1-0.1-0.1,0-0.2c0-0.1,0.1-0.1,0.2,0l0,0c0.6,0.3,1.3,0.6,2,0.7
			c0.7,0.2,1.4,0.3,2.1,0.5c1.4,0.3,2.9,0.5,4.3,0.8c2.9,0.5,5.8,0.9,8.7,1.3c5.8,0.8,11.6,1.4,17.4,1.9c5.8,0.5,11.6,0.7,17.5,0.5
			c2.8-0.1,5.7-0.4,8.4-1.1c0.6-0.2,1.2-0.4,1.8-0.7c0.3-0.1,0.5-0.3,0.7-0.5c0.1-0.1,0.2-0.2,0.3-0.2c0.1-0.1,0.2-0.3,0.3-0.4
			c0.8-1.1,1.4-2.3,1.8-3.6c0.8-2.7,1.2-5.5,1.2-8.3c0-2.9-0.2-5.7-0.8-8.5c-0.2-1.4-0.6-2.8-1-4.2c-0.2-0.7-0.4-1.3-0.7-2l-0.2-0.5
			c0-0.1-0.1-0.2-0.2-0.3c-0.2-0.2-0.4-0.5-0.6-0.7c-1-0.9-2.1-1.8-3.3-2.5c-1.2-0.8-2.4-1.5-3.7-2.2c-5.1-2.9-10.3-5.4-15.7-7.8
			l-8-3.5c-1.3-0.6-2.7-1.2-4-1.7c-1.3-0.6-2.7-1.1-4.1-1.5h0c-0.1,0-0.1-0.1-0.1-0.2C527.9,211.5,527.9,211.4,528,211.4L528,211.4z
			"/>
		<path class="st6" d="M546.4,233.3c0.2-0.3,0.4-0.3,0.5-0.4c0.2-0.1,0.3-0.1,0.5-0.1c0.3-0.1,0.7-0.1,1-0.1
			c0.7-0.1,1.4-0.1,2.1-0.1c1.4,0,2.7,0,4.1,0.1c2.7,0.2,5.4,0.5,8.1,0.9c0.6,0.1,0.9,0.6,0.9,1.1c0,0.2-0.1,0.4-0.2,0.5l0,0
			c-2.1,2.6-3.9,5.4-5.3,8.3c-1.4,2.9-2.3,6.1-2.4,9.3c0,0.8,0,1.6,0.1,2.4l0.1,0.6c0,0.1,0,0.1,0,0.2c0,0.1,0,0.2,0,0.3
			c0,0.2-0.1,0.4-0.2,0.6c-0.1,0.1-0.1,0.2-0.2,0.2c-0.1,0-0.1,0.1-0.2,0.1c-0.1,0.1-0.2,0.1-0.3,0.1c-0.2,0-0.4,0-0.6,0
			c-0.2,0-0.3-0.1-0.5-0.1c-0.5-0.1-0.9-0.3-1.3-0.5c-1.6-0.7-3.1-1.5-4.7-2.3c-3-1.7-6.1-3-8.6-5.6c-0.1-0.1-0.1-0.2,0-0.2
			c0,0,0.1,0,0.1,0c3.5,0.6,6.4,2.5,9.5,3.8c1.5,0.7,3.1,1.5,4.6,2.1c0.4,0.1,0.8,0.3,1.1,0.4l0.1,0c-0.1,0-0.2,0-0.2,0l-0.1,0
			c-0.1,0-0.1,0-0.2,0.1c-0.1,0-0.1,0.1-0.1,0.1c-0.1,0.1-0.1,0.1-0.2,0.2c-0.1,0.1-0.2,0.3-0.2,0.5c0,0.1,0,0.1,0,0.2
			c0,0,0,0.1,0,0.1l-0.1-0.7c-0.1-0.9-0.1-1.8-0.1-2.7c0.2-3.6,1.1-7.1,2.8-10.2c1.5-3.1,3.5-6.1,5.8-8.7l0.6,1.7l-8-1.2l-4-0.6
			c-0.7-0.1-1.3-0.2-2-0.3c-0.3,0-0.7-0.1-1-0.1c-0.2,0-0.3,0-0.5,0c-0.1,0-0.2,0-0.3,0.1l-0.2,0.1
			C546.5,233.5,546.4,233.5,546.4,233.3C546.4,233.4,546.4,233.4,546.4,233.3z"/>
		<path class="st6" d="M545.3,233.1c0.3,1.5-0.4,2.5-0.8,3.7c-0.5,1.1-1,2.2-1.4,3.3s-1,2.2-1.5,3.2c-0.2,0.5-0.4,1.1-0.7,1.6
			c-0.3,0.5-0.6,1.1-1,1.5l0,0c-0.1,0.1-0.2,0.1-0.2,0c0,0,0,0,0,0c-0.4-0.6-0.6-1.3-0.5-2.1c0-0.3,0.1-0.6,0.2-1
			c0.1-0.3,0.2-0.6,0.3-0.9c0.4-1.2,0.8-2.4,1.3-3.5c0.5-1.1,1.1-2.2,1.7-3.3c0.6-1.1,1.1-2.2,2.5-2.8
			C545.1,233,545.3,233,545.3,233.1C545.3,233.1,545.3,233.1,545.3,233.1C545.3,233.1,545.3,233.1,545.3,233.1z"/>
		<path class="st6" d="M539.4,203.6c1.6,0.7,2.2,2,3,3.2c0.8,1.2,1.5,2.4,2.2,3.7c0.7,1.3,1.3,2.6,1.8,4c0.5,1.3,1.2,2.8,0.6,4.4
			c0,0.1-0.1,0.1-0.2,0.1c0,0,0,0,0,0c0,0,0,0-0.1,0l0,0c-0.3-0.3-0.6-0.5-0.8-0.9c-0.2-0.3-0.4-0.6-0.6-0.9
			c-0.3-0.6-0.6-1.2-0.9-1.9l-2-3.7l-1.9-3.8c-0.6-1.3-1.5-2.4-1.4-4.1C539.2,203.7,539.2,203.6,539.4,203.6
			C539.4,203.6,539.4,203.6,539.4,203.6z"/>
		<path class="st6" d="M587.3,207.8c0.1,2.5-0.9,4.5-1.7,6.6s-1.6,4.2-2.5,6.3c-0.9,2.1-1.8,4.2-2.7,6.2s-1.7,4.2-3.4,5.9
			c-0.1,0.1-0.2,0.1-0.2,0c0,0,0-0.1,0-0.1c0-2.4,0.9-4.5,1.7-6.6s1.6-4.2,2.4-6.3c0.9-2.1,1.7-4.2,2.7-6.2s1.7-4.2,3.4-5.9
			c0.1-0.1,0.2-0.1,0.2,0C587.3,207.7,587.3,207.8,587.3,207.8L587.3,207.8z"/>
		<path class="st6" d="M612.1,179.8c2,3.7,3.1,7.6,4.6,11.5c1.4,3.8,2.9,7.6,4.5,11.4c1.6,3.8,3.2,7.5,5.1,11.1
			c0.5,0.9,1,1.8,1.5,2.7c0.5,0.8,1,1.8,1.6,2.6c1,1.7,2.2,3.4,3.4,5l0,0c0.1,0.1,0,0.2,0,0.2c0,0-0.1,0-0.2,0
			c-0.5-0.2-0.9-0.5-1.4-0.8c-0.4-0.3-0.9-0.6-1.2-1c-0.8-0.7-1.5-1.5-2.2-2.3c-0.7-0.8-1.2-1.7-1.8-2.6c-0.6-0.9-1.1-1.8-1.6-2.7
			c-2-3.6-3.8-7.4-5.4-11.2c-1.6-3.8-3.1-7.7-4.3-11.6c-1.3-3.9-2.7-7.9-2.8-12.1c0-0.1,0.1-0.2,0.1-0.2
			C612,179.7,612,179.8,612.1,179.8L612.1,179.8z"/>
		<path class="st6" d="M760.3,224.1c0.5,1.5,0.7,3,0.5,4.6c-0.1,0.8-0.2,1.5-0.3,2.3c-0.2,0.7-0.3,1.5-0.5,2.2
			c-0.4,1.5-0.9,2.9-1.5,4.3c-0.6,1.4-1.1,2.8-1.8,4.2c-2.5,5.4-5.4,10.7-8.7,15.7c-3.2,5-6.7,9.9-10.3,14.7l-2.7,3.6
			c-0.9,1.2-1.8,2.4-2.8,3.5c-1.9,2.3-4,4.5-6.1,6.5c-0.1,0.1-0.2,0.1-0.2,0c0,0-0.1-0.1,0-0.2c3-5.2,6.7-9.8,10.1-14.7
			c1.8-2.4,3.4-4.9,5.1-7.3c1.7-2.4,3.3-4.9,4.9-7.4c3.2-4.9,6.1-10.1,8.8-15.3c0.7-1.3,1.2-2.7,1.8-4c0.3-0.7,0.5-1.4,0.8-2
			c0.2-0.7,0.6-1.4,0.8-2c0.2-0.7,0.5-1.4,0.7-2.1c0.2-0.7,0.4-1.4,0.6-2.1c0.4-1.4,0.6-2.8,0.6-4.3v0c0-0.1,0.1-0.1,0.1-0.1
			c0,0,0,0,0,0C760.2,224.1,760.3,224.1,760.3,224.1z"/>
		<path class="st6" d="M529,300.9c3.9,1.9,8.2,2.5,12.5,2.9c4.3,0.4,8.6,0.4,13,0.4s8.7-0.3,13-0.5s8.7-0.6,13-0.9
			c1.1-0.1,2.2-0.1,3.4-0.1c0.3,0,0.7,0,0.9,0.1c0.2,0,0.4,0,0.6,0c0.5,0,1-0.1,1.5-0.2c2.1-0.4,4.2-1,6.2-1.6
			c4.1-1.2,8.2-2.6,12.3-4.1s8.1-3.1,12.1-4.8c4-1.7,7.8-3.6,11.6-5.7c0.9-0.5,1.8-1.1,2.7-1.7l0.6-0.5l0.3-0.2
			c0.1-0.1,0.1-0.1,0.2-0.1c0.3-0.3,0.5-0.7,0.7-1.1c0.8-1.9,1.3-3.9,1.5-5.9c0.4-4.2-0.3-8.3-2-12.1c-1.8-3.8-4.6-7-8.1-9.3
			c-0.4-0.3-0.9-0.6-1.3-0.9L623,254c-0.1-0.1-0.3-0.1-0.4-0.1c-1-0.1-2-0.1-3,0.1c-2.1,0.2-4.3,0.5-6.4,0.9
			c-8.5,1.5-17.1,3.3-25.6,4.9c-4.3,0.7-8.6,1.6-13,2c-2.2,0.2-4.4,0.3-6.6,0.1c-2.2-0.2-4.3-0.3-6.5-0.3c-0.1,0-0.1-0.1-0.1-0.1
			c0,0,0,0,0,0c0-0.1,0.1-0.1,0.1-0.1c2.2-0.2,4.4-0.3,6.5-0.3c2.2,0,4.3-0.2,6.4-0.5c4.2-0.7,8.5-1.6,12.8-2.4
			c8.5-1.7,17-3.6,25.6-5.1c2.2-0.4,4.3-0.7,6.5-1c1.2-0.1,2.3-0.2,3.5-0.1c0.4,0,0.8,0.2,1.2,0.4l0.7,0.4c0.5,0.3,1,0.6,1.4,0.9
			c3.8,2.5,6.9,6,8.9,10.1c2,4.1,2.8,8.7,2.3,13.3c-0.2,2.3-0.7,4.6-1.7,6.7c-0.3,0.6-0.6,1.2-1.1,1.7c-0.1,0.1-0.3,0.3-0.4,0.4
			l-0.3,0.3l-0.7,0.5c-0.9,0.7-1.9,1.2-2.8,1.8c-3.8,2.2-7.8,4.1-11.9,5.8c-4,1.7-8.1,3.3-12.2,4.8s-8.3,2.9-12.5,4.1
			c-2.1,0.6-4.2,1.2-6.4,1.6c-0.6,0.1-1.1,0.2-1.7,0.2c-0.3,0-0.7,0-1,0c-0.4,0-0.5,0-0.7-0.1c-1,0-2.1,0-3.2,0.1
			c-8.7,0.6-17.4,1.3-26.1,1.2c-4.4,0-8.8-0.3-13.1-0.9c-4.3-0.7-8.7-1.7-12.5-4c-0.1,0-0.1-0.1,0-0.2
			C528.9,300.9,529,300.9,529,300.9z"/>
		<path class="st6" d="M620.6,258.6c-0.1,0.1-0.2,0.2-0.3,0.3l-0.3,0.3l-0.7,0.6c-0.5,0.4-0.9,0.7-1.4,1.1c-0.9,0.7-1.9,1.4-2.9,2.1
			c-1.9,1.3-3.9,2.6-5.8,3.9c-1,0.7-1.9,1.3-2.8,2c-0.2,0.2-0.4,0.3-0.6,0.5c-0.2,0.2-0.2,0.1-0.3,0.3c-0.1,0.4-0.2,0.9-0.1,1.3
			c0.2,2.2,0.7,4.4,1.6,6.4c0.4,1,0.9,2,1.5,2.9c0.5,0.9,1.2,1.6,2.1,2.2c0.3,0.2,0.7,0.4,1.2,0.4c0.5,0,1,0,1.5,0
			c1.1-0.1,2.2-0.4,3.2-0.7c4.4-1.4,8.7-3.2,12.8-5.3l-0.6,1.2c-0.3-1.7-0.7-3.5-1.1-5.2s-1-3.4-1.6-5.1c-0.6-1.7-1.3-3.3-2.1-4.9
			c-0.4-0.8-0.9-1.5-1.4-2.2c-0.3-0.3-0.6-0.7-0.9-1L621,259L620.6,258.6z M620.6,258.3c1.8,0.7,3.4,2,4.4,3.6
			c1.1,1.5,2,3.2,2.7,4.9c0.7,1.7,1.3,3.5,1.8,5.3c0.5,1.8,0.9,3.6,1.3,5.4c0.1,0.5-0.1,0.9-0.6,1.1l0,0c-4.2,2.3-8.6,4.2-13.2,5.6
			c-1.2,0.4-2.4,0.6-3.6,0.8c-0.7,0.1-1.4,0.1-2,0c-0.8-0.1-1.5-0.3-2.1-0.7c-1.1-0.8-2.1-1.7-2.8-2.9c-0.7-1.1-1.3-2.2-1.7-3.3
			c-1-2.3-1.5-4.8-1.6-7.3c0-0.7,0.1-1.5,0.3-2.2c0.1-0.2,0.2-0.4,0.4-0.6l0.1-0.2l0.1-0.1l0.2-0.2c0.2-0.2,0.5-0.4,0.8-0.6
			c1-0.7,2-1.4,3-2c2-1.3,4-2.5,6.1-3.6c1-0.6,2.1-1.1,3.1-1.6c0.5-0.3,1.1-0.5,1.6-0.8l0.8-0.4l0.4-0.2
			C620.2,258.5,620.3,258.4,620.6,258.3L620.6,258.3z"/>
		<path class="st6" d="M571.9,244.5c1.6,0.4,2.3,1.7,3.1,2.8c0.7,1.2,1.3,2.4,1.8,3.7c0.4,1.3,0.8,2.6,1,3.9
			c0.2,1.3,0.6,2.6-0.2,4.1c0,0.1-0.2,0.1-0.2,0.1c0,0,0,0,0,0l0,0c-0.8-1.1-1.4-2.3-1.6-3.6c-0.4-1.2-0.8-2.4-1.2-3.6
			s-0.9-2.3-1.4-3.5c-0.3-0.6-0.6-1.1-0.9-1.6c-0.3-0.6-0.5-1.3-0.5-2v0C571.7,244.6,571.8,244.5,571.9,244.5
			C571.9,244.5,571.9,244.5,571.9,244.5z"/>
		<path class="st6" d="M556.4,345.6c3.3,0.4,6.5,0.2,9.7-0.6c3.2-0.7,6.2-1.9,9.1-3.4c5.8-3,11.6-6.3,17.3-9.6s11.4-6.8,17-10.3
			l8.5-5.2c1.4-0.9,2.8-1.7,4.3-2.6c0.7-0.4,1.5-0.8,2.3-1.2l2.2-1.1c6-2.9,11.8-5.9,17.5-9.3c2.8-1.7,5.5-3.5,8.1-5.5
			c1.3-1,2.5-2.1,3.6-3.2c1.1-1.1,2.1-2.3,2.8-3.7c0.3-0.6,0.5-1.3,0.6-2c0-0.3,0-0.6,0-1c-0.1-0.4-0.1-0.8-0.2-1.2
			c-0.4-1.6-0.8-3.1-1.5-4.6c-1.2-3-2.9-5.8-4.9-8.2c-1-1.2-2.1-2.3-3.4-3.3c-0.6-0.5-1.3-0.8-2-1.1c-0.7-0.2-1.5-0.4-2.3-0.4
			c-3.3-0.3-6.6-0.3-9.9-0.1c-0.1,0-0.2-0.1-0.2-0.1c0,0,0,0,0,0c0-0.1,0-0.1,0.1-0.2c1.6-0.3,3.3-0.5,5-0.7c1.7-0.2,3.4-0.2,5-0.2
			c0.4,0,0.8,0,1.3,0.1c0.5,0,0.9,0.1,1.4,0.2c0.9,0.3,1.7,0.6,2.4,1.1c1.5,1,2.8,2.1,3.9,3.4c2.3,2.6,4.1,5.5,5.4,8.7
			c0.7,1.6,1.2,3.2,1.6,4.9c0.1,0.4,0.2,0.8,0.3,1.3c0.1,0.5,0.1,1,0.1,1.5c-0.1,1-0.4,1.9-0.8,2.7c-0.8,1.6-1.9,3-3.2,4.2
			c-1.2,1.2-2.5,2.4-3.8,3.4c-2.6,2.1-5.4,4-8.3,5.7c-5.7,3.5-11.6,6.6-17.6,9.5l-2.2,1.1c-0.7,0.4-1.4,0.7-2.1,1.1
			c-1.4,0.8-2.8,1.7-4.3,2.5l-8.5,5.1c-5.7,3.4-11.4,6.8-17.1,10.2c-2.9,1.7-5.8,3.3-8.7,4.9s-5.8,3.2-8.9,4.6
			c-1.5,0.7-3.1,1.3-4.7,1.9c-1.6,0.5-3.3,0.9-5,1.1c-3.3,0.5-6.8,0.4-10-0.5c-0.1,0-0.1-0.1-0.1-0.2
			C556.2,345.6,556.3,345.6,556.4,345.6L556.4,345.6z"/>
		<path class="st6" d="M636.7,275.6c1.3-0.8,2.6-1.6,4-2.2c1.4-0.7,2.8-1.3,4.2-1.8c0.4-0.1,0.8-0.1,1,0.2l0,0
			c2.6,2.4,4.9,5,7.1,7.7c1.1,1.4,2.1,2.9,2.9,4.6c0.4,0.9,0.7,1.8,0.9,2.8c0.1,0.6,0,1.2-0.2,1.8c-0.2,0.6-0.5,1.1-0.9,1.5
			c-0.7,0.7-1.5,1.3-2.4,1.8c-0.8,0.4-1.6,0.8-2.5,1.2c-1.6,0.6-3.3,1.2-5,1.7c-3.4,0.9-6.8,1.6-10.2,2.2h0c-0.5,0.1-1-0.2-1.1-0.7
			c-0.4-1.6-0.9-3.1-1.2-4.7c-0.4-1.6-0.6-3.2-0.7-4.9c0-0.1,0.1-0.2,0.1-0.2c0.1,0,0.1,0,0.1,0.1c0.8,1.4,1.5,2.9,2,4.5
			c0.6,1.5,1.1,3.1,1.5,4.6l-1.2-0.7c3.3-0.6,6.7-1.4,9.9-2.4c1.6-0.5,3.2-1,4.8-1.6c1.5-0.5,2.8-1.3,4-2.4c0.2-0.2,0.3-0.4,0.4-0.6
			c0.1-0.3,0.1-0.5,0.1-0.8c-0.1-0.7-0.3-1.4-0.6-2.1c-0.7-1.5-1.6-2.9-2.6-4.2c-2-2.7-4.2-5.3-6.6-7.7l1,0.2
			c-1.4,0.5-2.9,1-4.3,1.4c-1.5,0.4-3,0.8-4.5,1.1c-0.1,0-0.2,0-0.2-0.1C636.6,275.7,636.6,275.6,636.7,275.6z"/>
		<path class="st6" d="M656.6,297.3c2.9,5.7,4.2,12.1,3.9,18.4c-0.2,3.3-1.1,6.5-2.5,9.4c-0.8,1.4-1.8,2.8-3,4
			c-1.1,1.2-2.3,2.3-3.4,3.3c-2.4,2.1-4.8,4-7.3,5.9s-5.1,3.7-7.7,5.4c-5.2,3.5-10.3,7-16.2,9.5c-0.1,0-0.2,0-0.2-0.1c0,0,0,0,0,0
			c0-0.1,0-0.1,0-0.2c4.7-4.2,10-7.4,15.1-11c5-3.6,10-7.3,14.7-11.3c1.2-1,2.3-2,3.3-3.1c1-1,2-2.2,2.7-3.4
			c1.4-2.6,2.2-5.5,2.5-8.5c0.5-6-0.8-12.1-2.1-18.2c0-0.1,0-0.2,0.1-0.2c0,0,0,0,0,0C656.5,297.2,656.6,297.3,656.6,297.3z"/>
		<path class="st6" d="M637.1,311.5c1.5,2,2.6,4,3.8,6c0.6,1,1.2,1.9,2,2.8c0.6,0.8,1.4,1.4,2.3,1.7c0.4,0.2,1.5-0.4,2.4-0.9
			c1-0.6,1.9-1.3,2.7-2c1.8-1.5,3.4-3.2,5-4.9l-0.2,1.2l-3.1-7.1c-0.5-1.2-1-2.4-1.4-3.6c-0.4-1.2-0.8-2.5-1-3.8
			c0-0.1,0-0.2,0.1-0.2c0.1,0,0.1,0,0.1,0.1c0.8,1,1.5,2.1,2.2,3.3c0.7,1.1,1.2,2.3,1.8,3.5l3.3,7c0.2,0.4,0.1,0.9-0.2,1.2l0,0
			c-1.6,1.9-3.3,3.6-5.2,5.2c-1,0.8-2,1.6-3.1,2.2c-0.6,0.3-1.2,0.6-1.8,0.9c-0.4,0.2-0.7,0.3-1.1,0.3c-0.5,0.1-0.9,0-1.4-0.1
			c-0.7-0.2-1.4-0.6-2-1.1c-0.5-0.4-0.9-0.9-1.4-1.5c-0.8-1-1.4-2.1-2-3.2c-1.2-2.1-2-4.5-2.3-6.9c0-0.1,0-0.2,0.1-0.2c0,0,0,0,0,0
			C637,311.4,637,311.4,637.1,311.5z"/>
		<path class="st6" d="M655.8,295.8c1.4,1.4,1.9,2.9,2.8,4.4c0.9,1.5,1.8,2.9,2.9,4.2c1,1.3,2.2,2.6,3.4,3.8c1.2,1.2,2.6,2.2,3.5,4
			v0c0,0.1,0,0.2-0.1,0.2c0,0-0.1,0-0.1,0c-0.9-0.1-1.8-0.5-2.6-1c-0.8-0.5-1.5-1.1-2.2-1.7c-1.4-1.2-2.7-2.5-3.8-3.9
			c-1.1-1.4-2.1-3-2.9-4.7c-0.8-1.6-1.7-3.3-1.2-5.4C655.6,295.8,655.6,295.8,655.8,295.8C655.7,295.8,655.7,295.8,655.8,295.8
			C655.8,295.8,655.8,295.8,655.8,295.8L655.8,295.8z"/>
		<path class="st6" d="M580,75.8c0.4,2.7-0.2,5,0,7.4c0,2.3,0.7,4.5,1.9,6.4c0.3,0.4,0.7,0.8,1.1,1.2c0.4,0.3,1,0.7,1.4,1.1
			c1,0.7,2,1.3,3.1,1.9c2.2,1.2,4.3,2.3,6.5,3.5l0,0c0.1,0,0.1,0.1,0.1,0.2c0,0-0.1,0.1-0.1,0.1c-2.6,0-5.2-0.7-7.4-2
			c-1.1-0.6-2.3-1.2-3.4-1.9c-0.6-0.4-1.1-0.7-1.6-1.1c-0.6-0.4-1.1-1-1.5-1.5c-0.9-1.1-1.5-2.4-1.8-3.8c-0.3-1.3-0.5-2.7-0.5-4
			c0.1-2.6,0.2-5.3,1.9-7.5c0.1-0.1,0.2-0.1,0.2,0C580,75.7,580,75.8,580,75.8L580,75.8z"/>
		<g>
			<g>
				<line class="st4" x1="533.6" y1="119.9" x2="533.6" y2="177.7"/>
				<g>
					<polygon points="523.7,122.8 533.6,105.5 543.6,122.8 					"/>
				</g>
			</g>
		</g>
		<g>
			<defs>
				<path id="SVGID_00000144337151759028265580000013388966487129633158_" d="M528.2,240.1c0,0,1-17.2,14.5-20.6
					c8.2-2.1,30.1,7.4,34.3,24s35.5,1.2,35.5,1.2L585.2-74l-57,30.9V240.1z"/>
			</defs>
			<clipPath id="SVGID_00000149342993584151311510000003414421001881867448_">
				<use xlink:href="#SVGID_00000144337151759028265580000013388966487129633158_"  style="overflow:visible;"/>
			</clipPath>
			<g style="clip-path:url(#SVGID_00000149342993584151311510000003414421001881867448_);">
				<path class="st8" d="M559.9,18.8h0.7c2.6,0,4.7,2.1,4.7,4.7v483c0,2.6-2.1,4.7-4.7,4.7h-0.7c-2.6,0-4.7-2.1-4.7-4.7v-483
					C555.1,21,557.3,18.8,559.9,18.8z"/>
			</g>
		</g>
		<g>
			<defs>
				<polygon id="SVGID_00000058585890774881114810000004456118986347840426_" points="543,471 595.3,462.2 587.9,558.3 539.7,565.7 
									"/>
			</defs>
			<clipPath id="SVGID_00000070834060411903236480000004360010856429331093_">
				<use xlink:href="#SVGID_00000058585890774881114810000004456118986347840426_"  style="overflow:visible;"/>
			</clipPath>
			<g style="clip-path:url(#SVGID_00000070834060411903236480000004360010856429331093_);">
				<path class="st8" d="M560,43.8h0.4c2.7,0,4.9,2.2,4.9,4.9v508.5c0,2.7-2.2,4.9-4.9,4.9H560c-2.7,0-4.9-2.2-4.9-4.9V48.7
					C555.2,46,557.4,43.8,560,43.8z"/>
			</g>
		</g>
		<g>
			<defs>
				<path id="SVGID_00000121249894019231665830000011334918502027498170_" d="M550.9,373.7l9.8,0.2c2.6,0,5.2-0.2,7.7-0.6l26.9-4.6
					l-7.4,24.5l-48.2,1.9L550.9,373.7z"/>
			</defs>
			<clipPath id="SVGID_00000067949381544087360640000000592871854141834397_">
				<use xlink:href="#SVGID_00000121249894019231665830000011334918502027498170_"  style="overflow:visible;"/>
			</clipPath>
			<g style="clip-path:url(#SVGID_00000067949381544087360640000000592871854141834397_);">
				<path class="st8" d="M557.6,261.9h5.2c1.4,0,2.5,1.1,2.5,2.5v127.3c0,1.4-1.1,2.5-2.5,2.5h-5.2c-1.4,0-2.5-1.1-2.5-2.5V264.4
					C555.2,263,556.3,261.9,557.6,261.9z"/>
			</g>
		</g>
		<path class="st11" d="M461.1,369.8c-2.6,1.2-4.8,3.1-6.6,5.3l-0.6-0.5c0.7-0.9,1.5-1.8,2.3-2.6c0.2-0.2,0.4-0.5,0.4-0.8
			c0-0.3-0.2-0.5-0.7-0.5h-16.6v-1.8H456c0.3,0,0.7-0.3,0.7-0.6c0-0.3-0.2-0.5-0.4-0.7c-0.8-0.8-1.6-1.7-2.3-2.6l0.6-0.5
			c1.7,2.2,4,4,6.5,5.3L461.1,369.8L461.1,369.8z"/>
		<path class="st12" d="M1133.4,424.7l-288.1-45.6L863.9,219c16.1,1.6,259.5,1.4,259.5,1.4l16.6,57.5"/>
		<path class="st12" d="M770.8,211.6c0,0-5.2,145-2.1,161.9c1.2,7.4,86.6,12.7,86.6,12.7l8.7-167.1L770.8,211.6z"/>
		<path class="st13" d="M856.9,227c0.5,3.3,0.9,6.6,1.2,9.9c0.4,3.3,0.7,6.6,0.9,9.9c0.5,6.6,0.9,13.3,1.4,19.9
			c0.8,13.3,1.5,26.6,1.6,39.9c0.1,13.3-0.4,26.6-1.4,39.9c-0.5,6.6-1.1,13.3-1.9,19.9s-1.9,13.2-3.2,19.7c0,0.1-0.1,0.1-0.2,0.1
			c-0.1,0-0.1-0.1-0.1-0.2c0.2-3.3,0.5-6.6,0.8-9.9c0.2-1.7,0.3-3.3,0.4-5l0.5-5c0.6-6.6,1.2-13.2,1.6-19.8
			c0.9-13.2,1.2-26.5,1.1-39.8c-0.1-13.3-0.6-26.5-1.3-39.8l-1.1-19.9c-0.2-3.3-0.3-6.6-0.4-10c-0.1-3.3-0.1-6.7-0.1-10
			c0-0.1,0.1-0.1,0.1-0.1C856.8,226.8,856.9,226.9,856.9,227L856.9,227z"/>
	</g>
</g>
<g>
	<g>
		<path d="M444.6,393.8h-6.9l0.1-0.7c0.6,0,1.1-0.1,1.4-0.2c0.3-0.1,0.6-0.3,0.8-0.6c0.2-0.3,0.3-0.8,0.5-1.5l2-9.9
			c0.1-0.6,0.2-1.1,0.1-1.4c-0.1-0.3-0.3-0.5-0.6-0.6c-0.3-0.1-0.8-0.1-1.4-0.1l0.1-0.7h6.1c1.4,0,2.4,0.1,3.2,0.4
			c0.8,0.3,1.3,0.6,1.6,1.1c0.3,0.5,0.5,1,0.5,1.6c0,0.9-0.2,1.6-0.6,2.1c-0.4,0.6-0.9,1-1.5,1.4c-0.6,0.3-1.3,0.6-2.1,0.8v0.1
			c0.6,0.1,1.2,0.3,1.7,0.5c0.5,0.3,0.9,0.6,1.2,1.1s0.5,1,0.5,1.7c0,1.1-0.3,2-0.9,2.7c-0.6,0.7-1.4,1.3-2.4,1.7
			C447,393.6,445.9,393.8,444.6,393.8z M443.7,393c0.5,0,1.1,0,1.7-0.1c0.6-0.1,1.2-0.3,1.7-0.6c0.5-0.3,1-0.7,1.3-1.2
			c0.3-0.5,0.5-1.2,0.5-2.1c0-0.7-0.2-1.3-0.5-1.7c-0.4-0.4-0.8-0.7-1.4-0.9s-1.2-0.3-1.9-0.3h-1.7l0.2-1h1.6c1.7,0,2.8-0.3,3.5-1
			c0.7-0.7,1-1.6,1-2.8c0-0.4-0.1-0.8-0.3-1.2c-0.2-0.4-0.6-0.6-1.1-0.9c-0.5-0.2-1.2-0.3-2.1-0.3c-0.2,0-0.4,0-0.6,0
			c-0.2,0-0.4,0-0.6,0.1l-2.8,13.8c0.3,0,0.5,0,0.7,0C443.1,392.9,443.4,393,443.7,393z"/>
	</g>
</g>
<g>
	<g>
		<path d="M515,157.4h-6.6l0.1-0.7c0.7,0,1.1-0.1,1.5-0.2c0.3-0.1,0.6-0.3,0.7-0.7c0.2-0.3,0.3-0.9,0.5-1.6l2-9.5
			c0.1-0.6,0.2-1.1,0.2-1.5c0-0.4-0.2-0.6-0.4-0.8s-0.8-0.2-1.5-0.2l0.1-0.7h6.6l-0.1,0.7c-0.7,0-1.2,0.1-1.6,0.2
			c-0.4,0.1-0.6,0.4-0.7,0.8c-0.1,0.4-0.3,0.9-0.4,1.5l-2,9.6c-0.1,0.7-0.2,1.2-0.1,1.5c0,0.3,0.2,0.6,0.5,0.6
			c0.3,0.1,0.8,0.1,1.4,0.1L515,157.4z"/>
	</g>
</g>
</svg>
