<?xml version="1.0" encoding="utf-8"?>
<!-- Generator: Adobe Illustrator 25.4.1, SVG Export Plug-In . SVG Version: 6.00 Build 0)  -->
<svg version="1.1" id="Layer_1" xmlns="http://www.w3.org/2000/svg" xmlns:xlink="http://www.w3.org/1999/xlink" x="0px" y="0px"
	 width="100px" height="100px" viewBox="0 0 100 100" style="enable-background:new 0 0 100 100;" xml:space="preserve">
<title>Artboard 2</title>
<g id="definition">
	<circle style="fill:#EFFCEA;stroke:#0E8A16;stroke-width:1.74;stroke-miterlimit:10;" cx="50" cy="50.01" r="46.67"/>
	
		<path style="fill:#90D966;stroke:#0E8A16;stroke-width:1.75;stroke-linecap:round;stroke-linejoin:round;stroke-miterlimit:10;" d="
		M27.66,39.38l7.84,21h-4.79l-1.58-4.68h-7.85l-1.65,4.68H15l7.93-21H27.66z M27.92,52.25l-2.65-7.7h-0.05l-2.74,7.7H27.92z"/>
	<path style="fill:#0E8A16;" d="M48.17,49v2.1h-2.29v5.62c-0.136,0.575,0.219,1.152,0.794,1.288
		c0.173,0.041,0.354,0.038,0.526-0.008h0.51l0.46-0.07v2.42c-0.292,0.044-0.585,0.071-0.88,0.08h-0.95
		c-0.458-0.002-0.916-0.035-1.37-0.1c-0.397-0.041-0.783-0.153-1.14-0.33c-0.332-0.19-0.603-0.471-0.78-0.81
		c-0.209-0.429-0.309-0.903-0.29-1.38V51.1h-1.89V49h1.89v-3.4h3.12V49H48.17z"/>
	<path style="fill:#0E8A16;" d="M49.73,52.23c0.253-0.707,0.655-1.352,1.18-1.89c0.526-0.528,1.156-0.94,1.85-1.21
		c0.769-0.294,1.587-0.439,2.41-0.43c0.83-0.009,1.654,0.137,2.43,0.43c0.697,0.27,1.33,0.682,1.86,1.21
		c0.525,0.538,0.927,1.183,1.18,1.89c0.289,0.791,0.431,1.628,0.42,2.47c0.012,0.839-0.13,1.673-0.42,2.46
		c-0.26,0.689-0.662,1.316-1.18,1.84c-0.525,0.528-1.16,0.935-1.86,1.19c-0.777,0.29-1.601,0.432-2.43,0.42
		c-0.823,0.013-1.64-0.13-2.41-0.42c-0.697-0.254-1.329-0.661-1.85-1.19c-0.522-0.536-0.925-1.177-1.18-1.88
		c-0.29-0.787-0.432-1.621-0.42-2.46C49.303,53.831,49.446,53.008,49.73,52.23z M52.56,56c0.075,0.42,0.224,0.823,0.44,1.19
		c0.207,0.345,0.5,0.631,0.85,0.83c0.403,0.212,0.855,0.316,1.31,0.3c0.467,0.011,0.929-0.099,1.34-0.32
		c0.353-0.198,0.649-0.484,0.86-0.83c0.217-0.361,0.37-0.757,0.45-1.17c0.089-0.438,0.132-0.883,0.13-1.33
		c0.002-0.45-0.042-0.899-0.13-1.34c-0.078-0.411-0.231-0.804-0.45-1.16c-0.214-0.343-0.509-0.629-0.86-0.83
		c-0.407-0.224-0.866-0.334-1.33-0.32c-0.458-0.014-0.911,0.096-1.31,0.32c-0.348,0.202-0.64,0.487-0.85,0.83
		c-0.219,0.356-0.372,0.749-0.45,1.16c-0.088,0.441-0.132,0.89-0.13,1.34C52.428,55.117,52.471,55.562,52.56,56z"/>
	
		<path style="fill:#90D966;stroke:#0E8A16;stroke-width:1.75;stroke-linecap:round;stroke-linejoin:round;stroke-miterlimit:10;" d="
		M79.27,43.26H68.9v-3.88h16.52V43L74.16,56.49h11.55v3.88H68v-3.65L79.27,43.26z"/>
</g>
</svg>
