<?xml version="1.0" encoding="utf-8"?>
<!-- Generator: Adobe Illustrator 25.4.1, SVG Export Plug-In . SVG Version: 6.00 Build 0)  -->
<svg version="1.1" id="Layer_1" xmlns="http://www.w3.org/2000/svg" xmlns:xlink="http://www.w3.org/1999/xlink" x="0px" y="0px"
	 width="100px" height="100px" viewBox="0 0 100 100" style="enable-background:new 0 0 100 100;" xml:space="preserve">
<title>Artboard 2</title>
<g id="readIt">
	<circle style="fill:#EFFCEA;stroke:#0E8A16;stroke-width:1.74;stroke-miterlimit:10;" cx="50.24" cy="49.53" r="46.67"/>
</g>
<g>
	<path style="opacity:0.15;fill:#0E8A16;" d="M75.313,31.87v-0.514c0-1.448-1.178-2.626-2.626-2.626H51.844
		c-1.826,0-3.434,0.941-4.372,2.361c-0.938-1.421-2.546-2.361-4.372-2.361H31.425v-0.637c0-0.478-0.387-0.865-0.865-0.865h-4.698
		c-0.478,0-0.865,0.387-0.865,0.865v0.637h-2.74c-1.448,0-2.626,1.178-2.626,2.626v0.505h-0.004c-1.636,0-2.967,1.331-2.967,2.968
		V68.88c0,1.636,1.331,2.967,2.967,2.967h55.517c1.636,0,2.967-1.331,2.967-2.967V34.829C78.112,33.25,76.871,31.959,75.313,31.87z"
		/>
	<g>
		
			<path style="fill:#90D966;stroke:#0E8A16;stroke-width:1.7299;stroke-linecap:round;stroke-linejoin:round;stroke-miterlimit:10;" d="
			M75.565,68.511H24.149c-2.294,0-4.153-1.859-4.153-4.153v-29.95c0-2.294,1.859-4.153,4.153-4.153h51.416
			c2.294,0,4.153,1.859,4.153,4.153v29.95C79.718,66.652,77.859,68.511,75.565,68.511z"/>
		
			<path style="fill:#FFFFFF;stroke:#0E8A16;stroke-width:1.7299;stroke-linecap:round;stroke-linejoin:round;stroke-miterlimit:10;" d="
			M75.159,27.125H54.315c-2.415,0-4.372,1.957-4.372,4.372v36.46c0-2.415,1.957-3.672,4.372-3.672h20.844
			c0.972,0,1.761-0.788,1.761-1.761V28.885C76.919,27.913,76.131,27.125,75.159,27.125z"/>
		
			<path style="fill:#FFFFFF;stroke:#0E8A16;stroke-width:1.7299;stroke-linecap:round;stroke-linejoin:round;stroke-miterlimit:10;" d="
			M24.728,27.125h20.844c2.415,0,4.372,1.957,4.372,4.372v36.46c0-3.029-2.876-3.672-4.372-3.672H24.728
			c-0.972,0-1.761-0.788-1.761-1.761V28.885C22.967,27.913,23.755,27.125,24.728,27.125z"/>
		
			<polygon style="fill:#90D966;stroke:#0E8A16;stroke-width:1.7299;stroke-linecap:round;stroke-linejoin:round;stroke-miterlimit:10;" points="
			33.031,35.213 30.682,32.776 28.333,35.213 28.333,25.623 33.031,25.623 		"/>
		
			<line style="fill:none;stroke:#0E8A16;stroke-width:1.7299;stroke-linecap:round;stroke-linejoin:round;stroke-miterlimit:10;" x1="56.474" y1="38.397" x2="71.478" y2="38.397"/>
		
			<line style="fill:none;stroke:#0E8A16;stroke-width:1.7299;stroke-linecap:round;stroke-linejoin:round;stroke-miterlimit:10;" x1="56.474" y1="45.394" x2="71.478" y2="45.394"/>
		
			<line style="fill:none;stroke:#0E8A16;stroke-width:1.7299;stroke-linecap:round;stroke-linejoin:round;stroke-miterlimit:10;" x1="56.474" y1="52.39" x2="71.478" y2="52.39"/>
		
			<line style="fill:none;stroke:#0E8A16;stroke-width:1.7299;stroke-linecap:round;stroke-linejoin:round;stroke-miterlimit:10;" x1="28.487" y1="38.397" x2="43.491" y2="38.397"/>
		
			<line style="fill:none;stroke:#0E8A16;stroke-width:1.7299;stroke-linecap:round;stroke-linejoin:round;stroke-miterlimit:10;" x1="28.487" y1="45.394" x2="43.491" y2="45.394"/>
		
			<line style="fill:none;stroke:#0E8A16;stroke-width:1.7299;stroke-linecap:round;stroke-linejoin:round;stroke-miterlimit:10;" x1="28.487" y1="52.39" x2="43.491" y2="52.39"/>
	</g>
</g>
</svg>
