<?xml version="1.0" encoding="UTF-8"?><svg id="a" xmlns="http://www.w3.org/2000/svg" width="1140" height="641" xmlns:xlink="http://www.w3.org/1999/xlink" viewBox="0 0 1140 641"><defs><clipPath id="b"><path d="m21.578,474.241C-28.443,309.02,36.677-12.798,566.231-1.716c328.034,6.865,500.162,54.195,556.295,304.674,38.114,170.075-1.087,356.389-289.516,322.863-142.995-16.621-241.749-35.978-548.716-9.095-119.767,10.489-241.931-73.831-262.716-142.484Z" fill="none"/></clipPath></defs><g clip-path="url(#b)"><rect x="-12.801" y="-21.422" width="1219.832" height="642.695" fill="#baccdb"/><rect x="-78.684" y="360.557" width="1291.981" height="262.232" fill="#dfe4ea"/><path d="m1595.648,410.631c0,44.34-119.949,80.284-267.913,80.284-138.717,0-252.81-31.592-266.53-72.076-.915-2.699-1.383-5.437-1.383-8.209,0-44.34,119.949-80.284,267.913-80.284s267.913,35.945,267.913,80.284Z" fill="none" stroke="#211d1c" stroke-linecap="round" stroke-linejoin="round" stroke-width="10"/><polyline points="1159.662 404.894 1059.821 413.846 1030.062 466.284" fill="none" stroke="#211d1c" stroke-linecap="round" stroke-linejoin="round" stroke-width="10"/><polyline points="199.031 361.694 64.883 565.189 1141.473 565.189" fill="none" stroke="#77798c" stroke-linecap="round" stroke-linejoin="round" stroke-width="2"/></g><path d="m649.408,485.3c0-.089-.01-.179-.03-.268h.03l2.063-27.843h-183.956l2.063,27.843h.03c-.02.089-.03.178-.03.268,0,.068.011.136.023.204-.014.188-.023.377-.023.566,0,15.832,39.117,28.667,89.915,28.667s89.915-12.834,89.915-28.667c0-.189-.009-.378-.023-.566.011-.068.023-.136.023-.204Z" fill="#211d1c"/><ellipse cx="559.493" cy="458.571" rx="91.978" ry="28.667" fill="#211d1c"/><path d="m651.618,458.571c.06,12.188-19.436,19.03-29.132,21.943-39.93,11.169-99.384,11.4-138.009-4.355-7.038-3.329-17.128-8.684-17.109-17.588.002-.179.292-.177.294,0,.807,7.573,8.547,11.597,14.686,14.632,35.861,15.472,89.209,15.44,127.332,8.308,12.298-2.664,31.362-7.316,39.431-17.272,1.223-1.637,2.071-3.579,2.213-5.667-.003-.177.295-.177.294,0h0Z" fill="#527172"/><path d="m404.041,435.968s-4.547,11.368,0,17.432c10.13,13.506,30.987,23.919,48.505,21.979,3.596-.398,7.914-1.337,14.147-.253,9.055,1.575,14.811,6.143,18.442,8.589,7.779,5.241,18.61,16.505,38.653,10.611,12.884-3.789,37.895,4.547,46.232,3.032s34.105-1.516,42.442-5.305c20.101-9.137,32.584-5.937,43.767-11.288,12.091-5.785,14.347-9.662,25.202-12.207,13.981-3.278,18.483,1.221,28.8-1.516,16.424-4.357,35.693-25.881,28.042-31.832-6.821-5.305-80.337,6.063-87.916,11.368-7.579,5.305-7.579,18.947-14.4,19.705-6.821.758-10.61-15.916-17.431-10.611s-2.526,20.716-10.863,22.989c-8.337,2.274-9.6-1.01-15.663-11.621-6.063-10.611-8.337-.758-12.884,9.853s-9.6,7.832-13.389,3.284c-3.79-4.547-14.653-12.379-21.474-12.379s-10.358,6.21-10.358,15.916c0,1.01-3.284,1.768-11.621-2.021-8.337-3.789-7.579-17.684-22.737-22.99-15.158-5.305-13.642,18.947-13.642,18.947,0,0-7.579-22.737-14.4-29.558-6.821-6.821-18.947,3.032-21.979,5.305s-18.189,1.516-25.768-11.368-19.705-6.063-19.705-6.063Z" fill="#80b4ff"/><path d="m548.547,493.82c-1.516-3.032-5.053-15.158,2.021-13.137s10.105,11.116,10.105,11.116c0,0,5.558-4.547,11.116-4.042s4.042,4.547,5.558,4.547,6.568-1.011,6.568-1.011c-.505-1.516.505-18.189,5.558-13.137s4.547,10.611,4.547,10.611c0,0,4.042-1.011,10.611-4.042s11.621-.505,11.621-.505c0,0,0-15.158,6.063-12.632s9.095,11.116,17.179,8.084,9.095-16.674,19.705-17.179,21.221,1.011,23.242,1.011,15.158-12.632,25.768-8.084,3.032,8.589,7.074,6.063,11.116-17.179,11.116-17.179" fill="none" stroke="#a9e0ff" stroke-linecap="round" stroke-linejoin="round" stroke-width="2"/><path d="m410.61,449.357c1.516,1.516,11.621,19.705,28.8,20.211s18.695-10.105,23.747-4.547,9.6,8.589,9.6,8.589c0,0,9.6,10.611,21.221,4.042s9.095,10.105,11.621,11.116,3.537-6.063,10.611-4.547,8.589,6.063,16.168,6.568" fill="none" stroke="#a9e0ff" stroke-linecap="round" stroke-linejoin="round" stroke-width="2"/><line x1="570.399" y1="402.62" x2="572.673" y2="524.263" fill="none" stroke="#211d1c" stroke-linecap="round" stroke-linejoin="round" stroke-width="10"/><path d="m835.859,415.747c0,44.026-119.949,79.716-267.913,79.716-138.717,0-252.81-31.368-266.53-71.565-.915-2.68-1.383-5.399-1.383-8.15,0-44.026,119.949-79.716,267.913-79.716s267.913,35.69,267.913,79.716Z" fill="none" stroke="#211d1c" stroke-linecap="round" stroke-linejoin="round" stroke-width="10"/><polyline points="399.873 410.578 300.032 419.531 270.273 471.968" fill="none" stroke="#211d1c" stroke-linecap="round" stroke-linejoin="round" stroke-width="10"/><path d="m715.915,409.441c11.368,0,119.944,10.089,119.944,10.089l28.982,45.616" fill="none" stroke="#211d1c" stroke-linecap="round" stroke-linejoin="round" stroke-width="10"/><ellipse cx="570.232" cy="141.004" rx="231.167" ry="72.047" fill="#8e8583"/><path d="m796.214,389.27c0-.225-.025-.449-.075-.673h.075l5.185-251.523h-462.334l5.185,251.523h.075c-.05.224-.075.448-.075.673,0,.171.028.341.057.512-.034.473-.057.947-.057,1.423,0,39.791,98.312,72.047,225.982,72.047s225.982-32.257,225.982-72.047c0-.476-.023-.95-.057-1.423.029-.17.057-.341.057-.512Z" fill="#8e8583"/><ellipse cx="567.753" cy="192.051" rx="214.613" ry="62.836" fill="#bfe8ef"/><path d="m778.98,381.346c0,34.224-91.408,61.969-208.299,61.969s-209.975-27.744-209.975-61.969l-7.567-189.295h429.227l-3.386,189.295Z" fill="#bfe8ef"/><path d="m782.513,192.051c-.579,32.533-71.917,48.858-97.881,53.783-83.933,16.262-226.513,15.907-303.734-21.933-12.067-6.599-27.76-16.518-27.906-31.85-.004-.185.297-.184.294,0,.751,14.813,16.498,24.277,28.361,30.39,78.787,36.988,217.345,37.144,302.589,21.314,27.796-5.489,74.485-16.329,92.771-38.469,2.972-3.768,5.073-8.354,5.212-13.235-.008-.183.3-.183.294,0h0Z" fill="#608e93"/><g opacity=".49"><path d="m778.606,388.266c-1.756-30.894-69.792-46.656-95.054-51.63-82.335-15.962-219.631-15.69-295.422,21.452-11.723,6.25-26.454,15.563-27.231,30.178.009.183-.3.183-.293,0-.136-4.85,1.736-9.591,4.487-13.543,8.581-11.797,22.241-18.595,35.289-24.247,84.22-33.476,224.344-33.231,311.541-9.324,20.876,6.099,49.279,15.524,62.508,33.558,2.744,3.959,4.616,8.705,4.469,13.555.003.183-.296.182-.293,0h0Z" fill="#608e93"/></g><path d="m801.546,141.004c-.219,29.453-49.802,46.694-73.412,53.677-96.368,27.639-252.879,27.929-345.893-10.765-14.406-6.502-29.409-14.414-38.586-27.776-2.933-4.474-4.878-9.756-4.736-15.135-.004-.184.297-.183.294,0,.118,5.303,2.161,10.368,5.172,14.644,9.437,12.856,24.305,20.292,38.571,26.616,87.339,35.361,221.673,36.162,313.745,17.974,30.274-6.391,80.536-19.181,99.363-44.601,3.017-4.269,5.061-9.329,5.19-14.632-.007-.183.299-.183.293,0h0Z" fill="#3f3837"/><path d="m525.811,304.653c31.44,32.125,39.861,71.833,17.681,94.971-23.865,24.895-74.766,21.856-117.713-5.683" fill="none" stroke="#d12d32" stroke-miterlimit="10" stroke-width="4"/><polygon points="521.857 312.11 517.454 296.775 532.937 300.628 521.857 312.11" fill="#d12d32"/><path d="m399.798,373.013c-31.901-32.224-40.554-72.267-18.243-95.541,24.116-25.156,75.841-21.788,119.067,6.561" fill="none" stroke="#0077a2" stroke-miterlimit="10" stroke-width="2"/><polygon points="403.71 365.535 408.198 380.845 392.694 377.078 403.71 365.535" fill="#0077a2"/><path d="m606.975,304.653c-31.44,32.125-39.861,71.833-17.681,94.971,23.865,24.895,74.766,21.856,117.713-5.683" fill="none" stroke="#d12d32" stroke-miterlimit="10" stroke-width="4"/><polygon points="599.849 300.628 615.331 296.775 610.929 312.11 599.849 300.628" fill="#d12d32"/><path d="m732.988,373.013c31.901-32.224,40.554-72.267,18.243-95.541-24.116-25.156-75.841-21.788-119.067,6.561" fill="none" stroke="#0077a2" stroke-miterlimit="10" stroke-width="2"/><polygon points="740.091 377.078 724.588 380.845 729.075 365.535 740.091 377.078" fill="#0077a2"/><path d="m345.498,179.648h-29.474l-72.921-6.768s-48.686,18.121-42.792,20.086,101.303,50.651,101.303,50.651l24.452,26.417h25.326l-5.895-90.387Z" fill="#8e8583"/><path d="m324.321,182.486l-15.719,21.833s1.747,42.792-1.747,42.792-107.416-47.158-110.036-53.271c-2.62-6.113,40.172-20.086,46.285-20.959s84.71,7.86,84.71,7.86" fill="#211d1c"/><path d="m230.878,193.839c2.62-1.747,20.086-11.353,20.086-11.353l33.185,3.493s-13.1,16.593-16.593,17.466-36.679-9.606-36.679-9.606Z" fill="#baccdb"/><path d="m302.48,207.665c2.858-1.149,5.802-1.094,8.717-1.26,5.837-.265,11.681-.221,17.515.068,2.914.145,5.838.16,8.715,1.192.08.029.121.117.093.197-2.859,1.004-5.946.683-8.854.756-4.344.026-13.084.003-17.426-.048-2.907-.041-5.785.213-8.742-.611-.136-.033-.155-.244-.017-.293h0Z" fill="#3f3837"/><path d="m794.502,179.648h29.474s72.921-6.768,72.921-6.768c0,0,48.686,18.121,42.792,20.086-5.895,1.965-101.303,50.651-101.303,50.651l-24.452,26.417h-25.326s5.895-90.387,5.895-90.387Z" fill="#8e8583"/><path d="m815.679,182.486l15.719,21.833s-1.747,42.792,1.747,42.792c3.493,0,107.416-47.158,110.036-53.271,2.62-6.113-40.172-20.086-46.285-20.959s-84.71,7.86-84.71,7.86" fill="#211d1c"/><path d="m909.122,193.839c-2.62-1.747-20.086-11.353-20.086-11.353l-33.185,3.493s13.1,16.593,16.593,17.466c3.493.873,36.679-9.606,36.679-9.606Z" fill="#baccdb"/><path d="m837.503,207.958c-2.957.824-5.835.571-8.742.611l-8.709.064-8.717-.016c-2.909-.016-5.807.136-8.749-.659-.082-.022-.131-.106-.109-.188,1.695-1.944,35.282-2.263,35.026.188h0Z" fill="#3f3837"/><path d="m341.64,269.816c-1.557-14.672-.773-29.384-1.059-44.102.026-7.35.046-14.701.134-22.051.218-7.282-.25-15.112,1.09-22.179,1.244,7.215.868,14.835,1.054,22.179.088,7.35.108,14.701.133,22.051-.023,7.35-.035,14.701-.123,22.051-.105,7.35.05,14.701-.935,22.051-.015.16-.279.17-.294,0h0Z" fill="#3f3837"/><path d="m799.467,269.816c-1.557-14.672-.773-29.384-1.059-44.102.026-7.35.046-14.701.134-22.051.218-7.282-.25-15.111,1.09-22.179,1.245,7.215.868,14.835,1.055,22.179.088,7.35.107,14.701.133,22.051-.023,7.35-.035,14.701-.124,22.051-.105,7.35.05,14.701-.935,22.051-.015.16-.279.17-.294,0h0Z" fill="#3f3837"/></svg>