<?xml version="1.0" encoding="UTF-8"?><svg id="a" xmlns="http://www.w3.org/2000/svg" width="570" height="420" xmlns:xlink="http://www.w3.org/1999/xlink" viewBox="0 0 570 420"><defs><clipPath id="b"><path d="m353.21,14.547C287.144,34.14,98.557-40.022,25.799,37.284c-59.743,63.477,21.221,124.295-13.642,244.042-55.763,191.534,150.063,83.368,278.905,116.716,206.825,53.531,295.607-28.896,273.071-105.409-39.588-134.409-2.043-128.047,2.803-196.233,6.445-90.693-121.899-109.086-213.726-81.853Z" fill="none"/></clipPath></defs><g clip-path="url(#b)"><rect x="-29.661" y="-86.321" width="643.577" height="553.237" transform="translate(584.254 380.594) rotate(180)" fill="#c8d9d2"/><rect x="245.855" y="108.258" width="84.035" height="561.774" transform="translate(-101.272 677.018) rotate(-90)" fill="#8ab7ae"/></g><line x1="121.543" y1="114.608" x2="121.543" y2="335.391" fill="none" stroke="#5c539c" stroke-miterlimit="10" stroke-width="2"/><polygon points="113.564 116.942 121.543 103.126 129.521 116.942 113.564 116.942" fill="#5c539c"/><polygon points="113.564 333.057 121.543 346.873 129.521 333.057 113.564 333.057" fill="#5c539c"/><circle cx="285" cy="62.631" r="39.221" fill="#495859"/><circle cx="285" cy="307.189" r="39.221" fill="none" stroke="#495556" stroke-dasharray="0 0 6 6" stroke-linecap="round" stroke-miterlimit="10" stroke-width="2"/><line x1="285" y1="108.81" x2="285" y2="247.854" fill="none" stroke="#000" stroke-miterlimit="10" stroke-width="2"/><polygon points="277.022 245.52 285 259.336 292.978 245.52 277.022 245.52"/><path d="m318.487,189.08h-14.009l.162-.81c1.862,0,2.51-.324,2.888-2.214l2.375-11.418c.433-2.051.162-2.483-2.051-2.483l.162-.81h13.82l-.729,4.427h-.837c.136-2.699-.458-3.374-3.778-3.374h-3.752l-1.458,7.019h2.996c2.483,0,3.132-.514,3.563-2.699h.863l-1.269,6.262h-.837c.433-2.24-.054-2.537-2.537-2.537h-2.969l-1.539,7.585h3.267c4.156.027,4.534-.702,6.262-3.968h.864l-1.458,5.021Z"/><path d="m323.88,194.324h.078l2.3-2.204c.235-.221.361-.378.361-.646,0-.284-.268-.362-.692-.362l.047-.394h3.386l-.047.394c-1.071.031-1.56.472-2.079.944l-1.731,1.543,1.149,2.709c.22.52.394.851.803.851.599,0,.929-.409,1.291-.913l.331.22c-.221.394-.961,1.764-2.205,1.764-.803,0-1.117-.787-1.291-1.228l-1.008-2.63-.834.803-.552,2.897h-1.291l1.937-9.574s.048-.252.048-.504c0-.205-.079-.473-.488-.473-.284,0-.552.031-.552.031v-.409l2.174-.173h.346l-1.479,7.354Z"/><path d="m345.892,183.007v7.153h-1.943v-7.153h-7.072v-1.836h7.072v-7.152h1.943v7.152h7.072v1.836h-7.072Z"/><path d="m374.376,189.08h-14.009l.162-.81c1.862,0,2.51-.324,2.888-2.214l2.375-11.418c.433-2.051.162-2.483-2.051-2.483l.162-.81h13.82l-.729,4.427h-.837c.136-2.699-.458-3.374-3.778-3.374h-3.752l-1.458,7.019h2.996c2.483,0,3.132-.514,3.563-2.699h.863l-1.269,6.262h-.837c.433-2.24-.054-2.537-2.537-2.537h-2.969l-1.539,7.585h3.267c4.156.027,4.534-.702,6.262-3.968h.864l-1.458,5.021Z"/><path d="m384.414,191.521l-1.37-.157v.047c.252.3.566.913.566,1.638,0,1.354-1.118,2.488-3.165,2.566-.693.032-1.008.457-1.008.835,0,.945,4.11.457,4.11,2.787,0,1.37-1.182,2.378-3.465,2.378-2.347,0-3.228-.787-3.228-1.969,0-.944.944-1.512,1.889-1.795v-.062c-.283-.174-.551-.473-.551-.93,0-.692.583-1.149,1.213-1.401v-.095c-.646-.283-1.37-.834-1.37-2.125,0-1.575,1.275-2.709,2.992-2.709.661,0,1.039.079,1.37.189h2.109l-.094.803Zm-5.308,6.504c-.504.299-1.023.677-1.023,1.512,0,.85.661,1.527,2.11,1.527,1.527,0,2.221-.473,2.221-1.229,0-1.149-2.158-1.574-3.308-1.811Zm1.89-7.023c-.913,0-1.559.818-1.559,2.11,0,1.275.299,2.016,1.181,2.016,1.087,0,1.591-.992,1.591-2.315,0-1.008-.394-1.811-1.213-1.811Z"/><path d="m134.93,224.701v-.756l7.801-17.113h1.025l7.396,17.113v.756h-16.223Zm7.72-14.549h-.107l-5.453,12.39h10.446l-4.886-12.39Z"/><path d="m166.272,222.083c-.701.999-1.781,2.888-3.725,2.888-1.35,0-1.755-.782-1.755-1.592,0-.433.081-.918.136-1.053l1.592-6.235s.189-.756.189-1.296c0-.621-.189-1.08-.783-1.08-1.943,0-4.939,4.859-5.776,6.722l-.918,4.265h-2.213l3.374-16.466s.081-.513.081-.918-.324-.701-.864-.701c-.351,0-.917.054-.917.054v-.702l3.697-.297h.621l-2.591,12.039h.216c1.106-2.024,3.536-5.938,6.64-5.938,1.35,0,1.755.945,1.755,1.917,0,.701-.162,1.619-.243,1.997l-1.512,6.235s-.107.324-.107.647c0,.297.162.514.513.514.972,0,1.619-.892,2.024-1.404l.566.405Z"/><path d="m356.268,71.606h-14.009l.162-.81c1.862,0,2.51-.324,2.888-2.214l2.375-11.418c.433-2.051.162-2.483-2.051-2.483l.162-.81h13.82l-.729,4.427h-.837c.136-2.699-.458-3.374-3.778-3.374h-3.752l-1.458,7.019h2.996c2.483,0,3.132-.514,3.563-2.699h.863l-1.269,6.262h-.837c.433-2.24-.054-2.537-2.537-2.537h-2.969l-1.539,7.585h3.267c4.156.027,4.534-.702,6.262-3.968h.864l-1.458,5.021Z"/><path d="m366.307,74.047l-1.37-.157v.047c.252.3.566.913.566,1.638,0,1.354-1.118,2.488-3.165,2.566-.693.032-1.008.457-1.008.835,0,.945,4.11.457,4.11,2.787,0,1.37-1.182,2.378-3.465,2.378-2.347,0-3.228-.787-3.228-1.969,0-.944.944-1.512,1.889-1.795v-.062c-.283-.174-.551-.473-.551-.93,0-.692.583-1.149,1.213-1.401v-.095c-.646-.283-1.37-.834-1.37-2.125,0-1.575,1.275-2.709,2.992-2.709.661,0,1.039.079,1.37.189h2.109l-.094.803Zm-5.308,6.504c-.504.299-1.023.677-1.023,1.512,0,.85.661,1.527,2.11,1.527,1.527,0,2.221-.473,2.221-1.229,0-1.149-2.158-1.574-3.308-1.811Zm1.89-7.023c-.913,0-1.559.818-1.559,2.11,0,1.275.299,2.016,1.181,2.016,1.087,0,1.591-.992,1.591-2.315,0-1.008-.394-1.811-1.213-1.811Z"/><path d="m373.295,65.149c0-1.242.244-2.359.732-3.352s1.168-1.758,2.039-2.297,1.865-.809,2.982-.809c1.727,0,3.123.598,4.189,1.793s1.6,2.785,1.6,4.77v.152c0,1.234-.236,2.342-.709,3.322s-1.148,1.744-2.027,2.291-1.889.82-3.029.82c-1.719,0-3.111-.598-4.178-1.793s-1.6-2.777-1.6-4.746v-.152Zm2.18.258c0,1.406.326,2.535.979,3.387s1.525,1.277,2.619,1.277c1.102,0,1.977-.432,2.625-1.295s.973-2.072.973-3.627c0-1.391-.33-2.518-.99-3.381s-1.537-1.295-2.631-1.295c-1.07,0-1.934.426-2.59,1.277s-.984,2.07-.984,3.656Z"/><path d="m389.607,58.927l.07,1.594c.969-1.219,2.234-1.828,3.797-1.828,2.68,0,4.031,1.512,4.055,4.535v8.379h-2.168v-8.391c-.008-.914-.217-1.59-.627-2.027s-1.049-.656-1.916-.656c-.703,0-1.32.188-1.852.562s-.945.867-1.242,1.477v9.035h-2.168v-12.68h2.051Z"/><path d="m403.154,71.606h-2.168v-18h2.168v18Z"/><path d="m410.771,68.43l2.953-9.504h2.32l-5.098,14.637c-.789,2.109-2.043,3.164-3.762,3.164l-.41-.035-.809-.152v-1.758l.586.047c.734,0,1.307-.148,1.717-.445s.748-.84,1.014-1.629l.48-1.289-4.523-12.539h2.367l3.164,9.504Z"/><path d="m355.892,314.133h-14.009l.162-.81c1.862,0,2.51-.324,2.888-2.214l2.375-11.418c.433-2.051.162-2.483-2.051-2.483l.162-.81h13.82l-.729,4.427h-.837c.136-2.699-.458-3.374-3.778-3.374h-3.752l-1.458,7.019h2.996c2.483,0,3.132-.514,3.563-2.699h.863l-1.269,6.262h-.837c.433-2.24-.054-2.537-2.537-2.537h-2.969l-1.539,7.585h3.267c4.156.027,4.534-.702,6.262-3.968h.864l-1.458,5.021Z"/><path d="m361.284,319.376h.078l2.3-2.204c.235-.221.361-.378.361-.646,0-.284-.268-.362-.692-.362l.047-.394h3.386l-.047.394c-1.071.031-1.56.472-2.079.944l-1.731,1.543,1.149,2.709c.22.52.394.851.803.851.599,0,.929-.409,1.291-.913l.331.22c-.221.394-.961,1.764-2.205,1.764-.803,0-1.117-.787-1.291-1.228l-1.008-2.63-.834.803-.552,2.897h-1.291l1.937-9.574s.048-.252.048-.504c0-.205-.079-.473-.488-.473-.284,0-.552.031-.552.031v-.409l2.174-.173h.346l-1.479,7.354Z"/><path d="m373.674,307.676c0-1.242.244-2.359.732-3.352s1.168-1.758,2.039-2.297,1.865-.809,2.982-.809c1.727,0,3.123.598,4.189,1.793s1.6,2.785,1.6,4.77v.152c0,1.234-.236,2.342-.709,3.322s-1.148,1.744-2.027,2.291-1.889.82-3.029.82c-1.719,0-3.111-.598-4.178-1.793s-1.6-2.777-1.6-4.746v-.152Zm2.18.258c0,1.406.326,2.535.979,3.387s1.525,1.277,2.619,1.277c1.102,0,1.977-.432,2.625-1.295s.973-2.072.973-3.627c0-1.391-.33-2.518-.99-3.381s-1.537-1.295-2.631-1.295c-1.07,0-1.934.426-2.59,1.277s-.984,2.07-.984,3.656Z"/><path d="m389.986,301.453l.07,1.594c.969-1.219,2.234-1.828,3.797-1.828,2.68,0,4.031,1.512,4.055,4.535v8.379h-2.168v-8.391c-.008-.914-.217-1.59-.627-2.027s-1.049-.656-1.916-.656c-.703,0-1.32.188-1.852.562s-.945.867-1.242,1.477v9.035h-2.168v-12.68h2.051Z"/><path d="m403.533,314.133h-2.168v-18h2.168v18Z"/><path d="m411.15,310.957l2.953-9.504h2.32l-5.098,14.637c-.789,2.109-2.043,3.164-3.762,3.164l-.41-.035-.809-.152v-1.758l.586.047c.734,0,1.307-.148,1.717-.445s.748-.84,1.014-1.629l.48-1.289-4.523-12.539h2.367l3.164,9.504Z"/><line x1="121.315" y1="100.947" x2="323.673" y2="100.947" fill="none" stroke="#000" stroke-dasharray="0 0 6 6" stroke-miterlimit="10" stroke-width="2"/></svg>