<?xml version="1.0" encoding="UTF-8"?><svg id="a" xmlns="http://www.w3.org/2000/svg" width="570" height="428" viewBox="0 0 570 428"><path d="m565.441,270.284c0,166.586-188.489,131.127-314.905,143.242C68.641,430.958,6.115,372.07,6.115,205.484S86.831,3.831,296.01,3.831c189.853,0,269.432,99.867,269.432,266.453Z" fill="#ada7c1"/><g id="b"><path d="m346.733,418.463c-45.309,11.034-89.341,11.717-131.846.085-10.315-2.844-19.133-8.873-20.037-18.67l-18.37-295.251c-1.558-16.438,209.688-19.452,208.784,0l-18.417,295.151c-.919,9.826-9.691,16.125-20.115,18.684Z" fill="#fff"/><path d="m186.004,259.106l1.5,30.061,7.346,110.711c.904,9.797,9.722,15.826,20.037,18.67,42.505,11.631,86.537,10.949,131.846-.085,10.424-2.559,19.196-8.858,20.115-18.684l8.864-131.839,1.386-8.833c.221-18.827-192.72-20.119-191.094,0Z" fill="#dfedef"/><path d="m196.718,404.333c1.236-6.802,34.357-9.049,41.102-9.613,28.519-2.042,57.152-2.029,85.671.007,10.681.858,21.47,1.734,31.885,4.436,2.572.791,8.916,2.24,9.218,5.17,0,0-.294,0-.294,0-.104-.806-.929-1.302-1.653-1.705-2.364-1.152-4.993-1.653-7.562-2.206-10.487-1.882-21.11-2.838-31.742-3.596-28.402-1.729-56.971-1.716-85.373.007-10.63.742-21.255,1.75-31.736,3.617-2.571.543-5.193,1.054-7.562,2.188-.725.4-1.549.891-1.659,1.695,0,0-.294,0-.294,0h0Z" fill="#0f4a54"/><path d="m386.153,104.733c-1.304,8.72-42.456,11.811-50.863,12.552-35.495,2.707-71.167,2.695-106.662-.007-13.289-1.145-26.715-2.342-39.636-5.865-3.21-1.02-10.931-2.967-11.227-6.68,0,0,.294,0,.294,0,.625,3.272,8.381,4.629,11.25,5.428,30.463,5.874,61.697,6.595,92.65,6.748,26.577-.023,53.25-.866,79.59-4.517,7.531-1.265,15.456-1.939,22.363-5.359.89-.546,1.839-1.256,1.947-2.3h.294Z" fill="#0f4a54"/></g><circle cx="216.431" cy="347.589" r="8.267" fill="#058dbd"/><circle cx="274.446" cy="298.703" r="8.267" fill="#058dbd"/><circle cx="327.532" cy="321.928" r="8.267" fill="#058dbd"/><circle cx="296.344" cy="333.209" r="8.267" fill="#058dbd"/><circle cx="315.588" cy="353.117" r="8.267" fill="#058dbd"/><circle cx="220.978" cy="318.031" r="8.267" fill="#058dbd"/><circle cx="242.578" cy="362.368" r="8.267" fill="#058dbd"/><circle cx="303.968" cy="296.431" r="8.267" fill="#058dbd"/><circle cx="267.631" cy="273.596" r="8.267" fill="#058dbd"/><circle cx="328.67" cy="257.583" r="8.267" fill="#058dbd"/><circle cx="210.438" cy="382.636" r="8.267" fill="#058dbd"/><circle cx="362.43" cy="305.819" r="8.267" fill="#058dbd"/><circle cx="290.66" cy="261.588" r="8.267" fill="#058dbd"/><circle cx="232.929" cy="256.943" r="8.267" fill="#058dbd"/><circle cx="201.077" cy="266.233" r="8.267" fill="#058dbd"/><circle cx="196.529" cy="304.886" r="8.267" fill="#058dbd"/><circle cx="236.95" cy="327.117" r="8.267" fill="#058dbd"/><circle cx="251.673" cy="299.841" r="8.267" fill="#058dbd"/><circle cx="228.936" cy="285.441" r="8.267" fill="#058dbd"/><circle cx="269.862" cy="322.27" r="8.267" fill="#058dbd"/><circle cx="343.799" cy="380.46" r="8.267" fill="#058dbd"/><circle cx="339.252" cy="361.133" r="8.267" fill="#058dbd"/><circle cx="303.413" cy="369.49" r="8.267" fill="#058dbd"/><circle cx="285.778" cy="410.115" r="8.267" fill="#058dbd"/><circle cx="232.038" cy="397.61" r="8.267" fill="#058dbd"/><circle cx="361.392" cy="326.29" r="8.267" fill="#058dbd"/><circle cx="269.862" cy="395.336" r="8.267" fill="#058dbd"/><circle cx="319.339" cy="400.015" r="8.267" fill="#058dbd"/><circle cx="333.525" cy="283.926" r="8.267" fill="#058dbd"/><circle cx="344.641" cy="265.736" r="8.267" fill="#058dbd"/><circle cx="265.82" cy="355.168" r="8.267" fill="#058dbd"/><path d="m375.693,256.641c-.74,10.977-36.03,14.728-45.12,15.765-32.762,3.242-65.811,3.061-98.554-.299-12.24-1.463-24.698-3.012-36.273-7.542-3.365-1.511-8.883-3.691-9.07-7.924,0,0,.294,0,.294,0,.069.988.61,1.855,1.3,2.547,3.777,3.358,9.003,4.556,13.778,5.872,9.908,2.451,20.033,3.876,30.194,4.961,32.559,3.061,65.541,3.175,98.114.273,12.148-1.298,24.382-2.911,35.995-6.736,1.91-.668,3.76-1.488,5.482-2.5,1.646-1.004,3.371-2.378,3.567-4.417,0,0,.294,0,.294,0h0Z" fill="#0f4a54"/><g id="c"><path d="m194.579,393.149c.582,3.861.486,7.993,2.185,11.562,1.685,3.473,4.522,6.247,7.784,8.317,3.277,2.077,6.95,3.53,10.731,4.566,7.714,2.031,15.507,3.73,23.376,5.041,35.497,5.773,71.961,3.347,106.893-4.85,6.678-1.417,13.401-4.19,17.77-9.619,0,0,1.922-2.307,1.922-2.307l.235.176-1.672,2.507c-3.972,6.029-10.992,9.384-17.821,11.043-35.078,8.712-71.951,11.358-107.687,5.214-9.886-1.898-19.921-3.647-29.354-7.25-7.513-3.084-14.663-9.69-14.594-18.36-.025-2.008-.073-4.014-.06-6.022l.293-.018h0Z" fill="#0f4a54"/><path d="m196.718,404.333c1.236-6.802,34.357-9.049,41.102-9.613,28.519-2.042,57.152-2.029,85.67.007,10.681.858,21.47,1.734,31.885,4.436,2.572.791,8.916,2.24,9.218,5.17,0,0-.294,0-.294,0-.104-.806-.929-1.302-1.653-1.705-2.364-1.152-4.994-1.653-7.561-2.206-10.487-1.882-21.11-2.838-31.742-3.596-28.402-1.729-56.971-1.716-85.373.007-10.63.742-21.255,1.75-31.736,3.617-2.571.543-5.193,1.054-7.562,2.188-.725.4-1.549.891-1.659,1.695,0,0-.294,0-.294,0h0Z" fill="#0f4a54"/></g></svg>