<?xml version="1.0" encoding="UTF-8"?><svg id="a" xmlns="http://www.w3.org/2000/svg" width="1140" height="641" xmlns:xlink="http://www.w3.org/1999/xlink" viewBox="0 0 1140 641"><defs><style>.c,.d{fill:none;}.e{fill:#f2edf7;}.f{fill:#d12d32;}.d{stroke:#d12d32;stroke-linecap:round;stroke-miterlimit:10;stroke-width:2px;}.g{clip-path:url(#b);}.h{fill:#fff;opacity:.3;}</style><clipPath id="b"><path class="c" d="m8.612,379.355c-12.563-78.046-1.042-191.542,73.978-261.268C171.191,35.739,388.941,7.215,606.031,5.11c221.538-2.148,352.012,19.1,424.574,72.072,76.964,56.186,89.361,146.593,97.267,229.599,9.825,103.145-5.634,215.485-110.967,283.7-39.329,25.47-202.755,31.669-350.711,35.627-66.676,1.784-383.59,29.03-565.795-44.864-76.179-30.895-78.394-118.68-91.788-201.889Z"/></clipPath></defs><path class="e" d="m8.612,379.355c-12.563-78.046-1.042-191.542,73.978-261.268C171.191,35.739,388.941,7.215,606.031,5.11c221.538-2.148,352.012,19.1,424.574,72.072,76.964,56.186,89.361,146.593,97.267,229.599,9.825,103.145-5.634,215.485-110.967,283.7-39.329,25.47-202.755,31.669-350.711,35.627-66.676,1.784-383.59,29.03-565.795-44.864-76.179-30.895-78.394-118.68-91.788-201.889Z"/><g class="g"><path class="h" d="m581.311,4.962C554.221,15.156,4.237,389.373,4.237,389.373l738.338,249.756h390.909S922.529,10.059,910.489,4.962c-12.04-5.097-329.177,0-329.177,0Z"/></g><circle class="f" cx="80.427" cy="64.27" r="14"/><circle class="f" cx="413.077" cy="452.982" r="14"/><circle class="f" cx="605.355" cy="547.091" r="14"/><circle class="f" cx="843.403" cy="380.153" r="14"/><circle class="f" cx="1078.471" cy="472.029" r="14"/><path class="d" d="m16.441,91.075s12.714-17.094,37.151-24.152c23.06-6.66,54.327-3.055,109.206,37.547,65.993,48.825,104.075,105.178,119.442,128.372,29.31,44.239,56.368,89.823,81.471,136.569,18.223,33.934,34.765,71.197,61.03,99.784,12.276,13.36,26.394,25,41.651,34.8,27.748,17.824,59.085,29.616,91.223,37.02,58.203,13.41,114.187,6.358,156.525-38.766,27.114-28.898,38.433-68.109,65.03-97.077,12.194-13.281,28.224-23.831,46.115-26.069,25.292-3.165,49.736,10.487,69.206,26.938,19.47,16.451,36.322,36.273,58.095,49.526,23.07,14.044,50.43,19.827,77.428,20.552,26.999.725,53.877-3.359,80.515-7.821"/><path d="m84.28,113.064h-7.705l-1.465,4.395h-4.673l7.939-21.328h4.072l7.983,21.328h-4.673l-1.479-4.395Zm-6.519-3.56h5.332l-2.681-7.983-2.651,7.983Z"/><path d="m401.362,504.749v-21.328h7.471c2.588,0,4.551.496,5.889,1.486,1.338.992,2.007,2.444,2.007,4.358,0,1.045-.269,1.966-.806,2.761-.537.797-1.284,1.38-2.241,1.751,1.094.273,1.956.825,2.585,1.655s.945,1.846.945,3.047c0,2.051-.654,3.604-1.963,4.658s-3.174,1.592-5.596,1.611h-8.291Zm4.395-12.393h3.252c2.217-.039,3.325-.923,3.325-2.651,0-.967-.281-1.663-.842-2.087-.562-.426-1.448-.638-2.659-.638h-3.076v5.376Zm0,3.105v5.757h3.765c1.035,0,1.843-.246,2.424-.739s.872-1.175.872-2.044c0-1.953-1.011-2.944-3.032-2.974h-4.028Z"/><path d="m614.188,507.986c-.166,2.295-1.014,4.102-2.542,5.42s-3.542,1.978-6.042,1.978c-2.734,0-4.886-.92-6.453-2.762-1.567-1.84-2.351-4.367-2.351-7.58v-1.304c0-2.051.361-3.857,1.084-5.42s1.755-2.761,3.098-3.597c1.343-.834,2.903-1.252,4.681-1.252,2.461,0,4.443.659,5.947,1.978s2.373,3.169,2.607,5.552h-4.395c-.107-1.377-.491-2.375-1.15-2.996-.659-.619-1.662-.93-3.01-.93-1.465,0-2.562.525-3.289,1.574-.728,1.051-1.101,2.679-1.12,4.886v1.611c0,2.305.349,3.989,1.047,5.054s1.8,1.597,3.304,1.597c1.357,0,2.37-.31,3.039-.931.669-.619,1.053-1.579,1.15-2.878h4.395Z"/><path d="m835.56,351.692v-21.328h6.562c1.875,0,3.552.423,5.031,1.268s2.635,2.046,3.465,3.604,1.245,3.327,1.245,5.31v.981c0,1.982-.408,3.745-1.224,5.288s-1.965,2.739-3.449,3.589-3.159,1.279-5.024,1.289h-6.606Zm4.395-17.769v14.238h2.124c1.719,0,3.032-.562,3.94-1.685s1.372-2.729,1.392-4.819v-1.128c0-2.168-.449-3.811-1.348-4.93-.898-1.117-2.212-1.677-3.94-1.677h-2.168Z"/><path d="m1084.77,433.506h-8.438v5.713h9.902v3.53h-14.297v-21.328h14.268v3.56h-9.873v5.083h8.438v3.442Z"/></svg>