<?xml version="1.0" encoding="UTF-8"?>
<svg xmlns="http://www.w3.org/2000/svg" width="1140" height="560" xmlns:xlink="http://www.w3.org/1999/xlink" viewBox="0 0 1140 560">
  <defs>
    <style>
      .ai {
        fill: #c5e9f4;
      }

      .ai, .aj, .ak, .al, .am, .an, .ao, .ap, .aq, .ar, .as, .at, .au, .av, .aw, .ax, .ay, .az, .ba, .bb, .bc, .bd, .be, .bf, .bg, .bh, .bi, .bj {
        stroke-width: 0px;
      }

      .aj {
        fill: #010101;
      }

      .ak {
        fill: #ede1d3;
      }

      .al {
        fill: #929640;
      }

      .am, .bk, .bl, .bm, .bn, .bo, .bp {
        fill: none;
      }

      .an {
        fill: #a0b78c;
      }

      .ao {
        fill: #212628;
      }

      .ap {
        fill: #c4c4c4;
      }

      .aq {
        fill: #266856;
      }

      .bq {
        fill: #fff;
      }

      .bq, .bk, .bl, .bm, .bn, .bo, .bp {
        stroke-miterlimit: 10;
        stroke-width: 2px;
      }

      .bq, .bl, .bm, .bn, .bo, .bp {
        stroke: #010101;
      }

      .bk {
        stroke: #a8bbc6;
      }

      .bk, .bl, .bm, .bn, .bo, .bp {
        stroke-linecap: round;
      }

      .ar {
        fill: #5b5c27;
      }

      .as {
        fill: #343c3f;
      }

      .at {
        fill: #b7bf7e;
      }

      .au {
        fill: #a36d32;
      }

      .bm {
        stroke-dasharray: 0 0 2.99 7.97;
      }

      .av {
        fill: #76c0cc;
      }

      .aw {
        fill: #8784bf;
      }

      .ax {
        fill: #f4f4f4;
      }

      .ay {
        fill: #969696;
      }

      .bn {
        stroke-dasharray: 0 0 3.09 8.24;
      }

      .br {
        opacity: .25;
      }

      .az {
        fill: #fff7d2;
      }

      .ba {
        fill: #d5c3a9;
      }

      .bb {
        opacity: .1;
      }

      .bb, .bd {
        fill: #1e393f;
      }

      .bs {
        clip-path: url(#c);
      }

      .bo {
        stroke-dasharray: 0 0 3.38 9;
      }

      .bp {
        stroke-dasharray: 0 0 3.03 8.09;
      }

      .bc {
        fill: #e6f5f6;
        opacity: .6;
      }

      .be {
        fill: #9f7552;
      }

      .bf {
        fill: #ce9969;
      }

      .bg {
        fill: #4975a1;
      }

      .bh {
        fill: #698db6;
      }

      .bi {
        fill: #412312;
      }

      .bj {
        fill: #3c8875;
      }
    </style>
    <clipPath id="c">
      <path class="am" d="M677.82,412.76c58.3-12.84,113.78-32.83,162.38-63.12,110.53-68.89,185.24-239.91,42.97-318.11C826.22.23,756.46,2.83,693.01,13.11c-86.61,14.02-173.52,23.03-261.63,16.6-78.29-5.71-158.07-12.9-234.68,2.2C120.08,47.01,45.6,89.12,19.89,153.48c-47.14,118.01,76.58,222.21,195.57,254.57,65.27,17.75,135.55,23.51,203.69,25.02,83.93,1.87,174.26-1.72,258.66-20.31"/>
    </clipPath>
  </defs>
  <g id="a" data-name="art">
    <g id="b" data-name="city bg">
      <g class="bs">
        <g id="d" data-name="bg">
          <rect class="ai" x="-11.15" y="-38.37" width="1204.09" height="677.03"/>
          <g>
            <path class="at" d="M507.08,245.88c14.13-9.78,48.81,4.29,48.9,23.36.1,23.08-47.19,33.79-54.33,17.93-6.61-14.69-8.69-31.51,5.43-41.29Z"/>
            <g>
              <path class="al" d="M551.13,226.34c-11.48-.88-29.21-.99-32.6,12.33-3.07,12.05-2.96,29.25,9.26,34.95,21.78,10.17,67.74,4.81,49.6-28.47-4.69-8.61-17.04-16.17-26.26-18.81Z"/>
              <g>
                <path class="ar" d="M556.07,278.94c-3.03-2.91-5.11-6.43-7.4-9.82-2.28-3.39-4.49-6.83-6.71-10.26-2.18-3.45-4.37-6.91-6.5-10.4-2.14-3.48-4.4-6.89-5.83-10.82l.25-.16c2.97,2.95,5.12,6.43,7.39,9.82,2.28,3.39,4.5,6.82,6.72,10.25,2.18,3.45,4.38,6.9,6.51,10.39,2.12,3.5,4.45,6.86,5.82,10.83l-.25.16h0Z"/>
                <path class="ar" d="M549.17,258.92c-.83-1.64-.53-3.16-.48-4.71.07-1.55.18-3.09.33-4.63.15-1.54.36-3.07.59-4.61.23-1.53.31-3.08,1.37-4.53l.29.03c.76,1.63.54,3.16.47,4.71-.07,1.55-.17,3.09-.32,4.63-.15,1.54-.35,3.07-.58,4.61-.25,1.53-.25,3.08-1.38,4.53l-.29-.03h0Z"/>
                <path class="ar" d="M546.29,263.21c-.22-1.58.55-2.59,1.09-3.73.56-1.13,1.16-2.24,1.79-3.32.63-1.09,1.32-2.14,2.02-3.19.7-1.05,1.28-2.17,2.7-2.79l.25.15c.16,1.55-.54,2.6-1.1,3.73-.57,1.13-1.15,2.24-1.79,3.33-.63,1.09-1.31,2.15-2.01,3.2-.72,1.03-1.22,2.2-2.71,2.79l-.25-.15h0Z"/>
                <path class="ar" d="M537.94,250.57c-.56-1.68-.02-3.06.28-4.51.31-1.44.67-2.87,1.06-4.29.39-1.42.84-2.82,1.31-4.22.47-1.4.8-2.83,2.07-4.01l.28.08c.49,1.66.03,3.06-.29,4.5-.32,1.44-.66,2.87-1.05,4.29-.39,1.42-.83,2.83-1.3,4.22-.49,1.39-.73,2.85-2.08,4.01l-.28-.08h0Z"/>
                <path class="ar" d="M543.84,260.89c-2.1.38-3.85-.33-5.69-.8-1.83-.49-3.64-1.01-5.44-1.57l-5.4-1.72c-1.8-.59-3.63-1.03-5.2-2.42l.08-.28c2.07-.37,3.88.21,5.72.65,3.71.82,7.31,2,10.87,3.29,1.78.66,3.63,1.08,5.14,2.59l-.09.28h0Z"/>
                <path class="ar" d="M530.73,256.73c-1.3-.54-1.56-1.53-2.04-2.42-.47-.9-.9-1.81-1.3-2.74-.39-.93-.74-1.88-1.06-2.84-.32-.96-.78-1.86-.33-3.15l.27-.11c1.24.57,1.57,1.53,2.04,2.42.46.9.91,1.8,1.31,2.73.39.93.75,1.87,1.07,2.83.3.97.84,1.84.32,3.15l-.27.11h0Z"/>
                <path class="ar" d="M552.09,271.53c.63-2.7,2.21-4.75,3.57-6.95,1.38-2.19,2.81-4.34,4.24-6.5,1.47-2.13,2.94-4.26,4.46-6.35,1.52-2.1,2.91-4.28,5.11-5.91l.24.16c-.69,2.65-2.2,4.76-3.58,6.95-1.38,2.19-2.81,4.35-4.24,6.5-1.47,2.13-2.93,4.27-4.45,6.36-1.53,2.09-2.85,4.32-5.12,5.91l-.24-.16h0Z"/>
                <path class="ar" d="M562.94,257.16c-1.21-.91-1.3-2.06-1.64-3.15-.32-1.1-.6-2.21-.85-3.32-.24-1.12-.43-2.25-.59-3.38-.16-1.13-.47-2.24.18-3.55l.29-.06c1.14.92,1.31,2.06,1.63,3.15.32,1.1.61,2.21.86,3.32.24,1.12.44,2.24.6,3.38.14,1.14.53,2.22-.19,3.55l-.29.06h0Z"/>
                <path class="ar" d="M565.39,239.8c.58,1.15.1,1.85-.13,2.65-.26.79-.55,1.57-.88,2.33-.33.76-.71,1.5-1.11,2.23-.4.73-.67,1.52-1.84,1.91l-.27-.12c-.51-1.12-.12-1.86.14-2.65.26-.79.54-1.57.87-2.34.33-.76.7-1.5,1.1-2.23.42-.72.61-1.54,1.85-1.91l.27.12h0Z"/>
                <path class="ar" d="M557.65,264.22c2.54-2,5.8-2.49,8.73-3.69,1.5-.5,3.02-.96,4.54-1.4,1.52-.44,2.99-1.03,4.79-.7l.1.28c-1.19,1.39-2.72,1.85-4.19,2.45-2.95,1.2-5.96,2.23-9.05,3.03-1.55.35-3.06,1.06-4.92.33v-.29h0Z"/>
              </g>
            </g>
          </g>
          <g>
            <path class="at" d="M266.77,256.1c8.19-27.17,48.81,4.29,48.9,23.36.1,23.08-51.51,22.94-58.65,7.09-6.61-14.69,1.89-37.33,9.75-30.45Z"/>
            <path class="at" d="M195.18,234.25c14.13-9.78,48.81,4.29,48.9,23.36.1,23.08-47.19,33.79-54.33,17.93-6.61-14.69-8.69-31.51,5.43-41.29Z"/>
            <g>
              <path class="al" d="M260.48,277.88c17.5-8.93,21.63-39.99,17.1-56.34-4.15-15-11.88-17.11-28.92-17.97-43.7-2.2-32.46,37.69-22.24,58.72,5.15,10.59,15.26,19.97,27.94,17.65,2.2-.4,4.24-1.11,6.12-2.07Z"/>
              <g>
                <path class="ar" d="M248.2,270.95c-3.57-5.63-7.01-14.7-9.92-20.78-1.53-3.52-3.07-7.04-4.56-10.59-1.49-3.54-3.13-7.02-3.87-10.9l.27-.12c2.41,3.13,3.92,6.67,5.56,10.14,1.65,3.47,3.23,6.98,4.8,10.49,1.53,3.53,3.06,7.05,4.51,10.62,1.4,3.58,3.16,7.03,3.49,11.07l-.29.07h0Z"/>
                <path class="ar" d="M248.25,269.58c-.07-4.68.97-9.13,1.76-13.63.81-4.5,1.69-8.99,2.56-13.47.92-4.48,1.83-8.96,2.81-13.42.97-4.47,1.8-8.96,3.59-13.27l.29.06c-.3,9.16-2.8,18.11-4.32,27.1-.92,4.48-1.82,8.96-2.8,13.42-1,4.46-1.74,8.98-3.6,13.27l-.29-.06h0Z"/>
                <path class="ar" d="M239.17,245.84c-.87-1.11-.6-2.09-.58-3.1.04-1.01.11-2.01.22-3.01.12-1,.29-1.99.48-2.98.19-.99.24-1.99,1.27-2.89l.29.03c.79,1.1.61,2.09.57,3.1-.04,1.01-.1,2.01-.21,3.01-.12,1-.27,1.99-.47,2.98-.22.99-.18,2-1.28,2.89l-.29-.03h0Z"/>
                <path class="ar" d="M249.7,262.99c1.01-2.54,2.85-4.3,4.5-6.24,1.66-1.93,3.39-3.8,5.1-5.69,1.75-1.85,3.49-3.71,5.29-5.51,1.79-1.81,3.47-3.73,5.87-4.98l.22.2c-1.06,2.49-2.84,4.31-4.51,6.23-1.67,1.93-3.38,3.81-5.09,5.7-1.75,1.85-3.49,3.71-5.28,5.52-1.81,1.8-3.42,3.77-5.88,4.97l-.22-.2h0Z"/>
                <path class="ar" d="M232.09,233.54c-.57-1.26-.07-2.11.19-3.05.28-.93.59-1.85.95-2.75.35-.9.76-1.78,1.19-2.66.43-.87.72-1.8,1.92-2.37l.27.11c.5,1.24.08,2.11-.2,3.04-.28.93-.58,1.85-.94,2.75-.35.9-.75,1.79-1.18,2.66-.45.86-.66,1.82-1.93,2.36l-.27-.11h0Z"/>
                <path class="ar" d="M256.15,232.3c.14-1.86,1.2-3.05,2.06-4.39.87-1.33,1.77-2.63,2.71-3.91.94-1.28,1.92-2.53,2.92-3.76,1-1.23,1.88-2.55,3.56-3.29l.24.17c-.2,1.82-1.19,3.06-2.07,4.39-.88,1.32-1.77,2.64-2.7,3.92-.94,1.28-1.91,2.53-2.91,3.77-1.02,1.22-1.83,2.59-3.57,3.29l-.24-.17h0Z"/>
                <path class="ar" d="M240.47,254.53c-1.71-.06-2.74-1.03-3.92-1.79-1.17-.78-2.31-1.59-3.43-2.44-1.12-.85-2.2-1.74-3.27-2.65-1.07-.91-2.23-1.7-2.8-3.28l.18-.23c1.67.12,2.75,1.02,3.91,1.8,1.16.79,2.32,1.59,3.44,2.43,1.12.85,2.21,1.73,3.28,2.64,1.06.93,2.27,1.65,2.79,3.28l-.18.23h0Z"/>
                <path class="ar" d="M251.42,249.24c-1.18-1.23-1.32-2.61-1.71-3.98-.75-2.74-1.37-5.5-1.84-8.31-.24-1.4-.63-2.77-.07-4.36l.29-.07c1.22,1.17,1.47,2.58,1.87,3.95.8,2.74,1.45,5.51,1.87,8.34.19,1.41.65,2.81-.12,4.39l-.29.04h0Z"/>
              </g>
            </g>
          </g>
          <g>
            <path class="bj" d="M746.86,289.6c.9-8.72-8.4-46.22-22.65-29.32-7.29-10.89-21.53-13.28-24.96,1-11.97-10.24-24.73-5.53-29.42,8.06-2.79-9-15.01-12.47-19.96-3.89-5.13-8.46-11.11-21.18-21.62-12.36-13.69-19.51-45.34-11.09-54.9,6.35-13.76-10.35-21.35,3.32-23.2,6.46-2.39-3.94-23.37-11.2-24.16,6.28-12.33-.46-14.67,14.42-4.1,20.49-10.36.64-11.51,10.96-3.39,15.66,10.02,5.8,90.76,3.86,123.06,1.53,31.61-2.29,64.93-.49,96.33-2.73,19.17-1.36,29.79-8.57,8.95-17.53Z"/>
            <path class="bj" d="M540.54,317.98c-5.16,8.63-98.64,6.33-113.81,6.03-36.01-.7-93.25-4.45-106.04-14.66-12.8-10.21.97-18.4,1.36-25.1.47-7.94-3.23-22.01,12.14-19.32.58.1,1.13-.23,1.22-.77,1.65-10.42,3.23-22.19,17.04-16.94.59.22,1.25-.1,1.37-.66,1.94-9.14,12.7-19.64,19.36-10.33.44.62,1.38.62,1.78,0,5.08-8.05,20.87-11.15,22.47-.93.13.86,1.27,1.17,1.85.51,7.76-8.79,27.23-10.24,27.4,3.31.01.87,1.11,1.33,1.77.74,10.05-9.04,30.16-1.34,26.71,12.63-.21.85.84,1.54,1.6,1.04,9.78-6.33,21.93,1.98,19.99,13.63-.13.79,1.07,1.74,1.51,1.06,1.99-3.05,8.58-3.11,9.67,1.9.14.63,1.2.59,1.65.12,5.81-6.1,17.09-.4,14.47,9.28-.1-15.49,22.84-7.89,17.41,9.38-.27.85,5.3-1.11,6.82,4.12,1.52,5.23-3.69,13.41-2.88,13.02,7.53-3.67,20.32,3.32,15.16,11.95Z"/>
            <path class="aq" d="M591.46,287.93c-.63-3.95,3.41-7.18,6.93-7.95,3.54-.65,8.27.21,9.94,3.72,0,0-.2.22-.2.22-.49-.08-.91-.22-1.3-.37-4.68-2.16-10.32-2.17-13.42,2.51-.52.68-.99,1.33-1.68,1.95,0,0-.28-.08-.28-.08h0Z"/>
            <path class="aq" d="M614.39,256.18c-1.79-.37-2.79-1.37-4.11-1.97-4.06-1.9-7.15-.67-9.95,2.52-.27.27-.56.54-.95.79l-.27-.11c-.23-3.67,3.75-6.37,7.14-6.5,1.82-.07,3.58.51,5.03,1.38,1.44.88,2.88,1.87,3.31,3.68l-.21.21h0Z"/>
            <path class="aq" d="M414.37,263.71c-1.62-.99-3.1-1.7-4.68-1.89-5.21-.68-8.77,4.84-5.8,9.29.6.91-.41,2.12-1.4,1.71-1.24-.46-2.74-.64-4.16-.58-2.52.08-5.8,1.31-5.42,4.27.21,1.47,1.23,2.92,1.23,4.5,0,0-.29.04-.29.04-.58-1.4-1.82-2.43-2.4-4.18-1.55-6.34,7.41-7.95,11.86-6.24,0,0-1.4,1.71-1.4,1.71-4.17-6.03.93-13.8,8.12-12.49,2.07.41,3.84,1.86,4.57,3.67l-.23.19h0Z"/>
            <path class="aq" d="M462.86,295.5c-.94-1.35-.95-2.64-1.56-4.03-1.15-2.97-4.11-5.29-7.18-3.54-.69.27-1.31.57-2.11.74,0,0-.21-.2-.21-.2.42-1.77,1.97-2.82,3.68-3.22,3.65-.98,7.02,2.23,7.85,5.49.45,1.55.81,3.25-.19,4.77h-.29Z"/>
            <path class="aq" d="M455.32,274.7c.51,1.87-1.52,3.18-3.08,3.51-3.98,1.2-10.86-1.7-11.06-6.25,0,0,.26-.14.26-.14.79.35,1.27.79,1.81,1.19,2.57,2.46,6.77,4.11,10.15,2.56.51-.23.93-.46,1.64-.94l.28.08h0Z"/>
            <path class="aq" d="M352.7,262.11c1.54.57,2.19,1.56,3.21,2.3,1.93,1.45,4.2,2.33,6.61,2.19.92-.06,1.8-.35,2.74-.39.33-.03.69-.05,1.1,0l.15.25c-.73,1.46-2.23,1.99-3.73,2.25-2.97.59-6.17-.58-8.29-2.67-1.03-1.01-2.13-2.09-2.05-3.79l.25-.16h0Z"/>
          </g>
          <g class="br">
            <g>
              <polygon class="bh" points="491.2 167.4 434.7 167.4 434.7 197.37 359.47 197.37 359.47 168.28 285.13 168.28 285.13 145.27 261.29 145.27 261.29 124.92 232.92 124.92 232.92 145.27 218.31 145.27 218.31 82.88 127.16 82.88 127.16 501.62 193.98 501.62 193.98 510.42 285.13 510.42 285.13 362.1 351.51 362.1 351.51 391.19 442.66 391.19 442.66 361.21 491.2 361.21 491.2 167.4"/>
              <rect class="bh" x="708.88" y="161.36" width="54.73" height="193.82"/>
              <rect class="bh" x="755.87" y="172.33" width="83.51" height="193.82"/>
              <rect class="bh" x="836.88" y="94.22" width="28.38" height="193.82"/>
              <polygon class="bh" points="907.21 203.16 907.21 107.24 823.7 107.24 823.7 203.16 730.04 203.16 730.04 184.66 675.31 184.66 675.31 203.16 626.83 203.16 626.83 192.19 598.46 192.19 598.46 203.16 570.49 203.16 570.49 396.97 910.35 396.97 910.35 203.16 907.21 203.16"/>
              <rect class="bh" x="24.05" y="197.37" width="106.87" height="193.82"/>
            </g>
            <g>
              <rect class="bg" x="197.8" y="97.03" width="9.25" height="12.85"/>
              <rect class="bg" x="185.74" y="97.03" width="9.25" height="12.85"/>
              <rect class="bg" x="185.46" y="127.6" width="9.25" height="12.85"/>
              <rect class="bg" x="173.41" y="142.71" width="9.25" height="12.85"/>
              <rect class="bg" x="203.45" y="176.42" width="9.25" height="12.85"/>
              <rect class="bg" x="285.67" y="179.5" width="33.34" height="12.85"/>
              <rect class="bg" x="322.16" y="179.5" width="33.34" height="12.85"/>
              <rect class="bg" x="248.67" y="153.81" width="9.25" height="12.85"/>
              <rect class="bg" x="259.63" y="169.15" width="9.25" height="12.85"/>
              <rect class="bg" x="236.34" y="201.08" width="9.25" height="12.85"/>
              <rect class="bg" x="459.67" y="200.55" width="10.91" height="15.15"/>
              <rect class="bg" x="472.4" y="182.97" width="10.91" height="15.15"/>
              <rect class="bg" x="693.39" y="190.29" width="9.25" height="12.85"/>
              <rect class="bg" x="681.34" y="190.29" width="9.25" height="12.85"/>
              <rect class="bg" x="741.95" y="198.51" width="9.25" height="12.85"/>
              <rect class="bg" x="729.89" y="213.62" width="9.25" height="12.85"/>
              <rect class="bg" x="841.53" y="148.44" width="9.25" height="12.85"/>
              <rect class="bg" x="829.47" y="148.44" width="9.25" height="12.85"/>
              <rect class="bg" x="829.19" y="179.5" width="9.25" height="12.85"/>
              <rect class="bg" x="871.61" y="202.34" width="9.25" height="12.85"/>
              <rect class="bg" x="880.2" y="134.8" width="9.25" height="12.85"/>
              <rect class="bg" x="859.93" y="202.63" width="9.25" height="12.85"/>
              <rect class="bg" x="871.98" y="165.37" width="9.25" height="12.85"/>
              <rect class="bg" x="853.48" y="115.78" width="9.25" height="12.85"/>
              <rect class="bg" x="763.56" y="179.5" width="28.92" height="12.85"/>
              <rect class="bg" x="795.22" y="179.5" width="28.92" height="12.85"/>
              <rect class="bg" x="713.71" y="167.17" width="9.25" height="12.85"/>
              <rect class="bg" x="2.29" y="238.69" width="9.25" height="12.85"/>
              <rect class="bg" x="-5.93" y="269.26" width="9.25" height="12.85"/>
              <rect class="bg" x="490.7" y="256.82" width="7.96" height="11.05"/>
              <rect class="bg" x="480.33" y="256.82" width="7.96" height="11.05"/>
              <rect class="bg" x="500.48" y="283.13" width="7.96" height="11.05"/>
              <rect class="bg" x="490.11" y="296.13" width="7.96" height="11.05"/>
              <rect class="bg" x="541.57" y="328.74" width="7.96" height="11.05"/>
              <rect class="bg" x="416.31" y="304.25" width="7.96" height="11.05"/>
              <rect class="bg" x="425.74" y="317.45" width="7.96" height="11.05"/>
              <rect class="bg" x="569.86" y="349.96" width="7.96" height="11.05"/>
              <rect class="bg" x="872.11" y="258.36" width="23.12" height="12.85"/>
              <rect class="bg" x="844.83" y="241.93" width="23.12" height="12.85"/>
              <rect class="bg" x="753.04" y="242.65" width="17.29" height="12.85"/>
              <rect class="bg" x="730.51" y="242.65" width="17.29" height="12.85"/>
              <rect class="bg" x="782.55" y="305.72" width="9.25" height="12.85"/>
              <rect class="bg" x="827.77" y="283.11" width="9.25" height="12.85"/>
              <rect class="bg" x="838.73" y="298.45" width="9.25" height="12.85"/>
              <rect class="bg" x="815.44" y="330.39" width="9.25" height="12.85"/>
            </g>
          </g>
          <ellipse class="az" cx="303.83" cy="91.93" rx="26.02" ry="25.88"/>
          <path class="bc" d="M451.2,87.56c-20.34,2.25-38.17,19.1-41.58,39.27-8.14-6.49-21.14-5.73-28.47,1.66-15.8-5.65-34.7-1.33-46.48,10.63,3.37,2.09,7.57,2.14,11.54,2.13,27.21-.1,54.42-.2,81.63-.3,27.05-.1,54.09-.2,81.14-.3,7.66-.03,15.32-.06,22.97-.09,7.55-.03,15.4.55,22.9-.14.62-4.8-2.52-11.98-4.42-16.37-1.87-4.33-4.37-8.46-7.79-11.74-6.88-6.61-16.32-8-25.43-6.23-7.11,1.38-13.43,3.84-16.85,10.61-7.36-14.64-19.53-25.52-36.05-28.6-4.32-.8-8.75-1-13.11-.52Z"/>
          <path class="bc" d="M787.2,101.3c-3.15-2.74-8.51-2.58-12.88-2.85-21.22,3.64-5.34-12.6-20.47-18.92-5.16-2.09-11.68-1.04-15.31,2.91-7.94-10.51-30.8-13.53-39.41-2.18-22.55-8.08-18.48,15.48-30.27,18.22-7.89,14.31,46.46,3.71,56.69,7.23,12.28-2.11,61.63,6.7,61.65-4.4Z"/>
          <path class="bc" d="M1036.65,195.49c-4.67-4.05-12.58-3.81-19.04-4.22-31.38,5.38-7.9-18.64-30.28-27.98-7.63-3.09-17.27-1.53-22.64,4.31-11.74-15.55-45.55-20.02-58.28-3.23-33.34-11.95-27.33,22.9-44.77,26.94-11.66,21.16,68.72,5.49,83.85,10.69,18.16-3.11,91.15,9.92,91.17-6.51Z"/>
          <path class="av" d="M1078.49,268.56c-3.55-8.23-15.86-12.33-23.02-6.82,3.57-15.61-31.78-25.62-41.97-17.52-9.49-8.99-12.58,18.2-9.78,24.16-12.48-4.95-26.7-2.01-34.44,9.17-5.15-15.24-24.75-4.37-34.63-6.9-3.12-.8-7.71-6.6-11.59-8.3-5.85-2.55-27.61-6.56-31.19,1.46-13.17-6.85-17.22,6.13-26.6,6.16-7.08.02-10.94-12.61-17.86-3.79-3.83-4.9-9.16-8.72-14.97-8.14-5.88-4.27-15.04-5.87-16.55,4.08-8.74-7.56-17.88-8.46-26.5.33-6.85-10.89-23.87-3.37-32.57,1.12-3.92-7.28-15.24-11.39-19.67-2.44-3.96-7.07-13.26-13.17-20.27-6.33-5.77-6.26-15.99-14.4-23.7-5.73-4.99-5.39-13.17-7.53-14.83,2.11-10.89-3.47-48.41-3.32-40.79,16.21-6.17-8.75-18.61,2.62-22.69,9.2-5.77-6.91-15.76-2.88-17.95,5.63-7.18-1.71-13.38,1.92-18.94,5.67-2.58-5.54-27.35-9.33-30.99-2.66-4.72-5.59-13.32-11.67-18.71-4.93-3.6-14.39-36.78-21.82-37.39.53-5.42-8.62-23.77-.87-25.85,7.95-2.1-1.53-3.84-.4-5.16,2.38-.57.35-1.12.77-1.67,1.29-4.42-3.14-9.53-3.58-13.02.5-3.68-8.13-23.15-16.07-30.41-9.2-5.06-10.64-19.55-22.37-25.48-5.9-5.4-6.27-13.7-2.86-13.93,2.53-5.23-14.76-29.99-32.32-43.34-33.06-18.75-1.03-50.94-4.61-60.57,12.23-5.58,9.75-7.95,7.43-15.44,6.11s-9.78,5.44-10.18,9.31c-3.82-7.92-14.47-6.68-17.8,2.13-3.68-7.4-11.48-6.81-15.05.79-6.55-6.95-11.7.55-18.23,1.37-7.22.91-35.81-7.66-34.23,7.23-7.29,1.24-18.55.53-19.91,9.12-5.8-7.54-14.67-15.38-23.42-7.1-5.03-9.61-23.89-10.76-33.64-8.62-8.11,1.78-18.55,1.08-21.36,10.27-1.72,5.61-6.63-14.8-11.98-17.57-5.94-3.07-43.06,1.65-47.59,7.44-8.51,10.86,2.16,58.67,6.58,71.25,3.53,10.06,3.87,10.95,13.97,15.75,23.39,11.12,56.21,14.36,81.53,19.57,26.87,5.52,52.76,9.89,80.1,11.95,39.85,3,77.29-.07,117.2-1.02,48.7-1.17,97.9-5.61,146.13-12.22,14.12-1.93,53.94-1.44,61.81-17.61,2.14-4.39.79-13.4-2.68-22.4,66.77,4.87,189.3,7.89,215.57,7.63,56.77-.56,111.26,5.47,167.64-3.98,32-5.36,64.22-7.94,96.28-12.42,20.83-2.91,40.29,3.56,60.5-1.29,18.59-4.46,46.07,6.61,51.7-11.49,2.19-7.05-17.38-47.98-20.5-55.2Z"/>
          <g id="e" data-name="wall">
            <polygon class="ak" points="771.16 346.24 183.82 346.24 183.82 288.09 775.63 288.09 771.16 346.24"/>
            <rect class="ba" x="201.13" y="300.47" width="18.03" height="11.74"/>
            <rect class="ba" x="168.6" y="334.63" width="18.03" height="11.74"/>
            <rect class="ba" x="176.98" y="303.3" width="18.03" height="11.74"/>
            <rect class="ba" x="335.22" y="288.22" width="18.03" height="11.74"/>
            <rect class="ba" x="479.8" y="303.3" width="18.03" height="11.74"/>
            <rect class="ba" x="252.07" y="334.63" width="18.03" height="11.74" transform="translate(522.18 681.01) rotate(180)"/>
            <rect class="ba" x="219.38" y="288.22" width="18.03" height="11.74" transform="translate(456.78 588.19) rotate(180)"/>
            <rect class="ba" x="312.43" y="319.55" width="18.03" height="11.74" transform="translate(642.89 650.85) rotate(180)"/>
            <rect class="ba" x="435.97" y="319.55" width="18.03" height="11.74"/>
            <rect class="ba" x="435.97" y="291.56" width="18.03" height="11.74"/>
            <rect class="ba" x="556.94" y="319.55" width="18.03" height="11.74"/>
            <rect class="ba" x="375.62" y="334.63" width="18.03" height="11.74"/>
            <path class="au" d="M211.89,331.92c-5.96,1-13.01.91-19.24,1.04-.08-4.7-.07-9.4-.1-14.1h1.21c5.01.02,14.06.11,19.07.2,0,4.21-.27,8.85-.94,12.86h0ZM211.68,331.72c-.52-4.12-.9-7.67-.92-11.64,0,0,1.03,1.03,1.03,1.03l-9.01.13-9.01.05,1.21-1.21c-.02,3.91-.02,7.83-.08,11.74l-1.13-1.13c6.18.11,11.51.16,17.92,1.02h0Z"/>
            <g class="br">
              <path class="au" d="M544.77,315.15c-5.96,1-13.01.91-19.24,1.04-.08-4.7-.07-9.4-.1-14.1h1.21c5.01.02,14.06.11,19.07.2,0,4.21-.27,8.85-.94,12.86h0ZM544.56,314.94c-.52-4.12-.9-7.67-.92-11.64,0,0,1.03,1.03,1.03,1.03l-9.01.13-9.01.05,1.21-1.21c-.02,3.91-.02,7.83-.08,11.74l-1.13-1.13c6.18.11,11.51.16,17.92,1.02h0Z"/>
            </g>
            <g class="br">
              <path class="au" d="M409.97,315.92c-5.96,1-13.01.91-19.24,1.04-.08-4.7-.07-9.4-.1-14.1h1.21c5.01.02,14.06.11,19.07.2,0,4.21-.27,8.85-.94,12.86h0ZM409.76,315.71c-.52-4.12-.9-7.67-.92-11.64,0,0,1.03,1.03,1.03,1.03l-9.01.13-9.01.05,1.21-1.21c-.02,3.91-.02,7.83-.08,11.74l-1.13-1.13c6.18.11,11.51.16,17.92,1.02h0Z"/>
            </g>
            <g class="br">
              <path class="au" d="M593.1,303.41c-5.96,1-13.01.91-19.24,1.04-.08-4.7-.07-9.4-.1-14.1h1.21c5.01.02,14.06.11,19.07.2,0,4.21-.27,8.85-.94,12.86h0ZM592.89,303.2c-.52-4.12-.9-7.67-.92-11.64,0,0,1.03,1.03,1.03,1.03l-9.01.13-9.01.05,1.21-1.21c-.02,3.91-.02,7.83-.08,11.74l-1.13-1.13c6.18.11,11.51.16,17.92,1.02h0Z"/>
            </g>
            <path class="au" d="M155.21,288.53c166.94-1.65,350.56-1.58,517.5,0,0,0,0,.3,0,.3-166.74,1.28-351.33,2.21-517.5-.29h0Z"/>
          </g>
          <g id="f" data-name="halfpipe">
            <g id="g" data-name="left">
              <g id="h" data-name="plank">
                <path class="bf" d="M-71.55,152.07l144.53-.92,96.9,32.86c.18.06.38.1.57.13,1.38.18,8.09.86,6.72,20.12-1.3,18.25,1.01,125.44,137.88,137.43h122.48v38.75l-369.49,3.28L-71.55,152.07Z"/>
              </g>
              <g id="i" data-name="back">
                <polygon class="bd" points="73.74 383.72 -68.3 383.72 -71.55 159.35 66.82 159.35 73.74 383.72"/>
              </g>
              <g id="j" data-name="top gate">
                <path class="bk" d="M-71.55,78.01H71.44v79.19H-68.11c-1.9,0-3.44-1.54-3.44-3.44v-75.75h0Z"/>
                <path class="bk" d="M73.74,132.31s85.77.6,86.37,0c.54-.54.1,40.2.01,47.81,0,.6-.6,1.01-1.16.81l-85.22-29.79v-18.09"/>
                <line class="bk" x1="103.67" y1="133.47" x2="103.67" y2="160.62"/>
                <line class="bk" x1="59.99" y1="132.31" x2="-71.55" y2="78.01"/>
                <line class="bk" x1="17.17" y1="157.19" x2="17.17" y2="115.86"/>
                <line class="bk" x1="38.84" y1="157.19" x2="38.84" y2="123.96"/>
                <line class="bk" x1="71.44" y1="78.01" x2="55.29" y2="147.04"/>
                <line class="bk" x1="55.29" y1="157.19" x2="55.29" y2="145.11"/>
                <line class="bk" x1="59.73" y1="157.19" x2="59.73" y2="132.31"/>
                <line class="bk" x1="67.04" y1="157.19" x2="67.04" y2="98.63"/>
              </g>
              <path id="k" data-name="curve" class="bd" d="M292.6,383.72l.07,69.47-221.37-25.59-5.18-268.27c.55-.78,6.88-6.78,14.85-7.23,5.56-.32,9.72,2.26,12.21,4.43,1.69,1.47,2.54,3.68,2.35,5.92-1.7,20.18-3.17,76.4,34.17,129.03,47.86,67.44,124,79.01,152.44,80.98,5.87.41,10.42,5.28,10.46,11.16v.11Z"/>
              <polygon class="bd" points="441.46 462.78 286.07 462.03 286.07 380.44 437.54 380.44 441.46 462.78"/>
            </g>
            <g id="l" data-name="right">
              <g id="m" data-name="plank">
                <path class="bf" d="M946.62,152.07l-144.53-.92-96.9,32.86c-.18.06-.38.1-.57.13-1.38.18-8.09.86-6.72,20.12,1.3,18.25-1.01,125.44-137.88,137.43h-122.48v38.75s369.49,3.28,369.49,3.28l139.59-231.65Z"/>
              </g>
              <g id="n" data-name="back">
                <polygon class="bd" points="801.52 403.07 943.56 403.07 946.81 159.42 804.55 159.42 801.52 403.07"/>
              </g>
              <g id="o" data-name="top gate">
                <path class="bk" d="M807.08,78.01h139.55v79.19h-142.98v-75.75c0-1.9,1.54-3.44,3.44-3.44Z" transform="translate(1750.26 235.2) rotate(180)"/>
                <line class="bk" x1="815.09" y1="132.31" x2="946.62" y2="78.01"/>
                <line class="bk" x1="883.36" y1="157.19" x2="883.36" y2="78.01"/>
                <line class="bk" x1="912.73" y1="157.19" x2="912.73" y2="92"/>
                <line class="bk" x1="857.9" y1="157.19" x2="857.9" y2="115.86"/>
                <line class="bk" x1="836.23" y1="157.19" x2="836.23" y2="123.96"/>
                <line class="bk" x1="803.64" y1="78.01" x2="819.79" y2="147.04"/>
                <line class="bk" x1="819.79" y1="157.19" x2="819.79" y2="145.11"/>
                <line class="bk" x1="815.35" y1="157.19" x2="815.35" y2="132.31"/>
                <line class="bk" x1="808.04" y1="157.19" x2="808.04" y2="98.63"/>
                <path class="bk" d="M801.33,132.31s-85.77.6-86.37,0c-.54-.54-.1,40.2-.01,47.81,0,.6.6,1.01,1.16.81l85.22-29.79v-18.09"/>
                <line class="bk" x1="771.41" y1="133.47" x2="771.41" y2="160.62"/>
              </g>
              <path id="p" data-name="curve" class="bd" d="M781.9,156.53c-1.69,1.47-2.54,3.68-2.35,5.92,1.7,20.18,3.17,76.4-34.17,129.03-47.86,67.44-124,79.01-152.44,80.98-5.87.41-10.42,5.28-10.46,11.16v.11s.81,82.91.81,82.91l220.49-63.63,5.18-243.67c-.55-.78-6.88-6.78-14.85-7.23-5.56-.32-9.72,2.26-12.21,4.43"/>
              <polygon class="bd" points="438.16 462.53 589.78 462.78 589.01 380.44 437.54 380.44 438.16 462.53"/>
            </g>
          </g>
        </g>
      </g>
    </g>
    <g>
      <g id="q" data-name="legs">
        <path id="r" data-name="leg1" class="be" d="M65.61,96.47l20.51,29.1-3.27,23.41,3.96.26,8.92-22.84c.42-1.08.42-2.27,0-3.35l-13.13-33.06-16.98,6.49Z"/>
        <path id="s" data-name="leg 2" class="be" d="M66.24,95.47s-2.35,7.68,5.11,9.32c6.92,1.52,27.59,3.7,27.59,3.7l18.26,4.6,13.28,18.65,3.7-1.85-10.2-22.62c-.43-.96-1.13-1.76-2.02-2.33-5.74-3.62-29.46-16.49-36.45-15.71l-19.28,6.23Z"/>
        <polygon id="t" data-name="arm" class="be" points="114.37 66.22 124.12 89.73 141.48 104.55 137.14 106.21 117.86 92.54 106.11 70.58 114.37 66.22"/>
        <path id="u" data-name="hand" class="be" d="M142.81,114.47l2.65-6.53c.15-.36.06-.78-.21-1.05-1.18-1.16-4.47-4.11-7.34-4.01,0,0-2.81,3.32.26,4.98l3.17,6.65c.3.63,1.21.61,1.48-.04Z"/>
      </g>
      <g id="v" data-name="shorts">
        <path class="aj" d="M116.69,101.6l-7.28,10.22c-.23.35-.66.68-1.04.51-10.82-4.76-42.22-5.95-44.68-15.58,2.39-1.7,5.52-3.59,9.39-5.17,6.12-2.51,9.47-1.84,13.33-2.04,6.13-.32,16.54,4.57,30.05,11.24.31.15.41.54.22.82Z"/>
        <path class="aj" d="M63.55,98.24c.77,1.59,2.09,4.07,4.16,6.83,2.29,3.05,3.92,4.34,7.12,7.92,1.43,1.59,4.9,7.02,7.27,10.21.32.06.99.65,1.47.23,1.17-1.01,4.05-2.52,10.94-2.77.48-.02.51-.5.31-.93l-6.42-14.55-24.85-6.94Z"/>
      </g>
      <g id="w" data-name="head">
        <path class="aw" d="M115.57,50.6c-1.46.38-4.3,1.08-5.87,1.47-.71.17-1.31.66-1.63,1.32l-1.45,2.98c-.32.67-.95,1.14-1.68,1.27l-4.63,2.39s-9.68-6.61-3.78-13.11c2.83-3.11,8.37-6.06,15.06-3.4,1.69.67,3.02,2.03,3.68,3.73l.87,2.23c.19.47-.08,1-.57,1.13Z"/>
        <path id="x" data-name="head" class="be" d="M96.41,62.38l9.68-5.9s-5.06-4.68,2.01-4.49l7.08-1.42c.02.44.11,1.08.44,1.75.42.84.87,1.06,1.14,1.76.17.45.55,1.14.22,2.15-.08.17-.3.89-1.19.84,0,0-.17,1.58-.88,2.64-.71,1.06-2.46,3.26-3.87,2.9-1.42-.35-2.15-.84-2.15-.84l-1.72,1.72-10.77-1.11Z"/>
        <path class="aj" d="M108.38,52.09c.98,4.41-2.38,8.01,3.74,9.92,0,0,.11.03.03.01-.05-.01-.11,0-.15,0-.17.02-.2.07-.17.06.15-.03.54-.4.84-.73.35-.33.77-.64,1.5-.82l.26.14c.22.73.09,1.31-.17,1.83-.43.76-1.45,2.13-2.73,1.76-3.91-.72-6.28-4.22-5.18-7.71.35-1.58.82-3.1,1.73-4.5,0,0,.29.05.29.05h0Z"/>
        <path class="aj" d="M107.72,56.09c-.16.52-.4.47-.62.55-.22.07-.45.11-.67.15-.51-.02-1.04.24-1.43-.35,0,0-.02-.15-.02-.15.23-.67.81-.55,1.3-.7.23-.02.46-.04.69-.03.23.02.45-.08.74.38l.02.15h0Z"/>
      </g>
      <g id="y" data-name="shirt">
        <path class="an" d="M118.92,77.11s-3.71-16.44-9.8-12.8c-5.09,3.04-1.81,13.74-.59,17.17.17.48.78.62,1.14.26,1.45-1.44,4.87-4.35,9.25-4.63Z"/>
        <path class="an" d="M115.38,68.7c-.83-2.03-1.15-3.42-3.04-4.64-3.73-2.42-8.08-3.47-12.43-3.07-1.81.16-4.85.8-6.55,1.46-1.85.71-14.55,10.63-17.18,13.41-1.97,2.07-3.89,4.29-5.73,6.49-3.59,4.3-7.79,7.74-8.92,14.81-.07.44-.18,3.83.39,4.07,0,0,4.51,1.92,13.7,0,9.2-1.92,19.99-9.97,19.99-9.97l3.56-6.43c.24-.43.56-.8.94-1.1l10.49-8.15s5.22-5.76,4.77-6.86Z"/>
      </g>
      <g id="z" data-name="skateboard">
        <path class="ay" d="M146.96,135.56c.02.14.17.31.21.44-.16.06-.35.26-.52.31.14.07.29.25.45.32-.61,1.72-.76,3.5-3.08,3.74-.38-.63-.76-1.74-1.43-2.08-.41-.21-.73.19-1.13-.01-.44-.23-.7-.7-.97-1.05.73-.49,6.04-2.23,6.47-1.67Z"/>
        <path class="ay" d="M98.56,151.73c.02.14,0,.58-.67,1.01-.16.06-.35.26-.52.31,0,0,0,0,0,0,.28.14.39.49.29.78-.5,1.57-.81,3.06-2.92,3.27-.38-.63-.76-1.74-1.43-2.08-.41-.21-.73.19-1.13-.01-.44-.23-.7-.7-.97-1.05.73-.49,6.92-2.79,7.35-2.24Z"/>
        <circle class="aw" cx="145.39" cy="141.8" r="2.87"/>
        <circle class="aw" cx="95.48" cy="158.13" r="2.87"/>
        <path class="aj" d="M157.99,127.98c-.19-.37-2.99-3.53-7.39-.37-4.4,3.16-5.6,3.35-5.6,3.35l-57.37,19.25s-10.23-.28-7.5,2.47c0,0,4.21,2.27,4.61,2.21s66.2-20.54,66.2-20.54l7.05-6.37Z"/>
        <path class="ap" d="M80.58,154.3l.29.12c2.63,1.08,5.55,1.2,8.26.33l59.46-19.1c2.59-.83,4.9-2.35,6.69-4.39l2.86-3.26-.16-.02c-1.43-.17-2.85.41-3.74,1.54l-1.49,1.89c-.98,1.24-2.3,2.16-3.8,2.64l-60.07,19.16c-2.46.78-5.11.66-7.49-.34l-1.67-.7h0c-.36.82.02,1.78.85,2.12Z"/>
        <circle class="as" cx="145.39" cy="141.8" r="1.25"/>
        <circle class="as" cx="95.61" cy="158.2" r="1.25"/>
      </g>
      <g id="aa" data-name="shoe">
        <path id="ab" data-name="leg 2" class="an" d="M128.33,129.43l1.93,3.12,4.81-2.41-1.75-3.88c-.19-.42-.7-.6-1.11-.38l-4.47,2.43c-.26.14.5.99.59,1.11Z"/>
        <path class="aj" d="M130.04,132.21c1.75-.4,2.7-.77,4.14-2.06,0,0-.25-1.27.36-1.52.46-.19,1.8.71,2.51,1.14.26.15.55.23.85.22l11.63-1.09c1.2-.03,1.55,1.61.45,2.08l-18.63,7.41s-3.8-5.1-3-6.66c.8-1.56,1.34-.18,1.34-.18,0,0,.28.66.35.65Z"/>
        <path class="ax" d="M148.54,128.86c1.17-.55,2.29,1,1.76,2.12-.17.44-.54.8-.93.98l.09-.04c-4.1,2.54-8.53,4.56-13.18,5.86-1.75.48-3.71,1.13-5.32.96-.58-.09-1.08-.74-.95-1.28,0,0,.29-.06.29-.06.25.29.66.34.82.05,2.89-1.34,5.92-2.16,8.83-3.44,2.99-1.14,5.89-2.6,8.82-3.82.33-.2.3-.73-.23-1.05,0,0,0-.29,0-.29h0Z"/>
      </g>
      <g id="ac" data-name="shoe">
        <path id="ad" data-name="leg1" class="an" d="M83.27,144.91l-.88,4.39,4.63.3,1.53-3.91c.1-.25-.07-.52-.33-.55l-4.5-.55c-.21-.03-.4.11-.45.32Z"/>
        <path class="aj" d="M82.65,147.89s.54,1.34,4.15,1.34c0,0,.06-1.05,1.02-1.05l10.6,2.75c.91.24.82,1.57-.12,1.66l-19,2s-.19-3.74,1.63-6.03c1.82-2.3,1.72-.67,1.72-.67Z"/>
        <path class="ax" d="M79.43,154.52c1.48-1.13,3.07-1.13,4.63-1.38,1.56-.23,3.13-.42,4.71-.57,1.57-.15,3.15-.24,4.73-.32,1.58-.07,3.15-.29,4.8.47l.03.29c-1.49,1.06-3.06,1.14-4.63,1.37-1.57.23-3.13.43-4.7.58-1.57.15-3.15.26-4.73.33-1.58.05-3.14.35-4.81-.48l-.03-.29h0Z"/>
      </g>
      <path class="bi" d="M112.24,58.78c.6-.82.76-.59,1.02-.59.25.02.49.07.71.16.22.09.42.23.61.4.19.16.44.19.31,1.13-.01.1-.05.2-.11.27-.57.76-.76.6-1.02.58-.25-.02-.49-.06-.72-.15-.22-.09-.43-.22-.62-.39-.18-.19-.46-.13-.31-1.14.02-.1.06-.19.11-.27,0,0-.06.08,0,0Z"/>
    </g>
    <path class="bb" d="M945.81,158.2v273.3h-453.71c64.51-17.12,152.93-45.89,247.81-103.45,94.2-57.15,161-120.81,205.89-169.85Z"/>
    <g id="ae" data-name="C Label">
      <g>
        <line class="bl" x1="956.79" y1="161.54" x2="972.63" y2="161.54"/>
        <polygon class="aj" points="959.12 169.52 945.31 161.54 959.12 153.56 959.12 169.52"/>
      </g>
      <rect class="bq" x="973.36" y="139.54" width="62.4" height="44" rx="22" ry="22"/>
    </g>
    <g id="af" data-name="B Label">
      <g>
        <line class="bl" x1="958.29" y1="268.94" x2="972.63" y2="268.94"/>
        <polygon class="aj" points="960.62 276.92 946.81 268.94 960.62 260.96 960.62 276.92"/>
      </g>
      <rect class="bq" x="973.36" y="246.94" width="62.4" height="44" rx="22" ry="22"/>
    </g>
    <g id="ag" data-name="A Label">
      <g>
        <line class="bl" x1="958.29" y1="381.65" x2="972.63" y2="381.65"/>
        <polygon class="aj" points="960.62 389.63 946.81 381.65 960.62 373.67 960.62 389.63"/>
      </g>
      <rect class="bq" x="973.45" y="359.65" width="62.4" height="44" rx="22" ry="22"/>
    </g>
    <g>
      <line class="bl" x1="946.81" y1="159.42" x2="946.81" y2="160.92"/>
      <line class="bm" x1="946.81" y1="168.89" x2="946.81" y2="427.79"/>
      <line class="bl" x1="946.81" y1="431.77" x2="946.81" y2="433.27"/>
    </g>
    <g>
      <line class="bl" x1="468.66" y1="432.51" x2="470.16" y2="432.51"/>
      <line class="bp" x1="478.25" y1="432.51" x2="941.26" y2="432.51"/>
      <line class="bl" x1="945.31" y1="432.51" x2="946.81" y2="432.51"/>
    </g>
    <g>
      <line class="bl" x1="776.93" y1="381.65" x2="778.43" y2="381.65"/>
      <line class="bn" x1="786.67" y1="381.65" x2="941.19" y2="381.65"/>
      <line class="bl" x1="945.31" y1="381.65" x2="946.81" y2="381.65"/>
    </g>
    <g>
      <line class="bl" x1="922.42" y1="268.94" x2="923.92" y2="268.94"/>
      <line class="bo" x1="932.93" y1="268.94" x2="940.8" y2="268.94"/>
      <line class="bl" x1="945.31" y1="268.94" x2="946.81" y2="268.94"/>
    </g>
  </g>
  <g id="ah" data-name="text">
    <g>
      <path class="aj" d="M1051.79,427.13c.96-1.18,2.21-1.77,3.75-1.77,2.68,0,4.03,1.51,4.05,4.54v8.38h-2.17v-8.39c0-.91-.22-1.59-.63-2.03s-1.05-.66-1.92-.66c-.7,0-1.32.19-1.85.56s-.95.87-1.24,1.48v9.04h-2.17v-18h2.17v6.86Z"/>
      <path class="aj" d="M1072.76,428.73h-9.77v-1.89h9.77v1.89ZM1072.76,433.59h-9.77v-1.88h9.77v1.88Z"/>
      <path class="aj" d="M1092.43,430.99c0,2.54-.43,4.43-1.3,5.66s-2.22,1.85-4.07,1.85-3.17-.6-4.04-1.81-1.33-3.01-1.36-5.41v-2.89c0-2.51.43-4.37,1.3-5.59s2.23-1.83,4.08-1.83,3.19.59,4.05,1.76,1.31,2.99,1.34,5.44v2.81ZM1090.27,428.03c0-1.84-.26-3.17-.77-4.01s-1.33-1.26-2.45-1.26-1.92.42-2.43,1.25-.77,2.12-.79,3.86v3.47c0,1.84.27,3.21.8,4.08s1.35,1.32,2.43,1.32,1.87-.41,2.38-1.24.79-2.13.81-3.91v-3.55Z"/>
      <path class="aj" d="M1095.48,437.13c0-.38.11-.69.33-.94s.56-.38,1-.38.78.12,1.01.38.35.56.35.94-.12.66-.35.9-.57.36-1.01.36-.78-.12-1-.36-.33-.54-.33-.9Z"/>
      <path class="aj" d="M1112.23,430.99c0,2.54-.43,4.43-1.3,5.66s-2.22,1.85-4.07,1.85-3.17-.6-4.04-1.81-1.33-3.01-1.36-5.41v-2.89c0-2.51.43-4.37,1.3-5.59s2.23-1.83,4.08-1.83,3.19.59,4.05,1.76,1.31,2.99,1.34,5.44v2.81ZM1110.06,428.03c0-1.84-.26-3.17-.77-4.01s-1.33-1.26-2.45-1.26-1.92.42-2.43,1.25-.77,2.12-.79,3.86v3.47c0,1.84.27,3.21.8,4.08s1.35,1.32,2.43,1.32,1.87-.41,2.38-1.24.79-2.13.81-3.91v-3.55Z"/>
      <path class="aj" d="M1117.27,425.59l.06,1.41c.93-1.09,2.18-1.64,3.76-1.64,1.77,0,2.98.68,3.62,2.04.42-.61.97-1.1,1.65-1.48s1.47-.56,2.4-.56c2.78,0,4.2,1.47,4.24,4.42v8.5h-2.17v-8.37c0-.91-.21-1.58-.62-2.03s-1.11-.67-2.09-.67c-.8,0-1.47.24-2,.72s-.84,1.13-.93,1.94v8.41h-2.18v-8.31c0-1.84-.9-2.77-2.71-2.77-1.42,0-2.39.61-2.92,1.82v9.26h-2.17v-12.68h2.05Z"/>
    </g>
    <g>
      <path class="aj" d="M1051.79,377.37c.96-1.18,2.21-1.77,3.75-1.77,2.68,0,4.03,1.51,4.05,4.54v8.38h-2.17v-8.39c0-.91-.22-1.59-.63-2.03s-1.05-.66-1.92-.66c-.7,0-1.32.19-1.85.56s-.95.87-1.24,1.48v9.04h-2.17v-18h2.17v6.86Z"/>
      <path class="aj" d="M1072.76,378.98h-9.77v-1.89h9.77v1.89ZM1072.76,383.84h-9.77v-1.88h9.77v1.88Z"/>
      <path class="aj" d="M1088.86,388.52h-2.18v-14.45l-4.37,1.61v-1.97l6.21-2.33h.34v17.14Z"/>
      <path class="aj" d="M1095.48,387.38c0-.38.11-.69.33-.94s.56-.38,1-.38.78.12,1.01.38.35.56.35.94-.12.66-.35.9-.57.36-1.01.36-.78-.12-1-.36-.33-.54-.33-.9Z"/>
      <path class="aj" d="M1112.23,381.24c0,2.54-.43,4.43-1.3,5.66s-2.22,1.85-4.07,1.85-3.17-.6-4.04-1.81-1.33-3.01-1.36-5.41v-2.89c0-2.51.43-4.37,1.3-5.59s2.23-1.83,4.08-1.83,3.19.59,4.05,1.76,1.31,2.99,1.34,5.44v2.81ZM1110.06,378.28c0-1.84-.26-3.17-.77-4.01s-1.33-1.26-2.45-1.26-1.92.42-2.43,1.25-.77,2.12-.79,3.86v3.47c0,1.84.27,3.21.8,4.08s1.35,1.32,2.43,1.32,1.87-.41,2.38-1.24.79-2.13.81-3.91v-3.55Z"/>
      <path class="aj" d="M1117.27,375.84l.06,1.41c.93-1.09,2.18-1.64,3.76-1.64,1.77,0,2.98.68,3.62,2.04.42-.61.97-1.1,1.65-1.48s1.47-.56,2.4-.56c2.78,0,4.2,1.47,4.24,4.42v8.5h-2.17v-8.37c0-.91-.21-1.58-.62-2.03s-1.11-.67-2.09-.67c-.8,0-1.47.24-2,.72s-.84,1.13-.93,1.94v8.41h-2.18v-8.31c0-1.84-.9-2.77-2.71-2.77-1.42,0-2.39.61-2.92,1.82v9.26h-2.17v-12.68h2.05Z"/>
    </g>
    <g>
      <path class="aj" d="M1051.79,266.36c.96-1.18,2.21-1.77,3.75-1.77,2.68,0,4.03,1.51,4.05,4.54v8.38h-2.17v-8.39c0-.91-.22-1.59-.63-2.03s-1.05-.66-1.92-.66c-.7,0-1.32.19-1.85.56s-.95.87-1.24,1.48v9.04h-2.17v-18h2.17v6.86Z"/>
      <path class="aj" d="M1072.76,267.96h-9.77v-1.89h9.77v1.89ZM1072.76,272.83h-9.77v-1.88h9.77v1.88Z"/>
      <path class="aj" d="M1084.89,267.92h1.63c1.02-.02,1.83-.29,2.41-.81s.88-1.23.88-2.12c0-2-1-3-2.99-3-.94,0-1.69.27-2.24.8s-.84,1.24-.84,2.13h-2.17c0-1.35.49-2.47,1.48-3.37s2.24-1.34,3.77-1.34c1.61,0,2.87.43,3.79,1.28s1.37,2.04,1.37,3.55c0,.74-.24,1.46-.72,2.16s-1.13,1.21-1.96,1.56c.94.3,1.66.79,2.17,1.48s.77,1.53.77,2.52c0,1.53-.5,2.75-1.5,3.64s-2.3,1.35-3.9,1.35-2.9-.43-3.91-1.3-1.51-2.01-1.51-3.43h2.18c0,.9.29,1.62.88,2.16s1.37.81,2.36.81c1.05,0,1.85-.27,2.4-.82s.83-1.33.83-2.36-.3-1.75-.91-2.29-1.49-.8-2.64-.82h-1.63v-1.77Z"/>
      <path class="aj" d="M1095.48,276.36c0-.38.11-.69.33-.94s.56-.38,1-.38.78.12,1.01.38.35.56.35.94-.12.66-.35.9-.57.36-1.01.36-.78-.12-1-.36-.33-.54-.33-.9Z"/>
      <path class="aj" d="M1112.23,270.22c0,2.54-.43,4.43-1.3,5.66s-2.22,1.85-4.07,1.85-3.17-.6-4.04-1.81-1.33-3.01-1.36-5.41v-2.89c0-2.51.43-4.37,1.3-5.59s2.23-1.83,4.08-1.83,3.19.59,4.05,1.76,1.31,2.99,1.34,5.44v2.81ZM1110.06,267.26c0-1.84-.26-3.17-.77-4.01s-1.33-1.26-2.45-1.26-1.92.42-2.43,1.25-.77,2.12-.79,3.86v3.47c0,1.84.27,3.21.8,4.08s1.35,1.32,2.43,1.32,1.87-.41,2.38-1.24.79-2.13.81-3.91v-3.55Z"/>
      <path class="aj" d="M1117.27,264.82l.06,1.41c.93-1.09,2.18-1.64,3.76-1.64,1.77,0,2.98.68,3.62,2.04.42-.61.97-1.1,1.65-1.48s1.47-.56,2.4-.56c2.78,0,4.2,1.47,4.24,4.42v8.5h-2.17v-8.37c0-.91-.21-1.58-.62-2.03s-1.11-.67-2.09-.67c-.8,0-1.47.24-2,.72s-.84,1.13-.93,1.94v8.41h-2.18v-8.31c0-1.84-.9-2.77-2.71-2.77-1.42,0-2.39.61-2.92,1.82v9.26h-2.17v-12.68h2.05Z"/>
    </g>
    <g>
      <path class="aj" d="M1051.79,158.31c.96-1.18,2.21-1.77,3.75-1.77,2.68,0,4.03,1.51,4.05,4.54v8.38h-2.17v-8.39c0-.91-.22-1.59-.63-2.03s-1.05-.66-1.92-.66c-.7,0-1.32.19-1.85.56s-.95.87-1.24,1.48v9.04h-2.17v-18h2.17v6.86Z"/>
      <path class="aj" d="M1072.76,159.92h-9.77v-1.89h9.77v1.89ZM1072.76,164.78h-9.77v-1.88h9.77v1.88Z"/>
      <path class="aj" d="M1082.73,160.9l.87-8.51h8.74v2h-6.9l-.52,4.65c.84-.49,1.79-.74,2.85-.74,1.55,0,2.79.51,3.7,1.54s1.37,2.42,1.37,4.17-.47,3.14-1.42,4.15-2.28,1.52-3.98,1.52c-1.51,0-2.74-.42-3.69-1.25s-1.5-1.99-1.63-3.47h2.05c.13.98.48,1.71,1.04,2.21s1.3.74,2.23.74c1.01,0,1.8-.34,2.37-1.03s.86-1.64.86-2.85c0-1.14-.31-2.06-.93-2.75s-1.45-1.04-2.48-1.04c-.95,0-1.69.21-2.23.62l-.57.47-1.73-.45Z"/>
      <path class="aj" d="M1095.48,168.32c0-.38.11-.69.33-.94s.56-.38,1-.38.78.12,1.01.38.35.56.35.94-.12.66-.35.9-.57.36-1.01.36-.78-.12-1-.36-.33-.54-.33-.9Z"/>
      <path class="aj" d="M1112.23,162.18c0,2.54-.43,4.43-1.3,5.66s-2.22,1.85-4.07,1.85-3.17-.6-4.04-1.81-1.33-3.01-1.36-5.41v-2.89c0-2.51.43-4.37,1.3-5.59s2.23-1.83,4.08-1.83,3.19.59,4.05,1.76,1.31,2.99,1.34,5.44v2.81ZM1110.06,159.21c0-1.84-.26-3.17-.77-4.01s-1.33-1.26-2.45-1.26-1.92.42-2.43,1.25-.77,2.12-.79,3.86v3.47c0,1.84.27,3.21.8,4.08s1.35,1.32,2.43,1.32,1.87-.41,2.38-1.24.79-2.13.81-3.91v-3.55Z"/>
      <path class="aj" d="M1117.27,156.77l.06,1.41c.93-1.09,2.18-1.64,3.76-1.64,1.77,0,2.98.68,3.62,2.04.42-.61.97-1.1,1.65-1.48s1.47-.56,2.4-.56c2.78,0,4.2,1.47,4.24,4.42v8.5h-2.17v-8.37c0-.91-.21-1.58-.62-2.03s-1.11-.67-2.09-.67c-.8,0-1.47.24-2,.72s-.84,1.13-.93,1.94v8.41h-2.18v-8.31c0-1.84-.9-2.77-2.71-2.77-1.42,0-2.39.61-2.92,1.82v9.26h-2.17v-12.68h2.05Z"/>
    </g>
    <path class="ao" d="M1011.38,164.69c-.21,1.8-.88,3.2-2,4.18s-2.61,1.47-4.47,1.47c-2.02,0-3.63-.72-4.85-2.17s-1.82-3.38-1.82-5.8v-1.64c0-1.59.28-2.98.85-4.18s1.37-2.13,2.41-2.77,2.24-.97,3.61-.97c1.81,0,3.27.51,4.36,1.52s1.73,2.41,1.91,4.2h-2.26c-.2-1.36-.62-2.35-1.27-2.96-.65-.61-1.56-.92-2.74-.92-1.44,0-2.56.53-3.38,1.6s-1.22,2.58-1.22,4.54v1.65c0,1.85.39,3.33,1.16,4.42.77,1.09,1.86,1.64,3.25,1.64,1.25,0,2.21-.28,2.88-.85s1.11-1.55,1.33-2.96h2.26Z"/>
    <path class="ao" d="M999.07,277.5v-17.06h5.58c1.85,0,3.24.38,4.18,1.15s1.4,1.9,1.4,3.4c0,.8-.23,1.5-.68,2.12s-1.07,1.09-1.85,1.42c.92.26,1.65.75,2.19,1.47s.8,1.58.8,2.58c0,1.53-.5,2.73-1.49,3.61s-2.39,1.31-4.21,1.31h-5.92ZM1001.32,267.72h3.4c.98,0,1.77-.25,2.36-.74s.88-1.16.88-2.01c0-.94-.27-1.62-.82-2.05s-1.38-.64-2.5-.64h-3.33v5.44ZM1001.32,269.52v6.14h3.71c1.05,0,1.87-.27,2.48-.81s.91-1.29.91-2.24c0-2.05-1.12-3.08-3.35-3.08h-3.75Z"/>
    <path class="ao" d="M1008.13,385.75h-7.15l-1.61,4.46h-2.32l6.52-17.06h1.97l6.53,17.06h-2.31l-1.63-4.46ZM1001.67,383.91h5.8l-2.91-7.98-2.89,7.98Z"/>
  </g>
</svg>