<?xml version="1.0" encoding="UTF-8"?><svg xmlns="http://www.w3.org/2000/svg" width="570" height="428" viewBox="0 0 570 428"><g id="a"><path d="m560.241,284.684c13.36,37.743,10.56,101.619-20.463,119.137-98.055,55.37-165.619-11.865-303.158,15.011-65.937,12.884-251.621,24.253-224.416-177.331C17.751,200.406-.024,160.736.848,129.315,5.468-37.207,456.745-22.544,539.02,67.168c31.532,34.382-9.095,131.874,21.221,217.516Z" fill="#f9e5e1"/><rect x="35.673" y="67.863" width="118.232" height="145.263" rx="30" ry="30" fill="#d12d32"/><path d="m89.673,122.115h10.232c29.803,0,54,24.197,54,54v219.979c0,11.712-9.509,21.221-21.221,21.221H56.894c-11.712,0-21.221-9.509-21.221-21.221v-219.979c0-29.803,24.197-54,54-54Z" fill="#e06e53"/><path d="m86.52,137.515h15.021c22.207,0,40.237,18.03,40.237,40.237v194.148c0,11.712-9.509,21.221-21.221,21.221h-53.053c-11.712,0-21.221-9.509-21.221-21.221v-194.148c0-22.207,18.03-40.237,40.237-40.237Z" fill="#8a7675"/><path d="m80.512,386.241h25.753c3.656,0,6.624,2.968,6.624,6.624v1.811c0,6.697-5.437,12.134-12.134,12.134h-14.732c-6.697,0-12.134-5.437-12.134-12.134v-1.811c0-3.656,2.968-6.624,6.624-6.624Z" fill="#68040e"/><path d="m50.073,332.81h87.158c2.51,0,4.547,2.038,4.547,4.547v33.542c0,11.712-9.509,21.221-21.221,21.221h-53.053c-11.712,0-21.221-9.509-21.221-21.221v-34.3c0-2.091,1.698-3.789,3.789-3.789Z" fill="#bfe8ef"/><path d="m101.541,145.515c17.775,0,32.237,14.461,32.237,32.237v194.148c0,7.29-5.931,13.221-13.221,13.221h-53.053c-7.29,0-13.221-5.931-13.221-13.221v-194.148c0-17.775,14.461-32.237,32.237-32.237h15.021m0-8h-15.021c-22.222,0-40.237,18.015-40.237,40.237v194.148c0,11.72,9.501,21.221,21.221,21.221h53.053c11.72,0,21.221-9.501,21.221-21.221v-194.148c0-22.222-18.015-40.237-40.237-40.237h0Z" fill="#fff"/><path d="m35.526,174.031c-.876-15.319,5.844-29.878,17.322-39.93,8.102-7.266,18.563-11.667,29.353-12.882,8.046-.449,15.715-.451,23.76-.071,1.607.016,4.019.502,5.616.728,17.675,3.114,33.288,16.048,39.519,32.882,1.639,4.317,2.571,9.1,2.942,13.69.051,1.866.036,3.732.013,5.582-.001.081-.067.146-.148.145-.081,0-.142-.067-.145-.145-.312-2.761-.501-5.491-1.126-8.188-3.791-20.606-20.591-38.295-41.467-41.709-5.392-.998-10.845-.834-16.376-.814-4.625.04-9.19-.188-13.694.421-18.198,2.037-34.159,14.764-40.962,31.667-.99,2.343-1.939,5.304-2.607,7.758-.455,1.767-.68,3.584-1.092,5.377-.238,1.821-.374,3.659-.617,5.504-.009.171-.301.159-.292-.016h0Z" fill="#68040e"/><path d="m101.541,145.515c17.775,0,32.237,14.461,32.237,32.237v194.148c0,7.29-5.931,13.221-13.221,13.221h-53.053c-7.29,0-13.221-5.931-13.221-13.221v-194.148c0-17.775,14.461-32.237,32.237-32.237h15.021" fill="none" stroke="#8a7675" stroke-linecap="round" stroke-linejoin="round" stroke-width="2"/><rect x="74.615" y="111.61" width="39" height="39.411" rx="6.624" ry="6.624" fill="#68040e"/><path d="m77.504,102.284h33.221c6.832,0,12.379,5.547,12.379,12.379v3.347c0,3.242-2.632,5.874-5.874,5.874h-46.232c-3.242,0-5.874-2.632-5.874-5.874v-3.347c0-6.832,5.547-12.379,12.379-12.379Z" fill="#68040e"/><line x1="75.104" y1="123.757" x2="114.515" y2="123.757" fill="none" stroke="#d12d32" stroke-linecap="round" stroke-linejoin="round" stroke-width="2"/></g><g id="b"><line x1="147.083" y1="100.305" x2="316.852" y2="100.305" fill="none" stroke="#000" stroke-linecap="round" stroke-miterlimit="10" stroke-width="2"/><polyline points="121.315 116.431 296.389 153.568 316.852 153.599" fill="none" stroke="#000" stroke-linecap="round" stroke-miterlimit="10" stroke-width="2"/><polyline points="110.199 401.905 294.873 361.199 316.852 361.231" fill="none" stroke="#000" stroke-linecap="round" stroke-miterlimit="10" stroke-width="2"/><line x1="153.904" y1="206.136" x2="316.852" y2="206.136" fill="none" stroke="#000" stroke-linecap="round" stroke-miterlimit="10" stroke-width="2"/><path d="m333.967,103.477v6.68h-2.25v-17.062h6.293c1.867,0,3.33.477,4.389,1.43s1.588,2.215,1.588,3.785c0,1.656-.518,2.932-1.553,3.826s-2.518,1.342-4.447,1.342h-4.02Zm0-1.84h4.043c1.203,0,2.125-.284,2.766-.851s.961-1.387.961-2.459c0-1.018-.32-1.831-.961-2.442-.641-.61-1.52-.927-2.637-.951h-4.172v6.703Z"/><path d="m348.873,110.157h-2.168v-18h2.168v18Z"/><path d="m360.17,110.157c-.125-.25-.227-.695-.305-1.336-1.008,1.047-2.211,1.57-3.609,1.57-1.25,0-2.275-.354-3.076-1.061s-1.201-1.604-1.201-2.689c0-1.32.502-2.346,1.506-3.076s2.416-1.096,4.236-1.096h2.109v-.996c0-.758-.227-1.361-.68-1.811s-1.121-.674-2.004-.674c-.773,0-1.422.195-1.945.586s-.785.863-.785,1.418h-2.18c0-.633.225-1.244.674-1.834s1.059-1.057,1.828-1.4,1.615-.516,2.537-.516c1.461,0,2.605.365,3.434,1.096s1.258,1.736,1.289,3.018v5.836c0,1.164.148,2.09.445,2.777v.188h-2.273Zm-3.598-1.652c.68,0,1.324-.176,1.934-.527s1.051-.809,1.324-1.371v-2.602h-1.699c-2.656,0-3.984.777-3.984,2.332,0,.68.227,1.211.68,1.594s1.035.574,1.746.574Z"/><path d="m372.779,106.794c0-.586-.221-1.041-.662-1.365s-1.211-.604-2.309-.838-1.969-.516-2.613-.844-1.121-.719-1.43-1.172-.463-.992-.463-1.617c0-1.039.439-1.918,1.318-2.637s2.002-1.078,3.369-1.078c1.438,0,2.604.371,3.498,1.113s1.342,1.691,1.342,2.848h-2.18c0-.594-.252-1.105-.756-1.535s-1.139-.645-1.904-.645c-.789,0-1.406.172-1.852.516s-.668.793-.668,1.348c0,.523.207.918.621,1.184s1.162.52,2.244.762,1.959.531,2.631.867,1.17.74,1.494,1.213.486,1.049.486,1.729c0,1.133-.453,2.041-1.359,2.725s-2.082,1.025-3.527,1.025c-1.016,0-1.914-.18-2.695-.539s-1.393-.861-1.834-1.506-.662-1.342-.662-2.092h2.168c.039.727.33,1.303.873,1.729s1.26.639,2.15.639c.82,0,1.479-.166,1.975-.498s.744-.775.744-1.33Z"/><path d="m380.713,94.407v3.07h2.367v1.676h-2.367v7.873c0,.509.105.89.316,1.144.211.254.57.381,1.078.381.25,0,.594-.047,1.031-.141v1.748c-.57.155-1.125.233-1.664.233-.969,0-1.699-.293-2.191-.879s-.738-1.418-.738-2.496v-7.863h-2.309v-1.676h2.309v-3.07h2.168Z"/><path d="m385.623,94.114c0-.352.107-.648.322-.891s.533-.363.955-.363.742.121.961.363.328.539.328.891-.109.645-.328.879-.539.352-.961.352-.74-.117-.955-.352-.322-.527-.322-.879Zm2.344,16.043h-2.168v-12.68h2.168v12.68Z"/><path d="m396.521,108.622c.773,0,1.449-.234,2.027-.703s.898-1.055.961-1.758h2.051c-.039.727-.289,1.418-.75,2.074s-1.076,1.18-1.846,1.57-1.584.586-2.443.586c-1.727,0-3.1-.576-4.119-1.729s-1.529-2.729-1.529-4.729v-.363c0-1.234.227-2.332.68-3.293s1.104-1.707,1.951-2.238,1.85-.797,3.006-.797c1.422,0,2.604.426,3.545,1.277s1.443,1.957,1.506,3.316h-2.051c-.062-.82-.373-1.494-.932-2.021s-1.248-.791-2.068-.791c-1.102,0-1.955.396-2.561,1.189s-.908,1.939-.908,3.439v.41c0,1.461.301,2.586.902,3.375s1.461,1.184,2.578,1.184Z"/><path d="m415.025,108.622c.773,0,1.449-.234,2.027-.703s.898-1.055.961-1.758h2.051c-.039.727-.289,1.418-.75,2.074s-1.076,1.18-1.846,1.57-1.584.586-2.443.586c-1.727,0-3.1-.576-4.119-1.729s-1.529-2.729-1.529-4.729v-.363c0-1.234.227-2.332.68-3.293s1.104-1.707,1.951-2.238,1.85-.797,3.006-.797c1.422,0,2.604.426,3.545,1.277s1.443,1.957,1.506,3.316h-2.051c-.062-.82-.373-1.494-.932-2.021s-1.248-.791-2.068-.791c-1.102,0-1.955.396-2.561,1.189s-.908,1.939-.908,3.439v.41c0,1.461.301,2.586.902,3.375s1.461,1.184,2.578,1.184Z"/><path d="m430.33,108.903c-.844.992-2.082,1.488-3.715,1.488-1.352,0-2.381-.393-3.088-1.178s-1.064-1.947-1.072-3.486v-8.25h2.168v8.191c0,1.922.781,2.883,2.344,2.883,1.656,0,2.758-.617,3.305-1.852v-9.223h2.168v12.68h-2.062l-.047-1.254Z"/><path d="m446.443,103.958c0,1.93-.441,3.484-1.324,4.664s-2.078,1.77-3.586,1.77c-1.539,0-2.75-.488-3.633-1.465v6.105h-2.168v-17.555h1.98l.105,1.406c.883-1.094,2.109-1.641,3.68-1.641,1.523,0,2.729.574,3.615,1.723s1.33,2.746,1.33,4.793v.199Zm-2.168-.246c0-1.43-.305-2.559-.914-3.387s-1.445-1.242-2.508-1.242c-1.312,0-2.297.582-2.953,1.746v6.059c.648,1.156,1.641,1.734,2.977,1.734,1.039,0,1.865-.412,2.479-1.236s.92-2.049.92-3.674Z"/><path d="m205.512,40.801l4.512-14.971h4.566l-6.932,19.906h-4.279l-6.904-19.906h4.553l4.484,14.971Z"/><path d="m224.146,45.736c-.183-.355-.314-.797-.396-1.326-.957,1.066-2.201,1.6-3.732,1.6-1.449,0-2.65-.419-3.603-1.258-.952-.838-1.429-1.896-1.429-3.172,0-1.567.581-2.771,1.743-3.609,1.162-.838,2.842-1.262,5.038-1.271h1.818v-.848c0-.684-.176-1.23-.526-1.641s-.904-.615-1.661-.615c-.665,0-1.188.16-1.565.479-.378.319-.567.757-.567,1.312h-3.951c0-.856.265-1.649.793-2.379.528-.729,1.276-1.301,2.242-1.716.966-.415,2.051-.622,3.254-.622,1.823,0,3.27.458,4.341,1.374s1.606,2.204,1.606,3.862v6.412c.009,1.404.205,2.466.588,3.186v.232h-3.992Zm-3.268-2.748c.583,0,1.121-.13,1.613-.39s.856-.608,1.094-1.046v-2.543h-1.477c-1.978,0-3.03.684-3.158,2.051l-.014.232c0,.492.173.898.52,1.217.347.319.82.479,1.422.479Z"/><path d="m236.738,42.824c.729,0,1.321-.2,1.777-.602.456-.401.692-.934.711-1.6h3.705c-.009,1.003-.282,1.921-.82,2.755s-1.273,1.481-2.208,1.941-1.967.69-3.097.69c-2.114,0-3.782-.672-5.004-2.017-1.222-1.344-1.832-3.201-1.832-5.571v-.26c0-2.278.606-4.097,1.818-5.455,1.212-1.358,2.876-2.037,4.99-2.037,1.851,0,3.334.526,4.45,1.579s1.684,2.454,1.702,4.204h-3.705c-.019-.77-.255-1.395-.711-1.876s-1.058-.722-1.805-.722c-.921,0-1.615.335-2.085,1.006s-.704,1.76-.704,3.266v.411c0,1.525.232,2.62.697,3.287s1.171,1,2.119,1Z"/><path d="m254.047,44.232c-.976,1.185-2.324,1.777-4.047,1.777-1.586,0-2.796-.456-3.63-1.367-.834-.911-1.26-2.247-1.278-4.006v-9.693h3.951v9.568c0,1.542.702,2.313,2.105,2.313,1.34,0,2.261-.465,2.762-1.396v-10.484h3.965v14.793h-3.719l-.109-1.504Z"/><path d="m269.715,44.232c-.976,1.185-2.324,1.777-4.047,1.777-1.586,0-2.796-.456-3.63-1.367-.834-.911-1.26-2.247-1.278-4.006v-9.693h3.951v9.568c0,1.542.702,2.313,2.105,2.313,1.34,0,2.261-.465,2.762-1.396v-10.484h3.965v14.793h-3.719l-.109-1.504Z"/><path d="m280.228,30.943l.123,1.654c1.048-1.285,2.466-1.928,4.252-1.928,1.905,0,3.213.752,3.924,2.256,1.039-1.504,2.521-2.256,4.443-2.256,1.604,0,2.798.467,3.582,1.401.784.935,1.176,2.34,1.176,4.218v9.447h-3.965v-9.434c0-.838-.164-1.451-.492-1.839-.328-.387-.907-.581-1.736-.581-1.185,0-2.005.565-2.461,1.695l.014,10.158h-3.951v-9.42c0-.856-.169-1.477-.506-1.859s-.911-.574-1.723-.574c-1.121,0-1.933.465-2.434,1.395v10.459h-3.951v-14.793h3.705Z"/><path d="m319.973,37.601h-7.875v8.135h-4.102v-19.906h12.961v3.322h-8.859v5.141h7.875v3.309Z"/><path d="m327.246,45.736h-3.965v-21h3.965v21Z"/><path d="m339.072,45.736c-.183-.355-.314-.797-.396-1.326-.957,1.066-2.201,1.6-3.732,1.6-1.449,0-2.65-.419-3.603-1.258-.952-.838-1.429-1.896-1.429-3.172,0-1.567.581-2.771,1.743-3.609,1.162-.838,2.842-1.262,5.038-1.271h1.818v-.848c0-.684-.176-1.23-.526-1.641s-.904-.615-1.661-.615c-.665,0-1.188.16-1.565.479-.378.319-.567.757-.567,1.312h-3.951c0-.856.265-1.649.793-2.379.528-.729,1.276-1.301,2.242-1.716.966-.415,2.051-.622,3.254-.622,1.823,0,3.27.458,4.341,1.374s1.606,2.204,1.606,3.862v6.412c.009,1.404.205,2.466.588,3.186v.232h-3.992Zm-3.268-2.748c.583,0,1.121-.13,1.613-.39s.856-.608,1.094-1.046v-2.543h-1.477c-1.978,0-3.03.684-3.158,2.051l-.014.232c0,.492.173.898.52,1.217.347.319.82.479,1.422.479Z"/><path d="m353.523,41.648c0-.483-.239-.863-.718-1.142-.479-.278-1.246-.526-2.304-.745-3.519-.738-5.277-2.233-5.277-4.484,0-1.312.545-2.408,1.634-3.288,1.089-.879,2.514-1.319,4.272-1.319,1.878,0,3.379.442,4.505,1.326,1.126.884,1.688,2.033,1.688,3.445h-3.951c0-.565-.183-1.032-.547-1.401s-.935-.554-1.709-.554c-.665,0-1.181.15-1.545.451s-.547.684-.547,1.148c0,.438.207.791.622,1.06.415.269,1.114.501,2.099.697.984.196,1.813.417,2.488.663,2.087.766,3.131,2.092,3.131,3.979,0,1.349-.579,2.44-1.736,3.274s-2.652,1.251-4.484,1.251c-1.239,0-2.34-.221-3.302-.663s-1.716-1.048-2.263-1.818c-.547-.77-.82-1.602-.82-2.495h3.746c.036.702.296,1.24.779,1.613.483.374,1.13.561,1.941.561.757,0,1.328-.144,1.716-.431s.581-.663.581-1.128Z"/><path d="m365.281,39.803l-1.422,1.422v4.512h-3.951v-21h3.951v11.635l.766-.984,3.787-4.443h4.744l-5.346,6.166,5.811,8.627h-4.539l-3.801-5.934Z"/><path d="m344.267,156.28c-.211,1.805-.877,3.197-1.998,4.178s-2.611,1.471-4.471,1.471c-2.016,0-3.631-.723-4.846-2.168s-1.822-3.379-1.822-5.801v-1.641c0-1.586.283-2.98.85-4.184s1.369-2.127,2.408-2.771,2.242-.967,3.609-.967c1.812,0,3.266.506,4.359,1.518s1.73,2.412,1.91,4.201h-2.262c-.195-1.363-.619-2.351-1.271-2.962-.652-.611-1.564-.917-2.736-.917-1.438,0-2.564.532-3.381,1.595s-1.225,2.576-1.225,4.539v1.654c0,1.853.387,3.327,1.16,4.421.773,1.095,1.855,1.642,3.246,1.642,1.25,0,2.209-.283,2.877-.85s1.111-1.553,1.33-2.959h2.262Z"/><path d="m354.826,161.694c-.125-.25-.227-.695-.305-1.336-1.008,1.047-2.211,1.57-3.609,1.57-1.25,0-2.275-.354-3.076-1.061s-1.201-1.604-1.201-2.689c0-1.32.502-2.346,1.506-3.076s2.416-1.096,4.236-1.096h2.109v-.996c0-.758-.227-1.361-.68-1.811s-1.121-.674-2.004-.674c-.773,0-1.422.195-1.945.586s-.785.863-.785,1.418h-2.18c0-.633.225-1.244.674-1.834s1.059-1.057,1.828-1.4,1.615-.516,2.537-.516c1.461,0,2.605.365,3.434,1.096s1.258,1.736,1.289,3.018v5.836c0,1.164.148,2.09.445,2.777v.188h-2.273Zm-3.598-1.652c.68,0,1.324-.176,1.934-.527s1.051-.809,1.324-1.371v-2.602h-1.699c-2.656,0-3.984.777-3.984,2.332,0,.68.227,1.211.68,1.594s1.035.574,1.746.574Z"/><path d="m370.764,155.495c0,1.93-.441,3.484-1.324,4.664s-2.078,1.77-3.586,1.77c-1.539,0-2.75-.488-3.633-1.465v6.105h-2.168v-17.554h1.98l.105,1.406c.883-1.094,2.109-1.641,3.68-1.641,1.523,0,2.729.574,3.615,1.723s1.33,2.746,1.33,4.793v.199Zm-2.168-.246c0-1.43-.305-2.559-.914-3.387s-1.445-1.242-2.508-1.242c-1.312,0-2.297.582-2.953,1.746v6.059c.648,1.156,1.641,1.734,2.977,1.734,1.039,0,1.865-.412,2.479-1.236s.92-2.049.92-3.674Z"/><path d="m344.267,207.817c-.211,1.805-.877,3.197-1.998,4.178s-2.611,1.471-4.471,1.471c-2.016,0-3.631-.723-4.846-2.168s-1.822-3.379-1.822-5.801v-1.641c0-1.586.283-2.98.85-4.184s1.369-2.127,2.408-2.771,2.242-.967,3.609-.967c1.812,0,3.266.506,4.359,1.518s1.73,2.412,1.91,4.201h-2.262c-.195-1.363-.619-2.351-1.271-2.962s-1.564-.917-2.736-.917c-1.438,0-2.564.532-3.381,1.596s-1.225,2.576-1.225,4.538v1.654c0,1.854.387,3.327,1.16,4.422s1.855,1.642,3.246,1.642c1.25,0,2.209-.283,2.877-.85s1.111-1.553,1.33-2.959h2.262Z"/><path d="m354.826,213.231c-.125-.25-.227-.695-.305-1.336-1.008,1.047-2.211,1.57-3.609,1.57-1.25,0-2.275-.354-3.076-1.061s-1.201-1.604-1.201-2.689c0-1.32.502-2.346,1.506-3.076s2.416-1.096,4.236-1.096h2.109v-.996c0-.758-.227-1.361-.68-1.811s-1.121-.674-2.004-.674c-.773,0-1.422.195-1.945.586s-.785.863-.785,1.418h-2.18c0-.633.225-1.244.674-1.834s1.059-1.057,1.828-1.4,1.615-.516,2.537-.516c1.461,0,2.605.365,3.434,1.096s1.258,1.736,1.289,3.018v5.836c0,1.164.148,2.09.445,2.777v.188h-2.273Zm-3.598-1.652c.68,0,1.324-.176,1.934-.527s1.051-.809,1.324-1.371v-2.602h-1.699c-2.656,0-3.984.777-3.984,2.332,0,.68.227,1.211.68,1.594s1.035.574,1.746.574Z"/><path d="m367.435,209.867c0-.586-.221-1.041-.662-1.365s-1.211-.604-2.309-.838-1.969-.516-2.613-.844-1.121-.719-1.43-1.172-.463-.992-.463-1.617c0-1.039.439-1.918,1.318-2.637s2.002-1.078,3.369-1.078c1.438,0,2.604.371,3.498,1.113s1.342,1.691,1.342,2.848h-2.18c0-.594-.252-1.105-.756-1.535s-1.139-.645-1.904-.645c-.789,0-1.406.172-1.852.516s-.668.793-.668,1.348c0,.523.207.918.621,1.184s1.162.52,2.244.762,1.959.531,2.631.867,1.17.74,1.494,1.213.486,1.049.486,1.729c0,1.133-.453,2.041-1.359,2.725s-2.082,1.025-3.527,1.025c-1.016,0-1.914-.18-2.695-.539s-1.393-.861-1.834-1.506-.662-1.342-.662-2.092h2.168c.039.727.33,1.303.873,1.729s1.26.639,2.15.639c.82,0,1.479-.166,1.975-.498s.744-.775.744-1.33Z"/><path d="m377.689,213.465c-1.719,0-3.117-.564-4.195-1.693s-1.617-2.639-1.617-4.529v-.398c0-1.258.24-2.381.721-3.369s1.152-1.762,2.016-2.32,1.799-.838,2.807-.838c1.648,0,2.93.543,3.844,1.629s1.371,2.641,1.371,4.664v.902h-8.59c.031,1.25.396,2.26,1.096,3.029s1.588,1.154,2.666,1.154c.766,0,1.414-.156,1.945-.469s.996-.727,1.395-1.242l1.324,1.031c-1.062,1.633-2.656,2.449-4.781,2.449Zm-.27-11.367c-.875,0-1.609.318-2.203.955s-.961,1.529-1.102,2.678h6.352v-.164c-.062-1.102-.359-1.955-.891-2.561s-1.25-.908-2.156-.908Z"/><path d="m336.744,256.13c-1.93-.555-3.334-1.236-4.213-2.045s-1.318-1.807-1.318-2.994c0-1.344.537-2.455,1.611-3.334s2.471-1.318,4.189-1.318c1.172,0,2.217.227,3.135.68s1.629,1.078,2.133,1.875.756,1.668.756,2.613h-2.262c0-1.035-.328-1.848-.984-2.44-.656-.592-1.582-.888-2.777-.888-1.109,0-1.975.245-2.596.734s-.932,1.168-.932,2.036c0,.697.295,1.286.885,1.768s1.594.921,3.012,1.32,2.527.839,3.328,1.319,1.395,1.041,1.781,1.682.58,1.395.58,2.262c0,1.383-.539,2.49-1.617,3.322s-2.52,1.248-4.324,1.248c-1.172,0-2.266-.225-3.281-.674s-1.799-1.064-2.35-1.846-.826-1.668-.826-2.66h2.262c0,1.031.381,1.846,1.143,2.443s1.779.896,3.053.896c1.188,0,2.098-.242,2.73-.727s.949-1.145.949-1.98-.293-1.482-.879-1.939-1.648-.908-3.188-1.354Z"/><path d="m345.627,247.693c0-.352.107-.648.322-.891s.533-.363.955-.363.742.121.961.363.328.539.328.891-.109.645-.328.879-.539.352-.961.352-.74-.117-.955-.352-.322-.527-.322-.879Zm2.344,16.043h-2.168v-12.68h2.168v12.68Z"/><path d="m353.795,263.736h-2.168v-18h2.168v18Z"/><path d="m361.447,260.794l3.141-9.738h2.215l-4.547,12.68h-1.652l-4.594-12.68h2.215l3.223,9.738Z"/><path d="m373.998,263.97c-1.719,0-3.117-.564-4.195-1.693s-1.617-2.639-1.617-4.529v-.398c0-1.258.24-2.381.721-3.369s1.152-1.762,2.016-2.32,1.799-.838,2.807-.838c1.648,0,2.93.543,3.844,1.629s1.371,2.641,1.371,4.664v.902h-8.59c.031,1.25.396,2.26,1.096,3.029s1.588,1.154,2.666,1.154c.766,0,1.414-.156,1.945-.469s.996-.727,1.395-1.242l1.324,1.031c-1.062,1.633-2.656,2.449-4.781,2.449Zm-.27-11.367c-.875,0-1.609.318-2.203.955s-.961,1.529-1.102,2.678h6.352v-.164c-.062-1.102-.359-1.955-.891-2.561s-1.25-.908-2.156-.908Z"/><path d="m387.58,253.001c-.328-.055-.684-.082-1.066-.082-1.422,0-2.387.605-2.895,1.816v9h-2.168v-12.68h2.109l.035,1.465c.711-1.133,1.719-1.699,3.023-1.699.422,0,.742.055.961.164v2.016Z"/><path d="m394.611,263.97c-1.719,0-3.117-.564-4.195-1.693s-1.617-2.639-1.617-4.529v-.398c0-1.258.24-2.381.721-3.369s1.152-1.762,2.016-2.32,1.799-.838,2.807-.838c1.648,0,2.93.543,3.844,1.629s1.371,2.641,1.371,4.664v.902h-8.59c.031,1.25.396,2.26,1.096,3.029s1.588,1.154,2.666,1.154c.766,0,1.414-.156,1.945-.469s.996-.727,1.395-1.242l1.324,1.031c-1.062,1.633-2.656,2.449-4.781,2.449Zm-.27-11.367c-.875,0-1.609.318-2.203.955s-.961,1.529-1.102,2.678h6.352v-.164c-.062-1.102-.359-1.955-.891-2.561s-1.25-.908-2.156-.908Z"/><path d="m401.537,257.29c0-1.945.461-3.51,1.383-4.693s2.129-1.775,3.621-1.775c1.484,0,2.66.508,3.527,1.523v-6.609h2.168v18h-1.992l-.105-1.359c-.867,1.062-2.074,1.594-3.621,1.594-1.469,0-2.666-.602-3.592-1.805s-1.389-2.773-1.389-4.711v-.164Zm2.168.246c0,1.438.297,2.562.891,3.375s1.414,1.219,2.461,1.219c1.375,0,2.379-.617,3.012-1.852v-5.824c-.648-1.195-1.645-1.793-2.988-1.793-1.062,0-1.891.41-2.484,1.23s-.891,2.035-.891,3.645Z"/><path d="m428.924,260.372c0-.586-.221-1.041-.662-1.365s-1.211-.604-2.309-.838-1.969-.516-2.613-.844-1.121-.719-1.43-1.172-.463-.992-.463-1.617c0-1.039.439-1.918,1.318-2.637s2.002-1.078,3.369-1.078c1.438,0,2.604.371,3.498,1.113s1.342,1.691,1.342,2.848h-2.18c0-.594-.252-1.105-.756-1.535s-1.139-.645-1.904-.645c-.789,0-1.406.172-1.852.516s-.668.793-.668,1.348c0,.523.207.918.621,1.184s1.162.52,2.244.762,1.959.531,2.631.867,1.17.74,1.494,1.213.486,1.049.486,1.729c0,1.133-.453,2.041-1.359,2.725s-2.082,1.025-3.527,1.025c-1.016,0-1.914-.18-2.695-.539s-1.393-.861-1.834-1.506-.662-1.342-.662-2.092h2.168c.039.727.33,1.303.873,1.729s1.26.639,2.15.639c.82,0,1.479-.166,1.975-.498s.744-.775.744-1.33Z"/><path d="m441.744,262.482c-.844.992-2.082,1.488-3.715,1.488-1.352,0-2.381-.393-3.088-1.178s-1.064-1.947-1.072-3.486v-8.25h2.168v8.191c0,1.922.781,2.883,2.344,2.883,1.656,0,2.758-.617,3.305-1.852v-9.223h2.168v12.68h-2.062l-.047-1.254Z"/><path d="m453.275,253.001c-.328-.055-.684-.082-1.066-.082-1.422,0-2.387.605-2.895,1.816v9h-2.168v-12.68h2.109l.035,1.465c.711-1.133,1.719-1.699,3.023-1.699.422,0,.742.055.961.164v2.016Z"/><path d="m456.51,263.736v-11.004h-2.004v-1.676h2.004v-1.301c0-1.359.363-2.41,1.09-3.152s1.754-1.113,3.082-1.113c.5,0,.996.066,1.488.198l-.117,1.747c-.367-.07-.758-.105-1.172-.105-.703,0-1.246.206-1.629.617-.383.412-.574,1.002-.574,1.77v1.34h2.707v1.676h-2.707v11.004h-2.168Z"/><path d="m471.603,263.736c-.125-.25-.227-.695-.305-1.336-1.008,1.047-2.211,1.57-3.609,1.57-1.25,0-2.275-.354-3.076-1.061s-1.201-1.604-1.201-2.689c0-1.32.502-2.346,1.506-3.076s2.416-1.096,4.236-1.096h2.109v-.996c0-.758-.227-1.361-.68-1.811s-1.121-.674-2.004-.674c-.773,0-1.422.195-1.945.586s-.785.863-.785,1.418h-2.18c0-.633.225-1.244.674-1.834s1.059-1.057,1.828-1.4,1.615-.516,2.537-.516c1.461,0,2.605.365,3.434,1.096s1.258,1.736,1.289,3.018v5.836c0,1.164.148,2.09.445,2.777v.188h-2.273Zm-3.598-1.652c.68,0,1.324-.176,1.934-.527s1.051-.809,1.324-1.371v-2.602h-1.699c-2.656,0-3.984.777-3.984,2.332,0,.68.227,1.211.68,1.594s1.035.574,1.746.574Z"/><path d="m481.916,262.2c.773,0,1.449-.234,2.027-.703s.898-1.055.961-1.758h2.051c-.039.727-.289,1.418-.75,2.074s-1.076,1.18-1.846,1.57-1.584.586-2.443.586c-1.727,0-3.1-.576-4.119-1.729s-1.529-2.729-1.529-4.729v-.363c0-1.234.227-2.332.68-3.293s1.104-1.707,1.951-2.238,1.85-.797,3.006-.797c1.422,0,2.604.426,3.545,1.277s1.443,1.957,1.506,3.316h-2.051c-.062-.82-.373-1.494-.932-2.021s-1.248-.791-2.068-.791c-1.102,0-1.955.396-2.561,1.189s-.908,1.939-.908,3.439v.41c0,1.461.301,2.586.902,3.375s1.461,1.184,2.578,1.184Z"/><path d="m494.654,263.97c-1.719,0-3.117-.564-4.195-1.693s-1.617-2.639-1.617-4.529v-.398c0-1.258.24-2.381.721-3.369s1.152-1.762,2.016-2.32,1.799-.838,2.807-.838c1.648,0,2.93.543,3.844,1.629s1.371,2.641,1.371,4.664v.902h-8.59c.031,1.25.396,2.26,1.096,3.029s1.588,1.154,2.666,1.154c.766,0,1.414-.156,1.945-.469s.996-.727,1.395-1.242l1.324,1.031c-1.062,1.633-2.656,2.449-4.781,2.449Zm-.27-11.367c-.875,0-1.609.318-2.203.955s-.961,1.529-1.102,2.678h6.352v-.164c-.062-1.102-.359-1.955-.891-2.561s-1.25-.908-2.156-.908Z"/><path d="m337.365,313.527l4.875-14.074h2.461l-6.328,17.062h-1.992l-6.316-17.062h2.449l4.852,14.074Z"/><path d="m353.935,316.515c-.125-.25-.227-.695-.305-1.336-1.008,1.047-2.211,1.57-3.609,1.57-1.25,0-2.275-.354-3.076-1.061s-1.201-1.604-1.201-2.689c0-1.32.502-2.346,1.506-3.076s2.416-1.096,4.236-1.096h2.109v-.996c0-.758-.227-1.361-.68-1.811s-1.121-.674-2.004-.674c-.773,0-1.422.195-1.945.586s-.785.863-.785,1.418h-2.18c0-.633.225-1.244.674-1.834s1.059-1.057,1.828-1.4,1.615-.516,2.537-.516c1.461,0,2.605.365,3.434,1.096s1.258,1.736,1.289,3.018v5.836c0,1.164.148,2.09.445,2.777v.188h-2.273Zm-3.598-1.652c.68,0,1.324-.176,1.934-.527s1.051-.809,1.324-1.371v-2.602h-1.699c-2.656,0-3.984.777-3.984,2.332,0,.68.227,1.211.68,1.594s1.035.574,1.746.574Z"/><path d="m364.248,314.98c.773,0,1.449-.234,2.027-.703s.898-1.055.961-1.758h2.051c-.039.727-.289,1.418-.75,2.074s-1.076,1.18-1.846,1.57-1.584.586-2.443.586c-1.727,0-3.1-.576-4.119-1.729s-1.529-2.729-1.529-4.729v-.363c0-1.234.227-2.332.68-3.293s1.104-1.707,1.951-2.238,1.85-.797,3.006-.797c1.422,0,2.604.426,3.545,1.277s1.443,1.957,1.506,3.316h-2.051c-.062-.82-.373-1.494-.932-2.021s-1.248-.791-2.068-.791c-1.102,0-1.955.396-2.561,1.189s-.908,1.939-.908,3.439v.41c0,1.461.301,2.586.902,3.375s1.461,1.184,2.578,1.184Z"/><path d="m379.553,315.261c-.844.992-2.082,1.488-3.715,1.488-1.352,0-2.381-.393-3.088-1.178s-1.064-1.947-1.072-3.486v-8.25h2.168v8.191c0,1.922.781,2.883,2.344,2.883,1.656,0,2.758-.617,3.305-1.852v-9.223h2.168v12.68h-2.062l-.047-1.254Z"/><path d="m392.783,315.261c-.844.992-2.082,1.488-3.715,1.488-1.352,0-2.381-.393-3.088-1.178s-1.064-1.947-1.072-3.486v-8.25h2.168v8.191c0,1.922.781,2.883,2.344,2.883,1.656,0,2.758-.617,3.305-1.852v-9.223h2.168v12.68h-2.062l-.047-1.254Z"/><path d="m400.225,303.835l.059,1.406c.93-1.094,2.184-1.641,3.762-1.641,1.773,0,2.98.68,3.621,2.039.422-.609.971-1.102,1.646-1.477s1.475-.562,2.396-.562c2.781,0,4.195,1.473,4.242,4.418v8.496h-2.168v-8.367c0-.906-.207-1.584-.621-2.033s-1.109-.674-2.086-.674c-.805,0-1.473.24-2.004.721s-.84,1.127-.926,1.939v8.414h-2.18v-8.309c0-1.844-.902-2.766-2.707-2.766-1.422,0-2.395.605-2.918,1.816v9.258h-2.168v-12.68h2.051Z"/><path d="m334.131,371.083h-2.25v-17.062h2.25v17.062Z"/><path d="m339.955,358.404l.07,1.594c.969-1.219,2.234-1.828,3.797-1.828,2.68,0,4.031,1.512,4.055,4.535v8.379h-2.168v-8.391c-.008-.914-.217-1.59-.627-2.027s-1.049-.656-1.916-.656c-.703,0-1.32.188-1.852.562s-.945.867-1.242,1.477v9.035h-2.168v-12.68h2.051Z"/><path d="m358.529,367.72c0-.586-.221-1.041-.662-1.365s-1.211-.604-2.309-.838-1.969-.516-2.613-.844-1.121-.719-1.43-1.172-.463-.992-.463-1.617c0-1.039.439-1.918,1.318-2.637s2.002-1.078,3.369-1.078c1.438,0,2.604.371,3.498,1.113s1.342,1.691,1.342,2.848h-2.18c0-.594-.252-1.105-.756-1.535s-1.139-.645-1.904-.645c-.789,0-1.406.172-1.852.516s-.668.793-.668,1.348c0,.523.207.918.621,1.184s1.162.52,2.244.762,1.959.531,2.631.867,1.17.74,1.494,1.213.486,1.049.486,1.729c0,1.133-.453,2.041-1.359,2.725s-2.082,1.025-3.527,1.025c-1.016,0-1.914-.18-2.695-.539s-1.393-.861-1.834-1.506-.662-1.342-.662-2.092h2.168c.039.727.33,1.303.873,1.729s1.26.639,2.15.639c.82,0,1.479-.166,1.975-.498s.744-.775.744-1.33Z"/><path d="m371.35,369.829c-.844.992-2.082,1.488-3.715,1.488-1.352,0-2.381-.393-3.088-1.178s-1.064-1.947-1.072-3.486v-8.25h2.168v8.191c0,1.922.781,2.883,2.344,2.883,1.656,0,2.758-.617,3.305-1.852v-9.223h2.168v12.68h-2.062l-.047-1.254Z"/><path d="m379.107,371.083h-2.168v-18h2.168v18Z"/><path d="m390.404,371.083c-.125-.25-.227-.695-.305-1.336-1.008,1.047-2.211,1.57-3.609,1.57-1.25,0-2.275-.354-3.076-1.061s-1.201-1.604-1.201-2.689c0-1.32.502-2.346,1.506-3.076s2.416-1.096,4.236-1.096h2.109v-.996c0-.758-.227-1.361-.68-1.811s-1.121-.674-2.004-.674c-.773,0-1.422.195-1.945.586s-.785.863-.785,1.418h-2.18c0-.633.225-1.244.674-1.834s1.059-1.057,1.828-1.4,1.615-.516,2.537-.516c1.461,0,2.605.365,3.434,1.096s1.258,1.736,1.289,3.018v5.836c0,1.164.148,2.09.445,2.777v.188h-2.273Zm-3.598-1.652c.68,0,1.324-.176,1.934-.527s1.051-.809,1.324-1.371v-2.602h-1.699c-2.656,0-3.984.777-3.984,2.332,0,.68.227,1.211.68,1.594s1.035.574,1.746.574Z"/><path d="m398.572,355.333v3.07h2.367v1.676h-2.367v7.873c0,.509.105.891.316,1.145s.57.381,1.078.381c.25,0,.594-.047,1.031-.141v1.748c-.57.155-1.125.232-1.664.232-.969,0-1.699-.293-2.191-.879s-.738-1.418-.738-2.496v-7.863h-2.309v-1.676h2.309v-3.07h2.168Z"/><path d="m408.732,371.318c-1.719,0-3.117-.564-4.195-1.693s-1.617-2.639-1.617-4.529v-.398c0-1.258.24-2.381.721-3.369s1.152-1.762,2.016-2.32,1.799-.838,2.807-.838c1.648,0,2.93.543,3.844,1.629s1.371,2.641,1.371,4.664v.902h-8.59c.031,1.25.396,2.26,1.096,3.029s1.588,1.154,2.666,1.154c.766,0,1.414-.156,1.945-.469s.996-.727,1.395-1.242l1.324,1.031c-1.062,1.633-2.656,2.449-4.781,2.449Zm-.27-11.367c-.875,0-1.609.318-2.203.955s-.961,1.529-1.102,2.678h6.352v-.164c-.062-1.102-.359-1.955-.891-2.561s-1.25-.908-2.156-.908Z"/><path d="m415.658,364.638c0-1.945.461-3.51,1.383-4.693s2.129-1.775,3.621-1.775c1.484,0,2.66.508,3.527,1.523v-6.609h2.168v18h-1.992l-.105-1.359c-.867,1.062-2.074,1.594-3.621,1.594-1.469,0-2.666-.602-3.592-1.805s-1.389-2.773-1.389-4.711v-.164Zm2.168.246c0,1.438.297,2.562.891,3.375s1.414,1.219,2.461,1.219c1.375,0,2.379-.617,3.012-1.852v-5.824c-.648-1.195-1.645-1.793-2.988-1.793-1.062,0-1.891.41-2.484,1.23s-.891,2.035-.891,3.645Z"/><path d="m443.045,367.72c0-.586-.221-1.041-.662-1.365s-1.211-.604-2.309-.838-1.969-.516-2.613-.844-1.121-.719-1.43-1.172-.463-.992-.463-1.617c0-1.039.439-1.918,1.318-2.637s2.002-1.078,3.369-1.078c1.438,0,2.604.371,3.498,1.113s1.342,1.691,1.342,2.848h-2.18c0-.594-.252-1.105-.756-1.535s-1.139-.645-1.904-.645c-.789,0-1.406.172-1.852.516s-.668.793-.668,1.348c0,.523.207.918.621,1.184s1.162.52,2.244.762,1.959.531,2.631.867,1.17.74,1.494,1.213.486,1.049.486,1.729c0,1.133-.453,2.041-1.359,2.725s-2.082,1.025-3.527,1.025c-1.016,0-1.914-.18-2.695-.539s-1.393-.861-1.834-1.506-.662-1.342-.662-2.092h2.168c.039.727.33,1.303.873,1.729s1.26.639,2.15.639c.82,0,1.479-.166,1.975-.498s.744-.775.744-1.33Z"/><path d="m455.865,369.829c-.844.992-2.082,1.488-3.715,1.488-1.352,0-2.381-.393-3.088-1.178s-1.064-1.947-1.072-3.486v-8.25h2.168v8.191c0,1.922.781,2.883,2.344,2.883,1.656,0,2.758-.617,3.305-1.852v-9.223h2.168v12.68h-2.062l-.047-1.254Z"/><path d="m471.978,364.884c0,1.93-.441,3.484-1.324,4.664s-2.078,1.77-3.586,1.77c-1.539,0-2.75-.488-3.633-1.465v6.105h-2.168v-17.555h1.98l.105,1.406c.883-1.094,2.109-1.641,3.68-1.641,1.523,0,2.729.574,3.615,1.723s1.33,2.746,1.33,4.793v.199Zm-2.168-.246c0-1.43-.305-2.559-.914-3.387s-1.445-1.242-2.508-1.242c-1.312,0-2.297.582-2.953,1.746v6.059c.648,1.156,1.641,1.734,2.977,1.734,1.039,0,1.865-.412,2.479-1.236s.92-2.049.92-3.674Z"/><path d="m485.443,364.884c0,1.93-.441,3.484-1.324,4.664s-2.078,1.77-3.586,1.77c-1.539,0-2.75-.488-3.633-1.465v6.105h-2.168v-17.555h1.98l.105,1.406c.883-1.094,2.109-1.641,3.68-1.641,1.523,0,2.729.574,3.615,1.723s1.33,2.746,1.33,4.793v.199Zm-2.168-.246c0-1.43-.305-2.559-.914-3.387s-1.445-1.242-2.508-1.242c-1.312,0-2.297.582-2.953,1.746v6.059c.648,1.156,1.641,1.734,2.977,1.734,1.039,0,1.865-.412,2.479-1.236s.92-2.049.92-3.674Z"/><path d="m487.623,364.626c0-1.242.244-2.359.732-3.352s1.168-1.758,2.039-2.297,1.865-.809,2.982-.809c1.727,0,3.123.598,4.189,1.793s1.6,2.785,1.6,4.77v.152c0,1.234-.236,2.342-.709,3.322s-1.148,1.744-2.027,2.291-1.889.82-3.029.82c-1.719,0-3.111-.598-4.178-1.793s-1.6-2.777-1.6-4.746v-.152Zm2.18.258c0,1.406.326,2.535.979,3.387s1.525,1.277,2.619,1.277c1.102,0,1.977-.432,2.625-1.295s.973-2.072.973-3.627c0-1.391-.33-2.518-.99-3.381s-1.537-1.295-2.631-1.295c-1.07,0-1.934.426-2.59,1.277s-.984,2.07-.984,3.656Z"/><path d="m508.014,360.349c-.328-.055-.684-.082-1.066-.082-1.422,0-2.387.605-2.895,1.816v9h-2.168v-12.68h2.109l.035,1.465c.711-1.133,1.719-1.699,3.023-1.699.422,0,.742.055.961.164v2.016Z"/><path d="m513.533,355.333v3.07h2.367v1.676h-2.367v7.873c0,.509.105.891.316,1.145s.57.381,1.078.381c.25,0,.594-.047,1.031-.141v1.748c-.57.155-1.125.232-1.664.232-.969,0-1.699-.293-2.191-.879s-.738-1.418-.738-2.496v-7.863h-2.309v-1.676h2.309v-3.07h2.168Z"/><line x1="115.252" y1="256.641" x2="316.852" y2="256.641" fill="none" stroke="#000" stroke-linecap="round" stroke-miterlimit="10" stroke-width="2"/><line x1="139.989" y1="308.178" x2="316.852" y2="308.178" fill="none" stroke="#000" stroke-linecap="round" stroke-miterlimit="10" stroke-width="2"/></g></svg>