<?xml version="1.0" encoding="UTF-8"?><svg id="a" xmlns="http://www.w3.org/2000/svg" width="1140" height="599" viewBox="0 0 1140 599"><path d="m586.335,577.355h-5.227v14.215h-3.516v-14.215h-5.156v-2.848h13.898v2.848Z"/><path d="m588.093,575.609c0-.508.17-.926.51-1.254s.803-.492,1.389-.492c.578,0,1.039.164,1.383.492s.516.746.516,1.254c0,.516-.174.938-.521,1.266s-.807.492-1.377.492-1.029-.164-1.377-.492-.521-.75-.521-1.266Zm3.598,15.961h-3.398v-12.68h3.398v12.68Z"/><path d="m597.655,578.89l.105,1.418c.898-1.102,2.113-1.652,3.645-1.652,1.633,0,2.754.645,3.363,1.934.891-1.289,2.16-1.934,3.809-1.934,1.375,0,2.398.4,3.07,1.201s1.008,2.006,1.008,3.615v8.098h-3.398v-8.086c0-.719-.141-1.244-.422-1.576s-.777-.498-1.488-.498c-1.016,0-1.719.484-2.109,1.453l.012,8.707h-3.387v-8.074c0-.734-.145-1.266-.434-1.594s-.781-.492-1.477-.492c-.961,0-1.656.398-2.086,1.195v8.965h-3.387v-12.68h3.176Z"/><path d="m621.093,591.804c-1.859,0-3.373-.57-4.541-1.711s-1.752-2.66-1.752-4.559v-.328c0-1.273.246-2.412.738-3.416s1.189-1.777,2.092-2.32,1.932-.814,3.088-.814c1.734,0,3.1.547,4.096,1.641s1.494,2.645,1.494,4.652v1.383h-8.074c.109.828.439,1.492.99,1.992s1.248.75,2.092.75c1.305,0,2.324-.473,3.059-1.418l1.664,1.863c-.508.719-1.195,1.279-2.062,1.682s-1.828.604-2.883.604Zm-.387-10.418c-.672,0-1.217.228-1.635.683s-.686,1.106-.803,1.954h4.711v-.271c-.016-.754-.219-1.336-.609-1.748s-.945-.618-1.664-.618Z"/><path d="m8.599,327.518v5.203h14.215v3.5h-14.215v5.133h-2.848v-13.836h2.848Z"/><path d="m23.048,320.974c0,1.851-.57,3.358-1.711,4.521-1.141,1.163-2.66,1.744-4.559,1.744h-.328c-1.273,0-2.412-.245-3.416-.735-1.004-.489-1.777-1.184-2.32-2.082s-.814-1.923-.814-3.074c0-1.727.547-3.085,1.641-4.077,1.094-.991,2.645-1.487,4.652-1.487h1.383v8.038c.828-.109,1.492-.438,1.992-.986.5-.548.75-1.242.75-2.082,0-1.299-.473-2.313-1.418-3.045l1.863-1.656c.719.506,1.279,1.189,1.682,2.053s.604,1.82.604,2.87Zm-10.418.385c0,.669.228,1.212.683,1.628s1.106.683,1.954.799v-4.689h-.271c-.754.016-1.336.218-1.748.606s-.618.941-.618,1.656Z"/><path d="m10.134,310.708l1.418-.105c-1.102-.895-1.652-2.104-1.652-3.628,0-1.625.645-2.741,1.934-3.348-1.289-.887-1.934-2.15-1.934-3.792,0-1.368.4-2.388,1.201-3.057.801-.668,2.006-1.003,3.615-1.003h8.098v3.383h-8.086c-.719,0-1.244.141-1.576.42-.332.28-.498.774-.498,1.482,0,1.011.484,1.711,1.453,2.1l8.707-.012v3.371h-8.074c-.734,0-1.266.145-1.594.432-.328.288-.492.778-.492,1.47,0,.957.398,1.649,1.195,2.077h8.965v3.371h-12.68v-3.161Z"/><path d="m16.591,281.824c1.953,0,3.518.441,4.693,1.324s1.764,2.074,1.764,3.575c0,1.275-.445,2.306-1.336,3.092h5.977v3.371H10.134v-3.126l1.242-.117c-.984-.816-1.477-1.882-1.477-3.196,0-1.556.578-2.765,1.734-3.628s2.75-1.295,4.781-1.295h.176Zm-.246,3.371c-1.18,0-2.09.208-2.73.624s-.961,1.021-.961,1.814c0,1.058.406,1.785,1.219,2.182h5.191c.836-.412,1.254-1.147,1.254-2.205,0-1.61-1.324-2.415-3.973-2.415Z"/><path d="m23.048,273.926c0,1.851-.57,3.358-1.711,4.521-1.141,1.163-2.66,1.744-4.559,1.744h-.328c-1.273,0-2.412-.245-3.416-.735-1.004-.489-1.777-1.184-2.32-2.082s-.814-1.923-.814-3.074c0-1.727.547-3.085,1.641-4.077,1.094-.991,2.645-1.487,4.652-1.487h1.383v8.038c.828-.109,1.492-.438,1.992-.986.5-.548.75-1.242.75-2.082,0-1.299-.473-2.313-1.418-3.045l1.863-1.656c.719.506,1.279,1.189,1.682,2.053s.604,1.82.604,2.87Zm-10.418.385c0,.669.228,1.212.683,1.628s1.106.683,1.954.799v-4.689h-.271c-.754.016-1.336.218-1.748.606s-.618.941-.618,1.656Z"/><path d="m13.309,259.729c-.062.459-.094.863-.094,1.213,0,1.276.434,2.112,1.301,2.509h8.297v3.371h-12.68v-3.185l1.512-.094c-1.164-.677-1.746-1.613-1.746-2.812,0-.373.051-.723.152-1.05l3.258.047Z"/><path d="m22.813,251.143c-.305.155-.684.269-1.137.338.914.817,1.371,1.879,1.371,3.186,0,1.236-.359,2.261-1.078,3.073-.719.813-1.625,1.22-2.719,1.22-1.344,0-2.375-.496-3.094-1.487-.719-.992-1.082-2.425-1.09-4.299v-1.552h-.727c-.586,0-1.055.149-1.406.449-.352.299-.527.771-.527,1.417,0,.568.137,1.014.41,1.336s.648.484,1.125.484v3.371c-.734,0-1.414-.226-2.039-.677s-1.115-1.089-1.471-1.913-.533-1.75-.533-2.776c0-1.556.393-2.79,1.178-3.704s1.889-1.37,3.311-1.37h5.496c1.203-.008,2.113-.176,2.73-.502h.199v3.406Zm-2.355,2.788c0-.497-.111-.956-.334-1.377-.223-.42-.521-.73-.896-.933h-2.18v1.26c0,1.688.586,2.586,1.758,2.694l.199.012c.422,0,.77-.147,1.043-.443.273-.295.41-.699.41-1.213Z"/><path d="m7.017,241.612h3.117v-2.158h2.484v2.158h6.328c.469,0,.805-.09,1.008-.269s.305-.521.305-1.026c0-.373-.027-.704-.082-.992h2.566c.203.661.305,1.342.305,2.042,0,2.364-1.199,3.569-3.598,3.616h-6.832v1.844h-2.484v-1.844h-3.117v-3.371Z"/><path d="m21.524,230.016c1.016.832,1.523,1.983,1.523,3.453,0,1.354-.391,2.386-1.172,3.098-.781.711-1.926,1.075-3.434,1.091h-8.309v-3.372h8.201c1.321,0,1.982-.599,1.982-1.796,0-1.144-.398-1.929-1.197-2.356h-8.986v-3.384h12.68v3.174l-1.289.093Z"/><path d="m13.309,217.114c-.062.459-.094.863-.094,1.213,0,1.276.434,2.112,1.301,2.509h8.297v3.371h-12.68v-3.185l1.512-.094c-1.164-.677-1.746-1.613-1.746-2.812,0-.373.051-.723.152-1.05l3.258.047Z"/><path d="m23.048,209.904c0,1.851-.57,3.358-1.711,4.521-1.141,1.163-2.66,1.744-4.559,1.744h-.328c-1.273,0-2.412-.245-3.416-.735-1.004-.489-1.777-1.184-2.32-2.082s-.814-1.923-.814-3.074c0-1.727.547-3.085,1.641-4.077,1.094-.991,2.645-1.487,4.652-1.487h1.383v8.038c.828-.109,1.492-.438,1.992-.986.5-.548.75-1.242.75-2.082,0-1.299-.473-2.313-1.418-3.045l1.863-1.656c.719.506,1.279,1.189,1.682,2.053s.604,1.82.604,2.87Zm-10.418.385c0,.669.228,1.212.683,1.628s1.106.683,1.954.799v-4.689h-.271c-.754.016-1.336.218-1.748.606s-.618.941-.618,1.656Z"/><rect x="63.111" y="4.321" width="1073.804" height="537.272" fill="#fff"/><g opacity=".2"><polygon points="60.915 299.506 1069.406 53.818 1068.34 299.506 60.915 299.506" fill="none"/></g><path d="m414.421,70.918h-2.262v-7.887h-8.602v7.887h-2.25v-17.062h2.25v7.336h8.602v-7.336h2.262v17.062Z"/><path d="m423.339,71.153c-1.719,0-3.117-.564-4.195-1.693s-1.617-2.639-1.617-4.529v-.398c0-1.258.24-2.381.721-3.369s1.152-1.762,2.016-2.32,1.799-.838,2.807-.838c1.648,0,2.93.543,3.844,1.629s1.371,2.641,1.371,4.664v.902h-8.59c.031,1.25.396,2.26,1.096,3.029s1.588,1.154,2.666,1.154c.766,0,1.414-.156,1.945-.469s.996-.727,1.395-1.242l1.324,1.031c-1.062,1.633-2.656,2.449-4.781,2.449Zm-.27-11.367c-.875,0-1.609.318-2.203.955s-.961,1.529-1.102,2.678h6.352v-.164c-.062-1.102-.359-1.955-.891-2.561s-1.25-.908-2.156-.908Z"/><path d="m438.62,70.918c-.125-.25-.227-.695-.305-1.336-1.008,1.047-2.211,1.57-3.609,1.57-1.25,0-2.275-.354-3.076-1.061s-1.201-1.604-1.201-2.689c0-1.32.502-2.346,1.506-3.076s2.416-1.096,4.236-1.096h2.109v-.996c0-.758-.227-1.361-.68-1.811s-1.121-.674-2.004-.674c-.773,0-1.422.195-1.945.586s-.785.863-.785,1.418h-2.18c0-.633.225-1.244.674-1.834s1.059-1.057,1.828-1.4,1.615-.516,2.537-.516c1.461,0,2.605.365,3.434,1.096s1.258,1.736,1.289,3.018v5.836c0,1.164.148,2.09.445,2.777v.188h-2.273Zm-3.598-1.652c.68,0,1.324-.176,1.934-.527s1.051-.809,1.324-1.371v-2.602h-1.699c-2.656,0-3.984.777-3.984,2.332,0,.68.227,1.211.68,1.594s1.035.574,1.746.574Z"/><path d="m446.788,55.168v3.07h2.367v1.676h-2.367v7.873c0,.509.105.89.316,1.144.211.255.57.382,1.078.382.25,0,.594-.047,1.031-.141v1.747c-.57.155-1.125.233-1.664.233-.969,0-1.699-.293-2.191-.879s-.738-1.418-.738-2.496v-7.863h-2.309v-1.676h2.309v-3.07h2.168Z"/><path d="m457.64,54.875c0-.352.107-.648.322-.891s.533-.363.955-.363.742.121.961.363.328.539.328.891-.109.645-.328.879-.539.352-.961.352-.74-.117-.955-.352-.322-.527-.322-.879Zm2.344,16.043h-2.168v-12.68h2.168v12.68Z"/><path d="m470.835,67.555c0-.586-.221-1.041-.662-1.365s-1.211-.604-2.309-.838-1.969-.516-2.613-.844-1.121-.719-1.43-1.172-.463-.992-.463-1.617c0-1.039.439-1.918,1.318-2.637s2.002-1.078,3.369-1.078c1.438,0,2.604.371,3.498,1.113s1.342,1.691,1.342,2.848h-2.18c0-.594-.252-1.105-.756-1.535s-1.139-.645-1.904-.645c-.789,0-1.406.172-1.852.516s-.668.793-.668,1.348c0,.523.207.918.621,1.184s1.162.52,2.244.762,1.959.531,2.631.867,1.17.74,1.494,1.213.486,1.049.486,1.729c0,1.133-.453,2.041-1.359,2.725s-2.082,1.025-3.527,1.025c-1.016,0-1.914-.18-2.695-.539s-1.393-.861-1.834-1.506-.662-1.342-.662-2.092h2.168c.039.727.33,1.303.873,1.729s1.26.639,2.15.639c.82,0,1.479-.166,1.975-.498s.744-.775.744-1.33Z"/><path d="m487.897,60.184c-.328-.055-.684-.082-1.066-.082-1.422,0-2.387.605-2.895,1.816v9h-2.168v-12.68h2.109l.035,1.465c.711-1.133,1.719-1.699,3.023-1.699.422,0,.742.055.961.164v2.016Z"/><path d="m494.929,71.153c-1.719,0-3.117-.564-4.195-1.693s-1.617-2.639-1.617-4.529v-.398c0-1.258.24-2.381.721-3.369s1.152-1.762,2.016-2.32,1.799-.838,2.807-.838c1.648,0,2.93.543,3.844,1.629s1.371,2.641,1.371,4.664v.902h-8.59c.031,1.25.396,2.26,1.096,3.029s1.588,1.154,2.666,1.154c.766,0,1.414-.156,1.945-.469s.996-.727,1.395-1.242l1.324,1.031c-1.062,1.633-2.656,2.449-4.781,2.449Zm-.27-11.367c-.875,0-1.609.318-2.203.955s-.961,1.529-1.102,2.678h6.352v-.164c-.062-1.102-.359-1.955-.891-2.561s-1.25-.908-2.156-.908Z"/><path d="m504.421,58.239l.059,1.406c.93-1.094,2.184-1.641,3.762-1.641,1.773,0,2.98.68,3.621,2.039.422-.609.971-1.102,1.646-1.477s1.475-.562,2.396-.562c2.781,0,4.195,1.473,4.242,4.418v8.496h-2.168v-8.367c0-.906-.207-1.584-.621-2.033s-1.109-.674-2.086-.674c-.805,0-1.473.24-2.004.721s-.84,1.127-.926,1.939v8.414h-2.18v-8.309c0-1.844-.902-2.766-2.707-2.766-1.422,0-2.395.605-2.918,1.816v9.258h-2.168v-12.68h2.051Z"/><path d="m522.843,64.461c0-1.242.244-2.359.732-3.352s1.168-1.758,2.039-2.297,1.865-.809,2.982-.809c1.727,0,3.123.598,4.189,1.793s1.6,2.785,1.6,4.77v.152c0,1.234-.236,2.342-.709,3.322s-1.148,1.744-2.027,2.291-1.889.82-3.029.82c-1.719,0-3.111-.598-4.178-1.793s-1.6-2.777-1.6-4.746v-.152Zm2.18.258c0,1.406.326,2.535.979,3.387s1.525,1.277,2.619,1.277c1.102,0,1.977-.432,2.625-1.295s.973-2.072.973-3.627c0-1.391-.33-2.518-.99-3.381s-1.537-1.295-2.631-1.295c-1.07,0-1.934.426-2.59,1.277s-.984,2.07-.984,3.656Z"/><path d="m541.112,67.977l3.141-9.738h2.215l-4.547,12.68h-1.652l-4.594-12.68h2.215l3.223,9.738Z"/><path d="m553.663,71.153c-1.719,0-3.117-.564-4.195-1.693s-1.617-2.639-1.617-4.529v-.398c0-1.258.24-2.381.721-3.369s1.152-1.762,2.016-2.32,1.799-.838,2.807-.838c1.648,0,2.93.543,3.844,1.629s1.371,2.641,1.371,4.664v.902h-8.59c.031,1.25.396,2.26,1.096,3.029s1.588,1.154,2.666,1.154c.766,0,1.414-.156,1.945-.469s.996-.727,1.395-1.242l1.324,1.031c-1.062,1.633-2.656,2.449-4.781,2.449Zm-.27-11.367c-.875,0-1.609.318-2.203.955s-.961,1.529-1.102,2.678h6.352v-.164c-.062-1.102-.359-1.955-.891-2.561s-1.25-.908-2.156-.908Z"/><path d="m560.589,64.473c0-1.945.461-3.51,1.383-4.693s2.129-1.775,3.621-1.775c1.484,0,2.66.508,3.527,1.523v-6.609h2.168v18h-1.992l-.105-1.359c-.867,1.062-2.074,1.594-3.621,1.594-1.469,0-2.666-.602-3.592-1.805s-1.389-2.773-1.389-4.711v-.164Zm2.168.246c0,1.438.297,2.562.891,3.375s1.414,1.219,2.461,1.219c1.375,0,2.379-.617,3.012-1.852v-5.824c-.648-1.195-1.645-1.793-2.988-1.793-1.062,0-1.891.41-2.484,1.23s-.891,2.035-.891,3.645Z"/><path d="m630.351,373.383h-7.16v7.535h-2.25v-17.062h10.57v1.84h-8.32v5.848h7.16v1.84Z"/><path d="m639.691,370.184c-.328-.055-.684-.082-1.066-.082-1.422,0-2.387.605-2.895,1.816v9h-2.168v-12.68h2.109l.035,1.465c.711-1.133,1.719-1.699,3.023-1.699.422,0,.742.055.961.164v2.016Z"/><path d="m646.723,381.153c-1.719,0-3.117-.564-4.195-1.693s-1.617-2.639-1.617-4.529v-.398c0-1.258.24-2.381.721-3.369s1.152-1.762,2.016-2.32,1.799-.838,2.807-.838c1.648,0,2.93.543,3.844,1.629s1.371,2.641,1.371,4.664v.902h-8.59c.031,1.25.396,2.26,1.096,3.029s1.588,1.154,2.666,1.154c.766,0,1.414-.156,1.945-.469s.996-.727,1.395-1.242l1.324,1.031c-1.062,1.633-2.656,2.449-4.781,2.449Zm-.27-11.367c-.875,0-1.609.318-2.203.955s-.961,1.529-1.102,2.678h6.352v-.164c-.062-1.102-.359-1.955-.891-2.561s-1.25-.908-2.156-.908Z"/><path d="m659.437,381.153c-1.719,0-3.117-.564-4.195-1.693s-1.617-2.639-1.617-4.529v-.398c0-1.258.24-2.381.721-3.369s1.152-1.762,2.016-2.32,1.799-.838,2.807-.838c1.648,0,2.93.543,3.844,1.629s1.371,2.641,1.371,4.664v.902h-8.59c.031,1.25.396,2.26,1.096,3.029s1.588,1.154,2.666,1.154c.766,0,1.414-.156,1.945-.469s.996-.727,1.395-1.242l1.324,1.031c-1.062,1.633-2.656,2.449-4.781,2.449Zm-.27-11.367c-.875,0-1.609.318-2.203.955s-.961,1.529-1.102,2.678h6.352v-.164c-.062-1.102-.359-1.955-.891-2.561s-1.25-.908-2.156-.908Z"/><path d="m668.93,379.149h7.418v1.77h-10.066v-1.594l6.996-9.293h-6.891v-1.793h9.609v1.535l-7.066,9.375Z"/><path d="m678.797,364.875c0-.352.107-.648.322-.891s.533-.363.955-.363.742.121.961.363.328.539.328.891-.109.645-.328.879-.539.352-.961.352-.74-.117-.955-.352-.322-.527-.322-.879Zm2.344,16.043h-2.168v-12.68h2.168v12.68Z"/><path d="m686.66,368.239l.07,1.594c.969-1.219,2.234-1.828,3.797-1.828,2.68,0,4.031,1.512,4.055,4.535v8.379h-2.168v-8.391c-.008-.914-.217-1.59-.627-2.027s-1.049-.656-1.916-.656c-.703,0-1.32.188-1.852.562s-.945.867-1.242,1.477v9.035h-2.168v-12.68h2.051Z"/><path d="m697.336,374.473c0-1.977.457-3.549,1.371-4.717s2.125-1.752,3.633-1.752c1.547,0,2.754.547,3.621,1.641l.105-1.406h1.98v12.375c0,1.641-.486,2.934-1.459,3.879s-2.279,1.418-3.92,1.418c-.914,0-1.809-.195-2.684-.586s-1.543-.926-2.004-1.605l1.125-1.301c.93,1.148,2.066,1.723,3.41,1.723,1.055,0,1.877-.297,2.467-.891s.885-1.43.885-2.508v-1.09c-.867,1-2.051,1.5-3.551,1.5-1.484,0-2.686-.598-3.604-1.793s-1.377-2.824-1.377-4.887Zm2.18.246c0,1.43.293,2.553.879,3.369s1.406,1.225,2.461,1.225c1.367,0,2.371-.621,3.012-1.863v-5.789c-.664-1.211-1.66-1.816-2.988-1.816-1.055,0-1.879.41-2.473,1.23s-.891,2.035-.891,3.645Z"/><path d="m260.492,249.504c-.211,1.805-.877,3.197-1.998,4.178s-2.611,1.471-4.471,1.471c-2.016,0-3.631-.723-4.846-2.168s-1.822-3.379-1.822-5.801v-1.641c0-1.586.283-2.98.85-4.184s1.369-2.127,2.408-2.771,2.242-.967,3.609-.967c1.812,0,3.266.506,4.359,1.518s1.73,2.412,1.91,4.201h-2.262c-.195-1.363-.619-2.352-1.271-2.962-.652-.611-1.564-.917-2.736-.917-1.438,0-2.564.531-3.381,1.595s-1.225,2.576-1.225,4.539v1.654c0,1.853.387,3.327,1.16,4.421.773,1.095,1.855,1.643,3.246,1.643,1.25,0,2.209-.283,2.877-.85s1.111-1.553,1.33-2.959h2.262Z"/><path d="m262.648,248.461c0-1.242.244-2.359.732-3.352s1.168-1.758,2.039-2.297,1.865-.809,2.982-.809c1.727,0,3.123.598,4.189,1.793s1.6,2.785,1.6,4.77v.152c0,1.234-.236,2.342-.709,3.322s-1.148,1.744-2.027,2.291-1.889.82-3.029.82c-1.719,0-3.111-.598-4.178-1.793s-1.6-2.777-1.6-4.746v-.152Zm2.18.258c0,1.406.326,2.535.979,3.387s1.525,1.277,2.619,1.277c1.102,0,1.977-.432,2.625-1.295s.973-2.072.973-3.627c0-1.391-.33-2.518-.99-3.381s-1.537-1.295-2.631-1.295c-1.07,0-1.934.426-2.59,1.277s-.984,2.07-.984,3.656Z"/><path d="m278.961,242.239l.07,1.594c.969-1.219,2.234-1.828,3.797-1.828,2.68,0,4.031,1.512,4.055,4.535v8.379h-2.168v-8.391c-.008-.914-.217-1.59-.627-2.027s-1.049-.656-1.916-.656c-.703,0-1.32.188-1.852.562s-.945.867-1.242,1.477v9.035h-2.168v-12.68h2.051Z"/><path d="m289.625,248.473c0-1.945.461-3.51,1.383-4.693s2.129-1.775,3.621-1.775c1.484,0,2.66.508,3.527,1.523v-6.609h2.168v18h-1.992l-.105-1.359c-.867,1.062-2.074,1.594-3.621,1.594-1.469,0-2.666-.602-3.592-1.805s-1.389-2.773-1.389-4.711v-.164Zm2.168.246c0,1.438.297,2.562.891,3.375s1.414,1.219,2.461,1.219c1.375,0,2.379-.617,3.012-1.852v-5.824c-.648-1.195-1.645-1.793-2.988-1.793-1.062,0-1.891.41-2.484,1.23s-.891,2.035-.891,3.645Z"/><path d="m308.949,255.153c-1.719,0-3.117-.564-4.195-1.693s-1.617-2.639-1.617-4.529v-.398c0-1.258.24-2.381.721-3.369s1.152-1.762,2.016-2.32,1.799-.838,2.807-.838c1.648,0,2.93.543,3.844,1.629s1.371,2.641,1.371,4.664v.902h-8.59c.031,1.25.396,2.26,1.096,3.029s1.588,1.154,2.666,1.154c.766,0,1.414-.156,1.945-.469s.996-.727,1.395-1.242l1.324,1.031c-1.062,1.633-2.656,2.449-4.781,2.449Zm-.27-11.367c-.875,0-1.609.318-2.203.955s-.961,1.529-1.102,2.678h6.352v-.164c-.062-1.102-.359-1.955-.891-2.561s-1.25-.908-2.156-.908Z"/><path d="m318.453,242.239l.07,1.594c.969-1.219,2.234-1.828,3.797-1.828,2.68,0,4.031,1.512,4.055,4.535v8.379h-2.168v-8.391c-.008-.914-.217-1.59-.627-2.027s-1.049-.656-1.916-.656c-.703,0-1.32.188-1.852.562s-.945.867-1.242,1.477v9.035h-2.168v-12.68h2.051Z"/><path d="m337.027,251.555c0-.586-.221-1.041-.662-1.365s-1.211-.604-2.309-.838-1.969-.516-2.613-.844-1.121-.719-1.43-1.172-.463-.992-.463-1.617c0-1.039.439-1.918,1.318-2.637s2.002-1.078,3.369-1.078c1.438,0,2.604.371,3.498,1.113s1.342,1.691,1.342,2.848h-2.18c0-.594-.252-1.105-.756-1.535s-1.139-.645-1.904-.645c-.789,0-1.406.172-1.852.516s-.668.793-.668,1.348c0,.523.207.918.621,1.184s1.162.52,2.244.762,1.959.531,2.631.867,1.17.74,1.494,1.213.486,1.049.486,1.729c0,1.133-.453,2.041-1.359,2.725s-2.082,1.025-3.527,1.025c-1.016,0-1.914-.18-2.695-.539s-1.393-.861-1.834-1.506-.662-1.342-.662-2.092h2.168c.039.727.33,1.303.873,1.729s1.26.639,2.15.639c.82,0,1.479-.166,1.975-.498s.744-.775.744-1.33Z"/><path d="m349.848,254.918c-.125-.25-.227-.695-.305-1.336-1.008,1.047-2.211,1.57-3.609,1.57-1.25,0-2.275-.354-3.076-1.061s-1.201-1.604-1.201-2.689c0-1.32.502-2.346,1.506-3.076s2.416-1.096,4.236-1.096h2.109v-.996c0-.758-.227-1.361-.68-1.811s-1.121-.674-2.004-.674c-.773,0-1.422.195-1.945.586s-.785.863-.785,1.418h-2.18c0-.633.225-1.244.674-1.834s1.059-1.057,1.828-1.4,1.615-.516,2.537-.516c1.461,0,2.605.365,3.434,1.096s1.258,1.736,1.289,3.018v5.836c0,1.164.148,2.09.445,2.777v.188h-2.273Zm-3.598-1.652c.68,0,1.324-.176,1.934-.527s1.051-.809,1.324-1.371v-2.602h-1.699c-2.656,0-3.984.777-3.984,2.332,0,.68.227,1.211.68,1.594s1.035.574,1.746.574Z"/><path d="m358.016,239.168v3.07h2.367v1.676h-2.367v7.873c0,.509.105.89.316,1.144.211.255.57.382,1.078.382.25,0,.594-.047,1.031-.141v1.747c-.57.155-1.125.233-1.664.233-.969,0-1.699-.293-2.191-.879s-.738-1.418-.738-2.496v-7.863h-2.309v-1.676h2.309v-3.07h2.168Z"/><path d="m362.926,238.875c0-.352.107-.648.322-.891s.533-.363.955-.363.742.121.961.363.328.539.328.891-.109.645-.328.879-.539.352-.961.352-.74-.117-.955-.352-.322-.527-.322-.879Zm2.344,16.043h-2.168v-12.68h2.168v12.68Z"/><path d="m368.164,248.461c0-1.242.244-2.359.732-3.352s1.168-1.758,2.039-2.297,1.865-.809,2.982-.809c1.727,0,3.123.598,4.189,1.793s1.6,2.785,1.6,4.77v.152c0,1.234-.236,2.342-.709,3.322s-1.148,1.744-2.027,2.291-1.889.82-3.029.82c-1.719,0-3.111-.598-4.178-1.793s-1.6-2.777-1.6-4.746v-.152Zm2.18.258c0,1.406.326,2.535.979,3.387s1.525,1.277,2.619,1.277c1.102,0,1.977-.432,2.625-1.295s.973-2.072.973-3.627c0-1.391-.33-2.518-.99-3.381s-1.537-1.295-2.631-1.295c-1.07,0-1.934.426-2.59,1.277s-.984,2.07-.984,3.656Z"/><path d="m384.476,242.239l.07,1.594c.969-1.219,2.234-1.828,3.797-1.828,2.68,0,4.031,1.512,4.055,4.535v8.379h-2.168v-8.391c-.008-.914-.217-1.59-.627-2.027s-1.049-.656-1.916-.656c-.703,0-1.32.188-1.852.562s-.945.867-1.242,1.477v9.035h-2.168v-12.68h2.051Z"/><path d="m860.969,396.313c-1.93-.555-3.334-1.236-4.213-2.045s-1.318-1.807-1.318-2.994c0-1.344.537-2.455,1.611-3.334s2.471-1.318,4.189-1.318c1.172,0,2.217.227,3.135.68s1.629,1.078,2.133,1.875.756,1.668.756,2.613h-2.262c0-1.035-.328-1.849-.984-2.44s-1.582-.888-2.777-.888c-1.109,0-1.975.244-2.596.733s-.932,1.168-.932,2.037c0,.696.295,1.285.885,1.767s1.594.922,3.012,1.321c1.418.398,2.527.839,3.328,1.319s1.395,1.041,1.781,1.682.58,1.395.58,2.262c0,1.383-.539,2.49-1.617,3.322s-2.52,1.248-4.324,1.248c-1.172,0-2.266-.225-3.281-.674s-1.799-1.064-2.35-1.846-.826-1.668-.826-2.66h2.262c0,1.031.381,1.846,1.143,2.443s1.779.896,3.053.896c1.188,0,2.098-.242,2.73-.727s.949-1.145.949-1.98-.293-1.482-.879-1.939-1.648-.908-3.188-1.354Z"/><path d="m869.266,397.461c0-1.242.244-2.359.732-3.352s1.168-1.758,2.039-2.297,1.865-.809,2.982-.809c1.727,0,3.123.598,4.189,1.793s1.6,2.785,1.6,4.77v.152c0,1.234-.236,2.342-.709,3.322s-1.148,1.744-2.027,2.291-1.889.82-3.029.82c-1.719,0-3.111-.598-4.178-1.793s-1.6-2.777-1.6-4.746v-.152Zm2.18.258c0,1.406.326,2.535.979,3.387s1.525,1.277,2.619,1.277c1.102,0,1.977-.432,2.625-1.295s.973-2.072.973-3.627c0-1.391-.33-2.518-.99-3.381s-1.537-1.295-2.631-1.295c-1.07,0-1.934.426-2.59,1.277s-.984,2.07-.984,3.656Z"/><path d="m885.883,403.918h-2.168v-18h2.168v18Z"/><path d="m889.363,387.875c0-.352.107-.648.322-.891s.533-.363.955-.363.742.121.961.363.328.539.328.891-.109.645-.328.879-.539.352-.961.352-.74-.117-.955-.352-.322-.527-.322-.879Zm2.344,16.043h-2.168v-12.68h2.168v12.68Z"/><path d="m894.648,397.473c0-1.945.461-3.51,1.383-4.693s2.129-1.775,3.621-1.775c1.484,0,2.66.508,3.527,1.523v-6.609h2.168v18h-1.992l-.105-1.359c-.867,1.062-2.074,1.594-3.621,1.594-1.469,0-2.666-.602-3.592-1.805s-1.389-2.773-1.389-4.711v-.164Zm2.168.246c0,1.438.297,2.562.891,3.375s1.414,1.219,2.461,1.219c1.375,0,2.379-.617,3.012-1.852v-5.824c-.648-1.195-1.645-1.793-2.988-1.793-1.062,0-1.891.41-2.484,1.23s-.891,2.035-.891,3.645Z"/><path d="m507.203,278.078h8.086v1.84h-10.348v-17.062h2.262v15.223Z"/><path d="m517.527,263.875c0-.352.107-.648.322-.891s.533-.363.955-.363.742.121.961.363.328.539.328.891-.109.645-.328.879-.539.352-.961.352-.74-.117-.955-.352-.322-.527-.322-.879Zm2.344,16.043h-2.168v-12.68h2.168v12.68Z"/><path d="m522.812,273.473c0-1.992.457-3.568,1.371-4.729s2.141-1.74,3.68-1.74c1.5,0,2.684.504,3.551,1.512l.094-1.277h1.992v17.555h-2.168v-6.047c-.875.938-2.039,1.406-3.492,1.406-1.531,0-2.752-.596-3.662-1.787s-1.365-2.771-1.365-4.74v-.152Zm2.168.246c0,1.453.307,2.594.92,3.422s1.439,1.242,2.479,1.242c1.289,0,2.273-.57,2.953-1.711v-6.211c-.688-1.117-1.664-1.676-2.93-1.676-1.047,0-1.879.416-2.496,1.248s-.926,2.061-.926,3.686Z"/><path d="m544.809,278.664c-.844.992-2.082,1.488-3.715,1.488-1.352,0-2.381-.393-3.088-1.178s-1.064-1.947-1.072-3.486v-8.25h2.168v8.191c0,1.922.781,2.883,2.344,2.883,1.656,0,2.758-.617,3.305-1.852v-9.223h2.168v12.68h-2.062l-.047-1.254Z"/><path d="m550.223,263.875c0-.352.107-.648.322-.891s.533-.363.955-.363.742.121.961.363.328.539.328.891-.109.645-.328.879-.539.352-.961.352-.74-.117-.955-.352-.322-.527-.322-.879Zm2.344,16.043h-2.168v-12.68h2.168v12.68Z"/><path d="m555.508,273.473c0-1.945.461-3.51,1.383-4.693s2.129-1.775,3.621-1.775c1.484,0,2.66.508,3.527,1.523v-6.609h2.168v18h-1.992l-.105-1.359c-.867,1.062-2.074,1.594-3.621,1.594-1.469,0-2.666-.602-3.592-1.805s-1.389-2.773-1.389-4.711v-.164Zm2.168.246c0,1.438.297,2.562.891,3.375s1.414,1.219,2.461,1.219c1.375,0,2.379-.617,3.012-1.852v-5.824c-.648-1.195-1.645-1.793-2.988-1.793-1.062,0-1.891.41-2.484,1.23s-.891,2.035-.891,3.645Z"/><path d="m153.539,147.68c-.578.828-1.385,1.447-2.42,1.857s-2.24.615-3.615.615c-1.391,0-2.625-.326-3.703-.979s-1.912-1.58-2.502-2.783-.893-2.598-.908-4.184v-1.488c0-2.57.6-4.562,1.799-5.977s2.885-2.121,5.057-2.121c1.781,0,3.215.455,4.301,1.365s1.75,2.201,1.992,3.873h-2.25c-.422-2.266-1.766-3.398-4.031-3.398-1.508,0-2.65.529-3.428,1.589s-1.17,2.595-1.178,4.604v1.396c0,1.916.438,3.438,1.312,4.568s2.059,1.695,3.551,1.695c.844,0,1.582-.094,2.215-.28.633-.188,1.156-.503,1.57-.947v-3.823h-3.949v-1.84h6.188v6.258Z"/><path d="m164.777,149.918c-.125-.25-.227-.695-.305-1.336-1.008,1.047-2.211,1.57-3.609,1.57-1.25,0-2.275-.354-3.076-1.061s-1.201-1.604-1.201-2.689c0-1.32.502-2.346,1.506-3.076s2.416-1.096,4.236-1.096h2.109v-.996c0-.758-.227-1.361-.68-1.811s-1.121-.674-2.004-.674c-.773,0-1.422.195-1.945.586s-.785.863-.785,1.418h-2.18c0-.633.225-1.244.674-1.834s1.059-1.057,1.828-1.4,1.615-.516,2.537-.516c1.461,0,2.605.365,3.434,1.096s1.258,1.736,1.289,3.018v5.836c0,1.164.148,2.09.445,2.777v.188h-2.273Zm-3.598-1.652c.68,0,1.324-.176,1.934-.527s1.051-.809,1.324-1.371v-2.602h-1.699c-2.656,0-3.984.777-3.984,2.332,0,.68.227,1.211.68,1.594s1.035.574,1.746.574Z"/><path d="m177.387,146.555c0-.586-.221-1.041-.662-1.365s-1.211-.604-2.309-.838-1.969-.516-2.613-.844-1.121-.719-1.43-1.172-.463-.992-.463-1.617c0-1.039.439-1.918,1.318-2.637s2.002-1.078,3.369-1.078c1.438,0,2.604.371,3.498,1.113s1.342,1.691,1.342,2.848h-2.18c0-.594-.252-1.105-.756-1.535s-1.139-.645-1.904-.645c-.789,0-1.406.172-1.852.516s-.668.793-.668,1.348c0,.523.207.918.621,1.184s1.162.52,2.244.762,1.959.531,2.631.867,1.17.74,1.494,1.213.486,1.049.486,1.729c0,1.133-.453,2.041-1.359,2.725s-2.082,1.025-3.527,1.025c-1.016,0-1.914-.18-2.695-.539s-1.393-.861-1.834-1.506-.662-1.342-.662-2.092h2.168c.039.727.33,1.303.873,1.729s1.26.639,2.15.639c.82,0,1.479-.166,1.975-.498s.744-.775.744-1.33Z"/><line x1="88.915" y1="88.336" x2="838.433" y2="88.336" fill="none" stroke="#d12d32" stroke-miterlimit="10" stroke-width="2"/><polygon points="836.099 96.314 849.915 88.336 836.099 80.358 836.099 96.314" fill="#d12d32"/><polyline points="61.915 93.219 210.921 219.621 417.415 219.322" fill="none" stroke="#0077a2" stroke-miterlimit="10" stroke-width="2"/><polyline points="417.063 219.022 563.325 343.479 769.819 343.179" fill="none" stroke="#0077a2" stroke-miterlimit="10" stroke-width="2"/><line x1="769.467" y1="342.88" x2="915.729" y2="467.336" fill="none" stroke="#0077a2" stroke-miterlimit="10" stroke-width="2"/><line x1="61.981" y1="543.336" x2="1123.275" y2="543.336" fill="none" stroke="#000" stroke-miterlimit="10" stroke-width="2"/><polygon points="1120.941 551.314 1134.757 543.336 1120.941 535.358 1120.941 551.314"/><line x1="62.617" y1="543.256" x2="62.617" y2="15.666" fill="none" stroke="#000" stroke-miterlimit="10" stroke-width="2"/><polygon points="70.595 18 62.617 4.184 54.639 18 70.595 18"/></svg>