<?xml version="1.0" encoding="UTF-8"?><svg id="a" xmlns="http://www.w3.org/2000/svg" width="1140" height="492" xmlns:xlink="http://www.w3.org/1999/xlink" viewBox="0 0 1140 492"><defs><clipPath id="b"><path d="m35.665,366.732C-21.517,212.241-66.802-3.555,509.033,5.658c284.211,4.547,557.308-48.55,613.441,201.929,38.114,170.075-1.087,309.071-289.516,275.545-142.995-16.621-214.413-21.521-521.38,5.362-119.767,10.489-251.014-54.491-275.913-121.762Z" fill="none"/></clipPath></defs><g clip-path="url(#b)"><rect x="-65.778" y="-69.266" width="1219.832" height="642.695" transform="translate(1088.275 504.162) rotate(180)" fill="#ace8e3"/><rect x="-72.045" y="347.576" width="1291.981" height="262.232" fill="#6ccfe0"/><rect x="-65.778" y="-33.887" width="1219.832" height="642.695" transform="translate(1088.275 574.92) rotate(180)" fill="#e8e8e8"/></g><rect x="569.432" y="69.268" width="467.242" height="277.989" fill="#c9ecf2" stroke="#0077a2" stroke-miterlimit="10" stroke-width="2.047"/><rect x="103.326" y="23.763" width="467.242" height="369" fill="#f2bfb3" stroke="#d12d32" stroke-miterlimit="10" stroke-width="2"/><path d="m111.177,208.526c22.902,0,22.902-16,45.804-16s22.904,16,45.809,16,22.902-16,45.804-16,22.903,16,45.807,16,22.902-16,45.805-16,22.903,16,45.806,16,22.903-16,45.807-16,22.905,16,45.809,16,22.905-16,45.81-16,22.904,16,45.809,16,22.905-16,45.811-16,22.904,16,45.808,16,22.904-16,45.809-16,22.906,16,45.811,16,22.905-16,45.809-16,22.908,16,45.816,16h14.946" fill="none" stroke="#d12d32" stroke-miterlimit="10" stroke-width="4"/><polygon points="854.386 224.483 882.019 208.526 854.386 192.57 854.386 224.483" fill="#d12d32"/><path d="m314.258,438.208h-2.262v-7.887h-8.602v7.887h-2.25v-17.062h2.25v7.336h8.602v-7.336h2.262v17.062Z"/><path d="m323.176,438.443c-1.719,0-3.117-.564-4.195-1.693s-1.617-2.639-1.617-4.529v-.398c0-1.258.24-2.381.721-3.369s1.152-1.762,2.016-2.32,1.799-.838,2.807-.838c1.648,0,2.93.543,3.844,1.629s1.371,2.641,1.371,4.664v.902h-8.59c.031,1.25.396,2.26,1.096,3.029s1.588,1.154,2.666,1.154c.766,0,1.414-.156,1.945-.469s.996-.727,1.395-1.242l1.324,1.031c-1.062,1.633-2.656,2.449-4.781,2.449Zm-.27-11.367c-.875,0-1.609.318-2.203.955s-.961,1.529-1.102,2.678h6.352v-.164c-.062-1.102-.359-1.955-.891-2.561s-1.25-.908-2.156-.908Z"/><path d="m338.457,438.208c-.125-.25-.227-.695-.305-1.336-1.008,1.047-2.211,1.57-3.609,1.57-1.25,0-2.275-.354-3.076-1.061s-1.201-1.604-1.201-2.689c0-1.32.502-2.346,1.506-3.076s2.416-1.096,4.236-1.096h2.109v-.996c0-.758-.227-1.361-.68-1.811s-1.121-.674-2.004-.674c-.773,0-1.422.195-1.945.586s-.785.863-.785,1.418h-2.18c0-.633.225-1.244.674-1.834s1.059-1.057,1.828-1.4,1.615-.516,2.537-.516c1.461,0,2.605.365,3.434,1.096s1.258,1.736,1.289,3.018v5.836c0,1.164.148,2.09.445,2.777v.188h-2.273Zm-3.598-1.652c.68,0,1.324-.176,1.934-.527s1.051-.809,1.324-1.371v-2.602h-1.699c-2.656,0-3.984.777-3.984,2.332,0,.68.227,1.211.68,1.594s1.035.574,1.746.574Z"/><path d="m346.625,422.458v3.07h2.367v1.676h-2.367v7.873c0,.509.105.89.316,1.145.211.254.57.381,1.078.381.25,0,.594-.047,1.031-.141v1.748c-.57.154-1.125.232-1.664.232-.969,0-1.699-.293-2.191-.879s-.738-1.418-.738-2.496v-7.863h-2.309v-1.676h2.309v-3.07h2.168Z"/><path d="m362.726,438.443c-1.719,0-3.117-.564-4.195-1.693s-1.617-2.639-1.617-4.529v-.398c0-1.258.24-2.381.721-3.369s1.152-1.762,2.016-2.32,1.799-.838,2.807-.838c1.648,0,2.93.543,3.844,1.629s1.371,2.641,1.371,4.664v.902h-8.59c.031,1.25.396,2.26,1.096,3.029s1.588,1.154,2.666,1.154c.766,0,1.414-.156,1.945-.469s.996-.727,1.395-1.242l1.324,1.031c-1.062,1.633-2.656,2.449-4.781,2.449Zm-.27-11.367c-.875,0-1.609.318-2.203.955s-.961,1.529-1.102,2.678h6.352v-.164c-.062-1.102-.359-1.955-.891-2.561s-1.25-.908-2.156-.908Z"/><path d="m372.23,425.529l.07,1.594c.969-1.219,2.234-1.828,3.797-1.828,2.68,0,4.031,1.512,4.055,4.535v8.379h-2.168v-8.391c-.008-.914-.217-1.59-.627-2.027s-1.049-.656-1.916-.656c-.703,0-1.32.188-1.852.562s-.945.867-1.242,1.477v9.035h-2.168v-12.68h2.051Z"/><path d="m388.684,438.443c-1.719,0-3.117-.564-4.195-1.693s-1.617-2.639-1.617-4.529v-.398c0-1.258.24-2.381.721-3.369s1.152-1.762,2.016-2.32,1.799-.838,2.807-.838c1.648,0,2.93.543,3.844,1.629s1.371,2.641,1.371,4.664v.902h-8.59c.031,1.25.396,2.26,1.096,3.029s1.588,1.154,2.666,1.154c.766,0,1.414-.156,1.945-.469s.996-.727,1.395-1.242l1.324,1.031c-1.062,1.633-2.656,2.449-4.781,2.449Zm-.27-11.367c-.875,0-1.609.318-2.203.955s-.961,1.529-1.102,2.678h6.352v-.164c-.062-1.102-.359-1.955-.891-2.561s-1.25-.908-2.156-.908Z"/><path d="m402.266,427.474c-.328-.055-.684-.082-1.066-.082-1.422,0-2.387.605-2.895,1.816v9h-2.168v-12.68h2.109l.035,1.465c.711-1.133,1.719-1.699,3.023-1.699.422,0,.742.055.961.164v2.016Z"/><path d="m403.519,431.763c0-1.977.457-3.549,1.371-4.717s2.125-1.752,3.633-1.752c1.547,0,2.754.547,3.621,1.641l.105-1.406h1.98v12.375c0,1.641-.486,2.934-1.459,3.879s-2.279,1.418-3.92,1.418c-.914,0-1.809-.195-2.684-.586s-1.543-.926-2.004-1.605l1.125-1.301c.93,1.148,2.066,1.723,3.41,1.723,1.055,0,1.877-.297,2.467-.891s.885-1.43.885-2.508v-1.09c-.867,1-2.051,1.5-3.551,1.5-1.484,0-2.686-.598-3.604-1.793s-1.377-2.824-1.377-4.887Zm2.18.246c0,1.43.293,2.553.879,3.369s1.406,1.225,2.461,1.225c1.367,0,2.371-.621,3.012-1.863v-5.789c-.664-1.211-1.66-1.816-2.988-1.816-1.055,0-1.879.41-2.473,1.23s-.891,2.035-.891,3.645Z"/><path d="m421.648,435.033l2.953-9.504h2.32l-5.098,14.637c-.789,2.109-2.043,3.164-3.762,3.164l-.41-.035-.809-.152v-1.758l.586.047c.734,0,1.307-.148,1.717-.445s.748-.84,1.014-1.629l.48-1.289-4.523-12.539h2.367l3.164,9.504Z"/><path d="m437.152,438.208h-2.168v-18h2.168v18Z"/><path d="m440.047,431.751c0-1.242.244-2.359.732-3.352s1.168-1.758,2.039-2.297,1.865-.809,2.982-.809c1.727,0,3.123.598,4.189,1.793s1.6,2.785,1.6,4.77v.152c0,1.234-.236,2.342-.709,3.322s-1.148,1.744-2.027,2.291-1.889.82-3.029.82c-1.719,0-3.111-.598-4.178-1.793s-1.6-2.777-1.6-4.746v-.152Zm2.18.258c0,1.406.326,2.535.979,3.387s1.525,1.277,2.619,1.277c1.102,0,1.977-.432,2.625-1.295s.973-2.072.973-3.627c0-1.391-.33-2.518-.99-3.381s-1.537-1.295-2.631-1.295c-1.07,0-1.934.426-2.59,1.277s-.984,2.07-.984,3.656Z"/><path d="m461.691,434.845c0-.586-.221-1.041-.662-1.365s-1.211-.604-2.309-.838-1.969-.516-2.613-.844-1.121-.719-1.43-1.172-.463-.992-.463-1.617c0-1.039.439-1.918,1.318-2.637s2.002-1.078,3.369-1.078c1.438,0,2.604.371,3.498,1.113s1.342,1.691,1.342,2.848h-2.18c0-.594-.252-1.105-.756-1.535s-1.139-.645-1.904-.645c-.789,0-1.406.172-1.852.516s-.668.793-.668,1.348c0,.523.207.918.621,1.184s1.162.52,2.244.762,1.959.531,2.631.867,1.17.74,1.494,1.213.486,1.049.486,1.729c0,1.133-.453,2.041-1.359,2.725s-2.082,1.025-3.527,1.025c-1.016,0-1.914-.18-2.695-.539s-1.393-.861-1.834-1.506-.662-1.342-.662-2.092h2.168c.039.727.33,1.303.873,1.729s1.26.639,2.15.639c.82,0,1.479-.166,1.975-.498s.744-.775.744-1.33Z"/><path d="m469.625,422.458v3.07h2.367v1.676h-2.367v7.873c0,.509.105.89.316,1.145.211.254.57.381,1.078.381.25,0,.594-.047,1.031-.141v1.748c-.57.154-1.125.232-1.664.232-.969,0-1.699-.293-2.191-.879s-.738-1.418-.738-2.496v-7.863h-2.309v-1.676h2.309v-3.07h2.168Z"/><path d="m491.199,432.009c0,1.938-.445,3.494-1.336,4.67s-2.086,1.764-3.586,1.764c-1.602,0-2.84-.566-3.715-1.699l-.105,1.465h-1.992v-18h2.168v6.715c.875-1.086,2.082-1.629,3.621-1.629s2.748.582,3.627,1.746,1.318,2.758,1.318,4.781v.188Zm-2.168-.246c0-1.477-.285-2.617-.855-3.422s-1.391-1.207-2.461-1.207c-1.43,0-2.457.664-3.082,1.992v5.484c.664,1.328,1.699,1.992,3.105,1.992,1.039,0,1.848-.402,2.426-1.207s.867-2.016.867-3.633Z"/><path d="m497.949,435.033l2.953-9.504h2.32l-5.098,14.637c-.789,2.109-2.043,3.164-3.762,3.164l-.41-.035-.809-.152v-1.758l.586.047c.734,0,1.307-.148,1.717-.445s.748-.84,1.014-1.629l.48-1.289-4.523-12.539h2.367l3.164,9.504Z"/><path d="m524.551,438.208h-2.262v-7.887h-8.602v7.887h-2.25v-17.062h2.25v7.336h8.602v-7.336h2.262v17.062Z"/><path d="m541.672,430.228c0,1.672-.281,3.131-.844,4.377s-1.359,2.197-2.391,2.854-2.234.984-3.609.984c-1.344,0-2.535-.33-3.574-.99s-1.846-1.602-2.42-2.824-.869-2.639-.885-4.248v-1.23c0-1.641.285-3.09.855-4.348s1.377-2.221,2.42-2.889,2.236-1.002,3.58-1.002c1.367,0,2.572.33,3.615.99s1.846,1.617,2.408,2.871.844,2.713.844,4.377v1.078Zm-2.238-1.102c0-2.023-.406-3.576-1.219-4.658s-1.949-1.623-3.41-1.623c-1.422,0-2.541.541-3.357,1.623s-1.236,2.584-1.26,4.506v1.254c0,1.961.412,3.502,1.236,4.623s1.959,1.682,3.404,1.682c1.453,0,2.578-.529,3.375-1.588s1.207-2.576,1.23-4.553v-1.266Z"/><path d="m556.519,422.986h-5.484v15.223h-2.238v-15.223h-5.473v-1.84h13.195v1.84Z"/><path d="m565.089,429.382v-1.836h16.088v1.836h-16.088Zm0,5.506v-1.809h16.088v1.809h-16.088Z"/><path d="m604.293,438.208h-2.262v-7.887h-8.602v7.887h-2.25v-17.062h2.25v7.336h8.602v-7.336h2.262v17.062Z"/><path d="m613.211,438.443c-1.719,0-3.117-.564-4.195-1.693s-1.617-2.639-1.617-4.529v-.398c0-1.258.24-2.381.721-3.369s1.152-1.762,2.016-2.32,1.799-.838,2.807-.838c1.648,0,2.93.543,3.844,1.629s1.371,2.641,1.371,4.664v.902h-8.59c.031,1.25.396,2.26,1.096,3.029s1.588,1.154,2.666,1.154c.766,0,1.414-.156,1.945-.469s.996-.727,1.395-1.242l1.324,1.031c-1.062,1.633-2.656,2.449-4.781,2.449Zm-.27-11.367c-.875,0-1.609.318-2.203.955s-.961,1.529-1.102,2.678h6.352v-.164c-.062-1.102-.359-1.955-.891-2.561s-1.25-.908-2.156-.908Z"/><path d="m628.492,438.208c-.125-.25-.227-.695-.305-1.336-1.008,1.047-2.211,1.57-3.609,1.57-1.25,0-2.275-.354-3.076-1.061s-1.201-1.604-1.201-2.689c0-1.32.502-2.346,1.506-3.076s2.416-1.096,4.236-1.096h2.109v-.996c0-.758-.227-1.361-.68-1.811s-1.121-.674-2.004-.674c-.773,0-1.422.195-1.945.586s-.785.863-.785,1.418h-2.18c0-.633.225-1.244.674-1.834s1.059-1.057,1.828-1.4,1.615-.516,2.537-.516c1.461,0,2.605.365,3.434,1.096s1.258,1.736,1.289,3.018v5.836c0,1.164.148,2.09.445,2.777v.188h-2.273Zm-3.598-1.652c.68,0,1.324-.176,1.934-.527s1.051-.809,1.324-1.371v-2.602h-1.699c-2.656,0-3.984.777-3.984,2.332,0,.68.227,1.211.68,1.594s1.035.574,1.746.574Z"/><path d="m636.66,422.458v3.07h2.367v1.676h-2.367v7.873c0,.509.105.89.316,1.145.211.254.57.381,1.078.381.25,0,.594-.047,1.031-.141v1.748c-.57.154-1.125.232-1.664.232-.969,0-1.699-.293-2.191-.879s-.738-1.418-.738-2.496v-7.863h-2.309v-1.676h2.309v-3.07h2.168Z"/><path d="m652.762,438.443c-1.719,0-3.117-.564-4.195-1.693s-1.617-2.639-1.617-4.529v-.398c0-1.258.24-2.381.721-3.369s1.152-1.762,2.016-2.32,1.799-.838,2.807-.838c1.648,0,2.93.543,3.844,1.629s1.371,2.641,1.371,4.664v.902h-8.59c.031,1.25.396,2.26,1.096,3.029s1.588,1.154,2.666,1.154c.766,0,1.414-.156,1.945-.469s.996-.727,1.395-1.242l1.324,1.031c-1.062,1.633-2.656,2.449-4.781,2.449Zm-.27-11.367c-.875,0-1.609.318-2.203.955s-.961,1.529-1.102,2.678h6.352v-.164c-.062-1.102-.359-1.955-.891-2.561s-1.25-.908-2.156-.908Z"/><path d="m662.266,425.529l.07,1.594c.969-1.219,2.234-1.828,3.797-1.828,2.68,0,4.031,1.512,4.055,4.535v8.379h-2.168v-8.391c-.008-.914-.217-1.59-.627-2.027s-1.049-.656-1.916-.656c-.703,0-1.32.188-1.852.562s-.945.867-1.242,1.477v9.035h-2.168v-12.68h2.051Z"/><path d="m678.719,438.443c-1.719,0-3.117-.564-4.195-1.693s-1.617-2.639-1.617-4.529v-.398c0-1.258.24-2.381.721-3.369s1.152-1.762,2.016-2.32,1.799-.838,2.807-.838c1.648,0,2.93.543,3.844,1.629s1.371,2.641,1.371,4.664v.902h-8.59c.031,1.25.396,2.26,1.096,3.029s1.588,1.154,2.666,1.154c.766,0,1.414-.156,1.945-.469s.996-.727,1.395-1.242l1.324,1.031c-1.062,1.633-2.656,2.449-4.781,2.449Zm-.27-11.367c-.875,0-1.609.318-2.203.955s-.961,1.529-1.102,2.678h6.352v-.164c-.062-1.102-.359-1.955-.891-2.561s-1.25-.908-2.156-.908Z"/><path d="m692.301,427.474c-.328-.055-.684-.082-1.066-.082-1.422,0-2.387.605-2.895,1.816v9h-2.168v-12.68h2.109l.035,1.465c.711-1.133,1.719-1.699,3.023-1.699.422,0,.742.055.961.164v2.016Z"/><path d="m693.555,431.763c0-1.977.457-3.549,1.371-4.717s2.125-1.752,3.633-1.752c1.547,0,2.754.547,3.621,1.641l.105-1.406h1.98v12.375c0,1.641-.486,2.934-1.459,3.879s-2.279,1.418-3.92,1.418c-.914,0-1.809-.195-2.684-.586s-1.543-.926-2.004-1.605l1.125-1.301c.93,1.148,2.066,1.723,3.41,1.723,1.055,0,1.877-.297,2.467-.891s.885-1.43.885-2.508v-1.09c-.867,1-2.051,1.5-3.551,1.5-1.484,0-2.686-.598-3.604-1.793s-1.377-2.824-1.377-4.887Zm2.18.246c0,1.43.293,2.553.879,3.369s1.406,1.225,2.461,1.225c1.367,0,2.371-.621,3.012-1.863v-5.789c-.664-1.211-1.66-1.816-2.988-1.816-1.055,0-1.879.41-2.473,1.23s-.891,2.035-.891,3.645Z"/><path d="m711.684,435.033l2.953-9.504h2.32l-5.098,14.637c-.789,2.109-2.043,3.164-3.762,3.164l-.41-.035-.809-.152v-1.758l.586.047c.734,0,1.307-.148,1.717-.445s.748-.84,1.014-1.629l.48-1.289-4.523-12.539h2.367l3.164,9.504Z"/><path d="m724.316,431.763c0-1.977.457-3.549,1.371-4.717s2.125-1.752,3.633-1.752c1.547,0,2.754.547,3.621,1.641l.105-1.406h1.98v12.375c0,1.641-.486,2.934-1.459,3.879s-2.279,1.418-3.92,1.418c-.914,0-1.809-.195-2.684-.586s-1.543-.926-2.004-1.605l1.125-1.301c.93,1.148,2.066,1.723,3.41,1.723,1.055,0,1.877-.297,2.467-.891s.885-1.43.885-2.508v-1.09c-.867,1-2.051,1.5-3.551,1.5-1.484,0-2.686-.598-3.604-1.793s-1.377-2.824-1.377-4.887Zm2.18.246c0,1.43.293,2.553.879,3.369s1.406,1.225,2.461,1.225c1.367,0,2.371-.621,3.012-1.863v-5.789c-.664-1.211-1.66-1.816-2.988-1.816-1.055,0-1.879.41-2.473,1.23s-.891,2.035-.891,3.645Z"/><path d="m746.125,438.208c-.125-.25-.227-.695-.305-1.336-1.008,1.047-2.211,1.57-3.609,1.57-1.25,0-2.275-.354-3.076-1.061s-1.201-1.604-1.201-2.689c0-1.32.502-2.346,1.506-3.076s2.416-1.096,4.236-1.096h2.109v-.996c0-.758-.227-1.361-.68-1.811s-1.121-.674-2.004-.674c-.773,0-1.422.195-1.945.586s-.785.863-.785,1.418h-2.18c0-.633.225-1.244.674-1.834s1.059-1.057,1.828-1.4,1.615-.516,2.537-.516c1.461,0,2.605.365,3.434,1.096s1.258,1.736,1.289,3.018v5.836c0,1.164.148,2.09.445,2.777v.188h-2.273Zm-3.598-1.652c.68,0,1.324-.176,1.934-.527s1.051-.809,1.324-1.371v-2.602h-1.699c-2.656,0-3.984.777-3.984,2.332,0,.68.227,1.211.68,1.594s1.035.574,1.746.574Z"/><path d="m751.363,422.165c0-.352.107-.648.322-.891s.533-.363.955-.363.742.121.961.363.328.539.328.891-.109.645-.328.879-.539.352-.961.352-.74-.117-.955-.352-.322-.527-.322-.879Zm2.344,16.043h-2.168v-12.68h2.168v12.68Z"/><path d="m759.226,425.529l.07,1.594c.969-1.219,2.234-1.828,3.797-1.828,2.68,0,4.031,1.512,4.055,4.535v8.379h-2.168v-8.391c-.008-.914-.217-1.59-.627-2.027s-1.049-.656-1.916-.656c-.703,0-1.32.188-1.852.562s-.945.867-1.242,1.477v9.035h-2.168v-12.68h2.051Z"/><path d="m775.68,438.443c-1.719,0-3.117-.564-4.195-1.693s-1.617-2.639-1.617-4.529v-.398c0-1.258.24-2.381.721-3.369s1.152-1.762,2.016-2.32,1.799-.838,2.807-.838c1.648,0,2.93.543,3.844,1.629s1.371,2.641,1.371,4.664v.902h-8.59c.031,1.25.396,2.26,1.096,3.029s1.588,1.154,2.666,1.154c.766,0,1.414-.156,1.945-.469s.996-.727,1.395-1.242l1.324,1.031c-1.062,1.633-2.656,2.449-4.781,2.449Zm-.27-11.367c-.875,0-1.609.318-2.203.955s-.961,1.529-1.102,2.678h6.352v-.164c-.062-1.102-.359-1.955-.891-2.561s-1.25-.908-2.156-.908Z"/><path d="m782.605,431.763c0-1.945.461-3.51,1.383-4.693s2.129-1.775,3.621-1.775c1.484,0,2.66.508,3.527,1.523v-6.609h2.168v18h-1.992l-.105-1.359c-.867,1.062-2.074,1.594-3.621,1.594-1.469,0-2.666-.602-3.592-1.805s-1.389-2.773-1.389-4.711v-.164Zm2.168.246c0,1.438.297,2.562.891,3.375s1.414,1.219,2.461,1.219c1.375,0,2.379-.617,3.012-1.852v-5.824c-.648-1.195-1.645-1.793-2.988-1.793-1.062,0-1.891.41-2.484,1.23s-.891,2.035-.891,3.645Z"/><path d="m813.344,432.009c0,1.938-.445,3.494-1.336,4.67s-2.086,1.764-3.586,1.764c-1.602,0-2.84-.566-3.715-1.699l-.105,1.465h-1.992v-18h2.168v6.715c.875-1.086,2.082-1.629,3.621-1.629s2.748.582,3.627,1.746,1.318,2.758,1.318,4.781v.188Zm-2.168-.246c0-1.477-.285-2.617-.855-3.422s-1.391-1.207-2.461-1.207c-1.43,0-2.457.664-3.082,1.992v5.484c.664,1.328,1.699,1.992,3.105,1.992,1.039,0,1.848-.402,2.426-1.207s.867-2.016.867-3.633Z"/><path d="m820.094,435.033l2.953-9.504h2.32l-5.098,14.637c-.789,2.109-2.043,3.164-3.762,3.164l-.41-.035-.809-.152v-1.758l.586.047c.734,0,1.307-.148,1.717-.445s.748-.84,1.014-1.629l.48-1.289-4.523-12.539h2.367l3.164,9.504Z"/><path d="m846.133,432.794c-.211,1.805-.877,3.197-1.998,4.178s-2.611,1.471-4.471,1.471c-2.016,0-3.631-.723-4.846-2.168s-1.822-3.379-1.822-5.801v-1.641c0-1.586.283-2.98.85-4.184s1.369-2.127,2.408-2.771,2.242-.967,3.609-.967c1.812,0,3.266.506,4.359,1.518s1.73,2.412,1.91,4.201h-2.262c-.195-1.363-.619-2.351-1.271-2.962s-1.564-.917-2.736-.917c-1.438,0-2.564.531-3.381,1.596-.816,1.062-1.225,2.576-1.225,4.538v1.654c0,1.853.387,3.327,1.16,4.422s1.855,1.642,3.246,1.642c1.25,0,2.209-.283,2.877-.85s1.111-1.553,1.33-2.959h2.262Z"/><path d="m862.328,430.228c0,1.672-.281,3.131-.844,4.377s-1.359,2.197-2.391,2.854-2.234.984-3.609.984c-1.344,0-2.535-.33-3.574-.99s-1.846-1.602-2.42-2.824-.869-2.639-.885-4.248v-1.23c0-1.641.285-3.09.855-4.348s1.377-2.221,2.42-2.889,2.236-1.002,3.58-1.002c1.367,0,2.572.33,3.615.99s1.846,1.617,2.408,2.871.844,2.713.844,4.377v1.078Zm-2.238-1.102c0-2.023-.406-3.576-1.219-4.658s-1.949-1.623-3.41-1.623c-1.422,0-2.541.541-3.357,1.623s-1.236,2.584-1.26,4.506v1.254c0,1.961.412,3.502,1.236,4.623s1.959,1.682,3.404,1.682c1.453,0,2.578-.529,3.375-1.588s1.207-2.576,1.23-4.553v-1.266Z"/><path d="m867.965,436.368h8.086v1.84h-10.348v-17.062h2.262v15.223Z"/><path d="m878.617,438.208v-17.062h4.816c1.484,0,2.797.328,3.938.984s2.021,1.59,2.643,2.801.936,2.602.943,4.172v1.09c0,1.609-.311,3.02-.932,4.23s-1.508,2.141-2.66,2.789-2.494.98-4.025.996h-4.723Zm2.25-15.223v13.383h2.367c1.734,0,3.084-.539,4.049-1.618s1.447-2.616,1.447-4.61v-.997c0-1.938-.455-3.446-1.365-4.521-.91-1.076-2.201-1.621-3.873-1.637h-2.625Z"/><path d="m329.419,371.968h-3.516v-7.312h-6.855v7.312h-3.516v-17.062h3.516v6.914h6.855v-6.914h3.516v17.062Z" fill="#802523"/><path d="m346.505,363.824c0,1.68-.297,3.152-.891,4.418s-1.443,2.242-2.549,2.93-2.373,1.031-3.803,1.031c-1.414,0-2.676-.34-3.785-1.02s-1.969-1.65-2.578-2.912-.918-2.713-.926-4.354v-.844c0-1.68.303-3.158.908-4.436s1.461-2.258,2.566-2.941,2.369-1.025,3.791-1.025,2.686.342,3.791,1.025,1.961,1.664,2.566,2.941.908,2.752.908,4.424v.762Zm-3.562-.773c0-1.789-.32-3.148-.961-4.078s-1.555-1.395-2.742-1.395c-1.18,0-2.09.459-2.73,1.377s-.965,2.264-.973,4.037v.832c0,1.742.32,3.094.961,4.055s1.562,1.441,2.766,1.441c1.18,0,2.086-.463,2.719-1.389s.953-2.275.961-4.049v-.832Z" fill="#802523"/><path d="m360.907,357.753h-5.227v14.215h-3.516v-14.215h-5.156v-2.848h13.898v2.848Z" fill="#802523"/><path d="m786.474,318.873c-.133,1.836-.811,3.281-2.033,4.336s-2.834,1.582-4.834,1.582c-2.188,0-3.908-.736-5.162-2.209s-1.881-3.494-1.881-6.064v-1.043c0-1.641.289-3.086.867-4.336s1.404-2.209,2.479-2.877,2.322-1.002,3.744-1.002c1.969,0,3.555.527,4.758,1.582s1.898,2.535,2.086,4.441h-3.516c-.086-1.102-.393-1.9-.92-2.396s-1.33-.744-2.408-.744c-1.172,0-2.049.42-2.631,1.26s-.881,2.143-.896,3.908v1.289c0,1.844.279,3.191.838,4.043s1.439,1.277,2.643,1.277c1.086,0,1.896-.248,2.432-.744s.842-1.264.92-2.303h3.516Z" fill="#394170"/><path d="m802.798,316.412c0,1.68-.297,3.152-.891,4.418s-1.443,2.242-2.549,2.93-2.373,1.031-3.803,1.031c-1.414,0-2.676-.34-3.785-1.02s-1.969-1.65-2.578-2.912-.918-2.713-.926-4.354v-.844c0-1.68.303-3.158.908-4.436s1.461-2.258,2.566-2.941,2.369-1.025,3.791-1.025,2.686.342,3.791,1.025,1.961,1.664,2.566,2.941.908,2.752.908,4.424v.762Zm-3.562-.773c0-1.789-.32-3.148-.961-4.078s-1.555-1.395-2.742-1.395c-1.18,0-2.09.459-2.73,1.377s-.965,2.264-.973,4.037v.832c0,1.742.32,3.094.961,4.055s1.562,1.441,2.766,1.441c1.18,0,2.086-.463,2.719-1.389s.953-2.275.961-4.049v-.832Z" fill="#394170"/><path d="m808.868,321.733h7.465v2.824h-10.98v-17.062h3.516v14.238Z" fill="#394170"/><path d="m818.349,324.557v-17.062h5.25c1.5,0,2.842.338,4.025,1.014s2.107,1.637,2.771,2.883.996,2.662.996,4.248v.785c0,1.586-.326,2.996-.979,4.23s-1.572,2.191-2.76,2.871-2.527,1.023-4.02,1.031h-5.285Zm3.516-14.215v11.391h1.699c1.375,0,2.426-.449,3.152-1.348s1.098-2.184,1.113-3.855v-.902c0-1.734-.359-3.049-1.078-3.943s-1.77-1.342-3.152-1.342h-1.734Z" fill="#394170"/><rect x="389.692" y="225.105" width="192.404" height="44" rx="22" ry="22" fill="#fff5f5" stroke="#d12d32" stroke-miterlimit="10" stroke-width="2"/><path d="m436.524,255.669h-2.262v-7.887h-8.602v7.887h-2.25v-17.062h2.25v7.336h8.602v-7.336h2.262v17.062Z"/><path d="m445.442,255.904c-1.719,0-3.117-.564-4.195-1.693s-1.617-2.639-1.617-4.529v-.398c0-1.258.24-2.381.721-3.369s1.152-1.762,2.016-2.32,1.799-.838,2.807-.838c1.648,0,2.93.543,3.844,1.629s1.371,2.641,1.371,4.664v.902h-8.59c.031,1.25.396,2.26,1.096,3.029s1.588,1.154,2.666,1.154c.766,0,1.414-.156,1.945-.469s.996-.727,1.395-1.242l1.324,1.031c-1.062,1.633-2.656,2.449-4.781,2.449Zm-.27-11.367c-.875,0-1.609.318-2.203.955s-.961,1.529-1.102,2.678h6.352v-.164c-.062-1.102-.359-1.955-.891-2.561s-1.25-.908-2.156-.908Z"/><path d="m460.724,255.669c-.125-.25-.227-.695-.305-1.336-1.008,1.047-2.211,1.57-3.609,1.57-1.25,0-2.275-.354-3.076-1.061s-1.201-1.604-1.201-2.689c0-1.32.502-2.346,1.506-3.076s2.416-1.096,4.236-1.096h2.109v-.996c0-.758-.227-1.361-.68-1.811s-1.121-.674-2.004-.674c-.773,0-1.422.195-1.945.586s-.785.863-.785,1.418h-2.18c0-.633.225-1.244.674-1.834s1.059-1.057,1.828-1.4,1.615-.516,2.537-.516c1.461,0,2.605.365,3.434,1.096s1.258,1.736,1.289,3.018v5.836c0,1.164.148,2.09.445,2.777v.188h-2.273Zm-3.598-1.652c.68,0,1.324-.176,1.934-.527s1.051-.809,1.324-1.371v-2.602h-1.699c-2.656,0-3.984.777-3.984,2.332,0,.68.227,1.211.68,1.594s1.035.574,1.746.574Z"/><path d="m468.892,239.919v3.07h2.367v1.676h-2.367v7.873c0,.509.105.89.316,1.144.211.255.57.382,1.078.382.25,0,.594-.047,1.031-.141v1.747c-.57.155-1.125.233-1.664.233-.969,0-1.699-.293-2.191-.879s-.738-1.418-.738-2.496v-7.863h-2.309v-1.676h2.309v-3.07h2.168Z"/><path d="m484.993,255.904c-1.719,0-3.117-.564-4.195-1.693s-1.617-2.639-1.617-4.529v-.398c0-1.258.24-2.381.721-3.369s1.152-1.762,2.016-2.32,1.799-.838,2.807-.838c1.648,0,2.93.543,3.844,1.629s1.371,2.641,1.371,4.664v.902h-8.59c.031,1.25.396,2.26,1.096,3.029s1.588,1.154,2.666,1.154c.766,0,1.414-.156,1.945-.469s.996-.727,1.395-1.242l1.324,1.031c-1.062,1.633-2.656,2.449-4.781,2.449Zm-.27-11.367c-.875,0-1.609.318-2.203.955s-.961,1.529-1.102,2.678h6.352v-.164c-.062-1.102-.359-1.955-.891-2.561s-1.25-.908-2.156-.908Z"/><path d="m494.497,242.99l.07,1.594c.969-1.219,2.234-1.828,3.797-1.828,2.68,0,4.031,1.512,4.055,4.535v8.379h-2.168v-8.391c-.008-.914-.217-1.59-.627-2.027s-1.049-.656-1.916-.656c-.703,0-1.32.188-1.852.562s-.945.867-1.242,1.477v9.035h-2.168v-12.68h2.051Z"/><path d="m510.95,255.904c-1.719,0-3.117-.564-4.195-1.693s-1.617-2.639-1.617-4.529v-.398c0-1.258.24-2.381.721-3.369s1.152-1.762,2.016-2.32,1.799-.838,2.807-.838c1.648,0,2.93.543,3.844,1.629s1.371,2.641,1.371,4.664v.902h-8.59c.031,1.25.396,2.26,1.096,3.029s1.588,1.154,2.666,1.154c.766,0,1.414-.156,1.945-.469s.996-.727,1.395-1.242l1.324,1.031c-1.062,1.633-2.656,2.449-4.781,2.449Zm-.27-11.367c-.875,0-1.609.318-2.203.955s-.961,1.529-1.102,2.678h6.352v-.164c-.062-1.102-.359-1.955-.891-2.561s-1.25-.908-2.156-.908Z"/><path d="m524.532,244.935c-.328-.055-.684-.082-1.066-.082-1.422,0-2.387.605-2.895,1.816v9h-2.168v-12.68h2.109l.035,1.465c.711-1.133,1.719-1.699,3.023-1.699.422,0,.742.055.961.164v2.016Z"/><path d="m525.786,249.224c0-1.977.457-3.549,1.371-4.717s2.125-1.752,3.633-1.752c1.547,0,2.754.547,3.621,1.641l.105-1.406h1.98v12.375c0,1.641-.486,2.934-1.459,3.879s-2.279,1.418-3.92,1.418c-.914,0-1.809-.195-2.684-.586s-1.543-.926-2.004-1.605l1.125-1.301c.93,1.148,2.066,1.723,3.41,1.723,1.055,0,1.877-.297,2.467-.891s.885-1.43.885-2.508v-1.09c-.867,1-2.051,1.5-3.551,1.5-1.484,0-2.686-.598-3.604-1.793s-1.377-2.824-1.377-4.887Zm2.18.246c0,1.43.293,2.553.879,3.369s1.406,1.225,2.461,1.225c1.367,0,2.371-.621,3.012-1.863v-5.789c-.664-1.211-1.66-1.816-2.988-1.816-1.055,0-1.879.41-2.473,1.23s-.891,2.035-.891,3.645Z"/><path d="m543.915,252.493l2.953-9.504h2.32l-5.098,14.637c-.789,2.109-2.043,3.164-3.762,3.164l-.41-.035-.809-.152v-1.758l.586.047c.734,0,1.307-.148,1.717-.445s.748-.84,1.014-1.629l.48-1.289-4.523-12.539h2.367l3.164,9.504Z"/></svg>