<?xml version="1.0" encoding="UTF-8"?>
<svg id="Layer_1" data-name="Layer 1" xmlns="http://www.w3.org/2000/svg" width="570" height="641" xmlns:xlink="http://www.w3.org/1999/xlink" viewBox="0 0 570 641">
  <defs>
    <style>
      .cls-1, .cls-2, .cls-3, .cls-4 {
        fill: none;
      }

      .cls-5 {
        clip-path: url(#clippath);
      }

      .cls-6 {
        fill: #001415;
      }

      .cls-7 {
        fill: #efc9b6;
      }

      .cls-8 {
        fill: #fcdc59;
      }

      .cls-9 {
        fill: #ffe7bd;
      }

      .cls-10 {
        fill: #ead9d8;
      }

      .cls-11 {
        fill: #931f07;
      }

      .cls-12 {
        fill: #a31f19;
      }

      .cls-13 {
        fill: #84a03f;
      }

      .cls-14 {
        fill: #8d2593;
      }

      .cls-15 {
        fill: #9e7967;
      }

      .cls-16 {
        fill: #8e3526;
      }

      .cls-17 {
        fill: #ad6738;
      }

      .cls-18 {
        fill: #b28e79;
      }

      .cls-19 {
        fill: #d8dd76;
      }

      .cls-20 {
        fill: #ad942a;
      }

      .cls-21 {
        fill: #a3ba5a;
      }

      .cls-22 {
        fill: #bf3c32;
      }

      .cls-23 {
        fill: #d36a13;
      }

      .cls-24 {
        fill: #e0bdad;
      }

      .cls-25 {
        fill: #e0ab65;
      }

      .cls-26 {
        fill: #dbbd40;
      }

      .cls-27 {
        fill: #e2b9ea;
      }

      .cls-28 {
        fill: #140c0c;
      }

      .cls-29 {
        fill: #254213;
      }

      .cls-30 {
        fill: #707f32;
      }

      .cls-31 {
        fill: #701b77;
      }

      .cls-32 {
        fill: #2b0d0d;
      }

      .cls-33 {
        fill: #2c4c17;
      }

      .cls-34 {
        fill: #3a1316;
      }

      .cls-35 {
        fill: #577c41;
      }

      .cls-36 {
        fill: #845e4c;
      }

      .cls-37 {
        fill: #720d03;
      }

      .cls-38 {
        fill: #4f1056;
      }

      .cls-2 {
        stroke: #c49a57;
      }

      .cls-2, .cls-3 {
        stroke-width: 2px;
      }

      .cls-2, .cls-3, .cls-4 {
        stroke-linecap: round;
        stroke-miterlimit: 10;
      }

      .cls-3, .cls-4 {
        stroke: #a3ba5a;
      }

      .cls-4 {
        stroke-width: 5px;
      }
    </style>
    <clipPath id="clippath">
      <path class="cls-1" d="m6.05,313.9c4.9,167.88,62.27,312.09,187.26,318.21,124.99,6.13,303.62-6.56,355.09-80.08,51.47-73.52-19.95-130.91-11.22-249.35,3.74-50.7,51.34-153.83-6.23-233.15C474.83-7.76,184.34-12.03,114.52,30.89-21.38,114.42,6.05,313.9,6.05,313.9Z"/>
    </clipPath>
  </defs>
  <g class="cls-5">
    <rect class="cls-7" x="-54.71" y="-55.88" width="687.67" height="740.57"/>
    <path class="cls-10" d="m-86.32,426.14s118.23,81.59,181.51,73.27,178.18-174.85,231.46-163.19,56.62,41.63,106.57,1.67,54.95-88.26,103.24-91.59c48.29-3.33,138.21,18.32,138.21,18.32l-106.57,424.63-714.37-6.66,59.95-256.44Z"/>
    <path class="cls-10" d="m634.51,210.75s-133.44-145.37-196.29-134.31c-62.86,11.06,22.1,227.48-31.64,218.14-53.74-9.34-184.95-163.65-233.13-121.56-48.18,42.09-58.47,191.08-106.57,196.49-48.1,5.42-185.66,35.54-185.66,35.54L-30.69-23.78l713.99-24.26-48.79,258.8Z"/>
    <path class="cls-24" d="m-21.38,589.33s69.94-53.29,138.21-56.62,144.87,69.94,228.13,3.33,31.64-169.85,94.92-176.51,153.2,76.6,153.2,76.6l-26.64,281.42-572.83-5-14.99-123.23Z"/>
    <path class="cls-24" d="m520.97-10.88s-60.48,63.82-127.33,78.07c-66.85,14.24-154.22-45.78-225.71,33.33-71.49,79.11-3.97,172.73-65.36,189.46-61.39,16.73-163.51-51.02-163.51-51.02L-79.81-43.1l566.21-87.01,34.57,119.22Z"/>
    <g>
      <path class="cls-14" d="m323.34,181.26s62.98.31,91.91-10.16c22.4-8.1,40.49-27.33,60.78-22.83,24.16,5.36,48.31,36.52,42.89,51.47-9.96,27.51-152.3,79.11-152.3,79.11l-43.29-97.59Z"/>
      <g>
        <path class="cls-6" d="m206.42,405.89s-10.77,24.82-9.87,49.8c.9,24.98,1.52,106.71,11.09,131.68,9.58,24.97,220.3-56.74,220.3-56.74,0,0-34.13-161.11-64.13-178.95-29.99-17.83-157.4,54.21-157.4,54.21Z"/>
        <path class="cls-14" d="m252.67,181.42s-21.91,2.89-39.84,10.7c-17.93,7.82-34.88,57.72-34.29,76.4.56,17.78,4.3,38,24.26,79.89,3.99,8.37-7.12,84.26-5.56,123.63,1.39,35.22,72.66,47.5,115.53,42.65,84.89-9.6,101.03-54.18,99.77-58.31-9.82-32.28-39.06-121.48-39.06-121.48,0,0,13.94-43.06,16.24-61.17,1.95-15.36-19.21-80.31-34.79-90.13-15.58-9.82-102.27-2.19-102.27-2.19Z"/>
        <path class="cls-6" d="m324.62,45.06s1.17-11.45-8.65-17.23-22.82-8.97-39.16-3.1c-16.35,5.87-72.2,20.47-66.75,90.3,4.75,60.88,68.28,73.9,95.71,69.67,14.44-2.23,21.12-21.79,24.29-34.42,8.93-35.52,14.44-78.61,3.49-93.27-10.96-14.66-8.93-11.95-8.93-11.95Z"/>
        <rect class="cls-17" x="248.93" y="124.28" width="63.26" height="75.57" rx="7.28" ry="7.28" transform="translate(536.64 360.58) rotate(-172.23)"/>
        <g>
          <path class="cls-17" d="m235.28,103.33c-5.87,40.58,16.92,60.3,44.81,65.31,13.94,2.5,49.37-9.28,55.24-49.86,2.75-18.98,10.08-39.93,4.13-57.1-6.78-19.54-26.25-28.44-42.55-30.79-16.62-2.41-34.77,1.28-47.61,18.3-10.82,14.33-11.34,35.59-14.02,54.15Z"/>
          <path class="cls-17" d="m330.56,115.37c1.9-6.1,6.3-13.22,10.54-14.91,4.24-1.69,8.6.02,11.13,4.35,1.49,2.55,1.33,6.74.9,10.48-.48,4.19-2.52,8.1-4.89,10.95-4.15,4.99-16.19,8.99-20.44,6.5-4.25-2.49.53-8.98,2.42-16.16"/>
          <g>
            <ellipse cx="319.76" cy="106.16" rx="5.02" ry="4.41" transform="translate(132.31 386.12) rotate(-74.56)"/>
            <ellipse cx="273.08" cy="100.19" rx="5.02" ry="4.41" transform="translate(103.81 336.75) rotate(-74.56)"/>
            <path d="m327.49,106.33c-3.57-2.35-7.09-4.56-11.29-5.63-3.23-.97-7.13.51-10.27,1.67-.5.19-1.02.34-1.42.67-.09.07-.23,0-.23-.11.43-3.64,9.16-5.66,12.18-4.65,4.02,1.32,9.9,3.46,11.28,7.89.03.14-.14.25-.25.15h0Z"/>
            <path d="m255.72,95.93c1.17-2.16,3.37-3.22,5.55-3.98,4.42-1.74,9.59-.44,13.43,2.04,1.69,1.06,3.59,2.21,4.38,4.16.11.3.2.66.08,1.02-.04.11-.19.13-.26.04-.28-.41-.75-.66-1.21-.95-5.95-3.85-11.81-6.6-18.7-3.19-.98.39-1.97.79-3.11,1.08-.13.04-.25-.11-.18-.23h0Z"/>
            <path class="cls-28" d="m337.07,95.35c-3.3-.48-5.05-2.68-7.91-3.8-1.88-.88-3.82-1.71-5.84-2.18-6.52-1.53-13.27-1.28-19.72-3.48,0,0,.02-.44.02-.44,6.07-1.33,12.03-.5,18.11.16,4.75.49,9.32,2.4,12.96,5.46,1.23.95,2.39,2.09,2.69,3.98l-.32.31h0Z"/>
            <path class="cls-28" d="m252.36,83.2c1.82-2.39,5-2.88,7.69-3.82,5.54-1.73,11.63-1.72,17.36-1.04,2.86.32,5.72.98,8.27,2.62l-.11.43c-2.95.37-5.69.22-8.44,0-5.51-.36-10.85.12-16.25,1.32-2.85.43-5.63,1.87-8.56.93,0,0,.04-.44.04-.44h0Z"/>
          </g>
          <path class="cls-32" d="m348.94,110.06c-1.27.51-2.2.4-3.41.67-1.05.26-2.04.72-2.99,1.29-2.2,1.07-3.47,3.42-5.71,4.23-.1.03-.2-.02-.23-.12-.07-1.49.8-2.53,1.68-3.59.89-.96,1.84-1.91,3.02-2.6,2.03-1.2,6.06-2.51,7.76-.16.07.11,0,.24-.12.27h0Z"/>
          <path class="cls-32" d="m297.27,94.71c1.56,3.87,1.89,7.92,2.43,11.94.5,4.03.88,8.07,1.01,12.17.02,2.06.04,4.1-.3,6.27-.15,1.22-.79,2.74-2.06,3.29-4.54,2.01-11.59-.92-14.95-4.08-.11-.11.01-.31.16-.25,3.5,1.04,11.06,4.36,14.1,2.09.09-.08.12-.13.17-.26.68-2.16.5-4.63.48-7-.1-3.98-.44-8-.77-12.01-.31-4.02-.98-7.99-.56-12.13,0-.15.24-.19.29-.04h0Z"/>
        </g>
        <path class="cls-17" d="m242.16,97.83c-.63-6.36-3.5-14.22-7.31-16.73-3.81-2.51-8.43-1.72-11.78,2.01-1.97,2.2-5.12,7.86-5.46,11.6-.38,4.2,2.5,10.34,4.25,13.61,3.06,5.72,14.83,8.66,19.49,7.08,4.66-1.58,1.29-8.91.9-16.32"/>
        <path class="cls-6" d="m325.9,49.6s-22.62-11.02-30.07-13.07c-7.45-2.05-28.68,15.77-52.43,50.76-5.67,19.32-7.92-4.94-7.92-4.94,0,0-10.52-11.84,10.81-34.29,10.3-10.84,17.22-21.52,32.57-22.33,11.65-.61,34.37-8.96,47.05,23.87Z"/>
        <path class="cls-32" d="m233.41,98.26c-1.51-.49-2.15-1.5-3.08-2.32-.91-.81-1.85-1.58-2.84-2.21-.99-.63-2.02-1.16-3.1-1.52-1.26-.33-2.26-.3-3.55-.91-.12-.04-.16-.2-.07-.29,2.26-2.09,5.77-.64,8.04.69,1.18.76,2.19,1.71,3.08,2.73.86,1.03,1.87,2.01,1.78,3.67,0,.12-.14.2-.25.16h0Z"/>
        <path class="cls-16" d="m303.61,138.86c-2.27-.67-.6-2.26-13.22-4.16-12.62-1.9-18.12-2.84-20.29-.23s3.2,12.48,15.74,13.65c12.54,1.17,16.5-3.99,17.46-5.67.96-1.68.31-3.59.31-3.59Z"/>
        <path class="cls-34" d="m307.16,144.27c-3.85,0-7.35-1.15-11.03-1.75l-10.96-2c-3.66-.61-7.32-1.23-11-1.7-3.68-.46-7.35-.92-11.04-1.74-.08-.02-.14-.1-.12-.18,3.66-.89,7.67-.41,11.39-.12,7.46.74,14.88,1.87,22.19,3.52,3.63.97,7.53,1.45,10.67,3.69.11.08.05.29-.1.28h0Z"/>
        <path class="cls-25" d="m228.82,108.99c.64,1.08.25,1.75.12,2.52-.25,1.27-.67,3.16-.88,4.4-.07.94-.11,1.31-.53,2.24-.04.09-.14.14-.23.12-.55-.12-.96-.57-1.17-1.06-.55-2.13-.05-4.36.74-6.33.34-.75.46-1.6,1.68-2,.11-.04.22.01.27.11h0Z"/>
        <path class="cls-17" d="m231.8,188.84s19.55,12.92,29.83,27.02c10.28,14.1,26.12,39.01,26.12,39.01,0,0,36.59-47.55,35.11-73.43-1.09-19.05-89.98-2.26-91.06,7.4Z"/>
        <path class="cls-6" d="m294.64,34.42s32.1-1.95,42.69,15.99c6.68,11.31,10.9,19.39,4.27,32.51-6.63,13.12-11.86,30.63-9.31,23.04,2.55-7.59,1.25-11.8,1.79-20.2,1.1-17.07-3.73-27.6-12.45-34.6-9.82-7.88-28.73-14.56-28.73-14.56l1.75-2.18Z"/>
        <polygon class="cls-6" points="196.54 434.55 224.75 978.31 303.34 966.47 320.01 728.54 319.41 433.15 196.54 434.55"/>
        <polyline class="cls-6" points="410.71 455.29 499.68 762.66 561.24 954.35 474.67 950.06 407.94 771.09 298.75 519.98 367.18 463.84"/>
        <path class="cls-14" d="m209.89,342.78s-16.44,80.93-16.48,114.5c-.06,50.66-2.41,117.8-2.41,117.8l130.4-11.78,2.87-45.08,10.62,46.52s96.94-18.11,104.17-29.59c2.32-3.69-17.48-51.72-26.81-78.88-4.33-12.62-12.14-50.38-23.66-57.11-35.62-20.82-123.36-72.52-178.71-56.37Z"/>
        <path class="cls-14" d="m231.8,188.84s-36.2-5.14-69.6,26.76c-33.4,31.9-85.25,141.45-92.26,165.85-20.25,70.5,86.89,30.32,86.89,30.32,0,0,50-128.69,60.35-155.02,10.34-26.33,14.62-67.91,14.62-67.91Z"/>
      </g>
      <path class="cls-38" d="m294.46,257.49c6.16,37.71,12.28,92.83,17.35,131.28,4.52,38.68,11.92,93.26,15.26,131.54,0,0-.29.04-.29.04-6.09-37.72-12.3-92.83-17.35-131.28-4.18-38.53-12.63-93.93-14.96-131.58h0Z"/>
      <path class="cls-38" d="m389.59,273.71c-2.65-8.73-7.74-21.2-10.97-29.89-1.87-4.99-3.77-9.98-5.57-15.01-1.78-5.03-3.77-10.03-4.42-15.44,0,0,.28-.08.28-.08,3.94,8.17,8.5,21.16,11.96,29.68,3.15,8.8,6.91,17.48,8.88,26.65.19,1.34.44,2.72.13,4.13,0,0-.29-.04-.29-.04h0Z"/>
      <path class="cls-38" d="m186.9,311c-3.53-6.45-5.22-13.61-6.92-20.69-1.58-7.13-2.42-14.44-2.57-21.74,1.41-7.18,2.15-14.64,5.14-21.39,0,0,.28.1.28.1l-.63,5.38c-.67,5-1.85,11.69-2.5,15.84.41,10.78,2.16,21.44,5.02,31.83.95,3.47,1.9,6.94,2.46,10.58,0,0-.28.1-.28.1h0Z"/>
      <ellipse class="cls-27" cx="281.78" cy="269.29" rx="5.03" ry="3.95" transform="translate(-20.21 515.72) rotate(-82.92)"/>
      <ellipse class="cls-27" cx="289.97" cy="316.12" rx="3.95" ry="5.03" transform="translate(-83.65 105.36) rotate(-18.04)"/>
      <ellipse class="cls-27" cx="294.16" cy="361.72" rx="3.95" ry="5.03" transform="translate(-13.5 11.41) rotate(-2.17)"/>
      <ellipse class="cls-27" cx="299.8" cy="407.39" rx="3.95" ry="5.03" transform="translate(-15.22 11.65) rotate(-2.17)"/>
      <ellipse class="cls-27" cx="309.3" cy="461.55" rx="3.95" ry="5.03" transform="translate(-17.27 12.05) rotate(-2.17)"/>
      <path class="cls-38" d="m222.96,192.66c15.74,20.26,32.47,43.1,47.68,63.87,4.4,38.77,10.72,92.68,14.97,130.86,4.13,37.48,10.56,93.6,14.5,130.64,0,0,0,.06,0,.06,0,0,0,.05,0,.05,0,0-.18,11.79-.18,11.79-.23,10.95-.54,24.42-.94,35.37,0,0-.29,0-.29,0-.22-11.02-.32-24.37-.38-35.38,0,0,0-11.79,0-11.79v.11c-4.4-36.79-10.75-93.26-15.07-130.58-4.1-36.96-10.87-94.68-14.45-130.14-13.04-17.85-27.87-38.44-40.45-56.52,0,0-5.64-8.17-5.64-8.17l.24-.17h0Z"/>
      <path class="cls-38" d="m193.6,280.6c14.43-1.88,29.23-3.28,43.77-4.45,0,0,1.02-.09,1.02-.09,0,0,.1,1.03.1,1.03l3.05,30.77c.24,2.52.91,9.12,1.14,11.57.05,4.2-1.41,7.88-2.58,11.75-.92,2.77-1.93,5.51-3,8.24-11.16-2.27-25.75-5.7-34.05-13.9-3.56-3.94-4.77-9.46-6.06-14.41-2.15-9.57-3.13-19.36-3.43-29.14,0,0-.01-.64-.01-.64v-.32s0-.16,0-.16v-.09c0-.06.01-.13.03-.17h0Zm.22.19s.04,0,.05-.02c0,0,0,.05,0,.07,0,0,.02.16.02.16.02.17.11.76.13.95,1.32,9.57,2.68,19.33,4.93,28.71,2.98,12.77,6.14,16.01,18.26,20.95,6.22,2.41,12.8,4.13,19.36,5.34l-1.28.73c2.01-5.81,4.67-11.95,5.04-18.03-.72-7.84-3.16-34.09-3.92-42.35,0,0,1.13.95,1.13.95-14.51,1.17-29.11,2.06-43.71,2.55h0Z"/>
    </g>
    <path class="cls-6" d="m307.3,26.71c1.42.19,30.55,1.27,43.95,30.67,8.53,18.71,9,51.06,4.23,75.32-4.25,21.65,8.76,40.38,7.5,61.98-1.25,21.6.04,1.46-1.94,14.25-1.99,12.79,9.38,53.53-4.71,77-9.73,16.22-57.58,32.41-65.97,52.68-2.5,6.04-6.11-14.27-5.27-17.23,1.39-4.89.83-10.05.83-10.05,0,0-.48,4.83-2.71,5.25-2.23.42-9.19-5.79-10.07-16.61-1.75-21.51,4.31-39.44,8.88-56.96,4.57-17.52,2.17-18.73,9.4-45.04,5.77-20.98,24.45-42.24,28.15-52.03,12.5-33.12,24.49-67.77,9.63-86.49-14.86-18.72-26.16-20.99-26.16-20.99l4.27-11.75Z"/>
    <g>
      <path class="cls-15" d="m141.02,438.81l-40.79-72.78-13.39-102.68s35.26-29.52,87.61-36.27c45.38-5.85,97.81,11.27,97.81,11.27l8.94,121.33-4.09,12.26s4.5,49.32.57,53.8c-16.18,18.42-50.28,32.78-69.13,34.08-19.38,1.34-67.53-21.02-67.53-21.02Z"/>
      <g>
        <g>
          <path class="cls-9" d="m243.63,331.8s-3.59-89.84-3.02-92.13c.57-2.3,3.12-4.64,4.23,2.33,1.11,6.97,4.3,88.11,3.73,90.41-.57,2.3-3.61,3.14-4.94-.61Z"/>
          <path class="cls-19" d="m242.72,309.67s-3.96-69.39-2.27-76.28c1.7-6.89,3-10.63,4.22-5.66s3.83,81.04,3.39,81.92c-1.87,3.72-4.45,1.24-5.34.02Z"/>
          <path class="cls-13" d="m241.44,284.35c.14-.57-5.7-68.91-.31-94.58,4.51-3.76,7.62.46,7.62.46,0,0-4.27,25.81-1.38,88.31.33,2.82-3.97,10.78-5.92,5.81Z"/>
          <line class="cls-2" x1="245.25" y1="332.13" x2="243.78" y2="336.94"/>
          <line class="cls-2" x1="249.18" y1="337.97" x2="247.43" y2="333.58"/>
          <line class="cls-2" x1="247.12" y1="337.15" x2="245.37" y2="332.77"/>
          <line class="cls-2" x1="251.65" y1="333.7" x2="247.8" y2="330.93"/>
        </g>
        <g>
          <path class="cls-9" d="m232.76,322.39s13.5-88.89,14.49-91.04c.99-2.15,3.94-3.96,3.71,3.09s-12.47,87.33-13.46,89.48-4.14,2.4-4.74-1.53Z"/>
          <path class="cls-19" d="m236.06,300.49s9.25-68.88,12.22-75.32c2.97-6.44,4.95-9.87,5.22-4.75s-11.59,80.3-12.19,81.07c-2.54,3.3-4.6.38-5.25-1Z"/>
          <path class="cls-13" d="m239.59,275.38c.25-.54,7.46-68.75,17.61-92.92,5.14-2.84,7.39,1.89,7.39,1.89,0,0-9.08,24.54-18.09,86.45-.21,2.83-5.94,9.83-6.91,4.58Z"/>
          <line class="cls-2" x1="234.29" y1="323.02" x2="231.93" y2="327.47"/>
          <line class="cls-2" x1="237.04" y1="329.5" x2="236.16" y2="324.86"/>
          <line class="cls-2" x1="235.17" y1="328.31" x2="234.29" y2="323.67"/>
          <line class="cls-2" x1="240.27" y1="325.78" x2="237.02" y2="322.33"/>
        </g>
      </g>
      <g>
        <path class="cls-13" d="m227.45,236.91c-2.53-.17-5.69-13.61-3.03-15.75,2.66-2.15,4.35-2.07,5.24-.83s4.19,10.74,3.11,12.29.8,4.71-5.32,4.29Z"/>
        <path class="cls-12" d="m240.13,286.34c-.86.28-3.86,5.03-9.04,4.05-5.52-1.04-12.51-5.05-18.83-16.81-12.25-22.8-9.19-31.8-6.82-36.45,3.19-6.29,17.61-9.92,23.1-4.52.62,1.4,3.58-7.97,13.54-7.42,8.7-1.56,16.51,3.85,18.51,14.29,2.2,11.49,11.68,31.61-7.37,44.29-3.2,2.13-8.1.94-13.08,2.57Z"/>
        <path class="cls-37" d="m238.2,277.8c-.08,1.78-1.28,2.81-2.34,3.87-2.21,2.16-5.28,3.7-8.47,3.48-1.6-.04-3.25-.57-4.18-1.99l.13-.26c.79-.16,1.43-.02,2.18-.02,3.26.58,6.37-.89,8.93-2.86,1.17-.89,1.99-1.91,3.51-2.39,0,0,.24.17.24.17h0Z"/>
        <path class="cls-37" d="m237.52,277.59c1.37.02,1.96.7,2.79,1.14,1.86,1.04,3.98,1.81,6,.97.45-.06.86-.24,1.57-.18l.2.21c-.18,1.34-1.29,2.07-2.46,2.38-2.3.71-4.77-.16-6.53-1.59-.83-.68-1.8-1.3-1.8-2.74l.22-.2h0Z"/>
      </g>
      <g>
        <g>
          <polygon class="cls-13" points="203.93 204.63 206.39 176.8 208.89 176.61 205.87 205.23 203.93 204.63"/>
          <polygon class="cls-13" points="205.43 206.87 209.37 179.21 211.88 179.15 207.33 207.57 205.43 206.87"/>
          <polygon class="cls-13" points="207.21 204.51 214.05 175.8 216.7 175.99 209.14 205.43 207.21 204.51"/>
          <polygon class="cls-13" points="206.32 208.17 216.23 182.05 218.69 182.54 208.03 209.27 206.32 208.17"/>
        </g>
        <path class="cls-23" d="m185.6,245.99c.5-1.82.9-3.66,1.19-5.53,1.02-6.64,4.08-24.2,9.15-34.01,1.52-2.94,11.73-9.46,19.29-.32,3.5,5.62-5.09,24.7-5.09,24.7,0,0-25.8,76.2-26.79,78-5.78,10.46-9.51,6.77-11.2-.06-1.48-5.96,9.98-50.17,13.46-62.77Z"/>
        <path class="cls-11" d="m192.09,262.58c.86-.65,1.15-.3,1.57-.18.41.14.8.32,1.17.53.37.21.71.47,1.04.75.33.28.73.43.65,1.44l-.15.25c-.82.58-1.16.31-1.57.17-.41-.15-.81-.31-1.18-.52-.37-.21-.72-.46-1.05-.74-.32-.3-.77-.38-.65-1.45l.15-.25h0Z"/>
        <path class="cls-11" d="m187.5,254.95c.9-.7,1.36-.34,1.93-.22.55.14,1.09.32,1.62.53.52.22,1.02.49,1.52.77.49.29,1.04.44,1.22,1.5l-.11.27c-.87.63-1.37.35-1.92.21-.55-.15-1.1-.31-1.62-.52-.52-.22-1.03-.47-1.52-.76-.48-.31-1.07-.38-1.21-1.51l.11-.27h0Z"/>
        <path class="cls-11" d="m202.93,212.19c.68-.85,1.08-.59,1.55-.59.46.03.92.1,1.36.2.44.11.87.27,1.3.45.43.19.89.23,1.11,1.22l-.07.29c-.66.78-1.09.61-1.55.58-.46-.03-.92-.09-1.36-.19-.44-.11-.88-.26-1.3-.44-.42-.21-.9-.16-1.11-1.23l.07-.29h0Z"/>
        <path class="cls-11" d="m207.74,216.86c.74-.79,1.11-.5,1.56-.46.45.07.88.17,1.3.31.42.14.82.34,1.21.55.39.22.84.3.96,1.3l-.09.28c-.71.72-1.11.52-1.56.45-.44-.07-.88-.16-1.3-.3-.42-.14-.82-.33-1.22-.54-.39-.24-.86-.24-.96-1.31l.09-.28h0Z"/>
        <path class="cls-11" d="m175.21,301.89c-.17-1,.12-.96.31-1.15.19-.17.4-.31.63-.41.23-.1.48-.14.73-.17.26-.03.46-.19,1.05.55l.12.27c.14.94-.12.97-.31,1.14-.39.35-.83.56-1.36.6-.27,0-.43.25-1.05-.56l-.12-.27h0Z"/>
        <path class="cls-11" d="m180.56,305.3c-.13,1.02-.45.92-.73,1.07-.28.13-.57.22-.87.27-.3.05-.6.04-.91.02-.31-.03-.59.09-1.04-.76l-.05-.29c.14-.95.45-.93.73-1.06.28-.13.57-.23.87-.28.3-.05.6-.06.91-.03.31.05.58-.15,1.04.77l.05.29h0Z"/>
      </g>
      <g>
        <g>
          <polygon class="cls-13" points="186.1 182.53 192.25 155.25 189.67 154.19 183.86 182.41 186.1 182.53"/>
          <polygon class="cls-13" points="183.81 184.12 188.34 156.49 185.72 155.56 181.58 184.12 183.81 184.12"/>
          <polygon class="cls-13" points="182.68 181.26 184.48 151.62 181.63 150.87 180.34 181.46 182.68 181.26"/>
          <polygon class="cls-13" points="182.46 185.05 180.22 156.79 177.47 156.4 180.31 185.5 182.46 185.05"/>
        </g>
        <path class="cls-23" d="m192.43,228.18c.04-1.9.2-3.79.49-5.66,1.01-6.66,3.3-24.4,1.04-35.48-.68-3.32-9.4-13.07-20.25-7.04-5.46,4.11-2.39,25.23-2.39,25.23,0,0,3.26,81.35,3.75,83.4,2.81,11.95,7.9,9.75,11.84,3.85,3.43-5.14,5.24-51.11,5.53-64.29Z"/>
        <path class="cls-11" d="m180.43,241.96c-.3,1.05-.79.97-1.23,1.14-.44.15-.89.27-1.35.34-.46.07-.92.09-1.39.08-.47,0-.92.13-1.51-.7l-.05-.29c.32-.97.78-.98,1.23-1.13.45-.15.89-.28,1.35-.35.46-.07.92-.1,1.39-.09.47.03.91-.19,1.52.71l.05.29h0Z"/>
        <path class="cls-11" d="m187.63,236.32c-.58,1.01-1.21.88-1.82,1-.62.1-1.23.17-1.85.19-.62.02-1.24-.01-1.86-.07-.62-.06-1.24.03-1.89-.86v-.29c.58-.94,1.2-.89,1.81-.99.62-.1,1.23-.18,1.85-.2.62-.02,1.24,0,1.86.06.62.08,1.24-.1,1.89.87v.29h.01Z"/>
        <path class="cls-11" d="m184.76,190.34c-.61.93-1.09.72-1.6.77-.51.03-1.02.02-1.52-.03-.5-.05-1-.16-1.49-.29-.49-.13-1-.12-1.41-1.08l.03-.29c.6-.86,1.09-.74,1.6-.76.51-.02,1.02-.03,1.52.02.5.05,1,.15,1.49.28.49.16,1.01.05,1.41,1.09l-.03.29h0Z"/>
        <path class="cls-11" d="m178.24,193.1c-.51.98-.99.81-1.48.9-.49.07-.98.1-1.46.09-.49-.01-.97-.08-1.46-.17-.49-.09-.97-.03-1.44-.96v-.29c.51-.9,1-.82,1.49-.89.49-.07.98-.11,1.46-.1.49.01.97.07,1.46.16.48.11.98-.03,1.44.97v.29h0Z"/>
        <path class="cls-11" d="m185.62,285.11c-.84.59-.95.29-1.22.2-.26-.11-.5-.25-.7-.42-.21-.17-.38-.39-.54-.62-.16-.23-.41-.35-.03-1.23l.19-.23c.79-.53.96-.3,1.22-.19.26.11.5.24.71.42.21.17.39.38.54.61.14.25.45.31.03,1.24l-.19.23h0Z"/>
        <path class="cls-11" d="m179.24,285.99c.74-.73.97-.44,1.31-.38.33.08.65.19.95.34.3.15.57.35.83.57.26.22.59.31.47,1.28l-.13.26c-.71.66-.98.45-1.31.37-.33-.08-.65-.18-.95-.33-.3-.15-.57-.34-.83-.56-.25-.24-.62-.25-.47-1.29l.13-.26h0Z"/>
      </g>
      <g>
        <path class="cls-35" d="m179.16,312.22s6.73,6.17,10.03.34c3.3-5.84,7.79-11.9,7.79-11.9,0,0-3.58-9.43-7.55-3.21-3.97,6.21-3.45,6.36-5.68,6.3s-3.33,1.89-4.06,4.5-.54,3.98-.54,3.98Z"/>
        <path class="cls-35" d="m115.35,269.07s-35.96-13.7-56.85-19.48c-20.9-5.78-29.7-25.46-20.73-33.48,12.53-11.2,31.35-26.57,47.06-23.73,15.71,2.85,63.53-37.17,97.97,9.11,34.44,46.27,2.31,62.13,1.24,76.83s14.86,43.86-4.88,33.9c-19.74-9.96-63.8-43.15-63.8-43.15Z"/>
        <path class="cls-4" d="m158.54,281.02c-.44-1.12-27.91-52.72-58.18-67.09"/>
        <path class="cls-21" d="m173.33,363.1s-32.65-69.02-39.12-83.56c-4.49-10.08,6.14-14.05,7.41-15.95s-6.84-21.01,3.99-9.9c17.32,17.79,62.6,124.3,59.28,130.88-3.32,6.58-14.17,8.44-21.12,3.16-3.1-2.36-10.43-24.63-10.43-24.63Z"/>
        <path class="cls-4" d="m192.02,401.27s-76.45-154.63-71.49-178.01"/>
        <path class="cls-4" d="m184.16,399.84s-38.14-144.03-132.5-185.14"/>
        <path class="cls-4" d="m197.62,394.57c-60.34-139.68-60.68-168.27-60.68-168.27"/>
        <path class="cls-4" d="m204.42,388.95s-25.84-109.89-43.2-131.18c-17.35-21.3-52.15-39.18-52.15-39.18"/>
        <path class="cls-4" d="m179.46,384.3s-35.66-60.86-46.37-95.32"/>
        <path class="cls-4" d="m201.37,391.86s-43.46-127.51-88.83-150.56"/>
        <path class="cls-35" d="m60.34,215.86c-3.24.86-14.7,17.88-15.88,14.04-1.19-3.84,7.79-11.89,7.79-11.89,0,0-25.43,7.89-25.47,2.61s11.27-10.93,17.54-9.19l16.02,4.43Z"/>
        <path class="cls-35" d="m51.98,215.55s-14.31-7.9-15.88-13.77c-1.56-5.87,11.17,3.65,11.17,3.65,0,0-.19-4.74,4-2.27s8,15.15,5.33,14.6c-2.66-.55-4.64-2.22-4.64-2.22Z"/>
        <path class="cls-35" d="m70.56,219.56c.04-1.49-.77-14.84.89-18.13,1.66-3.29,4.16,5.28,4.16,5.28,0,0-.63-9.92,2.56-7.91s.56,12.9-.18,14.2,4.41-1.03,2.85,1.91c-1.56,2.94-9.41,8.27-10.86,6.74-1.45-1.53.58-2.09.58-2.09Z"/>
        <path class="cls-35" d="m70.21,237.09c-3.21,2.11-3.75,2.71-6.28,2.39s-.37-2.73-.37-2.73c0,0-3.52.53-5.92-1.64s-1.01-1.78.33-2.53,4.51-1.38,5.65-1.44-4.24-2.3-.68-4.31c3.56-2.02,9.79,1.21,10.55,2.54s-3.26,7.72-3.26,7.72Z"/>
        <path class="cls-35" d="m110.78,244.94c-1.75,1.51-13.17,4.23-14.84.77s2.01-3.19,2.01-3.19c0,0-7.16-1.23-8.67-3.9s1.89-5.48,6.42-4.22c4.53,1.25-2.02-3.56,4-2.27,6.02,1.29,14.04,10.26,11.08,12.81Z"/>
        <path class="cls-35" d="m53.76,246.41s-11.29,2.87-14.87,2.26-1.01-1.78.87-3.13-7.82-2.91-6.95-6.05,9.14-4.59,14.08-2.1,8.69,6.53,6.88,9.03Z"/>
        <path class="cls-35" d="m70.32,250.24c-1.14.06-15.06,9.71-17.28,10.97-2.22,1.26-2.23-5.49,1.96-8.46s-4.24-2.3.4-5.51,14.92,3,14.92,3Z"/>
        <path class="cls-35" d="m115.04,225.49c-4.97-1-7.1-.09-9.75-2.7l-2.65-2.61s-1.09-5.55,2.33-5.73,7.12,2.72,8.07,3.36,4.02-6.39,5.26-.04c1.24,6.34-3.26,7.72-3.26,7.72Z"/>
        <path class="cls-35" d="m152.34,287.18c.4-1.44-9.46-3.74-10.14-1.3-.67,2.44,3.25,3.15,3.25,3.15,0,0-5.68,2.93-2.01,3.19s8.12-2.25,8.89-5.04Z"/>
        <path class="cls-35" d="m156.41,275.18c.86-1.27,1.54-5.57,5.84-2.13,4.3,3.44-1.36,9-3.97,11.65-2.61,2.65-4.42-5.72-1.87-9.52Z"/>
        <path class="cls-35" d="m142.56,275.1s-4.42-5.72-7.78-4.4l-3.36,1.32s.41,1.24.08,3.77-1.29,6.02,2.83,6.03,10.46-1.23,11.51-.94-.24-4.56-3.28-5.78Z"/>
        <path class="cls-35" d="m139.44,270.11c-.73-4.79-5.18-13.81-2.76-15.76s5.57,1.54,5.34,3.73,4.37.46,4.51,5.37c.14,4.91-5.36,18.01-7.09,6.66Z"/>
        <path class="cls-35" d="m115.04,225.49s-.52,0-1.39,0c-4.02,0-15.39-.18-16.35-2.29-1.16-2.57,3.32-6.58,5.85-6.25s-4.79-8.45-1.01-8.53,8.24.03,9.06,2.51,8.11,1.87,7.11,6.84c-1,4.97-3.26,7.72-3.26,7.72Z"/>
        <path class="cls-30" d="m186.46,389.61c-5.95-12.89-12.1-26.61-18.37-39.35-6.19-13.15-13.36-25.73-20-38.64-.08-.14.14-.3.24-.16,4.77,5.58,8.33,12,11.86,18.36,7.03,12.76,13.37,25.87,19.21,39.21,2.74,6.5,5.91,12.94,7.31,19.89,0,0,.04.35.04.35,0,.13,0,.29-.02.42,0,.07-.07.12-.14.12-.1,0-.12-.12-.14-.19h0Z"/>
        <path class="cls-30" d="m197.14,390.36c-3.89-8.78-9.06-22.49-12.5-31.59-11.25-29.03-22.27-58.2-35.24-86.52-1.1-2.62-2.45-5.09-3.67-7.67-.08-.15.16-.3.25-.15,1.6,2.34,3.27,4.7,4.59,7.21,4.16,7.34,7.65,15.37,11.02,23.07,9.03,20.83,17.2,42,25.07,63.29,3.87,10.68,8.02,21.19,10.77,32.34.05.15-.2.24-.26.09,0,0-.03-.07-.03-.07h0Z"/>
        <path class="cls-30" d="m202.44,388.87c-6.45-14.28-13.49-35.94-19.2-50.78-5.8-15.9-11.85-31.74-18.44-47.33-.49-1.01-1-2.02-1.48-3.06-.03-.07,0-.16.07-.19.06-.03.14,0,.18.04,1.38,1.8,2.65,3.74,3.72,5.75,2.22,3.98,4.03,8.14,5.8,12.33,4.41,10.44,8.46,21.02,12.41,31.63,3.12,8.5,6.18,17.02,9.13,25.58,2.93,8.56,6.07,17.06,8.09,25.94.04.16-.21.25-.28.1h0Z"/>
        <path class="cls-30" d="m188.42,385.36c-6.33-13.73-13.22-34.53-18.75-48.83,0,0-8.96-24.56-8.96-24.56-2.49-7.23-6.82-17.65-8.4-24.92,4.39,7.49,7.17,16.09,10.41,24.17,3.14,8.14,6.18,16.31,9.22,24.48,2.99,8.19,5.97,16.38,8.86,24.61,2.87,8.23,5.99,16.38,7.91,24.95.04.16-.21.25-.28.09h0Z"/>
        <path class="cls-30" d="m139.93,283.64c3.13,3.91,5.32,8.3,7.79,12.56l7.37,12.76c2.44,4.26,4.95,8.49,7.45,12.71,2.5,4.23,5.21,8.31,7.15,12.93.03.08,0,.16-.08.2-3.64-3.35-6.18-7.89-8.9-12-2.66-4.15-5.21-8.37-7.71-12.63-2.46-4.27-4.88-8.57-7.18-12.93-2.29-4.37-4.77-8.64-6.15-13.47-.05-.15.17-.27.26-.13h0Z"/>
        <path class="cls-30" d="m144.99,271.68c1.42.69,1.8,1.88,2.41,2.96.59,1.09,1.14,2.2,1.64,3.33.5,1.13.95,2.29,1.36,3.47.36,1.2,1.04,2.29.34,3.94-.02.05-.09.07-.14.04-1.97-1.62-2.57-4.28-3.76-6.46-.5-1.12-.97-2.25-1.41-3.4-.42-1.16-1.08-2.21-.71-3.74.03-.12.16-.18.27-.13h0Z"/>
        <path class="cls-3" d="m59.81,232.21s13.13-1.37,27.32,6.06"/>
        <path class="cls-3" d="m78.2,230.8s-14.61-14.04-8.01-35.21"/>
        <path class="cls-3" d="m112.39,259s-.13-11.28-6.72-16.36"/>
        <path class="cls-3" d="m124.93,238.98c.32-1.16,2.29-7.37,6.79-26.37"/>
        <path class="cls-3" d="m148.88,206.61c-4.81,14.67,3.94,43.58,4.44,44.47"/>
        <path class="cls-3" d="m178.07,280.92c-.65-2.18-12.05-32.33.23-63.18"/>
        <path class="cls-3" d="m169.9,254.42c-1.06-4.29-8.71-28.16-8.91-36.46"/>
        <path class="cls-35" d="m171.79,298.19s-9.94-48.99,9.01-61.5"/>
        <path class="cls-35" d="m66.61,245.59c5.05-1.1,13.68-2.46,20.2,1.09"/>
        <path class="cls-3" d="m120.39,238.22s-10.58-6.93-14.12-14.91"/>
        <path class="cls-3" d="m133.52,257.6c-.09-3.28-2.26-12.62-5.89-19.38"/>
        <path class="cls-3" d="m115.49,265.86s-16.02-16.18-43.83-16.87"/>
        <path class="cls-35" d="m119.21,270.7c-2,1.13-17.7,2.98-18.54-.07s3.1-3.08,3.1-3.08c0,0-4.41-2.35-2.36-5.71,2.06-3.37,4.06-4.5,4.06-4.5,0,0,5.89,1.07,6.5,2.92.61,1.86,1.73-6.27,5.42-1.31,3.69,4.96,1.81,11.75,1.81,11.75Z"/>
        <path class="cls-35" d="m101.2,256.53s-8.45,4.79-14,5.88c-5.55,1.09-7.91-2.56-7.91-2.56,0,0-8.14-.38-8.13-4.5s8.12-2.25,10.91-1.48c2.79.77,19.13,2.67,19.13,2.67Z"/>
        <path class="cls-35" d="m86.11,250.98s-10.6-1.43-11.3-6.13c-.7-4.69,7.75.89,7.75.89,0,0-1.52-7.17,1.84-5.74s7.67,6.62,7.28,8.01-5.57,2.96-5.57,2.96Z"/>
        <path class="cls-35" d="m72.18,211.89s8.25-7.22,12.91-6.93c4.67.29-1.05,4.71-2.41,5.08s12.81-.21,3.14,3.12c-9.67,3.32-13.64,3.23-14.03,4.62s.38-5.89.38-5.89Z"/>
        <path class="cls-35" d="m67.35,204.05c-1.3-.73-5.25-10.83-2.04-12.94,3.21-2.11,5.11-.84,5.11-.84,0,0,5.47-4.86,7.71-3.49s-6.67,21.4-11.26,19.01"/>
        <path class="cls-35" d="m71.51,234.2l-2.25,2-5.04,4.48.24-2.68s-1.8,2-4.93.64-1.11-2.31,1.66-3.29c2.77-.98-.27-.83,1.36-3.12,1.64-2.3,9.67,1.18,9.67,1.18,0,0-5.33.28-7.18-.24s-3.85,2.18-9.21-1.05,1.27-1.9,1.27-1.9c0,0-5.72-7.33-2.87-6.79s7.07,2.46,7.07,2.46c0,0,.4-4.14,2.94-.69,2.54,3.45,9.78,6.21,9.1,7.77"/>
        <path class="cls-35" d="m162.79,302.7c-.77-.92-9.44-12.86-6.77-14.37s5.98-.84,5.98-.84c0,0,5.73-7.16,6.13.45.39,7.61-2.33,18.35-5.34,14.77Z"/>
        <path class="cls-35" d="m163.81,266.48c-1.75,3.47-11.47,5.33-13.29,1.07-1.82-4.25,1.45-4.35.82-4.77s-12.6-3.24-10.07-8.78c2.53-5.55,11.09.57,11.09.57,0,0-3.45-9.2,1.93-2.47,5.38,6.74,11.73,10,9.52,14.38Z"/>
        <path class="cls-35" d="m148.17,223.66s-6.12-7.69-7.95-9.2-.89-4,.33-3.91,2.55.71,2.55.71c0,0,3.08.6,1.65-.54s-2.59-1.47-3.95-5.59,3.39-2.31,5.07.65,2.72,8.25,2.72,8.25l-.42,9.63Z"/>
        <path class="cls-35" d="m145.95,216.3c.18-2.45.37-14.9,6.19-16.04,5.81-1.14,2.12,4.09,2.12,4.09,0,0,3.45-2.54,5.39-.51s-3.76,5.46-4.38,6.79,1.99.05,1.22,2.84c-.77,2.79-6.09,7.56-7.78,7.35s-2.75-4.51-2.75-4.51Z"/>
        <path class="cls-35" d="m128.45,236.2s-6.64,1.41-8.45-1.09,1.51-1.83,1.51-1.83c0,0-1.81-2.5-.82-2.48s2.93,2.06,2.85.54c-.08-1.52-1.71-6.47,1.1-6.69,2.81-.22,2.58-.29,3.25.9s2.53,1.7,2.25,3.62-.58-2.41,2.59,1.47c3.18,3.88,3.38,4.94,1.57,5.18s-1.06.21-3.51.03l-2.45-.18.1.53Z"/>
        <path class="cls-35" d="m126.65,242.7s.39,3.11-3.84-.56c-4.23-3.67,6.89-6.84,7.81-3.84.92,3-1.31,5.64-3.97,4.4Z"/>
        <path class="cls-35" d="m114.48,243.33s-2.47,5.32-7,1.81c-4.53-3.5-4.57-4.26-2.94-3.81s4.28,1.68,1.25-.9c-3.03-2.59-7.12-4.97-6.21-6.47.91-1.5,4.56-.24,5.66.32s.94-2.49,3.26-1.85,5.36,3.23,5.36,3.23c0,0,2.44-1.58,2.4,2.16-.03,3.74-1.77,5.51-1.77,5.51Z"/>
        <path class="cls-35" d="m121.79,224.11c-1.46-.15.07,4.27-3.31-.67-3.38-4.94-3.95-5.59-3.7-6.52s3.16-2.38,3.16-2.38c0,0-2.14-3.09,1.89-3.23,4.04-.13,3.38,4.94,3.38,4.94,0,0,5.64-5.94,4.23-.83s-5.65,8.68-5.65,8.68Z"/>
        <path class="cls-35" d="m147.58,228.49c-.78-1.71-4.97-4.62-5.32-6.97-.35-2.35,3.91.33,3.91.33,0,0,3.71,3.77,3.42,5.7-.28,1.92-2.01.94-2.01.94Z"/>
        <path class="cls-35" d="m136.54,230.44c-2.27-3.06-3.42-5.7-2.88-8.55s1.36-3.12,1.36-3.12c0,0-.74-5.45,1.8-6.5s3.91,4.83,3.53,6.23-.71,2.55.78,6.22c1.49,3.66-2.94,7.93-4.59,5.73Z"/>
        <path class="cls-35" d="m175.83,227.56c-.56-3.4-1.88-11.27-.77-13.46s2.75.01,2.75.01c0,0,4.67-6.96,5.62-4.94.94,2.01-2.07,10.18-2.68,11.51s-4.23,8.08-4.23,8.08l-.67-1.19Z"/>
        <path class="cls-35" d="m129.81,256.57c-.3.7-4.96,4.38-9.35,2.16-4.39-2.21-7.12-4.97-3.62-5,3.51-.03,7.58.6,6.95.17s-7.82-5.16-3.85-5.06c3.97.1,11.22,4.61,9.86,7.73Z"/>
        <path class="cls-35" d="m132.36,186.6c-1.57-.43-16.05-5-18.61-7.96s6.96-4.82,6.96-4.82c0,0,2.15-1.66,3.95-.03s-.67.38,4.47.11,5.29,9.34,4.86,10.9l-.43,1.57-1.19.23Z"/>
        <path class="cls-35" d="m108.14,192.84c-1.57-.43-3.77,3.46-10.45-2.89-6.68-6.35-8.86-8.64-8.86-8.64l9.32.89s3.54-4.65,5.14-.27c1.6,4.38,4.86,10.9,4.86,10.9Z"/>
        <path class="cls-35" d="m92.96,194.83c-.43,1.57-7.69-2.69-6.97-5.3.72-2.61,4.09-.56,5.95-1.17s10.09-3.96,11.03.8c.93,4.76-9.86,5.15-10,5.67Z"/>
        <path class="cls-35" d="m108.97,185.76s-1.31-5.42,1.82-4.56,15.15,4.19,11.15,6.46c-4,2.27-12.97-1.9-12.97-1.9Z"/>
        <path class="cls-35" d="m147.93,179.1s-.27-5.14,2.78-5.98c3.05-.84.88,6.99,2.79,4.15s10.26-10.66,9.28-3.06.73,7.51-.66,10.5c-1.39,2.99-15.12-.25-14.68-1.81s.49-3.8.49-3.8Z"/>
        <path class="cls-35" d="m183.53,286.25c1.73-6.27,6.03-9.58,8.89-13.85s4.35-5.55,4.4-7.78,8.76-3.2,8.76-3.2c0,0,2.19-14.02-9.64-3.79-11.83,10.23-14.72,20.67-13.87,23.72"/>
        <path class="cls-35" d="m198.74,235.34c1.57.43,4.76-.93,5.34-3.02s-2.12-4.52-2.12-4.52c0,0,1.77-2.32.69-6.56-1.08-4.24.17-6.7-2.59-6.9-2.76-.2-.97-8.7-3.71,1.22-2.75,9.93-5.3,6.97-3.76,13.58,1.54,6.61,4.53,8,4.53,8l1.62-1.8Z"/>
        <path class="cls-35" d="m203.36,245.05c.87-3.13-.03-3.95-3.69-4.96s-5.11-5.91-6.79-1.88c-1.68,4.03,9.61,9.97,10.48,6.84Z"/>
        <path class="cls-35" d="m194.6,221.82c3.06,1.54-.17-19.73-3.3-20.6l-3.13-.87s-5.14.27-8.33,1.63c-3.19,1.37,12.29,18.59,14.76,19.83Z"/>
        <path class="cls-35" d="m169.04,192.25s-8.21-2.84-.18-3.42c8.04-.59,8.29-5.58,11.23-1.96s1.54,6.61,1.49,8.85.09,1.71-.49,3.8,3.06,9.28-3.48,2.41c-6.54-6.87-8.57-9.68-8.57-9.68Z"/>
        <path class="cls-33" d="m90.93,235.23c1.48-.76,3-1.38,4.56-1.93,0,0-.78,1.59-.78,1.59-1.87-2.66-1.63-6.4,2.34-6.33,3.58.26,6.51,2.27,9.17,4.44,0,0,.26.23.26.23l.08.14c1.68,2.83,3.21,5.76,4.28,8.89,0,0-.16.11-.16.11l-5.58-7.99c-2.4-1.92-12.73-7.97-9.2.12,0,0-.17.03-.17.03l-4.76.9-.04-.2h0Z"/>
        <path class="cls-33" d="m122.66,268.18c-4.06-1.15-6.38-4.33-8.26-7.89,0,0,.05-.19.05-.19,1.88.68,3.19,2.22,4.59,3.55,1.31,1.42,2.6,2.86,3.76,4.41l-.16.13h0Z"/>
        <path class="cls-33" d="m55.36,247.15c1.22-1.4,2.68-2.57,4.19-3.62,0,0-.68.74-.68.74,2.97-7.75,11.47-2.26,14.76,2.3,0,0-.11.17-.11.17-2.76-1.65-5.55-3.42-8.66-4.29-1.97-.6-3.76.83-4.59,2.52,0,0-4.82,2.38-4.82,2.38,0,0-.09-.18-.09-.18h0Z"/>
        <path class="cls-33" d="m184.49,273.59c-1.28-2.88-1.22-13.85,4.15-10.16.28.27.49.49.55.66-.04,0-.13-.14-.58-.23-.39-.1-1.08.14-1.18.43,1.11-1.39,2.64-3.4,4.71-3.31,0,0,.07.19.07.19-1.33.56-2.13,1.88-2.81,3.13-.32.43-.45,1.32-1.13,1.33-.55-.14-1.02-1.29-1.61-.93-1.33,2.69-1.47,5.95-1.98,8.91,0,0-.2-.02-.2-.02h0Z"/>
        <path class="cls-33" d="m177.11,267.76c1.63-3.9,3.77-7.57,5.21-11.52,0,0,.12-.46.12-.46.02-.09,0-.22,0-.07,0,.07.03.26.19.47.15.23.42.34.51.37.23.06.15.03.06.07-1.15.35-1.78.93-3.12,1.1-1.03.11-2.03-.83-1.96-1.86.45-2.83,1.55-5.82,1.12-8.64-.02-.05-.04-.09,0-.02.04.06.21.19.29.21-1-.41-1.32-.14-1.96.78-1.33,1.79-3.08,2.33-4.98,3.13,0,0,.92-1.02.92-1.02-.89,3.53-1.33,7.8-2.14,11.38-.27,1.3-.49,2.6-.95,3.89l-.19-.05c.23-1.26.3-2.59.43-3.89.16-1.96.49-5.89.67-7.85.14-1.33.26-2.66.57-3.99.77-.31,1.53-.67,2.25-1.08.68-.4,1.4-.85,1.81-1.47.4-.72,1.01-1.39,1.82-1.73,1.15-.47,3.01-.21,3.36,1.13.59,2.84-.37,5.75-1,8.51-.07.34-.34.97-.12.8.34-.03.74-.2,1.11-.34,4.72-2.13,2.51,1.62,1.26,3.96-1.58,2.85-3.39,5.57-5.1,8.32l-.17-.1h0Z"/>
        <path class="cls-33" d="m162.3,277.91c-.29-2.38.31-4.47.18-6.6-.02-.21-.03-.22-.18-.43-.56-.84-1.04-1.77-1.3-2.95,0,0,.13-.15.13-.15,1.42,1.3,3.61,2.44,3.37,4.68-.15,2.01-.99,3.87-2.02,5.56,0,0-.17-.1-.17-.1h0Z"/>
        <path class="cls-33" d="m152.77,262.21c-1.2-1.79-1.8-4.59.12-6.14,2.54-1.4,5.89.41,7.11,2.74.27.6.45,1.39.11,1.99,0,0-.2.01-.2.01-.05-.49-.33-.93-.68-1.28-1.08-1.06-2.6-1.69-4.07-1.92-.47-.05-1.06-.11-1.32.18-.84,1.23-.74,2.96-.86,4.42,0,0-.2,0-.2,0h0Z"/>
        <path class="cls-33" d="m125.72,258.91c-2.32,1.39-7.2,3.63-9.49,1.13-.71-.92-1.01-2.41-.49-3.51.19-.46.39-.74.36-.73-.06.04-.07.49-.02.53.05.09-.09-.09-.16-.15-1.51-1.46-3.27-2.7-4.4-4.72-1.7-3.59,2.24-4.33,4.95-3.88,1.24.21,2.42.55,3.49,1.17l-.05.19c-2.19-.42-4.67-.54-6.74.35-1.08.71.39,1.97.93,2.59.81.81,1.71,1.53,2.59,2.31.59.55,1.62,1.38,1.17,2.36-.46.74-.81,1.45-.34,2.29.2.47.79.64,1.33.73,1.12.15,2.28.02,3.42-.14,1.14-.18,2.27-.42,3.38-.72l.06.19h0Z"/>
        <path class="cls-33" d="m87.59,249.79c-1.1-2.95-2.36-6.63-4.51-8.84-.39-.36-.75-.32-.5-.27,0,0-.01.01-.03.03,0,0-.07.1,0-.01l-2.63.32c-.54-.45-1.17-.93-1.76-1.33-.67-.49-1.54-1.03-2.12-1.18.02,0,.19-.04.33-.16.14-.13.19-.25.18-.26-.13.29-.12,1.08-.06,1.52.29,3.06,1.24,6.25,1.76,9.37,0,0-.18.08-.18.08-.68-1.47-1.3-2.97-1.87-4.49-.73-2.3-1.88-4.7-1.36-7.18,1.16-2.37,5.18,1.17,6.39,2.18,0,0-.28.03-.28.03.86-1.24,2.46-.94,3.35.07,1.68,1.8,2.3,4.25,2.93,6.55.27,1.17.53,2.34.56,3.56,0,0-.2,0-.2,0h0Z"/>
        <path class="cls-33" d="m73.09,253.55c2.55-2.37,6.12-3.22,9.52-2.81,3.04.83,5.91,1.27,9.02,2.3,0,0,.02.2.02.2-3.11.33-6.31.23-9.34-.52-3.05-.45-6.23.04-9.15,1.02,0,0-.07-.19-.07-.19h0Z"/>
        <path class="cls-33" d="m98.83,263.38c-1.35-2.14.02-4.93,2.4-5.43.81-.17,1.73,0,2.37.65v.2c-2.38.29-3.78,2.57-4.57,4.63,0,0-.19-.05-.19-.05h0Z"/>
        <path class="cls-33" d="m129.06,211.48c-3.12.07-9.77.29-10.78-3.55-.61-2.19-.17-4.52.99-6.48,2.58-.03,5.2.08,7.76-.05.11,0,.37-.02.47-.03-.5-.03-1.15.62-1.14,1.08-.64-2.95-5.08-8.95-.37-10.71,4.39-.84,11.74.76,11.52,6.41-.01.32.06.46.03.47-.03,0,.09.15.47.21,2.16.17,3.98.76,3.42,3.37-.69,2.24-1.11,5.06-3.55,6.05,0,0-.12-.16-.12-.16,1.72-.96,2.09-2.87,2.44-4.66.16-.89.48-1.85.11-2.63-.49-.79-1.63-.53-2.45-.65-1.07-.01-1.87-.83-1.86-1.9.06-4.45-6.31-5.29-9.67-4.58-1.86,1.17,2.05,6.85,1.93,8.86.01.24-.13.63-.46.71-.31.07-.49.03-.74.05-2.3.02-4.64-.09-6.93-.23,0,0,.14-.07.14-.07-.61,1.11-.91,2.43-.84,3.71-.12,2.99,3.46,3.5,5.73,4.04,1.28.25,2.59.42,3.89.53v.2h-.01Z"/>
        <path class="cls-33" d="m57.61,220.55c-3.12,3.59-6.67,7.01-11.83,5.23-3-.87-5.84-1.16-9.06-1.62,0,0-.05-.19-.05-.19,2.69-.64,5.51-.79,8.25-.35,2.68.68,5.39,1.14,7.85-.48,1.58-.9,3.09-1.96,4.75-2.77l.09.18h0Z"/>
        <path class="cls-33" d="m74.96,209.05c3.23-.8,2.94-3.78,2.65-6.39-.26-3.3-.36-6.56.97-9.73,0,0,.2.01.2.01.04,3.17.46,6.35.82,9.5.21,2.27.12,5.37-2.27,6.5-.75.35-1.59.43-2.41.3l.04-.2h0Z"/>
        <path class="cls-33" d="m41.23,236.09c3.36-.57,6.6-.52,9.83-.97,4.69-1,9.29-3.91,14.3-3.67.61.05,1.27.18,1.77.56l-.08.18c-1.02-.33-2.17.01-3.21.31-3.2,1-6.18,2.54-9.32,3.7-4.24,1.61-8.95.63-13.32.09,0,0,.03-.2.03-.2h0Z"/>
        <path class="cls-33" d="m53.22,243.96c-.05-3.31,2.97-6.03,6.26-5.41,0,0,.11.17.11.17-2.23,1.61-4.22,3.51-6.22,5.38,0,0-.15-.14-.15-.14h0Z"/>
        <path class="cls-33" d="m60.95,231.25c-2.3,1.3-5.28,1.78-7.26-.47-1.26-1.45-.73-3.86.74-4.81,0,0,.19.05.19.05-1.24,4.99,3.05,4.25,6.38,5.03,0,0-.05.19-.05.19h0Z"/>
        <path class="cls-33" d="m103.47,211.5c-2.26-2.1-4.32-4.31-5.96-6.98-.51-.87-1.11-1.96-1.17-3.14-.08-3.73,4.68-3.33,7.04-2.54,0,0-2.12,1.24-2.12,1.24.5-2.63,1.6-6.34,4.77-7.01,5.11-.5,8.09,6.43,7.84,10.37-.01,3.26-1.28,6.26-2.13,9.34-.9,2.93-1.89,5.83-3,8.71,0,0-.2-.04-.2-.04l1.97-8.98.99-4.49c1.21-4.25.64-9.62-3.16-12.35-3.09-2.35-4.87,2.34-5.33,4.77,0,0-.04.19-.04.19,0,0-.18-.06-.18-.06-8.07-2.49-4.49,3.43-1.86,7.26.85,1.23,1.75,2.43,2.68,3.59l-.15.13h0Z"/>
        <path class="cls-33" d="m100.47,222.21c-1.49-3.25-.43-7.03,2.51-9.06,0,0,.19.05.19.05-.72,3.05-1.55,6.07-2.51,9.06,0,0-.19-.05-.19-.05h0Z"/>
        <path class="cls-33" d="m86.72,228.58c-1.89-2.57-3.43-5.24-4.5-8.23-.71-2.28-1.33-4.35-.69-6.92.27-1.08,1.34-2.38,2.57-2.67,0,0,.87-.17.87-.17,2.3-.41,5.01.3,6.26,2.22,0,0-.13.15-.13.15-1.6-1.23-3.82-1.39-5.72-.85-4.2.74-1.16,7.98-.42,10.62.64,1.93,1.4,3.82,1.97,5.79,0,0-.19.05-.19.05h0Z"/>
        <path class="cls-33" d="m123.16,187.67c-2.54-1.28-3.62-3.62-2.72-6.34,0,0,.17-.11.17-.11,1.34,1.91,2.39,4.09,2.75,6.42,0,0-.2.04-.2.04h0Z"/>
        <path class="cls-33" d="m49.15,216.71c-2.91-.39-4.57-3.11-3.62-5.88,0,0,.17-.1.17-.1,1.31,1.89,2.52,3.85,3.62,5.88,0,0-.17.1-.17.1h0Z"/>
        <path class="cls-33" d="m157.93,217.94c-2.62-2.28-8.98-7.29-5.18-11.02,1.68-1.53,4.39-2.46,6.54-1.2,0,0-2.53,1.84-2.53,1.84-1.11-3.78-1.98-10.62,3.17-11.88,4.14-.07,4.45,6.37,4.62,9.3,0,1.57.1,3.05-.5,4.58-.04.09-.13.22-.19.3,0,0-.21.38-.21.38-1.04,2.01-1.89,4.1-2.88,6.15,0,0-.19-.05-.19-.05.72-2.48,1.35-5.05,2.41-7.4.38-3.12-.14-6.5-1.16-9.48-.94-2.58-2.47-2.32-3.5.03-.85,2.55-.35,5.4.3,7.96-.65-.45-1.47-.65-2.29-.52-5.28,1.18-3.25,4.5-.94,7.63.84,1.12,1.78,2.15,2.68,3.25,0,0-.16.12-.16.12h0Z"/>
        <path class="cls-33" d="m173.75,227.2c-3.5-1.81-7.02-5.76-7.05-9.98-.02-.41.13-.96.2-1.39.92-2.54,1.8-4.94,3.34-7.3,0,0,.2.04.2.04-.3,1.67-.63,3.34-1.01,4.99-.29,1.62-1.11,3.24-.62,4.9.83,3.24,2.98,6.06,5.09,8.61,0,0-.15.13-.15.13h0Z"/>
        <path class="cls-33" d="m181.55,227.48c-1.95-.79-4.45-2.39-5.68-2.46.03,0,.05-.02.07-.04-.39.29-.64.55-1.51.6-4.42-.42-2.03-9.35.43-11.11.74-.69,2.11-1.12,2.97-.46,0,0-.05.19-.05.19-.84-.22-1.64.23-2.13.9-1.44,2.08-1.8,4.85-1.65,7.32.05.4.12.86.32,1.12.1.11.15.11.31,0,2.18-1.59,5.65,2.35,7.08,3.81,0,0-.15.13-.15.13h0Z"/>
        <path class="cls-33" d="m192.78,238.19c-.94-5.78-.21-11.59,1.31-17.18.53-1.85,1.17-3.69,2.15-5.48l.2.03c-.52,3.78-1.86,13.39-2.5,17.01-.31,1.89-.6,3.77-.96,5.66l-.19-.05h0Z"/>
        <path class="cls-33" d="m152.17,229.5c-4.39.19-13.2-12.35-8.56-15.48,3.28-1.47,5.71,2.51,6.5,5.08.35,1.14.63,2.28.69,3.48,0,0-.19.07-.19.07-1.1-2.49-2.25-5.31-4.59-6.83-4.48-1.95.67,7.63,1.58,8.81,1.23,1.77,2.56,3.86,4.63,4.68,0,0-.05.19-.05.19h0Z"/>
        <path class="cls-33" d="m146.65,194.88c-1.35-5.03-.18-10.8,3-14.92,0,0,.2.04.2.04-.66,3.74-2.16,11.21-3,14.91,0,0-.2-.03-.2-.03h0Z"/>
      </g>
      <g>
        <path class="cls-35" d="m237.15,330.62c-.45-2.03-.53-4.12-.3-6.18,1.34-11.91,11.38-94.17,15.23-103.82,3.25-8.14,2.14-14.34,10.61-16.96,6.7-2.08,9.96,12.41,9.39,28.07-.56,15.66-6.38,105.35-24.58,107-6.99.63-9.48-4.19-10.36-8.12Z"/>
        <path class="cls-29" d="m252.24,325.29c1.53-4.53,3.3-9.17,4.03-13.86.2-1.13.12-2.29-.04-3.41-.34-8.6,1.25-17.23,2.15-25.69.61-7.26,1.15-14.69,2.53-21.91,1.48-7.2,2.72-14.32,3.82-21.58,1.02-7.2,2.42-14.37,2.19-21.65-.06-9.45.17-10.31,1.32-.06,1,7.31-.48,14.78-1.39,22.02-1.13,9.69-3.4,19.22-4.69,28.87-.62,4.81-1,9.64-1.45,14.53-.86,7.29-2.11,14.45-2.48,21.75-.14,1.86.03,3.63.12,5.45-.15,3.2-1.33,6.23-2.5,9.08-.98,2.26-2.09,4.46-3.35,6.57-.08.15-.33.03-.26-.13h0Z"/>
        <path class="cls-29" d="m243.86,329.73c.08-5.53,1.43-10.94,2.33-16.36.75-4.2-.64-8.21-.91-12.48-.45-5,.21-10.12,1.45-14.87,1.74-7.11,2.84-14.33,4.2-21.54.43-2.36,1.11-4.87,1.61-7.17.84-4.65,1.16-9.58,1.54-14.42.36-4.87.62-9.75,1.06-14.63.55-4.88.86-9.86,2.63-14.51.06-.16.32-.08.28.09-.5,2.37-.57,4.82-.72,7.25-.44,8.47-.94,20.82-1.61,29.29-.21,4.89-1.47,9.78-2.46,14.56-1.29,7.22-2.47,14.5-4.25,21.63-1.23,4.7-1.92,9.4-1.57,14.16.18,3.62,1.22,7.35.95,11.09-.46,3.67-1.55,7.29-2.45,10.86-.63,2.36-1.32,4.7-1.79,7.09-.02.17-.3.15-.29-.02h0Z"/>
      </g>
      <g>
        <path class="cls-8" d="m98.11,258.67c6.68-8.1,16.11-9.75,27.71-2.48,10.48,6.57,15.71,17.57,10.69,27.85-4.61,9.43-21.36,11.61-30.68,3.47-11.96-10.45-14.41-20.75-7.73-28.84Z"/>
        <path class="cls-8" d="m97.72,264.5s-2.16-2.28-3.04-5.22c-.9-3.03,2.58-4.25,4.52-3.55,1.94.71,4.7.68,5.02,1.83s-6.49,6.93-6.49,6.93Z"/>
        <path class="cls-20" d="m100.89,256.33c.4-.92.49-.73.66-.79.32-.09.59,0,.83.23.12.11.27.09.17,1.01l-.08.28c-.38.85-.5.74-.66.78-.32.09-.6.03-.83-.21-.11-.14-.29-.02-.17-1.02l.08-.28h0Z"/>
        <path class="cls-20" d="m96.25,262.07c1.09-.11.96.18,1.19.33.18.15.35.29.31.27-.05-.06-.54-.09-.63.13.41-.2.63-.33,1.4.13,0,0,.17.24.17.24.16.75,0,1.04-.23,1.24-.03.03-.1.1-.13.13-1.04.94-2.59-.01-2.81-1.06-.06-.38-.43-.64.45-1.31l.28-.1h0Z"/>
      </g>
      <g>
        <path class="cls-26" d="m158.34,268.23c8.65,5.95,11.12,15.2,4.89,27.39-5.63,11.01-16.13,17.18-26.81,13.08-9.8-3.77-13.43-20.27-6.14-30.25,9.36-12.83,19.41-16.16,28.06-10.21Z"/>
        <path class="cls-26" d="m152.5,268.35s2.08-2.35,4.94-3.49,4.46,2.19,3.93,4.19-.27,4.75-1.39,5.16-7.47-5.86-7.47-5.86Z"/>
        <path class="cls-20" d="m160.92,270.8c.95.31.77.43.85.59.12.31.05.59-.16.84-.1.13-.06.28-.99.26l-.29-.05c-.88-.3-.78-.43-.84-.58-.11-.31-.08-.59.14-.85.13-.12,0-.29,1-.26l.29.05h0Z"/>
        <path class="cls-20" d="m154.79,266.67c.21,1.07-.1.98-.23,1.22-.13.19-.26.37-.24.33.05-.05.04-.55-.18-.61.23.39.38.6,0,1.4,0,0-.22.19-.22.19-.73.23-1.04.09-1.26-.12-.03-.03-.11-.09-.14-.11-1.03-.95-.21-2.58.81-2.89.37-.09.6-.49,1.35.33l.12.27h0Z"/>
      </g>
      <g>
        <path class="cls-13" d="m206.31,261.6c-1.88-1.7,3.98-14.2,7.39-14.24,3.42-.04,4.7,1.07,4.62,2.6s-3.37,11.02-5.18,11.57c-1.81.55-2.29,4.19-6.83.07Z"/>
        <path class="cls-22" d="m185.61,308.25c-.85-.31-6.14,1.55-9.6-2.43-3.69-4.24-6.68-11.72-4.35-24.87,4.53-25.48,12.51-30.64,17.25-32.83,6.41-2.96,19.97,3.14,20.92,10.78-.38,1.48,7.75-4.03,15.23,2.57,7.79,4.17,10.56,13.26,5.66,22.69-5.4,10.37-10.44,32.04-33.25,30.18-3.83-.31-6.94-4.29-11.86-6.09Z"/>
        <path class="cls-37" d="m189.39,300.35c-1.17,1.35-2.75,1.41-4.24,1.58-3.07.32-6.44-.37-8.81-2.52-1.23-1.02-2.19-2.47-2.04-4.15l.27-.12c.72.37,1.14.87,1.72,1.33,2.19,2.48,5.55,3.25,8.78,3.3,1.47.03,2.74-.26,4.24.3,0,0,.08.28.08.28h0Z"/>
        <path class="cls-37" d="m189,299.76c1.07.87,1.11,1.76,1.48,2.63.81,1.96,2,3.89,4.11,4.49.39.23.83.35,1.35.83l.02.29c-.97.94-2.3.82-3.41.34-2.24-.87-3.65-3.09-4.13-5.3-.23-1.05-.61-2.13.29-3.27,0,0,.29-.02.29-.02h0Z"/>
      </g>
      <path class="cls-18" d="m141.86,452.57l-40.79-72.78s-8.96-10.18-8.12-13.52,4.59-11.26,4.59-11.26l-12.1-42.13,1.4-49.54,15.28,15.33s70.38,6.23,82.39,5.43c20.12-1.34,64.13-15.84,71.79-20.85,7.66-5.02,15.97-24.91,15.97-24.91l6.79,16.93,4.98,38.76-2.54,29.47,3.27,19.96-2.77,16.12,2.13,11.47-5.84,45.82s5.39,12.18,1.17,16.39c-20.84,20.84-51.78,33.76-70.64,35.06s-66.96-15.78-66.96-15.78Z"/>
      <g>
        <path class="cls-36" d="m213.5,442.33c-5.2,1.64-10.58,2.1-15.94,2.6-5.36.52-10.74.79-16.12.96-5.38.13-10.77.11-16.15-.1-5.37-.21-10.78-.39-16.06-1.79l.03-.29c10.75-.56,21.38.31,32.11-.23,5.34-.13,10.68-.37,16.02-.71,5.35-.28,10.62-1.04,16.07-.73l.04.29h0Z"/>
        <path class="cls-36" d="m269.65,341.3c-20.45,12.22-41.2,23.83-60.75,37.46-19.74,13.34-38.31,28.25-57.7,42.1,0,0-.19-.23-.19-.23,17.51-16.26,37.06-30.07,56.53-43.86,9.87-6.72,19.97-13.1,30.25-19.17,10.3-6.02,20.65-12.01,31.73-16.57,0,0,.13.26.13.26h0Z"/>
        <path class="cls-36" d="m200.75,347.14c-7.97,2.91-16.34,4.19-24.65,5.5-8.33,1.27-16.7,2.24-25.1,2.89-16.78,1.05-33.74,1.95-50.45-.33,0,0,.01-.29.01-.29,16.8-.71,33.51-.2,50.25-1.78,8.35-.6,16.68-1.54,24.98-2.63,8.31-1.1,16.51-2.66,24.89-3.64,0,0,.07.28.07.28h0Z"/>
        <path class="cls-36" d="m200.88,316.73c-8.34.52-16.58-.87-24.73-2.29-8.16-1.48-16.24-3.36-24.21-5.65-15.81-4.81-31.66-10.27-45.87-18.84,0,0,.13-.26.13-.26,1.97.67,3.9,1.4,5.82,2.16,13.24,5.51,26.76,10.77,40.59,14.63,7.88,2.32,15.89,4.2,23.94,5.84,8.07,1.62,16.19,2.68,24.34,4.12,0,0,0,.29,0,.29h0Z"/>
      </g>
    </g>
    <g>
      <path class="cls-14" d="m69.94,381.45s109.21-9.86,121.49-6.51,13.71,27.92,20.41,52.47c6.7,24.55,14.51,68.08,6.7,73.66-16.17,11.55-71.75-3.36-120.85-30.15-49.11-26.79-26.47-91.89-27.74-89.47Z"/>
      <path class="cls-31" d="m193.65,386.64c-7.03-2.95-27.88,2.81-17.84,40.76,10.04,37.95,32.91,80.92,39.61,71.99s-14.74-109.8-21.77-112.75Z"/>
      <path class="cls-17" d="m182.55,387.12l39.85-7.93,21.81,36.5-65.29,22.32s-17.11-36.9,3.63-50.9Z"/>
      <g>
        <path class="cls-17" d="m217.89,382.75s12.94-18.06,17.67-20.29,21.44-3.14,25.69-5.43c4.25-2.29,10.05-2.31,10.05-2.31l-3.56,9.17-7.79,6.04s26.56-2.26,27.97,1.36c1.41,3.63-3.75,10.4-3.75,10.4,0,0,4.23,7.31,4.01,8.74s-3.55,6.98-3.55,6.98c0,0,4.7,4.36,3.85,7.77s-4.54,5.27-4.54,5.27c0,0-2.37,7.36-4.16,9.53s-54.07-1.43-54.07-1.43l-7.82-35.8Z"/>
        <path class="cls-32" d="m275.27,397.11c.83-.97,1.63-.8,2.44-.89.81-.06,1.61-.09,2.42-.08.81.02,1.61.09,2.42.18.8.1,1.61.04,2.4.97.07.09.07.21,0,.29-.82.9-1.63.81-2.44.88-.81.06-1.62.1-2.42.09-.81-.02-1.61-.08-2.42-.17-.8-.12-1.61.02-2.4-.98-.07-.09-.06-.21,0-.29,0,0-.07.08,0,0Z"/>
        <path class="cls-32" d="m271.02,385.53c.79-1.2,1.83-1.29,2.81-1.63.99-.32,1.98-.62,2.98-.88,1-.26,2.01-.47,3.03-.67,1.02-.21,1.96-.55,3.23-.02.11.04.15.18.09.28-.71,1.21-1.76,1.44-2.74,1.8-1.97.73-4,1.26-6.07,1.59-1.04.15-2.02.54-3.26-.18-.1-.06-.13-.19-.07-.29h0Z"/>
        <path class="cls-32" d="m271.09,408.38c1.13-.88,2.14-.63,3.18-.63,1.04.02,2.07.08,3.1.18,1.03.1,2.05.26,3.07.44,1.02.18,2.06.21,2.99,1.23.08.09.07.22-.03.29-1.12.81-2.14.64-3.18.62-1.04-.03-2.07-.07-3.1-.17-1.03-.1-2.05-.25-3.07-.43-1.02-.2-2.06-.15-2.99-1.24-.08-.09-.06-.22.03-.29h0Z"/>
      </g>
      <path class="cls-38" d="m212.27,427.64c6.6,20.86,12.54,51.49,7.07,72.91-.66,1.94-1.03,4.2-2.68,5.62-3.35,2.56-7.8,2.27-11.73,2.15-15.25-1.28-29.71-6.1-44.17-10.62-14.35-4.73-28.6-9.77-42.28-16.23l.11-.27c3.59,1.16,7.17,2.35,10.74,3.58,17.8,6.06,35.51,12.56,53.75,17.16,7.23,1.79,14.6,3.46,22,4.05,3.28.15,7.47.4,10.12-1.53.58-.48.79-.94,1.14-1.91.97-2.58,1.61-5.26,2.07-7.99,2.26-14.78.16-29.95-2.18-44.65-1.22-7.42-2.65-14.81-4.23-22.18l.28-.08h0Z"/>
    </g>
  </g>
  <g>
    <path class="cls-17" d="m414.51,106.69c-1.32.05-51.01-32.76-51.01-32.76,0,0-6.25,5.05-15.66,11.81-6.56,4.71-9.01,18.01-9.01,18.01l48.8,38.47,26.88-35.52Z"/>
    <path class="cls-17" d="m352.34,105.99s-10.81.81-19.48-2.92-20.65-30.79-20.65-30.79c0,0-22.33-3.35-22.45-5.79-.12-2.45,4.66-5.13,4.66-5.13,0,0-12.47.59-11.26-2.66,1.14-3.05,7.84-13.4,14.44-15.33,6.6-1.93,29.1-2.93,42.67.56,13.57,3.49,29.08,39.34,29.08,39.34l-17.01,22.71Z"/>
    <path class="cls-32" d="m286.8,48.03c-.7,2.36-1.71,4.57-2.83,6.75,0,0-.88-1.44-.88-1.44,2.56-.17,5.13-.3,7.69-.42,5.13-.23,10.27-.34,15.4-.35,2.57-.04,5.14-.03,7.73.66.14.03.15.25,0,.29-2.54.85-5.11,1.01-7.67,1.13-5.13.3-10.26.51-15.4.59-2.57.03-5.14.05-7.71.04-.75.06-1.28-.81-.88-1.44,1.27-2.09,2.62-4.11,4.27-5.94.1-.12.3,0,.26.14h0Z"/>
    <path class="cls-32" d="m288.22,47.11c9.34-7.23,21.37-6.45,32.5-5.88,3.32.21,10.01.76,13.31,1.11,2.21.24,4.42.59,6.58,1.39.08.03.12.12.09.2-2.19.64-4.6.45-6.83.42-4.19-.2-15.6-.84-19.93-1.09-4.37-.24-8.76-.58-13.1.11-4.29.66-8.52,1.99-12.46,3.99-.14.09-.32-.13-.17-.24h0Z"/>
    <path class="cls-32" d="m285.33,54.53c-.05,2.03-.36,4-.74,5.98,0,0-.86-1.16-.86-1.16,3.18-.04,6.35.07,9.53.1,6.35.14,12.69.39,19.03.76,3.17.15,6.34.33,9.49,1.23.14.04.14.27-.01.29-3.2.68-6.38.64-9.55.57-6.35-.06-12.7-.25-19.04-.54-3.17-.19-6.34-.3-9.51-.56-.52,0-.95-.43-.9-.96.58-2,1.34-3.93,2.29-5.79.07-.14.29-.08.28.07h0Z"/>
    <path class="cls-14" d="m376.37,145.16c-4.18,21.93-3.59,31.44-3.59,31.44,0,0,85.53,54.02,124.16,26.88,38.63-27.15-16.97-59.95-50.38-82.92-33.41-22.97-33.17-27.25-43-25.73-9.83,1.51-23,28.41-27.18,50.33Z"/>
    <path class="cls-38" d="m460.95,207.78c-17.59-.02-35.24-3.79-51.51-10.47-1.6-.6-3.79-1.79-5.32-2.55-8.16-4.23-18-9-25.69-13.92-1.64-1.11-3.34-2.08-4.73-3.55,0,0,.22-.19.22-.19,2.7,1.78,7.36,3.76,10.31,5.29,7.09,3.5,16.34,8.18,23.5,11.66,1.48.76,3.75,1.55,5.29,2.19,8.13,3.06,16.51,5.45,25.02,7.13,7.57,1.6,15.33,2.1,22.94,4.11l-.04.29h0Z"/>
    <path class="cls-32" d="m294.54,61.6c-1.55,1.36-4.13,3.31-4.13,5.08,1.87,1.2,4.42,1.77,6.65,2.31,5.09,1.11,10.32,1.66,15.53,2.05.47.03.85.33,1.01.74,1.5,3.54,3.06,7.09,4.7,10.58,2.5,5.12,4.94,10.45,8.4,14.94,3.72,4.3,9.13,6.43,14.61,7.94.16.02.15.3-.02.29-8.46.14-15.67-4.37-19.61-11.79-4.03-6.75-7.25-13.84-10.28-21.06,0,0,1.01.74,1.01.74-7.28-.67-14.84-1.4-21.67-4.29-5.39-2.43.36-6.87,3.66-7.79.16-.05.26.16.14.26h0Z"/>
  </g>
</svg>