<?xml version="1.0" encoding="UTF-8"?><svg id="a" xmlns="http://www.w3.org/2000/svg" width="1140" height="345" viewBox="0 0 1140 345"><path d="m1128.059,247.435c-24.827,79.09-160.366,115.98-561.848,86.417-136.559-10.056-332.057,23.243-449.251-4.548C44.586,312.141,19.561,264.381,4.363,190.582-12.357,109.391,2.239,18.563,535.503,2.966c427.641-12.508,659.66,30.701,592.556,244.468Z" fill="#f9e7e4"/><circle cx="830.787" cy="125.318" r="50" fill="#a5c3c9"/><path d="m827.014,118.056h-11.695v-2.32l5.52-5.883c.758-.828,1.318-1.551,1.682-2.168s.545-1.203.545-1.758c0-.758-.191-1.354-.574-1.787s-.93-.65-1.641-.65c-.766,0-1.369.264-1.811.791s-.662,1.221-.662,2.08h-3.398c0-1.039.248-1.988.744-2.848s1.197-1.533,2.104-2.021,1.934-.732,3.082-.732c1.758,0,3.123.422,4.096,1.266s1.459,2.035,1.459,3.574c0,.844-.219,1.703-.656,2.578s-1.188,1.895-2.25,3.059l-3.879,4.09h7.336v2.73Z" fill="#802523"/><path d="m846.619,111.833c0,1.953-.443,3.518-1.33,4.693s-2.084,1.764-3.592,1.764c-1.281,0-2.316-.445-3.105-1.336v5.977h-3.387v-17.555h3.141l.117,1.242c.82-.984,1.891-1.477,3.211-1.477,1.562,0,2.777.578,3.645,1.734s1.301,2.75,1.301,4.781v.176Zm-3.387-.246c0-1.18-.209-2.09-.627-2.73s-1.025-.961-1.822-.961c-1.062,0-1.793.406-2.191,1.219v5.191c.414.836,1.152,1.254,2.215,1.254,1.617,0,2.426-1.324,2.426-3.973Z" fill="#802523"/><path d="m827.57,151.776h-10.819v-2.32l5.106-5.883c.7-.828,1.219-1.551,1.556-2.168.336-.617.504-1.203.504-1.758,0-.758-.178-1.354-.531-1.787-.354-.434-.86-.65-1.518-.65-.709,0-1.268.264-1.676.791s-.612,1.221-.612,2.08h-3.144c0-1.039.229-1.988.688-2.848s1.107-1.533,1.945-2.021c.839-.488,1.789-.732,2.852-.732,1.626,0,2.89.422,3.789,1.266s1.35,2.035,1.35,3.574c0,.844-.202,1.703-.607,2.578-.404.875-1.099,1.895-2.081,3.059l-3.589,4.09h6.787v2.73Z"/><path d="m838.031,139.096l.098,1.465c.839-1.133,1.963-1.699,3.372-1.699,1.243,0,2.168.395,2.775,1.184.606.789.918,1.969.933,3.539v8.191h-3.134v-8.109c0-.719-.145-1.24-.434-1.564s-.77-.486-1.441-.486c-.882,0-1.543.406-1.984,1.219v8.941h-3.133v-12.68h2.948Z"/><path d="m817.887,230.405h2.367v1.77h-2.367v3.961h-2.18v-3.961h-7.77v-1.277l7.641-11.824h2.309v11.332Zm-7.488,0h5.309v-8.367l-.258.469-5.051,7.898Z"/><path d="m819.914,269.273h-11.18v-1.559l5.906-6.562c.875-.992,1.479-1.799,1.811-2.42s.498-1.264.498-1.928c0-.891-.27-1.621-.809-2.191s-1.258-.855-2.156-.855c-1.078,0-1.916.307-2.514.92s-.896,1.467-.896,2.561h-2.168c0-1.57.506-2.84,1.518-3.809s2.365-1.453,4.061-1.453c1.586,0,2.84.416,3.762,1.248s1.383,1.939,1.383,3.322c0,1.68-1.07,3.68-3.211,6l-4.57,4.957h8.566v1.77Z" fill="#802523"/><path d="m851.425,259.768h-5.859v-12.188h-11.426v12.188h-5.859v-28.438h5.859v11.523h11.426v-11.523h5.859v28.438Z"/><path d="m865.897,260.158c-3.099,0-5.622-.95-7.568-2.852s-2.92-4.434-2.92-7.598v-.547c0-2.122.41-4.021,1.23-5.693s1.982-2.962,3.486-3.867,3.22-1.357,5.146-1.357c2.891,0,5.166.911,6.826,2.734s2.49,4.407,2.49,7.754v2.305h-13.457c.183,1.38.732,2.487,1.65,3.32s2.08,1.25,3.486,1.25c2.175,0,3.874-.788,5.098-2.363l2.773,3.105c-.847,1.198-1.992,2.132-3.438,2.803s-3.047,1.006-4.805,1.006Zm-.645-17.363c-1.12,0-2.028.379-2.725,1.138s-1.143,1.845-1.338,3.257h7.852v-.451c-.026-1.256-.364-2.227-1.016-2.913s-1.575-1.03-2.773-1.03Z"/><circle cx="635.25" cy="125.318" r="72.5" fill="#a5c3c9"/><path d="m624.018,105.528c0,.828-.207,1.562-.621,2.203s-.984,1.152-1.711,1.535c.828.398,1.484.947,1.969,1.646s.727,1.521.727,2.467c0,1.516-.516,2.713-1.547,3.592s-2.434,1.318-4.207,1.318-3.18-.441-4.219-1.324-1.559-2.078-1.559-3.586c0-.945.242-1.77.727-2.473s1.137-1.25,1.957-1.641c-.727-.383-1.295-.895-1.705-1.535s-.615-1.375-.615-2.203c0-1.453.484-2.611,1.453-3.475s2.285-1.295,3.949-1.295,2.971.428,3.943,1.283,1.459,2.018,1.459,3.486Zm-3.035,7.605c0-.742-.215-1.336-.645-1.781s-1.008-.668-1.734-.668c-.719,0-1.293.221-1.723.662s-.645,1.037-.645,1.787c0,.727.211,1.312.633,1.758s1.008.668,1.758.668c.734,0,1.311-.215,1.729-.645s.627-1.023.627-1.781Zm-.352-7.441c0-.664-.176-1.197-.527-1.6s-.848-.604-1.488-.604c-.633,0-1.125.195-1.477.586s-.527.93-.527,1.617c0,.68.176,1.227.527,1.641s.848.621,1.488.621,1.135-.207,1.482-.621.521-.961.521-1.641Z" fill="#802523"/><path d="m638.361,118.056h-11.695v-2.32l5.52-5.883c.758-.828,1.318-1.551,1.682-2.168s.545-1.203.545-1.758c0-.758-.191-1.354-.574-1.787s-.93-.65-1.641-.65c-.766,0-1.369.264-1.811.791s-.662,1.221-.662,2.08h-3.398c0-1.039.248-1.988.744-2.848s1.197-1.533,2.104-2.021,1.934-.732,3.082-.732c1.758,0,3.123.422,4.096,1.266s1.459,2.035,1.459,3.574c0,.844-.219,1.703-.656,2.578s-1.188,1.895-2.25,3.059l-3.879,4.09h7.336v2.73Z" fill="#802523"/><path d="m657.967,111.833c0,1.953-.443,3.518-1.33,4.693s-2.084,1.764-3.592,1.764c-1.281,0-2.316-.445-3.105-1.336v5.977h-3.387v-17.555h3.141l.117,1.242c.82-.984,1.891-1.477,3.211-1.477,1.562,0,2.777.578,3.645,1.734s1.301,2.75,1.301,4.781v.176Zm-3.387-.246c0-1.18-.209-2.09-.627-2.73s-1.025-.961-1.822-.961c-1.062,0-1.793.406-2.191,1.219v5.191c.414.836,1.152,1.254,2.215,1.254,1.617,0,2.426-1.324,2.426-3.973Z" fill="#802523"/><path d="m616.086,151.776h-3.133v-13.055l-3.74,1.254v-2.754l6.537-2.531h.336v17.086Z"/><path d="m624.401,141.744h1.67c.795,0,1.384-.215,1.767-.645s.575-1,.575-1.711c0-.688-.19-1.223-.569-1.605-.38-.383-.902-.574-1.566-.574-.601,0-1.103.178-1.507.533-.405.355-.607.818-.607,1.389h-3.133c0-.891.222-1.689.666-2.396s1.066-1.26,1.865-1.658c.798-.398,1.679-.598,2.64-.598,1.669,0,2.978.432,3.925,1.295.946.863,1.42,2.053,1.42,3.568,0,.781-.221,1.5-.661,2.156-.441.656-1.02,1.16-1.735,1.512.89.344,1.553.859,1.99,1.547.437.688.655,1.5.655,2.438,0,1.516-.512,2.73-1.534,3.645s-2.376,1.371-4.06,1.371c-1.576,0-2.864-.449-3.865-1.348s-1.501-2.086-1.501-3.562h3.133c0,.641.223,1.164.667,1.57s.992.609,1.643.609c.744,0,1.328-.213,1.75-.639.423-.426.635-.99.635-1.693,0-1.703-.867-2.555-2.602-2.555h-1.659v-2.648Z"/><path d="m644.771,151.776h-10.819v-2.32l5.106-5.883c.701-.828,1.22-1.551,1.556-2.168s.504-1.203.504-1.758c0-.758-.177-1.354-.531-1.787-.354-.434-.86-.65-1.518-.65-.708,0-1.267.264-1.675.791s-.612,1.221-.612,2.08h-3.145c0-1.039.229-1.988.688-2.848s1.107-1.533,1.946-2.021c.838-.488,1.789-.732,2.852-.732,1.626,0,2.889.422,3.789,1.266.899.844,1.35,2.035,1.35,3.574,0,.844-.203,1.703-.607,2.578-.405.875-1.099,1.895-2.081,3.059l-3.589,4.09h6.786v2.73Z"/><path d="m655.233,139.096l.098,1.465c.839-1.133,1.963-1.699,3.372-1.699,1.243,0,2.168.395,2.775,1.184.606.789.918,1.969.933,3.539v8.191h-3.134v-8.109c0-.719-.145-1.24-.434-1.564s-.77-.486-1.441-.486c-.882,0-1.543.406-1.984,1.219v8.941h-3.133v-12.68h2.948Z"/><path d="m600.998,236.136h-11.18v-1.559l5.906-6.562c.875-.992,1.479-1.799,1.811-2.42s.498-1.264.498-1.928c0-.891-.27-1.621-.809-2.191s-1.258-.855-2.156-.855c-1.078,0-1.916.307-2.514.92s-.896,1.467-.896,2.561h-2.168c0-1.57.506-2.84,1.518-3.809s2.365-1.453,4.061-1.453c1.586,0,2.84.416,3.762,1.248s1.383,1.939,1.383,3.322c0,1.68-1.07,3.68-3.211,6l-4.57,4.957h8.566v1.77Z"/><path d="m610.42,236.136h-2.18v-14.449l-4.371,1.605v-1.969l6.211-2.332h.34v17.145Z"/><path d="m625.924,230.405h2.367v1.77h-2.367v3.961h-2.18v-3.961h-7.77v-1.277l7.641-11.824h2.309v11.332Zm-7.488,0h5.309v-8.367l-.258.469-5.051,7.898Z"/><path d="m613.643,256.663c0,.852-.225,1.609-.674,2.273s-1.057,1.184-1.822,1.559c.891.383,1.596.941,2.115,1.676s.779,1.566.779,2.496c0,1.477-.498,2.652-1.494,3.527s-2.307,1.312-3.932,1.312c-1.641,0-2.955-.439-3.943-1.318s-1.482-2.053-1.482-3.521c0-.922.252-1.754.756-2.496s1.201-1.305,2.092-1.688c-.758-.375-1.355-.895-1.793-1.559s-.656-1.418-.656-2.262c0-1.438.461-2.578,1.383-3.422s2.137-1.266,3.645-1.266c1.5,0,2.713.422,3.639,1.266s1.389,1.984,1.389,3.422Zm-1.77,7.957c0-.953-.303-1.73-.908-2.332s-1.396-.902-2.373-.902-1.76.297-2.35.891-.885,1.375-.885,2.344.287,1.73.861,2.285,1.373.832,2.396.832c1.016,0,1.812-.279,2.391-.838s.867-1.318.867-2.279Zm-3.258-10.863c-.852,0-1.541.264-2.068.791s-.791,1.244-.791,2.15c0,.867.26,1.568.779,2.104s1.213.803,2.08.803,1.561-.268,2.08-.803.779-1.236.779-2.104-.27-1.574-.809-2.121-1.223-.82-2.051-.82Z" fill="#802523"/><path d="m627.951,269.273h-11.18v-1.559l5.906-6.562c.875-.992,1.479-1.799,1.811-2.42s.498-1.264.498-1.928c0-.891-.27-1.621-.809-2.191s-1.258-.855-2.156-.855c-1.078,0-1.916.307-2.514.92s-.896,1.467-.896,2.561h-2.168c0-1.57.506-2.84,1.518-3.809s2.365-1.453,4.061-1.453c1.586,0,2.84.416,3.762,1.248s1.383,1.939,1.383,3.322c0,1.68-1.07,3.68-3.211,6l-4.57,4.957h8.566v1.77Z" fill="#802523"/><path d="m642.178,249.748v10.02h-5.859v-28.438h11.094c2.135,0,4.014.391,5.635,1.172s2.867,1.892,3.74,3.33c.872,1.438,1.309,3.076,1.309,4.912,0,2.786-.954,4.983-2.861,6.592-1.908,1.608-4.548,2.412-7.92,2.412h-5.137Zm0-4.746h5.234c1.549,0,2.73-.364,3.545-1.094.813-.729,1.221-1.771,1.221-3.125,0-1.394-.41-2.52-1.23-3.379s-1.953-1.302-3.398-1.328h-5.371v8.926Z"/><path d="m680.791,249.397c0,3.386-.723,6.025-2.168,7.92s-3.464,2.842-6.055,2.842c-2.292,0-4.121-.879-5.488-2.637l-.254,2.246h-5.078v-30h5.645v10.762c1.302-1.523,3.014-2.285,5.137-2.285,2.578,0,4.6.947,6.064,2.842s2.197,4.561,2.197,7.998v.312Zm-5.645-.41c0-2.136-.339-3.694-1.016-4.678-.678-.983-1.687-1.475-3.027-1.475-1.797,0-3.034.735-3.711,2.207v8.34c.689,1.484,1.939,2.227,3.75,2.227,1.822,0,3.021-.898,3.594-2.695.273-.859.41-2.168.41-3.926Z"/><circle cx="331.713" cy="125.318" r="72.5" fill="#a5c3c9"/><path d="m320.48,105.528c0,.828-.207,1.562-.621,2.203s-.984,1.152-1.711,1.535c.828.398,1.484.947,1.969,1.646s.727,1.521.727,2.467c0,1.516-.516,2.713-1.547,3.592s-2.434,1.318-4.207,1.318-3.18-.441-4.219-1.324-1.559-2.078-1.559-3.586c0-.945.242-1.77.727-2.473s1.137-1.25,1.957-1.641c-.727-.383-1.295-.895-1.705-1.535s-.615-1.375-.615-2.203c0-1.453.484-2.611,1.453-3.475s2.285-1.295,3.949-1.295,2.971.428,3.943,1.283,1.459,2.018,1.459,3.486Zm-3.035,7.605c0-.742-.215-1.336-.645-1.781s-1.008-.668-1.734-.668c-.719,0-1.293.221-1.723.662s-.645,1.037-.645,1.787c0,.727.211,1.312.633,1.758s1.008.668,1.758.668c.734,0,1.311-.215,1.729-.645s.627-1.023.627-1.781Zm-.352-7.441c0-.664-.176-1.197-.527-1.6s-.848-.604-1.488-.604c-.633,0-1.125.195-1.477.586s-.527.93-.527,1.617c0,.68.176,1.227.527,1.641s.848.621,1.488.621,1.135-.207,1.482-.621.521-.961.521-1.641Z" fill="#802523"/><path d="m333.148,111.634h1.934v2.73h-1.934v3.691h-3.387v-3.691h-6.996l-.152-2.133,7.113-11.238h3.422v10.641Zm-7.16,0h3.773v-6.023l-.223.387-3.551,5.637Z" fill="#802523"/><path d="m354.43,111.833c0,1.953-.443,3.518-1.33,4.693s-2.084,1.764-3.592,1.764c-1.281,0-2.316-.445-3.105-1.336v5.977h-3.387v-17.555h3.141l.117,1.242c.82-.984,1.891-1.477,3.211-1.477,1.562,0,2.777.578,3.645,1.734s1.301,2.75,1.301,4.781v.176Zm-3.387-.246c0-1.18-.209-2.09-.627-2.73s-1.025-.961-1.822-.961c-1.062,0-1.793.406-2.191,1.219v5.191c.414.836,1.152,1.254,2.215,1.254,1.617,0,2.426-1.324,2.426-3.973Z" fill="#802523"/><path d="m312.308,146.856h-3.133v-13.055l-3.74,1.254v-2.754l6.537-2.531h.336v17.086Z"/><path d="m320.623,136.824h1.669c.795,0,1.384-.215,1.768-.645.383-.43.574-1,.574-1.711,0-.688-.189-1.223-.569-1.605-.379-.383-.901-.574-1.566-.574-.6,0-1.103.178-1.507.533-.405.355-.607.818-.607,1.389h-3.133c0-.891.223-1.689.667-2.396s1.065-1.26,1.864-1.658,1.679-.598,2.64-.598c1.67,0,2.978.432,3.925,1.295s1.42,2.053,1.42,3.568c0,.781-.221,1.5-.661,2.156s-1.019,1.16-1.734,1.512c.889.344,1.552.859,1.989,1.547s.656,1.5.656,2.438c0,1.516-.512,2.73-1.534,3.645-1.023.914-2.376,1.371-4.061,1.371-1.575,0-2.863-.449-3.864-1.348s-1.502-2.086-1.502-3.562h3.134c0,.641.222,1.164.666,1.57s.992.609,1.643.609c.744,0,1.328-.213,1.751-.639s.634-.99.634-1.693c0-1.703-.867-2.555-2.602-2.555h-1.658v-2.648Z"/><path d="m339.442,140.434h1.789v2.73h-1.789v3.691h-3.133v-3.691h-6.472l-.142-2.133,6.581-11.238h3.165v10.641Zm-6.623,0h3.49v-6.023l-.206.387-3.284,5.637Z"/><path d="m351.455,134.176l.098,1.465c.838-1.133,1.962-1.699,3.371-1.699,1.243,0,2.169.395,2.775,1.184.607.789.918,1.969.933,3.539v8.191h-3.133v-8.109c0-.719-.145-1.24-.434-1.564s-.771-.486-1.442-.486c-.882,0-1.543.406-1.983,1.219v8.941h-3.134v-12.68h2.949Z"/><path d="m297.539,236.136h-11.18v-1.559l5.906-6.562c.875-.992,1.479-1.799,1.811-2.42s.498-1.264.498-1.928c0-.891-.27-1.621-.809-2.191s-1.258-.855-2.156-.855c-1.078,0-1.916.307-2.514.92s-.896,1.467-.896,2.561h-2.168c0-1.57.506-2.84,1.518-3.809s2.365-1.453,4.061-1.453c1.586,0,2.84.416,3.762,1.248s1.383,1.939,1.383,3.322c0,1.68-1.07,3.68-3.211,6l-4.57,4.957h8.566v1.77Z"/><path d="m306.961,236.136h-2.18v-14.449l-4.371,1.605v-1.969l6.211-2.332h.34v17.145Z"/><path d="m323.66,223.527c0,.852-.225,1.609-.674,2.273s-1.057,1.184-1.822,1.559c.891.383,1.596.941,2.115,1.676s.779,1.566.779,2.496c0,1.477-.498,2.652-1.494,3.527s-2.307,1.312-3.932,1.312c-1.641,0-2.955-.439-3.943-1.318s-1.482-2.053-1.482-3.521c0-.922.252-1.754.756-2.496s1.201-1.305,2.092-1.688c-.758-.375-1.355-.895-1.793-1.559s-.656-1.418-.656-2.262c0-1.438.461-2.578,1.383-3.422s2.137-1.266,3.645-1.266c1.5,0,2.713.422,3.639,1.266s1.389,1.984,1.389,3.422Zm-1.77,7.957c0-.953-.303-1.73-.908-2.332s-1.396-.902-2.373-.902-1.76.297-2.35.891-.885,1.375-.885,2.344.287,1.73.861,2.285,1.373.832,2.396.832c1.016,0,1.812-.279,2.391-.838s.867-1.318.867-2.279Zm-3.258-10.863c-.852,0-1.541.264-2.068.791s-.791,1.244-.791,2.15c0,.867.26,1.568.779,2.104s1.213.803,2.08.803,1.561-.268,2.08-.803.779-1.236.779-2.104-.27-1.574-.809-2.121-1.223-.82-2.051-.82Z"/><path d="m310.184,256.663c0,.852-.225,1.609-.674,2.273s-1.057,1.184-1.822,1.559c.891.383,1.596.941,2.115,1.676s.779,1.566.779,2.496c0,1.477-.498,2.652-1.494,3.527s-2.307,1.312-3.932,1.312c-1.641,0-2.955-.439-3.943-1.318s-1.482-2.053-1.482-3.521c0-.922.252-1.754.756-2.496s1.201-1.305,2.092-1.688c-.758-.375-1.355-.895-1.793-1.559s-.656-1.418-.656-2.262c0-1.438.461-2.578,1.383-3.422s2.137-1.266,3.645-1.266c1.5,0,2.713.422,3.639,1.266s1.389,1.984,1.389,3.422Zm-1.77,7.957c0-.953-.303-1.73-.908-2.332s-1.396-.902-2.373-.902-1.76.297-2.35.891-.885,1.375-.885,2.344.287,1.73.861,2.285,1.373.832,2.396.832c1.016,0,1.812-.279,2.391-.838s.867-1.318.867-2.279Zm-3.258-10.863c-.852,0-1.541.264-2.068.791s-.791,1.244-.791,2.15c0,.867.26,1.568.779,2.104s1.213.803,2.08.803,1.561-.268,2.08-.803.779-1.236.779-2.104-.27-1.574-.809-2.121-1.223-.82-2.051-.82Z" fill="#802523"/><path d="m322.465,263.542h2.367v1.77h-2.367v3.961h-2.18v-3.961h-7.77v-1.277l7.641-11.824h2.309v11.332Zm-7.488,0h5.309v-8.367l-.258.469-5.051,7.898Z" fill="#802523"/><path d="m338.719,249.748v10.02h-5.859v-28.438h11.094c2.135,0,4.014.391,5.635,1.172s2.867,1.892,3.74,3.33c.872,1.438,1.309,3.076,1.309,4.912,0,2.786-.954,4.983-2.861,6.592-1.908,1.608-4.548,2.412-7.92,2.412h-5.137Zm0-4.746h5.234c1.549,0,2.73-.364,3.545-1.094.813-.729,1.221-1.771,1.221-3.125,0-1.394-.41-2.52-1.23-3.379s-1.953-1.302-3.398-1.328h-5.371v8.926Z"/><path d="m357.156,249.006c0-2.097.403-3.965,1.211-5.605.807-1.641,1.969-2.91,3.486-3.809,1.517-.898,3.277-1.348,5.283-1.348,2.852,0,5.179.872,6.982,2.617,1.803,1.745,2.809,4.114,3.018,7.109l.039,1.445c0,3.242-.905,5.843-2.715,7.803-1.811,1.96-4.238,2.939-7.285,2.939s-5.479-.977-7.295-2.93-2.725-4.609-2.725-7.969v-.254Zm5.645.4c0,2.009.377,3.544,1.133,4.607.755,1.062,1.836,1.594,3.242,1.594,1.367,0,2.435-.525,3.203-1.574.768-1.051,1.152-2.729,1.152-5.037,0-1.97-.385-3.495-1.152-4.578-.769-1.082-1.85-1.623-3.242-1.623-1.381,0-2.448.538-3.203,1.613-.756,1.076-1.133,2.742-1.133,4.998Z"/><path d="m746.204,248.652v11.396h-4.128v-11.396h-11.266v-3.956h11.266v-11.395h4.128v11.395h11.267v3.956h-11.267Z"/><line x1="430.108" y1="135.726" x2="518.626" y2="135.726" fill="none" stroke="#000" stroke-miterlimit="10" stroke-width="2"/><polygon points="516.292 143.704 530.108 135.726 516.292 127.748 516.292 143.704"/><line x1="405.108" y1="249.411" x2="543.626" y2="249.411" fill="none" stroke="#000" stroke-miterlimit="10" stroke-width="2"/><polygon points="541.292 257.389 555.108 249.411 541.292 241.432 541.292 257.389"/></svg>