<?xml version="1.0" encoding="UTF-8"?>
<svg id="Layer_1" data-name="Layer 1" xmlns="http://www.w3.org/2000/svg" width="570" height="405" xmlns:xlink="http://www.w3.org/1999/xlink" viewBox="0 0 570 405">
  <defs>
    <style>
      .cls-1 {
        fill: none;
      }

      .cls-2 {
        clip-path: url(#clippath);
      }

      .cls-3 {
        fill: #fad9d0;
      }

      .cls-4 {
        fill: #060f19;
      }

      .cls-5 {
        fill: #001415;
      }

      .cls-6 {
        fill: #fff6ef;
      }

      .cls-7 {
        fill: #ffebe6;
      }

      .cls-8 {
        fill: #edc7be;
      }

      .cls-9 {
        fill: #93b2a9;
      }

      .cls-10 {
        fill: #86b78c;
      }

      .cls-11 {
        fill: #b25a42;
      }

      .cls-12 {
        fill: #adb3bc;
      }

      .cls-13 {
        fill: #afcf9b;
      }

      .cls-14 {
        fill: #bcf0eb;
      }

      .cls-15 {
        fill: #c1937e;
      }

      .cls-16 {
        fill: #c47a51;
      }

      .cls-17 {
        fill: #aacfa6;
      }

      .cls-18 {
        fill: #212628;
      }

      .cls-19 {
        fill: #374247;
      }

      .cls-20 {
        fill: #441f23;
      }

      .cls-21 {
        fill: #a2926d;
      }

      .cls-22 {
        fill: #6ca370;
      }

      .cls-23 {
        fill: #586366;
      }

      .cls-24 {
        fill: #3a1316;
      }

      .cls-25 {
        fill: #526068;
      }

      .cls-26 {
        fill: #7a9d91;
      }

      .cls-27 {
        clip-path: url(#clippath-1);
      }
    </style>
    <clipPath id="clippath">
      <path class="cls-1" d="m13.42,58.29c8.95-12.5,19.23-22.37,30.51-30.12C100.36-10.62,181.82,3.44,246.75,5.63c9.49.57,18.97,1.02,28.45,1.38,90.8,12.99,201.8-36.01,272.8,32.99,45,46,2,119,12.4,178.91.37,9.23.84,18.44,1.34,27.67,1.51,27.67,3.26,55.42,2.26,83.42-1,52-56,65-99,70-67,7-132.99-5.58-198.6-4.47-85.09,1.44-247.08,28.01-259.4-49.53-11.65-73.32,6-146-4-222-2-15-1-29,2.08-43.85,1.74-8.86,4.43-16.39,8.35-21.86Z"/>
    </clipPath>
    <clipPath id="clippath-1">
      <rect class="cls-1" x="341.43" y="78.82" width="181.76" height="104.13"/>
    </clipPath>
  </defs>
  <g class="cls-2">
    <rect class="cls-3" x="70.78" y="-23.34" width="540.24" height="441.88"/>
    <g>
      <rect class="cls-15" x="372.14" y="31.91" width="120.34" height="197.97" transform="translate(563.2 -301.42) rotate(90)"/>
      <g class="cls-27">
        <rect class="cls-6" x="341.43" y="78.82" width="195.07" height="104.13"/>
        <rect class="cls-14" x="342.09" y="127.18" width="196.86" height="54.98"/>
        <path class="cls-13" d="m338.16,136.99c8.76-3.09,17.83,3.51,25.36,6.98,20.04,9.25,46.23,1.69,65.02,13.4,13.1,8.16,29.92,9.24,45.03,9.57,7.71.17,23.21-2.33,29.05,3.43,14.1.84,28.34,2.95,42.57,2.95,1.95,0,8-1.06,9.38.57,1.19,1.41-.63,10.37-1.09,12.43-14.07,5.21-30.2,3.98-44.88,4.13-37.77.38-75.54-.02-113.31.08-19.84.05-40.93-3.54-60.65-1.06.46-16.95-.66-35.86,3.51-52.47Z"/>
        <path class="cls-26" d="m377.44,129.14c8.57-3.36,15.42-9.72,22.18-15.76,4.85-4.34,9.06-12.63,15.76-14.21,8.37-1.98,15.43,5.82,23.07,4.34,3.11-.6,6.43-3.94,9.7-3.75s8,3.67,11.76,4.22c3.38.5,8.11,1.64,11.49.63,4.07-1.22,5.77-5.08,8.41-8.08,5.87-6.63,11.79-9.24,20.35-7.84,5.67.93,11.79,2.44,17.32,1.43,5.17-.94,10.6-2.33,15.84-2.48s5.09-.25,5.6,5.23c.72,7.72,2.19,20.46,0,28.14-2.42,8.53-13.91,11.93-21.35,13.56-17.12,3.75-33.95,4.31-51.37,3.88-5.97-.15-13.78.72-19.34-.92-3.35-.99-6.19-3.47-9.7-4.37-18.64-4.76-38.82-.26-59.71-4.04Z"/>
        <path class="cls-9" d="m453.04,136.5c-10.95-.09-12.19-8.36-20.08-12.65-6.07,5.02-8.8,3.88-16.42,2.94-1.93-.24-4.44.34-6.17-.9-2.97-2.13-2.04-5.9-5.72-7.94-4.03-2.24-7.77-.47-10.02,2.91-8.48-6.37-15.25-17.17-27.48-10.52-5.12,2.78-5.89,5.93-11.78,4.55-4.16-.97-5.87-4.43-10.12-5.65-3.44-.99-7.35.53-10.94.19-.33,6.57-.58,13.3-.79,19.85-.09,2.82-.72,5,1.48,6.76,4.33,3.46,18.12-.32,23.45-.89,15.22-1.65,30.41-2.25,45.59-1.58,5.61.25,11.36-.7,16.89-.4,4.15.23,8.47,1.65,12.59,2.25,6.07.87,12.63,2.35,19.52,1.09Z"/>
        <path class="cls-10" d="m539.44,100.67c-.8-4.43-.63-13.06-5.33-15.09-.71,5.76.72,16.4-4,20.55-.98-1.09-2.39-1.89-3.05-3.39-.68,1.59-1.66,3.06-2.86,4.28-2.52-1.26-4.36,1.05-6.71,1.94-3.97-4.33-10.7-8.72-13.89-2.01-.51,1.07.96,2.28.54,3.26-.6,1.39-1.82,1.36-2.52,2.38-.37.54-2.38,3.18-2.71,3.51-10.83,10.93-6.34-4.76-9.88-10.48-2.54,3.73-3,22.43-10.43,18.66-3.6,3.34-6.14,3.53-10.1,5.33-1.95.89-4.14,2.94-6.12,3.84,11.35,1.15,23.2,1.7,34.2-.75,3.36-.75,6.28-1.33,9.58-2.52,5.07-1.84,9.61-4.27,14.55-6.34,8.71-3.65,18.01-1.2,26.69-4.13-.43-6.66,3.35-22.56-7.95-19.03Z"/>
        <path class="cls-17" d="m550.24,114.9c-7.42,2.8-16.41,2.75-24.32,4.45-6.83,1.46-12.87,3.87-19.15,6.79-14.61,6.79-29.14,5.51-44.75,6.91-4.73.42-8.58,2.05-13.31,2.39s-16.22.2-20.22,3.42c22.83.72,45.81,1.75,68.69,2.6,10.29.38,18.81,4.31,28.73,5.49,7.45.89,15.25.5,22.7.83,1.84-9.94.84-19.56,1.62-32.88Z"/>
        <path class="cls-22" d="m365.16,71.7c-.52,6.69-3.7,12.43-7.37,17.75-1.92,2.77-4.71,5.8-4.74,9.19,14.24-.6.42,7.93-1.46,13.36,1.55,1.26,3.44.56,5.18.57-.53,4.89-8.32,3.16-11.63,2.85-2.56,5.68,2.06,10.5,7.26,11.35-5.25,5.28-8.68,15.22,1.92,17.2.21,4.57-4.35,5.14-7.22,7.63-3.42,2.96-5.1,6.75-5.68,10.98,3.19,1.2,7.24.35,10.49-.54-4.56,3.92-16.94,13.09-6.12,17.98,8.29,3.75,13.76-2,19.23-6.18,1.69,2.06,8.76,9.5,12.33,7.11,2.44-1.63.27-6.16,2.42-7.58,2.03-1.34,28.32,14.01,24.82-.51-.87-3.6-6.68-5.52-6.32-9.35s8.13-6.43,5.45-11.71-8.07,2.04-12.17,2.99c-2.01-5.04,5.28-8.06,6.1-12.93-1,0-2.62-.78-3.87-.51,1.32-2.1,3.71-3.65,4.78-5.92,2.28-4.82.6-2.58-.94-4.85-1.74-2.56-4.71-1.77.05-6.4-3.3-2.31-9.5-2.88-13.48-4.89,1.38-1.86,2.72-3.91,3.7-6.07-2.4-1.24.12-3.22-.24-5.6-.86-5.71-3.91-3.96-7.74-2.06-.57-4.28,3.16-6.74,5.3-9.9-1.54-1.43-3.45-2.35-5.39-3.22-.29.87-1.67,2.31-1.79,3.38-1.52-1.02-2.98-2.23-4.23-3.5,1.26-2.23,3.27-3.44,4.74-5.51-.83-2.38-2.76-4.77-5.36-4.4-3.13-3.96-2.85-10.78-6.99-13.54-.32.71-.88,1.59-1.06,2.82Z"/>
        <path class="cls-21" d="m495.94,160.6c-15.56,1.92-31.36,2.49-47.03,3.29-12.2.62-24.45-.77-36.37.76-2.4,4.32-2.41,10.9,2.46,13.79,4.6,2.73,10.2-1.01,14.69-1.43,16.88-1.61,32.09-1.22,48.65.96,3.16.42,19.92,3.96,18.31-3.59-5.62,1.15-12.21-.03-18.12-.81-4.12-.54-11.26-.54-14.17-2.62,8.2-.09,16.77-2.09,24.77-2.49,3.05-.15,16.05,1.81,17.83-.99,4-6.31-8.5-7.18-11.02-6.87Z"/>
      </g>
    </g>
    <rect class="cls-7" x="-6.81" y="-22" width="276.01" height="386.37"/>
    <rect class="cls-8" x="-18.49" y="356.94" width="647.31" height="78.76"/>
    <rect class="cls-8" x="-6.81" y="306.44" width="276.01" height="57.93"/>
    <g id="dad">
      <g>
        <path class="cls-16" d="m217.98,137.14s-20.96-.18-18.58,20.37c2.2,18.98,4.83,33.78,10.84,40.4,4.05,4.45,14.97,3.97,14.71-7.75-.14-6.46-6.84-50.61-6.84-50.61l-.14-2.41Z"/>
        <path class="cls-16" d="m206.05,187.74c1.51,6.56,4.6,14.01,11.41,13.76,10.18-.38,25.83-2.02,34.8-5.17,2.29-.81,7.81-3.2,11.93-5.9,6.74-4.41.33-9.68-3.25-9.41-3.59.27-49.77,3.19-49.77,3.19l-5.13,3.54Z"/>
        <path class="cls-12" d="m217.16,134.91c-5.23-5.86-8.52-3.5-15.57-.75-11.64,4.53-.7,43.78-.7,43.78,0,0,9.64-1.15,16.12-1.89,6.48-.74,9.16-1.51,9.16-1.51,0,0-3.77-33.77-8.99-39.63Z"/>
        <path class="cls-16" d="m259.14,192.9c.92-.33,6.85-3.79,7.91-5.64.83-1.46.36-6.08.99-10.52.92-6.56,1.78-12.4,1.68-13.13-.18-1.37-2.97-.84-2.97-.84,0,0-.67.29-.86,1.18-.15.72-6.67,13.97-8.65,17.58-1.02,1.85-7.55,3.23-7.55,3.23l9.45,8.15Z"/>
        <path class="cls-16" d="m263.85,181.39l2.56-5.24s.5-2.72.74-3.41c.1-.29.68-.35,1.3-.33.98.03,1.87.84,1.95,1.8.29,3.52-1.39,10.81-2.2,12.08-2.62,4.1-5.51,4.9-5.51,4.9l1.15-9.8Z"/>
        <path class="cls-24" d="m268.56,172.3c-.05,1.11-.18,1.27-.61,2.18-.52,1.27-1.24,3.01-1.86,4.23-.35.71-.54,1.46-1.66,1.93-.1.05-.22,0-.28-.09-.62-1.05-.28-1.8-.07-2.59.42-1.58,2.19-6.79,4.4-5.94.12.05.1.18.08.28h0Z"/>
      </g>
      <path class="cls-12" d="m215.13,133.75s2.5-5.29-8.81-12.5c-10.77-6.87-13.2-7.83-14.77-8.32s-6.34,4.47-6.34,4.47l11.76,12.57,18.15,3.78Z"/>
      <path class="cls-16" d="m163.9,218.51s-44.09,65.7-55.45,67.24c-7.49,1.02-13.91-5.37-10.8-16.25,3.1-10.88,33.59-59.38,36.48-62.87s21.15-11.24,29.78,11.89Z"/>
      <path class="cls-16" d="m111.36,277.87c1.16,2.82.43,6.06-1.84,8.1-11.85,10.59-49.29,44.41-57.6,50.89-4.02,3.13-12.59-7.07-12.59-7.07,0,0,29.78-49.63,58.79-62.71,6.39-2.88,10.94,5.17,13.24,10.78Z"/>
      <path class="cls-18" d="m53.27,336.6c.49-.47,1.76-1.92,1.76-1.92,0,0-7.45-4.46-15.89-5.57-1.97,4.46-3.98,9.63-4.28,12.17s14.27.29,14.27.29l4.14-4.97Z"/>
      <path class="cls-25" d="m128.5,270.83c1.24-.39,41.84-38.52,43.76-45.03.36-1.23-8.26-26.5-18.28-30.61-12.23-5.02-26.34,11.11-26.34,11.11,0,0-24.31,41.72-23.98,43.06s18.03,23.59,24.83,21.46Z"/>
      <path class="cls-16" d="m163.99,213.51s52.16,42.14,52.26,53.6c.07,7.55-2.09,18.19-12.49,13.75-10.4-4.45-52.2-36-55.31-39.3-3.11-3.3-8.49-22.4,15.53-28.05Z"/>
      <path class="cls-16" d="m212.26,270.03c2.17,2.15,2.76,5.42,1.45,8.18-6.8,14.36-28.54,60.17-33.68,69.37-2.48,4.45-13.51-3.98-13.51-3.98,0,0,7.7-55.01,29.34-78.35,4.77-5.14,12.09.51,16.39,4.78Z"/>
      <path class="cls-12" d="m202.15,119.74s-11.83-8.24-25.06-5.32c-2.78.61-10.6,7.21-15.48,18.57-4.27,9.95-9.11,24.28-13.07,34.53-3.35,8.69-6.2,16.34-8.17,20.22-1.03,2.03.61,6.48.35,7.35-2.06,6.76,35.35,21.42,43.33,19.35,3.68-.96,7.23-10.82,8.62-13.71,7.02-14.58,29.75-51.15,24.21-66.16-3.03-8.21-14.74-14.84-14.74-14.84Z"/>
      <path class="cls-18" d="m181.6,346.73c.26-.62.66-3.82.66-3.82l-14.87-4.88-2.4,8.19,14.72,6.7,1.89-6.19Z"/>
      <path class="cls-16" d="m207.63,103.91s-13.58,11.26-13.97,11.59,1.56,4.86,5.9,9.36c4.34,4.5,7.85,7.11,7.85,7.11l8.47-6.27-8.26-21.78Z"/>
      <g>
        <path class="cls-16" d="m233.04,119.31c-2.15,1.97-11.07,8.38-13.14,10.04-5.88,4.72-9.53-2.42-13.86-7.16-3-3.27-5.65-5.57-4.65-9.58.49-1.97,3.66-5.5,4.6-7.52,1.06-2.26,1.22-7.73,6.43-12.49,9.13-8.36,18.85-4.41,24.65,2.54,6.88,8.24,5.53,15.42-4.04,24.17Z"/>
        <path class="cls-16" d="m216.04,105.46c1.28-1.41,2.44-3.62,2.23-4.96s-1.31-2.2-2.8-2.2c-.88,0-1.93.68-2.83,1.36-1,.76-1.7,1.87-2.07,2.92-.65,1.82.15,5.52,1.43,6.23,1.28.71,2.23-1.5,3.78-3.07"/>
        <path class="cls-24" d="m215.2,100.67c1.07-.09,1.11.41,1.33.78.21.39.36.82.42,1.29.05.96-.09,2.66-1.51,2.39-.11-.02-.19-.08-.24-.17-.29-.41-.41-.59-.48-.76-.08-.71-.21-1.34-.24-2.09,0-.35-.25-.55.47-1.3.07-.08.16-.14.26-.14h0Z"/>
        <path class="cls-11" d="m221.79,127.49c-.92.84-2.39.5-3.04-.2s-.9-2.5.01-3.34,1.8-.27,2.45.44,1.49,2.27.58,3.11Z"/>
        <path class="cls-24" d="m217.76,123.15c.82-.76,1.4-.4,2-.11,1.38.57,2.07,2.28,2.33,3.53,0,.18-.03.47,0,.98-.13.58-1.1.48-1.39.24-.67-.5-1.06-1.56-1.44-2.08-.2-.31-.39-.57-.68-.86-.29-.32-.72-.31-.9-1.42-.02-.1.01-.21.08-.28h0Z"/>
        <path class="cls-5" d="m225.01,114.42c1.04.21,1,.54,1.26.87.42.55.96,1.29,1.35,1.86.24.33.57.51.43,1.51-.16.47-.96.52-1.2.45-1.22-.53-2.19-1.63-2.55-2.92-.21-.67-.34-1.17.42-1.73.09-.07.19-.06.29-.04h0Z"/>
        <path class="cls-16" d="m232.1,120.04s-1.53,4.87-2.26,6.42c-.15.31-.51.46-.82.32-1.22-.51-3.79-2.19-3.79-2.19"/>
        <path class="cls-24" d="m230.29,118.05c-1.71-1.93-1.18-4.21-2.26-6.13,0,0-.48-.78-.48-.78-.73-1.1.53-2.54,1.71-2.02,2.67,1.12,2.51,4.31,3.86,6.1,1.83,1.89-.94,4.66-2.83,2.83h0Z"/>
        <path class="cls-20" d="m219.37,129.68c-.22-.15-.72.66-1.82-.36-.98-.9-2.71-2.18-3.21-2.92-.91-1.34-2.62-2.91-1.97-4.32l1.66-4.36s-.75-.37-.82-2.17c-.08-1.8,2.68-7.89,2.68-7.89l-1-.44-1.84,2.71s-3.54,4.26-4.8,8.52c-.71,2.4.17,4.67,1.04,6.65.44,1,4.29,5.84,6.11,6.2s3.98-1.62,3.98-1.62Z"/>
        <path class="cls-20" d="m223.63,126.49c-1.02-1.41-2.98-3.11-2.98-3.11,0,0-2.3-2.52-4.07-1.56,0,0-.84-1.21.09-2.07.64-.59,1.3-.38,1.74-.27,1.71.42,4.21,3.56,4.54,3.78.16.11,1.18,1.01,2.02,2.23l-1.33,1Z"/>
        <path class="cls-24" d="m218.13,100.52c-1-.91-1.55-1.14-2.66-1.16-1.48.42-2.88,1.79-3.56,3.23-.48.77-.79,1.57-.71,2.54.19,1.3.51,2.39,1.35,3.52,0,0-.07.29-.07.29-.92.23-1.86-.4-2.41-1.1-1.32-1.82-1.42-4.39-.28-6.35.94-2.05,2.57-3.51,4.81-4.15,1.86-.54,4.68,1,3.8,3.14,0,0-.29.04-.29.04h0Z"/>
        <path class="cls-24" d="m207.85,106.72c-.78.63-.82.39-1.03.35-.19-.06-.36-.15-.5-.27-.14-.12-.24-.28-.33-.46-.09-.18-.27-.25.19-1.06.05-.09.12-.16.19-.22.74-.57.83-.4,1.02-.34.19.06.37.14.51.26.14.12.25.27.34.45.07.2.31.2-.19,1.07-.05.09-.12.16-.19.22,0,0,.07-.06,0,0Z"/>
      </g>
      <path class="cls-25" d="m204.97,246.76c-.35-1.25-37.35-42.89-43.8-45-1.22-.4-20.27-9.54-31.1,17.42-4.92,12.26,10.38,26.64,10.38,26.64,0,0,41.03,25.46,42.38,25.17s24.08-17.37,22.14-24.23Z"/>
      <g>
        <path class="cls-23" d="m200.74,354.71c-.63-4.68-8.87-4.85-14.31-7.9-2.22-1.25-1.43-3.45-4.22-4.07-6.9-1.55-6.41,1.73-6.66,3.14-.1.55-.58.95-1.15.93l-8.85-.36c-.55-.02-1.04.35-1.14.89-.33,1.73-.95,5.45-.56,7.14s1.3,1.57,1.71,1.73c.1.04,1.31,1.03,1.42,1.03l5.49-1.38c.38.03,7.74,1.86,10.09,2.02,2.88.19,18.54-.21,18.54-.21,0,0-.06-.7-.37-2.94Z"/>
        <path class="cls-4" d="m189.32,347.73c-.64.91-1.12.73-1.65.81-.52.06-1.03.11-1.52.15-1.34-.02-2.04.4-3.12-.21-.1-.04-.17-.13-.17-.24-.08-1.98,3.53-2.13,4.89-1.86.57.12,1.18.01,1.62,1.06.04.1.02.21-.04.29h0Z"/>
        <path class="cls-4" d="m191.95,348.72c-.38,1-.78.88-1.19,1.02-.4.12-.8.21-1.2.27-.59.07-1.15.12-1.72.11-.2-.04-.39-.19-.82-.45-.09-.05-.16-.13-.18-.24-.26-1.64,2.59-1.95,3.71-1.85.45.06.9-.12,1.38.84.05.1.05.2.01.29h0Z"/>
        <path class="cls-4" d="m186.32,345.83c-.63.99-1.23.86-1.84,1.01-1.44.32-2.9.49-4.3.84-.13.02-.29,0-.47-.02-.17-.02-.4-.06-.68-.12-.35-.14-.17-.69-.1-.94.22-.58.8-.89,1.32-1.12,1.29-.63,2.67-.85,4.06-.79.67.05,1.36-.14,2.02.85.06.09.06.21,0,.29h0Z"/>
        <path class="cls-18" d="m201.21,356.8c.1,1.81-1.12,1.55-1.12,1.55,0,0-1.49.66-8.32.87-9.74.3-11.66-.97-16.05-1.15-4.38-.18-8.78-.19-9.81-.52-1.37-.43-1.64-1.33-2.05-3.02,0,0,1.66,1.14,4.15,1.27,2.96.16,6.95-.69,8.8-.61s6.27,1.72,14.55,2.06c5.47.22,9.85-.45,9.85-.45Z"/>
      </g>
      <path class="cls-16" d="m193.47,120.3c-.65,1.68,6.57,5.66,7.38,8.33.9,2.97,6.18,7.85,6.18,7.85l3.92,5,2.29-4.85s-2.07-4.75-3-7.34c-.74-2.05-2.07-4.75-2.07-4.75l-14.7-4.24Z"/>
      <path class="cls-12" d="m164.34,179.56l-8.47,8.82s-6.21,8.77-7.45,11.41-1.37-2.8-1.37-2.8c0,0,9.76,4.32,22.38,13.4,8.21,5.91,18.17,16.41,18.17,16.41l7.07-34.82-30.33-12.42Z"/>
      <path class="cls-23" d="m182.47,217.48c1.9-6.59,4.81-12.71,7.43-18.97,2.63-6.25,5.26-12.49,7.79-18.78,4.95-12.53,10.33-25.05,13.12-38.25,0-.16.28-.18.29,0,.63,6.89-2.01,13.58-4.03,20.04-2.16,6.47-4.62,12.81-7.15,19.12-2.58,6.29-5.25,12.54-8.04,18.73-2.81,6.19-5.44,12.45-9.14,18.23-.08.14-.32.04-.27-.12h0Z"/>
      <path class="cls-12" d="m147.27,171.51s-9.33,12.79-13.7,19.77c-4.37,6.98-8.69,18.41-8.69,18.41l27.37-10.16,11.84-16.99-16.82-11.03Z"/>
      <path class="cls-12" d="m206.08,138.1l.95-1.62s.01-3.85-.92-6.44c-1.19-3.31-13.44-16.04-13.44-16.04l-6.81,9,20.22,15.11Z"/>
      <path class="cls-23" d="m187.41,116.25c4.02,6.09,8.25,12.42,12.97,17.97,0,0-1.55-.24-1.55-.24,1.77-1.16,3.59-2.25,5.43-3.31.52-.34,1.23-.18,1.53.36.15.27.18.58.09.85-.59,1.89-1.12,3.79-1.75,5.66l-.51-1.11c2.01,1.07,3.98,2.22,5.83,3.63.12.09.03.31-.13.27-2.27-.53-4.41-1.32-6.51-2.19-.41-.17-.62-.6-.53-1.02.45-1.96,1-3.89,1.5-5.83,0,0,1.63,1.22,1.63,1.22-.87.61-1.75,1.2-2.64,1.77-.9.59-1.8,1.18-2.72,1.73-.51.3-1.15.18-1.51-.27-2.39-2.94-4.62-5.95-6.69-9.11-2.06-3.16-4.19-6.46-4.73-10.29-.02-.15.19-.24.28-.1h0Z"/>
      <path class="cls-23" d="m159.23,191.81c2.56.94,4.42,2.69,6.41,4.32,3.96,3.32,7.75,6.89,10.86,11.06,1.16,1.59,2.34,3.25,2.88,5.19.18.65.26,1.34.28,2.01,0,.15-.2.21-.28.09-1.23-1.48-2.27-2.98-3.41-4.5-1.89-2.47-4.07-4.76-6.3-6.95-1.77-1.8-3.62-3.53-5.46-5.27-1.83-1.76-3.89-3.28-5.17-5.72-.07-.12.06-.28.2-.22h0Z"/>
      <path class="cls-23" d="m215.5,132.51c1.7,1.16,1.85,3.26,2.6,5,.34.93-.7,1.86-1.58,1.44-.76-.33-1.52-.69-2.27-1.06,0,0,1.7-1.11,1.7-1.11,0,1.13-.06,2.26-.1,3.39-.02.51-.43.91-.92.93-1.03.06-1.97,0-2.91-.6-.09-.06-.11-.17-.06-.26.8-.79,1.74-1.05,2.77-1.19,0,0-.93,1.05-.93,1.05-.09-1.09-.19-2.18-.24-3.26-.03-.65.47-1.2,1.13-1.23,1,.13,1.86.78,2.78,1.17,0,0-1.64,1.42-1.64,1.42-.34-1.87-1.38-3.7-.61-5.61.05-.11.18-.15.28-.09h0Z"/>
      <path class="cls-23" d="m212.38,160.23c-.38.93-.52.74-.71.8-.19.04-.37.05-.54.01-.17-.04-.33-.13-.49-.24-.15-.12-.34-.08-.32-1.02,0-.1.03-.2.06-.29.36-.86.52-.75.71-.79.19-.04.37-.06.54-.02.17.04.33.12.49.23.15.14.35.02.32,1.03,0,.1-.03.2-.06.29,0,0,.04-.09,0,0Z"/>
      <g>
        <path class="cls-23" d="m52.55,342.68s1.79-4.37.25-4.86-1.64.25-1.64.25l-1.91,3.33,3.3,1.28Z"/>
        <path class="cls-23" d="m67.41,348.04c-.77-4.65-10.16-4.97-15.37-7.8-2.12-1.15-6.09-.46-8.73-.97-6.53-1.27-9.24.97-9.24.97-.52,0-.91,1.37-.99,1.91-.24,1.75-.68,5.48-.25,7.16.45,1.71,1.28,1.51,1.67,1.66.1.04,1.27.97,1.37.97l5.09-1.6c.36.01,7.33,1.54,9.53,1.6,2.7.07,17.37-.97,17.37-.97,0,0-.09-.7-.46-2.92Z"/>
        <path class="cls-4" d="m52.48,340.6c-.07-.8.24-.98.8-1.01.69-.07,1.37.31,1.68.88.06.13.16.23.16.4.02.15-.28.75-.62.91-.82.37-.92.27-1.05.22-.36-.06-.38-.09-.51-.39-.04-.1-.09-.31-.33-.74-.03-.06-.13-.2-.13-.27h0Z"/>
        <path class="cls-18" d="m67.93,350.11c.16,1.8-.99,1.59-.99,1.59,0,0-1.37.73-7.77,1.21-9.12.69-10.97-.49-15.08-.49-4.11,0-8.23.17-9.21-.11-1.3-.37-1.58-1.26-2.04-2.94,0,0,1.6,1.07,3.94,1.1,2.78.03,6.49-.97,8.23-.97s5.94,1.46,13.71,1.46c5.13,0,9.21-.86,9.21-.86Z"/>
        <path class="cls-4" d="m55.3,341.57c.5-.86.57-.67.74-.71.16-.02.3-.01.43.04.13.05.23.16.33.28.1.13.25.11.03,1.01-.02.1-.06.19-.11.27-.47.79-.57.68-.73.7-.32.05-.58-.04-.77-.3-.09-.15-.27-.06-.03-1.02.02-.1.06-.19.11-.27h0Z"/>
      </g>
      <path class="cls-19" d="m148.47,250.4c-2.13-.26-3.59-1.52-5.18-2.59-1.57-1.09-3.11-2.24-4.58-3.47-1.47-1.23-2.88-2.53-4.22-3.93-1.32-1.39-2.75-2.77-3.25-4.84-.03-.13.11-.25.23-.18,1.89.88,3.1,2.22,4.51,3.47,1.4,1.24,2.85,2.42,4.28,3.62l4.34,3.59c1.44,1.22,3.04,2.19,4.04,4.07.07.11-.03.26-.16.24h0Z"/>
      <g>
        <path class="cls-16" d="m179.99,126.13s-17.7,11.23-4.53,27.19c12.16,14.74,22.4,25.74,31.04,28.03,5.82,1.54,14.73-4.8,8.14-14.5-3.63-5.35-33.23-38.78-33.23-38.78l-1.43-1.94Z"/>
        <path class="cls-16" d="m200.46,174.78c.49,4.75,8.14,7.13,12.97,5.45,12.32-4.3,32.31-11.56,43.34-16.14,2.86-1.19,5.11-2.22,6.46-3.01,8.96-5.22-.73-11.93-5.25-10.93s-57.36,13.54-57.36,13.54l-.16,11.09Z"/>
        <path class="cls-12" d="m178.88,122.8s-9.85,3.6-14.28,9.74c-7.31,10.13,23.19,37.14,23.19,37.14,0,0,7.47-6.2,12.5-10.34s6.87-6.25,6.87-6.25l-28.29-30.3Z"/>
        <path class="cls-24" d="m239.39,164.07c.97-.56,1.33-.15,1.82.03.49.21.95.45,1.39.72.44.28.85.6,1.26.94.4.34.88.56.84,1.61,0,.11-.07.2-.16.25-.93.5-1.33.17-1.82-.04-.48-.21-.96-.44-1.4-.71-.44-.28-.86-.59-1.26-.93-.39-.36-.91-.51-.83-1.62,0-.11.07-.2.16-.25,0,0-.09.05,0,0Z"/>
        <path class="cls-24" d="m235.93,165.65c.97-.56,1.33-.15,1.82.03.49.21.95.45,1.39.72.44.28.85.6,1.26.94.4.34.88.56.84,1.61,0,.11-.07.2-.16.25-.93.5-1.33.17-1.82-.04-.48-.21-.96-.44-1.4-.71-.44-.28-.86-.59-1.26-.93-.39-.36-.91-.51-.83-1.62,0-.11.07-.2.16-.25,0,0-.09.05,0,0Z"/>
        <path class="cls-24" d="m224.47,170.6c.97-.56,1.33-.15,1.82.03.49.21.95.45,1.39.72.44.28.85.6,1.26.94.4.34.88.56.84,1.61,0,.11-.07.2-.16.25-.93.5-1.33.17-1.82-.04-.48-.21-.96-.44-1.4-.71-.44-.28-.86-.59-1.26-.93-.39-.36-.91-.51-.83-1.62,0-.11.07-.2.16-.25,0,0-.09.05,0,0Z"/>
        <path class="cls-24" d="m228.88,165.52c1.2-.38,1.77.18,2.48.53.7.37,1.37.77,2.03,1.21.65.44,1.27.92,1.88,1.42.61.5,1.3.88,1.44,2.08.01.11-.06.21-.16.24-1.16.32-1.77-.17-2.47-.54-.69-.37-1.38-.76-2.03-1.2-.65-.44-1.28-.91-1.89-1.41-.59-.52-1.33-.83-1.44-2.09,0-.11.06-.21.16-.24,0,0-.1.03,0,0Z"/>
        <path class="cls-24" d="m226.7,167.96c1.2-.38,1.77.18,2.48.53.7.37,1.37.77,2.03,1.21.65.44,1.27.92,1.88,1.42.61.5,1.3.88,1.44,2.08.01.11-.06.21-.16.24-1.16.32-1.77-.17-2.47-.54-.69-.37-1.38-.76-2.03-1.2-.65-.44-1.28-.91-1.89-1.41-.59-.52-1.33-.83-1.44-2.09,0-.11.06-.21.16-.24,0,0-.1.03,0,0Z"/>
        <path class="cls-23" d="m205.15,155.31c.69-1.62,1.69-3.01,2.78-4.36,0,0-.02,1.31-.02,1.31-2.31-2.55-5.57-6.11-7.71-8.75-1.26-1.48-2.46-3.01-3.68-4.53-1.23-1.5-2.42-3.04-3.1-5.02-.03-.08.02-.17.1-.2,1.91.82,3.27,2.44,4.59,3.87,1.31,1.44,2.62,2.87,3.89,4.34,2.26,2.51,5.28,6.33,7.42,8.99.95,1.19-1.2,2.27-1.9,3.04-.67.55-1.36,1.06-2.15,1.49-.12.07-.28-.07-.22-.2h0Z"/>
      </g>
      <path class="cls-23" d="m166.91,145.65c2.06,1.89,3.4,4.16,4.88,6.36,2.98,4.35,6.04,8.67,9.5,12.63,1.7,1.99,3.61,3.76,5.59,5.36,0,0-.95.02-.95.02,1.3-.64,5.15-2.81,2.19.19-.61.5-1.25,1.77-2.15,1.21-6.99-4.3-11.68-11.45-15.97-18.26-1.39-2.3-2.82-4.59-3.35-7.37-.03-.14.15-.24.26-.14h0Z"/>
      <g>
        <g>
          <path class="cls-16" d="m260.2,162.25c3.02-.7,8.64-4.62,9.69-6.56.83-1.53.36-6.35.99-10.98.92-6.85,1.86-11.73.17-12.08.01-.83.17-1.63.07-2.39-.18-1.43-3.5-.9-3.5-.9,0,0-.8,1.07-.99,2-.15.75-2.14,2.46-3.19,5.25-1.88,5.01-2.82,10.63-4.06,11.96-1.5,1.61-6.85,4.53-6.85,4.53,0,0,4.65,9.87,7.66,9.17Z"/>
          <path class="cls-24" d="m266.91,145.81c-.95-1.3-.64-2.51-.61-3.73.14-2.48.53-4.91,1.41-7.26.35-.93.73-1.99,1.68-2.56.33-.2.85-.38,1.25-.15.11.07.1.21.01.29-.57,1.31-1.26,4.78-1.54,6.45,0,0-.65,3.48-.65,3.48-.24,1.17-.23,2.38-1.27,3.48-.07.08-.21.07-.27-.02h0Z"/>
        </g>
        <path class="cls-24" d="m266.79,131.38c.67,1.17.26,2,.1,2.91-.18.9-.38,1.8-.62,2.68-.24.88-.52,1.75-.81,2.62-.29.87-.42,1.76-1.5,2.48-.09.06-.23.04-.29-.06-.71-1.09-.43-2-.29-2.93.28-1.85.76-3.66,1.44-5.4.36-.86.48-1.8,1.7-2.4.1-.05.22,0,.28.09h0Z"/>
      </g>
      <path class="cls-24" d="m203.6,180c3.33-.47,6.51-.48,9.77-1.39,1.62-.38,3.24-.79,4.87-1.24,1.63-.45,3.17-1.1,5.1-.86.13,0,.2.18.11.27-1.23,1.43-2.87,2-4.54,2.63-1.62.61-3.29,1.15-4.99,1.55-2.14.49-4.37.78-6.59.72-1.4-.03-2.85-.23-3.86-1.43-.09-.11,0-.26.14-.26h0Z"/>
    </g>
  </g>
</svg>