<?xml version="1.0" encoding="UTF-8"?><svg id="a" xmlns="http://www.w3.org/2000/svg" width="1140" height="640" xmlns:xlink="http://www.w3.org/1999/xlink" viewBox="0 0 1140 640"><defs><clipPath id="b"><path d="m1139.87,416.37c6.92,279.59-272.54,205.78-601.79,220.14C98.38,655.68,2,597.56,2,418.95S49.49,15.79,569.9.88c425.32-12.18,565.56,236.91,569.98,415.49Z" fill="none" stroke-width="0"/></clipPath></defs><g clip-path="url(#b)"><rect x="-25.08" y="-11.04" width="1182.7" height="651.04" fill="#8cbbe5" stroke-width="0"/><path d="m123.5,438.1s97.12,20.23,215.68,0" fill="none" stroke="#333" stroke-linecap="round" stroke-linejoin="round" stroke-width="2"/><path d="m110.95,459.45s97.12,20.23,215.68,0" fill="none" stroke="#333" stroke-linecap="round" stroke-linejoin="round" stroke-width="2"/><path d="m110.47,416.56s97.12,20.23,215.68,0" fill="none" stroke="#333" stroke-linecap="round" stroke-linejoin="round" stroke-width="2"/><path d="m272.72,483.72s97.12,20.23,215.68,0" fill="none" stroke="#333" stroke-linecap="round" stroke-linejoin="round" stroke-width="2"/><path d="m300.47,483.6s97.12,20.23,215.68,0" fill="none" stroke="#333" stroke-linecap="round" stroke-linejoin="round" stroke-width="2"/><path d="m306.95,458.74s97.12,20.23,215.68,0" fill="none" stroke="#333" stroke-linecap="round" stroke-linejoin="round" stroke-width="2"/><path d="m307.49,432.62s97.12,20.23,215.68,0" fill="none" stroke="#333" stroke-linecap="round" stroke-linejoin="round" stroke-width="2"/><path d="m305.87,415.15s97.12,20.23,215.68,0" fill="none" stroke="#333" stroke-linecap="round" stroke-linejoin="round" stroke-width="2"/><line x1="89.96" y1="397.39" x2="77.52" y2="397.39" fill="none" stroke="#4d4e4e" stroke-linecap="round" stroke-linejoin="round" stroke-width="2"/><line x1="77.91" y1="385.03" x2="89.96" y2="397.39" fill="none" stroke="#4d4e4e" stroke-linecap="round" stroke-linejoin="round" stroke-width="2"/><line x1="89.96" y1="397.39" x2="77.53" y2="407.13" fill="none" stroke="#4d4e4e" stroke-linecap="round" stroke-linejoin="round" stroke-width="2"/><line x1="98.3" y1="420.27" x2="98.31" y2="428.14" fill="none" stroke="#4d4e4e" stroke-linecap="round" stroke-linejoin="round" stroke-width="2"/><line x1="68.32" y1="420.59" x2="68.33" y2="428.15" fill="none" stroke="#4d4e4e" stroke-linecap="round" stroke-linejoin="round" stroke-width="2"/><line x1="89.99" y1="417.43" x2="77.96" y2="417.43" fill="none" stroke="#4d4e4e" stroke-linecap="round" stroke-linejoin="round" stroke-width="2"/><line x1="77.53" y1="407.13" x2="89.99" y2="417.43" fill="none" stroke="#4d4e4e" stroke-linecap="round" stroke-linejoin="round" stroke-width="2"/><line x1="89.99" y1="417.43" x2="77.57" y2="428.14" fill="none" stroke="#4d4e4e" stroke-linecap="round" stroke-linejoin="round" stroke-width="2"/><line x1="90.02" y1="437.64" x2="77.58" y2="437.65" fill="none" stroke="#4d4e4e" stroke-linecap="round" stroke-linejoin="round" stroke-width="2"/><line x1="90.02" y1="437.64" x2="77.57" y2="428.14" fill="none" stroke="#4d4e4e" stroke-linecap="round" stroke-linejoin="round" stroke-width="2"/><line x1="78.01" y1="449.83" x2="90.02" y2="437.64" fill="none" stroke="#4d4e4e" stroke-linecap="round" stroke-linejoin="round" stroke-width="2"/><line x1="92" y1="460.56" x2="78.01" y2="449.83" fill="none" stroke="#4d4e4e" stroke-linecap="round" stroke-linejoin="round" stroke-width="2"/><line x1="92" y1="460.56" x2="73.31" y2="471.99" fill="none" stroke="#4d4e4e" stroke-linecap="round" stroke-linejoin="round" stroke-width="2"/><line x1="96.66" y1="486.14" x2="73.31" y2="471.99" fill="none" stroke="#4d4e4e" stroke-linecap="round" stroke-linejoin="round" stroke-width="2"/><polyline points="70.42 486.15 99.35 500.91 92.4 509.46" fill="none" stroke="#4d4e4e" stroke-linecap="round" stroke-linejoin="round" stroke-width="1.4"/><polyline points="96.66 486.14 67.22 500.92 74.13 509.41" fill="none" stroke="#4d4e4e" stroke-linecap="round" stroke-linejoin="round" stroke-width="1.4"/><path d="m64.41,385.38c.29,1.12.4,2.34,0,3.45-.34.92-1.74.9-2.08,0-.41-1.12-.58-4.66,1.36-4.16.35.11.61.39.71.71h0Z" fill="#333" stroke-width="0"/><path d="m105.25,385.6c.29,1.12.4,2.34,0,3.45-.34.92-1.74.9-2.08,0-.41-1.12-.58-4.66,1.36-4.16.35.11.61.39.71.71h0Z" fill="#333" stroke-width="0"/><path d="m124.4,429.62c.25,2.09.3,4.19.22,6.3-.15,1.04.16,3.12-1.43,2.96-.45-.08-.79-.43-.86-.86-.22-1.39-.28-2.79-.25-4.2.02-1.4.06-2.8.24-4.2.07-.57.6-.98,1.18-.91.48.06.85.44.91.9h0Z" fill="#333" stroke-width="0"/><path d="m58.34,451.04c.25,2.09.3,4.19.22,6.3-.15,1.04.17,3.12-1.43,2.96-.45-.08-.79-.43-.86-.86-.22-1.39-.28-2.79-.25-4.2.02-1.4.06-2.8.24-4.2.07-.57.6-.98,1.18-.91.48.06.85.44.91.9h0Z" fill="#333" stroke-width="0"/><path d="m111.32,450.86c.25,2.09.3,4.19.22,6.3-.15,1.04.17,3.12-1.43,2.96-.45-.08-.79-.43-.86-.86-.22-1.39-.28-2.79-.25-4.2.02-1.4.06-2.8.24-4.2.07-.57.6-.98,1.18-.91.48.06.84.44.91.9h0Z" fill="#333" stroke-width="0"/><path d="m58.09,408.01c.25,2.09.3,4.19.22,6.3-.15,1.04.17,3.12-1.43,2.96-.45-.08-.79-.43-.86-.86-.22-1.39-.28-2.79-.25-4.2.02-1.4.06-2.8.24-4.2.07-.57.6-.98,1.18-.91.48.06.85.44.91.9h0Z" fill="#333" stroke-width="0"/><path d="m111.5,408.23c.25,2.09.3,4.19.22,6.3-.15,1.04.17,3.12-1.43,2.96-.45-.08-.79-.43-.86-.86-.22-1.39-.28-2.79-.25-4.2.02-1.4.06-2.8.24-4.2.07-.57.6-.98,1.18-.91.48.06.84.44.91.9h0Z" fill="#333" stroke-width="0"/><path d="m45.45,429.17c.25,2.09.3,4.19.22,6.3-.15,1.04.17,3.12-1.43,2.96-.45-.08-.79-.43-.86-.86-.22-1.39-.28-2.79-.25-4.2.02-1.4.06-2.8.24-4.2.07-.57.6-.98,1.18-.91.48.06.85.44.91.9h0Z" fill="#333" stroke-width="0"/><polygon points="90.04 449.82 78.01 449.83 77.91 385.03 89.94 385.03 90.04 449.82" fill="none" stroke="#666667" stroke-miterlimit="10" stroke-width="1.94"/><polygon points="90.04 449.82 102.66 519.06 83.44 501.08 63.34 519.07 78.01 449.83 90.04 449.82" fill="none" stroke="#666667" stroke-linecap="round" stroke-linejoin="round" stroke-width="2"/><polyline points="89.94 385.03 103.42 385.03 89.96 397.39 109.59 407.12 89.97 407.12 89.99 417.43 121.32 428.13 90 428.14" fill="none" stroke="#666667" stroke-linecap="round" stroke-linejoin="round" stroke-width="2"/><polyline points="90.02 437.64 109.46 449.64 90.04 449.64" fill="none" stroke="#666667" stroke-linecap="round" stroke-linejoin="round" stroke-width="2"/><polyline points="77.55 417.43 46.25 428.15 77.57 428.14" fill="none" stroke="#666667" stroke-linecap="round" stroke-linejoin="round" stroke-width="2"/><polyline points="77.5 385.03 64.02 385.04 77.52 397.39 57.92 407.13 77.53 407.13" fill="none" stroke="#666667" stroke-linecap="round" stroke-linejoin="round" stroke-width="2"/><polyline points="77.58 437.65 58.17 449.65 77.6 449.65" fill="none" stroke="#666667" stroke-linecap="round" stroke-linejoin="round" stroke-width="2"/><line x1="92" y1="460.56" x2="75.79" y2="460.57" fill="none" stroke="#666667" stroke-miterlimit="10" stroke-width="1.94"/><line x1="94.05" y1="471.81" x2="73.31" y2="471.99" fill="none" stroke="#666667" stroke-miterlimit="10" stroke-width="2"/><line x1="96.66" y1="486.14" x2="70.42" y2="486.15" fill="none" stroke="#666667" stroke-miterlimit="10" stroke-width="1.94"/><line x1="99.35" y1="500.91" x2="67.22" y2="500.92" fill="none" stroke="#666667" stroke-miterlimit="10" stroke-width="1.94"/><line x1="89.97" y1="407.12" x2="77.53" y2="407.13" fill="none" stroke="#666667" stroke-miterlimit="10" stroke-width="1.94"/><line x1="90" y1="428.14" x2="77.57" y2="428.14" fill="none" stroke="#666667" stroke-miterlimit="10" stroke-width="1.94"/><line x1="526.76" y1="408.44" x2="526.77" y2="415.57" fill="none" stroke="#4d4e4e" stroke-linecap="round" stroke-linejoin="round" stroke-width="1.4"/><line x1="502.6" y1="408.45" x2="502.61" y2="415.58" fill="none" stroke="#4d4e4e" stroke-linecap="round" stroke-linejoin="round" stroke-width="2"/><line x1="530.22" y1="425.38" x2="530.23" y2="430" fill="none" stroke="#4d4e4e" stroke-linecap="round" stroke-linejoin="round" stroke-width="1.4"/><line x1="499.31" y1="425.39" x2="499.31" y2="430.54" fill="none" stroke="#4d4e4e" stroke-linecap="round" stroke-linejoin="round" stroke-width="2"/><line x1="520.97" y1="420.8" x2="508.54" y2="420.81" fill="none" stroke="#4d4e4e" stroke-linecap="round" stroke-linejoin="round" stroke-width="1.4"/><line x1="508.92" y1="408.45" x2="520.97" y2="420.8" fill="none" stroke="#4d4e4e" stroke-linecap="round" stroke-linejoin="round" stroke-width="1.4"/><line x1="520.96" y1="408.44" x2="508.54" y2="420.81" fill="none" stroke="#4d4e4e" stroke-linecap="round" stroke-linejoin="round" stroke-width="1.4"/><line x1="520.97" y1="420.8" x2="508.55" y2="430.54" fill="none" stroke="#4d4e4e" stroke-linecap="round" stroke-linejoin="round" stroke-width="1.4"/><line x1="508.54" y1="420.81" x2="520.99" y2="430.53" fill="none" stroke="#4d4e4e" stroke-linecap="round" stroke-linejoin="round" stroke-width="1.4"/><line x1="538.61" y1="446.86" x2="538.62" y2="451.55" fill="none" stroke="#4d4e4e" stroke-linecap="round" stroke-linejoin="round" stroke-width="1.4"/><line x1="529.32" y1="443.68" x2="529.33" y2="451.55" fill="none" stroke="#4d4e4e" stroke-linecap="round" stroke-linejoin="round" stroke-width="1.4"/><line x1="538.61" y1="446.86" x2="529.33" y2="451.55" fill="none" stroke="#4d4e4e" stroke-linecap="round" stroke-linejoin="round" stroke-width="1.4"/><line x1="521.01" y1="440.84" x2="529.33" y2="451.55" fill="none" stroke="#4d4e4e" stroke-linecap="round" stroke-linejoin="round" stroke-width="1.4"/><line x1="499.33" y1="444.01" x2="499.35" y2="451.56" fill="none" stroke="#4d4e4e" stroke-linecap="round" stroke-linejoin="round" stroke-width="1.4"/><line x1="490.13" y1="447.16" x2="490.19" y2="451.56" fill="none" stroke="#4d4e4e" stroke-linecap="round" stroke-linejoin="round" stroke-width="1.4"/><line x1="529.23" y1="466.11" x2="529.24" y2="473.05" fill="none" stroke="#4d4e4e" stroke-linecap="round" stroke-linejoin="round" stroke-width="1.4"/><line x1="499.04" y1="466.97" x2="499.05" y2="473.3" fill="none" stroke="#4d4e4e" stroke-linecap="round" stroke-linejoin="round" stroke-width="1.4"/><line x1="521.01" y1="440.84" x2="508.97" y2="440.84" fill="none" stroke="#4d4e4e" stroke-linecap="round" stroke-linejoin="round" stroke-width="1.4"/><line x1="520.99" y1="430.53" x2="508.97" y2="440.84" fill="none" stroke="#4d4e4e" stroke-linecap="round" stroke-linejoin="round" stroke-width="1.4"/><line x1="508.55" y1="430.54" x2="521.01" y2="440.84" fill="none" stroke="#4d4e4e" stroke-linecap="round" stroke-linejoin="round" stroke-width="1.4"/><line x1="521.01" y1="440.84" x2="508.58" y2="451.56" fill="none" stroke="#4d4e4e" stroke-linecap="round" stroke-linejoin="round" stroke-width="1.4"/><line x1="508.97" y1="440.84" x2="521.02" y2="451.55" fill="none" stroke="#4d4e4e" stroke-linecap="round" stroke-linejoin="round" stroke-width="1.4"/><line x1="521.04" y1="461.06" x2="508.6" y2="461.06" fill="none" stroke="#4d4e4e" stroke-linecap="round" stroke-linejoin="round" stroke-width="1.4"/><line x1="521.02" y1="451.55" x2="508.6" y2="461.06" fill="none" stroke="#4d4e4e" stroke-linecap="round" stroke-linejoin="round" stroke-width="1.4"/><line x1="521.04" y1="461.06" x2="508.58" y2="451.56" fill="none" stroke="#4d4e4e" stroke-linecap="round" stroke-linejoin="round" stroke-width="1.4"/><line x1="521.05" y1="473.24" x2="508.6" y2="461.06" fill="none" stroke="#4d4e4e" stroke-linecap="round" stroke-linejoin="round" stroke-width="1.4"/><line x1="509.02" y1="473.24" x2="521.04" y2="461.06" fill="none" stroke="#4d4e4e" stroke-linecap="round" stroke-linejoin="round" stroke-width="1.4"/><line x1="521.05" y1="473.24" x2="506.81" y2="483.98" fill="none" stroke="#4d4e4e" stroke-linecap="round" stroke-linejoin="round" stroke-width="1.4"/><line x1="523.01" y1="483.98" x2="509.02" y2="473.24" fill="none" stroke="#4d4e4e" stroke-linecap="round" stroke-linejoin="round" stroke-width="1.4"/><line x1="525.06" y1="495.22" x2="506.81" y2="483.98" fill="none" stroke="#4d4e4e" stroke-linecap="round" stroke-linejoin="round" stroke-width="1.4"/><line x1="523.01" y1="483.98" x2="504.33" y2="495.4" fill="none" stroke="#4d4e4e" stroke-linecap="round" stroke-linejoin="round" stroke-width="1.4"/><line x1="527.68" y1="509.55" x2="504.33" y2="495.4" fill="none" stroke="#4d4e4e" stroke-linecap="round" stroke-linejoin="round" stroke-width="1.4"/><line x1="525.06" y1="495.22" x2="501.44" y2="509.56" fill="none" stroke="#4d4e4e" stroke-linecap="round" stroke-linejoin="round" stroke-width="1.4"/><polyline points="501.44 509.56 530.37 524.33 523.42 532.87" fill="none" stroke="#4d4e4e" stroke-linecap="round" stroke-linejoin="round" stroke-width="1.4"/><polyline points="527.68 509.55 498.24 524.33 505.15 532.82" fill="none" stroke="#4d4e4e" stroke-linecap="round" stroke-linejoin="round" stroke-width="1.4"/><path d="m495.43,408.79c.29,1.12.4,2.34,0,3.45-.34.92-1.74.9-2.08,0-.41-1.12-.58-4.66,1.37-4.16.35.11.61.39.71.71h0Z" fill="#333" stroke-width="0"/><path d="m536.26,409.02c.29,1.12.4,2.34,0,3.45-.34.92-1.74.9-2.08,0-.41-1.12-.58-4.66,1.36-4.16.35.11.61.39.71.71h0Z" fill="#333" stroke-width="0"/><path d="m555.42,453.03c.25,2.09.3,4.19.22,6.3-.15,1.04.17,3.12-1.43,2.96-.45-.08-.79-.43-.86-.86-.22-1.39-.28-2.79-.25-4.2.02-1.4.06-2.8.24-4.2.07-.57.6-.98,1.18-.91.48.06.84.44.91.9h0Z" fill="#333" stroke-width="0"/><path d="m489.36,474.46c.25,2.09.3,4.19.22,6.3-.15,1.04.16,3.12-1.43,2.96-.45-.08-.79-.43-.86-.86-.22-1.39-.28-2.79-.25-4.2.02-1.4.06-2.8.24-4.2.07-.57.6-.98,1.18-.91.48.06.85.44.91.9h0Z" fill="#333" stroke-width="0"/><path d="m542.34,474.27c.25,2.09.3,4.19.22,6.3-.15,1.04.17,3.12-1.43,2.96-.45-.08-.79-.43-.86-.86-.22-1.39-.28-2.79-.25-4.2.02-1.4.06-2.8.24-4.2.07-.57.6-.98,1.18-.91.48.06.85.44.91.9h0Z" fill="#333" stroke-width="0"/><path d="m489.1,431.43c.25,2.09.3,4.19.22,6.3-.15,1.04.17,3.12-1.43,2.96-.45-.08-.79-.43-.86-.86-.22-1.39-.28-2.79-.25-4.2.02-1.4.06-2.8.24-4.2.07-.57.6-.98,1.18-.91.48.06.84.44.91.9h0Z" fill="#333" stroke-width="0"/><path d="m542.52,431.65c.25,2.09.3,4.19.22,6.3-.15,1.04.17,3.12-1.43,2.96-.45-.08-.79-.43-.86-.86-.22-1.39-.28-2.79-.25-4.2.02-1.4.06-2.8.24-4.2.07-.57.6-.98,1.18-.91.48.06.85.44.91.9h0Z" fill="#333" stroke-width="0"/><path d="m476.47,452.58c.25,2.09.3,4.19.22,6.3-.15,1.04.17,3.12-1.43,2.96-.45-.08-.79-.43-.86-.86-.22-1.39-.28-2.79-.25-4.2.02-1.4.06-2.8.24-4.2.07-.57.6-.98,1.18-.91.48.06.84.44.91.9h0Z" fill="#333" stroke-width="0"/><polygon points="521.05 473.24 509.02 473.24 508.92 408.45 520.96 408.44 521.05 473.24" fill="none" stroke="#666667" stroke-miterlimit="10" stroke-width="1.94"/><polygon points="521.05 473.24 533.68 542.47 514.45 524.49 494.36 542.48 509.02 473.24 521.05 473.24" fill="none" stroke="#666667" stroke-miterlimit="10" stroke-width="1.94"/><polyline points="520.96 408.44 534.43 408.44 520.97 420.8 540.61 430.53 520.99 430.53 521.01 440.84 552.34 451.55 521.02 451.55" fill="none" stroke="#666667" stroke-miterlimit="10" stroke-width="1.94"/><polyline points="521.04 461.06 540.48 473.05 521.05 473.06" fill="none" stroke="#666667" stroke-miterlimit="10" stroke-width="1.94"/><polyline points="508.57 440.84 477.27 451.56 508.58 451.56" fill="none" stroke="#666667" stroke-linecap="round" stroke-linejoin="round" stroke-width="2"/><polyline points="508.52 408.45 495.04 408.45 508.54 420.81 488.94 430.54 508.55 430.54" fill="none" stroke="#666667" stroke-linecap="round" stroke-linejoin="round" stroke-width="2"/><polyline points="508.6 461.06 489.19 473.06 508.62 473.06" fill="none" stroke="#666667" stroke-linecap="round" stroke-linejoin="round" stroke-width="2"/><line x1="523.01" y1="483.98" x2="506.81" y2="483.98" fill="none" stroke="#666667" stroke-miterlimit="10" stroke-width="1.94"/><line x1="525.06" y1="495.22" x2="505.41" y2="495.23" fill="none" stroke="#666667" stroke-miterlimit="10" stroke-width="1.94"/><line x1="527.68" y1="509.55" x2="501.44" y2="509.56" fill="none" stroke="#666667" stroke-miterlimit="10" stroke-width="1.94"/><line x1="530.37" y1="524.33" x2="498.24" y2="524.33" fill="none" stroke="#666667" stroke-miterlimit="10" stroke-width="1.94"/><line x1="520.99" y1="430.53" x2="508.55" y2="430.54" fill="none" stroke="#666667" stroke-miterlimit="10" stroke-width="1.94"/><line x1="521.02" y1="451.55" x2="508.58" y2="451.56" fill="none" stroke="#666667" stroke-miterlimit="10" stroke-width="1.94"/><path d="m475.44,460.98s60.56,28.02,156.04,21.41" fill="none" stroke="#333" stroke-linecap="round" stroke-miterlimit="10" stroke-width="2"/><path d="m-158.72,460.18s88.45,30.64,215.68,0" fill="none" stroke="#333" stroke-linecap="round" stroke-miterlimit="10" stroke-width="2"/><path d="m56.91,460.18s94.81,26.59,215.68,0" fill="none" stroke="#333" stroke-linecap="round" stroke-miterlimit="10" stroke-width="2"/><path d="m43.61,437.63s97.12,20.23,215.68,0" fill="none" stroke="#333" stroke-linecap="round" stroke-miterlimit="10" stroke-width="2"/><path d="m-172.02,437.63s94.23,23.7,215.68,0" fill="none" stroke="#333" stroke-linecap="round" stroke-miterlimit="10" stroke-width="2"/><path d="m488.08,439.82s26.99,29.49,147.86,5.79" fill="none" stroke="#333" stroke-linecap="round" stroke-miterlimit="10" stroke-width="2"/><path d="m259.25,437.63s115.48,25.89,228.83,2.19" fill="none" stroke="#333" stroke-linecap="round" stroke-miterlimit="10" stroke-width="2"/><path d="m272.54,460.18s82.03,33.75,202.89.8" fill="none" stroke="#333" stroke-linecap="round" stroke-miterlimit="10" stroke-width="2"/><path d="m57.01,416.1s121.88,17.48,214.38-1.02" fill="none" stroke="#333" stroke-linecap="round" stroke-linejoin="round" stroke-width="2"/><path d="m-104.38,414.95s79.78,14.01,161.29,1.3" fill="none" stroke="#333" stroke-linecap="round" stroke-miterlimit="10" stroke-width="2"/><path d="m494.39,412.24s88.59,17.3,182.11,4.44" fill="none" stroke="#333" stroke-linecap="round" stroke-miterlimit="10" stroke-width="2"/><path d="m271.59,414.95s129.15,8.28,222.8-2.7" fill="none" stroke="#333" stroke-linecap="round" stroke-miterlimit="10" stroke-width="2"/><rect x="435.88" y="302.35" width="17.78" height="257.63" rx="4.82" ry="4.82" fill="#586366" stroke-width="0"/><rect x="171.76" y="221.69" width="17.78" height="257.63" rx="4.82" ry="4.82" fill="#586366" stroke-width="0"/><path d="m606.37,310.63c26.22.46,77.62-66.05,65.8-92.74,49.97-5.06,99.17-54.39,59.74-87.41-1.26.3-.93.96-2.24,1.65,0,0,72.16-3.26,69.54-47.61,0,0,66.66-5.16,68.58-56.67,0,0,47.87-10.92,52.46-41.58l-338.3-10.43s-54.91,27.07-29.99,53.73c0,0-31.16,38.34,10.63,52.63,0,0-73.55,66.07,17.88,73.09,0,0-52.87,14.01-2.7,54.42-10.79,9.77-25.58,68.73-19.82,81.57,3.2,7.13,10.52,19.02,20.61,19.77l27.81-.42h0Z" fill="#f4f4e9" stroke-width="0"/><path d="m322.13,323.85c26.22.46,77.62-66.05,65.8-92.74,49.97-5.06,99.17-54.39,59.74-87.41-1.26.3-.93.96-2.24,1.65,0,0,72.16-3.26,69.54-47.61,0,0,66.66-5.16,68.58-56.67,0,0,47.87-10.92,52.46-41.58l-338.3-10.43s-54.91,27.07-29.99,53.73c0,0-31.16,38.34,10.63,52.63,0,0-73.55,66.07,17.88,73.09,0,0-52.87,14.01-2.7,54.42-10.79,9.77-25.58,68.73-19.82,81.57,3.2,7.13,10.52,19.02,20.61,19.77l27.81-.42h0Z" fill="#f4f4e9" stroke-width="0"/><path d="m1019.5,359.38c26.22.46,77.62-66.05,65.8-92.74,49.97-5.06,99.17-54.39,59.74-87.41-1.26.3-.93.96-2.24,1.65,0,0,72.16-3.26,69.54-47.61,0,0,66.66-5.16,68.58-56.67,0,0,47.87-10.92,52.46-41.58l-338.3-10.43s-54.91,27.07-29.99,53.73c0,0-31.16,38.34,10.63,52.63,0,0-73.55,66.07,17.88,73.09,0,0-52.87,14.01-2.7,54.42-10.79,9.77-25.58,68.73-19.82,81.57,3.2,7.13,10.52,19.02,20.61,19.77l27.81-.42h0Z" fill="#f4f4e9" stroke-width="0"/><path d="m-52.71,471.7s68.02-7.7,87.27-1.28c19.25,6.42,26.95,14.12,44.92,10.27,17.97-3.85,33.37-19.25,74.44-21.82,41.07-2.57,29.52,6.42,78.29,17.97,48.77,11.55,38.5,6.42,75.72,8.98,37.22,2.57,60.32,14.12,69.31,20.54,8.98,6.42,11.55,20.54,35.94,15.4,35.39-7.45,74.44,32.09,74.44,32.09,0,0-33.37,21.82-51.34,21.82H-11.64c-8.98,0-19.25,3.85-25.67-3.85-6.42-7.7-15.4-100.11-15.4-100.11Z" fill="#23623c" stroke-width="0"/><path d="m863.56,535.71c-18.1-71.54-37.22-146.5-32.39-229.01h-.05c.28-.31,1.66-.62,1.66-.94,0-4.38-28.65-7.93-62.49-7.93s-62.39,3.48-62.39,7.86c0,.32.67.64.95.95l.04.06c4.83,82.52-14.29,157.47-32.39,229.01l-2.6,10.29h192.27l-2.6-10.29h0Z" fill="#918f93" stroke-width="0"/><path d="m1115.09,535.71c-18.1-71.54-37.22-146.5-32.39-229.01h-.05c.28-.31,1.66-.62,1.66-.94,0-4.38-28.65-7.93-62.49-7.93s-62.39,3.48-62.39,7.86c0,.32.67.64.95.95l.04.06c4.83,82.52-14.29,157.47-32.39,229.01l-2.6,10.29h192.27l-2.6-10.29h0Z" fill="#918f93" stroke-width="0"/><path d="m424.44,534.77c-19.75-78.07-40.62-159.87-35.35-249.92h-.06c.31-.34,1.81-.68,1.81-1.02,0-4.78-31.27-8.66-68.2-8.66s-68.08,3.8-68.08,8.58c0,.35.73.7,1.03,1.03l.05.07c5.27,90.05-15.6,171.85-35.35,249.92l-2.84,11.22h209.82l-2.84-11.22h0Z" fill="#d7d7de" stroke-width="0"/><path d="m712.56,533.37c-22.22-87.85-45.71-179.89-39.77-281.21h-.07c.35-.38,2.04-.76,2.04-1.15,0-5.38-35.18-9.74-76.74-9.74s-76.61,4.27-76.61,9.65c0,.39.82.78,1.16,1.16l.05.08c5.93,101.33-17.55,193.36-39.77,281.21l-3.2,12.63h236.1l-3.2-12.63h0Z" fill="#d7d7de" stroke-width="0"/><path d="m1506.03,424.21s-113.91-20.32-154.61-11.33c-40.7,8.98-32.88,14.12-72.01,12.83s-81.8,5.75-118.3,10.05c-43.64,5.13-46.2-16.68-98.83-5.13-34.06,7.48-56.12-10.27-93.69-8.98-37.57,1.28-67.19,14.12-82.85,20.54-15.66,6.42-54.67,7.7-67.32,25.67-24.39,34.65-61.61,21.82-93.69,34.65-13.3,5.32-22.67,19.71-38.5,23.1-35.94,7.7-32.09,44.92-32.09,44.92,0,0,67.56,12.83,139.57,1.28,72.01-11.55,272.4-1.28,414.86-3.85,142.46-2.57,237.96-1.28,281.79-2.57,43.83-1.28,15.66-141.18,15.66-141.18Z" fill="#23623c" stroke-width="0"/><rect x="467.2" y="511.84" width="141.93" height="27.34" fill="#664e49" stroke-width="0"/><rect x="374.65" y="453.16" width="93.31" height="88.22" fill="#d17446" stroke-width="0"/><rect x="288.6" y="481.26" width="93.31" height="60.12" fill="#d17446" stroke-width="0"/><rect x="312.04" y="518.62" width="16.59" height="20.73" fill="#802523" stroke-width="0"/><rect x="447.25" y="461.73" width="11.61" height="17.42" fill="#802523" stroke-width="0"/><rect x="431.79" y="461.73" width="11.61" height="17.42" fill="#802523" stroke-width="0"/><path d="m1339.49,555.39s-533.24-20.41-722.73-20.41-694.05,10.21-694.05,10.21l-41.86,282.16,1485.04-39.66-26.41-232.3Z" fill="#d1be7f" stroke-width="0"/></g><path d="m256.42,309.11c10.6-3.37,21.62-5.06,32.63-6.38,11.03-1.3,22.13-1.94,33.24-1.96,11.11.03,22.21.66,33.24,1.96,11.02,1.29,22.02,3.07,32.63,6.36l-.06.29c-10.98-1.51-21.83-3.39-32.8-4.52-10.97-1.12-21.98-1.7-33-1.68-11.02-.02-22.03.58-33,1.7-10.98,1.11-21.81,3.07-32.81,4.51l-.06-.29Z" fill="#666667" stroke-width="0"/><path d="m524.52,278.39c23.98-6.37,48.99-8.05,73.72-8.33,24.73.27,49.73,2.01,73.72,8.33,0,0-.06.29-.06.29-24.47-3.35-48.93-6.46-73.66-6.2-12.32-.02-24.64.58-36.92,1.69-12.29,1.1-24.44,3.07-36.74,4.52l-.06-.29h0Z" fill="#666667" stroke-width="0"/><path d="m712.35,334.73c19.4-3.98,39.31-4.41,59.04-4.7,19.73.27,39.64.77,59.04,4.69,0,0-.04.29-.04.29-19.71-.94-39.27-2.84-59.01-2.57-9.84-.02-19.68.27-29.5.78-9.83.5-19.6,1.56-29.5,1.8l-.04-.29h0Z" fill="#666667" stroke-width="0"/><path d="m963.01,332.91c19.4-3.98,39.31-4.41,59.04-4.7,19.73.27,39.64.77,59.04,4.69,0,0-.04.29-.04.29-19.71-.94-39.27-2.84-59.01-2.57-9.84-.02-19.68.27-29.5.78-9.83.5-19.6,1.56-29.5,1.8l-.04-.29h0Z" fill="#666667" stroke-width="0"/></svg>