<?xml version="1.0" encoding="UTF-8"?><svg id="l" xmlns="http://www.w3.org/2000/svg" width="1140" height="640" xmlns:xlink="http://www.w3.org/1999/xlink" viewBox="0 0 1140 640"><defs><clipPath id="m"><path d="m1141.87,416.37c6.93,279.59-273.02,205.78-602.85,220.14C98.55,655.68,2,597.56,2,418.95S49.57,15.79,570.9.88c426.06-12.18,566.55,236.91,570.98,415.49Z" fill="none"/></clipPath><clipPath id="n"><rect x="289.07" y="126.14" width="565.3" height="402.86" fill="none"/></clipPath></defs><g clip-path="url(#m)"><rect x="-12.65" y="-38" width="1220.65" height="706" fill="#88bab5"/><line x1="47" y1="581" x2="1111.86" y2="581" fill="none" stroke="#156775" stroke-linecap="round" stroke-linejoin="round" stroke-width="2"/></g><rect x="289.07" y="126.14" width="565.3" height="402.86" fill="#cc7a52"/><path d="m257.43,93.27h628.57v41.42c0,11.42-9.27,20.69-20.69,20.69H278.12c-11.42,0-20.69-9.27-20.69-20.69v-41.42h0Z" fill="#edded6"/><g clip-path="url(#n)"><rect x="381.91" y="168.41" width="117.28" height="40.88" fill="none" stroke="#963427" stroke-linecap="round" stroke-linejoin="round" stroke-width="2"/><rect x="517.74" y="168.41" width="117.28" height="40.88" fill="none" stroke="#963427" stroke-linecap="round" stroke-linejoin="round" stroke-width="2"/><rect x="653.57" y="168.41" width="117.28" height="40.88" fill="none" stroke="#963427" stroke-linecap="round" stroke-linejoin="round" stroke-width="2"/><rect x="789.41" y="168.41" width="117.28" height="40.88" fill="none" stroke="#963427" stroke-linecap="round" stroke-linejoin="round" stroke-width="2"/><rect x="246.21" y="168.41" width="117.28" height="40.88" fill="none" stroke="#963427" stroke-linecap="round" stroke-linejoin="round" stroke-width="2"/><rect x="323.55" y="226.03" width="117.28" height="40.88" fill="none" stroke="#963427" stroke-linecap="round" stroke-linejoin="round" stroke-width="2"/><rect x="459.38" y="226.03" width="117.28" height="40.88" fill="none" stroke="#963427" stroke-linecap="round" stroke-linejoin="round" stroke-width="2"/><rect x="595.22" y="226.03" width="117.28" height="40.88" fill="none" stroke="#963427" stroke-linecap="round" stroke-linejoin="round" stroke-width="2"/><rect x="731.05" y="226.03" width="117.28" height="40.88" fill="none" stroke="#963427" stroke-linecap="round" stroke-linejoin="round" stroke-width="2"/><rect x="187.85" y="226.03" width="117.28" height="40.88" fill="none" stroke="#963427" stroke-linecap="round" stroke-linejoin="round" stroke-width="2"/><rect x="387.48" y="287.32" width="117.28" height="40.88" fill="none" stroke="#963427" stroke-linecap="round" stroke-linejoin="round" stroke-width="2"/><rect x="523.31" y="287.32" width="117.28" height="40.88" fill="none" stroke="#963427" stroke-linecap="round" stroke-linejoin="round" stroke-width="2"/><rect x="659.14" y="287.32" width="117.28" height="40.88" fill="none" stroke="#963427" stroke-linecap="round" stroke-linejoin="round" stroke-width="2"/><rect x="794.97" y="287.32" width="117.28" height="40.88" fill="none" stroke="#963427" stroke-linecap="round" stroke-linejoin="round" stroke-width="2"/><rect x="251.78" y="287.32" width="117.28" height="40.88" fill="none" stroke="#963427" stroke-linecap="round" stroke-linejoin="round" stroke-width="2"/><rect x="323.55" y="346.63" width="117.28" height="40.88" fill="none" stroke="#963427" stroke-linecap="round" stroke-linejoin="round" stroke-width="2"/><rect x="459.38" y="346.63" width="117.28" height="40.88" fill="none" stroke="#963427" stroke-linecap="round" stroke-linejoin="round" stroke-width="2"/><rect x="595.22" y="346.63" width="117.28" height="40.88" fill="none" stroke="#963427" stroke-linecap="round" stroke-linejoin="round" stroke-width="2"/><rect x="731.05" y="346.63" width="117.28" height="40.88" fill="none" stroke="#963427" stroke-linecap="round" stroke-linejoin="round" stroke-width="2"/><rect x="187.85" y="346.63" width="117.28" height="40.88" fill="none" stroke="#963427" stroke-linecap="round" stroke-linejoin="round" stroke-width="2"/><rect x="387.48" y="407.92" width="117.28" height="40.88" fill="none" stroke="#963427" stroke-linecap="round" stroke-linejoin="round" stroke-width="2"/><rect x="523.31" y="407.92" width="117.28" height="40.88" fill="none" stroke="#963427" stroke-linecap="round" stroke-linejoin="round" stroke-width="2"/><rect x="659.14" y="407.92" width="117.28" height="40.88" fill="none" stroke="#963427" stroke-linecap="round" stroke-linejoin="round" stroke-width="2"/><rect x="794.97" y="407.92" width="117.28" height="40.88" fill="none" stroke="#963427" stroke-linecap="round" stroke-linejoin="round" stroke-width="2"/><rect x="251.78" y="407.92" width="117.28" height="40.88" fill="none" stroke="#963427" stroke-linecap="round" stroke-linejoin="round" stroke-width="2"/><rect x="323.55" y="467.24" width="117.28" height="40.88" fill="none" stroke="#963427" stroke-linecap="round" stroke-linejoin="round" stroke-width="2"/><rect x="459.38" y="467.24" width="117.28" height="40.88" fill="none" stroke="#963427" stroke-linecap="round" stroke-linejoin="round" stroke-width="2"/><rect x="595.22" y="467.24" width="117.28" height="40.88" fill="none" stroke="#963427" stroke-linecap="round" stroke-linejoin="round" stroke-width="2"/><rect x="731.05" y="467.24" width="117.28" height="40.88" fill="none" stroke="#963427" stroke-linecap="round" stroke-linejoin="round" stroke-width="2"/><rect x="187.85" y="467.24" width="117.28" height="40.88" fill="none" stroke="#963427" stroke-linecap="round" stroke-linejoin="round" stroke-width="2"/></g><rect x="362.05" y="264.57" width="419.32" height="264.43" fill="#5e3734"/><line x1="257.43" y1="118.47" x2="886" y2="118.47" fill="none" stroke="#963427" stroke-linecap="round" stroke-linejoin="round" stroke-width="2"/><path d="m181.43,529.27h780.57v41.42c0,11.42-9.27,20.69-20.69,20.69H202.12c-11.42,0-20.69-9.27-20.69-20.69v-41.42h0Z" transform="translate(1143.43 1120.66) rotate(180)" fill="#edded6"/><line x1="962" y1="566.19" x2="181.43" y2="566.19" fill="none" stroke="#963427" stroke-linecap="round" stroke-linejoin="round" stroke-width="2"/><polyline points="362.05 524.9 409.8 499 731.05 499 781.37 524.9" fill="none" stroke="#89504d" stroke-linecap="round" stroke-linejoin="round" stroke-width="2"/><path d="m502.51,487.62l99.1-10.42,12.78,18.01s-36.5,10.68-48.96,11.57c-12.46.89-56.21,5.34-56.21,5.34,0,0-3.43-4.45-4.32-8.9s-2.38-15.61-2.38-15.61Z" fill="#3d3530"/><path d="m572.08,454.22l32.76,58.59,22.42-9.3-32.55-59.07s-7.23-4.25-13.99-2.36c-6.76,1.89-8.63,12.13-8.63,12.13Z" fill="#704e37"/><path d="m493.45,483.18l66.18-29.41,7.35,16.54-66.91,30.15s-13.97-4.04-6.62-17.28Z" fill="#704e37"/><path d="m500.07,500.46l1.13-.51c.58-6.35-1.92-12.98-6.7-17.24l-1.05.47c-7.35,13.24,6.62,17.28,6.62,17.28Z" fill="#826941"/><polygon points="555.95 500.83 565.14 450.09 586.05 451.55 584.26 498.98 555.95 500.83" fill="#826941"/><path d="m514.88,486.06c-7.26-2.58-14.11-6.99-18.18-13.53-6.06-9.73-4.96-22.47-.73-33.12,4.23-10.65,11.2-19.95,16.82-29.94,5.62-9.99,9.99-21.39,8.25-32.71,7.95,6.76,13.86,15.89,16.77,25.92,4.32-6.44,3.92-14.91,2.46-22.53-1.46-7.62-3.83-15.28-2.89-22.98,1.88-15.48,16.48-27.03,18.75-42.45.26,10.71.52,21.42.78,32.13.05,2.21.13,4.51,1.1,6.5s3.13,3.58,5.31,3.17c1.7-.32,2.97-1.72,3.98-3.12,5.62-7.74,7.5-18.08,4.94-27.3,2.1,8.83,9.57,15.19,14.48,22.83,5.58,8.69,7.85,19.45,6.24,29.66.21-7.26,5.23-13.32,9.22-19.38s7.14-14.05,3.54-20.35c7.2,15.23,14.56,31.29,13.54,48.1,5.87-7.11,9.29-16.22,9.54-25.44,9.38,15.48,17.76,33.29,14.31,51.06-1.33,6.82-4.38,13.64-3,20.46,7.44-7.9,12.5-18,14.37-28.69.21,5.88,3.09,11.29,4.63,16.97,2.74,10.08,1.17,21.05-3.2,30.53-4.38,9.48-11.42,17.56-19.48,24.2,1.79-.81,3.59-1.63,5.38-2.44-5.47,10.89-17.79,16.78-29.84,18.6-12.05,1.82-24.33.36-36.51.68-8.69.23-17.44,1.33-26.11.22-3.53-.45-6.93-1.46-10.4-2.21-3.18-.69-6.42-1.01-9.64-1.48-4.89-.72-9.77-1.69-14.43-3.34Z" fill="#ffe771"/><path d="m526.54,462.02c5.33-7.49,11.73-14.18,16.99-21.72,5.26-7.54,9.45-16.25,9.48-25.45,4.42,7.67,8.08,15.77,10.92,24.16-1.19-15.83,3.77-32.05,13.6-44.51-1.32,7.58-1.16,15.4.46,22.92,1.86-4.92,3.72-9.84,5.58-14.76,5.5,6.38,7.76,15.06,7.88,23.48s-1.71,16.74-3.55,24.97c4.74-11.68,13.99-21.46,25.39-26.85-5.07,9.39-4.07,21.72,2.46,30.16-.04-3.8.39-7.6,1.26-11.3,6.23,8.42,9.3,20.05,4.8,29.5-2.74,5.75-8.03,10.08-14.01,12.27-5.98,2.19-12.58,2.35-18.83,1.14-3.16-.61-6.26-1.57-9.46-1.83-6.46-.53-12.68,1.75-18.79,3.49-5.52,1.57-11.09,2.08-16.8,2.33-3.41.15-6.7-.05-9.81-1.56-1.87-.91-3.6-2.11-5.26-3.35-2.22-1.66-4.61-3.38-6.01-5.83-2.91-5.09-.3-11.18,2.57-15.65.36-.55.73-1.1,1.11-1.63Z" fill="#ff8548"/><path d="m586.05,451.55l-20.91-1.45-7.88,43.49c6.06.04,12.15-.55,18.2-.7,3.01-.08,6.02-.05,9.03.01l1.56-41.35Z" fill="#a3401d"/><path d="m620,490.37l-25.3-45.92s-7.23-4.25-13.99-2.36c-6.76,1.89-8.63,12.13-8.63,12.13l21.74,38.89c6.08.1,12.14,0,18.15-.9,2.69-.41,5.4-1.02,8.04-1.84Z" fill="#a3401d"/><path d="m559.63,453.77l-57.12,25.39c3.6,3.04,7.91,5.32,12.37,6.91,3.56,1.26,7.24,2.13,10.96,2.78l41.14-18.53-7.35-16.54Z" fill="#a3401d"/><path d="m499.1,377.14c-.84-4.28-3.65-7.89-5.13-11.99-3.07-8.53.53-18.96,8.22-23.77-1.63,2.53-1.03,5.85-.22,8.75,1.18,4.18,2.71,8.27,4.57,12.2,1.08,2.28,2.29,4.56,2.59,7.06.52,4.21-1.57,8.27-3.81,11.88-1.12,1.82-2.3,3.6-3.53,5.34-1.21,1.71-2.42,3.83-3.95,5.27-.36.34-1.01.78-1.52.38-.63-.49.14-1.4.39-1.96.87-1.95,1.64-3.95,2.13-6.04.55-2.33.72-4.75.25-7.11Z" fill="#ffe771"/><path d="m591.89,323.86c-.84-1.92-2.15-3.58-3.46-5.22-2.18-2.74-4.36-5.49-6.53-8.23,4.13-.15,8.4,1.02,11.53,3.72,3.13,2.7,4.95,7.02,4.17,11.08-.67,3.48-3.37,7.33-6.25,9.38,1.33-3.61,2.18-6.98.55-10.73Z" fill="#ffe771"/><path d="m653.78,367.97c.91-2.52,2.72-4.58,4.46-6.62,1.74-2.03,3.49-4.18,4.21-6.76.72-2.58.15-5.71-2.04-7.25-.28,2.59-2.39,4.61-4.59,6-2.2,1.39-4.68,2.44-6.5,4.31-3.18,3.25-3.71,8.44-2.29,12.76,1.06,3.22,3.05,6.03,5.31,8.52.4.44,1.02,1.43,1.68,1.44.82.02.71-.6.56-1.15-.51-1.8-1.14-3.49-1.36-5.36-.24-1.98-.12-4.01.56-5.9Z" fill="#ffe771"/><path d="m583.52,455.24l52.94,49.26-11.4,15.81-53.68-47.06s3.68-19.12,12.13-18.01Z" fill="#704e37"/><path d="m512.69,515.98c-.65,1.12,23.55,13.02,23.55,13.02l42.34-53.24s-3.22-16.5-11.85-18.43c-8.63-1.93-12.82,6.35-12.82,6.35,0,0-26.31,26.74-41.23,52.3Z" fill="#704e37"/><path d="m536.93,528.15c.11-2.66-.96-5.35-2.57-7.51-1.92-2.58-4.53-4.55-7.11-6.48-.97-1.1-2.74-2.01-4-2.74-1.39-.81-2.89-1.49-4.48-1.8-.64-.12-1.33-.21-2.02-.2-1.42,2.18-2.78,4.38-4.06,6.56-.65,1.12,23.55,13.02,23.55,13.02l.68-.85Z" fill="#826941"/><path d="m574.15,463.78c.79-3.44,2.43-6.95,5.64-8.8,1.24-.63,3.11-1.25,4.44-.52,5.89,5.31,11.73,10.67,17.49,16.12,2.89,2.71,5.73,5.47,8.6,8.2,2.87,2.73,5.68,5.52,8.1,8.74.1.12-.07.31-.2.21-3.38-2.18-6.36-4.79-9.3-7.45-8.84-7.95-17.56-16.01-26.12-24.26,0,0,.58.27.58.27-.91-.13-1.81.04-2.66.47-2.81,1.56-4.42,4.47-6.31,7.13-.08.14-.31.04-.27-.11h0Z" fill="#e26b00"/><path d="m559.37,499.69c1.78-4.19,6.09-8.98,8.76-12.64,3.14-4.04,6.33-8.04,9.6-11.98l-.22.9c-.52-2.87-1.59-6.01-2.44-8.82-.29-.99-.61-1.97-.88-3.01-.02-.08.02-.16.1-.19,2.4,2.12,3.56,5.48,4.54,8.49.31,1.02.59,2.03.84,3.1.07.31,0,.61-.18.85-1.55,2.06-3.16,4.08-4.75,6.11-2.73,3.52-6.82,8.42-9.69,11.9-1.63,1.97-3.32,3.89-5.46,5.46-.11.09-.3-.05-.23-.18h0Z" fill="#543724"/><path d="m535.13,484.47c1.26-3.18,3.41-5.66,5.36-8.3,3.4-4.41,15.91-22.18,22.09-18.68.12.09.04.29-.11.27-1.61-.06-2.74.93-4,1.88-6.55,4.8-11.05,11.74-16.29,17.87-2.11,2.51-4.02,5.18-6.83,7.14-.11.09-.29-.05-.23-.18h0Z" fill="#e26b00"/><path d="m438.64,529v-30.01c0-8.28,7.87-14.99,17.57-14.99h231.52c9.7,0,17.57,6.71,17.57,14.99v30.01" fill="none" stroke="#1e1717" stroke-linejoin="round" stroke-width="9"/><line x1="486.88" y1="483.18" x2="486.88" y2="454" fill="none" stroke="#1e1717" stroke-linejoin="round" stroke-width="7"/><path d="m492.14,454.26c0-2.91-2.36-5.26-5.26-5.26s-5.26,2.36-5.26,5.26,2.36,5.26,5.26,5.26,5.26-2.36,5.26-5.26Z" fill="#1e1717"/><line x1="529.88" y1="483.18" x2="529.88" y2="454" fill="none" stroke="#1e1717" stroke-linejoin="round" stroke-width="7"/><path d="m535.14,454.26c0-2.91-2.36-5.26-5.26-5.26s-5.26,2.36-5.26,5.26,2.36,5.26,5.26,5.26,5.26-2.36,5.26-5.26Z" fill="#1e1717"/><line x1="658.88" y1="483.18" x2="658.88" y2="454" fill="none" stroke="#1e1717" stroke-linejoin="round" stroke-width="7"/><path d="m664.14,454.26c0-2.91-2.36-5.26-5.26-5.26s-5.26,2.36-5.26,5.26,2.36,5.26,5.26,5.26,5.26-2.36,5.26-5.26Z" fill="#1e1717"/><line x1="688.88" y1="483.18" x2="688.88" y2="441.5" fill="none" stroke="#1e1717" stroke-linejoin="round" stroke-width="7"/><path d="m696.77,441.9c0-4.36-3.54-7.9-7.9-7.9s-7.9,3.54-7.9,7.9,3.54,7.9,7.9,7.9,7.9-3.54,7.9-7.9Z" fill="#1e1717"/><line x1="456.88" y1="483.18" x2="456.88" y2="441.5" fill="none" stroke="#1e1717" stroke-linejoin="round" stroke-width="7"/><path d="m464.77,441.9c0-4.36-3.54-7.9-7.9-7.9s-7.9,3.54-7.9,7.9,3.54,7.9,7.9,7.9,7.9-3.54,7.9-7.9Z" fill="#1e1717"/><line x1="615.88" y1="483.18" x2="615.88" y2="454" fill="none" stroke="#1e1717" stroke-linejoin="round" stroke-width="7"/><path d="m621.14,454.26c0-2.91-2.36-5.26-5.26-5.26s-5.26,2.36-5.26,5.26,2.36,5.26,5.26,5.26,5.26-2.36,5.26-5.26Z" fill="#1e1717"/><line x1="572.88" y1="483.18" x2="572.88" y2="454" fill="none" stroke="#1e1717" stroke-linejoin="round" stroke-width="7"/><path d="m578.14,454.26c0-2.91-2.36-5.26-5.26-5.26s-5.26,2.36-5.26,5.26,2.36,5.26,5.26,5.26,5.26-2.36,5.26-5.26Z" fill="#1e1717"/></svg>