<?xml version="1.0" encoding="UTF-8"?><svg id="a" xmlns="http://www.w3.org/2000/svg" width="1140" height="640" xmlns:xlink="http://www.w3.org/1999/xlink" viewBox="0 0 1140 640"><defs><clipPath id="b"><path d="m152.09,13.96c-43.95.12-93.75,2.27-122.28,28.77C4.55,66.18,5.37,100.33,7.18,131c8.05,99.72-11.8,297.55,2.16,397.92,13.96,92.48,168.86,100.16,261.59,100.95,137.6.79,277.74-7.91,415.39-2.93,23.41.38,46.83.9,70.25,1.54,23.42.64,46.86,1.38,70.29,2.17,79.77,1.58,168.51,17.39,238.31-14.23,75.78-34.78,71.79-123.3,72.79-189.69,1-59.28-17.95-230-10.98-289.2,1.21-13.23,3.17-26.45,2.93-39.72-.58-32.05-17.43-66.66-53.71-80.82-14.51-5.66-30.84-7.59-46.93-8.94-66.82-5.6-134.1-2.43-200.96.98-63.97,3.26-127.09,3.45-191.01,3.63-104.18.28-208.36.56-312.55.83-57.56.15-115.12.31-172.69.46Z" fill="none" stroke-width="0"/></clipPath></defs><g clip-path="url(#b)"><rect x="-8" y="1" width="1171" height="639" fill="#c1eada" stroke-width="0"/><rect x="-8" y="381" width="1179" height="274" fill="#c17c6f" stroke-width="0"/><line x1="-26" y1="429.16" x2="1171" y2="429.16" fill="none" stroke="#efd1cb" stroke-miterlimit="10" stroke-width="4"/><path d="m-8,395c1119.5,33.5,1179.5,34.5,1179.5,34.5" fill="none" stroke="#efd1cb" stroke-miterlimit="10" stroke-width="4"/><line x1="-26" y1="490" x2="1171" y2="490" fill="none" stroke="#efd1cb" stroke-miterlimit="10" stroke-width="6"/><line x1="-32" y1="571" x2="1165" y2="571" fill="none" stroke="#efd1cb" stroke-miterlimit="10" stroke-width="8"/><polygon points="311.15 655.5 330 652 409.99 380.5 403.83 380.75 311.15 655.5" fill="#efd1cb" stroke-width="0"/><polygon points="278.88 520.28 315 520.28 315 526.47 313.03 534.05 197.57 534.05 203.17 517.53 278.88 520.28" fill="#bcc1bf" stroke-width="0"/><path d="m43.49,510.45l18.88-31.46,11.01-12.59s11.01,25.17,28.32,39.33v5.24l-58.21-.52Z" fill="#77747a" stroke-width="0"/><path d="m100.12,512.02c-15.73-7.87-25.17-31.46-32.87-38.53" fill="none" stroke="#333135" stroke-miterlimit="10" stroke-width="3"/><path d="m81.17,507.43c-8.34-2.2-18.54-20.11-18.94-28.4,0,0,.28-.09.28-.09,3.15,4.82,4.93,10.32,8.13,15.1,2.23,3.59,4.71,7.04,7.79,9.93.95,1.06,1.99,1.95,2.89,3.21l-.16.25h0Z" fill="#333135" stroke-width="0"/><polygon points="-35.17 507.3 279.76 507.3 279.76 517.53 276.32 530.9 -48.17 530.9 -48.17 519.1 -35.17 507.3" fill="#77747a" stroke-width="0"/><path d="m-48.17,518.96c74.64-2.12,167.68-1.61,242.77-2.1,26.98-.06,53.95-.29,80.93.17h.53s-.01.51-.01.51c-.12,4.46-.2,8.91-.36,13.37h-.29c-.16-4.46-.24-8.91-.36-13.37l.51.51c-26.97.72-53.95.75-80.92.95l-80.92.52c-47.3-.35-115.73,1.5-161.86-.56h0Z" fill="#333135" stroke-width="0"/><path d="m275.4,517.47c-.56-1.23-.06-2.02.19-2.91.28-.88.59-1.75.94-2.6.35-.85.76-1.68,1.18-2.51.43-.82.72-1.7,1.91-2.2l.27.11c.49,1.2.08,2.03-.2,2.91-.28.88-.58,1.76-.93,2.61-.35.85-.75,1.69-1.17,2.51-.45.81-.66,1.72-1.92,2.2l-.27-.11h0Z" fill="#333135" stroke-width="0"/><path d="m263.07,506.59c-.18,2.72-2.31,5.63-3.45,7.98-1.38,2.52-2.84,5.01-4.37,7.45l.15-.56c-.1,1.82,0,3.66-.39,5.45-.13.61-.29,1.21-.58,1.82h-.29c-1.07-2.39-.83-4.99-.97-7.53,1.4-2.65,2.88-5.25,4.44-7.8,1.48-2.15,2.92-5.44,5.21-6.96,0,0,.25.15.25.15h0Z" fill="#333135" stroke-width="0"/><path d="m248.13,506.4c-.18,2.72-2.31,5.63-3.45,7.98-1.38,2.52-2.84,5.01-4.37,7.45l.15-.56c-.1,1.82,0,3.66-.39,5.45-.13.61-.29,1.21-.58,1.82h-.29c-1.07-2.39-.83-4.99-.97-7.53,1.4-2.65,2.88-5.25,4.44-7.8,1.48-2.15,2.92-5.44,5.21-6.96,0,0,.25.15.25.15h0Z" fill="#333135" stroke-width="0"/><path d="m234.76,506.59c-.18,2.72-2.31,5.63-3.45,7.98-1.38,2.52-2.84,5.01-4.37,7.45l.15-.56c-.1,1.82,0,3.66-.39,5.45-.13.61-.29,1.21-.58,1.82h-.29c-1.07-2.39-.83-4.99-.97-7.53,1.4-2.65,2.88-5.25,4.44-7.8,1.48-2.16,2.92-5.44,5.21-6.96,0,0,.25.15.25.15h0Z" fill="#333135" stroke-width="0"/><path d="m219.81,506.4c-.18,2.72-2.31,5.63-3.45,7.98-1.38,2.52-2.84,5.01-4.37,7.45l.15-.56c-.1,1.82,0,3.66-.39,5.45-.13.61-.29,1.21-.58,1.82h-.29c-1.07-2.39-.83-4.99-.97-7.53,1.4-2.65,2.88-5.25,4.44-7.8,1.48-2.15,2.92-5.44,5.21-6.96,0,0,.25.15.25.15h0Z" fill="#333135" stroke-width="0"/><path d="m206.44,506.59c-.18,2.72-2.31,5.63-3.45,7.98-1.38,2.52-2.84,5.01-4.37,7.45l.15-.56c-.1,1.82,0,3.66-.39,5.45-.13.61-.29,1.21-.58,1.82h-.29c-1.07-2.39-.83-4.99-.97-7.53,1.4-2.65,2.88-5.25,4.44-7.8,1.48-2.15,2.92-5.44,5.21-6.96,0,0,.25.15.25.15h0Z" fill="#333135" stroke-width="0"/><path d="m191.49,506.4c-.18,2.72-2.31,5.63-3.45,7.98-1.38,2.52-2.84,5.01-4.37,7.45l.15-.56c-.1,1.82,0,3.66-.39,5.45-.13.61-.29,1.21-.58,1.82h-.29c-1.07-2.39-.83-4.99-.97-7.53,1.4-2.65,2.88-5.25,4.44-7.8,1.48-2.15,2.92-5.44,5.21-6.96,0,0,.25.15.25.15h0Z" fill="#333135" stroke-width="0"/><path d="m137.22,506.59c-.18,2.72-2.31,5.63-3.45,7.98-1.38,2.52-2.84,5.01-4.37,7.45l.15-.56c-.1,1.82,0,3.66-.39,5.45-.13.61-.29,1.21-.58,1.82h-.29c-1.07-2.39-.83-4.99-.97-7.53,1.4-2.65,2.88-5.25,4.44-7.8,1.48-2.16,2.92-5.44,5.21-6.96,0,0,.25.15.25.15h0Z" fill="#333135" stroke-width="0"/><path d="m122.27,506.4c-.18,2.72-2.31,5.63-3.45,7.98-1.38,2.52-2.84,5.01-4.37,7.45l.15-.56c-.1,1.82,0,3.66-.39,5.45-.13.61-.29,1.21-.58,1.82h-.29c-1.07-2.39-.83-4.99-.97-7.53,1.4-2.65,2.88-5.25,4.44-7.8,1.48-2.15,2.92-5.44,5.21-6.96,0,0,.25.15.25.15h0Z" fill="#333135" stroke-width="0"/><path d="m108.9,506.59c-.18,2.72-2.31,5.63-3.45,7.98-1.38,2.52-2.84,5.01-4.37,7.45l.15-.56c-.1,1.82,0,3.66-.39,5.45-.13.61-.29,1.21-.58,1.82h-.29c-1.07-2.39-.83-4.99-.97-7.53,1.4-2.65,2.88-5.25,4.44-7.8,1.48-2.16,2.92-5.44,5.21-6.96,0,0,.25.15.25.15h0Z" fill="#333135" stroke-width="0"/><path d="m93.96,506.4c-.18,2.72-2.31,5.63-3.45,7.98-1.38,2.52-2.84,5.01-4.37,7.45l.15-.56c-.1,1.82,0,3.66-.39,5.45-.13.61-.29,1.21-.58,1.82h-.29c-1.07-2.39-.83-4.99-.97-7.53,1.4-2.65,2.88-5.25,4.44-7.8,1.48-2.15,2.92-5.44,5.21-6.96,0,0,.25.15.25.15h0Z" fill="#333135" stroke-width="0"/><path d="m80.58,506.59c-.18,2.72-2.31,5.63-3.45,7.98-1.38,2.52-2.84,5.01-4.37,7.45l.15-.56c-.1,1.82,0,3.66-.39,5.45-.13.61-.29,1.21-.58,1.82h-.29c-1.07-2.39-.83-4.99-.97-7.53,1.4-2.65,2.88-5.25,4.44-7.8,1.48-2.15,2.92-5.44,5.21-6.96,0,0,.25.15.25.15h0Z" fill="#333135" stroke-width="0"/><path d="m65.64,506.4c-.18,2.72-2.31,5.63-3.45,7.98-1.38,2.52-2.84,5.01-4.37,7.45l.15-.56c-.1,1.82,0,3.66-.39,5.45-.13.61-.29,1.21-.58,1.82h-.29c-1.07-2.39-.83-4.99-.97-7.53,1.4-2.65,2.88-5.25,4.44-7.8,1.48-2.15,2.92-5.44,5.21-6.96,0,0,.25.15.25.15h0Z" fill="#333135" stroke-width="0"/><path d="m51.48,506.4c-.18,2.72-2.31,5.63-3.45,7.98-1.38,2.52-2.84,5.01-4.37,7.45l.15-.56c-.1,1.82,0,3.66-.39,5.45-.13.61-.29,1.21-.58,1.82h-.29c-1.07-2.39-.83-4.99-.97-7.53,1.4-2.65,2.88-5.25,4.44-7.8,1.48-2.16,2.92-5.44,5.21-6.96,0,0,.25.15.25.15h0Z" fill="#333135" stroke-width="0"/><path d="m38.11,506.59c-.18,2.72-2.31,5.63-3.45,7.98-1.38,2.52-2.84,5.01-4.37,7.45l.15-.56c-.1,1.82,0,3.66-.39,5.45-.13.61-.29,1.21-.58,1.82h-.29c-1.07-2.39-.83-4.99-.97-7.53,1.4-2.65,2.88-5.25,4.44-7.8,1.48-2.15,2.92-5.44,5.21-6.96,0,0,.25.15.25.15h0Z" fill="#333135" stroke-width="0"/><path d="m23.16,506.4c-.18,2.72-2.31,5.63-3.45,7.98-1.38,2.52-2.84,5.01-4.37,7.45l.15-.56c-.1,1.82,0,3.66-.39,5.45-.13.61-.29,1.21-.58,1.82h-.29c-1.07-2.39-.83-4.99-.97-7.53,1.4-2.65,2.88-5.25,4.44-7.8,1.48-2.16,2.92-5.44,5.21-6.96,0,0,.25.15.25.15h0Z" fill="#333135" stroke-width="0"/><path d="m125.41,546.06v-6.51h1.46l21.91-36.52,12.78-14.61c6.04,8.66,30.59,38.54,43.18,38.54l1.57,7.87-14.95,11.8-65.96-.57Z" fill="#77747a" stroke-width="0"/><path d="m148.9,502.95c6.75,6.88,12.3,14.64,19.32,21.23,6.88,6.58,14.53,13.4,23.99,15.54-.48,6.63-.97,9.77-1.65.62,0,0,.67.79.67.79-2.51-.26-4.9-1.11-7.13-2.16-10.99-5.42-19.56-14.59-27.3-23.86-3.05-3.74-6.09-7.53-8.15-11.99l.24-.17h0Z" fill="#333135" stroke-width="0"/><path d="m196.09,534.05c-15.73-7.87-33.04-31.46-40.73-38.53" fill="none" stroke="#333135" stroke-miterlimit="10" stroke-width="3"/><path d="m191.26,540.24c2.48-4.6,7.7-9.99,11.04-14.04,0,0,.35,1.8.35,1.8-5.18-2.69-9.89-5.93-14.48-9.46-4.46-3.62-9.07-7.15-12.39-11.92-.09-.12.07-.3.2-.21,2.47,1.5,4.64,3.31,6.88,5.09,4.35,3.61,8.91,6.97,13.63,10.07,2.35,1.54,4.76,3.07,7.19,4.36.68.32.87,1.25.35,1.8-2.16,2.27-6.88,7.73-9.11,9.8-1.09,1.02-2.2,2.02-3.45,2.9-.12.09-.3-.06-.22-.19h0Z" fill="#333135" stroke-width="0"/><path d="m8.1,507.16c19.9-1.51,48.82-.76,69.06-1.06,20.32.28,49.04-.39,69.06,1.06,0,0,0,.29,0,.29-19.9,1.45-48.82.78-69.06,1.06,0,0-34.53-.12-34.53-.12-11.51-.11-23.02.05-34.53-.94v-.29h0Z" fill="#333135" stroke-width="0"/><path d="m130.05,533.97c.95-3.38,2.87-6.15,4.57-9.06,1.71-2.9,3.49-5.76,5.26-8.63,1.81-2.84,3.61-5.68,5.47-8.49,1.86-2.81,3.58-5.7,6.14-8.07l.25.16c-1.01,3.34-2.86,6.16-4.58,9.05-1.71,2.9-3.48,5.77-5.25,8.63-1.81,2.84-3.6,5.69-5.46,8.5-1.88,2.8-3.53,5.74-6.15,8.07l-.25-.16h0Z" fill="#333135" stroke-width="0"/><polygon points="296.69 457.89 327 457.89 327 463.08 325.34 469.45 228.47 469.45 233.16 455.59 296.69 457.89" fill="#bcc1bf" stroke-width="0"/><path d="m99.18,449.65l15.84-26.4,9.24-10.56s9.24,21.12,23.76,33v4.39l-48.84-.43Z" fill="#77747a" stroke-width="0"/><path d="m146.7,450.97c-13.2-6.6-21.12-26.4-27.58-32.33" fill="none" stroke="#333135" stroke-miterlimit="10" stroke-width="3"/><path d="m130.78,447.13c-6.97-1.41-15.96-17.04-15.9-23.84,0,0,.28-.09.28-.09,2.84,3.92,4.24,8.59,6.97,12.57,1.86,3,3.92,5.88,6.47,8.32.78.9,1.63,1.67,2.34,2.79l-.16.25h0Z" fill="#333135" stroke-width="0"/><polygon points="33.18 447 297.43 447 297.43 455.59 294.54 466.81 22.27 466.81 22.27 456.91 33.18 447" fill="#77747a" stroke-width="0"/><path d="m22.27,456.76c87.78-2.2,184.33-2.11,272.14-1.67-.13,3.91-.21,7.81-.38,11.72h-.29c-.16-3.74-.24-7.48-.36-11.22l.51.51c-22.63.7-45.27.71-67.9.89l-67.9.46c-39.65-.38-97.25,1.41-135.81-.69h0Z" fill="#333135" stroke-width="0"/><polygon points="47.7 465.49 47.7 470.77 39.78 481.33 14.03 481.33 14 477.13 26.58 465.47 47.7 465.49" fill="#bcc1bf" stroke-width="0"/><path d="m293.75,455.53c-.62-1.09-.18-1.75.02-2.5.22-.75.48-1.48.77-2.19.3-.71.65-1.41,1.01-2.09.37-.68.6-1.43,1.74-1.79l.27.11c.55,1.06.19,1.75-.03,2.5-.23.74-.47,1.48-.76,2.2-.3.71-.63,1.41-1,2.1-.39.68-.54,1.45-1.75,1.79l-.27-.11h0Z" fill="#333135" stroke-width="0"/><path d="m283.45,446.42c.02,2.37-1.81,4.77-2.75,6.78-1.15,2.12-2.38,4.21-3.68,6.24l.15-.56c-.13,2.07.06,4.2-.96,6.1h-.29c-1.06-1.98-.83-4.2-.98-6.35,1.17-2.25,2.42-4.45,3.75-6.6,1.28-1.82,2.44-4.59,4.51-5.76,0,0,.25.15.25.15h0Z" fill="#333135" stroke-width="0"/><path d="m270.91,446.26c.02,2.37-1.81,4.77-2.75,6.78-1.15,2.12-2.38,4.21-3.68,6.24l.15-.56c-.13,2.07.06,4.2-.96,6.1,0,0-.29,0-.29,0-1.06-1.98-.83-4.2-.98-6.35,1.17-2.25,2.42-4.45,3.75-6.6,1.28-1.82,2.44-4.59,4.51-5.76,0,0,.25.15.25.15h0Z" fill="#333135" stroke-width="0"/><path d="m259.69,446.42c.02,2.37-1.81,4.77-2.75,6.78-1.15,2.12-2.38,4.21-3.68,6.24l.15-.56c-.13,2.07.06,4.2-.96,6.1h-.29c-1.06-1.98-.83-4.2-.98-6.35,1.17-2.25,2.42-4.45,3.75-6.6,1.28-1.82,2.44-4.59,4.51-5.76,0,0,.25.15.25.15h0Z" fill="#333135" stroke-width="0"/><path d="m247.15,446.26c.02,2.37-1.81,4.77-2.75,6.78-1.15,2.12-2.38,4.21-3.68,6.24l.15-.56c-.13,2.07.06,4.2-.96,6.1,0,0-.29,0-.29,0-1.06-1.98-.83-4.2-.98-6.35,1.17-2.25,2.42-4.45,3.75-6.6,1.28-1.82,2.44-4.59,4.51-5.76,0,0,.25.15.25.15h0Z" fill="#333135" stroke-width="0"/><path d="m235.93,446.42c.02,2.37-1.81,4.77-2.75,6.78-1.15,2.12-2.38,4.21-3.68,6.24l.15-.56c-.13,2.07.06,4.2-.96,6.1,0,0-.29,0-.29,0-1.06-1.98-.83-4.2-.98-6.35,1.17-2.25,2.42-4.45,3.75-6.6,1.28-1.82,2.44-4.59,4.51-5.76,0,0,.25.15.25.15h0Z" fill="#333135" stroke-width="0"/><path d="m223.39,446.26c.02,2.37-1.81,4.77-2.75,6.78-1.15,2.12-2.38,4.21-3.68,6.24l.15-.56c-.13,2.07.06,4.2-.96,6.1h-.29c-1.06-1.98-.83-4.2-.98-6.35,1.17-2.25,2.42-4.45,3.75-6.6,1.28-1.82,2.44-4.59,4.51-5.76,0,0,.25.15.25.15h0Z" fill="#333135" stroke-width="0"/><path d="m177.85,446.42c.02,2.37-1.81,4.77-2.75,6.78-1.15,2.12-2.38,4.21-3.68,6.24l.15-.56c-.13,2.07.06,4.2-.96,6.1h-.29c-1.06-1.98-.83-4.2-.98-6.35,1.17-2.25,2.42-4.45,3.75-6.6,1.28-1.82,2.44-4.59,4.51-5.76,0,0,.25.15.25.15h0Z" fill="#333135" stroke-width="0"/><path d="m165.31,446.26c.02,2.37-1.81,4.77-2.75,6.78-1.15,2.12-2.38,4.21-3.68,6.24l.15-.56c-.13,2.07.06,4.2-.96,6.1,0,0-.29,0-.29,0-1.06-1.98-.83-4.2-.98-6.35,1.17-2.25,2.42-4.45,3.75-6.6,1.28-1.82,2.44-4.59,4.51-5.76,0,0,.25.15.25.15h0Z" fill="#333135" stroke-width="0"/><path d="m154.09,446.42c.02,2.37-1.81,4.77-2.75,6.78-1.15,2.12-2.38,4.21-3.68,6.24l.15-.56c-.13,2.07.06,4.2-.96,6.1h-.29c-1.06-1.98-.83-4.2-.98-6.35,1.17-2.25,2.42-4.45,3.75-6.6,1.28-1.82,2.44-4.59,4.51-5.76,0,0,.25.15.25.15h0Z" fill="#333135" stroke-width="0"/><path d="m141.55,446.26c.02,2.37-1.81,4.77-2.75,6.78-1.15,2.12-2.38,4.21-3.68,6.24l.15-.56c-.13,2.07.06,4.2-.96,6.1h-.29c-1.06-1.98-.83-4.2-.98-6.35,1.17-2.25,2.42-4.45,3.75-6.6,1.28-1.82,2.44-4.59,4.51-5.76,0,0,.25.15.25.15h0Z" fill="#333135" stroke-width="0"/><path d="m130.33,446.42c.02,2.37-1.81,4.77-2.75,6.78-1.15,2.12-2.38,4.21-3.68,6.24l.15-.56c-.13,2.07.06,4.2-.96,6.1,0,0-.29,0-.29,0-1.06-1.98-.83-4.2-.98-6.35,1.17-2.25,2.42-4.45,3.75-6.6,1.28-1.82,2.44-4.59,4.51-5.76,0,0,.25.15.25.15h0Z" fill="#333135" stroke-width="0"/><path d="m117.79,446.26c.02,2.37-1.81,4.77-2.75,6.78-1.15,2.12-2.38,4.21-3.68,6.24l.15-.56c-.13,2.07.06,4.2-.96,6.1h-.29c-1.06-1.98-.83-4.2-.98-6.35,1.17-2.25,2.42-4.45,3.75-6.6,1.28-1.82,2.44-4.59,4.51-5.76,0,0,.25.15.25.15h0Z" fill="#333135" stroke-width="0"/><path d="m105.91,446.26c.02,2.37-1.81,4.77-2.75,6.78-1.15,2.12-2.38,4.21-3.68,6.24l.15-.56c-.13,2.07.06,4.2-.96,6.1,0,0-.29,0-.29,0-1.06-1.98-.83-4.2-.98-6.35,1.17-2.25,2.42-4.45,3.75-6.6,1.28-1.82,2.44-4.59,4.51-5.76,0,0,.25.15.25.15h0Z" fill="#333135" stroke-width="0"/><path d="m94.69,446.42c.02,2.37-1.81,4.77-2.75,6.78-1.15,2.12-2.38,4.21-3.68,6.24l.15-.56c-.13,2.07.06,4.2-.96,6.1h-.29c-1.06-1.98-.83-4.2-.98-6.35,1.17-2.25,2.42-4.45,3.75-6.6,1.28-1.82,2.44-4.59,4.51-5.76,0,0,.25.15.25.15h0Z" fill="#333135" stroke-width="0"/><path d="m82.15,446.26c.02,2.37-1.81,4.77-2.75,6.78-1.15,2.12-2.38,4.21-3.68,6.24l.15-.56c-.13,2.07.06,4.2-.96,6.1,0,0-.29,0-.29,0-1.06-1.98-.83-4.2-.98-6.35,1.17-2.25,2.42-4.45,3.75-6.6,1.28-1.82,2.44-4.59,4.51-5.76,0,0,.25.15.25.15h0Z" fill="#333135" stroke-width="0"/><path d="m167.92,479.53v-5.46h1.23l18.39-30.64,10.73-12.26c5.07,7.26,25.67,32.34,36.23,32.34l1.32,6.6-12.54,9.9-55.35-.48Z" fill="#77747a" stroke-width="0"/><path d="m187.65,443.34c5.84,5.62,10.4,12.19,16.33,17.69,5.78,5.54,12.21,11.25,20.14,13.09-.47,5.5-.97,8.45-1.66.61,0,0,.67.79.67.79-2.13-.19-4.15-.91-6.03-1.79-9.27-4.54-16.48-12.24-22.96-20.06-2.55-3.15-5.11-6.33-6.73-10.16l.24-.17h0Z" fill="#333135" stroke-width="0"/><path d="m227.22,469.45c-13.2-6.6-27.72-26.4-34.18-32.33" fill="none" stroke="#333135" stroke-miterlimit="10" stroke-width="3"/><path d="m223.15,474.63c1.93-3.96,6.36-8.47,9.14-11.89,0,0,.35,1.8.35,1.8-4.37-2.26-8.32-4.97-12.17-7.96-3.74-3.07-7.65-6-10.3-10.13-.08-.12.07-.29.2-.21,2.13,1.19,3.98,2.68,5.87,4.17,3.66,3.01,7.49,5.82,11.44,8.41,1.96,1.29,3.99,2.58,6.01,3.65.68.32.87,1.25.35,1.8-1.83,1.89-5.78,6.48-7.68,8.19-.93.84-1.89,1.66-2.98,2.36-.12.08-.29-.06-.22-.19h0Z" fill="#333135" stroke-width="0"/><path d="m69.49,446.86c16.7-1.51,40.96-.76,57.95-1.06,0,0,28.97.13,28.97.13,9.66.08,19.32.01,28.97.93v.29c-16.7,1.45-40.96.78-57.95,1.06,0,0-28.97-.12-28.97-.12-9.66-.1-19.32.05-28.97-.94v-.29h0Z" fill="#333135" stroke-width="0"/><path d="m171.79,469.37c.66-2.92,2.29-5.23,3.7-7.68,1.42-2.44,2.91-4.84,4.39-7.25,1.52-2.38,3.04-4.77,4.61-7.11,1.57-2.35,3.01-4.78,5.28-6.69l.25.16c-.72,2.88-2.28,5.24-3.71,7.68-1.42,2.44-2.91,4.85-4.38,7.26-1.52,2.38-3.03,4.77-4.6,7.12-1.59,2.34-2.95,4.82-5.29,6.69l-.25-.16h0Z" fill="#333135" stroke-width="0"/></g><path id="c" d="m658.13,128.39l-60.89-20.94-24.42,48.8-13.38-7.89c1.96-9.27,3.98-18.82,6.58-28.74,3.32-12.64,6.89-24.58,10.59-35.82.11-.64.79-4.22,4.17-6.48,3.97-2.66,23.27,2.87,23.74,3.04,11.89,4.98,51.34,12.02,76.87,21.9l-23.26,26.14Z" fill="#994a37" stroke-width="0"/><path id="d" d="m590.44,327.58l56.49-26.1s-31.02-7.7-66.69-50.99l52.38-37.3s60.21,56.57,59.35,92.59c0,0,.44,11.49-15.34,15.95l-88.58,24.09,2.39-18.24Z" fill="#994a37" stroke-width="0"/><polyline id="e" points="585.11 212.77 583.55 214.91 434.04 419.6 444.9 430.82 636.55 245.61" fill="#994a37" stroke-width="0"/><g id="f"><path d="m431.81,424.01l22.99-33.26c.7.38,12.36,8.91,17.58,13.67-13.98,13.95-28.61,29.1-28.61,29.1l-11.95-9.51Z" fill="#333" stroke-width="0"/><path d="m442.45,406.17l5.21-6.75c.95-1.47,16.63,13.17,16.63,13.17.31,1.38-7.24,9.86-7.24,9.86-7.95,7.65-13.46,26.43-19.79,39.31-.8,1.62-1.88,8.69-3.3,7.57-6.53-5.22-7.86-19.89-7.96-21.11l-2.9-33.42c-.12-1.43.66-2.75,1.92-3.21,1.21-.44,2.46-.87,3.75-1.27,6.81-2.13,8.08-3.73,13.68-4.15Z" fill="#3c8875" stroke-width="0"/><path d="m423.9,424.17l-.81-9.36c-.12-1.43.66-2.75,1.92-3.21,1.21-.44,2.46-.87,3.75-1.27,4.78-1.5,9.38-3.48,13.61-4.06-2.19,4.87-7.56,14.68-18.46,17.91Z" fill="#23623c" stroke-width="0"/><path d="m439.85,450.5c.45,1.32.73,2.74.88,4.17-.61,1.24-.93,3.19-1.19,5.29,6.73,3.66,8.57,8.32,7.66,10.18-.8,1.62-11.83.33-13.24-.8-6.53-5.22-7.86-19.89-7.96-21.11l-.49-5.65c7.11-.58,12.19,1.61,14.35,7.92Z" fill="#23623c" stroke-width="0"/><path d="m439.32,451.17c-.3-2.76.51-5.28,1.16-7.83,1.59-5.6,5.51-18.7,11.74-20.21,0,0,.12.24.12.24-5.2,5.77-7.5,13.3-9.97,20.53-.83,2.46-1.35,4.99-2.79,7.33l-.26-.06h0Z" fill="#23623c" stroke-width="0"/><path d="m450.99,430.83c-.62-.81-.36-1.17-.36-1.64,0-.72.05-1.26-.35-1.75-.2-.22-.55-.19-1.03-1.05v-.27c1.08-1.53,3.28.08,3.47,1.48.15.75.04,1.41-.15,1.99-.21.56-.28,1.2-1.33,1.35l-.24-.11h0Z" fill="#f7c756" stroke-width="0"/><path d="m446.39,440.49c-.69-.83-.45-1.32-.49-1.9-.06-.91-.11-1.81-.72-2.41-.54-.36-.83-.4-1.34-1.07,0,0-.01-.27-.01-.27,1.29-1.63,3.67.13,3.98,1.66.22.8.19,1.57.05,2.26-.16.68-.17,1.43-1.22,1.8l-.25-.08h0Z" fill="#f7c756" stroke-width="0"/><path d="m442.27,450.1c-.56-.89-.25-1.3-.2-1.83.05-.77.21-1.48-.24-2-.23-.22-.65-.19-1.24-1.02v-.27c.67-1.03,1.9-.73,2.75-.09.55.4.89,1.12.95,1.77.09.82-.08,1.51-.32,2.13-.26.6-.38,1.28-1.46,1.43l-.24-.12h0Z" fill="#f7c756" stroke-width="0"/><path d="m426,413.81l2.9,33.42c.1,1.22,3.79,18.91,7.32,20.6,4.9,2.34,10.87,1.24,11.17,1.35.01.44,0,.98-.28,1.22-.37.32-1.25.6-2.72.67-8.75.43-10.13-1.47-10.45-1.73-6.53-5.22-7.86-19.89-7.96-21.11l-2.9-33.42c-.12-1.43.66-2.75,1.92-3.21.94-.34,1.9-.67,2.89-.99-1.25.47-2.02,1.78-1.9,3.2Z" stroke-width="0"/></g><g id="g"><path d="m567.47,338.23l37.63-17.62c.41.68,5.97,11.45,8.08,18.19-17.64,5.7-39.16,13.19-39.16,13.19l-6.55-13.77Z" fill="#333" stroke-width="0"/><path d="m571.57,334.46l11.8-4.05c1.22-.42,2.57.3,3.01,1.6l5.44,12.08c.46,1.34-.18,2.78-1.44,3.21l-7.85,2.69c-7.08,8.45-10.4,26.79-15.32,40.28-.62,1.7-.94,8.85-2.47,7.88-7.05-4.49-9.95-18.94-10.18-20.14l-6.46-32.91c-.28-1.41.36-2.8,1.56-3.4,1.15-.57,2.35-1.13,3.59-1.67,6.55-2.85,12.77-4.55,18.3-5.57Z" fill="#3c8875" stroke-width="0"/><path d="m549.92,354.32l-1.81-9.22c-.28-1.41.36-2.8,1.56-3.4,1.15-.57,2.35-1.13,3.59-1.67,4.59-2,9.01-3.42,13.16-4.45-1.65,5.08-6.01,14.36-16.5,18.74Z" fill="#23623c" stroke-width="0"/><path d="m568.6,378.79c.59,1.27,1.02,2.65,1.32,4.05-1.18,3.23-.08,10.75-1.26,13.98-.62,1.7-2.38,2.3-3.9,1.33-7.05-4.49-9.95-18.94-10.18-20.14l-1.09-5.56c7.01-1.34,12.3.3,15.12,6.34Z" fill="#23623c" stroke-width="0"/><path d="m568.14,379.51c-1.2-5.83,3.34-27.64,9.82-29.26,0,0,.15.22.15.22-4.56,6.29-6.04,14.03-7.71,21.48-.56,2.54-.81,5.11-1.99,7.59l-.27-.03h0Z" fill="#23623c" stroke-width="0"/><path d="m577.57,358.04c-.71-.74-.49-1.12-.53-1.59-.08-.71-.08-1.26-.54-1.7-.22-.19-.57-.13-1.14-.94l-.03-.27c.91-1.64,3.27-.28,3.61,1.1.23.73.19,1.4.06,1.99-.15.58-.15,1.23-1.18,1.49l-.25-.09h0Z" fill="#f7c756" stroke-width="0"/><path d="m574.03,368.13c-.77-.75-.59-1.27-.69-1.83-.16-.9-.3-1.79-.97-2.32-.57-.3-.87-.3-1.44-.92,0,0-.04-.26-.04-.26,1.1-1.76,3.66-.26,4.14,1.23.31.78.35,1.54.29,2.24-.08.69-.01,1.43-1.02,1.92l-.26-.06h0Z" fill="#f7c756" stroke-width="0"/><path d="m570.96,378.13c-.65-.83-.39-1.27-.4-1.8-.03-.77.05-1.5-.45-1.97-.25-.2-.67-.11-1.34-.88l-.04-.26c.57-1.1,1.83-.94,2.73-.38.59.34,1,1.02,1.14,1.66.18.8.08,1.51-.09,2.15-.19.62-.24,1.31-1.3,1.58l-.25-.1h0Z" fill="#f7c756" stroke-width="0"/><path d="m550.9,343.79l6.46,32.91c.23,1.2,3.12,15.65,10.18,20.14.3.19.61.31.93.38-.74,1.38-2.31,1.82-3.71.93-7.05-4.49-9.95-18.94-10.18-20.14l-6.46-32.91c-.28-1.41.36-2.8,1.56-3.4.89-.44,1.82-.87,2.76-1.3-1.19.6-1.82,1.99-1.54,3.39Z" stroke-width="0"/></g><g id="h"><polygon points="701.83 121.21 682.72 107.31 683.36 100.38 689.24 97.29 701.36 78.88 720.92 99.71 701.83 121.21" fill="#994a37" stroke-width="0"/><circle id="i" cx="691.38" cy="77.12" r="11.26" stroke-width="0"/><path d="m748.37,66.24c-4.6,11.61-19.76,22.96-34.32,17.18-14.57-5.77-22.65-19.86-18.05-31.47,4.6-11.61,20.14-16.33,34.71-10.56,14.57,5.77,22.27,13.24,17.67,24.84Z" stroke-width="0"/><path id="j" d="m703.29,65.02c2.65-12.97,14.65-23.13,28.64-20.28s20.14,18.76,17.49,31.74c-1.18,5.79-8.99,35.48-30.31,31.13-20.85-4.25-17-36.8-15.81-42.59Z" fill="#994a37" stroke-width="0"/><g id="k"><path id="l" d="m741.3,96.33c-.54,1.89-3.14,2.25-5.5,1.83-1.99-.35-4.4-3.23-3.76-5.18s2.82-1.69,4.74-1.05,5.07,2.43,4.52,4.4Z" fill="#752212" stroke-width="0"/><path d="m728.77,91.53c1.52-.08,2.34.61,3.4,1.04,1.04.44,2.09.83,3.15,1.19,1.06.35,2.14.68,3.23.93,1.11.26,2.19.28,3.36,1.17.08.06.1.17.04.26-1.17.98-2.51.81-3.74.69-1.24-.12-2.47-.37-3.65-.76-1.18-.39-2.32-.91-3.39-1.55-1.04-.65-2.23-1.21-2.59-2.73-.03-.12.06-.23.18-.23h0Z" fill="#3a1316" stroke-width="0"/><g id="m"><ellipse id="n" cx="739.62" cy="77.6" rx="2.24" ry="1.67" transform="translate(421.57 749.83) rotate(-70.67)" fill="#001415" stroke-width="0"/><g id="o"><path d="m740.78,77.67c-.27-.68-.52-.85-.63-1-.11-.16-.32-.35-.62-.52-1.44-.77-3.11-1.05-4.77-.9-.96.16-1.89.21-2.88.06-.06,0-.11-.06-.1-.12.04-.42.26-.68.45-.9.57-.65,1.39-.92,2.19-1.1,2.15-.52,4.63-.32,6.43,1.14.47.4.97.94,1.19,1.71.2.78-.2,1.66-1.02,1.8-.12.02-.21-.07-.24-.17h0Z" fill="#001415" stroke-width="0"/></g><g id="p"><path d="m744.49,72.43c-1.26-.18-1.64-.52-1.99-.94-3.24-3.3-8.03-.91-11.87-3.15-.13-.07-.18-.24-.1-.37,1.22-1.09,2.68-1.44,4.05-1.58,2.15-.14,4.28-.32,6.48.15,2.07.35,5.65,3.52,3.86,5.75-.1.14-.27.17-.42.14h0Z" fill="#2b0d0d" stroke-width="0"/></g></g><path id="q" d="m743.61,92.52c1.74,1.38,4.73.08,5.95-1.77,1.91-2.89-.48-6.81-3.25-7.67" fill="#994a37" stroke-width="0"/></g><path d="m725.41,50.33s-11.47,6.64-13.95,16.03l-14.75-2.6,16.85-22.41,15.88,1.19-4.03,7.79Z" stroke-width="0"/><ellipse id="r" cx="729.19" cy="48.64" rx="7.44" ry="15.36" transform="translate(484.24 737.18) rotate(-74.23)" stroke-width="0"/><g id="s"><path d="m701.46,61.43c-2.36.34-3.87,3.43-3.37,6.89s2.82,5.99,5.19,5.65c1.05-.15,7.03-2.03,6.26-7.31-.75-5.16-7.03-5.38-8.08-5.23Z" fill="#994a37" stroke-width="0"/><path d="m704.71,67.06c-.77.69-.93.43-1.24.41-.29-.04-.56-.09-.78-.15-.22-.05-.4-.12-.47-.18-.16-.24-.21-.32-.82-.4-.54-.07-.68-.86-.42-1.17.19-.29.54-.43.81-.53,1-.31,1.82-.08,2.57.45.29.24.72.29.52,1.32-.02.1-.08.19-.16.25h0Z" fill="#2b0d0d" stroke-width="0"/></g></g><path d="m526.7,290.64l37.17-49.01,3.97-13.99,38.51-41.74,42.01,42.87s18.29,20.61,30.25,39.95c0,0-41.71,12.8-50.57,25.17l-22.01-14.25-43.43,42.74-35.91-31.75Z" fill="#3c8875" stroke-width="0"/><path d="m700.26,168.7l10.2-9.64s-12.19,5.08-21.97-1.99c-9.37-6.77-2.62-37.52,21.8-43.43-3.19-1.18-12.01-4.15-22.25-4-3.54.05-7.5-3.97-3.04-8.32.05-.05,2.01-2.6,2.01-2.6-14.02-.1-26.15,17.2-32.14,23.74-4.75,4.32-49.7,56.16-49.7,56.16,0,0-38.69,18.99-38.4,54.94,0,0,29.39,14.28,49.31,9.65,0,0,3.44,4.65,2.08,10.9-1.35,6.25,1.1,14.05,1.1,14.05l80.99-99.46Z" fill="#3c8875" stroke-width="0"/><path d="m632.22,147.82s-41.19,44.45-57.64,52.17c-1.55.73-1.82,2.81-.49,3.89l8.73,7.11,49.4-63.17Z" fill="#3c8875" stroke-width="0"/><g id="t"><polygon points="617.73 225.77 545.38 307.16 552.52 313.47 632.22 234.57 627.62 230.53 617.73 225.77" fill="#f2a03d" stroke-width="0"/><path d="m688.49,157.08c-4.71-3.4-5.46-12.96-1.95-22.38-15.07,20.09-30.97,40.54-47.74,61.26-13.3,16.44-11.75,13.01-24.89,28.3,2.41.39,6.24,5.16,13.12,7.65,0,0,3.72-.5,5.19,2.66,10.12-15.32,8.78-16.61,23.99-33.99,13.69-15.64,27.23-28.98,39.82-40.22-1.4-.28-3.68-.5-7.54-3.29Z" fill="#f2a03d" stroke-width="0"/><path d="m691.31,109.7c.49.76.9,1.51,1.16,2.22,0,0,2.18,4.27,6.02,7.54,3.51-2.76,7-4.65,11.84-5.82-2.84-1.05-10.08-3.58-19.02-3.94Z" fill="#f2a03d" stroke-width="0"/></g><path d="m640.92,240.31c-5.61-2.65-10.79-5.95-16.23-8.86-4.66-2.52-11.79-5.62-16.68-7.89-5.6-2.59-11.25-5.12-16.78-7.96-5.5-2.86-11.2-5.86-15.27-10.69l.19-.22c15.56,10.2,33.29,15.94,49.55,24.89,5.41,3.06,10.74,6.27,15.37,10.49l-.17.24h0Z" fill="#23623c" stroke-width="0"/><path d="m641.13,240.11c.21.43.04.72-.02,1.01-1.58,3.93-4.75,6.92-7.45,10.08-6.78,7.62-15.73,16.55-22.85,23.91-1.44,1.52-3.3,2.96-4.63,4.55-1.34.12,2.8-5.31,3.26-5.79,9.83-11.33,21.58-22.74,31.7-33.75h0Z" fill="#23623c" stroke-width="0"/><path d="m670.6,204.85c-1.43,3.73-3.99,6.66-6.31,9.72-2.36,3.05-4.81,6.02-7.27,8.97-3.76,4.38-7.55,8.73-11.51,12.93-1.36,1.37-2.78,2.67-4.39,3.81l-.22-.19c1.85-3.49,4.44-6.32,6.89-9.28l7.39-8.83,7.43-8.78c2.49-2.92,4.75-5.99,7.75-8.53l.24.16h0Z" fill="#23623c" stroke-width="0"/><path d="m621.4,160.23c.07,2.02-.88,3.52-1.6,5.13-.74,1.6-1.51,3.19-2.32,4.76-.81,1.57-1.67,3.11-2.55,4.64-.88,1.53-1.63,3.13-3.25,4.28l-.26-.13c0-1.99.87-3.52,1.61-5.13.74-1.6,1.5-3.2,2.31-4.76.81-1.57,1.66-3.11,2.54-4.65.9-1.52,1.57-3.16,3.26-4.27l.26.13h0Z" fill="#23623c" stroke-width="0"/><path d="m655.99,121.26c-.88,2.88-2.58,5.2-4.16,7.6-1.57,2.41-3.18,4.78-4.81,7.15-.83,1.3-2.05,2.47-3.4,3.31-.79.49-1.64.89-2.53,1.16-.4.24.53-.33.43-.27-2.61,2.33-4.83,5-8.1,6.62,0,0-.21-.21-.21-.21,1.63-3.2,4.26-5.36,6.58-7.9.02-.02.1-.1.12-.12-.09.05.84-.52.45-.28,0,0,.01,0,.01,0,1.93-.69,3.51-1.95,4.67-3.68,1.65-2.35,3.32-4.69,5.02-7,1.7-2.32,3.28-4.72,5.67-6.55l.24.17h0Z" fill="#f7c756" stroke-width="0"/><path id="u" d="m724.87,126.31l21.63,93.8,47.51-26.11,8.7,11.55c-7.28,6.07-17.85,15.25-26.03,21.43-10.43,7.87-20.62,15.05-30.48,21.58-.48.43-3.23,2.82-7.28,2.51-4.77-.37-7.25-4.18-7.52-4.6-3.27-6.76-6.54-13.99-9.47-21.76-5.3-14.07-11.72-34.5-16.24-59.98l-12.89,4.84s-22.31-22.83,0-45.89c23.37-24.16,32.08,2.64,32.08,2.64Z" fill="#994a37" stroke-width="0"/><g id="v"><path d="m569.97,161.28s-5.22,11.95-5.96,14.42c-.73,2.47-7.81,10.27-10.5,10.33-1.72.04-5.64-.96-1.22-5.25,5.08-4.93,7.72-14.69,7.72-14.69l9.96-4.82Z" fill="#994a37" stroke-width="0"/><path d="m562.24,169.06l-11.17,9.58c-.88.81-1.92,2.08-3.1,1.9l-16.94-1.62c-.19-.03-1.13-.32-1.21-.49-.31-.62-.82-.98-.44-2.65.28-1.23.9-1.26,1.32-1.72.13-.14,5.21-.4,5.41-.37l9.95-.12-17.84-1.9c-.19-.05-2.31-.47-2.37-.65-.26-.74-.59-2.12-.23-3.75.23-1.03.15-.49.51-1.02.12-.18,2.45-.12,2.66-.13,1.23-.1,7.69.71,16.41.11.14-.73-14.89-2.17-16.99-2.57-.17-.03-.3-.13-.38-.27-.32-.56-.89-1.78-.7-3.37.17-1.42.16-.31.57-.79.12-.15.31-.22.5-.2,5.34.51,10.68,1.01,16.02,1.52.67.06,2.24-1.73,1.61-1.98-3.19-1.23-12.05-3.12-12.05-3.12-1.97-.63-2.52-.69-2.2-2.61.26-1.55,4.28-1.37,5.26-1.3,5.46.61,9.18,1.29,11.16.75,8.5-2.32,11.45-8.63,26.61.41.28.16-5.2,9.54-5.35,9.82,0,0-6.32,5.91-7.01,6.55Z" fill="#994a37" stroke-width="0"/><path d="m547.99,173.79c-1.61.25-2.56-1.09-3.25-2.26-1.33-2.25-1.71-4.82-1.65-7.38.03-1.31.04-2.54.98-3.62.08-.09.23-.08.29.02.85,1.24.75,2.37.87,3.52.26,2.18.6,4.45,1.43,6.46.5,1.1,1.06,1.77,1.46,3.03.04.1-.03.21-.13.22h0Z" fill="#2b0d0d" stroke-width="0"/><path d="m556.85,173.6c-2.56-2.08-1.28-8.66,0-11.27.53-1.24,1.12-2.42,2.45-3.02.09-.04.2,0,.24.09.26,1.51-.36,2.55-.68,3.69-.68,2.23-1.09,4.5-1.24,6.81-.09,1.18.16,2.24-.49,3.61-.04.11-.18.16-.28.09h0Z" fill="#2b0d0d" stroke-width="0"/></g><path d="m791.78,206.42l.91-9.5c-.46-.64,1.81-8.99,1.88-9.77l1.23-13.31c.05-.51.36-.96.83-1.16.41-.17.97-.31,1.62-.25.93.09,1.05.8,1.46,1.2.31.31.45.75.39,1.18-.31,2.01.42,3.22,0,5.34l13.92-15c.29-.31.71-.48,1.13-.43.4.05.89.21,1.31.61.21.21.36.43.47.64.22.45.14.99-.17,1.39-2.76,3.57-5.53,7.14-8.29,10.71l15.41-9.52c.38-.23.83-.29,1.25-.16.44.14,1,.42,1.44.97.24.31.4.63.49.93.2.62-.03,1.29-.55,1.68-4.21,3.15-8.42,6.3-12.63,9.45l12.57-2.39c.59-.11,1.21.14,1.51.66.2.34.36.78.36,1.32,0,.53-.16.96-.33,1.28-.18.34-.5.59-.88.69-4.66,1.33-9.33,2.67-13.99,4l10.9,2.49c.55.13.95.65.85,1.21,0,0,0,.01,0,.02-.04.19-.1.36-.18.5-.19.35-.57.54-.96.54-3.96-.05-5.69.21-9.65.16,0,0-4.03,12.37-11.38,13.67l-10.93.87Z" fill="#994a37" stroke-width="0"/><path d="m813.17,187.11c-.26,1.07-.77,1.02-1.22,1.22-.46.18-.92.33-1.39.43-.47.1-.96.15-1.45.18-.49.03-.95.2-1.62-.59-.07-.08-.09-.19-.06-.29.28-1,.77-1.03,1.22-1.21.46-.18.92-.34,1.39-.44.47-.1.96-.16,1.45-.19.5,0,.94-.26,1.62.6.07.08.09.19.06.29,0,0,.02-.1,0,0Z" fill="#2b0d0d" stroke-width="0"/><path d="m800.2,180.25c.44,1.01.01,1.28-.22,1.72-.25.43-.53.83-.84,1.2-.31.37-.67.71-1.04,1.03-.37.32-.64.74-1.65.53-.1-.02-.19-.1-.22-.19-.39-.96-.02-1.29.23-1.71.25-.42.52-.83.84-1.21.31-.37.66-.72,1.04-1.04.39-.31.59-.78,1.66-.52.1.03.18.1.22.19,0,0-.04-.09,0,0Z" fill="#2b0d0d" stroke-width="0"/><path d="m828.06,281.36s110.28,65.7,114.38,86.74c2.7,13.87.09,31.99-20.56,27.36-20.65-4.63-105.98-52.19-112.82-57.21-6.84-5.02-23.26-38.29,19-56.89Z" fill="#f9af9d" stroke-width="0"/><path d="m782.85,328.41s-94.24,87.15-115.58,85.13c-14.07-1.34-30.7-8.97-20.42-27.46,10.29-18.49,80.07-86.85,86.82-91.99,6.75-5.14,43.31-11.46,49.18,34.33Z" fill="#f9af9d" stroke-width="0"/><path d="m932.97,360.8s-58.06,12.95-81.03,22.76c-22.98,9.8-61.46,22.84-66.29,30.97-4.84,8.13-.91,17.32,10.05,16.8,10.96-.52,108.64-19.33,140.24-36.64,9.84-5.39-2.96-33.89-2.96-33.89Z" fill="#f9af9d" stroke-width="0"/><path d="m695.43,398.12s-109.63,100.13-128.59,113.95c-7.7,5.62-19.84-17.34-19.84-17.34,0,0,56.15-87.44,111.18-110.14,18.06-7.45,37.25,13.53,37.25,13.53Z" fill="#f9af9d" stroke-width="0"/><path d="m884.84,188.97s20.87-37.14-10.58-66.56c-28.57-26.73-57.04-39.66-68.64-44.35-15.41-6.24-29.17,20.69-12.09,38.07,9.41,9.57,75.45,59.77,75.45,59.77l15.86,13.08Z" fill="#f9af9d" stroke-width="0"/><path d="m815.28,88.48c-1.25-8.83-13.46-13.54-20.81-10.61-18.8,7.49-49.26,20.17-66.02,28.24-4.34,2.09-7.75,3.92-9.78,5.32-13.45,9.33,2.38,22.14,9.33,20.47,6.95-1.67,88.17-22.86,88.17-22.86l-.9-20.55Z" fill="#f9af9d" stroke-width="0"/><path d="m684.7,130.98c7.22-11.43,20.46-16.27,25.12-18.78,4.66-2.5,29.98-7.76,29.98-7.76l2.37,23.68-31.41,11s-22.72,6.85-26.12,6.56-7.15-3.26.07-14.69Z" fill="#f9af9d" stroke-width="0"/><path d="m716.88,129.29s12.24-10.25,14.94-9.15c2.7,1.1,9.44,4.33,6.86,7.71-2.59,3.38-11.98,14.96-18.22,19.19s-15.17,8.33-17.06,6.03-2.12-4.09-1.61-4.77c.52-.68,12.68-11.53,15.09-19.01Z" fill="#f9af9d" stroke-width="0"/><path d="m712.72,133.55c.65,1.14.2,1.9-.03,2.74-.65,2.12-1.62,4.2-3.21,5.81-.38.3-.92.54-1.54.44-.1-.02-.17-.11-.17-.21.02-.98.34-1.62.79-2.42.61-1.33,1.44-3.15,2.12-4.43.41-.74.56-1.57,1.76-2.03.1-.04.22,0,.27.1h0Z" fill="#933" stroke-width="0"/><path d="m929.31,168.49s-40.23-43.44-56.96-41.35c-14.57,1.82-80.13,86.73-99.53,107.81-2.88,3.13-6.97,12.8-7.86,14.27-6.9,11.31,58,70.76,69.24,60.19,1.86-1.75,16.28-2.17,20.24-6.68,19.97-22.75,98.85-46.6,106.51-63.66,16.22-36.17-31.64-70.58-31.64-70.58Z" fill="#ff7c33" stroke-width="0"/><path d="m753.9,292.24c-3.44-12.81-2.71-21.2.72-31.24,1.86-5.43,9.46-19.45,18.04-26.12.74-.57,13.7,29.75,38.13,40.03,36.22,15.25,52.42,20.02,52.42,20.02,0,0-8,26.62-32.86,34.22-24.86,7.6-71.9-19.94-76.46-36.9Z" fill="#a0281f" stroke-width="0"/><path d="m569.91,512.32c.97-.81,33.16-30.94,33.16-30.94l-24.51-29.65-35.83,45.53,18.75,23.74,8.43-8.68Z" fill="#fffffc" stroke-width="0"/><path d="m710.29,317.08c.15-2.42,40.43-52.49,44.34-56.09,3.91-3.6,59.98,59.66,59.98,59.66,0,0-59.72,40.27-62.31,40.27s-42.81-30.53-42.01-43.84Z" fill="#a0281f" stroke-width="0"/><path d="m857.5,294.92c.82.89,36.22,27.64,36.22,27.64,0,0-48.19,37.2-53.38,38.13-5.18.93-58.14-41.94-58.14-41.94l75.3-23.83Z" fill="#a0281f" stroke-width="0"/><path d="m560.11,555.14c5.07-1.32,3.81-7.63-7.35-12.06,1.16-4.04,2.2-8.63,4.01-13.02,1.82-4.39,6.36-4.2,6.91-9.51,1.34-13.16-3.18-15.31-5.84-15.46-1.04-.06-1.9-.86-1.99-1.93l-1.31-16.51c-.08-1.03-.89-1.85-1.9-1.92-3.29-.23-10.33-.55-13.38.56-3.13,1.14-.99,2.79-1.2,3.59-.05.2-.07.41-.06.62l.62,12.11c.04.72.85,10.63,1.09,15.02.3,5.38,3.02,36.63,3.02,36.63,0,0,13.29,2.93,17.39,1.87Z" fill="#a0281f" stroke-width="0"/><path d="m557.6,531.09c-.98-1.01-.88-1.98-1.06-2.97-.16-.98-.33-1.95-.52-2.91-.18-.95-.36-1.9-.62-2.8-.31-1-.7-1.82-.62-2.93,0-.11.09-.21.2-.2,1,.14,1.66.8,2.06,1.61.66,1.21,1.11,2.54,1.36,3.86.2,1.06.3,2.12.3,3.17-.02,1.05.19,2.12-.8,3.16-.08.08-.22.08-.29,0h0Z" fill="#1c0c06" stroke-width="0"/><path d="m556.34,536.17c-1.1-.62-1.1-1.41-1.36-2.16-.52-1.5-.96-3.47-1.42-4.99-.25-.62-.22-1.18-.11-1.88.02-.1.11-.17.21-.17.62,0,1.08.32,1.39.66,1.22,1.75,1.8,3.85,2.05,5.93.07.82.38,1.61-.46,2.57-.07.08-.2.1-.29.05h0Z" fill="#1c0c06" stroke-width="0"/><path d="m560.45,525.07c-1.12-1.06-1.16-2.23-1.49-3.37-.31-1.14-.64-2.26-.97-3.37-.56-2.46-1.82-4.19-2.41-6.46-.03-.1.03-.21.14-.23,1.46.02,2.44,1.33,3.07,2.49.65,1.12,1.15,2.29,1.51,3.49.36,1.2.62,2.42.79,3.64.14,1.22.5,2.43-.34,3.77-.06.1-.21.12-.29.03h0Z" fill="#1c0c06" stroke-width="0"/><path d="m562.97,553.23c0,1.91-.39,4.61-4.77,4.77-5.07.18-17.57-2.1-18.04-4.52-1.11-5.69-4.17-31.13-4.47-36.52-.24-4.39-1.06-14.3-1.09-15.02l-.62-12.11c-.01-.21,0-.42.06-.62.21-.79,2.05-2.71,5.1-3.86l3.77,63.42s.05,3.51,7.67,5.42c7.63,1.91,12.39-.95,12.39-.95Z" fill="#fff" stroke-width="0"/><path d="m800.24,432.12c1.25-.2,44.35-9.44,44.35-9.44l-5.42-34.92-54.23,19.85,3.6,27.55,11.7-3.05Z" fill="#fffffc" stroke-width="0"/><path d="m786.31,474.14c8.35-2.9,7.14-14.81,10.73-25.91,1.46-4.52,6.01-4.69,6.13-10.03.29-13.23-4.38-15.01-7.05-14.95-1.05.02-1.96-.71-2.13-1.76l-2.61-16.36c-.16-1.02-1.03-1.78-2.05-1.77-3.3.03-10.34.27-13.3,1.62-3.03,1.39-.77,2.86-.91,3.68-.04.21-.04.42,0,.62l1.58,12.02c.09.71,1.69,10.53,2.28,14.89.72,5.34,5.91,36.28,5.91,36.28,0,0-2.57,3.05,1.43,1.66Z" fill="#a0281f" stroke-width="0"/><path d="m797.95,449.19c-1.06-.93-1.03-1.91-1.29-2.88-.24-.97-.49-1.92-.75-2.86-.26-.94-.51-1.87-.84-2.75-.39-.97-.84-1.76-.85-2.87-.01-.11.07-.22.18-.22,1.01.06,1.72.67,2.18,1.45.75,1.15,1.31,2.45,1.66,3.74.29,1.04.46,2.09.55,3.14.07,1.05.36,2.1-.55,3.21-.07.09-.21.1-.29.02h0Z" fill="#1c0c06" stroke-width="0"/><path d="m797.1,454.35c-1.15-.53-1.2-1.32-1.53-2.05-.64-1.45-1.23-3.38-1.81-4.87-.3-.6-.32-1.15-.26-1.87,0-.1.09-.18.19-.19.62-.04,1.1.24,1.43.55,1.35,1.65,2.1,3.69,2.51,5.75.13.81.51,1.57-.26,2.6-.07.09-.19.12-.29.07h0Z" fill="#1c0c06" stroke-width="0"/><path d="m800.31,442.96c-1.2-.97-1.33-2.13-1.75-3.24-.4-1.11-.81-2.2-1.24-3.28-.77-2.44-2.15-4.04-2.91-6.24-.04-.1.01-.21.12-.24,1.46-.1,2.54,1.13,3.26,2.24.74,1.07,1.33,2.2,1.78,3.36.46,1.17.81,2.36,1.07,3.57.24,1.21.69,2.39-.04,3.78-.05.11-.2.13-.29.05h0Z" fill="#1c0c06" stroke-width="0"/><path d="m785.59,474.36c-3.28.85-3.25-1.47-3.25-1.47,0,0-6.63-30.71-7.35-36.05-.59-4.36-2.19-14.17-2.28-14.89l-1.58-12.02c-.03-.21-.03-.42,0-.62.14-.81,1.83-2.87,4.78-4.25l9.68,69.31Z" fill="#fff" stroke-width="0"/><path d="m943.76,170.23s-12.42,11.52-13.46,11.81-10.77-3.74-18.49-12.53c-11.81-13.46-10.53-22.76-10.53-22.76l23.47-9.09,19,32.56Z" fill="#f9af9d" stroke-width="0"/><path d="m954.94,204.06c-25.4-11.9-47.98,5.25-35.89,43.3,11.17,35.15,21.66,62.15,35.87,72.1,9.57,6.7,30.89,1.01,26.16-21.18-2.61-12.23-8.73-86.06-26.14-94.22Z" fill="#f9af9d" stroke-width="0"/><path d="m974.6,321.78c17.31-12.07,40.03-42.48,53.15-58.09,3.45-4.11,6.09-7.51,7.53-9.82,9.53-15.35-11.29-19-17.63-14.13-62.16,47.8-78.13,60.94-78.13,60.94,0,0,14.05,35.76,35.09,21.1Z" fill="#f9af9d" stroke-width="0"/><path d="m1062.39,226c-.06,13.52-3.38,16.4-6,21-2.62,4.6-34,20-34,20l-8.36-22.67,18.64-21.32s10.67-12.49,13.72-14.01c3.23-1.62,8-1,8,3,9,0,8.03,7.77,8,14Z" fill="#f9af9d" stroke-width="0"/><path d="m1035.11,238.6s-9.97,12.48-12.83,11.93c-2.86-.54-10.12-2.37-8.25-6.2,1.87-3.83,5.08-19.95,10.36-25.33,5.28-5.38,14.7-9.88,17-8,2.3,1.88,5.11,5.21,4.74,5.97s-10.14,13.81-11.02,21.63Z" fill="#f9af9d" stroke-width="0"/><path d="m1028.29,224.89c.51-1.79,1.79-2.74,2.89-3.88,1.12-1.12,2.26-2.22,3.43-3.28,1.17-1.06,2.38-2.08,3.61-3.09,1.23-1,2.35-2.12,4.14-2.5.12-.03.24.1.2.22-.56,1.74-1.78,2.75-2.9,3.87-1.12,1.12-2.26,2.22-3.43,3.29-1.17,1.06-2.37,2.09-3.6,3.1-1.24.99-2.31,2.16-4.15,2.49-.12.02-.23-.1-.2-.22h0Z" fill="#933" stroke-width="0"/><path d="m1052.25,223.95c-.59-1.35-.13-2.34.06-3.42.35-1.85.93-4.5,1.22-6.32.14-1.13.17-2.14.73-3.2.05-.09.16-.12.25-.08,1.12.76,1.21,2.22,1.16,3.44-.02,2.32-.51,4.56-1.27,6.72-.4,1.06-.57,2.2-1.87,2.94-.1.06-.23.01-.28-.1h0Z" fill="#933" stroke-width="0"/><path d="m987.27,137.74c-2.17,5.21-13.99,28.29-17,32.43-7.99,10.97-18.54,6.58-29.12,2.16s-15.75-7.46-15.35-20.42c.15-4.78,6.12-31.89,8.14-36.72,7.49-17.94,19.42-14.05,34.32-7.82,11.04,4.61,22.43,6.75,23.44,16.11.35,3.28-2.48,9.61-4.43,14.27Z" fill="#f9af9d" stroke-width="0"/><path d="m971.63,167.91c-.9,2.15-4.7,2.31-7.14,1.29s-5.54-4.39-4.64-6.53,3.7-1.52,6.14-.5,6.54,3.6,5.65,5.75Z" fill="#dd8e7f" stroke-width="0"/><path d="m956.62,160.22c1.77.24,2.79,1.26,4.04,2.03,1.23.78,2.48,1.52,3.75,2.2,2.66,1.67,5.46,2.03,7.95,3.57.11.07.1.24-.01.29-1.54.81-3.17.44-4.72.01-1.52-.42-2.98-1.01-4.36-1.74-1.37-.74-2.66-1.61-3.87-2.57-1.18-.97-2.5-1.83-2.98-3.57-.03-.12.07-.24.19-.22h0Z" fill="#3a1316" stroke-width="0"/><ellipse cx="973.42" cy="146.56" rx="2.74" ry="1.97" transform="translate(416.65 958.37) rotate(-64.12)" fill="#001415" stroke-width="0"/><path d="m965.18,140.85c1.24-4.12,13.21,3.12,10.07,6-.1.07-.23.02-.28-.09-1.23-1.58-2.7-2.44-4.4-3.48-1.26-.75-2.44-1.49-3.81-1.77-.41-.1-.85-.35-1.47-.49-.08-.02-.12-.1-.1-.18h0Z" fill="#001415" stroke-width="0"/><path d="m982.07,148.05s1.44,10.92-.42,12.38c-1.86,1.46-10.1-1.92-10.1-1.92" fill="#f9af9d" stroke-width="0"/><path d="m976.44,142.85l-11.86-8.57c-1.56-1.16.05-3.54,1.71-2.53,0,0,12.39,7.79,12.39,7.79,2.26,1.51.02,4.85-2.24,3.32h0Z" fill="#513428" stroke-width="0"/><path d="m930.91,128.06s-1.32,15.28-3.89,20.53c-10.38-1.51-8.63-6.33-8.47-7.98,3.54-35.71,11.62-38.11,15.97-41,6.46-4.3,20.49-8.09,36.81.9,15.22,8.38,24.92,14.53,20.15,25.97-.52,1.24,2.72-4.03-3.44-6.6-6.75-2.82-15.79-10.74-23.75-9.91-11.88,1.24-13.36,29.54-24.14,28.14-6.68-11.68-9.01-9.79-9.23-10.05Z" fill="#8e6151" stroke-width="0"/><path d="m932.85,137.95c1.06-3.4,1.29-8.06-.13-10.18s-3.96-2.71-6.49-1.52c-1.49.7-2.74,2.68-3.73,4.53-1.1,2.08-1.4,4.52-1.22,6.58.33,3.6,4.59,9.25,7.33,9.45,2.74.2,2.6-4.29,4-8.19" fill="#f9af9d" stroke-width="0"/><path d="m927.1,128.74c1.24-.06,1.56.7,2.02,1.29,1.17,1.58,1.84,3.79,1.2,5.72-.16.4-.53.75-1.06.92-.1.03-.2,0-.26-.09-.52-.77-.53-1.24-.59-1.99-.24-1.19-.69-2.32-1.17-3.47-.25-.62-.71-1.08-.36-2.21.03-.1.12-.16.21-.17h0Z" fill="#933" stroke-width="0"/><path d="m705.06,126.34c-1.33,1.71-3.08,2.71-4.84,3.68-4.47,2.43-9,5.21-14.33,5.26-1.03.04-2.16-.05-3.12-.91-.1-.09-.04-.25.08-.28,1.91-.93,3.73-.84,5.69-1.39,1.7-.43,3.54-1.23,5.32-2.02,3.75-1.46,6.96-3.88,11.04-4.59.13-.02.24.15.15.25h0Z" fill="#933" stroke-width="0"/><path d="m707.93,129.36c-1.65,2.18-3.93,3.37-6.09,4.74-4.46,2.7-8.79,5.33-13.81,7.03-2.52.76-4.83.1-7.37,1.39-.07.03-.16,0-.2-.07.42-1.4,1.96-2.25,3.28-2.65,1.18-.36,2.49-.2,3.61-.71,4.61-1.9,8.97-4.53,13.4-6.86,2.25-1.19,4.34-2.62,7.03-3.12.13-.03.25.14.16.25h0Z" fill="#933" stroke-width="0"/><path d="m706.99,134.9c-.83,1.97-2.45,3.01-3.92,4.2-4.07,3.01-8.98,6.52-14.2,6.78-.52-.07-1.03-.18-1.51-.37-.13-.05-.13-.24,0-.29,1.64-.96,3.31-1.44,4.99-2.25,3.28-1.61,6.38-3.63,9.46-5.62,1.57-1.01,2.93-2.24,4.99-2.67.13-.03.24.1.19.22h0Z" fill="#933" stroke-width="0"/><path d="m844.54,308.35c-3.29,3.04-7.25,4.95-11.08,7.02-3.85,2.06-7.78,3.97-11.72,5.84-3.97,1.81-7.96,3.59-12.01,5.22-4.05,1.67-8.08,3.37-12.43,4.14-.08.01-.16-.04-.17-.12,3.49-2.68,7.84-4.12,11.76-5.99,3.96-1.79,7.9-3.59,11.83-5.43,3.94-1.82,7.85-3.7,11.76-5.58,3.92-1.88,7.67-4.03,11.91-5.34.14-.05.27.15.15.25h0Z" fill="#1c0c06" stroke-width="0"/></svg>