<?xml version="1.0" encoding="UTF-8"?><svg id="a" xmlns="http://www.w3.org/2000/svg" width="1140" height="345" viewBox="0 0 1140 345"><path d="m1062.69,245.305c-34.504,150.676-263.524,53.053-539.621,84.151C86.664,378.611,39.541,275.006,9.216,160.007-32.245,2.779,158.677-10.299,389.456,12.808c277.747,27.809,667.268-62.407,733.321,64.229,49.517,94.933-50.39,125.921-60.087,168.268Z" fill="#e4eae7"/><circle cx="873.537" cy="125.318" r="50" fill="#a5c3c9"/><path d="m866.295,118.056h-3.387v-13.055l-4.043,1.254v-2.754l7.066-2.531h.363v17.086Z" fill="#802523"/><path d="m889.369,111.833c0,1.953-.443,3.518-1.33,4.693s-2.084,1.764-3.592,1.764c-1.281,0-2.316-.445-3.105-1.336v5.977h-3.387v-17.555h3.141l.117,1.242c.82-.984,1.891-1.477,3.211-1.477,1.562,0,2.777.578,3.645,1.734s1.301,2.75,1.301,4.781v.176Zm-3.387-.246c0-1.18-.209-2.09-.627-2.73s-1.025-.961-1.822-.961c-1.062,0-1.793.406-2.191,1.219v5.191c.414.836,1.152,1.254,2.215,1.254,1.617,0,2.426-1.324,2.426-3.973Z" fill="#802523"/><path d="m870.32,151.776h-10.819v-2.32l5.106-5.883c.7-.828,1.219-1.551,1.556-2.168.336-.617.504-1.203.504-1.758,0-.758-.178-1.354-.531-1.787-.354-.434-.86-.65-1.518-.65-.709,0-1.268.264-1.676.791s-.612,1.221-.612,2.08h-3.144c0-1.039.229-1.988.688-2.848s1.107-1.533,1.945-2.021c.839-.488,1.789-.732,2.852-.732,1.626,0,2.89.422,3.789,1.266s1.35,2.035,1.35,3.574c0,.844-.202,1.703-.607,2.578-.404.875-1.099,1.895-2.081,3.059l-3.589,4.09h6.787v2.73Z"/><path d="m880.781,139.096l.098,1.465c.839-1.133,1.963-1.699,3.372-1.699,1.243,0,2.168.395,2.775,1.184.606.789.918,1.969.933,3.539v8.191h-3.134v-8.109c0-.719-.145-1.24-.434-1.564s-.77-.486-1.441-.486c-.882,0-1.543.406-1.984,1.219v8.941h-3.133v-12.68h2.948Z"/><path d="m854.637,217.455h1.629c1.023-.016,1.828-.285,2.414-.809s.879-1.23.879-2.121c0-2-.996-3-2.988-3-.938,0-1.686.268-2.244.803s-.838,1.244-.838,2.127h-2.168c0-1.352.494-2.475,1.482-3.369s2.244-1.342,3.768-1.342c1.609,0,2.871.426,3.785,1.277s1.371,2.035,1.371,3.551c0,.742-.24,1.461-.721,2.156s-1.135,1.215-1.963,1.559c.938.297,1.662.789,2.174,1.477s.768,1.527.768,2.52c0,1.531-.5,2.746-1.5,3.645s-2.301,1.348-3.902,1.348-2.904-.434-3.908-1.301-1.506-2.012-1.506-3.434h2.18c0,.898.293,1.617.879,2.156s1.371.809,2.355.809c1.047,0,1.848-.273,2.402-.82s.832-1.332.832-2.355c0-.992-.305-1.754-.914-2.285s-1.488-.805-2.637-.82h-1.629v-1.77Z"/><path d="m858.609,260.178h-2.18v-14.449l-4.371,1.605v-1.969l6.211-2.332h.34v17.145Z" fill="#802523"/><path d="m894.175,250.673h-5.859v-12.188h-11.426v12.188h-5.859v-28.438h5.859v11.523h11.426v-11.523h5.859v28.438Z"/><circle cx="570" cy="125.318" r="50" fill="#a5c3c9"/><path d="m562.758,118.056h-3.387v-13.055l-4.043,1.254v-2.754l7.066-2.531h.363v17.086Z" fill="#802523"/><path d="m585.832,111.833c0,1.953-.443,3.518-1.33,4.693s-2.084,1.764-3.592,1.764c-1.281,0-2.316-.445-3.105-1.336v5.977h-3.387v-17.555h3.141l.117,1.242c.82-.984,1.891-1.477,3.211-1.477,1.562,0,2.777.578,3.645,1.734s1.301,2.75,1.301,4.781v.176Zm-3.387-.246c0-1.18-.209-2.09-.627-2.73s-1.025-.961-1.822-.961c-1.062,0-1.793.406-2.191,1.219v5.191c.414.836,1.152,1.254,2.215,1.254,1.617,0,2.426-1.324,2.426-3.973Z" fill="#802523"/><path d="m563.574,151.776h-3.133v-13.055l-3.74,1.254v-2.754l6.537-2.531h.336v17.086Z"/><path d="m577.245,139.096l.098,1.465c.838-1.133,1.962-1.699,3.371-1.699,1.243,0,2.169.395,2.775,1.184.607.789.918,1.969.933,3.539v8.191h-3.133v-8.109c0-.719-.145-1.24-.434-1.564s-.771-.486-1.442-.486c-.882,0-1.543.406-1.983,1.219v8.941h-3.134v-12.68h2.949Z"/><path d="m559.127,227.041h-11.18v-1.559l5.906-6.562c.875-.992,1.479-1.799,1.811-2.42s.498-1.264.498-1.928c0-.891-.27-1.621-.809-2.191s-1.258-.855-2.156-.855c-1.078,0-1.916.307-2.514.92s-.896,1.467-.896,2.561h-2.168c0-1.57.506-2.84,1.518-3.809s2.365-1.453,4.061-1.453c1.586,0,2.84.416,3.762,1.248s1.383,1.939,1.383,3.322c0,1.68-1.07,3.68-3.211,6l-4.57,4.957h8.566v1.77Z"/><path d="m555.072,260.178h-2.18v-14.449l-4.371,1.605v-1.969l6.211-2.332h.34v17.145Z" fill="#802523"/><path d="m590.639,250.673h-5.859v-12.188h-11.426v12.188h-5.859v-28.438h5.859v11.523h11.426v-11.523h5.859v28.438Z"/><circle cx="266.463" cy="125.318" r="50" fill="#a5c3c9"/><path d="m259.221,118.056h-3.387v-13.055l-4.043,1.254v-2.754l7.066-2.531h.363v17.086Z" fill="#802523"/><path d="m282.295,111.833c0,1.953-.443,3.518-1.33,4.693s-2.084,1.764-3.592,1.764c-1.281,0-2.316-.445-3.105-1.336v5.977h-3.387v-17.555h3.141l.117,1.242c.82-.984,1.891-1.477,3.211-1.477,1.562,0,2.777.578,3.645,1.734s1.301,2.75,1.301,4.781v.176Zm-3.387-.246c0-1.18-.209-2.09-.627-2.73s-1.025-.961-1.822-.961c-1.062,0-1.793.406-2.191,1.219v5.191c.414.836,1.152,1.254,2.215,1.254,1.617,0,2.426-1.324,2.426-3.973Z" fill="#802523"/><path d="m251.536,227.041h-2.18v-14.449l-4.371,1.605v-1.969l6.211-2.332h.34v17.145Z"/><path d="m251.536,260.178h-2.18v-14.449l-4.371,1.605v-1.969l6.211-2.332h.34v17.145Z" fill="#802523"/><path d="m287.102,250.673h-5.859v-12.188h-11.426v12.188h-5.859v-28.438h5.859v11.523h11.426v-11.523h5.859v28.438Z"/></svg>