<?xml version="1.0" encoding="UTF-8"?><svg id="a" xmlns="http://www.w3.org/2000/svg" width="1140" height="345" viewBox="0 0 1140 345"><path d="m11.183,97.565C36.01,18.475,171.548-18.415,573.031,11.149c136.559,10.056,332.057-23.243,449.251,4.548,72.374,17.162,97.399,64.922,112.597,138.721,16.72,81.191,2.124,172.018-531.14,187.615C176.098,354.541-55.921,311.333,11.183,97.565Z" fill="#eee8ef"/><path d="m726.468,248.652v11.396h-4.128v-11.396h-11.266v-3.956h11.266v-11.395h4.128v11.395h11.266v3.956h-11.266Z"/><line x1="401.46" y1="135.726" x2="551.978" y2="135.726" fill="none" stroke="#000" stroke-miterlimit="10" stroke-width="2"/><polygon points="549.644 143.704 563.46 135.726 549.644 127.748 549.644 143.704"/><line x1="388.96" y1="249.411" x2="564.478" y2="249.411" fill="none" stroke="#000" stroke-miterlimit="10" stroke-width="2"/><polygon points="562.144 257.389 575.96 249.411 562.144 241.432 562.144 257.389"/><circle cx="793.729" cy="125.318" r="25" fill="#a5c3c9"/><path d="m786.228,127.863v-2.483h15.486v2.483h-15.486Z"/><path d="m803.733,242.74v.129c2.881,1.074,6.191,4.386,6.191,9.632,0,6.449-3.87,7.739-6.751,7.739-3.697,0-5.805-3.01-6.751-4.944h-.516c.129,3.568.258,8.857.473,12.685l-3.611,1.118-2.537-.129,1.161-14.706c.988-12.47,1.462-25.283,11.652-25.283,4.128,0,6.235,2.623,6.235,6.191,0,4.171-3.14,6.321-5.547,7.568Zm-4.343,2.666c-.603,0-1.29-.731-1.376-1.979-.087-.946.086-2.021.816-2.021.344,0,2.064.215,2.193.215.773-.043,4.429-1.763,4.429-4.945,0-1.806-1.118-3.01-2.967-3.01-5.719,0-6.235,8.944-6.321,16.211.258,3.182,2.064,4.858,5.805,4.858,2.795,0,4.387-1.29,4.387-4.257,0-4.257-3.14-5.977-4.214-6.708-1.204.989-2.322,1.635-2.752,1.635Z"/><circle cx="637.602" cy="125.318" r="50" fill="#a5c3c9"/><path d="m633.735,102.884l-6.598,15.172h-3.574l6.609-14.332h-8.484v-2.73h12.047v1.891Z" fill="#802523"/><path d="m653.435,111.833c0,1.953-.443,3.518-1.33,4.693s-2.084,1.764-3.592,1.764c-1.281,0-2.316-.445-3.105-1.336v5.977h-3.387v-17.555h3.141l.117,1.242c.82-.984,1.891-1.477,3.211-1.477,1.562,0,2.777.578,3.645,1.734s1.301,2.75,1.301,4.781v.176Zm-3.387-.246c0-1.18-.209-2.09-.627-2.73s-1.025-.961-1.822-.961c-1.062,0-1.793.406-2.191,1.219v5.191c.414.836,1.152,1.254,2.215,1.254,1.617,0,2.426-1.324,2.426-3.973Z" fill="#802523"/><path d="m634.299,136.604l-6.104,15.172h-3.307l6.115-14.332h-7.85v-2.73h11.145v1.891Z"/><path d="m644.848,139.096l.098,1.465c.838-1.133,1.962-1.699,3.371-1.699,1.243,0,2.168.395,2.775,1.184s.918,1.969.933,3.539v8.191h-3.134v-8.109c0-.719-.145-1.24-.434-1.564s-.77-.486-1.441-.486c-.882,0-1.543.406-1.984,1.219v8.941h-3.133v-12.68h2.949Z"/><path d="m612.772,236.136h-2.18v-14.449l-4.371,1.605v-1.969l6.211-2.332h.34v17.145Z"/><path d="m628.276,230.405h2.367v1.77h-2.367v3.961h-2.18v-3.961h-7.77v-1.277l7.641-11.824h2.309v11.332Zm-7.488,0h5.309v-8.367l-.258.469-5.051,7.898Z"/><path d="m630.14,253.429l-7.066,15.844h-2.273l7.043-15.281h-9.234v-1.781h11.531v1.219Z" fill="#802523"/><path d="m661.795,259.768h-5.859l-11.406-18.711v18.711h-5.859v-28.438h5.859l11.426,18.75v-18.75h5.84v28.438Z"/><circle cx="334.066" cy="125.318" r="50" fill="#a5c3c9"/><path d="m327.784,100.818v2.789h-.328c-1.531.023-2.764.422-3.697,1.195s-1.494,1.848-1.682,3.223c.906-.922,2.051-1.383,3.434-1.383,1.484,0,2.664.531,3.539,1.594s1.312,2.461,1.312,4.195c0,1.109-.24,2.113-.721,3.012s-1.16,1.598-2.039,2.098-1.873.75-2.982.75c-1.797,0-3.248-.625-4.354-1.875s-1.658-2.918-1.658-5.004v-1.219c0-1.852.35-3.486,1.049-4.904s1.703-2.516,3.012-3.293,2.826-1.17,4.553-1.178h.562Zm-3.305,8.555c-.547,0-1.043.143-1.488.427-.445.285-.773.661-.984,1.129v1.029c0,1.131.223,2.014.668,2.649s1.07.953,1.875.953c.727,0,1.314-.286,1.764-.859s.674-1.316.674-2.229c0-.928-.227-1.677-.68-2.246-.453-.568-1.062-.854-1.828-.854Z" fill="#802523"/><path d="m349.897,111.833c0,1.953-.443,3.518-1.33,4.693s-2.084,1.764-3.592,1.764c-1.281,0-2.316-.445-3.105-1.336v5.977h-3.387v-17.555h3.141l.117,1.242c.82-.984,1.891-1.477,3.211-1.477,1.562,0,2.777.578,3.645,1.734s1.301,2.75,1.301,4.781v.176Zm-3.387-.246c0-1.18-.209-2.09-.627-2.73s-1.025-.961-1.822-.961c-1.062,0-1.793.406-2.191,1.219v5.191c.414.836,1.152,1.254,2.215,1.254,1.617,0,2.426-1.324,2.426-3.973Z" fill="#802523"/><path d="m330.076,134.328c0,.828-.191,1.562-.574,2.203-.384.641-.911,1.152-1.583,1.535.766.398,1.373.947,1.821,1.646s.672,1.521.672,2.467c0,1.516-.477,2.713-1.431,3.592s-2.252,1.318-3.893,1.318-2.941-.441-3.902-1.324c-.962-.883-1.442-2.078-1.442-3.586,0-.945.225-1.77.673-2.473.447-.703,1.051-1.25,1.811-1.641-.673-.383-1.198-.895-1.578-1.535-.379-.641-.568-1.375-.568-2.203,0-1.453.447-2.611,1.344-3.475s2.114-1.295,3.653-1.295,2.748.428,3.648,1.283c.899.855,1.35,2.018,1.35,3.486Zm-2.808,7.605c0-.742-.199-1.336-.597-1.781s-.933-.668-1.604-.668c-.665,0-1.196.221-1.594.662s-.596,1.037-.596,1.787c0,.727.194,1.312.585,1.758s.933.668,1.626.668c.68,0,1.213-.215,1.6-.645s.58-1.023.58-1.781Zm-.325-7.441c0-.664-.163-1.197-.488-1.6s-.784-.604-1.377-.604c-.585,0-1.041.195-1.366.586s-.487.93-.487,1.617c0,.68.162,1.227.487,1.641s.784.621,1.377.621,1.05-.207,1.372-.621c.321-.414.482-.961.482-1.641Z"/><path d="m341.068,134.176l.098,1.465c.839-1.133,1.963-1.699,3.372-1.699,1.243,0,2.168.395,2.775,1.184.606.789.918,1.969.933,3.539v8.191h-3.134v-8.109c0-.719-.145-1.24-.434-1.564s-.77-.486-1.441-.486c-.882,0-1.543.406-1.984,1.219v8.941h-3.133v-12.68h2.948Z"/><path d="m309.313,236.136h-2.18v-14.449l-4.371,1.605v-1.969l6.211-2.332h.34v17.145Z"/><path d="m324.817,230.405h2.367v1.77h-2.367v3.961h-2.18v-3.961h-7.77v-1.277l7.641-11.824h2.309v11.332Zm-7.488,0h5.309v-8.367l-.258.469-5.051,7.898Z"/><path d="m324.173,252.198v1.84h-.398c-1.688.031-3.031.531-4.031,1.5s-1.578,2.332-1.734,4.09c.898-1.031,2.125-1.547,3.68-1.547,1.484,0,2.67.523,3.557,1.57s1.33,2.398,1.33,4.055c0,1.758-.479,3.164-1.436,4.219s-2.24,1.582-3.85,1.582c-1.633,0-2.957-.627-3.973-1.881s-1.523-2.869-1.523-4.846v-.832c0-3.141.67-5.541,2.01-7.201s3.334-2.51,5.982-2.549h.387Zm-2.848,7.688c-.742,0-1.426.223-2.051.668s-1.059,1.004-1.301,1.676v.797c0,1.406.316,2.539.949,3.398s1.422,1.289,2.367,1.289c.977,0,1.744-.359,2.303-1.078s.838-1.66.838-2.824c0-1.172-.283-2.119-.85-2.842s-1.318-1.084-2.256-1.084Z" fill="#802523"/><path d="m357.536,250.295c-.222,3.06-1.352,5.469-3.389,7.227-2.038,1.758-4.724,2.637-8.057,2.637-3.646,0-6.514-1.228-8.604-3.682s-3.135-5.823-3.135-10.107v-1.738c0-2.734.481-5.144,1.445-7.227.963-2.083,2.34-3.682,4.131-4.795,1.79-1.113,3.87-1.67,6.24-1.67,3.281,0,5.924.879,7.93,2.637,2.005,1.758,3.164,4.226,3.477,7.402h-5.859c-.144-1.836-.654-3.167-1.533-3.994s-2.217-1.24-4.014-1.24c-1.953,0-3.415.7-4.385,2.1-.971,1.399-1.469,3.571-1.494,6.514v2.148c0,3.073.465,5.319,1.396,6.738.931,1.419,2.398,2.129,4.404,2.129,1.81,0,3.16-.413,4.053-1.24.892-.827,1.402-2.106,1.533-3.838h5.859Z"/><path d="m733.354,179.06v-17.062h5.16c1.713,0,3.001.383,3.865,1.148.863.766,1.295,1.898,1.295,3.398,0,.797-.209,1.502-.629,2.115-.419.613-.99,1.088-1.713,1.424.854.258,1.527.748,2.022,1.471s.742,1.584.742,2.584c0,1.531-.459,2.734-1.377,3.609s-2.215,1.312-3.892,1.312h-5.475Zm2.081-9.785h3.145c.91,0,1.639-.246,2.185-.74.545-.493.818-1.162.818-2.008,0-.939-.253-1.623-.759-2.049-.506-.427-1.276-.641-2.31-.641h-3.079v5.438Zm0,1.805v6.141h3.437c.969,0,1.733-.271,2.293-.814.561-.543.841-1.291.841-2.244,0-2.055-1.034-3.082-3.101-3.082h-3.47Z"/><path d="m751.729,179.294c-1.59,0-2.884-.564-3.881-1.693s-1.496-2.639-1.496-4.529v-.398c0-1.258.223-2.381.667-3.369s1.065-1.762,1.864-2.32,1.664-.838,2.597-.838c1.525,0,2.71.543,3.556,1.629s1.269,2.641,1.269,4.664v.902h-7.946c.028,1.25.366,2.26,1.014,3.029.646.77,1.469,1.154,2.466,1.154.709,0,1.309-.156,1.8-.469s.922-.727,1.29-1.242l1.226,1.031c-.983,1.633-2.458,2.449-4.424,2.449Zm-.249-11.367c-.81,0-1.489.318-2.038.955s-.889,1.529-1.019,2.678h5.875v-.164c-.058-1.102-.332-1.955-.823-2.561-.492-.605-1.156-.908-1.995-.908Z"/><path d="m761.346,163.31v3.07h2.19v1.676h-2.19v7.873c0,.509.098.89.293,1.145.195.254.527.381.997.381.231,0,.55-.047.954-.141v1.748c-.527.154-1.04.232-1.539.232-.896,0-1.572-.293-2.027-.879s-.683-1.418-.683-2.496v-7.863h-2.136v-1.676h2.136v-3.07h2.005Z"/><path d="m773.12,179.06c-.116-.25-.21-.695-.282-1.336-.933,1.047-2.046,1.57-3.339,1.57-1.156,0-2.105-.354-2.846-1.061-.741-.707-1.111-1.604-1.111-2.689,0-1.32.464-2.346,1.393-3.076s2.235-1.096,3.919-1.096h1.952v-.996c0-.758-.21-1.361-.629-1.811-.42-.449-1.037-.674-1.854-.674-.715,0-1.315.195-1.799.586-.484.391-.727.863-.727,1.418h-2.017c0-.633.208-1.244.623-1.834.416-.59.979-1.057,1.691-1.4s1.494-.516,2.348-.516c1.351,0,2.41.365,3.176,1.096.767.73,1.164,1.736,1.192,3.018v5.836c0,1.164.138,2.09.412,2.777v.188h-2.103Zm-3.328-1.652c.628,0,1.225-.176,1.788-.527s.973-.809,1.226-1.371v-2.602h-1.572c-2.457,0-3.686.777-3.686,2.332,0,.68.209,1.211.628,1.594.42.383.958.574,1.616.574Z"/><path d="m793.36,172.861c0,1.93-.409,3.484-1.226,4.664s-1.923,1.77-3.317,1.77c-1.424,0-2.544-.488-3.36-1.465v6.105h-2.006v-17.555h1.832l.098,1.406c.816-1.094,1.951-1.641,3.404-1.641,1.409,0,2.523.574,3.345,1.723.819,1.148,1.23,2.746,1.23,4.793v.199Zm-2.006-.246c0-1.43-.282-2.559-.846-3.387s-1.337-1.242-2.32-1.242c-1.214,0-2.125.582-2.731,1.746v6.059c.6,1.156,1.518,1.734,2.753,1.734.962,0,1.726-.412,2.293-1.236s.852-2.049.852-3.674Z"/><path d="m803.149,179.06c-.115-.25-.21-.695-.282-1.336-.932,1.047-2.045,1.57-3.339,1.57-1.156,0-2.104-.354-2.846-1.061s-1.111-1.604-1.111-2.689c0-1.32.465-2.346,1.394-3.076s2.234-1.096,3.919-1.096h1.951v-.996c0-.758-.21-1.361-.629-1.811s-1.037-.674-1.854-.674c-.716,0-1.315.195-1.8.586s-.727.863-.727,1.418h-2.016c0-.633.207-1.244.623-1.834.415-.59.979-1.057,1.691-1.4s1.494-.516,2.347-.516c1.352,0,2.41.365,3.177,1.096.766.73,1.163,1.736,1.192,3.018v5.836c0,1.164.137,2.09.412,2.777v.188h-2.104Zm-3.328-1.652c.629,0,1.225-.176,1.789-.527.563-.352.972-.809,1.225-1.371v-2.602h-1.572c-2.457,0-3.686.777-3.686,2.332,0,.68.21,1.211.629,1.594s.957.574,1.615.574Z"/><path d="m813.654,168.325c-.303-.055-.632-.082-.986-.082-1.315,0-2.208.605-2.678,1.816v9h-2.006v-12.68h1.952l.032,1.465c.657-1.133,1.59-1.699,2.797-1.699.391,0,.687.055.889.164v2.016Z"/><path d="m818.761,163.31v3.07h2.189v1.676h-2.189v7.873c0,.509.098.89.293,1.145.194.254.527.381.997.381.231,0,.549-.047.954-.141v1.748c-.527.154-1.041.232-1.54.232-.896,0-1.571-.293-2.026-.879-.456-.586-.684-1.418-.684-2.496v-7.863h-2.136v-1.676h2.136v-3.07h2.006Z"/><path d="m823.304,163.017c0-.352.099-.648.298-.891.198-.242.493-.363.884-.363s.687.121.889.363.304.539.304.891-.102.645-.304.879-.499.352-.889.352-.686-.117-.884-.352c-.199-.234-.298-.527-.298-.879Zm2.168,16.043h-2.006v-12.68h2.006v12.68Z"/><path d="m833.385,177.525c.716,0,1.341-.234,1.876-.703s.831-1.055.889-1.758h1.897c-.036.727-.268,1.418-.694,2.074-.426.656-.995,1.18-1.707,1.57s-1.466.586-2.261.586c-1.597,0-2.867-.576-3.811-1.729s-1.414-2.729-1.414-4.729v-.363c0-1.234.209-2.332.628-3.293.42-.961,1.021-1.707,1.806-2.238s1.711-.797,2.78-.797c1.315,0,2.409.426,3.279,1.277.871.852,1.336,1.957,1.394,3.316h-1.897c-.058-.82-.345-1.494-.861-2.021-.518-.527-1.155-.791-1.914-.791-1.019,0-1.809.396-2.368,1.189-.561.793-.841,1.939-.841,3.439v.41c0,1.461.278,2.586.835,3.375s1.352,1.184,2.385,1.184Z"/><path d="m842.481,179.06h-2.006v-18h2.006v18Z"/><path d="m850.558,179.294c-1.59,0-2.884-.564-3.881-1.693-.998-1.129-1.496-2.639-1.496-4.529v-.398c0-1.258.222-2.381.666-3.369.445-.988,1.066-1.762,1.865-2.32s1.664-.838,2.597-.838c1.524,0,2.71.543,3.556,1.629s1.269,2.641,1.269,4.664v.902h-7.947c.029,1.25.367,2.26,1.014,3.029.647.77,1.47,1.154,2.467,1.154.708,0,1.308-.156,1.8-.469.491-.312.921-.727,1.29-1.242l1.225,1.031c-.982,1.633-2.457,2.449-4.423,2.449Zm-.249-11.367c-.81,0-1.489.318-2.038.955-.55.637-.89,1.529-1.02,2.678h5.876v-.164c-.058-1.102-.333-1.955-.824-2.561s-1.156-.908-1.994-.908Z"/></svg>