<?xml version="1.0" encoding="UTF-8"?><svg xmlns="http://www.w3.org/2000/svg" width="1140" height="640" xmlns:xlink="http://www.w3.org/1999/xlink" viewBox="0 0 1140 640"><defs><clipPath id="k"><path d="m-456.9,615.9c118.38,0,279.92,44.78,355.15-8.99,76.38-54.59,57.26-175.48,67.65-258.45C-20.9,242.92.93,81.57-121.09,29.32-201.65-5.18-343.35,11.34-432.74,15.84c-79.75,4.01-186.09,7.47-265.76,2.25-100.9-6.62-274.31-26.19-364.81,11.24-108.05,44.69-66.62,121.05-79.73,220.25-13.1,99.2-38.23,258.38,49.79,326.28,129.61,99.98,432.25,40.05,636.34,40.05Z" fill="none"/></clipPath><clipPath id="m"><path d="m506.09,41.91c-92.77-8.46-187.3-19.1-278.09,3.26C137.22,67.53,48.97,129.9,18.51,225.23c-55.85,174.79,90.74,329.11,231.74,377.04,77.34,26.28,160.62,34.81,241.36,37.06,168.15,4.67,357.95-13.75,498.9-123.56,130.97-102.03,219.5-355.34,50.92-471.16C973.96-1.75,891.29,2.11,816.11,17.32c-102.63,20.77-205.61,34.11-310.02,24.59Z" fill="none"/></clipPath></defs><g id="j"><g clip-path="url(#k)"><path d="m-353.41,304.6s5.21-20.84,59.92-20.84h69.76s49.5-31.26,80.76-31.26,78.16,5.21,101.61,7.82c23.45,2.61,44.29,15.63,83.37,15.63s65.13-5.21,99,13.03c33.87,18.24,20.84,36.47-10.42,36.47s-497.6-2.61-510.63-2.61,13.61-20.84,26.63-18.24Z" fill="#e2f2f0"/><path d="m-28.23,494.63c-42.65,0-99.46-2.76-141.38-.99-36.7,1.55-53.72,12.99-90.51,12.93-56.97-.1-174.57-18.89-174.57-18.89,0,0-72.37-1.11-111.92-5.07-40.05-4.01-98,13.53-98,13.53,0,0-55.31,15.55-89.83,22.36-33.93,6.69-117.01-5.96-117.01-5.96,0,0-54.45-4.65-86.88-8-44.76-4.62-75.23,12.4-114.88,22.4-43.51,10.98-79.12,18.08-126.21,19.71-3.59,46.81,8.15,93.22,8.39,140.07.13,25.28-1.55,50.96.47,76.1,165.71,5.38,333.82-.46,499.74-3.79,72.34-1.45,142.74-12.4,214.82-16.62,138.3-8.1,282.05-8.57,421.24-4.9,19.6-61.41,67.72-177.11,6.54-242.88Z" fill="#edf4fc"/></g></g><g id="l"><path d="m505.52,41.94c-92.77-8.46-187.3-19.1-278.09,3.26C136.65,67.56,48.4,129.93,17.94,225.26c-55.85,174.79,90.74,329.11,231.74,377.04,77.34,26.28,160.62,34.81,241.36,37.06,168.15,4.67,357.95-13.75,498.9-123.56,130.97-102.03,219.5-355.34,50.92-471.16C973.39-1.73,890.72,2.13,815.54,17.35c-102.63,20.77-205.61,34.11-310.02,24.59Z" fill="#e3dae5"/><g clip-path="url(#m)"><path d="m470.49,275.27c0-4.45-32.71-6.7-72.9-6.7s-72.51,5.45-72.51,9.9" fill="none" stroke="#2e2e3d" stroke-linecap="round" stroke-linejoin="round" stroke-width="6"/><path d="m470.99,260.39c-.59-4.44-33.57-6.79-73.65-5.25-40.08,1.54-72.09,6.38-71.5,10.82" fill="none" stroke="#2e2e3d" stroke-linecap="round" stroke-linejoin="round" stroke-width="6"/><path d="m470.85,245.96c-.49-4.44-33.41-7.01-73.52-5.73-40.11,1.28-72.23,5.91-71.74,10.35" fill="none" stroke="#2e2e3d" stroke-linecap="round" stroke-linejoin="round" stroke-width="6"/><path d="m468.74,230.68c-.6-4.44-33.57-6.78-73.65-5.24-40.08,1.54-72.09,6.39-71.49,10.83" fill="none" stroke="#2e2e3d" stroke-linecap="round" stroke-linejoin="round" stroke-width="6"/><path d="m468.75,215.9c-.65-4.43-33.65-6.66-73.71-4.98-40.06,1.68-72.01,6.64-71.35,11.08" fill="none" stroke="#2e2e3d" stroke-linecap="round" stroke-linejoin="round" stroke-width="6"/><path d="m468.92,201.87c-.63-4.44-33.62-6.72-73.68-5.1-40.07,1.62-72.04,6.52-71.42,10.96" fill="none" stroke="#2e2e3d" stroke-linecap="round" stroke-linejoin="round" stroke-width="6"/><path d="m468.78,185.91c-.79-4.43-33.86-6.36-73.86-4.31-40,2.05-71.78,7.29-70.99,11.72" fill="none" stroke="#2e2e3d" stroke-linecap="round" stroke-linejoin="round" stroke-width="6"/><path d="m469.13,172.81c-.65-4.43-33.65-6.66-73.71-4.98-40.06,1.68-72.01,6.64-71.35,11.08" fill="none" stroke="#2e2e3d" stroke-linecap="round" stroke-linejoin="round" stroke-width="6"/><path d="m470.08,155.22c-1.16-4.41-34.35-5.57-74.15-2.6s-71.11,8.95-69.96,13.36" fill="none" stroke="#2e2e3d" stroke-linecap="round" stroke-linejoin="round" stroke-width="6"/><path d="m327.18,155.6c-.58-2.32,32.26-6.54,73.35-9.42" fill="none" stroke="#2e2e3d" stroke-linecap="round" stroke-linejoin="round" stroke-width="6"/><path d="m324.69,154.91c0,4.47,32.58,8.1,72.76,8.1s72.76-3.63,72.76-8.1" fill="none" stroke="#5b605f" stroke-linecap="round" stroke-linejoin="round" stroke-width="6"/><path d="m326.22,280.9c-1.25,4.42,29.96,10.57,69.7,13.74,0,0,19.21-.43,10.99,10.92-19.73,7.86-16.01,16.09-10.8,21.63,0,0,11.41,12.44,29.74-1.01" fill="none" stroke="#5b605f" stroke-linecap="round" stroke-linejoin="round" stroke-width="6"/><path d="m325.79,165.56c-.82,4.45,30.93,9.75,70.92,11.84,39.99,2.09,73.08.17,73.91-4.28" fill="none" stroke="#5b605f" stroke-linecap="round" stroke-linejoin="round" stroke-width="6"/><path d="m325.79,179.98c-.82,4.45,30.93,9.75,70.92,11.84,39.99,2.09,73.08.17,73.91-4.28" fill="none" stroke="#5b605f" stroke-linecap="round" stroke-linejoin="round" stroke-width="6"/><path d="m325.79,194.39c-.82,4.45,30.93,9.75,70.92,11.84s73.08.17,73.91-4.28" fill="none" stroke="#5b605f" stroke-linecap="round" stroke-linejoin="round" stroke-width="6"/><path d="m325.79,208.8c-.82,4.45,30.93,9.75,70.92,11.84,39.99,2.09,73.08.17,73.91-4.28" fill="none" stroke="#5b605f" stroke-linecap="round" stroke-linejoin="round" stroke-width="6"/><path d="m325.79,223.22c-.82,4.45,30.93,9.75,70.92,11.84,39.99,2.09,73.08.17,73.91-4.28" fill="none" stroke="#5b605f" stroke-linecap="round" stroke-linejoin="round" stroke-width="6"/><path d="m325.79,237.63c-.82,4.45,30.93,9.75,70.92,11.84,39.99,2.09,73.08.17,73.91-4.28" fill="none" stroke="#5b605f" stroke-linecap="round" stroke-linejoin="round" stroke-width="6"/><path d="m325.79,252.04c-.82,4.45,30.93,9.75,70.92,11.84s73.08.17,73.91-4.28" fill="none" stroke="#5b605f" stroke-linecap="round" stroke-linejoin="round" stroke-width="6"/><path d="m325.79,266.46c-.82,4.45,30.93,9.75,70.92,11.84,39.99,2.09,73.08.17,73.91-4.28" fill="none" stroke="#5b605f" stroke-linecap="round" stroke-linejoin="round" stroke-width="6"/><path d="m401.25,146.09c4.61-.53,10.59-1.65,10.59-4.76,0-6.11-15.16-15.67-8.4-27.72,5.52-9.85,27.29-7.4,30.96,5.72" fill="none" stroke="#5b605f" stroke-linecap="round" stroke-linejoin="round" stroke-width="6"/><path d="m782.1,193.9s-120.84,10.74-145.84,16.52" fill="none" stroke="#2e2e3d" stroke-linecap="round" stroke-linejoin="round" stroke-width="6"/><path d="m782.1,227.75s-120.84,10.74-145.84,16.52" fill="none" stroke="#2e2e3d" stroke-linecap="round" stroke-linejoin="round" stroke-width="6"/><path d="m782.1,261.61s-120.84,10.74-145.84,16.52" fill="none" stroke="#2e2e3d" stroke-linecap="round" stroke-linejoin="round" stroke-width="6"/><path d="m782.1,295.47s-120.84,10.74-145.84,16.52" fill="none" stroke="#2e2e3d" stroke-linecap="round" stroke-linejoin="round" stroke-width="6"/><path d="m782.1,329.33s-120.84,10.74-145.84,16.52" fill="none" stroke="#2e2e3d" stroke-linecap="round" stroke-linejoin="round" stroke-width="6"/><path d="m782.1,363.18s-120.84,10.74-145.84,16.52" fill="none" stroke="#2e2e3d" stroke-linecap="round" stroke-linejoin="round" stroke-width="6"/><path d="m782.1,397.04s-120.84,10.74-145.84,16.52" fill="none" stroke="#2e2e3d" stroke-linecap="round" stroke-linejoin="round" stroke-width="6"/><path d="m782.1,430.9s-120.84,10.74-145.84,16.52" fill="none" stroke="#2e2e3d" stroke-linecap="round" stroke-linejoin="round" stroke-width="6"/><path d="m782.1,464.75s-120.84,10.74-145.84,16.52" fill="none" stroke="#2e2e3d" stroke-linecap="round" stroke-linejoin="round" stroke-width="6"/><path d="m636.26,178.43s120.84,10.74,145.84,16.52" fill="none" stroke="#5b605f" stroke-linecap="round" stroke-linejoin="round" stroke-width="6"/><path d="m636.26,212.29s120.84,10.74,145.84,16.52" fill="none" stroke="#5b605f" stroke-linecap="round" stroke-linejoin="round" stroke-width="6"/><path d="m636.26,246.15s120.84,10.74,145.84,16.52" fill="none" stroke="#5b605f" stroke-linecap="round" stroke-linejoin="round" stroke-width="6"/><path d="m636.26,280s120.84,10.74,145.84,16.52" fill="none" stroke="#5b605f" stroke-linecap="round" stroke-linejoin="round" stroke-width="6"/><path d="m636.26,313.86s120.84,10.74,145.84,16.52" fill="none" stroke="#5b605f" stroke-linecap="round" stroke-linejoin="round" stroke-width="6"/><path d="m636.26,347.72s120.84,10.74,145.84,16.52" fill="none" stroke="#5b605f" stroke-linecap="round" stroke-linejoin="round" stroke-width="6"/><path d="m636.26,381.57s120.84,10.74,145.84,16.52" fill="none" stroke="#5b605f" stroke-linecap="round" stroke-linejoin="round" stroke-width="6"/><path d="m636.26,415.43s120.84,10.74,145.84,16.52" fill="none" stroke="#5b605f" stroke-linecap="round" stroke-linejoin="round" stroke-width="6"/><path d="m636.26,449.29s120.84,10.74,145.84,16.52" fill="none" stroke="#5b605f" stroke-linecap="round" stroke-linejoin="round" stroke-width="6"/><path d="m636.56,176.62s45.56-17.27,71.69-22.92" fill="none" stroke="#5b605f" stroke-linecap="round" stroke-linejoin="round" stroke-width="6"/><path d="m636.26,484.02l72.51,12.04s17.17,3.1,8.05,16.27c-20.33,8.18-17.28,18.38-12.53,25.41,0,0,10.37,15.8,29.75.77" fill="none" stroke="#5b605f" stroke-linecap="round" stroke-linejoin="round" stroke-width="6"/><path d="m703.88,155.08c4.61-.64,10.59-1.99,10.59-5.77,0-7.41-15.16-18.98-8.4-33.57,5.52-11.93,27.29-8.96,30.96,6.93" fill="none" stroke="#5b605f" stroke-linecap="round" stroke-linejoin="round" stroke-width="6"/><rect x="579.05" y="5" width="284.15" height="87.32" rx="10.8" ry="10.8" fill="#ad8866"/><line x1="721.12" y1="89.58" x2="721.12" y2="126.4" fill="none" stroke="#9e5e1f" stroke-linecap="round" stroke-linejoin="round" stroke-width="6"/><rect x="276.39" y="5" width="284.15" height="87.32" rx="10.8" ry="10.8" fill="#ad8866"/><line x1="418.46" y1="91.25" x2="418.46" y2="121.4" fill="none" stroke="#9e5e1f" stroke-linecap="round" stroke-linejoin="round" stroke-width="6"/></g></g></svg>