<?xml version="1.0" encoding="UTF-8"?>
<svg id="a" data-name="art" xmlns="http://www.w3.org/2000/svg" width="1140" height="641" xmlns:xlink="http://www.w3.org/1999/xlink" viewBox="0 0 1140 641">
  <defs>
    <style>
      .d {
        fill: #6b669e;
      }

      .d, .e, .f, .g, .h, .i, .j, .k, .l, .m, .n {
        stroke-width: 0px;
      }

      .e {
        fill: #ffd4e2;
      }

      .f, .o, .p {
        fill: none;
      }

      .q {
        opacity: .1;
      }

      .g {
        fill: #11111e;
      }

      .h {
        fill: #131219;
      }

      .o {
        stroke: #000;
      }

      .o, .p {
        stroke-miterlimit: 10;
        stroke-width: 2px;
      }

      .p {
        stroke: #d12d32;
      }

      .i {
        fill: #323259;
      }

      .j {
        fill: #000;
      }

      .k {
        opacity: .3;
      }

      .k, .n {
        fill: #fff;
      }

      .r {
        clip-path: url(#b);
      }

      .s {
        clip-path: url(#c);
      }

      .l {
        fill: #d12d32;
      }

      .m {
        fill: #394170;
      }
    </style>
    <clipPath id="b">
      <path class="f" d="M433.37,609.73l-172.04-197.76c-11.21-12.65-10.04-31.99,2.61-43.19L661.18,16.77c12.65-11.21,31.99-10.04,43.19,2.61l172.04,197.76c11.21,12.65,10.04,31.99-2.61,43.19l-397.25,352c-12.65,11.21-31.99,10.04-43.19-2.61Z"/>
    </clipPath>
    <clipPath id="c">
      <path class="f" d="M435.6,612.25l-174.18-200.17c-11.26-12.71-10.09-32.14,2.62-43.4L623.07,50.55l220.04,241.68-364.11,322.64c-12.71,11.26-32.14,10.09-43.4-2.62Z"/>
    </clipPath>
  </defs>
  <path class="e" d="M1121.93,313.26c6.07,51.07-1.63,103.59-23.37,152.13-29.77,66.47-106.4,120.4-196.88,137.39-101.9,19.13-206.64-6.74-310.91-6.5-115.8.26-233.69,32.77-345.8,13.42-66.28-11.44-125.79-41.22-165.98-82C24.22,472.14,6.65,399.28,11.91,329.1c5.56-74.18,45.5-147.83,120.44-199.03C257.16,44.79,460.77,26.81,620.16,25.22c111.29-1.11,249.16,11.06,340.85,60.78,85.68,46.45,139.53,122.37,156.45,200.55,1.92,8.85,3.4,17.76,4.47,26.71h0Z"/>
  <path class="e" d="M1121.93,313.26c6.07,51.07-1.63,103.59-23.37,152.13-29.77,66.47-106.4,120.4-196.88,137.39-101.9,19.13-206.64-6.74-310.91-6.5-115.8.26-233.69,32.77-345.8,13.42-66.28-11.44-125.79-41.22-165.98-82C24.22,472.14,6.65,399.28,11.91,329.1c5.56-74.18,45.5-147.83,120.44-199.03C257.16,44.79,460.77,26.81,620.16,25.22c111.29-1.11,249.16,11.06,340.85,60.78,85.68,46.45,139.53,122.37,156.45,200.55,1.92,8.85,3.4,17.76,4.47,26.71h0Z"/>
  <path class="k" d="M1098.56,465.39c9.23-20.62,15.93-41.96,20.12-63.6-124.8-148.09-268.82-318.32-309.27-363.4-48.91-8.18-99.87-11.93-147.82-12.94-37.94.3-75.34.78-99.7,1.12-9.91.36-19.92.81-30.01,1.34-30.19,12.25-294.3,124.61-494.9,210.05-14.39,29.22-22.74,60.14-25.07,91.15-1.47,19.54-1.15,39.29,1.23,58.82l859.67,219.13c9.65-1.06,19.27-2.46,28.87-4.27,90.49-16.99,167.11-70.93,196.88-137.39Z"/>
  <g>
    <g class="r">
      <polygon class="d" points="400.17 764.98 127.2 333.51 696.34 -39.65 969.31 391.82 400.17 764.98"/>
      <path class="m" d="M247.35,358.83c5.31,2.26,278.22,312.89,278.22,312.89l-62.89,60.26L170.5,431.82l76.85-73Z"/>
      <path class="m" d="M674.28-13.63c5.31,2.26,287.25,307.22,287.25,307.22l-66.82,59.11L618.78,41.91l55.5-55.54Z"/>
      <path class="i" d="M697.52-67.27c5.31,2.26,287.25,307.22,287.25,307.22l-66.82,59.11L642.02-11.73l55.5-55.54Z"/>
      <path class="h" d="M766.06,151.21c-1.51,0-3.04.43-4.4,1.32-3.71,2.44-4.75,7.42-2.32,11.13,1.54,2.35,4.11,3.63,6.73,3.63,1.51,0,3.04-.43,4.4-1.32,3.71-2.44,4.75-7.42,2.32-11.13-1.54-2.35-4.11-3.63-6.73-3.63h0Z"/>
    </g>
    <g class="q">
      <g class="s">
        <g>
          <rect class="n" x="423.88" y="-44.36" width="61.95" height="641" transform="translate(129.2 -144.69) rotate(21)"/>
          <rect class="n" x="507.07" y="16.94" width="214.94" height="641" transform="translate(161.78 -197.85) rotate(21)"/>
        </g>
      </g>
    </g>
    <path class="g" d="M681.45,9.14v12c5.35,0,10.45,2.29,14.01,6.28l174.14,200.13.04.04.04.04c6.85,7.74,6.14,19.6-1.6,26.46l-34.09,30.21-362.94,321.6c-3.43,3.04-7.84,4.72-12.42,4.72-5.35,0-10.45-2.29-14.01-6.28l-174.14-200.13-.04-.04-.04-.04c-6.85-7.74-6.14-19.6,1.6-26.46L632.8,57.96l36.24-32.11c3.43-3.04,7.84-4.72,12.42-4.72v-12M681.45,9.14c-7.25,0-14.53,2.55-20.38,7.73l-36.24,32.11-360.79,319.7c-12.71,11.26-13.88,30.69-2.62,43.4l174.18,200.17c6.08,6.86,14.53,10.35,23.02,10.35,7.25,0,14.53-2.55,20.38-7.73l362.94-321.6,34.09-30.21c12.71-11.26,13.88-30.69,2.62-43.4L704.47,19.49c-6.08-6.86-14.53-10.36-23.02-10.35h0Z"/>
  </g>
  <g>
    <line class="o" x1="224.09" y1="182.96" x2="396.22" y2="182.96"/>
    <polygon class="j" points="393.89 190.93 407.71 182.96 393.89 174.98 393.89 190.93"/>
  </g>
  <g>
    <path class="j" d="M235.72,219.04h-7.39v6.05h8.59v1.84h-10.84v-17.06h10.72v1.84h-8.47v5.5h7.39v1.84Z"/>
    <path class="j" d="M241.73,226.92h-2.17v-18h2.17v18Z"/>
    <path class="j" d="M250.46,227.16c-1.72,0-3.12-.56-4.2-1.69s-1.62-2.64-1.62-4.53v-.4c0-1.26.24-2.38.72-3.37s1.15-1.76,2.02-2.32,1.8-.84,2.81-.84c1.65,0,2.93.54,3.84,1.63s1.37,2.64,1.37,4.66v.9h-8.59c.03,1.25.4,2.26,1.1,3.03s1.59,1.15,2.67,1.15c.77,0,1.41-.16,1.95-.47s1-.73,1.39-1.24l1.32,1.03c-1.06,1.63-2.66,2.45-4.78,2.45ZM250.19,215.79c-.88,0-1.61.32-2.2.96s-.96,1.53-1.1,2.68h6.35v-.16c-.06-1.1-.36-1.96-.89-2.56s-1.25-.91-2.16-.91Z"/>
    <path class="j" d="M263,225.39c.77,0,1.45-.23,2.03-.7s.9-1.05.96-1.76h2.05c-.04.73-.29,1.42-.75,2.07s-1.08,1.18-1.85,1.57-1.58.59-2.44.59c-1.73,0-3.1-.58-4.12-1.73s-1.53-2.73-1.53-4.73v-.36c0-1.23.23-2.33.68-3.29s1.1-1.71,1.95-2.24,1.85-.8,3.01-.8c1.42,0,2.6.43,3.54,1.28s1.44,1.96,1.51,3.32h-2.05c-.06-.82-.37-1.49-.93-2.02s-1.25-.79-2.07-.79c-1.1,0-1.96.4-2.56,1.19s-.91,1.94-.91,3.44v.41c0,1.46.3,2.59.9,3.38s1.46,1.18,2.58,1.18Z"/>
    <path class="j" d="M273.42,211.17v3.07h2.37v1.68h-2.37v7.87c0,.51.11.89.32,1.14.21.25.57.38,1.08.38.25,0,.59-.05,1.03-.14v1.75c-.57.15-1.12.23-1.66.23-.97,0-1.7-.29-2.19-.88s-.74-1.42-.74-2.5v-7.86h-2.31v-1.68h2.31v-3.07h2.17Z"/>
    <path class="j" d="M284.45,216.19c-.33-.05-.68-.08-1.07-.08-1.42,0-2.39.61-2.89,1.82v9h-2.17v-12.68h2.11l.04,1.46c.71-1.13,1.72-1.7,3.02-1.7.42,0,.74.05.96.16v2.02Z"/>
    <path class="j" d="M286.45,210.88c0-.35.11-.65.32-.89s.53-.36.96-.36.74.12.96.36.33.54.33.89-.11.64-.33.88-.54.35-.96.35-.74-.12-.96-.35-.32-.53-.32-.88ZM288.79,226.92h-2.17v-12.68h2.17v12.68Z"/>
    <path class="j" d="M297.35,225.39c.77,0,1.45-.23,2.03-.7s.9-1.05.96-1.76h2.05c-.04.73-.29,1.42-.75,2.07s-1.08,1.18-1.85,1.57-1.58.59-2.44.59c-1.73,0-3.1-.58-4.12-1.73s-1.53-2.73-1.53-4.73v-.36c0-1.23.23-2.33.68-3.29s1.1-1.71,1.95-2.24,1.85-.8,3.01-.8c1.42,0,2.6.43,3.54,1.28s1.44,1.96,1.51,3.32h-2.05c-.06-.82-.37-1.49-.93-2.02s-1.25-.79-2.07-.79c-1.1,0-1.96.4-2.56,1.19s-.91,1.94-.91,3.44v.41c0,1.46.3,2.59.9,3.38s1.46,1.18,2.58,1.18Z"/>
    <path class="j" d="M312.65,226.92c-.12-.25-.23-.7-.3-1.34-1.01,1.05-2.21,1.57-3.61,1.57-1.25,0-2.28-.35-3.08-1.06s-1.2-1.6-1.2-2.69c0-1.32.5-2.35,1.51-3.08s2.42-1.1,4.24-1.1h2.11v-1c0-.76-.23-1.36-.68-1.81s-1.12-.67-2-.67c-.77,0-1.42.2-1.95.59s-.79.86-.79,1.42h-2.18c0-.63.22-1.24.67-1.83s1.06-1.06,1.83-1.4,1.62-.52,2.54-.52c1.46,0,2.61.37,3.43,1.1s1.26,1.74,1.29,3.02v5.84c0,1.16.15,2.09.45,2.78v.19h-2.27ZM309.06,225.27c.68,0,1.32-.18,1.93-.53s1.05-.81,1.32-1.37v-2.6h-1.7c-2.66,0-3.98.78-3.98,2.33,0,.68.23,1.21.68,1.59s1.04.57,1.75.57Z"/>
    <path class="j" d="M320.24,226.92h-2.17v-18h2.17v18Z"/>
    <path class="j" d="M329.66,210.88c0-.35.11-.65.32-.89s.53-.36.96-.36.74.12.96.36.33.54.33.89-.11.64-.33.88-.54.35-.96.35-.74-.12-.96-.35-.32-.53-.32-.88ZM332,226.92h-2.17v-12.68h2.17v12.68Z"/>
    <path class="j" d="M337.52,214.24l.07,1.59c.97-1.22,2.23-1.83,3.8-1.83,2.68,0,4.03,1.51,4.05,4.54v8.38h-2.17v-8.39c0-.91-.22-1.59-.63-2.03s-1.05-.66-1.92-.66c-.7,0-1.32.19-1.85.56s-.95.87-1.24,1.48v9.04h-2.17v-12.68h2.05Z"/>
    <path class="j" d="M359.42,220.72c0,1.93-.44,3.48-1.32,4.66s-2.08,1.77-3.59,1.77-2.75-.49-3.63-1.46v6.11h-2.17v-17.55h1.98l.11,1.41c.88-1.09,2.11-1.64,3.68-1.64s2.73.57,3.62,1.72,1.33,2.75,1.33,4.79v.2ZM357.25,220.48c0-1.43-.3-2.56-.91-3.39s-1.45-1.24-2.51-1.24c-1.31,0-2.3.58-2.95,1.75v6.06c.65,1.16,1.64,1.73,2.98,1.73,1.04,0,1.87-.41,2.48-1.24s.92-2.05.92-3.67Z"/>
    <path class="j" d="M370,225.67c-.84.99-2.08,1.49-3.71,1.49-1.35,0-2.38-.39-3.09-1.18s-1.06-1.95-1.07-3.49v-8.25h2.17v8.19c0,1.92.78,2.88,2.34,2.88,1.66,0,2.76-.62,3.3-1.85v-9.22h2.17v12.68h-2.06l-.05-1.25Z"/>
    <path class="j" d="M378.35,211.17v3.07h2.37v1.68h-2.37v7.87c0,.51.11.89.32,1.14.21.25.57.38,1.08.38.25,0,.59-.05,1.03-.14v1.75c-.57.15-1.12.23-1.66.23-.97,0-1.7-.29-2.19-.88s-.74-1.42-.74-2.5v-7.86h-2.31v-1.68h2.31v-3.07h2.17Z"/>
    <path class="j" d="M236.69,255.72h-11.18v-1.56l5.91-6.56c.88-.99,1.48-1.8,1.81-2.42s.5-1.26.5-1.93c0-.89-.27-1.62-.81-2.19s-1.26-.86-2.16-.86c-1.08,0-1.92.31-2.51.92s-.9,1.47-.9,2.56h-2.17c0-1.57.51-2.84,1.52-3.81s2.37-1.45,4.06-1.45c1.59,0,2.84.42,3.76,1.25s1.38,1.94,1.38,3.32c0,1.68-1.07,3.68-3.21,6l-4.57,4.96h8.57v1.77Z"/>
    <path class="j" d="M247.5,238.65v1.84h-.4c-1.69.03-3.03.53-4.03,1.5s-1.58,2.33-1.73,4.09c.9-1.03,2.12-1.55,3.68-1.55s2.67.52,3.56,1.57,1.33,2.4,1.33,4.05c0,1.76-.48,3.16-1.44,4.22s-2.24,1.58-3.85,1.58-2.96-.63-3.97-1.88-1.52-2.87-1.52-4.85v-.83c0-3.14.67-5.54,2.01-7.2s3.33-2.51,5.98-2.55h.39ZM244.65,246.34c-.74,0-1.43.22-2.05.67s-1.06,1-1.3,1.68v.8c0,1.41.32,2.54.95,3.4s1.42,1.29,2.37,1.29,1.74-.36,2.3-1.08.84-1.66.84-2.82-.28-2.12-.85-2.84-1.32-1.08-2.26-1.08Z"/>
    <path class="j" d="M253.46,247.17l.87-8.51h8.74v2h-6.9l-.52,4.65c.84-.49,1.79-.74,2.85-.74,1.55,0,2.79.51,3.7,1.54s1.37,2.42,1.37,4.17-.47,3.14-1.42,4.15-2.28,1.52-3.98,1.52c-1.51,0-2.74-.42-3.69-1.25s-1.5-1.99-1.63-3.47h2.05c.13.98.48,1.71,1.04,2.21s1.3.74,2.23.74c1.01,0,1.8-.34,2.37-1.03s.86-1.64.86-2.85c0-1.14-.31-2.06-.93-2.75s-1.45-1.04-2.48-1.04c-.95,0-1.69.21-2.23.62l-.57.47-1.73-.45Z"/>
    <path class="j" d="M279.59,238.66h2.26v12.08c0,1.63-.49,2.91-1.47,3.83s-2.29,1.38-3.92,1.38-3.02-.43-3.96-1.3-1.42-2.08-1.42-3.64h2.25c0,.98.27,1.74.8,2.29s1.31.82,2.33.82c.93,0,1.68-.29,2.26-.88s.87-1.41.87-2.46v-12.12Z"/>
    <path class="j" d="M284.77,249.27c0-1.24.24-2.36.73-3.35s1.17-1.76,2.04-2.3,1.87-.81,2.98-.81c1.73,0,3.12.6,4.19,1.79s1.6,2.79,1.6,4.77v.15c0,1.23-.24,2.34-.71,3.32s-1.15,1.74-2.03,2.29-1.89.82-3.03.82c-1.72,0-3.11-.6-4.18-1.79s-1.6-2.78-1.6-4.75v-.15ZM286.95,249.52c0,1.41.33,2.54.98,3.39s1.53,1.28,2.62,1.28,1.98-.43,2.62-1.29.97-2.07.97-3.63c0-1.39-.33-2.52-.99-3.38s-1.54-1.29-2.63-1.29-1.93.43-2.59,1.28-.98,2.07-.98,3.66Z"/>
    <path class="j" d="M306.86,254.47c-.84.99-2.08,1.49-3.71,1.49-1.35,0-2.38-.39-3.09-1.18s-1.06-1.95-1.07-3.49v-8.25h2.17v8.19c0,1.92.78,2.88,2.34,2.88,1.66,0,2.76-.62,3.3-1.85v-9.22h2.17v12.68h-2.06l-.05-1.25Z"/>
    <path class="j" d="M314.62,255.72h-2.17v-18h2.17v18Z"/>
    <path class="j" d="M323.35,255.96c-1.72,0-3.12-.56-4.2-1.69s-1.62-2.64-1.62-4.53v-.4c0-1.26.24-2.38.72-3.37s1.15-1.76,2.02-2.32,1.8-.84,2.81-.84c1.65,0,2.93.54,3.84,1.63s1.37,2.64,1.37,4.66v.9h-8.59c.03,1.25.4,2.26,1.1,3.03s1.59,1.15,2.67,1.15c.77,0,1.41-.16,1.95-.47s1-.73,1.39-1.24l1.32,1.03c-1.06,1.63-2.66,2.45-4.78,2.45ZM323.08,244.59c-.88,0-1.61.32-2.2.96s-.96,1.53-1.1,2.68h6.35v-.16c-.06-1.1-.36-1.96-.89-2.56s-1.25-.91-2.16-.91Z"/>
    <path class="j" d="M338.19,252.36c0-.59-.22-1.04-.66-1.37s-1.21-.6-2.31-.84-1.97-.52-2.61-.84-1.12-.72-1.43-1.17-.46-.99-.46-1.62c0-1.04.44-1.92,1.32-2.64s2-1.08,3.37-1.08c1.44,0,2.6.37,3.5,1.11s1.34,1.69,1.34,2.85h-2.18c0-.59-.25-1.11-.76-1.54s-1.14-.64-1.9-.64-1.41.17-1.85.52-.67.79-.67,1.35c0,.52.21.92.62,1.18s1.16.52,2.24.76,1.96.53,2.63.87,1.17.74,1.49,1.21.49,1.05.49,1.73c0,1.13-.45,2.04-1.36,2.72s-2.08,1.03-3.53,1.03c-1.02,0-1.91-.18-2.7-.54s-1.39-.86-1.83-1.51-.66-1.34-.66-2.09h2.17c.04.73.33,1.3.87,1.73s1.26.64,2.15.64c.82,0,1.48-.17,1.97-.5s.74-.78.74-1.33Z"/>
  </g>
  <g>
    <line class="o" x1="742.31" y1="412.96" x2="914.44" y2="412.96"/>
    <polygon class="j" points="912.1 420.93 925.92 412.96 912.1 404.98 912.1 420.93"/>
  </g>
  <g>
    <path class="p" d="M802.89,119.16c13.66-9.74,27.59,9.8,41.25.06,13.66-9.74-.28-29.28,13.38-39.02,13.66-9.74,27.59,9.8,41.25.06,13.66-9.74-.27-29.28,13.39-39.02,9.95-7.09,20.04,1.34,30.06,2.69"/>
    <polygon class="l" points="941.2 51.57 953.41 41.31 938.42 35.86 941.2 51.57"/>
  </g>
  <g>
    <path class="j" d="M749.32,449.32c-1.93-.55-3.33-1.24-4.21-2.04s-1.32-1.81-1.32-2.99c0-1.34.54-2.46,1.61-3.33s2.47-1.32,4.19-1.32c1.17,0,2.22.23,3.13.68s1.63,1.08,2.13,1.88.76,1.67.76,2.61h-2.26c0-1.04-.33-1.85-.98-2.44s-1.58-.89-2.78-.89c-1.11,0-1.97.24-2.6.73-.62.49-.93,1.17-.93,2.04,0,.7.29,1.29.88,1.77.59.48,1.59.92,3.01,1.32s2.53.84,3.33,1.32,1.39,1.04,1.78,1.68.58,1.39.58,2.26c0,1.38-.54,2.49-1.62,3.32s-2.52,1.25-4.32,1.25c-1.17,0-2.27-.22-3.28-.67s-1.8-1.06-2.35-1.85-.83-1.67-.83-2.66h2.26c0,1.03.38,1.85,1.14,2.44s1.78.9,3.05.9c1.19,0,2.1-.24,2.73-.73s.95-1.14.95-1.98-.29-1.48-.88-1.94-1.65-.91-3.19-1.35Z"/>
    <path class="j" d="M757.61,450.47c0-1.24.24-2.36.73-3.35s1.17-1.76,2.04-2.3,1.87-.81,2.98-.81c1.73,0,3.12.6,4.19,1.79s1.6,2.79,1.6,4.77v.15c0,1.23-.24,2.34-.71,3.32s-1.15,1.74-2.03,2.29-1.89.82-3.03.82c-1.72,0-3.11-.6-4.18-1.79s-1.6-2.78-1.6-4.75v-.15ZM759.79,450.72c0,1.41.33,2.54.98,3.39s1.53,1.28,2.62,1.28,1.98-.43,2.62-1.29.97-2.07.97-3.63c0-1.39-.33-2.52-.99-3.38s-1.54-1.29-2.63-1.29-1.93.43-2.59,1.28-.98,2.07-.98,3.66Z"/>
    <path class="j" d="M779.7,455.67c-.84.99-2.08,1.49-3.71,1.49-1.35,0-2.38-.39-3.09-1.18s-1.06-1.95-1.07-3.49v-8.25h2.17v8.19c0,1.92.78,2.88,2.34,2.88,1.66,0,2.76-.62,3.3-1.85v-9.22h2.17v12.68h-2.06l-.05-1.25Z"/>
    <path class="j" d="M787.16,444.24l.07,1.59c.97-1.22,2.23-1.83,3.8-1.83,2.68,0,4.03,1.51,4.05,4.54v8.38h-2.17v-8.39c0-.91-.22-1.59-.63-2.03s-1.05-.66-1.92-.66c-.7,0-1.32.19-1.85.56s-.95.87-1.24,1.48v9.04h-2.17v-12.68h2.05Z"/>
    <path class="j" d="M797.82,450.48c0-1.95.46-3.51,1.38-4.69s2.13-1.78,3.62-1.78,2.66.51,3.53,1.52v-6.61h2.17v18h-1.99l-.11-1.36c-.87,1.06-2.07,1.59-3.62,1.59s-2.67-.6-3.59-1.8-1.39-2.77-1.39-4.71v-.16ZM799.99,450.72c0,1.44.3,2.56.89,3.38s1.41,1.22,2.46,1.22c1.38,0,2.38-.62,3.01-1.85v-5.82c-.65-1.2-1.64-1.79-2.99-1.79-1.06,0-1.89.41-2.48,1.23s-.89,2.04-.89,3.64Z"/>
    <path class="j" d="M823.08,457.16c-1.72,0-3.12-.56-4.2-1.69s-1.62-2.64-1.62-4.53v-.4c0-1.26.24-2.38.72-3.37s1.15-1.76,2.02-2.32,1.8-.84,2.81-.84c1.65,0,2.93.54,3.84,1.63s1.37,2.64,1.37,4.66v.9h-8.59c.03,1.25.4,2.26,1.1,3.03s1.59,1.15,2.67,1.15c.77,0,1.41-.16,1.95-.47s1-.73,1.39-1.24l1.32,1.03c-1.06,1.63-2.66,2.45-4.78,2.45ZM822.82,445.79c-.88,0-1.61.32-2.2.96s-.96,1.53-1.1,2.68h6.35v-.16c-.06-1.1-.36-1.96-.89-2.56s-1.25-.91-2.16-.91Z"/>
    <path class="j" d="M832.59,444.24l.07,1.59c.97-1.22,2.23-1.83,3.8-1.83,2.68,0,4.03,1.51,4.05,4.54v8.38h-2.17v-8.39c0-.91-.22-1.59-.63-2.03s-1.05-.66-1.92-.66c-.7,0-1.32.19-1.85.56s-.95.87-1.24,1.48v9.04h-2.17v-12.68h2.05Z"/>
    <path class="j" d="M849.04,457.16c-1.72,0-3.12-.56-4.2-1.69s-1.62-2.64-1.62-4.53v-.4c0-1.26.24-2.38.72-3.37s1.15-1.76,2.02-2.32,1.8-.84,2.81-.84c1.65,0,2.93.54,3.84,1.63s1.37,2.64,1.37,4.66v.9h-8.59c.03,1.25.4,2.26,1.1,3.03s1.59,1.15,2.67,1.15c.77,0,1.41-.16,1.95-.47s1-.73,1.39-1.24l1.32,1.03c-1.06,1.63-2.66,2.45-4.78,2.45ZM848.77,445.79c-.88,0-1.61.32-2.2.96s-.96,1.53-1.1,2.68h6.35v-.16c-.06-1.1-.36-1.96-.89-2.56s-1.25-.91-2.16-.91Z"/>
    <path class="j" d="M862.62,446.19c-.33-.05-.68-.08-1.07-.08-1.42,0-2.39.61-2.89,1.82v9h-2.17v-12.68h2.11l.04,1.46c.71-1.13,1.72-1.7,3.02-1.7.42,0,.74.05.96.16v2.02Z"/>
    <path class="j" d="M863.88,450.48c0-1.98.46-3.55,1.37-4.72s2.12-1.75,3.63-1.75,2.75.55,3.62,1.64l.11-1.41h1.98v12.38c0,1.64-.49,2.93-1.46,3.88s-2.28,1.42-3.92,1.42c-.91,0-1.81-.2-2.68-.59s-1.54-.93-2-1.61l1.12-1.3c.93,1.15,2.07,1.72,3.41,1.72,1.05,0,1.88-.3,2.47-.89s.88-1.43.88-2.51v-1.09c-.87,1-2.05,1.5-3.55,1.5s-2.69-.6-3.6-1.79-1.38-2.82-1.38-4.89ZM866.06,450.72c0,1.43.29,2.55.88,3.37s1.41,1.22,2.46,1.22c1.37,0,2.37-.62,3.01-1.86v-5.79c-.66-1.21-1.66-1.82-2.99-1.82-1.05,0-1.88.41-2.47,1.23s-.89,2.04-.89,3.64Z"/>
    <path class="j" d="M882.01,453.75l2.95-9.5h2.32l-5.1,14.64c-.79,2.11-2.04,3.16-3.76,3.16l-.41-.04-.81-.15v-1.76l.59.05c.73,0,1.31-.15,1.72-.45s.75-.84,1.01-1.63l.48-1.29-4.52-12.54h2.37l3.16,9.5Z"/>
    <path class="j" d="M754.91,485.72h-11.18v-1.56l5.91-6.56c.88-.99,1.48-1.8,1.81-2.42s.5-1.26.5-1.93c0-.89-.27-1.62-.81-2.19s-1.26-.86-2.16-.86c-1.08,0-1.92.31-2.51.92s-.9,1.47-.9,2.56h-2.17c0-1.57.51-2.84,1.52-3.81s2.37-1.45,4.06-1.45c1.59,0,2.84.42,3.76,1.25s1.38,1.94,1.38,3.32c0,1.68-1.07,3.68-3.21,6l-4.57,4.96h8.57v1.77Z"/>
    <path class="j" d="M767.9,478.45c0,2.54-.43,4.43-1.3,5.66s-2.22,1.85-4.07,1.85-3.17-.6-4.04-1.81-1.33-3.01-1.36-5.41v-2.89c0-2.51.43-4.37,1.3-5.59s2.23-1.83,4.08-1.83,3.19.59,4.05,1.76,1.31,2.99,1.34,5.44v2.81ZM765.73,475.48c0-1.84-.26-3.17-.77-4.01s-1.33-1.26-2.45-1.26-1.92.42-2.43,1.25-.77,2.12-.79,3.86v3.47c0,1.84.27,3.21.8,4.08s1.35,1.32,2.43,1.32,1.87-.41,2.38-1.24.79-2.13.81-3.91v-3.55Z"/>
    <path class="j" d="M781.38,478.45c0,2.54-.43,4.43-1.3,5.66s-2.22,1.85-4.07,1.85-3.17-.6-4.04-1.81-1.33-3.01-1.36-5.41v-2.89c0-2.51.43-4.37,1.3-5.59s2.23-1.83,4.08-1.83,3.19.59,4.05,1.76,1.31,2.99,1.34,5.44v2.81ZM779.21,475.48c0-1.84-.26-3.17-.77-4.01s-1.33-1.26-2.45-1.26-1.92.42-2.43,1.25-.77,2.12-.79,3.86v3.47c0,1.84.27,3.21.8,4.08s1.35,1.32,2.43,1.32,1.87-.41,2.38-1.24.79-2.13.81-3.91v-3.55Z"/>
    <path class="j" d="M797.81,468.66h2.26v12.08c0,1.63-.49,2.91-1.47,3.83s-2.29,1.38-3.92,1.38-3.02-.43-3.96-1.3-1.42-2.08-1.42-3.64h2.25c0,.98.27,1.74.8,2.29s1.31.82,2.33.82c.93,0,1.68-.29,2.26-.88s.87-1.41.87-2.46v-12.12Z"/>
    <path class="j" d="M802.99,479.27c0-1.24.24-2.36.73-3.35s1.17-1.76,2.04-2.3,1.87-.81,2.98-.81c1.73,0,3.12.6,4.19,1.79s1.6,2.79,1.6,4.77v.15c0,1.23-.24,2.34-.71,3.32s-1.15,1.74-2.03,2.29-1.89.82-3.03.82c-1.72,0-3.11-.6-4.18-1.79s-1.6-2.78-1.6-4.75v-.15ZM805.17,479.52c0,1.41.33,2.54.98,3.39s1.53,1.28,2.62,1.28,1.98-.43,2.62-1.29.97-2.07.97-3.63c0-1.39-.33-2.52-.99-3.38s-1.54-1.29-2.63-1.29-1.93.43-2.59,1.28-.98,2.07-.98,3.66Z"/>
    <path class="j" d="M825.08,484.47c-.84.99-2.08,1.49-3.71,1.49-1.35,0-2.38-.39-3.09-1.18s-1.06-1.95-1.07-3.49v-8.25h2.17v8.19c0,1.92.78,2.88,2.34,2.88,1.66,0,2.76-.62,3.3-1.85v-9.22h2.17v12.68h-2.06l-.05-1.25Z"/>
    <path class="j" d="M832.83,485.72h-2.17v-18h2.17v18Z"/>
    <path class="j" d="M841.57,485.96c-1.72,0-3.12-.56-4.2-1.69s-1.62-2.64-1.62-4.53v-.4c0-1.26.24-2.38.72-3.37s1.15-1.76,2.02-2.32,1.8-.84,2.81-.84c1.65,0,2.93.54,3.84,1.63s1.37,2.64,1.37,4.66v.9h-8.59c.03,1.25.4,2.26,1.1,3.03s1.59,1.15,2.67,1.15c.77,0,1.41-.16,1.95-.47s1-.73,1.39-1.24l1.32,1.03c-1.06,1.63-2.66,2.45-4.78,2.45ZM841.3,474.59c-.88,0-1.61.32-2.2.96s-.96,1.53-1.1,2.68h6.35v-.16c-.06-1.1-.36-1.96-.89-2.56s-1.25-.91-2.16-.91Z"/>
    <path class="j" d="M856.4,482.36c0-.59-.22-1.04-.66-1.37s-1.21-.6-2.31-.84-1.97-.52-2.61-.84-1.12-.72-1.43-1.17-.46-.99-.46-1.62c0-1.04.44-1.92,1.32-2.64s2-1.08,3.37-1.08c1.44,0,2.6.37,3.5,1.11s1.34,1.69,1.34,2.85h-2.18c0-.59-.25-1.11-.76-1.54s-1.14-.64-1.9-.64-1.41.17-1.85.52-.67.79-.67,1.35c0,.52.21.92.62,1.18s1.16.52,2.24.76,1.96.53,2.63.87,1.17.74,1.49,1.21.49,1.05.49,1.73c0,1.13-.45,2.04-1.36,2.72s-2.08,1.03-3.53,1.03c-1.02,0-1.91-.18-2.7-.54s-1.39-.86-1.83-1.51-.66-1.34-.66-2.09h2.17c.04.73.33,1.3.87,1.73s1.26.64,2.15.64c.82,0,1.48-.17,1.97-.5s.74-.78.74-1.33Z"/>
  </g>
  <g>
    <path class="j" d="M973.93,16.04h-7.39v6.05h8.59v1.84h-10.84V6.86h10.72v1.84h-8.47v5.5h7.39v1.84Z"/>
    <path class="j" d="M979.64,11.24l.07,1.59c.97-1.22,2.23-1.83,3.8-1.83,2.68,0,4.03,1.51,4.05,4.54v8.38h-2.17v-8.39c0-.91-.22-1.59-.63-2.03s-1.05-.66-1.92-.66c-.7,0-1.32.19-1.85.56s-.95.87-1.24,1.48v9.04h-2.17v-12.68h2.05Z"/>
    <path class="j" d="M996.09,24.16c-1.72,0-3.12-.56-4.2-1.69s-1.62-2.64-1.62-4.53v-.4c0-1.26.24-2.38.72-3.37s1.15-1.76,2.02-2.32,1.8-.84,2.81-.84c1.65,0,2.93.54,3.84,1.63s1.37,2.64,1.37,4.66v.9h-8.59c.03,1.25.4,2.26,1.1,3.03s1.59,1.15,2.67,1.15c.77,0,1.41-.16,1.95-.47s1-.73,1.39-1.24l1.32,1.03c-1.06,1.63-2.66,2.45-4.78,2.45ZM995.82,12.79c-.88,0-1.61.32-2.2.96s-.96,1.53-1.1,2.68h6.35v-.16c-.06-1.1-.36-1.96-.89-2.56s-1.25-.91-2.16-.91Z"/>
    <path class="j" d="M1009.67,13.19c-.33-.05-.68-.08-1.07-.08-1.42,0-2.39.61-2.89,1.82v9h-2.17v-12.68h2.11l.04,1.46c.71-1.13,1.72-1.7,3.02-1.7.42,0,.74.05.96.16v2.02Z"/>
    <path class="j" d="M1010.93,17.48c0-1.98.46-3.55,1.37-4.72s2.12-1.75,3.63-1.75,2.75.55,3.62,1.64l.11-1.41h1.98v12.38c0,1.64-.49,2.93-1.46,3.88s-2.28,1.42-3.92,1.42c-.91,0-1.81-.2-2.68-.59s-1.54-.93-2-1.61l1.12-1.3c.93,1.15,2.07,1.72,3.41,1.72,1.05,0,1.88-.3,2.47-.89s.88-1.43.88-2.51v-1.09c-.87,1-2.05,1.5-3.55,1.5s-2.69-.6-3.6-1.79-1.38-2.82-1.38-4.89ZM1013.11,17.72c0,1.43.29,2.55.88,3.37s1.41,1.22,2.46,1.22c1.37,0,2.37-.62,3.01-1.86v-5.79c-.66-1.21-1.66-1.82-2.99-1.82-1.05,0-1.88.41-2.47,1.23s-.89,2.04-.89,3.64Z"/>
    <path class="j" d="M1029.06,20.75l2.95-9.5h2.32l-5.1,14.64c-.79,2.11-2.04,3.16-3.76,3.16l-.41-.04-.81-.15v-1.76l.59.05c.73,0,1.31-.15,1.72-.45s.75-.84,1.01-1.63l.48-1.29-4.52-12.54h2.37l3.16,9.5Z"/>
    <path class="j" d="M1044.56,23.92h-2.17V5.92h2.17v18Z"/>
    <path class="j" d="M1047.46,17.47c0-1.24.24-2.36.73-3.35s1.17-1.76,2.04-2.3,1.87-.81,2.98-.81c1.73,0,3.12.6,4.19,1.79s1.6,2.79,1.6,4.77v.15c0,1.23-.24,2.34-.71,3.32s-1.15,1.74-2.03,2.29-1.89.82-3.03.82c-1.72,0-3.11-.6-4.18-1.79s-1.6-2.78-1.6-4.75v-.15ZM1049.64,17.72c0,1.41.33,2.54.98,3.39s1.53,1.28,2.62,1.28,1.98-.43,2.62-1.29.97-2.07.97-3.63c0-1.39-.33-2.52-.99-3.38s-1.54-1.29-2.63-1.29-1.93.43-2.59,1.28-.98,2.07-.98,3.66Z"/>
    <path class="j" d="M1069.1,20.56c0-.59-.22-1.04-.66-1.37s-1.21-.6-2.31-.84-1.97-.52-2.61-.84-1.12-.72-1.43-1.17-.46-.99-.46-1.62c0-1.04.44-1.92,1.32-2.64s2-1.08,3.37-1.08c1.44,0,2.6.37,3.5,1.11s1.34,1.69,1.34,2.85h-2.18c0-.59-.25-1.11-.76-1.54s-1.14-.64-1.9-.64-1.41.17-1.85.52-.67.79-.67,1.35c0,.52.21.92.62,1.18s1.16.52,2.24.76,1.96.53,2.63.87,1.17.74,1.49,1.21.49,1.05.49,1.73c0,1.13-.45,2.04-1.36,2.72s-2.08,1.03-3.53,1.03c-1.02,0-1.91-.18-2.7-.54s-1.39-.86-1.83-1.51-.66-1.34-.66-2.09h2.17c.04.73.33,1.3.87,1.73s1.26.64,2.15.64c.82,0,1.48-.17,1.97-.5s.74-.78.74-1.33Z"/>
    <path class="j" d="M1081.48,20.56c0-.59-.22-1.04-.66-1.37s-1.21-.6-2.31-.84-1.97-.52-2.61-.84-1.12-.72-1.43-1.17-.46-.99-.46-1.62c0-1.04.44-1.92,1.32-2.64s2-1.08,3.37-1.08c1.44,0,2.6.37,3.5,1.11s1.34,1.69,1.34,2.85h-2.18c0-.59-.25-1.11-.76-1.54s-1.14-.64-1.9-.64-1.41.17-1.85.52-.67.79-.67,1.35c0,.52.21.92.62,1.18s1.16.52,2.24.76,1.96.53,2.63.87,1.17.74,1.49,1.21.49,1.05.49,1.73c0,1.13-.45,2.04-1.36,2.72s-2.08,1.03-3.53,1.03c-1.02,0-1.91-.18-2.7-.54s-1.39-.86-1.83-1.51-.66-1.34-.66-2.09h2.17c.04.73.33,1.3.87,1.73s1.26.64,2.15.64c.82,0,1.48-.17,1.97-.5s.74-.78.74-1.33Z"/>
    <path class="j" d="M963.87,45.8c0-1.77.24-3.46.71-5.09s1.18-3.1,2.12-4.43,1.91-2.27,2.92-2.81l.45,1.43c-1.14.88-2.08,2.21-2.81,4.01s-1.13,3.81-1.2,6.04v1c-.01,3.02.54,5.63,1.64,7.85.66,1.33,1.45,2.37,2.37,3.12l-.45,1.32c-1.04-.58-2.03-1.55-2.98-2.91-1.84-2.66-2.77-5.83-2.77-9.53Z"/>
    <path class="j" d="M974.32,41.58c.96-1.18,2.21-1.77,3.75-1.77,2.68,0,4.03,1.51,4.05,4.54v8.38h-2.17v-8.39c0-.91-.22-1.59-.63-2.03s-1.05-.66-1.92-.66c-.7,0-1.32.19-1.85.56s-.95.87-1.24,1.48v9.04h-2.17v-18h2.17v6.86Z"/>
    <path class="j" d="M990.63,52.96c-1.72,0-3.12-.56-4.2-1.69s-1.62-2.64-1.62-4.53v-.4c0-1.26.24-2.38.72-3.37s1.15-1.76,2.02-2.32,1.8-.84,2.81-.84c1.65,0,2.93.54,3.84,1.63s1.37,2.64,1.37,4.66v.9h-8.59c.03,1.25.4,2.26,1.1,3.03s1.59,1.15,2.67,1.15c.77,0,1.41-.16,1.95-.47s1-.73,1.39-1.24l1.32,1.03c-1.06,1.63-2.66,2.45-4.78,2.45ZM990.36,41.59c-.88,0-1.61.32-2.2.96s-.96,1.53-1.1,2.68h6.35v-.16c-.06-1.1-.36-1.96-.89-2.56s-1.25-.91-2.16-.91Z"/>
    <path class="j" d="M1005.91,52.72c-.12-.25-.23-.7-.3-1.34-1.01,1.05-2.21,1.57-3.61,1.57-1.25,0-2.28-.35-3.08-1.06s-1.2-1.6-1.2-2.69c0-1.32.5-2.35,1.51-3.08s2.42-1.1,4.24-1.1h2.11v-1c0-.76-.23-1.36-.68-1.81s-1.12-.67-2-.67c-.77,0-1.42.2-1.95.59s-.79.86-.79,1.42h-2.18c0-.63.22-1.24.67-1.83s1.06-1.06,1.83-1.4,1.62-.52,2.54-.52c1.46,0,2.61.37,3.43,1.1s1.26,1.74,1.29,3.02v5.84c0,1.16.15,2.09.45,2.78v.19h-2.27ZM1002.32,51.07c.68,0,1.32-.18,1.93-.53s1.05-.81,1.32-1.37v-2.6h-1.7c-2.66,0-3.98.78-3.98,2.33,0,.68.23,1.21.68,1.59s1.04.57,1.75.57Z"/>
    <path class="j" d="M1014.08,36.97v3.07h2.37v1.68h-2.37v7.87c0,.51.11.89.32,1.14.21.25.57.38,1.08.38.25,0,.59-.05,1.03-.14v1.75c-.57.15-1.12.23-1.66.23-.97,0-1.7-.29-2.19-.88s-.74-1.42-.74-2.5v-7.86h-2.31v-1.68h2.31v-3.07h2.17Z"/>
    <path class="j" d="M1023.98,45.91c0,1.74-.23,3.41-.69,5.01s-1.16,3.07-2.1,4.42-1.93,2.31-2.96,2.88l-.46-1.32c1.2-.92,2.17-2.35,2.9-4.29s1.1-4.1,1.12-6.46v-.38c0-1.64-.17-3.17-.52-4.58s-.82-2.67-1.44-3.79-1.3-1.99-2.07-2.61l.46-1.32c1.03.57,2.01,1.52,2.95,2.86s1.63,2.81,2.1,4.42.7,3.33.7,5.17Z"/>
    <path class="j" d="M972.23,64.45v1.84h-.4c-1.69.03-3.03.53-4.03,1.5s-1.58,2.33-1.73,4.09c.9-1.03,2.12-1.55,3.68-1.55s2.67.52,3.56,1.57,1.33,2.4,1.33,4.05c0,1.76-.48,3.16-1.44,4.22s-2.24,1.58-3.85,1.58-2.96-.63-3.97-1.88-1.52-2.87-1.52-4.85v-.83c0-3.14.67-5.54,2.01-7.2s3.33-2.51,5.98-2.55h.39ZM969.39,72.14c-.74,0-1.43.22-2.05.67s-1.06,1-1.3,1.68v.8c0,1.41.32,2.54.95,3.4s1.42,1.29,2.37,1.29,1.74-.36,2.3-1.08.84-1.66.84-2.82-.28-2.12-.85-2.84-1.32-1.08-2.26-1.08Z"/>
    <path class="j" d="M978.2,72.97l.87-8.51h8.74v2h-6.9l-.52,4.65c.84-.49,1.79-.74,2.85-.74,1.55,0,2.79.51,3.7,1.54s1.37,2.42,1.37,4.17-.47,3.14-1.42,4.15-2.28,1.52-3.98,1.52c-1.51,0-2.74-.42-3.69-1.25s-1.5-1.99-1.63-3.47h2.05c.13.98.48,1.71,1.04,2.21s1.3.74,2.23.74c1.01,0,1.8-.34,2.37-1.03s.86-1.64.86-2.85c0-1.14-.31-2.06-.93-2.75s-1.45-1.04-2.48-1.04c-.95,0-1.69.21-2.23.62l-.57.47-1.73-.45Z"/>
    <path class="j" d="M1004.33,64.46h2.26v12.08c0,1.63-.49,2.91-1.47,3.83s-2.29,1.38-3.92,1.38-3.02-.43-3.96-1.3-1.42-2.08-1.42-3.64h2.25c0,.98.27,1.74.8,2.29s1.31.82,2.33.82c.93,0,1.68-.29,2.26-.88s.87-1.41.87-2.46v-12.12Z"/>
    <path class="j" d="M1009.51,75.07c0-1.24.24-2.36.73-3.35s1.17-1.76,2.04-2.3,1.87-.81,2.98-.81c1.73,0,3.12.6,4.19,1.79s1.6,2.79,1.6,4.77v.15c0,1.23-.24,2.34-.71,3.32s-1.15,1.74-2.03,2.29-1.89.82-3.03.82c-1.72,0-3.11-.6-4.18-1.79s-1.6-2.78-1.6-4.75v-.15ZM1011.69,75.32c0,1.41.33,2.54.98,3.39s1.53,1.28,2.62,1.28,1.98-.43,2.62-1.29.97-2.07.97-3.63c0-1.39-.33-2.52-.99-3.38s-1.54-1.29-2.63-1.29-1.93.43-2.59,1.28-.98,2.07-.98,3.66Z"/>
    <path class="j" d="M1031.6,80.27c-.84.99-2.08,1.49-3.71,1.49-1.35,0-2.38-.39-3.09-1.18s-1.06-1.95-1.07-3.49v-8.25h2.17v8.19c0,1.92.78,2.88,2.34,2.88,1.66,0,2.76-.62,3.3-1.85v-9.22h2.17v12.68h-2.06l-.05-1.25Z"/>
    <path class="j" d="M1039.36,81.52h-2.17v-18h2.17v18Z"/>
    <path class="j" d="M1048.09,81.76c-1.72,0-3.12-.56-4.2-1.69s-1.62-2.64-1.62-4.53v-.4c0-1.26.24-2.38.72-3.37s1.15-1.76,2.02-2.32,1.8-.84,2.81-.84c1.65,0,2.93.54,3.84,1.63s1.37,2.64,1.37,4.66v.9h-8.59c.03,1.25.4,2.26,1.1,3.03s1.59,1.15,2.67,1.15c.77,0,1.41-.16,1.95-.47s1-.73,1.39-1.24l1.32,1.03c-1.06,1.63-2.66,2.45-4.78,2.45ZM1047.82,70.39c-.88,0-1.61.32-2.2.96s-.96,1.53-1.1,2.68h6.35v-.16c-.06-1.1-.36-1.96-.89-2.56s-1.25-.91-2.16-.91Z"/>
    <path class="j" d="M1062.92,78.16c0-.59-.22-1.04-.66-1.37s-1.21-.6-2.31-.84-1.97-.52-2.61-.84-1.12-.72-1.43-1.17-.46-.99-.46-1.62c0-1.04.44-1.92,1.32-2.64s2-1.08,3.37-1.08c1.44,0,2.6.37,3.5,1.11s1.34,1.69,1.34,2.85h-2.18c0-.59-.25-1.11-.76-1.54s-1.14-.64-1.9-.64-1.41.17-1.85.52-.67.79-.67,1.35c0,.52.21.92.62,1.18s1.16.52,2.24.76,1.96.53,2.63.87,1.17.74,1.49,1.21.49,1.05.49,1.73c0,1.13-.45,2.04-1.36,2.72s-2.08,1.03-3.53,1.03c-1.02,0-1.91-.18-2.7-.54s-1.39-.86-1.83-1.51-.66-1.34-.66-2.09h2.17c.04.73.33,1.3.87,1.73s1.26.64,2.15.64c.82,0,1.48-.17,1.97-.5s.74-.78.74-1.33Z"/>
  </g>
</svg>