<?xml version="1.0" encoding="UTF-8"?><svg id="a" xmlns="http://www.w3.org/2000/svg" width="570" height="428" xmlns:xlink="http://www.w3.org/1999/xlink" viewBox="0 0 570 428"><defs><clipPath id="b"><path d="m41.978,129.532C15.593-58.85,238.703,20.043,332.558,8.451c324.902-40.129,181.16,105.389,220.909,219.81,54.378,156.531-65.14,220.92-180.126,190.946C234.953,383.132,40.874,500.161,7.963,335.888c-24.672-123.147,51.574-80.984,34.015-206.356Z" fill="none"/></clipPath></defs><path d="m41.978,129.532C15.593-58.85,238.703,20.043,332.558,8.451c324.902-40.129,181.16,105.389,220.909,219.81,54.378,156.531-65.14,220.92-180.126,190.946C234.953,383.132,40.874,500.161,7.963,335.888c-24.672-123.147,51.574-80.984,34.015-206.356Z" fill="#fcdbd2"/><g clip-path="url(#b)"><rect x="134.937" y="58.632" width="300.126" height="300.126" fill="#f7ad9c"/><polyline points="135.937 61.663 135.937 -238.463 436.063 -238.463" fill="none" opacity=".3" stroke="#f7ad9c" stroke-miterlimit="10" stroke-width="4"/><g opacity=".3"><path d="m729.674-234.463V57.663h-292.126V-234.463h292.126m4-4h-300.126V61.663h300.126V-238.463h0Z" fill="#f7ad9c"/></g><polyline points="437.063 652.337 136.937 652.337 136.937 354.211" fill="none" opacity=".5" stroke="#f7ad9c" stroke-miterlimit="10" stroke-width="4"/><g opacity=".3"><path d="m729.674,358.211v292.126h-292.126v-292.126h292.126m4-4h-300.126v300.126h300.126v-300.126h0Z" fill="#f7ad9c"/></g><path d="m281.262,183.605l-6.474,6.971v17.261h-12.447v-60.415h12.447v27.386l5.478-7.51,15.394-19.875h15.312l-21.452,26.846,22.074,33.568h-14.812l-15.519-24.232Z"/><path d="m207.907,265.24v9.61h-3.237v-24.548h9.054c2.687,0,4.791.686,6.314,2.057,1.522,1.372,2.284,3.187,2.284,5.446,0,2.383-.745,4.218-2.233,5.505-1.49,1.287-3.623,1.931-6.399,1.931h-5.782Zm0-2.647h5.816c1.73,0,3.058-.408,3.979-1.225.921-.816,1.382-1.996,1.382-3.539,0-1.463-.461-2.635-1.382-3.513-.922-.878-2.187-1.334-3.794-1.368h-6.002v9.644Z"/><path d="m224.919,265.56c0-1.787.352-3.395,1.054-4.822.702-1.428,1.681-2.529,2.934-3.305,1.254-.776,2.684-1.164,4.291-1.164,2.484,0,4.493.86,6.027,2.58s2.302,4.007,2.302,6.862v.219c0,1.776-.34,3.369-1.021,4.78-.68,1.41-1.651,2.509-2.916,3.296s-2.718,1.181-4.358,1.181c-2.474,0-4.477-.86-6.011-2.58s-2.302-3.996-2.302-6.828v-.219Zm3.136.371c0,2.023.47,3.647,1.408,4.873.938,1.225,2.194,1.838,3.769,1.838,1.585,0,2.844-.621,3.776-1.863s1.399-2.981,1.399-5.218c0-2-.475-3.622-1.425-4.864-.95-1.242-2.212-1.863-3.785-1.863-1.54,0-2.782.613-3.726,1.837-.944,1.226-1.417,2.979-1.417,5.261Z"/><path d="m249.67,252.19v4.417h3.405v2.411h-3.405v11.327c0,.731.151,1.28.455,1.646.303.366.82.549,1.551.549.359,0,.854-.067,1.483-.202v2.514c-.82.224-1.618.336-2.394.336-1.395,0-2.445-.422-3.153-1.265-.708-.844-1.062-2.04-1.062-3.592v-11.312h-3.322v-2.411h3.322v-4.417h3.119Z"/><path d="m267.979,274.85c-.18-.359-.326-1-.438-1.922-1.45,1.507-3.181,2.26-5.192,2.26-1.799,0-3.274-.509-4.426-1.526-1.152-1.017-1.729-2.307-1.729-3.869,0-1.899.722-3.375,2.166-4.426,1.444-1.051,3.477-1.577,6.096-1.577h3.034v-1.433c0-1.09-.326-1.958-.978-2.604-.652-.646-1.613-.97-2.883-.97-1.113,0-2.046.281-2.799.843-.754.562-1.13,1.242-1.13,2.04h-3.136c0-.911.322-1.79.969-2.639s1.523-1.52,2.631-2.015c1.106-.494,2.323-.742,3.65-.742,2.102,0,3.748.526,4.939,1.577s1.81,2.498,1.854,4.341v8.396c0,1.675.214,3.007.641,3.996v.27h-3.271Zm-5.176-2.377c.978,0,1.905-.253,2.781-.759.877-.506,1.512-1.163,1.905-1.973v-3.743h-2.444c-3.822,0-5.732,1.119-5.732,3.355,0,.978.326,1.742.978,2.293.652.551,1.489.826,2.513.826Z"/><path d="m286.121,270.011c0-.843-.317-1.497-.953-1.964-.635-.466-1.742-.868-3.321-1.206-1.579-.337-2.832-.742-3.76-1.214-.927-.472-1.613-1.034-2.057-1.686-.444-.652-.666-1.427-.666-2.327,0-1.495.632-2.759,1.896-3.793s2.881-1.551,4.848-1.551c2.068,0,3.745.534,5.032,1.602s1.931,2.434,1.931,4.097h-3.136c0-.854-.362-1.59-1.088-2.208-.725-.618-1.638-.927-2.739-.927-1.136,0-2.023.247-2.664.742s-.961,1.141-.961,1.939c0,.753.298,1.321.894,1.703.596.382,1.672.748,3.229,1.096,1.557.349,2.818.765,3.785,1.248.967.483,1.684,1.065,2.149,1.745.467.68.7,1.508.7,2.487,0,1.63-.652,2.937-1.956,3.92s-2.995,1.476-5.074,1.476c-1.462,0-2.755-.259-3.878-.776-1.124-.517-2.004-1.239-2.639-2.166-.636-.928-.953-1.931-.953-3.01h3.119c.057,1.045.475,1.874,1.256,2.487.781.612,1.812.919,3.095.919,1.18,0,2.127-.239,2.841-.717.713-.478,1.07-1.115,1.07-1.914Z"/><path d="m303.926,270.011c0-.843-.317-1.497-.953-1.964-.635-.466-1.742-.868-3.321-1.206-1.579-.337-2.832-.742-3.76-1.214-.927-.472-1.613-1.034-2.057-1.686-.444-.652-.666-1.427-.666-2.327,0-1.495.632-2.759,1.896-3.793s2.881-1.551,4.848-1.551c2.068,0,3.745.534,5.032,1.602s1.931,2.434,1.931,4.097h-3.136c0-.854-.362-1.59-1.088-2.208-.725-.618-1.638-.927-2.739-.927-1.136,0-2.023.247-2.664.742s-.961,1.141-.961,1.939c0,.753.298,1.321.894,1.703.596.382,1.672.748,3.229,1.096,1.557.349,2.818.765,3.785,1.248.967.483,1.684,1.065,2.149,1.745.467.68.7,1.508.7,2.487,0,1.63-.652,2.937-1.956,3.92s-2.995,1.476-5.074,1.476c-1.462,0-2.755-.259-3.878-.776-1.124-.517-2.004-1.239-2.639-2.166-.636-.928-.953-1.931-.953-3.01h3.119c.057,1.045.475,1.874,1.256,2.487.781.612,1.812.919,3.095.919,1.18,0,2.127-.239,2.841-.717.713-.478,1.07-1.115,1.07-1.914Z"/><path d="m311.125,251.769c0-.506.154-.933.464-1.282.31-.348.768-.522,1.374-.522s1.068.174,1.383.522c.314.349.472.776.472,1.282s-.157.927-.472,1.264c-.314.337-.775.506-1.383.506s-1.064-.168-1.374-.506c-.31-.337-.464-.758-.464-1.264Zm3.372,23.081h-3.119v-18.242h3.119v18.242Z"/><path d="m330.751,273.046c-1.214,1.428-2.995,2.142-5.345,2.142-1.944,0-3.426-.565-4.442-1.695-1.018-1.129-1.532-2.801-1.543-5.016v-11.869h3.119v11.785c0,2.765,1.124,4.147,3.372,4.147,2.383,0,3.968-.888,4.755-2.664v-13.269h3.119v18.242h-2.968l-.067-1.804Z"/><path d="m341.457,256.608l.085,2.023c1.337-1.573,3.141-2.36,5.412-2.36,2.551,0,4.287.978,5.209,2.934.607-.876,1.396-1.584,2.369-2.124s2.122-.81,3.448-.81c4.001,0,6.036,2.119,6.104,6.356v12.223h-3.119v-12.038c0-1.304-.298-2.279-.894-2.925-.597-.646-1.597-.97-3.002-.97-1.157,0-2.118.346-2.883,1.037s-1.208,1.622-1.332,2.791v12.105h-3.136v-11.954c0-2.652-1.298-3.979-3.895-3.979-2.046,0-3.445.872-4.198,2.613v13.319h-3.119v-18.242h2.95Z"/><path d="m277.025,115.866h-3.136v-20.789l-6.289,2.31v-2.833l8.936-3.355h.489v24.667Z"/><path d="m298.118,105.075c-.652.775-1.431,1.399-2.335,1.872-.905.472-1.897.708-2.977.708-1.416,0-2.649-.348-3.7-1.045-1.052-.697-1.863-1.678-2.437-2.942-.573-1.265-.86-2.661-.86-4.19,0-1.641.312-3.119.937-4.434.623-1.315,1.509-2.321,2.655-3.018s2.484-1.045,4.013-1.045c2.428,0,4.342.908,5.741,2.723,1.399,1.815,2.099,4.291,2.099,7.427v.911c0,4.777-.944,8.264-2.832,10.461-1.889,2.198-4.738,3.325-8.549,3.381h-.606v-2.647h.657c2.574-.044,4.553-.715,5.935-2.01,1.383-1.296,2.136-3.346,2.26-6.15Zm-4.806,0c1.046,0,2.01-.32,2.892-.961.883-.641,1.526-1.433,1.931-2.377v-1.248c0-2.046-.444-3.709-1.332-4.991s-2.012-1.922-3.372-1.922c-1.371,0-2.473.525-3.305,1.576-.832,1.051-1.247,2.437-1.247,4.156,0,1.675.401,3.055,1.205,4.139.804,1.085,1.88,1.627,3.229,1.627Z"/><path d="m237.683,312.133h2.344c1.473-.022,2.63-.41,3.474-1.163.843-.753,1.265-1.771,1.265-3.052,0-2.877-1.434-4.316-4.3-4.316-1.349,0-2.425.386-3.229,1.155s-1.206,1.79-1.206,3.061h-3.119c0-1.945.711-3.561,2.133-4.848s3.229-1.931,5.421-1.931c2.315,0,4.131.612,5.446,1.838,1.314,1.226,1.973,2.928,1.973,5.108,0,1.068-.346,2.103-1.037,3.103s-1.633,1.748-2.824,2.242c1.349.428,2.392,1.136,3.128,2.125.735.988,1.104,2.197,1.104,3.624,0,2.203-.719,3.951-2.158,5.244-1.438,1.293-3.31,1.938-5.614,1.938s-4.179-.624-5.623-1.871c-1.444-1.248-2.166-2.895-2.166-4.94h3.136c0,1.293.422,2.327,1.265,3.103s1.973,1.163,3.389,1.163c1.507,0,2.658-.393,3.457-1.18.798-.787,1.196-1.917,1.196-3.389,0-1.428-.438-2.523-1.314-3.288s-2.142-1.157-3.794-1.181h-2.344v-2.546Z"/><path d="m264.491,315.134c-.652.776-1.431,1.399-2.335,1.872-.905.472-1.897.708-2.977.708-1.416,0-2.649-.349-3.7-1.045-1.052-.697-1.863-1.678-2.437-2.942s-.86-2.661-.86-4.189c0-1.642.312-3.119.937-4.435.623-1.315,1.509-2.321,2.655-3.019,1.146-.696,2.484-1.045,4.013-1.045,2.428,0,4.342.908,5.741,2.723,1.399,1.815,2.099,4.291,2.099,7.427v.911c0,4.777-.944,8.265-2.832,10.462-1.889,2.197-4.738,3.324-8.549,3.38h-.606v-2.646h.657c2.574-.045,4.553-.715,5.935-2.011,1.383-1.296,2.136-3.346,2.26-6.15Zm-4.806,0c1.046,0,2.01-.32,2.892-.961.883-.641,1.526-1.433,1.931-2.377v-1.248c0-2.045-.444-3.709-1.332-4.99s-2.012-1.922-3.372-1.922c-1.371,0-2.473.525-3.305,1.576s-1.247,2.437-1.247,4.156c0,1.675.401,3.055,1.205,4.139.804,1.085,1.88,1.627,3.229,1.627Z"/><path d="m272.313,324.289c0-.539.16-.988.48-1.349.32-.359.801-.539,1.441-.539s1.127.18,1.459.539c.331.36.497.81.497,1.349,0,.518-.166.95-.497,1.299-.332.348-.818.522-1.459.522s-1.121-.175-1.441-.522c-.32-.349-.48-.781-.48-1.299Z"/><path d="m296.407,315.455c0,3.652-.624,6.367-1.872,8.143-1.247,1.776-3.197,2.664-5.85,2.664-2.619,0-4.559-.868-5.817-2.604s-1.911-4.33-1.956-7.781v-4.164c0-3.608.624-6.289,1.872-8.043,1.247-1.753,3.203-2.63,5.867-2.63,2.642,0,4.586.846,5.834,2.537,1.247,1.692,1.888,4.303,1.922,7.832v4.047Zm-3.119-4.267c0-2.641-.371-4.565-1.113-5.774-.741-1.208-1.916-1.812-3.523-1.812-1.596,0-2.76.602-3.49,1.805-.73,1.202-1.107,3.052-1.13,5.547v4.99c0,2.653.386,4.611,1.155,5.876s1.937,1.896,3.499,1.896c1.539,0,2.683-.596,3.431-1.787.747-1.191,1.138-3.068,1.172-5.631v-5.109Z"/><path d="m312.357,315.134c-.652.776-1.431,1.399-2.335,1.872-.905.472-1.897.708-2.977.708-1.416,0-2.649-.349-3.7-1.045-1.052-.697-1.863-1.678-2.437-2.942s-.86-2.661-.86-4.189c0-1.642.312-3.119.937-4.435.623-1.315,1.509-2.321,2.655-3.019,1.146-.696,2.484-1.045,4.013-1.045,2.428,0,4.342.908,5.741,2.723,1.399,1.815,2.099,4.291,2.099,7.427v.911c0,4.777-.944,8.265-2.832,10.462-1.889,2.197-4.738,3.324-8.549,3.38h-.606v-2.646h.657c2.574-.045,4.553-.715,5.935-2.011,1.383-1.296,2.136-3.346,2.26-6.15Zm-4.806,0c1.046,0,2.01-.32,2.892-.961.883-.641,1.526-1.433,1.931-2.377v-1.248c0-2.045-.444-3.709-1.332-4.99s-2.012-1.922-3.372-1.922c-1.371,0-2.473.525-3.305,1.576s-1.247,2.437-1.247,4.156c0,1.675.401,3.055,1.205,4.139.804,1.085,1.88,1.627,3.229,1.627Z"/><path d="m334.68,307.783c0,1.226-.323,2.315-.97,3.271-.646.956-1.521,1.703-2.621,2.243,1.281.551,2.295,1.354,3.043,2.41.747,1.057,1.121,2.254,1.121,3.592,0,2.124-.717,3.816-2.149,5.075-1.434,1.259-3.319,1.888-5.657,1.888-2.36,0-4.251-.632-5.673-1.896-1.423-1.265-2.133-2.953-2.133-5.066,0-1.326.362-2.523,1.087-3.592.726-1.067,1.729-1.877,3.01-2.428-1.091-.539-1.95-1.286-2.579-2.242-.63-.955-.944-2.04-.944-3.254,0-2.068.663-3.709,1.989-4.923s3.074-1.821,5.243-1.821,3.903.607,5.235,1.821,1.998,2.854,1.998,4.923Zm-2.546,11.448c0-1.371-.436-2.489-1.307-3.355-.871-.865-2.01-1.298-3.414-1.298s-2.532.427-3.381,1.281-1.272,1.979-1.272,3.372.413,2.489,1.239,3.287c.826.799,1.975,1.197,3.447,1.197,1.461,0,2.607-.401,3.439-1.205s1.248-1.896,1.248-3.279Zm-4.688-15.63c-1.225,0-2.217.38-2.976,1.139s-1.138,1.79-1.138,3.094c0,1.247.373,2.257,1.121,3.026.747.77,1.745,1.154,2.992,1.154s2.245-.385,2.993-1.154c.747-.77,1.121-1.779,1.121-3.026s-.388-2.265-1.163-3.052c-.776-.787-1.76-1.181-2.951-1.181Z"/></g></svg>