<?xml version="1.0" encoding="UTF-8"?><svg id="a" xmlns="http://www.w3.org/2000/svg" width="570" height="321" xmlns:xlink="http://www.w3.org/1999/xlink" viewBox="0 0 570 321"><defs><style>.f,.g{fill:none;}.h{fill:#048dbd;}.i{fill:#e4f4fb;}.j{fill:#333232;}.k,.l{fill:#a8deed;}.m{fill:#b1d4e2;}.n{fill:#cae7ef;}.o{fill:#85d3e8;}.p{fill:#6ecbe0;}.q{fill:#3a4270;}.r{fill:#272626;}.s{fill:#525252;}.g{stroke:#a2bedc;stroke-miterlimit:10;stroke-width:2px;}.t{opacity:.5;}.u{clip-path:url(#b);}.l{opacity:.59;}</style><clipPath id="b"><path class="f" d="m67.9,42.425C-11.514,96.399-18.845,235.514,52.982,298.023c40.541,35.282,186.688,5.712,245.125,5.712s186.812,40.155,245.372-21.941c30.664-32.516,42.538-206.919-40.285-246.217C418.974-4.384,147.314-11.549,67.9,42.425Z"/></clipPath></defs><g class="u"><g id="c"><polygon class="q" points="271.286 -2.563 583.823 -2.563 583.823 307.402 271.286 -2.563"/><g id="d" class="t"><line class="g" x1="459.994" y1=".708" x2="458.007" y2="220.913"/><line class="g" x1="516.733" y1="1.22" x2="514.787" y2="265.514"/><line class="g" x1="315.022" y1="51.069" x2="570.506" y2="53.374"/><line class="g" x1="314.522" y1="106.468" x2="570.006" y2="108.773"/><line class="g" x1="290.016" y1="2.499" x2="290.821" y2="42.408"/><line class="g" x1="346.84" y1="-.767" x2="344.854" y2="90.286"/><line class="g" x1="403.255" y1=".197" x2="401.268" y2="136.628"/><line class="g" x1="436.482" y1="166.488" x2="569.465" y2="168.793"/><line class="g" x1="499.564" y1="228.125" x2="569.207" y2="230.43"/></g></g><polygon id="e" class="m" points="178.585 -94.661 595.285 316.18 301.812 325.39 15.938 321.127 -87.229 171.153 178.585 -94.661"/></g><path class="i" d="m295.531,149.563c-87.911-.493-157.571,27.348-155.537,60.596.397,6.489,2.504,12.613,6.506,17.769,2.402,3.095,5.377,6.008,8.654,8.106,4.987,3.192,4.063,8.764,6.752,13.151,1.767,2.883,4.051,5.451,6.507,7.761,6.215,5.846,13.757,10.219,21.431,13.85,21.528,10.185,45.497,15.267,69.004,18.21,14.35,1.797,28.813,2.682,43.273,2.76,5.22,0,10.437-.029,15.655-.19,17.908-.553,35.918-2.223,53.378-6.381,13.009-3.098,25.913-7.629,37.216-14.894,4.652-2.99,9.011-6.453,12.856-10.435,5.7-5.903,9.343-13.501,13.696-20.437,1.549-2.468,3.664-3.921,5.624-5.97,2.221-2.322,4.407-4.643,6.315-7.237,3.528-4.795,6.151-10.344,6.464-16.365,1.568-30.183-69.884-59.803-157.795-60.295Z"/><path class="n" d="m421.383,245.829c0,19.7-45.085,36.178-121.074,36.178-69.687,0-131.285-21.034-131.285-36.178,0-19.7,56.493-35.67,126.18-35.67s126.18,15.97,126.18,35.67Z"/><path class="i" d="m295.203,271.175c26.315,1.36,97.769-9.198,126.585-24.09l-1.166-6.277c-27.194,14.441-72.823,22.521-124.608,22.521-52.614,0-98.872-8.364-125.473-23.04,0,0,17.539,25.351,124.662,30.885Z"/><path class="p" d="m170.47,240.418c-11.741-6.077-25.024-16.193-24.586-30.783.214-8.576,5.722-16.039,12.045-21.363,50.345-39.457,183.205-37.739,242.373-17.259,19.901,6.546,54.038,22.224,44.008,48.325-4.581,10.234-14.357,16.861-24.024,21.771,0,0-.138-.259-.138-.259,3.778-2.159,7.45-4.508,10.822-7.225,10.345-8.033,17.691-20.289,10.928-33.103-8.119-14.52-27.127-22.331-42.258-27.512-58.081-19.87-190.812-21.814-240.422,16.796-10.606,8.611-15.733,20.988-7.862,33.373,4.656,7.286,11.902,12.575,19.257,16.982,0,0-.142.257-.142.257h0Z"/><path class="o" d="m321.198,229.652c6.858-.045,28.082.177,28.304,3.613.222,3.436-14.422.946-13.168,4.258,1.254,3.312,23.088,1.71,15.049,5.678-6.906,3.409-20.218-.849-26.604,3.894,2.64,1.636,12.6,1.982,9.256,4.721-3.344,2.74-47.598,2.532-51.493.034s2.827-2.662,3.228-4.946-17.783,1.501-19.037-5.122c-1.254-6.624-14.422-5.767-15.049-9.463s25.428-1.97,32.566-1.97"/><path class="k" d="m278.584,203.805c-1.696.84-2.806,2.532-2.9,4.422l-1.263,25.296c-.152,4.569,4.141,8.381,9.599,8.524l28.202.738c3.409.089,6.68-1.131,8.879-3.313l5.946-5.899c1.809-1.795,2.817-4.06,2.85-6.408l.335-23.525c.038-2.665-1.935-4.931-4.58-5.26l-27.306-3.397c-1.016-.126-2.047.048-2.965.503l-16.799,8.32Z"/><path class="h" d="m280.793,210.013c10.473-.456,21.196,2.188,31.522.466,4.895-1.387,9.425-4.307,13.447-7.409.685-.535,1.656-1.102,2.129-1.775,0,0,.116-.27.116-.27.725.309.085,1.382-.142,1.848-2.073,3.295-5.527,5.379-8.789,7.355-3.766,2.283-8.497,3.365-12.812,3.117-4.329-.066-8.594-.428-12.856-.835-4.258-.422-8.497-1.021-12.652-2.206,0,0,.037-.291.037-.291h0Z"/><path class="h" d="m312.03,240.832c.828-.614.673-1.71.876-2.647.713-5.422.154-10.996.031-16.47-.088-2.232-.36-4.438.298-6.761,0,0,.292-.034.292-.034,1.16,2.134,1.299,4.394,1.548,6.634.256,2.243.409,4.497.5,6.762-.106,3.071.586,11.817-3.01,12.875-.189.012-.381-.032-.535-.065,0,0,0-.294,0-.294h0Z"/><path class="s" d="m275.01,83.334c2.972-29.54-38.771-55.753-97.143-63.755-3.248-4.373-13.214-13.999-26.973-14.165-13.52-.163-23.748,8.099-27.642,12.223-59.712,3.82-106.571,26.972-109.549,56.562-3.418,33.977,52.306,63.565,124.464,66.087,72.158,2.522,133.424-22.976,136.843-56.952Z"/><path class="s" d="m251.903,53.566s21.256,14.679,33.251,16.656c11.996,1.976,90.276-14.521,100.794-14.214,10.518.307,29.629,4.504,34.193,10.408,4.564,5.904-4.482,15.692-10.422,17.197-5.939,1.505-109.907-1.685-121.113,1.712-11.206,3.398-27.448,21.644-27.448,21.644l-9.255-53.404Z"/><path class="s" d="m421.232,60.93c-4.564-5.904-20.597-10.201-31.115-10.508-10.518-.307-88.798,16.19-100.794,14.214-11.996-1.976-33.251-16.656-33.251-16.656,17.284,18.18,19.837,36.124,8.225,52.17,0,0,17.272-17.012,28.478-20.41,11.206-3.398,115.174-.207,121.113-1.712,5.939-1.505,11.908-11.194,7.344-17.098Zm-28.353,9.16c-7.564.224-13.739-2.135-13.792-5.267-.053-3.133,6.035-5.853,13.598-6.077,7.564-.224,13.739,2.135,13.792,5.267.053,3.133-6.035,5.853-13.599,6.077Z"/><path class="r" d="m257.32,102.451c-3.191,31.722-59.149,55.571-124.987,53.268-65.838-2.303-99.966-24.448-108.781-61.457-7.412-31.118,54.497-55.721,120.335-53.418,65.838,2.303,116.624,29.885,113.433,61.607Z"/><path class="s" d="m13.283,77.778s14.373,45.47,21.54,54.158c7.167,8.688,50.664,30.494,108.121,30.208,56.387-.281,83.666-15.071,91.747-20.672,8.081-5.601,33.555-42.693,33.555-42.693l-5.39-.007s-11.137,39.323-119.295,41.641c-117.85-2.86-123.826-52.737-123.826-52.737l-6.452-9.898Z"/><path class="j" d="m126.343,23.055c3.513,1.215,6.873,2.819,10.395,3.934,5.265,1.604,10.766,2.205,16.231,1.785,5.642-.394,10.504-2.614,15.981-4.235,0,0,.148.254.148.254-.718.637-1.495,1.204-2.287,1.752-9.028,5.658-20.844,5.943-30.746,2.501-3.593-1.302-7.251-2.816-9.894-5.753l.171-.238h0Z"/><path class="j" d="m392.681,58.6c3.984-.104,8.414-.752,12.082,1.526,2.386,1.25,3.813,4.099,1.868,6.433-4.735,5.212-15.491,5.47-21.916,3.862-2.747-.773-6.524-2.226-6.696-5.65.05-1.826,1.364-3.081,2.693-3.968,3.554-2.389,7.997-2.026,11.969-2.203h0Zm.009.294c-3.815.167-7.631,1.697-10.844,3.603-4.223,2.829.63,5.008,3.456,5.671,4.853,1.141,10.25.965,15.031-.442,2.805-.815,7.577-3.334,3.363-5.84-3.301-1.694-7.211-3.007-11.006-2.992h0Z"/><path class="j" d="m236.458,42.274c3.685.569,6.859,2.409,9.998,4.199,3.141,1.811,6.131,3.891,8.96,6.177,12.303,9.51,16.558,25.199,11.349,39.755-2.362,6.932-6.53,13.155-11.778,18.068l-.216-.198c4.366-5.655,8.002-11.805,10.117-18.49,4.696-13.727.624-28.429-10.999-37.268-2.708-2.246-5.593-4.283-8.56-6.195-2.972-1.933-6.146-3.424-8.991-5.78l.12-.268h0Z"/><path class="j" d="m58.702,37.869c-3.068,2.15-6.394,3.454-9.58,5.147-3.176,1.686-6.285,3.493-9.266,5.486-12.333,7.539-20.071,21.13-18.116,35.733.805,7.063,3.409,13.865,7.121,20.104l-.239.17c-4.699-5.609-7.855-12.639-8.851-20.03-2.262-15.469,5.712-29.882,18.76-37.988,3.092-2.008,6.301-3.83,9.629-5.399,3.321-1.557,6.682-3.14,10.441-3.499l.101.276h0Z"/><path class="l" d="m125.732,81.775c-6.858-.059-28.082.235-28.304,4.789-.222,4.554,14.422,1.254,13.168,5.643s-23.088,2.266-15.049,7.525c6.906,4.518,20.218-1.125,26.604,5.161-2.64,2.168-12.6,2.626-9.256,6.257,3.344,3.631,47.598,3.355,51.493.044,3.895-3.311-2.827-3.529-3.228-6.555-.401-3.026,17.783,1.99,19.037-6.789,1.254-8.779,14.422-7.644,15.049-12.541s-25.428-2.611-32.566-2.611"/><path class="k" d="m121.584,60.805c-1.696.84-2.806,2.532-2.9,4.422l-1.263,25.296c-.152,4.569,4.141,8.381,9.599,8.524l28.202.738c3.409.089,6.68-1.131,8.879-3.313l5.946-5.899c1.809-1.795,2.817-4.06,2.85-6.408l.335-23.525c.038-2.665-1.935-4.931-4.58-5.26l-27.306-3.397c-1.016-.126-2.047.048-2.965.503l-16.799,8.32Z"/><path class="h" d="m119.802,64.451c2.532.03,6.054,1.194,8.53,1.77,5.526,1.422,11.115,2.527,16.823,2.631,3.896.146,7.865-.214,11.732-.707,5.615-.401,2.641,19.455,2.4,23.188-.194,1.773-.477,3.57-.875,5.314-.055.225-.045.475.046.719.168.496.663.932,1.353,1.005l.047.29c-1.242.555-2.843-.652-2.833-2.065-.007-1.813.103-3.656.243-5.453.394-5.662.796-11.466.454-17.097-.089-1.104-.245-2.739-.756-3.571-.042-.066-.068-.074-.033-.053.027.022.138.036.167.032-9.77,1.243-19.924.639-29.222-2.744-2.737-.921-5.336-2.212-8.11-2.966,0,0,.033-.292.033-.292h0Z"/><path class="h" d="m160.751,67.941c.533-1.301,1.442-1.584,2.241-2.169.798-.562,1.576-1.136,2.34-1.729.765-.59,1.529-1.186,2.271-1.82.75-.641,1.32-1.393,2.656-1.629l.233.179c.093,1.379-.683,2.161-1.371,2.964-.698.808-1.466,1.561-2.314,2.216-.847.655-1.764,1.218-2.723,1.688-.96.443-1.877,1.074-3.218.571l-.115-.27Z"/></svg>