<?xml version="1.0" encoding="UTF-8"?><svg id="g" xmlns="http://www.w3.org/2000/svg" width="1140" height="439" xmlns:xlink="http://www.w3.org/1999/xlink" viewBox="0 0 1140 439"><defs><linearGradient id="i" x1="220.98" y1="925.2" x2="540.42" y2="925.2" gradientTransform="translate(197.57 -652.8)" gradientUnits="userSpaceOnUse"><stop offset="0" stop-color="#545f73"/><stop offset="1" stop-color="#2e4061"/></linearGradient></defs><path d="m946.32,33.1c92.69,25.47,177.5,101.96,177.04,194.29-.42,85.1-73.52,157.85-157.23,186.56-83.71,28.71-175.79,22.04-263.8,10.11-68.85-9.33-138.31-15.65-207.92-15.38-116.57.45-242.32,59.59-355.43,10.63C34.12,373.93-4.46,244.71,51.57,150.15,104.15,61.4,212.13,13.24,318.19,3.37c62.66-5.83,125.82,4.03,187.22,15.25,71.06,12.98,143.03,18.55,215.17,11.79,75.25-7.05,151.64-17.68,225.74,2.69Z" fill="#d3e9ca"/><circle cx="410" cy="222.5" r="56" fill="#fcf1e8" stroke="#f06c00" stroke-miterlimit="10" stroke-width="2"/><circle cx="686.5" cy="156" r="38.5" fill="#e8f5f9" stroke="#0077a2" stroke-miterlimit="10" stroke-width="2.05"/><circle cx="762.5" cy="175" r="16.5" fill="#e6f1e7" stroke="#0c7913" stroke-miterlimit="10" stroke-width="2"/><path d="m404.53,87.84h-9.24v7.56h10.74v2.3h-13.55v-21.33h13.4v2.3h-10.59v6.87h9.24v2.3Z"/><path d="m411.67,81.85l.09,1.99c1.21-1.52,2.79-2.29,4.75-2.29,3.35,0,5.04,1.89,5.07,5.67v10.47h-2.71v-10.49c0-1.14-.27-1.99-.78-2.53-.51-.55-1.31-.82-2.4-.82-.88,0-1.65.23-2.31.7s-1.18,1.08-1.55,1.85v11.29h-2.71v-15.85h2.56Z"/><path d="m432.23,97.99c-2.15,0-3.9-.71-5.24-2.12-1.35-1.41-2.02-3.3-2.02-5.66v-.5c0-1.57.3-2.98.9-4.21.6-1.23,1.44-2.2,2.52-2.9,1.08-.7,2.25-1.05,3.51-1.05,2.06,0,3.66.68,4.8,2.04s1.71,3.3,1.71,5.83v1.13h-10.74c.04,1.56.5,2.83,1.37,3.79s1.99,1.44,3.33,1.44c.96,0,1.77-.2,2.43-.59s1.25-.91,1.74-1.55l1.66,1.29c-1.33,2.04-3.32,3.06-5.98,3.06Zm-.34-14.21c-1.09,0-2.01.4-2.75,1.19-.74.8-1.2,1.91-1.38,3.35h7.94v-.21c-.08-1.38-.45-2.44-1.11-3.2-.66-.76-1.56-1.13-2.7-1.13Z"/><path d="m449.21,84.28c-.41-.07-.85-.1-1.33-.1-1.78,0-2.98.76-3.62,2.27v11.25h-2.71v-15.85h2.64l.04,1.83c.89-1.42,2.15-2.12,3.78-2.12.53,0,.93.07,1.2.21v2.52Z"/><path d="m450.78,89.64c0-2.47.57-4.44,1.71-5.9,1.14-1.46,2.66-2.19,4.54-2.19s3.44.68,4.53,2.05l.13-1.76h2.48v15.47c0,2.05-.61,3.67-1.82,4.85-1.21,1.18-2.85,1.77-4.9,1.77-1.14,0-2.26-.24-3.35-.73s-1.93-1.16-2.5-2.01l1.41-1.63c1.16,1.44,2.58,2.15,4.26,2.15,1.32,0,2.35-.37,3.08-1.11.74-.74,1.11-1.79,1.11-3.13v-1.36c-1.08,1.25-2.56,1.88-4.44,1.88s-3.36-.75-4.5-2.24-1.72-3.53-1.72-6.11Zm2.72.31c0,1.79.37,3.19,1.1,4.21s1.76,1.53,3.08,1.53c1.71,0,2.96-.78,3.76-2.33v-7.24c-.83-1.51-2.08-2.27-3.74-2.27-1.32,0-2.35.51-3.09,1.54s-1.11,2.54-1.11,4.56Z"/><path d="m473.44,93.73l3.69-11.88h2.9l-6.37,18.3c-.99,2.64-2.55,3.96-4.7,3.96l-.51-.04-1.01-.19v-2.2l.73.06c.92,0,1.63-.19,2.15-.56.51-.37.93-1.05,1.27-2.04l.6-1.61-5.65-15.67h2.96l3.96,11.88Z"/><path d="m691.76,290.19c-2.41-.69-4.17-1.55-5.27-2.56-1.1-1.01-1.65-2.26-1.65-3.74,0-1.68.67-3.07,2.01-4.17,1.34-1.1,3.09-1.65,5.24-1.65,1.46,0,2.77.28,3.92.85,1.15.57,2.04,1.35,2.67,2.34.63,1,.94,2.08.94,3.27h-2.83c0-1.29-.41-2.31-1.23-3.05-.82-.74-1.98-1.11-3.47-1.11-1.39,0-2.47.31-3.25.92-.78.61-1.16,1.46-1.16,2.55,0,.87.37,1.61,1.11,2.21s1.99,1.15,3.77,1.65c1.77.5,3.16,1.05,4.16,1.65,1,.6,1.74,1.3,2.23,2.1.48.8.72,1.74.72,2.83,0,1.73-.67,3.11-2.02,4.15-1.35,1.04-3.15,1.56-5.41,1.56-1.46,0-2.83-.28-4.1-.84-1.27-.56-2.25-1.33-2.94-2.31-.69-.98-1.03-2.08-1.03-3.33h2.83c0,1.29.48,2.31,1.43,3.05.95.75,2.22,1.12,3.82,1.12,1.48,0,2.62-.3,3.41-.91s1.19-1.43,1.19-2.48-.37-1.85-1.1-2.42c-.73-.57-2.06-1.14-3.98-1.69Z"/><path d="m709.21,297.78c.97,0,1.81-.29,2.53-.88s1.12-1.32,1.2-2.2h2.56c-.05.91-.36,1.77-.94,2.59s-1.35,1.47-2.31,1.96c-.96.49-1.98.73-3.05.73-2.16,0-3.88-.72-5.15-2.16-1.28-1.44-1.91-3.41-1.91-5.91v-.45c0-1.54.28-2.92.85-4.12s1.38-2.13,2.44-2.8c1.06-.66,2.31-1,3.76-1,1.78,0,3.25.53,4.43,1.6s1.8,2.45,1.88,4.15h-2.56c-.08-1.03-.47-1.87-1.17-2.53-.7-.66-1.56-.99-2.58-.99-1.38,0-2.44.5-3.2,1.49-.76.99-1.14,2.42-1.14,4.3v.51c0,1.83.38,3.23,1.13,4.22s1.83,1.48,3.22,1.48Z"/><path d="m728.34,299.7c-.16-.31-.28-.87-.38-1.67-1.26,1.31-2.76,1.96-4.51,1.96-1.56,0-2.84-.44-3.85-1.33-1-.88-1.5-2-1.5-3.36,0-1.65.63-2.93,1.88-3.85,1.25-.91,3.02-1.37,5.3-1.37h2.64v-1.25c0-.95-.28-1.7-.85-2.26s-1.4-.84-2.5-.84c-.97,0-1.78.24-2.43.73s-.98,1.08-.98,1.77h-2.72c0-.79.28-1.55.84-2.29.56-.74,1.32-1.32,2.29-1.75.96-.43,2.02-.64,3.17-.64,1.83,0,3.26.46,4.29,1.37,1.04.91,1.57,2.17,1.61,3.77v7.29c0,1.46.19,2.61.56,3.47v.23h-2.84Zm-4.5-2.07c.85,0,1.66-.22,2.42-.66s1.31-1.01,1.66-1.71v-3.25h-2.12c-3.32,0-4.98.97-4.98,2.92,0,.85.28,1.51.85,1.99s1.29.72,2.18.72Z"/><path d="m737.81,299.7h-2.71v-22.5h2.71v22.5Z"/><path d="m748.73,299.99c-2.15,0-3.9-.71-5.24-2.12-1.35-1.41-2.02-3.3-2.02-5.66v-.5c0-1.57.3-2.98.9-4.21.6-1.23,1.44-2.2,2.52-2.9,1.08-.7,2.25-1.05,3.51-1.05,2.06,0,3.66.68,4.8,2.04s1.71,3.3,1.71,5.83v1.13h-10.74c.04,1.56.5,2.83,1.37,3.79s1.99,1.44,3.33,1.44c.96,0,1.77-.2,2.43-.59s1.25-.91,1.74-1.55l1.66,1.29c-1.33,2.04-3.32,3.06-5.98,3.06Zm-.34-14.21c-1.09,0-2.01.4-2.75,1.19-.74.8-1.2,1.91-1.38,3.35h7.94v-.21c-.08-1.38-.45-2.44-1.11-3.2-.66-.76-1.56-1.13-2.7-1.13Z"/><path d="m828.27,152.97h-5.86v-12.19h-11.43v12.19h-5.86v-28.44h5.86v11.52h11.43v-11.52h5.86v28.44Z"/><path d="m842.74,153.36c-3.1,0-5.62-.95-7.57-2.85-1.95-1.9-2.92-4.43-2.92-7.6v-.55c0-2.12.41-4.02,1.23-5.69s1.98-2.96,3.49-3.87,3.22-1.36,5.15-1.36c2.89,0,5.17.91,6.83,2.73s2.49,4.41,2.49,7.75v2.3h-13.46c.18,1.38.73,2.49,1.65,3.32.92.83,2.08,1.25,3.49,1.25,2.17,0,3.87-.79,5.1-2.36l2.77,3.11c-.85,1.2-1.99,2.13-3.44,2.8-1.45.67-3.05,1.01-4.8,1.01Zm-.64-17.36c-1.12,0-2.03.38-2.72,1.14-.7.76-1.14,1.84-1.34,3.26h7.85v-.45c-.03-1.26-.36-2.23-1.02-2.91-.65-.69-1.58-1.03-2.77-1.03Z"/><path d="m795.32,126.07h1.97v1.47h-1.97v3.3h-1.82v-3.3h-6.47v-1.06l6.37-9.85h1.92v9.44Zm-6.24,0h4.42v-6.97l-.21.39-4.21,6.58Z"/><path d="m797.01,160.39h-9.32v-1.3l4.92-5.47c.73-.83,1.23-1.5,1.51-2.02s.42-1.05.42-1.61c0-.74-.22-1.35-.67-1.83s-1.05-.71-1.8-.71c-.9,0-1.6.26-2.09.77s-.75,1.22-.75,2.13h-1.81c0-1.31.42-2.37,1.26-3.17s1.97-1.21,3.38-1.21c1.32,0,2.37.35,3.13,1.04s1.15,1.62,1.15,2.77c0,1.4-.89,3.07-2.68,5l-3.81,4.13h7.14v1.47Z"/><path d="m701.91,79.28h-8.71v23.69h-5.86v-23.69h-8.59v-4.75h23.16v4.75Z"/><path d="m710.38,84.14c1.5-1.8,3.38-2.7,5.64-2.7,4.58,0,6.91,2.66,6.97,7.99v13.54h-5.64v-13.38c0-1.21-.26-2.11-.78-2.69-.52-.58-1.39-.87-2.6-.87-1.65,0-2.85.64-3.59,1.91v15.02h-5.64v-30h5.64v11.17Z"/><path d="m648.55,80.84h-9.32v-1.3l4.92-5.47c.73-.83,1.23-1.5,1.51-2.02s.42-1.05.42-1.61c0-.74-.22-1.35-.67-1.83s-1.05-.71-1.8-.71c-.9,0-1.6.26-2.09.77s-.75,1.22-.75,2.13h-1.81c0-1.31.42-2.37,1.26-3.17s1.97-1.21,3.38-1.21c1.32,0,2.37.35,3.13,1.04s1.15,1.62,1.15,2.77c0,1.4-.89,3.07-2.68,5l-3.81,4.13h7.14v1.47Z"/><path d="m653.09,72.85h1.36c.85-.01,1.52-.24,2.01-.67s.73-1.03.73-1.77c0-1.67-.83-2.5-2.49-2.5-.78,0-1.4.22-1.87.67s-.7,1.04-.7,1.77h-1.81c0-1.13.41-2.06,1.24-2.81s1.87-1.12,3.14-1.12c1.34,0,2.39.35,3.15,1.06s1.14,1.7,1.14,2.96c0,.62-.2,1.22-.6,1.8s-.95,1.01-1.64,1.3c.78.25,1.38.66,1.81,1.23s.64,1.27.64,2.1c0,1.28-.42,2.29-1.25,3.04s-1.92,1.12-3.25,1.12-2.42-.36-3.26-1.08-1.25-1.68-1.25-2.86h1.82c0,.75.24,1.35.73,1.8s1.14.67,1.96.67c.87,0,1.54-.23,2-.68s.69-1.11.69-1.96-.25-1.46-.76-1.9-1.24-.67-2.2-.68h-1.36v-1.47Z"/><path d="m669.32,76.07h1.97v1.47h-1.97v3.3h-1.82v-3.3h-6.47v-1.06l6.37-9.85h1.92v9.44Zm-6.24,0h4.42v-6.97l-.21.39-4.21,6.58Z"/><path d="m657.39,104.14c-.38.45-.83.81-1.35,1.08s-1.1.41-1.72.41c-.82,0-1.54-.2-2.14-.61s-1.08-.97-1.41-1.7-.5-1.54-.5-2.43c0-.95.18-1.81.54-2.57s.87-1.34,1.54-1.75,1.44-.61,2.32-.61c1.41,0,2.51.53,3.33,1.58s1.22,2.49,1.22,4.3v.53c0,2.77-.55,4.79-1.64,6.06s-2.74,1.93-4.95,1.96h-.35v-1.53h.38c1.49-.03,2.64-.41,3.44-1.16.8-.75,1.24-1.94,1.31-3.56Zm-2.78,0c.61,0,1.16-.19,1.67-.56s.88-.83,1.12-1.38v-.72c0-1.18-.26-2.15-.77-2.89s-1.17-1.11-1.95-1.11-1.43.3-1.91.91-.72,1.41-.72,2.41.23,1.77.7,2.4,1.09.94,1.87.94Z"/><path d="m670.61,104.33c0,2.12-.36,3.69-1.08,4.72s-1.85,1.54-3.39,1.54-2.64-.5-3.37-1.51-1.11-2.51-1.13-4.51v-2.41c0-2.09.36-3.64,1.08-4.66s1.86-1.52,3.4-1.52,2.66.49,3.38,1.47,1.09,2.49,1.11,4.54v2.34Zm-1.81-2.47c0-1.53-.21-2.64-.64-3.34s-1.11-1.05-2.04-1.05-1.6.35-2.02,1.04-.64,1.77-.65,3.21v2.89c0,1.54.22,2.67.67,3.4s1.12,1.1,2.03,1.1,1.55-.34,1.99-1.04.66-1.78.68-3.26v-2.96Z"/><path d="m439.43,210.53v18.73c0,3.11-.97,5.57-2.92,7.38-1.95,1.81-4.61,2.71-7.98,2.71s-5.96-.88-7.91-2.64-2.95-4.17-2.99-7.25v-18.95h5.86v18.77c0,1.86.45,3.22,1.34,4.07.89.85,2.13,1.28,3.7,1.28,3.29,0,4.97-1.73,5.02-5.2v-18.93h5.88Z"/><path d="m385.55,216.84h-9.32v-1.3l4.92-5.47c.73-.83,1.23-1.5,1.51-2.02s.42-1.05.42-1.61c0-.74-.22-1.35-.67-1.83s-1.05-.71-1.8-.71c-.9,0-1.6.26-2.09.77s-.75,1.22-.75,2.13h-1.81c0-1.31.42-2.37,1.26-3.17s1.97-1.21,3.38-1.21c1.32,0,2.37.35,3.13,1.04s1.15,1.62,1.15,2.77c0,1.4-.89,3.07-2.68,5l-3.81,4.13h7.14v1.47Z"/><path d="m390.09,208.85h1.36c.85-.01,1.52-.24,2.01-.67s.73-1.03.73-1.77c0-1.67-.83-2.5-2.49-2.5-.78,0-1.4.22-1.87.67s-.7,1.04-.7,1.77h-1.81c0-1.13.41-2.06,1.24-2.81s1.87-1.12,3.14-1.12c1.34,0,2.39.35,3.15,1.06s1.14,1.7,1.14,2.96c0,.62-.2,1.22-.6,1.8s-.95,1.01-1.64,1.3c.78.25,1.38.66,1.81,1.23s.64,1.27.64,2.1c0,1.28-.42,2.29-1.25,3.04s-1.92,1.12-3.25,1.12-2.42-.36-3.26-1.08-1.25-1.68-1.25-2.86h1.82c0,.75.24,1.35.73,1.8s1.14.67,1.96.67c.87,0,1.54-.23,2-.68s.69-1.11.69-1.96-.25-1.46-.76-1.9-1.24-.67-2.2-.68h-1.36v-1.47Z"/><path d="m407.32,206.33c0,.71-.19,1.34-.56,1.89s-.88.99-1.52,1.3c.74.32,1.33.78,1.76,1.4s.65,1.31.65,2.08c0,1.23-.42,2.21-1.25,2.94s-1.92,1.09-3.28,1.09-2.46-.37-3.29-1.1-1.24-1.71-1.24-2.93c0-.77.21-1.46.63-2.08s1-1.09,1.74-1.41c-.63-.31-1.13-.75-1.49-1.3s-.55-1.18-.55-1.88c0-1.2.38-2.15,1.15-2.85s1.78-1.05,3.04-1.05,2.26.35,3.03,1.05,1.16,1.65,1.16,2.85Zm-1.47,6.63c0-.79-.25-1.44-.76-1.94s-1.16-.75-1.98-.75-1.47.25-1.96.74-.74,1.15-.74,1.95.24,1.44.72,1.9,1.14.69,2,.69,1.51-.23,1.99-.7.72-1.1.72-1.9Zm-2.71-9.05c-.71,0-1.28.22-1.72.66s-.66,1.04-.66,1.79.22,1.31.65,1.75,1.01.67,1.73.67,1.3-.22,1.73-.67.65-1.03.65-1.75-.22-1.31-.67-1.77-1.02-.68-1.71-.68Z"/><path d="m394.39,240.14c-.38.45-.83.81-1.35,1.08s-1.1.41-1.72.41c-.82,0-1.54-.2-2.14-.61s-1.08-.97-1.41-1.7-.5-1.54-.5-2.43c0-.95.18-1.81.54-2.57s.87-1.34,1.54-1.75,1.44-.61,2.32-.61c1.41,0,2.51.53,3.33,1.58s1.22,2.49,1.22,4.3v.53c0,2.77-.55,4.79-1.64,6.06s-2.74,1.93-4.95,1.96h-.35v-1.53h.38c1.49-.03,2.64-.41,3.44-1.16.8-.75,1.24-1.94,1.31-3.56Zm-2.78,0c.61,0,1.16-.19,1.67-.56s.88-.83,1.12-1.38v-.72c0-1.18-.26-2.15-.77-2.89s-1.17-1.11-1.95-1.11-1.43.3-1.91.91-.72,1.41-.72,2.41.23,1.77.7,2.4,1.09.94,1.87.94Z"/><path d="m408.01,246.39h-9.32v-1.3l4.92-5.47c.73-.83,1.23-1.5,1.51-2.02s.42-1.05.42-1.61c0-.74-.22-1.35-.67-1.83s-1.05-.71-1.8-.71c-.9,0-1.6.26-2.09.77s-.75,1.22-.75,2.13h-1.81c0-1.31.42-2.37,1.26-3.17s1.97-1.21,3.38-1.21c1.32,0,2.37.35,3.13,1.04s1.15,1.62,1.15,2.77c0,1.4-.89,3.07-2.68,5l-3.81,4.13h7.14v1.47Z"/><g id="h"><rect x="714.1" y="331.98" width="19.23" height="26.62" fill="#272a30"/><rect x="424.46" y="331.98" width="19.23" height="26.62" fill="#272a30"/><path d="m747.49,373.93h-327.91c-1.74,0-3.16-1.42-3.16-3.16v-20.21c0-1.73,1.42-3.14,3.17-3.14l143.93-10.46h40.03l143.93,10.46c1.74,0,3.17,1.41,3.17,3.14v20.21c0,1.74-1.42,3.16-3.16,3.16Z" fill="#fdcd54"/><path d="m747.49,373.93h-327.91c-1.74,0-3.16-1.42-3.16-3.16v-20.21c0-1.73,1.42-3.14,3.17-3.14l143.93-10.46h40.03l143.93,10.46c1.74,0,3.17,1.41,3.17,3.14v20.21c0,1.74-1.42,3.16-3.16,3.16Z" fill="#eeb62b"/><rect x="418.55" y="260.57" width="319.44" height="23.66" rx="9.94" ry="9.94" transform="translate(-53.38 174.31) rotate(-16.4)" fill="url(#i)"/><rect x="569.16" y="258.96" width="28.1" height="102.89" rx="11.82" ry="11.82" fill="#9099a9"/><polygon points="605.03 375.41 560.66 375.41 564.36 328.08 601.32 328.08 605.03 375.41" fill="#fff9de"/><polygon points="585.36 327.52 592.5 359.58 576.82 330.72 585.36 327.52"/><polygon points="605.03 375.41 560.66 375.41 564.36 328.08 601.32 328.08 605.03 375.41" fill="none" stroke="#f39516" stroke-linejoin="round" stroke-width="3.65"/><rect x="412.15" y="279.82" width="19.23" height="23.66" fill="#272a30"/><circle cx="425.71" cy="313.36" r="16.16" fill="#9099a9"/><polygon points="539.91 285.8 311.5 285.8 293.37 273.97 558.04 273.97 539.91 285.8" fill="#9099a9"/><rect x="713.41" y="194.82" width="19.23" height="23.66" fill="#272a30"/><circle cx="725.98" cy="228.36" r="16.16" fill="#9099a9"/><polygon points="842.18 200.8 613.77 200.8 595.64 188.97 860.31 188.97 842.18 200.8" fill="#9099a9"/><line x1="582.53" y1="363.01" x2="582.53" y2="373.36" fill="none" stroke="#000" stroke-miterlimit="10" stroke-width="2"/><line x1="574.86" y1="361.96" x2="573.42" y2="368.73" fill="none" stroke="#000" stroke-miterlimit="10" stroke-width="2"/><line x1="568.19" y1="359.79" x2="565.37" y2="366.12" fill="none" stroke="#000" stroke-miterlimit="10" stroke-width="2"/><line x1="595.49" y1="359.79" x2="598.31" y2="366.12" fill="none" stroke="#000" stroke-miterlimit="10" stroke-width="2"/><line x1="588.82" y1="361.96" x2="590.26" y2="368.73" fill="none" stroke="#000" stroke-miterlimit="10" stroke-width="2"/></g><path d="m506.43,99.06c7.71,7.32,3.91,12.54,10.29,17.63,8.14,6.5,13.04.36,21.18,6.85,8.14,6.5,3.24,12.64,11.38,19.13,8.14,6.5,13.04.36,21.18,6.85,8.14,6.5,3.24,12.64,11.38,19.13,2.04,1.62,3.87,2.46,5.6,2.9" fill="none" stroke="#d12d32" stroke-miterlimit="10" stroke-width="2"/><polygon points="503.41 107.11 497 92.5 512.86 94.26 503.41 107.11" fill="#d12d32"/></svg>