<?xml version="1.0" encoding="UTF-8"?><svg xmlns="http://www.w3.org/2000/svg" width="1140" height="640" xmlns:xlink="http://www.w3.org/1999/xlink" viewBox="0 0 1140 640"><defs><clipPath id="b"><path d="m1.04,259.86C4.29,108.41,46.5,8.88,262.97,7.61c560.41-3.28,849.75-9.83,874.11,291.56,12.83,158.64-.8,372.62-303.05,334.15-257.36-32.76-463.55,4.1-621.32,3.28C-4.75,635.45-.57,334.47,1.04,259.86Z" fill="#efd081" stroke-width="0"/></clipPath><clipPath id="d"><path d="m795.84,300.27c0,10.92-83.34,19.78-186.15,19.78s-186.15-8.86-186.15-19.78c0,0,84.65-35.27,187.46-35.27s184.84,35.27,184.84,35.27Z" fill="none" stroke-width="0"/></clipPath></defs><g isolation="isolate"><g id="a"><path d="m1.04,259.86C4.29,108.41,46.5,8.88,262.97,7.61c560.41-3.28,849.75-9.83,874.11,291.56,12.83,158.64-.8,372.62-303.05,334.15-257.36-32.76-463.55,4.1-621.32,3.28C-4.75,635.45-.57,334.47,1.04,259.86Z" fill="#efd081"/><g clip-path="url(#b)"><path d="m-126.52,362.27l-134.95,221.04,1250.83-1.68-116.49-217.4c-4.18-7.79-12.3-12.66-21.14-12.67l-957.74-.79c-8.37,0-16.15,4.35-20.51,11.5Z" fill="#3d3d3d" stroke-width="0"/><path d="m596.85,272.65s46.82-16.06,5.18-47.3c-59.55-44.67-80.27-15.77-170.89-63.06-90.62-47.3-111.34-149.78-18.12-186.57,93.21-36.79,289.8,48.44,315.89-47.3,33.66-123.5-46.61-136.64-230.44-160.29-172.12-22.14-334.01-57.81-271.87-110.36,62.14-52.55,119.11-26.28,75.09,7.88-44.02,34.16-15.54,63.06,170.89,78.83,186.43,15.77,203.89-2.16,331.42,91.97,113.93,84.09,23.3,199.7-108.75,210.21-173.12,13.78-168.3,0-243.39-10.51-78.31-10.96-51.79,81.46,44.02,105.11,95.8,23.65,145,31.53,155.36,84.09,10.36,52.55-69.99,66.09-84.19,61.95-14.2-4.14,29.82-14.65,29.82-14.65Z" fill="#e9fbff" mix-blend-mode="overlay" opacity=".37" stroke-width="0"/><ellipse cx="611.83" cy="498.82" rx="207.42" ry="40.4" fill="#ff251a" stroke-width="0"/><ellipse cx="611.83" cy="498.82" rx="179.28" ry="30.3" fill="none" stroke="#c60d09" stroke-miterlimit="10" stroke-width="3"/><ellipse cx="611.83" cy="498.82" rx="151.87" ry="15.87" fill="none" stroke="#c60d09" stroke-miterlimit="10" stroke-width="2"/><g id="c"><path d="m801.44,371.25s10.87,2.72,11.78-1.81c.91-4.53,1.81-47.14,1.81-47.14l-11.78.91-1.81,48.05Z" fill="#666" stroke-width="0"/><path d="m810.7,351.82s6.96,2.71,6.16,9.01c-.8,6.3-6.53,8.31-6.53,8.31l.37-17.32Z" fill="#666" stroke-width="0"/><path d="m417.82,371.25s-10.87,2.72-11.78-1.81c-.91-4.53-1.81-47.14-1.81-47.14l11.78.91,1.81,48.05Z" fill="#666" stroke-width="0"/><path d="m408.56,351.82s-6.96,2.71-6.16,9.01c.8,6.3,6.53,8.31,6.53,8.31l-.37-17.32Z" fill="#666" stroke-width="0"/><path d="m761.81,476.07l-.77,13.6s-61.2,19.94-167.54,17.23c-106.34-2.72-125.47-15.41-125.47-15.41l-1.53-9.07,295.31-6.35Z" fill="#3d3d3d" stroke-width="0"/><path d="m812.31,307.26h-403.56l5.14,120.44c1.14,36.93,28.4,53.7,64.88,59.31,34.07,5.24,79.81,10.14,131.8,10.14s97.72-5.11,131.58-10.58c36.12-5.83,63.05-22.32,64.33-58.91l5.82-120.4Z" fill="#bcc1bf" stroke-width="0"/><ellipse cx="615.41" cy="305.53" rx="209.08" ry="25.31" fill="#bcc1bf" stroke-width="0"/><g clip-path="url(#d)"><ellipse cx="605.77" cy="317.67" rx="197.27" ry="21.94" fill="#898989" stroke-width="0"/><ellipse cx="605.77" cy="331.17" rx="197.27" ry="21.94" fill="#898989" stroke-width="0"/><path d="m451.65,309.96s1.94-9.87,19.07-11.12c17.13-1.25,20.44,8.96,20.44,8.96,0,0,1.44-22.59,15.64-19.26,14.2,3.33,16.38,19.26,16.38,19.26,0,0,11.13-12.59,22.3-8.06,11.17,4.53,17.05,11.71,17.05,11.71,0,0,3.23-18.62,13.18-18.62s15.02,18.62,15.02,18.62c0,0,11.45-12.97,21.84-7.69,10.39,5.28,16.33-8.43,25.38-4.91,9.04,3.52,12.29,12.61,12.29,12.61,0,0,2.55-23.39,13.33-17.67s17.32,3.88,17.36,17.67c0,0,5.92-13.26,19.97-12.61,14.05.66,15.74,12.61,15.74,12.61,0,0-2.41-27.17,17.84-20.04,20.25,7.14,17.24,19.59,17.24,19.59l-35.08,3.24-156.64,29.76-89-7-19.35-27.04Z" fill="#e1eaef" stroke-width="0"/><path d="m508.55,310.78s1.68-8.59,16.6-9.68c14.91-1.09,17.79,7.8,17.79,7.8,0,0,1.26-19.66,13.62-16.76,12.36,2.9,14.25,16.76,14.25,16.76,0,0,9.69-10.96,19.41-7.02,9.72,3.94,14.84,10.19,14.84,10.19,0,0,2.81-16.21,11.47-16.21s13.07,16.21,13.07,16.21c0,0,9.97-11.29,19.01-6.7,9.04,4.59,14.22-7.34,22.09-4.28,7.87,3.06,10.7,10.97,10.7,10.97,0,0,2.22-20.36,11.6-15.38,9.38,4.98,15.07,3.38,15.11,15.38,0,0,5.15-11.54,17.39-10.97,12.23.57,13.7,10.97,13.7,10.97,0,0-2.1-23.65,15.53-17.44,17.63,6.21,15,17.05,15,17.05l-23.74,32.32-121-2-118,3,1.55-34.22Z" fill="#e1eaef" stroke-width="0"/></g><path d="m409.51,313.55c7.51,3.87,15.99,5.41,24.2,7.15,8.3,1.58,16.67,2.86,25.05,3.98,84.03,10.11,169.22,10.76,253.59,4.6,25.29-2.13,50.58-4.84,75.49-9.78,8.21-1.82,16.63-3.48,24.17-7.31,0,0,.15.25.15.25-7.39,4.28-15.83,6.28-24.04,8.32-24.83,5.7-50.26,8.39-75.6,10.61-76.09,6.14-152.75,5.48-228.74-1.78-16.88-1.76-33.76-3.89-50.35-7.57-4.14-.94-8.28-1.95-12.34-3.23-4.04-1.31-8.11-2.7-11.74-4.98l.15-.25h0Z" fill="#666" stroke-width="0"/><path d="m813.52,325.65s44.17,5.14,46.02-3.36c2.64-12.12-46.13-5.3-46.13-5.3" fill="none" stroke="#666" stroke-linecap="round" stroke-miterlimit="10" stroke-width="4"/><path d="m406.53,325.65s-44.17,5.14-46.02-3.36c-2.64-12.12,47.49-5.29,47.49-5.29" fill="none" stroke="#666" stroke-linecap="round" stroke-miterlimit="10" stroke-width="4"/></g><ellipse cx="106.55" cy="498.82" rx="207.42" ry="40.4" fill="#3d3d3d" stroke="#676867" stroke-miterlimit="10" stroke-width="2"/><ellipse cx="106.55" cy="399.89" rx="160.23" ry="31.21" fill="#3d3d3d" stroke="#676867" stroke-miterlimit="10" stroke-width="2"/><path d="m-261.46,583.31v94.55c0,14.7,11.91,26.61,26.61,26.61H962.75c14.7,0,26.61-11.91,26.61-26.61v-96.22l-1250.83,1.68Z" fill="#3d3d3d" stroke-width="0"/><circle cx="475.67" cy="644.01" r="42.01" fill="#6b7981" stroke-width="0"/><circle cx="474.28" cy="640.55" r="26.97" fill="#7e8b91" stroke-width="0"/><circle cx="223.82" cy="640.55" r="26.97" fill="#7e8b91" stroke-width="0"/><circle cx="713.86" cy="644.01" r="42.01" fill="#7e8b91" stroke-width="0"/><rect x="739.38" y="629.7" width="33.19" height="13.83" rx="1.96" ry="1.96" transform="translate(1641.67 1075.18) rotate(166.24)" fill="#7e8b91" stroke-width="0"/><circle cx="712.47" cy="640.55" r="26.97" fill="#7e8b91" stroke-width="0"/><rect x="817.17" y="607.59" width="55.75" height="27.87" fill="none" stroke="#6b7981" stroke-miterlimit="10" stroke-width="2"/><path d="m739.15,640.5c.21,15.23-11.22,27.54-26.65,27.56-14.86.32-27.94-12.67-27.7-27.56-.21-14.89,12.83-27.87,27.7-27.55,15.34-.05,26.84,12.46,26.65,27.55h0Zm-.29,0c.08-13.81-12.77-25.62-26.35-25.45-13.67-.19-25.59,11.79-25.3,25.45-.27,13.65,11.62,25.63,25.3,25.44,13.57.19,26.37-11.68,26.35-25.44h0Z" fill="#404e54" stroke-width="0"/><circle cx="475.86" cy="644.01" r="42.01" fill="#7e8b91" stroke-width="0"/><circle cx="474.47" cy="640.55" r="26.97" fill="#7e8b91" stroke-width="0"/><path d="m501.15,640.5c.21,15.23-11.22,27.54-26.65,27.56-14.86.32-27.94-12.67-27.7-27.56-.21-14.89,12.83-27.87,27.7-27.55,15.34-.05,26.84,12.46,26.65,27.55h0Zm-.29,0c.08-13.81-12.77-25.62-26.35-25.45-13.67-.19-25.59,11.79-25.3,25.45-.27,13.65,11.62,25.63,25.3,25.44,13.57.19,26.37-11.68,26.35-25.44h0Z" fill="#404e54" stroke-width="0"/><circle cx="225.84" cy="644.48" r="42.01" fill="#7e8b91" stroke-width="0"/><circle cx="224.7" cy="640.94" r="26.97" fill="#7e8b91" stroke-width="0"/><path d="m251.31,642.73c-.85,15.21-13.09,26.7-28.49,25.65-14.85-.71-27-14.57-25.73-29.41.82-14.86,14.73-26.92,29.54-25.57,15.3,1.01,25.92,14.28,24.68,29.33h0Zm-.29-.02c1.03-13.77-10.96-26.45-24.53-27.21-13.63-1.13-26.34,10-26.99,23.64-1.22,13.6,9.82,26.37,23.48,27.13,13.52,1.12,27.11-9.83,28.05-23.56h0Z" fill="#404e54" stroke-width="0"/><circle cx="-23.18" cy="643.87" r="42.01" fill="#7e8b91" stroke-width="0"/><circle cx="-24.61" cy="640.43" r="26.97" fill="#7e8b91" stroke-width="0"/><path d="m2.06,640.07c.38,15.23-10.9,27.67-26.33,27.86-14.86.49-28.08-12.35-28.02-27.24-.38-14.88,12.51-28.02,27.39-27.87,15.33-.23,26.98,12.15,26.96,27.24h0Zm-.29,0c-.08-13.81-13.06-25.48-26.64-25.14-13.67-.03-25.45,12.09-25,25.74-.12,13.65,11.91,25.5,25.59,25.15,13.57.03,26.23-11.99,26.06-25.74h0Z" fill="#404e54" stroke-width="0"/><path d="m989.36,581.78c-370.83,1.65-778.65,1.58-1149.48,0,0,0,0-.3,0-.3,370.63-1.28,779.41-2.21,1149.48.29h0Z" fill="#6b7981" stroke-width="0"/><path d="m574.38,300.87c3.48,2.04,4.74,5.43,2.53,9.03-5.38,7.86-16.93.24-11.82-7.79,2.34-3.42,6.11-3.54,9.29-1.24h0Zm-.16.25c-1.89-1.27-4.32-.34-6.01.76-2.78,1.87-2.71,6.39.15,8.13,2.72,1.94,6.89.22,7.52-3.06.29-1.97.22-4.58-1.66-5.83h0Z" fill="#a5c3c9" stroke-width="0"/><path d="m533.38,301.87c3.48,2.04,4.74,5.43,2.53,9.03-5.38,7.86-16.93.24-11.82-7.79,2.34-3.42,6.11-3.54,9.29-1.24h0Zm-.16.25c-1.89-1.27-4.32-.34-6.01.76-2.78,1.87-2.71,6.39.15,8.13,2.72,1.94,6.89.22,7.52-3.06.29-1.97.22-4.58-1.66-5.83h0Z" fill="#a5c3c9" stroke-width="0"/><path d="m509.28,300.54c2.6,1.43,3.55,3.53,1.96,6.26-3.82,5.71-12.22.16-8.48-5.59,1.8-2.52,4.22-2.4,6.52-.67h0Zm-.16.25c-1.25-.85-2.73.07-3.79.75-1.63,1.13-1.53,3.83.13,4.8,2.12,1.44,4.83-.45,4.56-2.95.09-.87-.03-2.07-.9-2.6h0Z" fill="#a5c3c9" stroke-width="0"/><path d="m741.28,293.54c2.6,1.43,3.55,3.53,1.96,6.26-3.82,5.71-12.22.16-8.48-5.59,1.8-2.52,4.22-2.4,6.52-.67h0Zm-.16.25c-1.25-.85-2.73.07-3.79.75-1.63,1.13-1.53,3.83.13,4.8,2.12,1.44,4.83-.45,4.56-2.95.09-.87-.03-2.07-.9-2.6h0Z" fill="#a5c3c9" stroke-width="0"/><path d="m747.68,109.89c1.01,6.26-11.28,37.06-12.45,53.21-.43,5.86,14.22,5.72,15.21,8.47.99,2.75-1.24,11.39-1.04,14.35.2,2.96,16.61,11.11,20.02,6.72,3.41-4.39,6.75-15.12,6.75-15.12,0,0,4.01,12.05,10.58,14.07s13.05-2.15,13.05-2.15c0,0,5.65-10.56,8.81-14.82,3.16-4.26,30.51-67.18,32.44-67.9s-8-31.62-13.62-30.08-59.96,4.55-61.66,6.74c-1.71,2.2-18.08,26.52-18.08,26.52Z" fill="#c87550" stroke-width="0"/><path d="m877.26,106.04c-5.5-2.6-20.72-37.72-38.13-42.85-3.7-1.09-68.22,5.07-74,8.91s-33.37,50.53-28.45,53.6c4.92,3.07,13.75,9.12,22.44,6.66,8.68-2.46,18.81-33.54,18.81-33.54,0,0,32.36.31,55.41,1.9,23.05,1.6,43.93,5.31,43.93,5.31Z" fill="#c87550" stroke-width="0"/><path d="m770.94,83.75c3.28,2.89,5.84,6.33,8.68,9.47.94.98,2.04,2.32,3.16,2.9,2.38.67,5.02.66,7.57.74,8.57.33,16.93-.99,25.51-1.47.15-.01.22.22.07.28-3.97,1.98-8.36,2.46-12.64,2.96-4.31.48-8.64.69-12.99.63-2.18-.06-4.35-.17-6.59-.54-1.14-.11-2.72-.82-3.41-1.64-3.8-3.94-7.21-8.19-9.6-13.14-.07-.14.12-.28.24-.17h0Z" fill="#5e1f21" stroke-width="0"/><path d="m768.72,111.32c.39-1.7,1.55-2.57,2.53-3.64.99-1.05,2-2.07,3.02-3.08,2.18-1.9,3.91-4.23,6.5-5.62.1-.08.26-.02.27.11.08,1.61-1.13,2.89-2.1,4.02-1.89,2.23-3.98,4.25-6.21,6.13-1.12.92-2.08,2.03-3.81,2.28-.12.02-.23-.1-.2-.22h0Z" fill="#5e1f21" stroke-width="0"/><path d="m757.95,150.22c.34,2.1-.4,3.84-.9,5.67-1.04,3.64-2.25,7.21-3.64,10.73-.73,1.77-1.18,3.55-2.86,5.07-.16.1-.19-.09-.19-.22-.12-3.65,1.77-7.43,2.73-10.94.6-1.79,1.25-3.56,1.92-5.32.7-1.76,1.15-3.59,2.68-5.07.09-.09.26-.04.28.09h0Z" fill="#5e1f21" stroke-width="0"/><path d="m776.24,177.65s-.07.04-.16-.01c-.09-.09-.06-.11-.07-.15-.3-2,.56-3.9,1.18-5.75,1.25-3.64,2.68-7.21,4.25-10.72.75-1.72,1.45-3.52,2.8-4.89,0,0,.07-.07.07-.07.02,0,.04-.1.06.01-.05-.18.24-.27.28-.08,0,0,.03.29.03.29.13,1.93-.62,3.74-1.25,5.52-1.82,4.94-3.56,10-6.15,14.6-.29.38-.59.8-.96,1.11-.02,0,.02-.06-.07-.12-.09-.05-.14-.01-.15,0,.17-.1.31.18.14.26h0Z" fill="#5e1f21" stroke-width="0"/><path d="m552.4,133.66c-2.95-.21-5.26,3.67-3.77,6.39,11.11,20.28,85.09,62.34,178.98,100.59,92.8,37.8,174.28,59.35,197.52,53.35,3.35-.87,4.69-5.77,2.22-8.01-16.68-15.19-83.92-73.2-176.8-111.03-76.55-31.19-175.36-39.68-198.16-41.28Z" fill="#dee0df" stroke-width="0"/><path d="m571.05,160.51c30.14.91,59.74,8.04,88.69,16.05,57.77,16.47,113.55,40.63,167.19,67.49,16.57,8.48,33.47,17.71,49.07,27.85,9.35,6.21,18.86,12.67,26.9,20.56.14.13-.08.35-.21.2-2.8-2.48-5.78-4.77-8.82-6.95-3-2.15-6.18-4.39-9.25-6.39-34.57-22.46-71.92-40.69-109.57-57.37-64.67-28.94-134.13-53.39-203.99-61.44h0Z" fill="#afafaf" stroke-width="0"/><path d="m549.61,135.72c-1.25,7.64,32.8,24.92,39.87,29.22,45.52,25.58,93.47,46.49,141.76,66.34,56.36,22.83,113.58,44.2,172.84,58.1,5.75,1.04,20.35,4.81,23.87.48.21-.38.72-.5,1.07-.25.26.18.37.51.29.8-.37,1.32-1.42,2.33-2.47,2.99-3.07,1.87-6.76,2.32-10.19,2.64-4.55.38-9.05.23-13.51-.09-17.74-1.41-34.97-5.58-52.01-10.32-84.44-24.28-166.28-57.54-243.64-99.2-17.98-10.02-47.54-26.58-58.24-43.97-1.16-2.12-2.23-4.89-1-7.28.2-.36.65-.48,1-.28.32.17.42.51.36.84h0Z" fill="#666" stroke-width="0"/><ellipse cx="751.79" cy="180.84" rx="7.5" ry="65" transform="translate(300.68 808.85) rotate(-67.83)" fill="#666" stroke-width="0"/><ellipse cx="754.81" cy="173.43" rx="7.5" ry="65" transform="translate(309.42 807.03) rotate(-67.83)" fill="#666" stroke-width="0"/><polygon points="811.99 205.36 815.01 197.95 694.61 148.91 690.65 158.63 811.99 205.36" fill="#666" stroke-width="0"/><ellipse cx="767.64" cy="141.94" rx="7.5" ry="44" transform="translate(346.57 799.3) rotate(-67.83)" fill="#666" stroke-width="0"/><ellipse cx="770.66" cy="134.53" rx="7.5" ry="44" transform="translate(355.31 797.48) rotate(-67.83)" fill="#666" stroke-width="0"/><polygon points="808.39 158.54 811.41 151.13 729.91 117.93 725.95 127.66 808.39 158.54" fill="#666" stroke-width="0"/><polygon points="787.55 183.19 798.18 157.09 735.21 131.43 721.25 165.7 787.55 183.19" fill="#666" stroke-width="0"/><path d="m846.02,66.21c30.25,19.97,118.6,68.74,118.6,68.74,0,0-24.5,67.48-32.8,70.39-8.29,2.92-112.63-18.15-119.11-22.32s22.76-123.78,33.31-116.81Z" fill="#c87550" stroke-width="0"/><path d="m931.6,138.11c5.75-.28,186.54-18.1,186.87-13.49.33,4.61,12.89,100.98,10.52,100.38-2.36-.6-208-19.64-208-19.64l10.61-67.25Z" fill="#c87550" stroke-width="0"/><path d="m836.4,113.11c-.02,1.55-.91,2.37-1.61,3.35-.71.97-1.45,1.91-2.23,2.83-.77.92-1.59,1.8-2.42,2.66-.84.86-1.56,1.83-3.03,2.15-.12.03-.23-.07-.22-.19.08-1.51.9-2.38,1.62-3.35.72-.97,1.45-1.92,2.22-2.84.77-.92,1.58-1.8,2.42-2.67.85-.85,1.51-1.87,3.04-2.15.12-.02.23.07.22.19h0Z" fill="#5e1f21" stroke-width="0"/><path d="m767.81,120.5c-2.87,1.02-19.09.66-25.06,8.29-4.12,5.26-5.2,10.22-2.23,13.86,2.97,3.64,26.5,16.13,28.56,11.91,2.06-4.22,21.11-29.87,21.11-29.87l-22.38-4.19Z" fill="#c87550" stroke-width="0"/><path d="m842.39,133.73c-.26-1.83-44.25-9.76-65.82-12.26-5.44-.63-4.35-.46-5.44-.38-5.38.39-18.94,12.03-17.67,20.91.57,3.99-2.69,9.18,10.55,14,7.46,2.72,30.52,4.3,37,8,7.63,4.35,6.76,17.54,11.7,19.02,16.59,4.99,31.28-37.82,29.68-49.3Z" fill="#c87550" stroke-width="0"/><path d="m773.46,120.78c6.8.1,13.46,1.18,20.13,2.12,5.97.91,15.27,2.02,19.58,2.91,2.26-.5,4.53-.96,6.81-1.37,2.28-.39,4.52-1.02,6.99-.56.13.02.18.21.06.29-2.05,1.45-4.35,1.8-6.58,2.4-2.25.57-4.51,1.11-6.79,1.6-6.81-.84-13.6-2.1-20.39-3.15-6.65-1.09-13.33-2.02-19.86-3.94-.16-.04-.12-.3.04-.29h0Z" fill="#5e1f21" stroke-width="0"/><path d="m765.88,156.39c-.22-.26.27-.34.09-.28.03,0,.1,0,.13,0,5.94.11,11.78,1.35,17.62,2.32,1.62.28,9.57,1.68,11.01,1.95,3.22.33,6.54,2.05,8.18,4.96,0,0,1.19,1.89,1.19,1.89,1.55,2.44,5.52,8.86,7.09,11.39,1.41,2.39,3.65,4.08,6.36,4.9,2.82.97,5.61,2.03,8.33,3.33.15.06.08.31-.08.28-5.95-1.12-13.01-1.61-16.42-7.37-1.64-2.54-5.72-8.81-7.28-11.27l-1.21-1.88c-1.43-2.4-3.86-3.58-6.59-3.92-1.39-.25-9.4-1.83-10.97-2.14-5.75-1.16-11.59-2.12-17.15-4.07l-.13-.05-.07-.02h-.03s-.01-.02-.01-.02c-.19.06.29-.03.06-.29.19.07.06.34-.11.27h0Z" fill="#5e1f21" stroke-width="0"/><path d="m765.3,144.16c-1.72-.72-2.31-2.39-2.75-3.94-.97-3.17-.08-6.87,2.03-9.38.99-1.3,2.19-2.44,3.88-2.73.12-.02.23.1.19.21-.26.86-.67,1.49-1.1,2.06-2.68,3.12-3.89,7.4-2.37,11.34.18.68.34,1.39.35,2.27,0,.12-.12.21-.23.16h0Z" fill="#5e1f21" stroke-width="0"/><path d="m749.68,124.04c1.79-1.33,3.8-1.52,5.75-1.95,3.93-.83,7.89-1.46,11.9-1.8,1.99-.15,4.06-.51,6.12.49.08.04.11.13.07.21-1.88.94-3.9,1.09-5.93,1.43-3.48.58-8.35,1.39-11.81,1.8-1.98.23-3.92.72-6.06.11-.13-.03-.16-.21-.05-.29h0Z" fill="#5e1f21" stroke-width="0"/></g></g></g></svg>