<?xml version="1.0" encoding="UTF-8"?><svg id="a" xmlns="http://www.w3.org/2000/svg" width="1140" height="678" viewBox="0 0 1140 678"><path d="m342.59,36.46h-6.4v17.76h-2.61v-17.76h-6.38v-2.15h15.39v2.15Z" stroke-width="0"/><path d="m347.67,41.22c1.12-1.38,2.58-2.06,4.38-2.06,3.13,0,4.7,1.76,4.73,5.29v9.78h-2.53v-9.79c0-1.07-.25-1.85-.73-2.37s-1.22-.77-2.24-.77c-.82,0-1.54.22-2.16.66s-1.1,1.01-1.45,1.72v10.54h-2.53v-21h2.53v8Z" stroke-width="0"/><path d="m366.71,54.5c-2.01,0-3.64-.66-4.89-1.98s-1.89-3.08-1.89-5.28v-.46c0-1.47.28-2.78.84-3.93s1.34-2.06,2.35-2.71,2.1-.98,3.27-.98c1.92,0,3.42.63,4.48,1.9s1.6,3.08,1.6,5.44v1.05h-10.02c.04,1.46.46,2.64,1.28,3.53s1.85,1.35,3.11,1.35c.89,0,1.65-.18,2.27-.55s1.16-.85,1.63-1.45l1.54,1.2c-1.24,1.91-3.1,2.86-5.58,2.86Zm-.31-13.26c-1.02,0-1.88.37-2.57,1.11s-1.12,1.78-1.29,3.12h7.41v-.19c-.07-1.29-.42-2.28-1.04-2.99s-1.46-1.06-2.52-1.06Z" stroke-width="0"/><path d="m381.66,46.69c0-1.45.28-2.75.85-3.91s1.36-2.05,2.38-2.68,2.18-.94,3.48-.94c2.01,0,3.64.7,4.89,2.09s1.87,3.25,1.87,5.56v.18c0,1.44-.28,2.73-.83,3.88s-1.34,2.04-2.37,2.67-2.2.96-3.53.96c-2.01,0-3.63-.7-4.87-2.09s-1.87-3.24-1.87-5.54v-.18Zm2.54.3c0,1.64.38,2.96,1.14,3.95s1.78,1.49,3.06,1.49,2.31-.5,3.06-1.51,1.13-2.42,1.13-4.23c0-1.62-.39-2.94-1.16-3.94s-1.79-1.51-3.07-1.51-2.26.5-3.02,1.49-1.15,2.42-1.15,4.27Z" stroke-width="0"/><path d="m405.45,41.7c-.38-.06-.8-.1-1.24-.1-1.66,0-2.78.71-3.38,2.12v10.5h-2.53v-14.79h2.46l.04,1.71c.83-1.32,2.01-1.98,3.53-1.98.49,0,.87.06,1.12.19v2.35Z" stroke-width="0"/><path d="m407.79,35.51c0-.41.13-.76.38-1.04s.62-.42,1.11-.42.87.14,1.12.42.38.63.38,1.04-.13.75-.38,1.03-.63.41-1.12.41-.86-.14-1.11-.41-.38-.62-.38-1.03Zm2.73,18.72h-2.53v-14.79h2.53v14.79Z" stroke-width="0"/><path d="m413.97,46.71c0-2.31.53-4.14,1.6-5.5s2.48-2.04,4.24-2.04,3.21.64,4.22,1.91l.12-1.64h2.31v14.44c0,1.91-.57,3.42-1.7,4.53s-2.66,1.65-4.57,1.65c-1.07,0-2.11-.23-3.13-.68s-1.8-1.08-2.34-1.87l1.31-1.52c1.08,1.34,2.41,2.01,3.98,2.01,1.23,0,2.19-.35,2.88-1.04.69-.69,1.03-1.67,1.03-2.93v-1.27c-1.01,1.17-2.39,1.75-4.14,1.75s-3.13-.7-4.2-2.09-1.61-3.29-1.61-5.7Zm2.54.29c0,1.67.34,2.98,1.03,3.93s1.64,1.43,2.87,1.43c1.59,0,2.77-.72,3.51-2.17v-6.75c-.77-1.41-1.94-2.12-3.49-2.12-1.23,0-2.19.48-2.88,1.44s-1.04,2.37-1.04,4.25Z" stroke-width="0"/><path d="m430.29,35.51c0-.41.12-.76.38-1.04.25-.28.62-.42,1.11-.42s.87.14,1.12.42c.25.28.38.63.38,1.04s-.13.75-.38,1.03c-.26.27-.63.41-1.12.41s-.86-.14-1.11-.41c-.25-.27-.38-.62-.38-1.03Zm2.73,18.72h-2.53v-14.79h2.53v14.79Z" stroke-width="0"/><path d="m439.47,39.43l.08,1.86c1.13-1.42,2.61-2.13,4.43-2.13,3.13,0,4.7,1.76,4.73,5.29v9.78h-2.53v-9.79c0-1.07-.25-1.85-.73-2.37s-1.22-.77-2.24-.77c-.82,0-1.54.22-2.16.66-.62.44-1.1,1.01-1.45,1.72v10.54h-2.53v-14.79h2.39Z" stroke-width="0"/><path d="m461.66,54.22c-.15-.29-.26-.81-.36-1.56-1.18,1.22-2.58,1.83-4.21,1.83-1.46,0-2.65-.41-3.59-1.24-.93-.83-1.4-1.87-1.4-3.14,0-1.54.59-2.74,1.76-3.59,1.17-.85,2.82-1.28,4.94-1.28h2.46v-1.16c0-.88-.26-1.59-.79-2.11-.53-.52-1.31-.79-2.34-.79-.9,0-1.66.23-2.27.68-.61.46-.92,1.01-.92,1.65h-2.54c0-.74.26-1.45.79-2.14.52-.69,1.23-1.23,2.13-1.63.9-.4,1.88-.6,2.96-.6,1.7,0,3.04.43,4.01,1.28.97.85,1.47,2.03,1.5,3.52v6.81c0,1.36.17,2.44.52,3.24v.22h-2.65Zm-4.2-1.93c.79,0,1.54-.21,2.26-.62s1.23-.94,1.54-1.6v-3.04h-1.98c-3.1,0-4.65.91-4.65,2.72,0,.79.26,1.41.79,1.86.53.45,1.21.67,2.04.67Z" stroke-width="0"/><path d="m470.5,54.22h-2.53v-21h2.53v21Z" stroke-width="0"/><path d="m490.61,54.22c-.15-.29-.26-.81-.36-1.56-1.18,1.22-2.58,1.83-4.21,1.83-1.46,0-2.65-.41-3.59-1.24-.93-.83-1.4-1.87-1.4-3.14,0-1.54.59-2.74,1.76-3.59,1.17-.85,2.82-1.28,4.94-1.28h2.46v-1.16c0-.88-.26-1.59-.79-2.11-.53-.52-1.31-.79-2.34-.79-.9,0-1.66.23-2.27.68-.61.46-.92,1.01-.92,1.65h-2.54c0-.74.26-1.45.79-2.14.52-.69,1.23-1.23,2.13-1.63.9-.4,1.88-.6,2.96-.6,1.7,0,3.04.43,4.01,1.28.97.85,1.47,2.03,1.5,3.52v6.81c0,1.36.17,2.44.52,3.24v.22h-2.65Zm-4.2-1.93c.79,0,1.54-.21,2.26-.62s1.23-.94,1.54-1.6v-3.04h-1.98c-3.1,0-4.65.91-4.65,2.72,0,.79.26,1.41.79,1.86.53.45,1.21.67,2.04.67Z" stroke-width="0"/><path d="m499.09,39.43l.07,1.64c1.08-1.28,2.55-1.91,4.39-1.91,2.07,0,3.48.79,4.22,2.38.49-.71,1.13-1.29,1.92-1.72.79-.44,1.72-.66,2.8-.66,3.24,0,4.89,1.72,4.95,5.15v9.91h-2.53v-9.76c0-1.06-.24-1.85-.72-2.37-.48-.52-1.29-.79-2.43-.79-.94,0-1.72.28-2.34.84-.62.56-.98,1.31-1.08,2.26v9.82h-2.54v-9.69c0-2.15-1.05-3.23-3.16-3.23-1.66,0-2.79.71-3.4,2.12v10.8h-2.53v-14.79h2.39Z" stroke-width="0"/><path d="m520.58,46.69c0-1.45.28-2.75.85-3.91.57-1.16,1.36-2.05,2.38-2.68,1.02-.63,2.18-.94,3.48-.94,2.01,0,3.64.7,4.89,2.09s1.87,3.25,1.87,5.56v.18c0,1.44-.28,2.73-.83,3.88-.55,1.14-1.34,2.04-2.37,2.67s-2.2.96-3.53.96c-2.01,0-3.63-.7-4.87-2.09s-1.87-3.24-1.87-5.54v-.18Zm2.54.3c0,1.64.38,2.96,1.14,3.95.76.99,1.78,1.49,3.06,1.49s2.31-.5,3.06-1.51c.76-1.01,1.13-2.42,1.13-4.23,0-1.62-.39-2.94-1.16-3.94-.77-1.01-1.79-1.51-3.07-1.51s-2.26.5-3.02,1.49-1.15,2.42-1.15,4.27Z" stroke-width="0"/><path d="m546.35,52.76c-.98,1.16-2.43,1.74-4.33,1.74-1.58,0-2.78-.46-3.6-1.37-.83-.92-1.24-2.27-1.25-4.07v-9.62h2.53v9.56c0,2.24.91,3.36,2.73,3.36,1.93,0,3.22-.72,3.86-2.16v-10.76h2.53v14.79h-2.41l-.05-1.46Z" stroke-width="0"/><path d="m555.05,39.43l.08,1.86c1.13-1.42,2.61-2.13,4.43-2.13,3.13,0,4.7,1.76,4.73,5.29v9.78h-2.53v-9.79c0-1.07-.25-1.85-.73-2.37s-1.22-.77-2.24-.77c-.82,0-1.54.22-2.16.66-.62.44-1.1,1.01-1.45,1.72v10.54h-2.53v-14.79h2.39Z" stroke-width="0"/><path d="m571.54,35.85v3.58h2.76v1.96h-2.76v9.19c0,.59.12,1.04.37,1.33.25.3.67.44,1.26.44.29,0,.69-.05,1.2-.16v2.04c-.67.18-1.31.27-1.94.27-1.13,0-1.98-.34-2.56-1.03s-.86-1.65-.86-2.91v-9.17h-2.69v-1.96h2.69v-3.58h2.53Z" stroke-width="0"/><path d="m584.2,35.51c0-.41.12-.76.38-1.04.25-.28.62-.42,1.11-.42s.87.14,1.12.42c.25.28.38.63.38,1.04s-.13.75-.38,1.03c-.26.27-.63.41-1.12.41s-.86-.14-1.11-.41c-.25-.27-.38-.62-.38-1.03Zm2.73,18.72h-2.53v-14.79h2.53v14.79Z" stroke-width="0"/><path d="m599.59,50.3c0-.68-.26-1.21-.77-1.59-.52-.38-1.41-.7-2.69-.98-1.28-.27-2.3-.6-3.05-.98s-1.31-.84-1.67-1.37c-.36-.53-.54-1.16-.54-1.89,0-1.21.51-2.24,1.54-3.08s2.34-1.26,3.93-1.26c1.68,0,3.04.43,4.08,1.3,1.04.87,1.57,1.97,1.57,3.32h-2.54c0-.69-.29-1.29-.88-1.79s-1.33-.75-2.22-.75-1.64.2-2.16.6-.78.92-.78,1.57c0,.61.24,1.07.72,1.38.48.31,1.36.61,2.62.89,1.26.28,2.29.62,3.07,1.01.78.39,1.36.86,1.74,1.42.38.55.57,1.22.57,2.02,0,1.32-.53,2.38-1.59,3.18-1.06.8-2.43,1.2-4.12,1.2-1.19,0-2.23-.21-3.14-.63-.91-.42-1.62-1-2.14-1.76-.52-.75-.77-1.57-.77-2.44h2.53c.05.85.38,1.52,1.02,2.02.63.5,1.47.75,2.51.75.96,0,1.72-.19,2.3-.58.58-.39.87-.9.87-1.55Z" stroke-width="0"/><path d="m620.4,54.22h-2.54v-16.86l-5.1,1.87v-2.3l7.25-2.72h.4v20Z" stroke-width="0"/><path d="m640.29,45.73c0,2.96-.51,5.16-1.52,6.6s-2.59,2.16-4.74,2.16-3.7-.7-4.72-2.11c-1.02-1.41-1.55-3.51-1.59-6.31v-3.38c0-2.93.51-5.1,1.52-6.52s2.6-2.13,4.76-2.13,3.72.69,4.73,2.06,1.53,3.49,1.56,6.35v3.28Zm-2.53-3.46c0-2.14-.3-3.7-.9-4.68s-1.55-1.47-2.86-1.47-2.24.49-2.83,1.46c-.59.98-.9,2.47-.92,4.5v4.05c0,2.15.31,3.74.94,4.76.62,1.03,1.57,1.54,2.84,1.54s2.18-.48,2.78-1.45c.61-.97.92-2.49.95-4.57v-4.14Z" stroke-width="0"/><path d="m656.02,45.73c0,2.96-.51,5.16-1.52,6.6s-2.59,2.16-4.74,2.16-3.7-.7-4.72-2.11c-1.02-1.41-1.55-3.51-1.59-6.31v-3.38c0-2.93.51-5.1,1.52-6.52s2.6-2.13,4.76-2.13,3.72.69,4.73,2.06,1.53,3.49,1.56,6.35v3.28Zm-2.53-3.46c0-2.14-.3-3.7-.9-4.68s-1.55-1.47-2.86-1.47-2.24.49-2.83,1.46c-.59.98-.9,2.47-.92,4.5v4.05c0,2.15.31,3.74.94,4.76.62,1.03,1.57,1.54,2.84,1.54s2.18-.48,2.78-1.45c.61-.97.92-2.49.95-4.57v-4.14Z" stroke-width="0"/><path d="m665.85,46.71c0-2.31.53-4.14,1.6-5.5s2.48-2.04,4.24-2.04,3.21.64,4.22,1.91l.12-1.64h2.31v14.44c0,1.91-.57,3.42-1.7,4.53s-2.66,1.65-4.57,1.65c-1.07,0-2.11-.23-3.13-.68-1.02-.46-1.8-1.08-2.34-1.87l1.31-1.52c1.08,1.34,2.41,2.01,3.98,2.01,1.23,0,2.19-.35,2.88-1.04.69-.69,1.03-1.67,1.03-2.93v-1.27c-1.01,1.17-2.39,1.75-4.14,1.75s-3.13-.7-4.2-2.09c-1.07-1.39-1.61-3.29-1.61-5.7Zm2.54.29c0,1.67.34,2.98,1.03,3.93s1.64,1.43,2.87,1.43c1.59,0,2.77-.72,3.51-2.17v-6.75c-.77-1.41-1.94-2.12-3.49-2.12-1.23,0-2.19.48-2.88,1.44-.69.96-1.04,2.37-1.04,4.25Z" stroke-width="0"/><path d="m682.07,58.19l-1.44-.98c.86-1.19,1.3-2.42,1.34-3.69v-2.28h2.47v1.98c0,.92-.23,1.84-.68,2.76s-1.02,1.66-1.7,2.21Z" stroke-width="0"/><path d="m703.2,50.3c0-.68-.26-1.21-.77-1.59-.52-.38-1.41-.7-2.69-.98-1.28-.27-2.3-.6-3.05-.98s-1.31-.84-1.67-1.37c-.36-.53-.54-1.16-.54-1.89,0-1.21.51-2.24,1.54-3.08s2.34-1.26,3.93-1.26c1.68,0,3.04.43,4.08,1.3,1.04.87,1.57,1.97,1.57,3.32h-2.54c0-.69-.29-1.29-.88-1.79s-1.33-.75-2.22-.75-1.64.2-2.16.6-.78.92-.78,1.57c0,.61.24,1.07.72,1.38.48.31,1.36.61,2.62.89,1.26.28,2.29.62,3.07,1.01.78.39,1.36.86,1.74,1.42.38.55.57,1.22.57,2.02,0,1.32-.53,2.38-1.59,3.18-1.06.8-2.43,1.2-4.12,1.2-1.19,0-2.23-.21-3.14-.63-.91-.42-1.62-1-2.14-1.76-.52-.75-.77-1.57-.77-2.44h2.53c.05.85.38,1.52,1.02,2.02.63.5,1.47.75,2.51.75.96,0,1.72-.19,2.3-.58.58-.39.87-.9.87-1.55Z" stroke-width="0"/><path d="m708.35,46.69c0-1.45.28-2.75.85-3.91.57-1.16,1.36-2.05,2.38-2.68,1.02-.63,2.18-.94,3.48-.94,2.01,0,3.64.7,4.89,2.09s1.87,3.25,1.87,5.56v.18c0,1.44-.28,2.73-.83,3.88-.55,1.14-1.34,2.04-2.37,2.67s-2.2.96-3.53.96c-2.01,0-3.63-.7-4.87-2.09s-1.87-3.24-1.87-5.54v-.18Zm2.54.3c0,1.64.38,2.96,1.14,3.95.76.99,1.78,1.49,3.06,1.49s2.31-.5,3.06-1.51c.76-1.01,1.13-2.42,1.13-4.23,0-1.62-.39-2.94-1.16-3.94-.77-1.01-1.79-1.51-3.07-1.51s-2.26.5-3.02,1.49-1.15,2.42-1.15,4.27Z" stroke-width="0"/><path d="m741.06,54.22c-.15-.29-.26-.81-.36-1.56-1.18,1.22-2.58,1.83-4.21,1.83-1.46,0-2.65-.41-3.59-1.24-.93-.83-1.4-1.87-1.4-3.14,0-1.54.59-2.74,1.76-3.59,1.17-.85,2.82-1.28,4.94-1.28h2.46v-1.16c0-.88-.26-1.59-.79-2.11-.53-.52-1.31-.79-2.34-.79-.9,0-1.66.23-2.27.68-.61.46-.92,1.01-.92,1.65h-2.54c0-.74.26-1.45.79-2.14.52-.69,1.23-1.23,2.13-1.63.9-.4,1.88-.6,2.96-.6,1.7,0,3.04.43,4.01,1.28.97.85,1.47,2.03,1.5,3.52v6.81c0,1.36.17,2.44.52,3.24v.22h-2.65Zm-4.2-1.93c.79,0,1.54-.21,2.26-.62s1.23-.94,1.54-1.6v-3.04h-1.98c-3.1,0-4.65.91-4.65,2.72,0,.79.26,1.41.79,1.86.53.45,1.21.67,2.04.67Z" stroke-width="0"/><path d="m748.4,54.22v-12.84h-2.34v-1.96h2.34v-1.52c0-1.59.42-2.81,1.27-3.68s2.05-1.3,3.6-1.3c.58,0,1.16.08,1.74.23l-.14,2.04c-.43-.08-.88-.12-1.37-.12-.82,0-1.45.24-1.9.72-.45.48-.67,1.17-.67,2.06v1.56h3.16v1.96h-3.16v12.84h-2.53Z" stroke-width="0"/><path d="m760.31,35.85v3.58h2.76v1.96h-2.76v9.19c0,.59.12,1.04.37,1.33.25.3.67.44,1.26.44.29,0,.69-.05,1.2-.16v2.04c-.67.18-1.31.27-1.94.27-1.13,0-1.98-.34-2.56-1.03s-.86-1.65-.86-2.91v-9.17h-2.69v-1.96h2.69v-3.58h2.53Z" stroke-width="0"/><path d="m772.16,54.5c-2.01,0-3.64-.66-4.89-1.98s-1.89-3.08-1.89-5.28v-.46c0-1.47.28-2.78.84-3.93s1.34-2.06,2.35-2.71c1.01-.65,2.1-.98,3.27-.98,1.92,0,3.42.63,4.48,1.9s1.6,3.08,1.6,5.44v1.05h-10.02c.04,1.46.46,2.64,1.28,3.53.82.9,1.85,1.35,3.11,1.35.89,0,1.65-.18,2.27-.55.62-.36,1.16-.85,1.63-1.45l1.54,1.2c-1.24,1.91-3.1,2.86-5.58,2.86Zm-.31-13.26c-1.02,0-1.88.37-2.57,1.11-.69.74-1.12,1.78-1.29,3.12h7.41v-.19c-.07-1.29-.42-2.28-1.04-2.99-.62-.71-1.46-1.06-2.52-1.06Z" stroke-width="0"/><path d="m788,41.7c-.38-.06-.8-.1-1.24-.1-1.66,0-2.78.71-3.38,2.12v10.5h-2.53v-14.79h2.46l.04,1.71c.83-1.32,2-1.98,3.53-1.98.49,0,.87.06,1.12.19v2.35Z" stroke-width="0"/><path d="m331.87,69.45v3.58h2.76v1.96h-2.76v9.19c0,.59.12,1.04.37,1.33.25.3.67.44,1.26.44.29,0,.69-.05,1.2-.16v2.04c-.67.18-1.31.27-1.94.27-1.13,0-1.98-.34-2.56-1.03s-.86-1.65-.86-2.91v-9.17h-2.69v-1.96h2.69v-3.58h2.53Z" stroke-width="0"/><path d="m340.11,74.82c1.12-1.38,2.58-2.06,4.38-2.06,3.13,0,4.7,1.76,4.73,5.29v9.78h-2.53v-9.79c0-1.07-.25-1.85-.73-2.37s-1.22-.77-2.24-.77c-.82,0-1.54.22-2.16.66s-1.1,1.01-1.45,1.72v10.54h-2.53v-21h2.53v8Z" stroke-width="0"/><path d="m359.15,88.1c-2.01,0-3.64-.66-4.89-1.98s-1.89-3.08-1.89-5.28v-.46c0-1.47.28-2.78.84-3.93s1.34-2.06,2.35-2.71,2.1-.98,3.27-.98c1.92,0,3.42.63,4.48,1.9s1.6,3.08,1.6,5.44v1.05h-10.02c.04,1.46.46,2.64,1.28,3.53s1.85,1.35,3.11,1.35c.89,0,1.65-.18,2.27-.55s1.16-.85,1.63-1.45l1.54,1.2c-1.24,1.91-3.1,2.86-5.58,2.86Zm-.31-13.26c-1.02,0-1.88.37-2.57,1.11s-1.12,1.78-1.29,3.12h7.41v-.19c-.07-1.29-.42-2.28-1.04-2.99s-1.46-1.06-2.52-1.06Z" stroke-width="0"/><path d="m377.3,74.82c1.12-1.38,2.58-2.06,4.38-2.06,3.13,0,4.7,1.76,4.73,5.29v9.78h-2.53v-9.79c0-1.07-.25-1.85-.73-2.37s-1.22-.77-2.24-.77c-.82,0-1.54.22-2.16.66s-1.1,1.01-1.45,1.72v10.54h-2.53v-21h2.53v8Z" stroke-width="0"/><path d="m399.33,87.82c-.15-.29-.26-.81-.36-1.56-1.18,1.22-2.58,1.83-4.21,1.83-1.46,0-2.65-.41-3.59-1.24s-1.4-1.87-1.4-3.14c0-1.54.59-2.74,1.76-3.59s2.82-1.28,4.94-1.28h2.46v-1.16c0-.88-.26-1.59-.79-2.11s-1.31-.79-2.34-.79c-.9,0-1.66.23-2.27.68s-.92,1.01-.92,1.65h-2.54c0-.74.26-1.45.79-2.14s1.23-1.23,2.13-1.63,1.88-.6,2.96-.6c1.7,0,3.04.43,4.01,1.28s1.47,2.03,1.5,3.52v6.81c0,1.36.17,2.44.52,3.24v.22h-2.65Zm-4.2-1.93c.79,0,1.54-.21,2.26-.62s1.23-.94,1.54-1.6v-3.04h-1.98c-3.1,0-4.65.91-4.65,2.72,0,.79.26,1.41.79,1.86s1.21.67,2.04.67Z" stroke-width="0"/><path d="m408.17,87.82h-2.53v-21h2.53v21Z" stroke-width="0"/><path d="m413.46,87.82v-12.84h-2.34v-1.96h2.34v-1.52c0-1.59.42-2.81,1.27-3.68s2.05-1.3,3.6-1.3c.58,0,1.16.08,1.74.23l-.14,2.04c-.43-.08-.88-.12-1.37-.12-.82,0-1.45.24-1.9.72-.45.48-.67,1.17-.67,2.06v1.56h3.16v1.96h-3.16v12.84h-2.53Z" stroke-width="0"/><path d="m431.62,87.82h-2.53v-21h2.53v21Z" stroke-width="0"/><path d="m435.68,69.11c0-.41.12-.76.38-1.04.25-.28.62-.42,1.11-.42s.87.14,1.12.42c.25.28.38.63.38,1.04s-.13.75-.38,1.03c-.26.27-.63.41-1.12.41s-.86-.14-1.11-.41c-.25-.27-.38-.62-.38-1.03Zm2.73,18.72h-2.53v-14.79h2.53v14.79Z" stroke-width="0"/><path d="m443.71,87.82v-12.84h-2.34v-1.96h2.34v-1.52c0-1.59.42-2.81,1.27-3.68s2.05-1.3,3.6-1.3c.58,0,1.16.08,1.74.23l-.14,2.04c-.43-.08-.88-.12-1.37-.12-.82,0-1.45.24-1.9.72-.45.48-.67,1.17-.67,2.06v1.56h3.16v1.96h-3.16v12.84h-2.53Z" stroke-width="0"/><path d="m457.99,88.1c-2.01,0-3.64-.66-4.89-1.98s-1.89-3.08-1.89-5.28v-.46c0-1.47.28-2.78.84-3.93s1.34-2.06,2.35-2.71c1.01-.65,2.1-.98,3.27-.98,1.92,0,3.42.63,4.48,1.9s1.6,3.08,1.6,5.44v1.05h-10.02c.04,1.46.46,2.64,1.28,3.53.82.9,1.85,1.35,3.11,1.35.89,0,1.65-.18,2.27-.55.62-.36,1.16-.85,1.63-1.45l1.54,1.2c-1.24,1.91-3.1,2.86-5.58,2.86Zm-.31-13.26c-1.02,0-1.88.37-2.57,1.11-.69.74-1.12,1.78-1.29,3.12h7.41v-.19c-.07-1.29-.42-2.28-1.04-2.99-.62-.71-1.46-1.06-2.52-1.06Z" stroke-width="0"/><path d="m472.95,80.29c0-1.45.28-2.75.85-3.91.57-1.16,1.36-2.05,2.38-2.68,1.02-.63,2.18-.94,3.48-.94,2.01,0,3.64.7,4.89,2.09s1.87,3.25,1.87,5.56v.18c0,1.44-.28,2.73-.83,3.88-.55,1.14-1.34,2.04-2.37,2.67s-2.2.96-3.53.96c-2.01,0-3.63-.7-4.87-2.09s-1.87-3.24-1.87-5.54v-.18Zm2.54.3c0,1.64.38,2.96,1.14,3.95.76.99,1.78,1.49,3.06,1.49s2.31-.5,3.06-1.51c.76-1.01,1.13-2.42,1.13-4.23,0-1.62-.39-2.94-1.16-3.94-.77-1.01-1.79-1.51-3.07-1.51s-2.26.5-3.02,1.49-1.15,2.42-1.15,4.27Z" stroke-width="0"/><path d="m491.98,73.03l.08,1.86c1.13-1.42,2.61-2.13,4.43-2.13,3.13,0,4.7,1.76,4.73,5.29v9.78h-2.53v-9.79c0-1.07-.25-1.85-.73-2.37s-1.22-.77-2.24-.77c-.82,0-1.54.22-2.16.66-.62.44-1.1,1.01-1.45,1.72v10.54h-2.53v-14.79h2.39Z" stroke-width="0"/><path d="m507.79,87.82h-2.53v-21h2.53v21Z" stroke-width="0"/><path d="m516.67,84.12l3.45-11.09h2.71l-5.95,17.08c-.92,2.46-2.38,3.69-4.39,3.69l-.48-.04-.94-.18v-2.05l.68.05c.86,0,1.52-.17,2-.52s.87-.98,1.18-1.9l.56-1.5-5.28-14.63h2.76l3.69,11.09Z" stroke-width="0"/><path d="m532.91,77.84l1.01-9.93h10.2v2.34h-8.05l-.6,5.43c.98-.57,2.08-.86,3.32-.86,1.81,0,3.25.6,4.32,1.8s1.6,2.82,1.6,4.86-.55,3.67-1.66,4.85-2.65,1.77-4.64,1.77c-1.76,0-3.19-.49-4.31-1.46-1.11-.98-1.75-2.32-1.9-4.05h2.39c.15,1.14.56,2,1.22,2.58s1.52.87,2.6.87c1.18,0,2.1-.4,2.77-1.2s1-1.91,1-3.32c0-1.33-.36-2.4-1.09-3.21s-1.69-1.21-2.89-1.21c-1.1,0-1.97.24-2.6.72l-.67.55-2.02-.52Z" stroke-width="0"/><path d="m559.96,79.33c0,2.96-.51,5.16-1.52,6.6s-2.59,2.16-4.74,2.16-3.7-.7-4.72-2.11c-1.02-1.41-1.55-3.51-1.59-6.31v-3.38c0-2.93.51-5.1,1.52-6.52s2.6-2.13,4.76-2.13,3.72.69,4.73,2.06,1.53,3.49,1.56,6.35v3.28Zm-2.53-3.46c0-2.14-.3-3.7-.9-4.68s-1.55-1.47-2.86-1.47-2.24.49-2.83,1.46c-.59.98-.9,2.47-.92,4.5v4.05c0,2.15.31,3.74.94,4.76.62,1.03,1.57,1.54,2.84,1.54s2.18-.48,2.78-1.45c.61-.97.92-2.49.95-4.57v-4.14Z" stroke-width="0"/><path d="m569.79,80.3c0-2.31.53-4.14,1.6-5.5s2.48-2.04,4.24-2.04,3.21.64,4.22,1.91l.12-1.64h2.31v14.44c0,1.91-.57,3.42-1.7,4.53s-2.66,1.65-4.57,1.65c-1.07,0-2.11-.23-3.13-.68-1.02-.46-1.8-1.08-2.34-1.87l1.31-1.52c1.08,1.34,2.41,2.01,3.98,2.01,1.23,0,2.19-.35,2.88-1.04.69-.69,1.03-1.67,1.03-2.93v-1.27c-1.01,1.17-2.39,1.75-4.14,1.75s-3.13-.7-4.2-2.09c-1.07-1.39-1.61-3.29-1.61-5.7Zm2.54.29c0,1.67.34,2.98,1.03,3.93s1.64,1.43,2.87,1.43c1.59,0,2.77-.72,3.51-2.17v-6.75c-.77-1.41-1.94-2.12-3.49-2.12-1.23,0-2.19.48-2.88,1.44-.69.96-1.04,2.37-1.04,4.25Z" stroke-width="0"/><path d="m606.13,84.34l2.84-11.31h2.53l-4.31,14.79h-2.05l-3.6-11.21-3.5,11.21h-2.05l-4.29-14.79h2.52l2.91,11.07,3.45-11.07h2.04l3.51,11.31Z" stroke-width="0"/><path d="m614.08,69.11c0-.41.12-.76.38-1.04.25-.28.62-.42,1.11-.42s.87.14,1.12.42c.25.28.38.63.38,1.04s-.13.75-.38,1.03c-.26.27-.63.41-1.12.41s-.86-.14-1.11-.41c-.25-.27-.38-.62-.38-1.03Zm2.73,18.72h-2.53v-14.79h2.53v14.79Z" stroke-width="0"/><path d="m623.61,87.82h-2.53v-21h2.53v21Z" stroke-width="0"/><path d="m630.41,87.82h-2.53v-21h2.53v21Z" stroke-width="0"/><path d="m653.91,80.59c0,2.26-.52,4.08-1.56,5.45s-2.43,2.06-4.18,2.06c-1.87,0-3.31-.66-4.33-1.98l-.12,1.71h-2.32v-21h2.53v7.83c1.02-1.27,2.43-1.9,4.22-1.9s3.21.68,4.23,2.04,1.54,3.22,1.54,5.58v.22Zm-2.53-.29c0-1.72-.33-3.05-1-3.99-.67-.94-1.62-1.41-2.87-1.41-1.67,0-2.87.77-3.6,2.32v6.4c.77,1.55,1.98,2.32,3.62,2.32,1.21,0,2.16-.47,2.83-1.41.67-.94,1.01-2.35,1.01-4.24Z" stroke-width="0"/><path d="m663.23,88.1c-2.01,0-3.64-.66-4.89-1.98s-1.89-3.08-1.89-5.28v-.46c0-1.47.28-2.78.84-3.93s1.34-2.06,2.35-2.71c1.01-.65,2.1-.98,3.27-.98,1.92,0,3.42.63,4.48,1.9s1.6,3.08,1.6,5.44v1.05h-10.02c.04,1.46.46,2.64,1.28,3.53.82.9,1.85,1.35,3.11,1.35.89,0,1.65-.18,2.27-.55.62-.36,1.16-.85,1.63-1.45l1.54,1.2c-1.24,1.91-3.1,2.86-5.58,2.86Zm-.31-13.26c-1.02,0-1.88.37-2.57,1.11-.69.74-1.12,1.78-1.29,3.12h7.41v-.19c-.07-1.29-.42-2.28-1.04-2.99-.62-.71-1.46-1.06-2.52-1.06Z" stroke-width="0"/><path d="m681.61,87.82h-2.53v-21h2.53v21Z" stroke-width="0"/><path d="m691.8,88.1c-2.01,0-3.64-.66-4.89-1.98s-1.89-3.08-1.89-5.28v-.46c0-1.47.28-2.78.84-3.93s1.34-2.06,2.35-2.71c1.01-.65,2.1-.98,3.27-.98,1.92,0,3.42.63,4.48,1.9s1.6,3.08,1.6,5.44v1.05h-10.02c.04,1.46.46,2.64,1.28,3.53.82.9,1.85,1.35,3.11,1.35.89,0,1.65-.18,2.27-.55.62-.36,1.16-.85,1.63-1.45l1.54,1.2c-1.24,1.91-3.1,2.86-5.58,2.86Zm-.31-13.26c-1.02,0-1.88.37-2.57,1.11-.69.74-1.12,1.78-1.29,3.12h7.41v-.19c-.07-1.29-.42-2.28-1.04-2.99-.62-.71-1.46-1.06-2.52-1.06Z" stroke-width="0"/><path d="m701.73,87.82v-12.84h-2.34v-1.96h2.34v-1.52c0-1.59.42-2.81,1.27-3.68s2.05-1.3,3.6-1.3c.58,0,1.16.08,1.74.23l-.14,2.04c-.43-.08-.88-.12-1.37-.12-.82,0-1.45.24-1.9.72-.45.48-.67,1.17-.67,2.06v1.56h3.16v1.96h-3.16v12.84h-2.53Z" stroke-width="0"/><path d="m713.64,69.45v3.58h2.76v1.96h-2.76v9.19c0,.59.12,1.04.37,1.33.25.3.67.44,1.26.44.29,0,.69-.05,1.2-.16v2.04c-.67.18-1.31.27-1.94.27-1.13,0-1.98-.34-2.56-1.03s-.86-1.65-.86-2.91v-9.17h-2.69v-1.96h2.69v-3.58h2.53Z" stroke-width="0"/><path d="m947.59,467.46h-6.4v17.76h-2.61v-17.76h-6.38v-2.15h15.39v2.15Z" stroke-width="0"/><path d="m952.67,472.22c1.12-1.38,2.58-2.06,4.38-2.06,3.13,0,4.7,1.76,4.73,5.29v9.78h-2.53v-9.79c0-1.07-.25-1.85-.73-2.37s-1.22-.77-2.24-.77c-.82,0-1.54.22-2.16.66s-1.1,1.01-1.45,1.72v10.54h-2.53v-21h2.53v8Z" stroke-width="0"/><path d="m965.58,466.51c0-.41.13-.76.38-1.04s.62-.42,1.11-.42.87.14,1.12.42.38.63.38,1.04-.13.75-.38,1.03-.63.41-1.12.41-.86-.14-1.11-.41-.38-.62-.38-1.03Zm2.73,18.72h-2.53v-14.79h2.53v14.79Z" stroke-width="0"/><path d="m980.98,481.3c0-.68-.26-1.21-.77-1.59s-1.41-.7-2.69-.98-2.3-.6-3.05-.98-1.31-.84-1.67-1.37-.54-1.16-.54-1.89c0-1.21.51-2.24,1.54-3.08s2.34-1.26,3.93-1.26c1.68,0,3.04.43,4.08,1.3s1.57,1.97,1.57,3.32h-2.54c0-.69-.29-1.29-.88-1.79s-1.33-.75-2.22-.75-1.64.2-2.16.6-.78.92-.78,1.57c0,.61.24,1.07.72,1.38s1.36.61,2.62.89,2.29.62,3.07,1.01,1.36.86,1.74,1.42.57,1.22.57,2.02c0,1.32-.53,2.38-1.59,3.18s-2.43,1.2-4.12,1.2c-1.19,0-2.23-.21-3.14-.63s-1.62-1-2.14-1.76-.77-1.57-.77-2.44h2.53c.05.85.39,1.52,1.02,2.02s1.47.75,2.51.75c.96,0,1.73-.19,2.3-.58s.87-.9.87-1.55Z" stroke-width="0"/><path d="m997.16,466.85v3.58h2.76v1.96h-2.76v9.19c0,.59.12,1.04.37,1.33.25.3.67.44,1.26.44.29,0,.69-.05,1.2-.16v2.04c-.67.18-1.31.27-1.94.27-1.13,0-1.98-.34-2.56-1.03s-.86-1.65-.86-2.91v-9.17h-2.69v-1.96h2.69v-3.58h2.53Z" stroke-width="0"/><path d="m1002.89,466.51c0-.41.13-.76.38-1.04s.62-.42,1.11-.42.87.14,1.12.42.38.63.38,1.04-.13.75-.38,1.03-.63.41-1.12.41-.86-.14-1.11-.41-.38-.62-.38-1.03Zm2.73,18.72h-2.53v-14.79h2.53v14.79Z" stroke-width="0"/><path d="m1012.05,470.43l.07,1.64c1.08-1.28,2.55-1.91,4.39-1.91,2.07,0,3.48.79,4.22,2.38.49-.71,1.13-1.29,1.92-1.72s1.72-.66,2.8-.66c3.24,0,4.89,1.72,4.95,5.15v9.91h-2.53v-9.76c0-1.06-.24-1.85-.72-2.37-.48-.52-1.29-.79-2.43-.79-.94,0-1.72.28-2.34.84s-.98,1.31-1.08,2.26v9.82h-2.54v-9.69c0-2.15-1.05-3.23-3.16-3.23-1.66,0-2.79.71-3.4,2.12v10.8h-2.53v-14.79h2.39Z" stroke-width="0"/><path d="m1040.35,485.5c-2.01,0-3.64-.66-4.89-1.98s-1.89-3.08-1.89-5.28v-.46c0-1.47.28-2.78.84-3.93s1.34-2.06,2.35-2.71c1.01-.65,2.1-.98,3.27-.98,1.92,0,3.42.63,4.48,1.9s1.6,3.08,1.6,5.44v1.05h-10.02c.04,1.46.46,2.64,1.28,3.53.82.9,1.85,1.35,3.11,1.35.89,0,1.65-.18,2.27-.55.62-.36,1.16-.85,1.63-1.45l1.54,1.2c-1.24,1.91-3.1,2.86-5.58,2.86Zm-.31-13.26c-1.02,0-1.88.37-2.57,1.11-.69.74-1.12,1.78-1.29,3.12h7.41v-.19c-.07-1.29-.42-2.28-1.04-2.99-.62-.71-1.46-1.06-2.52-1.06Z" stroke-width="0"/><path d="m1055.99,466.51c0-.41.12-.76.38-1.04.25-.28.62-.42,1.11-.42s.87.14,1.12.42c.25.28.38.63.38,1.04s-.13.75-.38,1.03c-.26.27-.63.41-1.12.41s-.86-.14-1.11-.41c-.25-.27-.38-.62-.38-1.03Zm2.73,18.72h-2.53v-14.79h2.53v14.79Z" stroke-width="0"/><path d="m1071.39,481.3c0-.68-.26-1.21-.77-1.59-.52-.38-1.41-.7-2.69-.98-1.28-.27-2.3-.6-3.05-.98s-1.31-.84-1.67-1.37c-.36-.53-.54-1.16-.54-1.89,0-1.21.51-2.24,1.54-3.08s2.34-1.26,3.93-1.26c1.68,0,3.04.43,4.08,1.3,1.04.87,1.57,1.97,1.57,3.32h-2.54c0-.69-.29-1.29-.88-1.79s-1.33-.75-2.22-.75-1.64.2-2.16.6-.78.92-.78,1.57c0,.61.24,1.07.72,1.38.48.31,1.36.61,2.62.89,1.26.28,2.29.62,3.07,1.01.78.39,1.36.86,1.74,1.42.38.55.57,1.22.57,2.02,0,1.32-.53,2.38-1.59,3.18-1.06.8-2.43,1.2-4.12,1.2-1.19,0-2.23-.21-3.14-.63-.91-.42-1.62-1-2.14-1.76-.52-.75-.77-1.57-.77-2.44h2.53c.05.85.38,1.52,1.02,2.02.63.5,1.47.75,2.51.75.96,0,1.72-.19,2.3-.58.58-.39.87-.9.87-1.55Z" stroke-width="0"/><path d="m936.87,500.45v3.58h2.76v1.96h-2.76v9.19c0,.59.12,1.04.37,1.33.25.3.67.44,1.26.44.29,0,.69-.05,1.2-.16v2.04c-.67.18-1.31.27-1.94.27-1.13,0-1.98-.34-2.56-1.03s-.86-1.65-.86-2.91v-9.17h-2.69v-1.96h2.69v-3.58h2.53Z" stroke-width="0"/><path d="m945.11,505.82c1.12-1.38,2.58-2.06,4.38-2.06,3.13,0,4.7,1.76,4.73,5.29v9.78h-2.53v-9.79c0-1.07-.25-1.85-.73-2.37s-1.22-.77-2.24-.77c-.82,0-1.54.22-2.16.66s-1.1,1.01-1.45,1.72v10.54h-2.53v-21h2.53v8Z" stroke-width="0"/><path d="m964.15,519.1c-2.01,0-3.64-.66-4.89-1.98s-1.89-3.08-1.89-5.28v-.46c0-1.47.28-2.78.84-3.93s1.34-2.06,2.35-2.71,2.1-.98,3.27-.98c1.92,0,3.42.63,4.48,1.9s1.6,3.08,1.6,5.44v1.05h-10.02c.04,1.46.46,2.64,1.28,3.53s1.85,1.35,3.11,1.35c.89,0,1.65-.18,2.27-.55s1.16-.85,1.63-1.45l1.54,1.2c-1.24,1.91-3.1,2.86-5.58,2.86Zm-.31-13.26c-1.02,0-1.88.37-2.57,1.11s-1.12,1.78-1.29,3.12h7.41v-.19c-.07-1.29-.42-2.28-1.04-2.99s-1.46-1.06-2.52-1.06Z" stroke-width="0"/><path d="m982.3,505.82c1.12-1.38,2.58-2.06,4.38-2.06,3.13,0,4.7,1.76,4.73,5.29v9.78h-2.53v-9.79c0-1.07-.25-1.85-.73-2.37s-1.22-.77-2.24-.77c-.82,0-1.54.22-2.16.66s-1.1,1.01-1.45,1.72v10.54h-2.53v-21h2.53v8Z" stroke-width="0"/><path d="m1004.33,518.82c-.15-.29-.26-.81-.36-1.56-1.18,1.22-2.58,1.83-4.21,1.83-1.46,0-2.65-.41-3.59-1.24s-1.4-1.87-1.4-3.14c0-1.54.59-2.74,1.76-3.59s2.82-1.28,4.94-1.28h2.46v-1.16c0-.88-.26-1.59-.79-2.11s-1.31-.79-2.34-.79c-.9,0-1.66.23-2.27.68s-.92,1.01-.92,1.65h-2.54c0-.74.26-1.45.79-2.14s1.23-1.23,2.13-1.63,1.88-.6,2.96-.6c1.7,0,3.04.43,4.01,1.28s1.47,2.03,1.5,3.52v6.81c0,1.36.17,2.44.52,3.24v.22h-2.65Zm-4.2-1.93c.79,0,1.54-.21,2.26-.62s1.23-.94,1.54-1.6v-3.04h-1.98c-3.1,0-4.65.91-4.65,2.72,0,.79.26,1.41.79,1.86s1.21.67,2.04.67Z" stroke-width="0"/><path d="m1013.17,518.82h-2.53v-21h2.53v21Z" stroke-width="0"/><path d="m1018.46,518.82v-12.84h-2.34v-1.96h2.34v-1.52c0-1.59.42-2.81,1.27-3.68s2.05-1.3,3.6-1.3c.58,0,1.16.08,1.74.23l-.14,2.04c-.43-.08-.88-.12-1.37-.12-.82,0-1.45.24-1.9.72-.45.48-.67,1.17-.67,2.06v1.56h3.16v1.96h-3.16v12.84h-2.53Z" stroke-width="0"/><path d="m1036.62,518.82h-2.53v-21h2.53v21Z" stroke-width="0"/><path d="m1040.68,500.11c0-.41.12-.76.38-1.04.25-.28.62-.42,1.11-.42s.87.14,1.12.42c.25.28.38.63.38,1.04s-.13.75-.38,1.03c-.26.27-.63.41-1.12.41s-.86-.14-1.11-.41c-.25-.27-.38-.62-.38-1.03Zm2.73,18.72h-2.53v-14.79h2.53v14.79Z" stroke-width="0"/><path d="m1048.71,518.82v-12.84h-2.34v-1.96h2.34v-1.52c0-1.59.42-2.81,1.27-3.68s2.05-1.3,3.6-1.3c.58,0,1.16.08,1.74.23l-.14,2.04c-.43-.08-.88-.12-1.37-.12-.82,0-1.45.24-1.9.72-.45.48-.67,1.17-.67,2.06v1.56h3.16v1.96h-3.16v12.84h-2.53Z" stroke-width="0"/><path d="m1062.99,519.1c-2.01,0-3.64-.66-4.89-1.98s-1.89-3.08-1.89-5.28v-.46c0-1.47.28-2.78.84-3.93s1.34-2.06,2.35-2.71c1.01-.65,2.1-.98,3.27-.98,1.92,0,3.42.63,4.48,1.9s1.6,3.08,1.6,5.44v1.05h-10.02c.04,1.46.46,2.64,1.28,3.53.82.9,1.85,1.35,3.11,1.35.89,0,1.65-.18,2.27-.55.62-.36,1.16-.85,1.63-1.45l1.54,1.2c-1.24,1.91-3.1,2.86-5.58,2.86Zm-.31-13.26c-1.02,0-1.88.37-2.57,1.11-.69.74-1.12,1.78-1.29,3.12h7.41v-.19c-.07-1.29-.42-2.28-1.04-2.99-.62-.71-1.46-1.06-2.52-1.06Z" stroke-width="0"/><rect x="911" y="435.5" width="187" height="117" fill="none" stroke="#000" stroke-miterlimit="10" stroke-width="2"/><rect x="305" y="5.5" width="512" height="119" fill="none" stroke="#000" stroke-miterlimit="10" stroke-width="2"/><rect x="234.39" y="147.28" width="652.41" height="409.29" fill="#fff" stroke-width="0"/><line x1="234.26" y1="555.9" x2="886.55" y2="555.9" fill="none" stroke="#b1dded" stroke-miterlimit="10" stroke-width="2"/><line x1="234.26" y1="515.02" x2="886.55" y2="515.02" fill="none" stroke="#b1dded" stroke-miterlimit="10" stroke-width="2"/><line x1="234.26" y1="474.14" x2="886.55" y2="474.14" fill="none" stroke="#b1dded" stroke-miterlimit="10" stroke-width="2"/><line x1="234.26" y1="433.26" x2="886.55" y2="433.26" fill="none" stroke="#b1dded" stroke-miterlimit="10" stroke-width="2"/><line x1="234.26" y1="392.38" x2="886.55" y2="392.38" fill="none" stroke="#b1dded" stroke-miterlimit="10" stroke-width="2"/><line x1="234.26" y1="351.5" x2="886.55" y2="351.5" fill="none" stroke="#b1dded" stroke-miterlimit="10" stroke-width="2"/><line x1="234.26" y1="310.62" x2="886.55" y2="310.62" fill="none" stroke="#b1dded" stroke-miterlimit="10" stroke-width="2"/><line x1="234.26" y1="269.74" x2="886.55" y2="269.74" fill="none" stroke="#b1dded" stroke-miterlimit="10" stroke-width="2"/><line x1="234.26" y1="228.86" x2="886.55" y2="228.86" fill="none" stroke="#b1dded" stroke-miterlimit="10" stroke-width="2"/><line x1="234.26" y1="187.98" x2="886.55" y2="187.98" fill="none" stroke="#b1dded" stroke-miterlimit="10" stroke-width="2"/><line x1="234.26" y1="147.1" x2="886.55" y2="147.1" fill="none" stroke="#b1dded" stroke-miterlimit="10" stroke-width="2"/><line x1="234.17" y1="147.48" x2="234.17" y2="556.37" fill="none" stroke="#b1dded" stroke-miterlimit="10" stroke-width="2"/><line x1="336.83" y1="147.5" x2="336.83" y2="556.39" fill="none" stroke="#b1dded" stroke-miterlimit="10" stroke-width="2"/><line x1="439.49" y1="147.51" x2="439.49" y2="556.4" fill="none" stroke="#b1dded" stroke-miterlimit="10" stroke-width="2"/><line x1="542.15" y1="147.52" x2="542.15" y2="556.41" fill="none" stroke="#b1dded" stroke-miterlimit="10" stroke-width="2"/><line x1="644.81" y1="147.53" x2="644.81" y2="556.42" fill="none" stroke="#b1dded" stroke-miterlimit="10" stroke-width="2"/><line x1="747.47" y1="147.54" x2="747.47" y2="556.43" fill="none" stroke="#b1dded" stroke-miterlimit="10" stroke-width="2"/><line x1="850.13" y1="147.56" x2="850.13" y2="556.44" fill="none" stroke="#b1dded" stroke-miterlimit="10" stroke-width="2"/><line x1="235.46" y1="351.24" x2="238.46" y2="351.24" fill="none" stroke="#d12d32" stroke-linecap="round" stroke-linejoin="round" stroke-width="2"/><line x1="244.43" y1="351.24" x2="349.01" y2="351.24" fill="none" stroke="#d12d32" stroke-dasharray="0 0 5.98 5.98" stroke-linecap="round" stroke-linejoin="round" stroke-width="2"/><polyline points="352 351.24 355 351.24 355 354.24" fill="none" stroke="#d12d32" stroke-linecap="round" stroke-linejoin="round" stroke-width="2"/><line x1="355" y1="360.25" x2="355" y2="549.5" fill="none" stroke="#d12d32" stroke-dasharray="0 0 6.01 6.01" stroke-linecap="round" stroke-linejoin="round" stroke-width="2"/><line x1="355" y1="552.5" x2="355" y2="555.5" fill="none" stroke="#d12d32" stroke-linecap="round" stroke-linejoin="round" stroke-width="2"/><path d="m233.9,147.31c69.89,137.86,143.72,374.67,616.23,398.8" fill="none" stroke="#5c539c" stroke-miterlimit="10" stroke-width="2"/><polyline points="886.55 556.44 886.55 147.1 850.13 147.1" fill="none" stroke="#b1dded" stroke-miterlimit="10" stroke-width="2"/><polyline points="234.21 147.84 234.21 555.9 887.62 555.9" fill="none" stroke="#000" stroke-miterlimit="10" stroke-width="2"/><line x1="267.19" y1="555.79" x2="267.19" y2="575.76" fill="none" stroke="#000" stroke-miterlimit="10" stroke-width="2"/><line x1="301.48" y1="555.79" x2="301.48" y2="575.76" fill="none" stroke="#000" stroke-miterlimit="10" stroke-width="2"/><line x1="335.77" y1="555.79" x2="335.77" y2="575.76" fill="none" stroke="#000" stroke-miterlimit="10" stroke-width="2"/><line x1="370.06" y1="555.79" x2="370.06" y2="575.76" fill="none" stroke="#000" stroke-miterlimit="10" stroke-width="2"/><line x1="404.35" y1="555.79" x2="404.35" y2="575.76" fill="none" stroke="#000" stroke-miterlimit="10" stroke-width="2"/><line x1="438.64" y1="555.79" x2="438.64" y2="575.76" fill="none" stroke="#000" stroke-miterlimit="10" stroke-width="2"/><line x1="472.93" y1="555.79" x2="472.93" y2="575.76" fill="none" stroke="#000" stroke-miterlimit="10" stroke-width="2"/><line x1="507.22" y1="555.79" x2="507.22" y2="575.76" fill="none" stroke="#000" stroke-miterlimit="10" stroke-width="2"/><line x1="541.51" y1="555.79" x2="541.51" y2="575.76" fill="none" stroke="#000" stroke-miterlimit="10" stroke-width="2"/><line x1="575.81" y1="555.79" x2="575.81" y2="575.76" fill="none" stroke="#000" stroke-miterlimit="10" stroke-width="2"/><line x1="610.1" y1="555.79" x2="610.1" y2="575.76" fill="none" stroke="#000" stroke-miterlimit="10" stroke-width="2"/><line x1="644.39" y1="555.79" x2="644.39" y2="575.76" fill="none" stroke="#000" stroke-miterlimit="10" stroke-width="2"/><line x1="678.68" y1="555.79" x2="678.68" y2="575.76" fill="none" stroke="#000" stroke-miterlimit="10" stroke-width="2"/><line x1="712.97" y1="555.79" x2="712.97" y2="575.76" fill="none" stroke="#000" stroke-miterlimit="10" stroke-width="2"/><line x1="747.26" y1="555.79" x2="747.26" y2="575.76" fill="none" stroke="#000" stroke-miterlimit="10" stroke-width="2"/><line x1="781.55" y1="555.79" x2="781.55" y2="575.76" fill="none" stroke="#000" stroke-miterlimit="10" stroke-width="2"/><line x1="815.84" y1="555.79" x2="815.84" y2="575.76" fill="none" stroke="#000" stroke-miterlimit="10" stroke-width="2"/><line x1="850.13" y1="555.79" x2="850.13" y2="575.76" fill="none" stroke="#000" stroke-miterlimit="10" stroke-width="2"/><line x1="215.24" y1="515.03" x2="235.21" y2="515.03" fill="none" stroke="#000" stroke-miterlimit="10" stroke-width="2"/><line x1="215.24" y1="474.15" x2="235.21" y2="474.15" fill="none" stroke="#000" stroke-miterlimit="10" stroke-width="2"/><line x1="215.24" y1="433.27" x2="235.21" y2="433.27" fill="none" stroke="#000" stroke-miterlimit="10" stroke-width="2"/><line x1="215.24" y1="392.39" x2="235.21" y2="392.39" fill="none" stroke="#000" stroke-miterlimit="10" stroke-width="2"/><line x1="215.24" y1="351.51" x2="235.21" y2="351.51" fill="none" stroke="#000" stroke-miterlimit="10" stroke-width="2"/><line x1="215.24" y1="310.63" x2="235.21" y2="310.63" fill="none" stroke="#000" stroke-miterlimit="10" stroke-width="2"/><line x1="215.24" y1="269.75" x2="235.21" y2="269.75" fill="none" stroke="#000" stroke-miterlimit="10" stroke-width="2"/><line x1="215.24" y1="228.86" x2="235.21" y2="228.86" fill="none" stroke="#000" stroke-miterlimit="10" stroke-width="2"/><line x1="215.24" y1="187.98" x2="235.21" y2="187.98" fill="none" stroke="#000" stroke-miterlimit="10" stroke-width="2"/><line x1="215.24" y1="147.1" x2="235.21" y2="147.1" fill="none" stroke="#000" stroke-miterlimit="10" stroke-width="2"/><path d="m500.82,630.78h-5.66v15.4h-3.81v-15.4h-5.59v-3.08h15.06v3.08Z" stroke-width="0"/><path d="m502.73,628.88c0-.55.18-1,.55-1.36s.87-.53,1.5-.53,1.13.18,1.5.53.56.81.56,1.36-.19,1.02-.56,1.37-.87.53-1.49.53-1.12-.18-1.49-.53-.56-.81-.56-1.37Zm3.9,17.29h-3.68v-13.74h3.68v13.74Z" stroke-width="0"/><path d="m513.09,632.44l.11,1.54c.97-1.19,2.29-1.79,3.95-1.79,1.77,0,2.98.7,3.64,2.09.96-1.4,2.34-2.09,4.13-2.09,1.49,0,2.6.43,3.33,1.3.73.87,1.09,2.17,1.09,3.92v8.77h-3.68v-8.76c0-.78-.15-1.35-.46-1.71-.3-.36-.84-.54-1.61-.54-1.1,0-1.86.52-2.29,1.57v9.43s-3.66,0-3.66,0v-8.75c0-.8-.16-1.37-.47-1.73s-.85-.53-1.6-.53c-1.04,0-1.79.43-2.26,1.29v9.71h-3.67v-13.74h3.44Z" stroke-width="0"/><path d="m538.48,646.43c-2.01,0-3.65-.62-4.92-1.85s-1.9-2.88-1.9-4.94v-.36c0-1.38.27-2.61.8-3.7.53-1.09,1.29-1.93,2.27-2.51.98-.59,2.09-.88,3.35-.88,1.88,0,3.36.59,4.44,1.78s1.62,2.87,1.62,5.04v1.5h-8.75c.12.9.48,1.62,1.07,2.16s1.35.81,2.27.81c1.41,0,2.52-.51,3.31-1.54l1.8,2.02c-.55.78-1.29,1.39-2.23,1.82-.94.44-1.98.65-3.12.65Zm-.42-11.29c-.73,0-1.32.25-1.77.74s-.74,1.2-.87,2.12h5.1v-.29c-.02-.82-.24-1.45-.66-1.89s-1.02-.67-1.8-.67Z" stroke-width="0"/><path d="m552.85,638.66c0-1.94.26-3.78.77-5.54s1.28-3.3,2.29-4.65c1.01-1.35,2.1-2.29,3.28-2.81l.71,1.98c-1.24.91-2.2,2.33-2.89,4.24s-1.04,4.15-1.04,6.7v.39c0,2.56.34,4.81,1.03,6.73s1.65,3.36,2.91,4.3l-.71,1.94c-1.15-.52-2.22-1.43-3.22-2.74-.99-1.31-1.75-2.82-2.28-4.53s-.8-3.5-.84-5.36v-.67Z" stroke-width="0"/><path d="m566.94,640.98l2.54-8.54h3.94l-5.52,15.87-.3.72c-.82,1.79-2.18,2.69-4.06,2.69-.53,0-1.07-.08-1.62-.24v-2.78h.56c.69.01,1.21-.09,1.56-.3s.61-.56.81-1.05l.43-1.13-4.81-13.77h3.95l2.55,8.54Z" stroke-width="0"/><path d="m581.02,646.43c-2.01,0-3.65-.62-4.92-1.85s-1.9-2.88-1.9-4.94v-.36c0-1.38.27-2.61.8-3.7.53-1.09,1.29-1.93,2.27-2.51.98-.59,2.09-.88,3.35-.88,1.88,0,3.36.59,4.44,1.78s1.62,2.87,1.62,5.04v1.5h-8.75c.12.9.48,1.62,1.07,2.16s1.35.81,2.27.81c1.41,0,2.52-.51,3.31-1.54l1.8,2.02c-.55.78-1.29,1.39-2.23,1.82-.94.44-1.98.65-3.12.65Zm-.42-11.29c-.73,0-1.32.25-1.77.74s-.74,1.2-.87,2.12h5.1v-.29c-.02-.82-.24-1.45-.66-1.89s-1.02-.67-1.8-.67Z" stroke-width="0"/><path d="m596.71,646.18c-.17-.33-.29-.74-.37-1.23-.89.99-2.04,1.49-3.47,1.49-1.35,0-2.46-.39-3.35-1.17s-1.33-1.76-1.33-2.95c0-1.46.54-2.57,1.62-3.35s2.64-1.17,4.68-1.18h1.69v-.79c0-.63-.16-1.14-.49-1.52s-.84-.57-1.54-.57c-.62,0-1.1.15-1.45.44s-.53.7-.53,1.22h-3.67c0-.8.25-1.53.74-2.21s1.19-1.21,2.08-1.59c.9-.39,1.9-.58,3.02-.58,1.69,0,3.04.43,4.03,1.28.99.85,1.49,2.05,1.49,3.59v5.95c0,1.3.19,2.29.55,2.96v.22h-3.71Zm-3.03-2.55c.54,0,1.04-.12,1.5-.36.46-.24.8-.56,1.02-.97v-2.36h-1.37c-1.84,0-2.81.63-2.93,1.9v.22c-.01.46.15.83.47,1.13s.76.44,1.32.44Z" stroke-width="0"/><path d="m610.41,635.88c-.5-.07-.94-.1-1.32-.1-1.39,0-2.3.47-2.73,1.41v8.99h-3.67v-13.74h3.47l.1,1.64c.74-1.26,1.76-1.89,3.06-1.89.41,0,.79.05,1.14.17l-.05,3.53Z" stroke-width="0"/><path d="m619.61,642.38c0-.45-.22-.8-.67-1.06-.44-.26-1.16-.49-2.14-.69-3.27-.69-4.9-2.07-4.9-4.16,0-1.22.51-2.24,1.52-3.05,1.01-.82,2.33-1.22,3.97-1.22,1.74,0,3.14.41,4.18,1.23s1.57,1.89,1.57,3.2h-3.67c0-.52-.17-.96-.51-1.3-.34-.34-.87-.51-1.59-.51-.62,0-1.1.14-1.43.42s-.51.63-.51,1.07c0,.41.19.73.58.98.39.25,1.03.47,1.95.65.91.18,1.68.39,2.31.62,1.94.71,2.91,1.94,2.91,3.69,0,1.25-.54,2.27-1.61,3.04-1.07.78-2.46,1.16-4.16,1.16-1.15,0-2.17-.21-3.07-.62-.89-.41-1.59-.97-2.1-1.69-.51-.71-.76-1.49-.76-2.32h3.48c.03.65.27,1.15.72,1.5s1.05.52,1.8.52c.7,0,1.23-.13,1.59-.4.36-.27.54-.62.54-1.05Z" stroke-width="0"/><path d="m631.87,638.95c0,1.91-.27,3.75-.83,5.52s-1.34,3.33-2.37,4.68-2.14,2.29-3.31,2.79l-.71-1.94c1.2-.91,2.15-2.3,2.84-4.19s1.05-4.06,1.08-6.51v-.67c0-2.53-.34-4.76-1.03-6.69s-1.65-3.38-2.89-4.34l.71-1.94c1.15.5,2.24,1.41,3.26,2.72s1.81,2.84,2.37,4.58.86,3.55.88,5.42v.57Z" stroke-width="0"/><path d="m94.85,497.6h6.01v3.52h-17.06v-6.66c0-1.28.23-2.41.7-3.38s1.13-1.72,2-2.24,1.85-.79,2.95-.79c1.67,0,2.99.57,3.96,1.72s1.45,2.73,1.45,4.75v3.08Zm-2.85,0v-3.14c0-.93-.22-1.64-.66-2.13s-1.06-.73-1.88-.73-1.51.25-2.03.74-.78,1.17-.8,2.04v3.22h5.36Z" stroke-width="0"/><path d="m101.1,480.18c0,1.86-.57,3.37-1.71,4.54s-2.66,1.75-4.56,1.75h-.33c-1.27,0-2.41-.25-3.42-.74s-1.78-1.19-2.32-2.09-.81-1.93-.81-3.09c0-1.73.55-3.1,1.64-4.1s2.64-1.49,4.65-1.49h1.38v8.07c.83-.11,1.49-.44,1.99-.99s.75-1.25.75-2.09c0-1.3-.47-2.32-1.42-3.06l1.86-1.66c.72.51,1.28,1.2,1.68,2.06s.6,1.83.6,2.88Zm-10.42.39c0,.67.23,1.22.68,1.63.46.42,1.11.69,1.95.8v-4.71h-.27c-.75.02-1.34.22-1.75.61-.41.39-.62.95-.62,1.66Z" stroke-width="0"/><path d="m91.36,465.91c-.06.46-.09.87-.09,1.22,0,1.28.43,2.12,1.3,2.52h8.3v3.39h-12.68v-3.2l1.51-.09c-1.16-.68-1.75-1.62-1.75-2.82,0-.38.05-.73.15-1.05l3.26.05Z" stroke-width="0"/><path d="m98.37,459.23c0-.62-.17-1.13-.52-1.52s-.8-.59-1.37-.61v-3.18c.86,0,1.65.24,2.36.7s1.27,1.09,1.66,1.89.59,1.69.59,2.65c0,1.81-.58,3.24-1.73,4.29s-2.74,1.57-4.78,1.57h-.22c-1.95,0-3.51-.52-4.68-1.56s-1.75-2.46-1.75-4.28c0-1.59.45-2.86,1.35-3.81s2.1-1.44,3.6-1.46v3.18c-.66.02-1.2.22-1.61.61-.41.39-.62.91-.62,1.55,0,.79.29,1.38.86,1.79.57.4,1.51.6,2.8.6h.35c1.31,0,2.25-.2,2.82-.6.57-.4.86-1,.86-1.82Z" stroke-width="0"/><path d="m101.1,446.16c0,1.86-.57,3.37-1.71,4.54s-2.66,1.75-4.56,1.75h-.33c-1.27,0-2.41-.25-3.42-.74s-1.78-1.19-2.32-2.09-.81-1.93-.81-3.09c0-1.73.55-3.1,1.64-4.1s2.64-1.49,4.65-1.49h1.38v8.07c.83-.11,1.49-.44,1.99-.99s.75-1.25.75-2.09c0-1.3-.47-2.32-1.42-3.06l1.86-1.66c.72.51,1.28,1.2,1.68,2.06s.6,1.83.6,2.88Zm-10.42.39c0,.67.23,1.22.68,1.63.46.42,1.11.69,1.95.8v-4.71h-.27c-.75.02-1.34.22-1.75.61-.41.39-.62.95-.62,1.66Z" stroke-width="0"/><path d="m88.19,435.9l1.46-.11c-1.13-.91-1.7-2.12-1.7-3.64,0-1.34.39-2.34,1.18-3s1.97-.99,3.54-1.01h8.19v3.39h-8.11c-.72,0-1.24.16-1.56.47s-.49.83-.49,1.56c0,.95.41,1.67,1.22,2.14h8.94v3.39h-12.68v-3.19Z" stroke-width="0"/><path d="m85.07,421.52h3.12v-2.17h2.48v2.17h6.33c.47,0,.8-.09,1.01-.27s.3-.52.3-1.03c0-.38-.03-.71-.08-1h2.57c.2.66.3,1.35.3,2.05,0,2.38-1.2,3.59-3.6,3.63h-6.83v1.85h-2.48v-1.85h-3.12v-3.39Z" stroke-width="0"/><path d="m100.87,410.12c-.3.16-.68.27-1.14.34.91.82,1.37,1.89,1.37,3.2,0,1.24-.36,2.27-1.08,3.09s-1.62,1.22-2.72,1.22c-1.34,0-2.38-.5-3.09-1.49s-1.08-2.44-1.09-4.32v-1.56h-.73c-.59,0-1.05.15-1.41.45s-.53.78-.53,1.42c0,.57.14,1.02.41,1.34s.65.49,1.12.49v3.39c-.73,0-1.41-.23-2.04-.68s-1.12-1.09-1.47-1.92-.53-1.76-.53-2.79c0-1.56.39-2.8,1.18-3.72s1.89-1.38,3.31-1.38h5.5c1.2,0,2.11-.18,2.73-.5h.2v3.42Zm-2.36,2.8c0-.5-.11-.96-.33-1.38s-.52-.73-.9-.94h-2.18v1.27c0,1.7.59,2.6,1.76,2.71h.2c.42.01.77-.14,1.04-.43s.41-.7.41-1.22Z" stroke-width="0"/><path d="m94.43,405.09c-1.95,0-3.51-.46-4.7-1.39s-1.78-2.17-1.78-3.74c0-1.39.48-2.47,1.43-3.25l-1.2-.14v-3.07h12.26c1.11,0,2.07.25,2.89.76s1.45,1.21,1.88,2.13.64,1.98.64,3.21c0,.93-.19,1.84-.56,2.72s-.85,1.55-1.44,2l-2.06-1.5c.95-.84,1.42-1.87,1.42-3.07,0-.9-.24-1.6-.72-2.1s-1.16-.75-2.04-.75h-.68c.88.78,1.32,1.81,1.32,3.08,0,1.52-.6,2.76-1.79,3.7s-2.77,1.41-4.74,1.41h-.14Zm.25-3.39c1.15,0,2.05-.23,2.71-.69s.98-1.09.98-1.9c0-1.03-.39-1.77-1.16-2.21h-5.34c-.77.45-1.16,1.18-1.16,2.19,0,.81.33,1.45,1,1.92s1.66.7,2.98.7Z" stroke-width="0"/><path d="m101.1,385.07c0,1.86-.57,3.37-1.71,4.54s-2.66,1.75-4.56,1.75h-.33c-1.27,0-2.41-.25-3.42-.74s-1.78-1.19-2.32-2.09-.81-1.93-.81-3.09c0-1.73.55-3.1,1.64-4.1s2.64-1.49,4.65-1.49h1.38v8.07c.83-.11,1.49-.44,1.99-.99s.75-1.25.75-2.09c0-1.3-.47-2.32-1.42-3.06l1.86-1.66c.72.51,1.28,1.2,1.68,2.06s.6,1.83.6,2.88Zm-10.42.39c0,.67.23,1.22.68,1.63.46.42,1.11.69,1.95.8v-4.71h-.27c-.75.02-1.34.22-1.75.61-.41.39-.62.95-.62,1.66Z" stroke-width="0"/><path d="m94.41,372.48c-1.26,0-2.38-.24-3.36-.73s-1.75-1.18-2.29-2.09-.81-1.97-.81-3.17c0-1.71.52-3.11,1.57-4.19s2.47-1.69,4.27-1.81l.87-.02c1.95,0,3.51.54,4.68,1.63s1.76,2.54,1.76,4.37-.59,3.29-1.76,4.38-2.77,1.63-4.78,1.63h-.15Zm.24-3.39c1.21,0,2.13-.23,2.76-.68s.96-1.1.96-1.95-.31-1.46-.94-1.92-1.64-.69-3.02-.69c-1.18,0-2.1.23-2.75.69s-.97,1.11-.97,1.95.32,1.47.97,1.92,1.65.68,3,.68Z" stroke-width="0"/><path d="m100.87,357.46h-10.2v1.89h-2.48v-1.89h-1.08c-1.42,0-2.53-.41-3.31-1.22s-1.18-1.96-1.18-3.43c0-.47.08-1.04.23-1.72l2.62.04c-.07.28-.11.62-.11,1.03,0,1.27.6,1.91,1.79,1.91h1.02v-2.52h2.48v2.52h10.2v3.4Z" stroke-width="0"/><path d="m92.72,329.57c1.68,0,3.15.3,4.42.89s2.24,1.44,2.93,2.55,1.03,2.37,1.03,3.8-.34,2.68-1.02,3.79-1.65,1.97-2.91,2.58-2.71.92-4.35.93h-.84c-1.68,0-3.16-.3-4.44-.91s-2.26-1.46-2.94-2.57-1.03-2.37-1.03-3.79.34-2.69,1.03-3.79,1.66-1.96,2.94-2.57,2.75-.91,4.42-.91h.76Zm-.77,3.56c-1.79,0-3.15.32-4.08.96s-1.39,1.55-1.39,2.74.46,2.09,1.38,2.73,2.26.96,4.04.97h.83c1.74,0,3.09-.32,4.05-.96s1.44-1.56,1.44-2.77-.46-2.09-1.39-2.72-2.28-.95-4.05-.96h-.83Z" stroke-width="0"/><path d="m91.36,320.11c-.06.46-.09.87-.09,1.22,0,1.28.43,2.12,1.3,2.52h8.3v3.39h-12.68v-3.2l1.51-.09c-1.16-.68-1.75-1.62-1.75-2.82,0-.38.05-.73.15-1.05l3.26.05Z" stroke-width="0"/><path d="m84.91,318.5c-.51,0-.93-.17-1.25-.51s-.49-.8-.49-1.39.16-1.04.49-1.38.75-.52,1.25-.52.94.17,1.27.52.49.81.49,1.38-.16,1.03-.49,1.38-.75.52-1.27.52Zm15.96-3.6v3.4h-12.68v-3.4h12.68Z" stroke-width="0"/><path d="m94.43,312.61c-1.95,0-3.51-.46-4.7-1.39s-1.78-2.17-1.78-3.74c0-1.39.48-2.47,1.43-3.25l-1.2-.14v-3.07h12.26c1.11,0,2.07.25,2.89.76s1.45,1.21,1.88,2.13.64,1.98.64,3.21c0,.93-.19,1.84-.56,2.72s-.85,1.55-1.44,2l-2.06-1.5c.95-.84,1.42-1.87,1.42-3.07,0-.9-.24-1.6-.72-2.1s-1.16-.75-2.04-.75h-.68c.88.78,1.32,1.81,1.32,3.08,0,1.52-.6,2.76-1.79,3.7s-2.77,1.41-4.74,1.41h-.14Zm.25-3.39c1.15,0,2.05-.23,2.71-.69s.98-1.09.98-1.9c0-1.03-.39-1.77-1.16-2.21h-5.34c-.77.45-1.16,1.18-1.16,2.19,0,.81.33,1.45,1,1.92s1.66.7,2.98.7Z" stroke-width="0"/><path d="m84.91,298.44c-.51,0-.93-.17-1.25-.51s-.49-.8-.49-1.39.16-1.04.49-1.38.75-.52,1.25-.52.94.17,1.27.52.49.81.49,1.38-.16,1.03-.49,1.38-.75.52-1.27.52Zm15.96-3.6v3.4h-12.68v-3.4h12.68Z" stroke-width="0"/><path d="m88.19,288.94l1.46-.11c-1.13-.91-1.7-2.12-1.7-3.64,0-1.34.39-2.34,1.18-3s1.97-.99,3.54-1.01h8.19v3.39h-8.11c-.72,0-1.24.16-1.56.47s-.49.83-.49,1.56c0,.95.41,1.67,1.22,2.14h8.94v3.39h-12.68v-3.19Z" stroke-width="0"/><path d="m100.87,271.27c-.3.16-.68.27-1.14.34.91.82,1.37,1.89,1.37,3.2,0,1.24-.36,2.27-1.08,3.09s-1.62,1.22-2.72,1.22c-1.34,0-2.38-.5-3.09-1.49s-1.08-2.44-1.09-4.32v-1.56h-.73c-.59,0-1.05.15-1.41.45s-.53.78-.53,1.42c0,.57.14,1.02.41,1.34s.65.49,1.12.49v3.39c-.73,0-1.41-.23-2.04-.68s-1.12-1.09-1.47-1.92-.53-1.76-.53-2.79c0-1.56.39-2.8,1.18-3.72s1.89-1.38,3.31-1.38h5.5c1.2,0,2.11-.18,2.73-.5h.2v3.42Zm-2.36,2.8c0-.5-.11-.96-.33-1.38s-.52-.73-.9-.94h-2.18v1.27c0,1.7.59,2.6,1.76,2.71h.2c.42.01.77-.14,1.04-.43s.41-.7.41-1.22Z" stroke-width="0"/><path d="m100.87,262.17v3.4h-18v-3.4h18Z" stroke-width="0"/><path d="m95.18,239.79c1.84.13,3.28.81,4.34,2.03s1.58,2.83,1.58,4.83c0,2.19-.74,3.91-2.21,5.16s-3.49,1.88-6.06,1.88h-1.04c-1.64,0-3.09-.29-4.34-.87s-2.21-1.4-2.88-2.48-1-2.32-1-3.74c0-1.97.53-3.55,1.58-4.76s2.54-1.9,4.44-2.09v3.52c-1.1.09-1.9.39-2.4.92s-.74,1.33-.74,2.41c0,1.17.42,2.05,1.26,2.63s2.14.88,3.91.9h1.29c1.84,0,3.19-.28,4.04-.84s1.28-1.44,1.28-2.64c0-1.09-.25-1.9-.74-2.43s-1.26-.84-2.3-.92v-3.52Z" stroke-width="0"/><path d="m94.92,231.12v6.6h-2.73v-6.6h2.73Z" stroke-width="0"/><path d="m100.87,220.31v3.39h-13.05l1.25,4.04h-2.75l-2.53-7.07v-.36h17.09Z" stroke-width="0"/><path d="m94.44,204.75v-1.93h2.73v1.93h3.69v3.39h-3.69v7l-2.13.15-11.24-7.11v-3.42h10.64Zm0,7.16v-3.77h-6.02l.39.22,5.64,3.55Z" stroke-width="0"/><path d="m124.62,462.72v2.8h6.25v3.52h-17.06v-6.34c0-2.02.45-3.57,1.35-4.66s2.17-1.64,3.81-1.64c1.16,0,2.13.25,2.91.76s1.4,1.27,1.86,2.29l6.97-3.69h.16v3.77l-6.25,3.2Zm-2.85,2.8v-2.84c0-.88-.22-1.57-.67-2.05s-1.07-.73-1.86-.73-1.44.23-1.9.69-.69,1.16-.69,2.1v2.82h5.12Z" stroke-width="0"/><path d="m131.1,448.11c0,1.86-.57,3.37-1.71,4.54s-2.66,1.75-4.56,1.75h-.33c-1.27,0-2.41-.25-3.42-.74s-1.78-1.19-2.32-2.09-.81-1.93-.81-3.09c0-1.73.55-3.1,1.64-4.1s2.64-1.49,4.65-1.49h1.38v8.07c.83-.11,1.49-.44,1.99-.99s.75-1.25.75-2.09c0-1.3-.47-2.32-1.42-3.06l1.86-1.66c.72.51,1.28,1.2,1.68,2.06s.6,1.83.6,2.88Zm-10.42.39c0,.67.23,1.22.68,1.63.46.42,1.11.69,1.95.8v-4.71h-.27c-.75.02-1.34.22-1.75.61-.41.39-.62.95-.62,1.66Z" stroke-width="0"/><path d="m118.19,437.79l1.42-.11c-1.1-.9-1.65-2.11-1.65-3.64,0-1.63.64-2.75,1.93-3.36-1.29-.89-1.93-2.16-1.93-3.81,0-1.38.4-2.4,1.2-3.07s2.01-1.01,3.62-1.01h8.1v3.4h-8.09c-.72,0-1.24.14-1.58.42s-.5.78-.5,1.49c0,1.02.48,1.72,1.45,2.11h8.71s0,3.38,0,3.38h-8.07c-.73,0-1.27.14-1.59.43s-.49.78-.49,1.48c0,.96.4,1.66,1.2,2.09h8.96v3.39h-12.68v-3.18Z" stroke-width="0"/><path d="m130.87,412.85c-.3.16-.68.27-1.14.34.91.82,1.37,1.89,1.37,3.2,0,1.24-.36,2.27-1.08,3.09s-1.62,1.22-2.72,1.22c-1.34,0-2.38-.5-3.09-1.49s-1.08-2.44-1.09-4.32v-1.56h-.73c-.59,0-1.05.15-1.41.45s-.53.78-.53,1.42c0,.57.14,1.02.41,1.34s.65.49,1.12.49v3.39c-.73,0-1.41-.23-2.04-.68s-1.12-1.09-1.47-1.92-.53-1.76-.53-2.79c0-1.56.39-2.8,1.18-3.72s1.89-1.38,3.31-1.38h5.5c1.2,0,2.11-.18,2.73-.5h.2v3.42Zm-2.36,2.8c0-.5-.11-.96-.33-1.38s-.52-.73-.9-.94h-2.18v1.27c0,1.7.59,2.6,1.76,2.71h.2c.42.01.77-.14,1.04-.43s.41-.7.41-1.22Z" stroke-width="0"/><path d="m114.91,407.35c-.51,0-.93-.17-1.25-.51s-.49-.8-.49-1.39.16-1.04.49-1.38.75-.52,1.25-.52.94.17,1.27.52.49.81.49,1.38-.16,1.03-.49,1.38-.75.52-1.27.52Zm15.96-3.6v3.4h-12.68v-3.4h12.68Z" stroke-width="0"/><path d="m118.19,397.85l1.46-.11c-1.13-.91-1.7-2.12-1.7-3.64,0-1.34.39-2.34,1.18-3s1.97-.99,3.54-1.01h8.19v3.39h-8.11c-.72,0-1.24.16-1.56.47s-.49.83-.49,1.56c0,.95.41,1.67,1.22,2.14h8.94v3.39h-12.68v-3.19Z" stroke-width="0"/><path d="m114.91,387.54c-.51,0-.93-.17-1.25-.51s-.49-.8-.49-1.39.16-1.04.49-1.38.75-.52,1.25-.52.94.17,1.27.52.49.81.49,1.38-.16,1.03-.49,1.38-.75.52-1.27.52Zm15.96-3.6v3.4h-12.68v-3.4h12.68Z" stroke-width="0"/><path d="m118.19,378.04l1.46-.11c-1.13-.91-1.7-2.12-1.7-3.64,0-1.34.39-2.34,1.18-3s1.97-.99,3.54-1.01h8.19v3.39h-8.11c-.72,0-1.24.16-1.56.47s-.49.83-.49,1.56c0,.95.41,1.67,1.22,2.14h8.94v3.39h-12.68v-3.19Z" stroke-width="0"/><path d="m124.43,368.21c-1.95,0-3.51-.46-4.7-1.39s-1.78-2.17-1.78-3.74c0-1.39.48-2.47,1.43-3.25l-1.2-.14v-3.07h12.26c1.11,0,2.07.25,2.89.76s1.45,1.21,1.88,2.13.64,1.98.64,3.21c0,.93-.19,1.84-.56,2.72s-.85,1.55-1.44,2l-2.06-1.5c.95-.84,1.42-1.87,1.42-3.07,0-.9-.24-1.6-.72-2.1s-1.16-.75-2.04-.75h-.68c.88.78,1.32,1.81,1.32,3.08,0,1.52-.6,2.76-1.79,3.7s-2.77,1.41-4.74,1.41h-.14Zm.25-3.39c1.15,0,2.05-.23,2.71-.69s.98-1.09.98-1.9c0-1.03-.39-1.77-1.16-2.21h-5.34c-.77.45-1.16,1.18-1.16,2.19,0,.81.33,1.45,1,1.92s1.66.7,2.98.7Z" stroke-width="0"/><path d="m114.91,348.06c-.51,0-.93-.17-1.25-.51s-.49-.8-.49-1.39.16-1.04.49-1.38.75-.52,1.25-.52.94.17,1.27.52.49.81.49,1.38-.16,1.03-.49,1.38-.75.52-1.27.52Zm15.96-3.6v3.4h-12.68v-3.4h12.68Z" stroke-width="0"/><path d="m118.19,338.56l1.46-.11c-1.13-.91-1.7-2.12-1.7-3.64,0-1.34.39-2.34,1.18-3s1.97-.99,3.54-1.01h8.19v3.39h-8.11c-.72,0-1.24.16-1.56.47s-.49.83-.49,1.56c0,.95.41,1.67,1.22,2.14h8.94v3.39h-12.68v-3.19Z" stroke-width="0"/><path d="m113.8,317.44l12.38-4.38-12.38-4.36v-4.62h17.06v3.53h-4.66l-8.05-.35,12.71,4.61v2.41l-12.7,4.59,8.04-.35h4.66v3.52h-17.06v-4.59Z" stroke-width="0"/><path d="m130.87,293.89c-.3.16-.68.27-1.14.34.91.82,1.37,1.89,1.37,3.2,0,1.24-.36,2.27-1.08,3.09s-1.62,1.22-2.72,1.22c-1.34,0-2.38-.5-3.09-1.49s-1.08-2.44-1.09-4.32v-1.56h-.73c-.59,0-1.05.15-1.41.45s-.53.78-.53,1.42c0,.57.14,1.02.41,1.34s.65.49,1.12.49v3.39c-.73,0-1.41-.23-2.04-.68s-1.12-1.09-1.47-1.92-.53-1.76-.53-2.79c0-1.56.39-2.8,1.18-3.72s1.89-1.38,3.31-1.38h5.5c1.2,0,2.11-.18,2.73-.5h.2v3.42Zm-2.36,2.8c0-.5-.11-.96-.33-1.38s-.52-.73-.9-.94h-2.18v1.27c0,1.7.59,2.6,1.76,2.71h.2c.42.01.77-.14,1.04-.43s.41-.7.41-1.22Z" stroke-width="0"/><path d="m115.07,284.31h3.12v-2.17h2.48v2.17h6.33c.47,0,.8-.09,1.01-.27s.3-.52.3-1.03c0-.38-.03-.71-.08-1h2.57c.2.66.3,1.35.3,2.05,0,2.38-1.2,3.59-3.6,3.63h-6.83v1.85h-2.48v-1.85h-3.12v-3.39Z" stroke-width="0"/><path d="m131.1,274.42c0,1.86-.57,3.37-1.71,4.54s-2.66,1.75-4.56,1.75h-.33c-1.27,0-2.41-.25-3.42-.74s-1.78-1.19-2.32-2.09-.81-1.93-.81-3.09c0-1.73.55-3.1,1.64-4.1s2.64-1.49,4.65-1.49h1.38v8.07c.83-.11,1.49-.44,1.99-.99s.75-1.25.75-2.09c0-1.3-.47-2.32-1.42-3.06l1.86-1.66c.72.51,1.28,1.2,1.68,2.06s.6,1.83.6,2.88Zm-10.42.39c0,.67.23,1.22.68,1.63.46.42,1.11.69,1.95.8v-4.71h-.27c-.75.02-1.34.22-1.75.61-.41.39-.62.95-.62,1.66Z" stroke-width="0"/><path d="m121.36,260.16c-.06.46-.09.87-.09,1.22,0,1.28.43,2.12,1.3,2.52h8.3v3.39h-12.68v-3.2l1.51-.09c-1.16-.68-1.75-1.62-1.75-2.82,0-.38.05-.73.15-1.05l3.26.05Z" stroke-width="0"/><path d="m114.91,258.56c-.51,0-.93-.17-1.25-.51s-.49-.8-.49-1.39.16-1.04.49-1.38.75-.52,1.25-.52.94.17,1.27.52.49.81.49,1.38-.16,1.03-.49,1.38-.75.52-1.27.52Zm15.96-3.6v3.4h-12.68v-3.4h12.68Z" stroke-width="0"/><path d="m130.87,244.82c-.3.16-.68.27-1.14.34.91.82,1.37,1.89,1.37,3.2,0,1.24-.36,2.27-1.08,3.09s-1.62,1.22-2.72,1.22c-1.34,0-2.38-.5-3.09-1.49s-1.08-2.44-1.09-4.32v-1.56h-.73c-.59,0-1.05.15-1.41.45s-.53.78-.53,1.42c0,.57.14,1.02.41,1.34s.65.49,1.12.49v3.39c-.73,0-1.41-.23-2.04-.68s-1.12-1.09-1.47-1.92-.53-1.76-.53-2.79c0-1.56.39-2.8,1.18-3.72s1.89-1.38,3.31-1.38h5.5c1.2,0,2.11-.18,2.73-.5h.2v3.42Zm-2.36,2.8c0-.5-.11-.96-.33-1.38s-.52-.73-.9-.94h-2.18v1.27c0,1.7.59,2.6,1.76,2.71h.2c.42.01.77-.14,1.04-.43s.41-.7.41-1.22Z" stroke-width="0"/><path d="m130.87,235.73v3.4h-18v-3.4h18Z" stroke-width="0"/><path d="m172.02,158.07h-2.12v-14.45l-4.25,1.61v-1.97l6.05-2.33h.33v17.14Z" fill="#212728" stroke-width="0"/><path d="m188.62,150.79c0,2.54-.42,4.43-1.27,5.66-.84,1.23-2.16,1.85-3.96,1.85s-3.08-.6-3.94-1.81c-.85-1.21-1.29-3.01-1.32-5.41v-2.89c0-2.51.42-4.37,1.27-5.59s2.17-1.83,3.97-1.83,3.1.59,3.95,1.76c.84,1.18,1.28,2.99,1.3,5.44v2.81Zm-2.11-2.96c0-1.84-.25-3.17-.75-4.01s-1.3-1.26-2.38-1.26-1.87.42-2.36,1.25c-.49.84-.75,2.12-.76,3.86v3.47c0,1.84.26,3.21.78,4.08s1.31,1.32,2.37,1.32,1.82-.41,2.32-1.24.77-2.13.79-3.91v-3.55Z" fill="#212728" stroke-width="0"/><path d="m201.73,150.79c0,2.54-.42,4.43-1.27,5.66-.84,1.23-2.16,1.85-3.96,1.85s-3.08-.6-3.94-1.81c-.85-1.21-1.29-3.01-1.32-5.41v-2.89c0-2.51.42-4.37,1.27-5.59s2.17-1.83,3.97-1.83,3.1.59,3.95,1.76c.84,1.18,1.28,2.99,1.3,5.44v2.81Zm-2.11-2.96c0-1.84-.25-3.17-.75-4.01s-1.3-1.26-2.38-1.26-1.87.42-2.36,1.25c-.49.84-.75,2.12-.76,3.86v3.47c0,1.84.26,3.21.78,4.08s1.31,1.32,2.37,1.32,1.82-.41,2.32-1.24.77-2.13.79-3.91v-3.55Z" fill="#212728" stroke-width="0"/><path d="m186.29,191.09c-.44.54-.97.97-1.58,1.3s-1.28.49-2.01.49c-.96,0-1.79-.24-2.5-.73-.71-.48-1.26-1.17-1.65-2.04-.39-.88-.58-1.85-.58-2.91,0-1.14.21-2.17.63-3.08.42-.91,1.02-1.61,1.8-2.1.78-.48,1.68-.73,2.72-.73,1.64,0,2.94.63,3.88,1.89s1.42,2.98,1.42,5.16v.63c0,3.32-.64,5.74-1.92,7.27-1.28,1.53-3.21,2.31-5.78,2.35h-.41v-1.84h.44c1.74-.03,3.08-.5,4.02-1.4.94-.9,1.44-2.33,1.53-4.28Zm-3.25,0c.71,0,1.36-.22,1.96-.67s1.03-1,1.31-1.65v-.87c0-1.42-.3-2.58-.9-3.47-.6-.89-1.36-1.34-2.28-1.34s-1.67.37-2.24,1.1-.84,1.69-.84,2.89.27,2.12.82,2.88c.54.75,1.27,1.13,2.18,1.13Z" fill="#212728" stroke-width="0"/><path d="m201.73,191.31c0,2.54-.42,4.43-1.27,5.66-.84,1.23-2.16,1.85-3.96,1.85s-3.08-.6-3.94-1.81c-.85-1.21-1.29-3.01-1.32-5.41v-2.89c0-2.51.42-4.37,1.27-5.59s2.17-1.83,3.97-1.83,3.1.59,3.95,1.76c.84,1.18,1.28,2.99,1.3,5.44v2.81Zm-2.11-2.96c0-1.84-.25-3.17-.75-4.01s-1.3-1.26-2.38-1.26-1.87.42-2.36,1.25c-.49.84-.75,2.12-.76,3.86v3.47c0,1.84.26,3.21.78,4.08s1.31,1.32,2.37,1.32,1.82-.41,2.32-1.24.77-2.13.79-3.91v-3.55Z" fill="#212728" stroke-width="0"/><path d="m188.27,226.5c0,.85-.22,1.61-.66,2.27-.44.66-1.03,1.18-1.77,1.56.87.38,1.55.94,2.06,1.68.51.73.76,1.57.76,2.5,0,1.48-.48,2.65-1.45,3.53-.97.88-2.25,1.31-3.83,1.31s-2.88-.44-3.84-1.32c-.96-.88-1.44-2.05-1.44-3.52,0-.92.25-1.75.74-2.5.49-.74,1.17-1.3,2.04-1.69-.74-.38-1.32-.89-1.75-1.56s-.64-1.42-.64-2.26c0-1.44.45-2.58,1.35-3.42.9-.84,2.08-1.27,3.55-1.27s2.64.42,3.54,1.27c.9.84,1.35,1.98,1.35,3.42Zm-1.72,7.96c0-.95-.29-1.73-.88-2.33-.59-.6-1.36-.9-2.31-.9s-1.71.3-2.29.89c-.57.59-.86,1.38-.86,2.34s.28,1.73.84,2.29,1.34.83,2.33.83,1.76-.28,2.33-.84c.56-.56.84-1.32.84-2.28Zm-3.17-10.86c-.83,0-1.5.26-2.01.79s-.77,1.24-.77,2.15.25,1.57.76,2.1c.51.54,1.18.8,2.02.8s1.52-.27,2.02-.8.76-1.24.76-2.1-.26-1.57-.79-2.12-1.19-.82-2-.82Z" fill="#212728" stroke-width="0"/><path d="m201.73,231.83c0,2.54-.42,4.43-1.27,5.66-.84,1.23-2.16,1.85-3.96,1.85s-3.08-.6-3.94-1.81c-.85-1.21-1.29-3.01-1.32-5.41v-2.89c0-2.51.42-4.37,1.27-5.59s2.17-1.83,3.97-1.83,3.1.59,3.95,1.76c.84,1.18,1.28,2.99,1.3,5.44v2.81Zm-2.11-2.96c0-1.84-.25-3.17-.75-4.01s-1.3-1.26-2.38-1.26-1.87.42-2.36,1.25c-.49.84-.75,2.12-.76,3.86v3.47c0,1.84.26,3.21.78,4.08s1.31,1.32,2.37,1.32,1.82-.41,2.32-1.24.77-2.13.79-3.91v-3.55Z" fill="#212728" stroke-width="0"/><path d="m188.92,263.78l-6.88,15.84h-2.21l6.86-15.28h-8.99v-1.78h11.23v1.22Z" fill="#212728" stroke-width="0"/><path d="m201.73,272.35c0,2.54-.42,4.43-1.27,5.66-.84,1.23-2.16,1.85-3.96,1.85s-3.08-.6-3.94-1.81c-.85-1.21-1.29-3.01-1.32-5.41v-2.89c0-2.51.42-4.37,1.27-5.59s2.17-1.83,3.97-1.83,3.1.59,3.95,1.76c.84,1.18,1.28,2.99,1.3,5.44v2.81Zm-2.11-2.96c0-1.84-.25-3.17-.75-4.01s-1.3-1.26-2.38-1.26-1.87.42-2.36,1.25c-.49.84-.75,2.12-.76,3.86v3.47c0,1.84.26,3.21.78,4.08s1.31,1.32,2.37,1.32,1.82-.41,2.32-1.24.77-2.13.79-3.91v-3.55Z" fill="#212728" stroke-width="0"/><path d="m186.48,303.07v1.84h-.39c-1.64.03-2.95.53-3.92,1.5s-1.54,2.33-1.69,4.09c.87-1.03,2.07-1.55,3.58-1.55s2.6.52,3.46,1.57c.86,1.05,1.29,2.4,1.29,4.05,0,1.76-.47,3.16-1.4,4.22-.93,1.05-2.18,1.58-3.75,1.58s-2.88-.63-3.87-1.88-1.48-2.87-1.48-4.85v-.83c0-3.14.65-5.54,1.96-7.2,1.3-1.66,3.25-2.51,5.82-2.55h.38Zm-2.77,7.69c-.72,0-1.39.22-2,.67-.61.45-1.03,1-1.27,1.68v.8c0,1.41.31,2.54.92,3.4.62.86,1.38,1.29,2.3,1.29s1.7-.36,2.24-1.08c.54-.72.82-1.66.82-2.82s-.28-2.12-.83-2.84-1.28-1.08-2.2-1.08Z" fill="#212728" stroke-width="0"/><path d="m201.73,312.87c0,2.54-.42,4.43-1.27,5.66-.84,1.23-2.16,1.85-3.96,1.85s-3.08-.6-3.94-1.81c-.85-1.21-1.29-3.01-1.32-5.41v-2.89c0-2.51.42-4.37,1.27-5.59s2.17-1.83,3.97-1.83,3.1.59,3.95,1.76c.84,1.18,1.28,2.99,1.3,5.44v2.81Zm-2.11-2.96c0-1.84-.25-3.17-.75-4.01s-1.3-1.26-2.38-1.26-1.87.42-2.36,1.25c-.49.84-.75,2.12-.76,3.86v3.47c0,1.84.26,3.21.78,4.08s1.31,1.32,2.37,1.32,1.82-.41,2.32-1.24.77-2.13.79-3.91v-3.55Z" fill="#212728" stroke-width="0"/><path d="m179.17,352.11l.84-8.51h8.51v2h-6.72l-.5,4.65c.81-.49,1.74-.74,2.77-.74,1.51,0,2.71.51,3.6,1.54s1.33,2.42,1.33,4.17-.46,3.14-1.39,4.15-2.21,1.52-3.87,1.52c-1.47,0-2.67-.42-3.59-1.25s-1.46-1.99-1.59-3.47h2c.13.98.47,1.71,1.02,2.21.55.5,1.27.74,2.17.74.98,0,1.75-.34,2.31-1.03.56-.69.84-1.64.84-2.85,0-1.14-.3-2.06-.91-2.75s-1.41-1.04-2.41-1.04c-.92,0-1.64.21-2.17.62l-.56.47-1.69-.45Z" fill="#212728" stroke-width="0"/><path d="m201.73,353.39c0,2.54-.42,4.43-1.27,5.66-.84,1.23-2.16,1.85-3.96,1.85s-3.08-.6-3.94-1.81c-.85-1.21-1.29-3.01-1.32-5.41v-2.89c0-2.51.42-4.37,1.27-5.59s2.17-1.83,3.97-1.83,3.1.59,3.95,1.76c.84,1.18,1.28,2.99,1.3,5.44v2.81Zm-2.11-2.96c0-1.84-.25-3.17-.75-4.01s-1.3-1.26-2.38-1.26-1.87.42-2.36,1.25c-.49.84-.75,2.12-.76,3.86v3.47c0,1.84.26,3.21.78,4.08s1.31,1.32,2.37,1.32,1.82-.41,2.32-1.24.77-2.13.79-3.91v-3.55Z" fill="#212728" stroke-width="0"/><path d="m187.11,395.46h2.3v1.77h-2.3v3.96h-2.12v-3.96h-7.56v-1.28l7.44-11.82h2.25v11.33Zm-7.29,0h5.17v-8.37l-.25.47-4.92,7.9Z" fill="#212728" stroke-width="0"/><path d="m201.73,393.91c0,2.54-.42,4.43-1.27,5.66-.84,1.23-2.16,1.85-3.96,1.85s-3.08-.6-3.94-1.81c-.85-1.21-1.29-3.01-1.32-5.41v-2.89c0-2.51.42-4.37,1.27-5.59s2.17-1.83,3.97-1.83,3.1.59,3.95,1.76c.84,1.18,1.28,2.99,1.3,5.44v2.81Zm-2.11-2.96c0-1.84-.25-3.17-.75-4.01s-1.3-1.26-2.38-1.26-1.87.42-2.36,1.25c-.49.84-.75,2.12-.76,3.86v3.47c0,1.84.26,3.21.78,4.08s1.31,1.32,2.37,1.32,1.82-.41,2.32-1.24.77-2.13.79-3.91v-3.55Z" fill="#212728" stroke-width="0"/><path d="m181.27,432.12h1.59c1-.02,1.78-.29,2.35-.81.57-.52.86-1.23.86-2.12,0-2-.97-3-2.91-3-.91,0-1.64.27-2.18.8-.54.54-.82,1.24-.82,2.13h-2.11c0-1.35.48-2.47,1.44-3.37s2.18-1.34,3.67-1.34c1.57,0,2.79.43,3.68,1.28.89.85,1.33,2.04,1.33,3.55,0,.74-.23,1.46-.7,2.16s-1.1,1.21-1.91,1.56c.91.3,1.62.79,2.12,1.48s.75,1.53.75,2.52c0,1.53-.49,2.75-1.46,3.64s-2.24,1.35-3.8,1.35-2.83-.43-3.8-1.3-1.47-2.01-1.47-3.43h2.12c0,.9.29,1.62.86,2.16s1.33.81,2.29.81c1.02,0,1.8-.27,2.34-.82s.81-1.33.81-2.36-.3-1.75-.89-2.29c-.59-.53-1.45-.8-2.57-.82h-1.59v-1.77Z" fill="#212728" stroke-width="0"/><path d="m201.73,434.43c0,2.54-.42,4.43-1.27,5.66-.84,1.23-2.16,1.85-3.96,1.85s-3.08-.6-3.94-1.81c-.85-1.21-1.29-3.01-1.32-5.41v-2.89c0-2.51.42-4.37,1.27-5.59s2.17-1.83,3.97-1.83,3.1.59,3.95,1.76c.84,1.18,1.28,2.99,1.3,5.44v2.81Zm-2.11-2.96c0-1.84-.25-3.17-.75-4.01s-1.3-1.26-2.38-1.26-1.87.42-2.36,1.25c-.49.84-.75,2.12-.76,3.86v3.47c0,1.84.26,3.21.78,4.08s1.31,1.32,2.37,1.32,1.82-.41,2.32-1.24.77-2.13.79-3.91v-3.55Z" fill="#212728" stroke-width="0"/><path d="m189.08,482.23h-10.88v-1.56l5.75-6.56c.85-.99,1.44-1.8,1.76-2.42s.48-1.26.48-1.93c0-.89-.26-1.62-.79-2.19s-1.22-.86-2.1-.86c-1.05,0-1.86.31-2.45.92-.58.61-.87,1.47-.87,2.56h-2.11c0-1.57.49-2.84,1.48-3.81s2.3-1.45,3.95-1.45c1.54,0,2.76.42,3.66,1.25.9.83,1.35,1.94,1.35,3.32,0,1.68-1.04,3.68-3.13,6l-4.45,4.96h8.34v1.77Z" fill="#212728" stroke-width="0"/><path d="m201.73,474.95c0,2.54-.42,4.43-1.27,5.66-.84,1.23-2.16,1.85-3.96,1.85s-3.08-.6-3.94-1.81c-.85-1.21-1.29-3.01-1.32-5.41v-2.89c0-2.51.42-4.37,1.27-5.59s2.17-1.83,3.97-1.83,3.1.59,3.95,1.76c.84,1.18,1.28,2.99,1.3,5.44v2.81Zm-2.11-2.96c0-1.84-.25-3.17-.75-4.01s-1.3-1.26-2.38-1.26-1.87.42-2.36,1.25c-.49.84-.75,2.12-.76,3.86v3.47c0,1.84.26,3.21.78,4.08s1.31,1.32,2.37,1.32,1.82-.41,2.32-1.24.77-2.13.79-3.91v-3.55Z" fill="#212728" stroke-width="0"/><path d="m185.14,522.75h-2.12v-14.45l-4.25,1.61v-1.97l6.05-2.33h.33v17.14Z" fill="#212728" stroke-width="0"/><path d="m201.73,515.47c0,2.54-.42,4.43-1.27,5.66-.84,1.23-2.16,1.85-3.96,1.85s-3.08-.6-3.94-1.81c-.85-1.21-1.29-3.01-1.32-5.41v-2.89c0-2.51.42-4.37,1.27-5.59s2.17-1.83,3.97-1.83,3.1.59,3.95,1.76c.84,1.18,1.28,2.99,1.3,5.44v2.81Zm-2.11-2.96c0-1.84-.25-3.17-.75-4.01s-1.3-1.26-2.38-1.26-1.87.42-2.36,1.25c-.49.84-.75,2.12-.76,3.86v3.47c0,1.84.26,3.21.78,4.08s1.31,1.32,2.37,1.32,1.82-.41,2.32-1.24.77-2.13.79-3.91v-3.55Z" fill="#212728" stroke-width="0"/><path d="m406.59,606.98h-2.3v-15.65l-4.61,1.74v-2.13l6.55-2.53h.36v18.57Z" fill="#212728" stroke-width="0"/><path d="m424.57,599.1c0,2.75-.46,4.79-1.37,6.13s-2.34,2.01-4.29,2.01-3.34-.65-4.26-1.96c-.92-1.31-1.4-3.26-1.43-5.86v-3.14c0-2.72.46-4.74,1.37-6.06s2.35-1.98,4.3-1.98,3.36.64,4.28,1.91c.91,1.27,1.38,3.24,1.41,5.9v3.05Zm-2.29-3.21c0-1.99-.27-3.44-.82-4.35-.54-.91-1.4-1.37-2.58-1.37s-2.02.45-2.56,1.36c-.54.91-.81,2.3-.83,4.18v3.76c0,2,.28,3.47.85,4.42.56.95,1.42,1.43,2.56,1.43s1.97-.45,2.52-1.35c.55-.9.83-2.31.86-4.24v-3.85Z" fill="#212728" stroke-width="0"/><path d="m427.66,610.67l-1.3-.91c.77-1.11,1.18-2.25,1.21-3.43v-2.12h2.24v1.84c0,.85-.2,1.71-.61,2.56-.41.85-.92,1.54-1.54,2.06Z" fill="#212728" stroke-width="0"/><path d="m450.02,599.1c0,2.75-.46,4.79-1.37,6.13s-2.34,2.01-4.29,2.01-3.34-.65-4.26-1.96c-.92-1.31-1.4-3.26-1.43-5.86v-3.14c0-2.72.46-4.74,1.37-6.06s2.35-1.98,4.3-1.98,3.36.64,4.28,1.91c.91,1.27,1.38,3.24,1.41,5.9v3.05Zm-2.29-3.21c0-1.99-.27-3.44-.82-4.35-.54-.91-1.4-1.37-2.58-1.37s-2.02.45-2.56,1.36c-.54.91-.81,2.3-.83,4.18v3.76c0,2,.28,3.47.85,4.42.56.95,1.42,1.43,2.56,1.43s1.97-.45,2.52-1.35c.55-.9.83-2.31.86-4.24v-3.85Z" fill="#212728" stroke-width="0"/><path d="m464.23,599.1c0,2.75-.46,4.79-1.37,6.13s-2.34,2.01-4.29,2.01-3.34-.65-4.26-1.96c-.92-1.31-1.4-3.26-1.43-5.86v-3.14c0-2.72.46-4.74,1.37-6.06s2.35-1.98,4.3-1.98,3.36.64,4.28,1.91c.91,1.27,1.38,3.24,1.41,5.9v3.05Zm-2.29-3.21c0-1.99-.27-3.44-.82-4.35-.54-.91-1.4-1.37-2.58-1.37s-2.02.45-2.56,1.36c-.54.91-.81,2.3-.83,4.18v3.76c0,2,.28,3.47.85,4.42.56.95,1.42,1.43,2.56,1.43s1.97-.45,2.52-1.35c.55-.9.83-2.31.86-4.24v-3.85Z" fill="#212728" stroke-width="0"/><path d="m478.44,599.1c0,2.75-.46,4.79-1.37,6.13s-2.34,2.01-4.29,2.01-3.34-.65-4.26-1.96c-.92-1.31-1.4-3.26-1.43-5.86v-3.14c0-2.72.46-4.74,1.37-6.06s2.35-1.98,4.3-1.98,3.36.64,4.28,1.91c.91,1.27,1.38,3.24,1.41,5.9v3.05Zm-2.29-3.21c0-1.99-.27-3.44-.82-4.35-.54-.91-1.4-1.37-2.58-1.37s-2.02.45-2.56,1.36c-.54.91-.81,2.3-.83,4.18v3.76c0,2,.28,3.47.85,4.42.56.95,1.42,1.43,2.56,1.43s1.97-.45,2.52-1.35c.55-.9.83-2.31.86-4.24v-3.85Z" fill="#212728" stroke-width="0"/><path d="m616.81,606.98h-11.79v-1.69l6.23-7.11c.92-1.08,1.56-1.95,1.91-2.62.35-.67.52-1.37.52-2.09,0-.96-.28-1.76-.85-2.37s-1.33-.93-2.27-.93c-1.14,0-2.02.33-2.65,1-.63.67-.95,1.59-.95,2.77h-2.29c0-1.7.53-3.08,1.6-4.13s2.49-1.57,4.28-1.57c1.67,0,2.99.45,3.97,1.35.97.9,1.46,2.1,1.46,3.6,0,1.82-1.13,3.99-3.39,6.5l-4.82,5.37h9.03v1.92Z" fill="#212728" stroke-width="0"/><path d="m630.52,599.1c0,2.75-.46,4.79-1.37,6.13s-2.34,2.01-4.29,2.01-3.34-.65-4.26-1.96c-.92-1.31-1.4-3.26-1.43-5.86v-3.14c0-2.72.46-4.74,1.37-6.06s2.35-1.98,4.3-1.98,3.36.64,4.28,1.91c.91,1.27,1.38,3.24,1.41,5.9v3.05Zm-2.29-3.21c0-1.99-.27-3.44-.82-4.35-.54-.91-1.4-1.37-2.58-1.37s-2.02.45-2.56,1.36c-.54.91-.81,2.3-.83,4.18v3.76c0,2,.28,3.47.85,4.42.56.95,1.42,1.43,2.56,1.43s1.97-.45,2.52-1.35c.55-.9.83-2.31.86-4.24v-3.85Z" fill="#212728" stroke-width="0"/><path d="m633.6,610.67l-1.3-.91c.77-1.11,1.18-2.25,1.21-3.43v-2.12h2.24v1.84c0,.85-.2,1.71-.61,2.56-.41.85-.92,1.54-1.54,2.06Z" fill="#212728" stroke-width="0"/><path d="m655.96,599.1c0,2.75-.46,4.79-1.37,6.13s-2.34,2.01-4.29,2.01-3.34-.65-4.26-1.96c-.92-1.31-1.4-3.26-1.43-5.86v-3.14c0-2.72.46-4.74,1.37-6.06s2.35-1.98,4.3-1.98,3.36.64,4.28,1.91c.91,1.27,1.38,3.24,1.41,5.9v3.05Zm-2.29-3.21c0-1.99-.27-3.44-.82-4.35-.54-.91-1.4-1.37-2.58-1.37s-2.02.45-2.56,1.36c-.54.91-.81,2.3-.83,4.18v3.76c0,2,.28,3.47.85,4.42.56.95,1.42,1.43,2.56,1.43s1.97-.45,2.52-1.35c.55-.9.83-2.31.86-4.24v-3.85Z" fill="#212728" stroke-width="0"/><path d="m670.17,599.1c0,2.75-.46,4.79-1.37,6.13s-2.34,2.01-4.29,2.01-3.34-.65-4.26-1.96c-.92-1.31-1.4-3.26-1.43-5.86v-3.14c0-2.72.46-4.74,1.37-6.06s2.35-1.98,4.3-1.98,3.36.64,4.28,1.91c.91,1.27,1.38,3.24,1.41,5.9v3.05Zm-2.29-3.21c0-1.99-.27-3.44-.82-4.35-.54-.91-1.4-1.37-2.58-1.37s-2.02.45-2.56,1.36c-.54.91-.81,2.3-.83,4.18v3.76c0,2,.28,3.47.85,4.42.56.95,1.42,1.43,2.56,1.43s1.97-.45,2.52-1.35c.55-.9.83-2.31.86-4.24v-3.85Z" fill="#212728" stroke-width="0"/><path d="m684.38,599.1c0,2.75-.46,4.79-1.37,6.13s-2.34,2.01-4.29,2.01-3.34-.65-4.26-1.96c-.92-1.31-1.4-3.26-1.43-5.86v-3.14c0-2.72.46-4.74,1.37-6.06s2.35-1.98,4.3-1.98,3.36.64,4.28,1.91c.91,1.27,1.38,3.24,1.41,5.9v3.05Zm-2.29-3.21c0-1.99-.27-3.44-.82-4.35-.54-.91-1.4-1.37-2.58-1.37s-2.02.45-2.56,1.36c-.54.91-.81,2.3-.83,4.18v3.76c0,2,.28,3.47.85,4.42.56.95,1.42,1.43,2.56,1.43s1.97-.45,2.52-1.35c.55-.9.83-2.31.86-4.24v-3.85Z" fill="#212728" stroke-width="0"/><path d="m813.33,596.6h1.72c1.08-.02,1.93-.31,2.55-.88.62-.57.93-1.33.93-2.3,0-2.17-1.05-3.25-3.15-3.25-.99,0-1.78.29-2.37.87-.59.58-.88,1.35-.88,2.3h-2.29c0-1.46.52-2.68,1.56-3.65,1.04-.97,2.37-1.45,3.97-1.45,1.7,0,3.03.46,3.99,1.38s1.45,2.21,1.45,3.85c0,.8-.25,1.58-.76,2.34-.51.75-1.2,1.32-2.07,1.69.99.32,1.75.85,2.29,1.6s.81,1.65.81,2.73c0,1.66-.53,2.97-1.58,3.95s-2.43,1.46-4.12,1.46-3.06-.47-4.12-1.41-1.59-2.18-1.59-3.72h2.3c0,.97.31,1.75.93,2.34.62.58,1.45.88,2.48.88,1.1,0,1.95-.3,2.53-.89s.88-1.44.88-2.55-.32-1.9-.96-2.48-1.57-.87-2.78-.89h-1.72v-1.92Z" fill="#212728" stroke-width="0"/><path d="m835.5,599.1c0,2.75-.46,4.79-1.37,6.13s-2.34,2.01-4.29,2.01-3.34-.65-4.26-1.96c-.92-1.31-1.4-3.26-1.43-5.86v-3.14c0-2.72.46-4.74,1.37-6.06s2.35-1.98,4.3-1.98,3.36.64,4.28,1.91c.91,1.27,1.38,3.24,1.41,5.9v3.05Zm-2.29-3.21c0-1.99-.27-3.44-.82-4.35-.54-.91-1.4-1.37-2.58-1.37s-2.02.45-2.56,1.36c-.54.91-.81,2.3-.83,4.18v3.76c0,2,.28,3.47.85,4.42.56.95,1.42,1.43,2.56,1.43s1.97-.45,2.52-1.35c.55-.9.83-2.31.86-4.24v-3.85Z" fill="#212728" stroke-width="0"/><path d="m838.59,610.67l-1.3-.91c.77-1.11,1.18-2.25,1.21-3.43v-2.12h2.24v1.84c0,.85-.2,1.71-.61,2.56-.41.85-.92,1.54-1.54,2.06Z" fill="#212728" stroke-width="0"/><path d="m860.94,599.1c0,2.75-.46,4.79-1.37,6.13s-2.34,2.01-4.29,2.01-3.34-.65-4.26-1.96c-.92-1.31-1.4-3.26-1.43-5.86v-3.14c0-2.72.46-4.74,1.37-6.06s2.35-1.98,4.3-1.98,3.36.64,4.28,1.91c.91,1.27,1.38,3.24,1.41,5.9v3.05Zm-2.29-3.21c0-1.99-.27-3.44-.82-4.35-.54-.91-1.4-1.37-2.58-1.37s-2.02.45-2.56,1.36c-.54.91-.81,2.3-.83,4.18v3.76c0,2,.28,3.47.85,4.42.56.95,1.42,1.43,2.56,1.43s1.97-.45,2.52-1.35c.55-.9.83-2.31.86-4.24v-3.85Z" fill="#212728" stroke-width="0"/><path d="m875.16,599.1c0,2.75-.46,4.79-1.37,6.13s-2.34,2.01-4.29,2.01-3.34-.65-4.26-1.96c-.92-1.31-1.4-3.26-1.43-5.86v-3.14c0-2.72.46-4.74,1.37-6.06s2.35-1.98,4.3-1.98,3.36.64,4.28,1.91c.91,1.27,1.38,3.24,1.41,5.9v3.05Zm-2.29-3.21c0-1.99-.27-3.44-.82-4.35-.54-.91-1.4-1.37-2.58-1.37s-2.02.45-2.56,1.36c-.54.91-.81,2.3-.83,4.18v3.76c0,2,.28,3.47.85,4.42.56.95,1.42,1.43,2.56,1.43s1.97-.45,2.52-1.35c.55-.9.83-2.31.86-4.24v-3.85Z" fill="#212728" stroke-width="0"/><path d="m889.37,599.1c0,2.75-.46,4.79-1.37,6.13s-2.34,2.01-4.29,2.01-3.34-.65-4.26-1.96c-.92-1.31-1.4-3.26-1.43-5.86v-3.14c0-2.72.46-4.74,1.37-6.06s2.35-1.98,4.3-1.98,3.36.64,4.28,1.91c.91,1.27,1.38,3.24,1.41,5.9v3.05Zm-2.29-3.21c0-1.99-.27-3.44-.82-4.35-.54-.91-1.4-1.37-2.58-1.37s-2.02.45-2.56,1.36c-.54.91-.81,2.3-.83,4.18v3.76c0,2,.28,3.47.85,4.42.56.95,1.42,1.43,2.56,1.43s1.97-.45,2.52-1.35c.55-.9.83-2.31.86-4.24v-3.85Z" fill="#212728" stroke-width="0"/><circle cx="850.13" cy="546.11" r="6.14" fill="#5c539c" stroke-width="0"/><circle cx="727.08" cy="534.29" r="6.14" fill="#5c539c" stroke-width="0"/><circle cx="603.05" cy="506.72" r="6.14" fill="#5c539c" stroke-width="0"/><circle cx="481.97" cy="455.02" r="6.14" fill="#5c539c" stroke-width="0"/><circle cx="354.64" cy="351.92" r="6.14" fill="#5c539c" stroke-width="0"/><polyline points="1004 552.5 1004 671.5 354.98 671.5 354.68 568.98" fill="none" stroke="#000" stroke-linecap="round" stroke-linejoin="round" stroke-width="2"/><polygon points="362.66 571.29 354.64 557.5 346.71 571.34 362.66 571.29" stroke-width="0"/><polyline points="305 65 278.66 65 237.22 332.02" fill="none" stroke="#000" stroke-linecap="round" stroke-linejoin="round" stroke-width="2"/><polygon points="229.69 328.49 235.46 343.36 245.46 330.93 229.69 328.49" stroke-width="0"/></svg>