<?xml version="1.0" encoding="UTF-8"?><svg id="a" xmlns="http://www.w3.org/2000/svg" width="1140" height="641" xmlns:xlink="http://www.w3.org/1999/xlink" viewBox="0 0 1140 641"><defs><clipPath id="b"><path d="m382.722,617.818c134.065-30.279,288.26,54.725,611.365.578,172.758-28.951,66.378-187.255,103.936-278.469C1274.262-88.089,821.846,140.746,502.474,39.633,199.704-56.224-36.343,77.293,9.389,195.537c80.336,207.715,54.338,197.836,44.505,303.21-13.079,140.156,142.484,161.158,328.828,119.072Z" fill="none"/></clipPath></defs><g clip-path="url(#b)"><rect x="-91.632" y="-73.801" width="1306" height="854.973" fill="#efdff2"/><rect x="505.066" y="76.066" width="129.868" height="1140" transform="translate(1216.066 76.066) rotate(90)" fill="#bfaacc"/><path d="m506.07,140.109h87.271c3.233,0,5.857,2.625,5.857,5.857v73.03c0,4.692-3.81,8.502-8.502,8.502h-84.627c-4.692,0-8.502-3.81-8.502-8.502v-70.386c0-4.692,3.81-8.502,8.502-8.502Z" fill="#845230"/><path d="m516.126,150.494h66.531c2.465,0,4.465,2.001,4.465,4.465v55.674c0,3.577-2.904,6.481-6.481,6.481h-64.515c-3.577,0-6.481-2.904-6.481-6.481v-53.658c0-3.577,2.904-6.481,6.481-6.481Z" fill="#a06d4a"/><line x1="590.298" y1="147.772" x2="503.988" y2="222.862" fill="none" stroke="#845230" stroke-miterlimit="10" stroke-width="16"/><line x1="592.52" y1="221.812" x2="504.787" y2="148.39" fill="none" stroke="#845230" stroke-miterlimit="10" stroke-width="16"/><line x1="548.266" y1="112.919" x2="548.266" y2="32.12" fill="none" stroke="#bc8557" stroke-miterlimit="10" stroke-width="9"/><line x1="500.934" y1="224.598" x2="549.053" y2="104.737" fill="none" stroke="#bc8557" stroke-linecap="round" stroke-miterlimit="10" stroke-width="9"/><line x1="596.298" y1="224.598" x2="548.178" y2="104.737" fill="none" stroke="#bc8557" stroke-linecap="round" stroke-miterlimit="10" stroke-width="9"/></g><path d="m625.869,199.074h-2.18v-14.449l-4.371,1.605v-1.969l6.211-2.332h.34v17.145Z"/><path d="m642.92,191.797c0,2.539-.434,4.426-1.301,5.66s-2.223,1.852-4.066,1.852c-1.82,0-3.168-.604-4.043-1.811s-1.328-3.01-1.359-5.408v-2.895c0-2.508.434-4.371,1.301-5.59s2.227-1.828,4.078-1.828c1.836,0,3.188.588,4.055,1.764s1.312,2.99,1.336,5.443v2.812Zm-2.168-2.965c0-1.836-.258-3.174-.773-4.014s-1.332-1.26-2.449-1.26c-1.109,0-1.918.418-2.426,1.254s-.77,2.121-.785,3.855v3.469c0,1.844.268,3.205.803,4.084s1.346,1.318,2.432,1.318c1.07,0,1.865-.414,2.385-1.242s.791-2.133.814-3.914v-3.551Z"/><path d="m656.396,191.797c0,2.539-.434,4.426-1.301,5.66s-2.223,1.852-4.066,1.852c-1.82,0-3.168-.604-4.043-1.811s-1.328-3.01-1.359-5.408v-2.895c0-2.508.434-4.371,1.301-5.59s2.227-1.828,4.078-1.828c1.836,0,3.188.588,4.055,1.764s1.312,2.99,1.336,5.443v2.812Zm-2.168-2.965c0-1.836-.258-3.174-.773-4.014s-1.332-1.26-2.449-1.26c-1.109,0-1.918.418-2.426,1.254s-.77,2.121-.785,3.855v3.469c0,1.844.268,3.205.803,4.084s1.346,1.318,2.432,1.318c1.07,0,1.865-.414,2.385-1.242s.791-2.133.814-3.914v-3.551Z"/><path d="m669.873,191.797c0,2.539-.434,4.426-1.301,5.66s-2.223,1.852-4.066,1.852c-1.82,0-3.168-.604-4.043-1.811s-1.328-3.01-1.359-5.408v-2.895c0-2.508.434-4.371,1.301-5.59s2.227-1.828,4.078-1.828c1.836,0,3.188.588,4.055,1.764s1.312,2.99,1.336,5.443v2.812Zm-2.168-2.965c0-1.836-.258-3.174-.773-4.014s-1.332-1.26-2.449-1.26c-1.109,0-1.918.418-2.426,1.254s-.77,2.121-.785,3.855v3.469c0,1.844.268,3.205.803,4.084s1.346,1.318,2.432,1.318c1.07,0,1.865-.414,2.385-1.242s.791-2.133.814-3.914v-3.551Z"/><path d="m682.353,193.203l-1.359,1.418v4.453h-2.168v-18h2.168v10.887l1.16-1.395,3.949-4.172h2.637l-4.934,5.297,5.508,7.383h-2.543l-4.418-5.871Z"/><path d="m690.228,192.629c0-1.977.457-3.549,1.371-4.717s2.125-1.752,3.633-1.752c1.547,0,2.754.547,3.621,1.641l.105-1.406h1.98v12.375c0,1.641-.486,2.934-1.459,3.879s-2.279,1.418-3.92,1.418c-.914,0-1.809-.195-2.684-.586s-1.543-.926-2.004-1.605l1.125-1.301c.93,1.148,2.066,1.723,3.41,1.723,1.055,0,1.877-.297,2.467-.891s.885-1.43.885-2.508v-1.09c-.867,1-2.051,1.5-3.551,1.5-1.484,0-2.686-.598-3.604-1.793s-1.377-2.824-1.377-4.887Zm2.18.246c0,1.43.293,2.553.879,3.369s1.406,1.225,2.461,1.225c1.367,0,2.371-.621,3.012-1.863v-5.789c-.664-1.211-1.66-1.816-2.988-1.816-1.055,0-1.879.41-2.473,1.23s-.891,2.035-.891,3.645Z"/><path d="m456.395,410.959h-2.18v-14.449l-4.371,1.605v-1.969l6.211-2.332h.34v17.145Z"/><path d="m473.446,403.682c0,2.539-.434,4.426-1.301,5.66s-2.223,1.852-4.066,1.852c-1.82,0-3.168-.604-4.043-1.811s-1.328-3.01-1.359-5.408v-2.895c0-2.508.434-4.371,1.301-5.59s2.227-1.828,4.078-1.828c1.836,0,3.188.588,4.055,1.764s1.312,2.99,1.336,5.443v2.812Zm-2.168-2.965c0-1.836-.258-3.174-.773-4.014s-1.332-1.26-2.449-1.26c-1.109,0-1.918.418-2.426,1.254s-.77,2.121-.785,3.855v3.469c0,1.844.268,3.205.803,4.084s1.346,1.318,2.432,1.318c1.07,0,1.865-.414,2.385-1.242s.791-2.133.814-3.914v-3.551Z"/><path d="m484.427,398.28l.059,1.406c.93-1.094,2.184-1.641,3.762-1.641,1.773,0,2.98.68,3.621,2.039.422-.609.971-1.102,1.646-1.477s1.475-.562,2.396-.562c2.781,0,4.195,1.473,4.242,4.418v8.496h-2.168v-8.367c0-.906-.207-1.584-.621-2.033s-1.109-.674-2.086-.674c-.805,0-1.473.24-2.004.721s-.84,1.127-.926,1.939v8.414h-2.18v-8.309c0-1.844-.902-2.766-2.707-2.766-1.422,0-2.395.605-2.918,1.816v9.258h-2.168v-12.68h2.051Z"/><line x1="424.732" y1="241.818" x2="424.732" y2="570.854" fill="none" stroke="#000" stroke-miterlimit="10" stroke-width="2"/><polygon points="416.754 244.153 424.732 230.336 432.71 244.153 416.754 244.153"/><polygon points="416.754 568.52 424.732 582.336 432.71 568.52 416.754 568.52"/><path d="m517.666,559.772c-.048.122-.099.249-.198.335-.188.161-.657.406-.895.334-.1-.03-.199-.064-.297-.101-.419-.158-.82-.377-1.153-.676-.093-.084-.182-.175-.246-.282-.281-.466-.043-1.053.088-1.581.236-.947.125-2.025.701-2.813.366-.501.557-1.763,1.178-1.737.088.004.615.977.684,1.031.064.049.099.126.131.201.352.832.652,1.838.599,2.752-.057.984-.237,1.631-.591,2.54Z" fill="#994d30"/><path d="m514.551,559.989c-.369-.603-.529-.458-.577-.824-.028-.347.145-.657.378-.896.106-.142.097-.2.985-.283.096-.012.204-.013.293.02.859.299.767.615.771.842.004.247-.008.484-.087.689-.124.354-.368.611-.668.875-.14.145-.88-.01-1.095-.422h0Z" fill="#562015"/><path d="m513.928,559.641c-.719-.694-.557-.677-.576-.871-.029-.354.1-.636.346-.898.126-.143.1-.31,1.031-.272.1.002.2.028.286.068.843.404.719.601.737.819.013.222.001.442-.074.647-.076.204-.201.396-.374.57-.181.146-.201.495-1.139.108-.095-.037-.17-.101-.238-.171h0Z" fill="#562015"/><path d="m510.74,532.802c-.405,2.078,2.773,10.767,2.773,10.767.23,3.183.854,7.478,1.365,11.552l3.341.223c.591-3.369.045-9.275-.433-12.01s-.694-9.563-2.239-11.515-3.58-2.097-3.58-2.097c0,0-.822,1.003-1.227,3.081Z" fill="#52bcb5"/><path d="m515.389,542.842c-3.865.394-7.77.42-11.641.077.053-.484.103-.987-.064-1.445-.063-.172-.155-.333-.229-.501-.362-.828-.247-1.776-.072-2.661.172-.87.395-1.729.669-2.574.076-.233.155-.466.197-.708.185-1.065.263-2.166.537-3.199.478-1.8,1.785-2.024,3.006-2.326,1.159-.286,2.351-.303,3.513-.047,1.046.23,2.247.543,3.172,1.286.484.388.763.975.905,1.572s.159,1.214.211,1.825c.1,1.179.329,2.347.681,3.479.31.996.624,2.106.456,3.228-.066.441-.214.764-.174,1.204.035.389.171.487-.241.64-.284.105-.627.118-.926.149Z" fill="#52bcb5"/><path d="m504.477,530.066c.031-.202.16-1.084.674-1.658.186-.207,1.239-.319,1.514-.347,2.13-.219,3.001-.007,5.118.317.245.038.885.274,1.062.451.122.123.424.577.478.743.19.588.2.891.235,1.509-2.627.19-5.273.115-7.885-.223-1.188-.154-1.338.149-1.195-.792Z" fill="#52bcb5"/><path d="m514.652,541.022c-3.122.051-6.161-.063-9.59-.306,0,0-3.555-9.084-1.395-10.307s6.417-1.855,9.543.022c2.725,1.602,2.891,7.201,1.441,10.59Z" fill="#2d2d2d"/><path d="m507.058,571.187l-1.779,7.695-2.491-.671-.051-7.488c1.457-.384,2.903-.413,4.321.465Z" fill="#994d30"/><path d="m507.564,571.169l3.84-20.76s-8.395-7.115-8.982-2.44c-.296,2.361-.152,22.87-.152,22.87l5.294.331Z" fill="#8ca65a"/><path d="m514.708,541.022s1.394,3.086,1.346,6.506c-.031,2.25-3.78,4.542-5.724,4.37s-7.994-2.112-7.858-4.797c.198-3.922,3.023-6.386,3.023-6.386l9.213.306Z" fill="#8ca65a"/><polygon points="515.884 569.755 515.81 578.779 513.268 577.968 510.943 569.7 515.884 569.755" fill="#994d30"/><path d="m504.724,529.71c.979-.37,1.093.026,1.387.262.28.255.524.554.713.894.188.34.306.726.372,1.121.06.383.245.794-.588,1.318-.083.052-.178.07-.268.057-.939-.123-.99-.38-1.152-.623-.169-.234-.338-.458-.475-.705-.137-.248-.256-.515-.365-.807-.095-.311-.396-.444.151-1.329.053-.089.134-.154.225-.189h0Z" fill="#3a766a"/><path d="m515.967,547.449c.448,3.124.169,23.006.169,23.006l-5.303.418-3.634-21.077s8.319-5.471,8.767-2.347Z" fill="#8ca65a"/><g id="c"><path d="m502.482,578.185c0-.259.217-.469.485-.469h1.79c.311,0,.567.24.576.541l.106,4.272c.014.434-.292.998-.727,1.107-.247.062-2.275.93-2.894.993-.703.071-1.415.062-2.116-.028-.506-.065-.885.403-.966-.496-.014-.15.204-.669.544-1.07s1.976-1.648,2.586-2.674c.133-.224.616-2.174.616-2.174Z" fill="#8ca65a"/></g><path d="m521.478,581.901c-.345-1.187-1.057-.998-2.447-1.577-.578-.241-1.413-.515-1.53-.708-.314-.519-1.177-1.996-1.396-2.029-.137-.02-.85-.258-.982-.258l-2.119-.064c-.128,0,.233,2.825.233,2.962-.002.446-.116,1.344.047,1.771.167.438.315.331.416.368.026.009.045-.063.071-.062l7.212-.137s.66.303.494-.266Z" fill="#8ca65a"/><path d="m513.915,533.683c.341,1.525.439,3.156.428,4.783-.006.829-.036,1.685.175,2.441s.743,1.392,1.346,1.278c-.473-3.776.396-4.039.137-7.156-.051-.616-.212-1.754-.584-2.837-.148-.432-.876-2.115-3.928-2.992-.223-.064,1.655,2.163,1.777,2.446.274.636.488,1.324.647,2.037Z" fill="#52bcb5"/><path d="m512.948,536.638c-.031.064-.033.142-.033.217-.001.1-.06.535.054.472" fill="#2d2d2d"/><path d="m512.602,536.731c-.002-.009-.004-.019-.009-.026-.021-.03-.057.012-.067.047-.051.178-.069.367-.087.555-.003.035-.005.075.017.1.241.277.161-.599.146-.677Z" fill="#2d2d2d"/><path d="m511.4,534.941c.09-.142.381-.184.381-.184.143-.022.275.164.264.337-.011.173-.132.31-.269.362-.137.052-.288.033-.431,0-.056-.171-.034-.372.057-.514Z" fill="#2d2d2d"/><path d="m512.963,534.675c.109-.084.258-.026.375.05.124.081.251.202.267.368.004.04,0,.082-.015.117-.035.08-.121.102-.198.107-.09.006-.18-.003-.27-.021-.104-.048-.199-.139-.24-.263-.042-.127-.014-.287.079-.358Z" fill="#2d2d2d"/><path d="m512.211,536.881c-.005-.061-.019-.137-.068-.153-.031.064-.033.142-.033.217-.001.1-.06.535.054.472.134-.074.056-.412.047-.536Z" fill="#2d2d2d"/><path d="m511.294,527.432l-.195,2.995s.802,1.189.477,1.608c-2.125-.066-3.773-2.07-3.773-2.07l.043-2.863,3.447.33Z" fill="#994d30"/><path d="m510.349,541.799c.002.271-.006.553-.177.748-.193.22-.557.284-.906.326-.795.095-.424-.149-1.268-.186-1.035.046-4.355.577-4.89.274-1.605-.909.201-4.565-.466-9.5-.291-2.156.699-2.739,1.391-3.255.511-.381,1.986-1.532,2.819-1.473,1.017.072,1.441,3.087,1.687,3.743.747,1.994,1.268,3.997,1.553,5.971.163,1.13.25,2.25.257,3.353Z" fill="#52bcb5"/><path d="m504.949,532.355c.346-.505.107-1.177-.428-1.477s-1.154-.254-1.591.199c-1.617,1.676-2.143,3.238-2.571,5.333-.475,2.32-.958,6.28-.47,8.308.159.659-.198.794.504,1.072.643.254,1.483-.003,1.996-.48s1.519-6.09,1.995-7.165.717-2.326.81-3.452.112-1.9-.815-2.633" fill="#994d30"/><path d="m501.706,555.142c.033-.027.065-.054.098-.079.068-.007.37-.081.361-.1.128-.003.262-.003.37-.036.003,0,.005,0,.007,0,.073.009.145.017.218.03.219.038.43.102.646.157.031.008.054.013.073.017.019.011.042.023.074.04.024.012.048.024.072.036.003.018.005.037.007.054.217,1.449.759,1.831.552,3.377-.037.277-.319.909-.604.896-.203-.009-.321-.21-.396-.389-.332-.802-.484-1.667-.603-2.536-.056-.006-.11-.021-.164-.049-.283-.148-.481-.408-.661-.666-.095-.136-.186-.279-.276-.424.108-.142.351-.419.225-.327Z" fill="#994d30"/><path d="m501.481,555.394c.141-.172.575-.097,1.021.107s.626.657.646,1.096.101,1.134.115,1.574c.036,1.164.88,2.605.759,3.062-.081.304-.452.273-.833.328-.19.028-.744.104-.926.056-1.444-.376-1.718-1.905-1.635-3.199.06-.932.681-2.67.854-3.025Z" fill="#994d30"/><path d="m503.626,555.198c-.093.04-.185.086-.274.141.301-.186-.121.046-.203.078-.036.014-.063.025-.087.035-.008,0-.014.001-.025.002-.325.039-.647.084-.973.112-.147.013-.287.043-.42.086-2.345-3.152-2.778-9.167-1.794-12.955l3.117.53.421,8.298c.053,1.054.075,2.637.236,3.672Z" fill="#994d30"/><path d="m506.363,532.557c.544,2.046-2.868,10.912-2.868,10.912-.016,3.191.305,7.715.588,11.925l-3.11.694c-1.495-2.663-2.05-9.805-1.757-12.567s.875-9.572,2.285-11.623,3.431-2.332,3.431-2.332c0,0,.888.945,1.432,2.991Z" fill="#52bcb5"/><path d="m506.126,528.586c.577-.911,1.019-.6,1.42-.529.83.191,1.552.715,2.01,1.42.367.473.449.795.043,1.46-.056.09-.141.149-.236.175-.936.285-1.049.039-1.321-.116-.258-.156-.512-.284-.734-.448-.338-.248-.665-.512-.983-.788-.062-.062-.334-.841-.199-1.173h0Z" fill="#3a766a"/><path d="m510.824,521.764c.688,1.739,1.179,2.148,1.551,3.255.76,2.264-.208,2.546-2.116,3.35-1.462.616-2.88.623-3.606.066s-1.81-2.014-2.144-2.542-1.69-2.909,1.438-4.938c3.128-2.029,4.667.276,4.878.809Z" fill="#994d30"/><path d="m511.786,524.36c.462-.267.604-.613.647-.821.023-.109-.026-.219-.119-.28-.191-.126-.585-.349-1.203-.533" fill="#994d30"/><path d="m502.84,523.476c-.203-.822-.3-2.124.916-2.948.318-.216,5.267-2.681,6.54-.958.282.382-.588,1.747-1.292,3.205-.89,1.843-1.642,2.319-1.642,2.319.324,1.413.585,1.919.585,1.919,1.651,2.996,4.829,6.323,4.829,6.323-.35.162-5,0-6-1-.952-.952-1-2-3.065-5.051-.74-1.094-1.561-2.335-.871-3.809Z" fill="#dd6670"/><path d="m507.526,525.058s-1.665-.242-.905,1.063,1.947.402,1.947.402l-1.042-1.464Z" fill="#994d30"/><line x1="193.137" y1="229.315" x2="946.863" y2="229.315" fill="none" stroke="#000" stroke-dasharray="0 0 6 6" stroke-miterlimit="10" stroke-width="2"/></svg>