<?xml version="1.0" encoding="UTF-8"?>
<svg id="Layer_1" data-name="Layer 1" xmlns="http://www.w3.org/2000/svg" width="570" height="405" xmlns:xlink="http://www.w3.org/1999/xlink" viewBox="0 0 570 405">
  <defs>
    <style>
      .cls-1, .cls-2, .cls-3, .cls-4, .cls-5, .cls-6, .cls-7 {
        fill: none;
      }

      .cls-2 {
        stroke: #fff;
        stroke-width: 7px;
      }

      .cls-2, .cls-3, .cls-4, .cls-5, .cls-6 {
        stroke-linejoin: round;
      }

      .cls-3 {
        stroke: #3c4747;
      }

      .cls-3, .cls-4 {
        stroke-width: 3px;
      }

      .cls-3, .cls-4, .cls-5, .cls-6 {
        stroke-linecap: round;
      }

      .cls-4, .cls-6, .cls-7 {
        stroke: #556060;
      }

      .cls-8 {
        clip-path: url(#clippath);
      }

      .cls-9 {
        fill: #001415;
      }

      .cls-10 {
        fill: #ed9c74;
      }

      .cls-11 {
        fill: #fff;
      }

      .cls-12 {
        fill: #ffc536;
      }

      .cls-13 {
        fill: #7f3e28;
      }

      .cls-14 {
        fill: #998871;
      }

      .cls-15 {
        fill: #9d34bf;
      }

      .cls-16 {
        fill: #c41e1e;
      }

      .cls-17 {
        fill: #328a49;
      }

      .cls-18 {
        fill: #b35605;
      }

      .cls-19 {
        fill: #cc3535;
      }

      .cls-20 {
        fill: #e06628;
      }

      .cls-21 {
        fill: #aed3cc;
      }

      .cls-22 {
        fill: #e06e09;
      }

      .cls-23 {
        fill: #190f07;
      }

      .cls-24 {
        fill: #161515;
      }

      .cls-25 {
        fill: #166303;
      }

      .cls-26 {
        fill: #1e1205;
      }

      .cls-27 {
        fill: #1d8204;
      }

      .cls-28 {
        fill: #3633c1;
      }

      .cls-29 {
        fill: #17ad2f;
      }

      .cls-30 {
        fill: #702828;
      }

      .cls-31, .cls-32 {
        fill: #556060;
      }

      .cls-33 {
        fill: #3a1316;
      }

      .cls-34 {
        fill: #3a3630;
      }

      .cls-35 {
        fill: #82d16f;
      }

      .cls-36 {
        fill: #619953;
      }

      .cls-37 {
        fill: #606060;
      }

      .cls-38 {
        clip-path: url(#clippath-1);
      }

      .cls-39 {
        clip-path: url(#clippath-2);
      }

      .cls-5 {
        stroke: #1a1c1c;
      }

      .cls-5, .cls-6, .cls-7 {
        stroke-width: 2px;
      }

      .cls-7 {
        stroke-miterlimit: 10;
      }

      .cls-40 {
        fill: #3c4747;
      }

      .cls-40, .cls-32 {
        fill-rule: evenodd;
      }
    </style>
    <clipPath id="clippath">
      <path class="cls-1" d="m556.21,58.38C502.58-16.62,401,3.09,323.18,5.72c-9.48.57-18.95,1.02-28.41,1.38s-18.93.63-28.39.83c-37.84.79-75.67.47-113.66.45-43-.02-108.41-5.03-137.24,33.14C1.93,59.45,1.12,83.39,3.71,105.38c4.55,38.72,8.3,77.94,7.05,116.95-1.23,38.58-7.44,76.31-2.15,114.98,1.54,11.26,4.12,22.91,11.52,31.78,12.42,14.89,36.39,20.76,54.73,25.31,23.11,5.73,47.03,8.16,70.86,8.5,42.03.59,83.73-6.12,125.45-6.95,43.19-.85,86.38.21,129.57-.46,38.41-.6,77.46,4.94,115.76.38,18-2.14,36.85-9.94,44.88-25.53,3.87-7.5,4.83-16.05,5.31-24.38,1.31-12.86.31-26.86-.69-39.86-1.17-9.17-2.17-18.31-3.02-27.42-.86-9.12-1.57-18.21-2.16-27.29-.7-9.07-1.23-18.19-1.58-27.32-.23-25.96,20.47-132.82-3.02-165.68Z"/>
    </clipPath>
    <clipPath id="clippath-1">
      <path class="cls-1" d="m200.02,265.82c-6.56,0-8.61-8.16-9.4-11.29-12.8-50.91-52.52-100.15-52.92-100.66l12.71-3.87c1.65,2.09,35.93,45.27,50.47,96.8,5.23-18.9,12.49-59.31,16.95-100.81l11.6,1.25c-.03.3-4.06,24.95-8.43,54.21-2.58,17.27-5.07,31.09-7.4,41.08-3.96,16.99-7.24,22.86-13.02,23.27-.19.01-.38.02-.57.02Z"/>
    </clipPath>
    <clipPath id="clippath-2">
      <path class="cls-35" d="m504.31,283.19c5.89,6.68,9.62,14.97,12.72,23.32,2.18,5.89,4.12,12.17,3.03,18.36-1.05,5.92-4.75,11-8.64,15.6-7.73,9.15-17.57,17.79-29.51,18.79-8.47.71-16.7-2.54-24.99-4.43-7.93-1.81-16.59-2.59-22.82-7.81-4.59-3.85-7.17-9.67-8.27-15.57-2.8-15.02,3.54-30.9,14.5-41.55,7.15-6.95,16.1-11.83,25.57-14.85,8.96-2.86,17.94-4.96,26.77-.77,4.44,2.11,8.39,5.24,11.63,8.91Z"/>
    </clipPath>
  </defs>
  <g class="cls-8">
    <rect class="cls-21" x="-60.22" y="-35.82" width="631.14" height="492.51"/>
    <g>
      <path class="cls-37" d="m108.42,406.99s-4.43,113.02,2.76,208.34c6.63,87.87,11.6,180.74,19.89,193.97,7.64,12.19,60.24,12.71,64.66,1.66,1.71-4.27,1.06-173.99,1.66-180.71,6.63-75.16,8.86-188.52,2.76-197.29-33.8-48.61-91.74-25.97-91.74-25.97Z"/>
      <path class="cls-37" d="m116.15,335.15s-23.21,121.03-1.11,143.13c22.11,22.11,176.84-14.92,176.84-33.71s4.97-107.76-17.13-116.61c-22.11-8.84-158.61,7.18-158.61,7.18Z"/>
      <path class="cls-14" d="m191.4,144.72s-60.85,5.61-78.56,21.66c-13.19,11.96-2.38,113.49-9.39,156.05-2.02,12.27-6.38,56.82,0,89.53,3,15.37,43.12,25.35,99.47,26.53,53.05,1.11,71.29-13.26,92.84-28.18,5.62-3.89-1.11-54.71-7.74-139.82-3.96-50.88.65-94.81-9.95-105-17.5-16.82-86.68-20.77-86.68-20.77Z"/>
      <rect class="cls-10" x="161.1" y="106.54" width="50.47" height="68.53" rx="25.24" ry="25.24"/>
      <line class="cls-3" x1="198.65" y1="284.07" x2="195.73" y2="297.67"/>
      <circle class="cls-15" cx="199.24" cy="282.38" r="5.52"/>
      <path class="cls-40" d="m193.72,282.14c-.13,3.05,2.23,5.62,5.28,5.76,3.05.13,5.62-2.23,5.76-5.28l-11.03-.48Z"/>
      <path class="cls-14" d="m217.12,158.29c24.01-11.49,62.66-4.47,91.85,20.71,54.07,46.63,82.1,33.05,79.02,84.83-1.82,30.68-33.48,42.84-49.87,39.6-16.74-3.32-52.01-10.94-83.6-57.2-31.58-46.26-37.41-87.94-37.41-87.94Z"/>
      <line class="cls-4" x1="191.71" y1="283.5" x2="186.21" y2="296.28"/>
      <circle class="cls-28" cx="192.61" cy="281.96" r="5.52"/>
      <path class="cls-32" d="m187.54,279.78c-1.21,2.8.09,6.05,2.89,7.25s6.05-.09,7.25-2.89l-10.14-4.37Z"/>
      <g class="cls-38">
        <rect class="cls-26" x="98.61" y="87.89" width="220.05" height="111.98"/>
        <rect class="cls-15" x="161.57" y="181.39" width="79.82" height="12.56" transform="translate(470.18 247.75) rotate(149.64)"/>
        <rect class="cls-28" x="167.72" y="191.88" width="79.82" height="12.56" transform="translate(486.93 264.18) rotate(149.64)"/>
        <rect class="cls-29" x="173.86" y="202.36" width="79.82" height="12.56" transform="translate(503.68 280.62) rotate(149.64)"/>
        <rect class="cls-12" x="180.21" y="213.2" width="79.82" height="12.56" transform="translate(520.99 297.6) rotate(149.64)"/>
        <rect class="cls-20" x="186.56" y="224.04" width="79.82" height="12.56" transform="translate(538.29 314.58) rotate(149.64)"/>
        <rect class="cls-16" x="192.7" y="234.53" width="79.82" height="12.56" transform="translate(555.04 331.01) rotate(149.64)"/>
        <polygon class="cls-15" points="172.77 256.02 201.44 270.12 200.34 253.17 163.2 234.59 172.77 256.02"/>
        <polygon class="cls-28" points="163.34 234.68 200.34 253.54 201.12 242.15 159.89 218.99 163.34 234.68"/>
        <polygon class="cls-29" points="152.05 217.46 199.6 241.01 201.86 230.36 156.89 207.91 152.05 217.46"/>
        <polygon class="cls-12" points="145.54 202.12 195.92 227.75 200.75 218.2 150.38 192.57 145.54 202.12"/>
        <polygon class="cls-20" points="138.04 187.11 188.92 211.91 193.75 202.36 142.87 177.56 138.04 187.11"/>
        <polygon class="cls-16" points="142.71 177.86 184.13 198.28 188.96 188.73 147.55 168.32 142.71 177.86"/>
      </g>
      <line class="cls-5" x1="201.08" y1="255.75" x2="201.08" y2="298.86"/>
      <rect class="cls-11" x="184.2" y="305.38" width="36.4" height="48.54" rx="4.76" ry="4.76"/>
      <line class="cls-6" x1="184.62" y1="316.91" x2="219.7" y2="316.91"/>
      <rect class="cls-28" x="189.65" y="322.44" width="15.47" height="17.13"/>
      <circle class="cls-31" cx="201.61" cy="304.75" r="6.08"/>
      <circle class="cls-7" cx="201.63" cy="275.42" r="6.08"/>
      <path class="cls-14" d="m123.86,160.04c-40.68,10.35-67.04,52.38-74.57,90.19-13.95,70.03-43.26,87.3-3.68,120.84,24.79,21.01,49.42-7.04,60.97-19.16,11.78-12.35,32.44-40.43,28.89-96.33-3.55-55.9-11.61-95.54-11.61-95.54Z"/>
      <path class="cls-34" d="m287.39,283.31c-2.11-14.15-2.41-28.41-3.55-42.65-.41-7.12-.79-14.26-.97-21.4-.18-7.13-.43-14.33.84-21.44.02-.16.29-.15.29.02.87,14.24,1.19,28.44,2.24,42.67.41,7.12.87,14.23,1.23,21.36.34,7.12.93,14.25.21,21.43,0,.16-.27.18-.29.01h0Z"/>
      <path class="cls-10" d="m232.48,72.06c1.44,19.47-3.61,35.93-8.52,48.11-6.13,15.22-16.92,26.38-34.29,24.47-23.48-2.58-29.81-9.55-36.82-26.18-4.69-11.12-10.16-36.92-4.44-56.34,8.3-28.21,14.05-32.97,40-30.93,25.95,2.04,41.9,11.58,44.07,40.87Z"/>
      <path class="cls-10" d="m220.46,93.55c-.84,8.58,1.77,12.23,7.34,15.85,6.53,4.25,16.19-9.47,17.03-18.05.84-8.58-4.28-11.52-10.89-12.17-6.61-.65-12.64,5.79-13.48,14.37Z"/>
      <path class="cls-13" d="m239.82,89.56c-1.1.73-1.88.45-2.75.47-.86,0-1.69.05-2.51.13-1.96.05-3.15,1.08-4.95,1.06-.12,0-.22-.09-.21-.21.17-2.26,3.07-2.94,4.89-3.26,1-.1,2-.05,2.96.11.94.19,1.98.2,2.64,1.4.06.1.02.23-.08.28h0Z"/>
      <path class="cls-9" d="m180.26,83.24c-.03,2.02-1.47,3.61-3.22,3.56-1.75-.06-3.14-1.74-3.1-3.76.03-2.02,1.36-3.2,3.1-3.15,1.75.06,3.25,1.33,3.22,3.35Z"/>
      <path class="cls-9" d="m164.13,82.39c-.72-2.3,1.62-4.12,3.56-4.68,4.82-1.62,12.86,1.09,15.73,5.21,0,0,.05.23.05.23,0,.03-.01.05-.04.06-.4,0-.58-.05-.84-.11-3.17-.91-6.08-2.84-9.37-3.27-2.38-.33-5.02-.53-6.96.94-.6.43-1.19.94-1.87,1.68-.08.09-.23.06-.27-.06h0Z"/>
      <path class="cls-9" d="m216.62,86.1c-.03,2.02-1.47,3.61-3.22,3.56-1.75-.06-3.14-1.74-3.1-3.76.03-2.02,1.53-2.98,3.28-2.93s3.07,1.11,3.04,3.13Z"/>
      <path class="cls-9" d="m200.53,85.17c1.6-4.25,11.93-5.42,15.37-3.22,1.55,1.06,3.6,2.65,2.97,4.77-.05.12-.2.13-.29.04-1.47-.93-2.31-2.1-3.8-2.79-2.85-1.21-6.38-.75-9.33-.18-1.57.45-3.05.93-4.71,1.58-.12.05-.25-.08-.2-.2h0Z"/>
      <path class="cls-24" d="m159.99,68.51c1.4-3.39,4.16-3.48,6.84-4.78,5.07-2.07,11.51-2.62,16.71-.49,2.66,1.06,5.09,2.91,6.19,5.83.11.26-.14.56-.41.49-6.14-1.52-11.28-3.93-17.45-1.74-1.84.49-5.55,1.41-7.4,1.85-1.25.34-2.57.43-4.27-.54-.22-.12-.3-.39-.21-.62h0Z"/>
      <path class="cls-24" d="m226.61,77.66c-1.84.37-2.88.04-3.84-.49-1.87-.9-3.86-1.61-5.83-2.02-5.72-1.2-11.55.83-17.26-1.47-.19-.08-.28-.29-.2-.48,2.08-1.85,4.67-2.45,7.08-2.8,3.77-.42,7.44-.97,11.35-.42,2.73.45,5.16,1.78,7.28,3.42,1.04.76,1.94,1.83,1.87,3.79,0,.25-.2.44-.44.47h0Z"/>
      <path class="cls-13" d="m197.96,85.89c1.61,2.61,1.8,5.45,2.51,8.2l.92,4.15c.34,1.62.78,3.17.99,4.89.05.33-.11.98-.35,1.25-.23.29-.31.34-.4.46-.19.22-.37.51-.53.76-.43.7-1.27,1.12-1.95,1.3-4.51.76-9.08-.42-12.91-2.7-.13-.09-.05-.3.11-.27,4.05.27,8.3,1.64,12.18.87.45-.16.61-.23.78-.59.21-.41.52-.83.84-1.18-.08.08-.1.31-.1.23-.6-2.81-1.31-5.79-1.78-8.72-.38-2.83-1.22-5.59-.59-8.59.02-.13.22-.17.29-.05h0Z"/>
      <path class="cls-33" d="m203.03,121.34c-3.8,3.8-9.36,5.58-14.7,5.42-3.81-.53-7.49-1.9-10.83-3.89-2.97-1.94-6.46-4.61-6.44-8.64.48-5.57,13.55-1.52,17-.94,4.31.98,8.92,1.88,12.66,4.44,1.06.8,3.26,2.03,2.31,3.6h0Zm-.24-.17c1.08-2.39-5.17-3.2-6.69-3.73-5.57-1.54-11.42-2.7-17.11-3.53-1.74-.14-4.09-.52-5.48.28-.1.17-.06.67.02.96,1.87,5.06,8.13,7.55,13.01,9.01,2.67.87,5.5.38,8.21-.19,2.65-.71,6.04-.65,8.03-2.8h0Z"/>
      <path class="cls-23" d="m139.76,49.18s-5.59,12.83,1.82,26.15c4.2,7.56,4.42,18.26,4.42,18.26,0,0,5.64-19.66,4.86-23.29-.78-3.62,10.85-17.75,4.33-23.42-6.53-5.68-15.43,2.3-15.43,2.3Z"/>
      <path class="cls-23" d="m176.93,26.76s12.74-10.03,25-10.63c16.76-.81,36.1,12.73,37.62,24.54,2.02,15.7,13.61,26.91-2.36,29.07-6.52.88-8.48-18.75-12.34-16.31-21.82,13.78-34.95,13.81-37.08,10.98-2.59-3.45,9.07-18.92,7.66-20.85-5.97-8.2-19.22-9.57-18.5-16.8Z"/>
      <path class="cls-23" d="m192.47,21.07s-20.58-6.71-28.75-3.61c-4.85,1.84-11.36,6.44-19.42,14.06-2.97,2.81-7.93,5.74-7.25,19.25.62,12.34,3.59,3.78,8.55,4.49,4.95.71.55-5.57,7.39-2.09,4.54,2.31,16.46,9.8,25.7,4.35.67-.4,18.88-15.68,18.88-15.68,0,0-6.34-10.81-2.22-6.89,4.13,3.92-2.89-13.87-2.89-13.87Z"/>
      <path class="cls-23" d="m233.01,61.58s-4.79,25.21-3.17,23.34,10.33-13.51,9.69-17.67c-.64-4.16-6.53-5.68-6.53-5.68Z"/>
      <path class="cls-10" d="m156.01,88.82c-.57,8.59-3.64,11.81-9.53,14.56-6.91,3.23-13.96-11.74-13.39-20.33.57-8.59,5.93-10.74,12.34-10.4,6.41.34,11.15,7.58,10.59,16.17Z"/>
      <path class="cls-13" d="m138.12,81.73c.81-1.09,1.8-.95,2.74-1,1.95-.06,3.95.45,5.55,1.64.86.64,1.66,1.41,1.46,2.63-.01.11-.11.18-.21.17-1.1-.11-1.57-.52-2.4-.99-1.43-.67-2.96-1.02-4.54-1.29-.83-.15-1.63,0-2.58-.89-.08-.07-.09-.19-.03-.28h0Z"/>
      <path class="cls-23" d="m142.45,66.76c.94,11.85,8.67,22.45,8.67,22.45,0,0,4.24-12.03,3.15-27.72-.34-4.96-11.82,5.28-11.82,5.28Z"/>
      <path class="cls-23" d="m160.33,34.48s-8.22,26.09-9.01,29.92,6.38,6.98,6.38,6.98c0,0,13.82-15.59,18.47-20.38,4.65-4.79-15.84-16.52-15.84-16.52Z"/>
      <path class="cls-23" d="m218.4,46.2s-10.78,20.21-12.9,21.21c-2.12,1,36.12,10.61,33.5-5-2.61-15.62-12.99-12.88-12.99-12.88l-7.62-3.32Z"/>
      <g>
        <path class="cls-10" d="m47.18,356.05s6.05,16.19,30.16,11.76c24.11-4.42,127.04-53.81,125.27-59.86-1.77-6.05-19.15-21.5-19.15-21.5,0,0-129.87,26.44-133.98,29.61-4.11,3.17-14.3,22.91-2.3,39.98Z"/>
        <path class="cls-10" d="m173.52,291.32c3.14-2.84,25.66-23.79,30.45-25.19,5.82-1.71,53.71-5.85,55.49-2.24,1.13,2.3,1.56,5.3-.29,6.26-5.55,2.9-24.37,2.52-25.01,6.2-.35,1.98,6.62.37,7.89,4.92,2.04,7.31-2,10.13-2,10.13l-2.96,14.33s-7.11,10.61-14.05,8.5c-6.53-1.99-29.87-2.51-32.44-5.1l-17.08-17.82Z"/>
        <path class="cls-13" d="m232.81,290.13c.67-.95,1.32-.74,1.95-.77.64,0,1.27.04,1.89.14.62.1,1.23.27,1.82.47.59.2,1.23.27,1.62,1.31.04.1,0,.21-.07.28-.8.75-1.37.56-1.98.52-.6-.04-1.2-.1-1.79-.19-.59-.1-1.17-.22-1.75-.38-.58-.17-1.16-.07-1.71-1.09-.05-.09-.04-.21.01-.29h0Z"/>
        <path class="cls-13" d="m230.84,302.67c.41-1.02.9-.9,1.37-1.04.47-.12.95-.19,1.43-.23.48-.03.96-.01,1.45.03.48.04.96-.06,1.5.82.06.09.06.2.02.29-.41.95-.9.91-1.37,1.03-.47.11-.95.2-1.43.24-.48.03-.96.03-1.45-.02-.49-.07-.95.12-1.5-.83-.05-.09-.06-.2-.02-.29,0,0-.04.09,0,0Z"/>
        <path class="cls-10" d="m181.15,292.2l8.17-24.05s5.57-7.49,7.76-11.37c2.19-3.88,3.22-11.15,6.44-9,3.22,2.16,5.81,3.62,4.75,11.55-1.06,7.93-13.39,31.06-13.39,31.06l-13.72,1.81Z"/>
        <path class="cls-13" d="m195.83,270.33c.77-1.15,1.69-1.18,2.57-1.55,1.31-.51,3.96-1.51,5.27-2,.89-.34,1.68-.83,2.96-.55.11.02.17.13.15.23-.36,1.31-1.32,1.74-2.18,2.24-1.74,1.02-3.63,1.77-5.62,2.15-.98.18-1.97.55-3.11-.25-.09-.07-.12-.2-.05-.29h0Z"/>
      </g>
      <g>
        <path class="cls-10" d="m428.44,136.18c-10.78,9.02-87.29,91.97-99.33,113.38-12.62,27.14,24.92,44.29,42.83,31.25,17.91-13.05,56.14-85.42,66.91-112.97,0,0,.38-40.67-10.4-31.65Z"/>
        <g>
          <g>
            <path class="cls-10" d="m427.16,148.75s-1.24-11.52-.21-16.04,3.82-10.82,6.88-14.69c1.55-1.96,7.44-11.25,9.34-13.32s5.96-4.29,8.47-7.07c2.74-3.03,7.07,1.92,6.2,6.74,0,0,7.72,6.94,9.85,6.66s5.9,8.57,2.42,10.68c2.35-.3,4.4,6.95,2.98,8.83,1.58.4,2.24,5.94,1.28,8.07-1.58,2.87-18.37,25.89-18.37,25.89h0s-28.42-1.93-28.81-3.8-.04-11.96-.04-11.96Z"/>
            <path class="cls-13" d="m456.23,106.56c.4,3.51-1.85,6.78-4.33,9.02-2.11,2.14-3.73,5.09-5.1,7.8,0,0,.09-.8.09-.8,1.04,5.28,1.64,10.72.41,16.02-.49,1.75-1.33,3.53-2.81,4.67-.12.09-.3-.04-.23-.18,1.8-4.83,1.78-9.91,1.14-14.94-.21-1.7-.51-3.42-.87-5.05-.06-.27-.02-.53.1-.76.77-1.52,1.59-2.95,2.52-4.37,1.57-2.79,4.59-4.73,6.4-7.38.89-1.24,1.63-2.58,2.39-4.08.06-.13.28-.1.29.05h0Z"/>
          </g>
          <g>
            <g>
              <path class="cls-35" d="m504.31,283.19c5.89,6.68,9.62,14.97,12.72,23.32,2.18,5.89,4.12,12.17,3.03,18.36-1.05,5.92-4.75,11-8.64,15.6-7.73,9.15-17.57,17.79-29.51,18.79-8.47.71-16.7-2.54-24.99-4.43-7.93-1.81-16.59-2.59-22.82-7.81-4.59-3.85-7.17-9.67-8.27-15.57-2.8-15.02,3.54-30.9,14.5-41.55,7.15-6.95,16.1-11.83,25.57-14.85,8.96-2.86,17.94-4.96,26.77-.77,4.44,2.11,8.39,5.24,11.63,8.91Z"/>
              <g class="cls-39">
                <path class="cls-36" d="m491.83,304.61c12.34,8.54,20.21,33.4,15.16,47.53,0,0-.29-.05-.29-.05-.23-4.35-.02-8.53-.44-12.74-.85-8.39-3.46-16.56-7.63-23.89-2.08-3.69-4.73-6.92-7-10.65l.21-.21h0Z"/>
                <path class="cls-36" d="m494.72,354.96c-4.13,1.82-9.22,3.12-13.68,1.41-2.85-1.15-7.91.02-8.47-4.19-.22-1.64.33-2.99-.02-4.47-.27-1.25-1.04-2.23-2.12-2.49-3.06-.33-6.22-.19-9.13-1.56-3.14-1.37-5.81-4.76-5.16-8.34.3-2.21,1.37-4,.09-5.57-3.18-2.13-2.86-3.36-2-6.83.32-1.82-1.18-3.63-2.55-4.88-3.31-2.37-3.62-5.91-1.93-9.48,1.6-3.3,5.08-6.14,5.03-9.59.09-1.39-.12-3,.28-4.75.39-1.78,1.57-3.33,2.95-4.34,4.13-3.02,8.92-2.53,13.26-4.19,1.49-.58,2.74-1.43,3.61-2.66.81-1.16,2.08-2.08,3.14-2.89,1.3-1.04,3.02-1.86,4.92-1.7,1.9.2,3.22,1.19,4.45,1.41,2.86.55,5.67-1.62,8.76-1.38,1.76.11,3.61,1.07,4.18,2.86,0,0-.43-.38-.43-.38,2.75.72,4.82,2.71,6.54,4.82,0,0-.22.2-.22.2-1.94-1.81-4.24-3.53-6.87-3.93,0,0-.13-.33-.13-.33-1.39-2.71-4.85-1.62-7.26-.68-1.45.5-3.12,1.04-4.94.7-1.77-.37-3.07-1.23-4.25-1.29-1.18-.09-2.44.44-3.49,1.31-1.22.92-2.27,1.76-3.1,3-4.52,6.11-16.42,2.4-18.92,9.99-.43,1.94.16,4.74-.62,6.9-1.12,3.71-4.6,6.1-5.36,9.85-.46,2.41.25,3.39,2.03,4.84,2.92,2.65,4.02,5.42,2.68,9.21-.12.64-.06.97.15,1.24.23.33.91.66,1.67,1.36.79.76,1.15,1.83,1.23,2.75.18,1.69-.46,3.27-.71,4.78-.49,2.64,1.55,5,3.87,6.07,1.91.88,4.16,1.14,6.3,1.26,0,0,1.13.06,1.13.06,1.37,0,2.9.65,3.76,1.76.61.74.97,1.62,1.16,2.49.66,2.35-.88,4.51.68,5.88,1.08.67,2.7.6,4.06.94,2.23.51,4.27,1.67,6.5,1.79,2.9.23,5.9-.51,8.86-1.21l.09.28h0Z"/>
                <path class="cls-36" d="m419.93,319.73c2.47,1.32,5.48,1.74,7.66.03.94-.75,1.55-2.07,2.42-3.49.82-1.5,2.48-2.82,4.17-3.32,1.54-.63,3.39-.23,4.99-.17,2.95.11,5.56-.94,7.73-2.94,1.13-.95,2.18-2.14,3.55-3.03l.21.2c-.75,1.38-1.49,2.75-2.54,4.02-2.06,2.65-5.66,4-8.95,4-1.49.09-2.81-.39-4.23.16-1.29.47-2.19,1.15-2.94,2.36-1.66,3.14-4.1,5.81-8.21,5.27-1.74-.22-3.48-1.27-4.09-2.89l.23-.19h0Z"/>
                <path class="cls-36" d="m440.29,322.77c-5.22,9.63-1.44,19.17,6.01,26.3,2.36,2.37,5.06,4.4,7.18,7.21l-.18.23c-3.25-1.37-5.92-3.55-8.49-5.9-5.24-4.63-9.49-11.3-9.14-18.57.1-3.52,1.24-7.52,4.4-9.47,0,0,.22.2.22.2h0Z"/>
                <path class="cls-36" d="m510.32,325.07c.25-1.81,1.12-2.94,1.66-4.36,1.35-3.48,1.77-7.28,1.21-10.97-.08-.81-.1-1.58.04-2.43,0,0,.27-.11.27-.11,3.4,3.18,2.46,10.62.45,14.4-.77,1.47-1.6,3.06-3.41,3.66,0,0-.22-.19-.22-.19h0Z"/>
                <path class="cls-36" d="m498.44,287.46c1.71,1.44,2.3,3.43,3.01,5.32,1.4,3.82,2.23,7.85,2.47,11.91.13,2.02.3,4.08-.63,6.08,0,0-.29,0-.29,0-.91-1.98-.94-3.92-1.21-5.86-.27-1.94-.63-3.86-1.03-5.77-.4-1.91-.85-3.81-1.37-5.7-.5-1.9-1.33-3.65-1.22-5.86l.27-.12h0Z"/>
                <path class="cls-36" d="m462.54,302.56c2.53.6,4.46,1.9,6.67,2.82,2.18.92,4.42,1.7,6.71,2.27,4.68,1.46,9.32,1.1,14.17,2.02,0,0,.03.29.03.29-2.33,1.2-4.9,1.19-7.38,1.1-5-.19-9.98-1.46-14.45-3.72-2.21-1.14-4.5-2.3-5.93-4.55l.17-.24h0Z"/>
                <path class="cls-36" d="m472.18,332.26c2.95.23,5.48,1.15,8.22,1.55,2.71.41,5.46.58,8.19.44,5.68,0,10.67-2.07,16.17-3.4,0,0,.14.26.14.26-5.78,5.52-17.38,6.46-24.89,4.83-2.82-.62-5.73-1.35-7.95-3.41l.12-.27h0Z"/>
                <path class="cls-36" d="m443.87,302.21c-3.12.37-7.01-8.01-4.79-10.21,0,0,.29,0,.29,0,.93.91.98,1.74,1.26,2.6.28.84.62,1.65,1,2.44.37.79.78,1.57,1.25,2.32.46.78,1.13,1.29,1.18,2.64l-.19.22h0Z"/>
                <path class="cls-36" d="m441.64,338.63c.62-1.32,1.57-1.63,2.41-2.26.84-.61,1.65-1.25,2.43-1.91.78-.67,1.55-1.35,2.29-2.09.74-.74,1.28-1.59,2.61-2.02l.25.15c.2,1.43-.56,2.35-1.24,3.27-.69.92-1.47,1.78-2.35,2.53-.88.75-1.85,1.39-2.87,1.92-1.02.5-2.02,1.18-3.43.68l-.11-.27h0Z"/>
                <path class="cls-36" d="m425.21,327.88c1.49.92,2.01,2.22,2.84,3.39.81,1.17,1.67,2.3,2.56,3.41.89,1.1,1.81,2.19,2.78,3.23.98,1.05,2.09,1.89,2.72,3.49l-.17.24c-1.74-.14-2.89-1.19-4.03-2.18-1.15-.99-2.22-2.08-3.18-3.26-.95-1.18-1.8-2.45-2.52-3.79-.7-1.33-1.56-2.64-1.27-4.4l.27-.12h0Z"/>
                <path class="cls-36" d="m451.2,350.61c.72-1.04,1.44-1.01,2.16-1.3.71-.27,1.4-.56,2.08-.87.68-.31,1.36-.63,2.02-1,.68-.38,1.18-.88,2.39-.8l.21.21c.06,1.24-.7,1.79-1.37,2.35-.68.57-1.43,1.06-2.24,1.43-.81.37-1.67.63-2.54.78-.86.12-1.77.42-2.68-.5l-.02-.29h0Z"/>
              </g>
            </g>
            <g>
              <path class="cls-27" d="m467.43,181.93c-.37,5.17-1.9,10.05-3.22,14.97-1.34,4.92-2.8,9.8-4.29,14.68-1.54,4.86-3.13,9.7-4.83,14.51-1.69,4.81-3.29,9.65-5.86,14.14l-.28-.1c.85-5.1,2.57-9.88,4.1-14.72l4.56-14.55,4.52-14.56c1.52-4.85,2.74-9.78,5.01-14.44l.28.08h0Z"/>
              <path class="cls-27" d="m474.56,180.36c-.64,5.14-2.45,9.91-4.03,14.75-1.6,4.83-3.29,9.63-4.97,14.42l-5.21,14.33c-1.75,4.77-3.34,9.58-5.78,14.13l-.28-.09c.71-5.12,2.44-9.92,4.04-14.75,1.6-4.83,3.28-9.63,4.96-14.43l5.2-14.33c1.78-4.76,3.28-9.6,5.79-14.12l.28.09h0Z"/>
              <path class="cls-27" d="m481.6,184.22c-1.01,4.94-3.26,9.39-5.42,13.84-2.18,4.45-4.59,8.79-7.15,13.04-2.6,4.23-5.35,8.36-8.3,12.34-2.94,3.98-5.92,7.97-9.78,11.19l-.23-.19c2.44-4.37,5.48-8.2,8.26-12.25,2.78-4.04,5.46-8.15,7.98-12.35,2.57-4.18,4.97-8.45,7.28-12.78,2.33-4.33,4.26-8.82,7.08-12.97l.27.11h0Z"/>
              <path class="cls-27" d="m479.51,182.46c-.27,2.24-1.46,3.88-2.4,5.67-1.42,2.67-4.3,8.04-5.73,10.7-.95,1.79-1.73,3.65-3.38,5.15,0,0-.27-.12-.27-.12-.03-2.24.9-4.09,1.72-5.97,1.64-3.77,3.57-7.41,5.8-10.86,1.13-1.71,2.08-3.55,4.02-4.74l.25.16h0Z"/>
              <path class="cls-27" d="m473.22,189.12c-1.71,4.69-3.91,8.98-5.7,13.55-1.8,4.55-3.47,9.17-5.25,13.78-3.21,7.97-6.75,16.31-12.66,22.73-.91.87-1.83,1.72-2.81,2.49,0,0-.22-.2-.22-.2,2.64-4.21,5.37-8.15,7.6-12.49,2.22-4.32,4.08-8.84,5.84-13.41,1.81-4.56,3.51-9.19,5.5-13.74,1.99-4.52,4.01-9.16,7.45-12.87,0,0,.25.15.25.15h0Z"/>
              <g>
                <path class="cls-22" d="m440.99,231.21c-13.72,18.24-57.25,93.55-49.61,98.93,7.64,5.37,67.33-78.74,69.9-88.2,2.57-9.46-14.69-18.17-20.29-10.73Z"/>
                <path class="cls-18" d="m438.05,236.75c.93-1.04,2.16-.87,3.36-.69,2.85.46,5.45,2.35,6.74,4.93.2.55.29,1.16.08,1.82l-.27.11c-.33-.14-.57-.29-.78-.45-.61-.39-1.04-1.01-1.54-1.5-1.36-1.26-2.97-2.2-4.72-2.8-1-.28-1.99-.38-2.82-1.13,0,0-.03-.29-.03-.29h0Z"/>
                <path class="cls-18" d="m429.66,250.8c.82-.93,1.63-.63,2.39-.53,1.56.25,3.04.98,4.21,2.04.57.52,1.24,1.02,1.08,2.19l-.21.2c-1.14.12-1.55-.33-2.13-.66-1.15-.63-2.3-1.18-3.51-1.68-.62-.27-1.24-.23-1.84-1.27l.02-.29h0Z"/>
                <path class="cls-18" d="m421.18,265.45c.23-.92.82-.97,1.53-.95,1.15.01,2.26.62,2.92,1.56.42.56.66,1.1.08,1.79,0,0-.27.11-.27.11-1.17.03-1.3-.51-2.21-.9-.43-.24-.87-.43-1.34-.59-.13-.07-.67-.58-.7-1.02h0Z"/>
                <path class="cls-18" d="m413.53,279.01c.62-.82.9-.52,1.21-.45.65.19,1.17.66,1.46,1.27.14.29.4.56-.26,1.26l-.26.14c-.91.24-.95.08-1.14-.04-.39-.2-.66-.42-.91-.78-.13-.2-.33-.13-.2-1.13l.1-.27h0Z"/>
              </g>
            </g>
            <g>
              <path class="cls-27" d="m446.95,193.41c.71,5.14.23,10.22-.03,15.31-.28,5.09-.7,10.17-1.15,15.25-.5,5.07-1.04,10.14-1.7,15.2-.65,5.05-1.21,10.13-2.79,15.05l-.29-.04c-.23-5.16.46-10.19.95-15.25l1.43-15.18,1.39-15.18c.48-5.06.64-10.14,1.9-15.17l.29.02h0Z"/>
              <path class="cls-27" d="m453.6,190.39c.55,4.25-.04,8.38-.37,12.54-.35,4.16-.77,8.3-1.18,12.45-.46,4.14-.91,8.29-1.43,12.43-.51,4.14-.88,8.29-2.22,12.34,0,0-.29-.03-.29-.03-.62-8.39.95-16.66,1.55-24.99.46-4.14.9-8.29,1.42-12.43.54-4.14.82-8.3,2.23-12.34,0,0,.29.03.29.03h0Z"/>
              <path class="cls-27" d="m461.28,192.7c.04,5.04-1.23,9.86-2.42,14.67-1.21,4.81-2.66,9.56-4.28,14.25-1.66,4.67-3.49,9.29-5.55,13.8-2.05,4.51-4.14,9.03-7.24,12.98,0,0-.26-.14-.26-.14,3.19-9.28,7.71-17.9,10.77-27.44,1.64-4.62,3.1-9.3,4.46-14.01,1.38-4.72,2.33-9.51,4.22-14.16,0,0,.29.06.29.06h0Z"/>
              <path class="cls-27" d="m458.87,191.42c.2,2.25-.62,4.09-1.17,6.05-.84,2.91-2.53,8.75-3.38,11.66-.56,1.95-.93,3.93-2.23,5.74,0,0-.29-.06-.29-.06-.49-2.18.03-4.18.44-6.19.82-4.03,1.95-7.99,3.41-11.83.75-1.91,1.29-3.91,2.94-5.47,0,0,.27.1.27.1h0Z"/>
              <path class="cls-27" d="m464.84,201.38c-.75,5.09-2.71,9.78-4.53,14.5-1.84,4.72-3.86,9.36-5.99,13.96-2.17,4.58-4.45,9.1-6.89,13.53-2.44,4.43-4.86,8.89-8.23,12.77l-.25-.15c1.79-4.8,4.3-9.14,6.58-13.62,2.27-4.48,4.5-8.99,6.6-13.55,2.15-4.54,4.18-9.14,6.17-13.76,2-4.62,3.65-9.36,6.25-13.78l.28.1h0Z"/>
              <g>
                <path class="cls-22" d="m431.34,247.11c-9.62,20.7-36.53,103.42-27.94,107.09,8.59,3.67,49.47-91.03,50.02-100.82s-18.15-14.71-22.08-6.27Z"/>
                <path class="cls-18" d="m429.62,253.14c.69-1.21,1.93-1.3,3.14-1.37,2.88-.14,5.82,1.16,7.61,3.42.31.49.52,1.07.45,1.76l-.24.17c-.35-.07-.62-.17-.86-.28-.68-.26-1.22-.77-1.82-1.15-1.59-.95-3.36-1.54-5.2-1.76-1.04-.07-2.02.04-3-.52,0,0-.09-.28-.09-.28h0Z"/>
                <path class="cls-18" d="m424.34,268.64c.61-1.08,1.46-.96,2.23-1.01,1.58-.08,3.18.32,4.54,1.12.67.39,1.43.74,1.51,1.92l-.17.24c-1.09.35-1.59,0-2.23-.2-1.26-.38-2.49-.67-3.78-.92-.66-.14-1.26.03-2.07-.86l-.04-.29h0Z"/>
                <path class="cls-18" d="m419.09,284.73c.04-.95.59-1.12,1.3-1.24,1.13-.23,2.34.13,3.18.92.53.46.87.94.45,1.73,0,0-.24.17-.24.17-1.14.27-1.38-.23-2.35-.42-.47-.15-.94-.24-1.44-.3-.14-.04-.78-.43-.9-.85h0Z"/>
                <path class="cls-18" d="m414.43,299.58c.44-.93.77-.69,1.09-.69.67.05,1.29.4,1.69.94.19.25.51.46.01,1.28l-.22.19c-.84.43-.91.27-1.13.2-.42-.12-.73-.28-1.06-.57-.17-.17-.35-.06-.43-1.07l.05-.29h0Z"/>
              </g>
              <path class="cls-18" d="m422.25,270.24c-.38,4.4-1.84,8.44-3.04,12.57l-3.74,12.35-3.88,12.3c-1.29,4.1-2.43,8.22-4.35,12.16l-.29-.07c.16-4.41,1.44-8.55,2.58-12.7,1.15-4.15,2.38-8.28,3.63-12.4,1.3-4.1,2.6-8.21,3.98-12.29,1.4-4.07,2.56-8.22,4.82-12.01l.28.09h0Z"/>
              <path class="cls-18" d="m447.22,244.62c.18-.3.48-.27.74-.28,3.16.41,5.54,3.11,6.45,6.1.5,1.63.27,3.44-.27,5.03-1.28,4.36-2.85,8.61-4.5,12.84-1.1,2.81-2.08,5.66-3.99,8.16,0,0-.27-.1-.27-.1.2-3.14,1.3-5.93,2.24-8.79.98-3.01,3.35-9.87,4.27-12.78.41-1.22.75-2.55.41-3.82-.64-2.5-2.93-4.98-5.1-6.36h0Z"/>
            </g>
            <g>
              <path class="cls-19" d="m435.38,294.12c-2.66,6.92-1.33,14.88,1.97,21.52,2.34,4.7,5.88,9.1,10.79,10.97,8.94,3.41,20.54.36,27.17-6.35,6.35-6.43,10.88-19.77,3.38-27.62-5.73-6.01-13.83-8.85-23.15-10.24-8.43-1.26-17.17,3.91-20.17,11.73Z"/>
              <g>
                <path class="cls-19" d="m414.07,319.42c-4.04,1.3-14.99-2.76-21.58,6.08-6.59,8.84,11.86,42.8,26.22,39.89,3.49-.71,5.81-3.1,8.87-3.92,3.06-.81,8.5,1.75,13.06-5.85,3.37-5.62,7.84-36.96-2.89-41.19-14.16-5.59-19.64,3.69-23.68,4.99Z"/>
                <path class="cls-17" d="m411.16,308.48c1.17.92,1.25,1.98,1.63,3.01.66,1.81,1.57,4.34,2.26,6.11.4,1.02.96,1.93.74,3.35,0,0-.25.15-.25.15-1.36-.5-1.86-1.57-2.42-2.57-1.14-2-1.97-4.19-2.41-6.46-.2-1.13-.61-2.24.17-3.53l.29-.05h0Z"/>
                <path class="cls-30" d="m410.25,321.94c.69-1.08,1.45-1.07,2.19-1.39.74-.29,1.45-.59,2.17-.91.71-.32,1.43-.64,2.13-.99.71-.36,1.27-.86,2.49-.72l.19.22c-.04,1.26-.83,1.76-1.53,2.3-.71.54-1.48,1.02-2.3,1.39-.82.37-1.69.63-2.57.79-.87.14-1.77.47-2.74-.41l-.04-.29h0Z"/>
                <path class="cls-17" d="m412.9,314.13c.02-3.46,1.46-6.9,3.91-9.35,2.45-2.45,5.88-3.89,9.34-3.92.5,2.84-.23,6.02-1.65,8.53s-3.74,4.5-6.44,5.54c-.81.31-1.68.54-2.55.46s-2.62-.38-2.62-1.26Z"/>
              </g>
              <g>
                <path class="cls-19" d="m440.31,350.23c3.22,9.62,13.93,16.27,23.89,14.35,5.53-1.07,10.37-4.41,14.55-8.19,4.01-3.64,7.7-7.99,8.92-13.26,2.03-8.7-3.65-18.06-11.79-21.72-18.29-8.22-42.52,8.06-35.57,28.83Z"/>
                <path class="cls-30" d="m455.25,336.25c1.4-.24,2.39.06,3.63-.2,2.43-.49,3.64-4.15.78-4.84-.46-.14-.91-.3-1.69-.25l-.2-.22c.24-.84,1.19-1.37,2.06-1.38,1.82-.02,3.58,1.47,3.82,3.3.59,3.68-3.45,6.48-6.77,5.34-.74-.26-1.41-.73-1.77-1.51l.15-.26h0Z"/>
                <path class="cls-17" d="m458.64,333.92c-1.38.27-2.14-.5-2.97-1.1-1.66-1.23-3.04-2.84-4.03-4.65-.49-.89-1.08-1.79-.68-3.09l.27-.13c1.24.47,1.62,1.29,2.21,2.04.58.74,1.18,1.44,1.79,2.14.61.7,1.23,1.39,1.88,2.06.64.7,1.45,1.12,1.7,2.48l-.16.24h0Z"/>
                <path class="cls-17" d="m465.75,320.89c-2.67-.68-5.65-.05-7.81,1.66s-3.47,4.46-3.42,7.22c2.5,2.06,6.7,2.24,9.26.25s3.34-6.18,1.97-9.13Z"/>
              </g>
              <path class="cls-30" d="m456.76,290c.84.87.96,1.53,1.55,2.39,1.26,1.72,3.48,2.27,5.45,1.54.43-.1.89-.18,1.57-.22l.21.2c-.09,1.42-1.38,2.11-2.58,2.42-2.43.76-5.38-.5-6.49-2.79-.59-1.1-1.04-2.51,0-3.54,0,0,.29.02.29.02h0Z"/>
              <path class="cls-17" d="m460.2,292.98c-.61-1.18-.09-1.98.22-2.83.66-1.71,1.65-3.28,2.89-4.62.61-.67,1.16-1.43,2.44-1.45l.21.2c.08,1.25-.5,1.83-.95,2.55-.66,1.07-1.98,3.22-2.65,4.28-.47.72-.65,1.52-1.88,1.98l-.27-.1h0Z"/>
              <path class="cls-17" d="m460.62,290.27c2-2.48,2.72-5.95,1.86-9.02-.86-3.07-3.26-5.67-6.26-6.75-.1.19-.2.38-.29.56-1.41,2.7-1.24,5.67-.38,8.59s2.84,5.51,5.43,7.11"/>
              <path class="cls-30" d="m436.84,313.56c1.51-.09,2.3.87,3.15,1.66,1.69,1.64,2.96,3.73,3.64,5.99.34,1.11.74,2.28.05,3.56l-.29.05c-1.1-.9-1.31-1.88-1.76-2.84-.91-1.89-2-3.65-3.26-5.32-.63-.86-1.46-1.43-1.71-2.87l.18-.23h0Z"/>
              <path class="cls-30" d="m443.5,329.99c-.28,2.06-1.26,3.9-1.81,5.88-1.03,3.85-1.13,7.92-.3,11.82.43,1.97,1.23,3.73,1.53,5.96l-.25.15c-1.84-1.29-2.73-3.5-3.35-5.58-1.26-4.22-1.15-8.85.31-13,.74-2.04,1.69-4.25,3.63-5.4,0,0,.24.17.24.17h0Z"/>
              <path class="cls-30" d="m446.75,326.22c2.21-4.79,8.22-7.38,13.11-8.51,5.11-.81,11.29-.7,15.36,2.89,0,0-.12.27-.12.27-2.61-.23-4.91-.94-7.45-1.18-4.91-.45-9.85.54-14.22,2.82-2.28,1.18-4.08,2.76-6.45,3.91,0,0-.22-.2-.22-.2h0Z"/>
            </g>
            <path class="cls-2" d="m464.3,183.81c1.86,16.91,4.25,61.24-14.43,60.79-15.91-.39-8.91-40.64-8.21-61.98.94-28.67,10.28-62.05,10.28-62.05,0,0,9.59,38.19,12.35,63.25Z"/>
            <g>
              <path class="cls-11" d="m443.65,180.75c-16.93,37.09-34.19,74.49-46.73,113.33-1.34,4.29-3.1,10.39-4.13,14.71-2.37,9.67-4.86,19.91-2.96,29.83,1.77,9.84,7.74,18.7,16.82,23.13,11.34,5.72,24.46,6.07,36.97,5.97,7.67.1,15.33,1.27,22.94.91,10.09-.29,19.89-3.35,28.49-8.6,12.04-7.94,25.84-18.51,26.45-34.15.28-5.57-1.06-11.2-2.72-16.57-17.01-42.04-36.24-83.2-53.19-125.3,0,0,.27-.12.27-.12,18.71,41.4,37.8,82.69,54.95,124.75,1.73,5.58,3.14,11.35,2.86,17.33-.59,16.47-14.77,27.67-27.43,36.02-8.87,5.47-19.16,8.7-29.59,9.02-7.76.38-15.38-.75-23.05-.88-12.84.07-26.3-.36-38.01-6.33-9.68-4.76-16.09-14.26-17.95-24.75-1.95-10.39.58-20.74,3.06-30.77.96-4.36,2.91-10.5,4.2-14.83,6.25-19.54,13.87-38.58,22.06-57.38,4.09-9.39,8.33-18.71,12.74-27.95,4.38-9.25,8.93-18.43,13.68-27.5l.26.13h0Z"/>
              <path class="cls-11" d="m518.48,311.25c-.66,16.63-16.13,40.83-30.88,48.55,0,0-.18-.24-.18-.24,3.35-3.64,6.95-6.82,10.18-10.43,6.42-7.21,11.65-15.44,15.45-24.31,1.93-4.45,3.19-9.07,5.14-13.63,0,0,.29.06.29.06h0Z"/>
              <path class="cls-11" d="m477.68,212.75c-1.7,12.35-5.41,24.88-9.54,36.65-11.08,31.22-27.78,60.73-49.4,85.88-2.99,3.43-6.56,7.12-9.83,10.27,0,0-.22-.2-.22-.2,2.75-3.6,6.05-7.48,8.78-11.12,20.73-25.57,37.38-54.62,48.67-85.55,3.1-8.56,5.97-18.25,8.6-26.92.82-3.04,1.7-6.06,2.65-9.08,0,0,.29.06.29.06h0Z"/>
              <path class="cls-11" d="m486.27,233.51c-1.67,12.55-5.52,25.27-9.95,37.14-11.87,31.48-30.49,60.74-54.55,84.31-3.32,3.22-7.28,6.62-10.87,9.5,0,0-.2-.22-.2-.22,3.12-3.38,6.82-6.98,9.9-10.43,23.19-24.04,41.67-52.77,53.74-83.92,3.31-8.63,6.32-18.42,8.99-27.22.82-3.08,1.7-6.15,2.65-9.22l.29.06h0Z"/>
              <path class="cls-11" d="m495.04,257.71c-10.3,37.9-38.34,83.49-67.41,109.91,0,0-.21-.21-.21-.21,13.98-16.51,27.76-33.12,38.86-51.72,5.66-9.18,10.8-18.68,15.47-28.4,4.69-9.73,8.59-19.77,13.01-29.68,0,0,.28.09.28.09h0Z"/>
              <path class="cls-11" d="m502.63,277.32c-7.94,31.34-32.79,71.66-57.12,92.96,0,0-.21-.21-.21-.21,11.71-14.08,23.46-28.02,32.84-43.78,4.79-7.76,9.15-15.79,13.11-24,3.98-8.22,7.24-16.72,11.11-25.07,0,0,.28.09.28.09h0Z"/>
              <path class="cls-11" d="m510.51,294.33c-.78,27.26-21.1,60.66-44.88,74.01,0,0-.17-.24-.17-.24,5.53-4.97,11.09-9.74,16.04-15.18,9.87-10.86,17.6-23.62,22.66-37.39,2.56-6.9,4.13-14.04,6.05-21.23,0,0,.29.04.29.04h0Z"/>
              <path class="cls-11" d="m444.6,254.67c-5.17,16.26-13.8,31.16-22.55,45.71-9.22,14.26-18.88,28.5-31.17,40.32,0,0-.22-.19-.22-.19,9.98-13.73,20.58-26.86,29.35-41.41,4.5-7.16,8.7-14.5,12.68-21.96,3.99-7.46,7.45-15.16,11.65-22.59,0,0,.27.11.27.11h0Z"/>
              <path class="cls-11" d="m432.75,240.8c-1.33,6.1-4.05,11.7-6.8,17.22-2.77,5.53-5.9,10.88-9.29,16.06-7,10.13-14.44,20.3-24.27,27.88,0,0-.21-.21-.21-.21,7.65-9.63,15.9-18.58,22.47-29,3.38-5.08,6.49-10.35,9.39-15.72,2.91-5.38,5.29-10.99,8.45-16.33l.27.11h0Z"/>
              <path class="cls-11" d="m431.79,220.65c-.4,3.3-1.84,6.12-3.04,9.06-1.22,2.93-2.51,5.82-3.78,8.73-1.32,2.88-2.64,5.77-4.02,8.62-1.37,2.86-2.61,5.78-4.74,8.3l-.27-.12c.46-3.27,1.83-6.13,3.05-9.05,1.22-2.93,2.5-5.83,3.77-8.73,1.32-2.88,2.63-5.77,4.01-8.63,1.39-2.85,2.55-5.8,4.75-8.29l.27.12h0Z"/>
              <path class="cls-11" d="m425.39,214.92c18.4,46.11,45.36,78.95,87.15,105.77,0,0-.15.26-.15.26-31.48-15.83-56.74-42.96-73.87-73.48-5.64-10.28-10.61-21.04-13.42-32.45,0,0,.28-.09.28-.09h0Z"/>
              <path class="cls-11" d="m459.6,246.54c2.97,3.77,5.28,7.79,8.18,11.47,2.88,3.67,6.02,7.13,9.46,10.27,6.82,6.63,14.95,11,23.06,15.87,0,0-.11.27-.11.27-12.9-2.96-26.48-14.56-34.14-25.12-2.79-3.88-5.49-7.94-6.72-12.64l.26-.13h0Z"/>
              <path class="cls-11" d="m465.6,232.31c2.16,1.84,3.49,4.06,5.22,6.06,1.71,1.99,3.53,3.89,5.49,5.63,3.94,3.87,8.53,5.98,12.75,9.43,0,0-.12.27-.12.27-2.85-.23-5.29-1.6-7.62-3.02-4.7-2.83-8.88-6.58-12.19-10.96-1.63-2.19-3.33-4.42-3.79-7.27,0,0,.26-.14.26-.14h0Z"/>
              <path class="cls-11" d="m417.99,240.42c17.95,44.48,43.14,75.49,83.14,101.99,0,0-.15.25-.15.25-30.06-15.47-54.07-41.68-70.45-70.99-5.38-9.88-10.15-20.21-12.82-31.16l.28-.09h0Z"/>
              <path class="cls-11" d="m409.72,257.88c13.5,43.67,36.05,74.93,73.38,101.33,0,0-.16.25-.16.25-28.31-15.44-50.15-41.9-63.7-70.87-4.45-9.78-8.22-19.98-9.81-30.64l.29-.07h0Z"/>
              <path class="cls-11" d="m401.73,280.79c2.29,7.68,4.2,15.33,7.07,22.72,5.69,14.77,13.95,28.51,24.34,40.45,5.21,5.98,11.02,11.32,16.78,16.88l-.18.23c-19.76-12.63-34.95-35-42.96-56.8-2.71-7.55-4.98-15.37-5.34-23.43,0,0,.29-.05.29-.05h0Z"/>
              <path class="cls-11" d="m396.45,301.97c.88,5.45,1.22,10.8,2.35,16.1,1.12,5.27,2.7,10.45,4.79,15.41,3.99,10.22,10.56,18.7,17.33,27.27,0,0-.2.21-.2.21-12.6-9.17-21.36-27.37-24.04-42.48-.95-5.44-1.61-11.03-.52-16.52,0,0,.29,0,.29,0h0Z"/>
            </g>
          </g>
          <g>
            <path class="cls-10" d="m473.1,130.55c1.41-1.88-.64-9.14-2.98-8.83,3.48-2.12-.29-10.95-2.42-10.68-.25.03-.6,0-1.01-.1.7-.69,1.32-1.38,1.85-2.03,1.97-2.47-3.41-8.41-6.03-7.89s-5.91,4.19-5.91,4.19l-2.23,5.53s.24,6.77,4.36,5.26c.16-.06.3-.13.45-.19l.06.18c-3.31,1.88-8.85,5.24-10.7,7.63-1.95,2.51.89,7.55,5.62,6.05,1.26-.4,2.67-.96,4.12-1.6-.02.09-.03.18-.05.27-1.51.86-3.09,1.81-4.33,2.7-3.44,2.47.82,7.43,3.8,6.85.75-.15,1.68-.45,2.7-.85.2.2.4.39.59.58-1.36,1.71.64,5.92,2.86,5.42,1.61-.36,5.19-1.82,7.54-2.82l.45.04,1.09-.7c.41-.18.66-.29.66-.29l-.16-.03.96-.61c.96-2.13.3-7.67-1.28-8.07Z"/>
            <path class="cls-13" d="m473.15,130.68c-3.52,3.45-8.02,5.46-12.45,7.47-1.27.47-2.64,1.08-4.03.94-2.51-.4-4.53-2.36-5.14-4.83-.56-2.19,1.07-3.96,2.89-4.89,2.79-1.71,5.62-3.26,8.89-3.91.15-.03.24.17.13.26-2.45,2.22-5.27,3.67-7.86,5.43-.93.64-2.14,1.31-1.78,2.62.33,1.39,1.94,2.95,3.5,2.94.86-.14,1.71-.44,2.55-.75,4.55-1.58,8.35-4.4,13.19-5.56.15-.03.24.18.11.27h0Z"/>
            <path class="cls-13" d="m473.64,139.4c-1.02,1.55-2.53,2-3.93,2.69-1.42.67-2.86,1.28-4.4,1.78-.94.33-2.21.6-3.11.08-2.41-1.07-4.12-6.55-.63-6.97.13,0,.2.17.12.27-.46.73-.33,1.21-.24,1.78.13.98.82,2.46,1.74,2.82.51.15.88-.15,1.39-.26,0,0,4.31-1.5,4.31-1.5,1.47-.48,2.81-1.25,4.64-.94.12.02.19.17.12.27h0Z"/>
            <path class="cls-11" d="m459.89,102.26c-1.25.51-3.11.72-6.33,5.08-4.61,6.24-5.47,16.49-5.47,16.49l7.63-6.84s-4.03-8.47,4.16-14.73Z"/>
            <path class="cls-13" d="m461.7,114.45c-.11-.04.27.48.14.26-.06.06-.18.16-.25.22-2.73,2.34-5.87,4.18-8.75,6.29-1.3,1.04-2.77,2-3.62,3.43-.79,1.76,1.17,4.2,3.2,4.09,2.57-.25,4.96-1.63,7.39-2.59,3.38-1.49,6.56-3.38,10.27-4.39.08-.02.16.02.19.1-2.52,2.89-6.21,4.48-9.53,6.26-2.65,1.21-5.33,2.82-8.34,3.02-3.99.18-7.41-4.87-4.76-8.27,1.13-1.34,2.56-2.37,3.96-3.36,3.12-2.13,6.4-4.07,10.07-5.06,0,0,.03,0,.03,0-.12-.23.25.28.16.25-.17.14-.36-.13-.18-.24h0Z"/>
            <path class="cls-13" d="m468.64,108.99c-.51,3.61-7.57,8.14-11.01,8.34-3.15-.06-4.59-4.09-3.43-6.6.05-.12.22-.13.29-.02.5.8.84,1.56,1.16,2.27.5,1.13.99,2.38,2.34,1.98,2.18-.76,4.35-1.98,6.26-3.33,1.35-.94,2.35-2.14,4.16-2.82.12-.05.25.06.23.18h0Z"/>
          </g>
          <g>
            <g>
              <path class="cls-27" d="m439.52,207.88c-3.23-3.67-3.94-9.86-1.61-14.15.33-.62.73-1.22.85-1.94.16-.91-.16-1.86-.46-2.74-1.23-3.52-2.45-7.04-3.68-10.56-.47-1.36-.96-2.82-.71-4.23s1.54-2.65,2.74-2.12,1.2-2.4,1.08-3.79-.83-2.64-1.43-3.89-1.11-2.67-.81-4.02c.45-2.01,2.44-2.93,3.5-4.6,1.25-1.97,1.04-4.68,1.04-7.15,0-4.08.77-8.13,2.22-11.81.33-.85.74-1.72,1.45-2.17s1.8-.27,2.14.6c1.49-.04,2.01-1.84,2.77-3.27s1.38-3.06,2.58-4.04c1.5-1.22,3.77-1.06,5.19.38s1.84,4,.96,5.85c.91-.73,2.28-.18,3,.84s.96,2.35,1.17,3.62c.49,2.92.97,5.84,1.46,8.76-.77.72-.78,1.1-.07,1.94.72-.99,1.49-2.01,2.55-2.46s2.5-.11,3,1.08c.77,1.84-1.12,3.82-.76,5.8.31,1.68,2.03,2.5,2.83,3.96.86,1.56.51,3.62-.34,5.12s-2.13,2.6-3.27,3.83-2.21,2.69-2.43,4.47.71,3.9,2.28,4.23c1.2,1.4.29,4.48-.97,5.71s-2.95,1.76-4.35,2.8c-2.73,2.03-4.1,6.14-3.28,9.81.48,2.14,1.39,4.98-.25,6.05-.8.52-1.87.25-2.69.73-1.02.6-1.29,2.17-1.1,3.49s.7,2.58.79,3.91c.24,3.73-2.85,6.5-5.84,7.92-2.38,1.14-5.12,1.88-7.6.85s-4.38-4.4-3.33-7.09"/>
              <path class="cls-27" d="m455.1,218.44c1.3.99,3.26.55,4.48-.53s1.88-2.65,2.53-4.14,1.37-3.05,2.66-4.05c1.01-.79,2.33-1.18,3.18-2.14,2.18-2.44.11-6.73,2.01-9.39,1.19-1.67,3.46-2.03,5.4-2.72s3.99-2.43,3.42-4.4-2.09-4.8-1.07-6.56c.42-.71,1.1-1.22,1.72-1.77,3.79-3.34,5.56-8.8,4.46-13.72-.13-.57-.35-1.2-.88-1.43-.75-.32-1.56.35-1.95,1.06s-.64,1.57-1.31,2.03c-1.14.77-2.8-.18-3.25-1.48-.45-1.3-.07-2.73.31-4.05s.76-2.75.31-4.05c-.7-2.05-3.64-2.89-5.33-1.53-2.47-1.47-6.85.62-8.31,3.1s-1.52,5.5-1.55,8.38c-.03,2.87-.11,5.9-1.6,8.36-1.89,3.13-5.66,4.67-7.85,7.61-2.79,3.74-2.46,8.88-2.01,13.53.63,6.47,1.27,12.97,2.84,19.28"/>
              <path class="cls-27" d="m465.15,155.04c.21-1.84.94-5.43,1.99-6.81s2.28-.92,3.36-1.82c2.65-2.22-.12-5.93,2.39-8.65,3.86-4.19,3.44,1.8,4.13,3.42s3.74,3.53,6.06,3.74c.22.24.12.6.31.87,5.69-2.66.4,9.44-.06,10.93-.83,2.71.76,4.53-.71,6.82-1.39,2.17-3.96,2.41-6.1,3.46-3.45,1.7-3.41,3.4-4.85,6.85"/>
            </g>
            <g>
              <path class="cls-27" d="m458.12,203.58c-2.4-4.26-1.8-10.46,1.37-14.18.46-.54.97-1.04,1.24-1.72.34-.86.23-1.85.12-2.77-.47-3.7-.93-7.39-1.4-11.09-.18-1.43-.35-2.96.18-4.29s2.06-2.27,3.12-1.5,1.67-2.09,1.84-3.49-.27-2.76-.59-4.1-.53-2.85.05-4.1c.86-1.87,3-2.36,4.38-3.77,1.64-1.67,1.99-4.36,2.51-6.78.86-3.99,2.44-7.79,4.63-11.09.5-.76,1.08-1.53,1.87-1.82s1.81.11,1.97,1.03c1.47.27,2.35-1.38,3.39-2.63s1.99-2.71,3.36-3.42c1.72-.88,3.91-.25,5,1.45s.97,4.29-.27,5.92c1.04-.52,2.27.3,2.76,1.45s.45,2.49.39,3.78c-.13,2.96-.26,5.92-.39,8.88-.91.54-1,.92-.47,1.89.91-.81,1.88-1.65,3.01-1.88s2.46.42,2.7,1.68c.37,1.96-1.89,3.5-1.95,5.52-.05,1.7,1.47,2.87,1.95,4.46.51,1.7-.25,3.65-1.39,4.94-1.14,1.29-2.62,2.1-3.99,3.06s-2.72,2.17-3.31,3.87-.12,3.96,1.35,4.62c.88,1.62-.65,4.44-2.14,5.38s-3.25,1.11-4.83,1.83c-3.09,1.42-5.29,5.15-5.25,8.91.02,2.19.33,5.16-1.51,5.86-.89.34-1.88-.15-2.78.15-1.13.38-1.71,1.85-1.8,3.18s.15,2.67-.04,3.99c-.54,3.7-10.71,16.18-13.94,16.96-2.57.62,1.18-9.65-1.03-11.17-2.21-1.52-3.37-5.21-1.78-7.62"/>
              <path class="cls-27" d="m470.05,209.68c4.54-4.18,9.08-8.37,13.63-12.55,1.36-1.25,2.77-2.54,4.5-3.19,1.4-.52,3-.63,4.18-1.55,1.8-1.39,1.94-4.04,3.23-5.91.86-1.25,2.18-2.08,3.4-2.98s2.41-2.01,2.79-3.47-.41-3.32-1.9-3.55c-.78.85-2.22.99-3.16.32s-1.26-2.08-.7-3.09c.67-1.21,2.36-1.85,2.47-3.23.1-1.21-1.24-2.13-2.45-2.07-1.21.07-2.26.81-3.22,1.54-4.92,3.78-9.34,8.18-13.73,12.57-4.42,4.41-9.16,9.58-8.94,15.81"/>
            </g>
            <path class="cls-25" d="m462.31,149.05c1.55.11,2.72,1.53,3.08,2.99.71,3-1.29,5.63-2.42,8.06-1.02,1.86-.58,3.54-.64,5.62-.3,4.03-4.92,4.97-6.77,7.79-1.07,1.55.25,2.7,1.32,3.89,2.38,2.5,1.59,4.9-1.16,6.6-.99.77-1.18,1.1-.93,2.33.35,1.28.9,3.02.49,4.45-.36,1.59-1.22,2.87-2.12,3.98-1.67,2.06-3.9,3.58-4.7,6.08-.35,1.15-.38,2.45.36,3.55,0,0-.21.21-.21.21-1.23-.87-1.64-2.57-1.45-4.02.36-4.67,6.74-7.01,6-11.8-.33-1.42-1.14-2.89-.52-4.59.58-1.6,2.16-2.2,3.04-3.16.61-.8.05-1.24-.58-2.03-1.92-1.82-3.25-4.17-1.56-6.73,1.62-2.99,5.92-3.56,6.58-6.77.11-1.24-.2-2.83.2-4.17.83-3.92,6.62-8.72,1.92-11.99,0,0,.07-.28.07-.28h0Z"/>
            <path class="cls-25" d="m475.59,144.74c1.37-.75,3.14-.02,4.07,1.17,1.92,2.56.57,5.83-.18,8.38-1.04,2.67.68,5.31-.34,8.03-.58,1.53-1.89,2.56-3.14,3.39-2.27,1.37-4.02,2.77-5.11,5.12-1.11,2.25-1.27,4.55-.68,7.04.25,1.29.57,2.9-.01,4.55-.29.81-.75,1.47-1.21,2.03-4.02,4.52-7.84,9.12-12.55,13.01,0,0-.22-.19-.22-.19,2.81-4.62,6.36-8.6,9.81-12.68.87-1.04,1.77-1.99,2.05-2.9.31-.91.12-2.06-.15-3.35-1.4-4.92.73-10.71,5.09-13.49,1.29-.86,3.53-2.04,4.02-3.37.63-1.4-.28-3.85,0-5.63.26-3.11,2.78-6.18,1.48-9.16-.5-.96-1.55-1.8-2.83-1.67,0,0-.09-.28-.09-.28h0Z"/>
            <path class="cls-25" d="m461.75,213.14c-1.15-.08-1.96-1.32-2.1-2.38-.48-2.85,1.98-5.13,1.81-7.82-.13-2.35-1.97-5.66-.85-8.37.41-1,1.36-1.93,2.47-1.95,0,0,.13.26.13.26-.55.8-.7,1.5-.83,2.23-.45,2.7,1.27,4.61,1.48,7.66.4,3.73-3.65,6.41-1.96,10.11,0,0-.15.25-.15.25h0Z"/>
            <path class="cls-25" d="m467.68,212.14c2.53-3.16,4.7-6.37,5.3-10.39.18-1,.35-2.13.88-3.26.92-2.09,3.14-3.1,4.38-4.62,1.2-1.55.54-3.46,1.11-5.48.6-2.29,2.22-4.01,3.83-5.53,1.13-1.05,3.4-3.16,4.53-4.21.57-.62,1.45-1.07,1.76-1.86.58-1.65-.1-4.58,1.66-5.85,0,0,.21.21.21.21-.5.85-.33,1.81-.22,2.8.15,1.21.5,2.97-.28,4.29-.54.79-1.1,1.22-1.72,1.87,0,0-2.19,2.18-2.19,2.18-1.44,1.47-3.01,2.88-4.11,4.35-1.31,1.65-1.34,3.05-1.42,5.2.05,2.44-2,4.51-3.76,5.73-1.7,1.25-2.15,2.54-2.52,4.57-.4,2.1-1.19,4.24-2.41,6.04-1.22,1.8-2.87,3.32-4.84,4.17,0,0-.18-.23-.18-.23h0Z"/>
          </g>
        </g>
      </g>
      <path class="cls-34" d="m349.09,213.38c-3.84.43-7.49.81-11.01,2.04-7.06,2.43-12.94,7.59-17.44,13.45-2.32,3.06-4.06,6.39-6.59,9.36-.05.07-.15.08-.22.02.99-5.29,4.49-9.97,7.76-14.16,4.86-5.59,11.33-10.08,18.71-11.46,2.9-.6,6.05-.71,8.84.46.14.06.1.29-.06.29h0Z"/>
    </g>
  </g>
</svg>