<?xml version="1.0" encoding="UTF-8"?><svg xmlns="http://www.w3.org/2000/svg" width="1140" height="641" xmlns:xlink="http://www.w3.org/1999/xlink" viewBox="0 0 1140 641"><defs><style>.ar,.as,.at,.au,.av,.aw,.ax,.ay,.az,.ba,.bb,.bc{fill:none;}.as{stroke:#d12c32;}.as,.at,.au{stroke-width:14px;}.as,.at,.au,.av,.aw,.ax,.ay,.az,.ba,.bb,.bc{stroke-miterlimit:10;}.at{stroke:#0c76a6;}.au{stroke:#f2a03d;}.av{stroke-dasharray:0 0 5.91 5.91;}.av,.aw,.ax,.ay,.az,.ba,.bb,.bc{stroke-linecap:round;}.av,.ax,.ay,.az,.bb,.bc{stroke-width:2px;}.av,.az,.bb,.bc{stroke:#1e4398;}.bd{fill:#f0f9fe;}.be{fill:#eab787;}.bf{fill:#e4c5b3;}.bg{fill:#e9b886;}.bh{fill:#fff;}.bi{fill:#ffee9c;}.bj{fill:#fff4ec;}.bk{fill:#f2a03d;}.bl{fill:#efe8e8;}.bm{fill:#c2b5c2;}.bn{fill:#8ecd9d;}.bo{fill:#cf2e33;}.bp{fill:#ce996a;}.bq{fill:#d12c32;}.br{fill:#aa4d3e;}.bs{fill:#bfdae2;}.bt{fill:#c0bebf;}.bu{fill:#c9b096;}.bv{fill:#d1bbb4;}.bw{fill:#1e4398;}.bx{fill:#9a7670;}.by{fill:#35261e;}.bz{fill:#4e4f4f;}.aw{stroke-width:8px;}.aw,.ax{stroke:#d1bbb4;}.ay{stroke:#cf2e33;}.ca{clip-path:url(#q);}.cb{clip-path:url(#r);}.cc{clip-path:url(#h);}.cd{clip-path:url(#j);}.ce{clip-path:url(#s);}.cf{clip-path:url(#f);}.cg{clip-path:url(#c);}.ba{stroke:#333;stroke-width:5.002px;}.bb{stroke-dasharray:0 0 5.85 5.85;}.bc{stroke-dasharray:0 0 5.913 5.913;}</style><clipPath id="c"><path class="ar" d="m37.068,208.966C-8.197-80.957,365.246,32.875,630.341,32.875c162.023,0,395.57-65.01,467.997,46.735,57.459,88.652-7.011,194.019,22.013,385.311,32.585,214.759-243.136,169.056-536.717,163.411-149.47-2.874-420.542,27.907-532.464-11.5-92.188-32.459,12.647-236.533-14.102-407.865Z"/></clipPath><clipPath id="f"><rect class="ar" x="595.398" y="240.914" width="89.163" height="77.053"/></clipPath><clipPath id="h"><rect class="ar" x="718.11" y="240.914" width="89.163" height="77.053"/></clipPath><clipPath id="j"><rect class="ar" x="840.823" y="240.914" width="89.163" height="77.053"/></clipPath><clipPath id="q"><path class="ar" d="m402.687,380.295c18.777.738,38.034-1.837,54.808-10.309,2.789-1.409,2.896,19.027,2.783,20.484-.656,8.411.218,14.622,3.964,22.207,3.739,7.57,6.025,15.719,8.274,23.825,1.874,6.752,8.501,14.635,11.99,20.774.709,1.247-.18,2.808-1.614,2.824-8.045.085-21.481-1.784-29.523-1.686-9.347.114-18.687.671-27.985,1.631-17.577,1.816-34.985,5.078-52.103,9.44-1.733.442-3.314-1.114-2.886-2.85,1.337-5.416,2.435-10.398,1.853-16.345-.656-6.707-2.442-13.226-3.874-19.792-2.406-11.027-5.322-21.933-8.891-32.64-1.8-5.401-3.6-11.209-7.63-15.33-1.725-1.764-3.869-3.236-4.566-5.733-.339-1.213-.157-2.561.667-3.513,1.194-1.378,2.846-1.098,4.34-.794,16.781,3.415,33.188,7.131,50.395,7.809Z"/></clipPath><clipPath id="r"><path class="ar" d="m662.513,366.847c.023-.012.045-.024.068-.036,3.429-1.841,9.448-6.215,13.448-5.177-.353,8.179-5.304,15.217-6.036,23.145-.517,5.6.991,11.158,2.039,16.684,2.564,13.527,2.399,27.571,6.65,40.767.873,2.711,1.976,5.494,3.797,7.722,1.083,1.325,5.673,3.541,5.797,5.142.085,1.098-1.085,1.829-2.103,2.251-9.229,3.823-19.508,4.116-29.493,3.814-19.805-.601-39.755-3.32-59.328-.246-13.599,2.136-27.55,7.03-40.762,3.163-.592-.173-1.259-.44-1.446-1.028-.31-.976.881-1.679,1.745-2.23,2.099-1.339,3.098-3.832,3.971-6.164,1.813-4.845,3.633-9.712,4.694-14.775,2.613-12.472.449-25.218-2.012-37.525-1.28-6.4-2.682-12.782-3.63-19.243-.279-1.899-1.803-6.824-.306-8.412,1.663-1.764,4.985.248,6.84.846,31.445,10.123,66.951,6.908,96.067-8.698Z"/></clipPath><clipPath id="s"><path class="ar" d="m676.131,414.607c-.638,2.151-1.277,4.307-1.668,6.516-1.939,10.973,2.389,22.032,7.323,32.023.8,1.621,1.667,3.292,3.111,4.379,2.118,1.595,4.989,1.604,7.639,1.591,26.455-.121,52.925,4.48,77.787,13.523.707.257,1.477.35,2.208.171,1.544-.377,1.622-1.374,1.679-2.307.702-11.461.894-22.953.575-34.43-.202-7.293-.601-14.693,1.077-21.794,1.504-6.366,4.614-12.218,6.943-18.33,2.725-7.154,4.377-14.674,5.395-22.269.241-1.797-1.538-3.209-3.228-2.55-19.332,7.534-39.704,12.121-60.015,16.438-3.811.81-7.966,1.574-11.456-.158-1.741-.864-3.136-2.273-4.609-3.54-4.262-3.666-9.331-6.245-14.345-8.787-3.676-1.864-5.396-3.148-7.049,1.203-1.588,4.181-2.581,8.702-3.853,12.992-2.505,8.443-4.983,16.894-7.514,25.329Z"/></clipPath></defs><g id="a"><g id="b"><g class="cg"><rect class="bl" x="-.825" y="-1.284" width="1140" height="640.445"/><polygon id="d" class="bf" points="281.741 519.742 1146.995 519.742 1138.623 639.315 67.078 641 281.741 519.742"/><g id="e"><rect class="bz" x="595.239" y="228.644" width="89.047" height="101.591" transform="translate(919.203 -360.322) rotate(90)"/><rect class="ax" x="599.237" y="231.242" width="81.051" height="96.395" transform="translate(919.203 -360.322) rotate(90)"/><g class="cf"><rect class="bs" x="567.505" y="240.914" width="144.344" height="77.053"/><rect class="bk" x="606.785" y="278.861" width="33.088" height="33.088"/><polygon class="bx" points="673.744 311.949 640.656 311.949 656.951 278.861 673.744 311.949"/><polygon class="bq" points="639.917 246.915 639.917 278.696 608.137 263.044 639.917 246.915"/><circle class="bj" cx="656.227" cy="262.827" r="16.061"/></g></g><g id="g"><rect class="bz" x="717.951" y="228.644" width="89.047" height="101.591" transform="translate(1041.915 -483.035) rotate(90)"/><rect class="ax" x="721.949" y="231.242" width="81.051" height="96.395" transform="translate(1041.915 -483.035) rotate(90)"/><g class="cc"><rect class="bj" x="690.612" y="240.498" width="144.344" height="77.053"/><polygon class="bs" points="761.341 241.809 808.843 253.2 808.843 240.705 745.46 240.227 738.032 269.117 783.663 280.862 785.5 267.95 756.522 260.492 761.341 241.809"/><polygon class="bx" points="763.418 244.667 761.96 257.728 790.379 266.339 785.672 284.091 716.625 266.815 716.434 285.352 797.305 302.043 808.897 256.373 763.418 244.667"/></g></g><g id="i"><rect class="bz" x="840.664" y="228.644" width="89.047" height="101.591" transform="translate(1164.628 -605.747) rotate(90)"/><rect class="ax" x="844.662" y="231.242" width="81.051" height="96.395" transform="translate(1164.628 -605.747) rotate(90)"/><g class="cd"><rect class="bj" x="812.93" y="240.914" width="144.344" height="77.053"/><rect class="bs" x="840.316" y="239.779" width="90.51" height="78.006" transform="translate(1771.142 557.564) rotate(180)"/><rect class="bx" x="840.566" y="276.4" width="90.51" height="41.566" transform="translate(1771.642 594.367) rotate(180)"/><path class="bk" d="m891.032,320.5c.052-.572.083-1.15.083-1.735,0-10.402-8.432-18.834-18.834-18.834s-18.834,8.432-18.834,18.834c0,.585.03,1.163.083,1.735h37.503Z"/></g></g><g id="k"><g id="l"><path class="bz" d="m357.2,479.106c0,3.302-18.728,5.978-41.829,5.978-23.102,0-41.829-2.677-41.829-5.978,0-1.187.111-4.288.111-4.288,0,0,26.922-1.691,41.718-1.691,10.841,0,41.807,1.691,41.807,1.691,0,0,.022,2.535.022,4.288Z"/><path class="bm" d="m357.2,474.23c0,2.25-18.728,4.074-41.829,4.074-23.102,0-41.829-1.824-41.829-4.074s18.728-4.074,41.829-4.074c23.102,0,41.829,1.824,41.829,4.074Z"/></g><polyline id="m" class="ba" points="354.931 242.881 308.982 258.686 312.071 471.552"/><g id="n"><path class="bv" d="m383.953,247.007s-17.364,1.678-28.11,22.085l-8.182-13.732c-2.632-5.808-1.42-12.636,3.051-17.183l.036-.037c4.857-4.94,12.411-6.037,18.472-2.682l14.733,11.548Z"/><path class="bh" d="m419.144,266.376s-13.072,25.681-52.306,41.095c0,0,6.873-34.447,52.306-41.095Z"/><ellipse class="bi" cx="383.426" cy="276.918" rx="12.812" ry="12.337" transform="translate(45.657 607.994) rotate(-80.264)"/><path class="bz" d="m419.144,266.376s-32.311,3.122-52.306,41.095l-15.224-25.551c-4.897-10.807-2.641-23.513,5.677-31.973l.067-.069c9.037-9.192,23.093-11.232,34.371-4.99l27.415,21.487Z"/></g><path class="aw" d="m328.85,252.533l-18.127,6.153c-.378-.14-1.793.471-1.742.871l.871,22.124"/></g><path class="bs" d="m283.71,518.109l-.063-.472c10.568-7.051,19.803-13.212,19.803-13.212-3.439-32.877-22.564-196.115-24.812-233.735-1.948-32.592.098-65.294-2.241-97.872-1.931-26.898-2.432-52.446-2.942-79.437-.26-13.761.331-27.555,2.474-41.165,1.783-11.321,8.15-24.908,7.216-36.364-.723-8.864-8.358-12.596-17.748-14.052.143-1.849.281-3.699.433-5.548l.302-.615h-38.572c.129,1.379.263,2.848.399,4.363h-.399c.169,1.8.344,3.718.523,5.75.357,4.063.729,8.579,1.094,13.504.913,12.314,1.785,27.19,2.29,43.962.252,8.356.374,15.908.395,22.864-.122,38.875-3.45,59.106-4.581,100.029-.248,8.982-.344,17.336-.321,25.176-.184,66.592,8.298,96.083,8.542,142.933-.059,10.187-.512,21.231-1.524,33.658-.712,8.748-2.846,32.259-4.186,65.302-.972,23.982-1.167,44.117-1.142,58.462-.006,3.941.005,7.539.025,10.717-.105,2.718.343,6.711,1.884,11.266,2.023,5.982,6.209,12.661,14.86,15.452l7.557-10.979,15.197-7.727,4.169-2.211c.024-1.026.047-2.019.071-3.029,2.637-1.759,5.363-3.578,8.055-5.374l3.241-1.648Z"/><g id="o"><path id="p" class="bu" d="m851.702,414.816c-3.631-2.269-62.055-22.763-69.984-22.763h-34.735c-9.52,0-17.237,7.717-17.237,17.237l26.7,51.4c-2.648-.726-5.082-1.148-7.144-1.148h-172.706c-1.992,0-3.52.431-4.705,1.187-1.191-.757-2.726-1.187-4.728-1.187h-171.646v-47.706c0-7.612-6.17-13.782-13.782-13.782h-34.203c-5.95,0-52.837,7.814-52.837,7.814-7.612,0-13.782,6.17-13.782,13.782v103.413c0,7.612,6.17,13.782,13.782,13.782h34.203c2.042,0,8.91-.921,17.048-2.13,0,0,16.835-.186,19.776-.186l420.225,2.255c1.17,0,2.242-.34,3.214-.984,4.768,1.694,4.82,7.416,15.034,6.628h34.735c9.52,0,17.237-7.717,17.237-17.237v-93.879c0-4.9,1.488-12.772-4.465-16.493Z"/><path class="bu" d="m744.992,392.286h-167.567c-3.294,0-5.851,1.674-7.666,4.168-1.815-2.495-4.372-4.168-7.666-4.168h-167.567c-3.901,0-19.193,11.018-19.193,16.961v41.986c0,7.209,5.844,13.054,13.054,13.054h167.567c2.896,0,10.222-4.416,13.805-9.123,3.583,4.707,10.909,9.123,13.805,9.123h167.567c7.209,0,13.054-5.844,13.054-13.054v-41.986c0-5.943-15.292-16.961-19.193-16.961Z"/><path class="bj" d="m402.687,380.295c18.777.738,38.034-1.837,54.808-10.309,2.789-1.409,2.896,19.027,2.783,20.484-.656,8.411.218,14.622,3.964,22.207,3.739,7.57,6.025,15.719,8.274,23.825,1.874,6.752,8.501,14.635,11.99,20.774.709,1.247-.18,2.808-1.614,2.824-8.045.085-21.481-1.784-29.523-1.686-9.347.114-18.687.671-27.985,1.631-17.577,1.816-34.985,5.078-52.103,9.44-1.733.442-3.314-1.114-2.886-2.85,1.337-5.416,2.435-10.398,1.853-16.345-.656-6.707-2.442-13.226-3.874-19.792-2.406-11.027-5.322-21.933-8.891-32.64-1.8-5.401-3.6-11.209-7.63-15.33-1.725-1.764-3.869-3.236-4.566-5.733-.339-1.213-.157-2.561.667-3.513,1.194-1.378,2.846-1.098,4.34-.794,16.781,3.415,33.188,7.131,50.395,7.809Z"/><g class="ca"><path class="as" d="m363.587,371.301c-.375,0-.641-.045-.978.126,1.237,1.343,3.689,2.288,5.207,3.788,1.736,1.716,3.11,3.806,4.193,5.985,2.127,4.279,3.275,8.971,5.074,13.398,3.725,9.161,10.157,16.99,14.208,26.012,7.728,17.209,6.146,36.974,4.413,55.759-.217,2.348-.581,4.976-2.457,6.406"/><path class="au" d="m392.615,373.733c2.991,6.51,6.325,12.87,10.147,18.93,3.081,4.886,6.481,9.579,9.25,14.649,11.737,21.491,16.023,41.122,15.065,65.591"/><path class="at" d="m427.055,370.526c-5.56,16.457,16.248,38.252,22.626,58.389,4.568,14.424,8.595,29.31,6.698,44.321"/></g><path class="bj" d="m662.513,366.847c.023-.012.045-.024.068-.036,3.429-1.841,9.448-6.215,13.448-5.177-.353,8.179-5.304,15.217-6.036,23.145-.517,5.6.991,11.158,2.039,16.684,2.564,13.527,2.399,27.571,6.65,40.767.873,2.711,1.976,5.494,3.797,7.722,1.083,1.325,5.673,3.541,5.797,5.142.085,1.098-1.085,1.829-2.103,2.251-9.229,3.823-19.508,4.116-29.493,3.814-19.805-.601-39.755-3.32-59.328-.246-13.599,2.136-27.55,7.03-40.762,3.163-.592-.173-1.259-.44-1.446-1.028-.31-.976.881-1.679,1.745-2.23,2.099-1.339,3.098-3.832,3.971-6.164,1.813-4.845,3.633-9.712,4.694-14.775,2.613-12.472.449-25.218-2.012-37.525-1.28-6.4-2.682-12.782-3.63-19.243-.279-1.899-1.803-6.824-.306-8.412,1.663-1.764,4.985.248,6.84.846,31.445,10.123,66.951,6.908,96.067-8.698Z"/><g class="cb"><path class="at" d="m577.234,369.402c1.944,10.414,7.139,19.912,10.288,30.027,4.028,12.94,5.137,27.664,2.08,41.091-3.744,16.447-10.032,27.293-19.602,40.509"/><path class="au" d="m615.765,378.028c4.048,8.687,4.69,18.519,5.174,28.091.813,16.076,1.345,36.341,1.383,55.43.012,5.954-.068,12.07-2.269,17.602"/><path class="as" d="m652.78,362.238c-7.517,18.193-9.11,38.78-4.481,57.913,3.294,13.613,6.314,27.112,12.548,39.655,2.493,5.017,5.008,10.069,8.403,14.526"/></g><path class="bx" d="m676.131,414.607c-.638,2.151-1.277,4.307-1.668,6.516-1.939,10.973,2.389,22.032,7.323,32.023.8,1.621,1.667,3.292,3.111,4.379,2.118,1.595,4.989,1.604,7.639,1.591,26.455-.121,52.925,4.48,77.787,13.523.707.257,1.477.35,2.208.171,1.544-.377,1.622-1.374,1.679-2.307.702-11.461.894-22.953.575-34.43-.202-7.293-.601-14.693,1.077-21.794,1.504-6.366,4.614-12.218,6.943-18.33,2.725-7.154,4.377-14.674,5.395-22.269.241-1.797-1.538-3.209-3.228-2.55-19.332,7.534-39.704,12.121-60.015,16.438-3.811.81-7.966,1.574-11.456-.158-1.741-.864-3.136-2.273-4.609-3.54-4.262-3.666-9.331-6.245-14.345-8.787-3.676-1.864-5.396-3.148-7.049,1.203-1.588,4.181-2.581,8.702-3.853,12.992-2.505,8.443-4.983,16.894-7.514,25.329Z"/><g class="ce"><path class="bs" d="m682.981,442.513c.08,1.982,1.901,3.452,3.733,4.214s3.864,1.124,5.473,2.285c2.262,1.633,3.252,4.594,3.198,7.384s-.997,5.475-1.93,8.105c-.963,2.714-1.979,5.517-3.981,7.587-3.395,3.511-8.757,4.098-13.641,4.124-3.394.018-6.987-.193-9.81-2.079-3.452-2.306-5.011-6.779-4.662-10.915s2.339-7.969,4.748-11.349c.824-1.157,1.693-2.807.726-3.847-.427-.459-1.084-.605-1.698-.733-12.17-2.544-17.68-16.639-2.827-17.628,4.915-.327,12.862.352,17.673,1.189,13.397,2.331,2.65,3.048,2.996,11.663Z"/><path class="bs" d="m732.054,425.578c-2.228-2.729-4.805-5.819-8.333-6.707-1.573-.396-3.355-.163-4.781.587-3.251,1.709-6.939-1.748-5.235-5.002.015-.029.03-.057.046-.086.544-.994,1.373-1.845,1.698-2.93.687-2.296-6.365-4.282-11.703-4.653-1.192-.95-2.497-1.81-2.228-4.059.242-2.022,1.639-3.762,3.532-4.513,2.946-1.168,6.201-.409,9.322-.019,3.023.378,6.479.244,8.573-1.969.517-.546.934-1.238.948-1.99.028-1.453-1.368-2.488-2.652-3.167-2.951-1.561-6.233-2.724-8.524-5.153s-3.082-6.746-.568-8.944c.949-.829,2.265-1.277,2.925-2.351.783-1.274.305-3.02-.715-4.113-1.021-1.093-2.46-1.679-3.86-2.204-2.817-1.056-5.831-2.012-8.788-1.459-2.71.507-5.916,3.007-5.292,6.008,2.561.117,6.732-1.305,8.216,1.873.772,1.654.163,3.638-1.275,4.761-2.772,2.164-6.116,1.615-9.307,1.758-4.007.18-7.956,1.512-11.254,3.797-2.008,1.391-3.862,3.254-4.027,5.86-.068,1.073.26,2.17.988,2.961,1.811,1.968,4.45,1.127,6.81.808,2.043-.276,4.703.354,5.031,2.39.148.916-.265,1.837-.81,2.589-2.429,3.356-7.258,4.278-9.211,8.185-.336.672-.535,1.418-.535,2.168,0,3.199,2.935,4.564,5.598,5.202,3.039.728,6.198.941,9.309.648.064.27.12.543.203.803.717,2.232,6.646,4.22,10.885,6.217,3.025,1.425,3.151,5.891.061,7.168-.159.066-.323.122-.491.168-3.491.951-7.453-2.131-10.566.822-.983.933-1.468,2.829-1.026,4.111,2.277,6.6,14.09,1.034,13.532,9.727-.063.988-.486,1.904-1.044,2.722-1.309,1.916-1.774,6.021.73,6.958.893.334,1.887.122,2.814-.102,2.855-.688,5.839-1.535,7.894-3.634s2.71-5.85.609-7.902c-1.249-1.219-3.22-1.641-3.095-4.309.086-1.844,1.211-3.509,2.847-4.363,3.187-1.665,6.842-.875,10.284-1.399,1.829-.278,3.778-1.037,3.805-3.705.013-1.303-.515-2.549-1.339-3.558Zm-21.209-.317c.139.155.258.31.343.467l-.343-.467Z"/><path class="bs" d="m740.133,376.459c.311,2.692-2.325,4.682-3.656,7.042-2.096,3.716-.323,9.143,3.66,10.67,3.983,1.527,9.078-1.602,9.28-5.863,3.87-1.826,8.041,3.506,12.196,2.482,3.379-.833,4.343-5.094,4.663-8.559.258-2.794.23-6.198-2.162-7.663-1.607-.984-3.656-.647-5.52-.918-4.187-.609-8.201-4.369-12.087-2.695-3.045,1.311-4.644,5.636-7.958,5.54"/><path class="bs" d="m786.146,393.947c.832-4.268-4.327-8.217-8.392-6.674s-5.539,7.329-3.069,10.908c.659.955,1.575,1.899,1.502,3.057-.107,1.679-2.079,2.425-3.562,3.219-3.351,1.796-5.365,5.927-4.438,9.615s4.899,6.421,8.633,5.705c-.361,3.441,4.621,4.995,7.77,3.561,5.207-2.372,7.472-8.797,7.004-14.5s-3.041-10.98-5.07-16.33"/><path class="bs" d="m751.083,437.981c1.138-1.366,3.17-1.449,4.948-1.421,2.578.04,5.155.08,7.733.121.532.008,1.155.066,1.434.519.314.511-.019,1.154-.093,1.749-.173,1.401,1.213,2.566,2.6,2.827s2.809-.081,4.221-.114c4.27-.101,8.411,2.99,9.528,7.113s-.895,8.881-4.632,10.951c-3.621,2.006-8.251,1.647-11.384,4.602-3.137,2.959-2.797,8.005-6.303,10.77-6.5,5.125-16.212,1.587-20.067-4.862-4.794-8.021-2.117-15.49,5.099-19.246,4.627-2.408,5.509,1.799,7.68-4.198.998-2.758-3.267-5.805-.764-8.81Z"/><path class="bs" d="m738.79,415.896c-.642-.503-1.259-1.065-1.67-1.77-1.23-2.11-5.434-.87-7.296-1.465-1.705-.544-3.192-2.352-1.947-4.3.633-.99,1.744-1.586,2.911-1.718,4.357-.492,8.956,1.182,13.137-.211,2.841-.947,5.113-3.214,8.223-3.572,1.405-.162,2.874.2,3.842,1.231,2.45,2.607-.391,6.715,1.219,9.622.939,1.696,3.033,2.324,4.662,3.336,2.414,1.498,2.039,5.166-.627,6.145-.012.005-.025.009-.037.014-5.007,1.829-10.227,3.07-15.521,3.691-.553.065-1.125.121-1.658-.04-1.055-.319-1.703-1.441-1.807-2.538-.037-.387-.036-.755-.016-1.109.155-2.726-.938-5.373-3.087-7.059l-.328-.257Z"/></g><g id="t"><path class="bx" d="m566.557,480.296c.986,3.207.83,6.414.935,9.621.089,3.207.1,6.414.123,9.621-.026,3.207-.046,6.414-.134,9.621-.081,3.207-.011,6.414-.925,9.621h-.294c-1.488-6.317-.794-12.829-1.059-19.241.023-3.207.035-6.414.124-9.621.105-3.207-.05-6.414.935-9.621h.294Z"/><path class="bx" d="m578.079,521.584c29.372-1.198,72.103-.006,101.944-.02,24.287.436,65.363.569,89.186,1.466,4.247.145,8.492.362,12.737.629l-.003.294c-4.25.18-8.499.312-12.747.369-42.054.394-97.87-.525-140.163-1.013-12.742-.195-25.487-.223-38.221-.774-4.246-.153-8.492-.368-12.736-.657l.003-.294h0Z"/><path class="bx" d="m355.153,521.35c28.381-1.77,69.732-1.41,98.592-2.006,23.497-.037,63.226-.704,86.282-.272,4.11.062,8.22.197,12.33.381,0,0,.003.294.003.294-4.106.263-8.213.477-12.32.618-40.663,1.213-94.663,1.381-135.575,1.718-12.327.054-24.653.273-36.98-.029-4.109-.07-8.22-.203-12.33-.409l-.003-.294h0Z"/><path class="bx" d="m797.825,417.175c1.946-.672,3.557,1.042,4.474,2.522,2.097,3.54,2.679,7.632,2.811,11.633.064,1.895.147,3.742-.726,5.526,0,0-.294,0-.294,0-.943-1.808-.9-3.588-1.119-5.367-.44-3.436-.919-7.007-2.246-10.172-.743-1.57-1.543-2.689-2.914-3.849,0,0,.013-.293.013-.293h0Z"/><path class="bx" d="m334.198,411.197c-1.743,5.022-1.902,10.294-1.8,15.562.079,5.297.194,10.615.358,15.929l.985,31.905c.252,10.641.515,21.283.496,31.944.134,5.184-.696,10.524.956,15.551,1.468,4.888,4.594,9.328,8.801,12.496,0,0-.138.259-.138.259-4.803-2.47-8.623-6.935-10.425-12.175-1.918-5.163-1.145-10.73-1.338-16.12-.157-10.621-.458-21.256-.761-31.89-.263-10.636-.572-21.273-.738-31.919-.068-5.325-.195-10.646-.089-15.991.087-5.321.737-10.973,3.429-15.676,0,0,.266.125.266.125h0Z"/><path class="bx" d="m774.998,473.083c6.351,2.136,12.062,5.508,17.483,9.437,1.632,1.299,3.665,2.78,4.552,4.919,1.432,4.447,1.539,9.197,1.856,13.775.299,6.612.294,13.216.011,19.815-.226,4.951-.467,9.938-1.508,14.807-.362,1.622-.78,3.259-1.526,4.775,0,0-.277-.096-.277-.096.858-6.469.932-13.027,1.18-19.552.113-6.545.058-13.104-.279-19.628-.184-3.256-.379-6.525-.854-9.697-.271-1.452-.395-2.955-1.212-4.19-5.266-6.026-13.221-9.226-19.553-14.101,0,0,.127-.264.127-.264h0Z"/><path class="bx" d="m484.862,456.682c6.183-.986,12.367-.83,18.55-.935,6.183-.089,12.367-.1,18.55-.123,6.183.026,12.367.046,18.55.134,6.183.081,12.367.011,18.55.925v.294c-12.337,1.497-24.715.79-37.1,1.059-6.183-.023-12.367-.035-18.55-.124-6.183-.105-12.367.05-18.55-.935v-.294h0Z"/><path class="bx" d="m362.961,475.476c-1.745.062-8.293,2.162-6.73,3.589.631.375,1.771.209,2.851.18,4.326-.2,8.653-.344,12.981-.453,50.504-.946,111.824-1.964,162.308-2.131,6.216.079,13.283.144,19.486.403,0,0,.004.294.004.294-6.184.431-13.224.692-19.467.944-55.329,1.185-119.976,2.346-175.293,2.292,0,0-1.651-.031-1.651-.031-.599-.048-1.224-.116-1.857-.528-.67-.399-.977-1.482-.52-2.154.394-.639.947-.944,1.462-1.202,2.011-.967,4.215-1.504,6.408-1.496,0,0,.017.293.017.293h0Z"/><path class="bx" d="m573.943,476.995c35.318-1.442,70.683-.109,106.004.69,28.682,1.082,57.407,2.333,86.014,4.761,2.207.208,4.365.475,6.474.279,5.158-.426,8.417-4.549,1.471-6.124,0,0,.032-.292.032-.292,2.149.051,5.573,1.51,4.595,4.201-1.075,2.218-3.677,3.13-5.94,3.497-3.893.509-9.435-.158-13.363-.277-25.652-1.545-53.823-2.939-79.363-3.638-25.527-.924-53.761-1.459-79.439-1.843-8.833-.194-17.662-.445-26.487-.961,0,0,0-.294,0-.294h0Z"/></g></g><g id="u"><path id="v" class="bp" d="m249.587,365.409l.558,163.868c0,3.023-2.451,5.474-5.474,5.474l-90.135,40.766c-4.87,1.865-27.952,6.133-37.334,5.462-5.424-.388-10.048-1.481-13.676-2.641-.365,0-2.304-.036-3.871-1.603-.991-.991-1.603-2.359-1.603-3.871v-208.73c0-3.023,2.451-5.474,5.474-5.474l140.586,1.274c3.023,0,5.474,2.451,5.474,5.474Z"/><g id="w"><path class="br" d="m135.694,360.901c1.497,30.821.739,75.685,1.058,107.009-.189,25.498.096,68.616-.558,93.632-.101,4.459-.276,8.918-.499,13.376,0,0-.294,0-.294,0-.223-4.459-.398-8.917-.499-13.376-.821-44.14-.47-102.738-.413-147.137.065-13.377-.036-26.755.385-40.128.11-4.459.282-8.917.527-13.376h.294Z"/><path class="br" d="m154.72,360.901c1.497,29.975.739,73.612,1.058,104.079-.189,24.8.096,66.737-.558,91.068-.101,4.337-.276,8.674-.499,13.01h-.294c-.223-4.337-.398-8.673-.499-13.01-.821-42.931-.47-99.925-.413-143.108.065-13.011-.036-26.023.385-39.029.11-4.337.282-8.673.527-13.01h.294Z"/><path class="br" d="m174.245,360.902c1.282,28.819.213,70.757.313,100.041-.366,23.834-.382,64.144-1.21,87.524-.132,4.168-.338,8.334-.592,12.501,0,0-.294-.002-.294-.002-.192-4.17-.336-8.339-.406-12.508-.514-41.267.244-96.044.611-137.548.158-12.504.15-25.012.664-37.509.141-4.167.344-8.334.62-12.5,0,0,.294.002.294.002h0Z"/><path class="br" d="m192.771,361.988c1.497,27.524.739,67.603,1.058,95.581-.189,22.775.096,61.29-.558,83.633-.101,3.983-.276,7.965-.499,11.948h-.294c-.223-3.983-.398-7.965-.499-11.948-.821-39.424-.47-91.767-.413-131.424.065-11.948-.036-23.898.385-35.843.11-3.983.282-7.965.527-11.948,0,0,.294,0,.294,0h0Z"/><path class="br" d="m211.797,361.43c1.497,26.396.739,64.839,1.058,91.674-.189,21.844.096,58.785-.558,80.215-.101,3.82-.276,7.64-.499,11.46h-.294c-.223-3.82-.398-7.64-.499-11.459-.821-37.812-.47-88.016-.413-126.052.065-11.46-.036-22.922.385-34.378.11-3.82.282-7.639.527-11.459h.294Z"/><path class="br" d="m230.823,360.901c1.497,25.426.739,62.461,1.058,88.311-.189,21.043.096,56.629-.558,77.272-.101,3.68-.276,7.36-.499,11.039h-.294c-.223-3.68-.398-7.359-.499-11.039-.821-36.424-.47-84.787-.413-121.428.065-11.04-.036-22.081.385-33.117.11-3.68.282-7.359.527-11.039,0,0,.294,0,.294,0h0Z"/></g><g id="x"><path class="be" d="m247.138,361.048c-1.067.952-2.102.762-3.15.812-1.037.03-2.131.006-3.185-.133-.959-.123-1.954-.212-2.982-.323-1.022-.112-2.053-.061-3.071-.993,0,0,.005-.294.005-.294,1.05-.896,2.088-.809,3.133-.857,1.783-.166,4.392.207,6.208.437,1.018.154,2.051.034,3.051,1.056,0,0-.009.294-.009.294h0Z"/><path class="be" d="m131.819,360.09c-2.605.437-4.952-.015-7.41-.102-4.903-.209-9.811-.113-14.728-.034-2.469.04-4.937.271-7.469-.497,0,0-.017-.293-.017-.293,2.418-1.056,4.897-1.15,7.38-1.352,4.982-.405,10.01-.518,15,.018,2.484.292,5.069.467,7.307,1.974l-.064.287h0Z"/><path class="be" d="m234.806,360.71c-22.924-.328-54.268-.321-77.191-.332-8.592.025-17.172.112-25.755-.487,0,0-.017-.293-.017-.293,17.125-2.006,34.333-1.291,51.522-1.609,12.889.053,25.784.136,38.666.721,4.29.306,8.613.55,12.839,1.714l-.064.287h0Z"/></g><circle class="be" cx="113.468" cy="562.05" r="13.263"/><circle class="be" cx="113.468" cy="376.148" r="13.263"/><path class="br" d="m118.969,366.936c-3.486.564-6.633.836-10.033.884,0,0,.876-.506.876-.506l-4.93,8.823v-1.153l5.098,8.726-1.044-.603,10.106.063s-.989.571-.989.571l5.175-8.682v1.001c-1.633-2.972-2.977-5.853-4.259-9.126h0Zm.147-.254c2.237,2.654,4.308,5.807,6.138,8.859-.359.644-5.187,9.281-5.539,9.911-.658.004-10.828.068-11.477.071,0,0-.346-.607-.346-.607l-5.008-8.778s-.336-.589-.336-.589l.336-.564,5.176-8.681.306-.513c3.554.032,7.347.234,10.75.891h0Z"/><polygon class="br" points="115.769 372.479 112.21 372.479 110.43 375.562 112.21 378.644 115.769 378.644 117.548 375.562 115.769 372.479"/><path class="br" d="m118.448,553.425c-3.486.564-6.633.836-10.033.884,0,0,.876-.505.876-.505l-4.93,8.823s0-1.153,0-1.153l5.098,8.726-1.044-.603,10.106.063s-.989.571-.989.571l5.175-8.682v1.001c-1.633-2.972-2.977-5.853-4.259-9.126h0Zm.147-.254c2.237,2.654,4.308,5.807,6.138,8.859-.359.644-5.187,9.281-5.539,9.911-.658.004-10.828.067-11.477.072,0,0-.346-.607-.346-.607l-5.008-8.778s-.336-.589-.336-.589l.336-.564,5.176-8.681s.306-.513.306-.513c3.554.032,7.347.234,10.75.891h0Z"/><polygon class="bt" points="115.248 558.968 111.689 558.968 109.909 562.05 111.689 565.133 115.248 565.133 117.028 562.05 115.248 558.968"/><polygon class="br" points="115.248 558.968 111.689 558.968 109.909 562.05 111.689 565.133 115.248 565.133 117.028 562.05 115.248 558.968"/></g><g id="y"><polygon id="z" class="bd" points="222.798 344.518 106.347 336.923 106.347 0 217.775 0 222.798 344.518"/><polygon id="aa" class="bd" points="98.667 336.658 0 329.329 3.45 0 97.217 0 98.667 336.658"/><polygon id="ab" class="by" points="246.93 355.979 -9.232 352.224 -8.419 331.923 255.332 345.451 246.93 355.979"/><g id="ac"><path class="bn" d="m79.636,302.32c6.249,1.354,12.127,5.03,16.605,10.384-1.012-3.299-2.983-6.091-3.97-9.401-1-3.352-.923-7.058-.229-10.517.703-3.503,2.295-7.132,5.141-8.369-5.087,9.921-1.983,23.308,5.129,31.033-1.39-3.895-1.351-8.477.107-12.337s4.31-6.942,7.682-8.299c-3.185,6.215-4.927,13.462-4.984,20.738-.003.445-.01.924-.234,1.28-.368.586-1.105.544-1.715.444-2.541-.419-5.081-.837-7.623-1.256-1.627-.269-2.01-1.99-3.031-3.285-1.227-1.558-2.579-2.99-3.992-4.305-2.363-2.197-5.861-5.455-8.886-6.11Z"/><path class="bn" d="m87.286,310.432c4.233,1.313,8.576,3.494,12.874,2.414,4.664-3.852,11.461-4.928,17.087-2.705-4.227-3.751-11.169-3.958-15.611-.464,3.852-4.814,9.39-8.251,15.413-9.567-6.645.593-13.044,3.641-17.69,8.428,1.16-9.343,8.861-16.714,10.805-25.926-4.635,6.345-8.51,13.244-11.516,20.504.416-2.792.752-5.926-.951-8.177-.951-1.257-2.398-2.022-3.796-2.748-3.384-1.756-7.342-3.548-10.856-2.069,5.461,1.469,9.869,6.291,10.843,11.862-3.127-1.877-6.356-3.709-9.911-4.525s-7.533-.493-10.479,1.658c5.448.283,10.745,2.826,14.372,6.902-1.48-1.663-9.747.19-11.677.625-3.758.846-7.646,2.272-10.814,4.48,7.055-2.526,14.714-2.922,21.909-.691Z"/><path class="bg" d="m111.448,310.803c-.632,2.266-.638,4.703-.016,6.972.152.553.339,1.147.14,1.685-.167.451-.574.765-.833,1.169-.306.477-.395,1.057-.476,1.618-.742,5.101-1.484,10.202-2.226,15.303-6.855,1.072-13.883,1.029-20.725-.125-.298-4.458-3.71-8.161-4.451-12.567-.577-3.43.436-7.311-1.523-10.186-.204-.3-.447-.607-.456-.969-.103-4.133,27.256-2.835,30.566-2.9Z"/></g></g></g></g></g><g id="ad"><g id="ae"><g id="af"><line class="ay" x1="172.673" y1="326.77" x2="172.673" y2="187.271"/><polygon class="bo" points="180.651 189.605 172.673 175.789 164.695 189.605 180.651 189.605"/><line class="ay" x1="189.899" y1="325.712" x2="189.899" y2="194.928"/><polygon class="bo" points="197.877 197.262 189.899 183.446 181.921 197.262 197.877 197.262"/><line class="ay" x1="207.125" y1="327.116" x2="207.125" y2="204.499"/><polygon class="bo" points="215.103 206.833 207.125 193.017 199.147 206.833 215.103 206.833"/></g><g id="ag"><path class="ay" d="m207.125,175.789l-.106-68.886c-.008-5.419,4.096-9.817,9.163-9.817h110.598"/><polygon class="bo" points="324.446 105.064 338.262 97.086 324.446 89.108 324.446 105.064"/><path class="ay" d="m190.02,164.303l-.103-73.841c-.01-6.911,5.225-12.518,11.686-12.518h125.178"/><polygon class="bo" points="324.446 85.922 338.262 77.944 324.446 69.966 324.446 85.922"/><path class="ay" d="m172.794,152.818l-.1-77.395c-.011-8.647,6.54-15.664,14.624-15.664h139.463"/><polygon class="bo" points="324.446 67.737 338.262 59.759 324.446 51.781 324.446 67.737"/></g><g id="ah"><line class="ay" x1="361.006" y1="59.803" x2="544.713" y2="59.803"/><polygon class="bo" points="542.379 67.781 556.195 59.803 542.379 51.825 542.379 67.781"/><line class="ay" x1="361.006" y1="78.228" x2="544.713" y2="78.228"/><polygon class="bo" points="542.379 86.206 556.195 78.228 542.379 70.25 542.379 86.206"/><line class="ay" x1="361.006" y1="96.654" x2="544.713" y2="96.654"/><polygon class="bo" points="542.379 104.632 556.195 96.654 542.379 88.676 542.379 104.632"/></g><g id="ai"><line class="ay" x1="577.67" y1="59.803" x2="832.963" y2="59.803"/><polygon class="bo" points="830.628 67.781 844.445 59.803 830.628 51.825 830.628 67.781"/><line class="ay" x1="577.67" y1="78.228" x2="832.963" y2="78.228"/><polygon class="bo" points="830.628 86.206 844.445 78.228 830.628 70.25 830.628 86.206"/><line class="ay" x1="577.67" y1="96.654" x2="832.963" y2="96.654"/><polygon class="bo" points="830.628 104.632 844.445 96.654 830.628 88.676 830.628 104.632"/></g><g id="aj"><path class="ay" d="m866.659,96.342l145.829-.113c5.066-.009,9.178,4.382,9.178,9.801v126.677"/><polygon class="bo" points="1013.689 230.372 1021.667 244.189 1029.645 230.372 1013.689 230.372"/><path class="ay" d="m866.659,78.045l161.2-.11c6.461-.01,11.704,5.589,11.704,12.5v142.272"/><polygon class="bo" points="1031.585 230.372 1039.563 244.189 1047.541 230.372 1031.585 230.372"/><path class="ay" d="m866.659,59.62l175.26-.107c8.085-.012,14.644,6.995,14.644,15.642v157.552"/><polygon class="bo" points="1048.586 230.372 1056.564 244.189 1064.542 230.372 1048.586 230.372"/></g></g><g id="ak"><g id="al"><line class="az" x1="1056.564" y1="268.361" x2="1056.564" y2="427.374"/><polygon class="bw" points="1048.586 425.04 1056.564 438.856 1064.542 425.04 1048.586 425.04"/><line class="az" x1="1039.338" y1="268.361" x2="1039.338" y2="427.374"/><polygon class="bw" points="1031.36 425.04 1039.338 438.856 1047.316 425.04 1031.36 425.04"/><line class="az" x1="1022.112" y1="268.361" x2="1022.112" y2="427.374"/><polygon class="bw" points="1014.134 425.04 1022.112 438.856 1030.09 425.04 1014.134 425.04"/></g><g id="am"><path class="az" d="m1022.112,464.698l.106,80.272c.008,5.419-4.096,9.817-9.163,9.817h-12.805"/><polygon class="bw" points="1002.584 546.809 988.767 554.787 1002.584 562.765 1002.584 546.809"/><path class="az" d="m1039.217,464.698l.103,96.712c.01,6.911-5.225,12.518-11.686,12.518h-27.385"/><polygon class="bw" points="1002.584 565.951 988.767 573.929 1002.584 581.907 1002.584 565.951"/><path class="az" d="m1056.443,464.698l.1,111.752c.011,8.647-6.54,15.664-14.624,15.664h-41.67"/><polygon class="bw" points="1002.584 584.136 988.767 592.114 1002.584 600.092 1002.584 584.136"/></g><g id="an"><line class="az" x1="966.024" y1="592.07" x2="710.732" y2="592.07"/><polygon class="bw" points="713.066 584.092 699.25 592.07 713.066 600.048 713.066 584.092"/><line class="az" x1="966.024" y1="573.645" x2="710.732" y2="573.645"/><polygon class="bw" points="713.066 565.667 699.25 573.645 713.066 581.623 713.066 565.667"/><line class="az" x1="966.024" y1="555.219" x2="710.732" y2="555.219"/><polygon class="bw" points="713.066 547.241 699.25 555.219 713.066 563.197 713.066 547.241"/></g><g id="ao"><line class="az" x1="677.775" y1="592.07" x2="422.482" y2="592.07"/><polygon class="bw" points="424.817 584.092 411 592.07 424.817 600.048 424.817 584.092"/><line class="az" x1="677.775" y1="573.645" x2="422.482" y2="573.645"/><polygon class="bw" points="424.817 565.667 411 573.645 424.817 581.623 424.817 565.667"/><line class="az" x1="677.775" y1="555.219" x2="422.482" y2="555.219"/><polygon class="bw" points="424.817 547.241 411 555.219 424.817 563.197 424.817 547.241"/></g><g id="ap"><line class="az" x1="388.786" y1="555.531" x2="276.29" y2="555.624"/><polygon class="bw" points="278.618 547.644 264.808 555.633 278.631 563.6 278.618 547.644"/><line class="az" x1="388.786" y1="573.827" x2="241.476" y2="573.909"/><polygon class="bw" points="243.806 565.93 229.994 573.916 243.814 581.886 243.806 565.93"/><line class="az" x1="388.786" y1="592.253" x2="207.73" y2="592.327"/><polygon class="bw" points="210.061 584.348 196.248 592.332 210.068 600.304 210.061 584.348"/></g></g><g id="aq"><path class="az" d="m37.616,190.414c.936.371,1.842.802,2.708,1.292"/><path class="bc" d="m44.948,195.352c1.388,1.531,2.473,3.313,3.136,5.329.612,1.863.852,3.863,1.765,5.598,2.552,4.849,9.178,5.752,14.575,4.804,5.397-.949,10.701-2.201,16.18-2.179,12.228.05,13.794,12.169,13.372,21.86-.604,13.876-2.693,27.057,7.889,38.268,6.932,7.343,18.201,10.792,27.65,7.23,9.184-3.462,15.205-12.693,17.447-22.249.968-4.125.915-15.083.846-23.946"/><path class="az" d="m147.786,227.11c-.008-1.058-.013-2.065-.016-3.002"/><polygon class="bw" points="155.753 226.424 147.743 212.626 139.797 226.461 155.753 226.424"/><path class="az" d="m35.862,159.882c.997-.061,1.996-.094,2.998-.097"/><path class="bb" d="m44.693,160.18c6.858.96,13.471,3.714,18.127,8.754,5.645,6.11,8.491,17.191,16.789,17.79,27.812,2.008,29.149,2.008,30.142,23.88.145,3.19.734,6.352,1.475,9.459s2.532,6.262,5.552,7.313c18.168,6.311,20.165-18.092,20.34-48.389"/><path class="az" d="m137.13,176.056c.002-.995.003-1.995.003-3"/><polygon class="bw" points="145.112 175.39 137.134 161.574 129.156 175.39 145.112 175.39"/><path class="az" d="m40.206,120.093c.991.134,1.976.312,2.953.534"/><path class="av" d="m48.786,122.415c7.35,3.04,13.668,8.575,17.026,15.806,2.533,5.456,3.923,12.108,9.069,15.22,5.278,3.192,12.007,1.149,17.922-.604,4.544-1.347,9.606-2.04,14.045.04,4.67,2.189,5.989,7.868,10.355,10.298,3.094,1.722,5.888.06,7.849-2.412,6.235-7.86,8.901-16.937,9.477-26.561"/><path class="az" d="m134.641,131.251c.017-.995.014-1.996-.008-3"/><polygon class="bw" points="142.66 130.409 134.382 116.771 126.708 130.759 142.66 130.409"/></g></g></svg>