<?xml version="1.0" encoding="UTF-8"?>
<svg id="Layer_1" data-name="Layer 1" xmlns="http://www.w3.org/2000/svg" width="570" height="369" viewBox="0 0 570 369">
  <defs>
    <style>
      .cls-1 {
        fill: none;
        stroke: #000;
        stroke-linecap: round;
        stroke-miterlimit: 10;
      }

      .cls-1, .cls-2 {
        stroke-width: 3px;
      }

      .cls-3 {
        fill: #eae0c1;
      }

      .cls-2 {
        fill: #f2c2c2;
        stroke: #c42a2f;
        stroke-linejoin: round;
      }
    </style>
  </defs>
  <path class="cls-3" d="m59.97,39.85c-9.06,6.84-17.21,15.08-24.47,24.33C10.12,96.57,6.1,141.31,3.67,185.6c-2.43,44.29-3.26,88.14,19.2,118.75,7.33,9.99,16.05,18.58,26.17,25.3,7.98,5.37,16.33,9.99,24.97,13.94,8.64,3.95,17.57,7.23,26.7,9.92,32.51,9.4,65.7,13.48,98.88,13.48,11.93.17,23.85.23,35.79.19,78.28-1.21,156.06.83,234.88-7.33,93.34-11.21,102.85-110.74,95.56-188.96-1.1-11.83-2.15-23.63-4.29-35.05-8.56-45.67-16.87-86.84-49.15-104.16-8.75-4.7-19.46-9.01-31.71-12.9s-26.07-7.37-41.03-10.38C324.04-2.03,203.74,1.02,90.72,24.19c-12.09,4.19-22.46,9.41-30.75,15.66Z"/>
  <polygon class="cls-2" points="453.17 243.73 453.17 176.22 385.66 176.22 385.66 108.7 318.14 108.7 318.14 41.19 243.62 41.19 243.62 318.25 520.68 318.25 520.68 243.73 453.17 243.73"/>
  <g>
    <line class="cls-1" x1="211.14" y1="58.41" x2="211.14" y2="301.02"/>
    <polygon points="199.17 61.91 211.14 41.19 223.11 61.91 199.17 61.91"/>
    <polygon points="199.17 297.52 211.14 318.25 223.11 297.52 199.17 297.52"/>
  </g>
  <g>
    <path d="m45.54,157.01l5.58,13.92,5.58-13.92h2.92v17.06h-2.25v-6.64l.21-7.17-5.6,13.82h-1.72l-5.59-13.78.22,7.14v6.64h-2.25v-17.06h2.91Z"/>
    <path d="m68.51,174.31c-1.72,0-3.12-.56-4.2-1.69s-1.62-2.64-1.62-4.53v-.4c0-1.26.24-2.38.72-3.37s1.15-1.76,2.02-2.32,1.8-.84,2.81-.84c1.65,0,2.93.54,3.84,1.63s1.37,2.64,1.37,4.66v.9h-8.59c.03,1.25.4,2.26,1.1,3.03s1.59,1.15,2.67,1.15c.77,0,1.41-.16,1.95-.47s1-.73,1.39-1.24l1.32,1.03c-1.06,1.63-2.66,2.45-4.78,2.45Zm-.27-11.37c-.88,0-1.61.32-2.2.96s-.96,1.53-1.1,2.68h6.35v-.16c-.06-1.1-.36-1.96-.89-2.56s-1.25-.91-2.16-.91Z"/>
    <path d="m83.79,174.08c-.12-.25-.23-.7-.3-1.34-1.01,1.05-2.21,1.57-3.61,1.57-1.25,0-2.28-.35-3.08-1.06s-1.2-1.6-1.2-2.69c0-1.32.5-2.35,1.51-3.08s2.42-1.1,4.24-1.1h2.11v-1c0-.76-.23-1.36-.68-1.81s-1.12-.67-2-.67c-.77,0-1.42.2-1.95.59s-.79.86-.79,1.42h-2.18c0-.63.22-1.24.67-1.83s1.06-1.06,1.83-1.4,1.62-.52,2.54-.52c1.46,0,2.61.37,3.43,1.1s1.26,1.74,1.29,3.02v5.84c0,1.16.15,2.09.45,2.78v.19h-2.27Zm-3.6-1.65c.68,0,1.32-.18,1.93-.53s1.05-.81,1.32-1.37v-2.6h-1.7c-2.66,0-3.98.78-3.98,2.33,0,.68.23,1.21.68,1.59s1.04.57,1.75.57Z"/>
    <path d="m96.4,170.71c0-.59-.22-1.04-.66-1.37s-1.21-.6-2.31-.84-1.97-.52-2.61-.84-1.12-.72-1.43-1.17-.46-.99-.46-1.62c0-1.04.44-1.92,1.32-2.64s2-1.08,3.37-1.08c1.44,0,2.6.37,3.5,1.11s1.34,1.69,1.34,2.85h-2.18c0-.59-.25-1.11-.76-1.54s-1.14-.64-1.9-.64-1.41.17-1.85.52-.67.79-.67,1.35c0,.52.21.92.62,1.18s1.16.52,2.24.76,1.96.53,2.63.87,1.17.74,1.49,1.21.49,1.05.49,1.73c0,1.13-.45,2.04-1.36,2.72s-2.08,1.03-3.53,1.03c-1.02,0-1.91-.18-2.7-.54s-1.39-.86-1.83-1.51-.66-1.34-.66-2.09h2.17c.04.73.33,1.3.87,1.73s1.26.64,2.15.64c.82,0,1.48-.17,1.97-.5s.74-.78.74-1.33Z"/>
    <path d="m109.22,172.82c-.84.99-2.08,1.49-3.71,1.49-1.35,0-2.38-.39-3.09-1.18s-1.06-1.95-1.07-3.49v-8.25h2.17v8.19c0,1.92.78,2.88,2.34,2.88,1.66,0,2.76-.62,3.3-1.85v-9.22h2.17v12.68h-2.06l-.05-1.25Z"/>
    <path d="m120.75,163.34c-.33-.05-.68-.08-1.07-.08-1.42,0-2.39.61-2.89,1.82v9h-2.17v-12.68h2.11l.04,1.46c.71-1.13,1.72-1.7,3.02-1.7.42,0,.74.05.96.16v2.02Z"/>
    <path d="m128,174.31c-1.72,0-3.12-.56-4.2-1.69s-1.62-2.64-1.62-4.53v-.4c0-1.26.24-2.38.72-3.37s1.15-1.76,2.02-2.32,1.8-.84,2.81-.84c1.65,0,2.93.54,3.84,1.63s1.37,2.64,1.37,4.66v.9h-8.59c.03,1.25.4,2.26,1.1,3.03s1.59,1.15,2.67,1.15c.77,0,1.41-.16,1.95-.47s1-.73,1.39-1.24l1.32,1.03c-1.06,1.63-2.66,2.45-4.78,2.45Zm-.27-11.37c-.88,0-1.61.32-2.2.96s-.96,1.53-1.1,2.68h6.35v-.16c-.06-1.1-.36-1.96-.89-2.56s-1.25-.91-2.16-.91Z"/>
    <path d="m144.34,158.33v3.07h2.37v1.68h-2.37v7.87c0,.51.11.89.32,1.14.21.25.57.38,1.08.38.25,0,.59-.05,1.03-.14v1.75c-.57.15-1.12.23-1.66.23-.97,0-1.7-.29-2.19-.88s-.74-1.42-.74-2.5v-7.86h-2.31v-1.68h2.31v-3.07h2.17Z"/>
    <path d="m151.41,162.93c.96-1.18,2.21-1.77,3.75-1.77,2.68,0,4.03,1.51,4.05,4.54v8.38h-2.17v-8.39c0-.91-.22-1.59-.63-2.03s-1.05-.66-1.92-.66c-.7,0-1.32.19-1.85.56s-.95.87-1.24,1.48v9.04h-2.17v-18h2.17v6.86Z"/>
    <path d="m162.47,158.03c0-.35.11-.65.32-.89s.53-.36.96-.36.74.12.96.36.33.54.33.89-.11.64-.33.88-.54.35-.96.35-.74-.12-.96-.35-.32-.53-.32-.88Zm2.34,16.04h-2.17v-12.68h2.17v12.68Z"/>
    <path d="m175.66,170.71c0-.59-.22-1.04-.66-1.37s-1.21-.6-2.31-.84-1.97-.52-2.61-.84-1.12-.72-1.43-1.17-.46-.99-.46-1.62c0-1.04.44-1.92,1.32-2.64s2-1.08,3.37-1.08c1.44,0,2.6.37,3.5,1.11s1.34,1.69,1.34,2.85h-2.18c0-.59-.25-1.11-.76-1.54s-1.14-.64-1.9-.64-1.41.17-1.85.52-.67.79-.67,1.35c0,.52.21.92.62,1.18s1.16.52,2.24.76,1.96.53,2.63.87,1.17.74,1.49,1.21.49,1.05.49,1.73c0,1.13-.45,2.04-1.36,2.72s-2.08,1.03-3.53,1.03c-1.02,0-1.91-.18-2.7-.54s-1.39-.86-1.83-1.51-.66-1.34-.66-2.09h2.17c.04.73.33,1.3.87,1.73s1.26.64,2.15.64c.82,0,1.48-.17,1.97-.5s.74-.78.74-1.33Z"/>
    <path d="m34.46,199.93l3.14-9.74h2.21l-4.55,12.68h-1.65l-4.59-12.68h2.21l3.22,9.74Z"/>
    <path d="m47.17,203.11c-1.72,0-3.12-.56-4.2-1.69s-1.62-2.64-1.62-4.53v-.4c0-1.26.24-2.38.72-3.37s1.15-1.76,2.02-2.32,1.8-.84,2.81-.84c1.65,0,2.93.54,3.84,1.63s1.37,2.64,1.37,4.66v.9h-8.59c.03,1.25.4,2.26,1.1,3.03s1.59,1.15,2.67,1.15c.77,0,1.41-.16,1.95-.47s1-.73,1.39-1.24l1.32,1.03c-1.06,1.63-2.66,2.45-4.78,2.45Zm-.27-11.37c-.88,0-1.61.32-2.2.96s-.96,1.53-1.1,2.68h6.35v-.16c-.06-1.1-.36-1.96-.89-2.56s-1.25-.91-2.16-.91Z"/>
    <path d="m60.75,192.14c-.33-.05-.68-.08-1.07-.08-1.42,0-2.39.61-2.89,1.82v9h-2.17v-12.68h2.11l.04,1.46c.71-1.13,1.72-1.7,3.02-1.7.42,0,.74.05.96.16v2.02Z"/>
    <path d="m66.27,187.13v3.07h2.37v1.68h-2.37v7.87c0,.51.11.89.32,1.14.21.25.57.38,1.08.38.25,0,.59-.05,1.03-.14v1.75c-.57.15-1.12.23-1.66.23-.97,0-1.7-.29-2.19-.88s-.74-1.42-.74-2.5v-7.86h-2.31v-1.68h2.31v-3.07h2.17Z"/>
    <path d="m71.18,186.83c0-.35.11-.65.32-.89s.53-.36.96-.36.74.12.96.36.33.54.33.89-.11.64-.33.88-.54.35-.96.35-.74-.12-.96-.35-.32-.53-.32-.88Zm2.34,16.04h-2.17v-12.68h2.17v12.68Z"/>
    <path d="m82.08,201.34c.77,0,1.45-.23,2.03-.7s.9-1.05.96-1.76h2.05c-.04.73-.29,1.42-.75,2.07s-1.08,1.18-1.85,1.57-1.58.59-2.44.59c-1.73,0-3.1-.58-4.12-1.73s-1.53-2.73-1.53-4.73v-.36c0-1.23.23-2.33.68-3.29s1.1-1.71,1.95-2.24,1.85-.8,3.01-.8c1.42,0,2.6.43,3.54,1.28s1.44,1.96,1.51,3.32h-2.05c-.06-.82-.37-1.49-.93-2.02s-1.25-.79-2.07-.79c-1.1,0-1.96.4-2.56,1.19s-.91,1.94-.91,3.44v.41c0,1.46.3,2.59.9,3.38s1.46,1.18,2.58,1.18Z"/>
    <path d="m97.38,202.88c-.12-.25-.23-.7-.3-1.34-1.01,1.05-2.21,1.57-3.61,1.57-1.25,0-2.28-.35-3.08-1.06s-1.2-1.6-1.2-2.69c0-1.32.5-2.35,1.51-3.08s2.42-1.1,4.24-1.1h2.11v-1c0-.76-.23-1.36-.68-1.81s-1.12-.67-2-.67c-.77,0-1.42.2-1.95.59s-.79.86-.79,1.42h-2.18c0-.63.22-1.24.67-1.83s1.06-1.06,1.83-1.4,1.62-.52,2.54-.52c1.46,0,2.61.37,3.43,1.1s1.26,1.74,1.29,3.02v5.84c0,1.16.15,2.09.45,2.78v.19h-2.27Zm-3.6-1.65c.68,0,1.32-.18,1.93-.53s1.05-.81,1.32-1.37v-2.6h-1.7c-2.66,0-3.98.78-3.98,2.33,0,.68.23,1.21.68,1.59s1.04.57,1.75.57Z"/>
    <path d="m104.96,202.88h-2.17v-18h2.17v18Z"/>
    <path d="m116.54,191.73c.96-1.18,2.21-1.77,3.75-1.77,2.68,0,4.03,1.51,4.05,4.54v8.38h-2.17v-8.39c0-.91-.22-1.59-.63-2.03s-1.05-.66-1.92-.66c-.7,0-1.32.19-1.85.56s-.95.87-1.24,1.48v9.04h-2.17v-18h2.17v6.86Z"/>
    <path d="m132.86,203.11c-1.72,0-3.12-.56-4.2-1.69s-1.62-2.64-1.62-4.53v-.4c0-1.26.24-2.38.72-3.37s1.15-1.76,2.02-2.32,1.8-.84,2.81-.84c1.65,0,2.93.54,3.84,1.63s1.37,2.64,1.37,4.66v.9h-8.59c.03,1.25.4,2.26,1.1,3.03s1.59,1.15,2.67,1.15c.77,0,1.41-.16,1.95-.47s1-.73,1.39-1.24l1.32,1.03c-1.06,1.63-2.66,2.45-4.78,2.45Zm-.27-11.37c-.88,0-1.61.32-2.2.96s-.96,1.53-1.1,2.68h6.35v-.16c-.06-1.1-.36-1.96-.89-2.56s-1.25-.91-2.16-.91Z"/>
    <path d="m140.32,186.83c0-.35.11-.65.32-.89s.53-.36.96-.36.74.12.96.36.33.54.33.89-.11.64-.33.88-.54.35-.96.35-.74-.12-.96-.35-.32-.53-.32-.88Zm2.34,16.04h-2.17v-12.68h2.17v12.68Z"/>
    <path d="m145.62,196.43c0-1.98.46-3.55,1.37-4.72s2.12-1.75,3.63-1.75,2.75.55,3.62,1.64l.11-1.41h1.98v12.38c0,1.64-.49,2.93-1.46,3.88s-2.28,1.42-3.92,1.42c-.91,0-1.81-.2-2.68-.59s-1.54-.93-2-1.61l1.12-1.3c.93,1.15,2.07,1.72,3.41,1.72,1.05,0,1.88-.3,2.47-.89s.88-1.43.88-2.51v-1.09c-.87,1-2.05,1.5-3.55,1.5s-2.69-.6-3.6-1.79-1.38-2.82-1.38-4.89Zm2.18.25c0,1.43.29,2.55.88,3.37s1.41,1.22,2.46,1.22c1.37,0,2.37-.62,3.01-1.86v-5.79c-.66-1.21-1.66-1.82-2.99-1.82-1.05,0-1.88.41-2.47,1.23s-.89,2.04-.89,3.64Z"/>
    <path d="m161.77,191.73c.96-1.18,2.21-1.77,3.75-1.77,2.68,0,4.03,1.51,4.05,4.54v8.38h-2.17v-8.39c0-.91-.22-1.59-.63-2.03s-1.05-.66-1.92-.66c-.7,0-1.32.19-1.85.56s-.95.87-1.24,1.48v9.04h-2.17v-18h2.17v6.86Z"/>
    <path d="m175.76,187.13v3.07h2.37v1.68h-2.37v7.87c0,.51.11.89.32,1.14.21.25.57.38,1.08.38.25,0,.59-.05,1.03-.14v1.75c-.57.15-1.12.23-1.66.23-.97,0-1.7-.29-2.19-.88s-.74-1.42-.74-2.5v-7.86h-2.31v-1.68h2.31v-3.07h2.17Z"/>
  </g>
</svg>