<?xml version="1.0" encoding="UTF-8"?><svg id="c" xmlns="http://www.w3.org/2000/svg" width="1140" height="702" xmlns:xlink="http://www.w3.org/1999/xlink" viewBox="0 0 1140 702"><defs><clipPath id="d"><path d="m18.22,322.63c-3.38-57.75,7.1-116.32,31.4-169.58C82.91,80.12,162.38,24.05,253.76,10.33c102.9-15.45,206.28,19.84,310.56,25.76,115.81,6.58,235.41-22.96,346.5,5.45,65.68,16.79,123.61,53.79,161.65,102,51.82,65.69,65.55,148.62,56.58,227.17-9.48,83.04-53.3,163.43-130.95,216.53-79.49,54.36-233.99,109.64-342.4,118.3-67.94,5.42-89.5-26.46-150.94-29.42-111.35-5.36-248.57-27.22-337.63-88.53-83.22-57.29-133.06-145.81-145.85-234.67-1.45-10.06-2.46-20.16-3.06-30.28Z" fill="none"/></clipPath></defs><path d="m18.22,320.67c-3.38-57.75,7.1-116.33,31.4-169.59C82.91,78.14,162.38,22.07,253.76,8.34c102.9-15.45,206.28,19.84,310.56,25.76,115.81,6.58,235.41-22.96,346.5,5.45,65.68,16.8,123.61,53.8,161.65,102.01,51.82,65.69,65.55,148.63,56.58,227.19-9.48,83.05-53.3,163.45-130.95,216.55-129.31,88.44-333.86,96.56-493.33,88.88-111.35-5.36-248.57-27.22-337.63-88.54-83.22-57.3-133.06-145.82-145.85-234.69-1.45-10.06-2.46-20.17-3.06-30.29Z" fill="#fcf3cd"/><g opacity=".53"><path d="m398.84,303.04c5.48,0,11.62,1.9,17.77,5.5,21.22,12.41,37.22,41.25,35.68,64.29-.92,13.69-7.99,22.37-18.93,23.24l-7.9.68-.1-.28-1.83-.23c-4.43-.56-9.3-2.39-14.49-5.42-21.22-12.41-37.22-41.25-35.68-64.29.98-14.55,7.49-22.9,17.86-22.9.35,0,.71,0,1.08.03h.2s.2,0,.2,0l1.29-.1.19-.02.18-.04c1.42-.3,2.93-.45,4.48-.45m0-3c-1.76,0-3.46.17-5.09.51l-1.29.1c-.41-.02-.82-.03-1.23-.03-11.93,0-19.75,9.19-20.85,25.7-1.62,24.1,15.02,54.14,37.16,67.08,5.66,3.31,10.91,5.21,15.62,5.81l.26.72,10.2-.87c12.01-.95,20.61-10.27,21.66-26.03,1.62-24.1-15.02-54.14-37.16-67.08-6.85-4.01-13.43-5.91-19.29-5.91h0Z" fill="#e8da96"/></g><g opacity=".7"><path d="m365.56,178.06c17.32,0,35.92,7.71,48.55,20.13,12.06,11.87,16.89,25.95,12.91,37.7l-2.47,7.44-.13-.05-1.34,2.2c-2.27,3.74-5.79,6.95-10.46,9.56-6.02,3.36-13.55,5.14-21.79,5.14-17.32,0-35.92-7.71-48.55-20.13-13.13-12.91-17.83-26.91-12.58-37.43l.09-.18.07-.2.45-1.32.06-.17.04-.18c1.53-7.33,6.15-13.33,13.37-17.37,6.02-3.36,13.55-5.14,21.79-5.14m0-3c-8.5,0-16.55,1.78-23.25,5.52-8.25,4.61-13.2,11.49-14.85,19.37l-.45,1.32c-5.82,11.67-1.23,26.75,13.16,40.91,13.68,13.45,33.14,20.99,50.65,20.99,8.5,0,16.55-1.78,23.25-5.52,5.24-2.93,9.08-6.54,11.56-10.62l.73.3,3.49-10.5c4.17-12.31-.37-27.72-13.65-40.78-13.68-13.45-33.14-20.99-50.65-20.99h0Z" fill="#e8da96"/></g><rect x="290.75" y="119.31" width="113.35" height="17.44" rx="2" ry="2" transform="translate(-20.25 84.32) rotate(-13.45)" fill="#e8da96"/><path d="m365.39,8.23c5.34,3.96,8.85,6.36,7.93,21.74-1.37,22.97-30.92,51.68-57.99,66.02-14.67,7.77-31.75,6.01-42.33-6.49l-.38-7.49L362.01,4.74l3.37,3.48Z" fill="#a8a1a1"/><path d="m324.34,7.36c27.69-13.1,45.6-7.19,42.9,15.66-2.69,22.85-27.32,51.99-55.01,65.09-27.69,13.1-45.6,7.19-42.9-15.66,2.69-22.85,27.32-51.99,55.01-65.09Z" fill="#a8a1a1"/><path d="m363.91,6.45c3.38,3.5,1.1,8.58.76,12.74-.05,1.15-.47,3.14-.62,4.34-2.98,14.46-11.65,27.03-21.41,37.78-9.98,10.64-21.89,19.59-35.22,25.58-9.91,4.2-23.46,11.59-33.33,3.84,0,0,.17-.24.17-.24,3.12,1.85,6.63,2.46,10.14,2.14,9.2-1.2,17.7-5.56,25.96-9.61,22.99-11.81,48.74-37.7,52.63-64.08.49-4.14,3.3-8.43.68-12.33,0,0,.24-.17.24-.17h0Z" fill="#686868"/><line x1="297.28" y1="36.23" x2="332.96" y2="17.98" fill="none" stroke="#e5e5e5" stroke-linecap="round" stroke-miterlimit="10" stroke-width="2"/><line x1="280.06" y1="77.85" x2="299.07" y2="69.72" fill="none" stroke="#e5e5e5" stroke-linecap="round" stroke-miterlimit="10" stroke-width="2"/><line x1="331.68" y1="29.02" x2="354.43" y2="17.04" fill="none" stroke="#e5e5e5" stroke-linecap="round" stroke-miterlimit="10" stroke-width="2"/><path d="m312.27,81.81c-1.72.19-2.89-.61-4.19-1.19-2.93-1.43-4.32-4.74-4.94-7.71-.3-1.44-.63-2.9.1-4.44.04-.09.14-.12.23-.08,1.15,1.24,1.31,2.67,1.75,3.97.43,1.29.92,2.54,1.55,3.65.61,1.12,1.38,2.08,2.33,2.69,1.2.77,2.54,1.31,3.32,2.85.06.11-.02.25-.14.26h0Z" fill="#7f7f7f"/><path d="m303.12,61.68c-.17-1.76-.49-4.18-2.7-4.1-3.45.05-6.91.95-10.27,1.89-.21.06-.43.06-.63,0,0,0-4.9-1.42-4.9-1.42,0,0,1.38-.59,1.38-.59-1.16,2.67-2.73,5.87-2.32,8.79.09.27.11.34.32.53,3.85,3.3,7.61,7.93,4.83,13.19-2.49,4.53-5.71,8.46-9.07,12.35-.1.12-.32,0-.25-.15,1.58-3.98,4.05-7.44,6.23-11.02,3.84-5.43.93-8.89-3.38-12.64-1.29-1.09-1.32-3.24-1.06-4.62.46-2.66,1.47-5.08,2.63-7.49.25-.52.84-.76,1.38-.59l4.87,1.53h-.63c3.63-.87,7.28-1.9,11.06-1.53,3.01.26,3.67,3.5,2.82,5.88-.05.16-.28.12-.29-.03h0Z" fill="#7f7f7f"/><path d="m299.08,47.62c.9-4.9.73-10.32,3.84-14.5,1.51-2.05,3.27-4.89,5.69-6.63.32-.15.71-.26,1.1,0,.92.69.06,1.85-.31,2.57-.38.76-1.31,2.17-1.57,2.93.02-.21-.02-.46-.29-.71-.12-.08-.09-.06-.09-.07.43.15,1.16.23,1.79.26.82.02,1.22,1.1.62,1.65-1.73,1.6-4.38,4.59-5.31,5.86-1.14,3.04-2.29,6.74-1.72,9.93.05.58-.15,1.11.02,1.78.66,3.18,4.48,4.12,7.3,4.51,0,0,1.67.16,1.67.16,4.01.6,7.74-5.05,9.86-8.01,3.54-5.22,5.36-11.39,5.68-17.64.35-1.75.77-3.38,1.51-5,.46-.91,1.92-.71,2.13.28.34,1.37.84,2.81,1.44,4.09.76,1.39,1.27,3.01.84,4.6-.08.27-.12.46-.32.83l-1.98-1.33c.49-.61.92-1.11,1.67-1.62,1.45-1.08,3.27-.13,2.57,1.72-.55,1.4-1.66,2.7-2.43,3.85-1.2,2.03-2.1,4.52-2.91,6.78,0,0-1.49-1.5-1.49-1.5l7.29-2.41c1.23-.43,2.12,1.31,1.04,2.05-1.8,1.36-6.44,4.48-8.01,5.87-1.86,1.99-3.89,4.36-4.78,6.96,0,.03,0,.02,0,.03,0-.03,0-.05-.03-.13-.06-.2-.35-.43-.55-.44-.01,0-.06,0,.01,0,2.17-.09,4.41,1.31,6.42,1.35.6,0,1.08.49,1.07,1.09,0,.3-.12.57-.32.76-1.57,1.56-3.54,2.61-5.74,2.96-1.53.27-3.38-.05-4.71-1.02-1.08-.11-2.15.81-3.41,1.16-2.99,1.11-6.42.62-9.29-.41-2.98-.91-5.8-3.01-7.16-5.84-1.26-2.59-3.54-3.52-6.42-3.78-1.86-.19-3.79-.12-5.79-.21-.82,0-1.17-1.14-.51-1.61,1.03-.81,2.03-1.96,1.94-3.29,0,.1-.04-.29.07-.47.23-.52.88-.55,1.13-.47,1.13.28,1.89.72,2.95.93,0,0-.04,0-.04,0-.02,0-.13.02-.29.16-.1.09-.15.21-.18.31-.01.05-.02.11-.02.16,0,.02,0-.02,0-.02,0-.22.04-.61.06-.84.39-2.33.57-4.98,2.22-6.84.16-.15.36-.33.67-.4.32-.08.67.18.71.47.04.17-.02.4-.05.52-.39,1.14-.79,2.12-.78,3.18-.07,1.12.72,1.94,1.42,2.72,0,0,2.2,2.62,2.2,2.62.06.06.05.16-.01.21-.06.05-.14.04-.2,0l-2.43-2.42-.6-.61c-1.83-1.46-1.19-4.26-.62-6.06-.02.31.39.55.64.44.02,0-.14.1-.19.17-1.1,1.47-1.22,3.52-1.47,5.31-.03.39-.1,1.1-.09,1.49-.13,1.94-3.21.2-4.21.11-.01,0-.03,0-.02,0,.04-.03-.03.07.38-.1.13-.09.2-.14.31-.35.11-.17.06-.53.07-.42.24,1.99-1.08,3.77-2.52,4.93,0,0-.5-1.62-.5-1.62,3.98.1,8.42-.58,11.92,2.19,1.63,1.36,2.19,3.37,3.52,4.79,2.39,2.43,6.53,3.64,9.9,3.59,2-.1,3.34-.88,5.3-1.66.56-.18,1.36-.32,2.14-.03.62.27.82.51,1.3.7,2.32.82,5.13-.48,6.81-2.16,0,0,.78,1.85.78,1.85-2.55-.05-4.38-1.39-6.8-1.35-3.88-1.2,2.69-8.69,4.19-10.22.79-.78,1.92-1.52,2.78-2.16,0,0,5.48-3.99,5.48-3.99,0,0,1.04,2.05,1.04,2.05l-7.28,2.45c-.62.21-1.29-.12-1.49-.74-.09-.26-.08-.52,0-.76.42-1.24.87-2.45,1.36-3.66.51-1.21,1.01-2.41,1.74-3.63.82-1.25,1.62-2.15,2.21-3.41,0-.01.03-.09.01-.04.02,0-.05.11.07.44.16.44.71.73,1.08.63-.42.2-.87.69-1.23,1.14,0,0-1.98-1.33-1.98-1.33.42-1-.08-2.26-.59-3.2-.69-1.47-1.18-2.92-1.57-4.51,0,0,2.14.34,2.14.34.03-.05-.01.04-.04.11-.67,1.83-1.31,3.78-1.34,5.72-.55,7.69-3.98,14.94-8.93,20.77-1.63,1.93-3.61,3.83-6.1,4.72-.98.32-2.03.51-3.08.2,0,0,.3.06.3.06-1.08-.12-2.57-.24-3.62-.5-3.85-.66-8.17-3.65-7.24-8.12,0,0,0,.49,0,.49-.68-3.86.55-7.61,1.88-11.17,1.65-2.49,3.74-4.43,5.84-6.47,0,0,.61,1.66.61,1.66-.81-.08-1.72-.1-2.61-.53-.1-.06-.03,0-.2-.14-.19-.14-.34-.47-.34-.53-.16-.87.44-1.59.8-2.27.36-.61,1.32-2.1,1.6-2.74,0,.06-.01.29.09.43.14.35.69.53.94.39-2.03,1.53-3.81,3.91-5.44,5.95-.74.82-1.37,1.91-1.82,3.02-1.2,3.43-1.89,7.13-2.78,10.68-.03.17-.32.13-.29-.05h0Z" fill="#7f7f7f"/><path d="m301.74,61.72c2.71-.9,5.15,0,7.77-.18,2.61.74-.1,4.03-1.08,5.07-1.54,1.6-3.85,3.09-6.25,2.19-2.09-.77-4.62-3.76-2.15-5.4.13-.07.26.07.22.2-.2,1.49.72,1.94,1.65,2.66,2.24,1.9,5.26-1.39,6.38-3.5.04-.04,0-.12.02.15.02.3.26.68.57.81.21.1.41.14.61.1,0,0-.07,0-.07,0-.74.05-1.44-.08-2.12-.16-1.92-.3-3.83-.4-5.58-1.65-.11-.07-.08-.25.04-.29h0Z" fill="#7f7f7f"/><g clip-path="url(#d)"><path d="m675.52-380.08l333.01,1042.63s290.35,166.51,296.95,177.16c6.6,10.66,422.35-57.34,448.99-73.84,26.64-16.5,134.82-213.26,124.61-282.14-10.22-68.88-111.2-460.51-137.76-529.59-26.56-69.08-61.8-372.4-110.53-397.52-48.73-25.12-955.26,63.3-955.26,63.3Z" fill="#f4e4a2"/><path d="m863.96,347.86s-147.42-57.58-174.74-64.61c-27.33-7.03-146.5-36.95-146.5-36.95,0,0-65.06-39.86-77.31-43.61-12.25-3.75-21.84,3.65-23.79,17.84-1.47,10.7,0,35.88,21.8,55.5,9.03,8.13,89.2,57.48,89.2,57.48,0,0,49.08,78.73,119.3,116.32,70.22,37.59,142.28,34.2,142.28,34.2l49.75-136.17Z" fill="#c87550"/><path d="m610.12,358.54c6.81-5.94-64.07,13.17-82.96,36.63-8.98,11.16,19.62,93.73,19.62,93.73,0,0,152.25,156.82,166.85,157.27,14.6.45,145.01-18.14,186.47-62.74,16.08-17.3-36.14-235.58-36.14-235.58l-253.84,10.68Z" fill="#c87550"/><path d="m411.63,449.66c8.59-2.86,108.53,20.07,115.61,27.59,7.07,7.53,20.3,34.36,14.19,49.9-6.1,15.55-97.1,24.95-110.23,21.54-16.87-4.38-28.22-26.33-30.47-42.37-2.11-15.01,4.36-54.49,10.9-56.67Z" fill="#c87550"/><path d="m546.78,379.91c-5.65.95-109.46,52.6-119.89,58.85-26.99,16.19-19.83,20.76-17.44,52.31,2.39,31.55,22.41,50.66,22.41,50.66,0,0,65.66-60.67,69.17-60.05,3.51.62,45.75-7.85,45.75-7.85,0,0,9.5-46.7,8.08-55.18-1.42-8.48-8.08-38.75-8.08-38.75Z" fill="#c87550"/><path d="m552.57,474.23s-66.34,54.72-70.09,66.97c-3.75,12.25,24.07,39.53,47.15,38.56,23.08-.97,73.91-26.94,73.91-26.94l-50.96-78.59Z" fill="#c87550"/><path d="m656.18,468.45c-8.37-1.95-73.25,33.95-91.93,42.24-18.68,8.29-81.04,31.55-81.15,41.15-.11,9.61,9.57,48.63,39.5,55.24,27.69,6.12,88.98-23.66,97.46-25.08,8.48-1.42,69.16-55.19,74.34-58.97,5.18-3.77-1.94-46.15-38.22-54.58Z" fill="#c87550"/><path d="m548.77,604.64c-3.2,2.8-4.03,7.44-2.01,11.18,7.2,13.33,23.66,43.31,29.13,49.13,7.07,7.53,27.33,7.03,45.2-7.59,17.88-14.62,66.32-72.14,73.84-79.22,7.53-7.07,55.51-49.99,47.01-66-8.5-16-23.21-26.85-31.69-25.43l-21.8,4.36c-1.67.28-.91,3.24-2.18,4.36l-137.51,109.2Z" fill="#c87550"/><path d="m742.45,532.39c3.77,5.18,16.52,29.18,13.72,47.08-2.8,17.9-73.82,96.64-73.82,96.64,0,0-43.76,33.49-63.56,19.39-19.8-14.1-26.68-25.47-26.68-25.47l150.34-137.64Z" fill="#c87550"/><path d="m863.96,347.86s238.95-56.11,316.65-60.45c77.7-4.34,63.91,259.42,63.91,259.42l-364,46.61-16.56-245.59Z" fill="#c87550"/><path d="m446.47,464.78c5.15-1.14,10.49-.72,15.72-.64,5.24.2,10.45.66,15.67,1.14,15.58,1.95,31.53,3.42,46.39,8.83,2.67.93,4.76,3.11,6.3,5.41,1.57,2.17,2.95,4.44,4.22,6.77,5.01,9.34,8.84,19.49,9.36,30.21.1,4.05-.25,8.42-2.14,12.1-2.39,3.57-6.44,5.31-10.12,6.97-2.45,1.03-4.95,1.9-7.47,2.68-15.13,4.58-30.66,7.03-46.26,9.09-10.4,1.24-20.83,2.22-31.3,2.48-3.93.11-7.87.1-11.79-.23-1.31-.13-2.63-.26-3.9-.74-.08-.03-.11-.11-.09-.19,5.06.67,10.52.26,15.72-.05,25.85-2.16,52.03-5.08,76.95-12.45,2.46-.78,4.9-1.64,7.26-2.64,3.32-1.5,6.98-3.09,9.03-6.09,1.6-3.34,1.87-7.13,1.76-10.83-.54-10.21-4.33-20.17-9.08-29.17-1.23-2.26-2.55-4.47-4.04-6.54-1.48-2.09-2.79-3.73-5.32-4.68-14.58-5.37-30.35-6.92-45.7-8.93-5.17-.65-10.36-1.14-15.55-1.62-5.15-.38-10.41-1.07-15.55-.58-.08.02-.17-.04-.18-.13,0-.07.04-.14.1-.16h0Z" fill="#562323"/><path d="m468.16,493.26c.03-.44.38-.59.67-.81,1.89-1.08,4.02-1.65,6.08-2.27,7.09-1.98,14.33-3.28,21.58-4.47.78-.15,1.44.73,1.09,1.44-4.41,10.97-7.07,23.67-4.02,35.28.4,1.42.89,2.82,1.51,4.16l.46,1c.07.13.26.61.07,1.09-.32.74-.81.82-1.27.94-4.21.26-8.32-.8-12.42-1.4-6.05-1.19-12.17-2-17.99-4.31-.15-.06-.1-.29.06-.29,6.25.07,12.22,1.54,18.3,2.36,3.67.56,8.34,1.28,11.51,1.34-.07.05-.26.13-.43.52-.15.39,0,.77.03.81l-.5-1.09c-5.66-13.3-2.45-28.4,2.82-41.27,0,0,1.09,1.44,1.09,1.44-8.4,1.35-16.86,2.55-25.19,4.3-.87.21-1.75.44-2.57.79-.26.12-.57.28-.59.46-.02.18-.3.14-.29-.03h0Z" fill="#562323"/><path d="m466.27,493.28c.55,2.34.01,4.47-.24,6.65l-.82,6.51c-.62,4.32-.91,8.57-1.13,12.92,0,.13-.17.21-.26.11-1.69-1.84-1.48-4.39-1.49-6.65.03-2.25.24-4.47.49-6.67.3-2.2.64-4.39,1.08-6.56.46-2.17.69-4.38,2.09-6.36.07-.11.26-.08.29.06h0Z" fill="#562323"/><path d="m461.86,445.19c2.61.95,4.43,2.8,6.41,4.49,1.96,1.69,3.84,3.49,5.7,5.31,1.82,1.85,3.61,3.75,5.26,5.78,1.64,2.01,3.43,4.05,4,6.79.03.13-.14.24-.24.16-2.06-1.63-3.6-3.64-5.37-5.53-3.5-3.73-7.18-7.31-10.82-10.91-1.82-1.82-3.82-3.42-5.13-5.85-.07-.12.06-.28.19-.22h0Z" fill="#562323"/><path d="m546.83,426.68c.63,4.16.12,8.23-.13,12.32-.27,4.09-.61,8.17-.94,12.25-.38,4.08-.76,8.15-1.2,12.23-.44,4.07-.72,8.16-1.99,12.16-.04.15-.28.13-.29-.03-.78-8.25.63-16.36,1.08-24.57.38-4.08.75-8.16,1.19-12.23.46-4.07.66-8.16,2-12.16.04-.14.28-.13.29.03h0Z" fill="#562323"/><path d="m522.63,606.94c20.41,3.15,50.49-8.68,69.97-15.79,8.52-3.17,16.86-6.85,25.53-9.77,2.91-.58,5.49-1.86,8.1-3.42,10.36-6.15,20.09-13.39,29.65-20.73,9.52-7.42,18.84-15.13,27.48-23.55,2.85-2.81,5.65-5.69,8.14-8.77,1.14-1.51,2.37-2.69,2.67-4.71.97-5.73-.08-11.78-1.88-17.29-4.27-13.29-15.53-23.52-28.88-27.29-1.77-.42-3.49-1.34-5.34-.74-7.59,2.35-14.64,6.47-21.73,10.06-14.26,7.58-28.39,15.44-42.76,22.82-7.1,3.83-14.71,7.36-22.83,8.37-8,1.25-16.17.93-23.92,3.41-.17.07-.28-.22-.1-.28,11.4-4.11,24.16-2.6,35.3-7.61,23.65-11.36,45.85-25.65,69.68-36.69,2.68-1.03,5.51-2.63,8.55-2.39,3.29.75,6.48,1.76,9.58,3.09,11.51,4.79,20.71,14.66,24.62,26.5,1.94,5.83,4.03,16.19.77,21.74-10.56,13.82-24.49,24.38-37.95,35.13-9.67,7.38-19.46,14.61-29.97,20.8-2.01,1.12-4.07,2.32-6.38,3.04-1.72.36-3.34.87-5.01,1.48-22.64,8.52-45.16,18.33-69.13,22.57-7.97,1.3-16.28,2.19-24.23.29-.18-.04-.11-.33.06-.29h0Z" fill="#562323"/><path d="m657.99,484.67c-5.72,7.84-14.02,16.94-19.81,24.8-.45.71-1.15,1.48-1.21,2.28.36,4.86,3.84,9.45,6.78,13.23,3.05,3.39,7.13,7.97,12.05,7.26,6.95-1.99,12.58-7.16,18.14-11.63,3.21-2.74,6.36-5.59,9.37-8.53l-.21,1.27c-1.46-2.88-3.11-5.74-4.84-8.51-4.94-7.43-11.46-17.37-20.29-20.18h0Zm-.1-.28c11.83,1.43,21.9,18.3,27.19,27.98.23.43.13.95-.21,1.27-3.05,3.03-6.17,5.94-9.42,8.74-5.78,4.69-11.81,10.24-19.19,12.23-3.56.77-7.13-1.34-9.67-3.44-4.26-3.24-14.44-16.21-11.09-21.54,5.25-7.47,11.47-14.14,17.76-20.71,1.5-1.51,3.06-3.09,4.63-4.52h0Z" fill="#562323"/><path d="m566.47,486.59c6.55,1.09,16.97,15.43,17.5,21.87.01.14-.17.22-.27.12-.9-.88-1.59-1.83-2.24-2.81-2.96-4.92-6.3-9.77-10.26-13.92-1.66-1.72-3.48-2.99-4.89-5.01-.08-.11.03-.27.16-.24h0Z" fill="#562323"/><path d="m593.75,669.39c11.86-1.81,22.4-8.2,30.94-16.42,17.14-16.65,32.85-34.84,48.73-52.71,5.84-6.53,15.06-17.39,21.16-23.42,11.33-10.72,53.17-48.35,46.5-64.07-5.69-10.85-18.63-24.09-31.28-25.45-7.28.55-14.45,3.51-21.28,6.08-.17.09-.29-.2-.12-.27,6.81-3.15,13.88-6.44,21.42-7.25,4.7.06,9.08,2.15,13.01,4.48,8.47,5.19,15.44,12.71,20.12,21.46,2.51,5.22.06,11.23-2.27,15.97-4.2,8.08-9.98,15.2-15.9,22.04-9.79,11.41-20.98,21.41-31.68,31.89-13.85,15.11-28.18,31.73-42.05,46.78-10.3,10.91-20.14,22.45-32.14,31.59-7.38,5.23-16.09,8.96-25.14,9.6-.18.02-.21-.27-.03-.29h0Z" fill="#562323"/><path d="m695.02,505.51c3.94-3.85,8.16-7.4,12.44-10.86.31-.25.72-.28,1.05-.11,5.62,2.84,11.05,5.96,16.21,9.61,4.09,3.15,10.34,7.44,10.71,13.13-.38,4.44-4.19,7.34-7.23,10.04-7.38,5.93-15.64,10.52-24.03,14.81-.47.24-1.04.07-1.31-.36-1.59-2.46-3.2-4.91-4.7-7.43-1.51-2.52-2.96-5.08-4.27-7.72-.04-.07,0-.16.07-.2,4.02,4.17,7.26,9.4,10.62,14.21,0,0-1.32-.35-1.32-.35,8.15-4.31,16.27-8.99,23.44-14.79,2.51-2.26,5.83-4.79,6.33-8.24-.07-2.02-1.44-3.74-2.79-5.3-6.34-6.58-14.6-11.27-22.61-15.63,0,0,1.06-.11,1.06-.11-4.37,3.34-8.82,6.6-13.49,9.52-.14.1-.31-.12-.18-.23h0Z" fill="#562323"/><path d="m740.89,532.4c10.78,12.71,19.47,29.83,16.4,47.05-1.23,5.77-4.25,10.68-7.15,15.65-2.94,4.85-6.16,9.51-9.48,14.07-3.31,4.57-6.74,9.06-10.25,13.47-7.05,8.79-14.08,17.63-22.23,25.47-.12.12-.33-.06-.22-.19,14.9-20.32,32.3-39.03,44.25-61.32,6.88-12.5,2.77-27.4-3.16-39.48-2.45-5.01-5.34-9.81-8.4-14.54-.1-.14.13-.32.24-.17h0Z" fill="#562323"/><path d="m714.73,567.28c5.55,4.92,10.22,11.03,16.96,14.25.9.38,1.84.62,2.66.58,1.72-.12,3.18-1.94,4.37-3.2,4.06-4.84,7.06-10.63,9.71-16.36,0,0,.2,1.22.2,1.22-3.23-3.71-10.71-12.28-13.67-16.02-1.45-1.84-2.86-3.71-4.16-5.69-.1-.13.1-.31.22-.19,6.22,5.27,13.74,14.32,19.34,20.37.31.34.37.82.2,1.22-3.24,6.97-6.64,14.23-12.53,19.4-2.99,2.92-7.32,1.05-10.2-.98-5.4-3.84-9.95-8.76-13.32-14.43-.08-.14.11-.3.23-.18h0Z" fill="#562323"/><path d="m574.52,365.1c6.14,4.22,10.61,10.34,15.55,15.82,0,0,14.44,16.74,14.44,16.74,9.46,11.31,19.71,21.86,29.49,32.87.11.12-.06.32-.2.22-6.1-4.28-11.2-9.7-16.28-15.05-5.08-5.37-10-10.88-14.83-16.46-6.96-8.08-14.47-17.17-21.35-25.39-2.03-2.45-4.88-6.16-6.99-8.51-.13-.11.02-.34.17-.24h0Z" fill="#562323"/><path d="m854.24,362.38c1.63,2.19,2.25,5.06,2.83,7.68.89,5.35.85,10.87.44,16.27-2.41,26.91-10.93,52.85-20.06,78.12-.65,1.87-2.1,5.71-2.86,7.54-2.02,4.99-4.15,9.93-6.48,14.79-.04.07-.12.1-.2.07-.07-.03-.1-.11-.08-.18,1.86-6.42,4.09-12.85,6.4-19.11,4.84-13.85,9.58-27.99,13.4-42.14,4.48-16.72,8.5-33.82,8.29-51.21-.22-3.76-.34-8.19-1.91-11.65-.05-.07-.03-.19.06-.22.06-.03.13,0,.18.04h0Z" fill="#562323"/><path d="m738.72,530.24c2.49,2.13,4.37,4.56,6.66,6.71,3.41,3.22,7.15,6.07,11.18,8.46,4.02,2.61,8.47,3.94,12.59,6.56.13.07.07.3-.08.28-3.29-.12-6.38-1.26-9.33-2.64-5.94-2.63-11.39-6.44-15.89-11.13-2.21-2.36-4.51-4.8-5.39-8.09-.04-.14.15-.26.25-.15h0Z" fill="#562323"/><path d="m463.58,202.67c4.8,13.54,9.29,15.97,22.84,19.38,3.55.84,7.08,1.66,10.71,2.29.15.02.17.27,0,.29-1.87.38-3.76.35-5.63.23-3.73-.29-7.37-1.19-10.97-2.19-5.61-1.31-11.17-4.02-14.3-9.07-1.99-3.25-3.74-7.02-2.95-10.92.03-.14.24-.16.29-.02h0Z" fill="#562323"/><path d="m-91.58-25.27c0,15.86,566.9,757.19,566.9,757.19,0,0-402.38,27.75-410.31,27.75S-101.49,325.58-75.72,293.86c25.77-31.71-15.86-319.13-15.86-319.13Z" fill="#f4e4a2"/></g></svg>