<?xml version="1.0" encoding="UTF-8"?><svg xmlns="http://www.w3.org/2000/svg" width="1140" height="640" xmlns:xlink="http://www.w3.org/1999/xlink" viewBox="0 0 1140 640"><defs><clipPath id="f"><path d="m-1007.91,13.96c-43.95.12-93.75,2.27-122.28,28.77-25.26,23.46-24.44,57.6-22.63,88.27,8.05,99.72-11.8,297.55,2.16,397.92,13.96,92.48,168.86,100.16,261.59,100.95,137.6.79,277.74-7.91,415.39-2.93,23.41.38,46.83.9,70.25,1.54,23.42.64,46.86,1.38,70.29,2.17,79.77,1.58,168.51,17.39,238.31-14.23,75.78-34.78,71.79-123.3,72.79-189.69,1-59.28-17.95-230-10.98-289.2,1.21-13.23,3.17-26.45,2.93-39.72-.58-32.05-17.43-66.66-53.71-80.82-14.51-5.66-30.84-7.59-46.93-8.94-66.82-5.6-134.1-2.43-200.96.98-63.97,3.26-127.09,3.45-191.01,3.63-104.18.28-208.36.56-312.55.83-57.56.15-115.12.31-172.69.46Z" fill="none"/></clipPath><clipPath id="h"><path d="m.84,258C4.09,106.55,46.31,7.02,262.77,5.75c560.41-3.28,849.75-9.83,874.11,291.56,12.83,158.64-.8,372.62-303.05,334.15-257.36-32.76-463.55,4.1-621.32,3.28C-4.94,633.59-.76,332.62.84,258Z" fill="none"/></clipPath><clipPath id="j"><path d="m1161.04,259.86c3.25-151.45,45.47-250.98,261.93-252.25,560.41-3.28,849.75-9.83,874.11,291.56,12.83,158.64-.8,372.62-303.05,334.15-257.36-32.76-463.55,4.1-621.32,3.28-217.46-1.14-213.28-302.12-211.68-376.73Z" fill="#ffe9ab"/></clipPath></defs><g id="e"><g clip-path="url(#f)"><rect x="-1168" y="1" width="1171" height="639" fill="#c1eada"/><rect x="-1168" y="381" width="1179" height="274" fill="#c17c6f"/><line x1="-1186" y1="429.16" x2="11" y2="429.16" fill="none" stroke="#efd1cb" stroke-miterlimit="10" stroke-width="4"/><path d="m-1168,395C-48.5,428.5,11.5,429.5,11.5,429.5" fill="none" stroke="#efd1cb" stroke-miterlimit="10" stroke-width="4"/><line x1="-1186" y1="490" x2="11" y2="490" fill="none" stroke="#efd1cb" stroke-miterlimit="10" stroke-width="6"/><line x1="-1192" y1="571" x2="5" y2="571" fill="none" stroke="#efd1cb" stroke-miterlimit="10" stroke-width="8"/></g></g><g id="g"><g clip-path="url(#h)"><rect x="-63.73" y="-53.45" width="1258.63" height="885.45" fill="#f7b097"/><path d="m839.22,274.51c.01-5.24-.27-10.44-.84-15.6-.82-9.98-2.95-19.45-6.24-28.04,1.34-29.32,2.88-56.8,4.87-85.3,1.19-.03,2.37-.05,3.56-.11,1.27-.06,5.48.26,6.17.22,4.79.86,9.47,2.35,14.12,3.68,1.62.46,2.52.67,3.02.74.23.11.41.2.68.34,3.99,1.93,7.68,4.43,11.42,6.84,1.24.79,1.99,1.23,2.46,1.46.21.21.39.39.65.63,26.67,25.64,30.3,74.96,42.04,112.78,5.4,17.41,12.58,34.11,21.52,49.28.14.36.29.74.43,1.1,8.06,21.45,11.31,45.58,15.11,68.62,3.56,21.57,8.59,41.44,13.85,62.43,4.85,19.35,6.37,39.41,8.2,59.54,5.23,57.7,13.78,115.17,1.94,173.84-4.06,20.12-13.03,39.18-19.14,58.68-2.35,7.48-2.85,13.86-10.53,16.83-20.31,7.87-14.81-19.52-14.72-32.76.07-9.87,1.1-20.19,2.13-30.28-8.54,17.67-19.92,34.85-34.83,51.41-7.13,8.73-37.52,16.37-27.89-18.42-11.51,7.52-34.52,22.55-34.77,6.43-6.47-152.92,24.39-304.98-4.18-452.13.72-4,1.08-8.07.98-12.19Z" fill="#2b0d0d"/><path d="m956.3,374.81l-22.74,10.58,1.71,14.77,22.92-9.02c1.94-6.03,1.29-11.47-1.88-16.33Z" fill="#ffc550"/><polygon points="911.56 567.37 883.41 559.38 877.91 579.23 905.81 585.83 911.56 567.37" fill="#ffc550"/><path d="m876.93,456.11l-26.32-.13c-3.76,7.48-3.59,14.97-1.07,22.48l26.46-2.43.93-19.91Z" fill="#ffc550"/><rect x="692.64" y="344.53" width="161.88" height="199.24" transform="translate(1547.17 888.29) rotate(-180)" fill="#2b0d0d"/><path d="m929.7,361.37c3.4,12.77,5.54,25.81,7.75,38.82,5.71,34.15,10.64,68.5,13.17,103.05.26,4.95.42,9.9.45,14.85l-.29.02c-.47-3.27-.88-6.54-1.23-9.82-3.72-36.03-8.44-72-14.19-107.75-1.07-6.63-3.8-22.78-4.66-29.29-.48-3.26-.91-6.53-1.28-9.82l.29-.06h0Z" fill="#512525"/><path d="m854.03,487.87c8.65-18.58,31.48-25.68,51.78-22.91,70.05,9.58,157.98,101.46,182.59,175.74,4.45,12.72,8.97,26.38,13.43,40.61,22.29,71.19,43.94,183.24,43.24,235.12-.31,23.14,10.58,24.95-7.45,39.45-16.53,13.29-72.75,19.86-90.23,7.84-12.13-8.35-40.1-125.84-67.39-187.55-5.46-12.34-10.59-23.77-15.14-33.49-44.43-78.61-99.67-150.17-91.09-240.22.05-.1-19.78-14.5-19.73-14.61Z" fill="#994d30"/><path d="m1118.74,688.44l-112.11,35.57s-161.7-130.44-164.93-181.1c-3.23-50.67,3.23-99.18,85.16-78.69,58.07,14.52,163.86,86.24,191.88,224.22Z" fill="#ce99ff"/><path d="m1081.73,1014.46c1.66-63.37-41.27-165.64-68.68-230.82,12.4-44.4,20.02-77.66,23.49-104.87,1.74-13.6-1.02-36.4-2.97-47.46-8.81-49.98,19.4-170.32-180.16-178.23-14.06-.56-27.79-5.01-41.61-5.06-218.01-.77-339.59,70.25-290.01,240.19,2.15,9.54,4.88,19.71,8.12,31.06,6.49,22.71,15.07,50.16,25.31,86.73-3.3,67-77.06,222.57-54.15,225.59,148.15,19.54,580.13,2.66,580.65-17.13Z" fill="#ce99ff"/><path d="m896.29,487.16c17.84,16.59,36.61,44.16,27.55,60.68-10.35,18.88-68.02,17.27-84.93,17.3-17.11.03-188.9-34.73-170.48-75.68,13.63-30.29,102.85-27.59,129.31-28.28,30.04-.78,80.69,9.38,98.54,25.97Z" fill="#994d30"/><path d="m736.05,496.71c8.64,25.16,120.53,15.68,131.96-2.85,5.68-9.21-12.74-122.76-12.74-122.76l-128.14,2.99s.28,97.47,8.92,122.63Z" fill="#994d30"/><path d="m196.15,781.84c3.96-12.75,12.45-23.53,20.97-33.81,21.02-25.32,52.95-54.27,89.99-83.72,12.36-9.83,25.28-19.71,38.61-29.55,73.78-58.67,148.62-114.96,236.05-143.5,12.25-3.33,22.58-2.69,31.16.83,8.59,3.52,15.43,9.92,20.74,18.18,69.93,126.46-77.87,189.1-171.4,233.31-11.93,7.32-23.68,14.79-35.15,22.49-13.02,8.93-25.78,17.56-38.18,25.71-24.8,16.29-48.2,30.66-68.83,41.17-20.82,10.61-78.7,12.18-100.6,4.03-28.12-10.47-27.32-42.41-23.36-55.16Z" fill="#994d30"/><path d="m385.44,569.67l112.51,148.01s163.33-72.9,169.05-123.34c5.72-50.45-2.69-129.65-48.65-129.76-59.85-.14-169.7,48.84-232.91,105.08Z" fill="#ce99ff"/><path d="m531.16,723.88c20.95-13.43,42.41-25.98,62.49-40.71,20.09-14.51,39.51-30.3,54.96-49.8,0,0,.24.16.24.16-6.27,10.87-15.33,19.83-24.55,28.21-9.29,8.36-19.15,16.04-29.25,23.38-10.15,7.26-20.53,14.19-31.12,20.76-10.61,6.54-21.24,13.09-32.63,18.25l-.14-.26h0Z" fill="#8541ce"/><path d="m279.36,816.87c40.56,6.07,96.48-7.42,113.68-26.65,31.89-35.68,139.05-252.3,177.64-290.13,8.51-29.29-18.09-15.79-39.53-29.62-12.54-8.09-8.69-26.91-43.14-13.46-78.42,29.67-143.85,125.28-200.27,196.29-14.96,18.83-41.93,75.99-48.48,99.13-17.18,60.75,40.1,64.45,40.1,64.45Z" fill="#994d30"/><path d="m747.87,293.75c.44-4.61,1.24-10.15,2.24-15.01,1.92-9.35,4.79-18.54,8.42-27.41.42-26.82.67-53.63.49-80.45-1.16-.02-2.36-.09-3.58-.11-1.21-.02-4.87.09-5.59.2-5.14.8-9.88,2.23-14.27,3.36-1.52.39-2.22.54-3.03.72-.8.18-.65.23-.92.35-3.94,1.85-7.96,4.21-11.42,6.33-1.14.7-1.78.91-2.46,1.41s-.52.21-.73.47c-22.02,27.03-27.62,35.43-41.88,73.06-6.56,17.32-26.49,65.77-34.56,89.1-.14.4-.56,1.23-.69,1.61-8.11,22.33-14.04,48.01-18.36,70.76-4.32,22.75-9.15,43.49-13.3,65.19-3.82,20-5.01,40.6-5.75,60.1-2.14,55.88-4.79,111.23,4.57,165.91,3.21,18.75,12.49,34.58,17.89,51.82,2.07,6.62,3.31,13.26,10.34,13.96,18.58,1.86,15.69-16.63,15.01-29.73-.51-9.77-.49-18.21-2.16-27.74,13.75,17.3,17.25,30.58,37.5,45.46,10.19,7.49,31.56-1.04,24.35-20.37,6.61,5.17,32.51,18.88,33.37,3.23,8.17-148.83-32.13-292.24,4.48-440-.46-4.39-.42-7.59.02-12.2Z" fill="#2b0d0d"/><path d="m623.91,401.83c7.37,3,14.73,6,22.09,9.02-.76,5.08-1.51,10.16-2.27,15.23-7.44-2.43-14.88-4.87-22.32-7.3-1.11-6.26-.36-11.28,2.5-16.96Z" fill="#ffc550"/><path d="m672.69,591.61c9.04-3.35,18.08-6.7,27.17-9.94,2.18,6.31,4.37,12.61,6.55,18.92-9.01,2.79-18.03,5.59-27.01,8.49-2.24-5.82-4.47-11.65-6.71-17.47Z" fill="#ffc550"/><path d="m639.97,444.65c-7.88-2.15-15.75-4.33-23.62-6.49-2.52,4.01-2.8,7.33-1.36,11.81,7.18,1.73,14.36,3.45,21.53,5.2,1.15-3.51,2.3-7.02,3.45-10.53Z" fill="#ffc550"/><path d="m701.39,478.7c8.68-.65,22.6-1.66,31.28-2.29,3.12,7.74,3.43,14.51,1.66,22.63-8.71-.26-22.66-.14-31.36-.34-.55-6.67-1.16-13.32-1.57-20Z" fill="#ffc550"/><path d="m663.51,438.38c-.7,35.26-3.47,70.65.93,105.77,2.58,23.42,8.29,46.22,15.49,68.65,6.86,22.56,14.23,44.92,21.06,67.5,3.36,11.31,5.96,22.86,7.9,34.5,0,0-.29.06-.29.06-2.65-11.49-5.55-22.89-9.2-34.08-10.62-33.74-22.49-67.11-31.26-101.41-8.26-34.58-9.3-70.38-7.63-105.74.59-11.78,1.41-23.55,2.71-35.27l.29.02h0Z" fill="#512525"/><path d="m656.91,373.35c-3.8,14.37-8.64,31.54-11.75,45.93-5.99,27.64-10.22,56.14-11.72,84.39-.52,6.3-.66,12.62-1.27,18.95h-.29c-.26-4.54-.33-9.69-.41-14.27.62-26.88,4.07-53.93,9.51-80.25,2.64-12.25,5.66-24.95,9.21-36.93,1.88-6.06,3.9-12.09,6.45-17.92,0,0,.28.1.28.1h0Z" fill="#512525"/><path d="m717.96,308.99c-3.44,23.29-7.79,46.37-9.99,69.82-1.8,17.3-3,35.36-3,52.74-.17,5.88.01,11.74-.21,17.64l-.29.02c-1.55-11.71-1.62-23.56-1.28-35.35.4-11.79,1.15-23.57,2.38-35.3,1.26-11.73,2.8-23.42,4.72-35.05,1.95-11.62,3.9-23.27,7.38-34.58l.29.07h0Z" fill="#512525"/><path d="m917.29,140.59l-.78,3.64c.26,14.8,14.57,38.03,24.03,13.73,6.47-16.62-21.15-35.52-23.25-17.38Z" fill="#2b0d0d"/><path d="m955.06,175.77c-1.45-3.7-1.84-5.61-5.74-6.37l-3.1-.59c-7.73-.58-12.53,8.5-13.77,15.99-.46,2.79,2.43,17.09,4.69,18.43,14.45,8.62,23.01-14.51,17.93-27.46Z" fill="#2b0d0d"/><path d="m955.03,212.5h0c-1.17-.59-2.46-.9-3.67-.62-15.36,3.47-20.1,34.88-5.74,33.86,9.72-.69,15.8-19.38,13.27-28.6-.58-2.11-2.09-3.75-3.85-4.64Z" fill="#2b0d0d"/><path d="m688.87,128.82l.2,3.72c-2.58,14.58-20.35,35.28-25.88,9.8-3.78-17.42,26.45-31.77,25.68-13.52Z" fill="#2b0d0d"/><path d="m647.16,163.56c1.45-3.7,1.84-5.61,5.74-6.37l3.1-.59c7.73-.58,12.53,8.5,13.77,15.99.46,2.79-2.43,17.09-4.69,18.43-14.45,8.62-23.01-14.51-17.93-27.46Z" fill="#2b0d0d"/><path d="m645.92,202.28h0c1.17-.59,2.46-.9,3.67-.62,15.36,3.47,20.1,34.88,5.74,33.86-9.72-.69-15.8-19.38-13.27-28.6.58-2.11,2.09-3.75,3.85-4.64Z" fill="#2b0d0d"/><path d="m816.47,89.71l-2.82,2.44c-13.09,6.9-40.35,5.56-23.61-14.44,11.44-13.67,41.31,1.41,26.43,12Z" fill="#2b0d0d"/><path d="m764.06,76.39c3.84,1,5.79,1.17,7,4.95l.96,3.01c1.49,7.6-6.96,13.44-14.25,15.57-2.72.79-17.25-.39-18.86-2.47-10.27-13.33,11.69-24.57,25.15-21.05Z" fill="#2b0d0d"/><path d="m726.18,92.09h0c.69,1.26,2.5,5.79,2.34,7.21-2.07,17.88-34.33,23.86-34.61,7.4-.18-11.14,17.89-20.25,27.3-18.45,2.16.41,3.92,1.94,4.97,3.84Z" fill="#2b0d0d"/><path d="m845.53,81.23c-3.79,1.18-5.73,1.43-6.77,5.26l-.82,3.05c-1.14,7.66,7.56,13.11,14.94,14.9,2.75.67,17.22-1.18,18.73-3.33,9.65-13.79-12.8-24.01-26.09-19.88Z" fill="#2b0d0d"/><path d="m884.96,106.08h0c-.78,1.2-2.92,5.59-2.86,7.01.75,17.99,32.48,26.33,33.96,9.94,1.01-11.09-16.35-21.51-25.86-20.42-2.18.25-4.06,1.65-5.24,3.46Z" fill="#2b0d0d"/><path d="m887.49,166.74s24.48-29.7,2.55-52.61c-9.33-9.75-175.06-38.02-224.16,41-36.26,58.36,5.18,149.09,14.38,142.26l207.23-130.65Z" fill="#2b0d0d"/><path d="m897.28,152.04c21.01,33.17,34.52,64.83,40.24,117.54,13.68-16.09,15.81-107.62-28.11-141.99l-12.14,24.45Z" fill="#2b0d0d"/><path d="m800.4,112.02c-102.03-.41-139.45,85.37-136.05,150.72,3.41,65.35,25.59,166.98,138.34,168.83,121.17,1.99,134.83-105.92,136.09-140.52,3.24-89.38-22.5-178.56-138.38-179.03Z" fill="#994d30"/><path d="m678,280.81c-.87-14.88-6.82-33.48-15.46-39.69-8.64-6.21-19.49-4.81-27.65,3.58-4.81,4.93-6.8,14.52-7.94,23.22-1.27,9.76,1.14,19.76,4.9,27.55,6.59,13.63,31.59,29.48,42.61,26.24,11.01-3.24,3.86-20.64,3.63-37.95" fill="#994d30"/><path d="m641.71,253.57c3.09.63,5.49,2.52,7.87,4.33,6.43,4.98,14.43,14.42,12.04,23.14-.05.14-.26.14-.29-.01-.82-2.85-1.3-5.53-2.49-8.2-2.39-5.19-6.34-9.5-10.63-13.26-2.18-1.92-4.61-3.45-6.64-5.74-.1-.1,0-.3.14-.26h0Z" fill="#562015"/><path d="m927.3,289.86c1.94-14.78,9.23-32.9,18.3-38.47,9.07-5.57,19.78-3.38,27.32,5.58,4.43,5.27,5.73,14.98,6.23,23.73.56,9.83-2.57,19.63-6.89,27.12-7.56,13.12-33.65,27.11-44.4,23.08-10.75-4.03-2.35-20.87-.87-38.11" fill="#994d30"/><path d="m965.59,265.6c-2.2,2.14-4.72,3.49-7.04,5.25-4.55,3.43-8.81,7.44-11.57,12.45-1.38,2.58-2.05,5.21-3.07,8-.04.14-.26.14-.29-.01-1.73-8.9,6.89-17.67,13.69-22.21,2.51-1.63,5.04-3.34,8.17-3.74.14-.02.24.17.12.27h0Z" fill="#562015"/><path d="m654.74,303.46c3.82,1.76,5.28,3.3,6.02,4.78,1.66,6.95,1.33,14.25-.89,21.06-.51,1.41-.67,2.81-1.61,4.08-1.64,1.91-3.62,2.75-6.6,3.62-2.3.61-5-1.77-6.26-2.69-2.35-1.79-2.5-4.03-2.75-6.59-.33-2.85-.48-5.68-.24-8.48.46-4.19,1.43-8.52,3.19-12.39,1-1.32,2.72-2.57,6.79-3.61.81-.21,1.63-.11,2.34.21h0Z" fill="#ffc550"/><path d="m947.5,313.24c4.12.6,5.9,1.58,6.97,2.69,3.25,5.61,4.69,12.09,4.15,18.57-.16,1.36.02,2.62-.58,3.95-1.18,2.12-2.88,3.3-5.53,4.78-2.04,1.09-5.25-.3-6.7-.81-2.66-.98-3.34-2.78-4.23-5.07-1-2.4-1.82-4.83-2.25-7.33-.56-3.77-.65-7.81.14-11.58.66-1.39,2.02-2.91,5.72-4.81.74-.38,1.55-.5,2.32-.39h0Z" fill="#ffc550"/><path d="m911.38,275.7c-3.09-5.72-6.19-11.22-11.38-15.12-10.11-7.64-24.56-7.92-35.7-2.27-5.78,2.94-10.27,7.39-14.5,12.36-.08.1-.22.11-.32.03-.07-.06-.1-.15-.07-.24.98-3.25,2.84-6.24,5.18-8.76,12.01-12.53,33.74-14.83,47.42-3.67,5.34,4.29,9.46,10.62,9.81,17.56.01.23-.32.33-.42.12h0Z" fill="#001415"/><ellipse cx="866.75" cy="270.34" rx="13.67" ry="13.52" transform="translate(47.19 661.05) rotate(-42.81)" fill="#001415"/><path d="m720.18,269.08c2.51-6.13,7.36-10.94,12.81-14.59,14.07-9.82,34.18-8.6,45.5,4.88,2.1,2.57,3.7,5.56,4.47,8.75.03.12-.05.24-.17.27-.09.02-.18-.01-.23-.08-1.99-2.55-3.95-4.93-6.13-7.08-10.92-11.55-28.58-12.43-41.67-4.01-5.38,3.29-9.45,7.91-14.21,12.12-.16.16-.46-.04-.36-.25h0Z" fill="#001415"/><ellipse cx="740.97" cy="265.63" rx="13.52" ry="13.67" transform="translate(16.61 573.68) rotate(-42.76)" fill="#001415"/><path d="m856.73,356.83c-7.79,35.55-84.85,44.2-87.73,5.35,0,0-.3-6.06,6.78-11.97,5.55-4.63,15.64-9.17,33.97-10.62,13.59-1.08,23.28.24,30.18,2.55,14.96,5.01,16.79,14.69,16.79,14.69Z" fill="#843a1a"/><path d="m865.66,351.13c-5.28,10.55-65.71,42.72-109.14,2.77l109.14-2.77Z" fill="#fff"/><path d="m718.38,227.39c-4.74-13.22,20.03-20.37,29.36-21.77,7.62-1.18,15.54-1.19,23.23.16,5.16.76,11.14,3.66,12.06,9.47,0,0-1.23,1.26-1.23,1.26-.75.09-1.76.26-2.48.44-1.93.44-3.92.89-5.84,1.02-2.53.13-5.09-.11-7.64.11-5.23.25-10.56,1.03-15.81,1.85-6.38,1.08-12.84,2.23-18.84,4.54-2.77,1.35-5.58,2.17-8.63,2.75-.8.16-1.47.41-2.51.74l-1.67-.56h0Z"/><path d="m848.07,213.63c1.62-5.07,6.8-7.85,11.76-8.34,1.38-.2,3.25-.53,4.61-.58,12.29-.94,24.52,2.15,34.84,8.91,3.88,2.7,7.95,5.53,9.54,10.22.52,1.64.8,3.42.59,5.35l-1.4,1.08c-4.05-.33-6.97-1.2-10.27-2.85-.96-.64-3.71-1.98-4.8-2.49-4.43-2-9.17-3.41-13.92-4.62-4.75-1.16-9.59-2.17-14.47-2.51-2.43-.3-4.82-.13-7.21-.19-2.06-.16-3.97-.66-5.96-1.33-.85-.3-1.68-.63-2.55-1.06,0,0-.76-1.59-.76-1.59h0Z"/><path d="m790.57,311.73c10.42,8.11,33.26,9.81,44.66,3.13,1.87-1.11,3.55-2.47,4.98-4.29.05-.07.14-.08.21-.03-.29,2.33-2.29,4.44-4.16,5.86-9.64,6.27-23.48,5.8-34.21,2.94-4.39-1.33-9.44-3.09-11.71-7.44-.07-.14.12-.29.24-.18h0Z" fill="#562015"/><path d="m896.58,118.21c23.95,22.24,19.83,37.75-1.78,47.33-12.82,5.69-32.26.54-30.86-15.31-14.09,11.67-39.26-1.41-35.66-18.55-7.32,13.62-23.29,20.8-39.03,20.68-13.52-.11-30.73-2.42-27.55-18.61-5.65,8.89-8.82,18.34-16.41,26.01-13.37,13.52-43.37,27.36-63.25,17.26-7.51-3.81-6.55-15.05-6.55-15.05,0,0,7.72-15.58,7.26-26.18,22.34-49.26,155.06-72.17,213.83-17.59Z" fill="#2b0d0d"/><path d="m660.44,230.33c3.58,11.18,4.34,22.78,10.92,32.97,6.71-16.03.32-39.26,1.79-56.24,3.15-36.41,2.32-42.62,2.87-53.76-12.48,7.12-15.18,62.26-15.58,77.04Z" fill="#2b0d0d"/><path d="m928.68,185.29c3.46,23.97-5.39,65.47,2.97,88.25,14.49-11.35,14.3-90.07-2.97-88.25Z" fill="#2b0d0d"/><path d="m894.52,145.81c-.35,20.79,4.89,43.87,30.47,40.7,1.39-14.83-12.35-45.89-30.47-40.7Z" fill="#2b0d0d"/><path d="m1032.36,715.35c10.79-58.81-.58-119.9-39.09-166.63-6.89-8.39-14.57-16.42-22.31-24.03,0,0,.19-.22.19-.22,1.7,1.39,3.37,2.82,5.05,4.24,6.75,5.67,12.84,12.08,18.59,18.75,27.18,32.52,41.97,73.34,43.35,115.59.47,13.21-.1,26.5-2.46,39.52-.77,4.34-1.72,8.64-3.03,12.85l-.28-.08h0Z" fill="#8541ce"/></g><path d="m548.02,297.35c-41.06,33.65-53.57,87.56-61.09,106.93-7.52,19.36-15.82,120.58-15.82,120.58,0,0,67.2.46,95.22-21.14,10.66-8.22,46.55-66.41,50.67-95.71-18,14-26-2-26-2,0,0,25.41-56.4,29-81,3.59-24.6-13.36-28.45-14.75-34.99-2.77-13.08-16.17-26.31-57.23,7.34Z" fill="#994d30"/><path d="m547.39,449.55s-41.3,35.49-37.88,46.4c3.42,10.91,19.04,34.16,33.12,25.14,14.08-9.02,48.35-28.33,66.95-51.37,18.6-23.03,46.5-66.07,38.11-74.2-8.38-8.13-13.64-1.74-16.46.06-2.82,1.8-53.76,47-83.84,53.96Z" fill="#994d30"/><path d="m606,416.15c-11.43,2.08-22.25,6.4-32.34,12.1-7.54,4.24-14.83,9.09-20.92,15.25-2.02,2.04-3.93,4.15-5.6,6.56-.08.14-.32.03-.27-.12,4.39-13.42,28.85-26.64,41.71-31.16,5.55-1.92,11.47-3.8,17.42-2.93.16.02.16.27,0,.29h0Z" fill="#562015"/><path d="m539.08,378.66c4.69-14.98,10.93-29.36,15.52-44.35,2.22-7.36,4.68-14.93,5.38-22.56.59-7.77.55-15.54-.34-23.23-.02-.08.03-.19.12-.19.06,0,.12.02.14.07.99,1.79,1.49,3.75,1.86,5.71.99,5.87.79,11.88.53,17.79-.69,8.01-3.07,15.55-5.44,23.13-2.4,7.5-5.13,14.87-7.96,22.2-2.82,7.33-5.76,14.62-9.54,21.54-.07.15-.33.05-.27-.11h0Z" fill="#562015"/><path d="m552.23,388.35c6.89-18.81,15.59-36.84,22.52-55.63,3.5-9.28,7.08-18.69,9.29-28.34.48-2.4.94-4.82.67-7.12-.53-5.08-.21-10.38,1.71-15.16.97-2.37,2.24-4.65,4.09-6.44.12-.12.34.07.21.2-2.78,4.07-3.95,9.02-4.23,13.87-.13,2.43-.04,4.88.25,7.3.35,2.7-.13,5.29-.59,7.78-4.55,19.63-12.78,38.1-20.61,56.57-4.04,9.17-7.96,18.4-13.04,27.09-.08.15-.33.04-.27-.12h0Z" fill="#562015"/><path d="m573.44,381.94c6.55-13.2,14.34-25.65,20.16-39.2,5.94-13.3,11.17-27.23,11.61-41.93,0-.16.26-.2.29-.03,3.79,17.75-11.12,47.11-19.74,62.74-3.65,6.42-7.25,12.9-12.07,18.58-.1.13-.33-.01-.25-.16h0Z" fill="#562015"/><path d="m208.26,252.3c8.84,4.14,14.45,18.34,14.32,27.74.03,6.87-2.37,13.58-6.11,19.27-2.13,3.41-5.03,6.37-8.62,8.24,0,0-.42-.41-.42-.41,1.78-4.12,4.37-7.64,6.46-11.55,4.8-9.17,5.1-20.04.93-29.56-1.98-4.67-4.9-8.52-6.95-13.3,0,0,.4-.43.4-.43h0Z" fill="#fff"/><path d="m241.19,242.18c5.76,3.88,8.9,10.18,11.46,16.41,6.6,15.9,4.79,34.36-4.31,48.92-1.81,2.84-4.06,5.4-6.69,7.51,0,0-.47-.35-.47-.35,1.11-3.15,2.58-5.96,3.92-8.96,7.34-13.98,8.86-30.66,3.5-45.61-2.11-6.12-5.35-11.46-7.84-17.53,0,0,.44-.39.44-.39h0Z" fill="#fff"/><path d="m274.11,232.05c6.33,5.42,9.65,13.19,12.35,20.86,6.81,19.35,5.23,41.37-4.01,59.64-1.85,3.62-4.23,6.97-7.02,9.94,0,0-.5-.31-.5-.31,1.16-3.79,2.8-7.47,4.15-11.16,7.64-17.84,9-38.2,3.26-56.78-2.27-7.56-5.77-14.42-8.69-21.82,0,0,.46-.36.46-.36h0Z" fill="#fff"/><path d="m307.02,221.92c6.83,6.93,10.36,16.18,13.21,25.28,7.69,25.1,5.66,53.69-6.98,76.83-1.21,2.06-2.59,4.03-4.04,5.92l-.52-.27c.6-2.33,1.42-4.53,2.15-6.75,1.09-3.22,2.24-6.72,3.33-9.91,8.52-25.14,7.56-53.17-2.52-77.73,0,0-5.11-13.04-5.11-13.04l.48-.34h0Z" fill="#fff"/><path d="m339.94,211.79c6.41,7.37,10.01,16.54,12.88,25.73,9.39,30.14,7.96,64.19-5.64,92.82-1.23,2.45-2.68,4.81-4.19,7.1,0,0-.53-.25-.53-.25.63-2.69,1.5-5.25,2.26-7.85,1.14-3.77,2.33-7.85,3.47-11.59,7.18-24.34,7.78-50.54,1.61-75.17-2.61-10.46-6.6-20.33-10.35-30.48,0,0,.49-.32.49-.32h0Z" fill="#fff"/><path d="m372.85,201.65c7.75,9.93,11.66,22.09,14.87,34.09,7.89,30.18,6.71,62.67-3.17,92.24-2,5.89-4.63,11.57-7.78,16.93,0,0-.54-.23-.54-.23,1.39-5.92,3.29-11.91,4.78-17.8,8.46-29.2,9.46-60.49,2.51-90.12-2.79-11.92-7.02-23.28-11.17-34.83,0,0,.5-.3.5-.3h0Z" fill="#fff"/><path d="m405.76,191.52c8.17,11.42,12.29,25.03,15.69,38.49,7.49,30.45,7.32,62.7-.14,93.13-1.54,6.67-3.72,13.53-6.3,19.85-1.3,3.21-2.86,6.34-4.45,9.42,0,0-.55-.21-.55-.21,1.46-6.64,3.46-13.4,4.98-20.01,8.73-32.94,9.63-67.91,2.25-101.2-2.98-13.38-7.44-26.22-11.98-39.18,0,0,.51-.29.51-.29h0Z" fill="#fff"/><path d="m438.67,181.38c8.59,12.9,12.92,27.96,16.5,42.87,7.87,33.72,7.81,69.22.2,102.99-1.57,7.39-3.81,15.02-6.46,22.09-1.34,3.59-2.94,7.1-4.58,10.56,0,0-.55-.2-.55-.2,1.54-7.35,3.62-14.88,5.18-22.22,8.99-36.67,9.81-75.32,1.99-112.28-3.16-14.84-7.86-29.16-12.79-43.53,0,0,.52-.28.52-.28h0Z" fill="#fff"/><path d="m471.58,171.24c8.99,14.37,13.54,30.89,17.3,47.25,9.15,41.1,8.25,84.4-2.36,125.14-2.15,8.13-4.99,16.07-8.43,23.74,0,0-.56-.19-.56-.19,1.61-8.07,3.77-16.37,5.39-24.43,9.25-40.39,9.99-82.74,1.72-123.36-3.35-16.3-8.28-32.1-13.59-47.89,0,0,.52-.27.52-.27h0Z" fill="#fff"/><path d="m504.49,161.1c9.39,15.83,14.15,33.81,18.11,51.63,7.7,35.82,8.66,73.02,3.22,109.22-2.06,13.49-4.82,27.1-9.12,40.08-1.4,4.34-3.1,8.6-4.82,12.83,0,0-.56-.18-.56-.18,2.2-10.95,4.82-22.3,6.95-33.28,8.2-42.07,8.36-85.73.09-127.8-3.54-17.76-8.7-35.04-14.39-52.25,0,0,.53-.26.53-.26h0Z" fill="#fff"/><path d="m537.4,150.96c4.97,8.6,8.51,17.89,11.56,27.29,5.84,18.89,9.76,38.37,12.07,58,4.59,39.25,2.36,79.36-6.54,117.87-2.25,9.61-5.24,19.04-8.85,28.24,0,0-.56-.17-.56-.17,1.76-9.51,4.08-19.34,5.79-28.85,7.81-38.24,9.77-77.76,5.51-116.56-2.11-19.41-5.79-38.64-11.06-57.45-2.61-9.41-5.35-18.79-8.46-28.11l.53-.25h0Z" fill="#fff"/><line x1="220.18" y1="280" x2="223.18" y2="280" fill="none" stroke="#fff" stroke-linecap="round" stroke-linejoin="round" stroke-width="2"/><line x1="229.19" y1="280" x2="647.12" y2="279.93" fill="none" stroke="#fff" stroke-dasharray="0 0 6.01 6.01" stroke-linecap="round" stroke-linejoin="round" stroke-width="2"/><line x1="650.13" y1="279.93" x2="653.13" y2="279.93" fill="none" stroke="#fff" stroke-linecap="round" stroke-linejoin="round" stroke-width="2"/></g><g id="i"><path d="m1161.04,259.86c3.25-151.45,45.47-250.98,261.93-252.25,560.41-3.28,849.75-9.83,874.11,291.56,12.83,158.64-.8,372.62-303.05,334.15-257.36-32.76-463.55,4.1-621.32,3.28-217.46-1.14-213.28-302.12-211.68-376.73Z" fill="#ffe9ab"/><g clip-path="url(#j)"><path d="m1033.48,362.27l-134.95,221.04,1250.83-1.68-116.49-217.4c-4.18-7.79-12.3-12.66-21.14-12.67l-957.74-.79c-8.37,0-16.15,4.35-20.51,11.5Z" fill="#3d3d3d"/><ellipse cx="1266.55" cy="498.82" rx="207.42" ry="40.4" fill="#3d3d3d" stroke="#676867" stroke-miterlimit="10" stroke-width="2"/><ellipse cx="1266.55" cy="399.89" rx="160.23" ry="31.21" fill="#3d3d3d" stroke="#676867" stroke-miterlimit="10" stroke-width="2"/><path d="m898.54,583.31v94.55c0,14.7,11.91,26.61,26.61,26.61h1197.61c14.7,0,26.61-11.91,26.61-26.61v-96.22l-1250.83,1.68Z" fill="#3d3d3d"/><circle cx="1131.98" cy="640.55" r="26.97" fill="#7e8b91"/><circle cx="1136.82" cy="643.87" r="42.01" fill="#7e8b91"/><circle cx="1135.39" cy="640.43" r="26.97" fill="#7e8b91"/><path d="m1162.06,640.07c.38,15.23-10.9,27.67-26.33,27.86-14.86.49-28.08-12.35-28.02-27.24-.38-14.88,12.51-28.02,27.39-27.87,15.33-.23,26.98,12.15,26.96,27.24h0Zm-.29,0c-.08-13.81-13.06-25.48-26.64-25.14-13.67-.03-25.45,12.09-25,25.74-.12,13.65,11.91,25.5,25.59,25.15,13.57.03,26.23-11.99,26.06-25.74h0Z" fill="#404e54"/><path d="m2149.36,581.78c-370.83,1.65-778.65,1.58-1149.48,0,0,0,0-.3,0-.3,370.63-1.28,779.41-2.21,1149.48.29h0Z" fill="#6b7981"/></g></g></svg>