<?xml version="1.0" encoding="UTF-8"?><svg xmlns="http://www.w3.org/2000/svg" width="1140" height="641" xmlns:xlink="http://www.w3.org/1999/xlink" viewBox="0 0 1140 641"><defs><style>.o{stroke:#4970bf;}.o,.p{stroke-width:12px;}.o,.p,.q,.r,.s,.t,.u,.v,.w,.x{fill:none;}.o,.p,.y,.r,.s,.t,.u,.v,.w,.x{stroke-miterlimit:10;}.o,.p,.s,.w,.x{stroke-linecap:round;}.p,.v{stroke:#f06c00;}.q,.z,.aa,.ab,.ac,.ad,.ae,.af,.ag,.ah,.ai,.aj,.ak,.al,.am,.an,.ao{stroke-width:0px;}.y{fill:#e8f5f9;}.y,.s,.t,.u,.v{stroke-width:2px;}.y,.u{stroke:#0077a2;}.r{stroke:#558393;stroke-width:5.061px;}.s{stroke:#000;}.t{stroke:#9ed5e8;}.w{stroke:#92cee8;}.w,.x{stroke-width:4px;}.z{fill:#4970bf;}.z,.aa,.ap{opacity:.5;}.aa,.an{fill:#f06c00;}.aq{opacity:.35;}.x{stroke:#faa61a;}.ar{clip-path:url(#c);}.ac{fill:#4c4c4c;}.ad{fill:#558393;}.ae{fill:#382522;}.af{fill:#212628;}.ag{fill:#c8d9d2;}.ah{fill:#a9ecf7;}.ai{fill:#cdf1f9;}.aj{fill:#9ed5e8;}.ak{fill:#fde596;}.al{fill:#fff;}.am{fill:#e3f6fc;}.ao{fill:#0077a2;}</style><clipPath id="c"><path id="d" class="q" d="m385.882,9.086c48.442,1.168,97.14,4.62,145.11,4.417,126.16-.534,323.591-25.321,449.46-.44,164.294,32.477,179.208,234.529,126.798,349.213-147.114,321.913-606.327,309.76-871.709,185.034-98.492-46.29-191.279-110.792-219.694-206.467C-20.009,220.113,58.332,75.595,198.648,29.726c60.489-19.772,123.642-22.174,187.234-20.641Z"/></clipPath></defs><g id="a"><path id="b" class="am" d="m385.882,9.086c48.442,1.168,97.14,4.62,145.11,4.417,126.16-.534,323.591-25.321,449.46-.44,164.294,32.477,179.208,234.529,126.798,349.213-147.114,321.913-606.327,309.76-871.709,185.034-98.492-46.29-191.279-110.792-219.694-206.467C-20.009,220.113,58.332,75.595,198.648,29.726c60.489-19.772,123.642-22.174,187.234-20.641Z"/><g class="ar"><g class="ap"><rect class="ai" x="131.2" y="1.693" width="879.357" height="630.912"/><rect class="ah" x="160.824" y="24.726" width="412.328" height="607.879"/><g id="e" class="aq"><path class="al" d="m192.988,41.192c15.469-1.513,37.953-.761,53.697-1.059,0,0,26.849.134,26.849.134,8.922.221,18.254-.256,26.98,1.087-15.335,1.807-38.085.798-53.829,1.192,0,0-26.849-.124-26.849-.124-8.95-.105-17.899.05-26.849-.935-.165-.011-.172-.283,0-.294h0Z"/><path class="al" d="m192.988,55.545c15.469-1.514,37.953-.761,53.697-1.059,0,0,26.849.134,26.849.134,8.922.221,18.254-.256,26.98,1.087-15.336,1.807-38.085.798-53.829,1.191,0,0-26.849-.124-26.849-.124-8.95-.105-17.899.05-26.849-.935-.165-.011-.172-.283,0-.294h0Z"/><path class="al" d="m192.988,69.898c15.469-1.513,37.953-.761,53.697-1.059,0,0,26.849.134,26.849.134,8.922.221,18.254-.256,26.98,1.087-15.335,1.807-38.085.798-53.829,1.192,0,0-26.849-.124-26.849-.124-8.95-.105-17.899.05-26.849-.935-.165-.011-.172-.283,0-.294h0Z"/><path class="al" d="m192.988,84.251c15.469-1.514,37.953-.761,53.697-1.059,0,0,26.849.134,26.849.134,8.922.221,18.254-.256,26.98,1.087-15.336,1.807-38.085.798-53.829,1.191,0,0-26.849-.124-26.849-.124-8.95-.105-17.899.05-26.849-.935-.165-.011-.172-.283,0-.294h0Z"/><path class="al" d="m192.988,98.604c15.469-1.513,37.953-.761,53.697-1.059,0,0,26.849.134,26.849.134,8.922.221,18.254-.256,26.98,1.087-15.335,1.807-38.085.798-53.829,1.192,0,0-26.849-.124-26.849-.124-8.95-.105-17.899.05-26.849-.935-.165-.011-.172-.283,0-.294h0Z"/><path class="al" d="m436.358,41.192c15.469-1.513,37.953-.761,53.697-1.059,0,0,26.849.134,26.849.134,8.922.221,18.254-.256,26.981,1.087-15.336,1.807-38.085.798-53.829,1.192,0,0-26.849-.124-26.849-.124-8.95-.105-17.899.05-26.849-.935-.165-.011-.172-.283,0-.294h0Z"/><path class="al" d="m436.358,55.545c15.469-1.514,37.953-.761,53.697-1.059,0,0,26.849.134,26.849.134,8.922.221,18.254-.256,26.981,1.087-15.336,1.807-38.085.798-53.829,1.191,0,0-26.849-.124-26.849-.124-8.95-.105-17.899.05-26.849-.935-.165-.011-.172-.283,0-.294h0Z"/><path class="al" d="m436.358,69.898c15.469-1.513,37.953-.761,53.697-1.059,0,0,26.849.134,26.849.134,8.922.221,18.254-.256,26.981,1.087-15.336,1.807-38.085.798-53.829,1.192,0,0-26.849-.124-26.849-.124-8.95-.105-17.899.05-26.849-.935-.165-.011-.172-.283,0-.294h0Z"/><path class="al" d="m436.358,84.251c15.469-1.514,37.953-.761,53.697-1.059,0,0,26.849.134,26.849.134,8.922.221,18.254-.256,26.981,1.087-15.336,1.807-38.085.798-53.829,1.191,0,0-26.849-.124-26.849-.124-8.95-.105-17.899.05-26.849-.935-.165-.011-.172-.283,0-.294h0Z"/><path class="al" d="m436.358,98.604c15.469-1.513,37.953-.761,53.697-1.059,0,0,26.849.134,26.849.134,8.922.221,18.254-.256,26.981,1.087-15.336,1.807-38.085.798-53.829,1.192,0,0-26.849-.124-26.849-.124-8.95-.105-17.899.05-26.849-.935-.165-.011-.172-.283,0-.294h0Z"/><path class="al" d="m314.673,41.192c15.469-1.513,37.953-.761,53.697-1.059,0,0,26.849.134,26.849.134,8.922.221,18.254-.256,26.98,1.087-15.336,1.807-38.085.798-53.829,1.192,0,0-26.849-.124-26.849-.124-8.95-.105-17.899.05-26.849-.935-.165-.011-.172-.283,0-.294h0Z"/><path class="al" d="m314.673,55.545c15.469-1.514,37.953-.761,53.697-1.059,0,0,26.849.134,26.849.134,8.922.221,18.254-.256,26.98,1.087-15.336,1.807-38.085.798-53.829,1.191,0,0-26.849-.124-26.849-.124-8.95-.105-17.899.05-26.849-.935-.165-.011-.172-.283,0-.294h0Z"/><path class="al" d="m314.673,69.898c15.469-1.513,37.953-.761,53.697-1.059,0,0,26.849.134,26.849.134,8.922.221,18.254-.256,26.98,1.087-15.336,1.807-38.085.798-53.829,1.192,0,0-26.849-.124-26.849-.124-8.95-.105-17.899.05-26.849-.935-.165-.011-.172-.283,0-.294h0Z"/><path class="al" d="m314.673,84.251c15.469-1.514,37.953-.761,53.697-1.059,0,0,26.849.134,26.849.134,8.922.221,18.254-.256,26.98,1.087-15.336,1.807-38.085.798-53.829,1.191,0,0-26.849-.124-26.849-.124-8.95-.105-17.899.05-26.849-.935-.165-.011-.172-.283,0-.294h0Z"/><path class="al" d="m314.673,98.604c15.469-1.513,37.953-.761,53.697-1.059,0,0,26.849.134,26.849.134,8.922.221,18.254-.256,26.98,1.087-15.336,1.807-38.085.798-53.829,1.192,0,0-26.849-.124-26.849-.124-8.95-.105-17.899.05-26.849-.935-.165-.011-.172-.283,0-.294h0Z"/><path class="al" d="m190.965,142.238c114.447-1.65,240.36-1.579,354.811-.001.182-.001.183.298,0,.295-51.155,1.404-125.452.778-177.405,1.057-51.88-.597-127.11.967-177.405-1.351h0Z"/></g><path class="aj" d="m161.38,591.532c-1.892-179.545-.704-385.669-.876-565.716,0,0,.001-1.024.001-1.024,36.882.059,129.826.183,165.549.445.005.289,55.422-.12,54.842.725,0,0-54.842.433-54.842.433-34.673.248-128.627.4-164.527.443,0,0,1.023-1.023,1.023-1.023l.121,141.429c-.508,131.215,1.183,294.336-1.291,424.287h0Z"/><path class="aj" d="m574.002,58.483c1.65,171.954,1.579,361.091.001,533.049-.001,0-.295,0-.295,0-1.285-171.759-2.213-361.856.294-533.049h0Z"/><line class="t" x1="962.295" y1="3.696" x2="962.295" y2="169.598"/><path class="ah" d="m962.442,223.341c1.558,17.797.772,35.628,1.059,53.463,0,0-.134,26.731-.134,26.731-.221,8.883.256,18.176-1.087,26.863-1.805-15.224-.799-37.949-1.191-53.595.023-8.91.035-17.821.124-26.731.105-8.91-.05-17.821.935-26.731.011-.165.283-.172.294,0h0Z"/><line class="t" x1="962.295" y1="379.897" x2="962.295" y2="622.198"/></g></g><g id="f"><rect class="ae" x="551.077" y="193.037" width="43.088" height="63.93"/><circle class="ae" cx="572.884" cy="254.274" r="35.009"/><ellipse class="ak" cx="572.621" cy="193.037" rx="21.091" ry="6.493"/><ellipse class="an" cx="572.621" cy="184.701" rx="21.091" ry="12.987"/><circle class="ad" cx="573.152" cy="254.274" r="27.549"/><path class="r" d="m572.621,239.62c.146.808-21.371-45.808,0-53.423"/><path class="ac" d="m573.242,234.876c-3.435,4.923-6.069,9.458-2.413,15.037,1.473,2.092,3.51,3.724,5.226,5.603.294.398,1.094,1.445,1.378,1.834,3.857,5.79,1.744,13.414-4.191,16.553,0,0-.182-.231-.182-.231,1.126-1.55,2.122-3.104,2.912-4.698.98-1.973,1.553-4.1,1.167-6.224-.05-.726-.462-1.732-.713-2.426-.24-.413-.704-1.307-.949-1.693-.255-.319-.952-1.228-1.213-1.564-1.848-1.883-3.918-3.656-5.399-5.868-.296-.451-.835-1.571-1.107-2.052-.181-.492-.328-1.001-.488-1.5-1.458-5.006,1.331-10.85,5.789-13.002,0,0,.182.231.182.231h0Z"/><path class="ac" d="m559.742,240.257c.856,5.455,2.118,10.812,8.089,12.313,3.157.926,6.579.15,9.784.82,7.175,1.029,11.428,8.294,9.238,14.941,0,0-.291-.04-.291-.04-.267-1.898-.63-3.707-1.168-5.402-.774-2.516-2.228-4.767-4.541-5.977,0,0-1.141-.561-1.141-.561-.735-.211-1.754-.597-2.512-.65-2.298-.4-4.682-.126-6.999-.3-.488-.082-1.792-.279-2.266-.362-.526-.119-1.692-.551-2.222-.708-5.348-2.177-8.203-8.917-6.261-14.115,0,0,.291.04.291.04h0Z"/><path class="ac" d="m553.768,253.507c4.405,3.329,9.034,6.306,14.372,3.238,2.914-1.527,4.836-4.462,7.607-6.207,5.876-4.243,13.982-1.972,17.024,4.331,0,0-.237.174-.237.174-1.51-1.18-3.028-2.23-4.593-3.074-2.304-1.272-4.914-1.881-7.418-1.145,0,0-1.21.389-1.21.389-.676.359-1.677.788-2.259,1.278-1.93,1.309-3.455,3.162-5.243,4.647-.408.28-1.483,1.044-1.881,1.314-.461.28-1.6.779-2.09,1.034-5.36,2.149-12.096-.716-14.309-5.804,0,0,.237-.173.237-.173h0Z"/><path class="ac" d="m558.675,267.187c5.957-.741,11.09-1.818,12.79-8.269.569-2.495.418-5.1.667-7.633.099-.485.342-1.78.441-2.251,1.722-6.74,8.802-10.272,15.105-7.961,0,0-.05.289-.05.289-1.906.2-3.727.5-5.44.979-2.122.592-4.086,1.59-5.406,3.297-.506.523-.977,1.502-1.325,2.153-.146.455-.5,1.398-.623,1.838-.067.403-.276,1.529-.35,1.948-.163,2.634-.096,5.358-.748,7.939-.137.522-.609,1.672-.785,2.196-.245.464-.524.913-.789,1.367-2.745,4.433-8.954,6.272-13.536,4.398,0,0,.05-.289.05-.289h0Z"/><ellipse class="ak" cx="572.821" cy="178.096" rx="25.605" ry="13.126"/></g><g id="g"><path class="o" d="m275.915,395.723c-6.521,0-11.856,5.335-11.856,11.856v124.217c0,6.521,5.335,11.856,11.856,11.856h226.243l24.466.129"/><path class="o" d="m345.664,178.616v-20.016c0-2.032,5.335-3.695,11.856-3.695h196.604c6.521,0,8.856,1.663,8.856,3.695v20.016"/><path class="o" d="m372.82,264.808h-100.646c-4.517,0-8.213-3.696-8.213-8.213v-9.754c0-4.517,3.696-8.213,8.213-8.213h100.646"/><path class="o" d="m275.733,290.993h100.646c4.517,0,8.213-3.696,8.213-8.213v-9.754c0-4.517-3.696-8.213-8.213-8.213h-100.646"/><path class="o" d="m372.56,317.174h-100.646c-4.517,0-8.213-3.696-8.213-8.213v-9.754c0-4.517,3.696-8.213,8.213-8.213h100.646"/><path class="o" d="m372.659,369.534h-100.646c-4.517,0-8.213-3.696-8.213-8.213v-9.754c0-4.517,3.696-8.213,8.213-8.213h100.646"/><path class="o" d="m275.753,343.342h100.646c4.517,0,8.213-3.696,8.213-8.213v-9.754c0-4.517-3.696-8.213-8.213-8.213h-100.646"/><path class="o" d="m275.915,395.724h100.646c4.517,0,8.213-3.696,8.213-8.213v-9.754c0-4.517-3.696-8.213-8.213-8.213h-100.646"/><path class="o" d="m276.214,238.59l100.646.032c4.517.001,8.215-3.693,8.216-8.211l.003-9.754c.001-4.517-3.693-8.215-8.211-8.216l-100.646-.032"/><path class="o" d="m372.756,212.447h-100.646c-4.517,0-8.213-3.696-8.213-8.213v-9.754c0-4.517,3.696-8.213,8.213-8.213l66.047-.247"/><path class="o" d="m337.451,186.019c4.517,0,8.213-3.696,8.213-8.213v-9.754"/><path class="w" d="m275.915,395.723c-6.521,0-11.856,5.335-11.856,11.856v124.217c0,6.521,5.335,11.856,11.856,11.856h226.243l24.466.129"/><path class="w" d="m372.56,317.174h-100.646c-4.517,0-8.213-3.696-8.213-8.213v-9.754"/><path class="w" d="m372.659,369.534h-100.646c-4.517,0-8.213-3.696-8.213-8.213v-9.754c0-4.517,3.696-8.213,8.213-8.213h100.646"/><path class="w" d="m275.753,343.342h100.646c4.517,0,8.213-3.696,8.213-8.213v-9.754c0-4.517-3.696-8.213-8.213-8.213h-100.646"/><path class="w" d="m275.915,395.724h100.646c4.517,0,8.213-3.696,8.213-8.213v-9.754c0-4.517-3.696-8.213-8.213-8.213h-100.646"/></g><path class="p" d="m868.605,395.227c6.521,0,11.856,5.335,11.856,11.856v124.217c0,6.521-5.335,11.856-11.856,11.856h-226.243s-24.176.524-24.176.524"/><path class="p" d="m798.856,178.119v-20.016c0-2.032-5.335-3.695-11.856-3.695h-196.604c-6.521,0-8.856,1.663-8.856,3.695v20.016"/><path class="p" d="m771.7,264.312h100.646c4.517,0,8.213-3.696,8.213-8.213v-9.754c0-4.517-3.696-8.213-8.213-8.213h-100.646"/><path class="p" d="m868.787,290.497h-100.646c-4.517,0-8.213-3.696-8.213-8.213v-9.754c0-4.517,3.696-8.213,8.213-8.213h100.646"/><path class="p" d="m771.96,316.678h100.646c4.517,0,8.213-3.696,8.213-8.213v-9.754c0-4.517-3.696-8.213-8.213-8.213h-100.646"/><path class="p" d="m771.862,369.038h100.646c4.517,0,8.213-3.696,8.213-8.213v-9.754c0-4.517-3.696-8.213-8.213-8.213h-100.646"/><path class="p" d="m868.767,342.846h-100.646c-4.517,0-8.213-3.696-8.213-8.213v-9.754c0-4.517,3.696-8.213,8.213-8.213h100.646"/><path class="p" d="m868.605,395.227h-100.646c-4.517,0-8.213-3.696-8.213-8.213v-9.754c0-4.517,3.696-8.213,8.213-8.213h100.646"/><path class="p" d="m868.306,238.094l-100.646.032c-4.517.001-8.215-3.693-8.216-8.211l-.003-9.754c-.001-4.517,3.693-8.215,8.211-8.216l100.646-.032"/><path class="p" d="m771.764,211.95h100.646c4.517,0,8.213-3.696,8.213-8.213v-9.754c0-4.517-3.696-8.213-8.213-8.213l-66.047-.247"/><path class="p" d="m807.07,185.522c-4.517,0-8.213-3.696-8.213-8.213v-9.754"/><path class="x" d="m868.605,395.227c6.521,0,11.856,5.335,11.856,11.856v124.217c0,6.521-5.335,11.856-11.856,11.856h-226.243s-24.176.524-24.176.524"/><path class="x" d="m771.862,369.038h100.646c4.517,0,8.213-3.696,8.213-8.213v-9.754"/><path class="x" d="m868.605,395.227h-100.646c-4.517,0-8.213-3.696-8.213-8.213v-9.754c0-4.517,3.696-8.213,8.213-8.213h100.646"/><g id="h"><line class="u" x1="406.508" y1="126.52" x2="464.082" y2="126.52"/><polygon class="ao" points="461.748 134.499 475.564 126.52 461.748 118.542 461.748 134.499"/></g><g id="i"><line class="v" x1="659.218" y1="126.52" x2="716.792" y2="126.52"/><polygon class="an" points="714.458 134.499 728.274 126.52 714.458 118.542 714.458 134.499"/></g><g id="j"><line class="u" x1="417.99" y1="515.247" x2="475.564" y2="515.247"/><polygon class="ao" points="420.325 523.226 406.508 515.247 420.325 507.269 420.325 523.226"/></g><g id="k"><line class="v" x1="670.7" y1="515.247" x2="728.274" y2="515.247"/><polygon class="an" points="673.034 523.226 659.218 515.247 673.034 507.269 673.034 523.226"/></g><path class="ac" d="m592.8,254.283c-.002,5.259-1.651,10.671-5.294,14.621-7.548,8.224-21.703,8.206-29.426.184-8.163-7.862-8.159-21.745.003-29.607,7.711-7.995,21.9-8.065,29.389.214,3.659,4.041,5.328,9.411,5.328,14.588h0Zm-.294,0c.049-7.704-5.55-14.484-12.448-17.322-6.826-2.864-15.189-1.124-20.33,4.166-7.162,6.931-7.158,19.378.003,26.308,5.144,5.281,13.5,7.022,20.323,4.16,6.846-2.867,12.469-9.638,12.451-17.312h0Z"/><path class="ad" d="m538.914,506.543h-8.358c-8.279,0-14.991,18-14.991,40.204s6.712,40.204,14.991,40.204h8.358c8.279,0,14.991-18,14.991-40.204s-6.712-40.204-14.991-40.204Z"/><path class="ad" d="m605.336,506.543h8.358c8.279,0,14.991,18,14.991,40.204s-6.712,40.204-14.991,40.204h-8.358c-8.279,0-14.991-18-14.991-40.204s6.712-40.204,14.991-40.204Z"/><path class="ag" d="m567.271,526.305s-23.286-19.764-30.549-15.275c-15.122,9.346-15.122,61.762,0,71.108,7.264,4.489,30.549-15.275,30.549-15.275,3.15-1.575,6.858-1.575,10.009,0,0,0,23.286,19.764,30.549,15.275,15.122-9.346,15.122-61.762,0-71.108-7.264-4.489-30.549,15.275-30.549,15.275-3.15,1.575-6.858,1.575-10.009,0Z"/><polygon class="z" points="527.213 540.845 577.932 544.085 527.213 546.778 527.213 540.845"/><polygon class="aa" points="618.605 540.716 567.887 543.956 618.605 546.649 618.605 540.716"/><g id="l"><path class="al" d="m493.9,393.054c-11.58,0-21-9.421-21-21s9.42-21,21-21h148.404c11.579,0,21,9.421,21,21s-9.421,21-21,21h-148.404Z"/><path class="ab" d="m642.304,352.054c11.028,0,20,8.972,20,20s-8.972,20-20,20h-148.404c-11.028,0-20-8.972-20-20s8.972-20,20-20h148.404m0-2h-148.404c-12.1,0-22,9.9-22,22s9.9,22,22,22h148.404c12.1,0,22-9.9,22-22s-9.9-22-22-22h0Z"/><line class="s" x1="572.821" y1="349.845" x2="572.821" y2="309.744"/><polygon class="ab" points="580.799 312.079 572.821 298.262 564.843 312.079 580.799 312.079"/></g><g id="m"><path class="al" d="m473.9,461.824c-11.58,0-21-9.421-21-21s9.42-21,21-21h188.404c11.579,0,21,9.421,21,21s-9.421,21-21,21h-188.404Z"/><path class="ab" d="m662.304,420.824c11.028,0,20,8.972,20,20s-8.972,20-20,20h-188.404c-11.028,0-20-8.972-20-20s8.972-20,20-20h188.404m0-2h-188.404c-12.1,0-22,9.9-22,22s9.9,22,22,22h188.404c12.1,0,22-9.9,22-22s-9.9-22-22-22h0Z"/><line class="s" x1="572.821" y1="500.134" x2="572.821" y2="462.033"/><polygon class="ab" points="580.799 497.799 572.821 511.616 564.843 497.799 580.799 497.799"/></g><rect class="ai" x="727.076" y="530.039" width="26.233" height="26.233"/><rect class="y" x="12" y="173.041" width="217.81" height="234"/><rect class="y" x="910.19" y="173.041" width="217.81" height="234"/></g><g id="n"><path class="ab" d="m591.28,85.498c0,1.96-.347,3.678-1.039,5.154s-1.684,2.616-2.974,3.418-2.769,1.203-4.437,1.203c-1.649,0-3.122-.396-4.416-1.189s-2.297-1.926-3.008-3.397-1.071-3.165-1.08-5.079v-.984c0-1.96.354-3.685,1.06-5.175s1.704-2.634,2.994-3.432,2.764-1.196,4.423-1.196,3.133.398,4.423,1.196,2.288,1.941,2.994,3.432,1.06,3.211,1.06,5.161v.889Zm-4.156-.902c0-2.087-.374-3.673-1.121-4.758s-1.813-1.627-3.199-1.627c-1.376,0-2.438.535-3.186,1.606s-1.126,2.641-1.135,4.71v.971c0,2.032.374,3.609,1.121,4.73s1.823,1.682,3.227,1.682c1.376,0,2.434-.54,3.172-1.62s1.112-2.654,1.121-4.724v-.971Z"/><path class="ab" d="m602.86,93.496c-.976,1.185-2.324,1.777-4.047,1.777-1.586,0-2.796-.456-3.63-1.367s-1.26-2.247-1.278-4.006v-9.693h3.951v9.567c0,1.543.702,2.313,2.105,2.313,1.34,0,2.261-.465,2.762-1.396v-10.484h3.965v14.793h-3.719l-.109-1.504Z"/><path class="ab" d="m614.399,76.57v3.637h2.529v2.898h-2.529v7.383c0,.547.104.938.314,1.176s.61.355,1.203.355c.438,0,.825-.032,1.162-.096v2.994c-.774.237-1.572.355-2.393.355-2.771,0-4.184-1.399-4.238-4.197v-7.971h-2.16v-2.898h2.16v-3.637h3.951Z"/><path class="ab" d="m627.142,90.912c0-.483-.239-.863-.718-1.142s-1.246-.526-2.304-.745c-3.519-.738-5.277-2.233-5.277-4.484,0-1.312.545-2.408,1.634-3.288s2.514-1.319,4.272-1.319c1.878,0,3.379.442,4.505,1.326s1.688,2.032,1.688,3.445h-3.951c0-.565-.183-1.032-.547-1.401s-.935-.554-1.709-.554c-.665,0-1.181.15-1.545.451s-.547.684-.547,1.148c0,.438.207.791.622,1.06s1.114.501,2.099.697,1.813.417,2.488.663c2.087.766,3.131,2.092,3.131,3.979,0,1.349-.579,2.44-1.736,3.274s-2.652,1.251-4.484,1.251c-1.239,0-2.34-.221-3.302-.663s-1.716-1.048-2.263-1.818-.82-1.602-.82-2.495h3.746c.036.702.296,1.239.779,1.613s1.13.561,1.941.561c.757,0,1.328-.144,1.716-.431s.581-.663.581-1.128Z"/><path class="ab" d="m633.499,76.379c0-.593.198-1.08.595-1.463s.937-.574,1.62-.574c.675,0,1.212.191,1.613.574s.602.87.602,1.463c0,.602-.203,1.094-.608,1.477s-.941.574-1.606.574-1.201-.191-1.606-.574-.608-.875-.608-1.477Zm4.197,18.621h-3.965v-14.793h3.965v14.793Z"/><path class="ab" d="m640.335,87.494c0-2.306.518-4.143,1.552-5.51s2.449-2.051,4.245-2.051c1.44,0,2.63.538,3.568,1.613v-7.547h3.965v21h-3.568l-.191-1.572c-.984,1.23-2.251,1.846-3.801,1.846-1.741,0-3.138-.686-4.19-2.058s-1.579-3.279-1.579-5.722Zm3.951.294c0,1.388.241,2.451.725,3.19.483.74,1.185,1.109,2.105,1.109,1.222,0,2.083-.516,2.584-1.547v-5.848c-.492-1.031-1.345-1.547-2.557-1.547-1.905,0-2.857,1.547-2.857,4.642Z"/><path class="ab" d="m663.536,95.273c-2.169,0-3.936-.665-5.298-1.996s-2.044-3.104-2.044-5.318v-.383c0-1.485.287-2.814.861-3.985s1.388-2.073,2.44-2.707,2.254-.95,3.603-.95c2.023,0,3.616.638,4.778,1.914s1.743,3.085,1.743,5.428v1.613h-9.42c.128.966.513,1.741,1.155,2.324s1.456.875,2.44.875c1.522,0,2.712-.552,3.568-1.654l1.941,2.174c-.593.839-1.395,1.492-2.406,1.962s-2.133.704-3.363.704Zm-.451-12.154c-.784,0-1.42.266-1.907.797s-.8,1.291-.937,2.279h5.496v-.316c-.019-.878-.255-1.559-.711-2.039s-1.103-.721-1.941-.721Z"/><path class="ab" d="m683.565,76.57v3.637h2.529v2.898h-2.529v7.383c0,.547.104.938.314,1.176s.61.355,1.203.355c.438,0,.825-.032,1.162-.096v2.994c-.774.237-1.572.355-2.393.355-2.771,0-4.184-1.399-4.238-4.197v-7.971h-2.16v-2.898h2.16v-3.637h3.951Z"/><path class="ab" d="m692.151,81.82c1.048-1.258,2.365-1.887,3.951-1.887,3.208,0,4.835,1.864,4.881,5.592v9.475h-3.951v-9.365c0-.848-.183-1.475-.547-1.88s-.971-.608-1.818-.608c-1.157,0-1.996.446-2.516,1.34v10.514h-3.951v-21h3.951v7.82Z"/><path class="ab" d="m710.772,95.273c-2.169,0-3.936-.665-5.298-1.996s-2.044-3.104-2.044-5.318v-.383c0-1.485.287-2.814.861-3.985s1.388-2.073,2.44-2.707,2.254-.95,3.603-.95c2.023,0,3.616.638,4.778,1.914s1.743,3.085,1.743,5.428v1.613h-9.42c.128.966.513,1.741,1.155,2.324s1.456.875,2.44.875c1.522,0,2.712-.552,3.568-1.654l1.941,2.174c-.593.839-1.395,1.492-2.406,1.962s-2.133.704-3.363.704Zm-.451-12.154c-.784,0-1.42.266-1.907.797s-.8,1.291-.937,2.279h5.496v-.316c-.019-.878-.255-1.559-.711-2.039s-1.103-.721-1.941-.721Z"/><path class="ab" d="m727.151,95v-11.895h-2.201v-2.898h2.201v-1.258c0-1.659.477-2.946,1.429-3.862s2.285-1.374,3.999-1.374c.547,0,1.217.091,2.01.273l-.041,3.062c-.328-.082-.729-.123-1.203-.123-1.485,0-2.229.697-2.229,2.092v1.189h2.939v2.898h-2.939v11.895h-3.965Z"/><path class="ab" d="m744.419,83.912c-.538-.073-1.012-.109-1.422-.109-1.495,0-2.475.506-2.939,1.518v9.68h-3.951v-14.793h3.732l.109,1.764c.793-1.358,1.892-2.037,3.295-2.037.438,0,.848.06,1.23.178l-.055,3.801Z"/><path class="ab" d="m746.292,76.379c0-.593.198-1.08.595-1.463s.937-.574,1.62-.574c.675,0,1.212.191,1.613.574s.602.87.602,1.463c0,.602-.203,1.094-.608,1.477s-.941.574-1.606.574-1.201-.191-1.606-.574-.608-.875-.608-1.477Zm4.197,18.621h-3.965v-14.793h3.965v14.793Z"/><path class="ab" d="m753.128,87.494c0-2.306.518-4.143,1.552-5.51s2.449-2.051,4.245-2.051c1.44,0,2.63.538,3.568,1.613v-7.547h3.965v21h-3.568l-.191-1.572c-.984,1.23-2.251,1.846-3.801,1.846-1.741,0-3.138-.686-4.19-2.058s-1.579-3.279-1.579-5.722Zm3.951.294c0,1.388.241,2.451.725,3.19.483.74,1.185,1.109,2.105,1.109,1.222,0,2.083-.516,2.584-1.547v-5.848c-.492-1.031-1.345-1.547-2.557-1.547-1.905,0-2.857,1.547-2.857,4.642Z"/><path class="ab" d="m768.946,87.494c0-2.27.54-4.097,1.62-5.482s2.536-2.078,4.368-2.078c1.622,0,2.885.556,3.787,1.668l.164-1.395h3.582v14.301c0,1.294-.294,2.42-.882,3.377s-1.415,1.687-2.481,2.188-2.315.752-3.746.752c-1.085,0-2.142-.217-3.172-.649s-1.81-.991-2.338-1.675l1.75-2.406c.984,1.103,2.179,1.654,3.582,1.654,1.048,0,1.864-.28,2.447-.841s.875-1.355.875-2.386v-.793c-.911,1.03-2.11,1.545-3.596,1.545-1.777,0-3.215-.695-4.313-2.085s-1.647-3.233-1.647-5.53v-.164Zm3.951.294c0,1.342.269,2.395.807,3.156.538.763,1.276,1.144,2.215,1.144,1.203,0,2.064-.452,2.584-1.355v-6.23c-.528-.903-1.381-1.355-2.557-1.355-.948,0-1.693.388-2.235,1.164-.542.775-.813,1.936-.813,3.478Z"/><path class="ab" d="m792.312,95.273c-2.169,0-3.936-.665-5.298-1.996s-2.044-3.104-2.044-5.318v-.383c0-1.485.287-2.814.861-3.985s1.388-2.073,2.44-2.707,2.254-.95,3.603-.95c2.023,0,3.616.638,4.778,1.914s1.743,3.085,1.743,5.428v1.613h-9.42c.128.966.513,1.741,1.155,2.324s1.456.875,2.44.875c1.522,0,2.712-.552,3.568-1.654l1.941,2.174c-.593.839-1.395,1.492-2.406,1.962s-2.133.704-3.363.704Zm-.451-12.154c-.784,0-1.42.266-1.907.797s-.8,1.291-.937,2.279h5.496v-.316c-.019-.878-.255-1.559-.711-2.039s-1.103-.721-1.941-.721Z"/><path class="ab" d="m314.824,95h-4.102v-19.906h4.102v19.906Z"/><path class="ab" d="m322.002,80.207l.123,1.709c1.057-1.321,2.475-1.982,4.252-1.982,1.567,0,2.734.46,3.5,1.381s1.157,2.297,1.176,4.129v9.557h-3.951v-9.461c0-.839-.183-1.447-.547-1.825-.365-.378-.971-.567-1.818-.567-1.112,0-1.946.474-2.502,1.422v10.432h-3.951v-14.793h3.719Z"/><path class="ab" d="m342.059,90.912c0-.483-.239-.863-.718-1.142s-1.247-.526-2.304-.745c-3.519-.738-5.277-2.233-5.277-4.484,0-1.312.544-2.408,1.634-3.288,1.089-.88,2.513-1.319,4.272-1.319,1.877,0,3.379.442,4.505,1.326,1.125.884,1.688,2.032,1.688,3.445h-3.951c0-.565-.183-1.032-.547-1.401-.365-.369-.935-.554-1.709-.554-.666,0-1.181.15-1.545.451-.365.301-.547.684-.547,1.148,0,.438.207.791.622,1.06.415.269,1.114.501,2.099.697s1.813.417,2.488.663c2.087.766,3.131,2.092,3.131,3.979,0,1.349-.579,2.44-1.736,3.274-1.158.834-2.652,1.251-4.484,1.251-1.24,0-2.34-.221-3.302-.663-.962-.442-1.716-1.048-2.263-1.818s-.82-1.602-.82-2.495h3.746c.036.702.296,1.239.779,1.613.483.374,1.13.561,1.941.561.756,0,1.328-.144,1.716-.431.387-.287.581-.663.581-1.128Z"/><path class="ab" d="m348.416,76.379c0-.593.198-1.08.595-1.463s.937-.574,1.62-.574c.674,0,1.212.191,1.613.574.401.383.602.87.602,1.463,0,.602-.203,1.094-.608,1.477-.406.383-.941.574-1.606.574s-1.201-.191-1.606-.574c-.406-.383-.608-.875-.608-1.477Zm4.197,18.621h-3.965v-14.793h3.965v14.793Z"/><path class="ab" d="m355.252,87.494c0-2.306.517-4.143,1.552-5.51,1.034-1.367,2.449-2.051,4.245-2.051,1.44,0,2.629.538,3.568,1.613v-7.547h3.965v21h-3.568l-.191-1.572c-.984,1.23-2.251,1.846-3.801,1.846-1.741,0-3.138-.686-4.19-2.058s-1.579-3.279-1.579-5.722Zm3.951.294c0,1.388.241,2.451.725,3.19.483.74,1.185,1.109,2.105,1.109,1.221,0,2.083-.516,2.584-1.547v-5.848c-.492-1.031-1.345-1.547-2.557-1.547-1.905,0-2.857,1.547-2.857,4.642Z"/><path class="ab" d="m378.453,95.273c-2.169,0-3.936-.665-5.298-1.996-1.363-1.331-2.044-3.104-2.044-5.318v-.383c0-1.485.287-2.814.861-3.985s1.388-2.073,2.44-2.707,2.253-.95,3.603-.95c2.023,0,3.616.638,4.778,1.914s1.743,3.085,1.743,5.428v1.613h-9.42c.127.966.513,1.741,1.155,2.324s1.456.875,2.44.875c1.522,0,2.711-.552,3.568-1.654l1.941,2.174c-.593.839-1.395,1.492-2.406,1.962s-2.133.704-3.363.704Zm-.451-12.154c-.784,0-1.42.266-1.907.797-.488.531-.8,1.291-.937,2.279h5.496v-.316c-.019-.878-.255-1.559-.711-2.039-.456-.48-1.103-.721-1.941-.721Z"/><path class="ab" d="m398.482,76.57v3.637h2.529v2.898h-2.529v7.383c0,.547.104.938.314,1.176.209.237.61.355,1.203.355.438,0,.825-.032,1.162-.096v2.994c-.775.237-1.572.355-2.393.355-2.771,0-4.184-1.399-4.238-4.197v-7.971h-2.16v-2.898h2.16v-3.637h3.951Z"/><path class="ab" d="m407.068,81.82c1.048-1.258,2.365-1.887,3.951-1.887,3.208,0,4.835,1.864,4.881,5.592v9.475h-3.951v-9.365c0-.848-.183-1.475-.547-1.88-.365-.405-.971-.608-1.818-.608-1.158,0-1.996.446-2.516,1.34v10.514h-3.951v-21h3.951v7.82Z"/><path class="ab" d="m425.689,95.273c-2.169,0-3.936-.665-5.298-1.996-1.363-1.331-2.044-3.104-2.044-5.318v-.383c0-1.485.287-2.814.861-3.985s1.388-2.073,2.44-2.707,2.253-.95,3.603-.95c2.023,0,3.616.638,4.778,1.914s1.743,3.085,1.743,5.428v1.613h-9.42c.127.966.513,1.741,1.155,2.324s1.456.875,2.44.875c1.522,0,2.711-.552,3.568-1.654l1.941,2.174c-.593.839-1.395,1.492-2.406,1.962s-2.133.704-3.363.704Zm-.451-12.154c-.784,0-1.42.266-1.907.797-.488.531-.8,1.291-.937,2.279h5.496v-.316c-.019-.878-.255-1.559-.711-2.039-.456-.48-1.103-.721-1.941-.721Z"/><path class="ab" d="m442.068,95v-11.895h-2.201v-2.898h2.201v-1.258c0-1.659.476-2.946,1.429-3.862.952-.916,2.285-1.374,3.999-1.374.547,0,1.217.091,2.01.273l-.041,3.062c-.328-.082-.729-.123-1.203-.123-1.486,0-2.229.697-2.229,2.092v1.189h2.939v2.898h-2.939v11.895h-3.965Z"/><path class="ab" d="m459.336,83.912c-.538-.073-1.012-.109-1.422-.109-1.495,0-2.475.506-2.939,1.518v9.68h-3.951v-14.793h3.732l.109,1.764c.793-1.358,1.891-2.037,3.295-2.037.438,0,.848.06,1.23.178l-.055,3.801Z"/><path class="ab" d="m461.209,76.379c0-.593.198-1.08.595-1.463s.937-.574,1.62-.574c.674,0,1.212.191,1.613.574.401.383.602.87.602,1.463,0,.602-.203,1.094-.608,1.477-.406.383-.941.574-1.606.574s-1.201-.191-1.606-.574c-.406-.383-.608-.875-.608-1.477Zm4.197,18.621h-3.965v-14.793h3.965v14.793Z"/><path class="ab" d="m468.045,87.494c0-2.306.517-4.143,1.552-5.51,1.034-1.367,2.449-2.051,4.245-2.051,1.44,0,2.629.538,3.568,1.613v-7.547h3.965v21h-3.568l-.191-1.572c-.984,1.23-2.251,1.846-3.801,1.846-1.741,0-3.138-.686-4.19-2.058s-1.579-3.279-1.579-5.722Zm3.951.294c0,1.388.241,2.451.725,3.19.483.74,1.185,1.109,2.105,1.109,1.221,0,2.083-.516,2.584-1.547v-5.848c-.492-1.031-1.345-1.547-2.557-1.547-1.905,0-2.857,1.547-2.857,4.642Z"/><path class="ab" d="m483.863,87.494c0-2.27.54-4.097,1.62-5.482s2.536-2.078,4.368-2.078c1.622,0,2.885.556,3.787,1.668l.164-1.395h3.582v14.301c0,1.294-.294,2.42-.882,3.377s-1.415,1.687-2.481,2.188-2.315.752-3.746.752c-1.085,0-2.142-.217-3.172-.649-1.03-.433-1.81-.991-2.338-1.675l1.75-2.406c.984,1.103,2.178,1.654,3.582,1.654,1.048,0,1.864-.28,2.447-.841.583-.561.875-1.355.875-2.386v-.793c-.912,1.03-2.11,1.545-3.596,1.545-1.777,0-3.215-.695-4.313-2.085-1.099-1.39-1.647-3.233-1.647-5.53v-.164Zm3.951.294c0,1.342.269,2.395.807,3.156.538.763,1.276,1.144,2.215,1.144,1.203,0,2.064-.452,2.584-1.355v-6.23c-.529-.903-1.381-1.355-2.557-1.355-.948,0-1.693.388-2.235,1.164-.542.775-.813,1.936-.813,3.478Z"/><path class="ab" d="m507.229,95.273c-2.169,0-3.936-.665-5.298-1.996-1.363-1.331-2.044-3.104-2.044-5.318v-.383c0-1.485.287-2.814.861-3.985s1.388-2.073,2.44-2.707,2.253-.95,3.603-.95c2.023,0,3.616.638,4.778,1.914s1.743,3.085,1.743,5.428v1.613h-9.42c.127.966.513,1.741,1.155,2.324s1.456.875,2.44.875c1.522,0,2.711-.552,3.568-1.654l1.941,2.174c-.593.839-1.395,1.492-2.406,1.962s-2.133.704-3.363.704Zm-.451-12.154c-.784,0-1.42.266-1.907.797-.488.531-.8,1.291-.937,2.279h5.496v-.316c-.019-.878-.255-1.559-.711-2.039-.456-.48-1.103-.721-1.941-.721Z"/><path class="ab" d="m937.315,216h-2.262v-7.887h-8.602v7.887h-2.25v-17.062h2.25v7.336h8.602v-7.336h2.262v17.062Z"/><path class="ab" d="m940.983,199.957c0-.352.107-.648.322-.891s.533-.363.955-.363.742.121.961.363.328.539.328.891-.109.645-.328.879-.539.352-.961.352-.74-.117-.955-.352-.322-.527-.322-.879Zm2.344,16.043h-2.168v-12.68h2.168v12.68Z"/><path class="ab" d="m946.28,209.555c0-1.977.457-3.549,1.371-4.717s2.125-1.752,3.633-1.752c1.547,0,2.754.547,3.621,1.641l.105-1.406h1.98v12.375c0,1.641-.486,2.934-1.459,3.879s-2.279,1.418-3.92,1.418c-.914,0-1.809-.195-2.684-.586s-1.543-.926-2.004-1.605l1.125-1.301c.93,1.148,2.066,1.723,3.41,1.723,1.055,0,1.877-.297,2.467-.891s.885-1.43.885-2.508v-1.09c-.867,1-2.051,1.5-3.551,1.5-1.484,0-2.686-.598-3.604-1.793s-1.377-2.824-1.377-4.887Zm2.18.246c0,1.43.293,2.553.879,3.369s1.406,1.225,2.461,1.225c1.367,0,2.371-.621,3.012-1.863v-5.789c-.664-1.211-1.66-1.816-2.988-1.816-1.055,0-1.879.41-2.473,1.23s-.891,2.035-.891,3.645Z"/><path class="ab" d="m962.429,204.856c.961-1.18,2.211-1.77,3.75-1.77,2.68,0,4.031,1.512,4.055,4.535v8.379h-2.168v-8.391c-.008-.914-.217-1.59-.627-2.027s-1.049-.656-1.916-.656c-.703,0-1.32.188-1.852.562s-.945.867-1.242,1.477v9.035h-2.168v-18h2.168v6.855Z"/><path class="ab" d="m977.991,209.637h-5.719v-1.77h5.719v1.77Z"/><path class="ab" d="m990.812,209.801c0,1.93-.441,3.484-1.324,4.664s-2.078,1.77-3.586,1.77c-1.539,0-2.75-.488-3.633-1.465v6.105h-2.168v-17.555h1.98l.105,1.406c.883-1.094,2.109-1.641,3.68-1.641,1.523,0,2.729.574,3.615,1.723s1.33,2.746,1.33,4.793v.199Zm-2.168-.246c0-1.43-.305-2.559-.914-3.387s-1.445-1.242-2.508-1.242c-1.312,0-2.297.582-2.953,1.746v6.059c.648,1.156,1.641,1.734,2.977,1.734,1.039,0,1.865-.412,2.479-1.236s.92-2.049.92-3.674Z"/><path class="ab" d="m999.694,205.266c-.328-.055-.684-.082-1.066-.082-1.422,0-2.387.605-2.895,1.816v9h-2.168v-12.68h2.109l.035,1.465c.711-1.133,1.719-1.699,3.023-1.699.422,0,.742.055.961.164v2.016Z"/><path class="ab" d="m1006.726,216.234c-1.719,0-3.117-.564-4.195-1.693s-1.617-2.639-1.617-4.529v-.398c0-1.258.24-2.381.721-3.369s1.152-1.762,2.016-2.32,1.799-.838,2.807-.838c1.648,0,2.93.543,3.844,1.629s1.371,2.641,1.371,4.664v.902h-8.59c.031,1.25.396,2.26,1.096,3.029s1.588,1.154,2.666,1.154c.766,0,1.414-.156,1.945-.469s.996-.727,1.395-1.242l1.324,1.031c-1.062,1.633-2.656,2.449-4.781,2.449Zm-.27-11.367c-.875,0-1.609.318-2.203.955s-.961,1.529-1.102,2.678h6.352v-.164c-.062-1.102-.359-1.955-.891-2.561s-1.25-.908-2.156-.908Z"/><path class="ab" d="m1021.562,212.637c0-.586-.221-1.041-.662-1.365s-1.211-.604-2.309-.838-1.969-.516-2.613-.844-1.121-.719-1.43-1.172-.463-.992-.463-1.617c0-1.039.439-1.918,1.318-2.637s2.002-1.078,3.369-1.078c1.438,0,2.604.371,3.498,1.113s1.342,1.691,1.342,2.848h-2.18c0-.594-.252-1.105-.756-1.535s-1.139-.645-1.904-.645c-.789,0-1.406.172-1.852.516s-.668.793-.668,1.348c0,.523.207.918.621,1.184s1.162.52,2.244.762,1.959.531,2.631.867,1.17.74,1.494,1.213.486,1.049.486,1.729c0,1.133-.453,2.041-1.359,2.725s-2.082,1.025-3.527,1.025c-1.016,0-1.914-.18-2.695-.539s-1.393-.861-1.834-1.506-.662-1.342-.662-2.092h2.168c.039.727.33,1.303.873,1.729s1.26.639,2.15.639c.82,0,1.479-.166,1.975-.498s.744-.775.744-1.33Z"/><path class="ab" d="m1033.937,212.637c0-.586-.221-1.041-.662-1.365s-1.211-.604-2.309-.838-1.969-.516-2.613-.844-1.121-.719-1.43-1.172-.463-.992-.463-1.617c0-1.039.439-1.918,1.318-2.637s2.002-1.078,3.369-1.078c1.438,0,2.604.371,3.498,1.113s1.342,1.691,1.342,2.848h-2.18c0-.594-.252-1.105-.756-1.535s-1.139-.645-1.904-.645c-.789,0-1.406.172-1.852.516s-.668.793-.668,1.348c0,.523.207.918.621,1.184s1.162.52,2.244.762,1.959.531,2.631.867,1.17.74,1.494,1.213.486,1.049.486,1.729c0,1.133-.453,2.041-1.359,2.725s-2.082,1.025-3.527,1.025c-1.016,0-1.914-.18-2.695-.539s-1.393-.861-1.834-1.506-.662-1.342-.662-2.092h2.168c.039.727.33,1.303.873,1.729s1.26.639,2.15.639c.82,0,1.479-.166,1.975-.498s.744-.775.744-1.33Z"/><path class="ab" d="m1046.757,214.746c-.844.992-2.082,1.488-3.715,1.488-1.352,0-2.381-.393-3.088-1.178s-1.064-1.947-1.072-3.486v-8.25h2.168v8.191c0,1.922.781,2.883,2.344,2.883,1.656,0,2.758-.617,3.305-1.852v-9.223h2.168v12.68h-2.062l-.047-1.254Z"/><path class="ab" d="m1058.288,205.266c-.328-.055-.684-.082-1.066-.082-1.422,0-2.387.605-2.895,1.816v9h-2.168v-12.68h2.109l.035,1.465c.711-1.133,1.719-1.699,3.023-1.699.422,0,.742.055.961.164v2.016Z"/><path class="ab" d="m1065.319,216.234c-1.719,0-3.117-.564-4.195-1.693s-1.617-2.639-1.617-4.529v-.398c0-1.258.24-2.381.721-3.369s1.152-1.762,2.016-2.32,1.799-.838,2.807-.838c1.648,0,2.93.543,3.844,1.629s1.371,2.641,1.371,4.664v.902h-8.59c.031,1.25.396,2.26,1.096,3.029s1.588,1.154,2.666,1.154c.766,0,1.414-.156,1.945-.469s.996-.727,1.395-1.242l1.324,1.031c-1.062,1.633-2.656,2.449-4.781,2.449Zm-.27-11.367c-.875,0-1.609.318-2.203.955s-.961,1.529-1.102,2.678h6.352v-.164c-.062-1.102-.359-1.955-.891-2.561s-1.25-.908-2.156-.908Z"/><path class="ab" d="m1078.198,209.555c0-1.977.457-3.549,1.371-4.717s2.125-1.752,3.633-1.752c1.547,0,2.754.547,3.621,1.641l.105-1.406h1.98v12.375c0,1.641-.486,2.934-1.459,3.879s-2.279,1.418-3.92,1.418c-.914,0-1.809-.195-2.684-.586s-1.543-.926-2.004-1.605l1.125-1.301c.93,1.148,2.066,1.723,3.41,1.723,1.055,0,1.877-.297,2.467-.891s.885-1.43.885-2.508v-1.09c-.867,1-2.051,1.5-3.551,1.5-1.484,0-2.686-.598-3.604-1.793s-1.377-2.824-1.377-4.887Zm2.18.246c0,1.43.293,2.553.879,3.369s1.406,1.225,2.461,1.225c1.367,0,2.371-.621,3.012-1.863v-5.789c-.664-1.211-1.66-1.816-2.988-1.816-1.055,0-1.879.41-2.473,1.23s-.891,2.035-.891,3.645Z"/><path class="ab" d="m1100.007,216c-.125-.25-.227-.695-.305-1.336-1.008,1.047-2.211,1.57-3.609,1.57-1.25,0-2.275-.354-3.076-1.061s-1.201-1.604-1.201-2.689c0-1.32.502-2.346,1.506-3.076s2.416-1.096,4.236-1.096h2.109v-.996c0-.758-.227-1.361-.68-1.811s-1.121-.674-2.004-.674c-.773,0-1.422.195-1.945.586s-.785.863-.785,1.418h-2.18c0-.633.225-1.244.674-1.834s1.059-1.057,1.828-1.4,1.615-.516,2.537-.516c1.461,0,2.605.365,3.434,1.096s1.258,1.736,1.289,3.018v5.836c0,1.164.148,2.09.445,2.777v.188h-2.273Zm-3.598-1.652c.68,0,1.324-.176,1.934-.527s1.051-.809,1.324-1.371v-2.602h-1.699c-2.656,0-3.984.777-3.984,2.332,0,.68.227,1.211.68,1.594s1.035.574,1.746.574Z"/><path class="ab" d="m1112.616,212.637c0-.586-.221-1.041-.662-1.365s-1.211-.604-2.309-.838-1.969-.516-2.613-.844-1.121-.719-1.43-1.172-.463-.992-.463-1.617c0-1.039.439-1.918,1.318-2.637s2.002-1.078,3.369-1.078c1.438,0,2.604.371,3.498,1.113s1.342,1.691,1.342,2.848h-2.18c0-.594-.252-1.105-.756-1.535s-1.139-.645-1.904-.645c-.789,0-1.406.172-1.852.516s-.668.793-.668,1.348c0,.523.207.918.621,1.184s1.162.52,2.244.762,1.959.531,2.631.867,1.17.74,1.494,1.213.486,1.049.486,1.729c0,1.133-.453,2.041-1.359,2.725s-2.082,1.025-3.527,1.025c-1.016,0-1.914-.18-2.695-.539s-1.393-.861-1.834-1.506-.662-1.342-.662-2.092h2.168c.039.727.33,1.303.873,1.729s1.26.639,2.15.639c.82,0,1.479-.166,1.975-.498s.744-.775.744-1.33Z"/><path class="ab" d="m948.431,244.8v-11.004h-2.004v-1.676h2.004v-1.301c0-1.359.363-2.41,1.09-3.152s1.754-1.113,3.082-1.113c.5,0,.996.066,1.488.198l-.117,1.747c-.367-.07-.758-.105-1.172-.105-.703,0-1.246.206-1.629.617s-.574,1.001-.574,1.77v1.34h2.707v1.676h-2.707v11.004h-2.168Z"/><path class="ab" d="m958.052,244.8h-2.168v-18h2.168v18Z"/><path class="ab" d="m960.946,238.343c0-1.242.244-2.359.732-3.352s1.168-1.758,2.039-2.297,1.865-.809,2.982-.809c1.727,0,3.123.598,4.189,1.793s1.6,2.785,1.6,4.77v.152c0,1.234-.236,2.342-.709,3.322s-1.148,1.744-2.027,2.291-1.889.82-3.029.82c-1.719,0-3.111-.598-4.178-1.793s-1.6-2.777-1.6-4.746v-.152Zm2.18.258c0,1.406.326,2.535.979,3.387s1.525,1.277,2.619,1.277c1.102,0,1.977-.432,2.625-1.295s.973-2.072.973-3.627c0-1.391-.33-2.518-.99-3.381s-1.537-1.295-2.631-1.295c-1.07,0-1.934.426-2.59,1.277s-.984,2.07-.984,3.656Z"/><path class="ab" d="m986.435,241.812l2.438-9.691h2.168l-3.691,12.68h-1.758l-3.082-9.609-3,9.609h-1.758l-3.68-12.68h2.156l2.496,9.492,2.953-9.492h1.746l3.012,9.691Z"/><path class="ab" d="m1000.626,241.437c0-.586-.221-1.041-.662-1.365s-1.211-.604-2.309-.838-1.969-.516-2.613-.844-1.121-.719-1.43-1.172-.463-.992-.463-1.617c0-1.039.439-1.918,1.318-2.637s2.002-1.078,3.369-1.078c1.438,0,2.604.371,3.498,1.113s1.342,1.691,1.342,2.848h-2.18c0-.594-.252-1.105-.756-1.535s-1.139-.645-1.904-.645c-.789,0-1.406.172-1.852.516s-.668.793-.668,1.348c0,.523.207.918.621,1.184s1.162.52,2.244.762,1.959.531,2.631.867,1.17.74,1.494,1.213.486,1.049.486,1.729c0,1.133-.453,2.041-1.359,2.725s-2.082,1.025-3.527,1.025c-1.016,0-1.914-.18-2.695-.539s-1.393-.861-1.834-1.506-.662-1.342-.662-2.092h2.168c.039.727.33,1.303.873,1.729s1.26.639,2.15.639c.82,0,1.479-.166,1.975-.498s.744-.775.744-1.33Z"/><path class="ab" d="m1014.501,229.05v3.07h2.367v1.676h-2.367v7.873c0,.509.105.89.316,1.145.211.254.57.381,1.078.381.25,0,.594-.047,1.031-.141v1.748c-.57.154-1.125.232-1.664.232-.969,0-1.699-.293-2.191-.879s-.738-1.418-.738-2.496v-7.863h-2.309v-1.676h2.309v-3.07h2.168Z"/><path class="ab" d="m1021.567,233.655c.961-1.18,2.211-1.77,3.75-1.77,2.68,0,4.031,1.512,4.055,4.535v8.379h-2.168v-8.391c-.008-.914-.217-1.59-.627-2.027s-1.049-.656-1.916-.656c-.703,0-1.32.188-1.852.562s-.945.867-1.242,1.477v9.035h-2.168v-18h2.168v6.855Z"/><path class="ab" d="m1038.747,234.065c-.328-.055-.684-.082-1.066-.082-1.422,0-2.387.605-2.895,1.816v9h-2.168v-12.68h2.109l.035,1.465c.711-1.133,1.719-1.699,3.023-1.699.422,0,.742.055.961.164v2.016Z"/><path class="ab" d="m1039.931,238.343c0-1.242.244-2.359.732-3.352s1.168-1.758,2.039-2.297,1.865-.809,2.982-.809c1.727,0,3.123.598,4.189,1.793s1.6,2.785,1.6,4.77v.152c0,1.234-.236,2.342-.709,3.322s-1.148,1.744-2.027,2.291-1.889.82-3.029.82c-1.719,0-3.111-.598-4.178-1.793s-1.6-2.777-1.6-4.746v-.152Zm2.18.258c0,1.406.326,2.535.979,3.387s1.525,1.277,2.619,1.277c1.102,0,1.977-.432,2.625-1.295s.973-2.072.973-3.627c0-1.391-.33-2.518-.99-3.381s-1.537-1.295-2.631-1.295c-1.07,0-1.934.426-2.59,1.277s-.984,2.07-.984,3.656Z"/><path class="ab" d="m1062.021,243.546c-.844.992-2.082,1.488-3.715,1.488-1.352,0-2.381-.393-3.088-1.178s-1.064-1.947-1.072-3.486v-8.25h2.168v8.191c0,1.922.781,2.883,2.344,2.883,1.656,0,2.758-.617,3.305-1.852v-9.223h2.168v12.68h-2.062l-.047-1.254Z"/><path class="ab" d="m1066.907,238.355c0-1.977.457-3.549,1.371-4.717s2.125-1.752,3.633-1.752c1.547,0,2.754.547,3.621,1.641l.105-1.406h1.98v12.375c0,1.641-.486,2.934-1.459,3.879s-2.279,1.418-3.92,1.418c-.914,0-1.809-.195-2.684-.586s-1.543-.926-2.004-1.605l1.125-1.301c.93,1.148,2.066,1.723,3.41,1.723,1.055,0,1.877-.297,2.467-.891s.885-1.43.885-2.508v-1.09c-.867,1-2.051,1.5-3.551,1.5-1.484,0-2.686-.598-3.604-1.793s-1.377-2.824-1.377-4.887Zm2.18.246c0,1.43.293,2.553.879,3.369s1.406,1.225,2.461,1.225c1.367,0,2.371-.621,3.012-1.863v-5.789c-.664-1.211-1.66-1.816-2.988-1.816-1.055,0-1.879.41-2.473,1.23s-.891,2.035-.891,3.645Z"/><path class="ab" d="m1083.056,233.655c.961-1.18,2.211-1.77,3.75-1.77,2.68,0,4.031,1.512,4.055,4.535v8.379h-2.168v-8.391c-.008-.914-.217-1.59-.627-2.027s-1.049-.656-1.916-.656c-.703,0-1.32.188-1.852.562s-.945.867-1.242,1.477v9.035h-2.168v-18h2.168v6.855Z"/><path class="ab" d="m945.448,272.065c.773,0,1.449-.234,2.027-.703s.898-1.055.961-1.758h2.051c-.039.727-.289,1.418-.75,2.074s-1.076,1.18-1.846,1.57-1.584.586-2.443.586c-1.727,0-3.1-.576-4.119-1.729s-1.529-2.729-1.529-4.729v-.363c0-1.234.227-2.332.68-3.293s1.104-1.707,1.951-2.238,1.85-.797,3.006-.797c1.422,0,2.604.426,3.545,1.277s1.443,1.957,1.506,3.316h-2.051c-.062-.82-.373-1.494-.932-2.021s-1.248-.791-2.068-.791c-1.102,0-1.955.396-2.561,1.189s-.908,1.939-.908,3.439v.41c0,1.461.301,2.586.902,3.375s1.461,1.184,2.578,1.184Z"/><path class="ab" d="m952.351,267.143c0-1.242.244-2.359.732-3.352s1.168-1.758,2.039-2.297,1.865-.809,2.982-.809c1.727,0,3.123.598,4.189,1.793s1.6,2.785,1.6,4.77v.152c0,1.234-.236,2.342-.709,3.322s-1.148,1.744-2.027,2.291-1.889.82-3.029.82c-1.719,0-3.111-.598-4.178-1.793s-1.6-2.777-1.6-4.746v-.152Zm2.18.258c0,1.406.326,2.535.979,3.387s1.525,1.277,2.619,1.277c1.102,0,1.977-.432,2.625-1.295s.973-2.072.973-3.627c0-1.391-.33-2.518-.99-3.381s-1.537-1.295-2.631-1.295c-1.07,0-1.934.426-2.59,1.277s-.984,2.07-.984,3.656Z"/><path class="ab" d="m966.624,257.557c0-.352.107-.648.322-.891s.533-.363.955-.363.742.121.961.363.328.539.328.891-.109.645-.328.879-.539.352-.961.352-.74-.117-.955-.352-.322-.527-.322-.879Zm2.344,16.043h-2.168v-12.68h2.168v12.68Z"/><path class="ab" d="m974.792,273.6h-2.168v-18h2.168v18Z"/><path class="ab" d="m985.644,270.236c0-.586-.221-1.041-.662-1.365s-1.211-.604-2.309-.838-1.969-.516-2.613-.844-1.121-.719-1.43-1.172-.463-.992-.463-1.617c0-1.039.439-1.918,1.318-2.637s2.002-1.078,3.369-1.078c1.438,0,2.604.371,3.498,1.113s1.342,1.691,1.342,2.848h-2.18c0-.594-.252-1.105-.756-1.535s-1.139-.645-1.904-.645c-.789,0-1.406.172-1.852.516s-.668.793-.668,1.348c0,.523.207.918.621,1.184s1.162.52,2.244.762,1.959.531,2.631.867,1.17.74,1.494,1.213.486,1.049.486,1.729c0,1.133-.453,2.041-1.359,2.725s-2.082,1.025-3.527,1.025c-1.016,0-1.914-.18-2.695-.539s-1.393-.861-1.834-1.506-.662-1.342-.662-2.092h2.168c.039.727.33,1.303.873,1.729s1.26.639,2.15.639c.82,0,1.479-.166,1.975-.498s.744-.775.744-1.33Z"/><path class="ab" d="m999.519,257.85v3.07h2.367v1.676h-2.367v7.873c0,.509.105.89.316,1.145.211.254.57.381,1.078.381.25,0,.594-.047,1.031-.141v1.748c-.57.154-1.125.232-1.664.232-.969,0-1.699-.293-2.191-.879s-.738-1.418-.738-2.496v-7.863h-2.309v-1.676h2.309v-3.07h2.168Z"/><path class="ab" d="m1003.608,267.143c0-1.242.244-2.359.732-3.352s1.168-1.758,2.039-2.297,1.865-.809,2.982-.809c1.727,0,3.123.598,4.189,1.793s1.6,2.785,1.6,4.77v.152c0,1.234-.236,2.342-.709,3.322s-1.148,1.744-2.027,2.291-1.889.82-3.029.82c-1.719,0-3.111-.598-4.178-1.793s-1.6-2.777-1.6-4.746v-.152Zm2.18.258c0,1.406.326,2.535.979,3.387s1.525,1.277,2.619,1.277c1.102,0,1.977-.432,2.625-1.295s.973-2.072.973-3.627c0-1.391-.33-2.518-.99-3.381s-1.537-1.295-2.631-1.295c-1.07,0-1.934.426-2.59,1.277s-.984,2.07-.984,3.656Z"/><path class="ab" d="m1029.94,262.865c-.328-.055-.684-.082-1.066-.082-1.422,0-2.387.605-2.895,1.816v9h-2.168v-12.68h2.109l.035,1.465c.711-1.133,1.719-1.699,3.023-1.699.422,0,.742.055.961.164v2.016Z"/><path class="ab" d="m1036.972,273.834c-1.719,0-3.117-.564-4.195-1.693s-1.617-2.639-1.617-4.529v-.398c0-1.258.24-2.381.721-3.369s1.152-1.762,2.016-2.32,1.799-.838,2.807-.838c1.648,0,2.93.543,3.844,1.629s1.371,2.641,1.371,4.664v.902h-8.59c.031,1.25.396,2.26,1.096,3.029s1.588,1.154,2.666,1.154c.766,0,1.414-.156,1.945-.469s.996-.727,1.395-1.242l1.324,1.031c-1.062,1.633-2.656,2.449-4.781,2.449Zm-.27-11.367c-.875,0-1.609.318-2.203.955s-.961,1.529-1.102,2.678h6.352v-.164c-.062-1.102-.359-1.955-.891-2.561s-1.25-.908-2.156-.908Z"/><path class="ab" d="m1046.78,273.6h-2.168v-18h2.168v18Z"/><path class="ab" d="m1055.511,273.834c-1.719,0-3.117-.564-4.195-1.693s-1.617-2.639-1.617-4.529v-.398c0-1.258.24-2.381.721-3.369s1.152-1.762,2.016-2.32,1.799-.838,2.807-.838c1.648,0,2.93.543,3.844,1.629s1.371,2.641,1.371,4.664v.902h-8.59c.031,1.25.396,2.26,1.096,3.029s1.588,1.154,2.666,1.154c.766,0,1.414-.156,1.945-.469s.996-.727,1.395-1.242l1.324,1.031c-1.062,1.633-2.656,2.449-4.781,2.449Zm-.27-11.367c-.875,0-1.609.318-2.203.955s-.961,1.529-1.102,2.678h6.352v-.164c-.062-1.102-.359-1.955-.891-2.561s-1.25-.908-2.156-.908Z"/><path class="ab" d="m1070.792,273.6c-.125-.25-.227-.695-.305-1.336-1.008,1.047-2.211,1.57-3.609,1.57-1.25,0-2.275-.354-3.076-1.061s-1.201-1.604-1.201-2.689c0-1.32.502-2.346,1.506-3.076s2.416-1.096,4.236-1.096h2.109v-.996c0-.758-.227-1.361-.68-1.811s-1.121-.674-2.004-.674c-.773,0-1.422.195-1.945.586s-.785.863-.785,1.418h-2.18c0-.633.225-1.244.674-1.834s1.059-1.057,1.828-1.4,1.615-.516,2.537-.516c1.461,0,2.605.365,3.434,1.096s1.258,1.736,1.289,3.018v5.836c0,1.164.148,2.09.445,2.777v.188h-2.273Zm-3.598-1.652c.68,0,1.324-.176,1.934-.527s1.051-.809,1.324-1.371v-2.602h-1.699c-2.656,0-3.984.777-3.984,2.332,0,.68.227,1.211.68,1.594s1.035.574,1.746.574Z"/><path class="ab" d="m1083.401,270.236c0-.586-.221-1.041-.662-1.365s-1.211-.604-2.309-.838-1.969-.516-2.613-.844-1.121-.719-1.43-1.172-.463-.992-.463-1.617c0-1.039.439-1.918,1.318-2.637s2.002-1.078,3.369-1.078c1.438,0,2.604.371,3.498,1.113s1.342,1.691,1.342,2.848h-2.18c0-.594-.252-1.105-.756-1.535s-1.139-.645-1.904-.645c-.789,0-1.406.172-1.852.516s-.668.793-.668,1.348c0,.523.207.918.621,1.184s1.162.52,2.244.762,1.959.531,2.631.867,1.17.74,1.494,1.213.486,1.049.486,1.729c0,1.133-.453,2.041-1.359,2.725s-2.082,1.025-3.527,1.025c-1.016,0-1.914-.18-2.695-.539s-1.393-.861-1.834-1.506-.662-1.342-.662-2.092h2.168c.039.727.33,1.303.873,1.729s1.26.639,2.15.639c.82,0,1.479-.166,1.975-.498s.744-.775.744-1.33Z"/><path class="ab" d="m1093.655,273.834c-1.719,0-3.117-.564-4.195-1.693s-1.617-2.639-1.617-4.529v-.398c0-1.258.24-2.381.721-3.369s1.152-1.762,2.016-2.32,1.799-.838,2.807-.838c1.648,0,2.93.543,3.844,1.629s1.371,2.641,1.371,4.664v.902h-8.59c.031,1.25.396,2.26,1.096,3.029s1.588,1.154,2.666,1.154c.766,0,1.414-.156,1.945-.469s.996-.727,1.395-1.242l1.324,1.031c-1.062,1.633-2.656,2.449-4.781,2.449Zm-.27-11.367c-.875,0-1.609.318-2.203.955s-.961,1.529-1.102,2.678h6.352v-.164c-.062-1.102-.359-1.955-.891-2.561s-1.25-.908-2.156-.908Z"/><path class="ab" d="m937.937,291.256c.961-1.18,2.211-1.77,3.75-1.77,2.68,0,4.031,1.512,4.055,4.535v8.379h-2.168v-8.391c-.008-.914-.217-1.59-.627-2.027s-1.049-.656-1.916-.656c-.703,0-1.32.188-1.852.562s-.945.867-1.242,1.477v9.035h-2.168v-18h2.168v6.855Z"/><path class="ab" d="m954.249,302.635c-1.719,0-3.117-.564-4.195-1.693s-1.617-2.639-1.617-4.529v-.398c0-1.258.24-2.381.721-3.369s1.152-1.762,2.016-2.32,1.799-.838,2.807-.838c1.648,0,2.93.543,3.844,1.629s1.371,2.641,1.371,4.664v.902h-8.59c.031,1.25.396,2.26,1.096,3.029s1.588,1.154,2.666,1.154c.766,0,1.414-.156,1.945-.469s.996-.727,1.395-1.242l1.324,1.031c-1.062,1.633-2.656,2.449-4.781,2.449Zm-.27-11.367c-.875,0-1.609.318-2.203.955s-.961,1.529-1.102,2.678h6.352v-.164c-.062-1.102-.359-1.955-.891-2.561s-1.25-.908-2.156-.908Z"/><path class="ab" d="m969.53,302.4c-.125-.25-.227-.695-.305-1.336-1.008,1.047-2.211,1.57-3.609,1.57-1.25,0-2.275-.354-3.076-1.061s-1.201-1.604-1.201-2.689c0-1.32.502-2.346,1.506-3.076s2.416-1.096,4.236-1.096h2.109v-.996c0-.758-.227-1.361-.68-1.811s-1.121-.674-2.004-.674c-.773,0-1.422.195-1.945.586s-.785.863-.785,1.418h-2.18c0-.633.225-1.244.674-1.834s1.059-1.057,1.828-1.4,1.615-.516,2.537-.516c1.461,0,2.605.365,3.434,1.096s1.258,1.736,1.289,3.018v5.836c0,1.164.148,2.09.445,2.777v.188h-2.273Zm-3.598-1.652c.68,0,1.324-.176,1.934-.527s1.051-.809,1.324-1.371v-2.602h-1.699c-2.656,0-3.984.777-3.984,2.332,0,.68.227,1.211.68,1.594s1.035.574,1.746.574Z"/><path class="ab" d="m977.698,286.65v3.07h2.367v1.676h-2.367v7.873c0,.509.105.89.316,1.145.211.254.57.381,1.078.381.25,0,.594-.047,1.031-.141v1.748c-.57.154-1.125.232-1.664.232-.969,0-1.699-.293-2.191-.879s-.738-1.418-.738-2.496v-7.863h-2.309v-1.676h2.309v-3.07h2.168Z"/><path class="ab" d="m993.8,302.635c-1.719,0-3.117-.564-4.195-1.693s-1.617-2.639-1.617-4.529v-.398c0-1.258.24-2.381.721-3.369s1.152-1.762,2.016-2.32,1.799-.838,2.807-.838c1.648,0,2.93.543,3.844,1.629s1.371,2.641,1.371,4.664v.902h-8.59c.031,1.25.396,2.26,1.096,3.029s1.588,1.154,2.666,1.154c.766,0,1.414-.156,1.945-.469s.996-.727,1.395-1.242l1.324,1.031c-1.062,1.633-2.656,2.449-4.781,2.449Zm-.27-11.367c-.875,0-1.609.318-2.203.955s-.961,1.529-1.102,2.678h6.352v-.164c-.062-1.102-.359-1.955-.891-2.561s-1.25-.908-2.156-.908Z"/><path class="ab" d="m1003.304,289.721l.07,1.594c.969-1.219,2.234-1.828,3.797-1.828,2.68,0,4.031,1.512,4.055,4.535v8.379h-2.168v-8.391c-.008-.914-.217-1.59-.627-2.027s-1.049-.656-1.916-.656c-.703,0-1.32.188-1.852.562s-.945.867-1.242,1.477v9.035h-2.168v-12.68h2.051Z"/><path class="ab" d="m1019.757,302.635c-1.719,0-3.117-.564-4.195-1.693s-1.617-2.639-1.617-4.529v-.398c0-1.258.24-2.381.721-3.369s1.152-1.762,2.016-2.32,1.799-.838,2.807-.838c1.648,0,2.93.543,3.844,1.629s1.371,2.641,1.371,4.664v.902h-8.59c.031,1.25.396,2.26,1.096,3.029s1.588,1.154,2.666,1.154c.766,0,1.414-.156,1.945-.469s.996-.727,1.395-1.242l1.324,1.031c-1.062,1.633-2.656,2.449-4.781,2.449Zm-.27-11.367c-.875,0-1.609.318-2.203.955s-.961,1.529-1.102,2.678h6.352v-.164c-.062-1.102-.359-1.955-.891-2.561s-1.25-.908-2.156-.908Z"/><path class="ab" d="m1033.339,291.666c-.328-.055-.684-.082-1.066-.082-1.422,0-2.387.605-2.895,1.816v9h-2.168v-12.68h2.109l.035,1.465c.711-1.133,1.719-1.699,3.023-1.699.422,0,.742.055.961.164v2.016Z"/><path class="ab" d="m1034.593,295.955c0-1.977.457-3.549,1.371-4.717s2.125-1.752,3.633-1.752c1.547,0,2.754.547,3.621,1.641l.105-1.406h1.98v12.375c0,1.641-.486,2.934-1.459,3.879s-2.279,1.418-3.92,1.418c-.914,0-1.809-.195-2.684-.586s-1.543-.926-2.004-1.605l1.125-1.301c.93,1.148,2.066,1.723,3.41,1.723,1.055,0,1.877-.297,2.467-.891s.885-1.43.885-2.508v-1.09c-.867,1-2.051,1.5-3.551,1.5-1.484,0-2.686-.598-3.604-1.793s-1.377-2.824-1.377-4.887Zm2.18.246c0,1.43.293,2.553.879,3.369s1.406,1.225,2.461,1.225c1.367,0,2.371-.621,3.012-1.863v-5.789c-.664-1.211-1.66-1.816-2.988-1.816-1.055,0-1.879.41-2.473,1.23s-.891,2.035-.891,3.645Z"/><path class="ab" d="m1052.722,299.225l2.953-9.504h2.32l-5.098,14.637c-.789,2.109-2.043,3.164-3.762,3.164l-.41-.035-.809-.152v-1.758l.586.047c.734,0,1.307-.148,1.717-.445s.748-.84,1.014-1.629l.48-1.289-4.523-12.539h2.367l3.164,9.504Z"/><path class="ab" d="m1073.698,302.4c-.125-.25-.227-.695-.305-1.336-1.008,1.047-2.211,1.57-3.609,1.57-1.25,0-2.275-.354-3.076-1.061s-1.201-1.604-1.201-2.689c0-1.32.502-2.346,1.506-3.076s2.416-1.096,4.236-1.096h2.109v-.996c0-.758-.227-1.361-.68-1.811s-1.121-.674-2.004-.674c-.773,0-1.422.195-1.945.586s-.785.863-.785,1.418h-2.18c0-.633.225-1.244.674-1.834s1.059-1.057,1.828-1.4,1.615-.516,2.537-.516c1.461,0,2.605.365,3.434,1.096s1.258,1.736,1.289,3.018v5.836c0,1.164.148,2.09.445,2.777v.188h-2.273Zm-3.598-1.652c.68,0,1.324-.176,1.934-.527s1.051-.809,1.324-1.371v-2.602h-1.699c-2.656,0-3.984.777-3.984,2.332,0,.68.227,1.211.68,1.594s1.035.574,1.746.574Z"/><path class="ab" d="m1080.976,289.721l.07,1.594c.969-1.219,2.234-1.828,3.797-1.828,2.68,0,4.031,1.512,4.055,4.535v8.379h-2.168v-8.391c-.008-.914-.217-1.59-.627-2.027s-1.049-.656-1.916-.656c-.703,0-1.32.188-1.852.562s-.945.867-1.242,1.477v9.035h-2.168v-12.68h2.051Z"/><path class="ab" d="m1091.64,295.955c0-1.945.461-3.51,1.383-4.693s2.129-1.775,3.621-1.775c1.484,0,2.66.508,3.527,1.523v-6.609h2.168v18h-1.992l-.105-1.359c-.867,1.062-2.074,1.594-3.621,1.594-1.469,0-2.666-.602-3.592-1.805s-1.389-2.773-1.389-4.711v-.164Zm2.168.246c0,1.438.297,2.562.891,3.375s1.414,1.219,2.461,1.219c1.375,0,2.379-.617,3.012-1.852v-5.824c-.648-1.195-1.645-1.793-2.988-1.793-1.062,0-1.891.41-2.484,1.23s-.891,2.035-.891,3.645Z"/><path class="ab" d="m973.784,329.665c.773,0,1.449-.234,2.027-.703s.898-1.055.961-1.758h2.051c-.039.727-.289,1.418-.75,2.074s-1.076,1.18-1.846,1.57-1.584.586-2.443.586c-1.727,0-3.1-.576-4.119-1.729s-1.529-2.729-1.529-4.729v-.363c0-1.234.227-2.332.68-3.293s1.104-1.707,1.951-2.238,1.85-.797,3.006-.797c1.422,0,2.604.426,3.545,1.277s1.443,1.957,1.506,3.316h-2.051c-.062-.82-.373-1.494-.932-2.021s-1.248-.791-2.068-.791c-1.102,0-1.955.396-2.561,1.189s-.908,1.939-.908,3.439v.41c0,1.461.301,2.586.902,3.375s1.461,1.184,2.578,1.184Z"/><path class="ab" d="m980.687,324.743c0-1.242.244-2.359.732-3.352s1.168-1.758,2.039-2.297,1.865-.809,2.982-.809c1.727,0,3.123.598,4.189,1.793s1.6,2.785,1.6,4.77v.152c0,1.234-.236,2.342-.709,3.322s-1.148,1.744-2.027,2.291-1.889.82-3.029.82c-1.719,0-3.111-.598-4.178-1.793s-1.6-2.777-1.6-4.746v-.152Zm2.18.258c0,1.406.326,2.535.979,3.387s1.525,1.277,2.619,1.277c1.102,0,1.977-.432,2.625-1.295s.973-2.072.973-3.627c0-1.391-.33-2.518-.99-3.381s-1.537-1.295-2.631-1.295c-1.07,0-1.934.426-2.59,1.277s-.984,2.07-.984,3.656Z"/><path class="ab" d="m996.999,318.521l.07,1.594c.969-1.219,2.234-1.828,3.797-1.828,2.68,0,4.031,1.512,4.055,4.535v8.379h-2.168v-8.391c-.008-.914-.217-1.59-.627-2.027s-1.049-.656-1.916-.656c-.703,0-1.32.188-1.852.562s-.945.867-1.242,1.477v9.035h-2.168v-12.68h2.051Z"/><path class="ab" d="m1007.663,324.755c0-1.945.461-3.51,1.383-4.693s2.129-1.775,3.621-1.775c1.484,0,2.66.508,3.527,1.523v-6.609h2.168v18h-1.992l-.105-1.359c-.867,1.062-2.074,1.594-3.621,1.594-1.469,0-2.666-.602-3.592-1.805s-1.389-2.773-1.389-4.711v-.164Zm2.168.246c0,1.438.297,2.562.891,3.375s1.414,1.219,2.461,1.219c1.375,0,2.379-.617,3.012-1.852v-5.824c-.648-1.195-1.645-1.793-2.988-1.793-1.062,0-1.891.41-2.484,1.23s-.891,2.035-.891,3.645Z"/><path class="ab" d="m1026.987,331.435c-1.719,0-3.117-.564-4.195-1.693s-1.617-2.639-1.617-4.529v-.398c0-1.258.24-2.381.721-3.369s1.152-1.762,2.016-2.32,1.799-.838,2.807-.838c1.648,0,2.93.543,3.844,1.629s1.371,2.641,1.371,4.664v.902h-8.59c.031,1.25.396,2.26,1.096,3.029s1.588,1.154,2.666,1.154c.766,0,1.414-.156,1.945-.469s.996-.727,1.395-1.242l1.324,1.031c-1.062,1.633-2.656,2.449-4.781,2.449Zm-.27-11.367c-.875,0-1.609.318-2.203.955s-.961,1.529-1.102,2.678h6.352v-.164c-.062-1.102-.359-1.955-.891-2.561s-1.25-.908-2.156-.908Z"/><path class="ab" d="m1036.491,318.521l.07,1.594c.969-1.219,2.234-1.828,3.797-1.828,2.68,0,4.031,1.512,4.055,4.535v8.379h-2.168v-8.391c-.008-.914-.217-1.59-.627-2.027s-1.049-.656-1.916-.656c-.703,0-1.32.188-1.852.562s-.945.867-1.242,1.477v9.035h-2.168v-12.68h2.051Z"/><path class="ab" d="m1055.065,327.837c0-.586-.221-1.041-.662-1.365s-1.211-.604-2.309-.838-1.969-.516-2.613-.844-1.121-.719-1.43-1.172-.463-.992-.463-1.617c0-1.039.439-1.918,1.318-2.637s2.002-1.078,3.369-1.078c1.438,0,2.604.371,3.498,1.113s1.342,1.691,1.342,2.848h-2.18c0-.594-.252-1.105-.756-1.535s-1.139-.645-1.904-.645c-.789,0-1.406.172-1.852.516s-.668.793-.668,1.348c0,.523.207.918.621,1.184s1.162.52,2.244.762,1.959.531,2.631.867,1.17.74,1.494,1.213.486,1.049.486,1.729c0,1.133-.453,2.041-1.359,2.725s-2.082,1.025-3.527,1.025c-1.016,0-1.914-.18-2.695-.539s-1.393-.861-1.834-1.506-.662-1.342-.662-2.092h2.168c.039.727.33,1.303.873,1.729s1.26.639,2.15.639c.82,0,1.479-.166,1.975-.498s.744-.775.744-1.33Z"/><path class="ab" d="m1065.319,331.435c-1.719,0-3.117-.564-4.195-1.693s-1.617-2.639-1.617-4.529v-.398c0-1.258.24-2.381.721-3.369s1.152-1.762,2.016-2.32,1.799-.838,2.807-.838c1.648,0,2.93.543,3.844,1.629s1.371,2.641,1.371,4.664v.902h-8.59c.031,1.25.396,2.26,1.096,3.029s1.588,1.154,2.666,1.154c.766,0,1.414-.156,1.945-.469s.996-.727,1.395-1.242l1.324,1.031c-1.062,1.633-2.656,2.449-4.781,2.449Zm-.27-11.367c-.875,0-1.609.318-2.203.955s-.961,1.529-1.102,2.678h6.352v-.164c-.062-1.102-.359-1.955-.891-2.561s-1.25-.908-2.156-.908Z"/><path class="ab" d="m971.622,344.25v3.07h2.367v1.676h-2.367v7.873c0,.509.105.89.316,1.145.211.254.57.381,1.078.381.25,0,.594-.047,1.031-.141v1.748c-.57.154-1.125.232-1.664.232-.969,0-1.699-.293-2.191-.879s-.738-1.418-.738-2.496v-7.863h-2.309v-1.676h2.309v-3.07h2.168Z"/><path class="ab" d="m975.712,353.543c0-1.242.244-2.359.732-3.352s1.168-1.758,2.039-2.297,1.865-.809,2.982-.809c1.727,0,3.123.598,4.189,1.793s1.6,2.785,1.6,4.77v.152c0,1.234-.236,2.342-.709,3.322s-1.148,1.744-2.027,2.291-1.889.82-3.029.82c-1.719,0-3.111-.598-4.178-1.793s-1.6-2.777-1.6-4.746v-.152Zm2.18.258c0,1.406.326,2.535.979,3.387s1.525,1.277,2.619,1.277c1.102,0,1.977-.432,2.625-1.295s.973-2.072.973-3.627c0-1.391-.33-2.518-.99-3.381s-1.537-1.295-2.631-1.295c-1.07,0-1.934.426-2.59,1.277s-.984,2.07-.984,3.656Z"/><path class="ab" d="m1003.743,360c-.125-.25-.227-.695-.305-1.336-1.008,1.047-2.211,1.57-3.609,1.57-1.25,0-2.275-.354-3.076-1.061s-1.201-1.604-1.201-2.689c0-1.32.502-2.346,1.506-3.076s2.416-1.096,4.236-1.096h2.109v-.996c0-.758-.227-1.361-.68-1.811s-1.121-.674-2.004-.674c-.773,0-1.422.195-1.945.586s-.785.863-.785,1.418h-2.18c0-.633.225-1.244.674-1.834s1.059-1.057,1.828-1.4,1.615-.516,2.537-.516c1.461,0,2.605.365,3.434,1.096s1.258,1.736,1.289,3.018v5.836c0,1.164.148,2.09.445,2.777v.188h-2.273Zm-3.598-1.652c.68,0,1.324-.176,1.934-.527s1.051-.809,1.324-1.371v-2.602h-1.699c-2.656,0-3.984.777-3.984,2.332,0,.68.227,1.211.68,1.594s1.035.574,1.746.574Z"/><path class="ab" d="m1017.267,360h-2.168v-18h2.168v18Z"/><path class="ab" d="m1020.747,343.957c0-.352.107-.648.322-.891s.533-.363.955-.363.742.121.961.363.328.539.328.891-.109.645-.328.879-.539.352-.961.352-.74-.117-.955-.352-.322-.527-.322-.879Zm2.344,16.043h-2.168v-12.68h2.168v12.68Z"/><path class="ab" d="m1026.032,353.555c0-1.992.457-3.568,1.371-4.729s2.141-1.74,3.68-1.74c1.5,0,2.684.504,3.551,1.512l.094-1.277h1.992v17.555h-2.168v-6.047c-.875.938-2.039,1.406-3.492,1.406-1.531,0-2.752-.596-3.662-1.787s-1.365-2.771-1.365-4.74v-.152Zm2.168.246c0,1.453.307,2.594.92,3.422s1.439,1.242,2.479,1.242c1.289,0,2.273-.57,2.953-1.711v-6.211c-.688-1.117-1.664-1.676-2.93-1.676-1.047,0-1.879.416-2.496,1.248s-.926,2.061-.926,3.686Z"/><path class="ab" d="m1048.028,358.746c-.844.992-2.082,1.488-3.715,1.488-1.352,0-2.381-.393-3.088-1.178s-1.064-1.947-1.072-3.486v-8.25h2.168v8.191c0,1.922.781,2.883,2.344,2.883,1.656,0,2.758-.617,3.305-1.852v-9.223h2.168v12.68h-2.062l-.047-1.254Z"/><path class="ab" d="m1053.442,343.957c0-.352.107-.648.322-.891s.533-.363.955-.363.742.121.961.363.328.539.328.891-.109.645-.328.879-.539.352-.961.352-.74-.117-.955-.352-.322-.527-.322-.879Zm2.344,16.043h-2.168v-12.68h2.168v12.68Z"/><path class="ab" d="m1058.728,353.555c0-1.945.461-3.51,1.383-4.693s2.129-1.775,3.621-1.775c1.484,0,2.66.508,3.527,1.523v-6.609h2.168v18h-1.992l-.105-1.359c-.867,1.062-2.074,1.594-3.621,1.594-1.469,0-2.666-.602-3.592-1.805s-1.389-2.773-1.389-4.711v-.164Zm2.168.246c0,1.438.297,2.562.891,3.375s1.414,1.219,2.461,1.219c1.375,0,2.379-.617,3.012-1.852v-5.824c-.648-1.195-1.645-1.793-2.988-1.793-1.062,0-1.891.41-2.484,1.23s-.891,2.035-.891,3.645Z"/><path class="ab" d="m30.764,214.16h8.086v1.84h-10.348v-17.062h2.262v15.223Z"/><path class="ab" d="m40.502,209.543c0-1.242.244-2.359.732-3.352s1.168-1.758,2.039-2.297,1.865-.809,2.982-.809c1.727,0,3.123.598,4.189,1.793s1.6,2.785,1.6,4.77v.152c0,1.234-.236,2.342-.709,3.322s-1.148,1.744-2.027,2.291-1.889.82-3.029.82c-1.719,0-3.111-.598-4.178-1.793s-1.6-2.777-1.6-4.746v-.152Zm2.18.258c0,1.406.326,2.535.979,3.387s1.525,1.277,2.619,1.277c1.102,0,1.977-.432,2.625-1.295s.973-2.072.973-3.627c0-1.391-.33-2.518-.99-3.381s-1.537-1.295-2.631-1.295c-1.07,0-1.934.426-2.59,1.277s-.984,2.07-.984,3.656Z"/><path class="ab" d="m65.991,213.012l2.438-9.691h2.168l-3.691,12.68h-1.758l-3.082-9.609-3,9.609h-1.758l-3.68-12.68h2.156l2.496,9.492,2.953-9.492h1.746l3.012,9.691Z"/><path class="ab" d="m77.311,209.637h-5.719v-1.77h5.719v1.77Z"/><path class="ab" d="m90.131,209.801c0,1.93-.441,3.484-1.324,4.664s-2.078,1.77-3.586,1.77c-1.539,0-2.75-.488-3.633-1.465v6.105h-2.168v-17.555h1.98l.105,1.406c.883-1.094,2.109-1.641,3.68-1.641,1.523,0,2.729.574,3.615,1.723s1.33,2.746,1.33,4.793v.199Zm-2.168-.246c0-1.43-.305-2.559-.914-3.387s-1.445-1.242-2.508-1.242c-1.312,0-2.297.582-2.953,1.746v6.059c.648,1.156,1.641,1.734,2.977,1.734,1.039,0,1.865-.412,2.479-1.236s.92-2.049.92-3.674Z"/><path class="ab" d="m99.014,205.266c-.328-.055-.684-.082-1.066-.082-1.422,0-2.387.605-2.895,1.816v9h-2.168v-12.68h2.109l.035,1.465c.711-1.133,1.719-1.699,3.023-1.699.422,0,.742.055.961.164v2.016Z"/><path class="ab" d="m106.045,216.234c-1.719,0-3.117-.564-4.195-1.693s-1.617-2.639-1.617-4.529v-.398c0-1.258.24-2.381.721-3.369s1.152-1.762,2.016-2.32,1.799-.838,2.807-.838c1.648,0,2.93.543,3.844,1.629s1.371,2.641,1.371,4.664v.902h-8.59c.031,1.25.396,2.26,1.096,3.029s1.588,1.154,2.666,1.154c.766,0,1.414-.156,1.945-.469s.996-.727,1.395-1.242l1.324,1.031c-1.062,1.633-2.656,2.449-4.781,2.449Zm-.27-11.367c-.875,0-1.609.318-2.203.955s-.961,1.529-1.102,2.678h6.352v-.164c-.062-1.102-.359-1.955-.891-2.561s-1.25-.908-2.156-.908Z"/><path class="ab" d="m120.881,212.637c0-.586-.221-1.041-.662-1.365s-1.211-.604-2.309-.838-1.969-.516-2.613-.844-1.121-.719-1.43-1.172-.463-.992-.463-1.617c0-1.039.439-1.918,1.318-2.637s2.002-1.078,3.369-1.078c1.438,0,2.604.371,3.498,1.113s1.342,1.691,1.342,2.848h-2.18c0-.594-.252-1.105-.756-1.535s-1.139-.645-1.904-.645c-.789,0-1.406.172-1.852.516s-.668.793-.668,1.348c0,.523.207.918.621,1.184s1.162.52,2.244.762,1.959.531,2.631.867,1.17.74,1.494,1.213.486,1.049.486,1.729c0,1.133-.453,2.041-1.359,2.725s-2.082,1.025-3.527,1.025c-1.016,0-1.914-.18-2.695-.539s-1.393-.861-1.834-1.506-.662-1.342-.662-2.092h2.168c.039.727.33,1.303.873,1.729s1.26.639,2.15.639c.82,0,1.479-.166,1.975-.498s.744-.775.744-1.33Z"/><path class="ab" d="m133.256,212.637c0-.586-.221-1.041-.662-1.365s-1.211-.604-2.309-.838-1.969-.516-2.613-.844-1.121-.719-1.43-1.172-.463-.992-.463-1.617c0-1.039.439-1.918,1.318-2.637s2.002-1.078,3.369-1.078c1.438,0,2.604.371,3.498,1.113s1.342,1.691,1.342,2.848h-2.18c0-.594-.252-1.105-.756-1.535s-1.139-.645-1.904-.645c-.789,0-1.406.172-1.852.516s-.668.793-.668,1.348c0,.523.207.918.621,1.184s1.162.52,2.244.762,1.959.531,2.631.867,1.17.74,1.494,1.213.486,1.049.486,1.729c0,1.133-.453,2.041-1.359,2.725s-2.082,1.025-3.527,1.025c-1.016,0-1.914-.18-2.695-.539s-1.393-.861-1.834-1.506-.662-1.342-.662-2.092h2.168c.039.727.33,1.303.873,1.729s1.26.639,2.15.639c.82,0,1.479-.166,1.975-.498s.744-.775.744-1.33Z"/><path class="ab" d="m146.077,214.746c-.844.992-2.082,1.488-3.715,1.488-1.352,0-2.381-.393-3.088-1.178s-1.064-1.947-1.072-3.486v-8.25h2.168v8.191c0,1.922.781,2.883,2.344,2.883,1.656,0,2.758-.617,3.305-1.852v-9.223h2.168v12.68h-2.062l-.047-1.254Z"/><path class="ab" d="m157.608,205.266c-.328-.055-.684-.082-1.066-.082-1.422,0-2.387.605-2.895,1.816v9h-2.168v-12.68h2.109l.035,1.465c.711-1.133,1.719-1.699,3.023-1.699.422,0,.742.055.961.164v2.016Z"/><path class="ab" d="m164.639,216.234c-1.719,0-3.117-.564-4.195-1.693s-1.617-2.639-1.617-4.529v-.398c0-1.258.24-2.381.721-3.369s1.152-1.762,2.016-2.32,1.799-.838,2.807-.838c1.648,0,2.93.543,3.844,1.629s1.371,2.641,1.371,4.664v.902h-8.59c.031,1.25.396,2.26,1.096,3.029s1.588,1.154,2.666,1.154c.766,0,1.414-.156,1.945-.469s.996-.727,1.395-1.242l1.324,1.031c-1.062,1.633-2.656,2.449-4.781,2.449Zm-.27-11.367c-.875,0-1.609.318-2.203.955s-.961,1.529-1.102,2.678h6.352v-.164c-.062-1.102-.359-1.955-.891-2.561s-1.25-.908-2.156-.908Z"/><path class="ab" d="m177.518,209.555c0-1.977.457-3.549,1.371-4.717s2.125-1.752,3.633-1.752c1.547,0,2.754.547,3.621,1.641l.105-1.406h1.98v12.375c0,1.641-.486,2.934-1.459,3.879s-2.279,1.418-3.92,1.418c-.914,0-1.809-.195-2.684-.586s-1.543-.926-2.004-1.605l1.125-1.301c.93,1.148,2.066,1.723,3.41,1.723,1.055,0,1.877-.297,2.467-.891s.885-1.43.885-2.508v-1.09c-.867,1-2.051,1.5-3.551,1.5-1.484,0-2.686-.598-3.604-1.793s-1.377-2.824-1.377-4.887Zm2.18.246c0,1.43.293,2.553.879,3.369s1.406,1.225,2.461,1.225c1.367,0,2.371-.621,3.012-1.863v-5.789c-.664-1.211-1.66-1.816-2.988-1.816-1.055,0-1.879.41-2.473,1.23s-.891,2.035-.891,3.645Z"/><path class="ab" d="m199.327,216c-.125-.25-.227-.695-.305-1.336-1.008,1.047-2.211,1.57-3.609,1.57-1.25,0-2.275-.354-3.076-1.061s-1.201-1.604-1.201-2.689c0-1.32.502-2.346,1.506-3.076s2.416-1.096,4.236-1.096h2.109v-.996c0-.758-.227-1.361-.68-1.811s-1.121-.674-2.004-.674c-.773,0-1.422.195-1.945.586s-.785.863-.785,1.418h-2.18c0-.633.225-1.244.674-1.834s1.059-1.057,1.828-1.4,1.615-.516,2.537-.516c1.461,0,2.605.365,3.434,1.096s1.258,1.736,1.289,3.018v5.836c0,1.164.148,2.09.445,2.777v.188h-2.273Zm-3.598-1.652c.68,0,1.324-.176,1.934-.527s1.051-.809,1.324-1.371v-2.602h-1.699c-2.656,0-3.984.777-3.984,2.332,0,.68.227,1.211.68,1.594s1.035.574,1.746.574Z"/><path class="ab" d="m211.936,212.637c0-.586-.221-1.041-.662-1.365s-1.211-.604-2.309-.838-1.969-.516-2.613-.844-1.121-.719-1.43-1.172-.463-.992-.463-1.617c0-1.039.439-1.918,1.318-2.637s2.002-1.078,3.369-1.078c1.438,0,2.604.371,3.498,1.113s1.342,1.691,1.342,2.848h-2.18c0-.594-.252-1.105-.756-1.535s-1.139-.645-1.904-.645c-.789,0-1.406.172-1.852.516s-.668.793-.668,1.348c0,.523.207.918.621,1.184s1.162.52,2.244.762,1.959.531,2.631.867,1.17.74,1.494,1.213.486,1.049.486,1.729c0,1.133-.453,2.041-1.359,2.725s-2.082,1.025-3.527,1.025c-1.016,0-1.914-.18-2.695-.539s-1.393-.861-1.834-1.506-.662-1.342-.662-2.092h2.168c.039.727.33,1.303.873,1.729s1.26.639,2.15.639c.82,0,1.479-.166,1.975-.498s.744-.775.744-1.33Z"/><path class="ab" d="m50.241,244.8v-11.004h-2.004v-1.676h2.004v-1.301c0-1.359.363-2.41,1.09-3.152s1.754-1.113,3.082-1.113c.5,0,.996.066,1.488.198l-.117,1.747c-.367-.07-.758-.105-1.172-.105-.703,0-1.246.206-1.629.617s-.574,1.001-.574,1.77v1.34h2.707v1.676h-2.707v11.004h-2.168Z"/><path class="ab" d="m59.862,244.8h-2.168v-18h2.168v18Z"/><path class="ab" d="m62.756,238.343c0-1.242.244-2.359.732-3.352s1.168-1.758,2.039-2.297,1.865-.809,2.982-.809c1.727,0,3.123.598,4.189,1.793s1.6,2.785,1.6,4.77v.152c0,1.234-.236,2.342-.709,3.322s-1.148,1.744-2.027,2.291-1.889.82-3.029.82c-1.719,0-3.111-.598-4.178-1.793s-1.6-2.777-1.6-4.746v-.152Zm2.18.258c0,1.406.326,2.535.979,3.387s1.525,1.277,2.619,1.277c1.102,0,1.977-.432,2.625-1.295s.973-2.072.973-3.627c0-1.391-.33-2.518-.99-3.381s-1.537-1.295-2.631-1.295c-1.07,0-1.934.426-2.59,1.277s-.984,2.07-.984,3.656Z"/><path class="ab" d="m88.245,241.812l2.438-9.691h2.168l-3.691,12.68h-1.758l-3.082-9.609-3,9.609h-1.758l-3.68-12.68h2.156l2.496,9.492,2.953-9.492h1.746l3.012,9.691Z"/><path class="ab" d="m102.436,241.437c0-.586-.221-1.041-.662-1.365s-1.211-.604-2.309-.838-1.969-.516-2.613-.844-1.121-.719-1.43-1.172-.463-.992-.463-1.617c0-1.039.439-1.918,1.318-2.637s2.002-1.078,3.369-1.078c1.438,0,2.604.371,3.498,1.113s1.342,1.691,1.342,2.848h-2.18c0-.594-.252-1.105-.756-1.535s-1.139-.645-1.904-.645c-.789,0-1.406.172-1.852.516s-.668.793-.668,1.348c0,.523.207.918.621,1.184s1.162.52,2.244.762,1.959.531,2.631.867,1.17.74,1.494,1.213.486,1.049.486,1.729c0,1.133-.453,2.041-1.359,2.725s-2.082,1.025-3.527,1.025c-1.016,0-1.914-.18-2.695-.539s-1.393-.861-1.834-1.506-.662-1.342-.662-2.092h2.168c.039.727.33,1.303.873,1.729s1.26.639,2.15.639c.82,0,1.479-.166,1.975-.498s.744-.775.744-1.33Z"/><path class="ab" d="m116.311,229.05v3.07h2.367v1.676h-2.367v7.873c0,.509.105.89.316,1.145.211.254.57.381,1.078.381.25,0,.594-.047,1.031-.141v1.748c-.57.154-1.125.232-1.664.232-.969,0-1.699-.293-2.191-.879s-.738-1.418-.738-2.496v-7.863h-2.309v-1.676h2.309v-3.07h2.168Z"/><path class="ab" d="m123.377,233.655c.961-1.18,2.211-1.77,3.75-1.77,2.68,0,4.031,1.512,4.055,4.535v8.379h-2.168v-8.391c-.008-.914-.217-1.59-.627-2.027s-1.049-.656-1.916-.656c-.703,0-1.32.188-1.852.562s-.945.867-1.242,1.477v9.035h-2.168v-18h2.168v6.855Z"/><path class="ab" d="m140.557,234.065c-.328-.055-.684-.082-1.066-.082-1.422,0-2.387.605-2.895,1.816v9h-2.168v-12.68h2.109l.035,1.465c.711-1.133,1.719-1.699,3.023-1.699.422,0,.742.055.961.164v2.016Z"/><path class="ab" d="m141.741,238.343c0-1.242.244-2.359.732-3.352s1.168-1.758,2.039-2.297,1.865-.809,2.982-.809c1.727,0,3.123.598,4.189,1.793s1.6,2.785,1.6,4.77v.152c0,1.234-.236,2.342-.709,3.322s-1.148,1.744-2.027,2.291-1.889.82-3.029.82c-1.719,0-3.111-.598-4.178-1.793s-1.6-2.777-1.6-4.746v-.152Zm2.18.258c0,1.406.326,2.535.979,3.387s1.525,1.277,2.619,1.277c1.102,0,1.977-.432,2.625-1.295s.973-2.072.973-3.627c0-1.391-.33-2.518-.99-3.381s-1.537-1.295-2.631-1.295c-1.07,0-1.934.426-2.59,1.277s-.984,2.07-.984,3.656Z"/><path class="ab" d="m163.831,243.546c-.844.992-2.082,1.488-3.715,1.488-1.352,0-2.381-.393-3.088-1.178s-1.064-1.947-1.072-3.486v-8.25h2.168v8.191c0,1.922.781,2.883,2.344,2.883,1.656,0,2.758-.617,3.305-1.852v-9.223h2.168v12.68h-2.062l-.047-1.254Z"/><path class="ab" d="m168.717,238.355c0-1.977.457-3.549,1.371-4.717s2.125-1.752,3.633-1.752c1.547,0,2.754.547,3.621,1.641l.105-1.406h1.98v12.375c0,1.641-.486,2.934-1.459,3.879s-2.279,1.418-3.92,1.418c-.914,0-1.809-.195-2.684-.586s-1.543-.926-2.004-1.605l1.125-1.301c.93,1.148,2.066,1.723,3.41,1.723,1.055,0,1.877-.297,2.467-.891s.885-1.43.885-2.508v-1.09c-.867,1-2.051,1.5-3.551,1.5-1.484,0-2.686-.598-3.604-1.793s-1.377-2.824-1.377-4.887Zm2.18.246c0,1.43.293,2.553.879,3.369s1.406,1.225,2.461,1.225c1.367,0,2.371-.621,3.012-1.863v-5.789c-.664-1.211-1.66-1.816-2.988-1.816-1.055,0-1.879.41-2.473,1.23s-.891,2.035-.891,3.645Z"/><path class="ab" d="m184.866,233.655c.961-1.18,2.211-1.77,3.75-1.77,2.68,0,4.031,1.512,4.055,4.535v8.379h-2.168v-8.391c-.008-.914-.217-1.59-.627-2.027s-1.049-.656-1.916-.656c-.703,0-1.32.188-1.852.562s-.945.867-1.242,1.477v9.035h-2.168v-18h2.168v6.855Z"/><path class="ab" d="m48.823,272.065c.773,0,1.449-.234,2.027-.703s.898-1.055.961-1.758h2.051c-.039.727-.289,1.418-.75,2.074s-1.076,1.18-1.846,1.57-1.584.586-2.443.586c-1.727,0-3.1-.576-4.119-1.729s-1.529-2.729-1.529-4.729v-.363c0-1.234.227-2.332.68-3.293s1.104-1.707,1.951-2.238,1.85-.797,3.006-.797c1.422,0,2.604.426,3.545,1.277s1.443,1.957,1.506,3.316h-2.051c-.062-.82-.373-1.494-.932-2.021s-1.248-.791-2.068-.791c-1.102,0-1.955.396-2.561,1.189s-.908,1.939-.908,3.439v.41c0,1.461.301,2.586.902,3.375s1.461,1.184,2.578,1.184Z"/><path class="ab" d="m55.725,267.143c0-1.242.244-2.359.732-3.352s1.168-1.758,2.039-2.297,1.865-.809,2.982-.809c1.727,0,3.123.598,4.189,1.793s1.6,2.785,1.6,4.77v.152c0,1.234-.236,2.342-.709,3.322s-1.148,1.744-2.027,2.291-1.889.82-3.029.82c-1.719,0-3.111-.598-4.178-1.793s-1.6-2.777-1.6-4.746v-.152Zm2.18.258c0,1.406.326,2.535.979,3.387s1.525,1.277,2.619,1.277c1.102,0,1.977-.432,2.625-1.295s.973-2.072.973-3.627c0-1.391-.33-2.518-.99-3.381s-1.537-1.295-2.631-1.295c-1.07,0-1.934.426-2.59,1.277s-.984,2.07-.984,3.656Z"/><path class="ab" d="m69.999,257.557c0-.352.107-.648.322-.891s.533-.363.955-.363.742.121.961.363.328.539.328.891-.109.645-.328.879-.539.352-.961.352-.74-.117-.955-.352-.322-.527-.322-.879Zm2.344,16.043h-2.168v-12.68h2.168v12.68Z"/><path class="ab" d="m78.167,273.6h-2.168v-18h2.168v18Z"/><path class="ab" d="m89.018,270.236c0-.586-.221-1.041-.662-1.365s-1.211-.604-2.309-.838-1.969-.516-2.613-.844-1.121-.719-1.43-1.172-.463-.992-.463-1.617c0-1.039.439-1.918,1.318-2.637s2.002-1.078,3.369-1.078c1.438,0,2.604.371,3.498,1.113s1.342,1.691,1.342,2.848h-2.18c0-.594-.252-1.105-.756-1.535s-1.139-.645-1.904-.645c-.789,0-1.406.172-1.852.516s-.668.793-.668,1.348c0,.523.207.918.621,1.184s1.162.52,2.244.762,1.959.531,2.631.867,1.17.74,1.494,1.213.486,1.049.486,1.729c0,1.133-.453,2.041-1.359,2.725s-2.082,1.025-3.527,1.025c-1.016,0-1.914-.18-2.695-.539s-1.393-.861-1.834-1.506-.662-1.342-.662-2.092h2.168c.039.727.33,1.303.873,1.729s1.26.639,2.15.639c.82,0,1.479-.166,1.975-.498s.744-.775.744-1.33Z"/><path class="ab" d="m102.893,257.85v3.07h2.367v1.676h-2.367v7.873c0,.509.105.89.316,1.145.211.254.57.381,1.078.381.25,0,.594-.047,1.031-.141v1.748c-.57.154-1.125.232-1.664.232-.969,0-1.699-.293-2.191-.879s-.738-1.418-.738-2.496v-7.863h-2.309v-1.676h2.309v-3.07h2.168Z"/><path class="ab" d="m106.983,267.143c0-1.242.244-2.359.732-3.352s1.168-1.758,2.039-2.297,1.865-.809,2.982-.809c1.727,0,3.123.598,4.189,1.793s1.6,2.785,1.6,4.77v.152c0,1.234-.236,2.342-.709,3.322s-1.148,1.744-2.027,2.291-1.889.82-3.029.82c-1.719,0-3.111-.598-4.178-1.793s-1.6-2.777-1.6-4.746v-.152Zm2.18.258c0,1.406.326,2.535.979,3.387s1.525,1.277,2.619,1.277c1.102,0,1.977-.432,2.625-1.295s.973-2.072.973-3.627c0-1.391-.33-2.518-.99-3.381s-1.537-1.295-2.631-1.295c-1.07,0-1.934.426-2.59,1.277s-.984,2.07-.984,3.656Z"/><path class="ab" d="m135.014,273.6c-.125-.25-.227-.695-.305-1.336-1.008,1.047-2.211,1.57-3.609,1.57-1.25,0-2.275-.354-3.076-1.061s-1.201-1.604-1.201-2.689c0-1.32.502-2.346,1.506-3.076s2.416-1.096,4.236-1.096h2.109v-.996c0-.758-.227-1.361-.68-1.811s-1.121-.674-2.004-.674c-.773,0-1.422.195-1.945.586s-.785.863-.785,1.418h-2.18c0-.633.225-1.244.674-1.834s1.059-1.057,1.828-1.4,1.615-.516,2.537-.516c1.461,0,2.605.365,3.434,1.096s1.258,1.736,1.289,3.018v5.836c0,1.164.148,2.09.445,2.777v.188h-2.273Zm-3.598-1.652c.68,0,1.324-.176,1.934-.527s1.051-.809,1.324-1.371v-2.602h-1.699c-2.656,0-3.984.777-3.984,2.332,0,.68.227,1.211.68,1.594s1.035.574,1.746.574Z"/><path class="ab" d="m150.975,267.4c0,1.938-.445,3.494-1.336,4.67s-2.086,1.764-3.586,1.764c-1.602,0-2.84-.566-3.715-1.699l-.105,1.465h-1.992v-18h2.168v6.715c.875-1.086,2.082-1.629,3.621-1.629s2.748.582,3.627,1.746,1.318,2.758,1.318,4.781v.188Zm-2.168-.246c0-1.477-.285-2.617-.855-3.422s-1.391-1.207-2.461-1.207c-1.43,0-2.457.664-3.082,1.992v5.484c.664,1.328,1.699,1.992,3.105,1.992,1.039,0,1.848-.402,2.426-1.207s.867-2.016.867-3.633Z"/><path class="ab" d="m161.088,270.236c0-.586-.221-1.041-.662-1.365s-1.211-.604-2.309-.838-1.969-.516-2.613-.844-1.121-.719-1.43-1.172-.463-.992-.463-1.617c0-1.039.439-1.918,1.318-2.637s2.002-1.078,3.369-1.078c1.438,0,2.604.371,3.498,1.113s1.342,1.691,1.342,2.848h-2.18c0-.594-.252-1.105-.756-1.535s-1.139-.645-1.904-.645c-.789,0-1.406.172-1.852.516s-.668.793-.668,1.348c0,.523.207.918.621,1.184s1.162.52,2.244.762,1.959.531,2.631.867,1.17.74,1.494,1.213.486,1.049.486,1.729c0,1.133-.453,2.041-1.359,2.725s-2.082,1.025-3.527,1.025c-1.016,0-1.914-.18-2.695-.539s-1.393-.861-1.834-1.506-.662-1.342-.662-2.092h2.168c.039.727.33,1.303.873,1.729s1.26.639,2.15.639c.82,0,1.479-.166,1.975-.498s.744-.775.744-1.33Z"/><path class="ab" d="m165.506,267.143c0-1.242.244-2.359.732-3.352s1.168-1.758,2.039-2.297,1.865-.809,2.982-.809c1.727,0,3.123.598,4.189,1.793s1.6,2.785,1.6,4.77v.152c0,1.234-.236,2.342-.709,3.322s-1.148,1.744-2.027,2.291-1.889.82-3.029.82c-1.719,0-3.111-.598-4.178-1.793s-1.6-2.777-1.6-4.746v-.152Zm2.18.258c0,1.406.326,2.535.979,3.387s1.525,1.277,2.619,1.277c1.102,0,1.977-.432,2.625-1.295s.973-2.072.973-3.627c0-1.391-.33-2.518-.99-3.381s-1.537-1.295-2.631-1.295c-1.07,0-1.934.426-2.59,1.277s-.984,2.07-.984,3.656Z"/><path class="ab" d="m185.897,262.865c-.328-.055-.684-.082-1.066-.082-1.422,0-2.387.605-2.895,1.816v9h-2.168v-12.68h2.109l.035,1.465c.711-1.133,1.719-1.699,3.023-1.699.422,0,.742.055.961.164v2.016Z"/><path class="ab" d="m198.624,267.4c0,1.938-.445,3.494-1.336,4.67s-2.086,1.764-3.586,1.764c-1.602,0-2.84-.566-3.715-1.699l-.105,1.465h-1.992v-18h2.168v6.715c.875-1.086,2.082-1.629,3.621-1.629s2.748.582,3.627,1.746,1.318,2.758,1.318,4.781v.188Zm-2.168-.246c0-1.477-.285-2.617-.855-3.422s-1.391-1.207-2.461-1.207c-1.43,0-2.457.664-3.082,1.992v5.484c.664,1.328,1.699,1.992,3.105,1.992,1.039,0,1.848-.402,2.426-1.207s.867-2.016.867-3.633Z"/><path class="ab" d="m62.633,291.256c.961-1.18,2.211-1.77,3.75-1.77,2.68,0,4.031,1.512,4.055,4.535v8.379h-2.168v-8.391c-.008-.914-.217-1.59-.627-2.027s-1.049-.656-1.916-.656c-.703,0-1.32.188-1.852.562s-.945.867-1.242,1.477v9.035h-2.168v-18h2.168v6.855Z"/><path class="ab" d="m78.946,302.635c-1.719,0-3.117-.564-4.195-1.693s-1.617-2.639-1.617-4.529v-.398c0-1.258.24-2.381.721-3.369s1.152-1.762,2.016-2.32,1.799-.838,2.807-.838c1.648,0,2.93.543,3.844,1.629s1.371,2.641,1.371,4.664v.902h-8.59c.031,1.25.396,2.26,1.096,3.029s1.588,1.154,2.666,1.154c.766,0,1.414-.156,1.945-.469s.996-.727,1.395-1.242l1.324,1.031c-1.062,1.633-2.656,2.449-4.781,2.449Zm-.27-11.367c-.875,0-1.609.318-2.203.955s-.961,1.529-1.102,2.678h6.352v-.164c-.062-1.102-.359-1.955-.891-2.561s-1.25-.908-2.156-.908Z"/><path class="ab" d="m94.227,302.4c-.125-.25-.227-.695-.305-1.336-1.008,1.047-2.211,1.57-3.609,1.57-1.25,0-2.275-.354-3.076-1.061s-1.201-1.604-1.201-2.689c0-1.32.502-2.346,1.506-3.076s2.416-1.096,4.236-1.096h2.109v-.996c0-.758-.227-1.361-.68-1.811s-1.121-.674-2.004-.674c-.773,0-1.422.195-1.945.586s-.785.863-.785,1.418h-2.18c0-.633.225-1.244.674-1.834s1.059-1.057,1.828-1.4,1.615-.516,2.537-.516c1.461,0,2.605.365,3.434,1.096s1.258,1.736,1.289,3.018v5.836c0,1.164.148,2.09.445,2.777v.188h-2.273Zm-3.598-1.652c.68,0,1.324-.176,1.934-.527s1.051-.809,1.324-1.371v-2.602h-1.699c-2.656,0-3.984.777-3.984,2.332,0,.68.227,1.211.68,1.594s1.035.574,1.746.574Z"/><path class="ab" d="m102.395,286.65v3.07h2.367v1.676h-2.367v7.873c0,.509.105.89.316,1.145.211.254.57.381,1.078.381.25,0,.594-.047,1.031-.141v1.748c-.57.154-1.125.232-1.664.232-.969,0-1.699-.293-2.191-.879s-.738-1.418-.738-2.496v-7.863h-2.309v-1.676h2.309v-3.07h2.168Z"/><path class="ab" d="m118.497,302.635c-1.719,0-3.117-.564-4.195-1.693s-1.617-2.639-1.617-4.529v-.398c0-1.258.24-2.381.721-3.369s1.152-1.762,2.016-2.32,1.799-.838,2.807-.838c1.648,0,2.93.543,3.844,1.629s1.371,2.641,1.371,4.664v.902h-8.59c.031,1.25.396,2.26,1.096,3.029s1.588,1.154,2.666,1.154c.766,0,1.414-.156,1.945-.469s.996-.727,1.395-1.242l1.324,1.031c-1.062,1.633-2.656,2.449-4.781,2.449Zm-.27-11.367c-.875,0-1.609.318-2.203.955s-.961,1.529-1.102,2.678h6.352v-.164c-.062-1.102-.359-1.955-.891-2.561s-1.25-.908-2.156-.908Z"/><path class="ab" d="m128,289.721l.07,1.594c.969-1.219,2.234-1.828,3.797-1.828,2.68,0,4.031,1.512,4.055,4.535v8.379h-2.168v-8.391c-.008-.914-.217-1.59-.627-2.027s-1.049-.656-1.916-.656c-.703,0-1.32.188-1.852.562s-.945.867-1.242,1.477v9.035h-2.168v-12.68h2.051Z"/><path class="ab" d="m144.454,302.635c-1.719,0-3.117-.564-4.195-1.693s-1.617-2.639-1.617-4.529v-.398c0-1.258.24-2.381.721-3.369s1.152-1.762,2.016-2.32,1.799-.838,2.807-.838c1.648,0,2.93.543,3.844,1.629s1.371,2.641,1.371,4.664v.902h-8.59c.031,1.25.396,2.26,1.096,3.029s1.588,1.154,2.666,1.154c.766,0,1.414-.156,1.945-.469s.996-.727,1.395-1.242l1.324,1.031c-1.062,1.633-2.656,2.449-4.781,2.449Zm-.27-11.367c-.875,0-1.609.318-2.203.955s-.961,1.529-1.102,2.678h6.352v-.164c-.062-1.102-.359-1.955-.891-2.561s-1.25-.908-2.156-.908Z"/><path class="ab" d="m158.036,291.666c-.328-.055-.684-.082-1.066-.082-1.422,0-2.387.605-2.895,1.816v9h-2.168v-12.68h2.109l.035,1.465c.711-1.133,1.719-1.699,3.023-1.699.422,0,.742.055.961.164v2.016Z"/><path class="ab" d="m159.29,295.955c0-1.977.457-3.549,1.371-4.717s2.125-1.752,3.633-1.752c1.547,0,2.754.547,3.621,1.641l.105-1.406h1.98v12.375c0,1.641-.486,2.934-1.459,3.879s-2.279,1.418-3.92,1.418c-.914,0-1.809-.195-2.684-.586s-1.543-.926-2.004-1.605l1.125-1.301c.93,1.148,2.066,1.723,3.41,1.723,1.055,0,1.877-.297,2.467-.891s.885-1.43.885-2.508v-1.09c-.867,1-2.051,1.5-3.551,1.5-1.484,0-2.686-.598-3.604-1.793s-1.377-2.824-1.377-4.887Zm2.18.246c0,1.43.293,2.553.879,3.369s1.406,1.225,2.461,1.225c1.367,0,2.371-.621,3.012-1.863v-5.789c-.664-1.211-1.66-1.816-2.988-1.816-1.055,0-1.879.41-2.473,1.23s-.891,2.035-.891,3.645Z"/><path class="ab" d="m177.418,299.225l2.953-9.504h2.32l-5.098,14.637c-.789,2.109-2.043,3.164-3.762,3.164l-.41-.035-.809-.152v-1.758l.586.047c.734,0,1.307-.148,1.717-.445s.748-.84,1.014-1.629l.48-1.289-4.523-12.539h2.367l3.164,9.504Z"/><path class="af" d="m516.705,375.204c-.211,1.805-.877,3.197-1.998,4.178s-2.611,1.471-4.471,1.471c-2.016,0-3.631-.723-4.846-2.168s-1.822-3.379-1.822-5.801v-1.641c0-1.586.283-2.98.85-4.184s1.369-2.127,2.408-2.771,2.242-.967,3.609-.967c1.812,0,3.266.506,4.359,1.518s1.73,2.412,1.91,4.201h-2.262c-.195-1.363-.619-2.351-1.271-2.962s-1.564-.917-2.736-.917c-1.438,0-2.564.532-3.381,1.596s-1.225,2.576-1.225,4.538v1.654c0,1.854.387,3.327,1.16,4.422s1.855,1.642,3.246,1.642c1.25,0,2.209-.283,2.877-.85s1.111-1.553,1.33-2.959h2.262Z"/><path class="af" d="m518.861,374.161c0-1.242.244-2.359.732-3.352s1.168-1.758,2.039-2.297,1.865-.809,2.982-.809c1.727,0,3.123.598,4.189,1.793s1.6,2.785,1.6,4.77v.152c0,1.234-.236,2.342-.709,3.322s-1.148,1.744-2.027,2.291-1.889.82-3.029.82c-1.719,0-3.111-.598-4.178-1.793s-1.6-2.777-1.6-4.746v-.152Zm2.18.258c0,1.406.326,2.535.979,3.387s1.525,1.277,2.619,1.277c1.102,0,1.977-.432,2.625-1.295s.973-2.072.973-3.627c0-1.391-.33-2.518-.99-3.381s-1.537-1.295-2.631-1.295c-1.07,0-1.934.426-2.59,1.277s-.984,2.07-.984,3.656Z"/><path class="af" d="m535.162,367.939l.059,1.406c.93-1.094,2.184-1.641,3.762-1.641,1.773,0,2.98.68,3.621,2.039.422-.609.971-1.102,1.646-1.477s1.475-.562,2.396-.562c2.781,0,4.195,1.473,4.242,4.418v8.496h-2.168v-8.367c0-.906-.207-1.584-.621-2.033s-1.109-.674-2.086-.674c-.805,0-1.473.24-2.004.721s-.84,1.127-.926,1.939v8.414h-2.18v-8.309c0-1.844-.902-2.766-2.707-2.766-1.422,0-2.395.605-2.918,1.816v9.258h-2.168v-12.68h2.051Z"/><path class="af" d="m564.869,374.419c0,1.93-.441,3.484-1.324,4.664s-2.078,1.77-3.586,1.77c-1.539,0-2.75-.488-3.633-1.465v6.105h-2.168v-17.555h1.98l.105,1.406c.883-1.094,2.109-1.641,3.68-1.641,1.523,0,2.729.574,3.615,1.723s1.33,2.746,1.33,4.793v.199Zm-2.168-.246c0-1.43-.305-2.559-.914-3.387s-1.445-1.242-2.508-1.242c-1.312,0-2.297.582-2.953,1.746v6.059c.648,1.156,1.641,1.734,2.977,1.734,1.039,0,1.865-.412,2.479-1.236s.92-2.049.92-3.674Z"/><path class="af" d="m573.752,369.884c-.328-.055-.684-.082-1.066-.082-1.422,0-2.387.605-2.895,1.816v9h-2.168v-12.68h2.109l.035,1.465c.711-1.133,1.719-1.699,3.024-1.699.422,0,.742.055.961.164v2.016Z"/><path class="af" d="m580.783,380.853c-1.719,0-3.117-.564-4.195-1.693s-1.617-2.639-1.617-4.529v-.398c0-1.258.24-2.381.721-3.369s1.152-1.762,2.016-2.32,1.799-.838,2.807-.838c1.648,0,2.93.543,3.844,1.629s1.371,2.641,1.371,4.664v.902h-8.59c.031,1.25.396,2.26,1.096,3.029s1.588,1.154,2.666,1.154c.766,0,1.414-.156,1.945-.469s.996-.727,1.395-1.242l1.324,1.031c-1.062,1.633-2.656,2.449-4.781,2.449Zm-.27-11.367c-.875,0-1.609.318-2.203.955s-.961,1.529-1.102,2.678h6.352v-.164c-.062-1.102-.359-1.955-.891-2.561s-1.25-.908-2.156-.908Z"/><path class="af" d="m595.619,377.255c0-.586-.221-1.041-.662-1.365s-1.211-.604-2.309-.838-1.969-.516-2.613-.844-1.121-.719-1.43-1.172-.463-.992-.463-1.617c0-1.039.439-1.918,1.318-2.637s2.002-1.078,3.369-1.078c1.438,0,2.604.371,3.498,1.113s1.342,1.691,1.342,2.848h-2.18c0-.594-.252-1.105-.756-1.535s-1.139-.645-1.904-.645c-.789,0-1.406.172-1.852.516s-.668.793-.668,1.348c0,.523.207.918.621,1.184s1.162.52,2.244.762,1.959.531,2.631.867,1.17.74,1.494,1.213.486,1.049.486,1.729c0,1.133-.453,2.041-1.359,2.725s-2.082,1.025-3.527,1.025c-1.016,0-1.914-.18-2.695-.539s-1.393-.861-1.834-1.506-.662-1.342-.662-2.092h2.168c.039.727.33,1.303.873,1.729s1.26.639,2.15.639c.82,0,1.479-.166,1.975-.498s.744-.775.744-1.33Z"/><path class="af" d="m607.994,377.255c0-.586-.221-1.041-.662-1.365s-1.211-.604-2.309-.838-1.969-.516-2.613-.844-1.121-.719-1.43-1.172-.463-.992-.463-1.617c0-1.039.439-1.918,1.318-2.637s2.002-1.078,3.369-1.078c1.438,0,2.604.371,3.498,1.113s1.342,1.691,1.342,2.848h-2.18c0-.594-.252-1.105-.756-1.535s-1.139-.645-1.904-.645c-.789,0-1.406.172-1.852.516s-.668.793-.668,1.348c0,.523.207.918.621,1.184s1.162.52,2.244.762,1.959.531,2.631.867,1.17.74,1.494,1.213.486,1.049.486,1.729c0,1.133-.453,2.041-1.359,2.725s-2.082,1.025-3.527,1.025c-1.016,0-1.914-.18-2.695-.539s-1.393-.861-1.834-1.506-.662-1.342-.662-2.092h2.168c.039.727.33,1.303.873,1.729s1.26.639,2.15.639c.82,0,1.479-.166,1.975-.498s.744-.775.744-1.33Z"/><path class="af" d="m612.412,374.161c0-1.242.244-2.359.732-3.352s1.168-1.758,2.039-2.297,1.865-.809,2.982-.809c1.727,0,3.123.598,4.189,1.793s1.6,2.785,1.6,4.77v.152c0,1.234-.236,2.342-.709,3.322s-1.148,1.744-2.027,2.291-1.889.82-3.029.82c-1.719,0-3.111-.598-4.178-1.793s-1.6-2.777-1.6-4.746v-.152Zm2.18.258c0,1.406.326,2.535.979,3.387s1.525,1.277,2.619,1.277c1.102,0,1.977-.432,2.625-1.295s.973-2.072.973-3.627c0-1.391-.33-2.518-.99-3.381s-1.537-1.295-2.631-1.295c-1.07,0-1.934.426-2.59,1.277s-.984,2.07-.984,3.656Z"/><path class="af" d="m632.803,369.884c-.328-.055-.684-.082-1.066-.082-1.422,0-2.387.605-2.895,1.816v9h-2.168v-12.68h2.109l.035,1.465c.711-1.133,1.719-1.699,3.023-1.699.422,0,.742.055.961.164v2.016Z"/><path class="af" d="m493.847,441.502h-7.395v6.047h8.59v1.84h-10.84v-17.062h10.723v1.84h-8.473v5.496h7.395v1.84Z"/><path class="af" d="m501.757,441.338l2.812-4.629h2.531l-4.148,6.27,4.277,6.41h-2.508l-2.93-4.746-2.93,4.746h-2.52l4.277-6.41-4.148-6.27h2.508l2.777,4.629Z"/><path class="af" d="m520.109,443.19c0,1.93-.441,3.484-1.324,4.664s-2.078,1.77-3.586,1.77c-1.539,0-2.75-.488-3.633-1.465v6.105h-2.168v-17.555h1.98l.105,1.406c.883-1.094,2.109-1.641,3.68-1.641,1.523,0,2.729.574,3.615,1.723s1.33,2.746,1.33,4.793v.199Zm-2.168-.246c0-1.43-.305-2.559-.914-3.387s-1.445-1.242-2.508-1.242c-1.312,0-2.297.582-2.953,1.746v6.059c.648,1.156,1.641,1.734,2.977,1.734,1.039,0,1.865-.412,2.479-1.236s.92-2.049.92-3.674Z"/><path class="af" d="m530.691,449.389c-.125-.25-.227-.695-.305-1.336-1.008,1.047-2.211,1.57-3.609,1.57-1.25,0-2.275-.354-3.076-1.061s-1.201-1.604-1.201-2.689c0-1.32.502-2.346,1.506-3.076s2.416-1.096,4.236-1.096h2.109v-.996c0-.758-.227-1.361-.68-1.811s-1.121-.674-2.004-.674c-.773,0-1.422.195-1.945.586s-.785.863-.785,1.418h-2.18c0-.633.225-1.244.674-1.834s1.059-1.057,1.828-1.4,1.615-.516,2.537-.516c1.461,0,2.605.365,3.434,1.096s1.258,1.736,1.289,3.018v5.836c0,1.164.148,2.09.445,2.777v.188h-2.273Zm-3.598-1.652c.68,0,1.324-.176,1.934-.527s1.051-.809,1.324-1.371v-2.602h-1.699c-2.656,0-3.984.777-3.984,2.332,0,.68.227,1.211.68,1.594s1.035.574,1.746.574Z"/><path class="af" d="m537.968,436.709l.07,1.594c.969-1.219,2.234-1.828,3.797-1.828,2.68,0,4.031,1.512,4.055,4.535v8.379h-2.168v-8.391c-.008-.914-.217-1.59-.627-2.027s-1.049-.656-1.916-.656c-.703,0-1.32.188-1.852.562s-.945.867-1.242,1.477v9.035h-2.168v-12.68h2.051Z"/><path class="af" d="m556.542,446.025c0-.586-.221-1.041-.662-1.365s-1.211-.604-2.309-.838-1.969-.516-2.613-.844-1.121-.719-1.43-1.172-.463-.992-.463-1.617c0-1.039.439-1.918,1.318-2.637s2.002-1.078,3.369-1.078c1.438,0,2.604.371,3.498,1.113s1.342,1.691,1.342,2.848h-2.18c0-.594-.252-1.105-.756-1.535s-1.139-.645-1.904-.645c-.789,0-1.406.172-1.852.516s-.668.793-.668,1.348c0,.523.207.918.621,1.184s1.162.52,2.244.762,1.959.531,2.631.867,1.17.74,1.494,1.213.486,1.049.486,1.729c0,1.133-.453,2.041-1.359,2.725s-2.082,1.025-3.527,1.025c-1.016,0-1.914-.18-2.695-.539s-1.393-.861-1.834-1.506-.662-1.342-.662-2.092h2.168c.039.727.33,1.303.873,1.729s1.26.639,2.15.639c.82,0,1.479-.166,1.975-.498s.744-.775.744-1.33Z"/><path class="af" d="m561.546,433.346c0-.352.107-.648.322-.891s.533-.363.955-.363.742.121.961.363.328.539.328.891-.109.645-.328.879-.539.352-.961.352-.74-.117-.955-.352-.322-.527-.322-.879Zm2.344,16.043h-2.168v-12.68h2.168v12.68Z"/><path class="af" d="m566.785,442.932c0-1.242.244-2.359.732-3.352s1.168-1.758,2.039-2.297,1.866-.809,2.983-.809c1.727,0,3.123.598,4.189,1.793s1.6,2.785,1.6,4.77v.152c0,1.234-.236,2.342-.709,3.322s-1.148,1.744-2.027,2.291-1.889.82-3.029.82c-1.719,0-3.112-.598-4.178-1.793s-1.6-2.777-1.6-4.746v-.152Zm2.18.258c0,1.406.326,2.535.979,3.387s1.526,1.277,2.62,1.277c1.102,0,1.977-.432,2.625-1.295s.973-2.072.973-3.627c0-1.391-.33-2.518-.99-3.381s-1.537-1.295-2.631-1.295c-1.07,0-1.934.426-2.59,1.277s-.984,2.07-.984,3.656Z"/><path class="af" d="m583.098,436.709l.07,1.594c.969-1.219,2.234-1.828,3.797-1.828,2.68,0,4.031,1.512,4.055,4.535v8.379h-2.168v-8.391c-.008-.914-.217-1.59-.627-2.027s-1.049-.656-1.916-.656c-.703,0-1.32.188-1.852.562s-.945.867-1.242,1.477v9.035h-2.168v-12.68h2.051Z"/><path class="af" d="m604.414,446.447l3.141-9.738h2.215l-4.547,12.68h-1.652l-4.594-12.68h2.215l3.223,9.738Z"/><path class="af" d="m619.508,449.389c-.125-.25-.227-.695-.305-1.336-1.008,1.047-2.211,1.57-3.609,1.57-1.25,0-2.275-.354-3.076-1.061s-1.201-1.604-1.201-2.689c0-1.32.502-2.346,1.506-3.076s2.416-1.096,4.236-1.096h2.109v-.996c0-.758-.227-1.361-.68-1.811s-1.121-.674-2.004-.674c-.773,0-1.422.195-1.945.586s-.785.863-.785,1.418h-2.18c0-.633.225-1.244.674-1.834s1.059-1.057,1.828-1.4,1.615-.516,2.537-.516c1.461,0,2.605.365,3.434,1.096s1.258,1.736,1.289,3.018v5.836c0,1.164.148,2.09.445,2.777v.188h-2.273Zm-3.598-1.652c.68,0,1.324-.176,1.934-.527s1.051-.809,1.324-1.371v-2.602h-1.699c-2.656,0-3.984.777-3.984,2.332,0,.68.227,1.211.68,1.594s1.035.574,1.746.574Z"/><path class="af" d="m627.09,449.389h-2.168v-18h2.168v18Z"/><path class="af" d="m634.742,446.447l3.141-9.738h2.215l-4.547,12.68h-1.652l-4.594-12.68h2.215l3.223,9.738Z"/><path class="af" d="m647.293,449.623c-1.719,0-3.117-.564-4.195-1.693s-1.617-2.639-1.617-4.529v-.398c0-1.258.24-2.381.721-3.369s1.152-1.762,2.016-2.32,1.799-.838,2.807-.838c1.648,0,2.93.543,3.844,1.629s1.371,2.641,1.371,4.664v.902h-8.59c.031,1.25.396,2.26,1.096,3.029s1.588,1.154,2.666,1.154c.766,0,1.414-.156,1.945-.469s.996-.727,1.395-1.242l1.324,1.031c-1.062,1.633-2.656,2.449-4.781,2.449Zm-.27-11.367c-.875,0-1.609.318-2.203.955s-.961,1.529-1.102,2.678h6.352v-.164c-.062-1.102-.359-1.955-.891-2.561s-1.25-.908-2.156-.908Z"/><path class="af" d="m743.767,546.044h-7.148l-1.605,4.465h-2.32l6.516-17.062h1.969l6.527,17.062h-2.309l-1.629-4.465Zm-6.469-1.84h5.801l-2.906-7.98-2.895,7.98Z"/></g></svg>