<?xml version="1.0" encoding="UTF-8"?><svg id="a" xmlns="http://www.w3.org/2000/svg" width="1140" height="641" xmlns:xlink="http://www.w3.org/1999/xlink" viewBox="0 0 1140 641"><defs><clipPath id="b"><path d="M1132.251,315.55c0-71.116,34.279-138.068-41.358-191.589C975.541,42.336,783.919,3.14,572.121,3.14c-205.744,0-384.588,36.203-500.616,113.892C-10.228,171.757,5.924,240.166,5.924,314.382c0,76.231-29.537,234.115,56.252,289.556,116.302,75.16,320.267,12.743,522.077,12.743,180.883,0,351.561,33.529,467.21-28.623,108.556-58.341,80.788-185.561,80.788-272.508Z" fill="none" stroke-width="0"/></clipPath></defs><g clip-path="url(#b)"><rect x="-27.454" y="-18.567" width="1175.473" height="578.49" fill="#b3fff9" stroke-width="0"/><path d="M-21.129,289.306h637.452s36.688-22.013,38.522-35.771c1.834-13.758-5.503-30.268-5.503-30.268l-39.439-22.013s17.427-47.694-11.006-70.624c-28.433-22.93-85.299-33.019-85.299-33.019l-131.159,21.096-22.013-43.108s-22.93-20.178-101.809-13.758S79.763,196.669,79.763,196.669l-59.999-19.301-46.396,11.964s-23.847,95.389,5.503,99.975Z" fill="#e9fffd" stroke-width="0"/><path d="M1155.662,232.239h-279.745s-33.019-9.888-33.019-27.315,16.51-33.936,16.51-33.936l44.943-11.924-17.427-28.325s.917-46.885,31.185-54.223,50.446-18.344,50.446-18.344l50.446,17.427,68.79,26.599,69.707,46.777-1.834,83.264Z" fill="#e9fffd" stroke-width="0"/><path d="M946.541,257.204h-156.841s-32.102,19.261-22.013,28.433,48.611,14.675,48.611,14.675l53.197-11.924s62.369,12.841,90.803,6.42,48.611-24.764,48.611-24.764c0,0,3.669-15.592-62.369-12.841Z" fill="#e9fffd" stroke-width="0"/><path d="M250.746,469.689c-.379-11.172-2.606-33.572,11.589-36.84,11.485-2.644,13.443,10.21,21.594,13.918.017-7.026,2.577-15.263,10.988-12.826,2.03-11.536,3.951-18.44,4.204-31.393,6.195,1.203,8.954,5.955,16.289,5.319-.194-4.129,1.337-7.074,4.791-7.443,1.178-3.916.715-8.379.764-12.584,8.528-.188,31.318-9.503,37.618-2.011,3.748,4.457,1.405,16.055,4.735,21.867,4.319.598,8.752-.311,13.074-1.071,3.224,10.177,15.48,18.242,25.667,13.47.332,6.005,3.092,12.782,4.851,18.137,1.607-1.876,4.86-2.789,6.559-4.16,1.772,5.631,7.351,6.496,12.604,5.461,2.291-6.883-.096-14.011,2.823-20.975,5.391-12.863,5.445-1.373,14.182-4.209,3.711-1.204,5.455-9.19,10.229-11.92,17.288-9.885,12.456,10.735,9.544,20.649-.029.068-.087-2.146-.085-2.283,9.45.462,4.318-14.735,17.02-12.155,3.785-14.614,18.177-.457,22.462,6.694,1.221-5.764,1.533-11.494,4.143-16.76.355,1.027,1.91,2.893,2.388,4.588,8.705,1.421,17.496,2.432,26.096,4.196,1.399,4.844,1.683,10.032,3.203,14.911,9.687-8.859,8.167,7.619,8.429,13.075,9.717-1.013,18.204,2.683,20.067,12.97,9.515,1.134,20.043,6.632,28.434,5.469,8.065-1.118,18.534-4.261,22.091-10.288.952-1.613-.896-4.63-.097-6.12,1.8-3.359,5.63-3.083,7.272-5.632,2.828-4.388,3.107-9.799,2.689-14.924.911-.187,1.651-.227,2.534-.433-1.103-3.968-4.082-7.526-4.766-12.019,15.928-2.058,14.348-21.022,26.553-28.003,5.593-3.199,15.813-1.145,21.211-5.388,2.88-2.264,2.081-5.713,4.621-8.039,1.891-1.732,7.623-2.207,10.199-4.155,4.175,6.647,11.838,19.361,17.566,23.676,5.151,3.881,9.625,5.168,13.112,8.85,4.027,4.252,16.169,14.56,17.544,21.198,19.204-.309,32.32,22.97,53.795,13.64,8.06-3.502,4.383-4.318,7.033-12.422.906-2.772,3.695-3.252,4.619-6.864,3.207-12.54.616-24.222,8.438-36.009,6.509-9.808,10.203-13.502,17.011-.978,4.599,8.461,8.901,18.962,12.086,28.05,3.618,10.325,4.757,24.034,11.358,32.777,9.597,12.711,21.196,6.888,35.256,9.579,4.657-10.523,9.321-23.432,12.554-34.327,4.174,3.434,8.975,9.706,8.898,15.611,8.86-12.681,23.638,22.649,28.38,24.271,3.148,1.076,7.285-.82,10.57-.24,4.717.833,7.555,3.735,11.761,4.725,10.878,2.561,15.321-3.643,15.249,12.348,16.666-.085,23.943-8.243,35.926,6.615,7.845,9.727,15.822,16.868,29.073,20.038-10.483,29.346-74.783,40.206-95.788,44.826-78.786,17.327-157.783,11.434-237.224,6.112-88.304-5.916-174.008,1.956-261.545,11.734-43.558,4.865-87.276,7.994-131.132,6.79-22.327-.613-45.308-3.584-60.182-23.032-5.315-6.95-14.248-23.137-9.925-32.682,1.416-3.128,5.329-4.218,6.682-7.571,1.49-3.692.933-8.351,2.32-25.805Z" fill="#8be8c2" stroke-width="0"/><path d="M-12.049,445.55c4.191-11.118,20.127-23.308,31.612-24.545,2.064,3.11,7.244,1.371,11.325,2.52,7.356,2.07,13.583,7.352,18.522,13.403,4.439-2.249,9.673-2.894,14.576-2.282,3.827-9.903,8.418-10.27,14.447-15.614,6.381-5.657,5.715-9.468,14.799-11.594,6.094-1.426,14.63-1.557,20.598.708,16.851-23.89,63.091-22.805,57.126,15.983,10.706-3.638,17.95,7.6,18.9,17.65,11.475-5.984,12.517-.803,22.102,4.553,10.721,5.99,23.661-.893,35.413,3.532,7.984,3.006,13.91,13.774,22.279,15.648,9.357,2.096,17.277-6.739,25.915,2.914,1.596-10.523,9.944-19.928,20.269-21.226,9.521-1.197,13.532,7.633,21.146,8.487,8.137.913,39.725-26.962,41.019-.862,1.695-.79,4.322-.222,5.93-.991.088,1.297,1.138,3.126,1.145,4.59,6.428-1.216,12.684-5.246,18.751-1.036,3.467-4.244,7.942-10.054,11.685-3.188,8.315-3.877,17.148-14.386,27.24-8.614,4.886-11.93,31.355-40.424,38.388-14.502,20.232-15.89,36.104-16.868,45.213,9.745,6.114-4.143,18.989-16.127,23.13-3.491,2.271-2.374,5.009-4.041,8.011-4.813,3.429,4.194,5.682,9.179,8.112,14.051,3.674-1.771,7.056-4.762,11.285-5.519.738,2.604,2.845,4.943,3.726,7.437,3.419-1.509,6.113.734,8.206,3.831,5.463-4.037,10.872-8.172,13.895-13.897,2.168-4.106.491-11.656,6.907-13.923.303,1.356,1.778,3.342,1.97,5.103.753-1.568,2.861-3.054,3.694-4.989.32,1.347,2.426,4.335,2.619,6.865,4.984-4.233,10.641-7.358,17.141-7.157.07,6.439,8.743,13.509,14.321,15.37-.512-8.544-11.542-78.715,13.707-64.643,3.814,2.125,7.876,9.806,10.837,12.891,4.904,5.109,9.616,8.288,12.199,16.787.468-4.216.678-8.571,2.145-12.483.864,2.203,3.512,4.101,4.053,7.196,1.375-3.281,2.738-7.295,5.632-9.144,1.813,4.96,2.523,10.237,3.108,15.503,2.56-3.245,4.58-7.485,7.312-10.904.403,2.011,2.531,4.438,2.789,6.876.991-1.133,4.35-3.215,5.44-4.994.853,1.723,3.241,2.87,3.68,5.873,4.851-5.895,12.942-9.02,16.103.421,10.421-13.527,15.873-5.09,18.403,8.434,14.453-.999,19.951,12.381,29.312,21.065-.28-4.795,1.014-9.635,4.926-12.284,3.819,1.378,6.674,4.245,8.936,7.796,1.001-4.811,2.537-10.209,6.612-12.951,3.443,1.859,6.858,4.189,8.383,7.808,10.492-8.894,18.459-9.408,31.35-5.004,7.478,2.554,22.814,7.863,20.751,18.841,7.439-2.542,37.508-12.733,35.297,4.008,13.816-5.192,27.369-4.728,29.001,14.734,7.663.502,14.804-2.898,22.323-3.026-.027,1.412.771,2.993.701,4.514,13.503-2.135,29.605,9.781,40.175,18.747,4.332-4.977,20.361-15.364,24.221-5.281,5.889-5.698,14.795-12.964,20.607-3.308,5.912-2.84,10.019-7.149,16.88-5.565,4.409,1.018,10.042,6.356,14.361,8.305,3.2,1.445,9.604,5.866,13.479,4.383,5.585-2.137,7.565-11.298,14.532-13.346,2.439,2.953,4.941,5.817,7.536,8.626,2.063-1.329,4.924-2.494,6.467-5.015,6.032,2.725,9.845,9.849,13.115,15.693,12.291-5.069,18.647-12.669,27.267,2.23,12.446-4.141,14.915-9.063,25.36,1.645,3.033,3.11,3.532,5.285,6.951,7.429,1.694,1.062,4.904-2.103,7.213-.713,3.101,1.867,9.564,10.205,12.649,13.172,7.396,7.112,12.226,18.109,20.718,23.909-68.242,30.661-145.38,44.048-218.062,55.013-76.152,11.489-152.761,18.194-229.356,25.536-67.646,6.485-135.632,14.55-203.476,19.207-107.107,7.352-215.345,5.787-322.66,7.719-44.055.793-81.493-9.473-123.82-20.712-19.233-5.107-38.284-6.604-57.718-9.623-10.968-1.703-21.354-1.534-32.451-1.777-10.974-.241-29.15,2.722-38.983-2.449-16.39-8.62-9.654-44.264-10.401-59.403-.766-15.526-3.808-29.51-7.675-44.44-3.193-12.328-4.8-24.324,6.231-33.111" fill="#8be8c2" stroke-width="0"/><line x1="713.848" y1="143.124" x2="748.656" y2="485.758" fill="none" stroke="#6bbef7" stroke-linejoin="round" stroke-width="10"/><line x1="713.848" y1="143.124" x2="675.051" y2="485.758" fill="none" stroke="#6bbef7" stroke-linejoin="round" stroke-width="10"/><line x1="1016.337" y1="416.328" x2="1032.706" y2="485.758" fill="none" stroke="#6bbef7" stroke-linejoin="round" stroke-width="10"/><line x1="1016.337" y1="416.328" x2="999.968" y2="485.758" fill="none" stroke="#6bbef7" stroke-linejoin="round" stroke-width="10"/><line x1="86.693" y1="485.758" x2="86.693" y2="462.615" fill="none" stroke="#0064b7" stroke-linejoin="round" stroke-width="10"/><line x1="713.848" y1="485.758" x2="713.848" y2="138.604" fill="none" stroke="#0064b7" stroke-linejoin="round" stroke-width="10"/><line x1="1016.337" y1="485.758" x2="1016.337" y2="416.328" fill="none" stroke="#0064b7" stroke-linejoin="round" stroke-width="10"/><path d="M-24.94,446.051h103.909c10.773,0,21.504-2.649,31.039-7.663L680.537,128.446c21.52-11.692,47.917-8.219,65.682,8.644l.843.861,221.913,243.674c10.5,11.528,25.466,18.141,41.059,18.141h138.29" fill="none" stroke="#d3003c" stroke-miterlimit="10" stroke-width="3"/><line x1="4.252" y1="462.615" x2="4.252" y2="446.051" fill="none" stroke="#d3003c" stroke-linejoin="round" stroke-width="3"/><line x1="20.302" y1="462.615" x2="20.302" y2="446.051" fill="none" stroke="#d3003c" stroke-linejoin="round" stroke-width="3"/><line x1="36.352" y1="462.615" x2="36.352" y2="446.051" fill="none" stroke="#d3003c" stroke-linejoin="round" stroke-width="3"/><line x1="52.402" y1="462.615" x2="52.402" y2="446.051" fill="none" stroke="#d3003c" stroke-linejoin="round" stroke-width="3"/><line x1="68.452" y1="462.615" x2="68.452" y2="446.051" fill="none" stroke="#d3003c" stroke-linejoin="round" stroke-width="3"/><line x1="84.502" y1="462.615" x2="84.502" y2="446.051" fill="none" stroke="#d3003c" stroke-linejoin="round" stroke-width="3"/><line x1="98.418" y1="460.405" x2="94.717" y2="444.261" fill="none" stroke="#d3003c" stroke-linejoin="round" stroke-width="3"/><line x1="112.98" y1="455.885" x2="105.279" y2="441.221" fill="none" stroke="#d3003c" stroke-linejoin="round" stroke-width="3"/><line x1="126.017" y1="448.777" x2="118.316" y2="434.113" fill="none" stroke="#d3003c" stroke-linejoin="round" stroke-width="3"/><line x1="139.054" y1="441.669" x2="131.353" y2="427.005" fill="none" stroke="#d3003c" stroke-linejoin="round" stroke-width="3"/><line x1="152.091" y1="434.561" x2="144.39" y2="419.896" fill="none" stroke="#d3003c" stroke-linejoin="round" stroke-width="3"/><line x1="165.128" y1="427.452" x2="157.427" y2="412.788" fill="none" stroke="#d3003c" stroke-linejoin="round" stroke-width="3"/><line x1="178.165" y1="420.344" x2="170.464" y2="405.68" fill="none" stroke="#d3003c" stroke-linejoin="round" stroke-width="3"/><line x1="191.202" y1="413.236" x2="183.501" y2="398.572" fill="none" stroke="#d3003c" stroke-linejoin="round" stroke-width="3"/><line x1="204.239" y1="406.128" x2="196.538" y2="391.464" fill="none" stroke="#d3003c" stroke-linejoin="round" stroke-width="3"/><line x1="217.276" y1="399.02" x2="209.575" y2="384.355" fill="none" stroke="#d3003c" stroke-linejoin="round" stroke-width="3"/><line x1="230.313" y1="391.911" x2="222.612" y2="377.247" fill="none" stroke="#d3003c" stroke-linejoin="round" stroke-width="3"/><line x1="243.35" y1="384.803" x2="235.649" y2="370.139" fill="none" stroke="#d3003c" stroke-linejoin="round" stroke-width="3"/><line x1="256.387" y1="377.695" x2="248.686" y2="363.031" fill="none" stroke="#d3003c" stroke-linejoin="round" stroke-width="3"/><line x1="269.424" y1="370.587" x2="261.723" y2="355.922" fill="none" stroke="#d3003c" stroke-linejoin="round" stroke-width="3"/><line x1="282.461" y1="363.479" x2="274.76" y2="348.814" fill="none" stroke="#d3003c" stroke-linejoin="round" stroke-width="3"/><line x1="295.498" y1="356.37" x2="287.797" y2="341.706" fill="none" stroke="#d3003c" stroke-linejoin="round" stroke-width="3"/><line x1="308.535" y1="349.262" x2="300.834" y2="334.598" fill="none" stroke="#d3003c" stroke-linejoin="round" stroke-width="3"/><line x1="321.572" y1="342.154" x2="313.871" y2="327.49" fill="none" stroke="#d3003c" stroke-linejoin="round" stroke-width="3"/><line x1="334.609" y1="335.046" x2="326.908" y2="320.381" fill="none" stroke="#d3003c" stroke-linejoin="round" stroke-width="3"/><line x1="347.646" y1="327.937" x2="339.945" y2="313.273" fill="none" stroke="#d3003c" stroke-linejoin="round" stroke-width="3"/><line x1="360.683" y1="320.829" x2="352.982" y2="306.165" fill="none" stroke="#d3003c" stroke-linejoin="round" stroke-width="3"/><line x1="373.72" y1="313.721" x2="366.019" y2="299.057" fill="none" stroke="#d3003c" stroke-linejoin="round" stroke-width="3"/><line x1="386.757" y1="306.613" x2="379.056" y2="291.949" fill="none" stroke="#d3003c" stroke-linejoin="round" stroke-width="3"/><line x1="399.794" y1="299.505" x2="392.093" y2="284.84" fill="none" stroke="#d3003c" stroke-linejoin="round" stroke-width="3"/><line x1="412.831" y1="292.396" x2="405.13" y2="277.732" fill="none" stroke="#d3003c" stroke-linejoin="round" stroke-width="3"/><line x1="425.868" y1="285.288" x2="418.167" y2="270.624" fill="none" stroke="#d3003c" stroke-linejoin="round" stroke-width="3"/><line x1="438.905" y1="278.18" x2="431.204" y2="263.516" fill="none" stroke="#d3003c" stroke-linejoin="round" stroke-width="3"/><line x1="451.942" y1="271.072" x2="444.241" y2="256.407" fill="none" stroke="#d3003c" stroke-linejoin="round" stroke-width="3"/><line x1="464.979" y1="263.964" x2="457.278" y2="249.299" fill="none" stroke="#d3003c" stroke-linejoin="round" stroke-width="3"/><line x1="478.016" y1="256.855" x2="470.315" y2="242.191" fill="none" stroke="#d3003c" stroke-linejoin="round" stroke-width="3"/><line x1="491.053" y1="249.747" x2="483.352" y2="235.083" fill="none" stroke="#d3003c" stroke-linejoin="round" stroke-width="3"/><line x1="504.09" y1="242.639" x2="496.389" y2="227.975" fill="none" stroke="#d3003c" stroke-linejoin="round" stroke-width="3"/><line x1="517.127" y1="235.531" x2="509.426" y2="220.866" fill="none" stroke="#d3003c" stroke-linejoin="round" stroke-width="3"/><line x1="530.164" y1="228.422" x2="522.463" y2="213.758" fill="none" stroke="#d3003c" stroke-linejoin="round" stroke-width="3"/><line x1="543.201" y1="221.314" x2="535.5" y2="206.65" fill="none" stroke="#d3003c" stroke-linejoin="round" stroke-width="3"/><line x1="556.238" y1="214.206" x2="548.538" y2="199.542" fill="none" stroke="#d3003c" stroke-linejoin="round" stroke-width="3"/><line x1="569.276" y1="207.098" x2="561.575" y2="192.434" fill="none" stroke="#d3003c" stroke-linejoin="round" stroke-width="3"/><line x1="582.313" y1="199.99" x2="574.612" y2="185.325" fill="none" stroke="#d3003c" stroke-linejoin="round" stroke-width="3"/><line x1="595.35" y1="192.881" x2="587.649" y2="178.217" fill="none" stroke="#d3003c" stroke-linejoin="round" stroke-width="3"/><line x1="608.387" y1="185.773" x2="600.686" y2="171.109" fill="none" stroke="#d3003c" stroke-linejoin="round" stroke-width="3"/><line x1="621.424" y1="178.665" x2="613.723" y2="164.001" fill="none" stroke="#d3003c" stroke-linejoin="round" stroke-width="3"/><line x1="634.461" y1="171.557" x2="626.76" y2="156.893" fill="none" stroke="#d3003c" stroke-linejoin="round" stroke-width="3"/><line x1="647.498" y1="164.449" x2="639.797" y2="149.784" fill="none" stroke="#d3003c" stroke-linejoin="round" stroke-width="3"/><line x1="660.535" y1="157.34" x2="652.834" y2="142.676" fill="none" stroke="#d3003c" stroke-linejoin="round" stroke-width="3"/><line x1="673.572" y1="150.232" x2="665.871" y2="135.568" fill="none" stroke="#d3003c" stroke-linejoin="round" stroke-width="3"/><line x1="686.609" y1="143.124" x2="678.908" y2="128.46" fill="none" stroke="#d3003c" stroke-linejoin="round" stroke-width="3"/><line x1="698.594" y1="139.025" x2="692.773" y2="123.518" fill="none" stroke="#d3003c" stroke-linejoin="round" stroke-width="3"/><line x1="710.158" y1="138.448" x2="709.838" y2="121.887" fill="none" stroke="#d3003c" stroke-linejoin="round" stroke-width="3"/><line x1="719.675" y1="139.074" x2="725.227" y2="123.469" fill="none" stroke="#d3003c" stroke-linejoin="round" stroke-width="3"/><line x1="728.362" y1="144.904" x2="739.016" y2="130.445" fill="none" stroke="#d3003c" stroke-linejoin="round" stroke-width="3"/><line x1="738.577" y1="155.988" x2="749.278" y2="141.609" fill="none" stroke="#d3003c" stroke-linejoin="round" stroke-width="3"/><line x1="748.791" y1="167.073" x2="759.539" y2="152.773" fill="none" stroke="#d3003c" stroke-linejoin="round" stroke-width="3"/><line x1="759.006" y1="178.157" x2="769.8" y2="163.938" fill="none" stroke="#d3003c" stroke-linejoin="round" stroke-width="3"/><line x1="769.22" y1="189.241" x2="780.061" y2="175.102" fill="none" stroke="#d3003c" stroke-linejoin="round" stroke-width="3"/><line x1="779.435" y1="200.326" x2="790.322" y2="186.267" fill="none" stroke="#d3003c" stroke-linejoin="round" stroke-width="3"/><line x1="789.649" y1="211.41" x2="800.583" y2="197.431" fill="none" stroke="#d3003c" stroke-linejoin="round" stroke-width="3"/><line x1="799.864" y1="222.495" x2="810.845" y2="208.595" fill="none" stroke="#d3003c" stroke-linejoin="round" stroke-width="3"/><line x1="810.078" y1="233.579" x2="821.106" y2="219.76" fill="none" stroke="#d3003c" stroke-linejoin="round" stroke-width="3"/><line x1="820.293" y1="244.664" x2="831.367" y2="230.924" fill="none" stroke="#d3003c" stroke-linejoin="round" stroke-width="3"/><line x1="830.507" y1="255.748" x2="841.628" y2="242.089" fill="none" stroke="#d3003c" stroke-linejoin="round" stroke-width="3"/><line x1="840.722" y1="266.832" x2="851.889" y2="253.253" fill="none" stroke="#d3003c" stroke-linejoin="round" stroke-width="3"/><line x1="850.936" y1="277.917" x2="862.15" y2="264.417" fill="none" stroke="#d3003c" stroke-linejoin="round" stroke-width="3"/><line x1="861.151" y1="289.001" x2="872.412" y2="275.582" fill="none" stroke="#d3003c" stroke-linejoin="round" stroke-width="3"/><line x1="871.365" y1="300.086" x2="882.673" y2="286.746" fill="none" stroke="#d3003c" stroke-linejoin="round" stroke-width="3"/><line x1="881.58" y1="311.17" x2="892.934" y2="297.911" fill="none" stroke="#d3003c" stroke-linejoin="round" stroke-width="3"/><line x1="891.794" y1="322.255" x2="903.195" y2="309.075" fill="none" stroke="#d3003c" stroke-linejoin="round" stroke-width="3"/><line x1="902.009" y1="333.339" x2="913.456" y2="320.239" fill="none" stroke="#d3003c" stroke-linejoin="round" stroke-width="3"/><line x1="912.223" y1="344.423" x2="923.717" y2="331.404" fill="none" stroke="#d3003c" stroke-linejoin="round" stroke-width="3"/><line x1="922.438" y1="355.508" x2="933.979" y2="342.568" fill="none" stroke="#d3003c" stroke-linejoin="round" stroke-width="3"/><line x1="932.652" y1="366.592" x2="944.24" y2="353.733" fill="none" stroke="#d3003c" stroke-linejoin="round" stroke-width="3"/><line x1="942.867" y1="377.677" x2="954.501" y2="364.897" fill="none" stroke="#d3003c" stroke-linejoin="round" stroke-width="3"/><line x1="953.081" y1="388.761" x2="964.762" y2="376.061" fill="none" stroke="#d3003c" stroke-linejoin="round" stroke-width="3"/><line x1="963.296" y1="399.846" x2="975.023" y2="387.226" fill="none" stroke="#d3003c" stroke-linejoin="round" stroke-width="3"/><line x1="1017.591" y1="416.775" x2="1017.381" y2="400.213" fill="none" stroke="#d3003c" stroke-linejoin="round" stroke-width="3"/><line x1="1033.311" y1="416.775" x2="1033.101" y2="400.213" fill="none" stroke="#d3003c" stroke-linejoin="round" stroke-width="3"/><line x1="1049.03" y1="416.775" x2="1048.82" y2="400.213" fill="none" stroke="#d3003c" stroke-linejoin="round" stroke-width="3"/><line x1="1064.749" y1="416.775" x2="1064.539" y2="400.213" fill="none" stroke="#d3003c" stroke-linejoin="round" stroke-width="3"/><line x1="1080.469" y1="416.775" x2="1080.259" y2="400.213" fill="none" stroke="#d3003c" stroke-linejoin="round" stroke-width="3"/><line x1="1096.188" y1="416.775" x2="1095.978" y2="400.213" fill="none" stroke="#d3003c" stroke-linejoin="round" stroke-width="3"/><line x1="1111.908" y1="416.775" x2="1111.698" y2="400.213" fill="none" stroke="#d3003c" stroke-linejoin="round" stroke-width="3"/><line x1="1127.627" y1="416.775" x2="1127.417" y2="400.213" fill="none" stroke="#d3003c" stroke-linejoin="round" stroke-width="3"/><line x1="1004.101" y1="416.742" x2="1005.579" y2="400.245" fill="none" stroke="#d3003c" stroke-linejoin="round" stroke-width="3"/><line x1="989.212" y1="413.736" x2="994.501" y2="398.039" fill="none" stroke="#d3003c" stroke-linejoin="round" stroke-width="3"/><line x1="976.253" y1="407.347" x2="984.774" y2="393.143" fill="none" stroke="#d3003c" stroke-linejoin="round" stroke-width="3"/><rect x="-29.357" y="485.758" width="1177.681" height="235.089" fill="#74e28b" stroke-width="0"/><path d="M1148.325,416.328h-138.29c-20.29,0-39.642-8.55-53.304-23.552l-221.914-243.673c-12.503-11.868-31.226-14.332-46.374-6.103L117.816,452.997c-11.974,6.316-25.309,9.617-38.847,9.617H-24.94" fill="none" stroke="#d3003c" stroke-miterlimit="10" stroke-width="5"/><path d="M90.753,429.576h-7.148l-1.605,4.465h-2.32l6.516-17.062h1.969l6.527,17.062h-2.309l-1.629-4.465ZM84.285,427.736h5.801l-2.906-7.98-2.895,7.98Z" stroke-width="0"/><path d="M112.811,476.438h2.367v1.77h-2.367v3.961h-2.18v-3.961h-7.77v-1.277l7.641-11.824h2.309v11.332ZM105.323,476.438h5.309v-8.367l-.258.469-5.051,7.898Z" stroke-width="0"/><path d="M117.405,481.032c0-.375.111-.688.334-.938s.557-.375,1.002-.375.783.125,1.014.375.346.562.346.938c0,.359-.115.66-.346.902s-.568.363-1.014.363-.779-.121-1.002-.363-.334-.543-.334-.902Z" stroke-width="0"/><path d="M134.151,474.892c0,2.539-.434,4.426-1.301,5.66s-2.223,1.852-4.066,1.852c-1.82,0-3.168-.604-4.043-1.811s-1.328-3.01-1.359-5.408v-2.895c0-2.508.434-4.371,1.301-5.59s2.227-1.828,4.078-1.828c1.836,0,3.188.588,4.055,1.764s1.312,2.99,1.336,5.443v2.812ZM131.983,471.927c0-1.836-.258-3.174-.773-4.014s-1.332-1.26-2.449-1.26c-1.109,0-1.918.418-2.426,1.254s-.77,2.121-.785,3.855v3.469c0,1.844.268,3.205.803,4.084s1.346,1.318,2.432,1.318c1.07,0,1.865-.414,2.385-1.242s.791-2.133.814-3.914v-3.551Z" stroke-width="0"/><path d="M145.131,469.489l.059,1.406c.93-1.094,2.184-1.641,3.762-1.641,1.773,0,2.98.68,3.621,2.039.422-.609.971-1.102,1.646-1.477s1.475-.562,2.396-.562c2.781,0,4.195,1.473,4.242,4.418v8.496h-2.168v-8.367c0-.906-.207-1.584-.621-2.033s-1.109-.674-2.086-.674c-.805,0-1.473.24-2.004.721s-.84,1.127-.926,1.939v8.414h-2.18v-8.309c0-1.844-.902-2.766-2.707-2.766-1.422,0-2.395.605-2.918,1.816v9.258h-2.168v-12.68h2.051Z" stroke-width="0"/><path d="M750.263,328.372v1.84h-.398c-1.688.031-3.031.531-4.031,1.5s-1.578,2.332-1.734,4.09c.898-1.031,2.125-1.547,3.68-1.547,1.484,0,2.67.523,3.557,1.57s1.33,2.398,1.33,4.055c0,1.758-.479,3.164-1.436,4.219s-2.24,1.582-3.85,1.582c-1.633,0-2.957-.627-3.973-1.881s-1.523-2.869-1.523-4.846v-.832c0-3.141.67-5.541,2.01-7.201s3.334-2.51,5.982-2.549h.387ZM747.415,336.06c-.742,0-1.426.223-2.051.668s-1.059,1.004-1.301,1.676v.797c0,1.406.316,2.539.949,3.398s1.422,1.289,2.367,1.289c.977,0,1.744-.359,2.303-1.078s.838-1.66.838-2.824c0-1.172-.283-2.119-.85-2.842s-1.318-1.084-2.256-1.084Z" stroke-width="0"/><path d="M765.931,338.169c0,2.539-.434,4.426-1.301,5.66s-2.223,1.852-4.066,1.852c-1.82,0-3.168-.604-4.043-1.811s-1.328-3.01-1.359-5.408v-2.895c0-2.508.434-4.371,1.301-5.59s2.227-1.828,4.078-1.828c1.836,0,3.188.588,4.055,1.764s1.312,2.99,1.336,5.443v2.812ZM763.763,335.204c0-1.836-.258-3.174-.773-4.014s-1.332-1.26-2.449-1.26c-1.109,0-1.918.418-2.426,1.254s-.77,2.121-.785,3.855v3.469c0,1.844.268,3.205.803,4.084s1.346,1.318,2.432,1.318c1.07,0,1.865-.414,2.385-1.242s.791-2.133.814-3.914v-3.551Z" stroke-width="0"/><path d="M768.978,344.31c0-.375.111-.688.334-.938s.557-.375,1.002-.375.783.125,1.014.375.346.562.346.938c0,.359-.115.66-.346.902s-.568.363-1.014.363-.779-.121-1.002-.363-.334-.543-.334-.902Z" stroke-width="0"/><path d="M785.724,338.169c0,2.539-.434,4.426-1.301,5.66s-2.223,1.852-4.066,1.852c-1.82,0-3.168-.604-4.043-1.811s-1.328-3.01-1.359-5.408v-2.895c0-2.508.434-4.371,1.301-5.59s2.227-1.828,4.078-1.828c1.836,0,3.188.588,4.055,1.764s1.312,2.99,1.336,5.443v2.812ZM783.556,335.204c0-1.836-.258-3.174-.773-4.014s-1.332-1.26-2.449-1.26c-1.109,0-1.918.418-2.426,1.254s-.77,2.121-.785,3.855v3.469c0,1.844.268,3.205.803,4.084s1.346,1.318,2.432,1.318c1.07,0,1.865-.414,2.385-1.242s.791-2.133.814-3.914v-3.551Z" stroke-width="0"/><path d="M796.704,332.767l.059,1.406c.93-1.094,2.184-1.641,3.762-1.641,1.773,0,2.98.68,3.621,2.039.422-.609.971-1.102,1.646-1.477s1.475-.562,2.396-.562c2.781,0,4.195,1.473,4.242,4.418v8.496h-2.168v-8.367c0-.906-.207-1.584-.621-2.033s-1.109-.674-2.086-.674c-.805,0-1.473.24-2.004.721s-.84,1.127-.926,1.939v8.414h-2.18v-8.309c0-1.844-.902-2.766-2.707-2.766-1.422,0-2.395.605-2.918,1.816v9.258h-2.168v-12.68h2.051Z" stroke-width="0"/><path d="M303.091,255.816h-2.18v-14.449l-4.371,1.605v-1.969l6.211-2.332h.34v17.145Z" stroke-width="0"/><path d="M320.623,255.816h-11.18v-1.559l5.906-6.562c.875-.992,1.479-1.799,1.811-2.42s.498-1.264.498-1.928c0-.891-.27-1.621-.809-2.191s-1.258-.855-2.156-.855c-1.078,0-1.916.307-2.514.92s-.896,1.467-.896,2.561h-2.168c0-1.57.506-2.84,1.518-3.809s2.365-1.453,4.061-1.453c1.586,0,2.84.416,3.762,1.248s1.383,1.939,1.383,3.322c0,1.68-1.07,3.68-3.211,6l-4.57,4.957h8.566v1.77Z" stroke-width="0"/><path d="M333.619,248.539c0,2.539-.434,4.426-1.301,5.66s-2.223,1.852-4.066,1.852c-1.82,0-3.168-.604-4.043-1.811s-1.328-3.01-1.359-5.408v-2.895c0-2.508.434-4.371,1.301-5.59s2.227-1.828,4.078-1.828c1.836,0,3.188.588,4.055,1.764s1.312,2.99,1.336,5.443v2.812ZM331.451,245.574c0-1.836-.258-3.174-.773-4.014s-1.332-1.26-2.449-1.26c-1.109,0-1.918.418-2.426,1.254s-.77,2.121-.785,3.855v3.469c0,1.844.268,3.205.803,4.084s1.346,1.318,2.432,1.318c1.07,0,1.865-.414,2.385-1.242s.791-2.133.814-3.914v-3.551Z" stroke-width="0"/><path d="M336.666,254.679c0-.375.111-.688.334-.938s.557-.375,1.002-.375.783.125,1.014.375.346.562.346.938c0,.359-.115.66-.346.902s-.568.363-1.014.363-.779-.121-1.002-.363-.334-.543-.334-.902Z" stroke-width="0"/><path d="M353.412,248.539c0,2.539-.434,4.426-1.301,5.66s-2.223,1.852-4.066,1.852c-1.82,0-3.168-.604-4.043-1.811s-1.328-3.01-1.359-5.408v-2.895c0-2.508.434-4.371,1.301-5.59s2.227-1.828,4.078-1.828c1.836,0,3.188.588,4.055,1.764s1.312,2.99,1.336,5.443v2.812ZM351.244,245.574c0-1.836-.258-3.174-.773-4.014s-1.332-1.26-2.449-1.26c-1.109,0-1.918.418-2.426,1.254s-.77,2.121-.785,3.855v3.469c0,1.844.268,3.205.803,4.084s1.346,1.318,2.432,1.318c1.07,0,1.865-.414,2.385-1.242s.791-2.133.814-3.914v-3.551Z" stroke-width="0"/><path d="M364.392,243.136l.059,1.406c.93-1.094,2.184-1.641,3.762-1.641,1.773,0,2.98.68,3.621,2.039.422-.609.971-1.102,1.646-1.477s1.475-.562,2.396-.562c2.781,0,4.195,1.473,4.242,4.418v8.496h-2.168v-8.367c0-.906-.207-1.584-.621-2.033s-1.109-.674-2.086-.674c-.805,0-1.473.24-2.004.721s-.84,1.127-.926,1.939v8.414h-2.18v-8.309c0-1.844-.902-2.766-2.707-2.766-1.422,0-2.395.605-2.918,1.816v9.258h-2.168v-12.68h2.051Z" stroke-width="0"/><path d="M1041.25,458.622h-2.18v-14.449l-4.371,1.605v-1.969l6.211-2.332h.34v17.145Z" stroke-width="0"/><path d="M1058.781,458.622h-11.18v-1.559l5.906-6.562c.875-.992,1.479-1.799,1.811-2.42s.498-1.264.498-1.928c0-.891-.27-1.621-.809-2.191s-1.258-.855-2.156-.855c-1.078,0-1.916.307-2.514.92s-.896,1.467-.896,2.561h-2.168c0-1.57.506-2.84,1.518-3.809s2.365-1.453,4.061-1.453c1.586,0,2.84.416,3.762,1.248s1.383,1.939,1.383,3.322c0,1.68-1.07,3.68-3.211,6l-4.57,4.957h8.566v1.77Z" stroke-width="0"/><path d="M1061.348,457.485c0-.375.111-.688.334-.938s.557-.375,1.002-.375.783.125,1.014.375.346.562.346.938c0,.359-.115.66-.346.902s-.568.363-1.014.363-.779-.121-1.002-.363-.334-.543-.334-.902Z" stroke-width="0"/><path d="M1078.094,451.345c0,2.539-.434,4.426-1.301,5.66s-2.223,1.852-4.066,1.852c-1.82,0-3.168-.604-4.043-1.811s-1.328-3.01-1.359-5.408v-2.895c0-2.508.434-4.371,1.301-5.59s2.227-1.828,4.078-1.828c1.836,0,3.188.588,4.055,1.764s1.312,2.99,1.336,5.443v2.812ZM1075.926,448.38c0-1.836-.258-3.174-.773-4.014s-1.332-1.26-2.449-1.26c-1.109,0-1.918.418-2.426,1.254s-.77,2.121-.785,3.855v3.469c0,1.844.268,3.205.803,4.084s1.346,1.318,2.432,1.318c1.07,0,1.865-.414,2.385-1.242s.791-2.133.814-3.914v-3.551Z" stroke-width="0"/><path d="M1089.074,445.942l.059,1.406c.93-1.094,2.184-1.641,3.762-1.641,1.773,0,2.98.68,3.621,2.039.422-.609.971-1.102,1.646-1.477s1.475-.562,2.396-.562c2.781,0,4.195,1.473,4.242,4.418v8.496h-2.168v-8.367c0-.906-.207-1.584-.621-2.033s-1.109-.674-2.086-.674c-.805,0-1.473.24-2.004.721s-.84,1.127-.926,1.939v8.414h-2.18v-8.309c0-1.844-.902-2.766-2.707-2.766-1.422,0-2.395.605-2.918,1.816v9.258h-2.168v-12.68h2.051Z" stroke-width="0"/><path d="M706.39,105.905v-17.062h4.842c1.607,0,2.815.383,3.626,1.148s1.216,1.898,1.216,3.398c0,.797-.197,1.502-.59,2.115-.394.613-.93,1.088-1.607,1.424.8.258,1.433.748,1.897,1.471.464.723.696,1.584.696,2.584,0,1.531-.431,2.734-1.292,3.609s-2.078,1.312-3.651,1.312h-5.137ZM708.343,96.12h2.95c.854,0,1.537-.247,2.049-.74.513-.493.769-1.163.769-2.008,0-.939-.237-1.623-.712-2.049s-1.197-.64-2.167-.64h-2.889v5.438ZM708.343,97.924v6.141h3.225c.908,0,1.626-.271,2.151-.814s.788-1.291.788-2.244c0-2.055-.97-3.082-2.909-3.082h-3.255Z" stroke-width="0"/><path d="M1020.111,377.736c-.211,1.805-.877,3.197-1.998,4.178s-2.611,1.471-4.471,1.471c-2.016,0-3.631-.723-4.846-2.168s-1.822-3.379-1.822-5.801v-1.641c0-1.586.283-2.98.85-4.184s1.369-2.127,2.408-2.771,2.242-.967,3.609-.967c1.812,0,3.266.506,4.359,1.518s1.73,2.412,1.91,4.201h-2.262c-.195-1.363-.619-2.351-1.271-2.962s-1.564-.917-2.736-.917c-1.438,0-2.564.531-3.381,1.596-.816,1.062-1.225,2.576-1.225,4.538v1.654c0,1.853.387,3.327,1.16,4.422s1.855,1.642,3.246,1.642c1.25,0,2.209-.283,2.877-.85s1.111-1.553,1.33-2.959h2.262Z" stroke-width="0"/><line x1="112.362" y1="411.354" x2="672.636" y2="111.325" fill="none" stroke="#050505" stroke-linecap="round" stroke-linejoin="round" stroke-width="2"/><polygon points="118.187 417.286 102.24 416.775 110.654 403.219 118.187 417.286" fill="#050505" stroke-width="0"/><polygon points="674.345 119.46 682.758 105.905 666.812 105.394 674.345 119.46" fill="#050505" stroke-width="0"/></g></svg>