<?xml version="1.0" encoding="utf-8"?>
<!-- Generator: Adobe Illustrator 25.4.1, SVG Export Plug-In . SVG Version: 6.00 Build 0)  -->
<svg version="1.1" id="Layer_1" xmlns="http://www.w3.org/2000/svg" xmlns:xlink="http://www.w3.org/1999/xlink" x="0px" y="0px"
	 width="100px" height="100px" viewBox="0 0 100 100" style="enable-background:new 0 0 100 100;" xml:space="preserve">
<title>Artboard 2</title>
<g id="labActivity">
	<circle style="fill:#EFFCEA;stroke:#0E8A16;stroke-width:1.74;stroke-miterlimit:10;" cx="50" cy="50.01" r="46.67"/>
</g>
<g>
	<path style="opacity:0.15;fill:#0E8A16;" d="M36.48,55.078c0,0.001-0.001,0.001-0.002,0.002L28.25,69.72
		c-1.029,1.831-1.076,3.984-0.145,5.84c0.062,0.124,0.128,0.246,0.199,0.367c0.071,0.121,0.145,0.239,0.222,0.353
		c1.162,1.72,3.062,2.735,5.162,2.735h28.054c2.24,0,4.253-1.154,5.384-3.088c1.131-1.934,1.151-4.254,0.053-6.206L54.14,46.524
		V31.73h2.004v-5.672h-16.86v5.672h2.004v14.794L36.48,55.078z"/>
	<g>
		<g>
			<path style="fill:#EFFCEA;stroke:#0E8A16;stroke-width:1.738;stroke-miterlimit:10;" d="M55.754,44.269V28.378H44.64v15.891
				L31.49,67.662c-2.012,3.579,0.575,7.999,4.68,7.999h28.054c4.105,0,6.692-4.421,4.68-7.999L55.754,44.269z"/>
			
				<rect x="42.636" y="24.445" style="fill:#EFFCEA;stroke:#0E8A16;stroke-width:1.738;stroke-miterlimit:10;" width="15.123" height="3.933"/>
			
				<path style="fill:#90D966;stroke:#0E8A16;stroke-width:1.738;stroke-linecap:round;stroke-linejoin:round;stroke-miterlimit:10;" d="
				M60.675,53.023H39.719L31.49,67.662c-2.012,3.579,0.575,7.999,4.68,7.999h28.054c4.105,0,6.692-4.421,4.68-7.999L60.675,53.023z"
				/>
			
				<line style="fill:none;stroke:#FAFAFA;stroke-width:1.738;stroke-linecap:round;stroke-linejoin:round;stroke-miterlimit:10;" x1="57.312" y1="56.463" x2="63.825" y2="67.411"/>
			
				<line style="fill:none;stroke:#0E8A16;stroke-width:1.738;stroke-linecap:round;stroke-linejoin:round;stroke-miterlimit:10;" x1="47.987" y1="33.893" x2="47.987" y2="39.735"/>
			
				<line style="fill:none;stroke:#0E8A16;stroke-width:1.738;stroke-linecap:round;stroke-linejoin:round;stroke-miterlimit:10;" x1="45.367" y1="50.069" x2="38.279" y2="62.679"/>
		</g>
	</g>
</g>
</svg>
