<svg id="Layer_1" data-name="Layer 1" xmlns="http://www.w3.org/2000/svg" viewBox="0 0 444 150"><defs><style>.cls-1{fill:#0a76a5;}.cls-2{font-size:44px;font-family:Arial-BoldMT, Arial;font-weight:700;}.cls-2,.cls-4{fill:#fff;}.cls-3{letter-spacing:-0.06em;}</style></defs><rect class="cls-1" width="444" height="150" rx="75"/><text class="cls-2" transform="translate(110 63.5)"><tspan class="cls-3">T</tspan><tspan x="24.45" y="0">ransferable</tspan><tspan x="0" y="52.8">Skills Survey</tspan></text><path class="cls-4" d="M155.59,149.39v-1.3a1.94,1.94,0,0,1,1.94-1.94h29.12v-3.88A1.94,1.94,0,0,1,190,140.9l6.47,6.47a1.93,1.93,0,0,1,0,2.74L190,156.58a1.94,1.94,0,0,1-3.31-1.37v-3.88H157.53A1.94,1.94,0,0,1,155.59,149.39Zm39.47,12.29H165.94V157.8a1.94,1.94,0,0,0-3.31-1.38l-6.47,6.47a1.94,1.94,0,0,0,0,2.75l6.47,6.47a1.94,1.94,0,0,0,3.31-1.37v-3.88h29.12a1.94,1.94,0,0,0,1.94-2v-1.29A1.94,1.94,0,0,0,195.06,161.68Z" transform="translate(-96 -109)"/></svg>