<?xml version="1.0" encoding="utf-8"?>
<!-- Generator: Adobe Illustrator 25.4.1, SVG Export Plug-In . SVG Version: 6.00 Build 0)  -->
<svg version="1.1" id="Layer_1" xmlns="http://www.w3.org/2000/svg" xmlns:xlink="http://www.w3.org/1999/xlink" x="0px" y="0px"
	 width="100px" height="100px" viewBox="0 0 100 100" style="enable-background:new 0 0 100 100;" xml:space="preserve">
<title>Artboard 2</title>
<g id="assessment">
	<circle style="fill:#EFFCEA;stroke:#0E8A16;stroke-width:1.74;stroke-miterlimit:10;" cx="50" cy="50" r="46.67"/>
</g>
<path style="opacity:0.15;fill:#0E8A16;" d="M72.599,29.49c-0.329-0.329-0.912-0.329-1.241,0l-9.331,9.332V27.782
	c0-0.484-0.393-0.877-0.877-0.877H23.551c-0.485,0-0.877,0.393-0.877,0.877v49.449c0,0.484,0.393,0.877,0.877,0.877h37.598
	c0.485,0,0.877-0.393,0.877-0.877V52.249l16.046-16.046c0.343-0.342,0.343-0.898,0-1.241L72.599,29.49z"/>
<g>
	<g>
		
			<rect x="26.058" y="25.276" style="fill:#FFFFFF;stroke:#0E8A16;stroke-width:1.7547;stroke-linejoin:round;stroke-miterlimit:10;" width="37.598" height="49.449"/>
		
			<polyline style="fill:none;stroke:#0E8A16;stroke-width:1.7547;stroke-linecap:round;stroke-linejoin:round;stroke-miterlimit:10;" points="
			50.456,36.775 53.398,39.717 59.281,33.834 		"/>
		
			<line style="fill:none;stroke:#0E8A16;stroke-width:1.7547;stroke-linecap:round;stroke-linejoin:round;stroke-miterlimit:10;" x1="31.41" y1="37.5" x2="45.362" y2="37.5"/>
		
			<line style="fill:none;stroke:#0E8A16;stroke-width:1.7547;stroke-linecap:round;stroke-linejoin:round;stroke-miterlimit:10;" x1="31.41" y1="45.856" x2="45.362" y2="45.856"/>
		
			<line style="fill:none;stroke:#0E8A16;stroke-width:1.7547;stroke-linecap:round;stroke-linejoin:round;stroke-miterlimit:10;" x1="31.41" y1="54.211" x2="45.362" y2="54.211"/>
		
			<line style="fill:none;stroke:#0E8A16;stroke-width:1.7547;stroke-linecap:round;stroke-linejoin:round;stroke-miterlimit:10;" x1="31.41" y1="62.567" x2="45.362" y2="62.567"/>
		<g>
			
				<rect x="54.479" y="35.89" transform="matrix(0.7071 -0.7071 0.7071 0.7071 -8.2563 59.5882)" style="fill:#90D966;stroke:#0E8A16;stroke-width:1.7547;stroke-linecap:round;stroke-linejoin:round;stroke-miterlimit:10;" width="26.645" height="7.741"/>
			<polygon style="fill:#FFFFFF;stroke:#0E8A16;stroke-width:1.7547;stroke-linejoin:round;stroke-miterlimit:10;" points="
				61.117,51.918 53.074,54.487 55.644,46.444 			"/>
			
				<line style="fill:none;stroke:#0E8A16;stroke-width:1.7547;stroke-linecap:round;stroke-linejoin:round;stroke-miterlimit:10;" x1="53.074" y1="54.487" x2="52.348" y2="55.214"/>
		</g>
	</g>
</g>
</svg>
