<svg id="Layer_1" data-name="Layer 1" xmlns="http://www.w3.org/2000/svg" viewBox="0 0 388 150"><defs><style>.cls-1{fill:#0a76a5;}.cls-2{font-size:44px;font-family:Arial-BoldMT, Arial;font-weight:700;}.cls-2,.cls-5{fill:#fff;}.cls-3{letter-spacing:-0.07em;}.cls-4{letter-spacing:-0.02em;}</style></defs><rect class="cls-1" width="388" height="150" rx="75"/><text class="cls-2" transform="translate(110 63.5)">Submit <tspan class="cls-3" x="0" y="52.8">Y</tspan><tspan x="26.08" y="52.8">our </tspan><tspan class="cls-4" x="109.18" y="52.8">W</tspan><tspan x="149.92" y="52.8">ork</tspan></text><path class="cls-5" d="M174.21,164.62h-4.92a1.47,1.47,0,0,1-1.48-1.47V152.81h-5.39a1.23,1.23,0,0,1-.87-2.1l9.36-9.36a1.18,1.18,0,0,1,1.68,0l9.36,9.36a1.23,1.23,0,0,1-.87,2.1h-5.39v10.34A1.47,1.47,0,0,1,174.21,164.62Zm13.29-.49V171A1.47,1.47,0,0,1,186,172.5H157.48A1.48,1.48,0,0,1,156,171v-6.89a1.48,1.48,0,0,1,1.48-1.48h8.36v.5a3.45,3.45,0,0,0,3.45,3.44h4.92a3.45,3.45,0,0,0,3.45-3.44v-.5H186A1.47,1.47,0,0,1,187.5,164.13Zm-7.63,5.41a1.23,1.23,0,1,0-1.23,1.23A1.24,1.24,0,0,0,179.87,169.54Zm3.94,0a1.23,1.23,0,1,0-1.23,1.23A1.24,1.24,0,0,0,183.81,169.54Z" transform="translate(-96 -109)"/></svg>