<?xml version="1.0" encoding="utf-8"?>
<!-- Generator: Adobe Illustrator 25.4.1, SVG Export Plug-In . SVG Version: 6.00 Build 0)  -->
<svg version="1.1" id="Layer_1" xmlns="http://www.w3.org/2000/svg" xmlns:xlink="http://www.w3.org/1999/xlink" x="0px" y="0px"
	 width="100px" height="100px" viewBox="0 0 100 100" style="enable-background:new 0 0 100 100;" xml:space="preserve">
<title>Artboard 2</title>
<g id="formula">
	<circle style="fill:#EFFCEA;stroke:#0E8A16;stroke-width:1.74;stroke-miterlimit:10;" cx="49.65" cy="50" r="46.67"/>
</g>
<g>
	<path style="opacity:0.15;fill:#0E8A16;" d="M23.078,73.655h4.118v4.118c0,0.482,0.391,0.873,0.873,0.873
		c0.482,0,0.873-0.391,0.873-0.873v-4.118h33.456h10.194c0.482,0,0.873-0.391,0.873-0.873c0-0.482-0.391-0.873-0.873-0.873h-9.321
		v-2.031l4.618-3.916c0.196-0.166,0.309-0.41,0.309-0.666s-0.113-0.5-0.309-0.666l-4.927-4.178c-0.259-0.22-0.623-0.27-0.932-0.126
		c-0.309,0.143-0.506,0.452-0.506,0.793v3.293c-0.109-0.003-0.217-0.009-0.326-0.012c-0.174-0.006-0.348-0.011-0.521-0.02
		c-0.106-0.005-0.212-0.014-0.318-0.02c-0.178-0.011-0.356-0.02-0.534-0.034c-0.177-0.014-0.354-0.031-0.53-0.047
		c-0.105-0.01-0.21-0.017-0.315-0.028c-0.219-0.022-0.438-0.049-0.656-0.075c-0.061-0.007-0.123-0.013-0.184-0.021
		c-0.212-0.027-0.423-0.058-0.633-0.089c-0.067-0.01-0.134-0.018-0.2-0.028c-0.204-0.031-0.407-0.066-0.61-0.101
		c-0.072-0.012-0.145-0.023-0.216-0.036c-0.227-0.041-0.454-0.085-0.68-0.13c-0.046-0.009-0.093-0.017-0.139-0.027
		c-0.23-0.047-0.458-0.098-0.686-0.15c-0.042-0.01-0.084-0.018-0.126-0.028c-0.228-0.053-0.455-0.109-0.682-0.167
		c-0.041-0.01-0.082-0.02-0.123-0.03c-0.247-0.064-0.492-0.131-0.737-0.2c-0.02-0.006-0.04-0.011-0.06-0.016
		c-0.245-0.07-0.488-0.143-0.73-0.218c-0.02-0.006-0.039-0.011-0.059-0.018c-0.24-0.075-0.479-0.153-0.716-0.233
		c-0.022-0.007-0.043-0.014-0.065-0.021c-0.25-0.085-0.499-0.173-0.747-0.263c-0.008-0.003-0.017-0.006-0.026-0.009
		c-0.252-0.093-0.503-0.188-0.753-0.287c-0.004-0.001-0.007-0.003-0.011-0.004c-7.087-2.797-12.998-7.945-16.768-14.478
		c-0.001-0.002-0.002-0.004-0.003-0.006c-0.13-0.225-0.257-0.452-0.381-0.68c-0.005-0.009-0.01-0.018-0.015-0.026
		c-0.123-0.225-0.242-0.451-0.36-0.679c-0.006-0.012-0.013-0.024-0.019-0.037c-0.114-0.222-0.225-0.446-0.334-0.671
		c-0.009-0.019-0.019-0.037-0.028-0.056c-0.106-0.219-0.209-0.441-0.311-0.663c-0.011-0.025-0.023-0.049-0.034-0.074
		c-0.098-0.216-0.193-0.434-0.287-0.653c-0.013-0.031-0.028-0.062-0.041-0.094c-0.09-0.212-0.177-0.426-0.263-0.641
		c-0.015-0.038-0.032-0.076-0.047-0.115c-0.082-0.208-0.161-0.418-0.24-0.628c-0.017-0.046-0.035-0.091-0.052-0.137
		c-0.075-0.204-0.147-0.41-0.218-0.616c-0.018-0.053-0.038-0.105-0.056-0.157c-0.067-0.196-0.13-0.393-0.193-0.59
		c-0.021-0.064-0.042-0.128-0.063-0.192c-0.06-0.191-0.116-0.384-0.173-0.577c-0.021-0.071-0.043-0.142-0.064-0.213
		c-0.054-0.189-0.104-0.379-0.155-0.569c-0.02-0.076-0.042-0.152-0.062-0.228c-0.047-0.183-0.091-0.368-0.136-0.553
		c-0.02-0.085-0.042-0.169-0.062-0.254c-0.041-0.178-0.079-0.358-0.118-0.538c-0.02-0.092-0.041-0.183-0.06-0.275
		c-0.036-0.175-0.069-0.352-0.102-0.528c-0.018-0.098-0.039-0.195-0.056-0.293c-0.031-0.17-0.058-0.341-0.086-0.511
		c-0.017-0.106-0.036-0.211-0.053-0.317c-0.025-0.163-0.047-0.327-0.069-0.49c-0.016-0.115-0.034-0.229-0.048-0.344
		c-0.02-0.159-0.037-0.319-0.056-0.479c-0.014-0.12-0.029-0.24-0.041-0.361c-0.016-0.156-0.029-0.312-0.042-0.469
		c-0.011-0.126-0.024-0.252-0.034-0.378c-0.012-0.149-0.02-0.3-0.029-0.45c-0.009-0.134-0.019-0.268-0.026-0.403
		c-0.007-0.138-0.011-0.276-0.016-0.414v-4.008c0-0.482-0.391-0.873-0.873-0.873c-0.482,0-0.873,0.391-0.873,0.873v2.467
		c-0.017,0.068-0.029,0.138-0.029,0.212c0,0.001,0-0.001,0,0.001v0c0,0.014,0,0.033,0,0.047l0.028,40.924h-4.117
		c-0.482,0-0.873,0.391-0.873,0.873C22.205,73.264,22.596,73.655,23.078,73.655z"/>
	<g>
		<g>
			
				<path style="fill:#90D966;stroke:#0E8A16;stroke-width:1.7469;stroke-linecap:round;stroke-linejoin:round;stroke-miterlimit:10;" d="
				M64.895,62.799c-18.991,0-34.359-15.368-34.359-34.359l0.029,41.845h34.33V62.799z"/>
			
				<line style="fill:none;stroke:#0E8A16;stroke-width:1.7469;stroke-linecap:round;stroke-linejoin:round;stroke-miterlimit:10;" x1="30.565" y1="25.762" x2="30.565" y2="75.277"/>
			
				<line style="fill:none;stroke:#0E8A16;stroke-width:1.7469;stroke-linecap:round;stroke-linejoin:round;stroke-miterlimit:10;" x1="75.089" y1="70.286" x2="25.574" y2="70.286"/>
			
				<path style="fill:none;stroke:#0E8A16;stroke-width:1.7469;stroke-linecap:round;stroke-linejoin:round;stroke-miterlimit:10;" d="
				M30.536,28.44c0,18.991,15.368,34.359,34.359,34.359"/>
			
				<polygon style="fill:#90D966;stroke:#0E8A16;stroke-width:1.7469;stroke-linecap:round;stroke-linejoin:round;stroke-miterlimit:10;" points="
				69.821,62.799 64.895,66.977 64.895,58.621 			"/>
			<g>
				<path style="fill:#0E8A16;" d="M47.481,40.084l0.257-1.22h1.092c0.086-0.428,0.18-0.803,0.282-1.124
					c0.103-0.321,0.244-0.593,0.424-0.816c0.18-0.223,0.417-0.39,0.713-0.501c0.295-0.111,0.683-0.167,1.162-0.167
					c0.197,0,0.396,0.009,0.597,0.026c0.201,0.017,0.4,0.043,0.597,0.077l-0.282,1.31c-0.094-0.008-0.193-0.017-0.295-0.026
					c-0.103-0.008-0.201-0.013-0.295-0.013c-0.231,0-0.407,0.028-0.527,0.083c-0.12,0.056-0.212,0.137-0.276,0.244
					c-0.064,0.107-0.114,0.236-0.148,0.385c-0.034,0.15-0.077,0.323-0.128,0.52h1.297l-0.257,1.22h-1.31l-1.143,5.42h-1.824
					l1.143-5.42H47.481z"/>
				<path style="fill:#0E8A16;" d="M55.289,38.234c-0.377,0.677-0.678,1.349-0.905,2.016s-0.39,1.346-0.488,2.036
					c-0.099,0.689-0.148,1.415-0.148,2.177c0,0.565,0.049,1.126,0.148,1.682c0.098,0.557,0.212,1.117,0.34,1.682h-1.387
					c-0.12-0.266-0.229-0.576-0.328-0.931c-0.099-0.355-0.182-0.724-0.251-1.105c-0.069-0.381-0.122-0.753-0.161-1.117
					c-0.039-0.364-0.058-0.678-0.058-0.944c0-0.796,0.068-1.528,0.205-2.196s0.334-1.301,0.591-1.901
					c0.257-0.599,0.573-1.186,0.95-1.76c0.377-0.573,0.805-1.16,1.284-1.759h1.606C56.133,36.852,55.666,37.558,55.289,38.234z"/>
				<path style="fill:#0E8A16;" d="M61.261,45.504h-1.927l-0.963-2.183l-1.772,2.183h-2.055l3.069-3.558l-1.503-3.082h1.952
					l0.732,1.914l1.503-1.914h2.042l-2.761,3.185L61.261,45.504z"/>
				<path style="fill:#0E8A16;" d="M62.154,45.722c0.373-0.676,0.672-1.349,0.899-2.016s0.389-1.346,0.488-2.036
					c0.098-0.689,0.148-1.415,0.148-2.177c0-0.565-0.049-1.128-0.148-1.689c-0.099-0.561-0.212-1.124-0.34-1.689h1.387
					c0.111,0.265,0.216,0.578,0.315,0.938c0.098,0.36,0.182,0.73,0.251,1.111c0.068,0.381,0.124,0.751,0.167,1.111
					c0.043,0.36,0.064,0.676,0.064,0.95c0,0.796-0.068,1.528-0.205,2.196c-0.137,0.668-0.336,1.302-0.597,1.901
					c-0.261,0.599-0.58,1.184-0.957,1.753c-0.377,0.569-0.801,1.154-1.271,1.753H60.76C61.317,47.1,61.781,46.398,62.154,45.722z"/>
			</g>
		</g>
	</g>
</g>
</svg>
