<?xml version="1.0" encoding="utf-8"?>
<!-- Generator: Adobe Illustrator 25.4.1, SVG Export Plug-In . SVG Version: 6.00 Build 0)  -->
<svg version="1.1" id="Layer_1" xmlns="http://www.w3.org/2000/svg" xmlns:xlink="http://www.w3.org/1999/xlink" x="0px" y="0px"
	 width="100px" height="100px" viewBox="0 0 100 100" style="enable-background:new 0 0 100 100;" xml:space="preserve">
<title>Artboard 2</title>
<g id="selfCheck">
	<circle style="fill:#EFFCEA;stroke:#0E8A16;stroke-width:1.74;stroke-miterlimit:10;" cx="50" cy="50" r="46.67"/>
</g>
<g>
	<path style="opacity:0.15;fill:#0E8A16;" d="M68.412,66.321c-0.407,0-0.795,0.085-1.151,0.237V27.603
		c0-0.483-0.392-0.875-0.875-0.875H28.903c-0.483,0-0.875,0.392-0.875,0.875v49.298c0,0.483,0.392,0.875,0.875,0.875h18.774
		c1.687,2.062,3.78,4.541,5.01,5.711c2.468,2.345,4.748,2.774,8.351,2.774h1.161c5.594,0,9.353-3.509,9.353-8.731v-7.835
		C71.552,67.834,70.143,66.321,68.412,66.321z"/>
	<g>
		
			<rect x="31.402" y="25.104" style="fill:#FFFFFF;stroke:#0E8A16;stroke-width:1.7493;stroke-linejoin:round;stroke-miterlimit:10;" width="37.483" height="49.298"/>
		
			<line style="fill:none;stroke:#0E8A16;stroke-width:1.7493;stroke-linecap:round;stroke-linejoin:round;stroke-miterlimit:10;" x1="37.774" y1="35.907" x2="52.517" y2="35.907"/>
		
			<line style="fill:none;stroke:#0E8A16;stroke-width:1.7493;stroke-linecap:round;stroke-linejoin:round;stroke-miterlimit:10;" x1="37.774" y1="45.903" x2="52.517" y2="45.903"/>
		
			<line style="fill:none;stroke:#0E8A16;stroke-width:1.7493;stroke-linecap:round;stroke-linejoin:round;stroke-miterlimit:10;" x1="37.774" y1="55.899" x2="52.517" y2="55.899"/>
		<g>
			
				<path style="fill:#90D966;stroke:#0E8A16;stroke-width:1.7493;stroke-linecap:round;stroke-linejoin:round;stroke-miterlimit:10;" d="
				M70.911,64.696c-1.251,0-2.265,1.119-2.265,2.499v-1.499c0-1.38-1.014-2.499-2.265-2.499s-2.265,1.119-2.265,2.499v-1
				c0-1.38-1.014-2.499-2.265-2.499c-1.251,0-2.265,1.119-2.265,2.499V54.2c0-1.38-1.014-2.499-2.265-2.499
				c-1.251,0-2.265,1.119-2.265,2.499v15.622v1.994l-3.283-3.882c-0.871-1.027-2.332-1.123-3.305-0.195
				c-0.997,0.951-1.106,2.614-0.244,3.714c0,0,5.323,6.772,7.563,8.9s4.255,2.533,7.748,2.533h1.161
				c4.683,0,8.479-2.689,8.479-7.856v-1.837v-3.37v-2.627C73.176,65.815,72.162,64.696,70.911,64.696z"/>
			
				<line style="fill:none;stroke:#0E8A16;stroke-width:1.7493;stroke-linecap:round;stroke-linejoin:round;stroke-miterlimit:10;" x1="59.587" y1="64.696" x2="59.587" y2="67.605"/>
			
				<line style="fill:none;stroke:#0E8A16;stroke-width:1.7493;stroke-linecap:round;stroke-linejoin:round;stroke-miterlimit:10;" x1="64.117" y1="65.696" x2="64.117" y2="68.641"/>
			
				<line style="fill:none;stroke:#0E8A16;stroke-width:1.7493;stroke-linecap:round;stroke-linejoin:round;stroke-miterlimit:10;" x1="68.646" y1="67.195" x2="68.646" y2="69.273"/>
		</g>
		
			<polyline style="fill:none;stroke:#0E8A16;stroke-width:1.7493;stroke-linecap:round;stroke-linejoin:round;stroke-miterlimit:10;" points="
			56.511,42.97 59.444,45.903 65.309,40.038 		"/>
	</g>
</g>
</svg>
