<?xml version="1.0" encoding="utf-8"?>
<!-- Generator: Adobe Illustrator 25.4.1, SVG Export Plug-In . SVG Version: 6.00 Build 0)  -->
<svg version="1.1" id="Layer_1" xmlns="http://www.w3.org/2000/svg" xmlns:xlink="http://www.w3.org/1999/xlink" x="0px" y="0px"
	 width="100px" height="100px" viewBox="0 0 100 100" style="enable-background:new 0 0 100 100;" xml:space="preserve">
<title>Artboard 2</title>
<g id="tryIt">
	<circle style="fill:#EFFCEA;stroke:#0E8A16;stroke-width:1.74;stroke-miterlimit:10;" cx="50.24" cy="50.59" r="46.67"/>
</g>
<path style="opacity:0.15;fill:#0E8A16;" d="M13.629,55.334l4.216,1.287c0.092,0.781,0.216,1.565,0.369,2.342l-3.618,2.531
	c-0.296,0.207-0.43,0.579-0.333,0.927c0.269,0.969,0.584,1.938,0.936,2.88c0.125,0.334,0.444,0.555,0.799,0.555
	c0.005,0,0.01,0,0.015,0l4.414-0.079c0.331,0.717,0.692,1.424,1.079,2.113l-2.656,3.521c-0.218,0.289-0.23,0.684-0.03,0.986
	c0.559,0.842,1.159,1.666,1.784,2.451c0.225,0.283,0.604,0.393,0.946,0.276l4.173-1.438c0.535,0.578,1.095,1.138,1.674,1.673
	l-1.438,4.173c-0.118,0.342-0.008,0.721,0.275,0.946c0.786,0.626,1.611,1.226,2.451,1.784c0.301,0.2,0.697,0.189,0.986-0.03
	l3.521-2.655c0.689,0.386,1.396,0.747,2.113,1.079l-0.079,4.414c-0.006,0.362,0.216,0.688,0.555,0.815
	c0.943,0.352,1.912,0.667,2.881,0.935c0.348,0.096,0.72-0.037,0.927-0.333l2.531-3.618c0.776,0.153,1.56,0.277,2.342,0.369
	l1.288,4.216c0.106,0.346,0.418,0.588,0.78,0.603c0.548,0.023,1.044,0.035,1.516,0.035c0.472,0,0.968-0.011,1.516-0.035
	c0.362-0.015,0.674-0.257,0.78-0.604l1.287-4.216c0.782-0.092,1.566-0.216,2.342-0.369l2.531,3.618
	c0.207,0.296,0.579,0.43,0.927,0.333c0.97-0.269,1.939-0.583,2.88-0.935c0.339-0.127,0.561-0.453,0.555-0.815l-0.079-4.414
	c0.717-0.331,1.425-0.692,2.113-1.079l3.521,2.655c0.289,0.218,0.684,0.23,0.986,0.03c0.842-0.559,1.666-1.159,2.452-1.784
	c0.283-0.225,0.393-0.604,0.275-0.946l-1.438-4.173c0.578-0.535,1.138-1.095,1.673-1.673l4.173,1.438
	c0.341,0.118,0.721,0.007,0.946-0.275c0.625-0.785,1.225-1.61,1.784-2.452c0.2-0.302,0.188-0.697-0.03-0.986l-2.656-3.521
	c0.386-0.688,0.747-1.396,1.079-2.113l4.414,0.079c0.36,0.003,0.688-0.216,0.815-0.555c0.351-0.941,0.666-1.91,0.935-2.88
	c0.096-0.348-0.037-0.72-0.333-0.927l-3.618-2.531c0.154-0.776,0.277-1.56,0.369-2.342l4.216-1.287
	c0.346-0.106,0.588-0.418,0.603-0.78c0.023-0.545,0.035-1.041,0.035-1.516s-0.011-0.971-0.035-1.516
	c-0.015-0.362-0.257-0.674-0.603-0.78l-4.216-1.287c-0.092-0.782-0.216-1.566-0.369-2.342l3.618-2.532
	c0.296-0.207,0.43-0.579,0.333-0.927c-0.269-0.971-0.584-1.94-0.935-2.88c-0.127-0.339-0.454-0.558-0.815-0.555l-4.414,0.079
	c-0.332-0.717-0.693-1.425-1.079-2.113l2.656-3.521c0.218-0.289,0.23-0.684,0.03-0.986c-0.558-0.841-1.159-1.666-1.784-2.451
	c-0.225-0.283-0.604-0.394-0.946-0.275l-4.173,1.438c-0.535-0.578-1.095-1.138-1.673-1.673l1.438-4.173
	c0.118-0.342,0.008-0.721-0.275-0.946c-0.786-0.626-1.611-1.226-2.452-1.784c-0.301-0.2-0.697-0.188-0.986,0.03L62.9,26.497
	c-0.688-0.386-1.396-0.747-2.113-1.079l0.079-4.414c0.006-0.362-0.216-0.688-0.555-0.815c-0.943-0.352-1.912-0.667-2.88-0.935
	c-0.349-0.096-0.72,0.037-0.927,0.333l-2.531,3.618c-0.777-0.154-1.561-0.277-2.342-0.369l-1.287-4.216
	c-0.106-0.346-0.418-0.588-0.78-0.603c-1.094-0.047-1.938-0.047-3.032,0c-0.361,0.015-0.674,0.257-0.78,0.603l-1.288,4.216
	c-0.781,0.092-1.565,0.216-2.342,0.369l-2.531-3.618c-0.207-0.296-0.578-0.429-0.927-0.333c-0.968,0.268-1.937,0.583-2.881,0.935
	c-0.339,0.127-0.561,0.453-0.555,0.815l0.079,4.414c-0.717,0.332-1.425,0.693-2.113,1.079l-3.521-2.655
	c-0.289-0.218-0.685-0.23-0.986-0.03c-0.84,0.557-1.665,1.158-2.451,1.784c-0.283,0.225-0.393,0.604-0.275,0.946l1.438,4.173
	c-0.579,0.536-1.139,1.096-1.674,1.673l-4.173-1.438c-0.342-0.118-0.721-0.007-0.946,0.276c-0.627,0.787-1.227,1.612-1.784,2.451
	c-0.2,0.302-0.188,0.697,0.03,0.986l2.656,3.521c-0.386,0.689-0.747,1.397-1.079,2.113l-4.414-0.079
	c-0.356-0.013-0.688,0.216-0.815,0.555c-0.352,0.942-0.667,1.911-0.936,2.88c-0.096,0.349,0.037,0.72,0.333,0.927l3.618,2.532
	c-0.154,0.777-0.277,1.561-0.369,2.342l-4.216,1.287c-0.346,0.106-0.588,0.418-0.603,0.78c-0.023,0.545-0.035,1.041-0.035,1.516
	s0.011,0.971,0.035,1.516C13.041,54.915,13.283,55.228,13.629,55.334z"/>
<g>
	
		<path style="fill:#90D966;stroke:#0E8A16;stroke-width:1.707;stroke-linecap:round;stroke-linejoin:round;stroke-miterlimit:10;" d="
		M84.653,52.079c0.021-0.491,0.034-0.984,0.034-1.48s-0.013-0.989-0.034-1.48l-4.755-1.452c-0.113-1.144-0.292-2.269-0.531-3.371
		l4.079-2.854c-0.264-0.954-0.569-1.891-0.912-2.81l-4.976,0.089c-0.46-1.047-0.978-2.062-1.552-3.041l2.994-3.971
		c-0.546-0.823-1.127-1.621-1.74-2.392l-4.705,1.622c-0.757-0.849-1.561-1.653-2.41-2.41l1.622-4.705
		c-0.771-0.614-1.569-1.194-2.392-1.74l-3.971,2.994c-0.979-0.574-1.994-1.092-3.041-1.552l0.089-4.976
		c-0.919-0.343-1.856-0.648-2.81-0.912l-2.854,4.079c-1.102-0.239-2.227-0.418-3.371-0.531l-1.452-4.755
		c-0.491-0.021-0.984-0.034-1.48-0.034s-0.989,0.013-1.48,0.034l-1.452,4.755c-1.144,0.113-2.269,0.292-3.371,0.531l-2.854-4.079
		c-0.954,0.264-1.891,0.569-2.81,0.912l0.089,4.976c-1.047,0.46-2.062,0.978-3.041,1.552l-3.971-2.994
		c-0.823,0.546-1.621,1.127-2.392,1.74l1.622,4.705c-0.849,0.757-1.653,1.561-2.41,2.41l-4.705-1.622
		c-0.614,0.771-1.194,1.569-1.74,2.392l2.994,3.971c-0.574,0.979-1.092,1.994-1.552,3.041l-4.976-0.089
		c-0.343,0.919-0.648,1.856-0.912,2.81l4.079,2.854c-0.239,1.102-0.419,2.227-0.531,3.371l-4.755,1.452
		c-0.021,0.491-0.034,0.984-0.034,1.48s0.013,0.989,0.034,1.48l4.755,1.452c0.113,1.144,0.292,2.269,0.531,3.371l-4.079,2.854
		c0.264,0.954,0.569,1.891,0.912,2.81l4.976-0.089c0.46,1.047,0.978,2.062,1.552,3.041l-2.994,3.971
		c0.546,0.823,1.127,1.621,1.74,2.392l4.705-1.622c0.757,0.849,1.561,1.653,2.41,2.41l-1.622,4.705
		c0.771,0.614,1.569,1.194,2.392,1.74l3.971-2.994c0.979,0.574,1.994,1.092,3.041,1.552l-0.089,4.976
		c0.919,0.343,1.856,0.648,2.81,0.912l2.854-4.079c1.102,0.239,2.227,0.418,3.371,0.531l1.452,4.755
		c0.491,0.021,0.984,0.034,1.48,0.034s0.989-0.013,1.48-0.034l1.452-4.755c1.144-0.113,2.269-0.292,3.371-0.531l2.854,4.079
		c0.954-0.264,1.891-0.569,2.81-0.912l-0.089-4.976c1.047-0.46,2.062-0.978,3.041-1.552l3.971,2.994
		c0.823-0.546,1.621-1.127,2.392-1.74l-1.622-4.705c0.849-0.757,1.653-1.561,2.41-2.41l4.705,1.622
		c0.614-0.771,1.194-1.569,1.74-2.392l-2.994-3.971c0.574-0.979,1.092-1.994,1.552-3.041l4.976,0.089
		c0.343-0.919,0.648-1.856,0.912-2.81l-4.079-2.854c0.239-1.102,0.418-2.227,0.531-3.371L84.653,52.079z"/>
	<g>
		<path style="fill:#0E8A16;" d="M26.797,44.668v-2.482h10.998v2.482h-4.023v10.941h-2.952V44.668H26.797z"/>
		<path style="fill:#0E8A16;" d="M39.863,45.89v1.805h0.038c0.125-0.301,0.294-0.58,0.508-0.837
			c0.213-0.257,0.457-0.476,0.733-0.658c0.276-0.181,0.57-0.323,0.884-0.423c0.313-0.1,0.639-0.15,0.978-0.15
			c0.175,0,0.37,0.031,0.583,0.094v2.482c-0.125-0.025-0.276-0.047-0.451-0.066c-0.176-0.019-0.345-0.028-0.508-0.028
			c-0.489,0-0.902,0.082-1.241,0.244c-0.338,0.163-0.611,0.385-0.818,0.667c-0.207,0.282-0.354,0.611-0.442,0.987
			c-0.088,0.376-0.132,0.784-0.132,1.222v4.38h-2.67V45.89H39.863z"/>
		<path style="fill:#0E8A16;" d="M48.229,58.504c-0.514,0.338-1.228,0.508-2.143,0.508c-0.276,0-0.548-0.01-0.818-0.028
			c-0.27-0.019-0.542-0.041-0.818-0.066v-2.2c0.251,0.025,0.508,0.05,0.771,0.075c0.263,0.025,0.526,0.031,0.79,0.019
			c0.351-0.037,0.611-0.176,0.78-0.413c0.169-0.238,0.254-0.501,0.254-0.79c0-0.213-0.037-0.414-0.113-0.602l-3.403-9.118h2.839
			l2.2,6.655h0.038l2.124-6.655h2.764l-4.061,10.923C49.144,57.602,48.743,58.166,48.229,58.504z"/>
		<path style="fill:#0E8A16;" d="M59.697,44.386v-2.2h2.67v2.2H59.697z M62.366,45.89v9.719h-2.67V45.89H62.366z"/>
		<path style="fill:#0E8A16;" d="M69.811,45.89v1.786h-1.954v4.813c0,0.451,0.075,0.752,0.225,0.902
			c0.151,0.151,0.451,0.226,0.903,0.226c0.151,0,0.295-0.006,0.432-0.019c0.138-0.012,0.269-0.031,0.395-0.056v2.068
			c-0.225,0.038-0.476,0.063-0.752,0.075c-0.275,0.012-0.545,0.019-0.808,0.019c-0.414,0-0.806-0.028-1.175-0.085
			c-0.37-0.056-0.696-0.166-0.978-0.329c-0.282-0.163-0.505-0.395-0.668-0.696c-0.163-0.301-0.244-0.696-0.244-1.185v-5.734h-1.617
			V45.89h1.617v-2.914h2.67v2.914H69.811z"/>
		<path style="fill:#0E8A16;" d="M74.172,52.714v2.895H71.22v-2.895H74.172z M73.345,51.586H72.01l-0.714-5.79v-3.609h2.782v3.609
			L73.345,51.586z"/>
	</g>
	<g>
		<path style="fill:none;stroke:#0E8A16;stroke-width:1.707;stroke-linecap:round;stroke-miterlimit:10;" d="M29.59,58.736
			c3.257,8.358,11.384,14.282,20.895,14.282s17.638-5.923,20.895-14.282"/>
		<path style="fill:none;stroke:#0E8A16;stroke-width:1.707;stroke-linecap:round;stroke-miterlimit:10;" d="M69.763,39.154
			c-3.909-6.57-11.079-10.973-19.278-10.973s-15.37,4.403-19.278,10.973"/>
	</g>
</g>
</svg>
