<?xml version="1.0" encoding="utf-8"?>
<!-- Generator: Adobe Illustrator 25.4.1, SVG Export Plug-In . SVG Version: 6.00 Build 0)  -->
<svg version="1.1" id="Layer_1" xmlns="http://www.w3.org/2000/svg" xmlns:xlink="http://www.w3.org/1999/xlink" x="0px" y="0px"
	 width="100px" height="100px" viewBox="0 0 100 100" style="enable-background:new 0 0 100 100;" xml:space="preserve">
<title>Artboard 2</title>
<g id="view">
	<circle style="fill:#EFFCEA;stroke:#0E8A16;stroke-width:1.74;stroke-miterlimit:10;" cx="50.24" cy="50.01" r="46.67"/>
</g>
<path style="opacity:0.15;fill:#0E8A16;" d="M72.206,34.33H24.005c-1.1,0-1.995,0.895-1.995,1.995v31.052
	c0,1.1,0.895,1.995,1.995,1.995h48.201c1.1,0,1.995-0.895,1.995-1.995V36.325C74.201,35.225,73.306,34.33,72.206,34.33z"/>
<path style="opacity:0.15;fill:#0E8A16;" d="M31.339,75.217c0.841,0,1.566-0.501,1.897-1.219h37.607c0.481,0,0.871-0.39,0.871-0.871
	s-0.39-0.871-0.871-0.871H33.236c-0.331-0.718-1.056-1.219-1.897-1.219s-1.566,0.501-1.897,1.219h-4.074
	c-0.481,0-0.871,0.39-0.871,0.871s0.39,0.871,0.871,0.871h4.074C29.773,74.716,30.498,75.217,31.339,75.217z"/>
<g>
	<g>
		
			<path style="fill:#90D966;stroke:#0E8A16;stroke-width:1.7411;stroke-linecap:round;stroke-linejoin:round;stroke-miterlimit:10;" d="
			M74.693,66.014H26.492c-0.621,0-1.124-0.503-1.124-1.124V33.837c0-0.621,0.503-1.124,1.124-1.124h48.201
			c0.621,0,1.124,0.503,1.124,1.124V64.89C75.817,65.511,75.314,66.014,74.693,66.014z"/>
		<polygon style="fill:#FFFFFF;stroke:#0E8A16;stroke-width:1.7411;stroke-linejoin:round;stroke-miterlimit:10;" points="
			57.867,49.364 46.551,56.961 46.551,41.766 		"/>
	</g>
	
		<line style="fill:none;stroke:#0E8A16;stroke-width:1.7411;stroke-linecap:round;stroke-linejoin:round;stroke-miterlimit:10;" x1="27.855" y1="70.64" x2="73.33" y2="70.64"/>
	
		<circle style="fill:none;stroke:#0E8A16;stroke-width:1.7411;stroke-linecap:round;stroke-linejoin:round;stroke-miterlimit:10;" cx="33.826" cy="70.64" r="1.219"/>
</g>
</svg>
