<?xml version="1.0" encoding="UTF-8"?><svg xmlns="http://www.w3.org/2000/svg" width="1140" height="497" xmlns:xlink="http://www.w3.org/1999/xlink" viewBox="0 0 1140 497"><defs><clipPath id="d"><path d="m1067.74,433.12s-54.68,62.52-253.38,30.37c-108.82-17.61-224.89-7.45-343.86,3.77-81.9,7.73-166.65,26.08-253.71,19.38-70.27-5.41-142.71-33.83-177-117.44-22.78-55.55-30.06-114.75-32.74-173-2.28-49.48-17.38-120.88,31.42-158.39,23.77-18.27,56.85-26.12,89.22-28.89,119.02-10.19,239.59,2.69,358.88,1.16,100.51-1.29,197.37-3.86,291.03-5.21,127.22-1.84,357.14-12.9,357.4,233.78.17,157.66-67.26,194.47-67.26,194.47Z" fill="none"/></clipPath><clipPath id="f"><path d="m521.75,264.61v-8.58h4.93v7.27c-1.82.35-3.48.82-4.93,1.3Z" fill="none"/></clipPath><clipPath id="e"><path d="m527.91,263.09v-7.05h4.93v6.61c-1.72.03-3.38.19-4.93.44Z" clip-path="url(#f)" fill="none"/></clipPath><clipPath id="g"><polygon points="532.82 262.67 516.21 258.19 516.21 260.13 526.8 263.33 532.82 262.67" fill="#57b2a5" stroke="#fff" stroke-miterlimit="10" stroke-width="1.49"/></clipPath></defs><g isolation="isolate"><g id="c"><g clip-path="url(#d)"><rect x="-9.94" y="-46.12" width="1147" height="607" fill="#a3e5e3"/><rect x="16.06" y="299.88" width="1129" height="283" fill="#c8d9d2"/><rect x="-5.94" y="281.88" width="1157" height="25" fill="#bcc1bf"/><line x1="27.73" y1="281.88" x2="27.73" y2="301.88" fill="none" stroke="#d8e0de" stroke-miterlimit="10" stroke-width="2"/><line x1="94.44" y1="281.88" x2="94.44" y2="301.88" fill="none" stroke="#d8e0de" stroke-miterlimit="10" stroke-width="2"/><line x1="161.15" y1="281.88" x2="161.15" y2="301.88" fill="none" stroke="#d8e0de" stroke-miterlimit="10" stroke-width="2"/><line x1="227.85" y1="281.88" x2="227.85" y2="301.88" fill="none" stroke="#d8e0de" stroke-miterlimit="10" stroke-width="2"/><line x1="294.56" y1="281.88" x2="294.56" y2="301.88" fill="none" stroke="#d8e0de" stroke-miterlimit="10" stroke-width="2"/><line x1="361.27" y1="281.88" x2="361.27" y2="301.88" fill="none" stroke="#d8e0de" stroke-miterlimit="10" stroke-width="2"/><line x1="427.98" y1="281.88" x2="427.98" y2="301.88" fill="none" stroke="#d8e0de" stroke-miterlimit="10" stroke-width="2"/><line x1="494.69" y1="281.88" x2="494.69" y2="301.88" fill="none" stroke="#d8e0de" stroke-miterlimit="10" stroke-width="2"/><line x1="561.39" y1="281.88" x2="561.39" y2="301.88" fill="none" stroke="#d8e0de" stroke-miterlimit="10" stroke-width="2"/><line x1="628.1" y1="281.88" x2="628.1" y2="301.88" fill="none" stroke="#d8e0de" stroke-miterlimit="10" stroke-width="2"/><line x1="694.81" y1="281.88" x2="694.81" y2="301.88" fill="none" stroke="#d8e0de" stroke-miterlimit="10" stroke-width="2"/><line x1="761.52" y1="281.88" x2="761.52" y2="301.88" fill="none" stroke="#d8e0de" stroke-miterlimit="10" stroke-width="2"/><line x1="828.23" y1="281.88" x2="828.23" y2="301.88" fill="none" stroke="#d8e0de" stroke-miterlimit="10" stroke-width="2"/><line x1="894.93" y1="281.88" x2="894.93" y2="301.88" fill="none" stroke="#d8e0de" stroke-miterlimit="10" stroke-width="2"/><line x1="961.64" y1="281.88" x2="961.64" y2="301.88" fill="none" stroke="#d8e0de" stroke-miterlimit="10" stroke-width="2"/><line x1="1028.35" y1="281.88" x2="1028.35" y2="301.88" fill="none" stroke="#d8e0de" stroke-miterlimit="10" stroke-width="2"/><line x1="1095.06" y1="281.88" x2="1095.06" y2="301.88" fill="none" stroke="#d8e0de" stroke-miterlimit="10" stroke-width="2"/><rect x="-5.94" y="299.88" width="1157" height="14" fill="#77747a"/></g><path d="m134.77,155.94l5.58,13.92,5.58-13.92h2.92v17.06h-2.25v-6.64l.21-7.17-5.6,13.82h-1.72l-5.59-13.78.22,7.14v6.64h-2.25v-17.06h2.91Z"/><path d="m160.31,173c-.12-.25-.23-.7-.3-1.34-1.01,1.05-2.21,1.57-3.61,1.57-1.25,0-2.28-.35-3.08-1.06s-1.2-1.6-1.2-2.69c0-1.32.5-2.35,1.51-3.08s2.42-1.1,4.24-1.1h2.11v-1c0-.76-.23-1.36-.68-1.81s-1.12-.67-2-.67c-.77,0-1.42.2-1.95.59s-.79.86-.79,1.42h-2.18c0-.63.22-1.24.67-1.83s1.06-1.06,1.83-1.4,1.62-.52,2.54-.52c1.46,0,2.61.37,3.43,1.1s1.26,1.74,1.29,3.02v5.84c0,1.16.15,2.09.45,2.78v.19h-2.27Zm-3.6-1.65c.68,0,1.32-.18,1.93-.53s1.05-.81,1.32-1.37v-2.6h-1.7c-2.66,0-3.98.78-3.98,2.33,0,.68.23,1.21.68,1.59s1.04.57,1.75.57Z"/><path d="m167.89,173h-2.17v-18h2.17v18Z"/><path d="m173.72,173h-2.17v-18h2.17v18Z"/><path d="m529.64,187h-2.26v-7.89h-8.6v7.89h-2.25v-17.06h2.25v7.34h8.6v-7.34h2.26v17.06Z"/><path d="m532.72,180.54c0-1.24.24-2.36.73-3.35s1.17-1.76,2.04-2.3,1.87-.81,2.98-.81c1.73,0,3.12.6,4.19,1.79s1.6,2.79,1.6,4.77v.15c0,1.23-.24,2.34-.71,3.32s-1.15,1.74-2.03,2.29-1.89.82-3.03.82c-1.72,0-3.11-.6-4.18-1.79s-1.6-2.78-1.6-4.75v-.15Zm2.18.26c0,1.41.33,2.54.98,3.39s1.53,1.28,2.62,1.28,1.98-.43,2.62-1.29.97-2.07.97-3.63c0-1.39-.33-2.52-.99-3.38s-1.54-1.29-2.63-1.29-1.93.43-2.59,1.28-.98,2.07-.98,3.66Z"/><path d="m549.03,174.32l.06,1.41c.93-1.09,2.18-1.64,3.76-1.64,1.77,0,2.98.68,3.62,2.04.42-.61.97-1.1,1.65-1.48s1.47-.56,2.4-.56c2.78,0,4.2,1.47,4.24,4.42v8.5h-2.17v-8.37c0-.91-.21-1.58-.62-2.03s-1.11-.67-2.09-.67c-.8,0-1.47.24-2,.72s-.84,1.13-.93,1.94v8.41h-2.18v-8.31c0-1.84-.9-2.77-2.71-2.77-1.42,0-2.39.61-2.92,1.82v9.26h-2.17v-12.68h2.05Z"/><path d="m573.28,187.23c-1.72,0-3.12-.56-4.2-1.69s-1.62-2.64-1.62-4.53v-.4c0-1.26.24-2.38.72-3.37s1.15-1.76,2.02-2.32,1.8-.84,2.81-.84c1.65,0,2.93.54,3.84,1.63s1.37,2.64,1.37,4.66v.9h-8.59c.03,1.25.4,2.26,1.1,3.03s1.59,1.15,2.67,1.15c.77,0,1.41-.16,1.95-.47s1-.73,1.39-1.24l1.32,1.03c-1.06,1.63-2.66,2.45-4.78,2.45Zm-.27-11.37c-.88,0-1.61.32-2.2.96s-.96,1.53-1.1,2.68h6.35v-.16c-.06-1.1-.36-1.96-.89-2.56s-1.25-.91-2.16-.91Z"/><path d="m738.22,177.39c-1.93-.55-3.33-1.24-4.21-2.04s-1.32-1.81-1.32-2.99c0-1.34.54-2.46,1.61-3.33s2.47-1.32,4.19-1.32c1.17,0,2.22.23,3.13.68s1.63,1.08,2.13,1.88.76,1.67.76,2.61h-2.26c0-1.04-.33-1.85-.98-2.44-.66-.59-1.58-.89-2.78-.89-1.11,0-1.97.24-2.6.73s-.93,1.17-.93,2.04c0,.7.29,1.29.88,1.77s1.59.92,3.01,1.32c1.42.4,2.53.84,3.33,1.32s1.39,1.04,1.78,1.68.58,1.39.58,2.26c0,1.38-.54,2.49-1.62,3.32s-2.52,1.25-4.32,1.25c-1.17,0-2.27-.22-3.28-.67s-1.8-1.06-2.35-1.85-.83-1.67-.83-2.66h2.26c0,1.03.38,1.85,1.14,2.44s1.78.9,3.05.9c1.19,0,2.1-.24,2.73-.73s.95-1.14.95-1.98-.29-1.48-.88-1.94-1.65-.91-3.19-1.35Z"/><path d="m752.18,183.46c.77,0,1.45-.23,2.03-.7s.9-1.05.96-1.76h2.05c-.04.73-.29,1.42-.75,2.07s-1.08,1.18-1.85,1.57-1.58.59-2.44.59c-1.73,0-3.1-.58-4.12-1.73s-1.53-2.73-1.53-4.73v-.36c0-1.23.23-2.33.68-3.29s1.1-1.71,1.95-2.24,1.85-.8,3.01-.8c1.42,0,2.6.43,3.54,1.28s1.44,1.96,1.51,3.32h-2.05c-.06-.82-.37-1.49-.93-2.02s-1.25-.79-2.07-.79c-1.1,0-1.96.4-2.56,1.19s-.91,1.94-.91,3.44v.41c0,1.46.3,2.59.9,3.38s1.46,1.18,2.58,1.18Z"/><path d="m761.82,173.86c.96-1.18,2.21-1.77,3.75-1.77,2.68,0,4.03,1.51,4.05,4.54v8.38h-2.17v-8.39c0-.91-.22-1.59-.63-2.03s-1.05-.66-1.92-.66c-.7,0-1.32.19-1.85.56s-.95.87-1.24,1.48v9.04h-2.17v-18h2.17v6.86Z"/><path d="m772.3,178.54c0-1.24.24-2.36.73-3.35s1.17-1.76,2.04-2.3,1.87-.81,2.98-.81c1.73,0,3.12.6,4.19,1.79s1.6,2.79,1.6,4.77v.15c0,1.23-.24,2.34-.71,3.32s-1.15,1.74-2.03,2.29-1.89.82-3.03.82c-1.72,0-3.11-.6-4.18-1.79s-1.6-2.78-1.6-4.75v-.15Zm2.18.26c0,1.41.33,2.54.98,3.39s1.53,1.28,2.62,1.28,1.98-.43,2.62-1.29.97-2.07.97-3.63c0-1.39-.33-2.52-.99-3.38s-1.54-1.29-2.63-1.29-1.93.43-2.59,1.28-.98,2.07-.98,3.66Z"/><path d="m785.99,178.54c0-1.24.24-2.36.73-3.35s1.17-1.76,2.04-2.3,1.87-.81,2.98-.81c1.73,0,3.12.6,4.19,1.79s1.6,2.79,1.6,4.77v.15c0,1.23-.24,2.34-.71,3.32s-1.15,1.74-2.03,2.29-1.89.82-3.03.82c-1.72,0-3.11-.6-4.18-1.79s-1.6-2.78-1.6-4.75v-.15Zm2.18.26c0,1.41.33,2.54.98,3.39s1.53,1.28,2.62,1.28,1.98-.43,2.62-1.29.97-2.07.97-3.63c0-1.39-.33-2.52-.99-3.38s-1.54-1.29-2.63-1.29-1.93.43-2.59,1.28-.98,2.07-.98,3.66Z"/><path d="m802.6,185h-2.17v-18h2.17v18Z"/><path d="m989.77,147.04h8.09v1.84h-10.35v-17.06h2.26v15.22Z"/><path d="m1000.09,132.84c0-.35.11-.65.32-.89s.53-.36.96-.36.74.12.96.36.33.54.33.89-.11.64-.33.88-.54.35-.96.35-.74-.12-.96-.35-.32-.53-.32-.88Zm2.34,16.04h-2.17v-12.68h2.17v12.68Z"/><path d="m1016.64,142.69c0,1.94-.45,3.49-1.34,4.67s-2.09,1.76-3.59,1.76c-1.6,0-2.84-.57-3.71-1.7l-.11,1.46h-1.99v-18h2.17v6.71c.88-1.09,2.08-1.63,3.62-1.63s2.75.58,3.63,1.75,1.32,2.76,1.32,4.78v.19Zm-2.17-.25c0-1.48-.29-2.62-.86-3.42s-1.39-1.21-2.46-1.21c-1.43,0-2.46.66-3.08,1.99v5.48c.66,1.33,1.7,1.99,3.11,1.99,1.04,0,1.85-.4,2.43-1.21s.87-2.02.87-3.63Z"/><path d="m1025.5,138.15c-.33-.05-.68-.08-1.07-.08-1.42,0-2.39.61-2.89,1.82v9h-2.17v-12.68h2.11l.04,1.46c.71-1.13,1.72-1.7,3.02-1.7.42,0,.74.05.96.16v2.02Z"/><path d="m1034.85,148.88c-.12-.25-.23-.7-.3-1.34-1.01,1.05-2.21,1.57-3.61,1.57-1.25,0-2.28-.35-3.08-1.06s-1.2-1.6-1.2-2.69c0-1.32.5-2.35,1.51-3.08s2.42-1.1,4.24-1.1h2.11v-1c0-.76-.23-1.36-.68-1.81s-1.12-.67-2-.67c-.77,0-1.42.2-1.95.59s-.79.86-.79,1.42h-2.18c0-.63.22-1.24.67-1.83s1.06-1.06,1.83-1.4,1.62-.52,2.54-.52c1.46,0,2.61.37,3.43,1.1s1.26,1.74,1.29,3.02v5.84c0,1.16.15,2.09.45,2.78v.19h-2.27Zm-3.6-1.65c.68,0,1.32-.18,1.93-.53s1.05-.81,1.32-1.37v-2.6h-1.7c-2.66,0-3.98.78-3.98,2.33,0,.68.23,1.21.68,1.59s1.04.57,1.75.57Z"/><path d="m1046.2,138.15c-.33-.05-.68-.08-1.07-.08-1.42,0-2.39.61-2.89,1.82v9h-2.17v-12.68h2.11l.04,1.46c.71-1.13,1.72-1.7,3.02-1.7.42,0,.74.05.96.16v2.02Z"/><path d="m1052.55,145.71l2.95-9.5h2.32l-5.1,14.64c-.79,2.11-2.04,3.16-3.76,3.16l-.41-.04-.81-.15v-1.76l.59.05c.73,0,1.31-.15,1.72-.45s.75-.84,1.01-1.63l.48-1.29-4.52-12.54h2.37l3.16,9.5Z"/><path d="m317.92,373.88h-2.18v-14.45l-4.37,1.61v-1.97l6.21-2.33h.34v17.14Z"/><path d="m334.97,366.61c0,2.54-.43,4.43-1.3,5.66s-2.22,1.85-4.07,1.85-3.17-.6-4.04-1.81-1.33-3.01-1.36-5.41v-2.89c0-2.51.43-4.37,1.3-5.59s2.23-1.83,4.08-1.83,3.19.59,4.05,1.76,1.31,2.99,1.34,5.44v2.81Zm-2.17-2.96c0-1.84-.26-3.17-.77-4.01s-1.33-1.26-2.45-1.26-1.92.42-2.43,1.25-.77,2.12-.79,3.86v3.47c0,1.84.27,3.21.8,4.08s1.35,1.32,2.43,1.32,1.87-.41,2.38-1.24.79-2.13.81-3.91v-3.55Z"/><path d="m348.45,366.61c0,2.54-.43,4.43-1.3,5.66s-2.22,1.85-4.07,1.85-3.17-.6-4.04-1.81-1.33-3.01-1.36-5.41v-2.89c0-2.51.43-4.37,1.3-5.59s2.23-1.83,4.08-1.83,3.19.59,4.05,1.76,1.31,2.99,1.34,5.44v2.81Zm-2.17-2.96c0-1.84-.26-3.17-.77-4.01s-1.33-1.26-2.45-1.26-1.92.42-2.43,1.25-.77,2.12-.79,3.86v3.47c0,1.84.27,3.21.8,4.08s1.35,1.32,2.43,1.32,1.87-.41,2.38-1.24.79-2.13.81-3.91v-3.55Z"/><path d="m361.93,366.61c0,2.54-.43,4.43-1.3,5.66s-2.22,1.85-4.07,1.85-3.17-.6-4.04-1.81-1.33-3.01-1.36-5.41v-2.89c0-2.51.43-4.37,1.3-5.59s2.23-1.83,4.08-1.83,3.19.59,4.05,1.76,1.31,2.99,1.34,5.44v2.81Zm-2.17-2.96c0-1.84-.26-3.17-.77-4.01s-1.33-1.26-2.45-1.26-1.92.42-2.43,1.25-.77,2.12-.79,3.86v3.47c0,1.84.27,3.21.8,4.08s1.35,1.32,2.43,1.32,1.87-.41,2.38-1.24.79-2.13.81-3.91v-3.55Z"/><path d="m372.91,361.2l.06,1.41c.93-1.09,2.18-1.64,3.76-1.64,1.77,0,2.98.68,3.62,2.04.42-.61.97-1.1,1.65-1.48s1.47-.56,2.4-.56c2.78,0,4.2,1.47,4.24,4.42v8.5h-2.17v-8.37c0-.91-.21-1.58-.62-2.03s-1.11-.67-2.09-.67c-.8,0-1.47.24-2,.72s-.84,1.13-.93,1.94v8.41h-2.18v-8.31c0-1.84-.9-2.77-2.71-2.77-1.42,0-2.39.61-2.92,1.82v9.26h-2.17v-12.68h2.05Z"/><path d="m415.86,88.81l2.68-14.16h4.09l-4.42,19.91h-4.13l-3.24-13.32-3.24,13.32h-4.13l-4.42-19.91h4.09l2.69,14.14,3.28-14.14h3.47l3.27,14.16Z" fill="#231e20"/><path d="m719.7,85.92h-7.88v5.33h9.24v3.29h-13.34v-19.91h13.32v3.32h-9.21v4.74h7.88v3.21Z" fill="#231e20"/><path d="m625.53,365.33l.87-8.51h8.74v2h-6.9l-.52,4.65c.84-.49,1.79-.74,2.85-.74,1.55,0,2.79.51,3.7,1.54s1.37,2.42,1.37,4.17-.47,3.14-1.42,4.15-2.28,1.52-3.98,1.52c-1.51,0-2.74-.42-3.69-1.25s-1.5-1.99-1.63-3.47h2.05c.13.98.48,1.71,1.04,2.21s1.3.74,2.23.74c1.01,0,1.8-.34,2.37-1.03s.86-1.64.86-2.85c0-1.14-.31-2.06-.93-2.75s-1.45-1.04-2.48-1.04c-.95,0-1.69.21-2.23.62l-.57.47-1.73-.45Z"/><path d="m648.71,366.61c0,2.54-.43,4.43-1.3,5.66s-2.22,1.85-4.07,1.85-3.17-.6-4.04-1.81-1.33-3.01-1.36-5.41v-2.89c0-2.51.43-4.37,1.3-5.59s2.23-1.83,4.08-1.83,3.19.59,4.05,1.76,1.31,2.99,1.34,5.44v2.81Zm-2.17-2.96c0-1.84-.26-3.17-.77-4.01s-1.33-1.26-2.45-1.26-1.92.42-2.43,1.25-.77,2.12-.79,3.86v3.47c0,1.84.27,3.21.8,4.08s1.35,1.32,2.43,1.32,1.87-.41,2.38-1.24.79-2.13.81-3.91v-3.55Z"/><path d="m662.19,366.61c0,2.54-.43,4.43-1.3,5.66s-2.22,1.85-4.07,1.85-3.17-.6-4.04-1.81-1.33-3.01-1.36-5.41v-2.89c0-2.51.43-4.37,1.3-5.59s2.23-1.83,4.08-1.83,3.19.59,4.05,1.76,1.31,2.99,1.34,5.44v2.81Zm-2.17-2.96c0-1.84-.26-3.17-.77-4.01s-1.33-1.26-2.45-1.26-1.92.42-2.43,1.25-.77,2.12-.79,3.86v3.47c0,1.84.27,3.21.8,4.08s1.35,1.32,2.43,1.32,1.87-.41,2.38-1.24.79-2.13.81-3.91v-3.55Z"/><path d="m673.17,361.2l.06,1.41c.93-1.09,2.18-1.64,3.76-1.64,1.77,0,2.98.68,3.62,2.04.42-.61.97-1.1,1.65-1.48s1.47-.56,2.4-.56c2.78,0,4.2,1.47,4.24,4.42v8.5h-2.17v-8.37c0-.91-.21-1.58-.62-2.03s-1.11-.67-2.09-.67c-.8,0-1.47.24-2,.72s-.84,1.13-.93,1.94v8.41h-2.18v-8.31c0-1.84-.9-2.77-2.71-2.77-1.42,0-2.39.61-2.92,1.82v9.26h-2.17v-12.68h2.05Z"/><path d="m752.76,422.88h-2.18v-14.45l-4.37,1.61v-1.97l6.21-2.33h.34v17.14Z"/><path d="m770.29,422.88h-11.18v-1.56l5.91-6.56c.88-.99,1.48-1.8,1.81-2.42s.5-1.26.5-1.93c0-.89-.27-1.62-.81-2.19s-1.26-.86-2.16-.86c-1.08,0-1.92.31-2.51.92s-.9,1.47-.9,2.56h-2.17c0-1.57.51-2.84,1.52-3.81s2.37-1.45,4.06-1.45c1.59,0,2.84.42,3.76,1.25s1.38,1.94,1.38,3.32c0,1.68-1.07,3.68-3.21,6l-4.57,4.96h8.57v1.77Z"/><path d="m783.29,415.61c0,2.54-.43,4.43-1.3,5.66s-2.22,1.85-4.07,1.85-3.17-.6-4.04-1.81-1.33-3.01-1.36-5.41v-2.89c0-2.51.43-4.37,1.3-5.59s2.23-1.83,4.08-1.83,3.19.59,4.05,1.76,1.31,2.99,1.34,5.44v2.81Zm-2.17-2.96c0-1.84-.26-3.17-.77-4.01s-1.33-1.26-2.45-1.26-1.92.42-2.43,1.25-.77,2.12-.79,3.86v3.47c0,1.84.27,3.21.8,4.08s1.35,1.32,2.43,1.32,1.87-.41,2.38-1.24.79-2.13.81-3.91v-3.55Z"/><path d="m796.77,415.61c0,2.54-.43,4.43-1.3,5.66s-2.22,1.85-4.07,1.85-3.17-.6-4.04-1.81-1.33-3.01-1.36-5.41v-2.89c0-2.51.43-4.37,1.3-5.59s2.23-1.83,4.08-1.83,3.19.59,4.05,1.76,1.31,2.99,1.34,5.44v2.81Zm-2.17-2.96c0-1.84-.26-3.17-.77-4.01s-1.33-1.26-2.45-1.26-1.92.42-2.43,1.25-.77,2.12-.79,3.86v3.47c0,1.84.27,3.21.8,4.08s1.35,1.32,2.43,1.32,1.87-.41,2.38-1.24.79-2.13.81-3.91v-3.55Z"/><path d="m807.75,410.2l.06,1.41c.93-1.09,2.18-1.64,3.76-1.64,1.77,0,2.98.68,3.62,2.04.42-.61.97-1.1,1.65-1.48s1.47-.56,2.4-.56c2.78,0,4.2,1.47,4.24,4.42v8.5h-2.17v-8.37c0-.91-.21-1.58-.62-2.03s-1.11-.67-2.09-.67c-.8,0-1.47.24-2,.72s-.84,1.13-.93,1.94v8.41h-2.18v-8.31c0-1.84-.9-2.77-2.71-2.77-1.42,0-2.39.61-2.92,1.82v9.26h-2.17v-12.68h2.05Z"/><line x1="152.72" y1="314" x2="152.72" y2="374" fill="none" stroke="#000" stroke-miterlimit="10" stroke-width="2"/><line x1="545" y1="314" x2="545" y2="424" fill="none" stroke="#000" stroke-miterlimit="10" stroke-width="2"/><line x1="768" y1="314" x2="768" y2="374" fill="none" stroke="#000" stroke-miterlimit="10" stroke-width="2"/><line x1="1022" y1="314" x2="1022" y2="424" fill="none" stroke="#000" stroke-miterlimit="10" stroke-width="2"/><line x1="165.48" y1="347.46" x2="533.52" y2="347.46" fill="none" stroke="#000" stroke-miterlimit="10" stroke-width="2"/><polygon points="167.82 355.44 154 347.46 167.82 339.48 167.82 355.44"/><polygon points="531.18 355.44 545 347.46 531.18 339.48 531.18 355.44"/><line x1="556.48" y1="347.46" x2="756.52" y2="347.46" fill="none" stroke="#000" stroke-miterlimit="10" stroke-width="2"/><polygon points="558.82 355.44 545 347.46 558.82 339.48 558.82 355.44"/><polygon points="754.18 355.44 768 347.46 754.18 339.48 754.18 355.44"/><line x1="556.48" y1="393" x2="1010.52" y2="393" fill="none" stroke="#000" stroke-miterlimit="10" stroke-width="2"/><polygon points="558.82 400.98 545 393 558.82 385.02 558.82 400.98"/><polygon points="1008.18 400.98 1022 393 1008.18 385.02 1008.18 400.98"/><line x1="456.32" y1="84.55" x2="673.32" y2="84.55" fill="none" stroke="#0077a2" stroke-miterlimit="10" stroke-width="3"/><polygon points="459.82 96.52 439.1 84.55 459.82 72.58 459.82 96.52" fill="#0077a2"/><polygon points="669.82 96.52 690.55 84.55 669.82 72.58 669.82 96.52" fill="#0077a2"/><path d="m106.42,91.58s10.07-7.55,23.49-5.87c13.42,1.68,19.3,5.03,19.3,5.03,0,0,25.17-3.36,39.43,3.36,14.26,6.71,15.94,9.23,10.91,10.07-5.03.84-107.39-.84-107.39-.84,0,0-4.19-7.55.84-8.39,5.03-.84,13.42-3.36,13.42-3.36Z" fill="#bfefec"/><path d="m288.16,141.17s1.68-6.71,19.3-6.71h22.47s15.94-10.07,26.01-10.07,25.17,1.68,32.72,2.52c7.55.84,14.26,5.03,26.85,5.03s20.97-1.68,31.88,4.19c10.91,5.87,6.71,11.75-3.36,11.75s-160.25-.84-164.44-.84,4.38-6.71,8.58-5.87Z" fill="#bfefec"/><path d="m959.55,57.12s-7.24-13.53-29.9-12.9c-22.34.62-31.47,10.07-31.47,10.07,0,0-28.95-10.7-48.15-3.78-14.7,5.3-18.88,12.27-18.88,12.27,0,0-26.44-2.83-26.44,4.72s4.72,8.5,25.49,9.44c20.77.94,118.97-.94,118.97-.94,0,0-7.87,2.05-3.15,9.6,4.27,6.83,60.3,3.36,70.96,2.64,1.63-.11,3.19-.83,4.21-2.11,1.53-1.92,1.91-5.02-6.08-8.4-7.08-2.99-24.39-3.62-24.39-3.62,0,0,10.39-20.77-31.16-17Z" fill="#bfefec"/><rect x="495.56" y="241.07" width="102.53" height="41.17" transform="translate(1093.65 523.31) rotate(-180)" fill="#d3ab76"/><rect x="551.35" y="241.89" width="46.82" height="40.35" transform="translate(1149.52 524.13) rotate(180)" fill="#cf6565"/><rect x="574.39" y="247.68" width="4.99" height="1.9" transform="translate(1153.77 497.25) rotate(180)" fill="none" mix-blend-mode="screen" opacity=".56" stroke="#de9694" stroke-miterlimit="10" stroke-width=".61"/><rect x="556.6" y="266.97" width="4.99" height="1.9" transform="translate(1118.19 535.83) rotate(180)" fill="none" mix-blend-mode="screen" opacity=".56" stroke="#de9694" stroke-miterlimit="10" stroke-width=".61"/><rect x="555.38" y="247.3" width="9.65" height="21.19" transform="translate(1120.42 515.79) rotate(180)" fill="#57b2a5" stroke="#fff" stroke-miterlimit="10" stroke-width="1.49"/><rect x="569.57" y="247.3" width="9.65" height="21.19" transform="translate(1148.8 515.79) rotate(180)" fill="#57b2a5" stroke="#fff" stroke-miterlimit="10" stroke-width="1.49"/><rect x="583.77" y="247.3" width="9.65" height="21.19" transform="translate(1177.19 515.79) rotate(180)" fill="#57b2a5" stroke="#fff" stroke-miterlimit="10" stroke-width="1.49"/><path d="m522.14,205.04l54.28-.02,23.92,36.27h-78.21s1.39-37.63,0-36.25Z" fill="#414042"/><path d="m571.17,205.04h-54.26l-23.91,36.25h78.17s-1.38-37.63,0-36.25Z" fill="#414042"/><polyline points="551.02 241.75 495.11 241.75 523.07 213.85" fill="#f0f0f0"/><polygon points="550.77 226.7 567.47 210.03 584.16 226.7 550.77 226.7" fill="#f0f0f0" stroke="#cdd0d1" stroke-miterlimit="10" stroke-width=".31"/><polygon points="580.1 225.01 567.47 212.4 554.84 225.01 580.1 225.01" fill="#cdd0d1"/><polygon points="523.07 217.66 499.08 241.6 547.05 241.6 523.07 217.66" fill="#cdd0d1"/><rect x="551.15" y="226.69" width="33.25" height="14.75" transform="translate(1135.55 468.13) rotate(-180)" fill="#d47876"/><rect x="514.07" y="251.37" width="20.32" height="30.95" transform="translate(1048.45 533.68) rotate(-180)" fill="#f0f0f0"/><rect x="510.05" y="260.37" width="28.32" height="15.58" transform="translate(792.37 -256.05) rotate(90)" fill="#5e5b60"/><g clip-path="url(#e)"><polygon points="532.82 262.67 516.21 258.19 516.21 260.13 526.8 263.33 532.82 262.67" fill="#57b2a5"/><g clip-path="url(#g)"><path d="m521.75,264.61v-8.58h4.93v7.27c-1.82.35-3.48.82-4.93,1.3Z" fill="#57b2a5" stroke="#fff" stroke-miterlimit="10" stroke-width="1.49"/><path d="m527.91,263.09v-7.05h4.93v6.61c-1.72.03-3.38.19-4.93.44Z" fill="#57b2a5" stroke="#fff" stroke-miterlimit="10" stroke-width="1.49"/><path d="m520.83,256.04v9.02c-3.07,1.14-4.93,2.27-4.93,2.27v-11.29h4.93Z" fill="#57b2a5" stroke="#fff" stroke-miterlimit="10" stroke-width="1.49"/></g><polygon points="532.82 262.67 516.21 258.19 516.21 260.13 526.8 263.33 532.82 262.67" fill="none" stroke="#fff" stroke-miterlimit="10" stroke-width="1.49"/></g><rect x="529.53" y="265.38" width="1.31" height="6.45" transform="translate(1060.36 537.22) rotate(-180)" fill="#f0f0f0"/><rect x="495.32" y="240.73" width="56.64" height="2.77" transform="translate(1047.27 484.23) rotate(-180)" fill="#f0f0f0"/><rect x="550.09" y="239.43" width="50.48" height="2.46" transform="translate(1150.67 481.33) rotate(-180)" fill="#f0f0f0"/><g id="h"><polygon points="830.7 202.42 704.76 202.39 704.29 282.21 829.84 281.76 830.7 202.42" fill="#b85a10"/><polygon points="704.02 198.34 834.7 198.09 833.94 203.68 702.7 203.05 704.02 198.34" fill="#beb0a8"/><polygon points="711.43 235.95 710.56 234.95 711.67 234.71 711.43 235.95" fill="#453f3a" opacity=".2"/><polygon points="712.18 235.28 740.44 235.4 740.43 244.1 712.26 244.05 712.18 235.28" fill="#423f4a"/><path d="m741.66,244.1l-30.66-.1v-9l31.01-.22-.35,9.33Zm-29.29-.68l27.91.05-.05-7.38-27.95-.23.09,7.56Z" fill="#b1a198"/><polygon points="711.65 234.66 711.65 235.28 741.24 235.34 741.25 234.71 711.65 234.66" opacity=".2"/><polygon points="742.14 233.47 741.97 235.34 710.56 235.28 710.4 233.4 742.14 233.47" fill="#d8c4bc"/><path d="m711.63,244.03c9.79-.08,19.67-.12,29.42.07-9.79.07-19.67.13-29.42-.07h0Z" fill="#6e645f"/><rect x="716.76" y="238.93" width="8.14" height="1.25" transform="translate(479.87 959.92) rotate(-89.89)" fill="#b1a198"/><rect x="727.29" y="238.84" width="8.14" height="1.25" transform="translate(490.47 970.35) rotate(-89.89)" fill="#b1a198"/><polygon points="750.9 246.62 779.16 246.74 779.13 264.2 750.96 264.15 750.9 246.62" fill="#423f4a"/><path d="m750.33,246l30.4.12-.37,18.71-30.02-.06m1.35-1.25l27.36.05-.19-16.36-27.23-.02.07,16.33Z" fill="#b1a198"/><polygon points="748.27 264.14 781.34 264.2 781.25 266.09 748.37 266.03 748.27 264.14" fill="#d8c4bc"/><polygon points="779.39 256.07 750.84 255.91 750.87 254.76 779.42 254.92 779.39 256.07" fill="#b1a198"/><polygon points="781.43 242.78 781.27 246.06 749.48 245.92 749.33 242.87 781.43 242.78" fill="#d8c4bc"/><path d="m749.92,243.47c.26-.13.52-.06.78-.09.24.03.58-.09.78.07-.26.12-.52.06-.78.09-.24-.03-.58.1-.78-.07h0Z" fill="#dfccc1"/><path d="m752.25,244.11c.1-.12.21-.05.31-.07.09.02.26-.06.31.09-.1.12-.21.05-.31.07-.09-.02-.26.06-.31-.09h0Z" fill="#dfccc1"/><path d="m753.5,243.49c.1-.12.21-.05.31-.07.09.02.26-.06.31.09-.1.12-.21.05-.31.07-.09-.02-.26.06-.31-.09h0Z" fill="#dfccc1"/><path d="m751.81,265.33c.26-.13.52-.06.78-.09.24.03.58-.09.78.07-.26.12-.52.06-.78.09-.24-.03-.58.1-.78-.07h0Z" fill="#dfccc1"/><path d="m749.08,265.39c.21-.12.42-.04.63-.07.19.03.48-.07.63.09-.21.12-.42.05-.63.07-.19-.03-.48.08-.63-.09h0Z" fill="#dfccc1"/><path d="m750.96,264.76c.1-.12.21-.05.31-.07.09.02.26-.06.31.09-.1.12-.21.05-.31.07-.09-.02-.26.06-.31-.09h0Z" fill="#dfccc1"/><polygon points="766.08 246.97 766.06 255.46 764.06 255.43 764.08 246.94 766.08 246.97" fill="#b1a198"/><polygon points="791.9 246.62 820.16 246.74 820.13 264.2 791.96 264.15 791.9 246.62" fill="#423f4a"/><path d="m791.33,246l30.4.12-.37,18.71-30.02-.06m1.35-1.25l27.36.05-.19-16.36-27.23-.02.07,16.33Z" fill="#b1a198"/><polygon points="789.27 264.14 822.34 264.2 822.25 266.09 789.37 266.03 789.27 264.14" fill="#d8c4bc"/><polygon points="820.39 256.07 791.84 255.91 791.87 254.76 820.42 254.92 820.39 256.07" fill="#b1a198"/><polygon points="822.43 242.78 822.27 246.06 790.48 245.92 790.33 242.87 822.43 242.78" fill="#d8c4bc"/><path d="m790.92,243.47c.26-.13.52-.06.78-.09.24.03.58-.09.78.07-.26.12-.52.06-.78.09-.24-.03-.58.1-.78-.07h0Z" fill="#dfccc1"/><path d="m793.25,244.11c.1-.12.21-.05.31-.07.09.02.26-.06.31.09-.1.12-.21.05-.31.07-.09-.02-.26.06-.31-.09h0Z" fill="#dfccc1"/><path d="m794.5,243.49c.1-.12.21-.05.31-.07.09.02.26-.06.31.09-.1.12-.21.05-.31.07-.09-.02-.26.06-.31-.09h0Z" fill="#dfccc1"/><path d="m792.81,265.33c.26-.13.52-.06.78-.09.24.03.58-.09.78.07-.26.12-.52.06-.78.09-.24-.03-.58.1-.78-.07h0Z" fill="#dfccc1"/><path d="m790.08,265.39c.21-.12.42-.04.63-.07.19.03.48-.07.63.09-.21.12-.42.05-.63.07-.19-.03-.48.08-.63-.09h0Z" fill="#dfccc1"/><path d="m791.96,264.76c.1-.12.21-.05.31-.07.09.02.26-.06.31.09-.1.12-.21.05-.31.07-.09-.02-.26.06-.31-.09h0Z" fill="#dfccc1"/><polygon points="807.08 246.97 807.06 255.46 805.06 255.43 805.08 246.94 807.08 246.97" fill="#b1a198"/><polygon points="750.9 213.62 779.16 213.74 779.13 231.2 750.96 231.15 750.9 213.62" fill="#423f4a"/><path d="m750.33,213l30.4.12-.37,18.71-30.02-.06m1.35-1.25l27.36.05-.19-16.36-27.23-.02.07,16.33Z" fill="#b1a198"/><polygon points="748.27 231.14 781.34 231.2 781.25 233.09 748.37 233.03 748.27 231.14" fill="#d8c4bc"/><polygon points="779.39 223.07 750.84 222.91 750.87 221.76 779.42 221.92 779.39 223.07" fill="#b1a198"/><polygon points="781.43 209.78 781.27 213.06 749.48 212.92 749.33 209.87 781.43 209.78" fill="#d8c4bc"/><path d="m749.92,210.47c.26-.13.52-.06.78-.09.24.03.58-.09.78.07-.26.12-.52.06-.78.09-.24-.03-.58.1-.78-.07h0Z" fill="#dfccc1"/><path d="m752.25,211.11c.1-.12.21-.05.31-.07.09.02.26-.06.31.09-.1.12-.21.05-.31.07-.09-.02-.26.06-.31-.09h0Z" fill="#dfccc1"/><path d="m753.5,210.49c.1-.12.21-.05.31-.07.09.02.26-.06.31.09-.1.12-.21.05-.31.07-.09-.02-.26.06-.31-.09h0Z" fill="#dfccc1"/><path d="m751.81,232.33c.26-.13.52-.06.78-.09.24.03.58-.09.78.07-.26.12-.52.06-.78.09-.24-.03-.58.1-.78-.07h0Z" fill="#dfccc1"/><path d="m749.08,232.39c.21-.12.42-.04.63-.07.19.03.48-.07.63.09-.21.12-.42.05-.63.07-.19-.03-.48.08-.63-.09h0Z" fill="#dfccc1"/><path d="m750.96,231.76c.1-.12.21-.05.31-.07.09.02.26-.06.31.09-.1.12-.21.05-.31.07-.09-.02-.26.06-.31-.09h0Z" fill="#dfccc1"/><polygon points="766.08 213.97 766.06 222.46 764.06 222.43 764.08 213.94 766.08 213.97" fill="#b1a198"/><polygon points="791.9 213.62 820.16 213.74 820.13 231.2 791.96 231.15 791.9 213.62" fill="#423f4a"/><path d="m791.33,213l30.4.12-.37,18.71-30.02-.06m1.35-1.25l27.36.05-.19-16.36-27.23-.02.07,16.33Z" fill="#b1a198"/><polygon points="789.27 231.14 822.34 231.2 822.25 233.09 789.37 233.03 789.27 231.14" fill="#d8c4bc"/><polygon points="820.39 223.07 791.84 222.91 791.87 221.76 820.42 221.92 820.39 223.07" fill="#b1a198"/><polygon points="822.43 209.78 822.27 213.06 790.48 212.92 790.33 209.87 822.43 209.78" fill="#d8c4bc"/><path d="m790.92,210.47c.26-.13.52-.06.78-.09.24.03.58-.09.78.07-.26.12-.52.06-.78.09-.24-.03-.58.1-.78-.07h0Z" fill="#dfccc1"/><path d="m793.25,211.11c.1-.12.21-.05.31-.07.09.02.26-.06.31.09-.1.12-.21.05-.31.07-.09-.02-.26.06-.31-.09h0Z" fill="#dfccc1"/><path d="m794.5,210.49c.1-.12.21-.05.31-.07.09.02.26-.06.31.09-.1.12-.21.05-.31.07-.09-.02-.26.06-.31-.09h0Z" fill="#dfccc1"/><path d="m792.81,232.33c.26-.13.52-.06.78-.09.24.03.58-.09.78.07-.26.12-.52.06-.78.09-.24-.03-.58.1-.78-.07h0Z" fill="#dfccc1"/><path d="m790.08,232.39c.21-.12.42-.04.63-.07.19.03.48-.07.63.09-.21.12-.42.05-.63.07-.19-.03-.48.08-.63-.09h0Z" fill="#dfccc1"/><path d="m791.96,231.76c.1-.12.21-.05.31-.07.09.02.26-.06.31.09-.1.12-.21.05-.31.07-.09-.02-.26.06-.31-.09h0Z" fill="#dfccc1"/><polygon points="807.08 213.97 807.06 222.46 805.06 222.43 805.08 213.94 807.08 213.97" fill="#b1a198"/><polygon points="740.58 282.28 710.87 282.22 710.9 244.97 740.98 245.16 740.58 282.28" fill="#b1a198"/><polygon points="712.77 247.8 725.03 247.94 724.97 281 712.75 280.97 712.77 247.8" fill="#423f4a"/><polygon points="727.03 247.83 739.73 247.96 739.66 281.03 727.01 281 727.03 247.83" fill="#423f4a"/><polygon points="740.32 255.99 711.39 255.83 711.42 254.68 740.36 254.85 740.32 255.99" fill="#b1a198"/><polygon points="742.36 244.01 742.2 245.98 710.41 245.88 710.25 244.04 742.36 244.01" fill="#d8c4bc"/><rect x="726.58" y="262.22" width="1.25" height="8.76" transform="translate(.52 -1.41) rotate(.11)" fill="#d8c4bc"/><rect x="724.08" y="262.21" width="1.25" height="8.76" transform="translate(.52 -1.41) rotate(.11)" fill="#d8c4bc"/><path d="m748.27,279.97s-4.25,1.1-3.76-1.44.03-4.89,3.76-5.21,3.73-3.32,6.73-3.32,14.17-1.81,19.08-3.4,12.14-1.3,16.53.55,12.2,1.63,15.3,1.74.79-1.05,8.94-1.47,8.41,5.35,11.78,5.46,4.47,1,5.42,1.56,2.05,3.62,0,4.09l-2.05.47-81.73.97Z" fill="#52aa7a"/><polygon points="829.84 282.53 745.26 282.29 744.51 278.53 829.85 278.78 829.84 282.53" fill="#beb0a8"/><polygon points="741.45 282.28 709.62 282.22 709.62 279.09 742.23 279.15 741.45 282.28" fill="#beb0a8"/><polygon points="711.57 226.86 741.47 212.04 742.3 212.49 742.17 227.2 712.3 227.37 711.57 226.86" fill="#b1a198"/><polygon points="711.42 212.12 741.67 212.07 741.54 226.58 711.6 226.74 711.42 212.12" fill="#c8b6ac"/></g><rect x="945.83" y="268.89" width="143.24" height="11.08" fill="#b63f1a"/><rect x="944.18" y="274.44" width="146.52" height="8.69" fill="#8d3d26"/><rect x="984" y="171.21" width="67.72" height="2.25" fill="#d7ccbf"/><polygon points="1051.68 171.32 983.99 171.21 982.26 169.68 1052.84 169.68 1051.68 171.32" fill="#d7ccbf"/><rect x="945.83" y="187.21" width="143.24" height="18.06" fill="#b63f1a"/><rect x="945.86" y="205.26" width="143.17" height="59.89" fill="#b63f1a"/><rect x="944.22" y="264.74" width="146.45" height="4.1" fill="#8d3d26"/><rect x="993.85" y="165.87" width="48.02" height="16.01" fill="#b63f1a"/><rect x="944.59" y="192.14" width="146.11" height="7.39" fill="#d7ccbf"/><rect x="945.83" y="185.57" width="143.24" height="1.64" fill="#d7ccbf"/><polygon points="1089.06 185.57 945.83 185.57 944.59 183.91 1090.7 183.91 1089.06 185.57" fill="#d7ccbf"/><rect x="993.85" y="164.53" width="48.02" height="1.54" fill="#d7ccbf"/><polygon points="1041.86 164.64 993.85 164.53 992.61 163 1042.69 163 1041.86 164.64" fill="#d7ccbf"/><rect x="945.83" y="203" width="143.24" height="3.32" fill="#692b1c"/><rect x="984.01" y="173.26" width="67.69" height="109.82" fill="#b63f1a"/><rect x="984" y="199.53" width="67.72" height="4.51" fill="#f1d186"/><rect x="984" y="183.11" width="67.72" height="12.31" fill="#d7ccbf"/><rect x="996.31" y="167.93" width="43.09" height="12.31" fill="#d7ccbf"/><rect x="984.01" y="260.62" width="67.65" height="3.45" fill="#8d3d26"/><rect x="1052.27" y="213.71" width="34.86" height="2.51" fill="#e2e2e1"/><rect x="1053.86" y="217" width="31.46" height="31.46" fill="#455a64"/><rect x="1053.5" y="216.5" width="32.23" height="32.37" fill="none" stroke="#e2e2e1" stroke-miterlimit="10" stroke-width="2"/><line x1="1064.24" y1="216.99" x2="1064.24" y2="248.71" fill="none" stroke="#e2e2e1" stroke-miterlimit="10" stroke-width="2"/><line x1="1075.38" y1="217.02" x2="1075.38" y2="248.74" fill="none" stroke="#e2e2e1" stroke-miterlimit="10" stroke-width="2"/><line x1="1053.5" y1="226.84" x2="1085.73" y2="226.84" fill="none" stroke="#e2e2e1" stroke-miterlimit="10" stroke-width="2"/><line x1="1053.5" y1="243.55" x2="1085.73" y2="243.55" fill="none" stroke="#e2e2e1" stroke-miterlimit="10" stroke-width="2"/><polygon points="1070.8 215.53 1069.15 215.53 1067.25 211.62 1072.7 211.62 1070.8 215.53" fill="#c8c7c7"/><polygon points="1070.8 215.53 1069.15 215.53 1068.35 210.8 1071.6 210.8 1070.8 215.53" fill="#eee"/><rect x="948.27" y="213.71" width="34.86" height="2.51" fill="#e2e2e1"/><rect x="949.86" y="217" width="31.46" height="31.46" fill="#455a64"/><rect x="949.5" y="216.5" width="32.23" height="32.37" fill="none" stroke="#e2e2e1" stroke-miterlimit="10" stroke-width="2"/><line x1="960.24" y1="216.99" x2="960.24" y2="248.71" fill="none" stroke="#e2e2e1" stroke-miterlimit="10" stroke-width="2"/><line x1="971.38" y1="217.02" x2="971.38" y2="248.74" fill="none" stroke="#e2e2e1" stroke-miterlimit="10" stroke-width="2"/><line x1="949.5" y1="226.84" x2="981.73" y2="226.84" fill="none" stroke="#e2e2e1" stroke-miterlimit="10" stroke-width="2"/><line x1="949.5" y1="243.55" x2="981.73" y2="243.55" fill="none" stroke="#e2e2e1" stroke-miterlimit="10" stroke-width="2"/><polygon points="966.8 215.53 965.15 215.53 963.25 211.62 968.7 211.62 966.8 215.53" fill="#c8c7c7"/><polygon points="966.8 215.53 965.15 215.53 964.35 210.8 967.6 210.8 966.8 215.53" fill="#eee"/><rect x="1003.46" y="266" width="27.78" height="3" fill="#8d3d26"/><rect x="1003.46" y="272" width="27.78" height="3.84" fill="#8d3d26"/><polyline points="1031.24 280 1031.24 283.37 1003.46 283.37 1003.46 280" fill="#8d3d26"/><rect x="1030.58" y="264.07" width="21.26" height="19.01" fill="#f1d186"/><rect x="1027.91" y="260.1" width="26.65" height="4.48" fill="#fff"/><rect x="1028.84" y="278.73" width="24" height="4.75" fill="#d5b877"/><polygon points="1037.77 204.03 1044.7 204.03 1046.37 260.1 1036.1 260.1 1037.77 204.03" fill="#fde5c8"/><path d="m1045.97,203.11h-9.75c-1.19,0-2.15.96-2.15,2.15s.96,2.15,2.15,2.15,2.15-.96,2.15-2.15h5.46c0,1.19.96,2.15,2.15,2.15s2.15-.96,2.15-2.15-.96-2.15-2.15-2.15Z" fill="#fde5c8"/><rect x="984" y="264.11" width="21.27" height="19.02" fill="#f1d186"/><rect x="981.33" y="260.14" width="26.27" height="4.48" fill="#f1f1f1"/><rect x="982.26" y="278.79" width="24.01" height="4.75" fill="#d5b877"/><polygon points="991.19 204.04 998.12 204.04 999.79 260.14 989.52 260.14 991.19 204.04" fill="#fde5c8"/><path d="m999.39,203.12h-9.76c-1.19,0-2.15.96-2.15,2.15s.96,2.15,2.15,2.15,2.15-.96,2.15-2.15h5.46c0,1.19.96,2.15,2.15,2.15s2.15-.96,2.15-2.15-.96-2.15-2.15-2.15Z" fill="#fde5c8"/><circle cx="1017.56" cy="212.96" r="6.66" fill="#e2e2e1"/><path d="m1023.08,212.97c0,3.04-2.47,5.51-5.51,5.51-.33,0-.66-.03-.98-.09-1.03-.18-1.97-.66-2.72-1.33-1.12-1.01-1.82-2.47-1.82-4.09,0-3.04,2.47-5.51,5.51-5.51.46,0,.91.06,1.33.16,1.36.34,2.53,1.19,3.28,2.33.57.87.9,1.91.9,3.02Z" fill="#546e7a"/><path d="m1016.73,206.36v13.21l1.79-.5-.96-12.23-.83-.48Z" fill="#e2e2e1"/><polygon points="1011.34 212.53 1023.51 212 1023.51 213.58 1011.34 213.58 1011.34 212.53" fill="#e2e2e1"/><rect x="1007.6" y="230.58" width="20.31" height="30.51"/><polygon points="1001.55 230.35 1033.96 230.35 1018.06 220.4 1001.55 230.35" fill="#d7ccbf"/><polygon points="1005.61 230.35 1030.1 230.35 1018.08 221.87 1005.61 230.35" fill="#6b2d1b"/><polygon points="1001.55 231.83 1033.96 231.83 1035.33 230.35 999.8 230.35 1001.55 231.83" fill="#d7ccbf"/><rect x="1027.91" y="231.83" width="6.05" height="28.79" fill="#d7ccbf"/><rect x="1029.68" y="233.19" width="2.29" height="26.09" fill="#b9afa4"/><rect x="1001.55" y="231.83" width="6.05" height="28.79" fill="#d7ccbf"/><rect x="1002.94" y="233.19" width="3.03" height="26.09" fill="#b9afa4"/><rect x="1016.8" y="231.83" width="2.2" height="28.79" fill="#333"/><polygon points="1018.88 231.46 1017.24 231.46 1015.33 227.55 1020.79 227.55 1018.88 231.46" fill="#c8c7c7"/><polygon points="1018.88 231.46 1017.24 231.46 1016.44 226.74 1019.68 226.74 1018.88 231.46" fill="#eee"/><rect x="57.52" y="207.44" width="191.84" height="75.01" fill="#f1f1f1"/><rect x="61.15" y="211.79" width="136.3" height="57.07" fill="#455a64"/><rect x="60.28" y="220.32" width="53.84" height="3.76" fill="#f1f1f1"/><rect x="60.28" y="232.62" width="53.84" height="3.76" fill="#f1f1f1"/><rect x="60.28" y="244.92" width="53.84" height="3.76" fill="#f1f1f1"/><rect x="60.28" y="257.21" width="53.84" height="3.76" fill="#f1f1f1"/><rect x="112.99" y="194.32" width="136.37" height="88.12" fill="#f1f1f1"/><rect x="111.83" y="193.15" width="68.47" height="2.33" fill="#b63f1a"/><rect x="142.59" y="193.15" width="42.88" height="10" fill="#b63f1a"/><rect x="183.85" y="188.17" width="65.57" height="87.1" fill="#f1f1f1"/><rect x="183.3" y="187" width="67.17" height="2.61" fill="#b63f1a"/><rect x="112.82" y="202.99" width="136.49" height="59.53" fill="#455a64"/><line x1="123.55" y1="203.01" x2="123.55" y2="262.85" fill="none" stroke="#e2e2e1" stroke-miterlimit="10" stroke-width="2"/><line x1="214.67" y1="202.75" x2="214.67" y2="262.77" fill="none" stroke="#e2e2e1" stroke-miterlimit="10" stroke-width="2"/><line x1="112.31" y1="214.99" x2="249.72" y2="214.99" fill="none" stroke="#e2e2e1" stroke-linecap="round" stroke-miterlimit="10" stroke-width="2"/><line x1="112.31" y1="227.29" x2="249.72" y2="227.29" fill="none" stroke="#e2e2e1" stroke-linecap="round" stroke-miterlimit="10" stroke-width="2"/><line x1="112.31" y1="239.58" x2="249.72" y2="239.58" fill="none" stroke="#e2e2e1" stroke-linecap="round" stroke-miterlimit="10" stroke-width="2"/><rect x="54.96" y="207.29" width="2.67" height="74.13" fill="#b63f1a"/><polygon points="198.15 282.62 128.93 282.48 128.95 246.66 199.03 246.95 198.15 282.62" fill="#dfdddd"/><polygon points="147.03 249.07 160.83 249.23 160.75 280.98 147 280.95 147.03 249.07" fill="#455a64"/><polygon points="166.3 249.1 180.54 249.27 180.46 281.01 166.27 280.99 166.3 249.1" fill="#455a64"/><polygon points="130.6 249.07 144.84 249.23 144.76 280.98 130.56 280.95 130.6 249.07" fill="#455a64"/><polygon points="182.7 249.1 196.94 249.27 196.86 281.01 182.67 280.99 182.7 249.1" fill="#455a64"/><rect x="121.89" y="246.35" width="84.07" height="3.17" fill="#dfdddd"/><rect x="121.18" y="245.18" width="86.11" height="2.61" fill="#b63f1a"/></g></g></svg>