<?xml version="1.0" encoding="UTF-8"?><svg id="a" xmlns="http://www.w3.org/2000/svg" width="1140" height="466" viewBox="0 0 1140 466"><path d="m391.47,27.15c41.68-1.56,83.66-1.48,124.89-4.01,108.43-6.67,213.36-31.72,322.42-19.89,142.35,15.44,220.88,123.04,223.33,218.49,6.61,257.85-548.82,281.84-781.26,204.34-86.27-28.76-168.26-71.05-195.99-139.22-35-86.02,27.35-195.03,146.38-235.37,51.31-17.39,105.52-22.28,160.24-24.33Z" fill="#ffe9ab"/><circle cx="599.36" cy="214.75" r="19.48"/><rect x="266.79" y="75.52" width="8.86" height="28.34" fill="#faa61a"/><polygon points="271.21 119.59 184.7 208.35 213.66 332.32 328.77 332.32 357.72 208.35 271.21 119.59" fill="#ce5757"/><polygon points="377.43 238.92 271.35 131.21 168.35 238.78 149.16 220.41 266.79 97.56 275.64 97.71 396.36 220.28 377.43 238.92" fill="#ce5757"/><path d="m272.1,243.23c-12.4,0-22.48-10.08-22.48-22.48s10.08-22.48,22.48-22.48,22.48,10.08,22.48,22.48-10.08,22.48-22.48,22.48Z" fill="#560b0b"/><path d="m272.1,201.26c10.76,0,19.48,8.72,19.48,19.48s-8.72,19.48-19.48,19.48-19.48-8.72-19.48-19.48,8.72-19.48,19.48-19.48m0-6c-14.05,0-25.48,11.43-25.48,25.48s11.43,25.48,25.48,25.48,25.48-11.43,25.48-25.48-11.43-25.48-25.48-25.48h0Z" fill="#fff"/><path d="m187.1,218.98c23.42-26.63,59.47-63.18,84.13-89.39,0,0,.86-.91.86-.91l.87.9c14.54,15.33,48.5,50.16,62.52,65.04,2.56,2.7,7.74,8.25,10.25,11,13.2,14.26,13.53,15.2-.92.89-2.71-2.63-8-7.94-10.65-10.61-14.14-14.37-48.38-49.73-62.92-64.65,0,0,1.73,0,1.73,0-14.83,15.6-49.41,51.29-63.85,66.32-3.57,3.66-7.17,7.3-10.81,10.9-3.62,3.62-7.28,7.19-10.99,10.72l-.21-.2h0Z" fill="#7f1b1b"/><path d="m272.1,279.33c-3.37.01-5.96,2.87-7.23,5.71-1.17,2.85-.4,6.31,1.8,8.43,2.88,2.93,8,2.94,10.87,0,2.2-2.12,2.97-5.58,1.8-8.44-1.23-2.89-3.84-5.73-7.24-5.71h0Zm0-.29c2.4.02,4.94.54,6.87,2.13,4.06,3.43,3.98,10.3.21,13.95-3.7,3.92-10.47,3.93-14.17,0-3.8-3.67-3.82-10.5.18-13.99,1.92-1.63,4.51-2.08,6.9-2.1h0Z" fill="#7f1b1b"/><line x1="432.93" y1="215" x2="532.52" y2="215" fill="none" stroke="#000" stroke-miterlimit="10" stroke-width="2"/><polygon points="530.18 222.98 544 215 530.18 207.02 530.18 222.98"/><path d="m967.73,97.5v235h-196.58V97.5h196.58m2-2h-200.58v239h200.58V95.5h0Z"/><path d="m678.91,212.73c0-1.55.31-2.95.92-4.19s1.46-2.2,2.55-2.87,2.33-1.01,3.73-1.01c2.16,0,3.9.75,5.24,2.24s2,3.48,2,5.96v.19c0,1.54-.3,2.93-.89,4.15s-1.44,2.18-2.53,2.86-2.36,1.03-3.79,1.03c-2.15,0-3.89-.75-5.22-2.24s-2-3.47-2-5.93v-.19Zm2.72.32c0,1.76.41,3.17,1.22,4.23s1.91,1.6,3.27,1.6,2.47-.54,3.28-1.62,1.22-2.59,1.22-4.53c0-1.74-.41-3.15-1.24-4.23s-1.92-1.62-3.29-1.62-2.42.53-3.24,1.6-1.23,2.59-1.23,4.57Z"/><path d="m704.4,207.38c-.41-.07-.85-.1-1.33-.1-1.78,0-2.98.76-3.62,2.27v11.25h-2.71v-15.85h2.64l.04,1.83c.89-1.42,2.15-2.12,3.78-2.12.53,0,.93.07,1.2.21v2.52Z"/></svg>