<?xml version="1.0" encoding="UTF-8"?><svg xmlns="http://www.w3.org/2000/svg" width="1140" height="641" xmlns:xlink="http://www.w3.org/1999/xlink" viewBox="0 0 1140 641"><defs><style>.ay,.az,.ba,.bb{fill:none;}.bc{fill:#f4c882;}.bd{fill:#faa71a;}.be{fill:#f8eac9;}.bf{fill:#010101;}.bg{fill:#0478a3;}.bh{fill:#e8d1a7;}.bi,.bj{fill:#fff;}.bk{fill:#e5e5e4;}.bl{fill:#9a3434;}.bm{fill:#9e6026;}.bn{fill:#939090;}.bo{fill:#ce996a;}.bp{fill:#a6b839;}.bq{fill:#adb0af;}.br,.bs{fill:#c9e1ee;}.bt{fill:#e1977d;}.bu{fill:#231f20;}.bv{fill:#1d1f1e;}.bw{fill:#62a6c5;}.bx{fill:#5c5c5c;}.by{fill:#799d9d;}.bz{fill:#798e39;}.ca{fill:#78757c;}.az{stroke:#010101;stroke-linecap:round;stroke-linejoin:round;}.az,.ba,.bb{stroke-width:2px;}.bj{opacity:.19;}.ba{stroke:#5a4c50;}.ba,.bb{stroke-miterlimit:10;}.bb{stroke:#5c5c5c;}.cb{opacity:.85;}.cc{clip-path:url(#v);}.cd{clip-path:url(#u);}.ce{clip-path:url(#z);}.cf{clip-path:url(#w);}.cg{clip-path:url(#x);}.ch{clip-path:url(#b);}.ci{clip-path:url(#ak);}.cj{clip-path:url(#al);}.ck{clip-path:url(#ar);}.cl{clip-path:url(#av);}.cm{clip-path:url(#aq);}.cn{clip-path:url(#as);}.co{clip-path:url(#at);}.cp{clip-path:url(#an);}.cq{clip-path:url(#ap);}.cr{clip-path:url(#ab);}.cs{clip-path:url(#af);}.ct{clip-path:url(#aa);}.cu{clip-path:url(#ac);}.cv{clip-path:url(#ad);}.cw{clip-path:url(#am);}.cx,.bs,.cy{isolation:isolate;}.cy{fill:#f5f4e9;}.cz{fill:#cbcbca;opacity:.5;}</style><clipPath id="b"><path class="ay" d="m10.578,416.975c-13.002,241.702,131.051,217.639,572.199,212.361,105.542-1.263,212.091,3.577,317.238-7.619,70.213-7.477,153.666-23.368,196.904-85.483,18.776-26.974,21.89-56.25,25.822-88.402,4.149-33.93,14.732-315.14-27.587-373.173-45.745-62.731-168.227-55.116-235.534-56.93-178.57-4.813-330.418-10.857-518.353-2.913-18.57.785-221.079,9.103-267.506,81.052C25.319,170.939,15.304,329.125,10.578,416.975Z"/></clipPath><clipPath id="u"><circle class="ay" cx="547.258" cy="522.802" r="14.25"/></clipPath><clipPath id="v"><circle class="ay" cx="577.062" cy="560.815" r="14.25"/></clipPath><clipPath id="w"><circle class="ay" cx="459.401" cy="508.816" r="14.25"/></clipPath><clipPath id="x"><circle class="ay" cx="519.392" cy="506.172" r="14.25"/></clipPath><clipPath id="z"><circle class="ay" cx="499.217" cy="555.771" r="16.943"/></clipPath><clipPath id="aa"><circle class="ay" cx="534.287" cy="579.658" r="16.943"/></clipPath><clipPath id="ab"><circle class="ay" cx="486.31" cy="530.149" r="16.943"/></clipPath><clipPath id="ac"><circle class="ay" cx="520.984" cy="544.496" r="16.943"/></clipPath><clipPath id="ad"><circle class="ay" cx="442.24" cy="518.828" r="16.943"/></clipPath><clipPath id="af"><path class="ay" d="m452.193,568.499h1.132c6.167,0,11.175,5.007,11.175,11.175h0c0,6.167-5.007,11.175-11.175,11.175h-1.132c-1.074,0-1.946-.872-1.946-1.946v-18.458c0-1.074.872-1.946,1.946-1.946Z" transform="translate(272.824 -135.276) rotate(23.8)"/></clipPath><clipPath id="ak"><circle class="ay" cx="187.776" cy="49.16" r="14.25"/></clipPath><clipPath id="al"><circle class="ay" cx="207.58" cy="67.173" r="14.25"/></clipPath><clipPath id="am"><circle class="ay" cx="139.92" cy="35.174" r="14.25"/></clipPath><clipPath id="an"><circle class="ay" cx="159.91" cy="42.53" r="14.25"/></clipPath><clipPath id="ap"><circle class="ay" cx="139.735" cy="52.129" r="16.943"/></clipPath><clipPath id="aq"><circle class="ay" cx="214.805" cy="86.016" r="16.943"/></clipPath><clipPath id="ar"><circle class="ay" cx="165.828" cy="61.507" r="16.943"/></clipPath><clipPath id="as"><circle class="ay" cx="191.503" cy="70.854" r="16.943"/></clipPath><clipPath id="at"><circle class="ay" cx="112.759" cy="35.186" r="16.943"/></clipPath><clipPath id="av"><path class="ay" d="m222.711,114.857h1.132c6.167,0,11.175,5.007,11.175,11.175h0c0,6.167-5.007,11.175-11.175,11.175h-1.132c-1.074,0-1.946-.872-1.946-1.946v-18.458c0-1.074.872-1.946,1.946-1.946Z" transform="translate(70.241 -81.248) rotate(23.8)"/></clipPath></defs><g id="a"><g class="ch"><g id="c"><rect class="bc" x="-16.169" y="-165.1" width="1309.642" height="972.789"/><path class="bj" d="m416.508,0c-19.408,43.33,158.755,75.581,158.755,330.286,0,184.879,82.457,283.091,117.209,310.714H0L1.8,6.443,9.781,0h406.727Z"/></g><g id="d"><g id="e"><ellipse class="cy" cx="810.551" cy="402.954" rx="44.145" ry="9.813"/><ellipse class="cy" cx="810.551" cy="594.958" rx="44.145" ry="17.99"/><rect class="cy" x="766.406" y="402.954" width="88.29" height="191.678"/><g class="cx"><path class="br" d="m854.843,402.954c-.238,6.314-15.825,8.583-20.813,9.402-7.783,1.158-15.637,1.578-23.479,1.617-11.756-.14-23.67-.827-35.045-4.092-3.077-1.085-9.179-3.036-9.248-6.927,0,0,.294,0,.294,0,.796,3.197,6.647,4.285,9.461,5.146,11.25,2.794,22.963,3.409,34.538,3.461,7.75.007,15.509-.385,23.181-1.35,6.506-1.026,13.49-1.857,19.255-5.147.742-.527,1.392-1.193,1.562-2.111h.294Z"/></g><g class="cx"><path class="br" d="m851.487,580.469c-4.581,5.85-11.906,8.645-18.797,10.731-17.538,5.012-36.739,3.737-53.623-3.039-3.348-1.421-6.589-3.251-9.308-5.692l.172-.238c3.192,1.67,6.468,3.007,9.817,4.197,19.901,7.114,42.815,7.715,62.342-.872,3.215-1.457,6.328-3.111,9.188-5.292l.21.205h0Z"/></g><ellipse class="bw" cx="810.551" cy="452.672" rx="42.698" ry="9.813"/><ellipse class="bw" cx="810.551" cy="571.408" rx="42.698" ry="16.028"/><rect class="bw" x="767.853" y="452.672" width="85.396" height="119.063"/><g class="cx"><path class="br" d="m849.651,456.575c-11.551,10.366-64.099,10.067-76.659.934,0,0,.137-.26.137-.26,12.379,3.785,25.416,4.709,38.307,4.677,9.675-.063,19.411-.69,28.857-2.803,3.129-.715,6.242-1.43,9.188-2.786l.17.24h0Z"/></g></g><g id="f" class="cb"><path class="bk" d="m832.048,574.461l.115,4.18s1.314,3.066-20.188,3.066c-19.975,0-22.104-3.918-21.97-3.508-.007-.023-.009-.043-.009-.067l.123-3.54c.35-2.991,11.706-3.802,20.79-3.855,9.252-.054,21.016,2.207,21.139,3.724Z"/><path class="bq" d="m832.194,574.457c.419,1.706.782,3.651.789,4.67-.492,2.178-3.054,2.879-4.865,3.431-5.537,1.388-11.247,1.499-16.888,1.509-5.64-.086-11.39-.399-16.849-2.097-1.953-.738-4.106-1.469-5.073-3.62-.148-1.302-.272-2.609-.284-3.94l.287-.063c.546,1.215.978,2.454,1.387,3.699l-.062-.173c2.501,2.293,6.373,2.647,9.644,3.201,6.151.675,26.726,1.646,31.019-2.134.026-.04.049-.075.058-.096.025.004.004-.09.061.067-.078-1.471.222-2.965.482-4.446,0,0,.294-.008.294-.008h0Z"/><g id="g"><path class="bq" d="m832.191,574.52c-.181,1.01-1.486,1.216-2.27,1.584-4.319,1.478-8.844,2.293-13.401,2.416-4.025.183-27.59.904-27.607-4,.004-5.33,28.66-4.296,33.032-3.495,3.132.567,6.308,1.191,9.252,2.438.422.241.948.475.995,1.056h0Zm-.294,0c-.024-.323-.479-.575-.848-.75-2.924-1.121-6.175-.916-9.257-1.029-7.12-.29-14.3-.38-21.397.302-3.066.391-6.399.486-9.172,1.856-.044.03-.013.02-.008-.007.032-.034.057-.081.066-.129.079-.186.058-.453-.064-.615-.004-.028-.036-.038.008-.009,2.773,1.369,6.105,1.463,9.17,1.854,5.314.469,10.699.621,16.043.471l5.349-.212c3.078-.153,6.33.132,9.26-.983.368-.175.824-.426.848-.749h0Z"/><path class="cz" d="m791.846,574.693c.729-1.637,8.999-3.244,20.101-3.244s20.101,1.453,20.101,3.244-9.017,2.617-20.101,3.244c-12.054.683-21.274-.612-20.101-3.244Z"/><ellipse class="bd" cx="810.83" cy="574.454" rx="7.56" ry=".98"/></g></g></g><g id="h"><g id="i"><ellipse class="bs" cx="810.551" cy="83.882" rx="44.145" ry="9.813"/><ellipse class="cy" cx="810.551" cy="275.887" rx="44.145" ry="17.99"/><rect class="cy" x="766.406" y="83.882" width="88.29" height="191.678"/><g class="cx"><path class="bg" d="m854.843,83.882c-.238,6.314-15.825,8.583-20.813,9.402-7.783,1.158-15.637,1.578-23.479,1.617-11.756-.14-23.67-.827-35.045-4.092-3.077-1.085-9.179-3.036-9.248-6.927,0,0,.294,0,.294,0,.796,3.197,6.647,4.285,9.461,5.146,11.25,2.794,22.963,3.409,34.538,3.461,7.75.007,15.509-.385,23.181-1.35,6.506-1.026,13.49-1.857,19.255-5.147.742-.527,1.392-1.193,1.562-2.111h.294Z"/></g><g class="cx"><path class="br" d="m851.487,261.397c-4.581,5.85-11.906,8.645-18.797,10.731-17.538,5.012-36.739,3.737-53.623-3.039-3.348-1.421-6.589-3.251-9.308-5.692l.172-.238c3.192,1.669,6.468,3.007,9.817,4.197,19.901,7.114,42.815,7.715,62.342-.872,3.215-1.457,6.328-3.111,9.188-5.292l.21.205h0Z"/></g><ellipse class="bw" cx="810.551" cy="133.6" rx="42.698" ry="9.813"/><ellipse class="bw" cx="810.551" cy="252.336" rx="42.698" ry="16.028"/><rect class="bw" x="767.853" y="133.6" width="85.396" height="119.063"/><g class="cx"><path class="br" d="m849.651,137.503c-11.551,10.366-64.099,10.067-76.659.934,0,0,.137-.26.137-.26,12.379,3.785,25.416,4.709,38.307,4.677,9.675-.063,19.411-.69,28.857-2.803,3.129-.715,6.242-1.43,9.188-2.786l.17.24h0Z"/></g></g><g id="j"><g id="k"><path class="bt" d="m939.639,65.413l-31.331,18.414-47.146,6.73s-5.637,2.253-3.109,12.067,13.729,30.884,13.729,30.884c0,0,49.939,8.323,60.759,9.155,4.854.373,19.237-2.601,29.307-4.876,6.915-1.562,13.502-4.298,19.482-8.106,13.185-8.398,36.603-23.875,40.406-30.2,5.344-8.887-18.655-30.591-21.612-31.553s-60.486-2.515-60.486-2.515Z"/><path class="bl" d="m935.605,121.168c-7.471.323-14.7,1.093-22.199.843-7.266-.557-14.452,3.321-21.782,2.6-.151-.018-.173-.253-.021-.293,7.205-2.183,14.209-4.787,21.912-4.698,1.835.056,3.635.121,5.47.081l5.525-.142c3.722-.054,7.674-.379,11.151,1.321.133.061.096.282-.055.288h0Z"/><path class="bl" d="m936.194,106.708c-2.254.597-4.279.191-6.38.161-2.088-.047-4.173-.045-6.252.085-4.301-.029-8.278,1.347-12.587,1.08-.134-.012-.192-.199-.083-.282,1.801-1.479,3.964-1.911,6.081-2.353,2.126-.453,4.291-.709,6.463-.852,2.174-.089,4.355-.066,6.516.163,2.149.237,4.358.357,6.294,1.71.11.074.079.26-.052.289h0Z"/><path class="bl" d="m976.509,85.637c-1.544,2.436-3.513,4.157-5.108,6.313-3.193,4.248-5.441,9.163-6.564,14.353-.574,2.618-.683,5.237-1.463,7.993-.032.137-.247.154-.293.015-2.417-7.525,1.677-17.932,6.629-23.712,1.842-2.152,3.835-4.288,6.62-5.195.132-.044.26.114.179.233h0Z"/><path class="bl" d="m935.489,123.839c-.876-.664-.63-1.108-.638-1.602.014-.489.065-.972.158-1.446.094-.474.243-.937.411-1.396.172-.458.197-.946,1.187-1.243.103-.031.21-.005.288.057.804.65.643,1.111.628,1.6-.018.489-.055.974-.148,1.448-.094.474-.229.939-.401,1.398-.194.454-.135.958-1.197,1.241-.103.027-.209.003-.288-.057,0,0,.079.059,0,0Z"/><path class="bl" d="m935.493,109.365c-1.171-.62-1.252-1.753-1.321-2.88-.137-2.149.724-4.404,2.295-5.891.8-.793,1.698-1.505,2.944-1.191.112.028.178.146.143.257-.298,1.111-.866,1.574-1.482,2.357-.972,1.353-1.524,2.865-1.736,4.518-.088,1.013.058,1.734-.565,2.751-.056.097-.179.132-.278.081h0Z"/></g><g id="l"><path class="be" d="m946.649,75.45l-170.795-23.57-99.267,30.454c6.425,2.149,13.023,4.242,19.791,6.266,17.387,5.198,34.162,9.415,50.176,12.833,32.82,8.334,65.64,16.667,98.46,25.001l39.07,11.462,1.744.701,60.822-63.146Z"/><polygon class="bh" points="939.379 81.212 940.886 82.198 885.593 138.876 885.593 138.876 939.379 81.212"/><path class="bi" d="m677.5,82.785c25.975,7.351,52.527,12.172,78.657,18.949,6.285,1.639,13.226,3.768,19.446,5.795,29.928,9.554,61.239,14.527,91.305,23.781,4.289,1.394,8.564,2.835,12.759,4.49,2.092.842,4.158,1.753,6.217,2.661l-.112.272c-34.148-11.514-69.795-17.037-104.432-26.931-8.668-2.525-17.052-5.591-25.777-7.849-8.654-2.346-17.4-4.395-26.157-6.424-17.185-4.308-36.173-7.383-51.907-14.743h0Z"/></g><g id="m"><path id="n" class="bt" d="m1154.361,15.939s-160.238,37.776-166.873,38.069c-6.635.293-58.028-2.533-60.486-2.515s-24.544,5.092-24.544,5.092c0,0-18.15,5.538-18.114,10.454s5.245,11.515,19.734,9.69c14.489-1.825,14.73-2.564,19.147-3.579,2.623-.603,12.46,5.532,20.018,10.615,5.619,3.779,12.74,4.513,19.009,1.955,6.038-2.464,13.921-5.077,20.755-5.379,13.269-.587,13.909,20.056,29.912,23.628,16.003,3.572,196.946-11.537,196.946-11.537,0,0-11.382-81.161-17.188-84.367-.544-1.486-38.316,7.874-38.316,7.874Z"/><path class="bl" d="m939.855,80.41c9.678,3.297,20.073,1.493,29.813-.665,1.437-.296,2.9-.505,4.452-.478.141-.002.209.204.082.28-2.544,1.706-5.437,2.455-8.349,3.202-6.202,1.545-12.651,2.381-19.031,1.38-2.625-.503-5.507-1.166-7.166-3.504-.082-.128.061-.289.2-.215h0Z"/><path class="bl" d="m894.388,60.225c1.601.283,2.608,1.219,3.664,2.101,1.062.875,2.123,1.752,3.147,2.67.49.439.532,1.192.093,1.682-1.487,1.243-3.087,2.283-4.795,3.211-1.487.742-3.245,1.845-4.993,1.176-.253-.086-.906-.616-.542-.844.469.041.793-.142,1.165-.346,2.652-1.359,5.148-3.128,7.526-4.936,0,0-.066,1.83-.066,1.83-1.01-.932-1.984-1.905-2.957-2.879-.978-.967-2.006-1.881-2.439-3.448-.036-.119.076-.242.198-.217h0Z"/></g></g><g id="o"><path class="bk" d="m832.048,80.461l.115,4.18s1.314,3.066-20.188,3.066c-19.975,0-22.104-3.918-21.97-3.508-.007-.023-.009-.043-.009-.067l.123-3.54c.35-2.991,11.706-3.802,20.79-3.855,9.252-.054,21.016,2.207,21.139,3.724Z"/><path class="bq" d="m832.194,80.457c.419,1.706.782,3.651.789,4.67-.491,2.178-3.054,2.879-4.865,3.431-5.537,1.388-11.247,1.499-16.888,1.509-5.64-.086-11.39-.399-16.849-2.097-1.953-.738-4.106-1.469-5.073-3.62-.148-1.302-.272-2.609-.284-3.94l.287-.063c.546,1.215.978,2.454,1.387,3.699l-.062-.173c2.501,2.293,6.373,2.647,9.644,3.201,6.151.675,26.726,1.646,31.019-2.134.026-.04.049-.075.058-.096.025.004.004-.09.061.067-.078-1.471.222-2.965.482-4.446,0,0,.294-.008.294-.008h0Z"/><g id="p"><path class="bq" d="m832.191,80.52c-.181,1.01-1.486,1.215-2.27,1.584-4.319,1.478-8.844,2.293-13.401,2.416-4.025.183-27.589.904-27.607-4,.004-5.33,28.66-4.296,33.032-3.495,3.132.567,6.308,1.191,9.252,2.438.422.241.948.475.995,1.056h0Zm-.294,0c-.024-.323-.479-.575-.848-.751-2.924-1.121-6.175-.916-9.257-1.029-7.12-.29-14.3-.38-21.397.302-3.066.391-6.399.486-9.172,1.855-.044.03-.013.02-.008-.007.032-.034.057-.081.066-.129.079-.186.058-.453-.064-.615-.004-.028-.036-.038.008-.009,2.773,1.369,6.105,1.463,9.17,1.854,5.314.469,10.699.621,16.043.471l5.349-.212c3.078-.152,6.33.132,9.26-.983.368-.175.824-.426.848-.749h0Z"/><ellipse class="cz" cx="811.947" cy="80.693" rx="20.101" ry="3.244"/><ellipse class="bd" cx="810.83" cy="80.454" rx="7.56" ry=".98"/></g></g><g id="q"><line class="az" x1="896.449" y1="155.864" x2="1039.781" y2="154.284"/><polygon class="bf" points="1037.534 162.288 1051.262 154.158 1037.359 146.333 1037.534 162.288"/></g><g id="r"><line class="az" x1="813.369" y1="96.428" x2="812.989" y2="236.818"/><polygon class="bf" points="805.017 234.462 812.958 248.3 820.973 234.506 805.017 234.462"/></g></g></g><g id="s"><path class="by" d="m485.86,626.806H41.117c-4.805,0-8.701-3.895-8.701-8.701v-192.48c0-3.354,420.976,185.61,453.646,200.28.465.209.308.9-.202.9Z"/><path class="ca" d="m485.245,626.687l-23.851-12.525c-1.45-.061-1.294-22.22-1.294-22.22,0-4.331,3.511-7.842,7.842-7.842h11.785c4.606,0,8.34,3.734,8.34,8.34v31.542c0,1.54-1.283,2.77-2.822,2.705Z"/><g id="t"><circle class="bp" cx="547.258" cy="522.802" r="14.25"/><g class="cd"><path class="bi" d="m550.084,504.898c4.07,2.436,8.097,7.278,6.708,12.365-.84,2.676-3.296,4.557-5.951,5.019-4.345.677-8.057-.909-12.194-.597-2.324.186-4.731,1.991-4.797,4.408.067,4.298,3.993,7.719,6.418,11.217,0,0-.224.189-.224.189-3.986-2.487-8.217-6.372-8.337-11.484.033-3.012,2.397-5.586,5.214-6.382,4.385-1.178,9.273.924,13.52.346,4.706-.915,5.635-5.281,3.218-9.191-1.043-1.928-2.391-3.77-3.765-5.666l.19-.224h0Z"/></g><circle class="bp" cx="577.062" cy="560.815" r="14.25"/><g class="cc"><path class="bi" d="m562.203,550.435c3.972-2.593,10.088-4.093,14.053-.617,2.038,1.926,2.654,4.958,1.907,7.548-1.294,4.203-4.345,6.845-5.876,10.701-.85,2.171-.281,5.126,1.862,6.243,3.893,1.822,8.688-.21,12.895-.859,0,0,.072.285.072.285-3.981,2.494-9.326,4.598-13.975,2.467-2.693-1.348-3.972-4.601-3.454-7.482.86-4.458,4.891-7.933,6.231-12.003,1.238-4.631-2.281-7.379-6.854-6.918-2.191.094-4.437.498-6.743.904l-.118-.269h0Z"/></g><circle class="bp" cx="459.401" cy="508.816" r="14.25"/><g class="cf"><path class="bi" d="m476.099,501.763c.081,4.743-1.905,10.719-6.958,12.225-2.716.7-5.61-.392-7.405-2.404-3.148-3.59-3.539-8.167-6.684-11.506-4.08-3.408-7.566-.245-9.206,4.013-.913,2.046-1.556,4.211-2.455,6.449l-.279-.091c.008-4.698,1.072-10.343,5.351-13.144,2.575-1.562,6.01-.913,8.173,1.058,3.316,3.101,4.112,8.363,6.845,11.664,3.262,3.514,7.46,1.997,9.505-2.12,1.087-1.904,1.94-4.021,2.824-6.189l.29.043h0Z"/></g><circle class="bp" cx="519.392" cy="506.172" r="14.25"/><g class="cg"><path class="bi" d="m507.217,519.261c4.015-.343,9.497.094,11.98-3.366,1.018-1.616.909-3.78-.026-5.475-2.197-3.681-6.889-6.189-8.703-10.352-1.135-2.697-.598-6.152,1.736-8.056,4.071-3.097,9.745-2.21,14.176-.647,0,0-.008.294-.008.294-4.242.283-9.374-.649-12.771,1.98-1.847,1.56-1.757,4.566-.453,6.499,2.845,4.319,9.072,7.09,9.04,13.077-.106,7.414-9.591,8.677-15.027,6.334,0,0,.056-.288.056-.288h0Z"/></g></g><g id="y"><circle class="bp" cx="499.217" cy="555.771" r="16.943"/><g class="ce"><path class="bi" d="m518.135,566.045c-4.398,3.387-11.309,5.989-16.387,2.449-2.568-1.958-3.747-5.386-3.16-8.466.555-3.035,2.005-5.537,3.234-7.975,1.247-2.406,2.491-4.844,2.533-7.23.055-2.305-1.269-4.736-3.405-5.57-4.93-1.662-10.342,1.398-15.21,2.883,0,0-.103-.275-.103-.275,4.438-3.297,10.392-6.488,16.105-4.601,3.051,1.142,4.995,4.387,4.94,7.587-.1,5.702-4.753,10.325-5.791,15.577-.891,5.81,3.81,8.672,9.269,7.48,2.597-.426,5.196-1.243,7.828-2.113l.147.254h0Z"/></g><circle class="bp" cx="534.287" cy="579.658" r="16.943"/><g class="ct"><path class="bi" d="m513.018,580.272c3.562,3.277,7.794,8.323,12.91,7.53,2.284-.508,4.16-2.421,4.789-4.723,1.409-5.167-.699-11.375,1.75-16.527,1.375-2.89,4.561-4.93,7.801-4.593,5.958.854,9.865,6.363,12.373,11.29,0,0-.215.201-.215.201-2.018-2.004-3.777-4.05-5.786-5.823-3.802-3.689-9.164-5.549-12.078-.059-2.086,4.934.036,10.793-1.607,16.183-2.235,7.035-9.829,8.079-15.026,3.397-2.21-1.87-3.966-4.146-5.156-6.713l.245-.162h0Z"/></g><circle class="bp" cx="486.31" cy="530.149" r="16.943"/><g class="cr"><path class="bi" d="m466.884,520.871c4.216-3.611,10.983-6.568,16.238-3.296,2.666,1.822,4.021,5.185,3.595,8.291-.397,3.059-1.715,5.633-2.815,8.133-1.121,2.467-2.236,4.966-2.155,7.352.064,2.305,1.513,4.664,3.689,5.386,5.01,1.404,10.256-1.933,15.04-3.669,0,0,.117.269.117.269-4.26,3.523-10.041,7.018-15.845,5.43-3.107-.982-5.216-4.122-5.327-7.32-.196-5.699,4.211-10.558,4.975-15.857.588-5.849-4.255-8.463-9.645-6.989-2.571.56-5.125,1.511-7.708,2.516l-.16-.246h0Z"/></g><path class="bz" d="m499.33,541.219c-1.03,3.677-5.645,5.77-9.068,6.645-3.6.643-8.369.74-11.032-2.156,0,0,.122-.267.122-.267,1.013-.044,1.89.054,2.755.167,4.208.828,8.624.166,12.395-1.878,1.539-.82,2.694-1.994,4.604-2.702l.224.19h0Z"/><circle class="bp" cx="520.984" cy="544.496" r="16.943"/><g class="cu"><path class="bi" d="m524.327,523.229c4.665,3.009,9.431,8.649,7.798,14.62-.985,3.075-3.82,5.335-6.918,5.814-3.045.493-5.888-.034-8.598-.375-2.685-.369-5.398-.724-7.661.035-2.191.72-4.037,2.783-4.108,5.074.085,5.202,4.782,9.276,7.812,13.365,0,0-.224.189-.224.189-4.593-3.077-9.594-7.617-9.731-13.633.054-3.258,2.46-6.176,5.493-7.196,5.406-1.816,11.321,1.019,16.617.238,5.773-1.107,6.895-6.495,3.942-11.239-1.271-2.304-2.912-4.48-4.613-6.668l.19-.224h0Z"/></g><path class="bz" d="m519.581,562.123c-5.414,1.141-10.819-2.915-13.706-7.206-2.72-4.454-4.135-10.94-.88-15.458,0,0,.277.097.277.097.014,1.35-.047,2.576-.067,3.795-.379,6.024,2.614,12.058,7.711,15.302,2.115,1.405,4.385,1.971,6.691,3.177,0,0-.026.292-.026.292h0Z"/><circle class="bp" cx="442.24" cy="518.828" r="16.943"/><g class="cv"><path class="bi" d="m462.697,512.123c-.556,5.523-3.408,12.335-9.468,13.598-3.186.523-6.489-.973-8.326-3.513-3.402-4.487-3.438-10.725-7.099-14.631-4.623-4.143-9.024-.548-11.314,4.229-1.273,2.359-2.216,4.886-3.418,7.464l-.271-.114c.443-4.137,1.584-8.5,4.212-11.911,2.864-4.162,8.72-4.973,12.405-1.344,4.078,3.986,4.246,10.543,7.353,14.904,3.642,4.639,8.896,3.191,11.802-1.606,1.473-2.181,2.663-4.632,3.837-7.143l.286.068h0Z"/></g><path class="bz" d="m445.484,502.367c7.357-.095,13.142,7.122,14.161,13.976.229,1.794.287,3.629-.186,5.386-.14.581-.43,1.149-1.193,1.544l-.285-.073c-.486-.698-.552-1.237-.523-1.772.455-5.787-1.681-11.824-6.475-15.322-1.714-1.266-3.543-2.295-5.565-3.453l.065-.286h0Z"/></g><g id="ae"><path class="bn" d="m452.193,568.499h1.132c6.167,0,11.175,5.007,11.175,11.175h0c0,6.167-5.007,11.175-11.175,11.175h-1.132c-1.074,0-1.946-.872-1.946-1.946v-18.458c0-1.074.872-1.946,1.946-1.946Z" transform="translate(272.824 -135.276) rotate(23.8)"/><rect class="bm" x="296.964" y="513.061" width="171.019" height="46.642" rx="7.823" ry="7.823" transform="translate(248.984 -108.732) rotate(23.8)"/><circle class="bv" cx="330.565" cy="532.687" r="22.273"/><circle class="bx" cx="330.565" cy="532.687" r="9.188"/><circle class="bb" cx="330.565" cy="532.687" r="17.095"/><circle class="bv" cx="416.508" cy="570.593" r="22.273"/><circle class="bx" cx="416.508" cy="570.593" r="9.188"/><circle class="bb" cx="416.508" cy="570.593" r="17.095"/><g class="cs"><line class="ba" x1="463.589" y1="569.502" x2="454.257" y2="590.659"/></g></g><g id="ag"><line class="az" x1="495.334" y1="556.897" x2="588.676" y2="598.067"/><polygon class="bf" points="583.32 604.424 599.181 602.7 589.76 589.825 583.32 604.424"/></g></g><g id="ah"><path class="by" d="m485.86,276.806H41.117c-4.805,0-8.701-3.895-8.701-8.701V75.626c0-3.354,420.976,185.61,453.646,200.28.465.209.308.9-.202.9Z"/><path class="ca" d="m485.245,276.687l-23.851-12.525c-1.45-.061-1.294-22.22-1.294-22.22,0-4.331,3.511-7.842,7.842-7.842h11.785c4.606,0,8.34,3.734,8.34,8.34v31.542c0,1.54-1.283,2.77-2.822,2.705Z"/><g id="ai"><path class="bo" d="m31.995,16.23c5.917,1.533,11.374,4.109,16.936,6.448,5.555,2.353,11.08,4.777,16.608,7.19,5.509,2.458,11.021,4.911,16.505,7.426,5.487,2.508,11.035,4.879,16.185,8.15l-.119.269c-11.549-3.462-22.423-9.025-33.545-13.638-5.51-2.456-11.025-4.901-16.509-7.417-5.477-2.531-11.059-4.823-16.181-8.159l.119-.269h0Z"/><path class="bo" d="m40.383,37.235c6.311,1.706,12.162,4.457,18.118,6.969,5.949,2.527,11.868,5.125,17.79,7.712,5.903,2.632,11.809,5.258,17.687,7.947,5.881,2.682,11.822,5.227,17.367,8.671l-.119.269c-12.405-3.836-23.957-9.703-35.908-14.68-5.904-2.63-11.813-5.249-17.691-7.938-5.871-2.704-11.847-5.17-17.363-8.68l.119-.269h0Z"/><path class="bo" d="m24.112,46.148c2.944.219,5.427,1.484,8.014,2.512,2.581,1.042,5.132,2.154,7.686,3.255,2.535,1.146,5.073,2.287,7.583,3.49,2.513,1.196,5.086,2.256,7.263,4.215l-.119.269c-2.914-.287-5.432-1.473-8.01-2.522-2.581-1.042-5.135-2.147-7.691-3.246-2.536-1.144-5.077-2.277-7.587-3.481-2.504-1.217-5.112-2.198-7.259-4.224l.119-.269h0Z"/></g><g id="aj"><circle class="bp" cx="187.776" cy="49.16" r="14.25"/><g class="ci"><path class="bi" d="m190.602,31.256c4.07,2.436,8.097,7.278,6.708,12.365-.84,2.676-3.296,4.557-5.951,5.02-4.345.677-8.057-.909-12.194-.597-2.324.186-4.731,1.991-4.797,4.408.066,4.298,3.993,7.719,6.418,11.217,0,0-.224.189-.224.189-3.986-2.487-8.217-6.372-8.337-11.484.033-3.012,2.397-5.586,5.214-6.382,4.385-1.178,9.273.924,13.52.346,4.706-.915,5.635-5.281,3.218-9.191-1.043-1.928-2.391-3.77-3.765-5.666l.19-.224h0Z"/></g><path class="bz" d="m201.713,52.348c.886,3.721-2.364,7.653-5.175,9.745-3.002,1.982-7.571,3.683-10.908,1.658,0,0,.04-.291.04-.291.939-.333,1.779-.506,2.611-.665,4.123-.517,7.929-2.745,10.349-6.128,1.007-1.365,1.465-2.881,2.795-4.378l.288.059h0Z"/><path class="bz" d="m173.203,49.775c-1.001-.63-.815-1.338-.841-2.01-.016-1.367.337-2.73.995-3.926.319-.59.564-1.262,1.679-1.38l.256.143c.5.98.203,1.448.058,2.028-.196.845-.615,2.54-.837,3.379-.168.579-.041,1.131-1.016,1.76l-.294.006h0Z"/><circle class="bp" cx="207.58" cy="67.173" r="14.25"/><g class="cj"><path class="bi" d="m192.721,56.793c3.972-2.593,10.088-4.093,14.053-.617,2.038,1.926,2.654,4.958,1.907,7.548-1.294,4.203-4.345,6.845-5.876,10.701-.85,2.171-.281,5.126,1.862,6.243,3.893,1.822,8.688-.21,12.895-.859,0,0,.072.285.072.285-3.981,2.494-9.326,4.598-13.975,2.467-2.693-1.348-3.972-4.601-3.454-7.482.86-4.458,4.891-7.933,6.231-12.003,1.238-4.631-2.281-7.379-6.854-6.918-2.191.094-4.437.498-6.743.904l-.118-.269h0Z"/></g><path class="bz" d="m201.752,80.544c-3.017-.305-5.369-2.561-6.976-4.989-4.306-6.233-2.646-15.64,3.59-19.963,1.221-.822,2.623-1.392,4.092-1.491l.109.273c-1.095.938-2.105,1.775-3.05,2.669-4.945,4.189-6.247,11.804-2.902,17.37,1.368,2.335,3.323,3.899,5.26,5.865,0,0-.123.267-.123.267h0Z"/><circle class="bp" cx="139.92" cy="35.174" r="14.25"/><g class="cw"><path class="bi" d="m156.617,28.121c.081,4.743-1.905,10.719-6.958,12.225-2.716.7-5.61-.393-7.405-2.404-3.148-3.59-3.539-8.167-6.684-11.506-4.08-3.408-7.566-.245-9.206,4.013-.913,2.046-1.556,4.211-2.455,6.449l-.279-.091c.008-4.698,1.072-10.343,5.351-13.144,2.575-1.562,6.01-.913,8.173,1.058,3.316,3.101,4.112,8.363,6.845,11.664,3.262,3.514,7.46,1.997,9.505-2.12,1.087-1.904,1.94-4.021,2.824-6.189l.29.043h0Z"/></g><circle class="bp" cx="159.91" cy="42.53" r="14.25"/><g class="cp"><path class="bi" d="m147.735,55.619c4.015-.343,9.497.094,11.98-3.366,1.018-1.616.909-3.78-.027-5.475-2.197-3.681-6.889-6.189-8.703-10.352-1.135-2.697-.598-6.152,1.736-8.056,4.071-3.097,9.745-2.21,14.176-.647,0,0-.008.294-.008.294-4.242.283-9.373-.649-12.771,1.98-1.847,1.56-1.756,4.566-.453,6.499,2.845,4.319,9.072,7.09,9.04,13.077-.106,7.414-9.591,8.677-15.027,6.334,0,0,.056-.288.056-.288h0Z"/></g><path class="bz" d="m153.417,30.295c-1.991,2.23-3.931,4.189-5.061,6.913-2.187,5.193-.796,11.468,3.351,15.275,2.12,1.877,4.646,3.004,7.508,4.137l-.024.293c-2.352.493-4.88-.152-6.902-1.424-6.515-3.655-9.23-12.461-5.908-19.163,1.358-2.869,3.664-5.616,6.893-6.286,0,0,.145.255.145.255h0Z"/></g><g id="ao"><circle class="bp" cx="139.735" cy="52.129" r="16.943"/><g class="cq"><path class="bi" d="m158.653,62.403c-4.398,3.387-11.309,5.989-16.387,2.449-2.568-1.958-3.747-5.386-3.16-8.466.555-3.035,2.005-5.537,3.234-7.975,1.247-2.406,2.491-4.844,2.533-7.23.055-2.305-1.269-4.736-3.405-5.57-4.93-1.662-10.342,1.398-15.21,2.883,0,0-.103-.275-.103-.275,4.438-3.297,10.391-6.488,16.105-4.601,3.051,1.142,4.995,4.387,4.94,7.587-.1,5.702-4.753,10.325-5.791,15.577-.891,5.81,3.81,8.672,9.269,7.48,2.597-.426,5.196-1.243,7.828-2.113l.147.254h0Z"/></g><path class="bz" d="m144.376,68.788c-6.653,3.07-15.022.134-19.273-5.688-7.14-9.283-3.201-23.322,7.746-27.512,6.814-2.793,15.231-.807,19.987,4.816,2.341,2.761,3.753,6.302,3.712,9.818l-.291.037c-1.928-7.974-9.476-14.515-17.889-13.643-17.043,1.781-19.938,24.93-3.879,30.909,3.048,1.136,6.4,1.448,9.807.981l.082.282h0Z"/><circle class="bp" cx="214.805" cy="86.016" r="16.943"/><g class="cm"><path class="bi" d="m193.536,86.63c3.562,3.277,7.794,8.323,12.91,7.53,2.284-.508,4.16-2.421,4.789-4.723,1.409-5.167-.7-11.375,1.75-16.527,1.375-2.89,4.561-4.93,7.801-4.593,5.958.854,9.865,6.363,12.372,11.29,0,0-.215.201-.215.201-2.018-2.004-3.777-4.05-5.786-5.823-3.802-3.689-9.164-5.549-12.078-.059-2.086,4.934.036,10.793-1.607,16.183-2.235,7.035-9.829,8.079-15.026,3.397-2.21-1.87-3.966-4.146-5.156-6.713l.245-.162h0Z"/></g><path class="bz" d="m221.516,70.699c-4.507-.72-9.047-.697-13.118,1.369-8.086,3.918-11.283,14.728-6.658,22.441,2.307,3.914,6.063,6.523,10.271,8.281,0,0-.058.288-.058.288-10.42-.268-17.044-12.458-13.998-21.905,2.073-7.278,9.13-12.702,16.7-12.724,2.47.015,4.944.659,6.97,1.977l-.108.273h0Z"/><circle class="bp" cx="165.828" cy="61.507" r="16.943"/><g class="ck"><path class="bi" d="m146.403,52.229c4.216-3.611,10.983-6.568,16.238-3.296,2.666,1.822,4.021,5.185,3.595,8.291-.397,3.059-1.715,5.633-2.815,8.133-1.121,2.467-2.236,4.966-2.155,7.352.064,2.305,1.513,4.664,3.689,5.386,5.01,1.404,10.256-1.933,15.04-3.669,0,0,.117.269.117.269-4.26,3.522-10.041,7.018-15.845,5.43-3.107-.982-5.216-4.122-5.327-7.32-.196-5.699,4.211-10.558,4.975-15.857.588-5.849-4.255-8.463-9.645-6.989-2.571.56-5.125,1.511-7.708,2.516l-.16-.246h0Z"/></g><path class="bz" d="m149.352,56.953c.885-7.273,7.782-12.85,14.969-13.406,11.605-1.227,21.552,9.583,19.334,21.051-1.206,7.265-7.319,13.382-14.603,14.471-3.579.541-7.334-.12-10.304-2.003l.122-.267c7.797,2.551,17.328-.431,21.01-8.047,7.444-15.435-10.728-30.065-24.256-19.547-2.569,1.996-4.596,4.683-5.989,7.827l-.283-.078h0Z"/><circle class="bp" cx="191.503" cy="70.854" r="16.943"/><g class="cn"><path class="bi" d="m194.845,49.587c4.665,3.009,9.432,8.649,7.798,14.62-.985,3.075-3.82,5.335-6.918,5.814-3.045.494-5.888-.034-8.598-.375-2.685-.369-5.398-.724-7.661.035-2.191.72-4.037,2.782-4.108,5.074.085,5.202,4.782,9.276,7.812,13.365,0,0-.224.189-.224.189-4.593-3.077-9.594-7.617-9.731-13.633.054-3.258,2.46-6.176,5.493-7.196,5.406-1.816,11.321,1.019,16.617.238,5.773-1.107,6.895-6.495,3.942-11.239-1.271-2.304-2.912-4.48-4.613-6.668l.19-.224h0Z"/></g><path class="bz" d="m174.204,71.584c-1.23-7.223,3.787-14.538,10.516-17.124,10.823-4.473,23.35,2.99,24.541,14.65.92,7.307-3.192,14.915-9.86,18.04-3.275,1.54-7.063,1.98-10.446,1.023l.04-.291c8.201.217,16.483-5.364,17.835-13.714,2.724-16.918-18.87-25.748-28.829-11.804-1.892,2.647-3.066,5.801-3.504,9.212l-.294.006h0Z"/><circle class="bp" cx="112.759" cy="35.186" r="16.943"/><g class="co"><path class="bi" d="m133.216,28.481c-.556,5.523-3.408,12.335-9.468,13.598-3.186.523-6.489-.973-8.326-3.513-3.402-4.487-3.438-10.725-7.099-14.631-4.623-4.143-9.024-.548-11.314,4.229-1.273,2.359-2.216,4.886-3.418,7.464l-.271-.114c.443-4.137,1.584-8.5,4.212-11.911,2.864-4.162,8.72-4.973,12.405-1.344,4.078,3.986,4.246,10.543,7.353,14.904,3.642,4.639,8.896,3.191,11.802-1.606,1.473-2.181,2.663-4.632,3.837-7.143l.286.068h0Z"/></g><path class="bz" d="m127.361,27.456c3.828,4.267,3.417,10.978,1.111,15.907-2.786,6.034-9.27,10.072-15.903,9.971-2.767.068-5.659-.762-7.782-2.547,0,0,.128-.264.128-.264,3.506.705,6.79,1.102,10.086.497,6.95-1.348,12.554-7.528,13.056-14.599.289-3.021-.346-5.799-.956-8.827,0,0,.26-.137.26-.137h0Z"/></g><g id="au"><path class="bn" d="m222.711,114.857h1.132c6.167,0,11.175,5.007,11.175,11.175h0c0,6.167-5.007,11.175-11.175,11.175h-1.132c-1.074,0-1.946-.872-1.946-1.946v-18.458c0-1.074.872-1.946,1.946-1.946Z" transform="translate(70.241 -81.248) rotate(23.8)"/><rect class="bm" x="67.482" y="59.419" width="171.019" height="46.642" rx="7.823" ry="7.823" transform="translate(46.401 -54.704) rotate(23.8)"/><circle class="bv" cx="101.083" cy="79.045" r="22.273"/><circle class="bx" cx="101.083" cy="79.045" r="9.188"/><circle class="bb" cx="101.083" cy="79.045" r="17.095"/><circle class="bv" cx="187.026" cy="116.951" r="22.273"/><circle class="bx" cx="187.026" cy="116.951" r="9.188"/><circle class="bb" cx="187.026" cy="116.951" r="17.095"/><g class="cl"><line class="ba" x1="234.107" y1="115.86" x2="224.776" y2="137.017"/></g></g><g id="aw"><line class="az" x1="244.287" y1="134.168" x2="366.074" y2="187.884"/><polygon class="bf" points="360.718 194.241 376.579 192.517 367.158 179.642 360.718 194.241"/></g></g></g><g id="ax"><path class="bu" d="m532.771,49.664h-4.395v-21.328h4.395v21.328Z"/><path class="bu" d="m540.461,33.814l.132,1.831c1.133-1.416,2.651-2.124,4.556-2.124,1.68,0,2.93.493,3.75,1.479s1.24,2.461,1.26,4.424v10.239h-4.233v-10.137c0-.898-.195-1.55-.586-1.956s-1.04-.608-1.948-.608c-1.191,0-2.085.508-2.681,1.523v11.177h-4.233v-15.85h3.984Z"/><path class="bu" d="m560.662,49.957c-2.324,0-4.216-.713-5.676-2.139s-2.19-3.325-2.19-5.698v-.41c0-1.592.308-3.015.923-4.27s1.487-2.222,2.615-2.9,2.415-1.018,3.86-1.018c2.168,0,3.875.684,5.12,2.051s1.868,3.306,1.868,5.815v1.729h-10.093c.137,1.035.549,1.865,1.238,2.49s1.56.938,2.615.938c1.631,0,2.905-.591,3.823-1.772l2.08,2.329c-.635.898-1.494,1.599-2.578,2.102s-2.285.754-3.604.754Zm-.483-13.022c-.84,0-1.521.285-2.043.854s-.857,1.383-1.003,2.442h5.889v-.338c-.02-.942-.273-1.67-.762-2.185s-1.182-.772-2.08-.772Z"/><path class="bu" d="m578.488,37.784c-.576-.078-1.084-.117-1.523-.117-1.602,0-2.65.542-3.148,1.626v10.371h-4.234v-15.85h4l.117,1.89c.85-1.455,2.025-2.183,3.529-2.183.469,0,.908.063,1.318.19l-.059,4.072Z"/><path class="bu" d="m586.326,29.918v3.896h2.709v3.105h-2.709v7.91c0,.586.111,1.006.336,1.26s.654.381,1.289.381c.469,0,.885-.034,1.246-.103v3.208c-.83.254-1.686.381-2.564.381-2.969,0-4.482-1.499-4.541-4.497v-8.54h-2.314v-3.105h2.314v-3.896h4.234Z"/><path class="bu" d="m591.365,29.713c0-.635.212-1.157.637-1.567s1.004-.615,1.736-.615c.723,0,1.299.205,1.729.615s.645.933.645,1.567c0,.645-.218,1.172-.652,1.582s-1.008.615-1.721.615-1.287-.205-1.722-.615-.651-.938-.651-1.582Zm4.496,19.951h-4.248v-15.85h4.248v15.85Z"/><path class="bu" d="m608.533,49.664c-.195-.381-.338-.854-.426-1.421-1.025,1.143-2.357,1.714-3.998,1.714-1.553,0-2.84-.449-3.86-1.348s-1.53-2.031-1.53-3.398c0-1.68.622-2.969,1.867-3.867s3.045-1.353,5.398-1.362h1.947v-.908c0-.732-.188-1.318-.563-1.758s-.97-.659-1.78-.659c-.713,0-1.271.171-1.677.513s-.608.811-.608,1.406h-4.232c0-.918.283-1.768.85-2.549s1.367-1.394,2.402-1.838,2.197-.667,3.486-.667c1.953,0,3.503.491,4.65,1.472s1.721,2.361,1.721,4.138v6.87c.01,1.504.221,2.642.631,3.413v.249h-4.277Zm-3.502-2.944c.625,0,1.201-.139,1.729-.417s.918-.652,1.172-1.121v-2.725h-1.582c-2.119,0-3.246.732-3.383,2.197l-.016.249c0,.527.186.962.557,1.304s.879.513,1.523.513Z"/><path class="bu" d="m157.011,327.836h-5.484v15.223h-2.238v-15.223h-5.473v-1.84h13.195v1.84Z"/><path class="bu" d="m161.371,331.914c.961-1.18,2.211-1.77,3.75-1.77,2.68,0,4.031,1.512,4.055,4.535v8.379h-2.168v-8.391c-.008-.914-.217-1.59-.627-2.027s-1.049-.656-1.916-.656c-.703,0-1.32.188-1.852.562s-.945.867-1.242,1.477v9.035h-2.168v-18h2.168v6.855Z"/><path class="bu" d="m177.683,343.293c-1.719,0-3.117-.564-4.195-1.693s-1.617-2.639-1.617-4.529v-.398c0-1.258.24-2.381.721-3.369s1.152-1.762,2.016-2.32,1.799-.838,2.807-.838c1.648,0,2.93.543,3.844,1.629s1.371,2.641,1.371,4.664v.902h-8.59c.031,1.25.396,2.26,1.096,3.029s1.588,1.154,2.666,1.154c.766,0,1.414-.156,1.945-.469s.996-.727,1.395-1.242l1.324,1.031c-1.062,1.633-2.656,2.449-4.781,2.449Zm-.27-11.367c-.875,0-1.609.318-2.203.955s-.961,1.529-1.102,2.678h6.352v-.164c-.062-1.102-.359-1.955-.891-2.561s-1.25-.908-2.156-.908Z"/><path class="bu" d="m194.019,327.309v3.07h2.367v1.676h-2.367v7.873c0,.509.105.891.316,1.145s.57.381,1.078.381c.25,0,.594-.047,1.031-.141v1.748c-.57.155-1.125.232-1.664.232-.969,0-1.699-.293-2.191-.879s-.738-1.418-.738-2.496v-7.863h-2.309v-1.676h2.309v-3.07h2.168Z"/><path class="bu" d="m204.179,343.293c-1.719,0-3.117-.564-4.195-1.693s-1.617-2.639-1.617-4.529v-.398c0-1.258.24-2.381.721-3.369s1.152-1.762,2.016-2.32,1.799-.838,2.807-.838c1.648,0,2.93.543,3.844,1.629s1.371,2.641,1.371,4.664v.902h-8.59c.031,1.25.396,2.26,1.096,3.029s1.588,1.154,2.666,1.154c.766,0,1.414-.156,1.945-.469s.996-.727,1.395-1.242l1.324,1.031c-1.062,1.633-2.656,2.449-4.781,2.449Zm-.27-11.367c-.875,0-1.609.318-2.203.955s-.961,1.529-1.102,2.678h6.352v-.164c-.062-1.102-.359-1.955-.891-2.561s-1.25-.908-2.156-.908Z"/><path class="bu" d="m213.683,330.379l.07,1.594c.969-1.219,2.234-1.828,3.797-1.828,2.68,0,4.031,1.512,4.055,4.535v8.379h-2.168v-8.391c-.008-.914-.217-1.59-.627-2.027s-1.049-.656-1.916-.656c-.703,0-1.32.188-1.852.562s-.945.867-1.242,1.477v9.035h-2.168v-12.68h2.051Z"/><path class="bu" d="m224.347,336.613c0-1.945.461-3.51,1.383-4.693s2.129-1.775,3.621-1.775c1.484,0,2.66.508,3.527,1.523v-6.609h2.168v18h-1.992l-.105-1.359c-.867,1.062-2.074,1.594-3.621,1.594-1.469,0-2.666-.602-3.592-1.805s-1.389-2.773-1.389-4.711v-.164Zm2.168.246c0,1.438.297,2.562.891,3.375s1.414,1.219,2.461,1.219c1.375,0,2.379-.617,3.012-1.852v-5.824c-.648-1.195-1.645-1.793-2.988-1.793-1.062,0-1.891.41-2.484,1.23s-.891,2.035-.891,3.645Z"/><path class="bu" d="m243.671,343.293c-1.719,0-3.117-.564-4.195-1.693s-1.617-2.639-1.617-4.529v-.398c0-1.258.24-2.381.721-3.369s1.152-1.762,2.016-2.32,1.799-.838,2.807-.838c1.648,0,2.93.543,3.844,1.629s1.371,2.641,1.371,4.664v.902h-8.59c.031,1.25.396,2.26,1.096,3.029s1.588,1.154,2.666,1.154c.766,0,1.414-.156,1.945-.469s.996-.727,1.395-1.242l1.324,1.031c-1.062,1.633-2.656,2.449-4.781,2.449Zm-.27-11.367c-.875,0-1.609.318-2.203.955s-.961,1.529-1.102,2.678h6.352v-.164c-.062-1.102-.359-1.955-.891-2.561s-1.25-.908-2.156-.908Z"/><path class="bu" d="m253.175,330.379l.07,1.594c.969-1.219,2.234-1.828,3.797-1.828,2.68,0,4.031,1.512,4.055,4.535v8.379h-2.168v-8.391c-.008-.914-.217-1.59-.627-2.027s-1.049-.656-1.916-.656c-.703,0-1.32.188-1.852.562s-.945.867-1.242,1.477v9.035h-2.168v-12.68h2.051Z"/><path class="bu" d="m269.453,341.523c.773,0,1.449-.234,2.027-.703s.898-1.055.961-1.758h2.051c-.039.727-.289,1.418-.75,2.074s-1.076,1.18-1.846,1.57-1.584.586-2.443.586c-1.727,0-3.1-.576-4.119-1.729s-1.529-2.729-1.529-4.729v-.363c0-1.234.227-2.332.68-3.293s1.104-1.707,1.951-2.238,1.85-.797,3.006-.797c1.422,0,2.604.426,3.545,1.277s1.443,1.957,1.506,3.316h-2.051c-.062-.82-.373-1.494-.932-2.021s-1.248-.791-2.068-.791c-1.102,0-1.955.396-2.561,1.189s-.908,1.939-.908,3.439v.41c0,1.461.301,2.586.902,3.375s1.461,1.184,2.578,1.184Z"/><path class="bu" d="m281.078,339.883l2.953-9.504h2.32l-5.098,14.637c-.789,2.109-2.043,3.164-3.762,3.164l-.41-.035-.809-.152v-1.758l.586.047c.734,0,1.307-.148,1.717-.445s.748-.84,1.014-1.629l.48-1.289-4.523-12.539h2.367l3.164,9.504Z"/><path class="bu" d="m293.652,336.602c0-1.242.244-2.359.732-3.352s1.168-1.758,2.039-2.297,1.865-.809,2.982-.809c1.727,0,3.123.598,4.189,1.793s1.6,2.785,1.6,4.77v.152c0,1.234-.236,2.342-.709,3.322s-1.148,1.744-2.027,2.291-1.889.82-3.029.82c-1.719,0-3.111-.598-4.178-1.793s-1.6-2.777-1.6-4.746v-.152Zm2.18.258c0,1.406.326,2.535.979,3.387s1.525,1.277,2.619,1.277c1.102,0,1.977-.432,2.625-1.295s.973-2.072.973-3.627c0-1.391-.33-2.518-.99-3.381s-1.537-1.295-2.631-1.295c-1.07,0-1.934.426-2.59,1.277s-.984,2.07-.984,3.656Z"/><path class="bu" d="m308.98,343.059v-11.004h-2.004v-1.676h2.004v-1.301c0-1.359.363-2.41,1.09-3.152s1.754-1.113,3.082-1.113c.5,0,.996.066,1.488.198l-.117,1.747c-.367-.07-.758-.105-1.172-.105-.703,0-1.246.206-1.629.617-.383.412-.574,1.002-.574,1.77v1.34h2.707v1.676h-2.707v11.004h-2.168Z"/><path class="bu" d="m325.128,327.309v3.07h2.367v1.676h-2.367v7.873c0,.509.105.891.316,1.145s.57.381,1.078.381c.25,0,.594-.047,1.031-.141v1.748c-.57.155-1.125.232-1.664.232-.969,0-1.699-.293-2.191-.879s-.738-1.418-.738-2.496v-7.863h-2.309v-1.676h2.309v-3.07h2.168Z"/><path class="bu" d="m332.195,331.914c.961-1.18,2.211-1.77,3.75-1.77,2.68,0,4.031,1.512,4.055,4.535v8.379h-2.168v-8.391c-.008-.914-.217-1.59-.627-2.027s-1.049-.656-1.916-.656c-.703,0-1.32.188-1.852.562s-.945.867-1.242,1.477v9.035h-2.168v-18h2.168v6.855Z"/><path class="bu" d="m348.507,343.293c-1.719,0-3.117-.564-4.195-1.693s-1.617-2.639-1.617-4.529v-.398c0-1.258.24-2.381.721-3.369s1.152-1.762,2.016-2.32,1.799-.838,2.807-.838c1.648,0,2.93.543,3.844,1.629s1.371,2.641,1.371,4.664v.902h-8.59c.031,1.25.396,2.26,1.096,3.029s1.588,1.154,2.666,1.154c.766,0,1.414-.156,1.945-.469s.996-.727,1.395-1.242l1.324,1.031c-1.062,1.633-2.656,2.449-4.781,2.449Zm-.27-11.367c-.875,0-1.609.318-2.203.955s-.961,1.529-1.102,2.678h6.352v-.164c-.062-1.102-.359-1.955-.891-2.561s-1.25-.908-2.156-.908Z"/><path class="bu" d="m372.636,336.859c0,1.938-.445,3.494-1.336,4.67s-2.086,1.764-3.586,1.764c-1.602,0-2.84-.566-3.715-1.699l-.105,1.465h-1.992v-18h2.168v6.715c.875-1.086,2.082-1.629,3.621-1.629s2.748.582,3.627,1.746,1.318,2.758,1.318,4.781v.188Zm-2.168-.246c0-1.477-.285-2.617-.855-3.422s-1.391-1.207-2.461-1.207c-1.43,0-2.457.664-3.082,1.992v5.484c.664,1.328,1.699,1.992,3.105,1.992,1.039,0,1.848-.402,2.426-1.207s.867-2.016.867-3.633Z"/><path class="bu" d="m383.195,343.059c-.125-.25-.227-.695-.305-1.336-1.008,1.047-2.211,1.57-3.609,1.57-1.25,0-2.275-.354-3.076-1.061s-1.201-1.604-1.201-2.689c0-1.32.502-2.346,1.506-3.076s2.416-1.096,4.236-1.096h2.109v-.996c0-.758-.227-1.361-.68-1.811s-1.121-.674-2.004-.674c-.773,0-1.422.195-1.945.586s-.785.863-.785,1.418h-2.18c0-.633.225-1.244.674-1.834s1.059-1.057,1.828-1.4,1.615-.516,2.537-.516c1.461,0,2.605.365,3.434,1.096s1.258,1.736,1.289,3.018v5.836c0,1.164.148,2.09.445,2.777v.188h-2.273Zm-3.598-1.652c.68,0,1.324-.176,1.934-.527s1.051-.809,1.324-1.371v-2.602h-1.699c-2.656,0-3.984.777-3.984,2.332,0,.68.227,1.211.68,1.594s1.035.574,1.746.574Z"/><path class="bu" d="m390.777,343.059h-2.168v-18h2.168v18Z"/><path class="bu" d="m396.601,343.059h-2.168v-18h2.168v18Z"/><path class="bu" d="m407.453,339.695c0-.586-.221-1.041-.662-1.365s-1.211-.604-2.309-.838-1.969-.516-2.613-.844-1.121-.719-1.43-1.172-.463-.992-.463-1.617c0-1.039.439-1.918,1.318-2.637s2.002-1.078,3.369-1.078c1.438,0,2.604.371,3.498,1.113s1.342,1.691,1.342,2.848h-2.18c0-.594-.252-1.105-.756-1.535s-1.139-.645-1.904-.645c-.789,0-1.406.172-1.852.516s-.668.793-.668,1.348c0,.523.207.918.621,1.184s1.162.52,2.244.762,1.959.531,2.631.867,1.17.74,1.494,1.213.486,1.049.486,1.729c0,1.133-.453,2.041-1.359,2.725s-2.082,1.025-3.527,1.025c-1.016,0-1.914-.18-2.695-.539s-1.393-.861-1.834-1.506-.662-1.342-.662-2.092h2.168c.039.727.33,1.303.873,1.729s1.26.639,2.15.639c.82,0,1.479-.166,1.975-.498s.744-.775.744-1.33Z"/><path class="bu" d="m110.822,356.309v3.07h2.367v1.676h-2.367v7.873c0,.509.105.891.316,1.145s.57.381,1.078.381c.25,0,.594-.047,1.031-.141v1.748c-.57.155-1.125.232-1.664.232-.969,0-1.699-.293-2.191-.879s-.738-1.418-.738-2.496v-7.863h-2.309v-1.676h2.309v-3.07h2.168Z"/><path class="bu" d="m114.912,365.602c0-1.242.244-2.359.732-3.352s1.168-1.758,2.039-2.297,1.865-.809,2.982-.809c1.727,0,3.123.598,4.189,1.793s1.6,2.785,1.6,4.77v.152c0,1.234-.236,2.342-.709,3.322s-1.148,1.744-2.027,2.291-1.889.82-3.029.82c-1.719,0-3.111-.598-4.178-1.793s-1.6-2.777-1.6-4.746v-.152Zm2.18.258c0,1.406.326,2.535.979,3.387s1.525,1.277,2.619,1.277c1.102,0,1.977-.432,2.625-1.295s.973-2.072.973-3.627c0-1.391-.33-2.518-.99-3.381s-1.537-1.295-2.631-1.295c-1.07,0-1.934.426-2.59,1.277s-.984,2.07-.984,3.656Z"/><path class="bu" d="m145.826,365.859c0,1.93-.441,3.484-1.324,4.664s-2.078,1.77-3.586,1.77c-1.539,0-2.75-.488-3.633-1.465v6.105h-2.168v-17.555h1.98l.105,1.406c.883-1.094,2.109-1.641,3.68-1.641,1.523,0,2.729.574,3.615,1.723s1.33,2.746,1.33,4.793v.199Zm-2.168-.246c0-1.43-.305-2.559-.914-3.387s-1.445-1.242-2.508-1.242c-1.312,0-2.297.582-2.953,1.746v6.059c.648,1.156,1.641,1.734,2.977,1.734,1.039,0,1.865-.412,2.479-1.236s.92-2.049.92-3.674Z"/><path class="bu" d="m154.708,361.324c-.328-.055-.684-.082-1.066-.082-1.422,0-2.387.605-2.895,1.816v9h-2.168v-12.68h2.109l.035,1.465c.711-1.133,1.719-1.699,3.023-1.699.422,0,.742.055.961.164v2.016Z"/><path class="bu" d="m161.74,372.293c-1.719,0-3.117-.564-4.195-1.693s-1.617-2.639-1.617-4.529v-.398c0-1.258.24-2.381.721-3.369s1.152-1.762,2.016-2.32,1.799-.838,2.807-.838c1.648,0,2.93.543,3.844,1.629s1.371,2.641,1.371,4.664v.902h-8.59c.031,1.25.396,2.26,1.096,3.029s1.588,1.154,2.666,1.154c.766,0,1.414-.156,1.945-.469s.996-.727,1.395-1.242l1.324,1.031c-1.062,1.633-2.656,2.449-4.781,2.449Zm-.27-11.367c-.875,0-1.609.318-2.203.955s-.961,1.529-1.102,2.678h6.352v-.164c-.062-1.102-.359-1.955-.891-2.561s-1.25-.908-2.156-.908Z"/><path class="bu" d="m176.576,368.695c0-.586-.221-1.041-.662-1.365s-1.211-.604-2.309-.838-1.969-.516-2.613-.844-1.121-.719-1.43-1.172-.463-.992-.463-1.617c0-1.039.439-1.918,1.318-2.637s2.002-1.078,3.369-1.078c1.438,0,2.604.371,3.498,1.113s1.342,1.691,1.342,2.848h-2.18c0-.594-.252-1.105-.756-1.535s-1.139-.645-1.904-.645c-.789,0-1.406.172-1.852.516s-.668.793-.668,1.348c0,.523.207.918.621,1.184s1.162.52,2.244.762,1.959.531,2.631.867,1.17.74,1.494,1.213.486,1.049.486,1.729c0,1.133-.453,2.041-1.359,2.725s-2.082,1.025-3.527,1.025c-1.016,0-1.914-.18-2.695-.539s-1.393-.861-1.834-1.506-.662-1.342-.662-2.092h2.168c.039.727.33,1.303.873,1.729s1.26.639,2.15.639c.82,0,1.479-.166,1.975-.498s.744-.775.744-1.33Z"/><path class="bu" d="m186.83,372.293c-1.719,0-3.117-.564-4.195-1.693s-1.617-2.639-1.617-4.529v-.398c0-1.258.24-2.381.721-3.369s1.152-1.762,2.016-2.32,1.799-.838,2.807-.838c1.648,0,2.93.543,3.844,1.629s1.371,2.641,1.371,4.664v.902h-8.59c.031,1.25.396,2.26,1.096,3.029s1.588,1.154,2.666,1.154c.766,0,1.414-.156,1.945-.469s.996-.727,1.395-1.242l1.324,1.031c-1.062,1.633-2.656,2.449-4.781,2.449Zm-.27-11.367c-.875,0-1.609.318-2.203.955s-.961,1.529-1.102,2.678h6.352v-.164c-.062-1.102-.359-1.955-.891-2.561s-1.25-.908-2.156-.908Z"/><path class="bu" d="m200.412,361.324c-.328-.055-.684-.082-1.066-.082-1.422,0-2.387.605-2.895,1.816v9h-2.168v-12.68h2.109l.035,1.465c.711-1.133,1.719-1.699,3.023-1.699.422,0,.742.055.961.164v2.016Z"/><path class="bu" d="m206.798,369.117l3.141-9.738h2.215l-4.547,12.68h-1.652l-4.594-12.68h2.215l3.223,9.738Z"/><path class="bu" d="m219.349,372.293c-1.719,0-3.117-.564-4.195-1.693s-1.617-2.639-1.617-4.529v-.398c0-1.258.24-2.381.721-3.369s1.152-1.762,2.016-2.32,1.799-.838,2.807-.838c1.648,0,2.93.543,3.844,1.629s1.371,2.641,1.371,4.664v.902h-8.59c.031,1.25.396,2.26,1.096,3.029s1.588,1.154,2.666,1.154c.766,0,1.414-.156,1.945-.469s.996-.727,1.395-1.242l1.324,1.031c-1.062,1.633-2.656,2.449-4.781,2.449Zm-.27-11.367c-.875,0-1.609.318-2.203.955s-.961,1.529-1.102,2.678h6.352v-.164c-.062-1.102-.359-1.955-.891-2.561s-1.25-.908-2.156-.908Z"/><path class="bu" d="m235.685,356.309v3.07h2.367v1.676h-2.367v7.873c0,.509.105.891.316,1.145s.57.381,1.078.381c.25,0,.594-.047,1.031-.141v1.748c-.57.155-1.125.232-1.664.232-.969,0-1.699-.293-2.191-.879s-.738-1.418-.738-2.496v-7.863h-2.309v-1.676h2.309v-3.07h2.168Z"/><path class="bu" d="m242.751,360.914c.961-1.18,2.211-1.77,3.75-1.77,2.68,0,4.031,1.512,4.055,4.535v8.379h-2.168v-8.391c-.008-.914-.217-1.59-.627-2.027s-1.049-.656-1.916-.656c-.703,0-1.32.188-1.852.562s-.945.867-1.242,1.477v9.035h-2.168v-18h2.168v6.855Z"/><path class="bu" d="m259.064,372.293c-1.719,0-3.117-.564-4.195-1.693s-1.617-2.639-1.617-4.529v-.398c0-1.258.24-2.381.721-3.369s1.152-1.762,2.016-2.32,1.799-.838,2.807-.838c1.648,0,2.93.543,3.844,1.629s1.371,2.641,1.371,4.664v.902h-8.59c.031,1.25.396,2.26,1.096,3.029s1.588,1.154,2.666,1.154c.766,0,1.414-.156,1.945-.469s.996-.727,1.395-1.242l1.324,1.031c-1.062,1.633-2.656,2.449-4.781,2.449Zm-.27-11.367c-.875,0-1.609.318-2.203.955s-.961,1.529-1.102,2.678h6.352v-.164c-.062-1.102-.359-1.955-.891-2.561s-1.25-.908-2.156-.908Z"/><path class="bu" d="m266.529,356.016c0-.352.107-.648.322-.891s.533-.363.955-.363.742.121.961.363.328.539.328.891-.109.645-.328.879-.539.352-.961.352-.74-.117-.955-.352-.322-.527-.322-.879Zm2.344,16.043h-2.168v-12.68h2.168v12.68Z"/><path class="bu" d="m278.47,361.324c-.328-.055-.684-.082-1.066-.082-1.422,0-2.387.605-2.895,1.816v9h-2.168v-12.68h2.109l.035,1.465c.711-1.133,1.719-1.699,3.023-1.699.422,0,.742.055.961.164v2.016Z"/><path class="bu" d="m293.787,368.695c0-.586-.221-1.041-.662-1.365s-1.211-.604-2.309-.838-1.969-.516-2.613-.844-1.121-.719-1.43-1.172-.463-.992-.463-1.617c0-1.039.439-1.918,1.318-2.637s2.002-1.078,3.369-1.078c1.438,0,2.604.371,3.498,1.113s1.342,1.691,1.342,2.848h-2.18c0-.594-.252-1.105-.756-1.535s-1.139-.645-1.904-.645c-.789,0-1.406.172-1.852.516s-.668.793-.668,1.348c0,.523.207.918.621,1.184s1.162.52,2.244.762,1.959.531,2.631.867,1.17.74,1.494,1.213.486,1.049.486,1.729c0,1.133-.453,2.041-1.359,2.725s-2.082,1.025-3.527,1.025c-1.016,0-1.914-.18-2.695-.539s-1.393-.861-1.834-1.506-.662-1.342-.662-2.092h2.168c.039.727.33,1.303.873,1.729s1.26.639,2.15.639c.82,0,1.479-.166,1.975-.498s.744-.775.744-1.33Z"/><path class="bu" d="m301.72,356.309v3.07h2.367v1.676h-2.367v7.873c0,.509.105.891.316,1.145s.57.381,1.078.381c.25,0,.594-.047,1.031-.141v1.748c-.57.155-1.125.232-1.664.232-.969,0-1.699-.293-2.191-.879s-.738-1.418-.738-2.496v-7.863h-2.309v-1.676h2.309v-3.07h2.168Z"/><path class="bu" d="m314.447,372.059c-.125-.25-.227-.695-.305-1.336-1.008,1.047-2.211,1.57-3.609,1.57-1.25,0-2.275-.354-3.076-1.061s-1.201-1.604-1.201-2.689c0-1.32.502-2.346,1.506-3.076s2.416-1.096,4.236-1.096h2.109v-.996c0-.758-.227-1.361-.68-1.811s-1.121-.674-2.004-.674c-.773,0-1.422.195-1.945.586s-.785.863-.785,1.418h-2.18c0-.633.225-1.244.674-1.834s1.059-1.057,1.828-1.4,1.615-.516,2.537-.516c1.461,0,2.605.365,3.434,1.096s1.258,1.736,1.289,3.018v5.836c0,1.164.148,2.09.445,2.777v.188h-2.273Zm-3.598-1.652c.68,0,1.324-.176,1.934-.527s1.051-.809,1.324-1.371v-2.602h-1.699c-2.656,0-3.984.777-3.984,2.332,0,.68.227,1.211.68,1.594s1.035.574,1.746.574Z"/><path class="bu" d="m322.615,356.309v3.07h2.367v1.676h-2.367v7.873c0,.509.105.891.316,1.145s.57.381,1.078.381c.25,0,.594-.047,1.031-.141v1.748c-.57.155-1.125.232-1.664.232-.969,0-1.699-.293-2.191-.879s-.738-1.418-.738-2.496v-7.863h-2.309v-1.676h2.309v-3.07h2.168Z"/><path class="bu" d="m332.775,372.293c-1.719,0-3.117-.564-4.195-1.693s-1.617-2.639-1.617-4.529v-.398c0-1.258.24-2.381.721-3.369s1.152-1.762,2.016-2.32,1.799-.838,2.807-.838c1.648,0,2.93.543,3.844,1.629s1.371,2.641,1.371,4.664v.902h-8.59c.031,1.25.396,2.26,1.096,3.029s1.588,1.154,2.666,1.154c.766,0,1.414-.156,1.945-.469s.996-.727,1.395-1.242l1.324,1.031c-1.062,1.633-2.656,2.449-4.781,2.449Zm-.27-11.367c-.875,0-1.609.318-2.203.955s-.961,1.529-1.102,2.678h6.352v-.164c-.062-1.102-.359-1.955-.891-2.561s-1.25-.908-2.156-.908Z"/><path class="bu" d="m345.595,365.602c0-1.242.244-2.359.732-3.352s1.168-1.758,2.039-2.297,1.865-.809,2.982-.809c1.727,0,3.123.598,4.189,1.793s1.6,2.785,1.6,4.77v.152c0,1.234-.236,2.342-.709,3.322s-1.148,1.744-2.027,2.291-1.889.82-3.029.82c-1.719,0-3.111-.598-4.178-1.793s-1.6-2.777-1.6-4.746v-.152Zm2.18.258c0,1.406.326,2.535.979,3.387s1.525,1.277,2.619,1.277c1.102,0,1.977-.432,2.625-1.295s.973-2.072.973-3.627c0-1.391-.33-2.518-.99-3.381s-1.537-1.295-2.631-1.295c-1.07,0-1.934.426-2.59,1.277s-.984,2.07-.984,3.656Z"/><path class="bu" d="m360.923,372.059v-11.004h-2.004v-1.676h2.004v-1.301c0-1.359.363-2.41,1.09-3.152s1.754-1.113,3.082-1.113c.5,0,.996.066,1.488.198l-.117,1.747c-.367-.07-.758-.105-1.172-.105-.703,0-1.246.206-1.629.617-.383.412-.574,1.002-.574,1.77v1.34h2.707v1.676h-2.707v11.004h-2.168Z"/><path class="bu" d="m376.169,359.379l.059,1.406c.93-1.094,2.184-1.641,3.762-1.641,1.773,0,2.98.68,3.621,2.039.422-.609.971-1.102,1.646-1.477s1.475-.562,2.396-.562c2.781,0,4.195,1.473,4.242,4.418v8.496h-2.168v-8.367c0-.906-.207-1.584-.621-2.033s-1.109-.674-2.086-.674c-.805,0-1.473.24-2.004.721s-.84,1.127-.926,1.939v8.414h-2.18v-8.309c0-1.844-.902-2.766-2.707-2.766-1.422,0-2.395.605-2.918,1.816v9.258h-2.168v-12.68h2.051Z"/><path class="bu" d="m394.591,365.602c0-1.242.244-2.359.732-3.352s1.168-1.758,2.039-2.297,1.865-.809,2.982-.809c1.727,0,3.123.598,4.189,1.793s1.6,2.785,1.6,4.77v.152c0,1.234-.236,2.342-.709,3.322s-1.148,1.744-2.027,2.291-1.889.82-3.029.82c-1.719,0-3.111-.598-4.178-1.793s-1.6-2.777-1.6-4.746v-.152Zm2.18.258c0,1.406.326,2.535.979,3.387s1.525,1.277,2.619,1.277c1.102,0,1.977-.432,2.625-1.295s.973-2.072.973-3.627c0-1.391-.33-2.518-.99-3.381s-1.537-1.295-2.631-1.295c-1.07,0-1.934.426-2.59,1.277s-.984,2.07-.984,3.656Z"/><path class="bu" d="m411.794,356.309v3.07h2.367v1.676h-2.367v7.873c0,.509.105.891.316,1.145s.57.381,1.078.381c.25,0,.594-.047,1.031-.141v1.748c-.57.155-1.125.232-1.664.232-.969,0-1.699-.293-2.191-.879s-.738-1.418-.738-2.496v-7.863h-2.309v-1.676h2.309v-3.07h2.168Z"/><path class="bu" d="m416.705,356.016c0-.352.107-.648.322-.891s.533-.363.955-.363.742.121.961.363.328.539.328.891-.109.645-.328.879-.539.352-.961.352-.74-.117-.955-.352-.322-.527-.322-.879Zm2.344,16.043h-2.168v-12.68h2.168v12.68Z"/><path class="bu" d="m421.943,365.602c0-1.242.244-2.359.732-3.352s1.168-1.758,2.039-2.297,1.865-.809,2.982-.809c1.727,0,3.123.598,4.189,1.793s1.6,2.785,1.6,4.77v.152c0,1.234-.236,2.342-.709,3.322s-1.148,1.744-2.027,2.291-1.889.82-3.029.82c-1.719,0-3.111-.598-4.178-1.793s-1.6-2.777-1.6-4.746v-.152Zm2.18.258c0,1.406.326,2.535.979,3.387s1.525,1.277,2.619,1.277c1.102,0,1.977-.432,2.625-1.295s.973-2.072.973-3.627c0-1.391-.33-2.518-.99-3.381s-1.537-1.295-2.631-1.295c-1.07,0-1.934.426-2.59,1.277s-.984,2.07-.984,3.656Z"/><path class="bu" d="m438.255,359.379l.07,1.594c.969-1.219,2.234-1.828,3.797-1.828,2.68,0,4.031,1.512,4.055,4.535v8.379h-2.168v-8.391c-.008-.914-.217-1.59-.627-2.027s-1.049-.656-1.916-.656c-.703,0-1.32.188-1.852.562s-.945.867-1.242,1.477v9.035h-2.168v-12.68h2.051Z"/><path class="bu" d="m612.95,327.836h-5.484v15.223h-2.238v-15.223h-5.473v-1.84h13.195v1.84Z"/><path class="bu" d="m617.31,331.914c.961-1.18,2.211-1.77,3.75-1.77,2.68,0,4.031,1.512,4.055,4.535v8.379h-2.168v-8.391c-.008-.914-.217-1.59-.627-2.027s-1.049-.656-1.916-.656c-.703,0-1.32.188-1.852.562s-.945.867-1.242,1.477v9.035h-2.168v-18h2.168v6.855Z"/><path class="bu" d="m633.622,343.293c-1.719,0-3.117-.564-4.195-1.693s-1.617-2.639-1.617-4.529v-.398c0-1.258.24-2.381.721-3.369s1.152-1.762,2.016-2.32,1.799-.838,2.807-.838c1.648,0,2.93.543,3.844,1.629s1.371,2.641,1.371,4.664v.902h-8.59c.031,1.25.396,2.26,1.096,3.029s1.588,1.154,2.666,1.154c.766,0,1.414-.156,1.945-.469s.996-.727,1.395-1.242l1.324,1.031c-1.062,1.633-2.656,2.449-4.781,2.449Zm-.27-11.367c-.875,0-1.609.318-2.203.955s-.961,1.529-1.102,2.678h6.352v-.164c-.062-1.102-.359-1.955-.891-2.561s-1.25-.908-2.156-.908Z"/><path class="bu" d="m649.958,327.309v3.07h2.367v1.676h-2.367v7.873c0,.509.105.891.316,1.145s.57.381,1.078.381c.25,0,.594-.047,1.031-.141v1.748c-.57.155-1.125.232-1.664.232-.969,0-1.699-.293-2.191-.879s-.738-1.418-.738-2.496v-7.863h-2.309v-1.676h2.309v-3.07h2.168Z"/><path class="bu" d="m660.118,343.293c-1.719,0-3.117-.564-4.195-1.693s-1.617-2.639-1.617-4.529v-.398c0-1.258.24-2.381.721-3.369s1.152-1.762,2.016-2.32,1.799-.838,2.807-.838c1.648,0,2.93.543,3.844,1.629s1.371,2.641,1.371,4.664v.902h-8.59c.031,1.25.396,2.26,1.096,3.029s1.588,1.154,2.666,1.154c.766,0,1.414-.156,1.945-.469s.996-.727,1.395-1.242l1.324,1.031c-1.062,1.633-2.656,2.449-4.781,2.449Zm-.27-11.367c-.875,0-1.609.318-2.203.955s-.961,1.529-1.102,2.678h6.352v-.164c-.062-1.102-.359-1.955-.891-2.561s-1.25-.908-2.156-.908Z"/><path class="bu" d="m669.622,330.379l.07,1.594c.969-1.219,2.234-1.828,3.797-1.828,2.68,0,4.031,1.512,4.055,4.535v8.379h-2.168v-8.391c-.008-.914-.217-1.59-.627-2.027s-1.049-.656-1.916-.656c-.703,0-1.32.188-1.852.562s-.945.867-1.242,1.477v9.035h-2.168v-12.68h2.051Z"/><path class="bu" d="m680.286,336.613c0-1.945.461-3.51,1.383-4.693s2.129-1.775,3.621-1.775c1.484,0,2.66.508,3.527,1.523v-6.609h2.168v18h-1.992l-.105-1.359c-.867,1.062-2.074,1.594-3.621,1.594-1.469,0-2.666-.602-3.592-1.805s-1.389-2.773-1.389-4.711v-.164Zm2.168.246c0,1.438.297,2.562.891,3.375s1.414,1.219,2.461,1.219c1.375,0,2.379-.617,3.012-1.852v-5.824c-.648-1.195-1.645-1.793-2.988-1.793-1.062,0-1.891.41-2.484,1.23s-.891,2.035-.891,3.645Z"/><path class="bu" d="m699.61,343.293c-1.719,0-3.117-.564-4.195-1.693s-1.617-2.639-1.617-4.529v-.398c0-1.258.24-2.381.721-3.369s1.152-1.762,2.016-2.32,1.799-.838,2.807-.838c1.648,0,2.93.543,3.844,1.629s1.371,2.641,1.371,4.664v.902h-8.59c.031,1.25.396,2.26,1.096,3.029s1.588,1.154,2.666,1.154c.766,0,1.414-.156,1.945-.469s.996-.727,1.395-1.242l1.324,1.031c-1.062,1.633-2.656,2.449-4.781,2.449Zm-.27-11.367c-.875,0-1.609.318-2.203.955s-.961,1.529-1.102,2.678h6.352v-.164c-.062-1.102-.359-1.955-.891-2.561s-1.25-.908-2.156-.908Z"/><path class="bu" d="m709.114,330.379l.07,1.594c.969-1.219,2.234-1.828,3.797-1.828,2.68,0,4.031,1.512,4.055,4.535v8.379h-2.168v-8.391c-.008-.914-.217-1.59-.627-2.027s-1.049-.656-1.916-.656c-.703,0-1.32.188-1.852.562s-.945.867-1.242,1.477v9.035h-2.168v-12.68h2.051Z"/><path class="bu" d="m725.392,341.523c.773,0,1.449-.234,2.027-.703s.898-1.055.961-1.758h2.051c-.039.727-.289,1.418-.75,2.074s-1.076,1.18-1.846,1.57-1.584.586-2.443.586c-1.727,0-3.1-.576-4.119-1.729s-1.529-2.729-1.529-4.729v-.363c0-1.234.227-2.332.68-3.293s1.104-1.707,1.951-2.238,1.85-.797,3.006-.797c1.422,0,2.604.426,3.545,1.277s1.443,1.957,1.506,3.316h-2.051c-.062-.82-.373-1.494-.932-2.021s-1.248-.791-2.068-.791c-1.102,0-1.955.396-2.561,1.189s-.908,1.939-.908,3.439v.41c0,1.461.301,2.586.902,3.375s1.461,1.184,2.578,1.184Z"/><path class="bu" d="m737.017,339.883l2.953-9.504h2.32l-5.098,14.637c-.789,2.109-2.043,3.164-3.762,3.164l-.41-.035-.809-.152v-1.758l.586.047c.734,0,1.307-.148,1.717-.445s.748-.84,1.014-1.629l.48-1.289-4.523-12.539h2.367l3.164,9.504Z"/><path class="bu" d="m749.591,336.602c0-1.242.244-2.359.732-3.352s1.168-1.758,2.039-2.297,1.865-.809,2.982-.809c1.727,0,3.123.598,4.189,1.793s1.6,2.785,1.6,4.77v.152c0,1.234-.236,2.342-.709,3.322s-1.148,1.744-2.027,2.291-1.889.82-3.029.82c-1.719,0-3.111-.598-4.178-1.793s-1.6-2.777-1.6-4.746v-.152Zm2.18.258c0,1.406.326,2.535.979,3.387s1.525,1.277,2.619,1.277c1.102,0,1.977-.432,2.625-1.295s.973-2.072.973-3.627c0-1.391-.33-2.518-.99-3.381s-1.537-1.295-2.631-1.295c-1.07,0-1.934.426-2.59,1.277s-.984,2.07-.984,3.656Z"/><path class="bu" d="m764.919,343.059v-11.004h-2.004v-1.676h2.004v-1.301c0-1.359.363-2.41,1.09-3.152s1.754-1.113,3.082-1.113c.5,0,.996.066,1.488.198l-.117,1.747c-.367-.07-.758-.105-1.172-.105-.703,0-1.246.206-1.629.617-.383.412-.574,1.002-.574,1.77v1.34h2.707v1.676h-2.707v11.004h-2.168Z"/><path class="bu" d="m785.954,343.059c-.125-.25-.227-.695-.305-1.336-1.008,1.047-2.211,1.57-3.609,1.57-1.25,0-2.275-.354-3.076-1.061s-1.201-1.604-1.201-2.689c0-1.32.502-2.346,1.506-3.076s2.416-1.096,4.236-1.096h2.109v-.996c0-.758-.227-1.361-.68-1.811s-1.121-.674-2.004-.674c-.773,0-1.422.195-1.945.586s-.785.863-.785,1.418h-2.18c0-.633.225-1.244.674-1.834s1.059-1.057,1.828-1.4,1.615-.516,2.537-.516c1.461,0,2.605.365,3.434,1.096s1.258,1.736,1.289,3.018v5.836c0,1.164.148,2.09.445,2.777v.188h-2.273Zm-3.598-1.652c.68,0,1.324-.176,1.934-.527s1.051-.809,1.324-1.371v-2.602h-1.699c-2.656,0-3.984.777-3.984,2.332,0,.68.227,1.211.68,1.594s1.035.574,1.746.574Z"/><path class="bu" d="m793.231,330.379l.07,1.594c.969-1.219,2.234-1.828,3.797-1.828,2.68,0,4.031,1.512,4.055,4.535v8.379h-2.168v-8.391c-.008-.914-.217-1.59-.627-2.027s-1.049-.656-1.916-.656c-.703,0-1.32.188-1.852.562s-.945.867-1.242,1.477v9.035h-2.168v-12.68h2.051Z"/><path class="bu" d="m809.79,336.602c0-1.242.244-2.359.732-3.352s1.168-1.758,2.039-2.297,1.865-.809,2.982-.809c1.727,0,3.123.598,4.189,1.793s1.6,2.785,1.6,4.77v.152c0,1.234-.236,2.342-.709,3.322s-1.148,1.744-2.027,2.291-1.889.82-3.029.82c-1.719,0-3.111-.598-4.178-1.793s-1.6-2.777-1.6-4.746v-.152Zm2.18.258c0,1.406.326,2.535.979,3.387s1.525,1.277,2.619,1.277c1.102,0,1.977-.432,2.625-1.295s.973-2.072.973-3.627c0-1.391-.33-2.518-.99-3.381s-1.537-1.295-2.631-1.295c-1.07,0-1.934.426-2.59,1.277s-.984,2.07-.984,3.656Z"/><path class="bu" d="m834.786,336.859c0,1.938-.445,3.494-1.336,4.67s-2.086,1.764-3.586,1.764c-1.602,0-2.84-.566-3.715-1.699l-.105,1.465h-1.992v-18h2.168v6.715c.875-1.086,2.082-1.629,3.621-1.629s2.748.582,3.627,1.746,1.318,2.758,1.318,4.781v.188Zm-2.168-.246c0-1.477-.285-2.617-.855-3.422s-1.391-1.207-2.461-1.207c-1.43,0-2.457.664-3.082,1.992v5.484c.664,1.328,1.699,1.992,3.105,1.992,1.039,0,1.848-.402,2.426-1.207s.867-2.016.867-3.633Z"/><path class="bu" d="m839.755,330.379v14.145c0,2.438-1.105,3.656-3.316,3.656-.477,0-.918-.069-1.324-.209v-1.725c.25.062.578.094.984.094.484,0,.854-.131,1.107-.393s.381-.718.381-1.366v-14.202h2.168Zm-2.391-3.363c0-.344.107-.639.322-.885s.529-.369.943-.369c.422,0,.742.121.961.363s.328.539.328.891-.109.645-.328.879-.539.352-.961.352-.738-.117-.949-.352-.316-.527-.316-.879Z"/><path class="bu" d="m848.509,343.293c-1.719,0-3.117-.564-4.195-1.693s-1.617-2.639-1.617-4.529v-.398c0-1.258.24-2.381.721-3.369s1.152-1.762,2.016-2.32,1.799-.838,2.807-.838c1.648,0,2.93.543,3.844,1.629s1.371,2.641,1.371,4.664v.902h-8.59c.031,1.25.396,2.26,1.096,3.029s1.588,1.154,2.666,1.154c.766,0,1.414-.156,1.945-.469s.996-.727,1.395-1.242l1.324,1.031c-1.062,1.633-2.656,2.449-4.781,2.449Zm-.27-11.367c-.875,0-1.609.318-2.203.955s-.961,1.529-1.102,2.678h6.352v-.164c-.062-1.102-.359-1.955-.891-2.561s-1.25-.908-2.156-.908Z"/><path class="bu" d="m861.048,341.523c.773,0,1.449-.234,2.027-.703s.898-1.055.961-1.758h2.051c-.039.727-.289,1.418-.75,2.074s-1.076,1.18-1.846,1.57-1.584.586-2.443.586c-1.727,0-3.1-.576-4.119-1.729s-1.529-2.729-1.529-4.729v-.363c0-1.234.227-2.332.68-3.293s1.104-1.707,1.951-2.238,1.85-.797,3.006-.797c1.422,0,2.604.426,3.545,1.277s1.443,1.957,1.506,3.316h-2.051c-.062-.82-.373-1.494-.932-2.021s-1.248-.791-2.068-.791c-1.102,0-1.955.396-2.561,1.189s-.908,1.939-.908,3.439v.41c0,1.461.301,2.586.902,3.375s1.461,1.184,2.578,1.184Z"/><path class="bu" d="m871.466,327.309v3.07h2.367v1.676h-2.367v7.873c0,.509.105.891.316,1.145s.57.381,1.078.381c.25,0,.594-.047,1.031-.141v1.748c-.57.155-1.125.232-1.664.232-.969,0-1.699-.293-2.191-.879s-.738-1.418-.738-2.496v-7.863h-2.309v-1.676h2.309v-3.07h2.168Z"/><path class="bu" d="m885.247,327.309v3.07h2.367v1.676h-2.367v7.873c0,.509.105.891.316,1.145s.57.381,1.078.381c.25,0,.594-.047,1.031-.141v1.748c-.57.155-1.125.232-1.664.232-.969,0-1.699-.293-2.191-.879s-.738-1.418-.738-2.496v-7.863h-2.309v-1.676h2.309v-3.07h2.168Z"/><path class="bu" d="m889.337,336.602c0-1.242.244-2.359.732-3.352s1.168-1.758,2.039-2.297,1.865-.809,2.982-.809c1.727,0,3.123.598,4.189,1.793s1.6,2.785,1.6,4.77v.152c0,1.234-.236,2.342-.709,3.322s-1.148,1.744-2.027,2.291-1.889.82-3.029.82c-1.719,0-3.111-.598-4.178-1.793s-1.6-2.777-1.6-4.746v-.152Zm2.18.258c0,1.406.326,2.535.979,3.387s1.525,1.277,2.619,1.277c1.102,0,1.977-.432,2.625-1.295s.973-2.072.973-3.627c0-1.391-.33-2.518-.99-3.381s-1.537-1.295-2.631-1.295c-1.07,0-1.934.426-2.59,1.277s-.984,2.07-.984,3.656Z"/><path class="bu" d="m916.923,339.695c0-.586-.221-1.041-.662-1.365s-1.211-.604-2.309-.838-1.969-.516-2.613-.844-1.121-.719-1.43-1.172-.463-.992-.463-1.617c0-1.039.439-1.918,1.318-2.637s2.002-1.078,3.369-1.078c1.438,0,2.604.371,3.498,1.113s1.342,1.691,1.342,2.848h-2.18c0-.594-.252-1.105-.756-1.535s-1.139-.645-1.904-.645c-.789,0-1.406.172-1.852.516s-.668.793-.668,1.348c0,.523.207.918.621,1.184s1.162.52,2.244.762,1.959.531,2.631.867,1.17.74,1.494,1.213.486,1.049.486,1.729c0,1.133-.453,2.041-1.359,2.725s-2.082,1.025-3.527,1.025c-1.016,0-1.914-.18-2.695-.539s-1.393-.861-1.834-1.506-.662-1.342-.662-2.092h2.168c.039.727.33,1.303.873,1.729s1.26.639,2.15.639c.82,0,1.479-.166,1.975-.498s.744-.775.744-1.33Z"/><path class="bu" d="m924.856,327.309v3.07h2.367v1.676h-2.367v7.873c0,.509.105.891.316,1.145s.57.381,1.078.381c.25,0,.594-.047,1.031-.141v1.748c-.57.155-1.125.232-1.664.232-.969,0-1.699-.293-2.191-.879s-.738-1.418-.738-2.496v-7.863h-2.309v-1.676h2.309v-3.07h2.168Z"/><path class="bu" d="m937.583,343.059c-.125-.25-.227-.695-.305-1.336-1.008,1.047-2.211,1.57-3.609,1.57-1.25,0-2.275-.354-3.076-1.061s-1.201-1.604-1.201-2.689c0-1.32.502-2.346,1.506-3.076s2.416-1.096,4.236-1.096h2.109v-.996c0-.758-.227-1.361-.68-1.811s-1.121-.674-2.004-.674c-.773,0-1.422.195-1.945.586s-.785.863-.785,1.418h-2.18c0-.633.225-1.244.674-1.834s1.059-1.057,1.828-1.4,1.615-.516,2.537-.516c1.461,0,2.605.365,3.434,1.096s1.258,1.736,1.289,3.018v5.836c0,1.164.148,2.09.445,2.777v.188h-2.273Zm-3.598-1.652c.68,0,1.324-.176,1.934-.527s1.051-.809,1.324-1.371v-2.602h-1.699c-2.656,0-3.984.777-3.984,2.332,0,.68.227,1.211.68,1.594s1.035.574,1.746.574Z"/><path class="bu" d="m946.782,339.883l2.953-9.504h2.32l-5.098,14.637c-.789,2.109-2.043,3.164-3.762,3.164l-.41-.035-.809-.152v-1.758l.586.047c.734,0,1.307-.148,1.717-.445s.748-.84,1.014-1.629l.48-1.289-4.523-12.539h2.367l3.164,9.504Z"/><path class="bu" d="m967.759,343.059c-.125-.25-.227-.695-.305-1.336-1.008,1.047-2.211,1.57-3.609,1.57-1.25,0-2.275-.354-3.076-1.061s-1.201-1.604-1.201-2.689c0-1.32.502-2.346,1.506-3.076s2.416-1.096,4.236-1.096h2.109v-.996c0-.758-.227-1.361-.68-1.811s-1.121-.674-2.004-.674c-.773,0-1.422.195-1.945.586s-.785.863-.785,1.418h-2.18c0-.633.225-1.244.674-1.834s1.059-1.057,1.828-1.4,1.615-.516,2.537-.516c1.461,0,2.605.365,3.434,1.096s1.258,1.736,1.289,3.018v5.836c0,1.164.148,2.09.445,2.777v.188h-2.273Zm-3.598-1.652c.68,0,1.324-.176,1.934-.527s1.051-.809,1.324-1.371v-2.602h-1.699c-2.656,0-3.984.777-3.984,2.332,0,.68.227,1.211.68,1.594s1.035.574,1.746.574Z"/><path class="bu" d="m975.927,327.309v3.07h2.367v1.676h-2.367v7.873c0,.509.105.891.316,1.145s.57.381,1.078.381c.25,0,.594-.047,1.031-.141v1.748c-.57.155-1.125.232-1.664.232-.969,0-1.699-.293-2.191-.879s-.738-1.418-.738-2.496v-7.863h-2.309v-1.676h2.309v-3.07h2.168Z"/><path class="bu" d="m992.896,332.324c-.328-.055-.684-.082-1.066-.082-1.422,0-2.387.605-2.895,1.816v9h-2.168v-12.68h2.109l.035,1.465c.711-1.133,1.719-1.699,3.023-1.699.422,0,.742.055.961.164v2.016Z"/><path class="bu" d="m999.927,343.293c-1.719,0-3.117-.564-4.195-1.693s-1.617-2.639-1.617-4.529v-.398c0-1.258.24-2.381.721-3.369s1.152-1.762,2.016-2.32,1.799-.838,2.807-.838c1.648,0,2.93.543,3.844,1.629s1.371,2.641,1.371,4.664v.902h-8.59c.031,1.25.396,2.26,1.096,3.029s1.588,1.154,2.666,1.154c.766,0,1.414-.156,1.945-.469s.996-.727,1.395-1.242l1.324,1.031c-1.062,1.633-2.656,2.449-4.781,2.449Zm-.27-11.367c-.875,0-1.609.318-2.203.955s-.961,1.529-1.102,2.678h6.352v-.164c-.062-1.102-.359-1.955-.891-2.561s-1.25-.908-2.156-.908Z"/><path class="bu" d="m1014.763,339.695c0-.586-.221-1.041-.662-1.365s-1.211-.604-2.309-.838-1.969-.516-2.613-.844-1.121-.719-1.43-1.172-.463-.992-.463-1.617c0-1.039.439-1.918,1.318-2.637s2.002-1.078,3.369-1.078c1.438,0,2.604.371,3.498,1.113s1.342,1.691,1.342,2.848h-2.18c0-.594-.252-1.105-.756-1.535s-1.139-.645-1.904-.645c-.789,0-1.406.172-1.852.516s-.668.793-.668,1.348c0,.523.207.918.621,1.184s1.162.52,2.244.762,1.959.531,2.631.867,1.17.74,1.494,1.213.486,1.049.486,1.729c0,1.133-.453,2.041-1.359,2.725s-2.082,1.025-3.527,1.025c-1.016,0-1.914-.18-2.695-.539s-1.393-.861-1.834-1.506-.662-1.342-.662-2.092h2.168c.039.727.33,1.303.873,1.729s1.26.639,2.15.639c.82,0,1.479-.166,1.975-.498s.744-.775.744-1.33Z"/><path class="bu" d="m1022.696,327.309v3.07h2.367v1.676h-2.367v7.873c0,.509.105.891.316,1.145s.57.381,1.078.381c.25,0,.594-.047,1.031-.141v1.748c-.57.155-1.125.232-1.664.232-.969,0-1.699-.293-2.191-.879s-.738-1.418-.738-2.496v-7.863h-2.309v-1.676h2.309v-3.07h2.168Z"/></g></svg>