<?xml version="1.0" encoding="UTF-8"?><svg id="g" xmlns="http://www.w3.org/2000/svg" width="1140" height="447" viewBox="0 0 1140 447"><line x1="412" y1="81" x2="116.9" y2="400.23" fill="none" stroke="#d12d32" stroke-miterlimit="10" stroke-width="2"/><line x1="695" y1="169.51" x2="1053.43" y2="169.51" fill="none" stroke="#5c539c" stroke-miterlimit="10" stroke-width="2"/><polyline points="116.9 77 116.9 400.23 490 400.23" fill="none" stroke="#000" stroke-miterlimit="10" stroke-width="2"/><path d="m91.13,277.89h6.01v3.52h-17.06v-6.66c0-1.28.23-2.41.7-3.38s1.13-1.72,2-2.24,1.85-.79,2.95-.79c1.67,0,2.99.57,3.96,1.72s1.45,2.73,1.45,4.75v3.08Zm-2.85,0v-3.14c0-.93-.22-1.64-.66-2.13s-1.06-.73-1.88-.73-1.51.25-2.03.74-.78,1.17-.8,2.04v3.22h5.36Z"/><path d="m90.68,266.83c-1.26,0-2.38-.24-3.36-.73s-1.75-1.18-2.29-2.09-.81-1.97-.81-3.17c0-1.71.52-3.11,1.57-4.19s2.47-1.69,4.27-1.81l.87-.02c1.95,0,3.51.54,4.68,1.63s1.76,2.54,1.76,4.37-.59,3.29-1.76,4.38-2.77,1.63-4.78,1.63h-.15Zm.24-3.39c1.21,0,2.13-.23,2.76-.68.64-.45.96-1.1.96-1.95s-.32-1.46-.94-1.92c-.63-.46-1.64-.69-3.02-.69-1.18,0-2.1.23-2.75.69-.65.46-.97,1.11-.97,1.95s.32,1.47.97,1.92c.65.45,1.65.68,3,.68Z"/><path d="m93.64,245.86c-.41,0-.74.21-.98.62s-.45,1.07-.64,1.97c-.63,3.02-1.91,4.52-3.84,4.52-1.12,0-2.06-.47-2.82-1.4s-1.13-2.15-1.13-3.66c0-1.61.38-2.9,1.14-3.86s1.74-1.45,2.95-1.45v3.39c-.48,0-.88.16-1.2.47s-.47.8-.47,1.46c0,.57.13,1.01.39,1.32s.59.47.98.47c.38,0,.68-.18.91-.53s.43-.96.6-1.8.36-1.55.57-2.13c.66-1.79,1.79-2.68,3.41-2.68,1.16,0,2.09.5,2.81,1.49s1.07,2.27,1.07,3.84c0,1.06-.19,2.01-.57,2.83s-.9,1.47-1.56,1.94-1.37.7-2.14.7v-3.21c.6-.03,1.06-.25,1.38-.67s.48-.97.48-1.66c0-.65-.12-1.14-.37-1.47s-.57-.5-.97-.5Z"/><path d="m81.18,240.41c-.51,0-.93-.17-1.25-.51s-.49-.8-.49-1.39.16-1.04.49-1.38.75-.52,1.25-.52.94.17,1.27.52.49.81.49,1.38-.16,1.03-.49,1.38-.75.52-1.27.52Zm15.96-3.6v3.4h-12.68v-3.4h12.68Z"/><path d="m81.34,229.97h3.12v-2.17h2.48v2.17h6.33c.47,0,.8-.09,1.01-.27s.3-.52.3-1.03c0-.38-.03-.71-.08-1h2.57c.2.66.3,1.35.3,2.05,0,2.38-1.2,3.59-3.6,3.63h-6.83v1.85h-2.48v-1.85h-3.12v-3.39Z"/><path d="m81.18,225.94c-.51,0-.93-.17-1.25-.51s-.49-.8-.49-1.39.16-1.04.49-1.38.75-.52,1.25-.52.94.17,1.27.52.49.81.49,1.38-.16,1.03-.49,1.38-.75.52-1.27.52Zm15.96-3.6v3.4h-12.68v-3.4h12.68Z"/><path d="m90.68,220.08c-1.26,0-2.38-.24-3.36-.73s-1.75-1.18-2.29-2.09-.81-1.97-.81-3.17c0-1.71.52-3.11,1.57-4.19s2.47-1.69,4.27-1.81l.87-.02c1.95,0,3.51.54,4.68,1.63s1.76,2.54,1.76,4.37-.59,3.29-1.76,4.38-2.77,1.63-4.78,1.63h-.15Zm.24-3.39c1.21,0,2.13-.23,2.76-.68.64-.45.96-1.1.96-1.95s-.32-1.46-.94-1.92c-.63-.46-1.64-.69-3.02-.69-1.18,0-2.1.23-2.75.69-.65.46-.97,1.11-.97,1.95s.32,1.47.97,1.92c.65.45,1.65.68,3,.68Z"/><path d="m84.46,202.87l1.46-.11c-1.13-.91-1.7-2.12-1.7-3.64,0-1.34.39-2.34,1.18-3s1.97-.99,3.54-1.01h8.19v3.39h-8.11c-.72,0-1.24.16-1.56.47s-.49.83-.49,1.56c0,.95.41,1.67,1.22,2.14h8.94v3.39h-12.68v-3.19Z"/><path d="m289.91,419.29h-5.23v14.21h-3.52v-14.21h-5.16v-2.85h13.9v2.85Z"/><path d="m291.67,417.54c0-.51.17-.93.51-1.25s.8-.49,1.39-.49,1.04.16,1.38.49.52.75.52,1.25-.17.94-.52,1.27-.81.49-1.38.49-1.03-.16-1.38-.49-.52-.75-.52-1.27Zm3.6,15.96h-3.4v-12.68h3.4v12.68Z"/><path d="m301.23,420.83l.11,1.42c.9-1.1,2.11-1.65,3.64-1.65,1.63,0,2.75.64,3.36,1.93.89-1.29,2.16-1.93,3.81-1.93,1.38,0,2.4.4,3.07,1.2s1.01,2.01,1.01,3.62v8.1h-3.4v-8.09c0-.72-.14-1.24-.42-1.58s-.78-.5-1.49-.5c-1.02,0-1.72.48-2.11,1.45v8.71s-3.38,0-3.38,0v-8.07c0-.73-.14-1.27-.43-1.59s-.78-.49-1.48-.49c-.96,0-1.66.4-2.09,1.2v8.96h-3.39v-12.68h3.18Z"/><path d="m324.67,433.74c-1.86,0-3.37-.57-4.54-1.71s-1.75-2.66-1.75-4.56v-.33c0-1.27.25-2.41.74-3.42s1.19-1.78,2.09-2.32,1.93-.81,3.09-.81c1.73,0,3.1.55,4.1,1.64s1.49,2.64,1.49,4.65v1.38h-8.07c.11.83.44,1.49.99,1.99s1.25.75,2.09.75c1.3,0,2.32-.47,3.06-1.42l1.66,1.86c-.51.72-1.2,1.28-2.06,1.68s-1.83.6-2.88.6Zm-.39-10.42c-.67,0-1.22.23-1.63.68-.42.46-.69,1.11-.8,1.95h4.71v-.27c-.02-.75-.22-1.34-.61-1.75s-.95-.62-1.66-.62Z"/><polyline points="694.9 77 694.9 400.23 1068 400.23" fill="none" stroke="#000" stroke-miterlimit="10" stroke-width="2"/><path d="m670.91,274.12l-12.83-3.87v-3.91l17.06,5.94v3.67l-17.06,5.92v-3.9l12.83-3.84Z"/><path d="m675.38,259.63c0,1.86-.57,3.37-1.71,4.54s-2.66,1.75-4.56,1.75h-.33c-1.27,0-2.41-.25-3.42-.74s-1.78-1.19-2.32-2.09-.81-1.93-.81-3.09c0-1.73.55-3.1,1.64-4.1s2.64-1.49,4.65-1.49h1.38v8.07c.83-.11,1.49-.44,1.99-.99s.75-1.25.75-2.09c0-1.3-.47-2.32-1.42-3.06l1.86-1.66c.72.51,1.28,1.2,1.68,2.06s.6,1.83.6,2.88Zm-10.42.39c0,.67.23,1.22.68,1.63s1.11.69,1.95.8v-4.71h-.27c-.75.02-1.34.22-1.75.61s-.62.95-.62,1.66Z"/><path d="m675.14,248.92v3.4h-18v-3.4h18Z"/><path d="m668.68,246.66c-1.26,0-2.38-.24-3.36-.73s-1.75-1.18-2.29-2.09-.81-1.97-.81-3.17c0-1.71.52-3.11,1.57-4.19s2.47-1.69,4.27-1.81l.87-.02c1.95,0,3.51.54,4.68,1.63s1.76,2.54,1.76,4.37-.59,3.29-1.76,4.38-2.77,1.63-4.78,1.63h-.15Zm.24-3.39c1.21,0,2.13-.23,2.76-.68.64-.45.96-1.1.96-1.95s-.32-1.46-.94-1.92c-.63-.46-1.64-.69-3.02-.69-1.18,0-2.1.23-2.75.69-.65.46-.97,1.11-.97,1.95s.32,1.47.97,1.92c.65.45,1.65.68,3,.68Z"/><path d="m672.65,227.29c0-.62-.17-1.13-.52-1.52s-.8-.59-1.37-.61v-3.18c.86,0,1.65.24,2.36.7s1.27,1.09,1.66,1.89.59,1.69.59,2.65c0,1.81-.58,3.24-1.73,4.29s-2.74,1.57-4.78,1.57h-.22c-1.95,0-3.51-.52-4.68-1.56s-1.75-2.46-1.75-4.28c0-1.59.45-2.86,1.35-3.81s2.1-1.44,3.6-1.46v3.18c-.66.02-1.2.22-1.61.61s-.62.91-.62,1.55c0,.79.29,1.38.86,1.79.58.4,1.51.6,2.8.6h.35c1.31,0,2.25-.2,2.82-.6.57-.4.86-1,.86-1.82Z"/><path d="m659.18,220.07c-.51,0-.93-.17-1.25-.51s-.49-.8-.49-1.39.16-1.04.49-1.38.75-.52,1.25-.52.94.17,1.27.52.49.81.49,1.38-.16,1.03-.49,1.38-.75.52-1.27.52Zm15.96-3.6v3.4h-12.68v-3.4h12.68Z"/><path d="m659.34,209.63h3.12v-2.17h2.48v2.17h6.33c.47,0,.8-.09,1.01-.27s.3-.52.3-1.03c0-.38-.03-.71-.08-1h2.57c.2.66.3,1.35.3,2.05,0,2.38-1.2,3.59-3.6,3.63h-6.83v1.85h-2.48v-1.85h-3.12v-3.39Z"/><path d="m670.35,200.84l-7.89-2.34v-3.63l14.65,5.1.67.28c1.66.76,2.48,2.01,2.48,3.75,0,.49-.07.99-.22,1.5h-2.57v-.52c.01-.64-.09-1.12-.28-1.44s-.52-.56-.97-.74l-1.04-.4-12.71,4.44v-3.64l7.89-2.36Z"/><path d="m867.91,419.29h-5.23v14.21h-3.52v-14.21h-5.16v-2.85h13.9v2.85Z"/><path d="m869.67,417.54c0-.51.17-.93.51-1.25s.8-.49,1.39-.49,1.04.16,1.38.49.52.75.52,1.25-.17.94-.52,1.27-.81.49-1.38.49-1.03-.16-1.38-.49-.52-.75-.52-1.27Zm3.6,15.96h-3.4v-12.68h3.4v12.68Z"/><path d="m879.23,420.83l.11,1.42c.9-1.1,2.11-1.65,3.64-1.65,1.63,0,2.75.64,3.36,1.93.89-1.29,2.16-1.93,3.81-1.93,1.38,0,2.4.4,3.07,1.2s1.01,2.01,1.01,3.62v8.1h-3.4v-8.09c0-.72-.14-1.24-.42-1.58s-.78-.5-1.49-.5c-1.02,0-1.72.48-2.11,1.45v8.71s-3.38,0-3.38,0v-8.07c0-.73-.14-1.27-.43-1.59s-.78-.49-1.48-.49c-.96,0-1.66.4-2.09,1.2v8.96h-3.39v-12.68h3.18Z"/><path d="m902.67,433.74c-1.86,0-3.37-.57-4.54-1.71s-1.75-2.66-1.75-4.56v-.33c0-1.27.25-2.41.74-3.42s1.19-1.78,2.09-2.32,1.93-.81,3.09-.81c1.73,0,3.1.55,4.1,1.64s1.49,2.64,1.49,4.65v1.38h-8.07c.11.83.44,1.49.99,1.99s1.25.75,2.09.75c1.3,0,2.32-.47,3.06-1.42l1.66,1.86c-.51.72-1.2,1.28-2.06,1.68s-1.83.6-2.88.6Zm-.39-10.42c-.67,0-1.22.23-1.63.68-.42.46-.69,1.11-.8,1.95h4.71v-.27c-.02-.75-.22-1.34-.61-1.75s-.95-.62-1.66-.62Z"/><path d="m175.38,34.49v7.01h-4.1v-19.91h7.77c1.5,0,2.81.27,3.95.82s2.01,1.32,2.62,2.33c.61,1.01.92,2.15.92,3.44,0,1.95-.67,3.49-2,4.61-1.34,1.13-3.18,1.69-5.54,1.69h-3.6Zm0-3.32h3.66c1.08,0,1.91-.25,2.48-.77.57-.51.85-1.24.85-2.19s-.29-1.76-.86-2.37-1.37-.91-2.38-.93h-3.76v6.25Z"/><path d="m188.29,33.97c0-1.47.28-2.78.85-3.92.57-1.15,1.38-2.04,2.44-2.67,1.06-.63,2.29-.94,3.7-.94,2,0,3.62.61,4.89,1.83,1.26,1.22,1.97,2.88,2.11,4.98l.03,1.01c0,2.27-.63,4.09-1.9,5.46-1.27,1.37-2.97,2.06-5.1,2.06s-3.83-.68-5.11-2.05-1.91-3.23-1.91-5.58v-.18Zm3.95.28c0,1.41.26,2.48.79,3.22.53.74,1.29,1.12,2.27,1.12s1.71-.37,2.24-1.1c.54-.73.81-1.91.81-3.53,0-1.38-.27-2.45-.81-3.2-.54-.76-1.29-1.14-2.27-1.14s-1.71.38-2.24,1.13c-.53.75-.79,1.92-.79,3.5Z"/><path d="m212.75,37.41c0-.48-.24-.86-.72-1.14-.48-.28-1.25-.53-2.3-.75-3.52-.74-5.28-2.23-5.28-4.48,0-1.31.54-2.41,1.63-3.29,1.09-.88,2.51-1.32,4.27-1.32,1.88,0,3.38.44,4.51,1.33,1.12.88,1.69,2.03,1.69,3.45h-3.95c0-.56-.18-1.03-.55-1.4-.36-.37-.93-.55-1.71-.55-.67,0-1.18.15-1.54.45-.36.3-.55.68-.55,1.15,0,.44.21.79.62,1.06.41.27,1.11.5,2.1.7.98.2,1.81.42,2.49.66,2.09.77,3.13,2.09,3.13,3.98,0,1.35-.58,2.44-1.74,3.27-1.16.83-2.65,1.25-4.48,1.25-1.24,0-2.34-.22-3.3-.66-.96-.44-1.72-1.05-2.26-1.82-.55-.77-.82-1.6-.82-2.5h3.75c.04.7.3,1.24.78,1.61.48.37,1.13.56,1.94.56.76,0,1.33-.14,1.72-.43.39-.29.58-.66.58-1.13Z"/><path d="m219.1,22.88c0-.59.2-1.08.6-1.46s.94-.57,1.62-.57,1.21.19,1.61.57c.4.38.6.87.6,1.46s-.2,1.09-.61,1.48c-.41.38-.94.57-1.61.57s-1.2-.19-1.61-.57c-.41-.38-.61-.88-.61-1.48Zm4.2,18.62h-3.96v-14.79h3.96v14.79Z"/><path d="m231.29,23.07v3.64h2.53v2.9h-2.53v7.38c0,.55.11.94.31,1.18.21.24.61.36,1.2.36.44,0,.83-.03,1.16-.1v2.99c-.77.24-1.57.36-2.39.36-2.77,0-4.18-1.4-4.24-4.2v-7.97h-2.16v-2.9h2.16v-3.64h3.95Z"/><path d="m235.99,22.88c0-.59.2-1.08.6-1.46s.94-.57,1.62-.57,1.21.19,1.61.57c.4.38.6.87.6,1.46s-.2,1.09-.61,1.48c-.41.38-.94.57-1.61.57s-1.2-.19-1.61-.57c-.41-.38-.61-.88-.61-1.48Zm4.2,18.62h-3.96v-14.79h3.96v14.79Z"/><path d="m242.82,33.97c0-1.47.28-2.78.85-3.92.57-1.15,1.38-2.04,2.44-2.67,1.06-.63,2.29-.94,3.7-.94,2,0,3.62.61,4.89,1.83,1.26,1.22,1.97,2.88,2.11,4.98l.03,1.01c0,2.27-.63,4.09-1.9,5.46-1.27,1.37-2.97,2.06-5.1,2.06s-3.83-.68-5.11-2.05-1.91-3.23-1.91-5.58v-.18Zm3.95.28c0,1.41.26,2.48.79,3.22.53.74,1.29,1.12,2.27,1.12s1.71-.37,2.24-1.1c.54-.73.81-1.91.81-3.53,0-1.38-.27-2.45-.81-3.2-.54-.76-1.29-1.14-2.27-1.14s-1.71.38-2.24,1.13c-.53.75-.79,1.92-.79,3.5Z"/><path d="m262.91,26.71l.12,1.71c1.06-1.32,2.47-1.98,4.25-1.98,1.57,0,2.73.46,3.5,1.38.77.92,1.16,2.3,1.18,4.13v9.56h-3.95v-9.46c0-.84-.18-1.45-.55-1.83-.36-.38-.97-.57-1.82-.57-1.11,0-1.95.47-2.5,1.42v10.43h-3.95v-14.79h3.72Z"/><path d="m289.54,36.56l4.51-14.97h4.57l-6.93,19.91h-4.28l-6.9-19.91h4.55l4.48,14.97Z"/><path d="m306.44,41.77c-2.17,0-3.94-.67-5.3-2-1.36-1.33-2.04-3.1-2.04-5.32v-.38c0-1.49.29-2.81.86-3.99.57-1.17,1.39-2.07,2.44-2.71,1.05-.63,2.25-.95,3.6-.95,2.02,0,3.62.64,4.78,1.91,1.16,1.28,1.74,3.09,1.74,5.43v1.61h-9.42c.13.97.51,1.74,1.16,2.32.64.58,1.46.88,2.44.88,1.52,0,2.71-.55,3.57-1.65l1.94,2.17c-.59.84-1.39,1.49-2.41,1.96s-2.13.7-3.36.7Zm-.45-12.15c-.78,0-1.42.27-1.91.8-.49.53-.8,1.29-.94,2.28h5.5v-.32c-.02-.88-.25-1.56-.71-2.04-.46-.48-1.1-.72-1.94-.72Z"/><path d="m323.08,30.41c-.54-.07-1.01-.11-1.42-.11-1.49,0-2.47.51-2.94,1.52v9.68h-3.95v-14.79h3.73l.11,1.76c.79-1.36,1.89-2.04,3.29-2.04.44,0,.85.06,1.23.18l-.05,3.8Z"/><path d="m332.99,37.41c0-.48-.24-.86-.72-1.14-.48-.28-1.25-.53-2.3-.75-3.52-.74-5.28-2.23-5.28-4.48,0-1.31.54-2.41,1.63-3.29,1.09-.88,2.51-1.32,4.27-1.32,1.88,0,3.38.44,4.51,1.33,1.12.88,1.69,2.03,1.69,3.45h-3.95c0-.56-.18-1.03-.55-1.4-.36-.37-.93-.55-1.71-.55-.67,0-1.18.15-1.54.45-.36.3-.55.68-.55,1.15,0,.44.21.79.62,1.06.41.27,1.11.5,2.1.7.98.2,1.81.42,2.49.66,2.09.77,3.13,2.09,3.13,3.98,0,1.35-.58,2.44-1.74,3.27-1.16.83-2.65,1.25-4.48,1.25-1.24,0-2.34-.22-3.3-.66-.96-.44-1.72-1.05-2.26-1.82-.55-.77-.82-1.6-.82-2.5h3.75c.04.7.3,1.24.78,1.61.48.37,1.13.56,1.94.56.76,0,1.33-.14,1.72-.43.39-.29.58-.66.58-1.13Z"/><path d="m348.23,40c-.97,1.19-2.32,1.78-4.05,1.78-1.59,0-2.79-.46-3.63-1.37-.83-.91-1.26-2.25-1.28-4.01v-9.69h3.95v9.57c0,1.54.7,2.31,2.11,2.31s2.26-.47,2.76-1.4v-10.48h3.96v14.79h-3.72l-.11-1.5Z"/><path d="m363.05,37.41c0-.48-.24-.86-.72-1.14-.48-.28-1.25-.53-2.3-.75-3.52-.74-5.28-2.23-5.28-4.48,0-1.31.54-2.41,1.63-3.29,1.09-.88,2.51-1.32,4.27-1.32,1.88,0,3.38.44,4.51,1.33,1.12.88,1.69,2.03,1.69,3.45h-3.95c0-.56-.18-1.03-.55-1.4-.36-.37-.93-.55-1.71-.55-.67,0-1.18.15-1.54.45-.36.3-.55.68-.55,1.15,0,.44.21.79.62,1.06.41.27,1.11.5,2.1.7.98.2,1.81.42,2.49.66,2.09.77,3.13,2.09,3.13,3.98,0,1.35-.58,2.44-1.74,3.27-1.16.83-2.65,1.25-4.48,1.25-1.24,0-2.34-.22-3.3-.66-.96-.44-1.72-1.05-2.26-1.82-.55-.77-.82-1.6-.82-2.5h3.75c.04.7.3,1.24.78,1.61.48.37,1.13.56,1.94.56.76,0,1.33-.14,1.72-.43.39-.29.58-.66.58-1.13Z"/><path d="m390.84,24.92h-6.1v16.58h-4.1v-16.58h-6.02v-3.32h16.21v3.32Z"/><path d="m392.89,22.88c0-.59.2-1.08.6-1.46s.94-.57,1.62-.57,1.21.19,1.61.57c.4.38.6.87.6,1.46s-.2,1.09-.61,1.48c-.41.38-.94.57-1.61.57s-1.2-.19-1.61-.57c-.41-.38-.61-.88-.61-1.48Zm4.2,18.62h-3.96v-14.79h3.96v14.79Z"/><path d="m404.04,26.71l.12,1.65c1.05-1.29,2.47-1.93,4.25-1.93,1.91,0,3.21.75,3.92,2.26,1.04-1.5,2.52-2.26,4.44-2.26,1.6,0,2.8.47,3.58,1.4.78.93,1.18,2.34,1.18,4.22v9.45h-3.96v-9.43c0-.84-.16-1.45-.49-1.84-.33-.39-.91-.58-1.74-.58-1.18,0-2,.57-2.46,1.7v10.16s-3.94,0-3.94,0v-9.42c0-.86-.17-1.48-.51-1.86-.34-.38-.91-.57-1.72-.57-1.12,0-1.93.46-2.43,1.39v10.46h-3.95v-14.79h3.71Z"/><path d="m431.39,41.77c-2.17,0-3.94-.67-5.3-2-1.36-1.33-2.04-3.1-2.04-5.32v-.38c0-1.49.29-2.81.86-3.99.57-1.17,1.39-2.07,2.44-2.71,1.05-.63,2.25-.95,3.6-.95,2.02,0,3.62.64,4.78,1.91,1.16,1.28,1.74,3.09,1.74,5.43v1.61h-9.42c.13.97.51,1.74,1.16,2.32.64.58,1.46.88,2.44.88,1.52,0,2.71-.55,3.57-1.65l1.94,2.17c-.59.84-1.39,1.49-2.41,1.96s-2.13.7-3.36.7Zm-.45-12.15c-.78,0-1.42.27-1.91.8-.49.53-.8,1.29-.94,2.28h5.5v-.32c-.02-.88-.25-1.56-.71-2.04-.46-.48-1.1-.72-1.94-.72Z"/><path d="m757.78,36.56l4.51-14.97h4.57l-6.93,19.91h-4.28l-6.9-19.91h4.55l4.48,14.97Z"/><path d="m774.68,41.77c-2.17,0-3.94-.67-5.3-2-1.36-1.33-2.04-3.1-2.04-5.32v-.38c0-1.49.29-2.81.86-3.99.57-1.17,1.39-2.07,2.44-2.71,1.05-.63,2.25-.95,3.6-.95,2.02,0,3.62.64,4.78,1.91,1.16,1.28,1.74,3.09,1.74,5.43v1.61h-9.42c.13.97.51,1.74,1.16,2.32.64.58,1.46.88,2.44.88,1.52,0,2.71-.55,3.57-1.65l1.94,2.17c-.59.84-1.39,1.49-2.41,1.96s-2.13.7-3.36.7Zm-.45-12.15c-.78,0-1.42.27-1.91.8-.49.53-.8,1.29-.94,2.28h5.5v-.32c-.02-.88-.25-1.56-.71-2.04-.46-.48-1.1-.72-1.94-.72Z"/><path d="m787.18,41.5h-3.96v-21h3.96v21Z"/><path d="m789.82,33.97c0-1.47.28-2.78.85-3.92.57-1.15,1.38-2.04,2.44-2.67,1.06-.63,2.29-.94,3.7-.94,2,0,3.62.61,4.89,1.83,1.26,1.22,1.97,2.88,2.11,4.98l.03,1.01c0,2.27-.63,4.09-1.9,5.46-1.27,1.37-2.97,2.06-5.1,2.06s-3.83-.68-5.11-2.05-1.91-3.23-1.91-5.58v-.18Zm3.95.28c0,1.41.26,2.48.79,3.22.53.74,1.29,1.12,2.27,1.12s1.71-.37,2.24-1.1c.54-.73.81-1.91.81-3.53,0-1.38-.27-2.45-.81-3.2-.54-.76-1.29-1.14-2.27-1.14s-1.71.38-2.24,1.13c-.53.75-.79,1.92-.79,3.5Z"/><path d="m812.42,38.59c.73,0,1.32-.2,1.78-.6.46-.4.69-.93.71-1.6h3.71c0,1-.28,1.92-.82,2.75-.54.83-1.27,1.48-2.21,1.94-.94.46-1.97.69-3.1.69-2.11,0-3.78-.67-5-2.02-1.22-1.34-1.83-3.2-1.83-5.57v-.26c0-2.28.61-4.1,1.82-5.46,1.21-1.36,2.88-2.04,4.99-2.04,1.85,0,3.33.53,4.45,1.58,1.12,1.05,1.68,2.45,1.7,4.2h-3.71c-.02-.77-.25-1.4-.71-1.88-.46-.48-1.06-.72-1.8-.72-.92,0-1.62.34-2.08,1.01-.47.67-.71,1.76-.71,3.27v.41c0,1.52.23,2.62.7,3.29s1.17,1,2.12,1Z"/><path d="m820.84,22.88c0-.59.2-1.08.6-1.46s.94-.57,1.62-.57,1.21.19,1.61.57c.4.38.6.87.6,1.46s-.2,1.09-.61,1.48c-.41.38-.94.57-1.61.57s-1.2-.19-1.61-.57c-.41-.38-.61-.88-.61-1.48Zm4.2,18.62h-3.96v-14.79h3.96v14.79Z"/><path d="m833.02,23.07v3.64h2.53v2.9h-2.53v7.38c0,.55.11.94.31,1.18.21.24.61.36,1.2.36.44,0,.83-.03,1.16-.1v2.99c-.77.24-1.57.36-2.39.36-2.77,0-4.18-1.4-4.24-4.2v-7.97h-2.16v-2.9h2.16v-3.64h3.95Z"/><path d="m843.27,35.91l2.73-9.2h4.24l-5.95,17.09-.33.78c-.88,1.93-2.34,2.9-4.38,2.9-.57,0-1.16-.09-1.75-.26v-2.99h.6c.75.01,1.31-.1,1.68-.33.37-.23.66-.61.87-1.13l.46-1.22-5.18-14.83h4.25l2.75,9.2Z"/><path d="m866.39,36.56l4.51-14.97h4.57l-6.93,19.91h-4.28l-6.9-19.91h4.55l4.48,14.97Z"/><path d="m883.29,41.77c-2.17,0-3.94-.67-5.3-2-1.36-1.33-2.04-3.1-2.04-5.32v-.38c0-1.49.29-2.81.86-3.99.57-1.17,1.39-2.07,2.44-2.71,1.05-.63,2.25-.95,3.6-.95,2.02,0,3.62.64,4.78,1.91,1.16,1.28,1.74,3.09,1.74,5.43v1.61h-9.42c.13.97.51,1.74,1.16,2.32.64.58,1.46.88,2.44.88,1.52,0,2.71-.55,3.57-1.65l1.94,2.17c-.59.84-1.39,1.49-2.41,1.96s-2.13.7-3.36.7Zm-.45-12.15c-.78,0-1.42.27-1.91.8-.49.53-.8,1.29-.94,2.28h5.5v-.32c-.02-.88-.25-1.56-.71-2.04-.46-.48-1.1-.72-1.94-.72Z"/><path d="m899.93,30.41c-.54-.07-1.01-.11-1.42-.11-1.49,0-2.47.51-2.94,1.52v9.68h-3.95v-14.79h3.73l.11,1.76c.79-1.36,1.89-2.04,3.29-2.04.44,0,.85.06,1.23.18l-.05,3.8Z"/><path d="m909.84,37.41c0-.48-.24-.86-.72-1.14-.48-.28-1.25-.53-2.3-.75-3.52-.74-5.28-2.23-5.28-4.48,0-1.31.54-2.41,1.63-3.29,1.09-.88,2.51-1.32,4.27-1.32,1.88,0,3.38.44,4.51,1.33,1.12.88,1.69,2.03,1.69,3.45h-3.95c0-.56-.18-1.03-.55-1.4-.36-.37-.93-.55-1.71-.55-.67,0-1.18.15-1.54.45-.36.3-.55.68-.55,1.15,0,.44.21.79.62,1.06.41.27,1.11.5,2.1.7.98.2,1.81.42,2.49.66,2.09.77,3.13,2.09,3.13,3.98,0,1.35-.58,2.44-1.74,3.27-1.16.83-2.65,1.25-4.48,1.25-1.24,0-2.34-.22-3.3-.66-.96-.44-1.72-1.05-2.26-1.82-.55-.77-.82-1.6-.82-2.5h3.75c.04.7.3,1.24.78,1.61.48.37,1.13.56,1.94.56.76,0,1.33-.14,1.72-.43.39-.29.58-.66.58-1.13Z"/><path d="m925.09,40c-.97,1.19-2.32,1.78-4.05,1.78-1.59,0-2.79-.46-3.63-1.37-.83-.91-1.26-2.25-1.28-4.01v-9.69h3.95v9.57c0,1.54.7,2.31,2.11,2.31s2.26-.47,2.76-1.4v-10.48h3.96v14.79h-3.72l-.11-1.5Z"/><path d="m939.91,37.41c0-.48-.24-.86-.72-1.14-.48-.28-1.25-.53-2.3-.75-3.52-.74-5.28-2.23-5.28-4.48,0-1.31.54-2.41,1.63-3.29,1.09-.88,2.51-1.32,4.27-1.32,1.88,0,3.38.44,4.51,1.33,1.12.88,1.69,2.03,1.69,3.45h-3.95c0-.56-.18-1.03-.55-1.4-.36-.37-.93-.55-1.71-.55-.67,0-1.18.15-1.54.45-.36.3-.55.68-.55,1.15,0,.44.21.79.62,1.06.41.27,1.11.5,2.1.7.98.2,1.81.42,2.49.66,2.09.77,3.13,2.09,3.13,3.98,0,1.35-.58,2.44-1.74,3.27-1.16.83-2.65,1.25-4.48,1.25-1.24,0-2.34-.22-3.3-.66-.96-.44-1.72-1.05-2.26-1.82-.55-.77-.82-1.6-.82-2.5h3.75c.04.7.3,1.24.78,1.61.48.37,1.13.56,1.94.56.76,0,1.33-.14,1.72-.43.39-.29.58-.66.58-1.13Z"/><path d="m967.69,24.92h-6.1v16.58h-4.1v-16.58h-6.02v-3.32h16.21v3.32Z"/><path d="m969.74,22.88c0-.59.2-1.08.6-1.46s.94-.57,1.62-.57,1.21.19,1.61.57c.4.38.6.87.6,1.46s-.2,1.09-.61,1.48c-.41.38-.94.57-1.61.57s-1.2-.19-1.61-.57c-.41-.38-.61-.88-.61-1.48Zm4.2,18.62h-3.96v-14.79h3.96v14.79Z"/><path d="m980.89,26.71l.12,1.65c1.05-1.29,2.47-1.93,4.25-1.93,1.91,0,3.21.75,3.92,2.26,1.04-1.5,2.52-2.26,4.44-2.26,1.6,0,2.8.47,3.58,1.4.78.93,1.18,2.34,1.18,4.22v9.45h-3.96v-9.43c0-.84-.16-1.45-.49-1.84-.33-.39-.91-.58-1.74-.58-1.18,0-2,.57-2.46,1.7v10.16s-3.94,0-3.94,0v-9.42c0-.86-.17-1.48-.51-1.86-.34-.38-.91-.57-1.72-.57-1.12,0-1.93.46-2.43,1.39v10.46h-3.95v-14.79h3.71Z"/><path d="m1008.24,41.77c-2.17,0-3.94-.67-5.3-2-1.36-1.33-2.04-3.1-2.04-5.32v-.38c0-1.49.29-2.81.86-3.99.57-1.17,1.39-2.07,2.44-2.71,1.05-.63,2.25-.95,3.6-.95,2.02,0,3.62.64,4.78,1.91,1.16,1.28,1.74,3.09,1.74,5.43v1.61h-9.42c.13.97.51,1.74,1.16,2.32.64.58,1.46.88,2.44.88,1.52,0,2.71-.55,3.57-1.65l1.94,2.17c-.59.84-1.39,1.49-2.41,1.96s-2.13.7-3.36.7Zm-.45-12.15c-.78,0-1.42.27-1.91.8-.49.53-.8,1.29-.94,2.28h5.5v-.32c-.02-.88-.25-1.56-.71-2.04-.46-.48-1.1-.72-1.94-.72Z"/></svg>