<?xml version="1.0" encoding="UTF-8"?>
<svg id="Layer_1" data-name="Layer 1" xmlns="http://www.w3.org/2000/svg" width="570" height="426" viewBox="0 0 570 426">
  <defs>
    <style>
      .cls-1 {
        stroke: #0e8a16;
      }

      .cls-1, .cls-2 {
        fill: none;
        stroke-miterlimit: 10;
        stroke-width: 2px;
      }

      .cls-2 {
        stroke: #000;
      }
    </style>
  </defs>
  <g>
    <path d="m117.84,18.4l4.83-16.04h4.89l-7.43,21.33h-4.58l-7.4-21.33h4.88l4.8,16.04Z"/>
    <path d="m136.59,23.98c-2.32,0-4.22-.71-5.68-2.14s-2.19-3.33-2.19-5.7v-.41c0-1.59.31-3.02.92-4.27s1.49-2.22,2.61-2.9c1.13-.68,2.42-1.02,3.86-1.02,2.17,0,3.87.68,5.12,2.05,1.24,1.37,1.87,3.31,1.87,5.82v1.73h-10.09c.14,1.04.55,1.87,1.24,2.49.69.62,1.56.94,2.62.94,1.63,0,2.91-.59,3.82-1.77l2.08,2.33c-.63.9-1.49,1.6-2.58,2.1s-2.29.75-3.6.75Zm-.48-13.02c-.84,0-1.52.28-2.04.85-.52.57-.86,1.38-1,2.44h5.89v-.34c-.02-.94-.27-1.67-.76-2.19s-1.18-.77-2.08-.77Z"/>
    <path d="m149.98,23.69h-4.25V1.19h4.25v22.5Z"/>
    <path d="m152.8,15.62c0-1.57.3-2.97.91-4.2s1.48-2.18,2.62-2.86c1.14-.67,2.46-1.01,3.96-1.01,2.14,0,3.88.65,5.24,1.96,1.35,1.31,2.11,3.09,2.26,5.33l.03,1.08c0,2.43-.68,4.38-2.04,5.85s-3.18,2.2-5.46,2.2-4.11-.73-5.47-2.2c-1.36-1.46-2.04-3.46-2.04-5.98v-.19Zm4.23.3c0,1.51.28,2.66.85,3.46.57.8,1.38,1.2,2.43,1.2s1.83-.39,2.4-1.18c.58-.79.86-2.05.86-3.78,0-1.48-.29-2.62-.86-3.43s-1.39-1.22-2.43-1.22-1.84.4-2.4,1.21-.85,2.06-.85,3.75Z"/>
    <path d="m177.02,20.57c.78,0,1.42-.21,1.9-.64s.74-1,.76-1.71h3.97c0,1.07-.3,2.06-.88,2.95s-1.37,1.59-2.37,2.08c-1,.49-2.11.74-3.32.74-2.27,0-4.05-.72-5.36-2.16s-1.96-3.43-1.96-5.97v-.28c0-2.44.65-4.39,1.95-5.84s3.08-2.18,5.35-2.18c1.98,0,3.57.56,4.77,1.69s1.8,2.63,1.82,4.5h-3.97c-.02-.82-.27-1.49-.76-2.01-.49-.52-1.13-.77-1.93-.77-.99,0-1.73.36-2.23,1.08-.5.72-.75,1.89-.75,3.5v.44c0,1.63.25,2.81.75,3.52s1.25,1.07,2.27,1.07Z"/>
    <path d="m186.04,3.74c0-.63.21-1.16.64-1.57.42-.41,1-.62,1.74-.62s1.3.21,1.73.62.64.93.64,1.57-.22,1.17-.65,1.58c-.44.41-1.01.62-1.72.62s-1.29-.21-1.72-.62-.65-.94-.65-1.58Zm4.5,19.95h-4.25V7.84h4.25v15.85Z"/>
    <path d="m199.09,3.94v3.9h2.71v3.11h-2.71v7.91c0,.59.11,1.01.34,1.26s.65.38,1.29.38c.47,0,.88-.03,1.25-.1v3.21c-.83.25-1.68.38-2.56.38-2.97,0-4.48-1.5-4.54-4.5v-8.54h-2.31v-3.11h2.31v-3.9h4.23Z"/>
    <path d="m210.08,17.7l2.93-9.86h4.54l-6.37,18.31-.35.83c-.95,2.07-2.51,3.11-4.69,3.11-.62,0-1.24-.09-1.88-.28v-3.21h.64c.8.01,1.4-.11,1.79-.35.39-.24.71-.65.93-1.22l.5-1.3-5.55-15.89h4.56l2.94,9.86Z"/>
    <path d="m232.62,18.52l2.94-10.68h4.42l-5.35,15.85h-4.04l-5.35-15.85h4.42l2.94,10.68Z"/>
    <path d="m249.15,23.98c-2.32,0-4.22-.71-5.68-2.14s-2.19-3.33-2.19-5.7v-.41c0-1.59.31-3.02.92-4.27s1.49-2.22,2.61-2.9c1.13-.68,2.42-1.02,3.86-1.02,2.17,0,3.87.68,5.12,2.05,1.24,1.37,1.87,3.31,1.87,5.82v1.73h-10.09c.14,1.04.55,1.87,1.24,2.49.69.62,1.56.94,2.62.94,1.63,0,2.91-.59,3.82-1.77l2.08,2.33c-.63.9-1.49,1.6-2.58,2.1s-2.29.75-3.6.75Zm-.48-13.02c-.84,0-1.52.28-2.04.85-.52.57-.86,1.38-1,2.44h5.89v-.34c-.02-.94-.27-1.67-.76-2.19s-1.18-.77-2.08-.77Z"/>
    <path d="m266.97,11.81c-.58-.08-1.08-.12-1.52-.12-1.6,0-2.65.54-3.15,1.63v10.37h-4.23V7.84h4l.12,1.89c.85-1.46,2.03-2.18,3.53-2.18.47,0,.91.06,1.32.19l-.06,4.07Z"/>
    <path d="m277.59,19.31c0-.52-.26-.93-.77-1.22-.51-.3-1.34-.56-2.47-.8-3.77-.79-5.65-2.39-5.65-4.8,0-1.41.58-2.58,1.75-3.52s2.69-1.41,4.58-1.41c2.01,0,3.62.47,4.83,1.42s1.81,2.18,1.81,3.69h-4.23c0-.61-.2-1.11-.59-1.5s-1-.59-1.83-.59c-.71,0-1.26.16-1.66.48s-.59.73-.59,1.23c0,.47.22.85.67,1.14s1.19.54,2.25.75,1.94.45,2.67.71c2.24.82,3.35,2.24,3.35,4.26,0,1.45-.62,2.61-1.86,3.51s-2.84,1.34-4.8,1.34c-1.33,0-2.51-.24-3.54-.71s-1.84-1.12-2.42-1.95-.88-1.72-.88-2.67h4.01c.04.75.32,1.33.83,1.73s1.21.6,2.08.6c.81,0,1.42-.15,1.84-.46.41-.31.62-.71.62-1.21Z"/>
    <path d="m293.93,22.08c-1.04,1.27-2.49,1.9-4.34,1.9-1.7,0-3-.49-3.89-1.46-.89-.98-1.35-2.41-1.37-4.29V7.84h4.23v10.25c0,1.65.75,2.48,2.26,2.48s2.42-.5,2.96-1.5V7.84h4.25v15.85h-3.98l-.12-1.61Z"/>
    <path d="m309.81,19.31c0-.52-.26-.93-.77-1.22-.51-.3-1.34-.56-2.47-.8-3.77-.79-5.65-2.39-5.65-4.8,0-1.41.58-2.58,1.75-3.52s2.69-1.41,4.58-1.41c2.01,0,3.62.47,4.83,1.42s1.81,2.18,1.81,3.69h-4.23c0-.61-.2-1.11-.59-1.5s-1-.59-1.83-.59c-.71,0-1.26.16-1.66.48s-.59.73-.59,1.23c0,.47.22.85.67,1.14s1.19.54,2.25.75,1.94.45,2.67.71c2.24.82,3.35,2.24,3.35,4.26,0,1.45-.62,2.61-1.86,3.51s-2.84,1.34-4.8,1.34c-1.33,0-2.51-.24-3.54-.71s-1.84-1.12-2.42-1.95-.88-1.72-.88-2.67h4.01c.04.75.32,1.33.83,1.73s1.21.6,2.08.6c.81,0,1.42-.15,1.84-.46.41-.31.62-.71.62-1.21Z"/>
    <path d="m329.19,3.94v3.9h2.71v3.11h-2.71v7.91c0,.59.11,1.01.34,1.26s.65.38,1.29.38c.47,0,.88-.03,1.25-.1v3.21c-.83.25-1.68.38-2.56.38-2.97,0-4.48-1.5-4.54-4.5v-8.54h-2.31v-3.11h2.31v-3.9h4.23Z"/>
    <path d="m334.22,3.74c0-.63.21-1.16.64-1.57.42-.41,1-.62,1.74-.62s1.3.21,1.73.62.64.93.64,1.57-.22,1.17-.65,1.58c-.44.41-1.01.62-1.72.62s-1.29-.21-1.72-.62-.65-.94-.65-1.58Zm4.5,19.95h-4.25V7.84h4.25v15.85Z"/>
    <path d="m346.18,7.84l.13,1.77c1.12-1.38,2.64-2.07,4.56-2.07,2.04,0,3.44.81,4.2,2.42,1.11-1.61,2.7-2.42,4.76-2.42,1.72,0,3,.5,3.84,1.5s1.26,2.51,1.26,4.52v10.12h-4.25v-10.11c0-.9-.18-1.56-.53-1.97s-.97-.62-1.86-.62c-1.27,0-2.15.61-2.64,1.82v10.88s-4.22,0-4.22,0v-10.09c0-.92-.18-1.58-.54-1.99s-.98-.62-1.85-.62c-1.2,0-2.07.5-2.61,1.49v11.21h-4.23V7.84h3.97Z"/>
    <path d="m375.47,23.98c-2.32,0-4.22-.71-5.68-2.14s-2.19-3.33-2.19-5.7v-.41c0-1.59.31-3.02.92-4.27s1.49-2.22,2.61-2.9c1.13-.68,2.42-1.02,3.86-1.02,2.17,0,3.87.68,5.12,2.05,1.24,1.37,1.87,3.31,1.87,5.82v1.73h-10.09c.14,1.04.55,1.87,1.24,2.49.69.62,1.56.94,2.62.94,1.63,0,2.91-.59,3.82-1.77l2.08,2.33c-.63.9-1.49,1.6-2.58,2.1s-2.29.75-3.6.75Zm-.48-13.02c-.84,0-1.52.28-2.04.85-.52.57-.86,1.38-1,2.44h5.89v-.34c-.02-.94-.27-1.67-.76-2.19s-1.18-.77-2.08-.77Z"/>
    <path d="m393.02,23.69v-12.74h-2.36v-3.11h2.36v-1.35c0-1.78.51-3.16,1.53-4.14,1.02-.98,2.45-1.47,4.28-1.47.59,0,1.3.1,2.15.29l-.04,3.28c-.35-.09-.78-.13-1.29-.13-1.59,0-2.39.75-2.39,2.24v1.27h3.15v3.11h-3.15v12.74h-4.25Z"/>
    <path d="m401.96,15.62c0-1.57.3-2.97.91-4.2s1.48-2.18,2.62-2.86c1.14-.67,2.46-1.01,3.96-1.01,2.14,0,3.88.65,5.24,1.96,1.35,1.31,2.11,3.09,2.26,5.33l.03,1.08c0,2.43-.68,4.38-2.04,5.85s-3.18,2.2-5.46,2.2-4.11-.73-5.47-2.2c-1.36-1.46-2.04-3.46-2.04-5.98v-.19Zm4.23.3c0,1.51.28,2.66.85,3.46.57.8,1.38,1.2,2.43,1.2s1.83-.39,2.4-1.18c.58-.79.86-2.05.86-3.78,0-1.48-.29-2.62-.86-3.43s-1.39-1.22-2.43-1.22-1.84.4-2.4,1.21-.85,2.06-.85,3.75Z"/>
    <path d="m428.49,11.81c-.58-.08-1.08-.12-1.52-.12-1.6,0-2.65.54-3.15,1.63v10.37h-4.23V7.84h4l.12,1.89c.85-1.46,2.03-2.18,3.53-2.18.47,0,.91.06,1.32.19l-.06,4.07Z"/>
    <path d="m447.18,23.69c-.2-.38-.34-.85-.42-1.42-1.03,1.14-2.36,1.71-4,1.71-1.55,0-2.84-.45-3.86-1.35-1.02-.9-1.53-2.03-1.53-3.4,0-1.68.62-2.97,1.87-3.87,1.25-.9,3.04-1.35,5.4-1.36h1.95v-.91c0-.73-.19-1.32-.56-1.76-.38-.44-.97-.66-1.78-.66-.71,0-1.27.17-1.68.51-.41.34-.61.81-.61,1.41h-4.23c0-.92.28-1.77.85-2.55s1.37-1.39,2.4-1.84,2.2-.67,3.49-.67c1.95,0,3.5.49,4.65,1.47s1.72,2.36,1.72,4.14v6.87c0,1.5.22,2.64.63,3.41v.25h-4.28Zm-3.5-2.94c.62,0,1.2-.14,1.73-.42s.92-.65,1.17-1.12v-2.72h-1.58c-2.12,0-3.25.73-3.38,2.2v.25c-.01.53.17.96.54,1.3s.88.51,1.52.51Z"/>
    <path d="m475.83,15.91c0,2.54-.54,4.52-1.63,5.94s-2.6,2.13-4.54,2.13c-1.72,0-3.09-.66-4.12-1.98l-.19,1.68h-3.81V1.19h4.23v8.07c.98-1.14,2.26-1.71,3.85-1.71,1.93,0,3.45.71,4.55,2.13,1.1,1.42,1.65,3.42,1.65,6v.23Zm-4.23-.31c0-1.6-.25-2.77-.76-3.51s-1.26-1.11-2.27-1.11c-1.35,0-2.28.55-2.78,1.66v6.25c.52,1.11,1.46,1.67,2.81,1.67s2.27-.67,2.7-2.02c.21-.64.31-1.63.31-2.94Z"/>
    <path d="m487.62,23.69c-.2-.38-.34-.85-.42-1.42-1.03,1.14-2.36,1.71-4,1.71-1.55,0-2.84-.45-3.86-1.35-1.02-.9-1.53-2.03-1.53-3.4,0-1.68.62-2.97,1.87-3.87,1.25-.9,3.04-1.35,5.4-1.36h1.95v-.91c0-.73-.19-1.32-.56-1.76-.38-.44-.97-.66-1.78-.66-.71,0-1.27.17-1.68.51-.41.34-.61.81-.61,1.41h-4.23c0-.92.28-1.77.85-2.55s1.37-1.39,2.4-1.84,2.2-.67,3.49-.67c1.95,0,3.5.49,4.65,1.47s1.72,2.36,1.72,4.14v6.87c0,1.5.22,2.64.63,3.41v.25h-4.28Zm-3.5-2.94c.62,0,1.2-.14,1.73-.42s.92-.65,1.17-1.12v-2.72h-1.58c-2.12,0-3.25.73-3.38,2.2v.25c-.01.53.17.96.54,1.3s.88.51,1.52.51Z"/>
    <path d="m498.99,23.69h-4.25V1.19h4.25v22.5Z"/>
    <path d="m506.94,23.69h-4.25V1.19h4.25v22.5Z"/>
  </g>
  <line class="cls-2" x1="47.85" y1="226.56" x2="546.84" y2="226.56"/>
  <line class="cls-1" x1="48.95" y1="67.12" x2="409.62" y2="372.75"/>
  <line class="cls-2" x1="48.52" y1="372.75" x2="48.52" y2="40.12"/>
  <g>
    <path d="m283.44,400.27h-5.44v14.81h-3.66v-14.81h-5.37v-2.97h14.48v2.97Z"/>
    <path d="m285.27,398.45c0-.53.18-.96.53-1.31.35-.34.84-.51,1.45-.51s1.08.17,1.44.51c.36.34.54.78.54,1.31s-.18.98-.54,1.32-.84.51-1.43.51-1.07-.17-1.44-.51c-.36-.34-.54-.78-.54-1.32Zm3.75,16.63h-3.54v-13.21h3.54v13.21Z"/>
    <path d="m295.23,401.87l.11,1.48c.94-1.15,2.2-1.72,3.8-1.72,1.7,0,2.87.67,3.5,2.01.93-1.34,2.25-2.01,3.97-2.01,1.43,0,2.5.42,3.2,1.25s1.05,2.09,1.05,3.77v8.44h-3.54v-8.42c0-.75-.15-1.3-.44-1.64-.29-.35-.81-.52-1.55-.52-1.06,0-1.79.5-2.2,1.51v9.07s-3.52,0-3.52,0v-8.41c0-.76-.15-1.32-.45-1.66s-.81-.51-1.54-.51c-1,0-1.73.42-2.17,1.25v9.34h-3.53v-13.21h3.31Z"/>
    <path d="m319.64,415.32c-1.94,0-3.51-.59-4.73-1.78-1.22-1.19-1.83-2.77-1.83-4.75v-.34c0-1.33.26-2.51.77-3.56.51-1.05,1.24-1.85,2.18-2.42.94-.57,2.01-.85,3.22-.85,1.81,0,3.23.57,4.27,1.71,1.04,1.14,1.56,2.75,1.56,4.85v1.44h-8.41c.11.86.46,1.55,1.03,2.08.57.52,1.3.78,2.18.78,1.36,0,2.42-.49,3.19-1.48l1.73,1.94c-.53.75-1.25,1.33-2.15,1.75-.9.42-1.9.63-3,.63Zm-.4-10.85c-.7,0-1.27.24-1.7.71-.44.47-.71,1.15-.84,2.04h4.91v-.28c-.02-.79-.23-1.39-.63-1.82-.41-.43-.98-.64-1.73-.64Z"/>
    <path d="m333.4,408.14c0-1.79.24-3.49.71-5.11s1.18-3.05,2.11-4.29,1.94-2.11,3.02-2.6l.66,1.83c-1.14.84-2.03,2.15-2.67,3.91s-.96,3.83-.96,6.19v.36c0,2.37.32,4.44.95,6.21s1.53,3.1,2.68,3.97l-.66,1.79c-1.06-.48-2.05-1.32-2.97-2.53s-1.62-2.6-2.1-4.18-.74-3.23-.77-4.95v-.62Z"/>
    <path d="m348.54,411.57c0-.41-.21-.74-.62-.98s-1.07-.45-1.97-.64c-3.02-.63-4.52-1.91-4.52-3.84,0-1.12.47-2.06,1.4-2.82s2.15-1.13,3.66-1.13c1.61,0,2.9.38,3.86,1.14s1.45,1.74,1.45,2.95h-3.39c0-.48-.16-.88-.47-1.2s-.8-.47-1.46-.47c-.57,0-1.01.13-1.32.39s-.47.59-.47.98c0,.38.18.68.53.91s.96.43,1.8.6,1.55.36,2.13.57c1.79.66,2.68,1.79,2.68,3.41,0,1.16-.5,2.09-1.49,2.81s-2.27,1.07-3.84,1.07c-1.06,0-2.01-.19-2.83-.57s-1.47-.9-1.94-1.56-.7-1.37-.7-2.14h3.21c.03.6.25,1.06.67,1.38s.97.48,1.66.48c.65,0,1.14-.12,1.47-.37s.5-.57.5-.97Z"/>
    <path d="m359.85,408.41c0,1.77-.25,3.46-.76,5.1s-1.24,3.07-2.19,4.32-1.97,2.11-3.06,2.58l-.66-1.79c1.11-.84,1.98-2.12,2.62-3.87s.97-3.75,1-6.01v-.62c0-2.34-.32-4.39-.96-6.18s-1.53-3.12-2.67-4.01l.66-1.79c1.06.46,2.06,1.3,3.01,2.51s1.67,2.62,2.19,4.23.79,3.28.81,5v.53Z"/>
  </g>
  <g>
    <path d="m25.11,266.96c-1.79,0-3.49-.24-5.11-.71s-3.05-1.17-4.29-2.1-2.11-1.93-2.6-3.01l1.83-.65c.84,1.14,2.15,2.02,3.91,2.66,1.77.64,3.83.96,6.19.96h.36c2.37,0,4.44-.32,6.21-.95s3.1-1.52,3.97-2.67l1.79.65c-.48,1.06-1.32,2.04-2.53,2.96s-2.6,1.61-4.18,2.09c-1.58.48-3.23.74-4.95.77h-.62Z"/>
    <path d="m19.37,255.56l1.42-.11c-1.1-.89-1.65-2.1-1.65-3.63,0-1.62.64-2.74,1.93-3.35-1.29-.89-1.93-2.15-1.93-3.79,0-1.37.4-2.39,1.2-3.06.8-.67,2.01-1,3.62-1h8.1v3.38h-8.09c-.72,0-1.24.14-1.58.42-.33.28-.5.77-.5,1.48,0,1.01.48,1.71,1.45,2.1h8.71s0,3.36,0,3.36h-8.07c-.73,0-1.27.14-1.59.43-.33.29-.49.78-.49,1.47,0,.96.4,1.65,1.2,2.08h8.96v3.37h-12.68v-3.16Z"/>
    <path d="m33.51,236.98v2.51l-18.53-6.25v-2.51l18.53,6.25Z"/>
    <path d="m28.54,222.28c-.41,0-.74.2-.98.61s-.45,1.06-.64,1.97c-.63,3-1.91,4.5-3.84,4.5-1.12,0-2.06-.46-2.82-1.39-.75-.93-1.13-2.14-1.13-3.65,0-1.6.38-2.88,1.14-3.84.76-.96,1.74-1.44,2.95-1.44v3.37c-.48,0-.88.16-1.2.47-.32.31-.47.8-.47,1.46,0,.57.13,1.01.39,1.32.26.31.59.47.98.47.38,0,.68-.18.91-.53.23-.35.43-.95.6-1.79s.36-1.55.57-2.12c.66-1.78,1.79-2.67,3.41-2.67,1.16,0,2.09.49,2.81,1.48.71.99,1.07,2.26,1.07,3.83,0,1.06-.19,2-.57,2.82-.38.82-.9,1.46-1.56,1.93s-1.37.7-2.14.7v-3.2c.6-.03,1.06-.25,1.38-.67s.48-.96.48-1.66c0-.65-.12-1.13-.37-1.46-.25-.33-.57-.5-.97-.5Z"/>
    <path d="m25.38,211.02c1.77,0,3.46.25,5.1.76,1.63.5,3.07,1.23,4.32,2.18,1.25.95,2.11,1.96,2.58,3.04l-1.79.65c-.84-1.1-2.12-1.98-3.87-2.61s-3.75-.97-6.01-.99h-.62c-2.34,0-4.39.32-6.18.95s-3.12,1.52-4.01,2.65l-1.79-.65c.46-1.06,1.3-2.05,2.51-2.99,1.21-.94,2.62-1.66,4.23-2.18,1.61-.52,3.28-.79,5-.81h.53Z"/>
    <path d="m14.81,203.26v1.66h18.6v-1.66h2.61v5.04H12.2v-5.04h2.61Z"/>
    <path d="m30.76,194.21c1.02.83,1.52,1.98,1.52,3.45,0,1.35-.39,2.39-1.17,3.1-.78.71-1.93,1.08-3.43,1.09h-8.31v-3.37h8.2c1.32,0,1.98-.6,1.98-1.8s-.4-1.93-1.2-2.36h-8.99v-3.38h12.68v3.17l-1.29.09Z"/>
    <path d="m25.82,177.04c1.95,0,3.52.44,4.69,1.32s1.76,2.07,1.76,3.58c0,1.28-.45,2.31-1.34,3.09h5.98v3.37h-17.55v-3.13l1.24-.12c-.98-.82-1.48-1.88-1.48-3.2,0-1.56.58-2.76,1.73-3.63s2.75-1.29,4.78-1.29h.18Zm-.25,3.37c-1.18,0-2.09.21-2.73.62s-.96,1.02-.96,1.81c0,1.06.41,1.79,1.22,2.18h5.19c.84-.41,1.25-1.15,1.25-2.21,0-1.61-1.32-2.42-3.97-2.42Z"/>
    <path d="m12.2,176.09v-5.04h23.82v5.04h-2.61v-1.67H14.81v1.67h-2.61Z"/>
  </g>
  <g>
    <path d="m13.04,277.04c1.13,2.65,3.19,4.75,5.29,6.56l-.54.57c-.89-.65-1.78-1.43-2.65-2.27-.24-.24-.54-.38-.78-.38-.27,0-.54.22-.54.7v16.55h-1.84v-16.57c0-.27-.32-.7-.59-.7-.24,0-.43.11-.7.38-.76.81-1.73,1.65-2.65,2.27l-.54-.57c2.08-1.78,4.16-3.89,5.26-6.53h.27Z"/>
    <g>
      <path d="m33.07,296.01v1.32c-1.37.05-2.61.12-3.73.19-1.12.07-2.2.16-3.25.27s-2.16.24-3.33.41c-.63.07-1.05.18-1.27.34-.22.15-.32.46-.32.91,0,.22.03.5.08.86h-.84l-.43-3.54v-.65c1.73-.2,3.5-.36,5.32-.5,1.82-.13,3.57-.23,5.26-.28l.95.05v-.05c-.68-.85-1.44-1.62-2.27-2.33-.83-.71-1.68-1.28-2.56-1.7s-1.74-.63-2.57-.63c-.41,0-.75.07-1,.2-.25.14-.47.29-.65.47s-.37.34-.57.47-.46.2-.78.2c-.41,0-.72-.12-.9-.36-.19-.24-.28-.53-.28-.85,0-.45.14-.8.42-1.05.28-.25.61-.43,1-.53.39-.1.76-.15,1.12-.15,1.13,0,2.21.19,3.24.57,1.03.38,1.99.89,2.9,1.54.91.65,1.74,1.39,2.48,2.21.75.83,1.41,1.7,1.98,2.62Z"/>
      <path d="m41.85,282.22v6.2h-.54l-2.39-2.39c-.54-.52-1.02-.96-1.46-1.31-.44-.35-.87-.61-1.31-.78-.44-.17-.93-.26-1.48-.26-.59,0-1.06.18-1.41.53s-.53.83-.53,1.44c0,.51.11.95.33,1.31.22.36.62.69,1.21.98l-.16.38c-.77-.24-1.36-.62-1.78-1.15-.42-.52-.63-1.17-.63-1.94,0-.6.11-1.12.34-1.57s.54-.81.94-1.06c.4-.26.88-.39,1.44-.39.46,0,.91.1,1.33.29s.86.48,1.31.87c.45.38.96.85,1.53,1.41l1.97,2.08h.08l-.05-1.1v-2.19c0-.42-.09-.71-.28-.88-.19-.17-.52-.34-.99-.52v-.46l2.52.5Z"/>
    </g>
  </g>
</svg>