<?xml version="1.0" encoding="UTF-8"?><svg xmlns="http://www.w3.org/2000/svg" width="1140" height="586" xmlns:xlink="http://www.w3.org/1999/xlink" viewBox="0 0 1140 586"><defs><clipPath id="h"><path d="m-25.63,167.1c1.69-30.16-3.56-60.74-15.75-88.55C-58.07,40.47-97.93,11.19-143.76,4.03c-51.61-8.07-103.45,10.36-155.75,13.45-58.08,3.43-118.06-11.99-173.77,2.85-32.94,8.77-61.99,28.09-81.07,53.26-25.99,34.3-32.87,77.61-28.37,118.63,4.75,43.36,26.73,85.34,65.67,113.07,64.85,46.18,167.44,50.42,247.41,46.41,55.84-2.8,124.66-14.22,169.33-46.23,41.74-29.92,66.73-76.14,73.15-122.54.73-5.25,1.24-10.53,1.53-15.81Z" fill="#e3f6fc"/></clipPath><clipPath id="j"><path d="m1070.32,515.87s-54.79,75.18-253.44,36.91c-108.79-20.96-224.88-8.56-343.87,5.12-81.92,9.42-166.7,31.61-253.74,23.71-70.26-6.37-142.66-40.39-176.8-140.74-22.68-66.67-29.86-137.76-32.44-207.71C7.82,173.75-7.16,88.03,41.71,42.89c23.8-21.99,56.89-31.47,89.27-34.85,119.03-12.44,239.59,2.82,358.88.78,100.51-1.72,197.38-4.97,291.04-6.76,127.22-2.43,357.16-16.1,357,280.15-.1,189.35-67.59,233.67-67.59,233.67Z" fill="none"/></clipPath><clipPath id="k"><path d="m48.74,253.75l126.41-.43.39-6.02c.61-9.45-7.09-32.54-7.09-32.54l-116.81.16-2.89,27.86v10.96Z" fill="#3c8875"/></clipPath></defs><g id="g"><path d="m-25.63,167.1c1.69-30.16-3.56-60.74-15.75-88.55C-58.07,40.47-97.93,11.19-143.76,4.03c-51.61-8.07-103.45,10.36-155.75,13.45-58.08,3.43-118.06-11.99-173.77,2.85-32.94,8.77-61.99,28.09-81.07,53.26-25.99,34.3-32.87,77.61-28.37,118.63,4.75,43.36,26.73,85.34,65.67,113.07,64.85,46.18,167.44,50.42,247.41,46.41,55.84-2.8,124.66-14.22,169.33-46.23,41.74-29.92,66.73-76.14,73.15-122.54.73-5.25,1.24-10.53,1.53-15.81Z" fill="#e3f6fc"/><g clip-path="url(#h)"><path d="m-308.7,316.34c-31.49-.26-56.54-5.17-87.13-9.95-31.4-4.9-73.08-10.97-91.1-7.9-49.85,8.5-95.95,53.4-110.19,67.34l-48.51-21.58c.61-.58,15.12-14.37,38.77-29.67,32.66-21.13,66.32-34.6,100.41-40.36,37.87-6.39,80.4.17,121.8,6.57,66.82,10.31,96.4,12.93,117.94-3.14,17.89-13.35-17.33-30.3-71.97-54.16-26.89-11.74-54.35-23.74-70.4-35.6-20.41-15.07-19.58-28.26,2.02-39.27,18.03-9.19,46.95-13.27,86.13-12.2,29.71.82,62.35,4.46,91.26,7.68,17.67,1.97,34.39,3.84,48.01,4.81,13.72.98,18.94.64,20.36.49,7.1-3.93-4.46-14.46-13.69-22.88-13.75-12.53-27.77-25.31-9.5-34.91,13.65-7.17,34.78-7.94,53.41-8.62,29.18-1.07,65.47-2.4,100.79-31.14l44.23,7.55c-18.93,15.77-41.53,26.61-68.99,32.96-25.06,5.79-49.1,6.67-66.66,7.32-14.93.55-19.59.88-21.73,2.03-5.16,2.76,6.27,12.93,13.91,19.73,14.42,12.82,30.76,24.36,10.83,38.65-21.25,15.24-56.7,17.64-135.82,7.6-59.89-6.76-97.01-11.37-115.03-2.03-12.9,8.16,13.62,22.09,68.9,45.89,26.01,11.2,53.23,22.91,70.92,34.79,22.93,15.39,24.51,28.77,10.63,41.63-20.38,18.89-55.07,28.68-89.63,28.4Z" fill="#77747a"/></g></g><g id="i"><g clip-path="url(#j)"><rect x="-7" y="-6" width="1147" height="607" fill="#a3e5e3"/><rect x="19" y="340" width="1129" height="283" fill="#c8d9d2"/><path d="m377.19,60.1c0-.77-.27-1.37-.82-1.78-.55-.41-1.53-.85-2.95-1.31-1.42-.46-2.55-.91-3.38-1.36-2.26-1.22-3.39-2.87-3.39-4.94,0-1.08.3-2.03.91-2.88.61-.84,1.48-1.5,2.61-1.98,1.13-.47,2.41-.71,3.82-.71s2.69.26,3.8.77c1.11.52,1.98,1.24,2.59,2.18.62.94.92,2.01.92,3.2h-4.1c0-.91-.29-1.62-.86-2.13s-1.38-.76-2.42-.76-1.78.21-2.34.64-.83.98-.83,1.67c0,.65.33,1.19.98,1.63s1.61.85,2.88,1.23c2.33.7,4.03,1.57,5.1,2.61s1.6,2.33,1.6,3.88c0,1.72-.65,3.07-1.96,4.05-1.3.98-3.06,1.47-5.26,1.47-1.53,0-2.93-.28-4.18-.84s-2.22-1.33-2.88-2.3c-.66-.98-.99-2.11-.99-3.39h4.12c0,2.2,1.31,3.29,3.94,3.29.98,0,1.74-.2,2.28-.59s.82-.95.82-1.66Z" fill="#231e20"/><path d="m388.55,46.89v3.64h2.53v2.9h-2.53v7.38c0,.55.1.94.31,1.18.21.24.61.36,1.2.36.44,0,.83-.03,1.16-.1v2.99c-.77.24-1.57.36-2.39.36-2.77,0-4.18-1.4-4.24-4.2v-7.97h-2.16v-2.9h2.16v-3.64h3.95Z" fill="#231e20"/><path d="m401.59,54.23c-.54-.07-1.01-.11-1.42-.11-1.5,0-2.47.51-2.94,1.52v9.68h-3.95v-14.79h3.73l.11,1.76c.79-1.36,1.89-2.04,3.29-2.04.44,0,.85.06,1.23.18l-.05,3.8Z" fill="#231e20"/><path d="m410.04,65.6c-2.17,0-3.94-.67-5.3-2-1.36-1.33-2.04-3.1-2.04-5.32v-.38c0-1.49.29-2.81.86-3.99.57-1.17,1.39-2.07,2.44-2.71,1.05-.63,2.25-.95,3.6-.95,2.02,0,3.62.64,4.78,1.91,1.16,1.28,1.74,3.09,1.74,5.43v1.61h-9.42c.13.97.51,1.74,1.16,2.32.64.58,1.46.88,2.44.88,1.52,0,2.71-.55,3.57-1.65l1.94,2.17c-.59.84-1.39,1.49-2.41,1.96s-2.13.7-3.36.7Zm-.45-12.15c-.78,0-1.42.27-1.91.8-.49.53-.8,1.29-.94,2.28h5.5v-.32c-.02-.88-.25-1.56-.71-2.04-.46-.48-1.1-.72-1.94-.72Z" fill="#231e20"/><path d="m425.17,65.6c-2.17,0-3.94-.67-5.3-2-1.36-1.33-2.04-3.1-2.04-5.32v-.38c0-1.49.29-2.81.86-3.99.57-1.17,1.39-2.07,2.44-2.71,1.05-.63,2.25-.95,3.6-.95,2.02,0,3.62.64,4.78,1.91,1.16,1.28,1.74,3.09,1.74,5.43v1.61h-9.42c.13.97.51,1.74,1.16,2.32.64.58,1.46.88,2.44.88,1.52,0,2.71-.55,3.57-1.65l1.94,2.17c-.59.84-1.39,1.49-2.41,1.96s-2.13.7-3.36.7Zm-.45-12.15c-.78,0-1.42.27-1.91.8-.49.53-.8,1.29-.94,2.28h5.5v-.32c-.02-.88-.25-1.56-.71-2.04-.46-.48-1.1-.72-1.94-.72Z" fill="#231e20"/><path d="m438.23,46.89v3.64h2.53v2.9h-2.53v7.38c0,.55.1.94.31,1.18.21.24.61.36,1.2.36.44,0,.83-.03,1.16-.1v2.99c-.77.24-1.57.36-2.39.36-2.77,0-4.18-1.4-4.24-4.2v-7.97h-2.16v-2.9h2.16v-3.64h3.95Z" fill="#231e20"/><path d="m450.97,61.23c0-.48-.24-.86-.72-1.14-.48-.28-1.25-.53-2.3-.75-3.52-.74-5.28-2.23-5.28-4.48,0-1.31.54-2.41,1.63-3.29,1.09-.88,2.51-1.32,4.27-1.32,1.88,0,3.38.44,4.5,1.33,1.13.88,1.69,2.03,1.69,3.45h-3.95c0-.56-.18-1.03-.55-1.4s-.93-.55-1.71-.55c-.67,0-1.18.15-1.54.45s-.55.68-.55,1.15c0,.44.21.79.62,1.06.42.27,1.11.5,2.1.7.98.2,1.81.42,2.49.66,2.09.77,3.13,2.09,3.13,3.98,0,1.35-.58,2.44-1.74,3.27s-2.65,1.25-4.48,1.25c-1.24,0-2.34-.22-3.3-.66s-1.72-1.05-2.26-1.82c-.55-.77-.82-1.6-.82-2.5h3.75c.04.7.3,1.24.78,1.61.48.37,1.13.56,1.94.56.76,0,1.33-.14,1.72-.43s.58-.66.58-1.13Z" fill="#231e20"/><path d="m463.51,62.41c.73,0,1.32-.2,1.78-.6.46-.4.69-.93.71-1.6h3.71c0,1-.28,1.92-.82,2.75s-1.27,1.48-2.21,1.94-1.97.69-3.1.69c-2.11,0-3.78-.67-5-2.02-1.22-1.34-1.83-3.2-1.83-5.57v-.26c0-2.28.61-4.1,1.82-5.46,1.21-1.36,2.88-2.04,4.99-2.04,1.85,0,3.33.53,4.45,1.58s1.68,2.45,1.7,4.2h-3.71c-.02-.77-.25-1.4-.71-1.88s-1.06-.72-1.8-.72c-.92,0-1.62.34-2.08,1.01s-.7,1.76-.7,3.27v.41c0,1.52.23,2.62.7,3.29s1.17,1,2.12,1Z" fill="#231e20"/><path d="m480.53,65.32c-.18-.36-.31-.8-.4-1.33-.96,1.07-2.2,1.6-3.73,1.6-1.45,0-2.65-.42-3.6-1.26-.95-.84-1.43-1.9-1.43-3.17,0-1.57.58-2.77,1.74-3.61,1.16-.84,2.84-1.26,5.04-1.27h1.82v-.85c0-.68-.18-1.23-.53-1.64s-.9-.62-1.66-.62c-.67,0-1.19.16-1.57.48-.38.32-.57.76-.57,1.31h-3.95c0-.86.26-1.65.79-2.38.53-.73,1.28-1.3,2.24-1.72.97-.41,2.05-.62,3.25-.62,1.82,0,3.27.46,4.34,1.37s1.61,2.2,1.61,3.86v6.41c0,1.4.21,2.47.59,3.19v.23h-3.99Zm-3.27-2.75c.58,0,1.12-.13,1.61-.39s.86-.61,1.09-1.05v-2.54h-1.48c-1.98,0-3.03.68-3.16,2.05v.23c-.01.49.16.9.51,1.22.35.32.82.48,1.42.48Z" fill="#231e20"/><path d="m500.29,58.06c0,2.28-.52,4.1-1.55,5.48-1.03,1.37-2.43,2.06-4.19,2.06-1.5,0-2.7-.52-3.62-1.56v6.97h-3.95v-20.48h3.66l.14,1.45c.96-1.15,2.21-1.72,3.75-1.72,1.82,0,3.24.67,4.25,2.02,1.01,1.35,1.52,3.21,1.52,5.58v.21Zm-3.95-.29c0-1.38-.24-2.44-.73-3.19-.49-.75-1.2-1.12-2.13-1.12-1.24,0-2.09.47-2.56,1.42v6.06c.48.98,1.34,1.46,2.58,1.46,1.89,0,2.83-1.54,2.83-4.63Z" fill="#231e20"/><path d="m509.54,65.6c-2.17,0-3.94-.67-5.3-2-1.36-1.33-2.04-3.1-2.04-5.32v-.38c0-1.49.29-2.81.86-3.99.57-1.17,1.39-2.07,2.44-2.71,1.05-.63,2.25-.95,3.6-.95,2.02,0,3.62.64,4.78,1.91,1.16,1.28,1.74,3.09,1.74,5.43v1.61h-9.42c.13.97.51,1.74,1.16,2.32.64.58,1.46.88,2.44.88,1.52,0,2.71-.55,3.57-1.65l1.94,2.17c-.59.84-1.39,1.49-2.41,1.96s-2.13.7-3.36.7Zm-.45-12.15c-.78,0-1.42.27-1.91.8-.49.53-.8,1.29-.94,2.28h5.5v-.32c-.02-.88-.25-1.56-.71-2.04-.46-.48-1.1-.72-1.94-.72Z" fill="#231e20"/><path d="m524.82,46.7c0-.59.2-1.08.59-1.46s.94-.57,1.62-.57,1.21.19,1.61.57.6.87.6,1.46-.2,1.09-.61,1.48-.94.57-1.61.57-1.2-.19-1.61-.57-.61-.88-.61-1.48Zm4.2,18.62h-3.96v-14.79h3.96v14.79Z" fill="#231e20"/><path d="m535.9,50.53l.12,1.71c1.06-1.32,2.47-1.98,4.25-1.98,1.57,0,2.73.46,3.5,1.38.77.92,1.16,2.3,1.18,4.13v9.56h-3.95v-9.46c0-.84-.18-1.45-.55-1.83-.36-.38-.97-.57-1.82-.57-1.11,0-1.95.47-2.5,1.42v10.43h-3.95v-14.79h3.72Z" fill="#231e20"/><path d="m569.34,48.74h-6.1v16.58h-4.1v-16.58h-6.02v-3.32h16.21v3.32Z" fill="#231e20"/><path d="m577.7,65.32c-.18-.36-.31-.8-.4-1.33-.96,1.07-2.2,1.6-3.73,1.6-1.45,0-2.65-.42-3.6-1.26-.95-.84-1.43-1.9-1.43-3.17,0-1.57.58-2.77,1.74-3.61,1.16-.84,2.84-1.26,5.04-1.27h1.82v-.85c0-.68-.18-1.23-.53-1.64s-.9-.62-1.66-.62c-.67,0-1.19.16-1.57.48-.38.32-.57.76-.57,1.31h-3.95c0-.86.26-1.65.79-2.38.53-.73,1.28-1.3,2.24-1.72.97-.41,2.05-.62,3.25-.62,1.82,0,3.27.46,4.34,1.37s1.61,2.2,1.61,3.86v6.41c0,1.4.21,2.47.59,3.19v.23h-3.99Zm-3.27-2.75c.58,0,1.12-.13,1.61-.39s.86-.61,1.09-1.05v-2.54h-1.48c-1.98,0-3.03.68-3.16,2.05v.23c-.01.49.16.9.51,1.22.35.32.82.48,1.42.48Z" fill="#231e20"/><path d="m592.45,54.23c-.54-.07-1.01-.11-1.42-.11-1.5,0-2.47.51-2.94,1.52v9.68h-3.95v-14.79h3.73l.11,1.76c.79-1.36,1.89-2.04,3.29-2.04.44,0,.85.06,1.23.18l-.05,3.8Z" fill="#231e20"/><path d="m602.51,65.32c-.18-.36-.31-.8-.4-1.33-.96,1.07-2.2,1.6-3.73,1.6-1.45,0-2.65-.42-3.6-1.26-.95-.84-1.43-1.9-1.43-3.17,0-1.57.58-2.77,1.74-3.61,1.16-.84,2.84-1.26,5.04-1.27h1.82v-.85c0-.68-.18-1.23-.53-1.64s-.9-.62-1.66-.62c-.67,0-1.19.16-1.57.48-.38.32-.57.76-.57,1.31h-3.95c0-.86.26-1.65.79-2.38.53-.73,1.28-1.3,2.24-1.72.97-.41,2.05-.62,3.25-.62,1.82,0,3.27.46,4.34,1.37s1.61,2.2,1.61,3.86v6.41c0,1.4.21,2.47.59,3.19v.23h-3.99Zm-3.27-2.75c.58,0,1.12-.13,1.61-.39s.86-.61,1.09-1.05v-2.54h-1.48c-1.98,0-3.03.68-3.16,2.05v.23c-.01.49.16.9.51,1.22.35.32.82.48,1.42.48Z" fill="#231e20"/><path d="m610.96,46.33l-.4,5.52h-2.5v-7.53h2.9v2.01Z" fill="#231e20"/><path d="m620,61.23c0-.48-.24-.86-.72-1.14-.48-.28-1.25-.53-2.3-.75-3.52-.74-5.28-2.23-5.28-4.48,0-1.31.54-2.41,1.63-3.29,1.09-.88,2.51-1.32,4.27-1.32,1.88,0,3.38.44,4.5,1.33,1.13.88,1.69,2.03,1.69,3.45h-3.95c0-.56-.18-1.03-.55-1.4s-.93-.55-1.71-.55c-.67,0-1.18.15-1.54.45s-.55.68-.55,1.15c0,.44.21.79.62,1.06.42.27,1.11.5,2.1.7.98.2,1.81.42,2.49.66,2.09.77,3.13,2.09,3.13,3.98,0,1.35-.58,2.44-1.74,3.27s-2.65,1.25-4.48,1.25c-1.24,0-2.34-.22-3.3-.66s-1.72-1.05-2.26-1.82c-.55-.77-.82-1.6-.82-2.5h3.75c.04.7.3,1.24.78,1.61.48.37,1.13.56,1.94.56.76,0,1.33-.14,1.72-.43s.58-.66.58-1.13Z" fill="#231e20"/><path d="m649.82,65.32h-4.1v-8.53h-8v8.53h-4.1v-19.91h4.1v8.07h8v-8.07h4.1v19.91Z" fill="#231e20"/><path d="m652.52,57.79c0-1.47.28-2.78.85-3.92s1.38-2.04,2.44-2.67,2.29-.94,3.7-.94c2,0,3.62.61,4.89,1.83,1.26,1.22,1.97,2.88,2.11,4.98l.03,1.01c0,2.27-.63,4.09-1.9,5.46-1.27,1.37-2.97,2.06-5.1,2.06s-3.83-.68-5.11-2.05-1.91-3.23-1.91-5.58v-.18Zm3.95.28c0,1.41.26,2.48.79,3.22.53.74,1.29,1.12,2.27,1.12s1.7-.37,2.24-1.1c.54-.73.81-1.91.81-3.53,0-1.38-.27-2.45-.81-3.2-.54-.76-1.29-1.14-2.27-1.14s-1.71.38-2.24,1.13c-.53.75-.79,1.92-.79,3.5Z" fill="#231e20"/><path d="m672.68,50.53l.12,1.65c1.05-1.29,2.47-1.93,4.25-1.93,1.91,0,3.21.75,3.92,2.26,1.04-1.5,2.52-2.26,4.44-2.26,1.6,0,2.8.47,3.58,1.4.78.93,1.18,2.34,1.18,4.22v9.45h-3.96v-9.43c0-.84-.16-1.45-.49-1.84-.33-.39-.91-.58-1.74-.58-1.18,0-2,.57-2.46,1.7v10.16s-3.94,0-3.94,0v-9.42c0-.86-.17-1.48-.51-1.86s-.91-.57-1.72-.57c-1.12,0-1.93.46-2.43,1.39v10.46h-3.95v-14.79h3.71Z" fill="#231e20"/><path d="m700.02,65.6c-2.17,0-3.94-.67-5.3-2-1.36-1.33-2.04-3.1-2.04-5.32v-.38c0-1.49.29-2.81.86-3.99.57-1.17,1.39-2.07,2.44-2.71,1.05-.63,2.25-.95,3.6-.95,2.02,0,3.62.64,4.78,1.91,1.16,1.28,1.74,3.09,1.74,5.43v1.61h-9.42c.13.97.51,1.74,1.16,2.32.64.58,1.46.88,2.44.88,1.52,0,2.71-.55,3.57-1.65l1.94,2.17c-.59.84-1.39,1.49-2.41,1.96s-2.13.7-3.36.7Zm-.45-12.15c-.78,0-1.42.27-1.91.8-.49.53-.8,1.29-.94,2.28h5.5v-.32c-.02-.88-.25-1.56-.71-2.04-.46-.48-1.1-.72-1.94-.72Z" fill="#231e20"/><path d="m713.08,46.89v3.64h2.53v2.9h-2.53v7.38c0,.55.1.94.31,1.18.21.24.61.36,1.2.36.44,0,.83-.03,1.16-.1v2.99c-.77.24-1.57.36-2.39.36-2.77,0-4.18-1.4-4.24-4.2v-7.97h-2.16v-2.9h2.16v-3.64h3.95Z" fill="#231e20"/><path d="m716.78,57.79c0-1.47.28-2.78.85-3.92s1.38-2.04,2.44-2.67,2.29-.94,3.7-.94c2,0,3.62.61,4.89,1.83,1.26,1.22,1.97,2.88,2.11,4.98l.03,1.01c0,2.27-.63,4.09-1.9,5.46-1.27,1.37-2.97,2.06-5.1,2.06s-3.83-.68-5.11-2.05-1.91-3.23-1.91-5.58v-.18Zm3.95.28c0,1.41.26,2.48.79,3.22.53.74,1.29,1.12,2.27,1.12s1.7-.37,2.24-1.1c.54-.73.81-1.91.81-3.53,0-1.38-.27-2.45-.81-3.2-.54-.76-1.29-1.14-2.27-1.14s-1.71.38-2.24,1.13c-.53.75-.79,1.92-.79,3.5Z" fill="#231e20"/><path d="m746.09,59.95l1.94-9.42h3.81l-3.77,14.79h-3.31l-2.8-9.31-2.8,9.31h-3.29l-3.77-14.79h3.81l1.93,9.41,2.71-9.41h2.86l2.69,9.42Z" fill="#231e20"/><path d="m757.44,50.53l.12,1.71c1.06-1.32,2.47-1.98,4.25-1.98,1.57,0,2.73.46,3.5,1.38.77.92,1.16,2.3,1.18,4.13v9.56h-3.95v-9.46c0-.84-.18-1.45-.55-1.83-.36-.38-.97-.57-1.82-.57-1.11,0-1.95.47-2.5,1.42v10.43h-3.95v-14.79h3.72Z" fill="#231e20"/><rect x="-3" y="322" width="1157" height="25" fill="#bcc1bf"/><line x1="30.67" y1="322" x2="30.67" y2="342" fill="none" stroke="#d8e0de" stroke-miterlimit="10" stroke-width="2"/><line x1="97.38" y1="322" x2="97.38" y2="342" fill="none" stroke="#d8e0de" stroke-miterlimit="10" stroke-width="2"/><line x1="164.09" y1="322" x2="164.09" y2="342" fill="none" stroke="#d8e0de" stroke-miterlimit="10" stroke-width="2"/><line x1="230.8" y1="322" x2="230.8" y2="342" fill="none" stroke="#d8e0de" stroke-miterlimit="10" stroke-width="2"/><line x1="297.5" y1="322" x2="297.5" y2="342" fill="none" stroke="#d8e0de" stroke-miterlimit="10" stroke-width="2"/><line x1="364.21" y1="322" x2="364.21" y2="342" fill="none" stroke="#d8e0de" stroke-miterlimit="10" stroke-width="2"/><line x1="430.92" y1="322" x2="430.92" y2="342" fill="none" stroke="#d8e0de" stroke-miterlimit="10" stroke-width="2"/><line x1="497.63" y1="322" x2="497.63" y2="342" fill="none" stroke="#d8e0de" stroke-miterlimit="10" stroke-width="2"/><line x1="564.34" y1="322" x2="564.34" y2="342" fill="none" stroke="#d8e0de" stroke-miterlimit="10" stroke-width="2"/><line x1="631.04" y1="322" x2="631.04" y2="342" fill="none" stroke="#d8e0de" stroke-miterlimit="10" stroke-width="2"/><line x1="697.75" y1="322" x2="697.75" y2="342" fill="none" stroke="#d8e0de" stroke-miterlimit="10" stroke-width="2"/><line x1="764.46" y1="322" x2="764.46" y2="342" fill="none" stroke="#d8e0de" stroke-miterlimit="10" stroke-width="2"/><line x1="831.17" y1="322" x2="831.17" y2="342" fill="none" stroke="#d8e0de" stroke-miterlimit="10" stroke-width="2"/><line x1="897.88" y1="322" x2="897.88" y2="342" fill="none" stroke="#d8e0de" stroke-miterlimit="10" stroke-width="2"/><line x1="964.58" y1="322" x2="964.58" y2="342" fill="none" stroke="#d8e0de" stroke-miterlimit="10" stroke-width="2"/><line x1="1031.29" y1="322" x2="1031.29" y2="342" fill="none" stroke="#d8e0de" stroke-miterlimit="10" stroke-width="2"/><line x1="1098" y1="322" x2="1098" y2="342" fill="none" stroke="#d8e0de" stroke-miterlimit="10" stroke-width="2"/><polygon points="167.81 216.67 173.23 259.65 173.09 323.1 143.79 323.15 137.61 321.32 85.99 321.32 81.27 323.15 52.55 322.42 52.37 219.07 167.81 216.67" fill="#b5a59c"/><rect x="82.48" y="245.79" width="61.31" height="77" fill="#ad7d64"/><line x1="143.72" y1="311.04" x2="173.2" y2="311.09" fill="none" stroke="#af795d" stroke-miterlimit="10" stroke-width="1.94"/><line x1="144.33" y1="308.55" x2="144.96" y2="251.7" fill="none" stroke="#b5a59c" stroke-miterlimit="10" stroke-width="2"/><polygon points="97.44 307.21 52.66 307.31 52.28 244.39 98.17 243.46 97.44 307.21" fill="#fffbe1"/><polygon points="128.53 307.21 173.31 307.31 173.69 244.39 127.8 243.46 128.53 307.21" fill="#fffbe1"/><line x1="82.78" y1="310.92" x2="52.52" y2="310.87" fill="none" stroke="#af795d" stroke-miterlimit="10" stroke-width="2"/><line x1="81.72" y1="308.55" x2="81.24" y2="252.59" fill="none" stroke="#b5a59c" stroke-miterlimit="10" stroke-width="2"/><line x1="144.3" y1="308.55" x2="143.82" y2="252.59" fill="none" stroke="#b5a59c" stroke-miterlimit="10" stroke-width="2"/><path d="m122.9,264.92h-20.38c0-4.52,4.56-8.19,10.19-8.19s10.19,3.67,10.19,8.19Z" fill="#c7dee2"/><path d="m112.9,265.08c-.99-.7-.83-1.39-.94-2.09-.08-.7-.12-1.39-.12-2.09,0-.7.06-1.39.13-2.09.08-.7.01-1.39.93-2.09h.29c.91.7.85,1.39.93,2.09.08.7.13,1.39.13,2.09,0,.7-.04,1.39-.12,2.09-.1.7.05,1.39-.94,2.09h-.29Z" fill="#fff"/><path d="m113.29,264.8c-.06-1.22.6-1.54,1.09-2.06.51-.5,1.04-.98,1.6-1.42.56-.44,1.15-.84,1.76-1.22.61-.38,1.12-.87,2.25-.6l.18.23c0,1.16-.59,1.55-1.1,2.05-.51.5-1.03.99-1.59,1.43-.56.44-1.14.85-1.75,1.23-.62.36-1.08.92-2.25.59l-.18-.23h0Z" fill="#fff"/><path d="m105.15,259.72c1.2-.41,1.78.14,2.5.48.71.35,1.4.74,2.06,1.16.66.42,1.3.89,1.92,1.38.62.49,1.32.85,1.5,2.05l-.16.25c-1.16.35-1.78-.13-2.49-.49-.71-.36-1.4-.73-2.07-1.15-.66-.42-1.31-.88-1.93-1.37-.61-.51-1.36-.8-1.49-2.06l.16-.25h0Z" fill="#fff"/><rect x="101" y="266.53" width="23.58" height="56.47" fill="#915f49"/><rect x="102.53" y="297.98" width="20.6" height="18.38" fill="#c7dee2"/><rect x="102.53" y="268.98" width="20.6" height="26.54" fill="#c7dee2"/><path d="m102.52,291.03h1.52v10.8h-1.72s-.17-11.2.2-10.8Z" fill="#b5a59c"/><path d="m98.48,309.67c1.01,1.04.87,2.1.99,3.16.1,1.06.16,2.11.18,3.17.02,1.06-.02,2.12-.08,3.18-.06,1.06.03,2.12-.87,3.19h-.29c-.93-1.04-.88-2.1-.98-3.15-.1-1.06-.17-2.11-.19-3.17-.02-1.06,0-2.12.07-3.18.08-1.06-.09-2.11.88-3.19h.29Z" fill="#c2bdb2"/><path d="m127.82,323.97c-.99-1.27-.83-2.54-.94-3.82-.08-1.27-.12-2.54-.12-3.82,0-1.27.06-2.54.13-3.82.08-1.27.01-2.54.93-3.82h.29c.91,1.27.85,2.54.93,3.82.08,1.27.13,2.54.13,3.82,0,1.27-.04,2.54-.12,3.82-.1,1.27.05,2.54-.94,3.82h-.29Z" fill="#c2bdb2"/><path d="m48.74,253.75l126.41-.43.39-6.02c.61-9.45-7.09-32.54-7.09-32.54l-116.81.16-2.89,27.86v10.96Z" fill="#3c8875"/><g clip-path="url(#k)"><rect x="45.46" y="243.11" width="131.73" height="11.41" fill="#59ad95"/></g><rect x="-3" y="340" width="1157" height="14" fill="#77747a"/><rect x="236.36" y="229.52" width="5.1" height="93.62" fill="#afafaf"/><rect x="233.81" y="224.51" width="10.2" height="50.17" fill="#fff"/><rect x="233.92" y="224.63" width="9.98" height="8.28" fill="#e01633"/><path d="m243.79,224.74v8.06h-9.76v-8.06h9.76m.22-.22h-10.2v8.5h10.2v-8.5h0Z" fill="#e01633"/><rect x="233.92" y="266.29" width="9.98" height="8.28" fill="#e01633"/><path d="m243.79,266.4v8.06h-9.76v-8.06h9.76m.22-.22h-10.2v8.5h10.2v-8.5h0Z" fill="#e01633"/><rect x="235.51" y="256.83" width="6.8" height="7.65" rx="2.96" ry="2.96" fill="#058dbd"/><rect x="235.51" y="234.72" width="6.8" height="7.65" rx="1.18" ry="1.18" fill="#212628"/><rect x="236.36" y="241.52" width=".85" height="1.7" rx=".43" ry=".43" fill="#212628"/><rect x="240.62" y="241.52" width=".85" height="1.7" rx=".43" ry=".43" fill="#212628"/><rect x="236.36" y="236.42" width="5.1" height="3.4" fill="#fff"/><polygon points="466.43 198.81 600.68 197.63 605.35 323.08 599.56 323.08 535.37 322.22 466.83 322.38 466.43 198.81" fill="#77747a"/><polygon points="505.05 203.04 564.75 203.04 564.96 231.12 505.05 231.56 505.05 203.04" fill="#bcc1bf"/><polygon points="490 235.02 506.29 235.42 506.26 310.39 490.08 310.39 490 235.02" fill="#c7dee2"/><polygon points="469.73 235.02 486.01 235.42 485.99 310.39 469.8 310.39 469.73 235.02" fill="#c7dee2"/><polygon points="582.68 235.02 598.97 235.42 598.94 310.39 582.76 310.39 582.68 235.02" fill="#c7dee2"/><polygon points="562.41 235.02 578.69 235.42 578.67 310.39 562.48 310.39 562.41 235.02" fill="#c7dee2"/><rect x="459.19" y="194.21" width="8.77" height="128.82" fill="#77747a"/><rect x="599.8" y="194.33" width="8.77" height="128.82" fill="#77747a"/><line x1="599.58" y1="197.63" x2="599.58" y2="323.15" fill="none" stroke="#333c3f" stroke-miterlimit="10" stroke-width="2"/><line x1="468.4" y1="199.16" x2="468.4" y2="322.29" fill="none" stroke="#333c3f" stroke-miterlimit="10" stroke-width="2"/><rect x="510.54" y="242.68" width="47.62" height="79.93" fill="#48454c"/><rect x="513.94" y="246.08" width="40.81" height="14.45" fill="#c7dee2"/><rect x="513.94" y="263.08" width="19.56" height="54.42" fill="#c7dee2"/><rect x="536.05" y="263.08" width="19.56" height="54.42" fill="#c7dee2"/><rect x="531.8" y="287.74" width="2.55" height="8.5" fill="#212628"/><rect x="535.2" y="287.74" width="2.55" height="8.5" fill="#212628"/><polygon points="614.84 187.07 760.21 185.77 765.28 324.07 759 324.07 689.49 323.13 615.28 323.3 614.84 187.07" fill="#f6d9a0"/><rect x="617" y="225" width="142" height="99" fill="#e59617"/><polygon points="658.05 194.04 717.75 194.04 717.96 222.12 658.05 222.56 658.05 194.04" fill="#dc3d46"/><polygon points="623 253 658 253.3 657.95 311.39 623.16 311.39 623 253" fill="#c7dee2"/><polygon points="718 253 754 253.3 753.95 311.39 718.16 311.39 718 253" fill="#c7dee2"/><polygon points="623 238 658 238.06 657.95 249.39 623.16 249.39 623 238" fill="#c7dee2"/><polygon points="718 238 754 238.06 753.95 249.39 718.16 249.39 718 238" fill="#c7dee2"/><rect x="607" y="182" width="9.5" height="142.02" fill="#f6d9a0"/><rect x="759.26" y="182.13" width="9.5" height="142.02" fill="#f6d9a0"/><line x1="759.02" y1="185.77" x2="759.02" y2="324.15" fill="none" stroke="#e59617" stroke-miterlimit="10" stroke-width="2"/><rect x="664.16" y="244.14" width="47.62" height="79.93" fill="#fffbe1"/><rect x="667.56" y="247.54" width="40.81" height="14.45" fill="#c7dee2"/><rect x="667.56" y="264.55" width="19.56" height="54.42" fill="#c7dee2"/><rect x="689.67" y="264.55" width="19.56" height="54.42" fill="#c7dee2"/><rect x="685.42" y="289.21" width="2.55" height="8.5" fill="#212628"/><rect x="688.82" y="289.21" width="2.55" height="8.5" fill="#212628"/><line x1="616.98" y1="187.46" x2="616.98" y2="323.2" fill="none" stroke="#e59617" stroke-miterlimit="10" stroke-width="2"/><polygon points="1108.7 184.81 1094.28 184.81 1094.29 188.73 905.13 188.96 905.64 184.81 890.23 184.81 889.3 323.15 1098 322.68 1109.59 322.75 1108.7 184.81" fill="#ccbfb0"/><path d="m1030.16,262.51h-55.09c5.82-8.67,15.98-14.4,27.54-14.4s21.72,5.74,27.54,14.4Z" fill="#802523"/><rect x="972.93" y="262.96" width="5.99" height="59.73" fill="#802523"/><rect x="1025.97" y="262.96" width="5.99" height="59.73" fill="#802523"/><rect x="967.33" y="262.06" width="70.58" height="4.53" fill="#802523"/><polyline points="1110 194.03 1099.95 194.03 1099.95 187.19 1110 187.19" fill="none" stroke="#b5a59c" stroke-miterlimit="10" stroke-width="2"/><polyline points="1110 203.87 1099.95 203.87 1099.95 197.03 1110 197.03" fill="none" stroke="#b5a59c" stroke-miterlimit="10" stroke-width="2"/><polyline points="1110 213.71 1099.95 213.71 1099.95 206.86 1110 206.86" fill="none" stroke="#b5a59c" stroke-miterlimit="10" stroke-width="2"/><polyline points="1110 223.95 1099.95 223.95 1099.95 217.11 1110 217.11" fill="none" stroke="#b5a59c" stroke-miterlimit="10" stroke-width="2"/><polyline points="1110 233.79 1099.95 233.79 1099.95 226.94 1110 226.94" fill="none" stroke="#b5a59c" stroke-miterlimit="10" stroke-width="2"/><polyline points="1110 243.63 1099.95 243.63 1099.95 236.78 1110 236.78" fill="none" stroke="#b5a59c" stroke-miterlimit="10" stroke-width="2"/><polyline points="1110 253.46 1099.95 253.46 1099.95 246.62 1110 246.62" fill="none" stroke="#b5a59c" stroke-miterlimit="10" stroke-width="2"/><polyline points="1110 263.3 1099.95 263.3 1099.95 256.46 1110 256.46" fill="none" stroke="#b5a59c" stroke-miterlimit="10" stroke-width="2"/><polyline points="1110 273.14 1099.95 273.14 1099.95 266.3 1110 266.3" fill="none" stroke="#b5a59c" stroke-miterlimit="10" stroke-width="2"/><polyline points="1110 282.98 1099.95 282.98 1099.95 276.13 1110 276.13" fill="none" stroke="#b5a59c" stroke-miterlimit="10" stroke-width="2"/><polyline points="1110 293.03 1099.95 293.03 1099.95 286.19 1110 286.19" fill="none" stroke="#b5a59c" stroke-miterlimit="10" stroke-width="2"/><polyline points="1110 302.87 1099.95 302.87 1099.95 296.03 1110 296.03" fill="none" stroke="#b5a59c" stroke-miterlimit="10" stroke-width="2"/><polyline points="1110 312.71 1099.95 312.71 1099.95 305.86 1110 305.86" fill="none" stroke="#b5a59c" stroke-miterlimit="10" stroke-width="2"/><polyline points="1110 322.55 1099.95 322.55 1099.95 315.7 1110 315.7" fill="none" stroke="#b5a59c" stroke-miterlimit="10" stroke-width="2"/><polyline points="888.91 195.17 898.96 195.17 898.96 188.33 888.91 188.33" fill="none" stroke="#b5a59c" stroke-miterlimit="10" stroke-width="2"/><polyline points="888.91 205.01 898.96 205.01 898.96 198.16 888.91 198.16" fill="none" stroke="#b5a59c" stroke-miterlimit="10" stroke-width="2"/><polyline points="888.91 214.85 898.96 214.85 898.96 208 888.91 208" fill="none" stroke="#b5a59c" stroke-miterlimit="10" stroke-width="2"/><polyline points="888.91 224.68 898.96 224.68 898.96 217.84 888.91 217.84" fill="none" stroke="#b5a59c" stroke-miterlimit="10" stroke-width="2"/><polyline points="888.91 234.52 898.96 234.52 898.96 227.68 888.91 227.68" fill="none" stroke="#b5a59c" stroke-miterlimit="10" stroke-width="2"/><polyline points="888.91 243.86 898.96 243.86 898.96 237.02 888.91 237.02" fill="none" stroke="#b5a59c" stroke-miterlimit="10" stroke-width="2"/><polyline points="888.91 253.7 898.96 253.7 898.96 246.85 888.91 246.85" fill="none" stroke="#b5a59c" stroke-miterlimit="10" stroke-width="2"/><polyline points="888.91 263.54 898.96 263.54 898.96 256.69 888.91 256.69" fill="none" stroke="#b5a59c" stroke-miterlimit="10" stroke-width="2"/><polyline points="888.91 273.37 898.96 273.37 898.96 266.53 888.91 266.53" fill="none" stroke="#b5a59c" stroke-miterlimit="10" stroke-width="2"/><polyline points="888.91 283.21 898.96 283.21 898.96 276.37 888.91 276.37" fill="none" stroke="#b5a59c" stroke-miterlimit="10" stroke-width="2"/><polyline points="888.91 293.05 898.96 293.05 898.96 286.21 888.91 286.21" fill="none" stroke="#b5a59c" stroke-miterlimit="10" stroke-width="2"/><polyline points="888.91 302.89 898.96 302.89 898.96 296.04 888.91 296.04" fill="none" stroke="#b5a59c" stroke-miterlimit="10" stroke-width="2"/><polyline points="888.91 312.88 898.96 312.88 898.96 306.03 888.91 306.03" fill="none" stroke="#b5a59c" stroke-miterlimit="10" stroke-width="2"/><polyline points="888.91 322.72 898.96 322.72 898.96 315.87 888.91 315.87" fill="none" stroke="#b5a59c" stroke-miterlimit="10" stroke-width="2"/><rect x="928.28" y="260.67" width="24.95" height="39.84" fill="#fffbe1"/><rect x="924.92" y="259.18" width="31.65" height="5.96" fill="#a0897d"/><rect x="930.43" y="267.39" width="9.41" height="6.09" fill="#a5c3c9"/><rect x="941.98" y="267.39" width="9.41" height="6.09" fill="#a5c3c9"/><rect x="930.43" y="274.81" width="9.41" height="6.09" fill="#a5c3c9"/><rect x="941.98" y="274.81" width="9.41" height="6.09" fill="#a5c3c9"/><rect x="930.49" y="282.42" width="21.01" height="17.1" fill="#a5c3c9"/><rect x="924.92" y="299.4" width="31.65" height="2.25" fill="#a0897d"/><rect x="930.29" y="280.56" width="21.13" height="2.19" fill="#fffbe1"/><rect x="1053.16" y="260.67" width="24.95" height="39.84" fill="#fffbe1"/><rect x="1049.81" y="259.18" width="31.65" height="5.96" fill="#a0897d"/><rect x="1055.32" y="267.39" width="9.41" height="6.09" fill="#a5c3c9"/><rect x="1066.87" y="267.39" width="9.41" height="6.09" fill="#a5c3c9"/><rect x="1055.32" y="274.81" width="9.41" height="6.09" fill="#a5c3c9"/><rect x="1066.87" y="274.81" width="9.41" height="6.09" fill="#a5c3c9"/><rect x="1055.38" y="282.42" width="21.01" height="17.1" fill="#a5c3c9"/><rect x="1049.81" y="299.4" width="31.65" height="2.25" fill="#a0897d"/><rect x="1055.18" y="280.56" width="21.13" height="2.19" fill="#fffbe1"/><rect x="981.49" y="269.68" width="9.99" height="52.18" fill="#fffbe1"/><rect x="994.49" y="269.68" width="28.92" height="52.18" fill="#fffbe1"/><rect x="997.11" y="271.98" width="23.31" height="41.53" fill="#a5c3c9"/><rect x="982.9" y="271.3" width="7.16" height="48.53" fill="#a5c3c9"/><rect x="993.72" y="288.51" width="2.12" height="11.87" fill="#b5a59c"/><line x1="906.12" y1="198.16" x2="1093.74" y2="198.16" fill="none" stroke="#b5a59c" stroke-miterlimit="10" stroke-width="2"/><rect x="934.55" y="214.4" width="141.55" height="31.05" fill="#a0897d"/><path d="m947.13,203.92v-10.18c0-.94.76-1.69,1.69-1.69h.68c.62,0,1.19.34,1.48.88l4.65,8.43" fill="none" stroke="#6d4f4f" stroke-miterlimit="10" stroke-width="2"/><circle cx="955.74" cy="201.83" r="1.79" fill="#6d4f4f"/><rect x="944.74" y="202.63" width="4.77" height="11" rx="2.38" ry="2.38" fill="#dc3d46"/><path d="m956.41,215.39c.06-.26.09-.52.09-.79,0-3.27-4.22-5.93-9.43-5.93s-9.43,2.65-9.43,5.93c0,.27.04.53.09.79h18.68Z" fill="#dc3d46"/><path d="m984.43,203.92v-10.18c0-.94.76-1.69,1.69-1.69h.68c.62,0,1.19.34,1.48.88l4.65,8.43" fill="none" stroke="#6d4f4f" stroke-miterlimit="10" stroke-width="2"/><circle cx="993.04" cy="201.83" r="1.79" fill="#6d4f4f"/><rect x="982.04" y="202.63" width="4.77" height="11" rx="2.38" ry="2.38" fill="#dc3d46"/><path d="m993.71,215.39c.06-.26.09-.52.09-.79,0-3.27-4.22-5.93-9.43-5.93s-9.43,2.65-9.43,5.93c0,.27.04.53.09.79h18.68Z" fill="#dc3d46"/><path d="m1021.72,203.92v-10.18c0-.94.76-1.69,1.69-1.69h.68c.62,0,1.19.34,1.48.88l4.65,8.43" fill="none" stroke="#6d4f4f" stroke-miterlimit="10" stroke-width="2"/><circle cx="1030.34" cy="201.83" r="1.79" fill="#6d4f4f"/><rect x="1019.34" y="202.63" width="4.77" height="11" rx="2.38" ry="2.38" fill="#dc3d46"/><path d="m1031,215.39c.06-.26.09-.52.09-.79,0-3.27-4.22-5.93-9.43-5.93s-9.43,2.65-9.43,5.93c0,.27.04.53.09.79h18.68Z" fill="#dc3d46"/><path d="m1059.02,203.92v-10.18c0-.94.76-1.69,1.69-1.69h.68c.62,0,1.19.34,1.48.88l4.65,8.43" fill="none" stroke="#6d4f4f" stroke-miterlimit="10" stroke-width="2"/><circle cx="1067.64" cy="201.83" r="1.79" fill="#6d4f4f"/><rect x="1056.63" y="202.63" width="4.77" height="11" rx="2.38" ry="2.38" fill="#dc3d46"/><path d="m1068.3,215.39c.06-.26.09-.52.09-.79,0-3.27-4.22-5.93-9.43-5.93s-9.43,2.65-9.43,5.93c0,.27.04.53.09.79h18.68Z" fill="#dc3d46"/><rect x="942.7" y="217.39" width="125.26" height="25.06" fill="#fffbe1"/><path d="m59.78,171.59c-.21,1.8-.88,3.2-2,4.18s-2.61,1.47-4.47,1.47c-2.02,0-3.63-.72-4.85-2.17s-1.82-3.38-1.82-5.8v-1.64c0-1.59.28-2.98.85-4.18s1.37-2.13,2.41-2.77,2.24-.97,3.61-.97c1.81,0,3.27.51,4.36,1.52s1.73,2.41,1.91,4.2h-2.26c-.2-1.36-.62-2.35-1.27-2.96-.65-.61-1.56-.92-2.74-.92-1.44,0-2.56.53-3.38,1.6s-1.22,2.58-1.22,4.54v1.65c0,1.85.39,3.33,1.16,4.42.77,1.09,1.86,1.64,3.25,1.64,1.25,0,2.21-.28,2.88-.85s1.11-1.55,1.33-2.96h2.26Z"/><path d="m61.93,170.54c0-1.24.24-2.36.73-3.35s1.17-1.76,2.04-2.3,1.87-.81,2.98-.81c1.73,0,3.12.6,4.19,1.79s1.6,2.79,1.6,4.77v.15c0,1.23-.24,2.34-.71,3.32s-1.15,1.74-2.03,2.29-1.89.82-3.03.82c-1.72,0-3.11-.6-4.18-1.79s-1.6-2.78-1.6-4.75v-.15Zm2.18.26c0,1.41.33,2.54.98,3.39s1.53,1.28,2.62,1.28,1.98-.43,2.62-1.29.97-2.07.97-3.63c0-1.39-.33-2.52-.99-3.38s-1.54-1.29-2.63-1.29-1.93.43-2.59,1.28-.98,2.07-.98,3.66Z"/><path d="m78.24,164.32l.07,1.59c.97-1.22,2.23-1.83,3.8-1.83,2.68,0,4.03,1.51,4.05,4.54v8.38h-2.17v-8.39c0-.91-.22-1.59-.63-2.03s-1.05-.66-1.92-.66c-.7,0-1.32.19-1.85.56s-.95.87-1.24,1.48v9.04h-2.17v-12.68h2.05Z"/><path d="m93.62,174.06l3.14-9.74h2.21l-4.55,12.68h-1.65l-4.59-12.68h2.21l3.22,9.74Z"/><path d="m106.17,177.23c-1.72,0-3.12-.56-4.2-1.69s-1.62-2.64-1.62-4.53v-.4c0-1.26.24-2.38.72-3.37s1.15-1.76,2.02-2.32,1.8-.84,2.81-.84c1.65,0,2.93.54,3.84,1.63s1.37,2.64,1.37,4.66v.9h-8.59c.03,1.25.4,2.26,1.1,3.03s1.59,1.15,2.67,1.15c.77,0,1.41-.16,1.95-.47s1-.73,1.39-1.24l1.32,1.03c-1.06,1.63-2.66,2.45-4.78,2.45Zm-.27-11.37c-.88,0-1.61.32-2.2.96s-.96,1.53-1.1,2.68h6.35v-.16c-.06-1.1-.36-1.96-.89-2.56s-1.25-.91-2.16-.91Z"/><path d="m115.67,164.32l.07,1.59c.97-1.22,2.23-1.83,3.8-1.83,2.68,0,4.03,1.51,4.05,4.54v8.38h-2.17v-8.39c0-.91-.22-1.59-.63-2.03s-1.05-.66-1.92-.66c-.7,0-1.32.19-1.85.56s-.95.87-1.24,1.48v9.04h-2.17v-12.68h2.05Z"/><path d="m126.88,160.96c0-.35.11-.65.32-.89s.53-.36.96-.36.74.12.96.36.33.54.33.89-.11.64-.33.88-.54.35-.96.35-.74-.12-.96-.35-.32-.53-.32-.88Zm2.34,16.04h-2.17v-12.68h2.17v12.68Z"/><path d="m137.95,177.23c-1.72,0-3.12-.56-4.2-1.69s-1.62-2.64-1.62-4.53v-.4c0-1.26.24-2.38.72-3.37s1.15-1.76,2.02-2.32,1.8-.84,2.81-.84c1.65,0,2.93.54,3.84,1.63s1.37,2.64,1.37,4.66v.9h-8.59c.03,1.25.4,2.26,1.1,3.03s1.59,1.15,2.67,1.15c.77,0,1.41-.16,1.95-.47s1-.73,1.39-1.24l1.32,1.03c-1.06,1.63-2.66,2.45-4.78,2.45Zm-.27-11.37c-.88,0-1.61.32-2.2.96s-.96,1.53-1.1,2.68h6.35v-.16c-.06-1.1-.36-1.96-.89-2.56s-1.25-.91-2.16-.91Z"/><path d="m147.46,164.32l.07,1.59c.97-1.22,2.23-1.83,3.8-1.83,2.68,0,4.03,1.51,4.05,4.54v8.38h-2.17v-8.39c0-.91-.22-1.59-.63-2.03s-1.05-.66-1.92-.66c-.7,0-1.32.19-1.85.56s-.95.87-1.24,1.48v9.04h-2.17v-12.68h2.05Z"/><path d="m163.73,175.46c.77,0,1.45-.23,2.03-.7s.9-1.05.96-1.76h2.05c-.04.73-.29,1.42-.75,2.07s-1.08,1.18-1.85,1.57-1.58.59-2.44.59c-1.73,0-3.1-.58-4.12-1.73s-1.53-2.73-1.53-4.73v-.36c0-1.23.23-2.33.68-3.29s1.1-1.71,1.95-2.24,1.85-.8,3.01-.8c1.42,0,2.6.43,3.54,1.28s1.44,1.96,1.51,3.32h-2.05c-.06-.82-.37-1.49-.93-2.02s-1.25-.79-2.07-.79c-1.1,0-1.96.4-2.56,1.19s-.91,1.94-.91,3.44v.41c0,1.46.3,2.59.9,3.38s1.46,1.18,2.58,1.18Z"/><path d="m176.47,177.23c-1.72,0-3.12-.56-4.2-1.69s-1.62-2.64-1.62-4.53v-.4c0-1.26.24-2.38.72-3.37s1.15-1.76,2.02-2.32,1.8-.84,2.81-.84c1.65,0,2.93.54,3.84,1.63s1.37,2.64,1.37,4.66v.9h-8.59c.03,1.25.4,2.26,1.1,3.03s1.59,1.15,2.67,1.15c.77,0,1.41-.16,1.95-.47s1-.73,1.39-1.24l1.32,1.03c-1.06,1.63-2.66,2.45-4.78,2.45Zm-.27-11.37c-.88,0-1.61.32-2.2.96s-.96,1.53-1.1,2.68h6.35v-.16c-.06-1.1-.36-1.96-.89-2.56s-1.25-.91-2.16-.91Z"/><path d="m95.65,199.64c0-.59-.22-1.04-.66-1.37s-1.21-.6-2.31-.84-1.97-.52-2.61-.84-1.12-.72-1.43-1.17-.46-.99-.46-1.62c0-1.04.44-1.92,1.32-2.64s2-1.08,3.37-1.08c1.44,0,2.6.37,3.5,1.11s1.34,1.69,1.34,2.85h-2.18c0-.59-.25-1.11-.76-1.54s-1.14-.64-1.9-.64-1.41.17-1.85.52-.67.79-.67,1.35c0,.52.21.92.62,1.18s1.16.52,2.24.76,1.96.53,2.63.87,1.17.74,1.49,1.21.49,1.05.49,1.73c0,1.13-.45,2.04-1.36,2.72s-2.08,1.03-3.53,1.03c-1.02,0-1.91-.18-2.7-.54s-1.39-.86-1.83-1.51-.66-1.34-.66-2.09h2.17c.04.73.33,1.3.87,1.73s1.26.64,2.15.64c.82,0,1.48-.17,1.97-.5s.74-.78.74-1.33Z"/><path d="m103.58,187.25v3.07h2.37v1.68h-2.37v7.87c0,.51.11.89.32,1.14.21.25.57.38,1.08.38.25,0,.59-.05,1.03-.14v1.75c-.57.16-1.12.23-1.66.23-.97,0-1.7-.29-2.19-.88s-.74-1.42-.74-2.5v-7.86h-2.31v-1.68h2.31v-3.07h2.17Z"/><path d="m107.67,196.54c0-1.24.24-2.36.73-3.35s1.17-1.76,2.04-2.3,1.87-.81,2.98-.81c1.73,0,3.12.6,4.19,1.79s1.6,2.79,1.6,4.77v.15c0,1.23-.24,2.34-.71,3.32s-1.15,1.74-2.03,2.29-1.89.82-3.03.82c-1.72,0-3.11-.6-4.18-1.79s-1.6-2.78-1.6-4.75v-.15Zm2.18.26c0,1.41.33,2.54.98,3.39s1.53,1.28,2.62,1.28,1.98-.43,2.62-1.29.97-2.07.97-3.63c0-1.39-.33-2.52-.99-3.38s-1.54-1.29-2.63-1.29-1.93.43-2.59,1.28-.98,2.07-.98,3.66Z"/><path d="m128.06,192.27c-.33-.05-.68-.08-1.07-.08-1.42,0-2.39.61-2.89,1.82v9h-2.17v-12.68h2.11l.04,1.46c.71-1.13,1.72-1.7,3.02-1.7.42,0,.74.05.96.16v2.02Z"/><path d="m135.09,203.23c-1.72,0-3.12-.56-4.2-1.69s-1.62-2.64-1.62-4.53v-.4c0-1.26.24-2.38.72-3.37s1.15-1.76,2.02-2.32,1.8-.84,2.81-.84c1.65,0,2.93.54,3.84,1.63s1.37,2.64,1.37,4.66v.9h-8.59c.03,1.25.4,2.26,1.1,3.03s1.59,1.15,2.67,1.15c.77,0,1.41-.16,1.95-.47s1-.73,1.39-1.24l1.32,1.03c-1.06,1.63-2.66,2.45-4.78,2.45Zm-.27-11.37c-.88,0-1.61.32-2.2.96s-.96,1.53-1.1,2.68h6.35v-.16c-.06-1.1-.36-1.96-.89-2.56s-1.25-.91-2.16-.91Z"/><path d="m488.31,154.11h-7.39v6.05h8.59v1.84h-10.84v-17.06h10.72v1.84h-8.47v5.5h7.39v1.84Z"/><path d="m494.32,162h-2.17v-18h2.17v18Z"/><path d="m503.05,162.23c-1.72,0-3.12-.56-4.2-1.69s-1.62-2.64-1.62-4.53v-.4c0-1.26.24-2.38.72-3.37s1.15-1.76,2.02-2.32,1.8-.84,2.81-.84c1.65,0,2.93.54,3.84,1.63s1.37,2.64,1.37,4.66v.9h-8.59c.03,1.25.4,2.26,1.1,3.03s1.59,1.15,2.67,1.15c.77,0,1.41-.16,1.95-.47s1-.73,1.39-1.24l1.32,1.03c-1.06,1.63-2.66,2.45-4.78,2.45Zm-.27-11.37c-.88,0-1.61.32-2.2.96s-.96,1.53-1.1,2.68h6.35v-.16c-.06-1.1-.36-1.96-.89-2.56s-1.25-.91-2.16-.91Z"/><path d="m515.59,160.46c.77,0,1.45-.23,2.03-.7s.9-1.05.96-1.76h2.05c-.04.73-.29,1.42-.75,2.07s-1.08,1.18-1.85,1.57-1.58.59-2.44.59c-1.73,0-3.1-.58-4.12-1.73s-1.53-2.73-1.53-4.73v-.36c0-1.23.23-2.33.68-3.29s1.1-1.71,1.95-2.24,1.85-.8,3.01-.8c1.42,0,2.6.43,3.54,1.28s1.44,1.96,1.51,3.32h-2.05c-.06-.82-.37-1.49-.93-2.02s-1.25-.79-2.07-.79c-1.1,0-1.96.4-2.56,1.19s-.91,1.94-.91,3.44v.41c0,1.46.3,2.59.9,3.38s1.46,1.18,2.58,1.18Z"/><path d="m526.01,146.25v3.07h2.37v1.68h-2.37v7.87c0,.51.11.89.32,1.14.21.25.57.38,1.08.38.25,0,.59-.05,1.03-.14v1.75c-.57.16-1.12.23-1.66.23-.97,0-1.7-.29-2.19-.88s-.74-1.42-.74-2.5v-7.86h-2.31v-1.68h2.31v-3.07h2.17Z"/><path d="m537.04,151.27c-.33-.05-.68-.08-1.07-.08-1.42,0-2.39.61-2.89,1.82v9h-2.17v-12.68h2.11l.04,1.46c.71-1.13,1.72-1.7,3.02-1.7.42,0,.74.05.96.16v2.02Z"/><path d="m538.22,155.54c0-1.24.24-2.36.73-3.35s1.17-1.76,2.04-2.3,1.87-.81,2.98-.81c1.73,0,3.12.6,4.19,1.79s1.6,2.79,1.6,4.77v.15c0,1.23-.24,2.34-.71,3.32s-1.15,1.74-2.03,2.29-1.89.82-3.03.82c-1.72,0-3.11-.6-4.18-1.79s-1.6-2.78-1.6-4.75v-.15Zm2.18.26c0,1.41.33,2.54.98,3.39s1.53,1.28,2.62,1.28,1.98-.43,2.62-1.29.97-2.07.97-3.63c0-1.39-.33-2.52-.99-3.38s-1.54-1.29-2.63-1.29-1.93.43-2.59,1.28-.98,2.07-.98,3.66Z"/><path d="m554.53,149.32l.07,1.59c.97-1.22,2.23-1.83,3.8-1.83,2.68,0,4.03,1.51,4.05,4.54v8.38h-2.17v-8.39c0-.91-.22-1.59-.63-2.03s-1.05-.66-1.92-.66c-.7,0-1.32.19-1.85.56s-.95.87-1.24,1.48v9.04h-2.17v-12.68h2.05Z"/><path d="m565.73,145.96c0-.35.11-.65.32-.89s.53-.36.96-.36.74.12.96.36.33.54.33.89-.11.64-.33.88-.54.35-.96.35-.74-.12-.96-.35-.32-.53-.32-.88Zm2.34,16.04h-2.17v-12.68h2.17v12.68Z"/><path d="m576.63,160.46c.77,0,1.45-.23,2.03-.7s.9-1.05.96-1.76h2.05c-.04.73-.29,1.42-.75,2.07s-1.08,1.18-1.85,1.57-1.58.59-2.44.59c-1.73,0-3.1-.58-4.12-1.73s-1.53-2.73-1.53-4.73v-.36c0-1.23.23-2.33.68-3.29s1.1-1.71,1.95-2.24,1.85-.8,3.01-.8c1.42,0,2.6.43,3.54,1.28s1.44,1.96,1.51,3.32h-2.05c-.06-.82-.37-1.49-.93-2.02s-1.25-.79-2.07-.79c-1.1,0-1.96.4-2.56,1.19s-.91,1.94-.91,3.44v.41c0,1.46.3,2.59.9,3.38s1.46,1.18,2.58,1.18Z"/><path d="m591.49,158.64c0-.59-.22-1.04-.66-1.37s-1.21-.6-2.31-.84-1.97-.52-2.61-.84-1.12-.72-1.43-1.17-.46-.99-.46-1.62c0-1.04.44-1.92,1.32-2.64s2-1.08,3.37-1.08c1.44,0,2.6.37,3.5,1.11s1.34,1.69,1.34,2.85h-2.18c0-.59-.25-1.11-.76-1.54s-1.14-.64-1.9-.64-1.41.17-1.85.52-.67.79-.67,1.35c0,.52.21.92.62,1.18s1.16.52,2.24.76,1.96.53,2.63.87,1.17.74,1.49,1.21.49,1.05.49,1.73c0,1.13-.45,2.04-1.36,2.72s-2.08,1.03-3.53,1.03c-1.02,0-1.91-.18-2.7-.54s-1.39-.86-1.83-1.51-.66-1.34-.66-2.09h2.17c.04.73.33,1.3.87,1.73s1.26.64,2.15.64c.82,0,1.48-.17,1.97-.5s.74-.78.74-1.33Z"/><path d="m517.65,184.64c0-.59-.22-1.04-.66-1.37s-1.21-.6-2.31-.84-1.97-.52-2.61-.84-1.12-.72-1.43-1.17-.46-.99-.46-1.62c0-1.04.44-1.92,1.32-2.64s2-1.08,3.37-1.08c1.44,0,2.6.37,3.5,1.11s1.34,1.69,1.34,2.85h-2.18c0-.59-.25-1.11-.76-1.54s-1.14-.64-1.9-.64-1.41.17-1.85.52-.67.79-.67,1.35c0,.52.21.92.62,1.18s1.16.52,2.24.76,1.96.53,2.63.87,1.17.74,1.49,1.21.49,1.05.49,1.73c0,1.13-.45,2.04-1.36,2.72s-2.08,1.03-3.53,1.03c-1.02,0-1.91-.18-2.7-.54s-1.39-.86-1.83-1.51-.66-1.34-.66-2.09h2.17c.04.73.33,1.3.87,1.73s1.26.64,2.15.64c.82,0,1.48-.17,1.97-.5s.74-.78.74-1.33Z"/><path d="m525.58,172.25v3.07h2.37v1.68h-2.37v7.87c0,.51.11.89.32,1.14.21.25.57.38,1.08.38.25,0,.59-.05,1.03-.14v1.75c-.57.16-1.12.23-1.66.23-.97,0-1.7-.29-2.19-.88s-.74-1.42-.74-2.5v-7.86h-2.31v-1.68h2.31v-3.07h2.17Z"/><path d="m529.67,181.54c0-1.24.24-2.36.73-3.35s1.17-1.76,2.04-2.3,1.87-.81,2.98-.81c1.73,0,3.12.6,4.19,1.79s1.6,2.79,1.6,4.77v.15c0,1.23-.24,2.34-.71,3.32s-1.15,1.74-2.03,2.29-1.89.82-3.03.82c-1.72,0-3.11-.6-4.18-1.79s-1.6-2.78-1.6-4.75v-.15Zm2.18.26c0,1.41.33,2.54.98,3.39s1.53,1.28,2.62,1.28,1.98-.43,2.62-1.29.97-2.07.97-3.63c0-1.39-.33-2.52-.99-3.38s-1.54-1.29-2.63-1.29-1.93.43-2.59,1.28-.98,2.07-.98,3.66Z"/><path d="m550.06,177.27c-.33-.05-.68-.08-1.07-.08-1.42,0-2.39.61-2.89,1.82v9h-2.17v-12.68h2.11l.04,1.46c.71-1.13,1.72-1.7,3.02-1.7.42,0,.74.05.96.16v2.02Z"/><path d="m557.09,188.23c-1.72,0-3.12-.56-4.2-1.69s-1.62-2.64-1.62-4.53v-.4c0-1.26.24-2.38.72-3.37s1.15-1.76,2.02-2.32,1.8-.84,2.81-.84c1.65,0,2.93.54,3.84,1.63s1.37,2.64,1.37,4.66v.9h-8.59c.03,1.25.4,2.26,1.1,3.03s1.59,1.15,2.67,1.15c.77,0,1.41-.16,1.95-.47s1-.73,1.39-1.24l1.32,1.03c-1.06,1.63-2.66,2.45-4.78,2.45Zm-.27-11.37c-.88,0-1.61.32-2.2.96s-.96,1.53-1.1,2.68h6.35v-.16c-.06-1.1-.36-1.96-.89-2.56s-1.25-.91-2.16-.91Z"/><path d="m649.21,149h-2.26v-7.89h-8.6v7.89h-2.25v-17.06h2.25v7.34h8.6v-7.34h2.26v17.06Z"/><path d="m660.69,149c-.12-.25-.23-.7-.3-1.34-1.01,1.05-2.21,1.57-3.61,1.57-1.25,0-2.28-.35-3.08-1.06s-1.2-1.6-1.2-2.69c0-1.32.5-2.35,1.51-3.08s2.42-1.1,4.24-1.1h2.11v-1c0-.76-.23-1.36-.68-1.81s-1.12-.67-2-.67c-.77,0-1.42.2-1.95.59s-.79.86-.79,1.42h-2.18c0-.63.22-1.24.67-1.83s1.06-1.06,1.83-1.4,1.62-.52,2.54-.52c1.46,0,2.61.37,3.43,1.1s1.26,1.74,1.29,3.02v5.84c0,1.16.15,2.09.45,2.78v.19h-2.27Zm-3.6-1.65c.68,0,1.32-.18,1.93-.53s1.05-.81,1.32-1.37v-2.6h-1.7c-2.66,0-3.98.78-3.98,2.33,0,.68.23,1.21.68,1.59s1.04.57,1.75.57Z"/><path d="m672.05,138.27c-.33-.05-.68-.08-1.07-.08-1.42,0-2.39.61-2.89,1.82v9h-2.17v-12.68h2.11l.04,1.46c.71-1.13,1.72-1.7,3.02-1.7.42,0,.74.05.96.16v2.02Z"/><path d="m673.29,142.55c0-1.95.46-3.51,1.38-4.69s2.13-1.78,3.62-1.78,2.66.51,3.53,1.52v-6.61h2.17v18h-1.99l-.11-1.36c-.87,1.06-2.07,1.59-3.62,1.59s-2.67-.6-3.59-1.8-1.39-2.77-1.39-4.71v-.16Zm2.17.25c0,1.44.3,2.56.89,3.38s1.41,1.22,2.46,1.22c1.38,0,2.38-.62,3.01-1.85v-5.82c-.65-1.2-1.64-1.79-2.99-1.79-1.06,0-1.89.41-2.48,1.23s-.89,2.04-.89,3.64Z"/><path d="m698.58,146.01l2.44-9.69h2.17l-3.69,12.68h-1.76l-3.08-9.61-3,9.61h-1.76l-3.68-12.68h2.16l2.5,9.49,2.95-9.49h1.75l3.01,9.69Z"/><path d="m713.21,149c-.12-.25-.23-.7-.3-1.34-1.01,1.05-2.21,1.57-3.61,1.57-1.25,0-2.28-.35-3.08-1.06s-1.2-1.6-1.2-2.69c0-1.32.5-2.35,1.51-3.08s2.42-1.1,4.24-1.1h2.11v-1c0-.76-.23-1.36-.68-1.81s-1.12-.67-2-.67c-.77,0-1.42.2-1.95.59s-.79.86-.79,1.42h-2.18c0-.63.22-1.24.67-1.83s1.06-1.06,1.83-1.4,1.62-.52,2.54-.52c1.46,0,2.61.37,3.43,1.1s1.26,1.74,1.29,3.02v5.84c0,1.16.15,2.09.45,2.78v.19h-2.27Zm-3.6-1.65c.68,0,1.32-.18,1.93-.53s1.05-.81,1.32-1.37v-2.6h-1.7c-2.66,0-3.98.78-3.98,2.33,0,.68.23,1.21.68,1.59s1.04.57,1.75.57Z"/><path d="m724.57,138.27c-.33-.05-.68-.08-1.07-.08-1.42,0-2.39.61-2.89,1.82v9h-2.17v-12.68h2.11l.04,1.46c.71-1.13,1.72-1.7,3.02-1.7.42,0,.74.05.96.16v2.02Z"/><path d="m731.6,149.23c-1.72,0-3.12-.56-4.2-1.69s-1.62-2.64-1.62-4.53v-.4c0-1.26.24-2.38.72-3.37s1.15-1.76,2.02-2.32,1.8-.84,2.81-.84c1.65,0,2.93.54,3.84,1.63s1.37,2.64,1.37,4.66v.9h-8.59c.03,1.25.4,2.26,1.1,3.03s1.59,1.15,2.67,1.15c.77,0,1.41-.16,1.95-.47s1-.73,1.39-1.24l1.32,1.03c-1.06,1.63-2.66,2.45-4.78,2.45Zm-.27-11.37c-.88,0-1.61.32-2.2.96s-.96,1.53-1.1,2.68h6.35v-.16c-.06-1.1-.36-1.96-.89-2.56s-1.25-.91-2.16-.91Z"/><path d="m667.65,171.64c0-.59-.22-1.04-.66-1.37s-1.21-.6-2.31-.84-1.97-.52-2.61-.84-1.12-.72-1.43-1.17-.46-.99-.46-1.62c0-1.04.44-1.92,1.32-2.64s2-1.08,3.37-1.08c1.44,0,2.6.37,3.5,1.11s1.34,1.69,1.34,2.85h-2.18c0-.59-.25-1.11-.76-1.54s-1.14-.64-1.9-.64-1.41.17-1.85.52-.67.79-.67,1.35c0,.52.21.92.62,1.18s1.16.52,2.24.76,1.96.53,2.63.87,1.17.74,1.49,1.21.49,1.05.49,1.73c0,1.13-.45,2.04-1.36,2.72s-2.08,1.03-3.53,1.03c-1.02,0-1.91-.18-2.7-.54s-1.39-.86-1.83-1.51-.66-1.34-.66-2.09h2.17c.04.73.33,1.3.87,1.73s1.26.64,2.15.64c.82,0,1.48-.17,1.97-.5s.74-.78.74-1.33Z"/><path d="m675.58,159.25v3.07h2.37v1.68h-2.37v7.87c0,.51.11.89.32,1.14.21.25.57.38,1.08.38.25,0,.59-.05,1.03-.14v1.75c-.57.16-1.12.23-1.66.23-.97,0-1.7-.29-2.19-.88s-.74-1.42-.74-2.5v-7.86h-2.31v-1.68h2.31v-3.07h2.17Z"/><path d="m679.67,168.54c0-1.24.24-2.36.73-3.35s1.17-1.76,2.04-2.3,1.87-.81,2.98-.81c1.73,0,3.12.6,4.19,1.79s1.6,2.79,1.6,4.77v.15c0,1.23-.24,2.34-.71,3.32s-1.15,1.74-2.03,2.29-1.89.82-3.03.82c-1.72,0-3.11-.6-4.18-1.79s-1.6-2.78-1.6-4.75v-.15Zm2.18.26c0,1.41.33,2.54.98,3.39s1.53,1.28,2.62,1.28,1.98-.43,2.62-1.29.97-2.07.97-3.63c0-1.39-.33-2.52-.99-3.38s-1.54-1.29-2.63-1.29-1.93.43-2.59,1.28-.98,2.07-.98,3.66Z"/><path d="m700.06,164.27c-.33-.05-.68-.08-1.07-.08-1.42,0-2.39.61-2.89,1.82v9h-2.17v-12.68h2.11l.04,1.46c.71-1.13,1.72-1.7,3.02-1.7.42,0,.74.05.96.16v2.02Z"/><path d="m707.09,175.23c-1.72,0-3.12-.56-4.2-1.69s-1.62-2.64-1.62-4.53v-.4c0-1.26.24-2.38.72-3.37s1.15-1.76,2.02-2.32,1.8-.84,2.81-.84c1.65,0,2.93.54,3.84,1.63s1.37,2.64,1.37,4.66v.9h-8.59c.03,1.25.4,2.26,1.1,3.03s1.59,1.15,2.67,1.15c.77,0,1.41-.16,1.95-.47s1-.73,1.39-1.24l1.32,1.03c-1.06,1.63-2.66,2.45-4.78,2.45Zm-.27-11.37c-.88,0-1.61.32-2.2.96s-.96,1.53-1.1,2.68h6.35v-.16c-.06-1.1-.36-1.96-.89-2.56s-1.25-.91-2.16-.91Z"/><path d="m955.73,170.39c-1.93-.55-3.33-1.24-4.21-2.04s-1.32-1.81-1.32-2.99c0-1.34.54-2.46,1.61-3.33s2.47-1.32,4.19-1.32c1.17,0,2.22.23,3.13.68s1.63,1.08,2.13,1.88.76,1.67.76,2.61h-2.26c0-1.04-.33-1.85-.98-2.44-.66-.59-1.58-.89-2.78-.89-1.11,0-1.97.24-2.6.73s-.93,1.17-.93,2.04c0,.7.29,1.29.88,1.77s1.59.92,3.01,1.32c1.42.4,2.53.84,3.33,1.32s1.39,1.04,1.78,1.68.58,1.39.58,2.26c0,1.38-.54,2.49-1.62,3.32s-2.52,1.25-4.32,1.25c-1.17,0-2.27-.22-3.28-.67s-1.8-1.06-2.35-1.85-.83-1.67-.83-2.66h2.26c0,1.03.38,1.85,1.14,2.44s1.78.9,3.05.9c1.19,0,2.1-.24,2.73-.73s.95-1.14.95-1.98-.29-1.48-.88-1.94-1.65-.91-3.19-1.35Z"/><path d="m966.77,166.86c.96-1.18,2.21-1.77,3.75-1.77,2.68,0,4.03,1.51,4.05,4.54v8.38h-2.17v-8.39c0-.91-.22-1.59-.63-2.03s-1.05-.66-1.92-.66c-.7,0-1.32.19-1.85.56s-.95.87-1.24,1.48v9.04h-2.17v-18h2.17v6.86Z"/><path d="m977.25,171.54c0-1.24.24-2.36.73-3.35s1.17-1.76,2.04-2.3,1.87-.81,2.98-.81c1.73,0,3.12.6,4.19,1.79s1.6,2.79,1.6,4.77v.15c0,1.23-.24,2.34-.71,3.32s-1.15,1.74-2.03,2.29-1.89.82-3.03.82c-1.72,0-3.11-.6-4.18-1.79s-1.6-2.78-1.6-4.75v-.15Zm2.18.26c0,1.41.33,2.54.98,3.39s1.53,1.28,2.62,1.28,1.98-.43,2.62-1.29.97-2.07.97-3.63c0-1.39-.33-2.52-.99-3.38s-1.54-1.29-2.63-1.29-1.93.43-2.59,1.28-.98,2.07-.98,3.66Z"/><path d="m996.77,178.23c-1.72,0-3.12-.56-4.2-1.69s-1.62-2.64-1.62-4.53v-.4c0-1.26.24-2.38.72-3.37s1.15-1.76,2.02-2.32,1.8-.84,2.81-.84c1.65,0,2.93.54,3.84,1.63s1.37,2.64,1.37,4.66v.9h-8.59c.03,1.25.4,2.26,1.1,3.03s1.59,1.15,2.67,1.15c.77,0,1.41-.16,1.95-.47s1-.73,1.39-1.24l1.32,1.03c-1.06,1.63-2.66,2.45-4.78,2.45Zm-.27-11.37c-.88,0-1.61.32-2.2.96s-.96,1.53-1.1,2.68h6.35v-.16c-.06-1.1-.36-1.96-.89-2.56s-1.25-.91-2.16-.91Z"/><path d="m1017.55,174.64c0-.59-.22-1.04-.66-1.37s-1.21-.6-2.31-.84-1.97-.52-2.61-.84-1.12-.72-1.43-1.17-.46-.99-.46-1.62c0-1.04.44-1.92,1.32-2.64s2-1.08,3.37-1.08c1.44,0,2.6.37,3.5,1.11s1.34,1.69,1.34,2.85h-2.18c0-.59-.25-1.11-.76-1.54s-1.14-.64-1.9-.64-1.41.17-1.85.52-.67.79-.67,1.35c0,.52.21.92.62,1.18s1.16.52,2.24.76,1.96.53,2.63.87,1.17.74,1.49,1.21.49,1.05.49,1.73c0,1.13-.45,2.04-1.36,2.72s-2.08,1.03-3.53,1.03c-1.02,0-1.91-.18-2.7-.54s-1.39-.86-1.83-1.51-.66-1.34-.66-2.09h2.17c.04.73.33,1.3.87,1.73s1.26.64,2.15.64c.82,0,1.48-.17,1.97-.5s.74-.78.74-1.33Z"/><path d="m1025.48,162.25v3.07h2.37v1.68h-2.37v7.87c0,.51.11.89.32,1.14.21.25.57.38,1.08.38.25,0,.59-.05,1.03-.14v1.75c-.57.16-1.12.23-1.66.23-.97,0-1.7-.29-2.19-.88s-.74-1.42-.74-2.5v-7.86h-2.31v-1.68h2.31v-3.07h2.17Z"/><path d="m1029.57,171.54c0-1.24.24-2.36.73-3.35s1.17-1.76,2.04-2.3,1.87-.81,2.98-.81c1.73,0,3.12.6,4.19,1.79s1.6,2.79,1.6,4.77v.15c0,1.23-.24,2.34-.71,3.32s-1.15,1.74-2.03,2.29-1.89.82-3.03.82c-1.72,0-3.11-.6-4.18-1.79s-1.6-2.78-1.6-4.75v-.15Zm2.18.26c0,1.41.33,2.54.98,3.39s1.53,1.28,2.62,1.28,1.98-.43,2.62-1.29.97-2.07.97-3.63c0-1.39-.33-2.52-.99-3.38s-1.54-1.29-2.63-1.29-1.93.43-2.59,1.28-.98,2.07-.98,3.66Z"/><path d="m1049.96,167.27c-.33-.05-.68-.08-1.07-.08-1.42,0-2.39.61-2.89,1.82v9h-2.17v-12.68h2.11l.04,1.46c.71-1.13,1.72-1.7,3.02-1.7.42,0,.74.05.96.16v2.02Z"/><path d="m1056.99,178.23c-1.72,0-3.12-.56-4.2-1.69s-1.62-2.64-1.62-4.53v-.4c0-1.26.24-2.38.72-3.37s1.15-1.76,2.02-2.32,1.8-.84,2.81-.84c1.65,0,2.93.54,3.84,1.63s1.37,2.64,1.37,4.66v.9h-8.59c.03,1.25.4,2.26,1.1,3.03s1.59,1.15,2.67,1.15c.77,0,1.41-.16,1.95-.47s1-.73,1.39-1.24l1.32,1.03c-1.06,1.63-2.66,2.45-4.78,2.45Zm-.27-11.37c-.88,0-1.61.32-2.2.96s-.96,1.53-1.1,2.68h6.35v-.16c-.06-1.1-.36-1.96-.89-2.56s-1.25-.91-2.16-.91Z"/><path d="m193.93,211v-17.06h5.58c1.85,0,3.24.38,4.18,1.15s1.4,1.9,1.4,3.4c0,.8-.23,1.5-.68,2.12s-1.07,1.09-1.85,1.42c.92.26,1.65.75,2.19,1.47s.8,1.58.8,2.58c0,1.53-.5,2.73-1.49,3.61s-2.39,1.31-4.21,1.31h-5.92Zm2.25-9.79h3.4c.98,0,1.77-.25,2.36-.74s.88-1.16.88-2.01c0-.94-.27-1.62-.82-2.05s-1.38-.64-2.5-.64h-3.33v5.44Zm0,1.8v6.14h3.71c1.05,0,1.87-.27,2.48-.81s.91-1.29.91-2.24c0-2.05-1.12-3.08-3.35-3.08h-3.75Z"/><path d="m216.36,209.75c-.84.99-2.08,1.49-3.71,1.49-1.35,0-2.38-.39-3.09-1.18s-1.06-1.95-1.07-3.49v-8.25h2.17v8.19c0,1.92.78,2.88,2.34,2.88,1.66,0,2.76-.62,3.3-1.85v-9.22h2.17v12.68h-2.06l-.05-1.25Z"/><path d="m229.15,207.64c0-.59-.22-1.04-.66-1.37s-1.21-.6-2.31-.84-1.97-.52-2.61-.84-1.12-.72-1.43-1.17-.46-.99-.46-1.62c0-1.04.44-1.92,1.32-2.64s2-1.08,3.37-1.08c1.44,0,2.6.37,3.5,1.11s1.34,1.69,1.34,2.85h-2.18c0-.59-.25-1.11-.76-1.54s-1.14-.64-1.9-.64-1.41.17-1.85.52-.67.79-.67,1.35c0,.52.21.92.62,1.18s1.16.52,2.24.76,1.96.53,2.63.87,1.17.74,1.49,1.21.49,1.05.49,1.73c0,1.13-.45,2.04-1.36,2.72s-2.08,1.03-3.53,1.03c-1.02,0-1.91-.18-2.7-.54s-1.39-.86-1.83-1.51-.66-1.34-.66-2.09h2.17c.04.73.33,1.3.87,1.73s1.26.64,2.15.64c.82,0,1.48-.17,1.97-.5s.74-.78.74-1.33Z"/><path d="m247.46,207.64c0-.59-.22-1.04-.66-1.37s-1.21-.6-2.31-.84-1.97-.52-2.61-.84-1.12-.72-1.43-1.17-.46-.99-.46-1.62c0-1.04.44-1.92,1.32-2.64s2-1.08,3.37-1.08c1.44,0,2.6.37,3.5,1.11s1.34,1.69,1.34,2.85h-2.18c0-.59-.25-1.11-.76-1.54s-1.14-.64-1.9-.64-1.41.17-1.85.52-.67.79-.67,1.35c0,.52.21.92.62,1.18s1.16.52,2.24.76,1.96.53,2.63.87,1.17.74,1.49,1.21.49,1.05.49,1.73c0,1.13-.45,2.04-1.36,2.72s-2.08,1.03-3.53,1.03c-1.02,0-1.91-.18-2.7-.54s-1.39-.86-1.83-1.51-.66-1.34-.66-2.09h2.17c.04.73.33,1.3.87,1.73s1.26.64,2.15.64c.82,0,1.48-.17,1.97-.5s.74-.78.74-1.33Z"/><path d="m255.4,195.25v3.07h2.37v1.68h-2.37v7.87c0,.51.11.89.32,1.14.21.25.57.38,1.08.38.25,0,.59-.05,1.03-.14v1.75c-.57.16-1.12.23-1.66.23-.97,0-1.7-.29-2.19-.88s-.74-1.42-.74-2.5v-7.86h-2.31v-1.68h2.31v-3.07h2.17Z"/><path d="m259.49,204.54c0-1.24.24-2.36.73-3.35s1.17-1.76,2.04-2.3,1.87-.81,2.98-.81c1.73,0,3.12.6,4.19,1.79s1.6,2.79,1.6,4.77v.15c0,1.23-.24,2.34-.71,3.32s-1.15,1.74-2.03,2.29-1.89.82-3.03.82c-1.72,0-3.11-.6-4.18-1.79s-1.6-2.78-1.6-4.75v-.15Zm2.18.26c0,1.41.33,2.54.98,3.39s1.53,1.28,2.62,1.28,1.98-.43,2.62-1.29.97-2.07.97-3.63c0-1.39-.33-2.52-.99-3.38s-1.54-1.29-2.63-1.29-1.93.43-2.59,1.28-.98,2.07-.98,3.66Z"/><path d="m284.46,204.8c0,1.93-.44,3.48-1.32,4.66s-2.08,1.77-3.59,1.77-2.75-.49-3.63-1.46v6.11h-2.17v-17.55h1.98l.11,1.41c.88-1.09,2.11-1.64,3.68-1.64s2.73.57,3.62,1.72,1.33,2.75,1.33,4.79v.2Zm-2.17-.25c0-1.43-.3-2.56-.91-3.39s-1.45-1.24-2.51-1.24c-1.31,0-2.3.58-2.95,1.75v6.06c.65,1.16,1.64,1.73,2.98,1.73,1.04,0,1.87-.41,2.48-1.24s.92-2.05.92-3.67Z"/><path d="m160.4,427h-11.18v-1.56l5.91-6.56c.88-.99,1.48-1.8,1.81-2.42s.5-1.26.5-1.93c0-.89-.27-1.62-.81-2.19s-1.26-.86-2.16-.86c-1.08,0-1.92.31-2.51.92s-.9,1.47-.9,2.56h-2.17c0-1.57.51-2.84,1.52-3.81s2.37-1.45,4.06-1.45c1.59,0,2.84.42,3.76,1.25s1.38,1.94,1.38,3.32c0,1.68-1.07,3.68-3.21,6l-4.57,4.96h8.57v1.77Z"/><path d="m173.39,419.72c0,2.54-.43,4.43-1.3,5.66s-2.22,1.85-4.07,1.85-3.17-.6-4.04-1.81-1.33-3.01-1.36-5.41v-2.89c0-2.51.43-4.37,1.3-5.59s2.23-1.83,4.08-1.83,3.19.59,4.05,1.76,1.31,2.99,1.34,5.44v2.81Zm-2.17-2.96c0-1.84-.26-3.17-.77-4.01s-1.33-1.26-2.45-1.26-1.92.42-2.43,1.25-.77,2.12-.79,3.86v3.47c0,1.84.27,3.21.8,4.08s1.35,1.32,2.43,1.32,1.87-.41,2.38-1.24.79-2.13.81-3.91v-3.55Z"/><path d="m184.37,414.32l.06,1.41c.93-1.09,2.18-1.64,3.76-1.64,1.77,0,2.98.68,3.62,2.04.42-.61.97-1.1,1.65-1.48s1.47-.56,2.4-.56c2.78,0,4.2,1.47,4.24,4.42v8.5h-2.17v-8.37c0-.91-.21-1.58-.62-2.03s-1.11-.67-2.09-.67c-.8,0-1.47.24-2,.72s-.84,1.13-.93,1.94v8.41h-2.18v-8.31c0-1.84-.9-2.77-2.71-2.77-1.42,0-2.39.61-2.92,1.82v9.26h-2.17v-12.68h2.05Z"/><path d="m371.56,414.39c0,.85-.22,1.61-.67,2.27s-1.06,1.18-1.82,1.56c.89.38,1.6.94,2.12,1.68s.78,1.57.78,2.5c0,1.48-.5,2.65-1.49,3.53s-2.31,1.31-3.93,1.31-2.96-.44-3.94-1.32-1.48-2.05-1.48-3.52c0-.92.25-1.75.76-2.5s1.2-1.3,2.09-1.69c-.76-.38-1.36-.89-1.79-1.56s-.66-1.42-.66-2.26c0-1.44.46-2.58,1.38-3.42s2.14-1.27,3.64-1.27,2.71.42,3.64,1.27,1.39,1.98,1.39,3.42Zm-1.77,7.96c0-.95-.3-1.73-.91-2.33s-1.4-.9-2.37-.9-1.76.3-2.35.89-.88,1.38-.88,2.34.29,1.73.86,2.29,1.37.83,2.4.83,1.81-.28,2.39-.84.87-1.32.87-2.28Zm-3.26-10.86c-.85,0-1.54.26-2.07.79s-.79,1.24-.79,2.15.26,1.57.78,2.1,1.21.8,2.08.8,1.56-.27,2.08-.8.78-1.24.78-2.1-.27-1.57-.81-2.12-1.22-.82-2.05-.82Z"/><path d="m385.87,427h-11.18v-1.56l5.91-6.56c.88-.99,1.48-1.8,1.81-2.42s.5-1.26.5-1.93c0-.89-.27-1.62-.81-2.19s-1.26-.86-2.16-.86c-1.08,0-1.92.31-2.51.92s-.9,1.47-.9,2.56h-2.17c0-1.57.51-2.84,1.52-3.81s2.37-1.45,4.06-1.45c1.59,0,2.84.42,3.76,1.25s1.38,1.94,1.38,3.32c0,1.68-1.07,3.68-3.21,6l-4.57,4.96h8.57v1.77Z"/><path d="m396.37,414.32l.06,1.41c.93-1.09,2.18-1.64,3.76-1.64,1.77,0,2.98.68,3.62,2.04.42-.61.97-1.1,1.65-1.48s1.47-.56,2.4-.56c2.78,0,4.2,1.47,4.24,4.42v8.5h-2.17v-8.37c0-.91-.21-1.58-.62-2.03s-1.11-.67-2.09-.67c-.8,0-1.47.24-2,.72s-.84,1.13-.93,1.94v8.41h-2.18v-8.31c0-1.84-.9-2.77-2.71-2.77-1.42,0-2.39.61-2.92,1.82v9.26h-2.17v-12.68h2.05Z"/><path d="m418.8,504.92l2.68-14.16h4.09l-4.42,19.91h-4.13l-3.24-13.32-3.24,13.32h-4.13l-4.42-19.91h4.09l2.69,14.14,3.28-14.14h3.47l3.27,14.16Z" fill="#231e20"/><path d="m722.64,502.04h-7.88v5.33h9.24v3.29h-13.34v-19.91h13.32v3.32h-9.21v4.74h7.88v3.21Z" fill="#231e20"/><path d="m600.4,427h-11.18v-1.56l5.91-6.56c.88-.99,1.48-1.8,1.81-2.42s.5-1.26.5-1.93c0-.89-.27-1.62-.81-2.19s-1.26-.86-2.16-.86c-1.08,0-1.92.31-2.51.92s-.9,1.47-.9,2.56h-2.17c0-1.57.51-2.84,1.52-3.81s2.37-1.45,4.06-1.45c1.59,0,2.84.42,3.76,1.25s1.38,1.94,1.38,3.32c0,1.68-1.07,3.68-3.21,6l-4.57,4.96h8.57v1.77Z"/><path d="m613.87,427h-11.18v-1.56l5.91-6.56c.88-.99,1.48-1.8,1.81-2.42s.5-1.26.5-1.93c0-.89-.27-1.62-.81-2.19s-1.26-.86-2.16-.86c-1.08,0-1.92.31-2.51.92s-.9,1.47-.9,2.56h-2.17c0-1.57.51-2.84,1.52-3.81s2.37-1.45,4.06-1.45c1.59,0,2.84.42,3.76,1.25s1.38,1.94,1.38,3.32c0,1.68-1.07,3.68-3.21,6l-4.57,4.96h8.57v1.77Z"/><path d="m624.37,414.32l.06,1.41c.93-1.09,2.18-1.64,3.76-1.64,1.77,0,2.98.68,3.62,2.04.42-.61.97-1.1,1.65-1.48s1.47-.56,2.4-.56c2.78,0,4.2,1.47,4.24,4.42v8.5h-2.17v-8.37c0-.91-.21-1.58-.62-2.03s-1.11-.67-2.09-.67c-.8,0-1.47.24-2,.72s-.84,1.13-.93,1.94v8.41h-2.18v-8.31c0-1.84-.9-2.77-2.71-2.77-1.42,0-2.39.61-2.92,1.82v9.26h-2.17v-12.68h2.05Z"/><path d="m829.23,411.16l-7.07,15.84h-2.27l7.04-15.28h-9.23v-1.78h11.53v1.22Z"/><path d="m842.87,427h-11.18v-1.56l5.91-6.56c.88-.99,1.48-1.8,1.81-2.42s.5-1.26.5-1.93c0-.89-.27-1.62-.81-2.19s-1.26-.86-2.16-.86c-1.08,0-1.92.31-2.51.92s-.9,1.47-.9,2.56h-2.17c0-1.57.51-2.84,1.52-3.81s2.37-1.45,4.06-1.45c1.59,0,2.84.42,3.76,1.25s1.38,1.94,1.38,3.32c0,1.68-1.07,3.68-3.21,6l-4.57,4.96h8.57v1.77Z"/><path d="m853.37,414.32l.06,1.41c.93-1.09,2.18-1.64,3.76-1.64,1.77,0,2.98.68,3.62,2.04.42-.61.97-1.1,1.65-1.48s1.47-.56,2.4-.56c2.78,0,4.2,1.47,4.24,4.42v8.5h-2.17v-8.37c0-.91-.21-1.58-.62-2.03s-1.11-.67-2.09-.67c-.8,0-1.47.24-2,.72s-.84,1.13-.93,1.94v8.41h-2.18v-8.31c0-1.84-.9-2.77-2.71-2.77-1.42,0-2.39.61-2.92,1.82v9.26h-2.17v-12.68h2.05Z"/><line x1="113.73" y1="354" x2="113.73" y2="366" fill="none" stroke="#000" stroke-miterlimit="10" stroke-width="2"/><line x1="239" y1="354" x2="239" y2="366" fill="none" stroke="#000" stroke-miterlimit="10" stroke-width="2"/><line x1="534" y1="354" x2="534" y2="366" fill="none" stroke="#000" stroke-miterlimit="10" stroke-width="2"/><line x1="688" y1="354" x2="688" y2="366" fill="none" stroke="#000" stroke-miterlimit="10" stroke-width="2"/><line x1="1000" y1="354" x2="1000" y2="366" fill="none" stroke="#000" stroke-miterlimit="10" stroke-width="2"/><line x1="124.22" y1="387.58" x2="226.74" y2="387.58" fill="none" stroke="#000" stroke-miterlimit="10" stroke-width="2"/><polygon points="126.56 395.55 112.74 387.58 126.56 379.6 126.56 395.55"/><polygon points="224.41 395.55 238.23 387.58 224.41 379.6 224.41 395.55"/><line x1="249.71" y1="387.58" x2="523.71" y2="387.58" fill="none" stroke="#000" stroke-miterlimit="10" stroke-width="2"/><polygon points="252.04 395.55 238.23 387.58 252.04 379.6 252.04 395.55"/><polygon points="521.38 395.55 535.2 387.58 521.38 379.6 521.38 395.55"/><line x1="546.48" y1="387.58" x2="676.46" y2="387.58" fill="none" stroke="#000" stroke-miterlimit="10" stroke-width="2"/><polygon points="548.82 395.55 535 387.58 548.82 379.6 548.82 395.55"/><polygon points="674.12 395.55 687.94 387.58 674.12 379.6 674.12 395.55"/><line x1="699.48" y1="387.58" x2="988.52" y2="387.58" fill="none" stroke="#000" stroke-miterlimit="10" stroke-width="2"/><polygon points="701.82 395.55 688 387.58 701.82 379.6 701.82 395.55"/><polygon points="986.18 395.55 1000 387.58 986.18 379.6 986.18 395.55"/><line x1="459.26" y1="500.67" x2="676.27" y2="500.67" fill="none" stroke="#0077a2" stroke-miterlimit="10" stroke-width="3"/><polygon points="462.76 512.63 442.04 500.67 462.76 488.7 462.76 512.63" fill="#0077a2"/><polygon points="672.76 512.63 693.49 500.67 672.76 488.7 672.76 512.63" fill="#0077a2"/></g><path d="m101.36,77.7s10.07-7.55,23.49-5.87c13.42,1.68,19.3,5.03,19.3,5.03,0,0,25.17-3.36,39.43,3.36,14.26,6.71,15.94,9.23,10.91,10.07-5.03.84-107.39-.84-107.39-.84,0,0-4.19-7.55.84-8.39,5.03-.84,13.42-3.36,13.42-3.36Z" fill="#fff"/><path d="m220.1,124.29s1.68-6.71,19.3-6.71h22.47s15.94-10.07,26.01-10.07,25.17,1.68,32.72,2.52c7.55.84,14.26,5.03,26.85,5.03s20.97-1.68,31.88,4.19c10.91,5.87,6.71,11.75-3.36,11.75s-160.25-.84-164.44-.84,4.38-6.71,8.58-5.87Z" fill="#fff"/><path d="m962.49,71.24s-7.24-13.53-29.9-12.9c-22.34.62-31.47,10.07-31.47,10.07,0,0-28.95-10.7-48.15-3.78-14.7,5.3-18.88,12.27-18.88,12.27,0,0-26.44-2.83-26.44,4.72s4.72,8.5,25.49,9.44,118.97-.94,118.97-.94c0,0-7.87,2.05-3.15,9.6,4.27,6.83,60.3,3.36,70.96,2.64,1.63-.11,3.19-.83,4.21-2.11,1.53-1.92,1.91-5.02-6.08-8.4-7.08-2.99-24.39-3.62-24.39-3.62,0,0,10.39-20.77-31.16-17Z" fill="#fff"/></g></svg>