<?xml version="1.0" encoding="UTF-8"?><svg id="f" xmlns="http://www.w3.org/2000/svg" width="1140" height="603" viewBox="0 0 1140 603"><rect x="191" y="58" width="873" height="450" fill="#fff"/><line x1="190.97" y1="507.79" x2="1064" y2="507.79" fill="none" stroke="#b1dded" stroke-miterlimit="10" stroke-width="2"/><line x1="190.97" y1="479.68" x2="1064" y2="479.68" fill="none" stroke="#b1dded" stroke-miterlimit="10" stroke-width="2"/><line x1="190.97" y1="451.56" x2="1064" y2="451.56" fill="none" stroke="#b1dded" stroke-miterlimit="10" stroke-width="2"/><line x1="190.97" y1="423.45" x2="1064" y2="423.45" fill="none" stroke="#b1dded" stroke-miterlimit="10" stroke-width="2"/><line x1="190.97" y1="395.34" x2="1064" y2="395.34" fill="none" stroke="#b1dded" stroke-miterlimit="10" stroke-width="2"/><line x1="190.97" y1="367.23" x2="1064" y2="367.23" fill="none" stroke="#b1dded" stroke-miterlimit="10" stroke-width="2"/><line x1="190.97" y1="339.12" x2="1064" y2="339.12" fill="none" stroke="#b1dded" stroke-miterlimit="10" stroke-width="2"/><line x1="190.97" y1="311.01" x2="1064" y2="311.01" fill="none" stroke="#b1dded" stroke-miterlimit="10" stroke-width="2"/><line x1="190.97" y1="282.89" x2="1064" y2="282.89" fill="none" stroke="#b1dded" stroke-miterlimit="10" stroke-width="2"/><line x1="190.97" y1="254.78" x2="1064" y2="254.78" fill="none" stroke="#b1dded" stroke-miterlimit="10" stroke-width="2"/><line x1="190.97" y1="226.67" x2="1064" y2="226.67" fill="none" stroke="#b1dded" stroke-miterlimit="10" stroke-width="2"/><line x1="190.97" y1="198.56" x2="1064" y2="198.56" fill="none" stroke="#b1dded" stroke-miterlimit="10" stroke-width="2"/><line x1="190.97" y1="170.45" x2="1064" y2="170.45" fill="none" stroke="#b1dded" stroke-miterlimit="10" stroke-width="2"/><line x1="190.97" y1="142.34" x2="1064" y2="142.34" fill="none" stroke="#b1dded" stroke-miterlimit="10" stroke-width="2"/><line x1="190.97" y1="114.22" x2="1064" y2="114.22" fill="none" stroke="#b1dded" stroke-miterlimit="10" stroke-width="2"/><line x1="190.97" y1="86.11" x2="1064" y2="86.11" fill="none" stroke="#b1dded" stroke-miterlimit="10" stroke-width="2"/><line x1="190.97" y1="58" x2="1064" y2="58" fill="none" stroke="#b1dded" stroke-miterlimit="10" stroke-width="2"/><line x1="190.97" y1="57" x2="190.97" y2="507.71" fill="none" stroke="#b1dded" stroke-miterlimit="10" stroke-width="2"/><line x1="219.13" y1="57" x2="219.13" y2="507.71" fill="none" stroke="#b1dded" stroke-miterlimit="10" stroke-width="2"/><line x1="247.29" y1="57.01" x2="247.29" y2="507.71" fill="none" stroke="#b1dded" stroke-miterlimit="10" stroke-width="2"/><line x1="275.45" y1="57.01" x2="275.45" y2="507.72" fill="none" stroke="#b1dded" stroke-miterlimit="10" stroke-width="2"/><line x1="303.61" y1="57.01" x2="303.61" y2="507.72" fill="none" stroke="#b1dded" stroke-miterlimit="10" stroke-width="2"/><line x1="331.78" y1="57.01" x2="331.78" y2="507.72" fill="none" stroke="#b1dded" stroke-miterlimit="10" stroke-width="2"/><line x1="359.94" y1="57.02" x2="359.94" y2="507.72" fill="none" stroke="#b1dded" stroke-miterlimit="10" stroke-width="2"/><line x1="388.1" y1="57.02" x2="388.1" y2="507.73" fill="none" stroke="#b1dded" stroke-miterlimit="10" stroke-width="2"/><line x1="416.26" y1="57.02" x2="416.26" y2="507.73" fill="none" stroke="#b1dded" stroke-miterlimit="10" stroke-width="2"/><line x1="444.43" y1="57.02" x2="444.43" y2="507.73" fill="none" stroke="#b1dded" stroke-miterlimit="10" stroke-width="2"/><line x1="472.59" y1="57.03" x2="472.59" y2="507.73" fill="none" stroke="#b1dded" stroke-miterlimit="10" stroke-width="2"/><line x1="500.75" y1="57.03" x2="500.75" y2="507.74" fill="none" stroke="#b1dded" stroke-miterlimit="10" stroke-width="2"/><line x1="528.91" y1="57.03" x2="528.91" y2="507.74" fill="none" stroke="#b1dded" stroke-miterlimit="10" stroke-width="2"/><line x1="557.08" y1="57.03" x2="557.08" y2="507.74" fill="none" stroke="#b1dded" stroke-miterlimit="10" stroke-width="2"/><line x1="585.24" y1="57.04" x2="585.24" y2="507.74" fill="none" stroke="#b1dded" stroke-miterlimit="10" stroke-width="2"/><line x1="613.4" y1="57.04" x2="613.4" y2="507.75" fill="none" stroke="#b1dded" stroke-miterlimit="10" stroke-width="2"/><line x1="641.56" y1="57.04" x2="641.56" y2="507.75" fill="none" stroke="#b1dded" stroke-miterlimit="10" stroke-width="2"/><line x1="669.73" y1="57.04" x2="669.73" y2="507.75" fill="none" stroke="#b1dded" stroke-miterlimit="10" stroke-width="2"/><line x1="697.89" y1="57.05" x2="697.89" y2="507.75" fill="none" stroke="#b1dded" stroke-miterlimit="10" stroke-width="2"/><line x1="726.05" y1="57.05" x2="726.05" y2="507.76" fill="none" stroke="#b1dded" stroke-miterlimit="10" stroke-width="2"/><line x1="754.21" y1="57.05" x2="754.21" y2="507.76" fill="none" stroke="#b1dded" stroke-miterlimit="10" stroke-width="2"/><line x1="782.38" y1="57.05" x2="782.38" y2="507.76" fill="none" stroke="#b1dded" stroke-miterlimit="10" stroke-width="2"/><line x1="810.54" y1="57.06" x2="810.54" y2="507.76" fill="none" stroke="#b1dded" stroke-miterlimit="10" stroke-width="2"/><line x1="838.7" y1="57.06" x2="838.7" y2="507.77" fill="none" stroke="#b1dded" stroke-miterlimit="10" stroke-width="2"/><line x1="866.86" y1="57.06" x2="866.86" y2="507.77" fill="none" stroke="#b1dded" stroke-miterlimit="10" stroke-width="2"/><line x1="895.03" y1="57.06" x2="895.03" y2="507.77" fill="none" stroke="#b1dded" stroke-miterlimit="10" stroke-width="2"/><line x1="923.19" y1="57.07" x2="923.19" y2="507.77" fill="none" stroke="#b1dded" stroke-miterlimit="10" stroke-width="2"/><line x1="951.35" y1="57.07" x2="951.35" y2="507.78" fill="none" stroke="#b1dded" stroke-miterlimit="10" stroke-width="2"/><line x1="979.51" y1="57.07" x2="979.51" y2="507.78" fill="none" stroke="#b1dded" stroke-miterlimit="10" stroke-width="2"/><line x1="1007.68" y1="57.07" x2="1007.68" y2="507.78" fill="none" stroke="#b1dded" stroke-miterlimit="10" stroke-width="2"/><line x1="1035.84" y1="57.08" x2="1035.84" y2="507.78" fill="none" stroke="#b1dded" stroke-miterlimit="10" stroke-width="2"/><line x1="1064" y1="57.08" x2="1064" y2="507.79" fill="none" stroke="#b1dded" stroke-miterlimit="10" stroke-width="2"/><polyline points="191 508.78 445.54 114.25 613.06 282.88 696.82 282.88 951 508" fill="none" stroke="#d12d32" stroke-miterlimit="10" stroke-width="2"/><path d="m339.07,25.99v7.01h-4.1V13.09h7.77c1.5,0,2.81.27,3.94.82s2.01,1.32,2.62,2.33c.61,1.01.92,2.15.92,3.44,0,1.95-.67,3.49-2,4.61-1.34,1.13-3.18,1.69-5.54,1.69h-3.6Zm0-3.32h3.66c1.08,0,1.91-.25,2.48-.77.57-.51.85-1.24.85-2.19s-.29-1.76-.86-2.37-1.37-.91-2.38-.93h-3.76v6.25Z"/><path d="m351.97,25.47c0-1.47.28-2.78.85-3.92s1.38-2.04,2.44-2.67c1.06-.63,2.29-.94,3.7-.94,2,0,3.62.61,4.89,1.83,1.26,1.22,1.97,2.88,2.11,4.98l.03,1.01c0,2.27-.63,4.09-1.9,5.46-1.27,1.37-2.97,2.06-5.1,2.06s-3.83-.68-5.11-2.05-1.91-3.23-1.91-5.58v-.18Zm3.95.28c0,1.41.26,2.48.79,3.22.53.74,1.29,1.12,2.27,1.12s1.7-.37,2.24-1.1c.54-.73.81-1.91.81-3.53,0-1.38-.27-2.45-.81-3.2-.54-.76-1.29-1.14-2.27-1.14s-1.71.38-2.24,1.13c-.53.75-.79,1.92-.79,3.5Z"/><path d="m376.43,28.91c0-.48-.24-.86-.72-1.14-.48-.28-1.25-.53-2.3-.75-3.52-.74-5.28-2.23-5.28-4.48,0-1.31.54-2.41,1.63-3.29,1.09-.88,2.51-1.32,4.27-1.32,1.88,0,3.38.44,4.5,1.33,1.12.88,1.69,2.03,1.69,3.45h-3.95c0-.56-.18-1.03-.55-1.4s-.93-.55-1.71-.55c-.67,0-1.18.15-1.54.45s-.55.68-.55,1.15c0,.44.21.79.62,1.06.41.27,1.11.5,2.1.7.98.2,1.81.42,2.49.66,2.09.77,3.13,2.09,3.13,3.98,0,1.35-.58,2.44-1.74,3.27s-2.65,1.25-4.48,1.25c-1.24,0-2.34-.22-3.3-.66-.96-.44-1.72-1.05-2.26-1.82-.55-.77-.82-1.6-.82-2.5h3.75c.04.7.3,1.24.78,1.61.48.37,1.13.56,1.94.56.76,0,1.33-.14,1.72-.43.39-.29.58-.66.58-1.13Z"/><path d="m382.79,14.38c0-.59.2-1.08.59-1.46s.94-.57,1.62-.57,1.21.19,1.61.57.6.87.6,1.46-.2,1.09-.61,1.48c-.41.38-.94.57-1.61.57s-1.2-.19-1.61-.57c-.41-.38-.61-.88-.61-1.48Zm4.2,18.62h-3.96v-14.79h3.96v14.79Z"/><path d="m394.97,14.57v3.64h2.53v2.9h-2.53v7.38c0,.55.1.94.31,1.18.21.24.61.36,1.2.36.44,0,.83-.03,1.16-.1v2.99c-.77.24-1.57.36-2.39.36-2.77,0-4.18-1.4-4.24-4.2v-7.97h-2.16v-2.9h2.16v-3.64h3.95Z"/><path d="m399.67,14.38c0-.59.2-1.08.59-1.46s.94-.57,1.62-.57,1.21.19,1.61.57.6.87.6,1.46-.2,1.09-.61,1.48c-.41.38-.94.57-1.61.57s-1.2-.19-1.61-.57c-.41-.38-.61-.88-.61-1.48Zm4.2,18.62h-3.96v-14.79h3.96v14.79Z"/><path d="m406.51,25.47c0-1.47.28-2.78.85-3.92s1.38-2.04,2.44-2.67c1.06-.63,2.29-.94,3.7-.94,2,0,3.62.61,4.89,1.83,1.26,1.22,1.97,2.88,2.11,4.98l.03,1.01c0,2.27-.63,4.09-1.9,5.46-1.27,1.37-2.97,2.06-5.1,2.06s-3.83-.68-5.11-2.05-1.91-3.23-1.91-5.58v-.18Zm3.95.28c0,1.41.26,2.48.79,3.22.53.74,1.29,1.12,2.27,1.12s1.7-.37,2.24-1.1c.54-.73.81-1.91.81-3.53,0-1.38-.27-2.45-.81-3.2-.54-.76-1.29-1.14-2.27-1.14s-1.71.38-2.24,1.13c-.53.75-.79,1.92-.79,3.5Z"/><path d="m426.59,18.21l.12,1.71c1.06-1.32,2.47-1.98,4.25-1.98,1.57,0,2.73.46,3.5,1.38.77.92,1.16,2.3,1.18,4.13v9.56h-3.95v-9.46c0-.84-.18-1.45-.55-1.83-.36-.38-.97-.57-1.82-.57-1.11,0-1.95.47-2.5,1.42v10.43h-3.95v-14.79h3.72Z"/><path d="m453.23,28.06l4.51-14.97h4.57l-6.93,19.91h-4.28l-6.9-19.91h4.55l4.48,14.97Z"/><path d="m470.12,33.27c-2.17,0-3.94-.67-5.3-2-1.36-1.33-2.04-3.1-2.04-5.32v-.38c0-1.49.29-2.81.86-3.99.57-1.17,1.39-2.07,2.44-2.71,1.05-.63,2.25-.95,3.6-.95,2.02,0,3.62.64,4.78,1.91,1.16,1.28,1.74,3.09,1.74,5.43v1.61h-9.42c.13.97.51,1.74,1.16,2.32.64.58,1.46.88,2.44.88,1.52,0,2.71-.55,3.57-1.65l1.94,2.17c-.59.84-1.39,1.49-2.41,1.96s-2.13.7-3.36.7Zm-.45-12.15c-.78,0-1.42.27-1.91.8-.49.53-.8,1.29-.94,2.28h5.5v-.32c-.02-.88-.25-1.56-.71-2.04-.46-.48-1.1-.72-1.94-.72Z"/><path d="m486.76,21.91c-.54-.07-1.01-.11-1.42-.11-1.5,0-2.47.51-2.94,1.52v9.68h-3.95v-14.79h3.73l.11,1.76c.79-1.36,1.89-2.04,3.29-2.04.44,0,.85.06,1.23.18l-.05,3.8Z"/><path d="m496.67,28.91c0-.48-.24-.86-.72-1.14-.48-.28-1.25-.53-2.3-.75-3.52-.74-5.28-2.23-5.28-4.48,0-1.31.54-2.41,1.63-3.29,1.09-.88,2.51-1.32,4.27-1.32,1.88,0,3.38.44,4.5,1.33,1.12.88,1.69,2.03,1.69,3.45h-3.95c0-.56-.18-1.03-.55-1.4s-.93-.55-1.71-.55c-.67,0-1.18.15-1.54.45s-.55.68-.55,1.15c0,.44.21.79.62,1.06.41.27,1.11.5,2.1.7.98.2,1.81.42,2.49.66,2.09.77,3.13,2.09,3.13,3.98,0,1.35-.58,2.44-1.74,3.27s-2.65,1.25-4.48,1.25c-1.24,0-2.34-.22-3.3-.66-.96-.44-1.72-1.05-2.26-1.82-.55-.77-.82-1.6-.82-2.5h3.75c.04.7.3,1.24.78,1.61.48.37,1.13.56,1.94.56.76,0,1.33-.14,1.72-.43.39-.29.58-.66.58-1.13Z"/><path d="m511.92,31.5c-.98,1.19-2.32,1.78-4.05,1.78-1.59,0-2.8-.46-3.63-1.37-.83-.91-1.26-2.25-1.28-4.01v-9.69h3.95v9.57c0,1.54.7,2.31,2.11,2.31s2.26-.47,2.76-1.4v-10.48h3.96v14.79h-3.72l-.11-1.5Z"/><path d="m526.74,28.91c0-.48-.24-.86-.72-1.14-.48-.28-1.25-.53-2.3-.75-3.52-.74-5.28-2.23-5.28-4.48,0-1.31.54-2.41,1.63-3.29,1.09-.88,2.51-1.32,4.27-1.32,1.88,0,3.38.44,4.5,1.33,1.12.88,1.69,2.03,1.69,3.45h-3.95c0-.56-.18-1.03-.55-1.4s-.93-.55-1.71-.55c-.67,0-1.18.15-1.54.45s-.55.68-.55,1.15c0,.44.21.79.62,1.06.41.27,1.11.5,2.1.7.98.2,1.81.42,2.49.66,2.09.77,3.13,2.09,3.13,3.98,0,1.35-.58,2.44-1.74,3.27s-2.65,1.25-4.48,1.25c-1.24,0-2.34-.22-3.3-.66-.96-.44-1.72-1.05-2.26-1.82-.55-.77-.82-1.6-.82-2.5h3.75c.04.7.3,1.24.78,1.61.48.37,1.13.56,1.94.56.76,0,1.33-.14,1.72-.43.39-.29.58-.66.58-1.13Z"/><path d="m554.52,16.42h-6.1v16.58h-4.1v-16.58h-6.02v-3.32h16.21v3.32Z"/><path d="m556.57,14.38c0-.59.2-1.08.59-1.46s.94-.57,1.62-.57,1.21.19,1.61.57.6.87.6,1.46-.2,1.09-.61,1.48c-.41.38-.94.57-1.61.57s-1.2-.19-1.61-.57c-.41-.38-.61-.88-.61-1.48Zm4.2,18.62h-3.96v-14.79h3.96v14.79Z"/><path d="m567.73,18.21l.12,1.65c1.05-1.29,2.47-1.93,4.25-1.93,1.91,0,3.21.75,3.92,2.26,1.04-1.5,2.52-2.26,4.44-2.26,1.6,0,2.8.47,3.58,1.4.78.93,1.18,2.34,1.18,4.22v9.45h-3.96v-9.43c0-.84-.16-1.45-.49-1.84-.33-.39-.91-.58-1.74-.58-1.18,0-2,.57-2.46,1.7v10.16s-3.94,0-3.94,0v-9.42c0-.86-.17-1.48-.51-1.86s-.91-.57-1.72-.57c-1.12,0-1.93.46-2.43,1.39v10.46h-3.95v-14.79h3.71Z"/><path d="m595.07,33.27c-2.17,0-3.94-.67-5.3-2-1.36-1.33-2.04-3.1-2.04-5.32v-.38c0-1.49.29-2.81.86-3.99.57-1.17,1.39-2.07,2.44-2.71,1.05-.63,2.25-.95,3.6-.95,2.02,0,3.62.64,4.78,1.91,1.16,1.28,1.74,3.09,1.74,5.43v1.61h-9.42c.13.97.51,1.74,1.16,2.32.64.58,1.46.88,2.44.88,1.52,0,2.71-.55,3.57-1.65l1.94,2.17c-.59.84-1.39,1.49-2.41,1.96s-2.13.7-3.36.7Zm-.45-12.15c-.78,0-1.42.27-1.91.8-.49.53-.8,1.29-.94,2.28h5.5v-.32c-.02-.88-.25-1.56-.71-2.04-.46-.48-1.1-.72-1.94-.72Z"/><path d="m611.45,33v-11.89h-2.2v-2.9h2.2v-1.26c0-1.66.48-2.95,1.43-3.86.95-.92,2.29-1.37,4-1.37.55,0,1.22.09,2.01.27l-.04,3.06c-.33-.08-.73-.12-1.2-.12-1.49,0-2.23.7-2.23,2.09v1.19h2.94v2.9h-2.94v11.89h-3.96Z"/><path d="m619.79,25.47c0-1.47.28-2.78.85-3.92s1.38-2.04,2.44-2.67c1.06-.63,2.29-.94,3.7-.94,2,0,3.62.61,4.89,1.83,1.26,1.22,1.97,2.88,2.11,4.98l.03,1.01c0,2.27-.63,4.09-1.9,5.46-1.27,1.37-2.97,2.06-5.1,2.06s-3.83-.68-5.11-2.05-1.91-3.23-1.91-5.58v-.18Zm3.95.28c0,1.41.26,2.48.79,3.22.53.74,1.29,1.12,2.27,1.12s1.7-.37,2.24-1.1c.54-.73.81-1.91.81-3.53,0-1.38-.27-2.45-.81-3.2-.54-.76-1.29-1.14-2.27-1.14s-1.71.38-2.24,1.13c-.53.75-.79,1.92-.79,3.5Z"/><path d="m644.55,21.91c-.54-.07-1.01-.11-1.42-.11-1.5,0-2.47.51-2.94,1.52v9.68h-3.95v-14.79h3.73l.11,1.76c.79-1.36,1.89-2.04,3.29-2.04.44,0,.85.06,1.23.18l-.05,3.8Z"/><path d="m653.68,33V13.09h6.12c1.75,0,3.32.39,4.7,1.18,1.38.79,2.46,1.91,3.23,3.36.77,1.45,1.16,3.11,1.16,4.96v.92c0,1.85-.38,3.5-1.14,4.94-.76,1.44-1.83,2.56-3.22,3.35s-2.95,1.19-4.69,1.2h-6.17Zm4.1-16.58v13.29h1.98c1.6,0,2.83-.52,3.68-1.57.85-1.05,1.28-2.55,1.3-4.5v-1.05c0-2.02-.42-3.56-1.26-4.6-.84-1.04-2.06-1.57-3.68-1.57h-2.02Z"/><path d="m678.43,33.27c-2.17,0-3.94-.67-5.3-2-1.36-1.33-2.04-3.1-2.04-5.32v-.38c0-1.49.29-2.81.86-3.99.57-1.17,1.39-2.07,2.44-2.71,1.05-.63,2.25-.95,3.6-.95,2.02,0,3.62.64,4.78,1.91,1.16,1.28,1.74,3.09,1.74,5.43v1.61h-9.42c.13.97.51,1.74,1.16,2.32.64.58,1.46.88,2.44.88,1.52,0,2.71-.55,3.57-1.65l1.94,2.17c-.59.84-1.39,1.49-2.41,1.96s-2.13.7-3.36.7Zm-.45-12.15c-.78,0-1.42.27-1.91.8-.49.53-.8,1.29-.94,2.28h5.5v-.32c-.02-.88-.25-1.56-.71-2.04-.46-.48-1.1-.72-1.94-.72Z"/><path d="m690.92,33h-3.96V12h3.96v21Z"/><path d="m694.15,14.38c0-.59.2-1.08.59-1.46s.94-.57,1.62-.57,1.21.19,1.61.57.6.87.6,1.46-.2,1.09-.61,1.48c-.41.38-.94.57-1.61.57s-1.2-.19-1.61-.57c-.41-.38-.61-.88-.61-1.48Zm4.2,18.62h-3.96v-14.79h3.96v14.79Z"/><path d="m707.14,28.17l2.75-9.97h4.13l-4.99,14.79h-3.77l-4.99-14.79h4.13l2.75,9.97Z"/><path d="m722.38,33.27c-2.17,0-3.94-.67-5.3-2-1.36-1.33-2.04-3.1-2.04-5.32v-.38c0-1.49.29-2.81.86-3.99.57-1.17,1.39-2.07,2.44-2.71,1.05-.63,2.25-.95,3.6-.95,2.02,0,3.62.64,4.78,1.91,1.16,1.28,1.74,3.09,1.74,5.43v1.61h-9.42c.13.97.51,1.74,1.16,2.32.64.58,1.46.88,2.44.88,1.52,0,2.71-.55,3.57-1.65l1.94,2.17c-.59.84-1.39,1.49-2.41,1.96s-2.13.7-3.36.7Zm-.45-12.15c-.78,0-1.42.27-1.91.8-.49.53-.8,1.29-.94,2.28h5.5v-.32c-.02-.88-.25-1.56-.71-2.04-.46-.48-1.1-.72-1.94-.72Z"/><path d="m739.02,21.91c-.54-.07-1.01-.11-1.42-.11-1.5,0-2.47.51-2.94,1.52v9.68h-3.95v-14.79h3.73l.11,1.76c.79-1.36,1.89-2.04,3.29-2.04.44,0,.85.06,1.23.18l-.05,3.8Z"/><path d="m746.69,27.41l2.73-9.2h4.24l-5.95,17.09-.33.78c-.88,1.93-2.34,2.9-4.38,2.9-.57,0-1.16-.09-1.75-.26v-2.99h.6c.75.01,1.31-.1,1.67-.33.37-.23.66-.61.87-1.13l.46-1.22-5.18-14.83h4.25l2.75,9.2Z"/><path d="m761.58,25.47c0-1.47.28-2.78.85-3.92s1.38-2.04,2.44-2.67c1.06-.63,2.29-.94,3.7-.94,2,0,3.62.61,4.89,1.83,1.26,1.22,1.97,2.88,2.11,4.98l.03,1.01c0,2.27-.63,4.09-1.9,5.46-1.27,1.37-2.97,2.06-5.1,2.06s-3.83-.68-5.11-2.05-1.91-3.23-1.91-5.58v-.18Zm3.95.28c0,1.41.26,2.48.79,3.22.53.74,1.29,1.12,2.27,1.12s1.7-.37,2.24-1.1c.54-.73.81-1.91.81-3.53,0-1.38-.27-2.45-.81-3.2-.54-.76-1.29-1.14-2.27-1.14s-1.71.38-2.24,1.13c-.53.75-.79,1.92-.79,3.5Z"/><path d="m779.11,33v-11.89h-2.2v-2.9h2.2v-1.26c0-1.66.48-2.95,1.43-3.86.95-.92,2.29-1.37,4-1.37.55,0,1.22.09,2.01.27l-.04,3.06c-.33-.08-.73-.12-1.2-.12-1.49,0-2.23.7-2.23,2.09v1.19h2.94v2.9h-2.94v11.89h-3.96Z"/><path d="m810.92,26.37c-.16,2.14-.95,3.83-2.37,5.06-1.43,1.23-3.31,1.85-5.64,1.85-2.55,0-4.56-.86-6.02-2.58-1.46-1.72-2.19-4.08-2.19-7.08v-1.22c0-1.91.34-3.6,1.01-5.06.67-1.46,1.64-2.58,2.89-3.36,1.25-.78,2.71-1.17,4.37-1.17,2.3,0,4.15.62,5.55,1.85s2.21,2.96,2.43,5.18h-4.1c-.1-1.29-.46-2.22-1.07-2.8-.62-.58-1.55-.87-2.81-.87-1.37,0-2.39.49-3.07,1.47-.68.98-1.03,2.5-1.05,4.56v1.5c0,2.15.33,3.72.98,4.72.65.99,1.68,1.49,3.08,1.49,1.27,0,2.21-.29,2.84-.87.62-.58.98-1.47,1.07-2.69h4.1Z"/><path d="m821.93,33c-.18-.36-.31-.8-.4-1.33-.96,1.07-2.2,1.6-3.73,1.6-1.45,0-2.65-.42-3.6-1.26-.95-.84-1.43-1.9-1.43-3.17,0-1.57.58-2.77,1.74-3.61,1.16-.84,2.84-1.26,5.04-1.27h1.82v-.85c0-.68-.18-1.23-.53-1.64-.35-.41-.9-.62-1.66-.62-.67,0-1.19.16-1.57.48-.38.32-.57.76-.57,1.31h-3.95c0-.86.26-1.65.79-2.38.53-.73,1.28-1.3,2.24-1.72.97-.41,2.05-.62,3.25-.62,1.82,0,3.27.46,4.34,1.37,1.07.92,1.61,2.2,1.61,3.86v6.41c0,1.4.21,2.47.59,3.19v.23h-3.99Zm-3.27-2.75c.58,0,1.12-.13,1.61-.39s.86-.61,1.09-1.05v-2.54h-1.48c-1.98,0-3.03.68-3.16,2.05v.23c-.01.49.16.9.51,1.22.35.32.82.48,1.42.48Z"/><path d="m841.7,25.74c0,2.37-.51,4.22-1.52,5.54s-2.42,1.99-4.24,1.99c-1.6,0-2.88-.62-3.84-1.85l-.18,1.57h-3.55V12h3.95v7.53c.91-1.07,2.11-1.6,3.6-1.6,1.8,0,3.22.66,4.25,1.99s1.54,3.19,1.54,5.6v.22Zm-3.95-.29c0-1.49-.24-2.59-.71-3.27-.47-.69-1.18-1.03-2.12-1.03-1.26,0-2.12.52-2.6,1.54v5.84c.48,1.04,1.36,1.56,2.62,1.56s2.11-.63,2.52-1.89c.19-.6.29-1.52.29-2.75Z"/><path d="m857.46,25.74c0,2.37-.51,4.22-1.52,5.54s-2.42,1.99-4.24,1.99c-1.6,0-2.88-.62-3.84-1.85l-.18,1.57h-3.55V12h3.95v7.53c.91-1.07,2.11-1.6,3.6-1.6,1.8,0,3.22.66,4.25,1.99s1.54,3.19,1.54,5.6v.22Zm-3.95-.29c0-1.49-.24-2.59-.71-3.27-.47-.69-1.18-1.03-2.12-1.03-1.26,0-2.12.52-2.6,1.54v5.84c.48,1.04,1.36,1.56,2.62,1.56s2.11-.63,2.52-1.89c.19-.6.29-1.52.29-2.75Z"/><path d="m868.47,33c-.18-.36-.31-.8-.4-1.33-.96,1.07-2.2,1.6-3.73,1.6-1.45,0-2.65-.42-3.6-1.26-.95-.84-1.43-1.9-1.43-3.17,0-1.57.58-2.77,1.74-3.61,1.16-.84,2.84-1.26,5.04-1.27h1.82v-.85c0-.68-.18-1.23-.53-1.64-.35-.41-.9-.62-1.66-.62-.67,0-1.19.16-1.57.48-.38.32-.57.76-.57,1.31h-3.95c0-.86.26-1.65.79-2.38.53-.73,1.28-1.3,2.24-1.72.97-.41,2.05-.62,3.25-.62,1.82,0,3.27.46,4.34,1.37,1.07.92,1.61,2.2,1.61,3.86v6.41c0,1.4.21,2.47.59,3.19v.23h-3.99Zm-3.27-2.75c.58,0,1.12-.13,1.61-.39s.86-.61,1.09-1.05v-2.54h-1.48c-1.98,0-3.03.68-3.16,2.05v.23c-.01.49.16.9.51,1.22.35.32.82.48,1.42.48Z"/><path d="m874.33,25.49c0-2.27.54-4.1,1.62-5.48,1.08-1.39,2.54-2.08,4.37-2.08,1.62,0,2.88.56,3.79,1.67l.16-1.39h3.58v14.3c0,1.29-.29,2.42-.88,3.38s-1.42,1.69-2.48,2.19c-1.07.5-2.32.75-3.75.75-1.08,0-2.14-.22-3.17-.65-1.03-.43-1.81-.99-2.34-1.67l1.75-2.41c.98,1.1,2.18,1.65,3.58,1.65,1.05,0,1.86-.28,2.45-.84s.88-1.36.88-2.39v-.79c-.91,1.03-2.11,1.54-3.6,1.54-1.78,0-3.22-.69-4.31-2.08-1.1-1.39-1.65-3.23-1.65-5.53v-.16Zm3.95.29c0,1.34.27,2.39.81,3.16.54.76,1.28,1.14,2.21,1.14,1.2,0,2.06-.45,2.58-1.36v-6.23c-.53-.9-1.38-1.36-2.56-1.36-.95,0-1.69.39-2.24,1.16-.54.78-.81,1.94-.81,3.48Z"/><path d="m897.7,33.27c-2.17,0-3.94-.67-5.3-2-1.36-1.33-2.04-3.1-2.04-5.32v-.38c0-1.49.29-2.81.86-3.99.57-1.17,1.39-2.07,2.44-2.71,1.05-.63,2.25-.95,3.6-.95,2.02,0,3.62.64,4.78,1.91,1.16,1.28,1.74,3.09,1.74,5.43v1.61h-9.42c.13.97.51,1.74,1.16,2.32.64.58,1.46.88,2.44.88,1.52,0,2.71-.55,3.57-1.65l1.94,2.17c-.59.84-1.39,1.49-2.41,1.96s-2.13.7-3.36.7Zm-.45-12.15c-.78,0-1.42.27-1.91.8-.49.53-.8,1.29-.94,2.28h5.5v-.32c-.02-.88-.25-1.56-.71-2.04-.46-.48-1.1-.72-1.94-.72Z"/><path d="m914.04,28.91c0-.48-.24-.86-.72-1.14-.48-.28-1.25-.53-2.3-.75-3.52-.74-5.28-2.23-5.28-4.48,0-1.31.54-2.41,1.63-3.29,1.09-.88,2.51-1.32,4.27-1.32,1.88,0,3.38.44,4.5,1.33,1.12.88,1.69,2.03,1.69,3.45h-3.95c0-.56-.18-1.03-.55-1.4s-.93-.55-1.71-.55c-.67,0-1.18.15-1.54.45s-.55.68-.55,1.15c0,.44.21.79.62,1.06.41.27,1.11.5,2.1.7.98.2,1.81.42,2.49.66,2.09.77,3.13,2.09,3.13,3.98,0,1.35-.58,2.44-1.74,3.27s-2.65,1.25-4.48,1.25c-1.24,0-2.34-.22-3.3-.66-.96-.44-1.72-1.05-2.26-1.82-.55-.77-.82-1.6-.82-2.5h3.75c.04.7.3,1.24.78,1.61.48.37,1.13.56,1.94.56.76,0,1.33-.14,1.72-.43.39-.29.58-.66.58-1.13Z"/><path d="m561.28,579.25h-5.23v14.21h-3.52v-14.21h-5.16v-2.85h13.9v2.85Z"/><path d="m563.04,577.5c0-.51.17-.93.51-1.25s.8-.49,1.39-.49,1.04.16,1.38.49.52.75.52,1.25-.17.94-.52,1.27-.81.49-1.38.49-1.03-.16-1.38-.49-.52-.75-.52-1.27Zm3.6,15.96h-3.4v-12.68h3.4v12.68Z"/><path d="m572.6,580.78l.11,1.42c.9-1.1,2.11-1.65,3.64-1.65,1.63,0,2.75.64,3.36,1.93.89-1.29,2.16-1.93,3.81-1.93,1.38,0,2.4.4,3.07,1.2s1.01,2.01,1.01,3.62v8.1h-3.4v-8.09c0-.72-.14-1.24-.42-1.58s-.78-.5-1.49-.5c-1.02,0-1.72.48-2.11,1.45v8.71s-3.38,0-3.38,0v-8.07c0-.73-.14-1.27-.43-1.59s-.78-.49-1.48-.49c-.96,0-1.66.4-2.09,1.2v8.96h-3.39v-12.68h3.18Z"/><path d="m596.04,593.7c-1.86,0-3.37-.57-4.54-1.71s-1.75-2.66-1.75-4.56v-.33c0-1.27.25-2.41.74-3.42s1.19-1.78,2.09-2.32,1.93-.81,3.09-.81c1.73,0,3.1.55,4.1,1.64s1.49,2.64,1.49,4.65v1.38h-8.07c.11.83.44,1.49.99,1.99s1.25.75,2.09.75c1.3,0,2.32-.47,3.06-1.42l1.66,1.86c-.51.72-1.2,1.28-2.06,1.68s-1.83.6-2.88.6Zm-.39-10.42c-.67,0-1.22.23-1.63.68s-.69,1.11-.8,1.95h4.71v-.27c-.02-.75-.22-1.34-.61-1.75s-.95-.62-1.66-.62Z"/><path d="m609.3,586.53c0-1.79.24-3.49.71-5.11s1.18-3.05,2.11-4.29,1.94-2.11,3.02-2.6l.66,1.83c-1.14.84-2.03,2.15-2.67,3.91s-.96,3.83-.96,6.19v.36c0,2.37.32,4.44.95,6.21s1.53,3.1,2.68,3.97l-.66,1.79c-1.06-.48-2.05-1.32-2.97-2.53s-1.62-2.6-2.1-4.18-.74-3.23-.77-4.95v-.62Z"/><path d="m620.75,580.78l.11,1.42c.9-1.1,2.11-1.65,3.64-1.65,1.63,0,2.75.64,3.36,1.93.89-1.29,2.16-1.93,3.81-1.93,1.38,0,2.4.4,3.07,1.2s1.01,2.01,1.01,3.62v8.1h-3.4v-8.09c0-.72-.14-1.24-.42-1.58s-.78-.5-1.49-.5c-1.02,0-1.72.48-2.11,1.45v8.71s-3.38,0-3.38,0v-8.07c0-.73-.14-1.27-.43-1.59s-.78-.49-1.48-.49c-.96,0-1.66.4-2.09,1.2v8.96h-3.39v-12.68h3.18Z"/><path d="m638.33,577.5c0-.51.17-.93.51-1.25s.8-.49,1.39-.49,1.04.16,1.38.49.52.75.52,1.25-.17.94-.52,1.27-.81.49-1.38.49-1.03-.16-1.38-.49-.52-.75-.52-1.27Zm3.6,15.96h-3.4v-12.68h3.4v12.68Z"/><path d="m647.83,580.78l.11,1.46c.91-1.13,2.12-1.7,3.64-1.7,1.34,0,2.34.39,3,1.18s.99,1.97,1.01,3.54v8.19h-3.39v-8.11c0-.72-.16-1.24-.47-1.56s-.83-.49-1.56-.49c-.95,0-1.67.41-2.14,1.22v8.94h-3.39v-12.68h3.19Z"/><path d="m663.99,586.8c0,1.77-.25,3.46-.76,5.1s-1.24,3.07-2.19,4.32-1.97,2.11-3.06,2.58l-.66-1.79c1.11-.84,1.98-2.12,2.62-3.87s.97-3.75,1-6.01v-.62c0-2.34-.32-4.39-.96-6.18s-1.53-3.12-2.67-4.01l.66-1.79c1.06.46,2.06,1.3,3.01,2.51s1.67,2.62,2.19,4.23.79,3.28.81,5v.53Z"/><path d="m86.39,388.09h6.01v3.52h-17.06v-6.66c0-1.28.23-2.41.7-3.38s1.13-1.72,2-2.24,1.85-.79,2.95-.79c1.67,0,2.99.57,3.96,1.72s1.45,2.73,1.45,4.75v3.08Zm-2.85,0v-3.14c0-.93-.22-1.64-.66-2.13s-1.06-.73-1.88-.73-1.51.25-2.03.74-.78,1.17-.8,2.04v3.22h5.36Z"/><path d="m85.95,377.02c-1.26,0-2.38-.24-3.36-.73s-1.75-1.18-2.29-2.09-.81-1.97-.81-3.17c0-1.71.52-3.11,1.57-4.19s2.47-1.69,4.27-1.81l.87-.02c1.95,0,3.51.54,4.68,1.63s1.76,2.54,1.76,4.37-.59,3.29-1.76,4.38-2.77,1.63-4.78,1.63h-.15Zm.24-3.39c1.21,0,2.13-.23,2.76-.68.64-.45.96-1.1.96-1.95s-.31-1.46-.95-1.92c-.63-.46-1.64-.69-3.02-.69-1.18,0-2.1.23-2.75.69-.65.46-.97,1.11-.97,1.95s.32,1.47.97,1.92c.64.45,1.64.68,3,.68Z"/><path d="m88.9,356.06c-.41,0-.74.21-.98.62s-.45,1.07-.64,1.97c-.63,3.02-1.91,4.52-3.84,4.52-1.12,0-2.06-.47-2.82-1.4s-1.13-2.15-1.13-3.66c0-1.61.38-2.9,1.14-3.86s1.74-1.45,2.95-1.45v3.39c-.48,0-.88.16-1.2.47s-.47.8-.47,1.46c0,.57.13,1.01.39,1.32s.59.47.98.47c.38,0,.68-.18.91-.53s.43-.96.6-1.8.36-1.55.57-2.13c.66-1.79,1.79-2.68,3.41-2.68,1.16,0,2.09.5,2.81,1.49s1.07,2.27,1.07,3.84c0,1.06-.19,2.01-.57,2.83s-.9,1.47-1.56,1.94-1.37.7-2.14.7v-3.21c.6-.03,1.06-.25,1.38-.67s.48-.97.48-1.66c0-.65-.12-1.14-.37-1.47s-.57-.5-.97-.5Z"/><path d="m76.44,350.61c-.51,0-.93-.17-1.25-.51s-.49-.8-.49-1.39.16-1.04.49-1.38.75-.52,1.25-.52.94.17,1.27.52.49.81.49,1.38-.16,1.03-.49,1.38-.75.52-1.27.52Zm15.96-3.6v3.4h-12.68v-3.4h12.68Z"/><path d="m76.61,340.17h3.12v-2.17h2.48v2.17h6.33c.47,0,.8-.09,1.01-.27s.3-.52.3-1.03c0-.38-.03-.71-.08-1h2.57c.2.66.3,1.35.3,2.05,0,2.38-1.2,3.59-3.6,3.63h-6.83v1.85h-2.48v-1.85h-3.12v-3.39Z"/><path d="m76.44,336.14c-.51,0-.93-.17-1.25-.51s-.49-.8-.49-1.39.16-1.04.49-1.38.75-.52,1.25-.52.94.17,1.27.52.49.81.49,1.38-.16,1.03-.49,1.38-.75.52-1.27.52Zm15.96-3.6v3.4h-12.68v-3.4h12.68Z"/><path d="m85.95,330.28c-1.26,0-2.38-.24-3.36-.73s-1.75-1.18-2.29-2.09-.81-1.97-.81-3.17c0-1.71.52-3.11,1.57-4.19s2.47-1.69,4.27-1.81l.87-.02c1.95,0,3.51.54,4.68,1.63s1.76,2.54,1.76,4.37-.59,3.29-1.76,4.38-2.77,1.63-4.78,1.63h-.15Zm.24-3.39c1.21,0,2.13-.23,2.76-.68.64-.45.96-1.1.96-1.95s-.31-1.46-.95-1.92c-.63-.46-1.64-.69-3.02-.69-1.18,0-2.1.23-2.75.69-.65.46-.97,1.11-.97,1.95s.32,1.47.97,1.92c.64.45,1.64.68,3,.68Z"/><path d="m79.72,313.06l1.46-.11c-1.13-.91-1.7-2.12-1.7-3.64,0-1.34.39-2.34,1.18-3s1.97-.99,3.54-1.01h8.19v3.39h-8.11c-.72,0-1.24.16-1.56.47s-.49.83-.49,1.56c0,.95.41,1.67,1.22,2.14h8.94v3.39h-12.68v-3.19Z"/><path d="m85.47,296.61c-1.79,0-3.49-.24-5.11-.71s-3.05-1.18-4.29-2.11-2.11-1.94-2.6-3.02l1.83-.66c.84,1.14,2.15,2.03,3.91,2.67s3.83.96,6.19.96h.36c2.37,0,4.44-.32,6.21-.95s3.1-1.53,3.97-2.68l1.79.66c-.48,1.06-1.32,2.05-2.53,2.97s-2.6,1.62-4.18,2.1-3.23.74-4.95.77h-.62Z"/><path d="m87.32,283.73l1.22,1.22h3.87v3.39h-18v-3.39h9.97l-.84-.66-3.81-3.25v-4.07l5.29,4.58,7.39-4.98v3.89l-5.09,3.26Z"/><path d="m79.72,272.34l1.42-.11c-1.1-.9-1.65-2.11-1.65-3.64,0-1.63.64-2.75,1.93-3.36-1.29-.89-1.93-2.16-1.93-3.81,0-1.38.4-2.4,1.2-3.07s2.01-1.01,3.62-1.01h8.1v3.4h-8.09c-.72,0-1.24.14-1.58.42s-.5.78-.5,1.49c0,1.02.48,1.72,1.45,2.11h8.71s0,3.38,0,3.38h-8.07c-.73,0-1.27.14-1.59.43s-.49.78-.49,1.48c0,.96.4,1.66,1.2,2.09h8.96v3.39h-12.68v-3.18Z"/><path d="m85.74,248.9c1.77,0,3.46.25,5.1.76s3.07,1.24,4.32,2.19,2.11,1.97,2.58,3.06l-1.79.66c-.84-1.11-2.12-1.98-3.87-2.62s-3.75-.97-6.01-1h-.62c-2.34,0-4.39.32-6.18.96s-3.12,1.53-4.01,2.67l-1.79-.66c.46-1.06,1.3-2.06,2.51-3.01s2.62-1.67,4.23-2.19,3.28-.79,5-.81h.53Z"/><path d="m75.17,235.13v1.66h18.6v-1.66h2.61v5.06h-23.82v-5.06h2.61Z"/><path d="m87.93,224.56c-.66,0-1.17.23-1.53.7s-.73,1.31-1.12,2.53-.78,2.18-1.17,2.89c-1.05,1.94-2.46,2.91-4.23,2.91-.92,0-1.74-.26-2.47-.78s-1.29-1.27-1.69-2.24-.61-2.06-.61-3.28.22-2.3.66-3.26,1.06-1.69,1.87-2.22,1.72-.79,2.74-.79v3.52c-.78,0-1.39.25-1.82.74s-.65,1.18-.65,2.07.18,1.53.54,2,.84.71,1.44.71c.55,0,1.02-.28,1.39-.84s.73-1.38,1.05-2.47c.6-2,1.35-3.46,2.24-4.37s2-1.37,3.33-1.37c1.48,0,2.63.56,3.47,1.68s1.26,2.62,1.26,4.51c0,1.31-.24,2.51-.72,3.59s-1.14,1.9-1.97,2.47-1.8.85-2.91.85v-3.53c1.88,0,2.82-1.12,2.82-3.38,0-.84-.17-1.49-.51-1.96s-.81-.7-1.42-.7Z"/><path d="m72.55,220.03v-5.06h23.82v5.06h-2.61v-1.68h-18.6v1.68h-2.61Z"/><line x1="191" y1="56.98" x2="191" y2="508.78" fill="none" stroke="#000" stroke-miterlimit="10" stroke-width="2"/><line x1="1065" y1="507.79" x2="190" y2="507.79" fill="none" stroke="#000" stroke-miterlimit="10" stroke-width="2"/><line x1="275.39" y1="508.02" x2="275.39" y2="521.54" fill="none" stroke="#000" stroke-miterlimit="10" stroke-width="2"/><line x1="359.89" y1="508.02" x2="359.89" y2="521.54" fill="none" stroke="#000" stroke-miterlimit="10" stroke-width="2"/><line x1="444.39" y1="508.02" x2="444.39" y2="521.54" fill="none" stroke="#000" stroke-miterlimit="10" stroke-width="2"/><line x1="528.89" y1="508.02" x2="528.89" y2="521.54" fill="none" stroke="#000" stroke-miterlimit="10" stroke-width="2"/><line x1="613.39" y1="508.02" x2="613.39" y2="521.54" fill="none" stroke="#000" stroke-miterlimit="10" stroke-width="2"/><line x1="697.88" y1="508.02" x2="697.88" y2="521.54" fill="none" stroke="#000" stroke-miterlimit="10" stroke-width="2"/><line x1="782.38" y1="508.02" x2="782.38" y2="521.54" fill="none" stroke="#000" stroke-miterlimit="10" stroke-width="2"/><line x1="866.88" y1="508.01" x2="866.88" y2="521.54" fill="none" stroke="#000" stroke-miterlimit="10" stroke-width="2"/><line x1="951.38" y1="508.01" x2="951.38" y2="521.54" fill="none" stroke="#000" stroke-miterlimit="10" stroke-width="2"/><line x1="178.48" y1="451.58" x2="192" y2="451.58" fill="none" stroke="#000" stroke-miterlimit="10" stroke-width="2"/><line x1="178.48" y1="395.36" x2="192" y2="395.36" fill="none" stroke="#000" stroke-miterlimit="10" stroke-width="2"/><line x1="178.48" y1="339.14" x2="192" y2="339.14" fill="none" stroke="#000" stroke-miterlimit="10" stroke-width="2"/><line x1="178.48" y1="282.92" x2="192" y2="282.92" fill="none" stroke="#000" stroke-miterlimit="10" stroke-width="2"/><line x1="178.48" y1="226.7" x2="192" y2="226.7" fill="none" stroke="#000" stroke-miterlimit="10" stroke-width="2"/><line x1="178.48" y1="170.47" x2="192" y2="170.47" fill="none" stroke="#000" stroke-miterlimit="10" stroke-width="2"/><line x1="178.48" y1="114.25" x2="192" y2="114.25" fill="none" stroke="#000" stroke-miterlimit="10" stroke-width="2"/><path d="m134.71,123.24h-2.12v-14.45l-4.25,1.61v-1.97l6.05-2.33h.33v17.14Z" fill="#212728"/><path d="m149.8,117.51h2.3v1.77h-2.3v3.96h-2.12v-3.96h-7.56v-1.28l7.44-11.82h2.25v11.33Zm-7.29,0h5.17v-8.37l-.25.47-4.92,7.9Z" fill="#212728"/><path d="m154.28,122.11c0-.38.11-.69.33-.94s.54-.38.98-.38.76.12.99.38.34.56.34.94-.11.66-.34.9-.55.36-.99.36-.76-.12-.98-.36-.33-.54-.33-.9Z" fill="#212728"/><path d="m170.58,115.97c0,2.54-.42,4.43-1.27,5.66-.84,1.23-2.16,1.85-3.96,1.85s-3.08-.6-3.94-1.81-1.29-3.01-1.32-5.41v-2.89c0-2.51.42-4.37,1.27-5.59s2.17-1.83,3.97-1.83,3.1.59,3.95,1.76c.84,1.18,1.28,2.99,1.3,5.44v2.81Zm-2.11-2.96c0-1.84-.25-3.17-.75-4.01s-1.3-1.26-2.38-1.26-1.87.42-2.36,1.25-.75,2.12-.76,3.86v3.47c0,1.84.26,3.21.78,4.08.52.88,1.31,1.32,2.37,1.32s1.82-.41,2.32-1.24c.5-.83.77-2.13.79-3.91v-3.55Z" fill="#212728"/><path d="m134.71,179.24h-2.12v-14.45l-4.25,1.61v-1.97l6.05-2.33h.33v17.14Z" fill="#212728"/><path d="m151.78,179.24h-10.88v-1.56l5.75-6.56c.85-.99,1.44-1.8,1.76-2.42.32-.62.48-1.26.48-1.93,0-.89-.26-1.62-.79-2.19s-1.22-.86-2.1-.86c-1.05,0-1.87.31-2.45.92s-.87,1.47-.87,2.56h-2.11c0-1.57.49-2.84,1.48-3.81s2.3-1.45,3.95-1.45c1.54,0,2.76.42,3.66,1.25s1.35,1.94,1.35,3.32c0,1.68-1.04,3.68-3.13,6l-4.45,4.96h8.34v1.77Z" fill="#212728"/><path d="m154.28,178.11c0-.38.11-.69.33-.94s.54-.38.98-.38.76.12.99.38.34.56.34.94-.11.66-.34.9-.55.36-.99.36-.76-.12-.98-.36-.33-.54-.33-.9Z" fill="#212728"/><path d="m170.58,171.97c0,2.54-.42,4.43-1.27,5.66-.84,1.23-2.16,1.85-3.96,1.85s-3.08-.6-3.94-1.81-1.29-3.01-1.32-5.41v-2.89c0-2.51.42-4.37,1.27-5.59s2.17-1.83,3.97-1.83,3.1.59,3.95,1.76c.84,1.18,1.28,2.99,1.3,5.44v2.81Zm-2.11-2.96c0-1.84-.25-3.17-.75-4.01s-1.3-1.26-2.38-1.26-1.87.42-2.36,1.25-.75,2.12-.76,3.86v3.47c0,1.84.26,3.21.78,4.08.52.88,1.31,1.32,2.37,1.32s1.82-.41,2.32-1.24c.5-.83.77-2.13.79-3.91v-3.55Z" fill="#212728"/><path d="m134.71,235.24h-2.12v-14.45l-4.25,1.61v-1.97l6.05-2.33h.33v17.14Z" fill="#212728"/><path d="m151.31,227.97c0,2.54-.42,4.43-1.27,5.66-.84,1.23-2.16,1.85-3.96,1.85s-3.08-.6-3.94-1.81-1.29-3.01-1.32-5.41v-2.89c0-2.51.42-4.37,1.27-5.59s2.17-1.83,3.97-1.83,3.1.59,3.95,1.76c.84,1.18,1.28,2.99,1.3,5.44v2.81Zm-2.11-2.96c0-1.84-.25-3.17-.75-4.01s-1.3-1.26-2.38-1.26-1.87.42-2.36,1.25-.75,2.12-.76,3.86v3.47c0,1.84.26,3.21.78,4.08.52.88,1.31,1.32,2.37,1.32s1.82-.41,2.32-1.24c.5-.83.77-2.13.79-3.91v-3.55Z" fill="#212728"/><path d="m154.28,234.11c0-.38.11-.69.33-.94s.54-.38.98-.38.76.12.99.38.34.56.34.94-.11.66-.34.9-.55.36-.99.36-.76-.12-.98-.36-.33-.54-.33-.9Z" fill="#212728"/><path d="m170.58,227.97c0,2.54-.42,4.43-1.27,5.66-.84,1.23-2.16,1.85-3.96,1.85s-3.08-.6-3.94-1.81-1.29-3.01-1.32-5.41v-2.89c0-2.51.42-4.37,1.27-5.59s2.17-1.83,3.97-1.83,3.1.59,3.95,1.76c.84,1.18,1.28,2.99,1.3,5.44v2.81Zm-2.11-2.96c0-1.84-.25-3.17-.75-4.01s-1.3-1.26-2.38-1.26-1.87.42-2.36,1.25-.75,2.12-.76,3.86v3.47c0,1.84.26,3.21.78,4.08.52.88,1.31,1.32,2.37,1.32s1.82-.41,2.32-1.24c.5-.83.77-2.13.79-3.91v-3.55Z" fill="#212728"/><path d="m150.97,278.63c0,.85-.22,1.61-.66,2.27s-1.03,1.18-1.77,1.56c.87.38,1.55.94,2.06,1.68s.76,1.57.76,2.5c0,1.48-.48,2.65-1.45,3.53s-2.25,1.31-3.83,1.31-2.88-.44-3.84-1.32-1.44-2.05-1.44-3.52c0-.92.25-1.75.74-2.5.49-.74,1.17-1.3,2.04-1.69-.74-.38-1.32-.89-1.75-1.56-.43-.66-.64-1.42-.64-2.26,0-1.44.45-2.58,1.35-3.42s2.08-1.27,3.55-1.27,2.64.42,3.54,1.27,1.35,1.98,1.35,3.42Zm-1.72,7.96c0-.95-.29-1.73-.88-2.33-.59-.6-1.36-.9-2.31-.9s-1.71.3-2.29.89-.86,1.38-.86,2.34.28,1.73.84,2.29,1.34.83,2.33.83,1.76-.28,2.33-.84c.56-.56.84-1.32.84-2.28Zm-3.17-10.86c-.83,0-1.5.26-2.01.79s-.77,1.24-.77,2.15.25,1.57.76,2.1,1.18.8,2.03.8,1.52-.27,2.02-.8.76-1.24.76-2.1-.26-1.57-.79-2.12-1.19-.82-2-.82Z" fill="#212728"/><path d="m154.28,290.11c0-.38.11-.69.33-.94s.54-.38.98-.38.76.12.99.38.34.56.34.94-.11.66-.34.9-.55.36-.99.36-.76-.12-.98-.36-.33-.54-.33-.9Z" fill="#212728"/><path d="m170.58,283.97c0,2.54-.42,4.43-1.27,5.66-.84,1.23-2.16,1.85-3.96,1.85s-3.08-.6-3.94-1.81-1.29-3.01-1.32-5.41v-2.89c0-2.51.42-4.37,1.27-5.59s2.17-1.83,3.97-1.83,3.1.59,3.95,1.76c.84,1.18,1.28,2.99,1.3,5.44v2.81Zm-2.11-2.96c0-1.84-.25-3.17-.75-4.01s-1.3-1.26-2.38-1.26-1.87.42-2.36,1.25-.75,2.12-.76,3.86v3.47c0,1.84.26,3.21.78,4.08.52.88,1.31,1.32,2.37,1.32s1.82-.41,2.32-1.24c.5-.83.77-2.13.79-3.91v-3.55Z" fill="#212728"/><path d="m149.18,330.17v1.84h-.39c-1.64.03-2.95.53-3.92,1.5-.97.97-1.54,2.33-1.69,4.09.87-1.03,2.07-1.55,3.58-1.55s2.6.52,3.46,1.57,1.29,2.4,1.29,4.05c0,1.76-.47,3.16-1.4,4.22s-2.18,1.58-3.75,1.58-2.88-.63-3.87-1.88c-.99-1.25-1.48-2.87-1.48-4.85v-.83c0-3.14.65-5.54,1.96-7.2,1.3-1.66,3.25-2.51,5.82-2.55h.38Zm-2.77,7.69c-.72,0-1.39.22-2,.67s-1.03,1-1.27,1.68v.8c0,1.41.31,2.54.92,3.4s1.38,1.29,2.3,1.29,1.7-.36,2.24-1.08.82-1.66.82-2.82-.28-2.12-.83-2.84-1.28-1.08-2.2-1.08Z" fill="#212728"/><path d="m154.28,346.11c0-.38.11-.69.33-.94s.54-.38.98-.38.76.12.99.38.34.56.34.94-.11.66-.34.9-.55.36-.99.36-.76-.12-.98-.36-.33-.54-.33-.9Z" fill="#212728"/><path d="m170.58,339.97c0,2.54-.42,4.43-1.27,5.66-.84,1.23-2.16,1.85-3.96,1.85s-3.08-.6-3.94-1.81-1.29-3.01-1.32-5.41v-2.89c0-2.51.42-4.37,1.27-5.59s2.17-1.83,3.97-1.83,3.1.59,3.95,1.76c.84,1.18,1.28,2.99,1.3,5.44v2.81Zm-2.11-2.96c0-1.84-.25-3.17-.75-4.01s-1.3-1.26-2.38-1.26-1.87.42-2.36,1.25-.75,2.12-.76,3.86v3.47c0,1.84.26,3.21.78,4.08.52.88,1.31,1.32,2.37,1.32s1.82-.41,2.32-1.24c.5-.83.77-2.13.79-3.91v-3.55Z" fill="#212728"/><path d="m149.81,397.51h2.3v1.77h-2.3v3.96h-2.12v-3.96h-7.56v-1.28l7.44-11.82h2.25v11.33Zm-7.29,0h5.17v-8.37l-.25.47-4.92,7.9Z" fill="#212728"/><path d="m154.28,402.11c0-.38.11-.69.33-.94s.54-.38.98-.38.76.12.99.38.34.56.34.94-.11.66-.34.9-.55.36-.99.36-.76-.12-.98-.36-.33-.54-.33-.9Z" fill="#212728"/><path d="m170.58,395.97c0,2.54-.42,4.43-1.27,5.66-.84,1.23-2.16,1.85-3.96,1.85s-3.08-.6-3.94-1.81-1.29-3.01-1.32-5.41v-2.89c0-2.51.42-4.37,1.27-5.59s2.17-1.83,3.97-1.83,3.1.59,3.95,1.76c.84,1.18,1.28,2.99,1.3,5.44v2.81Zm-2.11-2.96c0-1.84-.25-3.17-.75-4.01s-1.3-1.26-2.38-1.26-1.87.42-2.36,1.25-.75,2.12-.76,3.86v3.47c0,1.84.26,3.21.78,4.08.52.88,1.31,1.32,2.37,1.32s1.82-.41,2.32-1.24c.5-.83.77-2.13.79-3.91v-3.55Z" fill="#212728"/><path d="m151.78,459.24h-10.88v-1.56l5.75-6.56c.85-.99,1.44-1.8,1.76-2.42.32-.62.48-1.26.48-1.93,0-.89-.26-1.62-.79-2.19s-1.22-.86-2.1-.86c-1.05,0-1.87.31-2.45.92s-.87,1.47-.87,2.56h-2.11c0-1.57.49-2.84,1.48-3.81s2.3-1.45,3.95-1.45c1.54,0,2.76.42,3.66,1.25s1.35,1.94,1.35,3.32c0,1.68-1.04,3.68-3.13,6l-4.45,4.96h8.34v1.77Z" fill="#212728"/><path d="m154.28,458.11c0-.38.11-.69.33-.94s.54-.38.98-.38.76.12.99.38.34.56.34.94-.11.66-.34.9-.55.36-.99.36-.76-.12-.98-.36-.33-.54-.33-.9Z" fill="#212728"/><path d="m170.58,451.97c0,2.54-.42,4.43-1.27,5.66-.84,1.23-2.16,1.85-3.96,1.85s-3.08-.6-3.94-1.81-1.29-3.01-1.32-5.41v-2.89c0-2.51.42-4.37,1.27-5.59s2.17-1.83,3.97-1.83,3.1.59,3.95,1.76c.84,1.18,1.28,2.99,1.3,5.44v2.81Zm-2.11-2.96c0-1.84-.25-3.17-.75-4.01s-1.3-1.26-2.38-1.26-1.87.42-2.36,1.25-.75,2.12-.76,3.86v3.47c0,1.84.26,3.21.78,4.08.52.88,1.31,1.32,2.37,1.32s1.82-.41,2.32-1.24c.5-.83.77-2.13.79-3.91v-3.55Z" fill="#212728"/><path d="m170.58,507.97c0,2.54-.42,4.43-1.27,5.66-.84,1.23-2.16,1.85-3.96,1.85s-3.08-.6-3.94-1.81-1.29-3.01-1.32-5.41v-2.89c0-2.51.42-4.37,1.27-5.59s2.17-1.83,3.97-1.83,3.1.59,3.95,1.76c.84,1.18,1.28,2.99,1.3,5.44v2.81Zm-2.11-2.96c0-1.84-.25-3.17-.75-4.01s-1.3-1.26-2.38-1.26-1.87.42-2.36,1.25-.75,2.12-.76,3.86v3.47c0,1.84.26,3.21.78,4.08.52.88,1.31,1.32,2.37,1.32s1.82-.41,2.32-1.24c.5-.83.77-2.13.79-3.91v-3.55Z" fill="#212728"/><path d="m271.18,538.78l.84-8.51h8.51v2h-6.72l-.5,4.65c.81-.49,1.74-.74,2.77-.74,1.51,0,2.71.51,3.61,1.54.89,1.03,1.33,2.42,1.33,4.17s-.46,3.14-1.39,4.15-2.21,1.52-3.87,1.52c-1.47,0-2.67-.42-3.59-1.25-.93-.84-1.46-1.99-1.59-3.47h2c.13.98.47,1.71,1.02,2.21.55.5,1.27.74,2.17.74.98,0,1.75-.34,2.31-1.03.56-.69.84-1.64.84-2.85,0-1.14-.3-2.06-.91-2.75-.61-.69-1.41-1.04-2.41-1.04-.92,0-1.64.21-2.17.62l-.56.47-1.69-.45Z" fill="#212728"/><path d="m354.59,547.33h-2.12v-14.45l-4.25,1.61v-1.97l6.05-2.33h.33v17.14Z" fill="#212728"/><path d="m371.19,540.06c0,2.54-.42,4.43-1.27,5.66-.84,1.23-2.16,1.85-3.96,1.85s-3.08-.6-3.94-1.81-1.29-3.01-1.32-5.41v-2.89c0-2.51.42-4.37,1.27-5.59s2.17-1.83,3.97-1.83,3.1.59,3.95,1.76c.84,1.18,1.28,2.99,1.3,5.44v2.81Zm-2.11-2.96c0-1.84-.25-3.17-.75-4.01s-1.3-1.26-2.38-1.26-1.87.42-2.36,1.25-.75,2.12-.76,3.86v3.47c0,1.84.26,3.21.78,4.08.52.88,1.31,1.32,2.37,1.32s1.82-.41,2.32-1.24c.5-.83.77-2.13.79-3.91v-3.55Z" fill="#212728"/><path d="m439.59,547.33h-2.12v-14.45l-4.25,1.61v-1.97l6.05-2.33h.33v17.14Z" fill="#212728"/><path d="m446.74,538.78l.84-8.51h8.51v2h-6.72l-.5,4.65c.81-.49,1.74-.74,2.77-.74,1.51,0,2.71.51,3.61,1.54.89,1.03,1.33,2.42,1.33,4.17s-.46,3.14-1.39,4.15-2.21,1.52-3.87,1.52c-1.47,0-2.67-.42-3.59-1.25-.93-.84-1.46-1.99-1.59-3.47h2c.13.98.47,1.71,1.02,2.21.55.5,1.27.74,2.17.74.98,0,1.75-.34,2.31-1.03.56-.69.84-1.64.84-2.85,0-1.14-.3-2.06-.91-2.75-.61-.69-1.41-1.04-2.41-1.04-.92,0-1.64.21-2.17.62l-.56.47-1.69-.45Z" fill="#212728"/><path d="m528.54,547.33h-10.88v-1.56l5.75-6.56c.85-.99,1.44-1.8,1.76-2.42.32-.62.48-1.26.48-1.93,0-.89-.26-1.62-.79-2.19s-1.22-.86-2.1-.86c-1.05,0-1.87.31-2.45.92s-.87,1.47-.87,2.56h-2.11c0-1.57.49-2.84,1.48-3.81s2.3-1.45,3.95-1.45c1.54,0,2.76.42,3.66,1.25s1.35,1.94,1.35,3.32c0,1.68-1.04,3.68-3.13,6l-4.45,4.96h8.34v1.77Z" fill="#212728"/><path d="m541.19,540.06c0,2.54-.42,4.43-1.27,5.66-.84,1.23-2.16,1.85-3.96,1.85s-3.08-.6-3.94-1.81-1.29-3.01-1.32-5.41v-2.89c0-2.51.42-4.37,1.27-5.59s2.17-1.83,3.97-1.83,3.1.59,3.95,1.76c.84,1.18,1.28,2.99,1.3,5.44v2.81Zm-2.11-2.96c0-1.84-.25-3.17-.75-4.01s-1.3-1.26-2.38-1.26-1.87.42-2.36,1.25-.75,2.12-.76,3.86v3.47c0,1.84.26,3.21.78,4.08.52.88,1.31,1.32,2.37,1.32s1.82-.41,2.32-1.24c.5-.83.77-2.13.79-3.91v-3.55Z" fill="#212728"/><path d="m612.54,547.33h-10.88v-1.56l5.75-6.56c.85-.99,1.44-1.8,1.76-2.42.32-.62.48-1.26.48-1.93,0-.89-.26-1.62-.79-2.19s-1.22-.86-2.1-.86c-1.05,0-1.87.31-2.45.92s-.87,1.47-.87,2.56h-2.11c0-1.57.49-2.84,1.48-3.81s2.3-1.45,3.95-1.45c1.54,0,2.76.42,3.66,1.25s1.35,1.94,1.35,3.32c0,1.68-1.04,3.68-3.13,6l-4.45,4.96h8.34v1.77Z" fill="#212728"/><path d="m615.74,538.78l.84-8.51h8.51v2h-6.72l-.5,4.65c.81-.49,1.74-.74,2.77-.74,1.51,0,2.71.51,3.61,1.54.89,1.03,1.33,2.42,1.33,4.17s-.46,3.14-1.39,4.15-2.21,1.52-3.87,1.52c-1.47,0-2.67-.42-3.59-1.25-.93-.84-1.46-1.99-1.59-3.47h2c.13.98.47,1.71,1.02,2.21.55.5,1.27.74,2.17.74.98,0,1.75-.34,2.31-1.03.56-.69.84-1.64.84-2.85,0-1.14-.3-2.06-.91-2.75-.61-.69-1.41-1.04-2.41-1.04-.92,0-1.64.21-2.17.62l-.56.47-1.69-.45Z" fill="#212728"/><path d="m689.72,537.75h1.58c1-.02,1.78-.29,2.35-.81s.86-1.23.86-2.12c0-2-.97-3-2.91-3-.91,0-1.64.27-2.18.8s-.82,1.24-.82,2.13h-2.11c0-1.35.48-2.47,1.44-3.37.96-.89,2.18-1.34,3.67-1.34,1.57,0,2.79.43,3.68,1.28s1.33,2.04,1.33,3.55c0,.74-.23,1.46-.7,2.16-.47.7-1.1,1.21-1.91,1.56.91.3,1.62.79,2.12,1.48s.75,1.53.75,2.52c0,1.53-.49,2.75-1.46,3.64-.97.9-2.24,1.35-3.8,1.35s-2.83-.43-3.8-1.3-1.47-2.01-1.47-3.43h2.12c0,.9.29,1.62.86,2.16s1.33.81,2.29.81c1.02,0,1.8-.27,2.34-.82s.81-1.33.81-2.36-.3-1.75-.89-2.29c-.59-.53-1.45-.8-2.57-.82h-1.58v-1.77Z" fill="#212728"/><path d="m710.19,540.06c0,2.54-.42,4.43-1.27,5.66-.84,1.23-2.16,1.85-3.96,1.85s-3.08-.6-3.94-1.81-1.29-3.01-1.32-5.41v-2.89c0-2.51.42-4.37,1.27-5.59s2.17-1.83,3.97-1.83,3.1.59,3.95,1.76c.84,1.18,1.28,2.99,1.3,5.44v2.81Zm-2.11-2.96c0-1.84-.25-3.17-.75-4.01s-1.3-1.26-2.38-1.26-1.87.42-2.36,1.25-.75,2.12-.76,3.86v3.47c0,1.84.26,3.21.78,4.08.52.88,1.31,1.32,2.37,1.32s1.82-.41,2.32-1.24c.5-.83.77-2.13.79-3.91v-3.55Z" fill="#212728"/><path d="m773.72,537.75h1.58c1-.02,1.78-.29,2.35-.81s.86-1.23.86-2.12c0-2-.97-3-2.91-3-.91,0-1.64.27-2.18.8s-.82,1.24-.82,2.13h-2.11c0-1.35.48-2.47,1.44-3.37.96-.89,2.18-1.34,3.67-1.34,1.57,0,2.79.43,3.68,1.28s1.33,2.04,1.33,3.55c0,.74-.23,1.46-.7,2.16-.47.7-1.1,1.21-1.91,1.56.91.3,1.62.79,2.12,1.48s.75,1.53.75,2.52c0,1.53-.49,2.75-1.46,3.64-.97.9-2.24,1.35-3.8,1.35s-2.83-.43-3.8-1.3-1.47-2.01-1.47-3.43h2.12c0,.9.29,1.62.86,2.16s1.33.81,2.29.81c1.02,0,1.8-.27,2.34-.82s.81-1.33.81-2.36-.3-1.75-.89-2.29c-.59-.53-1.45-.8-2.57-.82h-1.58v-1.77Z" fill="#212728"/><path d="m784.74,538.78l.84-8.51h8.51v2h-6.72l-.5,4.65c.81-.49,1.74-.74,2.77-.74,1.51,0,2.71.51,3.61,1.54.89,1.03,1.33,2.42,1.33,4.17s-.46,3.14-1.39,4.15-2.21,1.52-3.87,1.52c-1.47,0-2.67-.42-3.59-1.25-.93-.84-1.46-1.99-1.59-3.47h2c.13.98.47,1.71,1.02,2.21.55.5,1.27.74,2.17.74.98,0,1.75-.34,2.31-1.03.56-.69.84-1.64.84-2.85,0-1.14-.3-2.06-.91-2.75-.61-.69-1.41-1.04-2.41-1.04-.92,0-1.64.21-2.17.62l-.56.47-1.69-.45Z" fill="#212728"/><path d="m863.56,541.6h2.3v1.77h-2.3v3.96h-2.12v-3.96h-7.56v-1.28l7.44-11.82h2.25v11.33Zm-7.29,0h5.17v-8.37l-.25.47-4.92,7.9Z" fill="#212728"/><path d="m878.19,540.06c0,2.54-.42,4.43-1.27,5.66-.84,1.23-2.16,1.85-3.96,1.85s-3.08-.6-3.94-1.81-1.29-3.01-1.32-5.41v-2.89c0-2.51.42-4.37,1.27-5.59s2.17-1.83,3.97-1.83,3.1.59,3.95,1.76c.84,1.18,1.28,2.99,1.3,5.44v2.81Zm-2.11-2.96c0-1.84-.25-3.17-.75-4.01s-1.3-1.26-2.38-1.26-1.87.42-2.36,1.25-.75,2.12-.76,3.86v3.47c0,1.84.26,3.21.78,4.08.52.88,1.31,1.32,2.37,1.32s1.82-.41,2.32-1.24c.5-.83.77-2.13.79-3.91v-3.55Z" fill="#212728"/><path d="m948.56,541.6h2.3v1.77h-2.3v3.96h-2.12v-3.96h-7.56v-1.28l7.44-11.82h2.25v11.33Zm-7.29,0h5.17v-8.37l-.25.47-4.92,7.9Z" fill="#212728"/><path d="m953.74,538.78l.84-8.51h8.51v2h-6.72l-.5,4.65c.81-.49,1.74-.74,2.77-.74,1.51,0,2.71.51,3.61,1.54.89,1.03,1.33,2.42,1.33,4.17s-.46,3.14-1.39,4.15-2.21,1.52-3.87,1.52c-1.47,0-2.67-.42-3.59-1.25-.93-.84-1.46-1.99-1.59-3.47h2c.13.98.47,1.71,1.02,2.21.55.5,1.27.74,2.17.74.98,0,1.75-.34,2.31-1.03.56-.69.84-1.64.84-2.85,0-1.14-.3-2.06-.91-2.75-.61-.69-1.41-1.04-2.41-1.04-.92,0-1.64.21-2.17.62l-.56.47-1.69-.45Z" fill="#212728"/><path d="m196.63,540.06c0,2.54-.42,4.43-1.27,5.66-.84,1.23-2.16,1.85-3.96,1.85s-3.08-.6-3.94-1.81-1.29-3.01-1.32-5.41v-2.89c0-2.51.42-4.37,1.27-5.59s2.17-1.83,3.97-1.83,3.1.59,3.95,1.76c.84,1.18,1.28,2.99,1.3,5.44v2.81Zm-2.11-2.96c0-1.84-.25-3.17-.75-4.01s-1.3-1.26-2.38-1.26-1.87.42-2.36,1.25-.75,2.12-.76,3.86v3.47c0,1.84.26,3.21.78,4.08.52.88,1.31,1.32,2.37,1.32s1.82-.41,2.32-1.24c.5-.83.77-2.13.79-3.91v-3.55Z" fill="#212728"/></svg>