<?xml version="1.0" encoding="UTF-8"?>
<svg id="Layer_2" data-name="Layer 2" xmlns="http://www.w3.org/2000/svg" width="1140" height="641" xmlns:xlink="http://www.w3.org/1999/xlink" viewBox="0 0 1140 641">
  <defs>
    <style>
      .cls-1, .cls-2, .cls-3 {
        fill: none;
      }

      .cls-4 {
        clip-path: url(#clippath);
      }

      .cls-5 {
        fill: #fff;
      }

      .cls-6 {
        fill: #7cc953;
      }

      .cls-7 {
        fill: #663f16;
      }

      .cls-8 {
        fill: #73a05e;
      }

      .cls-9 {
        fill: #b6e3ff;
      }

      .cls-10 {
        fill: #1497a5;
      }

      .cls-11 {
        fill: #097684;
      }

      .cls-12 {
        fill: #3d7d32;
      }

      .cls-13 {
        fill: #0b6fff;
      }

      .cls-14 {
        fill: #605d4f;
      }

      .cls-2 {
        stroke: #4a483d;
        stroke-width: 2px;
      }

      .cls-2, .cls-3 {
        stroke-miterlimit: 10;
      }

      .cls-3 {
        stroke: #000;
        stroke-dasharray: 0 0 3 8;
        stroke-linecap: round;
        stroke-width: 3px;
      }
    </style>
    <clipPath id="clippath">
      <path class="cls-1" d="m22.07,318.54c6.19,103.13-51.56,276.39,142.32,303.2s233.07-14.44,383.64-14.44,317.64,43.31,505.34,10.31c89.24-15.69,111.38-416.64,16.5-511.52S838.86,15.34,537.72,11.21,123.14-11.47,61.26,66.9s-39.19,251.64-39.19,251.64Z"/>
    </clipPath>
  </defs>
  <g class="cls-4">
    <rect class="cls-9" x="-9.11" y="-17.67" width="1169.7" height="691.19"/>
    <g>
      <g>
        <path class="cls-12" d="m174.83,116.13c5.31,2.59,11.52,2.75,16.99.43,4.89-2.08,9.03-5.96,13.72-8.6,4.68-2.64,10.56-3.88,14.86-.61,5.58,4.26,6.27,14.37,12.24,17.87,3.91,2.29,8.64.87,13.02.16,4.39-.71,9.74-.06,11.75,4.41.98,2.18.9,4.8,1.65,7.11,1.88,5.78,8.24,8,10.85,13.39,1.29,2.68,1.52,5.88,1.3,8.95-.9,12.84-9.78,24.52-20.77,27.35-2.66.69-5.44.91-7.95,2.13-2.52,1.22-4.82,3.79-4.88,6.91-.02.91.15,1.86-.15,2.71-.38,1.04-1.37,1.6-2.29,1.99-11.52,4.87-24-2.3-36.23-2.1-1.51.02-3.11.14-4.42-.7-1.14-.73-1.86-2.06-2.7-3.21-3.4-4.7-8.96-6.61-14.29-7.18s-10.76-.03-16.05-.95c-5.29-.91-10.71-3.62-13.36-8.93-2.65-5.3-1.2-13.43,3.82-15.68"/>
        <polygon class="cls-7" points="197.14 194.07 193.35 238.81 208.3 239.24 209.65 193.45 197.14 194.07"/>
      </g>
      <g>
        <path class="cls-12" d="m144.84,191.14c-12.41-5.8-26.95-1.98-40.63-2.67-2.83-.14-5.76-.52-8.15-2.03-2.98-1.88-4.67-5.22-6.11-8.43-3.46-7.72-6.39-15.87-11.85-22.32-3.22-3.81-7.46-7.31-8.2-12.25-.87-5.82,3.55-11.44,2.78-17.28-.5-3.77-3.14-7.14-2.95-10.94.5-10.06,19.41-12.64,21.17-22.56-4.81-3.87-3.98-12.02.37-16.4,3.08-3.11,7.77-5.31,8.51-9.62.45-2.6-.77-5.17-1.15-7.79-.77-5.27,2.08-10.7,6.49-13.68s10.11-3.69,15.32-2.61c4.8.99,9.49,3.4,14.35,2.74,8-1.09,11.95,11.26,19.55,13.99,6.22,2.24,13.36-1.99,19.62.13,6.05,2.05,8.81,9.44,7.93,15.77-.87,6.32-4.42,11.9-7.51,17.48-.76,1.37-1.51,2.86-1.33,4.41.21,1.86,1.69,3.27,2.92,4.68,6.49,7.39,7.69,18.96,2.86,27.53,8.77,5.22,12.75,17.23,8.84,26.65-5.52,13.31-22.59,18.05-30.22,30.27-1.07,1.72-2.01,3.64-3.68,4.78-2.51,1.72-6.17,1.45-8.93.16Z"/>
        <polygon class="cls-7" points="133.46 176.14 132.58 296.36 110.83 294.81 119.15 181.36 133.46 176.14"/>
      </g>
    </g>
    <path class="cls-6" d="m127.66,268.68s30.13-49.24,51.44-46.3,30.86,12.49,30.86,12.49c0,0,18.37-22.78,44.83-30.13s19.84-9.55,31.6-18.37,21.31-22.05,27.93-12.49c6.61,9.55-.73,41.15,1.47,49.24s16.9-6.61,24.99,4.41c8.08,11.02,19.84,41.89,19.84,41.89l-232.96-.73Z"/>
    <path class="cls-14" d="m616.91,294.4v-19.08H-67.87v372.53h684.78v-113.29l10.16-21.96,11.29-67.76,21.46-24.85s11.29-115.2,12.42-118.59l-55.34-7.01Z"/>
    <g>
      <path class="cls-2" d="m620.86,373.23c-26.11,17.16-54.29,34.81-83.28,29.7-13.22-2.33-26.44-9.37-39.48-5.75"/>
      <path class="cls-2" d="m607.19,453.3c-42.09-5.63-85.56-4.91-127.31,2.12"/>
      <path class="cls-2" d="m258.75,400.85c-27.28,1.08-54.69,2.16-81.79-2.16-34.8-5.55-70.68-19.83-104.07-5.92-15.64,6.51-32.97,18.88-47.16,8.14"/>
      <path class="cls-2" d="m133.92,431.01c26.95,5.48,75.99,5.81,103.04,1.21"/>
      <path class="cls-2" d="m-45.38,531.36c22.44,2.92,53.14,29.66,124.94,13.71,10.29-2.29,19.61-8.46,29.32-13.05,37.93-17.95,79.49-26.18,118.91-14.93"/>
      <path class="cls-2" d="m585.35,517c-101.17,32.64-204.4,60.28-298.45,116.08-42.91,25.46-89.44,57.41-136.2,38.82"/>
      <path class="cls-2" d="m252.42,572.88c39.17-7.52,76.1-28.32,114.79-39.23,18.64-5.26,37.62-8.19,56.56-11.13,52.96-8.2,105.92-16.39,158.88-24.59"/>
      <path class="cls-2" d="m587.68,346.04c-58.94,20.7-120.01,31.15-181.06,30.98-109.9-.31-220.75-34.68-328.73-8.12"/>
      <path class="cls-2" d="m27.41,489.14c43.43,24.31,93.04,10.56,140.05,3.96,34.23-4.81,68.71-5.58,103.14-6.34,55.33-1.23,110.66-2.46,165.99-3.69"/>
      <path class="cls-2" d="m429.33,432.6c-52.75-5.57-105.33,8.93-157.74,18.42-88.73,16.07-227.89,8.85-316.96-3.7"/>
    </g>
    <path class="cls-8" d="m-68.7,261.97s228.38,1.54,379.6,1.54,344.11,1.54,357.99,4.63,23.15,43.21,1.54,58.64-72.52-1.54-72.52-1.54c0,0-49.38,24.69-135.79,29.32s-131.16-15.43-131.16-15.43c0,0-50.92,7.72-97.21,1.54s-50.92-18.52-75.61-20.06-43.21,7.72-86.41,10.8-94.13-7.72-94.13-7.72l-49.38-4.63,3.09-57.09Z"/>
    <path class="cls-10" d="m-67.24,558.13s101.39.86,228.23-1.44,86,11.14,215.23,11.56c182.52.59,180.66-11.71,304.79-13,105.44-1.1,143.29,14.75,258.61,12.44s267.19-9.55,267.19-9.55l4.95,113.34H-77.45l10.21-113.34Z"/>
    <g>
      <path class="cls-5" d="m284.34,103.11c107.41,11.85,215.74-4.25,323.8-5.45-23.97-6.07-47.94-12.14-71.9-18.22-11.87-3.01-24.08-6.04-36.22-4.51-7.12.9-13.96,3.34-21.05,4.44-26.09,4.07-51.24-10.1-77.29-14.37-15.25-2.5-31.06-1.54-45.9,2.77-3.32-1.91-10.16-2.33-14-2.29-15.6.18-33.08,1.14-43.68,12.6-1.89,2.04-3.49,4.36-5.63,6.14-1.08.9-2.32,1.68-3.02,2.89-.85,1.48-.74,3.3-1.03,4.98-.79,4.55.55,10.91-4.08,11Z"/>
      <path class="cls-5" d="m1012.97,74.98c-45.86,1.71-151.01,14.93-147.07,27.75s178.21,21.25,259.48,9.87c-43.82-3.02-118.39-19.72-153.91-22.69"/>
      <path class="cls-5" d="m659.22,62.57c-2.21-3.68,111.91-3.22,115.93-4.73,21.64-8.16,45.73-7.02,67.94-13.49,14.96-4.36,29.79-12.23,45.21-9.97,15.27,2.24,33.83,20.4,49.15,22.27.04,7.7-48.56,9.24-56.24,9.87-9.92.81,20.72,22.69-66.1,18.75-12.11-.55-19.15-19.03-31.57-18.75-30.37.7-125.87,2.05-124.31-3.95Z"/>
    </g>
    <g>
      <g>
        <path class="cls-11" d="m1008.6,585.66c-9.16,3.13-18.4,5.69-27.58,8.64-9.18,2.86-18.36,6.15-28.13,7.41-4.13.59-8.66.5-12.83.35-10.32-.55-20.6-2.39-30.41-5.66-4.59-1.59-9.1-3.51-13.19-6.16l.14-.26c4.5,1.74,9.05,3.22,13.63,4.6,10.27,3.1,21,4.88,31.73,5.14,13.24.76,25.91-3.7,38.44-7.46,9.23-2.82,18.55-5.51,28.14-6.89l.07.29h0Z"/>
        <path class="cls-11" d="m584.06,593.4c-9.16,3.13-18.4,5.69-27.58,8.64-9.18,2.86-18.36,6.15-28.13,7.41-4.13.59-8.66.5-12.83.35-10.32-.55-20.6-2.39-30.41-5.66-4.59-1.59-9.1-3.51-13.19-6.16l.14-.26c4.5,1.74,9.05,3.22,13.63,4.6,10.27,3.1,21,4.88,31.73,5.14,13.24.76,25.91-3.7,38.44-7.46,9.23-2.82,18.55-5.51,28.14-6.89l.07.29h0Z"/>
        <path class="cls-11" d="m632.25,623.99c9.36-2.47,18.76-4.38,28.13-6.66,9.36-2.2,18.75-4.83,28.59-5.41,14.61-.5,29.26,2.89,42.77,8.31,4.47,1.92,8.82,4.15,12.71,7.09l-.16.25c-4.36-2.06-8.8-3.86-13.26-5.57-10.01-3.82-20.62-6.34-31.29-7.35-13.16-1.67-26.1,1.91-38.88,4.76-9.4,2.15-18.89,4.18-28.56,4.88l-.05-.29h0Z"/>
        <path class="cls-11" d="m1073.08,583.87c8-1.64,16.09-1.49,24-3.4,7.98-1.42,15.09-5.33,22.56-8.3,0,0,.16.24.16.24-2.95,3.01-6.7,4.85-10.45,6.54-7.49,3.48-15.81,4.95-24,5.53-4.08.27-8.19.64-12.28-.32v-.29h0Z"/>
        <path class="cls-11" d="m922.03,582.57c8.09.78,15.79,3.31,24.03,3.81,8.09.97,16.05-.68,24.1-1.29,0,0,.08.28.08.28-3.73,1.98-7.86,2.64-11.96,3.15-8.21,1.12-16.63.12-24.65-1.74-4-.95-8.05-1.8-11.69-3.93l.09-.28h0Z"/>
        <path class="cls-11" d="m753.04,603.86c8.09.78,15.79,3.31,24.03,3.81,8.09.97,16.05-.68,24.1-1.29,0,0,.08.28.08.28-3.73,1.98-7.86,2.64-11.96,3.15-8.21,1.12-16.63.12-24.65-1.74-4-.95-8.05-1.8-11.69-3.93l.09-.28h0Z"/>
        <path class="cls-11" d="m643.98,575.44c4.15.14,8.03,1.16,12.01,1.8,3.97.63,7.96,1.18,11.94,1.4,8.06.73,15.92-1.14,23.91-1.96,0,0,.09.28.09.28-3.65,2.06-7.74,2.85-11.79,3.46-8.12,1.35-16.52.6-24.54-1.06-3.99-.85-8.04-1.6-11.7-3.64l.08-.28h0Z"/>
        <path class="cls-11" d="m355.91,603.94c4.15.14,8.03,1.16,12.01,1.8,3.97.63,7.96,1.18,11.94,1.4,8.06.73,15.92-1.14,23.91-1.96,0,0,.09.28.09.28-3.65,2.06-7.74,2.85-11.79,3.46-8.12,1.35-16.52.6-24.54-1.06-3.99-.85-8.04-1.6-11.7-3.64l.08-.28h0Z"/>
        <path class="cls-11" d="m1061.46,601.55c6.18-.84,12.31-.89,18.43-1.43,7.64-.69,15.23-1.71,22.63-3.61,7.37-1.99,14.42-5.02,21.13-8.65,0,0,8.19-4.28,8.19-4.28l.18.24c-4.53,4.36-10.07,7.38-15.7,10.05-11.24,5.52-23.86,7.67-36.27,8.41-6.2.34-12.43.69-18.6-.43v-.29h.01Z"/>
        <path class="cls-11" d="m729.67,609.24c5.96,1.84,11.56,4.38,17.36,6.45,7.23,2.58,14.57,4.81,22.11,6.16,7.55,1.24,15.23,1.43,22.87.97,0,0,9.25-.42,9.25-.42l.06.29c-5.97,2-12.27,2.44-18.51,2.49-12.53.32-24.94-2.91-36.54-7.46-5.78-2.28-11.6-4.58-16.74-8.21l.13-.26h0Z"/>
        <path class="cls-11" d="m248.88,593.85c26.93,2.22,53.8,5.51,80.85,4.41,14.96-.66,29.86-2.67,44.54-5.61,5.89-1.14,11.78-2.31,17.67-3.56l.09.28c-34.35,11.87-71.49,13.19-107.4,9.82-12-1.11-24.02-2.29-35.79-5.05l.05-.29h0Z"/>
        <path class="cls-11" d="m895.25,619.31c19.57,14.36,42.58,24.63,66.93,26.54,19.41,1.03,39.09-.11,58.27-3.31,14.48-2.46,28.36-7.03,42.24-11.88,18.47-6.69,38.14-10.47,57.82-10.14,0,0,0,.29,0,.29-19.58,1.1-38.75,5.09-57.16,11.79-13.84,4.9-27.96,9.61-42.51,12.13-14.53,2.62-29.32,3.66-44.06,3.87-19.76.66-39.65-3.73-57.37-12.47-8.83-4.35-17.28-9.71-24.35-16.6,0,0,.2-.22.2-.22h0Z"/>
        <path class="cls-11" d="m-36.13,574.51c21.7,9.85,45.03,16.04,68.85,16.94,23.79.5,47.76-.44,71.28-4.3,18.86-3.08,37.33-8.69,56.43-10.62,9.55-1.02,19.15-1.39,28.72-1.23v.29c-19.11.97-38.01,3.44-56.64,7.82-13.97,3.22-28.11,6.29-42.4,7.95-14.29,1.7-28.7,2.42-43.08,2.6-19.22.47-38.59-1.91-56.99-7.55-9.18-2.84-18.22-6.43-26.32-11.65,0,0,.15-.25.15-.25h0Z"/>
        <path class="cls-11" d="m470.72,625.12c19.57,14.36,42.58,24.63,66.93,26.54,19.41,1.03,39.09-.11,58.27-3.31,14.48-2.46,28.36-7.03,42.24-11.88,18.47-6.69,38.14-10.47,57.82-10.14,0,0,0,.29,0,.29-19.58,1.1-38.75,5.09-57.16,11.79-13.84,4.9-27.96,9.61-42.51,12.13-14.53,2.62-29.32,3.66-44.06,3.87-19.76.66-39.65-3.73-57.37-12.47-8.83-4.35-17.28-9.71-24.35-16.6,0,0,.2-.22.2-.22h0Z"/>
      </g>
      <path class="cls-5" d="m868.98,597.87c-4.07.9-8.12.76-12.16.95-4.04.18-8.09.37-12.1.72-4.01.32-8.04.74-11.86,1.65-3.9,1.05-7.82,2.32-11.92,2.59,0,0-.08-.28-.08-.28,11.03-5.87,23.69-6.82,35.92-6.85,4.08.02,8.17-.15,12.22.92v.29h0Z"/>
      <path class="cls-5" d="m832.73,590.21c-1.75,1.46-3.77,1.82-5.74,2.42-1.97.58-3.95,1.13-5.94,1.63-1.99.5-3.99.95-6,1.38-2.01.43-3.98,1-6.19.62l-.07-.28c1.76-1.39,3.77-1.83,5.74-2.41,1.97-.58,3.94-1.14,5.93-1.64,1.99-.5,3.99-.97,6-1.39,2.01-.4,3.96-1.06,6.2-.61l.07.28h0Z"/>
      <path class="cls-5" d="m288.01,622.42c-16.24-3.74-32.89-6.3-49.57-5.66-16.68,1.03-32.92,5.83-49.41,8.58-16.59,2.98-33.51,3.87-50.34,3.15-16.78-.48-33.61-1.31-50.17-4.32l.04-.29c8.21.68,16.83,1.13,25.08,1.56,25.01,1.26,50.25,2.35,74.98-2.47,16.57-2.7,32.83-7.37,49.71-8.32,16.63-.34,34.82,1.56,49.68,7.77h0Z"/>
      <path class="cls-5" d="m723.34,604.47c-21.73-2.04-44.62-4.76-66.25-1.06-10.9,1.97-21.32,5.89-31.8,9.4-10.49,3.7-20.79,7.83-31.29,11.56,0,0-.12-.27-.12-.27,9.8-5.41,20.22-9.46,30.69-13.31,10.54-3.71,21.09-7.72,32.12-9.75,11.13-1.84,22.39-2.01,33.55-1.44,11.15.64,22.33,1.69,33.16,4.58l-.05.29h0Z"/>
      <path class="cls-5" d="m97.88,618.04c-21.21-5.16-43.46-11.16-65.4-10.62-11.07.37-21.95,2.75-32.82,4.7-10.92,2.14-21.71,4.74-32.63,6.91,0,0-.08-.28-.08-.28,10.48-3.93,21.38-6.43,32.29-8.73,10.96-2.14,21.99-4.59,33.19-5.01,11.28-.22,22.45,1.25,33.41,3.43,10.94,2.24,21.85,4.9,32.15,9.33l-.1.28h0Z"/>
    </g>
    <circle class="cls-13" cx="662.44" cy="239.12" r="29.66"/>
    <g>
      <path class="cls-3" d="m703.49,239.87c149.18,0,296.9,96.97,349.05,299.23"/>
      <polygon points="1040.04 538.56 1056.58 555.85 1063.29 532.87 1040.04 538.56"/>
    </g>
    <g>
      <path d="m407.78,243.79c.9,0,1.69-.27,2.37-.82s1.05-1.23,1.12-2.05h2.39c-.05.85-.34,1.65-.88,2.42s-1.26,1.38-2.15,1.83-1.85.68-2.85.68c-2.01,0-3.62-.67-4.81-2.02-1.19-1.34-1.78-3.18-1.78-5.52v-.42c0-1.44.26-2.72.79-3.84s1.29-1.99,2.28-2.61c.99-.62,2.16-.93,3.51-.93,1.66,0,3.04.5,4.14,1.49,1.1.99,1.68,2.28,1.76,3.87h-2.39c-.07-.96-.44-1.74-1.09-2.36s-1.46-.92-2.41-.92c-1.29,0-2.28.46-2.99,1.39-.71.93-1.06,2.26-1.06,4.01v.48c0,1.7.35,3.02,1.05,3.94.7.92,1.7,1.38,3.01,1.38Z"/>
      <path d="m419.25,245.58h-2.53v-21h2.53v21Z"/>
      <path d="m423.31,226.86c0-.41.12-.76.38-1.04.25-.28.62-.42,1.11-.42s.87.14,1.12.42c.25.28.38.63.38,1.04s-.13.75-.38,1.03-.63.41-1.12.41-.86-.14-1.11-.41-.38-.62-.38-1.03Zm2.73,18.72h-2.53v-14.79h2.53v14.79Z"/>
      <path d="m431.33,245.58v-12.84h-2.34v-1.96h2.34v-1.52c0-1.59.42-2.81,1.27-3.68.85-.87,2.05-1.3,3.6-1.3.58,0,1.16.08,1.74.23l-.14,2.04c-.43-.08-.88-.12-1.37-.12-.82,0-1.45.24-1.9.72s-.67,1.17-.67,2.06v1.56h3.16v1.96h-3.16v12.84h-2.53Z"/>
      <path d="m441.05,245.58v-12.84h-2.34v-1.96h2.34v-1.52c0-1.59.42-2.81,1.27-3.68.85-.87,2.05-1.3,3.6-1.3.58,0,1.16.08,1.74.23l-.14,2.04c-.43-.08-.88-.12-1.37-.12-.82,0-1.45.24-1.9.72s-.67,1.17-.67,2.06v1.56h3.16v1.96h-3.16v12.84h-2.53Z"/>
    </g>
    <g>
      <path d="m828.31,544.11c0-.68-.26-1.21-.77-1.59-.51-.38-1.41-.7-2.69-.98s-2.3-.6-3.05-.98-1.31-.84-1.67-1.37c-.36-.53-.54-1.16-.54-1.89,0-1.21.51-2.24,1.54-3.08,1.03-.84,2.34-1.26,3.93-1.26,1.68,0,3.04.43,4.08,1.3,1.04.87,1.57,1.97,1.57,3.32h-2.54c0-.69-.29-1.29-.88-1.79-.59-.5-1.33-.75-2.22-.75s-1.64.2-2.16.6c-.52.4-.78.93-.78,1.57,0,.61.24,1.07.72,1.38.48.31,1.36.61,2.62.89,1.26.28,2.29.62,3.07,1.01.78.39,1.37.86,1.74,1.42.38.55.57,1.22.57,2.02,0,1.32-.53,2.38-1.59,3.18-1.06.8-2.43,1.2-4.12,1.2-1.18,0-2.23-.21-3.14-.63s-1.62-1-2.14-1.76-.77-1.57-.77-2.44h2.53c.05.85.38,1.52,1.02,2.02.63.5,1.47.75,2.51.75.96,0,1.72-.19,2.3-.58.58-.39.87-.9.87-1.55Z"/>
      <path d="m840.27,548.31c-2,0-3.64-.66-4.89-1.98-1.26-1.32-1.89-3.08-1.89-5.28v-.46c0-1.47.28-2.78.84-3.93.56-1.15,1.34-2.05,2.35-2.71,1.01-.65,2.1-.98,3.27-.98,1.92,0,3.42.63,4.48,1.9,1.07,1.27,1.6,3.08,1.6,5.44v1.05h-10.02c.04,1.46.46,2.64,1.28,3.53.82.9,1.85,1.35,3.11,1.35.89,0,1.65-.18,2.27-.55.62-.36,1.16-.85,1.63-1.45l1.54,1.2c-1.24,1.91-3.1,2.86-5.58,2.86Zm-.31-13.26c-1.02,0-1.88.37-2.57,1.11-.69.74-1.12,1.78-1.29,3.12h7.41v-.19c-.07-1.29-.42-2.28-1.04-2.99-.62-.71-1.46-1.06-2.52-1.06Z"/>
      <path d="m858.1,548.04c-.15-.29-.26-.81-.36-1.56-1.18,1.22-2.58,1.83-4.21,1.83-1.46,0-2.65-.41-3.59-1.24-.93-.82-1.4-1.87-1.4-3.14,0-1.54.59-2.74,1.76-3.59,1.17-.85,2.82-1.28,4.94-1.28h2.46v-1.16c0-.88-.26-1.59-.79-2.11-.53-.52-1.31-.79-2.34-.79-.9,0-1.66.23-2.27.68-.61.46-.92,1.01-.92,1.65h-2.54c0-.74.26-1.45.79-2.14.52-.69,1.24-1.23,2.13-1.63.9-.4,1.88-.6,2.96-.6,1.7,0,3.04.43,4.01,1.28.97.85,1.47,2.03,1.5,3.52v6.81c0,1.36.17,2.44.52,3.24v.22h-2.65Zm-4.2-1.93c.79,0,1.54-.21,2.26-.62s1.23-.94,1.54-1.6v-3.04h-1.98c-3.1,0-4.65.91-4.65,2.72,0,.79.26,1.41.79,1.86.53.45,1.21.67,2.04.67Z"/>
    </g>
    <g>
      <path d="m807.96,167.2v2.15h-.46c-1.97.04-3.54.62-4.7,1.75-1.17,1.13-1.84,2.72-2.02,4.77,1.05-1.2,2.48-1.8,4.29-1.8s3.12.61,4.15,1.83c1.03,1.22,1.55,2.8,1.55,4.73,0,2.05-.56,3.69-1.67,4.92s-2.61,1.85-4.49,1.85-3.45-.73-4.63-2.19-1.78-3.35-1.78-5.65v-.97c0-3.66.78-6.46,2.34-8.4,1.56-1.94,3.89-2.93,6.98-2.97h.45Zm-3.32,8.97c-.87,0-1.66.26-2.39.78s-1.24,1.17-1.52,1.96v.93c0,1.64.37,2.96,1.11,3.96.74,1,1.66,1.5,2.76,1.5s2.04-.42,2.69-1.26c.65-.84.98-1.94.98-3.29s-.33-2.47-.99-3.32c-.66-.84-1.54-1.26-2.63-1.26Z"/>
      <path d="m823.33,172.33l.07,1.64c1.08-1.28,2.55-1.91,4.39-1.91,2.07,0,3.48.79,4.22,2.38.49-.71,1.13-1.29,1.92-1.72s1.72-.66,2.8-.66c3.25,0,4.89,1.72,4.95,5.15v9.91h-2.53v-9.76c0-1.06-.24-1.85-.72-2.37-.48-.52-1.29-.79-2.43-.79-.94,0-1.72.28-2.34.84s-.98,1.31-1.08,2.26v9.82h-2.54v-9.69c0-2.15-1.05-3.23-3.16-3.23-1.66,0-2.79.71-3.4,2.12v10.8h-2.53v-14.79h2.39Z"/>
      <path d="m846,188.83h-2.17l8.31-21.62h2.16l-8.3,21.62Z"/>
      <path d="m865.64,183.19c0-.68-.26-1.21-.77-1.59-.51-.38-1.41-.7-2.69-.98s-2.3-.6-3.05-.98-1.31-.84-1.67-1.37c-.36-.53-.54-1.16-.54-1.89,0-1.21.51-2.24,1.54-3.08,1.03-.84,2.34-1.26,3.93-1.26,1.68,0,3.04.43,4.08,1.3,1.04.87,1.57,1.97,1.57,3.32h-2.54c0-.69-.29-1.29-.88-1.79-.59-.5-1.33-.75-2.22-.75s-1.64.2-2.16.6c-.52.4-.78.93-.78,1.57,0,.61.24,1.07.72,1.38.48.31,1.36.61,2.62.89,1.26.28,2.29.62,3.07,1.01.78.39,1.37.86,1.74,1.42.38.55.57,1.22.57,2.02,0,1.32-.53,2.38-1.59,3.18-1.06.8-2.43,1.2-4.12,1.2-1.18,0-2.23-.21-3.14-.63s-1.62-1-2.14-1.76-.77-1.57-.77-2.44h2.53c.05.85.38,1.52,1.02,2.02.63.5,1.47.75,2.51.75.96,0,1.72-.19,2.3-.58.58-.39.87-.9.87-1.55Z"/>
    </g>
  </g>
</svg>