<?xml version="1.0" encoding="UTF-8"?>
<svg id="Layer_1" data-name="Layer 1" xmlns="http://www.w3.org/2000/svg" width="1140" height="704" xmlns:xlink="http://www.w3.org/1999/xlink" viewBox="0 0 1140 704">
  <defs>
    <style>
      .cls-1, .cls-2, .cls-3, .cls-4, .cls-5, .cls-6 {
        fill: none;
      }

      .cls-2 {
        stroke: #000;
      }

      .cls-2, .cls-3, .cls-7, .cls-5, .cls-6 {
        stroke-miterlimit: 10;
      }

      .cls-2, .cls-3, .cls-6 {
        stroke-width: 3px;
      }

      .cls-3, .cls-6 {
        stroke: #ad2529;
      }

      .cls-8 {
        clip-path: url(#clippath);
      }

      .cls-9 {
        fill: #001415;
      }

      .cls-10 {
        fill: #fff;
      }

      .cls-11 {
        fill: #fffffd;
      }

      .cls-12 {
        fill: #ffd2c7;
      }

      .cls-13 {
        fill: #932f2f;
      }

      .cls-14 {
        fill: #64bfbd;
      }

      .cls-15 {
        fill: #80cbc7;
      }

      .cls-16 {
        fill: #6d0808;
      }

      .cls-17 {
        fill: #a0281f;
      }

      .cls-18 {
        fill: #b35e5d;
      }

      .cls-19 {
        fill: #d8d8d8;
      }

      .cls-20 {
        fill: #ad2529;
      }

      .cls-21 {
        fill: #e18d80;
      }

      .cls-22 {
        fill: #707070;
      }

      .cls-23 {
        fill: #a1dbbb;
      }

      .cls-24 {
        fill: #5c3130;
      }

      .cls-25 {
        fill: #394170;
      }

      .cls-26 {
        fill: #4c1414;
      }

      .cls-27 {
        fill: #722121;
      }

      .cls-7 {
        fill: #a5c3c9;
      }

      .cls-7, .cls-4, .cls-5 {
        stroke-linecap: round;
        stroke-width: 2px;
      }

      .cls-7, .cls-5 {
        stroke: #a5c3c9;
      }

      .cls-28 {
        clip-path: url(#clippath-1);
      }

      .cls-4 {
        stroke: #001415;
        stroke-linejoin: round;
      }

      .cls-6 {
        stroke-dasharray: 0 0 6.04 6.04;
      }
    </style>
    <clipPath id="clippath">
      <path class="cls-1" d="m898.63,4.28c150.93-19.21,225.8,83.78,223.11,166.88-2.15,66.5-5.17,127.51,9.02,247.09,16.51,139.04,15.58,259.47-172.47,268.94-187.61,9.45-254.43-7.43-339.55-9.99-158.8-4.77-198.65,24.16-322.9,24.16-157.52,0-234.84-13.3-278.66-101.21-38.94-78.12,14.66-208.95,16.19-298.51,1.06-62.1-26.17-123.61,12.64-202.89C98.8,15.96,220.1,7.35,266.41,15.8c88.76,16.2,136.11,20.81,223.78,20.81,150.32,0,177.59-2.96,408.44-32.34Z"/>
    </clipPath>
    <clipPath id="clippath-1">
      <ellipse class="cls-1" cx="924.23" cy="100.9" rx="42.48" ry="41.65" transform="translate(-5.45 109.6) rotate(-6.77)"/>
    </clipPath>
  </defs>
  <g class="cls-8">
    <path class="cls-14" d="m898.63,4.28c150.93-19.21,225.8,83.78,223.11,166.88-2.15,66.5-5.17,127.51,9.02,247.09,16.51,139.04,15.58,259.47-172.47,268.94-187.61,9.45-254.43-7.43-339.55-9.99-158.8-4.77-198.65,24.16-322.9,24.16-157.52,0-234.84-13.3-278.66-101.21-38.94-78.12,14.66-208.95,16.19-298.51,1.06-62.1-26.17-123.61,12.64-202.89C98.8,15.96,220.1,7.35,266.41,15.8c88.76,16.2,136.11,20.81,223.78,20.81,150.32,0,177.59-2.96,408.44-32.34Z"/>
    <rect class="cls-23" x="-67.42" y="620.1" width="1499.69" height="84.55"/>
    <g>
      <path class="cls-27" d="m199.91,437.52l-2.23,33.7-4.77,21.62,41.01,6.68c5.18-11.72,9.84-27.23,14.31-44.19l-48.32-17.8Z"/>
      <path class="cls-10" d="m193.87,441.33l-1.59,9.86c13.87,4.41,38.06,9.03,56.91,11.13l3.18-11.45-58.5-9.54Z"/>
      <path class="cls-17" d="m200.23,384.43c-2.2,16.97-5.16,36.72-8.58,58.18,18.57,5.25,43.08,10.07,61.99,12.08,8.47-19.81,13.55-43.9,19.39-69.94l-72.8-.32Z"/>
      <path class="cls-27" d="m251.35,392.08c13.83.97,30.71-1.22,49.4-5.25l4.2,12.35,38.36-16.29s-5.78-24.7-13.93-31.53-80.14-16.03-80.14-16.03l2.1,56.75Z"/>
      <path class="cls-10" d="m240.06,397.34h14.71c2.33-22.04,7.64-41.61,16.03-57.02l-15.76-1.58-14.98,58.59Z"/>
      <path class="cls-17" d="m179.57,314.78c-3.75,6.64-2.98,63.16,19.24,74.41,22.22,11.25,49.4,9.2,49.4,9.2-2.89-17.87,6.41-51.3,21.73-67.1,0,0-86.61-23.14-90.36-16.51Z"/>
      <path class="cls-10" d="m233.35,170.42c4.69-3.84,34.46,13.46,57.78,36.16,22.17,21.59,39.4,48,35.75,54.48-7.48,13.3-54.87,53.18-54.87,53.18,0,0,.83,13.3-2.08,17.04s-86.88,2.49-92.7-17.04,46.97-136.34,56.12-143.83Z"/>
      <path class="cls-17" d="m310.26,132.31c.33-3.2-4.81-4.02-7.25-4.05-6.08-.07-11.74,1.6-17.88,1.52-6.28-.07-13.41-1.24-19.13,2.22-4.54,2.75-7.41,8.21-9.73,12.77-7.19,14.09-5.38,38.85-6.96,54.48-1.12,11.14-5.16,22.95-4.99,29.1s-.11,19.56,4.66,23.28c3.13,2.44,32.25-8.85,36.58-10.81,1.95-.88,15.8-6.49,26.44-15.8,2.85-2.49,8.15-10.81,10.48-18.96,4-14.01,3.49-22.78,4.99-37.58.44-4.34,1.49-12.98.77-17.2-.59-3.47-1.38-7.13-3.39-10.08-3.02-4.43-9.31-7.38-14.58-8.9Z"/>
      <path class="cls-12" d="m325.13,172.89c-.51,12.46,1.57,20.45-8.67,31.48-5.65,6.09-9.18,9.11-15.12,9.09-4.25-.02-9.95-3.51-15.55-7.38-4.63-3.2-9.52-8.18-11.64-11.2-3.46-4.92-4.89-10.46-4.38-22.96.93-22.74,13.43-34.46,30.73-33.75,17.29.71,25.56,11.99,24.63,34.73Z"/>
      <path class="cls-9" d="m296.26,174.95c-1.55-.34-2.3-1.25-3.34-1.87-1.01-.62-2.06-1.08-3.07-1.21-2.58-.44-3.56,1.69-5.85,2.84-.11.06-.25-.02-.26-.15-.14-2.38,1.94-4.15,4.02-4.9,2.23-.74,4.78.29,6.41,1.65,1.07.89,2.22,1.78,2.31,3.46,0,.12-.12.22-.23.18h0Z"/>
      <ellipse class="cls-9" cx="292.5" cy="174.28" rx="2.28" ry="2.57" transform="translate(-15.56 29.27) rotate(-5.58)"/>
      <path class="cls-9" d="m309.06,174.87c-.3-1.53.55-2.51,1.31-3.51.8-.97,1.8-1.96,3.33-2.38,2.72-.79,6.06,2.08,5.61,4.88-.02.12-.15.18-.26.14-1.33-.59-1.84-1.51-2.6-2.1-1.68-1.35-3.06-.37-4.48.92-.79.73-1.26,1.68-2.65,2.19-.11.05-.24-.02-.26-.13h0Z"/>
      <path class="cls-21" d="m295.5,195.02c1.24-4.09,16.23-3.77,15.15-.16-.58,1.93-4.73,5.38-7.99,5.5-3.25.12-8.03-2.46-7.16-5.34Z"/>
      <ellipse class="cls-9" cx="316.14" cy="173.94" rx="2.28" ry="2.57" transform="translate(-15.42 31.57) rotate(-5.58)"/>
      <path class="cls-24" d="m292.09,193.96c1.91-.46,3.5.03,5.19.19,1.68.17,3.35.31,5.01.32,1.66,0,3.31-.04,4.93-.3,1.74-.3,3.14-.87,4.98-.93.12,0,.21.15.13.25-2.9,4.07-11,3.67-15.4,2.79-1.72-.38-3.53-.6-4.94-2.05-.09-.09-.04-.26.09-.28h0Z"/>
      <path class="cls-24" d="m281.43,166.46c-.02-1.9,1.21-2.87,2.53-4.02.57-.5,1.72-.74,2.5-.87,2.24-.41,4.62-.39,6.84-.12,1.5.14,2.77.36,4.29.9.09.03.13.12.11.21-1.31,1.1-3.13,1.01-4.54.95-2.16-.09-4.19.07-6.28.43l-1.01.19c-.79.21-1.46.8-2.14,1.43-.49.48-1.08.94-2.06,1.08-.12.02-.22-.07-.23-.19h0Z"/>
      <path class="cls-10" d="m270.29,165.99c17.59-21.8,37.45-26.47,54.15-4.77,0,0,2.02-22.82-23.91-23.88-25.93-1.06-30.25,28.65-30.25,28.65Z"/>
      <path class="cls-24" d="m321.38,165.22c-1.56.05-2.27-.91-3.54-1.28-2.99-.83-6.05-.25-9.11-.08-.71-.06-1.45-.22-2.07-.7-.1-.07-.08-.24.03-.29,3.12-1.43,6.43-1.94,9.82-1.61,1.46.04,2.98.85,4.05,1.79.54.46.96,1.06,1.01,1.96,0,.12-.09.21-.2.21h0Z"/>
      <path class="cls-16" d="m310.26,132.46c-4.73,1.39-9.41,2.36-13.9,4.12-8.88,3.41-16.93,9.36-21.46,17.83-2.32,4.26-3.47,8.87-4.94,13.51,0,0-.29-.03-.29-.03-.34-4.99,1.06-9.99,3.33-14.47,4.47-9.11,13.17-15.61,22.61-18.87,4.69-1.62,9.61-2.95,14.63-2.38l.02.29h0Z"/>
      <path class="cls-16" d="m262.81,162.58c.75,4.01,1.04,7.95,1.87,11.91,1.5,6.78,4.19,13.34,8.27,18.96,2.27,3.26,5.18,6.05,8.07,8.75.73.7,1.45,1.41,2.13,2.22l-.16.25c-11.18-4.95-18.41-18.12-20.44-29.76-.68-4.07-1.22-8.28-.04-12.36l.29.02h0Z"/>
      <path class="cls-17" d="m195.65,330.6s34.95-7.36,69.1,1.84c-9.2,14.98-31.79,15.24-31.79,15.24l-37.31-17.08Z"/>
      <g>
        <path class="cls-4" d="m300.89,171.25c.08,5.12.76,9.09-10.29,8.88-10.86-.21-11.71-3.37-11.79-8.49s6.93-5.22,11.36-5.29c4.44-.08,10.64-.21,10.72,4.9Z"/>
        <path class="cls-4" d="m306.09,171.18c.08,4.95-.03,8.81,10.15,8.24,10.01-.56,9.73-3.66,9.65-8.62-.08-4.95-5.96-4.79-10.06-4.72-4.09.07-9.82.15-9.74,5.1Z"/>
        <path class="cls-4" d="m300.89,171.25s3.54-1.58,5.2.09"/>
        <line class="cls-4" x1="270.78" y1="171.9" x2="278.81" y2="171.64"/>
      </g>
      <path class="cls-18" d="m303.67,188.37c1.85-1.19,3.36-2.35,3.32-4.51,0,0,.75,1.08.75,1.08-2.05-.77-4.68-1.82-5.16-4.27-.08-.39.25-3.18.26-3.63.1-1.01.31-2.02.99-3.01.05-.08.16-.1.24-.05.66,1.01.77,2.12.79,3.14,0,0,.02,3.05.02,3.05,0,.25-.01.11.04.26.81,1.16,2.4,1.8,3.68,2.4,1.61.85-.09,4.08-1.06,4.93-1.02,1.01-2.61,1.46-3.87.89-.12-.05-.13-.23-.02-.29h0Z"/>
      <path class="cls-16" d="m279.37,233.54c2.35-1.63,4.96-2.24,7.5-3.14,2.54-.88,5.07-1.77,7.56-2.73,5.11-1.7,9.73-4.28,14.65-6.41,0,0,.2.22.2.22-1.47,2.42-4.04,3.86-6.49,5.12-4.86,2.53-10.02,4.37-15.27,5.86-2.62.71-5.2,1.63-8.07,1.36l-.07-.28h0Z"/>
      <path class="cls-16" d="m260.63,221.9c2.91-.64,5.67-.28,8.48-.26,7.28.1,14.64-.06,21.72-1.83,1.07-.16,2.01-.47,3.14-.56,0,0,.13.26.13.26-5.45,4.85-18.04,4.7-25.09,4.29-2.84-.23-5.72-.29-8.42-1.62l.04-.29h0Z"/>
      <path class="cls-17" d="m183.88,322.56c-1.51-12.21,11.94-23.43,17.68-33,6.38-10.64,4.42-24.68,6.85-36.84,1.66-8.31,3.51-20.19,13.32-14.86,5.27,2.86,14.43,12.53,19.1,16.11,6.2,4.76,16.16,5.42,22.86,9.56,5.15,3.18,8.7,4.79,11.64,10.39,1.86,3.53-7.47,17.62-13.08,22.64-2.44,2.18-6.82,4.61-8.14,7.49-.45.99-.1,2.93-.39,4.04-.39,1.52-1.5,2.66-1.93,4.07-1.89,6.18-.29,15.73-.64,22.8-3.11.17-6.35.15-9.47,0-.72-4.63-.06-9.34.39-14.03s1.76-7.03,3.22-11.27c.65-1.87.05-3.17.2-4.65.28-2.83.94-3.32,3.31-5.79,5.53-5.79,10.33-12.5,13.86-19.71,1.93-3.92,2.14-3.29-1.42-5.96-5.03-3.78-19.05-8.33-21.66-10.02-.73-.48-19.96-14.72-20.79-14.53-3.54.81-4.62,22.42-5.4,26.26-2.31,11.33-4.16,21.52-14.55,32.75-4.37,4.72-5.4,12.05-6.74,16.88-3.31.86-4.75-.29-8.23-2.33Z"/>
      <path class="cls-16" d="m225.99,288.39c2.85,2.33,4.96,5.14,7.4,7.71,4.84,5.08,10.03,9.92,16.13,13.43,3.08,1.77,6.27,2.87,9.62,4.14,0,0-.03.29-.03.29-10.01,1-21.17-9.38-27.33-16.42-2.33-2.75-4.76-5.48-6.04-9l.24-.17h0Z"/>
      <path class="cls-16" d="m223.89,302.5c2.38.82,4.1,2.33,6.05,3.58,1.94,1.25,3.91,2.44,5.95,3.5,2.02,1.08,4.11,2,6.25,2.8,2.24.76,4.39,1.12,6.6,2.14,0,0,0,.29,0,.29-6.3,1.69-15.05-3.32-20.02-6.95-1.89-1.45-3.91-2.81-5.02-5.14l.2-.21h0Z"/>
      <g>
        <path class="cls-12" d="m137.16,208.24s-18.79,23.81-18.97,29.21,8.35,13.28,8.35,13.28c0,0,.5,5.92,1.54,7.54s5.57,2.14,5.57,2.14c0,0,5.36-3.19,5.57-4.28s1.07-3.93-.53-4.64-4.93,1.52-4.93,1.52c1.7-5.17,3.68-9.63,6.45-12.14l1.52,4.55s-.63,4.26-1.73,5.35-.66,4.25,2.11,5.27c1.4.52,7.82-8.97,8.52-12.9s-2.07-17.83-2.07-17.83l4.17-9.48-15.55-7.59Z"/>
        <path class="cls-18" d="m126.3,244.56c1.02.45.9.97,1.03,1.48.11.51.19,1.02.22,1.53.03.51,0,1.03-.04,1.55-.05.52.05,1.03-.83,1.6-.09.06-.2.06-.29.02-.94-.46-.91-.97-1.02-1.48-.11-.51-.2-1.02-.23-1.53-.03-.51-.02-1.03.03-1.55.07-.52-.12-1.02.84-1.6.09-.06.2-.06.29-.02,0,0-.09-.04,0,0Z"/>
        <path class="cls-18" d="m123.09,239.02c.93.72.72,1.35.77,2.01.03.65.02,1.3-.04,1.94-.05.64-.16,1.28-.29,1.92-.13.64-.12,1.28-1.08,1.85-.1.06-.21.04-.29-.02-.86-.72-.74-1.36-.76-2-.02-.65-.03-1.3.03-1.94.05-.64.15-1.28.28-1.92.16-.63.05-1.29,1.09-1.85.1-.05.21-.04.29.02,0,0-.08-.06,0,0Z"/>
      </g>
      <path class="cls-27" d="m200.12,150.99s-6.34-5.87-15.02-3.75-49.51,53.5-51.86,60.3c-2.35,6.8,11.47,11.58,19.24,13.37,15.02-17.83,29.37-25.38,39.89-36.37l7.74-33.55Z"/>
      <path class="cls-16" d="m251.66,324.36c-3.84,1.46-7.85,1.6-11.82,1.9-7.98.51-16.05.43-23.95-1.02-3.96-.69-8.03-1.75-11.28-4.22,0,0,.13-.26.13-.26,1.52.22,2.87.7,4.35.95,9.99,2.51,20.39,2.62,30.66,2.39,3.95-.09,7.85-.53,11.89-.03l.04.29h0Z"/>
      <path class="cls-10" d="m204.25,149.63c-17.73,5.91-20.37,26.19-15.8,41.98,0,0,20.4,10.35,24.97,18.66,14.96,4.16,37.8-29.47,35.3-35.29s-13.3-12.05-44.48-25.36Z"/>
      <path class="cls-27" d="m291.63,304.68l-1.17,21.59,27.22,19.48c3.88-10.01,6.92-22.4,9.15-37.07l-35.2-3.99Z"/>
      <path class="cls-10" d="m286.97,287.64s-2.08,23.28,1.25,26.19,19.54-5.4,41.15,6.65c7.28-38.07,2.76-59.55-7.07-73.58l-35.33,40.74Z"/>
      <path class="cls-27" d="m278.96,341.52c3.29,4.93,28.86,22.58,36.6,10.09,3.76-6.07,6.06-19.94.7-26.01-5.67-6.42-18.3-4.56-22.76-5.9-8.68-2.6-15.02-3.99-15.02-3.99,0,0-2.82,20.88.47,25.81Z"/>
      <g>
        <path class="cls-12" d="m276.77,304.86c2.85.03,10.15,13.04,11.19,17.69s2.58,16.57-4.9,21.75c-5.95,4.55-10.37.05-10.37.05-4.63-.58-9.22-1.58-10.15-2.47s-2.08-6.31-2.08-6.31l-1.36-.43c-1.54-2.06-2.33-5.29-.69-9.08,0,0-.93-.15-1.92-1.37s-.72-5.88.4-6.98,2.52-.88,2.52-.88c0,0-1.19-5.96-.29-7.09s14.8-4.9,17.65-4.87Z"/>
        <path class="cls-18" d="m259.43,316.47c1.16-1.12,2.45-1.1,3.71-1.34,1.26-.22,2.53-.39,3.79-.53,1.27-.14,2.54-.21,3.82-.27,1.28-.06,2.54-.26,3.91.51.11.06.12.21.03.29-1.17,1.04-2.45,1.11-3.71,1.33-1.26.21-2.52.4-3.79.54-1.27.14-2.54.23-3.82.28-1.28.03-2.53.32-3.91-.52-.1-.06-.12-.21-.03-.29h0Z"/>
        <path class="cls-18" d="m258.96,325.57c1.37-.92,2.67-.7,4-.73,1.32-.01,2.64.01,3.95.08,1.32.07,2.63.19,3.94.34,1.31.15,2.63.15,3.9,1.13.1.07.09.23-.02.29-1.36.85-2.68.71-4,.72-1.32,0-2.64,0-3.95-.07-1.32-.07-2.63-.18-3.94-.33-1.31-.17-2.63-.08-3.9-1.14-.09-.08-.09-.23.02-.29h0Z"/>
        <path class="cls-18" d="m260.5,335.22c1.06-.95,2.08-.75,3.11-.82,1.03-.04,2.05-.05,3.08,0,1.02.04,2.04.14,3.07.25,1.02.12,2.05.09,3.04,1.04.08.08.08.22-.01.29-1.06.87-2.08.77-3.11.81-1.03.04-2.05.06-3.08.02-1.02-.04-2.05-.12-3.07-.24-1.02-.14-2.05-.03-3.04-1.05-.08-.08-.07-.22.01-.29h0Z"/>
      </g>
      <path class="cls-26" d="m289.51,318.85c4.65-2.18,21.97.68,21.73,7.37,0,0-.27.1-.27.1-4.14-4.2-10.02-5.08-15.61-5.94-1.94-.3-3.88-.25-5.84-1.24v-.29h0Z"/>
      <path class="cls-16" d="m285.68,302.11c-.89-2.09-.59-4.14-.53-6.19.17-4.1.61-8.19,1.35-12.23.36-2.02.63-4.07,1.88-5.92l.29.05c.55,2.17.15,4.14-.05,6.17-.29,3.02-.95,9.09-1.32,12.1-.27,2.02-.25,4.04-1.34,6.02h-.29Z"/>
      <path class="cls-16" d="m183.95,322.42c1.05-.61,1.63-.2,2.33-.03.68.18,1.36.39,2.01.61,1.44.61,2.85.73,3.78,1.74,0,0,.09.28.09.28-1.02,1.91-5.25.12-6.68-.62-.64-.37-1.39-.51-1.65-1.71l.12-.27h0Z"/>
      <path class="cls-16" d="m251.34,330.22c-1,.87-1.85.61-2.74.6-.89-.03-1.77-.1-2.64-.21-.88-.11-1.74-.28-2.61-.46-.87-.19-1.75-.23-2.51-1.25l.04-.29c.99-.8,1.86-.62,2.74-.59.89.03,1.77.09,2.64.2.88.11,1.75.26,2.61.45.86.21,1.76.17,2.51,1.26l-.04.29h0Z"/>
      <path class="cls-16" d="m219.06,330.48c-2.69,1.5-5.51,2.1-8.26,3.08-2.74.98-5.45,2.01-8.06,3.27-2.61,1.23-5.13,2.63-7.51,4.23-2.42,1.7-4.37,3.65-6.82,5.39,0,0-.24-.17-.24-.17,3.18-7.64,14.45-12.53,21.96-14.78,2.87-.8,5.76-1.73,8.87-1.31l.05.29h0Z"/>
      <path class="cls-16" d="m212.98,328.91c-1.52.86-2.94.66-4.39.75-1.44.08-2.88.15-4.3.26-1.42.12-2.85.2-4.24.42-1.47.22-2.83.63-4.34.39,0,0-.13-.26-.13-.26.95-1.41,2.51-1.86,4.04-2.23,2.94-.76,5.97-.92,8.97-.75,1.48.11,3,.01,4.4,1.12l-.03.29h0Z"/>
      <path class="cls-16" d="m192.35,349.35c.05,1.58-.73,2.51-1.26,3.63-1.32,2.71-2.6,5.5-3.31,8.43-.22.58-.42,1.15-.92,1.77h-.29c-.89-1.31-.63-2.72-.4-4.02.5-2.61,1.58-5.07,3.04-7.27.74-1.07,1.33-2.28,2.9-2.73l.23.18h0Z"/>
      <path class="cls-26" d="m283.24,344.94c3.2,1.53,5.96,3.39,9.08,4.78,7.08,3.06,17.07,5.91,22.95-.63,1.1-1.15,1.94-2.55,2.83-4.11l.28.08c.11,5.89-5.92,9.97-11.37,10.26-5.44.42-10.85-1.25-15.62-3.64-3.13-1.62-6.35-3.43-8.35-6.52l.2-.22h0Z"/>
      <path class="cls-10" d="m387.72,490.71l-15.39-43.51s1.49-3.01,1.37-7.3-18.73-52.89-20.94-54.98-6.31-3.37-6.31-3.37l-5.15-11.77c-13.79,3.73-26.59,11.33-41.47,23.87,8.02,29.18,37.06,66.45,62.93,106.42l24.97-9.36Z"/>
      <path class="cls-22" d="m341.94,383.9c-2.64,2.2-5.3,4.4-7.48,6.91-.86,1.05-1.84,2.23-1.97,3.53,1.11,4.97,3.55,9.66,5.53,14.36,1.39,3.14,2.83,6.26,4.29,9.36,4.04,8.51,7.98,17.1,12.68,25.25.37.63.86,1.43,1.3,1.91,2.34,1.92,6.31,1.55,9.3,1.27,0,0,.08.28.08.28-1.62.68-3.35,1.09-5.15,1.22-1.78.08-3.75-.05-5.48-1.38-2.41-2.68-3.86-5.95-5.64-9.03-6.85-13-13.37-26.18-18.21-40.1-.28-.96-.63-1.99-.68-3.11.09-1.9,1.45-3.47,2.67-4.75,2.52-2.49,5.45-4.41,8.59-5.99,0,0,.16.25.16.25h0Z"/>
      <path class="cls-22" d="m342.1,377.51c-2.78,2.3-5.96,3.68-9,5.36-7.96,4.34-15.83,8.91-22.91,14.59-1.1.75-2.04,1.58-3.22,2.26,0,0-.22-.19-.22-.19,1.69-3.24,4.55-5.51,7.32-7.67,5.59-4.31,11.72-7.82,18.04-10.91,3.17-1.5,6.27-3.19,9.87-3.7l.12.27h0Z"/>
      <path class="cls-22" d="m341.22,458.85c2.24,1.42,3.55,3.52,5.06,5.47,2.98,3.94,5.8,7.98,8.4,12.18,1.29,2.1,2.73,4.16,3.15,6.78l-.26.14c-1.96-1.65-3.24-3.69-4.68-5.73-2.52-3.54-6.04-8.52-8.38-12.12-1.34-2.07-2.89-3.97-3.53-6.55l.24-.17h0Z"/>
      <path class="cls-10" d="m360.79,494.03s5.48,21.57,9.08,25.82c3.6,4.26,7.02,6.49,15.27,3.41,4.04-1.51,15.78-13.16,15.78-13.16,0,0,18.89-12.1,22.77-15.06,4.64-3.54,18.41-16.75,12.7-23.96-6.25-7.89-24.99-1.39-24.99-1.39l-16.67,5.63s-4.12-4.3-8.09-4.1-12.07,5.59-12.66,6.33-1.24,11.76-1.24,11.76l-11.97,4.72Z"/>
      <path class="cls-22" d="m315.2,402.13c1.99,2.31,2.96,5.01,4.21,7.62l3.67,7.81c2.25,5.32,5.38,10.17,7.44,15.55,0,0-.23.18-.23.18-2.49-1.81-3.91-4.45-5.36-6.96-1.46-2.53-2.77-5.12-4.03-7.74-1.22-2.64-2.4-5.28-3.47-7.98-1.06-2.7-2.33-5.31-2.49-8.37l.27-.11h0Z"/>
      <path class="cls-19" d="m422.74,474.28c-5.71,2.28-9.76,5.39-12.69,8.25-4.89,4.78-11.26,14.13-16.64,18.47-6.22,5.01-11.61,7.14-17.58,12.39-2.27,2-3.59,6.12-3.52,8.97,2.93,2.48,6.42,3.3,12.83.91,4.04-1.51,15.78-13.16,15.78-13.16,0,0,18.89-12.1,22.77-15.06,4.32-3.3,16.55-14.97,13.61-22.38-3.18-1.22-9.51-.4-14.57,1.62Z"/>
      <path class="cls-13" d="m391.87,494.09c-1.69,1.33-3.21.94-4.77.96-1.55-.05-3.1-.13-4.64-.28-1.54-.15-3.08-.39-4.61-.65-1.69-.27-3.19-.41-4.49-1.83,0,0,.04-.44.04-.44,1.55-1.14,3.05-.99,4.76-.93,1.55.04,3.1.1,4.65.25,1.54.15,3.08.37,4.61.62,1.53.32,3.09.24,4.49,1.86l-.04.44h0Z"/>
      <path class="cls-13" d="m396.84,488.26c-1.65,1.36-3.16,1-4.71,1.05-1.54-.02-3.08-.07-4.61-.19-1.53-.12-3.06-.33-4.58-.56-1.68-.24-3.18-.35-4.49-1.74,0,0,.03-.44.03-.44,1.51-1.17,3.01-1.05,4.71-1.02,1.54,0,3.08.04,4.61.16,1.53.12,3.06.31,4.58.53,1.52.29,3.07.17,4.49,1.77l-.03.44h0Z"/>
      <path class="cls-22" d="m361.1,496.64c.62-1.92,1.65-3.57,2.87-5.09,3.61-4.66,8.47-8.29,13.77-10.82,0,0-.62.92-.62.92l.31-2.83c.05-3.36,2.67-5.54,5.47-6.92,0,0,.21.21.21.21-1.17,2.43-3.67,4.04-3.54,6.89,0,0-.17,2.84-.17,2.84l-.04.61-.58.32c-4.95,2.62-9.56,5.86-13.26,10.1-1.25,1.4-2.52,2.81-4.18,3.96l-.24-.17h0Z"/>
      <g>
        <path class="cls-10" d="m196.09,633.36l18.43-57.86s3.04-1.4,5.65-4.82,18.68-52.91,18.27-55.92-2.79-6.59-2.79-6.59l3.39-12.39c-14.31-2.34-29.11-4.27-47.26-7.5-12.1,27.74-12.63,72.62-17.63,119.97l21.94,25.12Z"/>
        <path class="cls-22" d="m230.67,507.15c-3.44.05-6.89.09-10.16.67-1.33.28-2.83.58-3.76,1.51-2.26,4.56-3.31,9.75-4.72,14.65-.89,3.31-1.73,6.64-2.54,9.98-2.2,9.16-4.54,18.31-6.01,27.61-.1.72-.23,1.65-.19,2.3.61,2.96,3.93,5.17,6.43,6.84,0,0-.11.27-.11.27-1.69-.49-3.29-1.25-4.77-2.28-1.43-1.06-2.89-2.39-3.39-4.52-.19-3.6.74-7.05,1.28-10.57,2.85-14.42,6.06-28.76,11.04-42.63.39-.92.76-1.94,1.43-2.84,1.26-1.42,3.31-1.79,5.06-2.01,3.53-.35,7.01,0,10.44.74,0,0-.03.29-.03.29h0Z"/>
        <path class="cls-22" d="m234.85,502.29c-3.48,1.03-7,.79-10.49.72-7-.19-14-.9-20.88-2.29-3.43-.69-6.91-1.43-10.02-3.25l.08-.28c6.9.41,13.64,2.27,20.59,2.74,3.43.38,6.88.66,10.33.92,3.46.27,6.9.21,10.38,1.14v.29h0Z"/>
        <path class="cls-22" d="m187.73,556.89c.53,3.85-.05,7.56-.35,11.3l-1.04,11.22-1.18,11.2c-.41,3.73-.63,7.48-1.81,11.16l-.29-.02c-.96-7.57.41-15.05.88-22.58.4-3.74.8-7.48,1.29-11.21.51-3.73.78-7.49,2.21-11.1l.29.04h0Z"/>
      </g>
      <path class="cls-16" d="m248.17,398.53c-10.39,1.54-41.14-1.45-48.97-8.26,0,0,.14-.26.14-.26,1.05.22,2.04.51,3.02.82,10.88,3.26,22.16,4.7,33.46,5.74,4.13.43,8.26.42,12.4,1.67l-.05.29h0Z"/>
      <path class="cls-22" d="m369.44,518.5c-.29-3.54.3-7.91,3.37-10.17,2.44-1.95,6.29-4.08,8.96-5.73,3-1.81,6.01-3.59,8.81-5.56,2.72-1.86,4.9-4.61,7.2-7.21,8.14-9.46,15.18-20.75,29.03-21.85,1.79-.14,3.61-.08,5.35.41l-.06.29c-6.84.02-13.49,2.82-18.81,6.99-4.4,3.94-9.79,11.12-13.69,15.72-2.31,2.7-4.7,5.56-7.67,7.58-2.95,2.05-6.02,3.78-9.06,5.52-3.03,1.74-6.14,3.44-8.91,5.35-.69.5-1.25.93-1.69,1.58-1.43,2.07-2.02,4.61-2.54,7.1,0,0-.29,0-.29,0h0Z"/>
      <path class="cls-10" d="m176.35,606.61c-.92-1.06-2.62-.88-3.29.36-2.91,5.35-9.26,17.74-8.77,22.9.64,6.68,15.58,14.31,18.76,16.85,3.18,2.54,12.08,13.03,18.44,17.17s27.98,1.91,29.57-.64-1.27-7.95-3.5-11.76-9.22-11.13-13.35-15.9-4.77-17.17-6.99-18.76-13.35-1.59-15.26-.95-3.5,4.77-3.5,4.77l-12.11-14.04Z"/>
      <path class="cls-22" d="m201.82,615.38c-2.52.88-5.51.46-7.71,1.77-1.57,1.01-3.01,3.22-5.07,4.03-7.01,2.65-13.08-3.98-16.21-9.42,0,0-.02-.63-.02-.63-.07.16,0,.04,0-.03.02-.5-.09-1.26-.13-1.76,0-.27-.07-.48.08-.84l.25.15c0,.11.08.39.16.6.21.58.47,1.2.56,1.82,0,.16.08.31-.13.67l-.02-.63c4.16,3.18,7.11,8.67,12.87,8.24,2.97-.08,4.03-2.54,6.57-4.02,1.49-.83,3.08-1.03,4.54-1.02,1.48.04,2.87.33,4.26.79v.29h0Z"/>
      <path class="cls-22" d="m166.31,627.53c4.02,2.71,7.45,5.87,11.66,8.15,4.29,2.4,8.53,4.95,11.85,8.72,4.25,4.64,7.84,10.08,13.13,13.47,5.27,3.58,11.73,3.38,17.9,2.84,0,0,9.55-.79,9.55-.79l.06.29c-9.16,2.75-20.04,4.93-28.73-.38-5.65-3.53-9.39-9.05-13.66-13.87-4.05-4.89-10.19-7.48-15.2-11.24-2.56-2.05-4.77-4.42-6.76-6.97l.2-.21h0Z"/>
      <path d="m208.13,644.35c.72-1.27,1.83-1.4,2.85-1.74,2.61-.79,5.45-1.16,8.15-.58.55.16,1.08.49,1.49,1.05.06.08.04.2-.04.26-1,.6-2.08.55-3.12.6-1.72.14-4.25.55-5.99.78-1.03.13-1.96.53-3.24-.1-.1-.05-.14-.18-.08-.27h0Z"/>
      <path d="m202.73,638.62c.79-1.27,1.93-1.4,2.99-1.76,2.17-.68,4.41-1.1,6.7-1.11,1.13,0,2.38-.09,3.41.96.08.08.07.22-.03.28-.6.4-1.12.57-1.65.69-2.47.3-5.44.89-7.93,1.28-1.08.15-2.09.57-3.41-.07-.1-.05-.14-.18-.08-.28h0Z"/>
      <path d="m196.02,633.23c.67-1.52,2.01-1.95,3.21-2.52,2.49-1.12,5.23-1.73,7.98-1.55,1.36.09,2.85.27,3.86,1.52.06.08.05.19-.03.25-.75.33-1.42.32-2.05.39-3.07-.15-6.07.54-9,1.42-1.21.35-2.25.99-3.83.75-.12,0-.2-.14-.15-.25h0Z"/>
      <path class="cls-13" d="m184.11,640.71c-1.69-.87-1.7-2.08-2.1-3.21-.34-1.15-.65-2.3-.88-3.46-.24-1.17-.39-2.35-.53-3.54-.16-1.38-.36-2.49.66-3.78,0,0,.43-.09.43-.09,1.44.79,1.69,1.88,2.09,3.22.34,1.14.66,2.29.9,3.46.24,1.17.41,2.35.55,3.53.07,1.2.54,2.32-.67,3.78l-.43.09h0Z"/>
      <path class="cls-13" d="m190.47,645.16c-1.7-1.09-1.7-2.49-2.11-3.81-.34-1.33-.65-2.67-.89-4.02-.24-1.35-.39-2.72-.52-4.09-.16-1.54-.38-2.85.65-4.29,0,0,.43-.08.43-.08,1.47,1.01,1.71,2.31,2.08,3.81.35,1.33.67,2.67.91,4.02.24,1.35.41,2.71.55,4.08.07,1.38.54,2.69-.68,4.3l-.43.08h0Z"/>
    </g>
    <path class="cls-2" d="m315.25,620.05c0-16.21-5.33-31.17-14.32-43.23"/>
    <g>
      <ellipse class="cls-11" cx="924.23" cy="100.9" rx="42.48" ry="41.65" transform="translate(-5.45 109.6) rotate(-6.77)"/>
      <g class="cls-28">
        <line class="cls-7" x1="958.39" y1="93.1" x2="984.65" y2="93.5"/>
        <line class="cls-7" x1="952.75" y1="58.38" x2="952.85" y2="79.42"/>
        <line class="cls-7" x1="921.87" y1="73.32" x2="938.2" y2="83.13"/>
        <line class="cls-7" x1="945.31" y1="48.2" x2="917.95" y2="59.27"/>
        <line class="cls-5" x1="962.26" y1="52.44" x2="977.68" y2="61.8"/>
        <line class="cls-5" x1="987.31" y1="71.14" x2="993.78" y2="85.96"/>
        <line class="cls-5" x1="989.91" y1="104.52" x2="987.15" y2="127.93"/>
        <line class="cls-5" x1="979.9" y1="137.76" x2="955.16" y2="138.03"/>
        <line class="cls-5" x1="950.57" y1="103.4" x2="947.04" y2="129.37"/>
        <line class="cls-5" x1="939.12" y1="96.53" x2="912.81" y2="107.7"/>
        <line class="cls-5" x1="935.35" y1="136.14" x2="910.4" y2="116.41"/>
        <line class="cls-5" x1="907.82" y1="77.24" x2="904.99" y2="95.9"/>
        <line class="cls-5" x1="895.98" y1="118.72" x2="886.45" y2="130.43"/>
        <line class="cls-5" x1="893.87" y1="102.21" x2="885.75" y2="93.54"/>
        <line class="cls-5" x1="939" y1="147.54" x2="917.6" y2="162.33"/>
        <line class="cls-5" x1="950.84" y1="150.24" x2="963.17" y2="169.83"/>
        <path class="cls-25" d="m953.63,148.89l3.72-6.65c1.43-2.56,1.06-5.75-.94-7.91l-5.17-5.59c-1.99-2.16-5.15-2.78-7.81-1.55l-6.92,3.19c-2.67,1.23-4.24,4.03-3.89,6.95l.89,7.56c.34,2.91,2.53,5.28,5.41,5.85l7.47,1.49c2.88.57,5.8-.77,7.23-3.33Z"/>
        <path class="cls-25" d="m991.85,106.84l7.5-1.32c2.89-.51,5.12-2.82,5.53-5.73l1.06-7.54c.41-2.91-1.1-5.75-3.74-7.03l-6.85-3.34c-2.64-1.29-5.8-.73-7.84,1.38l-5.29,5.48c-2.04,2.11-2.49,5.29-1.11,7.89l3.58,6.73c1.38,2.59,4.27,4,7.16,3.49Z"/>
        <path class="cls-25" d="m987.67,150.63l7.5-1.32c2.89-.51,5.12-2.82,5.53-5.73l1.06-7.54c.41-2.91-1.1-5.75-3.74-7.03l-6.85-3.34c-2.64-1.29-5.8-.73-7.84,1.38l-5.29,5.48c-2.04,2.11-2.49,5.29-1.11,7.89l3.58,6.73c1.38,2.59,4.27,4,7.16,3.49Z"/>
        <path class="cls-25" d="m914.61,116.48l2.81-7.08c1.08-2.73.28-5.84-1.98-7.71l-5.87-4.86c-2.26-1.87-5.47-2.07-7.95-.5l-6.43,4.08c-2.48,1.57-3.66,4.56-2.93,7.4l1.89,7.38c.73,2.84,3.21,4.89,6.13,5.08l7.6.48c2.93.19,5.64-1.54,6.73-4.27Z"/>
        <path class="cls-25" d="m954.47,102.9l5.03-5.72c1.94-2.2,2.24-5.41.74-7.93l-3.89-6.55c-1.5-2.52-4.45-3.8-7.31-3.15l-7.43,1.67c-2.86.64-4.99,3.06-5.26,5.98l-.71,7.58c-.27,2.92,1.37,5.69,4.06,6.85l6.99,3.02c2.69,1.16,5.83.46,7.77-1.75Z"/>
        <path class="cls-25" d="m976.54,63.94l4.62,6.05c1.78,2.33,4.86,3.25,7.63,2.28l7.19-2.53c2.77-.97,4.6-3.62,4.52-6.55l-.18-7.61c-.07-2.93-2.02-5.49-4.83-6.33l-7.3-2.18c-2.81-.84-5.85.23-7.51,2.64l-4.33,6.27c-1.67,2.42-1.59,5.63.19,7.96Z"/>
        <path class="cls-25" d="m904.7,54.85l-4.5,6.14c-1.73,2.37-1.75,5.58-.03,7.96l4.45,6.18c1.72,2.38,4.77,3.39,7.56,2.49l7.25-2.33c2.79-.9,4.69-3.49,4.71-6.42l.03-7.62c.01-2.93-1.87-5.54-4.66-6.46l-7.23-2.38c-2.79-.92-5.85.06-7.58,2.43Z"/>
        <path class="cls-25" d="m954.58,59.46l6.17-3.5c2.59-1.47,3.63-4.67,2.4-7.37l-1.67-3.68c-.95-2.09-3.04-3.41-5.33-3.37l-9.25.16c-2.29.04-4.34,1.44-5.21,3.55l-1.54,3.73c-1.13,2.75.01,5.91,2.65,7.29l6.29,3.29c1.73.91,3.8.87,5.5-.09Z"/>
      </g>
    </g>
    <g>
      <g>
        <line class="cls-3" x1="243.23" y1="620.27" x2="245.63" y2="618.47"/>
        <line class="cls-6" x1="250.46" y1="614.85" x2="856.25" y2="159.6"/>
        <line class="cls-3" x1="858.66" y1="157.78" x2="861.06" y2="155.98"/>
        <polygon class="cls-20" points="865.45 167.65 874.83 145.64 851.07 148.52 865.45 167.65"/>
      </g>
      <line class="cls-2" x1="986.93" y1="620.31" x2="243.08" y2="620.02"/>
    </g>
    <g>
      <path d="m477.8,356.83h-11.18v-1.56l5.91-6.56c.88-.99,1.48-1.8,1.81-2.42s.5-1.26.5-1.93c0-.89-.27-1.62-.81-2.19s-1.26-.86-2.16-.86c-1.08,0-1.92.31-2.51.92s-.9,1.47-.9,2.56h-2.17c0-1.57.51-2.84,1.52-3.81s2.37-1.45,4.06-1.45c1.59,0,2.84.42,3.76,1.25s1.38,1.94,1.38,3.32c0,1.68-1.07,3.68-3.21,6l-4.57,4.96h8.57v1.77Z"/>
      <path d="m491.76,349.56c0,2.54-.43,4.43-1.3,5.66s-2.22,1.85-4.07,1.85-3.17-.6-4.04-1.81-1.33-3.01-1.36-5.41v-2.89c0-2.51.43-4.37,1.3-5.59s2.23-1.83,4.08-1.83,3.19.59,4.05,1.76,1.31,2.99,1.34,5.44v2.81Zm-2.17-2.96c0-1.84-.26-3.17-.77-4.01s-1.33-1.26-2.45-1.26-1.92.42-2.43,1.25-.77,2.12-.79,3.86v3.47c0,1.84.27,3.21.8,4.08s1.35,1.32,2.43,1.32,1.87-.41,2.38-1.24.79-2.13.81-3.91v-3.55Z"/>
      <path d="m495.76,355.7c0-.38.11-.69.33-.94s.56-.38,1-.38.78.12,1.01.38.35.56.35.94-.12.66-.35.9-.57.36-1.01.36-.78-.12-1-.36-.33-.54-.33-.9Z"/>
      <path d="m513.47,349.56c0,2.54-.43,4.43-1.3,5.66s-2.22,1.85-4.07,1.85-3.17-.6-4.04-1.81-1.33-3.01-1.36-5.41v-2.89c0-2.51.43-4.37,1.3-5.59s2.23-1.83,4.08-1.83,3.19.59,4.05,1.76,1.31,2.99,1.34,5.44v2.81Zm-2.17-2.96c0-1.84-.26-3.17-.77-4.01s-1.33-1.26-2.45-1.26-1.92.42-2.43,1.25-.77,2.12-.79,3.86v3.47c0,1.84.27,3.21.8,4.08s1.35,1.32,2.43,1.32,1.87-.41,2.38-1.24.79-2.13.81-3.91v-3.55Z"/>
      <path d="m526.37,344.16l.06,1.41c.93-1.09,2.18-1.64,3.76-1.64,1.77,0,2.98.68,3.62,2.04.42-.61.97-1.1,1.65-1.48s1.47-.56,2.4-.56c2.78,0,4.2,1.47,4.24,4.42v8.5h-2.17v-8.37c0-.91-.21-1.58-.62-2.03s-1.11-.67-2.09-.67c-.8,0-1.47.24-2,.72s-.84,1.13-.93,1.94v8.41h-2.18v-8.31c0-1.84-.9-2.77-2.71-2.77-1.42,0-2.39.61-2.92,1.82v9.26h-2.17v-12.68h2.05Z"/>
      <path d="m546.76,358.3h-1.86l7.12-18.53h1.85l-7.11,18.53Z"/>
      <path d="m564.56,353.47c0-.59-.22-1.04-.66-1.37s-1.21-.6-2.31-.84-1.97-.52-2.61-.84-1.12-.72-1.43-1.17-.46-.99-.46-1.62c0-1.04.44-1.92,1.32-2.64s2-1.08,3.37-1.08c1.44,0,2.6.37,3.5,1.11s1.34,1.69,1.34,2.85h-2.18c0-.59-.25-1.11-.76-1.54s-1.14-.64-1.9-.64-1.41.17-1.85.52-.67.79-.67,1.35c0,.52.21.92.62,1.18s1.16.52,2.24.76,1.96.53,2.63.87,1.17.74,1.49,1.21.49,1.05.49,1.73c0,1.13-.45,2.04-1.36,2.72s-2.08,1.03-3.53,1.03c-1.02,0-1.91-.18-2.7-.54s-1.39-.86-1.83-1.51-.66-1.34-.66-2.09h2.17c.04.73.33,1.3.87,1.73s1.26.64,2.15.64c.82,0,1.48-.17,1.97-.5s.74-.78.74-1.33Z"/>
    </g>
    <path class="cls-15" d="m79.11,115.59s14.21-14.21,33.83-14.21,20.3,4.06,28.41,6.09c8.12,2.03,9.47-.68,27.06-1.35,17.59-.68,26.38,6.77,29.77,8.79s28.41,4.74,32.47,6.09c4.06,1.35,13.53,9.47.68,9.47H60.16c-3.38,0,0-12.18,18.94-14.88Z"/>
    <path class="cls-15" d="m683.6,166.38c-.97-5.31-4.48-9.82-9.4-12.04-6.97-3.14-17.38-6.39-26.55-3.47-15.51,4.93-17.62,4.93-23.26,4.93s-34.54.7-40.88,8.46c-6.34,7.75,100.09,2.11,100.09,2.11h0Z"/>
    <path class="cls-15" d="m657.69,71.45s-51.57-17.89-84.2-5.26l-32.63,12.63s-45.26-6.32-58.94,3.16c-13.68,9.47-44.21-2.11-55.78,12.63-11.58,14.74,57.89,9.47,57.89,9.47,0,0,190.51-2.11,196.82-2.11h54.73s15.79-8.42-2.11-9.47c-17.89-1.05-25.26,1.05-31.58-1.05s-5.26-20-44.21-20Z"/>
    <g>
      <path d="m327.76,602.17h-2.18v-14.45l-4.37,1.61v-1.97l6.21-2.33h.34v17.14Z"/>
      <path d="m335.11,593.62l.87-8.51h8.74v2h-6.9l-.52,4.65c.84-.49,1.79-.74,2.85-.74,1.55,0,2.79.51,3.7,1.54s1.37,2.42,1.37,4.17-.47,3.14-1.42,4.15-2.28,1.52-3.98,1.52c-1.51,0-2.74-.42-3.69-1.25s-1.5-1.99-1.63-3.47h2.05c.13.98.48,1.71,1.04,2.21s1.3.74,2.23.74c1.01,0,1.8-.34,2.37-1.03s.86-1.64.86-2.85c0-1.14-.31-2.06-.93-2.75s-1.45-1.04-2.48-1.04c-.95,0-1.69.21-2.23.62l-.57.47-1.73-.45Z"/>
      <path d="m347.69,587.92c0-.81.29-1.52.87-2.13s1.29-.91,2.12-.91,1.51.3,2.08.91.86,1.32.86,2.14-.29,1.54-.86,2.12-1.27.88-2.08.88-1.52-.29-2.11-.88-.88-1.29-.88-2.12Zm2.99,1.5c.42,0,.78-.14,1.07-.41s.43-.64.43-1.08-.14-.82-.43-1.12-.64-.44-1.07-.44-.79.15-1.08.46c-.29.31-.44.67-.44,1.09s.15.77.44,1.06.65.43,1.08.43Z"/>
    </g>
    <path class="cls-15" d="m840.41,385.11s19.32-25.14,46-25.14,27.6,7.18,38.64,10.77c11.04,3.59,12.88-1.2,36.8-2.39,23.92-1.2,35.88,11.97,40.48,15.56,4.6,3.59,38.64,8.38,44.16,10.77,5.52,2.39,18.4,16.76.92,16.76h-232.75c-4.6,0,0-21.55,25.76-26.34Z"/>
    <path class="cls-15" d="m847.76,441.76c-.87-4.77-4.02-8.82-8.44-10.81-6.26-2.82-15.61-5.74-23.84-3.11-13.93,4.43-15.83,4.43-20.89,4.43s-31.02.63-36.72,7.6c-5.7,6.96,89.89,1.9,89.89,1.9h0Z"/>
  </g>
</svg>