<?xml version="1.0" encoding="UTF-8"?><svg id="m" xmlns="http://www.w3.org/2000/svg" width="1140" height="610" xmlns:xlink="http://www.w3.org/1999/xlink" viewBox="0 0 1140 610"><defs><linearGradient id="n" x1="332.53" y1="518.92" x2="332.53" y2="518.92" gradientUnits="userSpaceOnUse"><stop offset="0" stop-color="#fff"/><stop offset="1" stop-color="#000"/></linearGradient><linearGradient id="o" x1="447.94" y1="518.92" x2="447.94" y2="518.92" xlink:href="#n"/><linearGradient id="p" x1="563.35" y1="518.92" x2="563.35" y2="518.92" xlink:href="#n"/><linearGradient id="q" x1="678.76" y1="518.92" x2="678.76" y2="518.92" xlink:href="#n"/><linearGradient id="r" x1="794.17" y1="518.91" x2="794.17" y2="518.91" xlink:href="#n"/><linearGradient id="s" x1="909.57" y1="518.91" x2="909.57" y2="518.91" xlink:href="#n"/><linearGradient id="t" x1="1024.98" y1="518.91" x2="1024.98" y2="518.91" xlink:href="#n"/></defs><line x1="217.19" y1="512" x2="1024.98" y2="512" fill="none" stroke="#b1dded" stroke-miterlimit="10" stroke-width="2"/><line x1="217.19" y1="437" x2="1024.98" y2="437" fill="none" stroke="#b1dded" stroke-miterlimit="10" stroke-width="2"/><line x1="217.19" y1="362" x2="1024.98" y2="362" fill="none" stroke="#b1dded" stroke-miterlimit="10" stroke-width="2"/><line x1="217.19" y1="287" x2="1024.98" y2="287" fill="none" stroke="#b1dded" stroke-miterlimit="10" stroke-width="2"/><line x1="217.19" y1="212" x2="1024.98" y2="212" fill="none" stroke="#b1dded" stroke-miterlimit="10" stroke-width="2"/><line x1="217.19" y1="137" x2="1024.98" y2="137" fill="none" stroke="#b1dded" stroke-miterlimit="10" stroke-width="2"/><line x1="217.19" y1="62" x2="1024.98" y2="62" fill="none" stroke="#b1dded" stroke-miterlimit="10" stroke-width="2"/><line x1="217.19" y1="62" x2="217.19" y2="511.92" fill="none" stroke="#b1dded" stroke-miterlimit="10" stroke-width="2"/><line x1="332.59" y1="62.01" x2="332.59" y2="511.93" fill="none" stroke="#b1dded" stroke-miterlimit="10" stroke-width="2"/><line x1="447.99" y1="62.02" x2="447.99" y2="511.94" fill="none" stroke="#b1dded" stroke-miterlimit="10" stroke-width="2"/><line x1="563.39" y1="62.03" x2="563.39" y2="511.96" fill="none" stroke="#b1dded" stroke-miterlimit="10" stroke-width="2"/><line x1="678.79" y1="62.04" x2="678.79" y2="511.97" fill="none" stroke="#b1dded" stroke-miterlimit="10" stroke-width="2"/><line x1="794.19" y1="62.06" x2="794.19" y2="511.98" fill="none" stroke="#b1dded" stroke-miterlimit="10" stroke-width="2"/><line x1="909.58" y1="62.07" x2="909.58" y2="511.99" fill="none" stroke="#b1dded" stroke-miterlimit="10" stroke-width="2"/><line x1="1024.98" y1="62.08" x2="1024.98" y2="512" fill="none" stroke="#b1dded" stroke-miterlimit="10" stroke-width="2"/><path d="m486.16,26.06l4.51-14.97h4.57l-6.93,19.91h-4.28l-6.9-19.91h4.55l4.48,14.97Z"/><path d="m503.06,31.27c-2.17,0-3.94-.67-5.3-2-1.36-1.33-2.04-3.1-2.04-5.32v-.38c0-1.49.29-2.81.86-3.99s1.39-2.07,2.44-2.71,2.25-.95,3.6-.95c2.02,0,3.62.64,4.78,1.91,1.16,1.28,1.74,3.09,1.74,5.43v1.61h-9.42c.13.97.51,1.74,1.16,2.32.64.58,1.46.88,2.44.88,1.52,0,2.71-.55,3.57-1.65l1.94,2.17c-.59.84-1.39,1.49-2.41,1.96s-2.13.7-3.36.7Zm-.45-12.15c-.78,0-1.42.27-1.91.8-.49.53-.8,1.29-.94,2.28h5.5v-.32c-.02-.88-.25-1.56-.71-2.04s-1.1-.72-1.94-.72Z"/><path d="m515.56,31h-3.96V10h3.96v21Z"/><path d="m518.2,23.47c0-1.47.28-2.78.85-3.92s1.38-2.04,2.44-2.67c1.06-.63,2.29-.94,3.7-.94,2,0,3.62.61,4.89,1.83,1.26,1.22,1.97,2.88,2.11,4.98l.03,1.01c0,2.27-.63,4.09-1.9,5.46s-2.97,2.06-5.1,2.06-3.83-.68-5.11-2.05-1.91-3.23-1.91-5.58v-.18Zm3.95.28c0,1.41.26,2.48.79,3.22.53.74,1.29,1.12,2.27,1.12s1.7-.37,2.24-1.1c.54-.73.81-1.91.81-3.53,0-1.38-.27-2.45-.81-3.2s-1.29-1.14-2.27-1.14-1.71.38-2.24,1.13-.79,1.92-.79,3.5Z"/><path d="m540.8,28.09c.73,0,1.32-.2,1.78-.6.46-.4.69-.93.71-1.6h3.71c0,1-.28,1.92-.82,2.75s-1.27,1.48-2.21,1.94c-.93.46-1.97.69-3.1.69-2.11,0-3.78-.67-5-2.02s-1.83-3.2-1.83-5.57v-.26c0-2.28.61-4.1,1.82-5.46,1.21-1.36,2.88-2.04,4.99-2.04,1.85,0,3.33.53,4.45,1.58,1.12,1.05,1.68,2.45,1.7,4.2h-3.71c-.02-.77-.25-1.39-.71-1.88s-1.06-.72-1.8-.72c-.92,0-1.62.34-2.08,1.01-.47.67-.7,1.76-.7,3.27v.41c0,1.52.23,2.62.7,3.29.46.67,1.17,1,2.12,1Z"/><path d="m549.22,12.38c0-.59.2-1.08.59-1.46s.94-.57,1.62-.57,1.21.19,1.61.57.6.87.6,1.46-.2,1.09-.61,1.48c-.41.38-.94.57-1.61.57s-1.2-.19-1.61-.57c-.41-.38-.61-.88-.61-1.48Zm4.2,18.62h-3.96v-14.79h3.96v14.79Z"/><path d="m561.4,12.57v3.64h2.53v2.9h-2.53v7.38c0,.55.1.94.31,1.18.21.24.61.36,1.2.36.44,0,.83-.03,1.16-.1v2.99c-.77.24-1.57.36-2.39.36-2.77,0-4.18-1.4-4.24-4.2v-7.97h-2.16v-2.9h2.16v-3.64h3.95Z"/><path d="m571.65,25.41l2.73-9.2h4.24l-5.95,17.09-.33.78c-.88,1.93-2.34,2.9-4.38,2.9-.57,0-1.16-.09-1.75-.26v-2.99h.6c.75.01,1.31-.1,1.67-.33.37-.23.66-.61.87-1.13l.46-1.22-5.18-14.83h4.25l2.75,9.2Z"/><path d="m594.84,24.07h-7.7v-3.19h7.7v3.19Z"/><path d="m619.41,14.42h-6.1v16.58h-4.1V14.42h-6.02v-3.32h16.21v3.32Z"/><path d="m621.46,12.38c0-.59.2-1.08.59-1.46s.94-.57,1.62-.57,1.21.19,1.61.57.6.87.6,1.46-.2,1.09-.61,1.48c-.41.38-.94.57-1.61.57s-1.2-.19-1.61-.57c-.41-.38-.61-.88-.61-1.48Zm4.2,18.62h-3.96v-14.79h3.96v14.79Z"/><path d="m632.62,16.21l.12,1.65c1.05-1.29,2.47-1.93,4.25-1.93,1.91,0,3.21.75,3.92,2.26,1.04-1.5,2.52-2.26,4.44-2.26,1.6,0,2.8.47,3.58,1.4s1.18,2.34,1.18,4.22v9.45h-3.96v-9.43c0-.84-.16-1.45-.49-1.84s-.91-.58-1.74-.58c-1.18,0-2,.57-2.46,1.7v10.16s-3.94,0-3.94,0v-9.42c0-.86-.17-1.48-.51-1.86s-.91-.57-1.72-.57c-1.12,0-1.93.46-2.43,1.39v10.46h-3.95v-14.79h3.71Z"/><path d="m659.96,31.27c-2.17,0-3.94-.67-5.3-2-1.36-1.33-2.04-3.1-2.04-5.32v-.38c0-1.49.29-2.81.86-3.99s1.39-2.07,2.44-2.71,2.25-.95,3.6-.95c2.02,0,3.62.64,4.78,1.91,1.16,1.28,1.74,3.09,1.74,5.43v1.61h-9.42c.13.97.51,1.74,1.16,2.32.64.58,1.46.88,2.44.88,1.52,0,2.71-.55,3.57-1.65l1.94,2.17c-.59.84-1.39,1.49-2.41,1.96s-2.13.7-3.36.7Zm-.45-12.15c-.78,0-1.42.27-1.91.8-.49.53-.8,1.29-.94,2.28h5.5v-.32c-.02-.88-.25-1.56-.71-2.04s-1.1-.72-1.94-.72Z"/><path d="m691.27,28.48c-.74.88-1.78,1.57-3.13,2.06s-2.84.73-4.48.73c-1.72,0-3.23-.38-4.53-1.13s-2.3-1.84-3.01-3.27c-.71-1.43-1.07-3.11-1.09-5.04v-1.35c0-1.99.33-3.71,1-5.16s1.64-2.57,2.9-3.34c1.26-.77,2.74-1.16,4.44-1.16,2.36,0,4.21.56,5.54,1.69s2.12,2.76,2.37,4.92h-3.99c-.18-1.14-.59-1.97-1.21-2.5-.62-.53-1.48-.79-2.58-.79-1.39,0-2.46.52-3.19,1.57-.73,1.05-1.1,2.61-1.11,4.68v1.27c0,2.09.4,3.66,1.19,4.73s1.96,1.6,3.49,1.6,2.64-.33,3.29-.98v-3.43h-3.73v-3.02h7.83v7.94Z"/><path d="m702.64,19.91c-.54-.07-1.01-.11-1.42-.11-1.5,0-2.47.51-2.94,1.52v9.68h-3.95v-14.79h3.73l.11,1.76c.79-1.36,1.89-2.04,3.29-2.04.44,0,.85.06,1.23.18l-.05,3.8Z"/><path d="m712.71,31c-.18-.36-.31-.8-.4-1.33-.96,1.07-2.2,1.6-3.73,1.6-1.45,0-2.65-.42-3.6-1.26-.95-.84-1.43-1.9-1.43-3.17,0-1.57.58-2.77,1.74-3.61,1.16-.84,2.84-1.26,5.04-1.27h1.82v-.85c0-.68-.18-1.23-.53-1.64-.35-.41-.9-.62-1.66-.62-.67,0-1.19.16-1.57.48-.38.32-.57.76-.57,1.31h-3.95c0-.86.26-1.65.79-2.38.53-.73,1.28-1.3,2.24-1.72s2.05-.62,3.25-.62c1.82,0,3.27.46,4.34,1.37,1.07.92,1.61,2.2,1.61,3.86v6.41c0,1.4.21,2.47.59,3.19v.23h-3.99Zm-3.27-2.75c.58,0,1.12-.13,1.61-.39s.86-.61,1.09-1.05v-2.54h-1.48c-1.98,0-3.03.68-3.16,2.05v.23c-.01.49.16.9.51,1.22.35.32.82.48,1.42.48Z"/><path d="m732.46,23.74c0,2.28-.52,4.1-1.55,5.48-1.04,1.37-2.43,2.06-4.19,2.06-1.5,0-2.7-.52-3.62-1.56v6.97h-3.95v-20.48h3.66l.14,1.45c.96-1.15,2.21-1.72,3.75-1.72,1.82,0,3.24.67,4.25,2.02,1.01,1.35,1.52,3.21,1.52,5.58v.21Zm-3.95-.29c0-1.38-.24-2.44-.73-3.19-.49-.75-1.2-1.12-2.13-1.12-1.24,0-2.09.47-2.56,1.42v6.06c.48.98,1.34,1.46,2.58,1.46,1.89,0,2.83-1.54,2.83-4.63Z"/><path d="m738.76,17.82c1.05-1.26,2.37-1.89,3.95-1.89,3.21,0,4.83,1.86,4.88,5.59v9.47h-3.95v-9.37c0-.85-.18-1.47-.55-1.88s-.97-.61-1.82-.61c-1.16,0-2,.45-2.52,1.34v10.51h-3.95V10h3.95v7.82Z"/><path d="m600.4,580.25h-5.23v14.21h-3.52v-14.21h-5.16v-2.85h13.9v2.85Z"/><path d="m602.16,578.5c0-.51.17-.93.51-1.25s.8-.49,1.39-.49,1.04.16,1.38.49.52.75.52,1.25-.17.94-.52,1.27-.81.49-1.38.49-1.03-.16-1.38-.49-.52-.75-.52-1.27Zm3.6,15.96h-3.4v-12.68h3.4v12.68Z"/><path d="m611.72,581.78l.11,1.42c.9-1.1,2.11-1.65,3.64-1.65,1.63,0,2.75.64,3.36,1.93.89-1.29,2.16-1.93,3.81-1.93,1.38,0,2.4.4,3.07,1.2s1.01,2.01,1.01,3.62v8.1h-3.4v-8.09c0-.72-.14-1.24-.42-1.58s-.78-.5-1.49-.5c-1.02,0-1.72.48-2.11,1.45v8.71s-3.38,0-3.38,0v-8.07c0-.73-.14-1.27-.43-1.59s-.78-.49-1.48-.49c-.96,0-1.66.4-2.09,1.2v8.96h-3.39v-12.68h3.18Z"/><path d="m635.16,594.7c-1.86,0-3.37-.57-4.54-1.71s-1.75-2.66-1.75-4.56v-.33c0-1.27.25-2.41.74-3.42s1.19-1.78,2.09-2.32,1.93-.81,3.09-.81c1.73,0,3.1.55,4.1,1.64s1.49,2.64,1.49,4.65v1.38h-8.07c.11.83.44,1.49.99,1.99s1.25.75,2.09.75c1.3,0,2.32-.47,3.06-1.42l1.66,1.86c-.51.72-1.2,1.28-2.06,1.68s-1.83.6-2.88.6Zm-.39-10.42c-.67,0-1.22.23-1.63.68s-.69,1.11-.8,1.95h4.71v-.27c-.02-.75-.22-1.34-.61-1.75s-.95-.62-1.66-.62Z"/><path d="m648.42,587.53c0-1.79.24-3.49.71-5.11s1.18-3.05,2.11-4.29,1.94-2.11,3.02-2.6l.66,1.83c-1.14.84-2.03,2.15-2.67,3.91s-.96,3.83-.96,6.19v.36c0,2.37.32,4.44.95,6.21s1.53,3.1,2.68,3.97l-.66,1.79c-1.06-.48-2.05-1.32-2.97-2.53s-1.62-2.6-2.1-4.18-.74-3.23-.77-4.95v-.62Z"/><path d="m663.56,590.96c0-.41-.21-.74-.62-.98s-1.07-.45-1.97-.64c-3.02-.63-4.52-1.91-4.52-3.84,0-1.12.47-2.06,1.4-2.82s2.15-1.13,3.66-1.13c1.61,0,2.9.38,3.86,1.14s1.45,1.74,1.45,2.95h-3.39c0-.48-.16-.88-.47-1.2s-.8-.47-1.46-.47c-.57,0-1.01.13-1.32.39s-.47.59-.47.98c0,.38.18.68.53.91s.96.43,1.8.6,1.55.36,2.13.57c1.79.66,2.68,1.79,2.68,3.41,0,1.16-.5,2.09-1.49,2.81s-2.27,1.07-3.84,1.07c-1.06,0-2.01-.19-2.83-.57s-1.47-.9-1.94-1.56-.7-1.37-.7-2.14h3.21c.03.6.25,1.06.67,1.38s.97.48,1.66.48c.65,0,1.14-.12,1.47-.37s.5-.57.5-.97Z"/><path d="m674.87,587.8c0,1.77-.25,3.46-.76,5.1s-1.24,3.07-2.19,4.32-1.97,2.11-3.06,2.58l-.66-1.79c1.11-.84,1.98-2.12,2.62-3.87s.97-3.75,1-6.01v-.62c0-2.34-.32-4.39-.96-6.18s-1.53-3.12-2.67-4.01l.66-1.79c1.06.46,2.06,1.3,3.01,2.51s1.67,2.62,2.19,4.23.79,3.28.81,5v.53Z"/><path d="m113.17,369.65l-12.83-3.87v-3.91l17.06,5.94v3.67l-17.06,5.92v-3.9l12.83-3.84Z"/><path d="m117.64,355.17c0,1.86-.57,3.37-1.71,4.54s-2.66,1.75-4.56,1.75h-.33c-1.27,0-2.41-.25-3.42-.74s-1.78-1.19-2.32-2.09-.81-1.93-.81-3.09c0-1.73.55-3.1,1.64-4.1s2.64-1.49,4.65-1.49h1.38v8.07c.83-.11,1.49-.44,1.99-.99s.75-1.25.75-2.09c0-1.3-.47-2.32-1.42-3.06l1.86-1.66c.72.51,1.28,1.2,1.68,2.06s.6,1.83.6,2.88Zm-10.42.39c0,.67.23,1.22.68,1.63s1.11.69,1.96.8v-4.71h-.27c-.75.02-1.34.22-1.75.61s-.62.95-.62,1.66Z"/><path d="m117.4,344.46v3.4h-18v-3.4h18Z"/><path d="m110.95,342.19c-1.26,0-2.38-.24-3.36-.73s-1.75-1.18-2.29-2.09-.81-1.97-.81-3.17c0-1.71.52-3.11,1.57-4.19s2.47-1.69,4.27-1.81l.87-.02c1.95,0,3.51.54,4.68,1.63s1.76,2.54,1.76,4.37-.59,3.29-1.76,4.38-2.77,1.63-4.78,1.63h-.15Zm.24-3.39c1.21,0,2.13-.23,2.76-.68.64-.45.96-1.1.96-1.95s-.31-1.46-.95-1.92c-.63-.46-1.64-.69-3.02-.69-1.18,0-2.1.23-2.75.69-.65.46-.97,1.11-.97,1.95s.32,1.47.97,1.92c.64.45,1.64.68,3,.68Z"/><path d="m114.91,322.82c0-.62-.17-1.13-.52-1.52s-.8-.59-1.37-.61v-3.18c.86,0,1.65.24,2.36.7s1.27,1.09,1.66,1.89.59,1.69.59,2.65c0,1.81-.58,3.24-1.73,4.29s-2.74,1.57-4.78,1.57h-.22c-1.95,0-3.51-.52-4.68-1.56s-1.75-2.46-1.75-4.28c0-1.59.45-2.86,1.35-3.81s2.1-1.44,3.6-1.46v3.18c-.66.02-1.2.22-1.61.61-.41.39-.62.91-.62,1.55,0,.79.29,1.38.86,1.79.58.4,1.51.6,2.8.6h.35c1.31,0,2.25-.2,2.82-.6.57-.4.86-1,.86-1.82Z"/><path d="m101.44,315.6c-.51,0-.93-.17-1.25-.51s-.49-.8-.49-1.39.16-1.04.49-1.38.75-.52,1.25-.52.94.17,1.27.52.49.81.49,1.38-.16,1.03-.49,1.38-.75.52-1.27.52Zm15.96-3.6v3.4h-12.68v-3.4h12.68Z"/><path d="m101.61,305.16h3.12v-2.17h2.48v2.17h6.33c.47,0,.8-.09,1.01-.27s.3-.52.3-1.03c0-.38-.03-.71-.08-1h2.57c.2.66.3,1.35.3,2.05,0,2.38-1.2,3.59-3.6,3.63h-6.83v1.85h-2.48v-1.85h-3.12v-3.39Z"/><path d="m112.61,296.37l-7.89-2.34v-3.63l14.65,5.1.67.28c1.66.76,2.48,2.01,2.48,3.75,0,.49-.07.99-.22,1.5h-2.57v-.52c.01-.64-.09-1.12-.28-1.44s-.52-.56-.97-.74l-1.04-.4-12.71,4.44v-3.64l7.89-2.36Z"/><path d="m110.47,282.93c-1.79,0-3.49-.24-5.11-.71s-3.05-1.18-4.29-2.11-2.11-1.94-2.6-3.02l1.83-.66c.84,1.14,2.15,2.03,3.91,2.67s3.83.96,6.19.96h.36c2.37,0,4.44-.32,6.21-.95s3.1-1.53,3.97-2.68l1.79.66c-.48,1.06-1.32,2.05-2.53,2.97s-2.6,1.62-4.18,2.1-3.23.74-4.95.77h-.62Z"/><path d="m104.72,271.48l1.42-.11c-1.1-.9-1.65-2.11-1.65-3.64,0-1.63.64-2.75,1.93-3.36-1.29-.89-1.93-2.16-1.93-3.81,0-1.38.4-2.4,1.2-3.07s2.01-1.01,3.62-1.01h8.1v3.4h-8.09c-.72,0-1.24.14-1.58.42s-.5.78-.5,1.49c0,1.02.48,1.72,1.45,2.11h8.71s0,3.38,0,3.38h-8.07c-.73,0-1.27.14-1.59.43s-.49.78-.49,1.48c0,.96.4,1.66,1.2,2.09h8.96v3.39h-12.68v-3.18Z"/><path d="m118.87,252.81v2.52l-18.53-6.28v-2.52l18.53,6.28Z"/><path d="m113.9,238.05c-.41,0-.74.21-.98.62s-.45,1.07-.64,1.97c-.63,3.02-1.91,4.52-3.84,4.52-1.12,0-2.06-.47-2.82-1.4s-1.13-2.15-1.13-3.66c0-1.61.38-2.9,1.14-3.86s1.74-1.45,2.95-1.45v3.39c-.48,0-.88.16-1.2.47s-.47.8-.47,1.46c0,.57.13,1.01.39,1.32s.59.47.98.47c.38,0,.68-.18.91-.53s.43-.96.6-1.8.36-1.55.57-2.13c.66-1.79,1.79-2.68,3.41-2.68,1.16,0,2.09.5,2.81,1.49s1.07,2.27,1.07,3.84c0,1.06-.19,2.01-.57,2.83s-.9,1.47-1.56,1.94-1.37.7-2.14.7v-3.21c.6-.03,1.06-.25,1.38-.67s.48-.97.48-1.66c0-.65-.12-1.14-.37-1.47s-.57-.5-.97-.5Z"/><path d="m110.74,226.74c1.77,0,3.46.25,5.1.76s3.07,1.24,4.32,2.19,2.11,1.97,2.58,3.06l-1.79.66c-.84-1.11-2.12-1.98-3.87-2.62s-3.75-.97-6.01-1h-.62c-2.34,0-4.39.32-6.18.96s-3.12,1.53-4.01,2.67l-1.79-.66c.46-1.06,1.3-2.06,2.51-3.01s2.62-1.67,4.23-2.19,3.28-.79,5-.81h.53Z"/><path d="m100.17,212.97v1.66h18.6v-1.66h2.61v5.06h-23.82v-5.06h2.61Z"/><path d="m117.4,197.37v3.52l-11.23,6.84h11.23v3.52h-17.06v-3.52l11.25-6.86h-11.25v-3.5h17.06Z"/><path d="m97.55,195.67v-5.06h23.82v5.06h-2.61v-1.68h-18.6v1.68h-2.61Z"/><line x1="217.2" y1="61" x2="217.2" y2="512.94" fill="none" stroke="#000" stroke-miterlimit="10" stroke-width="2"/><line x1="1026" y1="511.93" x2="217" y2="511.93" fill="none" stroke="#000" stroke-miterlimit="10" stroke-width="2"/><line x1="332.53" y1="512.15" x2="332.53" y2="525.68" fill="url(#n)" stroke="#000" stroke-miterlimit="10" stroke-width="2"/><line x1="447.94" y1="512.15" x2="447.94" y2="525.68" fill="url(#o)" stroke="#000" stroke-miterlimit="10" stroke-width="2"/><line x1="563.35" y1="512.15" x2="563.35" y2="525.68" fill="url(#p)" stroke="#000" stroke-miterlimit="10" stroke-width="2"/><line x1="678.76" y1="512.15" x2="678.76" y2="525.68" fill="url(#q)" stroke="#000" stroke-miterlimit="10" stroke-width="2"/><line x1="794.17" y1="512.15" x2="794.17" y2="525.68" fill="url(#r)" stroke="#000" stroke-miterlimit="10" stroke-width="2"/><line x1="909.57" y1="512.15" x2="909.57" y2="525.68" fill="url(#s)" stroke="#000" stroke-miterlimit="10" stroke-width="2"/><line x1="1024.98" y1="512.15" x2="1024.98" y2="525.68" fill="url(#t)" stroke="#000" stroke-miterlimit="10" stroke-width="2"/><line x1="203.48" y1="437" x2="217" y2="437" fill="none" stroke="#000" stroke-miterlimit="10" stroke-width="2"/><line x1="203.48" y1="361.96" x2="217" y2="361.96" fill="none" stroke="#000" stroke-miterlimit="10" stroke-width="2"/><line x1="203.48" y1="286.92" x2="217" y2="286.92" fill="none" stroke="#000" stroke-miterlimit="10" stroke-width="2"/><line x1="203.48" y1="211.88" x2="217" y2="211.88" fill="none" stroke="#000" stroke-miterlimit="10" stroke-width="2"/><line x1="203.48" y1="136.84" x2="217" y2="136.84" fill="none" stroke="#000" stroke-miterlimit="10" stroke-width="2"/><line x1="203.48" y1="61.8" x2="217" y2="61.8" fill="none" stroke="#000" stroke-miterlimit="10" stroke-width="2"/><path d="m169.2,60.83h1.58c1-.02,1.78-.29,2.35-.81s.86-1.23.86-2.12c0-2-.97-3-2.91-3-.91,0-1.64.27-2.18.8s-.82,1.24-.82,2.13h-2.11c0-1.35.48-2.47,1.44-3.37.96-.89,2.18-1.34,3.67-1.34,1.57,0,2.79.43,3.68,1.28s1.33,2.04,1.33,3.55c0,.74-.23,1.46-.7,2.16-.47.7-1.1,1.21-1.91,1.56.91.3,1.62.79,2.12,1.48s.75,1.53.75,2.52c0,1.53-.49,2.75-1.46,3.64-.97.9-2.24,1.35-3.8,1.35s-2.83-.43-3.8-1.3-1.47-2.01-1.47-3.43h2.12c0,.9.29,1.62.86,2.16s1.33.81,2.29.81c1.02,0,1.8-.27,2.34-.82s.81-1.33.81-2.36-.3-1.75-.89-2.29c-.59-.53-1.45-.8-2.57-.82h-1.58v-1.77Z" fill="#212728"/><path d="m189.66,63.14c0,2.54-.42,4.43-1.27,5.66-.84,1.23-2.16,1.85-3.96,1.85s-3.08-.6-3.94-1.81-1.29-3.01-1.32-5.41v-2.89c0-2.51.42-4.37,1.27-5.59s2.17-1.83,3.97-1.83,3.1.59,3.95,1.76c.84,1.18,1.28,2.99,1.3,5.44v2.81Zm-2.11-2.96c0-1.84-.25-3.17-.75-4.01s-1.3-1.26-2.38-1.26-1.87.42-2.36,1.25-.75,2.12-.76,3.86v3.47c0,1.84.26,3.21.78,4.08.52.88,1.31,1.32,2.37,1.32s1.82-.41,2.32-1.24c.5-.83.77-2.13.79-3.91v-3.55Z" fill="#212728"/><path d="m177.01,145.42h-10.88v-1.56l5.75-6.56c.85-.99,1.44-1.8,1.76-2.42.32-.62.48-1.26.48-1.93,0-.89-.26-1.62-.79-2.19s-1.22-.86-2.1-.86c-1.05,0-1.87.31-2.45.92s-.87,1.47-.87,2.56h-2.11c0-1.57.49-2.84,1.48-3.81s2.3-1.45,3.95-1.45c1.54,0,2.76.42,3.66,1.25s1.35,1.94,1.35,3.32c0,1.68-1.04,3.68-3.13,6l-4.45,4.96h8.34v1.77Z" fill="#212728"/><path d="m180.22,136.86l.84-8.51h8.51v2h-6.72l-.5,4.65c.81-.49,1.74-.74,2.77-.74,1.51,0,2.71.51,3.61,1.54.89,1.03,1.33,2.42,1.33,4.17s-.46,3.14-1.39,4.15-2.21,1.52-3.87,1.52c-1.47,0-2.67-.42-3.59-1.25-.93-.84-1.46-1.99-1.59-3.47h2c.13.98.47,1.71,1.02,2.21.55.5,1.27.74,2.17.74.98,0,1.75-.34,2.31-1.03.56-.69.84-1.64.84-2.85,0-1.14-.3-2.06-.91-2.75-.61-.69-1.41-1.04-2.41-1.04-.92,0-1.64.21-2.17.62l-.56.47-1.69-.45Z" fill="#212728"/><path d="m177.01,220.42h-10.88v-1.56l5.75-6.56c.85-.99,1.44-1.8,1.76-2.42.32-.62.48-1.26.48-1.93,0-.89-.26-1.62-.79-2.19s-1.22-.86-2.1-.86c-1.05,0-1.87.31-2.45.92s-.87,1.47-.87,2.56h-2.11c0-1.57.49-2.84,1.48-3.81s2.3-1.45,3.95-1.45c1.54,0,2.76.42,3.66,1.25s1.35,1.94,1.35,3.32c0,1.68-1.04,3.68-3.13,6l-4.45,4.96h8.34v1.77Z" fill="#212728"/><path d="m189.66,213.14c0,2.54-.42,4.43-1.27,5.66-.84,1.23-2.16,1.85-3.96,1.85s-3.08-.6-3.94-1.81-1.29-3.01-1.32-5.41v-2.89c0-2.51.42-4.37,1.27-5.59s2.17-1.83,3.97-1.83,3.1.59,3.95,1.76c.84,1.18,1.28,2.99,1.3,5.44v2.81Zm-2.11-2.96c0-1.84-.25-3.17-.75-4.01s-1.3-1.26-2.38-1.26-1.87.42-2.36,1.25-.75,2.12-.76,3.86v3.47c0,1.84.26,3.21.78,4.08.52.88,1.31,1.32,2.37,1.32s1.82-.41,2.32-1.24c.5-.83.77-2.13.79-3.91v-3.55Z" fill="#212728"/><path d="m173.07,295.42h-2.12v-14.45l-4.25,1.61v-1.97l6.05-2.33h.33v17.14Z" fill="#212728"/><path d="m180.22,286.86l.84-8.51h8.51v2h-6.72l-.5,4.65c.81-.49,1.74-.74,2.77-.74,1.51,0,2.71.51,3.61,1.54.89,1.03,1.33,2.42,1.33,4.17s-.46,3.14-1.39,4.15-2.21,1.52-3.87,1.52c-1.47,0-2.67-.42-3.59-1.25-.93-.84-1.46-1.99-1.59-3.47h2c.13.98.47,1.71,1.02,2.21.55.5,1.27.74,2.17.74.98,0,1.75-.34,2.31-1.03.56-.69.84-1.64.84-2.85,0-1.14-.3-2.06-.91-2.75-.61-.69-1.41-1.04-2.41-1.04-.92,0-1.64.21-2.17.62l-.56.47-1.69-.45Z" fill="#212728"/><path d="m173.07,370.41h-2.12v-14.45l-4.25,1.61v-1.97l6.05-2.33h.33v17.14Z" fill="#212728"/><path d="m189.66,363.14c0,2.54-.42,4.43-1.27,5.66-.84,1.23-2.16,1.85-3.96,1.85s-3.08-.6-3.94-1.81-1.29-3.01-1.32-5.41v-2.89c0-2.51.42-4.37,1.27-5.59s2.17-1.83,3.97-1.83,3.1.59,3.95,1.76c.84,1.18,1.28,2.99,1.3,5.44v2.81Zm-2.11-2.96c0-1.84-.25-3.17-.75-4.01s-1.3-1.26-2.38-1.26-1.87.42-2.36,1.25-.75,2.12-.76,3.86v3.47c0,1.84.26,3.21.78,4.08.52.88,1.31,1.32,2.37,1.32s1.82-.41,2.32-1.24c.5-.83.77-2.13.79-3.91v-3.55Z" fill="#212728"/><path d="m180.22,436.86l.84-8.51h8.51v2h-6.72l-.5,4.65c.81-.49,1.74-.74,2.77-.74,1.51,0,2.71.51,3.61,1.54.89,1.03,1.33,2.42,1.33,4.17s-.46,3.14-1.39,4.15-2.21,1.52-3.87,1.52c-1.47,0-2.67-.42-3.59-1.25-.93-.84-1.46-1.99-1.59-3.47h2c.13.98.47,1.71,1.02,2.21.55.5,1.27.74,2.17.74.98,0,1.75-.34,2.31-1.03.56-.69.84-1.64.84-2.85,0-1.14-.3-2.06-.91-2.75-.61-.69-1.41-1.04-2.41-1.04-.92,0-1.64.21-2.17.62l-.56.47-1.69-.45Z" fill="#212728"/><path d="m189.66,513.13c0,2.54-.42,4.43-1.27,5.66-.84,1.23-2.16,1.85-3.96,1.85s-3.08-.6-3.94-1.81-1.29-3.01-1.32-5.41v-2.89c0-2.51.42-4.37,1.27-5.59s2.17-1.83,3.97-1.83,3.1.59,3.95,1.76c.84,1.18,1.28,2.99,1.3,5.44v2.81Zm-2.11-2.96c0-1.84-.25-3.17-.75-4.01s-1.3-1.26-2.38-1.26-1.87.42-2.36,1.25-.75,2.12-.76,3.86v3.47c0,1.84.26,3.21.78,4.08.52.88,1.31,1.32,2.37,1.32s1.82-.41,2.32-1.24c.5-.83.77-2.13.79-3.91v-3.55Z" fill="#212728"/><path d="m333.75,551.47h-2.16v-14.45l-4.33,1.61v-1.97l6.15-2.33h.34v17.14Z" fill="#212728"/><path d="m453.77,551.47h-11.07v-1.56l5.85-6.56c.87-.99,1.46-1.8,1.79-2.42s.49-1.26.49-1.93c0-.89-.27-1.62-.8-2.19s-1.25-.86-2.14-.86c-1.07,0-1.9.31-2.49.92s-.89,1.47-.89,2.56h-2.15c0-1.57.5-2.84,1.5-3.81,1-.97,2.34-1.45,4.02-1.45,1.57,0,2.81.42,3.73,1.25s1.37,1.94,1.37,3.32c0,1.68-1.06,3.68-3.18,6l-4.53,4.96h8.49v1.77Z" fill="#212728"/><path d="m561.82,541.89h1.61c1.01-.02,1.81-.29,2.39-.81s.87-1.23.87-2.12c0-2-.99-3-2.96-3-.93,0-1.67.27-2.22.8-.55.54-.83,1.24-.83,2.13h-2.15c0-1.35.49-2.47,1.47-3.37.98-.89,2.22-1.34,3.73-1.34,1.59,0,2.84.43,3.75,1.28s1.36,2.04,1.36,3.55c0,.74-.24,1.46-.71,2.16-.48.7-1.12,1.21-1.94,1.56.93.3,1.65.79,2.15,1.48s.76,1.53.76,2.52c0,1.53-.5,2.75-1.49,3.64-.99.9-2.28,1.35-3.87,1.35s-2.88-.43-3.87-1.3c-1-.87-1.49-2.01-1.49-3.43h2.16c0,.9.29,1.62.87,2.16s1.36.81,2.33.81c1.04,0,1.83-.27,2.38-.82s.82-1.33.82-2.36-.3-1.75-.91-2.29-1.47-.8-2.61-.82h-1.61v-1.77Z" fill="#212728"/><path d="m682.76,545.74h2.34v1.77h-2.34v3.96h-2.16v-3.96h-7.7v-1.28l7.57-11.82h2.29v11.33Zm-7.42,0h5.26v-8.37l-.25.47-5,7.9Z" fill="#212728"/><path d="m789.68,542.92l.86-8.51h8.66v2h-6.84l-.51,4.65c.83-.49,1.77-.74,2.82-.74,1.54,0,2.76.51,3.67,1.54.91,1.03,1.36,2.42,1.36,4.17s-.47,3.14-1.41,4.15-2.25,1.52-3.94,1.52c-1.49,0-2.71-.42-3.66-1.25s-1.48-1.99-1.61-3.47h2.03c.13.98.48,1.71,1.03,2.21.56.5,1.29.74,2.21.74,1,0,1.78-.34,2.35-1.03.57-.69.85-1.64.85-2.85,0-1.14-.31-2.06-.92-2.75s-1.43-1.04-2.46-1.04c-.94,0-1.67.21-2.21.62l-.57.47-1.72-.45Z" fill="#212728"/><path d="m912.12,534.4v1.84h-.39c-1.67.03-3,.53-3.99,1.5s-1.56,2.33-1.72,4.09c.89-1.03,2.1-1.55,3.64-1.55s2.64.52,3.52,1.57c.88,1.05,1.32,2.4,1.32,4.05,0,1.76-.47,3.16-1.42,4.22s-2.22,1.58-3.81,1.58-2.93-.63-3.94-1.88-1.51-2.87-1.51-4.85v-.83c0-3.14.66-5.54,1.99-7.2,1.33-1.66,3.3-2.51,5.93-2.55h.38Zm-2.82,7.69c-.74,0-1.41.22-2.03.67-.62.45-1.05,1-1.29,1.68v.8c0,1.41.31,2.54.94,3.4s1.41,1.29,2.34,1.29,1.73-.36,2.28-1.08c.55-.72.83-1.66.83-2.82s-.28-2.12-.84-2.84c-.56-.72-1.31-1.08-2.23-1.08Z" fill="#212728"/><path d="m1029.61,535.63l-7,15.84h-2.25l6.98-15.28h-9.15v-1.78h11.42v1.22Z" fill="#212728"/><path d="m223.63,544.2c0,2.54-.42,4.43-1.27,5.66-.84,1.23-2.16,1.85-3.96,1.85s-3.08-.6-3.94-1.81-1.29-3.01-1.32-5.41v-2.89c0-2.51.42-4.37,1.27-5.59s2.17-1.83,3.97-1.83,3.1.59,3.95,1.76c.84,1.18,1.28,2.99,1.3,5.44v2.81Zm-2.11-2.96c0-1.84-.25-3.17-.75-4.01s-1.3-1.26-2.38-1.26-1.87.42-2.36,1.25-.75,2.12-.76,3.86v3.47c0,1.84.26,3.21.78,4.08.52.88,1.31,1.32,2.37,1.32s1.82-.41,2.32-1.24c.5-.83.77-2.13.79-3.91v-3.55Z" fill="#212728"/><polygon points="332.5 147.45 321.72 136.82 332.5 126.24 343.28 136.87 332.5 147.45" fill="#5c539c"/><polygon points="448.11 147.45 437.32 136.81 448.11 126.24 458.89 136.87 448.11 147.45" fill="#5c539c"/><polygon points="563.49 147.45 552.71 136.81 563.49 126.24 574.28 136.87 563.49 147.45" fill="#5c539c"/><polygon points="678.91 147.45 668.12 136.81 678.91 126.23 689.69 136.87 678.91 147.45" fill="#5c539c"/><polygon points="794.32 147.45 783.53 136.81 794.32 126.23 805.1 136.87 794.32 147.45" fill="#5c539c"/><polygon points="909.73 147.45 898.95 136.81 909.73 126.23 920.51 136.87 909.73 147.45" fill="#5c539c"/><line x1="909.73" y1="136.84" x2="217" y2="136.84" fill="none" stroke="#5c539c" stroke-miterlimit="10" stroke-width="2"/></svg>