<?xml version="1.0" encoding="UTF-8"?><svg id="a" xmlns="http://www.w3.org/2000/svg" width="1140" height="641" xmlns:xlink="http://www.w3.org/1999/xlink" viewBox="0 0 1140 641"><defs><style>.z,.aa,.ab,.ac,.ad,.ae,.af,.ag,.ah,.ai,.aj,.ak,.al,.am,.an,.ao,.ap,.aq,.ar,.as,.at,.au,.av,.aw,.ax,.ay,.az,.ba,.bb,.bc,.bd,.be{stroke-width:0px;}.z,.bf{fill:none;}.aa{fill:#333;opacity:.25;}.bg{stroke:#231f20;}.bg,.bf{stroke-miterlimit:10;}.bg,.ab,.az{fill:#fff;}.bf{stroke:#493431;stroke-width:4px;}.ab{opacity:.5;}.bh{clip-path:url(#l);}.bi{clip-path:url(#c);}.ac{fill:#4e4f4f;}.ad{fill:#50b284;}.ae{fill:#493431;}.af{fill:#299983;}.ag{fill:#44ba83;}.ah{fill:#70bb96;}.ai{fill:#25633d;}.aj{fill:#567c8a;}.ak{fill:#419969;}.al{fill:#114e54;}.am{fill:#1e4398;}.an{fill:#22a38b;}.ao{fill:#236e53;}.ap{fill:#add691;}.aq{fill:#a5c3c9;}.ar{fill:#bfddef;}.as{fill:#cde6ee;}.at{fill:#8a7d7e;}.au{fill:#b4d9e4;}.av{fill:#9d9693;}.aw{fill:#989898;}.ax{fill:#a0aa94;}.ay{fill:#7f705f;}.ba{fill:#fcb019;}.bb{fill:#eae4e4;}.bc{fill:#e9e8e9;}.bd{fill:#010101;}.be{fill:#68a0af;}</style><clipPath id="c"><path class="z" d="M955.545,547.598c97.098-36.072,181.847-133.694,181.993-247.562.126-98.602-63.072-187.487-141.825-232.753-78.752-45.266-170.523-53.515-259.108-49.875-88.585,3.64-176.866,18.274-265.47,15.262-106.894-3.634-218.921-32.03-317.459,14.197C45.365,97.678-19.457,242.51,9.38,369.267c30.628,134.628,151.445,226.183,274.897,246.913,86.55,14.533,172.193-11.727,256.311-31.058,84.494-19.418,163.823-22.188,249.685-16.715,55.678,3.549,112.106-1.057,165.272-20.808Z"/></clipPath><clipPath id="l"><path class="z" d="M955.545,547.598c97.098-36.072,181.847-133.694,181.993-247.562.126-98.602-63.072-187.487-141.825-232.753-78.752-45.266-170.523-53.515-259.108-49.875-88.585,3.64-176.866,18.274-265.47,15.262-106.894-3.634-218.921-32.03-317.459,14.197C45.365,97.678-19.457,242.51,9.38,369.267c30.628,134.628,151.445,226.183,274.897,246.913,86.55,14.533,172.193-11.727,256.311-31.058,84.494-19.418,163.823-22.188,249.685-16.715,55.678,3.549,112.106-1.057,165.272-20.808Z"/></clipPath></defs><g id="b"><g class="bi"><g id="d"><rect class="ar" x="-12.809" y="-14.463" width="1157.282" height="434.641"/><path class="an" d="M236.438,184.417c-3.829-6.785-.16-23.22,1.436-25.331,1.595-2.111,5.265-13.118,2.872-16.284-2.163-2.862,2.234-10.555,4.148-12.364s1.277-5.73,2.553-8.444c1.276-2.714,8.615-3.619,8.615-3.619,0,0,3.51,2.111,9.253,2.111s5.743-3.317,7.339-5.126c1.595-1.809,3.829-6.634,5.743-8.142,1.915-1.508,5.105-1.809,5.743-.905.638.905,5.425,4.523,8.934,4.222,3.51-.301,7.02-9.348,7.658-10.555.638-1.206,5.424-6.936,5.424-6.936,0,0,4.786-5.73,6.063-3.016,1.276,2.714,2.233,2.413,4.148,9.047,1.915,6.634,7.658,17.491,7.658,17.491,4.307,0,8.615,1.357,12.922,1.357s5.743,0,14.358-9.499c8.615-9.499,4.308-10.856,8.615-16.284,4.308-5.428,8.615-5.428,8.615-5.428,0,0,0-20.356,7.658-24.426,7.658-4.071,9.572,23.069,13.88,28.497,4.307,5.428,1.436,6.785,5.743,13.57,1.8,2.835,3.344,6.138,4.538,9.03.413-.289.819-.583,1.206-.888,8.615-6.785,4.307-6.785,10.051-10.856,5.743-4.071,7.179,4.071,8.615,9.499,1.436,5.428,14.358-6.785,14.358-6.785,0,0,11.487-27.14,18.666-28.497,7.179-1.357,5.743,4.071,11.487,20.355,5.743,16.284,2.872,4.071,4.308,16.284,1.436,12.213,18.666,13.571,18.666,13.571,0,0,10.051,2.714,17.23,1.357,7.179-1.357,4.308-20.356,21.538-24.426,17.23-4.071,10.051,1.357,18.666,0l4.403-11.443c.679-1.765,2.792-2.631,4.607-1.866,1.965.829,4.759,1.798,8.22,2.453,7.179,1.357,2.871-20.356,11.487-20.356,5.914,0,9.799,18.547,14.44,33.249,4.547-4.173,10.543-9.085,13.319-8.823,2.636.249,4.402,2.418,6.335,4.317,6.732-1.459,13.722-2.562,20.468-2.96,2.581-.152,4.708-.233,6.531-.254,1.712-.585,2.986-1.002,3.52-1.103,2.393-.452,6.701-9.499,12.444-7.69,5.743,1.809,9.572,6.333,9.572,6.333,0,0,3.829-8.142,10.53-11.308,6.7-3.167,10.53,3.619,13.88-1.357,3.351-4.976,6.222-12.213,9.572-16.284,3.35-4.071,7.658,5.88,13.88,7.69,2.14.622,3.596,1.944,4.806,3.46.924-3.745,2.466-6.892,5.245-7.079,6.701-.452,22.016,8.142,22.016,8.142,0,0,7.658-14.023,10.53-13.571,2.872.453,10.051,16.737,11.965,18.094,1.915,1.357,9.572-1.809,9.572-1.809,0,0,2.871-9.951,6.7-10.404,2.971-.351,12.856,9.1,18.479,13.777.969-.065,1.979-.133,3.059-.206,20.102-1.357,17.23-4.071,31.589-9.499,13.349-5.046,20.501.46,39.901.169,2.774-1.833,5.369-3.969,6.046-6.049,1.914-5.88,9.094-3.619,11.965-6.333,2.872-2.714,1.436-13.118,8.615-13.118s11.965,12.666,12.923,10.404c.957-2.262.957-7.238,6.222-12.666,5.265-5.428,5.265-1.809,6.7-3.619,1.436-1.809,2.872-7.237,5.743-11.761,2.872-4.524,6.7-1.809,9.572,0,2.872,1.809,8.136,9.047,8.136,9.047,0,0,1.436-3.167,6.222-4.524,2.206-.625,7.259.768,12.066,2.451,8.874-4.847,19.813-10.647,25.266-12.855,10.051-4.071,14.358-2.714,18.666-2.714s4.308-6.785,8.615-8.142c4.308-1.357,20.102,9.499,20.102,9.499v159.526s-802.751,5.079-802.751,5.079c-2.886.018,1.472-2.068.114-4.476Z"/><path class="ad" d="M-3.759,294.066c-6.297-6.87-14.923-6.011-22.938-11.163-8.015-5.152,16.42,13.74-20.037-12.022-36.457-25.762-27.479-74.996-25.762-79.003,1.717-4.007,7.195-9.446,6.05-33.49-1.145-24.044-15.6-43.795-11.593-62.687S-39.396,15.837,4.399,20.989c18.9,2.224,12.881,30.914,59.252,19.321,22.994-5.748,34.635,55.245,38.643,79.862,4.007,24.617,18.71,44.225,19.855,56.247s2.29,33.777-9.16,48.661c-11.45,14.885-10.877,35.494-18.32,46.944-7.442,11.45-42.22,34.008-61.256,22.327-25.189-15.457-30.875,6.584-37.173-.286Z"/><path class="ae" d="M35.555,255.709c1.564-3.435,35.965-41.219,41.438-50.951,5.473-9.732,16.522-21.733,20.328-31.487,1.564-4.007-4.691-6.87-4.691-6.87,0,0-27.364,38.357-28.928,41.219-1.564,2.862-32.056,38.929-34.401,39.502-2.346.572,3.909,9.732,3.909,9.732l2.346-1.145Z"/><path class="ae" d="M39.454,452.852h-8.001c-4.184,0-7.549-3.441-7.456-7.623l6.184-339.219c.044-1.96,1.941-3.339,3.819-2.776l7.064,2.119c1.241.372,2.097,1.506,2.114,2.802l3.733,331.373c.056,4.158-3.299,13.325-7.457,13.325Z"/><path class="ad" d="M46.134,141.291s-35.154,5.119-38.225,22.184c-3.072,17.065-5.119,16.382,8.874,25.939,13.993,9.556,24.573,18.43,32.765,11.604,8.191-6.826-1.024-19.454,12.628-16.382,13.652,3.072,16.382,26.963,35.836,7.85,19.454-19.113,35.836-10.58,32.082-34.812-3.754-24.232-21.16-30.717-26.621-32.423-5.461-1.706-15.358-6.485-31.058.341-15.7,6.826-14.676-.683-22.867-2.048-8.191-1.365-9.898-7.85-12.969,2.73-3.072,10.58,8.874,11.945,8.874,11.945l.683,3.072Z"/><path class="ad" d="M494.284,249.995c-5.375-5.864-12.738-5.131-19.579-9.529-6.841-4.398,14.016,11.728-17.103-10.262-31.118-21.989-23.455-64.013-21.989-67.434,1.466-3.421,6.141-8.063,5.164-28.586-.977-20.523-13.316-37.382-9.895-53.507,3.421-16.126,32.984-68.167,70.366-63.769,16.132,1.898,10.995,26.387,50.575,16.492,19.626-4.907,29.563,47.155,32.984,68.167,3.421,21.012,15.97,37.748,16.948,48.01.977,10.262,1.955,28.83-7.818,41.535-9.773,12.705-9.284,30.296-15.637,40.069-6.352,9.773-36.037,29.028-52.286,19.057-21.501-13.194-26.354,5.619-31.729-.244Z"/><path class="ae" d="M527.84,217.255c1.335-2.932,30.698-35.183,35.37-43.49,4.671-8.307,14.102-18.55,17.351-26.876,1.335-3.421-4.004-5.864-4.004-5.864,0,0-23.357,32.74-24.692,35.183-1.335,2.443-27.361,33.228-29.363,33.717-2.002.489,3.337,8.307,3.337,8.307l2.002-.977Z"/><path class="ad" d="M536.87,119.592s-30.006,4.37-32.628,18.936-4.37,13.983,7.574,22.14c11.944,8.157,20.975,15.731,27.967,9.905,6.992-5.826-.874-16.605,10.779-13.983,11.653,2.622,13.983,23.014,30.588,6.7,16.605-16.314,30.588-9.031,27.384-29.714-3.205-20.684-18.062-26.219-22.723-27.675-4.661-1.457-13.109-5.535-26.51.291-13.401,5.826-12.527-.583-19.518-1.748-6.992-1.165-8.448-6.7-11.07,2.331s7.574,10.196,7.574,10.196l.583,2.622Z"/><path class="ad" d="M1175.652,293.52l-66.061-26.76s-4.485-19.478-12.886-22.6c-8.401-3.122-9.161,14.291-11.612,21.529-2.451,7.238-9.827,5.08-11.756.404-1.93-4.675-3.66-13.933-8.081-10.453-4.421,3.48-11.205,61.029-17.595,60.75s-13.069-42.808-18.074-50.372c-5.005-7.564-9.002,10.625-11.373,16.03-2.37,5.406-12.036,6.82-14.751-4.317-2.715-11.137-6.094-31.485-10.475-28.922-4.381,2.563-5.622,30.973-13.118,31.563-7.496.591-13.15-40.975-17.45-40.245-4.301.73-11.909,52.735-18.38,54.288s-9.009-38.04-14.415-36.44c-5.406,1.6-12.59,68.314-16.851,68.128s-7.44-25.116-10.876-19.757c-3.436,5.359-10.123,36.285-13.319,36.146-3.195-.14-11.86-21.637-14.15-18.064-2.291,3.573-5.222,21.808-8.417,21.669-3.195-.14-12.244-37.263-17.65-35.663-5.406,1.6-15.225,55.344-18.58,58.87-3.356,3.526-9.994-39.919-13.15-40.975-3.155-1.056-7.008,38.258-11.348,39.904s-12.228-62.053-16.569-60.407-12.31,61.899-18.58,58.87c-6.271-3.029-11.66-26.219-11.66-26.219-5.566,5.266-6.367,23.595-10.507,20.659-.879-.623-1.882-3.911-2.949-8.63,0,0-1.625-7.915-1.625-7.916-1.977-9.632-3.348-19.385-5.258-29.032-.303-1.532-6.005-23.428-9.198-11.776-.484,1.774-.059,3.674-.337,5.492s-1.812,3.756-3.599,3.321c-.961-.233-1.636-1.074-2.203-1.884-1.995-2.846-3.609-5.959-4.786-9.229-.91-2.529-1.605-5.234-3.348-7.279s-4.982-3.154-7.157-1.576c-3.386,2.456-1.437,8.721-4.795,11.216-6.464-8.158-13.195-16.103-20.18-23.82-1.598-1.765-3.742-3.687-6.036-3.05-1.881.522-2.859,2.514-3.973,4.117-.754,1.085-1.751,1.864-3.016,2.186-4.848-6.188-5.292-18.369-14.335-21.352-8.513-2.801-8.614,14.628-10.788,21.954-2.175,7.326-9.627,5.449-11.733.85-2.106-4.599-4.185-13.784-8.471-10.139s-8.883,61.41-15.279,61.373c-6.397-.037-14.683-42.282-19.971-49.651-5.288-7.369-8.592,10.959-10.756,16.45-2.164,5.492-11.769,7.271-14.905-3.755-3.135-11.026-7.283-31.231-11.564-28.504-4.28,2.727-4.444,31.164-11.912,32.038-7.468.874-14.694-40.447-18.964-39.554-4.27.893-9.901,53.148-16.308,54.946-6.407,1.798-10.445-37.671-15.786-35.867-5.341,1.804-9.991,68.742-14.256,68.718-4.265-.025-8.387-24.816-11.617-19.331-3.23,5.485-8.74,36.643-11.938,36.625-3.199-.018-12.672-21.172-14.826-17.515-2.154,3.657-4.391,21.991-7.59,21.972-3.198-.018-13.648-36.772-18.989-34.968-5.341,1.804-13.115,55.882-16.335,59.533-3.219,3.651-11.5-39.511-14.693-40.447-3.193-.936-5.552,38.496-9.827,40.306-4.275,1.81-14.572-61.545-18.847-59.735-4.275,1.81-9.954,62.321-16.335,59.533-6.381-2.789-12.646-25.758-12.646-25.758-5.362,5.473-5.468,23.819-9.716,21.043-4.249-2.777-13.49-64.291-16.72-58.805-3.23,5.485-8.761,40.312-10.877,37.548-2.116-2.764-11.49-41.346-13.654-35.854-2.164,5.491-12.971,25.631-12.394,20.578.659-5.783-10.072-34.196-16.441-21.104-1.333,2.74-1.025,5.95-.917,8.995.343,9.686-1.693,19.448-5.881,28.19-9.144-5.86-19.7-9.501-30.512-10.525-1.121-.106-2.352-.155-3.258.513-.894.66-1.215,1.838-1.379,2.937-1.055,7.067,1.87,14.875-1.582,21.131-3.283,5.949-11.2,7.824-17.892,6.649-6.692-1.175-12.716-4.666-19.085-7.033-6.376-2.37-13.166-3.62-19.968-3.677-2.512-.021-5.119.144-7.34,1.319-5.625,2.977-6.772,11.171-12.352,14.231-1.809.992-3.896,1.321-5.936,1.635-12.524,1.925-25.048,3.85-37.572,5.774-6.414.986-12.892,1.988-18.921,4.388-6.308,2.51-12.25,6.57-19.032,6.881,32.011-.332,64.124-.66,95.922,3.042,26.692,3.107,52.96,9.043,79.639,12.235,17.792,2.129,34.275,7.324,52.023,8.899,32.045,2.843,64.22,4.401,96.354,5.823,23.452,1.038,46.916,1.93,70.386,2.443,3.012.066,29.188-2.129,30.595-.291-2.116-2.764,294.425-28.578,294.425-28.578l-1.253-6.104c65.242,6.109,142.653,11.249,141.446,9.543-2.01-2.842,295.296-17.395,295.296-17.395l-18.586-111.914Z"/><path class="ad" d="M329.991,364.507c-.245-1.055-.49-2.095-.731-3.119-.335-1.423-.727-2.918-1.786-3.957-2.669-2.618-7.629-.378-9.147,2.994s-.913,7.231-1.102,10.906c-.189,3.675-1.741,7.87-5.378,8.93-2.942-12.183-5.883-24.367-8.825-36.55-.656-2.719-1.363-5.54-3.179-7.708-1.816-2.169-5.088-3.465-7.663-2.212-3.329,1.621-3.55,6.005-4.083,9.578s-3.434,7.855-6.922,6.588c-1.469-.534-2.393-1.924-3.138-3.262-3.923-7.051-5.79-15.031-9.643-22.118-3.853-7.087-10.639-13.587-18.906-13.717-13.329-.21-21.27,15.167-33.997,19.009-2.978.899-6.409,1.071-9.048-.54-1.633-.996-2.793-2.566-3.825-4.145-4.23-6.476-7.213-14.013-13.363-18.834-13.473-10.562-21.568,5.346-33.243,7.586-9.02,1.731-21.826-4.502-30.139-.081-5.712,3.037-14.837,7.287-13.695,10.929,1.142,3.645,11.422,8.505,11.422,8.505,0,0-5.711-.608-12.565,3.038-6.853,3.645-10.28-6.075-29.698-6.075-19.418,0-20.56,9.113-20.56,9.113l-1.142,3.038-2.284,8.505s-26.271-.608-28.556,7.29c-2.284,7.898,6.853,14.58,6.853,14.58,0,0-31.983,3.645-34.267,9.72-2.284,6.075,2.284,13.365,2.284,13.365,0,0-14.849,3.645-14.849,10.328,0,6.683,1.142,10.935,4.569,12.15s55.969,3.645,85.668,4.86c29.698,1.215,161.119-1.458,185.106-1.458,23.987,0,42.263,2.43,49.116-1.215,9.49-5.047,19.888-4.011,21.272-16.517,1.385-12.511-1.649-27.003-4.557-39.505Z"/><path class="ah" d="M852.24,382.803s-44.481,1.011-54.59-2.022c-10.109-3.033-23.251-21.229-24.262-28.306s-3.033-21.229,1.011-28.306c4.044-7.076,16.175-13.142,17.186-16.175,1.011-3.033,0-15.164,1.011-23.251,1.011-8.087-2.022-6.066,4.044-15.164,6.066-9.098,12.131-23.251,15.164-27.295s17.186-9.098,32.35-13.142c15.164-4.044,31.339,21.229,31.339,21.229,0,0,18.197-10.109,29.317-10.109s35.382,10.109,38.415,15.164,5.055,15.164,13.142,28.306c8.087,13.142,18.197,37.404,12.131,50.546-6.066,13.142-11.12,31.339-14.153,34.371-3.033,3.033,2.022,14.153-21.229,14.153h-80.874Z"/><path class="ai" d="M1140,352.611s-128.943-12.255-167.183-7.772c-38.24,4.482-30.886,7.043-67.656,6.403-36.77-.64-76.845,2.871-111.137,5.013-40.996,2.561-43.408-8.324-92.845-2.561-31.994,3.73-52.723-5.122-88.021-4.482-35.299.64-63.124,7.043-77.832,10.245-14.708,3.202-51.362,3.84-63.244,12.806-22.91,17.288-57.877,10.885-88.021,17.288-12.493,2.654-21.296,9.833-36.173,11.525-33.762,3.842-30.144,22.411-30.144,22.411,0,0,63.469,6.403,131.125.64,67.656-5.763,255.916-.64,389.757-1.921,133.841-1.281,223.559-.64,264.741-1.281,41.182-.64,36.634-68.314,36.634-68.314Z"/><path class="ak" d="M177.352,272.32c5.142-5.61,3.272-3.74,9.817-7.947,6.545-4.207,14.024-3.272,16.361-9.817,2.337-6.545,19.166-13.089,21.036-34.125,1.87-21.036,1.402-27.113,0-30.385-1.402-3.272-6.077,1.402-5.142-18.231.935-19.634-.935-26.645-3.74-37.865-2.805-11.219-4.675-9.349-9.349-25.243s-3.272-16.829-6.545-32.255c-3.272-15.426,1.87-21.036-8.882-32.255-10.752-11.219-21.503-12.622-29.918-15.426-8.414-2.805-13.556-1.87-18.699-.467-5.142,1.402-19.166,4.675-24.308,15.426-5.142,10.752-14.945,20.087-30.371,31.774-15.426,11.687-15.44,28.997-18.712,49.098-3.272,20.101-2.337,43.007-3.272,52.823-.935,9.817-1.87,27.58,7.479,39.734,9.349,12.154,8.882,28.983,14.959,38.332,6.077,9.349,34.475,27.769,50.019,18.231,20.568-12.622,34.125,4.207,39.267-1.402Z"/><path class="ae" d="M153.075,289.586c.793-2.378,18.233-28.538,21.007-35.276,2.775-6.738,8.376-15.047,10.305-21.8.793-2.775-2.378-4.756-2.378-4.756,0,0-13.873,26.556-14.665,28.538s-16.251,26.953-17.44,27.349c-1.189.396,1.982,6.738,1.982,6.738l1.189-.793Z"/><path class="bf" d="M110.466,223.988s27.646,24.079,39.24,27.646"/><path class="ae" d="M148.932,409.485h-5.54c-2.897,0-5.226-2.382-5.162-5.278l4.282-234.859c.03-1.357,1.344-2.312,2.644-1.922l4.891,1.467c.859.258,1.452,1.043,1.464,1.94l2.584,233.419c.039,2.879-2.284,5.233-5.163,5.233Z"/><path class="ak" d="M211.163,344.232c-5.142-4.632-3.272-3.088-9.817-6.562-6.545-3.474-14.024-2.702-16.361-8.106-2.337-5.404-19.166-10.808-21.036-28.177-1.87-17.369-1.402-22.387,0-25.089,1.402-2.702,6.077,1.158,5.142-15.053s.935-22.001,3.74-31.265c2.805-9.264,4.675-7.72,9.349-20.843,4.675-13.123,3.272-13.895,6.545-26.633,3.272-12.737-1.87-17.369,8.882-26.633,10.752-9.264,21.503-10.422,29.918-12.737,8.414-2.316,13.556-1.544,18.699-.386,5.142,1.158,19.166,3.86,24.308,12.737,5.142,8.878.467,23.159,15.894,32.809,15.426,9.65,29.918,17.369,33.19,33.967,3.272,16.597,2.337,35.51,3.272,43.616.935,8.106,1.87,22.773-7.479,32.809-9.349,10.036-8.882,23.931-14.959,31.651-6.077,7.72-34.475,22.929-50.019,15.053-20.568-10.422-34.125,3.474-39.267-1.158Z"/><path class="ae" d="M235.44,358.488c-.793-1.964-18.233-23.564-21.007-29.127-2.775-5.564-8.376-12.424-10.305-18-.793-2.291,2.378-3.927,2.378-3.927,0,0,13.873,21.927,14.665,23.564s16.251,22.255,17.44,22.582-1.982,5.564-1.982,5.564l-1.189-.655Z"/><path class="bf" d="M278.048,304.324s-27.646,19.882-39.24,22.827"/><path class="ae" d="M239.583,457.489h5.54c2.897,0,5.226-1.967,5.162-4.358l-4.282-193.922c-.03-1.12-1.344-1.909-2.644-1.587l-4.891,1.211c-.859.213-1.452.861-1.464,1.602l-2.584,192.733c-.039,2.377,2.284,4.321,5.163,4.321Z"/><rect id="e" class="aw" x="-14.554" y="409.404" width="1169.172" height="245.724"/><path id="f" class="az" d="M318.288,61.909c-.496-1.164-1.238-2.222-2.151-3.183h.029c-4.222-7.491-17.525-10.76-25.504-11.687-9.202-1.07-17.095.449-23.846,4.382-10.13.914-19.586,2.884-22.557,7.281-5.494,8.131.99,12.595,8.396,15.021-2.083.463-3.643,1.227-3.871,2.481-.935,5.137,11.377,3.703,14.344,3.738,5.478.064,9.934,2.053,15.381,2.122,6.056.076,10.051-1.443,15.409-3.856.505-.228,1.024-.44,1.55-.647,14.486-.783,27.618-4.395,22.821-15.652Z"/></g><g id="g"><path id="h" class="ay" d="M1.616,405.247c47.657-17.194,154.281-15.231,199.281-13.671,257.472,8.927,484.665,43.241,598.611,16.251,15.68-3.714,47.283-10.008,91.671-13.037,39.122-2.67,69.511,11.924,93.438,5.962,23.927-5.962,46.362-7.512,80.32-6.292,33.958,1.22,50.828,22.152,50.828,22.152l-1111.564.991-2.586-12.356Z"/><g id="i"><polygon class="bb" points="312.579 578.3 49.274 578.3 49.274 595.3 294.691 595.3 312.579 578.3"/><polygon class="bb" points="397.286 578.3 382.398 595.3 1106.89 595.3 1106.89 578.3 397.286 578.3"/></g><g id="j"><path class="ao" d="M998.529,416.797h6.167c.116-.894.251-1.849.4-2.837.291.97.57,1.924.828,2.837h21.089c.036-.166.069-.327.105-.496.112.17.244.332.373.496h47.15c.285-1.484.649-3.169,1.044-4.898.397,1.802.741,3.497.976,4.898h18.594l-1.617-2.667c-.846-6.702-2.502-16.214-3.394-14.74-.433.716-1.392,2.716-2.475,5.059l-2.955-4.875s.863,3.215,1.866,7.25c-1.875,4.122-3.739,8.357-3.739,8.357l-5.763-9.507c.963-3.858,1.773-6.876,1.773-6.876l-2.971,4.901-3.913-6.454s1.137,4.234,2.318,9.085l-6.308,10.406s-6.005-13.645-7.303-15.791c-.819-1.354-2.284,6.567-3.172,13.061-.876-5.635-2.027-11.096-2.718-9.954-.861,1.424-3.793,7.906-5.669,12.11-1.235-.12-2.543-.131-3.732-.083-.859-6.675-2.47-15.803-3.344-14.357-.433.716-1.392,2.716-2.475,5.059l-.326-.537c.718-1.418,1.736-3.012,1.45-4.451-.858.66-1.696,1.654-2.497,2.724l-1.582-2.61s.377,1.404.92,3.515c-.747,1.05-1.456,2.111-2.104,2.963-.926,1.218-2.028,2.358-2.141,3.886.021-3.95,1.897-8.145,1.349-12.012-2.482,2.225-3.68,6.306-4.57,9.545l-1.09-1.798c.963-3.858,1.773-6.876,1.773-6.876l-2.971,4.901-3.912-6.454s1.137,4.234,2.318,9.085l-3.211,5.297c-1.317-6.202-3.145-13.154-3.833-11.826-.533,1.028-1.905,4.574-3.227,8.087-1.415-3.101-2.794-6.04-3.34-6.943-.715-1.183-1.923,4.709-2.809,10.547l-3.844-5.498c.851-4.913,1.701-9.206,1.701-9.206l-3.47,6.677-3.295-4.712s1.012,2.963,2.233,6.756l-4.656,8.96ZM1038.437,408.603c.046.183.091.365.138.552-.202.444-.403.888-.602,1.328.128-.63.28-1.257.465-1.88Z"/><path class="ao" d="M29.423,416.797c-1.393-2.993-6.078-13.012-7.215-14.814-.921-1.459-2.394,8.097-3.108,14.814h10.323Z"/><path class="ao" d="M1106.426,416.797c-.831-6.715-2.528-16.576-3.435-15.077-1.12,1.852-5.739,12.252-6.988,15.077h10.423Z"/><path class="ao" d="M1113.858,419.309c-.831-6.715-2.528-16.576-3.435-15.077-1.12,1.852-5.739,12.252-6.988,15.077h10.423Z"/><path class="ao" d="M1101.909,416.576c-.831-6.715-2.528-16.576-3.435-15.077-1.12,1.852-5.739,12.252-6.988,15.077h10.423Z"/><path class="ao" d="M1074.939,416.325c-.831-6.715-2.528-16.576-3.435-15.077-1.12,1.852-5.739,12.252-6.988,15.077h10.423Z"/><path class="ao" d="M1051.885,416.576c-.831-6.715-2.528-16.576-3.435-15.077-1.12,1.852-5.739,12.252-6.988,15.077h10.423Z"/><path class="ao" d="M428.827,416.797c.101-1.514.318-3.456.591-5.543.639,1.989,1.229,3.918,1.672,5.543h19.741c.176-1.086.397-2.298.651-3.584.341.494.757.964,1.211,1.391.169.804.311,1.539.421,2.193h45.381c.089-1.801.708-5.214,1.461-8.828.95,3.949,1.64,7.395,1.414,8.318l-.057.51h44.903c.12-.14.237-.281.346-.427.088.144.193.284.291.427h77.423l-.086-.65c-.243-.919.379-4.376,1.252-8.341.851,3.727,1.558,7.247,1.646,8.991h45.231c.094-.852.271-1.939.508-3.177.446-.434.852-.912,1.184-1.412.37,1.703.681,3.278.896,4.589h19.236c.416-1.852,1.112-4.34,1.89-6.93.422,2.8.738,5.342.786,6.93h45.621c.14-.588.302-1.225.483-1.903.573.432,1.245.786,1.974,1.076.025.296.043.565.059.826h34.39c.028-.378.064-.787.109-1.225.631-.256,1.219-.561,1.734-.924.209.764.397,1.483.56,2.149h45.727c.081-1.598.38-3.967.771-6.558.727,2.421,1.382,4.751,1.804,6.558h19.384c.211-1.234.499-2.673.834-4.217.331.5.738.977,1.184,1.412.203,1.067.361,2.015.462,2.805h45.303c.156-1.842.824-5.139,1.619-8.619.873,3.965,1.496,7.423,1.252,8.341l-.037.278h49.105c-.813-1.549-2.174-4.132-3.539-6.673.729-4.087,1.374-7.348,1.374-7.348l-2.621,5.043c-1.239-2.273-2.33-4.211-2.811-4.9-.447-.64-.898.969-1.295,3.542-.76-1.965-1.751-3.827-3.159-5.088-.548,3.867,1.328,8.062,1.349,12.012-.113-1.528-1.215-2.668-2.141-3.886-1.513-1.99-3.343-5.114-5.263-6.592-.352,1.771,1.279,3.782,1.884,5.403.753,2.02,1.171,4.057,1.338,6.163-.243-.803-.876-1.586-1.654-2.067-1.556-2.885-3.038-5.558-3.622-6.395-.147-.211-.294-.17-.44.06-.825-4.896-1.8-9.086-2.414-8.072-1.298,2.146-7.303,15.791-7.303,15.791l-2.05-3.381c-.846-6.702-2.502-16.214-3.394-14.74-.433.716-1.392,2.716-2.475,5.059l-2.955-4.875s.863,3.215,1.866,7.25c-1.875,4.122-3.739,8.357-3.739,8.357l-5.763-9.507c.963-3.858,1.773-6.876,1.773-6.876l-2.971,4.901-3.913-6.454s1.137,4.234,2.318,9.085l-6.308,10.406s-6.005-13.645-7.303-15.791c-.819-1.354-2.284,6.567-3.172,13.061-.876-5.635-2.027-11.096-2.718-9.954-.861,1.424-3.793,7.906-5.669,12.11-1.235-.12-2.543-.131-3.732-.083-.859-6.675-2.47-15.803-3.344-14.357-.433.716-1.392,2.716-2.475,5.059l-.326-.537c.718-1.418,1.736-3.012,1.45-4.451-.858.66-1.696,1.654-2.497,2.724l-1.582-2.61s.377,1.404.92,3.515c-.747,1.05-1.456,2.111-2.104,2.963-.926,1.218-2.028,2.358-2.141,3.886.021-3.95,1.897-8.145,1.349-12.012-2.482,2.225-3.68,6.306-4.57,9.545l-1.09-1.798c.963-3.858,1.773-6.876,1.773-6.876l-2.971,4.901-3.912-6.454s1.137,4.234,2.318,9.085l-3.211,5.297c-1.317-6.202-3.145-13.154-3.833-11.826-.533,1.028-1.905,4.574-3.227,8.087-1.415-3.101-2.794-6.04-3.34-6.943-.715-1.183-1.923,4.709-2.809,10.547l-3.844-5.498c.851-4.913,1.701-9.206,1.701-9.206l-3.47,6.677-3.295-4.712s1.012,2.963,2.233,6.756l-5.111,9.835s-2.145-4.114-4.294-8.115c.729-4.087,1.374-7.348,1.374-7.348l-2.62,5.043c-1.239-2.273-2.33-4.211-2.811-4.9-.546-.783-1.1,1.797-1.552,5.397-.828-2.599-1.957-5.28-3.801-6.933-.548,3.867,1.328,8.062,1.349,12.012-.113-1.528-1.215-2.668-2.141-3.886-1.513-1.99-3.343-5.114-5.263-6.592-.352,1.771,1.279,3.782,1.884,5.403.651,1.746,1.04,3.509,1.244,5.315-1.781-3.322-3.616-6.669-4.282-7.623-.767-1.099-1.547,4.42-2.042,10.097-1.324-6.428-3.32-14.244-4.046-12.844-1.151,2.22-6.224,16.198-6.224,16.198l-6.996-10.005c.852-4.913,1.701-9.206,1.701-9.206l-3.47,6.677-3.295-4.712s1.012,2.963,2.233,6.756l-3.969,7.638c-.493-5.782-1.287-11.521-2.068-10.403-.502.72-1.671,2.804-2.98,5.209-.129-.241-.259-.483-.389-.725.391-2.195.758-4.145,1.014-5.486.223-.572.349-1.142.328-1.696.021-.107.033-.166.033-.166l-.039.074c-.008-.105,0-.212-.021-.316-1.162.894-2.289,2.391-3.335,3.875-.905-1.636-1.66-2.95-2.037-3.49-.212-.304-.425-.089-.632.483.053-.81.06-1.613-.052-2.401-.784.703-1.43,1.603-1.988,2.594-.51-.844-1.095-1.606-1.782-2.221-.072.511-.098,1.028-.096,1.548-.194-.482-.391-.657-.588-.374-.409.586-1.261,2.079-2.269,3.91-.867-1.216-1.787-2.394-2.734-3.227l-.429-.826s.039.195.106.543c-.016-.012-.031-.029-.047-.041-.171.862.13,1.781.551,2.684.222,1.18.486,2.61.763,4.161-.197.367-.394.735-.59,1.101-1.225-2.246-2.302-4.159-2.779-4.841-.752-1.077-1.516,4.208-2.012,9.766l-4.025-7.745c1.221-3.792,2.233-6.756,2.233-6.756l-3.295,4.712-3.47-6.677s.849,4.294,1.701,9.206l-6.996,10.005s-5.073-13.978-6.224-16.198c-.726-1.401-2.722,6.416-4.046,12.844-.495-5.677-1.276-11.196-2.042-10.097-.666.954-2.501,4.3-4.282,7.623.204-1.806.593-3.568,1.244-5.315.605-1.621,2.236-3.632,1.884-5.403-1.92,1.478-3.75,4.602-5.263,6.592-.926,1.218-2.028,2.358-2.141,3.886.021-3.95,1.897-8.145,1.349-12.012-1.845,1.654-2.974,4.335-3.801,6.933-.452-3.6-1.005-6.18-1.552-5.397-.481.689-1.572,2.626-2.811,4.9l-2.62-5.043s.645,3.26,1.374,7.348c-2.149,4.001-4.294,8.115-4.294,8.115l-5.111-9.835c1.221-3.792,2.233-6.756,2.233-6.756l-3.295,4.712-3.47-6.677s.849,4.294,1.701,9.206l-3.844,5.498c-.886-5.837-2.094-11.729-2.809-10.547-.546.903-1.926,3.842-3.34,6.943-1.321-3.513-2.694-7.059-3.227-8.087-.688-1.327-2.517,5.624-3.833,11.826l-3.211-5.297c1.181-4.852,2.318-9.085,2.318-9.085l-3.912,6.454-2.971-4.901s.81,3.018,1.773,6.876l-1.09,1.798c-.89-3.239-2.087-7.319-4.57-9.545-.548,3.867,1.328,8.062,1.349,12.012-.113-1.528-1.215-2.668-2.141-3.886-.648-.853-1.357-1.913-2.104-2.963.544-2.111.92-3.515.92-3.515l-1.582,2.61c-.802-1.07-1.64-2.063-2.497-2.724-.286,1.439.732,3.033,1.45,4.451l-.326.537c-1.084-2.343-2.042-4.343-2.475-5.059-.875-1.446-2.485,7.682-3.344,14.357-1.189-.048-2.497-.037-3.732.083-1.877-4.204-4.808-10.686-5.669-12.11-.691-1.143-1.842,4.318-2.718,9.954-.888-6.494-2.353-14.415-3.172-13.061-1.298,2.146-7.303,15.791-7.303,15.791l-6.308-10.406c1.181-4.852,2.318-9.085,2.318-9.085l-3.913,6.454-2.971-4.901s.81,3.018,1.773,6.876l-5.763,9.507s-1.864-4.235-3.739-8.357c1.003-4.035,1.866-7.25,1.866-7.25l-2.955,4.875c-1.084-2.343-2.042-4.343-2.475-5.059-.891-1.474-2.548,8.038-3.394,14.74l-2.05,3.381s-6.005-13.645-7.303-15.791c-.865-1.43-2.449,7.48-3.315,14.133-.718-.479-1.453-.809-1.753-.696-.923-3.347-2.101-8.073-4.84-10.529-.548,3.867,1.328,8.062,1.349,12.012-.113-1.528-1.215-2.668-2.141-3.886-1.513-1.99-3.343-5.114-5.263-6.592-.352,1.771,1.279,3.782,1.884,5.403.753,2.02,1.171,4.057,1.338,6.163-.374-1.233-1.658-2.432-2.994-2.537-.028,1.279.723,2.622,1.098,3.843-1.152-.935-2.613-1.549-4.123-1.877.025,1.148.615,2.215.394,3.461-1.184-.132-2.808-.227-4.443-.179-2.374-.093-4.767.049-6.486.241-.303-1.713.508-3.179.542-4.756-2.075.451-4.082,1.294-5.665,2.579.515-1.677,1.548-3.522,1.509-5.28-1.835.143-3.6,1.791-4.113,3.485.229-2.895.803-5.694,1.838-8.469.831-2.228,3.072-4.991,2.589-7.425-2.639,2.031-5.153,6.323-7.232,9.058-1.272,1.674-2.787,3.24-2.942,5.34.029-5.427,2.606-11.192,1.854-16.505-3.764,3.374-5.383,9.868-6.651,14.467-.704-.265-3.132,1.221-4.241,2.514-.856-.678-1.918-1.233-2.296-1.09-.923-3.347-2.101-8.073-4.84-10.529-.548,3.867,1.328,8.062,1.349,12.012-.113-1.528-1.215-2.668-2.141-3.886-1.513-1.99-3.343-5.114-5.263-6.592-.352,1.771,1.279,3.782,1.884,5.403.753,2.02,1.171,4.057,1.338,6.163-.374-1.233-1.658-2.432-2.994-2.537-.028,1.279.723,2.622,1.098,3.843-1.025-.832-2.299-1.397-3.631-1.745-.947-6.701-2.88-16.858-3.771-15.32-1.256,2.169-6.995,15.915-6.995,15.915l-2.115-3.345c-.976-6.687-2.817-16.168-3.679-14.679-.419.724-1.339,2.739-2.377,5.101l-3.049-4.823s.926,3.2,2.007,7.217c-1.795,4.154-3.576,8.42-3.576,8.42l-5.947-9.406c.887-3.874,1.639-6.906,1.639-6.906l-2.875,4.951-4.037-6.385s1.219,4.213,2.494,9.044l-6.104,10.513s-6.269-13.538-7.609-15.662c-.845-1.34-2.156,6.605-2.918,13.114-.986-5.619-2.243-11.059-2.911-9.905-.833,1.439-3.638,7.97-5.433,12.206-1.237-.099-2.545-.086-3.733-.018-.989-6.659-2.776-15.758-3.623-14.297-.419.724-1.338,2.739-2.376,5.101l-.336-.531c.69-1.43,1.677-3.042,1.363-4.476-.845.675-1.663,1.683-2.444,2.766l-1.632-2.582s.404,1.397.989,3.498c-.726,1.063-1.415,2.135-2.046,2.999-.902,1.234-1.982,2.392-2.065,3.922-.056-3.95,1.738-8.176,1.115-12.033-2.439,2.268-3.556,6.369-4.384,9.622l-1.125-1.779c.888-3.874,1.639-6.906,1.639-6.906l-2.875,4.951-4.037-6.385s1.219,4.213,2.494,9.044l-3.107,5.352c-1.437-6.178-3.4-13.097-4.062-11.758-.513,1.037-1.816,4.606-3.069,8.141-1.475-3.076-2.911-5.99-3.475-6.884-.738-1.17-1.831,4.742-2.604,10.594l-3.951-5.43c.756-4.927,1.521-9.234,1.521-9.234l-3.339,6.736-3.386-4.654s1.07,2.945,2.364,6.716l-4.919,9.922s-2.225-4.076-4.451-8.039c.649-4.099,1.231-7.37,1.231-7.37l-2.522,5.087c-1.283-2.251-2.412-4.17-2.906-4.85-.561-.773-1.064,1.815-1.446,5.423-.878-2.584-2.059-5.245-3.936-6.866-.472,3.876,1.485,8.037,1.582,11.986-.143-1.526-1.267-2.646-2.217-3.848-1.551-1.964-3.442-5.055-5.39-6.5-.317,1.777,1.353,3.759,1.989,5.37.685,1.735,1.108,3.49,1.347,5.292-1.845-3.291-3.745-6.605-4.43-7.547-.788-1.085-1.461,4.446-1.846,10.131-1.449-6.404-3.596-14.184-4.295-12.771-1.058,2.14-5.486,15.07-5.877,16.214h39.524ZM870.988,415.539c-.164.371-.257.582-.257.582l-.284-.469c.181-.036.36-.072.541-.114ZM861.586,404.882c.046.183.091.365.138.552-.202.444-.403.888-.602,1.328.128-.63.28-1.257.465-1.88ZM780.079,410.806c.288.961.565,1.906.821,2.812-.371-.107-.766-.196-1.182-.268.107-.809.228-1.663.361-2.544ZM744.196,410.434c.173,1.151.328,2.255.455,3.271-.534.088-1.042.2-1.501.346.315-1.143.671-2.368,1.046-3.618ZM715.634,416.633c-.013.025-.02.038-.02.038l-.022-.043c.014.002.028.003.042.005ZM662.689,404.51c.185.623.337,1.25.465,1.88-.199-.441-.4-.885-.602-1.328.046-.186.092-.369.138-.552ZM653.828,415.28l-.284.469s-.093-.211-.257-.582c.181.041.36.077.541.114ZM472.257,415.812c-.157.374-.246.587-.246.587l-.293-.464c.18-.039.358-.079.539-.123ZM462.649,405.32c.049.182.098.364.148.549-.193.447-.386.894-.576,1.339.116-.632.255-1.261.428-1.888Z"/><path class="ao" d="M997.617,416.797c-.742-1.417-2.286-4.354-3.837-7.24.729-4.087,1.374-7.348,1.374-7.348l-2.62,5.043c-1.239-2.273-2.33-4.211-2.811-4.9-.546-.783-1.1,1.797-1.552,5.397-.828-2.599-1.957-5.28-3.801-6.933-.548,3.867,1.328,8.062,1.349,12.012-.113-1.528-1.215-2.668-2.141-3.886-1.513-1.99-3.343-5.114-5.263-6.592-.352,1.771,1.279,3.782,1.884,5.403.651,1.746,1.04,3.509,1.244,5.315-1.781-3.322-3.616-6.669-4.282-7.623-.767-1.099-1.547,4.42-2.042,10.097-1.324-6.428-3.32-14.244-4.046-12.844-.872,1.682-3.995,10.113-5.457,14.1h32.003Z"/><path class="ao" d="M48.798,416.797c.208-1.442.531-3.216.91-5.111.451,1.814.866,3.576,1.187,5.111h46.282c.007-.041.013-.079.02-.12.437-.442.834-.927,1.156-1.432.126.531.245,1.047.359,1.551h20.477c.33-1.324.72-2.782,1.137-4.274.263,1.542.492,3.004.658,4.274h46.308c.005-.021.009-.04.015-.061.031.022.068.039.1.061h36.438c0-.006,0-.011.001-.017.626-.267,1.207-.582,1.716-.954.098.332.191.655.281.971h46.055c.074-1.585.314-3.794.628-6.196.726,2.262,1.39,4.448,1.847,6.196h19.464c.187-1.239.447-2.685.753-4.237.341.494.757.964,1.211,1.391.229,1.085.408,2.049.524,2.846h45.273c-.075-1.509.61-5.365,1.466-9.481.95,3.949,1.64,7.395,1.414,8.318l-.131,1.163h56.45c.116-1.239.282-2.653.477-4.141.463,1.443.901,2.853,1.276,4.141h6.659l-7.124-9.792c.756-4.927,1.521-9.234,1.521-9.234l-3.339,6.736-3.386-4.654s1.07,2.945,2.364,6.716l-4.919,9.922s-2.225-4.076-4.451-8.039c.649-4.099,1.231-7.37,1.231-7.37l-2.522,5.087c-1.283-2.251-2.412-4.17-2.906-4.85-.459-.632-.879.984-1.225,3.564-.798-1.952-1.826-3.796-3.257-5.033-.472,3.876,1.485,8.037,1.582,11.986-.143-1.526-1.267-2.646-2.217-3.848-1.551-1.964-3.442-5.055-5.391-6.5-.317,1.777,1.353,3.759,1.989,5.37.792,2.006,1.25,4.036,1.457,6.139-.259-.799-.906-1.57-1.694-2.038-1.612-2.857-3.146-5.505-3.745-6.331-.151-.208-.298-.165-.439.068-.92-4.881-1.977-9.054-2.57-8.029-1.256,2.169-6.995,15.915-6.995,15.915l-2.115-3.345c-.976-6.687-2.817-16.168-3.679-14.679-.419.724-1.339,2.739-2.377,5.101l-3.049-4.823s.926,3.2,2.007,7.216c-1.795,4.154-3.576,8.42-3.576,8.42l-5.947-9.406c.887-3.874,1.639-6.906,1.639-6.906l-2.875,4.951-4.037-6.385s1.219,4.213,2.494,9.044l-6.104,10.513s-6.269-13.538-7.609-15.662c-.845-1.34-2.156,6.605-2.918,13.114-.986-5.619-2.243-11.059-2.911-9.905-.833,1.439-3.638,7.97-5.433,12.206-1.237-.099-2.545-.087-3.733-.018-.989-6.659-2.776-15.758-3.623-14.297-.419.724-1.339,2.739-2.376,5.101l-.336-.531c.69-1.43,1.677-3.042,1.363-4.476-.845.675-1.663,1.683-2.444,2.766l-1.632-2.582s.404,1.397.989,3.498c-.726,1.063-1.415,2.135-2.046,2.999-.902,1.234-1.982,2.392-2.065,3.922-.056-3.95,1.738-8.176,1.115-12.033-2.439,2.268-3.556,6.369-4.384,9.622l-1.125-1.779c.888-3.874,1.639-6.906,1.639-6.906l-2.875,4.951-4.037-6.385s1.219,4.213,2.494,9.044l-3.107,5.352c-1.437-6.178-3.4-13.097-4.062-11.758-.513,1.037-1.816,4.606-3.069,8.141-1.475-3.076-2.911-5.99-3.475-6.884-.738-1.17-1.831,4.742-2.604,10.594l-3.951-5.43c.756-4.927,1.521-9.234,1.521-9.234l-3.339,6.736-3.386-4.654s1.07,2.945,2.364,6.716l-4.919,9.922s-2.225-4.076-4.451-8.039c.649-4.099,1.231-7.37,1.231-7.37l-2.522,5.087c-1.283-2.252-2.412-4.17-2.906-4.85-.561-.773-1.064,1.815-1.446,5.423-.878-2.584-2.059-5.245-3.936-6.866-.472,3.876,1.485,8.037,1.582,11.986-.143-1.526-1.267-2.646-2.217-3.848-1.551-1.964-3.442-5.055-5.391-6.5-.317,1.777,1.353,3.759,1.989,5.37.685,1.735,1.108,3.49,1.347,5.292-1.845-3.291-3.745-6.605-4.43-7.547-.788-1.085-1.461,4.446-1.846,10.131-1.449-6.404-3.596-14.184-4.295-12.771-1.108,2.24-5.908,16.303-5.908,16.303l-7.189-9.882c.756-4.927,1.521-9.234,1.521-9.234l-3.339,6.736-3.386-4.654s1.07,2.945,2.364,6.716l-3.82,7.706c-.606-5.773-1.511-11.497-2.269-10.365-.488.729-1.617,2.832-2.878,5.26-.134-.239-.268-.479-.403-.718.349-2.201.677-4.158.907-5.503.212-.576.327-1.148.294-1.701.019-.107.029-.166.029-.166l-.037.075c-.01-.105-.005-.212-.027-.316-1.144.914-2.242,2.43-3.259,3.932-.937-1.62-1.717-2.921-2.105-3.454-.218-.3-.426-.081-.623.494.038-.811.028-1.614-.098-2.399-.771.717-1.398,1.628-1.937,2.628-.526-.835-1.126-1.587-1.824-2.19-.062.512-.078,1.029-.066,1.55-.203-.479-.404-.65-.595-.364-.397.593-1.22,2.101-2.192,3.949-.891-1.201-1.833-2.362-2.796-3.179l-.445-.818s.042.194.117.541c-.016-.012-.032-.028-.047-.04-.154.865.165,1.778.604,2.674.245,1.176.537,2.601.843,4.147-.19.371-.38.741-.568,1.111-1.269-2.224-2.383-4.118-2.872-4.792-.773-1.064-1.434,4.234-1.822,9.799l-4.175-7.674c1.147-3.813,2.101-6.793,2.101-6.793l-3.203,4.768-3.599-6.615s.932,4.278,1.879,9.175l-6.801,10.125s-5.344-13.888-6.538-16.088c-.753-1.388-2.596,6.462-3.795,12.912-.605-5.667-1.493-11.172-2.238-10.06-.647.965-2.417,4.343-4.133,7.696.169-1.809.523-3.578,1.14-5.335.573-1.631,2.165-3.67,1.779-5.435-1.891,1.511-3.66,4.666-5.134,6.682-.902,1.234-1.982,2.392-2.065,3.922-.056-3.95,1.738-8.176,1.115-12.033-1.812,1.685-2.889,4.386-3.666,6.998-.522-3.592-1.125-6.161-1.656-5.369-.467.697-1.52,2.653-2.715,4.948l-2.718-4.996s.708,3.249,1.516,7.323c-2.071,4.038-4.136,8.188-4.136,8.188l-5.301-9.744c1.147-3.813,2.101-6.793,2.101-6.793l-3.203,4.768-3.599-6.615s.932,4.278,1.879,9.175l-3.737,5.563c-1-5.821-2.321-11.691-3.014-10.496-.528.912-1.851,3.875-3.205,7-1.389-3.49-2.831-7.011-3.383-8.03-.714-1.315-2.407,5.667-3.603,11.891l-3.313-5.24c1.086-4.871,2.141-9.124,2.141-9.124l-3.786,6.521-3.065-4.848s.869,3.004,1.906,6.844l-1.055,1.816c-.953-3.223-2.229-7.282-4.755-9.464-.472,3.876,1.485,8.037,1.582,11.986-.143-1.526-1.267-2.646-2.217-3.848-.665-.841-1.394-1.889-2.162-2.926.502-2.12.852-3.53.852-3.53l-1.531,2.637c-.822-1.055-1.679-2.034-2.55-2.68-.258,1.444.791,3.02,1.536,4.426l-.315.543c-1.129-2.324-2.126-4.306-2.573-5.015-.903-1.431-2.336,7.724-3.065,14.413-1.19-.027-2.497.006-3.73.148-1.958-4.171-5.015-10.601-5.904-12.009-.713-1.13-1.758,4.35-2.524,9.999-1.014-6.478-2.633-14.372-3.425-13.004-1.256,2.169-6.995,15.915-6.995,15.915l-6.509-10.294c1.086-4.871,2.14-9.124,2.14-9.124l-3.786,6.521-3.065-4.848s.869,3.004,1.906,6.844l-5.577,9.606s-1.946-4.201-3.901-8.291c.924-4.052,1.725-7.281,1.725-7.281l-2.86,4.925c-1.129-2.324-2.126-4.306-2.573-5.015-.92-1.458-2.391,8.081-3.106,14.797l-1.491,2.568h18.489ZM295.363,415.159c-.157.374-.246.586-.246.586l-.293-.464c.18-.039.358-.079.539-.123ZM285.756,404.667c.049.182.098.364.148.549-.193.447-.386.894-.576,1.339.115-.632.255-1.261.428-1.888ZM204.378,412.004c.307.956.602,1.896.875,2.798-.373-.101-.77-.183-1.187-.247.091-.811.196-1.666.312-2.55ZM168.493,412.255c.196,1.148.372,2.249.518,3.263-.532.097-1.038.218-1.494.372.293-1.149.625-2.379.975-3.635ZM86.885,407.745c.197.62.361,1.244.501,1.872-.208-.437-.418-.878-.628-1.318.043-.187.085-.37.127-.554Z"/><path class="ao" d="M950.659,416.797h5.947c.098-.727.207-1.488.325-2.27.231.771.455,1.531.667,2.27h5.783l-5.529-7.907c.852-4.913,1.701-9.206,1.701-9.206l-3.47,6.677-3.295-4.712s1.012,2.963,2.233,6.756l-4.361,8.393Z"/></g></g></g></g><g id="k"><g class="bh"><path id="m" class="aa" d="M993.365,482.495c-1.074,6.52-7.434,10.529-8.508,17.049-233.811,4.299-461.805,6.045-695.575-.066-8.227-.215-28.743-9.298-13.48-16.482,3.1-1.459,9.112-.495,12.665-.501,8.036-.013,16.073,0,24.11,0h680.789Z"/><g id="n"><path class="bd" d="M177.911,369.857s-13.199,26.387-13.893,51.311c-.317,11.387,8.965,20.736,20.357,20.736h990.742c20.213,0,36.599-16.386,36.599-36.599V122.999s-18.297-33.59-42.051-35.361L177.911,369.857Z"/><path class="az" d="M1169.664,86.202l-718.874,6.005c-49.372,2.002-120.21,21.759-120.21,29.691l-13.363,17.505,188.279-.614c8.307,0,9.678-.484,9.678,7.822v134.207c-2.018-4.966-6.883-8.471-12.574-8.471h-144.858c-7.497,0-5.474,1.51-5.474,1.51,0-4.313-3.496-1.51-7.809-1.51h-113.573c-24.817,0-44.935,20.118-44.935,44.935v5.993h43.911c2.914,0,4.949,2.885,3.972,5.63l-4.441,12.473c-.598,1.68-2.189,2.802-3.972,2.802l-39.763,1.436c-4.471,1.298-7.747,3.969-7.747,8.858v39.903c0,5.931,4.808,10.739,10.739,10.739h17.511c3.942,0,7.549-2.121,9.558-5.511,12.514-21.112,35.281-35.078,61.921-35.078,28.394,0,50.055,15.878,62.482,39.334,2.89,1.407,6.321,1.697,9.585.525l5.621-2.02c3.703-1.33,6.37-4.249,7.532-7.71,1.096.286,2.241.453,3.427.453h136.312c5.69,0,10.556-3.505,12.574-8.471h0c0,4.678,3.793,8.471,8.471,8.471h384.794c5.235,0,10.189-2.274,13.686-6.171,15.615-17.404,33.659-28.523,57.865-28.523s49.485,11.17,62.219,28.643c2.814,3.861,7.842,5.44,12.161,6.051h111.297c10.14,0,18.361-8.22,18.361-18.361V100.565c0-7.932-6.43-14.363-14.363-14.363Z"/></g><g id="o"><ellipse class="ac" cx="984.857" cy="437.036" rx="65.392" ry="62.508"/><path class="bg" d="M1029.518,442.45c3.128-24.22-14.876-46.278-40.215-49.268-25.339-2.99-48.413,14.222-51.541,38.441-3.128,24.22,14.876,46.279,40.214,49.268,25.337,2.989,48.418-14.213,51.542-38.441Z"/><ellipse class="ac" cx="983.643" cy="437.037" rx="34.44" ry="32.921"/><path class="az" d="M987.58,473.337c2.316-4.547,7.681-17.09,7.681-17.09l18.9,3.151s10.157-3.898,7.089-14.727c-3.216-2.997-14.418-12.102-14.418-12.102l8.696-16.118s.275-11.605-12.006-10.781c-5.83,2.756-16.673,9.064-16.673,9.064,0,0-7.73-8.645-12.65-12.937-9.282-3.986-15.13,6.751-15.13,6.751l3.86,18.835-17.62,8.46s-6.709,9.881,3.023,15.644c6.086.855,19.797,1.553,19.797,1.553l3.345,18.943s8.97,7.537,16.107,1.354Z"/><path class="av" d="M1000.168,407.719c1.78.283,2.791,1.412,3.976,2.35,1.17.955,2.315,1.937,3.43,2.951,1.115,1.015,2.192,2.071,3.256,3.142,1.062,1.073,2.224,2.036,2.724,3.727l-.198.217c-1.731-.338-2.8-1.403-3.969-2.358-1.167-.958-2.321-1.929-3.437-2.943-1.115-1.014-2.202-2.061-3.263-3.135-1.046-1.09-2.266-1.99-2.718-3.735l.198-.217h0Z"/><path class="av" d="M977.01,404.917c-.941,1.549-2.377,2.068-3.702,2.82-1.334.732-2.685,1.43-4.054,2.09-1.369.659-2.763,1.266-4.166,1.857-1.404.587-2.743,1.309-4.509,1.144l-.127-.265c.972-1.483,2.372-2.08,3.706-2.811,1.336-.728,2.68-1.439,4.049-2.099,1.369-.659,2.757-1.279,4.161-1.866,1.414-.566,2.716-1.366,4.513-1.135l.127.265h0Z"/><path class="av" d="M948.49,433.356c1.273,1.328,1.425,2.879,1.83,4.38.383,1.505.73,3.018,1.035,4.539.304,1.521.552,3.054.781,4.59.226,1.537.598,3.045.005,4.745l-.288.058c-1.201-1.342-1.437-2.877-1.82-4.382-.379-1.506-.74-3.016-1.045-4.537-.304-1.521-.566-3.051-.791-4.588-.203-1.541-.66-3.032.004-4.747l.288-.058h0Z"/><path class="av" d="M970.275,467.316c1.775-.722,3.374-.315,5.013-.164,1.635.174,3.265.385,4.887.638,1.623.254,3.236.564,4.847.893,1.61.333,3.244.518,4.725,1.675l-.045.29c-1.764.65-3.376.328-5.011.154-1.635-.178-3.266-.375-4.889-.628-1.623-.254-3.239-.55-4.849-.883-1.607-.355-3.253-.455-4.724-1.685l.045-.29h0Z"/><path class="av" d="M1009.676,458.873c-.11-1.886.788-3.233,1.457-4.701.69-1.458,1.412-2.898,2.172-4.318.761-1.42,1.572-2.812,2.4-4.196.831-1.382,1.531-2.835,3.097-3.823l.259.139c.045,1.852-.776,3.239-1.466,4.697-.693,1.456-1.403,2.903-2.163,4.323-.761,1.42-1.56,2.819-2.391,4.201-.851,1.371-1.475,2.864-3.106,3.818l-.259-.139h0Z"/></g><g id="p"><ellipse class="ac" cx="277.64" cy="437.036" rx="65.392" ry="62.508"/><path class="bg" d="M322.301,442.45c3.128-24.22-14.876-46.278-40.215-49.268-25.339-2.99-48.413,14.222-51.541,38.441-3.128,24.22,14.876,46.279,40.214,49.268,25.337,2.989,48.418-14.213,51.542-38.441Z"/><ellipse class="ac" cx="276.427" cy="437.037" rx="34.44" ry="32.921"/><path class="az" d="M280.363,473.337c2.316-4.547,7.681-17.09,7.681-17.09l18.9,3.151s10.157-3.898,7.089-14.727c-3.216-2.997-14.418-12.102-14.418-12.102l8.696-16.118s.275-11.605-12.006-10.781c-5.83,2.756-16.673,9.064-16.673,9.064,0,0-7.73-8.645-12.65-12.937-9.282-3.986-15.13,6.751-15.13,6.751l3.86,18.835-17.62,8.46s-6.709,9.881,3.023,15.644c6.086.855,19.797,1.553,19.797,1.553l3.345,18.943s8.97,7.537,16.107,1.354Z"/><path class="av" d="M292.952,407.719c1.78.283,2.791,1.412,3.976,2.35,1.17.955,2.315,1.937,3.43,2.951,1.115,1.015,2.192,2.071,3.256,3.142,1.062,1.073,2.224,2.036,2.724,3.727l-.198.217c-1.731-.338-2.8-1.403-3.969-2.358-1.167-.958-2.321-1.929-3.437-2.943-1.115-1.014-2.202-2.061-3.263-3.135-1.046-1.09-2.266-1.99-2.718-3.735l.198-.217h0Z"/><path class="av" d="M269.794,404.917c-.941,1.549-2.377,2.068-3.702,2.82-1.334.732-2.685,1.43-4.054,2.09-1.369.659-2.763,1.266-4.166,1.857-1.404.587-2.743,1.309-4.509,1.144l-.127-.265c.972-1.483,2.372-2.08,3.706-2.811,1.336-.728,2.68-1.439,4.049-2.099,1.369-.659,2.757-1.279,4.161-1.866,1.414-.566,2.716-1.366,4.513-1.135l.127.265h0Z"/><path class="av" d="M241.274,433.356c1.273,1.328,1.425,2.879,1.83,4.38.383,1.505.73,3.018,1.035,4.539.304,1.521.552,3.054.781,4.59.226,1.537.598,3.045.005,4.745l-.288.058c-1.201-1.342-1.437-2.877-1.82-4.382-.379-1.506-.74-3.016-1.045-4.537-.304-1.521-.566-3.051-.791-4.588-.203-1.541-.66-3.032.004-4.747l.288-.058h0Z"/><path class="av" d="M263.059,467.316c1.775-.722,3.374-.315,5.012-.164,1.635.174,3.264.385,4.887.638,1.623.254,3.236.564,4.847.893,1.61.333,3.244.518,4.725,1.675l-.045.29c-1.764.65-3.376.328-5.011.154-1.635-.178-3.266-.375-4.889-.628-1.623-.254-3.239-.55-4.849-.883-1.607-.355-3.253-.455-4.724-1.685l.045-.29h0Z"/><path class="av" d="M302.46,458.873c-.11-1.886.788-3.233,1.457-4.701.69-1.458,1.412-2.898,2.172-4.318.761-1.42,1.572-2.812,2.4-4.196.831-1.382,1.531-2.835,3.098-3.823l.259.139c.045,1.852-.776,3.239-1.466,4.697-.693,1.456-1.403,2.903-2.163,4.323-.761,1.42-1.56,2.819-2.391,4.201-.851,1.371-1.475,2.864-3.106,3.818l-.259-.139h0Z"/></g><g id="q"><path class="as" d="M507.244,138.789h-176.024c-5.249,0-10.204,2.426-13.423,6.572l-98.079,125.347,292.259,2.941v-130.128c0-2.614-2.119-4.733-4.733-4.733Z"/><path class="au" d="M185.778,322.789h44.884c2.523,0,4.529,4.317,3.871,6.753l-2.855,10.571c-.877,3.247-3.823,5.503-7.187,5.503h-38.834"/></g><g id="r"><polygon class="ac" points="356.1 141.635 352.007 269.263 363.989 273.857 364.658 141.635 356.1 141.635"/><path class="ac" d="M511.39,143.183c.02-2.08-1.822-3.872-3.898-3.779,0,0-1.398.006-1.398.006-4.649.062-9.343.091-13.98.209-29.834.655-59.631,2.755-89.473,3.091-16.719.122-54.264.28-71.299.351-3.865-.016-7.645,1.791-10.018,4.843,0,0-1.685,2.164-1.685,2.164-8.79,11.309-32.067,41.362-41.133,53.025,0,0-55.022,70.561-55.022,70.561l-3.644-7.724c93.659,2.243,192.955,5.185,286.735,7.976,0,0,1.667.049,1.667.049l1.086.026c.126.004.266-.115.312-.238.008-.026.011-.061.019-.085.006-.027,0-.247,0-.361l-.017-3.336c-.35-42.259,2.44-84.519,1.749-126.779h0ZM512.565,143.176c.404,42.27,4.286,84.473,5.031,126.735,0,0,.069,3.336.069,3.336l.003.473c-.011,1.871-.672,3.736-1.849,5.188-1.822,2.319-4.767,3.386-7.681,3.125,0,0-1.668-.035-1.668-.035-97.153-2.049-199.361-4.104-296.369-6.782,28.397-35.894,74.518-95.146,102.674-130.498,4.386-6.284,10.766-10.27,18.566-10.201.745-.021,3.378.032,4.194.018,15.007.056,52.642.227,67.105.333,22.382.28,44.74,1.454,67.105,2.388,11.183.434,22.364.783,33.552.881,0,0,2.796.031,2.796.031l1.398.006c2.694-.091,5.151,2.299,5.073,5.003h0Z"/></g><g id="s"><polygon class="ab" points="205.756 325.49 186.066 325.49 185.774 341.818 199.154 341.818 205.756 325.49"/><path class="ba" d="M205.232,342.194h17.426c1.755,0,3.382-1.111,3.847-2.802.003-.011.006-.021.009-.032l2.855-10.571c.003-.01.006-.021.008-.031.385-1.477-.855-2.891-2.381-2.891h-15.708l-6.056,16.327Z"/></g><g id="t"><path class="aj" d="M368.453,400.91h139.044c2.473,0,4.48,2.007,4.48,4.48v28.472c0,2.473-2.007,4.48-4.48,4.48h-144.636v-31.839c0-3.086,2.506-5.592,5.592-5.592Z"/><path class="al" d="M392.963,400.91c-2.673,1.817-7.583,5.693-10.797,12.224-5.073,10.31-2.317,19.911-1.456,22.551h33.326v-34.776h-21.074Z"/><path class="be" d="M509.3,435.833c-20.716,1.514-50.817.761-71.881,1.059-21.148-.281-51.043.395-71.88-1.059,0,0,0-.294,0-.294,20.718-1.452,50.818-.78,71.881-1.059,0,0,35.94.124,35.94.124,11.98.105,23.96-.05,35.94.935v.294h0Z"/></g><g id="u"><path class="ap" d="M1195.366,395.031s-138.944-.001-139.098,0c-15.015.109-22.046-15.794-33.039-22.65-12.557-7.832-27.405-12.079-42.225-11.649-19.307.559-38.165,9.032-51.714,22.742-4.689,4.745-6.535,9.817-12.292,11.557-3.897,1.178-10.032,0-14.09,0h-61.403V88.943l355.124-4.325-1.264,310.413Z"/><path class="af" d="M1085.837,143.02h-137.41c-12.008,8.073-23.733,17.67-34.784,28.721-13.899,13.899-25.477,28.863-34.63,44.118v133.986h118.522c18.647-9.829,37.103-23.332,53.992-40.22,13.737-13.737,25.208-28.514,34.311-43.584v-123.021Z"/><path class="ap" d="M904.787,325.618c8.506-15.835,19.821-32.085,30.793-46.389,29.734-38.543,65.57-72.808,105.839-100.222,5.539-3.746,11.971-7.696,17.728-11.05,0,0,.157.248.157.248-5.374,3.929-11.591,8.121-16.946,12.148-39.564,28.073-75.242,61.95-105.105,100.174-7.906,10.143-17.108,23.216-24.4,33.739-2.546,3.866-5.147,7.7-7.814,11.503l-.251-.152h0Z"/><path class="ap" d="M969.898,179.376c-1.657,6.275-3.944,12.215-5.599,18.399-1.666,6.166-3.001,12.42-3.914,18.738-2.146,12.706-1.662,25.439-1.666,38.299,0,0-.292.034-.292.034-1.658-6.303-1.912-12.83-1.884-19.301.052-12.965,1.966-25.939,5.676-38.363,1.874-6.192,3.93-12.397,7.412-17.922l.269.117h0Z"/><path class="ap" d="M990.345,221.07c.098-.253-.26-.211-.428-.188-.157.04-.348.115-.264.249.072.349.553.624,1.139.801,1.26.328,2.647.666,3.94,1.049,13.299,3.613,27.25,3.277,40.882,2.029,5.501-.501,10.971-1.339,16.591-1.226l.042.291c-5.358,1.695-10.876,2.401-16.407,3.067-5.53.673-11.108,1.091-16.711,1.135-7,.017-14.055-.652-20.879-2.326-3.045-.911-6.416-1.546-9.011-3.485-.534-.47-.826-1.691-.035-2.108.53-.266,1.439-.152,1.533.534-.007.154-.078.259-.147.343l-.243-.164h0Z"/><g id="v"><path class="ap" d="M788.165,252.308h10.662v108.095c-15.796,7.107-32.133,10.661-49.013,10.661-15.896,0-31.072-3.109-45.533-9.328-14.463-6.22-26.926-14.561-37.389-25.025-10.465-10.462-18.806-22.926-25.024-37.389-6.219-14.46-9.328-29.638-9.328-45.533s3.109-31.07,9.328-45.533c6.219-14.46,14.56-26.924,25.024-37.389,10.463-10.462,22.926-18.806,37.389-25.025,14.461-6.219,29.638-9.329,45.533-9.329,18.162,0,35.241,3.924,51.233,11.772,15.992,7.848,29.467,18.634,40.424,32.354l-8.588,6.367c-9.972-12.339-22.188-22.063-36.648-29.171-14.463-7.107-29.937-10.661-46.421-10.661-14.414,0-28.208,2.813-41.387,8.44-13.179,5.627-24.532,13.204-34.058,22.729-9.527,9.528-17.103,20.878-22.729,34.057-5.627,13.179-8.44,26.975-8.44,41.387s2.813,28.208,8.44,41.387c5.626,13.179,13.201,24.532,22.729,34.057,9.525,9.527,20.879,17.103,34.058,22.729s26.973,8.44,41.387,8.44c13.326,0,26.109-2.369,38.351-7.107v-10.958c-12.341,4.938-25.124,7.404-38.351,7.404-13.03,0-25.469-2.541-37.314-7.626-11.847-5.083-22.04-11.895-30.578-20.435-8.539-8.538-15.351-18.731-20.434-30.578-5.086-11.846-7.626-24.284-7.626-37.314s2.54-25.469,7.626-37.315c5.083-11.846,11.895-22.038,20.434-30.577,8.538-8.537,18.731-15.349,30.578-20.434,11.846-5.083,24.284-7.626,37.314-7.626,14.904,0,28.897,3.209,41.979,9.625,13.079,6.418,24.111,15.251,33.095,26.505l-8.292,6.663c-7.996-9.97-17.82-17.817-29.467-23.544-11.649-5.724-24.088-8.588-37.314-8.588-11.55,0-22.581,2.247-33.095,6.737-10.514,4.493-19.597,10.564-27.246,18.213-7.65,7.651-13.722,16.732-18.213,27.246-4.493,10.513-6.737,21.545-6.737,33.095s2.244,22.581,6.737,33.095c4.491,10.513,10.562,19.597,18.213,27.246,7.649,7.651,16.732,13.723,27.246,18.213,10.514,4.493,21.545,6.737,33.095,6.737,13.623,0,26.405-2.762,38.351-8.292v-10.958c-11.945,5.726-24.728,8.588-38.351,8.588-13.525,0-26.013-3.331-37.463-9.995-11.453-6.664-20.509-15.719-27.172-27.171-6.663-11.451-9.995-23.938-9.995-37.463s3.332-26.01,9.995-37.463c6.663-11.45,15.719-20.508,27.172-27.171,11.45-6.664,23.938-9.995,37.463-9.995,11.55,0,22.433,2.494,32.65,7.478,10.217,4.986,18.779,11.872,25.69,20.657l-8.44,6.515c-5.923-7.501-13.252-13.375-21.988-17.621-8.736-4.243-18.042-6.367-27.912-6.367-17.672,0-32.75,6.27-45.237,18.806-12.488,12.538-18.73,27.593-18.73,45.163s6.242,32.627,18.73,45.163c12.487,12.538,27.565,18.805,45.237,18.805,13.819,0,26.603-3.354,38.351-10.069v-10.81c-11.55,6.812-24.335,10.217-38.351,10.217-14.71,0-27.271-5.206-37.685-15.622-10.417-10.414-15.622-22.975-15.622-37.685s5.205-27.269,15.622-37.685c10.413-10.414,22.975-15.622,37.685-15.622,8.292,0,16.089,1.802,23.396,5.405,7.305,3.604,13.424,8.514,18.361,14.733l-8.589,6.515c-8.588-10.662-19.645-15.992-33.168-15.992-11.749,0-21.793,4.172-30.133,12.512-8.344,8.343-12.513,18.387-12.513,30.133s4.169,21.792,12.513,30.133c8.34,8.343,18.384,12.513,30.133,12.513,15.104,0,27.887-4.195,38.351-12.586v-31.54ZM809.488,252.308h10.661v108.095h-10.661v-108.095ZM830.811,252.308h10.661v108.095h-10.661v-108.095ZM852.134,252.308h10.661v108.095h-10.661v-108.095Z"/></g></g><g id="w"><path class="aq" d="M514.406,125.86c105.308-1.65,221.176-1.579,326.487-.001,0,.001,0,.295,0,.295-47.071,1.404-115.437.778-163.243,1.057-47.816-.597-116.652.968-163.243-1.351h0Z"/><path class="ag" d="M840.055,125.86c32.781-1.497,80.491-.739,113.804-1.058,27.117.189,72.973-.096,99.578.558,4.742.101,9.484.276,14.226.499v.294c-4.742.223-9.484.398-14.226.499-46.944.821-109.262.47-156.481.413-14.226-.065-28.454.036-42.677-.385-4.742-.11-9.484-.282-14.226-.527v-.294h0Z"/><path class="ag" d="M1061.68,392.761c-12.905,2.655-25.127-15.009-33.994-22.596-5.119-4.505,1.508-.785,3.168.483,7.928,6.157,13.983,14.9,23.127,19.298,2.502,1.101,5.054,1.73,7.698,2.521,0,0,0,.294,0,.294h0Z"/><path class="aq" d="M273.317,355.581c-19.575,3.081-38.469,11.405-53.835,23.894-4.724,3.86-7.256,9.903-12.735,12.982-5.676,3.097-12.378.944-18.275.304,0,0,0-.294,0-.294,5.858-.715,12.027,1.067,17.291-1.794,3.392-1.91,5.466-5.406,7.931-8.418,3.788-4.846,8.988-8.482,14.079-11.777,12.051-7.32,25.299-13.582,39.443-15.191,2.03-.153,4.071-.172,6.092,0l.008.294h0Z"/><path class="aq" d="M360.185,385.352c-1.558-15.909-.773-31.855-1.059-47.807.026-7.968.046-15.936.134-23.903.081-7.968.011-15.936.925-23.903h.294c1.497,15.913.789,31.857,1.059,47.807-.023,7.968-.035,15.936-.124,23.903-.105,7.968.05,15.936-.935,23.903h-.294Z"/><path class="aq" d="M513.939,289.739c1.558,15.909.773,31.855,1.059,47.807-.026,7.968-.046,15.936-.134,23.903-.081,7.968-.011,15.936-.925,23.903h-.294c-1.497-15.913-.789-31.857-1.059-47.807.023-7.968.035-15.936.124-23.903.105-7.968-.05-15.936.935-23.903h.294Z"/></g><g id="x"><path class="ac" d="M374.617,258.331c-.013.592-.042,1.227-.398,1.7-.549.73-1.618.769-2.527.683-4.622-.439-9.002-2.368-12.888-4.907-7.37-4.815-13.33-12.201-15.125-20.82s1.118-18.383,8.186-23.631c1.967-1.46,4.183-2.549,6.438-3.508,3.14-1.335,11.332-4.293,14.225-.933,2.213,2.571,1.22,11.278,1.417,14.599.727,12.256.952,24.541.673,36.815Z"/><path class="ac" d="M309.683,265.441c-3.531,2.018-7.227,4.055-9.628,7.338,9.354,1.353,18.837,1.809,28.277,1.358,2.856-.136,5.938-.449,8.06-2.365,2.024-1.827,2.689-4.67,3.503-7.272,1.651-5.273,4.311-10.205,7.592-14.65,1.413-1.914,2.999-3.874,3.295-6.235.193-1.547-.643-4.449-2.543-4.6-1.461-.116-3.649,2.497-4.688,3.333-3.608,2.904-7.294,5.71-11.053,8.416-7.343,5.286-14.961,10.188-22.816,14.678Z"/></g></g></g><g id="y"><rect class="ax" x="84.018" y="238.72" width="15.628" height="178.883"/><rect class="at" x="84.018" y="255.185" width="15.628" height="1.406"/><rect class="at" x="84.018" y="276.032" width="15.628" height="1.354"/><path class="am" d="M145.667,255.185H35.206c-.785,0-1.42-.636-1.42-1.42v-15.578c0-.785.636-1.42,1.42-1.42h110.461c.785,0,1.42.636,1.42,1.42v15.578c0,.785-.636,1.42-1.42,1.42Z"/><path class="bc" d="M135.881,253.379c-9.751-.183-19.507.198-29.261.26-8.442.032-20.687-.261-29.257-.352-5.315-.077-31.821-.463-36.571-.532,0,0-1.829-.027-1.829-.027l-.914-.013c-1.02.098-2.075-.691-2.14-1.752,0,0-.028-.514-.028-.514-.081-1.649-.222-4.715-.304-6.393-.038-.592-.096-2.163-.13-2.74-.145-1.024.186-2.176,1.16-2.7.499-.337,1.314-.335,1.475-.324l1.829-.019c24.805-.013,71.715-.693,96.011-.276,1.082-.008,2.044.594,2.83,1.288,0,0,5.732,4.549,5.732,4.549.466.335,1.084.897,1.227,1.618.374,1.517-1.051,2.417-2.08,3.107,0,0-1.487,1.064-1.487,1.064-.994.706-1.982,1.42-2.962,2.145-.97.684-2.039,1.707-3.299,1.61h0ZM135.883,253.085c1.194.085,2.218-.968,3.095-1.589.977-.729,1.946-1.469,2.908-2.218l1.448-1.118c.85-.659,2.056-1.344,1.706-2.532-.185-.536-.542-.823-1.038-1.147,0,0-6.008-4.178-6.008-4.178-1.108-.874-1.574-.928-2.989-.823-23.625.702-70.924.868-95.076,1.195,0,0-1.828.009-1.828.009-.442.003-.266.003-.298-.001.028,1.344.338,7.524.369,8.747.006.295.049,1.03.056,1.312,0-.191-.23-.363-.367-.354.642.015,2.293.044,2.97.059,19.796.438,46.144.806,65.809,1.374,9.747.397,19.493,1.112,29.244,1.264h0Z"/><path class="am" d="M132.866,276.032H50.798c-.842,0-1.524-.682-1.524-1.524v-15.371c0-.842.682-1.524,1.524-1.524h82.068c.842,0,1.524.682,1.524,1.524v15.371c0,.842-.682,1.524-1.524,1.524Z"/><path class="bc" d="M56.823,260.101c13.286-.285,32.473-.763,45.499-.899,9.174-.124,18.538-.183,27.732-.216,1.382-.167,2.766.917,2.763,2.349.035,2.11.09,6.848.123,9.008,0,0,.01.705.01.705v.088c.052,1.327-1.146,2.534-2.447,2.513,0,0-2.822.066-2.822.066-16.847.252-53.132,1.135-69.486,1.256-1.663.029-2.609-1.598-3.635-2.533-.571-.635-2.347-2.445-2.917-3.07,0,0-.494-.522-.494-.522-1.072-1.096-.994-3.059.141-4.035.684-.646,1.392-1.268,2.09-1.9l2.099-1.89c.463-.364,1.154-1.119,1.661-1.388-.036-.182.552.337.215.314l-.044.027-.08.045-.159.085-.146.074s-.03-.069-.103-.076h0ZM56.539,260.178c.08-.241.409-.372.596-.535-.295-.051.268.475.201.315-1.711,1.702-3.578,3.914-5.26,5.647-.642.65-.607,1.72.03,2.31,0,0,.506.473.506.473.636.567,2.437,2.284,3.101,2.884,0,0,1.022.974,1.022.974.541.453.733.858,1.257.93.3.031,1.607-.061,1.945-.063,16.769-.523,53.33-1.436,70.512-1.866.077-.002.072-.015.102-.045l.009-.021s.004-.007,0-.012l.002-.008v-.088c-.015-2.239-.049-6.969-.063-9.171l-.002-.353-.002-.162c-.002-.023-.004-.038-.02-.057-.029-.026-.034-.032-.073-.035,0,0-.358-.001-.358-.001-3.542.012-24.663-.187-28.705-.216-13.191-.144-31.491-.568-44.799-.899h0Z"/><path class="ao" d="M83.729,410.826c.954.271,1.191,1.497,1.21,2.489s.123,2.198,1.019,2.623c1.709-1.768,1.792-4.5,1.772-6.959-.011-1.405-.184-3.088-1.433-3.731,2.839,3.157,5.008,6.914,6.323,10.951.935-1.344,1.87-2.687,2.804-4.031.712,1.413,1.424,2.825,2.136,4.238.085-1.436,1.163-2.61,2.29-3.504s2.4-1.678,3.17-2.893c.267-.421.465-.881.661-1.339,1.43,2.621,1.942,5.731,1.426,8.672-3.874.795-7.809,1.287-11.759,1.471-4.116.192-8.81.401-12.808-.656.667-2.448,2.614-4.604,3.188-7.33Z"/></g><rect class="bc" x="41.279" y="244.347" width="27.266" height="3.03"/><rect class="bc" x="98.581" y="264.905" width="27.266" height="3.03"/><rect class="bc" x="73.385" y="244.347" width="3.03" height="3.03"/><rect class="bc" x="78.747" y="244.347" width="3.03" height="3.03"/><rect class="bc" x="128.727" y="244.347" width="3.03" height="3.03"/><rect class="bc" x="123.552" y="244.347" width="3.03" height="3.03"/><rect class="bc" x="84.018" y="244.347" width="7.358" height="3.03"/><rect class="bc" x="75.929" y="264.905" width="3.03" height="3.03"/><rect class="bc" x="70.905" y="264.905" width="3.03" height="3.03"/><rect class="bc" x="81.291" y="264.905" width="3.03" height="3.03"/><rect class="bc" x="86.561" y="264.905" width="7.358" height="3.03"/><rect class="bc" x="61.187" y="264.905" width="7.358" height="3.03"/><rect class="bc" x="94.815" y="244.347" width="25.825" height="3.03"/></svg>