<?xml version="1.0" encoding="UTF-8"?><svg id="h" xmlns="http://www.w3.org/2000/svg" width="1140" height="637" xmlns:xlink="http://www.w3.org/1999/xlink" viewBox="0 0 1140 637"><defs><clipPath id="i"><path d="m1120.88,272.65c-37.89,143.33,12.61,280.15-44.99,329.02-98.33,83.41-329.03-9.14-505.41,11.62C-135.87,696.45,82.18,539.1,25.45,344.32-100.62-88.52,324.46,24.7,562.91,29.1c311.39,5.75,656.12-127.65,557.98,243.55Z" fill="none"/></clipPath></defs><g clip-path="url(#i)"><rect x="-33.16" y=".3" width="1374.44" height="758.65" fill="#bfe4df"/><rect x="-89.56" y="497.86" width="1423.33" height="371.37" fill="#77bfb3"/><rect x=".81" y="552.77" width="1423.33" height="139.73" fill="#bfe4df"/><line x1="605" y1="553.5" x2="604.78" y2="621.58" fill="none" stroke="#479fa5" stroke-linecap="round" stroke-linejoin="round" stroke-width="2"/><line x1="712" y1="552.28" x2="800.94" y2="649.95" fill="none" stroke="#479fa5" stroke-linecap="round" stroke-linejoin="round" stroke-width="2"/><line x1="846" y1="553.5" x2="1040.02" y2="690.09" fill="none" stroke="#479fa5" stroke-linecap="round" stroke-linejoin="round" stroke-width="2"/><line x1="1011" y1="551.5" x2="1194.96" y2="631.69" fill="none" stroke="#479fa5" stroke-linecap="round" stroke-linejoin="round" stroke-width="2"/><line x1="496" y1="553.5" x2="408.61" y2="649.95" fill="none" stroke="#479fa5" stroke-linecap="round" stroke-linejoin="round" stroke-width="2"/><line x1="365" y1="553.5" x2="169.53" y2="690.09" fill="none" stroke="#479fa5" stroke-linecap="round" stroke-linejoin="round" stroke-width="2"/><line x1="194.84" y1="553.77" x2="14.59" y2="631.69" fill="none" stroke="#479fa5" stroke-linecap="round" stroke-linejoin="round" stroke-width="2"/><rect x="990" y="5.5" width="158" height="548" fill="#c4ae90"/><rect x="493" y="-3.5" width="310" height="548" fill="#fff"/><rect x="526.13" y="-24.5" width="247.77" height="538" fill="#77c6ba"/><rect x="570" y="-3.5" width="420" height="557" fill="#fff"/><rect x="613.53" y="-21.5" width="335.69" height="541" fill="#77c6ba"/><rect x="613.53" y="513.5" width="302.47" height="6" fill="#e8f7f4"/><rect x="873.93" y="-12.5" width="42.07" height="531" fill="#e8f7f4"/><rect x="614" y="-3.5" width="260" height="517" fill="#67b2a3"/><line x1="990" y1="553.5" x2="15" y2="553.5" fill="none" stroke="#216d6d" stroke-linecap="round" stroke-linejoin="round" stroke-width="2"/><line x1="492" y1="538.5" x2="11" y2="538.5" fill="none" stroke="#216d6d" stroke-linecap="round" stroke-linejoin="round" stroke-width="2"/><line x1="570" y1="544.5" x2="11" y2="544.5" fill="none" stroke="#216d6d" stroke-linecap="round" stroke-linejoin="round" stroke-width="2"/><rect x="127" y="-3.5" width="35" height="557" fill="#fff"/><rect x="-30" y="5.5" width="158" height="548" fill="#c4ae90"/></g><path d="m464.89,205.47c-4.8-.68,9.86-4.36,11.53-7.68,1.66-3.32,6.21-25.54,9.02-24.96s4.48,44.62-2.17,47.11c-2.33.88-15.31,0-15.31,0l-3.07-14.46Z" fill="#d18161"/><path d="m483.53,176.25c.84,1.79.53,3.48.49,5.19-.07,1.71-.17,3.42-.32,5.12-.15,1.7-.35,3.4-.58,5.1-.23,1.7-.31,3.41-1.37,5.03-.07.11-.25.1-.29-.03-.76-1.78-.55-3.48-.48-5.19.07-1.71.16-3.42.31-5.12.15-1.7.34-3.4.57-5.1.25-1.69.24-3.41,1.38-5.03.07-.11.24-.09.29.03h0Z" fill="#933"/><path d="m468.91,202.95l.27.5,1.15,5.01c1.38,6.02-1.21,12.25-6.44,15.52l-6.02,3.76s-61.73,3.43-70.64-4.92c-8.91-8.35-6.26-17.92-2.32-25.87,2.89-5.83,43.48-5.94,64.87-5.59,8,.13,15.3,4.56,19.13,11.58Z" fill="#af3b08"/><path d="m401.73,492.7s3.86,52.2,6.59,53.41,22.38-.64,24.57-12.28c2.19-11.65-1.19-37.05-1.19-37.05l-29.98-4.08Z" fill="#001415"/><path d="m468.16,557.04c-1.41-8.97-12.31-9.68-21.79-15.13-3.86-2.22-3.36-6.88-8.15-7.87-11.87-2.45-14.15,2.02-14.48,4.74-.13,1.07-.92,1.88-1.9,1.88h-15.11c-.95,0-1.75.76-1.89,1.8-.44,3.37-1.25,10.57-.45,13.79s2.47,1.25,3.18,1.53c.18.07.37.1.56.11l11.06.35c.66.02,9.73,0,13.74.1,4.92.13,33.53-.12,33.53-.12,0,0,2.38,3.11,1.7-1.18Z" fill="#606060"/><path d="m447.36,541.12c-1.01.89-1.88.71-2.79.82-.9.09-1.8.18-2.67.29-.87.11-1.74.21-2.56.42-.93.25-1.69.56-2.71.42-.12,0-.21-.1-.2-.22.12-.95.74-1.56,1.51-1.91,1.15-.59,2.42-.94,3.65-1.1.99-.13,1.98-.14,2.96-.07.97.1,1.98-.02,2.84,1.05.07.09.06.22-.03.29h0Z" fill="#1c0c06"/><path d="m451.88,542.83c-.63,1.05-1.35.99-2.05,1.2-1.2.34-2.89.68-4.12.93-.78.24-1.4.35-2.24.11-.1-.02-.17-.11-.17-.21,0-.6.29-1.03.62-1.32,1.66-1.1,3.64-1.54,5.59-1.64.76,0,1.51-.26,2.35.65.08.08.08.2.03.29h0Z" fill="#1c0c06"/><path d="m442.08,537.71c-1.05,1.03-2.12.99-3.18,1.23-1.06.22-2.11.47-3.13.73-1.03.25-2.04.52-2.99.89-1.04.42-1.85.93-3.02,1.07-.11.02-.22-.04-.23-.15.19-2.58,3.61-3.5,5.65-4.15,1.13-.28,2.28-.46,3.43-.53,1.14-.05,2.29-.32,3.47.62.09.07.1.22,0,.29h0Z" fill="#1c0c06"/><path d="m468.25,557.8c.29,3.48-1.8,3.07-1.8,3.07,0,0-28.61,1.76-33.53,1.62-4.01-.11-13.08-.08-13.74-.1l-11.06-.35c-.19,0-.38-.04-.56-.11-.71-.28-2.32-2.32-3.14-5.55l63.82,1.41Z" fill="#fff"/><path d="m273.77,453.26s-73.17,47.95-72.69,50.9c.48,2.95,12.76,18.4,23.71,13.87,10.95-4.53,55.71-44.6,55.71-44.6l-6.72-20.17Z" fill="#001415"/><path d="m225.8,556.27c6.05-6.08-1.02-12.46-2.14-22.74-.46-4.19,3.38-6.4,1.45-10.61-4.76-10.42-9.43-9.67-11.7-8.4-.89.5-1.95.35-2.49-.39l-8.43-11.53c-.53-.72-1.56-.91-2.43-.43-2.82,1.54-8.76,4.95-10.78,7.36-2.07,2.47.42,2.58.61,3.28.05.18.13.34.23.49l5.9,8.63c.35.51,10.07,16.8,12.22,19.92,2.64,3.82,15.16,13.48,15.16,13.48,0,0-.5,3.87,2.39.95Z" fill="#4c4849"/><path d="m223.69,532.52c-1.2-.21-1.43-.82-1.95-1.3-.5-.48-1.01-.89-1.53-1.26-.64-.46-1.35-.79-2.1-1-.63-.11-.95-.26-1.59-.79-.09-.07-.11-.2-.05-.29,1.13-1.73,3.76-.77,5.1.09.74.51,1.36,1.16,1.84,1.87.45.71,1.08,1.39.55,2.56-.05.11-.16.15-.27.12h0Z" fill="#1c0c06"/><path d="m226.02,538.26c-1.25.08-1.64-.45-2.32-.8-.65-.35-1.32-.68-1.99-1-1.38-.83-3.11-.94-4.12-2.26-.08-.08-.07-.21,0-.29.81-.82,1.74-.64,2.68-.44,1.71.34,3.32,1.08,4.67,2.21.64.57,1.49,1.09,1.31,2.38-.02.11-.11.19-.22.19h0Z" fill="#1c0c06"/><path d="m224.55,528.28c-1.4-.4-1.9-1.29-2.69-2.02-.77-.72-1.57-1.39-2.39-2-1.03-.75-2.12-1.4-3.3-1.84-.84-.28-1.43-.5-2.22-1.19-.08-.07-.1-.19-.02-.27,1.16-.89,2.51-.64,3.67-.27,1.17.36,2.3.9,3.28,1.62.98.72,1.84,1.57,2.58,2.49.71.93,1.59,1.81,1.35,3.33-.02.12-.14.19-.25.15h0Z" fill="#1c0c06"/><path d="m225.89,556.82c-2.49,2.16-3.53,1.29-3.53,1.29,0,0-11.14-7.15-13.78-10.98-2.15-3.12-15.37-22.39-15.72-22.9l-5.9-8.63c-.1-.15-.18-.31-.23-.49-.18-.69.48-3.07,2.48-5.5l19.08,30.62,17.6,16.59Z" fill="#8c8484"/><path d="m374.61,304.4s-21.52,108.97-42.26,135.42c-20.74,26.45-93.04,83.02-93.04,83.02,0,0-29.49-26.82-31.53-27.68-2.04-.86,76.73-78.12,83.27-84.16,6.54-6.04,8.64-129.66,8.64-129.66l74.91,23.05Z" fill="#1a383a"/><path d="m402.55,41.11c-.41.17-.78.42-1.12.71-.78.66-3.6,2.36-.11,5.13,4.41,3.49-.17,53.51,1.87,62.19,1.01,4.29,18.81,23.46,6.44,47.75-5.25,10.31-28.53,3.81-31.91,4.15-3.38.34,3.32-18.53,2.76-20.08-.56-1.55-8.29,19.8-10.9,19.86-2.61.06-15.91,29.77-27.75,13.89-5.92-7.94-15.07-54.2-13.12-70.59,1.95-16.39,13.69-34,17.81-49.84,4.71-18.16,40.95-21.25,51.39-18.52,8.3,2.17,7.1,4.35,4.65,5.36Z" fill="#140d0d"/><path d="m316.86,123.06s-.04-22.27,35.58-18.03c35.62,4.24,35.54,19.2,36.65,22.3,1.12,3.1-33.27,21.77-35.22,21.54s-37.01-25.8-37.01-25.8Z" fill="#d34c09"/><path d="m308.87,231.73c-.22,1.95-16.61,42.71-5.19,66.17,17.18,35.3,74.18,14.98,82.76,15.94,3.3.37,14.57-19.38,10.17-41.13-4.4-21.75-87.74-40.98-87.74-40.98Z" fill="#355d66"/><path d="m396.7,292.87c7.68,29.77,54.74,84.52,50.92,116.28-3.99,33.14-12.92,95.25-11.45,121.05-4.42,2.12-39.8-2.95-39.8-2.95.34,7.08,4.54-74.35,1.29-125.86-54.74-42.26-101.29-104.83-96.04-108.53,12.42-8.77,89.51-21.57,95.08,0Z" fill="#355d66"/><path d="m385.15,116.72c1.1.13,5.51,2.11,8.54,4.7,3.03,2.59,3.84,11.32,3.84,11.32l-15.83,6.96s1.62-7.6,1.17-13.22,2.27-9.75,2.27-9.75Z" fill="#d34c09"/><path d="m303.04,149.61c8.01-21.06,17.04-30.54,49.58-30.83,19.85-.17,34.46,1.34,38.72,7.58,10.45,15.35,38.14,44.62,9.87,82.46-11.75,15.73-67.31,27.48-75.16,19.22-6.83-7.19-36.33-43.4-23.01-78.43Z" fill="#d34c09"/><path d="m320.75,186.99s-24.04,61.71-20.98,92.14c1.4,13.96,96.39,18.31,100.54,6.77,8.32-23.13,3.42-87.88.22-94.19-3.2-6.32-79.78-4.71-79.78-4.71Z" fill="#d34c09"/><path d="m408.14,85.23c-1.04,18.06-2.18,33.88-19.98,30.65-7.88-1.43-28.9-12.79-26.44-34.77,2.07-18.55,11.96-33.08,31.61-31.02,20.74,2.18,16.2,10.81,14.81,35.13Z" fill="#d18161"/><path d="m399.63,84.04c-.49,1.6-1.64,2.32-3.02,1.89-1.38-.43-1.58-3.36-1.09-4.96.49-1.6,1.57-1.23,2.95-.8,1.38.43,1.65,2.27,1.16,3.87Z" fill="#001415"/><path d="m386.43,80.82s7.19-3.03,10.24-1.62,6.45,5.16,6.45,5.16c0,0,1.39-3.89.64-5.13s-8.86-7.37-13.72-6.97-3.62,8.57-3.62,8.57Z" fill="#d18161"/><path d="m404.94,100.2c.14-.57-.23-1.14-.82-1.22-3.61-.51-10.65-1.61-10.92.63-.26,2.16,5.37,5.22,8.83,6.23.76.22,1.54-.22,1.73-.99l1.17-4.65Z" fill="#bc5048"/><path d="m391.85,98.02c1.46-.26,2.31.38,3.35.76,2.02.77,4.04,1.46,6.13,2.05,1.05.29,2.09.35,3.14,1.33.08.07.08.19.01.27-1.18.88-2.41.65-3.57.51-2.33-.29-4.6-1.04-6.64-2.19-1-.59-2.12-1.02-2.58-2.46-.04-.11.04-.23.15-.25h0Z" fill="#3a1316"/><path d="m385.9,114.36l-2.03,22.53s-.83,3.98-10,2.98c-10.14-1.1-20.21-7.64-20.21-7.64l5.71-37.88,26.54,20.01Z" fill="#d18161"/><path d="m408.6,78.24s4.79,12.36,3.4,14.01c-1.52,1.62-8.75.78-8.75.78" fill="#d18161"/><path d="m386.59,81.2c.73-1.58,2.15-2.05,3.49-2.62,1.36-.54,2.85-.94,4.51-.82,1.71.18,3,1.07,4.24,2.05,1.13.91,2.25,1.85,2.59,3.49.03.12-.09.23-.21.2-.8-.17-1.43-.49-2.01-.84-1.39-.97-3.3-2.37-4.81-2.5-1.11-.08-2.37.14-3.61.47-1.27.32-2.37,1.01-4.03.81-.12,0-.21-.14-.15-.25h0Z" fill="#001415"/><path d="m367.24,84.74c-.65,5.45-.79,9.92-5.83,9.32-4.47-.53-9.24-4.88-9.23-11.3,0-5.49,2.94-8.91,7.98-8.31,5.04.6,7.74,4.84,7.09,10.29Z" fill="#d18161"/><path d="m357.35,77.75c.99-.63,1.53-.12,2.09.2,1.17.7,2.11,1.88,2.41,3.24.18.66.34,1.42-.53,2.07-.09.07-.2.06-.29,0-.63-.38-.83-.54-1.03-1.03-.26-.53-.59-1.01-.96-1.47-.29-.37-.6-.74-.94-1.12-.35-.4-.81-.51-.87-1.63-.02-.11.02-.22.11-.27h0Z" fill="#5e1f21"/><path d="m385.68,74.56c1.37-2.2,3.73-4.26,6.5-4.15,2.78.18,5.43.85,8.01,1.88,1.65.75,3.36,1.43,4.5,2.97.34.49-.16,1.19-.73,1.02-1.15-.33-3.36-.61-4.66-.8-2.46-.34-4.95-.82-7.39-1.15-1.74-.09-3.32.86-5.34,1.32-.63.23-1.24-.52-.88-1.09h0Z" fill="#001415"/><path d="m411.19,53.36s-.71,5.14-5.03,4.84c-4.18-.29-17.32-4.45-20.11-4.79s-19.77-.18-19.7-.82,16.45-19.47,33.3-16.59c16.84,2.87,11.53,17.36,11.53,17.36Z" fill="#140d0d"/><path d="m386.35,81.27c.42.44,8.62,5.89,14,4.52,3.32-.84-5.26,4.94-8.88,3.25-5.77-2.68-5.12-7.77-5.12-7.77Z" fill="#d18161"/><path d="m348.44,113.39s9.7,6.05,37.97,24.26c14.8,9.53-35.22,10.1-45.72-2.47-10.5-12.57-9.88-21.74-3.21-23.62,6.68-1.88,10.97,1.84,10.97,1.84Z" fill="#d34c09"/><path d="m330.76,116.05c.67.44.7,1.11.98,1.73.58,1.54,1.14,3.26,1.94,4.68,3.51,5.98,10.06,9.37,16.23,12.08,4.73,1.19,10.88,2.67,16.11,3.83,4.06.88,8.13,1.79,12.26,2.27,1.29.08,2.84.38,3.99-.24.14-.1.32.13.17.23-.62.52-1.38.59-2.07.7-2.11.22-4.24.05-6.35-.14-8.37-.87-16.57-2.71-24.74-4.69-4.62-1.66-9.14-3.82-12.85-7.15-3.38-3.04-6.4-7.51-5.85-12.28.04-.36.06-.64,0-.88-.02-.09.08-.18.17-.13h0Z" fill="#72280a"/><path d="m379.61,146.09c1.47,4.76,1.7,9.66,2.11,14.53.39,4.88.62,9.77.73,14.67.06,4.9,0,9.81-.41,14.72-.49,4.87-.85,10.13-3.79,14.26-.09.13-.32.02-.26-.14,3.19-14.21,2.02-28.93,1.57-43.38-.2-4.87-.74-9.7-.24-14.64,0-.15.25-.19.29-.03h0Z" fill="#ffb89c"/><path d="m347.34,110.98c1.31-.29,1.96.36,2.76.8.79.46,1.56.94,2.3,1.46.74.52,1.45,1.09,2.15,1.67.7.59,1.48,1.05,1.69,2.32.02.11-.06.22-.17.24-1.27.23-1.97-.35-2.76-.81-.79-.46-1.56-.93-2.3-1.45-.74-.52-1.46-1.08-2.15-1.67-.68-.61-1.51-1-1.69-2.33-.01-.11.06-.22.17-.24,0,0-.11.02,0,0Z" fill="#72280a"/><path d="m387.82,137.69c.28-1.12.86-1.52,1.6-2.2,1.55-1.54,3.18-3,4.83-4.42.37-.25.79-.44,1.42-.55.11-.02.21.06.23.16.22,1.3-.51,2.01-1.07,2.72-1.16,1.46-2.5,2.72-4.05,3.77-.87.58-1.66,1.26-2.86.79-.11-.05-.15-.17-.1-.28h0Z" fill="#72280a"/><path d="m393.98,137.36c2.93,3.69,4.56,8.04,6.27,12.32,3.74,9.68,6.53,19.94,6.61,30.4.11,3.48-.44,7.06-1.72,10.3-.05.14-.28.11-.29-.05-.12-1.76.11-3.43.04-5.15.18-7.32-.88-14.65-2.72-21.73-1.05-4.4-2.47-8.72-3.95-13.02-1.49-4.3-3.37-8.42-4.5-12.94-.05-.15.17-.26.26-.13h0Z" fill="#ffb89c"/><path d="m395.21,47.55s-12.78,5.98-19.05,20.25c-3.61,8.23-4.56,30.13-.17,67.19,1.74,14.65-1.31,22.03-1.31,22.03,0,0-25.89-19.24-29.06-31.84-2.88-11.44-10.25-35.2-.26-64.36,3.34-9.74,23.58-22.59,36.85-21.67,13.27.93,13,8.4,13,8.4Z" fill="#140d0d"/><path d="m348.58,274.4c10.91-7.44,18.28-15.72,22.21-28.51.29-.79.61-1.58,1.02-2.37.06-.13.28-.09.28.06.41,10.82-7.89,21.97-16.36,28.03-2.12,1.48-4.44,3.03-7.13,3.09-.16-.04-.19-.21-.02-.29h0Z" fill="#72280a"/><path d="m483.39,203.69s4.56-13.59,6.48-11.67-3.86,23.34-3.86,23.34l-2.62-11.67Z" fill="#d18161"/><path d="m486.94,194.24c.32,1.22-.27,1.75-.65,2.43-.4.67-.83,1.32-1.3,1.94-.47.62-.98,1.21-1.51,1.79-.53.58-.94,1.24-2.14,1.31-.11,0-.21-.07-.24-.18-.27-1.17.26-1.75.66-2.42.41-.67.83-1.33,1.29-1.95.47-.62.97-1.22,1.5-1.79.55-.56.89-1.28,2.15-1.31.11,0,.21.07.24.18,0,0-.03-.1,0,0Z" fill="#933"/><path d="m308.33,148.99c-5.88,5.84-11.14,13.86-5.93,26.82,5.21,12.96,30.19,52.01,57.37,64.14,22.21,9.91,21.82-13.36,24.52-26.93,2.7-13.57-35.12-57.36-43.67-63.64-19.18-14.08-26.42-6.23-32.29-.38Z" fill="#d34c09"/><path d="m475.28,219c.18-.09,6.9-4.89,8.82-8.73,1.92-3.84,5.02-28.24,8.27-27.57s5.17,51.58-2.51,54.46c-2.7,1.01-17.69,0-17.69,0l3.11-18.15Z" fill="#d18161"/><path d="m483.14,219.45l-23.05-2.04-.09,26.28,15.05-6.52c2.53-1.33,4.17-3.89,4.32-6.75l3.77-10.97Z" fill="#d18161"/><path d="m382.76,203.09s62.25,8.85,74.77,9.85c1.11.09,9.67.58,10.23.7.85.19,1.6.61,2.26,1.22,4.56,4.23,5.9,25.59-3.44,28.26-6.24,1.78-74.52,24.53-90.13.96-15.61-23.56-7.34-21.29-6.37-27.96s12.68-13.04,12.68-13.04Z" fill="#d34c09"/><path d="m409.17,206.58c-4.6.41-9.05-.48-13.58-1.01,0,0-13.44-1.79-13.44-1.79l-.59-.08c-2.87-5.03-6.11-9.86-9.45-14.63-9.75-13.77-20.44-27.32-31.59-39.78.05-.05.13-.06.19-.02,1.21.78,2.28,1.73,3.34,2.67,3.16,2.86,6.06,5.98,8.89,9.15,7.48,8.51,14.41,17.47,21.05,26.66,3.29,4.62,6.47,9.32,9.34,14.26l-.88-.59c6.52.76,13.66,2,20.16,3.09,2.23.42,4.44.93,6.6,1.79.14.05.11.29-.04.29h0Z" fill="#72280a"/><path d="m309.44,187.17c3.19,6.37,8.51,11.36,13.5,16.32,10.3,9.82,21.44,18.75,32.84,27.26,5.6,4.16,11.87,8.54,17.43,12.19,11.25,5.97,23.72,9.92,36.52,10.19,3.66.11,7.59-.14,11.26-.02.55.02,1.11.04,1.68.24.08.03.12.11.09.19-.03.07-.09.1-.16.1-4.22.71-8.54,1.67-12.88,1.54-13.16.11-26.16-3.84-37.54-10.34-6-3.96-11.86-8.13-17.62-12.43-14.21-10.82-28.33-22.13-39.73-35.98-2.2-2.83-4.38-5.77-5.66-9.14-.07-.17.2-.28.27-.11h0Z" fill="#72280a"/><path d="m458.89,214.64c.91,2.46.67,4.89.71,7.32.02,2.43-.04,4.86-.07,7.29-.37,4.89.18,9.75-1.2,14.56-.04.13-.24.15-.29.01-.98-2.42-.88-4.88-.93-7.32-.05-2.44-.02-4.87.01-7.31.08-2.43.16-4.87.32-7.3.17-2.43.09-4.87,1.16-7.27.05-.13.25-.12.29.01h0Z" fill="#72280a"/><path d="m472,216.35c2.37-1.11,5.43-.97,7.38-2.46.4-.32.51-.74.62-1.19,1.26-4.75,2.73-9.47,4.52-14.05,1.04-2.66,2.07-5.37,4.19-7.42.1-.1.29,0,.25.14-.63,2.77-1.54,5.36-2.46,7.99-1.25,3.8-2.52,8.09-3.66,11.96-.28.82-.63,2.52-1.07,3.26-1.94,2.74-6.96,3.23-9.78,2.06-.13-.05-.12-.25,0-.29h0Z" fill="#933"/><line x1="570" y1="513.5" x2="570" y2="553.5" fill="none" stroke="#216d6d" stroke-linecap="round" stroke-linejoin="round" stroke-width="2"/><rect x="502" y="215.5" width="15" height="49" rx="4.49" ry="4.49" fill="none" stroke="#216d6d" stroke-linecap="round" stroke-linejoin="round" stroke-width="2"/><rect x="508.02" y="215.5" width="8.98" height="49" rx="4.49" ry="4.49" fill="none" stroke="#216d6d" stroke-linecap="round" stroke-linejoin="round" stroke-width="2"/><polyline points="949.23 519.5 613.53 519.5 613.53 513.5" fill="none" stroke="#216d6d" stroke-linecap="round" stroke-linejoin="round" stroke-width="2"/></svg>