<?xml version="1.0" encoding="UTF-8"?><svg id="g" xmlns="http://www.w3.org/2000/svg" width="570" height="354" xmlns:xlink="http://www.w3.org/1999/xlink" viewBox="0 0 570 354"><defs><clipPath id="h"><path d="m564.37,167.6c1.69-30.16-3.56-60.74-15.75-88.55-16.69-38.08-56.55-67.36-102.38-74.53-51.61-8.07-103.45,10.36-155.75,13.45-58.08,3.43-118.06-11.99-173.77,2.85-32.94,8.77-61.99,28.09-81.07,53.26C9.66,108.39,2.78,151.69,7.28,192.71c4.75,43.36,26.73,85.34,65.67,113.07,64.85,46.18,167.44,50.42,247.41,46.41,55.84-2.8,124.66-14.22,169.33-46.23,41.74-29.92,66.73-76.14,73.15-122.54.73-5.25,1.24-10.53,1.53-15.81Z" fill="#e3f6fc"/></clipPath></defs><path d="m564.37,167.6c1.69-30.16-3.56-60.74-15.75-88.55-16.69-38.08-56.55-67.36-102.38-74.53-51.61-8.07-103.45,10.36-155.75,13.45-58.08,3.43-118.06-11.99-173.77,2.85-32.94,8.77-61.99,28.09-81.07,53.26C9.66,108.39,2.78,151.69,7.28,192.71c4.75,43.36,26.73,85.34,65.67,113.07,64.85,46.18,167.44,50.42,247.41,46.41,55.84-2.8,124.66-14.22,169.33-46.23,41.74-29.92,66.73-76.14,73.15-122.54.73-5.25,1.24-10.53,1.53-15.81Z" fill="#e3f6fc"/><g clip-path="url(#h)"><path d="m281.3,316.84c-31.49-.26-56.54-5.17-87.13-9.95-31.4-4.9-73.08-10.97-91.1-7.9-49.85,8.5-95.95,53.4-110.19,67.34l-48.51-21.58c.61-.58,15.12-14.37,38.77-29.67,32.66-21.13,66.32-34.6,100.41-40.36,37.87-6.39,80.4.17,121.8,6.57,66.82,10.31,96.4,12.93,117.94-3.14,17.89-13.35-17.33-30.3-71.97-54.16-26.89-11.74-54.35-23.74-70.4-35.6-20.41-15.07-19.58-28.26,2.02-39.27,18.03-9.19,46.95-13.27,86.13-12.2,29.71.82,62.35,4.46,91.26,7.68,17.67,1.97,34.39,3.84,48.01,4.81,13.72.98,18.94.64,20.36.49,7.1-3.93-4.46-14.46-13.69-22.88-13.75-12.53-27.77-25.31-9.5-34.91,13.65-7.17,34.78-7.94,53.41-8.62,29.18-1.07,65.47-2.4,100.79-31.14l44.23,7.55c-18.93,15.77-41.53,26.61-68.99,32.96-25.06,5.79-49.1,6.67-66.66,7.32-14.93.55-19.59.88-21.73,2.03-5.16,2.76,6.27,12.93,13.91,19.73,14.42,12.82,30.76,24.36,10.83,38.65-21.25,15.24-56.7,17.64-135.82,7.6-59.89-6.76-97.01-11.37-115.03-2.03-12.9,8.16,13.62,22.09,68.9,45.89,26.01,11.2,53.23,22.91,70.92,34.79,22.93,15.39,24.51,28.77,10.63,41.63-20.38,18.89-55.07,28.68-89.63,28.4Z" fill="#77747a"/><path d="m342.53,287.39l-2.26-.6c1.95-1.16,3.83-2.43,5.6-3.76.59-.44,1.16-.9,1.69-1.37l2.44.47c-.55.48-1.14.95-1.75,1.41-1.8,1.36-3.73,2.65-5.72,3.84Zm-9.49,4.75c-3.65,1.52-7.62,2.84-11.79,3.94l-1.6-.87c4.02-1.05,7.84-2.33,11.38-3.8l2.01.73Zm21.55-15.74l-2.6-.25c.9-1.88,1.24-3.84,1.01-5.83l2.63.03c.24,2.06-.11,4.1-1.04,6.05Zm-47.36,22.44c-4.86.67-10.1,1.14-15.57,1.37l-.46-1.03c5.27-.23,10.31-.67,14.99-1.32l1.04.98Zm46.11-34.55l-2.55.16c-1.15-1.84-2.77-3.77-4.8-5.72l2.43-.31c2.08,2,3.74,3.97,4.92,5.87Zm-77.83,36.02c-5.05-.13-10.47-.42-16.11-.86l.38-1.01c5.53.43,10.83.71,15.76.84l-.02,1.03Zm66.12-47.48l-2.3.41c-2.32-1.69-5-3.46-7.95-5.26l2.19-.48c2.99,1.82,5.7,3.61,8.06,5.33Zm-98.06,45.1c-4.84-.55-9.92-1.18-15.51-1.94l.77-.97c5.54.75,10.56,1.38,15.36,1.92l-.61.99Zm81.08-55.53l-2.1.52c-2.88-1.56-6.06-3.2-9.44-4.88l2.03-.56c3.4,1.69,6.6,3.34,9.51,4.91Zm-111.83,52.39c-5.04-.76-10.01-1.53-15.08-2.31l.89-.95c5.06.78,10.02,1.55,15.04,2.31l-.85.96Zm236.15-139.25l-.16.08-2.11-.55.14-.08c2.4-1.32,4.06-2.85,4.91-4.55l2.45.24c-.91,1.81-2.67,3.44-5.24,4.85Zm-143.73,77.19l-1.97.58c-3.11-1.45-6.42-2.97-10.11-4.63l1.94-.59c3.71,1.67,7.03,3.18,10.15,4.64Zm133.97-73.92c-4.13.5-9.02.72-14.95.67l-.15-.9c5.64.05,10.26-.15,14.12-.62l.98.85Zm15.49-13.51h-2.47c-.4-1.61-1.22-3.31-2.52-5.22l2.4-.13c1.33,1.95,2.18,3.71,2.59,5.36Zm-271.96,144.86c-5.81-.88-10.59-1.58-15.04-2.2l.81-.96c4.47.62,9.27,1.32,15.11,2.21l-.87.95Zm226.39-129.29c-4.5-.28-9.39-.66-14.95-1.17l.42-.87c5.49.49,10.32.87,14.76,1.15l-.23.89Zm40.72-26.18l-2.34.21c-1.4-1.51-3.06-3.16-5.09-5.06l2.29-.24c2.04,1.91,3.72,3.58,5.13,5.1Zm-165.04,88.82l-1.91.6c-3.42-1.5-6.87-3-10.32-4.5l1.9-.6c3.45,1.5,6.91,3,10.33,4.5Zm274.84-151.66c-2.54,1.35-5.16,2.65-7.8,3.86l-1.97-.54c2.61-1.19,5.2-2.48,7.72-3.81l2.05.5Zm7.04-4.02l-2.11-.46c2.14-1.31,4.28-2.69,6.34-4.1l2.16.43c-2.08,1.43-4.23,2.82-6.39,4.13Zm-23.52,11.52c-3.14,1.2-6.4,2.33-9.69,3.35l-1.71-.64c3.23-1,6.44-2.11,9.53-3.3l1.86.59Zm35.73-19.87l-2.19-.4c1.35-1.03,2.7-2.1,4.01-3.18l2.21.38c-1.32,1.09-2.67,2.16-4.03,3.2Zm-56.22,26.19c-3.84.92-7.86,1.75-11.95,2.46l-1.25-.75c3.99-.69,7.93-1.5,11.69-2.41l1.5.7Zm-370.15,200.34c-5.55-.64-10.58-1.13-15.37-1.49l.43-1c4.87.37,9.98.87,15.61,1.51l-.67.98ZM439.21,124.6l-2.27.26-.2-.18c-1.76-1.59-3.58-3.22-5.28-4.81l2.28-.24c1.7,1.58,3.51,3.21,5.27,4.8l.2.18Zm-59.79,33.68c-4.2-.44-8.85-.94-14.62-1.58l.57-.85c5.75.64,10.39,1.14,14.57,1.58l-.52.86Zm118.31-68.26c-4.35.5-8.85.91-13.75,1.24l-.68-.82c4.8-.33,9.21-.72,13.47-1.21l.95.8Zm-233.61,124.54l-1.9.59c-3.44-1.5-6.85-2.99-10.22-4.48l1.92-.59c3.36,1.49,6.77,2.97,10.2,4.47Zm-142.51,69.24c-5.47-.09-10.64.04-15.37.4l-.57-1c4.93-.37,10.31-.5,15.97-.41l-.03,1.02ZM428.69,114.65l-2.31.21c-1.76-1.88-3.12-3.55-4.14-5.08l2.37-.13c1.01,1.51,2.34,3.15,4.09,5Zm41.15-22.66c-2.04.08-4.04.15-5.99.23-2.86.1-5.56.2-8.18.32l-.52-.83c2.64-.12,5.36-.22,8.23-.32,1.95-.07,3.93-.14,5.97-.23l.49.83Zm-119.59,63.08c-4.8-.54-9.64-1.08-14.51-1.61l.56-.85c4.88.53,9.73,1.07,14.53,1.61l-.58.85Zm-106.34,50.54l-1.94.57c-3.53-1.61-6.72-3.1-9.76-4.55l1.98-.55c3.02,1.45,6.2,2.93,9.72,4.53Zm-152.08,80.51c-4.41.83-8.9,1.85-13.34,3.03l-1.53-.85c4.55-1.2,9.15-2.25,13.66-3.1l1.21.92Zm-121.12,63l-2.51-.42s2.38-2.3,6.66-5.95l2.46.46c-4.24,3.62-6.58,5.88-6.6,5.91Zm13.62-11.7l-2.42-.48c2.4-1.91,4.89-3.83,7.4-5.7l2.38.5c-2.5,1.87-4.98,3.78-7.37,5.68ZM422.42,104.63l-2.42-.03c-.29-1.94.2-3.61,1.51-5.1l2.32.31c-1.22,1.4-1.68,2.98-1.4,4.82Zm19.61-11.12c-4.68.54-8.41,1.31-11.41,2.35l-1.77-.62c3.24-1.12,7.25-1.94,12.24-2.52l.94.8ZM66.18,292.83c-3.77,1.26-7.6,2.65-11.39,4.15l-1.91-.73c3.84-1.52,7.73-2.93,11.55-4.21l1.75.78ZM-.6,326.16l-2.34-.53c2.67-1.86,5.4-3.7,8.11-5.47l2.3.55c-2.7,1.76-5.42,3.6-8.07,5.45Zm44.75-25.68c-3.3,1.5-6.65,3.1-9.95,4.77l-2.12-.64c3.33-1.68,6.71-3.3,10.04-4.81l2.03.68Zm-28.23,14.91l-2.25-.58c2.97-1.79,5.98-3.54,8.95-5.19l2.19.61c-2.95,1.64-5.94,3.38-8.89,5.16Zm305.28-163.46c-5.21-.53-9.97-.98-14.56-1.39l.45-.86c4.61.41,9.4.86,14.63,1.39l-.52.86Zm-96.33,44.54l-2.03.52c-3.18-1.63-6.14-3.23-8.8-4.74l2.1-.48c2.64,1.5,5.58,3.08,8.74,4.7Zm67.14-47.1c-5.14-.36-10.08-.66-14.69-.87l.18-.88c4.66.22,9.65.51,14.84.88l-.33.87Zm-83.83,37.56l-2.19.42c-2.64-1.74-4.98-3.45-6.95-5.07l2.29-.34c1.94,1.6,4.24,3.28,6.84,4.99Zm54.44-38.88c-5.15-.06-10.06-.01-14.58.15l-.37-.88c4.64-.17,9.65-.22,14.91-.15l.05.89Zm-66.58,28.74l-2.4.23c-1.54-1.86-2.63-3.69-3.23-5.44l2.48-.08c.59,1.7,1.65,3.48,3.15,5.29Zm37.84-29.62c-4.7.5-9.08,1.18-13.01,2.01l-1.33-.77c4.09-.87,8.64-1.58,13.53-2.1l.81.85Zm-41.34,19.02l-2.48-.12c.43-1.81,1.43-3.59,2.99-5.29l2.36.32c-1.49,1.64-2.46,3.35-2.87,5.09Zm17.32-13.87c-3.21,1.2-6.13,2.65-8.51,4.09l-2.14-.48c2.47-1.5,5.5-3,8.84-4.25l1.82.63Z" fill="#fff"/></g><path d="m192.63,131.44c0,9.13-16.53,26.96-16.53,26.96,0,0-16.53-17.84-16.53-26.96s7.4-16.53,16.53-16.53,16.53,7.4,16.53,16.53Z" fill="#f7c756"/><circle cx="176.1" cy="130.6" r="6.05" fill="#fff"/><path d="m378.83,230.64c0,9.13-16.53,26.96-16.53,26.96,0,0-16.53-17.84-16.53-26.96s7.4-16.53,16.53-16.53,16.53,7.4,16.53,16.53Z" fill="#1e3f9b"/><circle cx="362.3" cy="229.8" r="6.05" fill="#fff"/><path d="m363.33,116.84c0,9.13-16.53,26.96-16.53,26.96,0,0-16.53-17.84-16.53-26.96s7.4-16.53,16.53-16.53,16.53,7.4,16.53,16.53Z" fill="#d12d32"/><circle cx="346.8" cy="116" r="6.05" fill="#fff"/><path d="m126.63,247.64c0,9.13-16.53,26.96-16.53,26.96,0,0-16.53-17.84-16.53-26.96s7.4-16.53,16.53-16.53,16.53,7.4,16.53,16.53Z" fill="#3cbc94"/><circle cx="110.1" cy="246.8" r="6.05" fill="#fff"/><path d="m508.43,57.94c0,9.13-16.53,26.96-16.53,26.96,0,0-16.53-17.84-16.53-26.96s7.4-16.53,16.53-16.53,16.53,7.4,16.53,16.53Z" fill="#5c539c"/><circle cx="491.9" cy="57.1" r="6.05" fill="#fff"/></svg>