<?xml version="1.0" encoding="UTF-8"?><svg id="a" xmlns="http://www.w3.org/2000/svg" width="1140" height="598" viewBox="0 0 1140 598"><path d="m53,273.5C46.72,7.54,324.08,91.83,598.6,34.3c385.98-80.89,486.4,1.69,486.4,171.59,0,169.9-61.29,378.02-533.47,392.2-385.9,11.59-494.52-154.71-498.53-324.58Z" fill="#fff6d2" stroke-width="0"/><polygon points="841.92 439.5 791.15 439.5 800.18 398.04 832.9 398.04 841.92 439.5" fill="#bcc1bf" stroke-width="0"/><circle cx="816.54" cy="391.27" r="6.77" fill="none" stroke="#bcc1bf" stroke-linecap="round" stroke-miterlimit="10" stroke-width="3"/><polygon points="331.92 351.5 258.08 351.5 271.21 291.19 318.79 291.19 331.92 351.5" fill="#bcc1bf" stroke-width="0"/><circle cx="295" cy="281.35" r="9.85" fill="none" stroke="#bcc1bf" stroke-linecap="round" stroke-miterlimit="10" stroke-width="3"/><polygon points="807 439.5 762.08 439.5 770.06 402.81 799.01 402.81 807 439.5" fill="#bcc1bf" stroke-width="0"/><circle cx="784.54" cy="396.82" r="5.99" fill="none" stroke="#bcc1bf" stroke-linecap="round" stroke-miterlimit="10" stroke-width="3"/><polygon points="909 439.5 864.08 439.5 872.06 402.81 901.01 402.81 909 439.5" fill="#bcc1bf" stroke-width="0"/><circle cx="886.54" cy="396.82" r="5.99" fill="none" stroke="#bcc1bf" stroke-linecap="round" stroke-miterlimit="10" stroke-width="3"/><polygon points="867.62 441.5 833.46 441.5 839.53 413.61 861.54 413.61 867.62 441.5" fill="#bcc1bf" stroke-width="0"/><circle cx="850.54" cy="409.05" r="4.55" fill="none" stroke="#bcc1bf" stroke-linecap="round" stroke-miterlimit="10" stroke-width="3"/><polygon points="774.62 439.5 740.46 439.5 746.53 411.61 768.54 411.61 774.62 439.5" fill="#bcc1bf" stroke-width="0"/><circle cx="757.54" cy="407.05" r="4.55" fill="none" stroke="#bcc1bf" stroke-linecap="round" stroke-miterlimit="10" stroke-width="3"/><rect x="529.61" y="451.54" width="69.12" height="20.73" rx="5.17" ry="5.17" fill="#f2a03d" stroke-width="0"/><path d="m598.79,413.21c0,21.14-15.5,55.5-34.62,55.5s-34.62-34.36-34.62-55.5,15.5-75.4,34.62-75.4,34.62,54.26,34.62,75.4Z" fill="#f2a03d" stroke-width="0"/><path d="m335.75,382.84h-81.61c-15.74,0-30.88-6.09-42.24-16.98l-17.09-16.4h200.28l-17.09,16.4c-11.36,10.9-26.5,16.98-42.24,16.98Z" fill="#f2a03d" stroke-width="0"/><line x1="212.86" y1="363.59" x2="378.59" y2="363.59" fill="none" stroke="#cc5411" stroke-linecap="round" stroke-miterlimit="10" stroke-width="2"/><polyline points="391.94 348.91 295.22 66.61 198.51 348.91" fill="none" stroke="#753b3b" stroke-linecap="round" stroke-linejoin="round" stroke-width="2"/><line x1="296.12" y1="358.52" x2="296.12" y2="70.95" fill="none" stroke="#753b3b" stroke-linecap="round" stroke-linejoin="round" stroke-width="2"/><rect x="550.7" y="156.38" width="26.94" height="327.52" fill="#f2a03d" stroke-width="0"/><path d="m526.5,472.12h75.35c11.03,0,19.98,8.95,19.98,19.98v20.08h-115.31v-20.08c0-11.03,8.95-19.98,19.98-19.98Z" fill="#f2a03d" stroke-width="0"/><path d="m497.56,501.57h133.21c11.03,0,19.98,8.95,19.98,19.98v20.08h-173.17v-20.08c0-11.03,8.95-19.98,19.98-19.98Z" fill="#f2a03d" stroke-width="0"/><path d="m463.41,535.74h201.53c7.87,0,14.27,6.39,14.27,14.27v16.49h-230.06v-16.49c0-7.87,6.39-14.27,14.27-14.27Z" fill="#f2a03d" stroke-width="0"/><line x1="512.61" y1="505.39" x2="615.73" y2="505.39" fill="none" stroke="#cc5411" stroke-linecap="round" stroke-miterlimit="10" stroke-width="2"/><line x1="544.48" y1="473.47" x2="583.86" y2="473.47" fill="none" stroke="#cc5411" stroke-linecap="round" stroke-miterlimit="10" stroke-width="2"/><line x1="476.05" y1="536.74" x2="652.29" y2="536.74" fill="none" stroke="#cc5411" stroke-linecap="round" stroke-miterlimit="10" stroke-width="2"/><rect x="529.61" y="133.6" width="69.12" height="26.7" rx="6.66" ry="6.66" fill="#f2a03d" stroke-width="0"/><path d="m606.66,66.05c0,32.53-19.02,76.97-42.49,76.97s-42.49-44.44-42.49-76.97,19.02-40.84,42.49-40.84,42.49,8.31,42.49,40.84Z" fill="#f2a03d" stroke-width="0"/><line x1="332.15" y1="31.97" x2="530.79" y2="66.37" fill="none" stroke="#f2a03d" stroke-linecap="round" stroke-linejoin="round" stroke-width="10"/><path d="m309.24,61.41c-7.57,13.14-21.25,7.92-25.7,1.12-8.82-13.49,2.33-33.05,15.12-41.22,20.62-13.16,49.79-11.29,142.42,19.93,5.56,1.87-98.22-8.37-93.46-3.46,3.92,4.05-21.27-6.08-38.38,23.63Z" fill="#f2a03d" stroke-width="0"/><path d="m522.67,90.21c-31.17-5.67-96.62-40.41-90.54-61.68,6.08-21.27,24.96-6.03,28.26,2.51s5.92,2.62,5.92,2.62c0,0,10.95-9.95,18.12-.31,17.23,23.19,43.15,22.37,43.39,25.6.24,3.23-5.16,31.26-5.16,31.26Z" fill="#f2a03d" stroke-width="0"/><path d="m463.19,56.24s-113.69-29.29-131.19-20.37c-17.49,8.92-14.86,21.34-4.94,23.86,3.29.84,16.07-12.14,35.42-6.61,85.06,24.32,101.56,8.85,103.63,9.21,3.1.54-2.93-6.09-2.93-6.09Z" fill="#f2a03d" stroke-width="0"/><path d="m317.7,48.57c-1.01-10.87,6.24-17.89,16.94-17.97,6.6,0,12.98,2.36,19.05,4.45,4.86,1.77,9.64,3.71,14.37,5.74,13.67,5.91,28.4,13.19,41.89,19.63,3.97,1.84,9.82,5.02,13.94,6.39.17.03.13.32-.05.29-2.59-.33-5.04-1.24-7.49-2.1-7.25-2.69-14.19-6.08-21.2-9.3-13.98-6.42-27.87-13.05-42.27-18.45-9.01-3.14-19.86-7.56-28.52-1.54-3.91,2.8-5.98,7.79-6.37,12.84.02.18-.29.2-.29.02h0Z" fill="#cc5411" stroke-width="0"/><path d="m435.91,39.43c2.6,1.52,4.41,3.71,6.45,5.7,2.04,1.99,4.05,3.99,6.15,5.9,2.07,1.94,4.18,3.84,6.36,5.63,2.2,1.8,4.49,3.33,6.54,5.5.06.06.06.16,0,.22-3-.35-5.5-2.37-7.86-4.02-4.66-3.44-8.87-7.45-12.76-11.73-1.91-2.15-3.99-4.18-5.11-7.01-.05-.13.1-.27.22-.19h0Z" fill="#cc5411" stroke-width="0"/><path d="m466.46,33.63c7.45,16,20.3,25.57,37.2,30.01,5.36,1.44,10.84,2.14,16.37,3.38.08.02.13.1.11.18-5.56.91-11.49-.24-17.01-1.48-11.08-2.59-21.82-8.11-29.29-16.86-3.67-4.34-7-9.38-7.68-15.15-.02-.16.23-.23.29-.07h0Z" fill="#cc5411" stroke-width="0"/><rect x="542.41" y="157.51" width="43.53" height="16.58" rx="4.13" ry="4.13" fill="#f2a03d" stroke-width="0"/><rect x="542.41" y="332.66" width="43.53" height="16.58" rx="4.13" ry="4.13" fill="#f2a03d" stroke-width="0"/><line x1="552.13" y1="331.53" x2="576.21" y2="331.53" fill="none" stroke="#cc5411" stroke-linecap="round" stroke-miterlimit="10" stroke-width="2"/><line x1="552.13" y1="177.58" x2="576.21" y2="177.58" fill="none" stroke="#cc5411" stroke-linecap="round" stroke-miterlimit="10" stroke-width="2"/><line x1="547.59" y1="159.78" x2="580.75" y2="159.78" fill="none" stroke="#cc5411" stroke-linecap="round" stroke-miterlimit="10" stroke-width="2"/><line x1="552.13" y1="348.28" x2="576.21" y2="348.28" fill="none" stroke="#cc5411" stroke-linecap="round" stroke-miterlimit="10" stroke-width="2"/><line x1="544.48" y1="451.96" x2="583.86" y2="451.96" fill="none" stroke="#cc5411" stroke-linecap="round" stroke-miterlimit="10" stroke-width="2"/><path d="m785.72,471.84h81.61c15.74,0,30.88-6.09,42.24-16.98l17.09-16.4h-200.28s17.09,16.4,17.09,16.4c11.36,10.9,26.5,16.98,42.24,16.98Z" fill="#f2a03d" stroke-width="0"/><line x1="908.6" y1="452.59" x2="742.88" y2="452.59" fill="none" stroke="#cc5411" stroke-linecap="round" stroke-miterlimit="10" stroke-width="2"/><polyline points="729.53 438.91 826.24 156.61 922.96 438.91" fill="none" stroke="#753b3b" stroke-linecap="round" stroke-linejoin="round" stroke-width="2"/><line x1="825.35" y1="448.52" x2="825.35" y2="160.95" fill="none" stroke="#753b3b" stroke-linecap="round" stroke-linejoin="round" stroke-width="2"/><line x1="799.05" y1="112.98" x2="600.44" y2="78.46" fill="none" stroke="#f2a03d" stroke-linecap="round" stroke-linejoin="round" stroke-width="10"/><path d="m810.7,148.42c2.7,14.93,17.34,14.62,23.82,9.71,12.85-9.73,8.94-31.9-.35-43.91-14.98-19.34-43.07-27.4-140.81-29.21-5.87-.11,95.29,25.21,89.17,28.23-5.06,2.49,22.07,1.44,28.17,35.18Z" fill="#f2a03d" stroke-width="0"/><path d="m600.05,103.63c31.26,5.16,104.59-5.5,106.02-27.57,1.44-22.07-21.47-14.09-27.46-7.16-5.99,6.93-6.46.47-6.46.47,0,0-6.96-13.06-16.96-6.4-24.04,16.02-48.16,6.52-49.48,9.48-1.31,2.96-5.67,31.17-5.67,31.17Z" fill="#f2a03d" stroke-width="0"/><path d="m667.49,91.68s116.92,10.72,130.38,25.01c13.46,14.29,6.81,25.1-3.39,24.12-3.38-.32-11.04-16.85-31.13-18.16-88.28-5.75-98.6-25.88-100.67-26.24-3.1-.54,4.81-4.75,4.81-4.75Z" fill="#f2a03d" stroke-width="0"/><path d="m806.79,133.36c2.56-9.51-1.15-17.29-10.37-20.53-5.95-2.01-12.37-1.8-18.68-1.86-15.37.24-30.68,1.79-46.01,3.13-7.68.67-15.37,1.52-23.09,1.61-2.59,0-5.21.02-7.76-.54-.17-.03-.13-.31.05-.29,4.33.1,10.87-.92,15.27-1.32,14.91-1.52,31.17-3.4,46.06-4.37,5.14-.32,10.3-.54,15.47-.56,7.05.11,14.68-.07,21.28,3.02,5.64,2.38,10.04,7.9,9.85,14.19-.01,2.68-.64,5.29-1.8,7.64-.08.16-.34.05-.27-.12h0Z" fill="#cc5411" stroke-width="0"/><path d="m698.99,85.31c-3.73,4.49-26.65,14.81-31.9,12.67,2.54-1.53,5.43-2.08,8.09-3.09,2.66-.96,5.28-2.03,7.88-3.16,2.62-1.09,5.19-2.3,7.78-3.48,2.6-1.18,5.03-2.64,7.99-3.2.14-.03.25.15.15.25h0Z" fill="#cc5411" stroke-width="0"/><path d="m672.28,69.46c-2.58,5.21-7.41,8.83-12.33,11.68-9.98,5.73-21.95,7.31-33.26,6.01-5.65-.61-11.28-1.72-16.43-4.18-.07-.04-.11-.12-.07-.2,5.59.38,11.15,1.9,16.71,2.25,13.63,1.2,28.04-1.57,38.87-10.29,2.17-1.68,4.27-3.48,6.28-5.44.1-.11.32.03.24.17h0Z" fill="#cc5411" stroke-width="0"/><circle cx="564.17" cy="18.93" r="15.54" fill="#f2a03d" stroke-width="0"/><path d="m549.8,24.54c2.31-1.1,4.68-1.03,7.04-1.21,4.73-.3,9.46-.39,14.2-.14,2.36.13,4.8.14,7.06,1.36.08.04.1.14.06.21-2.34.77-4.76.5-7.16.57-3.51.08-10.58.16-14.09.16-2.36-.03-4.7.22-7.1-.66-.13-.04-.14-.24-.01-.29h0Z" fill="#cc5411" stroke-width="0"/><path d="m553.12,59.88c-3.43-2.05-7.77-4.39-11.72-3.36-7.27,2.69-5.82,16.52-4.46,22.71,1.5,7.91,6.75,19.96-6.64,18.47-6.67-.68-8.06-8.77-8.97-14.05-.63-4.44-.82-8.89-.73-13.32.11-4.43.51-8.84,1.32-13.2.01-.08.09-.13.17-.12.83,7.51-1.6,37.41,8.43,38.35,7.69.88,6.73-3.32,5.54-9.21-1.47-6.51-3.1-13.13-2.26-19.93.79-8.06,5.36-14.69,14.05-10.5,2.06,1.01,3.88,2.34,5.46,3.93.12.13-.05.32-.19.22h0Z" fill="#cc5411" stroke-width="0"/><path d="m573.62,59.66c9.22-8.81,18.25-6.35,19.55,6.78.89,6.79-.36,13.47-1.14,20.12-.67,6.1-.3,10.05,6.92,9.28,10.27-.62,5.48-31.65,5.92-38.82,2.66,7.75,6.78,40.76-5.71,41.15-12.79,1.35-9.68-10.17-8.61-18.48.77-6.32,2.26-20.35-4.91-23.14-3.97-1.1-8.36,1.27-11.81,3.33-.13.11-.32-.11-.19-.22h0Z" fill="#cc5411" stroke-width="0"/><path d="m564.24,132.17c-2.64,1.01-6.29.2-6.34-3.19-.1-1.79.63-3.44,1.2-5.01.79-2.19,1.58-4.51,1.92-6.77.23-1.47.21-3.02-.42-3.86-.31-.44-.7-.66-1.46-.98-2.98-1.27-7.54-1.8-9.45,1.31-.78,1.34-.81,2.83-.82,4.44,0,.16-.03.37-.07.52-.06.23-.39.93-1.17.89-1.01-.22-.8-.44-.94-.5-.17-.24-.14-.27-.22-.5-.29-1.3-.55-2.73-.89-4.02-2.14-9.25-7.48-18.38-18.26-17.43-.16.02-.22-.25-.05-.29,12.94-4.1,19.54,10.32,21.38,20.74.03.07.06.31.09.37,0,0,0,.02,0,0-.06-.14,0-.04-.13-.24-.14-.05.08-.25-.92-.47-.61-.09-1.1.64-1.05.62-.06.1-.09.24-.1.31,0-1.76.03-3.8,1.1-5.64,1.9-3.47,6.53-4.01,9.97-3.09,2.95.7,5.77,2.08,5.8,5.51.08,3.47-1.23,6.66-2.4,9.8-.69,1.8-2.13,4.41-.9,5.97.92,1.03,2.71,1.2,4.1,1.22.16-.01.21.25.05.29h0Z" fill="#cc5411" stroke-width="0"/><path d="m564.24,131.89c5.68-.03,5.14-2.91,3.19-7.19-1.18-3.15-2.48-6.34-2.4-9.8-.02-2,1.34-4.03,3.31-4.67,3.24-1.38,7.3-1.96,10.46.1,2.55,1.59,3.25,5.12,3.09,7.7,0,0,0,.1,0,.1,0,.01,0,.01,0,0-.02-.1-.05-.2-.1-.3.05.02-.44-.72-1.05-.62-1,.22-.78.43-.92.47-.12.2-.07.11-.13.24,0,.03,0,0,0,0,.03-.06.06-.3.09-.37,1.83-10.42,8.45-24.85,21.38-20.74.16.05.11.3-.05.29-10.8-.94-16.11,8.17-18.26,17.43-.33,1.29-.59,2.71-.89,4.02-.08.22-.06.25-.22.5-.14.06.07.27-.94.5-.79.04-1.12-.67-1.17-.89-.04-.15-.06-.37-.07-.52,0-1.61-.03-3.1-.82-4.44-1.91-3.11-6.47-2.58-9.45-1.31-.76.32-1.14.54-1.46.98-.63.84-.65,2.39-.42,3.86.35,2.26,1.13,4.58,1.92,6.77.87,2.34,2.25,5.63,0,7.71-1.54,1.2-3.45,1.01-5.13.49-.16-.06-.11-.3.06-.29h0Z" fill="#cc5411" stroke-width="0"/><path d="m535.97,32.14c3.34-.06,6.28,1.44,9.08,2.99,2.8,1.59,5.41,3.62,7.53,6.14,2.12,2.44,3.45,5.64,4.46,8.6,1.08,2.93,2.28,5.82,2.6,9.06.02.14-.18.23-.27.11-3.85-4.97-4.53-11.52-8.63-16.23-1.88-2.29-4.26-4.19-6.8-5.83-2.57-1.65-5.37-2.75-8.04-4.56-.13-.07-.08-.29.07-.28h0Z" fill="#cc5411" stroke-width="0"/><path d="m592.52,32.42c-2.66,1.81-5.47,2.91-8.04,4.56-3.79,2.44-7.18,5.5-9.27,9.48-2.07,4.11-3.27,8.78-6.16,12.57-.08.12-.3.04-.27-.11.64-4.86,2.56-9.01,4.36-13.52,2.16-4.44,6.02-7.91,10.22-10.29,2.8-1.54,5.74-3.04,9.08-2.99.15,0,.21.21.07.28h0Z" fill="#cc5411" stroke-width="0"/><path d="m564.36,26.78c.99.98.83,1.96.94,2.95.08.98.12,1.96.12,2.95,0,.98-.06,1.96-.13,2.95-.08.98-.01,1.96-.93,2.95-.08.09-.22.09-.29,0-.91-.98-.85-1.96-.93-2.95-.08-.98-.13-1.96-.13-2.95,0-.98.04-1.96.12-2.95.1-.98-.05-1.96.94-2.95.08-.08.21-.08.29,0h0Z" fill="#cc5411" stroke-width="0"/><path d="m562.73,54.34s-29.9,26.24-23.47,28.21c28.2,8.64,33.06,26.49,33.06,26.49" fill="none" stroke="#cc5411" stroke-linecap="round" stroke-linejoin="round" stroke-width="2"/><path d="m564.91,55.73s29.9,22.09,23.47,24.06c-28.2,8.64-33.06,30.63-33.06,30.63" fill="none" stroke="#cc5411" stroke-linecap="round" stroke-linejoin="round" stroke-width="2"/><line x1="543" y1="131.51" x2="582.8" y2="131.51" fill="none" stroke="#cc5411" stroke-linecap="round" stroke-miterlimit="10" stroke-width="2"/><path d="m768.14,412.53c.64,1.86.15,3.5-.08,5.18-.25,1.68-.55,3.36-.88,5.02-.33,1.67-.72,3.32-1.13,4.97-.41,1.65-.68,3.33-1.91,4.82-.08.1-.25.07-.29-.06-.56-1.85-.16-3.5.09-5.18.26-1.68.54-3.36.87-5.03.33-1.67.71-3.32,1.12-4.98.43-1.65.62-3.34,1.92-4.82.08-.1.25-.06.29.06h0Z" fill="#586366" stroke-width="0"/><path d="m798.26,406.53c.46,2.54-.2,4.84-.61,7.2-.42,2.35-.92,4.69-1.4,7.03-.53,2.33-1.06,4.66-1.65,6.97-.59,2.32-1.03,4.66-2.43,6.8-.07.12-.27.08-.29-.06-.46-4.84,1.25-9.51,2.01-14.23.53-2.33,1.05-4.66,1.64-6.97.61-2.31.96-4.68,2.44-6.8.07-.11.27-.07.29.06h0Z" fill="#586366" stroke-width="0"/><path d="m838.38,419.53c1.35,1.14,1.6,2.6,2.09,3.98.47,1.39.91,2.79,1.31,4.2.4,1.41.74,2.84,1.06,4.27.32,1.43.78,2.83.3,4.48-.03.12-.19.17-.28.08-1.28-1.16-1.61-2.59-2.08-3.98-.47-1.39-.92-2.79-1.32-4.2-.4-1.41-.75-2.83-1.07-4.27-.3-1.44-.84-2.81-.29-4.49.04-.12.19-.16.28-.08h0Z" fill="#586366" stroke-width="0"/></svg>