<?xml version="1.0" encoding="UTF-8"?><svg id="a" xmlns="http://www.w3.org/2000/svg" width="570" height="320" xmlns:xlink="http://www.w3.org/1999/xlink" viewBox="0 0 570 320"><defs><clipPath id="b"><path d="m317.5727,5.9982c-33.3846-1.5278-66.8341-1.6647-100.2317-.3655-33.1671,1.2909-70.0206,1.0536-101.8428,10.0185-30.5943,8.619-66.8541,17.8615-89.4897,41.474-15.2796,15.9393-21.9621,38.6053-21.365,60.1648.6569,23.7212,13.8558,45.2495,11.7831,69.509-1.8139,21.2301-12.8424,41.4336-11.3605,62.6885,1.9732,28.3035,26.4176,51.2095,53.6374,60.7713,27.2199,9.5618,56.9517,8.4946,85.8403,7.3643,109.3182-4.2771,218.6687-7.7578,328.0395-10.4418,22.2843-.5469,43.6578-1.3501,62.9054-12.3847,20.7066-11.8713,33.1184-35.6751,32.4866-58.9999-.5997-22.1385-17.5501-38.2361-22.2898-59.3863-3.0994-13.8305-3.0355-28.3756.3292-42.1539,3.3078-13.5453,13.777-25.6043,14.5183-39.5852,1.4117-26.6266-23.6905-47.1533-48.3085-58.4383-35.5881-16.3137-77.1209-19.7357-115.6945-24.0305-26.2401-2.9216-52.5785-4.9971-78.9574-6.2043Z" fill="#d3e3ed" stroke-width="0"/></clipPath></defs><path d="m317.5727,5.9982c-33.3846-1.5278-66.8341-1.6647-100.2317-.3655-33.1671,1.2909-70.0206,1.0536-101.8428,10.0185-30.5943,8.619-66.8541,17.8615-89.4897,41.474-15.2796,15.9393-21.9621,38.6053-21.365,60.1648.6569,23.7212,13.8558,45.2495,11.7831,69.509-1.8139,21.2301-12.8424,41.4336-11.3605,62.6885,1.9732,28.3035,26.4176,51.2095,53.6374,60.7713,27.2199,9.5618,56.9517,8.4946,85.8403,7.3643,109.3182-4.2771,218.6687-7.7578,328.0395-10.4418,22.2843-.5469,43.6578-1.3501,62.9054-12.3847,20.7066-11.8713,33.1184-35.6751,32.4866-58.9999-.5997-22.1385-17.5501-38.2361-22.2898-59.3863-3.0994-13.8305-3.0355-28.3756.3292-42.1539,3.3078-13.5453,13.777-25.6043,14.5183-39.5852,1.4117-26.6266-23.6905-47.1533-48.3085-58.4383-35.5881-16.3137-77.1209-19.7357-115.6945-24.0305-26.2401-2.9216-52.5785-4.9971-78.9574-6.2043Z" fill="#d3e3ed"/><g clip-path="url(#b)"><path d="m219.1025,157.5944h0c1.557,0,2.8211,1.2641,2.8211,2.8211v11.4303h-5.6422v-11.4303c0-1.557,1.2641-2.8211,2.8211-2.8211Z" fill="none" stroke="#102a3d" stroke-linecap="round" stroke-linejoin="round" stroke-width="2"/><path d="m330.1913,157.5944h0c1.557,0,2.8211,1.2641,2.8211,2.8211v11.4303h-5.6422v-11.4303c0-1.557,1.2641-2.8211,2.8211-2.8211Z" fill="none" stroke="#102a3d" stroke-linecap="round" stroke-linejoin="round" stroke-width="2"/><rect x="211.7561" y="162.2356" width="125.4711" height="125.4711" fill="#a06d4a" stroke-width="0"/><path d="m334.2796,260.0178c-17.1084,1.5136-41.9721.7607-59.3782,1.0591,0-.0003-29.6891-.1338-29.6891-.1338-9.8964-.0806-19.7928-.0114-29.6891-.9253v-.2937c17.111-1.452,41.9742-.7801,59.3782-1.059,0,.0002,29.6891.1236,29.6891.1236,9.8964.105,19.7928-.0503,29.6891.9354,0,0,0,.2937,0,.2937h0Z" fill="#8a5d40" stroke-width="0"/><path d="m334.2796,274.3706c-17.1084,1.5136-41.9721.7607-59.3782,1.0591,0-.0003-29.6891-.1338-29.6891-.1338-9.8964-.0806-19.7928-.0114-29.6891-.9253v-.2936c17.111-1.452,41.9742-.7801,59.3782-1.059,0,.0002,29.6891.1236,29.6891.1236,9.8964.105,19.7928-.0503,29.6891.9354,0,0,0,.2936,0,.2936h0Z" fill="#8a5d40" stroke-width="0"/><path d="m334.2796,173.9007c-17.1084,1.5136-41.9721.7607-59.3782,1.0591,0-.0003-29.6891-.1338-29.6891-.1338-9.8964-.0806-19.7928-.0114-29.6891-.9253v-.2937c17.111-1.452,41.9742-.7801,59.3782-1.059,0,.0002,29.6891.1236,29.6891.1236,9.8964.105,19.7928-.0503,29.6891.9354,0,0,0,.2937,0,.2937h0Z" fill="#8a5d40" stroke-width="0"/><path d="m334.2796,245.6649c-17.1084,1.5136-41.9721.7607-59.3782,1.0591,0-.0003-29.6891-.1338-29.6891-.1338-9.8964-.0806-19.7928-.0114-29.6891-.9253,0,0,0-.2937,0-.2937,17.111-1.452,41.9742-.7801,59.3782-1.059,0,.0002,29.6891.1236,29.6891.1236,9.8964.105,19.7928-.0503,29.6891.9354,0,0,0,.2937,0,.2937h0Z" fill="#8a5d40" stroke-width="0"/><path d="m334.2796,231.312c-17.1084,1.5136-41.9721.7607-59.3782,1.0591,0-.0003-29.6891-.1338-29.6891-.1338-9.8964-.0806-19.7928-.0114-29.6891-.9253v-.2937c17.111-1.452,41.9742-.7801,59.3782-1.059,0,.0002,29.6891.1236,29.6891.1236,9.8964.105,19.7928-.0503,29.6891.9354,0,0,0,.2937,0,.2937h0Z" fill="#8a5d40" stroke-width="0"/><path d="m334.2796,202.6064c-17.1084,1.5136-41.9721.7607-59.3782,1.0591,0-.0003-29.6891-.1338-29.6891-.1338-9.8964-.0806-19.7928-.0114-29.6891-.9253,0,0,0-.2937,0-.2937,17.111-1.452,41.9742-.7801,59.3782-1.059,0,.0002,29.6891.1236,29.6891.1236,9.8964.105,19.7928-.0503,29.6891.9354v.2937h0Z" fill="#8a5d40" stroke-width="0"/><path d="m334.2796,188.2535c-17.1084,1.5136-41.9721.7607-59.3782,1.0591,0-.0003-29.6891-.1338-29.6891-.1338-9.8964-.0806-19.7928-.0114-29.6891-.9253v-.2937c17.111-1.452,41.9742-.7801,59.3782-1.059,0,.0002,29.6891.1236,29.6891.1236,9.8964.105,19.7928-.0503,29.6891.9354,0,0,0,.2937,0,.2937h0Z" fill="#8a5d40" stroke-width="0"/><path d="m334.2796,216.9592c-17.1084,1.5136-41.9721.7607-59.3782,1.0591,0-.0003-29.6891-.1338-29.6891-.1338-9.8964-.0806-19.7928-.0114-29.6891-.9253v-.2937c17.111-1.452,41.9742-.7801,59.3782-1.059,0,.0002,29.6891.1236,29.6891.1236,9.8964.105,19.7928-.0503,29.6891.9354,0,0,0,.2937,0,.2937h0Z" fill="#8a5d40" stroke-width="0"/><rect x="211.7561" y="162.2356" width="125.4711" height="14.0717" fill="#845230" stroke-width="0"/><rect x="211.7561" y="273.6349" width="125.4711" height="14.0717" fill="#845230" stroke-width="0"/><rect x="267.4557" y="217.9353" width="125.4711" height="14.0717" transform="translate(555.1624 -105.2201) rotate(90)" fill="#845230" stroke-width="0"/><rect x="156.0564" y="217.9353" width="125.4711" height="14.0717" transform="translate(443.7631 6.1792) rotate(90)" fill="#845230" stroke-width="0"/><rect x="200.3393" y="216.3871" width="151.4011" height="14.0717" transform="translate(629.2133 186.2172) rotate(135)" fill="#845230" stroke-width="0"/><path d="m313.0456,176.1605c2.0151-.9877,4.0302-.8324,6.0454-.9354,2.0151-.0806,4.0302-.1239,6.0454-.1243,2.0151.0005,4.0303.0579,6.0454.1344,2.0151.0801,4.0303.0109,6.0454.9253v.2937c-2.0151.9144-4.0303.8452-6.0454.9253-2.0151.0766-4.0302.1339-6.0454.1344-2.0151-.0004-4.0302-.0437-6.0454-.1243-2.0151-.103-4.0303.0523-6.0454-.9354v-.2937h0Z" fill="#5c3921" stroke-width="0"/><path d="m323.3023,176.3073c1.5578,16.3215.7725,32.6794,1.0591,49.0425-.0261,8.1737-.0459,16.3475-.1339,24.5212-.0806,8.1738-.0114,16.3475-.9253,24.5212h-.2937c-1.4974-16.3252-.7894-32.6811-1.0591-49.0425.0233-8.1738.0352-16.3475.1237-24.5213.105-8.1737-.0503-16.3475.9354-24.5212h.2937Z" fill="#5c3921" stroke-width="0"/><path d="m235.5769,274.0397c-1.985.9877-3.9701.8324-5.9552.9354-1.9851.0806-3.9701.1239-5.9552.1243-1.9851-.0005-3.9701-.0579-5.9552-.1344-1.9851-.0801-3.9701-.0109-5.9552-.9253v-.2937c1.9851-.9144,3.9701-.8452,5.9552-.9253,1.9851-.0766,3.9701-.1339,5.9552-.1344,1.9851.0004,3.9701.0437,5.9552.1243,1.9851.103,3.9702-.0523,5.9552.9354v.2937h0Z" fill="#5c3921" stroke-width="0"/><path d="m225.9875,274.3923c-1.5579-16.3214-.7725-32.6794-1.0592-49.0425.0261-8.1738.0459-16.3475.1339-24.5213.0806-8.1737.0114-16.3475.9253-24.5212,0,0,.2936,0,.2936,0,1.4974,16.3253.7894,32.6811,1.0591,49.0425-.0233,8.1737-.0352,16.3475-.1237,24.5212-.105,8.1738.0503,16.3475-.9354,24.5212h-.2936Z" fill="#5c3921" stroke-width="0"/><path d="m226.8998,176.4542c-1.2722.9877-2.5443.8324-3.8164.9354-1.2722.0806-2.5443.1239-3.8164.1243-1.2721-.0005-2.5443-.0579-3.8164-.1344-1.2721-.0801-2.5443-.0109-3.8164-.9253v-.2937c1.2722-.9144,2.5443-.8452,3.8164-.9253,1.2721-.0765,2.5443-.1339,3.8164-.1344,1.2721.0004,2.5443.0437,3.8164.1243,1.2722.103,2.5443-.0523,3.8164.9354v.2937h0Z" fill="#5c3921" stroke-width="0"/><path d="m323.0201,273.746c1.1444-.9877,2.2888-.8324,3.4332-.9354,1.1444-.0806,2.2888-.1239,3.4332-.1243,1.1444.0005,2.2888.0579,3.4332.1344,1.1444.0801,2.2888.0109,3.4332.9253v.2937c-1.1444.9144-2.2888.8452-3.4332.9253-1.1444.0765-2.2888.1339-3.4332.1344-1.1444-.0004-2.2888-.0437-3.4332-.1243-1.1444-.103-2.2888.0523-3.4332-.9354v-.2937h0Z" fill="#5c3921" stroke-width="0"/><circle cx="330.188" cy="172.2722" r="1.5506" fill="#2f383d" stroke-width="0"/><circle cx="330.188" cy="166.2707" r="1.5506" fill="#2f383d" stroke-width="0"/><circle cx="219.267" cy="172.2722" r="1.5506" fill="#2f383d" stroke-width="0"/><circle cx="219.267" cy="166.2707" r="1.5506" fill="#2f383d" stroke-width="0"/><circle cx="330.188" cy="284.4289" r="1.5506" fill="#2f383d" stroke-width="0"/><circle cx="330.188" cy="278.4274" r="1.5506" fill="#2f383d" stroke-width="0"/><circle cx="219.267" cy="284.4289" r="1.5506" fill="#2f383d" stroke-width="0"/><circle cx="219.267" cy="278.4274" r="1.5506" fill="#2f383d" stroke-width="0"/><path d="m358.1006,222.6108l.8672-8.5078h8.7422v2.0039h-6.9023l-.5156,4.6523c.8359-.4922,1.7852-.7383,2.8477-.7383,1.5547,0,2.7891.5137,3.7031,1.541s1.3711,2.416,1.3711,4.166c0,1.7578-.4746,3.1426-1.4238,4.1543s-2.2754,1.5176-3.9785,1.5176c-1.5078,0-2.7383-.418-3.6914-1.2539s-1.4961-1.9922-1.6289-3.4688h2.0508c.1328.9766.4805,1.7129,1.043,2.209s1.3047.7441,2.2266.7441c1.0078,0,1.7988-.3438,2.373-1.0312s.8613-1.6367.8613-2.8477c0-1.1406-.3105-2.0566-.9316-2.748s-1.4473-1.0371-2.4785-1.0371c-.9453,0-1.6875.207-2.2266.6211l-.5742.4688-1.7344-.4453Z" stroke-width="0"/><path d="m381.7607,231.1655h-11.1797v-1.5586l5.9062-6.5625c.875-.9922,1.4785-1.7988,1.8105-2.4199s.498-1.2637.498-1.9277c0-.8906-.2695-1.6211-.8086-2.1914s-1.2578-.8555-2.1562-.8555c-1.0781,0-1.916.3066-2.5137.9199s-.8965,1.4668-.8965,2.5605h-2.168c0-1.5703.5059-2.8398,1.5176-3.8086s2.3652-1.4531,4.0605-1.4531c1.5859,0,2.8398.416,3.7617,1.248s1.3828,1.9395,1.3828,3.3223c0,1.6797-1.0703,3.6797-3.2109,6l-4.5703,4.957h8.5664v1.7695Z" stroke-width="0"/><path d="m393.7607,225.2944l-1.3594,1.418v4.4531h-2.168v-18h2.168v10.8867l1.1602-1.3945,3.9492-4.1719h2.6367l-4.9336,5.2969,5.5078,7.3828h-2.543l-4.418-5.8711Z" stroke-width="0"/><path d="m401.8701,224.7202c0-1.9766.457-3.5488,1.3711-4.7168s2.125-1.752,3.6328-1.752c1.5469,0,2.7539.5469,3.6211,1.6406l.1055-1.4062h1.9805v12.375c0,1.6406-.4863,2.9336-1.459,3.8789s-2.2793,1.418-3.9199,1.418c-.9141,0-1.8086-.1953-2.6836-.5859s-1.543-.9258-2.0039-1.6055l1.125-1.3008c.9297,1.1484,2.0664,1.7227,3.4102,1.7227,1.0547,0,1.877-.2969,2.4668-.8906s.8848-1.4297.8848-2.5078v-1.0898c-.8672,1-2.0508,1.5-3.5508,1.5-1.4844,0-2.6855-.5977-3.6035-1.793s-1.377-2.8242-1.377-4.8867Zm2.1797.2461c0,1.4297.293,2.5527.8789,3.3691s1.4062,1.2246,2.4609,1.2246c1.3672,0,2.3711-.6211,3.0117-1.8633v-5.7891c-.6641-1.2109-1.6602-1.8164-2.9883-1.8164-1.0547,0-1.8789.4102-2.4727,1.2305s-.8906,2.0352-.8906,3.6445Z" stroke-width="0"/><path d="m275.5887,147.6944l-.6304-104.9121c-.0367-7.2821-5.9504-13.166-13.2326-13.166H-24.2713" fill="none" stroke="#a6602b" stroke-linecap="round" stroke-linejoin="round" stroke-width="4.4347"/><circle cx="263.756" cy="41.003" r="14.9192" fill="#a2a3a5" stroke-width="0"/><path d="m165.1705,102.8822l94.9882-67.1626c2.9179-1.9868,6.894-1.232,8.8808,1.6859,1.9868,2.9179,1.232,6.894-1.6859,8.8808l-79.1175,86.4122-23.0655-29.8164Z" fill="#4d4e4e" stroke-width="0"/><circle cx="263.756" cy="41.003" r="4.0209" fill="gray" stroke-width="0"/><rect x="-127.0747" y="97.0653" width="325.206" height="279.5262" fill="#a0b0b8" stroke-width="0"/><polyline points="330.1913 157.5944 275.5887 147.6944 219.1025 157.5944" fill="none" stroke="#a6602b" stroke-linecap="round" stroke-linejoin="round" stroke-width="4.4347"/></g></svg>