<?xml version="1.0" encoding="UTF-8"?>
<svg id="Layer_1" data-name="Layer 1" xmlns="http://www.w3.org/2000/svg" xmlns:xlink="http://www.w3.org/1999/xlink" viewBox="0 0 1140 640">
  <defs>
    <style>
      .cls-1, .cls-2, .cls-3, .cls-4, .cls-5 {
        fill: none;
      }

      .cls-6 {
        clip-path: url(#clippath);
      }

      .cls-7 {
        fill: #f9f9f9;
      }

      .cls-8 {
        fill: #006014;
      }

      .cls-9 {
        fill: #006495;
      }

      .cls-10 {
        fill: #efd4c2;
      }

      .cls-11 {
        fill: #ebf8ff;
      }

      .cls-12 {
        fill: #91af9e;
      }

      .cls-13 {
        fill: #7dcc7e;
      }

      .cls-14 {
        fill: #9fbedd;
      }

      .cls-15 {
        fill: #b5ccac;
      }

      .cls-16 {
        fill: #917b7a;
      }

      .cls-17 {
        fill: #b3ddb9;
      }

      .cls-18 {
        fill: #8e8682;
      }

      .cls-19 {
        fill: #ced9d6;
      }

      .cls-20 {
        fill: #d2e2cc;
      }

      .cls-21 {
        fill: #e2c8bc;
      }

      .cls-22 {
        fill: #d3ac92;
      }

      .cls-23 {
        fill: #d9edd1;
      }

      .cls-24 {
        fill: #cae2ff;
      }

      .cls-25 {
        fill: #e1c0aa;
      }

      .cls-26 {
        fill: #216d52;
      }

      .cls-27 {
        fill: #89abc9;
      }

      .cls-28 {
        fill: #820312;
      }

      .cls-29 {
        fill: #5c8299;
      }

      .cls-30 {
        fill: #539b7f;
      }

      .cls-31 {
        clip-path: url(#clippath-1);
      }

      .cls-2 {
        stroke: #006014;
        stroke-linecap: round;
        stroke-linejoin: round;
      }

      .cls-2, .cls-3, .cls-4 {
        stroke-width: 2px;
      }

      .cls-3 {
        opacity: .19;
        stroke: #4e685e;
      }

      .cls-3, .cls-4, .cls-5 {
        stroke-miterlimit: 10;
      }

      .cls-4 {
        stroke: #820312;
      }

      .cls-5 {
        stroke: #94bead;
        stroke-width: 2.875px;
      }

      .cls-32 {
        opacity: .54;
      }
    </style>
    <clipPath id="clippath">
      <path class="cls-1" d="m1125.39,310.537c6.104,54.469-1.636,110.494-23.483,162.265-29.92,70.896-106.927,128.427-197.863,146.549-102.402,20.406-207.668-7.188-312.461-6.934-70.198.17-137.715,14.679-207.302,18.91-126.709,7.703-291.137-10.094-347.481-126.354-26.834-55.37-31.145-118.143-26.949-177.535,5.589-79.125,54.069-184.927,129.383-239.544C264.663-3.068,460.944,5.006,621.125,3.31c111.849-1.184,250.399,11.8,342.549,64.825,86.107,49.549,140.224,130.527,157.229,213.909,1.926,9.44,3.419,18.946,4.488,28.493Z"/>
    </clipPath>
    <clipPath id="clippath-1">
      <path class="cls-1" d="m-85.337,310.537c6.104,54.469-1.636,110.494-23.483,162.265-29.92,70.896-106.927,128.427-197.863,146.549-102.402,20.406-207.668-7.188-312.461-6.934-70.198.17-137.715,14.679-207.302,18.91-126.709,7.703-291.137-10.094-347.481-126.354-26.834-55.37-31.145-118.143-26.949-177.535,5.589-79.125,54.069-184.927,129.383-239.544C-946.064-3.068-749.783,5.006-589.602,3.31c111.849-1.184,250.399,11.8,342.549,64.825,86.107,49.549,140.224,130.527,157.229,213.909,1.926,9.44,3.419,18.946,4.488,28.493Z"/>
    </clipPath>
  </defs>
  <g class="cls-6">
    <g id="mcv4u_05.01.02">
      <g>
        <rect class="cls-20" x="-585.777" y="-119.836" width="1450.242" height="576.865"/>
        <g>
          <rect class="cls-12" x="-173.027" y="360.004" width="1299.799" height="384.294"/>
          <polygon class="cls-16" points="431.623 711.777 -374.573 711.777 -374.573 638.023 470.042 638.023 431.623 711.777"/>
        </g>
        <polygon class="cls-15" points="-549.176 656.148 -549.176 728.838 -266.27 728.838 -45.089 496.922 1230.244 496.922 1211.138 454.001 -68.603 454.001 -549.176 656.148"/>
        <polygon class="cls-15" points="686.28 -115.642 686.28 268.919 -51.092 285.885 -51.092 474.084 1146.095 474.084 1146.095 -115.642 686.28 -115.642"/>
        <g>
          <rect class="cls-20" x="952.159" y="-119.836" width="612.379" height="576.865"/>
          <rect class="cls-15" x="952.159" y="454.001" width="612.379" height="42.921"/>
          <polygon class="cls-15" points="1564.539 271.348 952.159 285.438 952.159 474.084 1564.539 474.084 1564.539 271.348"/>
          <g class="cls-32">
            <line class="cls-5" x1="988.45" y1="54.003" x2="988.45" y2="249.667"/>
            <line class="cls-5" x1="1063.288" y1="54.003" x2="1063.288" y2="249.667"/>
            <line class="cls-5" x1="1140.36" y1="54.003" x2="1140.36" y2="249.667"/>
            <path class="cls-5" d="m941.316,152.823c191.575-.338,383.575-.338,575.161,0"/>
            <path class="cls-5" d="m941.316,222.985c191.575-.5,383.575-.5,575.161,0"/>
          </g>
          <g>
            <rect class="cls-10" x="952.159" y="245.551" width="612.379" height="10.164"/>
            <rect class="cls-25" x="952.159" y="255.715" width="612.379" height="27.734"/>
          </g>
          <g>
            <rect class="cls-3" x="957.794" y="292.288" width="118.373" height="195.968"/>
            <rect class="cls-3" x="1087.213" y="292.288" width="118.373" height="195.968"/>
            <rect class="cls-23" x="987.083" y="297.865" width="60.498" height="7.152"/>
            <rect class="cls-23" x="1116.855" y="297.865" width="60.498" height="7.152"/>
          </g>
          <g>
            <polygon class="cls-25" points="1564.539 -118.076 952.159 -118.076 952.159 102.622 1564.539 102.023 1564.539 -118.076"/>
            <g>
              <rect class="cls-22" x="952.159" y="-105.499" width="104.891" height="188.517"/>
              <rect class="cls-22" x="1069.278" y="-105.499" width="120.431" height="188.517"/>
            </g>
          </g>
        </g>
        <g class="cls-32">
          <line class="cls-5" x1="44.615" y1="54.003" x2="44.615" y2="249.667"/>
          <line class="cls-5" x1="119.453" y1="54.003" x2="119.453" y2="249.667"/>
          <line class="cls-5" x1="196.526" y1="54.003" x2="196.526" y2="249.667"/>
          <line class="cls-5" x1="271.364" y1="54.003" x2="271.364" y2="249.667"/>
          <line class="cls-5" x1="340.619" y1="54.003" x2="340.619" y2="249.667"/>
          <line class="cls-5" x1="415.458" y1="54.003" x2="415.458" y2="249.667"/>
          <line class="cls-5" x1="492.53" y1="54.003" x2="492.53" y2="249.667"/>
          <line class="cls-5" x1="567.368" y1="54.003" x2="567.368" y2="249.667"/>
          <line class="cls-5" x1="-2.518" y1="152.823" x2="634.037" y2="152.823"/>
          <line class="cls-5" x1="-2.518" y1="222.985" x2="634.037" y2="222.985"/>
        </g>
        <g>
          <polygon class="cls-10" points="-266.962 305.084 -608.217 305.084 -188.431 245.551 613.991 245.551 634.037 255.715 -47.134 255.715 -266.962 305.084"/>
          <rect class="cls-25" x="-47.134" y="255.715" width="681.171" height="27.735"/>
        </g>
        <g>
          <rect class="cls-3" x="-26.041" y="292.288" width="118.373" height="195.968"/>
          <rect class="cls-3" x="103.378" y="292.288" width="118.373" height="195.968"/>
          <rect class="cls-3" x="233.052" y="292.288" width="118.373" height="195.968"/>
          <rect class="cls-3" x="362.724" y="292.288" width="118.373" height="195.968"/>
          <rect class="cls-23" x="3.248" y="297.865" width="60.498" height="7.152"/>
          <rect class="cls-23" x="266.041" y="297.865" width="60.498" height="7.152"/>
          <rect class="cls-23" x="394.371" y="297.865" width="60.498" height="7.152"/>
          <rect class="cls-23" x="133.02" y="297.865" width="60.498" height="7.152"/>
        </g>
        <g>
          <rect class="cls-3" x="492.143" y="292.288" width="118.373" height="195.968"/>
          <rect class="cls-23" x="521.784" y="297.865" width="60.498" height="7.152"/>
        </g>
        <polygon class="cls-18" points="154.552 247.003 144.211 252.339 307.262 252.339 297.717 247.003 154.552 247.003"/>
        <g>
          <path class="cls-7" d="m231.793,245.685h-9.191v-33.356c-.011-1.204-.387-11.92-9.988-11.92-1.447,0-2.499.388-3.417,1.262-2.708,2.575-3.266,8.402-3.247,10.24l-9.191.117c-.018-1.088,0-10.803,5.88-16.424,2.637-2.523,6.086-3.854,9.976-3.854,15.172,0,19.179,13.461,19.179,20.581v33.356l-.002-.002Z"/>
          <rect class="cls-7" x="237.658" y="234.127" width="9.97" height="11.985"/>
          <rect class="cls-7" x="207.231" y="234.289" width="9.97" height="11.985"/>
        </g>
        <g>
          <polygon class="cls-25" points="-193.317 102.779 623.401 101.981 623.6 -118.076 -193.317 -118.076 -193.317 102.779"/>
          <g>
            <rect class="cls-22" x="-48.215" y="-105.499" width="120.431" height="188.517"/>
            <rect class="cls-22" x="84.444" y="-105.499" width="120.431" height="188.517"/>
            <rect class="cls-22" x="217.104" y="-105.499" width="120.431" height="188.517"/>
            <rect class="cls-22" x="349.762" y="-105.499" width="120.431" height="188.517"/>
            <rect class="cls-22" x="482.422" y="-105.499" width="120.431" height="188.517"/>
            <rect class="cls-21" x="190.295" y="3.979" width="9.264" height="68.075"/>
            <rect class="cls-21" x="223.866" y="3.979" width="9.264" height="68.075"/>
            <rect class="cls-21" x="454.784" y="3.979" width="9.264" height="68.075"/>
            <rect class="cls-21" x="488.354" y="3.979" width="9.264" height="68.075"/>
          </g>
        </g>
        <g>
          <rect class="cls-9" x="623.798" y="-24.107" width="328.362" height="522.363"/>
          <rect class="cls-11" x="633.42" y="-12.341" width="193.747" height="472.78"/>
          <path class="cls-24" d="m926.284,154.665c-8.479,9.214-17.43,18.03-26.519,26.71-9.263,8.845-18.859,17.41-27.764,26.581-10.978,11.304-21.406,23.606-33.289,34.275v218.209h102.647V137.056c-4.802,6.035-9.832,11.911-15.076,17.609h.002Z"/>
          <rect class="cls-11" x="838.714" y="-12.341" width="102.647" height="472.78"/>
          <rect class="cls-14" x="649.807" y="181.249" width="107.295" height="79.541"/>
          <rect class="cls-29" x="661.976" y="192.284" width="75.105" height="55.678"/>
          <rect class="cls-19" x="700.894" y="208.681" width="71.261" height="7.811"/>
          <rect class="cls-27" x="855.533" y="130.517" width="8.933" height="207.518"/>
        </g>
      </g>
    </g>
  </g>
  <g class="cls-31">
    <g id="mcv4u_05.01.02-2" data-name="mcv4u_05.01.02">
      <g>
        <path class="cls-30" d="m15.483,330.259c-5.398-5.045-33.633-45.405-73.994-20.18-91.546,57.216-77.357-10.09-132.852-10.09-23.782,0-70.748,38.678-68.949,58.858,1.799,20.18,46.758-10.09,46.758-10.09,0,0-34.186-1.682-41.383-1.682s36.345,22.082,26.577-8.408c-8.216-25.646-40.778-20.862-72.475-13.557-12.611,2.906-23.713,10.324-31.235,20.854l-22.415,31.381s176.916,5.045,203.906,1.682S15.483,330.259,15.483,330.259Z"/>
        <path class="cls-26" d="m31.358,310.248s-65.585-1.682-72.312,13.453c-6.727,15.135-28.588,31.952-28.588,31.952,0,0-50.45-16.817-68.949-21.862-18.498-5.045-40.36,3.363-40.36,3.363,0,0-15.135,15.135-23.543,15.135s-18.498,1.682-36.997,1.682-36.997-13.453-67.267-3.363c-30.27,10.09-26.907,10.09-47.087,10.09s-43.723-6.727-72.312-6.727h-63.903c-6.727,0-18.498,1.682-23.543,5.045-5.045,3.363-77.357-13.453-89.129-10.09-11.772,3.363-6.727,1.682-25.225,8.408-18.498,6.727-33.633,13.453-33.633,13.453,0,0-18.498,15.135,1.682,16.817,20.18,1.682,701.257,11.772,701.257,11.772l-10.09-89.129Z"/>
        <path class="cls-17" d="m-1238.762,355.156c16.24,0,1296.286,17.144,1334.965,17.144,109.052,0,141.26,347.661,141.26,347.661l-1421.009-24.733-55.216-340.073Z"/>
        <path class="cls-13" d="m-1280.126,329.799c61.831-4.736,216.446-54.541,544.152-10.736,146.011,19.517,479.193,65.114,520.93,74.586,41.736,9.471,408.087,69.85,425.091,79.321,17.004,9.471-49.465,43.804-63.377,48.54-13.912,4.736-1236.628,40.252-1261.361,41.436-24.733,1.184-114.388-21.31-119.025-35.517s-46.409-197.629-46.409-197.629Z"/>
      </g>
    </g>
  </g>
  <rect class="cls-15" x="237.472" y="424.957" width="267.065" height="50.527"/>
  <g>
    <g>
      <line class="cls-4" x1="212.808" y1="509.975" x2="212.808" y2="592.21"/>
      <polygon class="cls-28" points="204.83 589.875 212.808 603.691 220.786 589.875 204.83 589.875"/>
    </g>
    <g>
      <line class="cls-2" x1="212.808" y1="489.091" x2="212.808" y2="406.857"/>
      <polygon class="cls-8" points="220.786 409.191 212.808 395.375 204.83 409.191 220.786 409.191"/>
    </g>
    <g>
      <path d="m395.386,444.472h-7.775l.162-.81c.63,0,1.129-.055,1.498-.162.369-.108.666-.328.892-.662.225-.333.4-.832.526-1.498l2.402-11.557c.126-.629.162-1.102.108-1.417-.054-.314-.252-.53-.594-.648-.343-.116-.883-.175-1.62-.175l.162-.811h13.932l-.729,4.401h-.811c.018-.864-.031-1.539-.148-2.025-.117-.485-.428-.827-.932-1.025s-1.341-.297-2.511-.297h-4.05l-2.809,13.823c-.036.181-.062.347-.081.5-.018.153-.026.293-.026.418,0,.469.216.774.647.918.433.145,1.062.217,1.891.217l-.136.81Zm4.995-6.048h-.891c.144-.773.18-1.341.108-1.701-.072-.359-.302-.599-.688-.716-.388-.116-.968-.175-1.742-.175h-3.186l.188-1.026h3.268c.773,0,1.372-.071,1.795-.216.423-.144.747-.409.973-.797.225-.387.409-.94.553-1.66h.864l-1.242,6.291Z"/>
      <path d="m406.992,453.464h-3.621l.095-.473c.409,0,.724-.044.944-.134.221-.089.389-.27.504-.543.115-.272.226-.671.33-1.196l1.464-7.099,1.103,1.117h-.567l-1.228,5.981c-.104.525-.146.921-.126,1.188.021.268.129.449.323.543.193.095.485.142.873.142l-.094.473Zm5.478.126h-.52l-4.754-8.673-.362-.284c-.157-.283-.299-.501-.425-.653-.126-.151-.271-.254-.433-.307-.163-.053-.375-.078-.638-.078l.095-.473h2.471l4.251,7.744h.078l1.086-5.241c.105-.535.152-.95.142-1.244-.01-.293-.109-.498-.299-.613-.188-.115-.504-.173-.944-.173l.095-.473h3.715l-.095.473c-.389,0-.7.07-.937.212s-.423.367-.559.677c-.137.31-.258.717-.362,1.22l-1.605,7.887Z"/>
    </g>
    <g>
      <path d="m251.864,444.233h-2.262l-8.59-13.148v13.148h-2.262v-17.062h2.262l8.613,13.207v-13.207h2.238v17.062Z"/>
      <path d="m254.946,437.776c0-1.242.244-2.359.732-3.352s1.168-1.758,2.039-2.297,1.865-.809,2.982-.809c1.727,0,3.123.598,4.189,1.793s1.6,2.785,1.6,4.77v.152c0,1.234-.236,2.342-.709,3.322s-1.148,1.744-2.027,2.291-1.889.82-3.029.82c-1.719,0-3.111-.598-4.178-1.793s-1.6-2.777-1.6-4.746v-.152Zm2.18.258c0,1.406.326,2.535.979,3.387s1.525,1.277,2.619,1.277c1.102,0,1.977-.432,2.625-1.295s.973-2.072.973-3.627c0-1.391-.33-2.518-.99-3.381s-1.537-1.295-2.631-1.295c-1.07,0-1.934.426-2.59,1.277s-.984,2.07-.984,3.656Z"/>
      <path d="m275.337,433.499c-.328-.055-.684-.082-1.066-.082-1.422,0-2.387.605-2.895,1.816v9h-2.168v-12.68h2.109l.035,1.465c.711-1.133,1.719-1.699,3.023-1.699.422,0,.742.055.961.164v2.016Z"/>
      <path d="m279.368,431.553l.059,1.406c.93-1.094,2.184-1.641,3.762-1.641,1.773,0,2.98.68,3.621,2.039.422-.609.971-1.102,1.646-1.477s1.475-.562,2.396-.562c2.781,0,4.195,1.473,4.242,4.418v8.496h-2.168v-8.367c0-.906-.207-1.584-.621-2.033s-1.109-.674-2.086-.674c-.805,0-1.473.24-2.004.721s-.84,1.127-.926,1.939v8.414h-2.18v-8.309c0-1.844-.902-2.766-2.707-2.766-1.422,0-2.395.605-2.918,1.816v9.258h-2.168v-12.68h2.051Z"/>
      <path d="m306.193,444.233c-.125-.25-.227-.695-.305-1.336-1.008,1.047-2.211,1.57-3.609,1.57-1.25,0-2.275-.354-3.076-1.061s-1.201-1.604-1.201-2.689c0-1.32.502-2.346,1.506-3.076s2.416-1.096,4.236-1.096h2.109v-.996c0-.758-.227-1.361-.68-1.811s-1.121-.674-2.004-.674c-.773,0-1.422.195-1.945.586s-.785.863-.785,1.418h-2.18c0-.633.225-1.244.674-1.834s1.059-1.057,1.828-1.4,1.615-.516,2.537-.516c1.461,0,2.605.365,3.434,1.096s1.258,1.736,1.289,3.018v5.836c0,1.164.148,2.09.445,2.777v.188h-2.273Zm-3.598-1.652c.68,0,1.324-.176,1.934-.527s1.051-.809,1.324-1.371v-2.602h-1.699c-2.656,0-3.984.777-3.984,2.332,0,.68.227,1.211.68,1.594s1.035.574,1.746.574Z"/>
      <path d="m313.775,444.233h-2.168v-18h2.168v18Z"/>
      <path d="m324.251,444.233v-11.004h-2.004v-1.676h2.004v-1.301c0-1.359.363-2.41,1.09-3.152s1.754-1.113,3.082-1.113c.5,0,.996.065,1.488.197l-.117,1.748c-.367-.07-.758-.105-1.172-.105-.703,0-1.246.206-1.629.617s-.574,1.001-.574,1.769v1.341h2.707v1.676h-2.707v11.004h-2.168Z"/>
      <path d="m330.943,437.776c0-1.242.244-2.359.732-3.352s1.168-1.758,2.039-2.297,1.865-.809,2.982-.809c1.727,0,3.123.598,4.189,1.793s1.6,2.785,1.6,4.77v.152c0,1.234-.236,2.342-.709,3.322s-1.148,1.744-2.027,2.291-1.889.82-3.029.82c-1.719,0-3.111-.598-4.178-1.793s-1.6-2.777-1.6-4.746v-.152Zm2.18.258c0,1.406.326,2.535.979,3.387s1.525,1.277,2.619,1.277c1.102,0,1.977-.432,2.625-1.295s.973-2.072.973-3.627c0-1.391-.33-2.518-.99-3.381s-1.537-1.295-2.631-1.295c-1.07,0-1.934.426-2.59,1.277s-.984,2.07-.984,3.656Z"/>
      <path d="m351.333,433.499c-.328-.055-.684-.082-1.066-.082-1.422,0-2.387.605-2.895,1.816v9h-2.168v-12.68h2.109l.035,1.465c.711-1.133,1.719-1.699,3.023-1.699.422,0,.742.055.961.164v2.016Z"/>
      <path d="m358.189,442.698c.773,0,1.449-.234,2.027-.703s.898-1.055.961-1.758h2.051c-.039.727-.289,1.418-.75,2.074s-1.076,1.18-1.846,1.57-1.584.586-2.443.586c-1.727,0-3.1-.576-4.119-1.729s-1.529-2.729-1.529-4.729v-.363c0-1.234.227-2.332.68-3.293s1.104-1.707,1.951-2.238,1.85-.797,3.006-.797c1.422,0,2.604.426,3.545,1.277s1.443,1.957,1.506,3.316h-2.051c-.062-.82-.373-1.494-.932-2.021s-1.248-.791-2.068-.791c-1.102,0-1.955.396-2.561,1.189s-.908,1.939-.908,3.439v.41c0,1.461.301,2.586.902,3.375s1.461,1.184,2.578,1.184Z"/>
      <path d="m370.927,444.467c-1.719,0-3.117-.564-4.195-1.693s-1.617-2.639-1.617-4.529v-.398c0-1.258.24-2.381.721-3.369s1.152-1.762,2.016-2.32,1.799-.838,2.807-.838c1.648,0,2.93.543,3.844,1.629s1.371,2.641,1.371,4.664v.902h-8.59c.031,1.25.396,2.26,1.096,3.029s1.588,1.154,2.666,1.154c.766,0,1.414-.156,1.945-.469s.996-.727,1.395-1.242l1.324,1.031c-1.062,1.633-2.656,2.449-4.781,2.449Zm-.27-11.367c-.875,0-1.609.318-2.203.955s-.961,1.529-1.102,2.678h6.352v-.164c-.062-1.102-.359-1.955-.891-2.561s-1.25-.908-2.156-.908Z"/>
      <path d="m239.478,473.033v-11.004h-2.004v-1.676h2.004v-1.301c0-1.359.363-2.41,1.09-3.152s1.754-1.113,3.082-1.113c.5,0,.996.066,1.488.198l-.117,1.747c-.367-.07-.758-.105-1.172-.105-.703,0-1.246.206-1.629.617s-.574,1.001-.574,1.77v1.34h2.707v1.676h-2.707v11.004h-2.168Z"/>
      <path d="m249.099,473.033h-2.168v-18h2.168v18Z"/>
      <path d="m251.993,466.576c0-1.242.244-2.359.732-3.352s1.168-1.758,2.039-2.297,1.865-.809,2.982-.809c1.727,0,3.123.598,4.189,1.793s1.6,2.785,1.6,4.77v.152c0,1.234-.236,2.342-.709,3.322s-1.148,1.744-2.027,2.291-1.889.82-3.029.82c-1.719,0-3.111-.598-4.178-1.793s-1.6-2.777-1.6-4.746v-.152Zm2.18.258c0,1.406.326,2.535.979,3.387s1.525,1.277,2.619,1.277c1.102,0,1.977-.432,2.625-1.295s.973-2.072.973-3.627c0-1.391-.33-2.518-.99-3.381s-1.537-1.295-2.631-1.295c-1.07,0-1.934.426-2.59,1.277s-.984,2.07-.984,3.656Z"/>
      <path d="m265.681,466.576c0-1.242.244-2.359.732-3.352s1.168-1.758,2.039-2.297,1.865-.809,2.982-.809c1.727,0,3.123.598,4.189,1.793s1.6,2.785,1.6,4.77v.152c0,1.234-.236,2.342-.709,3.322s-1.148,1.744-2.027,2.291-1.889.82-3.029.82c-1.719,0-3.111-.598-4.178-1.793s-1.6-2.777-1.6-4.746v-.152Zm2.18.258c0,1.406.326,2.535.979,3.387s1.525,1.277,2.619,1.277c1.102,0,1.977-.432,2.625-1.295s.973-2.072.973-3.627c0-1.391-.33-2.518-.99-3.381s-1.537-1.295-2.631-1.295c-1.07,0-1.934.426-2.59,1.277s-.984,2.07-.984,3.656Z"/>
      <path d="m286.071,462.299c-.328-.055-.684-.082-1.066-.082-1.422,0-2.387.605-2.895,1.816v9h-2.168v-12.68h2.109l.035,1.465c.711-1.133,1.719-1.699,3.023-1.699.422,0,.742.055.961.164v2.016Z"/>
      <path d="m301.388,469.67c0-.586-.221-1.041-.662-1.365s-1.211-.604-2.309-.838-1.969-.516-2.613-.844-1.121-.719-1.43-1.172-.463-.992-.463-1.617c0-1.039.439-1.918,1.318-2.637s2.002-1.078,3.369-1.078c1.438,0,2.604.371,3.498,1.113s1.342,1.691,1.342,2.848h-2.18c0-.594-.252-1.105-.756-1.535s-1.139-.645-1.904-.645c-.789,0-1.406.172-1.852.516s-.668.793-.668,1.348c0,.523.207.918.621,1.184s1.162.52,2.244.762,1.959.531,2.631.867,1.17.74,1.494,1.213.486,1.049.486,1.729c0,1.133-.453,2.041-1.359,2.725s-2.082,1.025-3.527,1.025c-1.016,0-1.914-.18-2.695-.539s-1.393-.861-1.834-1.506-.662-1.342-.662-2.092h2.168c.039.727.33,1.303.873,1.729s1.26.639,2.15.639c.82,0,1.479-.166,1.975-.498s.744-.775.744-1.33Z"/>
      <path d="m314.208,471.779c-.844.992-2.082,1.488-3.715,1.488-1.352,0-2.381-.393-3.088-1.178s-1.064-1.947-1.072-3.486v-8.25h2.168v8.191c0,1.922.781,2.883,2.344,2.883,1.656,0,2.758-.617,3.305-1.852v-9.223h2.168v12.68h-2.062l-.047-1.254Z"/>
      <path d="m330.321,466.834c0,1.93-.441,3.484-1.324,4.664s-2.078,1.77-3.586,1.77c-1.539,0-2.75-.488-3.633-1.465v6.105h-2.168v-17.555h1.98l.105,1.406c.883-1.094,2.109-1.641,3.68-1.641,1.523,0,2.729.574,3.615,1.723s1.33,2.746,1.33,4.793v.199Zm-2.168-.246c0-1.43-.305-2.559-.914-3.387s-1.445-1.242-2.508-1.242c-1.312,0-2.297.582-2.953,1.746v6.059c.648,1.156,1.641,1.734,2.977,1.734,1.039,0,1.865-.412,2.479-1.236s.92-2.049.92-3.674Z"/>
      <path d="m343.786,466.834c0,1.93-.441,3.484-1.324,4.664s-2.078,1.77-3.586,1.77c-1.539,0-2.75-.488-3.633-1.465v6.105h-2.168v-17.555h1.98l.105,1.406c.883-1.094,2.109-1.641,3.68-1.641,1.523,0,2.729.574,3.615,1.723s1.33,2.746,1.33,4.793v.199Zm-2.168-.246c0-1.43-.305-2.559-.914-3.387s-1.445-1.242-2.508-1.242c-1.312,0-2.297.582-2.953,1.746v6.059c.648,1.156,1.641,1.734,2.977,1.734,1.039,0,1.865-.412,2.479-1.236s.92-2.049.92-3.674Z"/>
      <path d="m345.966,466.576c0-1.242.244-2.359.732-3.352s1.168-1.758,2.039-2.297,1.865-.809,2.982-.809c1.727,0,3.123.598,4.189,1.793s1.6,2.785,1.6,4.77v.152c0,1.234-.236,2.342-.709,3.322s-1.148,1.744-2.027,2.291-1.889.82-3.029.82c-1.719,0-3.111-.598-4.178-1.793s-1.6-2.777-1.6-4.746v-.152Zm2.18.258c0,1.406.326,2.535.979,3.387s1.525,1.277,2.619,1.277c1.102,0,1.977-.432,2.625-1.295s.973-2.072.973-3.627c0-1.391-.33-2.518-.99-3.381s-1.537-1.295-2.631-1.295c-1.07,0-1.934.426-2.59,1.277s-.984,2.07-.984,3.656Z"/>
      <path d="m366.357,462.299c-.328-.055-.684-.082-1.066-.082-1.422,0-2.387.605-2.895,1.816v9h-2.168v-12.68h2.109l.035,1.465c.711-1.133,1.719-1.699,3.023-1.699.422,0,.742.055.961.164v2.016Z"/>
      <path d="m371.876,457.283v3.07h2.367v1.676h-2.367v7.873c0,.509.105.89.316,1.145.211.254.57.381,1.078.381.25,0,.594-.047,1.031-.141v1.748c-.57.154-1.125.232-1.664.232-.969,0-1.699-.293-2.191-.879s-.738-1.418-.738-2.496v-7.863h-2.309v-1.676h2.309v-3.07h2.168Z"/>
      <path d="m376.786,456.99c0-.352.107-.648.322-.891s.533-.363.955-.363.742.121.961.363.328.539.328.891-.109.645-.328.879-.539.352-.961.352-.74-.117-.955-.352-.322-.527-.322-.879Zm2.344,16.043h-2.168v-12.68h2.168v12.68Z"/>
      <path d="m384.65,460.353l.07,1.594c.969-1.219,2.234-1.828,3.797-1.828,2.68,0,4.031,1.512,4.055,4.535v8.379h-2.168v-8.391c-.008-.914-.217-1.59-.627-2.027s-1.049-.656-1.916-.656c-.703,0-1.32.188-1.852.562s-.945.867-1.242,1.477v9.035h-2.168v-12.68h2.051Z"/>
      <path d="m395.325,466.588c0-1.977.457-3.549,1.371-4.717s2.125-1.752,3.633-1.752c1.547,0,2.754.547,3.621,1.641l.105-1.406h1.98v12.375c0,1.641-.486,2.934-1.459,3.879s-2.279,1.418-3.92,1.418c-.914,0-1.809-.195-2.684-.586s-1.543-.926-2.004-1.605l1.125-1.301c.93,1.148,2.066,1.723,3.41,1.723,1.055,0,1.877-.297,2.467-.891s.885-1.43.885-2.508v-1.09c-.867,1-2.051,1.5-3.551,1.5-1.484,0-2.686-.598-3.604-1.793s-1.377-2.824-1.377-4.887Zm2.18.246c0,1.43.293,2.553.879,3.369s1.406,1.225,2.461,1.225c1.367,0,2.371-.621,3.012-1.863v-5.789c-.664-1.211-1.66-1.816-2.988-1.816-1.055,0-1.879.41-2.473,1.23s-.891,2.035-.891,3.645Z"/>
      <path d="m418.189,457.283v3.07h2.367v1.676h-2.367v7.873c0,.509.105.89.316,1.145.211.254.57.381,1.078.381.25,0,.594-.047,1.031-.141v1.748c-.57.154-1.125.232-1.664.232-.969,0-1.699-.293-2.191-.879s-.738-1.418-.738-2.496v-7.863h-2.309v-1.676h2.309v-3.07h2.168Z"/>
      <path d="m425.255,461.888c.961-1.18,2.211-1.77,3.75-1.77,2.68,0,4.031,1.512,4.055,4.535v8.379h-2.168v-8.391c-.008-.914-.217-1.59-.627-2.027s-1.049-.656-1.916-.656c-.703,0-1.32.188-1.852.562s-.945.867-1.242,1.477v9.035h-2.168v-18h2.168v6.855Z"/>
      <path d="m441.568,473.267c-1.719,0-3.117-.564-4.195-1.693s-1.617-2.639-1.617-4.529v-.398c0-1.258.24-2.381.721-3.369s1.152-1.762,2.016-2.32,1.799-.838,2.807-.838c1.648,0,2.93.543,3.844,1.629s1.371,2.641,1.371,4.664v.902h-8.59c.031,1.25.396,2.26,1.096,3.029s1.588,1.154,2.666,1.154c.766,0,1.414-.156,1.945-.469s.996-.727,1.395-1.242l1.324,1.031c-1.062,1.633-2.656,2.449-4.781,2.449Zm-.27-11.367c-.875,0-1.609.318-2.203.955s-.961,1.529-1.102,2.678h6.352v-.164c-.062-1.102-.359-1.955-.891-2.561s-1.25-.908-2.156-.908Z"/>
      <path d="m456.029,473.033v-11.004h-2.004v-1.676h2.004v-1.301c0-1.359.363-2.41,1.09-3.152s1.754-1.113,3.082-1.113c.5,0,.996.066,1.488.198l-.117,1.747c-.367-.07-.758-.105-1.172-.105-.703,0-1.246.206-1.629.617s-.574,1.001-.574,1.77v1.34h2.707v1.676h-2.707v11.004h-2.168Z"/>
      <path d="m469.423,462.299c-.328-.055-.684-.082-1.066-.082-1.422,0-2.387.605-2.895,1.816v9h-2.168v-12.68h2.109l.035,1.465c.711-1.133,1.719-1.699,3.023-1.699.422,0,.742.055.961.164v2.016Z"/>
      <path d="m471.427,456.99c0-.352.107-.648.322-.891s.533-.363.955-.363.742.121.961.363.328.539.328.891-.109.645-.328.879-.539.352-.961.352-.74-.117-.955-.352-.322-.527-.322-.879Zm2.344,16.043h-2.168v-12.68h2.168v12.68Z"/>
      <path d="m476.712,466.588c0-1.945.461-3.51,1.383-4.693s2.129-1.775,3.621-1.775c1.484,0,2.66.508,3.527,1.523v-6.609h2.168v18h-1.992l-.105-1.359c-.867,1.062-2.074,1.594-3.621,1.594-1.469,0-2.666-.602-3.592-1.805s-1.389-2.773-1.389-4.711v-.164Zm2.168.246c0,1.438.297,2.562.891,3.375s1.414,1.219,2.461,1.219c1.375,0,2.379-.617,3.012-1.852v-5.824c-.648-1.195-1.645-1.793-2.988-1.793-1.062,0-1.891.41-2.484,1.23s-.891,2.035-.891,3.645Z"/>
      <path d="m490.259,466.588c0-1.977.457-3.549,1.371-4.717s2.125-1.752,3.633-1.752c1.547,0,2.754.547,3.621,1.641l.105-1.406h1.98v12.375c0,1.641-.486,2.934-1.459,3.879s-2.279,1.418-3.92,1.418c-.914,0-1.809-.195-2.684-.586s-1.543-.926-2.004-1.605l1.125-1.301c.93,1.148,2.066,1.723,3.41,1.723,1.055,0,1.877-.297,2.467-.891s.885-1.43.885-2.508v-1.09c-.867,1-2.051,1.5-3.551,1.5-1.484,0-2.686-.598-3.604-1.793s-1.377-2.824-1.377-4.887Zm2.18.246c0,1.43.293,2.553.879,3.369s1.406,1.225,2.461,1.225c1.367,0,2.371-.621,3.012-1.863v-5.789c-.664-1.211-1.66-1.816-2.988-1.816-1.055,0-1.879.41-2.473,1.23s-.891,2.035-.891,3.645Z"/>
      <path d="m509.501,473.267c-1.719,0-3.117-.564-4.195-1.693s-1.617-2.639-1.617-4.529v-.398c0-1.258.24-2.381.721-3.369s1.152-1.762,2.016-2.32,1.799-.838,2.807-.838c1.648,0,2.93.543,3.844,1.629s1.371,2.641,1.371,4.664v.902h-8.59c.031,1.25.396,2.26,1.096,3.029s1.588,1.154,2.666,1.154c.766,0,1.414-.156,1.945-.469s.996-.727,1.395-1.242l1.324,1.031c-1.062,1.633-2.656,2.449-4.781,2.449Zm-.27-11.367c-.875,0-1.609.318-2.203.955s-.961,1.529-1.102,2.678h6.352v-.164c-.062-1.102-.359-1.955-.891-2.561s-1.25-.908-2.156-.908Z"/>
    </g>
    <g>
      <path d="m431.386,436.604h-9.785v-1.77h9.785v1.77Z"/>
      <path d="m441.991,444.233v-11.004h-2.004v-1.676h2.004v-1.301c0-1.359.363-2.41,1.09-3.152s1.754-1.113,3.082-1.113c.5,0,.996.065,1.488.197l-.117,1.748c-.367-.07-.758-.105-1.172-.105-.703,0-1.246.206-1.629.617s-.574,1.001-.574,1.769v1.341h2.707v1.676h-2.707v11.004h-2.168Z"/>
      <path d="m448.683,437.776c0-1.242.244-2.359.732-3.352s1.168-1.758,2.039-2.297,1.865-.809,2.982-.809c1.727,0,3.123.598,4.189,1.793s1.6,2.785,1.6,4.77v.152c0,1.234-.236,2.342-.709,3.322s-1.148,1.744-2.027,2.291-1.889.82-3.029.82c-1.719,0-3.111-.598-4.178-1.793s-1.6-2.777-1.6-4.746v-.152Zm2.18.258c0,1.406.326,2.535.979,3.387s1.525,1.277,2.619,1.277c1.102,0,1.977-.432,2.625-1.295s.973-2.072.973-3.627c0-1.391-.33-2.518-.99-3.381s-1.537-1.295-2.631-1.295c-1.07,0-1.934.426-2.59,1.277s-.984,2.07-.984,3.656Z"/>
      <path d="m469.073,433.499c-.328-.055-.684-.082-1.066-.082-1.422,0-2.387.605-2.895,1.816v9h-2.168v-12.68h2.109l.035,1.465c.711-1.133,1.719-1.699,3.023-1.699.422,0,.742.055.961.164v2.016Z"/>
      <path d="m475.929,442.698c.773,0,1.449-.234,2.027-.703s.898-1.055.961-1.758h2.051c-.039.727-.289,1.418-.75,2.074s-1.076,1.18-1.846,1.57-1.584.586-2.443.586c-1.727,0-3.1-.576-4.119-1.729s-1.529-2.729-1.529-4.729v-.363c0-1.234.227-2.332.68-3.293s1.104-1.707,1.951-2.238,1.85-.797,3.006-.797c1.422,0,2.604.426,3.545,1.277s1.443,1.957,1.506,3.316h-2.051c-.062-.82-.373-1.494-.932-2.021s-1.248-.791-2.068-.791c-1.102,0-1.955.396-2.561,1.189s-.908,1.939-.908,3.439v.41c0,1.461.301,2.586.902,3.375s1.461,1.184,2.578,1.184Z"/>
      <path d="m488.667,444.467c-1.719,0-3.117-.564-4.195-1.693s-1.617-2.639-1.617-4.529v-.398c0-1.258.24-2.381.721-3.369s1.152-1.762,2.016-2.32,1.799-.838,2.807-.838c1.648,0,2.93.543,3.844,1.629s1.371,2.641,1.371,4.664v.902h-8.59c.031,1.25.396,2.26,1.096,3.029s1.588,1.154,2.666,1.154c.766,0,1.414-.156,1.945-.469s.996-.727,1.395-1.242l1.324,1.031c-1.062,1.633-2.656,2.449-4.781,2.449Zm-.27-11.367c-.875,0-1.609.318-2.203.955s-.961,1.529-1.102,2.678h6.352v-.164c-.062-1.102-.359-1.955-.891-2.561s-1.25-.908-2.156-.908Z"/>
      <path d="m501.488,437.776c0-1.242.244-2.359.732-3.352s1.168-1.758,2.039-2.297,1.865-.809,2.982-.809c1.727,0,3.123.598,4.189,1.793s1.6,2.785,1.6,4.77v.152c0,1.234-.236,2.342-.709,3.322s-1.148,1.744-2.027,2.291-1.889.82-3.029.82c-1.719,0-3.111-.598-4.178-1.793s-1.6-2.777-1.6-4.746v-.152Zm2.18.258c0,1.406.326,2.535.979,3.387s1.525,1.277,2.619,1.277c1.102,0,1.977-.432,2.625-1.295s.973-2.072.973-3.627c0-1.391-.33-2.518-.99-3.381s-1.537-1.295-2.631-1.295c-1.07,0-1.934.426-2.59,1.277s-.984,2.07-.984,3.656Z"/>
      <path d="m516.816,444.233v-11.004h-2.004v-1.676h2.004v-1.301c0-1.359.363-2.41,1.09-3.152s1.754-1.113,3.082-1.113c.5,0,.996.065,1.488.197l-.117,1.748c-.367-.07-.758-.105-1.172-.105-.703,0-1.246.206-1.629.617s-.574,1.001-.574,1.769v1.341h2.707v1.676h-2.707v11.004h-2.168Z"/>
      <path d="m532.964,428.483v3.07h2.367v1.676h-2.367v7.873c0,.509.105.89.316,1.144.211.255.57.382,1.078.382.25,0,.594-.047,1.031-.141v1.747c-.57.155-1.125.233-1.664.233-.969,0-1.699-.293-2.191-.879s-.738-1.418-.738-2.496v-7.863h-2.309v-1.676h2.309v-3.07h2.168Z"/>
      <path d="m540.03,433.089c.961-1.18,2.211-1.77,3.75-1.77,2.68,0,4.031,1.512,4.055,4.535v8.379h-2.168v-8.391c-.008-.914-.217-1.59-.627-2.027s-1.049-.656-1.916-.656c-.703,0-1.32.188-1.852.562s-.945.867-1.242,1.477v9.035h-2.168v-18h2.168v6.855Z"/>
      <path d="m556.343,444.467c-1.719,0-3.117-.564-4.195-1.693s-1.617-2.639-1.617-4.529v-.398c0-1.258.24-2.381.721-3.369s1.152-1.762,2.016-2.32,1.799-.838,2.807-.838c1.648,0,2.93.543,3.844,1.629s1.371,2.641,1.371,4.664v.902h-8.59c.031,1.25.396,2.26,1.096,3.029s1.588,1.154,2.666,1.154c.766,0,1.414-.156,1.945-.469s.996-.727,1.395-1.242l1.324,1.031c-1.062,1.633-2.656,2.449-4.781,2.449Zm-.27-11.367c-.875,0-1.609.318-2.203.955s-.961,1.529-1.102,2.678h6.352v-.164c-.062-1.102-.359-1.955-.891-2.561s-1.25-.908-2.156-.908Z"/>
    </g>
    <g>
      <path d="m395.52,553.141h-7.775l.162-.81c.63,0,1.129-.055,1.498-.162.369-.108.666-.328.892-.662.225-.333.4-.832.526-1.498l2.402-11.557c.126-.629.162-1.102.108-1.417-.054-.314-.252-.53-.594-.648-.343-.116-.883-.175-1.62-.175l.162-.811h13.932l-.729,4.401h-.811c.018-.864-.031-1.539-.148-2.025-.117-.485-.428-.827-.932-1.025s-1.341-.297-2.511-.297h-4.05l-2.809,13.823c-.036.181-.062.347-.081.5-.018.153-.026.293-.026.418,0,.469.216.774.647.918.433.145,1.062.217,1.891.217l-.136.81Zm4.995-6.048h-.891c.144-.773.18-1.341.108-1.701-.072-.359-.302-.599-.688-.716-.388-.116-.968-.175-1.742-.175h-3.186l.188-1.026h3.268c.773,0,1.372-.071,1.795-.216.423-.144.747-.409.973-.797.225-.387.409-.94.553-1.66h.864l-1.242,6.291Z"/>
      <path d="m408.763,562.305c-.756,0-1.388-.104-1.896-.314-.51-.21-.913-.496-1.213-.858-.299-.361-.514-.773-.645-1.235-.132-.462-.197-.944-.197-1.448,0-1.133.176-2.13.527-2.99s.824-1.577,1.417-2.149c.593-.571,1.262-1.002,2.007-1.29.745-.289,1.511-.434,2.298-.434.557,0,.989.048,1.299.142.31.095.548.192.716.292s.32.149.457.149c.115,0,.221-.053.314-.157.095-.105.205-.241.331-.409h.44l-.724,3.604h-.52c.031-1.05-.168-1.803-.599-2.259-.431-.457-1.049-.685-1.857-.685-.598,0-1.17.131-1.716.393-.546.263-1.025.646-1.44,1.149-.414.504-.745,1.115-.991,1.834-.247.719-.37,1.529-.37,2.432,0,1.165.218,2.047.653,2.645.436.599,1.131.897,2.086.897.482,0,.907-.073,1.274-.221.367-.146.725-.335,1.07-.566l.331-1.716c.084-.378.112-.663.087-.857-.026-.194-.129-.325-.308-.394s-.467-.103-.865-.103l.094-.488h3.778l-.079.488c-.294,0-.524.031-.692.095-.168.062-.294.181-.378.354-.084.174-.157.423-.22.748l-.473,2.282c-.64.325-1.257.585-1.85.779s-1.309.291-2.148.291Z"/>
    </g>
    <g>
      <path d="m251.349,550.663c-.578.828-1.385,1.447-2.42,1.857s-2.24.615-3.615.615c-1.391,0-2.625-.326-3.703-.979s-1.912-1.58-2.502-2.783-.893-2.598-.908-4.184v-1.488c0-2.57.6-4.562,1.799-5.977s2.885-2.121,5.057-2.121c1.781,0,3.215.455,4.301,1.365s1.75,2.201,1.992,3.873h-2.25c-.422-2.266-1.766-3.398-4.031-3.398-1.508,0-2.65.529-3.428,1.589s-1.17,2.595-1.178,4.604v1.396c0,1.916.438,3.438,1.312,4.568s2.059,1.695,3.551,1.695c.844,0,1.582-.094,2.215-.28.633-.188,1.156-.503,1.57-.947v-3.823h-3.949v-1.84h6.188v6.258Z"/>
      <path d="m260.888,542.167c-.328-.055-.684-.082-1.066-.082-1.422,0-2.387.605-2.895,1.816v9h-2.168v-12.68h2.109l.035,1.465c.711-1.133,1.719-1.699,3.023-1.699.422,0,.742.055.961.164v2.016Z"/>
      <path d="m270.239,552.901c-.125-.25-.227-.695-.305-1.336-1.008,1.047-2.211,1.57-3.609,1.57-1.25,0-2.275-.354-3.076-1.061s-1.201-1.604-1.201-2.689c0-1.32.502-2.346,1.506-3.076s2.416-1.096,4.236-1.096h2.109v-.996c0-.758-.227-1.361-.68-1.811s-1.121-.674-2.004-.674c-.773,0-1.422.195-1.945.586s-.785.863-.785,1.418h-2.18c0-.633.225-1.244.674-1.834s1.059-1.057,1.828-1.4,1.615-.516,2.537-.516c1.461,0,2.605.365,3.434,1.096s1.258,1.736,1.289,3.018v5.836c0,1.164.148,2.09.445,2.777v.188h-2.273Zm-3.598-1.652c.68,0,1.324-.176,1.934-.527s1.051-.809,1.324-1.371v-2.602h-1.699c-2.656,0-3.984.777-3.984,2.332,0,.68.227,1.211.68,1.594s1.035.574,1.746.574Z"/>
      <path d="m279.474,549.96l3.141-9.738h2.215l-4.547,12.68h-1.652l-4.594-12.68h2.215l3.223,9.738Z"/>
      <path d="m286.927,536.858c0-.352.107-.648.322-.891s.533-.363.955-.363.742.121.961.363.328.539.328.891-.109.645-.328.879-.539.352-.961.352-.74-.117-.955-.352-.322-.527-.322-.879Zm2.344,16.043h-2.168v-12.68h2.168v12.68Z"/>
      <path d="m295.681,537.151v3.07h2.367v1.676h-2.367v7.873c0,.509.105.89.316,1.144.211.255.57.382,1.078.382.25,0,.594-.047,1.031-.141v1.747c-.57.155-1.125.233-1.664.233-.969,0-1.699-.293-2.191-.879s-.738-1.418-.738-2.496v-7.863h-2.309v-1.676h2.309v-3.07h2.168Z"/>
      <path d="m304.728,549.725l2.953-9.504h2.32l-5.098,14.637c-.789,2.109-2.043,3.164-3.762,3.164l-.41-.035-.809-.152v-1.758l.586.047c.734,0,1.307-.148,1.717-.445s.748-.84,1.014-1.629l.48-1.289-4.523-12.539h2.367l3.164,9.504Z"/>
      <path d="m318.943,552.901v-11.004h-2.004v-1.676h2.004v-1.301c0-1.359.363-2.41,1.09-3.152s1.754-1.113,3.082-1.113c.5,0,.996.065,1.488.197l-.117,1.748c-.367-.07-.758-.105-1.172-.105-.703,0-1.246.206-1.629.617s-.574,1.001-.574,1.769v1.341h2.707v1.676h-2.707v11.004h-2.168Z"/>
      <path d="m325.634,546.444c0-1.242.244-2.359.732-3.352s1.168-1.758,2.039-2.297,1.865-.809,2.982-.809c1.727,0,3.123.598,4.189,1.793s1.6,2.785,1.6,4.77v.152c0,1.234-.236,2.342-.709,3.322s-1.148,1.744-2.027,2.291-1.889.82-3.029.82c-1.719,0-3.111-.598-4.178-1.793s-1.6-2.777-1.6-4.746v-.152Zm2.18.258c0,1.406.326,2.535.979,3.387s1.525,1.277,2.619,1.277c1.102,0,1.977-.432,2.625-1.295s.973-2.072.973-3.627c0-1.391-.33-2.518-.99-3.381s-1.537-1.295-2.631-1.295c-1.07,0-1.934.426-2.59,1.277s-.984,2.07-.984,3.656Z"/>
      <path d="m346.025,542.167c-.328-.055-.684-.082-1.066-.082-1.422,0-2.387.605-2.895,1.816v9h-2.168v-12.68h2.109l.035,1.465c.711-1.133,1.719-1.699,3.023-1.699.422,0,.742.055.961.164v2.016Z"/>
      <path d="m352.88,551.366c.773,0,1.449-.234,2.027-.703s.898-1.055.961-1.758h2.051c-.039.727-.289,1.418-.75,2.074s-1.076,1.18-1.846,1.57-1.584.586-2.443.586c-1.727,0-3.1-.576-4.119-1.729s-1.529-2.729-1.529-4.729v-.363c0-1.234.227-2.332.68-3.293s1.104-1.707,1.951-2.238,1.85-.797,3.006-.797c1.422,0,2.604.426,3.545,1.277s1.443,1.957,1.506,3.316h-2.051c-.062-.82-.373-1.494-.932-2.021s-1.248-.791-2.068-.791c-1.102,0-1.955.396-2.561,1.189s-.908,1.939-.908,3.439v.41c0,1.461.301,2.586.902,3.375s1.461,1.184,2.578,1.184Z"/>
      <path d="m365.618,553.135c-1.719,0-3.117-.564-4.195-1.693s-1.617-2.639-1.617-4.529v-.398c0-1.258.24-2.381.721-3.369s1.152-1.762,2.016-2.32,1.799-.838,2.807-.838c1.648,0,2.93.543,3.844,1.629s1.371,2.641,1.371,4.664v.902h-8.59c.031,1.25.396,2.26,1.096,3.029s1.588,1.154,2.666,1.154c.766,0,1.414-.156,1.945-.469s.996-.727,1.395-1.242l1.324,1.031c-1.062,1.633-2.656,2.449-4.781,2.449Zm-.27-11.367c-.875,0-1.609.318-2.203.955s-.961,1.529-1.102,2.678h6.352v-.164c-.062-1.102-.359-1.955-.891-2.561s-1.25-.908-2.156-.908Z"/>
    </g>
  </g>
</svg>