<?xml version="1.0" encoding="UTF-8"?><svg id="k" xmlns="http://www.w3.org/2000/svg" width="1140" height="515" viewBox="0 0 1140 515"><path d="m393.18,33.57c41.69-1.48,83.68-1.15,124.91-3.71,108.43-6.72,213.25-33.64,322.41-20.04,142.48,17.76,221.64,136.36,224.63,241.21,8.06,283.22-547.42,306.45-780.37,220.04-86.45-32.07-168.71-78.98-196.84-154C52.43,222.41,114.18,103.04,233.03,59.4c51.23-18.81,105.43-23.88,160.15-25.83Z" fill="#ffe9ab"/><circle cx="298.21" cy="257.59" r="19.48"/><line x1="298.61" y1="256.82" x2="298.61" y2="106.98" fill="none" stroke="#000" stroke-miterlimit="10" stroke-width="2"/><polygon points="306.58 109.32 298.61 95.5 290.63 109.32 306.58 109.32"/><path d="m502.55,255.54c0-1.55.3-2.95.92-4.19.61-1.24,1.46-2.2,2.55-2.87,1.09-.67,2.33-1.01,3.73-1.01,2.16,0,3.9.75,5.24,2.24,1.33,1.49,2,3.48,2,5.96v.19c0,1.54-.3,2.93-.89,4.15-.59,1.23-1.44,2.18-2.54,2.86-1.1.68-2.36,1.03-3.79,1.03-2.15,0-3.89-.75-5.22-2.24-1.33-1.49-2-3.47-2-5.93v-.19Zm2.72.32c0,1.76.41,3.17,1.22,4.23.82,1.06,1.91,1.6,3.27,1.6s2.47-.54,3.28-1.62,1.22-2.59,1.22-4.53c0-1.74-.41-3.15-1.24-4.23-.82-1.08-1.92-1.62-3.29-1.62s-2.42.53-3.24,1.6-1.23,2.59-1.23,4.57Z"/><path d="m528.04,250.2c-.41-.07-.85-.1-1.33-.1-1.78,0-2.98.76-3.62,2.27v11.25h-2.71v-15.85h2.64l.04,1.83c.89-1.42,2.15-2.12,3.78-2.12.53,0,.93.07,1.2.21v2.52Z"/><line x1="298.61" y1="256.82" x2="298.61" y2="106.98" fill="none" stroke="#000" stroke-miterlimit="10" stroke-width="2"/><polygon points="306.58 109.32 298.61 95.5 290.63 109.32 306.58 109.32"/><line x1="298.61" y1="256.82" x2="298.61" y2="406.66" fill="none" stroke="#000" stroke-miterlimit="10" stroke-width="2"/><polygon points="290.63 404.32 298.61 418.14 306.58 404.32 290.63 404.32"/><line x1="772.61" y1="173.82" x2="772.61" y2="61.98" fill="none" stroke="#000" stroke-miterlimit="10" stroke-width="2"/><polygon points="780.58 64.32 772.61 50.5 764.63 64.32 780.58 64.32"/><line x1="772.61" y1="320.18" x2="772.61" y2="432.02" fill="none" stroke="#000" stroke-miterlimit="10" stroke-width="2"/><polygon points="764.63 429.68 772.61 443.5 780.58 429.68 764.63 429.68"/><path d="m832.89,174.74v144.51h-120.89v-144.51h120.89m2-2h-124.89v148.51h124.89v-148.51h0Z"/><path d="m347.47,98.34c.03-2.56-.08-3.35-3.59-3.35h-4.05l-1.46,7.02h3c2.29,0,2.86-.51,3.32-2.67h.86l-1.24,6.29h-.89c.43-2.29,0-2.59-2.32-2.59h-2.92l-1.16,5.78c-.08.35-.11.67-.11.92,0,.94.86,1.13,2.54,1.13l-.14.81h-7.77l.16-.81c1.86,0,2.51-.32,2.92-2.32l2.4-11.55c.38-1.86.08-2.24-2.11-2.24l.16-.81h13.93l-.73,4.4h-.81Z"/><path d="m352.9,115.57h-.38c-.05-1.21-.57-1.98-1.5-1.98-.82,0-1.15.55-1.15,1.01,0,.66.8,1.23,1.5,1.97.68.72,1.24,1.31,1.24,2.31,0,.91-.61,1.95-2.39,1.95-.99,0-1.59-.33-1.81-.42h-.05l-.38.42h-.35l.41-2.63h.39c.16,1.37.57,2.09,1.64,2.09.72,0,1.23-.33,1.23-1.15s-.57-1.4-1.17-1.97c-.64-.61-1.38-1.17-1.38-2.14,0-1.07.71-1.92,2.14-1.92.83,0,1.42.32,1.61.43h.05l.41-.43h.3l-.36,2.46Z"/><path d="m358.3,113.92h-1.59l-.93,4.69s-.11.52-.11.79c0,.17.05.33.27.33.46,0,.79-.24,1.34-.95l.32.24c-.46.61-1.12,1.78-2.36,1.78-.66,0-.96-.35-.96-.83,0-.27.08-.74.11-.9l1.07-5.15h-.9l.06-.33c1.01-.52,1.4-.9,2.19-2.27h.47l-.44,1.98h1.59l-.13.61Z"/><path d="m361.07,116.58c.5-1.06,1.45-3.46,2.72-3.46.49,0,.87.3.87.91,0,.69-.42.99-.83.99-.5,0-.66-.58-.71-.58-.76,0-2.17,3.39-2.42,4.01l-.47,2.21h-1.34l1.17-5.48c.06-.28.14-.69.14-.98,0-.3-.08-.47-.52-.47-.17,0-.49.03-.49.03v-.42l2.19-.17h.35l-.8,3.42h.16Z"/><path d="m366.4,118.77s-.08.44-.08.66c0,.21.09.3.28.3.54,0,.98-.54,1.23-.82l.31.24c-.55.77-1.17,1.65-2.2,1.65-.63,0-.99-.28-.99-.83,0-.27.06-.61.27-1.54l.8-3.75s.05-.22.05-.49c0-.21-.08-.46-.5-.46-.27,0-.54.03-.54.03v-.42l2.2-.17h.35l-1.18,5.61Zm.69-6.87c-.47,0-.82-.3-.82-.85s.35-.87.87-.87.82.35.82.87-.39.85-.87.85Z"/><path d="m376.98,119.13c-.41.58-1.04,1.68-2.16,1.68-.79,0-1.04-.46-1.04-.93,0-.25.06-.54.09-.61l.93-3.64s.11-.44.11-.76c0-.36-.11-.63-.46-.63-1.12,0-2.82,2.83-3.31,3.92l-.57,2.49h-1.29l1.28-5.98s.06-.28.06-.52c0-.27-.16-.42-.52-.42-.21,0-.52.03-.52.03v-.42l2.19-.17h.35l-.79,3.42h.13c.65-1.18,1.97-3.46,3.78-3.46.77,0,1.01.55,1.01,1.12,0,.52-.09.94-.14,1.17l-.88,3.64s-.05.19-.05.38c0,.17.09.3.3.3.55,0,.93-.52,1.17-.82l.33.24Z"/><path d="m384.52,114.11l-1.37-.16v.05c.25.3.57.91.57,1.64,0,1.35-1.12,2.49-3.16,2.57-.69.03-1.01.46-1.01.83,0,.95,4.11.46,4.11,2.79,0,1.37-1.18,2.38-3.46,2.38s-3.23-.79-3.23-1.97c0-.94.94-1.51,1.89-1.79v-.06c-.28-.17-.55-.47-.55-.93,0-.69.58-1.15,1.21-1.4v-.09c-.65-.28-1.37-.83-1.37-2.12,0-1.58,1.28-2.71,2.99-2.71.66,0,1.04.08,1.37.19h2.11l-.09.8Zm-5.31,6.5c-.5.3-1.02.68-1.02,1.51s.66,1.53,2.11,1.53c1.53,0,2.22-.47,2.22-1.23,0-1.15-2.16-1.57-3.31-1.81Zm1.89-7.02c-.91,0-1.56.82-1.56,2.11s.3,2.02,1.18,2.02c1.09,0,1.59-.99,1.59-2.32,0-1.01-.39-1.81-1.21-1.81Z"/><path d="m347.47,410.33c.03-2.56-.08-3.35-3.59-3.35h-4.05l-1.46,7.02h3c2.29,0,2.86-.51,3.32-2.67h.86l-1.24,6.29h-.89c.43-2.29,0-2.59-2.32-2.59h-2.92l-1.16,5.78c-.08.35-.11.67-.11.92,0,.94.86,1.13,2.54,1.13l-.14.81h-7.77l.16-.81c1.86,0,2.51-.32,2.92-2.32l2.4-11.55c.38-1.86.08-2.24-2.11-2.24l.16-.81h13.93l-.73,4.4h-.81Z"/><path d="m354.76,426.11l-1.37-.16v.05c.25.3.57.91.57,1.64,0,1.35-1.12,2.49-3.16,2.57-.69.03-1.01.46-1.01.83,0,.95,4.11.46,4.11,2.79,0,1.37-1.18,2.38-3.46,2.38s-3.23-.79-3.23-1.97c0-.94.94-1.51,1.89-1.79v-.06c-.28-.17-.55-.47-.55-.93,0-.69.58-1.15,1.21-1.4v-.09c-.65-.28-1.37-.83-1.37-2.12,0-1.58,1.28-2.71,2.99-2.71.66,0,1.04.08,1.37.19h2.11l-.09.8Zm-5.31,6.5c-.5.3-1.02.68-1.02,1.51s.66,1.53,2.11,1.53c1.53,0,2.22-.47,2.22-1.23,0-1.15-2.16-1.57-3.31-1.81Zm1.89-7.02c-.91,0-1.56.82-1.56,2.11s.3,2.02,1.18,2.02c1.09,0,1.59-.99,1.59-2.32,0-1.01-.39-1.81-1.21-1.81Z"/><path d="m357.7,428.58c.5-1.06,1.45-3.46,2.72-3.46.49,0,.87.3.87.91,0,.69-.43.99-.83.99-.5,0-.66-.58-.71-.58-.76,0-2.17,3.39-2.43,4.01l-.47,2.21h-1.34l1.17-5.48c.06-.28.14-.69.14-.98,0-.3-.08-.47-.52-.47-.17,0-.49.03-.49.03v-.42l2.19-.17h.35l-.8,3.42h.16Z"/><path d="m366.88,430.8s-.08.35-.08.58c0,.21.06.33.3.33.5,0,.95-.55,1.15-.82l.32.24c-.62.93-1.26,1.68-2.24,1.68-.55,0-.85-.24-.85-.74,0-.24.06-.5.09-.76h-.09c-.79,1.01-1.59,1.53-2.46,1.53-1.07,0-1.92-.79-1.92-2.65,0-2.8,1.94-5.09,3.95-5.09.8,0,1.24.36,1.57.83h.06l.55-.72h.8l-1.17,5.57Zm-1.92-5.09c-1.45,0-2.47,2.16-2.47,4.28,0,1.4.44,1.81,1.1,1.81.96,0,1.91-.85,2.19-1.98.16-.63.49-2.06.49-2.66,0-.71-.46-1.45-1.31-1.45Z"/><path d="m371.47,425.15c.24,2.02.39,4.21.46,6.17l-.03.55h.03c1.48-1.2,2.72-2.87,2.72-4.31,0-.96-.79-1.01-.79-1.75,0-.47.33-.69.71-.69.79,0,1.01.87,1.01,1.48,0,2.63-1.92,4.87-4.05,6.19h-.77c-.1-2.38-.24-3.97-.5-6.02-.08-.74-.21-.93-.72-.93-.16,0-.3.02-.5.05v-.49l2.06-.25h.38Z"/><path d="m378.04,430.77s-.08.44-.08.66c0,.21.09.3.28.3.54,0,.98-.54,1.23-.82l.31.24c-.55.77-1.17,1.65-2.2,1.65-.63,0-.99-.28-.99-.83,0-.27.06-.61.27-1.54l.8-3.75s.05-.22.05-.49c0-.21-.08-.46-.5-.46-.27,0-.54.03-.54.03v-.42l2.2-.17h.35l-1.18,5.61Zm.69-6.87c-.47,0-.82-.3-.82-.85s.35-.87.87-.87.82.35.82.87-.39.85-.87.85Z"/><path d="m385.04,425.92h-1.59l-.93,4.69s-.11.52-.11.79c0,.17.05.33.27.33.46,0,.79-.24,1.34-.95l.31.24c-.46.61-1.12,1.78-2.36,1.78-.66,0-.96-.35-.96-.83,0-.27.08-.74.11-.9l1.07-5.15h-.9l.06-.33c1.01-.52,1.4-.9,2.19-2.27h.47l-.44,1.98h1.59l-.13.61Z"/><path d="m388.32,429.84l.14,1.57h.09l1.81-2.91c.38-.61.52-1.04.52-1.29,0-.58-.77-.9-.77-1.51,0-.35.24-.63.68-.63.54,0,1.01.39,1.01,1.28,0,.57-.19,1.2-.68,2.09-.79,1.46-2.42,3.76-2.58,3.98-1.7,2.42-2.6,3.7-3.65,3.7-.63,0-1.23-.43-1.23-1.07,0-.44.27-.68.61-.68.65,0,.88.85,1.13.85.35,0,1.61-1.76,2.05-2.42l-.9-5.54c-.13-.79-.22-1.48-1.15-1.48-.14,0-.28.02-.42.03v-.46l2.11-.17h.24c.35.6.46,1.1.65,2.36l.35,2.3Z"/><path d="m812.47,55.34c.03-2.56-.08-3.35-3.59-3.35h-4.05l-1.46,7.02h3c2.29,0,2.86-.51,3.32-2.67h.86l-1.24,6.29h-.89c.43-2.29,0-2.59-2.32-2.59h-2.92l-1.16,5.78c-.08.35-.11.67-.11.92,0,.94.86,1.13,2.54,1.13l-.14.81h-7.77l.16-.81c1.86,0,2.51-.32,2.92-2.32l2.4-11.55c.38-1.86.08-2.24-2.11-2.24l.16-.81h13.93l-.73,4.4h-.81Z"/><path d="m817.9,72.57h-.38c-.05-1.21-.57-1.98-1.5-1.98-.82,0-1.15.55-1.15,1.01,0,.66.8,1.23,1.5,1.97.68.72,1.24,1.31,1.24,2.31,0,.91-.61,1.95-2.39,1.95-.99,0-1.59-.33-1.81-.42h-.05l-.38.42h-.35l.41-2.63h.39c.16,1.37.57,2.09,1.64,2.09.72,0,1.23-.33,1.23-1.15s-.57-1.4-1.17-1.97c-.64-.61-1.38-1.17-1.38-2.14,0-1.07.71-1.92,2.14-1.92.83,0,1.42.32,1.61.43h.05l.41-.43h.3l-.36,2.46Z"/><path d="m823.3,70.92h-1.59l-.93,4.69s-.11.52-.11.79c0,.17.05.33.27.33.46,0,.79-.24,1.34-.95l.32.24c-.46.61-1.12,1.78-2.36,1.78-.66,0-.96-.35-.96-.83,0-.27.08-.74.11-.9l1.07-5.15h-.9l.06-.33c1.01-.52,1.4-.9,2.19-2.27h.47l-.44,1.98h1.59l-.13.61Z"/><path d="m826.07,73.58c.5-1.06,1.45-3.46,2.72-3.46.49,0,.87.3.87.91,0,.69-.42.99-.83.99-.5,0-.66-.58-.71-.58-.76,0-2.17,3.39-2.42,4.01l-.47,2.21h-1.34l1.17-5.48c.06-.28.14-.69.14-.98,0-.3-.08-.47-.52-.47-.17,0-.49.03-.49.03v-.42l2.19-.17h.35l-.8,3.42h.16Z"/><path d="m831.4,75.77s-.08.44-.08.66c0,.21.09.3.28.3.54,0,.98-.54,1.23-.82l.31.24c-.55.77-1.17,1.65-2.2,1.65-.63,0-.99-.28-.99-.83,0-.27.06-.61.27-1.54l.8-3.75s.05-.22.05-.49c0-.21-.08-.46-.5-.46-.27,0-.54.03-.54.03v-.42l2.2-.17h.35l-1.18,5.61Zm.69-6.87c-.47,0-.82-.3-.82-.85s.35-.87.87-.87.82.35.82.87-.39.85-.87.85Z"/><path d="m841.98,76.13c-.41.58-1.04,1.68-2.16,1.68-.79,0-1.04-.46-1.04-.93,0-.25.06-.54.09-.61l.93-3.64s.11-.44.11-.76c0-.36-.11-.63-.46-.63-1.12,0-2.82,2.83-3.31,3.92l-.57,2.49h-1.29l1.28-5.98s.06-.28.06-.52c0-.27-.16-.42-.52-.42-.21,0-.52.03-.52.03v-.42l2.19-.17h.35l-.79,3.42h.13c.65-1.18,1.97-3.46,3.78-3.46.77,0,1.01.55,1.01,1.12,0,.52-.09.94-.14,1.17l-.88,3.64s-.05.19-.05.38c0,.17.09.3.3.3.55,0,.93-.52,1.17-.82l.33.24Z"/><path d="m849.52,71.11l-1.37-.16v.05c.25.3.57.91.57,1.64,0,1.35-1.12,2.49-3.16,2.57-.69.03-1.01.46-1.01.83,0,.95,4.11.46,4.11,2.79,0,1.37-1.18,2.38-3.46,2.38s-3.23-.79-3.23-1.97c0-.94.94-1.51,1.89-1.79v-.06c-.28-.17-.55-.47-.55-.93,0-.69.58-1.15,1.21-1.4v-.09c-.65-.28-1.37-.83-1.37-2.12,0-1.58,1.28-2.71,2.99-2.71.66,0,1.04.08,1.37.19h2.11l-.09.8Zm-5.31,6.5c-.5.3-1.02.68-1.02,1.51s.66,1.53,2.11,1.53c1.53,0,2.22-.47,2.22-1.23,0-1.15-2.16-1.57-3.31-1.81Zm1.89-7.02c-.91,0-1.56.82-1.56,2.11s.3,2.02,1.18,2.02c1.09,0,1.59-.99,1.59-2.32,0-1.01-.39-1.81-1.21-1.81Z"/><path d="m812.47,430.33c.03-2.56-.08-3.35-3.59-3.35h-4.05l-1.46,7.02h3c2.29,0,2.86-.51,3.32-2.67h.86l-1.24,6.29h-.89c.43-2.29,0-2.59-2.32-2.59h-2.92l-1.16,5.78c-.08.35-.11.67-.11.92,0,.94.86,1.13,2.54,1.13l-.14.81h-7.77l.16-.81c1.86,0,2.51-.32,2.92-2.32l2.4-11.55c.38-1.86.08-2.24-2.11-2.24l.16-.81h13.93l-.73,4.4h-.81Z"/><path d="m819.76,446.11l-1.37-.16v.05c.25.3.57.91.57,1.64,0,1.35-1.12,2.49-3.16,2.57-.69.03-1.01.46-1.01.83,0,.95,4.11.46,4.11,2.79,0,1.37-1.18,2.38-3.46,2.38s-3.23-.79-3.23-1.97c0-.94.94-1.51,1.89-1.79v-.06c-.28-.17-.55-.47-.55-.93,0-.69.58-1.15,1.21-1.4v-.09c-.65-.28-1.37-.83-1.37-2.12,0-1.58,1.28-2.71,2.99-2.71.66,0,1.04.08,1.37.19h2.11l-.09.8Zm-5.31,6.5c-.5.3-1.02.68-1.02,1.51s.66,1.53,2.11,1.53c1.53,0,2.22-.47,2.22-1.23,0-1.15-2.16-1.57-3.31-1.81Zm1.89-7.02c-.91,0-1.56.82-1.56,2.11s.3,2.02,1.18,2.02c1.09,0,1.59-.99,1.59-2.32,0-1.01-.39-1.81-1.21-1.81Z"/><path d="m822.7,448.58c.5-1.06,1.45-3.46,2.72-3.46.49,0,.87.3.87.91,0,.69-.43.99-.83.99-.5,0-.66-.58-.71-.58-.76,0-2.17,3.39-2.43,4.01l-.47,2.21h-1.34l1.17-5.48c.06-.28.14-.69.14-.98,0-.3-.08-.47-.52-.47-.17,0-.49.03-.49.03v-.42l2.19-.17h.35l-.8,3.42h.16Z"/><path d="m831.88,450.8s-.08.35-.08.58c0,.21.06.33.3.33.5,0,.95-.55,1.15-.82l.32.24c-.62.93-1.26,1.68-2.24,1.68-.55,0-.85-.24-.85-.74,0-.24.06-.5.09-.76h-.09c-.79,1.01-1.59,1.53-2.46,1.53-1.07,0-1.92-.79-1.92-2.65,0-2.8,1.94-5.09,3.95-5.09.8,0,1.24.36,1.57.83h.06l.55-.72h.8l-1.17,5.57Zm-1.92-5.09c-1.45,0-2.47,2.16-2.47,4.28,0,1.4.44,1.81,1.1,1.81.96,0,1.91-.85,2.19-1.98.16-.63.49-2.06.49-2.66,0-.71-.46-1.45-1.31-1.45Z"/><path d="m836.47,445.15c.24,2.02.39,4.21.46,6.17l-.03.55h.03c1.48-1.2,2.72-2.87,2.72-4.31,0-.96-.79-1.01-.79-1.75,0-.47.33-.69.71-.69.79,0,1.01.87,1.01,1.48,0,2.63-1.92,4.87-4.05,6.19h-.77c-.1-2.38-.24-3.97-.5-6.02-.08-.74-.21-.93-.72-.93-.16,0-.3.02-.5.05v-.49l2.06-.25h.38Z"/><path d="m843.04,450.77s-.08.44-.08.66c0,.21.09.3.28.3.54,0,.98-.54,1.23-.82l.31.24c-.55.77-1.17,1.65-2.2,1.65-.63,0-.99-.28-.99-.83,0-.27.06-.61.27-1.54l.8-3.75s.05-.22.05-.49c0-.21-.08-.46-.5-.46-.27,0-.54.03-.54.03v-.42l2.2-.17h.35l-1.18,5.61Zm.69-6.87c-.47,0-.82-.3-.82-.85s.35-.87.87-.87.82.35.82.87-.39.85-.87.85Z"/><path d="m850.04,445.92h-1.59l-.93,4.69s-.11.52-.11.79c0,.17.05.33.27.33.46,0,.79-.24,1.34-.95l.31.24c-.46.61-1.12,1.78-2.36,1.78-.66,0-.96-.35-.96-.83,0-.27.08-.74.11-.9l1.07-5.15h-.9l.06-.33c1.01-.52,1.4-.9,2.19-2.27h.47l-.44,1.98h1.59l-.13.61Z"/><path d="m853.32,449.84l.14,1.57h.09l1.81-2.91c.38-.61.52-1.04.52-1.29,0-.58-.77-.9-.77-1.51,0-.35.24-.63.68-.63.54,0,1.01.39,1.01,1.28,0,.57-.19,1.2-.68,2.09-.79,1.46-2.42,3.76-2.58,3.98-1.7,2.42-2.6,3.7-3.65,3.7-.63,0-1.23-.43-1.23-1.07,0-.44.27-.68.61-.68.65,0,.88.85,1.13.85.35,0,1.61-1.76,2.05-2.42l-.9-5.54c-.13-.79-.22-1.48-1.15-1.48-.14,0-.28.02-.42.03v-.46l2.11-.17h.24c.35.6.46,1.1.65,2.36l.35,2.3Z"/></svg>