<?xml version="1.0" encoding="UTF-8"?><svg id="a" xmlns="http://www.w3.org/2000/svg" width="570" height="436" viewBox="0 0 570 436"><rect x="121.69" y="60.336" width="433.404" height="282" fill="#fff"/><line x1="404.915" y1="61.338" x2="404.915" y2="343.337" fill="none" stroke="#b1dded" stroke-miterlimit="10" stroke-width="2"/><line x1="255.915" y1="61.338" x2="255.915" y2="343.337" fill="none" stroke="#b1dded" stroke-miterlimit="10" stroke-width="2"/><line x1="553.915" y1="61.338" x2="553.915" y2="343.337" fill="none" stroke="#b1dded" stroke-miterlimit="10" stroke-width="2"/><line x1="121.929" y1="273.521" x2="554.915" y2="273.521" fill="none" stroke="#b1dded" stroke-miterlimit="10" stroke-width="2"/><line x1="121.929" y1="202.846" x2="554.915" y2="202.846" fill="none" stroke="#b1dded" stroke-miterlimit="10" stroke-width="2"/><line x1="121.929" y1="132.17" x2="554.915" y2="132.17" fill="none" stroke="#b1dded" stroke-miterlimit="10" stroke-width="2"/><line x1="121.957" y1="61.495" x2="554.915" y2="61.495" fill="none" stroke="#b1dded" stroke-miterlimit="10" stroke-width="2"/><path d="m205.466,18.282l4.834-16.04h4.893l-7.427,21.328h-4.585l-7.397-21.328h4.878l4.805,16.04Z"/><path d="m223.571,23.863c-2.324,0-4.217-.713-5.677-2.139s-2.189-3.325-2.189-5.698v-.41c0-1.592.308-3.016.923-4.271s1.487-2.222,2.614-2.9c1.129-.679,2.415-1.018,3.86-1.018,2.168,0,3.874.684,5.12,2.051,1.244,1.367,1.867,3.306,1.867,5.815v1.729h-10.093c.137,1.035.55,1.865,1.237,2.49.689.625,1.561.938,2.615.938,1.631,0,2.905-.591,3.823-1.772l2.08,2.329c-.635.898-1.494,1.599-2.578,2.102s-2.285.755-3.604.755Zm-.483-13.022c-.84,0-1.521.284-2.043.854-.523.568-.857,1.383-1.004,2.442h5.889v-.339c-.02-.941-.273-1.67-.762-2.185-.488-.516-1.182-.772-2.08-.772Z"/><path d="m236.96,23.57h-4.248V1.07h4.248v22.5Z"/><path d="m239.787,15.498c0-1.572.303-2.974.908-4.204s1.477-2.183,2.615-2.856c1.137-.674,2.458-1.011,3.962-1.011,2.139,0,3.884.654,5.237,1.963,1.352,1.309,2.106,3.086,2.263,5.332l.029,1.084c0,2.432-.679,4.382-2.036,5.852s-3.179,2.205-5.464,2.205-4.108-.732-5.472-2.197c-1.361-1.465-2.043-3.457-2.043-5.977v-.19Zm4.233.3c0,1.507.283,2.658.85,3.455.566.798,1.377,1.196,2.432,1.196,1.025,0,1.826-.394,2.402-1.182.576-.787.864-2.046.864-3.777,0-1.477-.288-2.621-.864-3.433s-1.387-1.218-2.432-1.218c-1.035,0-1.836.403-2.402,1.21-.566.808-.85,2.057-.85,3.748Z"/><path d="m264.001,20.449c.781,0,1.416-.215,1.904-.645s.742-1.001.762-1.714h3.97c-.01,1.074-.303,2.058-.879,2.951s-1.365,1.587-2.365,2.08c-1.002.493-2.107.74-3.318.74-2.266,0-4.053-.721-5.361-2.161s-1.963-3.43-1.963-5.969v-.278c0-2.441.649-4.39,1.948-5.845s3.081-2.183,5.347-2.183c1.982,0,3.571.563,4.768,1.691s1.805,2.63,1.824,4.505h-3.97c-.02-.824-.273-1.495-.762-2.011-.488-.515-1.133-.772-1.934-.772-.986,0-1.731.359-2.233,1.078-.504.719-.755,1.885-.755,3.499v.439c0,1.634.249,2.808.747,3.521s1.255,1.071,2.271,1.071Z"/><path d="m273.024,3.618c0-.635.212-1.157.638-1.567.424-.41,1.003-.615,1.735-.615.723,0,1.299.205,1.729.615s.645.933.645,1.567c0,.645-.218,1.172-.651,1.582-.436.41-1.009.615-1.722.615s-1.287-.205-1.722-.615-.651-.938-.651-1.582Zm4.497,19.951h-4.248V7.72h4.248v15.85Z"/><path d="m286.076,3.824v3.896h2.71v3.105h-2.71v7.91c0,.586.112,1.006.337,1.26s.654.381,1.289.381c.469,0,.884-.034,1.245-.103v3.208c-.83.254-1.685.381-2.563.381-2.969,0-4.482-1.499-4.541-4.497v-8.54h-2.314v-3.105h2.314v-3.896h4.233Z"/><path d="m297.062,17.578l2.93-9.858h4.541l-6.372,18.311-.352.835c-.947,2.07-2.51,3.105-4.688,3.105-.615,0-1.24-.093-1.875-.278v-3.208l.645.015c.801,0,1.398-.122,1.795-.366.395-.244.705-.649.93-1.216l.498-1.304-5.552-15.894h4.556l2.944,9.858Z"/><path d="m321.833,18.282l4.834-16.04h4.893l-7.427,21.328h-4.585l-7.397-21.328h4.878l4.805,16.04Z"/><path d="m339.938,23.863c-2.324,0-4.217-.713-5.677-2.139s-2.189-3.325-2.189-5.698v-.41c0-1.592.308-3.016.923-4.271s1.487-2.222,2.614-2.9c1.129-.679,2.415-1.018,3.86-1.018,2.168,0,3.874.684,5.12,2.051,1.244,1.367,1.867,3.306,1.867,5.815v1.729h-10.093c.137,1.035.55,1.865,1.237,2.49.689.625,1.561.938,2.615.938,1.631,0,2.905-.591,3.823-1.772l2.08,2.329c-.635.898-1.494,1.599-2.578,2.102s-2.285.755-3.604.755Zm-.483-13.022c-.84,0-1.521.284-2.043.854-.523.568-.857,1.383-1.004,2.442h5.889v-.339c-.02-.941-.273-1.67-.762-2.185-.488-.516-1.182-.772-2.08-.772Z"/><path d="m357.766,11.69c-.576-.078-1.084-.117-1.523-.117-1.602,0-2.651.542-3.149,1.626v10.371h-4.233V7.72h3.999l.117,1.89c.85-1.455,2.026-2.183,3.53-2.183.469,0,.908.063,1.318.19l-.059,4.072Z"/><path d="m368.386,19.19c0-.518-.257-.926-.769-1.224-.514-.298-1.336-.563-2.469-.798-3.77-.791-5.654-2.393-5.654-4.805,0-1.406.583-2.581,1.75-3.523s2.693-1.413,4.578-1.413c2.012,0,3.62.474,4.826,1.421s1.81,2.178,1.81,3.691h-4.233c0-.605-.195-1.106-.586-1.502s-1.001-.593-1.831-.593c-.713,0-1.265.161-1.655.483s-.586.732-.586,1.23c0,.469.222.847.666,1.135s1.194.537,2.249.747,1.943.447,2.666.711c2.236.82,3.354,2.241,3.354,4.263,0,1.445-.62,2.614-1.86,3.508s-2.842,1.341-4.805,1.341c-1.328,0-2.508-.237-3.538-.711s-1.838-1.123-2.424-1.948-.879-1.716-.879-2.673h4.014c.039.752.317,1.328.835,1.729s1.211.601,2.08.601c.811,0,1.423-.154,1.839-.462.414-.308.622-.71.622-1.208Z"/><path d="m384.719,21.958c-1.045,1.27-2.49,1.904-4.336,1.904-1.699,0-2.995-.488-3.89-1.465-.893-.977-1.35-2.407-1.369-4.292V7.72h4.233v10.251c0,1.652.752,2.479,2.256,2.479,1.436,0,2.422-.499,2.959-1.496V7.72h4.248v15.85h-3.984l-.117-1.611Z"/><path d="m400.598,19.19c0-.518-.257-.926-.769-1.224-.514-.298-1.336-.563-2.469-.798-3.77-.791-5.654-2.393-5.654-4.805,0-1.406.583-2.581,1.75-3.523s2.693-1.413,4.578-1.413c2.012,0,3.62.474,4.826,1.421s1.81,2.178,1.81,3.691h-4.233c0-.605-.195-1.106-.586-1.502s-1.001-.593-1.831-.593c-.713,0-1.265.161-1.655.483s-.586.732-.586,1.23c0,.469.222.847.666,1.135s1.194.537,2.249.747,1.943.447,2.666.711c2.236.82,3.354,2.241,3.354,4.263,0,1.445-.62,2.614-1.86,3.508s-2.842,1.341-4.805,1.341c-1.328,0-2.508-.237-3.538-.711s-1.838-1.123-2.424-1.948-.879-1.716-.879-2.673h4.014c.039.752.317,1.328.835,1.729s1.211.601,2.08.601c.811,0,1.423-.154,1.839-.462.414-.308.622-.71.622-1.208Z"/><path d="m430.363,5.801h-6.533v17.769h-4.395V5.801h-6.445v-3.56h17.373v3.56Z"/><path d="m432.56,3.618c0-.635.212-1.157.638-1.567.424-.41,1.003-.615,1.735-.615.723,0,1.299.205,1.729.615s.645.933.645,1.567c0,.645-.218,1.172-.651,1.582-.436.41-1.009.615-1.722.615s-1.287-.205-1.722-.615-.651-.938-.651-1.582Zm4.497,19.951h-4.248V7.72h4.248v15.85Z"/><path d="m444.514,7.72l.132,1.772c1.123-1.377,2.642-2.065,4.556-2.065,2.041,0,3.442.806,4.204,2.417,1.113-1.611,2.7-2.417,4.761-2.417,1.719,0,2.998.5,3.838,1.501s1.26,2.508,1.26,4.52v10.122h-4.248v-10.107c0-.898-.176-1.556-.527-1.971s-.972-.622-1.86-.622c-1.27,0-2.148.605-2.637,1.816l.015,10.884h-4.233v-10.093c0-.918-.181-1.582-.542-1.992s-.977-.615-1.846-.615c-1.201,0-2.07.498-2.607,1.494v11.206h-4.233V7.72h3.97Z"/><path d="m473.81,23.863c-2.324,0-4.217-.713-5.677-2.139s-2.189-3.325-2.189-5.698v-.41c0-1.592.308-3.016.923-4.271s1.487-2.222,2.614-2.9c1.129-.679,2.415-1.018,3.86-1.018,2.168,0,3.874.684,5.12,2.051,1.244,1.367,1.867,3.306,1.867,5.815v1.729h-10.093c.137,1.035.55,1.865,1.237,2.49.689.625,1.561.938,2.615.938,1.631,0,2.905-.591,3.823-1.772l2.08,2.329c-.635.898-1.494,1.599-2.578,2.102s-2.285.755-3.604.755Zm-.483-13.022c-.84,0-1.521.284-2.043.854-.523.568-.857,1.383-1.004,2.442h5.889v-.339c-.02-.941-.273-1.67-.762-2.185-.488-.516-1.182-.772-2.08-.772Z"/><path d="m65.092,283.308h-2.18v-14.449l-4.371,1.605v-1.969l6.211-2.332h.34v17.145Z"/><path d="m82.142,276.031c0,2.539-.434,4.426-1.301,5.66s-2.223,1.852-4.066,1.852c-1.82,0-3.168-.604-4.043-1.811s-1.328-3.01-1.359-5.408v-2.895c0-2.508.434-4.371,1.301-5.59s2.227-1.828,4.078-1.828c1.836,0,3.188.588,4.055,1.764s1.312,2.99,1.336,5.443v2.812Zm-2.168-2.965c0-1.836-.258-3.174-.773-4.014s-1.332-1.26-2.449-1.26c-1.109,0-1.918.418-2.426,1.254s-.77,2.121-.785,3.855v3.469c0,1.844.268,3.205.803,4.084s1.346,1.318,2.432,1.318c1.07,0,1.865-.414,2.385-1.242s.791-2.133.814-3.914v-3.551Z"/><path d="m95.619,276.031c0,2.539-.434,4.426-1.301,5.66s-2.223,1.852-4.066,1.852c-1.82,0-3.168-.604-4.043-1.811s-1.328-3.01-1.359-5.408v-2.895c0-2.508.434-4.371,1.301-5.59s2.227-1.828,4.078-1.828c1.836,0,3.188.588,4.055,1.764s1.312,2.99,1.336,5.443v2.812Zm-2.168-2.965c0-1.836-.258-3.174-.773-4.014s-1.332-1.26-2.449-1.26c-1.109,0-1.918.418-2.426,1.254s-.77,2.121-.785,3.855v3.469c0,1.844.268,3.205.803,4.084s1.346,1.318,2.432,1.318c1.07,0,1.865-.414,2.385-1.242s.791-2.133.814-3.914v-3.551Z"/><path d="m69.146,212.558h-11.18v-1.559l5.906-6.562c.875-.992,1.479-1.799,1.811-2.42s.498-1.264.498-1.928c0-.891-.27-1.621-.809-2.191s-1.258-.855-2.156-.855c-1.078,0-1.916.307-2.514.92s-.896,1.467-.896,2.561h-2.168c0-1.57.506-2.84,1.518-3.809s2.365-1.453,4.061-1.453c1.586,0,2.84.416,3.762,1.248s1.383,1.939,1.383,3.322c0,1.68-1.07,3.68-3.211,6l-4.57,4.957h8.566v1.77Z"/><path d="m82.142,205.281c0,2.539-.434,4.426-1.301,5.66s-2.223,1.852-4.066,1.852c-1.82,0-3.168-.604-4.043-1.811s-1.328-3.01-1.359-5.408v-2.895c0-2.508.434-4.371,1.301-5.59s2.227-1.828,4.078-1.828c1.836,0,3.188.588,4.055,1.764s1.312,2.99,1.336,5.443v2.812Zm-2.168-2.965c0-1.836-.258-3.174-.773-4.014s-1.332-1.26-2.449-1.26c-1.109,0-1.918.418-2.426,1.254s-.77,2.121-.785,3.855v3.469c0,1.844.268,3.205.803,4.084s1.346,1.318,2.432,1.318c1.07,0,1.865-.414,2.385-1.242s.791-2.133.814-3.914v-3.551Z"/><path d="m95.619,205.281c0,2.539-.434,4.426-1.301,5.66s-2.223,1.852-4.066,1.852c-1.82,0-3.168-.604-4.043-1.811s-1.328-3.01-1.359-5.408v-2.895c0-2.508.434-4.371,1.301-5.59s2.227-1.828,4.078-1.828c1.836,0,3.188.588,4.055,1.764s1.312,2.99,1.336,5.443v2.812Zm-2.168-2.965c0-1.836-.258-3.174-.773-4.014s-1.332-1.26-2.449-1.26c-1.109,0-1.918.418-2.426,1.254s-.77,2.121-.785,3.855v3.469c0,1.844.268,3.205.803,4.084s1.346,1.318,2.432,1.318c1.07,0,1.865-.414,2.385-1.242s.791-2.133.814-3.914v-3.551Z"/><path d="m61.119,132.222h1.629c1.023-.016,1.828-.285,2.414-.809s.879-1.23.879-2.121c0-2-.996-3-2.988-3-.938,0-1.686.268-2.244.803s-.838,1.244-.838,2.127h-2.168c0-1.352.494-2.475,1.482-3.369s2.244-1.342,3.768-1.342c1.609,0,2.871.426,3.785,1.277s1.371,2.035,1.371,3.551c0,.742-.24,1.461-.721,2.156s-1.135,1.215-1.963,1.559c.938.297,1.662.789,2.174,1.477s.768,1.527.768,2.52c0,1.531-.5,2.746-1.5,3.645s-2.301,1.348-3.902,1.348-2.904-.434-3.908-1.301-1.506-2.012-1.506-3.434h2.18c0,.898.293,1.617.879,2.156s1.371.809,2.355.809c1.047,0,1.848-.273,2.402-.82s.832-1.332.832-2.355c0-.992-.305-1.754-.914-2.285s-1.488-.805-2.637-.82h-1.629v-1.77Z"/><path d="m82.142,134.531c0,2.539-.434,4.426-1.301,5.66s-2.223,1.852-4.066,1.852c-1.82,0-3.168-.604-4.043-1.811s-1.328-3.01-1.359-5.408v-2.895c0-2.508.434-4.371,1.301-5.59s2.227-1.828,4.078-1.828c1.836,0,3.188.588,4.055,1.764s1.312,2.99,1.336,5.443v2.812Zm-2.168-2.965c0-1.836-.258-3.174-.773-4.014s-1.332-1.26-2.449-1.26c-1.109,0-1.918.418-2.426,1.254s-.77,2.121-.785,3.855v3.469c0,1.844.268,3.205.803,4.084s1.346,1.318,2.432,1.318c1.07,0,1.865-.414,2.385-1.242s.791-2.133.814-3.914v-3.551Z"/><path d="m95.619,134.531c0,2.539-.434,4.426-1.301,5.66s-2.223,1.852-4.066,1.852c-1.82,0-3.168-.604-4.043-1.811s-1.328-3.01-1.359-5.408v-2.895c0-2.508.434-4.371,1.301-5.59s2.227-1.828,4.078-1.828c1.836,0,3.188.588,4.055,1.764s1.312,2.99,1.336,5.443v2.812Zm-2.168-2.965c0-1.836-.258-3.174-.773-4.014s-1.332-1.26-2.449-1.26c-1.109,0-1.918.418-2.426,1.254s-.77,2.121-.785,3.855v3.469c0,1.844.268,3.205.803,4.084s1.346,1.318,2.432,1.318c1.07,0,1.865-.414,2.385-1.242s.791-2.133.814-3.914v-3.551Z"/><path d="m67.119,65.327h2.367v1.77h-2.367v3.961h-2.18v-3.961h-7.77v-1.277l7.641-11.824h2.309v11.332Zm-7.488,0h5.309v-8.367l-.258.469-5.051,7.898Z"/><path d="m82.142,63.781c0,2.539-.434,4.426-1.301,5.66s-2.223,1.852-4.066,1.852c-1.82,0-3.168-.604-4.043-1.811s-1.328-3.01-1.359-5.408v-2.895c0-2.508.434-4.371,1.301-5.59s2.227-1.828,4.078-1.828c1.836,0,3.188.588,4.055,1.764s1.312,2.99,1.336,5.443v2.812Zm-2.168-2.965c0-1.836-.258-3.174-.773-4.014s-1.332-1.26-2.449-1.26c-1.109,0-1.918.418-2.426,1.254s-.77,2.121-.785,3.855v3.469c0,1.844.268,3.205.803,4.084s1.346,1.318,2.432,1.318c1.07,0,1.865-.414,2.385-1.242s.791-2.133.814-3.914v-3.551Z"/><path d="m95.619,63.781c0,2.539-.434,4.426-1.301,5.66s-2.223,1.852-4.066,1.852c-1.82,0-3.168-.604-4.043-1.811s-1.328-3.01-1.359-5.408v-2.895c0-2.508.434-4.371,1.301-5.59s2.227-1.828,4.078-1.828c1.836,0,3.188.588,4.055,1.764s1.312,2.99,1.336,5.443v2.812Zm-2.168-2.965c0-1.836-.258-3.174-.773-4.014s-1.332-1.26-2.449-1.26c-1.109,0-1.918.418-2.426,1.254s-.77,2.121-.785,3.855v3.469c0,1.844.268,3.205.803,4.084s1.346,1.318,2.432,1.318c1.07,0,1.865-.414,2.385-1.242s.791-2.133.814-3.914v-3.551Z"/><line x1="120.972" y1="344.273" x2="554.915" y2="344.273" fill="none" stroke="#000" stroke-miterlimit="10" stroke-width="2"/><line x1="121.511" y1="273.539" x2="108.511" y2="273.539" fill="none" stroke="#000" stroke-miterlimit="10" stroke-width="2"/><line x1="121.511" y1="202.805" x2="108.511" y2="202.805" fill="none" stroke="#000" stroke-miterlimit="10" stroke-width="2"/><line x1="121.511" y1="132.07" x2="108.511" y2="132.07" fill="none" stroke="#000" stroke-miterlimit="10" stroke-width="2"/><line x1="121.511" y1="61.336" x2="108.511" y2="61.336" fill="none" stroke="#000" stroke-miterlimit="10" stroke-width="2"/><path d="m404.036,387.771h-11.18v-1.559l5.906-6.562c.875-.992,1.479-1.799,1.811-2.42s.498-1.264.498-1.928c0-.891-.27-1.621-.809-2.191s-1.258-.855-2.156-.855c-1.078,0-1.916.307-2.514.92s-.896,1.467-.896,2.561h-2.168c0-1.57.506-2.84,1.518-3.809s2.365-1.453,4.061-1.453c1.586,0,2.84.416,3.762,1.248s1.383,1.939,1.383,3.322c0,1.68-1.07,3.68-3.211,6l-4.57,4.957h8.566v1.77Z"/><path d="m417.032,380.493c0,2.539-.434,4.426-1.301,5.66s-2.223,1.852-4.066,1.852c-1.82,0-3.168-.604-4.043-1.811s-1.328-3.01-1.359-5.408v-2.895c0-2.508.434-4.371,1.301-5.59s2.227-1.828,4.078-1.828c1.836,0,3.188.588,4.055,1.764s1.312,2.99,1.336,5.443v2.812Zm-2.168-2.965c0-1.836-.258-3.174-.773-4.014s-1.332-1.26-2.449-1.26c-1.109,0-1.918.418-2.426,1.254s-.77,2.121-.785,3.855v3.469c0,1.844.268,3.205.803,4.084s1.346,1.318,2.432,1.318c1.07,0,1.865-.414,2.385-1.242s.791-2.133.814-3.914v-3.551Z"/><path d="m250.981,387.771h-2.18v-14.449l-4.371,1.605v-1.969l6.211-2.332h.34v17.145Z"/><path d="m268.032,380.493c0,2.539-.434,4.426-1.301,5.66s-2.223,1.852-4.066,1.852c-1.82,0-3.168-.604-4.043-1.811s-1.328-3.01-1.359-5.408v-2.895c0-2.508.434-4.371,1.301-5.59s2.227-1.828,4.078-1.828c1.836,0,3.188.588,4.055,1.764s1.312,2.99,1.336,5.443v2.812Zm-2.168-2.965c0-1.836-.258-3.174-.773-4.014s-1.332-1.26-2.449-1.26c-1.109,0-1.918.418-2.426,1.254s-.77,2.121-.785,3.855v3.469c0,1.844.268,3.205.803,4.084s1.346,1.318,2.432,1.318c1.07,0,1.865-.414,2.385-1.242s.791-2.133.814-3.914v-3.551Z"/><path d="m545.009,378.185h1.629c1.023-.016,1.828-.285,2.414-.809s.879-1.23.879-2.121c0-2-.996-3-2.988-3-.938,0-1.686.268-2.244.803s-.838,1.244-.838,2.127h-2.168c0-1.352.494-2.475,1.482-3.369s2.244-1.342,3.768-1.342c1.609,0,2.871.426,3.785,1.277s1.371,2.035,1.371,3.551c0,.742-.24,1.461-.721,2.156s-1.135,1.215-1.963,1.559c.938.297,1.662.789,2.174,1.477s.768,1.527.768,2.52c0,1.531-.5,2.746-1.5,3.645s-2.301,1.348-3.902,1.348-2.904-.434-3.908-1.301-1.506-2.012-1.506-3.434h2.18c0,.898.293,1.617.879,2.156s1.371.809,2.355.809c1.047,0,1.848-.273,2.402-.82s.832-1.332.832-2.355c0-.992-.305-1.754-.914-2.285s-1.488-.805-2.637-.82h-1.629v-1.77Z"/><path d="m566.032,380.493c0,2.539-.434,4.426-1.301,5.66s-2.223,1.852-4.066,1.852c-1.82,0-3.168-.604-4.043-1.811s-1.328-3.01-1.359-5.408v-2.895c0-2.508.434-4.371,1.301-5.59s2.227-1.828,4.078-1.828c1.836,0,3.188.588,4.055,1.764s1.312,2.99,1.336,5.443v2.812Zm-2.168-2.965c0-1.836-.258-3.174-.773-4.014s-1.332-1.26-2.449-1.26c-1.109,0-1.918.418-2.426,1.254s-.77,2.121-.785,3.855v3.469c0,1.844.268,3.205.803,4.084s1.346,1.318,2.432,1.318c1.07,0,1.865-.414,2.385-1.242s.791-2.133.814-3.914v-3.551Z"/><polyline points="554.915 61.775 255.915 61.775 120.972 344.273" fill="none" stroke="#c25700" stroke-miterlimit="10" stroke-width="2"/><line x1="121.511" y1="343.336" x2="121.511" y2="60.336" fill="none" stroke="#000" stroke-miterlimit="10" stroke-width="2"/><path d="m274.493,414.762h-5.444v14.808h-3.662v-14.808h-5.371v-2.966h14.478v2.966Z"/><path d="m276.323,412.944c0-.529.178-.965.531-1.307.354-.342.836-.512,1.447-.512.602,0,1.082.17,1.439.512.358.342.537.777.537,1.307,0,.537-.181.977-.543,1.318s-.84.513-1.434.513-1.073-.171-1.435-.513c-.362-.342-.544-.781-.544-1.318Zm3.748,16.626h-3.54v-13.208h3.54v13.208Z"/><path d="m286.285,416.362l.11,1.477c.936-1.146,2.201-1.721,3.796-1.721,1.701,0,2.868.672,3.503,2.014.928-1.342,2.251-2.014,3.968-2.014,1.433,0,2.498.417,3.198,1.251.7.835,1.05,2.09,1.05,3.767v8.435h-3.54v-8.423c0-.748-.146-1.296-.439-1.642-.293-.347-.81-.519-1.551-.519-1.058,0-1.79.504-2.197,1.514l.013,9.069h-3.528v-8.411c0-.764-.15-1.318-.451-1.66s-.813-.512-1.538-.512c-1.001,0-1.726.414-2.173,1.244v9.339h-3.527v-13.208h3.308Z"/><path d="m310.698,429.814c-1.937,0-3.514-.594-4.729-1.782-1.217-1.188-1.825-2.771-1.825-4.748v-.342c0-1.326.256-2.514.77-3.559.512-1.046,1.238-1.852,2.179-2.417.939-.565,2.012-.849,3.216-.849,1.807,0,3.229.57,4.267,1.709,1.038,1.14,1.557,2.755,1.557,4.846v1.441h-8.411c.114.862.458,1.555,1.032,2.074.573.521,1.3.781,2.179.781,1.359,0,2.421-.492,3.186-1.477l1.734,1.941c-.529.748-1.246,1.332-2.148,1.751-.904.419-1.904.629-3.004.629Zm-.402-10.853c-.7,0-1.268.238-1.703.712s-.714,1.152-.836,2.035h4.907v-.282c-.017-.785-.228-1.392-.635-1.82-.407-.43-.984-.645-1.733-.645Z"/><path d="m324.457,422.632c0-1.789.238-3.492.715-5.109s1.18-3.049,2.109-4.295,1.938-2.111,3.023-2.596l.656,1.828c-1.141.844-2.031,2.148-2.672,3.914s-.961,3.828-.961,6.188v.363c0,2.367.316,4.438.949,6.211s1.527,3.098,2.684,3.973l-.656,1.793c-1.062-.477-2.053-1.318-2.971-2.525s-1.619-2.6-2.104-4.178-.742-3.227-.773-4.945v-.621Z"/><path d="m335.906,416.89l.105,1.418c.898-1.102,2.113-1.652,3.645-1.652,1.633,0,2.754.645,3.363,1.934.891-1.289,2.16-1.934,3.809-1.934,1.375,0,2.398.4,3.07,1.201s1.008,2.006,1.008,3.615v8.098h-3.398v-8.086c0-.719-.141-1.244-.422-1.576s-.777-.498-1.488-.498c-1.016,0-1.719.484-2.109,1.453l.012,8.707h-3.387v-8.074c0-.734-.145-1.266-.434-1.594s-.781-.492-1.477-.492c-.961,0-1.656.398-2.086,1.195v8.965h-3.387v-12.68h3.176Z"/><path d="m353.484,413.609c0-.508.17-.926.51-1.254s.803-.492,1.389-.492c.578,0,1.039.164,1.383.492s.516.746.516,1.254c0,.516-.174.938-.521,1.266s-.807.492-1.377.492-1.029-.164-1.377-.492-.521-.75-.521-1.266Zm3.598,15.961h-3.398v-12.68h3.398v12.68Z"/><path d="m362.988,416.89l.105,1.465c.906-1.133,2.121-1.699,3.645-1.699,1.344,0,2.344.395,3,1.184s.992,1.969,1.008,3.539v8.191h-3.387v-8.109c0-.719-.156-1.24-.469-1.564s-.832-.486-1.559-.486c-.953,0-1.668.406-2.145,1.219v8.941h-3.387v-12.68h3.188Z"/><path d="m379.148,422.902c0,1.766-.254,3.465-.762,5.098s-1.238,3.074-2.191,4.324-1.973,2.109-3.059,2.578l-.656-1.793c1.109-.836,1.984-2.125,2.625-3.867s.973-3.746.996-6.012v-.621c0-2.336-.318-4.395-.955-6.176s-1.525-3.117-2.666-4.008l.656-1.793c1.062.461,2.064,1.297,3.006,2.508s1.672,2.621,2.191,4.23.791,3.277.814,5.004v.527Z"/><path d="m17.583,334.967l-12.832-3.85v-3.896l17.062,5.915v3.651l-17.062,5.891v-3.885l12.832-3.826Z"/><path d="m22.048,320.548c0,1.851-.57,3.358-1.711,4.521-1.141,1.163-2.66,1.744-4.559,1.744h-.328c-1.273,0-2.412-.245-3.416-.735-1.004-.489-1.777-1.184-2.32-2.082s-.814-1.923-.814-3.074c0-1.727.547-3.085,1.641-4.077,1.094-.991,2.645-1.487,4.652-1.487h1.383v8.038c.828-.109,1.492-.438,1.992-.986.5-.548.75-1.242.75-2.082,0-1.299-.473-2.313-1.418-3.045l1.863-1.656c.719.506,1.279,1.189,1.682,2.053s.604,1.82.604,2.87Zm-10.418.385c0,.669.228,1.212.683,1.628s1.106.683,1.954.799v-4.689h-.271c-.754.016-1.336.218-1.748.606s-.618.941-.618,1.656Z"/><path d="m21.813,309.886v3.383H3.813v-3.383h18Z"/><path d="m15.356,307.635c-1.258,0-2.379-.241-3.363-.724s-1.746-1.177-2.285-2.082c-.539-.906-.809-1.958-.809-3.156,0-1.703.523-3.093,1.57-4.17s2.469-1.678,4.266-1.803l.867-.023c1.945,0,3.506.541,4.682,1.622s1.764,2.531,1.764,4.351-.586,3.272-1.758,4.357-2.766,1.628-4.781,1.628h-.152Zm.24-3.372c1.205,0,2.127-.226,2.764-.677.639-.45.957-1.096.957-1.937,0-.816-.314-1.454-.945-1.913-.629-.459-1.637-.688-3.021-.688-1.182,0-2.097.229-2.746.688s-.975,1.104-.975,1.937c0,.825.323,1.463.969,1.913.646.451,1.645.677,2.998.677Z"/><path d="m19.317,288.351c0-.622-.172-1.127-.516-1.517-.344-.389-.801-.591-1.371-.606v-3.161c.859.008,1.646.241,2.361.7s1.27,1.087,1.664,1.884.592,1.678.592,2.643c0,1.804-.576,3.228-1.729,4.27s-2.744,1.563-4.775,1.563h-.223c-1.953,0-3.512-.518-4.676-1.552s-1.746-2.454-1.746-4.258c0-1.579.451-2.845,1.354-3.798.902-.952,2.104-1.437,3.604-1.452v3.161c-.659.016-1.195.218-1.608.606-.412.39-.618.902-.618,1.54,0,.786.288,1.379.862,1.779.575.4,1.509.601,2.8.601h.352c1.307,0,2.246-.198,2.817-.595s.856-.999.856-1.809Z"/><path d="m5.852,281.164c-.508,0-.926-.169-1.254-.508-.328-.338-.492-.799-.492-1.382,0-.576.164-1.034.492-1.377.328-.342.746-.514,1.254-.514.516,0,.938.174,1.266.52.328.347.492.803.492,1.371s-.164,1.024-.492,1.37c-.328.347-.75.52-1.266.52Zm15.961-3.581v3.383h-12.68v-3.383h12.68Z"/><path d="m6.017,270.771h3.117v-2.158h2.484v2.158h6.328c.469,0,.805-.09,1.008-.269s.305-.521.305-1.026c0-.373-.027-.704-.082-.992h2.566c.203.661.305,1.342.305,2.042,0,2.364-1.199,3.569-3.598,3.616h-6.832v1.844h-2.484v-1.844h-3.117v-3.371Z"/><path d="m17.02,262.021l-7.887-2.333v-3.616l14.648,5.074.668.28c1.656.754,2.484,1.999,2.484,3.732,0,.49-.074.988-.223,1.493h-2.566l.012-.513c0-.638-.098-1.114-.293-1.43-.195-.314-.52-.562-.973-.74l-1.043-.396-12.715,4.421v-3.628l7.887-2.345Z"/><path d="m14.876,248.641c-1.789,0-3.492-.237-5.109-.712s-3.049-1.174-4.295-2.1-2.111-1.929-2.596-3.01l1.828-.653c.844,1.136,2.148,2.022,3.914,2.659,1.766.639,3.828.957,6.188.957h.363c2.367,0,4.438-.315,6.211-.945s3.098-1.52,3.973-2.671l1.793.653c-.477,1.058-1.318,2.043-2.525,2.957s-2.6,1.612-4.178,2.094c-1.578.482-3.227.739-4.945.771h-.621Z"/><path d="m9.134,237.243l1.418-.105c-1.102-.895-1.652-2.104-1.652-3.628,0-1.625.645-2.741,1.934-3.348-1.289-.887-1.934-2.15-1.934-3.792,0-1.368.4-2.388,1.201-3.057.801-.668,2.006-1.003,3.615-1.003h8.098v3.383h-8.086c-.719,0-1.244.141-1.576.42-.332.28-.498.774-.498,1.482,0,1.011.484,1.711,1.453,2.1l8.707-.012v3.371h-8.074c-.734,0-1.266.145-1.594.432-.328.288-.492.778-.492,1.47,0,.957.398,1.649,1.195,2.077h8.965v3.371h-12.68v-3.161Z"/><path d="m23.278,218.659v2.508l-18.527-6.253v-2.508l18.527,6.253Z"/><path d="m9.134,207.636l1.418-.105c-1.102-.895-1.652-2.104-1.652-3.628,0-1.625.645-2.741,1.934-3.348-1.289-.887-1.934-2.15-1.934-3.792,0-1.368.4-2.388,1.201-3.057.801-.668,2.006-1.003,3.615-1.003h8.098v3.383h-8.086c-.719,0-1.244.141-1.576.42-.332.28-.498.774-.498,1.482,0,1.011.484,1.711,1.453,2.1l8.707-.012v3.371h-8.074c-.734,0-1.266.145-1.594.432-.328.288-.492.778-.492,1.47,0,.957.398,1.649,1.195,2.077h8.965v3.371h-12.68v-3.161Z"/><path d="m5.852,190.137c-.508,0-.926-.169-1.254-.508-.328-.338-.492-.799-.492-1.382,0-.576.164-1.034.492-1.377.328-.342.746-.514,1.254-.514.516,0,.938.174,1.266.52.328.347.492.803.492,1.371s-.164,1.024-.492,1.37c-.328.347-.75.52-1.266.52Zm15.961-3.581v3.383h-12.68v-3.383h12.68Z"/><path d="m9.134,180.675l1.465-.104c-1.133-.902-1.699-2.111-1.699-3.628,0-1.338.395-2.333,1.184-2.986s1.969-.988,3.539-1.004h8.191v3.372h-8.109c-.719,0-1.24.155-1.564.467-.324.311-.486.828-.486,1.551,0,.949.406,1.661,1.219,2.135h8.941v3.372h-12.68v-3.174Z"/><path d="m15.145,164.588c1.766,0,3.465.253,5.098.759,1.633.505,3.074,1.232,4.324,2.181,1.25.949,2.109,1.964,2.578,3.045l-1.793.653c-.836-1.104-2.125-1.976-3.867-2.613s-3.746-.968-6.012-.991h-.621c-2.336,0-4.395.317-6.176.951s-3.117,1.519-4.008,2.653l-1.793-.653c.461-1.058,1.297-2.055,2.508-2.992,1.211-.937,2.621-1.664,4.23-2.182,1.609-.517,3.277-.787,5.004-.811h.527Z"/><path d="m4.575,150.881v1.656h18.598v-1.656h2.613v5.04H1.962v-5.04h2.613Z"/><path d="m21.813,148.466h-10.195v1.879h-2.484v-1.879h-1.078c-1.422,0-2.525-.406-3.311-1.219s-1.178-1.95-1.178-3.412c0-.467.078-1.038.234-1.715l2.625.035c-.07.279-.105.622-.105,1.026,0,1.268.598,1.901,1.793,1.901h1.02v-2.508h2.484v2.508h10.195v3.383Z"/><path d="m15.356,141.351c-1.258,0-2.379-.241-3.363-.724s-1.746-1.177-2.285-2.082c-.539-.906-.809-1.958-.809-3.156,0-1.703.523-3.093,1.57-4.17s2.469-1.678,4.266-1.803l.867-.023c1.945,0,3.506.541,4.682,1.622s1.764,2.531,1.764,4.351-.586,3.272-1.758,4.357-2.766,1.628-4.781,1.628h-.152Zm.24-3.372c1.205,0,2.127-.226,2.764-.677.639-.45.957-1.096.957-1.937,0-.816-.314-1.454-.945-1.913-.629-.459-1.637-.688-3.021-.688-1.182,0-2.097.229-2.746.688s-.975,1.104-.975,1.937c0,.825.323,1.463.969,1.913.646.451,1.645.677,2.998.677Z"/><path d="m12.309,120.224c-.062.459-.094.863-.094,1.213,0,1.276.434,2.112,1.301,2.509h8.297v3.371h-12.68v-3.185l1.512-.094c-1.164-.677-1.746-1.613-1.746-2.812,0-.373.051-.723.152-1.05l3.258.047Z"/><path d="m17.208,107.426l-8.074-1.656v-3.255l12.68,3.22v2.823l-7.98,2.392,7.98,2.392v2.811l-12.68,3.221v-3.255l8.062-1.646-8.062-2.31v-2.438l8.074-2.298Z"/><path d="m21.813,93.533c-.305.155-.684.269-1.137.338.914.817,1.371,1.879,1.371,3.186,0,1.236-.359,2.261-1.078,3.073-.719.813-1.625,1.22-2.719,1.22-1.344,0-2.375-.496-3.094-1.487-.719-.992-1.082-2.425-1.09-4.299v-1.552h-.727c-.586,0-1.055.149-1.406.449-.352.299-.527.771-.527,1.417,0,.568.137,1.014.41,1.336s.648.484,1.125.484v3.371c-.734,0-1.414-.226-2.039-.677s-1.115-1.089-1.471-1.913-.533-1.75-.533-2.776c0-1.556.393-2.79,1.178-3.704s1.889-1.37,3.311-1.37h5.496c1.203-.008,2.113-.176,2.73-.502h.199v3.406Zm-2.355,2.788c0-.497-.111-.956-.334-1.377-.223-.42-.521-.73-.896-.933h-2.18v1.26c0,1.688.586,2.586,1.758,2.694l.199.012c.422,0,.77-.147,1.043-.443.273-.295.41-.699.41-1.213Z"/><path d="m12.309,80.945c-.062.459-.094.863-.094,1.213,0,1.276.434,2.112,1.301,2.509h8.297v3.371h-12.68v-3.185l1.512-.094c-1.164-.677-1.746-1.613-1.746-2.812,0-.373.051-.723.152-1.05l3.258.047Z"/><path d="m15.38,80.071c-1.977,0-3.551-.441-4.723-1.324s-1.758-2.09-1.758-3.622c0-1.229.461-2.244,1.383-3.045H3.813v-3.384h18v3.045l-1.348.164c1.055.84,1.582,1.921,1.582,3.242,0,1.486-.588,2.678-1.764,3.576s-2.811,1.348-4.904,1.348Zm.252-3.372c1.189,0,2.102-.206,2.734-.618.635-.412.951-1.011.951-1.797,0-1.042-.442-1.776-1.326-2.204h-5.012c-.884.42-1.326,1.147-1.326,2.182,0,1.625,1.326,2.438,3.979,2.438Z"/><path d="m1.962,67.226v-5.04h23.824v5.04h-2.613v-1.669H4.575v1.669H1.962Z"/><path d="m95.619,380.493c0,2.539-.434,4.426-1.301,5.66s-2.223,1.852-4.066,1.852c-1.82,0-3.168-.604-4.043-1.811s-1.328-3.01-1.359-5.408v-2.895c0-2.508.434-4.371,1.301-5.59s2.227-1.828,4.078-1.828c1.836,0,3.188.588,4.055,1.764s1.312,2.99,1.336,5.443v2.812Zm-2.168-2.965c0-1.836-.258-3.174-.773-4.014s-1.332-1.26-2.449-1.26c-1.109,0-1.918.418-2.426,1.254s-.77,2.121-.785,3.855v3.469c0,1.844.268,3.205.803,4.084s1.346,1.318,2.432,1.318c1.07,0,1.865-.414,2.385-1.242s.791-2.133.814-3.914v-3.551Z"/><line x1="553.915" y1="343.938" x2="553.915" y2="356.938" fill="none" stroke="#000" stroke-miterlimit="10" stroke-width="2"/><line x1="255.915" y1="343.938" x2="255.915" y2="356.938" fill="none" stroke="#000" stroke-miterlimit="10" stroke-width="2"/><line x1="404.915" y1="343.938" x2="404.915" y2="356.938" fill="none" stroke="#000" stroke-miterlimit="10" stroke-width="2"/></svg>