<?xml version="1.0" encoding="UTF-8"?><svg id="a" xmlns="http://www.w3.org/2000/svg" width="1140" height="757" viewBox="0 0 1140 757"><rect x="137.915" y="61.336" width="984" height="597" fill="#fff"/><line x1="629.908" y1="61.337" x2="629.908" y2="660.337" fill="none" stroke="#b1dded" stroke-miterlimit="10" stroke-width="2"/><line x1="794.906" y1="61.337" x2="794.906" y2="660.337" fill="none" stroke="#b1dded" stroke-miterlimit="10" stroke-width="2"/><line x1="1124.901" y1="61.337" x2="1124.901" y2="660.337" fill="none" stroke="#b1dded" stroke-miterlimit="10" stroke-width="2"/><line x1="299.913" y1="61.337" x2="299.913" y2="660.337" fill="none" stroke="#b1dded" stroke-miterlimit="10" stroke-width="2"/><line x1="464.91" y1="61.337" x2="464.91" y2="660.337" fill="none" stroke="#b1dded" stroke-miterlimit="10" stroke-width="2"/><line x1="959.903" y1="61.337" x2="959.903" y2="660.337" fill="none" stroke="#b1dded" stroke-miterlimit="10" stroke-width="2"/><line x1="134.915" y1="510.322" x2="1125.915" y2="510.322" fill="none" stroke="#b1dded" stroke-miterlimit="10" stroke-width="2"/><line x1="134.915" y1="360.713" x2="1125.915" y2="360.713" fill="none" stroke="#b1dded" stroke-miterlimit="10" stroke-width="2"/><line x1="134.915" y1="211.104" x2="1125.915" y2="211.104" fill="none" stroke="#b1dded" stroke-miterlimit="10" stroke-width="2"/><line x1="137.796" y1="61.495" x2="1125.915" y2="61.495" fill="none" stroke="#b1dded" stroke-miterlimit="10" stroke-width="2"/><path d="m345.801,18.282l4.834-16.04h4.893l-7.427,21.328h-4.585l-7.397-21.328h4.878l4.805,16.04Z"/><path d="m363.906,23.863c-2.324,0-4.216-.713-5.676-2.139s-2.19-3.325-2.19-5.698v-.41c0-1.592.308-3.016.923-4.271s1.487-2.222,2.615-2.9,2.414-1.018,3.859-1.018c2.168,0,3.875.684,5.12,2.051s1.867,3.306,1.867,5.815v1.729h-10.093c.137,1.035.55,1.865,1.238,2.49s1.56.938,2.614.938c1.631,0,2.905-.591,3.823-1.772l2.08,2.329c-.635.898-1.494,1.599-2.578,2.102s-2.285.755-3.604.755Zm-.483-13.022c-.84,0-1.521.284-2.043.854-.522.568-.857,1.383-1.004,2.442h5.889v-.339c-.02-.941-.273-1.67-.762-2.185-.488-.516-1.182-.772-2.08-.772Z"/><path d="m377.295,23.57h-4.248V1.07h4.248v22.5Z"/><path d="m380.123,15.498c0-1.572.303-2.974.908-4.204s1.477-2.183,2.615-2.856c1.137-.674,2.458-1.011,3.962-1.011,2.139,0,3.884.654,5.237,1.963,1.352,1.309,2.106,3.086,2.263,5.332l.029,1.084c0,2.432-.679,4.382-2.036,5.852s-3.179,2.205-5.464,2.205-4.108-.732-5.472-2.197c-1.361-1.465-2.043-3.457-2.043-5.977v-.19Zm4.233.3c0,1.507.283,2.658.85,3.455.566.798,1.377,1.196,2.432,1.196,1.025,0,1.826-.394,2.402-1.182.576-.787.864-2.046.864-3.777,0-1.477-.288-2.621-.864-3.433s-1.387-1.218-2.432-1.218c-1.035,0-1.836.403-2.402,1.21-.566.808-.85,2.057-.85,3.748Z"/><path d="m404.337,20.449c.781,0,1.416-.215,1.904-.645s.742-1.001.762-1.714h3.97c-.01,1.074-.303,2.058-.879,2.951s-1.365,1.587-2.365,2.08c-1.002.493-2.107.74-3.318.74-2.266,0-4.053-.721-5.361-2.161s-1.963-3.43-1.963-5.969v-.278c0-2.441.649-4.39,1.948-5.845s3.081-2.183,5.347-2.183c1.982,0,3.571.563,4.768,1.691s1.805,2.63,1.824,4.505h-3.97c-.02-.824-.273-1.495-.762-2.011-.488-.515-1.133-.772-1.934-.772-.986,0-1.731.359-2.233,1.078-.504.719-.755,1.885-.755,3.499v.439c0,1.634.249,2.808.747,3.521s1.255,1.071,2.271,1.071Z"/><path d="m413.36,3.618c0-.635.212-1.157.638-1.567.424-.41,1.003-.615,1.735-.615.723,0,1.299.205,1.729.615s.645.933.645,1.567c0,.645-.218,1.172-.651,1.582-.436.41-1.009.615-1.722.615s-1.287-.205-1.722-.615-.651-.938-.651-1.582Zm4.497,19.951h-4.248V7.72h4.248v15.85Z"/><path d="m426.411,3.824v3.896h2.71v3.105h-2.71v7.91c0,.586.112,1.006.337,1.26s.654.381,1.289.381c.469,0,.884-.034,1.245-.103v3.208c-.83.254-1.685.381-2.563.381-2.969,0-4.482-1.499-4.541-4.497v-8.54h-2.314v-3.105h2.314v-3.896h4.233Z"/><path d="m437.397,17.578l2.93-9.858h4.541l-6.372,18.311-.352.835c-.947,2.07-2.51,3.105-4.688,3.105-.615,0-1.24-.093-1.875-.278v-3.208l.645.015c.801,0,1.398-.122,1.795-.366.395-.244.705-.649.93-1.216l.498-1.304-5.552-15.894h4.556l2.944,9.858Z"/><path d="m462.168,18.282l4.834-16.04h4.893l-7.427,21.328h-4.585l-7.397-21.328h4.878l4.805,16.04Z"/><path d="m480.274,23.863c-2.324,0-4.217-.713-5.677-2.139s-2.189-3.325-2.189-5.698v-.41c0-1.592.308-3.016.923-4.271s1.487-2.222,2.614-2.9c1.129-.679,2.415-1.018,3.86-1.018,2.168,0,3.874.684,5.12,2.051,1.244,1.367,1.867,3.306,1.867,5.815v1.729h-10.093c.137,1.035.55,1.865,1.237,2.49.689.625,1.561.938,2.615.938,1.631,0,2.905-.591,3.823-1.772l2.08,2.329c-.635.898-1.494,1.599-2.578,2.102s-2.285.755-3.604.755Zm-.483-13.022c-.84,0-1.521.284-2.043.854-.523.568-.857,1.383-1.004,2.442h5.889v-.339c-.02-.941-.273-1.67-.762-2.185-.488-.516-1.182-.772-2.08-.772Z"/><path d="m498.1,11.69c-.576-.078-1.084-.117-1.523-.117-1.602,0-2.651.542-3.149,1.626v10.371h-4.233V7.72h3.999l.117,1.89c.85-1.455,2.026-2.183,3.53-2.183.469,0,.908.063,1.318.19l-.059,4.072Z"/><path d="m508.722,19.19c0-.518-.257-.926-.769-1.224-.514-.298-1.336-.563-2.469-.798-3.77-.791-5.654-2.393-5.654-4.805,0-1.406.583-2.581,1.75-3.523s2.693-1.413,4.578-1.413c2.012,0,3.62.474,4.826,1.421s1.81,2.178,1.81,3.691h-4.233c0-.605-.195-1.106-.586-1.502s-1.001-.593-1.831-.593c-.713,0-1.265.161-1.655.483s-.586.732-.586,1.23c0,.469.222.847.666,1.135s1.194.537,2.249.747,1.943.447,2.666.711c2.236.82,3.354,2.241,3.354,4.263,0,1.445-.62,2.614-1.86,3.508s-2.842,1.341-4.805,1.341c-1.328,0-2.508-.237-3.538-.711s-1.838-1.123-2.424-1.948-.879-1.716-.879-2.673h4.014c.039.752.317,1.328.835,1.729s1.211.601,2.08.601c.811,0,1.423-.154,1.839-.462.414-.308.622-.71.622-1.208Z"/><path d="m525.054,21.958c-1.045,1.27-2.49,1.904-4.336,1.904-1.699,0-2.995-.488-3.89-1.465-.893-.977-1.35-2.407-1.369-4.292V7.72h4.233v10.251c0,1.652.752,2.479,2.256,2.479,1.436,0,2.422-.499,2.959-1.496V7.72h4.248v15.85h-3.984l-.117-1.611Z"/><path d="m540.933,19.19c0-.518-.257-.926-.769-1.224-.514-.298-1.336-.563-2.469-.798-3.77-.791-5.654-2.393-5.654-4.805,0-1.406.583-2.581,1.75-3.523s2.693-1.413,4.578-1.413c2.012,0,3.62.474,4.826,1.421s1.81,2.178,1.81,3.691h-4.233c0-.605-.195-1.106-.586-1.502s-1.001-.593-1.831-.593c-.713,0-1.265.161-1.655.483s-.586.732-.586,1.23c0,.469.222.847.666,1.135s1.194.537,2.249.747,1.943.447,2.666.711c2.236.82,3.354,2.241,3.354,4.263,0,1.445-.62,2.614-1.86,3.508s-2.842,1.341-4.805,1.341c-1.328,0-2.508-.237-3.538-.711s-1.838-1.123-2.424-1.948-.879-1.716-.879-2.673h4.014c.039.752.317,1.328.835,1.729s1.211.601,2.08.601c.811,0,1.423-.154,1.839-.462.414-.308.622-.71.622-1.208Z"/><path d="m570.699,5.801h-6.533v17.769h-4.395V5.801h-6.445v-3.56h17.373v3.56Z"/><path d="m572.895,3.618c0-.635.212-1.157.638-1.567.424-.41,1.003-.615,1.735-.615.723,0,1.299.205,1.729.615s.645.933.645,1.567c0,.645-.218,1.172-.651,1.582-.436.41-1.009.615-1.722.615s-1.287-.205-1.722-.615-.651-.938-.651-1.582Zm4.497,19.951h-4.248V7.72h4.248v15.85Z"/><path d="m584.85,7.72l.132,1.772c1.123-1.377,2.642-2.065,4.556-2.065,2.041,0,3.442.806,4.204,2.417,1.113-1.611,2.7-2.417,4.761-2.417,1.719,0,2.998.5,3.838,1.501s1.26,2.508,1.26,4.52v10.122h-4.248v-10.107c0-.898-.176-1.556-.527-1.971s-.972-.622-1.86-.622c-1.27,0-2.148.605-2.637,1.816l.015,10.884h-4.233v-10.093c0-.918-.181-1.582-.542-1.992s-.977-.615-1.846-.615c-1.201,0-2.07.498-2.607,1.494v11.206h-4.233V7.72h3.97Z"/><path d="m614.145,23.863c-2.324,0-4.217-.713-5.677-2.139s-2.189-3.325-2.189-5.698v-.41c0-1.592.308-3.016.923-4.271s1.487-2.222,2.614-2.9c1.129-.679,2.415-1.018,3.86-1.018,2.168,0,3.874.684,5.12,2.051,1.244,1.367,1.867,3.306,1.867,5.815v1.729h-10.093c.137,1.035.55,1.865,1.237,2.49.689.625,1.561.938,2.615.938,1.631,0,2.905-.591,3.823-1.772l2.08,2.329c-.635.898-1.494,1.599-2.578,2.102s-2.285.755-3.604.755Zm-.483-13.022c-.84,0-1.521.284-2.043.854-.523.568-.857,1.383-1.004,2.442h5.889v-.339c-.02-.941-.273-1.67-.762-2.185-.488-.516-1.182-.772-2.08-.772Z"/><path d="m631.695,23.57v-12.744h-2.358v-3.105h2.358v-1.348c0-1.777.51-3.157,1.531-4.139,1.02-.981,2.448-1.472,4.284-1.472.586,0,1.304.098,2.153.293l-.044,3.281c-.352-.088-.781-.132-1.289-.132-1.592,0-2.388.747-2.388,2.241v1.274h3.149v3.105h-3.149v12.744h-4.248Z"/><path d="m640.631,15.498c0-1.572.303-2.974.908-4.204s1.477-2.183,2.615-2.856c1.137-.674,2.458-1.011,3.962-1.011,2.139,0,3.884.654,5.237,1.963,1.352,1.309,2.106,3.086,2.263,5.332l.029,1.084c0,2.432-.679,4.382-2.036,5.852s-3.179,2.205-5.464,2.205-4.108-.732-5.472-2.197c-1.361-1.465-2.043-3.457-2.043-5.977v-.19Zm4.233.3c0,1.507.283,2.658.85,3.455.566.798,1.377,1.196,2.432,1.196,1.025,0,1.826-.394,2.402-1.182.576-.787.864-2.046.864-3.777,0-1.477-.288-2.621-.864-3.433s-1.387-1.218-2.432-1.218c-1.035,0-1.836.403-2.402,1.21-.566.808-.85,2.057-.85,3.748Z"/><path d="m667.159,11.69c-.576-.078-1.084-.117-1.523-.117-1.602,0-2.651.542-3.149,1.626v10.371h-4.233V7.72h3.999l.117,1.89c.85-1.455,2.026-2.183,3.53-2.183.469,0,.908.063,1.318.19l-.059,4.072Z"/><path d="m685.85,23.57c-.195-.381-.337-.854-.425-1.421-1.025,1.143-2.358,1.714-3.999,1.714-1.553,0-2.84-.449-3.859-1.348-1.021-.898-1.531-2.031-1.531-3.398,0-1.68.623-2.969,1.867-3.867,1.246-.898,3.045-1.353,5.398-1.362h1.948v-.908c0-.732-.188-1.318-.563-1.758-.377-.439-.97-.659-1.78-.659-.713,0-1.272.171-1.677.513-.406.342-.608.811-.608,1.406h-4.233c0-.918.283-1.768.85-2.549s1.367-1.395,2.402-1.839,2.197-.666,3.486-.666c1.953,0,3.503.49,4.65,1.472s1.722,2.361,1.722,4.139v6.87c.01,1.504.22,2.642.63,3.413v.249h-4.277Zm-3.501-2.944c.625,0,1.201-.14,1.729-.418s.918-.651,1.172-1.12v-2.725h-1.582c-2.119,0-3.247.732-3.384,2.197l-.015.249c0,.527.186.962.557,1.304s.879.513,1.523.513Z"/><path d="m700.498,23.57V2.241h7.471c2.588,0,4.551.495,5.889,1.486s2.007,2.444,2.007,4.358c0,1.045-.269,1.965-.806,2.761s-1.284,1.38-2.241,1.751c1.094.273,1.956.825,2.585,1.655.631.83.945,1.846.945,3.047,0,2.051-.654,3.604-1.963,4.658s-3.174,1.592-5.596,1.611h-8.291Zm4.395-12.393h3.252c2.217-.039,3.325-.923,3.325-2.651,0-.967-.281-1.663-.843-2.088s-1.447-.637-2.658-.637h-3.076v5.376Zm0,3.105v5.757h3.765c1.035,0,1.843-.247,2.425-.74.58-.493.871-1.174.871-2.043,0-1.953-1.011-2.944-3.032-2.974h-4.028Z"/><path d="m728.551,23.57c-.195-.381-.337-.854-.425-1.421-1.025,1.143-2.358,1.714-3.999,1.714-1.553,0-2.84-.449-3.859-1.348-1.021-.898-1.531-2.031-1.531-3.398,0-1.68.623-2.969,1.867-3.867,1.246-.898,3.045-1.353,5.398-1.362h1.948v-.908c0-.732-.188-1.318-.563-1.758-.377-.439-.97-.659-1.78-.659-.713,0-1.272.171-1.677.513-.406.342-.608.811-.608,1.406h-4.233c0-.918.283-1.768.85-2.549s1.367-1.395,2.402-1.839,2.197-.666,3.486-.666c1.953,0,3.503.49,4.65,1.472s1.722,2.361,1.722,4.139v6.87c.01,1.504.22,2.642.63,3.413v.249h-4.277Zm-3.501-2.944c.625,0,1.201-.14,1.729-.418s.918-.651,1.172-1.12v-2.725h-1.582c-2.119,0-3.247.732-3.384,2.197l-.015.249c0,.527.186.962.557,1.304s.879.513,1.523.513Z"/><path d="m734.835,15.528c0-2.432.579-4.39,1.735-5.874,1.158-1.484,2.718-2.227,4.681-2.227,1.738,0,3.091.596,4.058,1.787l.176-1.494h3.838v15.322c0,1.387-.314,2.593-.945,3.618-.629,1.025-1.516,1.807-2.658,2.344s-2.48.806-4.014.806c-1.162,0-2.295-.232-3.398-.696s-1.938-1.062-2.505-1.794l1.875-2.578c1.055,1.182,2.334,1.772,3.838,1.772,1.123,0,1.997-.301,2.622-.901s.938-1.452.938-2.556v-.85c-.977,1.104-2.261,1.655-3.853,1.655-1.904,0-3.445-.745-4.622-2.234s-1.765-3.464-1.765-5.925v-.176Zm4.233.314c0,1.438.288,2.565.864,3.382.576.817,1.367,1.226,2.373,1.226,1.289,0,2.212-.484,2.769-1.453v-6.675c-.566-.968-1.479-1.452-2.739-1.452-1.016,0-1.814.416-2.396,1.247s-.871,2.073-.871,3.726Z"/><path d="m759.385,15.498c0-1.572.303-2.974.908-4.204s1.477-2.183,2.615-2.856c1.137-.674,2.458-1.011,3.962-1.011,2.139,0,3.884.654,5.237,1.963,1.352,1.309,2.106,3.086,2.263,5.332l.029,1.084c0,2.432-.679,4.382-2.036,5.852s-3.179,2.205-5.464,2.205-4.108-.732-5.472-2.197c-1.361-1.465-2.043-3.457-2.043-5.977v-.19Zm4.233.3c0,1.507.283,2.658.85,3.455.566.798,1.377,1.196,2.432,1.196,1.025,0,1.826-.394,2.402-1.182.576-.787.864-2.046.864-3.777,0-1.477-.288-2.621-.864-3.433s-1.387-1.218-2.432-1.218c-1.035,0-1.836.403-2.402,1.21-.566.808-.85,2.057-.85,3.748Z"/><path d="m778.164,23.57v-12.744h-2.358v-3.105h2.358v-1.348c0-1.777.51-3.157,1.531-4.139,1.02-.981,2.448-1.472,4.284-1.472.586,0,1.304.098,2.153.293l-.044,3.281c-.352-.088-.781-.132-1.289-.132-1.592,0-2.388.747-2.388,2.241v1.274h3.149v3.105h-3.149v12.744h-4.248Z"/><path d="m812.383,20.874c-.791.947-1.909,1.682-3.354,2.204s-3.047.784-4.805.784c-1.846,0-3.464-.403-4.856-1.209-1.391-.806-2.466-1.975-3.223-3.508s-1.145-3.335-1.164-5.405v-1.45c0-2.129.359-3.973,1.076-5.53.719-1.558,1.753-2.749,3.105-3.574s2.938-1.237,4.754-1.237c2.529,0,4.507.603,5.933,1.809s2.271,2.962,2.534,5.267h-4.277c-.195-1.221-.628-2.114-1.297-2.681s-1.589-.85-2.761-.85c-1.494,0-2.632.562-3.413,1.685s-1.177,2.793-1.187,5.01v1.362c0,2.236.425,3.926,1.274,5.068s2.095,1.714,3.735,1.714c1.65,0,2.827-.352,3.53-1.055v-3.677h-3.999v-3.237h8.394v8.511Z"/><path d="m824.571,11.69c-.576-.078-1.084-.117-1.523-.117-1.602,0-2.651.542-3.149,1.626v10.371h-4.233V7.72h3.999l.117,1.89c.85-1.455,2.026-2.183,3.53-2.183.469,0,.908.063,1.318.19l-.059,4.072Z"/><path d="m825.42,15.498c0-1.572.303-2.974.908-4.204s1.477-2.183,2.615-2.856c1.137-.674,2.458-1.011,3.962-1.011,2.139,0,3.884.654,5.237,1.963,1.352,1.309,2.106,3.086,2.263,5.332l.029,1.084c0,2.432-.679,4.382-2.036,5.852s-3.179,2.205-5.464,2.205-4.108-.732-5.472-2.197c-1.361-1.465-2.043-3.457-2.043-5.977v-.19Zm4.233.3c0,1.507.283,2.658.85,3.455.566.798,1.377,1.196,2.432,1.196,1.025,0,1.826-.394,2.402-1.182.576-.787.864-2.046.864-3.777,0-1.477-.288-2.621-.864-3.433s-1.387-1.218-2.432-1.218c-1.035,0-1.836.403-2.402,1.21-.566.808-.85,2.057-.85,3.748Z"/><path d="m849.634,20.449c.781,0,1.416-.215,1.904-.645s.742-1.001.762-1.714h3.97c-.01,1.074-.303,2.058-.879,2.951s-1.365,1.587-2.365,2.08c-1.002.493-2.107.74-3.318.74-2.266,0-4.053-.721-5.361-2.161s-1.963-3.43-1.963-5.969v-.278c0-2.441.649-4.39,1.948-5.845s3.081-2.183,5.347-2.183c1.982,0,3.571.563,4.768,1.691s1.805,2.63,1.824,4.505h-3.97c-.02-.824-.273-1.495-.762-2.011-.488-.515-1.133-.772-1.934-.772-.986,0-1.731.359-2.233,1.078-.504.719-.755,1.885-.755,3.499v.439c0,1.634.249,2.808.747,3.521s1.255,1.071,2.271,1.071Z"/><path d="m865.981,23.863c-2.324,0-4.217-.713-5.677-2.139s-2.189-3.325-2.189-5.698v-.41c0-1.592.308-3.016.923-4.271s1.487-2.222,2.614-2.9c1.129-.679,2.415-1.018,3.86-1.018,2.168,0,3.874.684,5.12,2.051,1.244,1.367,1.867,3.306,1.867,5.815v1.729h-10.093c.137,1.035.55,1.865,1.237,2.49.689.625,1.561.938,2.615.938,1.631,0,2.905-.591,3.823-1.772l2.08,2.329c-.635.898-1.494,1.599-2.578,2.102s-2.285.755-3.604.755Zm-.483-13.022c-.84,0-1.521.284-2.043.854-.523.568-.857,1.383-1.004,2.442h5.889v-.339c-.02-.941-.273-1.67-.762-2.185-.488-.516-1.182-.772-2.08-.772Z"/><path d="m883.809,11.69c-.576-.078-1.084-.117-1.523-.117-1.602,0-2.651.542-3.149,1.626v10.371h-4.233V7.72h3.999l.117,1.89c.85-1.455,2.026-2.183,3.53-2.183.469,0,.908.063,1.318.19l-.059,4.072Z"/><path d="m885.815,3.618c0-.635.212-1.157.638-1.567.424-.41,1.003-.615,1.735-.615.723,0,1.299.205,1.729.615s.645.933.645,1.567c0,.645-.218,1.172-.651,1.582-.436.41-1.009.615-1.722.615s-1.287-.205-1.722-.615-.651-.938-.651-1.582Zm4.497,19.951h-4.248V7.72h4.248v15.85Z"/><path d="m901.095,23.863c-2.324,0-4.217-.713-5.677-2.139s-2.189-3.325-2.189-5.698v-.41c0-1.592.308-3.016.923-4.271s1.487-2.222,2.614-2.9c1.129-.679,2.415-1.018,3.86-1.018,2.168,0,3.874.684,5.12,2.051,1.244,1.367,1.867,3.306,1.867,5.815v1.729h-10.093c.137,1.035.55,1.865,1.237,2.49.689.625,1.561.938,2.615.938,1.631,0,2.905-.591,3.823-1.772l2.08,2.329c-.635.898-1.494,1.599-2.578,2.102s-2.285.755-3.604.755Zm-.483-13.022c-.84,0-1.521.284-2.043.854-.523.568-.857,1.383-1.004,2.442h5.889v-.339c-.02-.941-.273-1.67-.762-2.185-.488-.516-1.182-.772-2.08-.772Z"/><path d="m918.599,19.19c0-.518-.257-.926-.769-1.224-.514-.298-1.336-.563-2.469-.798-3.77-.791-5.654-2.393-5.654-4.805,0-1.406.583-2.581,1.75-3.523s2.693-1.413,4.578-1.413c2.012,0,3.62.474,4.826,1.421s1.81,2.178,1.81,3.691h-4.233c0-.605-.195-1.106-.586-1.502s-1.001-.593-1.831-.593c-.713,0-1.265.161-1.655.483s-.586.732-.586,1.23c0,.469.222.847.666,1.135s1.194.537,2.249.747,1.943.447,2.666.711c2.236.82,3.354,2.241,3.354,4.263,0,1.445-.62,2.614-1.86,3.508s-2.842,1.341-4.805,1.341c-1.328,0-2.508-.237-3.538-.711s-1.838-1.123-2.424-1.948-.879-1.716-.879-2.673h4.014c.039.752.317,1.328.835,1.729s1.211.601,2.08.601c.811,0,1.423-.154,1.839-.462.414-.308.622-.71.622-1.208Z"/><path d="m602.285,737.451h-5.227v14.215h-3.516v-14.215h-5.156v-2.848h13.898v2.848Z"/><path d="m604.043,735.705c0-.508.17-.926.51-1.254s.803-.492,1.389-.492c.578,0,1.039.164,1.383.492s.516.746.516,1.254c0,.516-.174.938-.521,1.266s-.807.492-1.377.492-1.029-.164-1.377-.492-.521-.75-.521-1.266Zm3.598,15.961h-3.398v-12.68h3.398v12.68Z"/><path d="m613.605,738.987l.105,1.418c.898-1.102,2.113-1.652,3.645-1.652,1.633,0,2.754.645,3.363,1.934.891-1.289,2.16-1.934,3.809-1.934,1.375,0,2.398.4,3.07,1.201s1.008,2.006,1.008,3.615v8.098h-3.398v-8.086c0-.719-.141-1.244-.422-1.576s-.777-.498-1.488-.498c-1.016,0-1.719.484-2.109,1.453l.012,8.707h-3.387v-8.074c0-.734-.145-1.266-.434-1.594s-.781-.492-1.477-.492c-.961,0-1.656.398-2.086,1.195v8.965h-3.387v-12.68h3.176Z"/><path d="m637.043,751.901c-1.859,0-3.373-.57-4.541-1.711s-1.752-2.66-1.752-4.559v-.328c0-1.273.246-2.412.738-3.416s1.189-1.777,2.092-2.32,1.932-.814,3.088-.814c1.734,0,3.1.547,4.096,1.641s1.494,2.645,1.494,4.652v1.383h-8.074c.109.828.439,1.492.99,1.992s1.248.75,2.092.75c1.305,0,2.324-.473,3.059-1.418l1.664,1.863c-.508.719-1.195,1.279-2.062,1.682s-1.828.604-2.883.604Zm-.387-10.418c-.672,0-1.217.228-1.635.683-.418.456-.686,1.106-.803,1.954h4.711v-.271c-.016-.752-.219-1.336-.609-1.747-.391-.412-.945-.618-1.664-.618Z"/><path d="m650.309,744.729c0-1.789.238-3.492.715-5.109s1.18-3.049,2.109-4.295,1.938-2.111,3.023-2.596l.656,1.828c-1.141.844-2.031,2.148-2.672,3.914s-.961,3.828-.961,6.188v.363c0,2.367.316,4.438.949,6.211s1.527,3.098,2.684,3.973l-.656,1.793c-1.062-.477-2.053-1.318-2.971-2.525s-1.619-2.6-2.104-4.178-.742-3.227-.773-4.945v-.621Z"/><path d="m665.449,748.162c0-.414-.205-.74-.615-.979s-1.068-.451-1.975-.639c-3.016-.633-4.523-1.914-4.523-3.844,0-1.125.467-2.064,1.4-2.818s2.154-1.131,3.662-1.131c1.609,0,2.896.379,3.861,1.137s1.447,1.742,1.447,2.953h-3.387c0-.484-.156-.885-.469-1.201s-.801-.475-1.465-.475c-.57,0-1.012.129-1.324.387s-.469.586-.469.984c0,.375.178.678.533.908s.955.43,1.799.598,1.555.357,2.133.568c1.789.656,2.684,1.793,2.684,3.41,0,1.156-.496,2.092-1.488,2.807s-2.273,1.072-3.844,1.072c-1.062,0-2.006-.189-2.83-.568s-1.471-.898-1.939-1.559-.703-1.373-.703-2.139h3.211c.031.602.254,1.062.668,1.383s.969.48,1.664.48c.648,0,1.139-.123,1.471-.369s.498-.568.498-.967Z"/><path d="m676.758,744.998c0,1.766-.254,3.465-.762,5.098s-1.238,3.074-2.191,4.324-1.973,2.109-3.059,2.578l-.656-1.793c1.109-.836,1.984-2.125,2.625-3.867s.973-3.746.996-6.012v-.621c0-2.336-.318-4.395-.955-6.176s-1.525-3.117-2.666-4.008l.656-1.793c1.062.461,2.064,1.297,3.006,2.508s1.672,2.621,2.191,4.23.791,3.277.814,5.004v.527Z"/><path d="m75.35,512.281c0,2.539-.434,4.426-1.301,5.66s-2.223,1.852-4.066,1.852c-1.82,0-3.168-.604-4.043-1.811s-1.328-3.01-1.359-5.408v-2.895c0-2.508.434-4.371,1.301-5.59s2.227-1.828,4.078-1.828c1.836,0,3.188.588,4.055,1.764s1.312,2.99,1.336,5.443v2.812Zm-2.168-2.965c0-1.836-.258-3.174-.773-4.014s-1.332-1.26-2.449-1.26c-1.109,0-1.918.418-2.426,1.254s-.77,2.121-.785,3.855v3.469c0,1.844.268,3.205.803,4.084s1.346,1.318,2.432,1.318c1.07,0,1.865-.414,2.385-1.242s.791-2.133.814-3.914v-3.551Z"/><path d="m78.396,518.421c0-.375.111-.688.334-.938s.557-.375,1.002-.375.783.125,1.014.375.346.562.346.938c0,.359-.115.66-.346.902s-.568.363-1.014.363-.779-.121-1.002-.363-.334-.543-.334-.902Z"/><path d="m95.623,519.558h-11.18v-1.559l5.906-6.562c.875-.992,1.479-1.799,1.811-2.42s.498-1.264.498-1.928c0-.891-.27-1.621-.809-2.191s-1.258-.855-2.156-.855c-1.078,0-1.916.307-2.514.92s-.896,1.467-.896,2.561h-2.168c0-1.57.506-2.84,1.518-3.809s2.365-1.453,4.061-1.453c1.586,0,2.84.416,3.762,1.248s1.383,1.939,1.383,3.322c0,1.68-1.07,3.68-3.211,6l-4.57,4.957h8.566v1.77Z"/><path d="m108.619,512.281c0,2.539-.434,4.426-1.301,5.66s-2.223,1.852-4.066,1.852c-1.82,0-3.168-.604-4.043-1.811s-1.328-3.01-1.359-5.408v-2.895c0-2.508.434-4.371,1.301-5.59s2.227-1.828,4.078-1.828c1.836,0,3.188.588,4.055,1.764s1.312,2.99,1.336,5.443v2.812Zm-2.168-2.965c0-1.836-.258-3.174-.773-4.014s-1.332-1.26-2.449-1.26c-1.109,0-1.918.418-2.426,1.254s-.77,2.121-.785,3.855v3.469c0,1.844.268,3.205.803,4.084s1.346,1.318,2.432,1.318c1.07,0,1.865-.414,2.385-1.242s.791-2.133.814-3.914v-3.551Z"/><path d="m75.35,362.781c0,2.539-.434,4.426-1.301,5.66s-2.223,1.852-4.066,1.852c-1.82,0-3.168-.604-4.043-1.811s-1.328-3.01-1.359-5.408v-2.895c0-2.508.434-4.371,1.301-5.59s2.227-1.828,4.078-1.828c1.836,0,3.188.588,4.055,1.764s1.312,2.99,1.336,5.443v2.812Zm-2.168-2.965c0-1.836-.258-3.174-.773-4.014s-1.332-1.26-2.449-1.26c-1.109,0-1.918.418-2.426,1.254s-.77,2.121-.785,3.855v3.469c0,1.844.268,3.205.803,4.084s1.346,1.318,2.432,1.318c1.07,0,1.865-.414,2.385-1.242s.791-2.133.814-3.914v-3.551Z"/><path d="m78.396,368.921c0-.375.111-.688.334-.938s.557-.375,1.002-.375.783.125,1.014.375.346.562.346.938c0,.359-.115.66-.346.902s-.568.363-1.014.363-.779-.121-1.002-.363-.334-.543-.334-.902Z"/><path d="m93.596,364.327h2.367v1.77h-2.367v3.961h-2.18v-3.961h-7.77v-1.277l7.641-11.824h2.309v11.332Zm-7.488,0h5.309v-8.367l-.258.469-5.051,7.898Z"/><path d="m108.619,362.781c0,2.539-.434,4.426-1.301,5.66s-2.223,1.852-4.066,1.852c-1.82,0-3.168-.604-4.043-1.811s-1.328-3.01-1.359-5.408v-2.895c0-2.508.434-4.371,1.301-5.59s2.227-1.828,4.078-1.828c1.836,0,3.188.588,4.055,1.764s1.312,2.99,1.336,5.443v2.812Zm-2.168-2.965c0-1.836-.258-3.174-.773-4.014s-1.332-1.26-2.449-1.26c-1.109,0-1.918.418-2.426,1.254s-.77,2.121-.785,3.855v3.469c0,1.844.268,3.205.803,4.084s1.346,1.318,2.432,1.318c1.07,0,1.865-.414,2.385-1.242s.791-2.133.814-3.914v-3.551Z"/><path d="m75.35,213.281c0,2.539-.434,4.426-1.301,5.66s-2.223,1.852-4.066,1.852c-1.82,0-3.168-.604-4.043-1.811s-1.328-3.01-1.359-5.408v-2.895c0-2.508.434-4.371,1.301-5.59s2.227-1.828,4.078-1.828c1.836,0,3.188.588,4.055,1.764s1.312,2.99,1.336,5.443v2.812Zm-2.168-2.965c0-1.836-.258-3.174-.773-4.014s-1.332-1.26-2.449-1.26c-1.109,0-1.918.418-2.426,1.254s-.77,2.121-.785,3.855v3.469c0,1.844.268,3.205.803,4.084s1.346,1.318,2.432,1.318c1.07,0,1.865-.414,2.385-1.242s.791-2.133.814-3.914v-3.551Z"/><path d="m78.396,219.421c0-.375.111-.688.334-.938s.557-.375,1.002-.375.783.125,1.014.375.346.562.346.938c0,.359-.115.66-.346.902s-.568.363-1.014.363-.779-.121-1.002-.363-.334-.543-.334-.902Z"/><path d="m92.951,203.484v1.84h-.398c-1.688.031-3.031.531-4.031,1.5s-1.578,2.332-1.734,4.09c.898-1.031,2.125-1.547,3.68-1.547,1.484,0,2.67.523,3.557,1.57s1.33,2.398,1.33,4.055c0,1.758-.479,3.164-1.436,4.219s-2.24,1.582-3.85,1.582c-1.633,0-2.957-.627-3.973-1.881s-1.523-2.869-1.523-4.846v-.832c0-3.141.67-5.541,2.01-7.201s3.334-2.51,5.982-2.549h.387Zm-2.848,7.688c-.742,0-1.426.223-2.051.668s-1.059,1.004-1.301,1.676v.797c0,1.406.316,2.539.949,3.398s1.422,1.289,2.367,1.289c.977,0,1.744-.359,2.303-1.078s.838-1.66.838-2.824c0-1.172-.283-2.119-.85-2.842s-1.318-1.084-2.256-1.084Z"/><path d="m108.619,213.281c0,2.539-.434,4.426-1.301,5.66s-2.223,1.852-4.066,1.852c-1.82,0-3.168-.604-4.043-1.811s-1.328-3.01-1.359-5.408v-2.895c0-2.508.434-4.371,1.301-5.59s2.227-1.828,4.078-1.828c1.836,0,3.188.588,4.055,1.764s1.312,2.99,1.336,5.443v2.812Zm-2.168-2.965c0-1.836-.258-3.174-.773-4.014s-1.332-1.26-2.449-1.26c-1.109,0-1.918.418-2.426,1.254s-.77,2.121-.785,3.855v3.469c0,1.844.268,3.205.803,4.084s1.346,1.318,2.432,1.318c1.07,0,1.865-.414,2.385-1.242s.791-2.133.814-3.914v-3.551Z"/><path d="m75.35,63.781c0,2.539-.434,4.426-1.301,5.66s-2.223,1.852-4.066,1.852c-1.82,0-3.168-.604-4.043-1.811s-1.328-3.01-1.359-5.408v-2.895c0-2.508.434-4.371,1.301-5.59s2.227-1.828,4.078-1.828c1.836,0,3.188.588,4.055,1.764s1.312,2.99,1.336,5.443v2.812Zm-2.168-2.965c0-1.836-.258-3.174-.773-4.014s-1.332-1.26-2.449-1.26c-1.109,0-1.918.418-2.426,1.254s-.77,2.121-.785,3.855v3.469c0,1.844.268,3.205.803,4.084s1.346,1.318,2.432,1.318c1.07,0,1.865-.414,2.385-1.242s.791-2.133.814-3.914v-3.551Z"/><path d="m78.396,69.921c0-.375.111-.688.334-.938s.557-.375,1.002-.375.783.125,1.014.375.346.562.346.938c0,.359-.115.66-.346.902s-.568.363-1.014.363-.779-.121-1.002-.363-.334-.543-.334-.902Z"/><path d="m94.791,58.449c0,.852-.225,1.609-.674,2.273s-1.057,1.184-1.822,1.559c.891.383,1.596.941,2.115,1.676s.779,1.566.779,2.496c0,1.477-.498,2.652-1.494,3.527s-2.307,1.312-3.932,1.312c-1.641,0-2.955-.439-3.943-1.318s-1.482-2.053-1.482-3.521c0-.922.252-1.754.756-2.496s1.201-1.305,2.092-1.688c-.758-.375-1.355-.895-1.793-1.559s-.656-1.418-.656-2.262c0-1.438.461-2.578,1.383-3.422s2.137-1.266,3.645-1.266c1.5,0,2.713.422,3.639,1.266s1.389,1.984,1.389,3.422Zm-1.77,7.957c0-.953-.303-1.73-.908-2.332s-1.396-.902-2.373-.902-1.76.297-2.35.891-.885,1.375-.885,2.344.287,1.73.861,2.285,1.373.832,2.396.832c1.016,0,1.812-.279,2.391-.838s.867-1.318.867-2.279Zm-3.258-10.863c-.852,0-1.541.264-2.068.791s-.791,1.244-.791,2.15c0,.867.26,1.568.779,2.104s1.213.803,2.08.803,1.561-.268,2.08-.803.779-1.236.779-2.104-.27-1.574-.809-2.121-1.223-.82-2.051-.82Z"/><path d="m108.619,63.781c0,2.539-.434,4.426-1.301,5.66s-2.223,1.852-4.066,1.852c-1.82,0-3.168-.604-4.043-1.811s-1.328-3.01-1.359-5.408v-2.895c0-2.508.434-4.371,1.301-5.59s2.227-1.828,4.078-1.828c1.836,0,3.188.588,4.055,1.764s1.312,2.99,1.336,5.443v2.812Zm-2.168-2.965c0-1.836-.258-3.174-.773-4.014s-1.332-1.26-2.449-1.26c-1.109,0-1.918.418-2.426,1.254s-.77,2.121-.785,3.855v3.469c0,1.844.268,3.205.803,4.084s1.346,1.318,2.432,1.318c1.07,0,1.865-.414,2.385-1.242s.791-2.133.814-3.914v-3.551Z"/><line x1="134.915" y1="659.273" x2="1125.915" y2="659.273" fill="none" stroke="#000" stroke-miterlimit="10" stroke-width="2"/><line x1="135.511" y1="659.184" x2="135.511" y2="60.184" fill="none" stroke="#000" stroke-miterlimit="10" stroke-width="2"/><line x1="135.511" y1="509.548" x2="122.511" y2="509.548" fill="none" stroke="#000" stroke-miterlimit="10" stroke-width="2"/><line x1="135.511" y1="359.76" x2="122.511" y2="359.76" fill="none" stroke="#000" stroke-miterlimit="10" stroke-width="2"/><line x1="135.511" y1="209.972" x2="122.511" y2="209.972" fill="none" stroke="#000" stroke-miterlimit="10" stroke-width="2"/><line x1="135.511" y1="60.184" x2="122.511" y2="60.184" fill="none" stroke="#000" stroke-miterlimit="10" stroke-width="2"/><line x1="628.915" y1="510.336" x2="1124.915" y2="510.336" fill="none" stroke="#d12d32" stroke-miterlimit="10" stroke-width="2"/><line x1="135.915" y1="211.336" x2="630.915" y2="211.336" fill="none" stroke="#d12d32" stroke-miterlimit="10" stroke-width="2"/><path d="m459.976,706.867h-2.18v-14.449l-4.371,1.605v-1.969l6.211-2.332h.34v17.145Z"/><path d="m477.027,699.59c0,2.539-.434,4.426-1.301,5.66s-2.223,1.852-4.066,1.852c-1.82,0-3.168-.604-4.043-1.811s-1.328-3.01-1.359-5.408v-2.895c0-2.508.434-4.371,1.301-5.59s2.227-1.828,4.078-1.828c1.836,0,3.188.588,4.055,1.764s1.312,2.99,1.336,5.443v2.812Zm-2.168-2.965c0-1.836-.258-3.174-.773-4.014s-1.332-1.26-2.449-1.26c-1.109,0-1.918.418-2.426,1.254s-.77,2.121-.785,3.855v3.469c0,1.844.268,3.205.803,4.084s1.346,1.318,2.432,1.318c1.07,0,1.865-.414,2.385-1.242s.791-2.133.814-3.914v-3.551Z"/><path d="m295.588,698.313l.867-8.508h8.742v2.004h-6.902l-.516,4.652c.836-.492,1.785-.738,2.848-.738,1.555,0,2.789.514,3.703,1.541s1.371,2.416,1.371,4.166-.475,3.143-1.424,4.154-2.275,1.518-3.979,1.518c-1.508,0-2.738-.418-3.691-1.254s-1.496-1.992-1.629-3.469h2.051c.133.977.48,1.713,1.043,2.209s1.305.744,2.227.744c1.008,0,1.799-.344,2.373-1.031s.861-1.637.861-2.848c0-1.141-.311-2.057-.932-2.748s-1.447-1.037-2.479-1.037c-.945,0-1.688.207-2.227.621l-.574.469-1.734-.445Z"/><path d="m624.975,706.867h-2.18v-14.449l-4.371,1.605v-1.969l6.211-2.332h.34v17.145Z"/><path d="m632.322,698.313l.867-8.508h8.742v2.004h-6.902l-.516,4.652c.836-.492,1.785-.738,2.848-.738,1.555,0,2.789.514,3.703,1.541s1.371,2.416,1.371,4.166-.475,3.143-1.424,4.154-2.275,1.518-3.979,1.518c-1.508,0-2.738-.418-3.691-1.254s-1.496-1.992-1.629-3.469h2.051c.133.977.48,1.713,1.043,2.209s1.305.744,2.227.744c1.008,0,1.799-.344,2.373-1.031s.861-1.637.861-2.848c0-1.141-.311-2.057-.932-2.748s-1.447-1.037-2.479-1.037c-.945,0-1.688.207-2.227.621l-.574.469-1.734-.445Z"/><path d="m959.024,706.867h-11.18v-1.559l5.906-6.562c.875-.992,1.479-1.799,1.811-2.42s.498-1.264.498-1.928c0-.891-.27-1.621-.809-2.191s-1.258-.855-2.156-.855c-1.078,0-1.916.307-2.514.92s-.896,1.467-.896,2.561h-2.168c0-1.57.506-2.84,1.518-3.809s2.365-1.453,4.061-1.453c1.586,0,2.84.416,3.762,1.248s1.383,1.939,1.383,3.322c0,1.68-1.07,3.68-3.211,6l-4.57,4.957h8.566v1.77Z"/><path d="m962.317,698.313l.867-8.508h8.742v2.004h-6.902l-.516,4.652c.836-.492,1.785-.738,2.848-.738,1.555,0,2.789.514,3.703,1.541s1.371,2.416,1.371,4.166-.475,3.143-1.424,4.154-2.275,1.518-3.979,1.518c-1.508,0-2.738-.418-3.691-1.254s-1.496-1.992-1.629-3.469h2.051c.133.977.48,1.713,1.043,2.209s1.305.744,2.227.744c1.008,0,1.799-.344,2.373-1.031s.861-1.637.861-2.848c0-1.141-.311-2.057-.932-2.748s-1.447-1.037-2.479-1.037c-.945,0-1.688.207-2.227.621l-.574.469-1.734-.445Z"/><path d="m794.026,706.867h-11.18v-1.559l5.906-6.562c.875-.992,1.479-1.799,1.811-2.42s.498-1.264.498-1.928c0-.891-.27-1.621-.809-2.191s-1.258-.855-2.156-.855c-1.078,0-1.916.307-2.514.92s-.896,1.467-.896,2.561h-2.168c0-1.57.506-2.84,1.518-3.809s2.365-1.453,4.061-1.453c1.586,0,2.84.416,3.762,1.248s1.383,1.939,1.383,3.322c0,1.68-1.07,3.68-3.211,6l-4.57,4.957h8.566v1.77Z"/><path d="m807.022,699.59c0,2.539-.434,4.426-1.301,5.66s-2.223,1.852-4.066,1.852c-1.82,0-3.168-.604-4.043-1.811s-1.328-3.01-1.359-5.408v-2.895c0-2.508.434-4.371,1.301-5.59s2.227-1.828,4.078-1.828c1.836,0,3.188.588,4.055,1.764s1.312,2.99,1.336,5.443v2.812Zm-2.168-2.965c0-1.836-.258-3.174-.773-4.014s-1.332-1.26-2.449-1.26c-1.109,0-1.918.418-2.426,1.254s-.77,2.121-.785,3.855v3.469c0,1.844.268,3.205.803,4.084s1.346,1.318,2.432,1.318c1.07,0,1.865-.414,2.385-1.242s.791-2.133.814-3.914v-3.551Z"/><path d="m1115.995,697.282h1.629c1.023-.016,1.828-.285,2.414-.809s.879-1.23.879-2.121c0-2-.996-3-2.988-3-.938,0-1.686.268-2.244.803s-.838,1.244-.838,2.127h-2.168c0-1.352.494-2.475,1.482-3.369s2.244-1.342,3.768-1.342c1.609,0,2.871.426,3.785,1.277s1.371,2.035,1.371,3.551c0,.742-.24,1.461-.721,2.156s-1.135,1.215-1.963,1.559c.938.297,1.662.789,2.174,1.477s.768,1.527.768,2.52c0,1.531-.5,2.746-1.5,3.645s-2.301,1.348-3.902,1.348-2.904-.434-3.908-1.301-1.506-2.012-1.506-3.434h2.18c0,.898.293,1.617.879,2.156s1.371.809,2.355.809c1.047,0,1.848-.273,2.402-.82s.832-1.332.832-2.355c0-.992-.305-1.754-.914-2.285s-1.488-.805-2.637-.82h-1.629v-1.77Z"/><path d="m1137.018,699.59c0,2.539-.434,4.426-1.301,5.66s-2.223,1.852-4.066,1.852c-1.82,0-3.168-.604-4.043-1.811s-1.328-3.01-1.359-5.408v-2.895c0-2.508.434-4.371,1.301-5.59s2.227-1.828,4.078-1.828c1.836,0,3.188.588,4.055,1.764s1.312,2.99,1.336,5.443v2.812Zm-2.168-2.965c0-1.836-.258-3.174-.773-4.014s-1.332-1.26-2.449-1.26c-1.109,0-1.918.418-2.426,1.254s-.77,2.121-.785,3.855v3.469c0,1.844.268,3.205.803,4.084s1.346,1.318,2.432,1.318c1.07,0,1.865-.414,2.385-1.242s.791-2.133.814-3.914v-3.551Z"/><path d="m18.583,480.91l-12.832-3.85v-3.896l17.062,5.915v3.651l-17.062,5.891v-3.885l12.832-3.826Z"/><path d="m23.048,466.491c0,1.851-.57,3.358-1.711,4.521-1.141,1.163-2.66,1.744-4.559,1.744h-.328c-1.273,0-2.412-.245-3.416-.735-1.004-.489-1.777-1.184-2.32-2.082s-.814-1.923-.814-3.074c0-1.727.547-3.085,1.641-4.077,1.094-.991,2.645-1.487,4.652-1.487h1.383v8.038c.828-.109,1.492-.438,1.992-.986.5-.548.75-1.242.75-2.082,0-1.299-.473-2.313-1.418-3.045l1.863-1.656c.719.506,1.279,1.189,1.682,2.053s.604,1.82.604,2.87Zm-10.418.385c0,.669.228,1.212.683,1.628s1.106.683,1.954.799v-4.689h-.271c-.754.016-1.336.218-1.748.606s-.618.941-.618,1.656Z"/><path d="m22.813,455.829v3.383H4.813v-3.383h18Z"/><path d="m16.356,453.578c-1.258,0-2.379-.241-3.363-.724s-1.746-1.177-2.285-2.082c-.539-.906-.809-1.958-.809-3.156,0-1.703.523-3.093,1.57-4.17s2.469-1.678,4.266-1.803l.867-.023c1.945,0,3.506.541,4.682,1.622s1.764,2.531,1.764,4.351-.586,3.272-1.758,4.357-2.766,1.628-4.781,1.628h-.152Zm.24-3.372c1.205,0,2.127-.226,2.764-.677.639-.45.957-1.096.957-1.937,0-.816-.314-1.454-.945-1.913-.629-.459-1.637-.688-3.021-.688-1.182,0-2.097.229-2.746.688s-.975,1.104-.975,1.937c0,.825.323,1.463.969,1.913.646.451,1.645.677,2.998.677Z"/><path d="m20.317,434.294c0-.622-.172-1.127-.516-1.517-.344-.389-.801-.591-1.371-.606v-3.161c.859.008,1.646.241,2.361.7s1.27,1.087,1.664,1.884.592,1.678.592,2.643c0,1.804-.576,3.228-1.729,4.27s-2.744,1.563-4.775,1.563h-.223c-1.953,0-3.512-.518-4.676-1.552s-1.746-2.454-1.746-4.258c0-1.579.451-2.845,1.354-3.798.902-.952,2.104-1.437,3.604-1.452v3.161c-.659.016-1.195.218-1.608.606-.412.39-.618.902-.618,1.54,0,.786.288,1.379.862,1.779.575.4,1.509.601,2.8.601h.352c1.307,0,2.246-.198,2.817-.595s.856-.999.856-1.809Z"/><path d="m6.852,427.108c-.508,0-.926-.169-1.254-.508-.328-.338-.492-.799-.492-1.382,0-.576.164-1.034.492-1.377.328-.342.746-.514,1.254-.514.516,0,.938.174,1.266.52.328.347.492.803.492,1.371s-.164,1.024-.492,1.37c-.328.347-.75.52-1.266.52Zm15.961-3.581v3.383h-12.68v-3.383h12.68Z"/><path d="m7.017,416.714h3.117v-2.158h2.484v2.158h6.328c.469,0,.805-.09,1.008-.269s.305-.521.305-1.026c0-.373-.027-.704-.082-.992h2.566c.203.661.305,1.342.305,2.042,0,2.364-1.199,3.569-3.598,3.616h-6.832v1.844h-2.484v-1.844h-3.117v-3.371Z"/><path d="m18.02,407.964l-7.887-2.333v-3.616l14.648,5.074.668.28c1.656.754,2.484,1.999,2.484,3.732,0,.49-.074.988-.223,1.493h-2.566l.012-.513c0-.638-.098-1.114-.293-1.43-.195-.314-.52-.562-.973-.74l-1.043-.396-12.715,4.421v-3.628l7.887-2.345Z"/><path d="m15.876,394.584c-1.789,0-3.492-.237-5.109-.712s-3.049-1.174-4.295-2.1-2.111-1.929-2.596-3.01l1.828-.653c.844,1.136,2.148,2.022,3.914,2.659,1.766.639,3.828.957,6.188.957h.363c2.367,0,4.438-.315,6.211-.945s3.098-1.52,3.973-2.671l1.793.653c-.477,1.058-1.318,2.043-2.525,2.957s-2.6,1.612-4.178,2.094c-1.578.482-3.227.739-4.945.771h-.621Z"/><path d="m10.134,383.187l1.418-.105c-1.102-.895-1.652-2.104-1.652-3.628,0-1.625.645-2.741,1.934-3.348-1.289-.887-1.934-2.15-1.934-3.792,0-1.368.4-2.388,1.201-3.057.801-.668,2.006-1.003,3.615-1.003h8.098v3.383h-8.086c-.719,0-1.244.141-1.576.42-.332.28-.498.774-.498,1.482,0,1.011.484,1.711,1.453,2.1l8.707-.012v3.371h-8.074c-.734,0-1.266.145-1.594.432-.328.288-.492.778-.492,1.47,0,.957.398,1.649,1.195,2.077h8.965v3.371h-12.68v-3.161Z"/><path d="m24.278,364.603v2.508l-18.527-6.253v-2.508l18.527,6.253Z"/><path d="m19.309,349.905c-.414,0-.74.204-.979.612s-.451,1.063-.639,1.966c-.633,3.002-1.914,4.503-3.844,4.503-1.125,0-2.064-.465-2.818-1.395-.754-.929-1.131-2.145-1.131-3.646,0-1.602.379-2.883,1.137-3.844.758-.96,1.742-1.44,2.953-1.44v3.371c-.484,0-.885.156-1.201.467-.316.312-.475.797-.475,1.458,0,.568.129,1.008.387,1.318.258.312.586.467.984.467.375,0,.678-.177.908-.531.23-.354.43-.95.598-1.79s.357-1.548.568-2.123c.656-1.781,1.793-2.672,3.41-2.672,1.156,0,2.092.494,2.807,1.481.715.988,1.072,2.264,1.072,3.826,0,1.059-.189,1.997-.568,2.817-.379.821-.898,1.464-1.559,1.931s-1.373.7-2.139.7v-3.196c.602-.031,1.062-.253,1.383-.665s.48-.964.48-1.656c0-.646-.123-1.134-.369-1.464-.246-.331-.568-.496-.967-.496Z"/><path d="m16.145,338.647c1.766,0,3.465.253,5.098.759,1.633.505,3.074,1.232,4.324,2.181,1.25.949,2.109,1.964,2.578,3.045l-1.793.653c-.836-1.104-2.125-1.976-3.867-2.613s-3.746-.968-6.012-.991h-.621c-2.336,0-4.395.317-6.176.951s-3.117,1.519-4.008,2.653l-1.793-.653c.461-1.058,1.297-2.055,2.508-2.992,1.211-.937,2.621-1.664,4.23-2.182,1.609-.517,3.277-.787,5.004-.811h.527Z"/><path d="m5.575,324.94v1.656h18.598v-1.656h2.613v5.04H2.962v-5.04h2.613Z"/><path d="m22.813,322.524h-10.195v1.879h-2.484v-1.879h-1.078c-1.422,0-2.525-.406-3.311-1.219s-1.178-1.95-1.178-3.412c0-.467.078-1.038.234-1.715l2.625.035c-.07.279-.105.622-.105,1.026,0,1.268.598,1.901,1.793,1.901h1.02v-2.508h2.484v2.508h10.195v3.383Z"/><path d="m16.356,315.408c-1.258,0-2.379-.241-3.363-.724s-1.746-1.177-2.285-2.082c-.539-.906-.809-1.958-.809-3.156,0-1.703.523-3.093,1.57-4.17s2.469-1.678,4.266-1.803l.867-.023c1.945,0,3.506.541,4.682,1.622s1.764,2.531,1.764,4.351-.586,3.272-1.758,4.357-2.766,1.628-4.781,1.628h-.152Zm.24-3.372c1.205,0,2.127-.226,2.764-.677.639-.45.957-1.096.957-1.937,0-.816-.314-1.454-.945-1.913-.629-.459-1.637-.688-3.021-.688-1.182,0-2.097.229-2.746.688s-.975,1.104-.975,1.937c0,.825.323,1.463.969,1.913.646.451,1.645.677,2.998.677Z"/><path d="m13.309,294.282c-.062.459-.094.863-.094,1.213,0,1.276.434,2.112,1.301,2.509h8.297v3.371h-12.68v-3.185l1.512-.094c-1.164-.677-1.746-1.613-1.746-2.812,0-.373.051-.723.152-1.05l3.258.047Z"/><path d="m18.208,281.485l-8.074-1.656v-3.255l12.68,3.22v2.823l-7.98,2.392,7.98,2.392v2.811l-12.68,3.221v-3.255l8.062-1.646-8.062-2.31v-2.438l8.074-2.298Z"/><path d="m22.813,267.59c-.305.155-.684.269-1.137.338.914.817,1.371,1.879,1.371,3.186,0,1.236-.359,2.261-1.078,3.073-.719.813-1.625,1.22-2.719,1.22-1.344,0-2.375-.496-3.094-1.487-.719-.992-1.082-2.425-1.09-4.299v-1.552h-.727c-.586,0-1.055.149-1.406.449-.352.299-.527.771-.527,1.417,0,.568.137,1.014.41,1.336s.648.484,1.125.484v3.371c-.734,0-1.414-.226-2.039-.677s-1.115-1.089-1.471-1.913-.533-1.75-.533-2.776c0-1.556.393-2.79,1.178-3.704s1.889-1.37,3.311-1.37h5.496c1.203-.008,2.113-.176,2.73-.502h.199v3.406Zm-2.355,2.788c0-.497-.111-.956-.334-1.377-.223-.42-.521-.73-.896-.933h-2.18v1.26c0,1.688.586,2.586,1.758,2.694l.199.012c.422,0,.77-.147,1.043-.443.273-.295.41-.699.41-1.213Z"/><path d="m13.309,255.003c-.062.459-.094.863-.094,1.213,0,1.276.434,2.112,1.301,2.509h8.297v3.371h-12.68v-3.185l1.512-.094c-1.164-.677-1.746-1.613-1.746-2.812,0-.373.051-.723.152-1.05l3.258.047Z"/><path d="m16.38,254.128c-1.977,0-3.551-.441-4.723-1.324s-1.758-2.09-1.758-3.622c0-1.229.461-2.244,1.383-3.045h-6.469v-3.384h18v3.045l-1.348.164c1.055.84,1.582,1.921,1.582,3.242,0,1.486-.588,2.678-1.764,3.576s-2.811,1.348-4.904,1.348Zm.252-3.372c1.189,0,2.102-.206,2.734-.618.635-.412.951-1.011.951-1.797,0-1.042-.442-1.776-1.326-2.204h-5.012c-.884.42-1.326,1.147-1.326,2.182,0,1.625,1.326,2.438,3.979,2.438Z"/><path d="m2.962,241.284v-5.04h23.824v5.04h-2.613v-1.669H5.575v1.669h-2.613Z"/><line x1="629.915" y1="510.336" x2="629.915" y2="507.336" fill="none" stroke="#d12d32" stroke-miterlimit="10" stroke-width="2"/><line x1="629.915" y1="501.357" x2="629.915" y2="217.326" fill="none" stroke="#d12d32" stroke-dasharray="0 0 5.98 5.98" stroke-miterlimit="10" stroke-width="2"/><line x1="629.915" y1="214.336" x2="629.915" y2="211.336" fill="none" stroke="#d12d32" stroke-miterlimit="10" stroke-width="2"/><path d="m108.619,699.59c0,2.539-.434,4.426-1.301,5.66s-2.223,1.852-4.066,1.852c-1.82,0-3.168-.604-4.043-1.811s-1.328-3.01-1.359-5.408v-2.895c0-2.508.434-4.371,1.301-5.59s2.227-1.828,4.078-1.828c1.836,0,3.188.588,4.055,1.764s1.312,2.99,1.336,5.443v2.812Zm-2.168-2.965c0-1.836-.258-3.174-.773-4.014s-1.332-1.26-2.449-1.26c-1.109,0-1.918.418-2.426,1.254s-.77,2.121-.785,3.855v3.469c0,1.844.268,3.205.803,4.084s1.346,1.318,2.432,1.318c1.07,0,1.865-.414,2.385-1.242s.791-2.133.814-3.914v-3.551Z"/><line x1="1124.901" y1="660.365" x2="1124.901" y2="673.365" fill="none" stroke="#000" stroke-miterlimit="10" stroke-width="2"/><line x1="794.906" y1="660.336" x2="794.906" y2="673.336" fill="none" stroke="#000" stroke-miterlimit="10" stroke-width="2"/><line x1="959.903" y1="660.336" x2="959.903" y2="673.336" fill="none" stroke="#000" stroke-miterlimit="10" stroke-width="2"/><line x1="629.908" y1="660.365" x2="629.908" y2="673.365" fill="none" stroke="#000" stroke-miterlimit="10" stroke-width="2"/><line x1="464.91" y1="660.336" x2="464.91" y2="673.336" fill="none" stroke="#000" stroke-miterlimit="10" stroke-width="2"/><line x1="299.913" y1="660.365" x2="299.913" y2="673.365" fill="none" stroke="#000" stroke-miterlimit="10" stroke-width="2"/></svg>