<?xml version="1.0" encoding="UTF-8"?><svg id="o" xmlns="http://www.w3.org/2000/svg" width="570" height="197" viewBox="0 0 570 197"><path d="m189.82,12.33c21.59-.56,43.31-.43,64.68-1.39,56.19-2.53,110.8-12.71,167.09-7.56,73.48,6.72,112.8,51.59,112.89,91.25.25,107.13-287.47,115.88-406.81,83.18-44.29-12.14-86.2-29.88-99.72-58.26C10.91,83.74,44.51,38.59,106.61,22.09c26.77-7.11,54.88-9.03,83.22-9.76Z" fill="#e3dae5"/><path d="m184.77,72.83c.03-2.56-.08-3.35-3.59-3.35h-4.05l-1.46,7.02h3c2.29,0,2.86-.51,3.32-2.67h.86l-1.24,6.29h-.89c.43-2.29,0-2.59-2.32-2.59h-2.92l-1.16,5.78c-.08.35-.11.67-.11.92,0,.94.86,1.13,2.54,1.13l-.14.81h-7.77l.16-.81c1.86,0,2.51-.32,2.92-2.32l2.4-11.55c.38-1.86.08-2.24-2.1-2.24l.16-.81h13.93l-.73,4.4h-.81Z"/><path d="m187.13,93.26c-.05.25-.08.55-.08.66,0,.21.11.3.3.3.54,0,.94-.54,1.2-.82l.31.24c-.55.77-1.17,1.65-2.2,1.65-.63,0-.99-.28-.99-.83,0-.41.14-1.17.22-1.57l1.53-7.31s.05-.25.05-.5c0-.21-.06-.47-.49-.47-.28,0-.54.03-.54.03v-.41l2.17-.17h.35l-1.83,9.21Z"/><path d="m195.1,93.47c-.94,1.42-2.03,1.87-3.04,1.87-1.73,0-2.31-1.37-2.31-2.76,0-2.27,1.57-4.98,4.13-4.98.68,0,1.68.19,1.68,1.42,0,1.98-2.65,2.8-4.49,2.95v.2c0,1.59.57,2.08,1.62,2.08.79,0,1.51-.27,2.13-1.02l.28.24Zm-.9-4.5c0-.57-.19-.87-.66-.87-1.17,0-2.14,1.86-2.44,3.42,1.75-.11,3.1-1.04,3.1-2.55Z"/><path d="m197.96,87.8c.19-.88.38-1.73.74-2.38.41-.74,1.06-1.46,2.41-1.46.96,0,1.5.47,1.5,1.15,0,.46-.3.69-.63.69-.42,0-.58-.28-.63-.61-.06-.39-.09-.77-.47-.77-.8,0-1.23.93-1.46,2.27l-.19,1.12h1.5l-.09.65h-1.48l-.9,5.37c-.22,1.35-.91,4.88-3.07,4.88-1.01,0-1.4-.58-1.4-1.13,0-.44.22-.77.63-.77.94,0,.43,1.4,1.02,1.4.83,0,1.24-2.58,1.42-3.62l1.02-6.12h-1.32l.06-.65h1.35Z"/><path d="m205.19,88.41h-1.59l-.93,4.69s-.11.52-.11.79c0,.17.05.33.27.33.46,0,.79-.24,1.34-.95l.31.24c-.46.61-1.12,1.78-2.36,1.78-.66,0-.96-.35-.96-.83,0-.27.08-.74.11-.9l1.07-5.15h-.9l.06-.33c1.01-.52,1.4-.9,2.19-2.27h.47l-.44,1.98h1.59l-.13.61Z"/><path d="m377.22,72.83c.03-2.56-.08-3.35-3.59-3.35h-4.05l-1.46,7.02h3c2.29,0,2.86-.51,3.32-2.67h.86l-1.24,6.29h-.89c.43-2.29,0-2.59-2.32-2.59h-2.92l-1.16,5.78c-.08.35-.11.67-.11.92,0,.94.86,1.13,2.54,1.13l-.14.81h-7.77l.16-.81c1.86,0,2.51-.32,2.92-2.32l2.4-11.55c.38-1.86.08-2.24-2.11-2.24l.16-.81h13.93l-.73,4.4h-.81Z"/><path d="m380.34,91.08c.5-1.06,1.45-3.46,2.72-3.46.49,0,.87.3.87.91,0,.69-.43.99-.83.99-.5,0-.66-.58-.71-.58-.76,0-2.17,3.39-2.42,4.01l-.47,2.21h-1.34l1.17-5.48c.06-.28.14-.69.14-.98,0-.3-.08-.47-.52-.47-.17,0-.49.03-.49.03v-.42l2.19-.17h.35l-.8,3.42h.16Z"/><path d="m385.68,93.26s-.08.44-.08.66c0,.21.09.3.28.3.54,0,.98-.54,1.23-.82l.31.24c-.55.77-1.17,1.65-2.2,1.65-.63,0-.99-.28-.99-.83,0-.27.06-.61.27-1.54l.8-3.75s.05-.22.05-.49c0-.21-.08-.46-.5-.46-.27,0-.54.03-.54.03v-.42l2.21-.17h.35l-1.18,5.61Zm.69-6.87c-.47,0-.82-.3-.82-.85s.35-.87.87-.87.82.35.82.87-.39.85-.87.85Z"/><path d="m394.92,88.6l-1.37-.16v.05c.25.3.57.91.57,1.64,0,1.35-1.12,2.49-3.17,2.57-.69.03-1.01.46-1.01.83,0,.95,4.11.46,4.11,2.79,0,1.37-1.18,2.38-3.46,2.38s-3.23-.79-3.23-1.97c0-.94.94-1.51,1.89-1.79v-.06c-.28-.17-.55-.47-.55-.93,0-.69.58-1.15,1.21-1.4v-.09c-.65-.28-1.37-.83-1.37-2.12,0-1.58,1.28-2.71,2.99-2.71.66,0,1.04.08,1.37.19h2.11l-.09.8Zm-5.31,6.5c-.5.3-1.02.68-1.02,1.51s.66,1.53,2.11,1.53c1.53,0,2.22-.47,2.22-1.23,0-1.15-2.16-1.57-3.31-1.81Zm1.89-7.02c-.91,0-1.56.82-1.56,2.11s.3,2.02,1.18,2.02c1.09,0,1.59-.99,1.59-2.32,0-1.01-.39-1.81-1.21-1.81Z"/><path d="m403.12,93.63c-.41.58-1.04,1.68-2.17,1.68-.79,0-1.02-.46-1.02-.93,0-.25.05-.54.08-.61l.93-3.64s.11-.44.11-.76c0-.36-.11-.63-.46-.63-1.13,0-2.88,2.83-3.37,3.92l-.54,2.49h-1.29l1.97-9.61s.05-.3.05-.54-.19-.41-.5-.41c-.21,0-.54.03-.54.03v-.41l2.16-.17h.36l-1.51,7.02h.13c.65-1.18,2.06-3.46,3.87-3.46.79,0,1.02.55,1.02,1.12,0,.41-.09.94-.14,1.17l-.88,3.64s-.06.19-.06.38c0,.17.09.3.3.3.57,0,.94-.52,1.18-.82l.33.24Z"/><path d="m408.43,88.41h-1.59l-.93,4.69s-.11.52-.11.79c0,.17.05.33.27.33.46,0,.79-.24,1.34-.95l.32.24c-.46.61-1.12,1.78-2.36,1.78-.66,0-.96-.35-.96-.83,0-.27.08-.74.11-.9l1.07-5.15h-.9l.06-.33c1.01-.52,1.4-.9,2.19-2.27h.47l-.44,1.98h1.59l-.13.61Z"/><rect x="277.5" y="97" width="15" height="15" rx="7.5" ry="7.5" transform="translate(9.58 232.13) rotate(-45)"/><line x1="97.47" y1="104.5" x2="469.52" y2="104.5" fill="none" stroke="#000" stroke-miterlimit="10" stroke-width="2"/><polygon points="99.81 112.48 85.99 104.5 99.81 96.52 99.81 112.48"/><polygon points="467.18 112.48 481 104.5 467.18 96.52 467.18 112.48"/><path d="m177.69,123.48c0,.85-.22,1.61-.67,2.27s-1.06,1.18-1.82,1.56c.89.38,1.6.94,2.12,1.68s.78,1.57.78,2.5c0,1.48-.5,2.65-1.49,3.53s-2.31,1.31-3.93,1.31-2.96-.44-3.94-1.32-1.48-2.05-1.48-3.52c0-.92.25-1.75.76-2.5s1.2-1.3,2.09-1.69c-.76-.38-1.36-.89-1.79-1.56s-.66-1.42-.66-2.26c0-1.44.46-2.58,1.38-3.42s2.14-1.27,3.64-1.27,2.71.42,3.64,1.27,1.39,1.98,1.39,3.42Zm-1.77,7.96c0-.95-.3-1.73-.91-2.33s-1.4-.9-2.37-.9-1.76.3-2.35.89-.88,1.38-.88,2.34.29,1.73.86,2.29,1.37.83,2.4.83,1.81-.28,2.39-.84.87-1.32.87-2.28Zm-3.26-10.86c-.85,0-1.54.26-2.07.79s-.79,1.24-.79,2.15.26,1.57.78,2.1,1.21.8,2.08.8,1.56-.27,2.08-.8.78-1.24.78-2.1-.27-1.57-.81-2.12-1.22-.82-2.05-.82Z"/><path d="m200.43,136.09h-2.26l-8.59-13.15v13.15h-2.26v-17.06h2.26l8.61,13.21v-13.21h2.24v17.06Z"/><path d="m375.53,123.48c0,.85-.22,1.61-.67,2.27s-1.06,1.18-1.82,1.56c.89.38,1.6.94,2.12,1.68s.78,1.57.78,2.5c0,1.48-.5,2.65-1.49,3.53s-2.31,1.31-3.93,1.31-2.96-.44-3.94-1.32-1.48-2.05-1.48-3.52c0-.92.25-1.75.76-2.5s1.2-1.3,2.09-1.69c-.76-.38-1.36-.89-1.79-1.56s-.66-1.42-.66-2.26c0-1.44.46-2.58,1.38-3.42s2.14-1.27,3.64-1.27,2.71.42,3.64,1.27,1.39,1.98,1.39,3.42Zm-1.77,7.96c0-.95-.3-1.73-.91-2.33s-1.4-.9-2.37-.9-1.76.3-2.35.89-.88,1.38-.88,2.34.29,1.73.86,2.29,1.37.83,2.4.83,1.81-.28,2.39-.84.87-1.32.87-2.28Zm-3.26-10.86c-.85,0-1.54.26-2.07.79s-.79,1.24-.79,2.15.26,1.57.78,2.1,1.21.8,2.08.8,1.56-.27,2.08-.8.78-1.24.78-2.1-.27-1.57-.81-2.12-1.22-.82-2.05-.82Z"/><path d="m398.27,136.09h-2.26l-8.59-13.15v13.15h-2.26v-17.06h2.26l8.61,13.21v-13.21h2.24v17.06Z"/></svg>