<?xml version="1.0" encoding="UTF-8"?>
<svg id="Layer_1" data-name="Layer 1" xmlns="http://www.w3.org/2000/svg" width="570" height="408" xmlns:xlink="http://www.w3.org/1999/xlink" viewBox="0 0 570 408">
  <defs>
    <style>
      .cls-1, .cls-2, .cls-3 {
        fill: none;
      }

      .cls-4 {
        clip-path: url(#clippath);
      }

      .cls-5 {
        fill: #69b26e;
      }

      .cls-6 {
        fill: #001415;
      }

      .cls-7 {
        fill: #fff;
      }

      .cls-8 {
        fill: #6b6666;
      }

      .cls-9 {
        fill: #9fe2de;
      }

      .cls-10 {
        fill: #b9b9b8;
      }

      .cls-11 {
        fill: #b5aaaa;
      }

      .cls-12 {
        fill: #aaa;
      }

      .cls-13 {
        fill: #af502e;
      }

      .cls-14 {
        fill: #dff3f7;
      }

      .cls-15 {
        fill: #c87550;
      }

      .cls-16 {
        fill: #c93f3f;
      }

      .cls-17 {
        fill: #231f20;
      }

      .cls-18 {
        fill: #423e3e;
      }

      .cls-19 {
        fill: #5c539c;
      }

      .cls-20 {
        fill: #2b2727;
      }

      .cls-21 {
        fill: #474343;
      }

      .cls-22 {
        fill: #2d2b2b;
      }

      .cls-23 {
        fill: #7c7474;
      }

      .cls-2, .cls-3 {
        stroke: #000;
        stroke-miterlimit: 10;
        stroke-width: 2px;
      }

      .cls-3 {
        stroke-dasharray: 0 0 6 6;
      }
    </style>
    <clipPath id="clippath">
      <path class="cls-1" d="m560.31,258.41c4.69,37.1,16.69,79.05-8.31,110.02-47,57.94-129.4,31.87-194.76,30.53-15.2-.31-30.69-.6-46.27-.37-8.66.14-17.35.42-26.02.91-90.94,7.89-204.94,26.86-266.94-52.05-40-49.95,1-118.87-1.76-178.54.53-10.48.73-20.94.41-31.46-.32-10.51-1.15-21.08-2.65-31.74-1.44-10.43-1.22-19.81.41-28.23,2.65-13.67,8.57-24.55,16.7-33.06s18.47-14.67,29.94-18.9c12.95-4.71,26.95-7.71,40.95-7.71,103-1,203,4.99,308-11.99,22-4,44-4.99,65.92-2.31,10.05.98,20.08,2.97,30.08,6.3,41,12.99,66,58.94,60,101.89-1.25,9.99-2.69,19.98-4.06,29.97-3.94,29.96-7.94,59.93-4.77,90.37.65,8.33,1.66,17.1,3.14,26.36Z"/>
    </clipPath>
  </defs>
  <g class="cls-4">
    <path class="cls-9" d="m580.92,266.02c5.04,40.41,17.93,86.12-8.93,119.85-50.5,63.12-139.69,28.29-209.28,33.26-16.33-.43-32.97-.66-49.72-.4-9.3.15-18.64.46-27.96.99-97.72,8.59-220.22,29.27-286.84-56.7-42.98-54.41,1.07-129.5-1.89-194.5.57-11.42.78-22.81.44-34.27-.34-11.45-1.24-22.97-2.85-34.58-1.55-11.37-1.31-21.58.44-30.75,2.85-14.89,9.21-26.74,17.95-36.02s19.84-15.98,32.17-20.59c13.91-5.13,28.96-8.4,44-8.4,110.68-1.09,218.13,5.44,330.95-13.06,23.64-4.35,47.28-5.44,70.83-2.51,10.8,1.06,21.58,3.24,32.32,6.87,44.06,14.15,70.92,64.2,64.47,111-1.34,10.88-2.89,21.76-4.36,32.65-4.23,32.64-8.53,65.29-5.12,98.45.7,9.08,1.78,18.63,3.37,28.72Z"/>
    <rect class="cls-5" x="-37.59" y="311.1" width="646.27" height="110.83"/>
    <g>
      <path class="cls-19" d="m54.45,311.07l.45,2.55.9,2.55s-5.85,1.35-6,.15.6-3.37.6-3.37l-.3-4.72,3.6.15.75,2.7Z"/>
      <path class="cls-6" d="m57.74,252.38s.81,6.54.27,17.02c-.52,10.31-.88,14.03-.91,15.27-.27,14.55-1.33,25.74-2,26.85-.41.69-5.76,1.24-5.76-.41-.41-2.88-1.58-10.36-.62-23.67.44-6.17-4.67-30.66-2.06-33.54s11.07-1.51,11.07-1.51Z"/>
      <polyline class="cls-19" points="37.34 300.86 29.35 309.23 27.19 305.04 35.4 295.57 36.78 302.02"/>
      <path class="cls-19" d="m26.67,312.06l2.81-2.88.49-4.07c.2.16-3.67-.97-3.81-.59-.48,1.33-.73,3.95-1.08,5.51s-2.02,5-1.79,5.69.39,1.83,3.38-3.65Z"/>
      <path class="cls-6" d="m22.69,316.63c.74,1.3,1.03,1.14,1.8-.21.81-1.43,1.21-1.91,2.53-3.57,1.02-1.28,1.01-.97,1.72-1.87s-.57-1.78-.57-1.78c0,0-1.27-1.53-1.07-2.4.23-1.04.83-1.68,1.17-1.82s.64.02-.04-.68c-.31-.33-2.52-.37-2.57-.1-.13.65-.34,1.32-.55,2.18-.16.68-.24,1.1-.24,1.1,0,0-.48,1.11-.51,1.48s-2.06,7-1.67,7.67Z"/>
      <path class="cls-6" d="m22.72,315.86c.14-.82.99-6.21,1.06-6.57.19-.92.55-2.38.6-2.68.17-.98.33-2.02.59-2.3.09-.09,1.14-.33,1.69-.27l-1.32,2.64-2.46,10.1c-.24-.09-.25-.45-.17-.92Z"/>
      <path class="cls-6" d="m47.23,256.8c-4.18,1.65-2.48,28.2-5.14,30.24-5.24,4.44-15.87,16.08-15.49,16.6.24.33,5.68,5.2,6.24,4.3.29-.46,10.51-10.8,15.23-15.31,7.91-7.56,9.8-34.59,9.8-34.59,0,0,1.49-6.03-10.65-1.25Z"/>
      <polygon class="cls-15" points="40.83 222.84 37.61 222.36 38 225.54 41.4 226.08 40.83 222.84"/>
      <path class="cls-8" d="m56.64,226.22c-1.16-.68-7.8-1.33-8.84-1.47s-7.44-2.46-8.05-2.25c1.11.95-.18,2.54-.11,3.2s6.86,3.26,6.86,3.26l11.1,2.57s.2-4.63-.95-5.31Z"/>
      <path class="cls-6" d="m41.9,213.95c-1.39.98-3.04,6.89-1.02,9.08,2.54,2.75,6.18,1.59,5.92.97s-1.72-.87-2.02-2.66-.44-4.48-.64-5-2.24-2.39-2.24-2.39Z"/>
      <path class="cls-6" d="m41.64,258.36c-.06,4.13,1.17,5.87,3.06,10.18l7.45-13.64-10.51,3.46Z"/>
      <path class="cls-15" d="m44.95,220.9l.08,8.58s.42.75,2.41.83c2,.08,2.91-.6,2.91-.6l-.17-8.98-5.24.17Z"/>
      <path class="cls-23" d="m37.66,233.22c-.07-1.05.55-2.89,1.05-3.81.63-1.17,4.88-.58,8.87-1.48,2.64-.59,5.23-1.69,6.62-1.95,1.57-.3,4.08.42,4.27,2.01.84,6.99-.19,18.51-.44,19.46-.33,1.26-11.39,4.12-12.75,2.87-1.16-1.06-7.29-11.99-7.62-17.09Z"/>
      <path class="cls-23" d="m44.16,246.5s-3.46,10.31-2.52,11.87,15.06-7.15,16.72.58c.95-2.38-.22-12.62-.22-12.62l-13.98.17Z"/>
      <path class="cls-7" d="m44.32,226.57c0,.51-.2,1.1-.3,1.6-.28,1.33,3.17,1.34,4.11,1.08.62-.18,2.97-1.06,2.94-1.76-.01-.22-.09-.39-.15-.59-.08-.28-.32-1.04-.57-1.2-.32-.21-1.53.28-1.93.39-.91.25-1.74.24-2.67.24-.31,0-1.43-.19-1.44.25Z"/>
      <path class="cls-15" d="m51.89,215.8c.11.44.27,1.68.31,2.23.11,1.45.44,2.81.54,3.82.22,2.23.21,2.99-.82,3.17-1.09.18-4.25.06-6.1-1.42-1.14-.92-2.49-3.14-2.82-4.52-.98-4-.36-6.1,2.72-6.86s5.19-.43,6.18,3.57Z"/>
      <path class="cls-6" d="m45,220.46c-.12.08-.36,2.28.28,3.25s.93,2.36-.72,1.94c-.02,0-.75-.5-.76-.52-1.26-1.1-.36-2.31-2.36-3.87-1-.78-.06-2.73.52-3.05,1.02-.56,3.14,2.22,3.14,2.22l-.09.02Z"/>
      <path class="cls-13" d="m52.79,221.78c.12.48.1.62-.51.77s-1.24-.03-1.23-.45c.01-.32.04-.48.65-.63s1-.02,1.08.31Z"/>
      <polygon class="cls-15" points="30.8 225.32 30.42 227.2 33.13 227.83 33.91 226.1 30.8 225.32"/>
      <path class="cls-15" d="m52.51,220.45s1.16-.03.93-.74c-.21-.64-1.44-2.21-1.44-2.21"/>
      <path class="cls-6" d="m50.18,212.42c-.03.32-.26.85-.31.91-.34.41-.83,1.82-4.09,3.48-1.11.56-4.86-.03-4.77-1.28.13-1.68,2.86-3.86,7.03-3.89,1.43-.01,2.17.48,2.14.78Z"/>
      <path class="cls-6" d="m46.2,215.65s.18,2.81-.93,3.58-4.2-1.7-3.3-2.87,4.23-.71,4.23-.71Z"/>
      <path class="cls-15" d="m45.31,220.53c.2.66.81,1.27.4,1.52s-2.02-.01-2.44-.46c-.24-.26-.45-.61-.5-1-.05-.35-.07-.74.07-.98.24-.42.66-.59,1.08-.45s1.16.71,1.36,1.27"/>
      <path class="cls-6" d="m44.52,218.7c.35-.03,1.2,1.72,1.1,2.28s-1.55-1.46-1.33-2.05.24-.24.24-.24Z"/>
      <path class="cls-23" d="m39.25,228.99c3.06.59,4.17,4.42.75,7.96-2.55,2.64-9.74,2.76-10.79,2.22s-2.02-4.1.66-4.44,6.32-6.32,9.38-5.74Z"/>
      <path class="cls-6" d="m42.03,223.69c-.22.03-.42.12-.57.27-.37.37-1.03,1.31-1.28,3.5-.22,1.91-.99,10.52-.63,12.54.05.26.09.51.14.75.22,1.06,2.43,8.29,2.55,7.21,0-.01-.08-9.47-.08-9.49.15-1.45,2.96-11.8,2.12-13.54-.62-1.29-1.73-1.33-2.26-1.26Z"/>
      <path class="cls-23" d="m30.33,226.73c1.19.69,1.82.81,3.2.7.08.38-.39,9.39-1.23,10.06s-.78,2.44-3.27,1.31,1.01-11.82,1.3-12.07Z"/>
      <g>
        <rect class="cls-11" x="55.34" y="208.31" width=".54" height="46.74" transform="translate(-179.82 195.06) rotate(-67.66)"/>
        <rect class="cls-20" x="44.82" y="223.01" width=".54" height="8.69" transform="translate(-182.34 182.64) rotate(-67.66)"/>
        <rect class="cls-18" x="37.29" y="220.23" width="1.09" height="8.28" transform="translate(-184.08 174.08) rotate(-67.66)"/>
        <path class="cls-18" d="m76.18,240.63c-.2-.34-.04-.78.33-.92,3.5-1.25,6.11-1.42,7.11-.03,1.07,1.48-.36,5.98-2.49,6.1-1.69.09-4.05-3.61-4.96-5.15Z"/>
        <path class="cls-22" d="m79.3,241.69c-.34.73.58,3.38,2,3.49s2.78-3.93,1.98-5.06-3.64.83-3.98,1.56Z"/>
      </g>
      <path class="cls-7" d="m30.48,225.89c.86.97,2.75,1.16,3.32.8.17-.11.44-.92.44-.92,0,0,1.73-3.22,1.67-4.04-.09-1.16-1.58-.48-1.58-.48-.36-.38-.7-.45-1.01-.12-.13-.34-.4-.4-.81-.18,0,0-.33-.33-.78-.09s-1.25,1.19-1.37,1.7c-.07.29.06,1.7.18,2.25l-.06,1.07Z"/>
      <path class="cls-15" d="m39.43,224.25s-.27-1.41-.48-1.66-.61-.16-.61-.16c0,0,.05-.36-.36-.57s-.91,0-.91,0c0,0-.05-.25-.36-.34-.35-.1-.68.07-.68.07,0,0-.07-.29-.48-.34s-1.68.86-1.75,1.18c-.1.48.48,1.59.68,1.9s.41.86.59.88.84-.2.84-.2c0,0,.11.52.32.75s.77.66,1,.66.82-.57.82-.57l1.46-.15-2.13-.95s.22-.78.58-.87,1.47.36,1.47.36Z"/>
      <path class="cls-6" d="m50.07,313.85c-.59.88-.76,1.96-.8,2.69-.02.41-.13.97.29,1.13s1.88.43,2.31.5c1.97.34,2.64.84,3.65.96,1.24.15,4.02.14,5.16-.34-.05-1.71-1.93-2.35-3.27-3.06-.76-.4-1.12-1.01-1.84-1.5-.94-.64-2.4-.17-3.07.54-.79.84-2.1.29-2.43-.92Z"/>
      <path class="cls-21" d="m48.36,291.98c.46-1.3,1.17-2.41,1.84-3.54-.02,0-.04.04-.01-.03.05-.18.46-1.5.52-1.71,1.08-3.87,2.19-7.77,3.52-11.57.67-1.91,1.12-3.88,2.61-5.55l.28.08c.36,2.21-.33,4.12-.81,6.09-1.13,4.45-2.45,8.82-4.18,13.08-.11.24-.21.44-.38.7-.93,1.04-1.93,1.92-3.15,2.66,0,0-.23-.19-.23-.19h0Z"/>
    </g>
    <path d="m97.75,296.28c0,2.51-.46,4.42-1.38,5.75s-2.25,1.99-4,1.99-3.03-.65-3.96-1.95-1.41-3.15-1.44-5.55v-2.4c0-2.48.46-4.37,1.38-5.67s2.25-1.96,4-1.96,3.06.63,3.98,1.9,1.39,3.1,1.42,5.5v2.4Zm-8.61-1.89h6.43v-.64c0-1.77-.27-3.13-.81-4.07s-1.35-1.41-2.41-1.41-1.84.47-2.39,1.41-.82,2.3-.82,4.07v.64Zm6.43,1.78h-6.43v.46c0,1.79.29,3.17.86,4.15s1.36,1.46,2.38,1.46,1.8-.47,2.35-1.41.83-2.29.85-4.07v-.6Z"/>
    <g>
      <path class="cls-3" d="m66.34,309.35c94.22-159.83,335.24-162.01,445.56-10.21"/>
      <polygon points="503.98 301.87 518.46 308.57 517.03 292.68 503.98 301.87"/>
    </g>
    <circle class="cls-7" cx="519.87" cy="314.87" r="2.41"/>
    <path class="cls-14" d="m421.06,74.87s24.53-24.53,58.4-24.53,35.04,7.01,49.06,10.51c14.02,3.5,16.35-1.17,46.72-2.34,30.37-1.17,45.55,11.68,51.39,15.18,5.84,3.5,49.06,8.18,56.07,10.51s23.36,16.35,1.17,16.35h-295.51c-5.84,0,0-21.02,32.7-25.7Z"/>
    <path class="cls-14" d="m150.98,32.49S132.14-.1,106.11-.1s-26.92,9.31-37.69,13.97c-10.77,4.66-12.56-1.55-35.89-3.1C9.2,9.21-2.46,26.28-6.95,30.94c-4.49,4.66-37.69,10.86-43.07,13.97s-17.95,21.73-.9,21.73h227.03c4.49,0,0-27.94-25.13-34.14Z"/>
    <path class="cls-14" d="m386.69,125.01s-32.38-11.24-52.87-3.3l-20.49,7.93s-28.42-3.97-37.01,1.98c-8.59,5.95-27.76-1.32-35.03,7.93-7.27,9.25,36.35,5.95,36.35,5.95,0,0,119.63-1.32,123.59-1.32h34.37s9.91-5.29-1.32-5.95c-11.24-.66-15.86.66-19.83-.66-3.97-1.32-3.3-12.56-27.76-12.56Z"/>
    <g>
      <g>
        <polygon class="cls-12" points="528.17 209.13 528.75 308.99 525.87 308.98 526.77 209.12 528.17 209.13 528.17 209.13"/>
        <ellipse class="cls-10" cx="527.4" cy="207.85" rx="1.32" ry="1.55" transform="translate(-24.56 78.67) rotate(-8.34)"/>
        <path class="cls-16" d="m527.34,209.39c.12,5.97.25,12.1.37,17.91,7.95-2.11,15.89-10.24,23.84-12.08-8.07-3.44-16.14-2.61-24.21-5.83Z"/>
      </g>
      <path class="cls-17" d="m531.11,308.5l-7.71.03c-.59,0-.83.76-.35,1.1,1.19.85,2.94,1.88,4.39,1.82s2.99-1.05,4.05-1.86c.46-.36.2-1.09-.38-1.09Z"/>
    </g>
  </g>
  <polyline class="cls-2" points="104.46 310.08 64.06 310.08 81.32 273.56"/>
</svg>