<?xml version="1.0" encoding="UTF-8"?><svg id="j" xmlns="http://www.w3.org/2000/svg" width="1140" height="508" viewBox="0 0 1140 508"><line x1="350.48" y1="112.89" x2="864" y2="112.89" fill="none" stroke="#b1dded" stroke-miterlimit="10" stroke-width="2"/><line x1="350.48" y1="78.68" x2="864" y2="78.68" fill="none" stroke="#b1dded" stroke-miterlimit="10" stroke-width="2"/><line x1="350.48" y1="181.32" x2="864" y2="181.32" fill="none" stroke="#b1dded" stroke-miterlimit="10" stroke-width="2"/><line x1="350.48" y1="147.11" x2="864" y2="147.11" fill="none" stroke="#b1dded" stroke-miterlimit="10" stroke-width="2"/><line x1="350.48" y1="249.75" x2="864" y2="249.75" fill="none" stroke="#b1dded" stroke-miterlimit="10" stroke-width="2"/><line x1="350.48" y1="215.53" x2="864" y2="215.53" fill="none" stroke="#b1dded" stroke-miterlimit="10" stroke-width="2"/><line x1="350.48" y1="318.17" x2="864" y2="318.17" fill="none" stroke="#b1dded" stroke-miterlimit="10" stroke-width="2"/><line x1="350.48" y1="283.96" x2="864" y2="283.96" fill="none" stroke="#b1dded" stroke-miterlimit="10" stroke-width="2"/><line x1="350.48" y1="386.6" x2="864" y2="386.6" fill="none" stroke="#b1dded" stroke-miterlimit="10" stroke-width="2"/><line x1="350.48" y1="352.39" x2="864" y2="352.39" fill="none" stroke="#b1dded" stroke-miterlimit="10" stroke-width="2"/><line x1="383.48" y1="77.6" x2="383.48" y2="420.6" fill="none" stroke="#b1dded" stroke-miterlimit="10" stroke-width="2"/><line x1="417.83" y1="77.6" x2="417.83" y2="420.6" fill="none" stroke="#b1dded" stroke-miterlimit="10" stroke-width="2"/><line x1="452.18" y1="77.6" x2="452.18" y2="420.6" fill="none" stroke="#b1dded" stroke-miterlimit="10" stroke-width="2"/><line x1="486.53" y1="77.6" x2="486.53" y2="420.6" fill="none" stroke="#b1dded" stroke-miterlimit="10" stroke-width="2"/><line x1="520.88" y1="77.6" x2="520.88" y2="420.6" fill="none" stroke="#b1dded" stroke-miterlimit="10" stroke-width="2"/><line x1="555.23" y1="77.6" x2="555.23" y2="420.6" fill="none" stroke="#b1dded" stroke-miterlimit="10" stroke-width="2"/><line x1="589.58" y1="77.6" x2="589.58" y2="420.6" fill="none" stroke="#b1dded" stroke-miterlimit="10" stroke-width="2"/><line x1="623.93" y1="77.6" x2="623.93" y2="420.6" fill="none" stroke="#b1dded" stroke-miterlimit="10" stroke-width="2"/><line x1="658.28" y1="77.6" x2="658.28" y2="420.6" fill="none" stroke="#b1dded" stroke-miterlimit="10" stroke-width="2"/><line x1="692.63" y1="77.6" x2="692.63" y2="420.6" fill="none" stroke="#b1dded" stroke-miterlimit="10" stroke-width="2"/><line x1="726.98" y1="77.6" x2="726.98" y2="420.6" fill="none" stroke="#b1dded" stroke-miterlimit="10" stroke-width="2"/><line x1="761.33" y1="77.6" x2="761.33" y2="420.6" fill="none" stroke="#b1dded" stroke-miterlimit="10" stroke-width="2"/><line x1="795.68" y1="77.6" x2="795.68" y2="420.6" fill="none" stroke="#b1dded" stroke-miterlimit="10" stroke-width="2"/><line x1="830.03" y1="77.6" x2="830.03" y2="420.6" fill="none" stroke="#b1dded" stroke-miterlimit="10" stroke-width="2"/><line x1="864.38" y1="77.6" x2="864.38" y2="420.6" fill="none" stroke="#b1dded" stroke-miterlimit="10" stroke-width="2"/><line x1="336.48" y1="352.6" x2="350.01" y2="352.6" fill="none" stroke="#231e20" stroke-miterlimit="10" stroke-width="2"/><line x1="336.48" y1="284.1" x2="350.01" y2="284.1" fill="none" stroke="#231e20" stroke-miterlimit="10" stroke-width="2"/><line x1="336.48" y1="215.6" x2="350.01" y2="215.6" fill="none" stroke="#231e20" stroke-miterlimit="10" stroke-width="2"/><line x1="336.48" y1="147.1" x2="350.01" y2="147.1" fill="none" stroke="#231e20" stroke-miterlimit="10" stroke-width="2"/><line x1="336.48" y1="78.6" x2="350.01" y2="78.6" fill="none" stroke="#231e20" stroke-miterlimit="10" stroke-width="2"/><line x1="864" y1="434.47" x2="864" y2="420.94" fill="none" stroke="#231e20" stroke-miterlimit="10" stroke-width="2"/><line x1="761.37" y1="434.47" x2="761.37" y2="420.94" fill="none" stroke="#231e20" stroke-miterlimit="10" stroke-width="2"/><line x1="658.74" y1="434.47" x2="658.74" y2="420.94" fill="none" stroke="#231e20" stroke-miterlimit="10" stroke-width="2"/><line x1="556.11" y1="434.47" x2="556.11" y2="420.94" fill="none" stroke="#231e20" stroke-miterlimit="10" stroke-width="2"/><line x1="453.48" y1="434.47" x2="453.48" y2="420.94" fill="none" stroke="#231e20" stroke-miterlimit="10" stroke-width="2"/><polyline points="864.98 420.6 350.95 420.6 350.95 77.6" fill="none" stroke="#000" stroke-miterlimit="10" stroke-width="2"/><path d="m318.48,77.96l.84-8.51h8.51v2h-6.72l-.5,4.65c.81-.49,1.74-.74,2.77-.74,1.51,0,2.71.51,3.61,1.54.89,1.03,1.33,2.42,1.33,4.17s-.46,3.14-1.39,4.15-2.21,1.52-3.87,1.52c-1.47,0-2.67-.42-3.59-1.25-.93-.84-1.46-1.99-1.59-3.47h2c.13.98.47,1.71,1.02,2.21.55.5,1.27.74,2.17.74.98,0,1.75-.34,2.31-1.03.56-.69.84-1.64.84-2.85,0-1.14-.3-2.06-.91-2.75-.61-.69-1.41-1.04-2.41-1.04-.92,0-1.64.21-2.17.62l-.56.47-1.69-.45Z" fill="#212728"/><path d="m326.42,149.28h2.3v1.77h-2.3v3.96h-2.12v-3.96h-7.56v-1.28l7.44-11.82h2.25v11.33Zm-7.29,0h5.17v-8.37l-.25.47-4.92,7.9Z" fill="#212728"/><path d="m320.58,213.93h1.58c1-.02,1.78-.29,2.35-.81s.86-1.23.86-2.12c0-2-.97-3-2.91-3-.91,0-1.64.27-2.18.8s-.82,1.24-.82,2.13h-2.11c0-1.35.48-2.47,1.44-3.37.96-.89,2.18-1.34,3.67-1.34,1.57,0,2.79.43,3.68,1.28s1.33,2.04,1.33,3.55c0,.74-.23,1.46-.7,2.16-.47.7-1.1,1.21-1.91,1.56.91.3,1.62.79,2.12,1.48s.75,1.53.75,2.52c0,1.53-.49,2.75-1.46,3.64-.97.9-2.24,1.35-3.8,1.35s-2.83-.43-3.8-1.3-1.47-2.01-1.47-3.43h2.12c0,.9.29,1.62.86,2.16s1.33.81,2.29.81c1.02,0,1.8-.27,2.34-.82s.81-1.33.81-2.36-.3-1.75-.89-2.29c-.59-.53-1.45-.8-2.57-.82h-1.58v-1.77Z" fill="#212728"/><path d="m328.39,292.01h-10.88v-1.56l5.75-6.56c.85-.99,1.44-1.8,1.76-2.42.32-.62.48-1.26.48-1.93,0-.89-.26-1.62-.79-2.19s-1.22-.86-2.1-.86c-1.05,0-1.87.31-2.45.92s-.87,1.47-.87,2.56h-2.11c0-1.57.49-2.84,1.48-3.81s2.3-1.45,3.95-1.45c1.54,0,2.76.42,3.66,1.25s1.35,1.94,1.35,3.32c0,1.68-1.04,3.68-3.13,6l-4.45,4.96h8.34v1.77Z" fill="#212728"/><path d="m324.45,360.51h-2.12v-14.45l-4.25,1.61v-1.97l6.05-2.33h.33v17.14Z" fill="#212728"/><path d="m327.92,421.74c0,2.54-.42,4.43-1.27,5.66-.84,1.23-2.16,1.85-3.96,1.85s-3.08-.6-3.94-1.81-1.29-3.01-1.32-5.41v-2.89c0-2.51.42-4.37,1.27-5.59s2.17-1.83,3.97-1.83,3.1.59,3.95,1.76c.84,1.18,1.28,2.99,1.3,5.44v2.81Zm-2.11-2.96c0-1.84-.25-3.17-.75-4.01s-1.3-1.26-2.38-1.26-1.87.42-2.36,1.25-.75,2.12-.76,3.86v3.47c0,1.84.26,3.21.78,4.08.52.88,1.31,1.32,2.37,1.32s1.82-.41,2.32-1.24c.5-.83.77-2.13.79-3.91v-3.55Z" fill="#212728"/><path d="m763.5,452.59h2.3v1.77h-2.3v3.96h-2.12v-3.96h-7.56v-1.28l7.44-11.82h2.25v11.33Zm-7.29,0h5.17v-8.37l-.25.47-4.92,7.9Z" fill="#212728"/><path d="m859.56,449.77l.84-8.51h8.51v2h-6.72l-.5,4.65c.81-.49,1.74-.74,2.77-.74,1.51,0,2.71.51,3.61,1.54.89,1.03,1.33,2.42,1.33,4.17s-.46,3.14-1.39,4.15-2.21,1.52-3.87,1.52c-1.47,0-2.67-.42-3.59-1.25-.93-.84-1.46-1.99-1.59-3.47h2c.13.98.47,1.71,1.02,2.21.55.5,1.27.74,2.17.74.98,0,1.75-.34,2.31-1.03.56-.69.84-1.64.84-2.85,0-1.14-.3-2.06-.91-2.75-.61-.69-1.41-1.04-2.41-1.04-.92,0-1.64.21-2.17.62l-.56.47-1.69-.45Z" fill="#212728"/><path d="m656.52,448.74h1.58c1-.02,1.78-.29,2.35-.81s.86-1.23.86-2.12c0-2-.97-3-2.91-3-.91,0-1.64.27-2.18.8s-.82,1.24-.82,2.13h-2.11c0-1.35.48-2.47,1.44-3.37.96-.89,2.18-1.34,3.67-1.34,1.57,0,2.79.43,3.68,1.28s1.33,2.04,1.33,3.55c0,.74-.23,1.46-.7,2.16-.47.7-1.1,1.21-1.91,1.56.91.3,1.62.79,2.12,1.48s.75,1.53.75,2.52c0,1.53-.49,2.75-1.46,3.64-.97.9-2.24,1.35-3.8,1.35s-2.83-.43-3.8-1.3-1.47-2.01-1.47-3.43h2.12c0,.9.29,1.62.86,2.16s1.33.81,2.29.81c1.02,0,1.8-.27,2.34-.82s.81-1.33.81-2.36-.3-1.75-.89-2.29c-.59-.53-1.45-.8-2.57-.82h-1.58v-1.77Z" fill="#212728"/><path d="m562.19,458.32h-10.88v-1.56l5.75-6.56c.85-.99,1.44-1.8,1.76-2.42.32-.62.48-1.26.48-1.93,0-.89-.26-1.62-.79-2.19s-1.22-.86-2.1-.86c-1.05,0-1.87.31-2.45.92s-.87,1.47-.87,2.56h-2.11c0-1.57.49-2.84,1.48-3.81s2.3-1.45,3.95-1.45c1.54,0,2.76.42,3.66,1.25s1.35,1.94,1.35,3.32c0,1.68-1.04,3.68-3.13,6l-4.45,4.96h8.34v1.77Z" fill="#212728"/><path d="m455.11,458.32h-2.12v-14.45l-4.25,1.61v-1.97l6.05-2.33h.33v17.14Z" fill="#212728"/><path d="m353.45,451.05c0,2.54-.42,4.43-1.27,5.66-.84,1.23-2.16,1.85-3.96,1.85s-3.08-.6-3.94-1.81-1.29-3.01-1.32-5.41v-2.89c0-2.51.42-4.37,1.27-5.59s2.17-1.83,3.97-1.83,3.1.59,3.95,1.76c.84,1.18,1.28,2.99,1.3,5.44v2.81Zm-2.11-2.96c0-1.84-.25-3.17-.75-4.01s-1.3-1.26-2.38-1.26-1.87.42-2.36,1.25-.75,2.12-.76,3.86v3.47c0,1.84.26,3.21.78,4.08.52.88,1.31,1.32,2.37,1.32s1.82-.41,2.32-1.24c.5-.83.77-2.13.79-3.91v-3.55Z" fill="#212728"/><line x1="351" y1="421" x2="810" y2="119" fill="none" stroke="#5c539a" stroke-miterlimit="10" stroke-width="2"/><path d="m447.99,32.03V10.7h6.56c1.88,0,3.55.42,5.03,1.27,1.48.84,2.63,2.05,3.46,3.6s1.25,3.33,1.25,5.31v.98c0,1.98-.41,3.75-1.22,5.29s-1.96,2.74-3.45,3.59-3.16,1.28-5.02,1.29h-6.61Zm4.39-17.77v14.24h2.12c1.72,0,3.03-.56,3.94-1.68s1.37-2.73,1.39-4.82v-1.13c0-2.17-.45-3.81-1.35-4.93s-2.21-1.68-3.94-1.68h-2.17Z" fill="#231e20"/><path d="m467.18,12.08c0-.63.21-1.16.64-1.57.42-.41,1-.62,1.74-.62s1.3.21,1.73.62.64.93.64,1.57-.22,1.17-.65,1.58c-.44.41-1.01.62-1.72.62s-1.29-.21-1.72-.62-.65-.94-.65-1.58Zm4.5,19.95h-4.25v-15.85h4.25v15.85Z" fill="#231e20"/><path d="m483.75,27.65c0-.52-.26-.92-.77-1.22-.51-.3-1.34-.56-2.47-.8-3.77-.79-5.65-2.39-5.65-4.8,0-1.41.58-2.58,1.75-3.52s2.69-1.41,4.58-1.41c2.01,0,3.62.47,4.83,1.42s1.81,2.18,1.81,3.69h-4.23c0-.61-.2-1.11-.59-1.5s-1-.59-1.83-.59c-.71,0-1.26.16-1.66.48s-.59.73-.59,1.23c0,.47.22.85.67,1.14s1.19.54,2.25.75,1.94.45,2.67.71c2.24.82,3.35,2.24,3.35,4.26,0,1.45-.62,2.62-1.86,3.51s-2.84,1.34-4.8,1.34c-1.33,0-2.51-.24-3.54-.71s-1.84-1.12-2.42-1.95-.88-1.72-.88-2.67h4.01c.04.75.32,1.33.83,1.73s1.21.6,2.08.6c.81,0,1.42-.15,1.84-.46.41-.31.62-.71.62-1.21Z" fill="#231e20"/><path d="m495.66,12.28v3.9h2.71v3.11h-2.71v7.91c0,.59.11,1.01.34,1.26s.65.38,1.29.38c.47,0,.88-.03,1.25-.1v3.21c-.83.25-1.68.38-2.56.38-2.97,0-4.48-1.5-4.54-4.5v-8.54h-2.31v-3.11h2.31v-3.9h4.23Z" fill="#231e20"/><path d="m509.91,32.03c-.2-.38-.34-.85-.42-1.42-1.03,1.14-2.36,1.71-4,1.71-1.55,0-2.84-.45-3.86-1.35-1.02-.9-1.53-2.03-1.53-3.4,0-1.68.62-2.97,1.87-3.87,1.25-.9,3.04-1.35,5.4-1.36h1.95v-.91c0-.73-.19-1.32-.56-1.76-.38-.44-.97-.66-1.78-.66-.71,0-1.27.17-1.68.51-.41.34-.61.81-.61,1.41h-4.23c0-.92.28-1.77.85-2.55s1.37-1.39,2.4-1.84,2.2-.67,3.49-.67c1.95,0,3.5.49,4.65,1.47s1.72,2.36,1.72,4.14v6.87c0,1.5.22,2.64.63,3.41v.25h-4.28Zm-3.5-2.94c.62,0,1.2-.14,1.73-.42s.92-.65,1.17-1.12v-2.72h-1.58c-2.12,0-3.25.73-3.38,2.2v.25c-.01.53.17.96.54,1.3s.88.51,1.52.51Z" fill="#231e20"/><path d="m520.71,16.18l.13,1.83c1.13-1.42,2.65-2.12,4.56-2.12,1.68,0,2.93.49,3.75,1.48s1.24,2.46,1.26,4.42v10.24h-4.23v-10.14c0-.9-.2-1.55-.59-1.96s-1.04-.61-1.95-.61c-1.19,0-2.08.51-2.68,1.52v11.18h-4.23v-15.85h3.98Z" fill="#231e20"/><path d="m540.2,28.91c.78,0,1.42-.21,1.9-.64s.74-1,.76-1.71h3.97c0,1.07-.3,2.06-.88,2.95s-1.37,1.59-2.37,2.08c-1,.49-2.11.74-3.32.74-2.27,0-4.05-.72-5.36-2.16s-1.96-3.43-1.96-5.97v-.28c0-2.44.65-4.39,1.95-5.84s3.08-2.18,5.35-2.18c1.98,0,3.57.56,4.77,1.69s1.8,2.63,1.82,4.5h-3.97c-.02-.82-.27-1.49-.76-2.01s-1.13-.77-1.93-.77c-.99,0-1.73.36-2.23,1.08-.5.72-.75,1.89-.75,3.5v.44c0,1.63.25,2.81.75,3.52s1.25,1.07,2.27,1.07Z" fill="#231e20"/><path d="m556.55,32.32c-2.32,0-4.22-.71-5.68-2.14s-2.19-3.33-2.19-5.7v-.41c0-1.59.31-3.01.92-4.27s1.49-2.22,2.61-2.9c1.13-.68,2.42-1.02,3.86-1.02,2.17,0,3.87.68,5.12,2.05,1.24,1.37,1.87,3.31,1.87,5.82v1.73h-10.09c.14,1.04.55,1.87,1.24,2.49.69.62,1.56.94,2.62.94,1.63,0,2.91-.59,3.82-1.77l2.08,2.33c-.63.9-1.49,1.6-2.58,2.1s-2.29.75-3.6.75Zm-.48-13.02c-.84,0-1.52.29-2.04.85-.52.57-.86,1.38-1,2.44h5.89v-.34c-.02-.94-.27-1.67-.76-2.19-.49-.51-1.18-.77-2.08-.77Z" fill="#231e20"/><path d="m581.1,26.74l4.83-16.04h4.89l-7.43,21.33h-4.58l-7.4-21.33h4.88l4.8,16.04Z" fill="#231e20"/><path d="m599.21,32.32c-2.32,0-4.22-.71-5.68-2.14s-2.19-3.33-2.19-5.7v-.41c0-1.59.31-3.01.92-4.27s1.49-2.22,2.61-2.9c1.13-.68,2.42-1.02,3.86-1.02,2.17,0,3.87.68,5.12,2.05,1.24,1.37,1.87,3.31,1.87,5.82v1.73h-10.09c.14,1.04.55,1.87,1.24,2.49.69.62,1.56.94,2.62.94,1.63,0,2.91-.59,3.82-1.77l2.08,2.33c-.63.9-1.49,1.6-2.58,2.1s-2.29.75-3.6.75Zm-.48-13.02c-.84,0-1.52.29-2.04.85-.52.57-.86,1.38-1,2.44h5.89v-.34c-.02-.94-.27-1.67-.76-2.19-.49-.51-1.18-.77-2.08-.77Z" fill="#231e20"/><path d="m617.03,20.15c-.58-.08-1.08-.12-1.52-.12-1.6,0-2.65.54-3.15,1.63v10.37h-4.23v-15.85h4l.12,1.89c.85-1.46,2.03-2.18,3.53-2.18.47,0,.91.06,1.32.19l-.06,4.07Z" fill="#231e20"/><path d="m627.65,27.65c0-.52-.26-.92-.77-1.22-.51-.3-1.34-.56-2.47-.8-3.77-.79-5.65-2.39-5.65-4.8,0-1.41.58-2.58,1.75-3.52s2.69-1.41,4.58-1.41c2.01,0,3.62.47,4.83,1.42s1.81,2.18,1.81,3.69h-4.23c0-.61-.2-1.11-.59-1.5s-1-.59-1.83-.59c-.71,0-1.26.16-1.66.48s-.59.73-.59,1.23c0,.47.22.85.67,1.14s1.19.54,2.25.75,1.94.45,2.67.71c2.24.82,3.35,2.24,3.35,4.26,0,1.45-.62,2.62-1.86,3.51s-2.84,1.34-4.8,1.34c-1.33,0-2.51-.24-3.54-.71s-1.84-1.12-2.42-1.95-.88-1.72-.88-2.67h4.01c.04.75.32,1.33.83,1.73s1.21.6,2.08.6c.81,0,1.42-.15,1.84-.46.41-.31.62-.71.62-1.21Z" fill="#231e20"/><path d="m643.99,30.42c-1.04,1.27-2.49,1.9-4.34,1.9-1.7,0-3-.49-3.89-1.46-.89-.98-1.35-2.41-1.37-4.29v-10.39h4.23v10.25c0,1.65.75,2.48,2.26,2.48s2.42-.5,2.96-1.5v-11.23h4.25v15.85h-3.98l-.12-1.61Z" fill="#231e20"/><path d="m659.87,27.65c0-.52-.26-.92-.77-1.22-.51-.3-1.34-.56-2.47-.8-3.77-.79-5.65-2.39-5.65-4.8,0-1.41.58-2.58,1.75-3.52s2.69-1.41,4.58-1.41c2.01,0,3.62.47,4.83,1.42s1.81,2.18,1.81,3.69h-4.23c0-.61-.2-1.11-.59-1.5s-1-.59-1.83-.59c-.71,0-1.26.16-1.66.48s-.59.73-.59,1.23c0,.47.22.85.67,1.14s1.19.54,2.25.75,1.94.45,2.67.71c2.24.82,3.35,2.24,3.35,4.26,0,1.45-.62,2.62-1.86,3.51s-2.84,1.34-4.8,1.34c-1.33,0-2.51-.24-3.54-.71s-1.84-1.12-2.42-1.95-.88-1.72-.88-2.67h4.01c.04.75.32,1.33.83,1.73s1.21.6,2.08.6c.81,0,1.42-.15,1.84-.46.41-.31.62-.71.62-1.21Z" fill="#231e20"/><path d="m689.63,14.26h-6.53v17.77h-4.39V14.26h-6.45v-3.56h17.37v3.56Z" fill="#231e20"/><path d="m691.83,12.08c0-.63.21-1.16.64-1.57.42-.41,1-.62,1.74-.62s1.3.21,1.73.62.64.93.64,1.57-.22,1.17-.65,1.58c-.44.41-1.01.62-1.72.62s-1.29-.21-1.72-.62-.65-.94-.65-1.58Zm4.5,19.95h-4.25v-15.85h4.25v15.85Z" fill="#231e20"/><path d="m703.78,16.18l.13,1.77c1.12-1.38,2.64-2.07,4.56-2.07,2.04,0,3.44.81,4.2,2.42,1.11-1.61,2.7-2.42,4.76-2.42,1.72,0,3,.5,3.84,1.5s1.26,2.51,1.26,4.52v10.12h-4.25v-10.11c0-.9-.18-1.55-.53-1.97s-.97-.62-1.86-.62c-1.27,0-2.15.61-2.64,1.82v10.88s-4.22,0-4.22,0v-10.09c0-.92-.18-1.58-.54-1.99s-.98-.62-1.85-.62c-1.2,0-2.07.5-2.61,1.49v11.21h-4.23v-15.85h3.97Z" fill="#231e20"/><path d="m733.08,32.32c-2.32,0-4.22-.71-5.68-2.14s-2.19-3.33-2.19-5.7v-.41c0-1.59.31-3.01.92-4.27s1.49-2.22,2.61-2.9c1.13-.68,2.42-1.02,3.86-1.02,2.17,0,3.87.68,5.12,2.05,1.24,1.37,1.87,3.31,1.87,5.82v1.73h-10.09c.14,1.04.55,1.87,1.24,2.49.69.62,1.56.94,2.62.94,1.63,0,2.91-.59,3.82-1.77l2.08,2.33c-.63.9-1.49,1.6-2.58,2.1s-2.29.75-3.6.75Zm-.48-13.02c-.84,0-1.52.29-2.04.85-.52.57-.86,1.38-1,2.44h5.89v-.34c-.02-.94-.27-1.67-.76-2.19-.49-.51-1.18-.77-2.08-.77Z" fill="#231e20"/><path d="m562.52,482.33h-5.23v14.21h-3.52v-14.21h-5.16v-2.85h13.9v2.85Z"/><path d="m564.27,480.59c0-.51.17-.93.51-1.25s.8-.49,1.39-.49,1.04.16,1.38.49.52.75.52,1.25-.17.94-.52,1.27-.81.49-1.38.49-1.03-.16-1.38-.49-.52-.75-.52-1.27Zm3.6,15.96h-3.4v-12.68h3.4v12.68Z"/><path d="m573.84,483.87l.11,1.42c.9-1.1,2.11-1.65,3.64-1.65,1.63,0,2.75.64,3.36,1.93.89-1.29,2.16-1.93,3.81-1.93,1.38,0,2.4.4,3.07,1.2s1.01,2.01,1.01,3.62v8.1h-3.4v-8.09c0-.72-.14-1.24-.42-1.58s-.78-.5-1.49-.5c-1.02,0-1.72.48-2.11,1.45v8.71s-3.38,0-3.38,0v-8.07c0-.73-.14-1.27-.43-1.59s-.78-.49-1.48-.49c-.96,0-1.66.4-2.09,1.2v8.96h-3.39v-12.68h3.18Z"/><path d="m597.27,496.78c-1.86,0-3.37-.57-4.54-1.71s-1.75-2.66-1.75-4.56v-.33c0-1.27.25-2.41.74-3.42s1.19-1.78,2.09-2.32,1.93-.81,3.09-.81c1.73,0,3.1.55,4.1,1.64s1.49,2.64,1.49,4.65v1.38h-8.07c.11.83.44,1.49.99,1.99s1.25.75,2.09.75c1.3,0,2.32-.47,3.06-1.42l1.66,1.86c-.51.72-1.2,1.28-2.06,1.68s-1.83.6-2.88.6Zm-.39-10.42c-.67,0-1.22.23-1.63.68s-.69,1.11-.8,1.95h4.71v-.27c-.02-.75-.22-1.34-.61-1.75s-.95-.62-1.66-.62Z"/><path d="m610.54,489.61c0-1.79.24-3.49.71-5.11s1.18-3.05,2.11-4.29,1.94-2.11,3.02-2.6l.66,1.83c-1.14.84-2.03,2.15-2.67,3.91s-.96,3.83-.96,6.19v.36c0,2.37.32,4.44.95,6.21s1.53,3.1,2.68,3.97l-.66,1.79c-1.06-.48-2.05-1.32-2.97-2.53s-1.62-2.6-2.1-4.18-.74-3.23-.77-4.95v-.62Z"/><path d="m625.68,493.05c0-.41-.21-.74-.62-.98s-1.07-.45-1.97-.64c-3.02-.63-4.52-1.91-4.52-3.84,0-1.12.47-2.06,1.4-2.82s2.15-1.13,3.66-1.13c1.61,0,2.9.38,3.86,1.14s1.45,1.74,1.45,2.95h-3.39c0-.48-.16-.88-.47-1.2s-.8-.47-1.46-.47c-.57,0-1.01.13-1.32.39s-.47.59-.47.98c0,.38.18.68.53.91s.96.43,1.8.6,1.55.36,2.13.57c1.79.66,2.68,1.79,2.68,3.41,0,1.16-.5,2.09-1.49,2.81s-2.27,1.07-3.84,1.07c-1.06,0-2.01-.19-2.83-.57s-1.47-.9-1.94-1.56-.7-1.37-.7-2.14h3.21c.03.6.25,1.06.67,1.38s.97.48,1.66.48c.65,0,1.14-.12,1.47-.37s.5-.57.5-.97Z"/><path d="m636.99,489.88c0,1.77-.25,3.46-.76,5.1s-1.24,3.07-2.19,4.32-1.97,2.11-3.06,2.58l-.66-1.79c1.11-.84,1.98-2.12,2.62-3.87s.97-3.75,1-6.01v-.62c0-2.34-.32-4.39-.96-6.18s-1.53-3.12-2.67-4.01l.66-1.79c1.06.46,2.06,1.3,3.01,2.51s1.67,2.62,2.19,4.23.79,3.28.81,5v.53Z"/><path d="m284.02,332.8h-17.06v-5.25c0-1.5.34-2.84,1.01-4.03s1.64-2.11,2.88-2.77,2.66-1,4.25-1h.79c1.59,0,3,.33,4.23.98s2.19,1.57,2.87,2.76,1.02,2.53,1.03,4.02v5.29Zm-14.21-3.52h11.39v-1.7c0-1.38-.45-2.43-1.35-3.15s-2.18-1.1-3.86-1.11h-.9c-1.73,0-3.05.36-3.94,1.08s-1.34,1.77-1.34,3.15v1.73Z"/><path d="m268.06,317.45c-.51,0-.93-.17-1.25-.51s-.49-.8-.49-1.39.16-1.04.49-1.38.75-.52,1.25-.52.94.17,1.27.52.49.81.49,1.38-.16,1.03-.49,1.38-.75.52-1.27.52Zm15.96-3.6v3.4h-12.68v-3.4h12.68Z"/><path d="m280.52,304.2c-.41,0-.74.21-.98.62s-.45,1.07-.64,1.97c-.63,3.02-1.91,4.52-3.84,4.52-1.12,0-2.06-.47-2.82-1.4s-1.13-2.15-1.13-3.66c0-1.61.38-2.9,1.14-3.86s1.74-1.45,2.95-1.45v3.39c-.48,0-.88.16-1.2.47s-.47.8-.47,1.46c0,.57.13,1.01.39,1.32s.59.47.98.47c.38,0,.68-.18.91-.53s.43-.96.6-1.8.36-1.55.57-2.13c.66-1.79,1.79-2.68,3.41-2.68,1.16,0,2.09.5,2.81,1.49s1.07,2.27,1.07,3.84c0,1.06-.19,2.01-.57,2.83s-.9,1.47-1.56,1.94-1.37.7-2.14.7v-3.21c.6-.03,1.06-.25,1.38-.67s.48-.97.48-1.66c0-.65-.12-1.14-.37-1.47s-.57-.5-.97-.5Z"/><path d="m268.22,294.67h3.12v-2.17h2.48v2.17h6.33c.47,0,.8-.09,1.01-.27s.3-.52.3-1.03c0-.38-.03-.71-.08-1h2.57c.2.66.3,1.35.3,2.05,0,2.38-1.2,3.59-3.6,3.63h-6.83v1.85h-2.48v-1.85h-3.12v-3.39Z"/><path d="m284.02,283.27c-.3.16-.68.27-1.14.34.91.82,1.37,1.89,1.37,3.2,0,1.24-.36,2.27-1.08,3.09s-1.62,1.22-2.72,1.22c-1.34,0-2.38-.5-3.09-1.49s-1.08-2.44-1.09-4.32v-1.56h-.73c-.59,0-1.05.15-1.41.45s-.53.78-.53,1.42c0,.57.14,1.02.41,1.34s.65.49,1.12.49v3.39c-.73,0-1.41-.23-2.04-.68s-1.12-1.09-1.47-1.92-.53-1.76-.53-2.79c0-1.56.39-2.8,1.18-3.72s1.89-1.38,3.31-1.38h5.5c1.2,0,2.11-.18,2.73-.5h.2v3.42Zm-2.36,2.8c0-.5-.11-.96-.33-1.38s-.52-.73-.9-.94h-2.18v1.27c0,1.7.59,2.6,1.76,2.71h.2c.42.01.77-.14,1.04-.43s.41-.7.41-1.22Z"/><path d="m271.34,274.63l1.46-.11c-1.13-.91-1.7-2.12-1.7-3.64,0-1.34.39-2.34,1.18-3s1.97-.99,3.54-1.01h8.19v3.39h-8.11c-.72,0-1.24.16-1.56.47s-.49.83-.49,1.56c0,.95.41,1.67,1.22,2.14h8.94v3.39h-12.68v-3.19Z"/><path d="m281.52,259.04c0-.62-.17-1.13-.52-1.52s-.8-.59-1.37-.61v-3.18c.86,0,1.65.24,2.36.7s1.27,1.09,1.66,1.89.59,1.69.59,2.65c0,1.81-.58,3.24-1.73,4.29s-2.74,1.57-4.78,1.57h-.22c-1.95,0-3.51-.52-4.68-1.56s-1.75-2.46-1.75-4.28c0-1.59.45-2.86,1.35-3.81s2.1-1.44,3.6-1.46v3.18c-.66.02-1.2.22-1.61.61-.41.39-.62.91-.62,1.55,0,.79.29,1.38.86,1.79.58.4,1.51.6,2.8.6h.35c1.31,0,2.25-.2,2.82-.6s.86-1,.86-1.82Z"/><path d="m284.25,245.96c0,1.86-.57,3.37-1.71,4.54s-2.66,1.75-4.56,1.75h-.33c-1.27,0-2.41-.25-3.42-.74s-1.78-1.19-2.32-2.09-.81-1.93-.81-3.09c0-1.73.55-3.1,1.64-4.1s2.64-1.49,4.65-1.49h1.38v8.07c.83-.11,1.49-.44,1.99-.99s.75-1.25.75-2.09c0-1.3-.47-2.32-1.42-3.06l1.86-1.66c.72.51,1.28,1.2,1.68,2.06s.6,1.83.6,2.88Zm-10.42.39c0,.67.23,1.22.68,1.63s1.11.69,1.95.8v-4.71h-.27c-.75.02-1.34.22-1.75.61s-.62.95-.62,1.66Z"/><path d="m277.08,232.69c-1.79,0-3.49-.24-5.11-.71s-3.05-1.18-4.29-2.11-2.11-1.94-2.6-3.02l1.83-.66c.84,1.14,2.15,2.03,3.91,2.67s3.83.96,6.19.96h.36c2.37,0,4.44-.32,6.21-.95s3.1-1.53,3.97-2.68l1.79.66c-.48,1.06-1.32,2.05-2.53,2.97s-2.6,1.62-4.18,2.1-3.23.74-4.95.77h-.62Z"/><path d="m271.34,221.24l1.42-.11c-1.1-.9-1.65-2.11-1.65-3.64,0-1.63.64-2.75,1.93-3.36-1.29-.89-1.93-2.16-1.93-3.81,0-1.38.4-2.4,1.2-3.07s2.01-1.01,3.62-1.01h8.1v3.4h-8.09c-.72,0-1.24.14-1.58.42s-.5.78-.5,1.49c0,1.02.48,1.72,1.45,2.11h8.71s0,3.38,0,3.38h-8.07c-.73,0-1.27.14-1.59.43s-.49.78-.49,1.48c0,.96.4,1.66,1.2,2.09h8.96v3.39h-12.68v-3.18Z"/><path d="m277.35,197.8c1.77,0,3.46.25,5.1.76s3.07,1.24,4.32,2.19,2.11,1.97,2.58,3.06l-1.79.66c-.84-1.11-2.12-1.98-3.87-2.62s-3.75-.97-6.01-1h-.62c-2.34,0-4.39.32-6.18.96s-3.12,1.53-4.01,2.67l-1.79-.66c.46-1.06,1.3-2.06,2.51-3.01s2.62-1.67,4.23-2.19,3.28-.79,5-.81h.53Z"/></svg>