<?xml version="1.0" encoding="UTF-8"?><svg xmlns="http://www.w3.org/2000/svg" width="570" height="300" xmlns:xlink="http://www.w3.org/1999/xlink" viewBox="0 0 570 300"><defs><clipPath id="i"><path d="m-39.12,173.65c-37.89,143.33,12.61,280.15-44.99,329.02-98.33,83.41-329.03-9.14-505.41,11.62-706.36,83.16-488.3-74.19-545.03-268.97-126.07-432.84,299.01-319.62,537.46-315.22C-285.71-64.15,59.02-197.56-39.12,173.65Z" fill="none"/></clipPath><clipPath id="k"><path d="m569.68,158.77c1.73,25.89-3.63,52.14-16.07,76.02-17.03,32.69-57.69,57.83-104.45,63.98-52.65,6.93-105.55-8.89-158.91-11.55-59.26-2.95-120.46,10.29-177.3-2.44-33.61-7.53-63.25-24.11-82.71-45.72C3.74,209.6-3.28,172.43,1.3,137.22,6.16,99.99,28.58,63.95,68.31,40.15,134.47.51,239.14-3.13,320.73.31c56.98,2.4,127.19,12.2,172.76,39.69,42.58,25.68,68.08,65.36,74.63,105.19.74,4.51,1.26,9.04,1.56,13.58Z" fill="#d9caff"/></clipPath><clipPath id="l"><ellipse cx="254.25" cy="108.65" rx="41.65" ry="42.48" transform="translate(35.76 278.08) rotate(-60.93)" fill="none"/></clipPath></defs><g id="h"><g clip-path="url(#i)"><rect x="-1193.16" y="-98.7" width="1374.44" height="758.65" fill="#bfe4df"/></g></g><g id="j"><path d="m569.68,158.77c1.73,25.89-3.63,52.14-16.07,76.02-17.03,32.69-57.69,57.83-104.45,63.98-52.65,6.93-105.55-8.89-158.91-11.55-59.26-2.95-120.46,10.29-177.3-2.44-33.61-7.53-63.25-24.11-82.71-45.72C3.74,209.6-3.28,172.43,1.3,137.22,6.16,99.99,28.58,63.95,68.31,40.15,134.47.51,239.14-3.13,320.73.31c56.98,2.4,127.19,12.2,172.76,39.69,42.58,25.68,68.08,65.36,74.63,105.19.74,4.51,1.26,9.04,1.56,13.58Z" fill="#d9caff"/><g clip-path="url(#k)"><rect x="13" y="233.5" width="552" height="82" fill="#b1a1e2"/></g><ellipse cx="254.25" cy="108.65" rx="41.65" ry="42.48" transform="translate(35.76 278.08) rotate(-60.93)" fill="#fffffd"/><g clip-path="url(#l)"><line x1="286.51" y1="122.32" x2="307.56" y2="138.02" fill="#a5c3c9" stroke="#a5c3c9" stroke-linecap="round" stroke-miterlimit="10" stroke-width="2"/><line x1="255" y1="71.5" x2="233" y2="66.5" fill="none" stroke="#a5c3c9" stroke-linecap="round" stroke-miterlimit="10" stroke-width="2"/><line x1="302.27" y1="90.87" x2="290.03" y2="107.99" fill="#a5c3c9" stroke="#a5c3c9" stroke-linecap="round" stroke-miterlimit="10" stroke-width="2"/><line x1="268.49" y1="84.9" x2="275.98" y2="102.42" fill="#a5c3c9" stroke="#a5c3c9" stroke-linecap="round" stroke-miterlimit="10" stroke-width="2"/><line x1="302.19" y1="78.26" x2="273.54" y2="71.22" fill="#a5c3c9" stroke="#a5c3c9" stroke-linecap="round" stroke-miterlimit="10" stroke-width="2"/><line x1="313.45" y1="91.62" x2="320.47" y2="108.24" fill="none" stroke="#a5c3c9" stroke-linecap="round" stroke-miterlimit="10" stroke-width="2"/><line x1="322.81" y1="121.44" x2="319.39" y2="137.25" fill="none" stroke="#a5c3c9" stroke-linecap="round" stroke-miterlimit="10" stroke-width="2"/><line x1="305.38" y1="150.03" x2="289.44" y2="167.4" fill="none" stroke="#a5c3c9" stroke-linecap="round" stroke-miterlimit="10" stroke-width="2"/><line x1="277.81" y1="171.12" x2="257.58" y2="156.85" fill="none" stroke="#a5c3c9" stroke-linecap="round" stroke-miterlimit="10" stroke-width="2"/><line x1="274.14" y1="126.09" x2="256.07" y2="145.08" fill="none" stroke="#a5c3c9" stroke-linecap="round" stroke-miterlimit="10" stroke-width="2"/><line x1="268.88" y1="113.82" x2="241.01" y2="107.47" fill="none" stroke="#a5c3c9" stroke-linecap="round" stroke-miterlimit="10" stroke-width="2"/><line x1="242.63" y1="143.72" x2="233.96" y2="113.12" fill="none" stroke="#a5c3c9" stroke-linecap="round" stroke-miterlimit="10" stroke-width="2"/><line x1="254.8" y1="79.85" x2="241.58" y2="93.33" fill="none" stroke="#a5c3c9" stroke-linecap="round" stroke-miterlimit="10" stroke-width="2"/><line x1="220.92" y1="106.55" x2="206.33" y2="110.46" fill="none" stroke="#a5c3c9" stroke-linecap="round" stroke-miterlimit="10" stroke-width="2"/><line x1="228.87" y1="91.93" x2="227" y2="76.5" fill="none" stroke="#a5c3c9" stroke-linecap="round" stroke-miterlimit="10" stroke-width="2"/><line x1="238.92" y1="155.1" x2="212.91" y2="154.56" fill="none" stroke="#a5c3c9" stroke-linecap="round" stroke-miterlimit="10" stroke-width="2"/><line x1="246.93" y1="164.22" x2="245.46" y2="187.32" fill="none" stroke="#a5c3c9" stroke-linecap="round" stroke-miterlimit="10" stroke-width="2"/><path d="m249.99,164.76l6.91-3.21c2.66-1.24,4.22-4.05,3.87-6.96l-.92-7.56c-.35-2.91-2.54-5.27-5.42-5.83l-7.47-1.47c-2.88-.56-5.8.79-7.22,3.35l-3.7,6.66c-1.43,2.56-1.04,5.76.96,7.91l5.19,5.58c2,2.15,5.15,2.77,7.81,1.53Z" fill="#394170"/><path d="m305.59,153.05l6.86,3.32c2.64,1.28,5.81.71,7.84-1.4l5.28-5.49c2.03-2.12,2.47-5.3,1.09-7.89l-3.59-6.72c-1.39-2.59-4.28-3.99-7.17-3.47l-7.5,1.34c-2.89.52-5.12,2.84-5.52,5.74l-1.04,7.55c-.4,2.91,1.12,5.74,3.76,7.02Z" fill="#394170"/><path d="m276.57,186.1l6.86,3.32c2.64,1.28,5.81.71,7.84-1.4l5.28-5.49c2.03-2.12,2.47-5.3,1.09-7.89l-3.59-6.72c-1.39-2.59-4.28-3.99-7.17-3.47l-7.5,1.34c-2.89.52-5.12,2.84-5.52,5.74l-1.04,7.55c-.4,2.91,1.12,5.74,3.76,7.02Z" fill="#394170"/><path d="m237.33,115.64l6.42-4.1c2.47-1.58,3.65-4.57,2.91-7.41l-1.91-7.37c-.74-2.84-3.22-4.88-6.15-5.06l-7.6-.46c-2.93-.18-5.64,1.55-6.71,4.28l-2.79,7.09c-1.07,2.73-.27,5.84,2,7.71l5.88,4.84c2.27,1.86,5.48,2.06,7.95.48Z" fill="#394170"/><path d="m277.59,127.97l7.43-1.69c2.86-.65,4.98-3.07,5.24-6l.69-7.59c.26-2.92-1.38-5.68-4.08-6.84l-7-3c-2.7-1.15-5.83-.44-7.76,1.77l-5.01,5.73c-1.93,2.21-2.22,5.41-.72,7.93l3.9,6.54c1.5,2.52,4.46,3.78,7.32,3.13Z" fill="#394170"/><path d="m318.3,109.3l.21,7.61c.08,2.93,2.04,5.48,4.85,6.31l7.3,2.16c2.81.83,5.84-.24,7.5-2.66l4.31-6.28c1.66-2.42,1.57-5.63-.21-7.96l-4.64-6.04c-1.79-2.33-4.87-3.24-7.64-2.26l-7.18,2.55c-2.77.98-4.58,3.63-4.51,6.57Z" fill="#394170"/><path d="m265.38,59.88l-7.25,2.35c-2.79.9-4.68,3.5-4.69,6.44v7.62c-.01,2.93,1.88,5.54,4.67,6.45l7.24,2.36c2.79.91,5.85-.08,7.58-2.45l4.48-6.16c1.73-2.37,1.73-5.59,0-7.96l-4.47-6.17c-1.72-2.38-4.78-3.37-7.57-2.47Z" fill="#394170"/><path d="m303.12,92.82l7.05.77c2.96.32,5.67-1.66,6.26-4.57l.8-3.96c.45-2.25-.47-4.55-2.35-5.86l-7.59-5.29c-1.88-1.31-4.36-1.38-6.31-.17l-3.43,2.12c-2.53,1.56-3.45,4.8-2.12,7.46l3.17,6.35c.87,1.75,2.57,2.93,4.51,3.14Z" fill="#394170"/></g><path d="m179.1,9.39c5.11,3.4,9.28,7.84,13.51,12.18,8.4,8.76,16.29,18.09,22.81,28.36,3.21,5.15,6.33,10.52,7.73,16.51l-.27.11c-1.26-1.93-2.19-3.95-3.4-5.87-4.71-8.44-10.47-16.54-16.63-23.99-3.76-4.69-7.77-9.18-11.81-13.64-4.05-4.46-8.38-8.62-12.13-13.44l.2-.22h0Z" fill="#5c539c"/><path d="m223.09,18.39c10.35,5.8,25.03,28.35,27.04,40.06,0,0-.27.11-.27.11-2.36-3.42-3.87-7.12-5.84-10.64-1.89-3.54-4.01-6.96-6.24-10.3-2.19-3.37-4.63-6.56-7.14-9.69-2.53-3.14-5.35-5.94-7.74-9.31l.19-.23h0Z" fill="#5c539c"/></g></svg>