<?xml version="1.0" encoding="UTF-8"?>
<svg id="Layer_1" data-name="Layer 1" xmlns="http://www.w3.org/2000/svg" xmlns:xlink="http://www.w3.org/1999/xlink" viewBox="0 0 1140 706.135">
  <defs>
    <style>
      .cls-1, .cls-2, .cls-3, .cls-4 {
        fill: none;
      }

      .cls-5 {
        clip-path: url(#clippath);
      }

      .cls-6 {
        fill: #0024b3;
      }

      .cls-7 {
        fill: #6a7d82;
      }

      .cls-8 {
        fill: #001415;
      }

      .cls-9 {
        fill: #ff7c33;
      }

      .cls-10 {
        fill: #7c949b;
      }

      .cls-11 {
        fill: #9ed195;
      }

      .cls-12 {
        fill: #b7211d;
      }

      .cls-13 {
        fill: #b6472d;
      }

      .cls-14 {
        fill: #331313;
      }

      .cls-15 {
        fill: #d8efea;
      }

      .cls-16 {
        fill: #c87550;
      }

      .cls-17 {
        fill: #a7e4f2;
      }

      .cls-18 {
        fill: #962c06;
      }

      .cls-19 {
        fill: #45ad9e;
      }

      .cls-20 {
        fill: #3a596b;
      }

      .cls-21 {
        fill: #5e1f21;
      }

      .cls-2 {
        stroke: #001415;
      }

      .cls-2, .cls-3, .cls-4 {
        stroke-linecap: round;
        stroke-linejoin: round;
        stroke-width: 3px;
      }

      .cls-3 {
        stroke: #b7211d;
      }

      .cls-4 {
        stroke: #0024b3;
      }
    </style>
    <clipPath id="clippath">
      <path class="cls-1" d="m577.322,5.721c-129.447-3.642-277.515-15.397-396.584,56.919C7.964,167.574-80.656,519.073,118.384,652.263c69.858,46.746,146.522,43.533,223.44,44.139,116.617.919,231.009-18.643,348.514-6.369,80.814,8.441,162.296,24.778,242.535,10.401,67.207-12.042,135.215-49.62,170.759-119.661,17.346-34.18,25.926-73.979,29.675-113.829,7.485-79.567-4.537-163.654-42.301-229.428-55.889-97.341-162.299-156.595-253.5-189.446-84.773-30.536-172.178-39.873-260.185-42.348Z"/>
    </clipPath>
  </defs>
  <g class="cls-5">
    <rect class="cls-17" x="-28.798" y="-16.825" width="1168.181" height="575.434"/>
    <rect class="cls-11" x="-27.477" y="543.045" width="1168.181" height="210.07"/>
  </g>
  <g>
    <path d="m333.252,102.539l2.871-15.176h4.38l-4.731,21.328h-4.424l-3.472-14.268-3.472,14.268h-4.424l-4.731-21.328h4.38l2.886,15.146,3.516-15.146h3.721l3.501,15.176Z"/>
    <path d="m351.299,108.691c-.195-.381-.337-.854-.425-1.421-1.025,1.143-2.358,1.714-3.999,1.714-1.553,0-2.84-.449-3.859-1.348-1.021-.898-1.531-2.031-1.531-3.398,0-1.68.623-2.969,1.867-3.867,1.246-.898,3.045-1.353,5.398-1.362h1.948v-.908c0-.732-.188-1.318-.563-1.758-.377-.439-.97-.659-1.78-.659-.713,0-1.272.171-1.677.513-.406.342-.608.811-.608,1.406h-4.233c0-.918.283-1.768.85-2.549s1.367-1.394,2.402-1.839c1.035-.443,2.197-.666,3.486-.666,1.953,0,3.503.49,4.65,1.473,1.147.98,1.722,2.36,1.722,4.138v6.87c.01,1.504.22,2.642.63,3.413v.249h-4.277Zm-3.501-2.944c.625,0,1.201-.14,1.729-.417.527-.279.918-.652,1.172-1.121v-2.725h-1.582c-2.119,0-3.247.732-3.384,2.197l-.015.249c0,.527.186.962.557,1.304s.879.513,1.523.513Z"/>
    <path d="m362.667,108.691h-4.248v-22.5h4.248v22.5Z"/>
    <path d="m371.91,102.334l-1.523,1.523v4.834h-4.233v-22.5h4.233v12.466l.82-1.055,4.058-4.761h5.083l-5.728,6.606,6.226,9.243h-4.863l-4.072-6.357Z"/>
  </g>
  <g>
    <g>
      <path d="m75.657,379.46h-5.01v8.628h-2.827v-21.328h7.061c2.402,0,4.25.547,5.545,1.641,1.293,1.094,1.94,2.686,1.94,4.775,0,1.328-.358,2.485-1.077,3.472-.717.986-1.716,1.724-2.995,2.212l5.01,9.053v.176h-3.018l-4.629-8.628Zm-5.01-2.3h4.321c1.396,0,2.507-.362,3.332-1.086s1.238-1.692,1.238-2.906c0-1.32-.394-2.332-1.18-3.037-.786-.704-1.921-1.062-3.405-1.071h-4.307v8.101Z"/>
      <path d="m92.459,388.381c-2.148,0-3.896-.705-5.244-2.117-1.348-1.41-2.021-3.298-2.021-5.661v-.498c0-1.572.3-2.976.901-4.212.6-1.234,1.439-2.201,2.52-2.9,1.078-.697,2.248-1.047,3.508-1.047,2.061,0,3.662.679,4.805,2.036s1.714,3.301,1.714,5.83v1.128h-10.737c.039,1.562.495,2.825,1.369,3.787s1.985,1.442,3.333,1.442c.957,0,1.768-.195,2.432-.586s1.245-.908,1.743-1.553l1.655,1.289c-1.328,2.041-3.32,3.062-5.977,3.062Zm-.337-14.209c-1.094,0-2.012.398-2.754,1.193-.742.797-1.201,1.912-1.377,3.348h7.939v-.205c-.078-1.377-.449-2.443-1.113-3.201-.664-.756-1.562-1.135-2.695-1.135Z"/>
      <path d="m111.561,388.088c-.156-.312-.283-.869-.381-1.67-1.26,1.309-2.764,1.963-4.512,1.963-1.562,0-2.845-.441-3.846-1.326-1.001-.883-1.501-2.004-1.501-3.361,0-1.65.627-2.932,1.882-3.846,1.255-.912,3.021-1.369,5.296-1.369h2.637v-1.245c0-.947-.283-1.701-.85-2.263s-1.401-.843-2.505-.843c-.967,0-1.777.244-2.432.732s-.981,1.079-.981,1.772h-2.725c0-.791.28-1.555.843-2.293.561-.736,1.322-1.32,2.285-1.75.961-.43,2.019-.645,3.171-.645,1.826,0,3.257.457,4.292,1.369,1.035.914,1.572,2.171,1.611,3.772v7.295c0,1.455.186,2.612.557,3.472v.234h-2.842Zm-4.497-2.065c.85,0,1.655-.22,2.417-.659s1.313-1.011,1.655-1.714v-3.252h-2.124c-3.32,0-4.98.972-4.98,2.915,0,.85.283,1.514.85,1.992s1.294.718,2.183.718Z"/>
      <path d="m124.451,386.169c.967,0,1.812-.293,2.534-.879s1.123-1.318,1.201-2.197h2.563c-.049.908-.361,1.772-.938,2.593s-1.346,1.475-2.307,1.963c-.963.488-1.98.732-3.055.732-2.158,0-3.875-.72-5.148-2.16-1.275-1.44-1.912-3.411-1.912-5.911v-.454c0-1.543.283-2.915.85-4.116s1.379-2.134,2.439-2.798c1.059-.664,2.312-.996,3.757-.996,1.777,0,3.254.532,4.431,1.597s1.805,2.446,1.883,4.146h-2.563c-.078-1.025-.467-1.867-1.165-2.527-.698-.658-1.56-.988-2.585-.988-1.377,0-2.444.496-3.2,1.486-.758.992-1.136,2.425-1.136,4.3v.513c0,1.826.376,3.232,1.128,4.219s1.826,1.479,3.223,1.479Z"/>
      <path d="m137.474,368.4v3.838h2.959v2.095h-2.959v9.842c0,.636.132,1.112.396,1.43s.713.477,1.348.477c.312,0,.742-.059,1.289-.176v2.185c-.713.194-1.406.291-2.08.291-1.211,0-2.124-.366-2.739-1.099s-.923-1.772-.923-3.12v-9.829h-2.886v-2.095h2.886v-3.838h2.71Z"/>
      <path d="m143.611,368.034c0-.439.134-.811.403-1.113.268-.303.666-.454,1.193-.454s.928.151,1.201.454.41.674.41,1.113-.137.806-.41,1.099-.674.439-1.201.439-.926-.146-1.193-.439c-.27-.293-.403-.659-.403-1.099Zm2.93,20.054h-2.71v-15.85h2.71v15.85Z"/>
      <path d="m150.159,380.017c0-1.553.305-2.949.915-4.189s1.46-2.197,2.549-2.871,2.332-1.011,3.729-1.011c2.158,0,3.904.747,5.236,2.241,1.334,1.494,2,3.481,2,5.962v.19c0,1.543-.296,2.928-.887,4.153s-1.436,2.18-2.533,2.863c-1.1.684-2.361,1.025-3.787,1.025-2.148,0-3.889-.747-5.223-2.241-1.332-1.494-1.999-3.472-1.999-5.933v-.19Zm2.725.322c0,1.758.407,3.169,1.224,4.233.814,1.064,1.906,1.597,3.273,1.597,1.377,0,2.471-.539,3.281-1.618s1.216-2.591,1.216-4.534c0-1.738-.413-3.146-1.237-4.226-.826-1.079-1.922-1.619-3.289-1.619-1.338,0-2.417.532-3.237,1.597s-1.23,2.588-1.23,4.57Z"/>
      <path d="m170.55,372.238l.088,1.992c1.211-1.523,2.793-2.285,4.746-2.285,3.35,0,5.039,1.89,5.068,5.669v10.474h-2.71v-10.488c-.01-1.143-.271-1.987-.783-2.534-.514-.547-1.312-.82-2.396-.82-.879,0-1.65.234-2.314.703s-1.182,1.084-1.553,1.846v11.294h-2.71v-15.85h2.563Z"/>
      <path d="m193.299,388.088v-13.755h-2.505v-2.095h2.505v-1.626c0-1.699.454-3.013,1.362-3.94s2.192-1.392,3.853-1.392c.625,0,1.245.083,1.86.247l-.146,2.185c-.459-.088-.947-.132-1.465-.132-.879,0-1.558.257-2.036.771s-.718,1.252-.718,2.212v1.675h3.384v2.095h-3.384v13.755h-2.71Z"/>
      <path d="m201.663,380.017c0-1.553.305-2.949.915-4.189s1.46-2.197,2.549-2.871,2.332-1.011,3.729-1.011c2.158,0,3.904.747,5.236,2.241,1.334,1.494,2,3.481,2,5.962v.19c0,1.543-.296,2.928-.887,4.153s-1.436,2.18-2.533,2.863c-1.1.684-2.361,1.025-3.787,1.025-2.148,0-3.889-.747-5.223-2.241-1.332-1.494-1.999-3.472-1.999-5.933v-.19Zm2.725.322c0,1.758.407,3.169,1.224,4.233.814,1.064,1.906,1.597,3.273,1.597,1.377,0,2.471-.539,3.281-1.618s1.216-2.591,1.216-4.534c0-1.738-.413-3.146-1.237-4.226-.826-1.079-1.922-1.619-3.289-1.619-1.338,0-2.417.532-3.237,1.597s-1.23,2.588-1.23,4.57Z"/>
      <path d="m227.151,374.67c-.41-.068-.854-.103-1.333-.103-1.777,0-2.983.757-3.618,2.271v11.25h-2.71v-15.85h2.637l.044,1.831c.889-1.416,2.148-2.124,3.779-2.124.527,0,.928.068,1.201.205v2.52Z"/>
      <path d="m235.721,386.169c.967,0,1.812-.293,2.534-.879s1.123-1.318,1.201-2.197h2.563c-.049.908-.361,1.772-.938,2.593s-1.346,1.475-2.307,1.963c-.963.488-1.98.732-3.055.732-2.158,0-3.875-.72-5.148-2.16-1.275-1.44-1.912-3.411-1.912-5.911v-.454c0-1.543.283-2.915.85-4.116s1.379-2.134,2.439-2.798c1.059-.664,2.312-.996,3.757-.996,1.777,0,3.254.532,4.431,1.597s1.805,2.446,1.883,4.146h-2.563c-.078-1.025-.467-1.867-1.165-2.527-.698-.658-1.56-.988-2.585-.988-1.377,0-2.444.496-3.2,1.486-.758.992-1.136,2.425-1.136,4.3v.513c0,1.826.376,3.232,1.128,4.219s1.826,1.479,3.223,1.479Z"/>
      <path d="m251.644,388.381c-2.148,0-3.896-.705-5.244-2.117-1.348-1.41-2.021-3.298-2.021-5.661v-.498c0-1.572.3-2.976.901-4.212.6-1.234,1.439-2.201,2.52-2.9,1.078-.697,2.248-1.047,3.508-1.047,2.061,0,3.662.679,4.805,2.036s1.714,3.301,1.714,5.83v1.128h-10.737c.039,1.562.495,2.825,1.369,3.787s1.985,1.442,3.333,1.442c.957,0,1.768-.195,2.432-.586s1.245-.908,1.743-1.553l1.655,1.289c-1.328,2.041-3.32,3.062-5.977,3.062Zm-.337-14.209c-1.094,0-2.012.398-2.754,1.193-.742.797-1.201,1.912-1.377,3.348h7.939v-.205c-.078-1.377-.449-2.443-1.113-3.201-.664-.756-1.562-1.135-2.695-1.135Z"/>
    </g>
    <g>
      <path d="m275.667,387.659h-7.776l.162-.81c.63,0,1.129-.055,1.499-.162.369-.108.666-.328.891-.662.225-.333.4-.832.526-1.498l2.403-11.557c.126-.629.162-1.102.108-1.417-.054-.314-.252-.53-.594-.648-.342-.116-.882-.175-1.62-.175l.162-.811h13.932l-.729,4.401h-.81c.018-.864-.032-1.539-.148-2.025-.118-.485-.428-.827-.932-1.025-.504-.198-1.341-.297-2.511-.297h-4.05l-2.808,13.823c-.036.181-.063.347-.081.5s-.027.293-.027.418c0,.469.216.774.648.918.432.145,1.062.217,1.89.217l-.135.81Zm4.995-6.048h-.891c.144-.773.18-1.341.108-1.701-.072-.359-.302-.599-.688-.716-.388-.116-.968-.175-1.742-.175h-3.186l.189-1.026h3.267c.773,0,1.372-.071,1.795-.216.423-.144.747-.409.972-.797.225-.387.409-.94.553-1.66h.864l-1.242,6.291Z"/>
      <path d="m288.186,396.65h-4.344l.094-.473c.388,0,.688-.031.897-.094.209-.063.37-.199.48-.409s.207-.535.291-.977l1.385-6.753c.063-.293.079-.524.047-.692-.031-.168-.139-.288-.323-.362-.184-.073-.485-.109-.905-.109l.094-.473h3.699c.734,0,1.361.076,1.881.229s.918.386,1.196.7.417.729.417,1.243c0,.557-.105,1.023-.315,1.401-.21.378-.483.688-.819.929s-.695.428-1.078.559c-.383.132-.748.229-1.094.291v.079c.189.126.367.317.535.574.167.258.375.628.622,1.11s.585,1.133,1.015,1.951c.179.315.375.527.59.638.215.11.501.165.858.165l-.094.473h-2.393c-.294-.65-.541-1.193-.74-1.629-.2-.436-.373-.801-.52-1.095-.147-.293-.275-.556-.386-.786-.11-.231-.229-.468-.354-.709-.116-.22-.242-.364-.378-.433-.137-.068-.346-.103-.63-.103h-.472l.11-.582.629.016c.63-.021,1.199-.123,1.708-.307s.91-.476,1.204-.874.441-.934.441-1.605c0-.283-.061-.549-.181-.795-.121-.247-.328-.446-.622-.599-.294-.151-.703-.228-1.228-.228-.199,0-.359.002-.48.008-.121.005-.27.019-.449.039l-1.574,7.729c-.084.431-.113.753-.087.969.026.215.144.354.354.417.209.062.54.094.992.094l-.079.473Z"/>
    </g>
    <path d="m290.17,359.012c-2.645,1.134-4.75,3.186-6.559,5.291l-.567-.54c.648-.891,1.431-1.781,2.268-2.646.243-.243.378-.54.378-.782,0-.271-.216-.54-.702-.54h-16.546v-1.836h16.574c.27,0,.702-.323.702-.594,0-.243-.108-.432-.378-.701-.81-.756-1.646-1.728-2.268-2.646l.567-.54c1.782,2.078,3.887,4.157,6.532,5.264v.27Z"/>
  </g>
  <g>
    <g>
      <path d="m344.334,648.471h-8.936l-2.007,5.581h-2.9l8.145-21.328h2.461l8.159,21.328h-2.886l-2.036-5.581Zm-8.086-2.3h7.251l-3.633-9.976-3.618,9.976Z"/>
      <path d="m358.06,652.133c.967,0,1.812-.293,2.534-.879s1.123-1.318,1.201-2.197h2.563c-.049.908-.361,1.772-.938,2.593s-1.346,1.475-2.307,1.963c-.963.488-1.98.732-3.055.732-2.158,0-3.875-.72-5.148-2.16-1.275-1.44-1.912-3.411-1.912-5.911v-.454c0-1.543.283-2.915.85-4.116s1.379-2.134,2.439-2.798c1.059-.664,2.312-.996,3.757-.996,1.777,0,3.254.532,4.431,1.597s1.805,2.446,1.883,4.146h-2.563c-.078-1.025-.467-1.867-1.165-2.527-.698-.658-1.56-.988-2.585-.988-1.377,0-2.444.496-3.2,1.486-.758.992-1.136,2.425-1.136,4.3v.513c0,1.826.376,3.232,1.128,4.219s1.826,1.479,3.223,1.479Z"/>
      <path d="m371.083,634.364v3.838h2.959v2.095h-2.959v9.842c0,.636.132,1.112.396,1.43s.713.477,1.348.477c.312,0,.742-.059,1.289-.176v2.185c-.713.194-1.406.291-2.08.291-1.211,0-2.124-.366-2.739-1.099s-.923-1.772-.923-3.12v-9.829h-2.886v-2.095h2.886v-3.838h2.71Z"/>
      <path d="m377.22,633.998c0-.439.134-.811.403-1.113.268-.303.666-.454,1.193-.454s.928.151,1.201.454.41.674.41,1.113-.137.806-.41,1.099-.674.439-1.201.439-.926-.146-1.193-.439c-.27-.293-.403-.659-.403-1.099Zm2.93,20.054h-2.71v-15.85h2.71v15.85Z"/>
      <path d="m383.768,645.98c0-1.553.305-2.949.915-4.189s1.46-2.197,2.549-2.871,2.332-1.011,3.729-1.011c2.158,0,3.904.747,5.236,2.241,1.334,1.494,2,3.481,2,5.962v.19c0,1.543-.296,2.928-.887,4.153s-1.436,2.18-2.533,2.863c-1.1.684-2.361,1.025-3.787,1.025-2.148,0-3.889-.747-5.223-2.241-1.332-1.494-1.999-3.472-1.999-5.933v-.19Zm2.725.322c0,1.758.407,3.169,1.224,4.233.814,1.064,1.906,1.597,3.273,1.597,1.377,0,2.471-.539,3.281-1.618s1.216-2.591,1.216-4.534c0-1.738-.413-3.146-1.237-4.226-.826-1.079-1.922-1.619-3.289-1.619-1.338,0-2.417.532-3.237,1.597s-1.23,2.588-1.23,4.57Z"/>
      <path d="m404.159,638.202l.088,1.992c1.211-1.523,2.793-2.285,4.746-2.285,3.35,0,5.039,1.89,5.068,5.669v10.474h-2.71v-10.488c-.01-1.143-.271-1.987-.783-2.534-.514-.547-1.312-.82-2.396-.82-.879,0-1.65.234-2.314.703s-1.182,1.084-1.553,1.846v11.294h-2.71v-15.85h2.563Z"/>
      <path d="m426.908,654.052v-13.755h-2.505v-2.095h2.505v-1.626c0-1.699.454-3.013,1.362-3.94s2.192-1.392,3.853-1.392c.625,0,1.245.083,1.86.247l-.146,2.185c-.459-.088-.947-.132-1.465-.132-.879,0-1.558.257-2.036.771s-.718,1.252-.718,2.212v1.675h3.384v2.095h-3.384v13.755h-2.71Z"/>
      <path d="m435.272,645.98c0-1.553.305-2.949.915-4.189s1.46-2.197,2.549-2.871,2.332-1.011,3.729-1.011c2.158,0,3.904.747,5.236,2.241,1.334,1.494,2,3.481,2,5.962v.19c0,1.543-.296,2.928-.887,4.153s-1.436,2.18-2.533,2.863c-1.1.684-2.361,1.025-3.787,1.025-2.148,0-3.889-.747-5.223-2.241-1.332-1.494-1.999-3.472-1.999-5.933v-.19Zm2.725.322c0,1.758.407,3.169,1.224,4.233.814,1.064,1.906,1.597,3.273,1.597,1.377,0,2.471-.539,3.281-1.618s1.216-2.591,1.216-4.534c0-1.738-.413-3.146-1.237-4.226-.826-1.079-1.922-1.619-3.289-1.619-1.338,0-2.417.532-3.237,1.597s-1.23,2.588-1.23,4.57Z"/>
      <path d="m460.76,640.634c-.41-.068-.854-.103-1.333-.103-1.777,0-2.983.757-3.618,2.271v11.25h-2.71v-15.85h2.637l.044,1.831c.889-1.416,2.148-2.124,3.779-2.124.527,0,.928.068,1.201.205v2.52Z"/>
      <path d="m469.33,652.133c.967,0,1.812-.293,2.534-.879s1.123-1.318,1.201-2.197h2.563c-.049.908-.361,1.772-.938,2.593s-1.346,1.475-2.307,1.963c-.963.488-1.98.732-3.055.732-2.158,0-3.875-.72-5.148-2.16-1.275-1.44-1.912-3.411-1.912-5.911v-.454c0-1.543.283-2.915.85-4.116s1.379-2.134,2.439-2.798c1.059-.664,2.312-.996,3.757-.996,1.777,0,3.254.532,4.431,1.597s1.805,2.446,1.883,4.146h-2.563c-.078-1.025-.467-1.867-1.165-2.527-.698-.658-1.56-.988-2.585-.988-1.377,0-2.444.496-3.2,1.486-.758.992-1.136,2.425-1.136,4.3v.513c0,1.826.376,3.232,1.128,4.219s1.826,1.479,3.223,1.479Z"/>
      <path d="m485.252,654.345c-2.148,0-3.896-.705-5.244-2.117-1.348-1.41-2.021-3.298-2.021-5.661v-.498c0-1.572.3-2.976.901-4.212.6-1.234,1.439-2.201,2.52-2.9,1.078-.697,2.248-1.047,3.508-1.047,2.061,0,3.662.679,4.805,2.036s1.714,3.301,1.714,5.83v1.128h-10.737c.039,1.562.495,2.825,1.369,3.787s1.985,1.442,3.333,1.442c.957,0,1.768-.195,2.432-.586s1.245-.908,1.743-1.553l1.655,1.289c-1.328,2.041-3.32,3.062-5.977,3.062Zm-.337-14.209c-1.094,0-2.012.398-2.754,1.193-.742.797-1.201,1.912-1.377,3.348h7.939v-.205c-.078-1.377-.449-2.443-1.113-3.201-.664-.756-1.562-1.135-2.695-1.135Z"/>
    </g>
    <g>
      <path d="m511.353,653.623h-7.776l.162-.81c.63,0,1.129-.055,1.499-.162.369-.108.666-.328.891-.662.225-.333.4-.832.526-1.498l2.403-11.557c.126-.629.162-1.102.108-1.417-.054-.314-.252-.53-.594-.648-.342-.116-.882-.175-1.62-.175l.162-.811h13.932l-.729,4.401h-.81c.018-.864-.032-1.539-.148-2.025-.118-.485-.428-.827-.932-1.025-.504-.198-1.341-.297-2.511-.297h-4.05l-2.808,13.823c-.036.181-.063.347-.081.5s-.027.293-.027.418c0,.469.216.774.648.918.432.145,1.062.217,1.89.217l-.135.81Zm4.995-6.048h-.891c.144-.773.18-1.341.108-1.701-.072-.359-.302-.599-.688-.716-.388-.116-.968-.175-1.742-.175h-3.186l.189-1.026h3.267c.773,0,1.372-.071,1.795-.216.423-.144.747-.409.972-.797.225-.387.409-.94.553-1.66h.864l-1.242,6.291Z"/>
      <path d="m521.983,662.614h-3.29l.11-.473c.294,0,.541-.047.74-.142.199-.094.419-.285.661-.574.241-.288.556-.731.944-1.33l5.447-7.887h.661l1.243,8.532c.105.514.241.876.409,1.086s.488.314.96.314l-.094.473h-4.203l.095-.473c.262,0,.485-.021.669-.062.183-.042.328-.126.433-.252s.158-.32.158-.582c0-.126-.003-.244-.008-.354s-.013-.213-.023-.307l-.173-1.574-.031-.315-.535-4.706h-.047l-3.148,4.706-.189.315-1.196,1.826c-.105.146-.197.294-.275.44-.079.147-.118.294-.118.44,0,.168.065.281.197.339.131.058.37.086.716.086l-.11.473Zm4.911-3.447h-4.407l.377-.63h3.967l.063.63Z"/>
    </g>
    <path d="m526.335,624.977c-2.645,1.134-4.75,3.186-6.559,5.291l-.567-.54c.648-.891,1.431-1.781,2.268-2.646.243-.243.378-.54.378-.782,0-.271-.216-.54-.702-.54h-16.546v-1.836h16.574c.27,0,.702-.323.702-.594,0-.243-.108-.432-.378-.701-.81-.756-1.646-1.728-2.268-2.646l.567-.54c1.782,2.078,3.887,4.157,6.532,5.264v.27Z"/>
  </g>
  <g>
    <g>
      <path d="m793.391,648.471h-8.936l-2.007,5.581h-2.9l8.145-21.328h2.461l8.159,21.328h-2.886l-2.036-5.581Zm-8.086-2.3h7.251l-3.633-9.976-3.618,9.976Z"/>
      <path d="m807.116,652.133c.967,0,1.812-.293,2.534-.879s1.123-1.318,1.201-2.197h2.563c-.049.908-.361,1.772-.938,2.593s-1.346,1.475-2.307,1.963c-.963.488-1.98.732-3.055.732-2.158,0-3.875-.72-5.148-2.16-1.275-1.44-1.912-3.411-1.912-5.911v-.454c0-1.543.283-2.915.85-4.116s1.379-2.134,2.439-2.798c1.059-.664,2.312-.996,3.757-.996,1.777,0,3.254.532,4.431,1.597s1.805,2.446,1.883,4.146h-2.563c-.078-1.025-.467-1.867-1.165-2.527-.698-.658-1.56-.988-2.585-.988-1.377,0-2.444.496-3.2,1.486-.758.992-1.136,2.425-1.136,4.3v.513c0,1.826.376,3.232,1.128,4.219s1.826,1.479,3.223,1.479Z"/>
      <path d="m820.139,634.364v3.838h2.959v2.095h-2.959v9.842c0,.636.132,1.112.396,1.43s.713.477,1.348.477c.312,0,.742-.059,1.289-.176v2.185c-.713.194-1.406.291-2.08.291-1.211,0-2.124-.366-2.739-1.099s-.923-1.772-.923-3.12v-9.829h-2.886v-2.095h2.886v-3.838h2.71Z"/>
      <path d="m826.276,633.998c0-.439.134-.811.403-1.113.268-.303.666-.454,1.193-.454s.928.151,1.201.454.41.674.41,1.113-.137.806-.41,1.099-.674.439-1.201.439-.926-.146-1.193-.439c-.27-.293-.403-.659-.403-1.099Zm2.93,20.054h-2.71v-15.85h2.71v15.85Z"/>
      <path d="m832.824,645.98c0-1.553.305-2.949.915-4.189s1.46-2.197,2.549-2.871,2.332-1.011,3.729-1.011c2.158,0,3.904.747,5.236,2.241,1.334,1.494,2,3.481,2,5.962v.19c0,1.543-.296,2.928-.887,4.153s-1.436,2.18-2.533,2.863c-1.1.684-2.361,1.025-3.787,1.025-2.148,0-3.889-.747-5.223-2.241-1.332-1.494-1.999-3.472-1.999-5.933v-.19Zm2.725.322c0,1.758.407,3.169,1.224,4.233.814,1.064,1.906,1.597,3.273,1.597,1.377,0,2.471-.539,3.281-1.618s1.216-2.591,1.216-4.534c0-1.738-.413-3.146-1.237-4.226-.826-1.079-1.922-1.619-3.289-1.619-1.338,0-2.417.532-3.237,1.597s-1.23,2.588-1.23,4.57Z"/>
      <path d="m853.215,638.202l.088,1.992c1.211-1.523,2.793-2.285,4.746-2.285,3.35,0,5.039,1.89,5.068,5.669v10.474h-2.71v-10.488c-.01-1.143-.271-1.987-.783-2.534-.514-.547-1.312-.82-2.396-.82-.879,0-1.65.234-2.314.703s-1.182,1.084-1.553,1.846v11.294h-2.71v-15.85h2.563Z"/>
      <path d="m875.964,654.052v-13.755h-2.505v-2.095h2.505v-1.626c0-1.699.454-3.013,1.362-3.94s2.192-1.392,3.853-1.392c.625,0,1.245.083,1.86.247l-.146,2.185c-.459-.088-.947-.132-1.465-.132-.879,0-1.558.257-2.036.771s-.718,1.252-.718,2.212v1.675h3.384v2.095h-3.384v13.755h-2.71Z"/>
      <path d="m884.328,645.98c0-1.553.305-2.949.915-4.189s1.46-2.197,2.549-2.871,2.332-1.011,3.729-1.011c2.158,0,3.904.747,5.236,2.241,1.334,1.494,2,3.481,2,5.962v.19c0,1.543-.296,2.928-.887,4.153s-1.436,2.18-2.533,2.863c-1.1.684-2.361,1.025-3.787,1.025-2.148,0-3.889-.747-5.223-2.241-1.332-1.494-1.999-3.472-1.999-5.933v-.19Zm2.725.322c0,1.758.407,3.169,1.224,4.233.814,1.064,1.906,1.597,3.273,1.597,1.377,0,2.471-.539,3.281-1.618s1.216-2.591,1.216-4.534c0-1.738-.413-3.146-1.237-4.226-.826-1.079-1.922-1.619-3.289-1.619-1.338,0-2.417.532-3.237,1.597s-1.23,2.588-1.23,4.57Z"/>
      <path d="m909.816,640.634c-.41-.068-.854-.103-1.333-.103-1.777,0-2.983.757-3.618,2.271v11.25h-2.71v-15.85h2.637l.044,1.831c.889-1.416,2.148-2.124,3.779-2.124.527,0,.928.068,1.201.205v2.52Z"/>
      <path d="m918.386,652.133c.967,0,1.812-.293,2.534-.879s1.123-1.318,1.201-2.197h2.563c-.049.908-.361,1.772-.938,2.593s-1.346,1.475-2.307,1.963c-.963.488-1.98.732-3.055.732-2.158,0-3.875-.72-5.148-2.16-1.275-1.44-1.912-3.411-1.912-5.911v-.454c0-1.543.283-2.915.85-4.116s1.379-2.134,2.439-2.798c1.059-.664,2.312-.996,3.757-.996,1.777,0,3.254.532,4.431,1.597s1.805,2.446,1.883,4.146h-2.563c-.078-1.025-.467-1.867-1.165-2.527-.698-.658-1.56-.988-2.585-.988-1.377,0-2.444.496-3.2,1.486-.758.992-1.136,2.425-1.136,4.3v.513c0,1.826.376,3.232,1.128,4.219s1.826,1.479,3.223,1.479Z"/>
      <path d="m934.309,654.345c-2.148,0-3.896-.705-5.244-2.117-1.348-1.41-2.021-3.298-2.021-5.661v-.498c0-1.572.3-2.976.901-4.212.6-1.234,1.439-2.201,2.52-2.9,1.078-.697,2.248-1.047,3.508-1.047,2.061,0,3.662.679,4.805,2.036s1.714,3.301,1.714,5.83v1.128h-10.737c.039,1.562.495,2.825,1.369,3.787s1.985,1.442,3.333,1.442c.957,0,1.768-.195,2.432-.586s1.245-.908,1.743-1.553l1.655,1.289c-1.328,2.041-3.32,3.062-5.977,3.062Zm-.337-14.209c-1.094,0-2.012.398-2.754,1.193-.742.797-1.201,1.912-1.377,3.348h7.939v-.205c-.078-1.377-.449-2.443-1.113-3.201-.664-.756-1.562-1.135-2.695-1.135Z"/>
    </g>
    <g>
      <path d="m960.409,653.623h-7.776l.162-.81c.63,0,1.13-.055,1.499-.162.368-.108.665-.328.891-.662.225-.333.4-.832.526-1.498l2.403-11.557c.126-.629.162-1.102.107-1.417-.054-.314-.252-.53-.594-.648-.342-.116-.882-.175-1.62-.175l.162-.811h13.933l-.729,4.401h-.81c.018-.864-.032-1.539-.148-2.025-.118-.485-.428-.827-.932-1.025-.505-.198-1.342-.297-2.512-.297h-4.05l-2.808,13.823c-.036.181-.063.347-.081.5-.019.153-.027.293-.027.418,0,.469.216.774.648.918.432.145,1.062.217,1.89.217l-.135.81Zm4.995-6.048h-.892c.145-.773.18-1.341.108-1.701-.072-.359-.302-.599-.688-.716-.388-.116-.968-.175-1.741-.175h-3.187l.189-1.026h3.267c.773,0,1.372-.071,1.796-.216.423-.144.746-.409.972-.797.225-.387.409-.94.554-1.66h.864l-1.242,6.291Z"/>
      <path d="m971.039,662.614h-3.29l.11-.473c.294,0,.54-.047.739-.142.199-.094.42-.285.661-.574.241-.288.557-.731.944-1.33l5.447-7.887h.661l1.243,8.532c.104.514.241.876.409,1.086s.488.314.96.314l-.094.473h-4.203l.095-.473c.262,0,.484-.021.669-.062.183-.042.327-.126.433-.252.104-.126.157-.32.157-.582,0-.126-.003-.244-.008-.354-.006-.11-.014-.213-.023-.307l-.174-1.574-.031-.315-.535-4.706h-.047l-3.148,4.706-.188.315-1.196,1.826c-.105.146-.197.294-.275.44-.079.147-.118.294-.118.44,0,.168.065.281.196.339s.37.086.717.086l-.11.473Zm4.911-3.447h-4.407l.377-.63h3.967l.063.63Z"/>
    </g>
    <path d="m975.392,624.977c-2.646,1.134-4.751,3.186-6.56,5.291l-.566-.54c.647-.891,1.431-1.781,2.268-2.646.242-.243.378-.54.378-.782,0-.271-.217-.54-.702-.54h-16.547v-1.836h16.574c.27,0,.701-.323.701-.594,0-.243-.107-.432-.378-.701-.81-.756-1.646-1.728-2.268-2.646l.567-.54c1.781,2.078,3.887,4.157,6.532,5.264v.27Z"/>
  </g>
  <g>
    <g>
      <path d="m542.199,379.46h-5.01v8.628h-2.827v-21.328h7.061c2.402,0,4.25.547,5.545,1.641,1.293,1.094,1.94,2.686,1.94,4.775,0,1.328-.358,2.485-1.077,3.472-.717.986-1.716,1.724-2.995,2.212l5.01,9.053v.176h-3.018l-4.629-8.628Zm-5.01-2.3h4.321c1.396,0,2.507-.362,3.332-1.086s1.238-1.692,1.238-2.906c0-1.32-.394-2.332-1.18-3.037-.786-.704-1.921-1.062-3.405-1.071h-4.307v8.101Z"/>
      <path d="m559,388.381c-2.148,0-3.896-.705-5.244-2.117-1.348-1.41-2.021-3.298-2.021-5.661v-.498c0-1.572.3-2.976.901-4.212.6-1.234,1.439-2.201,2.52-2.9,1.078-.697,2.248-1.047,3.508-1.047,2.061,0,3.662.679,4.805,2.036s1.714,3.301,1.714,5.83v1.128h-10.737c.039,1.562.495,2.825,1.369,3.787s1.985,1.442,3.333,1.442c.957,0,1.768-.195,2.432-.586s1.245-.908,1.743-1.553l1.655,1.289c-1.328,2.041-3.32,3.062-5.977,3.062Zm-.337-14.209c-1.094,0-2.012.398-2.754,1.193-.742.797-1.201,1.912-1.377,3.348h7.939v-.205c-.078-1.377-.449-2.443-1.113-3.201-.664-.756-1.562-1.135-2.695-1.135Z"/>
      <path d="m578.102,388.088c-.156-.312-.283-.869-.381-1.67-1.26,1.309-2.764,1.963-4.512,1.963-1.562,0-2.844-.441-3.845-1.326-1.001-.883-1.501-2.004-1.501-3.361,0-1.65.627-2.932,1.882-3.846,1.255-.912,3.02-1.369,5.295-1.369h2.637v-1.245c0-.947-.283-1.701-.85-2.263s-1.401-.843-2.505-.843c-.967,0-1.777.244-2.432.732s-.981,1.079-.981,1.772h-2.725c0-.791.28-1.555.843-2.293.561-.736,1.322-1.32,2.285-1.75.961-.43,2.019-.645,3.171-.645,1.826,0,3.257.457,4.292,1.369,1.035.914,1.572,2.171,1.611,3.772v7.295c0,1.455.186,2.612.557,3.472v.234h-2.842Zm-4.497-2.065c.85,0,1.655-.22,2.417-.659s1.313-1.011,1.655-1.714v-3.252h-2.124c-3.32,0-4.98.972-4.98,2.915,0,.85.283,1.514.849,1.992.566.479,1.294.718,2.183.718Z"/>
      <path d="m590.992,386.169c.967,0,1.812-.293,2.534-.879s1.123-1.318,1.201-2.197h2.563c-.049.908-.361,1.772-.938,2.593s-1.346,1.475-2.307,1.963c-.963.488-1.98.732-3.055.732-2.158,0-3.875-.72-5.148-2.16-1.275-1.44-1.912-3.411-1.912-5.911v-.454c0-1.543.283-2.915.85-4.116s1.379-2.134,2.439-2.798c1.059-.664,2.312-.996,3.757-.996,1.777,0,3.254.532,4.431,1.597s1.805,2.446,1.883,4.146h-2.563c-.078-1.025-.467-1.867-1.165-2.527-.698-.658-1.56-.988-2.585-.988-1.377,0-2.444.496-3.2,1.486-.758.992-1.136,2.425-1.136,4.3v.513c0,1.826.376,3.232,1.128,4.219s1.826,1.479,3.223,1.479Z"/>
      <path d="m604.015,368.4v3.838h2.959v2.095h-2.959v9.842c0,.636.132,1.112.396,1.43s.713.477,1.348.477c.312,0,.742-.059,1.289-.176v2.185c-.713.194-1.406.291-2.08.291-1.211,0-2.124-.366-2.739-1.099s-.923-1.772-.923-3.12v-9.829h-2.886v-2.095h2.886v-3.838h2.71Z"/>
      <path d="m610.152,368.034c0-.439.134-.811.403-1.113.268-.303.666-.454,1.193-.454s.928.151,1.201.454.41.674.41,1.113-.137.806-.41,1.099-.674.439-1.201.439-.926-.146-1.193-.439c-.27-.293-.403-.659-.403-1.099Zm2.93,20.054h-2.71v-15.85h2.71v15.85Z"/>
      <path d="m616.7,380.017c0-1.553.305-2.949.915-4.189s1.46-2.197,2.549-2.871,2.332-1.011,3.729-1.011c2.158,0,3.904.747,5.236,2.241,1.334,1.494,2,3.481,2,5.962v.19c0,1.543-.296,2.928-.887,4.153s-1.436,2.18-2.533,2.863c-1.1.684-2.361,1.025-3.787,1.025-2.148,0-3.889-.747-5.223-2.241-1.332-1.494-1.999-3.472-1.999-5.933v-.19Zm2.725.322c0,1.758.407,3.169,1.224,4.233.814,1.064,1.906,1.597,3.273,1.597,1.377,0,2.471-.539,3.281-1.618s1.216-2.591,1.216-4.534c0-1.738-.413-3.146-1.237-4.226-.826-1.079-1.922-1.619-3.289-1.619-1.338,0-2.417.532-3.237,1.597s-1.23,2.588-1.23,4.57Z"/>
      <path d="m637.091,372.238l.088,1.992c1.211-1.523,2.793-2.285,4.746-2.285,3.35,0,5.039,1.89,5.068,5.669v10.474h-2.71v-10.488c-.01-1.143-.271-1.987-.783-2.534-.514-.547-1.312-.82-2.396-.82-.879,0-1.65.234-2.314.703s-1.182,1.084-1.553,1.846v11.294h-2.71v-15.85h2.563Z"/>
      <path d="m659.84,388.088v-13.755h-2.505v-2.095h2.505v-1.626c0-1.699.454-3.013,1.362-3.94s2.192-1.392,3.853-1.392c.625,0,1.245.083,1.86.247l-.146,2.185c-.459-.088-.947-.132-1.465-.132-.879,0-1.558.257-2.036.771s-.718,1.252-.718,2.212v1.675h3.384v2.095h-3.384v13.755h-2.71Z"/>
      <path d="m668.204,380.017c0-1.553.305-2.949.915-4.189s1.46-2.197,2.549-2.871,2.332-1.011,3.729-1.011c2.158,0,3.904.747,5.236,2.241,1.334,1.494,2,3.481,2,5.962v.19c0,1.543-.296,2.928-.887,4.153s-1.436,2.18-2.533,2.863c-1.1.684-2.361,1.025-3.787,1.025-2.148,0-3.889-.747-5.223-2.241-1.332-1.494-1.999-3.472-1.999-5.933v-.19Zm2.725.322c0,1.758.407,3.169,1.224,4.233.814,1.064,1.906,1.597,3.273,1.597,1.377,0,2.471-.539,3.281-1.618s1.216-2.591,1.216-4.534c0-1.738-.413-3.146-1.237-4.226-.826-1.079-1.922-1.619-3.289-1.619-1.338,0-2.417.532-3.237,1.597s-1.23,2.588-1.23,4.57Z"/>
      <path d="m693.692,374.67c-.41-.068-.854-.103-1.333-.103-1.777,0-2.983.757-3.618,2.271v11.25h-2.71v-15.85h2.637l.044,1.831c.889-1.416,2.148-2.124,3.779-2.124.527,0,.928.068,1.201.205v2.52Z"/>
      <path d="m702.262,386.169c.967,0,1.812-.293,2.534-.879s1.123-1.318,1.201-2.197h2.563c-.049.908-.361,1.772-.938,2.593s-1.346,1.475-2.307,1.963c-.963.488-1.98.732-3.055.732-2.158,0-3.875-.72-5.148-2.16-1.275-1.44-1.912-3.411-1.912-5.911v-.454c0-1.543.283-2.915.85-4.116s1.379-2.134,2.439-2.798c1.059-.664,2.312-.996,3.757-.996,1.777,0,3.254.532,4.431,1.597s1.805,2.446,1.883,4.146h-2.563c-.078-1.025-.467-1.867-1.165-2.527-.698-.658-1.56-.988-2.585-.988-1.377,0-2.444.496-3.2,1.486-.758.992-1.136,2.425-1.136,4.3v.513c0,1.826.376,3.232,1.128,4.219s1.826,1.479,3.223,1.479Z"/>
      <path d="m718.185,388.381c-2.148,0-3.896-.705-5.244-2.117-1.348-1.41-2.021-3.298-2.021-5.661v-.498c0-1.572.3-2.976.901-4.212.6-1.234,1.439-2.201,2.52-2.9,1.078-.697,2.248-1.047,3.508-1.047,2.061,0,3.662.679,4.805,2.036s1.714,3.301,1.714,5.83v1.128h-10.737c.039,1.562.495,2.825,1.369,3.787s1.985,1.442,3.333,1.442c.957,0,1.768-.195,2.432-.586s1.245-.908,1.743-1.553l1.655,1.289c-1.328,2.041-3.32,3.062-5.977,3.062Zm-.337-14.209c-1.094,0-2.012.398-2.754,1.193-.742.797-1.201,1.912-1.377,3.348h7.939v-.205c-.078-1.377-.449-2.443-1.113-3.201-.664-.756-1.562-1.135-2.695-1.135Z"/>
    </g>
    <g>
      <path d="m742.209,387.659h-7.776l.162-.81c.63,0,1.13-.055,1.499-.162.368-.108.665-.328.891-.662.225-.333.4-.832.526-1.498l2.403-11.557c.126-.629.162-1.102.107-1.417-.054-.314-.252-.53-.594-.648-.342-.116-.882-.175-1.62-.175l.162-.811h13.933l-.729,4.401h-.81c.018-.864-.032-1.539-.148-2.025-.118-.485-.428-.827-.932-1.025-.505-.198-1.342-.297-2.512-.297h-4.05l-2.808,13.823c-.036.181-.063.347-.081.5-.019.153-.027.293-.027.418,0,.469.216.774.648.918.432.145,1.062.217,1.89.217l-.135.81Zm4.995-6.048h-.892c.145-.773.18-1.341.108-1.701-.072-.359-.302-.599-.688-.716-.388-.116-.968-.175-1.741-.175h-3.187l.189-1.026h3.267c.773,0,1.372-.071,1.796-.216.423-.144.746-.409.972-.797.225-.387.409-.94.554-1.66h.864l-1.242,6.291Z"/>
      <path d="m754.728,396.65h-4.345l.095-.473c.388,0,.688-.031.897-.094.209-.063.369-.199.479-.409s.207-.535.291-.977l1.386-6.753c.062-.293.079-.524.047-.692-.031-.168-.139-.288-.322-.362-.184-.073-.485-.109-.905-.109l.095-.473h3.699c.734,0,1.361.076,1.881.229s.918.386,1.196.7c.277.314.417.729.417,1.243,0,.557-.105,1.023-.314,1.401-.21.378-.483.688-.819.929s-.695.428-1.078.559c-.383.132-.747.229-1.094.291v.079c.189.126.367.317.535.574.168.258.375.628.622,1.11.246.482.585,1.133,1.015,1.951.179.315.376.527.591.638s.501.165.857.165l-.094.473h-2.393c-.294-.65-.541-1.193-.74-1.629s-.373-.801-.52-1.095c-.146-.293-.275-.556-.386-.786-.11-.231-.229-.468-.354-.709-.116-.22-.242-.364-.378-.433-.137-.068-.347-.103-.63-.103h-.473l.11-.582.63.016c.63-.021,1.199-.123,1.708-.307s.91-.476,1.204-.874.44-.934.44-1.605c0-.283-.061-.549-.181-.795-.121-.247-.328-.446-.622-.599-.294-.151-.703-.228-1.228-.228-.199,0-.359.002-.48.008-.12.005-.27.019-.448.039l-1.574,7.729c-.084.431-.113.753-.087.969.026.215.145.354.354.417.21.062.54.094.992.094l-.079.473Z"/>
    </g>
    <path d="m756.711,359.012c-2.645,1.134-4.75,3.186-6.559,5.291l-.567-.54c.648-.891,1.431-1.781,2.268-2.646.243-.243.378-.54.378-.782,0-.271-.216-.54-.702-.54h-16.546v-1.836h16.573c.27,0,.702-.323.702-.594,0-.243-.108-.432-.378-.701-.81-.756-1.646-1.728-2.268-2.646l.566-.54c1.782,2.078,3.888,4.157,6.532,5.264v.27Z"/>
  </g>
  <g>
    <path d="m782.012,100.884h-3.501v7.808h-4.395v-21.328h7.925c2.52,0,4.463.562,5.83,1.685s2.051,2.71,2.051,4.761c0,1.455-.315,2.669-.944,3.641-.631.972-1.585,1.745-2.864,2.321l4.614,8.716v.205h-4.717l-3.999-7.808Zm-3.501-3.56h3.545c1.104,0,1.958-.28,2.563-.842s.908-1.336.908-2.322c0-1.006-.286-1.797-.856-2.373-.572-.576-1.448-.864-2.63-.864h-3.53v6.401Z"/>
    <path d="m802.476,107.08c-1.045,1.27-2.49,1.904-4.336,1.904-1.699,0-2.995-.488-3.89-1.465-.893-.977-1.35-2.407-1.369-4.292v-10.386h4.233v10.251c0,1.652.752,2.479,2.256,2.479,1.436,0,2.422-.498,2.959-1.496v-11.233h4.248v15.85h-3.984l-.117-1.611Z"/>
    <path d="m813.667,92.842l.132,1.831c1.133-1.416,2.651-2.124,4.556-2.124,1.68,0,2.93.493,3.75,1.479s1.24,2.461,1.26,4.424v10.239h-4.233v-10.137c0-.898-.195-1.55-.586-1.955s-1.04-.608-1.948-.608c-1.191,0-2.085.508-2.681,1.523v11.177h-4.233v-15.85h3.984Z"/>
  </g>
  <g>
    <path class="cls-10" d="m807.079,390.557c2.268,5.99,33.839,53.915,41.889,61.972,8.05,8.058,29.737-1.637,29.949-11.342.211-9.706-37.76-60.112-37.76-60.112l-34.078,9.482Z"/>
    <path class="cls-10" d="m776.79,320.612s-5.212,11.168-2.978,32.016c2.234,20.848,39.532,56.771,39.532,56.771l25.244-40.391-13.811-32.833-47.987-15.564Z"/>
    <path class="cls-10" d="m800.616,369.008c-3.723,5.212-26.06,58.076-28.293,69.244-2.234,11.168,17.869,23.826,26.06,18.614,8.19-5.212,29.038-64.777,29.038-64.777l-26.804-23.081Z"/>
    <path class="cls-10" d="m801.634,451.389s-47.766,107.229-50.12,107.644c-2.354.415-15.248-1.451-14.702-10.9.546-9.449,36.345-110.973,36.345-110.973l28.477,14.229Z"/>
    <path class="cls-10" d="m842.312,325.824c1.805,1.084,6.318,15.875,6.701,31.271.383,15.396-20.103,54.353-20.103,54.353-20.022-1.479-27.41,13.124-40.241-2.049l15.256-53.935,1.904-27.407,36.483-2.234Z"/>
    <path class="cls-16" d="m846.574,237.052c17.253,6.872,51.362,25.063,64.431,38.257,1.591,1.606,3.181,3.299,4.039,5.39.858,2.091.839,4.689-.614,6.42-2.543,3.03-13.357,2.293-17.026.813-14.538-5.865-37.496-21.476-52.034-27.341-2.073-.836-4.32-1.827-5.317-3.828-.969-1.946-.464-4.282.213-6.349,1.891-5.778-2.585-9.925,1.45-14.472"/>
    <path class="cls-16" d="m914.97,284.055c-3.719-3.461-22.806-6.209-23.657-4.581-5.971,11.417-15.772,36.414-21.743,47.83-1.507,2.881,5.51,11.826,7.003,10.623,12.265-9.889,30.133-36.464,37.143-50.016l1.254-3.855Z"/>
    <path class="cls-16" d="m754.656,327.995c2.445-4.453.435-23.632-1.352-24.059-12.531-2.994-39.167-6.375-51.699-9.368-3.162-.755-10.117,8.239-8.584,9.391,12.591,9.47,42.733,20.286,57.589,23.764l4.045.272Z"/>
    <path class="cls-10" d="m950.273,473.991l-99.57-20.048s3.566-19.907,10.967-23.136c7.401-3.229,95.211,27.973,95.211,27.973,0,0-.864,14.431-6.608,15.212Z"/>
    <path class="cls-16" d="m781.458,251.87c2.117-2.624,1.426-6.829-1.03-9.14s-5.6-2.674-8.135-.451c-9.38,8.228-13.202,16.9-16.938,28.805-4.138,13.185-9.559,36.031-8.647,48.475.297,4.047-1.592,4.478,1.717,6.828,3.032,2.153,7.445,1.492,10.378-.794,2.933-2.286,12.676-32.753,15.875-38.604,3.199-5.851,6.371-11.846,7.686-18.384s.542-13.8-3.553-19.063"/>
    <path class="cls-9" d="m772.312,329.964c-.139-2.63,3.258-26.249,3.548-39.745.37-17.246-6.006-28.993-6.308-39.224-.177-5.974,1.014-7.526,2.822-8.94,6.624-5.181,7.752-8.409,15.941-10.072,11.214-2.278,30.29-3.122,41.583-1.318,8.417,1.345,16.954,4.9,21.996,11.601,3.251,4.321,4.421,6.936,3.025,12.131-2.211,8.231-5.015,24.664-4.799,38.155s-.118,34.035-.918,36.715c0,0-76.678,4.712-76.89.698Z"/>
    <path class="cls-8" d="m837.424,222.431c4.932-4.494,7.461-29.028-5.011-46.597-4.003-5.639-12.743-8.991-19.61-9.808-6.245-.743-16.414,1.025-20.791,2.305-10.947,3.202-17.865,16.193-20.266,28.212-2.393,11.978,13.238,31.124,16.213,30.256,14.444-4.214,14.928-9.042,16.394-9.194.398-.041,8.084,2.443,8.431,2.642l7.527,1.202c1.153.392,16.213,1.805,17.114.984Z"/>
    <path class="cls-16" d="m816.625,218.202l-.112,20.181s-2.828,4.678-9.454,3.382c-6.626-1.297-9.018-4.053-9.018-4.053l-.193-19.341,18.776-.169Z"/>
    <path class="cls-16" d="m791.085,234.738c.216,4.097,7.872,8.897,16.977,8.416,9.105-.481,16.212-6.061,15.995-10.158-.216-4.097-7.576-3.292-16.681-2.811-9.105.481-16.508.456-16.292,4.553Z"/>
    <g>
      <path class="cls-21" d="m832.869,195.899c-.233,1.032-.555.979-.851,1.214-.28.212-.514.415-.714.602-.345.283-.557.596-.791.979-.138.136-.372.325-.828.544-.483.121-.962-.509-1.009-.788-.172-1.507,1.051-2.99,2.473-3.319.515-.115,1.045-.429,1.687.476.065.089.063.194.034.292h0Z"/>
      <path class="cls-16" d="m783.903,205.02c5.46,14.051,12.968,20.905,22.11,20.094,9.625-.854,19.606-6.145,22.214-22.436,2.194-13.71-2.284-31.844-23.863-31.032-19.346.728-25.49,20.432-20.46,33.374Z"/>
      <path class="cls-16" d="m824.666,202.056c.189-2.418,1.52-5.468,3.459-6.527,1.939-1.059,4.378-.896,6.217.415,1.082.771,2.018,2.771,2.276,4.174.29,1.575-.248,3.21-1.091,4.495-1.476,2.249-4.038,3.664-6.514,3.206-2.476-.459-4.411-2.477-4.366-5.284"/>
      <path class="cls-8" d="m820.065,199.051c-1.269-.269-1.732-.934-2.745-1.422-2.506-1.201-4.883-.15-7.028,1.265-.247.123-.519.257-.878.355-.099.028-.201-.03-.229-.128-.222-1.43.797-2.454,1.867-3.174,2.092-1.507,5.194-1.697,7.354-.191,1.093.699,2.1,1.694,1.908,3.137-.013.118-.135.194-.247.158h0Z"/>
      <ellipse class="cls-8" cx="812.817" cy="199.786" rx="2.344" ry="2.319" transform="translate(120.872 670.741) rotate(-48.049)"/>
      <path class="cls-8" d="m791.097,200.437c-.51-2.703,2.854-4.604,5.173-4.752,2.298-.099,5.853,1.082,5.92,3.782-.003.111-.106.195-.216.177-.63-.123-1.105-.31-1.622-.554-2.325-1.449-5.539-1.411-7.493.633-.395.293-.806.615-1.517.852-.105.037-.221-.028-.246-.137h0Z"/>
      <ellipse class="cls-8" cx="793.923" cy="200.784" rx="2.319" ry="2.344" transform="translate(113.467 656.425) rotate(-47.999)"/>
      <path class="cls-2" d="m820.445,191.627s-3.575-2.968-7.75-.935"/>
      <path class="cls-2" d="m798.768,190.323s-3.644.028-7.327,2.773"/>
      <path class="cls-21" d="m834.158,197.876c-.267,1.037-.623.995-.95,1.243-.571.434-1.005.774-1.404,1.329-.261.492-.39.671-1.087,1.039-.494.124-.961-.55-1.007-.84-.163-1.597,1.127-3.148,2.628-3.511.546-.129,1.11-.453,1.786.447.068.088.066.195.034.292h0Z"/>
      <path class="cls-8" d="m830.314,192.404s-6.592-3.927-14.95-5.144c-8.357-1.217-14.438.289-15.446-.843-1.008-1.131-1.774-11.156-1.65-13.295.124-2.139-1.228,5.913-1.488,9.955s1.388,6.087-5.676,6.934c-7.064.847-10.813,5.069-11.547,4.634-.734-.435-2.044-15.214,2.905-20.215,4.949-5,17.863-10.035,27.967-8.823,10.969,1.316,18.463,4.361,19.885,26.795Z"/>
      <path class="cls-21" d="m806.109,207.333c-.142.906-.683,1.198-1.248,1.33-1.232.449-3.075.01-3.722-1.287-1.293-2.326.38-6.262,2.59-7.391.083-.042.185-.009.228.074.141,1.934-1.066,3.596-1.017,5.331.075,1.039.706,1.209,1.56,1.233.377-.039.754-.047,1.476.447.094.053.151.158.133.262h0Z"/>
      <path class="cls-8" d="m824.823,188.299s1.761,32.903,2.598,36.265c.837,3.362,23.042-2.65,20.103-5.956-5.956-6.701-1.243-40.123-24.654-48.556-23.411-8.433,5.125,20.057,4.785,19.856"/>
      <path class="cls-8" d="m787.653,187.735c.035.657,2.962,14.458-1.283,15.232-2.725.497-7.51-4.878-7.027-10.287.483-5.41,8.31-4.944,8.31-4.944Z"/>
      <path class="cls-14" d="m802.671,212.52c.561-2.206,2.508-4.117,4.918-3.779,6.43.345,9.225,3.479,4.678,9.02-.899,1.195-2.469,2.381-4.108,2.364-2.368-.022-4.601-1.276-5.808-3.313-.764-1.402-.067-2.956.32-4.292h0Zm.288.056c-.15.648-.231,1.311-.093,1.919.132.545.543,1.003.917,1.35.745.664,1.767,1.513,2.766,1.825,2.36.924,3.831-1.084,4.866-2.878.358-.723.993-1.65.623-2.35-1.664-1.699-8.113-2.797-9.079.133h0Z"/>
      <path class="cls-16" d="m826.448,195.459c-2.186,1.05-3.782,3.141-4.068,5.332-.286,2.191-.12,4.69,1.767,5.931,1.11.73,2.545,1.132,3.947.866,1.573-.299,3.767-1.57,4.66-2.821,1.564-2.189,1.961-5.195.638-7.338-1.322-2.143-4.478-3.238-7.079-2.182"/>
      <path class="cls-21" d="m826.497,204.26c-1.084-.305-.985-.948-1.062-1.504-.145-1.214.398-2.616,1.476-3.303.605-.452,1.221-.655,1.9-.031.082.073.109.178.091.279-.069,1.118-.699,1.26-.981,2.166-.114.287-.226.612-.324.985-.114.395.055.711-.816,1.335-.079.067-.187.104-.284.074h0Z"/>
    </g>
    <path class="cls-9" d="m887.301,252.586c-2.202-1.718-29.354-19.832-57.55-20.261-11.419-.174,2.96,29.437,11.557,32.797,8.597,3.361,39.389,18.132,39.389,18.132l6.605-30.668Z"/>
    <path class="cls-9" d="m790.69,232.736s-14.372-1.658-26.411,15.9c-12.038,17.558-18.433,50.421-18.433,50.421l23.994,9.061,12.525-39.513,8.325-35.869Z"/>
    <path class="cls-18" d="m775.604,256.396c.995,3.109.819,6.224.894,9.335.058,3.112.024,6.223-.006,9.333-.082,3.11-.166,6.219-.331,9.326-.155,3.107-.174,6.219-1.179,9.298-.041.137-.261.139-.294-.009-1.304-6.169-.453-12.432-.608-18.658.077-3.104.134-6.208.253-9.312.135-3.105,0-6.206.977-9.312.038-.136.254-.146.294-.002h0Z"/>
    <path class="cls-8" d="m762.644,536.906l-12.161,27.176-16.877-12.657,8.935-25.811c8.076,1.958,14.465,6.132,20.103,11.293Z"/>
    <g>
      <path class="cls-19" d="m732.829,542.134s6.345-6.21,7.79-4.217,4.148,7.362,4.148,7.362l-4.876,3.565s7.054.414,8.739,2.039c1.685,1.625,5.457,5.662,5.457,5.662,0,0-4.28,9.963-7.263,14.027-.781,1.064-39.714-22.676-39.554-23.649.581-3.528,2.722-10.009,8.222-7.855,7.017,2.748,17.337,3.067,17.337,3.067Z"/>
      <path class="cls-1" d="m730.181,559.907c.39-5.445-9.122-18.835-9.122-18.835l-.601-.528c-1.718-.392-3.422-.873-4.966-1.478-5.499-2.154-7.64,4.326-8.222,7.855-.092.557,12.623,8.572,23.661,15.126-.518-.684-.803-1.399-.75-2.141Z"/>
      <path class="cls-1" d="m739.92,548.821l4.846-3.543s-2.703-5.37-4.148-7.362c-1.445-1.992-7.79,4.217-7.79,4.217,0,0-.036-.001-.051-.002,2.459,2.38,6.589,6.782,6.589,6.782,0,0,.213-.036.554-.093Z"/>
      <path class="cls-1" d="m747.181,569.428s-3.528-.829-7.37-2.235c4.015,2.247,6.809,3.655,7.013,3.378.519-.706,1.077-1.594,1.644-2.574l-1.287,1.431Z"/>
      <path class="cls-15" d="m736.627,559.895c-3.294-1.096-3.811,1.31-10.309-1.668-5.76-2.64-15.527-10.052-18.905-12.066-.276,1.333-.355,2.413-.306,2.763.182,1.298,18.4,12.774,20.874,14.189,2.612,1.495,4.853,1.436,4.934,2.538.081,1.102,9.507,6.472,11.932,6.614.832.049,2.18-1.786,3.593-4.218-2.188-.095-4.743-.184-6.354-.998-2.857-1.444-2.165-6.058-5.459-7.154Z"/>
      <path class="cls-20" d="m723.955,540.537c1.104-.383,1.485.185,1.991.558,1.276,1.018,2.298,2.522,2.475,4.182.023.288-.311,1.244-.839,1.147-.498-.23-.75-.426-.94-.629-.397-.662-.824-1.263-1.3-1.886,0,0-.951-1.308-.951-1.308-.316-.471-.797-.713-.615-1.831.01-.107.082-.2.179-.232h0Z"/>
      <path class="cls-20" d="m729.311,541.649c1.1-.241,1.324.314,1.712.697.375.405.703.856.969,1.35.421,1.042,1.245,2.588.021,3.439-.089.063-.2.068-.293.024-1.175-.424-1.245-1.423-1.86-2.332-.217-.403-.421-.821-.621-1.256-.19-.455-.578-.716-.146-1.726.035-.1.12-.175.219-.196h0Z"/>
      <path class="cls-20" d="m734,540.379c1.171.384,1.178,1.17,1.419,1.814.217.667.384,1.339.504,2.018.117.679.172,1.366.204,2.055.028.689.2,1.359-.607,2.167-.078.078-.198.091-.291.042-1.002-.54-1.035-1.216-1.22-1.873-.182-.656-.348-1.313-.464-1.976-.116-.663-.194-1.33-.248-1.999-.041-.687-.311-1.239.426-2.147.061-.091.175-.135.276-.1h0Z"/>
    </g>
    <path class="cls-16" d="m875.181,323.55c-1.488-.058-20.248,9.639-18.876,12.673,1.371,3.034,3.414,1.624,3.414,1.624,0,0-4.36.329-4.6,3.297-.962,11.884,12.216,17.865,17.409,12.107,5.193-5.758,8.81-22.009,8.81-22.009l-6.157-7.692Z"/>
    <path class="cls-16" d="m703.806,296.73c-.286-1.461-12.839-21.993-15.475-19.96s-1.998,8.205-1.998,8.205c0,0-1.324-4.167-4.268-3.717-11.787,1.8-14.572,16.001-7.773,19.729,6.799,3.728,23.446,3.505,23.446,3.505l6.068-7.762Z"/>
    <path class="cls-20" d="m806.161,353.189c-.265,3.286-1.588,6.144-2.669,9.099-1.097,2.949-2.265,5.87-3.422,8.795-1.203,2.907-2.4,5.815-3.66,8.699-1.254,2.886-2.368,5.828-4.394,8.402-.086.114-.294.04-.272-.11.332-3.259,1.575-6.149,2.679-9.095,1.097-2.949,2.258-5.873,3.413-8.799,1.2-2.908,2.39-5.819,3.651-8.702,1.276-2.877,2.311-5.851,4.404-8.398.087-.111.29-.038.272.11h0Z"/>
    <path class="cls-20" d="m842.438,378.018c-.824,3.304-2.627,6.024-4.207,8.876-1.594,2.844-3.254,5.65-4.905,8.46-1.692,2.786-3.379,5.575-5.125,8.329-1.739,2.758-3.35,5.592-5.805,7.923-.102.101-.299-.004-.252-.151.885-3.267,2.615-6.031,4.216-8.871,1.595-2.844,3.248-5.653,4.896-8.466,1.69-2.787,3.37-5.58,5.117-8.334,1.76-2.745,3.297-5.624,5.814-7.918.103-.098.295.006.252.15h0Z"/>
    <g>
      <path class="cls-8" d="m968.217,462.174l-18.569-5.68c1.751.597.451,11.502-4.215,17.184l18.66,3.999c6.477-2.646,7.455-8.009,4.124-15.503Z"/>
      <path class="cls-19" d="m963.59,475.948l-4.863-1.945-7.133.973,1.241,3.558s-3.298,10.366-3.891,14.266c-.593,3.899.704,9.411.704,9.411,0,0,9.347,4.53,13.617,3.566s8.374-7.79,8.374-7.79l6.54-35.332s-4.215-3.891-9.727-4.539c-5.512-.648-7.781,1.621-7.781,1.621l4.863,3.242c3.418,4.048,2.236,8.407-1.945,12.969Z"/>
      <path class="cls-15" d="m976.574,462.176s-2.609,29.335-5.527,33.55-7.457,10.699-11.348,10.051c-3.891-.648-1.945-7.133-5.188-8.43s-1.621,5.836-3.566,4.863,5.512,5.188,9.403,4.863c3.891-.324,11.024-3.566,12.645-10.051,1.621-6.485,6.528-33.847,6.311-34.795-.216-.948-5.851-2.324-5.851-2.324l3.121,2.272Z"/>
      <path class="cls-20" d="m963.59,479.337c-.94.989-1.87.862-2.826.989-1.937.222-3.912.242-5.853-.147-.968-.19-2.049-.327-2.713-1.498-.058-.101-.016-.231.089-.28,1.151-.596,1.949-.382,2.871-.353.904.027,1.816.012,2.74.023.924.012,1.861.035,2.812.091.946.079,1.919-.106,2.882.881.079.081.077.212,0,.294h0Z"/>
      <path class="cls-20" d="m961.96,484.848c-.857.938-1.658.705-2.448.73-.794.002-1.578-.037-2.353-.111-.774-.074-1.538-.197-2.297-.316-.771-.122-1.482-.077-2.288-.951-.08-.08-.086-.207-.017-.293.765-.955,1.627-.861,2.425-.896,1.604-.074,3.186.087,4.744.414.774.179,1.544.101,2.253,1.135.063.091.052.211-.02.289h0Z"/>
      <path class="cls-20" d="m961.637,490.036c-.936.944-1.847.691-2.728.68-.889-.034-1.76-.124-2.612-.243-.851-.12-1.682-.285-2.509-.429-.839-.146-1.63-.108-2.517-.984-.08-.079-.083-.206-.01-.289.849-.956,1.805-.857,2.7-.863.907-.003,1.802.054,2.672.176.871.123,1.719.297,2.554.486.843.213,1.662.145,2.464,1.173.071.087.061.214-.014.293h0Z"/>
    </g>
    <path class="cls-21" d="m866.223,333.389c.039,1.186-.586,1.441-1.062,1.906-.488.447-.998.864-1.533,1.246-.535.381-1.103.716-1.683,1.035-.581.316-1.076.754-2.142.391-.105-.036-.171-.134-.17-.239.004-1.126.579-1.451,1.067-1.898.49-.444.992-.872,1.527-1.254.535-.381,1.095-.727,1.677-1.043.595-.298,1.039-.805,2.148-.383.103.039.167.136.17.239,0,0-.003-.103,0,0Z"/>
    <path class="cls-21" d="m686.415,284.854c1.271-.327,1.896.289,2.667.692.759.421,1.496.873,2.209,1.361.713.488,1.393,1.024,2.063,1.575.668.554,1.42.985,1.617,2.227.018.112-.056.218-.166.242-1.229.267-1.903-.278-2.662-.7-.756-.425-1.502-.865-2.215-1.353-.713-.488-1.401-1.012-2.069-1.566-.655-.573-1.456-.933-1.611-2.236-.013-.112.059-.215.166-.242,0,0-.107.027,0,0Z"/>
    <path class="cls-21" d="m692.59,295.428c-1.807.201-3.102-.62-4.513-1.211-1.401-.61-2.785-1.254-4.151-1.936-1.365-.683-2.704-1.417-4.035-2.168-1.329-.754-2.725-1.375-3.681-2.875-.07-.104.005-.256.131-.263,1.774-.135,3.108.609,4.509,1.22,1.399.614,2.79,1.245,4.155,1.927,1.365.683,2.711,1.404,4.039,2.159,1.319.775,2.753,1.318,3.677,2.884.065.105-.008.252-.131.263h0Z"/>
    <path class="cls-21" d="m687.41,297.674c-1.281.713-2.3.314-3.379.166-1.073-.17-2.138-.376-3.193-.624-1.055-.249-2.096-.553-3.134-.875-1.036-.326-2.107-.507-2.952-1.645-.071-.094-.038-.234.067-.286,1.264-.642,2.303-.326,3.376-.156,1.072.174,2.14.366,3.195.614,1.055.249,2.1.539,3.136.866,1.031.348,2.122.445,2.95,1.655.066.096.034.23-.067.286h0Z"/>
  </g>
  <g>
    <path class="cls-8" d="m350.526,533.095s-.958,32.768-3.186,34.099c-2.229,1.33-16.034,4.413-19.127-5.386-3.093-9.8-3.073-22.095-3.073-22.095l25.387-6.617Z"/>
    <g>
      <path class="cls-19" d="m321.155,560.907s3.391-9.023,5.728-7.726,7.462,5.339,7.462,5.339l-3.161,5.746s7.13-2.832,9.534-2.007,7.969,3.064,7.969,3.064c0,0,.364,11.767-.704,17.136-.28,1.406-49.487-4.073-49.776-5.104-1.048-3.739-1.918-11.097,4.482-11.504,8.166-.518,18.466-4.943,18.466-4.943Z"/>
      <path class="cls-1" d="m326.711,579.609c-2.116-5.536-17.624-14.342-17.624-14.342l-.834-.244c-1.87.404-3.768.713-5.564.827-6.4.406-5.531,7.765-4.482,11.504.166.59,16.356,2.637,30.226,4.017-.824-.435-1.433-1.008-1.721-1.762Z"/>
      <path class="cls-1" d="m331.203,564.23l3.141-5.711s-5.125-4.042-7.462-5.339c-2.337-1.297-5.728,7.727-5.728,7.727,0,0-.036.015-.051.022,3.513,1.212,9.597,3.647,9.597,3.647,0,0,.193-.134.502-.346Z"/>
      <path class="cls-1" d="m347.809,581.17s-3.852.805-8.277,1.185c4.982.367,8.378.469,8.451.103.186-.933.327-2.063.436-3.287l-.609,1.999Z"/>
      <path class="cls-15" d="m333.047,576.638c-3.745.434-3.148,3.039-10.909,3.093-6.88.048-19.893-2.76-24.141-3.191.341,1.439.759,2.537.968,2.859.775,1.194,23.97,4.118,27.053,4.375,3.256.271,5.434-.816,6.02.231.586,1.047,12.326,2.002,14.777,1.028.841-.334,1.325-2.759,1.598-5.8-2.196.911-4.751,1.997-6.71,1.936-3.473-.108-4.911-4.966-8.656-4.532Z"/>
      <path class="cls-20" d="m311.688,563.424c.888-.802,1.521-.433,2.185-.29,1.703.429,3.382,1.417,4.329,2.943.154.237.292,1.351-.23,1.456-.564-.018-.887-.112-1.163-.234-.691-.491-1.395-.897-2.156-1.297,0,0-1.553-.846-1.553-.846-.533-.311-1.119-.343-1.477-1.445-.04-.101-.014-.217.064-.287h0Z"/>
      <path class="cls-20" d="m317.466,562.057c.935-.666,1.411-.237,1.962-.033,1.398.584,2.668,1.634,3.349,3.007.105.242.125,1.206-.379,1.323-.875.012-1.147-.182-1.666-.644-.732-.531-1.714-1.236-2.403-1.821-.402-.354-.903-.447-.978-1.562-.014-.106.031-.212.115-.27h0Z"/>
      <path class="cls-20" d="m321.493,558.651c1.263-.105,1.637.651,2.163,1.18.514.559.983,1.145,1.412,1.758.427.613.8,1.261,1.153,1.92.349.661.821,1.244.464,2.366-.034.106-.139.171-.246.161-1.169-.114-1.517-.762-1.995-1.327-.475-.566-.936-1.139-1.355-1.739-.419-.599-.806-1.219-1.172-1.849-.363-.652-.876-1.084-.633-2.262.013-.11.099-.2.208-.208h0Z"/>
    </g>
    <path class="cls-8" d="m398.001,484.747s32.916,21.072,33.235,23.648c.319,2.576-7.354,13.367-17.569,12.249-10.215-1.118-22.058-12.888-22.058-12.888l6.391-23.009Z"/>
    <g>
      <path class="cls-19" d="m409.999,526.741s-6.892-6.739-4.763-8.356,7.893-4.678,7.893-4.678l3.986,5.208s.281-7.667,2.005-9.535c1.724-1.868,6.016-6.059,6.016-6.059,0,0,10.917,4.408,15.399,7.549,1.174.823-23.668,43.65-24.729,43.499-3.844-.547-10.929-2.717-8.722-8.738,2.816-7.682,2.916-18.892,2.916-18.892Z"/>
      <path class="cls-1" d="m429.355,529.192c-5.919-.294-20.228,10.351-20.228,10.351l-.559.665c-.384,1.875-.866,3.736-1.486,5.426-2.207,6.021,4.878,8.191,8.722,8.738.607.086,9.004-13.907,15.856-26.045-.73.578-1.5.905-2.306.865Z"/>
      <path class="cls-1" d="m417.089,518.884l-3.961-5.176s-5.764,3.062-7.893,4.678c-2.128,1.616,4.763,8.356,4.763,8.356,0,0,0,.039,0,.056,2.525-2.726,7.205-7.314,7.205-7.314,0,0-.045-.23-.114-.599Z"/>
      <path class="cls-1" d="m439.284,510.511s-.816,3.85-2.25,8.053c2.344-4.412,3.805-7.479,3.499-7.693-.779-.546-1.756-1.131-2.833-1.724l1.584,1.363Z"/>
      <path class="cls-15" d="m429.188,522.195c-1.111,3.602,1.513,4.105-1.565,11.23-2.728,6.316-10.542,17.095-12.648,20.809,1.454.268,2.628.327,3.007.266,1.405-.229,13.427-20.278,14.905-22.997,1.561-2.871,1.443-5.302,2.637-5.417,1.194-.115,6.799-10.474,6.895-13.109.033-.904-1.991-2.324-4.664-3.799-.051,2.377-.086,5.153-.932,6.921-1.499,3.135-6.524,2.494-7.636,6.096Z"/>
      <path class="cls-20" d="m408.488,536.419c-.376-1.135.217-1.567.615-2.117,1.079-1.385,2.66-2.524,4.438-2.776.288-.041,1.342.266,1.24.797-.244.509-.46.767-.683.97-.727.435-1.383.915-2.056,1.45,0,0-1.4,1.08-1.4,1.08-.5.363-.765.886-1.918.769-.109-.004-.205-.075-.236-.174h0Z"/>
      <path class="cls-20" d="m409.565,530.58c-.233-1.124.351-1.387.761-1.809,1.098-1.044,2.57-1.784,4.101-1.854.264.001,1.154.372,1.058.88-.342.806-.629.977-1.26,1.266-.781.456-1.822,1.071-2.635,1.466-.486.225-.773.646-1.824.266-.103-.03-.181-.114-.201-.214h0Z"/>
      <path class="cls-20" d="m408.071,525.523c.413-1.199,1.256-1.236,1.951-1.504.719-.245,1.445-.438,2.178-.584.733-.143,1.477-.224,2.222-.282.745-.054,1.469-.25,2.352.529.084.074.101.196.048.29-.575,1.023-1.309,1.081-2.018,1.291-.709.207-1.42.398-2.138.539-.717.142-1.44.247-2.164.327-.743.07-1.345.364-2.325-.332-.096-.056-.143-.171-.106-.274h0Z"/>
    </g>
    <path class="cls-7" d="m328.335,329.437s-19.813,92.674-19.174,109.292c.639,16.617,86.922,81.809,91.396,79.253,4.474-2.557,23.549-22.094,18.535-21.091-3.196.639-43.461-43.461-54.966-51.77-7.217-5.212-19.813-15.978-19.813-15.978,0,0,31.957-87.561,31.957-100.983,0-13.422-40.265-23.648-47.935,1.278Z"/>
    <path class="cls-10" d="m321.944,323.685s-1.728,82.989,1.278,111.849c3.196,30.678,1.278,115.683,1.278,115.683,0,0,19.174,8.948,24.287,4.474,5.113-4.474,12.783-89.479,11.504-114.405-1.278-24.926,24.287-111.209,7.67-117.601s-46.018,0-46.018,0Z"/>
    <path class="cls-10" d="m381.384,324.324s2.557,23.009-3.196,33.874c-5.752,10.865-14.061,19.813-31.318,15.978-17.257-3.835-24.287-11.504-24.287-16.617,0-5.113-3.835-29.4-3.835-40.905,0-11.504,62.635,7.67,62.635,7.67Z"/>
    <path class="cls-9" d="m382.662,327.52c-.007-2.859-4.799-32.292-1.917-46.657,4.227-21.074,2.428-53.163-8.948-60.292-10.18-6.379-21.903-5.613-33.235-2.983-8.447,1.96-18.535,24.926-19.174,44.1-.581,17.435-1.599,64.891-.639,67.748,0,0,63.924,2.446,63.913-1.917Z"/>
    <path class="cls-8" d="m333.022,215.245c-2.823-2.29,1.917-24.5-6.445-51.024-1.668-5.29,7.624-14.202,15.02-15.499,6.726-1.179,21.516-.186,27.749,2.876,9.108,4.474,16.848,12.232,18.925,26.773,1.876,13.129-11.228,29.471-18.712,29.471-5.912,0-14.256-4.831-15.854-4.909-.434-.021-8.618,3.132-8.982,3.368l.549,4.417c-1.227.494-6.338,5.007-12.25,4.527Z"/>
    <path class="cls-16" d="m340.437,204.316l1.329,21.872s2.473,1.725,9.578-.077c7.105-1.802,10.406-5.965,10.406-5.965l.139-21.89-21.453,6.061Z"/>
    <path class="cls-16" d="m363.488,220.715c.01,4.455-22.583,10.026-25.778,9.231-9.607-2.39-5.474-5.837-1.704-9.146,5.113-4.488,5.276-4.022,15.175-4.045,9.9-.023,12.297-.494,12.308,3.961Z"/>
    <g>
      <path class="cls-16" d="m367.962,188.987c-5.079,15.56-22.74,22.08-32.596,20.612-7.51-1.118-5.113-1.917-7.989-19.813-.422-2.624.878-7.018.32-9.747-4.314-21.091,13.102-30.039,25.885-26.045,20.063,6.27,19.059,20.661,14.381,34.993Z"/>
      <path class="cls-13" d="m336.484,196.178c1.118.32-1.065,4.687-5.22,5.486-2.219.427-2.632-1.274-2.636-3.063-.004-1.788-.647-2.457.399-2.849,1.278-.479,1.915-1.157,7.457.426Z"/>
      <path class="cls-14" d="m328.698,197.795c1.057-.716,1.697-.438,2.451-.52.729-.061,1.423-.192,2.101-.392.677-.198,1.348-.454,2.013-.791.675-.353,1.162-.874,2.394-.815.114,0,.207.091.212.203.055,1.242-.709,1.837-1.43,2.405-.737.569-1.585,1.043-2.511,1.314-.923.273-1.906.348-2.845.239-.917-.119-1.93-.169-2.471-1.362-.047-.103-.007-.223.086-.281h0Z"/>
      <path class="cls-8" d="m342.468,183.512c-1.379.214-2.052-.457-2.914-.84-1.537-.692-2.963-1.438-4.569-.843-.752.273-1.551.983-2.898.733-.107-.02-.178-.123-.158-.23.514-1.828,2.157-2.675,3.881-3.053,1.754-.229,3.534.592,4.84,1.528.937.649,1.8,1.184,1.994,2.472.018.114-.062.22-.176.235h0Z"/>
      <ellipse class="cls-8" cx="334.766" cy="184.075" rx="2.546" ry="2.518" transform="translate(-31.813 291.65) rotate(-45.159)"/>
      <path class="cls-2" d="m330.892,177.643s2.716-3.036,9.427-.16"/>
      <path class="cls-16" d="m328.176,182.277s-5.143,5.885-4.356,8.319c.788,2.434,4.675,1.587,4.675,1.587,0,0,1.917-7.35-.32-9.907Z"/>
    </g>
    <path class="cls-8" d="m385.396,168.997s4.028,8.351,3.355,14.966c-1.012,9.96-6.09,17.647-17.115,25.477-4.273,3.035-13.741,7.19-16.138,5.433-2.475-1.815,8.309-15.819,7.35-25.885s-.32-15.499-.32-15.499l22.867-4.492Z"/>
    <path class="cls-8" d="m338.242,161.025c-.624-.499-2.876,9.108-2.876,9.747,0,.639-10.066.639-10.066.639,0,0-2.237-14.221,10.066-17.896,12.303-3.675,26.364-5.752,35.312,6.232s1.118,20.452,1.118,20.452c0,0-31.158-8.628-32.276-8.948s-.479-9.587-1.278-10.226Z"/>
    <path class="cls-16" d="m357.313,186.442c.687-2.542,2.602-4.661,4.884-5.402,2.282-.741,4.982-1.059,6.682.708,1,1.04,1.714,2.492,1.708,4.041-.006,1.739-.928,4.333-2.085,5.535-2.026,2.104-5.156,3.124-7.706,2.139-2.55-.986-4.346-4.137-3.735-7.124"/>
    <path class="cls-21" d="m366.696,185.052c-.495.969-.878.865-1.285,1.058-.388.173-.726.358-1.022.544-.912.474-.939,1.23-2.073,1.563-.098.042-.213.027-.291-.039-.739-.597-.629-1.285-.278-1.988.519-1.258,1.875-2.091,3.174-2.189.601-.035,1.255-.254,1.794.757.053.098.033.205-.02.293h0Z"/>
    <path class="cls-8" d="m356.122,169.554c.002.715-2.346,15.851,2.302,16.436,2.983.375,7.85-5.737,7.002-11.573s-9.304-4.863-9.304-4.863Z"/>
    <path class="cls-16" d="m363.138,224.25c6.984-3.221,17.317.6,19.898,7.846,6.89,19.342,20.688,60.698,20.079,74.972-.775,18.162-16.279,15.717-22.37,1.917-6.091-13.8-21.571-56.586-21.566-63.873.003-3.683-2.977-17.663,3.959-20.862Z"/>
    <path class="cls-16" d="m383.021,301.601s-31.434,55.255-36.051,62.424c-4.618,7.169,3.321,13.422,9.262,10.126,5.941-3.296,51.76-51.336,47.068-66.61-4.692-15.274-20.278-5.939-20.278-5.939Z"/>
    <path class="cls-9" d="m400.345,285.337l-28.761,6.391s-17.257-45.379-17.257-51.77,6.248-21.132,18.322-17.683c5.965,1.704,14.913,6.178,27.696,63.061Z"/>
    <path class="cls-20" d="m410.888,498.912c-.378,1.756-1.615,2.661-2.688,3.712-2.581,2.353-8.448,7.276-12.099,5.917-.11-.044-.137-.197-.05-.276.33-.31.652-.534.958-.72,3.442-1.908,6.669-4.124,9.788-6.569,1.181-.873,2.151-1.954,3.889-2.273.119-.024.231.09.203.209h0Z"/>
    <path class="cls-20" d="m330.997,542.166c1.702.312,2.618,1.383,3.747,2.25,3.271,2.481,6.294,5.333,10.264,6.564.114.022.168.166.099.258-1.208,1.468-3.289.69-4.659.038-2.735-1.284-5.025-3.16-7.141-5.242-1.016-1.043-2.197-1.937-2.519-3.663-.024-.121.09-.232.21-.205h0Z"/>
    <g>
      <path class="cls-16" d="m353.295,361.547c-1.588-1.251-13.59,1.902-18.593,8.252-5.003,6.351-5.652,8.155-5.652,8.155l2.574,2.285s-3.488,2.141-2.597,7.216c.89,5.075,7.818,2.814,7.818,2.814,0,0,10.344,7.119,18.329-5.63s8.345-19.412,5.939-20.278l-7.818-2.814Z"/>
      <path class="cls-21" d="m342.446,384.386c.046,1.303-.727,1.75-1.311,2.362-.604.6-1.241,1.156-1.907,1.672-.666.516-1.371.977-2.09,1.418-.72.437-1.357.993-2.572.742-.11-.023-.183-.129-.171-.239.138-1.227.843-1.661,1.461-2.221.618-.557,1.243-1.102,1.896-1.608.653-.505,1.328-.981,2.013-1.439.705-.446,1.211-1.072,2.481-.902.112.012.196.106.2.215h0Z"/>
      <path class="cls-21" d="m337.099,374.028c.511.96.062,1.598-.398,2.329-.748,1.242-1.72,2.283-2.836,3.183-.547.443-1.005.993-2.14.807-.108-.018-.187-.105-.2-.209-.135-1.131.389-1.559.808-2.099.419-.536.838-1.065,1.283-1.562.675-.734,1.354-1.437,2.04-2.142.265-.207.582-.349,1.177-.432.108-.021.216.032.266.125h0Z"/>
    </g>
    <path class="cls-18" d="m356.384,245.664c2.171,3.537,3.355,7.404,4.712,11.212,1.358,3.808,2.66,7.635,3.958,11.463,2.43,7.722,5.29,15.296,7.083,23.204,0,0-.553-.398-.553-.398.852.11,1.704.24,2.556.436.081.019.132.099.113.181-.751.417-1.816.37-2.669.549-.207.027-.401-.085-.487-.263-1.816-3.706-3.003-7.627-4.395-11.476-2.689-7.626-5.227-15.301-7.639-23.019-1.199-3.861-2.572-7.664-2.958-11.797-.019-.147.203-.231.279-.093h0Z"/>
  </g>
  <g>
    <line class="cls-4" x1="295.176" y1="322.407" x2="242.69" y2="322.407"/>
    <polygon class="cls-6" points="245.317 313.431 229.773 322.407 245.317 331.382 245.317 313.431"/>
  </g>
  <g>
    <line class="cls-4" x1="670.648" y1="322.407" x2="548.208" y2="322.407"/>
    <polygon class="cls-6" points="550.835 313.431 535.291 322.407 550.835 331.382 550.835 313.431"/>
  </g>
  <g>
    <line class="cls-3" x1="784.475" y1="549.09" x2="887.145" y2="614.823"/>
    <polygon class="cls-12" points="880.094 620.965 898.023 621.787 889.773 605.848 880.094 620.965"/>
  </g>
  <g>
    <line class="cls-3" x1="362.417" y1="571.644" x2="405.014" y2="599.65"/>
    <polygon class="cls-12" points="397.889 605.707 415.808 606.747 407.751 590.708 397.889 605.707"/>
  </g>
</svg>