<?xml version="1.0" encoding="UTF-8"?><svg id="b" xmlns="http://www.w3.org/2000/svg" width="1140" height="699" viewBox="0 0 1140 699"><rect x="237" y="56" width="758.62" height="554" fill="#fff"/><line x1="237" y1="610" x2="995" y2="610" fill="none" stroke="#b1dded" stroke-miterlimit="10" stroke-width="2"/><line x1="237" y1="580.89" x2="995" y2="580.89" fill="none" stroke="#b1dded" stroke-miterlimit="10" stroke-width="2"/><line x1="237" y1="551.79" x2="995" y2="551.79" fill="none" stroke="#b1dded" stroke-miterlimit="10" stroke-width="2"/><line x1="237" y1="522.68" x2="995" y2="522.68" fill="none" stroke="#b1dded" stroke-miterlimit="10" stroke-width="2"/><line x1="237" y1="493.58" x2="995" y2="493.58" fill="none" stroke="#b1dded" stroke-miterlimit="10" stroke-width="2"/><line x1="237" y1="464.47" x2="995" y2="464.47" fill="none" stroke="#b1dded" stroke-miterlimit="10" stroke-width="2"/><line x1="237" y1="435.37" x2="995" y2="435.37" fill="none" stroke="#b1dded" stroke-miterlimit="10" stroke-width="2"/><line x1="237" y1="406.26" x2="995" y2="406.26" fill="none" stroke="#b1dded" stroke-miterlimit="10" stroke-width="2"/><line x1="237" y1="377.16" x2="995" y2="377.16" fill="none" stroke="#b1dded" stroke-miterlimit="10" stroke-width="2"/><line x1="237" y1="348.05" x2="995" y2="348.05" fill="none" stroke="#b1dded" stroke-miterlimit="10" stroke-width="2"/><line x1="237" y1="318.95" x2="995" y2="318.95" fill="none" stroke="#b1dded" stroke-miterlimit="10" stroke-width="2"/><line x1="237" y1="289.84" x2="995" y2="289.84" fill="none" stroke="#b1dded" stroke-miterlimit="10" stroke-width="2"/><line x1="237" y1="260.74" x2="995" y2="260.74" fill="none" stroke="#b1dded" stroke-miterlimit="10" stroke-width="2"/><line x1="237" y1="231.63" x2="995" y2="231.63" fill="none" stroke="#b1dded" stroke-miterlimit="10" stroke-width="2"/><line x1="237" y1="202.53" x2="995" y2="202.53" fill="none" stroke="#b1dded" stroke-miterlimit="10" stroke-width="2"/><line x1="237" y1="173.42" x2="995" y2="173.42" fill="none" stroke="#b1dded" stroke-miterlimit="10" stroke-width="2"/><line x1="237" y1="144.32" x2="995" y2="144.32" fill="none" stroke="#b1dded" stroke-miterlimit="10" stroke-width="2"/><line x1="237" y1="115.21" x2="995" y2="115.21" fill="none" stroke="#b1dded" stroke-miterlimit="10" stroke-width="2"/><line x1="237" y1="86.11" x2="995" y2="86.11" fill="none" stroke="#b1dded" stroke-miterlimit="10" stroke-width="2"/><line x1="237" y1="57" x2="995" y2="57" fill="none" stroke="#b1dded" stroke-miterlimit="10" stroke-width="2"/><line x1="237" y1="58" x2="237" y2="609.9" fill="none" stroke="#b1dded" stroke-miterlimit="10" stroke-width="2"/><line x1="266.18" y1="58" x2="266.18" y2="609.91" fill="none" stroke="#b1dded" stroke-miterlimit="10" stroke-width="2"/><line x1="295.36" y1="58.01" x2="295.36" y2="609.91" fill="none" stroke="#b1dded" stroke-miterlimit="10" stroke-width="2"/><line x1="324.53" y1="58.01" x2="324.53" y2="609.92" fill="none" stroke="#b1dded" stroke-miterlimit="10" stroke-width="2"/><line x1="353.71" y1="58.01" x2="353.71" y2="609.92" fill="none" stroke="#b1dded" stroke-miterlimit="10" stroke-width="2"/><line x1="382.89" y1="58.02" x2="382.89" y2="609.92" fill="none" stroke="#b1dded" stroke-miterlimit="10" stroke-width="2"/><line x1="412.07" y1="58.02" x2="412.07" y2="609.93" fill="none" stroke="#b1dded" stroke-miterlimit="10" stroke-width="2"/><line x1="441.24" y1="58.03" x2="441.24" y2="609.93" fill="none" stroke="#b1dded" stroke-miterlimit="10" stroke-width="2"/><line x1="470.42" y1="58.03" x2="470.42" y2="609.93" fill="none" stroke="#b1dded" stroke-miterlimit="10" stroke-width="2"/><line x1="499.6" y1="58.03" x2="499.6" y2="609.94" fill="none" stroke="#b1dded" stroke-miterlimit="10" stroke-width="2"/><line x1="528.78" y1="58.04" x2="528.78" y2="609.94" fill="none" stroke="#b1dded" stroke-miterlimit="10" stroke-width="2"/><line x1="557.96" y1="58.04" x2="557.96" y2="609.94" fill="none" stroke="#b1dded" stroke-miterlimit="10" stroke-width="2"/><line x1="587.13" y1="58.04" x2="587.13" y2="609.95" fill="none" stroke="#b1dded" stroke-miterlimit="10" stroke-width="2"/><line x1="616.31" y1="58.05" x2="616.31" y2="609.95" fill="none" stroke="#b1dded" stroke-miterlimit="10" stroke-width="2"/><line x1="645.49" y1="58.05" x2="645.49" y2="609.96" fill="none" stroke="#b1dded" stroke-miterlimit="10" stroke-width="2"/><line x1="674.67" y1="58.06" x2="674.67" y2="609.96" fill="none" stroke="#b1dded" stroke-miterlimit="10" stroke-width="2"/><line x1="703.84" y1="58.06" x2="703.84" y2="609.96" fill="none" stroke="#b1dded" stroke-miterlimit="10" stroke-width="2"/><line x1="733.02" y1="58.06" x2="733.02" y2="609.97" fill="none" stroke="#b1dded" stroke-miterlimit="10" stroke-width="2"/><line x1="762.2" y1="58.07" x2="762.2" y2="609.97" fill="none" stroke="#b1dded" stroke-miterlimit="10" stroke-width="2"/><line x1="791.38" y1="58.07" x2="791.38" y2="609.97" fill="none" stroke="#b1dded" stroke-miterlimit="10" stroke-width="2"/><line x1="820.56" y1="58.07" x2="820.56" y2="609.98" fill="none" stroke="#b1dded" stroke-miterlimit="10" stroke-width="2"/><line x1="849.73" y1="58.08" x2="849.73" y2="609.98" fill="none" stroke="#b1dded" stroke-miterlimit="10" stroke-width="2"/><line x1="878.91" y1="58.08" x2="878.91" y2="609.99" fill="none" stroke="#b1dded" stroke-miterlimit="10" stroke-width="2"/><line x1="908.09" y1="58.08" x2="908.09" y2="609.99" fill="none" stroke="#b1dded" stroke-miterlimit="10" stroke-width="2"/><line x1="937.27" y1="58.09" x2="937.27" y2="609.99" fill="none" stroke="#b1dded" stroke-miterlimit="10" stroke-width="2"/><line x1="966.44" y1="58.09" x2="966.44" y2="610" fill="none" stroke="#b1dded" stroke-miterlimit="10" stroke-width="2"/><line x1="995.62" y1="58.1" x2="995.62" y2="610" fill="none" stroke="#b1dded" stroke-miterlimit="10" stroke-width="2"/><polyline points="237 610.98 324.5 464.5 382.5 406.5 514.5 144.5 645.5 86.08 878.92 318.97 966.38 318.5" fill="none" stroke="#d12d32" stroke-miterlimit="10" stroke-width="2"/><path d="m307.75,25.99v7.01h-4.1V13.09h7.77c1.49,0,2.81.27,3.94.82s2.01,1.32,2.62,2.33c.61,1.01.92,2.15.92,3.44,0,1.95-.67,3.49-2,4.61-1.33,1.13-3.18,1.69-5.54,1.69h-3.6Zm0-3.32h3.66c1.08,0,1.91-.25,2.48-.77.57-.51.85-1.24.85-2.19s-.29-1.76-.86-2.37-1.37-.91-2.38-.93h-3.76v6.25Z"/><path d="m320.65,25.47c0-1.47.28-2.78.85-3.92.56-1.15,1.38-2.04,2.44-2.67s2.29-.94,3.7-.94c2,0,3.62.61,4.89,1.83,1.26,1.22,1.97,2.88,2.11,4.98l.03,1.01c0,2.27-.63,4.09-1.9,5.46-1.27,1.37-2.97,2.06-5.1,2.06s-3.83-.68-5.11-2.05-1.91-3.23-1.91-5.58v-.18Zm3.95.28c0,1.41.26,2.48.79,3.22.53.74,1.29,1.12,2.27,1.12s1.7-.37,2.24-1.1c.54-.73.81-1.91.81-3.53,0-1.38-.27-2.45-.81-3.2-.54-.76-1.29-1.14-2.27-1.14s-1.71.38-2.24,1.13c-.53.75-.79,1.92-.79,3.5Z"/><path d="m345.11,28.91c0-.48-.24-.86-.72-1.14-.48-.28-1.25-.53-2.3-.75-3.52-.74-5.28-2.23-5.28-4.48,0-1.31.54-2.41,1.63-3.29,1.09-.88,2.51-1.32,4.27-1.32,1.88,0,3.38.44,4.5,1.33,1.13.88,1.69,2.03,1.69,3.45h-3.95c0-.56-.18-1.03-.55-1.4-.37-.37-.93-.55-1.71-.55-.67,0-1.18.15-1.54.45-.37.3-.55.68-.55,1.15,0,.44.21.79.62,1.06.42.27,1.11.5,2.1.7.98.2,1.81.42,2.49.66,2.09.77,3.13,2.09,3.13,3.98,0,1.35-.58,2.44-1.74,3.27-1.16.83-2.65,1.25-4.48,1.25-1.24,0-2.34-.22-3.3-.66s-1.72-1.05-2.26-1.82c-.55-.77-.82-1.6-.82-2.5h3.75c.04.7.3,1.24.78,1.61.48.37,1.13.56,1.94.56.76,0,1.33-.14,1.72-.43s.58-.66.58-1.13Z"/><path d="m351.47,14.38c0-.59.2-1.08.59-1.46s.94-.57,1.62-.57,1.21.19,1.61.57c.4.38.6.87.6,1.46s-.2,1.09-.61,1.48-.94.57-1.61.57-1.2-.19-1.61-.57-.61-.88-.61-1.48Zm4.2,18.62h-3.96v-14.79h3.96v14.79Z"/><path d="m363.65,14.57v3.64h2.53v2.9h-2.53v7.38c0,.55.1.94.31,1.18.21.24.61.36,1.2.36.44,0,.82-.03,1.16-.1v2.99c-.78.24-1.57.36-2.39.36-2.77,0-4.18-1.4-4.24-4.2v-7.97h-2.16v-2.9h2.16v-3.64h3.95Z"/><path d="m368.35,14.38c0-.59.2-1.08.59-1.46s.94-.57,1.62-.57,1.21.19,1.61.57c.4.38.6.87.6,1.46s-.2,1.09-.61,1.48-.94.57-1.61.57-1.2-.19-1.61-.57-.61-.88-.61-1.48Zm4.2,18.62h-3.96v-14.79h3.96v14.79Z"/><path d="m375.19,25.47c0-1.47.28-2.78.85-3.92.56-1.15,1.38-2.04,2.44-2.67s2.29-.94,3.7-.94c2,0,3.62.61,4.89,1.83,1.26,1.22,1.97,2.88,2.11,4.98l.03,1.01c0,2.27-.63,4.09-1.9,5.46-1.27,1.37-2.97,2.06-5.1,2.06s-3.83-.68-5.11-2.05-1.91-3.23-1.91-5.58v-.18Zm3.95.28c0,1.41.26,2.48.79,3.22.53.74,1.29,1.12,2.27,1.12s1.7-.37,2.24-1.1c.54-.73.81-1.91.81-3.53,0-1.38-.27-2.45-.81-3.2-.54-.76-1.29-1.14-2.27-1.14s-1.71.38-2.24,1.13c-.53.75-.79,1.92-.79,3.5Z"/><path d="m395.27,18.21l.12,1.71c1.06-1.32,2.47-1.98,4.25-1.98,1.57,0,2.73.46,3.5,1.38.77.92,1.16,2.3,1.18,4.13v9.56h-3.95v-9.46c0-.84-.18-1.45-.55-1.83-.37-.38-.97-.57-1.82-.57-1.11,0-1.95.47-2.5,1.42v10.43h-3.95v-14.79h3.72Z"/><path d="m421.91,28.06l4.51-14.97h4.57l-6.93,19.91h-4.28l-6.9-19.91h4.55l4.48,14.97Z"/><path d="m438.8,33.27c-2.17,0-3.94-.67-5.3-2-1.36-1.33-2.04-3.1-2.04-5.32v-.38c0-1.49.29-2.81.86-3.99.57-1.17,1.39-2.07,2.44-2.71,1.05-.63,2.25-.95,3.6-.95,2.02,0,3.62.64,4.78,1.91,1.16,1.28,1.74,3.09,1.74,5.43v1.61h-9.42c.13.97.51,1.74,1.16,2.32.64.58,1.46.88,2.44.88,1.52,0,2.71-.55,3.57-1.65l1.94,2.17c-.59.84-1.39,1.49-2.41,1.96s-2.13.7-3.36.7Zm-.45-12.15c-.78,0-1.42.27-1.91.8-.49.53-.8,1.29-.94,2.28h5.5v-.32c-.02-.88-.26-1.56-.71-2.04-.46-.48-1.1-.72-1.94-.72Z"/><path d="m455.44,21.91c-.54-.07-1.01-.11-1.42-.11-1.5,0-2.47.51-2.94,1.52v9.68h-3.95v-14.79h3.73l.11,1.76c.79-1.36,1.89-2.04,3.29-2.04.44,0,.85.06,1.23.18l-.05,3.8Z"/><path d="m465.36,28.91c0-.48-.24-.86-.72-1.14-.48-.28-1.25-.53-2.3-.75-3.52-.74-5.28-2.23-5.28-4.48,0-1.31.54-2.41,1.63-3.29,1.09-.88,2.51-1.32,4.27-1.32,1.88,0,3.38.44,4.5,1.33,1.13.88,1.69,2.03,1.69,3.45h-3.95c0-.56-.18-1.03-.55-1.4-.37-.37-.93-.55-1.71-.55-.67,0-1.18.15-1.54.45-.37.3-.55.68-.55,1.15,0,.44.21.79.62,1.06.42.27,1.11.5,2.1.7.98.2,1.81.42,2.49.66,2.09.77,3.13,2.09,3.13,3.98,0,1.35-.58,2.44-1.74,3.27-1.16.83-2.65,1.25-4.48,1.25-1.24,0-2.34-.22-3.3-.66s-1.72-1.05-2.26-1.82c-.55-.77-.82-1.6-.82-2.5h3.75c.04.7.3,1.24.78,1.61.48.37,1.13.56,1.94.56.76,0,1.33-.14,1.72-.43s.58-.66.58-1.13Z"/><path d="m480.6,31.5c-.98,1.19-2.32,1.78-4.05,1.78-1.59,0-2.8-.46-3.63-1.37-.83-.91-1.26-2.25-1.28-4.01v-9.69h3.95v9.57c0,1.54.7,2.31,2.11,2.31s2.26-.47,2.76-1.4v-10.48h3.96v14.79h-3.72l-.11-1.5Z"/><path d="m495.42,28.91c0-.48-.24-.86-.72-1.14-.48-.28-1.25-.53-2.3-.75-3.52-.74-5.28-2.23-5.28-4.48,0-1.31.54-2.41,1.63-3.29,1.09-.88,2.51-1.32,4.27-1.32,1.88,0,3.38.44,4.5,1.33,1.13.88,1.69,2.03,1.69,3.45h-3.95c0-.56-.18-1.03-.55-1.4-.37-.37-.93-.55-1.71-.55-.67,0-1.18.15-1.54.45-.37.3-.55.68-.55,1.15,0,.44.21.79.62,1.06.42.27,1.11.5,2.1.7.98.2,1.81.42,2.49.66,2.09.77,3.13,2.09,3.13,3.98,0,1.35-.58,2.44-1.74,3.27-1.16.83-2.65,1.25-4.48,1.25-1.24,0-2.34-.22-3.3-.66s-1.72-1.05-2.26-1.82c-.55-.77-.82-1.6-.82-2.5h3.75c.04.7.3,1.24.78,1.61.48.37,1.13.56,1.94.56.76,0,1.33-.14,1.72-.43s.58-.66.58-1.13Z"/><path d="m523.2,16.42h-6.1v16.58h-4.1v-16.58h-6.02v-3.32h16.21v3.32Z"/><path d="m525.25,14.38c0-.59.2-1.08.59-1.46s.94-.57,1.62-.57,1.21.19,1.61.57c.4.38.6.87.6,1.46s-.2,1.09-.61,1.48-.94.57-1.61.57-1.2-.19-1.61-.57-.61-.88-.61-1.48Zm4.2,18.62h-3.96v-14.79h3.96v14.79Z"/><path d="m536.41,18.21l.12,1.65c1.05-1.29,2.46-1.93,4.25-1.93,1.9,0,3.21.75,3.92,2.26,1.04-1.5,2.52-2.26,4.44-2.26,1.6,0,2.8.47,3.58,1.4.78.93,1.18,2.34,1.18,4.22v9.45h-3.96v-9.43c0-.84-.16-1.45-.49-1.84-.33-.39-.91-.58-1.74-.58-1.19,0-2.01.57-2.46,1.7v10.16s-3.94,0-3.94,0v-9.42c0-.86-.17-1.48-.51-1.86-.34-.38-.91-.57-1.72-.57-1.12,0-1.93.46-2.43,1.39v10.46h-3.95v-14.79h3.71Z"/><path d="m563.75,33.27c-2.17,0-3.94-.67-5.3-2-1.36-1.33-2.04-3.1-2.04-5.32v-.38c0-1.49.29-2.81.86-3.99.57-1.17,1.39-2.07,2.44-2.71,1.05-.63,2.25-.95,3.6-.95,2.02,0,3.62.64,4.78,1.91,1.16,1.28,1.74,3.09,1.74,5.43v1.61h-9.42c.13.97.51,1.74,1.16,2.32.64.58,1.46.88,2.44.88,1.52,0,2.71-.55,3.57-1.65l1.94,2.17c-.59.84-1.39,1.49-2.41,1.96s-2.13.7-3.36.7Zm-.45-12.15c-.78,0-1.42.27-1.91.8-.49.53-.8,1.29-.94,2.28h5.5v-.32c-.02-.88-.26-1.56-.71-2.04-.46-.48-1.1-.72-1.94-.72Z"/><path d="m580.13,33v-11.89h-2.2v-2.9h2.2v-1.26c0-1.66.48-2.95,1.43-3.86s2.29-1.37,4-1.37c.55,0,1.22.09,2.01.27l-.04,3.06c-.33-.08-.73-.12-1.2-.12-1.49,0-2.23.7-2.23,2.09v1.19h2.94v2.9h-2.94v11.89h-3.96Z"/><path d="m588.47,25.47c0-1.47.28-2.78.85-3.92.56-1.15,1.38-2.04,2.44-2.67s2.29-.94,3.7-.94c2,0,3.62.61,4.89,1.83,1.26,1.22,1.97,2.88,2.11,4.98l.03,1.01c0,2.27-.63,4.09-1.9,5.46-1.27,1.37-2.97,2.06-5.1,2.06s-3.83-.68-5.11-2.05-1.91-3.23-1.91-5.58v-.18Zm3.95.28c0,1.41.26,2.48.79,3.22.53.74,1.29,1.12,2.27,1.12s1.7-.37,2.24-1.1c.54-.73.81-1.91.81-3.53,0-1.38-.27-2.45-.81-3.2-.54-.76-1.29-1.14-2.27-1.14s-1.71.38-2.24,1.13c-.53.75-.79,1.92-.79,3.5Z"/><path d="m613.23,21.91c-.54-.07-1.01-.11-1.42-.11-1.5,0-2.47.51-2.94,1.52v9.68h-3.95v-14.79h3.73l.11,1.76c.79-1.36,1.89-2.04,3.29-2.04.44,0,.85.06,1.23.18l-.05,3.8Z"/><path d="m630.68,33c-.18-.36-.31-.8-.4-1.33-.96,1.07-2.2,1.6-3.73,1.6-1.45,0-2.65-.42-3.6-1.26-.95-.84-1.43-1.9-1.43-3.17,0-1.57.58-2.77,1.74-3.61,1.16-.84,2.84-1.26,5.04-1.27h1.82v-.85c0-.68-.18-1.23-.53-1.64s-.91-.62-1.66-.62c-.67,0-1.19.16-1.57.48-.38.32-.57.76-.57,1.31h-3.95c0-.86.26-1.65.79-2.38.53-.73,1.28-1.3,2.24-1.72.97-.41,2.05-.62,3.25-.62,1.82,0,3.27.46,4.34,1.37s1.61,2.2,1.61,3.86v6.41c0,1.4.21,2.47.59,3.19v.23h-3.99Zm-3.27-2.75c.58,0,1.12-.13,1.61-.39s.86-.61,1.09-1.05v-2.54h-1.48c-1.98,0-3.03.68-3.16,2.05v.23c-.01.49.16.9.51,1.22.35.32.82.48,1.42.48Z"/><path d="m651.72,25.71h-3.27v7.29h-4.1V13.09h7.4c2.35,0,4.17.52,5.44,1.57,1.28,1.05,1.91,2.53,1.91,4.44,0,1.36-.29,2.49-.88,3.4-.59.91-1.48,1.63-2.67,2.17l4.31,8.13v.19h-4.4l-3.73-7.29Zm-3.27-3.32h3.31c1.03,0,1.83-.26,2.39-.79.56-.52.85-1.25.85-2.17s-.27-1.68-.8-2.21c-.53-.54-1.35-.81-2.45-.81h-3.29v5.97Z"/><path d="m668.77,33.27c-2.17,0-3.94-.67-5.3-2-1.36-1.33-2.04-3.1-2.04-5.32v-.38c0-1.49.29-2.81.86-3.99.57-1.17,1.39-2.07,2.44-2.71,1.05-.63,2.25-.95,3.6-.95,2.02,0,3.62.64,4.78,1.91,1.16,1.28,1.74,3.09,1.74,5.43v1.61h-9.42c.13.97.51,1.74,1.16,2.32.64.58,1.46.88,2.44.88,1.52,0,2.71-.55,3.57-1.65l1.94,2.17c-.59.84-1.39,1.49-2.41,1.96s-2.13.7-3.36.7Zm-.45-12.15c-.78,0-1.42.27-1.91.8-.49.53-.8,1.29-.94,2.28h5.5v-.32c-.02-.88-.26-1.56-.71-2.04-.46-.48-1.1-.72-1.94-.72Z"/><path d="m680.8,18.21l.12,1.65c1.05-1.29,2.46-1.93,4.25-1.93,1.9,0,3.21.75,3.92,2.26,1.04-1.5,2.52-2.26,4.44-2.26,1.6,0,2.8.47,3.58,1.4.78.93,1.18,2.34,1.18,4.22v9.45h-3.96v-9.43c0-.84-.16-1.45-.49-1.84-.33-.39-.91-.58-1.74-.58-1.19,0-2.01.57-2.46,1.7v10.16s-3.94,0-3.94,0v-9.42c0-.86-.17-1.48-.51-1.86-.34-.38-.91-.57-1.72-.57-1.12,0-1.93.46-2.43,1.39v10.46h-3.95v-14.79h3.71Z"/><path d="m700.72,25.47c0-1.47.28-2.78.85-3.92.56-1.15,1.38-2.04,2.44-2.67s2.29-.94,3.7-.94c2,0,3.62.61,4.89,1.83,1.26,1.22,1.97,2.88,2.11,4.98l.03,1.01c0,2.27-.63,4.09-1.9,5.46-1.27,1.37-2.97,2.06-5.1,2.06s-3.83-.68-5.11-2.05-1.91-3.23-1.91-5.58v-.18Zm3.95.28c0,1.41.26,2.48.79,3.22.53.74,1.29,1.12,2.27,1.12s1.7-.37,2.24-1.1c.54-.73.81-1.91.81-3.53,0-1.38-.27-2.45-.81-3.2-.54-.76-1.29-1.14-2.27-1.14s-1.71.38-2.24,1.13c-.53.75-.79,1.92-.79,3.5Z"/><path d="m721.89,14.57v3.64h2.53v2.9h-2.53v7.38c0,.55.1.94.31,1.18.21.24.61.36,1.2.36.44,0,.82-.03,1.16-.1v2.99c-.78.24-1.57.36-2.39.36-2.77,0-4.18-1.4-4.24-4.2v-7.97h-2.16v-2.9h2.16v-3.64h3.95Z"/><path d="m733.43,33.27c-2.17,0-3.94-.67-5.3-2-1.36-1.33-2.04-3.1-2.04-5.32v-.38c0-1.49.29-2.81.86-3.99.57-1.17,1.39-2.07,2.44-2.71,1.05-.63,2.25-.95,3.6-.95,2.02,0,3.62.64,4.78,1.91,1.16,1.28,1.74,3.09,1.74,5.43v1.61h-9.42c.13.97.51,1.74,1.16,2.32.64.58,1.46.88,2.44.88,1.52,0,2.71-.55,3.57-1.65l1.94,2.17c-.59.84-1.39,1.49-2.41,1.96s-2.13.7-3.36.7Zm-.45-12.15c-.78,0-1.42.27-1.91.8-.49.53-.8,1.29-.94,2.28h5.5v-.32c-.02-.88-.26-1.56-.71-2.04-.46-.48-1.1-.72-1.94-.72Z"/><path d="m749.44,26.07h-7.7v-3.19h7.7v3.19Z"/><path d="m768.5,26.37c-.16,2.14-.95,3.83-2.37,5.06s-3.31,1.85-5.64,1.85c-2.55,0-4.56-.86-6.02-2.58-1.46-1.72-2.19-4.08-2.19-7.08v-1.22c0-1.91.34-3.6,1.01-5.06.67-1.46,1.64-2.58,2.89-3.36s2.71-1.17,4.37-1.17c2.3,0,4.15.62,5.55,1.85,1.4,1.23,2.21,2.96,2.43,5.18h-4.1c-.1-1.29-.46-2.22-1.07-2.8-.62-.58-1.55-.87-2.81-.87-1.37,0-2.39.49-3.07,1.47-.68.98-1.03,2.5-1.05,4.56v1.5c0,2.15.33,3.72.98,4.72.65.99,1.68,1.49,3.08,1.49,1.27,0,2.21-.29,2.84-.87.62-.58.98-1.47,1.07-2.69h4.1Z"/><path d="m770.32,25.47c0-1.47.28-2.78.85-3.92.56-1.15,1.38-2.04,2.44-2.67s2.29-.94,3.7-.94c2,0,3.62.61,4.89,1.83,1.26,1.22,1.97,2.88,2.11,4.98l.03,1.01c0,2.27-.63,4.09-1.9,5.46-1.27,1.37-2.97,2.06-5.1,2.06s-3.83-.68-5.11-2.05-1.91-3.23-1.91-5.58v-.18Zm3.95.28c0,1.41.26,2.48.79,3.22.53.74,1.29,1.12,2.27,1.12s1.7-.37,2.24-1.1c.54-.73.81-1.91.81-3.53,0-1.38-.27-2.45-.81-3.2-.54-.76-1.29-1.14-2.27-1.14s-1.71.38-2.24,1.13c-.53.75-.79,1.92-.79,3.5Z"/><path d="m790.4,18.21l.12,1.71c1.06-1.32,2.47-1.98,4.25-1.98,1.57,0,2.73.46,3.5,1.38.77.92,1.16,2.3,1.18,4.13v9.56h-3.95v-9.46c0-.84-.18-1.45-.55-1.83-.37-.38-.97-.57-1.82-.57-1.11,0-1.95.47-2.5,1.42v10.43h-3.95v-14.79h3.72Z"/><path d="m807.18,14.57v3.64h2.53v2.9h-2.53v7.38c0,.55.1.94.31,1.18.21.24.61.36,1.2.36.44,0,.82-.03,1.16-.1v2.99c-.78.24-1.57.36-2.39.36-2.77,0-4.18-1.4-4.24-4.2v-7.97h-2.16v-2.9h2.16v-3.64h3.95Z"/><path d="m820.22,21.91c-.54-.07-1.01-.11-1.42-.11-1.5,0-2.47.51-2.94,1.52v9.68h-3.95v-14.79h3.73l.11,1.76c.79-1.36,1.89-2.04,3.29-2.04.44,0,.85.06,1.23.18l-.05,3.8Z"/><path d="m821.02,25.47c0-1.47.28-2.78.85-3.92.56-1.15,1.38-2.04,2.44-2.67s2.29-.94,3.7-.94c2,0,3.62.61,4.89,1.83,1.26,1.22,1.97,2.88,2.11,4.98l.03,1.01c0,2.27-.63,4.09-1.9,5.46-1.27,1.37-2.97,2.06-5.1,2.06s-3.83-.68-5.11-2.05-1.91-3.23-1.91-5.58v-.18Zm3.95.28c0,1.41.26,2.48.79,3.22.53.74,1.29,1.12,2.27,1.12s1.7-.37,2.24-1.1c.54-.73.81-1.91.81-3.53,0-1.38-.27-2.45-.81-3.2-.54-.76-1.29-1.14-2.27-1.14s-1.71.38-2.24,1.13c-.53.75-.79,1.92-.79,3.5Z"/><path d="m841.63,33h-3.96V12h3.96v21Z"/><path d="m849.06,33h-3.96V12h3.96v21Z"/><path d="m859.12,33.27c-2.17,0-3.94-.67-5.3-2-1.36-1.33-2.04-3.1-2.04-5.32v-.38c0-1.49.29-2.81.86-3.99.57-1.17,1.39-2.07,2.44-2.71,1.05-.63,2.25-.95,3.6-.95,2.02,0,3.62.64,4.78,1.91,1.16,1.28,1.74,3.09,1.74,5.43v1.61h-9.42c.13.97.51,1.74,1.16,2.32.64.58,1.46.88,2.44.88,1.52,0,2.71-.55,3.57-1.65l1.94,2.17c-.59.84-1.39,1.49-2.41,1.96s-2.13.7-3.36.7Zm-.45-12.15c-.78,0-1.42.27-1.91.8-.49.53-.8,1.29-.94,2.28h5.5v-.32c-.02-.88-.26-1.56-.71-2.04-.46-.48-1.1-.72-1.94-.72Z"/><path d="m866.83,25.49c0-2.31.52-4.14,1.55-5.51s2.45-2.05,4.25-2.05c1.44,0,2.63.54,3.57,1.61v-7.55h3.96v21h-3.57l-.19-1.57c-.98,1.23-2.25,1.85-3.8,1.85-1.74,0-3.14-.69-4.19-2.06-1.05-1.37-1.58-3.28-1.58-5.72Zm3.95.29c0,1.39.24,2.45.72,3.19.48.74,1.18,1.11,2.11,1.11,1.22,0,2.08-.52,2.58-1.55v-5.85c-.49-1.03-1.34-1.55-2.56-1.55-1.91,0-2.86,1.55-2.86,4.64Z"/><path d="m906.08,26.37c-.16,2.14-.95,3.83-2.37,5.06s-3.31,1.85-5.64,1.85c-2.55,0-4.56-.86-6.02-2.58-1.46-1.72-2.19-4.08-2.19-7.08v-1.22c0-1.91.34-3.6,1.01-5.06.67-1.46,1.64-2.58,2.89-3.36s2.71-1.17,4.37-1.17c2.3,0,4.15.62,5.55,1.85,1.4,1.23,2.21,2.96,2.43,5.18h-4.1c-.1-1.29-.46-2.22-1.07-2.8-.62-.58-1.55-.87-2.81-.87-1.37,0-2.39.49-3.07,1.47-.68.98-1.03,2.5-1.05,4.56v1.5c0,2.15.33,3.72.98,4.72.65.99,1.68,1.49,3.08,1.49,1.27,0,2.21-.29,2.84-.87.62-.58.98-1.47,1.07-2.69h4.1Z"/><path d="m917.09,33c-.18-.36-.31-.8-.4-1.33-.96,1.07-2.2,1.6-3.73,1.6-1.45,0-2.65-.42-3.6-1.26-.95-.84-1.43-1.9-1.43-3.17,0-1.57.58-2.77,1.74-3.61,1.16-.84,2.84-1.26,5.04-1.27h1.82v-.85c0-.68-.18-1.23-.53-1.64s-.91-.62-1.66-.62c-.67,0-1.19.16-1.57.48-.38.32-.57.76-.57,1.31h-3.95c0-.86.26-1.65.79-2.38.53-.73,1.28-1.3,2.24-1.72.97-.41,2.05-.62,3.25-.62,1.82,0,3.27.46,4.34,1.37s1.61,2.2,1.61,3.86v6.41c0,1.4.21,2.47.59,3.19v.23h-3.99Zm-3.27-2.75c.58,0,1.12-.13,1.61-.39s.86-.61,1.09-1.05v-2.54h-1.48c-1.98,0-3.03.68-3.16,2.05v.23c-.01.49.16.9.51,1.22.35.32.82.48,1.42.48Z"/><path d="m931.84,21.91c-.54-.07-1.01-.11-1.42-.11-1.5,0-2.47.51-2.94,1.52v9.68h-3.95v-14.79h3.73l.11,1.76c.79-1.36,1.89-2.04,3.29-2.04.44,0,.85.06,1.23.18l-.05,3.8Z"/><path d="m594.4,675.25h-5.23v14.21h-3.52v-14.21h-5.16v-2.85h13.9v2.85Z"/><path d="m596.16,673.5c0-.51.17-.93.51-1.25s.8-.49,1.39-.49,1.04.16,1.38.49.52.75.52,1.25-.17.94-.52,1.27-.81.49-1.38.49-1.03-.16-1.38-.49-.52-.75-.52-1.27Zm3.6,15.96h-3.4v-12.68h3.4v12.68Z"/><path d="m605.72,676.78l.11,1.42c.9-1.1,2.11-1.65,3.64-1.65,1.63,0,2.75.64,3.36,1.93.89-1.29,2.16-1.93,3.81-1.93,1.38,0,2.4.4,3.07,1.2s1.01,2.01,1.01,3.62v8.1h-3.4v-8.09c0-.72-.14-1.24-.42-1.58s-.78-.5-1.49-.5c-1.02,0-1.72.48-2.11,1.45v8.71s-3.38,0-3.38,0v-8.07c0-.73-.14-1.27-.43-1.59s-.78-.49-1.48-.49c-.96,0-1.66.4-2.09,1.2v8.96h-3.39v-12.68h3.18Z"/><path d="m629.16,689.7c-1.86,0-3.37-.57-4.54-1.71s-1.75-2.66-1.75-4.56v-.33c0-1.27.25-2.41.74-3.42s1.19-1.78,2.09-2.32,1.93-.81,3.09-.81c1.73,0,3.1.55,4.1,1.64s1.49,2.64,1.49,4.65v1.38h-8.07c.11.83.44,1.49.99,1.99s1.25.75,2.09.75c1.3,0,2.32-.47,3.06-1.42l1.66,1.86c-.51.72-1.2,1.28-2.06,1.68s-1.83.6-2.88.6Zm-.39-10.42c-.67,0-1.22.23-1.63.68s-.69,1.11-.8,1.95h4.71v-.27c-.02-.75-.22-1.34-.61-1.75s-.95-.62-1.66-.62Z"/><path d="m642.42,682.53c0-1.79.24-3.49.71-5.11s1.18-3.05,2.11-4.29,1.94-2.11,3.02-2.6l.66,1.83c-1.14.84-2.03,2.15-2.67,3.91s-.96,3.83-.96,6.19v.36c0,2.37.32,4.44.95,6.21s1.53,3.1,2.68,3.97l-.66,1.79c-1.06-.48-2.05-1.32-2.97-2.53s-1.62-2.6-2.1-4.18-.74-3.23-.77-4.95v-.62Z"/><path d="m657.56,685.96c0-.41-.21-.74-.62-.98s-1.07-.45-1.97-.64c-3.02-.63-4.52-1.91-4.52-3.84,0-1.12.47-2.06,1.4-2.82s2.15-1.13,3.66-1.13c1.61,0,2.9.38,3.86,1.14s1.45,1.74,1.45,2.95h-3.39c0-.48-.16-.88-.47-1.2s-.8-.47-1.46-.47c-.57,0-1.01.13-1.32.39s-.47.59-.47.98c0,.38.18.68.53.91s.96.43,1.8.6,1.55.36,2.13.57c1.79.66,2.68,1.79,2.68,3.41,0,1.16-.5,2.09-1.49,2.81s-2.27,1.07-3.84,1.07c-1.06,0-2.01-.19-2.83-.57s-1.47-.9-1.94-1.56-.7-1.37-.7-2.14h3.21c.03.6.25,1.06.67,1.38s.97.48,1.66.48c.65,0,1.14-.12,1.47-.37s.5-.57.5-.97Z"/><path d="m668.87,682.8c0,1.77-.25,3.46-.76,5.1s-1.24,3.07-2.19,4.32-1.97,2.11-3.06,2.58l-.66-1.79c1.11-.84,1.98-2.12,2.62-3.87s.97-3.75,1-6.01v-.62c0-2.34-.32-4.39-.96-6.18s-1.53-3.12-2.67-4.01l.66-1.79c1.06.46,2.06,1.3,3.01,2.51s1.67,2.62,2.19,4.23.79,3.28.81,5v.53Z"/><path d="m123.39,412.77h6.01v3.52h-17.06v-6.66c0-1.28.23-2.41.7-3.38s1.13-1.72,2-2.24,1.85-.79,2.95-.79c1.67,0,2.99.57,3.96,1.72s1.45,2.73,1.45,4.75v3.08Zm-2.85,0v-3.14c0-.93-.22-1.64-.66-2.13s-1.06-.73-1.88-.73-1.51.25-2.03.74-.78,1.17-.8,2.04v3.22h5.36Z"/><path d="m122.95,401.71c-1.26,0-2.38-.24-3.36-.73s-1.75-1.18-2.29-2.09-.81-1.97-.81-3.17c0-1.71.52-3.11,1.57-4.19s2.47-1.69,4.27-1.81l.87-.02c1.95,0,3.51.54,4.68,1.63s1.76,2.54,1.76,4.37-.59,3.29-1.76,4.38-2.77,1.63-4.78,1.63h-.15Zm.24-3.39c1.21,0,2.13-.23,2.76-.68.64-.45.96-1.1.96-1.95s-.31-1.46-.95-1.92c-.63-.46-1.64-.69-3.02-.69-1.18,0-2.1.23-2.75.69s-.97,1.11-.97,1.95.32,1.47.97,1.92,1.64.68,3,.68Z"/><path d="m125.9,380.74c-.41,0-.74.21-.98.62s-.45,1.07-.64,1.97c-.63,3.02-1.91,4.52-3.84,4.52-1.12,0-2.06-.47-2.82-1.4s-1.13-2.15-1.13-3.66c0-1.61.38-2.9,1.14-3.86s1.74-1.45,2.95-1.45v3.39c-.48,0-.88.16-1.2.47s-.47.8-.47,1.46c0,.57.13,1.01.39,1.32s.59.47.98.47c.38,0,.68-.18.91-.53s.43-.96.6-1.8.36-1.55.57-2.13c.66-1.79,1.79-2.68,3.41-2.68,1.16,0,2.09.5,2.81,1.49s1.07,2.27,1.07,3.84c0,1.06-.19,2.01-.57,2.83s-.9,1.47-1.56,1.94-1.37.7-2.14.7v-3.21c.6-.03,1.06-.25,1.38-.67s.48-.97.48-1.66c0-.65-.12-1.14-.37-1.47s-.57-.5-.97-.5Z"/><path d="m113.44,375.29c-.51,0-.93-.17-1.25-.51s-.49-.8-.49-1.39.16-1.04.49-1.38.75-.52,1.25-.52.94.17,1.27.52.49.81.49,1.38-.16,1.03-.49,1.38-.75.52-1.27.52Zm15.96-3.6v3.4h-12.68v-3.4h12.68Z"/><path d="m113.61,364.85h3.12v-2.17h2.48v2.17h6.33c.47,0,.8-.09,1.01-.27s.3-.52.3-1.03c0-.38-.03-.71-.08-1h2.57c.2.66.3,1.35.3,2.05,0,2.38-1.2,3.59-3.6,3.63h-6.83v1.85h-2.48v-1.85h-3.12v-3.39Z"/><path d="m113.44,360.82c-.51,0-.93-.17-1.25-.51s-.49-.8-.49-1.39.16-1.04.49-1.38.75-.52,1.25-.52.94.17,1.27.52.49.81.49,1.38-.16,1.03-.49,1.38-.75.52-1.27.52Zm15.96-3.6v3.4h-12.68v-3.4h12.68Z"/><path d="m122.95,354.96c-1.26,0-2.38-.24-3.36-.73s-1.75-1.18-2.29-2.09-.81-1.97-.81-3.17c0-1.71.52-3.11,1.57-4.19s2.47-1.69,4.27-1.81l.87-.02c1.95,0,3.51.54,4.68,1.63s1.76,2.54,1.76,4.37-.59,3.29-1.76,4.38-2.77,1.63-4.78,1.63h-.15Zm.24-3.39c1.21,0,2.13-.23,2.76-.68.64-.45.96-1.1.96-1.95s-.31-1.46-.95-1.92c-.63-.46-1.64-.69-3.02-.69-1.18,0-2.1.23-2.75.69s-.97,1.11-.97,1.95.32,1.47.97,1.92,1.64.68,3,.68Z"/><path d="m116.72,337.75l1.46-.11c-1.13-.91-1.7-2.12-1.7-3.64,0-1.34.39-2.34,1.18-3s1.97-.99,3.54-1.01h8.19v3.39h-8.11c-.72,0-1.24.16-1.56.47s-.49.83-.49,1.56c0,.95.41,1.67,1.22,2.14h8.94v3.39h-12.68v-3.19Z"/><path d="m122.47,321.29c-1.79,0-3.49-.24-5.11-.71s-3.05-1.18-4.29-2.11-2.11-1.94-2.6-3.02l1.83-.66c.84,1.14,2.15,2.03,3.91,2.67s3.83.96,6.19.96h.36c2.37,0,4.44-.32,6.21-.95s3.1-1.53,3.97-2.68l1.79.66c-.48,1.06-1.32,2.05-2.53,2.97s-2.6,1.62-4.18,2.1-3.23.74-4.95.77h-.62Z"/><path d="m116.72,309.85l1.42-.11c-1.1-.9-1.65-2.11-1.65-3.64,0-1.63.64-2.75,1.93-3.36-1.29-.89-1.93-2.16-1.93-3.81,0-1.38.4-2.4,1.2-3.07s2.01-1.01,3.62-1.01h8.1v3.4h-8.09c-.72,0-1.24.14-1.58.42s-.5.78-.5,1.49c0,1.02.48,1.72,1.45,2.11h8.71s0,3.38,0,3.38h-8.07c-.73,0-1.27.14-1.59.43s-.49.78-.49,1.48c0,.96.4,1.66,1.2,2.09h8.96v3.39h-12.68v-3.18Z"/><path d="m122.74,286.41c1.77,0,3.46.25,5.1.76s3.07,1.24,4.32,2.19,2.11,1.97,2.58,3.06l-1.79.66c-.84-1.11-2.12-1.98-3.87-2.62s-3.75-.97-6.01-1h-.62c-2.34,0-4.39.32-6.18.96s-3.12,1.53-4.01,2.67l-1.79-.66c.46-1.06,1.3-2.06,2.51-3.01s2.62-1.67,4.23-2.19,3.28-.79,5-.81h.53Z"/><path d="m112.17,272.64v1.66h18.6v-1.66h2.61v5.06h-23.82v-5.06h2.61Z"/><path d="m129.4,257.04v3.52l-11.23,6.84h11.23v3.52h-17.06v-3.52l11.25-6.86h-11.25v-3.5h17.06Z"/><path d="m109.55,255.34v-5.06h23.82v5.06h-2.61v-1.68h-18.6v1.68h-2.61Z"/><line x1="237" y1="55.98" x2="237" y2="610.98" fill="none" stroke="#000" stroke-miterlimit="10" stroke-width="2"/><line x1="996.75" y1="609.97" x2="237" y2="609.97" fill="none" stroke="#000" stroke-miterlimit="10" stroke-width="2"/><line x1="295.36" y1="610.2" x2="295.36" y2="623.72" fill="none" stroke="#000" stroke-miterlimit="10" stroke-width="2"/><line x1="353.72" y1="610.2" x2="353.72" y2="623.72" fill="none" stroke="#000" stroke-miterlimit="10" stroke-width="2"/><line x1="412.09" y1="610.2" x2="412.09" y2="623.72" fill="none" stroke="#000" stroke-miterlimit="10" stroke-width="2"/><line x1="470.46" y1="610.2" x2="470.46" y2="623.72" fill="none" stroke="#000" stroke-miterlimit="10" stroke-width="2"/><line x1="528.82" y1="610.2" x2="528.82" y2="623.72" fill="none" stroke="#000" stroke-miterlimit="10" stroke-width="2"/><line x1="587.19" y1="610.2" x2="587.19" y2="623.72" fill="none" stroke="#000" stroke-miterlimit="10" stroke-width="2"/><line x1="645.55" y1="610.2" x2="645.55" y2="623.72" fill="none" stroke="#000" stroke-miterlimit="10" stroke-width="2"/><line x1="703.92" y1="610.2" x2="703.92" y2="623.72" fill="none" stroke="#000" stroke-miterlimit="10" stroke-width="2"/><line x1="762.28" y1="610.2" x2="762.28" y2="623.72" fill="none" stroke="#000" stroke-miterlimit="10" stroke-width="2"/><line x1="820.65" y1="610.2" x2="820.65" y2="623.72" fill="none" stroke="#000" stroke-miterlimit="10" stroke-width="2"/><line x1="879.02" y1="610.2" x2="879.02" y2="623.72" fill="none" stroke="#000" stroke-miterlimit="10" stroke-width="2"/><line x1="937.38" y1="610.2" x2="937.38" y2="623.72" fill="none" stroke="#000" stroke-miterlimit="10" stroke-width="2"/><line x1="995.75" y1="610.2" x2="995.75" y2="623.72" fill="none" stroke="#000" stroke-miterlimit="10" stroke-width="2"/><line x1="224.48" y1="580.99" x2="238" y2="580.99" fill="none" stroke="#000" stroke-miterlimit="10" stroke-width="2"/><line x1="224.48" y1="551.88" x2="238" y2="551.88" fill="none" stroke="#000" stroke-miterlimit="10" stroke-width="2"/><line x1="224.48" y1="522.77" x2="238" y2="522.77" fill="none" stroke="#000" stroke-miterlimit="10" stroke-width="2"/><line x1="224.48" y1="493.66" x2="238" y2="493.66" fill="none" stroke="#000" stroke-miterlimit="10" stroke-width="2"/><line x1="224.48" y1="464.55" x2="238" y2="464.55" fill="none" stroke="#000" stroke-miterlimit="10" stroke-width="2"/><line x1="224.48" y1="435.44" x2="238" y2="435.44" fill="none" stroke="#000" stroke-miterlimit="10" stroke-width="2"/><line x1="224.48" y1="406.33" x2="238" y2="406.33" fill="none" stroke="#000" stroke-miterlimit="10" stroke-width="2"/><line x1="224.48" y1="377.22" x2="238" y2="377.22" fill="none" stroke="#000" stroke-miterlimit="10" stroke-width="2"/><line x1="224.48" y1="348.11" x2="238" y2="348.11" fill="none" stroke="#000" stroke-miterlimit="10" stroke-width="2"/><line x1="224.48" y1="319" x2="238" y2="319" fill="none" stroke="#000" stroke-miterlimit="10" stroke-width="2"/><line x1="224.48" y1="289.9" x2="238" y2="289.9" fill="none" stroke="#000" stroke-miterlimit="10" stroke-width="2"/><line x1="224.48" y1="260.79" x2="238" y2="260.79" fill="none" stroke="#000" stroke-miterlimit="10" stroke-width="2"/><line x1="224.48" y1="231.68" x2="238" y2="231.68" fill="none" stroke="#000" stroke-miterlimit="10" stroke-width="2"/><line x1="224.48" y1="202.57" x2="238" y2="202.57" fill="none" stroke="#000" stroke-miterlimit="10" stroke-width="2"/><line x1="224.48" y1="173.46" x2="238" y2="173.46" fill="none" stroke="#000" stroke-miterlimit="10" stroke-width="2"/><line x1="224.48" y1="144.35" x2="238" y2="144.35" fill="none" stroke="#000" stroke-miterlimit="10" stroke-width="2"/><line x1="224.48" y1="115.24" x2="238" y2="115.24" fill="none" stroke="#000" stroke-miterlimit="10" stroke-width="2"/><line x1="224.48" y1="86.13" x2="238" y2="86.13" fill="none" stroke="#000" stroke-miterlimit="10" stroke-width="2"/><path d="m174.85,82.66h1.58c1-.02,1.78-.29,2.35-.81s.86-1.23.86-2.12c0-2-.97-3-2.91-3-.91,0-1.64.27-2.18.8s-.82,1.24-.82,2.13h-2.11c0-1.35.48-2.47,1.44-3.37.96-.89,2.18-1.34,3.67-1.34,1.57,0,2.79.43,3.68,1.28s1.33,2.04,1.33,3.55c0,.74-.23,1.46-.7,2.16-.47.7-1.1,1.21-1.91,1.56.91.3,1.62.79,2.12,1.48s.75,1.53.75,2.52c0,1.53-.49,2.75-1.46,3.64-.97.9-2.24,1.35-3.8,1.35s-2.83-.43-3.8-1.3-1.47-2.01-1.47-3.43h2.12c0,.9.29,1.62.86,2.16s1.33.81,2.29.81c1.02,0,1.8-.27,2.34-.82s.81-1.33.81-2.36-.3-1.75-.89-2.29c-.59-.53-1.45-.8-2.57-.82h-1.58v-1.77Z" fill="#212728"/><path d="m193.18,75.17v1.84h-.39c-1.64.03-2.95.53-3.92,1.5-.97.97-1.54,2.33-1.69,4.09.87-1.03,2.07-1.55,3.58-1.55s2.6.52,3.46,1.57,1.29,2.4,1.29,4.05c0,1.76-.47,3.16-1.4,4.22s-2.18,1.58-3.75,1.58-2.88-.63-3.87-1.88c-.99-1.25-1.48-2.87-1.48-4.85v-.83c0-3.14.65-5.54,1.96-7.2,1.3-1.66,3.25-2.51,5.82-2.55h.38Zm-2.77,7.69c-.72,0-1.39.22-2,.67s-1.03,1-1.27,1.68v.8c0,1.41.31,2.54.92,3.4s1.38,1.29,2.3,1.29,1.7-.36,2.24-1.08.82-1.66.82-2.82-.28-2.12-.83-2.84-1.28-1.08-2.2-1.08Z" fill="#212728"/><path d="m198.28,91.11c0-.38.11-.69.33-.94s.54-.38.98-.38.76.12.99.38.34.56.34.94-.11.66-.34.9-.55.36-.99.36-.76-.12-.98-.36-.33-.54-.33-.9Z" fill="#212728"/><path d="m214.58,84.97c0,2.54-.42,4.43-1.27,5.66-.84,1.23-2.16,1.85-3.96,1.85s-3.08-.6-3.94-1.81-1.29-3.01-1.32-5.41v-2.89c0-2.51.42-4.37,1.27-5.59s2.17-1.83,3.97-1.83,3.1.59,3.95,1.76c.84,1.18,1.28,2.99,1.3,5.44v2.81Zm-2.11-2.96c0-1.84-.25-3.17-.75-4.01s-1.3-1.26-2.38-1.26-1.87.42-2.36,1.25-.75,2.12-.76,3.86v3.47c0,1.84.26,3.21.78,4.08.52.88,1.31,1.32,2.37,1.32s1.82-.41,2.32-1.24c.5-.83.77-2.13.79-3.91v-3.55Z" fill="#212728"/><path d="m174.85,112.16h1.58c1-.02,1.78-.29,2.35-.81s.86-1.23.86-2.12c0-2-.97-3-2.91-3-.91,0-1.64.27-2.18.8s-.82,1.24-.82,2.13h-2.11c0-1.35.48-2.47,1.44-3.37.96-.89,2.18-1.34,3.67-1.34,1.57,0,2.79.43,3.68,1.28s1.33,2.04,1.33,3.55c0,.74-.23,1.46-.7,2.16-.47.7-1.1,1.21-1.91,1.56.91.3,1.62.79,2.12,1.48s.75,1.53.75,2.52c0,1.53-.49,2.75-1.46,3.64-.97.9-2.24,1.35-3.8,1.35s-2.83-.43-3.8-1.3-1.47-2.01-1.47-3.43h2.12c0,.9.29,1.62.86,2.16s1.33.81,2.29.81c1.02,0,1.8-.27,2.34-.82s.81-1.33.81-2.36-.3-1.75-.89-2.29c-.59-.53-1.45-.8-2.57-.82h-1.58v-1.77Z" fill="#212728"/><path d="m193.8,116.01h2.3v1.77h-2.3v3.96h-2.12v-3.96h-7.56v-1.28l7.44-11.82h2.25v11.33Zm-7.29,0h5.17v-8.37l-.25.47-4.92,7.9Z" fill="#212728"/><path d="m198.28,120.61c0-.38.11-.69.33-.94s.54-.38.98-.38.76.12.99.38.34.56.34.94-.11.66-.34.9-.55.36-.99.36-.76-.12-.98-.36-.33-.54-.33-.9Z" fill="#212728"/><path d="m214.58,114.47c0,2.54-.42,4.43-1.27,5.66-.84,1.23-2.16,1.85-3.96,1.85s-3.08-.6-3.94-1.81-1.29-3.01-1.32-5.41v-2.89c0-2.51.42-4.37,1.27-5.59s2.17-1.83,3.97-1.83,3.1.59,3.95,1.76c.84,1.18,1.28,2.99,1.3,5.44v2.81Zm-2.11-2.96c0-1.84-.25-3.17-.75-4.01s-1.3-1.26-2.38-1.26-1.87.42-2.36,1.25-.75,2.12-.76,3.86v3.47c0,1.84.26,3.21.78,4.08.52.88,1.31,1.32,2.37,1.32s1.82-.41,2.32-1.24c.5-.83.77-2.13.79-3.91v-3.55Z" fill="#212728"/><path d="m174.85,141.66h1.58c1-.02,1.78-.29,2.35-.81s.86-1.23.86-2.12c0-2-.97-3-2.91-3-.91,0-1.64.27-2.18.8s-.82,1.24-.82,2.13h-2.11c0-1.35.48-2.47,1.44-3.37.96-.89,2.18-1.34,3.67-1.34,1.57,0,2.79.43,3.68,1.28s1.33,2.04,1.33,3.55c0,.74-.23,1.46-.7,2.16-.47.7-1.1,1.21-1.91,1.56.91.3,1.62.79,2.12,1.48s.75,1.53.75,2.52c0,1.53-.49,2.75-1.46,3.64-.97.9-2.24,1.35-3.8,1.35s-2.83-.43-3.8-1.3-1.47-2.01-1.47-3.43h2.12c0,.9.29,1.62.86,2.16s1.33.81,2.29.81c1.02,0,1.8-.27,2.34-.82s.81-1.33.81-2.36-.3-1.75-.89-2.29c-.59-.53-1.45-.8-2.57-.82h-1.58v-1.77Z" fill="#212728"/><path d="m195.78,151.24h-10.88v-1.56l5.75-6.56c.85-.99,1.44-1.8,1.76-2.42.32-.62.48-1.26.48-1.93,0-.89-.26-1.62-.79-2.19s-1.22-.86-2.1-.86c-1.05,0-1.87.31-2.45.92s-.87,1.47-.87,2.56h-2.11c0-1.57.49-2.84,1.48-3.81s2.3-1.45,3.95-1.45c1.54,0,2.76.42,3.66,1.25s1.35,1.94,1.35,3.32c0,1.68-1.04,3.68-3.13,6l-4.45,4.96h8.34v1.77Z" fill="#212728"/><path d="m198.28,150.11c0-.38.11-.69.33-.94s.54-.38.98-.38.76.12.99.38.34.56.34.94-.11.66-.34.9-.55.36-.99.36-.76-.12-.98-.36-.33-.54-.33-.9Z" fill="#212728"/><path d="m214.58,143.97c0,2.54-.42,4.43-1.27,5.66-.84,1.23-2.16,1.85-3.96,1.85s-3.08-.6-3.94-1.81-1.29-3.01-1.32-5.41v-2.89c0-2.51.42-4.37,1.27-5.59s2.17-1.83,3.97-1.83,3.1.59,3.95,1.76c.84,1.18,1.28,2.99,1.3,5.44v2.81Zm-2.11-2.96c0-1.84-.25-3.17-.75-4.01s-1.3-1.26-2.38-1.26-1.87.42-2.36,1.25-.75,2.12-.76,3.86v3.47c0,1.84.26,3.21.78,4.08.52.88,1.31,1.32,2.37,1.32s1.82-.41,2.32-1.24c.5-.83.77-2.13.79-3.91v-3.55Z" fill="#212728"/><path d="m174.85,171.16h1.58c1-.02,1.78-.29,2.35-.81s.86-1.23.86-2.12c0-2-.97-3-2.91-3-.91,0-1.64.27-2.18.8s-.82,1.24-.82,2.13h-2.11c0-1.35.48-2.47,1.44-3.37.96-.89,2.18-1.34,3.67-1.34,1.57,0,2.79.43,3.68,1.28s1.33,2.04,1.33,3.55c0,.74-.23,1.46-.7,2.16-.47.7-1.1,1.21-1.91,1.56.91.3,1.62.79,2.12,1.48s.75,1.53.75,2.52c0,1.53-.49,2.75-1.46,3.64-.97.9-2.24,1.35-3.8,1.35s-2.83-.43-3.8-1.3-1.47-2.01-1.47-3.43h2.12c0,.9.29,1.62.86,2.16s1.33.81,2.29.81c1.02,0,1.8-.27,2.34-.82s.81-1.33.81-2.36-.3-1.75-.89-2.29c-.59-.53-1.45-.8-2.57-.82h-1.58v-1.77Z" fill="#212728"/><path d="m195.31,173.47c0,2.54-.42,4.43-1.27,5.66-.84,1.23-2.16,1.85-3.96,1.85s-3.08-.6-3.94-1.81-1.29-3.01-1.32-5.41v-2.89c0-2.51.42-4.37,1.27-5.59s2.17-1.83,3.97-1.83,3.1.59,3.95,1.76c.84,1.18,1.28,2.99,1.3,5.44v2.81Zm-2.11-2.96c0-1.84-.25-3.17-.75-4.01s-1.3-1.26-2.38-1.26-1.87.42-2.36,1.25-.75,2.12-.76,3.86v3.47c0,1.84.26,3.21.78,4.08.52.88,1.31,1.32,2.37,1.32s1.82-.41,2.32-1.24c.5-.83.77-2.13.79-3.91v-3.55Z" fill="#212728"/><path d="m198.28,179.61c0-.38.11-.69.33-.94s.54-.38.98-.38.76.12.99.38.34.56.34.94-.11.66-.34.9-.55.36-.99.36-.76-.12-.98-.36-.33-.54-.33-.9Z" fill="#212728"/><path d="m214.58,173.47c0,2.54-.42,4.43-1.27,5.66-.84,1.23-2.16,1.85-3.96,1.85s-3.08-.6-3.94-1.81-1.29-3.01-1.32-5.41v-2.89c0-2.51.42-4.37,1.27-5.59s2.17-1.83,3.97-1.83,3.1.59,3.95,1.76c.84,1.18,1.28,2.99,1.3,5.44v2.81Zm-2.11-2.96c0-1.84-.25-3.17-.75-4.01s-1.3-1.26-2.38-1.26-1.87.42-2.36,1.25-.75,2.12-.76,3.86v3.47c0,1.84.26,3.21.78,4.08.52.88,1.31,1.32,2.37,1.32s1.82-.41,2.32-1.24c.5-.83.77-2.13.79-3.91v-3.55Z" fill="#212728"/><path d="m182.66,210.24h-10.88v-1.56l5.75-6.56c.85-.99,1.44-1.8,1.76-2.42.32-.62.48-1.26.48-1.93,0-.89-.26-1.62-.79-2.19s-1.22-.86-2.1-.86c-1.05,0-1.87.31-2.45.92s-.87,1.47-.87,2.56h-2.11c0-1.57.49-2.84,1.48-3.81s2.3-1.45,3.95-1.45c1.54,0,2.76.42,3.66,1.25s1.35,1.94,1.35,3.32c0,1.68-1.04,3.68-3.13,6l-4.45,4.96h8.34v1.77Z" fill="#212728"/><path d="m194.97,197.63c0,.85-.22,1.61-.66,2.27s-1.03,1.18-1.77,1.56c.87.38,1.55.94,2.06,1.68s.76,1.57.76,2.5c0,1.48-.48,2.65-1.45,3.53s-2.25,1.31-3.83,1.31-2.88-.44-3.84-1.32-1.44-2.05-1.44-3.52c0-.92.25-1.75.74-2.5.49-.74,1.17-1.3,2.04-1.69-.74-.38-1.32-.89-1.75-1.56-.43-.66-.64-1.42-.64-2.26,0-1.44.45-2.58,1.35-3.42s2.08-1.27,3.55-1.27,2.64.42,3.54,1.27,1.35,1.98,1.35,3.42Zm-1.72,7.96c0-.95-.29-1.73-.88-2.33-.59-.6-1.36-.9-2.31-.9s-1.71.3-2.29.89-.86,1.38-.86,2.34.28,1.73.84,2.29,1.34.83,2.33.83,1.76-.28,2.33-.84c.56-.56.84-1.32.84-2.28Zm-3.17-10.86c-.83,0-1.5.26-2.01.79s-.77,1.24-.77,2.15.25,1.57.76,2.1,1.18.8,2.03.8,1.52-.27,2.02-.8.76-1.24.76-2.1-.26-1.57-.79-2.12-1.19-.82-2-.82Z" fill="#212728"/><path d="m198.28,209.11c0-.38.11-.69.33-.94s.54-.38.98-.38.76.12.99.38.34.56.34.94-.11.66-.34.9-.55.36-.99.36-.76-.12-.98-.36-.33-.54-.33-.9Z" fill="#212728"/><path d="m214.58,202.97c0,2.54-.42,4.43-1.27,5.66-.84,1.23-2.16,1.85-3.96,1.85s-3.08-.6-3.94-1.81-1.29-3.01-1.32-5.41v-2.89c0-2.51.42-4.37,1.27-5.59s2.17-1.83,3.97-1.83,3.1.59,3.95,1.76c.84,1.18,1.28,2.99,1.3,5.44v2.81Zm-2.11-2.96c0-1.84-.25-3.17-.75-4.01s-1.3-1.26-2.38-1.26-1.87.42-2.36,1.25-.75,2.12-.76,3.86v3.47c0,1.84.26,3.21.78,4.08.52.88,1.31,1.32,2.37,1.32s1.82-.41,2.32-1.24c.5-.83.77-2.13.79-3.91v-3.55Z" fill="#212728"/><path d="m182.66,239.74h-10.88v-1.56l5.75-6.56c.85-.99,1.44-1.8,1.76-2.42.32-.62.48-1.26.48-1.93,0-.89-.26-1.62-.79-2.19s-1.22-.86-2.1-.86c-1.05,0-1.87.31-2.45.92s-.87,1.47-.87,2.56h-2.11c0-1.57.49-2.84,1.48-3.81s2.3-1.45,3.95-1.45c1.54,0,2.76.42,3.66,1.25s1.35,1.94,1.35,3.32c0,1.68-1.04,3.68-3.13,6l-4.45,4.96h8.34v1.77Z" fill="#212728"/><path d="m193.18,222.67v1.84h-.39c-1.64.03-2.95.53-3.92,1.5-.97.97-1.54,2.33-1.69,4.09.87-1.03,2.07-1.55,3.58-1.55s2.6.52,3.46,1.57,1.29,2.4,1.29,4.05c0,1.76-.47,3.16-1.4,4.22s-2.18,1.58-3.75,1.58-2.88-.63-3.87-1.88c-.99-1.25-1.48-2.87-1.48-4.85v-.83c0-3.14.65-5.54,1.96-7.2,1.3-1.66,3.25-2.51,5.82-2.55h.38Zm-2.77,7.69c-.72,0-1.39.22-2,.67s-1.03,1-1.27,1.68v.8c0,1.41.31,2.54.92,3.4s1.38,1.29,2.3,1.29,1.7-.36,2.24-1.08.82-1.66.82-2.82-.28-2.12-.83-2.84-1.28-1.08-2.2-1.08Z" fill="#212728"/><path d="m198.28,238.61c0-.38.11-.69.33-.94s.54-.38.98-.38.76.12.99.38.34.56.34.94-.11.66-.34.9-.55.36-.99.36-.76-.12-.98-.36-.33-.54-.33-.9Z" fill="#212728"/><path d="m214.58,232.47c0,2.54-.42,4.43-1.27,5.66-.84,1.23-2.16,1.85-3.96,1.85s-3.08-.6-3.94-1.81-1.29-3.01-1.32-5.41v-2.89c0-2.51.42-4.37,1.27-5.59s2.17-1.83,3.97-1.83,3.1.59,3.95,1.76c.84,1.18,1.28,2.99,1.3,5.44v2.81Zm-2.11-2.96c0-1.84-.25-3.17-.75-4.01s-1.3-1.26-2.38-1.26-1.87.42-2.36,1.25-.75,2.12-.76,3.86v3.47c0,1.84.26,3.21.78,4.08.52.88,1.31,1.32,2.37,1.32s1.82-.41,2.32-1.24c.5-.83.77-2.13.79-3.91v-3.55Z" fill="#212728"/><path d="m182.66,269.24h-10.88v-1.56l5.75-6.56c.85-.99,1.44-1.8,1.76-2.42.32-.62.48-1.26.48-1.93,0-.89-.26-1.62-.79-2.19s-1.22-.86-2.1-.86c-1.05,0-1.87.31-2.45.92s-.87,1.47-.87,2.56h-2.11c0-1.57.49-2.84,1.48-3.81s2.3-1.45,3.95-1.45c1.54,0,2.76.42,3.66,1.25s1.35,1.94,1.35,3.32c0,1.68-1.04,3.68-3.13,6l-4.45,4.96h8.34v1.77Z" fill="#212728"/><path d="m193.8,263.51h2.3v1.77h-2.3v3.96h-2.12v-3.96h-7.56v-1.28l7.44-11.82h2.25v11.33Zm-7.29,0h5.17v-8.37l-.25.47-4.92,7.9Z" fill="#212728"/><path d="m198.28,268.11c0-.38.11-.69.33-.94s.54-.38.98-.38.76.12.99.38.34.56.34.94-.11.66-.34.9-.55.36-.99.36-.76-.12-.98-.36-.33-.54-.33-.9Z" fill="#212728"/><path d="m214.58,261.97c0,2.54-.42,4.43-1.27,5.66-.84,1.23-2.16,1.85-3.96,1.85s-3.08-.6-3.94-1.81-1.29-3.01-1.32-5.41v-2.89c0-2.51.42-4.37,1.27-5.59s2.17-1.83,3.97-1.83,3.1.59,3.95,1.76c.84,1.18,1.28,2.99,1.3,5.44v2.81Zm-2.11-2.96c0-1.84-.25-3.17-.75-4.01s-1.3-1.26-2.38-1.26-1.87.42-2.36,1.25-.75,2.12-.76,3.86v3.47c0,1.84.26,3.21.78,4.08.52.88,1.31,1.32,2.37,1.32s1.82-.41,2.32-1.24c.5-.83.77-2.13.79-3.91v-3.55Z" fill="#212728"/><path d="m182.66,298.74h-10.88v-1.56l5.75-6.56c.85-.99,1.44-1.8,1.76-2.42.32-.62.48-1.26.48-1.93,0-.89-.26-1.62-.79-2.19s-1.22-.86-2.1-.86c-1.05,0-1.87.31-2.45.92s-.87,1.47-.87,2.56h-2.11c0-1.57.49-2.84,1.48-3.81s2.3-1.45,3.95-1.45c1.54,0,2.76.42,3.66,1.25s1.35,1.94,1.35,3.32c0,1.68-1.04,3.68-3.13,6l-4.45,4.96h8.34v1.77Z" fill="#212728"/><path d="m195.78,298.74h-10.88v-1.56l5.75-6.56c.85-.99,1.44-1.8,1.76-2.42.32-.62.48-1.26.48-1.93,0-.89-.26-1.62-.79-2.19s-1.22-.86-2.1-.86c-1.05,0-1.87.31-2.45.92s-.87,1.47-.87,2.56h-2.11c0-1.57.49-2.84,1.48-3.81s2.3-1.45,3.95-1.45c1.54,0,2.76.42,3.66,1.25s1.35,1.94,1.35,3.32c0,1.68-1.04,3.68-3.13,6l-4.45,4.96h8.34v1.77Z" fill="#212728"/><path d="m198.28,297.61c0-.38.11-.69.33-.94s.54-.38.98-.38.76.12.99.38.34.56.34.94-.11.66-.34.9-.55.36-.99.36-.76-.12-.98-.36-.33-.54-.33-.9Z" fill="#212728"/><path d="m214.58,291.47c0,2.54-.42,4.43-1.27,5.66-.84,1.23-2.16,1.85-3.96,1.85s-3.08-.6-3.94-1.81-1.29-3.01-1.32-5.41v-2.89c0-2.51.42-4.37,1.27-5.59s2.17-1.83,3.97-1.83,3.1.59,3.95,1.76c.84,1.18,1.28,2.99,1.3,5.44v2.81Zm-2.11-2.96c0-1.84-.25-3.17-.75-4.01s-1.3-1.26-2.38-1.26-1.87.42-2.36,1.25-.75,2.12-.76,3.86v3.47c0,1.84.26,3.21.78,4.08.52.88,1.31,1.32,2.37,1.32s1.82-.41,2.32-1.24c.5-.83.77-2.13.79-3.91v-3.55Z" fill="#212728"/><path d="m182.66,328.24h-10.88v-1.56l5.75-6.56c.85-.99,1.44-1.8,1.76-2.42.32-.62.48-1.26.48-1.93,0-.89-.26-1.62-.79-2.19s-1.22-.86-2.1-.86c-1.05,0-1.87.31-2.45.92s-.87,1.47-.87,2.56h-2.11c0-1.57.49-2.84,1.48-3.81s2.3-1.45,3.95-1.45c1.54,0,2.76.42,3.66,1.25s1.35,1.94,1.35,3.32c0,1.68-1.04,3.68-3.13,6l-4.45,4.96h8.34v1.77Z" fill="#212728"/><path d="m195.31,320.97c0,2.54-.42,4.43-1.27,5.66-.84,1.23-2.16,1.85-3.96,1.85s-3.08-.6-3.94-1.81-1.29-3.01-1.32-5.41v-2.89c0-2.51.42-4.37,1.27-5.59s2.17-1.83,3.97-1.83,3.1.59,3.95,1.76c.84,1.18,1.28,2.99,1.3,5.44v2.81Zm-2.11-2.96c0-1.84-.25-3.17-.75-4.01s-1.3-1.26-2.38-1.26-1.87.42-2.36,1.25-.75,2.12-.76,3.86v3.47c0,1.84.26,3.21.78,4.08.52.88,1.31,1.32,2.37,1.32s1.82-.41,2.32-1.24c.5-.83.77-2.13.79-3.91v-3.55Z" fill="#212728"/><path d="m198.28,327.11c0-.38.11-.69.33-.94s.54-.38.98-.38.76.12.99.38.34.56.34.94-.11.66-.34.9-.55.36-.99.36-.76-.12-.98-.36-.33-.54-.33-.9Z" fill="#212728"/><path d="m214.58,320.97c0,2.54-.42,4.43-1.27,5.66-.84,1.23-2.16,1.85-3.96,1.85s-3.08-.6-3.94-1.81-1.29-3.01-1.32-5.41v-2.89c0-2.51.42-4.37,1.27-5.59s2.17-1.83,3.97-1.83,3.1.59,3.95,1.76c.84,1.18,1.28,2.99,1.3,5.44v2.81Zm-2.11-2.96c0-1.84-.25-3.17-.75-4.01s-1.3-1.26-2.38-1.26-1.87.42-2.36,1.25-.75,2.12-.76,3.86v3.47c0,1.84.26,3.21.78,4.08.52.88,1.31,1.32,2.37,1.32s1.82-.41,2.32-1.24c.5-.83.77-2.13.79-3.91v-3.55Z" fill="#212728"/><path d="m178.71,357.74h-2.12v-14.45l-4.25,1.61v-1.97l6.05-2.33h.33v17.14Z" fill="#212728"/><path d="m194.97,345.13c0,.85-.22,1.61-.66,2.27s-1.03,1.18-1.77,1.56c.87.38,1.55.94,2.06,1.68s.76,1.57.76,2.5c0,1.48-.48,2.65-1.45,3.53s-2.25,1.31-3.83,1.31-2.88-.44-3.84-1.32-1.44-2.05-1.44-3.52c0-.92.25-1.75.74-2.5.49-.74,1.17-1.3,2.04-1.69-.74-.38-1.32-.89-1.75-1.56-.43-.66-.64-1.42-.64-2.26,0-1.44.45-2.58,1.35-3.42s2.08-1.27,3.55-1.27,2.64.42,3.54,1.27,1.35,1.98,1.35,3.42Zm-1.72,7.96c0-.95-.29-1.73-.88-2.33-.59-.6-1.36-.9-2.31-.9s-1.71.3-2.29.89-.86,1.38-.86,2.34.28,1.73.84,2.29,1.34.83,2.33.83,1.76-.28,2.33-.84c.56-.56.84-1.32.84-2.28Zm-3.17-10.86c-.83,0-1.5.26-2.01.79s-.77,1.24-.77,2.15.25,1.57.76,2.1,1.18.8,2.03.8,1.52-.27,2.02-.8.76-1.24.76-2.1-.26-1.57-.79-2.12-1.19-.82-2-.82Z" fill="#212728"/><path d="m198.28,356.61c0-.38.11-.69.33-.94s.54-.38.98-.38.76.12.99.38.34.56.34.94-.11.66-.34.9-.55.36-.99.36-.76-.12-.98-.36-.33-.54-.33-.9Z" fill="#212728"/><path d="m214.58,350.47c0,2.54-.42,4.43-1.27,5.66-.84,1.23-2.16,1.85-3.96,1.85s-3.08-.6-3.94-1.81-1.29-3.01-1.32-5.41v-2.89c0-2.51.42-4.37,1.27-5.59s2.17-1.83,3.97-1.83,3.1.59,3.95,1.76c.84,1.18,1.28,2.99,1.3,5.44v2.81Zm-2.11-2.96c0-1.84-.25-3.17-.75-4.01s-1.3-1.26-2.38-1.26-1.87.42-2.36,1.25-.75,2.12-.76,3.86v3.47c0,1.84.26,3.21.78,4.08.52.88,1.31,1.32,2.37,1.32s1.82-.41,2.32-1.24c.5-.83.77-2.13.79-3.91v-3.55Z" fill="#212728"/><path d="m178.71,387.24h-2.12v-14.45l-4.25,1.61v-1.97l6.05-2.33h.33v17.14Z" fill="#212728"/><path d="m193.18,370.17v1.84h-.39c-1.64.03-2.95.53-3.92,1.5-.97.97-1.54,2.33-1.69,4.09.87-1.03,2.07-1.55,3.58-1.55s2.6.52,3.46,1.57,1.29,2.4,1.29,4.05c0,1.76-.47,3.16-1.4,4.22s-2.18,1.58-3.75,1.58-2.88-.63-3.87-1.88c-.99-1.25-1.48-2.87-1.48-4.85v-.83c0-3.14.65-5.54,1.96-7.2,1.3-1.66,3.25-2.51,5.82-2.55h.38Zm-2.77,7.69c-.72,0-1.39.22-2,.67s-1.03,1-1.27,1.68v.8c0,1.41.31,2.54.92,3.4s1.38,1.29,2.3,1.29,1.7-.36,2.24-1.08.82-1.66.82-2.82-.28-2.12-.83-2.84-1.28-1.08-2.2-1.08Z" fill="#212728"/><path d="m198.28,386.11c0-.38.11-.69.33-.94s.54-.38.98-.38.76.12.99.38.34.56.34.94-.11.66-.34.9-.55.36-.99.36-.76-.12-.98-.36-.33-.54-.33-.9Z" fill="#212728"/><path d="m214.58,379.97c0,2.54-.42,4.43-1.27,5.66-.84,1.23-2.16,1.85-3.96,1.85s-3.08-.6-3.94-1.81-1.29-3.01-1.32-5.41v-2.89c0-2.51.42-4.37,1.27-5.59s2.17-1.83,3.97-1.83,3.1.59,3.95,1.76c.84,1.18,1.28,2.99,1.3,5.44v2.81Zm-2.11-2.96c0-1.84-.25-3.17-.75-4.01s-1.3-1.26-2.38-1.26-1.87.42-2.36,1.25-.75,2.12-.76,3.86v3.47c0,1.84.26,3.21.78,4.08.52.88,1.31,1.32,2.37,1.32s1.82-.41,2.32-1.24c.5-.83.77-2.13.79-3.91v-3.55Z" fill="#212728"/><path d="m178.71,416.74h-2.12v-14.45l-4.25,1.61v-1.97l6.05-2.33h.33v17.14Z" fill="#212728"/><path d="m193.8,411.01h2.3v1.77h-2.3v3.96h-2.12v-3.96h-7.56v-1.28l7.44-11.82h2.25v11.33Zm-7.29,0h5.17v-8.37l-.25.47-4.92,7.9Z" fill="#212728"/><path d="m198.28,415.61c0-.38.11-.69.33-.94s.54-.38.98-.38.76.12.99.38.34.56.34.94-.11.66-.34.9-.55.36-.99.36-.76-.12-.98-.36-.33-.54-.33-.9Z" fill="#212728"/><path d="m214.58,409.47c0,2.54-.42,4.43-1.27,5.66-.84,1.23-2.16,1.85-3.96,1.85s-3.08-.6-3.94-1.81-1.29-3.01-1.32-5.41v-2.89c0-2.51.42-4.37,1.27-5.59s2.17-1.83,3.97-1.83,3.1.59,3.95,1.76c.84,1.18,1.28,2.99,1.3,5.44v2.81Zm-2.11-2.96c0-1.84-.25-3.17-.75-4.01s-1.3-1.26-2.38-1.26-1.87.42-2.36,1.25-.75,2.12-.76,3.86v3.47c0,1.84.26,3.21.78,4.08.52.88,1.31,1.32,2.37,1.32s1.82-.41,2.32-1.24c.5-.83.77-2.13.79-3.91v-3.55Z" fill="#212728"/><path d="m178.71,446.24h-2.12v-14.45l-4.25,1.61v-1.97l6.05-2.33h.33v17.14Z" fill="#212728"/><path d="m195.78,446.24h-10.88v-1.56l5.75-6.56c.85-.99,1.44-1.8,1.76-2.42.32-.62.48-1.26.48-1.93,0-.89-.26-1.62-.79-2.19s-1.22-.86-2.1-.86c-1.05,0-1.87.31-2.45.92s-.87,1.47-.87,2.56h-2.11c0-1.57.49-2.84,1.48-3.81s2.3-1.45,3.95-1.45c1.54,0,2.76.42,3.66,1.25s1.35,1.94,1.35,3.32c0,1.68-1.04,3.68-3.13,6l-4.45,4.96h8.34v1.77Z" fill="#212728"/><path d="m198.28,445.11c0-.38.11-.69.33-.94s.54-.38.98-.38.76.12.99.38.34.56.34.94-.11.66-.34.9-.55.36-.99.36-.76-.12-.98-.36-.33-.54-.33-.9Z" fill="#212728"/><path d="m214.58,438.97c0,2.54-.42,4.43-1.27,5.66-.84,1.23-2.16,1.85-3.96,1.85s-3.08-.6-3.94-1.81-1.29-3.01-1.32-5.41v-2.89c0-2.51.42-4.37,1.27-5.59s2.17-1.83,3.97-1.83,3.1.59,3.95,1.76c.84,1.18,1.28,2.99,1.3,5.44v2.81Zm-2.11-2.96c0-1.84-.25-3.17-.75-4.01s-1.3-1.26-2.38-1.26-1.87.42-2.36,1.25-.75,2.12-.76,3.86v3.47c0,1.84.26,3.21.78,4.08.52.88,1.31,1.32,2.37,1.32s1.82-.41,2.32-1.24c.5-.83.77-2.13.79-3.91v-3.55Z" fill="#212728"/><path d="m178.71,475.74h-2.12v-14.45l-4.25,1.61v-1.97l6.05-2.33h.33v17.14Z" fill="#212728"/><path d="m195.31,468.47c0,2.54-.42,4.43-1.27,5.66-.84,1.23-2.16,1.85-3.96,1.85s-3.08-.6-3.94-1.81-1.29-3.01-1.32-5.41v-2.89c0-2.51.42-4.37,1.27-5.59s2.17-1.83,3.97-1.83,3.1.59,3.95,1.76c.84,1.18,1.28,2.99,1.3,5.44v2.81Zm-2.11-2.96c0-1.84-.25-3.17-.75-4.01s-1.3-1.26-2.38-1.26-1.87.42-2.36,1.25-.75,2.12-.76,3.86v3.47c0,1.84.26,3.21.78,4.08.52.88,1.31,1.32,2.37,1.32s1.82-.41,2.32-1.24c.5-.83.77-2.13.79-3.91v-3.55Z" fill="#212728"/><path d="m198.28,474.61c0-.38.11-.69.33-.94s.54-.38.98-.38.76.12.99.38.34.56.34.94-.11.66-.34.9-.55.36-.99.36-.76-.12-.98-.36-.33-.54-.33-.9Z" fill="#212728"/><path d="m214.58,468.47c0,2.54-.42,4.43-1.27,5.66-.84,1.23-2.16,1.85-3.96,1.85s-3.08-.6-3.94-1.81-1.29-3.01-1.32-5.41v-2.89c0-2.51.42-4.37,1.27-5.59s2.17-1.83,3.97-1.83,3.1.59,3.95,1.76c.84,1.18,1.28,2.99,1.3,5.44v2.81Zm-2.11-2.96c0-1.84-.25-3.17-.75-4.01s-1.3-1.26-2.38-1.26-1.87.42-2.36,1.25-.75,2.12-.76,3.86v3.47c0,1.84.26,3.21.78,4.08.52.88,1.31,1.32,2.37,1.32s1.82-.41,2.32-1.24c.5-.83.77-2.13.79-3.91v-3.55Z" fill="#212728"/><path d="m194.97,492.63c0,.85-.22,1.61-.66,2.27s-1.03,1.18-1.77,1.56c.87.38,1.55.94,2.06,1.68s.76,1.57.76,2.5c0,1.48-.48,2.65-1.45,3.53s-2.25,1.31-3.83,1.31-2.88-.44-3.84-1.32-1.44-2.05-1.44-3.52c0-.92.25-1.75.74-2.5.49-.74,1.17-1.3,2.04-1.69-.74-.38-1.32-.89-1.75-1.56-.43-.66-.64-1.42-.64-2.26,0-1.44.45-2.58,1.35-3.42s2.08-1.27,3.55-1.27,2.64.42,3.54,1.27,1.35,1.98,1.35,3.42Zm-1.72,7.96c0-.95-.29-1.73-.88-2.33-.59-.6-1.36-.9-2.31-.9s-1.71.3-2.29.89-.86,1.38-.86,2.34.28,1.73.84,2.29,1.34.83,2.33.83,1.76-.28,2.33-.84c.56-.56.84-1.32.84-2.28Zm-3.17-10.86c-.83,0-1.5.26-2.01.79s-.77,1.24-.77,2.15.25,1.57.76,2.1,1.18.8,2.03.8,1.52-.27,2.02-.8.76-1.24.76-2.1-.26-1.57-.79-2.12-1.19-.82-2-.82Z" fill="#212728"/><path d="m198.28,504.11c0-.38.11-.69.33-.94s.54-.38.98-.38.76.12.99.38.34.56.34.94-.11.66-.34.9-.55.36-.99.36-.76-.12-.98-.36-.33-.54-.33-.9Z" fill="#212728"/><path d="m214.58,497.97c0,2.54-.42,4.43-1.27,5.66-.84,1.23-2.16,1.85-3.96,1.85s-3.08-.6-3.94-1.81-1.29-3.01-1.32-5.41v-2.89c0-2.51.42-4.37,1.27-5.59s2.17-1.83,3.97-1.83,3.1.59,3.95,1.76c.84,1.18,1.28,2.99,1.3,5.44v2.81Zm-2.11-2.96c0-1.84-.25-3.17-.75-4.01s-1.3-1.26-2.38-1.26-1.87.42-2.36,1.25-.75,2.12-.76,3.86v3.47c0,1.84.26,3.21.78,4.08.52.88,1.31,1.32,2.37,1.32s1.82-.41,2.32-1.24c.5-.83.77-2.13.79-3.91v-3.55Z" fill="#212728"/><path d="m193.18,517.67v1.84h-.39c-1.64.03-2.95.53-3.92,1.5-.97.97-1.54,2.33-1.69,4.09.87-1.03,2.07-1.55,3.58-1.55s2.6.52,3.46,1.57,1.29,2.4,1.29,4.05c0,1.76-.47,3.16-1.4,4.22s-2.18,1.58-3.75,1.58-2.88-.63-3.87-1.88c-.99-1.25-1.48-2.87-1.48-4.85v-.83c0-3.14.65-5.54,1.96-7.2,1.3-1.66,3.25-2.51,5.82-2.55h.38Zm-2.77,7.69c-.72,0-1.39.22-2,.67s-1.03,1-1.27,1.68v.8c0,1.41.31,2.54.92,3.4s1.38,1.29,2.3,1.29,1.7-.36,2.24-1.08.82-1.66.82-2.82-.28-2.12-.83-2.84-1.28-1.08-2.2-1.08Z" fill="#212728"/><path d="m198.28,533.61c0-.38.11-.69.33-.94s.54-.38.98-.38.76.12.99.38.34.56.34.94-.11.66-.34.9-.55.36-.99.36-.76-.12-.98-.36-.33-.54-.33-.9Z" fill="#212728"/><path d="m214.58,527.47c0,2.54-.42,4.43-1.27,5.66-.84,1.23-2.16,1.85-3.96,1.85s-3.08-.6-3.94-1.81-1.29-3.01-1.32-5.41v-2.89c0-2.51.42-4.37,1.27-5.59s2.17-1.83,3.97-1.83,3.1.59,3.95,1.76c.84,1.18,1.28,2.99,1.3,5.44v2.81Zm-2.11-2.96c0-1.84-.25-3.17-.75-4.01s-1.3-1.26-2.38-1.26-1.87.42-2.36,1.25-.75,2.12-.76,3.86v3.47c0,1.84.26,3.21.78,4.08.52.88,1.31,1.32,2.37,1.32s1.82-.41,2.32-1.24c.5-.83.77-2.13.79-3.91v-3.55Z" fill="#212728"/><path d="m193.81,558.51h2.3v1.77h-2.3v3.96h-2.12v-3.96h-7.56v-1.28l7.44-11.82h2.25v11.33Zm-7.29,0h5.17v-8.37l-.25.47-4.92,7.9Z" fill="#212728"/><path d="m198.28,563.11c0-.38.11-.69.33-.94s.54-.38.98-.38.76.12.99.38.34.56.34.94-.11.66-.34.9-.55.36-.99.36-.76-.12-.98-.36-.33-.54-.33-.9Z" fill="#212728"/><path d="m214.58,556.97c0,2.54-.42,4.43-1.27,5.66-.84,1.23-2.16,1.85-3.96,1.85s-3.08-.6-3.94-1.81-1.29-3.01-1.32-5.41v-2.89c0-2.51.42-4.37,1.27-5.59s2.17-1.83,3.97-1.83,3.1.59,3.95,1.76c.84,1.18,1.28,2.99,1.3,5.44v2.81Zm-2.11-2.96c0-1.84-.25-3.17-.75-4.01s-1.3-1.26-2.38-1.26-1.87.42-2.36,1.25-.75,2.12-.76,3.86v3.47c0,1.84.26,3.21.78,4.08.52.88,1.31,1.32,2.37,1.32s1.82-.41,2.32-1.24c.5-.83.77-2.13.79-3.91v-3.55Z" fill="#212728"/><path d="m195.78,593.74h-10.88v-1.56l5.75-6.56c.85-.99,1.44-1.8,1.76-2.42.32-.62.48-1.26.48-1.93,0-.89-.26-1.62-.79-2.19s-1.22-.86-2.1-.86c-1.05,0-1.87.31-2.45.92s-.87,1.47-.87,2.56h-2.11c0-1.57.49-2.84,1.48-3.81s2.3-1.45,3.95-1.45c1.54,0,2.76.42,3.66,1.25s1.35,1.94,1.35,3.32c0,1.68-1.04,3.68-3.13,6l-4.45,4.96h8.34v1.77Z" fill="#212728"/><path d="m198.28,592.61c0-.38.11-.69.33-.94s.54-.38.98-.38.76.12.99.38.34.56.34.94-.11.66-.34.9-.55.36-.99.36-.76-.12-.98-.36-.33-.54-.33-.9Z" fill="#212728"/><path d="m214.58,586.47c0,2.54-.42,4.43-1.27,5.66-.84,1.23-2.16,1.85-3.96,1.85s-3.08-.6-3.94-1.81-1.29-3.01-1.32-5.41v-2.89c0-2.51.42-4.37,1.27-5.59s2.17-1.83,3.97-1.83,3.1.59,3.95,1.76c.84,1.18,1.28,2.99,1.3,5.44v2.81Zm-2.11-2.96c0-1.84-.25-3.17-.75-4.01s-1.3-1.26-2.38-1.26-1.87.42-2.36,1.25-.75,2.12-.76,3.86v3.47c0,1.84.26,3.21.78,4.08.52.88,1.31,1.32,2.37,1.32s1.82-.41,2.32-1.24c.5-.83.77-2.13.79-3.91v-3.55Z" fill="#212728"/><path d="m214.58,615.97c0,2.54-.42,4.43-1.27,5.66-.84,1.23-2.16,1.85-3.96,1.85s-3.08-.6-3.94-1.81-1.29-3.01-1.32-5.41v-2.89c0-2.51.42-4.37,1.27-5.59s2.17-1.83,3.97-1.83,3.1.59,3.95,1.76c.84,1.18,1.28,2.99,1.3,5.44v2.81Zm-2.11-2.96c0-1.84-.25-3.17-.75-4.01s-1.3-1.26-2.38-1.26-1.87.42-2.36,1.25-.75,2.12-.76,3.86v3.47c0,1.84.26,3.21.78,4.08.52.88,1.31,1.32,2.37,1.32s1.82-.41,2.32-1.24c.5-.83.77-2.13.79-3.91v-3.55Z" fill="#212728"/><path d="m288.49,643.6h2.3v1.77h-2.3v3.96h-2.12v-3.96h-7.56v-1.28l7.44-11.82h2.25v11.33Zm-7.29,0h5.17v-8.37l-.25.47-4.92,7.9Z" fill="#212728"/><path d="m292.96,648.2c0-.38.11-.69.33-.94s.54-.38.98-.38.76.12.99.38.34.56.34.94-.11.66-.34.9-.55.36-.99.36-.76-.12-.98-.36-.33-.54-.33-.9Z" fill="#212728"/><path d="m309.26,642.06c0,2.54-.42,4.43-1.27,5.66-.84,1.23-2.16,1.85-3.96,1.85s-3.08-.6-3.94-1.81-1.29-3.01-1.32-5.41v-2.89c0-2.51.42-4.37,1.27-5.59s2.17-1.83,3.97-1.83,3.1.59,3.95,1.76c.84,1.18,1.28,2.99,1.3,5.44v2.81Zm-2.11-2.96c0-1.84-.25-3.17-.75-4.01s-1.3-1.26-2.38-1.26-1.87.42-2.36,1.25-.75,2.12-.76,3.86v3.47c0,1.84.26,3.21.78,4.08.52.88,1.31,1.32,2.37,1.32s1.82-.41,2.32-1.24c.5-.83.77-2.13.79-3.91v-3.55Z" fill="#212728"/><path d="m242.63,642.06c0,2.54-.42,4.43-1.27,5.66-.84,1.23-2.16,1.85-3.96,1.85s-3.08-.6-3.94-1.81-1.29-3.01-1.32-5.41v-2.89c0-2.51.42-4.37,1.27-5.59s2.17-1.83,3.97-1.83,3.1.59,3.95,1.76c.84,1.18,1.28,2.99,1.3,5.44v2.81Zm-2.11-2.96c0-1.84-.25-3.17-.75-4.01s-1.3-1.26-2.38-1.26-1.87.42-2.36,1.25-.75,2.12-.76,3.86v3.47c0,1.84.26,3.21.78,4.08.52.88,1.31,1.32,2.37,1.32s1.82-.41,2.32-1.24c.5-.83.77-2.13.79-3.91v-3.55Z" fill="#212728"/><path d="m348.65,636.72c0,.85-.22,1.61-.66,2.27s-1.03,1.18-1.77,1.56c.87.38,1.55.94,2.06,1.68s.76,1.57.76,2.5c0,1.48-.48,2.65-1.45,3.53s-2.25,1.31-3.83,1.31-2.88-.44-3.84-1.32-1.44-2.05-1.44-3.52c0-.92.25-1.75.74-2.5.49-.74,1.17-1.3,2.04-1.69-.74-.38-1.32-.89-1.75-1.56-.43-.66-.64-1.42-.64-2.26,0-1.44.45-2.58,1.35-3.42s2.08-1.27,3.55-1.27,2.64.42,3.54,1.27,1.35,1.98,1.35,3.42Zm-1.72,7.96c0-.95-.29-1.73-.88-2.33-.59-.6-1.36-.9-2.31-.9s-1.71.3-2.29.89-.86,1.38-.86,2.34.28,1.73.84,2.29,1.34.83,2.33.83,1.76-.28,2.33-.84c.56-.56.84-1.32.84-2.28Zm-3.17-10.86c-.83,0-1.5.26-2.01.79s-.77,1.24-.77,2.15.25,1.57.76,2.1,1.18.8,2.03.8,1.52-.27,2.02-.8.76-1.24.76-2.1-.26-1.57-.79-2.12-1.19-.82-2-.82Z" fill="#212728"/><path d="m351.96,648.2c0-.38.11-.69.33-.94s.54-.38.98-.38.76.12.99.38.34.56.34.94-.11.66-.34.9-.55.36-.99.36-.76-.12-.98-.36-.33-.54-.33-.9Z" fill="#212728"/><path d="m368.26,642.06c0,2.54-.42,4.43-1.27,5.66-.84,1.23-2.16,1.85-3.96,1.85s-3.08-.6-3.94-1.81-1.29-3.01-1.32-5.41v-2.89c0-2.51.42-4.37,1.27-5.59s2.17-1.83,3.97-1.83,3.1.59,3.95,1.76c.84,1.18,1.28,2.99,1.3,5.44v2.81Zm-2.11-2.96c0-1.84-.25-3.17-.75-4.01s-1.3-1.26-2.38-1.26-1.87.42-2.36,1.25-.75,2.12-.76,3.86v3.47c0,1.84.26,3.21.78,4.08.52.88,1.31,1.32,2.37,1.32s1.82-.41,2.32-1.24c.5-.83.77-2.13.79-3.91v-3.55Z" fill="#212728"/><path d="m397.29,649.33h-2.12v-14.45l-4.25,1.61v-1.97l6.05-2.33h.33v17.14Z" fill="#212728"/><path d="m414.35,649.33h-10.88v-1.56l5.75-6.56c.85-.99,1.44-1.8,1.76-2.42.32-.62.48-1.26.48-1.93,0-.89-.26-1.62-.79-2.19s-1.22-.86-2.1-.86c-1.05,0-1.87.31-2.45.92s-.87,1.47-.87,2.56h-2.11c0-1.57.49-2.84,1.48-3.81s2.3-1.45,3.95-1.45c1.54,0,2.76.42,3.66,1.25s1.35,1.94,1.35,3.32c0,1.68-1.04,3.68-3.13,6l-4.45,4.96h8.34v1.77Z" fill="#212728"/><path d="m416.85,648.2c0-.38.11-.69.33-.94s.54-.38.98-.38.76.12.99.38.34.56.34.94-.11.66-.34.9-.55.36-.99.36-.76-.12-.98-.36-.33-.54-.33-.9Z" fill="#212728"/><path d="m433.15,642.06c0,2.54-.42,4.43-1.27,5.66-.84,1.23-2.16,1.85-3.96,1.85s-3.08-.6-3.94-1.81-1.29-3.01-1.32-5.41v-2.89c0-2.51.42-4.37,1.27-5.59s2.17-1.83,3.97-1.83,3.1.59,3.95,1.76c.84,1.18,1.28,2.99,1.3,5.44v2.81Zm-2.11-2.96c0-1.84-.25-3.17-.75-4.01s-1.3-1.26-2.38-1.26-1.87.42-2.36,1.25-.75,2.12-.76,3.86v3.47c0,1.84.26,3.21.78,4.08.52.88,1.31,1.32,2.37,1.32s1.82-.41,2.32-1.24c.5-.83.77-2.13.79-3.91v-3.55Z" fill="#212728"/><path d="m456.29,649.33h-2.12v-14.45l-4.25,1.61v-1.97l6.05-2.33h.33v17.14Z" fill="#212728"/><path d="m470.75,632.26v1.84h-.39c-1.64.03-2.95.53-3.92,1.5-.97.97-1.54,2.33-1.69,4.09.87-1.03,2.07-1.55,3.58-1.55s2.6.52,3.46,1.57,1.29,2.4,1.29,4.05c0,1.76-.47,3.16-1.4,4.22s-2.18,1.58-3.75,1.58-2.88-.63-3.87-1.88c-.99-1.25-1.48-2.87-1.48-4.85v-.83c0-3.14.65-5.54,1.96-7.2,1.3-1.66,3.25-2.51,5.82-2.55h.38Zm-2.77,7.69c-.72,0-1.39.22-2,.67s-1.03,1-1.27,1.68v.8c0,1.41.31,2.54.92,3.4s1.38,1.29,2.3,1.29,1.7-.36,2.24-1.08.82-1.66.82-2.82-.28-2.12-.83-2.84-1.28-1.08-2.2-1.08Z" fill="#212728"/><path d="m475.85,648.2c0-.38.11-.69.33-.94s.54-.38.98-.38.76.12.99.38.34.56.34.94-.11.66-.34.9-.55.36-.99.36-.76-.12-.98-.36-.33-.54-.33-.9Z" fill="#212728"/><path d="m492.15,642.06c0,2.54-.42,4.43-1.27,5.66-.84,1.23-2.16,1.85-3.96,1.85s-3.08-.6-3.94-1.81-1.29-3.01-1.32-5.41v-2.89c0-2.51.42-4.37,1.27-5.59s2.17-1.83,3.97-1.83,3.1.59,3.95,1.76c.84,1.18,1.28,2.99,1.3,5.44v2.81Zm-2.11-2.96c0-1.84-.25-3.17-.75-4.01s-1.3-1.26-2.38-1.26-1.87.42-2.36,1.25-.75,2.12-.76,3.86v3.47c0,1.84.26,3.21.78,4.08.52.88,1.31,1.32,2.37,1.32s1.82-.41,2.32-1.24c.5-.83.77-2.13.79-3.91v-3.55Z" fill="#212728"/><path d="m518.57,649.33h-10.88v-1.56l5.75-6.56c.85-.99,1.44-1.8,1.76-2.42.32-.62.48-1.26.48-1.93,0-.89-.26-1.62-.79-2.19-.53-.57-1.22-.86-2.1-.86-1.05,0-1.87.31-2.45.92s-.87,1.47-.87,2.56h-2.11c0-1.57.49-2.84,1.48-3.81.99-.97,2.3-1.45,3.95-1.45,1.54,0,2.76.42,3.66,1.25.9.83,1.35,1.94,1.35,3.32,0,1.68-1.04,3.68-3.12,6l-4.45,4.96h8.34v1.77Z" fill="#212728"/><path d="m531.22,642.06c0,2.54-.42,4.43-1.27,5.66s-2.16,1.85-3.96,1.85-3.08-.6-3.94-1.81-1.29-3.01-1.32-5.41v-2.89c0-2.51.42-4.37,1.27-5.59s2.17-1.83,3.97-1.83,3.1.59,3.95,1.76c.84,1.18,1.28,2.99,1.3,5.44v2.81Zm-2.11-2.96c0-1.84-.25-3.17-.75-4.01s-1.29-1.26-2.38-1.26-1.87.42-2.36,1.25-.75,2.12-.77,3.86v3.47c0,1.84.26,3.21.78,4.08.52.88,1.31,1.32,2.37,1.32s1.82-.41,2.32-1.24.77-2.13.79-3.91v-3.55Z" fill="#212728"/><path d="m534.19,648.2c0-.38.11-.69.33-.94s.54-.38.97-.38.76.12.99.38.34.56.34.94-.11.66-.34.9-.55.36-.99.36-.76-.12-.97-.36-.33-.54-.33-.9Z" fill="#212728"/><path d="m550.49,642.06c0,2.54-.42,4.43-1.27,5.66s-2.16,1.85-3.96,1.85-3.08-.6-3.94-1.81-1.29-3.01-1.32-5.41v-2.89c0-2.51.42-4.37,1.27-5.59s2.17-1.83,3.97-1.83,3.1.59,3.95,1.76c.84,1.18,1.28,2.99,1.3,5.44v2.81Zm-2.11-2.96c0-1.84-.25-3.17-.75-4.01s-1.29-1.26-2.38-1.26-1.87.42-2.36,1.25-.75,2.12-.77,3.86v3.47c0,1.84.26,3.21.78,4.08.52.88,1.31,1.32,2.37,1.32s1.82-.41,2.32-1.24.77-2.13.79-3.91v-3.55Z" fill="#212728"/><path d="m576.57,649.33h-10.88v-1.56l5.75-6.56c.85-.99,1.44-1.8,1.76-2.42.32-.62.48-1.26.48-1.93,0-.89-.26-1.62-.79-2.19-.53-.57-1.22-.86-2.1-.86-1.05,0-1.87.31-2.45.92s-.87,1.47-.87,2.56h-2.11c0-1.57.49-2.84,1.48-3.81.99-.97,2.3-1.45,3.95-1.45,1.54,0,2.76.42,3.66,1.25.9.83,1.35,1.94,1.35,3.32,0,1.68-1.04,3.68-3.12,6l-4.45,4.96h8.34v1.77Z" fill="#212728"/><path d="m587.71,643.6h2.3v1.77h-2.3v3.96h-2.12v-3.96h-7.56v-1.28l7.44-11.82h2.25v11.33Zm-7.29,0h5.17v-8.37l-.25.47-4.92,7.9Z" fill="#212728"/><path d="m592.19,648.2c0-.38.11-.69.33-.94s.54-.38.97-.38.76.12.99.38.34.56.34.94-.11.66-.34.9-.55.36-.99.36-.76-.12-.97-.36-.33-.54-.33-.9Z" fill="#212728"/><path d="m608.49,642.06c0,2.54-.42,4.43-1.27,5.66s-2.16,1.85-3.96,1.85-3.08-.6-3.94-1.81-1.29-3.01-1.32-5.41v-2.89c0-2.51.42-4.37,1.27-5.59s2.17-1.83,3.97-1.83,3.1.59,3.95,1.76c.84,1.18,1.28,2.99,1.3,5.44v2.81Zm-2.11-2.96c0-1.84-.25-3.17-.75-4.01s-1.29-1.26-2.38-1.26-1.87.42-2.36,1.25-.75,2.12-.77,3.86v3.47c0,1.84.26,3.21.78,4.08.52.88,1.31,1.32,2.37,1.32s1.82-.41,2.32-1.24.77-2.13.79-3.91v-3.55Z" fill="#212728"/><path d="m634.9,649.33h-10.88v-1.56l5.75-6.56c.85-.99,1.44-1.8,1.76-2.42.32-.62.48-1.26.48-1.93,0-.89-.26-1.62-.79-2.19s-1.22-.86-2.1-.86c-1.05,0-1.87.31-2.45.92s-.87,1.47-.87,2.56h-2.11c0-1.57.49-2.84,1.48-3.81s2.3-1.45,3.95-1.45c1.54,0,2.76.42,3.66,1.25s1.35,1.94,1.35,3.32c0,1.68-1.04,3.68-3.13,6l-4.45,4.96h8.34v1.77Z" fill="#212728"/><path d="m647.21,636.72c0,.85-.22,1.61-.66,2.27s-1.03,1.18-1.77,1.56c.87.38,1.55.94,2.06,1.68s.76,1.57.76,2.5c0,1.48-.48,2.65-1.45,3.53s-2.25,1.31-3.83,1.31-2.88-.44-3.84-1.32-1.44-2.05-1.44-3.52c0-.92.25-1.75.74-2.5.49-.74,1.17-1.3,2.04-1.69-.74-.38-1.32-.89-1.75-1.56-.43-.66-.64-1.42-.64-2.26,0-1.44.45-2.58,1.35-3.42s2.08-1.27,3.55-1.27,2.64.42,3.54,1.27,1.35,1.98,1.35,3.42Zm-1.72,7.96c0-.95-.29-1.73-.88-2.33-.59-.6-1.36-.9-2.31-.9s-1.71.3-2.29.89-.86,1.38-.86,2.34.28,1.73.84,2.29,1.34.83,2.33.83,1.76-.28,2.33-.84c.56-.56.84-1.32.84-2.28Zm-3.17-10.86c-.83,0-1.5.26-2.01.79s-.77,1.24-.77,2.15.25,1.57.76,2.1,1.18.8,2.03.8,1.52-.27,2.02-.8.76-1.24.76-2.1-.26-1.57-.79-2.12-1.19-.82-2-.82Z" fill="#212728"/><path d="m650.52,648.2c0-.38.11-.69.33-.94s.54-.38.98-.38.76.12.99.38.34.56.34.94-.11.66-.34.9-.55.36-.99.36-.76-.12-.98-.36-.33-.54-.33-.9Z" fill="#212728"/><path d="m666.82,642.06c0,2.54-.42,4.43-1.27,5.66-.84,1.23-2.16,1.85-3.96,1.85s-3.08-.6-3.94-1.81-1.29-3.01-1.32-5.41v-2.89c0-2.51.42-4.37,1.27-5.59s2.17-1.83,3.97-1.83,3.1.59,3.95,1.76c.84,1.18,1.28,2.99,1.3,5.44v2.81Zm-2.11-2.96c0-1.84-.25-3.17-.75-4.01s-1.3-1.26-2.38-1.26-1.87.42-2.36,1.25-.75,2.12-.76,3.86v3.47c0,1.84.26,3.21.78,4.08.52.88,1.31,1.32,2.37,1.32s1.82-.41,2.32-1.24c.5-.83.77-2.13.79-3.91v-3.55Z" fill="#212728"/><path d="m686.09,639.75h1.58c1-.02,1.78-.29,2.35-.81s.86-1.23.86-2.12c0-2-.97-3-2.91-3-.91,0-1.64.27-2.18.8s-.82,1.24-.82,2.13h-2.11c0-1.35.48-2.47,1.44-3.37.96-.89,2.18-1.34,3.67-1.34,1.57,0,2.79.43,3.68,1.28s1.33,2.04,1.33,3.55c0,.74-.23,1.46-.7,2.16-.47.7-1.1,1.21-1.91,1.56.91.3,1.62.79,2.12,1.48s.75,1.53.75,2.52c0,1.53-.49,2.75-1.46,3.64-.97.9-2.24,1.35-3.8,1.35s-2.83-.43-3.8-1.3-1.47-2.01-1.47-3.43h2.12c0,.9.29,1.62.86,2.16s1.33.81,2.29.81c1.02,0,1.8-.27,2.34-.82s.81-1.33.81-2.36-.3-1.75-.89-2.29c-.59-.53-1.45-.8-2.57-.82h-1.58v-1.77Z" fill="#212728"/><path d="m707.02,649.33h-10.88v-1.56l5.75-6.56c.85-.99,1.44-1.8,1.76-2.42.32-.62.48-1.26.48-1.93,0-.89-.26-1.62-.79-2.19s-1.22-.86-2.1-.86c-1.05,0-1.87.31-2.45.92s-.87,1.47-.87,2.56h-2.11c0-1.57.49-2.84,1.48-3.81s2.3-1.45,3.95-1.45c1.54,0,2.76.42,3.66,1.25s1.35,1.94,1.35,3.32c0,1.68-1.04,3.68-3.13,6l-4.45,4.96h8.34v1.77Z" fill="#212728"/><path d="m709.52,648.2c0-.38.11-.69.33-.94s.54-.38.98-.38.76.12.99.38.34.56.34.94-.11.66-.34.9-.55.36-.99.36-.76-.12-.98-.36-.33-.54-.33-.9Z" fill="#212728"/><path d="m725.82,642.06c0,2.54-.42,4.43-1.27,5.66-.84,1.23-2.16,1.85-3.96,1.85s-3.08-.6-3.94-1.81-1.29-3.01-1.32-5.41v-2.89c0-2.51.42-4.37,1.27-5.59s2.17-1.83,3.97-1.83,3.1.59,3.95,1.76c.84,1.18,1.28,2.99,1.3,5.44v2.81Zm-2.11-2.96c0-1.84-.25-3.17-.75-4.01s-1.3-1.26-2.38-1.26-1.87.42-2.36,1.25-.75,2.12-.76,3.86v3.47c0,1.84.26,3.21.78,4.08.52.88,1.31,1.32,2.37,1.32s1.82-.41,2.32-1.24c.5-.83.77-2.13.79-3.91v-3.55Z" fill="#212728"/><path d="m744.09,639.75h1.58c1-.02,1.78-.29,2.35-.81s.86-1.23.86-2.12c0-2-.97-3-2.91-3-.91,0-1.64.27-2.18.8s-.82,1.24-.82,2.13h-2.11c0-1.35.48-2.47,1.44-3.37.96-.89,2.18-1.34,3.67-1.34,1.57,0,2.79.43,3.68,1.28s1.33,2.04,1.33,3.55c0,.74-.23,1.46-.7,2.16-.47.7-1.1,1.21-1.91,1.56.91.3,1.62.79,2.12,1.48s.75,1.53.75,2.52c0,1.53-.49,2.75-1.46,3.64-.97.9-2.24,1.35-3.8,1.35s-2.83-.43-3.8-1.3-1.47-2.01-1.47-3.43h2.12c0,.9.29,1.62.86,2.16s1.33.81,2.29.81c1.02,0,1.8-.27,2.34-.82s.81-1.33.81-2.36-.3-1.75-.89-2.29c-.59-.53-1.45-.8-2.57-.82h-1.58v-1.77Z" fill="#212728"/><path d="m762.42,632.26v1.84h-.39c-1.64.03-2.95.53-3.92,1.5-.97.97-1.54,2.33-1.69,4.09.87-1.03,2.07-1.55,3.58-1.55s2.6.52,3.46,1.57,1.29,2.4,1.29,4.05c0,1.76-.47,3.16-1.4,4.22s-2.18,1.58-3.75,1.58-2.88-.63-3.87-1.88c-.99-1.25-1.48-2.87-1.48-4.85v-.83c0-3.14.65-5.54,1.96-7.2,1.3-1.66,3.25-2.51,5.82-2.55h.38Zm-2.77,7.69c-.72,0-1.39.22-2,.67s-1.03,1-1.27,1.68v.8c0,1.41.31,2.54.92,3.4s1.38,1.29,2.3,1.29,1.7-.36,2.24-1.08.82-1.66.82-2.82-.28-2.12-.83-2.84-1.28-1.08-2.2-1.08Z" fill="#212728"/><path d="m767.52,648.2c0-.38.11-.69.33-.94s.54-.38.98-.38.76.12.99.38.34.56.34.94-.11.66-.34.9-.55.36-.99.36-.76-.12-.98-.36-.33-.54-.33-.9Z" fill="#212728"/><path d="m783.82,642.06c0,2.54-.42,4.43-1.27,5.66-.84,1.23-2.16,1.85-3.96,1.85s-3.08-.6-3.94-1.81-1.29-3.01-1.32-5.41v-2.89c0-2.51.42-4.37,1.27-5.59s2.17-1.83,3.97-1.83,3.1.59,3.95,1.76c.84,1.18,1.28,2.99,1.3,5.44v2.81Zm-2.11-2.96c0-1.84-.25-3.17-.75-4.01s-1.3-1.26-2.38-1.26-1.87.42-2.36,1.25-.75,2.12-.76,3.86v3.47c0,1.84.26,3.21.78,4.08.52.88,1.31,1.32,2.37,1.32s1.82-.41,2.32-1.24c.5-.83.77-2.13.79-3.91v-3.55Z" fill="#212728"/><path d="m808.26,643.6h2.3v1.77h-2.3v3.96h-2.12v-3.96h-7.56v-1.28l7.44-11.82h2.25v11.33Zm-7.29,0h5.17v-8.37l-.25.47-4.92,7.9Z" fill="#212728"/><path d="m822.89,642.06c0,2.54-.42,4.43-1.27,5.66-.84,1.23-2.16,1.85-3.96,1.85s-3.08-.6-3.94-1.81-1.29-3.01-1.32-5.41v-2.89c0-2.51.42-4.37,1.27-5.59s2.17-1.83,3.97-1.83,3.1.59,3.95,1.76c.84,1.18,1.28,2.99,1.3,5.44v2.81Zm-2.11-2.96c0-1.84-.25-3.17-.75-4.01s-1.3-1.26-2.38-1.26-1.87.42-2.36,1.25-.75,2.12-.76,3.86v3.47c0,1.84.26,3.21.78,4.08.52.88,1.31,1.32,2.37,1.32s1.82-.41,2.32-1.24c.5-.83.77-2.13.79-3.91v-3.55Z" fill="#212728"/><path d="m825.85,648.2c0-.38.11-.69.33-.94s.54-.38.98-.38.76.12.99.38.34.56.34.94-.11.66-.34.9-.55.36-.99.36-.76-.12-.98-.36-.33-.54-.33-.9Z" fill="#212728"/><path d="m842.15,642.06c0,2.54-.42,4.43-1.27,5.66-.84,1.23-2.16,1.85-3.96,1.85s-3.08-.6-3.94-1.81-1.29-3.01-1.32-5.41v-2.89c0-2.51.42-4.37,1.27-5.59s2.17-1.83,3.97-1.83,3.1.59,3.95,1.76c.84,1.18,1.28,2.99,1.3,5.44v2.81Zm-2.11-2.96c0-1.84-.25-3.17-.75-4.01s-1.3-1.26-2.38-1.26-1.87.42-2.36,1.25-.75,2.12-.76,3.86v3.47c0,1.84.26,3.21.78,4.08.52.88,1.31,1.32,2.37,1.32s1.82-.41,2.32-1.24c.5-.83.77-2.13.79-3.91v-3.55Z" fill="#212728"/><path d="m866.26,643.6h2.3v1.77h-2.3v3.96h-2.12v-3.96h-7.56v-1.28l7.44-11.82h2.25v11.33Zm-7.29,0h5.17v-8.37l-.25.47-4.92,7.9Z" fill="#212728"/><path d="m879.38,643.6h2.3v1.77h-2.3v3.96h-2.12v-3.96h-7.56v-1.28l7.44-11.82h2.25v11.33Zm-7.29,0h5.17v-8.37l-.25.47-4.92,7.9Z" fill="#212728"/><path d="m883.85,648.2c0-.38.11-.69.33-.94s.54-.38.98-.38.76.12.99.38.34.56.34.94-.11.66-.34.9-.55.36-.99.36-.76-.12-.98-.36-.33-.54-.33-.9Z" fill="#212728"/><path d="m900.15,642.06c0,2.54-.42,4.43-1.27,5.66-.84,1.23-2.16,1.85-3.96,1.85s-3.08-.6-3.94-1.81-1.29-3.01-1.32-5.41v-2.89c0-2.51.42-4.37,1.27-5.59s2.17-1.83,3.97-1.83,3.1.59,3.95,1.76c.84,1.18,1.28,2.99,1.3,5.44v2.81Zm-2.11-2.96c0-1.84-.25-3.17-.75-4.01s-1.3-1.26-2.38-1.26-1.87.42-2.36,1.25-.75,2.12-.76,3.86v3.47c0,1.84.26,3.21.78,4.08.52.88,1.31,1.32,2.37,1.32s1.82-.41,2.32-1.24c.5-.83.77-2.13.79-3.91v-3.55Z" fill="#212728"/><path d="m924.6,643.6h2.3v1.77h-2.3v3.96h-2.12v-3.96h-7.56v-1.28l7.44-11.82h2.25v11.33Zm-7.29,0h5.17v-8.37l-.25.47-4.92,7.9Z" fill="#212728"/><path d="m938.88,636.72c0,.85-.22,1.61-.66,2.27s-1.03,1.18-1.77,1.56c.87.38,1.55.94,2.06,1.68s.76,1.57.76,2.5c0,1.48-.48,2.65-1.46,3.53-.97.88-2.25,1.31-3.83,1.31s-2.88-.44-3.84-1.32c-.96-.88-1.44-2.05-1.44-3.52,0-.92.25-1.75.74-2.5s1.17-1.3,2.04-1.69c-.74-.38-1.32-.89-1.75-1.56s-.64-1.42-.64-2.26c0-1.44.45-2.58,1.35-3.42.9-.84,2.08-1.27,3.55-1.27s2.64.42,3.54,1.27c.9.84,1.35,1.98,1.35,3.42Zm-1.72,7.96c0-.95-.29-1.73-.88-2.33-.59-.6-1.36-.9-2.31-.9s-1.71.3-2.29.89-.86,1.38-.86,2.34.28,1.73.84,2.29,1.34.83,2.33.83,1.76-.28,2.33-.84.84-1.32.84-2.28Zm-3.17-10.86c-.83,0-1.5.26-2.01.79s-.77,1.24-.77,2.15.25,1.57.76,2.1,1.18.8,2.03.8,1.52-.27,2.02-.8.76-1.24.76-2.1-.26-1.57-.79-2.12c-.53-.55-1.19-.82-2-.82Z" fill="#212728"/><path d="m942.19,648.2c0-.38.11-.69.33-.94s.54-.38.97-.38.76.12.99.38.34.56.34.94-.11.66-.34.9-.55.36-.99.36-.76-.12-.97-.36-.33-.54-.33-.9Z" fill="#212728"/><path d="m958.49,642.06c0,2.54-.42,4.43-1.27,5.66s-2.16,1.85-3.96,1.85-3.08-.6-3.94-1.81-1.29-3.01-1.32-5.41v-2.89c0-2.51.42-4.37,1.27-5.59s2.17-1.83,3.97-1.83,3.1.59,3.95,1.76c.84,1.18,1.28,2.99,1.3,5.44v2.81Zm-2.11-2.96c0-1.84-.25-3.17-.75-4.01s-1.29-1.26-2.38-1.26-1.87.42-2.36,1.25-.75,2.12-.77,3.86v3.47c0,1.84.26,3.21.78,4.08.52.88,1.31,1.32,2.37,1.32s1.82-.41,2.32-1.24.77-2.13.79-3.91v-3.55Z" fill="#212728"/><path d="m975.66,640.78l.84-8.51h8.51v2h-6.72l-.5,4.65c.81-.49,1.74-.74,2.77-.74,1.51,0,2.71.51,3.61,1.54s1.33,2.42,1.33,4.17-.46,3.14-1.38,4.15-2.21,1.52-3.87,1.52c-1.47,0-2.67-.42-3.59-1.25s-1.46-1.99-1.59-3.47h2c.13.98.47,1.71,1.02,2.21s1.27.74,2.17.74c.98,0,1.75-.34,2.31-1.03.56-.69.84-1.64.84-2.85,0-1.14-.3-2.06-.91-2.75-.61-.69-1.41-1.04-2.41-1.04-.92,0-1.64.21-2.17.62l-.56.47-1.69-.45Z" fill="#212728"/><path d="m998.69,649.33h-10.88v-1.56l5.75-6.56c.85-.99,1.44-1.8,1.76-2.42.32-.62.48-1.26.48-1.93,0-.89-.26-1.62-.79-2.19-.52-.57-1.22-.86-2.1-.86-1.05,0-1.87.31-2.45.92s-.87,1.47-.87,2.56h-2.11c0-1.57.49-2.84,1.48-3.81.98-.97,2.3-1.45,3.95-1.45,1.54,0,2.76.42,3.66,1.25.9.83,1.35,1.94,1.35,3.32,0,1.68-1.04,3.68-3.13,6l-4.45,4.96h8.34v1.77Z" fill="#212728"/><path d="m1001.19,648.2c0-.38.11-.69.33-.94s.54-.38.97-.38.76.12.99.38.34.56.34.94-.11.66-.34.9-.55.36-.99.36-.76-.12-.97-.36-.33-.54-.33-.9Z" fill="#212728"/><path d="m1017.49,642.06c0,2.54-.42,4.43-1.27,5.66s-2.16,1.85-3.96,1.85-3.08-.6-3.94-1.81-1.29-3.01-1.32-5.41v-2.89c0-2.51.42-4.37,1.27-5.59s2.17-1.83,3.97-1.83,3.1.59,3.95,1.76c.84,1.18,1.28,2.99,1.3,5.44v2.81Zm-2.11-2.96c0-1.84-.25-3.17-.75-4.01s-1.29-1.26-2.38-1.26-1.87.42-2.36,1.25-.75,2.12-.77,3.86v3.47c0,1.84.26,3.21.78,4.08.52.88,1.31,1.32,2.37,1.32s1.82-.41,2.32-1.24.77-2.13.79-3.91v-3.55Z" fill="#212728"/><circle cx="324.5" cy="464.5" r="7.5" fill="#d12d32"/><circle cx="382.5" cy="406.5" r="7.5" fill="#d12d32"/><circle cx="514.5" cy="144.5" r="7.5" fill="#d12d32"/><circle cx="645.5" cy="86.08" r="7.5" fill="#d12d32"/><circle cx="878.92" cy="318.97" r="7.5" fill="#d12d32"/><circle cx="966.38" cy="318.5" r="7.5" fill="#d12d32"/></svg>