<?xml version="1.0" encoding="UTF-8"?><svg id="a" xmlns="http://www.w3.org/2000/svg" width="570" height="420" xmlns:xlink="http://www.w3.org/1999/xlink" viewBox="0 0 570 420"><defs><clipPath id="b"><rect x="188.8728" y="117.0199" width="192.4414" height="192.4414" fill="none" stroke-width="0"/></clipPath><linearGradient id="c" x1="285" y1="309.1637" x2="285" y2="309.1637" gradientUnits="userSpaceOnUse"><stop offset="0" stop-color="#fff"/><stop offset="1" stop-color="#000"/></linearGradient></defs><path d="m88.7204,12.9895c-24.5777,4.0107-50.7234,10.9792-66.345,30.2028C7.0161,62.0933,5.4799,88.635,8.8933,112.6644c3.4134,24.0293,11.0587,47.5445,11.5365,71.8061.9671,49.1079-27.4039,97.8894-14.9554,145.4327,10.8917,41.5974,51.4319,70.1905,93.5357,80.5057,42.1039,10.3152,86.2401,5.863,129.494,2.6958,81.2814-5.9518,162.9187-7.1283,244.3404-3.5213,43.541,1.9289,86.1081-18.3453,93.2824-64.4295,7.3933-47.4911-16.105-94.6888-17.8215-141.9221-.9325-25.6601,8.0727-50.1444,9.5405-75.8073,1.5626-27.3211,2.615-66.7104-14.2872-89.7993-21.1285-28.8618-52.1841-33.5272-102.53-33.741-81.2971-.3453-107.5822,11.2315-184.6845,12.0295-45.3088.4689-122.8308-10.2335-167.6239-2.9241Z" fill="#f2e7e1" stroke-width="0"/><rect x="188.8728" y="117.0199" width="192.4414" height="192.4414" fill="#a06d4a" stroke-width="0"/><path d="m376.7935,266.9151c-26.2223,1.4967-64.4131.7394-91.0714,1.0575-21.7003-.1888-58.3986.0958-79.6872-.5582-3.795-.1013-7.5896-.276-11.3842-.4993v-.2937c3.7946-.2233,7.5893-.398,11.3839-.4991,37.5633-.8213,87.437-.4704,125.2233-.413,11.3848.0649,22.7712-.0362,34.1517.3848,3.7946.1096,7.5893.2817,11.3839.5273v.2937h0Z" fill="#8a5d40" stroke-width="0"/><path d="m376.7935,288.9288c-26.2223,1.4967-64.4131.7394-91.0714,1.0575-21.7003-.1888-58.3986.0958-79.6872-.5582-3.795-.1013-7.5896-.276-11.3842-.4993,0,0,0-.2937,0-.2937,3.7946-.2233,7.5893-.398,11.3839-.4991,37.5633-.8213,87.437-.4704,125.2233-.413,11.3848.0649,22.7712-.0362,34.1517.3848,3.7946.1096,7.5893.2817,11.3839.5273,0,0,0,.2937,0,.2937h0Z" fill="#8a5d40" stroke-width="0"/><path d="m376.7935,134.8329c-26.2223,1.4967-64.4131.7395-91.0714,1.0575-21.7003-.1888-58.3986.0958-79.6872-.5582-3.795-.1013-7.5896-.276-11.3842-.4993v-.2937c3.7946-.2234,7.5893-.398,11.3839-.4992,37.5633-.8213,87.437-.4704,125.2233-.4129,11.3848.0649,22.7712-.0362,34.1517.3848,3.7946.1096,7.5893.2817,11.3839.5273,0,0,0,.2937,0,.2937h0Z" fill="#8a5d40" stroke-width="0"/><path d="m376.7935,244.9014c-26.2223,1.4967-64.4131.7395-91.0714,1.0575-21.7003-.1888-58.3986.0958-79.6872-.5582-3.795-.1013-7.5896-.276-11.3842-.4993,0,0,0-.2937,0-.2937,3.7946-.2234,7.5893-.398,11.3839-.4992,37.5633-.8213,87.437-.4704,125.2233-.4129,11.3848.0649,22.7712-.0362,34.1517.3848,3.7946.1096,7.5893.2817,11.3839.5273,0,0,0,.2937,0,.2937h0Z" fill="#8a5d40" stroke-width="0"/><path d="m376.7935,222.8877c-26.2223,1.4967-64.4131.7395-91.0714,1.0575-21.7003-.1888-58.3986.0958-79.6872-.5582-3.795-.1013-7.5896-.276-11.3842-.4993,0,0,0-.2937,0-.2937,3.7946-.2234,7.5893-.398,11.3839-.4992,37.5633-.8213,87.437-.4704,125.2233-.4129,11.3848.0649,22.7712-.0362,34.1517.3848,3.7946.1096,7.5893.2817,11.3839.5273,0,0,0,.2937,0,.2937h0Z" fill="#8a5d40" stroke-width="0"/><path d="m376.7935,178.8603c-26.2223,1.4967-64.4131.7395-91.0714,1.0575-21.7003-.1888-58.3986.0958-79.6872-.5582-3.795-.1013-7.5896-.276-11.3842-.4993,0,0,0-.2937,0-.2937,3.7946-.2234,7.5893-.398,11.3839-.4992,37.5633-.8213,87.437-.4704,125.2233-.4129,11.3848.0649,22.7712-.0362,34.1517.3848,3.7946.1096,7.5893.2817,11.3839.5273,0,0,0,.2937,0,.2937h0Z" fill="#8a5d40" stroke-width="0"/><path d="m376.7935,156.8466c-26.2223,1.4967-64.4131.7395-91.0714,1.0575-21.7003-.1888-58.3986.0958-79.6872-.5582-3.795-.1013-7.5896-.276-11.3842-.4993v-.2937c3.7946-.2234,7.5893-.398,11.3839-.4992,37.5633-.8213,87.437-.4704,125.2233-.4129,11.3848.0649,22.7712-.0362,34.1517.3848,3.7946.1096,7.5893.2817,11.3839.5273,0,0,0,.2937,0,.2937h0Z" fill="#8a5d40" stroke-width="0"/><path d="m376.7935,200.874c-26.2223,1.4967-64.4131.7395-91.0714,1.0575-21.7003-.1888-58.3986.0958-79.6872-.5582-3.795-.1013-7.5896-.276-11.3842-.4993,0,0,0-.2937,0-.2937,3.7946-.2234,7.5893-.398,11.3839-.4992,37.5633-.8213,87.437-.4704,125.2233-.4129,11.3848.0649,22.7712-.0362,34.1517.3848,3.7946.1096,7.5893.2817,11.3839.5273,0,0,0,.2937,0,.2937h0Z" fill="#8a5d40" stroke-width="0"/><rect x="188.8728" y="117.0199" width="192.4414" height="21.5825" fill="#845230" stroke-width="0"/><rect x="188.8728" y="287.8788" width="192.4414" height="21.5825" fill="#845230" stroke-width="0"/><rect x="274.3023" y="202.4494" width="192.4414" height="21.5825" transform="translate(583.7636 -157.2823) rotate(90)" fill="#845230" stroke-width="0"/><rect x="103.4434" y="202.4494" width="192.4414" height="21.5825" transform="translate(412.9047 13.5766) rotate(90)" fill="#845230" stroke-width="0"/><rect x="171.3623" y="200.0748" width="232.2116" height="21.5825" transform="translate(639.8436 156.7003) rotate(135)" fill="#845230" stroke-width="0"/><path d="m344.2257,138.4556c3.0907-.9857,6.1814-.8304,9.2721-.9354,3.0907-.0885,6.1814-.1004,9.2721-.1234,3.0907.0257,6.1814.0456,9.2721.1335,3.0907.0806,6.1814.0114,9.2721.9253v.2937c-6.0939,1.4884-12.3568.7938-18.5442,1.0591-3.0907-.0233-6.1814-.0352-9.2721-.1237-3.0907-.105-6.1814.0503-9.2721-.9354,0,0,0-.2937,0-.2937h0Z" fill="#5c3921" stroke-width="0"/><path d="m359.8785,138.6025c1.4964,21.6468.7396,53.2014,1.0575,75.219-.1852,17.921.0927,48.2379-.5582,65.8166-.1013,3.1341-.276,6.2683-.4993,9.4024,0,0-.2937,0-.2937,0-.2233-3.1341-.398-6.2682-.4991-9.4024-.6492-17.4279-.3744-48.0119-.5582-65.8166.0791-13.0893.1138-43.7159.2575-56.4138.1118-6.274.3208-12.5428.7998-18.8051,0,0,.2937,0,.2937,0h0Z" fill="#5c3921" stroke-width="0"/><path d="m225.408,288.4212c-3.0446.9857-6.0892.8304-9.1338.9354-3.0446.0885-6.0892.1004-9.1338.1234-3.0446-.0257-6.0892-.0456-9.1338-.1335-3.0446-.0806-6.0892-.0114-9.1338-.9253v-.2936c6.0252-1.4903,12.1559-.7927,18.2676-1.0591,3.0446.0233,6.0892.0352,9.1338.1237,3.0446.105,6.0892-.0503,9.1338.9354v.2936h0Z" fill="#5c3921" stroke-width="0"/><path d="m210.7786,289.0404c-1.4964-21.6468-.7396-53.2014-1.0575-75.219.1852-17.921-.0928-48.2379.5582-65.8166.1013-3.1341.276-6.2683.4993-9.4024h.2937c.2234,3.1341.398,6.2682.4992,9.4024.6491,17.4279.3745,48.0118.5582,65.8166-.0791,13.0893-.1138,43.7159-.2575,56.4138-.1118,6.274-.3208,12.5429-.7998,18.8051,0,0-.2937,0-.2937,0h0Z" fill="#5c3921" stroke-width="0"/><path d="m212.0995,138.7493c-1.9511.9877-3.9023.8324-5.8534.9354-1.9512.0806-3.9023.1239-5.8534.1243-1.9512-.0005-3.9023-.0579-5.8535-.1344-1.9511-.0801-3.9023-.0109-5.8534-.9253v-.2937c1.9511-.9144,3.9023-.8452,5.8534-.9253,1.9512-.0765,3.9023-.1339,5.8535-.1344,1.9511.0004,3.9023.0437,5.8534.1243,1.9511.103,3.9023-.0523,5.8534.9354v.2937h0Z" fill="#5c3921" stroke-width="0"/><path d="m359.5242,288.1275c1.7552-.9877,3.5105-.8324,5.2657-.9354,1.7552-.0806,3.5105-.124,5.2657-.1243,1.7552.0005,3.5104.0579,5.2657.1344,1.7552.0801,3.5104.0109,5.2657.9253v.2936c-1.7552.9144-3.5105.8452-5.2657.9253-1.7552.0765-3.5105.1339-5.2657.1344-1.7552-.0004-3.5105-.0437-5.2657-.1243-1.7552-.103-3.5105.0523-5.2657-.9354v-.2936h0Z" fill="#5c3921" stroke-width="0"/><circle cx="370.5179" cy="132.4136" r="2.3782" fill="#2f383d" stroke-width="0"/><circle cx="370.5179" cy="123.2088" r="2.3782" fill="#2f383d" stroke-width="0"/><circle cx="200.3926" cy="132.4136" r="2.3782" fill="#2f383d" stroke-width="0"/><circle cx="200.3926" cy="123.2088" r="2.3782" fill="#2f383d" stroke-width="0"/><circle cx="370.5179" cy="304.4341" r="2.3782" fill="#2f383d" stroke-width="0"/><circle cx="370.5179" cy="295.2292" r="2.3782" fill="#2f383d" stroke-width="0"/><circle cx="200.3926" cy="304.4341" r="2.3782" fill="#2f383d" stroke-width="0"/><circle cx="200.3926" cy="295.2292" r="2.3782" fill="#2f383d" stroke-width="0"/><path d="m310.3564,92.312h-2.1797v-14.4492l-4.3711,1.6055v-1.9688l6.2109-2.332h.3398v17.1445Z" stroke-width="0"/><path d="m327.8877,92.312h-11.1797v-1.5586l5.9062-6.5625c.875-.9922,1.4785-1.7988,1.8105-2.4199s.498-1.2637.498-1.9277c0-.8906-.2695-1.6211-.8086-2.1914s-1.2578-.8555-2.1562-.8555c-1.0781,0-1.916.3066-2.5137.9199s-.8965,1.4668-.8965,2.5605h-2.168c0-1.5703.5059-2.8398,1.5176-3.8086s2.3652-1.4531,4.0605-1.4531c1.5859,0,2.8398.416,3.7617,1.248s1.3828,1.9395,1.3828,3.3223c0,1.6797-1.0703,3.6797-3.2109,6l-4.5703,4.957h8.5664v1.7695Z" stroke-width="0"/><path d="m331.1807,83.7573l.8672-8.5078h8.7422v2.0039h-6.9023l-.5156,4.6523c.8359-.4922,1.7852-.7383,2.8477-.7383,1.5547,0,2.7891.5137,3.7031,1.541s1.3711,2.416,1.3711,4.166c0,1.7578-.4746,3.1426-1.4238,4.1543s-2.2754,1.5176-3.9785,1.5176c-1.5078,0-2.7383-.418-3.6914-1.2539s-1.4961-1.9922-1.6289-3.4688h2.0508c.1328.9766.4805,1.7129,1.043,2.209s1.3047.7441,2.2266.7441c1.0078,0,1.7988-.3438,2.373-1.0312s.8613-1.6367.8613-2.8477c0-1.1406-.3105-2.0566-.9316-2.748s-1.4473-1.0371-2.4785-1.0371c-.9453,0-1.6875.207-2.2266.6211l-.5742.4688-1.7344-.4453Z" stroke-width="0"/><path d="m363.2783,92.312h-2.2617l-8.5898-13.1484v13.1484h-2.2617v-17.0625h2.2617l8.6133,13.207v-13.207h2.2383v17.0625Z" stroke-width="0"/><g clip-path="url(#b)"><line x1="285" y1="203.2327" x2="285" y2="58.3985" fill="none" stroke="#fff" stroke-linecap="round" stroke-linejoin="round" stroke-width="6"/><polygon points="302.9508 63.6508 285 32.564 267.0492 63.6508 302.9508 63.6508" fill="#fff" stroke-width="0"/><line x1="285" y1="223.8294" x2="285" y2="368.6636" fill="none" stroke="#fff" stroke-linecap="round" stroke-linejoin="round" stroke-width="6"/><polygon points="267.0492 363.4113 285 394.498 302.9508 363.4112 267.0492 363.4113" fill="#fff" stroke-width="0"/></g><line x1="285" y1="203.2327" x2="285" y2="49.787" fill="none" stroke="#d12d32" stroke-linecap="round" stroke-linejoin="round" stroke-width="4"/><polygon points="296.9672 53.2886 285 32.564 273.0328 53.2886 296.9672 53.2886" fill="#d12d32" stroke-width="0"/><line x1="285" y1="223.8294" x2="285" y2="394.498" fill="url(#c)" stroke-width="0"/><line x1="285" y1="223.8294" x2="285" y2="377.2751" fill="none" stroke="#2a53d3" stroke-linecap="round" stroke-linejoin="round" stroke-width="4"/><polygon points="273.0328 373.7735 285 394.498 296.9672 373.7735 273.0328 373.7735" fill="#2a53d3" stroke-width="0"/><path d="m310.3564,355.4414h-2.1797v-14.4492l-4.3711,1.6055v-1.9688l6.2109-2.332h.3398v17.1445Z" stroke-width="0"/><path d="m323.833,355.4414h-2.1797v-14.4492l-4.3711,1.6055v-1.9688l6.2109-2.332h.3398v17.1445Z" stroke-width="0"/><path d="m341.3643,355.4414h-11.1797v-1.5586l5.9062-6.5625c.875-.9922,1.4785-1.7988,1.8105-2.4199s.498-1.2637.498-1.9277c0-.8906-.2695-1.6211-.8086-2.1914s-1.2578-.8555-2.1562-.8555c-1.0781,0-1.916.3066-2.5137.9199s-.8965,1.4668-.8965,2.5605h-2.168c0-1.5703.5059-2.8398,1.5176-3.8086s2.3652-1.4531,4.0605-1.4531c1.5859,0,2.8398.416,3.7617,1.248s1.3828,1.9395,1.3828,3.3223c0,1.6797-1.0703,3.6797-3.2109,6l-4.5703,4.957h8.5664v1.7695Z" stroke-width="0"/><path d="m363.2783,355.4414h-2.2617l-8.5898-13.1484v13.1484h-2.2617v-17.0625h2.2617l8.6133,13.207v-13.207h2.2383v17.0625Z" stroke-width="0"/></svg>