<?xml version="1.0" encoding="UTF-8"?><svg id="l" xmlns="http://www.w3.org/2000/svg" width="1140" height="715" xmlns:xlink="http://www.w3.org/1999/xlink" viewBox="0 0 1140 715"><defs><linearGradient id="m" x1="282.54" y1="628.78" x2="282.54" y2="628.78" gradientUnits="userSpaceOnUse"><stop offset="0" stop-color="#fff"/><stop offset="1" stop-color="#000"/></linearGradient><linearGradient id="n" x1="370.47" y1="628.78" x2="370.47" y2="628.78" xlink:href="#m"/><linearGradient id="o" x1="458.4" y1="628.78" x2="458.4" y2="628.78" xlink:href="#m"/><linearGradient id="p" x1="546.34" y1="628.78" x2="546.34" y2="628.78" xlink:href="#m"/><linearGradient id="q" x1="634.27" y1="628.78" x2="634.27" y2="628.78" xlink:href="#m"/><linearGradient id="r" x1="722.2" y1="628.78" x2="722.2" y2="628.78" xlink:href="#m"/><linearGradient id="s" x1="810.13" y1="628.78" x2="810.13" y2="628.78" xlink:href="#m"/><linearGradient id="t" x1="898.07" y1="628.78" x2="898.07" y2="628.78" xlink:href="#m"/><linearGradient id="u" x1="986" y1="628.78" x2="986" y2="628.78" xlink:href="#m"/></defs><line x1="192.19" y1="621.73" x2="986" y2="621.73" fill="none" stroke="#b1dded" stroke-miterlimit="10" stroke-width="2"/><line x1="192.19" y1="559.54" x2="986" y2="559.54" fill="none" stroke="#b1dded" stroke-miterlimit="10" stroke-width="2"/><line x1="192.19" y1="497.34" x2="986" y2="497.34" fill="none" stroke="#b1dded" stroke-miterlimit="10" stroke-width="2"/><line x1="192.19" y1="435.15" x2="986" y2="435.15" fill="none" stroke="#b1dded" stroke-miterlimit="10" stroke-width="2"/><line x1="192.19" y1="372.96" x2="986" y2="372.96" fill="none" stroke="#b1dded" stroke-miterlimit="10" stroke-width="2"/><line x1="192.19" y1="310.77" x2="986" y2="310.77" fill="none" stroke="#b1dded" stroke-miterlimit="10" stroke-width="2"/><line x1="192.19" y1="248.58" x2="986" y2="248.58" fill="none" stroke="#b1dded" stroke-miterlimit="10" stroke-width="2"/><line x1="192.19" y1="186.38" x2="986" y2="186.38" fill="none" stroke="#b1dded" stroke-miterlimit="10" stroke-width="2"/><line x1="192.19" y1="124.19" x2="986" y2="124.19" fill="none" stroke="#b1dded" stroke-miterlimit="10" stroke-width="2"/><line x1="192.19" y1="62" x2="986" y2="62" fill="none" stroke="#b1dded" stroke-miterlimit="10" stroke-width="2"/><line x1="192.19" y1="62" x2="192.19" y2="621.63" fill="none" stroke="#b1dded" stroke-miterlimit="10" stroke-width="2"/><line x1="280.39" y1="62.01" x2="280.39" y2="621.64" fill="none" stroke="#b1dded" stroke-miterlimit="10" stroke-width="2"/><line x1="368.59" y1="62.02" x2="368.59" y2="621.65" fill="none" stroke="#b1dded" stroke-miterlimit="10" stroke-width="2"/><line x1="456.79" y1="62.03" x2="456.79" y2="621.66" fill="none" stroke="#b1dded" stroke-miterlimit="10" stroke-width="2"/><line x1="545" y1="62.04" x2="545" y2="621.67" fill="none" stroke="#b1dded" stroke-miterlimit="10" stroke-width="2"/><line x1="633.2" y1="62.05" x2="633.2" y2="621.69" fill="none" stroke="#b1dded" stroke-miterlimit="10" stroke-width="2"/><line x1="721.4" y1="62.06" x2="721.4" y2="621.7" fill="none" stroke="#b1dded" stroke-miterlimit="10" stroke-width="2"/><line x1="809.6" y1="62.08" x2="809.6" y2="621.71" fill="none" stroke="#b1dded" stroke-miterlimit="10" stroke-width="2"/><line x1="897.8" y1="62.09" x2="897.8" y2="621.72" fill="none" stroke="#b1dded" stroke-miterlimit="10" stroke-width="2"/><line x1="986" y1="62.1" x2="986" y2="621.73" fill="none" stroke="#b1dded" stroke-miterlimit="10" stroke-width="2"/><path d="m390.63,23.99v7.01h-4.1V11.09h7.77c1.5,0,2.81.27,3.94.82s2.01,1.32,2.62,2.33.92,2.15.92,3.44c0,1.95-.67,3.49-2,4.61-1.34,1.13-3.18,1.69-5.54,1.69h-3.6Zm0-3.32h3.66c1.08,0,1.91-.25,2.48-.77.57-.51.85-1.24.85-2.19s-.29-1.76-.86-2.37-1.37-.91-2.38-.93h-3.76v6.25Z"/><path d="m403.54,23.47c0-1.47.28-2.78.85-3.92s1.38-2.04,2.44-2.67c1.06-.63,2.29-.94,3.7-.94,2,0,3.62.61,4.89,1.83,1.26,1.22,1.97,2.88,2.11,4.98l.03,1.01c0,2.27-.63,4.09-1.9,5.46s-2.97,2.06-5.1,2.06-3.83-.68-5.11-2.05-1.91-3.23-1.91-5.58v-.18Zm3.95.28c0,1.41.26,2.48.79,3.22.53.74,1.29,1.12,2.27,1.12s1.7-.37,2.24-1.1c.54-.73.81-1.91.81-3.53,0-1.38-.27-2.45-.81-3.2s-1.29-1.14-2.27-1.14-1.71.38-2.24,1.13-.79,1.92-.79,3.5Z"/><path d="m428,26.91c0-.48-.24-.86-.72-1.14s-1.25-.53-2.3-.75c-3.52-.74-5.28-2.23-5.28-4.48,0-1.31.54-2.41,1.63-3.29,1.09-.88,2.51-1.32,4.27-1.32,1.88,0,3.38.44,4.5,1.33,1.12.88,1.69,2.03,1.69,3.45h-3.95c0-.56-.18-1.03-.55-1.4s-.93-.55-1.71-.55c-.67,0-1.18.15-1.54.45s-.55.68-.55,1.15c0,.44.21.79.62,1.06.41.27,1.11.5,2.1.7s1.81.42,2.49.66c2.09.77,3.13,2.09,3.13,3.98,0,1.35-.58,2.44-1.74,3.27s-2.65,1.25-4.48,1.25c-1.24,0-2.34-.22-3.3-.66-.96-.44-1.72-1.05-2.26-1.82s-.82-1.6-.82-2.5h3.75c.04.7.3,1.24.78,1.61.48.37,1.13.56,1.94.56.76,0,1.33-.14,1.72-.43.39-.29.58-.66.58-1.13Z"/><path d="m434.35,12.38c0-.59.2-1.08.59-1.46s.94-.57,1.62-.57,1.21.19,1.61.57.6.87.6,1.46-.2,1.09-.61,1.48c-.41.38-.94.57-1.61.57s-1.2-.19-1.61-.57c-.41-.38-.61-.88-.61-1.48Zm4.2,18.62h-3.96v-14.79h3.96v14.79Z"/><path d="m446.54,12.57v3.64h2.53v2.9h-2.53v7.38c0,.55.1.94.31,1.18.21.24.61.36,1.2.36.44,0,.83-.03,1.16-.1v2.99c-.77.24-1.57.36-2.39.36-2.77,0-4.18-1.4-4.24-4.2v-7.97h-2.16v-2.9h2.16v-3.64h3.95Z"/><path d="m451.24,12.38c0-.59.2-1.08.59-1.46s.94-.57,1.62-.57,1.21.19,1.61.57.6.87.6,1.46-.2,1.09-.61,1.48c-.41.38-.94.57-1.61.57s-1.2-.19-1.61-.57c-.41-.38-.61-.88-.61-1.48Zm4.2,18.62h-3.96v-14.79h3.96v14.79Z"/><path d="m458.08,23.47c0-1.47.28-2.78.85-3.92s1.38-2.04,2.44-2.67c1.06-.63,2.29-.94,3.7-.94,2,0,3.62.61,4.89,1.83,1.26,1.22,1.97,2.88,2.11,4.98l.03,1.01c0,2.27-.63,4.09-1.9,5.46s-2.97,2.06-5.1,2.06-3.83-.68-5.11-2.05-1.91-3.23-1.91-5.58v-.18Zm3.95.28c0,1.41.26,2.48.79,3.22.53.74,1.29,1.12,2.27,1.12s1.7-.37,2.24-1.1c.54-.73.81-1.91.81-3.53,0-1.38-.27-2.45-.81-3.2s-1.29-1.14-2.27-1.14-1.71.38-2.24,1.13-.79,1.92-.79,3.5Z"/><path d="m478.16,16.21l.12,1.71c1.06-1.32,2.47-1.98,4.25-1.98,1.57,0,2.73.46,3.5,1.38.77.92,1.16,2.3,1.18,4.13v9.56h-3.95v-9.46c0-.84-.18-1.45-.55-1.83s-.97-.57-1.82-.57c-1.11,0-1.95.47-2.5,1.42v10.43h-3.95v-14.79h3.72Z"/><path d="m504.86,24.07h-7.7v-3.19h7.7v3.19Z"/><path d="m529.43,14.42h-6.1v16.58h-4.1V14.42h-6.02v-3.32h16.21v3.32Z"/><path d="m531.48,12.38c0-.59.2-1.08.59-1.46s.94-.57,1.62-.57,1.21.19,1.61.57.6.87.6,1.46-.2,1.09-.61,1.48c-.41.38-.94.57-1.61.57s-1.2-.19-1.61-.57c-.41-.38-.61-.88-.61-1.48Zm4.2,18.62h-3.96v-14.79h3.96v14.79Z"/><path d="m542.64,16.21l.12,1.65c1.05-1.29,2.47-1.93,4.25-1.93,1.91,0,3.21.75,3.92,2.26,1.04-1.5,2.52-2.26,4.44-2.26,1.6,0,2.8.47,3.58,1.4s1.18,2.34,1.18,4.22v9.45h-3.96v-9.43c0-.84-.16-1.45-.49-1.84s-.91-.58-1.74-.58c-1.18,0-2,.57-2.46,1.7v10.16s-3.94,0-3.94,0v-9.42c0-.86-.17-1.48-.51-1.86s-.91-.57-1.72-.57c-1.12,0-1.93.46-2.43,1.39v10.46h-3.95v-14.79h3.71Z"/><path d="m569.98,31.27c-2.17,0-3.94-.67-5.3-2-1.36-1.33-2.04-3.1-2.04-5.32v-.38c0-1.49.29-2.81.86-3.99s1.39-2.07,2.44-2.71,2.25-.95,3.6-.95c2.02,0,3.62.64,4.78,1.91,1.16,1.28,1.74,3.09,1.74,5.43v1.61h-9.42c.13.97.51,1.74,1.16,2.32.64.58,1.46.88,2.44.88,1.52,0,2.71-.55,3.57-1.65l1.94,2.17c-.59.84-1.39,1.49-2.41,1.96s-2.13.7-3.36.7Zm-.45-12.15c-.78,0-1.42.27-1.91.8-.49.53-.8,1.29-.94,2.28h5.5v-.32c-.02-.88-.25-1.56-.71-2.04s-1.1-.72-1.94-.72Z"/><path d="m601.29,28.48c-.74.88-1.78,1.57-3.13,2.06s-2.84.73-4.48.73c-1.72,0-3.23-.38-4.53-1.13s-2.3-1.84-3.01-3.27c-.71-1.43-1.07-3.11-1.09-5.04v-1.35c0-1.99.33-3.71,1-5.16s1.64-2.57,2.9-3.34c1.26-.77,2.74-1.16,4.44-1.16,2.36,0,4.21.56,5.54,1.69s2.12,2.76,2.37,4.92h-3.99c-.18-1.14-.59-1.97-1.21-2.5-.62-.53-1.48-.79-2.58-.79-1.39,0-2.46.52-3.19,1.57-.73,1.05-1.1,2.61-1.11,4.68v1.27c0,2.09.4,3.66,1.19,4.73s1.96,1.6,3.49,1.6,2.64-.33,3.29-.98v-3.43h-3.73v-3.02h7.83v7.94Z"/><path d="m612.66,19.91c-.54-.07-1.01-.11-1.42-.11-1.5,0-2.47.51-2.94,1.52v9.68h-3.95v-14.79h3.73l.11,1.76c.79-1.36,1.89-2.04,3.29-2.04.44,0,.85.06,1.23.18l-.05,3.8Z"/><path d="m622.73,31c-.18-.36-.31-.8-.4-1.33-.96,1.07-2.2,1.6-3.73,1.6-1.45,0-2.65-.42-3.6-1.26-.95-.84-1.43-1.9-1.43-3.17,0-1.57.58-2.77,1.74-3.61,1.16-.84,2.84-1.26,5.04-1.27h1.82v-.85c0-.68-.18-1.23-.53-1.64-.35-.41-.9-.62-1.66-.62-.67,0-1.19.16-1.57.48-.38.32-.57.76-.57,1.31h-3.95c0-.86.26-1.65.79-2.38.53-.73,1.28-1.3,2.24-1.72s2.05-.62,3.25-.62c1.82,0,3.27.46,4.34,1.37,1.07.92,1.61,2.2,1.61,3.86v6.41c0,1.4.21,2.47.59,3.19v.23h-3.99Zm-3.27-2.75c.58,0,1.12-.13,1.61-.39s.86-.61,1.09-1.05v-2.54h-1.48c-1.98,0-3.03.68-3.16,2.05v.23c-.01.49.16.9.51,1.22.35.32.82.48,1.42.48Z"/><path d="m642.48,23.74c0,2.28-.52,4.1-1.55,5.48-1.04,1.37-2.43,2.06-4.19,2.06-1.5,0-2.7-.52-3.62-1.56v6.97h-3.95v-20.48h3.66l.14,1.45c.96-1.15,2.21-1.72,3.75-1.72,1.82,0,3.24.67,4.25,2.02,1.01,1.35,1.52,3.21,1.52,5.58v.21Zm-3.95-.29c0-1.38-.24-2.44-.73-3.19-.49-.75-1.2-1.12-2.13-1.12-1.24,0-2.09.47-2.56,1.42v6.06c.48.98,1.34,1.46,2.58,1.46,1.89,0,2.83-1.54,2.83-4.63Z"/><path d="m648.78,17.82c1.05-1.26,2.37-1.89,3.95-1.89,3.21,0,4.83,1.86,4.88,5.59v9.47h-3.95v-9.37c0-.85-.18-1.47-.55-1.88s-.97-.61-1.82-.61c-1.16,0-2,.45-2.52,1.34v10.51h-3.95V10h3.95v7.82Z"/><path d="m668.65,31v-11.89h-2.2v-2.9h2.2v-1.26c0-1.66.48-2.95,1.43-3.86.95-.92,2.29-1.37,4-1.37.55,0,1.22.09,2.01.27l-.04,3.06c-.33-.08-.73-.12-1.2-.12-1.49,0-2.23.7-2.23,2.09v1.19h2.94v2.9h-2.94v11.89h-3.96Z"/><path d="m676.99,23.47c0-1.47.28-2.78.85-3.92s1.38-2.04,2.44-2.67c1.06-.63,2.29-.94,3.7-.94,2,0,3.62.61,4.89,1.83,1.26,1.22,1.97,2.88,2.11,4.98l.03,1.01c0,2.27-.63,4.09-1.9,5.46s-2.97,2.06-5.1,2.06-3.83-.68-5.11-2.05-1.91-3.23-1.91-5.58v-.18Zm3.95.28c0,1.41.26,2.48.79,3.22.53.74,1.29,1.12,2.27,1.12s1.7-.37,2.24-1.1c.54-.73.81-1.91.81-3.53,0-1.38-.27-2.45-.81-3.2s-1.29-1.14-2.27-1.14-1.71.38-2.24,1.13-.79,1.92-.79,3.5Z"/><path d="m701.75,19.91c-.54-.07-1.01-.11-1.42-.11-1.5,0-2.47.51-2.94,1.52v9.68h-3.95v-14.79h3.73l.11,1.76c.79-1.36,1.89-2.04,3.29-2.04.44,0,.85.06,1.23.18l-.05,3.8Z"/><path d="m719.19,31c-.18-.36-.31-.8-.4-1.33-.96,1.07-2.2,1.6-3.73,1.6-1.45,0-2.65-.42-3.6-1.26-.95-.84-1.43-1.9-1.43-3.17,0-1.57.58-2.77,1.74-3.61,1.16-.84,2.84-1.26,5.04-1.27h1.82v-.85c0-.68-.18-1.23-.53-1.64-.35-.41-.9-.62-1.66-.62-.67,0-1.19.16-1.57.48-.38.32-.57.76-.57,1.31h-3.95c0-.86.26-1.65.79-2.38.53-.73,1.28-1.3,2.24-1.72s2.05-.62,3.25-.62c1.82,0,3.27.46,4.34,1.37,1.07.92,1.61,2.2,1.61,3.86v6.41c0,1.4.21,2.47.59,3.19v.23h-3.99Zm-3.27-2.75c.58,0,1.12-.13,1.61-.39s.86-.61,1.09-1.05v-2.54h-1.48c-1.98,0-3.03.68-3.16,2.05v.23c-.01.49.16.9.51,1.22.35.32.82.48,1.42.48Z"/><path d="m740.24,23.71h-3.27v7.29h-4.1V11.09h7.4c2.35,0,4.17.52,5.44,1.57,1.28,1.05,1.91,2.53,1.91,4.44,0,1.36-.29,2.49-.88,3.4s-1.48,1.63-2.67,2.17l4.31,8.13v.19h-4.4l-3.73-7.29Zm-3.27-3.32h3.31c1.03,0,1.83-.26,2.39-.79s.85-1.25.85-2.17-.27-1.68-.8-2.21c-.53-.54-1.35-.81-2.45-.81h-3.29v5.97Z"/><path d="m759.33,29.5c-.98,1.19-2.32,1.78-4.05,1.78-1.59,0-2.8-.46-3.63-1.37-.83-.91-1.26-2.25-1.28-4.01v-9.69h3.95v9.57c0,1.54.7,2.31,2.11,2.31s2.26-.46,2.76-1.4v-10.48h3.96v14.79h-3.72l-.11-1.5Z"/><path d="m769.78,16.21l.12,1.71c1.06-1.32,2.47-1.98,4.25-1.98,1.57,0,2.73.46,3.5,1.38.77.92,1.16,2.3,1.18,4.13v9.56h-3.95v-9.46c0-.84-.18-1.45-.55-1.83s-.97-.57-1.82-.57c-1.11,0-1.95.47-2.5,1.42v10.43h-3.95v-14.79h3.72Z"/><path d="m785.46,16.21l.12,1.71c1.06-1.32,2.47-1.98,4.25-1.98,1.57,0,2.73.46,3.5,1.38.77.92,1.16,2.3,1.18,4.13v9.56h-3.95v-9.46c0-.84-.18-1.45-.55-1.83s-.97-.57-1.82-.57c-1.11,0-1.95.47-2.5,1.42v10.43h-3.95v-14.79h3.72Z"/><path d="m804.32,31.27c-2.17,0-3.94-.67-5.3-2-1.36-1.33-2.04-3.1-2.04-5.32v-.38c0-1.49.29-2.81.86-3.99s1.39-2.07,2.44-2.71,2.25-.95,3.6-.95c2.02,0,3.62.64,4.78,1.91,1.16,1.28,1.74,3.09,1.74,5.43v1.61h-9.42c.13.97.51,1.74,1.16,2.32.64.58,1.46.88,2.44.88,1.52,0,2.71-.55,3.57-1.65l1.94,2.17c-.59.84-1.39,1.49-2.41,1.96s-2.13.7-3.36.7Zm-.45-12.15c-.78,0-1.42.27-1.91.8-.49.53-.8,1.29-.94,2.28h5.5v-.32c-.02-.88-.25-1.56-.71-2.04s-1.1-.72-1.94-.72Z"/><path d="m820.95,19.91c-.54-.07-1.01-.11-1.42-.11-1.5,0-2.47.51-2.94,1.52v9.68h-3.95v-14.79h3.73l.11,1.76c.79-1.36,1.89-2.04,3.29-2.04.44,0,.85.06,1.23.18l-.05,3.8Z"/><path d="m575.4,693.25h-5.23v14.21h-3.52v-14.21h-5.16v-2.85h13.9v2.85Z"/><path d="m577.16,691.5c0-.51.17-.93.51-1.25s.8-.49,1.39-.49,1.04.16,1.38.49.52.75.52,1.25-.17.94-.52,1.27-.81.49-1.38.49-1.03-.16-1.38-.49-.52-.75-.52-1.27Zm3.6,15.96h-3.4v-12.68h3.4v12.68Z"/><path d="m586.72,694.78l.11,1.42c.9-1.1,2.11-1.65,3.64-1.65,1.63,0,2.75.64,3.36,1.93.89-1.29,2.16-1.93,3.81-1.93,1.38,0,2.4.4,3.07,1.2s1.01,2.01,1.01,3.62v8.1h-3.4v-8.09c0-.72-.14-1.24-.42-1.58s-.78-.5-1.49-.5c-1.02,0-1.72.48-2.11,1.45v8.71s-3.38,0-3.38,0v-8.07c0-.73-.14-1.27-.43-1.59s-.78-.49-1.48-.49c-.96,0-1.66.4-2.09,1.2v8.96h-3.39v-12.68h3.18Z"/><path d="m610.16,707.7c-1.86,0-3.37-.57-4.54-1.71s-1.75-2.66-1.75-4.56v-.33c0-1.27.25-2.41.74-3.42s1.19-1.78,2.09-2.32,1.93-.81,3.09-.81c1.73,0,3.1.55,4.1,1.64s1.49,2.64,1.49,4.65v1.38h-8.07c.11.83.44,1.49.99,1.99s1.25.75,2.09.75c1.3,0,2.32-.47,3.06-1.42l1.66,1.86c-.51.72-1.2,1.28-2.06,1.68s-1.83.6-2.88.6Zm-.39-10.42c-.67,0-1.22.23-1.63.68s-.69,1.11-.8,1.95h4.71v-.27c-.02-.75-.22-1.34-.61-1.75s-.95-.62-1.66-.62Z"/><path d="m623.42,700.53c0-1.79.24-3.49.71-5.11s1.18-3.05,2.11-4.29,1.94-2.11,3.02-2.6l.66,1.83c-1.14.84-2.03,2.15-2.67,3.91s-.96,3.83-.96,6.19v.36c0,2.37.32,4.44.95,6.21s1.53,3.1,2.68,3.97l-.66,1.79c-1.06-.48-2.05-1.32-2.97-2.53s-1.62-2.6-2.1-4.18-.74-3.23-.77-4.95v-.62Z"/><path d="m638.56,703.96c0-.41-.21-.74-.62-.98s-1.07-.45-1.97-.64c-3.02-.63-4.52-1.91-4.52-3.84,0-1.12.47-2.06,1.4-2.82s2.15-1.13,3.66-1.13c1.61,0,2.9.38,3.86,1.14s1.45,1.74,1.45,2.95h-3.39c0-.48-.16-.88-.47-1.2s-.8-.47-1.46-.47c-.57,0-1.01.13-1.32.39s-.47.59-.47.98c0,.38.18.68.53.91s.96.43,1.8.6,1.55.36,2.13.57c1.79.66,2.68,1.79,2.68,3.41,0,1.16-.5,2.09-1.49,2.81s-2.27,1.07-3.84,1.07c-1.06,0-2.01-.19-2.83-.57s-1.47-.9-1.94-1.56-.7-1.37-.7-2.14h3.21c.03.6.25,1.06.67,1.38s.97.48,1.66.48c.65,0,1.14-.12,1.47-.37s.5-.57.5-.97Z"/><path d="m649.87,700.8c0,1.77-.25,3.46-.76,5.1s-1.24,3.07-2.19,4.32-1.97,2.11-3.06,2.58l-.66-1.79c1.11-.84,1.98-2.12,2.62-3.87s.97-3.75,1-6.01v-.62c0-2.34-.32-4.39-.96-6.18s-1.53-3.12-2.67-4.01l.66-1.79c1.06.46,2.06,1.3,3.01,2.51s1.67,2.62,2.19,4.23.79,3.28.81,5v.53Z"/><path d="m92.4,414.72h-17.06v-5.25c0-1.5.34-2.84,1.01-4.03s1.64-2.11,2.88-2.77,2.66-1,4.25-1h.79c1.59,0,3,.33,4.23.98s2.19,1.57,2.87,2.76,1.02,2.53,1.03,4.02v5.29Zm-14.21-3.52h11.39v-1.7c0-1.38-.45-2.43-1.35-3.15s-2.18-1.1-3.86-1.11h-.9c-1.73,0-3.05.36-3.94,1.08s-1.34,1.77-1.34,3.15v1.73Z"/><path d="m76.44,399.37c-.51,0-.93-.17-1.25-.51s-.49-.8-.49-1.39.16-1.04.49-1.38.75-.52,1.25-.52.94.17,1.27.52.49.81.49,1.38-.16,1.03-.49,1.38-.75.52-1.27.52Zm15.96-3.6v3.4h-12.68v-3.4h12.68Z"/><path d="m88.9,386.11c-.41,0-.74.21-.98.62s-.45,1.07-.64,1.97c-.63,3.02-1.91,4.52-3.84,4.52-1.12,0-2.06-.47-2.82-1.4s-1.13-2.15-1.13-3.66c0-1.61.38-2.9,1.14-3.86s1.74-1.45,2.95-1.45v3.39c-.48,0-.88.16-1.2.47s-.47.8-.47,1.46c0,.57.13,1.01.39,1.32s.59.47.98.47c.38,0,.68-.18.91-.53s.43-.96.6-1.8.36-1.55.57-2.13c.66-1.79,1.79-2.68,3.41-2.68,1.16,0,2.09.5,2.81,1.49s1.07,2.27,1.07,3.84c0,1.06-.19,2.01-.57,2.83s-.9,1.47-1.56,1.94-1.37.7-2.14.7v-3.21c.6-.03,1.06-.25,1.38-.67s.48-.97.48-1.66c0-.65-.12-1.14-.37-1.47s-.57-.5-.97-.5Z"/><path d="m76.61,376.59h3.12v-2.17h2.48v2.17h6.33c.47,0,.8-.09,1.01-.27s.3-.52.3-1.03c0-.38-.03-.71-.08-1h2.57c.2.66.3,1.35.3,2.05,0,2.38-1.2,3.59-3.6,3.63h-6.83v1.85h-2.48v-1.85h-3.12v-3.39Z"/><path d="m92.4,365.18c-.3.16-.68.27-1.14.34.91.82,1.37,1.89,1.37,3.2,0,1.24-.36,2.27-1.08,3.09s-1.62,1.22-2.72,1.22c-1.34,0-2.38-.5-3.09-1.49s-1.08-2.44-1.09-4.32v-1.56h-.73c-.59,0-1.05.15-1.41.45s-.53.78-.53,1.42c0,.57.14,1.02.41,1.34s.65.49,1.12.49v3.39c-.73,0-1.41-.23-2.04-.68s-1.12-1.09-1.47-1.92-.53-1.76-.53-2.79c0-1.56.39-2.8,1.18-3.72s1.89-1.38,3.31-1.38h5.5c1.2,0,2.11-.18,2.73-.5h.2v3.42Zm-2.36,2.8c0-.5-.11-.96-.33-1.38s-.52-.73-.9-.94h-2.18v1.27c0,1.7.59,2.6,1.76,2.71h.2c.42.01.77-.14,1.04-.43s.41-.7.41-1.22Z"/><path d="m79.72,356.55l1.46-.11c-1.13-.91-1.7-2.12-1.7-3.64,0-1.34.39-2.34,1.18-3s1.97-.99,3.54-1.01h8.19v3.39h-8.11c-.72,0-1.24.16-1.56.47s-.49.83-.49,1.56c0,.95.41,1.67,1.22,2.14h8.94v3.39h-12.68v-3.19Z"/><path d="m89.91,340.95c0-.62-.17-1.13-.52-1.52s-.8-.59-1.37-.61v-3.18c.86,0,1.65.24,2.36.7s1.27,1.09,1.66,1.89.59,1.69.59,2.65c0,1.81-.58,3.24-1.73,4.29s-2.74,1.57-4.78,1.57h-.22c-1.95,0-3.51-.52-4.68-1.56s-1.75-2.46-1.75-4.28c0-1.59.45-2.86,1.35-3.81s2.1-1.44,3.6-1.46v3.18c-.66.02-1.2.22-1.61.61-.41.39-.62.91-.62,1.55,0,.79.29,1.38.86,1.79.58.4,1.51.6,2.8.6h.35c1.31,0,2.25-.2,2.82-.6.57-.4.86-1,.86-1.82Z"/><path d="m92.64,327.87c0,1.86-.57,3.37-1.71,4.54s-2.66,1.75-4.56,1.75h-.33c-1.27,0-2.41-.25-3.42-.74s-1.78-1.19-2.32-2.09-.81-1.93-.81-3.09c0-1.73.55-3.1,1.64-4.1s2.64-1.49,4.65-1.49h1.38v8.07c.83-.11,1.49-.44,1.99-.99s.75-1.25.75-2.09c0-1.3-.47-2.32-1.42-3.06l1.86-1.66c.72.51,1.28,1.2,1.68,2.06s.6,1.83.6,2.88Zm-10.42.39c0,.67.23,1.22.68,1.63s1.11.69,1.96.8v-4.71h-.27c-.75.02-1.34.22-1.75.61s-.62.95-.62,1.66Z"/><path d="m85.47,314.61c-1.79,0-3.49-.24-5.11-.71s-3.05-1.18-4.29-2.11-2.11-1.94-2.6-3.02l1.83-.66c.84,1.14,2.15,2.03,3.91,2.67s3.83.96,6.19.96h.36c2.37,0,4.44-.32,6.21-.95s3.1-1.53,3.97-2.68l1.79.66c-.48,1.06-1.32,2.05-2.53,2.97s-2.6,1.62-4.18,2.1-3.23.74-4.95.77h-.62Z"/><path d="m79.72,303.16l1.42-.11c-1.1-.9-1.65-2.11-1.65-3.64,0-1.63.64-2.75,1.93-3.36-1.29-.89-1.93-2.16-1.93-3.81,0-1.38.4-2.4,1.2-3.07s2.01-1.01,3.62-1.01h8.1v3.4h-8.09c-.72,0-1.24.14-1.58.42s-.5.78-.5,1.49c0,1.02.48,1.72,1.45,2.11h8.71s0,3.38,0,3.38h-8.07c-.73,0-1.27.14-1.59.43s-.49.78-.49,1.48c0,.96.4,1.66,1.2,2.09h8.96v3.39h-12.68v-3.18Z"/><path d="m85.74,279.72c1.77,0,3.46.25,5.1.76s3.07,1.24,4.32,2.19,2.11,1.97,2.58,3.06l-1.79.66c-.84-1.11-2.12-1.98-3.87-2.62s-3.75-.97-6.01-1h-.62c-2.34,0-4.39.32-6.18.96s-3.12,1.53-4.01,2.67l-1.79-.66c.46-1.06,1.3-2.06,2.51-3.01s2.62-1.67,4.23-2.19,3.28-.79,5-.81h.53Z"/><line x1="457.37" y1="622.01" x2="964" y2="109" fill="none" stroke="#d12d32" stroke-miterlimit="10" stroke-width="2"/><path d="m192.43,620.63s289.55-32.19,486.48-225.38c196.93-193.18,218.74-271.24,218.74-271.24" fill="none" stroke="#0077a2" stroke-miterlimit="10" stroke-width="2"/><line x1="192.2" y1="61" x2="192.2" y2="622.75" fill="none" stroke="#000" stroke-miterlimit="10" stroke-width="2"/><line x1="987" y1="621.79" x2="192" y2="621.79" fill="none" stroke="#000" stroke-miterlimit="10" stroke-width="2"/><line x1="282.54" y1="622.01" x2="282.54" y2="635.54" fill="url(#m)" stroke="#000" stroke-miterlimit="10" stroke-width="2"/><line x1="370.47" y1="622.01" x2="370.47" y2="635.54" fill="url(#n)" stroke="#000" stroke-miterlimit="10" stroke-width="2"/><line x1="458.4" y1="622.01" x2="458.4" y2="635.54" fill="url(#o)" stroke="#000" stroke-miterlimit="10" stroke-width="2"/><line x1="546.34" y1="622.01" x2="546.34" y2="635.54" fill="url(#p)" stroke="#000" stroke-miterlimit="10" stroke-width="2"/><line x1="634.27" y1="622.01" x2="634.27" y2="635.54" fill="url(#q)" stroke="#000" stroke-miterlimit="10" stroke-width="2"/><line x1="722.2" y1="622.01" x2="722.2" y2="635.54" fill="url(#r)" stroke="#000" stroke-miterlimit="10" stroke-width="2"/><line x1="810.13" y1="622.01" x2="810.13" y2="635.54" fill="url(#s)" stroke="#000" stroke-miterlimit="10" stroke-width="2"/><line x1="898.07" y1="622.01" x2="898.07" y2="635.54" fill="url(#t)" stroke="#000" stroke-miterlimit="10" stroke-width="2"/><line x1="986" y1="622.01" x2="986" y2="635.54" fill="url(#u)" stroke="#000" stroke-miterlimit="10" stroke-width="2"/><line x1="178.48" y1="559.67" x2="192" y2="559.67" fill="none" stroke="#000" stroke-miterlimit="10" stroke-width="2"/><line x1="178.48" y1="497.46" x2="192" y2="497.46" fill="none" stroke="#000" stroke-miterlimit="10" stroke-width="2"/><line x1="178.48" y1="435.25" x2="192" y2="435.25" fill="none" stroke="#000" stroke-miterlimit="10" stroke-width="2"/><line x1="178.48" y1="373.04" x2="192" y2="373.04" fill="none" stroke="#000" stroke-miterlimit="10" stroke-width="2"/><line x1="178.48" y1="310.84" x2="192" y2="310.84" fill="none" stroke="#000" stroke-miterlimit="10" stroke-width="2"/><line x1="178.48" y1="248.63" x2="192" y2="248.63" fill="none" stroke="#000" stroke-miterlimit="10" stroke-width="2"/><line x1="178.48" y1="186.42" x2="192" y2="186.42" fill="none" stroke="#000" stroke-miterlimit="10" stroke-width="2"/><line x1="178.48" y1="124.21" x2="192" y2="124.21" fill="none" stroke="#000" stroke-miterlimit="10" stroke-width="2"/><line x1="178.48" y1="62" x2="192" y2="62" fill="none" stroke="#000" stroke-miterlimit="10" stroke-width="2"/><path d="m148.07,70.42h-2.12v-14.45l-4.25,1.61v-1.97l6.05-2.33h.33v17.14Z" fill="#212728"/><path d="m164.32,57.81c0,.85-.22,1.61-.66,2.27s-1.03,1.18-1.77,1.56c.87.38,1.55.94,2.06,1.68s.76,1.57.76,2.5c0,1.48-.48,2.65-1.45,3.53s-2.25,1.31-3.83,1.31-2.88-.44-3.84-1.32-1.44-2.05-1.44-3.52c0-.92.25-1.75.74-2.5.49-.74,1.17-1.3,2.04-1.69-.74-.38-1.32-.89-1.75-1.56-.43-.66-.64-1.42-.64-2.26,0-1.44.45-2.58,1.35-3.42s2.08-1.27,3.55-1.27,2.64.42,3.54,1.27,1.35,1.98,1.35,3.42Zm-1.72,7.96c0-.95-.29-1.73-.88-2.33-.59-.6-1.36-.9-2.31-.9s-1.71.3-2.29.89-.86,1.38-.86,2.34.28,1.73.84,2.29,1.34.83,2.33.83,1.76-.28,2.33-.84c.56-.56.84-1.32.84-2.28Zm-3.17-10.86c-.83,0-1.5.26-2.01.79s-.77,1.24-.77,2.15.25,1.57.76,2.1,1.18.8,2.03.8,1.52-.27,2.02-.8.76-1.24.76-2.1-.26-1.57-.79-2.12-1.19-.82-2-.82Z" fill="#212728"/><path d="m148.07,132.42h-2.12v-14.45l-4.25,1.61v-1.97l6.05-2.33h.33v17.14Z" fill="#212728"/><path d="m162.53,115.34v1.84h-.39c-1.64.03-2.95.53-3.92,1.5-.97.97-1.54,2.33-1.69,4.09.87-1.03,2.07-1.55,3.58-1.55s2.6.52,3.46,1.57,1.29,2.4,1.29,4.05c0,1.76-.47,3.16-1.4,4.22s-2.18,1.58-3.75,1.58-2.88-.63-3.87-1.88c-.99-1.25-1.48-2.87-1.48-4.85v-.83c0-3.14.65-5.54,1.96-7.2,1.3-1.66,3.25-2.51,5.82-2.55h.38Zm-2.77,7.69c-.72,0-1.39.22-2,.67s-1.03,1-1.27,1.68v.8c0,1.41.31,2.54.92,3.4s1.38,1.29,2.3,1.29,1.7-.36,2.24-1.08.82-1.66.82-2.82-.28-2.12-.83-2.84-1.28-1.08-2.2-1.08Z" fill="#212728"/><path d="m148.07,194.42h-2.12v-14.45l-4.25,1.61v-1.97l6.05-2.33h.33v17.14Z" fill="#212728"/><path d="m163.16,188.69h2.3v1.77h-2.3v3.96h-2.12v-3.96h-7.56v-1.28l7.44-11.82h2.25v11.33Zm-7.29,0h5.17v-8.37l-.25.47-4.92,7.9Z" fill="#212728"/><path d="m148.07,256.42h-2.12v-14.45l-4.25,1.61v-1.97l6.05-2.33h.33v17.14Z" fill="#212728"/><path d="m165.13,256.42h-10.88v-1.56l5.75-6.56c.85-.99,1.44-1.8,1.76-2.42.32-.62.48-1.26.48-1.93,0-.89-.26-1.62-.79-2.19s-1.22-.86-2.1-.86c-1.05,0-1.87.31-2.45.92s-.87,1.47-.87,2.56h-2.11c0-1.57.49-2.84,1.48-3.81s2.3-1.45,3.95-1.45c1.54,0,2.76.42,3.66,1.25s1.35,1.94,1.35,3.32c0,1.68-1.04,3.68-3.13,6l-4.45,4.96h8.34v1.77Z" fill="#212728"/><path d="m148.07,318.41h-2.12v-14.45l-4.25,1.61v-1.97l6.05-2.33h.33v17.14Z" fill="#212728"/><path d="m164.66,311.14c0,2.54-.42,4.43-1.27,5.66-.84,1.23-2.16,1.85-3.96,1.85s-3.08-.6-3.94-1.81-1.29-3.01-1.32-5.41v-2.89c0-2.51.42-4.37,1.27-5.59s2.17-1.83,3.97-1.83,3.1.59,3.95,1.76c.84,1.18,1.28,2.99,1.3,5.44v2.81Zm-2.11-2.96c0-1.84-.25-3.17-.75-4.01s-1.3-1.26-2.38-1.26-1.87.42-2.36,1.25-.75,2.12-.76,3.86v3.47c0,1.84.26,3.21.78,4.08.52.88,1.31,1.32,2.37,1.32s1.82-.41,2.32-1.24c.5-.83.77-2.13.79-3.91v-3.55Z" fill="#212728"/><path d="m164.32,367.8c0,.85-.22,1.61-.66,2.27s-1.03,1.18-1.77,1.56c.87.38,1.55.94,2.06,1.68s.76,1.57.76,2.5c0,1.48-.48,2.65-1.45,3.53s-2.25,1.31-3.83,1.31-2.88-.44-3.84-1.32-1.44-2.05-1.44-3.52c0-.92.25-1.75.74-2.5.49-.74,1.17-1.3,2.04-1.69-.74-.38-1.32-.89-1.75-1.56-.43-.66-.64-1.42-.64-2.26,0-1.44.45-2.58,1.35-3.42s2.08-1.27,3.55-1.27,2.64.42,3.54,1.27,1.35,1.98,1.35,3.42Zm-1.72,7.96c0-.95-.29-1.73-.88-2.33-.59-.6-1.36-.9-2.31-.9s-1.71.3-2.29.89-.86,1.38-.86,2.34.28,1.73.84,2.29,1.34.83,2.33.83,1.76-.28,2.33-.84c.56-.56.84-1.32.84-2.28Zm-3.17-10.86c-.83,0-1.5.26-2.01.79s-.77,1.24-.77,2.15.25,1.57.76,2.1,1.18.8,2.03.8,1.52-.27,2.02-.8.76-1.24.76-2.1-.26-1.57-.79-2.12-1.19-.82-2-.82Z" fill="#212728"/><path d="m162.53,425.34v1.84h-.39c-1.64.03-2.95.53-3.92,1.5-.97.97-1.54,2.33-1.69,4.09.87-1.03,2.07-1.55,3.58-1.55s2.6.52,3.46,1.57,1.29,2.4,1.29,4.05c0,1.76-.47,3.16-1.4,4.22s-2.18,1.58-3.75,1.58-2.88-.63-3.87-1.88c-.99-1.25-1.48-2.87-1.48-4.85v-.83c0-3.14.65-5.54,1.96-7.2,1.3-1.66,3.25-2.51,5.82-2.55h.38Zm-2.77,7.69c-.72,0-1.39.22-2,.67s-1.03,1-1.27,1.68v.8c0,1.41.31,2.54.92,3.4s1.38,1.29,2.3,1.29,1.7-.36,2.24-1.08.82-1.66.82-2.82-.28-2.12-.83-2.84-1.28-1.08-2.2-1.08Z" fill="#212728"/><path d="m163.16,498.68h2.3v1.77h-2.3v3.96h-2.12v-3.96h-7.56v-1.28l7.44-11.82h2.25v11.33Zm-7.29,0h5.17v-8.37l-.25.47-4.92,7.9Z" fill="#212728"/><path d="m165.13,566.41h-10.88v-1.56l5.75-6.56c.85-.99,1.44-1.8,1.76-2.42.32-.62.48-1.26.48-1.93,0-.89-.26-1.62-.79-2.19s-1.22-.86-2.1-.86c-1.05,0-1.87.31-2.45.92s-.87,1.47-.87,2.56h-2.11c0-1.57.49-2.84,1.48-3.81s2.3-1.45,3.95-1.45c1.54,0,2.76.42,3.66,1.25s1.35,1.94,1.35,3.32c0,1.68-1.04,3.68-3.13,6l-4.45,4.96h8.34v1.77Z" fill="#212728"/><path d="m164.66,621.13c0,2.54-.42,4.43-1.27,5.66-.84,1.23-2.16,1.85-3.96,1.85s-3.08-.6-3.94-1.81-1.29-3.01-1.32-5.41v-2.89c0-2.51.42-4.37,1.27-5.59s2.17-1.83,3.97-1.83,3.1.59,3.95,1.76c.84,1.18,1.28,2.99,1.3,5.44v2.81Zm-2.11-2.96c0-1.84-.25-3.17-.75-4.01s-1.3-1.26-2.38-1.26-1.87.42-2.36,1.25-.75,2.12-.76,3.86v3.47c0,1.84.26,3.21.78,4.08.52.88,1.31,1.32,2.37,1.32s1.82-.41,2.32-1.24c.5-.83.77-2.13.79-3.91v-3.55Z" fill="#212728"/><path d="m276.99,654.06c0,2.54-.42,4.43-1.27,5.66-.84,1.23-2.16,1.85-3.96,1.85s-3.08-.6-3.94-1.81-1.29-3.01-1.32-5.41v-2.89c0-2.51.42-4.37,1.27-5.59s2.17-1.83,3.97-1.83,3.1.59,3.95,1.76c.84,1.18,1.28,2.99,1.3,5.44v2.81Zm-2.11-2.96c0-1.84-.25-3.17-.75-4.01s-1.3-1.26-2.38-1.26-1.87.42-2.36,1.25-.75,2.12-.76,3.86v3.47c0,1.84.26,3.21.78,4.08.52.88,1.31,1.32,2.37,1.32s1.82-.41,2.32-1.24c.5-.83.77-2.13.79-3.91v-3.55Z" fill="#212728"/><path d="m279.96,660.2c0-.38.11-.69.33-.94s.54-.38.98-.38.76.12.99.38.34.56.34.94-.11.66-.34.9-.55.36-.99.36-.76-.12-.98-.36-.33-.54-.33-.9Z" fill="#212728"/><path d="m286.82,652.78l.84-8.51h8.51v2h-6.72l-.5,4.65c.81-.49,1.74-.74,2.77-.74,1.51,0,2.71.51,3.61,1.54.89,1.03,1.33,2.42,1.33,4.17s-.46,3.14-1.39,4.15-2.21,1.52-3.87,1.52c-1.47,0-2.67-.42-3.59-1.25-.93-.84-1.46-1.99-1.59-3.47h2c.13.98.47,1.71,1.02,2.21.55.5,1.27.74,2.17.74.98,0,1.75-.34,2.31-1.03.56-.69.84-1.64.84-2.85,0-1.14-.3-2.06-.91-2.75-.61-.69-1.41-1.04-2.41-1.04-.92,0-1.64.21-2.17.62l-.56.47-1.69-.45Z" fill="#212728"/><path d="m365.53,661.33h-2.12v-14.45l-4.25,1.61v-1.97l6.04-2.33h.33v17.14Z" fill="#212728"/><path d="m444.84,661.33h-2.12v-14.45l-4.25,1.61v-1.97l6.05-2.33h.33v17.14Z" fill="#212728"/><path d="m451.29,660.2c0-.38.11-.69.33-.94s.54-.38.98-.38.76.12.99.38.34.56.34.94-.11.66-.34.9-.55.36-.99.36-.76-.12-.98-.36-.33-.54-.33-.9Z" fill="#212728"/><path d="m458.14,652.78l.84-8.51h8.51v2h-6.72l-.5,4.65c.81-.49,1.74-.74,2.77-.74,1.51,0,2.71.51,3.61,1.54.89,1.03,1.33,2.42,1.33,4.17s-.46,3.14-1.39,4.15-2.21,1.52-3.87,1.52c-1.47,0-2.67-.42-3.59-1.25-.93-.84-1.46-1.99-1.59-3.47h2c.13.98.47,1.71,1.02,2.21.55.5,1.27.74,2.17.74.98,0,1.75-.34,2.31-1.03.56-.69.84-1.64.84-2.85,0-1.14-.3-2.06-.91-2.75-.61-.69-1.41-1.04-2.41-1.04-.92,0-1.64.21-2.17.62l-.56.47-1.69-.45Z" fill="#212728"/><path d="m547.37,661.33h-10.88v-1.56l5.75-6.56c.85-.99,1.44-1.8,1.76-2.42.32-.62.48-1.26.48-1.93,0-.89-.26-1.62-.79-2.19s-1.22-.86-2.1-.86c-1.05,0-1.87.31-2.45.92s-.87,1.47-.87,2.56h-2.11c0-1.57.49-2.84,1.48-3.81s2.3-1.45,3.95-1.45c1.54,0,2.76.42,3.66,1.25s1.35,1.94,1.35,3.32c0,1.68-1.04,3.68-3.13,6l-4.45,4.96h8.34v1.77Z" fill="#212728"/><path d="m626.68,661.33h-10.88v-1.56l5.75-6.56c.85-.99,1.44-1.8,1.76-2.42.32-.62.48-1.26.48-1.93,0-.89-.26-1.62-.79-2.19s-1.22-.86-2.1-.86c-1.05,0-1.87.31-2.45.92s-.87,1.47-.87,2.56h-2.11c0-1.57.49-2.84,1.48-3.81s2.3-1.45,3.95-1.45c1.54,0,2.76.42,3.66,1.25s1.35,1.94,1.35,3.32c0,1.68-1.04,3.68-3.13,6l-4.45,4.96h8.34v1.77Z" fill="#212728"/><path d="m629.18,660.2c0-.38.11-.69.33-.94s.54-.38.98-.38.76.12.99.38.34.56.34.94-.11.66-.34.9-.55.36-.99.36-.76-.12-.98-.36-.33-.54-.33-.9Z" fill="#212728"/><path d="m636.04,652.78l.84-8.51h8.51v2h-6.72l-.5,4.65c.81-.49,1.74-.74,2.77-.74,1.51,0,2.71.51,3.61,1.54.89,1.03,1.33,2.42,1.33,4.17s-.46,3.14-1.39,4.15-2.21,1.52-3.87,1.52c-1.47,0-2.67-.42-3.59-1.25-.93-.84-1.46-1.99-1.59-3.47h2c.13.98.47,1.71,1.02,2.21.55.5,1.27.74,2.17.74.98,0,1.75-.34,2.31-1.03.56-.69.84-1.64.84-2.85,0-1.14-.3-2.06-.91-2.75-.61-.69-1.41-1.04-2.41-1.04-.92,0-1.64.21-2.17.62l-.56.47-1.69-.45Z" fill="#212728"/><path d="m717.45,651.75h1.59c1-.02,1.78-.29,2.35-.81s.86-1.23.86-2.12c0-2-.97-3-2.91-3-.91,0-1.64.27-2.19.8-.54.54-.81,1.24-.81,2.13h-2.11c0-1.35.48-2.47,1.44-3.37s2.19-1.34,3.67-1.34c1.57,0,2.79.43,3.68,1.28.89.85,1.34,2.04,1.34,3.55,0,.74-.23,1.46-.7,2.16-.47.7-1.1,1.21-1.91,1.56.91.3,1.62.79,2.12,1.48s.75,1.53.75,2.52c0,1.53-.49,2.75-1.46,3.64-.97.9-2.24,1.35-3.8,1.35s-2.83-.43-3.8-1.3c-.98-.87-1.47-2.01-1.47-3.43h2.12c0,.9.29,1.62.86,2.16s1.33.81,2.29.81c1.02,0,1.8-.27,2.34-.82.54-.55.81-1.33.81-2.36s-.3-1.75-.89-2.29-1.45-.8-2.57-.82h-1.59v-1.77Z" fill="#212728"/><path d="m796.76,651.75h1.58c1-.02,1.78-.29,2.35-.81s.86-1.23.86-2.12c0-2-.97-3-2.91-3-.91,0-1.64.27-2.18.8s-.82,1.24-.82,2.13h-2.11c0-1.35.48-2.47,1.44-3.37.96-.89,2.18-1.34,3.67-1.34,1.57,0,2.79.43,3.68,1.28s1.33,2.04,1.33,3.55c0,.74-.23,1.46-.7,2.16-.47.7-1.1,1.21-1.91,1.56.91.3,1.62.79,2.12,1.48s.75,1.53.75,2.52c0,1.53-.49,2.75-1.46,3.64-.97.9-2.24,1.35-3.8,1.35s-2.83-.43-3.8-1.3-1.47-2.01-1.47-3.43h2.12c0,.9.29,1.62.86,2.16s1.33.81,2.29.81c1.02,0,1.8-.27,2.34-.82s.81-1.33.81-2.36-.3-1.75-.89-2.29c-.59-.53-1.45-.8-2.57-.82h-1.58v-1.77Z" fill="#212728"/><path d="m807.07,660.2c0-.38.11-.69.33-.94s.54-.38.98-.38.76.12.99.38.34.56.34.94-.11.66-.34.9-.55.36-.99.36-.76-.12-.98-.36-.33-.54-.33-.9Z" fill="#212728"/><path d="m813.92,652.78l.84-8.51h8.51v2h-6.72l-.5,4.65c.81-.49,1.74-.74,2.77-.74,1.51,0,2.71.51,3.61,1.54.89,1.03,1.33,2.42,1.33,4.17s-.46,3.14-1.39,4.15-2.21,1.52-3.87,1.52c-1.47,0-2.67-.42-3.59-1.25-.93-.84-1.46-1.99-1.59-3.47h2c.13.98.47,1.71,1.02,2.21.55.5,1.27.74,2.17.74.98,0,1.75-.34,2.31-1.03.56-.69.84-1.64.84-2.85,0-1.14-.3-2.06-.91-2.75-.61-.69-1.41-1.04-2.41-1.04-.92,0-1.64.21-2.17.62l-.56.47-1.69-.45Z" fill="#212728"/><path d="m901.18,655.6h2.3v1.77h-2.3v3.96h-2.12v-3.96h-7.56v-1.28l7.44-11.82h2.25v11.33Zm-7.29,0h5.17v-8.37l-.25.47-4.92,7.9Z" fill="#212728"/><path d="m980.49,655.6h2.3v1.77h-2.3v3.96h-2.12v-3.96h-7.56v-1.28l7.44-11.82h2.25v11.33Zm-7.29,0h5.17v-8.37l-.25.47-4.92,7.9Z" fill="#212728"/><path d="m984.96,660.2c0-.38.11-.69.33-.94s.54-.38.98-.38.76.12.99.38.34.56.34.94-.11.66-.34.9-.55.36-.99.36-.76-.12-.98-.36-.33-.54-.33-.9Z" fill="#212728"/><path d="m991.82,652.78l.84-8.51h8.51v2h-6.72l-.5,4.65c.81-.49,1.74-.74,2.77-.74,1.51,0,2.71.51,3.61,1.54.89,1.03,1.33,2.42,1.33,4.17s-.46,3.14-1.39,4.15-2.21,1.52-3.87,1.52c-1.47,0-2.67-.42-3.59-1.25-.93-.84-1.46-1.99-1.59-3.47h2c.13.98.47,1.71,1.02,2.21.55.5,1.27.74,2.17.74.98,0,1.75-.34,2.31-1.03.56-.69.84-1.64.84-2.85,0-1.14-.3-2.06-.91-2.75-.61-.69-1.41-1.04-2.41-1.04-.92,0-1.64.21-2.17.62l-.56.47-1.69-.45Z" fill="#212728"/><path d="m198.63,654.06c0,2.54-.42,4.43-1.27,5.66-.84,1.23-2.16,1.85-3.96,1.85s-3.08-.6-3.94-1.81-1.29-3.01-1.32-5.41v-2.89c0-2.51.42-4.37,1.27-5.59s2.17-1.83,3.97-1.83,3.1.59,3.95,1.76c.84,1.18,1.28,2.99,1.3,5.44v2.81Zm-2.11-2.96c0-1.84-.25-3.17-.75-4.01s-1.3-1.26-2.38-1.26-1.87.42-2.36,1.25-.75,2.12-.76,3.86v3.47c0,1.84.26,3.21.78,4.08.52.88,1.31,1.32,2.37,1.32s1.82-.41,2.32-1.24c.5-.83.77-2.13.79-3.91v-3.55Z" fill="#212728"/><rect x="361" y="571" width="15" height="15" transform="translate(516.99 -91.13) rotate(45)" fill="#0077a2"/><rect x="537.53" y="489.81" width="15" height="15" transform="translate(511.28 -239.73) rotate(45)" fill="#0077a2"/><rect x="713.97" y="345.25" width="15" height="15" transform="translate(460.74 -406.84) rotate(45)" fill="#0077a2"/><rect x="890.14" y="116.52" width="15" height="15" transform="translate(350.61 -598.41) rotate(45)" fill="#0077a2"/></svg>