<?xml version="1.0" encoding="UTF-8"?><svg id="a" xmlns="http://www.w3.org/2000/svg" width="570" height="321" xmlns:xlink="http://www.w3.org/1999/xlink" viewBox="0 0 570 321"><defs><style>.c,.d{fill:none;}.c,.e,.f,.g,.h{stroke-width:0px;}.i{stroke:#000;}.i,.d{stroke-miterlimit:10;stroke-width:2px;}.i,.g{fill:#f2edf7;}.d{stroke:#d12d32;}.j{clip-path:url(#b);}.f{fill:#fff;opacity:.3;}.h{fill:#d12d32;}</style><clipPath id="b"><path class="c" d="M3.537,190.183c-6.326-39.302-.525-96.457,37.254-131.569C85.409,17.145,195.063,2.781,304.385,1.721c111.562-1.082,177.266,9.618,213.807,36.294,38.758,28.294,45,73.821,48.982,115.622,4.948,51.942-2.837,108.514-55.881,142.866-19.805,12.826-102.103,15.948-176.611,17.941-33.577.898-193.168,14.619-284.923-22.593-38.362-15.558-39.478-59.765-46.222-101.667Z"/></clipPath></defs><path class="g" d="M3.537,190.183c-6.326-39.302-.525-96.457,37.254-131.569C85.409,17.145,195.063,2.781,304.385,1.721c111.562-1.082,177.266,9.618,213.807,36.294,38.758,28.294,45,73.821,48.982,115.622,4.948,51.942-2.837,108.514-55.881,142.866-19.805,12.826-102.103,15.948-176.611,17.941-33.577.898-193.168,14.619-284.923-22.593-38.362-15.558-39.478-59.765-46.222-101.667Z"/><g class="j"><path class="f" d="M291.937,1.647C278.295,6.78,1.334,195.228,1.334,195.228l371.812,125.772h196.854S463.767,4.213,457.704,1.647c-6.063-2.567-165.767,0-165.767,0Z"/></g><rect class="i" x="185" y="20.5" width="200" height="280"/><line class="d" x1="275" y1="247.7" x2="275" y2="76.405"/><polygon class="h" points="284.973 244.782 275 262.052 265.027 244.782 284.973 244.782"/><polygon class="h" points="284.973 79.323 275 62.052 265.027 79.323 284.973 79.323"/><circle class="h" cx="274.379" cy="159.647" r="10"/><path class="e" d="M327.734,97.366c-2.646,1.134-4.751,3.186-6.559,5.291l-.567-.54c.647-.891,1.431-1.781,2.268-2.646.243-.243.378-.54.378-.782,0-.271-.216-.54-.702-.54h-16.547v-1.836h16.574c.27,0,.701-.323.701-.594,0-.243-.107-.432-.377-.701-.811-.756-1.647-1.728-2.268-2.646l.566-.54c1.781,2.078,3.887,4.157,6.532,5.264v.27Z"/><path class="e" d="M312.807,112.13c0-2.942-.107-3.617-3.104-3.617h-1.539l-2.672,13.146c-.513,2.456-.189,2.727,2.105,2.727l-.162.81h-7.693l.162-.81c2.268,0,2.646-.271,3.158-2.727l2.673-13.146h-1.539c-2.996,0-3.293.675-4.48,3.617h-.864l1.107-4.67h14.495l-.811,4.67h-.837Z"/><path class="e" d="M316.122,130.107c.504-1.056,1.449-3.465,2.725-3.465.488,0,.866.299.866.913,0,.693-.425.992-.835.992-.504,0-.661-.582-.708-.582-.756,0-2.173,3.386-2.425,4.015l-.473,2.205h-1.339l1.165-5.48c.063-.283.143-.692.143-.976,0-.3-.079-.473-.521-.473-.173,0-.487.031-.487.031v-.425l2.188-.174h.347l-.804,3.418h.157Z"/><path class="e" d="M319.663,131.352c0-2.52,1.638-4.709,3.874-4.709,1.874,0,2.709,1.417,2.709,3.07,0,2.504-1.701,4.63-3.89,4.63-1.748,0-2.693-1.196-2.693-2.991ZM324.828,129.509c0-1.275-.283-2.331-1.401-2.331-1.638,0-2.378,2.41-2.378,4.347,0,1.181.284,2.268,1.465,2.268,1.512,0,2.314-2.409,2.314-4.283Z"/><path class="e" d="M326.825,137.65l1.968-9.574c.016-.095.032-.189.032-.3,0-.314-.174-.456-.583-.456-.236,0-.504.031-.504.031v-.394l2.252-.236h.299l-.221,1.212h.079c.725-.85,1.37-1.291,2.157-1.291,1.181,0,2.126.882,2.126,2.709,0,2.96-1.764,5.007-4.142,5.007-.488,0-1.103-.22-1.417-.409l-.378,1.827c-.031.157-.063.44-.063.661,0,.362.331.787,1.591.787l-.11.426h-3.086ZM329.061,133.178c.269.236.709.504,1.339.504,1.606,0,2.646-1.559,2.646-4.33,0-1.496-.756-1.827-1.196-1.827-.961,0-1.56.835-1.984,1.764l-.804,3.89Z"/><path class="e" d="M340.806,132.501c-.945,1.417-2.032,1.874-3.04,1.874-1.731,0-2.314-1.37-2.314-2.756,0-2.268,1.575-4.977,4.126-4.977.677,0,1.685.189,1.685,1.417,0,1.984-2.646,2.804-4.487,2.945v.204c0,1.591.566,2.079,1.621,2.079.788,0,1.512-.268,2.126-1.023l.284.236ZM339.907,127.997c0-.567-.188-.866-.661-.866-1.165,0-2.142,1.858-2.44,3.417,1.748-.11,3.102-1.039,3.102-2.551Z"/><path class="e" d="M327.734,187.366c-2.646,1.134-4.751,3.186-6.559,5.291l-.567-.54c.647-.891,1.431-1.781,2.268-2.646.243-.243.378-.54.378-.782,0-.271-.216-.54-.702-.54h-16.547v-1.836h16.574c.27,0,.701-.323.701-.594,0-.243-.107-.432-.377-.701-.811-.756-1.647-1.728-2.268-2.646l.566-.54c1.781,2.078,3.887,4.157,6.532,5.264v.27Z"/><path class="e" d="M317.218,201.86c.026-2.564-.081-3.348-3.591-3.348h-4.049l-1.457,7.019h2.996c2.294,0,2.861-.514,3.32-2.673h.863l-1.241,6.29h-.891c.432-2.295,0-2.592-2.322-2.592h-2.915l-1.16,5.776c-.081.351-.108.675-.108.918,0,.944.864,1.134,2.537,1.134l-.135.81h-7.773l.162-.81c1.862,0,2.51-.324,2.915-2.321l2.402-11.554c.378-1.862.081-2.24-2.105-2.24l.162-.81h13.928l-.729,4.4h-.81Z"/><path class="e" d="M324.501,217.635l-1.369-.157v.047c.252.3.566.913.566,1.638,0,1.354-1.118,2.488-3.165,2.566-.692.032-1.008.457-1.008.835,0,.945,4.11.457,4.11,2.787,0,1.37-1.182,2.378-3.465,2.378-2.346,0-3.229-.787-3.229-1.969,0-.944.945-1.512,1.891-1.795v-.062c-.284-.174-.552-.473-.552-.93,0-.692.583-1.149,1.213-1.401v-.095c-.646-.283-1.37-.834-1.37-2.125,0-1.575,1.275-2.709,2.992-2.709.661,0,1.039.079,1.369.189h2.11l-.095.803ZM319.194,224.139c-.504.299-1.023.677-1.023,1.512,0,.85.662,1.527,2.11,1.527,1.527,0,2.221-.473,2.221-1.229,0-1.149-2.157-1.574-3.308-1.811ZM321.084,217.115c-.913,0-1.559.818-1.559,2.11,0,1.275.299,2.016,1.181,2.016,1.087,0,1.591-.992,1.591-2.315,0-1.008-.394-1.811-1.213-1.811Z"/></svg>