<?xml version="1.0" encoding="UTF-8"?>
<svg id="Layer_1" data-name="Layer 1" xmlns="http://www.w3.org/2000/svg" xmlns:xlink="http://www.w3.org/1999/xlink" viewBox="0 0 1140 882.066">
  <defs>
    <style>
      .cls-1, .cls-2, .cls-3, .cls-4, .cls-5, .cls-6, .cls-7, .cls-8, .cls-9 {
        fill: none;
      }

      .cls-2 {
        stroke: #f2a03d;
        stroke-width: 3px;
      }

      .cls-2, .cls-10, .cls-4, .cls-5, .cls-6, .cls-7, .cls-8, .cls-9 {
        stroke-miterlimit: 10;
      }

      .cls-11 {
        clip-path: url(#clippath);
      }

      .cls-12 {
        fill: #f9af9d;
      }

      .cls-13 {
        fill: #001415;
      }

      .cls-14 {
        fill: #0079a5;
      }

      .cls-15 {
        fill: #ea982d;
      }

      .cls-16, .cls-10 {
        fill: #fff;
      }

      .cls-17 {
        fill: #f2a03d;
      }

      .cls-18 {
        fill: #edaba2;
      }

      .cls-19 {
        fill: #ef5964;
      }

      .cls-20 {
        fill: #ffcbc1;
      }

      .cls-21 {
        fill: #ffc550;
      }

      .cls-22 {
        fill: #ffcfae;
      }

      .cls-23 {
        fill: #ffccc2;
      }

      .cls-24 {
        fill: #efe9d3;
      }

      .cls-25 {
        fill: #932e2e;
      }

      .cls-26 {
        fill: #80598e;
      }

      .cls-27 {
        fill: #6c5145;
      }

      .cls-28 {
        fill: #7c949b;
      }

      .cls-29 {
        fill: #994d30;
      }

      .cls-30 {
        fill: #983333;
      }

      .cls-31 {
        fill: #7ebc84;
      }

      .cls-32 {
        fill: #b73047;
      }

      .cls-33 {
        fill: #8e2843;
      }

      .cls-34 {
        fill: #b393bd;
      }

      .cls-35 {
        fill: #b26c50;
      }

      .cls-36 {
        fill: #cf2d32;
      }

      .cls-37 {
        fill: #e17023;
      }

      .cls-38 {
        fill: #e25263;
      }

      .cls-39 {
        fill: #c92d4b;
      }

      .cls-40 {
        fill: #daf7f3;
      }

      .cls-41 {
        fill: #a7e4f2;
      }

      .cls-42 {
        fill: #23623c;
      }

      .cls-43 {
        fill: #093451;
      }

      .cls-44 {
        fill: #431216;
      }

      .cls-45 {
        fill: #358756;
      }

      .cls-46 {
        fill: #a2c4dd;
      }

      .cls-47 {
        fill: #95827a;
      }

      .cls-48 {
        fill: #70ba95;
      }

      .cls-49 {
        fill: #52aa7a;
      }

      .cls-50 {
        fill: #562015;
      }

      .cls-51 {
        fill: #2b0d0d;
      }

      .cls-52 {
        fill: #493330;
      }

      .cls-53 {
        fill: #492025;
      }

      .cls-54 {
        fill: #2d2d2d;
      }

      .cls-55 {
        fill: #606060;
      }

      .cls-56 {
        fill: #76888c;
      }

      .cls-57 {
        fill: #512b2b;
      }

      .cls-10, .cls-58, .cls-3, .cls-4, .cls-5, .cls-6, .cls-7, .cls-8 {
        stroke-width: 2px;
      }

      .cls-10, .cls-4 {
        stroke: #303030;
      }

      .cls-58 {
        fill: #e6f1e7;
        stroke: #0c7913;
      }

      .cls-58, .cls-3 {
        stroke-linecap: round;
        stroke-linejoin: round;
      }

      .cls-3 {
        stroke: #000;
      }

      .cls-5 {
        stroke: #a01c3b;
      }

      .cls-6 {
        stroke: #cf2d32;
      }

      .cls-7 {
        stroke: #c92d4b;
      }

      .cls-8 {
        stroke: #52aa7a;
      }

      .cls-9 {
        stroke: #493330;
        stroke-width: 4px;
      }
    </style>
    <clipPath id="clippath">
      <path class="cls-1" d="m385.649,872.948c-76.535,7.7-230.655,21.888-322.147-15.86-100.538-41.48-11.859-294.922-44.047-677.107C4.799,5.966,447.874,1.345,577.322,5.92c88.007,3.11,423.564,20.872,508.338,59.228,91.202,41.264,17.599,265.673,13.862,377.07-4.472,133.307,27.107,189.01,26.937,257.304-.33,132.472-40.799,168.688-168.917,168.688-357.699,0-480.583-4.448-571.893,4.738Z"/>
    </clipPath>
  </defs>
  <g class="cls-11">
    <rect class="cls-41" x="-28.798" y="-16.825" width="1168.181" height="575.434"/>
    <path class="cls-40" d="m451.561,80.022s1.626-6.503,18.698-6.503h21.769s15.446-9.755,25.201-9.755,24.388,1.626,31.704,2.439c7.316.813,13.82,4.878,26.014,4.878s20.323-1.626,30.892,4.065c10.568,5.691,6.503,11.381-3.252,11.381s-155.271-.813-159.335-.813,4.245-6.503,8.31-5.691Z"/>
    <path class="cls-48" d="m1019.178,88.403c2.411-2.813,5.224-6.43,7.636-6.832s5.224,1.608,8.44,3.617c3.215,2.009,6.43,2.813,10.851,4.421s7.636,8.841,7.636,10.851,5.626-1.608,9.645,4.421c2.229,3.344,4.019,8.841,2.411,11.655s-2.813,2.411-2.813,7.636-11.655-1.206-19.692.804c-8.038,2.009-7.234,5.626-17.683,4.823-10.449-.804-7.796-1.608-13.262-1.608-4.421,0-6.832,0-10.449-2.411s-8.858-1.523-6.832-11.655c1.206-6.028,5.626-9.645,7.234-11.655s2.813-2.009,2.813-5.224,2.009-5.626,5.626-8.038,8.44-.804,8.44-.804Z"/>
    <path class="cls-42" d="m1173.594,112.006s-35.669-8.578-48.414-4.783c-12.745,3.795-10.294,5.963-22.549,5.422-12.255-.541-25.612,2.432-37.041,4.247-13.664,2.169-14.468-7.046-30.945-2.166-10.663,3.158-17.573-4.335-29.338-3.792-11.765.543-21.039,5.964-25.941,8.675s-17.119,3.252-21.078,10.843c-7.635,14.636-19.29,9.217-29.336,14.638-4.164,2.247-7.097,8.325-12.056,9.758-11.252,3.253-10.046,18.973-10.046,18.973,0,0,21.154,5.419,43.704.539,22.549-4.88,85.296-.548,129.905-1.635,44.609-1.087,74.512-.547,88.237-1.09,13.726-.543,4.898-59.628,4.898-59.628Z"/>
    <rect class="cls-31" x="-27.477" y="169.061" width="1168.181" height="751.087"/>
    <g>
      <path class="cls-35" d="m902.546,855.751c0,6.892,21.585,5.942,48.212,5.942s48.212.95,48.212-5.942-21.585-19.016-48.212-19.016-48.212,12.124-48.212,19.016Z"/>
      <g>
        <path class="cls-45" d="m974.276,715.509c4.312-4.754,10.218-4.16,15.705-7.725,5.488-3.565-11.242,9.508,13.719-8.319,24.961-17.827,18.814-51.898,17.638-54.671s-4.926-6.537-4.142-23.176c.784-16.639,10.681-30.307,7.937-43.38-2.744-13.073-26.458-55.265-56.443-51.7-12.94,1.539-8.819,21.393-40.568,13.371-15.743-3.978-23.714,38.23-26.458,55.265-2.744,17.035-12.81,30.604-13.594,38.923-.784,8.319-1.568,23.374,6.271,33.674,7.839,10.3,7.447,24.562,12.543,32.486,5.096,7.923,28.907,23.534,41.94,15.45,17.246-10.696,21.14,4.556,25.451-.198Z"/>
        <path class="cls-52" d="m947.359,688.965c-1.071-2.377-24.624-28.524-28.371-35.259-3.747-6.735-11.312-15.039-13.918-21.789-1.071-2.773,3.212-4.754,3.212-4.754,0,0,18.736,26.543,19.806,28.524,1.071,1.981,21.948,26.939,23.553,27.335s-2.677,6.735-2.677,6.735l-1.606-.792Z"/>
        <path class="cls-9" d="m980.155,679.854c.991-3.706-14.228,12.652-27.634,23.473"/>
        <path class="cls-52" d="m951.523,850.997h5.478c2.864,0,5.168-2.381,5.105-5.275l-4.234-234.743c-.03-1.356-1.329-2.311-2.615-1.921l-4.837,1.466c-.85.258-1.436,1.042-1.448,1.939l-2.556,233.303c-.038,2.877,2.259,5.23,5.106,5.23Z"/>
        <path class="cls-45" d="m954.713,588.8c-2.19.954-19.56-.699-15.911,12.711,3.648,13.41,7.208,18.633,11.294,18.094,4.086-.539,12.046,15.249,20.321,11.041,8.275-4.207,3.288-12.035.471-16.091-2.817-4.056,9.494-12.54,2.929-20.283-6.565-7.743-19.104-5.472-19.104-5.472Z"/>
        <path class="cls-45" d="m972.218,644.199c-2.19.954-36.991,3.259-33.342,16.67,3.648,13.41,7.208,18.633,11.294,18.094,4.086-.539,26.083,16.505,34.358,12.297,8.275-4.207,3.288-12.035.471-16.091-2.817-4.056,9.494-12.54,2.929-20.283-6.565-7.743-15.71-10.687-15.71-10.687Z"/>
        <path class="cls-45" d="m1003.869,649.745c-.588,2.773,1.96,30.901-12.543,27.732-14.503-3.169-8.035-14.658-14.503-19.016-6.467-4.358-14.111-12.281-5.292-17.233,8.819-4.952,32.337,8.518,32.337,8.518Z"/>
        <path class="cls-45" d="m929.646,617.568s19.713,2.902,21.436,12.574c1.723,9.672,2.871,9.285-4.976,14.701-7.847,5.416-13.78,10.446-18.373,6.577-4.593-3.869.574-11.026-7.081-9.285-7.656,1.741-9.187,15.282-20.096,4.449-10.909-10.833-20.096-5.997-17.991-19.731,2.105-13.734,11.866-17.41,14.928-18.377,3.062-.967,8.613-3.675,17.416.193,8.804,3.869,8.23-.387,12.823-1.161,4.593-.774,5.55-4.449,7.273,1.548,1.723,5.997-4.976,6.77-4.976,6.77l-.383,1.741Z"/>
      </g>
    </g>
    <path class="cls-49" d="m1166.198,760.759s-3.037-17.648-6.833-21.485c-3.796-3.837-6.833-6.906-9.11-8.441s-9.11-4.604-12.147-7.673-5.314-13.812-7.592-15.346c-2.278-1.535-9.11-4.604-9.11-9.975s-46.717-5.91-50.149-11.203c-7.447-11.485-17.179,3.169-20.216,9.308-3.037,6.139-20.021-1.635-23.817,2.202-3.796,3.837-9.869,9.208-9.11,13.812.759,4.604,7.592,10.742,7.592,10.742,0,0-3.796-.767-8.351,3.837-4.555,4.604-6.833-7.673-19.739-7.673-12.906,0-13.665,11.51-13.665,11.51l-.759,3.837-1.518,10.742s-17.461-.767-18.98,9.208c-1.518,9.975,4.555,18.416,4.555,18.416,0,0-21.257,4.604-22.776,12.277-1.518,7.673,1.518,16.881,1.518,16.881,0,0-9.869,4.604-9.869,13.044s.759,13.812,3.037,15.346c2.278,1.535,37.2,4.604,56.939,6.139,19.739,1.535,107.087-1.842,123.03-1.842s28.09,3.069,32.645-1.535c4.555-4.604,11.388-2.302,12.147-16.114.759-13.812,2.278-56.014,2.278-56.014Z"/>
    <path class="cls-49" d="m748.218,1003.289s13.582-26.002,12.462-34.836c-1.12-8.834-2.016-15.901-3.45-20.204-1.434-4.304-7.26-15.221-8.156-22.288-.896-7.067,6.814-23.33,5.38-27.633-1.434-4.304-7.26-15.221-1.926-22.198,5.334-6.976-54.807-55.069-54.008-65.424,1.733-22.471-25.459-13.311-35.499-8.419-10.04,4.892-24.38-22.434-33.12-21.301-8.74,1.132-21.962,1.947-25.548,8.697-3.586,6.75-.808,21.654-.808,21.654,0,0-4.168-4.847-14.656-3.489-10.488,1.359-1.254-16.897-18.017-29.99-16.762-13.093-29.178,1.086-29.178,1.086l-4.796,4.213-12.64,12.412s-21.917-18.71-33.795-7.295c-11.878,11.415-12.372,28.539-12.372,28.539,0,0-32.181-15.585-41.773-7.159-9.592,8.426-14.792,23.465-14.792,23.465,0,0-17.39-4.033-25.772,6.93-8.382,10.963-12.73,18.709-11.296,23.012,1.434,4.304,43.743,43.717,67.856,65.735,24.113,22.017,140.914,106.243,161.62,122.417,20.707,16.173,33.435,32.482,43.923,31.124,10.488-1.359,17.076,8.563,31.778-8.606,14.702-17.169,58.584-70.441,58.584-70.441Z"/>
    <path class="cls-42" d="m1156.863,766.155s-69.561-7.959-89.248-1.327c-19.687,6.633-27.562,14.592-45.936,10.612-18.375-3.98-34.124-19.898-76.123-22.551-41.999-2.653-30.187,6.633-80.061,18.571-49.874,11.939-39.374,6.633-77.436,9.286-38.062,2.653-61.686,14.592-70.873,21.225-9.187,6.633-11.812,21.225-36.749,15.918-36.19-7.7-107.97,66.636-107.97,66.636,0,0,65.568,12.544,83.942,12.544s189.4-23.465,239.273-23.465h219.183c9.187,0,19.687,3.98,26.249-3.98,6.562-7.959,15.75-103.47,15.75-103.47Z"/>
  </g>
  <g id="sph4u_01.05.27b">
    <g>
      <path d="m271.313,343.513h-7.776l.162-.81c.63,0,1.129-.055,1.499-.162.369-.108.666-.328.891-.662.225-.333.4-.832.526-1.498l2.403-11.557c.126-.629.162-1.102.108-1.417-.054-.314-.252-.53-.594-.648-.342-.116-.882-.175-1.62-.175l.162-.811h13.932l-.729,4.401h-.81c.018-.864-.032-1.539-.148-2.025-.118-.485-.428-.827-.932-1.025-.504-.198-1.341-.297-2.511-.297h-4.05l-2.808,13.823c-.036.181-.063.347-.081.5s-.027.293-.027.418c0,.469.216.774.648.918.432.145,1.062.217,1.89.217l-.135.81Zm4.995-6.048h-.891c.144-.773.18-1.341.108-1.701-.072-.359-.302-.599-.688-.716-.388-.116-.968-.175-1.742-.175h-3.186l.189-1.026h3.267c.773,0,1.372-.071,1.795-.216.423-.144.747-.409.972-.797.225-.387.409-.94.553-1.66h.864l-1.242,6.291Z"/>
      <path d="m281.943,352.504h-3.29l.11-.473c.294,0,.541-.047.74-.142.199-.094.419-.285.661-.574.241-.288.556-.731.944-1.33l5.447-7.887h.661l1.243,8.532c.105.514.241.876.409,1.086s.488.314.96.314l-.094.473h-4.203l.095-.473c.262,0,.485-.021.669-.062.183-.042.328-.126.433-.252s.158-.32.158-.582c0-.126-.003-.244-.008-.354s-.013-.213-.023-.307l-.173-1.574-.031-.315-.535-4.706h-.047l-3.148,4.706-.189.315-1.196,1.826c-.105.146-.197.294-.275.44-.079.147-.118.294-.118.44,0,.168.065.281.197.339.131.058.37.086.716.086l-.11.473Zm4.911-3.447h-4.407l.377-.63h3.967l.063.63Z"/>
    </g>
    <g>
      <path d="m155.98,249.135h-7.776l.162-.81c.63,0,1.129-.055,1.499-.162.369-.108.666-.328.891-.662.225-.333.4-.832.526-1.498l2.403-11.557c.126-.629.162-1.102.108-1.417-.054-.314-.252-.53-.594-.648-.342-.116-.882-.175-1.62-.175l.162-.811h13.932l-.729,4.401h-.81c.018-.864-.032-1.539-.148-2.025-.118-.485-.428-.827-.932-1.025-.504-.198-1.341-.297-2.511-.297h-4.05l-2.808,13.823c-.036.181-.063.347-.081.5s-.027.293-.027.418c0,.469.216.774.648.918.432.145,1.062.217,1.89.217l-.135.81Zm4.995-6.048h-.891c.144-.773.18-1.341.108-1.701-.072-.359-.302-.599-.688-.716-.388-.116-.968-.175-1.742-.175h-3.186l.189-1.026h3.267c.773,0,1.372-.071,1.795-.216.423-.144.747-.409.972-.797.225-.387.409-.94.553-1.66h.864l-1.242,6.291Z"/>
      <path d="m166.358,258.126h-1.291l1.275-5.981c.042-.23.063-.404.063-.52,0-.137-.042-.241-.126-.314s-.215-.11-.394-.11c-.105,0-.278.011-.52.031v-.425l2.188-.174h.346l-.787,3.416h.173l-.929,4.077Zm4.234.157c-.388,0-.659-.097-.811-.291-.152-.194-.229-.406-.229-.638,0-.126.013-.249.04-.37.026-.12.044-.201.055-.243l.929-3.637c.073-.347.11-.598.11-.756,0-.178-.031-.327-.094-.448-.063-.12-.184-.181-.362-.181-.231,0-.483.107-.756.322s-.546.493-.818.834c-.273.342-.53.698-.771,1.07-.241.373-.451.725-.629,1.055-.179.331-.31.591-.394.779l.299-1.574c.147-.283.344-.627.59-1.03.247-.404.533-.803.858-1.196s.69-.725,1.094-.992c.404-.268.842-.401,1.314-.401.388,0,.653.115.795.347.142.23.213.487.213.771,0,.262-.019.493-.055.692-.037.199-.066.356-.086.472l-.882,3.637c-.031.157-.047.283-.047.378,0,.199.1.299.299.299.273,0,.506-.1.701-.299.194-.199.349-.373.464-.52l.331.235c-.105.147-.223.315-.354.504-.131.189-.283.376-.457.559-.173.185-.37.334-.59.449-.22.115-.472.173-.755.173Z"/>
    </g>
    <g>
      <path d="m145.176,426.995h-2.214l2.16-10.26c.054-.396.081-.693.081-.892,0-.233-.063-.413-.189-.54-.126-.125-.351-.188-.675-.188-.18,0-.468.018-.864.054v-.729l3.699-.297h.621l-1.323,5.858h.297l-1.593,6.993Zm7.209,0h-2.241c.198-.72.392-1.444.581-2.174.189-.729.374-1.458.554-2.187.18-.729.355-1.462.526-2.2.171-.738.337-1.485.5-2.241.09-.522.135-.892.135-1.107,0-.306-.054-.562-.162-.77-.108-.206-.315-.311-.621-.311-.45,0-.945.253-1.485.756-.54.505-1.085,1.152-1.634,1.944-.549.792-1.058,1.634-1.525,2.524-.468.892-.855,1.715-1.161,2.471l.675-3.402c.27-.521.611-1.134,1.026-1.836.414-.702.895-1.386,1.444-2.052.549-.666,1.166-1.224,1.85-1.674.684-.45,1.413-.675,2.187-.675.666,0,1.111.198,1.336.594.225.396.337.837.337,1.323,0,.396-.036.81-.108,1.241-.072.433-.117.685-.135.757l-.513,2.024h.378l-1.215,3.591-.729,3.402Zm7.101.27c-.685,0-1.152-.166-1.404-.499s-.378-.697-.378-1.094c0-.216.018-.427.054-.634.036-.207.062-.347.081-.419l1.377-5.238c.09-.359.184-.76.283-1.201.099-.441.148-.806.148-1.094,0-.306-.054-.562-.162-.77-.108-.206-.315-.311-.621-.311-.342,0-.734.185-1.175.554s-.896.851-1.363,1.444c-.468.594-.918,1.238-1.35,1.931-.432.693-.81,1.359-1.134,1.998-.324.639-.567,1.192-.729,1.66l.918-3.482c.27-.522.612-1.125,1.026-1.81.414-.684.886-1.35,1.417-1.998.531-.647,1.116-1.183,1.755-1.606.639-.423,1.318-.634,2.039-.634.648,0,1.089.198,1.323.594.233.396.351.837.351,1.323,0,.342-.037.711-.108,1.106-.072.396-.126.693-.162.892l-1.485,6.236c-.054.271-.081.486-.081.648,0,.342.171.513.513.513.468,0,.868-.171,1.202-.513.333-.342.607-.639.823-.892l.54.405c-.18.252-.382.54-.607.864s-.486.644-.783.958c-.297.315-.634.572-1.012.77-.378.198-.81.297-1.296.297Z"/>
      <path d="m168.693,433.07c-1.332,0-2.407-.14-3.226-.419-.819-.279-1.409-.675-1.769-1.188-.36-.514-.54-1.104-.54-1.769,0-.559.167-1.044.5-1.458.333-.414.76-.761,1.282-1.04.522-.278,1.062-.49,1.62-.634l.594.27c-.45.271-.878.594-1.283.972-.405.379-.607.945-.607,1.701,0,.486.13.927.392,1.323.261.396.657.711,1.188.945.531.233,1.21.351,2.038.351,1.314,0,2.277-.188,2.889-.566.612-.379.918-.892.918-1.539,0-.486-.198-.905-.594-1.256-.396-.351-.914-.648-1.553-.891-.639-.243-1.323-.455-2.052-.635-.729-.181-1.427-.333-2.093-.459v-.271c-.234-.144-.45-.346-.648-.607-.198-.261-.297-.589-.297-.985,0-.594.211-1.089.634-1.485.423-.396.905-.701,1.445-.918v-.161c-.36-.162-.725-.388-1.094-.676-.369-.287-.671-.67-.904-1.147-.234-.477-.351-1.084-.351-1.822,0-.899.225-1.701.675-2.403.45-.701,1.062-1.25,1.836-1.646.774-.396,1.647-.594,2.619-.594.63,0,1.134.036,1.512.107.378.072.711.162.999.271.288.107.603.225.945.351v.783c.216.252.432.626.648,1.12.216.495.324,1.058.324,1.688,0,.774-.208,1.485-.621,2.133-.415.648-1.026,1.175-1.836,1.58s-1.8.635-2.97.688c-.594.018-1.031.18-1.31.486-.279.306-.418.62-.418.944,0,.271.171.486.513.648.342.162.778.306,1.31.432.531.126,1.098.266,1.701.419s1.17.36,1.701.621c.531.261.967.603,1.31,1.025.342.423.513.968.513,1.634,0,1.17-.5,2.142-1.499,2.916-.999.773-2.48,1.161-4.442,1.161Zm.918-11.124c.63,0,1.143-.176,1.539-.526.396-.352.693-.824.891-1.418.198-.594.297-1.269.297-2.024,0-.864-.171-1.598-.513-2.201-.342-.603-.864-.904-1.566-.904-.774,0-1.414.324-1.917.972-.504.648-.756,1.53-.756,2.646,0,1.098.148,1.948.446,2.552.297.603.823.904,1.579.904Zm6.669-7.561l-.162,1.377-2.727-.323-1.107-1.054h3.996Z"/>
    </g>
  </g>
  <g>
    <line class="cls-3" x1="158.369" y1="310.088" x2="158.369" y2="275.864"/>
    <polygon points="166.347 278.198 158.369 264.382 150.39 278.198 166.347 278.198"/>
  </g>
  <g>
    <line class="cls-6" x1="211.313" y1="336.065" x2="245.537" y2="336.065"/>
    <polygon class="cls-36" points="243.203 344.043 257.019 336.065 243.203 328.087 243.203 344.043"/>
  </g>
  <g>
    <line class="cls-6" x1="472.297" y1="44.691" x2="648.213" y2="44.691"/>
    <polygon class="cls-36" points="645.878 52.669 659.695 44.691 645.878 36.713 645.878 52.669"/>
  </g>
  <g>
    <line class="cls-3" x1="158.369" y1="362.382" x2="158.369" y2="396.606"/>
    <polygon points="150.39 394.272 158.369 408.088 166.347 394.272 150.39 394.272"/>
  </g>
  <rect class="cls-58" x="106.496" y="310.088" width="104.447" height="51.953"/>
  <g>
    <path d="m134.234,343.512h-2.18v-14.449l-4.371,1.605v-1.969l6.211-2.332h.34v17.145Z"/>
    <path d="m151.765,343.512h-11.18v-1.559l5.906-6.562c.875-.992,1.479-1.799,1.811-2.42s.498-1.264.498-1.928c0-.891-.27-1.621-.809-2.191s-1.258-.855-2.156-.855c-1.078,0-1.916.307-2.514.92s-.896,1.467-.896,2.561h-2.168c0-1.57.506-2.84,1.518-3.809s2.365-1.453,4.061-1.453c1.586,0,2.84.416,3.762,1.248s1.383,1.939,1.383,3.322c0,1.68-1.07,3.68-3.211,6l-4.57,4.957h8.566v1.77Z"/>
    <path d="m164.761,336.234c0,2.539-.434,4.426-1.301,5.66s-2.223,1.852-4.066,1.852c-1.82,0-3.168-.604-4.043-1.811s-1.328-3.01-1.359-5.408v-2.895c0-2.508.434-4.371,1.301-5.59s2.227-1.828,4.078-1.828c1.836,0,3.188.588,4.055,1.764s1.312,2.99,1.336,5.443v2.812Zm-2.168-2.965c0-1.836-.258-3.174-.773-4.014s-1.332-1.26-2.449-1.26c-1.109,0-1.918.418-2.426,1.254s-.77,2.121-.785,3.855v3.469c0,1.844.268,3.205.803,4.084s1.346,1.318,2.432,1.318c1.07,0,1.865-.414,2.385-1.242s.791-2.133.814-3.914v-3.551Z"/>
    <path d="m171.3,337.641l-1.359,1.418v4.453h-2.168v-18h2.168v10.887l1.16-1.395,3.949-4.172h2.637l-4.934,5.297,5.508,7.383h-2.543l-4.418-5.871Z"/>
    <path d="m179.41,337.066c0-1.977.457-3.549,1.371-4.717s2.125-1.752,3.633-1.752c1.547,0,2.754.547,3.621,1.641l.105-1.406h1.98v12.375c0,1.641-.486,2.934-1.459,3.879s-2.279,1.418-3.92,1.418c-.914,0-1.809-.195-2.684-.586s-1.543-.926-2.004-1.605l1.125-1.301c.93,1.148,2.066,1.723,3.41,1.723,1.055,0,1.877-.297,2.467-.891s.885-1.43.885-2.508v-1.09c-.867,1-2.051,1.5-3.551,1.5-1.484,0-2.686-.598-3.604-1.793s-1.377-2.824-1.377-4.887Zm2.18.246c0,1.43.293,2.553.879,3.369s1.406,1.225,2.461,1.225c1.367,0,2.371-.621,3.012-1.863v-5.789c-.664-1.211-1.66-1.816-2.988-1.816-1.055,0-1.879.41-2.473,1.23s-.891,2.035-.891,3.645Z"/>
  </g>
  <g>
    <path d="m272.006,560.678h-7.776l.162-.81c.63,0,1.129-.055,1.499-.162.369-.108.666-.328.891-.662.225-.333.4-.832.526-1.498l2.403-11.557c.126-.629.162-1.102.108-1.417-.054-.314-.252-.53-.594-.648-.342-.116-.882-.175-1.62-.175l.162-.811h13.932l-.729,4.401h-.81c.018-.864-.032-1.539-.148-2.025-.118-.485-.428-.827-.932-1.025-.504-.198-1.341-.297-2.511-.297h-4.05l-2.808,13.823c-.036.181-.063.347-.081.5s-.027.293-.027.418c0,.469.216.774.648.918.432.145,1.062.217,1.89.217l-.135.81Zm4.995-6.048h-.891c.144-.773.18-1.341.108-1.701-.072-.359-.302-.599-.688-.716-.388-.116-.968-.175-1.742-.175h-3.186l.189-1.026h3.267c.773,0,1.372-.071,1.795-.216.423-.144.747-.409.972-.797.225-.387.409-.94.553-1.66h.864l-1.242,6.291Z"/>
    <path d="m284.65,569.669h-4.533l.094-.473c.399,0,.708-.033.929-.102.221-.068.388-.21.504-.426.115-.215.215-.537.299-.968l1.338-6.47c.094-.419.118-.731.071-.937-.047-.204-.173-.338-.378-.401-.205-.062-.501-.094-.889-.094l.094-.473h3.982c.892,0,1.584.089,2.078.268s.84.423,1.039.732.299.652.299,1.03c0,.567-.126,1.037-.378,1.409s-.585.672-1,.897-.874.396-1.377.512v.078c.409.053.784.165,1.125.339.341.173.614.409.818.708.205.299.307.669.307,1.109,0,.703-.197,1.297-.59,1.779s-.923.85-1.59,1.102-1.414.378-2.243.378Zm-.598-.566c.357,0,.732-.029,1.125-.087s.764-.179,1.11-.362.627-.451.842-.803c.215-.352.323-.815.323-1.393,0-.482-.118-.858-.354-1.126-.236-.268-.548-.456-.937-.566s-.803-.165-1.244-.165h-1.086l.126-.63h1.07c1.091,0,1.863-.223,2.314-.669s.677-1.058.677-1.834c0-.283-.068-.543-.205-.779s-.373-.422-.708-.559-.797-.205-1.385-.205c-.157,0-.286.003-.385.009-.1.005-.234.018-.401.039l-1.842,9.082c.178.011.333.021.464.032.131.01.296.016.496.016Z"/>
  </g>
  <g>
    <path d="m155.98,466.3h-7.776l.162-.81c.63,0,1.129-.055,1.499-.162.369-.108.666-.328.891-.662.225-.333.4-.832.526-1.498l2.403-11.557c.126-.629.162-1.102.108-1.417-.054-.314-.252-.53-.594-.648-.342-.116-.882-.175-1.62-.175l.162-.811h13.932l-.729,4.401h-.81c.018-.864-.032-1.539-.148-2.025-.118-.485-.428-.827-.932-1.025-.504-.198-1.341-.297-2.511-.297h-4.05l-2.808,13.823c-.036.181-.063.347-.081.5s-.027.293-.027.418c0,.469.216.774.648.918.432.145,1.062.217,1.89.217l-.135.81Zm4.995-6.048h-.891c.144-.773.18-1.341.108-1.701-.072-.359-.302-.599-.688-.716-.388-.116-.968-.175-1.742-.175h-3.186l.189-1.026h3.267c.773,0,1.372-.071,1.795-.216.423-.144.747-.409.972-.797.225-.387.409-.94.553-1.66h.864l-1.242,6.291Z"/>
    <path d="m166.358,475.291h-1.291l1.275-5.981c.042-.23.063-.404.063-.52,0-.137-.042-.241-.126-.314s-.215-.11-.394-.11c-.105,0-.278.011-.52.031v-.425l2.188-.174h.346l-.787,3.416h.173l-.929,4.077Zm4.234.157c-.388,0-.659-.097-.811-.291-.152-.194-.229-.406-.229-.638,0-.126.013-.249.04-.37.026-.12.044-.201.055-.243l.929-3.637c.073-.347.11-.598.11-.756,0-.178-.031-.327-.094-.448-.063-.12-.184-.181-.362-.181-.231,0-.483.107-.756.322s-.546.493-.818.834c-.273.342-.53.698-.771,1.07-.241.373-.451.725-.629,1.055-.179.331-.31.591-.394.779l.299-1.574c.147-.283.344-.627.59-1.03.247-.404.533-.803.858-1.196s.69-.725,1.094-.992c.404-.268.842-.401,1.314-.401.388,0,.653.115.795.347.142.23.213.487.213.771,0,.262-.019.493-.055.692-.037.199-.066.356-.086.472l-.882,3.637c-.031.157-.047.283-.047.378,0,.199.1.299.299.299.273,0,.506-.1.701-.299.194-.199.349-.373.464-.52l.331.235c-.105.147-.223.315-.354.504-.131.189-.283.376-.457.559-.173.185-.37.334-.59.449-.22.115-.472.173-.755.173Z"/>
  </g>
  <g>
    <path d="m145.176,644.16h-2.214l2.16-10.26c.054-.396.081-.693.081-.892,0-.233-.063-.413-.189-.54-.126-.125-.351-.188-.675-.188-.18,0-.468.018-.864.054v-.729l3.699-.297h.621l-1.323,5.858h.297l-1.593,6.993Zm7.209,0h-2.241c.198-.72.392-1.444.581-2.174.189-.729.374-1.458.554-2.187.18-.729.355-1.462.526-2.2.171-.738.337-1.485.5-2.241.09-.522.135-.892.135-1.107,0-.306-.054-.562-.162-.77-.108-.206-.315-.311-.621-.311-.45,0-.945.253-1.485.756-.54.505-1.085,1.152-1.634,1.944-.549.792-1.058,1.634-1.525,2.524-.468.892-.855,1.715-1.161,2.471l.675-3.402c.27-.521.611-1.134,1.026-1.836.414-.702.895-1.386,1.444-2.052.549-.666,1.166-1.224,1.85-1.674.684-.45,1.413-.675,2.187-.675.666,0,1.111.198,1.336.594.225.396.337.837.337,1.323,0,.396-.036.81-.108,1.241-.072.433-.117.685-.135.757l-.513,2.024h.378l-1.215,3.591-.729,3.402Zm7.101.27c-.685,0-1.152-.166-1.404-.499s-.378-.697-.378-1.094c0-.216.018-.427.054-.634.036-.207.062-.347.081-.419l1.377-5.238c.09-.359.184-.76.283-1.201.099-.441.148-.806.148-1.094,0-.306-.054-.562-.162-.77-.108-.206-.315-.311-.621-.311-.342,0-.734.185-1.175.554s-.896.851-1.363,1.444c-.468.594-.918,1.238-1.35,1.931-.432.693-.81,1.359-1.134,1.998-.324.639-.567,1.192-.729,1.66l.918-3.482c.27-.522.612-1.125,1.026-1.81.414-.684.886-1.35,1.417-1.998.531-.647,1.116-1.183,1.755-1.606.639-.423,1.318-.634,2.039-.634.648,0,1.089.198,1.323.594.233.396.351.837.351,1.323,0,.342-.037.711-.108,1.106-.072.396-.126.693-.162.892l-1.485,6.236c-.054.271-.081.486-.081.648,0,.342.171.513.513.513.468,0,.868-.171,1.202-.513.333-.342.607-.639.823-.892l.54.405c-.18.252-.382.54-.607.864s-.486.644-.783.958c-.297.315-.634.572-1.012.77-.378.198-.81.297-1.296.297Z"/>
    <path d="m168.693,650.235c-1.332,0-2.407-.14-3.226-.419-.819-.279-1.409-.675-1.769-1.188-.36-.514-.54-1.104-.54-1.769,0-.559.167-1.044.5-1.458.333-.414.76-.761,1.282-1.04.522-.278,1.062-.49,1.62-.634l.594.27c-.45.271-.878.594-1.283.972-.405.379-.607.945-.607,1.701,0,.486.13.927.392,1.323.261.396.657.711,1.188.945.531.233,1.21.351,2.038.351,1.314,0,2.277-.188,2.889-.566.612-.379.918-.892.918-1.539,0-.486-.198-.905-.594-1.256-.396-.351-.914-.648-1.553-.891-.639-.243-1.323-.455-2.052-.635-.729-.181-1.427-.333-2.093-.459v-.271c-.234-.144-.45-.346-.648-.607-.198-.261-.297-.589-.297-.985,0-.594.211-1.089.634-1.485.423-.396.905-.701,1.445-.918v-.161c-.36-.162-.725-.388-1.094-.676-.369-.287-.671-.67-.904-1.147-.234-.477-.351-1.084-.351-1.822,0-.899.225-1.701.675-2.403.45-.701,1.062-1.25,1.836-1.646.774-.396,1.647-.594,2.619-.594.63,0,1.134.036,1.512.107.378.072.711.162.999.271.288.107.603.225.945.351v.783c.216.252.432.626.648,1.12.216.495.324,1.058.324,1.688,0,.774-.208,1.485-.621,2.133-.415.648-1.026,1.175-1.836,1.58s-1.8.635-2.97.688c-.594.018-1.031.18-1.31.486-.279.306-.418.62-.418.944,0,.271.171.486.513.648.342.162.778.306,1.31.432.531.126,1.098.266,1.701.419s1.17.36,1.701.621c.531.261.967.603,1.31,1.025.342.423.513.968.513,1.634,0,1.17-.5,2.142-1.499,2.916-.999.773-2.48,1.161-4.442,1.161Zm.918-11.124c.63,0,1.143-.176,1.539-.526.396-.352.693-.824.891-1.418.198-.594.297-1.269.297-2.024,0-.864-.171-1.598-.513-2.201-.342-.603-.864-.904-1.566-.904-.774,0-1.414.324-1.917.972-.504.648-.756,1.53-.756,2.646,0,1.098.148,1.948.446,2.552.297.603.823.904,1.579.904Zm6.669-7.561l-.162,1.377-2.727-.323-1.107-1.054h3.996Z"/>
  </g>
  <g>
    <line class="cls-3" x1="158.369" y1="527.253" x2="158.369" y2="493.029"/>
    <polygon points="166.347 495.363 158.369 481.547 150.39 495.363 166.347 495.363"/>
  </g>
  <g>
    <line class="cls-6" x1="211.313" y1="553.23" x2="245.537" y2="553.23"/>
    <polygon class="cls-36" points="243.203 561.208 257.019 553.23 243.203 545.252 243.203 561.208"/>
  </g>
  <g>
    <line class="cls-3" x1="158.369" y1="579.547" x2="158.369" y2="613.771"/>
    <polygon points="150.39 611.437 158.369 625.253 166.347 611.437 150.39 611.437"/>
  </g>
  <rect class="cls-58" x="106.496" y="527.253" width="104.447" height="51.953"/>
  <g>
    <path d="m144.863,544.833l-7.066,15.844h-2.273l7.043-15.281h-9.234v-1.781h11.531v1.219Z"/>
    <path d="m158.023,553.399c0,2.539-.434,4.426-1.301,5.66s-2.223,1.852-4.066,1.852c-1.82,0-3.168-.604-4.043-1.811s-1.328-3.01-1.359-5.408v-2.895c0-2.508.434-4.371,1.301-5.59s2.227-1.828,4.078-1.828c1.836,0,3.188.588,4.055,1.764s1.312,2.99,1.336,5.443v2.812Zm-2.168-2.965c0-1.836-.258-3.174-.773-4.014s-1.332-1.26-2.449-1.26c-1.109,0-1.918.418-2.426,1.254s-.77,2.121-.785,3.855v3.469c0,1.844.268,3.205.803,4.084s1.346,1.318,2.432,1.318c1.07,0,1.865-.414,2.385-1.242s.791-2.133.814-3.914v-3.551Z"/>
    <path d="m164.562,554.806l-1.359,1.418v4.453h-2.168v-18h2.168v10.887l1.16-1.395,3.949-4.172h2.637l-4.934,5.297,5.508,7.383h-2.543l-4.418-5.871Z"/>
    <path d="m172.671,554.231c0-1.977.457-3.549,1.371-4.717s2.125-1.752,3.633-1.752c1.547,0,2.754.547,3.621,1.641l.105-1.406h1.98v12.375c0,1.641-.486,2.934-1.459,3.879s-2.279,1.418-3.92,1.418c-.914,0-1.809-.195-2.684-.586s-1.543-.926-2.004-1.605l1.125-1.301c.93,1.148,2.066,1.723,3.41,1.723,1.055,0,1.877-.297,2.467-.891s.885-1.43.885-2.508v-1.09c-.867,1-2.051,1.5-3.551,1.5-1.484,0-2.686-.598-3.604-1.793s-1.377-2.824-1.377-4.887Zm2.18.246c0,1.43.293,2.553.879,3.369s1.406,1.225,2.461,1.225c1.367,0,2.371-.621,3.012-1.863v-5.789c-.664-1.211-1.66-1.816-2.988-1.816-1.055,0-1.879.41-2.473,1.23s-.891,2.035-.891,3.645Z"/>
  </g>
  <g>
    <path d="m271.51,778.652h-7.776l.162-.81c.63,0,1.129-.055,1.499-.162.369-.108.666-.328.891-.662.225-.333.4-.832.526-1.498l2.403-11.557c.126-.629.162-1.102.108-1.417-.054-.314-.252-.53-.594-.648-.342-.116-.882-.175-1.62-.175l.162-.811h13.932l-.729,4.401h-.81c.018-.864-.032-1.539-.148-2.025-.118-.485-.428-.827-.932-1.025-.504-.198-1.341-.297-2.511-.297h-4.05l-2.808,13.823c-.036.181-.063.347-.081.5s-.027.293-.027.418c0,.469.216.774.648.918.432.145,1.062.217,1.89.217l-.135.81Zm4.995-6.048h-.891c.144-.773.18-1.341.108-1.701-.072-.359-.302-.599-.688-.716-.388-.116-.968-.175-1.742-.175h-3.186l.189-1.026h3.267c.773,0,1.372-.071,1.795-.216.423-.144.747-.409.972-.797.225-.387.409-.94.553-1.66h.864l-1.242,6.291Z"/>
    <path d="m284.627,787.816c-.944,0-1.7-.176-2.267-.527-.566-.352-.973-.82-1.22-1.408s-.37-1.229-.37-1.921c0-1.102.168-2.08.504-2.936.335-.855.795-1.574,1.377-2.156.582-.583,1.241-1.023,1.975-1.322.735-.299,1.501-.449,2.298-.449.535,0,.953.048,1.251.142.299.095.533.192.701.292.167.1.314.149.44.149s.236-.053.331-.157c.095-.105.205-.241.331-.409h.457l-.74,3.604h-.52c.042-1.05-.152-1.803-.583-2.259-.43-.457-1.034-.685-1.81-.685-.609,0-1.181.139-1.716.417s-1.01.671-1.424,1.181c-.415.509-.74,1.117-.976,1.825-.236.709-.354,1.498-.354,2.369,0,1.05.249,1.85.748,2.4.498.552,1.267.827,2.306.827.409,0,.805-.053,1.188-.158.383-.104.758-.265,1.125-.479.367-.215.724-.48,1.07-.795l.283.299c-.357.42-.75.793-1.181,1.117-.43.326-.911.58-1.44.764s-1.125.275-1.787.275Z"/>
  </g>
  <g>
    <path d="m155.98,684.275h-7.776l.162-.81c.63,0,1.129-.055,1.499-.162.369-.108.666-.328.891-.662.225-.333.4-.832.526-1.498l2.403-11.557c.126-.629.162-1.102.108-1.417-.054-.314-.252-.53-.594-.648-.342-.116-.882-.175-1.62-.175l.162-.811h13.932l-.729,4.401h-.81c.018-.864-.032-1.539-.148-2.025-.118-.485-.428-.827-.932-1.025-.504-.198-1.341-.297-2.511-.297h-4.05l-2.808,13.823c-.036.181-.063.347-.081.5s-.027.293-.027.418c0,.469.216.774.648.918.432.145,1.062.217,1.89.217l-.135.81Zm4.995-6.048h-.891c.144-.773.18-1.341.108-1.701-.072-.359-.302-.599-.688-.716-.388-.116-.968-.175-1.742-.175h-3.186l.189-1.026h3.267c.773,0,1.372-.071,1.795-.216.423-.144.747-.409.972-.797.225-.387.409-.94.553-1.66h.864l-1.242,6.291Z"/>
    <path d="m166.358,693.267h-1.291l1.275-5.981c.042-.23.063-.404.063-.52,0-.137-.042-.241-.126-.314s-.215-.11-.394-.11c-.105,0-.278.011-.52.031v-.425l2.188-.174h.346l-.787,3.416h.173l-.929,4.077Zm4.234.157c-.388,0-.659-.097-.811-.291-.152-.194-.229-.406-.229-.638,0-.126.013-.249.04-.37.026-.12.044-.201.055-.243l.929-3.637c.073-.347.11-.598.11-.756,0-.178-.031-.327-.094-.448-.063-.12-.184-.181-.362-.181-.231,0-.483.107-.756.322s-.546.493-.818.834c-.273.342-.53.698-.771,1.07-.241.373-.451.725-.629,1.055-.179.331-.31.591-.394.779l.299-1.574c.147-.283.344-.627.59-1.03.247-.404.533-.803.858-1.196s.69-.725,1.094-.992c.404-.268.842-.401,1.314-.401.388,0,.653.115.795.347.142.23.213.487.213.771,0,.262-.019.493-.055.692-.037.199-.066.356-.086.472l-.882,3.637c-.031.157-.047.283-.047.378,0,.199.1.299.299.299.273,0,.506-.1.701-.299.194-.199.349-.373.464-.52l.331.235c-.105.147-.223.315-.354.504-.131.189-.283.376-.457.559-.173.185-.37.334-.59.449-.22.115-.472.173-.755.173Z"/>
  </g>
  <g>
    <path d="m145.176,862.135h-2.214l2.16-10.26c.054-.396.081-.693.081-.892,0-.233-.063-.413-.189-.54-.126-.125-.351-.188-.675-.188-.18,0-.468.018-.864.054v-.729l3.699-.297h.621l-1.323,5.858h.297l-1.593,6.993Zm7.209,0h-2.241c.198-.72.392-1.444.581-2.174.189-.729.374-1.458.554-2.187.18-.729.355-1.462.526-2.2.171-.738.337-1.485.5-2.241.09-.522.135-.892.135-1.107,0-.306-.054-.562-.162-.77-.108-.206-.315-.311-.621-.311-.45,0-.945.253-1.485.756-.54.505-1.085,1.152-1.634,1.944-.549.792-1.058,1.634-1.525,2.524-.468.892-.855,1.715-1.161,2.471l.675-3.402c.27-.521.611-1.134,1.026-1.836.414-.702.895-1.386,1.444-2.052.549-.666,1.166-1.224,1.85-1.674.684-.45,1.413-.675,2.187-.675.666,0,1.111.198,1.336.594.225.396.337.837.337,1.323,0,.396-.036.81-.108,1.241-.072.433-.117.685-.135.757l-.513,2.024h.378l-1.215,3.591-.729,3.402Zm7.101.27c-.685,0-1.152-.166-1.404-.499s-.378-.697-.378-1.094c0-.216.018-.427.054-.634.036-.207.062-.347.081-.419l1.377-5.238c.09-.359.184-.76.283-1.201.099-.441.148-.806.148-1.094,0-.306-.054-.562-.162-.77-.108-.206-.315-.311-.621-.311-.342,0-.734.185-1.175.554s-.896.851-1.363,1.444c-.468.594-.918,1.238-1.35,1.931-.432.693-.81,1.359-1.134,1.998-.324.639-.567,1.192-.729,1.66l.918-3.482c.27-.522.612-1.125,1.026-1.81.414-.684.886-1.35,1.417-1.998.531-.647,1.116-1.183,1.755-1.606.639-.423,1.318-.634,2.039-.634.648,0,1.089.198,1.323.594.233.396.351.837.351,1.323,0,.342-.037.711-.108,1.106-.072.396-.126.693-.162.892l-1.485,6.236c-.054.271-.081.486-.081.648,0,.342.171.513.513.513.468,0,.868-.171,1.202-.513.333-.342.607-.639.823-.892l.54.405c-.18.252-.382.54-.607.864s-.486.644-.783.958c-.297.315-.634.572-1.012.77-.378.198-.81.297-1.296.297Z"/>
    <path d="m168.693,868.21c-1.332,0-2.407-.14-3.226-.419-.819-.279-1.409-.675-1.769-1.188-.36-.514-.54-1.104-.54-1.769,0-.559.167-1.044.5-1.458.333-.414.76-.761,1.282-1.04.522-.278,1.062-.49,1.62-.634l.594.27c-.45.271-.878.594-1.283.972-.405.379-.607.945-.607,1.701,0,.486.13.927.392,1.323.261.396.657.711,1.188.945.531.233,1.21.351,2.038.351,1.314,0,2.277-.188,2.889-.566.612-.379.918-.892.918-1.539,0-.486-.198-.905-.594-1.256-.396-.351-.914-.648-1.553-.891-.639-.243-1.323-.455-2.052-.635-.729-.181-1.427-.333-2.093-.459v-.271c-.234-.144-.45-.346-.648-.607-.198-.261-.297-.589-.297-.985,0-.594.211-1.089.634-1.485.423-.396.905-.701,1.445-.918v-.161c-.36-.162-.725-.388-1.094-.676-.369-.287-.671-.67-.904-1.147-.234-.477-.351-1.084-.351-1.822,0-.899.225-1.701.675-2.403.45-.701,1.062-1.25,1.836-1.646.774-.396,1.647-.594,2.619-.594.63,0,1.134.036,1.512.107.378.072.711.162.999.271.288.107.603.225.945.351v.783c.216.252.432.626.648,1.12.216.495.324,1.058.324,1.688,0,.774-.208,1.485-.621,2.133-.415.648-1.026,1.175-1.836,1.58s-1.8.635-2.97.688c-.594.018-1.031.18-1.31.486-.279.306-.418.62-.418.944,0,.271.171.486.513.648.342.162.778.306,1.31.432.531.126,1.098.266,1.701.419s1.17.36,1.701.621c.531.261.967.603,1.31,1.025.342.423.513.968.513,1.634,0,1.17-.5,2.142-1.499,2.916-.999.773-2.48,1.161-4.442,1.161Zm.918-11.124c.63,0,1.143-.176,1.539-.526.396-.352.693-.824.891-1.418.198-.594.297-1.269.297-2.024,0-.864-.171-1.598-.513-2.201-.342-.603-.864-.904-1.566-.904-.774,0-1.414.324-1.917.972-.504.648-.756,1.53-.756,2.646,0,1.098.148,1.948.446,2.552.297.603.823.904,1.579.904Zm6.669-7.561l-.162,1.377-2.727-.323-1.107-1.054h3.996Z"/>
  </g>
  <g>
    <line class="cls-3" x1="158.369" y1="745.229" x2="158.369" y2="711.004"/>
    <polygon points="166.347 713.339 158.369 699.522 150.39 713.339 166.347 713.339"/>
  </g>
  <g>
    <line class="cls-6" x1="211.313" y1="771.205" x2="245.537" y2="771.205"/>
    <polygon class="cls-36" points="243.203 779.183 257.019 771.205 243.203 763.227 243.203 779.183"/>
  </g>
  <g>
    <line class="cls-3" x1="158.369" y1="797.522" x2="158.369" y2="831.747"/>
    <polygon points="150.39 829.412 158.369 843.229 166.347 829.412 150.39 829.412"/>
  </g>
  <rect class="cls-58" x="106.496" y="745.229" width="104.447" height="51.953"/>
  <g>
    <path d="m137,769.066h1.629c1.023-.016,1.828-.285,2.414-.809s.879-1.23.879-2.121c0-2-.996-3-2.988-3-.938,0-1.686.268-2.244.803s-.838,1.244-.838,2.127h-2.168c0-1.352.494-2.475,1.482-3.369s2.244-1.342,3.768-1.342c1.609,0,2.871.426,3.785,1.277s1.371,2.035,1.371,3.551c0,.742-.24,1.461-.721,2.156s-1.135,1.215-1.963,1.559c.938.297,1.662.789,2.174,1.477s.768,1.527.768,2.52c0,1.531-.5,2.746-1.5,3.645s-2.301,1.348-3.902,1.348-2.904-.434-3.908-1.301-1.506-2.012-1.506-3.434h2.18c0,.898.293,1.617.879,2.156s1.371.809,2.355.809c1.047,0,1.848-.273,2.402-.82s.832-1.332.832-2.355c0-.992-.305-1.754-.914-2.285s-1.488-.805-2.637-.82h-1.629v-1.77Z"/>
    <path d="m158.023,771.375c0,2.539-.434,4.426-1.301,5.66s-2.223,1.852-4.066,1.852c-1.82,0-3.168-.604-4.043-1.811s-1.328-3.01-1.359-5.408v-2.895c0-2.508.434-4.371,1.301-5.59s2.227-1.828,4.078-1.828c1.836,0,3.188.588,4.055,1.764s1.312,2.99,1.336,5.443v2.812Zm-2.168-2.965c0-1.836-.258-3.174-.773-4.014s-1.332-1.26-2.449-1.26c-1.109,0-1.918.418-2.426,1.254s-.77,2.121-.785,3.855v3.469c0,1.844.268,3.205.803,4.084s1.346,1.318,2.432,1.318c1.07,0,1.865-.414,2.385-1.242s.791-2.133.814-3.914v-3.551Z"/>
    <path d="m164.562,772.781l-1.359,1.418v4.453h-2.168v-18h2.168v10.887l1.16-1.395,3.949-4.172h2.637l-4.934,5.297,5.508,7.383h-2.543l-4.418-5.871Z"/>
    <path d="m172.671,772.207c0-1.977.457-3.549,1.371-4.717s2.125-1.752,3.633-1.752c1.547,0,2.754.547,3.621,1.641l.105-1.406h1.98v12.375c0,1.641-.486,2.934-1.459,3.879s-2.279,1.418-3.92,1.418c-.914,0-1.809-.195-2.684-.586s-1.543-.926-2.004-1.605l1.125-1.301c.93,1.148,2.066,1.723,3.41,1.723,1.055,0,1.877-.297,2.467-.891s.885-1.43.885-2.508v-1.09c-.867,1-2.051,1.5-3.551,1.5-1.484,0-2.686-.598-3.604-1.793s-1.377-2.824-1.377-4.887Zm2.18.246c0,1.43.293,2.553.879,3.369s1.406,1.225,2.461,1.225c1.367,0,2.371-.621,3.012-1.863v-5.789c-.664-1.211-1.66-1.816-2.988-1.816-1.055,0-1.879.41-2.473,1.23s-.891,2.035-.891,3.645Z"/>
  </g>
  <g>
    <g>
      <g>
        <path class="cls-29" d="m863.289,159.967s-3.074,2.794-3.511,3.523-.503,1.539.713,2.23,4.484,4.141,5.429,2.438,1.599-4.684,1.599-4.684l-4.23-3.507Z"/>
        <g>
          <path class="cls-16" d="m932.43,165.496c.312.606,3.003,1.082,3.863,2.51.861,1.427,2.373-.003,2.215-2.086s-1.591-5.107-2.242-5.697c-.65-.59-1.727-.65-3.724.125,0,0-.669.711-.46,2.678"/>
          <path class="cls-16" d="m932.231,164.884s1.875,1.91,2.277,2.418,1.513.887,1.786.704.458-1.04-.826-1.881c-1.284-.842-3.236-1.241-3.236-1.241Z"/>
        </g>
        <path class="cls-29" d="m933.152,157.197s-.526,4.116-.572,4.965.273,1.596,1.671,1.64c1.398.044,5.581,1.767,5.622-.18s-.987-5.596-.987-5.596l-5.735-.829Z"/>
        <polygon class="cls-29" points="936.094 127.563 939.18 159.636 932.887 160.66 928.214 127.655 936.094 127.563"/>
        <path class="cls-33" d="m906.996,86.009s28.441,17.268,32.504,28.103.451,42.775.451,42.775l-9.932.226-8.239-33.859s-31.714-15.575-30.586-21.895c3.032-16.981,15.801-15.349,15.801-15.349Z"/>
        <g>
          <path class="cls-16" d="m947.214,169.092s-.018,1.074-.472,1.891c-.473.852-3.267,1.413-4.683,1.427-1.416.014-5.877-.92-6.309-2.025s-.74-2.372-.458-2.352,11.922,1.059,11.922,1.059Z"/>
          <path class="cls-16" d="m940.55,161.145c-.193-.424-.583-.725-1.042-.802-.924-.154-2.478-.333-3.269.032-1.169.541-1.725,2.822-1.725,2.822-.302,1.88,1.526,1.193,3.778.999,2.193-.188,3.183-1.023,3.183-1.023l-.926-2.029Z"/>
          <path class="cls-16" d="m935.237,162.569s-2.162.981-2.171,2.734c-.004.751,2.054,1.651,2.098,2.434.066,1.174.512,1.883,1.627,2.325,1.016.403,2.772.65,4.184.858,2.912.43,6.365-.404,6.194-2.001-.113-1.054-.182-1.56-1.436-2.929-1.051-1.148-3.897-2.665-4.503-3.342-2.027-2.263-5.992-.079-5.992-.079Z"/>
        </g>
        <g>
          <path class="cls-16" d="m866.206,163.482s.561.655.296,2.385c-.417,2.716-.107,1.645-.408,2.168s-.912.916-1.731,2.141c-.819,1.226-2.097-.1-1.871-1.934.225-1.834-.169-4.529.43-5.024.599-.494,1.553-.504,3.285.264Z"/>
          <path class="cls-16" d="m866.296,167.503s.05,1.693-.326,2.125-1.373.721-1.607.549-.362-.937.807-1.628c1.169-.691,1.125-1.046,1.125-1.046Z"/>
        </g>
        <path class="cls-29" d="m866.595,160.886s.334,4.136.34,4.986-.347,1.582-1.746,1.56c-1.398-.021-5.657,1.506-5.608-.441s1.246-5.545,1.246-5.545l5.767-.561Z"/>
        <g>
          <path class="cls-16" d="m853.332,171.644s-.031,1.068.381,1.9c.43.868,3.181,1.555,4.586,1.634,1.406.08,5.881-.642,6.361-1.72.48-1.078.844-2.322.564-2.315s-11.892.501-11.892.501Z"/>
          <path class="cls-16" d="m858.312,163.964c.212-.412.612-.694,1.072-.749.925-.111,2.477-.217,3.246.183,1.137.591,1.583,2.883,1.583,2.883.213,1.882-1.571,1.114-3.799.818-2.17-.288-3.115-1.163-3.115-1.163l1.013-1.973Z"/>
          <path class="cls-16" d="m863.524,165.624s2.103,1.074,2.031,2.817c-.031.746-.11,1.638-.19,2.414-.12,1.163-.595,1.847-1.724,2.235-1.028.353-2.784.517-4.196.659-2.913.292-6.305-.696-6.061-2.274.161-1.042.253-1.541,1.562-2.844,1.098-1.092,1.987-2.561,2.621-3.205,2.119-2.154,5.957.199,5.957.199Z"/>
        </g>
        <path class="cls-29" d="m907.275,58.777c.432-1.426-.459-2.918-1.693-3.752-4.258-2.878-11.268-6.575-16.204-3.745-.858.473-1.765.993-2.697,1.548-3.22,1.918-9.579,9.315-12.654,11.917-1.374,1.163-2.534,2.249-3.299,3.128-1.105,1.268-1.783.838-1.51,2.498.251,1.521,5.105,5.991,6.634,6.188,1.062.137,6.961-5.397,11.432-7.415.894-.404,1.726-.774,2.444-1.079,6.219-2.103,11.868-4.159,15.77-9.453.002-.008,1.775.174,1.777.166Z"/>
        <path class="cls-33" d="m885.112,78.104s-3.65,6.026-6.162,12.024c-3.216,7.679-9.777,26.018-11.887,32.863-3.285,10.652-7.177,38.01-7.177,38.01,0,0,6.947,4.502,9.037,3.436,7.213-10.159,15.59-30.917,15.06-31.465,0,0,22.379-40.554,21.597-44.59-.782-4.036-20.469-10.278-20.469-10.278Z"/>
        <path class="cls-22" d="m878.216,90.495c.228-4.603,3.326-11.931,5.671-16.506-.655-3.287-1.27-7.195.762-11.173,1.583-3.099,11.539-11.644,18.368-11.681,1.023-.006-.118-1.326.885-1.254,15.808,1.142,24.232,6.959,19.704,19.006-.208.679-.462,1.402-.759,2.207-.595,1.611-4.749,7.58-5.693,10.175-.129,4.875.502,10.79-1.016,11.512-20.654,9.819-37.993-.848-37.922-2.285Z"/>
        <path class="cls-51" d="m898.477,49.441c-.038,1.584-2.101,3.711-3.058,4.992-.758,1.014-1.419,1.93-1.756,3.186-.79,2.943-1.586,5.869-2.293,8.841-.593,2.494-1.808,5.069-1.115,7.691.462,1.746,3.129,3.79,4.471,4.926.236-2.183-1.561-4.054-1.872-6.113-.477-3.155,2.074-6.059,2.09-9.159.009-1.73-.06-3.629.709-5.201.772-1.579,1.698-3.257,2.837-4.586.685-.799,2.815-2.239,2.057-3.472-.29-.472-1.48-.828-2.069-1.106Z"/>
        <path class="cls-51" d="m914.827,41.138c.825.874,4.209,5.44,2.593,9.548-1.118,2.844-.157,4.463-1.456,5.457-2.068,1.583-5.872-.607-7.967-1.753-2.21-1.209-2.998-.603-5.549.187-1.715.531-4.197.866-5.646,2.012-1.883,1.49-2.856,3.962-4.202,5.934-1.544,2.263-3.737,4.166-5.177,6.447-.911,1.444-1.111,4.134-2.463,5.229-.795.644-3.109-.164-3.182-1.011-.137-1.593.632-3.951.903-5.588.275-1.663.761-3.324,1.347-4.905.429-1.159.985-2.286,1.415-3.451.322-.874.524-2.047,1.034-2.832,1.681-2.589,5.394-4.06,7.964-5.292,1.063-.51,1.614-1.141,2.825-1.25,1.748-.157,3.539-.333,5.288-.508,2.979-.298,6.515-.834,9.279-2.267.892-.462,1.499-1.306,2.476-1.364.613-.036-.196-4.852.517-4.594Z"/>
        <path class="cls-51" d="m899.532,47.592c-1.835,1.07-4.595,1.541-5.775,3.464-.727,1.183-.743,2.32-.896,3.648-.116,1.007-.515,2.183-.401,3.178,1.915-.068,1.604-4.279,2.139-5.471.432-.963,1.515-1.654,2.409-2.1.912-.456,2.865-.613,3.225-1.777-.345-.302-.735-.421-.701-.941Z"/>
        <path class="cls-29" d="m900.939,55.683c-1.109,1.249-2.255,3.298-1.64,4.476.703,1.347,4.396,1.09,5.479,1.051,1.097-.039,12.035-2.982,10.769-5.912-.937-2.168-6.65-1.756-8.347-1.741-1.927.016-5.153.877-6.261,2.126Z"/>
        <path class="cls-29" d="m906.319,88.718c.938-.25,1.746-.835,2.518-1.424,1.901-1.452,3.698-3.082,5.947-5.686.75-.869,1.506-1.778,2.26-2.717,4.479-5.187,10.511-13.668,7.051-19.629-3.46-5.962-12.426,2.987-15.914,9.65-.567.845-5.399,9.108-6.223,10.576-.832,1.481-1.117,5.681-.589,7.296.678,2.073,4.013,2.186,4.951,1.936Z"/>
        <g>
          <path class="cls-29" d="m903.165,56.583c.776,1.771,9.114.223,10.028-1.069.914-1.293-1.852-13.087-1.852-13.087l-9.553,5.324s.601,7.061,1.377,8.832Z"/>
          <g>
            <path class="cls-51" d="m913.059,41.708s4.53-7.749-4.541-13.268c-3.149-1.916-13.124-1.454-15.517,6.056-1.768,5.547,2.782,12.728,3.359,12.006l16.699-4.794Z"/>
            <path class="cls-29" d="m900.579,31.998c-7.29,1.369-7.678,8.271-6.539,12.89,1.139,4.619,1.735,12.217,9.74,10.452,6.841-1.508,7.8-9.819,7.416-12.307-.994-6.426-2.337-12.59-10.617-11.035Z"/>
            <path class="cls-44" d="m896.493,52.018c.267-1.019.586-.915.898-1.093.305-.154.6-.291.9-.409.3-.117.614-.204.938-.301.334-.101.54-.321,1.392.174.092.05.158.136.182.231.251.966-.178,1.176-.506,1.455-.67.58-1.529.928-2.415.958-.431-.004-.869.222-1.362-.723-.049-.094-.056-.197-.028-.292h0Z"/>
            <path class="cls-29" d="m896.066,48.899c-.294,1.086-2.872,1.482-3.29.056,0,0-.56-.881,1.442-3.413"/>
            <path class="cls-51" d="m904.322,30.636c2.156-.389,1.74,3.086.508,4.172-.731.644-2.105.657-2.319-.479-.698,1.088-2.703,1.282-2.799.013-.216,1.094-1.571,2.169-2.606,2.462-.888.252-1.512-.47-1.617-1.665-.198.731-.223,1.453-.572,2.136-.364.712-1.106,1.543-1.962,2.036-.487.281-3.637-4.484,3.361-6.854,1.402-.475,2.764-1.068,4.247-1.083.856-.008,2.668-.016,3.758-.738Z"/>
            <path class="cls-51" d="m910.742,35.471c.575,1.664.512,4.748,1.421,6.261.879-1.009-.214-6.627-1.421-6.261Z"/>
            <g>
              <path class="cls-29" d="m910.355,43.073c-.064-1.082.208-2.475.779-2.997s1.366-.513,2.027.024c.389.316.614.991.77,1.609.175.694.086,1.437-.12,2.031-.36,1.04-2.031,2.397-2.854,2.257-.823-.14-.454-1.458-.584-2.709"/>
              <path class="cls-50" d="m912.831,40.922c.423.865.236.839.186,1.03-.053.167-.113.304-.178.409-.361.428-.461.296-1.15.566-.383.164-.973-.16-1.033-.365-.092-.185-.046-.354-.049-.533.038-.648.376-1.213.915-1.517.248-.116.379-.432,1.147.179.079.059.124.145.163.23h0Z"/>
              <path class="cls-21" d="m912.153,44.415c.847-.44.794-.256.943-.213.273.108.399.31.404.601.006.143.129.204-.523.803-.07.064-.151.119-.232.16-.789.4-.804.263-.935.208-.27-.107-.415-.295-.42-.59.013-.155-.179-.17.531-.808.07-.063.152-.118.232-.16h0Z"/>
              <path class="cls-21" d="m912.962,43.548c.744-.598.727-.408.881-.396.14.028.255.081.341.164.086.084.134.206.169.342.033.138.165.174-.358.888-.056.077-.125.146-.196.203-.695.548-.735.417-.875.389-.284-.051-.462-.206-.524-.492-.018-.154-.207-.13.364-.895.057-.076.125-.146.196-.203h0Z"/>
            </g>
            <path class="cls-51" d="m904.05,32.227c1.955,2.08,5.269,6.84,6.4,10.525.756-1.336,3.85-4.656-1.698-10.868l-4.702.342Z"/>
          </g>
          <path class="cls-51" d="m901.525,27.909l-.092.255c-.128,1.069.671,2.884,1.594,1.228.631-1.132-1.17-2.768-1.502-1.483Z"/>
          <path class="cls-51" d="m912.496,34.43c-.154-.244-.209-.375-.497-.376h-.23c-.56.065-.778.778-.764,1.33.005.206.408,1.187.587,1.252,1.15.417,1.444-1.352.904-2.207Z"/>
          <path class="cls-51" d="m912.997,37.052h0c-.091-.026-.188-.031-.271.006-1.049.458-.957,2.766.054,2.496.684-.183.862-1.6.555-2.224-.07-.143-.201-.239-.339-.278Z"/>
        </g>
        <path class="cls-29" d="m877.488,62.246c-1.013.07-19.718,12.644-21.964,16.113-.92,1.421,2.109,5.963,4.451,5.462,5.338-1.143,15.328-4.115,18.04-9.054,2.713-4.939-.527-12.521-.527-12.521Z"/>
      </g>
      <path class="cls-2" d="m717.167,148.15c.903-.301,121.925-60.784,131.49-62.539,13.378-2.455,23.197-5.129,23.197-5.129l32.196-5.333c5.628-.288,9.199,1.532,10.14,8.192s-6.304,39.556-1.079,59.697c5.225,20.141,15.103,25.543,15.103,25.543"/>
      <path class="cls-29" d="m907.912,85.643c-.428-2.687-1.529-7.68-3.09-8.383-2.895-1.304-16.485-3.425-19.651-5.109-2.023.048-3.154,1.517-3.599,3.15-.261.955.256,2.767,1.795,4.677,3.446,4.367,8.409,6.26,14.029,8.409,1.49.57,5.646,1.132,7.241,1.084,4.187-.129,3.274-3.826,3.274-3.826Z"/>
      <path class="cls-29" d="m873.37,81.491c-.846-3.102.758-6.316.758-6.316,0,0,8.012-4.541,11.621-2.779,3.609,1.762.253,5.305-.505,6.316-.758,1.011-11.116,5.558-11.874,2.779Z"/>
      <path class="cls-29" d="m846.338,85.281s.758-6.063,7.074-7.326,6.316,1.263,6.821,2.021.505,3.537.505,3.537c0,0,.505,3.032-4.042,4.042-4.547,1.011-9.095,3.789-10.358-2.274Z"/>
      <path class="cls-44" d="m872.469,78.364c-.716-1.205-.329-2.165-.11-3.188.189-.675.366-1.675,1.031-2.252,1.238-1.002,2.9-1.391,4.37-1.613,1.122-.165,2.149-.343,3.175.434.088.066.106.191.04.279-.878,1.031-1.829,1.1-2.752,1.386-1.209.398-2.339.73-3.354,1.362.027-.014.107-.107.102-.106.011-.019-.005-.004-.02.021-.799,1.2-.66,2.738-2.195,3.741-.096.064-.228.035-.286-.065h0Z"/>
    </g>
    <g>
      <path class="cls-23" d="m657.694,126.028c2.975,5.504,5.95,11.008,8.925,16.512-3.274-1.955-6.548-3.91-9.822-5.866-.64-.382-1.29-.772-1.787-1.327-.771-.859-1.096-2.018-1.397-3.132-1.062-3.924-2.123-7.847-3.185-11.771.056.207,4.215.565,4.785.988,1.126.835,1.804,3.345,2.481,4.596Z"/>
      <path class="cls-54" d="m625.216,146.624c-1.482.541-2.772,1.511-4.299,1.924-1.932.522-4.188.146-5.818,1.255-.55.375-.995,1.111-.597,1.629.234.304.663.397,1.054.466,4.078.716,8.201,1.2,12.341,1.449-.193-.012,4.468-9.332-2.681-6.723Z"/>
      <path class="cls-15" d="m630.416,115.99c.136-1.141.334-2.272.501-3.409.629-4.273.818-8.607,1.542-12.864.724-4.257,1.728-7.641,4.316-11.029.887-1.162,2.022-2.062,3.315-2.706,1.241-.617,3.672-1.107,4.547-.027.307-.059-.222.232,0,0,1.879-1.963,6.677,1.51,9.36,3.314,1.229.827,2.429,1.731,3.377,2.893.948,1.162,1.631,2.61,1.681,4.141.067,2.044-1.031,4.024-2.6,5.261-.328.259-.678.492-.965.8-.927.998-.995,2.533-1.007,3.919-.025,2.868-.05,5.736-.075,8.604-.005.617-.078,1.356-.603,1.643-.31.17-.682.117-1.027.066-1.914-.284-3.853-.392-5.787-.322-5.334.191-10.714,1.722-15.942.649-.203-.042-.424-.099-.548-.272-.131-.183-.112-.435-.085-.662Z"/>
      <path class="cls-55" d="m661.727,136.919c2.78,1.732,5.551,3.58,7.595,6.062,1.354,1.645,2.379,3.617,2.42,5.7s-1.063,4.259-3.049,5.169c-1.516.695-3.307.587-4.953.247-.419,1.369-1.359,2.59-2.608,3.389-2.039,1.304-4.656,1.415-7.12,1.404-9.719-.043-17.648-1.104-27.015-3.551-.372-.097-.774-.216-.994-.516-.17-.232-.196-.53-.209-.811-.107-2.275.261-4.569,1.076-6.712.219-.575.486-1.163.978-1.56.916-.74.494-.808,1.685-.629-2.664-2.497-3.584-6.514-2.25-9.827.12-.297.268-.603.543-.787.251-.168.571-.209.878-.244,5.998-.682,12.039-1.034,18.081-1.055,2.649-.009,5.841-.356,8.435.148,2.268.441,4.584,2.378,6.507,3.573Z"/>
      <path class="cls-23" d="m653.286,107.77c-.825.793-1.802,1.47-2.974,1.794-1.459.404-3.105.232-4.657-.068-1.713-.331-3.447-.851-4.772-1.94-.972-.798-1.66-1.855-2.128-2.937-1.288-2.977-1.006-6.223.013-9.068.642-1.794,1.689-3.62,3.561-4.464,1.483-.669,3.577-2.728,5.317-2.501,2.028.265,4.851.619,6.665,1.686,1.374.809,1.829,4.375,2.294,5.807.35,1.076-.087,2.169-.105,3.247-.055,3.24-.832,6.157-3.212,8.444Z"/>
      <path class="cls-57" d="m651.694,105.845c.047,1.096-.554,1.175-1.005,1.404-.956.444-2.071.502-3.072.179-.483-.15-1.061-.236-1.171-1.26-.011-.1.026-.194.092-.26.695-.703,1.015-.589,1.398-.6.541-.049,1.631-.122,2.173-.143.398-.008.623-.257,1.447.422.084.063.135.16.139.259h0Z"/>
      <path class="cls-23" d="m654.941,100.727c-1,.783-1.996.869-2.989.429,0,0,1.765,3.139,2.989-.429Z"/>
      <path class="cls-23" d="m647.789,101.27c-1.154.53-2.143.383-3.007-.275,0,0,.99,3.463,3.007.275Z"/>
      <path class="cls-19" d="m653.525,115.155c1.011,2.008,1.917,4.1,2.677,6.249.143.405.288.855.151,1.263-.112.336-.393.567-.673.753-1.01.671-2.206,1.003-3.387.941-.328-.017-.722-.122-.819-.464-.308.352-.869.283-1.221-.017s-.544-.765-.724-1.211c-.563-1.394-1.126-2.789-1.689-4.183-.769-1.905-3.284-4.509-2.449-6.38,1.723-3.862,6.755.312,8.133,3.049Z"/>
      <path class="cls-19" d="m657.276,132.96c-.004,1.529-.678,3.148-1.729,4.29-1.258,1.366-3.039,1.804-4.806,1.97-7.409.699-14.495-.872-21.649-2.658-.887-.221-1.882-.517-2.418-1.362-.418-.659-.411-1.398-.393-2.207.128-5.876.341-10.341,1.594-16.117.291-1.342.669-2.701,1.424-3.811,1.487-2.188,3.849-3.475,6.321-3.916,2.472-.44,4.507-.171,6.886.253,2.379.424,4.705.932,6.997,1.824,2.029.789,2.232,2.483,2.86,4.416,1.435,4.413,4.923,13.163,4.913,17.317Z"/>
      <path class="cls-15" d="m654.742,97.059c-.015.147-.038.309-.149.408-.109.098-.271.104-.418.1-1.413-.031-2.793-.405-4.157-.777-.918-.25-1.836-.5-2.754-.75-.372-.101-.783-.233-.963-.574-.132-.249-.104-.549-.067-.828.105-.803.253-1.601.443-2.389.055-.226.113-.461.068-.69s-.229-.448-.462-.452c-.151-.002-.288.083-.41.172-.998.731-1.598,1.883-2.05,3.035-.239.61-.458,1.251-.897,1.738s-1.173.781-1.765.498c-.06,1.131-.024,2.714-.999,4.014-.051.068.215.746.163.813-.156.2-1.12-.472-1.3-.65-.583-.579-.157-1.626-.978-1.596-.178.006-.378.022-.512-.096-.111-.098-.139-.257-.153-.403-.074-.749.041-1.503.157-2.247.24-1.537.494-3.087,1.065-4.535s1.489-2.804,2.808-3.63c.722-.453,1.536-.732,2.328-1.045.598-.236,1.194-.496,1.826-.613.646-.12,1.31-.089,1.966-.044,1.8.122,4.343-.093,5.974.675,1.856.874,2.183,2.662,3.028,4.531s1.499,4.244,1.028,6.241c-.143.605-.386,1.25-.928,1.555-.154-.841-1.178-6.11-1.651-6.047.094,1.709-.07,1.939-.242,3.586Z"/>
      <path class="cls-23" d="m640.52,104.536l-2.251,4.895c-.323.702-.184,1.529.352,2.086,1.316,1.369,4.081,3.553,7.73,2.662,1.178-.608,2.338-5.45,2.338-5.45l-8.169-4.194Z"/>
      <path class="cls-54" d="m653.674,139.349c1.937-.182,3.359.825,4.805,1.693,1.442.899,2.812,1.963,4.004,3.26,2.247,2.391,4.413,7.194,1.393,9.853,0,0-.27-.117-.27-.117-.232-1.81-.089-3.07-.56-4.447-1.016-2.792-3.463-4.921-5.797-6.768-1.254-.983-2.668-1.633-3.695-3.207l.12-.268h0Z"/>
      <path class="cls-54" d="m651.631,152.225c-2.078.745-4.028.288-5.989.038-4.919-.742-9.992-1.868-14.272-4.544-.856-.633-1.607-1.499-1.949-2.515,0,0,.225-.189.225-.189,1.801.672,3.458,1.513,5.242,2.173,1.787.62,3.633,1.127,5.497,1.603,1.867.468,3.749.914,5.642,1.342,1.896.447,3.823.588,5.636,1.8,0,0-.033.292-.033.292h0Z"/>
      <path class="cls-23" d="m638.928,132.436c.167.482.71,1.34.71,1.34,0,0,1.477.435,2.071.514,3.974.53,7.446.993,11.288,2.394,2.071.755,4.063,1.805,5.754,3.229.852.717,1.625,1.532,2.266,2.443.541.77,1.446,2.02,1.308,3.013-.062.444-.478.869-.915.767-.189-.044-.432-.16-.541.001-.079.116.005.271,0,.412-.005.176-.151.316-.304.403-.575.33-1.389.148-1.768-.397-.144-.043-.195.718-.905.663-.781-.06-1.308-.623-1.796-1.207-.389-.466-.79-1.178-1.417-1.347.092.761.542,1.978.362,2.428-.134.334-1.244.664-1.713-.135s-.462-1.801-.879-2.629c-.512-1.016-1.51-2.33-1.51-2.33,0,0-11.107.522-14.172.367-.739-.037-1.508-.095-2.145-.471-.644-.38-1.068-1.036-1.449-1.679-2.274-3.835-4.966-10.164-5.809-14.542-.059-.308-.114-.631-.02-.93.208-.659,1.006-.897,1.691-.994,1.714-.243,4.903-.648,6.477.325,1.514.937,2.867,6.783,3.414,8.36Z"/>
      <path class="cls-19" d="m639.254,124.547c.043.61.073,1.262-.187,1.805-.266.554-.79.901-1.323,1.163-3.004,1.477-6.571.942-9.918.214-.223-.048-.455-.102-.623-.256-.194-.177-.272-.455-.335-.721-.577-2.419-.642-4.864-.527-7.182.077-1.556.508-3.117,1.176-4.451.814-1.625,2.268-3.427,3.591-4.014,1.238-.55,2.726-.521,3.995-.039,4.988,1.895,3.796,8.505,4.151,13.481Z"/>
      <path class="cls-25" d="m637.212,118.904c1.2.295,1.308,1.087,1.612,1.763.581,1.399.85,2.92.75,4.44-.036.749-.016,1.572-.999,2.189l-.291-.036c-.734-.687-.746-1.234-.851-2.059-.182-.976-.527-2.947-.686-3.928-.094-.684-.445-1.237.198-2.247l.268-.121h0Z"/>
      <path class="cls-25" d="m652.181,114.759c1.2.45,1.323,1.286,1.69,2.033.345.756.656,1.524.926,2.306.269.782.484,1.583.681,2.389.193.806.529,1.569-.073,2.629l-.28.09c-1.139-.499-1.34-1.295-1.684-2.047-.34-.753-.662-1.511-.93-2.288-.267-.777-.494-1.567-.685-2.37-.17-.811-.584-1.535.079-2.643l.277-.098h0Z"/>
      <path class="cls-15" d="m639.72,102.199c-.196,1.064,1.019,12.588.656,13.607-.366,1.028-.951,2.146-2.009,2.41-.52-1.61-3.312-7.853-2.195-15.477.028-.188.022-.393.142-.541.175-.216.494-.226.772-.217.864.029,1.727.074,2.59.133"/>
      <path class="cls-23" d="m640.929,100.129c-.276-.296-.579-.568-.903-.812-.368-.277-.784-.524-1.243-.562-.671-.056-1.33.374-1.639.972s-.297,1.329-.065,1.962c.151.413.392.792.701,1.105.323.327.715.578,1.123.79.29.15.601.285.928.288s.674-.152.812-.449"/>
    </g>
    <g>
      <path class="cls-47" d="m388.436,145.945c.102.542.241,1.084.497,1.572.356.68.924,1.23,1.549,1.675,1.733,1.235,3.884,1.708,5.983,2.061,2.54.427,5.178.715,7.666.049,1.476-.395,2.861-1.124,4.022-2.117.557-.476,1.07-1.022,1.388-1.682.52-1.08,1.143-2.159,1.077-3.356-.041-.737-.081-1.473-.122-2.21-.02-.36-.044-.735-.223-1.048-.36-.631-1.867-.96-2.592-1.014-5.299-.398-10.574.809-15.876,1.153-.677.044-1.373.068-2.04-.077-.827-.18-.91-.533-1.304.226-.621,1.196-.262,3.507-.026,4.768Z"/>
      <path class="cls-46" d="m389.981,159.418c-.497.828-.656,1.643-.596,2.539.06.895.701,1.545,1.565,1.904,1.073.446,2.169.185,3.126-.571s1.756-2.002,2.779-2.668c1.867-1.216,4.005-.835,6.061-1.404.158-.044.288-.089.373-.226.085-.137.07-.296.038-.445-.211-.969-.52-1.816-1.082-2.653-.103-.153-.226-.296-.439-.416-.213-.12-.463-.158-.778-.202-2.434-.344-5.052-.996-7.325.148-.765.385-1.053,1.096-1.541,1.647-.696.787-1.683,1.52-2.18,2.349Z"/>
      <path class="cls-47" d="m415.09,140.992c2.449.094,5.147.697,7.409,1.639,1.141.475,2.331,1.084,2.907,2.178.722,1.373.221,3.133-.794,4.306s-2.444,1.891-3.835,2.578c-2.992,1.479-5.984,2.958-8.976,4.437-1.729.855-3.461,1.711-5.251,2.429-2.01.807-4.085,1.438-6.156,2.068-1.191-1.495-2.27-3.079-3.225-4.735-.132-.228-.265-.477-.24-.739.024-.245.183-.454.342-.643,2.439-2.909,6.012-4.56,9.222-6.587.47-.297-2.106-1.474-1.792-1.933.901-1.32,3.518-3.213,4.997-3.814,1.991-.809,3.587-1.253,5.392-1.184Z"/>
      <path class="cls-46" d="m419.832,157.662c.493.338,1.721,1.503,2.246,1.788.886.48,1.988.636,2.91.229s1.578-1.448,1.373-2.435c-.193-.927-1.019-1.562-1.574-2.33-.559-.772-1.649-2.518-2.401-3.104-.608-.474-1.406-.621-2.174-.688-.43-.038-.887-.05-1.267.155-.249.135-.448.355-.71.463-.23.094-.486.093-.735.088-.803-.016-1.606-.056-2.407-.12-.024.933-.096,1.864-.217,2.789-.032.247-.297,1.052-.198,1.281.176.409.215.224.716.324,1.618.324,3.04.6,4.437,1.56Z"/>
      <path class="cls-47" d="m416.3,156.691c-.153.324-.319.663-.614.866-.246.169-.551.223-.845.27-5.467.871-11.036.892-16.566.652-4.462-.194-8.975-.568-13.194-2.033-.898-.312-1.834-.716-2.354-1.512-.424-.65-.502-1.476-.389-2.244.367-2.471,2.569-4.352,4.956-5.089s4.949-.551,7.438-.338c4.357.375,8.709.805,13.055,1.296,2.208.25,4.414.517,6.619.795,1.098.138,2.846-.023,3.356,1.19.773,1.838-.699,4.539-1.461,6.149Z"/>
      <path class="cls-47" d="m388.946,141.104c-2.344,1.039-5.617,2.743-7.346,4.636s-2.736,4.631-1.965,7.076c.169.535.424,1.052.814,1.455.605.625,3.1,1.701,3.945,1.905,4.145,1.001,6.881-.384,11.027-1.379,1.544-.371,3.094-.803,4.469-1.597s2.574-1.992,3.077-3.498.196-3.328-.984-4.39c-.951-.856-2.282-1.115-3.542-1.341-3.131-.561-5.339-1.631-8.47-2.191"/>
      <path class="cls-27" d="m417.654,152.173c-.17-.765-.375-1.428-.656-2.027l.685.561c-7.342.644-14.668-1.06-21.818-2.369-2.379-.372-4.686-.556-7.133-1.265,0,0-.017-.293-.017-.293,3.637-1.399,7.419-.499,11.094-.062,4.714.795,9.572,1.706,14.318,2.047,1.417.089,2.866.264,4.268.607.13.972.052,2.023-.452,2.849,0,0-.289-.049-.289-.049h0Z"/>
      <path class="cls-27" d="m413.687,144.42c.005,1.175-.591,1.377-1.052,1.8-.472.403-.964.774-1.479,1.109-.515.334-1.062.621-1.62.893-.561.269-1.035.66-2.066.239l-.165-.243c.006-1.094.568-1.377,1.045-1.783.479-.403.97-.79,1.491-1.13.522-.339,1.068-.642,1.632-.913.576-.251,1.017-.723,2.059-.223l.155.249h0Z"/>
      <path class="cls-27" d="m398.89,158.266c.752-.988,1.504-.834,2.257-.937.753-.081,1.505-.125,2.258-.126.753,0,1.505.057,2.258.132.753.079,1.505.01,2.259.923v.294c-.752.915-1.504.847-2.257.927-.753.077-1.505.135-2.258.136-.753,0-1.505-.042-2.258-.122-.753-.102-1.505.054-2.259-.933v-.294h0Z"/>
      <path class="cls-37" d="m394.377,112.198c-.097-.024-.198-.069-.294-.039-.07.022-.122.081-.164.141-.275.394-.291.962-.67,1.257-.394.307-1.004.138-1.346-.226-.182.341-.696.445-.996.202-.468.826-1.108,1.573-1.927,2.053s-1.828.674-2.74.408c-.391-.114-.79-.346-.914-.734-.097-.305-.002-.636.109-.937.202-.548.466-1.086.877-1.501s.99-.693,1.571-.635c-.305-.106-.595-.254-.86-.439-.11-.077-.227-.183-.218-.317.008-.124.123-.213.235-.267.462-.224,1.026-.134,1.48.107s.818.617,1.174.986c-.3-.175-.366-.645-.127-.897.336-.352.92-.16,1.357.053-.252-.283-.472-.608-.551-.978s.007-.792.287-1.046.767-.279,1.023,0c.009-.922-.559-1.934-.045-2.699.171-.255.442-.43.73-.539,1.187-.45,2.602.236,3.23,1.338.51.896.564,1.977.347,2.968-.129.593-.741,1.943-1.569,1.742Z"/>
      <path class="cls-20" d="m414.084,124.53c3.143,3.566,5.711,7.166,4.526,10.992l-6.835-2.217-2.217-4.988,4.526-3.787Z"/>
      <path class="cls-13" d="m389.431,111.959c.823.178,1.041-.241,1.382.389.1.134.231.112.138,1.044-.034.389-.516.868-.666.903-.156.05-.276-.011-.415-.022-.628-.102-1.186-.561-1.377-1.223-.183-.53-.136-.91.647-1.124.045-.022.243.032.292.033h0Z"/>
      <path class="cls-37" d="m406.249,113.268c.1.009.21-.002.291.057.059.043.09.115.11.186.134.461-.032,1.005.233,1.405.275.417.907.451,1.348.216.064.382.517.644.88.51.179.932.547,1.844,1.17,2.561s1.517,1.223,2.466,1.262c.407.017.86-.076,1.101-.404.19-.258.205-.602.196-.922-.017-.584-.094-1.178-.351-1.703s-.716-.973-1.286-1.104c.323-.003.645-.051.955-.141.129-.038.273-.101.308-.231.032-.12-.048-.241-.137-.328-.366-.359-.93-.455-1.436-.371s-.972.323-1.428.559c.34-.07.553-.495.407-.809-.205-.441-.821-.446-1.303-.383.329-.187.642-.425.834-.751s.247-.752.062-1.083-.638-.509-.969-.327c.286-.876,1.148-1.654.905-2.544-.081-.296-.282-.549-.519-.744-.981-.805-2.541-.608-3.488.236-.769.686-1.166,1.694-1.277,2.701-.067.603.082,2.078.93,2.152Z"/>
      <path class="cls-20" d="m393.904,113.316c.812.708,1.721,1.32,2.731,1.694,3.432,1.269,7.86-.279,10.338-2.971,1.636-1.777,2.853-4.024,3.028-6.434.593-8.197-7.892-11.218-14.213-8.5-4.957,2.132-6.38,12.29-1.884,16.211Z"/>
      <path class="cls-18" d="m396.923,109.558c-.145.034-.289.082-.397.167-.111.087-.176.208-.207.333-.081.324.063.677.331.933s.65.423,1.047.505c.828.17,2.041-.276,1.689-1.126-.299-.722-1.703-.988-2.463-.812Z"/>
      <path class="cls-30" d="m395.735,110.154c.096-1.399,1.728-1.185,2.662-.986.907.379,2.167.906,1.748,2.15-.03.102-.099.181-.188.226-.868.478-1.054.258-1.376.17-.308-.09-.6-.143-.871-.232-.299-.109-.954-.284-1.246-.37-.073-.024-.708-.614-.729-.958h0Z"/>
      <path class="cls-20" d="m406.771,107.709c.223-1.014.939-1.884,1.824-2.218s1.943-.51,2.645.155c.413.391.721.95.748,1.56.03.685-.285,1.724-.719,2.219-.759.866-1.973,1.326-2.996.985s-1.789-1.549-1.603-2.737"/>
      <path class="cls-34" d="m410.943,128.41l4.341-3.602c-2.468-3.715-5.263-7.106-10.475-8.11l6.134,11.712Z"/>
      <path class="cls-34" d="m392.747,117.603c-1.401.629-2.722,1.438-3.409,2.811-.557,1.113-.682,2.384-.799,3.622-.49,5.205-.98,10.449-.478,15.653.076.79.028,2.247.613,2.784.413.379.981.529,1.525.665,3.186.8,6.482,1.848,9.758,2.087s6.751-.956,9.724-2.353c.582-.273,1.173-.611,1.498-1.166.329-.563.329-1.253.32-1.905-.073-5.114-.148-10.239-.772-15.315-.105-.853-.229-1.716-.569-2.505-.434-1.006-1.191-1.832-1.935-2.637-.988-1.069-2.036-2.177-3.414-2.646-.826-.281-1.714-.31-2.586-.336-3.314-.1-6.366-.155-9.477,1.242Z"/>
      <path class="cls-37" d="m402.773,90.013c-.206-.241-.49-.446-.808-.445-.376.001-.692.289-.904.6-.54.79-.657,1.785-.76,2.737-.417-1.01-.851-2.048-1.618-2.827s-1.957-1.244-2.977-.851c-.125.048-.248.11-.337.21-.278.312-.104.8.083,1.174-2.38.038-4.721,1.168-6.231,3.009-.25.305-.49.695-.367,1.069.254.772,1.634.531,1.969,1.272-.412.751-1.322,1.051-1.974,1.606-.709.605-1.108,1.556-1.042,2.485.01.137.036.288.143.374.098.079.235.082.361.08.881-.014,1.761-.091,2.631-.231-.172.462.414,3.304.532,3.025,1.388-3.272,3.241-4.917,5.802-5.952-.074.582-.094,1.17-.06,1.755.017.28.092.619.36.7.199.06.405-.059.574-.179.391-.278.754-.594,1.084-.942.082.719.226,1.432.431,2.126.113.385.304.82.695.911.278.064.561-.076.798-.235.874-.585,1.521-1.499,1.783-2.517.053,1.296.108,2.61.505,3.845s1.183,2.402,2.351,2.965c.421.203.925.321,1.352.131.497-.22.74-.774.939-1.28.205.491.703.846,1.235.879.429.027.87-.139,1.282-.018.445.13.734.558.914.985.035.082.073.173.153.213.161.081.328-.096.41-.256.428-.832.488-1.798.532-2.732.079-1.673.116-3.439-.682-4.911-.425-.783-1.067-1.438-1.452-2.241-.27-.564-.406-1.184-.663-1.754-.492-1.09-1.44-1.966-2.567-2.368-.544-.194-1.126-.277-1.702-.251-.492.022-1.136.366-1.606.281-.508-.092-.444-.506-.527-.938-.104-.543-.282-1.079-.646-1.505Z"/>
      <path class="cls-13" d="m411.299,114.685c.673.453.597.828.254,1.272-.475.686-1.384.923-2.097.607-.131-.076-.436-.696-.342-1.069.259-1.08.341-.813.754-1.154.441-.035.417.182,1.144.282.046.016.25.028.287.062h0Z"/>
      <path class="cls-20" d="m396.2,117.461c3.556,3.402,7.616,4.118,7.465-.047l-.704-5.071-7.136.423.376,4.695Z"/>
      <path class="cls-20" d="m388.775,130.349s6.928,8.775,9.329,8.96,12.562-9.329,12.562-9.329h3.602s-1.755-2.494-2.771-3.048-2.956-.924-4.711,0-6.835,4.341-6.835,4.341l-6.189-7.02-4.988,6.096Z"/>
      <path class="cls-20" d="m406.048,132.751s9.144,5.727,12.562,2.771c1.663-5.727-8.498-6.373-8.498-6.373l-4.064,3.602Z"/>
      <path class="cls-34" d="m390.9,118.619c-2.309.831-5.819,3.602-5.173,7.759s4.064,6.281,4.064,6.281l7.482-5.912s-4.616-8.761-6.373-8.128Z"/>
      <path class="cls-26" d="m397.14,126.809c-1.062.076-1.11-.31-1.416-.593-.282-.285-.545-.569-.787-.862-.531-.826-1.281-1.186-1.066-2.36,0,0,.153-.251.153-.251.864-.534,1.274-.152,1.673.111.826.528,1.463,1.288,1.841,2.182.163.44.552.799-.132,1.65l-.266.124h0Z"/>
      <path class="cls-26" d="m408.764,121.69c1.069-.089,1.121.364,1.395.695.654.877,1.049,1.942,1.078,3.045-.024.261-.393.897-.901.875-.483-.124-.718-.219-.878-.359-.346-.46-.609-.968-.867-1.494-.156-.358-.282-.734-.382-1.127-.082-.405-.394-.684.295-1.497l.26-.137h0Z"/>
      <path class="cls-30" d="m415.294,130.307c-1.23.447-1.861.03-2.688-.089-.415-.064-.928-.144-1.304-.144.001.012.112-.015.13-.026-.678.504-1.581,1.201-2.249,1.824-.621.574-1.04,1.242-2.273,1.51-.11.024-.219-.044-.245-.153-.309-1.26.349-2.038.926-2.793.84-1.048,1.59-1.851,2.807-2.55.918-.428,1.892-.025,2.769.241.901.343,1.939.607,2.271,1.924.028.111-.037.223-.143.256h0Z"/>
      <path class="cls-20" d="m399.934,125.867c-.335-.058-.678-.04-1.016-.074-.376-.038-.765-.138-1.124-.018s-.628.591-.387.882c.074.089.181.143.285.194.781.379,3.319,1.697,4.168,1.231,1.13-.62-1.254-2.098-1.926-2.214Z"/>
      <path class="cls-20" d="m400.136,127.117c-1.478-.369-2.721-.51-3.935-.187-.325.087-.669.231-.827.528-.172.324-.07.733-.204,1.074-.14.359-.516.589-.639.954-.194.574.312,1.146.356,1.75.028.38-.13.763-.06,1.137.102.545.567,1.129,1.121,1.152,1.325.056,6.724-4.394,8.992-5.301l-4.803-1.108Z"/>
      <path class="cls-30" d="m395.317,128.522c.96.796.7,1.437.736,2.101.002.472-.006.965-.026,1.431-.002.015.002.328-.008.124-.013-.054,0-.007-.002-.014.008.057.086.179.11.195.011.011-.007-.009-.07-.021-.028-.003-.07-.012-.123-.004-.02,0-.017.011.024-.004.336-.089.947-.441,1.465-.748,2.29-1.246,4.39-3.429,7.185-3.493.13,0,.204.168.116.264-.903,1.057-1.805,1.954-2.855,2.758-1.868,1.264-3.344,2.973-5.688,3.596-1.31.13-2.365-.992-2.549-2.188-.057-.765.12-1.42.271-2.139.172-.647.112-1.314,1.122-1.836.088-.053.207-.101.293-.021h0Z"/>
    </g>
    <g>
      <path class="cls-12" d="m165.23,124.245c1.339.67,12.509,15.263,14.115,19.85.603,1.722-1.674,3.184-3.25,2.992s-11.318-9.848-11.921-13.654.228-9.603,1.056-9.188Z"/>
      <path class="cls-32" d="m159.865,120.643s1.784-.222,4.617,1.754,6.101,7.435,6.101,7.435c0,0-4.099,2.408-5.374,2.566-3.675.457-5.345-11.756-5.345-11.756Z"/>
      <path class="cls-14" d="m152.195,141.02c.386-.048,3.609-1.233,6.995-1.106,1.879.071,9.025-.057,14.71,2.013,4.558,1.66,7.959,5.476,8.594,6.373,1.427,2.017-1.145,7.009-2.438,7.74-2.055,1.161-31.949.616-30.158-12.697.763-1.427,2.297-2.324,2.297-2.324Z"/>
      <path class="cls-14" d="m143.504,140.966s-1.14,8.164,3.518,12.328,19.748-.388,20.791-5.175-.218-10.065-.218-10.065l-24.091,2.912Z"/>
      <path class="cls-38" d="m143.194,144.714c-.827.156.678-19.974,8.442-22.957,4.363-1.676,10.012-2.374,13.116,1.772,3.104,4.147,4.609,16.559,4.358,18.038-1.442,8.511-17.826,1.621-25.916,3.147Z"/>
      <path class="cls-12" d="m153.21,118.462l1.047,4.957s1.26,1.447,3.62.863c2.708-.67,2.937-2.195,2.937-2.195l-.889-4.718-6.714,1.094Z"/>
      <g>
        <path class="cls-15" d="m151.892,119.652c-4.481.73-11.331-6.16-7.785-14.04,1.138-2.529,2.699-4.649,6.315-6.231,2.247-.984,5.68-1.21,7.449-1.002,4.423.52,7.56,3.218,8.553,7.734,1.063,4.836-.399,12.813-6.016,12.652-5.865-.167-8.039.81-8.515.887Z"/>
        <path class="cls-12" d="m164.922,111.557c.695,5.587-3.635,9.688-7.342,10.016-3.903.345-9.823-2.206-10.518-7.793-.695-5.587-1.186-11.498,7.487-12.711,7.775-1.088,9.679,4.901,10.374,10.488Z"/>
        <path class="cls-12" d="m163.474,111.815c.007-.983.498-1.93,1.252-2.414s1.699-.855,2.481-.378c.46.281.856.738,1,1.298.163.629.076,1.653-.228,2.197-.532.952-1.566,1.618-2.581,1.504s-1.962-1.082-2.025-2.219"/>
        <path class="cls-12" d="m148.552,114.191c-.248-.952-.996-2.075-1.846-2.359s-1.811-.046-2.452.609c-.377.385-.608,1.25-.611,1.829-.004.649.328,1.264.756,1.717.749.793,1.873,1.175,2.829.816s1.584-1.303,1.366-2.421"/>
        <path class="cls-15" d="m157.423,100.332s-4.016,5.158-6.14,6.112.809-3.206.809-3.206c0,0-6.331,5.963-6.733,4.116s2.148-6.305,7.096-6.749,4.969-.273,4.969-.273Z"/>
        <path class="cls-53" d="m155.069,116.724c.772-.691.893-.467,1.148-.492.487-.052.702-.059,1.208-.09.267-.029.442-.206,1.214.381.085.061.142.15.163.244.215.953-.187,1.111-.533,1.345-.353.236-.795.429-1.287.468-.49.042-.998-.069-1.401-.28-.381-.223-.862-.295-.663-1.325.02-.103.075-.189.15-.252h0Z"/>
      </g>
      <path class="cls-14" d="m148.275,145.907c.386-.048,3.525-.613,6.911-.486s21.961,5.75,23.388,7.767.073,7.515-1.374,7.852-33.014.503-31.222-12.809c.763-1.427,2.297-2.324,2.297-2.324Z"/>
      <path class="cls-43" d="m161.228,147.891c1.886-.614,3.604-.179,5.334.128,4.256.8,8.593,1.87,12.335,4.176,1.41.807,1.09,2.571.238,3.603-.078.093-.231.078-.293-.026-.417-.623-.578-1.137-.849-1.732-.128-.262-.13-.109.03,0,.041.025-.174-.087-.177-.087-3.698-1.806-7.799-2.69-11.752-3.849-1.67-.454-3.367-.713-4.913-1.924-.104-.075-.077-.253.048-.29h0Z"/>
      <path class="cls-56" d="m185.606,155.806c-.809.65-1.777,1.091-2.809,1.209-.319.036-.825-.129-1.219-.173-.832-.092-1.728-.505-1.145-2.618.758-2.747,2.656-8.115,6.358-7.476,2.248.388,3.138,2.355,2.571,3.803-.33.841-.806,1.618-1.376,2.319l-2.381,2.936Z"/>
      <path class="cls-12" d="m146.961,129.236s-2.204,11.401,1.807,15.56c4.011,4.159,11.001,6.264,13.279,5.852s2.772-1.639,2.168-3.375c-.389-1.118-9.042-6.12-9.583-7.347s.978-12.931-2.318-13.426-4.682.842-5.352,2.736Z"/>
      <path class="cls-32" d="m145.094,136.067s10.024.759,10.336-.122c.478-1.353.754-9.539-2.24-10.719s-7.723-.721-8.096,10.841Z"/>
      <path class="cls-12" d="m159.677,144.085s3.881-1.279,6.719,2.01c.907,1.052,1.273,1.912,1.321,2.294s.381,2.023-.75,2.293-.495,2.261-3.297,1.575-5.334-1.277-5.954-4.176,1.961-3.996,1.961-3.996Z"/>
      <path class="cls-12" d="m172.691,157.862s-.394,1.688.147,2.569,3.556.851,3.556.851c0,0-.498-2.612-.848-2.655s-2.856-.766-2.856-.766Z"/>
      <path class="cls-28" d="m180.51,155.436c.873,1.114,1.391,2.588,1.189,3.129-.524,1.396-1.924,2.961-2.763,3.3-2.252.909-11.08-4.326-5.988-9.589,3.919-3.327,6.217,1.444,7.563,3.161Z"/>
      <path class="cls-24" d="m176.14,161.315s-4.075-3.633-3.447-6.213,3.07-3.746,4.036-3.608-.382-.988-2.93.02c-2.549,1.007-2.996,3.651-2.498,5.573s3.884,4.174,4.839,4.228Z"/>
      <path class="cls-24" d="m180.411,154.745c.308-.297,1.774-1.687,2.539-3.162s2.232-4.936,3.841-4.834c-.887.153-2.553-.76-4.636,2.604-1.531,3.641-1.744,5.392-1.744,5.392Z"/>
    </g>
    <g>
      <g>
        <path class="cls-4" d="m227.509,152.606l1.183,3.024c.178.455.617.755,1.106.755h1.492c.656,0,1.188-.532,1.188-1.188v-6.048c0-.656-.532-1.188-1.188-1.188h-1.492c-.489,0-.928.3-1.106.755l-1.183,3.024c-.109.278-.109.587,0,.866Z"/>
        <line class="cls-4" x1="227.339" y1="152.173" x2="203.266" y2="152.173"/>
      </g>
      <g>
        <rect class="cls-39" x="120.587" y="143.463" width="84.262" height="19.817"/>
        <g>
          <circle class="cls-10" cx="136.884" cy="165.279" r="8.15"/>
          <circle class="cls-39" cx="136.884" cy="165.279" r="1.96"/>
        </g>
        <g>
          <circle class="cls-10" cx="190.395" cy="165.279" r="8.15"/>
          <circle class="cls-39" cx="190.395" cy="165.279" r="1.96"/>
        </g>
        <line class="cls-5" x1="121.342" y1="147.97" x2="204.435" y2="147.97"/>
      </g>
      <rect class="cls-7" x="117.172" y="150.171" width="7.335" height="6.579" rx="2.77" ry="2.77"/>
    </g>
    <g>
      <g>
        <path class="cls-4" d="m469.853,152.606l1.183,3.024c.178.455.617.755,1.106.755h1.492c.656,0,1.188-.532,1.188-1.188v-6.048c0-.656-.532-1.188-1.188-1.188h-1.492c-.489,0-.928.3-1.106.755l-1.183,3.024c-.109.278-.109.587,0,.866Z"/>
        <line class="cls-4" x1="469.684" y1="152.173" x2="445.611" y2="152.173"/>
      </g>
      <g>
        <rect class="cls-39" x="362.932" y="143.463" width="84.262" height="19.817"/>
        <g>
          <circle class="cls-10" cx="379.228" cy="165.279" r="8.15"/>
          <circle class="cls-39" cx="379.228" cy="165.279" r="1.96"/>
        </g>
        <g>
          <circle class="cls-10" cx="432.74" cy="165.279" r="8.15"/>
          <circle class="cls-39" cx="432.74" cy="165.279" r="1.96"/>
        </g>
        <line class="cls-5" x1="363.687" y1="147.97" x2="446.78" y2="147.97"/>
      </g>
      <rect class="cls-7" x="359.517" y="150.171" width="7.335" height="6.579" rx="2.77" ry="2.77"/>
    </g>
    <g>
      <g>
        <path class="cls-4" d="m712.198,151.606l1.183,3.024c.178.455.617.755,1.106.755h1.492c.656,0,1.188-.532,1.188-1.188v-6.048c0-.656-.532-1.188-1.188-1.188h-1.492c-.489,0-.928.3-1.106.755l-1.183,3.024c-.109.278-.109.587,0,.866Z"/>
        <line class="cls-4" x1="712.029" y1="151.173" x2="687.956" y2="151.173"/>
      </g>
      <g>
        <rect class="cls-39" x="605.276" y="142.463" width="84.262" height="19.817"/>
        <g>
          <circle class="cls-10" cx="621.573" cy="164.279" r="8.15"/>
          <circle class="cls-39" cx="621.573" cy="164.279" r="1.96"/>
        </g>
        <g>
          <circle class="cls-10" cx="675.085" cy="164.279" r="8.15"/>
          <circle class="cls-39" cx="675.085" cy="164.279" r="1.96"/>
        </g>
        <line class="cls-5" x1="606.032" y1="146.97" x2="689.125" y2="146.97"/>
      </g>
      <rect class="cls-7" x="601.862" y="149.171" width="7.335" height="6.579" rx="2.77" ry="2.77"/>
    </g>
    <circle class="cls-17" cx="717.807" cy="151.197" r="3.125"/>
    <line class="cls-2" x1="601.862" y1="152.461" x2="474.822" y2="152.461"/>
    <circle class="cls-17" cx="602.33" cy="152.461" r="2.239"/>
    <circle class="cls-17" cx="474.822" cy="152.461" r="2.239"/>
    <line class="cls-2" x1="359.231" y1="152.461" x2="232.191" y2="152.461"/>
    <circle class="cls-17" cx="359.698" cy="152.461" r="2.239"/>
    <circle class="cls-17" cx="232.191" cy="152.461" r="2.239"/>
    <g>
      <path d="m137,192.085h1.629c1.023-.016,1.828-.285,2.414-.809s.879-1.23.879-2.121c0-2-.996-3-2.988-3-.938,0-1.686.268-2.244.803s-.838,1.244-.838,2.127h-2.168c0-1.352.494-2.475,1.482-3.369s2.244-1.342,3.768-1.342c1.609,0,2.871.426,3.785,1.277s1.371,2.035,1.371,3.551c0,.742-.24,1.461-.721,2.156s-1.135,1.215-1.963,1.559c.938.297,1.662.789,2.174,1.477s.768,1.527.768,2.52c0,1.531-.5,2.746-1.5,3.645s-2.301,1.348-3.902,1.348-2.904-.434-3.908-1.301-1.506-2.012-1.506-3.434h2.18c0,.898.293,1.617.879,2.156s1.371.809,2.355.809c1.047,0,1.848-.273,2.402-.82s.832-1.332.832-2.355c0-.992-.305-1.754-.914-2.285s-1.488-.805-2.637-.82h-1.629v-1.77Z"/>
      <path d="m158.023,194.394c0,2.539-.434,4.426-1.301,5.66s-2.223,1.852-4.066,1.852c-1.82,0-3.168-.604-4.043-1.811s-1.328-3.01-1.359-5.408v-2.895c0-2.508.434-4.371,1.301-5.59s2.227-1.828,4.078-1.828c1.836,0,3.188.588,4.055,1.764s1.312,2.99,1.336,5.443v2.812Zm-2.168-2.965c0-1.836-.258-3.174-.773-4.014s-1.332-1.26-2.449-1.26c-1.109,0-1.918.418-2.426,1.254s-.77,2.121-.785,3.855v3.469c0,1.844.268,3.205.803,4.084s1.346,1.318,2.432,1.318c1.07,0,1.865-.414,2.385-1.242s.791-2.133.814-3.914v-3.551Z"/>
      <path d="m164.562,195.8l-1.359,1.418v4.453h-2.168v-18h2.168v10.887l1.16-1.395,3.949-4.172h2.637l-4.934,5.297,5.508,7.383h-2.543l-4.418-5.871Z"/>
      <path d="m172.671,195.226c0-1.977.457-3.549,1.371-4.717s2.125-1.752,3.633-1.752c1.547,0,2.754.547,3.621,1.641l.105-1.406h1.98v12.375c0,1.641-.486,2.934-1.459,3.879s-2.279,1.418-3.92,1.418c-.914,0-1.809-.195-2.684-.586s-1.543-.926-2.004-1.605l1.125-1.301c.93,1.148,2.066,1.723,3.41,1.723,1.055,0,1.877-.297,2.467-.891s.885-1.43.885-2.508v-1.09c-.867,1-2.051,1.5-3.551,1.5-1.484,0-2.686-.598-3.604-1.793s-1.377-2.824-1.377-4.887Zm2.18.246c0,1.43.293,2.553.879,3.369s1.406,1.225,2.461,1.225c1.367,0,2.371-.621,3.012-1.863v-5.789c-.664-1.211-1.66-1.816-2.988-1.816-1.055,0-1.879.41-2.473,1.23s-.891,2.035-.891,3.645Z"/>
    </g>
    <path d="m308.433,121.64c-.211,1.805-.877,3.197-1.998,4.178s-2.611,1.471-4.471,1.471c-2.016,0-3.631-.723-4.846-2.168s-1.822-3.379-1.822-5.801v-1.641c0-1.586.283-2.98.85-4.184s1.369-2.127,2.408-2.771,2.242-.967,3.609-.967c1.812,0,3.266.506,4.359,1.518s1.73,2.412,1.91,4.201h-2.262c-.195-1.363-.619-2.351-1.271-2.962-.652-.611-1.564-.917-2.736-.917-1.438,0-2.564.532-3.381,1.595s-1.225,2.576-1.225,4.539v1.654c0,1.853.387,3.327,1.16,4.421.773,1.095,1.855,1.642,3.246,1.642,1.25,0,2.209-.283,2.877-.85s1.111-1.553,1.33-2.959h2.262Z"/>
    <path d="m532.852,127.054v-17.062h5.578c1.852,0,3.244.383,4.178,1.148s1.4,1.898,1.4,3.398c0,.797-.227,1.502-.68,2.115s-1.07,1.088-1.852,1.424c.922.258,1.65.748,2.186,1.471s.803,1.584.803,2.584c0,1.531-.496,2.734-1.488,3.609s-2.395,1.312-4.207,1.312h-5.918Zm2.25-9.785h3.398c.984,0,1.771-.247,2.361-.74s.885-1.163.885-2.008c0-.939-.273-1.623-.82-2.049s-1.379-.64-2.496-.64h-3.328v5.438Zm0,1.805v6.141h3.715c1.047,0,1.873-.271,2.479-.814s.908-1.291.908-2.244c0-2.055-1.117-3.082-3.352-3.082h-3.75Z"/>
    <path d="m738.51,122.334h-7.148l-1.605,4.465h-2.32l6.516-17.062h1.969l6.527,17.062h-2.309l-1.629-4.465Zm-6.469-1.84h5.801l-2.906-7.98-2.895,7.98Z"/>
    <g>
      <path d="m627.771,193.117l.867-8.508h8.742v2.004h-6.902l-.516,4.652c.836-.492,1.785-.738,2.848-.738,1.555,0,2.789.514,3.703,1.541s1.371,2.416,1.371,4.166-.475,3.143-1.424,4.154-2.275,1.518-3.979,1.518c-1.508,0-2.738-.418-3.691-1.254s-1.496-1.992-1.629-3.469h2.051c.133.977.48,1.713,1.043,2.209s1.305.744,2.227.744c1.008,0,1.799-.344,2.373-1.031s.861-1.637.861-2.848c0-1.141-.311-2.057-.932-2.748s-1.447-1.037-2.479-1.037c-.945,0-1.688.207-2.227.621l-.574.469-1.734-.445Z"/>
      <path d="m650.95,194.394c0,2.539-.434,4.426-1.301,5.66s-2.223,1.852-4.066,1.852c-1.82,0-3.168-.604-4.043-1.811s-1.328-3.01-1.359-5.408v-2.895c0-2.508.434-4.371,1.301-5.59s2.227-1.828,4.078-1.828c1.836,0,3.188.588,4.055,1.764s1.312,2.99,1.336,5.443v2.812Zm-2.168-2.965c0-1.836-.258-3.174-.773-4.014s-1.332-1.26-2.449-1.26c-1.109,0-1.918.418-2.426,1.254s-.77,2.121-.785,3.855v3.469c0,1.844.268,3.205.803,4.084s1.346,1.318,2.432,1.318c1.07,0,1.865-.414,2.385-1.242s.791-2.133.814-3.914v-3.551Z"/>
      <path d="m657.489,195.8l-1.359,1.418v4.453h-2.168v-18h2.168v10.887l1.16-1.395,3.949-4.172h2.637l-4.934,5.297,5.508,7.383h-2.543l-4.418-5.871Z"/>
      <path d="m665.599,195.226c0-1.977.457-3.549,1.371-4.717s2.125-1.752,3.633-1.752c1.547,0,2.754.547,3.621,1.641l.105-1.406h1.98v12.375c0,1.641-.486,2.934-1.459,3.879s-2.279,1.418-3.92,1.418c-.914,0-1.809-.195-2.684-.586s-1.543-.926-2.004-1.605l1.125-1.301c.93,1.148,2.066,1.723,3.41,1.723,1.055,0,1.877-.297,2.467-.891s.885-1.43.885-2.508v-1.09c-.867,1-2.051,1.5-3.551,1.5-1.484,0-2.686-.598-3.604-1.793s-1.377-2.824-1.377-4.887Zm2.18.246c0,1.43.293,2.553.879,3.369s1.406,1.225,2.461,1.225c1.367,0,2.371-.621,3.012-1.863v-5.789c-.664-1.211-1.66-1.816-2.988-1.816-1.055,0-1.879.41-2.473,1.23s-.891,2.035-.891,3.645Z"/>
    </g>
    <g>
      <path d="m387.801,195.941h2.367v1.77h-2.367v3.961h-2.18v-3.961h-7.77v-1.277l7.641-11.824h2.309v11.332Zm-7.488,0h5.309v-8.367l-.258.469-5.051,7.898Z"/>
      <path d="m402.825,194.394c0,2.539-.434,4.426-1.301,5.66s-2.223,1.852-4.066,1.852c-1.82,0-3.168-.604-4.043-1.811s-1.328-3.01-1.359-5.408v-2.895c0-2.508.434-4.371,1.301-5.59s2.227-1.828,4.078-1.828c1.836,0,3.188.588,4.055,1.764s1.312,2.99,1.336,5.443v2.812Zm-2.168-2.965c0-1.836-.258-3.174-.773-4.014s-1.332-1.26-2.449-1.26c-1.109,0-1.918.418-2.426,1.254s-.77,2.121-.785,3.855v3.469c0,1.844.268,3.205.803,4.084s1.346,1.318,2.432,1.318c1.07,0,1.865-.414,2.385-1.242s.791-2.133.814-3.914v-3.551Z"/>
      <path d="m409.364,195.8l-1.359,1.418v4.453h-2.168v-18h2.168v10.887l1.16-1.395,3.949-4.172h2.637l-4.934,5.297,5.508,7.383h-2.543l-4.418-5.871Z"/>
      <path d="m417.473,195.226c0-1.977.457-3.549,1.371-4.717s2.125-1.752,3.633-1.752c1.547,0,2.754.547,3.621,1.641l.105-1.406h1.98v12.375c0,1.641-.486,2.934-1.459,3.879s-2.279,1.418-3.92,1.418c-.914,0-1.809-.195-2.684-.586s-1.543-.926-2.004-1.605l1.125-1.301c.93,1.148,2.066,1.723,3.41,1.723,1.055,0,1.877-.297,2.467-.891s.885-1.43.885-2.508v-1.09c-.867,1-2.051,1.5-3.551,1.5-1.484,0-2.686-.598-3.604-1.793s-1.377-2.824-1.377-4.887Zm2.18.246c0,1.43.293,2.553.879,3.369s1.406,1.225,2.461,1.225c1.367,0,2.371-.621,3.012-1.863v-5.789c-.664-1.211-1.66-1.816-2.988-1.816-1.055,0-1.879.41-2.473,1.23s-.891,2.035-.891,3.645Z"/>
    </g>
  </g>
  <path class="cls-40" d="m303.39,40.999s13.642-10.232,31.832-7.958c18.189,2.274,26.147,6.821,26.147,6.821,0,0,34.105-4.547,53.432,4.547,19.326,9.095,21.6,12.505,14.779,13.642s-145.516-1.137-145.516-1.137c0,0-5.684-10.232,1.137-11.368,6.821-1.137,18.189-4.547,18.189-4.547Z"/>
  <line class="cls-8" x1="963.505" y1="294.308" x2="846.897" y2="294.308"/>
  <line class="cls-8" x1="876.78" y1="310.088" x2="809.238" y2="310.088"/>
  <line class="cls-8" x1="480.897" y1="460.809" x2="561.234" y2="460.809"/>
  <line class="cls-8" x1="528.633" y1="475.448" x2="613.423" y2="475.448"/>
  <line class="cls-8" x1="544.465" y1="492.246" x2="521.066" y2="492.246"/>
  <line class="cls-8" x1="640.444" y1="636.624" x2="761.129" y2="636.624"/>
  <line class="cls-8" x1="734.721" y1="655.253" x2="777.801" y2="655.253"/>
  <line class="cls-8" x1="799.924" y1="617.994" x2="759.459" y2="617.994"/>
  <line class="cls-8" x1="799.924" y1="602.4" x2="822.69" y2="602.4"/>
  <g>
    <path d="m520.606,28.607c0,2.539-.434,4.426-1.301,5.66s-2.223,1.852-4.066,1.852c-1.82,0-3.168-.604-4.043-1.811s-1.328-3.01-1.359-5.408v-2.895c0-2.508.434-4.371,1.301-5.59s2.227-1.828,4.078-1.828c1.836,0,3.188.588,4.055,1.764s1.312,2.99,1.336,5.443v2.812Zm-2.168-2.965c0-1.836-.258-3.174-.773-4.014s-1.332-1.26-2.449-1.26c-1.109,0-1.918.418-2.426,1.254s-.77,2.121-.785,3.855v3.469c0,1.844.268,3.205.803,4.084s1.346,1.318,2.432,1.318c1.07,0,1.865-.414,2.385-1.242s.791-2.133.814-3.914v-3.551Z"/>
    <path d="m523.653,34.748c0-.375.111-.688.334-.938s.557-.375,1.002-.375.783.125,1.014.375.346.562.346.938c0,.359-.115.66-.346.902s-.568.363-1.014.363-.779-.121-1.002-.363-.334-.543-.334-.902Z"/>
    <path d="m540.88,35.885h-11.18v-1.559l5.906-6.562c.875-.992,1.479-1.799,1.811-2.42s.498-1.264.498-1.928c0-.891-.27-1.621-.809-2.191s-1.258-.855-2.156-.855c-1.078,0-1.916.307-2.514.92s-.896,1.467-.896,2.561h-2.168c0-1.57.506-2.84,1.518-3.809s2.365-1.453,4.061-1.453c1.586,0,2.84.416,3.762,1.248s1.383,1.939,1.383,3.322c0,1.68-1.07,3.68-3.211,6l-4.57,4.957h8.566v1.77Z"/>
    <path d="m553.876,28.607c0,2.539-.434,4.426-1.301,5.66s-2.223,1.852-4.066,1.852c-1.82,0-3.168-.604-4.043-1.811s-1.328-3.01-1.359-5.408v-2.895c0-2.508.434-4.371,1.301-5.59s2.227-1.828,4.078-1.828c1.836,0,3.188.588,4.055,1.764s1.312,2.99,1.336,5.443v2.812Zm-2.168-2.965c0-1.836-.258-3.174-.773-4.014s-1.332-1.26-2.449-1.26c-1.109,0-1.918.418-2.426,1.254s-.77,2.121-.785,3.855v3.469c0,1.844.268,3.205.803,4.084s1.346,1.318,2.432,1.318c1.07,0,1.865-.414,2.385-1.242s.791-2.133.814-3.914v-3.551Z"/>
    <path d="m558.915,23.205l.059,1.406c.93-1.094,2.184-1.641,3.762-1.641,1.773,0,2.98.68,3.621,2.039.422-.609.971-1.102,1.646-1.477s1.475-.562,2.396-.562c2.781,0,4.195,1.473,4.242,4.418v8.496h-2.168v-8.367c0-.906-.207-1.584-.621-2.033s-1.109-.674-2.086-.674c-.805,0-1.473.24-2.004.721s-.84,1.127-.926,1.939v8.414h-2.18v-8.309c0-1.844-.902-2.766-2.707-2.766-1.422,0-2.395.605-2.918,1.816v9.258h-2.168v-12.68h2.051Z"/>
    <path d="m578.345,37.35h-1.863l7.125-18.527h1.852l-7.113,18.527Z"/>
    <path d="m595.185,32.521c0-.586-.221-1.041-.662-1.365s-1.211-.604-2.309-.838-1.969-.516-2.613-.844-1.121-.719-1.43-1.172-.463-.992-.463-1.617c0-1.039.439-1.918,1.318-2.637s2.002-1.078,3.369-1.078c1.438,0,2.604.371,3.498,1.113s1.342,1.691,1.342,2.848h-2.18c0-.594-.252-1.105-.756-1.535s-1.139-.645-1.904-.645c-.789,0-1.406.172-1.852.516s-.668.793-.668,1.348c0,.523.207.918.621,1.184s1.162.52,2.244.762,1.959.531,2.631.867,1.17.74,1.494,1.213.486,1.049.486,1.729c0,1.133-.453,2.041-1.359,2.725s-2.082,1.025-3.527,1.025c-1.016,0-1.914-.18-2.695-.539s-1.393-.861-1.834-1.506-.662-1.342-.662-2.092h2.168c.039.727.33,1.303.873,1.729s1.26.639,2.15.639c.82,0,1.479-.166,1.975-.498s.744-.775.744-1.33Z"/>
    <path d="m606.54,28.068h-7.02v-1.266l3.516-3.305c.852-.8,1.277-1.47,1.277-2.011,0-.385-.125-.696-.375-.936s-.609-.358-1.078-.358c-.586,0-1.018.149-1.295.449-.277.299-.416.673-.416,1.121h-1.84c0-.891.326-1.625.979-2.203s1.494-.867,2.525-.867,1.848.248,2.449.744.902,1.174.902,2.033c0,.812-.418,1.637-1.254,2.473l-.984.926-2.062,1.699h4.676v1.5Z"/>
  </g>
</svg>