<?xml version="1.0" encoding="UTF-8"?>
<svg id="Layer_1" data-name="Layer 1" xmlns="http://www.w3.org/2000/svg" width="570" height="491.78" viewBox="0 0 570 491.78">
  <defs>
    <style>
      .cls-1 {
        fill: #212728;
      }

      .cls-2 {
        fill: #231e20;
      }

      .cls-3 {
        stroke: #231e20;
      }

      .cls-3, .cls-4, .cls-5 {
        fill: none;
        stroke-miterlimit: 10;
        stroke-width: 2px;
      }

      .cls-4 {
        stroke: #000;
      }

      .cls-5 {
        stroke: #d12d32;
      }
    </style>
  </defs>
  <g>
    <line class="cls-3" x1="78.08" y1="335.03" x2="91.61" y2="335.03"/>
    <line class="cls-3" x1="78.08" y1="255.87" x2="91.61" y2="255.87"/>
    <line class="cls-3" x1="78.08" y1="176.7" x2="91.61" y2="176.7"/>
    <line class="cls-3" x1="78.08" y1="97.53" x2="91.61" y2="97.53"/>
    <line class="cls-3" x1="190.08" y1="415.9" x2="190.08" y2="402.37"/>
    <line class="cls-3" x1="287.25" y1="415.9" x2="287.25" y2="402.37"/>
    <line class="cls-3" x1="384.41" y1="415.9" x2="384.41" y2="402.37"/>
    <line class="cls-3" x1="481.57" y1="415.9" x2="481.57" y2="402.37"/>
    <polyline class="cls-4" points="548.91 403.03 92.55 403.03 92.55 60.03"/>
    <g>
      <path class="cls-1" d="m56.87,105.05h-10.88v-1.56l5.75-6.56c.85-.99,1.44-1.8,1.76-2.42.32-.62.48-1.26.48-1.93,0-.89-.26-1.62-.79-2.19s-1.22-.86-2.1-.86c-1.05,0-1.87.31-2.45.92s-.87,1.47-.87,2.56h-2.11c0-1.57.49-2.84,1.48-3.81s2.3-1.45,3.95-1.45c1.54,0,2.76.42,3.66,1.25s1.35,1.94,1.35,3.32c0,1.68-1.04,3.68-3.13,6l-4.45,4.96h8.34v1.77Z"/>
      <path class="cls-1" d="m69.52,97.77c0,2.54-.42,4.43-1.27,5.66-.84,1.23-2.16,1.85-3.96,1.85s-3.08-.6-3.94-1.81-1.29-3.01-1.32-5.41v-2.89c0-2.51.42-4.37,1.27-5.59s2.17-1.83,3.97-1.83,3.1.59,3.95,1.76c.84,1.18,1.28,2.99,1.3,5.44v2.81Zm-2.11-2.96c0-1.84-.25-3.17-.75-4.01s-1.3-1.26-2.38-1.26-1.87.42-2.36,1.25-.75,2.12-.76,3.86v3.47c0,1.84.26,3.21.78,4.08.52.88,1.31,1.32,2.37,1.32s1.82-.41,2.32-1.24c.5-.83.77-2.13.79-3.91v-3.55Z"/>
    </g>
    <g>
      <path class="cls-1" d="m52.92,182.96h-2.12v-14.45l-4.25,1.61v-1.97l6.05-2.33h.33v17.14Z"/>
      <path class="cls-1" d="m60.08,174.4l.84-8.51h8.51v2h-6.72l-.5,4.65c.81-.49,1.74-.74,2.77-.74,1.51,0,2.71.51,3.61,1.54.89,1.03,1.33,2.42,1.33,4.17s-.46,3.14-1.39,4.15-2.21,1.52-3.87,1.52c-1.47,0-2.67-.42-3.59-1.25-.93-.84-1.46-1.99-1.59-3.47h2c.13.98.47,1.71,1.02,2.21.55.5,1.27.74,2.17.74.98,0,1.75-.34,2.31-1.03.56-.69.84-1.64.84-2.85,0-1.14-.3-2.06-.91-2.75-.61-.69-1.41-1.04-2.41-1.04-.92,0-1.64.21-2.17.62l-.56.47-1.69-.45Z"/>
    </g>
    <g>
      <path class="cls-1" d="m52.92,263.95h-2.12v-14.45l-4.25,1.61v-1.97l6.05-2.33h.33v17.14Z"/>
      <path class="cls-1" d="m69.52,256.67c0,2.54-.42,4.43-1.27,5.66-.84,1.23-2.16,1.85-3.96,1.85s-3.08-.6-3.94-1.81-1.29-3.01-1.32-5.41v-2.89c0-2.51.42-4.37,1.27-5.59s2.17-1.83,3.97-1.83,3.1.59,3.95,1.76c.84,1.18,1.28,2.99,1.3,5.44v2.81Zm-2.11-2.96c0-1.84-.25-3.17-.75-4.01s-1.3-1.26-2.38-1.26-1.87.42-2.36,1.25-.75,2.12-.76,3.86v3.47c0,1.84.26,3.21.78,4.08.52.88,1.31,1.32,2.37,1.32s1.82-.41,2.32-1.24c.5-.83.77-2.13.79-3.91v-3.55Z"/>
    </g>
    <path class="cls-1" d="m60.08,334.07l.84-8.51h8.51v2h-6.72l-.5,4.65c.81-.49,1.74-.74,2.77-.74,1.51,0,2.71.51,3.61,1.54.89,1.03,1.33,2.42,1.33,4.17s-.46,3.14-1.39,4.15-2.21,1.52-3.87,1.52c-1.47,0-2.67-.42-3.59-1.25-.93-.84-1.46-1.99-1.59-3.47h2c.13.98.47,1.71,1.02,2.21.55.5,1.27.74,2.17.74.98,0,1.75-.34,2.31-1.03.56-.69.84-1.64.84-2.85,0-1.14-.3-2.06-.91-2.75-.61-.69-1.41-1.04-2.41-1.04-.92,0-1.64.21-2.17.62l-.56.47-1.69-.45Z"/>
    <g>
      <path class="cls-1" d="m475.47,435.02h2.3v1.77h-2.3v3.96h-2.12v-3.96h-7.56v-1.28l7.44-11.82h2.25v11.33Zm-7.29,0h5.17v-8.37l-.25.47-4.92,7.9Z"/>
      <path class="cls-1" d="m479.94,439.62c0-.38.11-.69.33-.94s.54-.38.98-.38.76.12.99.38.34.56.34.94-.11.66-.34.9-.55.36-.99.36-.76-.12-.98-.36-.33-.54-.33-.9Z"/>
      <path class="cls-1" d="m496.24,433.48c0,2.54-.42,4.43-1.27,5.66-.84,1.23-2.16,1.85-3.96,1.85s-3.08-.6-3.94-1.81-1.29-3.01-1.32-5.41v-2.89c0-2.51.42-4.37,1.27-5.59s2.17-1.83,3.97-1.83,3.1.59,3.95,1.76c.84,1.18,1.28,2.99,1.3,5.44v2.81Zm-2.11-2.96c0-1.84-.25-3.17-.75-4.01s-1.3-1.26-2.38-1.26-1.87.42-2.36,1.25-.75,2.12-.76,3.86v3.47c0,1.84.26,3.21.78,4.08.52.88,1.31,1.32,2.37,1.32s1.82-.41,2.32-1.24c.5-.83.77-2.13.79-3.91v-3.55Z"/>
    </g>
    <g>
      <path class="cls-1" d="m372.3,431.17h1.58c1-.02,1.78-.29,2.35-.81s.86-1.23.86-2.12c0-2-.97-3-2.91-3-.91,0-1.64.27-2.18.8s-.82,1.24-.82,2.13h-2.11c0-1.35.48-2.47,1.44-3.37.96-.89,2.18-1.34,3.67-1.34,1.57,0,2.79.43,3.68,1.28s1.33,2.04,1.33,3.55c0,.74-.23,1.46-.7,2.16-.47.7-1.1,1.21-1.91,1.56.91.3,1.62.79,2.12,1.48s.75,1.53.75,2.52c0,1.53-.49,2.75-1.46,3.64-.97.9-2.24,1.35-3.8,1.35s-2.83-.43-3.8-1.3-1.47-2.01-1.47-3.43h2.12c0,.9.29,1.62.86,2.16s1.33.81,2.29.81c1.02,0,1.8-.27,2.34-.82s.81-1.33.81-2.36-.3-1.75-.89-2.29c-.59-.53-1.45-.8-2.57-.82h-1.58v-1.77Z"/>
      <path class="cls-1" d="m382.61,439.62c0-.38.11-.69.33-.94s.54-.38.98-.38.76.12.99.38.34.56.34.94-.11.66-.34.9-.55.36-.99.36-.76-.12-.98-.36-.33-.54-.33-.9Z"/>
      <path class="cls-1" d="m398.91,433.48c0,2.54-.42,4.43-1.27,5.66-.84,1.23-2.16,1.85-3.96,1.85s-3.08-.6-3.94-1.81-1.29-3.01-1.32-5.41v-2.89c0-2.51.42-4.37,1.27-5.59s2.17-1.83,3.97-1.83,3.1.59,3.95,1.76c.84,1.18,1.28,2.99,1.3,5.44v2.81Zm-2.11-2.96c0-1.84-.25-3.17-.75-4.01s-1.3-1.26-2.38-1.26-1.87.42-2.36,1.25-.75,2.12-.76,3.86v3.47c0,1.84.26,3.21.78,4.08.52.88,1.31,1.32,2.37,1.32s1.82-.41,2.32-1.24c.5-.83.77-2.13.79-3.91v-3.55Z"/>
    </g>
    <g>
      <path class="cls-1" d="m285.07,440.75h-10.88v-1.56l5.75-6.56c.85-.99,1.44-1.8,1.76-2.42.32-.62.48-1.26.48-1.93,0-.89-.26-1.62-.79-2.19s-1.22-.86-2.1-.86c-1.05,0-1.87.31-2.45.92s-.87,1.47-.87,2.56h-2.11c0-1.57.49-2.84,1.48-3.81s2.3-1.45,3.95-1.45c1.54,0,2.76.42,3.66,1.25s1.35,1.94,1.35,3.32c0,1.68-1.04,3.68-3.13,6l-4.45,4.96h8.34v1.77Z"/>
      <path class="cls-1" d="m287.57,439.62c0-.38.11-.69.33-.94s.54-.38.98-.38.76.12.99.38.34.56.34.94-.11.66-.34.9-.55.36-.99.36-.76-.12-.98-.36-.33-.54-.33-.9Z"/>
      <path class="cls-1" d="m303.87,433.48c0,2.54-.42,4.43-1.27,5.66-.84,1.23-2.16,1.85-3.96,1.85s-3.08-.6-3.94-1.81-1.29-3.01-1.32-5.41v-2.89c0-2.51.42-4.37,1.27-5.59s2.17-1.83,3.97-1.83,3.1.59,3.95,1.76c.84,1.18,1.28,2.99,1.3,5.44v2.81Zm-2.11-2.96c0-1.84-.25-3.17-.75-4.01s-1.3-1.26-2.38-1.26-1.87.42-2.36,1.25-.75,2.12-.76,3.86v3.47c0,1.84.26,3.21.78,4.08.52.88,1.31,1.32,2.37,1.32s1.82-.41,2.32-1.24c.5-.83.77-2.13.79-3.91v-3.55Z"/>
    </g>
    <g>
      <path class="cls-1" d="m182.94,440.75h-2.12v-14.45l-4.25,1.61v-1.97l6.05-2.33h.33v17.14Z"/>
      <path class="cls-1" d="m189.38,439.62c0-.38.11-.69.33-.94s.54-.38.98-.38.76.12.99.38.34.56.34.94-.11.66-.34.9-.55.36-.99.36-.76-.12-.98-.36-.33-.54-.33-.9Z"/>
      <path class="cls-1" d="m205.68,433.48c0,2.54-.42,4.43-1.27,5.66-.84,1.23-2.16,1.85-3.96,1.85s-3.08-.6-3.94-1.81-1.29-3.01-1.32-5.41v-2.89c0-2.51.42-4.37,1.27-5.59s2.17-1.83,3.97-1.83,3.1.59,3.95,1.76c.84,1.18,1.28,2.99,1.3,5.44v2.81Zm-2.11-2.96c0-1.84-.25-3.17-.75-4.01s-1.3-1.26-2.38-1.26-1.87.42-2.36,1.25-.75,2.12-.76,3.86v3.47c0,1.84.26,3.21.78,4.08.52.88,1.31,1.32,2.37,1.32s1.82-.41,2.32-1.24c.5-.83.77-2.13.79-3.91v-3.55Z"/>
    </g>
    <path class="cls-1" d="m95.04,433.48c0,2.54-.42,4.43-1.27,5.66-.84,1.23-2.16,1.85-3.96,1.85s-3.08-.6-3.94-1.81-1.29-3.01-1.32-5.41v-2.89c0-2.51.42-4.37,1.27-5.59s2.17-1.83,3.97-1.83,3.1.59,3.95,1.76c.84,1.18,1.28,2.99,1.3,5.44v2.81Zm-2.11-2.96c0-1.84-.25-3.17-.75-4.01s-1.3-1.26-2.38-1.26-1.87.42-2.36,1.25-.75,2.12-.76,3.86v3.47c0,1.84.26,3.21.78,4.08.52.88,1.31,1.32,2.37,1.32s1.82-.41,2.32-1.24c.5-.83.77-2.13.79-3.91v-3.55Z"/>
    <path class="cls-5" d="m93.1,402.44S154.6,87.95,293.51,87.95s186.01,296.83,186.01,296.83"/>
  </g>
  <g>
    <path class="cls-2" d="m88.22,23.95v7.51h-4.39V10.13h8.32c1.6,0,3.01.29,4.23.88,1.21.59,2.15,1.42,2.8,2.5s.98,2.31.98,3.68c0,2.09-.72,3.74-2.15,4.94-1.43,1.21-3.41,1.81-5.94,1.81h-3.85Zm0-3.56h3.93c1.16,0,2.05-.27,2.66-.82s.92-1.33.92-2.34-.31-1.89-.92-2.53-1.46-.98-2.55-1h-4.03v6.69Z"/>
    <path class="cls-2" d="m102.04,23.39c0-1.57.3-2.97.91-4.2s1.48-2.18,2.62-2.86c1.14-.67,2.46-1.01,3.96-1.01,2.14,0,3.88.65,5.24,1.96,1.35,1.31,2.11,3.09,2.26,5.33l.03,1.08c0,2.43-.68,4.38-2.04,5.85s-3.18,2.2-5.46,2.2-4.11-.73-5.47-2.2c-1.36-1.46-2.04-3.46-2.04-5.98v-.19Zm4.23.3c0,1.51.28,2.66.85,3.46.57.8,1.38,1.2,2.43,1.2s1.83-.39,2.4-1.18c.58-.79.86-2.05.86-3.78,0-1.48-.29-2.62-.86-3.43s-1.39-1.22-2.43-1.22-1.84.4-2.4,1.21-.85,2.06-.85,3.75Z"/>
    <path class="cls-2" d="m128.25,27.08c0-.52-.26-.93-.77-1.22-.51-.3-1.34-.56-2.47-.8-3.77-.79-5.65-2.39-5.65-4.8,0-1.41.58-2.58,1.75-3.52s2.69-1.41,4.58-1.41c2.01,0,3.62.47,4.83,1.42s1.81,2.18,1.81,3.69h-4.23c0-.61-.2-1.11-.59-1.5s-1-.59-1.83-.59c-.71,0-1.26.16-1.66.48s-.59.73-.59,1.23c0,.47.22.85.67,1.14s1.19.54,2.25.75,1.94.45,2.67.71c2.24.82,3.35,2.24,3.35,4.26,0,1.45-.62,2.61-1.86,3.51s-2.84,1.34-4.8,1.34c-1.33,0-2.51-.24-3.54-.71s-1.84-1.12-2.42-1.95-.88-1.72-.88-2.67h4.01c.04.75.32,1.33.83,1.73s1.21.6,2.08.6c.81,0,1.42-.15,1.84-.46.41-.31.62-.71.62-1.21Z"/>
    <path class="cls-2" d="m135.06,11.51c0-.63.21-1.16.64-1.57.42-.41,1-.62,1.74-.62s1.3.21,1.73.62.64.93.64,1.57-.22,1.17-.65,1.58c-.44.41-1.01.62-1.72.62s-1.29-.21-1.72-.62-.65-.94-.65-1.58Zm4.5,19.95h-4.25v-15.85h4.25v15.85Z"/>
    <path class="cls-2" d="m148.11,11.71v3.9h2.71v3.11h-2.71v7.91c0,.59.11,1.01.34,1.26s.65.38,1.29.38c.47,0,.88-.03,1.25-.1v3.21c-.83.25-1.68.38-2.56.38-2.97,0-4.48-1.5-4.54-4.5v-8.54h-2.31v-3.11h2.31v-3.9h4.23Z"/>
    <path class="cls-2" d="m153.15,11.51c0-.63.21-1.16.64-1.57.42-.41,1-.62,1.74-.62s1.3.21,1.73.62.64.93.64,1.57-.22,1.17-.65,1.58c-.44.41-1.01.62-1.72.62s-1.29-.21-1.72-.62-.65-.94-.65-1.58Zm4.5,19.95h-4.25v-15.85h4.25v15.85Z"/>
    <path class="cls-2" d="m160.48,23.39c0-1.57.3-2.97.91-4.2s1.48-2.18,2.62-2.86c1.14-.67,2.46-1.01,3.96-1.01,2.14,0,3.88.65,5.24,1.96,1.35,1.31,2.11,3.09,2.26,5.33l.03,1.08c0,2.43-.68,4.38-2.04,5.85s-3.18,2.2-5.46,2.2-4.11-.73-5.47-2.2c-1.36-1.46-2.04-3.46-2.04-5.98v-.19Zm4.23.3c0,1.51.28,2.66.85,3.46.57.8,1.38,1.2,2.43,1.2s1.83-.39,2.4-1.18c.58-.79.86-2.05.86-3.78,0-1.48-.29-2.62-.86-3.43s-1.39-1.22-2.43-1.22-1.84.4-2.4,1.21-.85,2.06-.85,3.75Z"/>
    <path class="cls-2" d="m182,15.61l.13,1.83c1.13-1.42,2.65-2.12,4.56-2.12,1.68,0,2.93.49,3.75,1.48s1.24,2.46,1.26,4.42v10.24h-4.23v-10.14c0-.9-.2-1.55-.59-1.96s-1.04-.61-1.95-.61c-1.19,0-2.08.51-2.68,1.52v11.18h-4.23v-15.85h3.98Z"/>
    <path class="cls-2" d="m208.3,26.29l2.94-10.68h4.42l-5.35,15.85h-4.04l-5.35-15.85h4.42l2.94,10.68Z"/>
    <path class="cls-2" d="m224.83,31.75c-2.32,0-4.22-.71-5.68-2.14s-2.19-3.33-2.19-5.7v-.41c0-1.59.31-3.02.92-4.27s1.49-2.22,2.61-2.9c1.13-.68,2.42-1.02,3.86-1.02,2.17,0,3.87.68,5.12,2.05,1.24,1.37,1.87,3.31,1.87,5.82v1.73h-10.09c.14,1.04.55,1.87,1.24,2.49.69.62,1.56.94,2.62.94,1.63,0,2.91-.59,3.82-1.77l2.08,2.33c-.63.9-1.49,1.6-2.58,2.1s-2.29.75-3.6.75Zm-.48-13.02c-.84,0-1.52.28-2.04.85-.52.57-.86,1.38-1,2.44h5.89v-.34c-.02-.94-.27-1.67-.76-2.19s-1.18-.77-2.08-.77Z"/>
    <path class="cls-2" d="m242.65,19.58c-.58-.08-1.08-.12-1.52-.12-1.6,0-2.65.54-3.15,1.63v10.37h-4.23v-15.85h4l.12,1.89c.85-1.46,2.03-2.18,3.53-2.18.47,0,.91.06,1.32.19l-.06,4.07Z"/>
    <path class="cls-2" d="m253.27,27.08c0-.52-.26-.93-.77-1.22-.51-.3-1.34-.56-2.47-.8-3.77-.79-5.65-2.39-5.65-4.8,0-1.41.58-2.58,1.75-3.52s2.69-1.41,4.58-1.41c2.01,0,3.62.47,4.83,1.42s1.81,2.18,1.81,3.69h-4.23c0-.61-.2-1.11-.59-1.5s-1-.59-1.83-.59c-.71,0-1.26.16-1.66.48s-.59.73-.59,1.23c0,.47.22.85.67,1.14s1.19.54,2.25.75,1.94.45,2.67.71c2.24.82,3.35,2.24,3.35,4.26,0,1.45-.62,2.61-1.86,3.51s-2.84,1.34-4.8,1.34c-1.33,0-2.51-.24-3.54-.71s-1.84-1.12-2.42-1.95-.88-1.72-.88-2.67h4.01c.04.75.32,1.33.83,1.73s1.21.6,2.08.6c.81,0,1.42-.15,1.84-.46.41-.31.62-.71.62-1.21Z"/>
    <path class="cls-2" d="m269.61,29.85c-1.04,1.27-2.49,1.9-4.34,1.9-1.7,0-3-.49-3.89-1.46-.89-.98-1.35-2.41-1.37-4.29v-10.39h4.23v10.25c0,1.65.75,2.48,2.26,2.48s2.42-.5,2.96-1.5v-11.23h4.25v15.85h-3.98l-.12-1.61Z"/>
    <path class="cls-2" d="m285.49,27.08c0-.52-.26-.93-.77-1.22-.51-.3-1.34-.56-2.47-.8-3.77-.79-5.65-2.39-5.65-4.8,0-1.41.58-2.58,1.75-3.52s2.69-1.41,4.58-1.41c2.01,0,3.62.47,4.83,1.42s1.81,2.18,1.81,3.69h-4.23c0-.61-.2-1.11-.59-1.5s-1-.59-1.83-.59c-.71,0-1.26.16-1.66.48s-.59.73-.59,1.23c0,.47.22.85.67,1.14s1.19.54,2.25.75,1.94.45,2.67.71c2.24.82,3.35,2.24,3.35,4.26,0,1.45-.62,2.61-1.86,3.51s-2.84,1.34-4.8,1.34c-1.33,0-2.51-.24-3.54-.71s-1.84-1.12-2.42-1.95-.88-1.72-.88-2.67h4.01c.04.75.32,1.33.83,1.73s1.21.6,2.08.6c.81,0,1.42-.15,1.84-.46.41-.31.62-.71.62-1.21Z"/>
    <path class="cls-2" d="m304.87,11.71v3.9h2.71v3.11h-2.71v7.91c0,.59.11,1.01.34,1.26s.65.38,1.29.38c.47,0,.88-.03,1.25-.1v3.21c-.83.25-1.68.38-2.56.38-2.97,0-4.48-1.5-4.54-4.5v-8.54h-2.31v-3.11h2.31v-3.9h4.23Z"/>
    <path class="cls-2" d="m309.91,11.51c0-.63.21-1.16.64-1.57.42-.41,1-.62,1.74-.62s1.3.21,1.73.62.64.93.64,1.57-.22,1.17-.65,1.58c-.44.41-1.01.62-1.72.62s-1.29-.21-1.72-.62-.65-.94-.65-1.58Zm4.5,19.95h-4.25v-15.85h4.25v15.85Z"/>
    <path class="cls-2" d="m321.86,15.61l.13,1.77c1.12-1.38,2.64-2.07,4.56-2.07,2.04,0,3.44.81,4.2,2.42,1.11-1.61,2.7-2.42,4.76-2.42,1.72,0,3,.5,3.84,1.5s1.26,2.51,1.26,4.52v10.12h-4.25v-10.11c0-.9-.18-1.56-.53-1.97s-.97-.62-1.86-.62c-1.27,0-2.15.61-2.64,1.82v10.88s-4.22,0-4.22,0v-10.09c0-.92-.18-1.58-.54-1.99s-.98-.62-1.85-.62c-1.2,0-2.07.5-2.61,1.49v11.21h-4.23v-15.85h3.97Z"/>
    <path class="cls-2" d="m351.16,31.75c-2.32,0-4.22-.71-5.68-2.14s-2.19-3.33-2.19-5.7v-.41c0-1.59.31-3.02.92-4.27s1.49-2.22,2.61-2.9c1.13-.68,2.42-1.02,3.86-1.02,2.17,0,3.87.68,5.12,2.05,1.24,1.37,1.87,3.31,1.87,5.82v1.73h-10.09c.14,1.04.55,1.87,1.24,2.49.69.62,1.56.94,2.62.94,1.63,0,2.91-.59,3.82-1.77l2.08,2.33c-.63.9-1.49,1.6-2.58,2.1s-2.29.75-3.6.75Zm-.48-13.02c-.84,0-1.52.28-2.04.85-.52.57-.86,1.38-1,2.44h5.89v-.34c-.02-.94-.27-1.67-.76-2.19s-1.18-.77-2.08-.77Z"/>
    <path class="cls-2" d="m368.7,31.46v-12.74h-2.36v-3.11h2.36v-1.35c0-1.78.51-3.16,1.53-4.14,1.02-.98,2.45-1.47,4.28-1.47.59,0,1.3.1,2.15.29l-.04,3.28c-.35-.09-.78-.13-1.29-.13-1.59,0-2.39.75-2.39,2.24v1.27h3.15v3.11h-3.15v12.74h-4.25Z"/>
    <path class="cls-2" d="m377.64,23.39c0-1.57.3-2.97.91-4.2s1.48-2.18,2.62-2.86c1.14-.67,2.46-1.01,3.96-1.01,2.14,0,3.88.65,5.24,1.96,1.35,1.31,2.11,3.09,2.26,5.33l.03,1.08c0,2.43-.68,4.38-2.04,5.85s-3.18,2.2-5.46,2.2-4.11-.73-5.47-2.2c-1.36-1.46-2.04-3.46-2.04-5.98v-.19Zm4.23.3c0,1.51.28,2.66.85,3.46.57.8,1.38,1.2,2.43,1.2s1.83-.39,2.4-1.18c.58-.79.86-2.05.86-3.78,0-1.48-.29-2.62-.86-3.43s-1.39-1.22-2.43-1.22-1.84.4-2.4,1.21-.85,2.06-.85,3.75Z"/>
    <path class="cls-2" d="m404.17,19.58c-.58-.08-1.08-.12-1.52-.12-1.6,0-2.65.54-3.15,1.63v10.37h-4.23v-15.85h4l.12,1.89c.85-1.46,2.03-2.18,3.53-2.18.47,0,.91.06,1.32.19l-.06,4.07Z"/>
    <path class="cls-2" d="m422.86,31.46c-.2-.38-.34-.85-.42-1.42-1.03,1.14-2.36,1.71-4,1.71-1.55,0-2.84-.45-3.86-1.35-1.02-.9-1.53-2.03-1.53-3.4,0-1.68.62-2.97,1.87-3.87,1.25-.9,3.04-1.35,5.4-1.36h1.95v-.91c0-.73-.19-1.32-.56-1.76-.38-.44-.97-.66-1.78-.66-.71,0-1.27.17-1.68.51-.41.34-.61.81-.61,1.41h-4.23c0-.92.28-1.77.85-2.55s1.37-1.39,2.4-1.84,2.2-.67,3.49-.67c1.95,0,3.5.49,4.65,1.47s1.72,2.36,1.72,4.14v6.87c0,1.5.22,2.64.63,3.41v.25h-4.28Zm-3.5-2.94c.62,0,1.2-.14,1.73-.42s.92-.65,1.17-1.12v-2.72h-1.58c-2.12,0-3.25.73-3.38,2.2v.25c-.01.53.17.96.54,1.3s.88.51,1.52.51Z"/>
    <path class="cls-2" d="m451.51,23.68c0,2.54-.54,4.52-1.63,5.94s-2.6,2.13-4.54,2.13c-1.72,0-3.09-.66-4.12-1.98l-.19,1.68h-3.81V8.96h4.23v8.07c.98-1.14,2.26-1.71,3.85-1.71,1.93,0,3.45.71,4.55,2.13,1.1,1.42,1.65,3.42,1.65,6v.23Zm-4.23-.31c0-1.6-.25-2.77-.76-3.51s-1.26-1.11-2.27-1.11c-1.35,0-2.28.55-2.78,1.66v6.25c.52,1.11,1.46,1.67,2.81,1.67s2.27-.67,2.7-2.02c.21-.64.31-1.63.31-2.94Z"/>
    <path class="cls-2" d="m463.3,31.46c-.2-.38-.34-.85-.42-1.42-1.03,1.14-2.36,1.71-4,1.71-1.55,0-2.84-.45-3.86-1.35-1.02-.9-1.53-2.03-1.53-3.4,0-1.68.62-2.97,1.87-3.87,1.25-.9,3.04-1.35,5.4-1.36h1.95v-.91c0-.73-.19-1.32-.56-1.76-.38-.44-.97-.66-1.78-.66-.71,0-1.27.17-1.68.51-.41.34-.61.81-.61,1.41h-4.23c0-.92.28-1.77.85-2.55s1.37-1.39,2.4-1.84,2.2-.67,3.49-.67c1.95,0,3.5.49,4.65,1.47s1.72,2.36,1.72,4.14v6.87c0,1.5.22,2.64.63,3.41v.25h-4.28Zm-3.5-2.94c.62,0,1.2-.14,1.73-.42s.92-.65,1.17-1.12v-2.72h-1.58c-2.12,0-3.25.73-3.38,2.2v.25c-.01.53.17.96.54,1.3s.88.51,1.52.51Z"/>
    <path class="cls-2" d="m474.67,31.46h-4.25V8.96h4.25v22.5Z"/>
    <path class="cls-2" d="m482.62,31.46h-4.25V8.96h4.25v22.5Z"/>
  </g>
  <g>
    <path d="m282.6,484.98h-10.82l.13-.76,8.51-17.12h.64l1.67,17.12-.13.76Zm-2.89-14.61l-6.17,12.58h7.32l-1.08-12.58h-.07Z"/>
    <path d="m286.25,485.22c-.38,0-.66-.13-.84-.41-.18-.27-.27-.61-.27-1.03,0-.23.02-.52.05-.85.04-.33.06-.56.07-.69l1.24-8.83h-1.04l.07-.57c.39-.31.72-.6.98-.89.26-.29.51-.67.75-1.13.24-.47.51-1.09.81-1.86h.55l-1.74,12.5c-.09.67-.13,1.12-.13,1.35,0,.14.02.27.06.39s.12.18.25.18c.27,0,.52-.12.74-.35.23-.23.5-.66.81-1.27l.37.41c-.17.34-.38.76-.62,1.24-.25.49-.54.91-.88,1.27-.34.36-.76.54-1.24.54Zm3.57-11.8h-2.03l.15-1.05h2.03l-.15,1.05Z"/>
  </g>
  <g>
    <path d="m28.87,290.5c0,.83-.32,1.54-.96,2.14s-1.69.89-3.14.89c-1.02,0-2-.16-2.92-.47-.92-.31-1.74-.74-2.46-1.3-.72-.55-1.28-1.19-1.69-1.92-.41-.73-.61-1.51-.61-2.34,0-.53.08-1,.25-1.43s.4-.77.71-1.04v-.07l-4.03-.77c-.35-.05-.61-.07-.77-.07-.21,0-.38.05-.53.14-.14.1-.22.33-.22.7,0,.14.02.38.05.72h-.62l-.26-3.29v-.53l14.02,2.66c.51.08.85.12,1.01.12s.28-.04.35-.11.11-.19.11-.35c0-.38-.15-.73-.46-1.04-.3-.31-.57-.55-.79-.71l.36-.48c.38.27.78.56,1.18.86.4.3.73.65,1,1.04.26.39.4.85.4,1.38,0,.46-.12.82-.35,1.06-.23.24-.53.36-.9.36-.14,0-.32-.02-.52-.05-.2-.03-.37-.06-.52-.07v.19c.72.58,1.29,1.17,1.7,1.79s.62,1.28.62,1.98Zm-1.58-.84c0-.53-.14-1.02-.42-1.49-.28-.46-.64-.86-1.09-1.19-.45-.33-.92-.56-1.42-.68-.94-.22-1.78-.39-2.5-.5-.72-.11-1.26-.17-1.61-.17-.46,0-.86.08-1.2.25s-.6.4-.78.7c-.18.3-.28.64-.28,1.04,0,.58.19,1.1.56,1.56s.88.86,1.5,1.2c.62.34,1.32.59,2.09.77.77.18,1.54.26,2.33.26,1.09,0,1.83-.16,2.22-.49.39-.33.59-.75.59-1.26Z"/>
    <path d="m21.64,274.53c-1.79,0-3.49-.24-5.11-.71s-3.05-1.18-4.29-2.11-2.11-1.94-2.6-3.02l1.83-.66c.84,1.14,2.15,2.03,3.91,2.67s3.83.96,6.19.96h.36c2.37,0,4.44-.32,6.21-.95s3.1-1.53,3.97-2.68l1.79.66c-.48,1.06-1.32,2.05-2.53,2.97s-2.6,1.62-4.18,2.1-3.23.74-4.95.77h-.62Z"/>
    <path d="m15.9,263.08l1.42-.11c-1.1-.9-1.65-2.11-1.65-3.64,0-1.63.64-2.75,1.93-3.36-1.29-.89-1.93-2.16-1.93-3.81,0-1.38.4-2.4,1.2-3.07s2.01-1.01,3.62-1.01h8.1v3.4h-8.09c-.72,0-1.24.14-1.58.42s-.5.78-.5,1.49c0,1.02.48,1.72,1.45,2.11h8.71s0,3.38,0,3.38h-8.07c-.73,0-1.27.14-1.59.43s-.49.78-.49,1.48c0,.96.4,1.66,1.2,2.09h8.96v3.39h-12.68v-3.18Z"/>
    <path d="m21.91,239.64c1.77,0,3.46.25,5.1.76s3.07,1.24,4.32,2.19,2.11,1.97,2.58,3.06l-1.79.66c-.84-1.11-2.12-1.98-3.87-2.62s-3.75-.97-6.01-1h-.62c-2.34,0-4.39.32-6.18.96s-3.12,1.53-4.01,2.67l-1.79-.66c.46-1.06,1.3-2.06,2.51-3.01s2.62-1.67,4.23-2.19,3.28-.79,5-.81h.53Z"/>
    <path d="m11.34,225.87v1.66h18.6v-1.66h2.61v5.06H8.73v-5.06h2.61Z"/>
    <path d="m22.14,224.9c-1.98,0-3.55-.44-4.72-1.33s-1.76-2.1-1.76-3.64c0-1.23.46-2.25,1.38-3.06h-6.47v-3.4h18v3.06l-1.35.16c1.05.84,1.58,1.93,1.58,3.26,0,1.49-.59,2.69-1.76,3.59s-2.81,1.35-4.9,1.35Zm.25-3.39c1.19,0,2.1-.21,2.73-.62.63-.41.95-1.02.95-1.8,0-1.05-.44-1.79-1.33-2.21h-5.01c-.88.42-1.33,1.15-1.33,2.19,0,1.63,1.33,2.45,3.98,2.45Z"/>
    <path d="m22.12,211.38c-1.26,0-2.38-.24-3.36-.73s-1.75-1.18-2.29-2.09-.81-1.97-.81-3.17c0-1.71.52-3.11,1.57-4.19s2.47-1.69,4.27-1.81l.87-.02c1.95,0,3.51.54,4.68,1.63s1.76,2.54,1.76,4.37-.59,3.29-1.76,4.38-2.77,1.63-4.78,1.63h-.15Zm.24-3.39c1.21,0,2.13-.23,2.76-.68.64-.45.96-1.1.96-1.95s-.31-1.46-.95-1.92c-.63-.46-1.64-.69-3.02-.69-1.18,0-2.1.23-2.75.69s-.97,1.11-.97,1.95.32,1.47.97,1.92,1.64.68,3,.68Z"/>
    <path d="m23.97,186.25l-8.07-1.66v-3.27l12.68,3.23v2.84l-7.98,2.4,7.98,2.4v2.82l-12.68,3.23v-3.27l8.06-1.65-8.06-2.32v-2.45l8.07-2.31Z"/>
    <path d="m15.9,176.53l1.46-.11c-1.13-.91-1.7-2.12-1.7-3.64,0-1.34.39-2.34,1.18-3s1.97-.99,3.54-1.01h8.19v3.39h-8.11c-.72,0-1.24.16-1.56.47s-.49.83-.49,1.56c0,.95.41,1.67,1.22,2.14h8.94v3.39h-12.68v-3.19Z"/>
    <path d="m8.73,167.35v-5.06h23.82v5.06h-2.61v-1.68H11.34v1.68h-2.61Z"/>
  </g>
  <g>
    <path d="m293.24,477.3c0-1.77.16-3.46.48-5.09s.8-3.1,1.43-4.43c.63-1.33,1.29-2.27,1.98-2.81l.3,1.43c-.77.88-1.41,2.21-1.9,4.01s-.77,3.81-.81,6.04v1c0,3.02.37,5.63,1.11,7.85.45,1.33.98,2.37,1.6,3.12l-.3,1.32c-.7-.58-1.38-1.55-2.02-2.91-1.25-2.66-1.87-5.83-1.87-9.53Z"/>
    <path d="m303.86,480.87c0-.59-.15-1.04-.45-1.37-.3-.32-.82-.6-1.56-.84-.74-.23-1.33-.52-1.77-.84s-.76-.72-.97-1.17-.31-.99-.31-1.62c0-1.04.3-1.92.89-2.64.6-.72,1.36-1.08,2.28-1.08.97,0,1.76.37,2.37,1.11s.91,1.69.91,2.85h-1.48c0-.59-.17-1.11-.51-1.54-.34-.43-.77-.64-1.29-.64s-.95.17-1.25.52-.45.79-.45,1.35c0,.52.14.92.42,1.18s.79.52,1.52.76,1.33.53,1.78.87c.46.34.79.74,1.01,1.21s.33,1.05.33,1.73c0,1.13-.31,2.04-.92,2.72s-1.41,1.03-2.39,1.03c-.69,0-1.3-.18-1.83-.54s-.94-.86-1.24-1.51-.45-1.34-.45-2.09h1.47c.03.73.22,1.3.59,1.73s.85.64,1.46.64c.56,0,1-.17,1.34-.5s.5-.78.5-1.33Z"/>
    <path d="m310.63,477.42c0,1.74-.15,3.41-.46,5.01-.31,1.6-.78,3.07-1.42,4.42-.64,1.35-1.31,2.31-2.01,2.88l-.31-1.32c.82-.92,1.47-2.35,1.97-4.29s.75-4.1.76-6.46v-.38c0-1.64-.12-3.17-.35-4.58-.23-1.41-.56-2.67-.97-3.79-.42-1.12-.88-1.99-1.4-2.61l.31-1.32c.7.57,1.37,1.52,2,2.86.63,1.34,1.11,2.81,1.42,4.42.32,1.61.47,3.33.47,5.17Z"/>
  </g>
  <path d="m6.76,281.19l2.92,3.65-.22.49c-.38-.45-.71-.79-.99-1.01-.28-.22-.46-.34-.55-.34-.18,0-.3.11-.35.32-.05.22-.08.56-.08,1.03v7.91h-1.48v-7.91c0-.38-.02-.7-.07-.96-.04-.26-.16-.39-.34-.39-.14,0-.34.13-.59.39-.25.26-.58.59-.97.99l-.22-.49,2.94-3.67Z"/>
</svg>