<?xml version="1.0" encoding="UTF-8"?>
<svg id="Layer_1" data-name="Layer 1" xmlns="http://www.w3.org/2000/svg" width="570" height="408" xmlns:xlink="http://www.w3.org/1999/xlink" viewBox="0 0 570 408">
  <defs>
    <style>
      .cls-1, .cls-2 {
        fill: none;
      }

      .cls-3 {
        clip-path: url(#clippath);
      }

      .cls-4 {
        fill: #f2eadf;
      }

      .cls-5 {
        fill: #69b26e;
      }

      .cls-6 {
        fill: #698940;
      }

      .cls-7 {
        fill: #001415;
      }

      .cls-8 {
        fill: #f4ec89;
      }

      .cls-9 {
        fill: #f4f8f9;
      }

      .cls-10 {
        fill: #fff;
      }

      .cls-11 {
        fill: #664e49;
      }

      .cls-12 {
        fill: #802523;
      }

      .cls-13 {
        fill: #9fe2de;
      }

      .cls-14 {
        fill: #87522e;
      }

      .cls-15 {
        fill: #8fafa4;
      }

      .cls-16 {
        fill: #d12d32;
      }

      .cls-17 {
        fill: #dff3f7;
      }

      .cls-18 {
        fill: #d3e2e5;
      }

      .cls-19 {
        fill: #141516;
      }

      .cls-20 {
        fill: #419968;
      }

      .cls-21 {
        fill: #a51e2e;
      }

      .cls-22 {
        fill: #966642;
      }

      .cls-23 {
        fill: #543632;
      }

      .cls-24 {
        fill: #542504;
      }

      .cls-25 {
        fill: #898677;
      }

      .cls-26 {
        fill: #5a723e;
      }

      .cls-27 {
        fill: #565350;
      }

      .cls-28 {
        fill: #2e7246;
      }

      .cls-29 {
        fill: #3a1316;
      }

      .cls-30 {
        fill: #5e5c54;
      }

      .cls-31 {
        fill: #842621;
      }

      .cls-2 {
        stroke: #001415;
        stroke-miterlimit: 10;
        stroke-width: 2px;
      }
    </style>
    <clipPath id="clippath">
      <path class="cls-1" d="m555.02,263.61c64.73,198.4-123.27,123.88-296.09,141.25-73.55,7.39-197.53-.49-243.22-50.61-42.5-46.63,29.95-145.32,8.31-232.65C-5.87.99,156.28,0,298.96,0c98.09,0,194.67.81,239.44,66.47,33.99,49.85-18.13,90.64,16.62,197.14Z"/>
    </clipPath>
  </defs>
  <g class="cls-3">
    <g>
      <g>
        <rect class="cls-13" x="-26.87" y="-79.82" width="620.12" height="612.05"/>
        <path class="cls-17" d="m238.45,65.54s-18.84-32.59-44.87-32.59-26.92,9.31-37.69,13.97c-10.77,4.66-12.56-1.55-35.89-3.1-23.33-1.55-35,15.52-39.48,20.18-4.49,4.66-37.69,10.86-43.07,13.97-5.38,3.1-17.95,21.73-.9,21.73h227.03c4.49,0,0-27.94-25.13-34.14Z"/>
        <path class="cls-17" d="m477.68,230.76s-32.38-11.24-52.87-3.3l-20.49,7.93s-28.42-3.97-37.01,1.98c-8.59,5.95-27.76-1.32-35.03,7.93-7.27,9.25,36.35,5.95,36.35,5.95,0,0,119.63-1.32,123.59-1.32h34.37s9.91-5.29-1.32-5.95c-11.24-.66-15.86.66-19.83-.66-3.97-1.32-3.3-12.56-27.76-12.56Z"/>
      </g>
      <path class="cls-5" d="m-20.93,416c.39,12.84-.74,25.51-1.1,38.33-.1,3.56-.12,7.13.06,10.69.06,1.14.17,2.28.25,3.43.04.33.08.66.12.95,2.4.37,4.79.76,7.19,1.17,8.38,1.44,16.78,2.76,25.2,3.95,1.2.17,2.4.33,3.6.5,1.86.24,3.71.48,5.57.71,3.86.48,7.72.94,11.59,1.37,8.35.94,16.71,1.76,25.09,2.48,16.7,1.44,33.44,2.46,50.19,3.15,33.54,1.38,67.07,1.15,100.62.97,68.56-.37,137.12-.03,205.67,1.02,66.88,1.02,133.67,4.27,200.55,4.85,3.96.03,7.87-.25,11.83-.39.05,0,.08,0,.13,0,.39-.1.74-.2.86-.23.16-.03.43-.11.75-.21.09-.15.17-.28.24-.39.01-.04.02-.08.03-.11.35-1.25.58-2.51.86-3.77.19-2.57.39-5.13.51-7.7.27-6.17.66-12.3,1.1-18.45,2.1-28.98,2.86-58.04,3.46-87.08-86.09-10.53-194.02-20.05-302.87-20.05-123.72,0-254.9,12.3-354.04,24.4,1.43,13.43,2.14,26.89,2.55,40.41Z"/>
      <path class="cls-5" d="m484.61,343.16s-1.31,12.56.58,14.75,5.99,1.61,5.99,1.61c0,0,2.34-6.57,2.04-8.18-.29-1.61-3.36,4.96-3.8,4.82s.73-8.18,0-8.76-1.9,4.09-1.9,4.09l-1.75-8.61-1.17.29Z"/>
      <path class="cls-5" d="m471.03,349.87s-1.17-9.78.29-9.2,4.09,12.41,4.09,12.41c0,0,3.21-8.03,4.38-8.03s-1.31,11.53-1.31,11.53h5.69s-3.65-10.66-2.63-10.37,5.11,8.18,4.53,10.8c-.58,2.63-11.83,1.9-14.16.73s-4.67-1.9-4.82-3.94c-.15-2.04,3.94-3.94,3.94-3.94Z"/>
      <g>
        <path class="cls-20" d="m473.77,136.79s3.65,8.32,21.71,4.47c18.06-3.84,24.98-9.2,30.76-10.94,5.78-1.74,21.83-6.89,27.06-6.47,5.23.42,38.67,4.95,48.19-.55,9.52-5.5,25.27-17.03,27.08-19.97,1.82-2.94-4.4-10.41-.08-15.62,4.32-5.21,13.05,1.95,17.23-6.1,4.18-8.04,6.9-31.2,7.35-35.49s-9.09-15.1-9.45-22.89c-.36-7.79-12.1-32.74-25.21-48.34-13.11-15.6-36.79-16.76-36.79-16.76,0,0-32.48-42.27-52.92-47.53-20.44-5.26-63.37-3.58-63.37-3.58,0,0-20.45,22.44-27.08,19.97-6.63-2.47-1.93-13.39-44.37-15.29-42.44-1.9-59.37-1.67-68.92,3.12-9.55,4.79-19.62,12.45-27.9,16.46-8.28,4.01-22.45,7.64-38.01,9.21s-55.73,4.22-59.68,17.23c-3.95,13-22.11,31.16-16.8,47.2,3.9,11.78-16.16,41.15-27.1,55.93-4.41,5.96-5.79,13.95-3.65,21.24,3.81,12.99,11.32,31.82,23.23,34.37,18.43,3.95,51.74,5.65,51.74,5.65l26.93-9.31s13.49,3.54,13.55,1.04,9.86-15.83,12.3-19.52c2.43-3.69,12.48,2.15,12.58,4.27.1,2.12,4.18,19.65,25.44,28.41,21.26,8.76,33.12,11.65,39.62,11.29,6.5-.36,17.96-5.97,25.66-8.53,7.7-2.56,7.53-6.1,16.11-3.74,8.58,2.36,16.26,13.3,32.02,15.97,15.76,2.67,42.76-5.22,42.76-5.22Z"/>
        <path class="cls-28" d="m199.65,119.96s24.38.85,27.15,2.14c2.78,1.29,26.93-9.31,26.93-9.31l13.55,1.04,16.65-18.77s.79,7.73,4.73,14.59c3.94,6.87,22.84,22.32,29.14,24.04s48.05,8.59,50.41,7.73c2.36-.86,22.05-14.59,22.05-14.59,0,0,28.36,12.02,30.72,12.88,2.36.86,11.81,8.59,25.21,5.15,13.39-3.43,22.05-6.01,22.05-6.01,0,0,6.3,10.3,18.12,10.3s14.18-6.87,29.14-12.88c14.97-6.01,17.33-8.59,27.57-8.59s55.14.86,55.14.86c0,0,36.23-21.46,36.23-24.04s-6.3-20.6-6.3-20.6h-36.23c-3.15,0-14.18-16.31-14.18-16.31l-44.11,11.16-29.14-6.01-42.53,13.74s-17.33-24.04-22.05-23.18-2.36,1.72-12.6,4.29c-10.24,2.58-14.72,2.17-27.45,4.52-12.72,2.35-43.44.63-52.11-.23-8.66-.86-6.3,12.88-16.54,12.88s-19.52,8.87-36.23,6.01c-16.71-2.86-33.08-6.01-33.08-6.01,0,0-16.54-7.73-18.9-1.72-2.36,6.01-12.6,17.17-18.9,20.6-6.3,3.43-22.05,10.3-25.99,11.16s1.58,5.15,1.58,5.15Z"/>
        <path class="cls-21" d="m401.74,116.37c.65,2.39,3.43,6.59,5.89,7.52,2.05.77,2.94-1.31,6.54-1.31,1.99,0,2.45-2.67,2.93-4.92.41-1.94.5-5.82-.62-7.7-1.99-3.32-6.33-3.59-9.17-2.42-2.46,1.01-6.67,5.07-5.56,8.83Z"/>
        <path class="cls-21" d="m517.43,110.76c-.3,2.46.67,7.4,2.6,9.19,1.6,1.49,3.22-.09,6.55,1.27,1.84.75,3.28-1.54,4.57-3.45,1.11-1.64,2.67-5.2,2.34-7.36-.58-3.82-4.49-5.72-7.57-5.72-2.66,0-8.09,2.16-8.49,6.06Z"/>
        <g>
          <path class="cls-23" d="m387.38,353.75s-16.82-38.32-15.82-43.2c1-4.88-2.03-116.75-2.03-116.75,0,0-17.85-17.55-23.1-24.04-2.8-3.82-11.63-21.62-16.8-42.35-5.52-22.15-12.73-32.53-14.72-42.84-1.99-10.31-3.48-12.48-3.48-14.11s18.92,12.48,18.92,12.48c0,0,12.15,36.64,13.64,39.89,1.49,3.26,12.95,30.91,12.95,30.91,0,0,16.74,2.64,16.8,1.53.1-1.71,8.79-24,8.79-24,0,0,6.97-13.02,7.47-15.74s1.99-5.43,3.48-11.39c1.49-5.97,2.49-11.94,4.48-16.28,1.99-4.34,4.48-9.22,5.48-11.39,1-2.17,2.49-4.88,2.49-4.88l7.97-3.26s7.97,0,6.97,3.8-4.48,13.02-5.97,15.74c-1.49,2.71-4.48,10.31-6.47,18.99-1.99,8.68-7.97,33.64-7.97,33.64l-1,11.94,16.43-3.8s29.37-14.65,31.36-16.82c1.99-2.17,7.47-4.34,11.95-9.22,4.48-4.88,10.45-10.85,15.43-14.11,4.98-3.26,17.92-12.48,17.92-12.48l12.94,2.17-20.41,21.16s-41.82,39.07-54.26,42.32c-12.45,3.26-23.4,7.6-23.4,7.6,0,0,1.49,20.62,1.49,28.76s10.95,103.33,10.95,103.33c0,0,16.93,33.96,18.92,41.02s4.77,16.59,4.77,16.59c0,0-54.66-3.56-56.15-5.18Z"/>
          <path class="cls-20" d="m386.42,73.38c1.86,3.1-.71,17.04,13.45,7.1,14.16-9.94,13.45-2.13,20.53-3.55,7.08-1.42,16.99-5.68,34.69-9.23,17.7-3.55,32.56-2.84,25.48-9.23-7.08-6.39-24.78-9.94-38.23-9.94s-33.27.71-48.14,6.39c-14.87,5.68-9.91,14.91-7.79,18.45Z"/>
          <path class="cls-23" d="m340.69,143.57s-36.34-13.57-37.83-14.11c-1.49-.54-19.91-15.74-21.41-20.62-1.49-4.88-9.96-23.87-13.44-30.93-3.48-7.05-10.45-18.99-10.45-18.99l8-2.49s9.93,16.06,11.42,18.77c1.49,2.71,16.93,29.84,16.93,29.84,0,0,9.46,12.48,11.95,13.57s36.84,8.68,36.84,10.31-.5,16.82-.5,16.82l-1.49-2.17Z"/>
          <path class="cls-23" d="m453.23,134.59l-2.66-24.44s3.44-23.42,4.44-28.31c1-4.88,3.67-28.93,3.67-28.93l2.99-23.33-9.99,5.93-5.97,48.83s-5.97,28.22-4.98,33.1c1,4.88,1.63,27.54,1.63,27.54l12.31-3.67-1.44-6.74Z"/>
          <path class="cls-20" d="m381.94,14.33s18.41,47.84,38.23,43.98c19.82-3.86,8.49-9.26,21.24-6.94,12.74,2.31,7.79,8.49,21.94,3.09,14.16-5.4,31.86-12.35,32.56-17.75.71-5.4,12.03-6.94.71-10.03-11.33-3.09-114.68-12.35-114.68-12.35Z"/>
          <path class="cls-20" d="m251.01,85.72s1.21.64,3.25,1.54c.63.28,1.33.58,2.1.89,7.05,2.88,19.67,6.9,29.33,3.74,14.16-4.63,6.37-10.03,6.37-10.03l-14.16-6.17s13.45,5.4,21.24-6.94c7.79-12.35,24.07-27.78,10.62-29.32-13.45-1.54-26.9-3.09-41.06,1.54-14.16,4.63-45.31,17.75-48.85,18.52-3.54.77-9.2,13.12,3.54,20.06,12.74,6.94,27.61,6.17,27.61,6.17Z"/>
          <polygon class="cls-23" points="385.28 136.18 367.42 112.9 355.52 67.5 362.17 66.35 375.47 108.33 392.98 127.78 385.28 136.18"/>
          <path class="cls-20" d="m377.33,80.61s12.36,11.89-5.84,12.17c-18.2.28-19.2,3.43-25.57-1.5-6.37-4.93-7.4-5.6-19.67-6.02-12.27-.41-17.88,16.48-22.73-4.21-4.85-20.69-18.89-10.07-1.82-26.32,17.06-16.25,8.24-20.5,30.12-19.89,21.89.61,30.44-3.69,39.74,10.01,9.3,13.7,5.78,35.77,5.78,35.77Z"/>
          <path class="cls-20" d="m510.51,54.72s11.81,30.05,22.84,24.9c11.03-5.15,13.39-14.59,18.9-15.45s8.66-.86,8.66-.86l16.54,7.73s-4.73,4.29,3.94,4.29,2.36,8.59,10.24,11.16c7.88,2.58-6.3,6.01,11.81,2.58,18.12-3.43,11.03,4.29,22.05-6.87,11.03-11.16,18.12.86,11.03-15.45-7.09-16.31,4.73-19.75-14.97-24.9-19.69-5.15-39.38-11.16-52.77-11.16s-26.78-9.44-37.02,4.29c-10.24,13.74-21.27,19.75-21.27,19.75Z"/>
          <path class="cls-23" d="m485.3,101.03c2.6-3.55,25.38-19.15,27.98-20.57s35.79-27.66,35.79-27.66l1.95,4.96s-27.98,20.57-31.88,25.53c-3.9,4.96-15.62,14.18-1.3,10.64,14.32-3.55,35.14-9.22,49.45-16.31,14.32-7.09,16.92-8.51,25.38-12.06,8.46-3.55,11.71-4.26,18.22-5.67s9.11-1.42,9.11-1.42l5.86,1.42s-45.55,17.73-54.01,21.99c-8.46,4.26-24.08,9.93-33.84,12.77-9.76,2.84-49.45,19.86-51.41,17.02-1.95-2.84-1.3-10.64-1.3-10.64Z"/>
        </g>
        <path class="cls-20" d="m423,41.33c.2,1.35,6.96,28.26,12.74,25.46,6.37-3.09,0-10.03,4.25-10.03s4.25,15.43,18.41-1.54c14.16-16.97,36.81-32.41,16.99-37.04-19.82-4.63-46.72-11.57-50.26-3.09"/>
        <path class="cls-20" d="m519.27,52.91s5.66,14.66,16.99,10.03c11.33-4.63,8.98-6.48,14.76-5.17,5.77,1.31,5.77,12.11,17.1.54,11.33-11.57,29.02-19.29,14.16-24.69-14.87-5.4-24.78-10.8-37.52-8.49-12.74,2.31-28.32,10.8-28.32,16.97s2.12,13.89,2.12,13.89"/>
        <path class="cls-20" d="m528.7,70.67c18.74,2.44,21.24,29.27,39.98,31.71,18.74,2.44,16.24-2.44,32.48-2.44s19.99,7.32,29.98-4.88c9.99-12.2,21.24-4.88,12.49-34.15-8.75-29.27-3.75-26.83-12.49-34.15-8.75-7.32,6.25-48.79-29.98-19.52-36.23,29.27-43.73,31.71-52.47,31.71s-26.24-9.76-27.49,2.44c-1.25,12.2,7.5,29.27,7.5,29.27Z"/>
        <path class="cls-23" d="m374.42,308.82l-17.15,21.66-13.65,9.92-28.71,4.58s-10.15,11.83-9.8,13.74c.35,1.91,9.8,2.29,15.4,1.91,5.6-.38,21.35-7.63,21.35-7.63,0,0,21.7,1.53,25.91,1.53h13.65c3.15,0,7.35,2.29,9.1,0,1.75-2.29,4.55-6.1,2.1-15.64-2.45-9.54-18.2-30.05-18.2-30.05Z"/>
        <path class="cls-23" d="m384.93,345.36s-9.67,16.76-10.15,21.75c-.7,7.25,0,14.12,0,14.12,0,0,9.45,2.67,11.9,1.14s5.95-13.35,7.7-14.5,10.5-14.12,10.5-17.17-19.95-5.34-19.95-5.34Z"/>
        <path class="cls-23" d="m425.88,333.53s44.81,11.07,45.86,11.45,14.7,9.16,14.7,9.16l17.15,9.16s-15.05-.38-22.75-.38-20.65-5.72-20.65-5.72c0,0-16.8,2.67-22.05.76-5.25-1.91-23.1-7.63-23.1-7.63l10.85-16.79Z"/>
        <path class="cls-16" d="m279.43,59.46c2.03,4.09,4.3,9.11,8.9,8.9,4.92-.23,8.72-1.36,8.38-7.22-3.37-.17-11.01-4.81-11.01-4.81-2.45-.75-4.67-.34-6.27,3.12Z"/>
        <path class="cls-16" d="m319.98,21.53c2.31,4.66,7.35,6.44,11.93,4.22,3.79-1.83,6.36-9.49,4.02-13-3.61.97-6.33,2.32-10.08,2.9-2.11.32-1.91-.29-3.67,1.55-1.07,1.12-1.86,2.46-2.21,4.33Z"/>
        <path class="cls-21" d="m250.65,107.77c1.9,4.05,3.07,7.74,6.64,9.14,1.19.47,2.65-.05,4.49-.16,1.38-.08,2.56.24,3.55-.43,3.16-2.13,4.19-6.81,2.5-11.02-6.14,2.23-10.9-2.89-17.17,2.47Z"/>
        <path class="cls-28" d="m513.26,106.88c.67,4.59,7.25,3.48,10.5,3.61,4.4.17,8.24,4.09,13.33,4.19,1.25-4.78-.79-12.24-5.9-13.2-7.58-1.42-12.6.37-17.92,5.4Z"/>
        <path class="cls-16" d="m475.98,35.59c.53,2.96,1.67,5.74,3.76,8.01.97,1.06,2.59,1.75,4.09,1.8,1.7.06,1.76-1.1,3.01-1.25,3.47-.42,4.51,1.58,6.15-2.35.82-1.97,1.38-6.92-.15-8.35-2.28-2.14-8.2-1.44-11.05-3.7-1.93,1.12-4.98,3.73-5.8,5.84Z"/>
        <path class="cls-16" d="m195.27,47.59c-.6,2.4-.24,7.43,1.45,9.44,1.41,1.68,3.21.3,6.34,2.06,1.73.97,3.44-1.13,4.96-2.86,1.3-1.49,3.29-4.83,3.23-7.01-.11-3.86-3.76-6.23-6.81-6.61-2.64-.33-8.29,1.15-9.17,4.98Z"/>
        <path class="cls-20" d="m191.79,44.75c3.28,4.62,11.74,3.32,16.07,1.32,1.03.99,4.38,5.88,5.52,6.53,1.7.96,3.08-1.9,5.23-1.96.32-3.28-1.23-10.83-3.87-12.97-1.85-1.5-4.37-1.03-6.97-.43-4.67,1.09-6.99,3.08-10.37,6.17"/>
      </g>
      <path class="cls-5" d="m-19.3,379.22c.78-1.95-2.34-12.85-3.11-14.8-.78-1.95,4.67,5.45,5.84,7.01,1.17,1.56,3.89-5.45,3.89-5.45,0,0,.78,5.06,3.89,5.06s7.4-3.5,7.4-3.5c0,0,7.01,8.57,4.67,8.95s-22.58,2.73-22.58,2.73Z"/>
      <polygon class="cls-5" points="-6.84 374.55 -3.33 360.92 3.28 376.49 -6.84 374.55"/>
      <path class="cls-5" d="m6.79,373.77l-3.89-14.02s-4.28,5.45-3.5,10.9,7.4,3.11,7.4,3.11Z"/>
      <path class="cls-5" d="m464.04,360.35s-1.52-6.52-1.79-8.06-3.09,5.59-3.09,5.59l-2.05-4.26s-6.24,6.13-5.05,6.08c1.19-.05,11.98.66,11.98.66Z"/>
      <g>
        <path class="cls-5" d="m35.47,372.69s-3.44-12.35-5.15-16.11c-1.72-3.76.86,15.57.86,15.57,0,0-2.58-5.64-4.08-6.31s-2.68-.13-2.68-.13c0,0,3.65,7.38,4.08,8.32s7.41-.54,7.41-.54l-.43-.81Z"/>
        <path class="cls-5" d="m35.9,373.62l.27-14.82s3.1,9.43,3.77,9.6,4.45-9.94,4.85-9.27,0,14.49-.81,14.66-8.08-.17-8.08-.17Z"/>
        <path class="cls-5" d="m260.43,354.82s1.52-6.52,1.79-8.06c.27-1.53,3.09,5.59,3.09,5.59l2.05-4.26s6.24,6.13,5.05,6.08c-1.19-.05-11.98.66-11.98.66Z"/>
      </g>
      <path class="cls-10" d="m438.99,370.35c1.84.65,4.35,2.59,3.55,4.85-.8,2.26-4.6,3.99-6.44,3.34s-2.68-3.01-1.89-5.27,2.94-3.57,4.78-2.92Z"/>
      <ellipse class="cls-10" cx="425.48" cy="382.43" rx="2.77" ry="2.63"/>
      <ellipse class="cls-10" cx="425.92" cy="373.67" rx="2.04" ry="1.75"/>
      <ellipse class="cls-10" cx="543.89" cy="401.99" rx="4.09" ry="3.5"/>
      <ellipse class="cls-10" cx="440.37" cy="358.49" rx="2.48" ry="2.63"/>
      <ellipse class="cls-8" cx="458.28" cy="366.66" rx="2.48" ry="2.63"/>
      <ellipse class="cls-8" cx="517.97" cy="384.91" rx="3.72" ry="3.94"/>
      <path class="cls-8" d="m506.8,388.85c0,1.69-1.61,1.75-2.88,1.75s-2.96-.64-2.96-2.34,1.36-1.46,2.63-1.46,3.21.35,3.21,2.04Z"/>
      <ellipse class="cls-8" cx="400.27" cy="381.17" rx="2.48" ry="1.95"/>
      <ellipse class="cls-10" cx="493.37" cy="350.46" rx="2.34" ry="1.9" transform="translate(-77.68 550.8) rotate(-54.72)"/>
      <ellipse class="cls-10" cx="486.36" cy="341.7" rx="2.63" ry="3.07"/>
      <ellipse class="cls-10" cx="484.1" cy="341.91" rx="1.61" ry="3.36" transform="translate(-108.34 325.42) rotate(-33.64)"/>
      <path class="cls-5" d="m406.35,365.06c0-.73-12.99-12.56-9.2-10.8,3.8,1.75,8.76,8.47,8.76,8.47,0,0-4.09-10.66-3.07-11.83,1.02-1.17,4.96,11.83,4.96,11.83,0,0-1.02-14.89-.58-14.89s3.94,10.66,3.94,10.66c0,0-.44-14.16,1.02-12.41,1.46,1.75,2.04,9.34,2.04,9.34l5.11-5.55.73,9.2-13.72,5.99Z"/>
      <path class="cls-10" d="m414.89,345.22c0,1.4-.53,3.55-1.83,3.55s-2.85-2.16-2.85-3.55,1.05-2.53,2.34-2.53,2.34,1.13,2.34,2.53Z"/>
      <path class="cls-10" d="m414.6,345.86c1.21-.7,2.08-1.75,2.73-.63s.19,2.59-1.02,3.29-3.61.94-4.26-.17,1.34-1.78,2.56-2.48Z"/>
      <ellipse class="cls-10" cx="403.14" cy="356.83" rx="2.04" ry="1.75"/>
      <ellipse class="cls-10" cx="411.22" cy="362.38" rx="2.43" ry="1.65"/>
      <ellipse class="cls-10" cx="415.4" cy="353.96" rx="2.04" ry="1.75"/>
    </g>
    <path class="cls-20" d="m259.07-25.06c15.56-1.57,29.73-5.2,38.01-9.21,8.28-4.01,18.35-11.67,27.9-16.46,9.55-4.79,26.48-5.02,68.92-3.12,42.44,1.9,37.74,12.82,44.37,15.29s27.08-19.97,27.08-19.97c0,0,42.92-1.68,63.37,3.58,20.44,5.26,52.92,58.84,52.92,58.84,0,0,23.68,1.16,36.79,16.76L259.07-25.06Z"/>
    <path class="cls-9" d="m234.45,56.16c.44,45.29,1.74,93.5,2.94,138.86-.03,3.05-4,4.81-6.29,2.63-1.58-1.68-3.06-3.18-4.84-4.77-14.6-13.4-36.24-22.32-55.61-15.16-9.19,2.89-13.88-10.13-4.88-13.73,5.22-1.3,10.7-1.67,16.04-1.47,21.66.95,41.06,13.67,54.5,30.03-.04-.03.2.2-.31-.32-2.16-2.04-5.88-.4-5.91,2.47.66-25.17,1.63-59.74,2.1-85.58.39-17.65.65-35.3.84-52.96,0-.39.32-.7.71-.7.38,0,.69.32.7.7h0Z"/>
    <g id="front">
      <g>
        <g>
          <g>
            <g id="Right_Shoe" data-name="Right Shoe">
              <path class="cls-19" d="m274.74,367.68c-.03-.75-.7-1.34-1.49-1.31l-5.29.22c-.92.04-1.65.77-1.64,1.65l.21,12.45c.01,1.27.98,2.87,2.28,3.13.74.15,6.84,2.43,8.68,2.54,2.09.12,4.19,0,6.26-.34,1.49-.25,2.67,1.06,2.8-1.56.02-.44-.68-1.92-1.74-3.05s-6.05-4.56-7.97-7.47c-.42-.64-2.09-6.26-2.09-6.26Z"/>
              <path class="cls-4" d="m281.43,384.73c-3.41.24-7.14.51-11-1.56-.56-.3-1.08-.64-1.66-.89-.36-.16-.74-.28-1.08-.47-.66-.38-1.15-1.03-1.29-1.76.07.34.03,1.23.03,1.57.02,2.01,2.05,2.47,3.55,3.3.66.36,1.3.75,1.98,1.07,1.42.66,3.03,1,4.61,1.01,1.17,0,3.6.23,4.77.21s2.74-.5,3.96-.7c1.45-.25,1.63-.62,1.22-2.67-.64.39-4.29.85-5.09.91Z"/>
            </g>
            <path class="cls-27" d="m269.16,367.14c1.22.82,1.47,1.93,1.87,2.99.4,1.07.79,2.14,1.12,3.22l-.25-.44c.84.94,1.68,1.91,2.5,2.88.9,1.01,1.75,1.85,2.21,3.21.03.08,0,.17-.09.21-.88.14-1.59-.25-2.16-.61-1.62-1.37-3.35-2.78-4.52-4.55-.33-1.09-.6-2.19-.86-3.3-.26-1.11-.66-2.17-.11-3.53.04-.11.18-.15.28-.09h0Z"/>
            <path class="cls-10" d="m280.73,378.14c-.59.87-.87.66-1.24.72-.35.04-.68.06-1.01.07-.99-.07-1.33.21-2.19-.52-.09-.06-.14-.15-.15-.25-.26-1.69,2.54-1.83,3.61-1.44.41.15.89.08,1.05,1.15.02.11-.02.2-.08.28h0Z"/>
            <path class="cls-10" d="m278.67,376.33c-.5.91-.77.73-1.1.81-.32.06-.63.09-.93.11-1.02-.05-1.2.18-2.02-.58-.08-.06-.14-.16-.15-.25-.1-.81.26-1.09.83-1.29.79-.34,1.62-.38,2.42-.15.37.13.8.02,1.01,1.06.02.1,0,.2-.06.29h0Z"/>
            <path class="cls-10" d="m276.81,374.08c-.47.94-.78.76-1.14.85-.35.07-.68.11-1.01.13-.48,0-.91.02-1.36-.03-.16-.06-.33-.2-.75-.46-.09-.05-.16-.13-.18-.23-.4-1.64,2.35-1.87,3.38-1.58.39.12.83,0,1.1,1.02.03.1,0,.2-.04.29h0Z"/>
            <path class="cls-10" d="m276.09,371.64c-.48.94-.95.79-1.42.88-.47.08-.95.12-1.42.13-.7-.01-1.4-.04-2.08-.17-.24-.06-.61-.48-.88-.8-.02-.02-.02-.04-.02-.07.13-.58.42-.81.67-.97,1.21-.43,2.5-.51,3.75-.29.49.11.99-.05,1.48,1,.05.09-.05.21-.08.28h0Z"/>
            <path class="cls-10" d="m275.84,369.12c-.42,1.01-.89.89-1.36,1.04-.9.25-1.83.36-2.73.4-.74.11-.67,0-1.44-.37-.06-.04-.24-.06-.25-.16-.36-1.79,3.02-2.11,4.21-2.03.5.06,1-.14,1.55.82.05.09.05.2.01.29h0Z"/>
            <path class="cls-10" d="m273.83,369.2c2.68.54,7.18,2.88,6.19,6.34-.4,1.02-1.67,1.08-2.4.58-2.2-1.52-3.58-3.72-5.12-5.83,0,0,2.06-.15,2.06-.15-1.06,2.01-2.02,4.17-4.06,5.44-.9.58-2.76.17-2.74-1.34.11-1.45,1.19-2.31,2.05-3.26.88-.87,1.77-1.66,2.72-2.43.44-.36,1.08-.29,1.44.14.17.2.24.46.23.7-.07,1.35-.17,2.67-.46,3.99-.3,1.32-.68,2.7-1.57,3.78-.09.11-.29.03-.27-.12.13-1.13.12-2.72.15-3.86,0-1.28.08-2.57.08-3.83l1.7.81c-1.28,1.12-3.06,2.92-3.74,4.06.04-.17-.22-.6-.39-.65-.25-.14-.37-.03-.27-.09,1.33-1.06,2.16-2.88,2.99-4.38.38-.81,1.58-.88,2.05-.13,1.28,1.81,2.55,3.88,4.25,5.3.06.05.15.06-.01.04-.17-.04-.58.2-.61.36.06-.22-.06-.66-.28-.98-1.09-1.6-2.71-2.77-4.13-4.24-.11-.1,0-.29.14-.26h0Z"/>
          </g>
          <g>
            <polygon class="cls-15" points="231.56 360.1 232.89 378.26 224.89 377.74 222.37 358.2 231.56 360.1"/>
            <path class="cls-19" d="m208.59,381.17c.44-3.52,2.75-3.06,6.75-4.93,1.66-.78,4.11-1.69,4.37-2.27.7-1.56,2.6-5.99,3.26-6.12.41-.08,2.5-.86,2.91-.88l6.53-.46c.4-.02.76,8.3.84,8.7.24,1.3,1.07,3.92.79,5.19s-.8,1.01-1.1,1.13c-.07.03-.17-.18-.25-.17l-22.41.53s-1.88.97-1.67-.71Z"/>
            <path class="cls-27" d="m224.19,367.93c.81.98.16,2.26.05,3.3-.2.98-.43,1.89-.74,2.81-.17.4-.44.62-.65.8-2.01,1.39-3.64,2.72-6.14,2.9-.13,0-.22-.14-.15-.25,1.13-2,3.27-2.91,4.78-4.35.07-.07.14-.16.11-.12,0,.02-.02.01-.09.16.07-.86.73-2.91,1.22-4.11.24-.67.69-1.15,1.44-1.37.15-.11.33.13.17.24h0Z"/>
            <path class="cls-10" d="m216.81,375.37c.21-1.02.59-.86.91-.93.67-.11,1.37.09,1.89.53.25.2.61.36.29,1.26-.03.09-.08.16-.15.21-.7.57-.88.49-1.08.46-.43-.02-.76-.1-1.14-.3-.21-.12-.36.03-.67-.93-.03-.09-.07-.2-.04-.29h0Z"/>
            <path class="cls-10" d="m213.78,376.65c-.06-1.04.42-1,.75-1.13.91-.31,2.03.09,2.54.9.09.17,0,.85-.33,1.09-.77.48-.92.39-1.09.36-.46,0-.78-.13-1.2-.28-.06-.04-.57-.59-.66-.94h0Z"/>
            <path class="cls-10" d="m219.46,374.51c-.04,1.12-.94,1.07-1.4.34-.28-.5-.04-1.16.44-1.41.9-.47,1.91-.41,2.64.24.25.21.59.37.23,1.25-.04.09-.09.16-.16.21-.71.55-.88.47-1.06.44-.32-.01-.63-.02-.85-.21-.04-.03.1-.09.16-.12.85-.49.52-1.8-.33-1.82-.2.04.38.69.34,1.08h0Z"/>
            <path class="cls-10" d="m223,371.04c-.16.99-.38.84-.58.95-.56.23-1.17.08-1.65-.28-.09-.1-.31-.58-.1-.97.26-.26.46-.78.52-.84.34-.26.82-.27,1.23-.08.18.1.35-.06.57.92.02.1.03.2.01.29h0Z"/>
            <path class="cls-10" d="m222.04,373.73c-.33.95-.53.75-.73.79-.21.02-.42,0-.6-.07-.18-.07-.33-.21-.47-.36-.12-.15-.35-.2,0-1.07.04-.09.1-.17.17-.24.61-.69.66-.59.81-.6.15-.01.28-.01.39.03.11.05.2.12.29.23.1.14.2,0,.18,1,0,.1-.01.2-.05.29h0Z"/>
            <path class="cls-4" d="m234.05,380.49c-.38.02-23.43.98-24.56,1.02s-1.63-.41-1.63-.41c-.29.39.14,2.06.75,2.06.58,0,19.1-.5,23.89-.63.68-.02,1.12-.41,1.41-1.02l.15-1.02Z"/>
            <path class="cls-10" d="m221.61,369.43c-.13-.06-.03-.21-.04-.32.14-.77.57-1.41,1.21-1.88,1.57-1.43,3.88-.92,3.83,1.54-.41,2.19-3,2.37-4.7,2.38,0,0,1.08-1.1,1.08-1.1-.04,1.58-.02,3.71-.65,5.21-.03.1-.17.14-.25.06-1.34-1.45-1.16-3.45-1.31-5.27-.03-.55.37-1.02.9-1.08.83-.1,2-.26,2.62-.65,0,0-.06.08-.05.17,0,.09.02.09.01.05-.01-.05.01.01.15.08.14.07.24.03.2.02-.43.03-1.06.6-1.58.78-.34.14-.73.26-1.12.29,0,0-.3.02-.3.02-.19.01-.2-.29-.01-.29h0Z"/>
          </g>
          <path class="cls-25" d="m273.37,281.05c-.4-2.86,8.48,85.7,2.02,91.84-.79.75-9.93,3.53-13.9,1.75-2.58-1.16-22.16-89.89-20.9-86.56-.27-.72,3.45-9.6,3.45-9.6l29.33,2.57Z"/>
          <path class="cls-25" d="m231.55,274.92s-14.57,35.68-16.03,47.45c-1.46,11.77,4.3,48.96,4.3,48.96,0,0,16.59,1.8,17.47-.43s2.12-44.21,2.12-44.21c0,0,21.14-40.36,19.04-43.93-2.1-3.57-26.9-7.84-26.9-7.84Z"/>
        </g>
        <path class="cls-6" d="m243.06,227.82l-.81,2.38c-.81,2.38-17.69,2.94-17.69,2.94,0,0-1.82-3.27.48-4.6,2.29-1.34,12.08-4.74,16.09-4.39,1.81.16,5.89.59,5.89.59l-3.96,3.08"/>
        <g>
          <path class="cls-22" d="m283.17,277.24c.2,2.21-6.95,15.98-.65,16.08.23-1.1.03-4.17.93-4.96,2.14,3.01,1.34,6.91,2.25,10.29,4.12,1.27,1.95-3.69,2.49-6.45,1.4,2.15.88,8.78,3.94,7.39,1.3-.41-.6-6.01-.82-7.99,1.96,2.89,1.99,7.54,5.17,6.73,1.33-.57-1.26-5.88-2.57-8.47,1.24.84,2.35,6.13,3.75,5.19,2.19-1.48-3.02-10.06-4.07-11.42-2.91-3.75-4.29-5.06-8.99-5.41"/>
          <path class="cls-7" d="m221.62,219.41s-.47-.02-.86-1.54-.84-5.93-.84-5.93l5.73,1.79-4.03,5.67Z"/>
          <path class="cls-26" d="m227.63,230.78s-5.14,4.22-7.97,7.34c-2.83,3.11-1.45,12.74-1.45,12.74,0,0,1.07,31.4,2.21,33.39,1.61,2.8,11.68,5.45,14.29,4.58,4.74-1.59,32.22-15.31,32.65-15.4,5.23-1.12-6.33-34.75-3.61-36.02,1.32-.61-17.04-8.84-17.65-9.02s-10.28-1.25-11.02-1.07-7.45,3.46-7.45,3.46Z"/>
          <path class="cls-31" d="m246.15,225.65l27.66,55.48s-12.85,11.64-33.06,10.6c-1.04-.05-9.83,1.01-15.49-2.88l3.04-9.28.74-46.59,17.11-7.32Z"/>
          <path class="cls-26" d="m262.39,238.27c5.36,10.09,9.87,23.17,13.94,37.81l-10.85,6.77c-.81,1.07-5.77,2.65-6.98,3.17-7.81,3.38-13.43.54-14.55-5.32-3.81-19.97-9.56-45.31-9.32-46.42.31-1.44,7.62-8.03,7.75-8.02l11.3,5.18"/>
          <path class="cls-7" d="m243.73,208.66s6.87-2.11,5.69,3.44c-.64,3.03-1.68,1.69-1.95,3.4s.72,1.48-.88,3.71c-.76,1.06-3.35-.14-3.35-.14h0c-.64.6-1.7.3-1.93-.55l-.11-.42-5.05,1.65s-1.02.11-1.4-.22-.44-1.34-.1-2.86,3.26-.57,3.74-3.18c.48-2.61-.28-3.63,1.18-5.1,1.46-1.47,4.18.26,4.18.26Z"/>
          <path class="cls-22" d="m227.13,224.96l1.24,5.46-3.37,2.61s4.84.93,9.53-.21c4.69-1.14,8.25-4.79,8.25-4.79l-4.41-.49-2.67-12.37-8.56,9.79Z"/>
          <g>
            <path class="cls-22" d="m220.3,206.01c-.52,4-.39,10.03.85,14,.35,1.11.62,2.12,1.04,2.8,1.23,2,2.39,2.33,3.68,2.67,3.19.84,6.71.56,7.97-1.07,2.55-3.3,5.93-12.71,6.44-16.69.92-7.11-3.43-9.36-9.05-10.09s-10.01,1.26-10.93,8.37Z"/>
            <path class="cls-22" d="m221.95,211.81c.08-1.2-.36-2.76-.78-3.29s-1.02-.47-1.53.18c-.3.38-.49,1.14-.62,1.84-.15.78-.1,1.6.03,2.24.24,1.12,1.74,2.53,2.36,2.32s.38-1.65.52-3.04"/>
            <path class="cls-22" d="m237.53,214.83c.23-1.18,1.75-2.49,2.3-2.9s.86-.22,1.21.53c.2.44.19,1.23.15,1.94-.05.79-.31,1.57-.61,2.15-.53,1.02-2.79,1.95-3.36,1.58s.04-1.69.27-3.07"/>
            <path class="cls-7" d="m227.52,197.75s6.02,3.91,7.25,5.24,2.18,8.06,3.99,8.81c2.67,1.11,1.11-.12,2.48.68.42.25-1.21-1.92-.81-1.73s.97-.43,1.31-2.04,2.84,2.23,2.6-.76c-.24-3-1.16-5.7-3.68-8.22-1.88-1.89-3.35-4.2-6.03-4.56-1.38-.19-7.12,2.57-7.12,2.57Z"/>
            <path class="cls-7" d="m233.47,199.42s-.06-1.57-2.44-1.67c-2.39-.1-2.23.13-3.04.02s-4.18-1.16-7.48,1.73-1.16,4.94-1.18,5.22c-.11,2.27.28,1.44.55,3.18.22,1.39,1.85,1.94,1.85,1.94,0,0-.56-5.15,1.52-5.58,2.08-.42-.04-3.18,4.33-2.75s6.52-.54,7.07-1.3c.55-.76-1.17-.8-1.17-.8Z"/>
            <path class="cls-14" d="m225.64,220.65c-.43.66-.6,1.49,1.25,2.02,1.13.33,2.88-.17,3.31-.84s.53-.58.11-.86c-.98-.65-4.24-.99-4.67-.33Z"/>
            <path class="cls-29" d="m231.1,221.97c-.93.65-1.34.3-1.85.22-.5-.09-.94-.15-1.37-.18-.43-.03-.88-.05-1.37-.03-.5.02-.95.23-1.78-.44-.09-.07-.12-.17-.1-.28.22-1.05.85-1.19,1.46-1.39.61-.2,1.29-.33,1.98-.27.69.05,1.35.26,1.91.55.55.31,1.16.42,1.25,1.55,0,.11-.04.21-.13.27h0Z"/>
            <path class="cls-24" d="m228.7,210.78c.51.96.3,1.63.1,2.3-.24.88-.72,2.53-.96,3.39,0,0-.04.15-.04.15,0,0,0,.03,0,0,0-.09-.03-.19-.07-.28-.1-.14-.15.01.05.13.17.09.43.38.69,1.05.04.09.02.18-.02.25-.42.66-.91.75-1.39.61-.49-.09-1.51-.66-1.6-1.56-.05-.49.07-.98.18-1.42.28-1.07.74-2.06,1.2-3.04.28-.65.59-1.3,1.59-1.66.1-.05.23,0,.28.09h0Z"/>
          </g>
          <path class="cls-7" d="m221.59,208.62c1.06.91.97,2,.98,3.04.21,3.08-1.65,5.48-2.31,8.31,0,0-.23.18-.23.18-2.61-.82-.56-4.43-.19-6,.24-.84.45-1.72.58-2.63.14-1.05.1-1.9.86-2.85,0,0,.29-.04.29-.04h0Z"/>
          <path class="cls-7" d="m243.12,217.77c-.39.77-.73.89-1.35,1.13-.41.17-.66.48-.59.43,0,0,.02-.03,0,0l-.06.19c-.07.21-.23.71-.29.79,0,.03-.21-.25-.18-.07.03.14.2.42.35.95l-.06.29c-.86,1.05-2.19.09-2.27-.99-.08-.95.05-1.47.38-2.26.49-.89,1.29-1.2,2.12-1.37.66-.11,1.31-.28,1.94.63v.29h0Z"/>
          <path class="cls-7" d="m220.59,212.74c1.11.37,1.02,1.12,1.05,1.8.14,1.53-1.31,3.06-2.59,3.64-.16.04-.42.14-.92.32-.62-.03-.82-.83-.67-1.28.36-.86,1.14-1.37,1.57-2.03.17-.22.33-.5.45-.9.14-.42-.03-.78.82-1.48l.28-.08h0Z"/>
          <path class="cls-7" d="m240.73,217.47c.74,1.32-.88,1.6-1.04,2.66-.09.29.03.6-.81,1.14l-.29.05c-.96-.25-.97-.72-1.04-1.22-.07-.49-.06-1.14.31-1.75.38-.62.92-.91,1.25-1.05.55-.29.6-.25,1.39-.01,0,0,.23.18.23.18h0Z"/>
          <path class="cls-2" d="m236.53,210.38c-.32-2.62-.31-6.36-.31-6.36l5.25,6.67-2.24,1.14c-1.16.59-2.55-.15-2.71-1.45Z"/>
          <path class="cls-7" d="m236.81,223.16c-1.92-3.15-1.46-7.38.45-10.43.32-.42.75-.78,1.37-1l.26.14c.36,1.29-.11,2.07-.33,2.97-.25.88-.4,1.76-.5,2.63-.2,1.37-.04,2.75-.06,4.19-.06.54-.28,1.19-.9,1.57l-.28-.08h0Z"/>
          <path class="cls-22" d="m230.66,196.05c2,1.7-2.79,5.24-5.93,5.26l-17.44,18.07c-.39.52-.8,1.06-1.38,1.44-.71.48-.24-2.75-1.16-2.6-1.46.24-1.76,1.34-3.23.99-1.58-.38-5.86.62-6.3-.69-.22-.66-.12-1.04.28-1.93,0,0,14.34-15.94,24.27-22.01.91-.56,6.9.51,7.73,1.23l3.15.24Z"/>
          <path class="cls-26" d="m226.78,264.4s-2.73-10.14-8.24-12.12c-31.75-11.39-29.81-23.27-29.81-23.27,0,0,6-19.4,20.85-28.36,1.41-.85,11.92,1.24,10.71,6.44-1.32,5.65-13.64,20.21-13.1,20.32,14.74,3.06,18.62,2.09,18.62,2.09l.97,34.91Z"/>
          <g>
            <path class="cls-22" d="m287.4,280.33c-.69.23-5.58,4.02-4.55,1.99-1.83-8.25-3.44-16.4-3.97-24.8-.06-.88-.23-1.29.03-2.02.27-.74,1.96,1.66,2.54,1.05.93-.97.51-2,1.79-2.84,1.29-.85,3.32-3.91,5.07-3.55.88.18.74.92,1.14,1.48-.25,10.22,1.39,20.37,1.65,30.44.02.93-3.03-1.97-3.72-1.74.05-.09,0,0,0,0Z"/>
            <path class="cls-26" d="m242.91,236.18c-4.92-1.4-5.06-8.32-.19-9.91,6.2-2.03,8.93-2.42,14.02-1.44,12.66,2.44,26.8,11.28,32.18,20.87,5.38,9.59,4.86,17.26,3.88,28.89-.09,1.1-8.63,6.7-12.05,3.37-3.72-3.62-5.53-22.2-5.98-22.71-5.93-6.72-12.08-9.16-17.26-14.36-4.66-1.77-9.65-3.29-14.61-4.71Z"/>
          </g>
        </g>
        <path class="cls-30" d="m271.91,297.06c-1.47.5-2.54-.23-3.6-.77-2.14-1.15-4.02-2.83-5.35-4.88-.69-.99-1.37-2.06-1.1-3.5l.26-.13c1.35.59,1.8,1.52,2.54,2.33,1.44,1.62,3.05,3.04,4.79,4.34.88.67,1.86,1.02,2.54,2.33l-.09.28h0Z"/>
        <path class="cls-6" d="m239.33,225.6l5.29-1.1s-1.33,3.54-3.16,4.83-6.58,4.33-6.58,4.33l.27-1.88c-.27-1.13.3-3.78,1.42-4.11s1.98-1.26,1.94-2.41"/>
        <path class="cls-26" d="m224.87,233.06s6.1,1.27,5.95,2.92,4.75,52.58,4.75,52.58l-4.91.81c-1.09-.23-4.93-.39-7.86-2.21-1.47-.91-2.28-2.59-2.13-4.31l4.21-49.79Z"/>
        <path class="cls-6" d="m224.24,229.95l3.04,1.63c1.03.33,1.88,1.06,2.35,2.02l1.18,2.39s-6.59-1.42-6.97-3.4.4-2.64.4-2.64Z"/>
        <path class="cls-18" d="m234.77,234.06c1.92,4.11,2.73,8.48,3.79,12.78,1.04,4.31,2.02,8.63,3,12.96.93,4.33,1.87,8.66,2.75,13.01.88,4.34,1.91,8.66,1.97,13.18l-.29.06c-3.33-8.17-4.62-17.2-6.79-25.74-.94-4.33-1.88-8.66-2.75-13.01-.86-4.35-1.97-8.64-1.96-13.18l.29-.06h0Z"/>
        <path class="cls-18" d="m231.15,235.89c1.38,4.3,1.62,8.69,2.12,13.07.48,4.38.89,8.76,1.31,13.14.37,4.39.75,8.77,1.05,13.17.32,4.39.78,8.77.26,13.24l-.29.03c-2.26-8.51-2.38-17.5-3.43-26.21-.37-4.39-.76-8.77-1.06-13.16-.29-4.39-.84-8.76-.25-13.24l.29-.03h0Z"/>
      </g>
    </g>
    <g>
      <path class="cls-16" d="m170.49,177.67s-1.86,2.9-3.72,2.71c-3.4-.35-7.15-2.29-8.86-5.04-2.79-5-.67-9.72,4.72-10.65,6.27-6.77,12.28,3.82,11.42,10.24-.29,2.14-3.56,2.75-3.56,2.75Z"/>
      <path class="cls-11" d="m161.33,166.43l-2.8-2.91s1.4-.8,1.86.25,1.02,2.31,1.02,2.31c0,0,.44.02-.08.35Z"/>
      <path class="cls-12" d="m160.05,166.44c-.04.66.22.78.25.87,0,.07.14.18.05-.05-.05-.11-.3-.27-.47-.25-.15,0-.17.02-.14,0,.07-.06.24-.2.42-.43l1.25-1.47c.39-.53.83-.97,1.76-1.18l.27.11c.36,1.01.02,1.66-.32,2.24-.63,1.02-1,2-2.09,2.75-1.66,1.08-3.32-.63-2.65-2.27.2-.66,1.41-1.14,1.65-.31h0Z"/>
    </g>
    <g>
      <path class="cls-16" d="m329.23,361.83s1.09,3.27-.22,4.59c-2.41,2.43-6.27,4.13-9.48,3.74-5.64-.96-7.99-5.57-5.34-10.35-1.34-9.13,10.67-7.17,15.14-2.48,1.49,1.57-.09,4.5-.09,4.5Z"/>
      <path class="cls-11" d="m314.73,361.92l-4.02.36s.26-1.59,1.36-1.3,2.44.65,2.44.65c0,0,.29-.33.23.28Z"/>
      <path class="cls-12" d="m313.94,362.92c.49.44.75.31.83.35.06.04.22,0,0-.07-.12-.04-.4.07-.49.2-.09.12-.09.14-.09.1,0-.09,0-.31-.07-.6l-.36-1.89c-.17-.64-.24-1.26.19-2.11l.25-.15c1.01.35,1.31,1.02,1.54,1.65.4,1.13.93,2.03.83,3.35-.2,1.97-2.58,2.19-3.43.64-.38-.54-.02-1.82.79-1.48h0Z"/>
    </g>
    <g>
      <path class="cls-16" d="m468.82,374.37s-3.05-1.6-3.03-3.46c.05-3.42,1.65-7.33,4.23-9.28,4.73-3.22,9.62-1.53,11.03,3.75,7.3,5.64-2.71,12.57-9.18,12.29-2.16-.09-3.05-3.3-3.05-3.3Z"/>
      <path class="cls-11" d="m479.2,364.24l2.65-3.05s.92,1.33-.08,1.87-2.21,1.22-2.21,1.22c0,0,.02.44-.36-.05Z"/>
      <path class="cls-12" d="m479.08,362.97c-.66.02-.76.29-.84.33-.07.01-.16.15.05.05.11-.06.24-.33.21-.49-.01-.15-.03-.16,0-.14.07.06.22.22.46.38l1.58,1.11c.56.34,1.05.74,1.33,1.65l-.08.28c-.97.45-1.65.17-2.26-.12-1.07-.53-2.08-.82-2.92-1.84-1.23-1.56.33-3.37,2.03-2.84.67.14,1.26,1.31.45,1.61h0Z"/>
    </g>
    <g>
      <path class="cls-16" d="m512.36,365.82s-1.86,2.9-3.72,2.71c-3.4-.35-7.15-2.29-8.86-5.04-2.79-5-.67-9.72,4.72-10.65,6.27-6.77,12.28,3.82,11.42,10.24-.29,2.14-3.56,2.75-3.56,2.75Z"/>
      <path class="cls-11" d="m503.2,354.58l-2.8-2.91s1.4-.8,1.86.25,1.02,2.31,1.02,2.31c0,0,.44.02-.08.35Z"/>
      <path class="cls-12" d="m501.92,354.59c-.04.66.22.78.25.87,0,.07.14.18.05-.05-.05-.11-.3-.27-.47-.25-.15,0-.17.02-.14,0,.07-.06.24-.2.42-.43l1.25-1.47c.39-.53.83-.97,1.76-1.18l.27.11c.36,1.01.02,1.66-.32,2.24-.63,1.02-1,2-2.09,2.75-1.66,1.08-3.32-.63-2.65-2.27.2-.66,1.41-1.14,1.65-.31h0Z"/>
    </g>
  </g>
</svg>