<?xml version="1.0" encoding="UTF-8"?><svg id="a" xmlns="http://www.w3.org/2000/svg" width="570" height="300" xmlns:xlink="http://www.w3.org/1999/xlink" viewBox="0 0 570 300"><defs><clipPath id="b"><path d="m569.68,158.71c1.73,25.72-3.63,51.8-16.07,75.51-17.03,32.47-57.69,57.44-104.45,63.55-52.65,6.88-105.55-8.83-158.91-11.47-59.26-2.93-120.46,10.22-177.3-2.43-33.61-7.48-63.25-23.95-82.71-45.42C3.74,209.21-3.28,172.28,1.3,137.3c4.85-36.98,27.27-72.77,67-96.42C134.47,1.5,239.14-2.11,320.73,1.31c56.98,2.39,127.19,12.12,172.76,39.42,42.58,25.51,68.08,64.93,74.63,104.49.74,4.48,1.26,8.98,1.56,13.49Z" fill="#ace8e3" stroke-width="0"/></clipPath></defs><path d="m569.68,158.71c1.73,25.72-3.63,51.8-16.07,75.51-17.03,32.47-57.69,57.44-104.45,63.55-52.65,6.88-105.55-8.83-158.91-11.47-59.26-2.93-120.46,10.22-177.3-2.43-33.61-7.48-63.25-23.95-82.71-45.42C3.74,209.21-3.28,172.28,1.3,137.3c4.85-36.98,27.27-72.77,67-96.42C134.47,1.5,239.14-2.11,320.73,1.31c56.98,2.39,127.19,12.12,172.76,39.42,42.58,25.51,68.08,64.93,74.63,104.49.74,4.48,1.26,8.98,1.56,13.49Z" fill="#ace8e3"/><g clip-path="url(#b)"><path d="m280.22,248.65s-37.47,14.21-64.61,9.05c-27.14-5.17-5.17-19.38-34.89-23.26-29.72-3.88-42.64,5.17-58.15-15.51-15.51-20.67-21.97-14.21-34.89-59.44-12.92-45.23-24.65-5.33-11.03-73.73,13.62-68.41,5.56-80.71-4.62-135.93-10.19-55.23-13.14-122.91,46.48-174.35,59.63-51.44,75.13-13.97,95.81-42.4,20.67-28.43,31.01-67.19,63.32-59.44,32.3,7.75,58.15,25.84,112.42,19.38,54.27-6.46,102.08,10.34,102.08,27.14s19.38,42.64,42.64,55.56c23.26,12.92,76.24,34.89,67.19,72.36-9.05,37.47-33.6,81.41-38.76,94.33-5.17,12.92,11.63,56.85,11.63,90.45s16.8-5.17-1.29,52.98c-18.09,58.15,6.46,95.62-42.64,117.59-49.1,21.97-19.38,36.18-72.36,36.18s-49.1,0-67.19-3.88c-18.09-3.88-33.6-1.29-34.89-19.38-1.29-18.09-24.55-2.58-45.23-6.46-20.67-3.88,41.35,5.17,24.55,20.67-16.8,15.51-32.3,21.97-55.56,18.09Z" fill="#36725f" stroke-width="0"/><path d="m284,30.5s-5.67-3.18-7-8c-1.52-5.48-1-14,5.71-12.33" fill="none" stroke="#faa61a" stroke-miterlimit="10" stroke-width="4"/><path d="m275.44,626.79h58.3s-6.16-80.11-4.93-83.81-11.09-50.53-9.86-57.93c1.23-7.4,20.95-77.65,20.95-85.04s7.4-33.28,6.16-44.37c-1.23-11.09,4.93-43.14,4.93-43.14l12.33-19.72s28.35-32.05,35.74-55.46c7.4-23.42,23.42-89.97,23.42-89.97l4.93-38.21,6.16-81.35-1.23-71.49s-16.02-6.16-19.72-1.23c-3.7,4.93-7.4,106-7.4,109.7s-11.09,54.23-13.56,64.09c-2.47,9.86-29.17,100.25-33.28,107.23-2.65,4.51-19.72,35.74-23.42,35.74s-4.93-1.23-8.63-8.63c-3.7-7.4-4.93-84.63-4.93-84.63,0,0,9.41-37.06,10.68-46.84s5.34-43.96,6.57-55.05c1.23-11.09,2.05-31.64,1.23-48.89-.73-15.38-1.23-14.79-3.7-50.53-2.47-35.74-2.47-39.44-2.47-39.44l-8.63-16.02-24.65,2.47,2.47,64.91s4.51,66.97,3.29,74.36c-12.74,77.24-18.08,101.07-18.49,116.27-.27,10.16,1.33,78.88,1.33,78.88,0,0,.07,29.28,2.78,41.5.82,3.7,1.23,64.09,1.23,64.09,0,0-18.49,94.91-20.95,113.39-2.47,18.49-1.6,139.28,3.33,149.14Z" fill="#332b20" stroke-width="0"/><path d="m420.7,35.01S379.33,3,375.6-5.65c-3.72-8.65-16.97-78.73-19.45-96.03-2.48-17.3,6.21-17.3,6.21-17.3l4.97,17.3s14.9,77.87,19.86,86.52c4.97,8.65,36,31.15,36,31.15l-2.48,19.03Z" fill="#332b20" stroke-width="0"/><path d="m298.5,33.28c-4.18,0-66.93-27.69-66.93-27.69l-61.35-29.42-1.39-15.57L238.54-4.79l68.32,25.96,5.58,24.22-13.94-12.11Z" fill="#332b20" stroke-width="0"/><polygon points="292.11 159.6 270.05 150.51 266.16 162.19 292.11 171.28 292.11 159.6" fill="#332b20" stroke-width="0"/><path d="m412.8,159.6s46.72-12.98,53.21-24.66c6.49-11.68,38.93-57.1,40.23-61,1.3-3.89-10.38-14.28-10.38-14.28,0,0-6.49,19.47-14.28,29.85-7.79,10.38-25.96,42.83-33.74,46.72-7.79,3.89-33.74,10.38-33.74,10.38l-1.3,12.98Z" fill="#332b20" stroke-width="0"/><path d="m503.05-26.45c-.89,0-3.24-.48-6.55-1.21-16.62-3.64-23.89,12.22-29.49,25.2-6.71,15.57-2.69,36.34-8.06,38.07s-24.17,29.42-14.77,46.72c9.4,17.3,40.28,22.49,63.11,22.49s16.11-17.3,29.54-20.76c13.43-3.46,22.83,8.65,37.6-5.19,14.77-13.84,18.8-22.49,14.77-34.61-4.03-12.11-4.52-2.89,8.05-23.24,12.57-20.35-21.3-38.85-37.41-38.85s-7.1-8.63-25.9-8.63h-30.88Z" fill="#36725f" stroke-width="0"/></g><polygon points="285.53 125.7 238.44 174.01 254.2 241.5 316.86 241.5 332.63 174.01 285.53 125.7" fill="#ce5757" stroke-width="0"/><polygon points="343.35 190.66 285.6 132.02 229.53 190.58 219.09 180.58 283.12 113.7 287.94 113.78 353.66 180.51 343.35 190.66" fill="#ce5757" stroke-width="0"/><path d="m286.01,194.37c-7.5,0-13.6-6.1-13.6-13.61s6.1-13.6,13.6-13.6,13.61,6.1,13.61,13.6-6.1,13.61-13.61,13.61Z" fill="#560b0b" stroke-width="0"/><path d="m286.01,170.16c5.86,0,10.61,4.75,10.61,10.61s-4.75,10.61-10.61,10.61-10.6-4.75-10.6-10.61,4.75-10.61,10.6-10.61m0-6c-9.16,0-16.6,7.45-16.6,16.61s7.45,16.61,16.6,16.61,16.61-7.45,16.61-16.61-7.45-16.61-16.61-16.61h0Z" fill="#fff" stroke-width="0"/><path d="m239.7,179.76c14.26-17.16,30.24-32.71,45.45-49,0,0,.87-.91.87-.91,7.86,8.16,15.72,16.32,23.54,24.53,7.54,7.9,15.16,15.72,22.1,24.18,0,0-.21.2-.21.2-8.23-7.21-15.78-15.09-23.43-22.89-7.65-7.78-15.25-15.61-22.86-23.44h1.73c-7.71,8.03-15.43,16.06-23.19,24.05-7.78,7.97-15.36,16.13-23.78,23.48l-.21-.2h0Z" fill="#7f1b1b" stroke-width="0"/><path d="m286.01,212.72c-1.8,0-2.83,1.84-3.5,3.22-.95,2.34.98,5.16,3.5,5.07,2.49.12,4.48-2.71,3.51-5.07-.64-1.43-1.69-3.24-3.51-3.22h0Zm0-.29c3.28-.18,5.81,1.46,5.89,4.97-.1,7.96-11.69,7.96-11.79,0,.15-3.58,2.52-5.2,5.9-4.97h0Z" fill="#7f1b1b" stroke-width="0"/><polygon points="282.92 8.15 284.49 8.43 284.77 12.77 281.67 11.6 282.92 8.15" fill="#faa61a" stroke-width="0"/><path d="m283.5,113.91c.65-14.05.4-28.05.08-42.13-.15-14.24,0-28.54-.6-42.78,2.36-4.34,7.16-14.66.26-16.88,0,0,1.15-3.72,1.15-3.72,9.93,3.15,6.04,15.45,2.34,22.08,0,0,.26-1.07.26-1.07.36,10.6.57,21.18.5,31.78.04,17.6.89,35.27,0,52.88,0,0-4-.17-4-.17h0Z" fill="#faa61a" stroke-width="0"/></svg>