<?xml version="1.0" encoding="UTF-8"?><svg id="d" xmlns="http://www.w3.org/2000/svg" width="570" height="321" viewBox="0 0 570 321"><line x1="72" y1="221" x2="365" y2="43" fill="none" stroke="#0077a2" stroke-miterlimit="10" stroke-width="2"/><polyline points="83 19 83 275.95 542.2 275.95" fill="none" stroke="#000" stroke-miterlimit="10" stroke-width="2"/><circle cx="135.5" cy="181.5" r="7.5" fill="#0077a2"/><circle cx="320.5" cy="70.5" r="7.5" fill="#0077a2"/><polyline points="135.5 181.5 320.5 181.5 320.5 71.78" fill="none" stroke="#0077a2" stroke-miterlimit="10" stroke-width="2"/><rect x="303.48" y="163.98" width="17" height="17" fill="none" stroke="#0077a2" stroke-miterlimit="10" stroke-width="2"/><path d="m63.24,197.69h-17.06v-5.25c0-1.5.34-2.84,1.01-4.03s1.64-2.11,2.88-2.77,2.66-1,4.25-1h.79c1.59,0,3,.33,4.23.98s2.19,1.57,2.87,2.76,1.02,2.53,1.03,4.02v5.29Zm-14.21-3.52h11.39v-1.7c0-1.38-.45-2.43-1.35-3.15s-2.18-1.1-3.86-1.11h-.9c-1.73,0-3.05.36-3.94,1.08s-1.34,1.77-1.34,3.15v1.73Z"/><path d="m47.28,182.34c-.51,0-.93-.17-1.25-.51s-.49-.8-.49-1.39.16-1.04.49-1.38.75-.52,1.25-.52.94.17,1.27.52.49.81.49,1.38-.16,1.03-.49,1.38-.75.52-1.27.52Zm15.96-3.6v3.4h-12.68v-3.4h12.68Z"/><path d="m59.74,169.08c-.41,0-.74.21-.98.62s-.45,1.07-.64,1.97c-.63,3.02-1.91,4.52-3.84,4.52-1.12,0-2.06-.47-2.82-1.4s-1.13-2.15-1.13-3.66c0-1.61.38-2.9,1.14-3.86s1.74-1.45,2.95-1.45v3.39c-.48,0-.88.16-1.2.47s-.47.8-.47,1.46c0,.57.13,1.01.39,1.32s.59.47.98.47c.38,0,.68-.18.91-.53s.43-.96.6-1.8.36-1.55.57-2.13c.66-1.79,1.79-2.68,3.41-2.68,1.16,0,2.09.5,2.81,1.49s1.07,2.27,1.07,3.84c0,1.06-.19,2.01-.57,2.83s-.9,1.47-1.56,1.94-1.37.7-2.14.7v-3.21c.6-.03,1.06-.25,1.38-.67s.48-.97.48-1.66c0-.65-.12-1.14-.37-1.47s-.57-.5-.97-.5Z"/><path d="m47.44,159.56h3.12v-2.17h2.48v2.17h6.33c.47,0,.8-.09,1.01-.27s.3-.52.3-1.03c0-.38-.03-.71-.08-1h2.57c.2.66.3,1.35.3,2.05,0,2.38-1.2,3.59-3.6,3.63h-6.83v1.85h-2.48v-1.85h-3.12v-3.39Z"/><path d="m63.24,148.15c-.3.16-.68.27-1.14.34.91.82,1.37,1.89,1.37,3.2,0,1.24-.36,2.27-1.08,3.09s-1.62,1.22-2.72,1.22c-1.34,0-2.38-.5-3.09-1.49s-1.08-2.44-1.09-4.32v-1.56h-.73c-.59,0-1.05.15-1.41.45s-.53.78-.53,1.42c0,.57.14,1.02.41,1.34s.65.49,1.12.49v3.39c-.73,0-1.41-.23-2.04-.68s-1.12-1.09-1.47-1.92-.53-1.76-.53-2.79c0-1.56.39-2.8,1.18-3.72s1.89-1.38,3.31-1.38h5.5c1.2,0,2.11-.18,2.73-.5h.2v3.42Zm-2.36,2.8c0-.5-.11-.96-.33-1.38s-.52-.73-.9-.94h-2.18v1.27c0,1.7.59,2.6,1.76,2.71h.2c.42.01.77-.14,1.04-.43s.41-.7.41-1.22Z"/><path d="m50.56,139.52l1.46-.11c-1.13-.91-1.7-2.12-1.7-3.64,0-1.34.39-2.34,1.18-3s1.97-.99,3.54-1.01h8.19v3.39h-8.11c-.72,0-1.24.16-1.56.47s-.49.83-.49,1.56c0,.95.41,1.67,1.22,2.14h8.94v3.39h-12.68v-3.19Z"/><path d="m60.74,123.92c0-.62-.17-1.13-.52-1.52s-.8-.59-1.37-.61v-3.18c.86,0,1.65.24,2.36.7s1.27,1.09,1.66,1.89.59,1.69.59,2.65c0,1.81-.58,3.24-1.73,4.29s-2.74,1.57-4.78,1.57h-.22c-1.95,0-3.51-.52-4.68-1.56s-1.75-2.46-1.75-4.28c0-1.59.45-2.86,1.35-3.81s2.1-1.44,3.6-1.46v3.18c-.66.02-1.2.22-1.61.61-.41.39-.62.91-.62,1.55,0,.79.29,1.38.86,1.79.57.4,1.51.6,2.8.6h.35c1.31,0,2.25-.2,2.82-.6.57-.4.86-1,.86-1.82Z"/><path d="m63.47,110.84c0,1.86-.57,3.37-1.71,4.54s-2.66,1.75-4.56,1.75h-.33c-1.27,0-2.41-.25-3.42-.74s-1.78-1.19-2.32-2.09-.81-1.93-.81-3.09c0-1.73.55-3.1,1.64-4.1s2.64-1.49,4.65-1.49h1.38v8.07c.83-.11,1.49-.44,1.99-.99s.75-1.25.75-2.09c0-1.3-.47-2.32-1.42-3.06l1.86-1.66c.72.51,1.28,1.2,1.68,2.06s.6,1.83.6,2.88Zm-10.42.39c0,.67.23,1.22.68,1.63.46.42,1.11.69,1.95.8v-4.71h-.27c-.75.02-1.34.22-1.75.61-.41.39-.62.95-.62,1.66Z"/><path d="m300.01,295.01h-5.23v14.21h-3.52v-14.21h-5.16v-2.85h13.9v2.85Z"/><path d="m301.77,293.27c0-.51.17-.93.51-1.25s.8-.49,1.39-.49,1.04.16,1.38.49.52.75.52,1.25-.17.94-.52,1.27-.81.49-1.38.49-1.03-.16-1.38-.49-.52-.75-.52-1.27Zm3.6,15.96h-3.4v-12.68h3.4v12.68Z"/><path d="m311.33,296.55l.11,1.42c.9-1.1,2.11-1.65,3.64-1.65,1.63,0,2.75.64,3.36,1.93.89-1.29,2.16-1.93,3.81-1.93,1.38,0,2.4.4,3.07,1.2s1.01,2.01,1.01,3.62v8.1h-3.4v-8.09c0-.72-.14-1.24-.42-1.58s-.78-.5-1.49-.5c-1.02,0-1.72.48-2.11,1.45v8.71s-3.38,0-3.38,0v-8.07c0-.73-.14-1.27-.43-1.59s-.78-.49-1.48-.49c-.96,0-1.66.4-2.09,1.2v8.96h-3.39v-12.68h3.18Z"/><path d="m334.77,309.46c-1.86,0-3.37-.57-4.54-1.71s-1.75-2.66-1.75-4.56v-.33c0-1.27.25-2.41.74-3.42s1.19-1.78,2.09-2.32,1.93-.81,3.09-.81c1.73,0,3.1.55,4.1,1.64s1.49,2.64,1.49,4.65v1.38h-8.07c.11.83.44,1.49.99,1.99s1.25.75,2.09.75c1.3,0,2.32-.47,3.06-1.42l1.66,1.86c-.51.72-1.2,1.28-2.06,1.68s-1.83.6-2.88.6Zm-.39-10.42c-.67,0-1.22.23-1.63.68-.42.46-.69,1.11-.8,1.95h4.71v-.27c-.02-.75-.22-1.34-.61-1.75-.39-.41-.95-.62-1.66-.62Z"/><path d="m92.89,150.88c0-1.77.24-3.46.71-5.09s1.18-3.1,2.12-4.43,1.91-2.27,2.92-2.81l.45,1.43c-1.14.88-2.08,2.21-2.81,4.01s-1.13,3.81-1.2,6.04v1c-.01,3.02.54,5.63,1.64,7.85.66,1.33,1.45,2.37,2.37,3.12l-.45,1.32c-1.04-.58-2.03-1.55-2.98-2.91-1.84-2.66-2.77-5.83-2.77-9.53Z" fill="#212728"/><path d="m107.9,146.26h-2.73l-1.59,8.04s-.19.89-.19,1.35c0,.3.08.57.46.57.78,0,1.35-.4,2.29-1.62l.54.4c-.78,1.05-1.92,3.05-4.05,3.05-1.13,0-1.65-.59-1.65-1.43,0-.46.13-1.27.19-1.54l1.84-8.83h-1.54l.11-.57c1.73-.89,2.4-1.54,3.75-3.89h.81l-.76,3.4h2.73l-.22,1.05Z" fill="#212728"/><path d="m108.4,166.8l.09-.44c1.48,0,1.86-.27,2.02-1.06l1.42-6.66c.12-.55.05-.77-.35-.77-.32,0-.91.09-1.43.25l.11-.52,3.01-.87h.46l-1.83,8.57c-.16.77.17,1.06,1.62,1.06l-.09.44h-5.02Z" fill="#212728"/><path d="m123.02,161.21l-1.23-.84c.73-1.02,1.12-2.08,1.15-3.16v-1.96h2.12v1.7c0,.79-.19,1.58-.58,2.37s-.87,1.42-1.46,1.9Z" fill="#212728"/><path d="m143.17,154.54s-.14.78-.14,1.13c0,.38.16.51.51.51.86,0,1.59-.89,1.97-1.4l.54.41c-.92,1.32-1.92,2.89-3.7,2.89-1.05,0-1.59-.57-1.59-1.4,0-.32.08-.84.13-1.16h-.22c-1.3,1.62-2.65,2.62-4.24,2.62-1.86,0-3.4-1.32-3.4-4.62,0-4.62,3.02-8.64,6.78-8.64,1.19,0,2.16.41,2.78,1.08h.08l.86-4.54s.08-.49.08-.86c0-.46-.14-.84-.95-.84-.32,0-.81.05-.81.05v-.7l3.7-.3h.59l-3,15.76Zm-1.24-6.1c0-1.54-.92-2.54-2.24-2.54-2.59,0-4.26,3.78-4.26,7.29,0,2.46.81,3.16,1.97,3.16,1.78,0,3.35-1.62,3.78-3.29.51-2.1.76-3.83.76-4.62Z" fill="#212728"/><path d="m147.53,166.8l.09-.44c1.48,0,1.86-.27,2.02-1.06l1.42-6.66c.13-.55.05-.77-.35-.77-.32,0-.91.09-1.43.25l.11-.52,3.01-.87h.46l-1.83,8.57c-.16.77.17,1.06,1.62,1.06l-.09.44h-5.02Z" fill="#212728"/><path d="m161.14,151c0,1.74-.23,3.41-.69,5.01s-1.16,3.07-2.1,4.42-1.93,2.31-2.96,2.88l-.46-1.32c1.2-.92,2.17-2.35,2.9-4.29s1.1-4.1,1.12-6.46v-.38c0-1.64-.17-3.17-.52-4.58s-.82-2.67-1.44-3.79-1.3-1.99-2.07-2.61l.46-1.32c1.03.57,2.01,1.52,2.95,2.86s1.63,2.81,2.1,4.42.7,3.33.7,5.17Z" fill="#212728"/><path d="m273.89,41.88c0-1.77.24-3.46.71-5.09s1.18-3.1,2.12-4.43,1.91-2.27,2.92-2.81l.45,1.43c-1.14.88-2.08,2.21-2.81,4.01s-1.13,3.81-1.2,6.04v1c-.01,3.02.54,5.63,1.64,7.85.66,1.33,1.45,2.37,2.37,3.12l-.45,1.32c-1.04-.58-2.03-1.55-2.98-2.91-1.84-2.66-2.77-5.83-2.77-9.53Z" fill="#212728"/><path d="m288.9,37.26h-2.73l-1.59,8.04s-.19.89-.19,1.35c0,.3.08.57.46.57.78,0,1.35-.4,2.29-1.62l.54.4c-.78,1.05-1.92,3.05-4.05,3.05-1.13,0-1.65-.59-1.65-1.43,0-.46.13-1.27.19-1.54l1.84-8.83h-1.54l.11-.57c1.73-.89,2.4-1.54,3.75-3.89h.81l-.76,3.4h2.73l-.22,1.05Z" fill="#212728"/><path d="m294.56,57.8h-6.14l.11-.54,2.88-2.36c2.41-2.09,3.28-3.02,3.28-4.71,0-.91-.54-1.54-1.56-1.54s-1.73.41-2.63,1.57l-.35-.16c.88-1.5,1.97-2.41,3.61-2.41,1.5,0,2.41.87,2.41,2.2,0,1.64-1.1,2.71-3.5,4.69l-2.43,1.97-.02.08,1.05-.05h2.19c.83,0,1.1-.33,1.67-1.28h.46l-1.04,2.52Z" fill="#212728"/><path d="m304.02,52.21l-1.23-.84c.73-1.02,1.12-2.08,1.15-3.16v-1.96h2.12v1.7c0,.79-.19,1.58-.58,2.37s-.87,1.42-1.46,1.9Z" fill="#212728"/><path d="m324.17,45.54s-.14.78-.14,1.13c0,.38.16.51.51.51.86,0,1.59-.89,1.97-1.4l.54.41c-.92,1.32-1.92,2.89-3.7,2.89-1.05,0-1.59-.57-1.59-1.4,0-.32.08-.84.13-1.16h-.22c-1.3,1.62-2.65,2.62-4.24,2.62-1.86,0-3.4-1.32-3.4-4.62,0-4.62,3.02-8.64,6.78-8.64,1.19,0,2.16.41,2.78,1.08h.08l.86-4.54s.08-.49.08-.86c0-.46-.14-.84-.95-.84-.32,0-.81.05-.81.05v-.7l3.7-.3h.59l-3,15.76Zm-1.24-6.1c0-1.54-.92-2.54-2.24-2.54-2.59,0-4.26,3.78-4.26,7.29,0,2.46.81,3.16,1.97,3.16,1.78,0,3.35-1.62,3.78-3.29.51-2.1.76-3.83.76-4.62Z" fill="#212728"/><path d="m333.69,57.8h-6.14l.11-.54,2.88-2.36c2.41-2.09,3.28-3.02,3.28-4.71,0-.91-.54-1.54-1.56-1.54s-1.73.41-2.63,1.57l-.35-.16c.88-1.5,1.97-2.41,3.61-2.41,1.5,0,2.41.87,2.41,2.2,0,1.64-1.1,2.71-3.5,4.69l-2.42,1.97-.02.08,1.06-.05h2.19c.83,0,1.1-.33,1.67-1.28h.46l-1.04,2.52Z" fill="#212728"/><path d="m342.14,42c0,1.74-.23,3.41-.69,5.01s-1.16,3.07-2.1,4.42-1.93,2.31-2.96,2.88l-.46-1.32c1.2-.92,2.17-2.35,2.9-4.29s1.1-4.1,1.12-6.46v-.38c0-1.64-.17-3.17-.52-4.58s-.82-2.67-1.44-3.79-1.3-1.99-2.07-2.61l.46-1.32c1.03.57,2.01,1.52,2.95,2.86s1.63,2.81,2.1,4.42.7,3.33.7,5.17Z" fill="#212728"/><path d="m337.42,125.88c0-1.77.24-3.46.71-5.09s1.18-3.1,2.12-4.43,1.91-2.27,2.92-2.81l.45,1.43c-1.14.88-2.08,2.21-2.81,4.01s-1.13,3.81-1.2,6.04v1c-.01,3.02.54,5.63,1.64,7.85.66,1.33,1.45,2.37,2.37,3.12l-.45,1.32c-1.04-.58-2.03-1.55-2.98-2.91-1.84-2.66-2.77-5.83-2.77-9.53Z" fill="#212728"/><path d="m355.14,129.54s-.14.78-.14,1.13c0,.38.16.51.51.51.86,0,1.59-.89,1.97-1.4l.54.41c-.92,1.32-1.92,2.89-3.7,2.89-1.05,0-1.59-.57-1.59-1.4,0-.32.08-.84.13-1.16h-.22c-1.3,1.62-2.65,2.62-4.24,2.62-1.86,0-3.4-1.32-3.4-4.62,0-4.62,3.02-8.64,6.78-8.64,1.19,0,2.16.41,2.78,1.08h.08l.86-4.54s.08-.49.08-.86c0-.46-.14-.84-.95-.84-.32,0-.81.05-.81.05v-.7l3.7-.3h.59l-3,15.76Zm-1.24-6.1c0-1.54-.92-2.54-2.24-2.54-2.59,0-4.26,3.78-4.26,7.29,0,2.46.81,3.16,1.97,3.16,1.78,0,3.35-1.62,3.78-3.29.51-2.1.76-3.83.76-4.62Z" fill="#212728"/><path d="m364.66,141.8h-6.14l.11-.54,2.88-2.36c2.41-2.09,3.28-3.02,3.28-4.71,0-.91-.54-1.54-1.56-1.54s-1.73.41-2.63,1.57l-.35-.16c.88-1.5,1.97-2.41,3.61-2.41,1.5,0,2.41.87,2.41,2.2,0,1.64-1.1,2.71-3.5,4.69l-2.42,1.97-.02.08,1.06-.05h2.19c.83,0,1.1-.33,1.67-1.28h.46l-1.04,2.52Z" fill="#212728"/><path d="m374.08,126.76v-1.84h16.09v1.84h-16.09Z" fill="#212728"/><path d="m408.99,129.54s-.14.78-.14,1.13c0,.38.16.51.51.51.86,0,1.59-.89,1.97-1.4l.54.41c-.92,1.32-1.92,2.89-3.7,2.89-1.05,0-1.59-.57-1.59-1.4,0-.32.08-.84.13-1.16h-.22c-1.3,1.62-2.65,2.62-4.24,2.62-1.86,0-3.4-1.32-3.4-4.62,0-4.62,3.02-8.64,6.78-8.64,1.19,0,2.16.41,2.78,1.08h.08l.86-4.54s.08-.49.08-.86c0-.46-.14-.84-.95-.84-.32,0-.81.05-.81.05v-.7l3.7-.3h.59l-3,15.76Zm-1.24-6.1c0-1.54-.92-2.54-2.24-2.54-2.59,0-4.26,3.78-4.26,7.29,0,2.46.81,3.16,1.97,3.16,1.78,0,3.35-1.62,3.78-3.29.51-2.1.76-3.83.76-4.62Z" fill="#212728"/><path d="m413.35,141.8l.09-.44c1.48,0,1.86-.27,2.02-1.06l1.42-6.66c.12-.55.05-.77-.35-.77-.32,0-.91.09-1.43.25l.11-.52,3.01-.87h.46l-1.83,8.57c-.16.77.17,1.06,1.62,1.06l-.09.44h-5.02Z" fill="#212728"/><path d="m426.97,126c0,1.74-.23,3.41-.69,5.01s-1.16,3.07-2.1,4.42-1.93,2.31-2.96,2.88l-.46-1.32c1.2-.92,2.17-2.35,2.9-4.29s1.1-4.1,1.12-6.46v-.38c0-1.64-.17-3.17-.52-4.58s-.82-2.67-1.44-3.79-1.3-1.99-2.07-2.61l.46-1.32c1.03.57,2.01,1.52,2.95,2.86s1.63,2.81,2.1,4.42.7,3.33.7,5.17Z" fill="#212728"/><path d="m444.55,206.88c0-1.77.24-3.46.71-5.09s1.18-3.1,2.12-4.43,1.91-2.27,2.92-2.81l.45,1.43c-1.14.88-2.08,2.21-2.81,4.01s-1.13,3.81-1.2,6.04v1c-.01,3.02.54,5.63,1.64,7.85.66,1.33,1.45,2.37,2.37,3.12l-.45,1.32c-1.04-.58-2.03-1.55-2.98-2.91-1.84-2.66-2.77-5.83-2.77-9.53Z" fill="#212728"/><path d="m462.27,210.54s-.14.78-.14,1.13c0,.38.16.51.51.51.86,0,1.59-.89,1.97-1.4l.54.41c-.92,1.32-1.92,2.89-3.7,2.89-1.05,0-1.59-.57-1.59-1.4,0-.32.08-.84.13-1.16h-.22c-1.3,1.62-2.65,2.62-4.24,2.62-1.86,0-3.4-1.32-3.4-4.62,0-4.62,3.02-8.64,6.78-8.64,1.19,0,2.16.41,2.78,1.08h.08l.86-4.54s.08-.49.08-.86c0-.46-.14-.84-.95-.84-.32,0-.81.05-.81.05v-.7l3.7-.3h.59l-3,15.76Zm-1.24-6.1c0-1.54-.92-2.54-2.24-2.54-2.59,0-4.26,3.78-4.26,7.29,0,2.46.81,3.16,1.97,3.16,1.78,0,3.35-1.62,3.78-3.29.51-2.1.76-3.83.76-4.62Z" fill="#212728"/><path d="m471.79,222.8h-6.14l.11-.54,2.88-2.36c2.41-2.09,3.28-3.02,3.28-4.71,0-.91-.54-1.54-1.56-1.54s-1.73.41-2.63,1.57l-.35-.16c.88-1.5,1.97-2.41,3.61-2.41,1.5,0,2.41.87,2.41,2.2,0,1.64-1.1,2.71-3.5,4.69l-2.42,1.97-.02.08,1.06-.05h2.19c.83,0,1.1-.33,1.67-1.28h.46l-1.04,2.52Z" fill="#212728"/><path d="m481.21,207.76v-1.84h16.09v1.84h-16.09Z" fill="#212728"/><path d="m516.12,210.54s-.14.78-.14,1.13c0,.38.16.51.51.51.86,0,1.59-.89,1.97-1.4l.54.41c-.92,1.32-1.92,2.89-3.7,2.89-1.05,0-1.59-.57-1.59-1.4,0-.32.08-.84.13-1.16h-.22c-1.3,1.62-2.65,2.62-4.24,2.62-1.86,0-3.4-1.32-3.4-4.62,0-4.62,3.02-8.64,6.78-8.64,1.19,0,2.16.41,2.78,1.08h.08l.86-4.54s.08-.49.08-.86c0-.46-.14-.84-.95-.84-.32,0-.81.05-.81.05v-.7l3.7-.3h.59l-3,15.76Zm-1.24-6.1c0-1.54-.92-2.54-2.24-2.54-2.59,0-4.26,3.78-4.26,7.29,0,2.46.81,3.16,1.97,3.16,1.78,0,3.35-1.62,3.78-3.29.51-2.1.76-3.83.76-4.62Z" fill="#212728"/><path d="m520.48,222.8l.09-.44c1.48,0,1.86-.27,2.02-1.06l1.42-6.66c.12-.55.05-.77-.35-.77-.32,0-.91.09-1.43.25l.11-.52,3.01-.87h.46l-1.83,8.57c-.16.77.17,1.06,1.62,1.06l-.09.44h-5.02Z" fill="#212728"/><path d="m534.1,207c0,1.74-.23,3.41-.69,5.01s-1.16,3.07-2.1,4.42-1.93,2.31-2.96,2.88l-.46-1.32c1.2-.92,2.17-2.35,2.9-4.29s1.1-4.1,1.12-6.46v-.38c0-1.64-.17-3.17-.52-4.58s-.82-2.67-1.44-3.79-1.3-1.99-2.07-2.61l.46-1.32c1.03.57,2.01,1.52,2.95,2.86s1.63,2.81,2.1,4.42.7,3.33.7,5.17Z" fill="#212728"/><path d="m186.99,214.88c0-1.77.24-3.46.71-5.09s1.18-3.1,2.12-4.43,1.91-2.27,2.92-2.81l.45,1.43c-1.14.88-2.08,2.21-2.81,4.01s-1.13,3.81-1.2,6.04v1c-.01,3.02.54,5.63,1.64,7.85.66,1.33,1.45,2.37,2.37,3.12l-.45,1.32c-1.04-.58-2.03-1.55-2.98-2.91-1.84-2.66-2.77-5.83-2.77-9.53Z" fill="#212728"/><path d="m202,210.26h-2.73l-1.59,8.04s-.19.89-.19,1.35c0,.3.08.57.46.57.78,0,1.35-.4,2.29-1.62l.54.4c-.78,1.05-1.92,3.05-4.05,3.05-1.13,0-1.65-.59-1.65-1.43,0-.46.13-1.27.19-1.54l1.84-8.83h-1.54l.11-.57c1.73-.89,2.4-1.54,3.75-3.89h.81l-.76,3.4h2.73l-.22,1.05Z" fill="#212728"/><path d="m207.66,230.8h-6.14l.11-.54,2.88-2.36c2.41-2.09,3.28-3.02,3.28-4.71,0-.91-.54-1.54-1.56-1.54s-1.73.41-2.63,1.57l-.35-.16c.88-1.5,1.97-2.41,3.61-2.41,1.5,0,2.41.87,2.41,2.2,0,1.64-1.1,2.71-3.5,4.69l-2.42,1.97-.02.08,1.06-.05h2.19c.83,0,1.1-.33,1.67-1.28h.46l-1.04,2.52Z" fill="#212728"/><path d="m217.08,215.76v-1.84h16.09v1.84h-16.09Z" fill="#212728"/><path d="m249.29,210.26h-2.73l-1.59,8.04s-.19.89-.19,1.35c0,.3.08.57.46.57.78,0,1.35-.4,2.29-1.62l.54.4c-.78,1.05-1.92,3.05-4.05,3.05-1.13,0-1.65-.59-1.65-1.43,0-.46.13-1.27.19-1.54l1.84-8.83h-1.54l.11-.57c1.73-.89,2.4-1.54,3.75-3.89h.81l-.76,3.4h2.73l-.22,1.05Z" fill="#212728"/><path d="m249.79,230.8l.09-.44c1.48,0,1.86-.27,2.02-1.06l1.42-6.66c.12-.55.05-.77-.35-.77-.32,0-.91.09-1.43.25l.11-.52,3.01-.87h.46l-1.83,8.57c-.16.77.17,1.06,1.62,1.06l-.09.44h-5.02Z" fill="#212728"/><path d="m263.41,215c0,1.74-.23,3.41-.69,5.01s-1.16,3.07-2.1,4.42-1.93,2.31-2.96,2.88l-.46-1.32c1.2-.92,2.17-2.35,2.9-4.29s1.1-4.1,1.12-6.46v-.38c0-1.64-.17-3.17-.52-4.58s-.82-2.67-1.44-3.79-1.3-1.99-2.07-2.61l.46-1.32c1.03.57,2.01,1.52,2.95,2.86s1.63,2.81,2.1,4.42.7,3.33.7,5.17Z" fill="#212728"/><path d="m451.11,248.88c0-1.77.24-3.46.71-5.09s1.18-3.1,2.12-4.43,1.91-2.27,2.92-2.81l.45,1.43c-1.14.88-2.08,2.21-2.81,4.01s-1.13,3.81-1.2,6.04v1c-.01,3.02.54,5.63,1.64,7.85.66,1.33,1.45,2.37,2.37,3.12l-.45,1.32c-1.04-.58-2.03-1.55-2.98-2.91-1.84-2.66-2.77-5.83-2.77-9.53Z" fill="#212728"/><path d="m466.13,244.26h-2.73l-1.59,8.04s-.19.89-.19,1.35c0,.3.08.57.46.57.78,0,1.35-.4,2.29-1.62l.54.4c-.78,1.05-1.92,3.05-4.05,3.05-1.13,0-1.65-.59-1.65-1.43,0-.46.13-1.27.19-1.54l1.84-8.83h-1.54l.11-.57c1.73-.89,2.4-1.54,3.75-3.89h.81l-.76,3.4h2.73l-.22,1.05Z" fill="#212728"/><path d="m471.79,264.8h-6.14l.11-.54,2.88-2.36c2.41-2.09,3.28-3.02,3.28-4.71,0-.91-.54-1.54-1.56-1.54s-1.73.41-2.63,1.57l-.35-.16c.88-1.5,1.97-2.41,3.61-2.41,1.5,0,2.41.87,2.41,2.2,0,1.64-1.1,2.71-3.5,4.69l-2.42,1.97-.02.08,1.06-.05h2.19c.83,0,1.1-.33,1.67-1.28h.46l-1.04,2.52Z" fill="#212728"/><path d="m481.21,249.76v-1.84h16.09v1.84h-16.09Z" fill="#212728"/><path d="m513.42,244.26h-2.73l-1.59,8.04s-.19.89-.19,1.35c0,.3.08.57.46.57.78,0,1.35-.4,2.29-1.62l.54.4c-.78,1.05-1.92,3.05-4.05,3.05-1.13,0-1.65-.59-1.65-1.43,0-.46.13-1.27.19-1.54l1.84-8.83h-1.54l.11-.57c1.73-.89,2.4-1.54,3.75-3.89h.81l-.76,3.4h2.73l-.22,1.05Z" fill="#212728"/><path d="m513.92,264.8l.09-.44c1.48,0,1.86-.27,2.02-1.06l1.42-6.66c.12-.55.05-.77-.35-.77-.32,0-.91.09-1.43.25l.11-.52,3.01-.87h.46l-1.83,8.57c-.16.77.17,1.06,1.62,1.06l-.09.44h-5.02Z" fill="#212728"/><path d="m527.54,249c0,1.74-.23,3.41-.69,5.01s-1.16,3.07-2.1,4.42-1.93,2.31-2.96,2.88l-.46-1.32c1.2-.92,2.17-2.35,2.9-4.29s1.1-4.1,1.12-6.46v-.38c0-1.64-.17-3.17-.52-4.58s-.82-2.67-1.44-3.79-1.3-1.99-2.07-2.61l.46-1.32c1.03.57,2.01,1.52,2.95,2.86s1.63,2.81,2.1,4.42.7,3.33.7,5.17Z" fill="#212728"/><path d="m400.49,222.93c.41,3.46.67,7.21.78,10.58l-.05.94h.05c2.54-2.05,4.67-4.91,4.67-7.4,0-1.65-1.35-1.73-1.35-3,0-.81.57-1.19,1.21-1.19,1.35,0,1.73,1.48,1.73,2.54,0,4.51-3.29,8.34-6.94,10.61h-1.32c-.16-4.08-.4-6.8-.86-10.31-.14-1.27-.35-1.59-1.24-1.59-.27,0-.51.03-.86.08v-.84l3.54-.43h.65Z"/><path d="m415.61,226.58v-1.84h16.09v1.84h-16.09Zm0,6.4v-1.81h16.09v1.81h-16.09Z"/><line x1="439.74" y1="229" x2="539.05" y2="229" fill="none" stroke="#000" stroke-miterlimit="10" stroke-width="2"/></svg>