<?xml version="1.0" encoding="UTF-8"?>
<svg id="Layer_1" data-name="Layer 1" xmlns="http://www.w3.org/2000/svg" width="570" height="577.71" xmlns:xlink="http://www.w3.org/1999/xlink" viewBox="0 0 570 577.71">
  <defs>
    <style>
      .cls-1, .cls-2, .cls-3 {
        fill: none;
      }

      .cls-4 {
        clip-path: url(#clippath);
      }

      .cls-5 {
        fill: #f8faa2;
      }

      .cls-6 {
        fill: #fff;
      }

      .cls-7 {
        fill: #f1eaea;
      }

      .cls-8 {
        fill: #efcc8f;
      }

      .cls-9 {
        fill: #a12b1f;
      }

      .cls-10 {
        fill: #b7b58b;
      }

      .cls-11 {
        fill: #8e8d73;
      }

      .cls-12 {
        fill: #b2e2dd;
      }

      .cls-13 {
        fill: #bfbd97;
      }

      .cls-14 {
        fill: #b0a333;
      }

      .cls-15 {
        fill: #dcf7fa;
      }

      .cls-16 {
        fill: #dfdeb7;
      }

      .cls-17 {
        fill: #355438;
      }

      .cls-18 {
        fill: #a3a07e;
      }

      .cls-19 {
        fill: #9b997b;
      }

      .cls-20 {
        fill: #383838;
      }

      .cls-21 {
        fill: #56885f;
      }

      .cls-22 {
        fill: #4b7751;
      }

      .cls-23 {
        fill: #511c1e;
      }

      .cls-2 {
        stroke: #bfbd97;
        stroke-linecap: round;
      }

      .cls-2, .cls-3, .cls-24 {
        stroke-miterlimit: 10;
        stroke-width: 2px;
      }

      .cls-3 {
        stroke: #b7b58b;
      }

      .cls-24 {
        stroke: #8e8d73;
      }
    </style>
    <clipPath id="clippath">
      <path class="cls-1" d="m74.06,47.15C-29.14,94.38,21.76,135.61,22.28,277.3c.43,117.65-35.48,138.09-6.71,219.6,32.59,92.33,398.27,102.98,490.97-12.47s65.86-331-9.59-403.71C396.68-15.91,177.26-.07,74.06,47.15Z"/>
    </clipPath>
  </defs>
  <g class="cls-4">
    <rect class="cls-12" x="-35" y="-45.97" width="624.38" height="697.95"/>
    <path class="cls-15" d="m14.06,395.1s19.27-29.73,46.27-29.98c27-.25,28.01,8.18,39.22,12.29,11.21,4.12,13.02-1.53,37.21-3.16,24.19-1.63,36.44,13.73,41.13,17.9,4.69,4.18,24.26,1.27,41.29,10.59,12.63,6.91,15.28,21.33,4.63,21.34-17.69.01-230.88,2.17-235.54,2.21s-.24-25.32,25.78-31.19Z"/>
    <path class="cls-15" d="m86.26,333.99s10.8-16.66,25.94-16.81c15.14-.14,15.7,4.58,21.99,6.89,6.29,2.31,7.3-.86,20.86-1.77,13.56-.92,20.43,7.7,23.06,10.04,2.63,2.34,13.6.71,23.15,5.94,7.08,3.87,8.56,11.96,2.6,11.96-9.92,0-129.43,1.22-132.04,1.24s-.13-14.2,14.45-17.49Z"/>
    <path class="cls-15" d="m386.37,444.02s19.27-29.73,46.27-29.98c27-.25,28.01,8.18,39.22,12.29,11.21,4.12,13.02-1.53,37.21-3.16,24.19-1.63,36.44,13.73,41.13,17.9,4.69,4.18,24.26,1.27,41.29,10.59,12.63,6.91,15.28,21.33,4.63,21.34-17.69.01-230.88,2.17-235.54,2.21s-.24-25.32,25.78-31.19Z"/>
    <path class="cls-15" d="m448.02,176.94c19.02-.5,24.25-.64,24.25-.64,0,0,1.19-8.68,27.7-14.9s50.99,9.29,64.57,8.93,22.58-2.95,34.57,5c11.99,7.95,7.68,16.33-3.19,16.61s-172.41,9.9-177.52,3.48c-4.16-5.22,10.6-17.99,29.62-18.49Z"/>
    <g>
      <g>
        <rect class="cls-18" x="230.47" y="31.64" width="125.07" height="113.42" transform="translate(15.13 -39.89) rotate(7.99)"/>
        <rect class="cls-13" x="227.76" y="57.26" width="8.49" height="76.57" transform="translate(15.54 -31.34) rotate(7.99)"/>
        <rect class="cls-13" x="266.49" y="62.7" width="8.49" height="76.57" transform="translate(16.68 -36.67) rotate(7.99)"/>
        <rect class="cls-13" x="305.21" y="68.14" width="8.49" height="76.57" transform="translate(17.81 -42) rotate(7.99)"/>
        <rect class="cls-13" x="343.94" y="73.58" width="8.49" height="76.57" transform="translate(18.94 -47.34) rotate(7.99)"/>
        <path class="cls-16" d="m235.77,24.73l-4.5,32.07,10.21,1.43s3.65-14.77,16.99-12.89c13.34,1.87,13.33,17.15,13.33,17.15l8.41,1.18s1.38-15.58,17.66-13.29c14.24,2,12.66,17.55,12.66,17.55l8.41,1.18s2.18-15.51,17.37-13.38c15.19,2.13,12.95,17.64,12.95,17.64l9.96,1.4,4.5-32.07-127.95-17.97Z"/>
        <path class="cls-11" d="m238.97,36.07c-1.63-.23-2.14-1.06-2.56-1.73-.32-.51-.53-.85-1.22-.95h-.02s.14-1.07.14-1.07h.03c1.2.17,1.64.89,1.99,1.46.37.6.66,1.07,1.78,1.23h.03c.35.05.95-.3,1.52-.64.87-.51,1.85-1.09,2.88-.95h.01c.78.11,1.43.77,2.05,1.41.58.59,1.17,1.2,1.76,1.28h0c.44.06,1.1-.32,1.74-.69.86-.5,1.74-1.02,2.68-.9.83.1,1.5.8,2.15,1.46.56.57,1.12,1.19,1.68,1.24.47.06,1.14-.33,1.79-.71.84-.49,1.71-1,2.62-.88h.01c.84.12,1.52.81,2.17,1.48.55.56,1.12,1.14,1.65,1.22h0c.48.07,1.16-.33,1.82-.71.84-.49,1.7-.99,2.59-.87h0c.85.12,1.53.82,2.19,1.49.55.56,1.11,1.14,1.63,1.21h0c.49.07,1.17-.33,1.83-.72.83-.49,1.7-.99,2.58-.87h0c.86.12,1.54.82,2.2,1.5.54.56,1.11,1.13,1.62,1.2h0c.49.07,1.18-.33,1.84-.72.83-.48,1.69-.99,2.57-.87h0c.86.12,1.55.82,2.21,1.5.54.56,1.1,1.13,1.61,1.2h0c.5.07,1.19-.33,1.85-.72.83-.48,1.69-.98,2.56-.86h0c.86.12,1.55.83,2.21,1.51.54.55,1.1,1.13,1.6,1.2h0c.5.07,1.19-.33,1.86-.72.83-.48,1.68-.98,2.55-.86h0c.87.12,1.56.83,2.23,1.51.54.55,1.1,1.12,1.6,1.19h0c.51.07,1.2-.33,1.87-.72.83-.48,1.68-.97,2.55-.85.91.15,1.57.83,2.24,1.52.54.55,1.09,1.12,1.59,1.19h0c.51.07,1.21-.33,1.88-.72.82-.48,1.68-.97,2.54-.85h0c.88.12,1.57.84,2.24,1.52.53.55,1.09,1.12,1.58,1.19h0c.51.07,1.21-.33,1.89-.72.82-.48,1.67-.97,2.53-.85h0c.88.12,1.58.84,2.25,1.53.53.55,1.08,1.12,1.57,1.18h0c.52.07,1.22-.33,1.9-.72.82-.47,1.67-.96,2.52-.84h0c.89.13,1.59.85,2.27,1.54.53.55,1.07,1.11,1.56,1.18h0c.53.07,1.24-.33,1.92-.73.81-.47,1.66-.95,2.5-.83h0c.9.13,1.61.86,2.28,1.56.52.54,1.06,1.1,1.53,1.17.56.07,1.27-.33,1.96-.73.8-.46,1.64-.93,2.46-.82h0c.93.14,1.64.88,2.33,1.6.51.53,1.03,1.08,1.47,1.15.59.07,1.34-.33,2.06-.74.78-.44,1.56-.91,2.38-.78,1.04.16,1.82,1,2.5,1.74.2.21.89.92.89.92l-.14,1.24s-.94-.77-1.55-1.42c-.59-.64-1.21-1.3-1.88-1.4h0c-.41-.06-1.06.3-1.68.65-.83.47-1.78,1-2.73.87h-.02c-.81-.12-1.46-.81-2.1-1.47-.56-.59-1.14-1.19-1.7-1.28h0c-.46-.06-1.13.32-1.77.68-.85.49-1.73.99-2.64.86h0c-.84-.12-1.51-.82-2.15-1.49-.55-.57-1.12-1.16-1.66-1.24h0c-.48-.07-1.15.32-1.81.7-.84.48-1.72.98-2.61.86h0c-.85-.12-1.53-.82-2.18-1.5-.55-.57-1.11-1.15-1.64-1.23h0c-.48-.07-1.17.33-1.83.71-.84.48-1.7.98-2.59.86h0c-.86-.12-1.54-.82-2.2-1.5-.54-.56-1.11-1.14-1.62-1.21h0c-.49-.07-1.18.33-1.84.71-.83.48-1.7.98-2.58.86h0c-.86-.12-1.55-.83-2.21-1.51-.54-.56-1.1-1.14-1.62-1.21h0c-.5-.07-1.19.33-1.85.72-.83.48-1.69.98-2.57.86h0c-.86-.12-1.55-.83-2.21-1.51-.54-.56-1.1-1.13-1.61-1.2h0c-.5-.07-1.19.33-1.86.72-.83.48-1.69.98-2.56.86h0c-.87-.12-1.56-.83-2.22-1.51-.54-.55-1.1-1.13-1.6-1.2h0c-.5-.07-1.2.33-1.86.72-.83.48-1.68.98-2.55.86h0c-.87-.12-1.56-.83-2.22-1.51-.54-.55-1.09-1.12-1.59-1.19h0c-.51-.07-1.2.33-1.87.72-.82.48-1.68.98-2.54.86h0c-.87-.12-1.56-.83-2.23-1.52-.54-.55-1.09-1.12-1.58-1.19h0c-.51-.07-1.21.34-1.88.73-.82.48-1.67.97-2.53.86h0c-.88-.12-1.57-.83-2.24-1.52-.53-.55-1.09-1.11-1.58-1.18h0c-.52-.07-1.21.34-1.89.73-.82.48-1.66.97-2.52.86h-.01c-.88-.13-1.58-.84-2.25-1.53-.53-.54-1.08-1.11-1.56-1.17h0c-.52-.07-1.23.34-1.91.74-.81.48-1.66.97-2.5.85h-.01c-.89-.13-1.59-.84-2.27-1.53-.53-.54-1.09-1.1-1.55-1.16-.54-.07-1.24.34-1.93.74-.81.47-1.64.96-2.48.85-.88-.1-1.62-.85-2.31-1.55-.52-.53-1.06-1.08-1.51-1.14h0c-.56-.08-1.29.35-1.99.76-.79.46-1.61.94-2.42.83-.92-.13-1.72-.91-2.4-1.6-.5-.51-1.02-1.04-1.43-1.1h0c-.67-.09-1.44.37-2.19.81-.77.45-1.5.88-2.22.78h-.04Z"/>
        <rect class="cls-10" x="231.63" y="28.21" width="137.81" height="6.1" transform="translate(7.27 -41.49) rotate(7.99)"/>
        <line class="cls-24" x1="235.52" y1="29.03" x2="363.29" y2="46.97"/>
      </g>
      <g>
        <g>
          <g>
            <path class="cls-8" d="m400.61,118.16c.23.14,4.2.22,5.4.58s4.48,3.71,4.31,4.53-1.04-.35-1.04-.35c0,0,.1,1.32-.19,1.77s-1.75-.67-2.06-.82-.97-.94-.97-.94c0,0,.31,1.7-.18,1.65s-.87-1.88-.87-1.88c0,0-.8.51-1.55.55s-1.3-.98-1.3-.98l-3.18.37,1.64-4.48Z"/>
            <path class="cls-23" d="m402.73,119.6c.32.39.67.77,1.04,1.05.43.31.91.3,1.38.67.35.36.77.88,1.16.9,0-.01-.04.04-.05.09,0,.04,0,.02-.01-.02-.41-.65-.48-1.47-.75-2.18-.21-.44-.54-.85-.91-1.22.72.35,1.42.96,1.64,1.78.14.54.39.84.65,1.38.27.55-.36,1.03-.86.84-.62-.21-1.15-.87-1.3-1.09-.32-.28-.93-.44-1.23-.82-.36-.41-.58-.88-.75-1.37h0Z"/>
          </g>
          <path class="cls-22" d="m378.91,108.76c.83.09,7.81,6.43,10.14,6.72,5.26.67,11.17,1.02,11.87,2.27s-6.3,13.89-15.01,15.3-12.41-2.33-12.83-9.25c-.42-6.93,5.84-15.04,5.84-15.04Z"/>
        </g>
        <path class="cls-21" d="m362.01,108.22c-.82,1.15-4.91,5.65-9.17,16.78-3.3,8.62-7.94,26.28-7.94,26.28l31.44,4.5s1.7-24.56,2.22-29.36,2.76-9.19.86-12.04-2.15-9.54-8.32-9.43c-4.03.07-8.27,2.13-9.09,3.27Z"/>
        <path class="cls-14" d="m373.59,120.99s.5,6.89-.59,13.28c-.65,3.8-4.12,20.04-4.12,20.04l9.58,1.88s1.91-20.19,2.15-24.12-.26-12.16-.26-12.16l-6.77,1.06Z"/>
        <g>
          <path class="cls-8" d="m370.68,100.67s1.71,10.34,7.21,11.65c5.5,1.31,8.17-6.02,8.62-9.96.45-3.94-.39-5.84-8.03-7.02s-7.79,5.33-7.79,5.33Z"/>
          <path class="cls-7" d="m374.09,102.28s-.49,3.6,1.23,5.47,4.46.76,4.46.76c0,0-.03,1.26,1.33,1.12s1.92-.92,1.92-.92c0,0,.38,1.02.92,1.08s1.92-.92,1.9-.08-1.28,2.39-1.28,2.39c0,0,1.42,3.1-.65,4.42-2.07,1.32-9.69,2.2-13.57-.6s-.35-6.38-.35-6.38c0,0-.69-1.31.29-2.61s3.78-4.65,3.78-4.65Z"/>
          <path class="cls-5" d="m371.96,94.9s4.41-2.48,1.94-7.09c-2.47-4.62-3.73-2.92-3.73-2.92,0,0-.95-5.58-5.17-5.46s-1.16,3.11-1.16,3.11c0,0-5.73,1.21-6.93,5.72s4.57,1.89,4.57,1.89c0,0-1.99,3.58-.07,2.94s5.25-3.65,5.25-3.65c0,0-1.97,3.02.05,3.38s3.28-.91,3.28-.91l1.96,3.02Z"/>
          <path class="cls-9" d="m370.89,104.31c2.37,1.01,5.78-.09,6.92-.74s2.31-1.49,2.31-1.49c0,0,6.38,3.51,8.28,2.36s6.7-5.77-1.59-10.95c-6.41-4-10.89-2.13-14.29-.92-2.68.95-6.23,3.26-5.38,6.65.86,3.39,1.38,4.09,3.75,5.1Z"/>
        </g>
        <g>
          <path class="cls-8" d="m384.42,117.43s6.29,1.25,7.46,1.96,2.37,1.62,2.01,2.05c-.55.65-1.46-.41-1.46-.41,0,0,1.4,2.79,1.39,4.07s-2.68.68-3.12.16-1.16-1.49-1.16-1.49l-.19.49s-.39,1.07-1.23.84c-.49-.14.13-1.26.13-1.26,0,0-1.03-.54-1.38-1.98-2.64-.46-6.12-.64-6.12-.64l3.66-3.8Z"/>
          <path class="cls-21" d="m368.15,110.83c2.16-.12,5.32,3.71,8.35,4.4s8.84,1.29,9.66,2.11-4.9,8.07-12.99,11.77-9.83-.52-11.64-7.48c-1.81-6.97,4.44-10.68,6.61-10.8Z"/>
          <path class="cls-17" d="m384.04,121.03c-3.37,3.6-12.93,12.57-18.1,11.12-4.93-2.22-5.98-10.48-6.26-15.24,1.25,4.39,2.29,9.15,5.16,12.7.97,1.06,2.14,1.6,3.47,1.14,5.8-1.88,10.86-6.05,15.74-9.71h0Z"/>
          <path class="cls-17" d="m377.5,115.34c-3.72-.51-5.94,1.4-7.66,4.61.03-.88.31-1.73.72-2.52,1.22-2.56,4.52-3.65,6.94-2.09h0Z"/>
        </g>
        <path class="cls-23" d="m382.22,104.47c.47.22.54.62.67,1,.24.78.29,1.68-.13,2.44-.21.38-.58.75-1.07.67-.04,0-.07-.05-.05-.09.14-.46.33-.63.45-.91.22-.6.16-1.29.07-1.94-.05-.35-.2-.67-.02-1.13.01-.04.06-.05.09-.04h0Z"/>
      </g>
      <g>
        <polyline class="cls-3" points="191.28 132 195.86 99.41 384.34 125.88 379.76 158.47"/>
        <line class="cls-3" x1="194.58" y1="108.98" x2="381.87" y2="135.28"/>
        <line class="cls-3" x1="247.53" y1="106.66" x2="243.32" y2="136.61"/>
        <line class="cls-3" x1="303.63" y1="114.54" x2="299.43" y2="144.49"/>
        <line class="cls-3" x1="357.21" y1="122.07" x2="353" y2="152.02"/>
      </g>
      <g>
        <rect class="cls-18" x="184.8" y="156.17" width="188.42" height="91.96" transform="translate(30.83 -36.84) rotate(7.99)"/>
        <g>
          <path class="cls-16" d="m262.89,142.06l-23.41-3.29h-.03s-23.41-3.29-23.41-3.29h-.02s-24.74-3.48-24.74-3.48l-4.55,32.42,1.3.18s5.79-13.39,13.68-12.28c7.37,1.04,9.6,14.46,9.76,15.5v.07s0-.01,0-.03c0,.02,0,.04,0,.04v-.07c.45-.98,6.09-13.28,13.66-12.21,7.3,1.03,9.56,14.21,9.76,15.47v.1s0-.02,0-.05c0,.03,0,.05,0,.05l.02-.11c.53-1.19,6.14-13.23,13.64-12.18,7.37,1.04,9.6,14.46,9.76,15.5v.07s0-.01,0-.03c0,.02,0,.04,0,.04v-.07c.45-.98,6.09-13.28,13.66-12.21s9.77,15.57,9.77,15.57l4.55-32.42-23.44-3.29h-.02Z"/>
          <path class="cls-16" d="m356.67,155.23h-.02s-23.41-3.29-23.41-3.29h-.03s-23.41-3.29-23.41-3.29h-.02s-23.44-3.29-23.44-3.29l-4.55,32.42s5.79-13.39,13.68-12.28c7.37,1.04,9.6,14.46,9.76,15.5v.07s0-.01,0-.03c0,.02,0,.04,0,.04v-.07c.45-.98,6.09-13.28,13.66-12.21,7.3,1.03,9.56,14.21,9.76,15.47v.1s0-.02,0-.05c0,.03,0,.05,0,.05l.02-.11c.53-1.19,6.14-13.23,13.64-12.18s9.6,14.46,9.76,15.5v.07s0-.01,0-.03c0,.02,0,.04,0,.04v-.07c.45-.98,6.09-13.28,13.66-12.21s9.76,15.64,9.76,15.64l1.17.16,4.56-32.49-24.61-3.46Z"/>
        </g>
        <g>
          <rect class="cls-13" x="180.81" y="164.63" width="6.07" height="70.24" transform="translate(29.57 -23.63) rotate(7.99)"/>
          <rect class="cls-16" x="184.42" y="161.22" width="8.98" height="4.7" transform="translate(24.59 -24.68) rotate(7.99)"/>
          <path class="cls-19" d="m184.22,163.39c3.04-.95,6.42-.49,9.08,1.28-3.04.96-6.42.48-9.08-1.28h0Z"/>
        </g>
        <g>
          <rect class="cls-13" x="203.19" y="167.77" width="6.07" height="70.24" transform="translate(30.22 -26.71) rotate(7.99)"/>
          <rect class="cls-16" x="206.8" y="164.37" width="8.98" height="4.7" transform="translate(25.24 -27.77) rotate(7.99)"/>
          <path class="cls-19" d="m206.6,166.54c3.04-.95,6.42-.49,9.08,1.28-3.04.96-6.42.48-9.08-1.28h0Z"/>
        </g>
        <g>
          <rect class="cls-13" x="227.09" y="171.13" width="6.07" height="70.24" transform="translate(30.92 -30) rotate(7.99)"/>
          <rect class="cls-16" x="230.71" y="167.73" width="8.98" height="4.7" transform="translate(25.94 -31.06) rotate(7.99)"/>
          <path class="cls-19" d="m230.51,169.89c3.04-.95,6.42-.49,9.08,1.28-3.04.96-6.42.48-9.08-1.28h0Z"/>
        </g>
        <g>
          <rect class="cls-13" x="250.55" y="174.42" width="6.07" height="70.24" transform="translate(31.61 -33.23) rotate(7.99)"/>
          <rect class="cls-16" x="254.16" y="171.02" width="8.98" height="4.7" transform="translate(26.63 -34.29) rotate(7.99)"/>
          <path class="cls-19" d="m253.96,173.19c3.04-.95,6.42-.49,9.08,1.28-3.04.96-6.42.48-9.08-1.28h0Z"/>
        </g>
        <g>
          <rect class="cls-13" x="273.67" y="177.67" width="6.07" height="70.24" transform="translate(32.28 -36.42) rotate(7.99)"/>
          <rect class="cls-16" x="277.28" y="174.27" width="8.98" height="4.7" transform="translate(27.3 -37.47) rotate(7.99)"/>
          <path class="cls-19" d="m277.09,176.43c3.04-.95,6.42-.49,9.08,1.28-3.04.96-6.42.48-9.08-1.28h0Z"/>
        </g>
        <g>
          <rect class="cls-13" x="297.01" y="180.95" width="6.07" height="70.24" transform="translate(32.97 -39.63) rotate(7.99)"/>
          <rect class="cls-16" x="300.62" y="177.54" width="8.98" height="4.7" transform="translate(27.98 -40.69) rotate(7.99)"/>
          <path class="cls-19" d="m300.43,179.71c3.04-.95,6.42-.49,9.08,1.28-3.04.96-6.42.48-9.08-1.28h0Z"/>
        </g>
        <g>
          <rect class="cls-13" x="320.92" y="184.31" width="6.07" height="70.24" transform="translate(33.67 -42.92) rotate(7.99)"/>
          <rect class="cls-16" x="324.53" y="180.9" width="8.98" height="4.7" transform="translate(28.68 -43.98) rotate(7.99)"/>
          <path class="cls-19" d="m324.33,183.07c3.04-.95,6.42-.49,9.08,1.28-3.04.96-6.42.48-9.08-1.28h0Z"/>
        </g>
        <g>
          <rect class="cls-13" x="344.48" y="187.61" width="6.07" height="70.24" transform="translate(34.35 -46.17) rotate(7.99)"/>
          <rect class="cls-16" x="348.09" y="184.21" width="8.98" height="4.7" transform="translate(29.37 -47.22) rotate(7.99)"/>
          <path class="cls-19" d="m347.9,186.38c3.04-.95,6.42-.49,9.08,1.28-3.04.96-6.42.48-9.08-1.28h0Z"/>
        </g>
        <g>
          <rect class="cls-13" x="366.38" y="190.69" width="6.07" height="70.24" transform="translate(35 -49.18) rotate(7.99)"/>
          <rect class="cls-16" x="369.99" y="187.29" width="8.98" height="4.7" transform="translate(30.01 -50.24) rotate(7.99)"/>
          <path class="cls-19" d="m369.79,189.45c3.04-.95,6.42-.49,9.08,1.28-3.04.96-6.42.48-9.08-1.28h0Z"/>
        </g>
        <path class="cls-2" d="m189.23,156.73s5.55-10.14,12.59-9.15,10.57,10.34,10.57,10.34c0,0,3.56-8.69,12.73-7.4s11.42,11.46,11.42,11.46c0,0,5.45-9.09,12.82-8.05s9.64,11.04,9.64,11.04c0,0,3.44-9.04,13.43-7.63s10.67,10.85,10.67,10.85c0,0,3.07-8.75,12.4-7.44s11.32,10.94,11.32,10.94c0,0,4.87-8.5,12.07-7.49s10.79,11.2,10.79,11.2c0,0,4.14-9.27,12.49-8.1s11.02,10.73,11.02,10.73c0,0,3.25-8.9,12.57-7.42s9.87,9.4,9.87,9.4"/>
        <g>
          <rect class="cls-10" x="185.61" y="146.59" width="198.79" height="7.86" transform="translate(23.7 -38.18) rotate(7.99)"/>
          <rect class="cls-16" x="183.04" y="140.75" width="205.57" height="7.86" transform="translate(22.9 -38.35) rotate(7.99)"/>
        </g>
      </g>
      <g>
        <rect class="cls-18" x="170.96" y="254.71" width="188.42" height="91.96" transform="translate(44.4 -33.96) rotate(7.99)"/>
        <g>
          <path class="cls-16" d="m249.05,240.6l-23.41-3.29h-.03s-23.41-3.29-23.41-3.29h-.02s-24.74-3.48-24.74-3.48l-4.55,32.42,1.3.18s5.79-13.39,13.68-12.28c7.37,1.04,9.6,14.46,9.76,15.5v.07s0-.01,0-.03c0,.02,0,.04,0,.04v-.07c.45-.98,6.09-13.28,13.66-12.21,7.3,1.03,9.56,14.21,9.76,15.47v.1s0-.02,0-.05c0,.03,0,.05,0,.05l.02-.11c.53-1.19,6.14-13.23,13.64-12.18s9.6,14.46,9.76,15.5v.07s0-.01,0-.03c0,.02,0,.04,0,.04v-.07c.45-.98,6.09-13.28,13.66-12.21,7.67,1.08,9.77,15.57,9.77,15.57l4.55-32.42-23.44-3.29h-.02Z"/>
          <path class="cls-16" d="m342.83,253.77h-.02s-23.41-3.29-23.41-3.29h-.03s-23.41-3.29-23.41-3.29h-.02s-23.44-3.29-23.44-3.29l-4.55,32.42s5.79-13.39,13.68-12.28c7.37,1.04,9.6,14.46,9.76,15.5v.07s0-.01,0-.03c0,.02,0,.04,0,.04v-.07c.45-.98,6.09-13.28,13.66-12.21,7.3,1.03,9.56,14.21,9.76,15.47v.1s0-.02,0-.05c0,.03,0,.05,0,.05l.02-.11c.53-1.19,6.14-13.23,13.64-12.18,7.37,1.04,9.6,14.46,9.76,15.5v.07s0-.01,0-.03c0,.02,0,.04,0,.04v-.07c.45-.98,6.09-13.28,13.66-12.21s9.76,15.64,9.76,15.64l1.17.16,4.56-32.49-24.61-3.46Z"/>
        </g>
        <g>
          <rect class="cls-13" x="166.97" y="263.17" width="6.07" height="70.24" transform="translate(43.14 -20.74) rotate(7.99)"/>
          <rect class="cls-16" x="170.58" y="259.76" width="8.98" height="4.7" transform="translate(38.16 -21.8) rotate(7.99)"/>
          <path class="cls-19" d="m170.38,261.93c3.04-.95,6.42-.49,9.08,1.28-3.04.96-6.42.48-9.08-1.28h0Z"/>
        </g>
        <g>
          <rect class="cls-13" x="189.35" y="266.31" width="6.07" height="70.24" transform="translate(43.79 -23.83) rotate(7.99)"/>
          <rect class="cls-16" x="192.96" y="262.91" width="8.98" height="4.7" transform="translate(38.81 -24.88) rotate(7.99)"/>
          <path class="cls-19" d="m192.76,265.08c3.04-.95,6.42-.49,9.08,1.28-3.04.96-6.42.48-9.08-1.28h0Z"/>
        </g>
        <g>
          <rect class="cls-13" x="213.25" y="269.67" width="6.07" height="70.24" transform="translate(44.49 -27.12) rotate(7.99)"/>
          <rect class="cls-16" x="216.87" y="266.27" width="8.98" height="4.7" transform="translate(39.51 -28.18) rotate(7.99)"/>
          <path class="cls-19" d="m216.67,268.43c3.04-.95,6.42-.49,9.08,1.28-3.04.96-6.42.48-9.08-1.28h0Z"/>
        </g>
        <g>
          <rect class="cls-13" x="236.71" y="272.96" width="6.07" height="70.24" transform="translate(45.18 -30.35) rotate(7.99)"/>
          <rect class="cls-16" x="240.32" y="269.56" width="8.98" height="4.7" transform="translate(40.2 -31.4) rotate(7.99)"/>
          <path class="cls-19" d="m240.12,271.73c3.04-.95,6.42-.49,9.08,1.28-3.04.96-6.42.48-9.08-1.28h0Z"/>
        </g>
        <g>
          <rect class="cls-13" x="259.83" y="276.21" width="6.07" height="70.24" transform="translate(45.85 -33.53) rotate(7.99)"/>
          <rect class="cls-16" x="263.44" y="272.81" width="8.98" height="4.7" transform="translate(40.87 -34.59) rotate(7.99)"/>
          <path class="cls-19" d="m263.25,274.97c3.04-.95,6.42-.49,9.08,1.28-3.04.96-6.42.48-9.08-1.28h0Z"/>
        </g>
        <g>
          <rect class="cls-13" x="283.17" y="279.49" width="6.07" height="70.24" transform="translate(46.54 -36.75) rotate(7.99)"/>
          <rect class="cls-16" x="286.78" y="276.08" width="8.98" height="4.7" transform="translate(41.55 -37.8) rotate(7.99)"/>
          <path class="cls-19" d="m286.59,278.25c3.04-.95,6.42-.49,9.08,1.28-3.04.96-6.42.48-9.08-1.28h0Z"/>
        </g>
        <g>
          <rect class="cls-13" x="307.08" y="282.85" width="6.07" height="70.24" transform="translate(47.24 -40.04) rotate(7.99)"/>
          <rect class="cls-16" x="310.69" y="279.44" width="8.98" height="4.7" transform="translate(42.25 -41.1) rotate(7.99)"/>
          <path class="cls-19" d="m310.49,281.61c3.04-.95,6.42-.49,9.08,1.28-3.04.96-6.42.48-9.08-1.28h0Z"/>
        </g>
        <g>
          <rect class="cls-13" x="330.64" y="286.15" width="6.07" height="70.24" transform="translate(47.92 -43.28) rotate(7.99)"/>
          <rect class="cls-16" x="334.25" y="282.75" width="8.98" height="4.7" transform="translate(42.94 -44.34) rotate(7.99)"/>
          <path class="cls-19" d="m334.06,284.92c3.04-.95,6.42-.49,9.08,1.28-3.04.96-6.42.48-9.08-1.28h0Z"/>
        </g>
        <g>
          <rect class="cls-13" x="352.54" y="289.23" width="6.07" height="70.24" transform="translate(48.57 -46.3) rotate(7.99)"/>
          <rect class="cls-16" x="356.15" y="285.83" width="8.98" height="4.7" transform="translate(43.58 -47.36) rotate(7.99)"/>
          <path class="cls-19" d="m355.95,287.99c3.04-.95,6.42-.49,9.08,1.28-3.04.96-6.42.48-9.08-1.28h0Z"/>
        </g>
        <path class="cls-2" d="m175.39,255.27s5.55-10.14,12.59-9.15,10.57,10.34,10.57,10.34c0,0,3.56-8.69,12.73-7.4s11.42,11.46,11.42,11.46c0,0,5.45-9.09,12.82-8.05,7.37,1.04,9.64,11.04,9.64,11.04,0,0,3.44-9.04,13.43-7.63,9.99,1.4,10.67,10.85,10.67,10.85,0,0,3.07-8.75,12.4-7.44s11.32,10.94,11.32,10.94c0,0,4.87-8.5,12.07-7.49s10.79,11.2,10.79,11.2c0,0,4.14-9.27,12.49-8.1s11.02,10.73,11.02,10.73c0,0,3.25-8.9,12.57-7.42s9.87,9.4,9.87,9.4"/>
        <g>
          <rect class="cls-10" x="171.77" y="245.13" width="198.79" height="7.86" transform="translate(37.27 -35.29) rotate(7.99)"/>
          <rect class="cls-16" x="169.2" y="239.29" width="205.57" height="7.86" transform="translate(36.47 -35.46) rotate(7.99)"/>
        </g>
      </g>
      <g>
        <rect class="cls-18" x="156.88" y="354.98" width="188.42" height="91.96" transform="translate(58.2 -31.02) rotate(7.99)"/>
        <g>
          <path class="cls-16" d="m234.97,340.87l-23.41-3.29h-.03s-23.41-3.29-23.41-3.29h-.02s-24.74-3.48-24.74-3.48l-4.55,32.42,1.3.18s5.79-13.39,13.68-12.28c7.37,1.04,9.6,14.46,9.76,15.5v.07s0-.01,0-.03c0,.02,0,.04,0,.04v-.07c.45-.98,6.09-13.28,13.66-12.21s9.56,14.21,9.76,15.47v.1s0-.02,0-.05c0,.03,0,.05,0,.05l.02-.11c.53-1.19,6.14-13.23,13.64-12.18s9.6,14.46,9.76,15.5v.07s0-.01,0-.03c0,.02,0,.04,0,.04v-.07c.45-.98,6.09-13.28,13.66-12.21,7.67,1.08,9.77,15.57,9.77,15.57l4.55-32.42-23.44-3.29h-.02Z"/>
          <path class="cls-16" d="m328.75,354.04h-.02s-23.41-3.29-23.41-3.29h-.03s-23.41-3.29-23.41-3.29h-.02s-23.44-3.29-23.44-3.29l-4.55,32.42s5.79-13.39,13.68-12.28c7.37,1.04,9.6,14.46,9.76,15.5v.07s0-.01,0-.03c0,.02,0,.04,0,.04v-.07c.45-.98,6.09-13.28,13.66-12.21s9.56,14.21,9.76,15.47v.1s0-.02,0-.05c0,.03,0,.05,0,.05l.02-.11c.53-1.19,6.14-13.23,13.64-12.18s9.6,14.46,9.76,15.5v.07s0-.01,0-.03c0,.02,0,.04,0,.04v-.07c.45-.98,6.09-13.28,13.66-12.21,7.67,1.08,9.76,15.64,9.76,15.64l1.17.16,4.56-32.49-24.61-3.46Z"/>
        </g>
        <g>
          <rect class="cls-13" x="152.89" y="363.44" width="6.07" height="70.24" transform="translate(56.95 -17.81) rotate(7.99)"/>
          <rect class="cls-16" x="156.5" y="360.03" width="8.98" height="4.7" transform="translate(51.96 -18.87) rotate(7.99)"/>
          <path class="cls-19" d="m156.3,362.2c3.04-.95,6.42-.49,9.08,1.28-3.04.96-6.42.48-9.08-1.28h0Z"/>
        </g>
        <g>
          <rect class="cls-13" x="175.27" y="366.58" width="6.07" height="70.24" transform="translate(57.6 -20.89) rotate(7.99)"/>
          <rect class="cls-16" x="178.88" y="363.18" width="8.98" height="4.7" transform="translate(52.62 -21.95) rotate(7.99)"/>
          <path class="cls-19" d="m178.68,365.34c3.04-.95,6.42-.49,9.08,1.28-3.04.96-6.42.48-9.08-1.28h0Z"/>
        </g>
        <g>
          <rect class="cls-13" x="199.17" y="369.94" width="6.07" height="70.24" transform="translate(58.3 -24.19) rotate(7.99)"/>
          <rect class="cls-16" x="202.78" y="366.53" width="8.98" height="4.7" transform="translate(53.32 -25.24) rotate(7.99)"/>
          <path class="cls-19" d="m202.59,368.7c3.04-.95,6.42-.49,9.08,1.28-3.04.96-6.42.48-9.08-1.28h0Z"/>
        </g>
        <g>
          <rect class="cls-13" x="222.62" y="373.23" width="6.07" height="70.24" transform="translate(58.99 -27.42) rotate(7.99)"/>
          <rect class="cls-16" x="226.24" y="369.83" width="8.98" height="4.7" transform="translate(54 -28.47) rotate(7.99)"/>
          <path class="cls-19" d="m226.04,372c3.04-.95,6.42-.49,9.08,1.28-3.04.96-6.42.48-9.08-1.28h0Z"/>
        </g>
        <g>
          <rect class="cls-13" x="245.75" y="376.48" width="6.07" height="70.24" transform="translate(59.66 -30.6) rotate(7.99)"/>
          <rect class="cls-16" x="249.36" y="373.08" width="8.98" height="4.7" transform="translate(54.68 -31.66) rotate(7.99)"/>
          <path class="cls-19" d="m249.16,375.24c3.04-.95,6.42-.49,9.08,1.28-3.04.96-6.42.48-9.08-1.28h0Z"/>
        </g>
        <g>
          <rect class="cls-13" x="269.09" y="379.76" width="6.07" height="70.24" transform="translate(60.34 -33.81) rotate(7.99)"/>
          <rect class="cls-16" x="272.7" y="376.35" width="8.98" height="4.7" transform="translate(55.36 -34.87) rotate(7.99)"/>
          <path class="cls-19" d="m272.51,378.52c3.04-.95,6.42-.49,9.08,1.28-3.04.96-6.42.48-9.08-1.28h0Z"/>
        </g>
        <g>
          <rect class="cls-13" x="293" y="383.11" width="6.07" height="70.24" transform="translate(61.04 -37.11) rotate(7.99)"/>
          <rect class="cls-16" x="296.61" y="379.71" width="8.98" height="4.7" transform="translate(56.06 -38.16) rotate(7.99)"/>
          <path class="cls-19" d="m296.41,381.88c3.04-.95,6.42-.49,9.08,1.28-3.04.96-6.42.48-9.08-1.28h0Z"/>
        </g>
        <g>
          <rect class="cls-13" x="316.56" y="386.42" width="6.07" height="70.24" transform="translate(61.73 -40.35) rotate(7.99)"/>
          <rect class="cls-16" x="320.17" y="383.02" width="8.98" height="4.7" transform="translate(56.75 -41.41) rotate(7.99)"/>
          <path class="cls-19" d="m319.97,385.19c3.04-.95,6.42-.49,9.08,1.28-3.04.96-6.42.48-9.08-1.28h0Z"/>
        </g>
        <g>
          <rect class="cls-13" x="338.46" y="389.5" width="6.07" height="70.24" transform="translate(62.37 -43.37) rotate(7.99)"/>
          <rect class="cls-16" x="342.07" y="386.1" width="8.98" height="4.7" transform="translate(57.39 -44.42) rotate(7.99)"/>
          <path class="cls-19" d="m341.87,388.26c3.04-.95,6.42-.49,9.08,1.28-3.04.96-6.42.48-9.08-1.28h0Z"/>
        </g>
        <path class="cls-2" d="m161.31,355.53s5.55-10.14,12.59-9.15c7.04.99,10.57,10.34,10.57,10.34,0,0,3.56-8.69,12.73-7.4s11.42,11.46,11.42,11.46c0,0,5.45-9.09,12.82-8.05s9.64,11.04,9.64,11.04c0,0,3.44-9.04,13.43-7.63s10.67,10.85,10.67,10.85c0,0,3.07-8.75,12.4-7.44,9.33,1.31,11.32,10.94,11.32,10.94,0,0,4.87-8.5,12.07-7.49s10.79,11.2,10.79,11.2c0,0,4.14-9.27,12.49-8.1,8.35,1.17,11.02,10.73,11.02,10.73,0,0,3.25-8.9,12.57-7.42s9.87,9.4,9.87,9.4"/>
        <g>
          <rect class="cls-10" x="157.69" y="345.4" width="198.79" height="7.86" transform="translate(51.08 -32.36) rotate(7.99)"/>
          <rect class="cls-16" x="155.12" y="339.56" width="205.57" height="7.86" transform="translate(50.28 -32.53) rotate(7.99)"/>
        </g>
      </g>
      <g>
        <rect class="cls-18" x="143.04" y="453.52" width="188.42" height="91.96" transform="translate(71.77 -28.14) rotate(7.99)"/>
        <g>
          <path class="cls-16" d="m221.13,439.41l-23.41-3.29h-.03s-23.41-3.29-23.41-3.29h-.02s-24.74-3.48-24.74-3.48l-4.55,32.42,1.3.18s5.79-13.39,13.68-12.28c7.37,1.04,9.6,14.46,9.76,15.5v.07s0-.01,0-.03c0,.02,0,.04,0,.04v-.07c.45-.98,6.09-13.28,13.66-12.21,7.3,1.03,9.56,14.21,9.76,15.47v.1s0-.02,0-.05c0,.03,0,.05,0,.05l.02-.11c.53-1.19,6.14-13.23,13.64-12.18s9.6,14.46,9.76,15.5v.07s0-.01,0-.03c0,.02,0,.04,0,.04v-.07c.45-.98,6.09-13.28,13.66-12.21,7.67,1.08,9.77,15.57,9.77,15.57l4.55-32.42-23.44-3.29h-.02Z"/>
          <path class="cls-16" d="m314.91,452.58h-.02s-23.41-3.29-23.41-3.29h-.03s-23.41-3.29-23.41-3.29h-.02s-23.44-3.29-23.44-3.29l-4.55,32.42s5.79-13.39,13.68-12.28c7.37,1.04,9.6,14.46,9.76,15.5v.07s0-.01,0-.03c0,.02,0,.04,0,.04v-.07c.45-.98,6.09-13.28,13.66-12.21,7.3,1.03,9.56,14.21,9.76,15.47v.1s0-.02,0-.05c0,.03,0,.05,0,.05l.02-.11c.53-1.19,6.14-13.23,13.64-12.18,7.37,1.04,9.6,14.46,9.76,15.5v.07s0-.01,0-.03c0,.02,0,.04,0,.04v-.07c.45-.98,6.09-13.28,13.66-12.21,7.67,1.08,9.76,15.64,9.76,15.64l1.17.16,4.56-32.49-24.61-3.46Z"/>
        </g>
        <g>
          <rect class="cls-13" x="139.05" y="461.98" width="6.07" height="70.24" transform="translate(70.52 -14.93) rotate(7.99)"/>
          <rect class="cls-16" x="142.66" y="458.57" width="8.98" height="4.7" transform="translate(65.53 -15.99) rotate(7.99)"/>
          <path class="cls-19" d="m142.46,460.74c3.04-.95,6.42-.49,9.08,1.28-3.04.96-6.42.48-9.08-1.28h0Z"/>
        </g>
        <g>
          <rect class="cls-13" x="161.43" y="465.12" width="6.07" height="70.24" transform="translate(71.17 -18.01) rotate(7.99)"/>
          <rect class="cls-16" x="165.04" y="461.72" width="8.98" height="4.7" transform="translate(66.19 -19.07) rotate(7.99)"/>
          <path class="cls-19" d="m164.84,463.88c3.04-.95,6.42-.49,9.08,1.28-3.04.96-6.42.48-9.08-1.28h0Z"/>
        </g>
        <g>
          <rect class="cls-13" x="185.33" y="468.48" width="6.07" height="70.24" transform="translate(71.87 -21.3) rotate(7.99)"/>
          <rect class="cls-16" x="188.95" y="465.07" width="8.98" height="4.7" transform="translate(66.89 -22.36) rotate(7.99)"/>
          <path class="cls-19" d="m188.75,467.24c3.04-.95,6.42-.49,9.08,1.28-3.04.96-6.42.48-9.08-1.28h0Z"/>
        </g>
        <g>
          <rect class="cls-13" x="208.79" y="471.77" width="6.07" height="70.24" transform="translate(72.56 -24.53) rotate(7.99)"/>
          <rect class="cls-16" x="212.4" y="468.37" width="8.98" height="4.7" transform="translate(67.57 -25.59) rotate(7.99)"/>
          <path class="cls-19" d="m212.2,470.54c3.04-.95,6.42-.49,9.08,1.28-3.04.96-6.42.48-9.08-1.28h0Z"/>
        </g>
        <g>
          <rect class="cls-13" x="231.91" y="475.02" width="6.07" height="70.24" transform="translate(73.23 -27.72) rotate(7.99)"/>
          <rect class="cls-16" x="235.52" y="471.62" width="8.98" height="4.7" transform="translate(68.25 -28.77) rotate(7.99)"/>
          <path class="cls-19" d="m235.33,473.78c3.04-.95,6.42-.49,9.08,1.28-3.04.96-6.42.48-9.08-1.28h0Z"/>
        </g>
        <g>
          <rect class="cls-13" x="255.25" y="478.3" width="6.07" height="70.24" transform="translate(73.91 -30.93) rotate(7.99)"/>
          <rect class="cls-16" x="258.86" y="474.89" width="8.98" height="4.7" transform="translate(68.93 -31.99) rotate(7.99)"/>
          <path class="cls-19" d="m258.67,477.06c3.04-.95,6.42-.49,9.08,1.28-3.04.96-6.42.48-9.08-1.28h0Z"/>
        </g>
        <g>
          <rect class="cls-13" x="279.16" y="481.65" width="6.07" height="70.24" transform="translate(74.61 -34.22) rotate(7.99)"/>
          <rect class="cls-16" x="282.77" y="478.25" width="8.98" height="4.7" transform="translate(69.63 -35.28) rotate(7.99)"/>
          <path class="cls-19" d="m282.57,480.42c3.04-.95,6.42-.49,9.08,1.28-3.04.96-6.42.48-9.08-1.28h0Z"/>
        </g>
        <g>
          <rect class="cls-13" x="302.72" y="484.96" width="6.07" height="70.24" transform="translate(75.3 -37.47) rotate(7.99)"/>
          <rect class="cls-16" x="306.33" y="481.56" width="8.98" height="4.7" transform="translate(70.32 -38.53) rotate(7.99)"/>
          <path class="cls-19" d="m306.14,483.73c3.04-.95,6.42-.49,9.08,1.28-3.04.96-6.42.48-9.08-1.28h0Z"/>
        </g>
        <g>
          <rect class="cls-13" x="324.62" y="488.04" width="6.07" height="70.24" transform="translate(75.94 -40.48) rotate(7.99)"/>
          <rect class="cls-16" x="328.23" y="484.64" width="8.98" height="4.7" transform="translate(70.96 -41.54) rotate(7.99)"/>
          <path class="cls-19" d="m328.03,486.8c3.04-.95,6.42-.49,9.08,1.28-3.04.96-6.42.48-9.08-1.28h0Z"/>
        </g>
        <path class="cls-2" d="m147.47,454.07s5.55-10.14,12.59-9.15c7.04.99,10.57,10.34,10.57,10.34,0,0,3.56-8.69,12.73-7.4,9.17,1.29,11.42,11.46,11.42,11.46,0,0,5.45-9.09,12.82-8.05,7.37,1.04,9.64,11.04,9.64,11.04,0,0,3.44-9.04,13.43-7.63s10.67,10.85,10.67,10.85c0,0,3.07-8.75,12.4-7.44,9.33,1.31,11.32,10.94,11.32,10.94,0,0,4.87-8.5,12.07-7.49,7.21,1.01,10.79,11.2,10.79,11.2,0,0,4.14-9.27,12.49-8.1s11.02,10.73,11.02,10.73c0,0,3.25-8.9,12.57-7.42,9.31,1.47,9.87,9.4,9.87,9.4"/>
        <g>
          <rect class="cls-10" x="143.85" y="443.94" width="198.79" height="7.86" transform="translate(64.65 -29.48) rotate(7.99)"/>
          <rect class="cls-16" x="141.28" y="438.1" width="205.57" height="7.86" transform="translate(63.85 -29.65) rotate(7.99)"/>
        </g>
      </g>
      <g>
        <rect class="cls-18" x="128.78" y="555.05" width="188.42" height="91.96" transform="translate(85.76 -25.17) rotate(7.99)"/>
        <g>
          <path class="cls-16" d="m206.87,540.93l-23.41-3.29h-.03s-23.41-3.29-23.41-3.29h-.02s-24.74-3.48-24.74-3.48l-4.55,32.42,1.3.18s5.79-13.39,13.68-12.28c7.37,1.04,9.6,14.46,9.76,15.5v.07s0-.01,0-.03c0,.02,0,.04,0,.04v-.07c.45-.98,6.09-13.28,13.66-12.21,7.3,1.03,9.56,14.21,9.76,15.47v.1s0-.02,0-.05c0,.03,0,.05,0,.05l.02-.11c.53-1.19,6.14-13.23,13.64-12.18,7.37,1.04,9.6,14.46,9.76,15.5v.07s0-.01,0-.03c0,.02,0,.04,0,.04v-.07c.45-.98,6.09-13.28,13.66-12.21,7.67,1.08,9.77,15.57,9.77,15.57l4.55-32.42-23.44-3.29h-.02Z"/>
          <path class="cls-16" d="m300.65,554.11h-.02s-23.41-3.29-23.41-3.29h-.03s-23.41-3.29-23.41-3.29h-.02s-23.44-3.29-23.44-3.29l-4.55,32.42s5.79-13.39,13.68-12.28c7.37,1.04,9.6,14.46,9.76,15.5v.07s0-.01,0-.03c0,.02,0,.04,0,.04v-.07c.45-.98,6.09-13.28,13.66-12.21,7.3,1.03,9.56,14.21,9.76,15.47v.1s0-.02,0-.05c0,.03,0,.05,0,.05l.02-.11c.53-1.19,6.14-13.23,13.64-12.18s9.6,14.46,9.76,15.5v.07s0-.01,0-.03c0,.02,0,.04,0,.04v-.07c.45-.98,6.09-13.28,13.66-12.21,7.67,1.08,9.76,15.64,9.76,15.64l1.17.16,4.56-32.49-24.61-3.46Z"/>
        </g>
        <g>
          <rect class="cls-13" x="124.79" y="563.5" width="6.07" height="70.24" transform="translate(84.5 -11.96) rotate(7.99)"/>
          <rect class="cls-16" x="128.4" y="560.1" width="8.98" height="4.7" transform="translate(79.52 -13.02) rotate(7.99)"/>
          <path class="cls-19" d="m128.2,562.27c3.04-.95,6.42-.49,9.08,1.28-3.04.96-6.42.48-9.08-1.28h0Z"/>
        </g>
        <g>
          <rect class="cls-13" x="147.17" y="566.65" width="6.07" height="70.24" transform="translate(85.15 -15.04) rotate(7.99)"/>
          <rect class="cls-16" x="150.78" y="563.24" width="8.98" height="4.7" transform="translate(80.17 -16.1) rotate(7.99)"/>
          <path class="cls-19" d="m150.58,565.41c3.04-.95,6.42-.49,9.08,1.28-3.04.96-6.42.48-9.08-1.28h0Z"/>
        </g>
        <g>
          <rect class="cls-13" x="171.07" y="570.01" width="6.07" height="70.24" transform="translate(85.85 -18.33) rotate(7.99)"/>
          <rect class="cls-16" x="174.69" y="566.6" width="8.98" height="4.7" transform="translate(80.87 -19.39) rotate(7.99)"/>
          <path class="cls-19" d="m174.49,568.77c3.04-.95,6.42-.49,9.08,1.28-3.04.96-6.42.48-9.08-1.28h0Z"/>
        </g>
        <g>
          <rect class="cls-13" x="194.53" y="573.3" width="6.07" height="70.24" transform="translate(86.54 -21.56) rotate(7.99)"/>
          <rect class="cls-16" x="198.14" y="569.9" width="8.98" height="4.7" transform="translate(81.56 -22.62) rotate(7.99)"/>
          <path class="cls-19" d="m197.94,572.06c3.04-.95,6.42-.49,9.08,1.28-3.04.96-6.42.48-9.08-1.28h0Z"/>
        </g>
        <g>
          <rect class="cls-13" x="217.65" y="576.55" width="6.07" height="70.24" transform="translate(87.21 -24.75) rotate(7.99)"/>
          <rect class="cls-16" x="221.26" y="573.14" width="8.98" height="4.7" transform="translate(82.23 -25.8) rotate(7.99)"/>
          <path class="cls-19" d="m221.07,575.31c3.04-.95,6.42-.49,9.08,1.28-3.04.96-6.42.48-9.08-1.28h0Z"/>
        </g>
        <rect class="cls-16" x="244.6" y="576.42" width="8.98" height="4.7" transform="translate(82.91 -29.02) rotate(7.99)"/>
        <path class="cls-2" d="m133.21,555.6s5.55-10.14,12.59-9.15c7.04.99,10.57,10.34,10.57,10.34,0,0,3.56-8.69,12.73-7.4s11.42,11.46,11.42,11.46c0,0,5.45-9.09,12.82-8.05,7.37,1.04,9.64,11.04,9.64,11.04,0,0,3.44-9.04,13.43-7.63,9.99,1.4,10.67,10.85,10.67,10.85,0,0,3.07-8.75,12.4-7.44,9.33,1.31,11.32,10.94,11.32,10.94,0,0,4.87-8.5,12.07-7.49s10.79,11.2,10.79,11.2c0,0,4.14-9.27,12.49-8.1,8.35,1.17,11.02,10.73,11.02,10.73,0,0,3.25-8.9,12.57-7.42,9.31,1.47,9.87,9.4,9.87,9.4"/>
        <g>
          <rect class="cls-10" x="129.59" y="545.46" width="198.79" height="7.86" transform="translate(78.63 -26.51) rotate(7.99)"/>
          <rect class="cls-16" x="127.02" y="539.63" width="205.57" height="7.86" transform="translate(77.83 -26.68) rotate(7.99)"/>
        </g>
      </g>
      <circle class="cls-20" cx="391.11" cy="235.68" r="3.81"/>
      <circle class="cls-20" cx="403.41" cy="252.72" r="9.34"/>
      <path class="cls-6" d="m402.46,240.63c-1.37-36.27-1.38-72.59,0-108.86,1.38,36.27,1.37,72.59,0,108.86h0Z"/>
      <path class="cls-6" d="m391.11,228.7c-1.37-32.29-1.38-64.64,0-96.93,1.38,32.29,1.37,64.64,0,96.93h0Z"/>
    </g>
  </g>
</svg>