<?xml version="1.0" encoding="UTF-8"?>
<svg id="Layer_1" data-name="Layer 1" xmlns="http://www.w3.org/2000/svg" width="1140" height="494.24" viewBox="0 0 1140 494.24">
  <defs>
    <style>
      .cls-1 {
        fill: #212728;
      }

      .cls-2 {
        fill: #231e20;
      }

      .cls-3 {
        stroke: #231e20;
      }

      .cls-3, .cls-4, .cls-5 {
        fill: none;
        stroke-miterlimit: 10;
        stroke-width: 2px;
      }

      .cls-4 {
        stroke: #000;
      }

      .cls-5 {
        stroke: #d12d32;
      }
    </style>
  </defs>
  <g>
    <line class="cls-3" x1="231.28" y1="328.57" x2="244.81" y2="328.57"/>
    <line class="cls-3" x1="231.28" y1="249.4" x2="244.81" y2="249.4"/>
    <line class="cls-3" x1="231.28" y1="170.23" x2="244.81" y2="170.23"/>
    <line class="cls-3" x1="231.28" y1="91.07" x2="244.81" y2="91.07"/>
    <line class="cls-3" x1="393.28" y1="409.43" x2="393.28" y2="395.9"/>
    <line class="cls-3" x1="533.5" y1="409.43" x2="533.5" y2="395.9"/>
    <line class="cls-3" x1="673.71" y1="409.43" x2="673.71" y2="395.9"/>
    <line class="cls-3" x1="813.93" y1="409.43" x2="813.93" y2="395.9"/>
    <polyline class="cls-4" points="966.28 396.57 245.75 396.57 245.75 53.57"/>
    <g>
      <path class="cls-1" d="m190.34,91.3c0,2.54-.42,4.43-1.27,5.66-.84,1.23-2.16,1.85-3.96,1.85s-3.08-.6-3.94-1.81-1.29-3.01-1.32-5.41v-2.89c0-2.51.42-4.37,1.27-5.59s2.17-1.83,3.97-1.83,3.1.59,3.95,1.76c.84,1.18,1.28,2.99,1.3,5.44v2.81Zm-2.11-2.96c0-1.84-.25-3.17-.75-4.01s-1.3-1.26-2.38-1.26-1.87.42-2.36,1.25-.75,2.12-.76,3.86v3.47c0,1.84.26,3.21.78,4.08.52.88,1.31,1.32,2.37,1.32s1.82-.41,2.32-1.24c.5-.83.77-2.13.79-3.91v-3.55Z"/>
      <path class="cls-1" d="m193.3,97.44c0-.38.11-.69.33-.94s.54-.38.98-.38.76.12.99.38.34.56.34.94-.11.66-.34.9-.55.36-.99.36-.76-.12-.98-.36-.33-.54-.33-.9Z"/>
      <path class="cls-1" d="m208.1,92.85h2.3v1.77h-2.3v3.96h-2.12v-3.96h-7.56v-1.28l7.44-11.82h2.25v11.33Zm-7.29,0h5.17v-8.37l-.25.47-4.92,7.9Z"/>
      <path class="cls-1" d="m222.72,91.3c0,2.54-.42,4.43-1.27,5.66-.84,1.23-2.16,1.85-3.96,1.85s-3.08-.6-3.94-1.81-1.29-3.01-1.32-5.41v-2.89c0-2.51.42-4.37,1.27-5.59s2.17-1.83,3.97-1.83,3.1.59,3.95,1.76c.84,1.18,1.28,2.99,1.3,5.44v2.81Zm-2.11-2.96c0-1.84-.25-3.17-.75-4.01s-1.3-1.26-2.38-1.26-1.87.42-2.36,1.25-.75,2.12-.76,3.86v3.47c0,1.84.26,3.21.78,4.08.52.88,1.31,1.32,2.37,1.32s1.82-.41,2.32-1.24c.5-.83.77-2.13.79-3.91v-3.55Z"/>
    </g>
    <g>
      <path class="cls-1" d="m190.34,169.21c0,2.54-.42,4.43-1.27,5.66-.84,1.23-2.16,1.85-3.96,1.85s-3.08-.6-3.94-1.81-1.29-3.01-1.32-5.41v-2.89c0-2.51.42-4.37,1.27-5.59s2.17-1.83,3.97-1.83,3.1.59,3.95,1.76c.84,1.18,1.28,2.99,1.3,5.44v2.81Zm-2.11-2.96c0-1.84-.25-3.17-.75-4.01s-1.3-1.26-2.38-1.26-1.87.42-2.36,1.25-.75,2.12-.76,3.86v3.47c0,1.84.26,3.21.78,4.08.52.88,1.31,1.32,2.37,1.32s1.82-.41,2.32-1.24c.5-.83.77-2.13.79-3.91v-3.55Z"/>
      <path class="cls-1" d="m193.3,175.35c0-.38.11-.69.33-.94s.54-.38.98-.38.76.12.99.38.34.56.34.94-.11.66-.34.9-.55.36-.99.36-.76-.12-.98-.36-.33-.54-.33-.9Z"/>
      <path class="cls-1" d="m202.26,166.9h1.58c1-.02,1.78-.29,2.35-.81s.86-1.23.86-2.12c0-2-.97-3-2.91-3-.91,0-1.64.27-2.18.8s-.82,1.24-.82,2.13h-2.11c0-1.35.48-2.47,1.44-3.37.96-.89,2.18-1.34,3.67-1.34,1.57,0,2.79.43,3.68,1.28s1.33,2.04,1.33,3.55c0,.74-.23,1.46-.7,2.16-.47.7-1.1,1.21-1.91,1.56.91.3,1.62.79,2.12,1.48s.75,1.53.75,2.52c0,1.53-.49,2.75-1.46,3.64-.97.9-2.24,1.35-3.8,1.35s-2.83-.43-3.8-1.3-1.47-2.01-1.47-3.43h2.12c0,.9.29,1.62.86,2.16s1.33.81,2.29.81c1.02,0,1.8-.27,2.34-.82s.81-1.33.81-2.36-.3-1.75-.89-2.29c-.59-.53-1.45-.8-2.57-.82h-1.58v-1.77Z"/>
      <path class="cls-1" d="m222.72,169.21c0,2.54-.42,4.43-1.27,5.66-.84,1.23-2.16,1.85-3.96,1.85s-3.08-.6-3.94-1.81-1.29-3.01-1.32-5.41v-2.89c0-2.51.42-4.37,1.27-5.59s2.17-1.83,3.97-1.83,3.1.59,3.95,1.76c.84,1.18,1.28,2.99,1.3,5.44v2.81Zm-2.11-2.96c0-1.84-.25-3.17-.75-4.01s-1.3-1.26-2.38-1.26-1.87.42-2.36,1.25-.75,2.12-.76,3.86v3.47c0,1.84.26,3.21.78,4.08.52.88,1.31,1.32,2.37,1.32s1.82-.41,2.32-1.24c.5-.83.77-2.13.79-3.91v-3.55Z"/>
    </g>
    <g>
      <path class="cls-1" d="m190.34,250.2c0,2.54-.42,4.43-1.27,5.66-.84,1.23-2.16,1.85-3.96,1.85s-3.08-.6-3.94-1.81-1.29-3.01-1.32-5.41v-2.89c0-2.51.42-4.37,1.27-5.59s2.17-1.83,3.97-1.83,3.1.59,3.95,1.76c.84,1.18,1.28,2.99,1.3,5.44v2.81Zm-2.11-2.96c0-1.84-.25-3.17-.75-4.01s-1.3-1.26-2.38-1.26-1.87.42-2.36,1.25-.75,2.12-.76,3.86v3.47c0,1.84.26,3.21.78,4.08.52.88,1.31,1.32,2.37,1.32s1.82-.41,2.32-1.24c.5-.83.77-2.13.79-3.91v-3.55Z"/>
      <path class="cls-1" d="m193.3,256.34c0-.38.11-.69.33-.94s.54-.38.98-.38.76.12.99.38.34.56.34.94-.11.66-.34.9-.55.36-.99.36-.76-.12-.98-.36-.33-.54-.33-.9Z"/>
      <path class="cls-1" d="m210.07,257.48h-10.88v-1.56l5.75-6.56c.85-.99,1.44-1.8,1.76-2.42.32-.62.48-1.26.48-1.93,0-.89-.26-1.62-.79-2.19s-1.22-.86-2.1-.86c-1.05,0-1.87.31-2.45.92s-.87,1.47-.87,2.56h-2.11c0-1.57.49-2.84,1.48-3.81s2.3-1.45,3.95-1.45c1.54,0,2.76.42,3.66,1.25s1.35,1.94,1.35,3.32c0,1.68-1.04,3.68-3.13,6l-4.45,4.96h8.34v1.77Z"/>
      <path class="cls-1" d="m222.72,250.2c0,2.54-.42,4.43-1.27,5.66-.84,1.23-2.16,1.85-3.96,1.85s-3.08-.6-3.94-1.81-1.29-3.01-1.32-5.41v-2.89c0-2.51.42-4.37,1.27-5.59s2.17-1.83,3.97-1.83,3.1.59,3.95,1.76c.84,1.18,1.28,2.99,1.3,5.44v2.81Zm-2.11-2.96c0-1.84-.25-3.17-.75-4.01s-1.3-1.26-2.38-1.26-1.87.42-2.36,1.25-.75,2.12-.76,3.86v3.47c0,1.84.26,3.21.78,4.08.52.88,1.31,1.32,2.37,1.32s1.82-.41,2.32-1.24c.5-.83.77-2.13.79-3.91v-3.55Z"/>
    </g>
    <g>
      <path class="cls-1" d="m190.34,328.88c0,2.54-.42,4.43-1.27,5.66-.84,1.23-2.16,1.85-3.96,1.85s-3.08-.6-3.94-1.81-1.29-3.01-1.32-5.41v-2.89c0-2.51.42-4.37,1.27-5.59s2.17-1.83,3.97-1.83,3.1.59,3.95,1.76c.84,1.18,1.28,2.99,1.3,5.44v2.81Zm-2.11-2.96c0-1.84-.25-3.17-.75-4.01s-1.3-1.26-2.38-1.26-1.87.42-2.36,1.25-.75,2.12-.76,3.86v3.47c0,1.84.26,3.21.78,4.08.52.88,1.31,1.32,2.37,1.32s1.82-.41,2.32-1.24c.5-.83.77-2.13.79-3.91v-3.55Z"/>
      <path class="cls-1" d="m193.3,335.02c0-.38.11-.69.33-.94s.54-.38.98-.38.76.12.99.38.34.56.34.94-.11.66-.34.9-.55.36-.99.36-.76-.12-.98-.36-.33-.54-.33-.9Z"/>
      <path class="cls-1" d="m206.13,336.16h-2.12v-14.45l-4.25,1.61v-1.97l6.05-2.33h.33v17.14Z"/>
      <path class="cls-1" d="m222.72,328.88c0,2.54-.42,4.43-1.27,5.66-.84,1.23-2.16,1.85-3.96,1.85s-3.08-.6-3.94-1.81-1.29-3.01-1.32-5.41v-2.89c0-2.51.42-4.37,1.27-5.59s2.17-1.83,3.97-1.83,3.1.59,3.95,1.76c.84,1.18,1.28,2.99,1.3,5.44v2.81Zm-2.11-2.96c0-1.84-.25-3.17-.75-4.01s-1.3-1.26-2.38-1.26-1.87.42-2.36,1.25-.75,2.12-.76,3.86v3.47c0,1.84.26,3.21.78,4.08.52.88,1.31,1.32,2.37,1.32s1.82-.41,2.32-1.24c.5-.83.77-2.13.79-3.91v-3.55Z"/>
    </g>
    <g>
      <path class="cls-1" d="m808.92,427.01c0,2.54-.42,4.43-1.27,5.66-.84,1.23-2.16,1.85-3.96,1.85s-3.08-.6-3.94-1.81-1.29-3.01-1.32-5.41v-2.89c0-2.51.42-4.37,1.27-5.59s2.17-1.83,3.97-1.83,3.1.59,3.95,1.76c.84,1.18,1.28,2.99,1.3,5.44v2.81Zm-2.11-2.96c0-1.84-.25-3.17-.75-4.01s-1.3-1.26-2.38-1.26-1.87.42-2.36,1.25-.75,2.12-.76,3.86v3.47c0,1.84.26,3.21.78,4.08.52.88,1.31,1.32,2.37,1.32s1.82-.41,2.32-1.24c.5-.83.77-2.13.79-3.91v-3.55Z"/>
      <path class="cls-1" d="m811.89,433.15c0-.38.11-.69.33-.94s.54-.38.98-.38.76.12.99.38.34.56.34.94-.11.66-.34.9-.55.36-.99.36-.76-.12-.98-.36-.33-.54-.33-.9Z"/>
      <path class="cls-1" d="m826.68,428.56h2.3v1.77h-2.3v3.96h-2.12v-3.96h-7.56v-1.28l7.44-11.82h2.25v11.33Zm-7.29,0h5.17v-8.37l-.25.47-4.92,7.9Z"/>
    </g>
    <g>
      <path class="cls-1" d="m670.37,427.01c0,2.54-.42,4.43-1.27,5.66-.84,1.23-2.16,1.85-3.96,1.85s-3.08-.6-3.94-1.81-1.29-3.01-1.32-5.41v-2.89c0-2.51.42-4.37,1.27-5.59s2.17-1.83,3.97-1.83,3.1.59,3.95,1.76c.84,1.18,1.28,2.99,1.3,5.44v2.81Zm-2.11-2.96c0-1.84-.25-3.17-.75-4.01s-1.3-1.26-2.38-1.26-1.87.42-2.36,1.25-.75,2.12-.76,3.86v3.47c0,1.84.26,3.21.78,4.08.52.88,1.31,1.32,2.37,1.32s1.82-.41,2.32-1.24c.5-.83.77-2.13.79-3.91v-3.55Z"/>
      <path class="cls-1" d="m673.34,433.15c0-.38.11-.69.33-.94s.54-.38.98-.38.76.12.99.38.34.56.34.94-.11.66-.34.9-.55.36-.99.36-.76-.12-.98-.36-.33-.54-.33-.9Z"/>
      <path class="cls-1" d="m682.29,424.7h1.58c1-.02,1.78-.29,2.35-.81s.86-1.23.86-2.12c0-2-.97-3-2.91-3-.91,0-1.64.27-2.18.8s-.82,1.24-.82,2.13h-2.11c0-1.35.48-2.47,1.44-3.37.96-.89,2.18-1.34,3.67-1.34,1.57,0,2.79.43,3.68,1.28s1.33,2.04,1.33,3.55c0,.74-.23,1.46-.7,2.16-.47.7-1.1,1.21-1.91,1.56.91.3,1.62.79,2.12,1.48s.75,1.53.75,2.52c0,1.53-.49,2.75-1.46,3.64-.97.9-2.24,1.35-3.8,1.35s-2.83-.43-3.8-1.3-1.47-2.01-1.47-3.43h2.12c0,.9.29,1.62.86,2.16s1.33.81,2.29.81c1.02,0,1.8-.27,2.34-.82s.81-1.33.81-2.36-.3-1.75-.89-2.29c-.59-.53-1.45-.8-2.57-.82h-1.58v-1.77Z"/>
    </g>
    <g>
      <path class="cls-1" d="m530.83,427.01c0,2.54-.42,4.43-1.27,5.66-.84,1.23-2.16,1.85-3.96,1.85s-3.08-.6-3.94-1.81-1.29-3.01-1.32-5.41v-2.89c0-2.51.42-4.37,1.27-5.59s2.17-1.83,3.97-1.83,3.1.59,3.95,1.76c.84,1.18,1.28,2.99,1.3,5.44v2.81Zm-2.11-2.96c0-1.84-.25-3.17-.75-4.01s-1.3-1.26-2.38-1.26-1.87.42-2.36,1.25-.75,2.12-.76,3.86v3.47c0,1.84.26,3.21.78,4.08.52.88,1.31,1.32,2.37,1.32s1.82-.41,2.32-1.24c.5-.83.77-2.13.79-3.91v-3.55Z"/>
      <path class="cls-1" d="m533.79,433.15c0-.38.11-.69.33-.94s.54-.38.98-.38.76.12.99.38.34.56.34.94-.11.66-.34.9-.55.36-.99.36-.76-.12-.98-.36-.33-.54-.33-.9Z"/>
      <path class="cls-1" d="m550.56,434.29h-10.88v-1.56l5.75-6.56c.85-.99,1.44-1.8,1.76-2.42.32-.62.48-1.26.48-1.93,0-.89-.26-1.62-.79-2.19s-1.22-.86-2.1-.86c-1.05,0-1.87.31-2.45.92s-.87,1.47-.87,2.56h-2.11c0-1.57.49-2.84,1.48-3.81s2.3-1.45,3.95-1.45c1.54,0,2.76.42,3.66,1.25s1.35,1.94,1.35,3.32c0,1.68-1.04,3.68-3.13,6l-4.45,4.96h8.34v1.77Z"/>
    </g>
    <g>
      <path class="cls-1" d="m388.75,427.01c0,2.54-.42,4.43-1.27,5.66-.84,1.23-2.16,1.85-3.96,1.85s-3.08-.6-3.94-1.81-1.29-3.01-1.32-5.41v-2.89c0-2.51.42-4.37,1.27-5.59s2.17-1.83,3.97-1.83,3.1.59,3.95,1.76c.84,1.18,1.28,2.99,1.3,5.44v2.81Zm-2.11-2.96c0-1.84-.25-3.17-.75-4.01s-1.3-1.26-2.38-1.26-1.87.42-2.36,1.25-.75,2.12-.76,3.86v3.47c0,1.84.26,3.21.78,4.08.52.88,1.31,1.32,2.37,1.32s1.82-.41,2.32-1.24c.5-.83.77-2.13.79-3.91v-3.55Z"/>
      <path class="cls-1" d="m391.72,433.15c0-.38.11-.69.33-.94s.54-.38.98-.38.76.12.99.38.34.56.34.94-.11.66-.34.9-.55.36-.99.36-.76-.12-.98-.36-.33-.54-.33-.9Z"/>
      <path class="cls-1" d="m404.54,434.29h-2.12v-14.45l-4.25,1.61v-1.97l6.05-2.33h.33v17.14Z"/>
    </g>
    <path class="cls-1" d="m248.25,427.01c0,2.54-.42,4.43-1.27,5.66-.84,1.23-2.16,1.85-3.96,1.85s-3.08-.6-3.94-1.81-1.29-3.01-1.32-5.41v-2.89c0-2.51.42-4.37,1.27-5.59s2.17-1.83,3.97-1.83,3.1.59,3.95,1.76c.84,1.18,1.28,2.99,1.3,5.44v2.81Zm-2.11-2.96c0-1.84-.25-3.17-.75-4.01s-1.3-1.26-2.38-1.26-1.87.42-2.36,1.25-.75,2.12-.76,3.86v3.47c0,1.84.26,3.21.78,4.08.52.88,1.31,1.32,2.37,1.32s1.82-.41,2.32-1.24c.5-.83.77-2.13.79-3.91v-3.55Z"/>
    <line class="cls-5" x1="246.3" y1="395.97" x2="937.94" y2="85.76"/>
  </g>
  <g>
    <path class="cls-2" d="m314.5,19.7l4.83-16.04h4.89l-7.43,21.33h-4.58l-7.4-21.33h4.88l4.8,16.04Z"/>
    <path class="cls-2" d="m333.25,25.28c-2.32,0-4.22-.71-5.68-2.14s-2.19-3.33-2.19-5.7v-.41c0-1.59.31-3.02.92-4.27s1.49-2.22,2.61-2.9c1.13-.68,2.42-1.02,3.86-1.02,2.17,0,3.87.68,5.12,2.05,1.24,1.37,1.87,3.31,1.87,5.82v1.73h-10.09c.14,1.04.55,1.87,1.24,2.49.69.62,1.56.94,2.62.94,1.63,0,2.91-.59,3.82-1.77l2.08,2.33c-.63.9-1.49,1.6-2.58,2.1s-2.29.75-3.6.75Zm-.48-13.02c-.84,0-1.52.28-2.04.85-.52.57-.86,1.38-1,2.44h5.89v-.34c-.02-.94-.27-1.67-.76-2.19s-1.18-.77-2.08-.77Z"/>
    <path class="cls-2" d="m346.64,24.99h-4.25V2.49h4.25v22.5Z"/>
    <path class="cls-2" d="m349.47,16.92c0-1.57.3-2.97.91-4.2s1.48-2.18,2.62-2.86c1.14-.67,2.46-1.01,3.96-1.01,2.14,0,3.88.65,5.24,1.96,1.35,1.31,2.11,3.09,2.26,5.33l.03,1.08c0,2.43-.68,4.38-2.04,5.85s-3.18,2.2-5.46,2.2-4.11-.73-5.47-2.2c-1.36-1.46-2.04-3.46-2.04-5.98v-.19Zm4.23.3c0,1.51.28,2.66.85,3.46.57.8,1.38,1.2,2.43,1.2s1.83-.39,2.4-1.18c.58-.79.86-2.05.86-3.78,0-1.48-.29-2.62-.86-3.43s-1.39-1.22-2.43-1.22-1.84.4-2.4,1.21-.85,2.06-.85,3.75Z"/>
    <path class="cls-2" d="m373.68,21.87c.78,0,1.42-.21,1.9-.64s.74-1,.76-1.71h3.97c0,1.07-.3,2.06-.88,2.95s-1.37,1.59-2.37,2.08c-1,.49-2.11.74-3.32.74-2.27,0-4.05-.72-5.36-2.16s-1.96-3.43-1.96-5.97v-.28c0-2.44.65-4.39,1.95-5.84s3.08-2.18,5.35-2.18c1.98,0,3.57.56,4.77,1.69s1.8,2.63,1.82,4.5h-3.97c-.02-.82-.27-1.49-.76-2.01-.49-.52-1.13-.77-1.93-.77-.99,0-1.73.36-2.23,1.08-.5.72-.75,1.89-.75,3.5v.44c0,1.63.25,2.81.75,3.52s1.25,1.07,2.27,1.07Z"/>
    <path class="cls-2" d="m382.71,5.04c0-.63.21-1.16.64-1.57.42-.41,1-.62,1.74-.62s1.3.21,1.73.62.64.93.64,1.57-.22,1.17-.65,1.58c-.44.41-1.01.62-1.72.62s-1.29-.21-1.72-.62-.65-.94-.65-1.58Zm4.5,19.95h-4.25v-15.85h4.25v15.85Z"/>
    <path class="cls-2" d="m395.76,5.25v3.9h2.71v3.11h-2.71v7.91c0,.59.11,1.01.34,1.26s.65.38,1.29.38c.47,0,.88-.03,1.25-.1v3.21c-.83.25-1.68.38-2.56.38-2.97,0-4.48-1.5-4.54-4.5v-8.54h-2.31v-3.11h2.31v-3.9h4.23Z"/>
    <path class="cls-2" d="m406.74,19l2.93-9.86h4.54l-6.37,18.31-.35.83c-.95,2.07-2.51,3.11-4.69,3.11-.62,0-1.24-.09-1.88-.28v-3.21h.64c.8.01,1.4-.11,1.79-.35.39-.24.71-.65.93-1.22l.5-1.3-5.55-15.89h4.56l2.94,9.86Z"/>
    <path class="cls-2" d="m429.29,19.82l2.94-10.68h4.42l-5.35,15.85h-4.04l-5.35-15.85h4.42l2.94,10.68Z"/>
    <path class="cls-2" d="m445.81,25.28c-2.32,0-4.22-.71-5.68-2.14s-2.19-3.33-2.19-5.7v-.41c0-1.59.31-3.02.92-4.27s1.49-2.22,2.61-2.9c1.13-.68,2.42-1.02,3.86-1.02,2.17,0,3.87.68,5.12,2.05,1.24,1.37,1.87,3.31,1.87,5.82v1.73h-10.09c.14,1.04.55,1.87,1.24,2.49.69.62,1.56.94,2.62.94,1.63,0,2.91-.59,3.82-1.77l2.08,2.33c-.63.9-1.49,1.6-2.58,2.1s-2.29.75-3.6.75Zm-.48-13.02c-.84,0-1.52.28-2.04.85-.52.57-.86,1.38-1,2.44h5.89v-.34c-.02-.94-.27-1.67-.76-2.19s-1.18-.77-2.08-.77Z"/>
    <path class="cls-2" d="m463.64,13.11c-.58-.08-1.08-.12-1.52-.12-1.6,0-2.65.54-3.15,1.63v10.37h-4.23v-15.85h4l.12,1.89c.85-1.46,2.03-2.18,3.53-2.18.47,0,.91.06,1.32.19l-.06,4.07Z"/>
    <path class="cls-2" d="m474.26,20.61c0-.52-.26-.93-.77-1.22-.51-.3-1.34-.56-2.47-.8-3.77-.79-5.65-2.39-5.65-4.8,0-1.41.58-2.58,1.75-3.52s2.69-1.41,4.58-1.41c2.01,0,3.62.47,4.83,1.42s1.81,2.18,1.81,3.69h-4.23c0-.61-.2-1.11-.59-1.5s-1-.59-1.83-.59c-.71,0-1.26.16-1.66.48s-.59.73-.59,1.23c0,.47.22.85.67,1.14s1.19.54,2.25.75,1.94.45,2.67.71c2.24.82,3.35,2.24,3.35,4.26,0,1.45-.62,2.61-1.86,3.51s-2.84,1.34-4.8,1.34c-1.33,0-2.51-.24-3.54-.71s-1.84-1.12-2.42-1.95-.88-1.72-.88-2.67h4.01c.04.75.32,1.33.83,1.73s1.21.6,2.08.6c.81,0,1.42-.15,1.84-.46.41-.31.62-.71.62-1.21Z"/>
    <path class="cls-2" d="m490.59,23.38c-1.04,1.27-2.49,1.9-4.34,1.9-1.7,0-3-.49-3.89-1.46-.89-.98-1.35-2.41-1.37-4.29v-10.39h4.23v10.25c0,1.65.75,2.48,2.26,2.48s2.42-.5,2.96-1.5v-11.23h4.25v15.85h-3.98l-.12-1.61Z"/>
    <path class="cls-2" d="m506.47,20.61c0-.52-.26-.93-.77-1.22-.51-.3-1.34-.56-2.47-.8-3.77-.79-5.65-2.39-5.65-4.8,0-1.41.58-2.58,1.75-3.52s2.69-1.41,4.58-1.41c2.01,0,3.62.47,4.83,1.42s1.81,2.18,1.81,3.69h-4.23c0-.61-.2-1.11-.59-1.5s-1-.59-1.83-.59c-.71,0-1.26.16-1.66.48s-.59.73-.59,1.23c0,.47.22.85.67,1.14s1.19.54,2.25.75,1.94.45,2.67.71c2.24.82,3.35,2.24,3.35,4.26,0,1.45-.62,2.61-1.86,3.51s-2.84,1.34-4.8,1.34c-1.33,0-2.51-.24-3.54-.71s-1.84-1.12-2.42-1.95-.88-1.72-.88-2.67h4.01c.04.75.32,1.33.83,1.73s1.21.6,2.08.6c.81,0,1.42-.15,1.84-.46.41-.31.62-.71.62-1.21Z"/>
    <path class="cls-2" d="m525.85,5.25v3.9h2.71v3.11h-2.71v7.91c0,.59.11,1.01.34,1.26s.65.38,1.29.38c.47,0,.88-.03,1.25-.1v3.21c-.83.25-1.68.38-2.56.38-2.97,0-4.48-1.5-4.54-4.5v-8.54h-2.31v-3.11h2.31v-3.9h4.23Z"/>
    <path class="cls-2" d="m530.89,5.04c0-.63.21-1.16.64-1.57.42-.41,1-.62,1.74-.62s1.3.21,1.73.62.64.93.64,1.57-.22,1.17-.65,1.58c-.44.41-1.01.62-1.72.62s-1.29-.21-1.72-.62-.65-.94-.65-1.58Zm4.5,19.95h-4.25v-15.85h4.25v15.85Z"/>
    <path class="cls-2" d="m542.84,9.14l.13,1.77c1.12-1.38,2.64-2.07,4.56-2.07,2.04,0,3.44.81,4.2,2.42,1.11-1.61,2.7-2.42,4.76-2.42,1.72,0,3,.5,3.84,1.5s1.26,2.51,1.26,4.52v10.12h-4.25v-10.11c0-.9-.18-1.56-.53-1.97s-.97-.62-1.86-.62c-1.27,0-2.15.61-2.64,1.82v10.88s-4.22,0-4.22,0v-10.09c0-.92-.18-1.58-.54-1.99s-.98-.62-1.85-.62c-1.2,0-2.07.5-2.61,1.49v11.21h-4.23v-15.85h3.97Z"/>
    <path class="cls-2" d="m572.14,25.28c-2.32,0-4.22-.71-5.68-2.14s-2.19-3.33-2.19-5.7v-.41c0-1.59.31-3.02.92-4.27s1.49-2.22,2.61-2.9c1.13-.68,2.42-1.02,3.86-1.02,2.17,0,3.87.68,5.12,2.05,1.24,1.37,1.87,3.31,1.87,5.82v1.73h-10.09c.14,1.04.55,1.87,1.24,2.49.69.62,1.56.94,2.61.94,1.63,0,2.91-.59,3.82-1.77l2.08,2.33c-.63.9-1.49,1.6-2.58,2.1s-2.29.75-3.6.75Zm-.48-13.02c-.84,0-1.52.28-2.04.85-.52.57-.86,1.38-1,2.44h5.89v-.34c-.02-.94-.27-1.67-.76-2.19s-1.18-.77-2.08-.77Z"/>
    <path class="cls-2" d="m589.69,24.99v-12.74h-2.36v-3.11h2.36v-1.35c0-1.78.51-3.16,1.53-4.14,1.02-.98,2.45-1.47,4.28-1.47.59,0,1.3.1,2.15.29l-.04,3.28c-.35-.09-.78-.13-1.29-.13-1.59,0-2.39.75-2.39,2.24v1.27h3.15v3.11h-3.15v12.74h-4.25Z"/>
    <path class="cls-2" d="m598.62,16.92c0-1.57.3-2.97.91-4.2s1.48-2.18,2.62-2.86c1.14-.67,2.46-1.01,3.96-1.01,2.14,0,3.88.65,5.24,1.96,1.35,1.31,2.11,3.09,2.26,5.33l.03,1.08c0,2.43-.68,4.38-2.04,5.85s-3.18,2.2-5.46,2.2-4.11-.73-5.47-2.2c-1.36-1.46-2.04-3.46-2.04-5.98v-.19Zm4.23.3c0,1.51.28,2.66.85,3.46.57.8,1.38,1.2,2.43,1.2s1.83-.39,2.4-1.18c.58-.79.87-2.05.87-3.78,0-1.48-.29-2.62-.87-3.43s-1.39-1.22-2.43-1.22-1.84.4-2.4,1.21-.85,2.06-.85,3.75Z"/>
    <path class="cls-2" d="m625.15,13.11c-.58-.08-1.08-.12-1.52-.12-1.6,0-2.65.54-3.15,1.63v10.37h-4.23v-15.85h4l.12,1.89c.85-1.46,2.03-2.18,3.53-2.18.47,0,.91.06,1.32.19l-.06,4.07Z"/>
    <path class="cls-2" d="m643.84,24.99c-.2-.38-.34-.85-.42-1.42-1.03,1.14-2.36,1.71-4,1.71-1.55,0-2.84-.45-3.86-1.35-1.02-.9-1.53-2.03-1.53-3.4,0-1.68.62-2.97,1.87-3.87,1.25-.9,3.04-1.35,5.4-1.36h1.95v-.91c0-.73-.19-1.32-.56-1.76-.38-.44-.97-.66-1.78-.66-.71,0-1.27.17-1.68.51-.41.34-.61.81-.61,1.41h-4.23c0-.92.28-1.77.85-2.55s1.37-1.39,2.4-1.84,2.2-.67,3.49-.67c1.95,0,3.5.49,4.65,1.47,1.15.98,1.72,2.36,1.72,4.14v6.87c0,1.5.22,2.64.63,3.41v.25h-4.28Zm-3.5-2.94c.62,0,1.2-.14,1.73-.42s.92-.65,1.17-1.12v-2.72h-1.58c-2.12,0-3.25.73-3.38,2.2v.25c-.01.53.17.96.54,1.3s.88.51,1.52.51Z"/>
    <path class="cls-2" d="m657.55,16.95c0-2.47.55-4.44,1.66-5.9,1.11-1.46,2.62-2.2,4.55-2.2,1.54,0,2.82.58,3.82,1.73V2.49h4.25v22.5h-3.82l-.21-1.68c-1.05,1.32-2.41,1.98-4.07,1.98-1.87,0-3.36-.73-4.49-2.2-1.13-1.47-1.69-3.51-1.69-6.13Zm4.23.31c0,1.49.26,2.63.78,3.42.52.79,1.27,1.19,2.26,1.19,1.31,0,2.23-.55,2.77-1.66v-6.26c-.53-1.1-1.44-1.66-2.74-1.66-2.04,0-3.06,1.66-3.06,4.97Z"/>
    <path class="cls-2" d="m684.03,13.11c-.58-.08-1.08-.12-1.52-.12-1.6,0-2.65.54-3.15,1.63v10.37h-4.23v-15.85h4l.12,1.89c.85-1.46,2.03-2.18,3.53-2.18.47,0,.91.06,1.32.19l-.06,4.07Z"/>
    <path class="cls-2" d="m684.88,16.92c0-1.57.3-2.97.91-4.2s1.48-2.18,2.62-2.86c1.14-.67,2.46-1.01,3.96-1.01,2.14,0,3.88.65,5.24,1.96,1.35,1.31,2.11,3.09,2.26,5.33l.03,1.08c0,2.43-.68,4.38-2.04,5.85s-3.18,2.2-5.46,2.2-4.11-.73-5.47-2.2c-1.36-1.46-2.04-3.46-2.04-5.98v-.19Zm4.23.3c0,1.51.28,2.66.85,3.46.57.8,1.38,1.2,2.43,1.2s1.83-.39,2.4-1.18c.58-.79.87-2.05.87-3.78,0-1.48-.29-2.62-.87-3.43s-1.39-1.22-2.43-1.22-1.84.4-2.4,1.21-.85,2.06-.85,3.75Z"/>
    <path class="cls-2" d="m716.76,17.21c0,2.44-.55,4.4-1.66,5.87-1.11,1.47-2.61,2.2-4.49,2.2-1.6,0-2.89-.56-3.88-1.67v7.47h-4.23V9.14h3.93l.15,1.55c1.03-1.23,2.36-1.85,4.01-1.85,1.95,0,3.47.72,4.56,2.17s1.62,3.44,1.62,5.98v.22Zm-4.23-.31c0-1.47-.26-2.61-.78-3.41-.52-.8-1.28-1.2-2.28-1.2-1.33,0-2.24.51-2.74,1.52v6.49c.52,1.04,1.44,1.57,2.77,1.57,2.02,0,3.03-1.66,3.03-4.97Z"/>
    <path class="cls-2" d="m733.65,17.21c0,2.44-.55,4.4-1.66,5.87-1.11,1.47-2.6,2.2-4.49,2.2-1.6,0-2.9-.56-3.88-1.67v7.47h-4.23V9.14h3.93l.15,1.55c1.03-1.23,2.36-1.85,4.01-1.85,1.95,0,3.47.72,4.55,2.17s1.63,3.44,1.63,5.98v.22Zm-4.23-.31c0-1.47-.26-2.61-.78-3.41-.52-.8-1.28-1.2-2.28-1.2-1.33,0-2.24.51-2.74,1.52v6.49c.52,1.04,1.44,1.57,2.77,1.57,2.02,0,3.03-1.66,3.03-4.97Z"/>
    <path class="cls-2" d="m743.57,25.28c-2.32,0-4.22-.71-5.68-2.14-1.46-1.43-2.19-3.33-2.19-5.7v-.41c0-1.59.31-3.02.92-4.27s1.49-2.22,2.62-2.9c1.13-.68,2.41-1.02,3.86-1.02,2.17,0,3.88.68,5.12,2.05,1.24,1.37,1.87,3.31,1.87,5.82v1.73h-10.09c.14,1.04.55,1.87,1.24,2.49.69.62,1.56.94,2.62.94,1.63,0,2.9-.59,3.82-1.77l2.08,2.33c-.63.9-1.49,1.6-2.58,2.1s-2.29.75-3.6.75Zm-.48-13.02c-.84,0-1.52.28-2.04.85-.52.57-.86,1.38-1,2.44h5.89v-.34c-.02-.94-.27-1.67-.76-2.19s-1.18-.77-2.08-.77Z"/>
    <path class="cls-2" d="m751.83,16.95c0-2.47.55-4.44,1.66-5.9,1.11-1.46,2.62-2.2,4.55-2.2,1.54,0,2.82.58,3.82,1.73V2.49h4.25v22.5h-3.82l-.21-1.68c-1.05,1.32-2.41,1.98-4.07,1.98-1.87,0-3.36-.73-4.49-2.2-1.13-1.47-1.69-3.51-1.69-6.13Zm4.23.31c0,1.49.26,2.63.78,3.42.52.79,1.27,1.19,2.26,1.19,1.31,0,2.23-.55,2.77-1.66v-6.26c-.53-1.1-1.44-1.66-2.74-1.66-2.04,0-3.06,1.66-3.06,4.97Z"/>
    <path class="cls-2" d="m785.45,20.61c0-.52-.26-.93-.77-1.22-.51-.3-1.34-.56-2.47-.8-3.77-.79-5.65-2.39-5.65-4.8,0-1.41.58-2.58,1.75-3.52,1.17-.94,2.69-1.41,4.58-1.41,2.01,0,3.62.47,4.83,1.42,1.21.95,1.81,2.18,1.81,3.69h-4.23c0-.61-.2-1.11-.59-1.5s-1-.59-1.83-.59c-.71,0-1.27.16-1.66.48s-.59.73-.59,1.23c0,.47.22.85.67,1.14.45.29,1.2.54,2.25.75s1.94.45,2.67.71c2.24.82,3.35,2.24,3.35,4.26,0,1.45-.62,2.61-1.86,3.51s-2.84,1.34-4.8,1.34c-1.33,0-2.51-.24-3.54-.71-1.03-.47-1.84-1.12-2.42-1.95s-.88-1.72-.88-2.67h4.01c.04.75.32,1.33.84,1.73s1.21.6,2.08.6c.81,0,1.42-.15,1.84-.46.41-.31.62-.71.62-1.21Z"/>
    <path class="cls-2" d="m797.36,5.25v3.9h2.71v3.11h-2.71v7.91c0,.59.11,1.01.34,1.26s.65.38,1.29.38c.47,0,.88-.03,1.24-.1v3.21c-.83.25-1.68.38-2.56.38-2.97,0-4.48-1.5-4.54-4.5v-8.54h-2.31v-3.11h2.31v-3.9h4.23Z"/>
    <path class="cls-2" d="m801.33,16.92c0-1.57.3-2.97.91-4.2s1.48-2.18,2.62-2.86c1.14-.67,2.46-1.01,3.96-1.01,2.14,0,3.88.65,5.24,1.96,1.35,1.31,2.11,3.09,2.26,5.33l.03,1.08c0,2.43-.68,4.38-2.04,5.85s-3.18,2.2-5.46,2.2-4.11-.73-5.47-2.2c-1.36-1.46-2.04-3.46-2.04-5.98v-.19Zm4.23.3c0,1.51.28,2.66.85,3.46.57.8,1.38,1.2,2.43,1.2s1.83-.39,2.4-1.18c.58-.79.87-2.05.87-3.78,0-1.48-.29-2.62-.87-3.43s-1.39-1.22-2.43-1.22-1.84.4-2.4,1.21-.85,2.06-.85,3.75Z"/>
    <path class="cls-2" d="m822.85,9.14l.13,1.83c1.13-1.42,2.65-2.12,4.55-2.12,1.68,0,2.93.49,3.75,1.48s1.24,2.46,1.26,4.42v10.24h-4.23v-10.14c0-.9-.2-1.55-.59-1.96s-1.04-.61-1.95-.61c-1.19,0-2.08.51-2.68,1.52v11.18h-4.23v-15.85h3.98Z"/>
    <path class="cls-2" d="m843.05,25.28c-2.32,0-4.22-.71-5.68-2.14-1.46-1.43-2.19-3.33-2.19-5.7v-.41c0-1.59.31-3.02.92-4.27s1.49-2.22,2.61-2.9c1.13-.68,2.42-1.02,3.86-1.02,2.17,0,3.87.68,5.12,2.05,1.24,1.37,1.87,3.31,1.87,5.82v1.73h-10.09c.14,1.04.55,1.87,1.24,2.49.69.62,1.56.94,2.62.94,1.63,0,2.91-.59,3.82-1.77l2.08,2.33c-.63.9-1.49,1.6-2.58,2.1s-2.29.75-3.6.75Zm-.48-13.02c-.84,0-1.52.28-2.04.85-.52.57-.86,1.38-1,2.44h5.89v-.34c-.02-.94-.27-1.67-.76-2.19s-1.18-.77-2.08-.77Z"/>
  </g>
  <g>
    <path d="m594.22,478.51h-14.18l.17-.67,11.16-15.22h.84l2.18,15.22-.17.67Zm-3.79-12.98l-8.09,11.18h9.6l-1.42-11.18h-.1Z"/>
    <path d="m602.23,462.76l-.54,3.07h2.31l-.29,1.68h-2.3l-1.32,7.89c-.02.2-.03.39-.01.56.05.61.39.91,1,.91.26,0,.6-.04,1.03-.12l-.16,1.77c-.51.14-1.02.21-1.55.21-.84-.02-1.48-.33-1.9-.93s-.59-1.42-.49-2.44l1.29-7.85h-2.24l.29-1.68h2.24l.54-3.07h2.11Z"/>
  </g>
  <g>
    <path d="m139.16,292.37l-12.83-3.87v-3.91l17.06,5.94v3.67l-17.06,5.92v-3.9l12.83-3.84Z"/>
    <path d="m136.46,277.07c-1.79,0-3.49-.24-5.11-.71s-3.05-1.18-4.29-2.11-2.11-1.94-2.6-3.02l1.83-.66c.84,1.14,2.15,2.03,3.91,2.67s3.83.96,6.19.96h.36c2.37,0,4.44-.32,6.21-.95s3.1-1.53,3.97-2.68l1.79.66c-.48,1.06-1.32,2.05-2.53,2.97s-2.6,1.62-4.18,2.1-3.23.74-4.95.77h-.62Z"/>
    <path d="m130.71,265.62l1.42-.11c-1.1-.9-1.65-2.11-1.65-3.64,0-1.63.64-2.75,1.93-3.36-1.29-.89-1.93-2.16-1.93-3.81,0-1.38.4-2.4,1.2-3.07s2.01-1.01,3.62-1.01h8.1v3.4h-8.09c-.72,0-1.24.14-1.58.42s-.5.78-.5,1.49c0,1.02.48,1.72,1.45,2.11h8.71s0,3.38,0,3.38h-8.07c-.73,0-1.27.14-1.59.43s-.49.78-.49,1.48c0,.96.4,1.66,1.2,2.09h8.96v3.39h-12.68v-3.18Z"/>
    <path d="m144.86,246.96v2.52l-18.53-6.28v-2.52l18.53,6.28Z"/>
    <path d="m139.89,232.19c-.41,0-.74.21-.98.62s-.45,1.07-.64,1.97c-.63,3.02-1.91,4.52-3.84,4.52-1.12,0-2.06-.47-2.82-1.4s-1.13-2.15-1.13-3.66c0-1.61.38-2.9,1.14-3.86s1.74-1.45,2.95-1.45v3.39c-.48,0-.88.16-1.2.47s-.47.8-.47,1.46c0,.57.13,1.01.39,1.32s.59.47.98.47c.38,0,.68-.18.91-.53s.43-.96.6-1.8.36-1.55.57-2.13c.66-1.79,1.79-2.68,3.41-2.68,1.16,0,2.09.5,2.81,1.49s1.07,2.27,1.07,3.84c0,1.06-.19,2.01-.57,2.83s-.9,1.47-1.56,1.94-1.37.7-2.14.7v-3.21c.6-.03,1.06-.25,1.38-.67s.48-.97.48-1.66c0-.65-.12-1.14-.37-1.47s-.57-.5-.97-.5Z"/>
    <path d="m136.73,220.88c1.77,0,3.46.25,5.1.76s3.07,1.24,4.32,2.19,2.11,1.97,2.58,3.06l-1.79.66c-.84-1.11-2.12-1.98-3.87-2.62s-3.75-.97-6.01-1h-.62c-2.34,0-4.39.32-6.18.96s-3.12,1.53-4.01,2.67l-1.79-.66c.46-1.06,1.3-2.06,2.51-3.01s2.62-1.67,4.23-2.19,3.28-.79,5-.81h.53Z"/>
    <path d="m126.16,207.11v1.66h18.6v-1.66h2.61v5.06h-23.82v-5.06h2.61Z"/>
    <path d="m136.96,206.14c-1.98,0-3.55-.44-4.72-1.33s-1.76-2.1-1.76-3.64c0-1.23.46-2.25,1.38-3.06h-6.47v-3.4h18v3.06l-1.35.16c1.05.84,1.58,1.93,1.58,3.26,0,1.49-.59,2.69-1.76,3.59s-2.81,1.35-4.9,1.35Zm.25-3.39c1.19,0,2.1-.21,2.73-.62.63-.41.95-1.02.95-1.8,0-1.05-.44-1.79-1.33-2.21h-5.01c-.88.42-1.33,1.15-1.33,2.19,0,1.63,1.33,2.45,3.98,2.45Z"/>
    <path d="m136.94,192.62c-1.26,0-2.38-.24-3.36-.73s-1.75-1.18-2.29-2.09-.81-1.97-.81-3.17c0-1.71.52-3.11,1.57-4.19s2.47-1.69,4.27-1.81l.87-.02c1.95,0,3.51.54,4.68,1.63s1.76,2.54,1.76,4.37-.59,3.29-1.76,4.38-2.77,1.63-4.78,1.63h-.15Zm.24-3.39c1.21,0,2.13-.23,2.76-.68.64-.45.96-1.1.96-1.95s-.31-1.46-.95-1.92c-.63-.46-1.64-.69-3.02-.69-1.18,0-2.1.23-2.75.69s-.97,1.11-.97,1.95.32,1.47.97,1.92,1.64.68,3,.68Z"/>
    <path d="m138.79,167.49l-8.07-1.66v-3.27l12.68,3.23v2.84l-7.98,2.4,7.98,2.4v2.82l-12.68,3.23v-3.27l8.06-1.65-8.06-2.32v-2.45l8.07-2.31Z"/>
    <path d="m130.71,157.76l1.46-.11c-1.13-.91-1.7-2.12-1.7-3.64,0-1.34.39-2.34,1.18-3s1.97-.99,3.54-1.01h8.19v3.39h-8.11c-.72,0-1.24.16-1.56.47s-.49.83-.49,1.56c0,.95.41,1.67,1.22,2.14h8.94v3.39h-12.68v-3.19Z"/>
    <path d="m123.54,148.59v-5.06h23.82v5.06h-2.61v-1.68h-18.6v1.68h-2.61Z"/>
  </g>
</svg>