<?xml version="1.0" encoding="UTF-8"?><svg id="c" xmlns="http://www.w3.org/2000/svg" width="1140" height="533" viewBox="0 0 1140 533"><line x1="269" y1="413" x2="919" y2="244" fill="none" stroke="#d12d32" stroke-miterlimit="10" stroke-width="2"/><polyline points="927.55 485.87 927.55 485.87 268.83 485.87 268.83 57.04" fill="none" stroke="#000" stroke-miterlimit="10" stroke-width="2"/><path d="m474.06,21.87c0-.83-.29-1.47-.88-1.91s-1.64-.91-3.16-1.41-2.73-.98-3.62-1.46c-2.42-1.31-3.63-3.07-3.63-5.29,0-1.15.32-2.18.97-3.08.65-.9,1.58-1.61,2.8-2.12,1.22-.51,2.58-.76,4.09-.76s2.88.28,4.07.83,2.12,1.33,2.78,2.34c.66,1.01.99,2.15.99,3.43h-4.39c0-.98-.31-1.74-.92-2.28s-1.48-.81-2.59-.81-1.91.23-2.5.68-.89,1.05-.89,1.79c0,.69.35,1.27,1.05,1.74s1.73.91,3.08,1.32c2.5.75,4.32,1.68,5.46,2.8s1.71,2.5,1.71,4.16c0,1.85-.7,3.29-2.09,4.34s-3.28,1.57-5.64,1.57c-1.64,0-3.13-.3-4.48-.9s-2.38-1.42-3.08-2.47-1.06-2.26-1.06-3.63h4.41c0,2.35,1.41,3.53,4.22,3.53,1.04,0,1.86-.21,2.45-.64s.88-1.02.88-1.78Z" fill="#231e20"/><path d="m495.43,19.69c0,2.44-.55,4.4-1.66,5.87s-2.6,2.2-4.49,2.2c-1.6,0-2.9-.56-3.88-1.67v7.47h-4.23V11.62h3.93l.15,1.55c1.03-1.23,2.36-1.85,4.01-1.85,1.95,0,3.47.72,4.56,2.17s1.63,3.44,1.63,5.98v.22Zm-4.23-.31c0-1.47-.26-2.61-.78-3.41-.52-.8-1.28-1.2-2.28-1.2-1.33,0-2.24.51-2.74,1.52v6.49c.52,1.04,1.44,1.57,2.77,1.57,2.02,0,3.03-1.66,3.03-4.97Z" fill="#231e20"/><path d="m505.35,27.76c-2.32,0-4.22-.71-5.68-2.14s-2.19-3.33-2.19-5.7v-.41c0-1.59.31-3.02.92-4.27s1.49-2.22,2.61-2.9c1.13-.68,2.42-1.02,3.86-1.02,2.17,0,3.87.68,5.12,2.05,1.24,1.37,1.87,3.31,1.87,5.82v1.73h-10.09c.14,1.04.55,1.87,1.24,2.49.69.62,1.56.94,2.62.94,1.63,0,2.91-.59,3.82-1.77l2.08,2.33c-.63.9-1.49,1.6-2.58,2.1s-2.29.75-3.6.75Zm-.48-13.02c-.84,0-1.52.28-2.04.85-.52.57-.86,1.38-1,2.44h5.89v-.34c-.02-.94-.27-1.67-.76-2.19s-1.18-.77-2.08-.77Z" fill="#231e20"/><path d="m521.56,27.76c-2.32,0-4.22-.71-5.68-2.14s-2.19-3.33-2.19-5.7v-.41c0-1.59.31-3.02.92-4.27s1.49-2.22,2.61-2.9c1.13-.68,2.42-1.02,3.86-1.02,2.17,0,3.87.68,5.12,2.05,1.24,1.37,1.87,3.31,1.87,5.82v1.73h-10.09c.14,1.04.55,1.87,1.24,2.49.69.62,1.56.94,2.62.94,1.63,0,2.91-.59,3.82-1.77l2.08,2.33c-.63.9-1.49,1.6-2.58,2.1s-2.29.75-3.6.75Zm-.48-13.02c-.84,0-1.52.28-2.04.85-.52.57-.86,1.38-1,2.44h5.89v-.34c-.02-.94-.27-1.67-.76-2.19s-1.18-.77-2.08-.77Z" fill="#231e20"/><path d="m529.82,19.42c0-2.47.55-4.44,1.66-5.9s2.62-2.2,4.55-2.2c1.54,0,2.82.58,3.82,1.73V4.96h4.25v22.5h-3.82l-.21-1.68c-1.05,1.32-2.41,1.98-4.07,1.98-1.87,0-3.36-.73-4.49-2.2-1.13-1.47-1.69-3.51-1.69-6.13Zm4.23.31c0,1.49.26,2.63.78,3.42.52.79,1.27,1.19,2.26,1.19,1.31,0,2.23-.55,2.77-1.66v-6.26c-.53-1.1-1.44-1.66-2.74-1.66-2.04,0-3.06,1.66-3.06,4.97Z" fill="#231e20"/><path d="m563.02,22.18l4.83-16.04h4.89l-7.43,21.33h-4.58l-7.4-21.33h4.88l4.8,16.04Z" fill="#231e20"/><path d="m581.12,27.76c-2.32,0-4.22-.71-5.68-2.14s-2.19-3.33-2.19-5.7v-.41c0-1.59.31-3.02.92-4.27s1.49-2.22,2.61-2.9c1.13-.68,2.42-1.02,3.86-1.02,2.17,0,3.87.68,5.12,2.05,1.24,1.37,1.87,3.31,1.87,5.82v1.73h-10.09c.14,1.04.55,1.87,1.24,2.49.69.62,1.56.94,2.62.94,1.63,0,2.91-.59,3.82-1.77l2.08,2.33c-.63.9-1.49,1.6-2.58,2.1s-2.29.75-3.6.75Zm-.48-13.02c-.84,0-1.52.28-2.04.85-.52.57-.86,1.38-1,2.44h5.89v-.34c-.02-.94-.27-1.67-.76-2.19s-1.18-.77-2.08-.77Z" fill="#231e20"/><path d="m598.95,15.58c-.58-.08-1.08-.12-1.52-.12-1.6,0-2.65.54-3.15,1.63v10.37h-4.23v-15.85h4l.12,1.89c.85-1.46,2.03-2.18,3.53-2.18.47,0,.91.06,1.32.19l-.06,4.07Z" fill="#231e20"/><path d="m609.57,23.08c0-.52-.26-.93-.77-1.22-.51-.3-1.34-.56-2.47-.8-3.77-.79-5.65-2.39-5.65-4.8,0-1.41.58-2.58,1.75-3.52s2.69-1.41,4.58-1.41c2.01,0,3.62.47,4.83,1.42s1.81,2.18,1.81,3.69h-4.23c0-.61-.2-1.11-.59-1.5s-1-.59-1.83-.59c-.71,0-1.26.16-1.66.48s-.59.73-.59,1.23c0,.47.22.85.67,1.14s1.19.54,2.25.75,1.94.45,2.67.71c2.24.82,3.35,2.24,3.35,4.26,0,1.45-.62,2.61-1.86,3.51s-2.84,1.34-4.8,1.34c-1.33,0-2.51-.24-3.54-.71s-1.84-1.12-2.42-1.95-.88-1.72-.88-2.67h4.01c.04.75.32,1.33.83,1.73s1.21.6,2.08.6c.81,0,1.42-.15,1.84-.46.41-.31.62-.71.62-1.21Z" fill="#231e20"/><path d="m625.9,25.85c-1.04,1.27-2.49,1.9-4.34,1.9-1.7,0-3-.49-3.89-1.46-.89-.98-1.35-2.41-1.37-4.29v-10.39h4.23v10.25c0,1.65.75,2.48,2.26,2.48s2.42-.5,2.96-1.5v-11.23h4.25v15.85h-3.98l-.12-1.61Z" fill="#231e20"/><path d="m641.78,23.08c0-.52-.26-.93-.77-1.22-.51-.3-1.34-.56-2.47-.8-3.77-.79-5.65-2.39-5.65-4.8,0-1.41.58-2.58,1.75-3.52s2.69-1.41,4.58-1.41c2.01,0,3.62.47,4.83,1.42s1.81,2.18,1.81,3.69h-4.23c0-.61-.2-1.11-.59-1.5s-1-.59-1.83-.59c-.71,0-1.26.16-1.66.48s-.59.73-.59,1.23c0,.47.22.85.67,1.14s1.19.54,2.25.75,1.94.45,2.67.71c2.24.82,3.35,2.24,3.35,4.26,0,1.45-.62,2.61-1.86,3.51s-2.84,1.34-4.8,1.34c-1.33,0-2.51-.24-3.54-.71s-1.84-1.12-2.42-1.95-.88-1.72-.88-2.67h4.01c.04.75.32,1.33.83,1.73s1.21.6,2.08.6c.81,0,1.42-.15,1.84-.46.41-.31.62-.71.62-1.21Z" fill="#231e20"/><path d="m671.55,9.7h-6.53v17.77h-4.39V9.7h-6.45v-3.56h17.37v3.56Z" fill="#231e20"/><path d="m673.74,7.51c0-.63.21-1.16.64-1.57.42-.41,1-.62,1.74-.62s1.3.21,1.73.62.64.93.64,1.57-.22,1.17-.65,1.58c-.44.41-1.01.62-1.72.62s-1.29-.21-1.72-.62-.65-.94-.65-1.58Zm4.5,19.95h-4.25v-15.85h4.25v15.85Z" fill="#231e20"/><path d="m685.7,11.62l.13,1.77c1.12-1.38,2.64-2.07,4.56-2.07,2.04,0,3.44.81,4.2,2.42,1.11-1.61,2.7-2.42,4.76-2.42,1.72,0,3,.5,3.84,1.5s1.26,2.51,1.26,4.52v10.12h-4.25v-10.11c0-.9-.18-1.56-.53-1.97s-.97-.62-1.86-.62c-1.27,0-2.15.61-2.64,1.82v10.88s-4.22,0-4.22,0v-10.09c0-.92-.18-1.58-.54-1.99s-.98-.62-1.85-.62c-1.2,0-2.07.5-2.61,1.49v11.21h-4.23v-15.85h3.97Z" fill="#231e20"/><path d="m714.99,27.76c-2.32,0-4.22-.71-5.68-2.14s-2.19-3.33-2.19-5.7v-.41c0-1.59.31-3.02.92-4.27s1.49-2.22,2.61-2.9c1.13-.68,2.42-1.02,3.86-1.02,2.17,0,3.87.68,5.12,2.05,1.24,1.37,1.87,3.31,1.87,5.82v1.73h-10.09c.14,1.04.55,1.87,1.24,2.49.69.62,1.56.94,2.62.94,1.63,0,2.91-.59,3.82-1.77l2.08,2.33c-.63.9-1.49,1.6-2.58,2.1s-2.29.75-3.6.75Zm-.48-13.02c-.84,0-1.52.28-2.04.85-.52.57-.86,1.38-1,2.44h5.89v-.34c-.02-.94-.27-1.67-.76-2.19s-1.18-.77-2.08-.77Z" fill="#231e20"/><path d="m585.58,509.77h-5.23v14.21h-3.52v-14.21h-5.16v-2.85h13.9v2.85Z"/><path d="m587.34,508.03c0-.51.17-.93.51-1.25s.8-.49,1.39-.49,1.04.16,1.38.49.52.75.52,1.25-.17.94-.52,1.27-.81.49-1.38.49-1.03-.16-1.38-.49-.52-.75-.52-1.27Zm3.6,15.96h-3.4v-12.68h3.4v12.68Z"/><path d="m596.9,511.31l.11,1.42c.9-1.1,2.11-1.65,3.64-1.65,1.63,0,2.75.64,3.36,1.93.89-1.29,2.16-1.93,3.81-1.93,1.38,0,2.4.4,3.07,1.2s1.01,2.01,1.01,3.62v8.1h-3.4v-8.09c0-.72-.14-1.24-.42-1.58s-.78-.5-1.49-.5c-1.02,0-1.72.48-2.11,1.45v8.71s-3.38,0-3.38,0v-8.07c0-.73-.14-1.27-.43-1.59s-.78-.49-1.48-.49c-.96,0-1.66.4-2.09,1.2v8.96h-3.39v-12.68h3.18Z"/><path d="m620.34,524.22c-1.86,0-3.37-.57-4.54-1.71s-1.75-2.66-1.75-4.56v-.33c0-1.27.25-2.41.74-3.42s1.19-1.78,2.09-2.32,1.93-.81,3.09-.81c1.73,0,3.1.55,4.1,1.64s1.49,2.64,1.49,4.65v1.38h-8.07c.11.83.44,1.49.99,1.99s1.25.75,2.09.75c1.3,0,2.32-.47,3.06-1.42l1.66,1.86c-.51.72-1.2,1.28-2.06,1.68s-1.83.6-2.88.6Zm-.39-10.42c-.67,0-1.22.23-1.63.68s-.69,1.11-.8,1.95h4.71v-.27c-.02-.75-.22-1.34-.61-1.75s-.95-.62-1.66-.62Z"/><path d="m229.87,291.9c-.66,0-1.17.23-1.53.7s-.73,1.31-1.12,2.53-.78,2.18-1.17,2.89c-1.05,1.94-2.46,2.91-4.23,2.91-.92,0-1.74-.26-2.47-.78s-1.29-1.27-1.69-2.24-.61-2.06-.61-3.28.22-2.3.66-3.26,1.06-1.69,1.87-2.22,1.72-.79,2.74-.79v3.52c-.78,0-1.39.25-1.82.74s-.65,1.18-.65,2.07.18,1.53.54,2,.84.71,1.44.71c.55,0,1.02-.28,1.39-.84s.73-1.38,1.05-2.47c.6-2,1.35-3.46,2.24-4.37s2-1.37,3.33-1.37c1.48,0,2.63.56,3.47,1.68s1.26,2.62,1.26,4.51c0,1.31-.24,2.51-.72,3.59s-1.14,1.9-1.97,2.47-1.8.85-2.91.85v-3.53c1.88,0,2.82-1.12,2.82-3.38,0-.84-.17-1.49-.51-1.96s-.81-.7-1.42-.7Z"/><path d="m228.12,274.8c1.95,0,3.52.44,4.69,1.33s1.76,2.08,1.76,3.59c0,1.28-.45,2.32-1.34,3.11h5.98v3.39h-17.55v-3.14l1.24-.12c-.98-.82-1.48-1.89-1.48-3.21,0-1.56.58-2.78,1.73-3.64s2.75-1.3,4.78-1.3h.18Zm-.25,3.39c-1.18,0-2.09.21-2.73.63s-.96,1.03-.96,1.82c0,1.06.41,1.79,1.22,2.19h5.19c.84-.41,1.25-1.15,1.25-2.21,0-1.62-1.32-2.43-3.97-2.43Z"/><path d="m234.58,266.87c0,1.86-.57,3.37-1.71,4.54s-2.66,1.75-4.56,1.75h-.33c-1.27,0-2.41-.25-3.42-.74s-1.78-1.19-2.32-2.09-.81-1.93-.81-3.09c0-1.73.55-3.1,1.64-4.1s2.64-1.49,4.65-1.49h1.38v8.07c.83-.11,1.49-.44,1.99-.99s.75-1.25.75-2.09c0-1.3-.47-2.32-1.42-3.06l1.86-1.66c.72.51,1.28,1.2,1.68,2.06s.6,1.83.6,2.88Zm-10.42.39c0,.67.23,1.22.68,1.63s1.11.69,1.95.8v-4.71h-.27c-.75.02-1.34.22-1.75.61s-.62.95-.62,1.66Z"/><path d="m234.58,253.9c0,1.86-.57,3.37-1.71,4.54s-2.66,1.75-4.56,1.75h-.33c-1.27,0-2.41-.25-3.42-.74s-1.78-1.19-2.32-2.09-.81-1.93-.81-3.09c0-1.73.55-3.1,1.64-4.1s2.64-1.49,4.65-1.49h1.38v8.07c.83-.11,1.49-.44,1.99-.99s.75-1.25.75-2.09c0-1.3-.47-2.32-1.42-3.06l1.86-1.66c.72.51,1.28,1.2,1.68,2.06s.6,1.83.6,2.88Zm-10.42.39c0,.67.23,1.22.68,1.63s1.11.69,1.95.8v-4.71h-.27c-.75.02-1.34.22-1.75.61s-.62.95-.62,1.66Z"/><path d="m227.91,247.29c-1.98,0-3.55-.44-4.72-1.33s-1.76-2.1-1.76-3.64c0-1.23.46-2.25,1.38-3.06h-6.47v-3.4h18v3.06l-1.35.16c1.05.84,1.58,1.93,1.58,3.26,0,1.49-.59,2.69-1.76,3.59s-2.81,1.35-4.9,1.35Zm.25-3.39c1.19,0,2.1-.21,2.73-.62.63-.41.95-1.02.95-1.8,0-1.05-.44-1.79-1.33-2.21h-5.01c-.88.42-1.33,1.15-1.33,2.19,0,1.63,1.33,2.45,3.98,2.45Z"/></svg>