<?xml version="1.0" encoding="UTF-8"?>
<svg id="Layer_1" data-name="Layer 1" xmlns="http://www.w3.org/2000/svg" xmlns:xlink="http://www.w3.org/1999/xlink" viewBox="0 0 1140 640">
  <defs>
    <style>
      .cls-1, .cls-2, .cls-3, .cls-4, .cls-5, .cls-6 {
        fill: none;
      }

      .cls-7 {
        clip-path: url(#clippath);
      }

      .cls-8 {
        fill: #f8b89e;
      }

      .cls-9 {
        fill: #fad9d0;
      }

      .cls-10 {
        fill: #006014;
      }

      .cls-11 {
        fill: #001415;
      }

      .cls-12 {
        fill: #e88c64;
      }

      .cls-13 {
        fill: #f4f4f4;
      }

      .cls-14 {
        fill: #e4ae94;
      }

      .cls-15 {
        fill: #fffffc;
      }

      .cls-16 {
        fill: #e69b81;
      }

      .cls-17 {
        fill: #933;
      }

      .cls-18 {
        fill: #b57272;
      }

      .cls-19 {
        fill: #303535;
      }

      .cls-20 {
        fill: #a56f56;
      }

      .cls-21 {
        fill: #c4b5b5;
      }

      .cls-22 {
        fill: #d4f0ed;
      }

      .cls-23 {
        fill: #c67e5e;
      }

      .cls-24 {
        fill: #126c84;
      }

      .cls-25 {
        fill: #1c0c06;
      }

      .cls-26 {
        fill: #820312;
      }

      .cls-27 {
        fill: #2b0d0d;
      }

      .cls-28 {
        fill: #62ac73;
      }

      .cls-29 {
        fill: #492f2e;
      }

      .cls-30 {
        fill: #3a1316;
      }

      .cls-31 {
        fill: #513428;
      }

      .cls-32 {
        fill: #7abb84;
      }

      .cls-2 {
        stroke: #006014;
        stroke-linejoin: round;
      }

      .cls-2, .cls-3 {
        stroke-linecap: round;
      }

      .cls-2, .cls-3, .cls-4, .cls-5 {
        stroke-width: 2px;
      }

      .cls-3 {
        stroke: #fff;
      }

      .cls-3, .cls-4, .cls-5, .cls-6 {
        stroke-miterlimit: 10;
      }

      .cls-4 {
        stroke: #f8b89e;
      }

      .cls-5 {
        stroke: #820312;
      }

      .cls-6 {
        stroke: #933;
      }
    </style>
    <clipPath id="clippath">
      <path class="cls-1" d="m1125.39,310.537c6.104,54.469-1.636,110.494-23.483,162.265-29.92,70.896-106.927,128.427-197.863,146.549-102.402,20.406-207.668-7.188-312.461-6.934-70.198.17-137.715,14.679-207.302,18.91-126.709,7.703-291.137-10.094-347.481-126.354-26.834-55.37-31.145-118.143-26.949-177.535,5.589-79.125,54.069-184.927,129.383-239.544C264.663-3.068,460.944,5.006,621.125,3.31c111.849-1.184,250.399,11.8,342.549,64.825,86.107,49.549,140.224,130.527,157.229,213.909,1.926,9.44,3.419,18.946,4.488,28.493Z"/>
    </clipPath>
  </defs>
  <g id="eng4c_02.02.14">
    <g class="cls-7">
      <rect class="cls-9" x="-25.208" y="-45.916" width="1165.208" height="707.697"/>
      <g>
        <rect class="cls-13" x="-119.462" y="50.9" width="327.727" height="274.351" transform="translate(88.803 376.152) rotate(-180)"/>
        <rect class="cls-22" x="-86.369" y="53.035" width="277.554" height="256.204" transform="translate(104.815 362.274) rotate(-180)"/>
        <line class="cls-3" x1="106.851" y1="274.547" x2="1.64" y2="169.336"/>
        <line class="cls-3" x1="67.116" y1="265.236" x2="1.189" y2="199.309"/>
        <g>
          <path class="cls-8" d="m61.613,32.257s54.548,135.476,74.973,159.043c-1.148,14.987-11.246,126.976-7.001,163.26,2.108,18.018,36.145,26.136,36.145,26.136,0,0,11.933,29.374,50.487,22.031,2.831-.539,5.508-372.686,5.508-372.686l-160.112,2.215Z"/>
          <path class="cls-16" d="m161.045,67.652c4.532,17.791,8.206,44.135,11.591,62.438,0,0,5.141,31.329,5.141,31.329,1.678,10.449,3.504,20.873,4.361,31.46l-.29.049c-4.471-17.804-8.225-44.134-11.591-62.438,0,0-5.151-31.327-5.151-31.327-1.654-10.453-3.565-20.863-4.351-31.462l.29-.049h0Z"/>
          <path class="cls-16" d="m171.09,202.62c1.689,19.296,1.189,47.362,1.666,66.997,0,0,.17,33.505.17,33.505.021,11.169.191,22.336-.622,33.512l-.294.003c-1.627-19.299-1.209-47.364-1.666-66.997,0,0-.18-33.505-.18-33.505.004-11.169-.253-22.335.632-33.512l.294-.003h0Z"/>
          <path class="cls-16" d="m104.125,44.678c9.178,20.812,19.793,52.148,27.996,73.726,6.259,17.715,17.403,47.48,23.102,65.018,1.03,3.122,1.991,6.268,2.906,9.432l-.276.101c-1.335-3.011-2.624-6.038-3.844-9.09-6.866-16.944-17.587-47.162-24.151-64.636-4.624-12.919-15.586-43.097-20.009-55.654-2.147-6.217-4.201-12.464-5.999-18.796,0,0,.276-.101.276-.101h0Z"/>
          <rect class="cls-9" x="134.279" y="188.846" width="89.282" height="12.392" transform="translate(357.84 390.083) rotate(-180)"/>
          <path class="cls-16" d="m196.169,267.789c1.514,15.999.761,39.253,1.059,55.536,0,0-.134,27.768-.134,27.768-.081,9.256-.011,18.512-.925,27.768h-.294c-1.452-16.002-.78-39.256-1.059-55.536,0,0,.124-27.768.124-27.768.105-9.256-.05-18.512.935-27.768h.294Z"/>
        </g>
      </g>
      <rect class="cls-21" x="29.62" y="498.735" width="1136.186" height="163.046"/>
      <g>
        <ellipse class="cls-23" cx="1033.747" cy="413.818" rx="54.809" ry="6.771"/>
        <path class="cls-20" d="m980.719,331.239c2.727,8.226,2.527,19.06,7.17,26.688,2.454,4.032,7.806,7.471,11.106,10.934,3.918,4.112,13.784,10.83,15.886,16.645,3.102,8.581-4.225,22.384-4.404,31.396,8.955-.056,13.274,4.523,16.668-4.722,2.905-7.912,2.732-17.495,5.3-25.646,2.085-6.619,5.599-12.693,7.995-19.275-6.063-6.084-13.819,13.014-15.372,17.418-7.96-6.03-13.019-17.701-20.167-25.09-8.844-9.143-7.681-18.865-10.74-31.518-4.067,1.297-9.742,1.831-13.441,3.17Z"/>
        <path class="cls-20" d="m1039.397,417.644c.42-10.92,8.45-24.467,14.055-33.445,3.953-6.331,7.09-10.243,1.79-16.903-2.764-3.473-6.193-6.392-9.003-10.067-3.502-4.579-4.802-8.643-7.842-13.386-3.681-5.743-10.011-9.745-12.391-16.323-1.866-5.155-4.164-20.385-.81-25.448,8.542,12.326,12.82,28.657,21.561,41.593,5.47,8.094,11.364,16.576,21.154,19.599,3.121-16.277-.661-33.138,4.773-49.462,2.037-6.12,6.333-17.101,11.739-20.554.93,6.126-2.627,13.344-3.271,19.552-1.39,13.387-1.885,26.893-1.273,40.284.696,15.243-4.605,19.511-12.303,31.744-6.16,9.788-5.08,16.553-6.253,27.776-1.273,12.182-12.793,4.813-21.924,5.039Z"/>
        <path class="cls-28" d="m996.194,148.757c-1.611-7.578-7.49-19.508-16.591-12.422-7.509,5.845-7.544,17.618-9.299,25.897-6.045-2.245-16.83-11.877-22.726-4.99-1.591,1.858-.03,5.381-1.78,6.876-1.952,1.668-6.533.408-8.783.726-3.592.508-9.262,1.484-11.154,5.323-1.737,3.525,1.535,7.656-.422,10.987-2.497,4.25-12.534,5.84-16.545,9.229-9.881,8.35-1.701,10.645,5.545,16.289,3.208,2.499,5.937,6.662,6.844,10.826.475,2.181-.571,4.677.2,6.772,1.728,4.691,8.966,9.219,13.412,11.046-1.003,7.739-5.517,23.956-14.622,23.894-5.332-.037-14.831-7.203-16.48.894-.965,4.74,4.48,12.383,6.394,16.34-6.68,2.105-14.19,1.857-20.199,4.695-6.603,3.118-17.621,6.949-21.054,13.801-6.051,12.078,6.688,10.66,11.038,16.281,2.161,2.793.337,5.03.897,8.324.449,2.637,2.296,4.787,2.423,7.677,3.922-1.826,12.092-7.584,16.666-4.118,4.692,3.556,1.795,13.437,4.885,18.119,6.234,9.444,13.057-.081,17.839-5.252,4.207,14.135,9.09,23.085,21.186,31.986,2.492-14.146.074-24.913-3.82-38.534,2.09,14.012,8.863,22.09,22.188,26.65,14.122,4.833,19.132-4.715,23.531-17.082,4.966,1.089,10.306,5.144,15.411,5.149,4.827.005,8.916-4.085,13.554-5.266,2.898,7.638,5.868,14.118,14.293,10.846,5.238-2.034,13.307-8.424,17.359-12.555,2.597-2.648,3.833-7.828,7.798-7.939,3.214-.09,7.518,6.024,11.14,7.183,5.646,1.807,9.906-.948,15.333-1.237,1.297,10.553,10.75,21.09,20.627,24.307,2.695-5.735,1.907-14.865.582-21.064,6.762-.443,15.368,3.33,18.981-2.796,3.199-5.424-1.13-13.838.528-18.936,2.384-7.332,9.699-5.163,14.928-9.431,5.585-4.558,5.88-10.549,4.617-16.733,4.571.262,14.117,1.141,17.296-3.038,4.316-5.673-2.874-16.99.208-23.238.645-1.308,4.009-2.395,5.178-4.243,2.561-4.049,1.86-12.17,1.209-16.592-.872-5.923-1.89-8.137-6.11-11.482-7.745-6.14-17.744-4.797-26.565-2.423-8.63,2.323-10.159,4.899-12.867-4.719-2.11-7.496-2.119-14.732-12.271-14.916-7.926-.144-15.834,6.843-23.755,3.9-.666-10.372,1.157-13.173-8.998-9.699-2.651.907-6.486,2.967-8.905,1.48-1.835-1.128-2.65-8.759-5.045-10.84-1.581-1.373-3.052-1.927-5.009-2.634-8.26-2.984-21.197,4.068-28.576-.844-6.246-4.158.225-9.819-1.888-15.353-2.676-7.009-22.067-9.011-28.147-9.164.511-5.89,1.865-11.881-.481-17.956Z"/>
        <path class="cls-32" d="m919.462,288.681c-3.343-11.163-51.708-44.228-53.792-31.24-.86,5.361,11.336,16.239,14.075,19.08,4.549,4.719,8.563,7.825,14.73,10.094,2.921,1.075,6.379,2.175,9.366,2.708-11.284-.194-43.743-2.333-43.628,16.683,14.4-.862,25.535-15.2,39.185-16.593-3.517,10.209-14.737,17.377-17.313,29.559-.646,3.056-2.04,15.835.609,18.806,6.249,7.008,26.283-31.689,26.475-39.912-.072,4.498-3.1,33.822,7.122,29.126,6.19-2.844,5.813-21.065,3.879-25.975,12.383,9.098,25.473,9.149,39.905,13.243-4.821-15.973-23.452-22.571-38.744-18.55-1.02-2.079-2.029-4.319-1.87-7.029Z"/>
        <path class="cls-32" d="m940.096,195.184c.199-9.878-8.71-26.648-14.461-35.051-4.058-5.929-12.855-12.822-19.711-14.657-.857,12.947,7.91,31.023,16.552,40.011,5.078,5.281,10.766,7.354,17.62,9.697Z"/>
        <path class="cls-32" d="m992.326,265.468c-.403-2.621-2.03-2.854-3.17-5.126-2.044-4.074-3.18-8.113-3.955-12.748-1.71-10.221-2.11-22.478.805-32.436,8.208,13.461,12.092,34.376,6.32,50.311Z"/>
        <path class="cls-32" d="m938.161,195.828c-14.651-7.447-55.05,7.138-51.738,27.009,15.654-1.431,35.262-7.699,47.705-17.799-7.424,8.792-23.961,29.084-14.175,41.219,17.914-7.024,25.906-31.137,18.208-50.429Z"/>
        <path class="cls-32" d="m994.26,264.823c.281-17.389,10.951-37.477,29.673-41.13-1.485,10.267-12.491,24.136-20.317,30.857-3.119,2.679-7.248,3.591-9.356,10.273Z"/>
        <path class="cls-32" d="m1059.386,298.354c-18.959-.268-46.569,21.138-43.775,42.519,14.543-6.325,35.587-18.707,39.937-35.315.142,9.628-3.411,19.13-.478,28.446,1.625,5.161,4.593,8.541,7.415,12.562,2.836-17.202,2.034-31.322-3.099-48.212Z"/>
        <path class="cls-32" d="m980.074,171.326c7.093-17.062,12.088-52,37.957-50.95,2.048,14.022-26.077,38.219-37.957,50.95Z"/>
        <path class="cls-32" d="m988.457,170.681c9.363-3.432,16.883-11.917,26.962-14.119,8.517-1.861,17.052-.963,25.123,1.841-2.292,8.257-22.163,13.402-30.907,13.511-7.045.088-15.211-2.524-21.177-1.233Z"/>
        <path class="cls-32" d="m1100.009,302.867c-1.834,16.157,20.678,33.573,34.913,36.181,3.158-16.593-8.034-35.66-24.228-41.974-9.047-3.527-12.998.944-10.685,5.793Z"/>
        <path class="cls-32" d="m1139.988,294.485c-6.274-4.926-15.716-7.044-23.214-3.971,3.9,9.365,22.412,23.526,33.51,23.243.498-7.685-5.487-15.988-11.586-19.917"/>
        <path class="cls-32" d="m1053.583,226.779c.825-14.41-7.519-33.054,7.123-43.873,4.132,6.802,3.044,28.543-3.15,35.296,3.924-4.096,15.95-27.574,23.823-25.05,6.839,2.193-.858,15.57-3.321,19.526-5.99,9.621-16.782,12.549-24.475,14.101Z"/>
        <path class="cls-32" d="m1157.377,253.397c.248-22.201-31.37-19.729-45.748-22.559,4.28,6.749,14.105,12.255,21.125,15.821,3.948,2.006,15.463,2.559,17.326,5.591,2.034,3.31-1.669,16.441-1.967,19.468-1.094,11.141,2.537,15.826,9.711,22.919,6.367-8.302,10.012-24.824,5.011-34.292,3.532,8.066,18.093,20.939,28.245,18.832-.903-8.793-9.952-20.045-19.308-20.813,10.336,1.564,20.456,4.508,30.858,5.589,3.791-10.655-11.607-15.844-19.421-16.123-6.529-.233-9.834,2.695-14.612,6.067,6.724-12.761-.302-28.972-6.571-40.981-2.022,11.647-6.933,25.954-4.65,40.482Z"/>
        <path class="cls-14" d="m980.251,412.062c-1.599-.009-2.775,1.496-2.379,3.046l22.406,87.632c.063,13.018,69.015,12.686,68.952-.332l20.406-86.736c.359-1.527-.794-2.991-2.362-3-.035,6.089-107.057,5.48-107.022-.609Z"/>
        <path class="cls-23" d="m985.341,426.776c3.507,2.052,7.873,2.064,11.814,2.753,12.289,1.586,24.723,1.987,37.114,2.069,14.422.005,28.965-.22,43.172-2.836,1.98-.439,4.028-.852,5.702-1.993l.204.212c-.713.824-1.668,1.372-2.611,1.861-6.713,3.081-14.271,3.538-21.508,4.26-16.623,1.308-33.315,1.189-49.927-.19-6.227-.596-12.531-1.143-18.566-2.95-1.989-.695-4.167-1.331-5.61-2.987,0,0,.217-.198.217-.198h0Z"/>
        <path class="cls-23" d="m999.536,493.847c2.299,1.761,5.342,2.068,8.105,2.7,2.86.538,5.77.939,8.697,1.197,5.856.516,11.756.707,17.652.669,10.253-.099,20.628-.512,30.618-2.913,1.395-.365,2.796-.772,3.93-1.657l.228.185c-.885,1.332-2.342,2.099-3.71,2.72-4.153,1.819-8.734,2.421-13.18,2.993-11.88,1.377-23.87,1.467-35.762.156-5.138-.767-13.569-1.356-16.813-5.873,0,0,.235-.177.235-.177h0Z"/>
      </g>
    </g>
    <rect class="cls-4" x="307.778" y="72.498" width="181.27" height="210.766"/>
    <rect class="cls-4" x="331.986" y="100.644" width="132.856" height="154.473"/>
    <rect class="cls-4" x="508.686" y="91.845" width="68.148" height="69.848"/>
    <rect class="cls-4" x="525.848" y="109.435" width="33.824" height="34.668"/>
    <rect class="cls-4" x="508.686" y="186.824" width="68.148" height="69.848"/>
    <rect class="cls-4" x="525.848" y="204.414" width="33.824" height="34.668"/>
  </g>
  <g>
    <g>
      <line class="cls-5" x1="264.341" y1="509.975" x2="264.341" y2="592.21"/>
      <polygon class="cls-26" points="256.363 589.875 264.341 603.691 272.319 589.875 256.363 589.875"/>
    </g>
    <g>
      <line class="cls-2" x1="264.341" y1="489.091" x2="264.341" y2="406.857"/>
      <polygon class="cls-10" points="272.319 409.191 264.341 395.375 256.363 409.191 272.319 409.191"/>
    </g>
    <g>
      <path d="m446.919,444.472h-7.776l.162-.81c.63,0,1.129-.055,1.499-.162.369-.108.666-.328.891-.662.225-.333.4-.832.526-1.498l2.403-11.557c.126-.629.162-1.102.108-1.417-.054-.314-.252-.53-.594-.648-.342-.116-.882-.175-1.62-.175l.162-.811h13.932l-.729,4.401h-.81c.018-.864-.032-1.539-.148-2.025-.118-.485-.428-.827-.932-1.025-.504-.198-1.341-.297-2.511-.297h-4.05l-2.808,13.823c-.036.181-.063.347-.081.5s-.027.293-.027.418c0,.469.216.774.648.918.432.145,1.062.217,1.89.217l-.135.81Zm4.995-6.048h-.891c.144-.773.18-1.341.108-1.701-.072-.359-.302-.599-.688-.716-.388-.116-.968-.175-1.742-.175h-3.186l.189-1.026h3.267c.773,0,1.372-.071,1.795-.216.423-.144.747-.409.972-.797.225-.387.409-.94.553-1.66h.864l-1.242,6.291Z"/>
      <path d="m458.525,453.464h-3.621l.094-.473c.41,0,.724-.044.945-.134.22-.089.388-.27.503-.543.116-.272.226-.671.331-1.196l1.464-7.099,1.102,1.117h-.567l-1.228,5.981c-.105.525-.147.921-.126,1.188s.128.449.323.543c.194.095.485.142.874.142l-.094.473Zm5.478.126h-.52l-4.753-8.673-.362-.284c-.157-.283-.299-.501-.425-.653-.126-.151-.271-.254-.433-.307s-.375-.078-.637-.078l.094-.473h2.471l4.25,7.744h.079l1.086-5.241c.105-.535.152-.95.142-1.244-.01-.293-.11-.498-.299-.613s-.504-.173-.944-.173l.094-.473h3.715l-.094.473c-.389,0-.701.07-.937.212-.236.142-.422.367-.559.677-.137.31-.257.717-.362,1.22l-1.606,7.887Z"/>
    </g>
    <g>
      <path d="m303.397,444.233h-2.262l-8.59-13.148v13.148h-2.262v-17.062h2.262l8.613,13.207v-13.207h2.238v17.062Z"/>
      <path d="m306.479,437.776c0-1.242.244-2.359.732-3.352s1.168-1.758,2.039-2.297,1.865-.809,2.982-.809c1.727,0,3.123.598,4.189,1.793s1.6,2.785,1.6,4.77v.152c0,1.234-.236,2.342-.709,3.322s-1.148,1.744-2.027,2.291-1.889.82-3.029.82c-1.719,0-3.111-.598-4.178-1.793s-1.6-2.777-1.6-4.746v-.152Zm2.18.258c0,1.406.326,2.535.979,3.387s1.525,1.277,2.619,1.277c1.102,0,1.977-.432,2.625-1.295s.973-2.072.973-3.627c0-1.391-.33-2.518-.99-3.381s-1.537-1.295-2.631-1.295c-1.07,0-1.934.426-2.59,1.277s-.984,2.07-.984,3.656Z"/>
      <path d="m326.87,433.499c-.328-.055-.684-.082-1.066-.082-1.422,0-2.387.605-2.895,1.816v9h-2.168v-12.68h2.109l.035,1.465c.711-1.133,1.719-1.699,3.023-1.699.422,0,.742.055.961.164v2.016Z"/>
      <path d="m330.901,431.553l.059,1.406c.93-1.094,2.184-1.641,3.762-1.641,1.773,0,2.98.68,3.621,2.039.422-.609.971-1.102,1.646-1.477s1.475-.562,2.396-.562c2.781,0,4.195,1.473,4.242,4.418v8.496h-2.168v-8.367c0-.906-.207-1.584-.621-2.033s-1.109-.674-2.086-.674c-.805,0-1.473.24-2.004.721s-.84,1.127-.926,1.939v8.414h-2.18v-8.309c0-1.844-.902-2.766-2.707-2.766-1.422,0-2.395.605-2.918,1.816v9.258h-2.168v-12.68h2.051Z"/>
      <path d="m357.726,444.233c-.125-.25-.227-.695-.305-1.336-1.008,1.047-2.211,1.57-3.609,1.57-1.25,0-2.275-.354-3.076-1.061s-1.201-1.604-1.201-2.689c0-1.32.502-2.346,1.506-3.076s2.416-1.096,4.236-1.096h2.109v-.996c0-.758-.227-1.361-.68-1.811s-1.121-.674-2.004-.674c-.773,0-1.422.195-1.945.586s-.785.863-.785,1.418h-2.18c0-.633.225-1.244.674-1.834s1.059-1.057,1.828-1.4,1.615-.516,2.537-.516c1.461,0,2.605.365,3.434,1.096s1.258,1.736,1.289,3.018v5.836c0,1.164.148,2.09.445,2.777v.188h-2.273Zm-3.598-1.652c.68,0,1.324-.176,1.934-.527s1.051-.809,1.324-1.371v-2.602h-1.699c-2.656,0-3.984.777-3.984,2.332,0,.68.227,1.211.68,1.594s1.035.574,1.746.574Z"/>
      <path d="m365.308,444.233h-2.168v-18h2.168v18Z"/>
      <path d="m375.784,444.233v-11.004h-2.004v-1.676h2.004v-1.301c0-1.359.363-2.41,1.09-3.152s1.754-1.113,3.082-1.113c.5,0,.996.065,1.488.197l-.117,1.748c-.367-.07-.758-.105-1.172-.105-.703,0-1.246.206-1.629.617s-.574,1.001-.574,1.769v1.341h2.707v1.676h-2.707v11.004h-2.168Z"/>
      <path d="m382.476,437.776c0-1.242.244-2.359.732-3.352s1.168-1.758,2.039-2.297,1.865-.809,2.982-.809c1.727,0,3.123.598,4.189,1.793s1.6,2.785,1.6,4.77v.152c0,1.234-.236,2.342-.709,3.322s-1.148,1.744-2.027,2.291-1.889.82-3.029.82c-1.719,0-3.111-.598-4.178-1.793s-1.6-2.777-1.6-4.746v-.152Zm2.18.258c0,1.406.326,2.535.979,3.387s1.525,1.277,2.619,1.277c1.102,0,1.977-.432,2.625-1.295s.973-2.072.973-3.627c0-1.391-.33-2.518-.99-3.381s-1.537-1.295-2.631-1.295c-1.07,0-1.934.426-2.59,1.277s-.984,2.07-.984,3.656Z"/>
      <path d="m402.866,433.499c-.328-.055-.684-.082-1.066-.082-1.422,0-2.387.605-2.895,1.816v9h-2.168v-12.68h2.109l.035,1.465c.711-1.133,1.719-1.699,3.023-1.699.422,0,.742.055.961.164v2.016Z"/>
      <path d="m409.722,442.698c.773,0,1.449-.234,2.027-.703s.898-1.055.961-1.758h2.051c-.039.727-.289,1.418-.75,2.074s-1.076,1.18-1.846,1.57-1.584.586-2.443.586c-1.727,0-3.1-.576-4.119-1.729s-1.529-2.729-1.529-4.729v-.363c0-1.234.227-2.332.68-3.293s1.104-1.707,1.951-2.238,1.85-.797,3.006-.797c1.422,0,2.604.426,3.545,1.277s1.443,1.957,1.506,3.316h-2.051c-.062-.82-.373-1.494-.932-2.021s-1.248-.791-2.068-.791c-1.102,0-1.955.396-2.561,1.189s-.908,1.939-.908,3.439v.41c0,1.461.301,2.586.902,3.375s1.461,1.184,2.578,1.184Z"/>
      <path d="m422.46,444.467c-1.719,0-3.117-.564-4.195-1.693s-1.617-2.639-1.617-4.529v-.398c0-1.258.24-2.381.721-3.369s1.152-1.762,2.016-2.32,1.799-.838,2.807-.838c1.648,0,2.93.543,3.844,1.629s1.371,2.641,1.371,4.664v.902h-8.59c.031,1.25.396,2.26,1.096,3.029s1.588,1.154,2.666,1.154c.766,0,1.414-.156,1.945-.469s.996-.727,1.395-1.242l1.324,1.031c-1.062,1.633-2.656,2.449-4.781,2.449Zm-.27-11.367c-.875,0-1.609.318-2.203.955s-.961,1.529-1.102,2.678h6.352v-.164c-.062-1.102-.359-1.955-.891-2.561s-1.25-.908-2.156-.908Z"/>
      <path d="m291.011,473.033v-11.004h-2.004v-1.676h2.004v-1.301c0-1.359.363-2.41,1.09-3.152s1.754-1.113,3.082-1.113c.5,0,.996.066,1.488.198l-.117,1.747c-.367-.07-.758-.105-1.172-.105-.703,0-1.246.206-1.629.617s-.574,1.001-.574,1.77v1.34h2.707v1.676h-2.707v11.004h-2.168Z"/>
      <path d="m300.632,473.033h-2.168v-18h2.168v18Z"/>
      <path d="m303.526,466.576c0-1.242.244-2.359.732-3.352s1.168-1.758,2.039-2.297,1.865-.809,2.982-.809c1.727,0,3.123.598,4.189,1.793s1.6,2.785,1.6,4.77v.152c0,1.234-.236,2.342-.709,3.322s-1.148,1.744-2.027,2.291-1.889.82-3.029.82c-1.719,0-3.111-.598-4.178-1.793s-1.6-2.777-1.6-4.746v-.152Zm2.18.258c0,1.406.326,2.535.979,3.387s1.525,1.277,2.619,1.277c1.102,0,1.977-.432,2.625-1.295s.973-2.072.973-3.627c0-1.391-.33-2.518-.99-3.381s-1.537-1.295-2.631-1.295c-1.07,0-1.934.426-2.59,1.277s-.984,2.07-.984,3.656Z"/>
      <path d="m317.214,466.576c0-1.242.244-2.359.732-3.352s1.168-1.758,2.039-2.297,1.865-.809,2.982-.809c1.727,0,3.123.598,4.189,1.793s1.6,2.785,1.6,4.77v.152c0,1.234-.236,2.342-.709,3.322s-1.148,1.744-2.027,2.291-1.889.82-3.029.82c-1.719,0-3.111-.598-4.178-1.793s-1.6-2.777-1.6-4.746v-.152Zm2.18.258c0,1.406.326,2.535.979,3.387s1.525,1.277,2.619,1.277c1.102,0,1.977-.432,2.625-1.295s.973-2.072.973-3.627c0-1.391-.33-2.518-.99-3.381s-1.537-1.295-2.631-1.295c-1.07,0-1.934.426-2.59,1.277s-.984,2.07-.984,3.656Z"/>
      <path d="m337.604,462.299c-.328-.055-.684-.082-1.066-.082-1.422,0-2.387.605-2.895,1.816v9h-2.168v-12.68h2.109l.035,1.465c.711-1.133,1.719-1.699,3.023-1.699.422,0,.742.055.961.164v2.016Z"/>
      <path d="m352.921,469.67c0-.586-.221-1.041-.662-1.365s-1.211-.604-2.309-.838-1.969-.516-2.613-.844-1.121-.719-1.43-1.172-.463-.992-.463-1.617c0-1.039.439-1.918,1.318-2.637s2.002-1.078,3.369-1.078c1.438,0,2.604.371,3.498,1.113s1.342,1.691,1.342,2.848h-2.18c0-.594-.252-1.105-.756-1.535s-1.139-.645-1.904-.645c-.789,0-1.406.172-1.852.516s-.668.793-.668,1.348c0,.523.207.918.621,1.184s1.162.52,2.244.762,1.959.531,2.631.867,1.17.74,1.494,1.213.486,1.049.486,1.729c0,1.133-.453,2.041-1.359,2.725s-2.082,1.025-3.527,1.025c-1.016,0-1.914-.18-2.695-.539s-1.393-.861-1.834-1.506-.662-1.342-.662-2.092h2.168c.039.727.33,1.303.873,1.729s1.26.639,2.15.639c.82,0,1.479-.166,1.975-.498s.744-.775.744-1.33Z"/>
      <path d="m365.741,471.779c-.844.992-2.082,1.488-3.715,1.488-1.352,0-2.381-.393-3.088-1.178s-1.064-1.947-1.072-3.486v-8.25h2.168v8.191c0,1.922.781,2.883,2.344,2.883,1.656,0,2.758-.617,3.305-1.852v-9.223h2.168v12.68h-2.062l-.047-1.254Z"/>
      <path d="m381.854,466.834c0,1.93-.441,3.484-1.324,4.664s-2.078,1.77-3.586,1.77c-1.539,0-2.75-.488-3.633-1.465v6.105h-2.168v-17.555h1.98l.105,1.406c.883-1.094,2.109-1.641,3.68-1.641,1.523,0,2.729.574,3.615,1.723s1.33,2.746,1.33,4.793v.199Zm-2.168-.246c0-1.43-.305-2.559-.914-3.387s-1.445-1.242-2.508-1.242c-1.312,0-2.297.582-2.953,1.746v6.059c.648,1.156,1.641,1.734,2.977,1.734,1.039,0,1.865-.412,2.479-1.236s.92-2.049.92-3.674Z"/>
      <path d="m395.319,466.834c0,1.93-.441,3.484-1.324,4.664s-2.078,1.77-3.586,1.77c-1.539,0-2.75-.488-3.633-1.465v6.105h-2.168v-17.555h1.98l.105,1.406c.883-1.094,2.109-1.641,3.68-1.641,1.523,0,2.729.574,3.615,1.723s1.33,2.746,1.33,4.793v.199Zm-2.168-.246c0-1.43-.305-2.559-.914-3.387s-1.445-1.242-2.508-1.242c-1.312,0-2.297.582-2.953,1.746v6.059c.648,1.156,1.641,1.734,2.977,1.734,1.039,0,1.865-.412,2.479-1.236s.92-2.049.92-3.674Z"/>
      <path d="m397.499,466.576c0-1.242.244-2.359.732-3.352s1.168-1.758,2.039-2.297,1.865-.809,2.982-.809c1.727,0,3.123.598,4.189,1.793s1.6,2.785,1.6,4.77v.152c0,1.234-.236,2.342-.709,3.322s-1.148,1.744-2.027,2.291-1.889.82-3.029.82c-1.719,0-3.111-.598-4.178-1.793s-1.6-2.777-1.6-4.746v-.152Zm2.18.258c0,1.406.326,2.535.979,3.387s1.525,1.277,2.619,1.277c1.102,0,1.977-.432,2.625-1.295s.973-2.072.973-3.627c0-1.391-.33-2.518-.99-3.381s-1.537-1.295-2.631-1.295c-1.07,0-1.934.426-2.59,1.277s-.984,2.07-.984,3.656Z"/>
      <path d="m417.89,462.299c-.328-.055-.684-.082-1.066-.082-1.422,0-2.387.605-2.895,1.816v9h-2.168v-12.68h2.109l.035,1.465c.711-1.133,1.719-1.699,3.023-1.699.422,0,.742.055.961.164v2.016Z"/>
      <path d="m423.409,457.283v3.07h2.367v1.676h-2.367v7.873c0,.509.105.89.316,1.145.211.254.57.381,1.078.381.25,0,.594-.047,1.031-.141v1.748c-.57.154-1.125.232-1.664.232-.969,0-1.699-.293-2.191-.879s-.738-1.418-.738-2.496v-7.863h-2.309v-1.676h2.309v-3.07h2.168Z"/>
      <path d="m428.319,456.99c0-.352.107-.648.322-.891s.533-.363.955-.363.742.121.961.363.328.539.328.891-.109.645-.328.879-.539.352-.961.352-.74-.117-.955-.352-.322-.527-.322-.879Zm2.344,16.043h-2.168v-12.68h2.168v12.68Z"/>
      <path d="m436.183,460.353l.07,1.594c.969-1.219,2.234-1.828,3.797-1.828,2.68,0,4.031,1.512,4.055,4.535v8.379h-2.168v-8.391c-.008-.914-.217-1.59-.627-2.027s-1.049-.656-1.916-.656c-.703,0-1.32.188-1.852.562s-.945.867-1.242,1.477v9.035h-2.168v-12.68h2.051Z"/>
      <path d="m446.858,466.588c0-1.977.457-3.549,1.371-4.717s2.125-1.752,3.633-1.752c1.547,0,2.754.547,3.621,1.641l.105-1.406h1.98v12.375c0,1.641-.486,2.934-1.459,3.879s-2.279,1.418-3.92,1.418c-.914,0-1.809-.195-2.684-.586s-1.543-.926-2.004-1.605l1.125-1.301c.93,1.148,2.066,1.723,3.41,1.723,1.055,0,1.877-.297,2.467-.891s.885-1.43.885-2.508v-1.09c-.867,1-2.051,1.5-3.551,1.5-1.484,0-2.686-.598-3.604-1.793s-1.377-2.824-1.377-4.887Zm2.18.246c0,1.43.293,2.553.879,3.369s1.406,1.225,2.461,1.225c1.367,0,2.371-.621,3.012-1.863v-5.789c-.664-1.211-1.66-1.816-2.988-1.816-1.055,0-1.879.41-2.473,1.23s-.891,2.035-.891,3.645Z"/>
      <path d="m469.722,457.283v3.07h2.367v1.676h-2.367v7.873c0,.509.105.89.316,1.145.211.254.57.381,1.078.381.25,0,.594-.047,1.031-.141v1.748c-.57.154-1.125.232-1.664.232-.969,0-1.699-.293-2.191-.879s-.738-1.418-.738-2.496v-7.863h-2.309v-1.676h2.309v-3.07h2.168Z"/>
      <path d="m476.788,461.888c.961-1.18,2.211-1.77,3.75-1.77,2.68,0,4.031,1.512,4.055,4.535v8.379h-2.168v-8.391c-.008-.914-.217-1.59-.627-2.027s-1.049-.656-1.916-.656c-.703,0-1.32.188-1.852.562s-.945.867-1.242,1.477v9.035h-2.168v-18h2.168v6.855Z"/>
      <path d="m493.101,473.267c-1.719,0-3.117-.564-4.195-1.693s-1.617-2.639-1.617-4.529v-.398c0-1.258.24-2.381.721-3.369s1.152-1.762,2.016-2.32,1.799-.838,2.807-.838c1.648,0,2.93.543,3.844,1.629s1.371,2.641,1.371,4.664v.902h-8.59c.031,1.25.396,2.26,1.096,3.029s1.588,1.154,2.666,1.154c.766,0,1.414-.156,1.945-.469s.996-.727,1.395-1.242l1.324,1.031c-1.062,1.633-2.656,2.449-4.781,2.449Zm-.27-11.367c-.875,0-1.609.318-2.203.955s-.961,1.529-1.102,2.678h6.352v-.164c-.062-1.102-.359-1.955-.891-2.561s-1.25-.908-2.156-.908Z"/>
      <path d="m517.206,466.834c0,1.93-.441,3.484-1.324,4.664s-2.078,1.77-3.586,1.77c-1.539,0-2.75-.488-3.633-1.465v6.105h-2.168v-17.555h1.98l.105,1.406c.883-1.094,2.109-1.641,3.68-1.641,1.523,0,2.729.574,3.615,1.723s1.33,2.746,1.33,4.793v.199Zm-2.168-.246c0-1.43-.305-2.559-.914-3.387s-1.445-1.242-2.508-1.242c-1.312,0-2.297.582-2.953,1.746v6.059c.648,1.156,1.641,1.734,2.977,1.734,1.039,0,1.865-.412,2.479-1.236s.92-2.049.92-3.674Z"/>
      <path d="m525.222,473.267c-1.719,0-3.117-.564-4.195-1.693s-1.617-2.639-1.617-4.529v-.398c0-1.258.24-2.381.721-3.369s1.152-1.762,2.016-2.32,1.799-.838,2.807-.838c1.648,0,2.93.543,3.844,1.629s1.371,2.641,1.371,4.664v.902h-8.59c.031,1.25.396,2.26,1.096,3.029s1.588,1.154,2.666,1.154c.766,0,1.414-.156,1.945-.469s.996-.727,1.395-1.242l1.324,1.031c-1.062,1.633-2.656,2.449-4.781,2.449Zm-.27-11.367c-.875,0-1.609.318-2.203.955s-.961,1.529-1.102,2.678h6.352v-.164c-.062-1.102-.359-1.955-.891-2.561s-1.25-.908-2.156-.908Z"/>
      <path d="m538.804,462.299c-.328-.055-.684-.082-1.066-.082-1.422,0-2.387.605-2.895,1.816v9h-2.168v-12.68h2.109l.035,1.465c.711-1.133,1.719-1.699,3.023-1.699.422,0,.742.055.961.164v2.016Z"/>
      <path d="m548.179,469.67c0-.586-.221-1.041-.662-1.365s-1.211-.604-2.309-.838-1.969-.516-2.613-.844-1.121-.719-1.43-1.172-.463-.992-.463-1.617c0-1.039.439-1.918,1.318-2.637s2.002-1.078,3.369-1.078c1.438,0,2.604.371,3.498,1.113s1.342,1.691,1.342,2.848h-2.18c0-.594-.252-1.105-.756-1.535s-1.139-.645-1.904-.645c-.789,0-1.406.172-1.852.516s-.668.793-.668,1.348c0,.523.207.918.621,1.184s1.162.52,2.244.762,1.959.531,2.631.867,1.17.74,1.494,1.213.486,1.049.486,1.729c0,1.133-.453,2.041-1.359,2.725s-2.082,1.025-3.527,1.025c-1.016,0-1.914-.18-2.695-.539s-1.393-.861-1.834-1.506-.662-1.342-.662-2.092h2.168c.039.727.33,1.303.873,1.729s1.26.639,2.15.639c.82,0,1.479-.166,1.975-.498s.744-.775.744-1.33Z"/>
      <path d="m552.597,466.576c0-1.242.244-2.359.732-3.352s1.168-1.758,2.039-2.297,1.865-.809,2.982-.809c1.727,0,3.123.598,4.189,1.793s1.6,2.785,1.6,4.77v.152c0,1.234-.236,2.342-.709,3.322s-1.148,1.744-2.027,2.291-1.889.82-3.029.82c-1.719,0-3.111-.598-4.178-1.793s-1.6-2.777-1.6-4.746v-.152Zm2.18.258c0,1.406.326,2.535.979,3.387s1.525,1.277,2.619,1.277c1.102,0,1.977-.432,2.625-1.295s.973-2.072.973-3.627c0-1.391-.33-2.518-.99-3.381s-1.537-1.295-2.631-1.295c-1.07,0-1.934.426-2.59,1.277s-.984,2.07-.984,3.656Z"/>
      <path d="m568.909,460.353l.07,1.594c.969-1.219,2.234-1.828,3.797-1.828,2.68,0,4.031,1.512,4.055,4.535v8.379h-2.168v-8.391c-.008-.914-.217-1.59-.627-2.027s-1.049-.656-1.916-.656c-.703,0-1.32.188-1.852.562s-.945.867-1.242,1.477v9.035h-2.168v-12.68h2.051Z"/>
    </g>
    <g>
      <path d="m482.918,436.604h-9.785v-1.77h9.785v1.77Z"/>
      <path d="m493.524,444.233v-11.004h-2.004v-1.676h2.004v-1.301c0-1.359.363-2.41,1.09-3.152s1.754-1.113,3.082-1.113c.5,0,.996.065,1.488.197l-.117,1.748c-.367-.07-.758-.105-1.172-.105-.703,0-1.246.206-1.629.617s-.574,1.001-.574,1.769v1.341h2.707v1.676h-2.707v11.004h-2.168Z"/>
      <path d="m500.215,437.776c0-1.242.244-2.359.732-3.352s1.168-1.758,2.039-2.297,1.865-.809,2.982-.809c1.727,0,3.123.598,4.189,1.793s1.6,2.785,1.6,4.77v.152c0,1.234-.236,2.342-.709,3.322s-1.148,1.744-2.027,2.291-1.889.82-3.029.82c-1.719,0-3.111-.598-4.178-1.793s-1.6-2.777-1.6-4.746v-.152Zm2.18.258c0,1.406.326,2.535.979,3.387s1.525,1.277,2.619,1.277c1.102,0,1.977-.432,2.625-1.295s.973-2.072.973-3.627c0-1.391-.33-2.518-.99-3.381s-1.537-1.295-2.631-1.295c-1.07,0-1.934.426-2.59,1.277s-.984,2.07-.984,3.656Z"/>
      <path d="m520.606,433.499c-.328-.055-.684-.082-1.066-.082-1.422,0-2.387.605-2.895,1.816v9h-2.168v-12.68h2.109l.035,1.465c.711-1.133,1.719-1.699,3.023-1.699.422,0,.742.055.961.164v2.016Z"/>
      <path d="m527.461,442.698c.773,0,1.449-.234,2.027-.703s.898-1.055.961-1.758h2.051c-.039.727-.289,1.418-.75,2.074s-1.076,1.18-1.846,1.57-1.584.586-2.443.586c-1.727,0-3.1-.576-4.119-1.729s-1.529-2.729-1.529-4.729v-.363c0-1.234.227-2.332.68-3.293s1.104-1.707,1.951-2.238,1.85-.797,3.006-.797c1.422,0,2.604.426,3.545,1.277s1.443,1.957,1.506,3.316h-2.051c-.062-.82-.373-1.494-.932-2.021s-1.248-.791-2.068-.791c-1.102,0-1.955.396-2.561,1.189s-.908,1.939-.908,3.439v.41c0,1.461.301,2.586.902,3.375s1.461,1.184,2.578,1.184Z"/>
      <path d="m540.2,444.467c-1.719,0-3.117-.564-4.195-1.693s-1.617-2.639-1.617-4.529v-.398c0-1.258.24-2.381.721-3.369s1.152-1.762,2.016-2.32,1.799-.838,2.807-.838c1.648,0,2.93.543,3.844,1.629s1.371,2.641,1.371,4.664v.902h-8.59c.031,1.25.396,2.26,1.096,3.029s1.588,1.154,2.666,1.154c.766,0,1.414-.156,1.945-.469s.996-.727,1.395-1.242l1.324,1.031c-1.062,1.633-2.656,2.449-4.781,2.449Zm-.27-11.367c-.875,0-1.609.318-2.203.955s-.961,1.529-1.102,2.678h6.352v-.164c-.062-1.102-.359-1.955-.891-2.561s-1.25-.908-2.156-.908Z"/>
      <path d="m553.02,437.776c0-1.242.244-2.359.732-3.352s1.168-1.758,2.039-2.297,1.865-.809,2.982-.809c1.727,0,3.123.598,4.189,1.793s1.6,2.785,1.6,4.77v.152c0,1.234-.236,2.342-.709,3.322s-1.148,1.744-2.027,2.291-1.889.82-3.029.82c-1.719,0-3.111-.598-4.178-1.793s-1.6-2.777-1.6-4.746v-.152Zm2.18.258c0,1.406.326,2.535.979,3.387s1.525,1.277,2.619,1.277c1.102,0,1.977-.432,2.625-1.295s.973-2.072.973-3.627c0-1.391-.33-2.518-.99-3.381s-1.537-1.295-2.631-1.295c-1.07,0-1.934.426-2.59,1.277s-.984,2.07-.984,3.656Z"/>
      <path d="m568.348,444.233v-11.004h-2.004v-1.676h2.004v-1.301c0-1.359.363-2.41,1.09-3.152s1.753-1.113,3.082-1.113c.5,0,.996.065,1.488.197l-.117,1.748c-.367-.07-.758-.105-1.172-.105-.703,0-1.246.206-1.629.617-.382.411-.574,1.001-.574,1.769v1.341h2.707v1.676h-2.707v11.004h-2.168Z"/>
      <path d="m584.496,428.483v3.07h2.367v1.676h-2.367v7.873c0,.509.105.89.316,1.144.211.255.57.382,1.078.382.25,0,.594-.047,1.031-.141v1.747c-.57.155-1.125.233-1.664.233-.969,0-1.699-.293-2.191-.879s-.738-1.418-.738-2.496v-7.863h-2.309v-1.676h2.309v-3.07h2.168Z"/>
      <path d="m591.562,433.089c.961-1.18,2.211-1.77,3.75-1.77,2.68,0,4.031,1.512,4.055,4.535v8.379h-2.168v-8.391c-.008-.914-.217-1.59-.627-2.027s-1.049-.656-1.916-.656c-.703,0-1.32.188-1.852.562s-.945.867-1.242,1.477v9.035h-2.168v-18h2.168v6.855Z"/>
      <path d="m607.875,444.467c-1.719,0-3.117-.564-4.195-1.693s-1.617-2.639-1.617-4.529v-.398c0-1.258.24-2.381.721-3.369s1.152-1.762,2.016-2.32,1.799-.838,2.807-.838c1.648,0,2.93.543,3.844,1.629s1.371,2.641,1.371,4.664v.902h-8.59c.031,1.25.396,2.26,1.096,3.029s1.588,1.154,2.666,1.154c.766,0,1.414-.156,1.945-.469s.996-.727,1.395-1.242l1.324,1.031c-1.062,1.633-2.656,2.449-4.781,2.449Zm-.27-11.367c-.875,0-1.609.318-2.203.955s-.961,1.529-1.102,2.678h6.352v-.164c-.062-1.102-.359-1.955-.891-2.561s-1.25-.908-2.156-.908Z"/>
    </g>
    <g>
      <path d="m447.053,553.141h-7.776l.162-.81c.63,0,1.129-.055,1.499-.162.369-.108.666-.328.891-.662.225-.333.4-.832.526-1.498l2.403-11.557c.126-.629.162-1.102.108-1.417-.054-.314-.252-.53-.594-.648-.342-.116-.882-.175-1.62-.175l.162-.811h13.932l-.729,4.401h-.81c.018-.864-.032-1.539-.148-2.025-.118-.485-.428-.827-.932-1.025-.504-.198-1.341-.297-2.511-.297h-4.05l-2.808,13.823c-.036.181-.063.347-.081.5s-.027.293-.027.418c0,.469.216.774.648.918.432.145,1.062.217,1.89.217l-.135.81Zm4.995-6.048h-.891c.144-.773.18-1.341.108-1.701-.072-.359-.302-.599-.688-.716-.388-.116-.968-.175-1.742-.175h-3.186l.189-1.026h3.267c.773,0,1.372-.071,1.795-.216.423-.144.747-.409.972-.797.225-.387.409-.94.553-1.66h.864l-1.242,6.291Z"/>
      <path d="m460.295,562.305c-.755,0-1.388-.104-1.896-.314-.509-.21-.913-.496-1.212-.858-.299-.361-.514-.773-.645-1.235-.131-.462-.197-.944-.197-1.448,0-1.133.175-2.13.527-2.99.351-.86.824-1.577,1.417-2.149.593-.571,1.262-1.002,2.007-1.29.745-.289,1.511-.434,2.298-.434.556,0,.989.048,1.299.142.309.095.548.192.716.292s.32.149.457.149c.116,0,.221-.053.315-.157.095-.105.205-.241.331-.409h.441l-.724,3.604h-.52c.031-1.05-.168-1.803-.598-2.259-.431-.457-1.049-.685-1.857-.685-.598,0-1.17.131-1.716.393-.546.263-1.026.646-1.44,1.149s-.745,1.115-.992,1.834-.37,1.529-.37,2.432c0,1.165.218,2.047.653,2.645.435.599,1.13.897,2.085.897.482,0,.908-.073,1.275-.221.367-.146.724-.335,1.07-.566l.331-1.716c.084-.378.113-.663.087-.857-.026-.194-.129-.325-.307-.394-.179-.068-.467-.103-.866-.103l.094-.488h3.778l-.079.488c-.294,0-.525.031-.692.095-.168.062-.294.181-.378.354-.084.174-.157.423-.22.748l-.472,2.282c-.64.325-1.257.585-1.85.779-.593.194-1.309.291-2.149.291Z"/>
    </g>
    <g>
      <path d="m302.882,550.663c-.578.828-1.385,1.447-2.42,1.857s-2.24.615-3.615.615c-1.391,0-2.625-.326-3.703-.979s-1.912-1.58-2.502-2.783-.893-2.598-.908-4.184v-1.488c0-2.57.6-4.562,1.799-5.977s2.885-2.121,5.057-2.121c1.781,0,3.215.455,4.301,1.365s1.75,2.201,1.992,3.873h-2.25c-.422-2.266-1.766-3.398-4.031-3.398-1.508,0-2.65.529-3.428,1.589s-1.17,2.595-1.178,4.604v1.396c0,1.916.438,3.438,1.312,4.568s2.059,1.695,3.551,1.695c.844,0,1.582-.094,2.215-.28.633-.188,1.156-.503,1.57-.947v-3.823h-3.949v-1.84h6.188v6.258Z"/>
      <path d="m312.421,542.167c-.328-.055-.684-.082-1.066-.082-1.422,0-2.387.605-2.895,1.816v9h-2.168v-12.68h2.109l.035,1.465c.711-1.133,1.719-1.699,3.023-1.699.422,0,.742.055.961.164v2.016Z"/>
      <path d="m321.772,552.901c-.125-.25-.227-.695-.305-1.336-1.008,1.047-2.211,1.57-3.609,1.57-1.25,0-2.275-.354-3.076-1.061s-1.201-1.604-1.201-2.689c0-1.32.502-2.346,1.506-3.076s2.416-1.096,4.236-1.096h2.109v-.996c0-.758-.227-1.361-.68-1.811s-1.121-.674-2.004-.674c-.773,0-1.422.195-1.945.586s-.785.863-.785,1.418h-2.18c0-.633.225-1.244.674-1.834s1.059-1.057,1.828-1.4,1.615-.516,2.537-.516c1.461,0,2.605.365,3.434,1.096s1.258,1.736,1.289,3.018v5.836c0,1.164.148,2.09.445,2.777v.188h-2.273Zm-3.598-1.652c.68,0,1.324-.176,1.934-.527s1.051-.809,1.324-1.371v-2.602h-1.699c-2.656,0-3.984.777-3.984,2.332,0,.68.227,1.211.68,1.594s1.035.574,1.746.574Z"/>
      <path d="m331.007,549.96l3.141-9.738h2.215l-4.547,12.68h-1.652l-4.594-12.68h2.215l3.223,9.738Z"/>
      <path d="m338.46,536.858c0-.352.107-.648.322-.891s.533-.363.955-.363.742.121.961.363.328.539.328.891-.109.645-.328.879-.539.352-.961.352-.74-.117-.955-.352-.322-.527-.322-.879Zm2.344,16.043h-2.168v-12.68h2.168v12.68Z"/>
      <path d="m347.214,537.151v3.07h2.367v1.676h-2.367v7.873c0,.509.105.89.316,1.144.211.255.57.382,1.078.382.25,0,.594-.047,1.031-.141v1.747c-.57.155-1.125.233-1.664.233-.969,0-1.699-.293-2.191-.879s-.738-1.418-.738-2.496v-7.863h-2.309v-1.676h2.309v-3.07h2.168Z"/>
      <path d="m356.261,549.725l2.953-9.504h2.32l-5.098,14.637c-.789,2.109-2.043,3.164-3.762,3.164l-.41-.035-.809-.152v-1.758l.586.047c.734,0,1.307-.148,1.717-.445s.748-.84,1.014-1.629l.48-1.289-4.523-12.539h2.367l3.164,9.504Z"/>
      <path d="m370.476,552.901v-11.004h-2.004v-1.676h2.004v-1.301c0-1.359.363-2.41,1.09-3.152s1.754-1.113,3.082-1.113c.5,0,.996.065,1.488.197l-.117,1.748c-.367-.07-.758-.105-1.172-.105-.703,0-1.246.206-1.629.617s-.574,1.001-.574,1.769v1.341h2.707v1.676h-2.707v11.004h-2.168Z"/>
      <path d="m377.167,546.444c0-1.242.244-2.359.732-3.352s1.168-1.758,2.039-2.297,1.865-.809,2.982-.809c1.727,0,3.123.598,4.189,1.793s1.6,2.785,1.6,4.77v.152c0,1.234-.236,2.342-.709,3.322s-1.148,1.744-2.027,2.291-1.889.82-3.029.82c-1.719,0-3.111-.598-4.178-1.793s-1.6-2.777-1.6-4.746v-.152Zm2.18.258c0,1.406.326,2.535.979,3.387s1.525,1.277,2.619,1.277c1.102,0,1.977-.432,2.625-1.295s.973-2.072.973-3.627c0-1.391-.33-2.518-.99-3.381s-1.537-1.295-2.631-1.295c-1.07,0-1.934.426-2.59,1.277s-.984,2.07-.984,3.656Z"/>
      <path d="m397.558,542.167c-.328-.055-.684-.082-1.066-.082-1.422,0-2.387.605-2.895,1.816v9h-2.168v-12.68h2.109l.035,1.465c.711-1.133,1.719-1.699,3.023-1.699.422,0,.742.055.961.164v2.016Z"/>
      <path d="m404.413,551.366c.773,0,1.449-.234,2.027-.703s.898-1.055.961-1.758h2.051c-.039.727-.289,1.418-.75,2.074s-1.076,1.18-1.846,1.57-1.584.586-2.443.586c-1.727,0-3.1-.576-4.119-1.729s-1.529-2.729-1.529-4.729v-.363c0-1.234.227-2.332.68-3.293s1.104-1.707,1.951-2.238,1.85-.797,3.006-.797c1.422,0,2.604.426,3.545,1.277s1.443,1.957,1.506,3.316h-2.051c-.062-.82-.373-1.494-.932-2.021s-1.248-.791-2.068-.791c-1.102,0-1.955.396-2.561,1.189s-.908,1.939-.908,3.439v.41c0,1.461.301,2.586.902,3.375s1.461,1.184,2.578,1.184Z"/>
      <path d="m417.151,553.135c-1.719,0-3.117-.564-4.195-1.693s-1.617-2.639-1.617-4.529v-.398c0-1.258.24-2.381.721-3.369s1.152-1.762,2.016-2.32,1.799-.838,2.807-.838c1.648,0,2.93.543,3.844,1.629s1.371,2.641,1.371,4.664v.902h-8.59c.031,1.25.396,2.26,1.096,3.029s1.588,1.154,2.666,1.154c.766,0,1.414-.156,1.945-.469s.996-.727,1.395-1.242l1.324,1.031c-1.062,1.633-2.656,2.449-4.781,2.449Zm-.27-11.367c-.875,0-1.609.318-2.203.955s-.961,1.529-1.102,2.678h6.352v-.164c-.062-1.102-.359-1.955-.891-2.561s-1.25-.908-2.156-.908Z"/>
    </g>
  </g>
  <g>
    <g>
      <path class="cls-12" d="m628.357,178.788c-3.901,2.362-5.47,7.168-4.863,11.49.608,4.322,3.029,8.245,5.703,11.835,11.748,15.772,35.192,30.526,55.004,35.635-.432-1.771,10.178-5.968,8.383-9.581-2.624-5.283-15.729,4.637-17.552,6.719-4.088,4.668-6.334,10.505-7.954,16.352-.376,1.356-.719,2.807-.242,4.141.65,1.819,2.729,2.951,4.773,3.12,2.044.169,4.059-.451,5.945-1.185,8.912-3.471,16.494-9.792,21.184-17.66,1.158-1.943,2.17-4.128,1.798-6.334-.398-2.36-2.352-4.3-4.615-5.429-4.614-2.302-6.374-2.01-9.784-5.894-3.167-3.607-6.494-7.096-9.793-10.598-6.765-7.179-20.338-18.878-26.662-26.403-3.102-3.691-2.244-5.977-6.905-7.723-2.592-.971-5.883-1.087-7.831.755"/>
      <path class="cls-6" d="m675.034,234.885c-.417,3.249-2.045,6.076-2.463,9.324"/>
      <path class="cls-27" d="m651.925,160.935c24.603-30.179,95.541-68.442,95.541-68.442-3.619-.486-39.031-15.523-57.014-11.249-12.728,3.026-65.345,38.743-81.161,59.429-6.293,8.231-9.5,16.73-2.382,27.376l4.609-.463c9.02,8.579,32.599,2.928,40.407-6.651Z"/>
      <g>
        <path class="cls-27" d="m647.182,150.884c7.482,10.002,39.882,55.643,38.961,60.711-1.057,5.815-20.934,21.804-25.781,21.742-4.847-.062-60.607-54.816-56.55-78.108.037-.213.107-.419.161-.627,5.562-21.303,26.517-22.856,43.209-3.719Z"/>
        <path class="cls-27" d="m683.431,207.984s7.052,9.385,6.754,10.692c-.298,1.307-17.192,18.831-21.137,18.083-7.912-1.502-11.583-9.972-11.583-9.972,0,0,23.711-21.549,24.728-19.992,1.017,1.557-.088,3.393-.088,3.393"/>
      </g>
      <path class="cls-12" d="m857.445,180.052c3.84,2.325,5.384,7.055,4.786,11.308-.598,4.253-2.981,8.114-5.613,11.647-11.562,15.522-34.634,30.042-54.133,35.07.425-1.743-10.016-5.873-8.25-9.429,2.582-5.199,15.479,4.564,17.273,6.612,4.023,4.594,6.233,10.338,7.828,16.093.37,1.335.708,2.762.238,4.076-.639,1.79-2.685,2.905-4.697,3.071-2.012.166-3.994-.443-5.851-1.167-8.771-3.416-16.232-9.637-20.848-17.38-1.14-1.912-2.135-4.062-1.769-6.234.391-2.322,2.314-4.232,4.542-5.343,4.541-2.265,6.273-1.978,9.629-5.801,3.117-3.549,6.391-6.984,9.638-10.43,6.658-7.065,20.015-18.579,26.239-25.984,3.053-3.632,2.209-5.883,6.796-7.601,2.551-.955,5.79-1.069,7.707.743"/>
      <path class="cls-6" d="m811.509,235.26c.411,3.197,2.013,5.979,2.424,9.177"/>
      <path class="cls-27" d="m834.251,162.482c-24.213-29.701-94.026-67.358-94.026-67.358,3.562-.478,38.412-15.277,56.11-11.07,12.526,2.978,64.309,38.129,79.875,58.488,6.194,8.101,9.35,16.465,2.344,26.942l-4.536-.456c-8.877,8.443-32.082,2.881-39.767-6.545Z"/>
      <g>
        <path class="cls-27" d="m838.919,152.59c-7.363,9.843-39.25,54.761-38.343,59.749,1.04,5.723,20.602,21.458,25.373,21.398,4.77-.061,59.647-53.947,55.654-76.87-.037-.21-.105-.413-.159-.617-5.474-20.966-26.097-22.494-42.524-3.66Z"/>
        <path class="cls-27" d="m803.244,208.785s-6.94,9.236-6.647,10.523,16.919,18.533,20.802,17.796c7.787-1.478,11.4-9.814,11.4-9.814,0,0-23.336-21.208-24.337-19.675-1.001,1.532.086,3.339.086,3.339"/>
      </g>
      <path class="cls-27" d="m774.979,102.105c1.622-1.622,15.813-8.515,15.002-12.975-.811-4.46-10.542-15.002-19.868-16.219-9.326-1.216-46.629-3.244-54.739,1.216-8.109,4.46-18.652,7.704-12.57,20.274,6.082,12.57,25.139,18.652,25.139,18.652,0,0,43.385,2.027,45.818-4.46l2.433-6.488"/>
      <path class="cls-19" d="m679.423,492.979c-1.622,5.947-3.784,27.031-3.784,27.031,0,0,22.166,8.109,22.706,6.488s4.325-32.978,4.325-32.978l-23.247-.541Z"/>
      <path class="cls-19" d="m791.003,487.111l1.256,26.52s10.852,5.164,15.264,12.462c4.412,7.298,5.017,5.135,1.865,5.135s-15.986.225-15.986.225c-12.283,1.318-26.115,1.374-28.872-2.174-3.782-4.866,0-21.895,0-21.895v-29.194s26.474,8.92,26.474,8.92Z"/>
      <path class="cls-31" d="m825.81,531.491c-1.439-8.523-9.385-9.265-19.071-14.452-3.946-2.113-6.617-6.472-11.515-7.411-12.125-2.325-14.448,1.918-14.791,4.509-.134,1.015-.941,1.79-1.936,1.79h-15.43c-.965,0-1.787.726-1.926,1.71-.455,3.2-1.272,10.045-.46,13.113.832,3.141,2.518,5.132,3.248,5.398.186.068.377.1.574.105l11.292.332c.671.02,10.005-.684,14.032.093,2.829.546,34.244-1.544,34.244-1.544,0,0,2.428.438,1.739-3.644Z"/>
      <path class="cls-25" d="m825.81,531.638c-5.427.986-10.855.83-16.282.935-5.427.089-10.855.1-16.282.123-5.427-.026-10.855-.046-16.282-.134-5.427-.081-10.855-.011-16.282-.925-.153-.021-.166-.273,0-.294,10.825-1.496,21.692-.79,32.564-1.059,5.427.023,10.855.035,16.282.124,5.427.105,10.855-.05,16.282.935.155.021.161.273,0,.294h0Z"/>
      <path class="cls-24" d="m788.356,225.989c3.811,2.271,4.26,165.919,4.26,170.998,0,5.079,4.63,108.213,4.63,108.213,0,0-32.711,5.079-34.842,5.079-2.13,0-12.159-115.832-12.159-115.832,0,0-13.723-113.434-13.723-124.439,0-11.005,46.153-47.405,51.833-44.019Z"/>
      <path class="cls-24" d="m692.499,233.608c-2.081,2.304-14.158,163.14-14.158,163.14,0,0-8.279,101.496-7.569,104.882.71,3.386,30.607,9.191,32.737,9.191,2.13,0,19.557-112.697,20.267-118.623.71-5.926,19.846-121.342,19.136-134.04-.71-12.698-40.473-35.554-50.413-24.549Z"/>
      <path class="cls-24" d="m778.899,258.347c-6.461.431-65.588,1.89-68.66,1.325-20.544-3.784-16.231-30.328-16.759-33.762-.528-3.434,98.935-3.784,98.935-3.784,0,0-1.352,35.411-13.516,36.222Z"/>
      <path class="cls-27" d="m700.778,236.322l81.905,1.204c7.826.21,10.485-4.379,10.748-12.123l4.435-104.256c.496-16.531-10.317-40.666-31.942-40.666h-40.547c-2.101,0-4.102.251-6.002.72-15.202,3.756-23.853,21.514-24.814,36.736l-5.233,105.587c.283,7.425,3.946,12.597,11.45,12.799Z"/>
      <path class="cls-15" d="m759.977,80.48s5.947,0,7.569,3.784c1.622,3.784,1.629,10.265-9.191,21.084-7.434,7.434-15.106,52.529-15.813,59.604-.405,4.055-2.027-.405-2.027-.405,0,0-9.191-54.333-12.975-59.199-3.784-4.866-10.813-15.138-8.65-21.084,2.163-5.947,15.138-4.866,15.138-4.866l25.95,1.081Z"/>
      <path class="cls-12" d="m760.683,55.866s-.164,36.057-1.923,36.508c-1.088.279-18.395-1.261-29.17-1.261-1.511,0-1.511-35.75-1.511-35.75l32.603.504Z"/>
      <g>
        <g>
          <path class="cls-12" d="m720.225,30.217c-1.154,11.534-.524,17.75,1.56,29.288,1.007,5.576,8.554,21.344,19.7,22.039,12.777.797,24.862-13.21,26.12-21.242,1.808-11.539,4.379-18.633,3.223-30.085-2.216-21.96-11.328-25.425-25.302-25.425-13.974,0-23.238,4.793-25.302,25.425Z"/>
          <path class="cls-12" d="m722.564,46.312c-.269-3.316-2.503-7.42-4.201-8.737-1.697-1.317-3.765-.915-5.27,1.024-.886,1.141-1.201,3.297-1.358,5.249-.176,2.19,2.251,7.082,3.026,8.79,1.357,2.99,5.324,3.647,7.411,2.835,2.086-.812.596-4.64.431-8.503"/>
          <path class="cls-12" d="m766.329,49.081c.261-3.316,4.716-7.42,6.359-8.737,1.643-1.317,2.756-.915,4.213,1.024.857,1.141,1.163,3.297,1.315,5.249.17,2.19-2.726,7.488-3.476,9.196-1.313,2.99-6.011,3.241-8.03,2.43s-.577-4.64-.417-8.503"/>
          <path class="cls-11" d="m763.52,37.015c-4.098-1.522-8.542-2.941-12.952-2.538-2.461.441-3.612-2.925-1.395-4.045,4.11-2.022,8.947-1.066,12.89.764,1.817.96,5.833,2.459,4.074,5.151-.622.833-1.715,1.064-2.618.669h0Z"/>
          <path class="cls-11" d="m737.323,34.396c-4.095-.121-8.203.937-11.897,2.732-2.119.927-3.996-1.881-2.377-3.485,2.817-3.021,7.153-4.355,11.206-4.146,1.972.144,6.239.381,5.406,3.438-.337,1.025-1.337,1.534-2.338,1.461h0Z"/>
          <path class="cls-17" d="m742.475,35.202c-1.018,5.969-3.038,11.834-2.473,17.945.694,1.699,6.663-.74,8.314-.865.076-.023.127.092.058.134-1.996,1.337-4.254,2.123-6.73,2.381-.923.12-2.582-.175-2.752-1.445-.468-3.884.189-7.78,1.085-11.536.563-2.289,1.155-4.588,2.358-6.664.038-.068.152-.031.138.049h0Z"/>
        </g>
        <path class="cls-29" d="m769.369,34.466l.252-12.588s3.273,2.014,3.273,5.791c0,3.776,1.236,14.816,1.236,14.816,0,0-2.456,5.431-4.257,6.332-1.007.504.252-8.812.252-8.812l-.755-5.539Z"/>
        <path class="cls-11" d="m764.379,15.965s-8.885-3.128-10.714-3.128-5.226,3.441-8.885,3.441c-3.658,0-9.669-3.441-10.714-3.754-1.045-.313-9.93,3.441-9.93,3.441,0,0-2.352,5.63-3.136,6.569s-3.6-3.262-.726-7.328c1.19-1.683,4.815-4.126,7.237-5.879,3.429-2.483,4.596-8.723,16.681-7.716,13.801,1.15,14.607,3.92,19.198,7.728,2.835,2.352,6.748,4.708,8.245,8.888,1.307,10.948-7.256-2.262-7.256-2.262Z"/>
        <path class="cls-11" d="m769.809,53.789s-.658,6.938-4.343,13.973c-2.077,3.965-7.742,8.308-9.63,10.196-1.888,1.888-13.673,3.744-18.127,1.888-4.532-1.888-9.63-6.042-9.63-6.042,0,0-4.875-6.995-5.287-8.497-2.644-9.63-1.888-19.826-1.888-19.826,0,0,2.644,0,3.021,3.21s1.133,10.574,2.455,11.896,5.287,3.399,5.287,3.399c0,0,1.226,1.578,2.359,3.655s1.228,4.677,8.215,4.866c2.228.06,4.071-.206,5.549-.596,2.671-.706,3.527-1.271,4.482-3.864l2.808-2.361s5.476-2.455,7.742-4.721c2.266-2.266,6.42-13.406,6.42-13.406l1.699.566-1.133,5.665Z"/>
        <path class="cls-11" d="m757.273,67.598s3.098-.256,3.109-2.838c.007-1.779-2.87-5.938-3.486-6.708-1.511-1.888-12.389-.829-13.333-1.018s-13.591-1.195-16.43,4.482c-1.541,3.082,3.967,6.092,3.967,6.092,0,0,.527-4.387,3.737-5.143,3.21-.755,13.939-.388,13.939-.388,0,0,6.34-.196,8.497,5.52Z"/>
        <path class="cls-29" d="m722.939,20.367s-.755,8.308-.755,10.322c0,2.014-1.259,4.028-1.259,4.028l2.203,12.651c.028.756-1.813.304-2.14-.378l-2.581-4.972-.504-11.581,2.518-10.322,2.518.252Z"/>
      </g>
      <path class="cls-12" d="m729.566,91.157c0,2.687,6.178,6.893,14.8,6.893,8.622,0,14.8-4.206,14.8-6.893,0-2.687-6.178-2.838-14.8-2.838-8.622,0-14.8.151-14.8,2.838Z"/>
      <path class="cls-31" d="m637.196,531.491c1.439-8.523,9.385-9.265,19.071-14.452,3.946-2.113,6.617-6.472,11.515-7.411,12.125-2.325,14.448,1.918,14.791,4.509.134,1.015.941,1.79,1.936,1.79h15.43c.965,0,1.787.726,1.926,1.71.455,3.2,1.272,10.045.46,13.113-.832,3.141-2.518,5.132-3.248,5.398-.186.068-.377.1-.574.105l-11.292.332c-.671.02-10.005-.684-14.032.093-2.829.546-34.244-1.544-34.244-1.544,0,0-2.428.438-1.739-3.644Z"/>
      <path class="cls-25" d="m637.196,531.344c5.427-.986,10.855-.83,16.282-.935,5.427-.088,10.855-.1,16.282-.123,5.427.026,10.855.046,16.282.133,5.427.081,10.855.011,16.282.925.153.021.166.273,0,.294-10.825,1.496-21.693.79-32.564,1.059-5.427-.023-10.855-.035-16.282-.124-5.427-.105-10.855.05-16.282-.935-.155-.021-.161-.273,0-.294h0Z"/>
      <path class="cls-18" d="m757.188,109.833c-10.181,25.073-14.748,51.991-18.307,78.695-1.656,16.14-.968,32.396-1.556,48.599.001.068-.111.069-.11,0-.492-21.615-.881-43.431,3.088-64.779,2.676-15.995,5.61-32.052,10.756-47.483,1.757-4.994,3.596-10.726,6.129-15.032h0Z"/>
      <path class="cls-18" d="m727.592,105.336c2.745,8.678,5.677,21.583,8.005,30.522,1.224,5.116,2.452,10.231,3.526,15.389,1.104,5.127,1.887,10.628.98,15.786-.028-.003-.049-.026-.05-.054l-.07-3.94c-.42-9.177-3.222-18.049-5.264-26.966,0,0-3.742-15.323-3.742-15.323-1.12-5.028-2.852-10.57-3.386-15.414h0Z"/>
      <path class="cls-18" d="m767.348,106.565c.746,8.061.371,19.776.529,27.978-.212,8.225.312,20.041-.609,28.044-.882-7.994-.398-19.842-.596-28.044,0,0,.073-13.989.073-13.989.026-4.663-.017-9.326.456-13.989.005-.083.142-.087.147,0h0Z"/>
      <path class="cls-18" d="m718.286,106.568c.323,9.847-.627,24.094-.891,34.082-.631,10.008-.7,24.363-2.029,34.102-.483-9.788.611-24.159.825-34.152,0,0,.782-17.027.782-17.027.27-5.675.464-11.354,1.165-17.011.007-.085.147-.082.147.006h0Z"/>
    </g>
    <path class="cls-30" d="m735.637,64.685c2.663.719,5.16,1.711,7.942,1.647,2.773.185,5.313-.694,7.995-1.334.053-.013.095.065.047.1-3.484,2.436-8.247,2.55-12.248,1.502-1.352-.378-2.722-.845-3.788-1.817-.042-.036-.004-.112.051-.098h0Z"/>
    <g>
      <path class="cls-11" d="m724.746,41.053c1.749-3.4,10.405-4.317,12.652-1.041.452.736.336,1.594-.191,2.213-.052.089-.165.13-.252.063-.345-.285-.506-.615-.663-.813-.437-.553-.666-.763-1.45-.964-2.032-.473-4.413-.541-6.495.009-1.086.31-2.126.652-3.46.746-.11.011-.194-.116-.141-.213h0Z"/>
      <ellipse class="cls-11" cx="727.991" cy="42.007" rx="2.839" ry="2.149" transform="translate(644.303 766.391) rotate(-86.712)"/>
    </g>
    <g>
      <path class="cls-11" d="m748.597,41.338c1.749-3.4,10.405-4.318,12.652-1.041.452.736.336,1.594-.191,2.213-.052.089-.165.13-.252.063-.345-.285-.506-.615-.663-.813-.437-.553-.666-.763-1.45-.964-2.032-.473-4.413-.541-6.495.009-1.086.31-2.126.652-3.46.746-.11.011-.194-.116-.141-.213h0Z"/>
      <ellipse class="cls-11" cx="751.842" cy="42.293" rx="2.839" ry="2.149" transform="translate(666.501 790.472) rotate(-86.712)"/>
    </g>
  </g>
</svg>