<?xml version="1.0" encoding="UTF-8"?>
<svg id="Layer_1" data-name="Layer 1" xmlns="http://www.w3.org/2000/svg" width="1140" height="641" viewBox="0 0 1140 641">
  <defs>
    <style>
      .cls-1, .cls-2, .cls-3, .cls-4, .cls-5, .cls-6, .cls-7, .cls-8, .cls-9, .cls-10, .cls-11 {
        fill: #e980f9;
      }

      .cls-12 {
        fill: #876036;
      }

      .cls-13 {
        fill: #dbbb95;
      }

      .cls-14 {
        fill: #212628;
      }

      .cls-15, .cls-16, .cls-17, .cls-18, .cls-19, .cls-20, .cls-21, .cls-22, .cls-23, .cls-24, .cls-25, .cls-26, .cls-27 {
        fill: #4175c9;
      }

      .cls-16 {
        opacity: .32;
      }

      .cls-28 {
        stroke: #000;
      }

      .cls-28, .cls-29 {
        fill: none;
        stroke-miterlimit: 10;
        stroke-width: 2px;
      }

      .cls-29 {
        stroke: #b1dded;
      }

      .cls-17 {
        opacity: .68;
      }

      .cls-18 {
        opacity: .58;
      }

      .cls-2 {
        opacity: .59;
      }

      .cls-3 {
        opacity: .62;
      }

      .cls-19 {
        opacity: .56;
      }

      .cls-20, .cls-4 {
        opacity: .5;
      }

      .cls-5 {
        opacity: .92;
      }

      .cls-6 {
        opacity: .84;
      }

      .cls-7 {
        opacity: .82;
      }

      .cls-21 {
        opacity: .85;
      }

      .cls-22 {
        opacity: .87;
      }

      .cls-23, .cls-8 {
        opacity: .76;
      }

      .cls-24 {
        opacity: .31;
      }

      .cls-25 {
        opacity: .24;
      }

      .cls-9 {
        opacity: .44;
      }

      .cls-10 {
        opacity: .35;
      }

      .cls-26 {
        opacity: .37;
      }

      .cls-11 {
        opacity: .66;
      }

      .cls-27 {
        opacity: .97;
      }
    </style>
  </defs>
  <g>
    <g>
      <g>
        <line class="cls-29" x1="51.59" y1="307.02" x2="608.01" y2="307.02"/>
        <line class="cls-29" x1="51.59" y1="272.8" x2="608.01" y2="272.8"/>
        <line class="cls-29" x1="51.59" y1="375.44" x2="608.01" y2="375.44"/>
        <line class="cls-29" x1="51.59" y1="341.23" x2="608.01" y2="341.23"/>
        <line class="cls-29" x1="51.59" y1="443.87" x2="608.01" y2="443.87"/>
        <line class="cls-29" x1="51.59" y1="409.66" x2="608.01" y2="409.66"/>
        <line class="cls-29" x1="51.59" y1="512.3" x2="608.01" y2="512.3"/>
        <line class="cls-29" x1="51.59" y1="478.09" x2="608.01" y2="478.09"/>
        <line class="cls-29" x1="51.59" y1="580.73" x2="608.01" y2="580.73"/>
        <line class="cls-29" x1="51.59" y1="546.51" x2="608.01" y2="546.51"/>
        <line class="cls-29" x1="87.35" y1="38.29" x2="87.35" y2="614.73"/>
        <line class="cls-29" x1="124.57" y1="38.29" x2="124.57" y2="614.73"/>
        <line class="cls-29" x1="161.79" y1="38.29" x2="161.79" y2="614.73"/>
        <line class="cls-29" x1="199.01" y1="38.29" x2="199.01" y2="614.73"/>
        <line class="cls-29" x1="236.23" y1="38.29" x2="236.23" y2="614.73"/>
        <line class="cls-29" x1="273.45" y1="38.29" x2="273.45" y2="614.73"/>
        <line class="cls-29" x1="310.67" y1="38.29" x2="310.67" y2="614.73"/>
        <line class="cls-29" x1="347.89" y1="38.29" x2="347.89" y2="614.73"/>
        <line class="cls-29" x1="385.11" y1="38.29" x2="385.11" y2="614.73"/>
        <line class="cls-29" x1="422.33" y1="38.29" x2="422.33" y2="614.73"/>
        <line class="cls-29" x1="459.55" y1="38.29" x2="459.55" y2="614.73"/>
        <line class="cls-29" x1="496.77" y1="38.29" x2="496.77" y2="614.73"/>
        <line class="cls-29" x1="533.99" y1="38.29" x2="533.99" y2="614.73"/>
        <line class="cls-29" x1="571.21" y1="38.29" x2="571.21" y2="614.73"/>
        <line class="cls-29" x1="608.43" y1="38.29" x2="608.43" y2="614.73"/>
      </g>
      <g>
        <line class="cls-29" x1="51.59" y1="36.33" x2="608.01" y2="36.33"/>
        <line class="cls-29" x1="51.59" y1="104.76" x2="608.01" y2="104.76"/>
        <line class="cls-29" x1="51.59" y1="70.54" x2="608.01" y2="70.54"/>
        <line class="cls-29" x1="51.59" y1="173.18" x2="608.01" y2="173.18"/>
        <line class="cls-29" x1="51.59" y1="138.97" x2="608.01" y2="138.97"/>
        <line class="cls-29" x1="51.59" y1="241.61" x2="608.01" y2="241.61"/>
        <line class="cls-29" x1="51.59" y1="207.4" x2="608.01" y2="207.4"/>
      </g>
      <polyline class="cls-28" points="1098.17 614.73 52.09 614.73 52.09 36.92"/>
    </g>
    <g>
      <g>
        <line class="cls-29" x1="608.31" y1="307.02" x2="1093.15" y2="307.02"/>
        <line class="cls-29" x1="608.31" y1="272.8" x2="1093.15" y2="272.8"/>
        <line class="cls-29" x1="608.31" y1="375.44" x2="1093.15" y2="375.44"/>
        <line class="cls-29" x1="608.31" y1="341.23" x2="1093.15" y2="341.23"/>
        <line class="cls-29" x1="608.31" y1="443.87" x2="1093.15" y2="443.87"/>
        <line class="cls-29" x1="608.31" y1="409.66" x2="1093.15" y2="409.66"/>
        <line class="cls-29" x1="608.31" y1="512.3" x2="1093.15" y2="512.3"/>
        <line class="cls-29" x1="608.31" y1="478.09" x2="1093.15" y2="478.09"/>
        <line class="cls-29" x1="608.31" y1="580.73" x2="1093.15" y2="580.73"/>
        <line class="cls-29" x1="608.31" y1="546.51" x2="1093.15" y2="546.51"/>
        <line class="cls-29" x1="644.07" y1="38.29" x2="644.07" y2="614.73"/>
        <line class="cls-29" x1="681.29" y1="38.29" x2="681.29" y2="614.73"/>
        <line class="cls-29" x1="718.51" y1="38.29" x2="718.51" y2="614.73"/>
        <line class="cls-29" x1="755.73" y1="38.29" x2="755.73" y2="614.73"/>
        <line class="cls-29" x1="792.95" y1="38.29" x2="792.95" y2="614.73"/>
        <line class="cls-29" x1="830.17" y1="38.29" x2="830.17" y2="614.73"/>
        <line class="cls-29" x1="867.39" y1="38.29" x2="867.39" y2="614.73"/>
        <line class="cls-29" x1="904.61" y1="38.29" x2="904.61" y2="614.73"/>
        <line class="cls-29" x1="941.83" y1="38.29" x2="941.83" y2="614.73"/>
        <line class="cls-29" x1="979.05" y1="38.29" x2="979.05" y2="614.73"/>
        <line class="cls-29" x1="1016.27" y1="38.29" x2="1016.27" y2="614.73"/>
        <line class="cls-29" x1="1053.49" y1="38.29" x2="1053.49" y2="614.73"/>
        <line class="cls-29" x1="1090.71" y1="38.29" x2="1090.71" y2="614.73"/>
      </g>
      <g>
        <line class="cls-29" x1="608.31" y1="36.33" x2="1093.15" y2="36.33"/>
        <line class="cls-29" x1="608.31" y1="104.76" x2="1093.15" y2="104.76"/>
        <line class="cls-29" x1="608.31" y1="70.54" x2="1093.15" y2="70.54"/>
        <line class="cls-29" x1="608.31" y1="173.18" x2="1093.15" y2="173.18"/>
        <line class="cls-29" x1="608.31" y1="138.97" x2="1093.15" y2="138.97"/>
        <line class="cls-29" x1="608.31" y1="241.61" x2="1093.15" y2="241.61"/>
        <line class="cls-29" x1="608.31" y1="207.4" x2="1093.15" y2="207.4"/>
      </g>
    </g>
  </g>
  <g>
    <circle class="cls-15" cx="113" cy="531.32" r="14.98"/>
    <circle class="cls-15" cx="113" cy="465.33" r="14.98"/>
    <circle class="cls-15" cx="113" cy="498.46" r="14.98"/>
    <circle class="cls-15" cx="113" cy="432.2" r="14.98"/>
    <circle class="cls-27" cx="113" cy="398.8" r="14.98"/>
    <circle class="cls-21" cx="113" cy="364.68" r="14.98"/>
    <circle class="cls-22" cx="113" cy="331.1" r="14.98"/>
    <circle class="cls-23" cx="113" cy="296.44" r="14.98"/>
    <circle class="cls-19" cx="113" cy="201.91" r="14.98"/>
    <circle class="cls-19" cx="113" cy="232.47" r="14.98"/>
    <circle class="cls-17" cx="113" cy="263.75" r="14.98"/>
    <circle class="cls-18" cx="113" cy="176.32" r="14.98"/>
    <circle class="cls-20" cx="113" cy="159.27" r="14.98"/>
    <circle class="cls-26" cx="113" cy="145.76" r="14.98"/>
    <circle class="cls-16" cx="113" cy="134.39" r="14.98"/>
    <circle class="cls-24" cx="113" cy="121.59" r="14.98"/>
    <circle class="cls-25" cx="113" cy="110.93" r="14.98"/>
  </g>
  <g>
    <path class="cls-14" d="m86.91,579.73v-17.06h5.43c1.8,0,3.16.38,4.07,1.15.91.77,1.36,1.9,1.36,3.4,0,.8-.22,1.5-.66,2.12s-1.04,1.09-1.8,1.42c.9.26,1.61.75,2.13,1.47s.78,1.58.78,2.58c0,1.53-.48,2.73-1.45,3.61s-2.33,1.31-4.1,1.31h-5.76Zm2.19-9.79h3.31c.96,0,1.72-.25,2.3-.74.57-.49.86-1.16.86-2.01,0-.94-.27-1.62-.8-2.05-.53-.43-1.34-.64-2.43-.64h-3.24v5.44Zm0,1.8v6.14h3.62c1.02,0,1.82-.27,2.41-.81.59-.54.88-1.29.88-2.24,0-2.05-1.09-3.08-3.26-3.08h-3.65Z"/>
    <path class="cls-14" d="m108.74,579.73c-.12-.25-.22-.7-.3-1.34-.98,1.05-2.15,1.57-3.51,1.57-1.22,0-2.21-.35-2.99-1.06-.78-.71-1.17-1.6-1.17-2.69,0-1.32.49-2.35,1.47-3.08.98-.73,2.35-1.1,4.12-1.1h2.05v-1c0-.76-.22-1.36-.66-1.81s-1.09-.67-1.95-.67c-.75,0-1.38.2-1.89.59-.51.39-.76.86-.76,1.42h-2.12c0-.63.22-1.24.66-1.83s1.03-1.06,1.78-1.4,1.57-.52,2.47-.52c1.42,0,2.54.37,3.34,1.1.81.73,1.22,1.74,1.25,3.02v5.84c0,1.16.14,2.09.43,2.78v.19h-2.21Zm-3.5-1.65c.66,0,1.29-.18,1.88-.53.59-.35,1.02-.81,1.29-1.37v-2.6h-1.65c-2.59,0-3.88.78-3.88,2.33,0,.68.22,1.21.66,1.59.44.38,1.01.57,1.7.57Z"/>
    <path class="cls-14" d="m116.12,579.73h-2.11v-18h2.11v18Z"/>
    <path class="cls-14" d="m121.79,579.73h-2.11v-18h2.11v18Z"/>
    <path class="cls-14" d="m140.45,575.26h-6.96l-1.56,4.46h-2.26l6.34-17.06h1.92l6.35,17.06h-2.25l-1.59-4.46Zm-6.3-1.84h5.65l-2.83-7.98-2.82,7.98Z"/>
  </g>
  <g>
    <circle class="cls-10" cx="416.51" cy="112.78" r="14.98"/>
    <circle class="cls-9" cx="458.32" cy="113.55" r="14.98"/>
    <circle class="cls-4" cx="497.84" cy="118.92" r="14.98"/>
    <circle class="cls-2" cx="538.09" cy="126.63" r="14.98"/>
    <circle class="cls-3" cx="578.2" cy="137.04" r="14.98"/>
    <circle class="cls-11" cx="617.39" cy="150.51" r="14.98"/>
    <circle class="cls-11" cx="656.25" cy="166.13" r="14.98"/>
    <circle class="cls-6" cx="693.18" cy="182.61" r="14.98"/>
    <circle class="cls-8" cx="732.54" cy="203.52" r="14.98"/>
    <circle class="cls-7" cx="769.16" cy="226.51" r="14.98"/>
    <circle class="cls-5" cx="803.81" cy="249.1" r="14.98"/>
    <circle class="cls-1" cx="838.16" cy="273.54" r="14.98"/>
    <circle class="cls-1" cx="870.95" cy="299.22" r="14.98"/>
    <circle class="cls-1" cx="902.82" cy="327.68" r="14.98"/>
    <circle class="cls-1" cx="933.14" cy="357.69" r="14.98"/>
    <circle class="cls-1" cx="961.6" cy="387.7" r="14.98"/>
    <circle class="cls-1" cx="988.2" cy="419.88" r="14.98"/>
    <circle class="cls-1" cx="1012.03" cy="454.22" r="14.98"/>
    <circle class="cls-1" cx="1033.13" cy="488.81" r="14.98"/>
    <circle class="cls-1" cx="1051.99" cy="530.54" r="14.98"/>
  </g>
  <g>
    <rect class="cls-13" x="209.35" y="127.88" width="233.18" height="22.28"/>
    <rect class="cls-13" x="209.35" y="139.75" width="149.7" height="41.85"/>
    <rect class="cls-13" x="339.11" y="148.14" width="73.71" height="398.95"/>
  </g>
  <g>
    <path class="cls-14" d="m1022.49,580.44v-17.06h5.43c1.8,0,3.16.38,4.07,1.15s1.36,1.9,1.36,3.4c0,.8-.22,1.5-.66,2.12s-1.04,1.09-1.8,1.42c.9.26,1.61.75,2.13,1.47.52.72.78,1.58.78,2.58,0,1.53-.48,2.73-1.45,3.61-.96.88-2.33,1.31-4.1,1.31h-5.76Zm2.19-9.79h3.31c.96,0,1.72-.25,2.3-.74.57-.49.86-1.16.86-2.01,0-.94-.27-1.62-.8-2.05-.53-.43-1.34-.64-2.43-.64h-3.24v5.44Zm0,1.8v6.14h3.62c1.02,0,1.82-.27,2.41-.81s.88-1.29.88-2.24c0-2.05-1.09-3.08-3.26-3.08h-3.65Z"/>
    <path class="cls-14" d="m1044.33,580.44c-.12-.25-.22-.7-.3-1.34-.98,1.05-2.15,1.57-3.51,1.57-1.22,0-2.21-.35-2.99-1.06s-1.17-1.6-1.17-2.69c0-1.32.49-2.35,1.47-3.08s2.35-1.1,4.12-1.1h2.05v-1c0-.76-.22-1.36-.66-1.81s-1.09-.67-1.95-.67c-.75,0-1.38.2-1.89.59-.51.39-.77.86-.77,1.42h-2.12c0-.63.22-1.24.66-1.83s1.03-1.06,1.78-1.4c.75-.34,1.57-.52,2.47-.52,1.42,0,2.54.37,3.34,1.1.8.73,1.22,1.74,1.25,3.02v5.84c0,1.16.14,2.09.43,2.78v.19h-2.21Zm-3.5-1.65c.66,0,1.29-.18,1.88-.53.59-.35,1.02-.81,1.29-1.37v-2.6h-1.65c-2.59,0-3.88.78-3.88,2.33,0,.68.22,1.21.66,1.59.44.38,1.01.57,1.7.57Z"/>
    <path class="cls-14" d="m1051.71,580.44h-2.11v-18h2.11v18Z"/>
    <path class="cls-14" d="m1057.38,580.44h-2.11v-18h2.11v18Z"/>
    <path class="cls-14" d="m1066.87,580.44v-17.06h5.43c1.8,0,3.16.38,4.07,1.15s1.36,1.9,1.36,3.4c0,.8-.22,1.5-.66,2.12s-1.04,1.09-1.8,1.42c.9.26,1.61.75,2.13,1.47.52.72.78,1.58.78,2.58,0,1.53-.48,2.73-1.45,3.61-.96.88-2.33,1.31-4.1,1.31h-5.76Zm2.19-9.79h3.31c.96,0,1.72-.25,2.3-.74.57-.49.86-1.16.86-2.01,0-.94-.27-1.62-.8-2.05-.53-.43-1.34-.64-2.43-.64h-3.24v5.44Zm0,1.8v6.14h3.62c1.02,0,1.82-.27,2.41-.81s.88-1.29.88-2.24c0-2.05-1.09-3.08-3.26-3.08h-3.65Z"/>
  </g>
  <path class="cls-12" d="m442.53,150.17c-77.44,1.34-155.74,1.35-233.18,0,77.44-1.35,155.74-1.34,233.18,0h0Z"/>
  <path class="cls-12" d="m339.79,150.84c1.11,126.63.9,268.69-.6,395.32-1.12-126.63-.89-268.69.6-395.32h0Z"/>
</svg>