<?xml version="1.0" encoding="UTF-8"?>
<svg id="Layer_1" data-name="Layer 1" xmlns="http://www.w3.org/2000/svg" width="1140" height="705.14" viewBox="0 0 1140 705.14">
  <defs>
    <style>
      .cls-1 {
        stroke: #5c539c;
        stroke-width: 3px;
      }

      .cls-1, .cls-2, .cls-3 {
        fill: none;
        stroke-miterlimit: 10;
      }

      .cls-4 {
        fill: #5c539c;
      }

      .cls-2 {
        stroke-dasharray: 0 0 3 8;
      }

      .cls-2, .cls-3 {
        stroke: #000;
        stroke-linecap: round;
        stroke-width: 2px;
      }
    </style>
  </defs>
  <g>
    <line class="cls-2" x1="258.59" y1="19.95" x2="112.01" y2="19.95"/>
    <polygon points="255.67 9.97 272.94 19.95 255.67 29.92 255.67 9.97"/>
  </g>
  <g>
    <line class="cls-2" x1="290.2" y1="389.11" x2="117.38" y2="389.11"/>
    <polygon points="287.29 379.14 304.56 389.11 287.29 399.08 287.29 379.14"/>
  </g>
  <g>
    <line class="cls-2" x1="460.84" y1="59.78" x2="314.27" y2="59.78"/>
    <polygon points="457.92 49.8 475.19 59.78 457.92 69.75 457.92 49.8"/>
  </g>
  <g>
    <line class="cls-3" x1="478.61" y1="105.38" x2="478.61" y2="59.78"/>
    <polygon points="488.58 102.46 478.61 119.73 468.63 102.46 488.58 102.46"/>
  </g>
  <g>
    <line class="cls-1" x1="458.49" y1="117.87" x2="309.05" y2="61.94"/>
    <polygon class="cls-4" points="459.63 102.32 478.65 125.41 449.15 130.34 459.63 102.32"/>
  </g>
  <g>
    <g>
      <line class="cls-2" x1="657.65" y1="138.23" x2="511.08" y2="138.23"/>
      <polygon points="654.74 128.25 672.01 138.23 654.74 148.2 654.74 128.25"/>
    </g>
    <g>
      <line class="cls-3" x1="675.42" y1="207.4" x2="675.42" y2="138.23"/>
      <polygon points="685.39 204.48 675.42 221.75 665.45 204.48 685.39 204.48"/>
    </g>
    <g>
      <line class="cls-1" x1="656.55" y1="222.23" x2="505.86" y2="140.4"/>
      <polygon class="cls-4" points="659.84 207 675.47 232.51 645.56 233.29 659.84 207"/>
    </g>
  </g>
  <g>
    <g>
      <line class="cls-2" x1="852.41" y1="249.64" x2="705.83" y2="249.64"/>
      <polygon points="849.49 239.67 866.76 249.64 849.49 259.61 849.49 239.67"/>
    </g>
    <g>
      <line class="cls-3" x1="870.17" y1="384.72" x2="870.17" y2="249.64"/>
      <polygon points="880.14 381.8 870.17 399.07 860.2 381.8 880.14 381.8"/>
    </g>
    <g>
      <line class="cls-1" x1="845.6" y1="385.75" x2="700.62" y2="251.81"/>
      <polygon class="cls-4" points="852.54 371.79 861.42 400.35 832.24 393.76 852.54 371.79"/>
    </g>
  </g>
  <g>
    <g>
      <line class="cls-2" x1="1040.47" y1="427.54" x2="893.89" y2="427.54"/>
      <polygon points="1037.55 417.56 1054.82 427.54 1037.55 437.51 1037.55 417.56"/>
    </g>
    <g>
      <line class="cls-3" x1="1058.23" y1="687.73" x2="1058.23" y2="427.54"/>
      <polygon points="1068.2 684.81 1058.23 702.08 1048.26 684.81 1068.2 684.81"/>
    </g>
    <g>
      <line class="cls-1" x1="1037.15" y1="683.62" x2="883.54" y2="427.78"/>
      <polygon class="cls-4" points="1047.72 672.17 1048.23 702.08 1022.07 687.57 1047.72 672.17"/>
    </g>
  </g>
  <g>
    <line class="cls-3" x1="290.2" y1="474.21" x2="117.38" y2="474.21"/>
    <polygon points="287.29 464.23 304.56 474.21 287.29 484.18 287.29 464.23"/>
  </g>
  <g>
    <line class="cls-1" x1="283.03" y1="562.67" x2="117.38" y2="562.67"/>
    <polygon class="cls-4" points="278.65 547.71 304.56 562.67 278.65 577.63 278.65 547.71"/>
  </g>
  <g>
    <g>
      <path d="m377.39,384.34c0-2.36.32-4.62.95-6.8.63-2.17,1.57-4.15,2.83-5.92,1.25-1.77,2.55-3.03,3.9-3.76l.6,1.91c-1.52,1.17-2.77,2.96-3.75,5.36s-1.51,5.09-1.61,8.07l-.02,1.33c0,4.03.74,7.53,2.21,10.49.89,1.78,1.94,3.16,3.16,4.17l-.6,1.77c-1.39-.77-2.72-2.07-3.98-3.88-2.46-3.55-3.7-7.79-3.7-12.73Z"/>
      <path d="m395.26,391.54c1.03,0,1.94-.31,2.71-.94.77-.63,1.2-1.41,1.28-2.35h2.74c-.05.97-.39,1.9-1,2.77-.62.88-1.44,1.58-2.47,2.1-1.03.52-2.12.78-3.27.78-2.31,0-4.14-.77-5.51-2.31s-2.04-3.65-2.04-6.32v-.49c0-1.65.3-3.12.91-4.4s1.48-2.28,2.61-2.99c1.13-.71,2.47-1.06,4.02-1.06,1.9,0,3.48.57,4.74,1.71,1.26,1.14,1.93,2.62,2.01,4.43h-2.74c-.08-1.1-.5-2-1.25-2.7-.75-.7-1.67-1.06-2.76-1.06-1.47,0-2.61.53-3.42,1.59-.81,1.06-1.21,2.59-1.21,4.6v.55c0,1.95.4,3.46,1.21,4.51s1.95,1.58,3.45,1.58Z"/>
      <path d="m404.49,384.96c0-1.66.33-3.15.98-4.48.65-1.33,1.56-2.35,2.73-3.07,1.16-.72,2.49-1.08,3.99-1.08,2.31,0,4.17.8,5.6,2.4s2.14,3.72,2.14,6.37v.2c0,1.65-.32,3.13-.95,4.44-.63,1.31-1.54,2.33-2.71,3.06-1.17.73-2.52,1.1-4.05,1.1-2.3,0-4.16-.8-5.58-2.4s-2.14-3.71-2.14-6.34v-.2Zm2.91.34c0,1.88.44,3.39,1.31,4.53.87,1.14,2.04,1.71,3.5,1.71s2.64-.58,3.51-1.73c.87-1.15,1.3-2.77,1.3-4.85,0-1.86-.44-3.37-1.32-4.52-.88-1.15-2.05-1.73-3.52-1.73s-2.58.57-3.46,1.71c-.88,1.14-1.32,2.77-1.32,4.89Z"/>
      <path d="m426.29,376.65l.09,2.13c1.29-1.63,2.99-2.44,5.07-2.44,3.58,0,5.39,2.02,5.42,6.06v11.2h-2.9v-11.21c-.01-1.22-.29-2.12-.84-2.71-.55-.58-1.4-.88-2.56-.88-.94,0-1.76.25-2.47.75-.71.5-1.26,1.16-1.66,1.97v12.08h-2.9v-16.95h2.74Z"/>
      <path d="m451.11,389.1c0-.78-.3-1.39-.88-1.82-.59-.43-1.62-.81-3.09-1.12-1.47-.31-2.63-.69-3.49-1.13-.86-.44-1.5-.96-1.91-1.57s-.62-1.33-.62-2.16c0-1.39.59-2.56,1.76-3.52,1.17-.96,2.68-1.44,4.5-1.44,1.92,0,3.48.5,4.68,1.49,1.2.99,1.79,2.26,1.79,3.81h-2.91c0-.79-.34-1.48-1.01-2.05s-1.52-.86-2.54-.86-1.88.23-2.47.69c-.6.46-.89,1.06-.89,1.8,0,.7.28,1.23.83,1.58.55.35,1.55.69,3,1.02,1.45.32,2.62.71,3.52,1.16s1.56.99,2,1.62c.43.63.65,1.4.65,2.31,0,1.51-.61,2.73-1.82,3.64-1.21.91-2.78,1.37-4.71,1.37-1.36,0-2.56-.24-3.6-.72-1.04-.48-1.86-1.15-2.45-2.01-.59-.86-.89-1.79-.89-2.8h2.9c.05.97.44,1.74,1.17,2.31s1.68.85,2.87.85c1.1,0,1.98-.22,2.64-.67.66-.44.99-1.04.99-1.78Z"/>
      <path d="m461.72,372.54v4.1h3.16v2.24h-3.16v10.52c0,.68.14,1.19.42,1.53s.76.51,1.44.51c.33,0,.79-.06,1.38-.19v2.34c-.76.21-1.5.31-2.22.31-1.29,0-2.27-.39-2.93-1.17-.66-.78-.99-1.9-.99-3.34v-10.51h-3.09v-2.24h3.09v-4.1h2.9Z"/>
      <path d="m478.73,393.59c-.17-.33-.3-.93-.41-1.79-1.35,1.4-2.96,2.1-4.82,2.1-1.67,0-3.04-.47-4.11-1.42-1.07-.94-1.61-2.14-1.61-3.59,0-1.76.67-3.14,2.01-4.11,1.34-.98,3.23-1.46,5.66-1.46h2.82v-1.33c0-1.01-.3-1.82-.91-2.42s-1.5-.9-2.68-.9c-1.03,0-1.9.26-2.6.78-.7.52-1.05,1.15-1.05,1.9h-2.91c0-.85.3-1.66.9-2.45.6-.79,1.42-1.41,2.44-1.87,1.03-.46,2.16-.69,3.39-.69,1.95,0,3.48.49,4.59,1.46,1.11.98,1.68,2.32,1.72,4.03v7.8c0,1.56.2,2.79.6,3.71v.25h-3.04Zm-4.81-2.21c.91,0,1.77-.24,2.58-.71s1.4-1.08,1.77-1.83v-3.48h-2.27c-3.55,0-5.33,1.04-5.33,3.12,0,.91.3,1.62.91,2.13.61.51,1.38.77,2.33.77Z"/>
      <path d="m488.45,376.65l.09,2.13c1.29-1.63,2.99-2.44,5.07-2.44,3.58,0,5.39,2.02,5.42,6.06v11.2h-2.9v-11.21c-.01-1.22-.29-2.12-.84-2.71-.55-.58-1.4-.88-2.56-.88-.94,0-1.76.25-2.47.75-.71.5-1.26,1.16-1.66,1.97v12.08h-2.9v-16.95h2.74Z"/>
      <path d="m507.34,372.54v4.1h3.16v2.24h-3.16v10.52c0,.68.14,1.19.42,1.53s.76.51,1.44.51c.33,0,.79-.06,1.38-.19v2.34c-.76.21-1.5.31-2.22.31-1.29,0-2.27-.39-2.93-1.17-.66-.78-.99-1.9-.99-3.34v-10.51h-3.09v-2.24h3.09v-4.1h2.9Z"/>
      <path d="m520.58,384.49c0,2.33-.31,4.56-.92,6.7-.61,2.14-1.55,4.11-2.8,5.91-1.26,1.81-2.58,3.09-3.95,3.85l-.61-1.77c1.61-1.23,2.9-3.15,3.88-5.74.98-2.59,1.47-5.47,1.5-8.64v-.5c0-2.19-.23-4.23-.69-6.12-.46-1.88-1.1-3.57-1.92-5.07s-1.74-2.66-2.76-3.49l.61-1.77c1.38.76,2.69,2.04,3.94,3.82,1.25,1.79,2.18,3.75,2.8,5.9.62,2.15.93,4.45.93,6.91Z"/>
    </g>
    <g>
      <path d="m364.1,365.22c-2.65,1.13-4.75,3.18-6.56,5.29l-.57-.54c.65-.89,1.43-1.78,2.27-2.64.24-.24.38-.54.38-.78,0-.27-.22-.54-.7-.54h-16.55v-1.83h16.57c.27,0,.7-.32.7-.59,0-.24-.11-.43-.38-.7-.81-.76-1.65-1.73-2.27-2.65l.57-.54c1.78,2.08,3.89,4.16,6.53,5.26v.27Z"/>
      <path d="m352.17,390.9l4.88-14.07h2.46l-6.33,17.06h-1.99l-6.32-17.06h2.45l4.85,14.07Z"/>
    </g>
  </g>
  <g>
    <g>
      <path d="m377.39,473.81c0-2.36.32-4.62.95-6.8.63-2.17,1.57-4.15,2.83-5.92,1.25-1.77,2.55-3.03,3.9-3.76l.6,1.91c-1.52,1.17-2.77,2.96-3.75,5.36s-1.51,5.09-1.61,8.07l-.02,1.33c0,4.03.74,7.53,2.21,10.49.89,1.78,1.94,3.16,3.16,4.17l-.6,1.77c-1.39-.77-2.72-2.07-3.98-3.88-2.46-3.55-3.7-7.79-3.7-12.73Z"/>
      <path d="m388.48,461.62c0-.47.14-.87.43-1.19.29-.32.71-.49,1.28-.49s.99.16,1.28.49c.29.32.44.72.44,1.19s-.15.86-.44,1.17c-.29.31-.72.47-1.28.47s-.99-.16-1.28-.47c-.29-.31-.43-.71-.43-1.17Zm3.13,21.44h-2.9v-16.95h2.9v16.95Z"/>
      <path d="m398.99,466.12l.09,2.13c1.29-1.63,2.99-2.44,5.07-2.44,3.58,0,5.39,2.02,5.42,6.06v11.2h-2.9v-11.21c-.01-1.22-.29-2.12-.84-2.71-.55-.58-1.4-.88-2.56-.88-.94,0-1.76.25-2.47.75-.71.5-1.26,1.16-1.66,1.97v12.08h-2.9v-16.95h2.74Z"/>
      <path d="m420.75,481.01c1.03,0,1.94-.31,2.71-.94.77-.63,1.2-1.41,1.28-2.35h2.74c-.05.97-.39,1.9-1,2.77-.62.88-1.44,1.58-2.47,2.1-1.03.52-2.12.78-3.27.78-2.31,0-4.14-.77-5.51-2.31s-2.04-3.65-2.04-6.32v-.49c0-1.65.3-3.12.91-4.4s1.48-2.28,2.61-2.99c1.13-.71,2.47-1.06,4.02-1.06,1.9,0,3.48.57,4.74,1.71,1.26,1.14,1.93,2.62,2.01,4.43h-2.74c-.08-1.1-.5-2-1.25-2.7-.75-.7-1.67-1.06-2.76-1.06-1.47,0-2.61.53-3.42,1.59-.81,1.06-1.21,2.59-1.21,4.6v.55c0,1.95.4,3.46,1.21,4.51s1.95,1.58,3.45,1.58Z"/>
      <path d="m438.93,468.72c-.44-.07-.91-.11-1.43-.11-1.9,0-3.19.81-3.87,2.43v12.03h-2.9v-16.95h2.82l.05,1.96c.95-1.51,2.3-2.27,4.04-2.27.56,0,.99.07,1.28.22v2.69Z"/>
      <path d="m448.62,483.38c-2.3,0-4.17-.75-5.61-2.26s-2.16-3.53-2.16-6.05v-.53c0-1.68.32-3.18.96-4.5.64-1.32,1.54-2.35,2.69-3.1,1.15-.75,2.4-1.12,3.75-1.12,2.2,0,3.92.73,5.14,2.18s1.83,3.53,1.83,6.23v1.21h-11.48c.04,1.67.53,3.02,1.46,4.05s2.12,1.54,3.56,1.54c1.02,0,1.89-.21,2.6-.63.71-.42,1.33-.97,1.86-1.66l1.77,1.38c-1.42,2.18-3.55,3.27-6.39,3.27Zm-.36-15.19c-1.17,0-2.15.42-2.94,1.28-.79.85-1.28,2.04-1.47,3.58h8.49v-.22c-.08-1.47-.48-2.61-1.19-3.42-.71-.81-1.67-1.21-2.88-1.21Z"/>
      <path d="m469.05,483.06c-.17-.33-.3-.93-.41-1.79-1.35,1.4-2.96,2.1-4.82,2.1-1.67,0-3.04-.47-4.11-1.42-1.07-.94-1.61-2.14-1.61-3.59,0-1.76.67-3.14,2.01-4.11,1.34-.98,3.23-1.46,5.66-1.46h2.82v-1.33c0-1.01-.3-1.82-.91-2.42s-1.5-.9-2.68-.9c-1.03,0-1.9.26-2.6.78-.7.52-1.05,1.15-1.05,1.9h-2.91c0-.85.3-1.66.9-2.45.6-.79,1.42-1.41,2.44-1.87,1.03-.46,2.16-.69,3.39-.69,1.95,0,3.48.49,4.59,1.46,1.11.98,1.68,2.32,1.72,4.03v7.8c0,1.56.2,2.79.6,3.71v.25h-3.04Zm-4.81-2.21c.91,0,1.77-.24,2.58-.71s1.4-1.08,1.77-1.83v-3.48h-2.27c-3.55,0-5.33,1.04-5.33,3.12,0,.91.3,1.62.91,2.13.61.51,1.38.77,2.33.77Z"/>
      <path d="m485.9,478.57c0-.78-.3-1.39-.88-1.82-.59-.43-1.62-.81-3.09-1.12-1.47-.31-2.63-.69-3.49-1.13-.86-.44-1.5-.96-1.91-1.57s-.62-1.33-.62-2.16c0-1.39.59-2.56,1.76-3.52,1.17-.96,2.68-1.44,4.5-1.44,1.92,0,3.48.5,4.68,1.49,1.2.99,1.79,2.26,1.79,3.81h-2.91c0-.79-.34-1.48-1.01-2.05s-1.52-.86-2.54-.86-1.88.23-2.47.69c-.6.46-.89,1.06-.89,1.8,0,.7.28,1.23.83,1.58.55.35,1.55.69,3,1.02,1.45.32,2.62.71,3.52,1.16s1.56.99,2,1.62c.43.63.65,1.4.65,2.31,0,1.51-.61,2.73-1.82,3.64-1.21.91-2.78,1.37-4.71,1.37-1.36,0-2.56-.24-3.6-.72-1.04-.48-1.86-1.15-2.45-2.01-.59-.86-.89-1.79-.89-2.8h2.9c.05.97.44,1.74,1.17,2.31s1.68.85,2.87.85c1.1,0,1.98-.22,2.64-.67.66-.44.99-1.04.99-1.78Z"/>
      <path d="m492.59,461.62c0-.47.14-.87.43-1.19.29-.32.71-.49,1.28-.49s.99.16,1.28.49c.29.32.44.72.44,1.19s-.15.86-.44,1.17c-.29.31-.72.47-1.28.47s-.99-.16-1.28-.47c-.29-.31-.43-.71-.43-1.17Zm3.13,21.44h-2.9v-16.95h2.9v16.95Z"/>
      <path d="m503.1,466.12l.09,2.13c1.29-1.63,2.99-2.44,5.07-2.44,3.58,0,5.39,2.02,5.42,6.06v11.2h-2.9v-11.21c-.01-1.22-.29-2.12-.84-2.71-.55-.58-1.4-.88-2.56-.88-.94,0-1.76.25-2.47.75-.71.5-1.26,1.16-1.66,1.97v12.08h-2.9v-16.95h2.74Z"/>
      <path d="m517.37,474.45c0-2.64.61-4.74,1.83-6.3,1.22-1.56,2.84-2.34,4.86-2.34s3.68.73,4.84,2.19l.14-1.88h2.65v16.54c0,2.19-.65,3.92-1.95,5.18-1.3,1.26-3.05,1.89-5.24,1.89-1.22,0-2.42-.26-3.59-.78-1.17-.52-2.06-1.24-2.68-2.15l1.5-1.74c1.24,1.54,2.76,2.3,4.56,2.3,1.41,0,2.51-.4,3.3-1.19.79-.79,1.18-1.91,1.18-3.35v-1.46c-1.16,1.34-2.74,2-4.75,2s-3.59-.8-4.82-2.4-1.84-3.77-1.84-6.53Zm2.91.33c0,1.91.39,3.41,1.17,4.5s1.88,1.64,3.29,1.64c1.83,0,3.17-.83,4.03-2.49v-7.74c-.89-1.62-2.22-2.43-3.99-2.43-1.41,0-2.51.55-3.31,1.64s-1.19,2.72-1.19,4.87Z"/>
      <path d="m542.74,473.96c0,2.33-.31,4.56-.92,6.7-.61,2.14-1.55,4.11-2.8,5.91-1.26,1.81-2.58,3.09-3.95,3.85l-.61-1.77c1.61-1.23,2.9-3.15,3.88-5.74.98-2.59,1.47-5.47,1.5-8.64v-.5c0-2.19-.23-4.23-.69-6.12-.46-1.88-1.1-3.57-1.92-5.07s-1.74-2.66-2.76-3.49l.61-1.77c1.38.76,2.69,2.04,3.94,3.82,1.25,1.79,2.18,3.75,2.8,5.9.62,2.15.93,4.45.93,6.91Z"/>
    </g>
    <g>
      <path d="m364.1,454.69c-2.65,1.13-4.75,3.18-6.56,5.29l-.57-.54c.65-.89,1.43-1.78,2.27-2.65.24-.24.38-.54.38-.78,0-.27-.22-.54-.7-.54h-16.55v-1.83h16.57c.27,0,.7-.32.7-.59,0-.24-.11-.43-.38-.7-.81-.76-1.65-1.73-2.27-2.65l.57-.54c1.78,2.08,3.89,4.16,6.53,5.26v.27Z"/>
      <path d="m374.99,481.58c-1.05,0-1.48.38-2.02,1.78l-4.26,10.37h-1.3l-4.02-10.18c-.7-1.67-1.03-1.97-2.19-1.97v-.78h5.7v.78c-1.05,0-1.4.24-1.4.67,0,.35.11.67.27,1.05l2.29,6.02.51,1.62h.16l.57-1.65,2.32-6.1c.03-.13.19-.46.19-.89,0-.59-.57-.73-1.54-.73v-.78h4.72v.78Z"/>
      <path d="m352.17,480.37l4.88-14.07h2.46l-6.33,17.06h-1.99l-6.32-17.06h2.45l4.85,14.07Z"/>
    </g>
  </g>
  <g>
    <path d="m364.1,544.07c-2.65,1.13-4.75,3.19-6.56,5.29l-.57-.54c.65-.89,1.43-1.78,2.27-2.65.24-.24.38-.54.38-.78,0-.27-.22-.54-.7-.54h-16.55v-1.84h16.57c.27,0,.7-.32.7-.59,0-.24-.11-.43-.38-.7-.81-.76-1.65-1.73-2.27-2.64l.57-.54c1.78,2.08,3.89,4.16,6.53,5.26v.27Z"/>
    <path d="m364,577.92c-1.3-.76-2.08-1.92-2.08-3.67,0-2.7,2.02-4.4,4.89-4.4,1.78,0,3,.67,3,.67l3.48-.19v1.46l-2.54-.08v.13c.38.54.97,1.43.97,2.78,0,2.51-1.94,4.1-4.78,4.1-.86,0-1.62-.16-2.32-.41-.27.38-.7,1.35-.7,1.81,0,.81.7,1.08,3.19,1.08,3.4,0,5.99.11,5.99,3.21,0,3.62-4,4.86-7.4,4.86s-4.59-1.48-4.59-2.97c0-.89.73-1.81,2.19-3.21v-.11c-.92-.46-1.51-1.19-1.51-1.94,0-.97.94-2.11,2.21-3.08v-.05Zm-.78,7.48c0,1.57,1.3,2.35,4.05,2.35,3.19,0,4.45-1.4,4.45-2.56,0-1.94-2.89-1.89-4.7-1.92-2.16-.03-2.67-.05-3.05-.05-.57,1-.76,1.62-.76,2.19Zm1.08-11.26c0,2.32.92,3.64,2.67,3.64,1.35,0,2.35-.76,2.35-3.32,0-2.19-.97-3.64-2.7-3.64-1.4,0-2.32,1.05-2.32,3.32Z"/>
    <path d="m352.17,569.75l4.88-14.07h2.46l-6.33,17.06h-1.99l-6.32-17.06h2.45l4.85,14.07Z"/>
  </g>
</svg>