<?xml version="1.0" encoding="UTF-8"?>
<svg id="a" data-name="Layer 1" xmlns="http://www.w3.org/2000/svg" width="570" height="420" viewBox="0 0 570 420">
  <path d="M354.85,15.75C288.79,35.34,100.2-38.82,27.44,38.49c-59.74,63.48,21.22,124.29-13.64,244.04-55.76,191.53,150.06,83.37,278.91,116.72,206.83,53.53,295.61-28.9,273.07-105.41-39.59-134.41-2.04-128.05,2.8-196.23,6.44-90.69-121.9-109.09-213.73-81.85Z" fill="#efdff2" stroke-width="0"/>
  <circle cx="106.76" cy="197" r="66.47" fill="#bfaacc" stroke-width="0"/>
  <g id="b" data-name="sph3u_02.09.37c">
    <g>
      <g>
        <path d="M229.06,188.94v1.84h-.4c-1.69.03-3.03.53-4.03,1.5s-1.58,2.33-1.73,4.09c.9-1.03,2.12-1.55,3.68-1.55s2.67.52,3.56,1.57,1.33,2.4,1.33,4.05c0,1.76-.48,3.16-1.44,4.22s-2.24,1.58-3.85,1.58-2.96-.63-3.97-1.88-1.52-2.87-1.52-4.85v-.83c0-3.14.67-5.54,2.01-7.2s3.33-2.51,5.98-2.55h.39ZM226.21,196.63c-.74,0-1.43.22-2.05.67s-1.06,1-1.3,1.68v.8c0,1.41.32,2.54.95,3.4s1.42,1.29,2.37,1.29,1.74-.36,2.3-1.08.84-1.66.84-2.82-.28-2.12-.85-2.84-1.32-1.08-2.26-1.08Z" fill="#000" stroke-width="0"/>
        <path d="M234.3,204.88c0-.38.11-.69.33-.94s.56-.38,1-.38.78.12,1.01.38.35.56.35.94-.12.66-.35.9-.57.36-1.01.36-.78-.12-1-.36-.33-.54-.33-.9Z" fill="#000" stroke-width="0"/>
        <path d="M248.85,188.94v1.84h-.4c-1.69.03-3.03.53-4.03,1.5s-1.58,2.33-1.73,4.09c.9-1.03,2.12-1.55,3.68-1.55s2.67.52,3.56,1.57,1.33,2.4,1.33,4.05c0,1.76-.48,3.16-1.44,4.22s-2.24,1.58-3.85,1.58-2.96-.63-3.97-1.88-1.52-2.87-1.52-4.85v-.83c0-3.14.67-5.54,2.01-7.2s3.33-2.51,5.98-2.55h.39ZM246,196.63c-.74,0-1.43.22-2.05.67s-1.06,1-1.3,1.68v.8c0,1.41.32,2.54.95,3.4s1.42,1.29,2.37,1.29,1.74-.36,2.3-1.08.84-1.66.84-2.82-.28-2.12-.85-2.84-1.32-1.08-2.26-1.08Z" fill="#000" stroke-width="0"/>
        <path d="M264.84,190.17l-7.07,15.84h-2.27l7.04-15.28h-9.23v-1.78h11.53v1.22Z" fill="#000" stroke-width="0"/>
        <path d="M272.86,202.16l3.87-3.94-3.84-3.93,1.39-1.44,3.86,3.93,3.86-3.93,1.39,1.44-3.84,3.93,3.87,3.94-1.39,1.44-3.88-3.95-3.88,3.95-1.39-1.44Z" fill="#000" stroke-width="0"/>
        <path d="M293.16,206.02h-2.18v-14.45l-4.37,1.61v-1.97l6.21-2.33h.34v17.14Z" fill="#000" stroke-width="0"/>
        <path d="M310.21,198.74c0,2.54-.43,4.43-1.3,5.66s-2.22,1.85-4.07,1.85-3.17-.6-4.04-1.81-1.33-3.01-1.36-5.41v-2.89c0-2.51.43-4.37,1.3-5.59s2.23-1.83,4.08-1.83,3.19.59,4.05,1.76,1.31,2.99,1.34,5.44v2.81ZM308.04,195.78c0-1.84-.26-3.17-.77-4.01s-1.33-1.26-2.45-1.26-1.92.42-2.43,1.25-.77,2.12-.79,3.86v3.47c0,1.84.27,3.21.8,4.08s1.35,1.32,2.43,1.32,1.87-.41,2.38-1.24.79-2.13.81-3.91v-3.55Z" fill="#000" stroke-width="0"/>
        <path d="M318.42,193.58h-5.71v-1.03h5.71v1.03Z" fill="#000" stroke-width="0"/>
        <path d="M324.54,198.03h-1.27v-8.42l-2.55.94v-1.15l3.62-1.36h.2v10Z" fill="#000" stroke-width="0"/>
        <path d="M332.4,198.03h-1.27v-8.42l-2.55.94v-1.15l3.62-1.36h.2v10Z" fill="#000" stroke-width="0"/>
        <path d="M350.37,206.02h-2.26l-8.59-13.15v13.15h-2.26v-17.06h2.26l8.61,13.21v-13.21h2.24v17.06Z" fill="#000" stroke-width="0"/>
      </g>
      <g>
        <path d="M82.88,206.02h-2.18v-14.45l-4.37,1.61v-1.97l6.21-2.33h.34v17.14Z" fill="#000" stroke-width="0"/>
        <path d="M89.5,204.88c0-.38.11-.69.33-.94s.56-.38,1-.38.78.12,1.01.38.35.56.35.94-.12.66-.35.9-.57.36-1.01.36-.78-.12-1-.36-.33-.54-.33-.9Z" fill="#000" stroke-width="0"/>
        <path d="M106.25,198.74c0,2.54-.43,4.43-1.3,5.66s-2.22,1.85-4.07,1.85-3.17-.6-4.04-1.81-1.33-3.01-1.36-5.41v-2.89c0-2.51.43-4.37,1.3-5.59s2.23-1.83,4.08-1.83,3.19.59,4.05,1.76,1.31,2.99,1.34,5.44v2.81ZM104.08,195.78c0-1.84-.26-3.17-.77-4.01s-1.33-1.26-2.45-1.26-1.92.42-2.43,1.25-.77,2.12-.79,3.86v3.47c0,1.84.27,3.21.8,4.08s1.35,1.32,2.43,1.32,1.87-.41,2.38-1.24.79-2.13.81-3.91v-3.55Z" fill="#000" stroke-width="0"/>
        <path d="M118.73,200.15l-1.36,1.42v4.45h-2.17v-18h2.17v10.89l1.16-1.39,3.95-4.17h2.64l-4.93,5.3,5.51,7.38h-2.54l-4.42-5.87Z" fill="#000" stroke-width="0"/>
        <path d="M126.84,199.57c0-1.98.46-3.55,1.37-4.72s2.12-1.75,3.63-1.75,2.75.55,3.62,1.64l.11-1.41h1.98v12.38c0,1.64-.49,2.93-1.46,3.88s-2.28,1.42-3.92,1.42c-.91,0-1.81-.2-2.68-.59s-1.54-.93-2-1.61l1.12-1.3c.93,1.15,2.07,1.72,3.41,1.72,1.05,0,1.88-.3,2.47-.89s.88-1.43.88-2.51v-1.09c-.87,1-2.05,1.5-3.55,1.5s-2.69-.6-3.6-1.79-1.38-2.82-1.38-4.89ZM129.02,199.82c0,1.43.29,2.55.88,3.37s1.41,1.22,2.46,1.22c1.37,0,2.37-.62,3.01-1.86v-5.79c-.66-1.21-1.66-1.82-2.99-1.82-1.05,0-1.88.41-2.47,1.23s-.89,2.04-.89,3.64Z" fill="#000" stroke-width="0"/>
      </g>
    </g>
  </g>
  <g>
    <path d="M276.29,86.95h-2.18v-14.45l-4.37,1.61v-1.97l6.21-2.33h.34v17.14Z" fill="#000" stroke-width="0"/>
    <path d="M284.9,74.27l.06,1.41c.93-1.09,2.18-1.64,3.76-1.64,1.77,0,2.98.68,3.62,2.04.42-.61.97-1.1,1.65-1.48s1.47-.56,2.4-.56c2.78,0,4.2,1.47,4.24,4.42v8.5h-2.17v-8.37c0-.91-.21-1.58-.62-2.03s-1.11-.67-2.09-.67c-.8,0-1.47.24-2,.72s-.84,1.13-.93,1.94v8.41h-2.18v-8.31c0-1.84-.9-2.77-2.71-2.77-1.42,0-2.39.61-2.92,1.82v9.26h-2.17v-12.68h2.05Z" fill="#000" stroke-width="0"/>
  </g>
  <line x1="109.24" y1="50.07" x2="109.24" y2="109.83" fill="none" stroke="#d12d32" stroke-miterlimit="10" stroke-width="2"/>
  <g>
    <line x1="251.6" y1="80.95" x2="130.32" y2="80.95" fill="none" stroke="#d12d32" stroke-miterlimit="10" stroke-width="2"/>
    <polygon points="132.66 72.97 118.84 80.95 132.66 88.93 132.66 72.97" fill="#d12d32" stroke-width="0"/>
  </g>
  <g>
    <line x1="214.07" y1="197" x2="189.32" y2="197" fill="none" stroke="#d12d32" stroke-miterlimit="10" stroke-width="2"/>
    <polygon points="191.66 189.02 177.84 197 191.66 204.98 191.66 189.02" fill="#d12d32" stroke-width="0"/>
  </g>
  <g>
    <line x1="357.02" y1="197" x2="381.76" y2="197" fill="none" stroke="#d12d32" stroke-miterlimit="10" stroke-width="2"/>
    <polygon points="379.43 204.98 393.25 197 379.43 189.02 379.43 204.98" fill="#d12d32" stroke-width="0"/>
  </g>
  <line x1="464.23" y1="50.07" x2="464.23" y2="109.83" fill="none" stroke="#d12d32" stroke-miterlimit="10" stroke-width="2"/>
  <g>
    <line x1="321.88" y1="80.95" x2="443.15" y2="80.95" fill="none" stroke="#d12d32" stroke-miterlimit="10" stroke-width="2"/>
    <polygon points="440.82 88.93 454.63 80.95 440.82 72.97 440.82 88.93" fill="#d12d32" stroke-width="0"/>
  </g>
  <line x1="109.24" y1="286.18" x2="109.24" y2="345.94" fill="none" stroke="#000" stroke-miterlimit="10" stroke-width="2"/>
  <g>
    <line x1="251.6" y1="317.06" x2="130.32" y2="317.06" fill="none" stroke="#000" stroke-miterlimit="10" stroke-width="2"/>
    <polygon points="132.66 309.08 118.84 317.06 132.66 325.04 132.66 309.08" fill="#000" stroke-width="0"/>
  </g>
  <line x1="464.23" y1="286.18" x2="464.23" y2="345.94" fill="none" stroke="#000" stroke-miterlimit="10" stroke-width="2"/>
  <g>
    <line x1="321.88" y1="317.06" x2="443.15" y2="317.06" fill="none" stroke="#000" stroke-miterlimit="10" stroke-width="2"/>
    <polygon points="440.82 325.04 454.63 317.06 440.82 309.08 440.82 325.04" fill="#000" stroke-width="0"/>
  </g>
  <path d="M282.04,321.26c-.94,0-1.74-.36-2.4-1.08s-1-1.9-1-3.54c0-1.15.18-2.25.53-3.28.35-1.04.84-1.96,1.46-2.77.62-.81,1.34-1.44,2.16-1.9.82-.46,1.7-.69,2.63-.69.59,0,1.13.09,1.61.28.48.19.87.46,1.17.8h.08l.86-4.54c.05-.4.08-.68.08-.86,0-.23-.05-.43-.16-.59s-.37-.24-.78-.24c-.16,0-.43.02-.81.05v-.7l3.7-.3h.59l-3,15.77c-.09.58-.13.95-.13,1.13s.04.31.12.39.21.12.39.12c.43,0,.82-.17,1.17-.51.35-.34.62-.64.8-.89l.54.41c-.31.43-.63.87-.97,1.32s-.73.82-1.17,1.12-.96.45-1.55.45c-.52,0-.92-.13-1.19-.39-.27-.26-.41-.6-.41-1.01,0-.16.02-.36.05-.58.04-.22.06-.42.08-.58h-.22c-.65.81-1.32,1.45-2.01,1.92-.69.47-1.44.7-2.23.7ZM282.99,319.48c.59,0,1.15-.16,1.67-.47.52-.31.97-.72,1.34-1.23s.62-1.04.77-1.59c.25-1.06.44-2,.57-2.81.12-.81.19-1.41.19-1.81,0-.52-.09-.97-.28-1.35-.19-.38-.45-.67-.78-.88-.33-.21-.73-.31-1.17-.31-.65,0-1.23.21-1.75.63-.52.42-.97.99-1.35,1.69s-.67,1.49-.86,2.35c-.2.86-.3,1.74-.3,2.62,0,1.22.18,2.06.55,2.5.37.44.84.66,1.42.66Z" fill="#212728" stroke-width="0"/>
  <g>
    <path d="M95.26,243.26h-2.21l2.16-10.26c.05-.4.08-.69.08-.89,0-.23-.06-.41-.19-.54-.13-.12-.35-.19-.67-.19-.18,0-.47.02-.86.05v-.73l3.7-.3h.62l-1.32,5.86h.3l-1.59,6.99ZM102.47,243.26h-2.24c.2-.72.39-1.44.58-2.17.19-.73.37-1.46.55-2.19.18-.73.35-1.46.53-2.2.17-.74.34-1.49.5-2.24.09-.52.13-.89.13-1.11,0-.31-.05-.56-.16-.77-.11-.21-.32-.31-.62-.31-.45,0-.95.25-1.48.76-.54.5-1.08,1.15-1.63,1.94-.55.79-1.06,1.63-1.53,2.52-.47.89-.85,1.71-1.16,2.47l.68-3.4c.27-.52.61-1.13,1.03-1.84.41-.7.9-1.39,1.44-2.05.55-.67,1.17-1.22,1.85-1.67.68-.45,1.41-.67,2.19-.67.67,0,1.11.2,1.34.59.23.4.34.84.34,1.32,0,.4-.04.81-.11,1.24-.07.43-.12.68-.13.76l-.51,2.02h.38l-1.21,3.59-.73,3.4ZM109.57,243.53c-.68,0-1.15-.17-1.4-.5s-.38-.7-.38-1.09c0-.22.02-.43.05-.63.04-.21.06-.35.08-.42l1.38-5.24c.09-.36.18-.76.28-1.2.1-.44.15-.81.15-1.09,0-.31-.05-.56-.16-.77-.11-.21-.32-.31-.62-.31-.34,0-.73.18-1.17.55s-.9.85-1.36,1.44c-.47.59-.92,1.24-1.35,1.93-.43.69-.81,1.36-1.13,2-.32.64-.57,1.19-.73,1.66l.92-3.48c.27-.52.61-1.12,1.03-1.81.41-.68.89-1.35,1.42-2,.53-.65,1.12-1.18,1.75-1.61.64-.42,1.32-.63,2.04-.63.65,0,1.09.2,1.32.59.23.4.35.84.35,1.32,0,.34-.04.71-.11,1.11-.07.4-.13.69-.16.89l-1.49,6.24c-.05.27-.08.49-.08.65,0,.34.17.51.51.51.47,0,.87-.17,1.2-.51.33-.34.61-.64.82-.89l.54.41c-.18.25-.38.54-.61.86s-.49.64-.78.96c-.3.32-.63.57-1.01.77-.38.2-.81.3-1.3.3Z" fill="#212728" stroke-width="0"/>
    <path d="M119.84,252.25h-5.02l.09-.44c.49,0,.88-.03,1.15-.1s.47-.18.6-.33c.13-.15.21-.36.27-.62l1.42-6.66c.02-.08.04-.16.05-.22.01-.06.02-.12.02-.17,0-.25-.14-.38-.41-.38-.1,0-.24,0-.39.03-.16.02-.33.05-.5.09-.18.04-.36.08-.54.13l.11-.52,3.01-.87h.46l-1.83,8.56c-.01.05-.02.1-.02.16,0,.05,0,.1,0,.16,0,.26.12.45.37.57.25.12.67.17,1.28.17l-.09.44Z" fill="#212728" stroke-width="0"/>
  </g>
  <circle cx="464.23" cy="197" r="66.47" fill="#bfaacc" stroke-width="0"/>
  <g>
    <path d="M440.35,206.02h-2.18v-14.45l-4.37,1.61v-1.97l6.21-2.33h.34v17.14Z" fill="#000" stroke-width="0"/>
    <path d="M446.97,204.88c0-.38.11-.69.33-.94s.56-.38,1-.38.78.12,1.01.38.35.56.35.94-.12.66-.35.9-.57.36-1.01.36-.78-.12-1-.36-.33-.54-.33-.9Z" fill="#000" stroke-width="0"/>
    <path d="M463.72,198.74c0,2.54-.43,4.43-1.3,5.66s-2.22,1.85-4.07,1.85-3.17-.6-4.04-1.81-1.33-3.01-1.36-5.41v-2.89c0-2.51.43-4.37,1.3-5.59s2.23-1.83,4.08-1.83,3.19.59,4.05,1.76,1.31,2.99,1.34,5.44v2.81ZM461.55,195.78c0-1.84-.26-3.17-.77-4.01s-1.33-1.26-2.45-1.26-1.92.42-2.43,1.25-.77,2.12-.79,3.86v3.47c0,1.84.27,3.21.8,4.08s1.35,1.32,2.43,1.32,1.87-.41,2.38-1.24.79-2.13.81-3.91v-3.55Z" fill="#000" stroke-width="0"/>
    <path d="M476.2,200.15l-1.36,1.42v4.45h-2.17v-18h2.17v10.89l1.16-1.39,3.95-4.17h2.64l-4.93,5.3,5.51,7.38h-2.54l-4.42-5.87Z" fill="#000" stroke-width="0"/>
    <path d="M484.31,199.57c0-1.98.46-3.55,1.37-4.72s2.12-1.75,3.63-1.75,2.75.55,3.62,1.64l.11-1.41h1.98v12.38c0,1.64-.49,2.93-1.46,3.88s-2.28,1.42-3.92,1.42c-.91,0-1.81-.2-2.68-.59s-1.54-.93-2-1.61l1.12-1.3c.93,1.15,2.07,1.72,3.41,1.72,1.05,0,1.88-.3,2.47-.89s.88-1.43.88-2.51v-1.09c-.87,1-2.05,1.5-3.55,1.5s-2.69-.6-3.6-1.79-1.38-2.82-1.38-4.89ZM486.49,199.82c0,1.43.29,2.55.88,3.37s1.41,1.22,2.46,1.22c1.37,0,2.37-.62,3.01-1.86v-5.79c-.66-1.21-1.66-1.82-2.99-1.82-1.05,0-1.88.41-2.47,1.23s-.89,2.04-.89,3.64Z" fill="#000" stroke-width="0"/>
  </g>
  <g>
    <path d="M452.73,243.26h-2.21l2.16-10.26c.05-.4.08-.69.08-.89,0-.23-.06-.41-.19-.54-.13-.12-.35-.19-.67-.19-.18,0-.47.02-.86.05v-.73l3.7-.3h.62l-1.32,5.86h.3l-1.59,6.99ZM459.94,243.26h-2.24c.2-.72.39-1.44.58-2.17.19-.73.37-1.46.55-2.19.18-.73.36-1.46.53-2.2s.34-1.49.5-2.24c.09-.52.13-.89.13-1.11,0-.31-.05-.56-.16-.77-.11-.21-.32-.31-.62-.31-.45,0-.95.25-1.48.76-.54.5-1.08,1.15-1.63,1.94-.55.79-1.06,1.63-1.53,2.52-.47.89-.86,1.71-1.16,2.47l.67-3.4c.27-.52.61-1.13,1.03-1.84.41-.7.89-1.39,1.44-2.05.55-.67,1.17-1.22,1.85-1.67.68-.45,1.41-.67,2.19-.67.67,0,1.11.2,1.34.59.22.4.34.84.34,1.32,0,.4-.04.81-.11,1.24-.07.43-.12.68-.13.76l-.51,2.02h.38l-1.21,3.59-.73,3.4ZM467.04,243.53c-.68,0-1.15-.17-1.4-.5s-.38-.7-.38-1.09c0-.22.02-.43.05-.63.04-.21.06-.35.08-.42l1.38-5.24c.09-.36.18-.76.28-1.2.1-.44.15-.81.15-1.09,0-.31-.05-.56-.16-.77-.11-.21-.32-.31-.62-.31-.34,0-.73.18-1.17.55-.44.37-.9.85-1.36,1.44s-.92,1.24-1.35,1.93c-.43.69-.81,1.36-1.13,2-.32.64-.57,1.19-.73,1.66l.92-3.48c.27-.52.61-1.12,1.03-1.81.41-.68.89-1.35,1.42-2,.53-.65,1.12-1.18,1.75-1.61.64-.42,1.32-.63,2.04-.63.65,0,1.09.2,1.32.59.23.4.35.84.35,1.32,0,.34-.04.71-.11,1.11-.07.4-.13.69-.16.89l-1.49,6.24c-.05.27-.08.49-.08.65,0,.34.17.51.51.51.47,0,.87-.17,1.2-.51.33-.34.61-.64.82-.89l.54.41c-.18.25-.38.54-.61.86-.23.32-.49.64-.78.96-.3.32-.63.57-1.01.77-.38.2-.81.3-1.3.3Z" fill="#212728" stroke-width="0"/>
    <path d="M477.45,252.25h-6.14l.11-.54,2.88-2.36c.6-.52,1.11-.99,1.53-1.38.42-.4.76-.77,1.02-1.12.26-.35.44-.69.56-1.05.12-.35.17-.74.17-1.16,0-.46-.13-.83-.39-1.12-.26-.28-.65-.42-1.16-.42s-.97.12-1.36.35c-.39.23-.82.64-1.27,1.23l-.35-.16c.44-.75.95-1.33,1.52-1.76.57-.43,1.27-.64,2.08-.64.75,0,1.33.2,1.76.6.43.4.65.93.65,1.61,0,.55-.13,1.05-.38,1.51s-.64.94-1.15,1.44c-.51.5-1.17,1.08-1.97,1.74l-2.42,1.97-.02.08,1.05-.05h2.19c.28,0,.51-.04.68-.13.17-.08.33-.22.48-.4.15-.18.31-.43.5-.75h.46l-1.04,2.52Z" fill="#212728" stroke-width="0"/>
  </g>
</svg>