<?xml version="1.0" encoding="UTF-8"?><svg id="p" xmlns="http://www.w3.org/2000/svg" width="570" height="297" viewBox="0 0 570 297"><path d="m379.73,289.91c-21.6-.41-43.3-1.88-64.69-1.65-56.25.61-111.16,13.14-167.26,1.86-73.22-14.72-111.03-86.42-109.81-147.75C41.26-23.31,329.13-19.92,447.32,37.67c43.86,21.37,85.17,51.28,97.73,95.96,15.86,56.38-19.22,124.22-81.83,146.09-26.99,9.42-55.15,10.73-83.5,10.2Z" fill="#e8e8e8"/><path d="m287,77.5c38.66,0,70,31.34,70,70s-31.34,70-70,70-70-31.34-70-70,31.34-70,70-70m0-2c-39.7,0-72,32.3-72,72s32.3,72,72,72,72-32.3,72-72-32.3-72-72-72h0Z"/><line x1="286.52" y1="140.97" x2="286.52" y2="46.17" fill="none" stroke="#000" stroke-miterlimit="10" stroke-width="2"/><polygon points="294.49 48.51 286.52 34.69 278.54 48.51 294.49 48.51"/><line x1="286.52" y1="154.03" x2="286.52" y2="248.83" fill="none" stroke="#000" stroke-miterlimit="10" stroke-width="2"/><polygon points="278.54 246.49 286.52 260.31 294.49 246.49 278.54 246.49"/><path d="m317.86,25.5c.03-2.56-.08-3.35-3.59-3.35h-4.05l-1.46,7.02h3c2.29,0,2.86-.51,3.32-2.67h.86l-1.24,6.29h-.89c.43-2.29,0-2.59-2.32-2.59h-2.92l-1.16,5.78c-.08.35-.11.67-.11.92,0,.94.86,1.13,2.54,1.13l-.13.81h-7.77l.16-.81c1.86,0,2.51-.32,2.92-2.32l2.4-11.55c.38-1.86.08-2.24-2.1-2.24l.16-.81h13.93l-.73,4.4h-.81Z"/><path d="m330.26,37.96c-.57,0-.82.11-1.05.31-.3.25-.55.57-.8,1.79l-1.61,7.89h-.52l-4.63-8.46h-.08l-1.23,5.98c-.32,1.58-.11,1.87,1.07,1.87l-.09.47h-3.62l.09-.47c1.23,0,1.46-.28,1.78-1.87l1.4-6.8c-.36-.58-.63-.72-1.31-.72l.09-.47h2.47l4.25,7.75h.08l1.09-5.24c.19-.95.19-1.37.05-1.64-.19-.32-.49-.39-1.15-.39l.09-.47h3.72l-.09.47Z"/><path d="m317.93,259.5c.03-2.56-.08-3.35-3.59-3.35h-4.05l-1.46,7.02h3c2.29,0,2.86-.51,3.32-2.67h.86l-1.24,6.29h-.89c.43-2.29,0-2.59-2.32-2.59h-2.92l-1.16,5.78c-.08.35-.11.67-.11.92,0,.94.86,1.13,2.54,1.13l-.14.81h-7.77l.16-.81c1.86,0,2.51-.32,2.92-2.32l2.4-11.55c.38-1.86.08-2.24-2.11-2.24l.16-.81h13.93l-.73,4.4h-.81Z"/><path d="m325.21,275.28l-1.37-.16v.05c.25.3.57.91.57,1.64,0,1.35-1.12,2.49-3.17,2.57-.69.03-1.01.46-1.01.83,0,.95,4.11.46,4.11,2.79,0,1.37-1.18,2.38-3.46,2.38s-3.23-.79-3.23-1.97c0-.94.95-1.51,1.89-1.79v-.06c-.28-.17-.55-.47-.55-.93,0-.69.58-1.15,1.21-1.4v-.09c-.65-.28-1.37-.83-1.37-2.12,0-1.58,1.28-2.71,2.99-2.71.66,0,1.04.08,1.37.19h2.11l-.09.8Zm-5.31,6.5c-.5.3-1.02.68-1.02,1.51s.66,1.53,2.11,1.53c1.53,0,2.22-.47,2.22-1.23,0-1.15-2.16-1.57-3.31-1.81Zm1.89-7.02c-.91,0-1.56.82-1.56,2.11s.3,2.02,1.18,2.02c1.09,0,1.59-.99,1.59-2.32,0-1.01-.39-1.81-1.21-1.81Z"/></svg>