<?xml version="1.0" encoding="UTF-8"?><svg id="a" xmlns="http://www.w3.org/2000/svg" width="1140" height="757" viewBox="0 0 1140 757"><rect x="95.915" y="61.336" width="1028" height="597" fill="#fff"/><line x1="438.91" y1="61.337" x2="438.91" y2="660.337" fill="none" stroke="#b1dded" stroke-miterlimit="10" stroke-width="2"/><line x1="781.906" y1="61.337" x2="781.906" y2="660.337" fill="none" stroke="#b1dded" stroke-miterlimit="10" stroke-width="2"/><line x1="1124.901" y1="61.337" x2="1124.901" y2="660.337" fill="none" stroke="#b1dded" stroke-miterlimit="10" stroke-width="2"/><line x1="95.915" y1="61.337" x2="95.915" y2="660.337" fill="none" stroke="#b1dded" stroke-miterlimit="10" stroke-width="2"/><line x1="267.413" y1="61.337" x2="267.413" y2="660.337" fill="none" stroke="#b1dded" stroke-miterlimit="10" stroke-width="2"/><line x1="610.408" y1="61.337" x2="610.408" y2="660.337" fill="none" stroke="#b1dded" stroke-miterlimit="10" stroke-width="2"/><line x1="953.403" y1="61.337" x2="953.403" y2="660.337" fill="none" stroke="#b1dded" stroke-miterlimit="10" stroke-width="2"/><path d="m580.74,736.355h-5.227v14.215h-3.516v-14.215h-5.156v-2.848h13.898v2.848Z"/><path d="m582.498,734.609c0-.508.17-.926.51-1.254s.803-.492,1.389-.492c.578,0,1.039.164,1.383.492s.516.746.516,1.254c0,.516-.174.938-.521,1.266s-.807.492-1.377.492-1.029-.164-1.377-.492-.521-.75-.521-1.266Zm3.598,15.961h-3.398v-12.68h3.398v12.68Z"/><path d="m592.06,737.89l.105,1.418c.898-1.102,2.113-1.652,3.645-1.652,1.633,0,2.754.645,3.363,1.934.891-1.289,2.16-1.934,3.809-1.934,1.375,0,2.398.4,3.07,1.201s1.008,2.006,1.008,3.615v8.098h-3.398v-8.086c0-.719-.141-1.244-.422-1.576s-.777-.498-1.488-.498c-1.016,0-1.719.484-2.109,1.453l.012,8.707h-3.387v-8.074c0-.734-.145-1.266-.434-1.594s-.781-.492-1.477-.492c-.961,0-1.656.398-2.086,1.195v8.965h-3.387v-12.68h3.176Z"/><path d="m615.498,750.804c-1.859,0-3.373-.57-4.541-1.711s-1.752-2.66-1.752-4.559v-.328c0-1.273.246-2.412.738-3.416s1.189-1.777,2.092-2.32,1.932-.814,3.088-.814c1.734,0,3.1.547,4.096,1.641s1.494,2.645,1.494,4.652v1.383h-8.074c.109.828.439,1.492.99,1.992s1.248.75,2.092.75c1.305,0,2.324-.473,3.059-1.418l1.664,1.863c-.508.719-1.195,1.279-2.062,1.682s-1.828.604-2.883.604Zm-.387-10.418c-.672,0-1.217.228-1.635.683s-.686,1.106-.803,1.954h4.711v-.271c-.016-.754-.219-1.336-.609-1.748s-.945-.618-1.664-.618Z"/><path d="m628.764,743.632c0-1.789.238-3.492.715-5.109s1.18-3.049,2.109-4.295,1.938-2.111,3.023-2.596l.656,1.828c-1.141.844-2.031,2.148-2.672,3.914s-.961,3.828-.961,6.188v.363c0,2.367.316,4.438.949,6.211s1.527,3.098,2.684,3.973l-.656,1.793c-1.062-.477-2.053-1.318-2.971-2.525s-1.619-2.6-2.104-4.178-.742-3.227-.773-4.945v-.621Z"/><path d="m640.342,739.273c.898-1.078,2.027-1.617,3.387-1.617,2.75,0,4.145,1.598,4.184,4.793v8.121h-3.387v-8.027c0-.727-.156-1.264-.469-1.611s-.832-.521-1.559-.521c-.992,0-1.711.383-2.156,1.148v9.012h-3.387v-18h3.387v6.703Z"/><path d="m656.303,743.902c0,1.766-.254,3.465-.762,5.098s-1.238,3.074-2.191,4.324-1.973,2.109-3.059,2.578l-.656-1.793c1.109-.836,1.984-2.125,2.625-3.867s.973-3.746.996-6.012v-.621c0-2.336-.318-4.395-.955-6.176s-1.525-3.117-2.666-4.008l.656-1.793c1.062.461,2.064,1.297,3.006,2.508s1.672,2.621,2.191,4.23.791,3.277.814,5.004v.527Z"/><line x1="1125.178" y1="659.473" x2="1125.178" y2="672.473" fill="none" stroke="#000" stroke-miterlimit="10" stroke-width="2"/><line x1="953.625" y1="659.473" x2="953.625" y2="672.473" fill="none" stroke="#000" stroke-miterlimit="10" stroke-width="2"/><line x1="782.072" y1="659.473" x2="782.072" y2="672.473" fill="none" stroke="#000" stroke-miterlimit="10" stroke-width="2"/><line x1="610.519" y1="659.473" x2="610.519" y2="672.473" fill="none" stroke="#000" stroke-miterlimit="10" stroke-width="2"/><line x1="438.966" y1="659.473" x2="438.966" y2="672.473" fill="none" stroke="#000" stroke-miterlimit="10" stroke-width="2"/><line x1="267.413" y1="659.473" x2="267.413" y2="672.473" fill="none" stroke="#000" stroke-miterlimit="10" stroke-width="2"/><path d="m444.842,705.771h-11.18v-1.559l5.906-6.562c.875-.992,1.479-1.799,1.811-2.42s.498-1.264.498-1.928c0-.891-.27-1.621-.809-2.191s-1.258-.855-2.156-.855c-1.078,0-1.916.307-2.514.92s-.896,1.467-.896,2.561h-2.168c0-1.57.506-2.84,1.518-3.809s2.365-1.453,4.061-1.453c1.586,0,2.84.416,3.762,1.248s1.383,1.939,1.383,3.322c0,1.68-1.07,3.68-3.211,6l-4.57,4.957h8.566v1.77Z"/><path d="m269.217,705.771h-2.18v-14.449l-4.371,1.605v-1.969l6.211-2.332h.34v17.145Z"/><path d="m608.384,696.185h1.629c1.023-.016,1.828-.285,2.414-.809s.879-1.23.879-2.121c0-2-.996-3-2.988-3-.938,0-1.686.268-2.244.803s-.838,1.244-.838,2.127h-2.168c0-1.352.494-2.475,1.482-3.369s2.244-1.342,3.768-1.342c1.609,0,2.871.426,3.785,1.277s1.371,2.035,1.371,3.551c0,.742-.24,1.461-.721,2.156s-1.135,1.215-1.963,1.559c.938.297,1.662.789,2.174,1.477s.768,1.527.768,2.52c0,1.531-.5,2.746-1.5,3.645s-2.301,1.348-3.902,1.348-2.904-.434-3.908-1.301-1.506-2.012-1.506-3.434h2.18c0,.898.293,1.617.879,2.156s1.371.809,2.355.809c1.047,0,1.848-.273,2.402-.82s.832-1.332.832-2.355c0-.992-.305-1.754-.914-2.285s-1.488-.805-2.637-.82h-1.629v-1.77Z"/><path d="m949.367,697.216l.867-8.508h8.742v2.004h-6.902l-.516,4.652c.836-.492,1.785-.738,2.848-.738,1.555,0,2.789.514,3.703,1.541s1.371,2.416,1.371,4.166-.475,3.143-1.424,4.154-2.275,1.518-3.979,1.518c-1.508,0-2.738-.418-3.691-1.254s-1.496-1.992-1.629-3.469h2.051c.133.977.48,1.713,1.043,2.209s1.305.744,2.227.744c1.008,0,1.799-.344,2.373-1.031s.861-1.637.861-2.848c0-1.141-.311-2.057-.932-2.748s-1.447-1.037-2.479-1.037c-.945,0-1.688.207-2.227.621l-.574.469-1.734-.445Z"/><path d="m785.953,700.04h2.367v1.77h-2.367v3.961h-2.18v-3.961h-7.77v-1.277l7.641-11.824h2.309v11.332Zm-7.488,0h5.309v-8.367l-.258.469-5.051,7.898Z"/><path d="m1128.448,688.697v1.84h-.398c-1.688.031-3.031.531-4.031,1.5s-1.578,2.332-1.734,4.09c.898-1.031,2.125-1.547,3.68-1.547,1.484,0,2.67.523,3.557,1.57s1.33,2.398,1.33,4.055c0,1.758-.479,3.164-1.436,4.219s-2.24,1.582-3.85,1.582c-1.633,0-2.957-.627-3.973-1.881s-1.523-2.869-1.523-4.846v-.832c0-3.141.67-5.541,2.01-7.201s3.334-2.51,5.982-2.549h.387Zm-2.848,7.688c-.742,0-1.426.223-2.051.668s-1.059,1.004-1.301,1.676v.797c0,1.406.316,2.539.949,3.398s1.422,1.289,2.367,1.289c.977,0,1.744-.359,2.303-1.078s.838-1.66.838-2.824c0-1.172-.283-2.119-.85-2.842s-1.318-1.084-2.256-1.084Z"/><path d="m70.619,698.493c0,2.539-.434,4.426-1.301,5.66s-2.223,1.852-4.066,1.852c-1.82,0-3.168-.604-4.043-1.811s-1.328-3.01-1.359-5.408v-2.895c0-2.508.434-4.371,1.301-5.59s2.227-1.828,4.078-1.828c1.836,0,3.188.588,4.055,1.764s1.312,2.99,1.336,5.443v2.812Zm-2.168-2.965c0-1.836-.258-3.174-.773-4.014s-1.332-1.26-2.449-1.26c-1.109,0-1.918.418-2.426,1.254s-.77,2.121-.785,3.855v3.469c0,1.844.268,3.205.803,4.084s1.346,1.318,2.432,1.318c1.07,0,1.865-.414,2.385-1.242s.791-2.133.814-3.914v-3.551Z"/><line x1="96.929" y1="509.572" x2="1125.915" y2="509.572" fill="none" stroke="#b1dded" stroke-miterlimit="10" stroke-width="2"/><line x1="96.929" y1="569.843" x2="1125.915" y2="569.843" fill="none" stroke="#b1dded" stroke-dasharray="0 0 6 6" stroke-miterlimit="10" stroke-width="2"/><line x1="96.929" y1="599.979" x2="1125.915" y2="599.979" fill="none" stroke="#b1dded" stroke-dasharray="0 0 6 6" stroke-miterlimit="10" stroke-width="2"/><line x1="96.929" y1="630.115" x2="1125.915" y2="630.115" fill="none" stroke="#b1dded" stroke-dasharray="0 0 6 6" stroke-miterlimit="10" stroke-width="2"/><line x1="96.929" y1="539.707" x2="1125.915" y2="539.707" fill="none" stroke="#b1dded" stroke-dasharray="0 0 6 6" stroke-miterlimit="10" stroke-width="2"/><line x1="96.929" y1="419.956" x2="1125.915" y2="419.956" fill="none" stroke="#b1dded" stroke-dasharray="0 0 6 6" stroke-miterlimit="10" stroke-width="2"/><line x1="96.929" y1="449.828" x2="1125.915" y2="449.828" fill="none" stroke="#b1dded" stroke-dasharray="0 0 6 6" stroke-miterlimit="10" stroke-width="2"/><line x1="96.929" y1="479.7" x2="1125.915" y2="479.7" fill="none" stroke="#b1dded" stroke-dasharray="0 0 6 6" stroke-miterlimit="10" stroke-width="2"/><line x1="96.929" y1="390.084" x2="1125.915" y2="390.084" fill="none" stroke="#b1dded" stroke-dasharray="0 0 6 6" stroke-miterlimit="10" stroke-width="2"/><line x1="96.929" y1="300.469" x2="1125.915" y2="300.469" fill="none" stroke="#b1dded" stroke-dasharray="0 0 6 6" stroke-miterlimit="10" stroke-width="2"/><line x1="96.929" y1="330.341" x2="1125.915" y2="330.341" fill="none" stroke="#b1dded" stroke-dasharray="0 0 6 6" stroke-miterlimit="10" stroke-width="2"/><line x1="96.929" y1="240.726" x2="1125.915" y2="240.726" fill="none" stroke="#b1dded" stroke-dasharray="0 0 6 6" stroke-miterlimit="10" stroke-width="2"/><line x1="96.929" y1="360.213" x2="1125.915" y2="360.213" fill="none" stroke="#b1dded" stroke-miterlimit="10" stroke-width="2"/><line x1="96.929" y1="270.597" x2="1125.915" y2="270.597" fill="none" stroke="#b1dded" stroke-dasharray="0 0 6 6" stroke-miterlimit="10" stroke-width="2"/><line x1="96.929" y1="180.982" x2="1125.915" y2="180.982" fill="none" stroke="#b1dded" stroke-dasharray="0 0 6 6" stroke-miterlimit="10" stroke-width="2"/><line x1="96.929" y1="91.367" x2="1125.915" y2="91.367" fill="none" stroke="#b1dded" stroke-dasharray="0 0 6 6" stroke-miterlimit="10" stroke-width="2"/><line x1="96.929" y1="151.11" x2="1125.915" y2="151.11" fill="none" stroke="#b1dded" stroke-dasharray="0 0 6 6" stroke-miterlimit="10" stroke-width="2"/><line x1="96.929" y1="210.854" x2="1125.915" y2="210.854" fill="none" stroke="#b1dded" stroke-miterlimit="10" stroke-width="2"/><line x1="96.929" y1="121.239" x2="1125.915" y2="121.239" fill="none" stroke="#b1dded" stroke-dasharray="0 0 6 6" stroke-miterlimit="10" stroke-width="2"/><line x1="97.957" y1="61.495" x2="1125.915" y2="61.495" fill="none" stroke="#b1dded" stroke-miterlimit="10" stroke-width="2"/><path d="m473.971,18.282l4.834-16.04h4.893l-7.427,21.328h-4.585l-7.397-21.328h4.878l4.805,16.04Z"/><path d="m492.076,23.863c-2.324,0-4.217-.713-5.677-2.139s-2.189-3.325-2.189-5.698v-.41c0-1.592.308-3.016.923-4.271s1.487-2.222,2.614-2.9c1.129-.679,2.415-1.018,3.86-1.018,2.168,0,3.874.684,5.12,2.051,1.244,1.367,1.867,3.306,1.867,5.815v1.729h-10.093c.137,1.035.55,1.865,1.237,2.49.689.625,1.561.938,2.615.938,1.631,0,2.905-.591,3.823-1.772l2.08,2.329c-.635.898-1.494,1.599-2.578,2.102s-2.285.755-3.604.755Zm-.483-13.022c-.84,0-1.521.284-2.043.854-.523.568-.857,1.383-1.004,2.442h5.889v-.339c-.02-.941-.273-1.67-.762-2.185-.488-.516-1.182-.772-2.08-.772Z"/><path d="m505.465,23.57h-4.248V1.07h4.248v22.5Z"/><path d="m508.292,15.498c0-1.572.303-2.974.908-4.204s1.477-2.183,2.615-2.856c1.137-.674,2.458-1.011,3.962-1.011,2.139,0,3.884.654,5.237,1.963,1.352,1.309,2.106,3.086,2.263,5.332l.029,1.084c0,2.432-.679,4.382-2.036,5.852s-3.179,2.205-5.464,2.205-4.108-.732-5.472-2.197c-1.361-1.465-2.043-3.457-2.043-5.977v-.19Zm4.233.3c0,1.507.283,2.658.85,3.455.566.798,1.377,1.196,2.432,1.196,1.025,0,1.826-.394,2.402-1.182.576-.787.864-2.046.864-3.777,0-1.477-.288-2.621-.864-3.433s-1.387-1.218-2.432-1.218c-1.035,0-1.836.403-2.402,1.21-.566.808-.85,2.057-.85,3.748Z"/><path d="m532.506,20.449c.781,0,1.416-.215,1.904-.645s.742-1.001.762-1.714h3.97c-.01,1.074-.303,2.058-.879,2.951s-1.365,1.587-2.365,2.08c-1.002.493-2.107.74-3.318.74-2.266,0-4.053-.721-5.361-2.161s-1.963-3.43-1.963-5.969v-.278c0-2.441.649-4.39,1.948-5.845s3.081-2.183,5.347-2.183c1.982,0,3.571.563,4.768,1.691s1.805,2.63,1.824,4.505h-3.97c-.02-.824-.273-1.495-.762-2.011-.488-.515-1.133-.772-1.934-.772-.986,0-1.731.359-2.233,1.078-.504.719-.755,1.885-.755,3.499v.439c0,1.634.249,2.808.747,3.521s1.255,1.071,2.271,1.071Z"/><path d="m541.529,3.618c0-.635.212-1.157.638-1.567.424-.41,1.003-.615,1.735-.615.723,0,1.299.205,1.729.615s.645.933.645,1.567c0,.645-.218,1.172-.651,1.582-.436.41-1.009.615-1.722.615s-1.287-.205-1.722-.615-.651-.938-.651-1.582Zm4.497,19.951h-4.248V7.72h4.248v15.85Z"/><path d="m554.581,3.824v3.896h2.71v3.105h-2.71v7.91c0,.586.112,1.006.337,1.26s.654.381,1.289.381c.469,0,.884-.034,1.245-.103v3.208c-.83.254-1.685.381-2.563.381-2.969,0-4.482-1.499-4.541-4.497v-8.54h-2.314v-3.105h2.314v-3.896h4.233Z"/><path d="m565.567,17.578l2.93-9.858h4.541l-6.372,18.311-.352.835c-.947,2.07-2.51,3.105-4.688,3.105-.615,0-1.24-.093-1.875-.278v-3.208l.645.015c.801,0,1.398-.122,1.795-.366.395-.244.705-.649.93-1.216l.498-1.304-5.552-15.894h4.556l2.944,9.858Z"/><path d="m590.411,16.143h-8.247v-3.413h8.247v3.413Z"/><path d="m616.734,5.801h-6.533v17.769h-4.395V5.801h-6.445v-3.56h17.373v3.56Z"/><path d="m618.932,3.618c0-.635.212-1.157.638-1.567.424-.41,1.003-.615,1.735-.615.723,0,1.299.205,1.729.615s.645.933.645,1.567c0,.645-.218,1.172-.651,1.582-.436.41-1.009.615-1.722.615s-1.287-.205-1.722-.615-.651-.938-.651-1.582Zm4.497,19.951h-4.248V7.72h4.248v15.85Z"/><path d="m630.885,7.72l.132,1.772c1.123-1.377,2.642-2.065,4.556-2.065,2.041,0,3.442.806,4.204,2.417,1.113-1.611,2.7-2.417,4.761-2.417,1.719,0,2.998.5,3.838,1.501s1.26,2.508,1.26,4.52v10.122h-4.248v-10.107c0-.898-.176-1.556-.527-1.971s-.972-.622-1.86-.622c-1.27,0-2.148.605-2.637,1.816l.015,10.884h-4.233v-10.093c0-.918-.181-1.582-.542-1.992s-.977-.615-1.846-.615c-1.201,0-2.07.498-2.607,1.494v11.206h-4.233V7.72h3.97Z"/><path d="m660.182,23.863c-2.324,0-4.217-.713-5.677-2.139s-2.189-3.325-2.189-5.698v-.41c0-1.592.308-3.016.923-4.271s1.487-2.222,2.614-2.9c1.129-.679,2.415-1.018,3.86-1.018,2.168,0,3.874.684,5.12,2.051,1.244,1.367,1.867,3.306,1.867,5.815v1.729h-10.093c.137,1.035.55,1.865,1.237,2.49.689.625,1.561.938,2.615.938,1.631,0,2.905-.591,3.823-1.772l2.08,2.329c-.635.898-1.494,1.599-2.578,2.102s-2.285.755-3.604.755Zm-.483-13.022c-.84,0-1.521.284-2.043.854-.523.568-.857,1.383-1.004,2.442h5.889v-.339c-.02-.941-.273-1.67-.762-2.185-.488-.516-1.182-.772-2.08-.772Z"/><path d="m693.726,20.874c-.791.947-1.909,1.682-3.354,2.204s-3.047.784-4.805.784c-1.846,0-3.464-.403-4.856-1.209-1.391-.806-2.466-1.975-3.223-3.508s-1.145-3.335-1.164-5.405v-1.45c0-2.129.359-3.973,1.076-5.53.719-1.558,1.753-2.749,3.105-3.574s2.938-1.237,4.754-1.237c2.529,0,4.507.603,5.933,1.809s2.271,2.962,2.534,5.267h-4.277c-.195-1.221-.628-2.114-1.297-2.681s-1.589-.85-2.761-.85c-1.494,0-2.632.562-3.413,1.685s-1.177,2.793-1.187,5.01v1.362c0,2.236.425,3.926,1.274,5.068s2.095,1.714,3.735,1.714c1.65,0,2.827-.352,3.53-1.055v-3.677h-3.999v-3.237h8.394v8.511Z"/><path d="m705.914,11.69c-.576-.078-1.084-.117-1.523-.117-1.602,0-2.651.542-3.149,1.626v10.371h-4.233V7.72h3.999l.117,1.89c.85-1.455,2.026-2.183,3.53-2.183.469,0,.908.063,1.318.19l-.059,4.072Z"/><path d="m716.695,23.57c-.195-.381-.337-.854-.425-1.421-1.025,1.143-2.358,1.714-3.999,1.714-1.553,0-2.84-.449-3.859-1.348-1.021-.898-1.531-2.031-1.531-3.398,0-1.68.623-2.969,1.867-3.867,1.246-.898,3.045-1.353,5.398-1.362h1.948v-.908c0-.732-.188-1.318-.563-1.758-.377-.439-.97-.659-1.78-.659-.713,0-1.272.171-1.677.513-.406.342-.608.811-.608,1.406h-4.233c0-.918.283-1.768.85-2.549s1.367-1.395,2.402-1.839,2.197-.666,3.486-.666c1.953,0,3.503.49,4.65,1.472s1.722,2.361,1.722,4.139v6.87c.01,1.504.22,2.642.63,3.413v.249h-4.277Zm-3.501-2.944c.625,0,1.201-.14,1.729-.418s.918-.651,1.172-1.12v-2.725h-1.582c-2.119,0-3.247.732-3.384,2.197l-.015.249c0,.527.186.962.557,1.304s.879.513,1.523.513Z"/><path d="m737.862,15.791c0,2.441-.555,4.396-1.663,5.866s-2.604,2.205-4.489,2.205c-1.602,0-2.896-.557-3.882-1.67v7.471h-4.233V7.72h3.926l.146,1.553c1.025-1.23,2.363-1.846,4.014-1.846,1.953,0,3.472.723,4.556,2.168s1.626,3.438,1.626,5.977v.22Zm-4.233-.308c0-1.475-.262-2.612-.783-3.413-.523-.801-1.282-1.201-2.278-1.201-1.328,0-2.241.508-2.739,1.523v6.489c.518,1.045,1.44,1.567,2.769,1.567,2.021,0,3.032-1.655,3.032-4.966Z"/><path d="m744.615,9.449c1.123-1.348,2.534-2.021,4.233-2.021,3.438,0,5.181,1.997,5.229,5.991v10.151h-4.233v-10.034c0-.908-.195-1.58-.586-2.015s-1.04-.651-1.948-.651c-1.24,0-2.139.479-2.695,1.436v11.265h-4.233V1.07h4.233v8.379Z"/><path d="m60.916,511.003l.867-8.508h8.742v2.004h-6.902l-.516,4.652c.836-.492,1.785-.738,2.848-.738,1.555,0,2.789.514,3.703,1.541s1.371,2.416,1.371,4.166-.475,3.143-1.424,4.154-2.275,1.518-3.979,1.518c-1.508,0-2.738-.418-3.691-1.254s-1.496-1.992-1.629-3.469h2.051c.133.977.48,1.713,1.043,2.209s1.305.744,2.227.744c1.008,0,1.799-.344,2.373-1.031s.861-1.637.861-2.848c0-1.141-.311-2.057-.932-2.748s-1.447-1.037-2.479-1.037c-.945,0-1.688.207-2.227.621l-.574.469-1.734-.445Z"/><path d="m53.568,370.058h-2.18v-14.449l-4.371,1.605v-1.969l6.211-2.332h.34v17.145Z"/><path d="m70.619,362.781c0,2.539-.434,4.426-1.301,5.66s-2.223,1.852-4.066,1.852c-1.82,0-3.168-.604-4.043-1.811s-1.328-3.01-1.359-5.408v-2.895c0-2.508.434-4.371,1.301-5.59s2.227-1.828,4.078-1.828c1.836,0,3.188.588,4.055,1.764s1.312,2.99,1.336,5.443v2.812Zm-2.168-2.965c0-1.836-.258-3.174-.773-4.014s-1.332-1.26-2.449-1.26c-1.109,0-1.918.418-2.426,1.254s-.77,2.121-.785,3.855v3.469c0,1.844.268,3.205.803,4.084s1.346,1.318,2.432,1.318c1.07,0,1.865-.414,2.385-1.242s.791-2.133.814-3.914v-3.551Z"/><path d="m53.568,220.558h-2.18v-14.449l-4.371,1.605v-1.969l6.211-2.332h.34v17.145Z"/><path d="m60.916,212.003l.867-8.508h8.742v2.004h-6.902l-.516,4.652c.836-.492,1.785-.738,2.848-.738,1.555,0,2.789.514,3.703,1.541s1.371,2.416,1.371,4.166-.475,3.143-1.424,4.154-2.275,1.518-3.979,1.518c-1.508,0-2.738-.418-3.691-1.254s-1.496-1.992-1.629-3.469h2.051c.133.977.48,1.713,1.043,2.209s1.305.744,2.227.744c1.008,0,1.799-.344,2.373-1.031s.861-1.637.861-2.848c0-1.141-.311-2.057-.932-2.748s-1.447-1.037-2.479-1.037c-.945,0-1.688.207-2.227.621l-.574.469-1.734-.445Z"/><path d="m57.623,71.058h-11.18v-1.559l5.906-6.562c.875-.992,1.479-1.799,1.811-2.42s.498-1.264.498-1.928c0-.891-.27-1.621-.809-2.191s-1.258-.855-2.156-.855c-1.078,0-1.916.307-2.514.92s-.896,1.467-.896,2.561h-2.168c0-1.57.506-2.84,1.518-3.809s2.365-1.453,4.061-1.453c1.586,0,2.84.416,3.762,1.248s1.383,1.939,1.383,3.322c0,1.68-1.07,3.68-3.211,6l-4.57,4.957h8.566v1.77Z"/><path d="m70.619,63.781c0,2.539-.434,4.426-1.301,5.66s-2.223,1.852-4.066,1.852c-1.82,0-3.168-.604-4.043-1.811s-1.328-3.01-1.359-5.408v-2.895c0-2.508.434-4.371,1.301-5.59s2.227-1.828,4.078-1.828c1.836,0,3.188.588,4.055,1.764s1.312,2.99,1.336,5.443v2.812Zm-2.168-2.965c0-1.836-.258-3.174-.773-4.014s-1.332-1.26-2.449-1.26c-1.109,0-1.918.418-2.426,1.254s-.77,2.121-.785,3.855v3.469c0,1.844.268,3.205.803,4.084s1.346,1.318,2.432,1.318c1.07,0,1.865-.414,2.385-1.242s.791-2.133.814-3.914v-3.551Z"/><line x1="96.01" y1="659.273" x2="96.01" y2="61.273" fill="none" stroke="#000" stroke-miterlimit="10" stroke-width="2"/><line x1="96.011" y1="659.273" x2="1125.915" y2="659.273" fill="none" stroke="#000" stroke-miterlimit="10" stroke-width="2"/><path d="m16.583,451.586l-12.832-3.867v-3.914l17.062,5.941v3.668l-17.062,5.918v-3.902l12.832-3.844Z"/><path d="m21.048,437.102c0,1.859-.57,3.373-1.711,4.541s-2.66,1.752-4.559,1.752h-.328c-1.273,0-2.412-.246-3.416-.738s-1.777-1.189-2.32-2.092-.814-1.932-.814-3.088c0-1.734.547-3.1,1.641-4.096s2.645-1.494,4.652-1.494h1.383v8.074c.828-.109,1.492-.439,1.992-.99s.75-1.248.75-2.092c0-1.305-.473-2.324-1.418-3.059l1.863-1.664c.719.508,1.279,1.195,1.682,2.062s.604,1.828.604,2.883Zm-10.418.387c0,.672.227,1.217.682,1.635.456.418,1.107.686,1.955.803v-4.711h-.271c-.753.016-1.336.219-1.748.609s-.617.945-.617,1.664Z"/><path d="m20.813,426.391v3.398H2.813v-3.398h18Z"/><path d="m14.356,424.129c-1.258,0-2.379-.242-3.363-.727s-1.746-1.182-2.285-2.092-.809-1.967-.809-3.17c0-1.711.523-3.107,1.57-4.189s2.469-1.686,4.266-1.811l.867-.023c1.945,0,3.506.543,4.682,1.629s1.764,2.543,1.764,4.371-.586,3.287-1.758,4.377-2.766,1.635-4.781,1.635h-.152Zm.24-3.387c1.205,0,2.126-.227,2.764-.68s.957-1.102.957-1.945c0-.82-.315-1.461-.945-1.922s-1.637-.691-3.021-.691c-1.182,0-2.098.23-2.747.691s-.974,1.109-.974,1.945c0,.828.322,1.469.968,1.922s1.646.68,2.999.68Z"/><path d="m18.317,404.758c0-.625-.172-1.133-.516-1.523s-.801-.594-1.371-.609v-3.176c.859.008,1.646.242,2.361.703s1.27,1.092,1.664,1.893.592,1.686.592,2.654c0,1.812-.576,3.242-1.729,4.289s-2.744,1.57-4.775,1.57h-.223c-1.953,0-3.512-.52-4.676-1.559s-1.746-2.465-1.746-4.277c0-1.586.451-2.857,1.354-3.814s2.104-1.443,3.604-1.459v3.176c-.66.016-1.196.219-1.608.609-.413.391-.618.906-.618,1.547,0,.789.287,1.385.862,1.787s1.509.604,2.799.604h.353c1.307,0,2.246-.199,2.816-.598.571-.398.857-1.004.857-1.816Z"/><path d="m4.852,397.539c-.508,0-.926-.17-1.254-.51s-.492-.803-.492-1.389c0-.578.164-1.039.492-1.383s.746-.516,1.254-.516c.516,0,.938.174,1.266.521s.492.807.492,1.377-.164,1.029-.492,1.377-.75.521-1.266.521Zm15.961-3.598v3.398h-12.68v-3.398h12.68Z"/><path d="m5.017,387.098h3.117v-2.168h2.484v2.168h6.328c.469,0,.805-.09,1.008-.27s.305-.523.305-1.031c0-.375-.027-.707-.082-.996h2.566c.203.664.305,1.348.305,2.051,0,2.375-1.199,3.586-3.598,3.633h-6.832v1.852h-2.484v-1.852h-3.117v-3.387Z"/><path d="m16.02,378.309l-7.887-2.344v-3.633l14.648,5.098.668.281c1.656.758,2.484,2.008,2.484,3.75,0,.492-.074.992-.223,1.5h-2.566l.012-.516c0-.641-.098-1.119-.293-1.436s-.52-.564-.973-.744l-1.043-.398-12.715,4.441v-3.645l7.887-2.355Z"/><path d="m13.876,364.867c-1.789,0-3.492-.238-5.109-.715s-3.049-1.18-4.295-2.109-2.111-1.938-2.596-3.023l1.828-.656c.844,1.141,2.148,2.031,3.914,2.672s3.828.961,6.188.961h.363c2.367,0,4.438-.316,6.211-.949s3.098-1.527,3.973-2.684l1.793.656c-.477,1.062-1.318,2.053-2.525,2.971s-2.6,1.619-4.178,2.104-3.227.742-4.945.773h-.621Z"/><path d="m15.727,351.989l1.219,1.219h3.867v3.387H2.813v-3.387h9.973l-.844-.656-3.809-3.246v-4.066l5.285,4.582,7.395-4.98v3.891l-5.086,3.258Z"/><path d="m8.134,340.598l1.418-.105c-1.102-.898-1.652-2.113-1.652-3.645,0-1.633.645-2.754,1.934-3.363-1.289-.891-1.934-2.16-1.934-3.809,0-1.375.4-2.398,1.201-3.07s2.006-1.008,3.615-1.008h8.098v3.398h-8.086c-.719,0-1.244.141-1.576.422s-.498.777-.498,1.488c0,1.016.484,1.719,1.453,2.109l8.707-.012v3.387h-8.074c-.734,0-1.266.145-1.594.434s-.492.781-.492,1.477c0,.961.398,1.656,1.195,2.086h8.965v3.387h-12.68v-3.176Z"/><path d="m22.278,321.93v2.52l-18.527-6.281v-2.52l18.527,6.281Z"/><path d="m9.517,310.727c-1.078-.898-1.617-2.027-1.617-3.387,0-2.75,1.598-4.145,4.793-4.184h8.121v3.387h-8.027c-.727,0-1.264.156-1.611.469s-.521.832-.521,1.559c0,.992.383,1.711,1.148,2.156h9.012v3.387H2.813v-3.387h6.703Z"/><path d="m14.145,294.766c1.766,0,3.465.254,5.098.762s3.074,1.238,4.324,2.191,2.109,1.973,2.578,3.059l-1.793.656c-.836-1.109-2.125-1.984-3.867-2.625s-3.746-.973-6.012-.996h-.621c-2.336,0-4.395.318-6.176.955s-3.117,1.525-4.008,2.666l-1.793-.656c.461-1.062,1.297-2.064,2.508-3.006s2.621-1.672,4.23-2.191,3.277-.791,5.004-.814h.527Z"/><path d="m3.575,280.996v1.664h18.598v-1.664h2.613v5.062H.962v-5.062h2.613Z"/><path d="m13.419,269.008v6.75h4.57v-7.922h2.824v11.438H3.751v-11.414h2.848v7.898h4.066v-6.75h2.754Z"/><path d="m.962,267.145v-5.062h23.824v5.062h-2.613v-1.676H3.575v1.676H.962Z"/><line x1="96.511" y1="659.184" x2="96.511" y2="60.184" fill="none" stroke="#000" stroke-miterlimit="10" stroke-width="2"/><line x1="96.511" y1="509.548" x2="83.511" y2="509.548" fill="none" stroke="#000" stroke-miterlimit="10" stroke-width="2"/><line x1="96.511" y1="359.76" x2="83.511" y2="359.76" fill="none" stroke="#000" stroke-miterlimit="10" stroke-width="2"/><line x1="96.511" y1="209.972" x2="83.511" y2="209.972" fill="none" stroke="#000" stroke-miterlimit="10" stroke-width="2"/><line x1="96.511" y1="60.184" x2="83.511" y2="60.184" fill="none" stroke="#000" stroke-miterlimit="10" stroke-width="2"/><rect x="259.915" y="531.336" width="15" height="15" transform="translate(-302.691 346.912) rotate(-45)" fill="#5c539c"/><rect x="88.915" y="651.336" width="15" height="15" transform="translate(-437.628 261.144) rotate(-45)" fill="#5c539c"/><rect x="431.315" y="412.336" width="15" height="15" transform="translate(-168.343 433.256) rotate(-45)" fill="#5c539c"/><rect x="603.115" y="293.336" width="15" height="15" transform="translate(-33.878 519.883) rotate(-45)" fill="#5c539c"/><rect x="773.515" y="173.336" width="15" height="15" transform="translate(100.883 605.227) rotate(-45)" fill="#5c539c"/><rect x="945.915" y="54.336" width="15" height="15" transform="translate(235.524 692.278) rotate(-45)" fill="#5c539c"/><line x1="953.915" y1="61.336" x2="96.915" y2="659.336" fill="none" stroke="#5c539c" stroke-miterlimit="10" stroke-width="2"/></svg>