<?xml version="1.0" encoding="UTF-8"?>
<svg id="a" xmlns="http://www.w3.org/2000/svg" version="1.1" viewBox="0 0 1140 757">
  <!-- Generator: Adobe Illustrator 29.2.1, SVG Export Plug-In . SVG Version: 2.1.0 Build 116)  -->
  <defs>
    <style>
      .st0 {
        stroke-dasharray: 0 0 6 6;
      }

      .st0, .st1, .st2, .st3, .st4 {
        fill: none;
      }

      .st0, .st2, .st3, .st4 {
        stroke-miterlimit: 10;
        stroke-width: 2px;
      }

      .st0, .st4 {
        stroke: #5c539c;
      }

      .st5 {
        fill: #fff;
      }

      .st6 {
        opacity: .2;
      }

      .st2 {
        stroke: #000;
      }

      .st3 {
        stroke: #b1dded;
      }
    </style>
  </defs>
  <path d="M565.7,737.5h-5.2v14.2h-3.5v-14.2h-5.2v-2.8h13.9v2.8h0Z"/>
  <path d="M567.4,735.7c0-.5.2-.9.5-1.3s.8-.5,1.4-.5,1,.2,1.4.5.5.7.5,1.3-.2.9-.5,1.3-.8.5-1.4.5-1-.2-1.4-.5-.5-.8-.5-1.3h0ZM571,751.7h-3.4v-12.7h3.4v12.7Z"/>
  <path d="M577,739v1.4c1-1.1,2.2-1.7,3.8-1.7s2.8.6,3.4,1.9c.9-1.3,2.2-1.9,3.8-1.9s2.4.4,3.1,1.2,1,2,1,3.6v8.1h-3.4v-8.1c0-.7-.1-1.2-.4-1.6s-.8-.5-1.5-.5c-1,0-1.7.5-2.1,1.5v8.7s-3.4,0-3.4,0v-8.1c0-.7-.1-1.3-.4-1.6s-.8-.5-1.5-.5-1.7.4-2.1,1.2v9h-3.4v-12.7h3.2Z"/>
  <path d="M600.4,751.9c-1.9,0-3.4-.6-4.5-1.7s-1.8-2.7-1.8-4.6v-.3c0-1.3.2-2.4.7-3.4s1.2-1.8,2.1-2.3,1.9-.8,3.1-.8c1.7,0,3.1.5,4.1,1.6s1.5,2.6,1.5,4.7v1.4h-8.1c.1.8.4,1.5,1,2s1.2.8,2.1.8c1.3,0,2.3-.5,3.1-1.4l1.7,1.9c-.5.7-1.2,1.3-2.1,1.7s-1.8.6-2.9.6h0ZM600.1,741.5c-.7,0-1.2.2-1.6.7-.4.5-.7,1.1-.8,2h4.7v-.3c0-.8-.2-1.3-.6-1.7-.4-.4-.9-.6-1.7-.6h0Z"/>
  <path d="M613.7,744.7c0-1.8.2-3.5.7-5.1s1.2-3,2.1-4.3,1.9-2.1,3-2.6l.7,1.8c-1.1.8-2,2.1-2.7,3.9s-1,3.8-1,6.2v.4c0,2.4.3,4.4.9,6.2s1.5,3.1,2.7,4l-.7,1.8c-1.1-.5-2.1-1.3-3-2.5s-1.6-2.6-2.1-4.2-.7-3.2-.8-4.9v-.6h0Z"/>
  <path d="M625.3,740.4c.9-1.1,2-1.6,3.4-1.6,2.8,0,4.1,1.6,4.2,4.8v8.1h-3.4v-8c0-.7-.2-1.3-.5-1.6s-.8-.5-1.6-.5-1.7.4-2.2,1.1v9h-3.4v-18h3.4v6.7h0Z"/>
  <path d="M641.2,745c0,1.8-.3,3.5-.8,5.1s-1.2,3.1-2.2,4.3-2,2.1-3.1,2.6l-.7-1.8c1.1-.8,2-2.1,2.6-3.9s1-3.7,1-6v-.6c0-2.3-.3-4.4-1-6.2s-1.5-3.1-2.7-4l.7-1.8c1.1.5,2.1,1.3,3,2.5s1.7,2.6,2.2,4.2.8,3.3.8,5v.5h0Z"/>
  <path d="M18.6,487.8l-12.8-3.9v-3.9l17.1,5.9v3.7l-17.1,5.9v-3.9l12.8-3.8Z"/>
  <path d="M23,473.4c0,1.9-.6,3.4-1.7,4.5s-2.7,1.7-4.6,1.7h-.3c-1.3,0-2.4-.2-3.4-.7-1-.5-1.8-1.2-2.3-2.1s-.8-1.9-.8-3.1c0-1.7.5-3.1,1.6-4.1,1.1-1,2.6-1.5,4.7-1.5h1.4v8c.8-.1,1.5-.4,2-1s.8-1.2.8-2.1c0-1.3-.5-2.3-1.4-3l1.9-1.7c.7.5,1.3,1.2,1.7,2.1s.6,1.8.6,2.9h0ZM12.6,473.8c0,.7.2,1.2.7,1.6s1.1.7,2,.8v-4.7h-.3c-.8,0-1.3.2-1.7.6s-.6.9-.6,1.7Z"/>
  <path d="M22.8,462.8v3.4H4.8v-3.4h18Z"/>
  <path d="M16.4,460.5c-1.3,0-2.4-.2-3.4-.7s-1.7-1.2-2.3-2.1c-.5-.9-.8-2-.8-3.2,0-1.7.5-3.1,1.6-4.2s2.5-1.7,4.3-1.8h.9c1.9,0,3.5.5,4.7,1.6s1.8,2.5,1.8,4.4-.6,3.3-1.8,4.4-2.8,1.6-4.8,1.6h-.2ZM16.6,457.1c1.2,0,2.1-.2,2.8-.7.6-.5,1-1.1,1-1.9s-.3-1.5-.9-1.9c-.6-.5-1.6-.7-3-.7s-2.1.2-2.7.7-1,1.1-1,1.9.3,1.5,1,1.9c.6.5,1.6.7,3,.7h0Z"/>
  <path d="M20.3,441.2c0-.6-.2-1.1-.5-1.5-.3-.4-.8-.6-1.4-.6v-3.2c.9,0,1.6.2,2.4.7s1.3,1.1,1.7,1.9.6,1.7.6,2.6c0,1.8-.6,3.2-1.7,4.3s-2.7,1.6-4.8,1.6h-.2c-2,0-3.5-.5-4.7-1.6s-1.7-2.5-1.7-4.3.5-2.8,1.4-3.8c.9-1,2.1-1.4,3.6-1.5v3.2c-.7,0-1.2.2-1.6.6-.4.4-.6.9-.6,1.5s.3,1.4.9,1.8c.6.4,1.5.6,2.8.6h.4c1.3,0,2.2-.2,2.8-.6s.9-1,.9-1.8h0Z"/>
  <path d="M6.9,434c-.5,0-.9-.2-1.3-.5-.3-.3-.5-.8-.5-1.4s.2-1,.5-1.4c.3-.3.7-.5,1.3-.5s.9.2,1.3.5c.3.3.5.8.5,1.4s-.2,1-.5,1.4c-.3.3-.8.5-1.3.5h0ZM22.8,430.5v3.4h-12.7v-3.4h12.7Z"/>
  <path d="M7,423.6h3.1v-2.2h2.5v2.2h6.3c.5,0,.8,0,1-.3s.3-.5.3-1,0-.7,0-1h2.6c.2.7.3,1.3.3,2,0,2.4-1.2,3.6-3.6,3.6h-6.8v1.8h-2.5v-1.8h-3.1v-3.4h0Z"/>
  <path d="M18,414.9l-7.9-2.3v-3.6l14.6,5.1.7.3c1.7.8,2.5,2,2.5,3.7s0,1-.2,1.5h-2.6v-.5c0-.6,0-1.1-.3-1.4-.2-.3-.5-.6-1-.7l-1-.4-12.7,4.4v-3.6l7.9-2.3h0Z"/>
  <path d="M15.9,401.5c-1.8,0-3.5-.2-5.1-.7s-3-1.2-4.3-2.1-2.1-1.9-2.6-3l1.8-.7c.8,1.1,2.1,2,3.9,2.7,1.8.6,3.8,1,6.2,1h.4c2.4,0,4.4-.3,6.2-.9s3.1-1.5,4-2.7l1.8.7c-.5,1.1-1.3,2-2.5,3s-2.6,1.6-4.2,2.1-3.2.7-4.9.8h-.6Z"/>
  <path d="M17.7,388.7l1.2,1.2h3.9v3.4H4.8v-3.4h10l-.8-.7-3.8-3.2v-4l5.3,4.6,7.4-5v3.9l-5.1,3.2h0Z"/>
  <path d="M10.1,377.3h1.4c-1.1-1-1.7-2.2-1.7-3.7s.6-2.7,1.9-3.3c-1.3-.9-1.9-2.1-1.9-3.8s.4-2.4,1.2-3.1c.8-.7,2-1,3.6-1h8.1v3.4h-8.1c-.7,0-1.2.1-1.6.4-.3.3-.5.8-.5,1.5,0,1,.5,1.7,1.5,2.1h8.7s0,3.4,0,3.4h-8.1c-.7,0-1.3.1-1.6.4-.3.3-.5.8-.5,1.5s.4,1.6,1.2,2.1h9v3.4h-12.7v-3.2h0Z"/>
  <path d="M24.3,358.8v2.5l-18.5-6.3v-2.5l18.5,6.3Z"/>
  <path d="M11.5,347.6c-1.1-.9-1.6-2-1.6-3.4,0-2.7,1.6-4.1,4.8-4.2h8.1v3.4h-8c-.7,0-1.3.2-1.6.5-.3.3-.5.8-.5,1.6s.4,1.7,1.1,2.1h9v3.4H4.8v-3.4h6.7Z"/>
  <path d="M16.1,331.7c1.8,0,3.5.3,5.1.8,1.6.5,3.1,1.2,4.3,2.2s2.1,2,2.6,3l-1.8.7c-.8-1.1-2.1-2-3.9-2.6s-3.7-1-6-1h-.6c-2.3,0-4.4.3-6.2,1s-3.1,1.5-4,2.7l-1.8-.7c.5-1.1,1.3-2.1,2.5-3,1.2-.9,2.6-1.7,4.2-2.2,1.6-.5,3.3-.8,5-.8h.5Z"/>
  <path d="M5.6,318v1.7h18.6v-1.7h2.6v5H3v-5h2.6Z"/>
  <path d="M22.8,315.6h-10.2v1.9h-2.5v-1.9h-1.1c-1.4,0-2.5-.4-3.3-1.2s-1.2-2-1.2-3.4,0-1,.2-1.7h2.6c0,.3-.1.7-.1,1.1,0,1.3.6,1.9,1.8,1.9h1v-2.5h2.5v2.5h10.2v3.4h0Z"/>
  <path d="M16.4,308.5c-1.3,0-2.4-.2-3.4-.7s-1.7-1.2-2.3-2.1c-.5-.9-.8-2-.8-3.2,0-1.7.5-3.1,1.6-4.2s2.5-1.7,4.3-1.8h.9c1.9,0,3.5.5,4.7,1.6s1.8,2.5,1.8,4.4-.6,3.3-1.8,4.4-2.8,1.6-4.8,1.6h-.2ZM16.6,305.1c1.2,0,2.1-.2,2.8-.7.6-.5,1-1.1,1-1.9s-.3-1.5-.9-1.9c-.6-.5-1.6-.7-3-.7s-2.1.2-2.7.7-1,1.1-1,1.9.3,1.5,1,1.9c.6.5,1.6.7,3,.7h0Z"/>
  <path d="M13.3,287.4c0,.5,0,.9,0,1.2,0,1.3.4,2.1,1.3,2.5h8.3v3.4h-12.7v-3.2h1.5c-1.2-.8-1.7-1.7-1.7-2.9s0-.7.2-1h3.3Z"/>
  <path d="M18.2,274.6l-8.1-1.7v-3.3l12.7,3.2v2.8l-8,2.4,8,2.4v2.8l-12.7,3.2v-3.3l8.1-1.6-8.1-2.3v-2.4l8.1-2.3h0Z"/>
  <path d="M22.8,260.7c-.3.2-.7.3-1.1.3.9.8,1.4,1.9,1.4,3.2s-.4,2.3-1.1,3.1c-.7.8-1.6,1.2-2.7,1.2s-2.4-.5-3.1-1.5c-.7-1-1.1-2.4-1.1-4.3v-1.6h-.7c-.6,0-1.1.1-1.4.4-.4.3-.5.8-.5,1.4s.1,1,.4,1.3.6.5,1.1.5v3.4c-.7,0-1.4-.2-2-.7s-1.1-1.1-1.5-1.9-.5-1.8-.5-2.8c0-1.6.4-2.8,1.2-3.7s1.9-1.4,3.3-1.4h5.5c1.2,0,2.1-.2,2.7-.5h.2v3.4h0ZM20.5,263.5c0-.5-.1-1-.3-1.4-.2-.4-.5-.7-.9-.9h-2.2v1.3c0,1.7.6,2.6,1.8,2.7h.2c.4,0,.8-.1,1-.4.3-.3.4-.7.4-1.2h0Z"/>
  <path d="M13.3,248.1c0,.5,0,.9,0,1.2,0,1.3.4,2.1,1.3,2.5h8.3v3.4h-12.7v-3.2h1.5c-1.2-.8-1.7-1.7-1.7-2.9s0-.7.2-1.1h3.3Z"/>
  <path d="M16.4,247.2c-2,0-3.6-.4-4.7-1.3s-1.8-2.1-1.8-3.6.5-2.2,1.4-3h-6.5v-3.4h18v3l-1.3.2c1.1.8,1.6,1.9,1.6,3.2s-.6,2.7-1.8,3.6-2.8,1.3-4.9,1.3h0ZM16.6,243.8c1.2,0,2.1-.2,2.7-.6.6-.4,1-1,1-1.8s-.4-1.8-1.3-2.2h-5c-.9.4-1.3,1.1-1.3,2.2,0,1.6,1.3,2.4,4,2.4h0Z"/>
  <path d="M3,234.4v-5h23.8v5h-2.6v-1.7H5.6v1.7h-2.6Z"/>
  <rect class="st5" x="116" y="60.3" width="1009.9" height="597"/>
  <line class="st3" x1="594.4" y1="61.3" x2="594.4" y2="660.3"/>
  <line class="st3" x1="1072.9" y1="61.3" x2="1072.9" y2="660.3"/>
  <line class="st3" x1="114.9" y1="496.3" x2="1123.9" y2="496.3"/>
  <line class="st3" x1="114.9" y1="550.6" x2="1123.9" y2="550.6"/>
  <line class="st3" x1="114.9" y1="605" x2="1123.9" y2="605"/>
  <line class="st3" x1="114.9" y1="659.3" x2="1123.9" y2="659.3"/>
  <line class="st3" x1="114.9" y1="387.6" x2="1123.9" y2="387.6"/>
  <line class="st4" x1="114.9" y1="387.6" x2="117.9" y2="387.6"/>
  <line class="st0" x1="123.9" y1="387.6" x2="1066.4" y2="387.6"/>
  <line class="st4" x1="1069.4" y1="387.6" x2="1072.4" y2="387.6"/>
  <line class="st3" x1="114.9" y1="441.9" x2="1123.9" y2="441.9"/>
  <line class="st3" x1="114.9" y1="224.5" x2="1123.9" y2="224.5"/>
  <line class="st3" x1="114.9" y1="278.9" x2="1123.9" y2="278.9"/>
  <line class="st3" x1="114.9" y1="333.2" x2="1123.9" y2="333.2"/>
  <line class="st3" x1="114.9" y1="170.2" x2="1123.9" y2="170.2"/>
  <line class="st3" x1="114.9" y1="115.8" x2="1123.9" y2="115.8"/>
  <line class="st3" x1="117.8" y1="61.5" x2="1123.9" y2="61.5"/>
  <rect class="st1" x="113.9" y="388.3" width="959" height="270"/>
  <path d="M413.9,18.3l4.8-16h4.9l-7.4,21.3h-4.6l-7.4-21.3h4.9l4.8,16h0Z"/>
  <path d="M432,23.9c-2.3,0-4.2-.7-5.7-2.1s-2.2-3.3-2.2-5.7v-.4c0-1.6.3-3,.9-4.3s1.5-2.2,2.6-2.9c1.1-.7,2.4-1,3.9-1,2.2,0,3.9.7,5.1,2.1,1.2,1.4,1.9,3.3,1.9,5.8v1.7h-10.1c.1,1,.5,1.9,1.2,2.5.7.6,1.6.9,2.6.9,1.6,0,2.9-.6,3.8-1.8l2.1,2.3c-.6.9-1.5,1.6-2.6,2.1s-2.3.8-3.6.8h0ZM431.5,10.8c-.8,0-1.5.3-2,.9-.5.6-.9,1.4-1,2.4h5.9v-.3c0-.9-.3-1.7-.8-2.2-.5-.5-1.2-.8-2.1-.8h0Z"/>
  <path d="M445.4,23.6h-4.2V1.1h4.2v22.5Z"/>
  <path d="M448.2,15.5c0-1.6.3-3,.9-4.2s1.5-2.2,2.6-2.9c1.1-.7,2.5-1,4-1,2.1,0,3.9.7,5.2,2,1.4,1.3,2.1,3.1,2.3,5.3v1.1c0,2.4-.6,4.4-2,5.9s-3.2,2.2-5.5,2.2-4.1-.7-5.5-2.2c-1.4-1.5-2-3.5-2-6v-.2h0ZM452.4,15.8c0,1.5.3,2.7.9,3.5.6.8,1.4,1.2,2.4,1.2s1.8-.4,2.4-1.2c.6-.8.9-2,.9-3.8s-.3-2.6-.9-3.4-1.4-1.2-2.4-1.2-1.8.4-2.4,1.2c-.6.8-.9,2.1-.9,3.7h0Z"/>
  <path d="M472.4,20.4c.8,0,1.4-.2,1.9-.6s.7-1,.8-1.7h4c0,1.1-.3,2.1-.9,3s-1.4,1.6-2.4,2.1c-1,.5-2.1.7-3.3.7-2.3,0-4.1-.7-5.4-2.2s-2-3.4-2-6v-.3c0-2.4.6-4.4,1.9-5.8s3.1-2.2,5.3-2.2,3.6.6,4.8,1.7,1.8,2.6,1.8,4.5h-4c0-.8-.3-1.5-.8-2-.5-.5-1.1-.8-1.9-.8s-1.7.4-2.2,1.1c-.5.7-.8,1.9-.8,3.5v.4c0,1.6.2,2.8.7,3.5s1.3,1.1,2.3,1.1h0Z"/>
  <path d="M481.4,3.6c0-.6.2-1.2.6-1.6.4-.4,1-.6,1.7-.6s1.3.2,1.7.6c.4.4.6.9.6,1.6s-.2,1.2-.7,1.6c-.4.4-1,.6-1.7.6s-1.3-.2-1.7-.6-.7-.9-.7-1.6h0ZM485.9,23.6h-4.2V7.7h4.2v15.8h0Z"/>
  <path d="M494.5,3.8v3.9h2.7v3.1h-2.7v7.9c0,.6.1,1,.3,1.3s.7.4,1.3.4.9,0,1.2-.1v3.2c-.8.3-1.7.4-2.6.4-3,0-4.5-1.5-4.5-4.5v-8.5h-2.3v-3.1h2.3v-3.9h4.2,0Z"/>
  <path d="M505.5,17.6l2.9-9.9h4.5l-6.4,18.3-.4.8c-.9,2.1-2.5,3.1-4.7,3.1s-1.2,0-1.9-.3v-3.2h.6c.8,0,1.4-.1,1.8-.4.4-.2.7-.6.9-1.2l.5-1.3-5.6-15.9h4.6l2.9,9.9h0Z"/>
  <path d="M530.2,18.3l4.8-16h4.9l-7.4,21.3h-4.6l-7.4-21.3h4.9l4.8,16h0Z"/>
  <path d="M548.3,23.9c-2.3,0-4.2-.7-5.7-2.1s-2.2-3.3-2.2-5.7v-.4c0-1.6.3-3,.9-4.3s1.5-2.2,2.6-2.9c1.1-.7,2.4-1,3.9-1,2.2,0,3.9.7,5.1,2.1,1.2,1.4,1.9,3.3,1.9,5.8v1.7h-10.1c.1,1,.5,1.9,1.2,2.5.7.6,1.6.9,2.6.9,1.6,0,2.9-.6,3.8-1.8l2.1,2.3c-.6.9-1.5,1.6-2.6,2.1s-2.3.8-3.6.8h0ZM547.9,10.8c-.8,0-1.5.3-2,.9-.5.6-.9,1.4-1,2.4h5.9v-.3c0-.9-.3-1.7-.8-2.2-.5-.5-1.2-.8-2.1-.8h0Z"/>
  <path d="M566.2,11.7c-.6,0-1.1-.1-1.5-.1-1.6,0-2.7.5-3.1,1.6v10.4h-4.2V7.7h4v1.9c1-1.5,2.1-2.2,3.6-2.2s.9,0,1.3.2v4.1c0,0,0,0,0,0Z"/>
  <path d="M576.8,19.2c0-.5-.3-.9-.8-1.2-.5-.3-1.3-.6-2.5-.8-3.8-.8-5.7-2.4-5.7-4.8s.6-2.6,1.8-3.5,2.7-1.4,4.6-1.4,3.6.5,4.8,1.4,1.8,2.2,1.8,3.7h-4.2c0-.6-.2-1.1-.6-1.5s-1-.6-1.8-.6-1.3.2-1.7.5-.6.7-.6,1.2.2.8.7,1.1,1.2.5,2.2.7,1.9.4,2.7.7c2.2.8,3.4,2.2,3.4,4.3s-.6,2.6-1.9,3.5-2.8,1.3-4.8,1.3-2.5-.2-3.5-.7-1.8-1.1-2.4-1.9-.9-1.7-.9-2.7h4c0,.8.3,1.3.8,1.7s1.2.6,2.1.6,1.4-.2,1.8-.5c.4-.3.6-.7.6-1.2h0Z"/>
  <path d="M593.1,22c-1,1.3-2.5,1.9-4.3,1.9s-3-.5-3.9-1.5c-.9-1-1.3-2.4-1.4-4.3V7.7h4.2v10.3c0,1.7.8,2.5,2.3,2.5s2.4-.5,3-1.5V7.7h4.2v15.8h-4v-1.6c-.1,0-.1,0-.1,0Z"/>
  <path d="M609,19.2c0-.5-.3-.9-.8-1.2-.5-.3-1.3-.6-2.5-.8-3.8-.8-5.7-2.4-5.7-4.8s.6-2.6,1.8-3.5,2.7-1.4,4.6-1.4,3.6.5,4.8,1.4,1.8,2.2,1.8,3.7h-4.2c0-.6-.2-1.1-.6-1.5s-1-.6-1.8-.6-1.3.2-1.7.5-.6.7-.6,1.2.2.8.7,1.1,1.2.5,2.2.7,1.9.4,2.7.7c2.2.8,3.4,2.2,3.4,4.3s-.6,2.6-1.9,3.5-2.8,1.3-4.8,1.3-2.5-.2-3.5-.7-1.8-1.1-2.4-1.9-.9-1.7-.9-2.7h4c0,.8.3,1.3.8,1.7s1.2.6,2.1.6,1.4-.2,1.8-.5c.4-.3.6-.7.6-1.2h0Z"/>
  <path d="M638.8,5.8h-6.5v17.8h-4.4V5.8h-6.4v-3.6h17.4v3.6h0Z"/>
  <path d="M641,3.6c0-.6.2-1.2.6-1.6.4-.4,1-.6,1.7-.6s1.3.2,1.7.6c.4.4.6.9.6,1.6s-.2,1.2-.7,1.6c-.4.4-1,.6-1.7.6s-1.3-.2-1.7-.6-.7-.9-.7-1.6h0ZM645.5,23.6h-4.2V7.7h4.2v15.8h0Z"/>
  <path d="M652.9,7.7v1.8c1.3-1.4,2.8-2.1,4.7-2.1s3.4.8,4.2,2.4c1.1-1.6,2.7-2.4,4.8-2.4s3,.5,3.8,1.5,1.3,2.5,1.3,4.5v10.1h-4.2v-10.1c0-.9-.2-1.6-.5-2s-1-.6-1.9-.6c-1.3,0-2.1.6-2.6,1.8v10.9s-4.2,0-4.2,0v-10.1c0-.9-.2-1.6-.5-2s-1-.6-1.8-.6-2.1.5-2.6,1.5v11.2h-4.2V7.7h4,0Z"/>
  <path d="M682.2,23.9c-2.3,0-4.2-.7-5.7-2.1s-2.2-3.3-2.2-5.7v-.4c0-1.6.3-3,.9-4.3s1.5-2.2,2.6-2.9c1.1-.7,2.4-1,3.9-1,2.2,0,3.9.7,5.1,2.1,1.2,1.4,1.9,3.3,1.9,5.8v1.7h-10.1c.1,1,.5,1.9,1.2,2.5.7.6,1.6.9,2.6.9,1.6,0,2.9-.6,3.8-1.8l2.1,2.3c-.6.9-1.5,1.6-2.6,2.1s-2.3.8-3.6.8h0ZM681.7,10.8c-.8,0-1.5.3-2,.9-.5.6-.9,1.4-1,2.4h5.9v-.3c0-.9-.3-1.7-.8-2.2-.5-.5-1.2-.8-2.1-.8h0Z"/>
  <path d="M699.8,23.6v-12.7h-2.4v-3.1h2.4v-1.3c0-1.8.5-3.2,1.5-4.1,1-1,2.4-1.5,4.3-1.5s1.3,0,2.2.3v3.3c-.4,0-.8-.1-1.3-.1-1.6,0-2.4.7-2.4,2.2v1.3h3.1v3.1h-3.1v12.7h-4.2,0Z"/>
  <path d="M708.7,15.5c0-1.6.3-3,.9-4.2s1.5-2.2,2.6-2.9c1.1-.7,2.5-1,4-1,2.1,0,3.9.7,5.2,2,1.4,1.3,2.1,3.1,2.3,5.3v1.1c0,2.4-.7,4.4-2,5.9s-3.2,2.2-5.5,2.2-4.1-.7-5.5-2.2c-1.4-1.5-2-3.5-2-6v-.2h0ZM712.9,15.8c0,1.5.3,2.7.8,3.5.6.8,1.4,1.2,2.4,1.2s1.8-.4,2.4-1.2c.6-.8.9-2,.9-3.8s-.3-2.6-.9-3.4-1.4-1.2-2.4-1.2-1.8.4-2.4,1.2c-.6.8-.8,2.1-.8,3.7h0Z"/>
  <path d="M735.2,11.7c-.6,0-1.1-.1-1.5-.1-1.6,0-2.7.5-3.1,1.6v10.4h-4.2V7.7h4v1.9c1-1.5,2.1-2.2,3.6-2.2s.9,0,1.3.2v4.1c0,0,0,0,0,0Z"/>
  <path d="M753.9,23.6c-.2-.4-.3-.9-.4-1.4-1,1.1-2.4,1.7-4,1.7s-2.8-.4-3.9-1.3c-1-.9-1.5-2-1.5-3.4s.6-3,1.9-3.9c1.2-.9,3-1.4,5.4-1.4h1.9v-.9c0-.7-.2-1.3-.6-1.8-.4-.4-1-.7-1.8-.7s-1.3.2-1.7.5c-.4.3-.6.8-.6,1.4h-4.2c0-.9.3-1.8.8-2.5s1.4-1.4,2.4-1.8,2.2-.7,3.5-.7c2,0,3.5.5,4.7,1.5s1.7,2.4,1.7,4.1v6.9c0,1.5.2,2.6.6,3.4v.2h-4.3ZM750.4,20.6c.6,0,1.2-.1,1.7-.4s.9-.7,1.2-1.1v-2.7h-1.6c-2.1,0-3.2.7-3.4,2.2v.2c0,.5.2,1,.5,1.3s.9.5,1.5.5h0Z"/>
  <path d="M783.7,5.8h-6.5v17.8h-4.4V5.8h-6.4v-3.6h17.4v3.6h0Z"/>
  <path d="M793.9,11.7c-.6,0-1.1-.1-1.5-.1-1.6,0-2.7.5-3.1,1.6v10.4h-4.2V7.7h4v1.9c1-1.5,2.1-2.2,3.6-2.2s.9,0,1.3.2v4.1c0,0,0,0,0,0Z"/>
  <path d="M804.7,23.6c-.2-.4-.3-.9-.4-1.4-1,1.1-2.4,1.7-4,1.7s-2.8-.4-3.9-1.3c-1-.9-1.5-2-1.5-3.4s.6-3,1.9-3.9c1.2-.9,3-1.4,5.4-1.4h1.9v-.9c0-.7-.2-1.3-.6-1.8-.4-.4-1-.7-1.8-.7s-1.3.2-1.7.5c-.4.3-.6.8-.6,1.4h-4.2c0-.9.3-1.8.8-2.5s1.4-1.4,2.4-1.8,2.2-.7,3.5-.7c2,0,3.5.5,4.7,1.5s1.7,2.4,1.7,4.1v6.9c0,1.5.2,2.6.6,3.4v.2h-4.3ZM801.2,20.6c.6,0,1.2-.1,1.7-.4s.9-.7,1.2-1.1v-2.7h-1.6c-2.1,0-3.2.7-3.4,2.2v.2c0,.5.2,1,.5,1.3s.9.5,1.5.5h0Z"/>
  <path d="M811.6,3.6c0-.6.2-1.2.6-1.6.4-.4,1-.6,1.7-.6s1.3.2,1.7.6c.4.4.6.9.6,1.6s-.2,1.2-.7,1.6c-.4.4-1,.6-1.7.6s-1.3-.2-1.7-.6-.7-.9-.7-1.6h0ZM816.1,23.6h-4.2V7.7h4.2v15.8h0Z"/>
  <path d="M823.5,7.7v1.8c1.3-1.4,2.8-2.1,4.7-2.1s2.9.5,3.8,1.5c.8,1,1.2,2.5,1.3,4.4v10.2h-4.2v-10.1c0-.9-.2-1.6-.6-2s-1-.6-1.9-.6-2.1.5-2.7,1.5v11.2h-4.2V7.7h4,0Z"/>
  <g class="st6">
    <polygon class="st1" points="113.9 388.3 1072.9 115.3 1071.9 388.3 113.9 388.3"/>
  </g>
  <path d="M71.6,560.3h-2.2v-14.4l-4.4,1.6v-2l6.2-2.3h.3v17.1h0Z"/>
  <path d="M88.6,553.1c0,2.5-.4,4.4-1.3,5.7s-2.2,1.9-4.1,1.9-3.2-.6-4-1.8-1.3-3-1.4-5.4v-2.9c0-2.5.4-4.4,1.3-5.6s2.2-1.8,4.1-1.8,3.2.6,4.1,1.8,1.3,3,1.3,5.4v2.8h0ZM86.5,550.1c0-1.8-.3-3.2-.8-4s-1.3-1.3-2.4-1.3-1.9.4-2.4,1.3-.8,2.1-.8,3.9v3.5c0,1.8.3,3.2.8,4.1s1.3,1.3,2.4,1.3,1.9-.4,2.4-1.2.8-2.1.8-3.9v-3.6h0Z"/>
  <path d="M71.6,506h-2.2v-14.4l-4.4,1.6v-2l6.2-2.3h.3s0,17.1,0,17.1Z"/>
  <path d="M78.9,497.4l.9-8.5h8.7v2h-6.9l-.5,4.7c.8-.5,1.8-.7,2.8-.7,1.6,0,2.8.5,3.7,1.5s1.4,2.4,1.4,4.2-.5,3.1-1.4,4.2-2.3,1.5-4,1.5-2.7-.4-3.7-1.3-1.5-2-1.6-3.5h2.1c.1,1,.5,1.7,1,2.2s1.3.7,2.2.7,1.8-.3,2.4-1,.9-1.6.9-2.8-.3-2.1-.9-2.7-1.4-1-2.5-1-1.7.2-2.2.6l-.6.5-1.7-.4h0Z"/>
  <path d="M78.9,606.1l.9-8.5h8.7v2h-6.9l-.5,4.7c.8-.5,1.8-.7,2.8-.7,1.6,0,2.8.5,3.7,1.5s1.4,2.4,1.4,4.2-.5,3.1-1.4,4.2-2.3,1.5-4,1.5-2.7-.4-3.7-1.3-1.5-2-1.6-3.5h2.1c.1,1,.5,1.7,1,2.2s1.3.7,2.2.7,1.8-.3,2.4-1,.9-1.6.9-2.8-.3-2.1-.9-2.7-1.4-1-2.5-1-1.7.2-2.2.6l-.6.5-1.7-.4h0Z"/>
  <path d="M75.6,451.6h-11.2v-1.6l5.9-6.6c.9-1,1.5-1.8,1.8-2.4s.5-1.3.5-1.9-.3-1.6-.8-2.2-1.3-.9-2.2-.9-1.9.3-2.5.9-.9,1.5-.9,2.6h-2.2c0-1.6.5-2.8,1.5-3.8s2.4-1.5,4.1-1.5,2.8.4,3.8,1.2,1.4,1.9,1.4,3.3-1.1,3.7-3.2,6l-4.6,5h8.6v1.8h0Z"/>
  <path d="M88.6,444.3c0,2.5-.4,4.4-1.3,5.7s-2.2,1.9-4.1,1.9-3.2-.6-4-1.8-1.3-3-1.4-5.4v-2.9c0-2.5.4-4.4,1.3-5.6s2.2-1.8,4.1-1.8,3.2.6,4.1,1.8,1.3,3,1.3,5.4v2.8h0ZM86.5,441.4c0-1.8-.3-3.2-.8-4s-1.3-1.3-2.4-1.3-1.9.4-2.4,1.3-.8,2.1-.8,3.9v3.5c0,1.8.3,3.2.8,4.1s1.3,1.3,2.4,1.3,1.9-.4,2.4-1.2.8-2.1.8-3.9v-3.6h0Z"/>
  <path d="M75.6,397.2h-11.2v-1.6l5.9-6.6c.9-1,1.5-1.8,1.8-2.4s.5-1.3.5-1.9-.3-1.6-.8-2.2-1.3-.9-2.2-.9-1.9.3-2.5.9-.9,1.5-.9,2.6h-2.2c0-1.6.5-2.8,1.5-3.8s2.4-1.5,4.1-1.5,2.8.4,3.8,1.2,1.4,1.9,1.4,3.3-1.1,3.7-3.2,6l-4.6,5h8.6v1.8h0Z"/>
  <path d="M78.9,388.7l.9-8.5h8.7v2h-6.9l-.5,4.7c.8-.5,1.8-.7,2.8-.7,1.6,0,2.8.5,3.7,1.5s1.4,2.4,1.4,4.2-.5,3.1-1.4,4.2-2.3,1.5-4,1.5-2.7-.4-3.7-1.3-1.5-2-1.6-3.5h2.1c.1,1,.5,1.7,1,2.2s1.3.7,2.2.7,1.8-.3,2.4-1,.9-1.6.9-2.8-.3-2.1-.9-2.7-1.4-1-2.5-1-1.7.2-2.2.6l-.6.5-1.7-.4h0Z"/>
  <path d="M67.6,278.9h1.6c1,0,1.8-.3,2.4-.8s.9-1.2.9-2.1c0-2-1-3-3-3s-1.7.3-2.2.8-.8,1.2-.8,2.1h-2.2c0-1.4.5-2.5,1.5-3.4s2.2-1.3,3.8-1.3,2.9.4,3.8,1.3,1.4,2,1.4,3.6-.2,1.5-.7,2.2-1.1,1.2-2,1.6c.9.3,1.7.8,2.2,1.5s.8,1.5.8,2.5c0,1.5-.5,2.7-1.5,3.6s-2.3,1.3-3.9,1.3-2.9-.4-3.9-1.3-1.5-2-1.5-3.4h2.2c0,.9.3,1.6.9,2.2s1.4.8,2.4.8,1.8-.3,2.4-.8.8-1.3.8-2.4-.3-1.8-.9-2.3-1.5-.8-2.6-.8h-1.6v-1.8h0Z"/>
  <path d="M78.9,280l.9-8.5h8.7v2h-6.9l-.5,4.7c.8-.5,1.8-.7,2.8-.7,1.6,0,2.8.5,3.7,1.5s1.4,2.4,1.4,4.2-.5,3.1-1.4,4.2-2.3,1.5-4,1.5-2.7-.4-3.7-1.3-1.5-2-1.6-3.5h2.1c.1,1,.5,1.7,1,2.2s1.3.7,2.2.7,1.8-.3,2.4-1,.9-1.6.9-2.8-.3-2.1-.9-2.7-1.4-1-2.5-1-1.7.2-2.2.6l-.6.5-1.7-.4h0Z"/>
  <path d="M67.6,333.3h1.6c1,0,1.8-.3,2.4-.8s.9-1.2.9-2.1c0-2-1-3-3-3s-1.7.3-2.2.8-.8,1.2-.8,2.1h-2.2c0-1.4.5-2.5,1.5-3.4s2.2-1.3,3.8-1.3,2.9.4,3.8,1.3,1.4,2,1.4,3.6-.2,1.5-.7,2.2-1.1,1.2-2,1.6c.9.3,1.7.8,2.2,1.5s.8,1.5.8,2.5c0,1.5-.5,2.7-1.5,3.6s-2.3,1.3-3.9,1.3-2.9-.4-3.9-1.3-1.5-2-1.5-3.4h2.2c0,.9.3,1.6.9,2.2s1.4.8,2.4.8,1.8-.3,2.4-.8.8-1.3.8-2.4-.3-1.8-.9-2.3-1.5-.8-2.6-.8h-1.6v-1.8h0Z"/>
  <path d="M88.6,335.6c0,2.5-.4,4.4-1.3,5.7s-2.2,1.9-4.1,1.9-3.2-.6-4-1.8-1.3-3-1.4-5.4v-2.9c0-2.5.4-4.4,1.3-5.6s2.2-1.8,4.1-1.8,3.2.6,4.1,1.8,1.3,3,1.3,5.4v2.8h0ZM86.5,332.6c0-1.8-.3-3.2-.8-4s-1.3-1.3-2.4-1.3-1.9.4-2.4,1.3-.8,2.1-.8,3.9v3.5c0,1.8.3,3.2.8,4.1s1.3,1.3,2.4,1.3,1.9-.4,2.4-1.2.8-2.1.8-3.9v-3.6h0Z"/>
  <path d="M65.4,62.5l.9-8.5h8.7v2h-6.9l-.5,4.7c.8-.5,1.8-.7,2.8-.7,1.6,0,2.8.5,3.7,1.5s1.4,2.4,1.4,4.2-.5,3.1-1.4,4.2-2.3,1.5-4,1.5-2.7-.4-3.7-1.3-1.5-2-1.6-3.5h2.1c.1,1,.5,1.7,1,2.2s1.3.7,2.2.7,1.8-.3,2.4-1,.9-1.6.9-2.8-.3-2.1-.9-2.7-1.4-1-2.5-1-1.7.2-2.2.6l-.6.5-1.7-.4h0Z"/>
  <path d="M78.9,62.5l.9-8.5h8.7v2h-6.9l-.5,4.7c.8-.5,1.8-.7,2.8-.7,1.6,0,2.8.5,3.7,1.5s1.4,2.4,1.4,4.2-.5,3.1-1.4,4.2-2.3,1.5-4,1.5-2.7-.4-3.7-1.3-1.5-2-1.6-3.5h2.1c.1,1,.5,1.7,1,2.2s1.3.7,2.2.7,1.8-.3,2.4-1,.9-1.6.9-2.8-.3-2.1-.9-2.7-1.4-1-2.5-1-1.7.2-2.2.6l-.6.5-1.7-.4h0Z"/>
  <path d="M65.4,116.9l.9-8.5h8.7v2h-6.9l-.5,4.7c.8-.5,1.8-.7,2.8-.7,1.6,0,2.8.5,3.7,1.5s1.4,2.4,1.4,4.2-.5,3.1-1.4,4.2-2.3,1.5-4,1.5-2.7-.4-3.7-1.3-1.5-2-1.6-3.5h2.1c.1,1,.5,1.7,1,2.2s1.3.7,2.2.7,1.8-.3,2.4-1,.9-1.6.9-2.8-.3-2.1-.9-2.7-1.4-1-2.5-1-1.7.2-2.2.6l-.6.5-1.7-.4h0Z"/>
  <path d="M88.6,118.1c0,2.5-.4,4.4-1.3,5.7s-2.2,1.9-4.1,1.9-3.2-.6-4-1.8-1.3-3-1.4-5.4v-2.9c0-2.5.4-4.4,1.3-5.6s2.2-1.8,4.1-1.8,3.2.6,4.1,1.8,1.3,3,1.3,5.4v2.8h0ZM86.5,115.2c0-1.8-.3-3.2-.8-4s-1.3-1.3-2.4-1.3-1.9.4-2.4,1.3-.8,2.1-.8,3.9v3.5c0,1.8.3,3.2.8,4.1s1.3,1.3,2.4,1.3,1.9-.4,2.4-1.2.8-2.1.8-3.9v-3.6h0Z"/>
  <path d="M73.6,174.1h2.4v1.8h-2.4v4h-2.2v-4h-7.8v-1.3l7.6-11.8h2.3v11.3h0ZM66.1,174.1h5.3v-8.4l-.3.5-5.1,7.9h0Z"/>
  <path d="M78.9,171.2l.9-8.5h8.7v2h-6.9l-.5,4.7c.8-.5,1.8-.7,2.8-.7,1.6,0,2.8.5,3.7,1.5s1.4,2.4,1.4,4.2-.5,3.1-1.4,4.2-2.3,1.5-4,1.5-2.7-.4-3.7-1.3-1.5-2-1.6-3.5h2.1c.1,1,.5,1.7,1,2.2s1.3.7,2.2.7,1.8-.3,2.4-1,.9-1.6.9-2.8-.3-2.1-.9-2.7-1.4-1-2.5-1-1.7.2-2.2.6l-.6.5-1.7-.4h0Z"/>
  <path d="M73.6,228.4h2.4v1.8h-2.4v4h-2.2v-4h-7.8v-1.3l7.6-11.8h2.3v11.3h0ZM66.1,228.4h5.3v-8.4l-.3.5-5.1,7.9h0Z"/>
  <path d="M88.6,226.9c0,2.5-.4,4.4-1.3,5.7s-2.2,1.9-4.1,1.9-3.2-.6-4-1.8-1.3-3-1.4-5.4v-2.9c0-2.5.4-4.4,1.3-5.6s2.2-1.8,4.1-1.8,3.2.6,4.1,1.8,1.3,3,1.3,5.4v2.8h0ZM86.5,223.9c0-1.8-.3-3.2-.8-4s-1.3-1.3-2.4-1.3-1.9.4-2.4,1.3-.8,2.1-.8,3.9v3.5c0,1.8.3,3.2.8,4.1s1.3,1.3,2.4,1.3,1.9-.4,2.4-1.2.8-2.1.8-3.9v-3.6h0Z"/>
  <line class="st2" x1="114.9" y1="659.3" x2="1123.9" y2="659.3"/>
  <line class="st2" x1="115.5" y1="659.2" x2="115.5" y2="60.2"/>
  <line class="st2" x1="115.5" y1="495.9" x2="102.5" y2="495.9"/>
  <line class="st2" x1="115.5" y1="441.5" x2="102.5" y2="441.5"/>
  <line class="st2" x1="115.5" y1="387" x2="102.5" y2="387"/>
  <line class="st2" x1="115.5" y1="332.5" x2="102.5" y2="332.5"/>
  <line class="st2" x1="115.5" y1="278.1" x2="102.5" y2="278.1"/>
  <line class="st2" x1="115.5" y1="223.6" x2="102.5" y2="223.6"/>
  <line class="st2" x1="115.9" y1="604.9" x2="102.9" y2="604.9"/>
  <line class="st2" x1="115.9" y1="550.4" x2="102.9" y2="550.4"/>
  <line class="st2" x1="115.5" y1="169.1" x2="102.5" y2="169.1"/>
  <line class="st2" x1="115.5" y1="114.7" x2="102.5" y2="114.7"/>
  <line class="st2" x1="115.5" y1="60.2" x2="102.5" y2="60.2"/>
  <line class="st4" x1="115.9" y1="387.3" x2="1072.9" y2="115.3"/>
  <path d="M589.9,699.6c0,2.5-.4,4.4-1.3,5.7s-2.2,1.9-4.1,1.9-3.2-.6-4-1.8-1.3-3-1.4-5.4v-2.9c0-2.5.4-4.4,1.3-5.6s2.2-1.8,4.1-1.8,3.2.6,4.1,1.8,1.3,3,1.3,5.4v2.8h0ZM587.7,696.6c0-1.8-.3-3.2-.8-4s-1.3-1.3-2.4-1.3-1.9.4-2.4,1.3-.8,2.1-.8,3.9v3.5c0,1.8.3,3.2.8,4.1s1.3,1.3,2.4,1.3,1.9-.4,2.4-1.2.8-2.1.8-3.9v-3.6h0Z"/>
  <path d="M592.9,705.7c0-.4.1-.7.3-.9s.6-.4,1-.4.8.1,1,.4.3.6.3.9-.1.7-.3.9-.6.4-1,.4-.8-.1-1-.4-.3-.5-.3-.9Z"/>
  <path d="M600,698.3l.9-8.5h8.7v2h-6.9l-.5,4.7c.8-.5,1.8-.7,2.8-.7,1.6,0,2.8.5,3.7,1.5s1.4,2.4,1.4,4.2-.5,3.1-1.4,4.2-2.3,1.5-4,1.5-2.7-.4-3.7-1.3-1.5-2-1.6-3.5h2.1c.1,1,.5,1.7,1,2.2s1.3.7,2.2.7,1.8-.3,2.4-1,.9-1.6.9-2.8-.3-2.1-.9-2.7-1.4-1-2.5-1-1.7.2-2.2.6l-.6.5-1.7-.4h0Z"/>
  <path d="M1070.5,705.7c0-.4.1-.7.3-.9s.6-.4,1-.4.8.1,1,.4.3.6.3.9-.1.7-.3.9-.6.4-1,.4-.8-.1-1-.4-.3-.5-.3-.9Z"/>
  <path d="M1065.4,706.9h-2.2v-14.4l-4.4,1.6v-2l6.2-2.3h.3v17.1h0Z"/>
  <path d="M1087,699.6c0,2.5-.4,4.4-1.3,5.7s-2.2,1.9-4.1,1.9-3.2-.6-4-1.8-1.3-3-1.4-5.4v-2.9c0-2.5.4-4.4,1.3-5.6s2.2-1.8,4.1-1.8,3.2.6,4.1,1.8,1.3,3,1.3,5.4v2.8h0ZM1084.8,696.6c0-1.8-.3-3.2-.8-4s-1.3-1.3-2.4-1.3-1.9.4-2.4,1.3-.8,2.1-.8,3.9v3.5c0,1.8.3,3.2.8,4.1s1.3,1.3,2.4,1.3,1.9-.4,2.4-1.2.8-2.1.8-3.9v-3.6h0Z"/>
  <path d="M638.1,314.9h-2.2v-14.4l-4.4,1.6v-2l6.2-2.3h.3v17.1h0Z"/>
  <path d="M641.2,532.9h-11.2v-1.6l5.9-6.6c.9-1,1.5-1.8,1.8-2.4s.5-1.3.5-1.9-.3-1.6-.8-2.2-1.3-.9-2.2-.9-1.9.3-2.5.9-.9,1.5-.9,2.6h-2.2c0-1.6.5-2.8,1.5-3.8s2.4-1.5,4.1-1.5,2.8.4,3.8,1.2,1.4,1.9,1.4,3.3-1.1,3.7-3.2,6l-4.6,5h8.6v1.8h0Z"/>
  <path d="M1097.7,82.5c-2.6,1.1-4.8,3.2-6.6,5.3l-.6-.5c.6-.9,1.4-1.8,2.3-2.6.2-.2.4-.5.4-.8s-.2-.5-.7-.5h-16.5v-1.8h16.6c.3,0,.7-.3.7-.6s-.1-.4-.4-.7c-.8-.8-1.6-1.7-2.3-2.6l.6-.5c1.8,2.1,3.9,4.2,6.5,5.3v.3h0Z"/>
  <path d="M1083.6,89.4c.4,3.5.7,7.2.8,10.6v.9c0,0,0,0,0,0,2.5-2.1,4.7-4.9,4.7-7.4s-1.3-1.7-1.3-3,.6-1.2,1.2-1.2c1.3,0,1.7,1.5,1.7,2.5,0,4.5-3.3,8.3-6.9,10.6h-1.3c-.2-4.1-.4-6.8-.9-10.3-.1-1.3-.4-1.6-1.2-1.6s-.5,0-.9,0v-.8l3.5-.4h.6Z"/>
  <path d="M1097.5,111.3h-6.2v-.5l2.4-2.4c1.6-1.6,2.3-2.6,2.3-4.3s-.8-1.9-2-1.9-1.7.4-2.3,1.5l-.4-.2c.5-1.5,1.6-2.4,3.1-2.4s3,1.1,3,2.7-.9,2.5-2.6,4.2l-2.1,2h0c0,0,1.1,0,1.1,0h2.2c.8,0,1-.3,1.4-1.3h.5l-.5,2.5h0Z"/>
  <path d="M1100.7,353.5c-2.6,1.1-4.8,3.2-6.6,5.3l-.6-.5c.6-.9,1.4-1.8,2.3-2.6.2-.2.4-.5.4-.8s-.2-.5-.7-.5h-16.5v-1.8h16.6c.3,0,.7-.3.7-.6s-.1-.4-.4-.7c-.8-.8-1.6-1.7-2.3-2.6l.6-.5c1.8,2.1,3.9,4.2,6.5,5.3v.3h0Z"/>
  <path d="M1086.6,360.4c.4,3.5.7,7.2.8,10.6v.9c0,0,0,0,0,0,2.5-2.1,4.7-4.9,4.7-7.4s-1.3-1.7-1.3-3,.6-1.2,1.2-1.2c1.3,0,1.7,1.5,1.7,2.5,0,4.5-3.3,8.3-6.9,10.6h-1.3c-.2-4.1-.4-6.8-.9-10.3-.1-1.3-.4-1.6-1.2-1.6s-.5,0-.9,0v-.8l3.5-.4h.6Z"/>
  <path d="M1095,382.3v-.4c1.5,0,2-.3,2-1.1v-6.7c0-.6-.1-.8-.5-.8s-1.1,0-1.6.3v-.5l3.1-.9h.5v8.6c0,.8.6,1.1,2,1.1v.4h-5.4Z"/>
  <path d="M88.6,699.6c0,2.5-.4,4.4-1.3,5.7s-2.2,1.9-4.1,1.9-3.2-.6-4-1.8-1.3-3-1.4-5.4v-2.9c0-2.5.4-4.4,1.3-5.6s2.2-1.8,4.1-1.8,3.2.6,4.1,1.8,1.3,3,1.3,5.4v2.8h0ZM86.5,696.6c0-1.8-.3-3.2-.8-4s-1.3-1.3-2.4-1.3-1.9.4-2.4,1.3-.8,2.1-.8,3.9v3.5c0,1.8.3,3.2.8,4.1s1.3,1.3,2.4,1.3,1.9-.4,2.4-1.2.8-2.1.8-3.9v-3.6h0Z"/>
  <line class="st2" x1="1072.9" y1="660.4" x2="1072.9" y2="673.4"/>
  <line class="st2" x1="594.4" y1="660.4" x2="594.4" y2="673.4"/>
</svg>