<?xml version="1.0" encoding="UTF-8"?>
<svg id="bg" xmlns="http://www.w3.org/2000/svg" width="570" height="307" viewBox="0 0 570 307">
  <defs>
    <style>
      .cls-1 {
        stroke: #0077a2;
      }

      .cls-1, .cls-2, .cls-3 {
        fill: none;
        stroke-miterlimit: 10;
        stroke-width: 3px;
      }

      .cls-2 {
        stroke: #d12d32;
      }

      .cls-3 {
        stroke: #5c539c;
      }

      .cls-4 {
        fill: #0077a2;
      }

      .cls-5 {
        fill: #d12d32;
      }

      .cls-6 {
        fill: #d1e8e3;
      }

      .cls-7 {
        fill: #5c539c;
      }
    </style>
  </defs>
  <path class="cls-6" d="m3.54,182.39c-2.76-43.57-.52-100.14,37.25-136.6C85.41,2.74,194.38,3.5,303.71,2.4c111.56-1.12,177.95-5.69,214.49,22,38.76,29.38,45,76.64,48.98,120.04,4.95,53.93-9.81,105.16-62.85,140.82-19.81,13.32-91,12.98-165.51,15.05-33.58.93-200.62,17.05-289.05-12.37C10.26,274.8,6.32,226.32,3.54,182.39Z"/>
  <g>
    <path d="m93.02,215.04h-2.18v-14.45l-4.37,1.61v-1.97l6.21-2.33h.34v17.14Z"/>
    <path d="m100.36,206.49l.87-8.51h8.74v2h-6.9l-.52,4.65c.84-.49,1.79-.74,2.85-.74,1.55,0,2.79.51,3.7,1.54s1.37,2.42,1.37,4.17-.47,3.14-1.42,4.15-2.28,1.52-3.98,1.52c-1.51,0-2.74-.42-3.69-1.25s-1.5-1.99-1.63-3.47h2.05c.13.98.48,1.71,1.04,2.21s1.3.74,2.23.74c1.01,0,1.8-.34,2.37-1.03s.86-1.64.86-2.85c0-1.14-.31-2.06-.93-2.75s-1.45-1.04-2.48-1.04c-.95,0-1.69.21-2.23.62l-.57.47-1.73-.45Z"/>
    <path d="m112.95,200.79c0-.81.29-1.52.87-2.13s1.29-.91,2.12-.91,1.51.3,2.08.91.86,1.32.86,2.14-.29,1.54-.86,2.12-1.27.88-2.08.88-1.52-.29-2.11-.88-.88-1.29-.88-2.12Zm2.99,1.5c.42,0,.78-.14,1.07-.41s.43-.64.43-1.08-.14-.82-.43-1.12-.64-.44-1.07-.44-.79.15-1.08.46c-.29.31-.44.67-.44,1.09s.15.77.44,1.06.65.43,1.08.43Z"/>
  </g>
  <g>
    <path d="m67.37,82.23c-2.65,1.13-4.75,3.19-6.56,5.29l-.57-.54c.65-.89,1.43-1.78,2.27-2.65.24-.24.38-.54.38-.78,0-.27-.22-.54-.7-.54h-16.55v-1.84h16.57c.27,0,.7-.32.7-.59,0-.24-.11-.43-.38-.7-.81-.76-1.65-1.73-2.27-2.65l.57-.54c1.78,2.08,3.89,4.16,6.53,5.26v.27Z"/>
    <g>
      <path d="m54.91,93.19c.41,3.46.67,7.21.78,10.58l-.05.94h.05c2.54-2.05,4.67-4.91,4.67-7.4,0-1.65-1.35-1.73-1.35-3,0-.81.57-1.19,1.21-1.19,1.35,0,1.73,1.48,1.73,2.54,0,4.51-3.29,8.34-6.94,10.61h-1.32c-.16-4.08-.41-6.8-.86-10.31-.14-1.27-.35-1.59-1.24-1.59-.27,0-.51.03-.86.08v-.84l3.54-.43h.65Z"/>
      <path d="m70.03,96.83v-1.84h16.09v1.84h-16.09Zm0,6.4v-1.81h16.09v1.81h-16.09Z"/>
      <path d="m106.46,106.06h-11.18v-1.56l5.91-6.56c.88-.99,1.48-1.8,1.81-2.42s.5-1.26.5-1.93c0-.89-.27-1.62-.81-2.19s-1.26-.86-2.16-.86c-1.08,0-1.92.31-2.51.92s-.9,1.47-.9,2.56h-2.17c0-1.57.51-2.84,1.52-3.81s2.37-1.45,4.06-1.45c1.59,0,2.84.42,3.76,1.25s1.38,1.94,1.38,3.32c0,1.68-1.07,3.68-3.21,6l-4.57,4.96h8.57v1.77Z"/>
      <path d="m119.46,98.79c0,2.54-.43,4.43-1.3,5.66s-2.22,1.85-4.07,1.85-3.17-.6-4.04-1.81-1.33-3.01-1.36-5.41v-2.89c0-2.51.43-4.37,1.3-5.59s2.23-1.83,4.08-1.83,3.19.59,4.05,1.76,1.31,2.99,1.34,5.44v2.81Zm-2.17-2.96c0-1.84-.26-3.17-.77-4.01s-1.33-1.26-2.45-1.26-1.92.42-2.43,1.25-.77,2.12-.79,3.86v3.47c0,1.84.27,3.21.8,4.08s1.35,1.32,2.43,1.32,1.87-.41,2.38-1.24.79-2.13.81-3.91v-3.55Z"/>
      <path d="m122.51,104.93c0-.38.11-.69.33-.94s.56-.38,1-.38.78.12,1.01.38.35.56.35.94-.12.66-.35.9-.57.36-1.01.36-.78-.12-1-.36-.33-.54-.33-.9Z"/>
      <path d="m139.25,98.79c0,2.54-.43,4.43-1.3,5.66s-2.22,1.85-4.07,1.85-3.17-.6-4.04-1.81-1.33-3.01-1.36-5.41v-2.89c0-2.51.43-4.37,1.3-5.59s2.23-1.83,4.08-1.83,3.19.59,4.05,1.76,1.31,2.99,1.34,5.44v2.81Zm-2.17-2.96c0-1.84-.26-3.17-.77-4.01s-1.33-1.26-2.45-1.26-1.92.42-2.43,1.25-.77,2.12-.79,3.86v3.47c0,1.84.27,3.21.8,4.08s1.35,1.32,2.43,1.32,1.87-.41,2.38-1.24.79-2.13.81-3.91v-3.55Z"/>
      <path d="m150.23,93.38l.06,1.41c.93-1.09,2.18-1.64,3.76-1.64,1.77,0,2.98.68,3.62,2.04.42-.61.97-1.1,1.65-1.48s1.47-.56,2.4-.56c2.78,0,4.2,1.47,4.24,4.42v8.5h-2.17v-8.37c0-.91-.21-1.58-.62-2.03s-1.11-.67-2.09-.67c-.8,0-1.47.24-2,.72s-.84,1.13-.93,1.94v8.41h-2.18v-8.31c0-1.84-.9-2.77-2.71-2.77-1.42,0-2.39.61-2.92,1.82v9.26h-2.17v-12.68h2.05Z"/>
      <path d="m169.66,107.53h-1.86l7.12-18.53h1.85l-7.11,18.53Z"/>
      <path d="m186.5,102.7c0-.59-.22-1.04-.66-1.37s-1.21-.6-2.31-.84-1.97-.52-2.61-.84-1.12-.72-1.43-1.17-.46-.99-.46-1.62c0-1.04.44-1.92,1.32-2.64s2-1.08,3.37-1.08c1.44,0,2.6.37,3.5,1.11s1.34,1.69,1.34,2.85h-2.18c0-.59-.25-1.11-.76-1.54s-1.14-.64-1.9-.64-1.41.17-1.85.52-.67.79-.67,1.35c0,.52.21.92.62,1.18s1.16.52,2.24.76,1.96.53,2.63.87,1.17.74,1.49,1.21.49,1.05.49,1.73c0,1.13-.45,2.04-1.36,2.72s-2.08,1.03-3.53,1.03c-1.02,0-1.91-.18-2.7-.54s-1.39-.86-1.83-1.51-.66-1.34-.66-2.09h2.17c.04.73.33,1.3.87,1.73s1.26.64,2.15.64c.82,0,1.48-.17,1.97-.5s.74-.78.74-1.33Z"/>
    </g>
  </g>
  <g>
    <g>
      <line class="cls-2" x1="31.35" y1="224.28" x2="346.25" y2="40.6"/>
      <polygon class="cls-5" points="349.26 52.7 361.13 31.92 337.2 32.03 349.26 52.7"/>
    </g>
    <g>
      <line class="cls-1" x1="360.71" y1="221.5" x2="361.09" y2="51.07"/>
      <polygon class="cls-4" points="373.05 54.6 361.13 33.85 349.12 54.55 373.05 54.6"/>
    </g>
    <g>
      <line class="cls-3" x1="344.23" y1="224.84" x2="30.09" y2="224.69"/>
      <polygon class="cls-7" points="340.74 212.87 361.46 224.85 340.73 236.81 340.74 212.87"/>
    </g>
  </g>
  <g>
    <path d="m405.77,120.03c-2.65,1.13-4.75,3.19-6.56,5.29l-.57-.54c.65-.89,1.43-1.78,2.27-2.65.24-.24.38-.54.38-.78,0-.27-.22-.54-.7-.54h-16.55v-1.84h16.57c.27,0,.7-.32.7-.59,0-.24-.11-.43-.38-.7-.81-.76-1.65-1.73-2.27-2.65l.57-.54c1.78,2.08,3.89,4.16,6.53,5.26v.27Z"/>
    <g>
      <path d="m393.31,130.99c.41,3.46.67,7.21.78,10.58l-.05.94h.05c2.54-2.05,4.67-4.91,4.67-7.4,0-1.65-1.35-1.73-1.35-3,0-.81.57-1.19,1.21-1.19,1.35,0,1.73,1.48,1.73,2.54,0,4.51-3.29,8.34-6.94,10.61h-1.32c-.16-4.08-.41-6.8-.86-10.31-.14-1.27-.35-1.59-1.24-1.59-.27,0-.51.03-.86.08v-.84l3.54-.43h.65Z"/>
      <path d="m404.15,150.03l.14,1.57h.09l1.81-2.91c.38-.61.52-1.04.52-1.29,0-.58-.77-.9-.77-1.51,0-.35.24-.63.68-.63.54,0,1.01.39,1.01,1.28,0,.57-.19,1.2-.68,2.09-.79,1.46-2.43,3.76-2.58,3.98-1.7,2.42-2.6,3.7-3.65,3.7-.63,0-1.23-.43-1.23-1.07,0-.44.27-.68.61-.68.65,0,.88.85,1.13.85.35,0,1.61-1.76,2.05-2.42l-.9-5.54c-.13-.79-.22-1.48-1.15-1.48-.14,0-.28.02-.42.03v-.46l2.11-.17h.24c.35.6.46,1.1.65,2.36l.35,2.3Z"/>
      <path d="m415.45,134.63v-1.84h16.09v1.84h-16.09Zm0,6.4v-1.81h16.09v1.81h-16.09Z"/>
      <path d="m441.71,135.31l.87-8.51h8.74v2h-6.9l-.52,4.65c.84-.49,1.79-.74,2.85-.74,1.55,0,2.79.51,3.7,1.54s1.37,2.42,1.37,4.17-.47,3.14-1.42,4.15-2.28,1.52-3.98,1.52c-1.51,0-2.74-.42-3.69-1.25s-1.5-1.99-1.63-3.47h2.05c.13.98.48,1.71,1.04,2.21s1.3.74,2.23.74c1.01,0,1.8-.34,2.37-1.03s.86-1.64.86-2.85c0-1.14-.31-2.06-.93-2.75s-1.45-1.04-2.48-1.04c-.95,0-1.69.21-2.23.62l-.57.47-1.73-.45Z"/>
      <path d="m454.46,142.72c0-.38.11-.69.33-.94s.56-.38,1-.38.78.12,1.01.38.35.56.35.94-.12.66-.35.9-.57.36-1.01.36-.78-.12-1-.36-.33-.54-.33-.9Z"/>
      <path d="m467.63,143.86h-2.18v-14.45l-4.37,1.61v-1.97l6.21-2.33h.34v17.14Z"/>
      <path d="m485,128.02l-7.07,15.84h-2.27l7.04-15.28h-9.23v-1.78h11.53v1.22Z"/>
      <path d="m495.96,126.79v1.84h-.4c-1.69.03-3.03.53-4.03,1.5s-1.58,2.33-1.73,4.09c.9-1.03,2.12-1.55,3.68-1.55s2.67.52,3.56,1.57,1.33,2.4,1.33,4.05c0,1.76-.48,3.16-1.44,4.22s-2.24,1.58-3.85,1.58-2.96-.63-3.97-1.88-1.52-2.87-1.52-4.85v-.83c0-3.14.67-5.54,2.01-7.2s3.33-2.51,5.98-2.55h.39Zm-2.85,7.69c-.74,0-1.43.22-2.05.67s-1.06,1-1.3,1.68v.8c0,1.41.32,2.54.95,3.4s1.42,1.29,2.37,1.29,1.74-.36,2.3-1.08.84-1.66.84-2.82-.28-2.12-.85-2.84-1.32-1.08-2.26-1.08Z"/>
      <path d="m509.14,131.18l.06,1.41c.93-1.09,2.18-1.64,3.76-1.64,1.77,0,2.98.68,3.62,2.04.42-.61.97-1.1,1.65-1.48s1.47-.56,2.4-.56c2.78,0,4.2,1.47,4.24,4.42v8.5h-2.17v-8.37c0-.91-.21-1.58-.62-2.03s-1.11-.67-2.09-.67c-.8,0-1.47.24-2,.72s-.84,1.13-.93,1.94v8.41h-2.18v-8.31c0-1.84-.9-2.77-2.71-2.77-1.42,0-2.39.61-2.92,1.82v9.26h-2.17v-12.68h2.05Z"/>
      <path d="m528.57,145.33h-1.86l7.12-18.53h1.85l-7.11,18.53Z"/>
      <path d="m545.41,140.5c0-.59-.22-1.04-.66-1.37s-1.21-.6-2.31-.84-1.97-.52-2.61-.84-1.12-.72-1.43-1.17-.46-.99-.46-1.62c0-1.04.44-1.92,1.32-2.64s2-1.08,3.37-1.08c1.44,0,2.6.37,3.5,1.11s1.34,1.69,1.34,2.85h-2.18c0-.59-.25-1.11-.76-1.54s-1.14-.64-1.9-.64-1.41.17-1.85.52-.67.79-.67,1.35c0,.52.21.92.62,1.18s1.16.52,2.24.76,1.96.53,2.63.87,1.17.74,1.49,1.21.49,1.05.49,1.73c0,1.13-.45,2.04-1.36,2.72s-2.08,1.03-3.53,1.03c-1.02,0-1.91-.18-2.7-.54s-1.39-.86-1.83-1.51-.66-1.34-.66-2.09h2.17c.04.73.33,1.3.87,1.73s1.26.64,2.15.64c.82,0,1.48-.17,1.97-.5s.74-.78.74-1.33Z"/>
    </g>
  </g>
  <g>
    <path d="m157.51,247.42c-2.65,1.13-4.75,3.19-6.56,5.29l-.57-.54c.65-.89,1.43-1.78,2.27-2.65.24-.24.38-.54.38-.78,0-.27-.22-.54-.7-.54h-16.55v-1.84h16.57c.27,0,.7-.32.7-.59,0-.24-.11-.43-.38-.7-.81-.76-1.65-1.73-2.27-2.65l.57-.54c1.78,2.08,3.89,4.16,6.53,5.26v.27Z"/>
    <g>
      <path d="m145.05,258.38c.41,3.46.67,7.21.78,10.58l-.05.94h.05c2.54-2.05,4.67-4.91,4.67-7.4,0-1.65-1.35-1.73-1.35-3,0-.81.57-1.19,1.21-1.19,1.35,0,1.73,1.48,1.73,2.54,0,4.51-3.29,8.34-6.94,10.61h-1.32c-.16-4.08-.41-6.8-.86-10.31-.14-1.27-.35-1.59-1.24-1.59-.27,0-.51.03-.86.08v-.84l3.54-.43h.65Z"/>
      <path d="m157.21,274.23c.41-.71,1.01-1.53,2-1.53.55,0,.77.25.77.68,0,.54-.35.76-.71.76-.3,0-.58-.16-.85-.16-.33,0-.57.22-.83.66l-.96,1.53.33,1.07c.44,1.42.72,2.03,1.26,2.03.41,0,.74-.38,1.12-.88l.33.25c-.44.68-1.13,1.76-2.16,1.76-.77,0-1.07-.6-1.32-1.62l-.39-1.59h-.06l-1.01,1.64c-.5.82-1.02,1.56-1.97,1.56-.68,0-.91-.39-.91-.76s.24-.68.63-.68c.32,0,.72.2.98.2.06,0,.35-.02.96-.9l1.13-1.65-.44-1.43c-.41-1.31-.71-1.73-1.65-1.73-.17,0-.31.02-.52.05v-.47l2.14-.25h.24c.38.44.69,1.13.9,1.98l.19.8h.05l.77-1.32Z"/>
      <path d="m167.3,262.02v-1.84h16.09v1.84h-16.09Zm0,6.4v-1.81h16.09v1.81h-16.09Z"/>
      <path d="m199.68,271.25h-2.18v-14.45l-4.37,1.61v-1.97l6.21-2.33h.34v17.14Z"/>
      <path d="m214.34,263.75c-.45.54-.99.97-1.62,1.3s-1.32.49-2.07.49c-.98,0-1.84-.24-2.57-.73s-1.29-1.17-1.69-2.04-.6-1.85-.6-2.91c0-1.14.22-2.17.65-3.08s1.05-1.61,1.85-2.1,1.73-.73,2.79-.73c1.69,0,3.02.63,3.99,1.89s1.46,2.98,1.46,5.16v.63c0,3.32-.66,5.74-1.97,7.27s-3.29,2.31-5.94,2.35h-.42v-1.84h.46c1.79-.03,3.16-.5,4.12-1.4s1.48-2.33,1.57-4.27Zm-3.34,0c.73,0,1.4-.22,2.01-.67s1.06-1,1.34-1.65v-.87c0-1.42-.31-2.58-.93-3.47s-1.4-1.34-2.34-1.34-1.72.37-2.3,1.1-.87,1.69-.87,2.89.28,2.12.84,2.88,1.31,1.13,2.24,1.13Z"/>
      <path d="m219.78,270.12c0-.38.11-.69.33-.94s.56-.38,1-.38.78.12,1.01.38.35.56.35.94-.12.66-.35.9-.57.36-1.01.36-.78-.12-1-.36-.33-.54-.33-.9Z"/>
      <path d="m228.98,261.67h1.63c1.02-.02,1.83-.29,2.41-.81s.88-1.23.88-2.12c0-2-1-3-2.99-3-.94,0-1.69.27-2.24.8s-.84,1.24-.84,2.13h-2.17c0-1.35.49-2.47,1.48-3.37s2.24-1.34,3.77-1.34c1.61,0,2.87.43,3.79,1.28s1.37,2.04,1.37,3.55c0,.74-.24,1.46-.72,2.16s-1.13,1.21-1.96,1.56c.94.3,1.66.79,2.17,1.48s.77,1.53.77,2.52c0,1.53-.5,2.75-1.5,3.64s-2.3,1.35-3.9,1.35-2.9-.43-3.91-1.3-1.51-2.01-1.51-3.43h2.18c0,.9.29,1.62.88,2.16s1.37.81,2.36.81c1.05,0,1.85-.27,2.4-.82s.83-1.33.83-2.36-.3-1.75-.91-2.29-1.49-.8-2.64-.82h-1.63v-1.77Z"/>
      <path d="m250.48,271.25h-11.18v-1.56l5.91-6.56c.88-.99,1.48-1.8,1.81-2.42s.5-1.26.5-1.93c0-.89-.27-1.62-.81-2.19s-1.26-.86-2.16-.86c-1.08,0-1.92.31-2.51.92s-.9,1.47-.9,2.56h-2.17c0-1.57.51-2.84,1.52-3.81s2.37-1.45,4.06-1.45c1.59,0,2.84.42,3.76,1.25s1.38,1.94,1.38,3.32c0,1.68-1.07,3.68-3.21,6l-4.57,4.96h8.57v1.77Z"/>
      <path d="m260.98,258.57l.06,1.41c.93-1.09,2.18-1.64,3.76-1.64,1.77,0,2.98.68,3.62,2.04.42-.61.97-1.1,1.65-1.48s1.47-.56,2.4-.56c2.78,0,4.2,1.47,4.24,4.42v8.5h-2.17v-8.37c0-.91-.21-1.58-.62-2.03s-1.11-.67-2.09-.67c-.8,0-1.47.24-2,.72s-.84,1.13-.93,1.94v8.41h-2.18v-8.31c0-1.84-.9-2.77-2.71-2.77-1.42,0-2.39.61-2.92,1.82v9.26h-2.17v-12.68h2.05Z"/>
      <path d="m280.41,272.72h-1.86l7.12-18.53h1.85l-7.11,18.53Z"/>
      <path d="m297.25,267.89c0-.59-.22-1.04-.66-1.37s-1.21-.6-2.31-.84-1.97-.52-2.61-.84-1.12-.72-1.43-1.17-.46-.99-.46-1.62c0-1.04.44-1.92,1.32-2.64s2-1.08,3.37-1.08c1.44,0,2.6.37,3.5,1.11s1.34,1.69,1.34,2.85h-2.18c0-.59-.25-1.11-.76-1.54s-1.14-.64-1.9-.64-1.41.17-1.85.52-.67.79-.67,1.35c0,.52.21.92.62,1.18s1.16.52,2.24.76,1.96.53,2.63.87,1.17.74,1.49,1.21.49,1.05.49,1.73c0,1.13-.45,2.04-1.36,2.72s-2.08,1.03-3.53,1.03c-1.02,0-1.91-.18-2.7-.54s-1.39-.86-1.83-1.51-.66-1.34-.66-2.09h2.17c.04.73.33,1.3.87,1.73s1.26.64,2.15.64c.82,0,1.48-.17,1.97-.5s.74-.78.74-1.33Z"/>
    </g>
  </g>
</svg>