<?xml version="1.0" encoding="UTF-8"?>
<svg id="Layer_1" data-name="Layer 1" xmlns="http://www.w3.org/2000/svg" viewBox="0 0 570 420">
  <defs>
    <style>
      .cls-1 {
        stroke: #000;
      }

      .cls-1, .cls-2 {
        fill: none;
        stroke-miterlimit: 10;
        stroke-width: 2px;
      }

      .cls-2 {
        stroke: #d12d32;
      }

      .cls-3, .cls-4, .cls-5, .cls-6 {
        stroke-width: 0px;
      }

      .cls-4 {
        fill: #212728;
      }

      .cls-5 {
        fill: #bfaacc;
      }

      .cls-6 {
        fill: #d12d32;
      }
    </style>
  </defs>
  <circle class="cls-5" cx="96.76" cy="229" r="66.47"/>
  <g id="sph3u_02.09.37c">
    <g>
      <path class="cls-3" d="M219.059,217.943v1.84h-.398c-1.688.031-3.031.531-4.031,1.5s-1.578,2.332-1.734,4.09c.898-1.031,2.125-1.547,3.68-1.547,1.484,0,2.67.523,3.557,1.57s1.33,2.398,1.33,4.055c0,1.758-.479,3.164-1.436,4.219s-2.24,1.582-3.85,1.582c-1.633,0-2.957-.627-3.973-1.881s-1.523-2.869-1.523-4.846v-.832c0-3.141.67-5.541,2.01-7.201s3.334-2.51,5.982-2.549h.387ZM216.211,225.631c-.742,0-1.426.223-2.051.668s-1.059,1.004-1.301,1.676v.797c0,1.406.316,2.539.949,3.398s1.422,1.289,2.367,1.289c.977,0,1.744-.359,2.303-1.078s.838-1.66.838-2.824c0-1.172-.283-2.119-.85-2.842s-1.318-1.084-2.256-1.084Z"/>
      <path class="cls-3" d="M224.297,233.881c0-.375.111-.688.334-.938s.557-.375,1.002-.375.783.125,1.014.375.346.562.346.938c0,.359-.115.66-.346.902s-.568.363-1.014.363-.779-.121-1.002-.363-.334-.543-.334-.902Z"/>
      <path class="cls-3" d="M238.852,217.943v1.84h-.398c-1.688.031-3.031.531-4.031,1.5s-1.578,2.332-1.734,4.09c.898-1.031,2.125-1.547,3.68-1.547,1.484,0,2.67.523,3.557,1.57s1.33,2.398,1.33,4.055c0,1.758-.479,3.164-1.436,4.219s-2.24,1.582-3.85,1.582c-1.633,0-2.957-.627-3.973-1.881s-1.523-2.869-1.523-4.846v-.832c0-3.141.67-5.541,2.01-7.201s3.334-2.51,5.982-2.549h.387ZM236.004,225.631c-.742,0-1.426.223-2.051.668s-1.059,1.004-1.301,1.676v.797c0,1.406.316,2.539.949,3.398s1.422,1.289,2.367,1.289c.977,0,1.744-.359,2.303-1.078s.838-1.66.838-2.824c0-1.172-.283-2.119-.85-2.842s-1.318-1.084-2.256-1.084Z"/>
      <path class="cls-3" d="M254.836,219.174l-7.066,15.844h-2.273l7.043-15.281h-9.234v-1.781h11.531v1.219Z"/>
      <path class="cls-3" d="M262.864,231.162l3.867-3.938-3.844-3.926,1.395-1.441,3.855,3.926,3.855-3.926,1.395,1.441-3.844,3.926,3.867,3.938-1.395,1.441-3.879-3.949-3.879,3.949-1.395-1.441Z"/>
      <path class="cls-3" d="M283.161,235.017h-2.18v-14.449l-4.371,1.605v-1.969l6.211-2.332h.34v17.145Z"/>
      <path class="cls-3" d="M300.212,227.74c0,2.539-.434,4.426-1.301,5.66s-2.223,1.852-4.066,1.852c-1.82,0-3.168-.604-4.043-1.811s-1.328-3.01-1.359-5.408v-2.895c0-2.508.434-4.371,1.301-5.59s2.227-1.828,4.078-1.828c1.836,0,3.188.588,4.055,1.764s1.312,2.99,1.336,5.443v2.812ZM298.044,224.775c0-1.836-.258-3.174-.773-4.014s-1.332-1.26-2.449-1.26c-1.109,0-1.918.418-2.426,1.254s-.77,2.121-.785,3.855v3.469c0,1.844.268,3.205.803,4.084s1.346,1.318,2.432,1.318c1.07,0,1.865-.414,2.385-1.242s.791-2.133.814-3.914v-3.551Z"/>
      <path class="cls-3" d="M308.424,222.578h-5.705v-1.032h5.705v1.032Z"/>
      <path class="cls-3" d="M314.545,227.025h-1.271v-8.424l-2.549.936v-1.147l3.621-1.359h.198v9.995Z"/>
      <path class="cls-3" d="M322.402,227.025h-1.271v-8.424l-2.549.936v-1.147l3.621-1.359h.198v9.995Z"/>
      <path class="cls-3" d="M340.372,235.017h-2.262l-8.59-13.148v13.148h-2.262v-17.062h2.262l8.613,13.207v-13.207h2.238v17.062Z"/>
    </g>
  </g>
  <g>
    <path class="cls-3" d="M266.287,113.952h-2.18v-14.449l-4.371,1.605v-1.969l6.211-2.332h.34v17.145Z"/>
    <path class="cls-3" d="M274.9,101.272l.059,1.406c.93-1.094,2.184-1.641,3.762-1.641,1.773,0,2.98.68,3.621,2.039.422-.609.971-1.102,1.646-1.477s1.475-.562,2.396-.562c2.781,0,4.195,1.473,4.242,4.418v8.496h-2.168v-8.367c0-.906-.207-1.584-.621-2.033s-1.109-.674-2.086-.674c-.805,0-1.473.24-2.004.721s-.84,1.127-.926,1.939v8.414h-2.18v-8.309c0-1.844-.902-2.766-2.707-2.766-1.422,0-2.395.605-2.918,1.816v9.258h-2.168v-12.68h2.051Z"/>
  </g>
  <g>
    <path class="cls-3" d="M75.366,241.519h-2.18v-14.449l-4.371,1.605v-1.969l6.211-2.332h.34v17.145Z"/>
    <path class="cls-3" d="M81.987,240.383c0-.375.111-.688.334-.938s.557-.375,1.002-.375.783.125,1.014.375.346.562.346.938c0,.359-.115.66-.346.902s-.568.363-1.014.363-.779-.121-1.002-.363-.334-.543-.334-.902Z"/>
    <path class="cls-3" d="M98.733,234.242c0,2.539-.434,4.426-1.301,5.66s-2.223,1.852-4.066,1.852c-1.82,0-3.168-.604-4.043-1.811s-1.328-3.01-1.359-5.408v-2.895c0-2.508.434-4.371,1.301-5.59s2.227-1.828,4.078-1.828c1.836,0,3.188.588,4.055,1.764s1.312,2.99,1.336,5.443v2.812ZM96.565,231.277c0-1.836-.258-3.174-.773-4.014s-1.332-1.26-2.449-1.26c-1.109,0-1.918.418-2.426,1.254s-.77,2.121-.785,3.855v3.469c0,1.844.268,3.205.803,4.084s1.346,1.318,2.432,1.318c1.07,0,1.865-.414,2.385-1.242s.791-2.133.814-3.914v-3.551Z"/>
    <path class="cls-3" d="M111.214,235.648l-1.359,1.418v4.453h-2.168v-18h2.168v10.887l1.16-1.395,3.949-4.172h2.637l-4.934,5.297,5.508,7.383h-2.543l-4.418-5.871Z"/>
    <path class="cls-3" d="M119.323,235.074c0-1.977.457-3.549,1.371-4.717s2.125-1.752,3.633-1.752c1.547,0,2.754.547,3.621,1.641l.105-1.406h1.98v12.375c0,1.641-.486,2.934-1.459,3.879s-2.279,1.418-3.92,1.418c-.914,0-1.809-.195-2.684-.586s-1.543-.926-2.004-1.605l1.125-1.301c.93,1.148,2.066,1.723,3.41,1.723,1.055,0,1.877-.297,2.467-.891s.885-1.43.885-2.508v-1.09c-.867,1-2.051,1.5-3.551,1.5-1.484,0-2.686-.598-3.604-1.793s-1.377-2.824-1.377-4.887ZM121.503,235.32c0,1.43.293,2.553.879,3.369s1.406,1.225,2.461,1.225c1.367,0,2.371-.621,3.012-1.863v-5.789c-.664-1.211-1.66-1.816-2.988-1.816-1.055,0-1.879.41-2.473,1.23s-.891,2.035-.891,3.645Z"/>
  </g>
  <circle class="cls-5" cx="457.766" cy="229" r="66.47"/>
  <g>
    <path class="cls-3" d="M436.372,241.519h-2.18v-14.449l-4.371,1.605v-1.969l6.211-2.332h.34v17.145Z"/>
    <path class="cls-3" d="M442.993,240.383c0-.375.111-.688.334-.938s.557-.375,1.002-.375.783.125,1.014.375.346.562.346.938c0,.359-.115.66-.346.902s-.568.363-1.014.363-.779-.121-1.002-.363-.334-.543-.334-.902Z"/>
    <path class="cls-3" d="M459.739,234.242c0,2.539-.434,4.426-1.301,5.66s-2.223,1.852-4.066,1.852c-1.82,0-3.168-.604-4.043-1.811s-1.328-3.01-1.359-5.408v-2.895c0-2.508.434-4.371,1.301-5.59s2.227-1.828,4.078-1.828c1.836,0,3.188.588,4.055,1.764s1.312,2.99,1.336,5.443v2.812ZM457.571,231.277c0-1.836-.258-3.174-.773-4.014s-1.332-1.26-2.449-1.26c-1.109,0-1.918.418-2.426,1.254s-.77,2.121-.785,3.855v3.469c0,1.844.268,3.205.803,4.084s1.346,1.318,2.432,1.318c1.07,0,1.865-.414,2.385-1.242s.791-2.133.814-3.914v-3.551Z"/>
    <path class="cls-3" d="M472.22,235.648l-1.359,1.418v4.453h-2.168v-18h2.168v10.887l1.16-1.395,3.949-4.172h2.637l-4.934,5.297,5.508,7.383h-2.543l-4.418-5.871Z"/>
    <path class="cls-3" d="M480.329,235.074c0-1.977.457-3.549,1.371-4.717s2.125-1.752,3.633-1.752c1.547,0,2.754.547,3.621,1.641l.105-1.406h1.98v12.375c0,1.641-.486,2.934-1.459,3.879s-2.279,1.418-3.92,1.418c-.914,0-1.809-.195-2.684-.586s-1.543-.926-2.004-1.605l1.125-1.301c.93,1.148,2.066,1.723,3.41,1.723,1.055,0,1.877-.297,2.467-.891s.885-1.43.885-2.508v-1.09c-.867,1-2.051,1.5-3.551,1.5-1.484,0-2.686-.598-3.604-1.793s-1.377-2.824-1.377-4.887ZM482.509,235.32c0,1.43.293,2.553.879,3.369s1.406,1.225,2.461,1.225c1.367,0,2.371-.621,3.012-1.863v-5.789c-.664-1.211-1.66-1.816-2.988-1.816-1.055,0-1.879.41-2.473,1.23s-.891,2.035-.891,3.645Z"/>
  </g>
  <line class="cls-2" x1="99.243" y1="52.074" x2="99.243" y2="111.829"/>
  <g>
    <line class="cls-2" x1="241.595" y1="107.951" x2="120.322" y2="107.951"/>
    <polygon class="cls-6" points="122.657 99.973 108.84 107.951 122.657 115.93 122.657 99.973"/>
  </g>
  <line class="cls-2" x1="454.23" y1="52.074" x2="454.23" y2="111.829"/>
  <g>
    <line class="cls-2" x1="311.878" y1="107.951" x2="433.15" y2="107.951"/>
    <polygon class="cls-6" points="430.816 115.93 444.632 107.951 430.816 99.973 430.816 115.93"/>
  </g>
  <line class="cls-1" x1="99.243" y1="313.183" x2="99.243" y2="372.937"/>
  <g>
    <line class="cls-1" x1="241.595" y1="369.06" x2="120.322" y2="369.06"/>
    <polygon class="cls-3" points="122.657 361.082 108.84 369.06 122.657 377.038 122.657 361.082"/>
  </g>
  <line class="cls-1" x1="454.23" y1="313.183" x2="454.23" y2="372.937"/>
  <g>
    <line class="cls-1" x1="311.878" y1="369.06" x2="433.15" y2="369.06"/>
    <polygon class="cls-3" points="430.816 377.038 444.632 369.06 430.816 361.082 430.816 377.038"/>
  </g>
  <path class="cls-4" d="M272.043,373.261c-.937,0-1.737-.36-2.403-1.08s-.999-1.899-.999-3.537c0-1.151.176-2.245.527-3.28.351-1.035.837-1.958,1.458-2.768.621-.811,1.34-1.444,2.16-1.903.819-.459,1.696-.688,2.633-.688.594,0,1.129.094,1.606.283.477.188.868.455,1.174.797h.081l.864-4.536c.054-.396.081-.685.081-.864,0-.233-.054-.432-.162-.594-.108-.162-.369-.243-.783-.243-.162,0-.432.018-.81.054v-.702l3.699-.297h.594l-2.997,15.769c-.09.576-.135.954-.135,1.134s.041.311.122.392.211.121.392.121c.432,0,.823-.171,1.174-.513s.616-.639.796-.892l.54.405c-.306.433-.63.873-.972,1.323s-.733.823-1.174,1.12c-.441.297-.958.445-1.553.445-.522,0-.918-.13-1.188-.391s-.405-.599-.405-1.013c0-.162.018-.355.054-.581.036-.225.062-.418.081-.58h-.216c-.648.81-1.319,1.449-2.011,1.917-.693.468-1.436.702-2.228.702ZM272.988,371.479c.594,0,1.152-.157,1.674-.473.522-.314.968-.725,1.337-1.229.369-.504.625-1.035.769-1.593.252-1.062.441-1.998.567-2.808.125-.811.189-1.413.189-1.81,0-.521-.095-.972-.284-1.35s-.45-.671-.783-.878c-.333-.206-.725-.311-1.175-.311-.648,0-1.233.212-1.755.635-.522.423-.972.985-1.35,1.688s-.666,1.485-.864,2.349c-.198.864-.297,1.737-.297,2.619,0,1.225.185,2.057.554,2.498.369.441.841.661,1.417.661Z"/>
  <g>
    <line class="cls-2" x1="169.231" y1="226.567" x2="193.547" y2="226.567"/>
    <polygon class="cls-6" points="191.212 234.545 205.029 226.567 191.212 218.589 191.212 234.545"/>
  </g>
  <g>
    <line class="cls-2" x1="386.228" y1="226.567" x2="361.912" y2="226.567"/>
    <polygon class="cls-6" points="364.247 218.589 350.43 226.567 364.247 234.545 364.247 218.589"/>
  </g>
  <g>
    <path class="cls-3" d="M443.545,276.316h-1.968l1.92-9.12c.048-.352.072-.616.072-.792,0-.208-.057-.368-.168-.48-.112-.111-.312-.168-.6-.168-.16,0-.417.017-.769.048v-.647l3.288-.264h.552l-1.176,5.208h.264l-1.416,6.216ZM449.953,276.316h-1.992c.177-.64.349-1.284.517-1.933.168-.647.332-1.296.492-1.943.159-.648.315-1.3.468-1.956.151-.656.3-1.32.444-1.992.079-.464.119-.792.119-.984,0-.271-.048-.5-.144-.684s-.28-.276-.552-.276c-.4,0-.84.225-1.32.672-.48.448-.964,1.024-1.452,1.729s-.94,1.452-1.355,2.244c-.417.792-.761,1.523-1.032,2.195l.6-3.023c.24-.464.544-1.008.912-1.632s.796-1.232,1.284-1.824,1.036-1.088,1.644-1.488c.608-.399,1.256-.6,1.944-.6.592,0,.988.176,1.188.528.199.352.3.743.3,1.176,0,.352-.032.72-.097,1.104-.063.384-.104.608-.119.672l-.456,1.801h.336l-1.08,3.191-.648,3.024ZM456.266,276.556c-.608,0-1.024-.148-1.248-.444-.225-.296-.336-.62-.336-.972,0-.192.016-.38.048-.564.032-.184.056-.308.072-.372l1.224-4.656c.08-.319.164-.676.252-1.067.088-.393.132-.716.132-.973,0-.271-.048-.5-.144-.684-.097-.184-.28-.276-.553-.276-.304,0-.651.165-1.044.492-.392.328-.796.756-1.212,1.284s-.815,1.101-1.199,1.716c-.385.616-.721,1.208-1.009,1.776s-.504,1.06-.647,1.476l.815-3.096c.24-.464.544-1,.912-1.608.368-.607.788-1.2,1.261-1.775.472-.576.991-1.052,1.56-1.429.567-.375,1.172-.563,1.812-.563.576,0,.969.176,1.177.528.207.352.312.743.312,1.176,0,.304-.032.632-.096.983-.064.353-.112.616-.145.792l-1.319,5.544c-.048.24-.072.433-.072.576,0,.305.152.456.456.456.416,0,.771-.151,1.068-.456.296-.304.54-.567.731-.792l.48.36c-.16.225-.341.479-.54.768-.2.288-.433.572-.696.853s-.564.508-.9.684-.72.265-1.151.265Z"/>
    <path class="cls-3" d="M467.546,284.308h-6.518v-.909l3.442-3.825c.511-.579.862-1.049,1.056-1.411.194-.362.291-.737.291-1.124,0-.52-.157-.945-.472-1.277-.314-.333-.733-.499-1.257-.499-.629,0-1.117.179-1.466.536s-.522.855-.522,1.493h-1.264c0-.916.295-1.655.885-2.221.59-.564,1.379-.847,2.367-.847.924,0,1.655.242,2.192.728.538.484.807,1.131.807,1.937,0,.979-.624,2.146-1.872,3.498l-2.664,2.89h4.994v1.032Z"/>
  </g>
  <g>
    <path class="cls-3" d="M88.559,276.316h-1.968l1.92-9.12c.048-.352.072-.616.072-.792,0-.208-.057-.368-.168-.48-.112-.111-.312-.168-.6-.168-.16,0-.417.017-.769.048v-.647l3.288-.264h.552l-1.176,5.208h.264l-1.416,6.216ZM94.967,276.316h-1.992c.177-.64.349-1.284.517-1.933.168-.647.332-1.296.492-1.943.159-.648.315-1.3.468-1.956.151-.656.3-1.32.444-1.992.079-.464.119-.792.119-.984,0-.271-.048-.5-.144-.684s-.28-.276-.552-.276c-.4,0-.84.225-1.32.672-.48.448-.964,1.024-1.452,1.729s-.94,1.452-1.355,2.244c-.417.792-.761,1.523-1.032,2.195l.6-3.023c.24-.464.544-1.008.912-1.632s.796-1.232,1.284-1.824,1.036-1.088,1.644-1.488c.608-.399,1.256-.6,1.944-.6.592,0,.988.176,1.188.528.199.352.3.743.3,1.176,0,.352-.032.72-.097,1.104-.063.384-.104.608-.119.672l-.456,1.801h.336l-1.08,3.191-.648,3.024ZM101.279,276.556c-.608,0-1.024-.148-1.248-.444-.225-.296-.336-.62-.336-.972,0-.192.016-.38.048-.564.032-.184.056-.308.072-.372l1.224-4.656c.08-.319.164-.676.252-1.067.088-.393.132-.716.132-.973,0-.271-.048-.5-.144-.684-.097-.184-.28-.276-.553-.276-.304,0-.651.165-1.044.492-.392.328-.796.756-1.212,1.284s-.815,1.101-1.199,1.716c-.385.616-.721,1.208-1.009,1.776s-.504,1.06-.647,1.476l.815-3.096c.24-.464.544-1,.912-1.608.368-.607.788-1.2,1.261-1.775.472-.576.991-1.052,1.56-1.429.567-.375,1.172-.563,1.812-.563.576,0,.969.176,1.177.528.207.352.312.743.312,1.176,0,.304-.032.632-.096.983-.064.353-.112.616-.145.792l-1.319,5.544c-.048.24-.072.433-.072.576,0,.305.152.456.456.456.416,0,.771-.151,1.068-.456.296-.304.54-.567.731-.792l.48.36c-.16.225-.341.479-.54.768-.2.288-.433.572-.696.853s-.564.508-.9.684-.72.265-1.151.265Z"/>
    <path class="cls-3" d="M110.195,284.308h-1.271v-8.424l-2.549.936v-1.147l3.621-1.359h.198v9.995Z"/>
  </g>
</svg>