<?xml version="1.0" encoding="UTF-8"?><svg id="i" xmlns="http://www.w3.org/2000/svg" width="1140" height="508" viewBox="0 0 1140 508"><line x1="244.28" y1="105.85" x2="964.28" y2="105.85" fill="none" stroke="#b1dded" stroke-miterlimit="10" stroke-width="2"/><line x1="244.28" y1="71.64" x2="964.28" y2="71.64" fill="none" stroke="#b1dded" stroke-miterlimit="10" stroke-width="2"/><line x1="244.28" y1="174.28" x2="964.28" y2="174.28" fill="none" stroke="#b1dded" stroke-miterlimit="10" stroke-width="2"/><line x1="244.28" y1="140.07" x2="964.28" y2="140.07" fill="none" stroke="#b1dded" stroke-miterlimit="10" stroke-width="2"/><line x1="244.28" y1="242.71" x2="964.28" y2="242.71" fill="none" stroke="#b1dded" stroke-miterlimit="10" stroke-width="2"/><line x1="244.28" y1="208.5" x2="964.28" y2="208.5" fill="none" stroke="#b1dded" stroke-miterlimit="10" stroke-width="2"/><line x1="244.28" y1="311.14" x2="964.28" y2="311.14" fill="none" stroke="#b1dded" stroke-miterlimit="10" stroke-width="2"/><line x1="244.28" y1="276.92" x2="964.28" y2="276.92" fill="none" stroke="#b1dded" stroke-miterlimit="10" stroke-width="2"/><line x1="244.28" y1="379.57" x2="964.28" y2="379.57" fill="none" stroke="#b1dded" stroke-miterlimit="10" stroke-width="2"/><line x1="244.28" y1="345.35" x2="964.28" y2="345.35" fill="none" stroke="#b1dded" stroke-miterlimit="10" stroke-width="2"/><line x1="277.28" y1="70.57" x2="277.28" y2="413.57" fill="none" stroke="#b1dded" stroke-miterlimit="10" stroke-width="2"/><line x1="311.63" y1="70.57" x2="311.63" y2="413.57" fill="none" stroke="#b1dded" stroke-miterlimit="10" stroke-width="2"/><line x1="345.98" y1="70.57" x2="345.98" y2="413.57" fill="none" stroke="#b1dded" stroke-miterlimit="10" stroke-width="2"/><line x1="380.33" y1="70.57" x2="380.33" y2="413.57" fill="none" stroke="#b1dded" stroke-miterlimit="10" stroke-width="2"/><line x1="414.68" y1="70.57" x2="414.68" y2="413.57" fill="none" stroke="#b1dded" stroke-miterlimit="10" stroke-width="2"/><line x1="449.03" y1="70.57" x2="449.03" y2="413.57" fill="none" stroke="#b1dded" stroke-miterlimit="10" stroke-width="2"/><line x1="483.38" y1="70.57" x2="483.38" y2="413.57" fill="none" stroke="#b1dded" stroke-miterlimit="10" stroke-width="2"/><line x1="517.73" y1="70.57" x2="517.73" y2="413.57" fill="none" stroke="#b1dded" stroke-miterlimit="10" stroke-width="2"/><line x1="552.08" y1="70.57" x2="552.08" y2="413.57" fill="none" stroke="#b1dded" stroke-miterlimit="10" stroke-width="2"/><line x1="586.43" y1="70.57" x2="586.43" y2="413.57" fill="none" stroke="#b1dded" stroke-miterlimit="10" stroke-width="2"/><line x1="620.78" y1="70.57" x2="620.78" y2="413.57" fill="none" stroke="#b1dded" stroke-miterlimit="10" stroke-width="2"/><line x1="655.13" y1="70.57" x2="655.13" y2="413.57" fill="none" stroke="#b1dded" stroke-miterlimit="10" stroke-width="2"/><line x1="689.48" y1="70.57" x2="689.48" y2="413.57" fill="none" stroke="#b1dded" stroke-miterlimit="10" stroke-width="2"/><line x1="723.83" y1="70.57" x2="723.83" y2="413.57" fill="none" stroke="#b1dded" stroke-miterlimit="10" stroke-width="2"/><line x1="758.18" y1="70.57" x2="758.18" y2="413.57" fill="none" stroke="#b1dded" stroke-miterlimit="10" stroke-width="2"/><line x1="792.53" y1="70.57" x2="792.53" y2="413.57" fill="none" stroke="#b1dded" stroke-miterlimit="10" stroke-width="2"/><line x1="826.88" y1="70.57" x2="826.88" y2="413.57" fill="none" stroke="#b1dded" stroke-miterlimit="10" stroke-width="2"/><line x1="861.23" y1="70.57" x2="861.23" y2="413.57" fill="none" stroke="#b1dded" stroke-miterlimit="10" stroke-width="2"/><line x1="895.58" y1="70.57" x2="895.58" y2="413.57" fill="none" stroke="#b1dded" stroke-miterlimit="10" stroke-width="2"/><line x1="929.93" y1="70.57" x2="929.93" y2="413.57" fill="none" stroke="#b1dded" stroke-miterlimit="10" stroke-width="2"/><line x1="964.28" y1="70.57" x2="964.28" y2="413.57" fill="none" stroke="#b1dded" stroke-miterlimit="10" stroke-width="2"/><line x1="230.28" y1="345.57" x2="243.81" y2="345.57" fill="none" stroke="#231e20" stroke-miterlimit="10" stroke-width="2"/><line x1="230.28" y1="277.07" x2="243.81" y2="277.07" fill="none" stroke="#231e20" stroke-miterlimit="10" stroke-width="2"/><line x1="230.28" y1="208.57" x2="243.81" y2="208.57" fill="none" stroke="#231e20" stroke-miterlimit="10" stroke-width="2"/><line x1="230.28" y1="140.07" x2="243.81" y2="140.07" fill="none" stroke="#231e20" stroke-miterlimit="10" stroke-width="2"/><line x1="230.28" y1="71.57" x2="243.81" y2="71.57" fill="none" stroke="#231e20" stroke-miterlimit="10" stroke-width="2"/><line x1="964.28" y1="426.43" x2="964.28" y2="412.9" fill="none" stroke="#231e20" stroke-miterlimit="10" stroke-width="2"/><line x1="861.45" y1="426.43" x2="861.45" y2="412.9" fill="none" stroke="#231e20" stroke-miterlimit="10" stroke-width="2"/><line x1="758.62" y1="426.43" x2="758.62" y2="412.9" fill="none" stroke="#231e20" stroke-miterlimit="10" stroke-width="2"/><line x1="655.78" y1="426.43" x2="655.78" y2="412.9" fill="none" stroke="#231e20" stroke-miterlimit="10" stroke-width="2"/><line x1="552.95" y1="426.43" x2="552.95" y2="412.9" fill="none" stroke="#231e20" stroke-miterlimit="10" stroke-width="2"/><line x1="450.12" y1="426.43" x2="450.12" y2="412.9" fill="none" stroke="#231e20" stroke-miterlimit="10" stroke-width="2"/><line x1="347.28" y1="426.43" x2="347.28" y2="412.9" fill="none" stroke="#231e20" stroke-miterlimit="10" stroke-width="2"/><polyline points="965.28 413.57 244.75 413.57 244.75 70.57" fill="none" stroke="#000" stroke-miterlimit="10" stroke-width="2"/><path d="m212.28,70.92l.84-8.51h8.51v2h-6.72l-.5,4.65c.81-.49,1.74-.74,2.77-.74,1.51,0,2.71.51,3.61,1.54.89,1.03,1.33,2.42,1.33,4.17s-.46,3.14-1.39,4.15-2.21,1.52-3.87,1.52c-1.47,0-2.67-.42-3.59-1.25-.93-.84-1.46-1.99-1.59-3.47h2c.13.98.47,1.71,1.02,2.21.55.5,1.27.74,2.17.74.98,0,1.75-.34,2.31-1.03.56-.69.84-1.64.84-2.85,0-1.14-.3-2.06-.91-2.75-.61-.69-1.41-1.04-2.41-1.04-.92,0-1.64.21-2.17.62l-.56.47-1.69-.45Z" fill="#212728"/><path d="m220.22,142.25h2.3v1.77h-2.3v3.96h-2.12v-3.96h-7.56v-1.28l7.44-11.82h2.25v11.33Zm-7.29,0h5.17v-8.37l-.25.47-4.92,7.9Z" fill="#212728"/><path d="m214.38,206.89h1.58c1-.02,1.78-.29,2.35-.81s.86-1.23.86-2.12c0-2-.97-3-2.91-3-.91,0-1.64.27-2.18.8s-.82,1.24-.82,2.13h-2.11c0-1.35.48-2.47,1.44-3.37.96-.89,2.18-1.34,3.67-1.34,1.57,0,2.79.43,3.68,1.28s1.33,2.04,1.33,3.55c0,.74-.23,1.46-.7,2.16-.47.7-1.1,1.21-1.91,1.56.91.3,1.62.79,2.12,1.48s.75,1.53.75,2.52c0,1.53-.49,2.75-1.46,3.64-.97.9-2.24,1.35-3.8,1.35s-2.83-.43-3.8-1.3-1.47-2.01-1.47-3.43h2.12c0,.9.29,1.62.86,2.16s1.33.81,2.29.81c1.02,0,1.8-.27,2.34-.82s.81-1.33.81-2.36-.3-1.75-.89-2.29c-.59-.53-1.45-.8-2.57-.82h-1.58v-1.77Z" fill="#212728"/><path d="m222.19,284.98h-10.88v-1.56l5.75-6.56c.85-.99,1.44-1.8,1.76-2.42.32-.62.48-1.26.48-1.93,0-.89-.26-1.62-.79-2.19s-1.22-.86-2.1-.86c-1.05,0-1.87.31-2.45.92s-.87,1.47-.87,2.56h-2.11c0-1.57.49-2.84,1.48-3.81s2.3-1.45,3.95-1.45c1.54,0,2.76.42,3.66,1.25s1.35,1.94,1.35,3.32c0,1.68-1.04,3.68-3.13,6l-4.45,4.96h8.34v1.77Z" fill="#212728"/><path d="m218.25,353.48h-2.12v-14.45l-4.25,1.61v-1.97l6.05-2.33h.33v17.14Z" fill="#212728"/><path d="m221.72,414.7c0,2.54-.42,4.43-1.27,5.66-.84,1.23-2.16,1.85-3.96,1.85s-3.08-.6-3.94-1.81-1.29-3.01-1.32-5.41v-2.89c0-2.51.42-4.37,1.27-5.59s2.17-1.83,3.97-1.83,3.1.59,3.95,1.76c.84,1.18,1.28,2.99,1.3,5.44v2.81Zm-2.11-2.96c0-1.84-.25-3.17-.75-4.01s-1.3-1.26-2.38-1.26-1.87.42-2.36,1.25-.75,2.12-.76,3.86v3.47c0,1.84.26,3.21.78,4.08.52.88,1.31,1.32,2.37,1.32s1.82-.41,2.32-1.24c.5-.83.77-2.13.79-3.91v-3.55Z" fill="#212728"/><path d="m657.3,445.56h2.3v1.77h-2.3v3.96h-2.12v-3.96h-7.56v-1.28l7.44-11.82h2.25v11.33Zm-7.29,0h5.17v-8.37l-.25.47-4.92,7.9Z" fill="#212728"/><path d="m753.36,442.73l.84-8.51h8.51v2h-6.72l-.5,4.65c.81-.49,1.74-.74,2.77-.74,1.51,0,2.71.51,3.61,1.54.89,1.03,1.33,2.42,1.33,4.17s-.46,3.14-1.39,4.15-2.21,1.52-3.87,1.52c-1.47,0-2.67-.42-3.59-1.25-.93-.84-1.46-1.99-1.59-3.47h2c.13.98.47,1.71,1.02,2.21.55.5,1.27.74,2.17.74.98,0,1.75-.34,2.31-1.03.56-.69.84-1.64.84-2.85,0-1.14-.3-2.06-.91-2.75-.61-.69-1.41-1.04-2.41-1.04-.92,0-1.64.21-2.17.62l-.56.47-1.69-.45Z" fill="#212728"/><path d="m864.67,434.21v1.84h-.39c-1.64.03-2.95.53-3.92,1.5-.97.97-1.54,2.33-1.69,4.09.87-1.03,2.07-1.55,3.58-1.55s2.6.52,3.46,1.57,1.29,2.4,1.29,4.05c0,1.76-.47,3.16-1.4,4.22s-2.18,1.58-3.75,1.58-2.88-.63-3.87-1.88c-.99-1.25-1.48-2.87-1.48-4.85v-.83c0-3.14.65-5.54,1.96-7.2,1.3-1.66,3.25-2.51,5.82-2.55h.38Zm-2.77,7.69c-.72,0-1.39.22-2,.67s-1.03,1-1.27,1.68v.8c0,1.41.31,2.54.92,3.4s1.38,1.29,2.3,1.29,1.7-.36,2.24-1.08.82-1.66.82-2.82-.28-2.12-.83-2.84-1.28-1.08-2.2-1.08Z" fill="#212728"/><path d="m970.12,435.44l-6.88,15.84h-2.21l6.86-15.28h-8.99v-1.78h11.23v1.22Z" fill="#212728"/><path d="m550.32,441.7h1.58c1-.02,1.78-.29,2.35-.81s.86-1.23.86-2.12c0-2-.97-3-2.91-3-.91,0-1.64.27-2.18.8s-.82,1.24-.82,2.13h-2.11c0-1.35.48-2.47,1.44-3.37.96-.89,2.18-1.34,3.67-1.34,1.57,0,2.79.43,3.68,1.28s1.33,2.04,1.33,3.55c0,.74-.23,1.46-.7,2.16-.47.7-1.1,1.21-1.91,1.56.91.3,1.62.79,2.12,1.48s.75,1.53.75,2.52c0,1.53-.49,2.75-1.46,3.64-.97.9-2.24,1.35-3.8,1.35s-2.83-.43-3.8-1.3-1.47-2.01-1.47-3.43h2.12c0,.9.29,1.62.86,2.16s1.33.81,2.29.81c1.02,0,1.8-.27,2.34-.82s.81-1.33.81-2.36-.3-1.75-.89-2.29c-.59-.53-1.45-.8-2.57-.82h-1.58v-1.77Z" fill="#212728"/><path d="m455.99,451.29h-10.88v-1.56l5.75-6.56c.85-.99,1.44-1.8,1.76-2.42.32-.62.48-1.26.48-1.93,0-.89-.26-1.62-.79-2.19-.53-.57-1.22-.86-2.1-.86-1.05,0-1.87.31-2.45.92s-.87,1.47-.87,2.56h-2.11c0-1.57.49-2.84,1.48-3.81.99-.97,2.3-1.45,3.95-1.45,1.54,0,2.76.42,3.66,1.25.9.83,1.35,1.94,1.35,3.32,0,1.68-1.04,3.68-3.12,6l-4.45,4.96h8.34v1.77Z" fill="#212728"/><path d="m348.91,451.29h-2.12v-14.45l-4.25,1.61v-1.97l6.05-2.33h.33v17.14Z" fill="#212728"/><path d="m247.25,444.01c0,2.54-.42,4.43-1.27,5.66-.84,1.23-2.16,1.85-3.96,1.85s-3.08-.6-3.94-1.81-1.29-3.01-1.32-5.41v-2.89c0-2.51.42-4.37,1.27-5.59s2.17-1.83,3.97-1.83,3.1.59,3.95,1.76c.84,1.18,1.28,2.99,1.3,5.44v2.81Zm-2.11-2.96c0-1.84-.25-3.17-.75-4.01s-1.3-1.26-2.38-1.26-1.87.42-2.36,1.25-.75,2.12-.76,3.86v3.47c0,1.84.26,3.21.78,4.08.52.88,1.31,1.32,2.37,1.32s1.82-.41,2.32-1.24c.5-.83.77-2.13.79-3.91v-3.55Z" fill="#212728"/><line x1="244.28" y1="242.71" x2="964.28" y2="242.71" fill="none" stroke="#d12d32" stroke-miterlimit="10" stroke-width="2"/><path d="m472.9,19.4c0-.83-.29-1.47-.88-1.91s-1.64-.91-3.16-1.41-2.73-.98-3.62-1.46c-2.42-1.31-3.63-3.07-3.63-5.29,0-1.15.32-2.18.97-3.08.65-.9,1.58-1.61,2.8-2.12,1.22-.51,2.58-.76,4.1-.76s2.88.28,4.07.83,2.12,1.33,2.78,2.34c.66,1.01.99,2.15.99,3.43h-4.39c0-.98-.31-1.74-.92-2.28s-1.48-.81-2.59-.81-1.91.23-2.5.68-.89,1.05-.89,1.79c0,.69.35,1.27,1.05,1.74.7.47,1.73.91,3.08,1.32,2.5.75,4.32,1.68,5.46,2.8s1.71,2.5,1.71,4.16c0,1.85-.7,3.29-2.09,4.34s-3.28,1.57-5.64,1.57c-1.64,0-3.13-.3-4.48-.9s-2.38-1.42-3.08-2.47c-.71-1.04-1.06-2.26-1.06-3.63h4.41c0,2.35,1.41,3.53,4.22,3.53,1.04,0,1.86-.21,2.45-.64s.88-1.02.88-1.78Z" fill="#231e20"/><path d="m494.27,17.21c0,2.44-.55,4.4-1.66,5.87-1.11,1.47-2.61,2.2-4.49,2.2-1.6,0-2.89-.56-3.88-1.67v7.47h-4.23V9.14h3.93l.15,1.55c1.03-1.23,2.36-1.85,4.01-1.85,1.95,0,3.47.72,4.56,2.17s1.62,3.44,1.62,5.98v.22Zm-4.23-.31c0-1.47-.26-2.61-.78-3.41-.52-.8-1.28-1.2-2.28-1.2-1.33,0-2.24.51-2.74,1.52v6.49c.52,1.04,1.44,1.57,2.77,1.57,2.02,0,3.03-1.66,3.03-4.97Z" fill="#231e20"/><path d="m504.19,25.28c-2.32,0-4.22-.71-5.68-2.14-1.46-1.43-2.19-3.33-2.19-5.7v-.41c0-1.59.31-3.02.92-4.27s1.49-2.22,2.61-2.9c1.13-.68,2.42-1.02,3.86-1.02,2.17,0,3.87.68,5.12,2.05,1.24,1.37,1.87,3.31,1.87,5.82v1.73h-10.09c.14,1.04.55,1.87,1.24,2.49.69.62,1.56.94,2.62.94,1.63,0,2.91-.59,3.82-1.77l2.08,2.33c-.63.9-1.49,1.6-2.58,2.1s-2.29.75-3.6.75Zm-.48-13.02c-.84,0-1.52.28-2.04.85-.52.57-.86,1.38-1,2.44h5.89v-.34c-.02-.94-.27-1.67-.76-2.19s-1.18-.77-2.08-.77Z" fill="#231e20"/><path d="m520.4,25.28c-2.32,0-4.22-.71-5.68-2.14-1.46-1.43-2.19-3.33-2.19-5.7v-.41c0-1.59.31-3.02.92-4.27s1.49-2.22,2.62-2.9c1.13-.68,2.41-1.02,3.86-1.02,2.17,0,3.88.68,5.12,2.05,1.24,1.37,1.87,3.31,1.87,5.82v1.73h-10.09c.14,1.04.55,1.87,1.24,2.49.69.62,1.56.94,2.62.94,1.63,0,2.9-.59,3.82-1.77l2.08,2.33c-.63.9-1.49,1.6-2.58,2.1s-2.29.75-3.6.75Zm-.48-13.02c-.84,0-1.52.28-2.04.85-.52.57-.86,1.38-1,2.44h5.89v-.34c-.02-.94-.27-1.67-.76-2.19s-1.18-.77-2.08-.77Z" fill="#231e20"/><path d="m528.66,16.95c0-2.47.55-4.44,1.66-5.9,1.11-1.46,2.62-2.2,4.55-2.2,1.54,0,2.82.58,3.82,1.73V2.49h4.25v22.5h-3.82l-.21-1.68c-1.05,1.32-2.41,1.98-4.07,1.98-1.87,0-3.36-.73-4.49-2.2-1.13-1.47-1.69-3.51-1.69-6.13Zm4.23.31c0,1.49.26,2.63.78,3.42.52.79,1.27,1.19,2.26,1.19,1.31,0,2.23-.55,2.77-1.66v-6.26c-.53-1.1-1.44-1.66-2.74-1.66-2.04,0-3.06,1.66-3.06,4.97Z" fill="#231e20"/><path d="m561.86,19.7l4.83-16.04h4.89l-7.43,21.33h-4.59l-7.4-21.33h4.88l4.8,16.04Z" fill="#231e20"/><path d="m579.96,25.28c-2.32,0-4.22-.71-5.68-2.14-1.46-1.43-2.19-3.33-2.19-5.7v-.41c0-1.59.31-3.02.92-4.27s1.49-2.22,2.62-2.9c1.13-.68,2.41-1.02,3.86-1.02,2.17,0,3.88.68,5.12,2.05,1.24,1.37,1.87,3.31,1.87,5.82v1.73h-10.09c.14,1.04.55,1.87,1.24,2.49.69.62,1.56.94,2.62.94,1.63,0,2.9-.59,3.82-1.77l2.08,2.33c-.63.9-1.49,1.6-2.58,2.1s-2.29.75-3.6.75Zm-.48-13.02c-.84,0-1.52.28-2.04.85-.52.57-.86,1.38-1,2.44h5.89v-.34c-.02-.94-.27-1.67-.76-2.19s-1.18-.77-2.08-.77Z" fill="#231e20"/><path d="m597.79,13.11c-.58-.08-1.08-.12-1.52-.12-1.6,0-2.65.54-3.15,1.63v10.37h-4.23v-15.85h4l.12,1.89c.85-1.46,2.03-2.18,3.53-2.18.47,0,.91.06,1.32.19l-.06,4.07Z" fill="#231e20"/><path d="m608.41,20.61c0-.52-.26-.93-.77-1.22-.51-.3-1.34-.56-2.47-.8-3.77-.79-5.65-2.39-5.65-4.8,0-1.41.58-2.58,1.75-3.52,1.17-.94,2.69-1.41,4.58-1.41,2.01,0,3.62.47,4.83,1.42,1.21.95,1.81,2.18,1.81,3.69h-4.23c0-.61-.2-1.11-.59-1.5s-1-.59-1.83-.59c-.71,0-1.26.16-1.65.48s-.59.73-.59,1.23c0,.47.22.85.67,1.14.44.29,1.19.54,2.25.75s1.94.45,2.67.71c2.24.82,3.36,2.24,3.36,4.26,0,1.45-.62,2.61-1.86,3.51s-2.84,1.34-4.8,1.34c-1.33,0-2.51-.24-3.54-.71-1.03-.47-1.84-1.12-2.42-1.95s-.88-1.72-.88-2.67h4.01c.04.75.32,1.33.83,1.73s1.21.6,2.08.6c.81,0,1.42-.15,1.84-.46.41-.31.62-.71.62-1.21Z" fill="#231e20"/><path d="m624.74,23.38c-1.04,1.27-2.49,1.9-4.34,1.9-1.7,0-3-.49-3.89-1.46-.89-.98-1.35-2.41-1.37-4.29v-10.39h4.23v10.25c0,1.65.75,2.48,2.26,2.48s2.42-.5,2.96-1.5v-11.23h4.25v15.85h-3.98l-.12-1.61Z" fill="#231e20"/><path d="m640.62,20.61c0-.52-.26-.93-.77-1.22-.51-.3-1.34-.56-2.47-.8-3.77-.79-5.65-2.39-5.65-4.8,0-1.41.58-2.58,1.75-3.52,1.17-.94,2.69-1.41,4.58-1.41,2.01,0,3.62.47,4.83,1.42,1.21.95,1.81,2.18,1.81,3.69h-4.23c0-.61-.2-1.11-.59-1.5s-1-.59-1.83-.59c-.71,0-1.27.16-1.66.48s-.59.73-.59,1.23c0,.47.22.85.67,1.14.45.29,1.2.54,2.25.75s1.94.45,2.67.71c2.24.82,3.35,2.24,3.35,4.26,0,1.45-.62,2.61-1.86,3.51s-2.84,1.34-4.8,1.34c-1.33,0-2.51-.24-3.54-.71-1.03-.47-1.84-1.12-2.42-1.95s-.88-1.72-.88-2.67h4.01c.04.75.32,1.33.84,1.73s1.21.6,2.08.6c.81,0,1.42-.15,1.84-.46.41-.31.62-.71.62-1.21Z" fill="#231e20"/><path d="m670.39,7.22h-6.53v17.77h-4.39V7.22h-6.45v-3.56h17.37v3.56Z" fill="#231e20"/><path d="m672.58,5.04c0-.63.21-1.16.64-1.57.42-.41,1-.62,1.74-.62s1.3.21,1.73.62.64.93.64,1.57-.22,1.17-.65,1.58c-.44.41-1.01.62-1.72.62s-1.29-.21-1.72-.62c-.43-.41-.65-.94-.65-1.58Zm4.5,19.95h-4.25v-15.85h4.25v15.85Z" fill="#231e20"/><path d="m684.54,9.14l.13,1.77c1.12-1.38,2.64-2.07,4.56-2.07,2.04,0,3.44.81,4.2,2.42,1.11-1.61,2.7-2.42,4.76-2.42,1.72,0,3,.5,3.84,1.5s1.26,2.51,1.26,4.52v10.12h-4.25v-10.11c0-.9-.18-1.56-.53-1.97s-.97-.62-1.86-.62c-1.27,0-2.15.61-2.64,1.82l.02,10.88h-4.23v-10.09c0-.92-.18-1.58-.54-1.99s-.98-.62-1.85-.62c-1.2,0-2.07.5-2.61,1.49v11.21h-4.23v-15.85h3.97Z" fill="#231e20"/><path d="m713.83,25.28c-2.32,0-4.22-.71-5.68-2.14-1.46-1.43-2.19-3.33-2.19-5.7v-.41c0-1.59.31-3.02.92-4.27s1.49-2.22,2.61-2.9c1.13-.68,2.42-1.02,3.86-1.02,2.17,0,3.87.68,5.12,2.05,1.24,1.37,1.87,3.31,1.87,5.82v1.73h-10.09c.14,1.04.55,1.87,1.24,2.49.69.62,1.56.94,2.62.94,1.63,0,2.91-.59,3.82-1.77l2.08,2.33c-.63.9-1.49,1.6-2.58,2.1s-2.29.75-3.6.75Zm-.48-13.02c-.84,0-1.52.28-2.04.85-.52.57-.86,1.38-1,2.44h5.89v-.34c-.02-.94-.27-1.67-.76-2.19s-1.18-.77-2.08-.77Z" fill="#231e20"/><path d="m559.81,475.3h-5.23v14.21h-3.52v-14.21h-5.16v-2.85h13.9v2.85Z"/><path d="m561.57,473.55c0-.51.17-.93.51-1.25s.8-.49,1.39-.49,1.04.16,1.38.49.52.75.52,1.25-.17.94-.52,1.27-.81.49-1.38.49-1.03-.16-1.38-.49-.52-.75-.52-1.27Zm3.6,15.96h-3.4v-12.68h3.4v12.68Z"/><path d="m571.13,476.83l.11,1.42c.9-1.1,2.11-1.65,3.64-1.65,1.63,0,2.75.64,3.36,1.93.89-1.29,2.16-1.93,3.81-1.93,1.38,0,2.4.4,3.07,1.2s1.01,2.01,1.01,3.62v8.1h-3.4v-8.09c0-.72-.14-1.24-.42-1.58s-.78-.5-1.49-.5c-1.02,0-1.72.48-2.11,1.45v8.71s-3.38,0-3.38,0v-8.07c0-.73-.14-1.27-.43-1.59s-.78-.49-1.48-.49c-.96,0-1.66.4-2.09,1.2v8.96h-3.39v-12.68h3.18Z"/><path d="m594.57,489.75c-1.86,0-3.37-.57-4.54-1.71s-1.75-2.66-1.75-4.56v-.33c0-1.27.25-2.41.74-3.42s1.19-1.78,2.09-2.32,1.93-.81,3.09-.81c1.73,0,3.1.55,4.1,1.64s1.49,2.64,1.49,4.65v1.38h-8.07c.11.83.44,1.49.99,1.99s1.25.75,2.09.75c1.3,0,2.32-.47,3.06-1.42l1.66,1.86c-.51.72-1.2,1.28-2.06,1.68s-1.83.6-2.88.6Zm-.39-10.42c-.67,0-1.22.23-1.63.68s-.69,1.11-.8,1.95h4.71v-.27c-.02-.75-.22-1.34-.61-1.75s-.95-.62-1.66-.62Z"/><path d="m607.84,482.58c0-1.79.24-3.49.71-5.11s1.18-3.05,2.11-4.29,1.94-2.11,3.02-2.6l.66,1.83c-1.14.84-2.03,2.15-2.67,3.91s-.96,3.83-.96,6.19v.36c0,2.37.32,4.44.95,6.21s1.53,3.1,2.68,3.97l-.66,1.79c-1.06-.48-2.05-1.32-2.97-2.53s-1.62-2.6-2.1-4.18-.74-3.23-.77-4.95v-.62Z"/><path d="m622.98,486.01c0-.41-.21-.74-.62-.98s-1.07-.45-1.97-.64c-3.02-.63-4.52-1.91-4.52-3.84,0-1.12.47-2.06,1.4-2.82s2.15-1.13,3.66-1.13c1.61,0,2.9.38,3.86,1.14s1.45,1.74,1.45,2.95h-3.39c0-.48-.16-.88-.47-1.2s-.8-.47-1.46-.47c-.57,0-1.01.13-1.32.39s-.47.59-.47.98c0,.38.18.68.53.91s.96.43,1.8.6,1.55.36,2.13.57c1.79.66,2.68,1.79,2.68,3.41,0,1.16-.5,2.09-1.49,2.81s-2.27,1.07-3.84,1.07c-1.06,0-2.01-.19-2.83-.57s-1.47-.9-1.94-1.56-.7-1.37-.7-2.14h3.21c.03.6.25,1.06.67,1.38s.97.48,1.66.48c.65,0,1.14-.12,1.47-.37s.5-.57.5-.97Z"/><path d="m634.29,482.84c0,1.77-.25,3.46-.76,5.1s-1.24,3.07-2.19,4.32-1.97,2.11-3.06,2.58l-.66-1.79c1.11-.84,1.98-2.12,2.62-3.87s.97-3.75,1-6.01v-.62c0-2.34-.32-4.39-.96-6.18s-1.53-3.12-2.67-4.01l.66-1.79c1.06.46,2.06,1.3,3.01,2.51s1.67,2.62,2.19,4.23.79,3.28.81,5v.53Z"/><path d="m182.34,314.34c-.66,0-1.17.23-1.53.7s-.73,1.31-1.12,2.53-.78,2.18-1.17,2.89c-1.05,1.94-2.46,2.91-4.23,2.91-.92,0-1.74-.26-2.47-.78s-1.29-1.27-1.69-2.24c-.41-.97-.61-2.06-.61-3.28s.22-2.3.66-3.26,1.06-1.69,1.87-2.22,1.72-.79,2.74-.79v3.52c-.78,0-1.39.25-1.82.74s-.65,1.18-.65,2.07.18,1.53.54,2,.84.71,1.44.71c.55,0,1.02-.28,1.39-.84s.73-1.38,1.05-2.47c.6-2,1.35-3.46,2.24-4.37s2-1.37,3.33-1.37c1.48,0,2.63.56,3.47,1.68s1.26,2.62,1.26,4.51c0,1.31-.24,2.51-.72,3.59-.48,1.08-1.14,1.9-1.97,2.47s-1.8.85-2.91.85v-3.53c1.88,0,2.82-1.12,2.82-3.38,0-.84-.17-1.49-.51-1.96s-.81-.7-1.42-.7Z"/><path d="m180.6,297.24c1.95,0,3.52.44,4.69,1.33s1.76,2.08,1.76,3.59c0,1.28-.45,2.32-1.34,3.11h5.98v3.39h-17.55v-3.14l1.24-.12c-.98-.82-1.48-1.89-1.48-3.21,0-1.56.58-2.78,1.73-3.64s2.75-1.3,4.78-1.3h.18Zm-.25,3.39c-1.18,0-2.09.21-2.73.63s-.96,1.03-.96,1.82c0,1.06.41,1.79,1.22,2.19h5.19c.84-.41,1.25-1.15,1.25-2.21,0-1.62-1.32-2.43-3.97-2.43Z"/><path d="m187.05,289.31c0,1.86-.57,3.37-1.71,4.54s-2.66,1.75-4.56,1.75h-.33c-1.27,0-2.41-.25-3.42-.74s-1.78-1.19-2.32-2.09-.81-1.93-.81-3.09c0-1.73.55-3.1,1.64-4.1s2.64-1.49,4.65-1.49h1.38v8.07c.83-.11,1.49-.44,1.99-.99s.75-1.25.75-2.09c0-1.3-.47-2.32-1.42-3.06l1.86-1.66c.72.51,1.28,1.2,1.68,2.06s.6,1.83.6,2.88Zm-10.42.39c0,.67.23,1.22.68,1.63s1.11.69,1.95.8v-4.71h-.27c-.75.02-1.34.22-1.75.61s-.62.95-.62,1.66Z"/><path d="m187.05,276.33c0,1.86-.57,3.37-1.71,4.54s-2.66,1.75-4.56,1.75h-.33c-1.27,0-2.41-.25-3.42-.74s-1.78-1.19-2.32-2.09-.81-1.93-.81-3.09c0-1.73.55-3.1,1.64-4.1s2.64-1.49,4.65-1.49h1.38v8.07c.83-.11,1.49-.44,1.99-.99s.75-1.25.75-2.09c0-1.3-.47-2.32-1.42-3.06l1.86-1.66c.72.51,1.28,1.2,1.68,2.06s.6,1.83.6,2.88Zm-10.42.39c0,.67.23,1.22.68,1.63s1.11.69,1.95.8v-4.71h-.27c-.75.02-1.34.22-1.75.61s-.62.95-.62,1.66Z"/><path d="m180.39,269.72c-1.98,0-3.55-.44-4.72-1.33s-1.76-2.1-1.76-3.64c0-1.23.46-2.25,1.38-3.06h-6.47v-3.4h18v3.06l-1.35.16c1.05.84,1.58,1.93,1.58,3.26,0,1.49-.59,2.69-1.76,3.59s-2.81,1.35-4.9,1.35Zm.25-3.39c1.19,0,2.1-.21,2.73-.62.63-.41.95-1.02.95-1.8,0-1.05-.44-1.79-1.33-2.21h-5.01c-.88.42-1.33,1.15-1.33,2.19,0,1.63,1.33,2.45,3.98,2.45Z"/><path d="m179.88,249.54c-1.79,0-3.49-.24-5.11-.71s-3.05-1.18-4.29-2.11-2.11-1.94-2.6-3.02l1.83-.66c.84,1.14,2.15,2.03,3.91,2.67s3.83.96,6.19.96h.36c2.37,0,4.44-.32,6.21-.95s3.1-1.53,3.97-2.68l1.79.66c-.48,1.06-1.32,2.05-2.53,2.97s-2.6,1.62-4.18,2.1-3.23.74-4.95.77h-.62Z"/><path d="m174.14,238.09l1.42-.11c-1.1-.9-1.65-2.11-1.65-3.64,0-1.63.64-2.75,1.93-3.36-1.29-.89-1.93-2.16-1.93-3.81,0-1.38.4-2.4,1.2-3.07s2.01-1.01,3.62-1.01h8.1v3.4h-8.09c-.72,0-1.24.14-1.58.42s-.5.78-.5,1.49c0,1.02.48,1.72,1.45,2.11h8.71s0,3.38,0,3.38h-8.07c-.73,0-1.27.14-1.59.43s-.49.78-.49,1.48c0,.96.4,1.66,1.2,2.09h8.96v3.39h-12.68v-3.18Z"/><path d="m188.29,219.43v2.52l-18.53-6.28v-2.52l18.53,6.28Z"/><path d="m183.32,204.66c-.41,0-.74.21-.98.62s-.45,1.07-.64,1.97c-.63,3.02-1.91,4.52-3.84,4.52-1.12,0-2.06-.47-2.82-1.4s-1.13-2.15-1.13-3.66c0-1.61.38-2.9,1.14-3.86s1.74-1.45,2.95-1.45v3.39c-.48,0-.88.16-1.2.47s-.47.8-.47,1.46c0,.57.13,1.01.39,1.32s.59.47.98.47c.38,0,.68-.18.91-.53s.43-.96.6-1.8.36-1.55.57-2.13c.66-1.79,1.79-2.68,3.41-2.68,1.16,0,2.09.5,2.81,1.49s1.07,2.27,1.07,3.84c0,1.06-.19,2.01-.57,2.83s-.9,1.47-1.56,1.94-1.37.7-2.14.7v-3.21c.6-.03,1.06-.25,1.38-.67s.48-.97.48-1.66c0-.65-.12-1.14-.37-1.47s-.57-.5-.97-.5Z"/><path d="m180.15,193.35c1.77,0,3.46.25,5.1.76s3.07,1.24,4.32,2.19,2.11,1.97,2.58,3.06l-1.79.66c-.84-1.11-2.12-1.98-3.87-2.62s-3.75-.97-6.01-1h-.62c-2.34,0-4.39.32-6.18.96s-3.12,1.53-4.01,2.67l-1.79-.66c.46-1.06,1.3-2.06,2.51-3.01s2.62-1.67,4.23-2.19,3.28-.79,5-.81h.53Z"/></svg>