<?xml version="1.0" encoding="UTF-8"?><svg id="Layer_4" xmlns="http://www.w3.org/2000/svg" width="570" height="451.89" xmlns:xlink="http://www.w3.org/1999/xlink" viewBox="0 0 570 451.89"><defs><style>.cls-1{stroke:#000;stroke-miterlimit:10;stroke-width:3px;}.cls-1,.cls-2,.cls-3,.cls-4,.cls-5{fill:none;}.cls-6{clip-path:url(#clippath);}.cls-2,.cls-7,.cls-8,.cls-9,.cls-10,.cls-11,.cls-12,.cls-13,.cls-14,.cls-15,.cls-16,.cls-17,.cls-18,.cls-19,.cls-20,.cls-21,.cls-22,.cls-23,.cls-24,.cls-25,.cls-26,.cls-27,.cls-28,.cls-29,.cls-30{stroke-width:0px;}.cls-31{opacity:.09;}.cls-3{stroke:#683f3a;stroke-width:2px;}.cls-3,.cls-4,.cls-5{stroke-linecap:round;stroke-linejoin:round;}.cls-4{stroke:#e87900;}.cls-4,.cls-5{stroke-width:4px;}.cls-5{stroke:#c44a14;}.cls-32{opacity:.19;}.cls-8{fill:#f2f2f2;}.cls-9{fill:#f7c756;}.cls-10{fill:#5eb767;}.cls-11{fill:#77938e;}.cls-12{fill:#2b0d0d;}.cls-13{fill:#646465;}.cls-14{fill:#8b1a1e;}.cls-15{fill:#3a1316;}.cls-16{fill:#3c8875;}.cls-17{fill:#23623c;}.cls-18{fill:#cbcac9;}.cls-19{fill:#d95204;}.cls-20{fill:#b1dceb;}.cls-21{fill:#8e3d2d;}.cls-22{fill:#333;}.cls-23{fill:#994a37;}.cls-24{fill:#863e30;}.cls-25{fill:#80c689;}.cls-26{fill:#752212;}.cls-27{fill:#f2a03d;}.cls-28{fill:#fff;}.cls-29{fill:#e87900;}.cls-30{fill:#001415;}</style><clipPath id="clippath"><path id="blob" class="cls-2" d="M7.15,86.26c5.63,27.75,19.67,55.29,17.39,83.3-2.44,29.95-12.81,59.67-15.55,89.68-3.71,40.61-6.74,84.27,8.27,124.25,4.58,12.05,9.22,27.4,23.83,36.89,26.63,17.3,67.22,22.19,106.07,24.54,33.55,2.03,67.28,1.28,100.93.87,34.24-.43,68.4.58,102.54,2.01,35.21,1.48,70.82.13,105.5-3.85,26.76-3.07,53.42-9.57,70.58-21.49,15.28-10.61,21.57-24.47,23.79-38.05,5.44-33.2-6.74-76.2-5.31-109.53s13.43-60.81,15.08-95.71c.36-7.68.73-15.35,1.09-23.03.57-11.84,1.13-23.68,1.7-35.52,1.17-24.5,2.21-50-12.62-73.43-12.86-20.32-50.33-36.79-89.97-36.38-19.78.2-38.56,4.49-57.5,7.7-47.8,8.09-99.18,9.4-148.09,3.79-32.32-3.71-63.37-10.36-95.57-14.38-32.21-4.02-66.83-5.25-97.41,1.69C27.77,17.33,8.91,34.25,5.76,54.42c-1.67,10.66-.74,21.27,1.4,31.84Z"/></clipPath></defs><g class="cls-6"><polygon class="cls-20" points="680.65 443.86 -41.65 475.76 -57.74 -55.05 679.48 -35.1 680.65 443.86"/><path class="cls-25" d="M624.51,178.41s-128.08-39.1-154.13,6.78c0,0-14.82-12.12-30.15-8.08-15.33,4.04-24.37,22.29-15.06,30.42,0,0-24.11-65.7-63.85-62.81-39.75,2.88-45.9,59.04-45.9,59.04,0,0-13.3-60.62-97.31-45.73-44.25,7.84-62.34,48.51-62.34,48.51,0,0,7.82-34.29-28.69-34.57-48.95-.38-36.13,27.55-36.13,27.55,0,0-6.23-36.2-51.49-37.32s-76.43,23.14-76.43,23.14l13.94,229.18,677.41-49.12s-28.12-187.1-29.85-186.97Z"/><path class="cls-10" d="M103.9,296.66s-16.13-76.73,14.41-78.94c20.47-1.48,19.19,42.45,19.19,42.45,0,0,4.47-6.89,9.12-4.33,11.83,6.49-10.42,43.17-10.42,43.17l-32.31-2.33Z"/><path class="cls-10" d="M394.1,309.43s-11.32-48.75,8.31-53.39c15.44-3.65,25.66,12.34,25.66,12.34,0,0,3.19-31.72,23.65-32.29,26.44-.73,29.59,16.99,29.59,16.99,0,0,3.39-7.26,10.98-6.42,7.21.8,10.24,13.11,10.24,13.11,0,0,8.69-15.07,34.99-9.34,23.19,5.05,19.69,21.98,19.69,21.98,0,0,13.32-10.45,33.99-.98,20.67,9.47,25.38,36.57,25.38,36.57,0,0-39.74-15.66-118.58-15.76-78.84-.1-103.9,17.18-103.9,17.18Z"/><path class="cls-10" d="M-42.83,326.44s-19.41-33.35-6.13-39.9c10.44-5.15,21.56,4.72,21.56,4.72,0,0-4.92-23.42,9.9-27.17,19.14-4.84,25.49,7.44,25.49,7.44,0,0,.81-5.79,6.55-6.42s10.48,7.79,10.48,7.79c0,0,2.9-12.3,23.42-12.46,18.09-.14,19.4,12.66,19.4,12.66,0,0,7.34-9.72,24.6-6.26,17.26,3.46,26.89,22.26,26.89,22.26,0,0-32.6-4.82-90.2,7.98-57.6,12.8-71.96,29.36-71.96,29.36Z"/><path class="cls-13" d="M-18.86,518.3l643.22-59.82-8.61-166.34s-176.91-13.39-296.69-15.49c-249.11-4.38-347.49,25.25-347.49,25.25,0,0,11.49,216.26,9.55,216.4Z"/><g class="cls-32"><ellipse class="cls-18" cx="525.39" cy="448.61" rx="2.05" ry=".98" transform="translate(-30.65 38.6) rotate(-4.09)"/><ellipse class="cls-18" cx="545.23" cy="448.48" rx="1.36" ry=".98" transform="translate(-29.51 38.5) rotate(-3.94)"/><ellipse class="cls-18" cx="560.89" cy="447.35" rx="1.36" ry=".98" transform="translate(-29.39 39.57) rotate(-3.94)"/></g><g class="cls-32"><ellipse class="cls-18" cx="426.02" cy="448.67" rx="2.73" ry="1.3" transform="translate(-30.91 31.52) rotate(-4.09)"/><ellipse class="cls-18" cx="452.79" cy="449.67" rx="4.09" ry=".98" transform="translate(-31.25 33.82) rotate(-4.14)"/><ellipse class="cls-18" cx="521.96" cy="450.21" rx="2.05" ry="1.3" transform="translate(-30.22 37.62) rotate(-4.01)"/><ellipse class="cls-18" cx="347.46" cy="441.61" rx="2.05" ry=".98" transform="translate(-30.6 25.9) rotate(-4.09)"/><ellipse class="cls-18" cx="367.3" cy="441.48" rx="1.36" ry=".98" transform="translate(-29.45 26.26) rotate(-3.94)"/><ellipse class="cls-18" cx="382.96" cy="440.35" rx="1.36" ry=".98" transform="translate(-29.33 27.33) rotate(-3.94)"/><ellipse class="cls-18" cx="465.53" cy="432.72" rx="3.07" ry="1.96" transform="translate(-29.13 33.63) rotate(-4.01)"/><ellipse class="cls-18" cx="514.74" cy="436.35" rx="1.36" ry="1.3" transform="translate(-15.27 18.68) rotate(-2.05)"/></g><g class="cls-32"><ellipse class="cls-18" cx="80.98" cy="449.25" rx="2.05" ry=".98" transform="translate(-31.83 6.92) rotate(-4.09)"/><ellipse class="cls-18" cx="100.82" cy="449.12" rx="1.36" ry=".98" transform="translate(-30.6 7.98) rotate(-3.94)"/><ellipse class="cls-18" cx="116.48" cy="447.98" rx="1.36" ry=".98" transform="translate(-30.49 9.06) rotate(-3.94)"/><ellipse class="cls-18" cx="199.05" cy="440.36" rx="3.07" ry="1.96" transform="translate(-30.32 15) rotate(-4.01)"/><ellipse class="cls-18" cx="248.27" cy="443.99" rx="1.36" ry="1.3" transform="translate(-15.72 9.16) rotate(-2.05)"/></g><g class="cls-31"><ellipse class="cls-18" cx="100.46" cy="313.22" rx="5.12" ry="2.61" transform="translate(-22.02 7.94) rotate(-4.08)"/><ellipse class="cls-18" cx="82.4" cy="314.2" rx="2.73" ry="1.63" transform="translate(-21.92 6.58) rotate(-4.04)"/><ellipse class="cls-18" cx="96.75" cy="304.98" rx="2.73" ry="1.3" transform="translate(-21.5 7.67) rotate(-4.09)"/><ellipse class="cls-18" cx="123.52" cy="305.98" rx="4.09" ry=".98" transform="translate(-21.74 9.7) rotate(-4.14)"/><ellipse class="cls-18" cx="192.69" cy="306.53" rx="2.05" ry="1.3" transform="translate(-20.97 14.23) rotate(-4.01)"/><ellipse class="cls-18" cx="32.34" cy="317.5" rx="2.39" ry="1.3" transform="translate(-22.41 3.09) rotate(-4.06)"/><ellipse class="cls-18" cx="18.19" cy="297.93" rx="2.05" ry=".98" transform="translate(-21.2 2.06) rotate(-4.09)"/><ellipse class="cls-18" cx="38.03" cy="297.79" rx="1.36" ry=".98" transform="translate(-20.36 3.31) rotate(-3.94)"/><ellipse class="cls-18" cx="53.69" cy="296.66" rx="1.36" ry=".98" transform="translate(-20.24 4.39) rotate(-3.94)"/><ellipse class="cls-18" cx="136.26" cy="289.04" rx="3.07" ry="1.96" transform="translate(-19.89 10.24) rotate(-4.01)"/><ellipse class="cls-18" cx="185.48" cy="292.66" rx="1.36" ry="1.3" transform="translate(-10.35 6.82) rotate(-2.05)"/></g><g class="cls-32"><ellipse class="cls-18" cx="536.17" cy="354.08" rx="5.12" ry="2.61" transform="translate(-23.82 39.02) rotate(-4.08)"/><ellipse class="cls-18" cx="518.11" cy="355.06" rx="2.73" ry="1.63" transform="translate(-23.71 37.36) rotate(-4.04)"/><ellipse class="cls-18" cx="532.47" cy="345.84" rx="2.73" ry="1.3" transform="translate(-23.3 38.84) rotate(-4.09)"/><ellipse class="cls-18" cx="559.23" cy="346.84" rx="4.09" ry=".98" transform="translate(-23.56 41.23) rotate(-4.14)"/><ellipse class="cls-18" cx="468.06" cy="358.36" rx="2.39" ry="1.3" transform="translate(-24.21 34.06) rotate(-4.06)"/><ellipse class="cls-18" cx="413.8" cy="364.91" rx="1.71" ry=".65" transform="translate(-25.11 30.62) rotate(-4.11)"/><ellipse class="cls-18" cx="304.6" cy="373.48" rx="1.36" ry=".65" transform="translate(-25.85 22.67) rotate(-4.09)"/><ellipse class="cls-18" cx="453.91" cy="338.79" rx="2.05" ry=".98" transform="translate(-23 33.23) rotate(-4.09)"/><ellipse class="cls-18" cx="473.74" cy="338.65" rx="1.36" ry=".98" transform="translate(-22.14 33.33) rotate(-3.94)"/><ellipse class="cls-18" cx="489.4" cy="337.52" rx="1.36" ry=".98" transform="translate(-22.02 34.4) rotate(-3.94)"/><ellipse class="cls-18" cx="571.98" cy="329.9" rx="3.07" ry="1.96" transform="translate(-21.68 40.82) rotate(-4.01)"/></g><path class="cls-11" d="M423.24,55.01c2.78-8.48,6.22-16.74,9.57-25,.22-.55.85-.82,1.4-.6.31.12.53.37.62.67l5.18,15.22c1.71,5.08,3.43,10.15,5.09,15.25h-2.25c3.09-9.27,7.39-22.31,10.55-31.42.15-.5.69-.78,1.18-.6.27.1.47.31.56.56.71,2.04,1.41,4.09,2.09,6.14.58,1.72,1.36,4.37,2.03,6.02-.01.02.08.05-.05.01.08,0,.15.07.15.15,0,.08-.07.15-.15.15-.19-.05-.18-.12-.27-.21-2.24-3.65-3.85-7.68-5.53-11.61,0,0,1.74-.04,1.74-.04-2.79,9.17-7.1,22.32-10.05,31.59-.2.62-.87.97-1.49.77-.38-.12-.65-.41-.76-.76-3.01-8.8-7.13-21.57-10.07-30.53,0,0,2.02.07,2.02.07-3.49,8.1-6.67,16.39-11.12,24.03,0,0-.12.18-.12.18-.06.07-.03.09-.2.23-.08.07-.22-.02-.18-.12,0,0,.05-.14.05-.14h0Z"/><path class="cls-11" d="M417.11,27.72c7.29,12.36,12.69,25.62,18.9,38.52,0,0-2.2.11-2.2.11,2.98-8.76,6.41-18.44,9.53-27.21,0,0,3.24-9.05,3.24-9.05.17-.51.73-.78,1.24-.6.27.1.47.31.57.55,1.4,3.52,2.75,7.06,4.06,10.62,1.31,3.56,2.58,7.14,3.76,10.74.05.16-.19.27-.27.11-.85-1.7-1.64-3.42-2.46-5.14-2.4-5.15-4.68-10.37-6.89-15.61,0,0,1.81-.05,1.81-.05l-3.04,9.12c-2.97,8.83-6.24,18.54-9.31,27.29-.21.62-.9.95-1.52.73-.31-.11-.55-.34-.68-.62-2.98-6.5-5.93-13.01-8.86-19.53-2.94-6.52-5.94-13.01-8.15-19.86-.05-.15.18-.27.27-.12h0Z"/><path class="cls-11" d="M419.69,41.9c4.12,6.66,8.15,17.1,11.39,24.3,0,0-2.19.15-2.19.15l4.86-17.98,4.97-17.95c.16-.6.78-.96,1.38-.79.34.09.6.34.73.64,3.85,9.08,9.67,21.63,12.62,30.92.05.16-.18.27-.27.12-4.84-8.41-10.33-21.21-14.41-30.13,0,0,2.11-.16,2.11-.16-2.38,8.97-7.28,27-9.77,35.94-.16.62-.8.99-1.43.82-.36-.1-.63-.36-.76-.68l-5.1-12.4c-1.7-4.13-3.32-8.3-4.43-12.69-.04-.16.18-.26.27-.11h0Z"/><path class="cls-11" d="M447.59,63.52c.1-2.77,1.28-5.09,2.23-7.5,2.48-6,5.14-11.96,8.54-17.51.81-1.1,1.61-2.25,2.93-2.83.08-.03.16,0,.19.08-.74,2.09-2.17,5.06-3.17,7.11-1.59,3.51-4.86,10.54-6.51,14.01-1.14,2.32-2.02,4.75-3.94,6.74-.09.1-.28.03-.27-.11h0Z"/><path class="cls-11" d="M420.45,47.59c-.51-1.85.09-3.39.43-5.01.37-1.61.77-3.2,1.21-4.79.44-1.58.94-3.15,1.46-4.72.52-1.56.9-3.17,2.22-4.5l.28.08c.44,1.83-.07,3.4-.44,5-.37,1.61-.76,3.21-1.2,4.79-.44,1.58-.93,3.16-1.45,4.72-.54,1.56-.84,3.18-2.23,4.5l-.28-.08h0Z"/><path class="cls-5" d="M465.45,24.1c0,3.17-11.77,5.74-26.29,5.74s-26.29-2.57-26.29-5.74"/><path class="cls-4" d="M412.88,24.1c0-3.17,11.77-5.74,26.29-5.74s26.29,2.57,26.29,5.74"/><rect class="cls-7" x="479.63" y="8.38" width="95.25" height="16.14"/><rect class="cls-7" x="489.21" y="-3.44" width="83.43" height="5.81" transform="translate(70.86 -265.54) rotate(30)"/><polygon class="cls-7" points="552.79 17.43 491.82 -75.25 496.52 -78.68 557.49 14 552.79 17.43"/><line class="cls-3" x1="479.62" y1="16.18" x2="573.77" y2="16.18"/><line class="cls-3" x1="537.69" y1="8.59" x2="555.08" y2="8.59"/><polygon class="cls-29" points="464.86 25.86 469.88 36.12 479.14 36.12 481.14 32.35 481.14 21.11 464.86 21.11 464.86 25.86"/><path class="cls-29" d="M467.11,21.11l13.76-.27-.25,2.75-13.01,4.02-2.75,1.5-2.01-5.75s5.75-2.25,4.25-2.25Z"/><path class="cls-14" d="M469,27.29c2.05.99,2.71,3.25,3.93,5,0,0-1.01-.62-1.01-.62,2.25,0,4.51.18,6.75.4.75.12,1.49.34,2.23.89v.29c-1.46.98-2.95.76-4.54.84-1.74.06-3.48.02-5.22-.07-.8-1.6-1.67-3.18-2.29-4.86-.13-.53-.22-1.07-.11-1.73l.26-.14h0Z"/><path class="cls-14" d="M469.76,36.04c-.68-.79-.38-.98-.3-1.3.1-.31.23-.61.39-.88.17-.27.38-.51.61-.74.23-.23.34-.54,1.29-.33l.25.15c.61.75.39.98.29,1.3-.1.31-.22.61-.39.88-.17.27-.37.52-.61.75-.25.22-.29.57-1.3.32l-.25-.15h0Z"/><path class="cls-14" d="M481.16,24.99c-1.67,1.54-4.52,1.77-6.55,2.37-2.55.61-5.15,1.11-7.74,1.52-.7-2.27-2.18-5.02-1.89-7.47,0,0,.27-.11.27-.11,1.65,1.31,2.55,4.05,3.43,5.89,0,0-1.28-.69-1.28-.69,2.23-.55,4.48-1.01,6.75-1.41,2.11-.25,4.81-1.15,6.96-.39,0,0,.06.29.06.29h0Z"/><path class="cls-28" d="M415.48,30.72c.11-3.19.39-6.37.74-9.54.06-.73,1.08-1.01,1.49-.4,2.64,3.78,4.2,7.96,6.14,12.08,2.68,6.09,8.02,18.35,10.67,24.45,1.7,3.72,3.26,7.54,5.38,11.03.07.1.13.19.19.25.05.06.13.13.05.07-.01,0-.18-.17-.62-.14-.35.05-.41.16-.42.15-.04.03.03-.03.08-.1,3.75-6.11,7.57-16.56,10.57-23.19,1.8-4.3,6.02-14.29,7.93-18.4.95-1.91,1.79-3.9,3.03-5.66.13-.14.16-.27.56-.5.43-.28,1.04.04,1.05.55.25,2.9.44,5.8.54,8.72,0,.08-.06.15-.14.15-.07,0-.13-.05-.15-.11-.64-2.84-1.19-5.7-1.69-8.57,0,0,1.05.55,1.05.55.15-.09.02.01-.02.09-.2.31-.37.66-.54,1-2.79,6.16-6.96,16.66-9.58,23.01-2.52,6.19-5.04,12.38-7.84,18.46-1.04,2.01-1.76,4.23-3.39,5.89-.13.08-.31.26-.79.33-.92.03-1.15-.41-1.54-.8-2.48-3.66-4.01-7.87-5.86-11.86-3.12-7.07-7.34-17.36-10.42-24.56-1.78-3.93-3.37-8.18-5.55-11.86,0,0,1.49-.4,1.49-.4-.6,3.13-1.28,6.25-2.11,9.33-.03.17-.31.12-.29-.04h0Z"/><path class="cls-28" d="M412.31,24.34c3.69,5.14,6.42,10.96,8.19,17.04,2.16,8.24,3.17,17.52,9.06,24.02.3.29.72.58.87.62.01,0,0,0-.04,0-.24-.09-.87.25-.97.65-.02.05,0,0,0,0l.02-.05c3.03-8.74,6.67-17.23,10.37-25.66,3.37-7.65,6.89-15.23,10.47-22.78.23-.51.84-.73,1.34-.49.17.08.31.21.41.36,1.84,2.82,3.59,5.67,5.19,8.63,1.19,2.22,2.35,4.49,3.16,6.9.27.8.54,1.63.5,2.53,0,.08-.07.14-.15.14-.07,0-.13-.05-.14-.12-.13-.78-.51-1.54-.87-2.27-2.81-5.07-6.16-9.85-9.37-14.68,0,0,1.75-.14,1.75-.14-7.14,15.88-14.4,31.82-20.38,48.16-.64,2.1-2.85.84-3.74-.09-4.89-5.18-6.55-12.46-8.11-19.13-1.34-8.21-4.42-15.84-7.8-23.49-.08-.15.15-.3.25-.15h0Z"/><path class="cls-28" d="M463.01,23.36c1.17,8.48-1.44,16.9-4.83,24.59-2.18,5.83-3.66,11.94-5.55,17.92-.28.71-.46,1.68-1.12,2.29-.36.34-1.07.37-1.46.09-.09-.05-.3-.24-.32-.27-.94-1.16-1.59-2.48-2.32-3.73-8.09-14.69-15.42-29.69-22.86-44.7,0,0,1.91-.16,1.91-.16-2.18,7.44-4.89,15.2-7.26,22.58-.03.16-.3.12-.28-.04.12-2.04.61-3.93,1-5.91,1.26-5.81,2.89-11.52,4.56-17.22.23-.88,1.54-1,1.91-.16,7.36,14.07,17.36,34.55,24.93,47.68-.26-.18-.66-.23-.94-.14-.19.06-.39.19-.49.33,0,.01.02-.03.03-.06,2.85-8.3,4.92-17,8.67-25.03,2.17-5.81,3.52-11.83,4.11-18.04,0-.17.28-.19.29-.01h0Z"/><path class="cls-28" d="M422.05,50.93c1.66-5.82,4.4-11.14,6.95-16.54,1.94-4.05,3.92-8.08,6.07-12.03,1-1.6,1.84-3.89,3.48-5.06,1.01-.48,1.83.35,2.39,1.04,3.27,4.18,5.92,8.74,8.71,13.22,3.1,5.11,6.27,10.18,8.56,15.77l-.25.15c-7.2-8.81-12.16-19.33-19.26-28.05.19.15.8.18,1.04-.05-1.81,2.4-3.21,5.35-4.68,8.04,0,0-4.11,7.93-4.11,7.93-2.74,5.3-5.18,10.74-8.63,15.71l-.27-.13h0Z"/><rect class="cls-8" x="479.94" y="-85.28" width="15.27" height="145.63" rx="4.4" ry="4.4"/><circle id="Basket_ball" class="cls-19" cx="275.86" cy="59.52" r="19.15"/><path class="cls-24" d="M276.13,40.51c-2.23,2.14-3.61,3.85-4.96,7.3-.22.59-.59,1.54-1.17,3.58-.21.76-.52,2.05-.73,3.16-.09.56-.18,1.07-.24,1.44-.05.37-.08.6-.08.6,0,0-.03.19-.07.51-.04.32-.1.76-.14,1.26-.1,1-.16,2.2-.19,3.05-.09,2.81.04,4.57.13,5.48.38,3.72,1.48,5.78,3.34,8.21-.5-3.07-.68-4.98-1.01-8.42-.07-.85-.19-2.5-.11-5.19.03-.82.09-1.98.18-2.91.03-.47.09-.88.13-1.18.04-.3.06-.48.06-.48,0,0,.03-.22.08-.57.06-.35.14-.83.23-1.35.2-1.05.5-2.26.69-2.98.54-1.93.89-2.82,1.09-3.38,1.25-3.26,1.81-5.17,2.77-8.12Z"/><path class="cls-24" d="M264.45,43.2c-.52,1.46-.9,2.71-1.13,4.07-.22,1.36-.35,2.83-.02,4.75.08.33.11.75.32,1.37.09.31.18.67.38,1.08.09.21.17.43.29.66.14.23.28.48.44.74.17.3.47.6.76.95.33.31.71.66,1.16.92.46.26.94.52,1.45.64.51.19,1.01.23,1.5.29.96.07,1.83.01,2.41-.1.3-.05.54-.09.71-.11.17-.02.25-.06.25-.06,0,0,.3-.08.79-.21.5-.11,1.15-.36,1.88-.62,1.44-.58,3.13-1.41,4.24-2.14,2.44-1.52,3.72-2.79,4.41-3.42,1.34-1.34,2.22-2.6,2.77-3.94.51-1.34.79-2.77.44-4.3-.41,1.5-1.19,2.46-1.93,3.45-.79.97-1.7,1.92-2.91,3.12-.62.56-1.79,1.7-4.03,3.1-1.02.68-2.56,1.43-3.84,1.95-.65.23-1.23.46-1.65.55-.42.11-.68.18-.68.18,0,0-.08.03-.22.05-.14.02-.34.05-.58.09-.49.1-1.16.13-1.85.08-.34-.05-.71-.07-1.02-.2-.34-.07-.63-.24-.91-.4-.27-.16-.49-.38-.71-.56-.17-.24-.37-.4-.49-.61-.11-.18-.21-.35-.3-.51-.08-.17-.15-.34-.21-.49-.15-.3-.22-.59-.29-.84-.17-.48-.2-.87-.27-1.13-.29-1.63-.39-2.99-.56-4.3-.16-1.31-.36-2.58-.58-4.11Z"/><path class="cls-24" d="M263.99,71.5c1.23-.33,2.01-.73,2.73-1.33.21-.16.5-.37,1.11-.45.62-.08,1.56-.02,2.47.06.84.08,1.67.26,2.28.4.61.16,1,.26,1,.26,0,0,1.58.44,3.23,1.15,1.68.67,3.31,1.68,3.8,2.04.92.68,1.6.7,2.78,1.18.09-1.3-.34-2.27-1.41-3.08-.59-.46-2.45-1.6-4.25-2.32-1.79-.76-3.5-1.23-3.5-1.23,0,0-.43-.12-1.09-.29-.67-.16-1.59-.37-2.61-.47-.95-.09-1.98-.18-3-.05-.52.07-1.02.23-1.42.42-.39.2-.66.41-.83.54-.61.52-.86,1-1.03,1.5-.16.5-.21,1.02-.24,1.66Z"/><path class="cls-24" d="M294.18,59.02c-3.05.41-5.08.51-8.53,1.35-.59.13-1.54.36-3.53.75-1.02.19-2.75.5-4.23.69-.74.1-1.41.19-1.9.23-.49.05-.79.08-.79.08,0,0-1.02.09-2.32.14-1.3.06-2.85,0-3.96-.12-2.6-.29-4.1-.86-4.88-1.14-1.56-.61-2.75-1.2-3.93-1.77-1.18-.56-2.36-1.17-3.85-1.63,1.09,1.09,1.85,2.11,2.88,3.05,1.01.94,2.26,1.82,4.05,2.54.88.33,2.61.99,5.48,1.3,1.21.13,2.91.19,4.29.12,1.38-.06,2.44-.15,2.44-.15,0,0,.32-.03.83-.08.51-.04,1.21-.13,1.98-.23,1.53-.19,3.31-.51,4.36-.72,2.05-.41,3.02-.65,3.62-.79,3.52-.89,5.47-1.81,8-3.62Z"/><polyline class="cls-1" points="272.41 434.68 272.41 64.72 170.76 64.72"/><path class="cls-7" d="M215.54,41.23c.7-1.21,1.73-2.62,3.43-2.62.95,0,1.32.43,1.32,1.16,0,.92-.59,1.29-1.21,1.29-.51,0-1-.27-1.46-.27-.57,0-.97.38-1.43,1.13l-1.65,2.62.57,1.84c.76,2.43,1.24,3.48,2.16,3.48.7,0,1.27-.65,1.92-1.51l.57.43c-.76,1.16-1.94,3.02-3.7,3.02-1.32,0-1.84-1.03-2.27-2.78l-.67-2.73h-.11l-1.73,2.81c-.86,1.4-1.75,2.67-3.38,2.67-1.16,0-1.57-.67-1.57-1.3s.41-1.16,1.08-1.16c.54,0,1.24.35,1.67.35.11,0,.59-.03,1.65-1.54l1.94-2.83-.76-2.46c-.7-2.24-1.21-2.97-2.83-2.97-.3,0-.54.03-.89.08v-.81l3.67-.43h.4c.65.76,1.19,1.94,1.54,3.4l.32,1.38h.08l1.32-2.27Z"/><path class="cls-7" d="M294.29,232.64l.24,2.7h.16l3.1-4.99c.65-1.05.89-1.78.89-2.21,0-1-1.32-1.54-1.32-2.59,0-.59.41-1.08,1.16-1.08.92,0,1.73.67,1.73,2.19,0,.97-.32,2.05-1.16,3.59-1.35,2.51-4.16,6.45-4.43,6.83-2.92,4.16-4.45,6.34-6.26,6.34-1.08,0-2.11-.73-2.11-1.84,0-.76.46-1.16,1.05-1.16,1.11,0,1.51,1.46,1.94,1.46.59,0,2.75-3.02,3.51-4.16l-1.54-9.5c-.22-1.35-.38-2.54-1.97-2.54-.24,0-.49.03-.73.05v-.78l3.62-.3h.41c.59,1.03.78,1.89,1.11,4.05l.59,3.94Z"/><path id="background_leg" class="cls-23" d="M197.41,325.59l22.57-23.26s-16.52,2.06-41.96-12.31l18.48-27.94s39.86,16.23,46.18,33.9c0,0,2.36,5.5-4.47,10.63l-38.55,28.29-2.25-9.32Z"/><polygon id="background_arm" class="cls-21" points="205.58 143.54 208.55 179.65 184.46 198.24 187.91 203.68 224.75 179.22 212.42 138.98 205.58 143.54"/><g id="hand"><path id="hand-2" class="cls-23" d="M255.05,116.81c-.25.56-6.76,1.64-6.95,2.06-.18.42-3.79,6.71-3.79,6.71,0,0,.64,5.68-7.35,5.19l-.76-6.45,1.82-3.85s4.75-6.63,6.84-8.72c2.09-2.1,6.18-4.16,6.18-4.16l7.7-1.24c.43-.07.78.35.63.76l-.87,2.47c-.09.25-.27.46-.5.6l-10.33,5.83,7.77-1.28c.07.17.19.56.11,1.06-.09.54-.39.89-.51,1.02Z"/><path class="cls-12" d="M258.07,109.86c-.06.33-.27.65-.46.92-1.28,1.4-3.03,2.28-4.58,3.34-.91.56-1.85,1.09-2.8,1.6-.95.51-1.84,1.11-3.11,1.08-.07,0-.13-.06-.13-.13.51-1.17,1.52-1.7,2.4-2.32,1.76-1.22,3.58-2.35,5.46-3.38.93-.52,1.86-1.15,2.98-1.16-.01.02,0,.06.02.07,0-.06.04-.11.11-.11.06,0,.11.04.11.11h0Z"/><path class="cls-12" d="M258.99,108.05c-.27.81-.7.77-1.1.92-.4.14-.8.25-1.21.33-.41.08-.83.11-1.25.13-.42.02-.82.15-1.36-.45-.05-.06-.07-.14-.04-.22.28-.75.7-.78,1.1-.92.4-.13.8-.25,1.21-.33.41-.08.83-.12,1.25-.14.42,0,.81-.19,1.36.46.05.06.07.14.04.22,0,0,.02-.07,0,0Z"/></g><g id="hand-3"><path id="hand-4" class="cls-21" d="M217.65,133.82c-.29.36-5.37,5.53-5.37,5.53,0,0,.91,7.26-6.7,4.74v-6.3l1.91-4.99s2-3.59,8.84-6.69c2.56-1.49,7.04-2.44,7.04-2.44l7.76.76c.43.04.66.53.42.89l-1.47,2.17c-.15.22-.38.38-.63.45l-11.47,3,5.63-1.41"/></g><path class="cls-16" d="M201.67,220.46l.78-7.27s-3.11,6.14-9.37,6.65c-6,.49-13.73-13.97-6.06-24.58-1.66.61-6.16,2.42-10.16,5.95-1.38,1.22-4.31.96-4.02-2.27,0-.04-.08-1.71-.08-1.71-5.59,4.7-4.54,15.66-4.7,20.28-.42,3.32-.68,39.06-.68,39.06,0,0-8.9,20.61,3.38,34.75,0,0,16.47-4.29,22.79-12.86,0,0,2.93.68,4.51,3.61,1.58,2.93,5.19,5.19,5.19,5.19l-1.58-66.8Z"/><path class="cls-16" d="M167.66,235.21s-1.27,31.54-5.17,40.16c-.37.81.23,1.73,1.12,1.71l5.87-.14-1.81-41.73Z"/><path class="cls-17" d="M193.79,270.15c1.17-.68,2.05-.18,2.94.14,1.8.67,3.43,1.81,4.7,3.26.63.71,1.35,1.41,1.18,2.7l-.23.18c-1.26-.14-1.75-.79-2.43-1.32-.67-.53-1.35-1.01-2.04-1.49-.69-.47-1.39-.94-2.12-1.37-.73-.46-1.54-.61-2.09-1.81l.08-.28h0Z"/><path class="cls-17" d="M202.23,244.8c1.17,1.94,1.08,3.98,1.24,5.98.13,2.01.2,4.02.22,6.02.01,2.01-.05,4.01-.14,6.02-.09,2-.05,4.01-1,6h-.29c-.88-2.02-.79-4.01-.85-6.01-.06-2-.12-3.99-.13-5.99-.01-1.99,0-3.99.03-5.98.04-2-.17-3.96.63-6.01l.29-.03h0Z"/><path class="cls-17" d="M167.64,243.77c1.17.67,1.23,1.6,1.54,2.47.29.88.54,1.76.75,2.66.21.89.36,1.8.5,2.72.13.91.41,1.79-.27,2.9l-.29.07c-1.1-.69-1.24-1.6-1.53-2.47-.28-.88-.55-1.76-.76-2.65-.21-.89-.38-1.8-.51-2.71-.11-.92-.47-1.78.28-2.9l.29-.07h0Z"/><path class="cls-9" d="M202.08,226.71c1.17,1.38,1.17,2.93,1.39,4.43.4,3.04.5,6.11.21,9.16-.15,1.52-.21,3.11-1.35,4.48l-.29-.05c-.68-1.61-.5-3.03-.51-4.52-.06-2.22-.17-6.69-.23-8.91-.01-1.5-.31-2.95.48-4.56l.29-.04h0Z"/><path class="cls-9" d="M168.15,216.65c1.06,1.4,1.14,2.89,1.36,4.38.29,2.83,1.4,5.99-.36,8.56-.16.49.21-.66.15-.46-.33,1.83-.15,3.6-1.44,5.3,0,0-.29-.02-.29-.02-.97-1.86-.51-3.56-.53-5.39-.02-.06.15-.53.17-.59,1.09-2.21.1-4.81.18-7.18-.07-1.5-.3-2.98.47-4.56,0,0,.29-.03.29-.03h0Z"/><g id="Background_shoe"><path class="cls-22" d="M188.24,335.07l15-15.61c.33.25,5.04,4.45,7.33,7.33-7.51,6.07-16.57,13.74-16.57,13.74l-5.76-5.47Z"/><path class="cls-16" d="M189.52,332.47l4.98-4.18c.51-.43,1.3-.34,1.77.22l4.9,4.85c.47.57.43,1.39-.1,1.83l-3.31,2.78c-1.86,5.44-.04,14.97.09,22.45.02.94,1.2,4.48.27,4.29-4.27-.86-8.38-7.34-8.72-7.88l-9.3-14.79c-.4-.63-.35-1.43.12-1.95.45-.49.93-.99,1.43-1.48,2.65-2.61,5.36-4.6,7.85-6.13Z"/><path class="cls-17" d="M182.72,346.18l-2.61-4.14c-.4-.63-.35-1.43.12-1.95.45-.49.93-.99,1.43-1.48,1.86-1.83,3.74-3.35,5.56-4.63.15,2.78-.23,8.11-4.51,12.2Z"/><path class="cls-17" d="M196.38,354.57c.52.51.99,1.1,1.4,1.72.03,1.79,1.97,5.24,2,7.03.02.94-.73,1.56-1.65,1.38-4.27-.86-8.38-7.34-8.72-7.88l-1.57-2.5c3.16-1.96,6.03-2.16,8.53.25Z"/><path class="cls-17" d="M196.23,355.03c-1.22-1.11-1.38-2.5-1.73-3.83-.74-3.06-1.13-6.25-.68-9.41.17-1.12.66-2.33,1.72-2.87,0,0,.22.15.22.15.02,1.05,0,1.92-.09,2.92-.08,2.95.41,5.9.77,8.84.16,1.34.58,2.6.05,4.13,0,0-.26.07-.26.07h0Z"/><path class="cls-9" d="M196.79,342.81c-1.1-.22-.76-.48-1.2-.85-.04-.02.12,0,.11-.08-.02-.08-.09,0-.68-.65l-.12-.24c-.1-.86.36-1.02.89-1.06,1.03-.15,1.97.91,1.96,1.81,0,.35.2.71-.69,1.07h-.27Z"/><path class="cls-9" d="M196.96,348.39c-.94-.13-.87-.38-1.05-.6-.21-.31-.42-.39-.49-.65-.3-.17-.36-.2-.82-.59-.41-.62.02-1.37.91-1.36,1.14-.11,2.07.9,2.23,1.87.06.39.31.77-.51,1.29l-.26.04h0Z"/><path class="cls-9" d="M197.34,353.81c-.9-.26-.79-.48-.93-.7-.12-.21-.23-.37-.27-.42-.06-.05.13.02.14-.08-.02-.08-.12,0-.78-.59l-.14-.23c-.11-.87.34-1.07.94-1.13,1.14-.19,2.1,1.07,2.03,2.05-.02.38.16.76-.74,1.11h-.27Z"/><path class="cls-7" d="M181.22,340.87l9.3,14.79c.34.54,4.45,7.02,8.72,7.88.18.04.36.03.52.01-.1.81-.78,1.32-1.63,1.15-4.27-.86-8.38-7.34-8.72-7.88l-9.3-14.79c-.4-.63-.35-1.43.12-1.95.35-.38.72-.76,1.1-1.15-.47.52-.51,1.31-.12,1.93Z"/></g><g id="Terra_s_Head"><polygon class="cls-23" points="186.2 199.85 174.32 203.05 171.71 200.53 172.38 197.13 168.88 186.19 183.73 185.08 186.2 199.85"/><circle id="bun" class="cls-7" cx="164.91" cy="189.66" r="5.86"/><path class="cls-7" d="M179.14,163c3.2,5.66,2.84,15.52-4.26,19.54-7.11,4.02-15.46,2.68-18.66-2.98-3.2-5.66-.03-13.51,7.07-17.52,7.11-4.02,12.65-4.7,15.85.96Z"/><path id="egg_shaped_head" class="cls-23" d="M163.9,180.88c-4.39-5.32-4.58-13.5,1.15-18.24s14.19-2.03,18.59,3.29c1.96,2.37,11.44,15.25,2.7,22.47-8.55,7.06-20.48-5.15-22.44-7.52Z"/><g id="face"><path id="lips" class="cls-26" d="M189.02,175.71c.59.84-.12,2.01-1.06,2.83-.79.69-2.75.73-3.33-.17s.24-1.7,1.12-2.27,2.64-1.26,3.26-.39Z"/><path class="cls-15" d="M182.96,179.15c.34-1.1.86-1.12,1.34-1.45l1.41-.9c.46-.3.94-.59,1.4-.9.48-.32.78-.74,1.86-.64.11,0,.2.08.23.18.33,1.07-.22,1.56-.66,2.05-.45.51-.96.97-1.53,1.34-.57.37-1.19.65-1.84.85-.64.17-1.29.56-2.15-.25-.08-.08-.1-.19-.07-.29h0Z"/><g id="right_eye"><ellipse id="right_pupil" class="cls-30" cx="180.88" cy="170.27" rx=".87" ry="1.17" transform="translate(-62.54 120.74) rotate(-31.77)"/><g id="right_eye-2"><path class="cls-30" d="M181.23,169.84c-.63,0-.75.28-.71.36.03.06,0,.08-.11.16-.58.38-1.17.78-1.63,1.37-.23.35-.45.63-1.23.86.03.08,0,.16-.08.19-.08.03-.16,0-.19-.08-.49-.39-.51-.77-.56-1.1.26-1.99,2.33-4.07,4.49-3.25.51.26.77.93.3,1.43-.07.08-.19.08-.28.08h0Z"/></g><g id="right_eyebrow"><path class="cls-12" d="M180.34,166.7c-.86,1.35-.82.96-1.55,1.39-1.22.56-1.91,1.93-3.16,2.55-.35.16-.78.29-1.37.3-.63-.05-.55-1.35-.52-1.66.19-1.18.96-1.98,1.66-2.95.87-1.22,2.6-2.09,4.09-1.59.47.09.97.35,1,1.55,0,.16-.07.29-.16.41h0Z"/></g></g><path id="nose" class="cls-23" d="M188.24,173.53c1.13-.25,1.58-1.89,1.23-2.99-.55-1.72-2.92-2.03-4.17-1.19"/></g><path class="cls-7" d="M165.18,167.1s-1.06,6.82,1.93,10.9l-5.88,5.13-3.57-14.16,5.68-6.05,1.84,4.18Z"/><ellipse id="bun-2" class="cls-7" cx="165.73" cy="165.02" rx="8" ry="3.88" transform="translate(-64.91 126.23) rotate(-35.33)"/><g id="left_ear"><path class="cls-23" d="M161.84,180.44c-.63,1.07.12,2.69,1.69,3.62s3.35.81,3.99-.26c.28-.48,1.48-3.51-.91-4.93s-4.48,1.09-4.76,1.57Z"/><path class="cls-12" d="M165.21,181.04c.2.98.05.88-.03,1.03-.07.13-.14.22-.2.27-.19.09-.06-.24-.21-.34-.1-.12-.49-.04-.81.23-.84.43-1.3-.3-1-.97.24-.68.64-1.03,1.24-1.12.23,0,.39-.24.92.62.05.09.08.18.1.28h0Z"/></g></g><path class="cls-23" d="M221.65,167.11s.43,3.91,4.13,5.43,8.04-1.74,8.69-3.48,10.21-44.31,10.21-44.31c0,0-5-2.39-8.04-1.52,0,0-14.33,40.18-14.99,43.87Z"/><path class="cls-23" d="M226.21,165.59c-3.26.43-7.97,4.61-7.97,4.61l-38.88,31.67s.47,9.11,8.95,15.3c14.14,10.33,13.68-2.93,13.68-2.93l-.26-12.23c10.87-7.97,18.95-15.67,24.31-21.38,2.96-3.16,5.59-6.34,8-9.43.14-.22,1.35-2.26.42-4.57,0,0-4.99-1.48-8.25-1.04Z"/><polyline id="foreground_leg" class="cls-23" points="170.98 276.88 171.08 278.25 181.13 409.91 189.23 410.68 202.46 272.48"/><path class="cls-16" d="M171.69,325.66v-32.58l-3.97-11.84,10.91-27.5,28.44,12.98s12.75,6.6,22.18,13.76c0,0-17.88,14.03-19.87,21.7l-10.33-2.58-1.95,28.02-25.41-1.95Z"/><g id="gold"><polygon class="cls-27" points="188.27 272.3 187.18 327.7 192.14 327.79 196.76 271.64 193.82 269.53 188.27 272.3"/><path class="cls-27" d="M193.07,219.84c-4.11-2.66-9.16-4.75-10.95-9.67.83,13.05,4.06,28,4.43,41.88.29,11.01.1,10.29.08,20.79,1.09-.66,3.86-1.23,7.43-2.57,0,0,1.47.61,3.12,1.36-1.18-9.49-2.31-11.62-2.16-23.65.13-10.83,1.73-18.2,2.91-26.91-.65.36-2.76.1-4.85-1.25Z"/><path class="cls-27" d="M179.37,200.61s-1.67,1.91.96,1.91c.46-2.28,5.18-5.16,6.7-7.27"/></g><path class="cls-17" d="M196.55,269.47c-2.51,1.87-5.4,2.61-8.21,3.57-2.82.93-5.68,1.76-8.57,2.53-2.89.72-5.81,1.39-8.79,1.82-2.62.31-5.6.95-8.06-.43-.36-.23-.72-.64-.76-1.09,0,0,.28-.1.28-.1.47.46,1.15.4,1.82.39,5.04-.38,10-1.64,14.91-2.92,2.86-.71,5.7-1.51,8.55-2.26,2.86-.75,5.62-1.77,8.74-1.77l.09.28h0Z"/><g id="Foreground_shoe"><path class="cls-22" d="M181.74,412.41l-2.15-20.95c.4-.09,7.91-.65,11.59-.53-.82,10.26-1.49,21.21-1.49,21.21l-7.95.28Z"/><path class="cls-16" d="M179.92,401.75l-.22-4.44c-.12-.9,11.04-.41,11.04-.41.59.44.47,6.35.47,6.35-.56,5.72,3.61,15.02,5.46,22.27.23.91,2.2,4.08,1.25,4.11-4.35.14-9.84-5.22-10.3-5.67l-12.46-12.25c-.53-.52-.67-1.31-.33-1.92.33-.58.68-1.18,1.05-1.77,1.98-3.15,1.94-4.21,4.02-6.27Z"/><path class="cls-17" d="M178.67,415.15l-3.49-3.43c-.53-.52-.67-1.31-.33-1.92.33-.58.68-1.18,1.05-1.77,1.39-2.21,2.54-4.55,4.02-6.21.78,2.67,1.97,8.37-1.25,13.34Z"/><path class="cls-17" d="M193.89,420.18c.63.37,1.22.84,1.76,1.35.44,1.74,3.12,4.65,3.57,6.38.23.91-.35,1.69-1.29,1.72-4.35.14-9.84-5.22-10.3-5.67l-2.11-2.07c2.62-2.64,5.38-3.49,8.36-1.72Z"/><path class="cls-17" d="M193.85,420.65c-1.44-.8-1.92-2.11-2.56-3.33-1.42-2.81-2.54-5.82-2.83-9-.09-1.13.1-2.41,1.01-3.19,0,0,.25.1.25.1.26,1.02.45,1.86.58,2.86.6,2.89,1.76,5.65,2.79,8.42.46,1.27,1.17,2.4,1,4.01l-.24.13h0Z"/><path class="cls-9" d="M191.58,408.64c-1.13.04-.85-.29-1.37-.55-.04-.01.11-.02.09-.1-.04-.07-.09.01-.81-.48l-.17-.2c-.29-.82.11-1.08.62-1.24.97-.38,2.12.43,2.32,1.31.08.34.35.64-.42,1.2l-.26.07h0Z"/><path class="cls-9" d="M193.03,414.03c-.94.09-.93-.17-1.16-.34-.28-.25-.5-.28-.62-.52-.33-.1-.39-.11-.93-.38-.54-.51-.3-1.34.57-1.53,1.09-.37,2.22.4,2.6,1.3.15.37.48.68-.2,1.38l-.25.1h0Z"/><path class="cls-9" d="M194.65,419.22c-.94-.04-.88-.29-1.06-.47-.16-.17-.31-.31-.36-.35-.07-.03.13-.02.12-.11-.04-.08-.12.04-.89-.4l-.18-.19c-.31-.82.09-1.12.66-1.32,1.06-.45,2.28.56,2.45,1.53.07.37.33.7-.46,1.25l-.26.06h0Z"/><path class="cls-7" d="M175.99,410.33l12.46,12.25c.45.45,5.94,5.81,10.3,5.67.19,0,.35-.05.51-.11.09.81-.46,1.46-1.32,1.49-4.35.14-9.84-5.22-10.3-5.67l-12.46-12.25c-.53-.52-.67-1.31-.33-1.92.25-.45.53-.91.81-1.37-.33.61-.2,1.39.33,1.91Z"/></g><path class="cls-21" d="M215.79,133.66l6.52.65s-.43,1.74-1.52,1.74-6.95-.43-6.95-.43l1.95-1.95Z"/></g></svg>