<?xml version="1.0" encoding="UTF-8"?><svg id="a" xmlns="http://www.w3.org/2000/svg" width="570" height="321" xmlns:xlink="http://www.w3.org/1999/xlink" viewBox="0 0 570 321"><defs><style>.aa{fill:none;}.aa,.ab,.ac,.ad,.ae,.af,.ag,.ah,.ai,.aj,.ak,.al,.am,.an,.ao,.ap,.aq,.ar,.as,.at,.au,.av,.aw,.ax,.ay,.az,.ba,.bb,.bc,.bd{stroke-width:0px;}.be{fill:#fff6d2;stroke:#77747a;stroke-miterlimit:10;}.bf{clip-path:url(#b);}.ac{fill:#f9afc4;}.ad{fill:#529e5d;}.ae{fill:#77747a;}.af{fill:#7c6248;}.ag{fill:#9b7b59;}.ah{fill:#94ad02;}.ai{fill:#302523;}.aj{fill:#394170;}.ak{fill:#443431;}.al{fill:#104e54;}.am{fill:#076009;}.an{fill:#23623c;}.ao{fill:#cbb898;}.ap{fill:#e01e34;}.aq{fill:#b35e5d;}.ar{fill:#333c3f;}.as{fill:#a0847c;}.at{fill:#664e49;}.au{fill:#802523;}.av{fill:#eda1c3;}.aw{fill:#fee697;}.ax{fill:#fff;}.ay{fill:#f06c00;}.az{fill:#ffd4e2;}.ba{fill:#ffb9ab;}.bb{fill:#ffd2c7;}.bc{fill:#eae4e4;}.bd{fill:#018058;}</style><clipPath id="b"><path class="aa" d="M558.116,171.719c-18.369,169.335-125.684,139.131-419.424,140.565C4.678,312.938,8.416,195.652,7.263,95.555,5.827-29.089,276.152,13.224,410.168,13.224s157.35,71.813,147.947,158.494Z"/></clipPath></defs><g class="bf"><rect id="c" class="be" width="570" height="321"/><g id="d"><g id="e"><path class="az" d="M124.043,102.25c12.895-1.239,25.759-2.843,38.688-3.668,24.962-1.592,50.114-.276,74.93-3.407,2.567-.324,5.382-.833,7.007-2.846,2.24-2.775.953-7.195-1.784-9.482s-6.431-2.979-9.954-3.532c-67.487-10.608-136.367.349-204.656-1.569-24.015-.675-48.246-2.932-71.926,1.121-3.507.6-7.111,1.39-9.979,3.495-9.203,6.755-.746,15.787,7.211,17.359,13.216,2.61,27.489,2.802,40.914,3.733,27.532,1.909,55.157,2.578,82.745,1.733,15.627-.478,31.239-1.441,46.803-2.937Z"/><path class="aw" d="M134.112,61.517c59.344,7.843,86.741,12.949,106.258-.149-7.735-4.953-17.464-5.221-26.648-5.33-45.169-.537-90.45-.991-135.393,3.552-1.63.165-3.84,1.492-2.865,2.807,22.703.996,45.477.382,68.094-1.836"/><path class="aw" d="M116.612,49.857c-8.86-2.714-17.937-4.646-27.001-6.574-3.817-.812-7.634-1.624-11.451-2.436-11.361-2.417-23.07-4.843-34.501-2.781-5.354.966-10.487,2.895-15.793,4.095-9.427,2.132-21.861,1.22-30.195,6.729s2.873,5.575,7.931,5.678c23.367.476,47.107,1.019,70.482.545,13.647-.277,27.345-1.558,40.527-5.256Z"/><path class="aw" d="M233.654,39.686c-8.86-2.714-17.937-4.646-27.001-6.574-3.817-.812-7.634-1.624-11.451-2.436-11.361-2.417-23.07-4.843-34.501-2.781-5.354.966-10.487,2.895-15.793,4.095-9.427,2.132-21.861,1.22-30.195,6.729s2.873,5.575,7.931,5.678c23.367.476,47.107,1.019,70.482.545,13.647-.277,27.345-1.558,40.527-5.256Z"/><path class="aw" d="M71.902,69.908c1.338-.177,1.357-2.119.024-2.328-9.229-1.45-18.594-2.607-27.948-3.764-4.996-.617-9.992-1.235-14.988-1.852-14.87-1.838-30.196-3.682-45.158-2.115-7.008.734-13.726,2.201-20.671,3.114-12.339,1.621-28.613.928-39.522,5.116-10.926,4.195,3.76,4.239,10.381,4.317,30.586.362,61.658.775,92.253.415,15.316-.18,30.681-.923,45.628-2.903Z"/><path class="ac" d="M82.999,111.124c2.947-.192,6.805.21,7.508,3.077-15.219,8.016-32.546,10.866-49.528,13.604-9.545,1.539-19.126,3.081-28.791,3.316-5.165.125-10.445-.145-15.27-1.991-5.488-2.1-16.639-12.262-10.197-18.787,4.453-4.51,20.355-.006,25.757.403,23.459,1.777,47.044,1.906,70.521.378Z"/></g><g id="f"><path class="am" d="M227.958,127.797c4.514-7.148-4.019-.895-2.569-6.677,2.694-8.199-2.28-1.759-4.653-5.432,1.718-.822,5.875-14.639-.504-8.347-2.444-5.495,5.416-11.733-5.889-8.249-.666.403,6.595-9.13.96-7.862-2.093,3.869-3.927,3.566-1.879-1.908-1.046-4.266-.81-.47.664-6.088.078-2.118-2.352-.55-2.352-.55.989-1.787-2.262-8.428-2.223-10.075-3.875,1.797.897,14.405-6.024,9.735-2,1.13.24,4.773,1.276,5.244-2.099.731-1.139,2.003-.47,4.248.693,2.483-6.976-.193-4.045,4.165,7.066,6.607-8.224-.809.302,8.451,1.018.545.36,2.021-1.084,1.985-13.745.977,2.914-5.101-4.636-7.495-8.389,3.999,3.882-4.415-1.911-5.642-6.701,1.819-.237-8.444-3.016-10.468-6.641,5.16-2.64-7.765-6.702-9.281-2.721,8.966-3.099,14.326-1.861,21.646-3.121-3.847-6.206-2.773-3.181,2.442,4.677,4.691-.794,1.911-3.819,1.829-.444,9.541-2.078,4.749-.213-2.13-.361-2.085-1.867.057-2.998-.082-5.779,1.069,1.509-2.543-.083-5.885-1.604-3.675-5.586,7.004-3.131-2.609.649-5.888-2.141-8.746-3.274-15.009-3.267,1.594.878,12.885-4.951,8.722-2.248,2.257,3.916,10.298-1.84,9.561-4.628,1.396,5.794,8.203-1.226,5.17-5.104.752,4.371,6.818-.525,6.855-7.179-1.551,3.788,6.401.118,8.73.22-9.931-8.339,1.324-3.279-13.159-1.573-3.642-11.513,4.522-5.332-2.96,3.097-6.169-.718-7.226-3.831-2.528-2.177-.902,4.432-17.078-1.359-13.047.444-5.262-4.903-19.007-4.265-4.698-1.104,11.987-7.672-1.989-5.388,8.682,4.74,13.093-6.196,4.267-3.514,11.28,7.602,9.326-2.62-1.286-2.467,5.666-2.722,3.725-.213-8.38.217-10.113.08-2.118-2.35-.551-2.35-.551,1.269-2.413-1.109-3.335-1.632-6.499-.033-8.325-3-.109-2.087,2.402-.883,10.255-6.769-1.536-4.702,7.573,4.731,10.37-9.011,3.783-.308,13.627-13.791-3.489,4.816,8.014-5.462,6.416-8.923,2.204,3.684-6.589-2.711-7.258-8.314,3.99,3.828-4.411-1.912-5.643-5.851,1.768-.481-4.382-3.912-5.148,3.315-2.002,1.327-8.171-1.991-3.525-2.205-2.407-.905-9.877-3.813-11.076-1.418,8.153-3.7,10.951-2.708,16.951,3.646,10.475-1.792-1.062-3.563,3.159-1.253,1.255,3.59,7.123,3.346,6.651-16.329-2.76,6.246,10.023-13.182,6.855,2.233-.985,4.163-12.238-1.188-4.513.977-7.598-.591-11.862-2.873-19.263-3.224,1.372.933,12.781-4.949,8.721,2.42,13.116-6.552,7.802-.355,15.654-9.894-3.444,3.579,7.719-6.179,6.224,1.061,1.227,4.389,6.232,3.713,6.896-1.933,3.948.525-3.831-2.114-3.921-9.138,4.474,5.437-14.225-9.35-7.421,2.991-1.409,5.811-14.892-1.629-5.763-2.194-1.173,4.548-16.653-1.358-13.048.473-1.969-2.119-9.716-2.55-11.547-4.417,1.797,1.126,16.401-6.903,11.158-2.97,2.643,5.162,13.697-2.59,12.218-4.377.905,1.267,6.351,2.036,7.775-5.31-4.576-8.528,7.783-6.073-2.698,1.004-2.363-1.131-1.229-.998-1.868.993-.574,3.241-7.347-.688-4.771-3.224-19.078-2.591-7.813-5.238,1.246-6.269-5.041-1.642,3.869-3.077,5.187,4.049,6.807-5.741,1.348-3.173,6.884,6.828,8.087-2.428-1.087-2.152,4.943-.459,2.052,5.633,4.63,1.372,5.494-1.336-.934-6.966,1.333-5.052-1.767,7.862-9.906-6.87-1.308-.302-8.45,2.563-4.591-4.708-1.3-4.334-3.864,1.671-19.47-.774,2.455-6.575-18.805-1.951,9.714-4.004,11.173-1.866,21.646-6.91-8.11-3.89,4.145-1.061,5.114-11.799-2.537-3.17,2.84-5.283,8.653-2.341-3.093-4.523-.644-2.983,3.491,1.069,3.88,5.399,4.817,1.089,6.593-6.022-3.615-1.282,4.956-2.215,7.057-4.322-2.863-4.363,6.816-3.652,9.157,23.059,18.48,23.001-3.189,37.212,4.163,20.724,8.133,42.753-7.477,61.192-17.261,10.337,9.612,18.726-8.816,27.498-1.051,14.597,6.066,37.716-1.459,49.631-12.162,21.854,12.116,15.243,5.757,33.659,1.712,6.614,9.237,36.93-1.23,27.302-9.86ZM21.293,136.81c2.699-.963,3.271,5.847,2.12,6.318-3.971.6-4.226-1.539-2.12-6.318ZM40.912,124.362c2.018,2.024-1.539.762-2.341,1.723-.692,1.154,1.523-3.083,2.341-1.723ZM64.047,137.24c.955-1.947,1.646-.021,1.386,1.486-.889-.522-1.386-1.486-1.386-1.486ZM88.007,126.001s-.218.49-.636.95c.28-.517.116-1.787.636-.95ZM84.391,119.805c.061-1.002,1.542,3.145.51,3.462-.378-.842-.904-2.555-.51-3.462ZM109.983,118.495c2.7-.962,3.271,5.847,2.12,6.318-3.971.599-4.226-1.539-2.12-6.318ZM129.602,106.047c2.018,2.024-1.539.762-2.341,1.723-.692,1.154,1.523-3.082,2.341-1.723ZM152.737,118.925c.955-1.947,1.646-.021,1.386,1.486-.889-.522-1.386-1.486-1.386-1.486ZM197.065,109.816c2.699-.963,3.271,5.847,2.12,6.318-3.971.6-4.226-1.539-2.12-6.318Z"/><path class="am" d="M507.184,88.921c4.767-6.981-3.985-1.038-2.328-6.765,2.986-8.097-2.216-1.839-4.456-5.595,1.747-.76,6.396-14.419-.204-8.36-2.246-5.579,5.833-11.531-5.59-8.454-.68.379,6.918-8.888,1.241-7.823-2.231,3.792-4.052,3.423-1.809-1.974-.893-4.301-.793-.499.882-6.06.154-2.114-2.33-.634-2.33-.634,1.052-1.751-1.958-8.504-1.86-10.148-3.937,1.657.38,14.428-6.369,9.513-2.039,1.057.069,4.778,1.087,5.286-2.124.655-1.21,1.961-.622,4.228.604,2.507-6.965-.442-4.191,4.017,6.825,6.856-8.19-1.103-.001,8.457.998.581.287,2.032-1.154,1.945-13.771.484,3.095-4.994-4.364-7.656-8.527,3.696,4.038-4.273-1.708-5.707-6.762,1.578.066-8.447-2.639-10.57-6.822,4.919-2.36-7.855-6.365-9.515-3.04,8.863-3.61,14.206-2.635,21.565-2.981-3.957-6.102-2.994-3.266,2.327,4.505,4.855-.862,1.881-3.882,1.691-.785,9.518-2.247,4.672-.136-2.136-.286-2.097-1.868-.01-2.993-.19-5.814.861,1.6-2.487.127-5.884-1.471-3.73-5.833,6.8-3.035-2.719.86-5.861-1.826-8.817-2.734-15.117-3.322,1.476.416,12.909-5.261,8.539-2.327,2.175,3.545,10.431-2.181,9.489-4.675,1.229,5.496,8.405-1.41,5.123-5.128.569,4.124,6.97-.77,6.831-7.119-1.807,3.557,6.533-.195,8.728.576-9.916-8.382,1.025-2.805-13.268-1.442-3.696-11.667,4.106-5.222-3.149,3.316-6.054-.459-7.247-3.738-2.664-2.143-.979,5.041-16.908-.89-13.088.633-5.243-4.219-19.17-4.094-4.848-1.532,11.94-7.596-2.262-5.696,8.484,4.268,13.255-6.345,4.042-3.916,11.147,7.263,9.592-2.573-1.379-2.668,5.574-2.853,3.625.087-8.382.579-10.099.155-2.114-2.329-.634-2.329-.634,1.355-2.366-.989-3.373-1.398-6.553.266-8.321-2.994-.216-2.172,2.326-1.25,10.217-6.71-1.777-4.971,7.399,4.357,10.533-9.14,3.458-.796,13.607-13.657-3.981,4.526,8.182-5.688,6.216-8.996,1.883,3.918-6.453-2.449-7.351-8.452,3.69,3.984-4.271-1.708-5.708-5.911,1.558-.324-4.397-3.726-5.285,3.385-1.882,1.619-8.118-1.863-3.594-2.117-2.484-.55-9.903-3.414-11.206-1.709,8.097-4.09,10.811-3.314,16.843,3.268,10.599-1.753-1.126-3.674,3.029-1.297,1.209,3.332,7.247,3.105,6.766-16.22-3.344,5.883,10.24-13.419,6.378,2.267-.905,4.599-12.081-1.026-4.553,1.248-7.558-.166-11.875-2.181-19.354-3.271,1.256.475,12.807-5.259,8.538,1.948,13.194-6.827,7.562-.915,15.631-9.764-3.796,3.3,7.842-6.398,5.998,1.017,1.264,4.163,6.385,3.464,7.025-2.073,3.876.662-3.809-1.972-3.995-9.293,4.144,5.943-14.021-9.078-7.751,3.039-1.301,6.34-14.674-1.421-5.818-2.151-1.251,5.141-16.479-.89-13.088.543-1.95-1.769-9.786-2.135-11.631-4.479,1.637.538,16.431-7.299,10.903-3.063,2.535,4.668,13.873-3.026,12.118-4.406.748,1.039,6.393,1.756,7.842-5.143-4.763-8.801,7.473-5.973-2.914,1.088-2.326-1.086-1.269-.931-1.903,1.013-.538,3.502-7.226-.517-4.793-2.539-19.181-2.31-7.901-5.279,1.058-6.084-5.262-1.78,3.808-3.26,5.073,3.803,6.948-5.786,1.142-3.418,6.766,6.534,8.327-2.387-1.173-2.328,4.863-.532,2.034,5.464,4.829,1.174,5.539-1.302-.982-7.009,1.083-4.986-1.947,8.212-9.618-6.818-1.553.001-8.455,2.726-4.496-4.659-1.468-4.193-4.017,2.368-19.397-.862,2.425-5.897-19.029-2.298,9.638-4.401,11.022-2.64,21.565-6.615-8.352-4.036,4.003-1.244,5.072-11.7-2.958-3.269,2.725-5.589,8.458-2.229-3.175-4.497-.806-3.106,3.382.929,3.915,5.223,5.007.852,6.627-5.889-3.828-1.459,4.907-2.466,6.973-4.217-3.016-4.604,6.655-3.977,9.02,22.382,19.294,23.101-2.363,37.039,5.494,20.419,8.871,42.994-5.94,61.771-15.058,9.986,9.977,19.029-8.14,27.518-.066,14.37,6.585,37.744-.107,50.035-10.376,21.406,12.891,15.027,6.299,33.577,2.916,6.279,9.468,36.951.094,27.638-8.875ZM320.381,78.788c1.944,2.095-1.566.707-2.401,1.638-.733,1.129,1.632-3.026,2.401-1.638ZM343.04,92.487c1.024-1.912,1.646.038,1.332,1.534-.87-.553-1.332-1.534-1.332-1.534ZM367.387,82.114s-.235.482-.67.927c.298-.507.18-1.782.67-.927ZM363.995,75.792c.097-.999,1.428,3.198.385,3.478-.347-.855-.812-2.586-.385-3.478ZM389.617,75.399c2.732-.865,3.059,5.96,1.892,6.389-3.99.457-4.168-1.69-1.892-6.389ZM409.67,63.662c1.944,2.095-1.566.707-2.401,1.638-.733,1.129,1.632-3.026,2.401-1.638ZM432.329,77.361c1.024-1.912,1.646.038,1.332,1.534-.87-.553-1.332-1.534-1.332-1.534ZM476.955,69.846c2.732-.865,3.059,5.96,1.892,6.389-3.99.457-4.168-1.69-1.892-6.389Z"/><path class="am" d="M731.281,76.792c4.767-6.981-3.985-1.038-2.328-6.765,2.986-8.097-2.216-1.839-4.456-5.595,1.747-.76,6.396-14.419-.204-8.36-2.246-5.579,5.833-11.531-5.59-8.454-.68.379,6.918-8.888,1.241-7.823-2.231,3.792-4.052,3.423-1.809-1.974-.893-4.301-.793-.499.882-6.06.154-2.114-2.33-.634-2.33-.634,1.052-1.751-1.958-8.504-1.86-10.148-3.937,1.657.38,14.428-6.369,9.513-2.039,1.057.069,4.778,1.087,5.286-2.124.655-1.21,1.961-.622,4.228.604,2.507-6.965-.442-4.191,4.017,6.825,6.856-8.19-1.103-.001,8.457.998.581.287,2.032-1.154,1.945-13.771.484,3.095-4.994-4.364-7.656-8.527,3.696,4.038-4.273-1.708-5.707-6.762,1.578.066-8.447-2.639-10.57-6.822,4.919-2.36-7.855-6.365-9.515-3.04,8.863-3.61,14.206-2.635,21.565-2.981-3.957-6.102-2.994-3.266,2.327,4.505,4.855-.862,1.881-3.882,1.691-.785,9.518-2.247,4.672-.136-2.136-.286-2.097-1.868-.01-2.993-.19-5.814.861,1.6-2.487.127-5.884-1.471-3.73-5.833,6.8-3.035-2.719.86-5.861-1.826-8.817-2.734-15.117-3.322,1.476.416,12.909-5.261,8.539-2.327,2.175,3.545,10.431-2.181,9.489-4.675,1.229,5.496,8.405-1.41,5.123-5.128.569,4.124,6.97-.77,6.831-7.119-1.807,3.557,6.533-.195,8.728.576-9.916-8.382,1.025-2.805-13.268-1.442-3.696-11.667,4.106-5.222-3.149,3.316-6.054-.459-7.247-3.738-2.664-2.143-.979,5.041-16.908-.89-13.088.633-5.243-4.219-19.17-4.094-4.848-1.532,11.94-7.596-2.262-5.696,8.484,4.268,13.255-6.345,4.042-3.916,11.147,7.263,9.592-2.573-1.379-2.668,5.574-2.853,3.625.087-8.382.579-10.099.155-2.114-2.329-.634-2.329-.634,1.355-2.366-.989-3.373-1.398-6.553.266-8.321-2.994-.216-2.172,2.326-1.25,10.217-6.71-1.777-4.971,7.399,4.357,10.533-9.14,3.458-.796,13.607-13.657-3.981,4.526,8.182-5.688,6.216-8.996,1.883,3.918-6.453-2.449-7.351-8.452,3.69,3.984-4.271-1.708-5.708-5.911,1.558-.324-4.397-3.726-5.285,3.385-1.882,1.619-8.118-1.863-3.594-2.117-2.484-.55-9.903-3.414-11.206-1.709,8.097-4.09,10.811-3.314,16.843,3.268,10.599-1.753-1.126-3.674,3.029-1.297,1.209,3.332,7.247,3.105,6.766-16.22-3.344,5.883,10.24-13.419,6.378,2.267-.905,4.599-12.081-1.026-4.553,1.248-7.558-.166-11.875-2.181-19.354-3.271,1.256.475,12.807-5.259,8.538,1.948,13.194-6.827,7.562-.915,15.631-9.764-3.796,3.3,7.842-6.398,5.998,1.017,1.264,4.163,6.385,3.464,7.025-2.073,3.876.662-3.809-1.972-3.995-9.293,4.144,5.943-14.021-9.078-7.751,3.039-1.301,6.34-14.674-1.421-5.818-2.151-1.251,5.141-16.479-.89-13.088.543-1.95-1.769-9.786-2.135-11.631-4.479,1.637.538,16.431-7.299,10.903-3.063,2.535,4.668,13.873-3.026,12.118-4.406.748,1.039,6.393,1.756,7.842-5.143-4.763-8.801,7.473-5.973-2.914,1.088-2.326-1.086-1.269-.931-1.903,1.013-.538,3.502-7.226-.517-4.793-2.539-19.181-2.31-7.901-5.279,1.058-6.084-5.262-1.78,3.808-3.26,5.073,3.803,6.948-5.786,1.142-3.418,6.766,6.534,8.327-2.387-1.173-2.328,4.863-.532,2.034,5.464,4.829,1.174,5.539-1.302-.982-7.009,1.083-4.986-1.947,8.212-9.618-6.818-1.553.001-8.455,2.726-4.496-4.659-1.468-4.193-4.017,2.368-19.397-.862,2.425-5.897-19.029-2.298,9.638-4.401,11.022-2.64,21.565-6.615-8.352-4.036,4.003-1.244,5.072-11.7-2.958-3.269,2.725-5.589,8.458-2.229-3.175-4.497-.806-3.106,3.382.929,3.915,5.223,5.007.852,6.627-5.889-3.828-1.459,4.907-2.466,6.973-4.217-3.016-4.604,6.655-3.977,9.02,22.382,19.294,23.101-2.363,37.039,5.494,20.419,8.871,42.994-5.94,61.771-15.058,9.986,9.977,19.029-8.14,27.518-.066,14.37,6.585,37.744-.107,50.035-10.376,21.406,12.891,15.027,6.299,33.577,2.916,6.279,9.468,36.951.094,27.638-8.875ZM544.478,66.658c1.944,2.095-1.566.707-2.401,1.638-.733,1.129,1.632-3.026,2.401-1.638ZM567.137,80.357c1.024-1.912,1.646.038,1.332,1.534-.87-.553-1.332-1.534-1.332-1.534ZM591.484,69.984s-.235.482-.67.927c.298-.507.18-1.782.67-.927ZM588.092,63.663c.097-.999,1.428,3.198.385,3.478-.347-.855-.812-2.586-.385-3.478ZM613.714,63.269c2.732-.865,3.059,5.96,1.892,6.389-3.99.457-4.168-1.69-1.892-6.389ZM633.767,51.532c1.944,2.095-1.566.707-2.401,1.638-.733,1.129,1.632-3.026,2.401-1.638ZM656.426,65.231c1.024-1.912,1.646.038,1.332,1.534-.87-.553-1.332-1.534-1.332-1.534ZM701.052,57.716c2.732-.865,3.059,5.96,1.892,6.389-3.99.457-4.168-1.69-1.892-6.389Z"/><path class="an" d="M284.983,117.127c-.128-.759-1.924-.569-1.924-.569,0,0,1.539-2.182,1.026-3.321-.513-1.139-2.9-.032-2.9-.032,0,0-.178-1.391-.05-2.72.128-1.328,1.411-3.321.257-4.459-.433-.427-1.586.986-2.244.92-1.097-.109-1.692-1.484-1.692-1.484,0,0,2.006-2.689,2.397-4.465.318-1.443.257-3.226.257-3.226,0,0-.257-1.328-.898-1.328s-1.924,1.518-1.924,1.518l-.641-2.087.257-1.392s1.406-2.876,1.197-4.111c-.086-.506-.257-.886-.556-.949-.684-.145-1.667.949-2.437.759-.77-.19-1.796-.38-2.437.19-.641.569,1.154-1.139,1.667-2.467.513-1.328,1.411-2.657.898-3.605-.513-.949-.77-1.518-1.539-.949-.77.569-1.018,2.467-2.052,2.467-.599,0-.342-2.151.556-4.238s-.898-1.139-.77-1.708c.128-.569,1.368-1.834,1.497-3.732.128-1.898-1.924-.569-1.924-.569,0,0,.513-1.708.257-2.467-.257-.759-1.411-1.328-1.411-3.416s.257-3.226-.385-3.226-1.154,0-1.154,1.328-.385,3.416-.257,3.985-.385,1.138-.641,2.087c-.257.949-.77,2.656-.77,2.656,0,0-1.668-1.898-2.437-1.518-.77.38-.898,2.657-.257,3.416.641.759,1.154,1.328,1.154,1.328,0,0-1.283.569-1.154,1.328.128.759.257.949.641,2.467.385,1.518-1.539.949-2.565.949s-1.796,1.518-.898,2.657c.78.989,1.754,2.98,2.164,3.485-.448-.229-1.707-.731-2.677-1.018-1.283-.38-1.411.949-1.411,1.898s1.026,2.657,1.924,3.226c.898.569.128,2.087-1.283,1.708-1.411-.379-2.694-.379-2.95.19-.257.569,2.042,2.478,2.199,2.803,1.118,2.316,1.264,4.218,1.264,4.218l-.705,1.518s-2.886.19-3.912.19-1.283,3.605.385,4.364c1.667.759,1.154,1.898,1.154,3.036s-2.052.759-2.565,1.708c-.513.949-.4,3.658.257,4.364.706.759,1.347,2.277,1.988,3.416.339.601,1.475,1.708,3.271,2.277,1.796.569,3.078,1.708,3.078,1.708,0,0,2.763,2.467,6.285,2.467.898,0,1.539.759,4.618-.379,1.07-.396,2.95-2.657,2.95-2.657,0,0,3.463-.949,4.233-1.708.77-.759,3.078-2.657,3.078-2.657,0,0,.641-3.416.513-4.175Z"/></g><path id="g" class="am" d="M588.017,92.379c-10.997-.105-21.994-.182-32.991-.224-44.701-.173-89.409.219-134.091,1.606-89.424,2.777-178.86,9.538-267.223,23.867-49.487,8.025-98.606,18.427-146.944,31.755-3.839,1.058-7.922,2.292-10.45,5.369-2.624,3.193-2.967,7.626-3.197,11.752-1.917,34.455-3.787,69.487,4.226,103.052,1.202,5.036,2.759,10.259,6.428,13.911,6.293,6.264,16.397,5.879,25.239,5.069,110.169-10.093,220.339-20.187,330.508-30.28,80.024-7.332,104.502-4.463,182.46-23.957,5.516-1.379,8.197-7.579,12.279-11.536,5.535-5.365,12.035-17.573,12.837-25.239,2.037-19.466,5.777-40.043,7.814-59.509"/><path id="h" class="ad" d="M1.592,321.472h570V104.303c-5.949.654-11.902,1.585-17.349,2.046-11.513.973-25.475-4.661-36.958-3.38-46.342,5.168-100.492,6.786-146.019,16.862-45.53,10.077-113.758,14.781-157.969,29.61-44.21,14.828-99.786,24.878-142.178,44.304-39.457,18.081-32.072,8.617-69.527,30.548v97.179Z"/><g id="i"><path class="ae" d="M569.987,106.121c-12.089,2.23-24.42,3.121-36.665,4.01-12.18.891-24.339,1.698-36.491,2.438-145.684,7.521-290.45,36.561-427.142,87.697-22.883,8.358-45.786,16.875-69.269,24.25l-.78-1.742c21.17-12.589,43.15-23.545,65.643-33.462,67.948-28.737,139.316-49.298,211.447-64.512,60.247-12.42,121.418-20.054,182.819-23.305,24.545-1.386,49.153-1.924,73.71-.432,12.258.8,24.443,1.969,36.695,3.148,0,0,.033,1.909.033,1.909h0Z"/><path class="ae" d="M149.291,168.846c-2.331,2.682-5.743,4.332-8.908,5.698-9.05,3.752-18.751,4.08-28.314,5.179-25.287,2.383-50.619,2.605-75.937.202-12.846-1.303-26.473-2.295-37.084-10.573,0,0,.425-1.861.425-1.861,9.29-2.26,18.778-2.326,28.22-1.826,30.896.779,61.921.293,92.837-.334,9.361-.612,18.676-.157,27.891,1.815,0,0,.868,1.699.868,1.699h0Z"/></g><path id="j" class="ah" d="M45.44,328.426c36.857-2.914,73.714-5.827,110.572-8.741,6.666-.527,19.489,1.426,24.73-2.707-24.162-25.47-61.319-38.489-94.025-48.19-18.813-5.58-37.96-9.532-57.271-12.556,0,0,15.993,72.193,15.993,72.193Z"/></g><g id="k"><path class="ai" d="M477.763,135.984l-24.137-10.199-1.578-3.517c-.783-1.745-2.833-2.526-4.578-1.743l-3.052,1.369-6.318-2.67c-1.272-.538-2.74.058-3.277,1.33l-2.943,6.964-56.54,25.366.487,1.085-1.274-.069-.683,12.53,100.873,5.5v37.373l-8.785,4.592,5.207-21.723-12.202-2.925-91.561-12.66-23.526,58.63c-1.67,4.381.528,9.286,4.909,10.956l3.792,1.445,8.565-22.47c.275-.722,1.347-.525,1.347.248v15.838h12.548v-24.953l73.726,15.512-7.699,32.12,12.202,2.925,7.781-32.46.075.016.562-2.673.393-1.638,12.665-6.62v41.913h12.548v-127.315c0-1.04-.843-1.884-1.884-1.884h-6.691c-.328,0-.652-.066-.954-.193ZM400.569,155.319l43.999-19.74,30.176,12.751v11.033l-74.175-4.044Z"/><path class="al" d="M465.619,194.833c-.317,6.021-1.749,11.796-2.926,17.627-1.194,5.828-2.462,11.639-3.719,17.452-1.305,5.803-2.604,11.607-3.97,17.397-1.359,5.791-2.571,11.615-4.743,17.227l-.287-.063c1.075-11.813,4.356-23.449,6.645-35.079,1.303-5.804,2.594-11.61,3.961-17.399,1.383-5.786,2.511-11.628,4.753-17.224l.287.063h0Z"/><path class="al" d="M482.94,262.4c-1.799-20.504-1.209-41.067-1.624-61.621-.041-15.412-.096-30.826.24-46.238.183-4.812.356-9.681,1.093-14.451.054-.287.116-.585.22-.86.042-.046.01-.119.205-.188l.023.293c.118-.033.062-.023.068.002l-.017.101c-.084.937-.011,2.613-.002,3.576.465,15.765.369,41.743.581,57.75,0,0,.117,30.811.117,30.811-.009,10.271.252,20.539-.611,30.821l-.294.004h0Z"/><path class="al" d="M375.068,212.036c6.537.339,12.843,1.795,19.202,2.996,6.356,1.217,12.696,2.51,19.039,3.791,6.333,1.329,12.667,2.653,18.987,4.043,6.322,1.383,12.674,2.619,18.828,4.818l-.059.288c-12.95-1.136-25.494-4.439-38.241-6.787-6.333-1.327-12.669-2.643-18.989-4.033-6.317-1.407-12.686-2.559-18.825-4.828l.059-.288h0Z"/><path class="al" d="M471.132,192.315c-4.143-.628-8.258-1.42-12.361-2.261-6.695-.62-14.364-1.636-21.378-2.461-10.694-1.286-32.203-3.964-42.885-5.331,0,0-21.426-2.798-21.426-2.798l1.173-.689c-2.784,6.759-9.167,22.655-12.1,29.117-1.42,3.205-2.899,6.386-4.452,9.538l-.273-.109c1.056-3.351,2.187-6.672,3.376-9.969,2.489-7.078,8.891-23.005,11.696-30.201,0,0,.86.106.86.106l21.445,2.646c10.687,1.348,32.182,4.129,42.856,5.557,7.138.966,14.286,1.845,21.404,2.966,2.051.544,4.092,1.133,6.13,1.73,2.008.601,4.012,1.212,6.002,1.875,0,0-.068.286-.068.286h0Z"/><path class="al" d="M478.717,136.324c-8.607-2.11-17.184-5.135-25.726-7.739,0,0-.165-.28-.165-.28l-1.927-3.253c-.245-.526-.631-.985-1.144-1.254-1.11-.667-2.307-.133-3.344.402,0,0-1.994.92-1.994.92l-.41.189-.42-.208-4.518-2.235c-.567-.232-1.147-.735-1.797-.589-.671.119-.958.512-1.238,1.079,0,0-3.308,4.753-3.308,4.753l-.161.232-.262.118-56.485,25.488.586-1.539c.294.624.976,2.182,1.276,2.827,0,0-1.915-.1-1.915-.1l-1.273-.067,1.232-1.104-.656,12.531-1.13-1.26,100.863,5.695.955.054-.008.946c-.071,6.41-.147,21.788-.325,28.03-.073,3.214-.104,6.429-.215,9.644-3.058,1.476-6.102,2.979-9.178,4.422l-.136-.26c2.862-1.657,5.755-3.256,8.634-4.879l-.253.417c-.104-3.114-.134-6.229-.205-9.343-.178-6.134-.259-21.646-.325-28.03,0,0,.947,1,.947,1l-100.884-5.305-1.198-.063.068-1.197.71-12.528.066-1.171c.609.034,1.829.104,2.439.138,0,0-1.128,1.643-1.128,1.643l-.484-1.086-.475-1.066,1.061-.473,56.594-25.245-.423.35,3.332-4.736-.103.187c.46-1.099,1.513-1.925,2.689-2.096,1.062-.211,2.065.264,2.971.767,0,0,4.533,2.329,4.533,2.329l-.83-.019,2.013-.877c.686-.266,1.563-.759,2.33-.802,1.855-.221,3.746.863,4.477,2.577-.23-.438,1.895,3.306,1.842,3.195,0,0-.462-.376-.462-.376,8.03,2.821,16.042,5.699,23.997,8.729.278.131.582.212.895.225v.294h0Z"/><path class="al" d="M400.425,155.346c14.185-6.848,29.276-14.357,43.7-20.755,0,0,.426-.193.426-.193l.439.184,30.223,12.64.737.308-.002.8c.017.661-.047,11.967-.035,12.274-24.843-1.383-50.661-3.286-75.487-5.259h0ZM400.713,155.292c24.441.781,49.789,1.609,74.094,2.901,0,0-1.235,1.17-1.235,1.17l-.031-11.033.735,1.108-30.129-12.861.865-.009c-14.443,6.554-29.628,12.551-44.297,18.725h0Z"/><path class="ad" d="M458.642,255.588c-1.938.304-3.962,6.657-3.962,6.657,0,0-1.596.965-2.051-3.968-.455-4.933-2.255-6.796-2.218-4.021.037,2.774-.307,10.215-.307,10.215,0,0-3.717.105-3.952-.89-.235-.996,1.186-2.569,1.392-3.792.206-1.224-.783-.433-1.596.965-.814,1.398-1.285,3.458-1.947,3.8-.661.342-2.394-.578-2.394-.578,0,0-.577-1.657-1.702-2.752-1.125-1.095-1.832-.031-1.832-.031,0,0,1.521-2.462,2.517-2.698s.821-.843.639-2.006c-.182-1.163-7.921,5.212-7.921,5.212,0,0,.646-1.452.806-1.953.16-.502,1.354-2.515,1.855-2.356.502.16.646-1.452.145-1.611-.458-.146-5.171,2.955-5.981,3.492.367-.256,1.355-1.044.843-1.813-.623-.935-.417-2.159-.417-2.159,0,0-.342-.661-1.383.296-1.042.957-3.186,6.536-3.186,6.536,0,0-.524-1.824.214-4.72.738-2.896.966-2.455,1.126-2.956.16-.502-.836-.266-.836-.266l-2.904,2.758-1.497.076.251-1.946s.198-1.779-.144-2.44-2.805,1.869-2.805,1.869c0,0-2.289,3.138-5.16-4.037-.782-1.955-4.052,4.05-4.052,4.05,0,0-3.255,5.593-3.672,3.434-.417-2.159,0,0,.419-1.892.419-1.892.837-3.785.822-4.895-.015-1.11-.463-1.437-.463-1.437,0,0-1.376.851-1.414,2.128-.038,1.277-4.342,7.273-4.342,7.273l1.226-7.897c.32-1.003-1.665.022-1.665.022l-3.278,7.98-1.611-.145s-.197-2.273.982-5.396c.025-.067.049-.134.074-.2.469-.818.793-1.365.793-1.365,0,0,1.718-.19,1.422-1.573-.068-.32-.526-.318-1.186-.129.473-1.61.62-2.569.107-1.688-.186.321-.622,1.087-1.181,2.075-2.317.968-5.577,2.955-5.577,2.955,0,0-.25-2.105.89-3.952,1.141-1.847.609-4.226-.394-4.545s-2.084,5.966-3.21,8.922c-.693,1.819-1.431,3.342-2.113,4.521l-1.924.639s3.978-9.598,3.902-11.096c-.076-1.497-.798-1.543-.798-1.543,0,0-.722-.046-1.536,1.353-.814,1.398-4.022,6.269-4.022,6.269,0,0-.258-2.66.648-5.503.905-2.842.192-6.384.192-6.384,0,0-.722-.046-1.262,1.071-.54,1.117-2.565,11.522-2.565,11.522,0,0-1.962,2.69-2.744,2.257-.783-.433,2.7-5.586,2.464-6.581-.167-.708-4.167,3.601-6.664,6.153.755-3.729,1.698-7.928,1.998-9.836.537-3.42-2.874,2.952-2.874,2.952l-2.316,7.273-3.086-12.861s-.655,3.272-1.269,7.14c-1.485-5.878-4.067-11.36-4.179-9.981-.064.788-.219,2.392-.402,4.398-.742.424-1.435,1.37-1.435,1.37,0,0-.42-6.487-.454-8.984s-1.585-.228-1.585-.228c0,0-.047.667-.124,1.755l-.092-5.415s-1.425-.73-2.075.444c-.345.622-.373,3.907-.323,6.856l-2.334,1.757.227-3.586s-.513-.992-1.243.433c-.42.82-.821,3.016-1.086,4.735l-2.735,2.059c-.113-2.246,7.209-14.831,5.647-13.395s-11.917,11.398-11.655,12.31c0,0-2.636,8.276-2.09,11.765.445,2.841.166,1.054,3.83-2.681-.272.923-.67,2.051-1.322,3.48-2.749,6.03,8.858,2.545,9.61,2.784.528.168,5.438.236,8.321.262.046,1.747.229,2.87.628,2.864,0,0,2.556,1.411,4.328-.594,1.103,1.551,3.883.819,5.608.16,12.754,3.474,86.083,16.909,86.68,16.09.654-.897,3.883-24.914,1.945-24.61ZM351.695,247.506l.055-.867c1.201-1.522,2.025-2.854,2.554-3.829.05,2.159.128,3.91.128,3.91l-2.736.786Z"/></g><g id="l"><g id="m"><path class="ay" d="M363.618,187.459c-.272.12-.561.257-.707.517-.271.483.103,1.076.518,1.443,1.196,1.057,2.815,1.476,4.38,1.786,1.928.382,3.878.651,5.837.805,1.31.103,2.797.09,3.715-.85,2.292-2.349-1.043-6.907-3.727-7.157-1.358-.127-2.954.757-4.2,1.187-1.969.68-3.91,1.431-5.816,2.27Z"/><path class="at" d="M371.437,170.819c-4.055,1.001-9.132,2.431-3.933,9.27,8.93,11.746,16.588,24.489,22.223,38.126.483,1.169,1.04,2.442,2.173,3.004.734.364,1.59.362,2.408.334,3.544-.123,7.076-.588,10.531-1.389-2.022-8.679-5.336-17.055-9.798-24.768,17.435,1.342,27.266,1.589,36.883-7.474.308-.291.626-.611.717-1.025.127-.575-.215-1.139-.551-1.624-6.139-8.873-17.222-19.507-28.865-17.987-3.606.471-30.413,3.193-31.789,3.533Z"/><path class="ab" d="M364.616,187.69c-.549.208-.554.978-.012,1.202,7.221,2.988,15.252,4.002,22.988,2.881,1.828-.265,3.84-.61,5.404.373.824.518,1.4,1.341,1.932,2.156,7.336,11.253,10.542,25.331,20.249,34.615.949.908,1.999,1.835,2.338,3.104.256.962.058,1.989-.267,2.93-2.262,6.554-9.857,9.635-13.612,15.464-.564.875-1.087,1.858-2.01,2.34-.672.351-1.46.382-2.218.405-2.779.084-5.557.168-8.336.252-1.855-1.767-.829-4.973.9-6.864,1.728-1.891,4.078-3.342,5.059-5.709,1.1-2.657.157-5.673-.789-8.388-4.048-11.617-9.033-24.339-20.043-29.826-4.778-2.381-10.438-3.213-13.624-8.15-1.449-2.245-1.546-5.181.076-7.304,2.006-2.625,8.11-2.677,8.11-2.677l.327.457s-4.925,2.155-6.47,2.74Z"/></g><g id="n"><ellipse class="ay" cx="378.029" cy="221.563" rx="4.098" ry="4.788" transform="translate(-58.336 261.335) rotate(-35.582)"/><path class="at" d="M392.453,212.108c-3.621,2.681-7.243,5.362-10.868,8.038-5.486,4.049-10.981,8.086-16.498,12.092-6.259,4.545-12.548,9.051-18.958,13.38,3.078,3.495,6.156,6.989,9.234,10.484,26.959-13.27,53.919-26.541,80.878-39.811-2.62-5.476-4.651-11.153-6.342-16.977-1.292-4.452-2.539-8.229-7.98-7.479-5.152.71-9.982,5.849-13.972,8.803-5.164,3.823-10.328,7.646-15.493,11.47Z"/><path class="ab" d="M378.362,218.013c-1.475-.594-3.89-.254-3.704,1.325.053.452.343.836.622,1.196,4.967,6.407,9.909,12.834,14.825,19.28.517.678,1.056,1.418,1.078,2.27.034,1.331-1.202,2.351-2.438,2.848-.687.276-1.417.465-2.113.717-.854.309-1.815.147-2.524-.42-.91-.727-2.189-1.051-3.376-.959-1.719.134-3.298.956-4.823,1.761-2.539,1.342-5.078,2.684-7.617,4.026-1.619.856-3.266,1.731-4.556,3.031-1.214,1.223-2.058,2.767-3.217,4.042-1.813,1.994-4.411,3.237-7.092,3.466-.918.078-1.849-.312-2.382-1.064-.419-.591-1.165-.997-1.905-1.088-1.12-.137-2.229.245-3.316.55-5.454,1.529-11.423,1.147-16.637-1.065-2.632-1.116-5.259-2.926-6.037-5.678-.145-.512-.209-1.098.083-1.543.246-.374.688-.562,1.11-.712,3.968-1.406,8.302-1.231,12.448-1.957,9.939-1.741,18.161-8.477,25.883-14.973,1.746-1.468,3.617-3.159,3.884-5.425.222-1.882-.728-3.867-.044-5.634.442-1.141,1.484-1.936,2.549-2.539,2.354-1.334,5.023-2.026,7.7-2.423,1.57-.233,3.228-.359,4.695.248.694.287,1.851,1.58,1.851,1.58l-1.724,1.273s-2.249-1.741-3.222-2.133Z"/><path class="ak" d="M413.998,195.678c.156-1.235.888-1.484,1.491-1.955.614-.452,1.246-.872,1.9-1.255.655-.382,1.338-.715,2.031-1.031.695-.313,1.314-.755,2.43-.348l.148.254c-.193,1.172-.882,1.495-1.496,1.946-.616.449-1.241.88-1.895,1.263-.654.382-1.331.727-2.026,1.04-.706.294-1.282.81-2.435.34l-.148-.254h0Z"/></g><g id="o"><path class="at" d="M404.717,174.638c1.806,2.676,3.56,5.413,5.791,7.747,4.18,4.374,9.851,7.142,13.851,11.681,4.12,4.675,6.104,10.79,8.743,16.436,2.639,5.645,6.465,11.317,12.363,13.329.379-2.648,2.952-4.352,4.308-6.658,1.366-2.325,1.452-5.212,2.707-7.599,1.057-2.011,2.854-3.508,4.515-5.057,7.764-7.24,13.372-16.762,15.94-27.063.67-2.687,1.132-5.547.33-8.198-1.626-5.372-7.577-7.904-12.726-10.139-5.336-2.316-10.5-5.027-15.437-8.102-7.313-4.555-14.585-10.602-16.473-19.009-.489-2.175,2.969-6.014,2.171-8.095-1.315-3.43-8.143-4.469-11.779-4.992-4.321-.622-9.504,1.266-12.63-1.781-.794-.774-1.358-1.815-2.329-2.349-1.112-.612-2.475-.412-3.726-.195-2.622.455-9.394,2.685-12.017,3.139,2.98,4.433,6.354,9.22,2.424,12.837-1.695,1.56-4.05,2.915-4.244,5.211-.065.765.09,1.671-.483,2.183-.27.241-.646.325-1.007.354-1.664.132-3.229-.699-4.756-1.372s-3.315-1.202-4.825-.492c-4.309,2.027,1.535,5.434,2.929,6.781,3.258,3.148,6.407,6.408,9.441,9.773,6.134,6.805,11.793,14.037,16.919,21.631Z"/><path class="ak" d="M399.28,167.56c2.86,2.791,4.915,6.099,7.598,8.952,2.705,2.831,5.956,4.856,9.111,7.263,2.122,1.612,4.23,3.403,5.967,5.575,3.423,4.384,5.268,9.502,7.308,14.28,2.052,4.803,4.533,9.224,8.129,13.065,0,0-.174.237-.174.237-2.419-1.218-4.414-3.208-6.003-5.388-4.543-6.387-6.346-14.718-11.147-20.693-3.083-3.949-7.673-6.601-11.763-10.108-4.187-3.45-7.083-8.126-9.267-13.016,0,0,.241-.167.241-.167h0Z"/><path class="ax" d="M381.013,132.41c1.018-.503,2.268-18.177,3.076-18.976,3.231-3.199,5.835,10.259,8.607,6.655.399-.636,1.499-.289,1.772.41s.006,1.481-.261,2.182c-.93,2.445-1.859,4.89-2.789,7.335-.451,1.186-.92,2.402-1.775,3.34-1.234,1.353-1.111,3.46-2.867,3.982,1.008,3.051.046,4.573,1.054,7.625.188.569.375,1.194.155,1.751-.232.588-.842.916-1.332,1.317-1.204.984-1.789,2.668-1.455,4.187-2.943-.437-5.822-1.308-8.514-2.576-.208-.098-.421-.203-.567-.38-.229-.277-.246-.666-.277-1.024-.206-2.389-1.552-4.655-3.551-5.98,1.899-1.011,3.261-2.77,4.836-4.235s3.653-2.718,5.766-2.314c-2.362.715-5.085,1.388-7.161.054-.833-.535-1.503-1.518-1.256-2.477.433-1.683,4.983-.107,6.539-.876Z"/></g><g id="p"><path class="as" d="M499.334,171.021c-.773.203-1.575.42-2.183.938-1.085.924-1.33,2.609-2.498,3.426-.813.57-1.898.586-2.775,1.053-.813.433-1.376,1.211-1.904,1.966-4.01,5.723-6.897,11.612-10.232,17.648-.736,1.332-2.231,2.047-3.73,1.784-1.674-.294-3.46-.724-4.773-1.153-1.921-.627-3.842-1.254-5.763-1.882l-27.681-9.038c-.507-.166-.984-.439-1.327-.848-1.045-1.248-.178-2.516.656-3.486,11.007-12.809,28.229-20.013,45.078-18.854,6.495.447,12.824,2.058,19.255,2.97,1.669.237,5.715.287,6.954,2.088.729,1.059-7.247,2.908-9.077,3.387Z"/><path class="ao" d="M493.339,170.772c.853.308,1.728.623,2.635.608.786-.013,1.544-.274,2.278-.555,3.445-1.319,6.692-3.154,9.6-5.423.266-.207.163-.636-.166-.707l-43.751-9.418c-3.1-.667-10.593-1.855-11.115,2.934,13.247,4.77,27.213,7.751,40.519,12.56Z"/><path class="ao" d="M437.059,182.804c-.572-.129-.914-.714-.734-1.272,1.47-4.554,3.08-9.764,5.648-13.668,2.766-4.204,7.03-9.036,11.97-9.995,3.626-.704,7.228,1.303,10.822,2.159,11.124,2.649,22.23,6.131,32.513,11.133-5.697,2.625-10.701,7.677-13.411,13.333-1.221,2.549-3.623,10.163-6.818,10.87-3.002.665-11.172-2.551-14.114-3.625-9.047-3.304-16.59-6.837-25.877-8.935Z"/><path class="as" d="M454.406,159.214c3.607-.654,7.139.239,10.554,1.095,5.962,1.48,14.027,4.784,19.827,6.964,3.263,1.207,6.546,2.131,9.752,3.743l-.061.287c-3.632.167-7.048-.937-10.389-2.003-6.656-2.119-13.071-4.868-19.715-6.908-3.307-1.038-6.642-1.582-9.995-2.886l.027-.292h0Z"/><path class="aj" d="M467.23,178.393c-.022,1.652-.156,3.493-1.255,4.88-2.437,2.881-7.331,2.872-9.941.181-4.551-4.383-1.255-12.3,5.061-12.121,4.139.069,6.307,3.146,6.135,7.06h0ZM466.937,178.393c.02-2.276-2.089-3.781-3.94-4.591-3.081-1.287-6.811,1.258-6.684,4.591-.117,3.33,3.601,5.864,6.68,4.582,1.802-.846,3.939-2.336,3.944-4.582h0Z"/><path class="aj" d="M440.25,176.881c.242-2.149,1.49-3.663,2.571-5.268,2.843-3.974,5.925-7.874,9.88-10.802.906-.526,2.072-.857,3.133-.533l.041.291c-4.475,3.444-7.635,8.129-11.324,12.343-1.226,1.457-2.177,3.087-4.057,4.131l-.245-.162h0Z"/><path class="aj" d="M445.245,179.349c.242-2.149,1.49-3.663,2.571-5.268,2.843-3.974,5.925-7.874,9.88-10.802.906-.526,2.072-.857,3.133-.533l.041.291c-4.475,3.444-7.635,8.129-11.324,12.343-1.226,1.457-2.177,3.087-4.057,4.131l-.245-.162h0Z"/><path class="aj" d="M461.669,168.785c.343-.267.546.383.415.622-.045.11-.133.3-.474.348-.27.026-.515-.12-.673-.283-.639-.866.022-1.68.475-2.364.859-1.262,2.132-2.234,3.569-2.739.698-.253,1.442-.594,2.351.122l.071.285c-.413,1.047-.955,1.179-1.484,1.521-1.258.842-2.44,1.793-3.515,2.845-.16-.042-.086-.226-.301-.418-.115-.075-.287-.168-.473-.143-.349.094-.29.221-.17.379.021.026.049.121.159.169.21.057.059-.211.051-.344h0Z"/><path class="aj" d="M467.291,171.127c-.559-1.064-.002-1.637.361-2.247.776-1.235,1.948-2.211,3.292-2.772.654-.279,1.34-.652,2.271.008l.091.279c-.312,1.064-.826,1.221-1.312,1.582-.472.353-.913.73-1.353,1.103-.441.373-.875.754-1.304,1.158-.457.407-.622.931-1.786,1.025l-.26-.136h0Z"/><path class="aj" d="M465.845,186.874c.156-2.239,1.3-3.905,2.221-5.7,1.9-3.614,4.001-7.209,6.898-10.174,1.458-1.523,3.094-3.01,5.283-3.341,0,0,.157.248.157.248-1.123,1.787-2.548,2.961-3.848,4.529-1.245,1.487-2.341,3.111-3.421,4.762l-3.197,5.061c-1.099,1.692-1.975,3.514-3.84,4.762l-.254-.147h0Z"/><path class="aj" d="M471.258,187.437c.161-2.127,1.361-3.638,2.387-5.237,2.089-3.189,4.545-6.138,7.286-8.786,1.364-1.323,2.684-2.722,4.692-3.33l.199.216c-.755,1.94-2.112,3.184-3.335,4.589-1.221,1.4-2.407,2.825-3.587,4.252-1.182,1.427-2.349,2.866-3.499,4.324-1.172,1.451-2.067,3.063-3.894,4.127l-.249-.155h0Z"/><circle class="aj" cx="461.095" cy="178.393" r="1.841"/></g><g id="q"><path class="bc" d="M379.157,138.667c-1.131-.339-1.185-1.017-1.463-1.63-.544-1.365-1.652-4.507-.043-5.563.066-.036.031-.012.025.014-.096.188-.023.325.176.128.133-.103.255-.278.483-.459l.291-.04c.248.145.43.296.551.521.099.21.228.512.004.973-.069.168-.271.372-.359.454-.091.088.011.023.054-.025.045-.034.056-.098.101-.126.255.903.632,2.43.797,3.528.074.65.42,1.221-.337,2.138l-.28.087h0Z"/><path class="ba" d="M378.835,133.727c.168.196.349.4.595.477.257.081.534.008.792-.071,3.648-1.112,6.932-3.389,9.253-6.416,1.472-1.92,3.16-5.991,1.815-8.002-.482-.72-1.837.078-2.288-.663-.427-.701-.559-1.536-.833-2.309-.115-.322-.272-.656-.567-.83-.376-.222-.853-.118-1.272.004-4.114,1.192-7.883,3.518-10.833,6.619-1.559,1.639-2.782,2.847-1.554,4.992,1.268,2.215,3.237,4.265,4.892,6.197Z"/><path class="bb" d="M393.963,106.91c-.514-5.281-1.434-8.391-5.72-11.518-4.286-3.127-9.372-3.875-14.558-2.753-5.855,1.266-10.842,5.832-10.682,12.138.193,7.578,2.893,15.741,6.982,22.081.598.927,1.255,1.846,2.158,2.479,4.473,3.13,10.61-.49,13.322-3.393,5.127-5.487,8.059-11.536,8.498-19.033"/><g id="r"><path class="ag" d="M363.509,108.707c.366,6.597,2.435,11.264,5.512,16.463,3.596,6.076,6.121,8.381,8.795,14.225.654,1.43-.623,5.965-.771,7.53s-1.55,3.128-3.09,2.815c-1.023-.208-1.732-1.127-2.267-2.023-3.18-5.323-4.629-9.994-5.87-16.069-.921-4.507-2.892-7.569-3.781-14.797-.529-4.305-2.384-8.512-1.651-12.787.767-4.469,4.16-8.296,8.315-10.111,6.426-2.807,11.78-1.69,16.313-1.577.104.505-2.823.306-2.719.811-1.881,1.228-2.643,1.617-4.778,2.316-1.506.493-3.137,1.049-3.995,2.443-.827,1.343-3.679,3.844-4.81,4.989-2.174,2.201-5.496.491-5.204,5.771Z"/><path class="ag" d="M370.969,98.364c-.815.806-1.636,1.906-1.279,2.995.489,1.491,1.414,2.451,2.928,2.649,4.352.568,8.375,3.866,10.177,7.868s3.274,8.465,6.789,11.094c4.428,3.312,10.609,2.619,15.981,1.308s12.495-6.037,17.783-4.421c-4.224-.644-7.418-2.809-10.701-5.545-2.511-2.092-5.938-2.738-8.629-4.592-2.678-1.845-4.414-4.726-6.346-7.343-3.12-4.229-7.33-8.325-12.456-9.942-5.244-1.654-10.599,2.318-14.246,5.928Z"/></g></g><g id="s"><path class="at" d="M389.799,161.185c-1.261,4.549-4.456,8.528-8.626,10.742-1.089.578-2.266,1.046-3.497,1.103-2.654.122-5.034-1.68-6.687-3.76-2.981-3.751-4.356-8.533-5.087-13.269-.403-2.615-.606-5.41.537-7.795.605-1.262,1.555-2.33,2.606-3.254,2.017-1.772,4.511-3.081,7.182-3.351s5.513.596,7.328,2.575c1.814,1.978,4.699,4.024,5.808,6.359,1.477,3.112,1.333,7.415.436,10.65Z"/><path class="ax" d="M361.952,148.741c-.564,1.964-1.089,4.222.033,5.929.993,1.511,2.914,2.03,4.534,2.834,1.649.819,3.102,2.027,4.828,2.669s3.944.548,5.081-.9c.509-.648.738-1.488,1.281-2.108.659-.752,1.673-1.069,2.499-1.631,2.596-1.767,2.847-5.43,2.837-8.571-.02-6.125-5.531-8.17-11.143-8.053-5.534.115-8.587,5.086-9.949,9.83Z"/><path class="ak" d="M384.987,169.361c.05,2.951-3.774,4.54-6.242,4.538-2.511-.054-6.131-1.101-6.67-3.909,0,0,.217-.198.217-.198.73.142,1.268.347,1.79.56,2.31,1.239,5.208,1.589,7.602.479.972-.43,1.542-1.28,3.064-1.642l.239.171h0Z"/><g id="t"><path class="bb" d="M366.66,137.005c.06-1.198.145-2.426.636-3.521.354-.791.904-1.475,1.343-2.222.673-1.144,1.106-2.461,2.051-3.392,1.663-1.638,4.056-.967,6.261-.204.513.178,1.633.318,1.979.736s.187.571-.166.984c-.206.241-.523.355-.831.428-1.282.307-2.684.075-3.799-.628,1.792,1.503,2.565,4.113,1.881,6.35.848-1.059,1.424-2.363,2.499-3.191s2.955-.862,3.516.373c-1.663.955-1.83,3.223-2.509,5.016-.796,2.101-2.566,3.81-4.693,4.531-.368.125-.793.263-.939.623-.085.21-.049.448-.013.672.3,1.827.601,3.655.901,5.482.049.298.086.641-.112.869-.119.137-.3.201-.473.257-1.619.519-3.405.782-5.001.198-2.208-.808-2.766-2.636-2.68-4.72.118-2.877.005-5.76.149-8.641Z"/></g></g><g id="u"><path class="bb" d="M478.761,164.307c.613,1.642,1.772,3.028,3.063,4.213,2.114,1.942,4.64,3.434,7.361,4.349,1.027.345,2.235.752,2.562,1.785.173.548.042,1.153.193,1.707.262.966,1.34,1.531,2.341,1.514s1.935-.483,2.806-.976c1.042-.589,2.07-1.244,2.862-2.142,1.241-1.408,1.808-3.385,1.502-5.237s-1.481-3.541-3.11-4.473c-1.138-.651-2.441-.933-3.696-1.313-1.97-.596-3.862-1.454-5.611-2.54s-3.247-2.864-5.133-3.679c-4.144-1.79-6.39,3.444-5.14,6.794Z"/><path class="at" d="M454.291,133.77c11.825,6.267,23.69,12.559,34.59,20.325-4.573,1.116-8.348,5.005-9.328,9.609-13.839-4.549-27.679-9.098-41.518-13.647-5.375-1.767-10.925-3.634-15.098-7.454-2.005-1.836-3.656-4.138-4.351-6.766-.957-3.617.069-7.694,2.625-10.427,4.096-4.38,9.555-4.11,14.378-1.553,6.234,3.305,12.469,6.608,18.703,9.913Z"/><path class="ax" d="M478.989,156.468c-1.073.669-1.926,1.841-1.852,3.103-1.564-.086-3.258-.138-4.55.749s-1.725,3.103-.409,3.953c.438.283,1.01.384,1.333.794.673.855-.248,2.31.461,3.136.224.261.565.387.897.479,1.688.468,3.855.087,4.582-1.507.35-.766.293-1.658.556-2.458.389-1.184,1.415-2.026,2.393-2.8.481-.38.976-.769,1.561-.95,1.556-.482,3.103.602,4.571,1.309,1.848.891,3.961,1.223,5.993.943.701-.883-.099-2.153-.929-2.917s-1.819-1.766-1.451-2.831c.218-.631.867-1.03,1.114-1.651.352-.884-.271-1.914-1.117-2.348s-1.843-.425-2.794-.405c-.677.014-1.437.066-1.886.573-.21.237-.328.552-.57.756-.285.24-.684.279-1.056.308-2.328.178-4.812.487-6.848,1.765Z"/><path class="ak" d="M420.303,126.791c-4.165,6.873,6.156,14.489,11.125,17.994.058.038.149.112.201.158-.165-.179.495.383.334,1.04.082.455-.952,1.183-1.54.82-.188-.078-1.513-.837-1.722-.949,0,0,1.131-1.988,1.131-1.988,4.612,2.778,9.868,4.047,14.683,6.443,4.894,2.368,9.567,4.513,14.756,6.175,0,0-.037.291-.037.291-2.758.171-5.536-.402-8.122-1.312-2.597-.912-5.043-2.095-7.504-3.148-3.7-1.734-7.592-2.712-11.309-4.47-1.25-.63-2.431-1.299-3.6-1.991l1.131-1.988,1.411.828c.018.009.084.05.1.058-.042-.022-.142-.056-.188-.071-.617-.257-1.47.488-1.398.865-.163.654.495,1.212.326,1.03.015.014.111.092.037.035-.047-.034-.353-.254-.408-.292-4.883-3.705-12.933-9.834-11.467-16.805.324-1.156.982-2.173,1.83-2.911l.226.188h0Z"/><path class="ak" d="M432.01,123.2c-.877.896-1.625.644-2.371.678-.745.012-1.453.017-2.114.062-.662.042-1.281.113-1.898.294-.635.187-1.101.565-2.259.346l-.191-.223c.011-1.21.838-1.689,1.618-2.099.794-.426,1.699-.672,2.566-.725.871-.057,1.698.038,2.48.191.782.177,1.555.119,2.203,1.185l-.033.292h0Z"/><path class="bc" d="M379.981,140.259c.87-.604,1.113-.252,1.505-.089.911.416,1.853,1.381,2.01,2.393-.008.138-.287.245-.242.739l-.041.291c-.341.44-.933.278-1.173.117-.703-.665-1.217-1.067-1.846-1.802-.223-.294-.613-.372-.377-1.405l.164-.243h0Z"/></g></g><g id="v"><path id="w" class="ar" d="M301.031,15.722c-10.133,4.955-19.502,12.069-27.095,20.574,0,0-12.075,5.399-15.127,10.535-1.275,2.145-2.411,4.251-3.499,6.309-8.89-6.484-18.433-9.845-18.433-9.845-9.121-6.328-17.749-13.494-25.645-21.299-1.207-1.192-2.398-2.401-3.59-3.609-2.705-2.741-5.501-5.576-8.596-8.401-5.89-5.377-23.41-7.593-23.41-7.593-12.998-7.921-27.726-13.376-42.591-15.776l-4.145,25.668c11.573,1.869,23.055,6.125,33.205,12.31,0,0,4.719,12.846,8.621,16.408,2.285,2.087,4.584,4.417,7.017,6.883,1.315,1.333,2.63,2.665,3.961,3.98,5.108,5.049,10.467,9.878,16.034,14.452,6.701,5.505,11.24,12.918,14.78,20.834.062.139.136.243.223.308-1.312,18.514-3.085,49.604-4.448,78.088-2.619,54.718-1.911,59.321-1.394,62.682l57.325-8.818c.161,1.042.196,1.722.197,1.75-.5-9.911,3.364-90.637,6.265-130.874.031-.431.064-.899.096-1.373.379-.675.782-1.34,1.216-1.991,2.995-4.489,5.786-9.117,8.349-13.847.668-1.232,1.321-2.473,1.973-3.714,1.207-2.297,2.348-4.467,3.532-6.46,2.022-3.402,2.61-13.636,2.61-13.636,5.93-6.641,13.233-12.19,21.122-16.047l-8.555-17.496Z"/><path id="x" class="ar" d="M467.391,20.975c4.158,2.602,7.957,6.26,10.988,10.58,0,0,7.087,7.575,7.506,8.609,16.469-4.856,37.539-23.135,37.539-23.135,5.585-3.724,8.582-6.98,14.852-7.945,0,0-8.482,15.444-12.843,18.351,0,0-27.077,25.434-27.513,25.059-.012-.01-.031,0-.03.016.222,9.159-.07,16.57,0,30.658.133,27.104-1.715,41.095-1.991,42.75l-16.677-3.646c-.086.513-.112.849-.113.863.384-4.895.149-44.88-.32-64.827-.294-12.535-3.539-10.897-5.481-16.788-1.073-3.256-2.899-6.222-5.388-8.579-1.387-1.314-2.872-2.472-4.42-3.441l3.892-8.526Z"/><path class="ap" d="M206.026,38.894c-4.991,4.158-8.842-4.664-8.704-8.939.415-4.882,3.778-7.499,8.49-5.765,13.011-4.736,8.655,20.348.214,14.705Z"/><path class="ap" d="M356.735,32.002c-4.991,4.158-8.842-4.664-8.704-8.939.415-4.882,3.778-7.499,8.49-5.765,13.011-4.736,8.655,20.348.214,14.705Z"/><path class="ap" d="M502.174,59.767c-4.991,4.158-8.842-4.664-8.704-8.939.415-4.882,3.778-7.499,8.49-5.765,13.011-4.736,8.655,20.348.214,14.705Z"/><g id="y"><path class="ad" d="M484.587,123.087c.046-2.333.364-4.649.931-6.78,1.172,2.646,2.199,5.472,3.065,8.432.549-1.687,1.357-3.623,2.498-3.447,1.765.271,2.59,5.427,4.276,4.511.01.53.021,1.06.031,1.59-2.627,1.953-8.639-1.244-11.305-2.647-3.148-1.656-2.751-3.697-4.535-7.95.666.783,5.062,5.058,5.038,6.291Z"/><path class="ad" d="M481.396,123.087c.046-2.333.364-4.649.931-6.78,1.172,2.646,2.199,5.472,3.065,8.432.549-1.687,1.357-3.623,2.498-3.447,1.765.271,2.59,5.427,4.276,4.511.01.53.021,1.06.031,1.59-2.627,1.953-8.639-1.244-11.305-2.647-3.148-1.656-2.751-3.697-4.535-7.95.666.783,5.062,5.058,5.038,6.291Z"/><path class="ad" d="M494.165,126.139c-.046-2.333-.364-4.649-.931-6.78-1.172,2.646-2.199,5.472-3.065,8.432-.549-1.687-1.357-3.623-2.498-3.447-1.765.271-2.59,5.427-4.276,4.511-.01.53-.021,1.06-.031,1.59,2.627,1.953,8.639-1.244,11.305-2.647,3.148-1.656,2.751-3.697,4.535-7.95-.666.783-5.062,5.058-5.038,6.291Z"/></g><path class="bd" d="M635.563,46.006c-.048-.167-.113-.344-.257-.443-.161-.111-.377-.094-.57-.06-.798.139-1.56.48-2.195.983-.721-1.373-.763-2.99-.789-4.541-.027-1.551-.071-3.168-.797-4.539-.402-.759-1.086-1.401-1.863-1.749-.595-1.391-1.257-2.935-.506-4.273.889-1.586,3.536-2.203,4.843-3.51.345-.344.675-.726.827-1.189.36-1.093-.42-2.299-1.448-2.816-.183-.092-.377-.151-.57-.213.051-.256.085-.518.085-.79.005-2.822-3.022-4.559-5.666-5.544-14.221-5.297-29.57-6.504-44.597-8.618-20.227-2.846-40.222-7.42-60.574-9.162-14.768-1.264-29.663-1.013-44.383.72-5.925.698-11.821,1.646-17.67,2.823-.238-.765-.558-1.501-.982-2.194-1.27-2.072-3.324-3.521-5.362-4.844-11.983-7.776-25.537-13.246-39.672-15.312-11.054-1.615-37.461-9.391-48.275-6.54-8.59,2.265-3.975,14.391-7.75,23.153-.078.181-.146.366-.218.55-1.006-.727-2.211-1.29-3.347-1.713-14.221-5.297-29.57-6.504-44.597-8.618-20.227-2.846-40.222-7.42-60.574-9.162-14.768-1.264-29.663-1.013-44.383.72-7.489.882-14.933,2.149-22.292,3.795-4.777,1.069-16.549,1.979-18.855,6.976-.593,1.284-.008,2.522-.369,3.769-.519,1.789-1.401,2.167-2.35,3.693-.189.305-.375.64-.547.992-9.794-2.047-19.864-3.055-29.796-4.452-20.227-2.846-40.222-7.42-60.574-9.162-14.768-1.264-29.663-1.013-44.383.72-7.489.882-14.933,2.149-22.292,3.795-4.777,1.069-16.549,1.979-18.855,6.976-.592,1.284-.008,2.522-.369,3.769-.519,1.789-1.401,2.167-2.35,3.693-1.257,2.022-2.427,5.307.331,6.856.634.356,1.418.525,1.849,1.11.927,1.256-.566,2.88-1.943,3.613-2.749,1.463-5.798,2.468-8.147,4.512-2.349,2.044-3.8,5.63-2.217,8.312,1.305,2.212,4.184,3.001,6.745,2.818,2.561-.183,5.008-1.12,7.547-1.51,12.199-1.872,24.448,8.937,36.12,4.926,3.204-1.101,6.038-3.27,9.378-3.843,3.255-.558,6.55.473,9.693,1.491,4.558,1.477,9.116,2.954,13.674,4.431.977.317,1.966.655,2.866,1.138-2.907,2.606-5.768,5.264-8.566,7.987-2.024,1.97-4.1,4.106-4.813,6.838-.603,2.31-.149,4.759.474,7.063.855,3.163,2.148,6.412,4.755,8.397,1.933,1.472,4.373,2.08,6.752,2.576,13.985,2.913,28.6,3.109,42.525-.08,9.892-2.265,33.434-4.376,44.447-9.67.774,3.457,2.888,7.525,2.772,11.586-.055,1.918.326,3.933,1.538,5.421,1.212,1.488,3.397,2.28,5.139,1.476-1.214,2.046-.737,4.934,1.069,6.482.685.587,1.539,1.007,2.047,1.753.631.927.699,2.306,1.683,2.842,1.503.819,3.538-1.193,4.949-.224.557.383.77,1.109,1.257,1.578,1.289,1.24,3.38.06,4.731-1.112,2.721-2.362,5.443-4.723,8.165-7.085.179,1.612,2.445,1.783,4.041,1.495,4.929-.89,9.925-1.801,14.444-3.961,3.952-1.89,7.403-4.672,10.721-7.531.861-.741,1.695-1.513,2.543-2.268.417,2.493,1.021,5.015,2.629,6.936,8.392,10.024,22.259,1.065,32.526,1.102,6.814.024,13.175,3.404,19.933,4.278,11.544,1.493,23.23-4.407,34.671-2.262,7.479,1.402,13.897,6.079,21.049,8.675,12.583,4.567,24.718.963,37.421,1.812,11.867.793,23.549,5.202,35.525,4.236,9.371-.756,18.15-4.546,27.451-5.695,7.168-.885,16.453.444,19.227-8.281,2.982,2.161,8.101,2.782,11.758,2.961,11.944.583,22.55-8.321,34.753-8.768,2.734-.1,5.57.077,8.102-.959,3.912-1.601,8.453-7.101,7.156-11.593-.048-.167-.113-.344-.257-.443-.161-.111-.377-.094-.57-.06-.798.139-1.56.48-2.195.983-.721-1.373-.763-2.99-.789-4.541-.027-1.551-.071-3.168-.797-4.539-.402-.759-1.086-1.401-1.863-1.749-.595-1.391-1.257-2.934-.506-4.273.338-.603.932-1.066,1.608-1.48,3.875,1.256,7.75,2.512,11.625,3.768,1.437.466,2.914.953,4.068,1.927,1.324,1.116,2.084,2.753,3.214,4.065,3.25,3.776,8.824,4.258,13.802,4.466,5.665.236,11.444.46,16.9-1.082,1.517-.429,3.034-.997,4.61-.959,2.492.061,4.669,1.608,7.023,2.429,4.982,1.737,10.557.157,15.706,1.31,3.297.739,6.26,2.564,9.524,3.437,13.423,3.59,26.34-9.478,40.188-8.342,3.649.299,7.406.066,10.055-2.773,1.259-1.349,2.531-2.718,3.404-4.344.873-1.626,1.314-3.565.802-5.337ZM205.579,32.877c-.699,3.834-.803,7.736-.653,11.639-8.572-1.1-17.329-.79-25.73,1.204-6.744,1.601-22.162,3.173-30.762,6.566-.092-.977-.301-2.001-.581-3.062,7.031-2.783,14.11-6.172,21.451-5.57,3.649.299,7.406.066,10.055-2.773,1.259-1.349,2.531-2.718,3.404-4.344s1.314-3.565.802-5.337c-.048-.167-.113-.344-.257-.443-.161-.111-.377-.094-.57-.06-.798.139-1.56.48-2.195.983-.721-1.373-.763-2.99-.789-4.541-.01-.608-.025-1.226-.081-1.835,7.12,2.296,14.167,5.044,21.016,2.691,2.485-.854,4.75-2.342,7.198-3.238-.984,2.646-1.803,5.342-2.31,8.121ZM279.362,47.787c-7.489.639-14.933,1.558-22.292,2.751-.975.158-2.249.313-3.667.487,1.183-2.282,2.276-4.611,3.262-6.988.417-1.006.929-2.142,1.51-3.378,4.473.118,8.958,0,13.245-1.212,1.517-.429,3.034-.997,4.61-.959,2.492.061,4.669,1.608,7.023,2.429,4.392,1.531,9.243.487,13.858,1.008.263.363.62.691,1.104.963.634.356,1.418.525,1.849,1.11.655.887.095,1.953-.773,2.764-6.593.131-13.179.465-19.729,1.024ZM434.43,80.634c.458.057.913.131,1.365.224-.353.118-.69.262-.995.437-.154-.213-.272-.435-.37-.661Z"/><path class="ap" d="M42.317,47.305c-4.991,4.158-8.842-4.664-8.704-8.939.415-4.882,3.778-7.499,8.49-5.765,13.011-4.736,8.655,20.348.214,14.705Z"/><path class="ap" d="M203.06,87.316c-4.991,4.158-8.842-4.664-8.704-8.939.415-4.882,3.778-7.499,8.49-5.765,13.011-4.736,8.655,20.348.214,14.705Z"/></g><path class="ad" d="M262.55,205.568c-2.369,1.184-2.369,10.185-2.369,10.185,0,0-1.658,1.895-4.263-4.263s-5.684-7.816-4.5-4.263,3.79,13.264,3.79,13.264c0,0-4.737,1.658-5.448.474s.474-3.79.237-5.448c-.237-1.658-1.184-.237-1.658,1.895-.474,2.132-.237,4.974-.947,5.684-.711.711-3.316.237-3.316.237,0,0-1.421-1.895-3.316-2.842-1.895-.947-2.369.711-2.369.711,0,0,.947-3.79,2.132-4.5,1.184-.711.711-1.421,0-2.842-.711-1.421-8.053,9.948-8.053,9.948,0,0,.237-2.132.237-2.842s.711-3.79,1.421-3.79.237-2.132-.474-2.132c-.649,0-5.441,5.92-6.263,6.941.367-.479,1.316-1.898.341-2.678-1.184-.947-1.421-2.605-1.421-2.605,0,0-.711-.711-1.658.947s-1.421,9.711-1.421,9.711c0,0-1.421-2.132-1.658-6.158-.237-4.026.237-3.553.237-4.263s-1.184,0-1.184,0l-2.605,4.737-1.895.711-.474-2.605s-.474-2.368-1.184-3.079-2.842,3.553-2.842,3.553c0,0-1.658,4.974-8.29-3.079-1.807-2.194-3.553,6.869-3.553,6.869,0,0-1.895,8.527-3.316,5.921-1.421-2.605,0,0-.237-2.605-.237-2.605-.474-5.211-.947-6.632-.474-1.421-1.184-1.658-1.184-1.658,0,0-1.421,1.658-.947,3.316s-2.605,11.132-2.605,11.132l-1.658-10.658c0-1.421-2.132.711-2.132.711l-.947,11.606-2.132.474s-1.184-2.842-.947-7.342c.005-.096.009-.192.013-.288.268-1.244.46-2.08.46-2.08,0,0,2.132-.947,1.184-2.605-.219-.383-.807-.193-1.578.319-.051-2.265-.255-3.558-.554-2.214-.109.489-.355,1.653-.669,3.152-2.584,2.194-5.963,6.085-5.963,6.085,0,0-1.184-2.605-.474-5.448.711-2.842-.947-5.684-2.369-5.684s-.237,8.527-.474,12.79c-.146,2.624-.472,4.884-.866,6.68l-2.213,1.61s1.184-13.974.474-15.869c-.711-1.895-1.658-1.658-1.658-1.658,0,0-.947.237-1.421,2.369s-2.605,9.711-2.605,9.711c0,0-1.421-3.316-1.421-7.342s-2.369-8.29-2.369-8.29c0,0-.947.237-1.184,1.895-.237,1.658,1.421,15.869,1.421,15.869,0,0-1.421,4.263-2.605,4.026-1.184-.237,1.184-8.29.474-9.474-.505-.842-3.884,6.338-6.05,10.643-.556-5.105-1.063-10.891-1.46-13.469-.711-4.619-2.487,4.974-2.487,4.974v10.303l-9.237-15.277s.498,4.476,1.292,9.703c-4.318-6.951-9.884-12.944-9.464-11.124.24,1.04.698,3.167,1.285,5.822-.78.849-1.285,2.35-1.285,2.35,0,0-3.198-8.171-4.263-11.369-1.066-3.198-2.132.355-2.132.355,0,0,.213.877.559,2.307l-2.336-6.926s-2.132-.355-2.487,1.421c-.188.942,1.121,5.177,2.393,8.95l-2.282,3.216-1.176-4.705s-1.066-1.066-1.421,1.066c-.205,1.227.179,4.216.542,6.535l-2.674,3.768c-1.066-2.842,3.198-22.027,1.776-19.54-1.421,2.487-10.658,19.54-9.948,20.606,0,0,0,11.724,2.132,15.987,1.736,3.472.647,1.287,3.827-5.015.028,1.298-.022,2.912-.274,5.015-1.066,8.882,12.435-.355,13.501-.355.748,0,7.09-1.923,10.809-3.071.775,2.228,1.47,3.597,1.981,3.427,0,0,3.865.768,5.323-2.536,2.054,1.542,5.329-.537,7.278-2.091,17.826-.756,117.639-13.513,118.072-14.811.474-1.421-5.211-33.633-7.579-32.449ZM121.693,238.98l-.284-1.137c.921-2.45,1.435-4.501,1.716-5.971.948,2.757,1.766,4.976,1.766,4.976l-3.198,2.132Z"/></g><g id="z"><path class="ah" d="M92.95,270.434c-3.417-2.112-4.129-5.744-2.084-9.122,1.649,1.966,5.075,2.875,4.891,5.925.178,1.98-1.543,3.312-2.167,4.977l-.64-1.78Z"/><path class="ap" d="M88.955,292.927s-5.394.269-6.95-2.04c-2.852-4.234-4.083-10.201-2.334-14.487,3.49-7.414,11.387-8.907,17.767-3.447,14.462,1.6,7.159,17.414-1.632,21.798-2.931,1.461-6.851-1.824-6.851-1.824Z"/><path class="av" d="M94.807,277.768c2.85.082,5.197-1.103,5.242-2.647.045-1.544-1.73-.927-5.443-.643-3.712.284-4.837-1.199-4.881.345s2.23,2.863,5.081,2.945Z"/><path class="au" d="M94.008,272.91l.888-5.676s2.343.958,1.497,2.361-1.869,3.11-1.869,3.11c0,0,.403.525-.517.204Z"/><path class="au" d="M92.819,271.35c-.712.19-1.623.453-1.729.915.033-.012-.012-.111.039-.057,2.454.87,5.289-.045,7.821.854,0,0,.049.203.049.203-.988.708-2.06.794-3.097.857-1.662.05-3.234.328-4.91-.123-2.146-.61-1.873-3.046.165-3.562.671-.179,1.492.078,1.766.729l-.102.183h0Z"/></g><path class="ah" d="M201.811,71.791c-3.992.449-6.794-1.97-7.271-5.889,2.511.528,5.767-.871,7.506,1.641,1.363,1.448.831,3.558,1.368,5.253l-1.603-1.005Z"/><path class="af" d="M297.688,108.727c.644-5.246,7.113-10.579,12.445-9.301,0,0,0,.147,0,.147-1.347.522-2.641.597-3.871,1.104-2.488.896-4.543,2.664-6.133,4.759-.808,1.067-1.375,2.247-2.301,3.336l-.139-.046h0Z"/><path class="aq" d="M370.587,127.766c0-1.38,1.237-1.893,2.316-2.219,2.109-.645,4.371-.132,6.144,1.129.959.582,1.888,1.93,1.168,3.061,0,0-.291.038-.291.038-2.172-1.764-4.95-2.661-7.666-1.844-.382.086-.782.106-1.464.044l-.206-.209h0Z"/></svg>