<?xml version="1.0" encoding="UTF-8"?>
<svg id="Layer_1" data-name="Layer 1" xmlns="http://www.w3.org/2000/svg" width="1140" height="671.92" viewBox="0 0 1140 671.92">
  <defs>
    <style>
      .cls-1 {
        fill: #212728;
      }

      .cls-2 {
        fill: #231e20;
      }

      .cls-3 {
        fill: #5c539c;
      }

      .cls-4 {
        stroke: #231e20;
      }

      .cls-4, .cls-5, .cls-6 {
        fill: none;
        stroke-miterlimit: 10;
        stroke-width: 2px;
      }

      .cls-5 {
        stroke: #000;
      }

      .cls-6 {
        stroke: #5c539a;
      }
    </style>
  </defs>
  <g>
    <line class="cls-4" x1="392.84" y1="585.46" x2="392.84" y2="571.93"/>
    <line class="cls-4" x1="533.05" y1="585.46" x2="533.05" y2="571.93"/>
    <line class="cls-4" x1="673.27" y1="585.46" x2="673.27" y2="571.93"/>
    <line class="cls-4" x1="813.48" y1="585.46" x2="813.48" y2="571.93"/>
    <line class="cls-4" x1="942.14" y1="585.46" x2="942.14" y2="571.93"/>
    <polyline class="cls-5" points="965.84 572.6 245.3 572.6 245.3 46.01"/>
    <g>
      <path class="cls-1" d="m185.74,527.21c0,2.54-.42,4.43-1.27,5.66-.84,1.23-2.16,1.85-3.96,1.85s-3.08-.6-3.94-1.81-1.29-3.01-1.32-5.41v-2.89c0-2.51.42-4.37,1.27-5.59s2.17-1.83,3.97-1.83,3.1.59,3.95,1.76c.84,1.18,1.28,2.99,1.3,5.44v2.81Zm-2.11-2.96c0-1.84-.25-3.17-.75-4.01s-1.3-1.26-2.38-1.26-1.87.42-2.36,1.25-.75,2.12-.76,3.86v3.47c0,1.84.26,3.21.78,4.08.52.88,1.31,1.32,2.37,1.32s1.82-.41,2.32-1.24c.5-.83.77-2.13.79-3.91v-3.55Z"/>
      <path class="cls-1" d="m188.7,533.35c0-.38.11-.69.33-.94s.54-.38.98-.38.76.12.99.38.34.56.34.94-.11.66-.34.9-.55.36-.99.36-.76-.12-.98-.36-.33-.54-.33-.9Z"/>
      <path class="cls-1" d="m201.53,534.49h-2.12v-14.45l-4.25,1.61v-1.97l6.05-2.33h.33v17.14Z"/>
      <path class="cls-1" d="m218.12,527.21c0,2.54-.42,4.43-1.27,5.66-.84,1.23-2.16,1.85-3.96,1.85s-3.08-.6-3.94-1.81-1.29-3.01-1.32-5.41v-2.89c0-2.51.42-4.37,1.27-5.59s2.17-1.83,3.97-1.83,3.1.59,3.95,1.76c.84,1.18,1.28,2.99,1.3,5.44v2.81Zm-2.11-2.96c0-1.84-.25-3.17-.75-4.01s-1.3-1.26-2.38-1.26-1.87.42-2.36,1.25-.75,2.12-.76,3.86v3.47c0,1.84.26,3.21.78,4.08.52.88,1.31,1.32,2.37,1.32s1.82-.41,2.32-1.24c.5-.83.77-2.13.79-3.91v-3.55Z"/>
    </g>
    <g>
      <path class="cls-1" d="m185.74,471.51c0,2.54-.42,4.43-1.27,5.66-.84,1.23-2.16,1.85-3.96,1.85s-3.08-.6-3.94-1.81-1.29-3.01-1.32-5.41v-2.89c0-2.51.42-4.37,1.27-5.59s2.17-1.83,3.97-1.83,3.1.59,3.95,1.76c.84,1.18,1.28,2.99,1.3,5.44v2.81Zm-2.11-2.96c0-1.84-.25-3.17-.75-4.01s-1.3-1.26-2.38-1.26-1.87.42-2.36,1.25-.75,2.12-.76,3.86v3.47c0,1.84.26,3.21.78,4.08.52.88,1.31,1.32,2.37,1.32s1.82-.41,2.32-1.24c.5-.83.77-2.13.79-3.91v-3.55Z"/>
      <path class="cls-1" d="m188.7,477.65c0-.38.11-.69.33-.94s.54-.38.98-.38.76.12.99.38.34.56.34.94-.11.66-.34.9-.55.36-.99.36-.76-.12-.98-.36-.33-.54-.33-.9Z"/>
      <path class="cls-1" d="m205.47,478.79h-10.88v-1.56l5.75-6.56c.85-.99,1.44-1.8,1.76-2.42.32-.62.48-1.26.48-1.93,0-.89-.26-1.62-.79-2.19s-1.22-.86-2.1-.86c-1.05,0-1.87.31-2.45.92s-.87,1.47-.87,2.56h-2.11c0-1.57.49-2.84,1.48-3.81s2.3-1.45,3.95-1.45c1.54,0,2.76.42,3.66,1.25s1.35,1.94,1.35,3.32c0,1.68-1.04,3.68-3.13,6l-4.45,4.96h8.34v1.77Z"/>
      <path class="cls-1" d="m218.12,471.51c0,2.54-.42,4.43-1.27,5.66-.84,1.23-2.16,1.85-3.96,1.85s-3.08-.6-3.94-1.81-1.29-3.01-1.32-5.41v-2.89c0-2.51.42-4.37,1.27-5.59s2.17-1.83,3.97-1.83,3.1.59,3.95,1.76c.84,1.18,1.28,2.99,1.3,5.44v2.81Zm-2.11-2.96c0-1.84-.25-3.17-.75-4.01s-1.3-1.26-2.38-1.26-1.87.42-2.36,1.25-.75,2.12-.76,3.86v3.47c0,1.84.26,3.21.78,4.08.52.88,1.31,1.32,2.37,1.32s1.82-.41,2.32-1.24c.5-.83.77-2.13.79-3.91v-3.55Z"/>
    </g>
    <g>
      <path class="cls-1" d="m185.74,416.45c0,2.54-.42,4.43-1.27,5.66-.84,1.23-2.16,1.85-3.96,1.85s-3.08-.6-3.94-1.81-1.29-3.01-1.32-5.41v-2.89c0-2.51.42-4.37,1.27-5.59s2.17-1.83,3.97-1.83,3.1.59,3.95,1.76c.84,1.18,1.28,2.99,1.3,5.44v2.81Zm-2.11-2.96c0-1.84-.25-3.17-.75-4.01s-1.3-1.26-2.38-1.26-1.87.42-2.36,1.25-.75,2.12-.76,3.86v3.47c0,1.84.26,3.21.78,4.08.52.88,1.31,1.32,2.37,1.32s1.82-.41,2.32-1.24c.5-.83.77-2.13.79-3.91v-3.55Z"/>
      <path class="cls-1" d="m188.7,422.59c0-.38.11-.69.33-.94s.54-.38.98-.38.76.12.99.38.34.56.34.94-.11.66-.34.9-.55.36-.99.36-.76-.12-.98-.36-.33-.54-.33-.9Z"/>
      <path class="cls-1" d="m197.66,414.14h1.58c1-.02,1.78-.29,2.35-.81s.86-1.23.86-2.12c0-2-.97-3-2.91-3-.91,0-1.64.27-2.18.8s-.82,1.24-.82,2.13h-2.11c0-1.35.48-2.47,1.44-3.37.96-.89,2.18-1.34,3.67-1.34,1.57,0,2.79.43,3.68,1.28s1.33,2.04,1.33,3.55c0,.74-.23,1.46-.7,2.16-.47.7-1.1,1.21-1.91,1.56.91.3,1.62.79,2.12,1.48s.75,1.53.75,2.52c0,1.53-.49,2.75-1.46,3.64-.97.9-2.24,1.35-3.8,1.35s-2.83-.43-3.8-1.3-1.47-2.01-1.47-3.43h2.12c0,.9.29,1.62.86,2.16s1.33.81,2.29.81c1.02,0,1.8-.27,2.34-.82s.81-1.33.81-2.36-.3-1.75-.89-2.29c-.59-.53-1.45-.8-2.57-.82h-1.58v-1.77Z"/>
      <path class="cls-1" d="m218.12,416.45c0,2.54-.42,4.43-1.27,5.66-.84,1.23-2.16,1.85-3.96,1.85s-3.08-.6-3.94-1.81-1.29-3.01-1.32-5.41v-2.89c0-2.51.42-4.37,1.27-5.59s2.17-1.83,3.97-1.83,3.1.59,3.95,1.76c.84,1.18,1.28,2.99,1.3,5.44v2.81Zm-2.11-2.96c0-1.84-.25-3.17-.75-4.01s-1.3-1.26-2.38-1.26-1.87.42-2.36,1.25-.75,2.12-.76,3.86v3.47c0,1.84.26,3.21.78,4.08.52.88,1.31,1.32,2.37,1.32s1.82-.41,2.32-1.24c.5-.83.77-2.13.79-3.91v-3.55Z"/>
    </g>
    <g>
      <path class="cls-1" d="m185.74,361.39c0,2.54-.42,4.43-1.27,5.66-.84,1.23-2.16,1.85-3.96,1.85s-3.08-.6-3.94-1.81-1.29-3.01-1.32-5.41v-2.89c0-2.51.42-4.37,1.27-5.59s2.17-1.83,3.97-1.83,3.1.59,3.95,1.76c.84,1.18,1.28,2.99,1.3,5.44v2.81Zm-2.11-2.96c0-1.84-.25-3.17-.75-4.01s-1.3-1.26-2.38-1.26-1.87.42-2.36,1.25-.75,2.12-.76,3.86v3.47c0,1.84.26,3.21.78,4.08.52.88,1.31,1.32,2.37,1.32s1.82-.41,2.32-1.24c.5-.83.77-2.13.79-3.91v-3.55Z"/>
      <path class="cls-1" d="m188.7,367.53c0-.38.11-.69.33-.94s.54-.38.98-.38.76.12.99.38.34.56.34.94-.11.66-.34.9-.55.36-.99.36-.76-.12-.98-.36-.33-.54-.33-.9Z"/>
      <path class="cls-1" d="m203.5,362.93h2.3v1.77h-2.3v3.96h-2.12v-3.96h-7.56v-1.28l7.44-11.82h2.25v11.33Zm-7.29,0h5.17v-8.37l-.25.47-4.92,7.9Z"/>
      <path class="cls-1" d="m218.12,361.39c0,2.54-.42,4.43-1.27,5.66-.84,1.23-2.16,1.85-3.96,1.85s-3.08-.6-3.94-1.81-1.29-3.01-1.32-5.41v-2.89c0-2.51.42-4.37,1.27-5.59s2.17-1.83,3.97-1.83,3.1.59,3.95,1.76c.84,1.18,1.28,2.99,1.3,5.44v2.81Zm-2.11-2.96c0-1.84-.25-3.17-.75-4.01s-1.3-1.26-2.38-1.26-1.87.42-2.36,1.25-.75,2.12-.76,3.86v3.47c0,1.84.26,3.21.78,4.08.52.88,1.31,1.32,2.37,1.32s1.82-.41,2.32-1.24c.5-.83.77-2.13.79-3.91v-3.55Z"/>
    </g>
    <g>
      <path class="cls-1" d="m185.67,303.14c0,2.54-.42,4.43-1.26,5.66-.84,1.24-2.16,1.85-3.96,1.86-1.77,0-3.08-.6-3.94-1.81-.85-1.21-1.3-3.01-1.33-5.41v-2.89c0-2.51.42-4.37,1.26-5.59.84-1.22,2.17-1.83,3.97-1.83,1.79,0,3.1.58,3.95,1.76s1.28,2.99,1.31,5.44v2.81Zm-2.11-2.96c0-1.84-.25-3.17-.76-4.01-.5-.84-1.3-1.26-2.39-1.26-1.08,0-1.87.42-2.36,1.26-.49.84-.75,2.12-.76,3.86v3.47c0,1.84.27,3.21.79,4.08.52.88,1.31,1.32,2.37,1.32,1.04,0,1.82-.42,2.32-1.24.5-.83.77-2.13.79-3.92v-3.55Z"/>
      <path class="cls-1" d="m188.64,309.28c0-.38.11-.69.32-.94.22-.25.54-.38.98-.38.43,0,.76.12.99.37s.34.56.34.94c0,.36-.11.66-.34.9s-.55.36-.99.36c-.43,0-.76-.12-.98-.36-.22-.24-.33-.54-.33-.9Z"/>
      <path class="cls-1" d="m195.49,301.85l.84-8.51h8.51s0,1.99,0,1.99h-6.72s-.5,4.66-.5,4.66c.81-.49,1.74-.74,2.77-.74,1.51,0,2.72.51,3.61,1.54.89,1.03,1.34,2.41,1.34,4.16,0,1.76-.46,3.14-1.38,4.16s-2.21,1.52-3.87,1.52c-1.47,0-2.67-.41-3.59-1.25-.93-.83-1.46-1.99-1.59-3.47h2c.13.97.47,1.71,1.02,2.21.55.5,1.27.74,2.17.74.98,0,1.75-.35,2.31-1.03.56-.69.84-1.64.83-2.85,0-1.14-.3-2.06-.91-2.75-.61-.69-1.41-1.04-2.41-1.03-.92,0-1.64.21-2.17.62l-.56.47-1.69-.44Z"/>
      <path class="cls-1" d="m218.06,303.1c0,2.54-.42,4.43-1.26,5.66-.84,1.24-2.16,1.85-3.96,1.86-1.77,0-3.08-.6-3.94-1.81-.85-1.21-1.3-3.01-1.33-5.41v-2.89c0-2.51.42-4.37,1.26-5.59.84-1.22,2.17-1.83,3.97-1.83,1.79,0,3.1.58,3.95,1.76s1.28,2.99,1.31,5.44v2.81Zm-2.11-2.96c0-1.84-.25-3.17-.76-4.01-.5-.84-1.3-1.26-2.39-1.26-1.08,0-1.87.42-2.36,1.26-.49.84-.75,2.12-.76,3.86v3.47c0,1.84.27,3.21.79,4.08.52.88,1.31,1.32,2.37,1.32,1.04,0,1.82-.42,2.32-1.25.5-.83.77-2.13.79-3.92v-3.55Z"/>
    </g>
    <g>
      <path class="cls-1" d="m185.74,250.55c0,2.54-.42,4.43-1.27,5.66-.84,1.23-2.16,1.85-3.96,1.85s-3.08-.6-3.94-1.81-1.29-3.01-1.32-5.41v-2.89c0-2.51.42-4.37,1.27-5.59s2.17-1.83,3.97-1.83,3.1.59,3.95,1.76c.84,1.18,1.28,2.99,1.3,5.44v2.81Zm-2.11-2.96c0-1.84-.25-3.17-.75-4.01s-1.3-1.26-2.38-1.26-1.87.42-2.36,1.25-.75,2.12-.76,3.86v3.47c0,1.84.26,3.21.78,4.08.52.88,1.31,1.32,2.37,1.32s1.82-.41,2.32-1.24c.5-.83.77-2.13.79-3.91v-3.55Z"/>
      <path class="cls-1" d="m188.7,256.69c0-.38.11-.69.33-.94s.54-.38.98-.38.76.12.99.38.34.56.34.94-.11.66-.34.9-.55.36-.99.36-.76-.12-.98-.36-.33-.54-.33-.9Z"/>
      <path class="cls-1" d="m202.87,240.76v1.84h-.39c-1.64.03-2.95.53-3.92,1.5-.97.97-1.54,2.33-1.69,4.09.87-1.03,2.07-1.55,3.58-1.55s2.6.52,3.46,1.57,1.29,2.4,1.29,4.05c0,1.76-.47,3.16-1.4,4.22s-2.18,1.58-3.75,1.58-2.88-.63-3.87-1.88c-.99-1.25-1.48-2.87-1.48-4.85v-.83c0-3.14.65-5.54,1.96-7.2,1.3-1.66,3.25-2.51,5.82-2.55h.38Zm-2.77,7.69c-.72,0-1.39.22-2,.67s-1.03,1-1.27,1.68v.8c0,1.41.31,2.54.92,3.4s1.38,1.29,2.3,1.29,1.7-.36,2.24-1.08.82-1.66.82-2.82-.28-2.12-.83-2.84-1.28-1.08-2.2-1.08Z"/>
      <path class="cls-1" d="m218.12,250.55c0,2.54-.42,4.43-1.27,5.66-.84,1.23-2.16,1.85-3.96,1.85s-3.08-.6-3.94-1.81-1.29-3.01-1.32-5.41v-2.89c0-2.51.42-4.37,1.27-5.59s2.17-1.83,3.97-1.83,3.1.59,3.95,1.76c.84,1.18,1.28,2.99,1.3,5.44v2.81Zm-2.11-2.96c0-1.84-.25-3.17-.75-4.01s-1.3-1.26-2.38-1.26-1.87.42-2.36,1.25-.75,2.12-.76,3.86v3.47c0,1.84.26,3.21.78,4.08.52.88,1.31,1.32,2.37,1.32s1.82-.41,2.32-1.24c.5-.83.77-2.13.79-3.91v-3.55Z"/>
    </g>
    <g>
      <path class="cls-1" d="m185.74,192.5c0,2.54-.42,4.43-1.27,5.66-.84,1.23-2.16,1.85-3.96,1.85s-3.08-.6-3.94-1.81-1.29-3.01-1.32-5.41v-2.89c0-2.51.42-4.37,1.27-5.59s2.17-1.83,3.97-1.83,3.1.59,3.95,1.76c.84,1.18,1.28,2.99,1.3,5.44v2.81Zm-2.11-2.96c0-1.84-.25-3.17-.75-4.01s-1.3-1.26-2.38-1.26-1.87.42-2.36,1.25-.75,2.12-.76,3.86v3.47c0,1.84.26,3.21.78,4.08.52.88,1.31,1.32,2.37,1.32s1.82-.41,2.32-1.24c.5-.83.77-2.13.79-3.91v-3.55Z"/>
      <path class="cls-1" d="m188.7,198.64c0-.38.11-.69.33-.94s.54-.38.98-.38.76.12.99.38.34.56.34.94-.11.66-.34.9-.55.36-.99.36-.76-.12-.98-.36-.33-.54-.33-.9Z"/>
      <path class="cls-1" d="m205.31,183.93l-6.88,15.84h-2.21l6.86-15.28h-8.99v-1.78h11.23v1.22Z"/>
      <path class="cls-1" d="m218.12,192.5c0,2.54-.42,4.43-1.27,5.66-.84,1.23-2.16,1.85-3.96,1.85s-3.08-.6-3.94-1.81-1.29-3.01-1.32-5.41v-2.89c0-2.51.42-4.37,1.27-5.59s2.17-1.83,3.97-1.83,3.1.59,3.95,1.76c.84,1.18,1.28,2.99,1.3,5.44v2.81Zm-2.11-2.96c0-1.84-.25-3.17-.75-4.01s-1.3-1.26-2.38-1.26-1.87.42-2.36,1.25-.75,2.12-.76,3.86v3.47c0,1.84.26,3.21.78,4.08.52.88,1.31,1.32,2.37,1.32s1.82-.41,2.32-1.24c.5-.83.77-2.13.79-3.91v-3.55Z"/>
    </g>
    <g>
      <path class="cls-1" d="m185.74,136.8c0,2.54-.42,4.43-1.27,5.66-.84,1.23-2.16,1.85-3.96,1.85s-3.08-.6-3.94-1.81-1.29-3.01-1.32-5.41v-2.89c0-2.51.42-4.37,1.27-5.59s2.17-1.83,3.97-1.83,3.1.59,3.95,1.76c.84,1.18,1.28,2.99,1.3,5.44v2.81Zm-2.11-2.96c0-1.84-.25-3.17-.75-4.01s-1.3-1.26-2.38-1.26-1.87.42-2.36,1.25-.75,2.12-.76,3.86v3.47c0,1.84.26,3.21.78,4.08.52.88,1.31,1.32,2.37,1.32s1.82-.41,2.32-1.24c.5-.83.77-2.13.79-3.91v-3.55Z"/>
      <path class="cls-1" d="m188.7,142.94c0-.38.11-.69.33-.94s.54-.38.98-.38.76.12.99.38.34.56.34.94-.11.66-.34.9-.55.36-.99.36-.76-.12-.98-.36-.33-.54-.33-.9Z"/>
      <path class="cls-1" d="m204.66,131.46c0,.85-.22,1.61-.66,2.27s-1.03,1.18-1.77,1.56c.87.38,1.55.94,2.06,1.68s.76,1.57.76,2.5c0,1.48-.48,2.65-1.45,3.53s-2.25,1.31-3.83,1.31-2.88-.44-3.84-1.32-1.44-2.05-1.44-3.52c0-.92.25-1.75.74-2.5.49-.74,1.17-1.3,2.04-1.69-.74-.38-1.32-.89-1.75-1.56-.43-.66-.64-1.42-.64-2.26,0-1.44.45-2.58,1.35-3.42s2.08-1.27,3.55-1.27,2.64.42,3.54,1.27,1.35,1.98,1.35,3.42Zm-1.72,7.96c0-.95-.29-1.73-.88-2.33-.59-.6-1.36-.9-2.31-.9s-1.71.3-2.29.89-.86,1.38-.86,2.34.28,1.73.84,2.29,1.34.83,2.33.83,1.76-.28,2.33-.84c.56-.56.84-1.32.84-2.28Zm-3.17-10.86c-.83,0-1.5.26-2.01.79s-.77,1.24-.77,2.15.25,1.57.76,2.1,1.18.8,2.03.8,1.52-.27,2.02-.8.76-1.24.76-2.1-.26-1.57-.79-2.12-1.19-.82-2-.82Z"/>
      <path class="cls-1" d="m218.12,136.8c0,2.54-.42,4.43-1.27,5.66-.84,1.23-2.16,1.85-3.96,1.85s-3.08-.6-3.94-1.81-1.29-3.01-1.32-5.41v-2.89c0-2.51.42-4.37,1.27-5.59s2.17-1.83,3.97-1.83,3.1.59,3.95,1.76c.84,1.18,1.28,2.99,1.3,5.44v2.81Zm-2.11-2.96c0-1.84-.25-3.17-.75-4.01s-1.3-1.26-2.38-1.26-1.87.42-2.36,1.25-.75,2.12-.76,3.86v3.47c0,1.84.26,3.21.78,4.08.52.88,1.31,1.32,2.37,1.32s1.82-.41,2.32-1.24c.5-.83.77-2.13.79-3.91v-3.55Z"/>
    </g>
    <g>
      <path class="cls-1" d="m185.74,83.52c0,2.54-.42,4.43-1.27,5.66-.84,1.23-2.16,1.85-3.96,1.85s-3.08-.6-3.94-1.81-1.29-3.01-1.32-5.41v-2.89c0-2.51.42-4.37,1.27-5.59s2.17-1.83,3.97-1.83,3.1.59,3.95,1.76c.84,1.18,1.28,2.99,1.3,5.44v2.81Zm-2.11-2.96c0-1.84-.25-3.17-.75-4.01s-1.3-1.26-2.38-1.26-1.87.42-2.36,1.25-.75,2.12-.76,3.86v3.47c0,1.84.26,3.21.78,4.08.52.88,1.31,1.32,2.37,1.32s1.82-.41,2.32-1.24c.5-.83.77-2.13.79-3.91v-3.55Z"/>
      <path class="cls-1" d="m188.7,89.66c0-.38.11-.69.33-.94s.54-.38.98-.38.76.12.99.38.34.56.34.94-.11.66-.34.9-.55.36-.99.36-.76-.12-.98-.36-.33-.54-.33-.9Z"/>
      <path class="cls-1" d="m202.68,83.29c-.44.54-.97.97-1.58,1.3-.61.33-1.28.49-2.01.49-.96,0-1.79-.24-2.5-.73s-1.26-1.17-1.65-2.04-.58-1.85-.58-2.91c0-1.14.21-2.17.63-3.08.42-.91,1.02-1.61,1.8-2.1.78-.48,1.68-.73,2.71-.73,1.64,0,2.94.63,3.88,1.89.95,1.26,1.42,2.98,1.42,5.16v.63c0,3.32-.64,5.74-1.92,7.27-1.28,1.53-3.21,2.31-5.78,2.35h-.41v-1.84h.44c1.74-.03,3.08-.5,4.02-1.4s1.45-2.33,1.53-4.27Zm-3.25,0c.71,0,1.36-.22,1.96-.67.6-.45,1.03-1,1.31-1.65v-.87c0-1.42-.3-2.58-.9-3.47s-1.36-1.34-2.28-1.34-1.67.37-2.24,1.1c-.56.73-.84,1.69-.84,2.89s.27,2.12.82,2.88,1.27,1.13,2.18,1.13Z"/>
      <path class="cls-1" d="m218.12,83.52c0,2.54-.42,4.43-1.27,5.66-.84,1.23-2.16,1.85-3.96,1.85s-3.08-.6-3.94-1.81-1.29-3.01-1.32-5.41v-2.89c0-2.51.42-4.37,1.27-5.59s2.17-1.83,3.97-1.83,3.1.59,3.95,1.76c.84,1.18,1.28,2.99,1.3,5.44v2.81Zm-2.11-2.96c0-1.84-.25-3.17-.75-4.01s-1.3-1.26-2.38-1.26-1.87.42-2.36,1.25-.75,2.12-.76,3.86v3.47c0,1.84.26,3.21.78,4.08.52.88,1.31,1.32,2.37,1.32s1.82-.41,2.32-1.24c.5-.83.77-2.13.79-3.91v-3.55Z"/>
    </g>
    <g>
      <path class="cls-1" d="m808.47,603.04c0,2.54-.42,4.43-1.27,5.66s-2.16,1.85-3.96,1.85-3.08-.6-3.94-1.81-1.29-3.01-1.32-5.41v-2.89c0-2.51.42-4.37,1.27-5.59s2.17-1.83,3.97-1.83,3.1.59,3.95,1.76c.84,1.18,1.28,2.99,1.3,5.44v2.81Zm-2.11-2.96c0-1.84-.25-3.17-.75-4.01s-1.29-1.26-2.38-1.26-1.87.42-2.36,1.25-.75,2.12-.77,3.86v3.47c0,1.84.26,3.21.78,4.08.52.88,1.31,1.32,2.37,1.32s1.82-.41,2.32-1.24.77-2.13.79-3.91v-3.55Z"/>
      <path class="cls-1" d="m811.44,609.18c0-.38.11-.69.32-.94s.54-.38.98-.38.76.12.99.38.34.56.34.94-.11.66-.34.9-.55.36-.99.36-.76-.12-.98-.36-.32-.54-.32-.9Z"/>
      <path class="cls-1" d="m826.24,604.59h2.3v1.77h-2.3v3.96h-2.12v-3.96h-7.56v-1.28l7.44-11.82h2.25v11.33Zm-7.29,0h5.17v-8.37l-.25.47-4.92,7.9Z"/>
    </g>
    <g>
      <path class="cls-1" d="m937.96,603.04c0,2.54-.42,4.43-1.27,5.66-.84,1.23-2.16,1.85-3.96,1.85s-3.08-.6-3.94-1.81-1.29-3.01-1.32-5.41v-2.89c0-2.51.42-4.37,1.27-5.59s2.17-1.83,3.97-1.83,3.1.59,3.95,1.76c.84,1.18,1.28,2.99,1.3,5.44v2.81Zm-2.11-2.96c0-1.84-.25-3.17-.75-4.01s-1.3-1.26-2.38-1.26-1.87.42-2.36,1.25-.75,2.12-.76,3.86v3.47c0,1.84.26,3.21.78,4.08.52.88,1.31,1.32,2.37,1.32s1.82-.41,2.32-1.24c.5-.83.77-2.13.79-3.91v-3.55Z"/>
      <path class="cls-1" d="m940.93,609.18c0-.38.11-.69.33-.94s.54-.38.98-.38.76.12.99.38.34.56.34.94-.11.66-.34.9-.55.36-.99.36-.76-.12-.98-.36-.33-.54-.33-.9Z"/>
      <path class="cls-1" d="m947.78,601.76l.84-8.51h8.51v2h-6.72l-.5,4.65c.81-.49,1.74-.74,2.77-.74,1.51,0,2.71.51,3.61,1.54.89,1.03,1.33,2.42,1.33,4.17s-.46,3.14-1.39,4.15-2.21,1.52-3.87,1.52c-1.47,0-2.67-.42-3.59-1.25-.93-.84-1.46-1.99-1.59-3.47h2c.13.98.47,1.71,1.02,2.21.55.5,1.27.74,2.17.74.98,0,1.75-.34,2.31-1.03.56-.69.84-1.64.84-2.85,0-1.14-.3-2.06-.91-2.75-.61-.69-1.41-1.04-2.41-1.04-.92,0-1.64.21-2.17.62l-.56.47-1.69-.45Z"/>
    </g>
    <g>
      <path class="cls-1" d="m669.93,603.04c0,2.54-.42,4.43-1.27,5.66s-2.16,1.85-3.96,1.85-3.08-.6-3.94-1.81-1.29-3.01-1.32-5.41v-2.89c0-2.51.42-4.37,1.27-5.59s2.17-1.83,3.97-1.83,3.1.59,3.95,1.76c.84,1.18,1.28,2.99,1.3,5.44v2.81Zm-2.11-2.96c0-1.84-.25-3.17-.75-4.01s-1.29-1.26-2.38-1.26-1.87.42-2.36,1.25-.75,2.12-.77,3.86v3.47c0,1.84.26,3.21.78,4.08.52.88,1.31,1.32,2.37,1.32s1.82-.41,2.32-1.24.77-2.13.79-3.91v-3.55Z"/>
      <path class="cls-1" d="m672.89,609.18c0-.38.11-.69.32-.94s.54-.38.98-.38.76.12.99.38.34.56.34.94-.11.66-.34.9-.55.36-.99.36-.76-.12-.98-.36-.32-.54-.32-.9Z"/>
      <path class="cls-1" d="m681.85,600.73h1.59c1-.02,1.78-.29,2.35-.81s.86-1.23.86-2.12c0-2-.97-3-2.91-3-.91,0-1.64.27-2.19.8-.54.54-.81,1.24-.81,2.13h-2.11c0-1.35.48-2.47,1.44-3.37s2.19-1.34,3.67-1.34c1.57,0,2.79.43,3.68,1.28.89.85,1.34,2.04,1.34,3.55,0,.74-.23,1.46-.7,2.16-.47.7-1.1,1.21-1.91,1.56.91.3,1.62.79,2.12,1.48s.75,1.53.75,2.52c0,1.53-.49,2.75-1.46,3.64-.97.9-2.24,1.35-3.8,1.35s-2.83-.43-3.8-1.3c-.98-.87-1.47-2.01-1.47-3.43h2.12c0,.9.29,1.62.86,2.16s1.33.81,2.29.81c1.02,0,1.8-.27,2.34-.82.54-.55.81-1.33.81-2.36s-.3-1.75-.89-2.29-1.45-.8-2.57-.82h-1.59v-1.77Z"/>
    </g>
    <g>
      <path class="cls-1" d="m530.38,603.04c0,2.54-.42,4.43-1.27,5.66-.84,1.23-2.16,1.85-3.96,1.85s-3.08-.6-3.94-1.81-1.29-3.01-1.32-5.41v-2.89c0-2.51.42-4.37,1.27-5.59s2.17-1.83,3.97-1.83,3.1.59,3.95,1.76c.84,1.18,1.28,2.99,1.3,5.44v2.81Zm-2.11-2.96c0-1.84-.25-3.17-.75-4.01s-1.3-1.26-2.38-1.26-1.87.42-2.36,1.25-.75,2.12-.76,3.86v3.47c0,1.84.26,3.21.78,4.08.52.88,1.31,1.32,2.37,1.32s1.82-.41,2.32-1.24c.5-.83.77-2.13.79-3.91v-3.55Z"/>
      <path class="cls-1" d="m533.35,609.18c0-.38.11-.69.33-.94s.54-.38.98-.38.76.12.99.38.34.56.34.94-.11.66-.34.9-.55.36-.99.36-.76-.12-.98-.36-.33-.54-.33-.9Z"/>
      <path class="cls-1" d="m550.12,610.32h-10.88v-1.56l5.75-6.56c.85-.99,1.44-1.8,1.76-2.42.32-.62.48-1.26.48-1.93,0-.89-.26-1.62-.79-2.19s-1.22-.86-2.1-.86c-1.05,0-1.87.31-2.45.92s-.87,1.47-.87,2.56h-2.11c0-1.57.49-2.84,1.48-3.81s2.3-1.45,3.95-1.45c1.54,0,2.76.42,3.66,1.25s1.35,1.94,1.35,3.32c0,1.68-1.04,3.68-3.13,6l-4.45,4.96h8.34v1.77Z"/>
    </g>
    <g>
      <path class="cls-1" d="m388.31,603.04c0,2.54-.42,4.43-1.27,5.66-.84,1.23-2.16,1.85-3.96,1.85s-3.08-.6-3.94-1.81-1.29-3.01-1.32-5.41v-2.89c0-2.51.42-4.37,1.27-5.59s2.17-1.83,3.97-1.83,3.1.59,3.95,1.76c.84,1.18,1.28,2.99,1.3,5.44v2.81Zm-2.11-2.96c0-1.84-.25-3.17-.75-4.01s-1.3-1.26-2.38-1.26-1.87.42-2.36,1.25-.75,2.12-.76,3.86v3.47c0,1.84.26,3.21.78,4.08.52.88,1.31,1.32,2.37,1.32s1.82-.41,2.32-1.24c.5-.83.77-2.13.79-3.91v-3.55Z"/>
      <path class="cls-1" d="m391.27,609.18c0-.38.11-.69.33-.94s.54-.38.98-.38.76.12.99.38.34.56.34.94-.11.66-.34.9-.55.36-.99.36-.76-.12-.98-.36-.33-.54-.33-.9Z"/>
      <path class="cls-1" d="m404.1,610.32h-2.12v-14.45l-4.25,1.61v-1.97l6.05-2.33h.33v17.14Z"/>
    </g>
    <path class="cls-1" d="m247.8,603.04c0,2.54-.42,4.43-1.27,5.66-.84,1.23-2.16,1.85-3.96,1.85s-3.08-.6-3.94-1.81-1.29-3.01-1.32-5.41v-2.89c0-2.51.42-4.37,1.27-5.59s2.17-1.83,3.97-1.83,3.1.59,3.95,1.76c.84,1.18,1.28,2.99,1.3,5.44v2.81Zm-2.11-2.96c0-1.84-.25-3.17-.75-4.01s-1.3-1.26-2.38-1.26-1.87.42-2.36,1.25-.75,2.12-.76,3.86v3.47c0,1.84.26,3.21.78,4.08.52.88,1.31,1.32,2.37,1.32s1.82-.41,2.32-1.24c.5-.83.77-2.13.79-3.91v-3.55Z"/>
    <path class="cls-6" d="m245.86,572s75.43-5.25,145.67-24.63c39.14-10.8,98.09-42.39,141.69-76.3,43.6-33.91,96.88-94.46,138.06-144.11s165.99-225.35,165.99-225.35"/>
    <line class="cls-4" x1="230.84" y1="525.6" x2="244.36" y2="525.6"/>
    <line class="cls-4" x1="230.84" y1="469.89" x2="244.36" y2="469.89"/>
    <line class="cls-4" x1="230.84" y1="414.18" x2="244.36" y2="414.18"/>
    <line class="cls-4" x1="230.84" y1="358.47" x2="244.36" y2="358.47"/>
    <line class="cls-4" x1="230.84" y1="302.76" x2="244.36" y2="302.76"/>
    <line class="cls-4" x1="230.84" y1="247.05" x2="244.36" y2="247.05"/>
    <line class="cls-4" x1="230.84" y1="191.34" x2="244.36" y2="191.34"/>
    <line class="cls-4" x1="230.84" y1="135.63" x2="244.36" y2="135.63"/>
    <line class="cls-4" x1="230.84" y1="79.92" x2="244.36" y2="79.92"/>
  </g>
  <g>
    <path class="cls-2" d="m325.85,20.99v7.51h-4.39V7.17h8.32c1.6,0,3.01.29,4.23.88,1.21.59,2.15,1.42,2.8,2.5s.98,2.31.98,3.68c0,2.09-.72,3.74-2.15,4.94-1.43,1.21-3.41,1.81-5.94,1.81h-3.85Zm0-3.56h3.93c1.16,0,2.05-.27,2.66-.82s.92-1.33.92-2.34-.31-1.89-.92-2.53-1.46-.98-2.55-1h-4.03v6.69Z"/>
    <path class="cls-2" d="m339.68,20.43c0-1.57.3-2.97.91-4.2s1.48-2.18,2.62-2.86c1.14-.67,2.46-1.01,3.96-1.01,2.14,0,3.88.65,5.24,1.96,1.35,1.31,2.11,3.09,2.26,5.33l.03,1.08c0,2.43-.68,4.38-2.04,5.85s-3.18,2.2-5.46,2.2-4.11-.73-5.47-2.2c-1.36-1.46-2.04-3.46-2.04-5.98v-.19Zm4.23.3c0,1.51.28,2.66.85,3.46.57.8,1.38,1.2,2.43,1.2s1.83-.39,2.4-1.18c.58-.79.86-2.05.86-3.78,0-1.48-.29-2.62-.86-3.43s-1.39-1.22-2.43-1.22-1.84.4-2.4,1.21-.85,2.06-.85,3.75Z"/>
    <path class="cls-2" d="m365.89,24.12c0-.52-.26-.93-.77-1.22-.51-.3-1.34-.56-2.47-.8-3.77-.79-5.65-2.39-5.65-4.8,0-1.41.58-2.58,1.75-3.52s2.69-1.41,4.58-1.41c2.01,0,3.62.47,4.83,1.42s1.81,2.18,1.81,3.69h-4.23c0-.61-.2-1.11-.59-1.5s-1-.59-1.83-.59c-.71,0-1.26.16-1.66.48s-.59.73-.59,1.23c0,.47.22.85.67,1.14s1.19.54,2.25.75,1.94.45,2.67.71c2.24.82,3.35,2.24,3.35,4.26,0,1.45-.62,2.61-1.86,3.51s-2.84,1.34-4.8,1.34c-1.33,0-2.51-.24-3.54-.71s-1.84-1.12-2.42-1.95-.88-1.72-.88-2.67h4.01c.04.75.32,1.33.83,1.73s1.21.6,2.08.6c.81,0,1.42-.15,1.84-.46.41-.31.62-.71.62-1.21Z"/>
    <path class="cls-2" d="m372.7,8.55c0-.63.21-1.16.64-1.57.42-.41,1-.62,1.74-.62s1.3.21,1.73.62.64.93.64,1.57-.22,1.17-.65,1.58c-.44.41-1.01.62-1.72.62s-1.29-.21-1.72-.62-.65-.94-.65-1.58Zm4.5,19.95h-4.25v-15.85h4.25v15.85Z"/>
    <path class="cls-2" d="m385.75,8.75v3.9h2.71v3.11h-2.71v7.91c0,.59.11,1.01.34,1.26s.65.38,1.29.38c.47,0,.88-.03,1.25-.1v3.21c-.83.25-1.68.38-2.56.38-2.97,0-4.48-1.5-4.54-4.5v-8.54h-2.31v-3.11h2.31v-3.9h4.23Z"/>
    <path class="cls-2" d="m390.79,8.55c0-.63.21-1.16.64-1.57.42-.41,1-.62,1.74-.62s1.3.21,1.73.62.64.93.64,1.57-.22,1.17-.65,1.58c-.44.41-1.01.62-1.72.62s-1.29-.21-1.72-.62-.65-.94-.65-1.58Zm4.5,19.95h-4.25v-15.85h4.25v15.85Z"/>
    <path class="cls-2" d="m398.11,20.43c0-1.57.3-2.97.91-4.2s1.48-2.18,2.62-2.86c1.14-.67,2.46-1.01,3.96-1.01,2.14,0,3.88.65,5.24,1.96,1.35,1.31,2.11,3.09,2.26,5.33l.03,1.08c0,2.43-.68,4.38-2.04,5.85s-3.18,2.2-5.46,2.2-4.11-.73-5.47-2.2c-1.36-1.46-2.04-3.46-2.04-5.98v-.19Zm4.23.3c0,1.51.28,2.66.85,3.46.57.8,1.38,1.2,2.43,1.2s1.83-.39,2.4-1.18c.58-.79.86-2.05.86-3.78,0-1.48-.29-2.62-.86-3.43s-1.39-1.22-2.43-1.22-1.84.4-2.4,1.21-.85,2.06-.85,3.75Z"/>
    <path class="cls-2" d="m419.63,12.65l.13,1.83c1.13-1.42,2.65-2.12,4.56-2.12,1.68,0,2.93.49,3.75,1.48s1.24,2.46,1.26,4.42v10.24h-4.23v-10.14c0-.9-.2-1.55-.59-1.96s-1.04-.61-1.95-.61c-1.19,0-2.08.51-2.68,1.52v11.18h-4.23v-15.85h3.98Z"/>
    <path class="cls-2" d="m445.94,23.33l2.94-10.68h4.42l-5.35,15.85h-4.04l-5.35-15.85h4.42l2.94,10.68Z"/>
    <path class="cls-2" d="m462.46,28.79c-2.32,0-4.22-.71-5.68-2.14s-2.19-3.33-2.19-5.7v-.41c0-1.59.31-3.02.92-4.27s1.49-2.22,2.61-2.9c1.13-.68,2.42-1.02,3.86-1.02,2.17,0,3.87.68,5.12,2.05,1.24,1.37,1.87,3.31,1.87,5.82v1.73h-10.09c.14,1.04.55,1.87,1.24,2.49.69.62,1.56.94,2.62.94,1.63,0,2.91-.59,3.82-1.77l2.08,2.33c-.63.9-1.49,1.6-2.58,2.1s-2.29.75-3.6.75Zm-.48-13.02c-.84,0-1.52.28-2.04.85-.52.57-.86,1.38-1,2.44h5.89v-.34c-.02-.94-.27-1.67-.76-2.19s-1.18-.77-2.08-.77Z"/>
    <path class="cls-2" d="m480.29,16.62c-.58-.08-1.08-.12-1.52-.12-1.6,0-2.65.54-3.15,1.63v10.37h-4.23v-15.85h4l.12,1.89c.85-1.46,2.03-2.18,3.53-2.18.47,0,.91.06,1.32.19l-.06,4.07Z"/>
    <path class="cls-2" d="m490.91,24.12c0-.52-.26-.93-.77-1.22-.51-.3-1.34-.56-2.47-.8-3.77-.79-5.65-2.39-5.65-4.8,0-1.41.58-2.58,1.75-3.52s2.69-1.41,4.58-1.41c2.01,0,3.62.47,4.83,1.42s1.81,2.18,1.81,3.69h-4.23c0-.61-.2-1.11-.59-1.5s-1-.59-1.83-.59c-.71,0-1.26.16-1.66.48s-.59.73-.59,1.23c0,.47.22.85.67,1.14s1.19.54,2.25.75,1.94.45,2.67.71c2.24.82,3.35,2.24,3.35,4.26,0,1.45-.62,2.61-1.86,3.51s-2.84,1.34-4.8,1.34c-1.33,0-2.51-.24-3.54-.71s-1.84-1.12-2.42-1.95-.88-1.72-.88-2.67h4.01c.04.75.32,1.33.83,1.73s1.21.6,2.08.6c.81,0,1.42-.15,1.84-.46.41-.31.62-.71.62-1.21Z"/>
    <path class="cls-2" d="m507.24,26.89c-1.04,1.27-2.49,1.9-4.34,1.9-1.7,0-3-.49-3.89-1.46-.89-.98-1.35-2.41-1.37-4.29v-10.39h4.23v10.25c0,1.65.75,2.48,2.26,2.48s2.42-.5,2.96-1.5v-11.23h4.25v15.85h-3.98l-.12-1.61Z"/>
    <path class="cls-2" d="m523.12,24.12c0-.52-.26-.93-.77-1.22-.51-.3-1.34-.56-2.47-.8-3.77-.79-5.65-2.39-5.65-4.8,0-1.41.58-2.58,1.75-3.52s2.69-1.41,4.58-1.41c2.01,0,3.62.47,4.83,1.42s1.81,2.18,1.81,3.69h-4.23c0-.61-.2-1.11-.59-1.5s-1-.59-1.83-.59c-.71,0-1.26.16-1.66.48s-.59.73-.59,1.23c0,.47.22.85.67,1.14s1.19.54,2.25.75,1.94.45,2.67.71c2.24.82,3.35,2.24,3.35,4.26,0,1.45-.62,2.61-1.86,3.51s-2.84,1.34-4.8,1.34c-1.33,0-2.51-.24-3.54-.71s-1.84-1.12-2.42-1.95-.88-1.72-.88-2.67h4.01c.04.75.32,1.33.83,1.73s1.21.6,2.08.6c.81,0,1.42-.15,1.84-.46.41-.31.62-.71.62-1.21Z"/>
    <path class="cls-2" d="m542.5,8.75v3.9h2.71v3.11h-2.71v7.91c0,.59.11,1.01.34,1.26s.65.38,1.29.38c.47,0,.88-.03,1.25-.1v3.21c-.83.25-1.68.38-2.56.38-2.97,0-4.48-1.5-4.54-4.5v-8.54h-2.31v-3.11h2.31v-3.9h4.23Z"/>
    <path class="cls-2" d="m547.54,8.55c0-.63.21-1.16.64-1.57.42-.41,1-.62,1.74-.62s1.3.21,1.73.62.64.93.64,1.57-.22,1.17-.65,1.58c-.44.41-1.01.62-1.72.62s-1.29-.21-1.72-.62-.65-.94-.65-1.58Zm4.5,19.95h-4.25v-15.85h4.25v15.85Z"/>
    <path class="cls-2" d="m559.5,12.65l.13,1.77c1.12-1.38,2.64-2.07,4.56-2.07,2.04,0,3.44.81,4.2,2.42,1.11-1.61,2.7-2.42,4.76-2.42,1.72,0,3,.5,3.84,1.5s1.26,2.51,1.26,4.52v10.12h-4.25v-10.11c0-.9-.18-1.56-.53-1.97s-.97-.62-1.86-.62c-1.27,0-2.15.61-2.64,1.82v10.88s-4.22,0-4.22,0v-10.09c0-.92-.18-1.58-.54-1.99s-.98-.62-1.85-.62c-1.2,0-2.07.5-2.61,1.49v11.21h-4.23v-15.85h3.97Z"/>
    <path class="cls-2" d="m588.79,28.79c-2.32,0-4.22-.71-5.68-2.14s-2.19-3.33-2.19-5.7v-.41c0-1.59.31-3.02.92-4.27s1.49-2.22,2.61-2.9c1.13-.68,2.42-1.02,3.86-1.02,2.17,0,3.87.68,5.12,2.05,1.24,1.37,1.87,3.31,1.87,5.82v1.73h-10.09c.14,1.04.55,1.87,1.24,2.49.69.62,1.56.94,2.62.94,1.63,0,2.91-.59,3.82-1.77l2.08,2.33c-.63.9-1.49,1.6-2.58,2.1s-2.29.75-3.6.75Zm-.48-13.02c-.84,0-1.52.28-2.04.85-.52.57-.86,1.38-1,2.44h5.89v-.34c-.02-.94-.27-1.67-.76-2.19s-1.18-.77-2.08-.77Z"/>
    <path class="cls-2" d="m606.34,28.5v-12.74h-2.36v-3.11h2.36v-1.35c0-1.78.51-3.16,1.53-4.14,1.02-.98,2.45-1.47,4.28-1.47.59,0,1.3.1,2.15.29l-.04,3.28c-.35-.09-.78-.13-1.29-.13-1.59,0-2.39.75-2.39,2.24v1.27h3.15v3.11h-3.15v12.74h-4.25Z"/>
    <path class="cls-2" d="m615.28,20.43c0-1.57.3-2.97.91-4.2s1.48-2.18,2.62-2.86c1.14-.67,2.46-1.01,3.96-1.01,2.14,0,3.88.65,5.24,1.96,1.35,1.31,2.11,3.09,2.26,5.33l.03,1.08c0,2.43-.68,4.38-2.04,5.85s-3.18,2.2-5.46,2.2-4.11-.73-5.47-2.2c-1.36-1.46-2.04-3.46-2.04-5.98v-.19Zm4.23.3c0,1.51.28,2.66.85,3.46.57.8,1.38,1.2,2.43,1.2s1.83-.39,2.4-1.18c.58-.79.86-2.05.86-3.78,0-1.48-.29-2.62-.86-3.43s-1.39-1.22-2.43-1.22-1.84.4-2.4,1.21-.85,2.06-.85,3.75Z"/>
    <path class="cls-2" d="m641.8,16.62c-.58-.08-1.08-.12-1.52-.12-1.6,0-2.65.54-3.15,1.63v10.37h-4.23v-15.85h4l.12,1.89c.85-1.46,2.03-2.18,3.53-2.18.47,0,.91.06,1.32.19l-.06,4.07Z"/>
    <path class="cls-2" d="m660.5,28.5c-.2-.38-.34-.85-.42-1.42-1.03,1.14-2.36,1.71-4,1.71-1.55,0-2.84-.45-3.86-1.35-1.02-.9-1.53-2.03-1.53-3.4,0-1.68.62-2.97,1.87-3.87,1.25-.9,3.04-1.35,5.4-1.36h1.95v-.91c0-.73-.19-1.32-.56-1.76-.38-.44-.97-.66-1.78-.66-.71,0-1.27.17-1.68.51-.41.34-.61.81-.61,1.41h-4.23c0-.92.28-1.77.85-2.55s1.37-1.39,2.4-1.84,2.2-.67,3.49-.67c1.95,0,3.5.49,4.65,1.47s1.72,2.36,1.72,4.14v6.87c0,1.5.22,2.64.63,3.41v.25h-4.28Zm-3.5-2.94c.62,0,1.2-.14,1.73-.42s.92-.65,1.17-1.12v-2.72h-1.58c-2.12,0-3.25.73-3.38,2.2v.25c-.01.53.17.96.54,1.3s.88.51,1.52.51Z"/>
    <path class="cls-2" d="m674.21,20.46c0-2.47.55-4.44,1.66-5.9s2.62-2.2,4.55-2.2c1.54,0,2.82.58,3.82,1.73V6h4.25v22.5h-3.82l-.21-1.68c-1.05,1.32-2.41,1.98-4.07,1.98-1.87,0-3.36-.73-4.49-2.2-1.13-1.47-1.69-3.51-1.69-6.13Zm4.23.31c0,1.49.26,2.63.78,3.42.52.79,1.27,1.19,2.26,1.19,1.31,0,2.23-.55,2.77-1.66v-6.26c-.53-1.1-1.44-1.66-2.74-1.66-2.04,0-3.06,1.66-3.06,4.97Z"/>
    <path class="cls-2" d="m700.68,16.62c-.58-.08-1.08-.12-1.52-.12-1.6,0-2.65.54-3.15,1.63v10.37h-4.23v-15.85h4l.12,1.89c.85-1.46,2.03-2.18,3.53-2.18.47,0,.91.06,1.32.19l-.06,4.07Z"/>
    <path class="cls-2" d="m701.53,20.43c0-1.57.3-2.97.91-4.2s1.48-2.18,2.62-2.86c1.14-.67,2.46-1.01,3.96-1.01,2.14,0,3.88.65,5.24,1.96,1.35,1.31,2.11,3.09,2.26,5.33l.03,1.08c0,2.43-.68,4.38-2.04,5.85s-3.18,2.2-5.46,2.2-4.11-.73-5.47-2.2c-1.36-1.46-2.04-3.46-2.04-5.98v-.19Zm4.23.3c0,1.51.28,2.66.85,3.46.57.8,1.38,1.2,2.43,1.2s1.83-.39,2.4-1.18c.58-.79.86-2.05.86-3.78,0-1.48-.29-2.62-.86-3.43s-1.39-1.22-2.43-1.22-1.84.4-2.4,1.21-.85,2.06-.85,3.75Z"/>
    <path class="cls-2" d="m733.42,20.72c0,2.44-.55,4.4-1.66,5.87s-2.6,2.2-4.49,2.2c-1.6,0-2.9-.56-3.88-1.67v7.47h-4.23V12.65h3.93l.15,1.55c1.03-1.23,2.36-1.85,4.01-1.85,1.95,0,3.47.72,4.56,2.17s1.63,3.44,1.63,5.98v.22Zm-4.23-.31c0-1.47-.26-2.61-.78-3.41-.52-.8-1.28-1.2-2.28-1.2-1.33,0-2.24.51-2.74,1.52v6.49c.52,1.04,1.44,1.57,2.77,1.57,2.02,0,3.03-1.66,3.03-4.97Z"/>
    <path class="cls-2" d="m750.31,20.72c0,2.44-.55,4.4-1.66,5.87s-2.6,2.2-4.49,2.2c-1.6,0-2.9-.56-3.88-1.67v7.47h-4.23V12.65h3.93l.15,1.55c1.03-1.23,2.36-1.85,4.01-1.85,1.95,0,3.47.72,4.56,2.17s1.63,3.44,1.63,5.98v.22Zm-4.23-.31c0-1.47-.26-2.61-.78-3.41-.52-.8-1.28-1.2-2.28-1.2-1.33,0-2.24.51-2.74,1.52v6.49c.52,1.04,1.44,1.57,2.77,1.57,2.02,0,3.03-1.66,3.03-4.97Z"/>
    <path class="cls-2" d="m760.22,28.79c-2.32,0-4.22-.71-5.68-2.14s-2.19-3.33-2.19-5.7v-.41c0-1.59.31-3.02.92-4.27s1.49-2.22,2.61-2.9c1.13-.68,2.42-1.02,3.86-1.02,2.17,0,3.87.68,5.12,2.05,1.24,1.37,1.87,3.31,1.87,5.82v1.73h-10.09c.14,1.04.55,1.87,1.24,2.49.69.62,1.56.94,2.62.94,1.63,0,2.91-.59,3.82-1.77l2.08,2.33c-.63.9-1.49,1.6-2.58,2.1s-2.29.75-3.6.75Zm-.48-13.02c-.84,0-1.52.28-2.04.85-.52.57-.86,1.38-1,2.44h5.89v-.34c-.02-.94-.27-1.67-.76-2.19s-1.18-.77-2.08-.77Z"/>
    <path class="cls-2" d="m768.48,20.46c0-2.47.55-4.44,1.66-5.9s2.62-2.2,4.55-2.2c1.54,0,2.82.58,3.82,1.73V6h4.25v22.5h-3.82l-.21-1.68c-1.05,1.32-2.41,1.98-4.07,1.98-1.87,0-3.36-.73-4.49-2.2-1.13-1.47-1.69-3.51-1.69-6.13Zm4.23.31c0,1.49.26,2.63.78,3.42.52.79,1.27,1.19,2.26,1.19,1.31,0,2.23-.55,2.77-1.66v-6.26c-.53-1.1-1.44-1.66-2.74-1.66-2.04,0-3.06,1.66-3.06,4.97Z"/>
    <path class="cls-2" d="m802.1,24.12c0-.52-.26-.93-.77-1.22-.51-.3-1.34-.56-2.47-.8-3.77-.79-5.65-2.39-5.65-4.8,0-1.41.58-2.58,1.75-3.52s2.69-1.41,4.58-1.41c2.01,0,3.62.47,4.83,1.42s1.81,2.18,1.81,3.69h-4.23c0-.61-.2-1.11-.59-1.5s-1-.59-1.83-.59c-.71,0-1.26.16-1.66.48s-.59.73-.59,1.23c0,.47.22.85.67,1.14s1.19.54,2.25.75,1.94.45,2.67.71c2.24.82,3.35,2.24,3.35,4.26,0,1.45-.62,2.61-1.86,3.51s-2.84,1.34-4.8,1.34c-1.33,0-2.51-.24-3.54-.71s-1.84-1.12-2.42-1.95-.88-1.72-.88-2.67h4.01c.04.75.32,1.33.83,1.73s1.21.6,2.08.6c.81,0,1.42-.15,1.84-.46.41-.31.62-.71.62-1.21Z"/>
    <path class="cls-2" d="m814.01,8.75v3.9h2.71v3.11h-2.71v7.91c0,.59.11,1.01.34,1.26s.65.38,1.29.38c.47,0,.88-.03,1.25-.1v3.21c-.83.25-1.68.38-2.56.38-2.97,0-4.48-1.5-4.54-4.5v-8.54h-2.31v-3.11h2.31v-3.9h4.23Z"/>
    <path class="cls-2" d="m817.98,20.43c0-1.57.3-2.97.91-4.2s1.48-2.18,2.62-2.86c1.14-.67,2.46-1.01,3.96-1.01,2.14,0,3.88.65,5.24,1.96,1.35,1.31,2.11,3.09,2.26,5.33l.03,1.08c0,2.43-.68,4.38-2.04,5.85s-3.18,2.2-5.46,2.2-4.11-.73-5.47-2.2c-1.36-1.46-2.04-3.46-2.04-5.98v-.19Zm4.23.3c0,1.51.28,2.66.85,3.46.57.8,1.38,1.2,2.43,1.2s1.83-.39,2.4-1.18c.58-.79.86-2.05.86-3.78,0-1.48-.29-2.62-.86-3.43s-1.39-1.22-2.43-1.22-1.84.4-2.4,1.21-.85,2.06-.85,3.75Z"/>
    <path class="cls-2" d="m839.5,12.65l.13,1.83c1.13-1.42,2.65-2.12,4.56-2.12,1.68,0,2.93.49,3.75,1.48s1.24,2.46,1.26,4.42v10.24h-4.23v-10.14c0-.9-.2-1.55-.59-1.96s-1.04-.61-1.95-.61c-1.19,0-2.08.51-2.68,1.52v11.18h-4.23v-15.85h3.98Z"/>
    <path class="cls-2" d="m859.7,28.79c-2.32,0-4.22-.71-5.68-2.14s-2.19-3.33-2.19-5.7v-.41c0-1.59.31-3.02.92-4.27s1.49-2.22,2.61-2.9c1.13-.68,2.42-1.02,3.86-1.02,2.17,0,3.87.68,5.12,2.05,1.24,1.37,1.87,3.31,1.87,5.82v1.73h-10.09c.14,1.04.55,1.87,1.24,2.49.69.62,1.56.94,2.62.94,1.63,0,2.91-.59,3.82-1.77l2.08,2.33c-.63.9-1.49,1.6-2.58,2.1s-2.29.75-3.6.75Zm-.48-13.02c-.84,0-1.52.28-2.04.85-.52.57-.86,1.38-1,2.44h5.89v-.34c-.02-.94-.27-1.67-.76-2.19s-1.18-.77-2.08-.77Z"/>
  </g>
  <path d="m594.63,640.45l-.54,3.07h2.31l-.29,1.68h-2.3l-1.32,7.89c-.02.2-.03.39-.01.56.05.61.39.91,1,.91.26,0,.6-.04,1.03-.12l-.16,1.77c-.51.14-1.02.21-1.55.21-.84-.02-1.48-.33-1.9-.93s-.59-1.42-.49-2.44l1.29-7.85h-2.24l.29-1.68h2.24l.54-3.07h2.11Z"/>
  <g>
    <path d="m135.98,387.12c0,.83-.32,1.54-.96,2.14s-1.69.89-3.14.89c-1.02,0-2-.16-2.92-.47-.92-.31-1.74-.74-2.46-1.3-.72-.55-1.28-1.19-1.69-1.92-.41-.73-.61-1.51-.61-2.34,0-.53.08-1,.25-1.43s.4-.77.71-1.04v-.07l-4.03-.77c-.35-.05-.61-.07-.77-.07-.21,0-.38.05-.53.14-.14.1-.22.33-.22.7,0,.14.02.38.05.72h-.62l-.26-3.29v-.53l14.02,2.66c.51.08.85.12,1.01.12s.28-.04.35-.11.11-.19.11-.35c0-.38-.15-.73-.46-1.04-.3-.31-.57-.55-.79-.71l.36-.48c.38.27.78.56,1.18.86.4.3.73.65,1,1.04.26.39.4.85.4,1.38,0,.46-.12.82-.35,1.06-.23.24-.53.36-.9.36-.14,0-.32-.02-.52-.05-.2-.03-.37-.06-.52-.07v.19c.72.58,1.29,1.17,1.7,1.79s.62,1.28.62,1.98Zm-1.58-.84c0-.53-.14-1.02-.42-1.49-.28-.46-.64-.86-1.09-1.19-.45-.33-.92-.56-1.42-.68-.94-.22-1.78-.39-2.5-.5-.72-.11-1.26-.17-1.61-.17-.46,0-.86.08-1.2.25s-.6.4-.78.7c-.18.3-.28.64-.28,1.04,0,.58.19,1.1.56,1.56s.88.86,1.5,1.2c.62.34,1.32.59,2.09.77.77.18,1.54.26,2.33.26,1.09,0,1.83-.16,2.22-.49.39-.33.59-.75.59-1.26Z"/>
    <path d="m128.75,371.14c-1.79,0-3.49-.24-5.11-.71s-3.05-1.18-4.29-2.11-2.11-1.94-2.6-3.02l1.83-.66c.84,1.14,2.15,2.03,3.91,2.67s3.83.96,6.19.96h.36c2.37,0,4.44-.32,6.21-.95s3.1-1.53,3.97-2.68l1.79.66c-.48,1.06-1.32,2.05-2.53,2.97s-2.6,1.62-4.18,2.1-3.23.74-4.95.77h-.62Z"/>
    <path d="m123.01,359.69l1.42-.11c-1.1-.9-1.65-2.11-1.65-3.64,0-1.63.64-2.75,1.93-3.36-1.29-.89-1.93-2.16-1.93-3.81,0-1.38.4-2.4,1.2-3.07s2.01-1.01,3.62-1.01h8.1v3.4h-8.09c-.72,0-1.24.14-1.58.42s-.5.78-.5,1.49c0,1.02.48,1.72,1.45,2.11h8.71s0,3.38,0,3.38h-8.07c-.73,0-1.27.14-1.59.43s-.49.78-.49,1.48c0,.96.4,1.66,1.2,2.09h8.96v3.39h-12.68v-3.18Z"/>
    <path d="m129.02,336.26c1.77,0,3.46.25,5.1.76s3.07,1.24,4.32,2.19,2.11,1.97,2.58,3.06l-1.79.66c-.84-1.11-2.12-1.98-3.87-2.62s-3.75-.97-6.01-1h-.62c-2.34,0-4.39.32-6.18.96s-3.12,1.53-4.01,2.67l-1.79-.66c.46-1.06,1.3-2.06,2.51-3.01s2.62-1.67,4.23-2.19,3.28-.79,5-.81h.53Z"/>
    <path d="m118.45,322.49v1.66h18.6v-1.66h2.61v5.06h-23.82v-5.06h2.61Z"/>
    <path d="m129.26,321.51c-1.98,0-3.55-.44-4.72-1.33s-1.76-2.1-1.76-3.64c0-1.23.46-2.25,1.38-3.06h-6.47v-3.4h18v3.06l-1.35.16c1.05.84,1.58,1.93,1.58,3.26,0,1.49-.59,2.69-1.76,3.59s-2.81,1.35-4.9,1.35Zm.25-3.39c1.19,0,2.1-.21,2.73-.62.63-.41.95-1.02.95-1.8,0-1.05-.44-1.79-1.33-2.21h-5.01c-.88.42-1.33,1.15-1.33,2.19,0,1.63,1.33,2.45,3.98,2.45Z"/>
    <path d="m129.23,307.99c-1.26,0-2.38-.24-3.36-.73s-1.75-1.18-2.29-2.09-.81-1.97-.81-3.17c0-1.71.52-3.11,1.57-4.19s2.47-1.69,4.27-1.81l.87-.02c1.95,0,3.51.54,4.68,1.63s1.76,2.54,1.76,4.37-.59,3.29-1.76,4.38-2.77,1.63-4.78,1.63h-.15Zm.24-3.39c1.21,0,2.13-.23,2.76-.68.64-.45.96-1.1.96-1.95s-.31-1.46-.95-1.92c-.63-.46-1.64-.69-3.02-.69-1.18,0-2.1.23-2.75.69s-.97,1.11-.97,1.95.32,1.47.97,1.92,1.64.68,3,.68Z"/>
    <path d="m131.09,282.87l-8.07-1.66v-3.27l12.68,3.23v2.84l-7.98,2.4,7.98,2.4v2.82l-12.68,3.23v-3.27l8.06-1.65-8.06-2.32v-2.45l8.07-2.31Z"/>
    <path d="m123.01,273.14l1.46-.11c-1.13-.91-1.7-2.12-1.7-3.64,0-1.34.39-2.34,1.18-3s1.97-.99,3.54-1.01h8.19v3.39h-8.11c-.72,0-1.24.16-1.56.47s-.49.83-.49,1.56c0,.95.41,1.67,1.22,2.14h8.94v3.39h-12.68v-3.19Z"/>
    <path d="m115.84,263.96v-5.06h23.82v5.06h-2.61v-1.68h-18.6v1.68h-2.61Z"/>
  </g>
  <rect class="cls-3" x="384.43" y="539.28" width="15.93" height="15.93" rx="7.97" ry="7.97"/>
  <rect class="cls-3" x="525.07" y="462.77" width="15.93" height="15.93" rx="7.97" ry="7.97"/>
  <rect class="cls-3" x="665.04" y="316.45" width="15.93" height="15.93" rx="7.97" ry="7.97"/>
  <rect class="cls-3" x="804.68" y="127.61" width="15.93" height="15.93" rx="7.97" ry="7.97"/>
</svg>