<?xml version="1.0" encoding="UTF-8"?><svg xmlns="http://www.w3.org/2000/svg" width="1140" height="641" xmlns:xlink="http://www.w3.org/1999/xlink" viewBox="0 0 1140 641"><defs><clipPath id="b"><path d="M-20.62,339.36c3.41,55.09-7.17,110.97-31.73,161.78-33.63,69.58-113.93,123.07-206.27,136.16-103.98,14.74-208.44-18.93-313.81-24.57-117.02-6.27-237.88,21.9-350.12-5.2-66.37-16.02-124.9-51.32-163.34-97.31-52.37-62.67-66.23-141.78-57.17-216.72,9.58-79.22,53.86-155.92,132.31-206.57C-880.08,2.55-673.39-5.19-512.25,2.13c112.51,5.11,251.17,25.97,341.16,84.46C-86.99,141.25-36.64,225.7-23.71,310.47c1.46,9.6,2.49,19.24,3.09,28.89Z" fill="none"/></clipPath><clipPath id="d"><path d="M24.04,186.76C-20.77-94.05,439.96,25.05,712.4,25.05c166.51,0,354.07-81.02,397.74,52.13,21.87,66.69-30.95,72.04,7.37,384.73,29.02,236.78-287.92,178-559.89,157.22-153.2-11.71-456.57,69.05-514.41-27.71-50.85-85.07,25.61-124.05-19.16-404.66Z" fill="none"/></clipPath><clipPath id="f"><path d="M390.45,533.11s-.38,4.89-1.14,6.85-3.31,3.85-6.41,4.49c-1.33,.38-2.68-1.14-4.82,1.37,0,0-3.06,4.22-5.25,6.22-2.18,2-10.29,7.74-16.8,7.82s-19.05-.26-23.24-6.23c-4.19-5.97,4.1-16.2,11.44-18.6,7.34-2.39,14.57-11.11,14.57-11.11,0,0,1.88-4.79,5.18-7.97,3.29-3.18,11.99,1.18,13.07,3.49s-.08,5.33-.08,5.33c4.43-.77,8.11-3.25,10.88-7.82l2.59,16.16Z" fill="none"/></clipPath><clipPath id="g"><path d="M492.52,529.62s.38,4.89,1.14,6.85c.76,1.95,3.31,3.85,6.41,4.49,1.33,.38,2.68-1.14,4.82,1.37,0,0,3.06,4.22,5.25,6.22s10.29,7.74,16.8,7.82c6.51,.07,19.05-.26,23.24-6.23,4.19-5.97-4.1-16.2-11.44-18.6-7.34-2.39-14.57-11.11-14.57-11.11,0,0-1.88-4.79-5.18-7.97-3.29-3.18-11.99,1.18-13.07,3.49-1.08,2.31,.08,5.33,.08,5.33-4.43-.77-8.11-3.25-10.88-7.82l-2.59,16.16Z" fill="none"/></clipPath></defs><g id="a"><g clip-path="url(#b)"><rect x="-1252.58" y="-29" width="1337.62" height="690.63" fill="#e3f6fc"/></g></g><g id="c"><g clip-path="url(#d)"><polygon points="1153.26 651.26 .5 650.12 .5 -14.93 1153.26 -14.93 1153.26 651.26" fill="#ace8e3"/><path d="M611.17,77.42s20.14-15.1,46.99-11.75c26.85,3.36,38.6,10.07,38.6,10.07,0,0,50.34-6.71,78.87,6.71,28.53,13.42,31.88,18.46,21.82,20.14s-214.79-1.68-214.79-1.68c0,0-8.39-15.1,1.68-16.78,10.07-1.68,26.85-6.71,26.85-6.71Z" fill="#daf7f3"/><path d="M958.17,313.42s20.14-15.1,46.99-11.75c26.85,3.36,38.6,10.07,38.6,10.07,0,0,50.34-6.71,78.87,6.71,28.53,13.42,31.88,18.46,21.82,20.14-10.07,1.68-214.79-1.68-214.79-1.68,0,0-8.39-15.1,1.68-16.78,10.07-1.68,26.85-6.71,26.85-6.71Z" fill="#daf7f3"/><path d="M-2.83,498.42s20.14-15.1,46.99-11.75c26.85,3.36,38.6,10.07,38.6,10.07,0,0,50.34-6.71,78.87,6.71,28.53,13.42,31.88,18.46,21.82,20.14-10.07,1.68-214.79-1.68-214.79-1.68,0,0-8.39-15.1,1.68-16.78,10.07-1.68,26.85-6.71,26.85-6.71Z" fill="#daf7f3"/><path d="M724.67,138.59s3.36-13.42,38.6-13.42h44.94s31.88-20.14,52.02-20.14,50.34,3.36,65.45,5.03c15.1,1.68,28.53,10.07,53.7,10.07s41.95-3.36,63.77,8.39c21.82,11.75,13.42,23.49-6.71,23.49s-320.51-1.68-328.9-1.68,8.76-13.42,17.15-11.75Z" fill="#daf7f3"/><path d="M154.67,322.59s3.36-13.42,38.6-13.42h44.94s31.88-20.14,52.02-20.14,50.34,3.36,65.45,5.03c15.1,1.68,28.53,10.07,53.7,10.07s41.95-3.36,63.77,8.39c21.82,11.75,13.42,23.49-6.71,23.49s-320.51-1.68-328.9-1.68,8.76-13.42,17.15-11.75Z" fill="#daf7f3"/><g><rect x="420.5" y="-63.5" width="310" height="738" fill="#1e393f"/><path d="M720-53V664H431V-53h289m21-21H410V685h331V-74h0Z" fill="#a5a5a5"/></g><g><polygon points="574.88 3.06 446.75 146 703 146 574.88 3.06" fill="#fff6d2"/><polygon points="574.88 126.06 446.75 269 703 269 574.88 126.06" fill="#ffe39c"/><polygon points="574.88 249.06 446.75 392 703 392 574.88 249.06" fill="#ffd364"/><polygon points="574.88 372.06 446.75 515 703 515 574.88 372.06" fill="#faa61a"/><polygon points="574.88 495.06 446.75 638 703 638 574.88 495.06" fill="#f4814e"/></g><line x1="398.5" y1="-48.5" x2="398.5" y2="182.91" fill="none" stroke="#231f20" stroke-miterlimit="10" stroke-width="10"/><g><rect x="356" y="-10" width="32" height="362" fill="#0e536b"/><rect x="274" y="-54" width="51" height="139" transform="translate(284 315) rotate(-90)" fill="#0e536b"/></g><line x1="751" y1="-48.5" x2="751" y2="233" fill="none" stroke="#231f20" stroke-miterlimit="10" stroke-width="10"/><g><rect x="761.5" y="-10" width="32" height="362" transform="translate(1555 342) rotate(-180)" fill="#0e536b"/><rect x="824.5" y="-54" width="51" height="139" transform="translate(834.5 865.5) rotate(-90)" fill="#0e536b"/></g><g><path d="M1074.96-69.48c1.47,36.83,.75,90.33,1.06,127.75-.28,37.57,.35,90.7-1.06,127.75,0,.18-.29,.18-.29,0-1.4-36.83-.78-90.33-1.06-127.75,.59-37.27-.96-91.86,1.35-127.75h0Z" fill="#fff"/><path d="M1026.96-127.48c1.47,36.83,.75,90.33,1.06,127.75-.28,37.57,.35,90.7-1.06,127.75,0,.18-.29,.18-.29,0-1.4-36.83-.78-90.33-1.06-127.75,.59-37.27-.96-91.86,1.35-127.75h0Z" fill="#fff"/><path d="M949.96-141.48c1.47,36.83,.75,90.33,1.06,127.75-.28,37.57,.35,90.7-1.06,127.75,0,.18-.29,.18-.29,0-1.4-36.83-.78-90.33-1.06-127.75,.59-37.27-.96-91.86,1.35-127.75h0Z" fill="#fff"/><path d="M848.96-80.48c1.47,36.83,.75,90.33,1.06,127.75-.28,37.57,.35,90.7-1.06,127.75,0,.18-.29,.18-.29,0-1.4-36.83-.78-90.33-1.06-127.75,.59-37.27-.96-91.86,1.35-127.75h0Z" fill="#fff"/><path d="M278.96-89.48c1.47,36.83,.75,90.33,1.06,127.75-.28,37.57,.35,90.7-1.06,127.75,0,.18-.29,.18-.29,0-1.4-36.83-.78-90.33-1.06-127.75,.59-37.27-.96-91.86,1.35-127.75h0Z" fill="#fff"/><path d="M221.96-142.48c1.47,36.83,.75,90.33,1.06,127.75-.28,37.57,.35,90.7-1.06,127.75,0,.18-.29,.18-.29,0-1.4-36.83-.78-90.33-1.06-127.75,.59-37.27-.96-91.86,1.35-127.75h0Z" fill="#fff"/><path d="M168.96-105.48c1.47,36.83,.75,90.33,1.06,127.75-.28,37.57,.35,90.7-1.06,127.75,0,.18-.29,.18-.29,0-1.4-36.83-.78-90.33-1.06-127.75,.59-37.27-.96-91.86,1.35-127.75h0Z" fill="#fff"/><path d="M76.96-92.48c1.47,36.83,.75,90.33,1.06,127.75-.28,37.57,.35,90.7-1.06,127.75,0,.18-.29,.18-.29,0-1.4-36.83-.78-90.33-1.06-127.75,.59-37.27-.96-91.86,1.35-127.75h0Z" fill="#fff"/></g></g><line x1="1096.28" y1="489.09" x2="1096.28" y2="246.29" fill="none" stroke="#0e536b" stroke-linecap="round" stroke-linejoin="round" stroke-width="37"/><line x1="43" y1="246.29" x2="43" y2="489.09" fill="none" stroke="#0e536b" stroke-linecap="round" stroke-linejoin="round" stroke-width="37"/><line x1="53.64" y1="489.09" x2="1086.08" y2="489.09" fill="none" stroke="#0e536b" stroke-linecap="round" stroke-linejoin="round" stroke-width="57"/><g><rect x="890" y="122.5" width="142" height="94.5" rx="22.16" ry="22.16" fill="#0077a2"/><rect x="831" y="206" width="261" height="275" rx="22.16" ry="22.16" fill="#0077a2"/><path d="M863.78,395.55c3.15,2.89,6.05,6.16,9.78,8.32,5.47,3.35,11.95,4.44,18.27,4.13,3.98-.01,15.34-.04,19.5-.06,35.04-.19,88.6-.09,123.49,.07,0,0,3.25,.03,3.25,.03,5.26,.27,10.52-1.18,14.67-4.49,3.22-2.83,6.23-5.99,9.42-8.87,.06-.06,.15-.05,.21,0,.05,.06,.05,.14,0,.2-1.42,1.65-2.87,3.25-4.31,4.88-1.46,1.61-2.83,3.25-4.49,4.78-4.17,3.77-9.92,5.62-15.5,5.41,0,0-3.25,.03-3.25,.03-40.32,.21-96.13,.23-136.49,.04-3.62-.08-9.5,.16-13.1-.31-6.64-.86-12.92-4.09-17.39-9.04-1.45-1.63-2.87-3.26-4.26-4.92-.12-.13,.09-.33,.21-.2h0Z" fill="#1e393f"/><path d="M1075.08,208.48c-5.92,3.3-10.8,9.35-10.75,16.33,0,0,.21,20.81,.21,20.81,.52,54.67,.3,111.74,.42,166.57-.1,3.46,.14,12.25-.04,15.68-.48,9.5-9.04,16.4-17.71,18.56-3.32,.94-7.17,1.06-10.61,1.03-34.13,.08-80.22,.05-114.52,.02-6.74-.03-24.67,0-31.23-.03-8.96,.37-18.36-2.25-24.42-9.2-2.37-2.81-4.06-6.25-4.48-9.95-.22-3.51-.08-12.11-.1-15.74,0,0,.05-41.64,.05-41.64,.04-44.76,.09-90.53,.54-135.34-.03-2.46,.32-7.8-.23-10.29-.98-5.04-4.39-9.39-8.56-12.31,0,0-4.21-3.07-4.21-3.07-.15-.1,.02-.35,.17-.24,0,0,4.29,2.95,4.29,2.95,5.96,3.79,10.09,10.57,9.61,17.76,.49,46.57,.47,94.01,.49,140.54,0,0,.02,41.64,.02,41.64v10.41c-.28,5.16,.59,9.89,4.09,13.82,5.65,6.43,14.4,8.75,22.73,8.38,6.48-.02,24.49-.01,31.23-.03,34.35-.12,80.32,.03,114.52,.02,3.23,.05,6.91-.07,10.04-.94,7.8-1.94,15.6-8,16.06-16.49,.09-3.23,.06-12.14,.07-15.55,.06-54.87-.04-111.85,.42-166.57,.08-6.94,.09-13.87,.23-20.83,.1-3.58,1.43-7.04,3.53-9.87,2.09-2.85,4.93-5.05,7.98-6.7,.16-.11,.32,.16,.15,.25h0Z" fill="#1e393f"/><path d="M867.32,390.33c-.08-.28,0-.09,0-.16l.04-.02,.09-.03,.17-.07,.35-.13c7.18-2.76,14.95-3.9,22.61-3.85,7.87-.1,15.74-.07,23.61-.11,34.37-.17,83.83-.14,118.03,.13,3.99,.04,8,.56,11.85,1.58,3.86,.99,7.57,2.51,11.01,4.44,.07,.04,.1,.13,.06,.2-.04,.07-.12,.09-.19,.07-3.63-1.52-7.37-2.68-11.18-3.45-3.81-.75-7.68-1.07-11.56-.99-7.87,.1-15.74,.09-23.61,.13-23.55,.14-70.89,.15-94.43,0-7.87-.04-15.74-.01-23.61-.11-7.36-.25-14.64,.39-21.78,2.15,0,0-.72,.17-.72,.17l-.36,.09-.18,.04-.09,.02h-.04s.02,.16-.09-.12h0Z" fill="#1e393f"/></g><g><rect x="630" y="122.5" width="142" height="94.5" rx="22.16" ry="22.16" fill="#0077a2"/><rect x="571" y="206" width="261" height="275" rx="22.16" ry="22.16" fill="#0077a2"/><path d="M603.78,395.55c3.15,2.89,6.05,6.16,9.78,8.32,5.47,3.35,11.95,4.44,18.27,4.13,3.98-.01,15.34-.04,19.5-.06,35.04-.19,88.6-.09,123.49,.07,0,0,3.25,.03,3.25,.03,5.26,.27,10.52-1.18,14.67-4.49,3.22-2.83,6.23-5.99,9.42-8.87,.06-.06,.15-.05,.21,0,.05,.06,.05,.14,0,.2-1.42,1.65-2.87,3.25-4.31,4.88-1.46,1.61-2.83,3.25-4.49,4.78-4.17,3.77-9.92,5.62-15.5,5.41,0,0-3.25,.03-3.25,.03-40.32,.21-96.13,.23-136.49,.04-3.62-.08-9.5,.16-13.1-.31-6.64-.86-12.92-4.09-17.39-9.04-1.45-1.63-2.87-3.26-4.26-4.92-.12-.13,.09-.33,.21-.2h0Z" fill="#1e393f"/><path d="M815.08,208.48c-5.92,3.3-10.8,9.35-10.75,16.33,0,0,.21,20.81,.21,20.81,.52,54.67,.3,111.74,.42,166.57-.1,3.46,.14,12.25-.04,15.68-.48,9.5-9.04,16.4-17.71,18.56-3.32,.94-7.17,1.06-10.61,1.03-34.13,.08-80.22,.05-114.52,.02-6.74-.03-24.67,0-31.23-.03-8.96,.37-18.36-2.25-24.42-9.2-2.37-2.81-4.06-6.25-4.48-9.95-.22-3.51-.08-12.11-.1-15.74,0,0,.05-41.64,.05-41.64,.04-44.76,.09-90.53,.54-135.34-.03-2.46,.32-7.8-.23-10.29-.98-5.04-4.39-9.39-8.56-12.31,0,0-4.21-3.07-4.21-3.07-.15-.1,.02-.35,.17-.24,0,0,4.29,2.95,4.29,2.95,5.96,3.79,10.09,10.57,9.61,17.76,.49,46.57,.47,94.01,.49,140.54,0,0,.02,41.64,.02,41.64v10.41c-.28,5.16,.59,9.89,4.09,13.82,5.65,6.43,14.4,8.75,22.73,8.38,6.48-.02,24.49-.01,31.23-.03,34.35-.12,80.32,.03,114.52,.02,3.23,.05,6.91-.07,10.04-.94,7.8-1.94,15.6-8,16.06-16.49,.09-3.23,.06-12.14,.07-15.55,.06-54.87-.04-111.85,.42-166.57,.08-6.94,.09-13.87,.23-20.83,.1-3.58,1.43-7.04,3.53-9.87,2.09-2.85,4.93-5.05,7.98-6.7,.16-.11,.32,.16,.15,.25h0Z" fill="#1e393f"/><path d="M607.32,390.33c-.08-.28,0-.09,0-.16l.04-.02,.09-.03,.17-.07,.35-.13c7.18-2.76,14.95-3.9,22.61-3.85,7.87-.1,15.74-.07,23.61-.11,34.37-.17,83.83-.14,118.03,.13,3.99,.04,8,.56,11.85,1.58,3.86,.99,7.57,2.51,11.01,4.44,.07,.04,.1,.13,.06,.2-.04,.07-.12,.09-.19,.07-3.63-1.52-7.37-2.68-11.18-3.45-3.81-.75-7.68-1.07-11.56-.99-7.87,.1-15.74,.09-23.61,.13-23.55,.14-70.89,.15-94.43,0-7.87-.04-15.74-.01-23.61-.11-7.36-.25-14.64,.39-21.78,2.15,0,0-.72,.17-.72,.17l-.36,.09-.18,.04-.09,.02h-.04s.02,.16-.09-.12h0Z" fill="#1e393f"/></g><g><rect x="369" y="122.5" width="142" height="94.5" rx="22.16" ry="22.16" fill="#0077a2"/><rect x="310" y="206" width="261" height="275" rx="22.16" ry="22.16" fill="#0077a2"/><path d="M342.78,395.55c3.15,2.89,6.05,6.16,9.78,8.32,5.47,3.35,11.95,4.44,18.27,4.13,3.98-.01,15.34-.04,19.5-.06,35.04-.19,88.6-.09,123.49,.07,0,0,3.25,.03,3.25,.03,5.26,.27,10.52-1.18,14.67-4.49,3.22-2.83,6.23-5.99,9.42-8.87,.06-.06,.15-.05,.21,0,.05,.06,.05,.14,0,.2-1.42,1.65-2.87,3.25-4.31,4.88-1.46,1.61-2.83,3.25-4.49,4.78-4.17,3.77-9.92,5.62-15.5,5.41,0,0-3.25,.03-3.25,.03-40.32,.21-96.13,.23-136.49,.04-3.62-.08-9.5,.16-13.1-.31-6.64-.86-12.92-4.09-17.39-9.04-1.45-1.63-2.87-3.26-4.26-4.92-.12-.13,.09-.33,.21-.2h0Z" fill="#1e393f"/><path d="M554.08,208.48c-5.92,3.3-10.8,9.35-10.75,16.33,0,0,.21,20.81,.21,20.81,.52,54.67,.3,111.74,.42,166.57-.1,3.46,.14,12.25-.04,15.68-.48,9.5-9.04,16.4-17.71,18.56-3.32,.94-7.17,1.06-10.61,1.03-34.13,.08-80.22,.05-114.52,.02-6.74-.03-24.67,0-31.23-.03-8.96,.37-18.36-2.25-24.42-9.2-2.37-2.81-4.06-6.25-4.48-9.95-.22-3.51-.08-12.11-.1-15.74,0,0,.05-41.64,.05-41.64,.04-44.76,.09-90.53,.54-135.34-.03-2.46,.32-7.8-.23-10.29-.98-5.04-4.39-9.39-8.56-12.31,0,0-4.21-3.07-4.21-3.07-.15-.1,.02-.35,.17-.24,0,0,4.29,2.95,4.29,2.95,5.96,3.79,10.09,10.57,9.61,17.76,.49,46.57,.47,94.01,.49,140.54,0,0,.02,41.64,.02,41.64v10.41c-.28,5.16,.59,9.89,4.09,13.82,5.65,6.43,14.4,8.75,22.73,8.38,6.48-.02,24.49-.01,31.23-.03,34.35-.12,80.32,.03,114.52,.02,3.23,.05,6.91-.07,10.04-.94,7.8-1.94,15.6-8,16.06-16.49,.09-3.23,.06-12.14,.07-15.55,.06-54.87-.04-111.85,.42-166.57,.08-6.94,.09-13.87,.23-20.83,.1-3.58,1.43-7.04,3.53-9.87,2.09-2.85,4.93-5.05,7.98-6.7,.16-.11,.32,.16,.15,.25h0Z" fill="#1e393f"/><path d="M346.32,390.33c-.08-.28,0-.09,0-.16l.04-.02,.09-.03,.17-.07,.35-.13c7.18-2.76,14.95-3.9,22.61-3.85,7.87-.1,15.74-.07,23.61-.11,34.37-.17,83.83-.14,118.03,.13,3.99,.04,8,.56,11.85,1.58,3.86,.99,7.57,2.51,11.01,4.44,.07,.04,.1,.13,.06,.2-.04,.07-.12,.09-.19,.07-3.63-1.52-7.37-2.68-11.18-3.45-3.81-.75-7.68-1.07-11.56-.99-7.87,.1-15.74,.09-23.61,.13-23.55,.14-70.89,.15-94.43,0-7.87-.04-15.74-.01-23.61-.11-7.36-.25-14.64,.39-21.78,2.15,0,0-.72,.17-.72,.17l-.36,.09-.18,.04-.09,.02h-.04s.02,.16-.09-.12h0Z" fill="#1e393f"/></g><g><rect x="108" y="122.5" width="142" height="94.5" rx="22.16" ry="22.16" fill="#0077a2"/><rect x="49" y="206" width="261" height="275" rx="22.16" ry="22.16" fill="#0077a2"/><path d="M81.78,395.55c3.15,2.89,6.05,6.16,9.78,8.32,5.47,3.35,11.95,4.44,18.27,4.13,3.98-.01,15.34-.04,19.5-.06,35.04-.19,88.6-.09,123.49,.07,0,0,3.25,.03,3.25,.03,5.26,.27,10.52-1.18,14.67-4.49,3.22-2.83,6.23-5.99,9.42-8.87,.06-.06,.15-.05,.21,0,.05,.06,.05,.14,0,.2-1.42,1.65-2.87,3.25-4.31,4.88-1.46,1.61-2.83,3.25-4.49,4.78-4.17,3.77-9.92,5.62-15.5,5.41,0,0-3.25,.03-3.25,.03-40.32,.21-96.13,.23-136.49,.04-3.62-.08-9.5,.16-13.1-.31-6.64-.86-12.92-4.09-17.39-9.04-1.45-1.63-2.87-3.26-4.26-4.92-.12-.13,.09-.33,.21-.2h0Z" fill="#1e393f"/><path d="M293.08,208.48c-5.92,3.3-10.8,9.35-10.75,16.33,0,0,.21,20.81,.21,20.81,.52,54.67,.3,111.74,.42,166.57-.1,3.46,.14,12.25-.04,15.68-.48,9.5-9.04,16.4-17.71,18.56-3.32,.94-7.17,1.06-10.61,1.03-34.13,.08-80.22,.05-114.52,.02-6.74-.03-24.67,0-31.23-.03-8.96,.37-18.36-2.25-24.42-9.2-2.37-2.81-4.06-6.25-4.48-9.95-.22-3.51-.08-12.11-.1-15.74,0,0,.05-41.64,.05-41.64,.04-44.76,.09-90.53,.54-135.34-.03-2.46,.32-7.8-.23-10.29-.98-5.04-4.39-9.39-8.56-12.31,0,0-4.21-3.07-4.21-3.07-.15-.1,.02-.35,.17-.24,0,0,4.29,2.95,4.29,2.95,5.96,3.79,10.09,10.57,9.61,17.76,.49,46.57,.47,94.01,.49,140.54,0,0,.02,41.64,.02,41.64v10.41c-.28,5.16,.59,9.89,4.09,13.82,5.65,6.43,14.4,8.75,22.73,8.38,6.48-.02,24.49-.01,31.23-.03,34.35-.12,80.32,.03,114.52,.02,3.23,.05,6.91-.07,10.04-.94,7.8-1.94,15.6-8,16.06-16.49,.09-3.23,.06-12.14,.07-15.55,.06-54.87-.04-111.85,.42-166.57,.08-6.94,.09-13.87,.23-20.83,.1-3.58,1.43-7.04,3.53-9.87,2.09-2.85,4.93-5.05,7.98-6.7,.16-.11,.32,.16,.15,.25h0Z" fill="#1e393f"/><path d="M85.32,390.33c-.08-.28,0-.09,0-.16l.04-.02,.09-.03,.17-.07,.35-.13c7.18-2.76,14.95-3.9,22.61-3.85,7.87-.1,15.74-.07,23.61-.11,34.37-.17,83.83-.14,118.03,.13,3.99,.04,8,.56,11.85,1.58,3.86,.99,7.57,2.51,11.01,4.44,.07,.04,.1,.13,.06,.2-.04,.07-.12,.09-.19,.07-3.63-1.52-7.37-2.68-11.18-3.45-3.81-.75-7.68-1.07-11.56-.99-7.87,.1-15.74,.09-23.61,.13-23.55,.14-70.89,.15-94.43,0-7.87-.04-15.74-.01-23.61-.11-7.36-.25-14.64,.39-21.78,2.15,0,0-.72,.17-.72,.17l-.36,.09-.18,.04-.09,.02h-.04s.02,.16-.09-.12h0Z" fill="#1e393f"/></g><g><path d="M998.95,217.19c.3-.65,22.39-4.75,43.34,12.09,20.95,16.84,70.13,33.09,66.71,62.72-1.23,10.64-22,24-44,16-9.42-3.43-48.23-29.51-48-30,.78-1.65-26.18-43.21-18.05-60.81Z" fill="#d34c09"/><path d="M929.21,157.35c2.94-11.91,6.97-24.95,12.5-36.68,5.08-10.79,26.8-18.7,30.3-18.48,3.49,.23-6.51,18.28-6.2,19.95,.3,1.67,11.78-18.72,14.44-18.35s16.32,2.38,25.67,20.53c5.73,11.12,3.85,45.92,.09,65.68,0,0-8,31-47,27-42.96-4.41-29.79-59.65-29.79-59.65Z" fill="#140d0d"/><path d="M918.65,189.83c-1.2-12.65-.75-24.44,1.75-31.49,6.46-18.23,26.21-33.8,37.22-32.28,11.01,1.52,14.81,3.8,14.81,3.8,1.14,0,6.84,.38,11.77,3.42s10.63,7.98,11.77,17.09c.67,5.37,2.92,20.08,3.65,37.63l-80.98,1.84Z" fill="#140d0d"/><path d="M933.06,211.48s-9.62-9.62,27.35-9.62,37.48,7.6,38.99,10.63c1.52,3.04-31.4,26.33-33.42,26.33s-32.92-27.35-32.92-27.35Z" fill="#d34c09"/><path d="M927.49,214.02s-19.24,.51-30.39,9.62c-11.14,9.12-49.53,54-47.51,67.16,2.03,13.17,13.67,22.28,27.85,20.76s56.12-52.48,58.65-63.11c2.53-10.63-8.61-34.44-8.61-34.44Z" fill="#d34c09"/><path d="M913.31,220.6c10.19-4.48,10.57-12.34,47.1-13.17,22.28-.51,49.5,4.43,56.09,9.5,6.58,5.06,23.93,58.11,0,85.46-14.07,16.08-81.98,6.52-93.44,1.14-29.37-13.8-22.41-77.36-9.75-82.93Z" fill="#d34c09"/><path d="M915.48,278.14s-8.75,72.19-8.48,86.86c.4,21.86,97.5,47.79,130,1,7.67-11.04-15.75-81.78-20.31-87.86s-101.21,0-101.21,0Z" fill="#d34c09"/><path d="M933.87,322.96c.19,3.24-.84,6.18-1.69,9.14-2.03,6.47-7.09,21.76-14.26,23.48-.14,.03-.25-.16-.13-.26,6.29-6.63,9.2-15.47,12.33-23.89,1.04-2.87,1.75-5.83,3.47-8.55,.07-.13,.28-.08,.29,.07h0Z" fill="#72280a"/><path d="M1002.18,309.68c1.73,3.15,2.52,6.5,3.69,9.75,3.53,9.35,7.03,19.82,15.79,25.51,.13,.07,.07,.29-.08,.28-9.28-.78-15.39-17.4-17.77-25.12-.98-3.37-2.09-6.72-1.91-10.36,0-.15,.22-.2,.29-.06h0Z" fill="#72280a"/><path d="M923.49,327.63c3.65,2.14,7.3,4.27,10.95,6.41" fill="#c87550"/><path d="M931.94,322.28c9.67-2.99,24.26-4.56,34.31-6.46,9-1.34,23.39-3.93,32.3-4.97,.56-.08,1.67-.18,2.15-.36,.11-.04,.22,.11,.14,.2-.21,.24-.35,.27-.53,.38-2.5,1.16-5.23,1.79-7.89,2.44-8.55,1.81-17.17,3.24-25.78,4.69-5.75,.91-11.5,1.81-17.26,2.63-5.76,.8-11.49,1.84-17.39,1.75-.16,0-.2-.25-.04-.29h0Z" fill="#72280a"/><path d="M992.24,173.07c-.56,21.45-17.05,32.83-29.16,32.62-8.26-.14-28.99-9.83-29.16-32.62-.14-19.23,8.21-35.32,28.58-35.6,21.49-.29,30.22,16.86,29.73,35.6Z" fill="#d18161"/><ellipse cx="950.28" cy="172.02" rx="2.91" ry="3.12" transform="translate(-7.91 51.6) rotate(-3.1)" fill="#001415"/><path d="M915.54,332.48c0,1.91-7.95,59.01-3.9,69.53,4.05,10.52,96.67,8.51,111.36-2.01,14.69-10.52,20.37-33.69,10-53-12.65-23.56-28.07-27.94-40-21-12.77,7.43-30,29-40,23-26.18-15.71-37.46-16.52-37.46-16.52Z" fill="#355d66"/><ellipse cx="975.87" cy="172.02" rx="2.91" ry="3.12" transform="translate(-7.87 52.98) rotate(-3.1)" fill="#001415"/><path d="M940.85,170.24s7.23-4.24,10.63-3.57c3.4,.66,7.37,5.69,7.37,5.69,0,0,.79-6.35-.26-7.41s-6.09-5.56-10.85-3.97c-4.76,1.59-6.88,9.26-6.88,9.26Z" fill="#d18161"/><path d="M974.67,187.46c-.05,4.71-7.23,5.56-10.84,5.65-2.34-.06-4.42-.75-6.42-1.63-2.11-1.04-4.39-2.16-5.38-4.51-.22-.59,.08-1.24,.66-1.46,.62-.2,1.11-.21,1.68-.3,6-.38,12.13-.66,18.04,.61,.91,.25,1.82,.51,2.66,1.05,.07,.04,.09,.13,.04,.2-.04,.06-.11,.07-.18,.06-1.77-.16-3.6-.08-5.4-.1-5.32,.04-10.75-.11-16.02,.69,0,0,.75-1.52,.75-1.52,.82,1.46,2.63,2.36,4.12,3.12,4.42,2.25,9.57,1.9,13.99-.03,.83-.41,1.55-.95,2-1.89,.05-.14,.28-.1,.29,.04h0Z" fill="#3a1316"/><path d="M979.37,199.61l-.72,23.3s-5.81,4.68-15.32,4.77c-10.51,.1-14.78-5.87-14.78-5.87l1.23-24.03,29.6,1.82Z" fill="#d18161"/><path d="M966.19,168.71c1.42,1.36,1.59,3.05,2.02,4.68,.44,2.38,1.35,5.2,.16,7.6-1.81,2.24-6.99,1.07-8.77-.65-.1-.08-.05-.26,.08-.28,1.79-.34,3.37-.04,4.88,0,.73,.01,1.52-.11,1.81-.32,.16-.16,0,.08,.1-.24,.19-1.83-.2-3.76-.41-5.7-.18-1.63-.75-3.16-.15-5.01,.03-.12,.2-.16,.28-.08h0Z" fill="#5e1f21"/><path d="M941.77,169.96c.21-3.25,5.04-4.41,7.7-4.51,2.03,.04,3.61,1.11,4.95,2.01,1.27,.88,2.5,1.82,3.08,3.46,.03,.09-.01,.18-.1,.21-2.83-.45-5.05-3.07-7.69-3.27-1.3,.04-2.64,.2-3.88,.59-1.41,.46-2.31,1.2-3.82,1.66-.11,.04-.22-.05-.22-.16h0Z" fill="#001415"/><path d="M986.81,176.1c0,5.66-.4,10.25,4.83,10.25,4.64,0,10.05-3.87,10.83-10.44,.66-5.62-1.92-9.47-7.15-9.47-5.23,0-8.51,4.01-8.51,9.67Z" fill="#d18161"/><path d="M997.87,170.44c-.21,1.11-.7,1.17-1.11,1.54-.4,.34-.77,.68-1.11,1.03-.43,.42-.83,.89-1.16,1.4-.26,.47-.5,.64-1.18,.95-.09,.04-.2,.01-.27-.05-.78-.76-.53-1.53-.26-2.17,.26-.67,.64-1.31,1.14-1.81,.5-.51,1.09-.91,1.71-1.19,.62-.25,1.22-.71,2.15,.03,.09,.07,.11,.18,.08,.28h0Z" fill="#5e1f21"/><g><path d="M937.61,176.1c0,5.66,.4,10.25-4.83,10.25-4.64,0-10.05-3.87-10.83-10.44-.66-5.62,1.92-9.47,7.15-9.47,5.23,0,8.51,4.01,8.51,9.67Z" fill="#d18161"/><path d="M926.63,170.16c.93-.74,1.54-.28,2.15-.03,1.28,.57,2.37,1.66,2.85,3,.27,.64,.52,1.41-.26,2.17-.08,.08-.2,.09-.29,.04-.68-.31-.89-.46-1.16-.94-.33-.51-.73-.98-1.16-1.4-.34-.35-.71-.69-1.11-1.03-.41-.36-.89-.43-1.11-1.54-.03-.1,0-.22,.08-.28h0Z" fill="#5e1f21"/></g><path d="M939.14,163.46c1.15-2.39,3.31-4.77,6.13-5,2.86-.15,5.66,.21,8.42,.93,1.78,.55,3.6,1.03,4.96,2.46,.41,.45-.02,1.22-.62,1.11-1.21-.22-3.51-.24-4.85-.29-2.57-.06-5.17-.24-7.72-.29-1.81,.13-3.31,1.31-5.32,2.05-.6,.31-1.3-.37-1.01-.97h0Z" fill="#001415"/><path d="M986.24,164.43c-1.7-.65-3.3-1.7-4.99-2.05-2.71,.01-5.78,.24-8.6,.29-1.22,.04-3.65,.06-4.73,.25-.45,.13-.98,.03-1.07-.52,.71-3.1,13.12-4.79,15.81-3.61,2.13,.93,3.62,2.63,4.59,4.66,.29,.61-.41,1.28-1.01,.97h0Z" fill="#001415"/><path d="M976.4,138.64s-9.35,5.34-13.8,5.57c-4.32,.22-15.14-2.45-18.03-2.45s-20.26,2.23-20.26,1.56,14.47-21.93,32.06-21.04c17.59,.89,20.04,16.36,20.04,16.36Z" fill="#140d0d"/><path d="M973.58,136.05s4.99,11,6.33,13.67c1.34,2.67,8.41,5.52,11.9,16.21,1.04,3.17,4.23-18.8-1.52-23.8-7.85-6.84-16.71-6.08-16.71-6.08Z" fill="#140d0d"/><path d="M943.19,172.89c.5,.32,10.35,.49,13.02,2.43,2.67,1.94-7.01,5.17-9.68,2.43s-3.34-4.85-3.34-4.85Z" fill="#d18161"/><path d="M984.06,170.13c-2.9-.75-4.88-2.21-8.03-2.23-1.24-.18-2.34,.43-3.42,1.07-1.19,.73-2.16,1.75-3.85,2.16-.12,.03-.23-.08-.21-.2,.34-1.76,1.58-2.75,2.82-3.73,1.31-1.03,3.04-1.95,4.82-1.7,2.74,.26,7.23,1.37,8.08,4.44,.03,.13-.1,.24-.22,.2h0Z" fill="#001415"/><path d="M985.88,171.99c-.5,.37-10.35,.56-13.02,2.8-2.67,2.24,7.01,5.96,9.68,2.8,2.67-3.17,3.34-5.59,3.34-5.59Z" fill="#d18161"/><g><path d="M954.33,231.74c-1.72-.62,24.31-4.43,26.33-23.17,7.6-6.08,19.24,1.39,20.26,5.95,1.01,4.56-6.08,31.9-46.59,17.22Z" fill="#d34c09"/><path d="M947.37,208.06s4.24,17.6,22.38,19.62c18.13,2.03-20.66,22.28-31.11,6.58-10.45-15.7-9.51-26.84-2.54-28.87,6.96-2.03,11.28,2.66,11.28,2.66Z" fill="#d34c09"/><path d="M966.7,227.42c2.42-1.71,5.1-2.25,7.6-3.35,7.18-2.92,15.33-7.59,13.58-16.56-.05-.14,.15-.26,.25-.15,1.07,1.08,1.61,2.59,1.68,4.12-.08,7.89-8.24,12.34-14.74,14.61-2.65,.94-5.44,1.83-8.31,1.62-.14,0-.2-.21-.07-.28h0Z" fill="#72280a"/><path d="M932.64,222.12c2.6-.2,5.18,.33,7.74,.75,0,0,7.7,1.26,7.7,1.26l7.67,1.41c2.6,.48,5.15,.85,7.58,2,.08,.03,.12,.13,.08,.21-2.65,.85-5.42,.18-8-.09-5.18-.67-10.33-1.54-15.44-2.66-2.54-.63-5.16-.84-7.51-2.63-.09-.07-.05-.24,.07-.24,0,0,.09,0,.09,0h0Z" fill="#72280a"/><path d="M981.7,229.08c.89,5.64,.7,11.25,.83,16.87,.4,16.8,.48,33.65,2.96,50.3,.05,.16-.2,.26-.27,.1-2.63-5.13-3.05-10.97-3.66-16.58-.55-5.63-.81-11.27-1.03-16.9-.15-5.64-.22-11.27-.16-16.91,.08-5.63-.05-11.27,1.04-16.89,.02-.15,.28-.16,.29,0h0Z" fill="#ffb89c"/><path d="M953.48,229.08c1.08,5.61,.96,11.25,1.04,16.89,.06,5.64-.01,11.27-.16,16.91-.22,5.64-.48,11.27-1.03,16.9-.61,5.62-1.03,11.45-3.66,16.58-.07,.15-.32,.06-.27-.1,2.48-16.65,2.56-33.5,2.96-50.3,.13-5.62-.05-11.23,.83-16.87,.02-.16,.27-.17,.29,0h0Z" fill="#ffb89c"/></g><path d="M897.95,197.58h0c5.39,.97,9.76,5.29,11.11,10.98l17.66,74.65c3.35,14.14,15.08,24.14,28.29,24.06l17.97-.12c12.56-.08,23.19-9.32,26.14-22.6l17.43-78.51c1.21-5.45,5.66-9.15,10.9-9.08h0" fill="none" stroke="#2b3133" stroke-linecap="round" stroke-linejoin="round" stroke-width="30"/><path d="M954.36,134.63s-12.36,7.68-17.03,23.04c-2.7,8.86,2.67,40.33-4.33,53.33-3.18,5.9-15.45-.34-24-9-10.86-11-18-26-18-26,0,0,13,1,18,8,6.63,9.28-1.72,5.4,4.96-25.66,2.23-10.38,12.38-30.05,26.07-30.72,13.69-.67,14.33,7.01,14.33,7.01Z" fill="#140d0d"/><g><g><path d="M1037.89,251.19c-.05-.69-.79-4.81-2.98-6.51s-7.74-8.12-10.86-10.15c-4.84-3.15-15.03-6.43-18.77-3.83-2.21,1.54-4.24,2.37-4.24,2.37,0,0-4.36,.52-5.28,4.06s2.05,9.81,2.05,9.81c0,0,.08,4.62,2.09,7.03,2.01,2.41,24.09,17.59,31.04,10.87,6.95-6.71,6.95-13.66,6.95-13.66Z" fill="#c87550"/><path d="M1006.22,233.29c1.67-.25,2.82,.52,4.09,1.06,1.26,.56,2.49,1.15,3.71,1.78,1.22,.63,2.41,1.31,3.59,2.01,1.18,.7,2.43,1.27,3.23,2.72,.06,.11-.01,.25-.14,.26-1.64,.18-2.83-.51-4.08-1.07-1.25-.56-2.5-1.14-3.72-1.78-1.22-.63-2.42-1.3-3.6-2.01-1.17-.72-2.46-1.22-3.23-2.73-.06-.11,.02-.25,.14-.26h0Z" fill="#5e1f21"/><path d="M995.84,237.01c2.05,.15,3.47,1.25,5.05,2.12,1.56,.89,3.11,1.81,4.63,2.75,2.97,2.04,6.29,3.52,8.83,6.13,.11,.08,.07,.27-.07,.28-2.12,.19-3.7-.87-5.3-1.68-1.61-.85-3.19-1.73-4.72-2.68-1.54-.95-3.05-1.94-4.53-2.98-1.47-1.05-3.07-1.89-4.05-3.7-.06-.11,.03-.26,.16-.25h0Z" fill="#5e1f21"/><path d="M997.92,247.28c1.67-.07,2.72,.79,3.91,1.42,1.18,.65,2.35,1.33,3.5,2.03,1.15,.69,2.28,1.43,3.41,2.15,1.14,.73,2.32,1.29,3.14,2.7,.06,.1,0,.25-.13,.26-1.63,.23-2.83-.5-4.06-1.1-2.47-1.2-4.81-2.62-7.02-4.22-1.09-.82-2.33-1.43-2.91-3.01-.04-.11,.04-.24,.16-.24h0Z" fill="#5e1f21"/></g><path d="M1026.65,246.46c6.1-.69,27.86,9,38.88,18.03,13.05,10.69,4.72,16.47,1.46,21.67-1.56,2.48-4.76,3.33-7.35,1.96l-42.41-26.35,9.42-15.3Z" fill="#c87550"/><g><path d="M1074.06,314.1c7.27,3.47,30.43,4.06,38.55-14.29,6.17-13.97-22.31-53-72.44-55.67-12.56,10.46-12.8,28.02-12.8,28.02,0,0,31.27,34.58,46.7,41.95Z" fill="#d34c09"/><path d="M1048.42,244.62c-.3,3.2-1.66,5.95-2.77,8.8-1.13,2.85-2.33,5.66-3.52,8.48-1.23,2.8-2.46,5.6-3.75,8.38-1.28,2.78-2.43,5.62-4.48,8.07-.09,.11-.29,.03-.27-.12,.37-3.17,1.64-5.96,2.78-8.8,1.13-2.85,2.32-5.66,3.51-8.49,1.23-2.8,2.45-5.61,3.74-8.38,1.31-2.77,2.37-5.64,4.49-8.06,.09-.11,.29-.03,.27,.12h0Z" fill="#72280a"/></g><path d="M1101.19,275.22c-9.65-6.56-18.58-13.94-28.91-19.39-5.07-2.78-10.29-5.28-15.71-7.24-5.4-2-11.03-3.3-16.73-3.89l.57-.19c-1.65,1.17-3.34,2.01-4.65,3.55-.06,.06-.15,.06-.21,0-.05-.04-.06-.11-.03-.17,.42-.94,.93-1.87,1.68-2.61,.75-.74,1.47-1.35,2.17-2.04,.13-.13,.29-.19,.46-.19,3.01,0,6.01,.41,8.94,1.03,14.47,3.12,27.63,10.56,39.47,19.22,4.72,3.48,9.36,7.13,13.14,11.68,.11,.12-.06,.32-.19,.22h0Z" fill="#72280a"/><path d="M1060.9,305.11c-3.3-1.72-6-4.11-8.81-6.37-2.82-2.26-5.65-4.51-8.44-6.82-5.54-4.67-11.43-9.73-14.38-16.55,0,0,.37,.37,.37,.37-2.9-1.42-2.94-5.23-1.77-7.77,.06-.15,.3-.1,.28,.07-.13,1.31-.2,2.64,.12,3.8,.3,1.17,1.05,2,2.11,2.43,.13,.05,.23,.14,.3,.25,1.86,3.05,3.93,5.92,6.52,8.43,5.09,5.02,10.89,9.41,16.27,14.17,2.74,2.37,5.52,4.72,7.65,7.78,.09,.12-.06,.3-.2,.22h0Z" fill="#72280a"/></g><g><g><path d="M902.13,253.53c-.04-.67,.12-4.73,1.95-6.66,1.83-1.93,6.17-8.84,8.82-11.2,4.1-3.67,13.17-8.17,16.98-6.16,2.25,1.19,4.25,1.72,4.25,1.72,0,0,4.13-.07,5.43,3.21,1.31,3.28-.66,9.72-.66,9.72,0,0,.52,4.46-1.05,7.05-1.57,2.59-20.18,20.12-27.51,14.57-7.33-5.55-8.21-12.24-8.21-12.24Z" fill="#c87550"/><path d="M929.49,232.35c-.47,1.57-1.62,2.21-2.61,3.06-1.01,.83-2.03,1.64-3.09,2.41-1.05,.77-2.14,1.49-3.24,2.2-1.1,.7-2.11,1.53-3.71,1.56-.12,0-.21-.12-.17-.24,.51-1.51,1.61-2.22,2.62-3.05,1.01-.83,2.03-1.65,3.08-2.42,1.05-.77,2.13-1.5,3.23-2.21,1.11-.69,2.08-1.58,3.71-1.55,.12,0,.21,.12,.17,.24h0Z" fill="#5e1f21"/><path d="M939.65,234.54c-.62,1.88-2.02,2.9-3.24,4.11-2.49,2.39-5.1,4.63-7.89,6.67-1.39,.99-2.73,2.23-4.78,2.31-.12,0-.21-.14-.13-.24,1.96-2.88,4.91-4.75,7.41-7.11,1.3-1.1,2.62-2.19,3.97-3.25,1.36-1.05,2.54-2.29,4.47-2.69,.12-.03,.24,.1,.2,.22h0Z" fill="#5e1f21"/><path d="M939.02,244.71c-.29,1.6-1.37,2.35-2.28,3.29-1.85,1.84-3.84,3.52-6,5-1.07,.74-2.1,1.6-3.69,1.58-.12,0-.21-.13-.17-.24,.54-1.48,1.57-2.18,2.53-3.03,.96-.85,1.91-1.71,2.89-2.53,.98-.82,1.98-1.63,3-2.41,1.04-.77,1.89-1.74,3.5-1.87,.12-.01,.22,.1,.2,.22h0Z" fill="#5e1f21"/></g><path d="M914.99,245.48c-5.77,.14-24.79,12.35-33.89,22.49-10.78,12.02-2.3,16.49,1.4,21.06,1.77,2.18,4.86,2.58,7.09,.92l36.11-30.97-10.72-13.49Z" fill="#c87550"/><g><path d="M879.47,316.89c-6.32,4.3-27.81,7.92-37.7-8.69-7.52-12.64,14.02-53.99,60.33-63.18,13.02,8.42,15.48,25.3,15.48,25.3,0,0-24.7,37.43-38.12,46.56Z" fill="#d34c09"/><path d="M894.74,246.44c2.34,2.05,3.69,4.68,5.26,7.17,1.56,2.5,3.06,5.05,4.56,7.58,1.46,2.56,2.93,5.12,4.34,7.71,1.41,2.59,2.96,5.1,3.65,8.11,.04,.14-.15,.25-.25,.15-2.27-2.09-3.7-4.67-5.25-7.18-1.56-2.5-3.06-5.04-4.57-7.58-1.46-2.56-2.94-5.11-4.35-7.71-1.39-2.6-3.01-5.07-3.64-8.12-.03-.14,.15-.25,.25-.15h0Z" fill="#72280a"/></g><path d="M849.06,282.82c2.86-4.85,6.69-8.96,10.62-12.92,9.86-9.86,21.14-18.81,34.32-23.78,2.68-.99,5.45-1.8,8.29-2.2,.18-.03,.36,.03,.5,.13,.73,.57,1.48,1.07,2.27,1.69,.79,.62,1.37,1.45,1.87,2.3,.04,.07,.02,.16-.05,.2-.05,.03-.12,.02-.17-.01-.76-.59-1.47-1.18-2.26-1.54-.81-.38-1.71-.79-2.55-1.25l.61,.12c-5.27,1.34-10.37,3.35-15.16,6.01-9.62,5.29-18.23,12.3-26.18,19.86-3.98,3.82-7.66,7.9-11.88,11.59-.11,.11-.32-.05-.23-.19h0Z" fill="#72280a"/><path d="M890.36,306.31c1.54-3.24,3.84-5.87,6.09-8.52,6.45-7.94,14.41-14.99,18.28-24.63,.06-.16,.16-.34,.31-.41,.93-.55,1.52-1.45,1.66-2.61,.15-1.16-.07-2.42-.35-3.67-.05-.16,.2-.26,.27-.11,1.42,2.3,1.92,5.93-.63,7.73,0,0,.31-.41,.31-.41-.45,1.73-1.08,3.43-1.92,5.01-4.06,7.85-10.52,14.02-16.33,20.51-2.34,2.55-4.55,5.21-7.46,7.3-.12,.09-.3-.05-.23-.19h0Z" fill="#72280a"/></g><g><line x1="993.81" y1="184.74" x2="993.81" y2="199.84" fill="none" stroke="#b7b0ac" stroke-linecap="round" stroke-miterlimit="10" stroke-width="2"/><g><polygon points="994.11 206.57 997.19 193.05 991.02 193.05 994.11 206.57" fill="#5e6158" stroke="#5e6158" stroke-miterlimit="10"/><polygon points="994.11 208.71 998.07 191.52 990.14 191.52 994.11 208.71" fill="#5e6158" stroke="#5e6158" stroke-linecap="round" stroke-linejoin="round" stroke-width="2"/></g></g><path d="M932.48,416.74l57.52,2.34-14.72-36.65c-2.11-5.26-6.12-8.52-10.47-8.52h-8.08c-4.07,0-7.82,3.01-9.84,7.9l-14.42,34.94" fill="#0077a2"/><g><path d="M921.44,357.01s3.81,167.26,1.17,168.84c-2.65,1.58-22.15,2.53-25.83-9.12-3.68-11.65-5.51-151.86-5.51-151.86l30.17-7.86Z" fill="#001415"/><g><path d="M872.97,540.63c1.14-10.03,3.36-9.87,14.28-16.02,1.69-.95,3.25-1.17,4.47-2.74,2-2.56,2.82-7.08,6.35-7.63,7.1-1.12,16.68,2.29,17.24,5.34,.22,1.19,1.2,2.1,2.36,2.09l5.43,.19c1.12,0,2.12,.84,2.34,2,.73,3.76,2.1,11.8,1.35,15.41-.77,3.7-2.85,1.41-3.68,1.72-.21,.08-.43,.12-.66,.13l-4.54,.2c-.78,.03-11.54,.05-16.29,.19-5.25,.16-20.16,.45-25.63,.44-.54,0-1.05,.19-1.41,.55-.73,.74-2,1.6-1.6-1.87Z" fill="#606060"/><path d="M891.12,523.67c1.25-1.3,2.81-1.37,4.3-1.61,3.03-.44,6.16-.34,9.12,.51,1.47,.42,3.04,.94,3.96,2.43,.07,.1,0,.24-.12,.26-.88,.11-1.57-.04-2.29-.14-3.41-.91-6.95-.99-10.48-.9-1.44,.03-2.81,.38-4.43-.26-.11-.04-.15-.2-.06-.28h0Z" fill="#1c0c06"/><path d="M890.21,526.15c.99-1.08,2.09-1,3.17-1.15,2.75-.29,5.62-.32,8.28,.63,.53,.25,1.12,.72,1.31,1.43,.03,.12-.07,.23-.19,.23-2.15,.3-4.01-.15-6.16-.05,0,0-3.14-.07-3.14-.07-1.06-.06-2.09,.17-3.23-.72-.09-.07-.11-.21-.03-.29h0Z" fill="#1c0c06"/><path d="M891.92,522.12c1.34-1.62,3.22-2,5.01-2.49,4.74-1.29,13.07-1.31,15.79,3.57,.06,.11-.04,.25-.16,.23-1.04-.14-1.79-.54-2.63-.78-3.92-1.74-8.36-1.57-12.55-.91-1.82,.29-3.42,.89-5.35,.64-.13-.01-.19-.17-.11-.27h0Z" fill="#1c0c06"/><path d="M873.04,540.71c-.5,.18-.41,3.36,.02,3.74,.76,.68,2.84,.68,2.84,.68,0,0,15.21,.92,21.04,.75,4.75-.14,20.85-.84,21.63-.87l4.54-.2c.23,0,.45-.05,.66-.13,.82-.31,2.2-1.68,2.98-5.29l-53.7,1.3Z" fill="#fff"/></g></g><g><path d="M995.02,359.01s-3.81,167.26-1.17,168.84c2.65,1.58,22.15,2.53,25.83-9.12,3.68-11.65,5.51-151.86,5.51-151.86l-30.17-7.86Z" fill="#001415"/><g><path d="M1043.74,540.63c-1.14-10.03-3.36-9.87-14.28-16.02-1.69-.95-3.25-1.17-4.47-2.74-2-2.56-2.82-7.08-6.35-7.63-7.1-1.12-16.68,2.29-17.24,5.34-.22,1.19-1.2,2.1-2.36,2.09l-5.43,.19c-1.12,0-2.12,.84-2.34,2-.73,3.76-2.1,11.8-1.35,15.41,.77,3.7,2.85,1.41,3.68,1.72,.21,.08,.43,.12,.66,.13l4.54,.2c.78,.03,11.54,.05,16.29,.19,5.25,.16,20.16,.45,25.63,.44,.54,0,1.05,.19,1.41,.55,.73,.74,2,1.6,1.6-1.87Z" fill="#606060"/><path d="M1025.51,523.95c-1.62,.64-2.98,.29-4.42,.26-1.43-.05-2.85-.04-4.26,.02-1.41,.06-2.8,.2-4.18,.42-1.49,.28-2.7,.76-4.31,.6-.1,0-.18-.09-.16-.19,.86-1.54,2.51-2.07,3.99-2.5,1.49-.41,3.03-.67,4.56-.74,1.53-.06,3.06,.02,4.56,.24,1.49,.24,3.05,.31,4.3,1.61,.09,.09,.05,.25-.07,.28h0Z" fill="#1c0c06"/><path d="M1026.47,526.44c-1.14,.89-2.17,.66-3.23,.72-2.41,.09-5.33,0-7.69,.25-.51,.01-.96-.05-1.65-.14-.1-.01-.16-.1-.15-.2,.18-.71,.78-1.2,1.31-1.45,2.65-.95,5.52-.92,8.28-.63,1.08,.15,2.18,.07,3.17,1.15,.08,.09,.07,.22-.03,.29h0Z" fill="#1c0c06"/><path d="M1024.66,522.39c-1.93,.24-3.52-.36-5.34-.65-3.38-.55-6.85-.71-10.18,.07-1.74,.47-3.11,1.27-4.97,1.61-.13,.04-.26-.1-.19-.23,2.71-4.89,11.04-4.86,15.78-3.58,1.79,.49,3.67,.87,5.01,2.49,.08,.1,.01,.27-.12,.27h0Z" fill="#1c0c06"/><path d="M1043.66,540.71c.5,.18,.41,3.36-.02,3.74-.76,.68-2.84,.68-2.84,.68,0,0-15.21,.92-21.04,.75-4.75-.14-20.85-.84-21.63-.87l-4.54-.2c-.23,0-.45-.05-.66-.13-.82-.31-2.2-1.68-2.98-5.29l53.7,1.3Z" fill="#fff"/></g></g><path d="M886,352c-5,21-1,10,3.95,158.04,4.56,2.18,39.88-2.18,39.88-2.18,2.37-33.98,9.35-122.64,9.35-131.71,0-7.65-.78-23.62-10.18-36.15-12-16-39.06-4.57-43,12Z" fill="#355d66"/><path d="M1024,334c11,14,7,13,4.15,172.58-4.56,2.18-39.88,4.37-39.88,4.37,0,0-12.98-132.13-12.98-139.78,0-7.65,.3-19.88,3.72-35.17s30.74-20.15,45-2Z" fill="#355d66"/><path d="M937.43,379.72c1.39,2.06,1.52,4.38,1.82,6.63,.29,2.27,.4,4.55,.43,6.84-.22,4.53,.05,9.37-2.26,13.47-.07,.12-.27,.08-.29-.06-.48-2.28-.11-4.49,0-6.75,.11-2.22,.18-4.43,.13-6.65,.01-2.22-.07-4.44-.18-6.66-.09-2.23-.52-4.39,.05-6.76,.02-.13,.22-.18,.29-.06h0Z" fill="#1e393f"/><path d="M976.53,367.2c.86,6.51,.77,13.1,1.36,19.65,0,0,.59,9.87,.59,9.87,.18,3.29,.55,6.57-.07,9.94-.02,.14-.25,.17-.29,.03-1.2-3.21-1.43-6.5-1.77-9.79-.84-8.23-1.44-16.51-1.19-24.8,.14-1.67,.29-3.34,1.1-4.98,.03-.07,.12-.1,.19-.06,.07,.03,.08,.1,.09,.16h0Z" fill="#1e393f"/></g><g><polygon points="749.54 320.01 749.27 338.86 653.4 335.94 653.4 315.23 749.54 320.01" fill="#6687c3"/><path d="M698.57,406s-63.54,15.19-66.46-8c-5.03-40,7.05-42,21.15-62l91.63-9s15.81,18.46,16.47,54.74c.64,35.26-62.79,24.26-62.79,24.26Z" fill="#6687c3"/><path d="M648.55,350.41c2.63-.33,5.07,.05,7.65-.1,6.15-.23,12.18-3.08,15.17-8.62,.69-1.04,1.3-2.13,2.14-3.22l.28,.09c.1,2.78-1.2,5.34-2.91,7.5-3.4,4.43-9.2,6.51-14.63,6.42-2.68-.03-5.45-.17-7.79-1.78l.08-.28h0Z" fill="#2f3c56"/><path d="M752.16,346.33c-3.96,2.77-10.53,2.05-14.75,.1-4.46-2.28-8.33-7.05-8.1-12.24,0,0,.28-.08,.28-.08,1.51,2.06,2.37,4.15,3.74,5.97,2.78,3.68,7.1,5.57,11.65,5.86,2.39,.18,4.64-.19,7.09,.11,0,0,.09,.28,.09,.28h0Z" fill="#2f3c56"/><g><path d="M646.63,610.52c-.16,.11-.34,.21-.52,.31,.07-.02,.23-.1,.53-.31,0,0,0,0,0,0Z" fill="#b4b6b9"/><path d="M813.83,626.15c.13-.06,.26-.12,.39-.16,.01,0,.02-.01,.04-.02-.78,.21-.68,.25-.43,.18Z" fill="#b4b6b9"/></g><path d="M665.75,181.69c2.21,1.5,4.19,2.61,5.93,4.02-1.01,4.96-.12,13.29,15.1,17.5,.09,.03,.18,.05,.27,.07,7.71,3.08,16.58,3.4,24.26,.46,1.86-.67,2.39-3.11,1.48-4.69-7.09-13.74-5.35-30.4-2.43-44.77,3.27-16.64,12.18-31.55,15.39-48.16,1.05-7.47-.35-21.5-9.01-24.45-14.38-10.04-28.12-4.07-26.39,13.44-.12,2.19,4.16-5.4-5.09-1.75s-11.95,13.97-11.43,26.24c0,.03-.11,.53-.12,.55-.3,1.91-2.59,1.8-4.15,2.02-9.25,.17-12.53,9.12-8.66,16.48-8.7,12.43-11.26,33.6,4.86,43.03Z" fill="#e17023"/><path d="M728.55,187.2c5.61,6.36,15.52,7.34,23.01,3.16,7.74-4.33,11.29-13.48,10.3-21.55-.07-.59-.17-1.17-.28-1.74,1.87-1.31,3.58-2.8,4.86-4.63,2.26-3.23,2.95-7.1,1.43-10.73-1.09-2.6-2.99-4.73-5.31-6.41,.3-.61,.62-1.21,.95-1.8,1.53-2.68,3.37-5.2,4.86-7.91,1.67-3.06,2.78-6.35,2.73-9.8-.06-4.1-2.11-8.03-5.22-10.82-1.85-1.66-4.18-2.83-6.68-3.47,1.39-2.46,1.75-5.36,.76-8.11-.86-2.4-2.68-4.24-4.95-5.38,2.47-4.48-10.04-31-35.04-14-2.8,1.9-21.14,10.83-20,14,.27,.75,21.7,12.53,22.4,12.91,1.09,7.87,9.31,12.31,10.4,20.18,.14,1,.7,1.88,1.51,2.45,.05,.86,.1,1.72,.15,2.58,.35,5.75,.71,11.5,1.06,17.24,.33,5.37,.7,10.76-.13,16.08-.41,2.6-1.01,4.94-1.96,7.13-.94,2.16-1.91,3.79-3.3,5.45-.24,.1-.47,.22-.69,.37-1.53,1.03-2.14,3.38-.88,4.81Z" fill="#e17023"/><path d="M744.87,130.31c-2.48-.98-4.66-1.62-6.67-2.62-.1-5.06-2.81-12.98-18.59-13.75-.09,0-.18,0-.28-.01-8.2-1.31-16.93,.34-23.76,4.89-1.66,1.06-1.64,3.56-.41,4.9,9.94,11.84,11.91,28.48,12.23,43.13,.48,16.95-4.94,33.46-4.41,50.36,.62,7.52,5.08,20.89,14.17,21.87,16.24,6.63,28.33-2.23,22.79-18.92-.37-2.16,1.59,1.12,3.05-.65,.18-.16,2.11,1.38,2.3,1.24,13.59-4.11,8.58-16.26,5.37-28.12-.01-.03,0-.55,0-.57-.13-1.93,2.13-2.32,3.6-2.89,8.98-2.2,10.21-11.65,4.82-17.99,5.75-14.04,3.59-35.25-14.22-40.9Z" fill="#e17023"/><path d="M698.51,123.06c-4.42-7.24-14.01-9.94-22.11-7.12-8.37,2.91-13.46,11.31-13.89,19.43-.03,.59-.04,1.18-.03,1.77-2.06,.96-4.01,2.13-5.59,3.71-2.79,2.79-4.14,6.48-3.28,10.31,.62,2.75,2.12,5.18,4.11,7.24-.4,.55-.82,1.09-1.25,1.61-1.98,2.38-4.23,4.54-6.16,6.95-2.18,2.72-3.84,5.77-4.39,9.18-.66,4.05,.68,8.28,3.25,11.57,1.53,1.96,3.62,3.51,5.97,4.58-1.79,2.18-2.65,4.97-2.16,7.85,.43,2.51,1.9,4.65,3.94,6.16-3.21,3.98-4.9,8.8-4.47,13.85,.09,1,.81,1.81,1.73,2.3,.84,.72,1.98,1.12,3.07,.82,5.93-1.66,11.7-3.75,17.2-6.42,2.63-1.27,5.33-2.62,7.37-4.67,2.38-2.4,8.11-1.67,7.53-4.99-.14-.79,2.58-7.43,1.95-7.92,.3-7.94-7.02-13.74-6.72-21.68,.04-1.01-.36-1.98-1.06-2.68,.1-.86,.2-1.71,.3-2.57,.65-5.72,1.31-11.44,1.96-17.16,.61-5.35,1.19-10.72,2.93-15.82,.85-2.49,1.86-4.69,3.18-6.68,1.3-1.96,2.54-3.4,4.2-4.79,.25-.05,.5-.13,.75-.24,1.69-.75,2.7-2.96,1.71-4.59Z" fill="#e17023"/><g><ellipse cx="667.07" cy="166.74" rx="6.3" ry="8.42" transform="translate(-11.7 276.53) rotate(-23.22)" fill="#ffcbc1"/><path d="M663.03,163.12c1.05-.64,1.67-.1,2.31,.24,1.31,.75,2.37,1.97,2.86,3.41,.27,.69,.55,1.47-.2,2.32-.07,.08-.18,.1-.27,.06-1.04-.43-1.13-.96-1.46-1.45-.64-.96-1.38-1.77-2.21-2.59-.43-.42-.99-.62-1.14-1.76-.01-.1,.03-.19,.11-.23h0Z" fill="#a23b39"/></g><path d="M666.5,152.08c2.62,12.82,4.42,25.45,2.84,30.94s13.98,1,13.98,1l-5.83-34.11-10.99,2.17Z" fill="#e17023"/><path d="M673.57,151.55c-2.32,11.44-1.94,21.16,2.44,30.04,3.73,7.57,11.27,14.85,17.69,16.36,8.28,1.95,17.3-.64,24.42-5.12,8.69-5.46,14.97-16.58,17.3-28.06,4.24-20.88-6.56-34.75-25.39-38.57-16.95-3.44-32.2,4.47-36.44,25.35Z" fill="#ffcbc1"/><path d="M758.59,320.43c9.01-39.46,3.7-66.55,3.7-66.55,0,0,1.21-42.9-55.41-42.9-2.7,0-5.43,.02-8.16,.1-.68-.04-1.37-.07-2.07-.1-56.58-2.39-59.15,44.38-59.15,44.38,0,0-4.52,31.6,7.44,65.07h113.67Z" fill="#d02d32"/><ellipse cx="737" cy="163.53" rx="8.42" ry="6.3" transform="translate(426.76 851.75) rotate(-78.25)" fill="#ffcbc1"/><path d="M740.01,159.94c-.16,1.15-.68,1.29-1.1,1.74-.42,.42-.79,.85-1.15,1.28-.36,.43-.71,.87-1.01,1.36-.32,.49-.4,1.03-1.43,1.48-.1,.04-.2,.02-.27-.06-.76-.83-.5-1.62-.25-2.31,.24-.72,.6-1.41,1.09-2,.48-.59,1.06-1.09,1.7-1.47,.63-.35,1.25-.91,2.3-.29,.1,.06,.13,.17,.11,.27h0Z" fill="#a23b39"/><path d="M702.62,121.44c-6.43,9.7,11.89,8.48,19.95,18.67,8.06,10.19,10.22,22.2,7.17,28.91-3.04,6.71-4.41,17.93-.39,28.73,.4,1.91,7.14-5.32,5.65-24.19-.88-11.12,9.13-30.16-4.28-41.96-13.4-11.8-28.11-10.15-28.11-10.15Z" fill="#e17023"/><g><path d="M679.56,144.85c-.28-2.05,.8-2.78,2.17-3.68,2.7-1.85,6.49-2.29,9.47-.67,1.15,.62,1.79,1.54,1.67,3.07,0,0-.38,.45-.38,.45-.94,.3-1.93,.58-2.84,.27,0,0-.65-.08-.65-.08-2.32-.18-4.57,.58-6.78,1.39-.55,.12-1.22,.06-2.27-.31l-.39-.44h0Z" fill="#e17023"/><path d="M707.34,143.3c0-2.35,1.78-3.09,3.6-3.63,3.35-1.02,7.15,.22,9.61,2.5,1.34,1.2,2.4,2.35,2.02,4.43,0,0-.44,.38-.44,.38-1.97,.19-2.78-.5-4.13-1.33-1.06-.57-2.11-1.04-3.13-1.32-1.02-.27-2.03-.44-3.1-.37-1.52,.14-2.22,.48-4.04-.22,0,0-.38-.44-.38-.44h0Z" fill="#e17023"/><path d="M698.42,166.75c-3.91,2.74-8.28-4.04-4.5-6.74,1.07-.83,2.19-1.77,2.79-2.96,.67-1.88,.36-4.04,1.52-5.86,.04-.08,.15-.11,.23-.06,.96,1.69,.77,3.48,.66,5.26-.04,.43-.11,.99-.31,1.51-.69,1.79-2.13,3.07-3.59,4.16-.98,1.02-.13,2.85,1.06,3.41,.56,.34,1.25,.61,2.12,1,.12,.05,.13,.22,.03,.29h0Z" fill="#b25e5d"/></g><path d="M727.38,185.53c1,1,1.12,1.99,1.58,3.18,.71,1.85,1.94,4.49,2.74,6.34,.48,1.07,1.11,2.03,.97,3.51l-.25,.16c-1.42-.53-1.97-1.63-2.61-2.65-1.47-2.34-2.61-4.9-3.13-7.64-.23-.98-.24-1.95,.4-2.88h.29Z" fill="#9f4b12"/><rect x="687.18" y="189.91" width="27.33" height="27.02" fill="#ffcbc1"/><path d="M673.81,213.51s8.14,19.83,23.37,20.54c15.23,.71,31.87-20.54,31.87-20.54,0,0-15.58-4.96-30.1-4.96s-25.14,4.96-25.14,4.96Z" fill="#ffcbc1"/><path d="M806,282.18c-7-41.26-37-69.18-77-69.18-4,27,16.29,53.63,16.29,53.63,0,0,28.68,14.34,36.65,26.56l24.06-11Z" fill="#d02d32"/><path d="M595.98,283.68c7-41.26,44.02-70.68,77-69.18,4,27-16.29,53.63-16.29,53.63,0,0-28.68,14.34-36.65,26.56l-24.06-11Z" fill="#d02d32"/><path d="M636.58,197.57h0c5.39,.97,9.76,5.29,11.11,10.98l17.66,74.65c3.35,14.14,15.08,24.14,28.29,24.06l17.97-.12c12.56-.08,23.19-9.32,26.14-22.6l17.43-78.51c1.21-5.45,5.66-9.15,10.9-9.08h0" fill="none" stroke="#2b3133" stroke-linecap="round" stroke-linejoin="round" stroke-width="30"/><path d="M679.81,159.44c-.73-1.52,.41-2.87,1.5-3.77,2.57-2.36,10.14-2.48,10.54,1.87,0,.11-.12,.19-.22,.16-.66-.23-1.19-.44-1.68-.63-2.63-1.26-6.42-.8-8.47,1.33-.36,.35-.79,.7-1.42,1.12-.09,.06-.21,.03-.26-.07h0Z" fill="#5e1f21"/><path d="M708.36,156.77c.19-1.47,1.34-1.97,2.37-2.44,2.13-1,4.95-.66,6.79,.79,.98,.67,1.82,1.51,1.85,2.81,0,.1-.08,.19-.18,.19-.7-.04-1.2-.25-1.62-.49-2.17-1.55-4.92-1.98-7.38-.82-.45,.13-.96,.23-1.65,.16-.11,0-.19-.11-.17-.21h0Z" fill="#5e1f21"/><path d="M690.12,174.79c.71-4.52,9.83,3.48,16.7-1.14,6.23-4.19,4.7,9.61-8.27,9.01-6.21-.29-8.77-5.73-8.43-7.87Z" fill="none" stroke="#5e1f21" stroke-linecap="round" stroke-linejoin="round" stroke-width="2"/><g><path d="M768.21,255.82l-16.9,1.49s-.58,33.63,21.7,49.69c13.85,9.98,34-2,34-18,0-13.9-6.57-17.94-16-25s-22.79-8.18-22.79-8.18Z" fill="#d02d32"/><g><path d="M765.52,251.11s-.83-13.83-3.99-18.6c-3.16-4.77-18.46-11.46-20.31-11.05-1.85,.42-2.72,2.59-1.85,3.8,.88,1.21,13.06,7.41,13.06,7.41-6.28-1.88-17.74-3.7-19.09-3.02-1.35,.68-.6,3.82-.6,3.82-2.29,1.15-3.02,2.57-2.1,4.29,0,0-2.98,3.09-1.37,5.3,1.61,2.21,13.28,6.02,13.28,6.02,0,0,1.18,7.13,3.67,10.54s9.24,6.8,9.24,6.8l10.07-15.3Z" fill="#ffcbc1"/><path d="M730.68,237.61c1.5-.56,2.65-.03,3.88,.26,1.22,.31,2.44,.65,3.64,1.03,1.2,.38,2.38,.82,3.56,1.28,1.18,.46,2.4,.78,3.32,2.03,.07,.1,.03,.24-.09,.28-1.48,.49-2.66,.04-3.88-.27-1.22-.31-2.44-.64-3.64-1.02-1.2-.38-2.39-.81-3.56-1.27-1.17-.48-2.41-.72-3.31-2.04-.07-.1-.02-.24,.09-.28h0Z" fill="#983333"/><path d="M732.76,233.32c1.57-.74,2.94-.35,4.36-.21,1.41,.16,2.82,.35,4.22,.59,1.4,.24,2.79,.53,4.18,.84,1.39,.32,2.8,.48,4.05,1.62,.09,.08,.07,.24-.05,.29-1.55,.66-2.94,.36-4.36,.2-1.41-.16-2.82-.34-4.22-.58-1.4-.24-2.79-.52-4.18-.83-1.38-.34-2.81-.42-4.05-1.63-.09-.08-.06-.24,.05-.29h0Z" fill="#983333"/></g></g><path d="M765.61,250.89c10.68,.47,33,11.89,35.52,23.04,0,0-.26,.13-.26,.13-2.43-2.75-4.58-5.4-7.26-7.72-5.39-4.62-11.73-7.94-18.21-10.81-3.27-1.45-6.67-2.48-9.86-4.36l.07-.28h0Z" fill="#6b161a"/><path d="M755.59,266.38c1.73,2.58,2.43,5.43,3.43,8.21,.98,2.77,1.96,5.54,3.02,8.28,1.91,5.58,4.66,10.69,7.07,16.04,0,0-.22,.19-.22,.19-2.57-1.7-4.11-4.5-5.47-7.18-2.74-5.33-4.76-10.95-6.46-16.68-.81-2.86-1.82-5.67-1.65-8.79l.28-.08h0Z" fill="#6b161a"/><g><path d="M633.77,257.32l16.9,1.49s.58,33.63-21.7,49.69c-13.85,9.98-34-2-34-18,0-13.9,6.57-17.94,16-25,9.43-7.06,22.79-8.18,22.79-8.18Z" fill="#d02d32"/><g><path d="M636.45,252.61s.83-13.83,3.99-18.6c3.16-4.77,18.46-11.46,20.31-11.05,1.85,.42,2.72,2.59,1.85,3.8s-13.06,7.41-13.06,7.41c6.28-1.88,17.74-3.7,19.09-3.02s.6,3.82,.6,3.82c2.29,1.15,3.02,2.57,2.1,4.29,0,0,2.98,3.09,1.37,5.3-1.61,2.21-13.28,6.02-13.28,6.02,0,0-1.18,7.13-3.67,10.54-2.48,3.42-9.24,6.8-9.24,6.8l-10.07-15.3Z" fill="#ffcbc1"/><path d="M671.39,239.39c-.9,1.32-2.15,1.56-3.31,2.04-1.18,.46-2.36,.88-3.56,1.27-1.2,.38-2.42,.71-3.64,1.02-1.22,.31-2.4,.76-3.88,.27-.12-.04-.16-.18-.09-.28,.92-1.25,2.14-1.57,3.32-2.03,1.18-.46,2.36-.89,3.56-1.28,1.2-.38,2.41-.72,3.64-1.03,1.23-.28,2.38-.82,3.88-.26,.11,.04,.16,.18,.09,.28h0Z" fill="#983333"/><path d="M669.26,235.11c-1.24,1.21-2.66,1.29-4.05,1.63-1.39,.32-2.78,.6-4.18,.83-1.4,.24-2.81,.42-4.22,.58-1.41,.16-2.8,.46-4.36-.2-.11-.05-.14-.21-.05-.29,1.25-1.14,2.66-1.31,4.05-1.62,1.39-.31,2.78-.61,4.18-.84,1.4-.24,2.81-.43,4.22-.59,1.42-.14,2.79-.52,4.36,.21,.11,.05,.14,.21,.05,.29h0Z" fill="#983333"/></g></g><path d="M636.44,252.68c-3.19,1.89-6.59,2.92-9.86,4.36-6.48,2.86-12.82,6.19-18.21,10.81-2.68,2.31-4.83,4.97-7.26,7.72l-.26-.13c2.68-9.8,16.05-16.93,24.91-20.39,3.41-1.28,6.84-2.65,10.61-2.65l.07,.28h0Z" fill="#6b161a"/><path d="M646.67,267.95c.7,5.08-8.82,32.07-13.8,32.45,1.11-2.76,2.56-5.22,3.77-7.92,2.39-5.34,4.36-10.88,6.33-16.4,1-2.77,1.7-5.62,3.43-8.21l.28,.08h0Z" fill="#6b161a"/><polygon points="650.51 490.37 641.33 523.54 621.66 520.88 621.3 488.29 650.51 490.37" fill="#b8b8b8"/><path d="M671.48,416.74l57.52,2.34-14.72-36.65c-2.11-5.26-6.12-8.52-10.47-8.52h-8.08c-4.07,0-7.82,3.01-9.84,7.9l-14.42,34.94" fill="#0077a2"/><g><path d="M596.31,538.13c1.14-10.03,3.36-9.87,14.28-16.02,1.69-.95,3.25-1.17,4.47-2.74,2-2.56,2.82-7.08,6.35-7.63,7.1-1.12,16.68,2.29,17.24,5.34,.22,1.19,1.2,2.1,2.36,2.09l5.43,.19c1.12,0,2.12,.84,2.34,2,.73,3.76,2.1,11.8,1.35,15.41-.77,3.7-2.85,1.41-3.68,1.72-.21,.08-.43,.12-.66,.13l-4.54,.2c-.78,.03-11.54,.05-16.29,.19-5.25,.16-20.16,.45-25.63,.44-.54,0-1.05,.19-1.41,.55-.73,.74-2,1.6-1.6-1.87Z" fill="#c62b2b"/><path d="M614.47,521.17c1.25-1.3,2.81-1.37,4.3-1.61,3.03-.44,6.16-.34,9.12,.51,1.47,.42,3.04,.94,3.96,2.43l-.14,.26c-.88,.11-1.56-.04-2.27-.14-3.41-.91-6.95-.99-10.48-.9-1.44,.03-2.8,.38-4.42-.26l-.07-.28h0Z" fill="#f1f1f1"/><path d="M613.54,523.58c.95-1.57,2.07-1.41,3.15-1.63,2.33-.33,9.34-.71,9.65,2.55,0,0-.28,.34-.28,.34l-.95,.35c-.72,.28-1.39,.14-2.15,.14,0,0-3.02,0-3.02,0-1.03-.01-2.06-.06-3.11-.12-1.06-.12-2.07,.18-3.25-1.2l-.04-.44h0Z" fill="#f1f1f1"/><path d="M615.27,519.62c1.34-1.62,3.22-2,5.01-2.49,4.74-1.29,13.07-1.31,15.79,3.57,0,0-.19,.23-.19,.23-1.03-.15-1.77-.54-2.6-.77-3.92-1.74-8.36-1.57-12.55-.91-1.82,.29-3.41,.89-5.34,.64,0,0-.12-.27-.12-.27h0Z" fill="#f1f1f1"/><path d="M596.39,538.21c-.5,.18-.41,3.36,.02,3.74,.76,.68,2.84,.68,2.84,.68,0,0,15.21,.92,21.04,.75,4.75-.14,20.85-.84,21.63-.87l4.54-.2c.23,0,.45-.05,.66-.13,.82-.31,2.2-1.68,2.98-5.29l-53.7,1.3Z" fill="#fff"/></g><path d="M670.99,434.71c9.1-26.41,47.9-88.78,4.99-103.14-15.51-5.19-34.47-7.41-41.55,37.95,2.59,3.97,8.44,10.21,20.06,11.43,14.91,1.56,18.78-3.16,19.56-4.49,.11-.22,.17-.34,.17-.34,0,0-.05,.13-.17,.34-1.47,2.86-9.5,15.75-22.19,12.89-8.5-1.92-16.66-1.58-19.48-6.46-8.84,58.65-17.39,123.11-17.39,123.11,12,6,30.13,6.04,30.13,6.04,0,0,16.86-51.17,25.87-77.32Z" fill="#6687c3"/><polygon points="741.49 490.37 750.67 523.54 770.34 520.88 770.7 488.29 741.49 490.37" fill="#b8b8b8"/><g><path d="M795.69,538.13c-1.14-10.03-3.36-9.87-14.28-16.02-1.69-.95-3.25-1.17-4.47-2.74-2-2.56-2.82-7.08-6.35-7.63-7.1-1.12-16.68,2.29-17.24,5.34-.22,1.19-1.2,2.1-2.36,2.09l-5.43,.19c-1.12,0-2.12,.84-2.34,2-.73,3.76-2.1,11.8-1.35,15.41,.77,3.7,2.85,1.41,3.68,1.72,.21,.08,.43,.12,.66,.13l4.54,.2c.78,.03,11.54,.05,16.29,.19,5.25,.16,20.16,.45,25.63,.44,.54,0,1.05,.19,1.41,.55,.73,.74,2,1.6,1.6-1.87Z" fill="#c62b2b"/><path d="M777.46,521.46c-1.62,.64-2.98,.29-4.42,.26-1.43-.05-2.85-.04-4.26,.02-1.41,.06-2.8,.2-4.18,.42-1.49,.28-2.7,.76-4.31,.6,0,0-.14-.26-.14-.26,.92-1.49,2.49-2.01,3.96-2.43,1.49-.41,3.03-.67,4.56-.74,1.53-.06,3.06,.02,4.56,.24,1.49,.24,3.05,.31,4.3,1.61l-.07,.28h0Z" fill="#f1f1f1"/><path d="M778.42,524.02c-1.18,1.38-2.19,1.08-3.25,1.2-1.05,.06-2.09,.1-3.11,.12h-3.02c-.76,0-1.42,.14-2.15-.15,0,0-.95-.35-.95-.35l-.28-.34c.31-3.26,7.32-2.88,9.65-2.55,1.08,.22,2.2,.06,3.15,1.63l-.04,.44h0Z" fill="#f1f1f1"/><path d="M776.62,519.89c-1.93,.24-3.52-.36-5.34-.65-4.18-.66-8.63-.83-12.55,.91-.83,.23-1.57,.63-2.6,.77l-.19-.23c2.71-4.89,11.04-4.86,15.78-3.58,1.79,.49,3.67,.87,5.01,2.49l-.12,.27h0Z" fill="#f1f1f1"/><path d="M795.61,538.21c.5,.18,.41,3.36-.02,3.74-.76,.68-2.84,.68-2.84,.68,0,0-15.21,.92-21.04,.75-4.75-.14-20.85-.84-21.63-.87l-4.54-.2c-.23,0-.45-.05-.66-.13-.82-.31-2.2-1.68-2.98-5.29l53.7,1.3Z" fill="#fff"/></g><path d="M721.01,434.71c-9.1-26.41-47.9-88.78-4.99-103.14,15.51-5.19,34.47-7.41,41.55,37.95,7.39,17.69,19.44,136.48,19.44,136.48-9,3-30.13,6.04-30.13,6.04,0,0-16.86-51.17-25.87-77.32Z" fill="#6687c3"/><g><path d="M670.29,387.88s-.06,.11-.16,.31c.12-.19,.16-.31,.16-.31Z" fill="none" stroke="#6687c3" stroke-miterlimit="10"/><path d="M667.23,392.44s-7.8,18.23-11.67,17.96-7.29-7.74-8.61-3.39c-1.32,4.35-6.99,8.84-6.99,8.84,0,0-1.48-10.45-5.21-9.64s-11.39,8.66-11.39,8.66c0,0-1.93-6.18,.85-14.5,2.78-8.32,9.04-15.47,9.04-15.47,0,0,3.7,7.37,10.24,9.25,6.53,1.89,23.75-1.7,23.75-1.7Z" fill="#91afe6"/><path d="M647,403.47c12.65,2.97,21.75-12.7,23.13-15.28-.74,1.2-4.45,5.44-19.27,3.6-11.54-1.43-17.51-7.33-20.18-11.05-.57,4.07-1.13,8.16-1.67,12.24,2.93,4.57,9.51,8.5,17.99,10.49Z" fill="#ffcbc1"/></g><path d="M700.33,328.94c-.16,1.22-.02,2.57-.63,3.73-.7,1.25-2.04,2.14-3.51,2.3-6.97,.12-5.87-11.67,.42-12.08,1.59-.12,3.21,.91,3.67,2.25,.46,1.27,.14,2.55,.05,3.8h0Zm-.29-.03c.19-1.55-1.06-2.93-2.21-3.69-2.16-.97-3.9,1.89-4.01,3.83-.35,3.11,2.03,5.19,4.42,2.54,.78-.65,1.72-1.55,1.8-2.67h0Z" fill="#2f3c56"/><path d="M638.08,351.72c1.49-8.07,6.35-15.74,13.66-19.8,7.01-3.93,17.08-5.38,24.46-1.72,0,0-.44-.18-.44-.18,5.7,1.41,10.66,4.87,14.25,9.45,10.41,13.86,6.81,33.72,.3,48.47,0,0-.28-.1-.28-.1,1.35-5.37,2.65-10.7,3.49-16.09,2.29-12.86,.66-28.5-11.16-36.16-2.2-1.45-4.79-2.7-7.32-3.27-6.45-3.27-16.07-1.94-22.28,1.47-3.41,1.84-6.28,4.56-8.63,7.66-2.35,3.13-4.18,6.66-5.79,10.37l-.28-.09h0Z" fill="#2f3c56"/><path d="M753.5,351.8c-4.65-11.35-12.6-20.41-25.48-21.24-3.7-.21-7.98-.1-11.23,1.74-2.53,.58-5.11,1.83-7.32,3.27-11.81,7.66-13.45,23.3-11.16,36.16,.84,5.39,2.14,10.73,3.49,16.09l-.28,.1c-7.7-16.99-10.99-42.29,6.61-54.35,2.47-1.63,5-2.86,7.94-3.57,0,0-.44,.18-.44,.18,3.9-2.11,8.28-2.19,12.56-1.94,8.33,.65,16.39,5.11,21,12.12,2.31,3.45,3.79,7.36,4.57,11.34l-.28,.09h0Z" fill="#2f3c56"/></g><path d="M832.15,223c1.5,34.41,.74,84.48,1.06,119.45-.19,28.46,.1,76.59-.56,104.52-.1,4.98-.28,9.95-.5,14.93,0,.08-.07,.14-.15,.14-.08,0-.14-.07-.14-.14-.22-4.98-.4-9.95-.5-14.93-.82-49.27-.47-114.68-.41-164.24,.06-14.93-.04-29.86,.38-44.79,.11-4.98,.28-9.95,.53-14.93,0-.18,.29-.18,.29,0h0Z" fill="#1e393f"/><path d="M571.15,225.13c1.5,34.1,.74,83.73,1.06,118.38-.19,28.21,.1,75.91-.56,103.58-.1,4.93-.28,9.87-.5,14.8,0,.08-.07,.14-.15,.14-.08,0-.14-.07-.14-.14-.22-4.93-.4-9.87-.5-14.8-.82-48.83-.47-113.66-.41-162.77,.06-14.8-.04-29.6,.38-44.39,.11-4.93,.28-9.87,.53-14.8,0-.18,.29-.18,.29,0h0Z" fill="#1e393f"/><path d="M310.15,226.13c1.5,33.96,.74,83.37,1.06,117.88-.19,28.09,.1,75.59-.56,103.15-.1,4.91-.28,9.82-.5,14.74,0,.08-.07,.14-.15,.14-.08,0-.14-.07-.14-.14-.22-4.91-.4-9.82-.5-14.74-.82-48.63-.47-113.18-.41-162.09,.06-14.74-.04-29.47,.38-44.21,.11-4.91,.28-9.82,.53-14.74,0-.18,.29-.18,.29,0h0Z" fill="#1e393f"/><g><path d="M218,345s24-4,33-2c7.99,1.78,6.28,49.25,6.28,49.25,0,0-.74,2.2-9.28,10.75-11,11-52.88,2.89-71,3s-24,3-38,3c-11,0-18,2-18,2l-9.08-78.89,22.08,14.89,84-2Z" fill="#394170"/><g><g><g id="e"><path d="M99,497c-.58-1.85-2.4-4.02-.06-4.8l15.65-5.2c2.72-.9,5.49,.07,6.25,2.19l10.46,30.22c1.09,3.07-.33,7.98-3.88,10.02-2.03,1.16-17.82,13.26-23.09,15.5-5.99,2.55-12.24,4.55-18.57,5.94-4.57,1-6.84,5.45-9.56-.74-.45-1.03,.29-5.37,2.37-9.23s13.39-20.81,16.43-29.92c.66-1.99,4-14,4-14Z" fill="#333c3f"/><path d="M91.36,545.27c10.15-3.12,21.29-6.48,30.74-15.67,1.36-1.32,2.59-2.72,4.06-3.95,.91-.77,1.91-1.47,2.73-2.3,1.6-1.63,2.43-3.73,2.21-5.63,.1,.88,1.01,2.99,1.31,3.82,1.73,4.85-3.8,8.17-7.45,11.78-1.6,1.58-3.13,3.22-4.84,4.72-3.56,3.14-7.94,6.2-12.56,7.93-3.42,1.28-10.31,3.93-13.75,5.16-3.6,1.28-9.36,3.04-12.87,3.1-4.55,.08-4.84-1.49-4.96-6,2.2,.26,13-2.23,15.39-2.96Z" fill="#fff"/></g><path d="M87.24,528.23c.5-1.5,1.69-1.97,2.75-2.6,2.17-1.25,4.56-2.13,7.08-2.42,1.32-.15,2.69-.24,3.78,.75,.07,.06,.08,.18,.02,.25-1.03,.75-2.3,.87-3.44,1.11-2.21,.57-4.36,1.39-6.49,2.25-1.1,.43-2.03,1.11-3.55,.9-.11-.01-.19-.13-.15-.24h0Z" fill="#fff"/><path d="M91.67,521.61c.51-1.41,1.61-1.76,2.59-2.31,2.27-1.2,4.77-2.01,7.36-2.16,.94-.09,1.84,.09,2.6,.79,.08,.08,.08,.22-.02,.28-1.04,.78-1.94,.84-3.08,1.11-2.02,.54-4,1.26-5.99,1.95-1.02,.34-1.91,.93-3.32,.58-.11-.03-.18-.15-.14-.25h0Z" fill="#fff"/><path d="M95.15,514.16c.62-1.4,1.77-1.75,2.82-2.28,2.7-1.3,5.67-2.27,8.71-2.12,.68,.11,1.32,.39,1.78,.92,.07,.08,.06,.19-.02,.25-1.07,.65-2.12,.73-3.28,.99-1.84,.44-4.53,1.38-6.38,1.96-1.09,.34-2.05,.93-3.51,.54-.11-.03-.17-.15-.13-.26h0Z" fill="#fff"/><path d="M95,507.55c1.02-1.58,2.5-1.95,3.87-2.59,3.48-1.52,7.09-2.79,10.84-3.5,.79-.05,1.62-.11,2.48,.4,.07,.04,.1,.13,.05,.21-.66,.47-1.36,.9-2.07,1.19-3.27,1.19-7.21,2.69-10.53,3.73-1.5,.48-2.88,1.11-4.54,.81-.11-.01-.17-.15-.11-.24h0Z" fill="#fff"/><path d="M93.65,501.14c1.14-1.4,2.64-1.69,4.06-2.2,2.89-.98,5.82-1.75,8.87-2.09,1.17-.12,2.41-.31,3.58,.13,.4,.16,.85,.37,1.11,.8,.05,.08,.02,.17-.05,.22-.02,.02-.07,.02-.1,.03-4.1,.97-8.68,1.97-12.82,2.99-1.46,.31-2.84,.88-4.56,.39-.12-.03-.17-.18-.09-.28h0Z" fill="#fff"/><path d="M100.11,500.03c-4.82,1.88-10.01,3.37-14.12,6.44-.6,.5-1.12,1.09-1.3,1.62-.36,1,.59,2.26,1.77,2.11,2.34-.28,4.41-1.96,6.31-3.42,2.67-2.17,5.18-4.66,7.48-7.23,.43-.48,1.15-.53,1.64-.14,3.69,2.87,7.66,5.84,12.07,7.38,1.14,.4,2.78,.57,3.47-.04-.02,.07,0,.13,0,.11-1.6-1.81-4.37-2.61-6.62-3.57-3-1.13-6.11-2.09-9.22-2.95l1.28-1.16c.67,3.73,1.81,7.74,4.06,10.81,2.53,3.65,6.66,3.1,9.98,.89,.14-.1,.31,.12,.18,.24-3.43,3.32-8.25,3.93-11.47-.04-2.77-3.33-3.97-7.42-4.79-11.58-.1-.55,.27-1.08,.82-1.18,3.38,.6,6.65,1.81,9.93,2.89,2.4,.92,4.83,1.74,6.93,3.4,.37,.34,.78,.68,1.08,1.39,.92,2.18-1.89,3.68-3.56,3.53-2.73-.06-5.17-1.34-7.44-2.57-2.94-1.66-5.6-3.59-8.2-5.7l1.65-.13c-2.44,2.68-4.98,5.19-7.84,7.46-2.62,1.86-5.9,4.66-9.42,3.47-3.21-1.65-2.7-5.27-.07-7.13,4.5-3.26,9.99-4.44,15.34-5.16,.17-.02,.22,.23,.06,.29h0Z" fill="#fff"/></g><path d="M76.09,549.83s-1.65-10.23,7.16-14.69c8.81-4.46,23.89,.28,24.92,5.58,1.04,5.3-32.08,9.12-32.08,9.12Z" fill="#fff"/></g><g><polygon points="236 481 230 517 258.95 524.82 265 493 236 481" fill="#8fafa4"/><path d="M271.37,566.33c4.68-7.83-1.02-10.92-6.63-21.65-2.33-4.46-6.13-10.54-5.76-12.15,.99-4.35,4.01-16.55,2.78-17.94-.77-.87-3.99-6.08-4.84-6.82l-13.32-12.29c-.83-.72-14.93,15.32-15.73,15.99-2.61,2.2-8.57,6-10,9.04-1.47,3.11,.11,3.42,.55,4.18,.11,.19,.65-.06,.82,.09l47.4,40.07s2.5,5.23,4.74,1.48Z" fill="#333c3f"/><path d="M262.59,540.73c-1.17,.23-1.56-.27-2.18-.57-.59-.31-1.19-.59-1.78-.87-.59-.28-1.18-.56-1.8-.79-.63-.26-1.23-.26-1.87-1.24-.07-.09-.06-.21,.02-.29,.8-.85,1.63-.68,2.4-.54,1.57,.23,3.05,.93,4.25,1.95,.57,.51,1.32,.91,1.18,2.16-.01,.11-.11,.19-.21,.2h0Z" fill="#fff"/><path d="M266.97,548.43c-1.46-.07-2.21-1.45-3.59-2-.55-.29-1.1-.57-1.71-.75-.62-.22-1.21-.16-1.97-1.06-.08-.08-.09-.21-.02-.29,.35-.45,.76-.69,1.17-.77,2.09-.2,4.28,.71,5.62,2.31,.51,.62,1.2,1.24,.75,2.43-.04,.11-.15,.16-.26,.14h0Z" fill="#fff"/><path d="M259.04,533.68c.59-.08,.97,.02,1.22,.08,.03,0,.15,.04-.01-.05-.74-.29-1.51,.54-1.22,1.25,.02,.05,.03,.06,.02,.06-.94-.7-2.18-1.3-3.34-1.74-.59-.22-1.18-.24-1.82-1.17-.06-.09-.05-.21,.01-.29,.74-.89,1.54-.73,2.29-.63,1.84,.24,3.6,1.12,4.62,2.78,.1,.23,.12,.17,.18,.58,.08,.77-.79,1.35-1.46,1.03-.72-.39-.84-.88-.71-1.7,.02-.11,.11-.19,.22-.2h0Z" fill="#fff"/><path d="M256.93,520.51c1.04-.4,1.34,.04,1.81,.29,.46,.26,.89,.55,1.3,.86,.59,.47,1.16,.95,1.69,1.45,.17,.22,.19,.45,.34,.96,.04,.1,.05,.22-.03,.29-.69,.67-1.35,.4-1.99,.08-1.04-.47-1.92-1.13-2.67-1.96-.35-.42-.88-.65-.64-1.75,.02-.11,.1-.19,.19-.22h0Z" fill="#fff"/><path d="M254.59,527.53c.86-.65,1.1-.34,1.51-.28,.39,.09,.77,.19,1.14,.31,.37,.13,.73,.29,1.1,.46,.38,.17,.75,.18,1.03,1.14,.04,.1,.02,.21-.03,.29-.57,.85-1.04,.69-1.5,.66-.94-.05-1.84-.34-2.63-.87-.38-.27-.89-.38-.78-1.45,.01-.11,.07-.2,.15-.25h0Z" fill="#fff"/><path d="M217.66,520.64c.79,.69,48.87,42.73,51.24,44.81,2.37,2.07,4.16,2.02,4.16,2.02,0,1.3-3.59,3.88-4.91,2.82-1.26-1.02-40.31-34.25-50.4-42.84-1.43-1.22-1.76-2.78-1.4-4.51l1.31-2.3Z" fill="#fff"/><path d="M257.25,558.02s9.06-8.57,12.03-5.98c2.96,2.59,6.02,8.66,5.64,12.69s-4.86,4.96-4.86,4.96l-12.8-11.68Z" fill="#fff"/><path d="M261.82,520.5c-1.67-2.45-1.65-6.05-3.49-8.32-.54-.53-.79-.57-1.47-.26-2.71,1.37,3.23,6.94,4.54,8.17,1.26,1.48-1.16,2.29-2.29,2.33-4.55,.23-7.85-3.92-9.17-7.83-.05-.15,.14-.27,.25-.15,2.62,2.44,5.91,7.14,9.79,5.5,0,0-.09,1.76-.09,1.76-1.7-1.4-3.22-2.91-4.56-4.75-1.64-2.06-2.64-5.69,.48-7.12,3.05-1.58,5.09,1.61,5.71,4.1,.62,2.05,.81,4.27,.48,6.34,.14,.12-.05,.35-.19,.22h0Z" fill="#fff"/></g><path d="M152.34,198.99c-10.36-.07-21.08,7.28-22.96,17.47-7.79,42.28-5.66,135.51-4.23,135.76,26.08,4.56,58.79,5.87,79.85-2.23,13-5,16.91-4.06,17-5,.93-9.48-1-58.89,2.19-109.94,.82-13.04,2.61-24.61-10.02-27.95-14.69-3.88-34.69-7.95-61.83-8.12Z" fill="#802523"/><path d="M200.49,205.19s.86,3.06,.86,5.1c0,8.39-8.69,17-18.74,15.2-14.31-2.56-19.73-9.64-19.73-18.04,0-2.72,1.62-4.77,3.31-6.58,0,0,24.84,2.88,34.3,4.32Z" fill="#8e8787"/><path d="M94.28,242.48c-5.77-2.96-12.84-1.54-16.97,3.47-10.86,13.17-21.25,29.29-23.77,38.26-2.8,9.98,18.3-1.57,42.21-17.98,8.66-5.94,7.87-18.96-1.47-23.75h0Z" fill="#8e8787"/><path d="M256.94,256.05c6.13-2.12,12.93,.29,16.31,5.83,8.89,14.57,16.9,32,18.12,41.24,1.36,10.28-17.89-4.14-39.24-23.76-7.73-7.1-5.11-19.88,4.81-23.31h0Z" fill="#8e8787"/><path d="M206.48,205.21s35.7-3.2,71.69,52.55l-28.81,33.9-24.42-34.25-18.46-52.19Z" fill="#802523"/><path d="M220.71,281.28c-.86-2.96-.59-5.87-.57-8.79,.03-2.92,.14-5.84,.24-8.75,.15-2.92,.29-5.83,.5-8.74,.2-2.91,.25-5.83,1.29-8.71h.29c1.25,5.84,.31,11.69,.33,17.56-.14,2.92-.28,5.83-.49,8.74-.23,2.91-.19,5.84-1.3,8.71h-.29Z" fill="#561111"/><path d="M152.89,202.92s-24.89-15.92-81.94,47.22l26.37,32.63,26.74-28.86,28.84-51Z" fill="#802523"/><path d="M109.37,200.32h0c5.39,.97,9.76,5.29,11.11,10.98l17.66,74.65c3.35,14.14,15.08,24.14,28.29,24.06l17.97-.12c12.56-.08,23.19-9.32,26.14-22.6l17.43-78.51c1.21-5.45,5.66-9.15,10.9-9.08h0" fill="none" stroke="#2b3133" stroke-linecap="round" stroke-linejoin="round" stroke-width="30"/><g><path d="M111.04,248.21c.09-.67,1.04-4.62,3.21-6.16,2.17-1.54,7.78-7.46,10.84-9.27,4.74-2.8,14.51-5.44,17.86-2.73,1.98,1.61,3.83,2.52,3.83,2.52,0,0,4.06,.74,4.7,4.21,.64,3.47-2.54,9.41-2.54,9.41,0,0-.37,4.48-2.41,6.71-2.04,2.23-23.72,15.79-29.82,8.91s-5.66-13.61-5.66-13.61Z" fill="#d59163"/><path d="M142.01,232.78c-.77,1.44-2.02,1.85-3.16,2.49-1.15,.62-2.32,1.21-3.5,1.76-1.18,.55-2.39,1.04-3.61,1.52-1.22,.48-2.37,1.09-3.94,.81l-.12-.27c.8-1.38,2.01-1.86,3.16-2.48,1.15-.62,2.31-1.22,3.49-1.77,1.18-.55,2.39-1.06,3.6-1.53,1.23-.45,2.35-1.14,3.94-.8l.12,.27h0Z" fill="#5b3922"/><path d="M151.54,236.92c-.98,1.72-2.55,2.45-3.98,3.39-1.45,.92-2.92,1.81-4.43,2.65-1.5,.84-3.04,1.61-4.61,2.35-1.56,.7-3.11,1.65-5.14,1.33l-.06-.29c2.49-2.42,5.72-3.68,8.63-5.5,1.49-.83,3-1.64,4.53-2.42,1.54-.76,2.94-1.75,4.91-1.77l.15,.25h0Z" fill="#5b3922"/><path d="M148.94,246.77c-.6,1.52-1.8,2.04-2.88,2.78-1.09,.72-2.2,1.4-3.34,2.02-1.14,.62-2.32,1.19-3.52,1.71-1.2,.51-2.37,1.16-3.93,.83l-.12-.27c.81-1.35,1.97-1.83,3.08-2.48,1.11-.64,2.21-1.3,3.33-1.91,1.13-.61,2.26-1.21,3.42-1.78,1.17-.55,2.19-1.33,3.8-1.15l.15,.25h0Z" fill="#5b3922"/></g><g><path d="M170.86,251.01c-35.02-33.87-31.86-58.01-14.86-86.01,0,0,12.71-12.19,12,2-1,20-18,32-11,43,13.38,21.03,18.98,37.6,18.98,37.6l-5.12,3.41Z" fill="#2c1607"/><path d="M174.45,254.97s2.17,14.23,17.11,15.46c.32,.03,.49-.38,.27-.64-1.22-1.47-2.37-3.12-2.98-4.96-.51-1.55-.64-3.19-1.09-4.75s-1.23-3-2.26-4.25c-1.91-2.29-4.58-3.39-7.3-2.81-.5,.11-.98,.26-1.45,.45l-2.3,1.51Z" fill="#2c1607"/><path d="M154.55,168.44c3.49,2.67,6.96,5.38,10.4,8.11,0,0,.27,.22,.27,.22,.06,.05,.06,.04,.17,.14,.35,.34,.15,.98-.33,1.07-3.8,.71-9.5,1.77-13.32,2.46,0,0-2.73,.49-2.73,.49-.07,.01,.07-.01,.11-.05,.06-.04,.11-.1,.13-.16,.07-.14,0-.36-.14-.44l.04,.02c.09,.04,.7,.44,.81,.5,2.15,1.33,6.15,3.76,8.29,5.08,.59,.36,1.52,.93,2.1,1.3,.8,.54,.79,1.82-.02,2.35-.36,.22-.49,.23-.73,.34-4.34,1.79-10.08,4.17-14.43,5.97,0,0-.16,.07-.16,.07l-.04,.02c.43-.17,.31-.78-.01-.87,.77,.26,3.02,1,3.83,1.27,0,0,5.27,1.75,5.27,1.75,.54,.22,.86,.21,1.45,.54,.65,.43,.85,1.37,.43,2.03-.28,.42-.8,.73-1.16,1.06-.1,.11-9.16,7.52-9.65,7.94,0,0,.11-.12,.11-.12,.07-.09,0-.21-.1-.21-.04,0,.02,0,.08,0,2.39-.14,6.73-.41,9.16-.55,.67-.05,1.75-.1,2.41-.14,.84-.09,1.42,.92,.95,1.61,0,0-.14,.29-.14,.29-1.82,3.76-4.29,8.86-6.12,12.61,.01-.06-.03-.1-.08-.1-.02,0,.09,0,.13,0l.32-.02c2.79-.21,7.18-.5,9.96-.71,.13,0,.15-.03,.43,0,.67,.08,1.04,.87,.73,1.45,0,0-.11,.3-.11,.3-.16,.5-4.06,10.81-4.06,10.86,0,0-.1,.28-.1,.28,0,0,0-.02,0-.03,.02-.02-.08-.02,0-.03,1.63-.19,5.99-.7,7.68-.89,0,0,1.31-.15,1.31-.15,.64-.08,1.13,.72,.86,1.24,0,0-.11,.3-.11,.3-.55,1.63-2.01,5.63-2.59,7.28,0,0-.43,1.21-.43,1.21-.07,.17,.02,.26,.16,.27,0,0,.32-.03,.32-.03,1.66-.14,6-.53,7.7-.67,0,0,.02,.15,.02,.15l-5.1,.72-2.55,.35c-.71,.19-1.33-.24-1.1-.98,.76-2.4,2.1-6.51,2.88-8.88,.04-.13,.01-.05,.02-.08,0-.01-.02-.03-.03-.02-.77,.09-5.48,.72-6.35,.83,0,0-2.55,.33-2.55,.33-.64,.13-1.33-.57-1.08-1.24,.44-1.26,3.79-10.22,4.3-11.64-.01,.03,0,.08,.05,.08,0,0-1.17,.09-1.17,.09l-2.57,.19c-1.19,.09-5.63,.42-6.74,.5-.81,.16-1.49-.72-1.1-1.46,.27-.57,.76-1.59,1.05-2.18,1.11-2.32,3.35-6.97,4.46-9.29,.15-.32,.61-1.28,.76-1.58-.03,.06,0,.14,.08,.16-1.55,.1-5.93,.38-7.54,.48-.83,.04-3.05,.2-3.86,.24-.34,.05-.81,0-1.07-.29-.39-.36-.43-1.1-.01-1.47,1.19-.98,9.21-7.55,10.2-8.36,.06-.05,.35-.28,.38-.33,.09-.13,.05-.35-.09-.44-.13-.08-.93-.31-1.16-.4-2.1-.69-6.5-2.19-8.56-2.87,0,0-.33-.11-.33-.11l-.16-.06h-.04c-.46-.14-.64-.77-.28-1.11,.2-.19,.51-.24,.74-.36,3.97-1.62,9.53-3.91,13.49-5.53,0,0,.64-.26,.64-.26,.18-.08,.51-.2,.53-.23,.2-.12,.22-.48,0-.61-.5-.33-1.51-.93-2.03-1.26-1.52-.95-5.52-3.41-7.09-4.38-.47-.27-1.52-.95-1.99-1.23-.58-.28-.37-1.2,.22-1.24,1.74-.31,6.41-1.1,8.21-1.41,1.67-.27,6.25-1.07,7.86-1.32-.12,.03-.16,.17-.07,.25,.03,.02-.07-.06-.1-.08-3.45-2.9-6.88-5.85-10.28-8.81,0,0,.09-.11,.09-.11h0Z" fill="#724d33"/><path d="M174.73,256.98c3.47-1.03,6.07-4.56,6.07-4.56-1.17-4.27-3.16-5.59-3.16-5.59-4.55-.52-7.39,5.21-7.39,5.21,0,0,1.31,3.74,4.49,4.94Z" fill="#1c8c8c"/></g><g><path d="M279.79,194.35c-46.35,15.03-66.18,.91-82.92-27.24,0,0-4.8-16.94,7.4-9.66,17.19,10.27,19.81,30.91,32.81,29.89,24.85-1.95,42.11,.89,42.11,.89l.6,6.12Z" fill="#2c1607"/><path d="M284.97,193.03s13.59,4.76,21.68-7.86c.17-.27-.1-.61-.44-.54-1.87,.39-3.87,.63-5.78,.3-1.61-.27-3.11-.93-4.71-1.26-1.59-.33-3.23-.33-4.81,0-2.92,.61-5.14,2.46-5.91,5.12-.14,.49-.23,.99-.29,1.49l.25,2.74Z" fill="#2c1607"/><path d="M199.22,170.01c4-1.82,8.02-3.62,12.05-5.38,0,0,.32-.14,.32-.14,.07-.03,.06-.03,.2-.08,.46-.14,.94,.32,.79,.79-1.16,3.69-2.9,9.22-4.08,12.92,0,0-.85,2.64-.85,2.64-.02,.07,.02-.07,0-.12,0-.07-.04-.14-.08-.19-.09-.13-.31-.18-.46-.08,0,0,.04-.02,.04-.02,.08-.06,.72-.41,.82-.48,2.18-1.28,6.21-3.66,8.37-4.93,.6-.35,1.53-.91,2.13-1.25,.85-.45,1.98,.16,2.07,1.13,.02,.43-.03,.54-.04,.81-.45,4.68-1.04,10.86-1.5,15.55,0,0-.02,.17-.02,.17v.04c.05-.46-.55-.64-.78-.4,.59-.56,2.3-2.2,2.92-2.79,0,0,4.02-3.84,4.02-3.84,.44-.37,.59-.66,1.16-1.03,.69-.38,1.61-.11,1.99,.58,.24,.45,.27,1.05,.39,1.52,.05,.14,2.34,11.61,2.48,12.25,0,0-.05-.16-.05-.16-.05-.1-.19-.09-.23,0-.02,.03,0-.02,.03-.07,1-2.17,2.8-6.13,3.81-8.35,.27-.61,.73-1.59,1-2.2,.31-.78,1.48-.82,1.87-.08,0,0,.19,.26,.19,.26,2.46,3.38,5.81,7.94,8.27,11.32-.05-.04-.1-.02-.13,.03,0,.02,.04-.08,.05-.12l.13-.29c1.12-2.56,2.93-6.58,4.05-9.13,.06-.11,.04-.15,.2-.39,.39-.56,1.26-.51,1.63,.04,0,0,.21,.24,.21,.24,.37,.37,7.64,8.66,7.69,8.68,0,0,.2,.22,.2,.22,0,0-.02-.01-.03-.01,0-.03-.06,.06-.02-.02,.6-1.53,2.2-5.62,2.82-7.2,0,0,.48-1.23,.48-1.23,.23-.61,1.18-.65,1.5-.18,0,0,.22,.24,.22,.24,1.18,1.25,4.03,4.42,5.22,5.7,0,0,.87,.95,.87,.95,.11,.14,.24,.1,.32-.02,0,0,.12-.3,.12-.3,.66-1.53,2.35-5.54,3.02-7.12,0,0,.14,.05,.14,.05l-1.76,4.84-.89,2.42c-.08,.26-.19,.55-.45,.68-.29,.18-.75,.07-.93-.17-1.76-1.8-4.77-4.91-6.49-6.71-.09-.1-.04-.04-.06-.06-.02,0-.03,0-.03,.02-.28,.72-1.93,5.17-2.25,6,0,0-.9,2.41-.9,2.41-.19,.64-1.11,.9-1.6,.37-.91-.98-7.25-8.15-8.26-9.25,.02,.02,.08,.03,.1,0,0,0-.47,1.08-.47,1.08l-1.04,2.36c-.48,1.09-2.27,5.17-2.72,6.19-.24,.79-1.34,.98-1.8,.28-.38-.51-1.04-1.42-1.43-1.94-1.53-2.07-4.58-6.23-6.11-8.3-.21-.29-.84-1.14-1.04-1.41,.04,.05,.12,.06,.17,0-.63,1.42-2.45,5.42-3.11,6.88-.35,.75-1.25,2.79-1.59,3.52-.11,.32-.38,.71-.76,.81-.51,.18-1.18-.14-1.31-.68-.31-1.51-2.35-11.68-2.6-12.93-.01-.08-.08-.44-.12-.49-.07-.14-.29-.21-.43-.13-.13,.08-.71,.68-.9,.84-1.59,1.53-4.99,4.71-6.55,6.21,0,0-.25,.24-.25,.24l-.13,.12-.03,.03c-.33,.35-.97,.21-1.1-.27-.07-.27,.02-.56,.03-.83,.43-4.27,1.02-10.24,1.45-14.51,0,0,.07-.69,.07-.69,.05-.46,.16-.88-.35-.91-.26,.04-.73,.41-1,.54,0,0-1.2,.7-1.2,.7-1.55,.9-5.6,3.28-7.19,4.2-.52,.28-1.7,1.04-2.23,1.27-.51,.17-.99-.45-.79-.86,0,0,.86-2.64,.86-2.64,1.09-3.25,2.85-8.62,3.94-11.86,.06-.17,.27-.8,.33-.98-.02,.07,.02,.16,.08,.18,.03,.02,.08,.02,.11,0-.26,.09-.79,.32-1.08,.43-3.86,1.56-7.75,3.07-11.64,4.55,0,0-.06-.14-.06-.14h0Z" fill="#724d33"/><path d="M286.88,193.73c.72-3.55-1.18-7.5-1.18-7.5-4.32-.97-6.42,.17-6.42,.17-2.59,3.77,1.13,8.97,1.13,8.97,0,0,3.91,.6,6.47-1.65Z" fill="#1c8c8c"/></g><path d="M198.17,187.86l-4.65,23.73s-1.6,7.93-12.47,6.72c-9.77-1.09-10.55-6.66-10.55-6.66l-1.15-28.31,28.81,4.51Z" fill="#d59163"/><path d="M157.24,161.03c.25,22.05,14.6,36.39,28.64,37.26,9.52,.59,28.88-15.85,28.64-37.9-.25-22.05-13.27-39.79-29.08-39.61-15.82,.18-28.44,18.2-28.19,40.25Z" fill="#d59163"/><path d="M177,180.93c1.24-3.5,5.46-4.18,8.68-3.85,3.42,.34,6.85,2.19,8.49,5.35,.21,.53,.16,.98,.03,1.45-1.44,3.53-6.71,2.39-9.56,2.05-3.02-.58-8.23-.48-7.64-5h0Zm.29,.05c.65,.9,.91,1.87,2.01,2.04,3.2,.55,6.89,1.03,10.12,.97,.89-.12,1.99-.12,2.43-.81,0,.02-.02-.06,.02,.09-2.36-4.19-9.76-5.58-14.58-2.29h0Z" fill="#3a1316"/><ellipse cx="175.06" cy="157.65" rx="2.65" ry="2.64" transform="translate(-60.18 170.39) rotate(-45.1)" fill="#001415"/><ellipse cx="200.58" cy="158.52" rx="2.65" ry="2.64" transform="translate(-54.66 173.27) rotate(-41.63)" fill="#001415"/><path d="M165.88,157.51c.48-1.6,1.83-2.17,3.05-2.78,2.54-1.24,5.75-1.56,8.35-.21,1.33,.58,2.53,1.56,2.83,3.1,.02,.09-.04,.18-.14,.2-.82-.05-1.41-.4-1.97-.61-3.06-1.85-6.8-1.24-9.93,.19-.59,.2-1.22,.35-2.01,.34-.12,0-.2-.12-.17-.23h0Z" fill="#001415"/><path d="M190.65,157.52c.64-1.55,2.04-1.97,3.31-2.45,2.65-.98,5.88-.97,8.32,.63,1.26,.71,2.36,1.8,2.5,3.37,0,.1-.06,.18-.16,.19-.81-.13-1.36-.54-1.9-.81-2.86-2.15-6.64-1.92-9.9-.81-.6,.14-1.25,.23-2.04,.13-.12-.01-.19-.14-.14-.24h0Z" fill="#001415"/><path d="M206.58,150.06s-4.14-5.29-12.64-3.16" fill="none" stroke="#2c1607" stroke-linecap="round" stroke-miterlimit="10" stroke-width="4"/><path d="M178.75,148.77s-8.63-2.13-13.52,2.04" fill="none" stroke="#2c1607" stroke-linecap="round" stroke-miterlimit="10" stroke-width="4"/><path d="M217.59,157.63c11.45-29.92-9.23-53.77-32.18-47.27,0,0-9,17.98,23.26,27.61,0,0,.24,12.1,5.84,22.42l3.08-2.76Z" fill="#2c1607"/><path d="M154.8,157.45c-9.14-22.99,2.08-39.29,2.08-39.29,8.62-14.01,35.7-12.66,40-5.68,0,0-.97,7.17-17.39,17.38-4.28,2.67-10.93,3.94-14.4,3.14,1.14,.62-1.58,17.33-7.81,25-.89,1.1-2.49-.55-2.49-.55Z" fill="#2c1607"/><path d="M156.54,152.35c-1.6-1.18-3.45-1.81-5.27-1.49-3.43,.59-3.9,4.11-3.34,6.93,.74,3.69,2.88,6.99,6.61,8.27,2.21,.76,5.27,.02,6.29-2.28,1.6-3.6-.76-8.83-4.29-11.42Z" fill="#d59163"/><path d="M150.47,153.97c.4-.97,1.17-.94,1.97-.83,1.7,.19,3.16,1.41,3.88,2.9,.08,.31,.13,1.12-.38,1.33-1.07,.03-1.29-.38-1.69-.7-.94-.7-1.85-1.31-2.95-1.67-.19-.1-.77-.56-.83-1.04h0Z" fill="#5b3922"/><path d="M214.7,155.39c1.35-1.47,3.04-2.44,4.89-2.48,3.48-.08,4.62,3.28,4.61,6.15-.01,3.76-1.47,7.41-4.89,9.39-2.02,1.17-5.16,1.04-6.62-1.02-2.27-3.22-.96-8.81,2.01-12.04Z" fill="#d59163"/><path d="M220.95,156.11c-.49,1.18-1.28,1.1-2.2,2.08-.32,.31-.65,.64-.98,1.01-.33,.38-.46,.83-1.52,1.01-.55-.12-.66-.92-.64-1.24,.49-1.95,2.19-3.66,4.26-3.82,.33,0,1.19,.35,1.06,.95h0Z" fill="#5b3922"/><path d="M114,256c-5-10,.48-14.33,0-14-3.47,2.37-14.34,7.07-25,11-11.42,4.21-46.59,25.18-33.99,42.1,14.21,19.09,47.78-10.53,72.32-32.3,0,0-8.32,3.2-13.32-6.8Z" fill="#8e8787"/><path d="M192.24,167.31c3.02,2.31,.46,5.9-2.55,6.48-2.49,.65-5.12,.36-7.54-.23-1.58-.39-3.21-.8-4.39-2.2l.1-.28c1.78-.33,3.19,.16,4.71,.37,1.5,.22,3,.33,4.46,.29,1.43-.04,2.9-.28,3.84-.91,.93-.63,.88-1.56,1.11-3.4l.27-.13h0Z" fill="#5b3922"/><path d="M76.68,258.88c-.41,1.42-1.36,1.92-2.17,2.69-1.22,1.12-3.7,3.35-4.94,4.44-.84,.74-1.53,1.59-2.97,1.83l-.22-.19c.06-1.37,.84-2.21,1.66-3.14,1.5-1.77,3.21-3.34,5.14-4.64,.97-.62,1.84-1.46,3.36-1.24l.15,.25h0Z" fill="#473f3f"/><g><path d="M236.84,267.21c-.09-.67-1.04-4.62-3.21-6.16-2.17-1.54-7.78-7.46-10.84-9.27-4.74-2.8-14.51-5.44-17.86-2.73-1.98,1.61-3.83,2.52-3.83,2.52,0,0-4.06,.74-4.7,4.21-.64,3.47,2.54,9.41,2.54,9.41,0,0,.37,4.48,2.41,6.71,2.04,2.23,23.72,15.79,29.82,8.91,6.1-6.88,5.66-13.61,5.66-13.61Z" fill="#d59163"/><path d="M205.99,251.52c1.6-.35,2.72,.34,3.94,.8,1.22,.48,2.42,.98,3.6,1.53,1.18,.55,2.34,1.15,3.49,1.77,1.15,.62,2.36,1.11,3.16,2.48l-.12,.27c-1.57,.28-2.72-.33-3.94-.81-1.22-.48-2.42-.98-3.61-1.52-1.18-.55-2.35-1.14-3.5-1.76-1.14-.64-2.39-1.05-3.16-2.49l.12-.27h0Z" fill="#5b3922"/><path d="M196.48,255.66c1.98,.02,3.38,1.01,4.91,1.77,1.52,.78,3.03,1.59,4.53,2.42,2.91,1.82,6.14,3.08,8.63,5.5,0,0-.06,.29-.06,.29-2.03,.32-3.57-.63-5.14-1.33-1.57-.73-3.11-1.51-4.61-2.35-1.5-.84-2.98-1.72-4.43-2.65-1.44-.94-3-1.67-3.98-3.39l.15-.25h0Z" fill="#5b3922"/><path d="M199.08,265.51c1.61-.18,2.64,.6,3.8,1.15,1.15,.57,2.29,1.16,3.42,1.78,1.12,.61,2.23,1.27,3.33,1.91,1.11,.65,2.26,1.13,3.08,2.48l-.12,.27c-1.56,.33-2.73-.32-3.93-.83-2.4-1.03-4.69-2.28-6.86-3.73-1.07-.74-2.28-1.26-2.88-2.78l.15-.25h0Z" fill="#5b3922"/></g><path d="M234.27,275.06c4.52-9.51-.6-13.7-.15-13.38,3.24,2.3,13.35,6.91,23.27,10.79,10.62,4.15,43.41,24.58,31.93,40.62-12.95,18.09-43.94-9.97-66.48-30.41,0,0,6.91,1.89,11.43-7.61Z" fill="#8e8787"/><path d="M267.34,276.62c1.51-.23,2.39,.61,3.36,1.24,2.4,1.62,4.49,3.67,6.23,5.99,.3,.5,.53,1.07,.57,1.79l-.22,.19c-1.43-.24-2.12-1.09-2.97-1.83-1.24-1.09-3.73-3.32-4.94-4.44-.82-.77-1.76-1.27-2.17-2.69l.15-.25h0Z" fill="#473f3f"/><path d="M218.59,193.39c2.83,.97,5.49,2.54,8.2,3.69,6.82,2.82,14.29,4.1,21.62,3.07,1.53-.08,2.98-.38,4.54-.28,0,0,.09,.28,.09,.28-7.93,4.53-19.2,2.62-27.13-1.09-2.77-1.36-5.63-2.79-7.51-5.44l.18-.23h0Z" fill="#88a2a5"/><path d="M88.72,347.62c-5.36,17.32,6.06,143.05,8.37,146.56,1.48,2.23,19.4,7.71,27.34,1.5,2.91-2.28,6.12-49.28,8.14-88.12,1.55-29.85,15.95-50.36,15.43-46.55,.26-1.89-16.37-25.12-29.19-29.75-12.82-4.64-25.25,.71-30.1,16.37Z" fill="#394170"/><path d="M246.33,342.74c7.67,.26,18.67-1.74,24.09,25.69,5.81,29.38-2.19,120.24-4.32,135.89-.21,1.56-1.41,2.79-2.96,3.06-7.76,1.3-31.66,4.27-34.21-.69-3.09-6.01-2.21-113.96-2.21-113.96,0,0,3.43-21.13,0-32.3-4.73-15.42,11.93-17.95,19.6-17.68Z" fill="#394170"/><path d="M124.02,334.85c4.56-.4,21.11,17.92,21,22.25-1.74-1-2.95-2.62-4.21-4.11-2.02-2.4-4.11-4.82-6.26-7.1-3.3-3.78-7.18-7.07-10.55-10.75,0,0-.06-.06-.06-.06-.08-.08-.02-.23,.09-.23h0Z" fill="#0e1526"/><path d="M210.9,350.89c4.54-7.49,25.64-12.39,33.14-8.03,.12,.07,.08,.28-.07,.28-1.52,.09-2.91,.09-4.34,.13-7.79,.01-15.68,1.64-22.73,4.96-1.89,.95-3.81,2.1-5.8,2.87-.13,.06-.28-.1-.2-.22h0Z" fill="#0e1526"/><path d="M226.61,391.13c1.03,1.46,.92,2.95,1.07,4.44,.12,1.49,.21,2.97,.26,4.46,.04,1.49,.03,2.98,0,4.47-.04,1.49,.08,2.98-.79,4.49-.06,.11-.23,.12-.29,0-.96-1.46-.93-2.95-1.06-4.44-.12-1.49-.22-2.97-.27-4.46-.04-1.49-.05-2.98,0-4.47,.06-1.49-.14-2.98,.8-4.5,.06-.11,.22-.11,.29,0h0Z" fill="#0e1526"/><path d="M133.15,392c.99,1.33,.83,2.67,.94,4,.08,1.33,.12,2.67,.12,4,0,1.33-.06,2.67-.13,4-.08,1.33-.01,2.67-.93,4-.07,.1-.23,.1-.29,0-.91-1.33-.85-2.67-.93-4-.08-1.33-.13-2.67-.13-4,0-1.33,.04-2.67,.12-4,.1-1.33-.05-2.67,.94-4,.07-.1,.22-.1,.29,0h0Z" fill="#0e1526"/><path d="M153.48,416.74l57.52,2.34-14.72-36.65c-2.11-5.26-6.12-8.52-10.47-8.52h-8.08c-4.07,0-7.82,3.01-9.84,7.9l-14.42,34.94" fill="#0077a2"/></g><g><path d="M467,407s-8.27-4.22-21.63-5.11-26.72,0-26.72,0l-12.92-59.89,84.04-3.12-22.76,68.12Z" fill="#869da5"/><path d="M431.69,218.17c-.14,.33-.32,.44-.34,.83-5.25,.33-7.54-2.47-8.37-7.42-.67,3.18-6.82,6.32-9.34,3.1-1.76-2.25-1.54-12.06-1.26-14.88,.37-3.75-1.49-7.49-3.57-10.7-4.54-7.02-11.75-15.04-9.87-24.3,2.05-10.1,9.58-4.05,10.6,2.53,1.41-4.67,1.57-9.43,3.41-14.19,2.12-5.5,5.42-12.12,10.01-15.83,6.11-4.95,17.14-10.62,18.94-6.71,.44,.94-1.81,5-2.12,6.25-.45,1.78-.81,3.61-1.32,5.37,8.56-4.66,14.08-15.02,23.96-17.31,5.14-1.19,5.81,.78,4.98,5.53-.72,4.13-2.32,7.55-3.85,11.4,2.43-3.31,8.19-13.1,11.25-7.13,1.09,2.12,2.01,4.72,1.69,7.61-.28,2.54-2.02,4.12-2.26,4.65-.58,1.29-1.25,2.19-1.51,3.68,2.99-.37,5.14-3.89,6.07,.8,.81,4.09-2.56,10.41-4.97,13.49,2.44-.34,7.79-4.45,8.19-.3,.26,2.63-3.65,7.42-4.36,9.89,.32-.1,2.75-.91,3.06-1,3.67,2.71-3.05,10.87-4.5,13.32-7.33,12.4-2.09,17.89-5.48,25.44-3.54,7.88-8.51,3.16-14.81,3.25-2.94,.04-5.97,2.45-8.87,3.1-2.65,.6-5.12,.47-7.79,.43-2.02-.03-6.94,.54-7.58-.9Z" fill="#5c3c2c"/><path d="M442.11,148.27c-23.54,0-31.53,18.21-30.2,32.42,1.33,14.21-2.66,36.85,33.31,36.85s30.2-25.3,30.2-32.85c-.89-18.65-9.77-36.42-33.31-36.42Z" fill="#fab7a4"/><g><path d="M414.57,187.98c-.33-3.46-1.87-7.74-3.94-9.12-2.07-1.37-4.58-.96-6.41,1.07-1.08,1.19-1.46,3.44-1.65,5.48-.21,2.29,.43,4.6,1.38,6.38,1.65,3.12,7.61,6.6,10.15,5.76,2.54-.85,.72-4.84,.52-8.87" fill="#fab7a4"/><path d="M405.94,181.84c1.11-.54,1.68,.02,2.32,.38,1.65,.98,3.1,2.73,3.24,4.72,0,.42-.2,.87-.63,1.23-.09,.07-.21,.07-.29,0-1.22-.83-1.32-1.94-2.36-2.9-.39-.45-.83-.88-1.27-1.33-.45-.47-1.03-.67-1.14-1.84-.02-.11,.03-.22,.13-.26h0Z" fill="#a33b39"/><path d="M472.75,187.98c.33-3.46,1.87-7.74,3.94-9.12,2.07-1.37,4.58-.96,6.41,1.07,1.08,1.19,1.46,3.44,1.65,5.48,.21,2.29-.43,4.6-1.38,6.38-1.65,3.12-7.61,6.6-10.15,5.76-2.54-.85-.72-4.84-.52-8.87" fill="#fab7a4"/><path d="M481.52,182.1c-.11,1.17-.69,1.37-1.14,1.84-.45,.45-.88,.88-1.27,1.33-1.04,.95-1.14,2.09-2.38,2.91-.09,.06-.2,.05-.27-.01-1.44-1.27-.05-3.36,.85-4.5,.52-.59,1.12-1.06,1.76-1.45,.64-.36,1.22-.92,2.32-.38,.1,.05,.15,.16,.13,.26h0Z" fill="#a33b39"/></g><path d="M456.87,192.7c-.64-2.52-2.23-3.15-4.69-3.87-1.96-.57-5.45-.14-7.46-.55-3.74-.76-9.39-3.55-10.22,1.38-.83,4.98,4.32,12.28,8.8,13.41,5.37,1.36,15.27-3.66,13.57-10.37Z" fill="none" stroke="#431216" stroke-linecap="round" stroke-linejoin="round" stroke-width="2"/><path d="M438.77,174.64c-1.44-.12-2.3-.81-3.51-1.34-1.08-.45-2.2-.75-3.31-.89-1.11-.14-2.25-.13-3.38,.13-1.16,.2-2.11,.8-3.68,.68-.1,0-.19-.08-.18-.19,.56-1.45,1.9-2.15,3.29-2.57,2.66-.98,5.81-.53,8.22,.89,1.17,.7,2.47,1.42,2.75,3.07,.02,.12-.09,.23-.21,.2h0Z" fill="#001415"/><path d="M455.13,174.44c.28-1.65,1.58-2.37,2.75-3.07,2.41-1.42,5.56-1.87,8.22-.89,1.38,.42,2.68,1.1,3.28,2.51,.04,.09,0,.19-.09,.23-1.57,.18-2.59-.47-3.75-.67-2.85-.61-5.77,.12-8.28,1.56-.56,.25-1.15,.47-1.94,.54-.11,.01-.21-.09-.19-.21h0Z" fill="#001415"/><path d="M445.99,173.81c2.11-2.81,7.11,.4,7.17,3.51,.2,2.93-2.94,6.15-5.89,5.93-.12,0-.19-.14-.14-.24,.34-.74,.79-1.22,1.24-1.65,2.1-1.73,3.65-4.16,.92-6.12-1.08-.64-1.85-.71-3.17-1.16-.12-.02-.19-.16-.12-.27h0Z" fill="#a33b39"/><g><path d="M390.45,533.11s-.38,4.89-1.14,6.85-3.31,3.85-6.41,4.49c-1.33,.38-2.68-1.14-4.82,1.37,0,0-3.06,4.22-5.25,6.22-2.18,2-10.29,7.74-16.8,7.82s-19.05-.26-23.24-6.23c-4.19-5.97,4.1-16.2,11.44-18.6,7.34-2.39,14.57-11.11,14.57-11.11,0,0,1.88-4.79,5.18-7.97,3.29-3.18,11.99,1.18,13.07,3.49s-.08,5.33-.08,5.33c4.43-.77,8.11-3.25,10.88-7.82l2.59,16.16Z" fill="#8397a3"/><g clip-path="url(#f)"><path d="M390.45,533.11c-5.9,9.74-9.8,6.03-11.53,7.03-1.72,1-3.88,5.45-10.44,9.71-6.56,4.27-8.21,5.13-14.03,5.52-5.77,.39-20.02,.66-23.78-6.56-3.75-7.22,34.56-39.32,34.56-39.32l24.8,3.09s6.31,10.77,.41,20.51Z" fill="#426377"/></g><path d="M361.77,536.65c-1.39-.1-2.08-.73-3.2-1.26-.96-.47-1.98-.81-3.01-1.11-1.04-.28-2.1-.52-3.19-.68-1.11-.17-2.18-.05-3.42-.94-.1-.06-.12-.19-.05-.29,1.02-1.04,2.31-1.1,3.63-1.08,1.25,0,2.51,.15,3.74,.48,1.82,.54,3.6,1.43,4.99,2.77,.43,.49,.78,1.09,.77,1.91,0,.13-.13,.22-.25,.19h0Z" fill="#fff"/><path d="M366.33,532.74c-1.04-.3-1.56-.69-2.23-1.31-.97-.8-2.09-1.48-3.25-1.87-.93-.32-1.89-.6-2.92-.64-1.04-.1-2,.17-3.35-.51-.11-.04-.16-.17-.1-.28,1.62-2.15,5-1.72,7.27-1.01,1.23,.44,2.35,1.17,3.27,2.05,.87,.89,1.89,1.83,1.6,3.43-.02,.13-.16,.2-.28,.15h0Z" fill="#fff"/><path d="M372.58,528.25c-1.5-.15-2.32-.95-3.48-1.64-2.03-1.18-4.2-2.11-6.53-2.31-1.32-.07-2.31,.2-3.7-.23-.13-.03-.2-.18-.13-.29,1.78-2.55,5.53-1.94,8.05-1.15,1.32,.5,2.54,1.21,3.62,2.06,1.05,.86,2.25,1.64,2.4,3.35,.01,.13-.11,.24-.24,.21h0Z" fill="#fff"/></g><path d="M425.94,161.5c4.88,4.02,10.79,5.09,14.08,5.25" fill="none" stroke="#5c3c2c" stroke-linecap="round" stroke-linejoin="round" stroke-width="4"/><path d="M453.56,166.47s6.9-.28,12.98-5.52" fill="none" stroke="#5c3c2c" stroke-linecap="round" stroke-linejoin="round" stroke-width="4"/><path d="M414.2,160.74c4.75,1.26,11.59-.37,15.8-2.93,1.48-.9,4.9-3.69,2.95-5.36,5.15,1.61,12.16,2.24,17.08-.15,2.58-1.25,6.89-4.21,7.58-7.11-16.32-.84-32.68,1.41-43.41,15.55Z" fill="#5c3c2c"/><path d="M361,352s-37.98,43.84-37.21,75.09c.58,23.81,6.55,69.93,11.05,94.01,1.4,7.52,5.84,11.16,5.84,11.16,0,0,19.57,11.87,58.44,4.25,0,0,6.61-8.6,5.84-22.31-.76-13.72-14.11-70.34-14.11-70.34l41.15-42.86,17-66-88,17Z" fill="#869da5"/><g><path d="M492.52,529.62s.38,4.89,1.14,6.85c.76,1.95,3.31,3.85,6.41,4.49,1.33,.38,2.68-1.14,4.82,1.37,0,0,3.06,4.22,5.25,6.22s10.29,7.74,16.8,7.82c6.51,.07,19.05-.26,23.24-6.23,4.19-5.97-4.1-16.2-11.44-18.6-7.34-2.39-14.57-11.11-14.57-11.11,0,0-1.88-4.79-5.18-7.97-3.29-3.18-11.99,1.18-13.07,3.49-1.08,2.31,.08,5.33,.08,5.33-4.43-.77-8.11-3.25-10.88-7.82l-2.59,16.16Z" fill="#8397a3"/><g clip-path="url(#g)"><path d="M492.52,529.62c5.9,9.74,9.8,6.03,11.53,7.03s3.88,5.45,10.44,9.71c6.56,4.27,8.21,5.13,14.03,5.52,5.77,.39,20.02,.66,23.78-6.56,3.75-7.22-34.56-39.32-34.56-39.32l-24.8,3.09s-6.31,10.77-.41,20.51Z" fill="#426377"/></g><path d="M520.95,532.96c0-1.56,1.17-2.35,2.28-3.1,2.13-1.4,4.69-2.08,7.21-2.05,1.32-.02,2.58,.03,3.61,1.05,.08,.08,.08,.2,0,.29-1.23,.92-2.35,.8-3.46,.97-2.68,.4-5.29,1.15-7.62,2.55-.49,.25-1.05,.43-1.81,.5-.12,.01-.22-.08-.22-.2h0Z" fill="#fff"/><path d="M516.36,529.1c-.29-1.6,.73-2.54,1.6-3.43,1.82-1.79,4.53-2.81,7.09-2.56,1.32,.05,2.6,.32,3.44,1.5,.08,.1,.03,.26-.09,.3-1.35,.68-2.31,.41-3.35,.51-2.04,.16-3.91,.86-5.56,2.05-.96,.72-1.55,1.47-2.87,1.79-.11,.03-.23-.04-.25-.16h0Z" fill="#fff"/><path d="M510.16,524.54c.14-1.71,1.35-2.5,2.4-3.35,2.19-1.74,4.99-2.87,7.85-2.7,1.42,.05,2.96,.4,3.82,1.79,.07,.11,0,.26-.13,.29-1.13,.32-1.84,.27-2.84,.21-1.43-.02-2.83,.29-4.18,.78-1.08,.41-2.15,.93-3.2,1.54-1.16,.69-1.98,1.49-3.48,1.64-.13,.03-.25-.08-.24-.21h0Z" fill="#fff"/></g><path d="M514,352s48.25,37.84,47.49,69.09c-.58,23.81-6.55,69.93-11.05,94.01-1.4,7.52-5.31,15.17-5.31,15.17,0,0-20.13,9.79-59,2.17,0,0-6.59-10.53-5.83-24.24,.76-13.72,14.11-70.34,14.11-70.34l-41.42-37.86,18.56-73,42.44,25Z" fill="#869da5"/><path d="M438.67,344.83c2.12,3.49,2.75,7.43,3.92,11.21,.03,.11,.1,.36,.15,.46,.26,.78,1.16,1.15,1.93,.91,.6-.18,.92-.73,1.07-1.31,.11-.35,.41-1.33,.53-1.69,.67-2.19,1.45-4.6,2.16-6.76,.99-3,1.84-6.04,3.62-8.79,.05-.07,.14-.09,.21-.05,.2,3.25-1.01,6.4-1.78,9.46-.6,2.2-1.29,4.63-1.95,6.83-.16,.52-.43,1.48-.58,1.99-.35,1.22-1.36,2.26-2.6,2.61-1.9,.59-4.19-.47-4.78-2.41-.16-.43-.61-2.49-.73-2.97-.69-3.08-1.63-6.1-1.46-9.4,0-.14,.21-.2,.28-.07h0Z" fill="#426377"/><polygon points="426.27 209.29 425.29 230.89 461.63 231.38 460.16 208.8 426.27 209.29" fill="#fab7a4"/><path d="M404,223c22.77-7.88,62-6,81,3,18.43,8.73,16.38,47.87,16.38,47.87,15.55,20.57,22.23,56.65,24.74,89.14-36.65-19.52-136.32-22.24-168.6-5.32,3.05-34.3,13.85-71.63,28.24-86,0,0-4.53-40.79,18.25-48.68Z" fill="#3e5958"/><g><g><path d="M328.9,128.39s-5.61-2.54-7.99-6.14c-2.38-3.6-9.91-31.39-8.94-34.5,.97-3.11,3.84-2.85,5.03-1.65s4.02,11.03,4.02,11.03c.97-3.98,3.98-6.08,6.71-2.6,1.28-4.86,6.84-3.44,6.84-3.44,0,0-3.54-10.78-2.81-13.41,.73-2.63,4.92-3.21,6.35-1.29,1.43,1.92,7.09,20.37,7.09,20.37,0,0,8.24,3.27,8.34,8.41,.1,5.14-5.59,19.36-5.59,19.36l-19.04,3.86Z" fill="#fab7a4"/><path d="M345.27,96.89c-1.91,2.76-4.75,3.92-6.99,6.16-.83,.77-1.92,1.81-2.2,2.68,0,0,0-.03,0,0,.02,.1,.13,.36,.17,.47,.33,.9,.89,1.42,1.9,1.39,1.9-.06,3.87-.89,5.93-.9,.14-.01,.22,.17,.12,.27-2.45,2.68-8.43,4.55-10.15,.15-1.24-2.49,1.12-4.5,2.65-5.86,2.59-1.93,5.03-4.19,8.43-4.61,.13-.01,.23,.15,.15,.26h0Z" fill="#a33b39"/><path d="M321.17,97.09c2.45,3.45,3.12,7.39,4.96,11.02,.54,1.46,1.5,1.68,2.87,1.02,.86-.38,1.95-1.37,2.04-2.26,.01-.37-.14-1.1-.31-1.76-.89-3.57-2.7-6.7-3.12-10.52-.01-.09,.05-.17,.14-.18,2.29,2.11,3.28,5.14,4.46,7.9,.92,2.31,2.12,5.34,0,7.41-1.77,2.18-5.82,3.31-7.63,.54-.85-1.43-1.28-2.82-1.82-4.34-.91-2.85-2.02-5.61-1.86-8.75,0-.15,.21-.21,.29-.09h0Z" fill="#a33b39"/><path d="M334.69,91c1.35,.09,1.77,.97,2.34,1.7,1.42,1.91,2.3,4.35,2.13,6.76-.09,.49-.31,.98-.8,1.4-.09,.08-.22,.07-.3-.02-.88-.91-.86-1.65-1.08-2.45-.22-.78-.51-1.52-.82-2.27-.31-.75-.65-1.5-1.01-2.26-.35-.78-.95-1.36-.69-2.67,.02-.11,.13-.19,.24-.18h0Z" fill="#a33b39"/></g><path d="M359.43,268.62s-38.85-48.93-38.94-79.68c-.06-18.5,22.44-18.87,31.17-9.92,8.73,8.95,20.35,37.72,35.96,56.1,14.52,17.1-28.18,33.51-28.18,33.51Z" fill="#fab7a4"/><path d="M322.55,122.86s-12.99,40.2-.55,76.14c6.85,19.79,36.65,5.8,35.9-11.17s-9.96-63.3-9.96-63.3l-25.39-1.67Z" fill="#fab7a4"/><path d="M334.94,237.99c8.91-14.47,20.42-25.05,37-28.55,7.61,9.86,16.33,16.8,29.62,18.24l4.16,48.71-28.42,20.97c-10.68-9.36-32.27-40.71-42.35-59.37Z" fill="#3e5958"/></g><g><g><path d="M562.97,119.68s4.49-4.22,5.57-8.39c1.08-4.18-.78-32.91-2.7-35.53s-4.56-1.46-5.3,.06-.24,11.73-.24,11.73c-2.2-3.45-5.73-4.47-7.19-.29-2.78-4.19-7.58-1.04-7.58-1.04,0,0-.14-11.35-1.68-13.6-1.54-2.25-5.69-1.44-6.42,.83-.73,2.28-.12,21.57-.12,21.57,0,0-6.74,5.76-5.17,10.66,1.57,4.9,11.55,16.51,11.55,16.51l19.27-2.5Z" fill="#fab7a4"/><path d="M537.35,94.87c3.37-.7,6.38,.65,9.46,1.64,1.89,.8,4.77,1.93,4.4,4.69-.2,4.72-6.47,4.88-9.65,3.14-.13-.06-.11-.26,.03-.3,1.95-.65,4.08-.5,5.9-1.06,1.1-.31,1.39-1.22,1.35-2.26,0,0,0-.23,0-.16-1.3-1.45-3.88-2.16-5.78-2.92-1.93-.72-3.96-1.02-5.78-2.47-.11-.08-.07-.26,.06-.29h0Z" fill="#a33b39"/><path d="M560.46,87.54c1.38,3.65,1.02,7.38,1.03,11.14-.02,1.82-.35,4.06-2.31,4.86-2.68,1.08-6.04,.06-7.39-2.6-.58-1.83-.39-3.14-.37-4.88,.17-3,.27-5.98,1.56-8.82,.04-.08,.13-.11,.21-.08,1.22,4.2-.17,8.72,.81,12.84,.64,1.22,2.91,1.84,4.17,1.32,.73-.32,.78-.95,.88-1.74,.1-1.04,.2-2.17,.25-3.22,.2-2.91-.08-5.84,.88-8.81,.04-.14,.25-.15,.3-.01h0Z" fill="#a33b39"/><path d="M545.68,86.26c.67,1.16,.29,1.9,.21,2.75-.1,.84-.18,1.66-.23,2.47-.05,.81-.08,1.61-.04,2.42,.05,.82,.3,1.52-.23,2.67-.05,.11-.17,.16-.28,.12-1.14-.44-1.43-1.42-1.66-2.45-.22-.95-.31-1.93-.26-2.89,.06-.96,.25-1.9,.53-2.8,.3-.88,.42-1.85,1.67-2.37,.11-.04,.23,0,.28,.1h0Z" fill="#a33b39"/></g><path d="M530.44,266.72s42.9-45.42,45.64-76.05c1.65-18.43-20.74-20.73-30.2-12.56-9.46,8.17-23.51,35.83-40.64,52.8-15.94,15.79,25.2,35.81,25.2,35.81Z" fill="#fab7a4"/><path d="M566.99,114.6s17.24,36.96,9.35,74.17c-4.34,20.49-34.33,11.97-35.69-4.96-1.36-16.93,1.35-64.4,1.35-64.4l24.99-4.81Z" fill="#fab7a4"/><path d="M558.45,235.63c-8.67-12.3-20.52-23.02-37.08-28.44-3.33,3.57-8.36,5.81-10.92,10.09-12.51,20.92-13.27,35.22-13.27,35.22l8.52,48.92c20.95-4.69,45.83-47.68,52.75-65.79Z" fill="#3e5958"/></g><path d="M479.12,231.62c13.31,9.34,22.9,31.24,26.83,46.73,1.94,2.42,5.77,9.39,6.78,14.01,.4,1.75,.62,3.58,.35,5.36h-.29c-.27-1.73-.77-3.36-1.4-4.95-1.9-4.93-4.72-9.52-7.57-13.91-3.64-12.83-9.03-25.41-16.68-36.38-2.59-3.64-5.4-7.07-8.22-10.64l.2-.22h0Z" fill="#293333"/><path d="M380.37,200.32h0c5.39,.97,9.76,5.29,11.11,10.98l17.66,74.65c3.35,14.14,15.08,24.14,28.29,24.06l17.97-.12c12.56-.08,23.19-9.32,26.14-22.6l17.43-78.51c1.21-5.45,5.66-9.15,10.9-9.08h0" fill="none" stroke="#2b3133" stroke-linecap="round" stroke-linejoin="round" stroke-width="30"/><path d="M349.98,365.85c2.64-1.35,5.43-1.67,8.22-2.39,5.41-1.45,10.77-3.22,15.65-5.96,2.07-1.2,4.99-3.27,7.02-4.59,.07-.06,.18-.05,.22,.03-2.41,6.78-15.81,11.35-22.42,12.63-2.88,.54-5.73,1.14-8.67,.57-.14-.02-.17-.23-.04-.29h0Z" fill="#426377"/><path d="M499.2,356.01c2.49,.24,4.49,1.28,6.68,2.01,2.17,.74,4.36,1.42,6.58,1.97,2.21,.6,4.45,1.08,6.7,1.45,2.27,.42,4.53,.45,6.84,1.41,.13,.05,.13,.25,0,.29-4.67,1.46-9.53,.13-14.14-.82-2.3-.61-4.56-1.35-6.75-2.28-2.17-.94-4.45-1.77-6.05-3.78-.09-.11,0-.28,.15-.25h0Z" fill="#426377"/><path d="M369.7,520.33c2.31-.41,4.34,.17,6.46,.43,4.17,.53,8.4,1,12.58,.74,2.13-.12,4.09-.64,6.23-.76,.14-.02,.24,.15,.14,.26-1.13,1.32-2.81,2.06-4.49,2.35-2.73,.58-5.54,.63-8.31,.46-2.2-.17-4.38-.46-6.51-.92-2.13-.47-4.32-.77-6.18-2.28-.1-.08-.06-.27,.08-.28h0Z" fill="#426377"/><path d="M492.55,516.78c8.95-1.51,17.68-3.83,25.09-9.21,1.34-.89,2.71-2.07,4.02-3.04,0,0,1.23-1.15,1.23-1.15l2.46-2.3,2.26-2.51c3.08-3.38,5.33-7.3,8.37-10.77,.09-.13,.32-.02,.26,.14-1.13,3.32-2.75,6.43-4.86,9.24-1.05,1.65-3.15,3.93-4.41,5.45-5.65,5.97-12.7,10.67-20.58,13.07-4.46,1.37-9.22,2.42-13.86,1.36-.15-.04-.15-.28,.02-.29h0Z" fill="#426377"/><path d="M410.04,174.5c.39,1.79,.44,11.64,3.06,10.54s1.39-12.34,.84-14.05c1.9,4.32,4.6,3.63,4.62-1.19,0-2.42-.27-7.06-1.4-9.09-2.56-4.59-3.77,.87-4.98,4.59-1,3.07-2.53,6.61-2.52,9.79,.35-.37,.56-.11,1.11-.23" fill="#5c3c2c"/><path d="M470.53,163.77c1.92,2.2,.63,6.33,.67,9.11,.05,3.31,.52,6.31,1.54,9.46,4.97-1.04,3.44-16.88-2.21-18.56Z" fill="#5c3c2c"/><path d="M365.57,430.89c-3.51,.11-6.57-.95-9.8-1.55-3.21-.62-6.42-1.18-9.66-1.57-3.23-.45-6.49-.73-9.75-.95-3.27-.21-6.52-.08-9.87-1.01l-.02-.36c3.26-1.31,6.64-1.27,9.98-1.26,3.35,0,6.71,.25,10.04,.65,3.33,.46,6.63,1.06,9.88,1.92,3.23,.87,6.54,1.6,9.32,3.8l-.11,.34h0Z" fill="#fab7a4"/><path d="M329.44,435.64c3.42-.24,6.43,.62,9.61,.98,3.15,.38,6.32,.63,9.49,.69,3.17,.12,6.36,.04,9.54-.12,3.2-.16,6.33-.66,9.69-.1l.06,.35c-3.01,1.66-6.29,2-9.54,2.37-6.52,.74-13.19,.63-19.66-.57-3.22-.62-6.53-1.17-9.31-3.26l.1-.35h0Z" fill="#fab7a4"/><path d="M330.16,442.19c3.12-.45,5.86,.27,8.74,.51,2.86,.25,5.72,.41,8.59,.37,2.87,.02,5.73-.15,8.6-.41,2.88-.27,5.66-.88,8.76-.47l.08,.35c-2.6,1.78-5.58,2.26-8.51,2.73-5.89,.96-11.96,1.01-17.86,.06-2.93-.49-5.95-.88-8.5-2.8l.09-.35h0Z" fill="#fab7a4"/><path d="M345.97,450.19c1.45-1.22,2.89-1.09,4.34-1.29,2.14-.26,6.46-.74,8.61-.95,1.56-.2,2.85-.53,4.47,.07,0,0,.11,.34,.11,.34-1.02,1.46-2.55,1.8-4.11,2.18-2.93,.74-5.93,1.04-8.93,1.01-1.49-.04-2.99,.21-4.49-.99v-.36h0Z" fill="#fab7a4"/><path d="M336.52,440.73c2.29-1.05,4.47-.81,6.69-.95,4.41-.25,8.79-.56,13.17-1.09,2.26-.29,4.38-.83,6.72-.36,0,0,.1,.35,.1,.35-1.86,1.68-4.16,2.15-6.38,2.61-4.46,.96-9.03,1.32-13.59,1.15-2.26-.11-4.57,.03-6.74-1.34l.03-.36h0Z" fill="#fab7a4"/><path d="M525.65,433.51c2.54-.92,4.92-.53,7.34-.51,2.42,.05,4.83,.09,7.23,.1,2.4,0,4.8,.03,7.18-.1,2.45-.11,4.8-.53,7.26-.08,0,0,.1,.35,.1,.35-2,1.68-4.63,2.07-7.13,2.35-4.93,.63-9.89,.53-14.8,.03-2.44-.28-4.93-.29-7.22-1.79l.04-.36h0Z" fill="#fab7a4"/><path d="M523.29,439.45c2.28-.75,4.27-.2,6.34,0,3.62,.36,8.73,.96,12.3,1.14,2.11,.1,4.16-.06,6.21,.65,0,0,.07,.35,.07,.35-1.84,1.45-4.09,1.56-6.29,1.63-4.28,.18-8.53-.29-12.7-1.14-2.06-.45-4.2-.64-6.01-2.27l.08-.35h0Z" fill="#fab7a4"/><path d="M517.87,426.39c2.81-1.83,5.96-2.12,9.03-2.62,7.74-1.14,15.75-1.45,23.45,.15,1.54,.35,3.04,1,4.41,1.88l-.09,.35c-3.18,.33-6.08-.18-9.2-.35-3.03-.1-6.07-.12-9.11,.02-4.57,.16-9.15,.56-13.7,1.07-1.53,.11-3.08,.14-4.71-.14l-.08-.35h0Z" fill="#fab7a4"/><path d="M378.66,280.51c.13-12.13,12.56-34.5,23-40.81,0,0,.2,.22,.2,.22-.54,.87-1.13,1.67-1.73,2.45-6.96,8.18-12.79,17.27-16.82,27.26-1.52,3.61-2.56,7.34-4.36,10.95l-.29-.06h0Z" fill="#293333"/><path d="M533.69,245.26c.79,2.8,.28,5.52-.05,8.22-.72,5.42-1.98,10.77-3.8,15.93-.88,2.58-1.81,5.19-3.66,7.36l-.27-.11c.16-2.85,1.18-5.3,1.89-7.89,.74-2.57,1.42-5.16,2.01-7.77,.65-2.6,1.18-5.22,1.69-7.85,.53-2.64,.72-5.29,1.89-7.89l.29,.02h0Z" fill="#293333"/><path d="M386.86,433.42c1.26,.5,1.46,1.42,1.9,2.25,.42,.84,.8,1.69,1.15,2.55,.34,.87,.63,1.75,.91,2.65,.27,.9,.68,1.74,.17,2.94-.04,.11-.17,.16-.27,.11-1.19-.53-1.47-1.42-1.89-2.26-.42-.84-.81-1.68-1.16-2.55-.34-.87-.65-1.75-.92-2.64-.25-.9-.74-1.71-.16-2.94,.05-.1,.17-.15,.27-.11h0Z" fill="#426377"/><path d="M494.29,437.79c-.36-1.4,.29-2.25,.71-3.23,.44-.96,.91-1.91,1.42-2.84,.51-.92,1.07-1.82,1.64-2.71,.58-.89,1.03-1.85,2.34-2.33,.11-.04,.23,.03,.26,.14,.29,1.37-.28,2.26-.72,3.22-.44,.96-.9,1.91-1.41,2.84-.51,.93-1.06,1.83-1.64,2.72-.6,.88-.97,1.88-2.35,2.32-.11,.04-.23-.03-.26-.14h0Z" fill="#426377"/><path d="M416.48,416.74l57.52,2.34-14.72-36.65c-2.11-5.26-6.12-8.52-10.47-8.52h-8.08c-4.07,0-7.82,3.01-9.84,7.9l-14.42,34.94" fill="#0077a2"/></g><path d="M511.01,184.93c2.49-.81,5.08,.12,7.25,1.36,6.72,3.55,9.57,13.32,5.42,19.76,0,0-.28-.08-.28-.08-.27-2.51,.16-4.67,.01-6.92-.31-4.42-2.53-8.52-6.28-10.91-1.96-1.29-4.01-1.79-6.14-2.91,0,0,.02-.29,.02-.29h0Z" fill="#88a2a5"/><path d="M636.01,182.25c-2.3,1.24-4.48,2.02-6.49,3.6-4.34,3.45-6.19,9.14-5.75,14.59,.13,1.95,.45,3.72,.33,5.76,0,0-.28,.09-.28,.09-4.39-6.93-2.37-17.43,4.4-22.16,2.25-1.56,4.98-2.83,7.76-2.16,0,0,.03,.29,.03,.29h0Z" fill="#88a2a5"/><path d="M268.61,481.01c.79,2.04,.44,3.97,.34,5.92-.12,1.95-.27,3.9-.47,5.84-.2,1.94-.45,3.88-.72,5.81-.28,1.93-.4,3.88-1.51,5.73l-.29-.03c-.71-2.03-.45-3.97-.33-5.92,.12-1.95,.26-3.9,.46-5.84,.2-1.94,.44-3.88,.71-5.82,.3-1.93,.34-3.89,1.52-5.73l.29,.03h0Z" fill="#88a2a5"/><path d="M227.15,480.99c1.15,2.07,1.15,4.22,1.42,6.35,.25,2.13,.42,4.27,.61,6.41,.06,4.3,1.07,8.66-.09,12.92,0,0-.29,.02-.29,.02-1.78-4-1.45-8.52-2.02-12.76-.14-2.14-.29-4.28-.36-6.43-.06-2.15-.37-4.28,.45-6.49l.29-.02h0Z" fill="#88a2a5"/><path d="M127.47,481.03c.37,5.07-1.15,9.98-1.9,14.95,0,0-.03,.08-.03,.08l-.66,1.96v-.8c1.24,3.34,2.43,6.7,3.58,10.08,1.13,3.42,2.51,6.71,2.78,10.37,0,0-.28,.1-.28,.1-1.09-1.5-1.89-3.11-2.6-4.75-2.01-4.96-3.93-9.95-5.74-14.99,0,0-.14-.41-.14-.41l.14-.39,.7-1.95c.58-2.79,1.51-7.43,2.43-10.79,.37-1.2,.79-2.38,1.42-3.53l.29,.06h0Z" fill="#88a2a5"/><path d="M95.16,480.98c1.15,.94,1.17,2.07,1.44,3.15,.25,1.09,.47,2.18,.64,3.27,.17,1.1,.29,2.21,.39,3.32,.09,1.11,.33,2.2-.4,3.44l-.29,.05c-1.08-.96-1.18-2.06-1.43-3.15-.25-1.09-.48-2.18-.65-3.27-.17-1.1-.3-2.2-.4-3.31-.07-1.11-.4-2.19,.41-3.44l.29-.05h0Z" fill="#88a2a5"/></g></svg>